<?xml version="1.0" encoding="utf-8" standalone="no"?>
<!DOCTYPE svg PUBLIC "-//W3C//DTD SVG 1.1//EN"
  "http://www.w3.org/Graphics/SVG/1.1/DTD/svg11.dtd">
<svg xmlns:xlink="http://www.w3.org/1999/xlink" width="720pt" height="360pt" viewBox="0 0 720 360" xmlns="http://www.w3.org/2000/svg" version="1.1">
 <metadata>
  <rdf:RDF xmlns:dc="http://purl.org/dc/elements/1.1/" xmlns:cc="http://creativecommons.org/ns#" xmlns:rdf="http://www.w3.org/1999/02/22-rdf-syntax-ns#">
   <cc:Work>
    <dc:type rdf:resource="http://purl.org/dc/dcmitype/StillImage"/>
    <dc:date>2025-03-25T19:01:35.784877</dc:date>
    <dc:format>image/svg+xml</dc:format>
    <dc:creator>
     <cc:Agent>
      <dc:title>Matplotlib v3.10.0, https://matplotlib.org/</dc:title>
     </cc:Agent>
    </dc:creator>
   </cc:Work>
  </rdf:RDF>
 </metadata>
 <defs>
  <style type="text/css">*{stroke-linejoin: round; stroke-linecap: butt}</style>
 </defs>
 <g id="figure_1">
  <g id="patch_1">
   <path d="M 0 360 
L 720 360 
L 720 0 
L 0 0 
z
" style="fill: #ffffff"/>
  </g>
  <g id="axes_1">
   <g id="patch_2">
    <path d="M 47.72 318.04 
L 354.6 318.04 
L 354.6 26.88 
L 47.72 26.88 
z
" style="fill: #ffffff"/>
   </g>
   <g id="matplotlib.axis_1">
    <g id="xtick_1">
     <g id="line2d_1">
      <defs>
       <path id="me43617fd2d" d="M 0 0 
L 0 3.5 
" style="stroke: #000000; stroke-width: 0.8"/>
      </defs>
      <g>
       <use xlink:href="#me43617fd2d" x="61.669091" y="318.04" style="stroke: #000000; stroke-width: 0.8"/>
      </g>
     </g>
     <g id="text_1">
      <!-- 0 -->
      <g transform="translate(58.487841 332.638438) scale(0.1 -0.1)">
       <defs>
        <path id="DejaVuSans-30" d="M 2034 4250 
Q 1547 4250 1301 3770 
Q 1056 3291 1056 2328 
Q 1056 1369 1301 889 
Q 1547 409 2034 409 
Q 2525 409 2770 889 
Q 3016 1369 3016 2328 
Q 3016 3291 2770 3770 
Q 2525 4250 2034 4250 
z
M 2034 4750 
Q 2819 4750 3233 4129 
Q 3647 3509 3647 2328 
Q 3647 1150 3233 529 
Q 2819 -91 2034 -91 
Q 1250 -91 836 529 
Q 422 1150 422 2328 
Q 422 3509 836 4129 
Q 1250 4750 2034 4750 
z
" transform="scale(0.015625)"/>
       </defs>
       <use xlink:href="#DejaVuSans-30"/>
      </g>
     </g>
    </g>
    <g id="xtick_2">
     <g id="line2d_2">
      <g>
       <use xlink:href="#me43617fd2d" x="123.665051" y="318.04" style="stroke: #000000; stroke-width: 0.8"/>
      </g>
     </g>
     <g id="text_2">
      <!-- 2 -->
      <g transform="translate(120.483801 332.638438) scale(0.1 -0.1)">
       <defs>
        <path id="DejaVuSans-32" d="M 1228 531 
L 3431 531 
L 3431 0 
L 469 0 
L 469 531 
Q 828 903 1448 1529 
Q 2069 2156 2228 2338 
Q 2531 2678 2651 2914 
Q 2772 3150 2772 3378 
Q 2772 3750 2511 3984 
Q 2250 4219 1831 4219 
Q 1534 4219 1204 4116 
Q 875 4013 500 3803 
L 500 4441 
Q 881 4594 1212 4672 
Q 1544 4750 1819 4750 
Q 2544 4750 2975 4387 
Q 3406 4025 3406 3419 
Q 3406 3131 3298 2873 
Q 3191 2616 2906 2266 
Q 2828 2175 2409 1742 
Q 1991 1309 1228 531 
z
" transform="scale(0.015625)"/>
       </defs>
       <use xlink:href="#DejaVuSans-32"/>
      </g>
     </g>
    </g>
    <g id="xtick_3">
     <g id="line2d_3">
      <g>
       <use xlink:href="#me43617fd2d" x="185.66101" y="318.04" style="stroke: #000000; stroke-width: 0.8"/>
      </g>
     </g>
     <g id="text_3">
      <!-- 4 -->
      <g transform="translate(182.47976 332.638438) scale(0.1 -0.1)">
       <defs>
        <path id="DejaVuSans-34" d="M 2419 4116 
L 825 1625 
L 2419 1625 
L 2419 4116 
z
M 2253 4666 
L 3047 4666 
L 3047 1625 
L 3713 1625 
L 3713 1100 
L 3047 1100 
L 3047 0 
L 2419 0 
L 2419 1100 
L 313 1100 
L 313 1709 
L 2253 4666 
z
" transform="scale(0.015625)"/>
       </defs>
       <use xlink:href="#DejaVuSans-34"/>
      </g>
     </g>
    </g>
    <g id="xtick_4">
     <g id="line2d_4">
      <g>
       <use xlink:href="#me43617fd2d" x="247.65697" y="318.04" style="stroke: #000000; stroke-width: 0.8"/>
      </g>
     </g>
     <g id="text_4">
      <!-- 6 -->
      <g transform="translate(244.47572 332.638438) scale(0.1 -0.1)">
       <defs>
        <path id="DejaVuSans-36" d="M 2113 2584 
Q 1688 2584 1439 2293 
Q 1191 2003 1191 1497 
Q 1191 994 1439 701 
Q 1688 409 2113 409 
Q 2538 409 2786 701 
Q 3034 994 3034 1497 
Q 3034 2003 2786 2293 
Q 2538 2584 2113 2584 
z
M 3366 4563 
L 3366 3988 
Q 3128 4100 2886 4159 
Q 2644 4219 2406 4219 
Q 1781 4219 1451 3797 
Q 1122 3375 1075 2522 
Q 1259 2794 1537 2939 
Q 1816 3084 2150 3084 
Q 2853 3084 3261 2657 
Q 3669 2231 3669 1497 
Q 3669 778 3244 343 
Q 2819 -91 2113 -91 
Q 1303 -91 875 529 
Q 447 1150 447 2328 
Q 447 3434 972 4092 
Q 1497 4750 2381 4750 
Q 2619 4750 2861 4703 
Q 3103 4656 3366 4563 
z
" transform="scale(0.015625)"/>
       </defs>
       <use xlink:href="#DejaVuSans-36"/>
      </g>
     </g>
    </g>
    <g id="xtick_5">
     <g id="line2d_5">
      <g>
       <use xlink:href="#me43617fd2d" x="309.652929" y="318.04" style="stroke: #000000; stroke-width: 0.8"/>
      </g>
     </g>
     <g id="text_5">
      <!-- 8 -->
      <g transform="translate(306.471679 332.638438) scale(0.1 -0.1)">
       <defs>
        <path id="DejaVuSans-38" d="M 2034 2216 
Q 1584 2216 1326 1975 
Q 1069 1734 1069 1313 
Q 1069 891 1326 650 
Q 1584 409 2034 409 
Q 2484 409 2743 651 
Q 3003 894 3003 1313 
Q 3003 1734 2745 1975 
Q 2488 2216 2034 2216 
z
M 1403 2484 
Q 997 2584 770 2862 
Q 544 3141 544 3541 
Q 544 4100 942 4425 
Q 1341 4750 2034 4750 
Q 2731 4750 3128 4425 
Q 3525 4100 3525 3541 
Q 3525 3141 3298 2862 
Q 3072 2584 2669 2484 
Q 3125 2378 3379 2068 
Q 3634 1759 3634 1313 
Q 3634 634 3220 271 
Q 2806 -91 2034 -91 
Q 1263 -91 848 271 
Q 434 634 434 1313 
Q 434 1759 690 2068 
Q 947 2378 1403 2484 
z
M 1172 3481 
Q 1172 3119 1398 2916 
Q 1625 2713 2034 2713 
Q 2441 2713 2670 2916 
Q 2900 3119 2900 3481 
Q 2900 3844 2670 4047 
Q 2441 4250 2034 4250 
Q 1625 4250 1398 4047 
Q 1172 3844 1172 3481 
z
" transform="scale(0.015625)"/>
       </defs>
       <use xlink:href="#DejaVuSans-38"/>
      </g>
     </g>
    </g>
    <g id="text_6">
     <!-- Time (s) -->
     <g transform="translate(180.831094 346.316563) scale(0.1 -0.1)">
      <defs>
       <path id="DejaVuSans-54" d="M -19 4666 
L 3928 4666 
L 3928 4134 
L 2272 4134 
L 2272 0 
L 1638 0 
L 1638 4134 
L -19 4134 
L -19 4666 
z
" transform="scale(0.015625)"/>
       <path id="DejaVuSans-69" d="M 603 3500 
L 1178 3500 
L 1178 0 
L 603 0 
L 603 3500 
z
M 603 4863 
L 1178 4863 
L 1178 4134 
L 603 4134 
L 603 4863 
z
" transform="scale(0.015625)"/>
       <path id="DejaVuSans-6d" d="M 3328 2828 
Q 3544 3216 3844 3400 
Q 4144 3584 4550 3584 
Q 5097 3584 5394 3201 
Q 5691 2819 5691 2113 
L 5691 0 
L 5113 0 
L 5113 2094 
Q 5113 2597 4934 2840 
Q 4756 3084 4391 3084 
Q 3944 3084 3684 2787 
Q 3425 2491 3425 1978 
L 3425 0 
L 2847 0 
L 2847 2094 
Q 2847 2600 2669 2842 
Q 2491 3084 2119 3084 
Q 1678 3084 1418 2786 
Q 1159 2488 1159 1978 
L 1159 0 
L 581 0 
L 581 3500 
L 1159 3500 
L 1159 2956 
Q 1356 3278 1631 3431 
Q 1906 3584 2284 3584 
Q 2666 3584 2933 3390 
Q 3200 3197 3328 2828 
z
" transform="scale(0.015625)"/>
       <path id="DejaVuSans-65" d="M 3597 1894 
L 3597 1613 
L 953 1613 
Q 991 1019 1311 708 
Q 1631 397 2203 397 
Q 2534 397 2845 478 
Q 3156 559 3463 722 
L 3463 178 
Q 3153 47 2828 -22 
Q 2503 -91 2169 -91 
Q 1331 -91 842 396 
Q 353 884 353 1716 
Q 353 2575 817 3079 
Q 1281 3584 2069 3584 
Q 2775 3584 3186 3129 
Q 3597 2675 3597 1894 
z
M 3022 2063 
Q 3016 2534 2758 2815 
Q 2500 3097 2075 3097 
Q 1594 3097 1305 2825 
Q 1016 2553 972 2059 
L 3022 2063 
z
" transform="scale(0.015625)"/>
       <path id="DejaVuSans-20" transform="scale(0.015625)"/>
       <path id="DejaVuSans-28" d="M 1984 4856 
Q 1566 4138 1362 3434 
Q 1159 2731 1159 2009 
Q 1159 1288 1364 580 
Q 1569 -128 1984 -844 
L 1484 -844 
Q 1016 -109 783 600 
Q 550 1309 550 2009 
Q 550 2706 781 3412 
Q 1013 4119 1484 4856 
L 1984 4856 
z
" transform="scale(0.015625)"/>
       <path id="DejaVuSans-73" d="M 2834 3397 
L 2834 2853 
Q 2591 2978 2328 3040 
Q 2066 3103 1784 3103 
Q 1356 3103 1142 2972 
Q 928 2841 928 2578 
Q 928 2378 1081 2264 
Q 1234 2150 1697 2047 
L 1894 2003 
Q 2506 1872 2764 1633 
Q 3022 1394 3022 966 
Q 3022 478 2636 193 
Q 2250 -91 1575 -91 
Q 1294 -91 989 -36 
Q 684 19 347 128 
L 347 722 
Q 666 556 975 473 
Q 1284 391 1588 391 
Q 1994 391 2212 530 
Q 2431 669 2431 922 
Q 2431 1156 2273 1281 
Q 2116 1406 1581 1522 
L 1381 1569 
Q 847 1681 609 1914 
Q 372 2147 372 2553 
Q 372 3047 722 3315 
Q 1072 3584 1716 3584 
Q 2034 3584 2315 3537 
Q 2597 3491 2834 3397 
z
" transform="scale(0.015625)"/>
       <path id="DejaVuSans-29" d="M 513 4856 
L 1013 4856 
Q 1481 4119 1714 3412 
Q 1947 2706 1947 2009 
Q 1947 1309 1714 600 
Q 1481 -109 1013 -844 
L 513 -844 
Q 928 -128 1133 580 
Q 1338 1288 1338 2009 
Q 1338 2731 1133 3434 
Q 928 4138 513 4856 
z
" transform="scale(0.015625)"/>
      </defs>
      <use xlink:href="#DejaVuSans-54"/>
      <use xlink:href="#DejaVuSans-69" transform="translate(57.958984 0)"/>
      <use xlink:href="#DejaVuSans-6d" transform="translate(85.742188 0)"/>
      <use xlink:href="#DejaVuSans-65" transform="translate(183.154297 0)"/>
      <use xlink:href="#DejaVuSans-20" transform="translate(244.677734 0)"/>
      <use xlink:href="#DejaVuSans-28" transform="translate(276.464844 0)"/>
      <use xlink:href="#DejaVuSans-73" transform="translate(315.478516 0)"/>
      <use xlink:href="#DejaVuSans-29" transform="translate(367.578125 0)"/>
     </g>
    </g>
   </g>
   <g id="matplotlib.axis_2">
    <g id="ytick_1">
     <g id="line2d_6">
      <defs>
       <path id="m801805e674" d="M 0 0 
L -3.5 0 
" style="stroke: #000000; stroke-width: 0.8"/>
      </defs>
      <g>
       <use xlink:href="#m801805e674" x="47.72" y="304.805455" style="stroke: #000000; stroke-width: 0.8"/>
      </g>
     </g>
     <g id="text_7">
      <!-- 0.0 -->
      <g transform="translate(24.816875 308.604673) scale(0.1 -0.1)">
       <defs>
        <path id="DejaVuSans-2e" d="M 684 794 
L 1344 794 
L 1344 0 
L 684 0 
L 684 794 
z
" transform="scale(0.015625)"/>
       </defs>
       <use xlink:href="#DejaVuSans-30"/>
       <use xlink:href="#DejaVuSans-2e" transform="translate(63.623047 0)"/>
       <use xlink:href="#DejaVuSans-30" transform="translate(95.410156 0)"/>
      </g>
     </g>
    </g>
    <g id="ytick_2">
     <g id="line2d_7">
      <g>
       <use xlink:href="#m801805e674" x="47.72" y="251.867273" style="stroke: #000000; stroke-width: 0.8"/>
      </g>
     </g>
     <g id="text_8">
      <!-- 0.5 -->
      <g transform="translate(24.816875 255.666491) scale(0.1 -0.1)">
       <defs>
        <path id="DejaVuSans-35" d="M 691 4666 
L 3169 4666 
L 3169 4134 
L 1269 4134 
L 1269 2991 
Q 1406 3038 1543 3061 
Q 1681 3084 1819 3084 
Q 2600 3084 3056 2656 
Q 3513 2228 3513 1497 
Q 3513 744 3044 326 
Q 2575 -91 1722 -91 
Q 1428 -91 1123 -41 
Q 819 9 494 109 
L 494 744 
Q 775 591 1075 516 
Q 1375 441 1709 441 
Q 2250 441 2565 725 
Q 2881 1009 2881 1497 
Q 2881 1984 2565 2268 
Q 2250 2553 1709 2553 
Q 1456 2553 1204 2497 
Q 953 2441 691 2322 
L 691 4666 
z
" transform="scale(0.015625)"/>
       </defs>
       <use xlink:href="#DejaVuSans-30"/>
       <use xlink:href="#DejaVuSans-2e" transform="translate(63.623047 0)"/>
       <use xlink:href="#DejaVuSans-35" transform="translate(95.410156 0)"/>
      </g>
     </g>
    </g>
    <g id="ytick_3">
     <g id="line2d_8">
      <g>
       <use xlink:href="#m801805e674" x="47.72" y="198.929091" style="stroke: #000000; stroke-width: 0.8"/>
      </g>
     </g>
     <g id="text_9">
      <!-- 1.0 -->
      <g transform="translate(24.816875 202.72831) scale(0.1 -0.1)">
       <defs>
        <path id="DejaVuSans-31" d="M 794 531 
L 1825 531 
L 1825 4091 
L 703 3866 
L 703 4441 
L 1819 4666 
L 2450 4666 
L 2450 531 
L 3481 531 
L 3481 0 
L 794 0 
L 794 531 
z
" transform="scale(0.015625)"/>
       </defs>
       <use xlink:href="#DejaVuSans-31"/>
       <use xlink:href="#DejaVuSans-2e" transform="translate(63.623047 0)"/>
       <use xlink:href="#DejaVuSans-30" transform="translate(95.410156 0)"/>
      </g>
     </g>
    </g>
    <g id="ytick_4">
     <g id="line2d_9">
      <g>
       <use xlink:href="#m801805e674" x="47.72" y="145.990909" style="stroke: #000000; stroke-width: 0.8"/>
      </g>
     </g>
     <g id="text_10">
      <!-- 1.5 -->
      <g transform="translate(24.816875 149.790128) scale(0.1 -0.1)">
       <use xlink:href="#DejaVuSans-31"/>
       <use xlink:href="#DejaVuSans-2e" transform="translate(63.623047 0)"/>
       <use xlink:href="#DejaVuSans-35" transform="translate(95.410156 0)"/>
      </g>
     </g>
    </g>
    <g id="ytick_5">
     <g id="line2d_10">
      <g>
       <use xlink:href="#m801805e674" x="47.72" y="93.052727" style="stroke: #000000; stroke-width: 0.8"/>
      </g>
     </g>
     <g id="text_11">
      <!-- 2.0 -->
      <g transform="translate(24.816875 96.851946) scale(0.1 -0.1)">
       <use xlink:href="#DejaVuSans-32"/>
       <use xlink:href="#DejaVuSans-2e" transform="translate(63.623047 0)"/>
       <use xlink:href="#DejaVuSans-30" transform="translate(95.410156 0)"/>
      </g>
     </g>
    </g>
    <g id="ytick_6">
     <g id="line2d_11">
      <g>
       <use xlink:href="#m801805e674" x="47.72" y="40.114545" style="stroke: #000000; stroke-width: 0.8"/>
      </g>
     </g>
     <g id="text_12">
      <!-- 2.5 -->
      <g transform="translate(24.816875 43.913764) scale(0.1 -0.1)">
       <use xlink:href="#DejaVuSans-32"/>
       <use xlink:href="#DejaVuSans-2e" transform="translate(63.623047 0)"/>
       <use xlink:href="#DejaVuSans-35" transform="translate(95.410156 0)"/>
      </g>
     </g>
    </g>
    <g id="text_13">
     <!-- Signal -->
     <g transform="translate(18.737188 187.819375) rotate(-90) scale(0.1 -0.1)">
      <defs>
       <path id="DejaVuSans-53" d="M 3425 4513 
L 3425 3897 
Q 3066 4069 2747 4153 
Q 2428 4238 2131 4238 
Q 1616 4238 1336 4038 
Q 1056 3838 1056 3469 
Q 1056 3159 1242 3001 
Q 1428 2844 1947 2747 
L 2328 2669 
Q 3034 2534 3370 2195 
Q 3706 1856 3706 1288 
Q 3706 609 3251 259 
Q 2797 -91 1919 -91 
Q 1588 -91 1214 -16 
Q 841 59 441 206 
L 441 856 
Q 825 641 1194 531 
Q 1563 422 1919 422 
Q 2459 422 2753 634 
Q 3047 847 3047 1241 
Q 3047 1584 2836 1778 
Q 2625 1972 2144 2069 
L 1759 2144 
Q 1053 2284 737 2584 
Q 422 2884 422 3419 
Q 422 4038 858 4394 
Q 1294 4750 2059 4750 
Q 2388 4750 2728 4690 
Q 3069 4631 3425 4513 
z
" transform="scale(0.015625)"/>
       <path id="DejaVuSans-67" d="M 2906 1791 
Q 2906 2416 2648 2759 
Q 2391 3103 1925 3103 
Q 1463 3103 1205 2759 
Q 947 2416 947 1791 
Q 947 1169 1205 825 
Q 1463 481 1925 481 
Q 2391 481 2648 825 
Q 2906 1169 2906 1791 
z
M 3481 434 
Q 3481 -459 3084 -895 
Q 2688 -1331 1869 -1331 
Q 1566 -1331 1297 -1286 
Q 1028 -1241 775 -1147 
L 775 -588 
Q 1028 -725 1275 -790 
Q 1522 -856 1778 -856 
Q 2344 -856 2625 -561 
Q 2906 -266 2906 331 
L 2906 616 
Q 2728 306 2450 153 
Q 2172 0 1784 0 
Q 1141 0 747 490 
Q 353 981 353 1791 
Q 353 2603 747 3093 
Q 1141 3584 1784 3584 
Q 2172 3584 2450 3431 
Q 2728 3278 2906 2969 
L 2906 3500 
L 3481 3500 
L 3481 434 
z
" transform="scale(0.015625)"/>
       <path id="DejaVuSans-6e" d="M 3513 2113 
L 3513 0 
L 2938 0 
L 2938 2094 
Q 2938 2591 2744 2837 
Q 2550 3084 2163 3084 
Q 1697 3084 1428 2787 
Q 1159 2491 1159 1978 
L 1159 0 
L 581 0 
L 581 3500 
L 1159 3500 
L 1159 2956 
Q 1366 3272 1645 3428 
Q 1925 3584 2291 3584 
Q 2894 3584 3203 3211 
Q 3513 2838 3513 2113 
z
" transform="scale(0.015625)"/>
       <path id="DejaVuSans-61" d="M 2194 1759 
Q 1497 1759 1228 1600 
Q 959 1441 959 1056 
Q 959 750 1161 570 
Q 1363 391 1709 391 
Q 2188 391 2477 730 
Q 2766 1069 2766 1631 
L 2766 1759 
L 2194 1759 
z
M 3341 1997 
L 3341 0 
L 2766 0 
L 2766 531 
Q 2569 213 2275 61 
Q 1981 -91 1556 -91 
Q 1019 -91 701 211 
Q 384 513 384 1019 
Q 384 1609 779 1909 
Q 1175 2209 1959 2209 
L 2766 2209 
L 2766 2266 
Q 2766 2663 2505 2880 
Q 2244 3097 1772 3097 
Q 1472 3097 1187 3025 
Q 903 2953 641 2809 
L 641 3341 
Q 956 3463 1253 3523 
Q 1550 3584 1831 3584 
Q 2591 3584 2966 3190 
Q 3341 2797 3341 1997 
z
" transform="scale(0.015625)"/>
       <path id="DejaVuSans-6c" d="M 603 4863 
L 1178 4863 
L 1178 0 
L 603 0 
L 603 4863 
z
" transform="scale(0.015625)"/>
      </defs>
      <use xlink:href="#DejaVuSans-53"/>
      <use xlink:href="#DejaVuSans-69" transform="translate(63.476562 0)"/>
      <use xlink:href="#DejaVuSans-67" transform="translate(91.259766 0)"/>
      <use xlink:href="#DejaVuSans-6e" transform="translate(154.736328 0)"/>
      <use xlink:href="#DejaVuSans-61" transform="translate(218.115234 0)"/>
      <use xlink:href="#DejaVuSans-6c" transform="translate(279.394531 0)"/>
     </g>
    </g>
   </g>
   <g id="line2d_12">
    <path d="M 61.669091 198.929091 
L 64.487089 198.929091 
L 67.305087 198.929091 
L 70.123085 198.929091 
L 72.941084 198.929091 
L 75.759082 198.929091 
L 78.57708 198.929091 
L 81.395078 198.929091 
L 84.213076 198.929091 
L 87.031074 198.929091 
L 89.849073 198.929091 
L 92.667071 198.929091 
L 95.485069 198.929091 
L 98.303067 93.052727 
L 101.121065 93.052727 
L 103.939063 198.929091 
L 106.757062 198.929091 
L 109.57506 198.929091 
L 112.393058 198.929091 
L 115.211056 198.929091 
L 118.029054 93.052727 
L 120.847052 93.052727 
L 123.665051 145.990909 
L 126.483049 198.929091 
L 129.301047 198.929091 
L 132.119045 145.990909 
L 134.937043 198.929091 
L 137.755041 198.929091 
L 140.573039 198.929091 
L 143.391038 198.929091 
L 146.209036 145.990909 
L 149.027034 145.990909 
L 151.845032 198.929091 
L 154.66303 40.114545 
L 157.481028 198.929091 
L 160.299027 145.990909 
L 163.117025 198.929091 
L 165.935023 40.114545 
L 168.753021 145.990909 
L 171.571019 198.929091 
L 174.389017 198.929091 
L 177.207016 198.929091 
L 180.025014 93.052727 
L 182.843012 198.929091 
L 185.66101 198.929091 
L 188.479008 145.990909 
L 191.297006 198.929091 
L 194.115005 198.929091 
L 196.933003 145.990909 
L 199.751001 198.929091 
L 202.568999 198.929091 
L 205.386997 198.929091 
L 208.204995 198.929091 
L 211.022994 145.990909 
L 213.840992 40.114545 
L 216.65899 93.052727 
L 219.476988 145.990909 
L 222.294986 198.929091 
L 225.112984 198.929091 
L 227.930983 198.929091 
L 230.748981 198.929091 
L 233.566979 198.929091 
L 236.384977 198.929091 
L 239.202975 145.990909 
L 242.020973 198.929091 
L 244.838972 198.929091 
L 247.65697 198.929091 
L 250.474968 198.929091 
L 253.292966 198.929091 
L 256.110964 198.929091 
L 258.928962 198.929091 
L 261.746961 198.929091 
L 264.564959 198.929091 
L 267.382957 198.929091 
L 270.200955 251.867273 
L 273.018953 251.867273 
L 275.836951 304.805455 
L 278.654949 304.805455 
L 281.472948 304.805455 
L 284.290946 304.805455 
L 287.108944 304.805455 
L 289.926942 304.805455 
L 292.74494 304.805455 
L 295.562938 304.805455 
L 298.380937 304.805455 
L 301.198935 304.805455 
L 304.016933 304.805455 
L 306.834931 304.805455 
L 309.652929 304.805455 
L 312.470927 304.805455 
L 315.288926 304.805455 
L 318.106924 304.805455 
L 320.924922 304.805455 
L 323.74292 304.805455 
L 326.560918 304.805455 
L 329.378916 304.805455 
L 332.196915 304.805455 
L 335.014913 304.805455 
L 337.832911 304.805455 
L 340.650909 304.805455 
" clip-path="url(#p3483a6dc21)" style="fill: none; stroke-dasharray: 1.85,0.8; stroke-dashoffset: 0; stroke: #8000ff; stroke-width: 0.5"/>
   </g>
   <g id="line2d_13">
    <path d="M 61.669091 198.929091 
L 64.487089 198.929091 
L 67.305087 198.929091 
L 70.123085 198.929091 
L 72.941084 145.990909 
L 75.759082 198.929091 
L 78.57708 198.929091 
L 81.395078 198.929091 
L 84.213076 198.929091 
L 87.031074 145.990909 
L 89.849073 198.929091 
L 92.667071 198.929091 
L 95.485069 145.990909 
L 98.303067 198.929091 
L 101.121065 198.929091 
L 103.939063 198.929091 
L 106.757062 145.990909 
L 109.57506 145.990909 
L 112.393058 198.929091 
L 115.211056 145.990909 
L 118.029054 198.929091 
L 120.847052 198.929091 
L 123.665051 145.990909 
L 126.483049 198.929091 
L 129.301047 40.114545 
L 132.119045 198.929091 
L 134.937043 40.114545 
L 137.755041 145.990909 
L 140.573039 198.929091 
L 143.391038 145.990909 
L 146.209036 198.929091 
L 149.027034 93.052727 
L 151.845032 198.929091 
L 154.66303 145.990909 
L 157.481028 198.929091 
L 160.299027 198.929091 
L 163.117025 198.929091 
L 165.935023 145.990909 
L 168.753021 145.990909 
L 171.571019 145.990909 
L 174.389017 145.990909 
L 177.207016 93.052727 
L 180.025014 198.929091 
L 182.843012 198.929091 
L 185.66101 145.990909 
L 188.479008 198.929091 
L 191.297006 198.929091 
L 194.115005 93.052727 
L 196.933003 198.929091 
L 199.751001 198.929091 
L 202.568999 93.052727 
L 205.386997 198.929091 
L 208.204995 145.990909 
L 211.022994 198.929091 
L 213.840992 145.990909 
L 216.65899 198.929091 
L 219.476988 145.990909 
L 222.294986 198.929091 
L 225.112984 198.929091 
L 227.930983 93.052727 
L 230.748981 198.929091 
L 233.566979 198.929091 
L 236.384977 198.929091 
L 239.202975 198.929091 
L 242.020973 198.929091 
L 244.838972 145.990909 
L 247.65697 198.929091 
L 250.474968 198.929091 
L 253.292966 198.929091 
L 256.110964 93.052727 
L 258.928962 198.929091 
L 261.746961 198.929091 
L 264.564959 198.929091 
L 267.382957 304.805455 
L 270.200955 304.805455 
L 273.018953 304.805455 
L 275.836951 304.805455 
L 278.654949 304.805455 
L 281.472948 304.805455 
L 284.290946 304.805455 
L 287.108944 304.805455 
L 289.926942 304.805455 
L 292.74494 304.805455 
L 295.562938 304.805455 
L 298.380937 304.805455 
L 301.198935 304.805455 
L 304.016933 304.805455 
L 306.834931 304.805455 
L 309.652929 304.805455 
L 312.470927 304.805455 
L 315.288926 304.805455 
L 318.106924 304.805455 
L 320.924922 304.805455 
L 323.74292 304.805455 
L 326.560918 304.805455 
L 329.378916 304.805455 
L 332.196915 304.805455 
L 335.014913 304.805455 
L 337.832911 304.805455 
L 340.650909 304.805455 
" clip-path="url(#p3483a6dc21)" style="fill: none; stroke-dasharray: 1.85,0.8; stroke-dashoffset: 0; stroke: #80ffb4; stroke-width: 0.5"/>
   </g>
   <g id="line2d_14">
    <path d="M 61.669091 198.929091 
L 64.487089 198.929091 
L 67.305087 198.929091 
L 70.123085 198.929091 
L 72.941084 145.990909 
L 75.759082 93.052727 
L 78.57708 198.929091 
L 81.395078 198.929091 
L 84.213076 198.929091 
L 87.031074 145.990909 
L 89.849073 198.929091 
L 92.667071 198.929091 
L 95.485069 145.990909 
L 98.303067 198.929091 
L 101.121065 145.990909 
L 103.939063 198.929091 
L 106.757062 198.929091 
L 109.57506 198.929091 
L 112.393058 145.990909 
L 115.211056 198.929091 
L 118.029054 198.929091 
L 120.847052 198.929091 
L 123.665051 198.929091 
L 126.483049 198.929091 
L 129.301047 198.929091 
L 132.119045 198.929091 
L 134.937043 198.929091 
L 137.755041 198.929091 
L 140.573039 93.052727 
L 143.391038 198.929091 
L 146.209036 198.929091 
L 149.027034 145.990909 
L 151.845032 198.929091 
L 154.66303 93.052727 
L 157.481028 145.990909 
L 160.299027 40.114545 
L 163.117025 145.990909 
L 165.935023 145.990909 
L 168.753021 198.929091 
L 171.571019 40.114545 
L 174.389017 198.929091 
L 177.207016 198.929091 
L 180.025014 93.052727 
L 182.843012 145.990909 
L 185.66101 198.929091 
L 188.479008 198.929091 
L 191.297006 40.114545 
L 194.115005 198.929091 
L 196.933003 93.052727 
L 199.751001 145.990909 
L 202.568999 198.929091 
L 205.386997 198.929091 
L 208.204995 198.929091 
L 211.022994 93.052727 
L 213.840992 198.929091 
L 216.65899 198.929091 
L 219.476988 198.929091 
L 222.294986 198.929091 
L 225.112984 198.929091 
L 227.930983 198.929091 
L 230.748981 198.929091 
L 233.566979 145.990909 
L 236.384977 145.990909 
L 239.202975 198.929091 
L 242.020973 198.929091 
L 244.838972 198.929091 
L 247.65697 145.990909 
L 250.474968 198.929091 
L 253.292966 198.929091 
L 256.110964 198.929091 
L 258.928962 198.929091 
L 261.746961 198.929091 
L 264.564959 145.990909 
L 267.382957 304.805455 
L 270.200955 304.805455 
L 273.018953 304.805455 
L 275.836951 304.805455 
L 278.654949 304.805455 
L 281.472948 304.805455 
L 284.290946 304.805455 
L 287.108944 304.805455 
L 289.926942 304.805455 
L 292.74494 304.805455 
L 295.562938 304.805455 
L 298.380937 304.805455 
L 301.198935 304.805455 
L 304.016933 304.805455 
L 306.834931 304.805455 
L 309.652929 304.805455 
L 312.470927 304.805455 
L 315.288926 304.805455 
L 318.106924 304.805455 
L 320.924922 304.805455 
L 323.74292 304.805455 
L 326.560918 304.805455 
L 329.378916 304.805455 
L 332.196915 304.805455 
L 335.014913 304.805455 
L 337.832911 304.805455 
L 340.650909 304.805455 
" clip-path="url(#p3483a6dc21)" style="fill: none; stroke-dasharray: 1.85,0.8; stroke-dashoffset: 0; stroke: #ff0000; stroke-width: 0.5"/>
   </g>
   <g id="patch_3">
    <path d="M 47.72 318.04 
L 47.72 26.88 
" style="fill: none; stroke: #000000; stroke-width: 0.8; stroke-linejoin: miter; stroke-linecap: square"/>
   </g>
   <g id="patch_4">
    <path d="M 354.6 318.04 
L 354.6 26.88 
" style="fill: none; stroke: #000000; stroke-width: 0.8; stroke-linejoin: miter; stroke-linecap: square"/>
   </g>
   <g id="patch_5">
    <path d="M 47.72 318.04 
L 354.6 318.04 
" style="fill: none; stroke: #000000; stroke-width: 0.8; stroke-linejoin: miter; stroke-linecap: square"/>
   </g>
   <g id="patch_6">
    <path d="M 47.72 26.88 
L 354.6 26.88 
" style="fill: none; stroke: #000000; stroke-width: 0.8; stroke-linejoin: miter; stroke-linecap: square"/>
   </g>
   <g id="text_14">
    <!-- Unnormalized -->
    <g transform="translate(159.625937 20.88) scale(0.12 -0.12)">
     <defs>
      <path id="DejaVuSans-55" d="M 556 4666 
L 1191 4666 
L 1191 1831 
Q 1191 1081 1462 751 
Q 1734 422 2344 422 
Q 2950 422 3222 751 
Q 3494 1081 3494 1831 
L 3494 4666 
L 4128 4666 
L 4128 1753 
Q 4128 841 3676 375 
Q 3225 -91 2344 -91 
Q 1459 -91 1007 375 
Q 556 841 556 1753 
L 556 4666 
z
" transform="scale(0.015625)"/>
      <path id="DejaVuSans-6f" d="M 1959 3097 
Q 1497 3097 1228 2736 
Q 959 2375 959 1747 
Q 959 1119 1226 758 
Q 1494 397 1959 397 
Q 2419 397 2687 759 
Q 2956 1122 2956 1747 
Q 2956 2369 2687 2733 
Q 2419 3097 1959 3097 
z
M 1959 3584 
Q 2709 3584 3137 3096 
Q 3566 2609 3566 1747 
Q 3566 888 3137 398 
Q 2709 -91 1959 -91 
Q 1206 -91 779 398 
Q 353 888 353 1747 
Q 353 2609 779 3096 
Q 1206 3584 1959 3584 
z
" transform="scale(0.015625)"/>
      <path id="DejaVuSans-72" d="M 2631 2963 
Q 2534 3019 2420 3045 
Q 2306 3072 2169 3072 
Q 1681 3072 1420 2755 
Q 1159 2438 1159 1844 
L 1159 0 
L 581 0 
L 581 3500 
L 1159 3500 
L 1159 2956 
Q 1341 3275 1631 3429 
Q 1922 3584 2338 3584 
Q 2397 3584 2469 3576 
Q 2541 3569 2628 3553 
L 2631 2963 
z
" transform="scale(0.015625)"/>
      <path id="DejaVuSans-7a" d="M 353 3500 
L 3084 3500 
L 3084 2975 
L 922 459 
L 3084 459 
L 3084 0 
L 275 0 
L 275 525 
L 2438 3041 
L 353 3041 
L 353 3500 
z
" transform="scale(0.015625)"/>
      <path id="DejaVuSans-64" d="M 2906 2969 
L 2906 4863 
L 3481 4863 
L 3481 0 
L 2906 0 
L 2906 525 
Q 2725 213 2448 61 
Q 2172 -91 1784 -91 
Q 1150 -91 751 415 
Q 353 922 353 1747 
Q 353 2572 751 3078 
Q 1150 3584 1784 3584 
Q 2172 3584 2448 3432 
Q 2725 3281 2906 2969 
z
M 947 1747 
Q 947 1113 1208 752 
Q 1469 391 1925 391 
Q 2381 391 2643 752 
Q 2906 1113 2906 1747 
Q 2906 2381 2643 2742 
Q 2381 3103 1925 3103 
Q 1469 3103 1208 2742 
Q 947 2381 947 1747 
z
" transform="scale(0.015625)"/>
     </defs>
     <use xlink:href="#DejaVuSans-55"/>
     <use xlink:href="#DejaVuSans-6e" transform="translate(73.193359 0)"/>
     <use xlink:href="#DejaVuSans-6e" transform="translate(136.572266 0)"/>
     <use xlink:href="#DejaVuSans-6f" transform="translate(199.951172 0)"/>
     <use xlink:href="#DejaVuSans-72" transform="translate(261.132812 0)"/>
     <use xlink:href="#DejaVuSans-6d" transform="translate(300.496094 0)"/>
     <use xlink:href="#DejaVuSans-61" transform="translate(397.908203 0)"/>
     <use xlink:href="#DejaVuSans-6c" transform="translate(459.1875 0)"/>
     <use xlink:href="#DejaVuSans-69" transform="translate(486.970703 0)"/>
     <use xlink:href="#DejaVuSans-7a" transform="translate(514.753906 0)"/>
     <use xlink:href="#DejaVuSans-65" transform="translate(567.244141 0)"/>
     <use xlink:href="#DejaVuSans-64" transform="translate(628.767578 0)"/>
    </g>
   </g>
   <g id="legend_1">
    <g id="patch_7">
     <path d="M 243.9 78.975312 
L 347.6 78.975312 
Q 349.6 78.975312 349.6 76.975312 
L 349.6 33.88 
Q 349.6 31.88 347.6 31.88 
L 243.9 31.88 
Q 241.9 31.88 241.9 33.88 
L 241.9 76.975312 
Q 241.9 78.975312 243.9 78.975312 
z
" style="fill: #ffffff; opacity: 0.8; stroke: #cccccc; stroke-linejoin: miter"/>
    </g>
    <g id="line2d_15">
     <path d="M 245.9 39.978437 
L 255.9 39.978437 
L 265.9 39.978437 
" style="fill: none; stroke-dasharray: 1.85,0.8; stroke-dashoffset: 0; stroke: #8000ff; stroke-width: 0.5"/>
    </g>
    <g id="text_15">
     <!-- Temp: 400 $^\circ$C -->
     <g transform="translate(273.9 43.478437) scale(0.1 -0.1)">
      <defs>
       <path id="DejaVuSans-70" d="M 1159 525 
L 1159 -1331 
L 581 -1331 
L 581 3500 
L 1159 3500 
L 1159 2969 
Q 1341 3281 1617 3432 
Q 1894 3584 2278 3584 
Q 2916 3584 3314 3078 
Q 3713 2572 3713 1747 
Q 3713 922 3314 415 
Q 2916 -91 2278 -91 
Q 1894 -91 1617 61 
Q 1341 213 1159 525 
z
M 3116 1747 
Q 3116 2381 2855 2742 
Q 2594 3103 2138 3103 
Q 1681 3103 1420 2742 
Q 1159 2381 1159 1747 
Q 1159 1113 1420 752 
Q 1681 391 2138 391 
Q 2594 391 2855 752 
Q 3116 1113 3116 1747 
z
" transform="scale(0.015625)"/>
       <path id="DejaVuSans-3a" d="M 750 794 
L 1409 794 
L 1409 0 
L 750 0 
L 750 794 
z
M 750 3309 
L 1409 3309 
L 1409 2516 
L 750 2516 
L 750 3309 
z
" transform="scale(0.015625)"/>
       <path id="DejaVuSans-2218" d="M 2000 2619 
Q 1750 2619 1578 2445 
Q 1406 2272 1406 2022 
Q 1406 1775 1578 1605 
Q 1750 1435 2000 1435 
Q 2250 1435 2422 1605 
Q 2594 1775 2594 2022 
Q 2594 2269 2420 2444 
Q 2247 2619 2000 2619 
z
M 2000 3022 
Q 2200 3022 2384 2945 
Q 2569 2869 2703 2725 
Q 2847 2585 2919 2406 
Q 2991 2228 2991 2022 
Q 2991 1610 2702 1324 
Q 2413 1038 1994 1038 
Q 1572 1038 1290 1319 
Q 1009 1600 1009 2022 
Q 1009 2441 1296 2731 
Q 1584 3022 2000 3022 
z
" transform="scale(0.015625)"/>
       <path id="DejaVuSans-43" d="M 4122 4306 
L 4122 3641 
Q 3803 3938 3442 4084 
Q 3081 4231 2675 4231 
Q 1875 4231 1450 3742 
Q 1025 3253 1025 2328 
Q 1025 1406 1450 917 
Q 1875 428 2675 428 
Q 3081 428 3442 575 
Q 3803 722 4122 1019 
L 4122 359 
Q 3791 134 3420 21 
Q 3050 -91 2638 -91 
Q 1578 -91 968 557 
Q 359 1206 359 2328 
Q 359 3453 968 4101 
Q 1578 4750 2638 4750 
Q 3056 4750 3426 4639 
Q 3797 4528 4122 4306 
z
" transform="scale(0.015625)"/>
      </defs>
      <use xlink:href="#DejaVuSans-54" transform="translate(0 0.78125)"/>
      <use xlink:href="#DejaVuSans-65" transform="translate(61.083984 0.78125)"/>
      <use xlink:href="#DejaVuSans-6d" transform="translate(122.607422 0.78125)"/>
      <use xlink:href="#DejaVuSans-70" transform="translate(220.019531 0.78125)"/>
      <use xlink:href="#DejaVuSans-3a" transform="translate(283.496094 0.78125)"/>
      <use xlink:href="#DejaVuSans-20" transform="translate(317.1875 0.78125)"/>
      <use xlink:href="#DejaVuSans-34" transform="translate(348.974609 0.78125)"/>
      <use xlink:href="#DejaVuSans-30" transform="translate(412.597656 0.78125)"/>
      <use xlink:href="#DejaVuSans-30" transform="translate(476.220703 0.78125)"/>
      <use xlink:href="#DejaVuSans-20" transform="translate(539.84375 0.78125)"/>
      <use xlink:href="#DejaVuSans-2218" transform="translate(586.225586 39.0625) scale(0.7)"/>
      <use xlink:href="#DejaVuSans-43" transform="translate(646.416016 0.78125)"/>
     </g>
    </g>
    <g id="line2d_16">
     <path d="M 245.9 54.676875 
L 255.9 54.676875 
L 265.9 54.676875 
" style="fill: none; stroke-dasharray: 1.85,0.8; stroke-dashoffset: 0; stroke: #80ffb4; stroke-width: 0.5"/>
    </g>
    <g id="text_16">
     <!-- Temp: 400 $^\circ$C -->
     <g transform="translate(273.9 58.176875) scale(0.1 -0.1)">
      <use xlink:href="#DejaVuSans-54" transform="translate(0 0.78125)"/>
      <use xlink:href="#DejaVuSans-65" transform="translate(61.083984 0.78125)"/>
      <use xlink:href="#DejaVuSans-6d" transform="translate(122.607422 0.78125)"/>
      <use xlink:href="#DejaVuSans-70" transform="translate(220.019531 0.78125)"/>
      <use xlink:href="#DejaVuSans-3a" transform="translate(283.496094 0.78125)"/>
      <use xlink:href="#DejaVuSans-20" transform="translate(317.1875 0.78125)"/>
      <use xlink:href="#DejaVuSans-34" transform="translate(348.974609 0.78125)"/>
      <use xlink:href="#DejaVuSans-30" transform="translate(412.597656 0.78125)"/>
      <use xlink:href="#DejaVuSans-30" transform="translate(476.220703 0.78125)"/>
      <use xlink:href="#DejaVuSans-20" transform="translate(539.84375 0.78125)"/>
      <use xlink:href="#DejaVuSans-2218" transform="translate(586.225586 39.0625) scale(0.7)"/>
      <use xlink:href="#DejaVuSans-43" transform="translate(646.416016 0.78125)"/>
     </g>
    </g>
    <g id="line2d_17">
     <path d="M 245.9 69.375313 
L 255.9 69.375313 
L 265.9 69.375313 
" style="fill: none; stroke-dasharray: 1.85,0.8; stroke-dashoffset: 0; stroke: #ff0000; stroke-width: 0.5"/>
    </g>
    <g id="text_17">
     <!-- Temp: 400 $^\circ$C -->
     <g transform="translate(273.9 72.875313) scale(0.1 -0.1)">
      <use xlink:href="#DejaVuSans-54" transform="translate(0 0.78125)"/>
      <use xlink:href="#DejaVuSans-65" transform="translate(61.083984 0.78125)"/>
      <use xlink:href="#DejaVuSans-6d" transform="translate(122.607422 0.78125)"/>
      <use xlink:href="#DejaVuSans-70" transform="translate(220.019531 0.78125)"/>
      <use xlink:href="#DejaVuSans-3a" transform="translate(283.496094 0.78125)"/>
      <use xlink:href="#DejaVuSans-20" transform="translate(317.1875 0.78125)"/>
      <use xlink:href="#DejaVuSans-34" transform="translate(348.974609 0.78125)"/>
      <use xlink:href="#DejaVuSans-30" transform="translate(412.597656 0.78125)"/>
      <use xlink:href="#DejaVuSans-30" transform="translate(476.220703 0.78125)"/>
      <use xlink:href="#DejaVuSans-20" transform="translate(539.84375 0.78125)"/>
      <use xlink:href="#DejaVuSans-2218" transform="translate(586.225586 39.0625) scale(0.7)"/>
      <use xlink:href="#DejaVuSans-43" transform="translate(646.416016 0.78125)"/>
     </g>
    </g>
   </g>
  </g>
  <g id="axes_2">
   <g id="patch_8">
    <path d="M 402.32 318.04 
L 709.2 318.04 
L 709.2 26.88 
L 402.32 26.88 
z
" style="fill: #ffffff"/>
   </g>
   <g id="matplotlib.axis_3">
    <g id="xtick_6">
     <g id="line2d_18">
      <g>
       <use xlink:href="#me43617fd2d" x="416.269091" y="318.04" style="stroke: #000000; stroke-width: 0.8"/>
      </g>
     </g>
     <g id="text_18">
      <!-- 0 -->
      <g transform="translate(413.087841 332.638438) scale(0.1 -0.1)">
       <use xlink:href="#DejaVuSans-30"/>
      </g>
     </g>
    </g>
    <g id="xtick_7">
     <g id="line2d_19">
      <g>
       <use xlink:href="#me43617fd2d" x="478.265051" y="318.04" style="stroke: #000000; stroke-width: 0.8"/>
      </g>
     </g>
     <g id="text_19">
      <!-- 2 -->
      <g transform="translate(475.083801 332.638438) scale(0.1 -0.1)">
       <use xlink:href="#DejaVuSans-32"/>
      </g>
     </g>
    </g>
    <g id="xtick_8">
     <g id="line2d_20">
      <g>
       <use xlink:href="#me43617fd2d" x="540.26101" y="318.04" style="stroke: #000000; stroke-width: 0.8"/>
      </g>
     </g>
     <g id="text_20">
      <!-- 4 -->
      <g transform="translate(537.07976 332.638438) scale(0.1 -0.1)">
       <use xlink:href="#DejaVuSans-34"/>
      </g>
     </g>
    </g>
    <g id="xtick_9">
     <g id="line2d_21">
      <g>
       <use xlink:href="#me43617fd2d" x="602.25697" y="318.04" style="stroke: #000000; stroke-width: 0.8"/>
      </g>
     </g>
     <g id="text_21">
      <!-- 6 -->
      <g transform="translate(599.07572 332.638438) scale(0.1 -0.1)">
       <use xlink:href="#DejaVuSans-36"/>
      </g>
     </g>
    </g>
    <g id="xtick_10">
     <g id="line2d_22">
      <g>
       <use xlink:href="#me43617fd2d" x="664.252929" y="318.04" style="stroke: #000000; stroke-width: 0.8"/>
      </g>
     </g>
     <g id="text_22">
      <!-- 8 -->
      <g transform="translate(661.071679 332.638438) scale(0.1 -0.1)">
       <use xlink:href="#DejaVuSans-38"/>
      </g>
     </g>
    </g>
    <g id="text_23">
     <!-- Time (s) -->
     <g transform="translate(535.431094 346.316563) scale(0.1 -0.1)">
      <use xlink:href="#DejaVuSans-54"/>
      <use xlink:href="#DejaVuSans-69" transform="translate(57.958984 0)"/>
      <use xlink:href="#DejaVuSans-6d" transform="translate(85.742188 0)"/>
      <use xlink:href="#DejaVuSans-65" transform="translate(183.154297 0)"/>
      <use xlink:href="#DejaVuSans-20" transform="translate(244.677734 0)"/>
      <use xlink:href="#DejaVuSans-28" transform="translate(276.464844 0)"/>
      <use xlink:href="#DejaVuSans-73" transform="translate(315.478516 0)"/>
      <use xlink:href="#DejaVuSans-29" transform="translate(367.578125 0)"/>
     </g>
    </g>
   </g>
   <g id="matplotlib.axis_4">
    <g id="ytick_7">
     <g id="line2d_23">
      <g>
       <use xlink:href="#m801805e674" x="402.32" y="304.805455" style="stroke: #000000; stroke-width: 0.8"/>
      </g>
     </g>
     <g id="text_24">
      <!-- 0.0 -->
      <g transform="translate(379.416875 308.604673) scale(0.1 -0.1)">
       <use xlink:href="#DejaVuSans-30"/>
       <use xlink:href="#DejaVuSans-2e" transform="translate(63.623047 0)"/>
       <use xlink:href="#DejaVuSans-30" transform="translate(95.410156 0)"/>
      </g>
     </g>
    </g>
    <g id="ytick_8">
     <g id="line2d_24">
      <g>
       <use xlink:href="#m801805e674" x="402.32" y="251.867273" style="stroke: #000000; stroke-width: 0.8"/>
      </g>
     </g>
     <g id="text_25">
      <!-- 0.2 -->
      <g transform="translate(379.416875 255.666491) scale(0.1 -0.1)">
       <use xlink:href="#DejaVuSans-30"/>
       <use xlink:href="#DejaVuSans-2e" transform="translate(63.623047 0)"/>
       <use xlink:href="#DejaVuSans-32" transform="translate(95.410156 0)"/>
      </g>
     </g>
    </g>
    <g id="ytick_9">
     <g id="line2d_25">
      <g>
       <use xlink:href="#m801805e674" x="402.32" y="198.929091" style="stroke: #000000; stroke-width: 0.8"/>
      </g>
     </g>
     <g id="text_26">
      <!-- 0.4 -->
      <g transform="translate(379.416875 202.72831) scale(0.1 -0.1)">
       <use xlink:href="#DejaVuSans-30"/>
       <use xlink:href="#DejaVuSans-2e" transform="translate(63.623047 0)"/>
       <use xlink:href="#DejaVuSans-34" transform="translate(95.410156 0)"/>
      </g>
     </g>
    </g>
    <g id="ytick_10">
     <g id="line2d_26">
      <g>
       <use xlink:href="#m801805e674" x="402.32" y="145.990909" style="stroke: #000000; stroke-width: 0.8"/>
      </g>
     </g>
     <g id="text_27">
      <!-- 0.6 -->
      <g transform="translate(379.416875 149.790128) scale(0.1 -0.1)">
       <use xlink:href="#DejaVuSans-30"/>
       <use xlink:href="#DejaVuSans-2e" transform="translate(63.623047 0)"/>
       <use xlink:href="#DejaVuSans-36" transform="translate(95.410156 0)"/>
      </g>
     </g>
    </g>
    <g id="ytick_11">
     <g id="line2d_27">
      <g>
       <use xlink:href="#m801805e674" x="402.32" y="93.052727" style="stroke: #000000; stroke-width: 0.8"/>
      </g>
     </g>
     <g id="text_28">
      <!-- 0.8 -->
      <g transform="translate(379.416875 96.851946) scale(0.1 -0.1)">
       <use xlink:href="#DejaVuSans-30"/>
       <use xlink:href="#DejaVuSans-2e" transform="translate(63.623047 0)"/>
       <use xlink:href="#DejaVuSans-38" transform="translate(95.410156 0)"/>
      </g>
     </g>
    </g>
    <g id="ytick_12">
     <g id="line2d_28">
      <g>
       <use xlink:href="#m801805e674" x="402.32" y="40.114545" style="stroke: #000000; stroke-width: 0.8"/>
      </g>
     </g>
     <g id="text_29">
      <!-- 1.0 -->
      <g transform="translate(379.416875 43.913764) scale(0.1 -0.1)">
       <use xlink:href="#DejaVuSans-31"/>
       <use xlink:href="#DejaVuSans-2e" transform="translate(63.623047 0)"/>
       <use xlink:href="#DejaVuSans-30" transform="translate(95.410156 0)"/>
      </g>
     </g>
    </g>
    <g id="text_30">
     <!-- Normalized Signal -->
     <g transform="translate(373.337188 217.763906) rotate(-90) scale(0.1 -0.1)">
      <defs>
       <path id="DejaVuSans-4e" d="M 628 4666 
L 1478 4666 
L 3547 763 
L 3547 4666 
L 4159 4666 
L 4159 0 
L 3309 0 
L 1241 3903 
L 1241 0 
L 628 0 
L 628 4666 
z
" transform="scale(0.015625)"/>
      </defs>
      <use xlink:href="#DejaVuSans-4e"/>
      <use xlink:href="#DejaVuSans-6f" transform="translate(74.804688 0)"/>
      <use xlink:href="#DejaVuSans-72" transform="translate(135.986328 0)"/>
      <use xlink:href="#DejaVuSans-6d" transform="translate(175.349609 0)"/>
      <use xlink:href="#DejaVuSans-61" transform="translate(272.761719 0)"/>
      <use xlink:href="#DejaVuSans-6c" transform="translate(334.041016 0)"/>
      <use xlink:href="#DejaVuSans-69" transform="translate(361.824219 0)"/>
      <use xlink:href="#DejaVuSans-7a" transform="translate(389.607422 0)"/>
      <use xlink:href="#DejaVuSans-65" transform="translate(442.097656 0)"/>
      <use xlink:href="#DejaVuSans-64" transform="translate(503.621094 0)"/>
      <use xlink:href="#DejaVuSans-20" transform="translate(567.097656 0)"/>
      <use xlink:href="#DejaVuSans-53" transform="translate(598.884766 0)"/>
      <use xlink:href="#DejaVuSans-69" transform="translate(662.361328 0)"/>
      <use xlink:href="#DejaVuSans-67" transform="translate(690.144531 0)"/>
      <use xlink:href="#DejaVuSans-6e" transform="translate(753.621094 0)"/>
      <use xlink:href="#DejaVuSans-61" transform="translate(817 0)"/>
      <use xlink:href="#DejaVuSans-6c" transform="translate(878.279297 0)"/>
     </g>
    </g>
   </g>
   <g id="line2d_29">
    <path d="M 416.269091 198.929091 
L 419.087089 198.929091 
L 421.905087 198.929091 
L 424.723085 198.929091 
L 427.541084 198.929091 
L 430.359082 198.929091 
L 433.17708 198.929091 
L 435.995078 198.929091 
L 438.813076 198.929091 
L 441.631074 198.929091 
L 444.449073 198.929091 
L 447.267071 198.929091 
L 450.085069 198.929091 
L 452.903067 93.052727 
L 455.721065 93.052727 
L 458.539063 198.929091 
L 461.357062 198.929091 
L 464.17506 198.929091 
L 466.993058 198.929091 
L 469.811056 198.929091 
L 472.629054 93.052727 
L 475.447052 93.052727 
L 478.265051 145.990909 
L 481.083049 198.929091 
L 483.901047 198.929091 
L 486.719045 145.990909 
L 489.537043 198.929091 
L 492.355041 198.929091 
L 495.173039 198.929091 
L 497.991038 198.929091 
L 500.809036 145.990909 
L 503.627034 145.990909 
L 506.445032 198.929091 
L 509.26303 40.114545 
L 512.081028 198.929091 
L 514.899027 145.990909 
L 517.717025 198.929091 
L 520.535023 40.114545 
L 523.353021 145.990909 
L 526.171019 198.929091 
L 528.989017 198.929091 
L 531.807016 198.929091 
L 534.625014 93.052727 
L 537.443012 198.929091 
L 540.26101 198.929091 
L 543.079008 145.990909 
L 545.897006 198.929091 
L 548.715005 198.929091 
L 551.533003 145.990909 
L 554.351001 198.929091 
L 557.168999 198.929091 
L 559.986997 198.929091 
L 562.804995 198.929091 
L 565.622994 145.990909 
L 568.440992 40.114545 
L 571.25899 93.052727 
L 574.076988 145.990909 
L 576.894986 198.929091 
L 579.712984 198.929091 
L 582.530983 198.929091 
L 585.348981 198.929091 
L 588.166979 198.929091 
L 590.984977 198.929091 
L 593.802975 145.990909 
L 596.620973 198.929091 
L 599.438972 198.929091 
L 602.25697 198.929091 
L 605.074968 198.929091 
L 607.892966 198.929091 
L 610.710964 198.929091 
L 613.528962 198.929091 
L 616.346961 198.929091 
L 619.164959 198.929091 
L 621.982957 198.929091 
L 624.800955 251.867273 
L 627.618953 251.867273 
L 630.436951 304.805455 
L 633.254949 304.805455 
L 636.072948 304.805455 
L 638.890946 304.805455 
L 641.708944 304.805455 
L 644.526942 304.805455 
L 647.34494 304.805455 
L 650.162938 304.805455 
L 652.980937 304.805455 
L 655.798935 304.805455 
L 658.616933 304.805455 
L 661.434931 304.805455 
L 664.252929 304.805455 
L 667.070927 304.805455 
L 669.888926 304.805455 
L 672.706924 304.805455 
L 675.524922 304.805455 
L 678.34292 304.805455 
L 681.160918 304.805455 
L 683.978916 304.805455 
L 686.796915 304.805455 
L 689.614913 304.805455 
L 692.432911 304.805455 
L 695.250909 304.805455 
" clip-path="url(#p1090c155f8)" style="fill: none; stroke-dasharray: 1.85,0.8; stroke-dashoffset: 0; stroke: #8000ff; stroke-width: 0.5"/>
   </g>
   <g id="line2d_30">
    <path d="M 416.269091 198.929091 
L 419.087089 198.929091 
L 421.905087 198.929091 
L 424.723085 198.929091 
L 427.541084 145.990909 
L 430.359082 198.929091 
L 433.17708 198.929091 
L 435.995078 198.929091 
L 438.813076 198.929091 
L 441.631074 145.990909 
L 444.449073 198.929091 
L 447.267071 198.929091 
L 450.085069 145.990909 
L 452.903067 198.929091 
L 455.721065 198.929091 
L 458.539063 198.929091 
L 461.357062 145.990909 
L 464.17506 145.990909 
L 466.993058 198.929091 
L 469.811056 145.990909 
L 472.629054 198.929091 
L 475.447052 198.929091 
L 478.265051 145.990909 
L 481.083049 198.929091 
L 483.901047 40.114545 
L 486.719045 198.929091 
L 489.537043 40.114545 
L 492.355041 145.990909 
L 495.173039 198.929091 
L 497.991038 145.990909 
L 500.809036 198.929091 
L 503.627034 93.052727 
L 506.445032 198.929091 
L 509.26303 145.990909 
L 512.081028 198.929091 
L 514.899027 198.929091 
L 517.717025 198.929091 
L 520.535023 145.990909 
L 523.353021 145.990909 
L 526.171019 145.990909 
L 528.989017 145.990909 
L 531.807016 93.052727 
L 534.625014 198.929091 
L 537.443012 198.929091 
L 540.26101 145.990909 
L 543.079008 198.929091 
L 545.897006 198.929091 
L 548.715005 93.052727 
L 551.533003 198.929091 
L 554.351001 198.929091 
L 557.168999 93.052727 
L 559.986997 198.929091 
L 562.804995 145.990909 
L 565.622994 198.929091 
L 568.440992 145.990909 
L 571.25899 198.929091 
L 574.076988 145.990909 
L 576.894986 198.929091 
L 579.712984 198.929091 
L 582.530983 93.052727 
L 585.348981 198.929091 
L 588.166979 198.929091 
L 590.984977 198.929091 
L 593.802975 198.929091 
L 596.620973 198.929091 
L 599.438972 145.990909 
L 602.25697 198.929091 
L 605.074968 198.929091 
L 607.892966 198.929091 
L 610.710964 93.052727 
L 613.528962 198.929091 
L 616.346961 198.929091 
L 619.164959 198.929091 
L 621.982957 304.805455 
L 624.800955 304.805455 
L 627.618953 304.805455 
L 630.436951 304.805455 
L 633.254949 304.805455 
L 636.072948 304.805455 
L 638.890946 304.805455 
L 641.708944 304.805455 
L 644.526942 304.805455 
L 647.34494 304.805455 
L 650.162938 304.805455 
L 652.980937 304.805455 
L 655.798935 304.805455 
L 658.616933 304.805455 
L 661.434931 304.805455 
L 664.252929 304.805455 
L 667.070927 304.805455 
L 669.888926 304.805455 
L 672.706924 304.805455 
L 675.524922 304.805455 
L 678.34292 304.805455 
L 681.160918 304.805455 
L 683.978916 304.805455 
L 686.796915 304.805455 
L 689.614913 304.805455 
L 692.432911 304.805455 
L 695.250909 304.805455 
" clip-path="url(#p1090c155f8)" style="fill: none; stroke-dasharray: 1.85,0.8; stroke-dashoffset: 0; stroke: #80ffb4; stroke-width: 0.5"/>
   </g>
   <g id="line2d_31">
    <path d="M 416.269091 198.929091 
L 419.087089 198.929091 
L 421.905087 198.929091 
L 424.723085 198.929091 
L 427.541084 145.990909 
L 430.359082 93.052727 
L 433.17708 198.929091 
L 435.995078 198.929091 
L 438.813076 198.929091 
L 441.631074 145.990909 
L 444.449073 198.929091 
L 447.267071 198.929091 
L 450.085069 145.990909 
L 452.903067 198.929091 
L 455.721065 145.990909 
L 458.539063 198.929091 
L 461.357062 198.929091 
L 464.17506 198.929091 
L 466.993058 145.990909 
L 469.811056 198.929091 
L 472.629054 198.929091 
L 475.447052 198.929091 
L 478.265051 198.929091 
L 481.083049 198.929091 
L 483.901047 198.929091 
L 486.719045 198.929091 
L 489.537043 198.929091 
L 492.355041 198.929091 
L 495.173039 93.052727 
L 497.991038 198.929091 
L 500.809036 198.929091 
L 503.627034 145.990909 
L 506.445032 198.929091 
L 509.26303 93.052727 
L 512.081028 145.990909 
L 514.899027 40.114545 
L 517.717025 145.990909 
L 520.535023 145.990909 
L 523.353021 198.929091 
L 526.171019 40.114545 
L 528.989017 198.929091 
L 531.807016 198.929091 
L 534.625014 93.052727 
L 537.443012 145.990909 
L 540.26101 198.929091 
L 543.079008 198.929091 
L 545.897006 40.114545 
L 548.715005 198.929091 
L 551.533003 93.052727 
L 554.351001 145.990909 
L 557.168999 198.929091 
L 559.986997 198.929091 
L 562.804995 198.929091 
L 565.622994 93.052727 
L 568.440992 198.929091 
L 571.25899 198.929091 
L 574.076988 198.929091 
L 576.894986 198.929091 
L 579.712984 198.929091 
L 582.530983 198.929091 
L 585.348981 198.929091 
L 588.166979 145.990909 
L 590.984977 145.990909 
L 593.802975 198.929091 
L 596.620973 198.929091 
L 599.438972 198.929091 
L 602.25697 145.990909 
L 605.074968 198.929091 
L 607.892966 198.929091 
L 610.710964 198.929091 
L 613.528962 198.929091 
L 616.346961 198.929091 
L 619.164959 145.990909 
L 621.982957 304.805455 
L 624.800955 304.805455 
L 627.618953 304.805455 
L 630.436951 304.805455 
L 633.254949 304.805455 
L 636.072948 304.805455 
L 638.890946 304.805455 
L 641.708944 304.805455 
L 644.526942 304.805455 
L 647.34494 304.805455 
L 650.162938 304.805455 
L 652.980937 304.805455 
L 655.798935 304.805455 
L 658.616933 304.805455 
L 661.434931 304.805455 
L 664.252929 304.805455 
L 667.070927 304.805455 
L 669.888926 304.805455 
L 672.706924 304.805455 
L 675.524922 304.805455 
L 678.34292 304.805455 
L 681.160918 304.805455 
L 683.978916 304.805455 
L 686.796915 304.805455 
L 689.614913 304.805455 
L 692.432911 304.805455 
L 695.250909 304.805455 
" clip-path="url(#p1090c155f8)" style="fill: none; stroke-dasharray: 1.85,0.8; stroke-dashoffset: 0; stroke: #ff0000; stroke-width: 0.5"/>
   </g>
   <g id="patch_9">
    <path d="M 402.32 318.04 
L 402.32 26.88 
" style="fill: none; stroke: #000000; stroke-width: 0.8; stroke-linejoin: miter; stroke-linecap: square"/>
   </g>
   <g id="patch_10">
    <path d="M 709.2 318.04 
L 709.2 26.88 
" style="fill: none; stroke: #000000; stroke-width: 0.8; stroke-linejoin: miter; stroke-linecap: square"/>
   </g>
   <g id="patch_11">
    <path d="M 402.32 318.04 
L 709.2 318.04 
" style="fill: none; stroke: #000000; stroke-width: 0.8; stroke-linejoin: miter; stroke-linecap: square"/>
   </g>
   <g id="patch_12">
    <path d="M 402.32 26.88 
L 709.2 26.88 
" style="fill: none; stroke: #000000; stroke-width: 0.8; stroke-linejoin: miter; stroke-linecap: square"/>
   </g>
   <g id="text_31">
    <!-- Normalized -->
    <g transform="translate(521.733438 20.88) scale(0.12 -0.12)">
     <use xlink:href="#DejaVuSans-4e"/>
     <use xlink:href="#DejaVuSans-6f" transform="translate(74.804688 0)"/>
     <use xlink:href="#DejaVuSans-72" transform="translate(135.986328 0)"/>
     <use xlink:href="#DejaVuSans-6d" transform="translate(175.349609 0)"/>
     <use xlink:href="#DejaVuSans-61" transform="translate(272.761719 0)"/>
     <use xlink:href="#DejaVuSans-6c" transform="translate(334.041016 0)"/>
     <use xlink:href="#DejaVuSans-69" transform="translate(361.824219 0)"/>
     <use xlink:href="#DejaVuSans-7a" transform="translate(389.607422 0)"/>
     <use xlink:href="#DejaVuSans-65" transform="translate(442.097656 0)"/>
     <use xlink:href="#DejaVuSans-64" transform="translate(503.621094 0)"/>
    </g>
   </g>
   <g id="legend_2">
    <g id="patch_13">
     <path d="M 598.5 78.975312 
L 702.2 78.975312 
Q 704.2 78.975312 704.2 76.975312 
L 704.2 33.88 
Q 704.2 31.88 702.2 31.88 
L 598.5 31.88 
Q 596.5 31.88 596.5 33.88 
L 596.5 76.975312 
Q 596.5 78.975312 598.5 78.975312 
z
" style="fill: #ffffff; opacity: 0.8; stroke: #cccccc; stroke-linejoin: miter"/>
    </g>
    <g id="line2d_32">
     <path d="M 600.5 39.978437 
L 610.5 39.978437 
L 620.5 39.978437 
" style="fill: none; stroke-dasharray: 1.85,0.8; stroke-dashoffset: 0; stroke: #8000ff; stroke-width: 0.5"/>
    </g>
    <g id="text_32">
     <!-- Temp: 400 $^\circ$C -->
     <g transform="translate(628.5 43.478437) scale(0.1 -0.1)">
      <use xlink:href="#DejaVuSans-54" transform="translate(0 0.78125)"/>
      <use xlink:href="#DejaVuSans-65" transform="translate(61.083984 0.78125)"/>
      <use xlink:href="#DejaVuSans-6d" transform="translate(122.607422 0.78125)"/>
      <use xlink:href="#DejaVuSans-70" transform="translate(220.019531 0.78125)"/>
      <use xlink:href="#DejaVuSans-3a" transform="translate(283.496094 0.78125)"/>
      <use xlink:href="#DejaVuSans-20" transform="translate(317.1875 0.78125)"/>
      <use xlink:href="#DejaVuSans-34" transform="translate(348.974609 0.78125)"/>
      <use xlink:href="#DejaVuSans-30" transform="translate(412.597656 0.78125)"/>
      <use xlink:href="#DejaVuSans-30" transform="translate(476.220703 0.78125)"/>
      <use xlink:href="#DejaVuSans-20" transform="translate(539.84375 0.78125)"/>
      <use xlink:href="#DejaVuSans-2218" transform="translate(586.225586 39.0625) scale(0.7)"/>
      <use xlink:href="#DejaVuSans-43" transform="translate(646.416016 0.78125)"/>
     </g>
    </g>
    <g id="line2d_33">
     <path d="M 600.5 54.676875 
L 610.5 54.676875 
L 620.5 54.676875 
" style="fill: none; stroke-dasharray: 1.85,0.8; stroke-dashoffset: 0; stroke: #80ffb4; stroke-width: 0.5"/>
    </g>
    <g id="text_33">
     <!-- Temp: 400 $^\circ$C -->
     <g transform="translate(628.5 58.176875) scale(0.1 -0.1)">
      <use xlink:href="#DejaVuSans-54" transform="translate(0 0.78125)"/>
      <use xlink:href="#DejaVuSans-65" transform="translate(61.083984 0.78125)"/>
      <use xlink:href="#DejaVuSans-6d" transform="translate(122.607422 0.78125)"/>
      <use xlink:href="#DejaVuSans-70" transform="translate(220.019531 0.78125)"/>
      <use xlink:href="#DejaVuSans-3a" transform="translate(283.496094 0.78125)"/>
      <use xlink:href="#DejaVuSans-20" transform="translate(317.1875 0.78125)"/>
      <use xlink:href="#DejaVuSans-34" transform="translate(348.974609 0.78125)"/>
      <use xlink:href="#DejaVuSans-30" transform="translate(412.597656 0.78125)"/>
      <use xlink:href="#DejaVuSans-30" transform="translate(476.220703 0.78125)"/>
      <use xlink:href="#DejaVuSans-20" transform="translate(539.84375 0.78125)"/>
      <use xlink:href="#DejaVuSans-2218" transform="translate(586.225586 39.0625) scale(0.7)"/>
      <use xlink:href="#DejaVuSans-43" transform="translate(646.416016 0.78125)"/>
     </g>
    </g>
    <g id="line2d_34">
     <path d="M 600.5 69.375313 
L 610.5 69.375313 
L 620.5 69.375313 
" style="fill: none; stroke-dasharray: 1.85,0.8; stroke-dashoffset: 0; stroke: #ff0000; stroke-width: 0.5"/>
    </g>
    <g id="text_34">
     <!-- Temp: 400 $^\circ$C -->
     <g transform="translate(628.5 72.875313) scale(0.1 -0.1)">
      <use xlink:href="#DejaVuSans-54" transform="translate(0 0.78125)"/>
      <use xlink:href="#DejaVuSans-65" transform="translate(61.083984 0.78125)"/>
      <use xlink:href="#DejaVuSans-6d" transform="translate(122.607422 0.78125)"/>
      <use xlink:href="#DejaVuSans-70" transform="translate(220.019531 0.78125)"/>
      <use xlink:href="#DejaVuSans-3a" transform="translate(283.496094 0.78125)"/>
      <use xlink:href="#DejaVuSans-20" transform="translate(317.1875 0.78125)"/>
      <use xlink:href="#DejaVuSans-34" transform="translate(348.974609 0.78125)"/>
      <use xlink:href="#DejaVuSans-30" transform="translate(412.597656 0.78125)"/>
      <use xlink:href="#DejaVuSans-30" transform="translate(476.220703 0.78125)"/>
      <use xlink:href="#DejaVuSans-20" transform="translate(539.84375 0.78125)"/>
      <use xlink:href="#DejaVuSans-2218" transform="translate(586.225586 39.0625) scale(0.7)"/>
      <use xlink:href="#DejaVuSans-43" transform="translate(646.416016 0.78125)"/>
     </g>
    </g>
   </g>
  </g>
 </g>
 <defs>
  <clipPath id="p3483a6dc21">
   <rect x="47.72" y="26.88" width="306.88" height="291.16"/>
  </clipPath>
  <clipPath id="p1090c155f8">
   <rect x="402.32" y="26.88" width="306.88" height="291.16"/>
  </clipPath>
 </defs>
</svg>
