<?xml version="1.0" encoding="utf-8" standalone="no"?>
<!DOCTYPE svg PUBLIC "-//W3C//DTD SVG 1.1//EN"
  "http://www.w3.org/Graphics/SVG/1.1/DTD/svg11.dtd">
<svg xmlns:xlink="http://www.w3.org/1999/xlink" width="460.8pt" height="345.6pt" viewBox="0 0 460.8 345.6" xmlns="http://www.w3.org/2000/svg" version="1.1">
 <metadata>
  <rdf:RDF xmlns:dc="http://purl.org/dc/elements/1.1/" xmlns:cc="http://creativecommons.org/ns#" xmlns:rdf="http://www.w3.org/1999/02/22-rdf-syntax-ns#">
   <cc:Work>
    <dc:type rdf:resource="http://purl.org/dc/dcmitype/StillImage"/>
    <dc:date>2025-03-26T12:17:36.242202</dc:date>
    <dc:format>image/svg+xml</dc:format>
    <dc:creator>
     <cc:Agent>
      <dc:title>Matplotlib v3.10.0, https://matplotlib.org/</dc:title>
     </cc:Agent>
    </dc:creator>
   </cc:Work>
  </rdf:RDF>
 </metadata>
 <defs>
  <style type="text/css">*{stroke-linejoin: round; stroke-linecap: butt}</style>
 </defs>
 <g id="figure_1">
  <g id="patch_1">
   <path d="M 0 345.6 
L 460.8 345.6 
L 460.8 0 
L 0 0 
z
" style="fill: #ffffff"/>
  </g>
  <g id="axes_1">
   <g id="patch_2">
    <path d="M 57.6 307.584 
L 414.72 307.584 
L 414.72 41.472 
L 57.6 41.472 
z
" style="fill: #ffffff"/>
   </g>
   <g id="matplotlib.axis_1">
    <g id="xtick_1">
     <g id="line2d_1">
      <path d="M 146.88 307.584 
L 146.88 41.472 
" clip-path="url(#p27d84fdf64)" style="fill: none; stroke: #b0b0b0; stroke-width: 0.8; stroke-linecap: square"/>
     </g>
     <g id="line2d_2">
      <defs>
       <path id="m6e9ec13b80" d="M 0 0 
L 0 3.5 
" style="stroke: #000000; stroke-width: 0.8"/>
      </defs>
      <g>
       <use xlink:href="#m6e9ec13b80" x="146.88" y="307.584" style="stroke: #000000; stroke-width: 0.8"/>
      </g>
     </g>
     <g id="text_1">
      <!-- 100 -->
      <g transform="translate(137.33625 322.182437) scale(0.1 -0.1)">
       <defs>
        <path id="DejaVuSans-31" d="M 794 531 
L 1825 531 
L 1825 4091 
L 703 3866 
L 703 4441 
L 1819 4666 
L 2450 4666 
L 2450 531 
L 3481 531 
L 3481 0 
L 794 0 
L 794 531 
z
" transform="scale(0.015625)"/>
        <path id="DejaVuSans-30" d="M 2034 4250 
Q 1547 4250 1301 3770 
Q 1056 3291 1056 2328 
Q 1056 1369 1301 889 
Q 1547 409 2034 409 
Q 2525 409 2770 889 
Q 3016 1369 3016 2328 
Q 3016 3291 2770 3770 
Q 2525 4250 2034 4250 
z
M 2034 4750 
Q 2819 4750 3233 4129 
Q 3647 3509 3647 2328 
Q 3647 1150 3233 529 
Q 2819 -91 2034 -91 
Q 1250 -91 836 529 
Q 422 1150 422 2328 
Q 422 3509 836 4129 
Q 1250 4750 2034 4750 
z
" transform="scale(0.015625)"/>
       </defs>
       <use xlink:href="#DejaVuSans-31"/>
       <use xlink:href="#DejaVuSans-30" transform="translate(63.623047 0)"/>
       <use xlink:href="#DejaVuSans-30" transform="translate(127.246094 0)"/>
      </g>
     </g>
    </g>
    <g id="xtick_2">
     <g id="line2d_3">
      <path d="M 236.16 307.584 
L 236.16 41.472 
" clip-path="url(#p27d84fdf64)" style="fill: none; stroke: #b0b0b0; stroke-width: 0.8; stroke-linecap: square"/>
     </g>
     <g id="line2d_4">
      <g>
       <use xlink:href="#m6e9ec13b80" x="236.16" y="307.584" style="stroke: #000000; stroke-width: 0.8"/>
      </g>
     </g>
     <g id="text_2">
      <!-- 200 -->
      <g transform="translate(226.61625 322.182437) scale(0.1 -0.1)">
       <defs>
        <path id="DejaVuSans-32" d="M 1228 531 
L 3431 531 
L 3431 0 
L 469 0 
L 469 531 
Q 828 903 1448 1529 
Q 2069 2156 2228 2338 
Q 2531 2678 2651 2914 
Q 2772 3150 2772 3378 
Q 2772 3750 2511 3984 
Q 2250 4219 1831 4219 
Q 1534 4219 1204 4116 
Q 875 4013 500 3803 
L 500 4441 
Q 881 4594 1212 4672 
Q 1544 4750 1819 4750 
Q 2544 4750 2975 4387 
Q 3406 4025 3406 3419 
Q 3406 3131 3298 2873 
Q 3191 2616 2906 2266 
Q 2828 2175 2409 1742 
Q 1991 1309 1228 531 
z
" transform="scale(0.015625)"/>
       </defs>
       <use xlink:href="#DejaVuSans-32"/>
       <use xlink:href="#DejaVuSans-30" transform="translate(63.623047 0)"/>
       <use xlink:href="#DejaVuSans-30" transform="translate(127.246094 0)"/>
      </g>
     </g>
    </g>
    <g id="xtick_3">
     <g id="line2d_5">
      <path d="M 325.44 307.584 
L 325.44 41.472 
" clip-path="url(#p27d84fdf64)" style="fill: none; stroke: #b0b0b0; stroke-width: 0.8; stroke-linecap: square"/>
     </g>
     <g id="line2d_6">
      <g>
       <use xlink:href="#m6e9ec13b80" x="325.44" y="307.584" style="stroke: #000000; stroke-width: 0.8"/>
      </g>
     </g>
     <g id="text_3">
      <!-- 300 -->
      <g transform="translate(315.89625 322.182437) scale(0.1 -0.1)">
       <defs>
        <path id="DejaVuSans-33" d="M 2597 2516 
Q 3050 2419 3304 2112 
Q 3559 1806 3559 1356 
Q 3559 666 3084 287 
Q 2609 -91 1734 -91 
Q 1441 -91 1130 -33 
Q 819 25 488 141 
L 488 750 
Q 750 597 1062 519 
Q 1375 441 1716 441 
Q 2309 441 2620 675 
Q 2931 909 2931 1356 
Q 2931 1769 2642 2001 
Q 2353 2234 1838 2234 
L 1294 2234 
L 1294 2753 
L 1863 2753 
Q 2328 2753 2575 2939 
Q 2822 3125 2822 3475 
Q 2822 3834 2567 4026 
Q 2313 4219 1838 4219 
Q 1578 4219 1281 4162 
Q 984 4106 628 3988 
L 628 4550 
Q 988 4650 1302 4700 
Q 1616 4750 1894 4750 
Q 2613 4750 3031 4423 
Q 3450 4097 3450 3541 
Q 3450 3153 3228 2886 
Q 3006 2619 2597 2516 
z
" transform="scale(0.015625)"/>
       </defs>
       <use xlink:href="#DejaVuSans-33"/>
       <use xlink:href="#DejaVuSans-30" transform="translate(63.623047 0)"/>
       <use xlink:href="#DejaVuSans-30" transform="translate(127.246094 0)"/>
      </g>
     </g>
    </g>
    <g id="xtick_4">
     <g id="line2d_7">
      <path d="M 414.72 307.584 
L 414.72 41.472 
" clip-path="url(#p27d84fdf64)" style="fill: none; stroke: #b0b0b0; stroke-width: 0.8; stroke-linecap: square"/>
     </g>
     <g id="line2d_8">
      <g>
       <use xlink:href="#m6e9ec13b80" x="414.72" y="307.584" style="stroke: #000000; stroke-width: 0.8"/>
      </g>
     </g>
     <g id="text_4">
      <!-- 400 -->
      <g transform="translate(405.17625 322.182437) scale(0.1 -0.1)">
       <defs>
        <path id="DejaVuSans-34" d="M 2419 4116 
L 825 1625 
L 2419 1625 
L 2419 4116 
z
M 2253 4666 
L 3047 4666 
L 3047 1625 
L 3713 1625 
L 3713 1100 
L 3047 1100 
L 3047 0 
L 2419 0 
L 2419 1100 
L 313 1100 
L 313 1709 
L 2253 4666 
z
" transform="scale(0.015625)"/>
       </defs>
       <use xlink:href="#DejaVuSans-34"/>
       <use xlink:href="#DejaVuSans-30" transform="translate(63.623047 0)"/>
       <use xlink:href="#DejaVuSans-30" transform="translate(127.246094 0)"/>
      </g>
     </g>
    </g>
    <g id="text_5">
     <!-- Irradiation time (s)  -->
     <g transform="translate(187.823281 335.860562) scale(0.1 -0.1)">
      <defs>
       <path id="DejaVuSans-49" d="M 628 4666 
L 1259 4666 
L 1259 0 
L 628 0 
L 628 4666 
z
" transform="scale(0.015625)"/>
       <path id="DejaVuSans-72" d="M 2631 2963 
Q 2534 3019 2420 3045 
Q 2306 3072 2169 3072 
Q 1681 3072 1420 2755 
Q 1159 2438 1159 1844 
L 1159 0 
L 581 0 
L 581 3500 
L 1159 3500 
L 1159 2956 
Q 1341 3275 1631 3429 
Q 1922 3584 2338 3584 
Q 2397 3584 2469 3576 
Q 2541 3569 2628 3553 
L 2631 2963 
z
" transform="scale(0.015625)"/>
       <path id="DejaVuSans-61" d="M 2194 1759 
Q 1497 1759 1228 1600 
Q 959 1441 959 1056 
Q 959 750 1161 570 
Q 1363 391 1709 391 
Q 2188 391 2477 730 
Q 2766 1069 2766 1631 
L 2766 1759 
L 2194 1759 
z
M 3341 1997 
L 3341 0 
L 2766 0 
L 2766 531 
Q 2569 213 2275 61 
Q 1981 -91 1556 -91 
Q 1019 -91 701 211 
Q 384 513 384 1019 
Q 384 1609 779 1909 
Q 1175 2209 1959 2209 
L 2766 2209 
L 2766 2266 
Q 2766 2663 2505 2880 
Q 2244 3097 1772 3097 
Q 1472 3097 1187 3025 
Q 903 2953 641 2809 
L 641 3341 
Q 956 3463 1253 3523 
Q 1550 3584 1831 3584 
Q 2591 3584 2966 3190 
Q 3341 2797 3341 1997 
z
" transform="scale(0.015625)"/>
       <path id="DejaVuSans-64" d="M 2906 2969 
L 2906 4863 
L 3481 4863 
L 3481 0 
L 2906 0 
L 2906 525 
Q 2725 213 2448 61 
Q 2172 -91 1784 -91 
Q 1150 -91 751 415 
Q 353 922 353 1747 
Q 353 2572 751 3078 
Q 1150 3584 1784 3584 
Q 2172 3584 2448 3432 
Q 2725 3281 2906 2969 
z
M 947 1747 
Q 947 1113 1208 752 
Q 1469 391 1925 391 
Q 2381 391 2643 752 
Q 2906 1113 2906 1747 
Q 2906 2381 2643 2742 
Q 2381 3103 1925 3103 
Q 1469 3103 1208 2742 
Q 947 2381 947 1747 
z
" transform="scale(0.015625)"/>
       <path id="DejaVuSans-69" d="M 603 3500 
L 1178 3500 
L 1178 0 
L 603 0 
L 603 3500 
z
M 603 4863 
L 1178 4863 
L 1178 4134 
L 603 4134 
L 603 4863 
z
" transform="scale(0.015625)"/>
       <path id="DejaVuSans-74" d="M 1172 4494 
L 1172 3500 
L 2356 3500 
L 2356 3053 
L 1172 3053 
L 1172 1153 
Q 1172 725 1289 603 
Q 1406 481 1766 481 
L 2356 481 
L 2356 0 
L 1766 0 
Q 1100 0 847 248 
Q 594 497 594 1153 
L 594 3053 
L 172 3053 
L 172 3500 
L 594 3500 
L 594 4494 
L 1172 4494 
z
" transform="scale(0.015625)"/>
       <path id="DejaVuSans-6f" d="M 1959 3097 
Q 1497 3097 1228 2736 
Q 959 2375 959 1747 
Q 959 1119 1226 758 
Q 1494 397 1959 397 
Q 2419 397 2687 759 
Q 2956 1122 2956 1747 
Q 2956 2369 2687 2733 
Q 2419 3097 1959 3097 
z
M 1959 3584 
Q 2709 3584 3137 3096 
Q 3566 2609 3566 1747 
Q 3566 888 3137 398 
Q 2709 -91 1959 -91 
Q 1206 -91 779 398 
Q 353 888 353 1747 
Q 353 2609 779 3096 
Q 1206 3584 1959 3584 
z
" transform="scale(0.015625)"/>
       <path id="DejaVuSans-6e" d="M 3513 2113 
L 3513 0 
L 2938 0 
L 2938 2094 
Q 2938 2591 2744 2837 
Q 2550 3084 2163 3084 
Q 1697 3084 1428 2787 
Q 1159 2491 1159 1978 
L 1159 0 
L 581 0 
L 581 3500 
L 1159 3500 
L 1159 2956 
Q 1366 3272 1645 3428 
Q 1925 3584 2291 3584 
Q 2894 3584 3203 3211 
Q 3513 2838 3513 2113 
z
" transform="scale(0.015625)"/>
       <path id="DejaVuSans-20" transform="scale(0.015625)"/>
       <path id="DejaVuSans-6d" d="M 3328 2828 
Q 3544 3216 3844 3400 
Q 4144 3584 4550 3584 
Q 5097 3584 5394 3201 
Q 5691 2819 5691 2113 
L 5691 0 
L 5113 0 
L 5113 2094 
Q 5113 2597 4934 2840 
Q 4756 3084 4391 3084 
Q 3944 3084 3684 2787 
Q 3425 2491 3425 1978 
L 3425 0 
L 2847 0 
L 2847 2094 
Q 2847 2600 2669 2842 
Q 2491 3084 2119 3084 
Q 1678 3084 1418 2786 
Q 1159 2488 1159 1978 
L 1159 0 
L 581 0 
L 581 3500 
L 1159 3500 
L 1159 2956 
Q 1356 3278 1631 3431 
Q 1906 3584 2284 3584 
Q 2666 3584 2933 3390 
Q 3200 3197 3328 2828 
z
" transform="scale(0.015625)"/>
       <path id="DejaVuSans-65" d="M 3597 1894 
L 3597 1613 
L 953 1613 
Q 991 1019 1311 708 
Q 1631 397 2203 397 
Q 2534 397 2845 478 
Q 3156 559 3463 722 
L 3463 178 
Q 3153 47 2828 -22 
Q 2503 -91 2169 -91 
Q 1331 -91 842 396 
Q 353 884 353 1716 
Q 353 2575 817 3079 
Q 1281 3584 2069 3584 
Q 2775 3584 3186 3129 
Q 3597 2675 3597 1894 
z
M 3022 2063 
Q 3016 2534 2758 2815 
Q 2500 3097 2075 3097 
Q 1594 3097 1305 2825 
Q 1016 2553 972 2059 
L 3022 2063 
z
" transform="scale(0.015625)"/>
       <path id="DejaVuSans-28" d="M 1984 4856 
Q 1566 4138 1362 3434 
Q 1159 2731 1159 2009 
Q 1159 1288 1364 580 
Q 1569 -128 1984 -844 
L 1484 -844 
Q 1016 -109 783 600 
Q 550 1309 550 2009 
Q 550 2706 781 3412 
Q 1013 4119 1484 4856 
L 1984 4856 
z
" transform="scale(0.015625)"/>
       <path id="DejaVuSans-73" d="M 2834 3397 
L 2834 2853 
Q 2591 2978 2328 3040 
Q 2066 3103 1784 3103 
Q 1356 3103 1142 2972 
Q 928 2841 928 2578 
Q 928 2378 1081 2264 
Q 1234 2150 1697 2047 
L 1894 2003 
Q 2506 1872 2764 1633 
Q 3022 1394 3022 966 
Q 3022 478 2636 193 
Q 2250 -91 1575 -91 
Q 1294 -91 989 -36 
Q 684 19 347 128 
L 347 722 
Q 666 556 975 473 
Q 1284 391 1588 391 
Q 1994 391 2212 530 
Q 2431 669 2431 922 
Q 2431 1156 2273 1281 
Q 2116 1406 1581 1522 
L 1381 1569 
Q 847 1681 609 1914 
Q 372 2147 372 2553 
Q 372 3047 722 3315 
Q 1072 3584 1716 3584 
Q 2034 3584 2315 3537 
Q 2597 3491 2834 3397 
z
" transform="scale(0.015625)"/>
       <path id="DejaVuSans-29" d="M 513 4856 
L 1013 4856 
Q 1481 4119 1714 3412 
Q 1947 2706 1947 2009 
Q 1947 1309 1714 600 
Q 1481 -109 1013 -844 
L 513 -844 
Q 928 -128 1133 580 
Q 1338 1288 1338 2009 
Q 1338 2731 1133 3434 
Q 928 4138 513 4856 
z
" transform="scale(0.015625)"/>
      </defs>
      <use xlink:href="#DejaVuSans-49"/>
      <use xlink:href="#DejaVuSans-72" transform="translate(29.492188 0)"/>
      <use xlink:href="#DejaVuSans-72" transform="translate(68.855469 0)"/>
      <use xlink:href="#DejaVuSans-61" transform="translate(109.96875 0)"/>
      <use xlink:href="#DejaVuSans-64" transform="translate(171.248047 0)"/>
      <use xlink:href="#DejaVuSans-69" transform="translate(234.724609 0)"/>
      <use xlink:href="#DejaVuSans-61" transform="translate(262.507812 0)"/>
      <use xlink:href="#DejaVuSans-74" transform="translate(323.787109 0)"/>
      <use xlink:href="#DejaVuSans-69" transform="translate(362.996094 0)"/>
      <use xlink:href="#DejaVuSans-6f" transform="translate(390.779297 0)"/>
      <use xlink:href="#DejaVuSans-6e" transform="translate(451.960938 0)"/>
      <use xlink:href="#DejaVuSans-20" transform="translate(515.339844 0)"/>
      <use xlink:href="#DejaVuSans-74" transform="translate(547.126953 0)"/>
      <use xlink:href="#DejaVuSans-69" transform="translate(586.335938 0)"/>
      <use xlink:href="#DejaVuSans-6d" transform="translate(614.119141 0)"/>
      <use xlink:href="#DejaVuSans-65" transform="translate(711.53125 0)"/>
      <use xlink:href="#DejaVuSans-20" transform="translate(773.054688 0)"/>
      <use xlink:href="#DejaVuSans-28" transform="translate(804.841797 0)"/>
      <use xlink:href="#DejaVuSans-73" transform="translate(843.855469 0)"/>
      <use xlink:href="#DejaVuSans-29" transform="translate(895.955078 0)"/>
      <use xlink:href="#DejaVuSans-20" transform="translate(934.96875 0)"/>
     </g>
    </g>
   </g>
   <g id="matplotlib.axis_2">
    <g id="ytick_1">
     <g id="line2d_9">
      <path d="M 57.6 307.584 
L 414.72 307.584 
" clip-path="url(#p27d84fdf64)" style="fill: none; stroke: #b0b0b0; stroke-width: 0.8; stroke-linecap: square"/>
     </g>
     <g id="line2d_10">
      <defs>
       <path id="m337ac0223d" d="M 0 0 
L -3.5 0 
" style="stroke: #000000; stroke-width: 0.8"/>
      </defs>
      <g>
       <use xlink:href="#m337ac0223d" x="57.6" y="307.584" style="stroke: #000000; stroke-width: 0.8"/>
      </g>
     </g>
     <g id="text_6">
      <!-- 0.0 -->
      <g transform="translate(34.696875 311.383219) scale(0.1 -0.1)">
       <defs>
        <path id="DejaVuSans-2e" d="M 684 794 
L 1344 794 
L 1344 0 
L 684 0 
L 684 794 
z
" transform="scale(0.015625)"/>
       </defs>
       <use xlink:href="#DejaVuSans-30"/>
       <use xlink:href="#DejaVuSans-2e" transform="translate(63.623047 0)"/>
       <use xlink:href="#DejaVuSans-30" transform="translate(95.410156 0)"/>
      </g>
     </g>
    </g>
    <g id="ytick_2">
     <g id="line2d_11">
      <path d="M 57.6 269.568 
L 414.72 269.568 
" clip-path="url(#p27d84fdf64)" style="fill: none; stroke: #b0b0b0; stroke-width: 0.8; stroke-linecap: square"/>
     </g>
     <g id="line2d_12">
      <g>
       <use xlink:href="#m337ac0223d" x="57.6" y="269.568" style="stroke: #000000; stroke-width: 0.8"/>
      </g>
     </g>
     <g id="text_7">
      <!-- 0.1 -->
      <g transform="translate(34.696875 273.367219) scale(0.1 -0.1)">
       <use xlink:href="#DejaVuSans-30"/>
       <use xlink:href="#DejaVuSans-2e" transform="translate(63.623047 0)"/>
       <use xlink:href="#DejaVuSans-31" transform="translate(95.410156 0)"/>
      </g>
     </g>
    </g>
    <g id="ytick_3">
     <g id="line2d_13">
      <path d="M 57.6 231.552 
L 414.72 231.552 
" clip-path="url(#p27d84fdf64)" style="fill: none; stroke: #b0b0b0; stroke-width: 0.8; stroke-linecap: square"/>
     </g>
     <g id="line2d_14">
      <g>
       <use xlink:href="#m337ac0223d" x="57.6" y="231.552" style="stroke: #000000; stroke-width: 0.8"/>
      </g>
     </g>
     <g id="text_8">
      <!-- 0.2 -->
      <g transform="translate(34.696875 235.351219) scale(0.1 -0.1)">
       <use xlink:href="#DejaVuSans-30"/>
       <use xlink:href="#DejaVuSans-2e" transform="translate(63.623047 0)"/>
       <use xlink:href="#DejaVuSans-32" transform="translate(95.410156 0)"/>
      </g>
     </g>
    </g>
    <g id="ytick_4">
     <g id="line2d_15">
      <path d="M 57.6 193.536 
L 414.72 193.536 
" clip-path="url(#p27d84fdf64)" style="fill: none; stroke: #b0b0b0; stroke-width: 0.8; stroke-linecap: square"/>
     </g>
     <g id="line2d_16">
      <g>
       <use xlink:href="#m337ac0223d" x="57.6" y="193.536" style="stroke: #000000; stroke-width: 0.8"/>
      </g>
     </g>
     <g id="text_9">
      <!-- 0.3 -->
      <g transform="translate(34.696875 197.335219) scale(0.1 -0.1)">
       <use xlink:href="#DejaVuSans-30"/>
       <use xlink:href="#DejaVuSans-2e" transform="translate(63.623047 0)"/>
       <use xlink:href="#DejaVuSans-33" transform="translate(95.410156 0)"/>
      </g>
     </g>
    </g>
    <g id="ytick_5">
     <g id="line2d_17">
      <path d="M 57.6 155.52 
L 414.72 155.52 
" clip-path="url(#p27d84fdf64)" style="fill: none; stroke: #b0b0b0; stroke-width: 0.8; stroke-linecap: square"/>
     </g>
     <g id="line2d_18">
      <g>
       <use xlink:href="#m337ac0223d" x="57.6" y="155.52" style="stroke: #000000; stroke-width: 0.8"/>
      </g>
     </g>
     <g id="text_10">
      <!-- 0.4 -->
      <g transform="translate(34.696875 159.319219) scale(0.1 -0.1)">
       <use xlink:href="#DejaVuSans-30"/>
       <use xlink:href="#DejaVuSans-2e" transform="translate(63.623047 0)"/>
       <use xlink:href="#DejaVuSans-34" transform="translate(95.410156 0)"/>
      </g>
     </g>
    </g>
    <g id="ytick_6">
     <g id="line2d_19">
      <path d="M 57.6 117.504 
L 414.72 117.504 
" clip-path="url(#p27d84fdf64)" style="fill: none; stroke: #b0b0b0; stroke-width: 0.8; stroke-linecap: square"/>
     </g>
     <g id="line2d_20">
      <g>
       <use xlink:href="#m337ac0223d" x="57.6" y="117.504" style="stroke: #000000; stroke-width: 0.8"/>
      </g>
     </g>
     <g id="text_11">
      <!-- 0.5 -->
      <g transform="translate(34.696875 121.303219) scale(0.1 -0.1)">
       <defs>
        <path id="DejaVuSans-35" d="M 691 4666 
L 3169 4666 
L 3169 4134 
L 1269 4134 
L 1269 2991 
Q 1406 3038 1543 3061 
Q 1681 3084 1819 3084 
Q 2600 3084 3056 2656 
Q 3513 2228 3513 1497 
Q 3513 744 3044 326 
Q 2575 -91 1722 -91 
Q 1428 -91 1123 -41 
Q 819 9 494 109 
L 494 744 
Q 775 591 1075 516 
Q 1375 441 1709 441 
Q 2250 441 2565 725 
Q 2881 1009 2881 1497 
Q 2881 1984 2565 2268 
Q 2250 2553 1709 2553 
Q 1456 2553 1204 2497 
Q 953 2441 691 2322 
L 691 4666 
z
" transform="scale(0.015625)"/>
       </defs>
       <use xlink:href="#DejaVuSans-30"/>
       <use xlink:href="#DejaVuSans-2e" transform="translate(63.623047 0)"/>
       <use xlink:href="#DejaVuSans-35" transform="translate(95.410156 0)"/>
      </g>
     </g>
    </g>
    <g id="ytick_7">
     <g id="line2d_21">
      <path d="M 57.6 79.488 
L 414.72 79.488 
" clip-path="url(#p27d84fdf64)" style="fill: none; stroke: #b0b0b0; stroke-width: 0.8; stroke-linecap: square"/>
     </g>
     <g id="line2d_22">
      <g>
       <use xlink:href="#m337ac0223d" x="57.6" y="79.488" style="stroke: #000000; stroke-width: 0.8"/>
      </g>
     </g>
     <g id="text_12">
      <!-- 0.6 -->
      <g transform="translate(34.696875 83.287219) scale(0.1 -0.1)">
       <defs>
        <path id="DejaVuSans-36" d="M 2113 2584 
Q 1688 2584 1439 2293 
Q 1191 2003 1191 1497 
Q 1191 994 1439 701 
Q 1688 409 2113 409 
Q 2538 409 2786 701 
Q 3034 994 3034 1497 
Q 3034 2003 2786 2293 
Q 2538 2584 2113 2584 
z
M 3366 4563 
L 3366 3988 
Q 3128 4100 2886 4159 
Q 2644 4219 2406 4219 
Q 1781 4219 1451 3797 
Q 1122 3375 1075 2522 
Q 1259 2794 1537 2939 
Q 1816 3084 2150 3084 
Q 2853 3084 3261 2657 
Q 3669 2231 3669 1497 
Q 3669 778 3244 343 
Q 2819 -91 2113 -91 
Q 1303 -91 875 529 
Q 447 1150 447 2328 
Q 447 3434 972 4092 
Q 1497 4750 2381 4750 
Q 2619 4750 2861 4703 
Q 3103 4656 3366 4563 
z
" transform="scale(0.015625)"/>
       </defs>
       <use xlink:href="#DejaVuSans-30"/>
       <use xlink:href="#DejaVuSans-2e" transform="translate(63.623047 0)"/>
       <use xlink:href="#DejaVuSans-36" transform="translate(95.410156 0)"/>
      </g>
     </g>
    </g>
    <g id="ytick_8">
     <g id="line2d_23">
      <path d="M 57.6 41.472 
L 414.72 41.472 
" clip-path="url(#p27d84fdf64)" style="fill: none; stroke: #b0b0b0; stroke-width: 0.8; stroke-linecap: square"/>
     </g>
     <g id="line2d_24">
      <g>
       <use xlink:href="#m337ac0223d" x="57.6" y="41.472" style="stroke: #000000; stroke-width: 0.8"/>
      </g>
     </g>
     <g id="text_13">
      <!-- 0.7 -->
      <g transform="translate(34.696875 45.271219) scale(0.1 -0.1)">
       <defs>
        <path id="DejaVuSans-37" d="M 525 4666 
L 3525 4666 
L 3525 4397 
L 1831 0 
L 1172 0 
L 2766 4134 
L 525 4134 
L 525 4666 
z
" transform="scale(0.015625)"/>
       </defs>
       <use xlink:href="#DejaVuSans-30"/>
       <use xlink:href="#DejaVuSans-2e" transform="translate(63.623047 0)"/>
       <use xlink:href="#DejaVuSans-37" transform="translate(95.410156 0)"/>
      </g>
     </g>
    </g>
    <g id="text_14">
     <!-- Percent of filled traps -->
     <g transform="translate(28.617187 227.95925) rotate(-90) scale(0.1 -0.1)">
      <defs>
       <path id="DejaVuSans-50" d="M 1259 4147 
L 1259 2394 
L 2053 2394 
Q 2494 2394 2734 2622 
Q 2975 2850 2975 3272 
Q 2975 3691 2734 3919 
Q 2494 4147 2053 4147 
L 1259 4147 
z
M 628 4666 
L 2053 4666 
Q 2838 4666 3239 4311 
Q 3641 3956 3641 3272 
Q 3641 2581 3239 2228 
Q 2838 1875 2053 1875 
L 1259 1875 
L 1259 0 
L 628 0 
L 628 4666 
z
" transform="scale(0.015625)"/>
       <path id="DejaVuSans-63" d="M 3122 3366 
L 3122 2828 
Q 2878 2963 2633 3030 
Q 2388 3097 2138 3097 
Q 1578 3097 1268 2742 
Q 959 2388 959 1747 
Q 959 1106 1268 751 
Q 1578 397 2138 397 
Q 2388 397 2633 464 
Q 2878 531 3122 666 
L 3122 134 
Q 2881 22 2623 -34 
Q 2366 -91 2075 -91 
Q 1284 -91 818 406 
Q 353 903 353 1747 
Q 353 2603 823 3093 
Q 1294 3584 2113 3584 
Q 2378 3584 2631 3529 
Q 2884 3475 3122 3366 
z
" transform="scale(0.015625)"/>
       <path id="DejaVuSans-66" d="M 2375 4863 
L 2375 4384 
L 1825 4384 
Q 1516 4384 1395 4259 
Q 1275 4134 1275 3809 
L 1275 3500 
L 2222 3500 
L 2222 3053 
L 1275 3053 
L 1275 0 
L 697 0 
L 697 3053 
L 147 3053 
L 147 3500 
L 697 3500 
L 697 3744 
Q 697 4328 969 4595 
Q 1241 4863 1831 4863 
L 2375 4863 
z
" transform="scale(0.015625)"/>
       <path id="DejaVuSans-6c" d="M 603 4863 
L 1178 4863 
L 1178 0 
L 603 0 
L 603 4863 
z
" transform="scale(0.015625)"/>
       <path id="DejaVuSans-70" d="M 1159 525 
L 1159 -1331 
L 581 -1331 
L 581 3500 
L 1159 3500 
L 1159 2969 
Q 1341 3281 1617 3432 
Q 1894 3584 2278 3584 
Q 2916 3584 3314 3078 
Q 3713 2572 3713 1747 
Q 3713 922 3314 415 
Q 2916 -91 2278 -91 
Q 1894 -91 1617 61 
Q 1341 213 1159 525 
z
M 3116 1747 
Q 3116 2381 2855 2742 
Q 2594 3103 2138 3103 
Q 1681 3103 1420 2742 
Q 1159 2381 1159 1747 
Q 1159 1113 1420 752 
Q 1681 391 2138 391 
Q 2594 391 2855 752 
Q 3116 1113 3116 1747 
z
" transform="scale(0.015625)"/>
      </defs>
      <use xlink:href="#DejaVuSans-50"/>
      <use xlink:href="#DejaVuSans-65" transform="translate(56.677734 0)"/>
      <use xlink:href="#DejaVuSans-72" transform="translate(118.201172 0)"/>
      <use xlink:href="#DejaVuSans-63" transform="translate(157.064453 0)"/>
      <use xlink:href="#DejaVuSans-65" transform="translate(212.044922 0)"/>
      <use xlink:href="#DejaVuSans-6e" transform="translate(273.568359 0)"/>
      <use xlink:href="#DejaVuSans-74" transform="translate(336.947266 0)"/>
      <use xlink:href="#DejaVuSans-20" transform="translate(376.15625 0)"/>
      <use xlink:href="#DejaVuSans-6f" transform="translate(407.943359 0)"/>
      <use xlink:href="#DejaVuSans-66" transform="translate(469.125 0)"/>
      <use xlink:href="#DejaVuSans-20" transform="translate(504.330078 0)"/>
      <use xlink:href="#DejaVuSans-66" transform="translate(536.117188 0)"/>
      <use xlink:href="#DejaVuSans-69" transform="translate(571.322266 0)"/>
      <use xlink:href="#DejaVuSans-6c" transform="translate(599.105469 0)"/>
      <use xlink:href="#DejaVuSans-6c" transform="translate(626.888672 0)"/>
      <use xlink:href="#DejaVuSans-65" transform="translate(654.671875 0)"/>
      <use xlink:href="#DejaVuSans-64" transform="translate(716.195312 0)"/>
      <use xlink:href="#DejaVuSans-20" transform="translate(779.671875 0)"/>
      <use xlink:href="#DejaVuSans-74" transform="translate(811.458984 0)"/>
      <use xlink:href="#DejaVuSans-72" transform="translate(850.667969 0)"/>
      <use xlink:href="#DejaVuSans-61" transform="translate(891.78125 0)"/>
      <use xlink:href="#DejaVuSans-70" transform="translate(953.060547 0)"/>
      <use xlink:href="#DejaVuSans-73" transform="translate(1016.537109 0)"/>
     </g>
    </g>
   </g>
   <g id="line2d_25">
    <path d="M 57.6 300.459802 
L 62.95948 300.351199 
L 63.495428 300.007525 
L 64.210025 299.640551 
L 64.567324 299.149992 
L 65.63922 298.197931 
L 65.996518 297.645288 
L 67.068414 296.671017 
L 67.425713 296.132298 
L 68.318959 295.339116 
L 68.676258 294.79747 
L 69.748154 293.848973 
L 70.105453 293.329309 
L 71.177349 292.360038 
L 71.534647 291.867527 
L 72.606543 290.874648 
L 72.963842 290.415578 
L 74.035738 289.413775 
L 74.393037 288.977573 
L 75.464932 287.922866 
L 75.822231 287.515731 
L 76.715478 286.745703 
L 77.072776 286.209057 
L 78.144672 285.296636 
L 78.68062 284.602783 
L 79.573867 283.841621 
L 80.109815 283.219247 
L 81.181711 282.213875 
L 81.717659 281.688229 
L 82.432256 281.062212 
L 82.968204 280.423526 
L 84.0401 279.418044 
L 84.576048 278.899989 
L 85.469295 278.051532 
L 86.005243 277.533123 
L 86.71984 276.915052 
L 87.255788 276.285583 
L 88.327684 275.330376 
L 88.863632 274.776541 
L 89.756878 273.965899 
L 90.292826 273.375437 
L 91.186073 272.601536 
L 91.90067 271.873356 
L 92.793917 271.042038 
L 93.508514 270.400388 
L 94.223112 269.733974 
L 94.937709 269.074598 
L 95.652306 268.412931 
L 96.366903 267.670501 
L 97.26015 266.839922 
L 97.974747 266.1724 
L 98.689345 265.501112 
L 99.403942 264.830279 
L 100.475838 263.833536 
L 111.730745 253.736404 
L 112.802641 252.74518 
L 124.236198 242.909138 
L 127.630535 240.071336 
L 130.310275 237.869627 
L 134.776508 234.256213 
L 137.456248 232.051798 
L 142.994377 227.673852 
L 145.316818 225.820169 
L 155.321181 218.141687 
L 158.17957 216.052086 
L 165.325543 210.73887 
L 173.007464 205.22183 
L 174.793957 203.978575 
L 181.761281 199.06334 
L 183.905073 197.585202 
L 186.227514 196.000732 
L 196.767824 188.826999 
L 200.51946 186.282017 
L 209.809225 180.090075 
L 212.488964 178.349169 
L 217.491146 175.174466 
L 223.207924 171.589303 
L 229.282001 167.859535 
L 233.212286 165.452149 
L 241.430155 160.566408 
L 245.003142 158.441327 
L 249.826673 155.690668 
L 260.188334 149.960756 
L 262.689425 148.551259 
L 264.654567 147.453577 
L 273.765683 142.566785 
L 277.517319 140.555773 
L 282.34085 138.013357 
L 289.665473 134.252848 
L 292.523862 132.779646 
L 293.953057 132.027229 
L 298.061991 129.978412 
L 304.672016 126.768102 
L 315.212326 121.727889 
L 317.177469 120.810604 
L 326.109935 116.584684 
L 329.146973 115.18567 
L 335.042401 112.458336 
L 339.508634 110.408614 
L 348.083802 106.613273 
L 353.443282 104.293988 
L 355.587074 103.352057 
L 357.373567 102.585317 
L 362.018449 100.554384 
L 380.062031 92.934077 
L 383.456368 91.608483 
L 386.672056 90.337611 
L 414.72 79.695268 
L 414.72 79.695268 
" clip-path="url(#p27d84fdf64)" style="fill: none; stroke-dasharray: 7.4,3.2; stroke-dashoffset: 0; stroke: #8000ff; stroke-width: 2"/>
   </g>
   <g id="line2d_26">
    <path d="M 57.6 300.402397 
L 62.95948 300.305345 
L 63.316778 300.040811 
L 64.210025 299.599926 
L 64.567324 299.131585 
L 65.63922 298.171788 
L 65.996518 297.634912 
L 67.068414 296.663144 
L 67.425713 296.118044 
L 68.318959 295.325682 
L 68.676258 294.795892 
L 69.748154 293.848876 
L 70.105453 293.327103 
L 71.177349 292.383764 
L 71.534647 291.847099 
L 72.606543 290.848059 
L 72.963842 290.362164 
L 74.035738 289.307619 
L 74.393037 288.898126 
L 75.464932 287.849239 
L 75.822231 287.407814 
L 76.715478 286.63474 
L 77.072776 286.123522 
L 78.323322 284.931004 
L 78.85927 284.393499 
L 79.752516 283.49866 
L 80.288464 282.979569 
L 81.003062 282.356666 
L 81.53901 281.710531 
L 82.432256 280.928115 
L 82.968204 280.284032 
L 84.0401 279.27935 
L 84.576048 278.759113 
L 85.469295 277.92287 
L 85.826593 277.518324 
L 86.898489 276.538131 
L 87.434437 275.968639 
L 88.327684 275.14629 
L 88.863632 274.592906 
L 89.756878 273.772782 
L 90.292826 273.206634 
L 91.364722 272.230994 
L 91.90067 271.73442 
L 92.793917 270.929515 
L 93.329865 270.394194 
L 94.223112 269.555318 
L 94.937709 268.85794 
L 95.652306 268.212475 
L 96.366903 267.493267 
L 97.26015 266.681147 
L 97.974747 265.996772 
L 99.046643 264.978454 
L 107.085863 257.680608 
L 108.336408 256.532209 
L 121.377809 245.1772 
L 139.778689 230.079583 
L 141.029235 229.10022 
L 144.95952 225.994367 
L 147.46061 224.037513 
L 149.604402 222.330471 
L 164.432296 211.010696 
L 166.576088 209.397584 
L 170.149075 206.803103 
L 171.22097 206.027558 
L 176.223152 202.374221 
L 181.046683 198.894621 
L 182.833177 197.596166 
L 186.406163 195.098326 
L 204.092446 183.070042 
L 206.057589 181.765796 
L 207.486783 180.797246 
L 234.462831 163.639412 
L 239.107714 160.86827 
L 243.037999 158.477784 
L 246.432336 156.504917 
L 249.112076 154.908559 
L 251.255868 153.675603 
L 254.650205 151.729288 
L 261.26023 147.973902 
L 278.589215 138.675518 
L 288.593577 133.453007 
L 292.345213 131.519438 
L 299.133887 128.111631 
L 313.961781 120.826076 
L 318.785313 118.551227 
L 324.68074 115.719386 
L 332.184012 112.323913 
L 337.90079 109.74054 
L 341.652426 108.093935 
L 344.332166 106.905716 
L 349.512996 104.596219 
L 389.530445 87.99087 
L 398.998859 84.278528 
L 401.49995 83.343627 
L 408.288624 80.781663 
L 414.72 78.413866 
L 414.72 78.413866 
" clip-path="url(#p27d84fdf64)" style="fill: none; stroke-dasharray: 7.4,3.2; stroke-dashoffset: 0; stroke: #80ffb4; stroke-width: 2"/>
   </g>
   <g id="line2d_27">
    <path d="M 57.6 300.211557 
L 62.95948 300.128965 
L 63.495428 299.811001 
L 64.210025 299.47634 
L 64.567324 299.015988 
L 65.63922 298.023722 
L 65.996518 297.460562 
L 67.068414 296.449722 
L 67.425713 295.881757 
L 68.497609 294.807548 
L 69.033557 294.260042 
L 69.748154 293.627763 
L 70.105453 293.113737 
L 71.177349 292.149489 
L 71.534647 291.653114 
L 72.606543 290.633981 
L 72.963842 290.140549 
L 74.035738 289.106543 
L 74.393037 288.64308 
L 75.464932 287.57213 
L 75.822231 287.139715 
L 76.894127 286.068055 
L 77.430075 285.512635 
L 78.323322 284.615642 
L 78.85927 284.075585 
L 79.752516 283.162991 
L 80.288464 282.633264 
L 81.181711 281.720858 
L 81.717659 281.183221 
L 82.432256 280.527713 
L 82.968204 279.859603 
L 84.0401 278.814175 
L 84.576048 278.295926 
L 85.469295 277.445404 
L 86.005243 276.876102 
L 86.898489 276.029072 
L 87.255788 275.569098 
L 88.327684 274.619384 
L 88.863632 274.049184 
L 89.756878 273.243691 
L 90.471476 272.52931 
L 91.364722 271.687913 
L 91.90067 271.172671 
L 92.793917 270.356773 
L 93.329865 269.802878 
L 94.223112 268.997896 
L 94.937709 268.311303 
L 95.652306 267.684399 
L 96.366903 266.941858 
L 97.26015 266.153112 
L 98.153397 265.359227 
L 98.867994 264.663873 
L 99.582591 264.009447 
L 101.547734 262.202008 
L 102.976928 260.85825 
L 106.549915 257.573639 
L 110.122901 254.305917 
L 112.623992 252.140635 
L 114.946433 250.052422 
L 118.698069 246.73882 
L 120.484562 245.23989 
L 131.024872 236.307885 
L 135.491106 232.571939 
L 138.885443 229.799849 
L 146.388714 223.841215 
L 149.783052 221.170822 
L 157.464972 215.320073 
L 162.467154 211.567447 
L 165.146893 209.586815 
L 184.262371 195.709463 
L 189.443202 192.09211 
L 191.408344 190.747662 
L 197.303772 186.750241 
L 209.273277 178.788873 
L 213.203562 176.228127 
L 223.029275 169.982245 
L 224.994417 168.756627 
L 228.210105 166.776763 
L 243.216648 157.618576 
L 259.473737 148.167417 
L 261.796178 146.873965 
L 269.656748 142.579694 
L 271.621891 141.483191 
L 273.408384 140.526026 
L 276.981371 138.650337 
L 281.090305 136.463864 
L 298.24064 127.610777 
L 309.316898 122.088929 
L 314.14043 119.802541 
L 319.321261 117.392024 
L 322.358299 115.953892 
L 325.216688 114.594593 
L 337.007544 109.315762 
L 339.329985 108.320232 
L 347.547854 104.717962 
L 357.730865 100.35785 
L 362.911696 98.183855 
L 389.709095 87.265345 
L 394.175328 85.54979 
L 407.931326 80.24827 
L 410.789715 79.206896 
L 414.72 77.771475 
L 414.72 77.771475 
" clip-path="url(#p27d84fdf64)" style="fill: none; stroke-dasharray: 7.4,3.2; stroke-dashoffset: 0; stroke: #ff0000; stroke-width: 2"/>
   </g>
   <g id="patch_3">
    <path d="M 57.6 307.584 
L 57.6 41.472 
" style="fill: none; stroke: #000000; stroke-width: 0.8; stroke-linejoin: miter; stroke-linecap: square"/>
   </g>
   <g id="patch_4">
    <path d="M 414.72 307.584 
L 414.72 41.472 
" style="fill: none; stroke: #000000; stroke-width: 0.8; stroke-linejoin: miter; stroke-linecap: square"/>
   </g>
   <g id="patch_5">
    <path d="M 57.6 307.584 
L 414.72 307.584 
" style="fill: none; stroke: #000000; stroke-width: 0.8; stroke-linejoin: miter; stroke-linecap: square"/>
   </g>
   <g id="patch_6">
    <path d="M 57.6 41.472 
L 414.72 41.472 
" style="fill: none; stroke: #000000; stroke-width: 0.8; stroke-linejoin: miter; stroke-linecap: square"/>
   </g>
   <g id="legend_1">
    <g id="patch_7">
     <path d="M 314.584 120.95195 
L 469.166812 120.95195 
Q 471.166812 120.95195 471.166812 118.95195 
L 471.166812 75.0832 
Q 471.166812 73.0832 469.166812 73.0832 
L 314.584 73.0832 
Q 312.584 73.0832 312.584 75.0832 
L 312.584 118.95195 
Q 312.584 120.95195 314.584 120.95195 
z
" style="fill: #ffffff; opacity: 0.8; stroke: #cccccc; stroke-linejoin: miter"/>
    </g>
    <g id="line2d_28">
     <path d="M 316.584 81.181637 
L 326.584 81.181637 
L 336.584 81.181637 
" style="fill: none; stroke-dasharray: 7.4,3.2; stroke-dashoffset: 0; stroke: #8000ff; stroke-width: 2"/>
    </g>
    <g id="text_15">
     <!-- Mean: N_e = [200], 1 kA -->
     <g transform="translate(344.584 84.681637) scale(0.1 -0.1)">
      <defs>
       <path id="DejaVuSans-4d" d="M 628 4666 
L 1569 4666 
L 2759 1491 
L 3956 4666 
L 4897 4666 
L 4897 0 
L 4281 0 
L 4281 4097 
L 3078 897 
L 2444 897 
L 1241 4097 
L 1241 0 
L 628 0 
L 628 4666 
z
" transform="scale(0.015625)"/>
       <path id="DejaVuSans-3a" d="M 750 794 
L 1409 794 
L 1409 0 
L 750 0 
L 750 794 
z
M 750 3309 
L 1409 3309 
L 1409 2516 
L 750 2516 
L 750 3309 
z
" transform="scale(0.015625)"/>
       <path id="DejaVuSans-4e" d="M 628 4666 
L 1478 4666 
L 3547 763 
L 3547 4666 
L 4159 4666 
L 4159 0 
L 3309 0 
L 1241 3903 
L 1241 0 
L 628 0 
L 628 4666 
z
" transform="scale(0.015625)"/>
       <path id="DejaVuSans-5f" d="M 3263 -1063 
L 3263 -1509 
L -63 -1509 
L -63 -1063 
L 3263 -1063 
z
" transform="scale(0.015625)"/>
       <path id="DejaVuSans-3d" d="M 678 2906 
L 4684 2906 
L 4684 2381 
L 678 2381 
L 678 2906 
z
M 678 1631 
L 4684 1631 
L 4684 1100 
L 678 1100 
L 678 1631 
z
" transform="scale(0.015625)"/>
       <path id="DejaVuSans-5b" d="M 550 4863 
L 1875 4863 
L 1875 4416 
L 1125 4416 
L 1125 -397 
L 1875 -397 
L 1875 -844 
L 550 -844 
L 550 4863 
z
" transform="scale(0.015625)"/>
       <path id="DejaVuSans-5d" d="M 1947 4863 
L 1947 -844 
L 622 -844 
L 622 -397 
L 1369 -397 
L 1369 4416 
L 622 4416 
L 622 4863 
L 1947 4863 
z
" transform="scale(0.015625)"/>
       <path id="DejaVuSans-2c" d="M 750 794 
L 1409 794 
L 1409 256 
L 897 -744 
L 494 -744 
L 750 256 
L 750 794 
z
" transform="scale(0.015625)"/>
       <path id="DejaVuSans-6b" d="M 581 4863 
L 1159 4863 
L 1159 1991 
L 2875 3500 
L 3609 3500 
L 1753 1863 
L 3688 0 
L 2938 0 
L 1159 1709 
L 1159 0 
L 581 0 
L 581 4863 
z
" transform="scale(0.015625)"/>
       <path id="DejaVuSans-41" d="M 2188 4044 
L 1331 1722 
L 3047 1722 
L 2188 4044 
z
M 1831 4666 
L 2547 4666 
L 4325 0 
L 3669 0 
L 3244 1197 
L 1141 1197 
L 716 0 
L 50 0 
L 1831 4666 
z
" transform="scale(0.015625)"/>
      </defs>
      <use xlink:href="#DejaVuSans-4d"/>
      <use xlink:href="#DejaVuSans-65" transform="translate(86.279297 0)"/>
      <use xlink:href="#DejaVuSans-61" transform="translate(147.802734 0)"/>
      <use xlink:href="#DejaVuSans-6e" transform="translate(209.082031 0)"/>
      <use xlink:href="#DejaVuSans-3a" transform="translate(272.460938 0)"/>
      <use xlink:href="#DejaVuSans-20" transform="translate(306.152344 0)"/>
      <use xlink:href="#DejaVuSans-4e" transform="translate(337.939453 0)"/>
      <use xlink:href="#DejaVuSans-5f" transform="translate(412.744141 0)"/>
      <use xlink:href="#DejaVuSans-65" transform="translate(462.744141 0)"/>
      <use xlink:href="#DejaVuSans-20" transform="translate(524.267578 0)"/>
      <use xlink:href="#DejaVuSans-3d" transform="translate(556.054688 0)"/>
      <use xlink:href="#DejaVuSans-20" transform="translate(639.84375 0)"/>
      <use xlink:href="#DejaVuSans-5b" transform="translate(671.630859 0)"/>
      <use xlink:href="#DejaVuSans-32" transform="translate(710.644531 0)"/>
      <use xlink:href="#DejaVuSans-30" transform="translate(774.267578 0)"/>
      <use xlink:href="#DejaVuSans-30" transform="translate(837.890625 0)"/>
      <use xlink:href="#DejaVuSans-5d" transform="translate(901.513672 0)"/>
      <use xlink:href="#DejaVuSans-2c" transform="translate(940.527344 0)"/>
      <use xlink:href="#DejaVuSans-20" transform="translate(972.314453 0)"/>
      <use xlink:href="#DejaVuSans-31" transform="translate(1004.101562 0)"/>
      <use xlink:href="#DejaVuSans-20" transform="translate(1067.724609 0)"/>
      <use xlink:href="#DejaVuSans-6b" transform="translate(1099.511719 0)"/>
      <use xlink:href="#DejaVuSans-41" transform="translate(1157.421875 0)"/>
     </g>
    </g>
    <g id="line2d_29">
     <path d="M 316.584 96.137887 
L 326.584 96.137887 
L 336.584 96.137887 
" style="fill: none; stroke-dasharray: 7.4,3.2; stroke-dashoffset: 0; stroke: #80ffb4; stroke-width: 2"/>
    </g>
    <g id="text_16">
     <!-- Mean: N_e = [200], 2 kA -->
     <g transform="translate(344.584 99.637887) scale(0.1 -0.1)">
      <use xlink:href="#DejaVuSans-4d"/>
      <use xlink:href="#DejaVuSans-65" transform="translate(86.279297 0)"/>
      <use xlink:href="#DejaVuSans-61" transform="translate(147.802734 0)"/>
      <use xlink:href="#DejaVuSans-6e" transform="translate(209.082031 0)"/>
      <use xlink:href="#DejaVuSans-3a" transform="translate(272.460938 0)"/>
      <use xlink:href="#DejaVuSans-20" transform="translate(306.152344 0)"/>
      <use xlink:href="#DejaVuSans-4e" transform="translate(337.939453 0)"/>
      <use xlink:href="#DejaVuSans-5f" transform="translate(412.744141 0)"/>
      <use xlink:href="#DejaVuSans-65" transform="translate(462.744141 0)"/>
      <use xlink:href="#DejaVuSans-20" transform="translate(524.267578 0)"/>
      <use xlink:href="#DejaVuSans-3d" transform="translate(556.054688 0)"/>
      <use xlink:href="#DejaVuSans-20" transform="translate(639.84375 0)"/>
      <use xlink:href="#DejaVuSans-5b" transform="translate(671.630859 0)"/>
      <use xlink:href="#DejaVuSans-32" transform="translate(710.644531 0)"/>
      <use xlink:href="#DejaVuSans-30" transform="translate(774.267578 0)"/>
      <use xlink:href="#DejaVuSans-30" transform="translate(837.890625 0)"/>
      <use xlink:href="#DejaVuSans-5d" transform="translate(901.513672 0)"/>
      <use xlink:href="#DejaVuSans-2c" transform="translate(940.527344 0)"/>
      <use xlink:href="#DejaVuSans-20" transform="translate(972.314453 0)"/>
      <use xlink:href="#DejaVuSans-32" transform="translate(1004.101562 0)"/>
      <use xlink:href="#DejaVuSans-20" transform="translate(1067.724609 0)"/>
      <use xlink:href="#DejaVuSans-6b" transform="translate(1099.511719 0)"/>
      <use xlink:href="#DejaVuSans-41" transform="translate(1157.421875 0)"/>
     </g>
    </g>
    <g id="line2d_30">
     <path d="M 316.584 111.094137 
L 326.584 111.094137 
L 336.584 111.094137 
" style="fill: none; stroke-dasharray: 7.4,3.2; stroke-dashoffset: 0; stroke: #ff0000; stroke-width: 2"/>
    </g>
    <g id="text_17">
     <!-- Mean: N_e = [200], 3 kA -->
     <g transform="translate(344.584 114.594137) scale(0.1 -0.1)">
      <use xlink:href="#DejaVuSans-4d"/>
      <use xlink:href="#DejaVuSans-65" transform="translate(86.279297 0)"/>
      <use xlink:href="#DejaVuSans-61" transform="translate(147.802734 0)"/>
      <use xlink:href="#DejaVuSans-6e" transform="translate(209.082031 0)"/>
      <use xlink:href="#DejaVuSans-3a" transform="translate(272.460938 0)"/>
      <use xlink:href="#DejaVuSans-20" transform="translate(306.152344 0)"/>
      <use xlink:href="#DejaVuSans-4e" transform="translate(337.939453 0)"/>
      <use xlink:href="#DejaVuSans-5f" transform="translate(412.744141 0)"/>
      <use xlink:href="#DejaVuSans-65" transform="translate(462.744141 0)"/>
      <use xlink:href="#DejaVuSans-20" transform="translate(524.267578 0)"/>
      <use xlink:href="#DejaVuSans-3d" transform="translate(556.054688 0)"/>
      <use xlink:href="#DejaVuSans-20" transform="translate(639.84375 0)"/>
      <use xlink:href="#DejaVuSans-5b" transform="translate(671.630859 0)"/>
      <use xlink:href="#DejaVuSans-32" transform="translate(710.644531 0)"/>
      <use xlink:href="#DejaVuSans-30" transform="translate(774.267578 0)"/>
      <use xlink:href="#DejaVuSans-30" transform="translate(837.890625 0)"/>
      <use xlink:href="#DejaVuSans-5d" transform="translate(901.513672 0)"/>
      <use xlink:href="#DejaVuSans-2c" transform="translate(940.527344 0)"/>
      <use xlink:href="#DejaVuSans-20" transform="translate(972.314453 0)"/>
      <use xlink:href="#DejaVuSans-33" transform="translate(1004.101562 0)"/>
      <use xlink:href="#DejaVuSans-20" transform="translate(1067.724609 0)"/>
      <use xlink:href="#DejaVuSans-6b" transform="translate(1099.511719 0)"/>
      <use xlink:href="#DejaVuSans-41" transform="translate(1157.421875 0)"/>
     </g>
    </g>
   </g>
  </g>
 </g>
 <defs>
  <clipPath id="p27d84fdf64">
   <rect x="57.6" y="41.472" width="357.12" height="266.112"/>
  </clipPath>
 </defs>
</svg>
