<?xml version="1.0" encoding="utf-8" standalone="no"?>
<!DOCTYPE svg PUBLIC "-//W3C//DTD SVG 1.1//EN"
  "http://www.w3.org/Graphics/SVG/1.1/DTD/svg11.dtd">
<svg xmlns:xlink="http://www.w3.org/1999/xlink" width="460.8pt" height="345.6pt" viewBox="0 0 460.8 345.6" xmlns="http://www.w3.org/2000/svg" version="1.1">
 <metadata>
  <rdf:RDF xmlns:dc="http://purl.org/dc/elements/1.1/" xmlns:cc="http://creativecommons.org/ns#" xmlns:rdf="http://www.w3.org/1999/02/22-rdf-syntax-ns#">
   <cc:Work>
    <dc:type rdf:resource="http://purl.org/dc/dcmitype/StillImage"/>
    <dc:date>2025-02-26T14:28:02.756729</dc:date>
    <dc:format>image/svg+xml</dc:format>
    <dc:creator>
     <cc:Agent>
      <dc:title>Matplotlib v3.10.0, https://matplotlib.org/</dc:title>
     </cc:Agent>
    </dc:creator>
   </cc:Work>
  </rdf:RDF>
 </metadata>
 <defs>
  <style type="text/css">*{stroke-linejoin: round; stroke-linecap: butt}</style>
 </defs>
 <g id="figure_1">
  <g id="patch_1">
   <path d="M 0 345.6 
L 460.8 345.6 
L 460.8 0 
L 0 0 
z
" style="fill: #ffffff"/>
  </g>
  <g id="axes_1">
   <g id="patch_2">
    <path d="M 57.6 307.584 
L 414.72 307.584 
L 414.72 41.472 
L 57.6 41.472 
z
" style="fill: #ffffff"/>
   </g>
   <g id="matplotlib.axis_1">
    <g id="xtick_1">
     <g id="line2d_1">
      <defs>
       <path id="md387aee136" d="M 0 0 
L 0 3.5 
" style="stroke: #000000; stroke-width: 0.8"/>
      </defs>
      <g>
       <use xlink:href="#md387aee136" x="73.832727" y="307.584" style="stroke: #000000; stroke-width: 0.8"/>
      </g>
     </g>
     <g id="text_1">
      <!-- 0 -->
      <g transform="translate(70.651477 322.182437) scale(0.1 -0.1)">
       <defs>
        <path id="DejaVuSans-30" d="M 2034 4250 
Q 1547 4250 1301 3770 
Q 1056 3291 1056 2328 
Q 1056 1369 1301 889 
Q 1547 409 2034 409 
Q 2525 409 2770 889 
Q 3016 1369 3016 2328 
Q 3016 3291 2770 3770 
Q 2525 4250 2034 4250 
z
M 2034 4750 
Q 2819 4750 3233 4129 
Q 3647 3509 3647 2328 
Q 3647 1150 3233 529 
Q 2819 -91 2034 -91 
Q 1250 -91 836 529 
Q 422 1150 422 2328 
Q 422 3509 836 4129 
Q 1250 4750 2034 4750 
z
" transform="scale(0.015625)"/>
       </defs>
       <use xlink:href="#DejaVuSans-30"/>
      </g>
     </g>
    </g>
    <g id="xtick_2">
     <g id="line2d_2">
      <g>
       <use xlink:href="#md387aee136" x="138.763636" y="307.584" style="stroke: #000000; stroke-width: 0.8"/>
      </g>
     </g>
     <g id="text_2">
      <!-- 200 -->
      <g transform="translate(129.219886 322.182437) scale(0.1 -0.1)">
       <defs>
        <path id="DejaVuSans-32" d="M 1228 531 
L 3431 531 
L 3431 0 
L 469 0 
L 469 531 
Q 828 903 1448 1529 
Q 2069 2156 2228 2338 
Q 2531 2678 2651 2914 
Q 2772 3150 2772 3378 
Q 2772 3750 2511 3984 
Q 2250 4219 1831 4219 
Q 1534 4219 1204 4116 
Q 875 4013 500 3803 
L 500 4441 
Q 881 4594 1212 4672 
Q 1544 4750 1819 4750 
Q 2544 4750 2975 4387 
Q 3406 4025 3406 3419 
Q 3406 3131 3298 2873 
Q 3191 2616 2906 2266 
Q 2828 2175 2409 1742 
Q 1991 1309 1228 531 
z
" transform="scale(0.015625)"/>
       </defs>
       <use xlink:href="#DejaVuSans-32"/>
       <use xlink:href="#DejaVuSans-30" transform="translate(63.623047 0)"/>
       <use xlink:href="#DejaVuSans-30" transform="translate(127.246094 0)"/>
      </g>
     </g>
    </g>
    <g id="xtick_3">
     <g id="line2d_3">
      <g>
       <use xlink:href="#md387aee136" x="203.694545" y="307.584" style="stroke: #000000; stroke-width: 0.8"/>
      </g>
     </g>
     <g id="text_3">
      <!-- 400 -->
      <g transform="translate(194.150795 322.182437) scale(0.1 -0.1)">
       <defs>
        <path id="DejaVuSans-34" d="M 2419 4116 
L 825 1625 
L 2419 1625 
L 2419 4116 
z
M 2253 4666 
L 3047 4666 
L 3047 1625 
L 3713 1625 
L 3713 1100 
L 3047 1100 
L 3047 0 
L 2419 0 
L 2419 1100 
L 313 1100 
L 313 1709 
L 2253 4666 
z
" transform="scale(0.015625)"/>
       </defs>
       <use xlink:href="#DejaVuSans-34"/>
       <use xlink:href="#DejaVuSans-30" transform="translate(63.623047 0)"/>
       <use xlink:href="#DejaVuSans-30" transform="translate(127.246094 0)"/>
      </g>
     </g>
    </g>
    <g id="xtick_4">
     <g id="line2d_4">
      <g>
       <use xlink:href="#md387aee136" x="268.625455" y="307.584" style="stroke: #000000; stroke-width: 0.8"/>
      </g>
     </g>
     <g id="text_4">
      <!-- 600 -->
      <g transform="translate(259.081705 322.182437) scale(0.1 -0.1)">
       <defs>
        <path id="DejaVuSans-36" d="M 2113 2584 
Q 1688 2584 1439 2293 
Q 1191 2003 1191 1497 
Q 1191 994 1439 701 
Q 1688 409 2113 409 
Q 2538 409 2786 701 
Q 3034 994 3034 1497 
Q 3034 2003 2786 2293 
Q 2538 2584 2113 2584 
z
M 3366 4563 
L 3366 3988 
Q 3128 4100 2886 4159 
Q 2644 4219 2406 4219 
Q 1781 4219 1451 3797 
Q 1122 3375 1075 2522 
Q 1259 2794 1537 2939 
Q 1816 3084 2150 3084 
Q 2853 3084 3261 2657 
Q 3669 2231 3669 1497 
Q 3669 778 3244 343 
Q 2819 -91 2113 -91 
Q 1303 -91 875 529 
Q 447 1150 447 2328 
Q 447 3434 972 4092 
Q 1497 4750 2381 4750 
Q 2619 4750 2861 4703 
Q 3103 4656 3366 4563 
z
" transform="scale(0.015625)"/>
       </defs>
       <use xlink:href="#DejaVuSans-36"/>
       <use xlink:href="#DejaVuSans-30" transform="translate(63.623047 0)"/>
       <use xlink:href="#DejaVuSans-30" transform="translate(127.246094 0)"/>
      </g>
     </g>
    </g>
    <g id="xtick_5">
     <g id="line2d_5">
      <g>
       <use xlink:href="#md387aee136" x="333.556364" y="307.584" style="stroke: #000000; stroke-width: 0.8"/>
      </g>
     </g>
     <g id="text_5">
      <!-- 800 -->
      <g transform="translate(324.012614 322.182437) scale(0.1 -0.1)">
       <defs>
        <path id="DejaVuSans-38" d="M 2034 2216 
Q 1584 2216 1326 1975 
Q 1069 1734 1069 1313 
Q 1069 891 1326 650 
Q 1584 409 2034 409 
Q 2484 409 2743 651 
Q 3003 894 3003 1313 
Q 3003 1734 2745 1975 
Q 2488 2216 2034 2216 
z
M 1403 2484 
Q 997 2584 770 2862 
Q 544 3141 544 3541 
Q 544 4100 942 4425 
Q 1341 4750 2034 4750 
Q 2731 4750 3128 4425 
Q 3525 4100 3525 3541 
Q 3525 3141 3298 2862 
Q 3072 2584 2669 2484 
Q 3125 2378 3379 2068 
Q 3634 1759 3634 1313 
Q 3634 634 3220 271 
Q 2806 -91 2034 -91 
Q 1263 -91 848 271 
Q 434 634 434 1313 
Q 434 1759 690 2068 
Q 947 2378 1403 2484 
z
M 1172 3481 
Q 1172 3119 1398 2916 
Q 1625 2713 2034 2713 
Q 2441 2713 2670 2916 
Q 2900 3119 2900 3481 
Q 2900 3844 2670 4047 
Q 2441 4250 2034 4250 
Q 1625 4250 1398 4047 
Q 1172 3844 1172 3481 
z
" transform="scale(0.015625)"/>
       </defs>
       <use xlink:href="#DejaVuSans-38"/>
       <use xlink:href="#DejaVuSans-30" transform="translate(63.623047 0)"/>
       <use xlink:href="#DejaVuSans-30" transform="translate(127.246094 0)"/>
      </g>
     </g>
    </g>
    <g id="xtick_6">
     <g id="line2d_6">
      <g>
       <use xlink:href="#md387aee136" x="398.487273" y="307.584" style="stroke: #000000; stroke-width: 0.8"/>
      </g>
     </g>
     <g id="text_6">
      <!-- 1000 -->
      <g transform="translate(385.762273 322.182437) scale(0.1 -0.1)">
       <defs>
        <path id="DejaVuSans-31" d="M 794 531 
L 1825 531 
L 1825 4091 
L 703 3866 
L 703 4441 
L 1819 4666 
L 2450 4666 
L 2450 531 
L 3481 531 
L 3481 0 
L 794 0 
L 794 531 
z
" transform="scale(0.015625)"/>
       </defs>
       <use xlink:href="#DejaVuSans-31"/>
       <use xlink:href="#DejaVuSans-30" transform="translate(63.623047 0)"/>
       <use xlink:href="#DejaVuSans-30" transform="translate(127.246094 0)"/>
       <use xlink:href="#DejaVuSans-30" transform="translate(190.869141 0)"/>
      </g>
     </g>
    </g>
    <g id="text_7">
     <!-- Temperature ($^{\circ}C$) -->
     <g transform="translate(192.16 335.862125) scale(0.1 -0.1)">
      <defs>
       <path id="DejaVuSans-54" d="M -19 4666 
L 3928 4666 
L 3928 4134 
L 2272 4134 
L 2272 0 
L 1638 0 
L 1638 4134 
L -19 4134 
L -19 4666 
z
" transform="scale(0.015625)"/>
       <path id="DejaVuSans-65" d="M 3597 1894 
L 3597 1613 
L 953 1613 
Q 991 1019 1311 708 
Q 1631 397 2203 397 
Q 2534 397 2845 478 
Q 3156 559 3463 722 
L 3463 178 
Q 3153 47 2828 -22 
Q 2503 -91 2169 -91 
Q 1331 -91 842 396 
Q 353 884 353 1716 
Q 353 2575 817 3079 
Q 1281 3584 2069 3584 
Q 2775 3584 3186 3129 
Q 3597 2675 3597 1894 
z
M 3022 2063 
Q 3016 2534 2758 2815 
Q 2500 3097 2075 3097 
Q 1594 3097 1305 2825 
Q 1016 2553 972 2059 
L 3022 2063 
z
" transform="scale(0.015625)"/>
       <path id="DejaVuSans-6d" d="M 3328 2828 
Q 3544 3216 3844 3400 
Q 4144 3584 4550 3584 
Q 5097 3584 5394 3201 
Q 5691 2819 5691 2113 
L 5691 0 
L 5113 0 
L 5113 2094 
Q 5113 2597 4934 2840 
Q 4756 3084 4391 3084 
Q 3944 3084 3684 2787 
Q 3425 2491 3425 1978 
L 3425 0 
L 2847 0 
L 2847 2094 
Q 2847 2600 2669 2842 
Q 2491 3084 2119 3084 
Q 1678 3084 1418 2786 
Q 1159 2488 1159 1978 
L 1159 0 
L 581 0 
L 581 3500 
L 1159 3500 
L 1159 2956 
Q 1356 3278 1631 3431 
Q 1906 3584 2284 3584 
Q 2666 3584 2933 3390 
Q 3200 3197 3328 2828 
z
" transform="scale(0.015625)"/>
       <path id="DejaVuSans-70" d="M 1159 525 
L 1159 -1331 
L 581 -1331 
L 581 3500 
L 1159 3500 
L 1159 2969 
Q 1341 3281 1617 3432 
Q 1894 3584 2278 3584 
Q 2916 3584 3314 3078 
Q 3713 2572 3713 1747 
Q 3713 922 3314 415 
Q 2916 -91 2278 -91 
Q 1894 -91 1617 61 
Q 1341 213 1159 525 
z
M 3116 1747 
Q 3116 2381 2855 2742 
Q 2594 3103 2138 3103 
Q 1681 3103 1420 2742 
Q 1159 2381 1159 1747 
Q 1159 1113 1420 752 
Q 1681 391 2138 391 
Q 2594 391 2855 752 
Q 3116 1113 3116 1747 
z
" transform="scale(0.015625)"/>
       <path id="DejaVuSans-72" d="M 2631 2963 
Q 2534 3019 2420 3045 
Q 2306 3072 2169 3072 
Q 1681 3072 1420 2755 
Q 1159 2438 1159 1844 
L 1159 0 
L 581 0 
L 581 3500 
L 1159 3500 
L 1159 2956 
Q 1341 3275 1631 3429 
Q 1922 3584 2338 3584 
Q 2397 3584 2469 3576 
Q 2541 3569 2628 3553 
L 2631 2963 
z
" transform="scale(0.015625)"/>
       <path id="DejaVuSans-61" d="M 2194 1759 
Q 1497 1759 1228 1600 
Q 959 1441 959 1056 
Q 959 750 1161 570 
Q 1363 391 1709 391 
Q 2188 391 2477 730 
Q 2766 1069 2766 1631 
L 2766 1759 
L 2194 1759 
z
M 3341 1997 
L 3341 0 
L 2766 0 
L 2766 531 
Q 2569 213 2275 61 
Q 1981 -91 1556 -91 
Q 1019 -91 701 211 
Q 384 513 384 1019 
Q 384 1609 779 1909 
Q 1175 2209 1959 2209 
L 2766 2209 
L 2766 2266 
Q 2766 2663 2505 2880 
Q 2244 3097 1772 3097 
Q 1472 3097 1187 3025 
Q 903 2953 641 2809 
L 641 3341 
Q 956 3463 1253 3523 
Q 1550 3584 1831 3584 
Q 2591 3584 2966 3190 
Q 3341 2797 3341 1997 
z
" transform="scale(0.015625)"/>
       <path id="DejaVuSans-74" d="M 1172 4494 
L 1172 3500 
L 2356 3500 
L 2356 3053 
L 1172 3053 
L 1172 1153 
Q 1172 725 1289 603 
Q 1406 481 1766 481 
L 2356 481 
L 2356 0 
L 1766 0 
Q 1100 0 847 248 
Q 594 497 594 1153 
L 594 3053 
L 172 3053 
L 172 3500 
L 594 3500 
L 594 4494 
L 1172 4494 
z
" transform="scale(0.015625)"/>
       <path id="DejaVuSans-75" d="M 544 1381 
L 544 3500 
L 1119 3500 
L 1119 1403 
Q 1119 906 1312 657 
Q 1506 409 1894 409 
Q 2359 409 2629 706 
Q 2900 1003 2900 1516 
L 2900 3500 
L 3475 3500 
L 3475 0 
L 2900 0 
L 2900 538 
Q 2691 219 2414 64 
Q 2138 -91 1772 -91 
Q 1169 -91 856 284 
Q 544 659 544 1381 
z
M 1991 3584 
L 1991 3584 
z
" transform="scale(0.015625)"/>
       <path id="DejaVuSans-20" transform="scale(0.015625)"/>
       <path id="DejaVuSans-28" d="M 1984 4856 
Q 1566 4138 1362 3434 
Q 1159 2731 1159 2009 
Q 1159 1288 1364 580 
Q 1569 -128 1984 -844 
L 1484 -844 
Q 1016 -109 783 600 
Q 550 1309 550 2009 
Q 550 2706 781 3412 
Q 1013 4119 1484 4856 
L 1984 4856 
z
" transform="scale(0.015625)"/>
       <path id="DejaVuSans-2218" d="M 2000 2619 
Q 1750 2619 1578 2445 
Q 1406 2272 1406 2022 
Q 1406 1775 1578 1605 
Q 1750 1435 2000 1435 
Q 2250 1435 2422 1605 
Q 2594 1775 2594 2022 
Q 2594 2269 2420 2444 
Q 2247 2619 2000 2619 
z
M 2000 3022 
Q 2200 3022 2384 2945 
Q 2569 2869 2703 2725 
Q 2847 2585 2919 2406 
Q 2991 2228 2991 2022 
Q 2991 1610 2702 1324 
Q 2413 1038 1994 1038 
Q 1572 1038 1290 1319 
Q 1009 1600 1009 2022 
Q 1009 2441 1296 2731 
Q 1584 3022 2000 3022 
z
" transform="scale(0.015625)"/>
       <path id="DejaVuSans-Oblique-43" d="M 4447 4306 
L 4319 3641 
Q 4019 3944 3683 4091 
Q 3347 4238 2956 4238 
Q 2422 4238 2017 3981 
Q 1613 3725 1319 3200 
Q 1131 2863 1032 2486 
Q 934 2109 934 1728 
Q 934 1091 1264 756 
Q 1594 422 2222 422 
Q 2656 422 3056 561 
Q 3456 700 3834 978 
L 3688 231 
Q 3316 72 2936 -9 
Q 2556 -91 2175 -91 
Q 1278 -91 773 396 
Q 269 884 269 1753 
Q 269 2309 461 2846 
Q 653 3384 1013 3828 
Q 1394 4300 1883 4525 
Q 2372 4750 3022 4750 
Q 3422 4750 3780 4639 
Q 4138 4528 4447 4306 
z
" transform="scale(0.015625)"/>
       <path id="DejaVuSans-29" d="M 513 4856 
L 1013 4856 
Q 1481 4119 1714 3412 
Q 1947 2706 1947 2009 
Q 1947 1309 1714 600 
Q 1481 -109 1013 -844 
L 513 -844 
Q 928 -128 1133 580 
Q 1338 1288 1338 2009 
Q 1338 2731 1133 3434 
Q 928 4138 513 4856 
z
" transform="scale(0.015625)"/>
      </defs>
      <use xlink:href="#DejaVuSans-54" transform="translate(0 0.125)"/>
      <use xlink:href="#DejaVuSans-65" transform="translate(61.083984 0.125)"/>
      <use xlink:href="#DejaVuSans-6d" transform="translate(122.607422 0.125)"/>
      <use xlink:href="#DejaVuSans-70" transform="translate(220.019531 0.125)"/>
      <use xlink:href="#DejaVuSans-65" transform="translate(283.496094 0.125)"/>
      <use xlink:href="#DejaVuSans-72" transform="translate(345.019531 0.125)"/>
      <use xlink:href="#DejaVuSans-61" transform="translate(386.132812 0.125)"/>
      <use xlink:href="#DejaVuSans-74" transform="translate(447.412109 0.125)"/>
      <use xlink:href="#DejaVuSans-75" transform="translate(486.621094 0.125)"/>
      <use xlink:href="#DejaVuSans-72" transform="translate(550 0.125)"/>
      <use xlink:href="#DejaVuSans-65" transform="translate(591.113281 0.125)"/>
      <use xlink:href="#DejaVuSans-20" transform="translate(652.636719 0.125)"/>
      <use xlink:href="#DejaVuSans-28" transform="translate(684.423828 0.125)"/>
      <use xlink:href="#DejaVuSans-2218" transform="translate(724.394531 38.40625) scale(0.7)"/>
      <use xlink:href="#DejaVuSans-Oblique-43" transform="translate(770.947266 0.125)"/>
      <use xlink:href="#DejaVuSans-29" transform="translate(840.771484 0.125)"/>
     </g>
    </g>
   </g>
   <g id="matplotlib.axis_2">
    <g id="ytick_1">
     <g id="line2d_7">
      <defs>
       <path id="m2deff32fd3" d="M 0 0 
L -3.5 0 
" style="stroke: #000000; stroke-width: 0.8"/>
      </defs>
      <g>
       <use xlink:href="#m2deff32fd3" x="57.6" y="295.488" style="stroke: #000000; stroke-width: 0.8"/>
      </g>
     </g>
     <g id="text_8">
      <!-- 0.0 -->
      <g transform="translate(34.696875 299.287219) scale(0.1 -0.1)">
       <defs>
        <path id="DejaVuSans-2e" d="M 684 794 
L 1344 794 
L 1344 0 
L 684 0 
L 684 794 
z
" transform="scale(0.015625)"/>
       </defs>
       <use xlink:href="#DejaVuSans-30"/>
       <use xlink:href="#DejaVuSans-2e" transform="translate(63.623047 0)"/>
       <use xlink:href="#DejaVuSans-30" transform="translate(95.410156 0)"/>
      </g>
     </g>
    </g>
    <g id="ytick_2">
     <g id="line2d_8">
      <g>
       <use xlink:href="#m2deff32fd3" x="57.6" y="238.026755" style="stroke: #000000; stroke-width: 0.8"/>
      </g>
     </g>
     <g id="text_9">
      <!-- 0.5 -->
      <g transform="translate(34.696875 241.825974) scale(0.1 -0.1)">
       <defs>
        <path id="DejaVuSans-35" d="M 691 4666 
L 3169 4666 
L 3169 4134 
L 1269 4134 
L 1269 2991 
Q 1406 3038 1543 3061 
Q 1681 3084 1819 3084 
Q 2600 3084 3056 2656 
Q 3513 2228 3513 1497 
Q 3513 744 3044 326 
Q 2575 -91 1722 -91 
Q 1428 -91 1123 -41 
Q 819 9 494 109 
L 494 744 
Q 775 591 1075 516 
Q 1375 441 1709 441 
Q 2250 441 2565 725 
Q 2881 1009 2881 1497 
Q 2881 1984 2565 2268 
Q 2250 2553 1709 2553 
Q 1456 2553 1204 2497 
Q 953 2441 691 2322 
L 691 4666 
z
" transform="scale(0.015625)"/>
       </defs>
       <use xlink:href="#DejaVuSans-30"/>
       <use xlink:href="#DejaVuSans-2e" transform="translate(63.623047 0)"/>
       <use xlink:href="#DejaVuSans-35" transform="translate(95.410156 0)"/>
      </g>
     </g>
    </g>
    <g id="ytick_3">
     <g id="line2d_9">
      <g>
       <use xlink:href="#m2deff32fd3" x="57.6" y="180.56551" style="stroke: #000000; stroke-width: 0.8"/>
      </g>
     </g>
     <g id="text_10">
      <!-- 1.0 -->
      <g transform="translate(34.696875 184.364729) scale(0.1 -0.1)">
       <use xlink:href="#DejaVuSans-31"/>
       <use xlink:href="#DejaVuSans-2e" transform="translate(63.623047 0)"/>
       <use xlink:href="#DejaVuSans-30" transform="translate(95.410156 0)"/>
      </g>
     </g>
    </g>
    <g id="ytick_4">
     <g id="line2d_10">
      <g>
       <use xlink:href="#m2deff32fd3" x="57.6" y="123.104266" style="stroke: #000000; stroke-width: 0.8"/>
      </g>
     </g>
     <g id="text_11">
      <!-- 1.5 -->
      <g transform="translate(34.696875 126.903484) scale(0.1 -0.1)">
       <use xlink:href="#DejaVuSans-31"/>
       <use xlink:href="#DejaVuSans-2e" transform="translate(63.623047 0)"/>
       <use xlink:href="#DejaVuSans-35" transform="translate(95.410156 0)"/>
      </g>
     </g>
    </g>
    <g id="ytick_5">
     <g id="line2d_11">
      <g>
       <use xlink:href="#m2deff32fd3" x="57.6" y="65.643021" style="stroke: #000000; stroke-width: 0.8"/>
      </g>
     </g>
     <g id="text_12">
      <!-- 2.0 -->
      <g transform="translate(34.696875 69.44224) scale(0.1 -0.1)">
       <use xlink:href="#DejaVuSans-32"/>
       <use xlink:href="#DejaVuSans-2e" transform="translate(63.623047 0)"/>
       <use xlink:href="#DejaVuSans-30" transform="translate(95.410156 0)"/>
      </g>
     </g>
    </g>
    <g id="text_13">
     <!-- Intensity ($^{\circ}C^{-1}$) -->
     <g transform="translate(28.596875 213.328) rotate(-90) scale(0.1 -0.1)">
      <defs>
       <path id="DejaVuSans-49" d="M 628 4666 
L 1259 4666 
L 1259 0 
L 628 0 
L 628 4666 
z
" transform="scale(0.015625)"/>
       <path id="DejaVuSans-6e" d="M 3513 2113 
L 3513 0 
L 2938 0 
L 2938 2094 
Q 2938 2591 2744 2837 
Q 2550 3084 2163 3084 
Q 1697 3084 1428 2787 
Q 1159 2491 1159 1978 
L 1159 0 
L 581 0 
L 581 3500 
L 1159 3500 
L 1159 2956 
Q 1366 3272 1645 3428 
Q 1925 3584 2291 3584 
Q 2894 3584 3203 3211 
Q 3513 2838 3513 2113 
z
" transform="scale(0.015625)"/>
       <path id="DejaVuSans-73" d="M 2834 3397 
L 2834 2853 
Q 2591 2978 2328 3040 
Q 2066 3103 1784 3103 
Q 1356 3103 1142 2972 
Q 928 2841 928 2578 
Q 928 2378 1081 2264 
Q 1234 2150 1697 2047 
L 1894 2003 
Q 2506 1872 2764 1633 
Q 3022 1394 3022 966 
Q 3022 478 2636 193 
Q 2250 -91 1575 -91 
Q 1294 -91 989 -36 
Q 684 19 347 128 
L 347 722 
Q 666 556 975 473 
Q 1284 391 1588 391 
Q 1994 391 2212 530 
Q 2431 669 2431 922 
Q 2431 1156 2273 1281 
Q 2116 1406 1581 1522 
L 1381 1569 
Q 847 1681 609 1914 
Q 372 2147 372 2553 
Q 372 3047 722 3315 
Q 1072 3584 1716 3584 
Q 2034 3584 2315 3537 
Q 2597 3491 2834 3397 
z
" transform="scale(0.015625)"/>
       <path id="DejaVuSans-69" d="M 603 3500 
L 1178 3500 
L 1178 0 
L 603 0 
L 603 3500 
z
M 603 4863 
L 1178 4863 
L 1178 4134 
L 603 4134 
L 603 4863 
z
" transform="scale(0.015625)"/>
       <path id="DejaVuSans-79" d="M 2059 -325 
Q 1816 -950 1584 -1140 
Q 1353 -1331 966 -1331 
L 506 -1331 
L 506 -850 
L 844 -850 
Q 1081 -850 1212 -737 
Q 1344 -625 1503 -206 
L 1606 56 
L 191 3500 
L 800 3500 
L 1894 763 
L 2988 3500 
L 3597 3500 
L 2059 -325 
z
" transform="scale(0.015625)"/>
       <path id="DejaVuSans-2212" d="M 678 2272 
L 4684 2272 
L 4684 1741 
L 678 1741 
L 678 2272 
z
" transform="scale(0.015625)"/>
      </defs>
      <use xlink:href="#DejaVuSans-49" transform="translate(0 0.684375)"/>
      <use xlink:href="#DejaVuSans-6e" transform="translate(29.492188 0.684375)"/>
      <use xlink:href="#DejaVuSans-74" transform="translate(92.871094 0.684375)"/>
      <use xlink:href="#DejaVuSans-65" transform="translate(132.080078 0.684375)"/>
      <use xlink:href="#DejaVuSans-6e" transform="translate(193.603516 0.684375)"/>
      <use xlink:href="#DejaVuSans-73" transform="translate(256.982422 0.684375)"/>
      <use xlink:href="#DejaVuSans-69" transform="translate(309.082031 0.684375)"/>
      <use xlink:href="#DejaVuSans-74" transform="translate(336.865234 0.684375)"/>
      <use xlink:href="#DejaVuSans-79" transform="translate(376.074219 0.684375)"/>
      <use xlink:href="#DejaVuSans-20" transform="translate(435.253906 0.684375)"/>
      <use xlink:href="#DejaVuSans-28" transform="translate(467.041016 0.684375)"/>
      <use xlink:href="#DejaVuSans-2218" transform="translate(507.011719 38.965625) scale(0.7)"/>
      <use xlink:href="#DejaVuSans-Oblique-43" transform="translate(553.564453 0.684375)"/>
      <use xlink:href="#DejaVuSans-2212" transform="translate(630.589193 38.965625) scale(0.7)"/>
      <use xlink:href="#DejaVuSans-31" transform="translate(689.241536 38.965625) scale(0.7)"/>
      <use xlink:href="#DejaVuSans-29" transform="translate(736.512044 0.684375)"/>
     </g>
    </g>
    <g id="text_14">
     <!-- 1e6 -->
     <g transform="translate(57.6 38.472) scale(0.1 -0.1)">
      <use xlink:href="#DejaVuSans-31"/>
      <use xlink:href="#DejaVuSans-65" transform="translate(63.623047 0)"/>
      <use xlink:href="#DejaVuSans-36" transform="translate(125.146484 0)"/>
     </g>
    </g>
   </g>
   <g id="line2d_12">
    <path d="M 73.832727 295.488 
L 104.365521 295.386523 
L 106.964057 295.305273 
L 110.699452 295.12519 
L 112.323536 294.99142 
L 118.170241 294.06457 
L 119.469509 293.712333 
L 120.281552 293.444333 
L 121.093594 293.164152 
L 124.991398 291.201276 
L 128.401976 288.429576 
L 129.051609 287.73326 
L 129.538835 287.212317 
L 130.188469 286.338101 
L 130.350877 286.218927 
L 131.000511 285.320922 
L 132.949413 282.367529 
L 133.599047 281.201181 
L 135.547949 277.394718 
L 136.522399 275.102129 
L 137.49685 272.677265 
L 138.146484 270.889186 
L 138.471301 270.015545 
L 141.719471 259.858581 
L 142.693922 256.124634 
L 143.505964 253.123663 
L 149.190261 228.279949 
L 161.208488 168.013102 
L 161.370896 167.517671 
L 162.02053 164.002192 
L 162.832573 160.147002 
L 163.482207 156.789541 
L 164.781474 150.908958 
L 165.593517 146.912298 
L 166.080742 144.725898 
L 167.704827 137.154919 
L 168.192052 135.13711 
L 169.004095 131.653005 
L 169.166503 130.631344 
L 169.328912 130.336568 
L 169.978546 127.607733 
L 170.465771 125.359964 
L 171.115405 122.927055 
L 172.089856 118.977169 
L 172.414673 117.817027 
L 172.901898 115.757271 
L 173.876349 112.00781 
L 174.363575 110.052289 
L 174.8508 108.697927 
L 176.312476 103.023399 
L 176.474885 102.669553 
L 176.96211 101.107067 
L 179.07342 94.253664 
L 179.885463 91.705488 
L 180.859914 88.452032 
L 181.022322 88.44077 
L 181.184731 88.167254 
L 181.509548 86.837831 
L 181.671956 86.798068 
L 181.834364 85.837431 
L 182.32159 84.953792 
L 182.483998 83.877542 
L 182.646407 84.231849 
L 182.808815 83.241217 
L 183.133632 82.587193 
L 183.620858 81.489913 
L 183.783266 80.741193 
L 183.945675 80.729586 
L 184.108083 79.824341 
L 184.595309 78.978282 
L 184.920126 78.235997 
L 185.244942 77.378561 
L 185.894576 75.754016 
L 186.219393 74.958293 
L 186.381802 75.016444 
L 187.031436 73.248591 
L 187.518661 72.537106 
L 188.005887 71.438102 
L 188.168295 71.275142 
L 188.330704 70.713746 
L 188.493112 70.692715 
L 188.817929 69.570037 
L 189.142746 69.326517 
L 189.467563 68.43104 
L 189.954788 67.674046 
L 190.117197 67.210219 
L 190.279605 67.264462 
L 190.442014 67.104605 
L 190.766831 66.385535 
L 190.929239 66.22292 
L 191.091648 65.764034 
L 191.254056 65.719559 
L 191.741282 64.829025 
L 191.90369 64.719504 
L 192.066099 64.006065 
L 192.228507 64.133514 
L 192.390915 63.870686 
L 192.553324 63.180807 
L 192.715732 63.432717 
L 193.040549 62.847072 
L 193.202958 62.940619 
L 193.365366 62.669401 
L 193.527775 62.042499 
L 193.690183 61.967455 
L 193.852592 61.594531 
L 194.177409 61.726922 
L 194.339817 61.319292 
L 194.502226 61.38974 
L 194.664634 60.865693 
L 194.989451 60.751115 
L 195.314268 59.9878 
L 195.476677 59.957231 
L 195.639085 59.51386 
L 196.288719 58.945108 
L 196.451127 58.536904 
L 196.613536 58.43106 
L 196.775944 58.516677 
L 196.938353 58.072617 
L 197.100761 58.150879 
L 197.26317 58.45301 
L 197.587987 57.557649 
L 197.750395 57.635911 
L 197.912804 57.840473 
L 198.075212 57.120254 
L 198.237621 57.090719 
L 198.400029 56.919829 
L 198.562438 57.009469 
L 198.724846 56.500592 
L 198.887255 56.794219 
L 199.212071 56.405781 
L 199.37448 56.582532 
L 199.699297 55.97689 
L 199.861705 56.427157 
L 200.024114 55.699582 
L 200.186522 55.854958 
L 200.511339 55.753941 
L 201.323382 55.047282 
L 201.48579 54.986603 
L 201.810607 55.207139 
L 201.973016 54.85111 
L 202.135424 54.856281 
L 202.297833 54.748369 
L 202.460241 54.781122 
L 202.62265 54.516685 
L 202.947466 54.393029 
L 203.272283 54.610347 
L 203.434692 54.438768 
L 203.5971 54.07251 
L 203.759509 54.440721 
L 203.921917 54.010222 
L 204.084326 54.177779 
L 204.571551 54.024932 
L 204.73396 54.197316 
L 204.896368 53.832896 
L 205.058777 54.22777 
L 205.546002 53.568 
L 205.708411 54.087565 
L 206.195636 53.737626 
L 206.84527 53.987927 
L 207.007678 53.791294 
L 207.170087 54.009302 
L 207.819721 53.69476 
L 207.982129 53.96839 
L 208.95658 53.994133 
L 209.118989 54.182605 
L 209.281397 53.918629 
L 209.443806 54.353955 
L 209.768622 54.033091 
L 209.931031 54.361885 
L 210.093439 54.349818 
L 210.255848 54.609772 
L 210.418256 54.625632 
L 210.580665 54.16146 
L 210.905482 54.491747 
L 211.230299 54.736532 
L 211.717524 55.019931 
L 211.879933 55.009358 
L 212.20475 55.211736 
L 212.367158 54.861453 
L 212.529567 54.881909 
L 212.691975 55.394463 
L 212.854384 55.451465 
L 213.016792 55.388717 
L 213.341609 55.800254 
L 213.504017 55.619596 
L 213.828834 55.827951 
L 214.31606 56.152147 
L 214.478468 56.017228 
L 214.803285 56.417963 
L 214.965694 56.463357 
L 215.290511 56.939711 
L 215.452919 56.846624 
L 215.615328 57.215755 
L 215.777736 56.917646 
L 216.102553 57.220122 
L 216.264962 57.197827 
L 216.42737 57.019927 
L 216.589779 57.713944 
L 216.752187 57.560752 
L 216.914595 57.708772 
L 217.077004 58.153982 
L 217.239412 57.77083 
L 217.401821 58.460021 
L 217.564229 58.381184 
L 217.726638 58.473007 
L 217.889046 58.333491 
L 218.051455 58.395549 
L 218.376272 59.094737 
L 218.53868 59.349406 
L 218.701089 59.263674 
L 218.863497 59.644527 
L 219.188314 59.656593 
L 219.350723 60.04055 
L 219.513131 59.819209 
L 219.67554 60.179146 
L 219.837948 59.939533 
L 220.000357 60.149726 
L 220.325173 60.771457 
L 220.487582 60.742841 
L 220.64999 60.947863 
L 220.812399 61.471564 
L 220.974807 61.564422 
L 221.137216 61.096342 
L 221.299624 61.839776 
L 221.462033 62.055371 
L 221.78685 62.045947 
L 223.086118 63.425936 
L 223.410935 63.679685 
L 223.89816 64.715137 
L 224.060568 64.424613 
L 224.222977 64.751452 
L 224.385385 64.752372 
L 224.710202 65.323192 
L 224.872611 65.314458 
L 225.035019 65.878267 
L 225.197428 65.858615 
L 225.359836 66.220621 
L 225.522245 66.182122 
L 225.847062 66.840973 
L 226.171879 66.814771 
L 226.334287 67.282735 
L 226.496696 67.148506 
L 226.659104 67.559928 
L 226.821513 67.66761 
L 227.14633 68.400816 
L 227.308738 68.141551 
L 227.795963 69.140342 
L 227.958372 69.177807 
L 228.283189 69.852517 
L 228.445597 69.91469 
L 228.770414 70.523894 
L 229.420048 71.27905 
L 229.744865 71.677946 
L 230.069682 72.120397 
L 230.232091 71.984444 
L 230.394499 72.539749 
L 230.556908 72.637548 
L 231.044133 73.721382 
L 231.206541 73.552906 
L 231.531358 74.020066 
L 231.693767 74.608124 
L 231.856175 74.382761 
L 232.668218 75.857906 
L 232.830626 75.764589 
L 233.317852 76.94967 
L 233.967486 77.58749 
L 234.292303 78.322419 
L 234.454711 78.21715 
L 234.941936 78.792682 
L 235.104345 79.450268 
L 235.429162 79.539448 
L 235.916387 80.718668 
L 236.078796 80.734757 
L 236.241204 81.28696 
L 236.566021 81.685511 
L 237.215655 82.634426 
L 237.378064 82.562484 
L 238.027697 84.036021 
L 238.83974 85.191107 
L 239.002148 85.636891 
L 239.164557 85.666886 
L 239.326965 86.090145 
L 239.489374 86.014526 
L 239.651782 86.428017 
L 239.814191 86.450427 
L 239.976599 86.990563 
L 240.301416 87.324413 
L 240.463825 87.826279 
L 240.626233 87.841219 
L 241.113459 89.094334 
L 241.275867 89.188915 
L 241.438276 89.105596 
L 241.763092 90.019575 
L 241.925501 90.199199 
L 242.087909 90.109789 
L 242.412726 90.976305 
L 242.899952 91.69457 
L 243.06236 91.829144 
L 243.874403 93.427372 
L 244.19922 93.789952 
L 244.524037 94.461444 
L 244.848854 94.777711 
L 245.17367 95.570791 
L 245.336079 95.621472 
L 246.31053 97.626065 
L 246.472938 97.474022 
L 246.797755 98.458448 
L 246.960164 98.573141 
L 247.609798 99.855906 
L 248.746657 101.73937 
L 248.909065 102.3403 
L 249.233882 102.486711 
L 250.045925 103.981853 
L 250.208333 104.65392 
L 250.370742 104.448783 
L 251.020376 105.894278 
L 251.345193 106.124928 
L 251.994827 107.423207 
L 252.157235 107.411715 
L 252.319643 108.181465 
L 252.806869 108.636214 
L 253.131686 109.329311 
L 253.294094 109.344711 
L 253.943728 110.830889 
L 255.080588 112.475889 
L 255.405405 113.381938 
L 255.730221 113.947701 
L 255.89263 114.36487 
L 256.055038 114.340392 
L 256.542264 115.406527 
L 256.704672 115.618445 
L 257.029489 116.518403 
L 257.191898 116.497602 
L 257.516715 117.005444 
L 257.679123 117.121171 
L 258.166349 118.362219 
L 258.328757 118.249135 
L 259.303208 120.307857 
L 259.790433 120.89672 
L 259.952842 121.575222 
L 260.11525 121.630615 
L 260.927293 123.111506 
L 261.089701 123.011638 
L 261.414518 123.835173 
L 262.064152 125.33606 
L 262.226561 125.287678 
L 262.713786 125.951355 
L 263.038603 126.913716 
L 263.688237 127.587507 
L 263.850645 128.435635 
L 264.013054 128.348064 
L 264.662688 129.582331 
L 264.825096 129.728283 
L 265.149913 130.454823 
L 265.312322 130.541015 
L 265.961956 131.759308 
L 266.286772 132.478608 
L 266.449181 132.60192 
L 266.936406 133.667251 
L 267.261223 133.774704 
L 267.58604 134.720286 
L 267.748449 134.799468 
L 268.073266 135.444183 
L 268.235674 135.434989 
L 268.7229 136.76085 
L 268.885308 136.66374 
L 269.047717 137.227205 
L 269.372534 137.599554 
L 269.69735 138.36988 
L 269.859759 138.259554 
L 270.184576 139.068608 
L 270.509393 139.524621 
L 270.83421 140.05269 
L 271.159027 140.906449 
L 271.808661 141.922019 
L 271.971069 141.813647 
L 272.620703 143.248684 
L 272.783112 143.308214 
L 273.107929 144.060152 
L 273.595154 144.634419 
L 273.757562 145.165017 
L 273.919971 145.26431 
L 274.407196 146.066124 
L 274.569605 146.204376 
L 274.732013 146.786228 
L 274.894422 146.925169 
L 275.05683 147.405775 
L 275.219239 147.448641 
L 276.031281 148.835986 
L 276.19369 148.980098 
L 276.518507 149.678712 
L 276.843323 150.243327 
L 277.330549 151.149375 
L 277.492957 151.161672 
L 277.980183 152.073812 
L 278.142591 152.106335 
L 278.467408 152.863789 
L 278.629817 152.867696 
L 278.792225 153.501264 
L 279.279451 153.964057 
L 279.604268 154.725304 
L 280.091493 155.611471 
L 280.253901 155.530106 
L 280.41631 156.288249 
L 280.741127 156.330196 
L 280.903535 156.902395 
L 281.228352 157.218662 
L 281.553169 157.82936 
L 281.715578 158.165853 
L 281.877986 158.070927 
L 282.365212 159.138097 
L 282.52762 159.16361 
L 283.339663 160.606807 
L 283.66448 161.280827 
L 283.826888 161.291975 
L 283.989296 161.860726 
L 284.151705 161.839465 
L 284.63893 162.592438 
L 284.801339 162.689202 
L 285.126156 163.485615 
L 285.288564 163.435049 
L 285.77579 164.518194 
L 285.938198 164.513482 
L 286.587832 165.726374 
L 286.750241 165.857845 
L 287.399874 166.986384 
L 287.562283 167.027181 
L 287.8871 167.715337 
L 288.049508 167.788083 
L 288.536734 168.567947 
L 290.810452 172.217426 
L 290.972861 172.111467 
L 291.460086 173.131979 
L 291.622495 173.115315 
L 291.784903 173.360675 
L 291.947312 173.883917 
L 292.10972 173.860128 
L 292.596946 174.815019 
L 293.084171 175.28103 
L 295.520298 179.068875 
L 295.682707 179.380545 
L 295.845115 179.239994 
L 296.007524 179.456738 
L 296.169932 179.945963 
L 296.332341 179.545229 
L 296.494749 180.091915 
L 296.657158 180.211779 
L 297.144383 181.334342 
L 297.306792 181.408007 
L 297.4692 181.231486 
L 297.956425 182.327157 
L 298.118834 182.363473 
L 300.230144 185.441442 
L 300.392553 185.583141 
L 300.554961 185.899293 
L 300.71737 185.91791 
L 301.204595 186.848093 
L 301.367004 186.869239 
L 301.529412 187.26825 
L 301.69182 187.268135 
L 302.666271 188.721674 
L 302.82868 188.718342 
L 303.315905 189.475681 
L 303.478314 189.604164 
L 303.640722 190.008691 
L 303.965539 190.282207 
L 304.290356 190.888768 
L 304.452765 190.89279 
L 305.427215 192.102234 
L 305.589624 192.232671 
L 305.752032 192.750742 
L 305.914441 192.741893 
L 306.076849 193.116425 
L 306.401666 193.40626 
L 306.564075 193.822509 
L 306.726483 193.921802 
L 307.213709 194.480785 
L 307.376117 194.596282 
L 307.700934 195.165608 
L 307.863343 195.047123 
L 308.025751 195.544967 
L 308.18816 195.618748 
L 308.350568 196.186924 
L 309.000202 196.634318 
L 309.325019 197.175143 
L 309.487427 197.190198 
L 309.649836 197.651152 
L 309.812244 197.666092 
L 309.974653 197.979371 
L 310.29947 198.141641 
L 310.461878 198.280123 
L 310.624287 198.860826 
L 310.786695 198.805778 
L 311.111512 199.218465 
L 311.273921 199.364991 
L 311.598738 199.831691 
L 311.761146 199.886739 
L 312.41078 201.009417 
L 312.573188 200.888633 
L 313.060414 201.672175 
L 313.872456 202.551102 
L 314.197273 203.055037 
L 314.684499 203.409113 
L 314.846907 203.849956 
L 315.009316 203.842601 
L 315.171724 204.014755 
L 315.334133 204.453644 
L 315.496541 204.346536 
L 315.658949 204.391586 
L 315.983766 205.136513 
L 316.146175 205.16352 
L 316.6334 205.796628 
L 316.958217 205.906724 
L 317.607851 206.864373 
L 318.095077 207.473922 
L 318.419894 207.701813 
L 318.744711 208.053246 
L 318.907119 208.03256 
L 319.231936 208.701179 
L 319.394344 208.74439 
L 319.556753 209.132828 
L 319.88157 209.260737 
L 320.368795 210.047611 
L 320.531204 210.069906 
L 320.856021 210.519828 
L 321.018429 210.512587 
L 321.343246 211.022154 
L 321.505655 211.011926 
L 321.99288 211.635725 
L 322.155289 211.715826 
L 322.804922 212.634976 
L 323.292148 212.971009 
L 323.454556 213.394039 
L 323.941782 213.627561 
L 324.10419 213.878322 
L 324.266599 213.903605 
L 324.591416 214.324337 
L 325.078641 214.88964 
L 325.565867 215.429086 
L 325.728275 215.673756 
L 325.890684 215.60871 
L 326.053092 215.986001 
L 326.2155 215.978301 
L 326.377909 216.220213 
L 326.540317 216.213317 
L 326.865134 216.819419 
L 327.027543 216.748626 
L 327.189951 216.918137 
L 327.514768 217.416211 
L 328.001994 217.875786 
L 328.164402 218.192972 
L 328.326811 218.148612 
L 328.489219 218.373745 
L 328.651628 218.332143 
L 328.814036 218.837573 
L 328.976445 218.811255 
L 329.626078 219.654212 
L 329.788487 219.502169 
L 330.275712 220.231697 
L 330.438121 220.211701 
L 330.762938 220.660818 
L 331.087755 220.715636 
L 331.412572 221.115681 
L 331.737389 221.497224 
L 331.899797 221.826362 
L 332.062206 221.664091 
L 332.224614 221.782346 
L 332.549431 222.204227 
L 334.335924 223.898989 
L 334.660741 224.270074 
L 334.82315 224.128259 
L 335.147967 224.850547 
L 335.472784 224.976962 
L 335.797601 225.37195 
L 336.122418 225.433204 
L 337.746502 226.947653 
L 338.071319 227.184393 
L 338.233728 227.486524 
L 338.396136 227.510428 
L 338.558545 227.760499 
L 338.720953 227.707865 
L 339.04577 228.126298 
L 339.370587 228.32247 
L 340.507446 229.404006 
L 340.994672 229.66488 
L 341.319489 230.085611 
L 341.644306 230.255352 
L 341.969123 230.543462 
L 343.268391 231.686252 
L 343.430799 231.818183 
L 343.593208 231.77796 
L 343.918024 232.232363 
L 344.730067 232.831339 
L 344.892475 233.184151 
L 345.054884 233.046129 
L 345.379701 233.402964 
L 345.542109 233.622351 
L 345.866926 233.679812 
L 346.029335 233.976197 
L 346.191743 233.82381 
L 346.354152 234.295222 
L 346.678969 234.37291 
L 347.491011 235.060261 
L 347.653419 235.113585 
L 347.815828 235.397788 
L 347.978236 235.302862 
L 348.140645 235.734626 
L 348.303053 235.644872 
L 348.790279 236.151565 
L 348.952687 236.138809 
L 349.602321 236.701584 
L 349.76473 236.768584 
L 350.089547 237.12243 
L 350.251955 237.131049 
L 350.73918 237.559251 
L 350.901589 237.676931 
L 351.063997 237.630502 
L 351.551223 238.219365 
L 351.713631 238.083412 
L 352.200857 238.736746 
L 352.688082 239.015893 
L 353.012899 238.965787 
L 353.175308 239.348134 
L 353.337716 239.372153 
L 353.662533 239.91068 
L 354.149759 239.907232 
L 354.474575 240.274639 
L 355.773843 241.058296 
L 356.09866 241.435241 
L 356.261069 241.43777 
L 356.423477 241.7707 
L 356.585886 241.581078 
L 357.073111 242.089955 
L 357.397928 242.211313 
L 357.722745 242.561827 
L 357.885153 242.477818 
L 358.047562 242.732027 
L 358.372379 242.884414 
L 358.697196 243.226653 
L 358.859604 243.170111 
L 359.184421 243.57257 
L 359.34683 243.467186 
L 359.834055 243.921015 
L 359.996464 243.851487 
L 360.158872 244.154767 
L 360.321281 244.191657 
L 360.646098 244.534471 
L 360.808506 244.449084 
L 361.45814 244.991977 
L 361.620548 245.027144 
L 362.107774 245.409376 
L 362.432591 245.56705 
L 362.594999 245.597274 
L 362.919816 245.971922 
L 363.082225 245.990654 
L 363.244633 246.261181 
L 363.56945 246.269801 
L 363.731859 246.485855 
L 363.894267 246.481373 
L 364.056676 246.725238 
L 364.219084 246.711793 
L 364.70631 247.080579 
L 364.868718 247.032656 
L 365.355943 247.522571 
L 365.518352 247.343866 
L 365.843169 247.72334 
L 367.629662 248.847857 
L 367.792071 248.782581 
L 367.954479 249.081494 
L 368.279296 249.242271 
L 368.92893 249.567501 
L 369.416155 249.981797 
L 370.065789 250.134069 
L 370.228198 250.409998 
L 370.553015 250.501017 
L 371.04024 250.907728 
L 371.202649 250.812916 
L 371.689874 251.277663 
L 371.852283 251.229511 
L 372.177099 251.553937 
L 372.664325 251.630015 
L 373.15155 252.099244 
L 373.313959 251.947431 
L 373.801184 252.410569 
L 374.126001 252.467456 
L 374.28841 252.60111 
L 374.450818 252.575253 
L 374.613227 252.894737 
L 374.775635 252.845206 
L 375.100452 253.138718 
L 375.587677 253.226748 
L 375.912494 253.507389 
L 376.39972 253.790213 
L 377.211762 254.050743 
L 377.374171 254.29955 
L 377.698988 254.385052 
L 378.023805 254.623976 
L 379.972706 255.627364 
L 380.135115 255.566685 
L 380.62234 255.949377 
L 381.109566 256.150951 
L 381.271974 256.422053 
L 381.7592 256.400678 
L 381.921608 256.678331 
L 382.571242 256.806584 
L 382.73365 257.175945 
L 382.896059 257.132159 
L 383.708101 257.638163 
L 383.87051 257.487615 
L 384.195327 257.782621 
L 384.357735 257.711139 
L 384.844961 258.050735 
L 385.007369 257.957533 
L 385.332186 258.334249 
L 385.494595 258.338731 
L 385.819412 258.514332 
L 386.306637 258.704989 
L 386.793862 258.951153 
L 387.443496 259.397282 
L 387.930722 259.443825 
L 388.580356 259.719295 
L 388.905173 259.731591 
L 389.22999 260.098769 
L 389.392398 260.040618 
L 389.717215 260.324246 
L 390.042032 260.436641 
L 391.3413 260.957699 
L 391.503708 261.157549 
L 392.153342 261.26753 
L 392.315751 261.488067 
L 392.478159 261.381304 
L 392.802976 261.593795 
L 393.290201 261.870529 
L 393.45261 261.889491 
L 393.777427 262.050957 
L 394.264652 262.177372 
L 394.427061 262.391932 
L 394.589469 262.288617 
L 394.914286 262.481112 
L 395.076695 262.368488 
L 395.239103 262.648439 
L 395.401512 262.608446 
L 395.888737 262.986656 
L 396.051146 262.935515 
L 396.213554 263.138009 
L 396.375963 263.015501 
L 398.162456 263.737215 
L 398.324864 263.803755 
L 398.487273 263.994411 
L 398.487273 263.994411 
" clip-path="url(#p3c00941fef)" style="fill: none; stroke: #8000ff; stroke-width: 1.5; stroke-linecap: square"/>
   </g>
   <g id="line2d_13">
    <path d="M 73.832727 295.488 
L 109.075367 295.385374 
L 112.810762 295.269762 
L 114.759663 295.190466 
L 116.22134 295.077497 
L 117.195791 295.019691 
L 118.495058 294.920053 
L 123.529721 294.165472 
L 127.91475 292.970623 
L 128.401976 292.765256 
L 128.889201 292.554948 
L 132.624596 290.64034 
L 135.710357 288.376367 
L 136.035174 288.031139 
L 136.359991 287.759807 
L 137.009625 287.177725 
L 137.334442 286.805491 
L 137.659259 286.527608 
L 138.146484 285.979658 
L 140.582611 283.132683 
L 142.693922 280.262379 
L 145.942091 275.115116 
L 148.865444 269.828796 
L 149.027852 269.720999 
L 149.352669 268.934469 
L 149.839894 268.087491 
L 156.498642 254.659487 
L 156.985867 253.485209 
L 157.473093 252.628347 
L 166.567968 233.584426 
L 166.730376 233.403883 
L 167.055193 232.505419 
L 167.217602 232.358893 
L 168.516869 229.799224 
L 168.679278 229.611211 
L 169.328912 228.125034 
L 170.465771 226.096422 
L 170.62818 225.477564 
L 170.790588 225.349196 
L 171.115405 224.714479 
L 171.277813 224.310296 
L 171.60263 224.049652 
L 171.927447 223.046953 
L 172.089856 223.130387 
L 172.414673 222.331791 
L 172.577081 222.118839 
L 173.064307 221.002023 
L 173.713941 219.941518 
L 174.201166 218.920202 
L 174.363575 218.761954 
L 174.8508 217.813843 
L 175.662842 216.385242 
L 175.825251 216.223546 
L 175.987659 215.694672 
L 176.150068 215.563546 
L 176.474885 214.826318 
L 176.637293 214.719785 
L 177.124519 213.635606 
L 177.611744 212.979514 
L 177.936561 212.31779 
L 178.098969 212.254697 
L 178.423786 211.614579 
L 178.911012 210.646932 
L 179.07342 210.702669 
L 179.235829 210.07163 
L 179.560646 209.803171 
L 179.885463 208.992278 
L 180.047871 209.019399 
L 180.372688 208.443523 
L 181.022322 207.456569 
L 181.509548 206.478004 
L 182.159181 205.593675 
L 182.646407 204.652345 
L 182.808815 204.693832 
L 183.783266 203.088709 
L 183.945675 202.967121 
L 184.270492 202.30965 
L 184.4329 202.240007 
L 184.920126 201.39073 
L 185.082534 201.313387 
L 185.244942 200.908515 
L 185.407351 200.870705 
L 185.732168 200.146694 
L 186.056985 199.864099 
L 187.031436 198.417915 
L 187.68107 197.45429 
L 187.843478 197.516118 
L 188.330704 196.510086 
L 188.493112 196.531807 
L 188.817929 196.098549 
L 188.980337 195.669199 
L 189.142746 195.713099 
L 189.305154 195.375916 
L 189.467563 195.35569 
L 189.629971 194.917261 
L 189.79238 194.863707 
L 191.254056 192.867503 
L 191.416465 192.951512 
L 191.578873 192.59031 
L 191.741282 192.504233 
L 192.228507 191.697822 
L 192.390915 191.780796 
L 192.715732 191.172741 
L 192.878141 191.102064 
L 193.040549 190.679034 
L 193.202958 190.660877 
L 194.502226 189.155392 
L 194.664634 189.167574 
L 194.989451 188.54251 
L 195.15186 188.633989 
L 197.100761 186.421271 
L 197.26317 186.561361 
L 197.425578 186.102591 
L 197.750395 186.065241 
L 198.237621 185.249062 
L 198.400029 185.305948 
L 198.724846 184.906018 
L 199.049663 184.675254 
L 199.699297 184.010427 
L 199.861705 183.75369 
L 200.024114 183.829424 
L 201.648199 182.316584 
L 201.810607 182.260617 
L 202.135424 181.695428 
L 202.297833 182.006179 
L 202.62265 181.350776 
L 202.785058 181.376748 
L 203.272283 180.791563 
L 203.434692 181.106106 
L 203.5971 180.637797 
L 203.921917 180.736285 
L 204.571551 179.973545 
L 204.73396 180.074217 
L 204.896368 179.759904 
L 205.058777 179.711292 
L 205.546002 179.166789 
L 205.708411 179.297571 
L 206.033228 178.963836 
L 206.195636 179.094847 
L 206.358044 178.596084 
L 206.520453 178.584706 
L 206.682861 178.446225 
L 206.84527 178.576662 
L 207.332495 178.135819 
L 207.494904 178.123178 
L 208.144538 177.521214 
L 208.306946 177.485473 
L 208.469355 177.627862 
L 208.631763 177.322398 
L 208.794172 177.27505 
L 209.118989 176.735604 
L 209.281397 177.044975 
L 209.606214 176.624818 
L 209.768622 176.492313 
L 210.255848 176.448182 
L 210.418256 176.375092 
L 210.743073 176.104334 
L 211.392707 175.632233 
L 211.717524 175.609823 
L 211.879933 175.368256 
L 212.042341 175.444449 
L 212.20475 175.375496 
L 212.529567 175.021535 
L 213.016792 174.863976 
L 213.179201 174.640682 
L 213.341609 174.771463 
L 213.666426 174.68734 
L 213.991243 174.315911 
L 215.452919 173.78991 
L 215.615328 173.490537 
L 215.777736 173.93138 
L 215.940145 173.511913 
L 216.102553 173.580981 
L 216.264962 173.221963 
L 216.42737 173.437903 
L 217.401821 173.068427 
L 217.726638 172.580121 
L 217.889046 173.001312 
L 218.051455 172.652178 
L 218.213863 172.729291 
L 218.376272 172.568629 
L 218.701089 172.685505 
L 218.863497 172.235354 
L 219.350723 172.460947 
L 219.67554 172.129855 
L 219.837948 172.373606 
L 220.000357 172.004704 
L 220.162765 171.953334 
L 220.325173 172.276496 
L 220.487582 171.884266 
L 221.624441 171.626954 
L 221.78685 171.730384 
L 221.949258 171.52973 
L 222.274075 171.613968 
L 222.598892 171.22461 
L 222.923709 171.543176 
L 223.248526 171.138074 
L 223.410935 170.976493 
L 224.060568 171.372171 
L 224.222977 171.161058 
L 224.385385 171.195535 
L 224.872611 170.894323 
L 225.035019 170.910068 
L 225.197428 170.658617 
L 225.359836 170.861111 
L 225.684653 170.725042 
L 225.847062 170.533696 
L 226.171879 170.909723 
L 226.496696 170.536455 
L 227.14633 170.662754 
L 227.308738 170.617015 
L 227.471146 170.30592 
L 227.633555 170.600122 
L 227.958372 170.440379 
L 228.12078 170.502093 
L 228.283189 170.747108 
L 228.770414 170.388205 
L 228.932823 170.448424 
L 229.095231 170.248574 
L 229.25764 170.382114 
L 229.744865 170.353383 
L 229.907274 170.106645 
L 230.069682 170.286383 
L 230.556908 170.280522 
L 230.719316 170.259147 
L 230.881724 170.419578 
L 231.044133 170.399812 
L 231.206541 170.087682 
L 231.36895 170.101243 
L 231.531358 170.362462 
L 231.856175 170.195709 
L 232.018584 170.152154 
L 232.180992 170.327526 
L 232.993035 169.914379 
L 233.317852 170.234094 
L 233.642669 170.06895 
L 233.805077 170.086073 
L 233.967486 169.981494 
L 234.129894 170.244781 
L 234.292303 169.862204 
L 234.779528 170.285119 
L 234.941936 170.199502 
L 235.104345 170.272708 
L 235.266753 169.960923 
L 235.429162 170.132272 
L 235.753979 170.023441 
L 235.916387 170.393261 
L 236.241204 170.263629 
L 236.566021 170.318906 
L 236.72843 170.226509 
L 236.890838 170.35097 
L 237.215655 170.107794 
L 237.702881 170.323388 
L 237.865289 169.986091 
L 238.190106 170.36499 
L 238.352514 170.263284 
L 238.514923 170.307759 
L 238.677331 170.234898 
L 239.002148 170.423716 
L 239.164557 170.264893 
L 239.326965 170.511057 
L 239.489374 170.271903 
L 239.651782 170.49198 
L 239.814191 170.230761 
L 239.976599 170.601271 
L 240.139008 170.555532 
L 240.301416 170.307759 
L 240.463825 170.705391 
L 240.95105 170.434748 
L 241.113459 170.655744 
L 241.600684 170.575988 
L 241.925501 170.789399 
L 242.087909 170.757106 
L 242.250318 170.608741 
L 242.412726 170.704127 
L 242.575135 170.986721 
L 242.737543 170.769977 
L 242.899952 170.997524 
L 243.224769 170.671718 
L 243.549586 170.983388 
L 244.848854 170.992697 
L 246.148121 171.476636 
L 246.472938 171.316319 
L 246.635347 171.571447 
L 246.960164 171.636263 
L 247.122572 171.424001 
L 247.284981 171.723144 
L 247.934615 171.721765 
L 248.097023 171.999188 
L 248.259432 171.752909 
L 248.42184 171.958161 
L 248.584248 171.962298 
L 248.746657 171.74429 
L 249.071474 172.136865 
L 249.558699 172.208232 
L 249.883516 172.186282 
L 250.695559 172.466808 
L 251.020376 172.348667 
L 251.182784 172.354299 
L 251.345193 172.718143 
L 251.507601 172.740553 
L 251.67001 172.564722 
L 251.994827 172.842374 
L 252.157235 172.704008 
L 252.319643 172.912592 
L 252.482052 172.681943 
L 252.64446 172.969134 
L 252.969277 172.79698 
L 253.131686 173.177029 
L 253.294094 173.010276 
L 253.618911 173.239547 
L 253.78132 173.33815 
L 253.943728 173.07854 
L 254.106137 173.307006 
L 254.268545 173.264485 
L 254.430954 173.576729 
L 254.593362 173.645568 
L 254.755771 173.564088 
L 254.918179 173.683952 
L 255.080588 173.520762 
L 255.242996 173.635684 
L 255.405405 173.51559 
L 255.89263 173.934253 
L 256.217447 173.846337 
L 256.704672 174.063886 
L 256.867081 174.028374 
L 257.029489 174.399689 
L 257.191898 173.948274 
L 257.354306 174.31706 
L 257.516715 174.357742 
L 257.679123 174.529666 
L 257.841532 174.332804 
L 258.00394 174.33878 
L 258.328757 174.630453 
L 258.491166 174.463241 
L 258.653574 174.771233 
L 258.815983 174.493006 
L 258.978391 174.771119 
L 259.303208 174.80617 
L 259.465616 175.038428 
L 259.628025 174.85053 
L 259.952842 175.150133 
L 260.440067 175.20633 
L 260.927293 175.582471 
L 261.089701 175.515471 
L 261.414518 175.6959 
L 261.576927 175.644185 
L 261.739335 175.754395 
L 261.901744 176.021016 
L 262.064152 175.815304 
L 262.226561 176.051585 
L 262.388969 175.930572 
L 262.876194 176.308092 
L 263.201011 176.185585 
L 263.36342 176.342798 
L 263.525828 176.260859 
L 263.850645 176.679981 
L 264.013054 176.509551 
L 264.175462 176.937982 
L 264.337871 176.358083 
L 264.662688 176.728134 
L 264.825096 176.619417 
L 264.987505 177.100712 
L 265.149913 177.020037 
L 265.961956 177.254479 
L 266.124364 177.172079 
L 266.286772 177.410084 
L 266.611589 177.525121 
L 267.423632 177.876554 
L 267.58604 178.183627 
L 267.748449 177.916202 
L 267.910857 178.095711 
L 268.073266 177.829321 
L 268.235674 178.299584 
L 268.398083 177.982398 
L 268.560491 178.374628 
L 269.047717 178.484839 
L 269.210125 178.251201 
L 269.69735 178.834893 
L 269.859759 178.82386 
L 270.022167 179.041064 
L 270.346984 179.040719 
L 270.509393 178.891435 
L 270.671801 179.239535 
L 270.83421 179.147137 
L 270.996618 179.366409 
L 271.159027 179.235512 
L 271.321435 179.437087 
L 271.483844 179.263209 
L 271.808661 179.784267 
L 271.971069 179.576028 
L 272.133478 179.815871 
L 272.295886 179.713935 
L 272.620703 179.987335 
L 272.783112 180.052841 
L 272.94552 179.949411 
L 273.432745 180.479893 
L 273.595154 180.46277 
L 273.757562 180.644577 
L 274.244788 180.630901 
L 274.569605 180.799722 
L 274.732013 180.861436 
L 274.894422 181.067032 
L 275.381647 181.091396 
L 275.706464 181.349052 
L 275.868873 181.177817 
L 276.356098 181.666008 
L 276.518507 181.673363 
L 276.680915 181.913092 
L 276.843323 181.828279 
L 277.005732 182.155118 
L 277.16814 181.968944 
L 277.330549 182.163508 
L 277.492957 181.903668 
L 277.655366 181.92309 
L 277.817774 182.3529 
L 277.980183 182.267283 
L 278.142591 182.48552 
L 278.629817 182.497932 
L 278.954634 182.995087 
L 279.117042 182.740304 
L 279.279451 182.792938 
L 279.604268 183.231138 
L 279.929085 183.074728 
L 280.091493 183.288369 
L 280.253901 183.310319 
L 280.578718 183.670371 
L 280.741127 183.632562 
L 281.390761 183.919638 
L 281.553169 183.926993 
L 281.877986 184.228665 
L 282.040395 184.468163 
L 282.202803 184.186143 
L 282.365212 184.397716 
L 282.52762 184.209818 
L 282.690029 184.518614 
L 282.852437 184.323131 
L 283.177254 184.692262 
L 283.826888 185.095065 
L 283.989296 185.069438 
L 284.151705 185.217343 
L 284.314113 185.190221 
L 284.963747 185.632788 
L 285.126156 185.559582 
L 285.288564 185.803448 
L 285.613381 185.641062 
L 285.77579 186.01525 
L 285.938198 185.776096 
L 286.100607 186.202344 
L 286.750241 186.287501 
L 286.912649 186.571934 
L 287.075058 186.531252 
L 287.237466 186.847289 
L 288.374325 187.236071 
L 288.536734 187.072307 
L 288.699142 187.092074 
L 288.861551 187.580379 
L 289.023959 187.68266 
L 289.186368 187.609914 
L 289.511185 187.745638 
L 289.673593 187.552568 
L 289.836002 188.045585 
L 290.160819 187.844126 
L 290.648044 188.395295 
L 290.810452 188.252676 
L 290.972861 188.533316 
L 291.135269 188.355761 
L 291.297678 188.442068 
L 291.460086 188.80212 
L 291.784903 188.910032 
L 291.947312 188.678579 
L 292.10972 188.806028 
L 292.272129 188.746038 
L 292.596946 189.30617 
L 292.759354 189.203659 
L 293.408988 189.723339 
L 293.571397 189.578077 
L 293.733805 189.789189 
L 294.058622 189.740692 
L 294.221031 190.134417 
L 294.383439 190.183029 
L 294.545847 190.013633 
L 294.870664 190.515959 
L 295.195481 190.116948 
L 295.520298 190.712362 
L 296.494749 191.136541 
L 296.819566 191.166191 
L 296.981975 191.467517 
L 297.4692 191.551411 
L 297.631609 191.816997 
L 297.794017 191.643924 
L 297.956425 191.899856 
L 298.118834 191.769419 
L 298.443651 192.241061 
L 298.606059 192.132804 
L 298.768468 192.335412 
L 299.093285 192.339549 
L 299.418102 192.661102 
L 299.58051 192.597435 
L 300.067736 192.996906 
L 300.230144 192.941398 
L 301.367004 193.63576 
L 301.69182 193.696554 
L 302.016637 193.849286 
L 302.179046 193.770679 
L 302.666271 194.282544 
L 302.82868 194.35506 
L 302.991088 194.299667 
L 303.315905 194.546866 
L 303.478314 194.786249 
L 303.640722 194.659145 
L 304.290356 195.129982 
L 304.452765 195.093897 
L 304.615173 195.227322 
L 304.93999 195.256972 
L 305.102398 195.607945 
L 305.427215 195.565653 
L 305.914441 195.996268 
L 306.076849 195.850546 
L 306.726483 196.257142 
L 306.888892 196.168882 
L 307.0513 196.540311 
L 307.863343 196.714878 
L 308.025751 196.776592 
L 308.350568 197.124232 
L 308.675385 197.186635 
L 308.837793 197.429237 
L 309.000202 197.299834 
L 309.16261 197.332472 
L 309.325019 197.621387 
L 309.649836 197.586336 
L 309.974653 197.900419 
L 310.137061 197.866746 
L 310.29947 198.138078 
L 310.624287 198.113025 
L 311.273921 198.495832 
L 311.436329 198.516978 
L 311.761146 198.812788 
L 311.923555 198.43205 
L 312.248371 199.251562 
L 312.573188 199.139283 
L 312.898005 199.249609 
L 313.060414 199.557026 
L 313.222822 199.444862 
L 313.385231 199.667812 
L 313.547639 199.534846 
L 313.872456 199.925583 
L 314.034865 199.845712 
L 314.197273 200.170713 
L 314.359682 199.972012 
L 314.52209 200.119457 
L 314.846907 200.112562 
L 315.009316 200.438367 
L 315.171724 200.491921 
L 315.334133 200.248975 
L 315.496541 200.58903 
L 315.983766 200.896678 
L 316.146175 201.024012 
L 316.308583 200.740843 
L 316.6334 201.226161 
L 316.795809 201.24202 
L 316.958217 201.485771 
L 317.120626 201.354529 
L 317.283034 201.518524 
L 317.445443 201.509445 
L 317.77026 201.779168 
L 317.932668 201.678266 
L 318.257485 201.77618 
L 318.419894 202.196681 
L 318.582302 202.186798 
L 318.744711 202.39113 
L 318.907119 202.140714 
L 319.231936 202.439168 
L 319.556753 202.695904 
L 319.719161 202.612815 
L 319.88157 202.668898 
L 320.043978 203.091697 
L 320.206387 202.892652 
L 320.856021 203.270402 
L 321.018429 203.237879 
L 321.343246 203.635051 
L 321.505655 203.470942 
L 321.668063 203.790311 
L 321.830472 203.70274 
L 322.155289 203.960741 
L 322.317697 203.870757 
L 322.642514 204.141629 
L 322.804922 204.17082 
L 323.129739 204.54041 
L 323.454556 204.537078 
L 323.941782 204.859665 
L 324.10419 204.699578 
L 324.591416 205.218338 
L 324.753824 204.974473 
L 325.078641 205.320045 
L 325.24105 205.505759 
L 325.565867 205.456572 
L 325.890684 205.765944 
L 326.053092 205.732272 
L 326.377909 206.126226 
L 326.702726 206.130248 
L 326.865134 205.872707 
L 327.189951 206.421806 
L 327.35236 206.33527 
L 328.001994 206.716812 
L 328.164402 206.747842 
L 328.326811 207.062269 
L 328.489219 207.036297 
L 328.651628 207.125362 
L 328.814036 207.408646 
L 328.976445 207.183168 
L 329.950895 207.716753 
L 330.113304 207.58712 
L 330.438121 207.902238 
L 330.762938 208.219884 
L 330.925346 208.005553 
L 331.250163 208.502593 
L 331.412572 208.334806 
L 331.737389 208.520751 
L 332.062206 208.562353 
L 332.224614 208.993197 
L 332.387023 208.893674 
L 332.71184 209.139034 
L 332.874248 209.154204 
L 333.036657 209.055025 
L 333.361473 209.345205 
L 333.68629 209.430132 
L 333.848699 209.689283 
L 334.335924 209.7079 
L 334.660741 210.027959 
L 335.147967 210.285271 
L 335.310375 210.096913 
L 336.122418 210.778518 
L 336.284826 210.841381 
L 336.609643 210.80472 
L 336.772051 211.102599 
L 336.93446 211.025946 
L 337.259277 211.239702 
L 337.421685 211.07226 
L 337.584094 211.395652 
L 337.746502 211.363474 
L 338.071319 211.725824 
L 338.233728 211.619406 
L 338.558545 211.854078 
L 338.720953 211.674913 
L 338.883362 211.993479 
L 339.208179 212.102885 
L 339.370587 212.135408 
L 339.695404 212.504769 
L 339.857813 212.484887 
L 340.669855 212.866545 
L 340.832263 212.685082 
L 340.994672 213.076048 
L 341.15708 212.883323 
L 341.481897 213.178789 
L 342.131531 213.513099 
L 343.268391 214.02979 
L 344.080433 214.289515 
L 344.242841 214.550734 
L 344.40525 214.474885 
L 344.730067 214.810918 
L 345.054884 214.838155 
L 345.217292 215.092134 
L 345.379701 214.775063 
L 345.866926 215.54263 
L 346.029335 215.409205 
L 346.191743 215.329104 
L 346.354152 215.529873 
L 347.003786 215.516083 
L 347.166194 215.819593 
L 347.815828 215.955202 
L 348.140645 216.200331 
L 348.303053 216.155397 
L 348.465462 216.436037 
L 348.62787 216.460401 
L 348.790279 216.625544 
L 348.952687 216.548202 
L 349.115096 216.593941 
L 349.277504 216.774714 
L 349.439913 216.783448 
L 349.602321 217.027888 
L 349.76473 216.804594 
L 349.927138 217.223141 
L 350.089547 217.091095 
L 350.251955 217.315999 
L 350.414364 217.207282 
L 350.576772 217.391043 
L 350.901589 217.453101 
L 351.063997 217.675591 
L 351.226406 217.502978 
L 351.551223 217.61836 
L 351.713631 217.903138 
L 351.87604 217.821658 
L 352.038448 218.078509 
L 352.200857 218.050468 
L 352.850491 218.511423 
L 353.012899 218.317548 
L 353.662533 218.657604 
L 353.824942 218.826195 
L 354.149759 218.737705 
L 354.312167 219.134187 
L 354.474575 218.982375 
L 355.124209 219.434365 
L 355.449026 219.400118 
L 356.09866 219.933818 
L 356.423477 219.881528 
L 356.585886 219.883827 
L 356.748294 220.083562 
L 356.910703 219.984729 
L 357.073111 220.258589 
L 357.397928 220.145735 
L 357.560337 220.578303 
L 357.885153 220.456486 
L 358.20997 220.808378 
L 358.372379 220.652314 
L 358.534787 220.849406 
L 358.859604 220.769075 
L 359.184421 221.018801 
L 359.671647 221.472745 
L 359.834055 221.31737 
L 359.996464 221.402987 
L 360.158872 221.325989 
L 360.321281 221.641796 
L 360.483689 221.530781 
L 360.646098 222.025178 
L 360.808506 221.778554 
L 361.133323 221.924735 
L 361.295732 222.173772 
L 361.45814 221.883823 
L 361.620548 222.272376 
L 361.945365 222.255252 
L 362.270182 222.44407 
L 362.432591 222.300072 
L 362.594999 222.376151 
L 362.919816 222.7562 
L 363.731859 223.085567 
L 364.056676 223.050861 
L 364.219084 223.411143 
L 364.543901 223.290129 
L 364.70631 223.405512 
L 365.031126 223.442976 
L 365.193535 223.623749 
L 365.355943 223.507218 
L 365.518352 223.825324 
L 365.68076 223.6973 
L 365.843169 223.961277 
L 366.005577 223.762116 
L 366.167986 224.05218 
L 366.330394 224.052525 
L 366.81762 224.38718 
L 367.304845 224.521409 
L 367.629662 224.877209 
L 367.954479 224.710686 
L 368.279296 224.946622 
L 368.441704 224.898355 
L 368.604113 225.147507 
L 369.578564 225.452971 
L 370.390606 225.885884 
L 370.553015 225.793601 
L 370.715423 225.989429 
L 370.877832 225.859337 
L 371.852283 226.314889 
L 372.014691 226.68448 
L 372.177099 226.341551 
L 372.826733 226.8918 
L 372.989142 226.845487 
L 373.963593 227.355513 
L 374.126001 227.128426 
L 374.613227 227.5156 
L 374.938044 227.602366 
L 375.100452 227.523989 
L 375.425269 227.837038 
L 375.587677 227.929895 
L 375.750086 227.82658 
L 376.074903 228.185598 
L 376.237311 228.017811 
L 376.39972 228.292705 
L 376.562128 228.22605 
L 376.886945 228.310748 
L 377.049354 228.621384 
L 377.211762 228.435439 
L 378.023805 228.808363 
L 378.348622 228.928227 
L 378.51103 229.112103 
L 378.673439 229.002926 
L 378.998255 229.200478 
L 379.160664 229.089808 
L 379.323072 229.284831 
L 379.485481 229.221394 
L 379.810298 229.429634 
L 379.972706 229.62799 
L 380.135115 229.59133 
L 380.297523 229.694875 
L 380.459932 229.655226 
L 380.784749 229.963219 
L 380.947157 229.780377 
L 381.434383 230.171228 
L 381.596791 230.181916 
L 381.7592 230.321892 
L 381.921608 230.236734 
L 382.571242 230.595063 
L 382.73365 230.51726 
L 383.058467 230.708376 
L 383.220876 230.677002 
L 383.545693 231.001773 
L 383.708101 230.864671 
L 384.032918 231.140829 
L 384.195327 231.115891 
L 384.357735 231.383776 
L 384.520144 231.241157 
L 384.682552 231.563974 
L 384.844961 231.463647 
L 385.169778 231.618677 
L 385.332186 231.538806 
L 385.494595 231.797612 
L 385.819412 231.689355 
L 386.144228 232.063197 
L 386.306637 232.050901 
L 386.469045 231.843236 
L 386.631454 232.152492 
L 386.956271 232.216849 
L 387.118679 232.369811 
L 387.281088 232.307408 
L 387.768313 232.681021 
L 387.930722 232.566558 
L 388.742764 232.94109 
L 388.905173 232.871677 
L 389.554806 233.236326 
L 389.717215 233.090949 
L 389.879623 233.3424 
L 390.529257 233.489041 
L 390.854074 233.636601 
L 391.016483 233.741181 
L 391.178891 233.612697 
L 391.3413 233.820822 
L 391.503708 233.767038 
L 391.828525 234.047449 
L 391.990934 234.108588 
L 392.153342 234.331308 
L 392.478159 234.130653 
L 392.640568 234.334411 
L 392.965385 234.40141 
L 393.127793 234.553338 
L 393.45261 234.605283 
L 393.777427 234.671823 
L 393.939835 234.695497 
L 394.102244 234.941316 
L 394.264652 234.768128 
L 394.427061 235.057963 
L 394.589469 234.753188 
L 394.914286 235.263674 
L 395.239103 235.133122 
L 395.726329 235.549141 
L 395.888737 235.598443 
L 396.051146 235.481337 
L 396.375963 235.613728 
L 396.538371 235.606832 
L 396.863188 235.860466 
L 397.188005 235.951715 
L 397.350413 235.875521 
L 397.512822 236.055835 
L 397.67523 236.004579 
L 398.162456 236.242698 
L 398.324864 236.139498 
L 398.487273 236.357046 
L 398.487273 236.357046 
" clip-path="url(#p3c00941fef)" style="fill: none; stroke: #80ffb4; stroke-width: 1.5; stroke-linecap: square"/>
   </g>
   <g id="line2d_14">
    <path d="M 73.832727 295.488 
L 120.281552 295.378364 
L 123.854538 295.220805 
L 130.188469 294.389571 
L 132.949413 293.591204 
L 133.436638 293.326653 
L 133.761455 293.199663 
L 136.197582 291.816801 
L 138.63371 289.635227 
L 139.770569 288.361886 
L 141.557062 285.764983 
L 143.181147 282.808946 
L 143.993189 281.080972 
L 146.916542 273.525048 
L 149.190261 266.069452 
L 151.301571 258.156578 
L 151.951205 255.398439 
L 152.276022 254.12165 
L 156.498642 235.344234 
L 157.960318 228.210996 
L 158.447544 225.881632 
L 163.319798 201.605175 
L 164.13184 197.6238 
L 164.619066 195.151473 
L 165.431108 190.685815 
L 166.243151 187.041048 
L 166.730376 184.185454 
L 166.892785 183.732544 
L 167.38001 181.363417 
L 172.414673 156.934918 
L 172.577081 156.50258 
L 173.389124 152.629002 
L 175.013208 145.221903 
L 175.825251 141.926961 
L 176.150068 140.306324 
L 178.098969 132.037536 
L 178.261378 131.121718 
L 178.423786 130.85935 
L 178.748603 129.685417 
L 179.07342 128.049036 
L 183.458449 111.406305 
L 183.620858 111.100956 
L 184.108083 109.143252 
L 184.920126 106.41729 
L 186.54421 100.99157 
L 186.706619 100.73989 
L 187.193844 99.407018 
L 187.356253 98.335711 
L 187.518661 98.32192 
L 187.843478 97.205563 
L 188.980337 93.833048 
L 189.954788 90.949528 
L 190.117197 90.173226 
L 190.279605 90.239996 
L 191.578873 86.564545 
L 191.90369 86.133126 
L 192.390915 84.432733 
L 192.878141 83.605061 
L 193.202958 82.876568 
L 195.963902 76.328399 
L 196.12631 76.481476 
L 196.288719 76.070168 
L 196.451127 76.00018 
L 196.613536 75.592321 
L 196.938353 74.605826 
L 197.100761 74.401149 
L 197.425578 73.774362 
L 197.750395 73.236409 
L 197.912804 72.564917 
L 198.075212 72.846248 
L 198.237621 72.04972 
L 198.724846 71.206189 
L 198.887255 71.393168 
L 199.536888 69.926757 
L 199.861705 69.697831 
L 200.186522 69.063919 
L 200.511339 68.759604 
L 200.673748 68.211079 
L 200.836156 68.17258 
L 201.160973 67.506259 
L 201.323382 67.026113 
L 201.48579 67.103916 
L 201.648199 67.364905 
L 201.810607 66.799371 
L 201.973016 66.697205 
L 202.297833 65.718295 
L 202.62265 65.746681 
L 202.785058 65.616014 
L 202.947466 65.083119 
L 203.109875 65.039678 
L 203.434692 64.734099 
L 203.5971 64.532755 
L 203.759509 64.148109 
L 203.921917 64.117999 
L 204.084326 63.603606 
L 204.246734 63.693361 
L 204.409143 63.401228 
L 204.73396 63.265619 
L 205.383594 62.55287 
L 205.708411 62.41163 
L 205.870819 62.473114 
L 206.195636 61.549712 
L 206.520453 61.76002 
L 207.007678 61.100135 
L 207.170087 61.164377 
L 207.494904 60.526787 
L 207.657312 60.651363 
L 207.819721 60.436113 
L 207.982129 60.424965 
L 208.144538 59.904596 
L 208.306946 60.204314 
L 208.631763 59.73566 
L 208.794172 60.125937 
L 208.95658 59.57224 
L 209.118989 59.940222 
L 209.281397 59.227703 
L 209.606214 59.376642 
L 209.768622 58.992227 
L 209.931031 59.094278 
L 210.093439 58.867766 
L 210.255848 58.948556 
L 210.743073 58.814671 
L 210.905482 58.42336 
L 211.06789 58.746522 
L 211.392707 58.417614 
L 211.555116 58.499209 
L 211.717524 58.388424 
L 211.879933 58.676075 
L 212.20475 58.178805 
L 212.529567 58.077788 
L 212.691975 58.098589 
L 212.854384 57.974128 
L 213.016792 58.040439 
L 213.179201 57.776347 
L 213.341609 57.936319 
L 213.504017 57.654988 
L 213.666426 57.846679 
L 213.828834 57.525356 
L 213.991243 57.988034 
L 214.153651 57.824499 
L 214.31606 57.429051 
L 214.640877 57.992976 
L 215.128102 57.544318 
L 215.290511 57.740376 
L 215.452919 57.362856 
L 215.615328 57.83128 
L 215.777736 57.445485 
L 215.940145 57.781288 
L 216.102553 57.297005 
L 216.264962 57.65993 
L 216.42737 57.22989 
L 216.752187 57.616375 
L 216.914595 57.739457 
L 217.239412 57.54156 
L 217.564229 57.941605 
L 217.726638 57.77152 
L 217.889046 58.007801 
L 218.051455 57.404457 
L 218.53868 58.175702 
L 218.701089 57.841852 
L 218.863497 57.887362 
L 219.025906 58.126171 
L 219.188314 57.826108 
L 219.350723 57.94218 
L 219.513131 58.284534 
L 219.67554 58.153292 
L 219.837948 58.187309 
L 220.000357 57.809444 
L 220.162765 58.386125 
L 220.325173 58.034348 
L 220.487582 58.03768 
L 220.64999 58.579655 
L 220.974807 58.369462 
L 221.137216 58.89822 
L 221.299624 58.569082 
L 221.462033 58.902932 
L 221.624441 58.654584 
L 221.78685 58.756291 
L 221.949258 58.622291 
L 222.111667 59.24609 
L 222.274075 58.906954 
L 222.436484 59.099564 
L 222.598892 59.055089 
L 222.761301 59.353888 
L 223.086118 59.330329 
L 223.573343 59.670269 
L 223.735752 59.659696 
L 223.89816 59.890806 
L 224.060568 59.885749 
L 224.547794 60.142371 
L 224.710202 60.63987 
L 224.872611 60.341991 
L 225.197428 60.653891 
L 225.359836 61.0706 
L 225.522245 60.836962 
L 225.847062 60.970962 
L 226.171879 61.658773 
L 226.496696 61.576259 
L 226.659104 61.490412 
L 226.821513 61.980211 
L 226.983921 61.95286 
L 227.14633 62.277746 
L 227.471146 62.336356 
L 227.633555 62.161674 
L 227.958372 62.818456 
L 228.12078 62.675722 
L 228.283189 63.325379 
L 228.608006 63.025316 
L 228.932823 63.593263 
L 229.095231 63.510289 
L 229.420048 64.168221 
L 229.582457 64.032267 
L 230.069682 64.642736 
L 230.232091 64.514022 
L 230.394499 64.905678 
L 230.719316 65.130582 
L 231.044133 65.617508 
L 231.206541 65.912399 
L 231.36895 65.507872 
L 231.531358 66.210968 
L 231.693767 66.136153 
L 231.856175 66.456442 
L 232.018584 66.41599 
L 232.505809 67.161607 
L 232.668218 67.140346 
L 233.317852 67.746447 
L 233.48026 67.604288 
L 233.805077 68.159594 
L 234.292303 68.6094 
L 234.454711 69.135171 
L 234.617119 69.263999 
L 234.779528 68.963476 
L 235.266753 69.950316 
L 235.429162 69.954453 
L 235.59157 70.513551 
L 235.916387 70.509299 
L 236.403613 71.368229 
L 236.566021 71.288014 
L 237.053247 72.313007 
L 237.540472 72.704318 
L 237.702881 72.692826 
L 238.027697 73.321222 
L 238.190106 73.542908 
L 238.352514 73.977889 
L 238.677331 73.726324 
L 238.83974 74.249566 
L 239.002148 74.386094 
L 239.326965 75.174462 
L 239.489374 74.950823 
L 239.814191 75.8078 
L 239.976599 75.757119 
L 240.139008 75.940765 
L 240.301416 76.420107 
L 240.626233 76.550889 
L 240.95105 77.310642 
L 241.438276 77.724133 
L 241.925501 78.531808 
L 242.250318 78.939898 
L 242.575135 79.507845 
L 242.737543 79.381085 
L 242.899952 79.962248 
L 243.06236 79.79653 
L 243.224769 80.477331 
L 243.711994 80.875767 
L 243.874403 81.411995 
L 244.036811 81.380277 
L 244.848854 82.641781 
L 245.011262 83.357403 
L 245.17367 83.004017 
L 245.498487 83.659535 
L 245.660896 83.800315 
L 246.148121 84.720499 
L 246.31053 84.634077 
L 246.797755 85.556215 
L 246.960164 85.641028 
L 247.122572 86.577991 
L 247.284981 86.173349 
L 247.447389 86.53455 
L 247.609798 86.596379 
L 247.772206 87.15019 
L 247.934615 87.304646 
L 248.259432 87.83961 
L 248.746657 88.522135 
L 248.909065 88.335731 
L 249.233882 89.321995 
L 250.370742 90.872185 
L 250.53315 91.540114 
L 251.020376 92.016928 
L 251.182784 92.801963 
L 251.507601 92.723012 
L 251.832418 93.334629 
L 251.994827 93.418752 
L 252.482052 94.446619 
L 252.64446 94.459375 
L 252.806869 95.190742 
L 252.969277 95.220622 
L 253.456503 96.242398 
L 253.618911 96.07645 
L 254.106137 96.955262 
L 254.268545 97.579406 
L 254.430954 97.291066 
L 254.755771 98.085525 
L 254.918179 98.499246 
L 255.080588 98.316749 
L 255.405405 99.139709 
L 255.567813 99.276122 
L 255.730221 99.670076 
L 255.89263 99.680304 
L 256.542264 101.10178 
L 256.704672 101.158667 
L 257.516715 102.544747 
L 257.679123 102.825158 
L 257.841532 103.394829 
L 258.166349 103.595024 
L 258.328757 104.082065 
L 258.491166 104.057472 
L 258.815983 104.945593 
L 258.978391 105.012708 
L 259.465616 106.022072 
L 259.952842 106.634264 
L 260.277659 107.601222 
L 260.440067 107.603176 
L 260.602476 107.755448 
L 261.089701 108.680689 
L 261.25211 108.644258 
L 261.576927 109.698557 
L 261.739335 109.48641 
L 262.226561 110.67241 
L 262.713786 111.181287 
L 263.038603 111.986089 
L 263.36342 112.389238 
L 263.525828 112.705734 
L 263.688237 112.706539 
L 264.175462 113.935635 
L 264.500279 114.215471 
L 264.825096 115.197598 
L 264.987505 114.91374 
L 265.149913 115.851507 
L 265.312322 115.668666 
L 265.47473 116.189609 
L 265.637139 116.108244 
L 266.449181 117.696473 
L 266.611589 117.817486 
L 266.773998 118.333833 
L 266.936406 118.314871 
L 267.098815 118.812255 
L 267.261223 118.90178 
L 267.748449 119.870462 
L 268.235674 120.73307 
L 268.398083 120.790301 
L 269.047717 122.083294 
L 269.859759 123.399157 
L 270.184576 124.122594 
L 270.346984 124.126156 
L 270.996618 125.590729 
L 271.159027 125.635778 
L 271.808661 126.829708 
L 271.971069 127.359156 
L 272.133478 127.179992 
L 272.783112 128.411271 
L 273.107929 128.805685 
L 273.270337 129.327663 
L 273.432745 129.33272 
L 273.757562 130.088335 
L 273.919971 130.675015 
L 274.082379 130.519295 
L 274.244788 130.987144 
L 274.407196 131.069314 
L 274.569605 131.643466 
L 274.894422 131.903651 
L 275.05683 132.357135 
L 275.219239 132.265197 
L 275.544056 133.030696 
L 275.706464 133.185381 
L 276.031281 133.873652 
L 276.19369 134.055345 
L 276.680915 134.969783 
L 276.843323 135.158945 
L 277.005732 135.5298 
L 277.16814 135.390629 
L 277.817774 136.943347 
L 277.980183 137.061947 
L 278.305 137.737921 
L 278.629817 138.287595 
L 278.954634 138.558812 
L 279.279451 139.288455 
L 279.441859 139.443026 
L 280.741127 141.982813 
L 280.903535 142.138303 
L 281.065944 142.461465 
L 281.228352 142.464683 
L 281.715578 143.391418 
L 281.877986 143.502893 
L 283.177254 145.90891 
L 283.339663 145.842829 
L 283.66448 146.333778 
L 284.801339 148.455477 
L 285.288564 149.286482 
L 285.450973 149.395313 
L 285.613381 149.742609 
L 285.77579 149.790187 
L 286.100607 150.602 
L 286.263015 150.676469 
L 286.750241 151.570336 
L 286.912649 151.637566 
L 287.399874 152.472248 
L 287.562283 152.569358 
L 288.049508 153.601247 
L 288.374325 154.121156 
L 288.536734 154.576134 
L 288.699142 154.312157 
L 288.861551 155.047776 
L 289.348776 155.696628 
L 289.511185 155.638593 
L 289.673593 156.239867 
L 290.160819 156.815399 
L 290.485636 157.334963 
L 290.648044 157.474594 
L 290.810452 157.844185 
L 290.972861 157.821315 
L 291.297678 158.593824 
L 292.759354 160.829067 
L 292.921763 160.933991 
L 293.24658 161.797059 
L 293.408988 161.71397 
L 293.733805 162.472803 
L 293.896214 162.520726 
L 294.221031 163.344146 
L 294.545847 163.236233 
L 294.870664 164.044943 
L 295.033073 164.193423 
L 295.195481 164.717814 
L 295.35789 164.648631 
L 295.845115 165.664546 
L 296.007524 165.689024 
L 296.169932 165.859684 
L 296.332341 166.530946 
L 296.494749 166.562435 
L 296.657158 166.741714 
L 296.819566 166.747805 
L 296.981975 167.282654 
L 297.306792 167.680516 
L 297.956425 168.594954 
L 298.443651 169.528125 
L 298.606059 169.506749 
L 299.093285 170.37993 
L 299.255693 170.643333 
L 299.418102 170.657468 
L 299.742919 171.450778 
L 299.905327 171.476865 
L 300.230144 172.013553 
L 301.042187 173.158641 
L 301.204595 173.237593 
L 301.854229 174.335103 
L 302.016637 174.523001 
L 302.341454 175.226901 
L 302.666271 175.458815 
L 303.478314 176.721008 
L 303.640722 176.712389 
L 303.965539 177.469154 
L 304.127948 177.805877 
L 304.290356 177.774848 
L 304.93999 178.716637 
L 305.102398 178.708133 
L 305.264807 178.911661 
L 305.427215 179.465013 
L 305.914441 179.947227 
L 306.401666 180.75904 
L 306.564075 181.01865 
L 306.726483 180.944295 
L 307.0513 181.483281 
L 307.213709 182.15983 
L 307.376117 181.949292 
L 307.700934 182.528846 
L 307.863343 182.584124 
L 308.18816 183.100471 
L 309.000202 184.260613 
L 309.16261 184.242915 
L 309.325019 184.477127 
L 309.487427 185.013356 
L 309.649836 185.029789 
L 309.812244 185.211367 
L 309.974653 185.775407 
L 310.137061 185.557514 
L 310.461878 186.309222 
L 310.786695 186.524701 
L 310.949104 187.084489 
L 311.111512 187.01611 
L 311.436329 187.402249 
L 311.598738 187.802409 
L 311.923555 187.910437 
L 312.248371 188.525961 
L 312.41078 188.789823 
L 312.573188 188.796604 
L 313.060414 189.663119 
L 313.385231 189.913651 
L 314.034865 190.817171 
L 314.52209 191.503258 
L 314.684499 191.45591 
L 314.846907 192.01248 
L 315.009316 192.076837 
L 315.658949 193.075283 
L 315.821358 192.876122 
L 315.983766 193.101485 
L 316.146175 193.528882 
L 316.308583 193.557498 
L 316.470992 193.981907 
L 316.6334 193.826187 
L 317.77026 195.428321 
L 318.095077 195.712984 
L 318.419894 196.17095 
L 318.744711 196.915763 
L 318.907119 196.662474 
L 319.556753 197.787335 
L 319.719161 197.719876 
L 319.88157 197.919841 
L 320.043978 198.307244 
L 320.206387 198.252541 
L 320.531204 198.87025 
L 320.693612 198.842783 
L 320.856021 199.298106 
L 321.018429 199.144455 
L 321.180838 199.739179 
L 322.804922 201.314996 
L 323.129739 201.836859 
L 324.266599 203.053658 
L 324.429007 203.482549 
L 324.591416 203.459794 
L 324.916233 203.962465 
L 325.078641 203.971659 
L 325.403458 204.304819 
L 325.565867 204.659815 
L 325.728275 204.670732 
L 326.053092 205.372219 
L 326.2155 205.239369 
L 326.377909 205.391067 
L 326.540317 205.815935 
L 326.702726 205.85386 
L 326.865134 206.198857 
L 327.027543 206.205063 
L 327.839585 207.148691 
L 328.001994 207.487827 
L 328.326811 207.591602 
L 328.489219 207.92959 
L 328.651628 207.967974 
L 328.814036 208.342506 
L 328.976445 208.312856 
L 329.626078 209.111337 
L 329.950895 209.398759 
L 330.113304 209.630902 
L 330.275712 209.564477 
L 330.438121 210.102199 
L 330.600529 210.111853 
L 331.087755 210.53063 
L 331.250163 210.648541 
L 331.412572 211.054102 
L 331.57498 211.026866 
L 332.062206 211.796272 
L 332.224614 211.716286 
L 332.549431 212.336177 
L 332.874248 212.391455 
L 333.361473 212.970435 
L 333.848699 213.536428 
L 334.011107 213.471497 
L 334.498333 214.230445 
L 334.985558 214.669679 
L 335.147967 214.738517 
L 335.310375 215.015595 
L 335.472784 215.064552 
L 335.635192 215.240614 
L 335.797601 215.651347 
L 336.447235 216.112645 
L 338.558545 218.347083 
L 338.883362 218.365586 
L 339.208179 218.850214 
L 341.319489 220.859749 
L 341.644306 221.119129 
L 341.806714 221.275998 
L 341.969123 221.601573 
L 342.29394 221.750398 
L 343.918024 223.288635 
L 344.080433 223.28944 
L 344.242841 223.633863 
L 344.40525 223.638115 
L 344.567658 223.917491 
L 344.730067 223.909562 
L 345.054884 224.429471 
L 345.217292 224.421886 
L 345.542109 224.720455 
L 345.704518 224.983857 
L 345.866926 224.973169 
L 346.678969 225.908753 
L 346.841377 225.811184 
L 347.166194 226.164111 
L 347.328602 226.169283 
L 348.140645 227.105096 
L 348.303053 227.109808 
L 348.62787 227.562948 
L 348.790279 227.511233 
L 348.952687 227.859907 
L 349.115096 227.697407 
L 349.602321 228.294889 
L 350.414364 228.815603 
L 350.576772 229.154969 
L 350.73918 229.139569 
L 350.901589 229.418141 
L 351.063997 229.453538 
L 351.226406 229.834506 
L 351.388814 229.636379 
L 351.713631 230.033321 
L 351.87604 230.082623 
L 352.200857 230.516685 
L 352.850491 230.871796 
L 353.012899 230.952931 
L 353.337716 231.37803 
L 353.662533 231.598336 
L 353.824942 231.563055 
L 354.149759 232.120314 
L 354.312167 232.012172 
L 354.636984 232.520474 
L 354.799392 232.507833 
L 354.961801 232.808815 
L 355.124209 232.745952 
L 355.449026 233.095776 
L 355.611435 233.027282 
L 355.773843 233.376991 
L 356.09866 233.467091 
L 356.261069 233.797378 
L 356.423477 233.757959 
L 356.748294 234.04584 
L 356.910703 234.046415 
L 357.073111 234.43968 
L 357.23552 234.416465 
L 357.885153 234.941431 
L 358.047562 234.952579 
L 359.34683 236.137429 
L 359.671647 236.247755 
L 359.996464 236.444158 
L 360.483689 236.960275 
L 361.133323 237.249534 
L 361.295732 237.587521 
L 361.45814 237.570973 
L 361.782957 237.965042 
L 362.107774 238.15294 
L 362.919816 238.727208 
L 363.082225 238.679285 
L 363.244633 239.029569 
L 363.407042 239.054622 
L 363.56945 239.235625 
L 363.731859 239.193104 
L 364.056676 239.51707 
L 364.219084 239.444094 
L 364.543901 239.803227 
L 365.193535 240.219936 
L 365.518352 240.59263 
L 365.68076 240.603777 
L 366.492803 241.296875 
L 366.655211 241.210338 
L 367.142437 241.48937 
L 367.629662 242.00836 
L 367.792071 241.813221 
L 368.116888 242.401165 
L 368.441704 242.366688 
L 368.766521 242.738692 
L 369.091338 242.829711 
L 369.253747 243.039329 
L 369.416155 243.05335 
L 369.578564 243.362377 
L 370.065789 243.613023 
L 370.715423 243.970202 
L 370.877832 243.971925 
L 371.202649 244.427823 
L 371.527466 244.46931 
L 371.689874 244.698351 
L 371.852283 244.663184 
L 372.177099 244.939228 
L 372.339508 244.976923 
L 372.664325 245.284455 
L 372.826733 245.34433 
L 373.15155 245.641404 
L 375.425269 246.915435 
L 375.587677 247.256065 
L 375.750086 247.060467 
L 376.074903 247.467063 
L 376.237311 247.440056 
L 377.698988 248.395407 
L 377.861396 248.389661 
L 378.186213 248.627206 
L 379.160664 249.22193 
L 379.323072 249.149758 
L 379.485481 249.46568 
L 379.647889 249.359837 
L 379.810298 249.660359 
L 379.972706 249.630249 
L 380.784749 250.206585 
L 380.947157 250.13246 
L 381.434383 250.534689 
L 381.7592 250.697994 
L 382.246425 250.975187 
L 382.896059 251.299613 
L 383.545693 251.740226 
L 383.708101 251.891349 
L 383.87051 251.747696 
L 384.195327 252.067181 
L 384.520144 252.197503 
L 384.844961 252.302427 
L 385.332186 252.778666 
L 385.819412 252.798662 
L 386.306637 253.252951 
L 386.631454 253.264213 
L 386.793862 253.686438 
L 386.956271 253.600361 
L 387.281088 253.734821 
L 387.443496 253.722064 
L 387.930722 254.154173 
L 388.09313 254.122914 
L 389.067581 254.721545 
L 389.392398 254.711892 
L 389.554806 254.883241 
L 389.879623 254.924843 
L 390.20444 255.237662 
L 390.366849 255.275587 
L 390.529257 255.466703 
L 390.854074 255.482217 
L 391.178891 255.809172 
L 391.503708 255.745505 
L 391.666117 256.01856 
L 391.990934 256.016952 
L 392.153342 256.238407 
L 392.315751 256.103603 
L 392.640568 256.50859 
L 392.802976 256.305407 
L 393.290201 256.770498 
L 394.102244 257.014938 
L 394.427061 257.311324 
L 394.589469 257.386828 
L 394.751878 257.324655 
L 394.914286 257.572772 
L 395.726329 257.795607 
L 396.375963 258.192549 
L 396.538371 258.334823 
L 396.700779 258.2584 
L 397.025596 258.551912 
L 397.188005 258.515022 
L 397.350413 258.707402 
L 397.512822 258.64362 
L 398.000047 258.97 
L 398.162456 258.852894 
L 398.324864 259.14813 
L 398.487273 259.060444 
L 398.487273 259.060444 
" clip-path="url(#p3c00941fef)" style="fill: none; stroke: #ff0000; stroke-width: 1.5; stroke-linecap: square"/>
   </g>
   <g id="patch_3">
    <path d="M 57.6 307.584 
L 57.6 41.472 
" style="fill: none; stroke: #000000; stroke-width: 0.8; stroke-linejoin: miter; stroke-linecap: square"/>
   </g>
   <g id="patch_4">
    <path d="M 414.72 307.584 
L 414.72 41.472 
" style="fill: none; stroke: #000000; stroke-width: 0.8; stroke-linejoin: miter; stroke-linecap: square"/>
   </g>
   <g id="patch_5">
    <path d="M 57.6 307.584 
L 414.72 307.584 
" style="fill: none; stroke: #000000; stroke-width: 0.8; stroke-linejoin: miter; stroke-linecap: square"/>
   </g>
   <g id="patch_6">
    <path d="M 57.6 41.472 
L 414.72 41.472 
" style="fill: none; stroke: #000000; stroke-width: 0.8; stroke-linejoin: miter; stroke-linecap: square"/>
   </g>
   <g id="legend_1">
    <g id="patch_7">
     <path d="M 243.16 121.6832 
L 529.86 121.6832 
Q 531.86 121.6832 531.86 119.6832 
L 531.86 75.0832 
Q 531.86 73.0832 529.86 73.0832 
L 243.16 73.0832 
Q 241.16 73.0832 241.16 75.0832 
L 241.16 119.6832 
Q 241.16 121.6832 243.16 121.6832 
z
" style="fill: #ffffff; opacity: 0.8; stroke: #cccccc; stroke-linejoin: miter"/>
    </g>
    <g id="line2d_15">
     <path d="M 245.16 81.3832 
L 255.16 81.3832 
L 265.16 81.3832 
" style="fill: none; stroke: #8000ff; stroke-width: 1.5; stroke-linecap: square"/>
    </g>
    <g id="text_15">
     <!-- $\rho'$: 0.0008, E=0.8eV, s_tun=10000000000.0$s^-1$ -->
     <g transform="translate(273.16 84.8832) scale(0.1 -0.1)">
      <defs>
       <path id="DejaVuSans-Oblique-3c1" d="M 1203 2875 
Q 1453 3194 1981 3475 
Q 2188 3584 2756 3584 
Q 3394 3584 3694 3078 
Q 3994 2572 3834 1747 
Q 3672 922 3175 415 
Q 2678 -91 2041 -91 
Q 1656 -91 1409 63 
Q 1163 213 1044 525 
L 681 -1331 
L 103 -1331 
L 697 1716 
Q 838 2438 1203 2875 
z
M 3238 1747 
Q 3359 2381 3169 2744 
Q 2978 3103 2522 3103 
Q 2066 3103 1734 2744 
Q 1403 2381 1281 1747 
Q 1156 1113 1347 750 
Q 1538 391 1994 391 
Q 2450 391 2781 750 
Q 3113 1113 3238 1747 
z
" transform="scale(0.015625)"/>
       <path id="Cmsy10-30" d="M 225 347 
Q 184 359 184 409 
L 966 3316 
Q 1003 3434 1093 3506 
Q 1184 3578 1300 3578 
Q 1450 3578 1564 3479 
Q 1678 3381 1678 3231 
Q 1678 3166 1644 3084 
L 488 319 
Q 466 275 428 275 
Q 394 275 320 306 
Q 247 338 225 347 
z
" transform="scale(0.015625)"/>
       <path id="DejaVuSans-3a" d="M 750 794 
L 1409 794 
L 1409 0 
L 750 0 
L 750 794 
z
M 750 3309 
L 1409 3309 
L 1409 2516 
L 750 2516 
L 750 3309 
z
" transform="scale(0.015625)"/>
       <path id="DejaVuSans-2c" d="M 750 794 
L 1409 794 
L 1409 256 
L 897 -744 
L 494 -744 
L 750 256 
L 750 794 
z
" transform="scale(0.015625)"/>
       <path id="DejaVuSans-45" d="M 628 4666 
L 3578 4666 
L 3578 4134 
L 1259 4134 
L 1259 2753 
L 3481 2753 
L 3481 2222 
L 1259 2222 
L 1259 531 
L 3634 531 
L 3634 0 
L 628 0 
L 628 4666 
z
" transform="scale(0.015625)"/>
       <path id="DejaVuSans-3d" d="M 678 2906 
L 4684 2906 
L 4684 2381 
L 678 2381 
L 678 2906 
z
M 678 1631 
L 4684 1631 
L 4684 1100 
L 678 1100 
L 678 1631 
z
" transform="scale(0.015625)"/>
       <path id="DejaVuSans-56" d="M 1831 0 
L 50 4666 
L 709 4666 
L 2188 738 
L 3669 4666 
L 4325 4666 
L 2547 0 
L 1831 0 
z
" transform="scale(0.015625)"/>
       <path id="DejaVuSans-5f" d="M 3263 -1063 
L 3263 -1509 
L -63 -1509 
L -63 -1063 
L 3263 -1063 
z
" transform="scale(0.015625)"/>
       <path id="DejaVuSans-Oblique-73" d="M 3200 3397 
L 3091 2853 
Q 2863 2978 2609 3040 
Q 2356 3103 2088 3103 
Q 1634 3103 1373 2948 
Q 1113 2794 1113 2528 
Q 1113 2219 1719 2053 
Q 1766 2041 1788 2034 
L 1972 1978 
Q 2547 1819 2739 1644 
Q 2931 1469 2931 1166 
Q 2931 609 2489 259 
Q 2047 -91 1331 -91 
Q 1053 -91 747 -37 
Q 441 16 72 128 
L 184 722 
Q 500 559 806 475 
Q 1113 391 1394 391 
Q 1816 391 2080 572 
Q 2344 753 2344 1031 
Q 2344 1331 1650 1516 
L 1591 1531 
L 1394 1581 
Q 956 1697 753 1886 
Q 550 2075 550 2369 
Q 550 2928 970 3256 
Q 1391 3584 2113 3584 
Q 2397 3584 2667 3537 
Q 2938 3491 3200 3397 
z
" transform="scale(0.015625)"/>
      </defs>
      <use xlink:href="#DejaVuSans-Oblique-3c1" transform="translate(0 0.584375)"/>
      <use xlink:href="#Cmsy10-30" transform="translate(68.126458 38.865625) scale(0.7)"/>
      <use xlink:href="#DejaVuSans-3a" transform="translate(90.103997 0.584375)"/>
      <use xlink:href="#DejaVuSans-20" transform="translate(123.795404 0.584375)"/>
      <use xlink:href="#DejaVuSans-30" transform="translate(155.582513 0.584375)"/>
      <use xlink:href="#DejaVuSans-2e" transform="translate(219.20556 0.584375)"/>
      <use xlink:href="#DejaVuSans-30" transform="translate(250.992669 0.584375)"/>
      <use xlink:href="#DejaVuSans-30" transform="translate(314.615716 0.584375)"/>
      <use xlink:href="#DejaVuSans-30" transform="translate(378.238763 0.584375)"/>
      <use xlink:href="#DejaVuSans-38" transform="translate(441.86181 0.584375)"/>
      <use xlink:href="#DejaVuSans-2c" transform="translate(505.484857 0.584375)"/>
      <use xlink:href="#DejaVuSans-20" transform="translate(537.271966 0.584375)"/>
      <use xlink:href="#DejaVuSans-45" transform="translate(569.059076 0.584375)"/>
      <use xlink:href="#DejaVuSans-3d" transform="translate(632.242669 0.584375)"/>
      <use xlink:href="#DejaVuSans-30" transform="translate(716.031732 0.584375)"/>
      <use xlink:href="#DejaVuSans-2e" transform="translate(779.654779 0.584375)"/>
      <use xlink:href="#DejaVuSans-38" transform="translate(808.816888 0.584375)"/>
      <use xlink:href="#DejaVuSans-65" transform="translate(872.439935 0.584375)"/>
      <use xlink:href="#DejaVuSans-56" transform="translate(933.963372 0.584375)"/>
      <use xlink:href="#DejaVuSans-2c" transform="translate(1002.371576 0.584375)"/>
      <use xlink:href="#DejaVuSans-20" transform="translate(1034.158685 0.584375)"/>
      <use xlink:href="#DejaVuSans-73" transform="translate(1065.945794 0.584375)"/>
      <use xlink:href="#DejaVuSans-5f" transform="translate(1118.045404 0.584375)"/>
      <use xlink:href="#DejaVuSans-74" transform="translate(1168.045404 0.584375)"/>
      <use xlink:href="#DejaVuSans-75" transform="translate(1207.254388 0.584375)"/>
      <use xlink:href="#DejaVuSans-6e" transform="translate(1270.633294 0.584375)"/>
      <use xlink:href="#DejaVuSans-3d" transform="translate(1334.012201 0.584375)"/>
      <use xlink:href="#DejaVuSans-31" transform="translate(1417.801263 0.584375)"/>
      <use xlink:href="#DejaVuSans-30" transform="translate(1481.42431 0.584375)"/>
      <use xlink:href="#DejaVuSans-30" transform="translate(1545.047357 0.584375)"/>
      <use xlink:href="#DejaVuSans-30" transform="translate(1608.670404 0.584375)"/>
      <use xlink:href="#DejaVuSans-30" transform="translate(1672.293451 0.584375)"/>
      <use xlink:href="#DejaVuSans-30" transform="translate(1735.916497 0.584375)"/>
      <use xlink:href="#DejaVuSans-30" transform="translate(1799.539544 0.584375)"/>
      <use xlink:href="#DejaVuSans-30" transform="translate(1863.162591 0.584375)"/>
      <use xlink:href="#DejaVuSans-30" transform="translate(1926.785638 0.584375)"/>
      <use xlink:href="#DejaVuSans-30" transform="translate(1990.408685 0.584375)"/>
      <use xlink:href="#DejaVuSans-30" transform="translate(2054.031732 0.584375)"/>
      <use xlink:href="#DejaVuSans-2e" transform="translate(2117.654779 0.584375)"/>
      <use xlink:href="#DejaVuSans-30" transform="translate(2149.441888 0.584375)"/>
      <use xlink:href="#DejaVuSans-Oblique-73" transform="translate(2213.064935 0.584375)"/>
      <use xlink:href="#DejaVuSans-2212" transform="translate(2283.452135 38.865625) scale(0.7)"/>
      <use xlink:href="#DejaVuSans-31" transform="translate(2358.476549 0.584375)"/>
     </g>
    </g>
    <g id="line2d_16">
     <path d="M 245.16 96.5832 
L 255.16 96.5832 
L 265.16 96.5832 
" style="fill: none; stroke: #80ffb4; stroke-width: 1.5; stroke-linecap: square"/>
    </g>
    <g id="text_16">
     <!-- $\rho'$: 0.0003, E=0.8eV, s_tun=10000000000.0$s^-1$ -->
     <g transform="translate(273.16 100.0832) scale(0.1 -0.1)">
      <defs>
       <path id="DejaVuSans-33" d="M 2597 2516 
Q 3050 2419 3304 2112 
Q 3559 1806 3559 1356 
Q 3559 666 3084 287 
Q 2609 -91 1734 -91 
Q 1441 -91 1130 -33 
Q 819 25 488 141 
L 488 750 
Q 750 597 1062 519 
Q 1375 441 1716 441 
Q 2309 441 2620 675 
Q 2931 909 2931 1356 
Q 2931 1769 2642 2001 
Q 2353 2234 1838 2234 
L 1294 2234 
L 1294 2753 
L 1863 2753 
Q 2328 2753 2575 2939 
Q 2822 3125 2822 3475 
Q 2822 3834 2567 4026 
Q 2313 4219 1838 4219 
Q 1578 4219 1281 4162 
Q 984 4106 628 3988 
L 628 4550 
Q 988 4650 1302 4700 
Q 1616 4750 1894 4750 
Q 2613 4750 3031 4423 
Q 3450 4097 3450 3541 
Q 3450 3153 3228 2886 
Q 3006 2619 2597 2516 
z
" transform="scale(0.015625)"/>
      </defs>
      <use xlink:href="#DejaVuSans-Oblique-3c1" transform="translate(0 0.584375)"/>
      <use xlink:href="#Cmsy10-30" transform="translate(68.126458 38.865625) scale(0.7)"/>
      <use xlink:href="#DejaVuSans-3a" transform="translate(90.103997 0.584375)"/>
      <use xlink:href="#DejaVuSans-20" transform="translate(123.795404 0.584375)"/>
      <use xlink:href="#DejaVuSans-30" transform="translate(155.582513 0.584375)"/>
      <use xlink:href="#DejaVuSans-2e" transform="translate(219.20556 0.584375)"/>
      <use xlink:href="#DejaVuSans-30" transform="translate(250.992669 0.584375)"/>
      <use xlink:href="#DejaVuSans-30" transform="translate(314.615716 0.584375)"/>
      <use xlink:href="#DejaVuSans-30" transform="translate(378.238763 0.584375)"/>
      <use xlink:href="#DejaVuSans-33" transform="translate(441.86181 0.584375)"/>
      <use xlink:href="#DejaVuSans-2c" transform="translate(505.484857 0.584375)"/>
      <use xlink:href="#DejaVuSans-20" transform="translate(537.271966 0.584375)"/>
      <use xlink:href="#DejaVuSans-45" transform="translate(569.059076 0.584375)"/>
      <use xlink:href="#DejaVuSans-3d" transform="translate(632.242669 0.584375)"/>
      <use xlink:href="#DejaVuSans-30" transform="translate(716.031732 0.584375)"/>
      <use xlink:href="#DejaVuSans-2e" transform="translate(779.654779 0.584375)"/>
      <use xlink:href="#DejaVuSans-38" transform="translate(808.816888 0.584375)"/>
      <use xlink:href="#DejaVuSans-65" transform="translate(872.439935 0.584375)"/>
      <use xlink:href="#DejaVuSans-56" transform="translate(933.963372 0.584375)"/>
      <use xlink:href="#DejaVuSans-2c" transform="translate(1002.371576 0.584375)"/>
      <use xlink:href="#DejaVuSans-20" transform="translate(1034.158685 0.584375)"/>
      <use xlink:href="#DejaVuSans-73" transform="translate(1065.945794 0.584375)"/>
      <use xlink:href="#DejaVuSans-5f" transform="translate(1118.045404 0.584375)"/>
      <use xlink:href="#DejaVuSans-74" transform="translate(1168.045404 0.584375)"/>
      <use xlink:href="#DejaVuSans-75" transform="translate(1207.254388 0.584375)"/>
      <use xlink:href="#DejaVuSans-6e" transform="translate(1270.633294 0.584375)"/>
      <use xlink:href="#DejaVuSans-3d" transform="translate(1334.012201 0.584375)"/>
      <use xlink:href="#DejaVuSans-31" transform="translate(1417.801263 0.584375)"/>
      <use xlink:href="#DejaVuSans-30" transform="translate(1481.42431 0.584375)"/>
      <use xlink:href="#DejaVuSans-30" transform="translate(1545.047357 0.584375)"/>
      <use xlink:href="#DejaVuSans-30" transform="translate(1608.670404 0.584375)"/>
      <use xlink:href="#DejaVuSans-30" transform="translate(1672.293451 0.584375)"/>
      <use xlink:href="#DejaVuSans-30" transform="translate(1735.916497 0.584375)"/>
      <use xlink:href="#DejaVuSans-30" transform="translate(1799.539544 0.584375)"/>
      <use xlink:href="#DejaVuSans-30" transform="translate(1863.162591 0.584375)"/>
      <use xlink:href="#DejaVuSans-30" transform="translate(1926.785638 0.584375)"/>
      <use xlink:href="#DejaVuSans-30" transform="translate(1990.408685 0.584375)"/>
      <use xlink:href="#DejaVuSans-30" transform="translate(2054.031732 0.584375)"/>
      <use xlink:href="#DejaVuSans-2e" transform="translate(2117.654779 0.584375)"/>
      <use xlink:href="#DejaVuSans-30" transform="translate(2149.441888 0.584375)"/>
      <use xlink:href="#DejaVuSans-Oblique-73" transform="translate(2213.064935 0.584375)"/>
      <use xlink:href="#DejaVuSans-2212" transform="translate(2283.452135 38.865625) scale(0.7)"/>
      <use xlink:href="#DejaVuSans-31" transform="translate(2358.476549 0.584375)"/>
     </g>
    </g>
    <g id="line2d_17">
     <path d="M 245.16 111.7832 
L 255.16 111.7832 
L 265.16 111.7832 
" style="fill: none; stroke: #ff0000; stroke-width: 1.5; stroke-linecap: square"/>
    </g>
    <g id="text_17">
     <!-- $\rho'$: 0.0003, E=1.2eV, s_tun=1000000000000.0$s^-1$ -->
     <g transform="translate(273.16 115.2832) scale(0.1 -0.1)">
      <use xlink:href="#DejaVuSans-Oblique-3c1" transform="translate(0 0.584375)"/>
      <use xlink:href="#Cmsy10-30" transform="translate(68.126458 38.865625) scale(0.7)"/>
      <use xlink:href="#DejaVuSans-3a" transform="translate(90.103997 0.584375)"/>
      <use xlink:href="#DejaVuSans-20" transform="translate(123.795404 0.584375)"/>
      <use xlink:href="#DejaVuSans-30" transform="translate(155.582513 0.584375)"/>
      <use xlink:href="#DejaVuSans-2e" transform="translate(219.20556 0.584375)"/>
      <use xlink:href="#DejaVuSans-30" transform="translate(250.992669 0.584375)"/>
      <use xlink:href="#DejaVuSans-30" transform="translate(314.615716 0.584375)"/>
      <use xlink:href="#DejaVuSans-30" transform="translate(378.238763 0.584375)"/>
      <use xlink:href="#DejaVuSans-33" transform="translate(441.86181 0.584375)"/>
      <use xlink:href="#DejaVuSans-2c" transform="translate(505.484857 0.584375)"/>
      <use xlink:href="#DejaVuSans-20" transform="translate(537.271966 0.584375)"/>
      <use xlink:href="#DejaVuSans-45" transform="translate(569.059076 0.584375)"/>
      <use xlink:href="#DejaVuSans-3d" transform="translate(632.242669 0.584375)"/>
      <use xlink:href="#DejaVuSans-31" transform="translate(716.031732 0.584375)"/>
      <use xlink:href="#DejaVuSans-2e" transform="translate(779.654779 0.584375)"/>
      <use xlink:href="#DejaVuSans-32" transform="translate(805.941888 0.584375)"/>
      <use xlink:href="#DejaVuSans-65" transform="translate(869.564935 0.584375)"/>
      <use xlink:href="#DejaVuSans-56" transform="translate(931.088372 0.584375)"/>
      <use xlink:href="#DejaVuSans-2c" transform="translate(999.496576 0.584375)"/>
      <use xlink:href="#DejaVuSans-20" transform="translate(1031.283685 0.584375)"/>
      <use xlink:href="#DejaVuSans-73" transform="translate(1063.070794 0.584375)"/>
      <use xlink:href="#DejaVuSans-5f" transform="translate(1115.170404 0.584375)"/>
      <use xlink:href="#DejaVuSans-74" transform="translate(1165.170404 0.584375)"/>
      <use xlink:href="#DejaVuSans-75" transform="translate(1204.379388 0.584375)"/>
      <use xlink:href="#DejaVuSans-6e" transform="translate(1267.758294 0.584375)"/>
      <use xlink:href="#DejaVuSans-3d" transform="translate(1331.137201 0.584375)"/>
      <use xlink:href="#DejaVuSans-31" transform="translate(1414.926263 0.584375)"/>
      <use xlink:href="#DejaVuSans-30" transform="translate(1478.54931 0.584375)"/>
      <use xlink:href="#DejaVuSans-30" transform="translate(1542.172357 0.584375)"/>
      <use xlink:href="#DejaVuSans-30" transform="translate(1605.795404 0.584375)"/>
      <use xlink:href="#DejaVuSans-30" transform="translate(1669.418451 0.584375)"/>
      <use xlink:href="#DejaVuSans-30" transform="translate(1733.041497 0.584375)"/>
      <use xlink:href="#DejaVuSans-30" transform="translate(1796.664544 0.584375)"/>
      <use xlink:href="#DejaVuSans-30" transform="translate(1860.287591 0.584375)"/>
      <use xlink:href="#DejaVuSans-30" transform="translate(1923.910638 0.584375)"/>
      <use xlink:href="#DejaVuSans-30" transform="translate(1987.533685 0.584375)"/>
      <use xlink:href="#DejaVuSans-30" transform="translate(2051.156732 0.584375)"/>
      <use xlink:href="#DejaVuSans-30" transform="translate(2114.779779 0.584375)"/>
      <use xlink:href="#DejaVuSans-30" transform="translate(2178.402826 0.584375)"/>
      <use xlink:href="#DejaVuSans-2e" transform="translate(2242.025872 0.584375)"/>
      <use xlink:href="#DejaVuSans-30" transform="translate(2273.812982 0.584375)"/>
      <use xlink:href="#DejaVuSans-Oblique-73" transform="translate(2337.436029 0.584375)"/>
      <use xlink:href="#DejaVuSans-2212" transform="translate(2407.823229 38.865625) scale(0.7)"/>
      <use xlink:href="#DejaVuSans-31" transform="translate(2482.847643 0.584375)"/>
     </g>
    </g>
   </g>
  </g>
 </g>
 <defs>
  <clipPath id="p3c00941fef">
   <rect x="57.6" y="41.472" width="357.12" height="266.112"/>
  </clipPath>
 </defs>
</svg>
