<?xml version="1.0" encoding="utf-8" standalone="no"?>
<!DOCTYPE svg PUBLIC "-//W3C//DTD SVG 1.1//EN"
  "http://www.w3.org/Graphics/SVG/1.1/DTD/svg11.dtd">
<svg xmlns:xlink="http://www.w3.org/1999/xlink" width="460.8pt" height="345.6pt" viewBox="0 0 460.8 345.6" xmlns="http://www.w3.org/2000/svg" version="1.1">
 <metadata>
  <rdf:RDF xmlns:dc="http://purl.org/dc/elements/1.1/" xmlns:cc="http://creativecommons.org/ns#" xmlns:rdf="http://www.w3.org/1999/02/22-rdf-syntax-ns#">
   <cc:Work>
    <dc:type rdf:resource="http://purl.org/dc/dcmitype/StillImage"/>
    <dc:date>2025-03-26T12:07:44.364041</dc:date>
    <dc:format>image/svg+xml</dc:format>
    <dc:creator>
     <cc:Agent>
      <dc:title>Matplotlib v3.10.0, https://matplotlib.org/</dc:title>
     </cc:Agent>
    </dc:creator>
   </cc:Work>
  </rdf:RDF>
 </metadata>
 <defs>
  <style type="text/css">*{stroke-linejoin: round; stroke-linecap: butt}</style>
 </defs>
 <g id="figure_1">
  <g id="patch_1">
   <path d="M 0 345.6 
L 460.8 345.6 
L 460.8 0 
L 0 0 
z
" style="fill: #ffffff"/>
  </g>
  <g id="axes_1">
   <g id="patch_2">
    <path d="M 57.6 307.584 
L 414.72 307.584 
L 414.72 41.472 
L 57.6 41.472 
z
" style="fill: #ffffff"/>
   </g>
   <g id="matplotlib.axis_1">
    <g id="xtick_1">
     <g id="line2d_1">
      <path d="M 129.024 307.584 
L 129.024 41.472 
" clip-path="url(#p1db4ad1d67)" style="fill: none; stroke: #b0b0b0; stroke-width: 0.8; stroke-linecap: square"/>
     </g>
     <g id="line2d_2">
      <defs>
       <path id="mcfd8b1a32e" d="M 0 0 
L 0 3.5 
" style="stroke: #000000; stroke-width: 0.8"/>
      </defs>
      <g>
       <use xlink:href="#mcfd8b1a32e" x="129.024" y="307.584" style="stroke: #000000; stroke-width: 0.8"/>
      </g>
     </g>
     <g id="text_1">
      <!-- 2e12 -->
      <g transform="translate(116.403688 322.182437) scale(0.1 -0.1)">
       <defs>
        <path id="DejaVuSans-32" d="M 1228 531 
L 3431 531 
L 3431 0 
L 469 0 
L 469 531 
Q 828 903 1448 1529 
Q 2069 2156 2228 2338 
Q 2531 2678 2651 2914 
Q 2772 3150 2772 3378 
Q 2772 3750 2511 3984 
Q 2250 4219 1831 4219 
Q 1534 4219 1204 4116 
Q 875 4013 500 3803 
L 500 4441 
Q 881 4594 1212 4672 
Q 1544 4750 1819 4750 
Q 2544 4750 2975 4387 
Q 3406 4025 3406 3419 
Q 3406 3131 3298 2873 
Q 3191 2616 2906 2266 
Q 2828 2175 2409 1742 
Q 1991 1309 1228 531 
z
" transform="scale(0.015625)"/>
        <path id="DejaVuSans-65" d="M 3597 1894 
L 3597 1613 
L 953 1613 
Q 991 1019 1311 708 
Q 1631 397 2203 397 
Q 2534 397 2845 478 
Q 3156 559 3463 722 
L 3463 178 
Q 3153 47 2828 -22 
Q 2503 -91 2169 -91 
Q 1331 -91 842 396 
Q 353 884 353 1716 
Q 353 2575 817 3079 
Q 1281 3584 2069 3584 
Q 2775 3584 3186 3129 
Q 3597 2675 3597 1894 
z
M 3022 2063 
Q 3016 2534 2758 2815 
Q 2500 3097 2075 3097 
Q 1594 3097 1305 2825 
Q 1016 2553 972 2059 
L 3022 2063 
z
" transform="scale(0.015625)"/>
        <path id="DejaVuSans-31" d="M 794 531 
L 1825 531 
L 1825 4091 
L 703 3866 
L 703 4441 
L 1819 4666 
L 2450 4666 
L 2450 531 
L 3481 531 
L 3481 0 
L 794 0 
L 794 531 
z
" transform="scale(0.015625)"/>
       </defs>
       <use xlink:href="#DejaVuSans-32"/>
       <use xlink:href="#DejaVuSans-65" transform="translate(63.623047 0)"/>
       <use xlink:href="#DejaVuSans-31" transform="translate(125.146484 0)"/>
       <use xlink:href="#DejaVuSans-32" transform="translate(188.769531 0)"/>
      </g>
     </g>
    </g>
    <g id="xtick_2">
     <g id="line2d_3">
      <path d="M 200.448 307.584 
L 200.448 41.472 
" clip-path="url(#p1db4ad1d67)" style="fill: none; stroke: #b0b0b0; stroke-width: 0.8; stroke-linecap: square"/>
     </g>
     <g id="line2d_4">
      <g>
       <use xlink:href="#mcfd8b1a32e" x="200.448" y="307.584" style="stroke: #000000; stroke-width: 0.8"/>
      </g>
     </g>
     <g id="text_2">
      <!-- 4e12 -->
      <g transform="translate(187.827687 322.182437) scale(0.1 -0.1)">
       <defs>
        <path id="DejaVuSans-34" d="M 2419 4116 
L 825 1625 
L 2419 1625 
L 2419 4116 
z
M 2253 4666 
L 3047 4666 
L 3047 1625 
L 3713 1625 
L 3713 1100 
L 3047 1100 
L 3047 0 
L 2419 0 
L 2419 1100 
L 313 1100 
L 313 1709 
L 2253 4666 
z
" transform="scale(0.015625)"/>
       </defs>
       <use xlink:href="#DejaVuSans-34"/>
       <use xlink:href="#DejaVuSans-65" transform="translate(63.623047 0)"/>
       <use xlink:href="#DejaVuSans-31" transform="translate(125.146484 0)"/>
       <use xlink:href="#DejaVuSans-32" transform="translate(188.769531 0)"/>
      </g>
     </g>
    </g>
    <g id="xtick_3">
     <g id="line2d_5">
      <path d="M 271.872 307.584 
L 271.872 41.472 
" clip-path="url(#p1db4ad1d67)" style="fill: none; stroke: #b0b0b0; stroke-width: 0.8; stroke-linecap: square"/>
     </g>
     <g id="line2d_6">
      <g>
       <use xlink:href="#mcfd8b1a32e" x="271.872" y="307.584" style="stroke: #000000; stroke-width: 0.8"/>
      </g>
     </g>
     <g id="text_3">
      <!-- 6e12 -->
      <g transform="translate(259.251688 322.182437) scale(0.1 -0.1)">
       <defs>
        <path id="DejaVuSans-36" d="M 2113 2584 
Q 1688 2584 1439 2293 
Q 1191 2003 1191 1497 
Q 1191 994 1439 701 
Q 1688 409 2113 409 
Q 2538 409 2786 701 
Q 3034 994 3034 1497 
Q 3034 2003 2786 2293 
Q 2538 2584 2113 2584 
z
M 3366 4563 
L 3366 3988 
Q 3128 4100 2886 4159 
Q 2644 4219 2406 4219 
Q 1781 4219 1451 3797 
Q 1122 3375 1075 2522 
Q 1259 2794 1537 2939 
Q 1816 3084 2150 3084 
Q 2853 3084 3261 2657 
Q 3669 2231 3669 1497 
Q 3669 778 3244 343 
Q 2819 -91 2113 -91 
Q 1303 -91 875 529 
Q 447 1150 447 2328 
Q 447 3434 972 4092 
Q 1497 4750 2381 4750 
Q 2619 4750 2861 4703 
Q 3103 4656 3366 4563 
z
" transform="scale(0.015625)"/>
       </defs>
       <use xlink:href="#DejaVuSans-36"/>
       <use xlink:href="#DejaVuSans-65" transform="translate(63.623047 0)"/>
       <use xlink:href="#DejaVuSans-31" transform="translate(125.146484 0)"/>
       <use xlink:href="#DejaVuSans-32" transform="translate(188.769531 0)"/>
      </g>
     </g>
    </g>
    <g id="xtick_4">
     <g id="line2d_7">
      <path d="M 343.296 307.584 
L 343.296 41.472 
" clip-path="url(#p1db4ad1d67)" style="fill: none; stroke: #b0b0b0; stroke-width: 0.8; stroke-linecap: square"/>
     </g>
     <g id="line2d_8">
      <g>
       <use xlink:href="#mcfd8b1a32e" x="343.296" y="307.584" style="stroke: #000000; stroke-width: 0.8"/>
      </g>
     </g>
     <g id="text_4">
      <!-- 8e12 -->
      <g transform="translate(330.675688 322.182437) scale(0.1 -0.1)">
       <defs>
        <path id="DejaVuSans-38" d="M 2034 2216 
Q 1584 2216 1326 1975 
Q 1069 1734 1069 1313 
Q 1069 891 1326 650 
Q 1584 409 2034 409 
Q 2484 409 2743 651 
Q 3003 894 3003 1313 
Q 3003 1734 2745 1975 
Q 2488 2216 2034 2216 
z
M 1403 2484 
Q 997 2584 770 2862 
Q 544 3141 544 3541 
Q 544 4100 942 4425 
Q 1341 4750 2034 4750 
Q 2731 4750 3128 4425 
Q 3525 4100 3525 3541 
Q 3525 3141 3298 2862 
Q 3072 2584 2669 2484 
Q 3125 2378 3379 2068 
Q 3634 1759 3634 1313 
Q 3634 634 3220 271 
Q 2806 -91 2034 -91 
Q 1263 -91 848 271 
Q 434 634 434 1313 
Q 434 1759 690 2068 
Q 947 2378 1403 2484 
z
M 1172 3481 
Q 1172 3119 1398 2916 
Q 1625 2713 2034 2713 
Q 2441 2713 2670 2916 
Q 2900 3119 2900 3481 
Q 2900 3844 2670 4047 
Q 2441 4250 2034 4250 
Q 1625 4250 1398 4047 
Q 1172 3844 1172 3481 
z
" transform="scale(0.015625)"/>
       </defs>
       <use xlink:href="#DejaVuSans-38"/>
       <use xlink:href="#DejaVuSans-65" transform="translate(63.623047 0)"/>
       <use xlink:href="#DejaVuSans-31" transform="translate(125.146484 0)"/>
       <use xlink:href="#DejaVuSans-32" transform="translate(188.769531 0)"/>
      </g>
     </g>
    </g>
    <g id="xtick_5">
     <g id="line2d_9">
      <path d="M 414.72 307.584 
L 414.72 41.472 
" clip-path="url(#p1db4ad1d67)" style="fill: none; stroke: #b0b0b0; stroke-width: 0.8; stroke-linecap: square"/>
     </g>
     <g id="line2d_10">
      <g>
       <use xlink:href="#mcfd8b1a32e" x="414.72" y="307.584" style="stroke: #000000; stroke-width: 0.8"/>
      </g>
     </g>
     <g id="text_5">
      <!-- 1e13 -->
      <g transform="translate(402.099688 322.182437) scale(0.1 -0.1)">
       <defs>
        <path id="DejaVuSans-33" d="M 2597 2516 
Q 3050 2419 3304 2112 
Q 3559 1806 3559 1356 
Q 3559 666 3084 287 
Q 2609 -91 1734 -91 
Q 1441 -91 1130 -33 
Q 819 25 488 141 
L 488 750 
Q 750 597 1062 519 
Q 1375 441 1716 441 
Q 2309 441 2620 675 
Q 2931 909 2931 1356 
Q 2931 1769 2642 2001 
Q 2353 2234 1838 2234 
L 1294 2234 
L 1294 2753 
L 1863 2753 
Q 2328 2753 2575 2939 
Q 2822 3125 2822 3475 
Q 2822 3834 2567 4026 
Q 2313 4219 1838 4219 
Q 1578 4219 1281 4162 
Q 984 4106 628 3988 
L 628 4550 
Q 988 4650 1302 4700 
Q 1616 4750 1894 4750 
Q 2613 4750 3031 4423 
Q 3450 4097 3450 3541 
Q 3450 3153 3228 2886 
Q 3006 2619 2597 2516 
z
" transform="scale(0.015625)"/>
       </defs>
       <use xlink:href="#DejaVuSans-31"/>
       <use xlink:href="#DejaVuSans-65" transform="translate(63.623047 0)"/>
       <use xlink:href="#DejaVuSans-31" transform="translate(125.146484 0)"/>
       <use xlink:href="#DejaVuSans-33" transform="translate(188.769531 0)"/>
      </g>
     </g>
    </g>
    <g id="text_6">
     <!-- Irradiation time (s) -->
     <g transform="translate(189.412344 335.860562) scale(0.1 -0.1)">
      <defs>
       <path id="DejaVuSans-49" d="M 628 4666 
L 1259 4666 
L 1259 0 
L 628 0 
L 628 4666 
z
" transform="scale(0.015625)"/>
       <path id="DejaVuSans-72" d="M 2631 2963 
Q 2534 3019 2420 3045 
Q 2306 3072 2169 3072 
Q 1681 3072 1420 2755 
Q 1159 2438 1159 1844 
L 1159 0 
L 581 0 
L 581 3500 
L 1159 3500 
L 1159 2956 
Q 1341 3275 1631 3429 
Q 1922 3584 2338 3584 
Q 2397 3584 2469 3576 
Q 2541 3569 2628 3553 
L 2631 2963 
z
" transform="scale(0.015625)"/>
       <path id="DejaVuSans-61" d="M 2194 1759 
Q 1497 1759 1228 1600 
Q 959 1441 959 1056 
Q 959 750 1161 570 
Q 1363 391 1709 391 
Q 2188 391 2477 730 
Q 2766 1069 2766 1631 
L 2766 1759 
L 2194 1759 
z
M 3341 1997 
L 3341 0 
L 2766 0 
L 2766 531 
Q 2569 213 2275 61 
Q 1981 -91 1556 -91 
Q 1019 -91 701 211 
Q 384 513 384 1019 
Q 384 1609 779 1909 
Q 1175 2209 1959 2209 
L 2766 2209 
L 2766 2266 
Q 2766 2663 2505 2880 
Q 2244 3097 1772 3097 
Q 1472 3097 1187 3025 
Q 903 2953 641 2809 
L 641 3341 
Q 956 3463 1253 3523 
Q 1550 3584 1831 3584 
Q 2591 3584 2966 3190 
Q 3341 2797 3341 1997 
z
" transform="scale(0.015625)"/>
       <path id="DejaVuSans-64" d="M 2906 2969 
L 2906 4863 
L 3481 4863 
L 3481 0 
L 2906 0 
L 2906 525 
Q 2725 213 2448 61 
Q 2172 -91 1784 -91 
Q 1150 -91 751 415 
Q 353 922 353 1747 
Q 353 2572 751 3078 
Q 1150 3584 1784 3584 
Q 2172 3584 2448 3432 
Q 2725 3281 2906 2969 
z
M 947 1747 
Q 947 1113 1208 752 
Q 1469 391 1925 391 
Q 2381 391 2643 752 
Q 2906 1113 2906 1747 
Q 2906 2381 2643 2742 
Q 2381 3103 1925 3103 
Q 1469 3103 1208 2742 
Q 947 2381 947 1747 
z
" transform="scale(0.015625)"/>
       <path id="DejaVuSans-69" d="M 603 3500 
L 1178 3500 
L 1178 0 
L 603 0 
L 603 3500 
z
M 603 4863 
L 1178 4863 
L 1178 4134 
L 603 4134 
L 603 4863 
z
" transform="scale(0.015625)"/>
       <path id="DejaVuSans-74" d="M 1172 4494 
L 1172 3500 
L 2356 3500 
L 2356 3053 
L 1172 3053 
L 1172 1153 
Q 1172 725 1289 603 
Q 1406 481 1766 481 
L 2356 481 
L 2356 0 
L 1766 0 
Q 1100 0 847 248 
Q 594 497 594 1153 
L 594 3053 
L 172 3053 
L 172 3500 
L 594 3500 
L 594 4494 
L 1172 4494 
z
" transform="scale(0.015625)"/>
       <path id="DejaVuSans-6f" d="M 1959 3097 
Q 1497 3097 1228 2736 
Q 959 2375 959 1747 
Q 959 1119 1226 758 
Q 1494 397 1959 397 
Q 2419 397 2687 759 
Q 2956 1122 2956 1747 
Q 2956 2369 2687 2733 
Q 2419 3097 1959 3097 
z
M 1959 3584 
Q 2709 3584 3137 3096 
Q 3566 2609 3566 1747 
Q 3566 888 3137 398 
Q 2709 -91 1959 -91 
Q 1206 -91 779 398 
Q 353 888 353 1747 
Q 353 2609 779 3096 
Q 1206 3584 1959 3584 
z
" transform="scale(0.015625)"/>
       <path id="DejaVuSans-6e" d="M 3513 2113 
L 3513 0 
L 2938 0 
L 2938 2094 
Q 2938 2591 2744 2837 
Q 2550 3084 2163 3084 
Q 1697 3084 1428 2787 
Q 1159 2491 1159 1978 
L 1159 0 
L 581 0 
L 581 3500 
L 1159 3500 
L 1159 2956 
Q 1366 3272 1645 3428 
Q 1925 3584 2291 3584 
Q 2894 3584 3203 3211 
Q 3513 2838 3513 2113 
z
" transform="scale(0.015625)"/>
       <path id="DejaVuSans-20" transform="scale(0.015625)"/>
       <path id="DejaVuSans-6d" d="M 3328 2828 
Q 3544 3216 3844 3400 
Q 4144 3584 4550 3584 
Q 5097 3584 5394 3201 
Q 5691 2819 5691 2113 
L 5691 0 
L 5113 0 
L 5113 2094 
Q 5113 2597 4934 2840 
Q 4756 3084 4391 3084 
Q 3944 3084 3684 2787 
Q 3425 2491 3425 1978 
L 3425 0 
L 2847 0 
L 2847 2094 
Q 2847 2600 2669 2842 
Q 2491 3084 2119 3084 
Q 1678 3084 1418 2786 
Q 1159 2488 1159 1978 
L 1159 0 
L 581 0 
L 581 3500 
L 1159 3500 
L 1159 2956 
Q 1356 3278 1631 3431 
Q 1906 3584 2284 3584 
Q 2666 3584 2933 3390 
Q 3200 3197 3328 2828 
z
" transform="scale(0.015625)"/>
       <path id="DejaVuSans-28" d="M 1984 4856 
Q 1566 4138 1362 3434 
Q 1159 2731 1159 2009 
Q 1159 1288 1364 580 
Q 1569 -128 1984 -844 
L 1484 -844 
Q 1016 -109 783 600 
Q 550 1309 550 2009 
Q 550 2706 781 3412 
Q 1013 4119 1484 4856 
L 1984 4856 
z
" transform="scale(0.015625)"/>
       <path id="DejaVuSans-73" d="M 2834 3397 
L 2834 2853 
Q 2591 2978 2328 3040 
Q 2066 3103 1784 3103 
Q 1356 3103 1142 2972 
Q 928 2841 928 2578 
Q 928 2378 1081 2264 
Q 1234 2150 1697 2047 
L 1894 2003 
Q 2506 1872 2764 1633 
Q 3022 1394 3022 966 
Q 3022 478 2636 193 
Q 2250 -91 1575 -91 
Q 1294 -91 989 -36 
Q 684 19 347 128 
L 347 722 
Q 666 556 975 473 
Q 1284 391 1588 391 
Q 1994 391 2212 530 
Q 2431 669 2431 922 
Q 2431 1156 2273 1281 
Q 2116 1406 1581 1522 
L 1381 1569 
Q 847 1681 609 1914 
Q 372 2147 372 2553 
Q 372 3047 722 3315 
Q 1072 3584 1716 3584 
Q 2034 3584 2315 3537 
Q 2597 3491 2834 3397 
z
" transform="scale(0.015625)"/>
       <path id="DejaVuSans-29" d="M 513 4856 
L 1013 4856 
Q 1481 4119 1714 3412 
Q 1947 2706 1947 2009 
Q 1947 1309 1714 600 
Q 1481 -109 1013 -844 
L 513 -844 
Q 928 -128 1133 580 
Q 1338 1288 1338 2009 
Q 1338 2731 1133 3434 
Q 928 4138 513 4856 
z
" transform="scale(0.015625)"/>
      </defs>
      <use xlink:href="#DejaVuSans-49"/>
      <use xlink:href="#DejaVuSans-72" transform="translate(29.492188 0)"/>
      <use xlink:href="#DejaVuSans-72" transform="translate(68.855469 0)"/>
      <use xlink:href="#DejaVuSans-61" transform="translate(109.96875 0)"/>
      <use xlink:href="#DejaVuSans-64" transform="translate(171.248047 0)"/>
      <use xlink:href="#DejaVuSans-69" transform="translate(234.724609 0)"/>
      <use xlink:href="#DejaVuSans-61" transform="translate(262.507812 0)"/>
      <use xlink:href="#DejaVuSans-74" transform="translate(323.787109 0)"/>
      <use xlink:href="#DejaVuSans-69" transform="translate(362.996094 0)"/>
      <use xlink:href="#DejaVuSans-6f" transform="translate(390.779297 0)"/>
      <use xlink:href="#DejaVuSans-6e" transform="translate(451.960938 0)"/>
      <use xlink:href="#DejaVuSans-20" transform="translate(515.339844 0)"/>
      <use xlink:href="#DejaVuSans-74" transform="translate(547.126953 0)"/>
      <use xlink:href="#DejaVuSans-69" transform="translate(586.335938 0)"/>
      <use xlink:href="#DejaVuSans-6d" transform="translate(614.119141 0)"/>
      <use xlink:href="#DejaVuSans-65" transform="translate(711.53125 0)"/>
      <use xlink:href="#DejaVuSans-20" transform="translate(773.054688 0)"/>
      <use xlink:href="#DejaVuSans-28" transform="translate(804.841797 0)"/>
      <use xlink:href="#DejaVuSans-73" transform="translate(843.855469 0)"/>
      <use xlink:href="#DejaVuSans-29" transform="translate(895.955078 0)"/>
     </g>
    </g>
   </g>
   <g id="matplotlib.axis_2">
    <g id="ytick_1">
     <g id="line2d_11">
      <path d="M 57.6 307.584 
L 414.72 307.584 
" clip-path="url(#p1db4ad1d67)" style="fill: none; stroke: #b0b0b0; stroke-width: 0.8; stroke-linecap: square"/>
     </g>
     <g id="line2d_12">
      <defs>
       <path id="m1375c17911" d="M 0 0 
L -3.5 0 
" style="stroke: #000000; stroke-width: 0.8"/>
      </defs>
      <g>
       <use xlink:href="#m1375c17911" x="57.6" y="307.584" style="stroke: #000000; stroke-width: 0.8"/>
      </g>
     </g>
     <g id="text_7">
      <!-- 0.0 -->
      <g transform="translate(34.696875 311.383219) scale(0.1 -0.1)">
       <defs>
        <path id="DejaVuSans-30" d="M 2034 4250 
Q 1547 4250 1301 3770 
Q 1056 3291 1056 2328 
Q 1056 1369 1301 889 
Q 1547 409 2034 409 
Q 2525 409 2770 889 
Q 3016 1369 3016 2328 
Q 3016 3291 2770 3770 
Q 2525 4250 2034 4250 
z
M 2034 4750 
Q 2819 4750 3233 4129 
Q 3647 3509 3647 2328 
Q 3647 1150 3233 529 
Q 2819 -91 2034 -91 
Q 1250 -91 836 529 
Q 422 1150 422 2328 
Q 422 3509 836 4129 
Q 1250 4750 2034 4750 
z
" transform="scale(0.015625)"/>
        <path id="DejaVuSans-2e" d="M 684 794 
L 1344 794 
L 1344 0 
L 684 0 
L 684 794 
z
" transform="scale(0.015625)"/>
       </defs>
       <use xlink:href="#DejaVuSans-30"/>
       <use xlink:href="#DejaVuSans-2e" transform="translate(63.623047 0)"/>
       <use xlink:href="#DejaVuSans-30" transform="translate(95.410156 0)"/>
      </g>
     </g>
    </g>
    <g id="ytick_2">
     <g id="line2d_13">
      <path d="M 57.6 272.1024 
L 414.72 272.1024 
" clip-path="url(#p1db4ad1d67)" style="fill: none; stroke: #b0b0b0; stroke-width: 0.8; stroke-linecap: square"/>
     </g>
     <g id="line2d_14">
      <g>
       <use xlink:href="#m1375c17911" x="57.6" y="272.1024" style="stroke: #000000; stroke-width: 0.8"/>
      </g>
     </g>
     <g id="text_8">
      <!-- 0.1 -->
      <g transform="translate(34.696875 275.901619) scale(0.1 -0.1)">
       <use xlink:href="#DejaVuSans-30"/>
       <use xlink:href="#DejaVuSans-2e" transform="translate(63.623047 0)"/>
       <use xlink:href="#DejaVuSans-31" transform="translate(95.410156 0)"/>
      </g>
     </g>
    </g>
    <g id="ytick_3">
     <g id="line2d_15">
      <path d="M 57.6 236.6208 
L 414.72 236.6208 
" clip-path="url(#p1db4ad1d67)" style="fill: none; stroke: #b0b0b0; stroke-width: 0.8; stroke-linecap: square"/>
     </g>
     <g id="line2d_16">
      <g>
       <use xlink:href="#m1375c17911" x="57.6" y="236.6208" style="stroke: #000000; stroke-width: 0.8"/>
      </g>
     </g>
     <g id="text_9">
      <!-- 0.2 -->
      <g transform="translate(34.696875 240.420019) scale(0.1 -0.1)">
       <use xlink:href="#DejaVuSans-30"/>
       <use xlink:href="#DejaVuSans-2e" transform="translate(63.623047 0)"/>
       <use xlink:href="#DejaVuSans-32" transform="translate(95.410156 0)"/>
      </g>
     </g>
    </g>
    <g id="ytick_4">
     <g id="line2d_17">
      <path d="M 57.6 201.1392 
L 414.72 201.1392 
" clip-path="url(#p1db4ad1d67)" style="fill: none; stroke: #b0b0b0; stroke-width: 0.8; stroke-linecap: square"/>
     </g>
     <g id="line2d_18">
      <g>
       <use xlink:href="#m1375c17911" x="57.6" y="201.1392" style="stroke: #000000; stroke-width: 0.8"/>
      </g>
     </g>
     <g id="text_10">
      <!-- 0.3 -->
      <g transform="translate(34.696875 204.938419) scale(0.1 -0.1)">
       <use xlink:href="#DejaVuSans-30"/>
       <use xlink:href="#DejaVuSans-2e" transform="translate(63.623047 0)"/>
       <use xlink:href="#DejaVuSans-33" transform="translate(95.410156 0)"/>
      </g>
     </g>
    </g>
    <g id="ytick_5">
     <g id="line2d_19">
      <path d="M 57.6 165.6576 
L 414.72 165.6576 
" clip-path="url(#p1db4ad1d67)" style="fill: none; stroke: #b0b0b0; stroke-width: 0.8; stroke-linecap: square"/>
     </g>
     <g id="line2d_20">
      <g>
       <use xlink:href="#m1375c17911" x="57.6" y="165.6576" style="stroke: #000000; stroke-width: 0.8"/>
      </g>
     </g>
     <g id="text_11">
      <!-- 0.4 -->
      <g transform="translate(34.696875 169.456819) scale(0.1 -0.1)">
       <use xlink:href="#DejaVuSans-30"/>
       <use xlink:href="#DejaVuSans-2e" transform="translate(63.623047 0)"/>
       <use xlink:href="#DejaVuSans-34" transform="translate(95.410156 0)"/>
      </g>
     </g>
    </g>
    <g id="ytick_6">
     <g id="line2d_21">
      <path d="M 57.6 130.176 
L 414.72 130.176 
" clip-path="url(#p1db4ad1d67)" style="fill: none; stroke: #b0b0b0; stroke-width: 0.8; stroke-linecap: square"/>
     </g>
     <g id="line2d_22">
      <g>
       <use xlink:href="#m1375c17911" x="57.6" y="130.176" style="stroke: #000000; stroke-width: 0.8"/>
      </g>
     </g>
     <g id="text_12">
      <!-- 0.5 -->
      <g transform="translate(34.696875 133.975219) scale(0.1 -0.1)">
       <defs>
        <path id="DejaVuSans-35" d="M 691 4666 
L 3169 4666 
L 3169 4134 
L 1269 4134 
L 1269 2991 
Q 1406 3038 1543 3061 
Q 1681 3084 1819 3084 
Q 2600 3084 3056 2656 
Q 3513 2228 3513 1497 
Q 3513 744 3044 326 
Q 2575 -91 1722 -91 
Q 1428 -91 1123 -41 
Q 819 9 494 109 
L 494 744 
Q 775 591 1075 516 
Q 1375 441 1709 441 
Q 2250 441 2565 725 
Q 2881 1009 2881 1497 
Q 2881 1984 2565 2268 
Q 2250 2553 1709 2553 
Q 1456 2553 1204 2497 
Q 953 2441 691 2322 
L 691 4666 
z
" transform="scale(0.015625)"/>
       </defs>
       <use xlink:href="#DejaVuSans-30"/>
       <use xlink:href="#DejaVuSans-2e" transform="translate(63.623047 0)"/>
       <use xlink:href="#DejaVuSans-35" transform="translate(95.410156 0)"/>
      </g>
     </g>
    </g>
    <g id="ytick_7">
     <g id="line2d_23">
      <path d="M 57.6 94.6944 
L 414.72 94.6944 
" clip-path="url(#p1db4ad1d67)" style="fill: none; stroke: #b0b0b0; stroke-width: 0.8; stroke-linecap: square"/>
     </g>
     <g id="line2d_24">
      <g>
       <use xlink:href="#m1375c17911" x="57.6" y="94.6944" style="stroke: #000000; stroke-width: 0.8"/>
      </g>
     </g>
     <g id="text_13">
      <!-- 0.6 -->
      <g transform="translate(34.696875 98.493619) scale(0.1 -0.1)">
       <use xlink:href="#DejaVuSans-30"/>
       <use xlink:href="#DejaVuSans-2e" transform="translate(63.623047 0)"/>
       <use xlink:href="#DejaVuSans-36" transform="translate(95.410156 0)"/>
      </g>
     </g>
    </g>
    <g id="ytick_8">
     <g id="line2d_25">
      <path d="M 57.6 59.2128 
L 414.72 59.2128 
" clip-path="url(#p1db4ad1d67)" style="fill: none; stroke: #b0b0b0; stroke-width: 0.8; stroke-linecap: square"/>
     </g>
     <g id="line2d_26">
      <g>
       <use xlink:href="#m1375c17911" x="57.6" y="59.2128" style="stroke: #000000; stroke-width: 0.8"/>
      </g>
     </g>
     <g id="text_14">
      <!-- 0.7 -->
      <g transform="translate(34.696875 63.012019) scale(0.1 -0.1)">
       <defs>
        <path id="DejaVuSans-37" d="M 525 4666 
L 3525 4666 
L 3525 4397 
L 1831 0 
L 1172 0 
L 2766 4134 
L 525 4134 
L 525 4666 
z
" transform="scale(0.015625)"/>
       </defs>
       <use xlink:href="#DejaVuSans-30"/>
       <use xlink:href="#DejaVuSans-2e" transform="translate(63.623047 0)"/>
       <use xlink:href="#DejaVuSans-37" transform="translate(95.410156 0)"/>
      </g>
     </g>
    </g>
    <g id="text_15">
     <!-- Percent of filled traps -->
     <g transform="translate(28.617187 227.95925) rotate(-90) scale(0.1 -0.1)">
      <defs>
       <path id="DejaVuSans-50" d="M 1259 4147 
L 1259 2394 
L 2053 2394 
Q 2494 2394 2734 2622 
Q 2975 2850 2975 3272 
Q 2975 3691 2734 3919 
Q 2494 4147 2053 4147 
L 1259 4147 
z
M 628 4666 
L 2053 4666 
Q 2838 4666 3239 4311 
Q 3641 3956 3641 3272 
Q 3641 2581 3239 2228 
Q 2838 1875 2053 1875 
L 1259 1875 
L 1259 0 
L 628 0 
L 628 4666 
z
" transform="scale(0.015625)"/>
       <path id="DejaVuSans-63" d="M 3122 3366 
L 3122 2828 
Q 2878 2963 2633 3030 
Q 2388 3097 2138 3097 
Q 1578 3097 1268 2742 
Q 959 2388 959 1747 
Q 959 1106 1268 751 
Q 1578 397 2138 397 
Q 2388 397 2633 464 
Q 2878 531 3122 666 
L 3122 134 
Q 2881 22 2623 -34 
Q 2366 -91 2075 -91 
Q 1284 -91 818 406 
Q 353 903 353 1747 
Q 353 2603 823 3093 
Q 1294 3584 2113 3584 
Q 2378 3584 2631 3529 
Q 2884 3475 3122 3366 
z
" transform="scale(0.015625)"/>
       <path id="DejaVuSans-66" d="M 2375 4863 
L 2375 4384 
L 1825 4384 
Q 1516 4384 1395 4259 
Q 1275 4134 1275 3809 
L 1275 3500 
L 2222 3500 
L 2222 3053 
L 1275 3053 
L 1275 0 
L 697 0 
L 697 3053 
L 147 3053 
L 147 3500 
L 697 3500 
L 697 3744 
Q 697 4328 969 4595 
Q 1241 4863 1831 4863 
L 2375 4863 
z
" transform="scale(0.015625)"/>
       <path id="DejaVuSans-6c" d="M 603 4863 
L 1178 4863 
L 1178 0 
L 603 0 
L 603 4863 
z
" transform="scale(0.015625)"/>
       <path id="DejaVuSans-70" d="M 1159 525 
L 1159 -1331 
L 581 -1331 
L 581 3500 
L 1159 3500 
L 1159 2969 
Q 1341 3281 1617 3432 
Q 1894 3584 2278 3584 
Q 2916 3584 3314 3078 
Q 3713 2572 3713 1747 
Q 3713 922 3314 415 
Q 2916 -91 2278 -91 
Q 1894 -91 1617 61 
Q 1341 213 1159 525 
z
M 3116 1747 
Q 3116 2381 2855 2742 
Q 2594 3103 2138 3103 
Q 1681 3103 1420 2742 
Q 1159 2381 1159 1747 
Q 1159 1113 1420 752 
Q 1681 391 2138 391 
Q 2594 391 2855 752 
Q 3116 1113 3116 1747 
z
" transform="scale(0.015625)"/>
      </defs>
      <use xlink:href="#DejaVuSans-50"/>
      <use xlink:href="#DejaVuSans-65" transform="translate(56.677734 0)"/>
      <use xlink:href="#DejaVuSans-72" transform="translate(118.201172 0)"/>
      <use xlink:href="#DejaVuSans-63" transform="translate(157.064453 0)"/>
      <use xlink:href="#DejaVuSans-65" transform="translate(212.044922 0)"/>
      <use xlink:href="#DejaVuSans-6e" transform="translate(273.568359 0)"/>
      <use xlink:href="#DejaVuSans-74" transform="translate(336.947266 0)"/>
      <use xlink:href="#DejaVuSans-20" transform="translate(376.15625 0)"/>
      <use xlink:href="#DejaVuSans-6f" transform="translate(407.943359 0)"/>
      <use xlink:href="#DejaVuSans-66" transform="translate(469.125 0)"/>
      <use xlink:href="#DejaVuSans-20" transform="translate(504.330078 0)"/>
      <use xlink:href="#DejaVuSans-66" transform="translate(536.117188 0)"/>
      <use xlink:href="#DejaVuSans-69" transform="translate(571.322266 0)"/>
      <use xlink:href="#DejaVuSans-6c" transform="translate(599.105469 0)"/>
      <use xlink:href="#DejaVuSans-6c" transform="translate(626.888672 0)"/>
      <use xlink:href="#DejaVuSans-65" transform="translate(654.671875 0)"/>
      <use xlink:href="#DejaVuSans-64" transform="translate(716.195312 0)"/>
      <use xlink:href="#DejaVuSans-20" transform="translate(779.671875 0)"/>
      <use xlink:href="#DejaVuSans-74" transform="translate(811.458984 0)"/>
      <use xlink:href="#DejaVuSans-72" transform="translate(850.667969 0)"/>
      <use xlink:href="#DejaVuSans-61" transform="translate(891.78125 0)"/>
      <use xlink:href="#DejaVuSans-70" transform="translate(953.060547 0)"/>
      <use xlink:href="#DejaVuSans-73" transform="translate(1016.537109 0)"/>
     </g>
    </g>
   </g>
   <g id="line2d_27">
    <path d="M 66.134992 299.60064 
L 67.868164 298.536192 
L 67.868164 297.82656 
L 71.352375 296.407296 
L 72.11892 295.697664 
L 73.103507 295.342848 
L 73.103507 294.633216 
L 76.60577 293.213952 
L 78.366023 292.149504 
L 78.366023 291.439872 
L 85.471934 287.18208 
L 85.471934 285.762816 
L 89.067343 283.63392 
L 92.691695 282.214656 
L 94.518552 281.150208 
L 94.518552 280.08576 
L 96.355337 279.021312 
L 96.355337 278.31168 
L 103.732699 275.473152 
L 103.732699 274.76352 
L 107.467157 274.053888 
L 107.467157 273.699072 
L 109.344759 273.344256 
L 109.344759 271.924992 
L 116.855285 269.086464 
L 120.663411 266.957568 
L 120.663411 265.89312 
L 122.583686 264.828672 
L 122.583686 263.764224 
L 124.503962 262.699776 
L 126.424237 261.990144 
L 130.297833 259.861248 
L 134.21634 257.02272 
L 134.21634 255.603456 
L 140.157238 252.410112 
L 142.157051 251.70048 
L 144.168768 250.636032 
L 144.168768 249.9264 
L 148.216294 248.507136 
L 148.216294 247.797504 
L 150.252249 247.087872 
L 150.252249 246.023424 
L 152.288203 244.958976 
L 154.324158 244.426752 
L 158.433235 242.652672 
L 162.592886 240.16896 
L 162.592886 239.28192 
L 166.778294 237.50784 
L 170.98978 236.443392 
L 170.98978 235.378944 
L 175.240955 233.250048 
L 175.240955 232.1856 
L 181.671702 228.992256 
L 183.838167 228.282624 
L 186.018608 227.218176 
L 188.213209 226.508544 
L 188.213209 225.798912 
L 190.422153 225.08928 
L 190.422153 224.379648 
L 192.631097 223.670016 
L 192.631097 222.960384 
L 197.048985 221.54112 
L 201.510664 219.412224 
L 203.763787 217.99296 
L 203.763787 216.573696 
L 217.528621 208.058112 
L 219.875624 206.638848 
L 224.6191 204.509952 
L 224.6191 203.445504 
L 229.412978 201.316608 
L 229.412978 200.25216 
L 231.827039 199.187712 
L 236.672527 196.349184 
L 239.121574 195.284736 
L 249.099181 189.60768 
L 249.099181 188.543232 
L 254.181414 186.414336 
L 259.321693 184.995072 
L 259.321693 184.28544 
L 264.521207 182.866176 
L 264.521207 182.51136 
L 267.141118 182.156544 
L 267.141118 181.801728 
L 272.380939 181.092096 
L 272.380939 180.73728 
L 275.021317 180.382464 
L 275.021317 180.027648 
L 280.302075 179.318016 
L 280.302075 178.608384 
L 282.963244 178.253568 
L 282.963244 177.543936 
L 285.624412 176.834304 
L 288.285581 176.479488 
L 290.967871 175.769856 
L 290.967871 175.060224 
L 296.375366 172.931328 
L 296.375366 171.86688 
L 299.100918 171.157248 
L 301.82647 170.0928 
L 307.344414 168.673536 
L 310.137542 167.609088 
L 310.137542 166.54464 
L 312.953946 165.835008 
L 312.953946 165.125376 
L 321.426824 164.060928 
L 321.426824 163.706112 
L 324.290964 162.99648 
L 324.290964 162.286848 
L 327.155103 161.577216 
L 327.155103 160.867584 
L 330.019243 159.803136 
L 332.883382 159.093504 
L 338.685523 156.964608 
L 344.589014 154.12608 
L 344.589014 152.706816 
L 356.633093 147.02976 
L 359.705534 145.25568 
L 365.935499 142.417152 
L 372.282465 140.288256 
L 375.501212 139.578624 
L 375.501212 138.868992 
L 378.750908 138.15936 
L 378.750908 137.449728 
L 382.000605 136.740096 
L 382.000605 136.030464 
L 385.250302 134.966016 
L 388.499998 134.256384 
L 395.094662 132.127488 
L 401.820569 129.28896 
L 401.820569 127.869696 
L 415.581083 123.611904 
L 419.101588 122.19264 
L 419.101588 121.3056 
L 422.65915 120.41856 
L 433.446191 118.821888 
L 433.446191 118.289664 
L 437.119762 117.75744 
L 437.119762 117.580032 
L 440.753831 117.402624 
L 444.3879 117.75744 
L 444.3879 117.580032 
L 448.06147 117.402624 
L 448.06147 116.8704 
L 451.735041 116.338176 
L 451.735041 115.805952 
L 459.04268 114.741504 
L 461.8 114.075707 
L 461.8 114.075707 
" clip-path="url(#p1db4ad1d67)" style="fill: none; stroke-dasharray: 1.85,0.8; stroke-dashoffset: 0; stroke: #8000ff; stroke-width: 0.5"/>
   </g>
   <g id="line2d_28">
    <path d="M 66.134992 300.665088 
L 66.134992 299.60064 
L 67.868164 298.536192 
L 67.868164 297.471744 
L 71.334507 295.342848 
L 78.357465 289.665792 
L 81.924439 287.891712 
L 83.722144 287.359488 
L 83.722144 286.827264 
L 85.529462 286.29504 
L 85.529462 285.762816 
L 87.33678 285.230592 
L 87.33678 284.698368 
L 90.932189 282.924288 
L 98.220183 277.247232 
L 103.791204 274.053888 
L 103.791204 273.344256 
L 105.668806 272.634624 
L 105.668806 272.279808 
L 109.424011 271.570176 
L 109.424011 270.860544 
L 111.312103 270.505728 
L 111.312103 269.796096 
L 116.986986 268.731648 
L 116.986986 268.376832 
L 118.896413 268.022016 
L 118.896413 267.6672 
L 122.715265 267.6672 
L 122.715265 267.6672 
L 126.534118 266.957568 
L 126.534118 266.602752 
L 130.35297 265.89312 
L 130.35297 265.183488 
L 132.273246 264.473856 
L 134.193521 263.409408 
L 134.193521 262.34496 
L 136.124769 261.635328 
L 139.998365 259.506432 
L 141.95194 258.7968 
L 143.916873 257.732352 
L 143.916873 256.667904 
L 147.86972 255.24864 
L 147.86972 254.539008 
L 151.84582 253.119744 
L 151.84582 252.410112 
L 157.857163 250.281216 
L 157.857163 249.571584 
L 161.90469 247.442688 
L 161.90469 246.733056 
L 163.940644 246.023424 
L 170.085676 242.83008 
L 170.085676 241.410816 
L 174.232528 239.28192 
L 178.417936 237.862656 
L 180.530239 236.798208 
L 180.530239 235.73376 
L 182.655826 234.669312 
L 182.655826 233.604864 
L 184.781414 232.540416 
L 186.907002 231.830784 
L 195.545614 227.572992 
L 195.545614 226.508544 
L 199.934815 224.379648 
L 199.934815 223.847424 
L 202.143759 223.3152 
L 208.814382 220.65408 
L 208.814382 219.76704 
L 211.067505 218.88 
L 217.827074 217.283328 
L 217.827074 216.21888 
L 220.110645 215.509248 
L 220.110645 214.799616 
L 224.677786 214.089984 
L 226.976891 213.380352 
L 226.976891 212.67072 
L 229.291743 211.606272 
L 229.291743 210.89664 
L 231.606596 210.187008 
L 233.921448 209.832192 
L 238.599268 208.412928 
L 238.599268 207.34848 
L 240.962684 206.638848 
L 240.962684 205.929216 
L 245.689516 205.219584 
L 248.069575 204.509952 
L 248.069575 203.80032 
L 250.466515 202.735872 
L 250.466515 202.203648 
L 255.260393 201.1392 
L 260.105882 199.36512 
L 260.105882 198.123264 
L 269.902326 194.575104 
L 272.387388 193.510656 
L 272.387388 192.446208 
L 279.916481 189.252864 
L 279.916481 188.543232 
L 282.457597 187.478784 
L 290.138992 185.349888 
L 290.138992 184.640256 
L 292.738749 183.930624 
L 292.738749 183.220992 
L 295.338507 182.51136 
L 297.938264 182.156544 
L 297.938264 181.446912 
L 300.558175 180.73728 
L 305.818464 178.608384 
L 305.818464 177.543936 
L 313.823091 173.286144 
L 316.526838 172.221696 
L 319.25239 170.802432 
L 327.563462 167.609088 
L 327.563462 166.899456 
L 330.379866 166.189824 
L 330.379866 165.480192 
L 336.012674 164.060928 
L 336.012674 163.351296 
L 338.852745 162.641664 
L 347.445575 159.44832 
L 347.445575 158.029056 
L 353.272617 155.190528 
L 359.176109 153.061632 
L 365.184555 150.223104 
L 368.229316 149.158656 
L 368.229316 148.094208 
L 374.374197 146.674944 
L 377.474825 146.320128 
L 377.474825 145.965312 
L 380.604163 145.25568 
L 380.604163 144.546048 
L 383.7335 144.191232 
L 383.7335 143.836416 
L 389.992175 142.417152 
L 393.150759 141.352704 
L 393.150759 140.288256 
L 405.995966 134.6112 
L 409.277213 132.83712 
L 422.730359 127.160064 
L 426.179017 125.7408 
L 426.179017 124.676352 
L 429.663228 123.611904 
L 436.667943 122.19264 
L 440.225506 121.837824 
L 440.225506 121.128192 
L 443.820915 120.773376 
L 443.820915 120.41856 
L 451.011733 120.41856 
L 451.011733 120.41856 
L 454.607142 120.063744 
L 454.607142 119.708928 
L 458.202551 118.999296 
L 458.202551 118.289664 
L 461.8 117.224813 
L 461.8 117.224813 
" clip-path="url(#p1db4ad1d67)" style="fill: none; stroke-dasharray: 1.85,0.8; stroke-dashoffset: 0; stroke: #8000ff; stroke-width: 0.5"/>
   </g>
   <g id="line2d_29">
    <path d="M 64.410664 303.1488 
L 64.410664 302.439168 
L 66.126239 301.729536 
L 66.126239 301.019904 
L 69.557391 298.891008 
L 73.014892 296.05248 
L 83.604824 285.408 
L 85.402528 283.63392 
L 94.537345 276.5376 
L 94.537345 275.118336 
L 100.118513 272.457216 
L 101.996115 272.1024 
L 103.884207 271.392768 
L 103.884207 270.683136 
L 107.670998 269.973504 
L 107.670998 269.618688 
L 109.569698 269.263872 
L 111.45779 268.376832 
L 111.45779 267.844608 
L 113.356489 267.312384 
L 115.255188 266.247936 
L 119.08489 264.828672 
L 119.08489 263.764224 
L 122.947386 261.635328 
L 122.947386 260.57088 
L 124.889734 259.861248 
L 126.832081 258.7968 
L 130.750589 257.377536 
L 132.727012 256.313088 
L 132.727012 255.24864 
L 134.715062 254.539008 
L 134.715062 253.829376 
L 140.690975 251.70048 
L 140.690975 250.990848 
L 144.714409 249.571584 
L 146.738172 249.216768 
L 146.738172 248.861952 
L 148.774127 248.507136 
L 148.774127 248.15232 
L 150.810081 247.797504 
L 150.810081 247.442688 
L 152.846036 246.733056 
L 152.846036 246.023424 
L 154.88199 244.958976 
L 156.917945 244.249344 
L 161.027022 242.120448 
L 165.186673 239.28192 
L 165.186673 238.217472 
L 169.385039 236.798208 
L 173.622929 236.088576 
L 173.622929 234.669312 
L 175.76197 234.314496 
L 175.76197 233.95968 
L 177.887558 233.95968 
L 180.013146 233.604864 
L 182.152187 232.895232 
L 182.152187 232.540416 
L 184.304852 231.830784 
L 184.304852 231.121152 
L 188.610183 229.701888 
L 188.610183 228.992256 
L 190.776647 228.282624 
L 197.318154 225.08928 
L 197.318154 223.670016 
L 210.719088 215.154432 
L 213.002658 213.735168 
L 217.616616 211.606272 
L 217.616616 210.541824 
L 222.27825 208.412928 
L 222.27825 207.34848 
L 224.625253 206.284032 
L 231.715732 202.02624 
L 234.112671 200.25216 
L 246.359191 193.15584 
L 246.359191 191.736576 
L 248.862661 190.317312 
L 256.4294 187.123968 
L 261.569679 184.28544 
L 261.569679 182.866176 
L 272.029483 178.608384 
L 274.690651 177.18912 
L 274.690651 176.124672 
L 285.48453 171.86688 
L 285.48453 170.802432 
L 296.543313 166.54464 
L 296.543313 165.480192 
L 302.17612 164.060928 
L 307.880331 163.706112 
L 307.880331 162.641664 
L 310.76895 162.464256 
L 310.76895 162.286848 
L 313.63309 162.10944 
L 316.473161 161.577216 
L 319.3373 161.2224 
L 319.3373 160.867584 
L 328.02806 159.270912 
L 328.02806 158.738688 
L 330.966916 157.851648 
L 330.966916 156.964608 
L 336.793958 155.90016 
L 339.732814 154.835712 
L 342.69745 154.303488 
L 345.688321 153.416448 
L 345.688321 152.529408 
L 351.723472 150.755328 
L 351.723472 150.223104 
L 354.768233 149.69088 
L 363.90301 147.02976 
L 363.90301 145.610496 
L 379.580569 138.514176 
L 389.33026 134.256384 
L 392.643676 133.191936 
L 392.643676 132.127488 
L 399.336121 130.708224 
L 402.715805 130.353408 
L 402.715805 129.998592 
L 406.129628 129.643776 
L 406.129628 129.28896 
L 409.543451 129.466368 
L 409.543451 129.998592 
L 412.957273 130.176 
L 412.957273 130.353408 
L 416.371096 130.176 
L 416.371096 129.821184 
L 419.784919 129.643776 
L 426.510826 128.579328 
L 429.924649 127.51488 
L 429.924649 126.450432 
L 436.821964 124.321536 
L 443.82668 122.902272 
L 443.82668 122.19264 
L 450.941805 120.773376 
L 450.941805 120.063744 
L 454.537214 119.708928 
L 454.537214 118.999296 
L 461.8 117.565979 
L 461.8 117.565979 
" clip-path="url(#p1db4ad1d67)" style="fill: none; stroke-dasharray: 1.85,0.8; stroke-dashoffset: 0; stroke: #8000ff; stroke-width: 0.5"/>
   </g>
   <g id="line2d_30">
    <path d="M 61.1712 301.138176 
L 64.406976 301.138176 
L 64.533591 300.884683 
L 66.111435 300.667129 
L 66.269754 299.988869 
L 67.857542 299.010377 
L 67.976378 298.353243 
L 71.3438 296.388991 
L 78.358519 290.819725 
L 78.502482 290.482262 
L 85.413772 285.723633 
L 85.606665 284.965578 
L 87.335442 284.002315 
L 87.541662 283.696683 
L 94.440111 279.328313 
L 94.695602 278.33454 
L 96.266195 277.374339 
L 96.444759 277.034472 
L 100.09638 275.166722 
L 103.664828 273.70008 
L 104.091274 272.85689 
L 105.615168 272.473457 
L 105.836907 272.309962 
L 107.41802 272.011175 
L 107.763515 271.709477 
L 109.288564 271.422352 
L 109.527267 270.656318 
L 111.229342 270.072716 
L 111.477008 269.574304 
L 114.539739 268.598743 
L 119.03728 266.792518 
L 119.178979 266.38822 
L 120.614063 265.857889 
L 120.759398 265.449465 
L 122.529788 264.797081 
L 122.679542 264.387082 
L 122.829641 264.324686 
L 122.980086 263.907138 
L 130.288968 261.105123 
L 130.624653 260.709974 
L 132.671571 259.578168 
L 132.844715 259.125715 
L 134.06796 258.459631 
L 134.244325 257.540571 
L 134.598277 257.391561 
L 134.775865 257.080254 
L 138.043417 255.587148 
L 140.680196 254.395868 
L 140.871812 254.090919 
L 143.008977 253.215687 
L 143.799653 252.840485 
L 144.197732 252.079049 
L 147.864197 250.848979 
L 148.281047 250.253396 
L 148.699821 250.130587 
L 149.12053 249.888939 
L 150.180821 249.578 
L 150.394348 249.152311 
L 150.608369 249.077115 
L 151.037891 248.794696 
L 151.685897 248.529376 
L 151.902896 248.204024 
L 152.775908 247.889685 
L 152.995421 247.573866 
L 157.723964 245.705549 
L 157.954889 245.363074 
L 160.530489 243.979678 
L 161.722968 243.289711 
L 161.963116 242.912073 
L 162.445076 242.650479 
L 162.68689 242.228961 
L 165.135917 240.973705 
L 165.383937 240.506775 
L 168.660736 239.213242 
L 169.947405 238.770426 
L 170.206523 238.21658 
L 170.987466 237.973624 
L 171.248982 237.515951 
L 173.362941 236.683612 
L 173.629936 236.105413 
L 174.974175 235.619489 
L 175.244886 235.173826 
L 180.225857 233.397696 
L 180.508681 233.272296 
L 180.792156 232.792065 
L 182.506793 231.962061 
L 182.794877 231.496046 
L 184.245295 230.914394 
L 184.537389 230.549464 
L 186.600996 229.775675 
L 188.095508 229.219168 
L 188.69815 228.515341 
L 190.216959 227.936164 
L 190.522826 227.583056 
L 192.372898 226.792092 
L 192.683737 226.420446 
L 195.513751 225.195779 
L 195.831834 224.704015 
L 197.11152 224.149906 
L 197.433288 223.515382 
L 199.706542 222.298685 
L 200.034296 221.954229 
L 202.683684 220.666104 
L 203.689861 220.10607 
L 204.026802 219.445905 
L 208.478403 216.989382 
L 208.826388 216.50307 
L 213.065341 214.298632 
L 217.423113 212.398574 
L 218.161193 211.361254 
L 220.021339 210.517948 
L 220.395947 210.144112 
L 221.903036 209.610377 
L 222.281983 209.121406 
L 224.574092 208.314471 
L 224.9592 207.793228 
L 226.898103 206.915903 
L 227.288571 206.487415 
L 229.254461 205.501564 
L 229.650363 204.73068 
L 234.066022 202.648747 
L 238.178524 200.70116 
L 238.595009 200.517808 
L 239.012455 199.979583 
L 240.691887 199.170124 
L 241.114169 198.736341 
L 246.258164 196.49043 
L 246.693284 195.809667 
L 248.004674 195.185535 
L 248.443822 194.721782 
L 248.883982 194.491892 
L 249.325158 193.937323 
L 250.210565 193.557139 
L 250.654801 193.202918 
L 259.292668 190.067642 
L 259.75785 189.64688 
L 260.224106 189.048409 
L 261.159845 188.678705 
L 261.629334 188.022922 
L 272.23652 184.394967 
L 272.731556 183.741329 
L 274.223525 183.197808 
L 274.723144 182.66246 
L 275.725841 182.224524 
L 279.783151 180.933544 
L 280.809216 180.136326 
L 282.875583 179.504367 
L 283.395157 179.109531 
L 284.96108 178.62072 
L 285.485464 178.102557 
L 289.72431 176.90759 
L 290.25968 176.505698 
L 290.796285 176.34026 
L 291.334127 175.922503 
L 292.413535 175.544386 
L 292.955108 175.11813 
L 296.230873 174.013831 
L 296.781249 173.165299 
L 297.885813 172.926416 
L 298.440006 172.547543 
L 300.669592 171.892381 
L 302.919817 171.200888 
L 305.761916 170.515808 
L 306.334275 170.001005 
L 307.482956 169.669229 
L 308.059284 169.126877 
L 309.796256 168.561877 
L 310.37792 168.028205 
L 311.545275 167.640032 
L 312.71802 167.310479 
L 313.306423 166.92339 
L 321.080294 164.914991 
L 322.297074 164.478873 
L 324.132787 163.979401 
L 324.747517 163.575598 
L 326.600224 163.074203 
L 328.465781 161.886383 
L 330.344275 161.320326 
L 330.973331 160.620281 
L 335.41753 159.507386 
L 336.058286 159.099637 
L 338.636124 158.303792 
L 342.547695 156.897733 
L 344.52385 156.148053 
L 345.185609 155.423456 
L 345.848894 154.875954 
L 347.180058 154.371449 
L 347.847943 153.629324 
L 351.210547 152.222835 
L 351.887728 151.769472 
L 361.533909 148.025097 
L 363.641736 147.170463 
L 364.347588 146.387027 
L 366.474928 145.480198 
L 367.901345 144.936098 
L 368.617021 144.323622 
L 374.402179 142.440096 
L 375.132849 142.24909 
L 375.865205 141.821354 
L 377.334987 141.439483 
L 378.072421 141.107608 
L 378.811556 140.65172 
L 380.294945 140.212514 
L 381.039206 139.772589 
L 381.785184 139.580452 
L 382.532882 139.131957 
L 383.282305 138.912334 
L 384.78634 138.314253 
L 392.411345 135.952658 
L 393.183552 135.009365 
L 397.854336 133.391331 
L 401.796277 132.066152 
L 402.590129 131.365219 
L 404.18333 130.793962 
L 409.007213 129.350532 
L 409.817696 129.332762 
L 414.72 128.21716 
L 414.72 128.21716 
" clip-path="url(#p1db4ad1d67)" style="fill: none; stroke-dasharray: 7.4,3.2; stroke-dashoffset: 0; stroke: #ffa500; stroke-width: 2"/>
   </g>
   <g id="line2d_31">
    <path d="M 60.996711 302.793984 
L 60.996711 301.729536 
L 62.712287 298.891008 
L 64.441037 296.762112 
L 66.187656 293.923584 
L 67.067782 292.859136 
L 67.067782 291.794688 
L 69.726641 288.601344 
L 69.726641 287.536896 
L 72.413686 284.343552 
L 73.317345 283.63392 
L 74.225862 282.569472 
L 74.225862 281.505024 
L 76.052719 280.08576 
L 76.052719 279.376128 
L 76.971111 278.666496 
L 77.889504 277.602048 
L 77.889504 276.5376 
L 81.598425 272.279808 
L 83.481272 269.44128 
L 83.481272 268.022016 
L 86.334685 264.828672 
L 87.294822 264.11904 
L 88.260447 263.054592 
L 88.260447 261.990144 
L 90.202794 260.57088 
L 90.202794 259.861248 
L 92.156369 258.441984 
L 92.156369 257.732352 
L 93.138835 257.02272 
L 95.109514 254.893824 
L 95.109514 254.184192 
L 96.103539 253.119744 
L 98.09747 251.70048 
L 99.103329 251.345664 
L 99.103329 250.636032 
L 100.11521 249.9264 
L 100.11521 249.216768 
L 101.127092 248.507136 
L 101.127092 247.797504 
L 103.150855 245.668608 
L 105.192979 242.83008 
L 106.223371 241.056 
L 108.303196 238.217472 
L 111.471733 235.024128 
L 111.471733 234.314496 
L 112.541253 233.604864 
L 112.541253 232.895232 
L 114.680294 231.475968 
L 114.680294 230.41152 
L 115.756627 229.701888 
L 120.103713 225.444096 
L 120.103713 224.379648 
L 123.424395 222.250752 
L 123.424395 221.54112 
L 124.543496 220.476672 
L 124.543496 219.412224 
L 126.781698 217.99296 
L 129.042382 215.864064 
L 130.184167 214.4448 
L 130.184167 213.025536 
L 132.483272 210.187008 
L 134.806107 208.058112 
L 135.979608 206.638848 
L 138.351346 204.509952 
L 138.351346 203.445504 
L 140.748285 201.316608 
L 140.748285 200.25216 
L 141.955316 199.542528 
L 145.602583 196.349184 
L 146.836045 194.92992 
L 146.836045 193.865472 
L 151.833918 189.60768 
L 151.833918 188.188416 
L 155.655218 184.995072 
L 156.945174 184.462848 
L 158.245052 183.575808 
L 158.245052 182.688768 
L 159.555008 181.801728 
L 160.864963 181.269504 
L 160.864963 180.73728 
L 162.185152 180.559872 
L 164.815297 179.495424 
L 164.815297 178.9632 
L 166.145881 177.898752 
L 166.145881 177.366528 
L 171.500069 175.237632 
L 171.500069 174.350592 
L 172.862845 173.463552 
L 174.214718 172.931328 
L 174.214718 172.399104 
L 175.577494 171.86688 
L 178.314126 169.737984 
L 178.314126 168.673536 
L 179.699243 167.254272 
L 183.889125 164.060928 
L 186.74123 161.2224 
L 186.74123 160.157952 
L 192.556038 155.90016 
L 192.556038 154.480896 
L 198.524897 150.223104 
L 200.047277 148.80384 
L 200.047277 147.384576 
L 209.408183 138.868992 
L 212.642405 136.740096 
L 214.283029 136.030464 
L 214.283029 135.320832 
L 215.939737 134.6112 
L 215.939737 133.901568 
L 217.596445 133.546752 
L 217.596445 133.191936 
L 219.253153 132.482304 
L 220.909861 132.127488 
L 222.582972 131.417856 
L 222.582972 131.06304 
L 225.962657 129.643776 
L 225.962657 128.934144 
L 227.669568 128.579328 
L 227.669568 127.869696 
L 231.083391 126.450432 
L 232.80772 125.385984 
L 232.80772 124.676352 
L 236.291931 122.547456 
L 239.830965 121.128192 
L 239.830965 120.063744 
L 243.426374 117.934848 
L 243.426374 116.8704 
L 250.754198 112.612608 
L 252.6318 111.193344 
L 254.530499 110.128896 
L 254.530499 109.064448 
L 260.313397 105.871104 
L 260.313397 104.806656 
L 266.231313 100.548864 
L 268.24303 99.484416 
L 274.425993 95.226624 
L 276.538296 94.162176 
L 276.538296 93.097728 
L 278.677336 92.03328 
L 282.982842 90.968832 
L 282.982842 90.436608 
L 287.372042 88.662528 
L 287.372042 88.130304 
L 289.595519 87.952896 
L 296.266719 86.356224 
L 296.266719 84.227328 
L 300.803413 82.808064 
L 303.086983 82.453248 
L 305.401836 81.743616 
L 307.748839 80.679168 
L 307.748839 79.61472 
L 310.128899 78.905088 
L 310.128899 78.195456 
L 314.889018 76.776192 
L 317.303078 75.711744 
L 317.303078 74.647296 
L 319.752125 73.228032 
L 327.208386 70.034688 
L 329.768753 68.615424 
L 332.368511 67.550976 
L 332.368511 66.486528 
L 340.331557 63.293184 
L 340.331557 62.228736 
L 351.369298 56.55168 
L 354.233438 54.7776 
L 363.12917 51.052032 
L 369.330948 49.277952 
L 369.330948 48.390912 
L 375.648667 46.616832 
L 375.648667 46.084608 
L 378.837049 45.9072 
L 382.025431 45.197568 
L 388.588543 44.487936 
L 388.588543 43.068672 
L 391.968228 42.35904 
L 391.968228 41.649408 
L 395.281644 40.939776 
L 398.59506 39.875328 
L 401.974745 38.456064 
L 405.423403 37.391616 
L 416.212887 33.133824 
L 419.968092 31.71456 
L 419.968092 30.295296 
L 427.649193 27.456768 
L 439.724059 24.263424 
L 448.281594 22.134528 
L 448.281594 21.07008 
L 452.728547 20.360448 
L 452.728547 19.650816 
L 461.8 18.190172 
L 461.8 18.190172 
" clip-path="url(#p1db4ad1d67)" style="fill: none; stroke-dasharray: 1.85,0.8; stroke-dashoffset: 0; stroke: #80ffb4; stroke-width: 0.5"/>
   </g>
   <g id="line2d_32">
    <path d="M 61.867496 297.82656 
L 63.605135 294.2784 
L 66.245561 290.020608 
L 68.029048 287.891712 
L 68.029048 286.827264 
L 69.826753 284.698368 
L 69.826753 283.63392 
L 70.730412 282.924288 
L 74.374409 278.666496 
L 74.374409 277.602048 
L 77.149716 275.473152 
L 77.149716 274.76352 
L 78.08333 274.053888 
L 78.08333 273.344256 
L 79.950559 271.924992 
L 80.88936 270.860544 
L 80.88936 269.796096 
L 84.681515 264.11904 
L 86.607277 260.57088 
L 91.519941 253.47456 
L 91.519941 252.055296 
L 93.519755 249.216768 
L 98.61001 244.781568 
L 98.61001 244.249344 
L 99.646723 243.71712 
L 99.646723 243.184896 
L 101.707507 242.83008 
L 101.707507 242.120448 
L 102.74422 241.410816 
L 103.780933 240.346368 
L 103.780933 239.636736 
L 104.824045 238.927104 
L 107.972901 235.73376 
L 107.972901 234.314496 
L 109.035695 232.895232 
L 112.244342 229.701888 
L 113.327574 228.282624 
L 114.417795 227.218176 
L 114.417795 226.153728 
L 117.716867 222.960384 
L 117.716867 221.895936 
L 118.828605 220.476672 
L 122.186006 217.283328 
L 124.461914 214.4448 
L 124.461914 213.025536 
L 129.083854 207.34848 
L 130.257355 205.5744 
L 135.034593 199.897344 
L 136.250306 198.832896 
L 136.250306 197.768448 
L 138.699353 195.639552 
L 139.932815 194.92992 
L 139.932815 194.220288 
L 142.417877 192.091392 
L 143.669612 191.38176 
L 143.669612 190.672128 
L 144.930688 189.60768 
L 147.462323 188.188416 
L 147.462323 187.478784 
L 150.02269 186.05952 
L 150.02269 185.349888 
L 151.312646 184.640256 
L 152.602602 183.575808 
L 152.602602 182.866176 
L 157.832504 180.027648 
L 157.832504 179.318016 
L 159.163088 178.608384 
L 159.163088 177.898752 
L 161.824257 177.18912 
L 161.824257 176.479488 
L 163.165402 175.769856 
L 164.506546 174.705408 
L 164.506546 173.995776 
L 169.946925 171.157248 
L 169.946925 170.0928 
L 171.332042 169.383168 
L 171.332042 168.673536 
L 175.498839 166.54464 
L 175.498839 165.835008 
L 178.315243 164.415744 
L 179.735278 164.060928 
L 179.735278 163.706112 
L 181.167348 162.99648 
L 181.167348 162.641664 
L 185.463557 162.641664 
L 185.463557 161.932032 
L 186.907867 161.2224 
L 186.907867 160.512768 
L 188.339937 159.803136 
L 189.772006 158.738688 
L 191.216316 157.319424 
L 192.673077 156.254976 
L 194.142505 154.835712 
L 197.120258 152.706816 
L 198.629046 151.997184 
L 198.629046 151.287552 
L 200.151426 150.932736 
L 200.151426 150.57792 
L 203.196187 150.57792 
L 203.196187 150.57792 
L 204.718567 150.223104 
L 204.718567 149.868288 
L 206.240948 149.158656 
L 206.240948 148.449024 
L 209.285709 146.320128 
L 212.372243 143.4816 
L 215.516204 139.93344 
L 218.719768 137.094912 
L 221.98524 134.966016 
L 223.641948 134.433792 
L 223.641948 133.901568 
L 225.315059 133.369344 
L 225.315059 133.191936 
L 226.98817 133.014528 
L 226.98817 132.83712 
L 230.31799 131.772672 
L 230.31799 130.885632 
L 231.991101 129.998592 
L 240.5274 124.676352 
L 240.5274 123.611904 
L 244.047905 121.483008 
L 244.047905 120.773376 
L 245.826686 120.063744 
L 247.605467 118.999296 
L 251.220207 117.580032 
L 251.220207 116.515584 
L 254.893777 115.09632 
L 254.893777 114.918912 
L 256.750746 114.741504 
L 258.607716 114.20928 
L 258.607716 114.031872 
L 260.485318 113.854464 
L 260.485318 113.32224 
L 262.362921 112.790016 
L 264.21989 112.612608 
L 264.21989 112.080384 
L 266.097493 111.902976 
L 269.873795 110.483712 
L 269.873795 110.128896 
L 271.79407 109.419264 
L 271.79407 109.241856 
L 275.634621 109.596672 
L 275.634621 109.419264 
L 277.576968 109.241856 
L 277.576968 108.177408 
L 279.519315 108.177408 
L 283.33829 107.467776 
L 285.280637 106.580736 
L 287.24557 105.33888 
L 287.24557 104.097024 
L 289.23362 102.855168 
L 295.19832 100.194048 
L 297.234274 98.774784 
L 299.295057 97.710336 
L 299.295057 96.645888 
L 305.57981 93.452544 
L 305.57981 92.388096 
L 314.218957 88.130304 
L 316.442433 86.71104 
L 316.442433 85.291776 
L 323.23225 82.098432 
L 325.547102 81.3888 
L 327.894106 80.324352 
L 327.894106 79.61472 
L 330.274165 78.905088 
L 332.654225 78.550272 
L 332.654225 78.195456 
L 335.068285 77.84064 
L 335.068285 77.485824 
L 342.310466 76.421376 
L 342.310466 76.06656 
L 344.759513 75.711744 
L 344.759513 75.356928 
L 347.20856 75.002112 
L 349.657607 75.002112 
L 349.657607 74.647296 
L 352.142669 74.29248 
L 352.142669 73.937664 
L 354.627731 73.582848 
L 354.627731 73.228032 
L 359.597855 72.5184 
L 359.597855 71.808768 
L 362.120008 71.099136 
L 364.642161 70.034688 
L 364.642161 68.97024 
L 375.003031 64.712448 
L 380.410872 61.87392 
L 380.410872 60.454656 
L 391.631882 54.7776 
L 400.527614 49.45536 
L 409.917774 44.13312 
L 419.860571 38.81088 
L 430.425142 35.085312 
L 437.853918 32.6016 
L 437.853918 31.359744 
L 453.22009 29.230848 
L 457.243524 28.1664 
L 457.243524 27.101952 
L 461.8 26.313787 
L 461.8 26.313787 
" clip-path="url(#p1db4ad1d67)" style="fill: none; stroke-dasharray: 1.85,0.8; stroke-dashoffset: 0; stroke: #80ffb4; stroke-width: 0.5"/>
   </g>
   <g id="line2d_33">
    <path d="M 61.005332 301.37472 
L 62.725284 299.245824 
L 62.725284 298.181376 
L 66.205074 292.50432 
L 68.859325 287.18208 
L 70.652274 284.343552 
L 72.46445 282.214656 
L 73.377879 281.505024 
L 73.377879 280.795392 
L 74.296271 280.08576 
L 74.296271 279.730944 
L 75.214664 279.376128 
L 75.214664 279.021312 
L 76.133056 278.31168 
L 77.051449 277.956864 
L 77.051449 277.247232 
L 77.97486 276.892416 
L 79.826756 275.473152 
L 79.826756 274.76352 
L 80.76037 274.053888 
L 80.76037 273.344256 
L 81.693985 272.634624 
L 82.627599 272.279808 
L 83.566401 271.570176 
L 83.566401 270.860544 
L 85.454492 268.731648 
L 85.454492 267.6672 
L 89.268042 263.409408 
L 91.20484 260.57088 
L 91.20484 259.506432 
L 92.181628 258.441984 
L 95.129093 256.313088 
L 95.129093 255.24864 
L 96.123118 254.184192 
L 96.123118 253.119744 
L 100.116933 248.861952 
L 102.146792 246.023424 
L 103.170939 244.958976 
L 103.170939 243.894528 
L 106.268435 240.701184 
L 106.268435 239.991552 
L 108.35466 237.862656 
L 110.460403 236.443392 
L 110.460403 235.378944 
L 111.523197 234.314496 
L 112.585991 233.604864 
L 112.585991 232.895232 
L 113.655511 232.1856 
L 115.801364 230.056704 
L 115.801364 228.992256 
L 120.15535 223.3152 
L 121.259822 221.54112 
L 126.89313 214.4448 
L 126.89313 213.025536 
L 132.688572 208.590336 
L 132.688572 207.703296 
L 136.225489 205.042176 
L 136.225489 204.155136 
L 142.226762 198.832896 
L 142.226762 197.768448 
L 145.909271 195.639552 
L 145.909271 194.92992 
L 147.151802 193.865472 
L 147.151802 192.801024 
L 148.394333 191.736576 
L 149.636864 191.026944 
L 152.149675 188.898048 
L 153.420233 187.478784 
L 154.700417 186.414336 
L 154.700417 185.349888 
L 158.580207 183.220992 
L 158.580207 182.866176 
L 159.890163 182.156544 
L 159.890163 181.801728 
L 162.510073 181.092096 
L 162.510073 180.382464 
L 163.830262 179.672832 
L 163.830262 178.9632 
L 166.470641 177.543936 
L 167.801225 176.479488 
L 169.14237 175.769856 
L 169.14237 174.705408 
L 173.208894 172.576512 
L 173.208894 171.86688 
L 174.582749 170.802432 
L 174.582749 169.737984 
L 175.956605 168.673536 
L 177.33046 167.963904 
L 178.715577 166.899456 
L 180.112141 166.367232 
L 182.940378 164.593152 
L 182.940378 163.706112 
L 184.372448 163.173888 
L 184.372448 162.641664 
L 187.224553 161.577216 
L 188.656623 160.690176 
L 188.656623 159.803136 
L 191.545242 158.029056 
L 194.471431 157.319424 
L 195.953749 156.609792 
L 195.953749 156.254976 
L 197.449184 156.254976 
L 197.449184 156.609792 
L 200.40093 157.319424 
L 200.40093 156.964608 
L 201.883248 156.609792 
L 203.340008 156.609792 
L 204.809436 156.254976 
L 204.809436 155.545344 
L 207.774072 153.416448 
L 207.774072 152.706816 
L 209.269508 151.997184 
L 212.273731 149.868288 
L 213.796111 149.158656 
L 213.796111 148.094208 
L 218.418866 145.965312 
L 218.418866 145.25568 
L 219.983535 144.191232 
L 219.983535 143.126784 
L 221.548203 142.062336 
L 223.112872 141.352704 
L 224.692164 140.288256 
L 226.286355 139.578624 
L 229.520577 137.449728 
L 229.520577 136.38528 
L 231.1612 135.320832 
L 231.1612 134.256384 
L 234.442448 132.127488 
L 237.772267 129.28896 
L 246.395707 123.07968 
L 246.395707 121.837824 
L 251.713522 119.176704 
L 253.511227 118.64448 
L 255.328261 117.580032 
L 255.328261 117.047808 
L 259.001832 115.98336 
L 259.001832 115.805952 
L 260.858801 115.628544 
L 260.858801 115.09632 
L 264.552556 114.741504 
L 264.552556 114.20928 
L 266.409525 113.677056 
L 268.266495 112.612608 
L 268.266495 111.54816 
L 270.144097 110.483712 
L 272.0217 109.064448 
L 275.840674 106.935552 
L 277.783022 105.516288 
L 281.736004 103.387392 
L 281.736004 102.322944 
L 285.759438 100.194048 
L 285.759438 99.484416 
L 293.978356 96.645888 
L 293.978356 95.58144 
L 296.090658 94.516992 
L 296.090658 93.452544 
L 300.315264 92.03328 
L 306.81537 88.839936 
L 306.81537 87.775488 
L 313.515446 84.582144 
L 313.515446 83.872512 
L 315.799017 82.808064 
L 320.39744 81.3888 
L 322.744443 81.033984 
L 322.744443 80.324352 
L 325.124503 79.61472 
L 325.124503 78.905088 
L 327.504562 78.195456 
L 327.504562 77.84064 
L 329.884622 77.131008 
L 332.264681 76.776192 
L 334.678742 76.06656 
L 337.127788 75.711744 
L 337.127788 75.002112 
L 339.612851 74.647296 
L 339.612851 74.29248 
L 342.097913 73.937664 
L 342.097913 73.582848 
L 344.582975 72.873216 
L 344.582975 72.5184 
L 347.068037 71.808768 
L 349.553099 71.453952 
L 354.635619 70.034688 
L 354.635619 69.325056 
L 357.235376 68.615424 
L 357.235376 67.905792 
L 362.434891 67.19616 
L 362.434891 66.486528 
L 365.075269 65.776896 
L 367.715648 64.712448 
L 367.715648 63.648 
L 370.397937 62.583552 
L 378.576012 58.32576 
L 381.392416 56.55168 
L 387.170076 53.713152 
L 396.224728 50.519808 
L 396.224728 49.810176 
L 399.354065 49.100544 
L 399.354065 48.745728 
L 405.61274 48.036096 
L 405.61274 47.68128 
L 408.801122 47.326464 
L 408.801122 46.616832 
L 415.177885 45.9072 
L 415.177885 45.197568 
L 421.677279 43.778304 
L 421.677279 43.068672 
L 424.990695 42.713856 
L 431.683796 41.294592 
L 431.683796 40.58496 
L 435.132453 39.520512 
L 435.132453 38.456064 
L 438.581111 37.391616 
L 442.029769 36.681984 
L 452.819253 33.48864 
L 456.574458 32.424192 
L 456.574458 31.359744 
L 460.415008 30.295296 
L 461.8 30.039386 
L 461.8 30.039386 
" clip-path="url(#p1db4ad1d67)" style="fill: none; stroke-dasharray: 1.85,0.8; stroke-dashoffset: 0; stroke: #80ffb4; stroke-width: 0.5"/>
   </g>
   <g id="line2d_34">
    <path d="M 61.1712 300.145428 
L 62.086046 299.113783 
L 62.715549 298.078415 
L 62.834765 297.529761 
L 66.616028 291.552892 
L 67.062933 290.894159 
L 67.194642 290.345981 
L 68.024297 289.129656 
L 68.169387 288.562899 
L 69.708192 286.432269 
L 69.876719 285.507013 
L 72.986199 281.993906 
L 73.34477 281.664372 
L 73.490528 281.276768 
L 74.201519 280.541282 
L 74.393853 279.551621 
L 75.307687 278.832944 
L 76.014942 278.286456 
L 76.142652 277.952594 
L 77.016988 277.386032 
L 77.196741 276.774721 
L 77.885764 276.245697 
L 78.026448 275.776544 
L 78.07356 275.734438 
L 78.215547 275.370989 
L 79.792737 273.962712 
L 79.946647 273.589314 
L 80.732356 272.793662 
L 81.000351 271.917592 
L 83.437107 269.048993 
L 83.616291 268.126144 
L 85.413772 265.799673 
L 85.606665 265.182186 
L 87.198752 263.202672 
L 88.239446 261.939707 
L 88.380942 261.426862 
L 90.130738 259.408779 
L 90.356343 258.899308 
L 91.197032 257.885612 
L 91.352187 257.362053 
L 91.508058 257.193503 
L 91.664649 256.551491 
L 92.138774 256.040126 
L 92.298278 255.645873 
L 95.039016 253.075733 
L 95.385609 252.146107 
L 96.088451 251.439938 
L 96.266195 250.925958 
L 99.033006 248.470722 
L 99.224348 248.097216 
L 99.609686 247.805267 
L 99.803692 247.498726 
L 100.09638 247.310261 
L 100.292633 246.927181 
L 101.086749 246.324692 
L 101.287576 245.91747 
L 101.692015 245.564485 
L 101.895636 245.118097 
L 103.137266 243.894711 
L 103.347562 243.299254 
L 103.771071 242.811652 
L 103.984294 242.353102 
L 105.72591 240.392507 
L 106.171437 239.833421 
L 106.395745 239.336081 
L 107.879212 237.656787 
L 108.111406 236.906281 
L 109.050958 235.91032 
L 110.371442 234.729552 
L 110.615146 234.140861 
L 111.353032 233.403765 
L 111.601269 232.942925 
L 112.479162 232.238827 
L 112.7326 231.542799 
L 114.408716 230.10639 
L 114.802693 229.051841 
L 115.732631 228.240215 
L 116.001093 227.602841 
L 117.638105 225.822761 
L 117.915368 225.146264 
L 120.036059 222.7668 
L 120.324395 222.109484 
L 123.890072 218.151068 
L 124.349803 217.621763 
L 124.658061 216.451723 
L 126.856094 214.161309 
L 127.015826 213.525719 
L 129.788331 210.671637 
L 130.121704 210.280346 
L 130.288968 209.614504 
L 132.671571 207.100864 
L 133.018259 206.475275 
L 136.211396 203.449927 
L 136.392705 202.638991 
L 138.228951 201.010329 
L 138.414913 200.490871 
L 140.680196 198.382073 
L 140.871812 197.871847 
L 142.225552 196.798107 
L 142.420732 196.292634 
L 143.6013 195.49537 
L 143.998463 194.960755 
L 145.808517 193.641152 
L 146.215873 193.065118 
L 146.830437 192.539495 
L 147.242513 191.517253 
L 147.449264 191.360682 
L 147.864197 190.810475 
L 151.685897 187.784797 
L 151.902896 187.130057 
L 152.5569 186.546466 
L 152.995421 185.940125 
L 154.546254 184.754923 
L 154.76985 184.241986 
L 156.577284 183.211459 
L 157.723964 182.568608 
L 157.954889 182.196309 
L 158.186347 182.060394 
L 158.650865 181.374478 
L 159.117529 181.101916 
L 159.351668 180.745381 
L 162.445076 179.238322 
L 162.68689 178.88883 
L 163.659736 178.367761 
L 163.904351 177.989801 
L 164.395276 177.705989 
L 164.888468 177.03145 
L 166.131435 176.259803 
L 166.632644 175.821966 
L 168.916885 174.612316 
L 169.173626 174.134095 
L 169.688884 173.887064 
L 169.947405 173.408306 
L 171.248982 172.787267 
L 171.511101 172.129071 
L 173.09656 171.258691 
L 173.362941 170.882415 
L 174.165774 170.432701 
L 174.43462 170.105274 
L 174.704087 169.600144 
L 175.244886 169.298476 
L 175.516221 168.9106 
L 178.264233 167.1548 
L 178.542532 166.610297 
L 182.506793 164.203827 
L 182.794877 164.071255 
L 183.083626 163.654779 
L 184.245295 163.189253 
L 184.537389 162.878348 
L 185.417719 162.476311 
L 185.712516 162.065086 
L 186.600996 161.515159 
L 187.196736 160.593171 
L 188.396482 159.850152 
L 188.69815 159.343408 
L 192.372898 156.778203 
L 192.683737 156.128544 
L 197.11152 153.396084 
L 197.433288 153.269265 
L 197.755799 153.285596 
L 198.403053 153.083552 
L 198.7278 152.73811 
L 200.034296 152.335624 
L 200.362805 151.660403 
L 201.022099 151.292604 
L 204.703016 149.868089 
L 205.042293 149.294879 
L 206.064827 148.58207 
L 206.407246 148.09439 
L 207.439246 147.297697 
L 207.784834 146.795236 
L 210.578388 144.762134 
L 213.783296 142.430981 
L 214.504567 141.354246 
L 215.592723 140.629816 
L 215.957116 140.17824 
L 217.423113 139.414458 
L 218.902681 138.178016 
L 219.647594 137.768229 
L 220.021339 137.220364 
L 223.424077 135.452187 
L 223.806533 135.094535 
L 227.288571 133.438613 
L 227.679939 133.04645 
L 229.254461 132.316397 
L 229.650363 131.778141 
L 230.047179 131.594838 
L 230.44491 131.106594 
L 230.843558 130.894683 
L 231.243126 130.316735 
L 232.447366 129.579552 
L 232.850633 129.087383 
L 239.430863 124.901409 
L 239.850236 124.302388 
L 240.270577 124.031875 
L 240.691887 123.406267 
L 243.240232 121.777534 
L 244.097538 120.645262 
L 246.258164 119.397917 
L 246.693284 118.730393 
L 249.325158 117.374382 
L 251.100061 116.486917 
L 251.546348 115.887826 
L 254.24577 114.616456 
L 254.699312 114.030268 
L 256.066225 113.28468 
L 258.365512 112.461686 
L 259.292668 112.058602 
L 260.224106 111.829454 
L 260.691437 111.147316 
L 261.159845 110.797956 
L 264.469095 109.53777 
L 264.946216 109.1915 
L 266.865731 108.413784 
L 267.832142 107.936929 
L 268.31702 107.339302 
L 270.26774 106.148852 
L 272.23652 104.981248 
L 276.228925 103.444972 
L 276.733169 102.867696 
L 277.238576 102.645374 
L 277.745149 102.072844 
L 280.809216 101.107605 
L 281.324024 100.941492 
L 281.840019 100.420702 
L 282.875583 100.089473 
L 283.91593 99.477644 
L 285.485464 98.738455 
L 286.011057 98.242815 
L 287.065884 97.755924 
L 287.595122 96.945255 
L 293.497929 94.921667 
L 294.042002 94.378339 
L 295.681762 93.691495 
L 296.230873 93.081462 
L 296.781249 92.126187 
L 298.995478 91.239741 
L 299.552231 90.668808 
L 304.621146 88.607595 
L 305.190874 88.361564 
L 305.761916 87.742892 
L 306.334275 87.468886 
L 306.907954 86.839626 
L 307.482956 86.565562 
L 308.059284 85.952128 
L 309.796256 85.214195 
L 310.37792 84.731629 
L 313.306423 83.500619 
L 313.896182 83.018037 
L 316.268853 81.88389 
L 317.463413 80.551552 
L 321.080294 79.012619 
L 322.297074 78.586157 
L 322.907569 78.128833 
L 324.747517 77.478104 
L 325.363664 77.030683 
L 327.220644 76.312597 
L 329.090504 75.205726 
L 330.344275 74.778967 
L 332.235797 74.332821 
L 332.869215 73.682338 
L 336.70052 72.586559 
L 337.344236 72.201039 
L 339.284304 71.756381 
L 339.933978 71.48942 
L 340.585151 70.9751 
L 341.892006 70.622038 
L 342.547695 70.187112 
L 344.52385 69.560563 
L 345.185609 69.114205 
L 347.847943 68.343878 
L 349.188338 68.052957 
L 350.534924 67.557295 
L 351.887728 67.11884 
L 353.246779 66.529462 
L 354.612107 66.080827 
L 355.297134 65.533718 
L 356.67193 65.147868 
L 357.361707 64.724005 
L 359.440599 64.240212 
L 360.136762 63.816827 
L 362.2349 63.231388 
L 362.937507 62.745491 
L 364.347588 62.277247 
L 365.055068 61.692304 
L 367.187315 60.907714 
L 367.901345 60.29092 
L 368.617021 60.029449 
L 369.334349 59.471701 
L 372.945879 58.05337 
L 375.132849 57.167413 
L 375.865205 56.68113 
L 379.552396 55.259888 
L 380.294945 54.919998 
L 381.039206 54.107995 
L 383.282305 53.219689 
L 388.576885 51.330089 
L 389.340248 50.585988 
L 391.640916 49.772419 
L 392.411345 49.234368 
L 395.510873 48.019676 
L 396.290229 47.456826 
L 398.639096 46.56172 
L 399.425666 46.122449 
L 404.18333 44.44105 
L 404.982687 44.17754 
L 406.586936 43.494458 
L 408.198595 42.91868 
L 409.007213 42.393678 
L 414.72 40.398843 
L 414.72 40.398843 
" clip-path="url(#p1db4ad1d67)" style="fill: none; stroke-dasharray: 7.4,3.2; stroke-dashoffset: 0; stroke: #ffa500; stroke-width: 2"/>
   </g>
   <g id="line2d_35">
    <path d="M 60.444997 298.891008 
L 61.603423 296.05248 
L 61.603423 294.633216 
L 63.947418 288.95616 
L 66.338084 281.85984 
L 67.552714 279.021312 
L 68.780583 276.892416 
L 69.399573 276.182784 
L 69.399573 275.473152 
L 70.021983 275.118336 
L 70.021983 274.76352 
L 70.644392 274.76352 
L 70.644392 274.76352 
L 71.266802 274.408704 
L 71.266802 274.053888 
L 71.889212 273.699072 
L 71.889212 273.344256 
L 73.134031 272.634624 
L 73.759898 271.924992 
L 73.759898 271.21536 
L 74.389262 270.150912 
L 74.389262 269.44128 
L 75.018626 268.731648 
L 75.64799 268.376832 
L 76.28089 267.6672 
L 76.917365 267.312384 
L 76.917365 266.602752 
L 77.557457 266.247936 
L 77.557457 265.89312 
L 78.197549 265.538304 
L 78.197549 265.183488 
L 78.837641 264.473856 
L 78.837641 263.764224 
L 79.477733 262.699776 
L 80.117824 261.990144 
L 80.761574 260.925696 
L 81.409023 260.216064 
L 82.715192 258.087168 
L 82.715192 257.02272 
L 83.374 255.958272 
L 83.374 255.24864 
L 84.032808 254.539008 
L 84.691616 254.184192 
L 85.354299 253.47456 
L 86.020904 253.119744 
L 86.020904 252.410112 
L 86.691476 251.70048 
L 86.691476 250.990848 
L 87.362048 250.281216 
L 87.362048 249.571584 
L 88.032621 248.507136 
L 88.703193 247.797504 
L 89.377781 246.733056 
L 90.056432 246.023424 
L 91.426124 243.894528 
L 91.426124 242.83008 
L 92.117266 241.765632 
L 92.117266 240.701184 
L 93.499551 239.28192 
L 94.194959 238.217472 
L 94.894687 237.50784 
L 95.598787 236.443392 
L 95.598787 235.73376 
L 97.015846 235.024128 
L 97.015846 234.669312 
L 97.72886 234.314496 
L 97.72886 233.250048 
L 98.441873 232.895232 
L 99.150402 232.1856 
L 99.863416 231.830784 
L 100.580971 231.121152 
L 100.580971 230.41152 
L 102.025281 228.992256 
L 102.025281 228.282624 
L 102.752095 227.572992 
L 102.752095 226.508544 
L 104.205722 224.379648 
L 105.673571 221.54112 
L 106.41473 219.76704 
L 108.667919 215.509248 
L 110.195478 213.380352 
L 110.195478 212.315904 
L 111.738713 210.187008 
L 111.738713 209.12256 
L 112.515652 208.590336 
L 114.074925 206.816256 
L 114.86273 206.284032 
L 115.656084 205.396992 
L 115.656084 204.509952 
L 117.248417 202.735872 
L 117.248417 202.203648 
L 118.047396 201.671424 
L 118.846376 200.606976 
L 120.461539 199.187712 
L 120.461539 198.123264 
L 122.094237 195.994368 
L 122.094237 194.92992 
L 122.916544 193.865472 
L 123.738852 192.446208 
L 125.401696 190.317312 
L 127.089452 187.478784 
L 127.942908 186.414336 
L 127.942908 185.349888 
L 130.529435 182.156544 
L 130.529435 181.092096 
L 134.043225 175.41504 
L 134.937321 173.64096 
L 136.747088 171.157248 
L 139.517445 168.496128 
L 139.517445 167.609088 
L 140.456246 167.076864 
L 140.456246 166.54464 
L 142.318331 165.480192 
L 143.257133 164.77056 
L 143.257133 164.415744 
L 146.105226 162.286848 
L 146.105226 161.2224 
L 148.985686 159.093504 
L 148.985686 158.383872 
L 152.895864 154.12608 
L 152.895864 152.706816 
L 153.892821 151.287552 
L 156.910557 148.094208 
L 157.934704 146.674944 
L 158.968246 145.610496 
L 158.968246 144.546048 
L 160.011359 143.4816 
L 162.107333 142.062336 
L 162.107333 141.352704 
L 164.23292 139.223808 
L 164.23292 138.15936 
L 168.555733 133.901568 
L 169.660205 132.482304 
L 170.775613 131.595264 
L 170.775613 130.708224 
L 173.028736 128.934144 
L 174.166676 128.40192 
L 174.166676 127.869696 
L 177.603723 126.805248 
L 177.603723 126.450432 
L 178.765126 125.563392 
L 178.765126 125.031168 
L 179.92653 124.498944 
L 181.076082 124.321536 
L 183.410988 123.257088 
L 183.410988 122.19264 
L 184.596842 121.483008 
L 184.596842 120.773376 
L 185.782696 120.063744 
L 186.96855 119.708928 
L 188.16702 118.999296 
L 188.16702 118.289664 
L 190.589733 116.8704 
L 190.589733 116.160768 
L 191.814256 115.451136 
L 193.03878 114.386688 
L 193.03878 113.32224 
L 194.276759 112.257792 
L 200.607355 105.161472 
L 204.583822 101.968128 
L 204.583822 101.258496 
L 205.941125 100.548864 
L 205.941125 100.194048 
L 208.655731 99.484416 
L 208.655731 99.1296 
L 210.029586 98.774784 
L 210.029586 98.419968 
L 211.403442 98.065152 
L 212.777297 98.065152 
L 212.777297 97.710336 
L 214.168114 97.35552 
L 214.168114 96.645888 
L 215.558931 95.936256 
L 215.558931 95.226624 
L 218.340564 93.097728 
L 221.174793 90.2592 
L 224.08217 86.71104 
L 230.132185 81.033984 
L 231.696854 79.969536 
L 231.696854 78.905088 
L 236.47964 76.776192 
L 236.47964 76.06656 
L 238.112338 75.356928 
L 238.112338 74.647296 
L 241.377733 73.228032 
L 243.034442 72.163584 
L 243.034442 71.099136 
L 246.397312 68.260608 
L 249.837395 66.486528 
L 251.597647 65.244672 
L 255.202875 63.470592 
L 255.202875 62.938368 
L 258.866732 61.87392 
L 258.866732 61.696512 
L 260.713554 61.519104 
L 260.713554 60.809472 
L 262.560376 60.09984 
L 264.407198 59.745024 
L 264.407198 59.035392 
L 266.284801 58.32576 
L 270.071829 56.196864 
L 270.071829 55.132416 
L 275.932948 50.874624 
L 277.944665 49.810176 
L 279.992959 48.390912 
L 286.371236 45.197568 
L 286.371236 44.487936 
L 288.58018 43.778304 
L 288.58018 43.068672 
L 292.998068 41.649408 
L 292.998068 40.939776 
L 295.251191 40.230144 
L 297.504314 39.165696 
L 302.150423 37.746432 
L 302.150423 36.681984 
L 306.944301 34.553088 
L 306.944301 33.48864 
L 309.393348 32.424192 
L 316.906232 28.1664 
L 324.956143 22.84416 
L 333.625801 18.586368 
L 336.670562 17.167104 
L 339.7999 16.102656 
L 339.7999 15.038208 
L 343.018647 13.97376 
L 349.55081 12.554496 
L 349.55081 11.844864 
L 356.378456 9.715968 
L 356.378456 8.65152 
L 359.898961 8.119296 
L 363.419465 7.232256 
L 370.80874 6.167808 
L 374.693435 5.280768 
L 374.693435 4.393728 
L 378.716869 3.506688 
L 378.716869 2.974464 
L 386.486259 1.910016 
L 394.682143 -0.21888 
L 394.682143 -1 
L 394.682143 -1 
" clip-path="url(#p1db4ad1d67)" style="fill: none; stroke-dasharray: 1.85,0.8; stroke-dashoffset: 0; stroke: #ff0000; stroke-width: 0.5"/>
   </g>
   <g id="line2d_36">
    <path d="M 60.444997 299.245824 
L 61.603423 297.116928 
L 61.603423 296.05248 
L 62.187134 294.988032 
L 62.192141 294.2784 
L 64.531129 291.439872 
L 64.531129 290.375424 
L 65.716983 288.95616 
L 65.716983 288.246528 
L 66.313047 287.536896 
L 66.909111 286.472448 
L 66.909111 285.762816 
L 67.508346 285.053184 
L 69.315699 281.85984 
L 69.315699 280.440576 
L 70.533603 277.602048 
L 73.628739 272.279808 
L 73.628739 271.21536 
L 74.258103 270.150912 
L 74.258103 269.086464 
L 75.516831 267.6672 
L 76.786206 265.538304 
L 77.426298 264.11904 
L 77.426298 262.699776 
L 80.012438 258.441984 
L 80.667415 257.02272 
L 80.667415 255.603456 
L 83.314319 249.9264 
L 83.984891 248.15232 
L 86.707823 242.475264 
L 87.398965 241.410816 
L 87.398965 240.346368 
L 89.489509 237.153024 
L 89.489509 236.088576 
L 92.319254 230.41152 
L 95.953626 221.54112 
L 98.191893 217.815552 
L 99.709165 216.041472 
L 99.709165 215.154432 
L 101.236723 214.089984 
L 101.236723 213.55776 
L 102.003092 213.025536 
L 102.76946 211.961088 
L 102.76946 210.89664 
L 103.541077 209.832192 
L 105.089634 206.993664 
L 105.871968 205.929216 
L 107.453127 203.090688 
L 109.056793 200.961792 
L 109.056793 199.897344 
L 109.867269 198.832896 
L 110.677745 198.123264 
L 110.677745 197.413632 
L 111.494094 196.704 
L 113.132751 194.575104 
L 113.132751 193.865472 
L 116.464666 189.60768 
L 116.464666 188.188416 
L 119.012199 184.995072 
L 119.87217 184.28544 
L 120.738756 183.220992 
L 120.738756 182.156544 
L 121.612059 181.092096 
L 122.485363 180.382464 
L 122.485363 179.672832 
L 125.132671 177.543936 
L 125.132671 176.834304 
L 126.920864 174.705408 
L 126.920864 173.64096 
L 127.822114 172.576512 
L 130.547784 168.31872 
L 131.471195 166.54464 
L 134.287729 162.286848 
L 136.205315 160.157952 
L 136.205315 159.44832 
L 138.147663 158.029056 
L 138.147663 157.67424 
L 139.127281 157.319424 
L 139.127281 156.609792 
L 141.086519 155.190528 
L 141.086519 154.12608 
L 142.074731 153.061632 
L 145.065758 148.80384 
L 150.234342 139.93344 
L 152.370051 136.38528 
L 155.651505 132.127488 
L 157.893474 129.998592 
L 157.893474 128.934144 
L 160.169355 127.51488 
L 160.169355 127.160064 
L 162.468461 126.450432 
L 162.468461 126.095616 
L 163.629864 125.7408 
L 163.629864 125.031168 
L 164.791268 124.321536 
L 164.791268 123.611904 
L 167.114075 121.483008 
L 168.287577 120.063744 
L 169.473431 118.999296 
L 171.883257 116.160768 
L 174.34576 114.031872 
L 174.34576 112.967424 
L 175.597495 111.902976 
L 176.84923 111.193344 
L 176.84923 110.483712 
L 178.11503 109.77408 
L 180.661013 107.645184 
L 180.661013 106.580736 
L 183.250809 104.45184 
L 185.886131 103.032576 
L 187.227276 101.968128 
L 187.227276 100.90368 
L 188.584579 99.839232 
L 188.584579 98.774784 
L 191.299185 97.35552 
L 192.67304 96.291072 
L 194.063857 95.58144 
L 195.472059 94.516992 
L 195.472059 93.80736 
L 198.324113 92.388096 
L 198.324113 91.678464 
L 199.768423 90.968832 
L 199.768423 89.904384 
L 202.657042 87.775488 
L 204.120109 86.356224 
L 205.602427 85.291776 
L 208.626889 82.453248 
L 211.734793 80.324352 
L 211.734793 79.792128 
L 213.321499 79.259904 
L 214.908206 79.082496 
L 214.908206 78.905088 
L 216.517579 78.72768 
L 216.517579 78.195456 
L 218.126953 77.663232 
L 218.126953 77.131008 
L 219.713659 76.243968 
L 221.300366 75.889152 
L 227.88058 72.340992 
L 227.88058 71.453952 
L 231.268927 70.389504 
L 231.268927 69.85728 
L 232.975838 69.325056 
L 234.682749 68.260608 
L 234.682749 67.19616 
L 236.415921 66.131712 
L 241.697538 61.87392 
L 247.238997 58.148352 
L 251.090771 56.374272 
L 251.090771 55.487232 
L 255.009542 53.713152 
L 255.009542 52.826112 
L 256.985966 51.939072 
L 260.974106 49.100544 
L 263.0224 48.036096 
L 269.400677 43.778304 
L 271.609622 42.35904 
L 271.609622 40.939776 
L 273.862745 39.875328 
L 278.414973 38.456064 
L 280.761976 38.101248 
L 283.158915 37.391616 
L 283.158915 36.681984 
L 285.042452 35.972352 
L 285.607962 35.26272 
L 285.607962 34.553088 
L 288.004901 33.843456 
L 295.354358 30.650112 
L 303.216925 26.39232 
L 303.216925 25.327872 
L 305.964636 24.263424 
L 314.41737 22.134528 
L 314.41737 21.07008 
L 317.382005 20.005632 
L 317.382005 19.296 
L 323.311276 17.876736 
L 326.356037 16.812288 
L 329.485375 16.102656 
L 329.485375 15.038208 
L 339.236285 11.844864 
L 339.236285 10.780416 
L 346.063931 8.65152 
L 356.97371 6.522624 
L 356.97371 5.812992 
L 360.858405 5.458176 
L 360.858405 5.10336 
L 368.627795 4.393728 
L 368.627795 4.038912 
L 372.512489 3.32928 
L 376.397184 2.974464 
L 376.397184 2.264832 
L 380.420618 1.910016 
L 384.444052 1.200384 
L 388.616502 0.845568 
L 388.616502 0.490752 
L 392.949431 -0.21888 
L 392.949431 -0.928512 
L 393.385929 -1 
L 393.385929 -1 
" clip-path="url(#p1db4ad1d67)" style="fill: none; stroke-dasharray: 1.85,0.8; stroke-dashoffset: 0; stroke: #ff0000; stroke-width: 0.5"/>
   </g>
   <g id="line2d_37">
    <path d="M 59.867333 302.793984 
L 59.867333 302.084352 
L 60.439192 301.37472 
L 61.585827 299.245824 
L 61.585827 298.181376 
L 63.905687 292.50432 
L 69.299818 276.5376 
L 74.321523 262.34496 
L 77.577699 256.13568 
L 77.577699 254.893824 
L 80.228478 249.9264 
L 80.89905 248.15232 
L 82.252289 245.313792 
L 82.935054 244.249344 
L 84.313124 242.83008 
L 84.313124 242.120448 
L 85.008532 241.410816 
L 85.008532 239.991552 
L 85.70394 239.28192 
L 86.395082 238.217472 
L 87.090491 237.50784 
L 89.915862 233.250048 
L 89.915862 232.1856 
L 90.633417 231.121152 
L 90.633417 230.056704 
L 93.517496 227.218176 
L 94.24903 226.153728 
L 94.24903 225.444096 
L 94.985344 224.734464 
L 94.985344 224.024832 
L 96.457974 222.605568 
L 96.457974 221.54112 
L 97.199133 220.476672 
L 100.193481 214.977024 
L 103.269596 210.0096 
L 103.269596 208.767744 
L 104.82887 206.284032 
L 106.399009 204.509952 
L 108.796029 200.25216 
L 108.796029 199.187712 
L 110.416981 197.058816 
L 112.055638 195.639552 
L 112.055638 194.575104 
L 113.712346 192.446208 
L 113.712346 191.38176 
L 118.782508 184.995072 
L 118.782508 183.930624 
L 120.51568 182.51136 
L 120.51568 181.801728 
L 122.262287 181.092096 
L 122.262287 180.73728 
L 123.142413 180.382464 
L 124.022539 179.672832 
L 124.022539 178.253568 
L 126.676778 176.124672 
L 127.570875 175.060224 
L 128.472124 173.64096 
L 128.472124 172.221696 
L 131.205062 167.963904 
L 135.899721 162.641664 
L 135.899721 161.2224 
L 138.78018 159.093504 
L 138.78018 158.029056 
L 141.702146 153.771264 
L 142.690358 152.706816 
L 144.693173 149.868288 
L 146.732241 147.739392 
L 146.732241 147.02976 
L 148.799326 145.610496 
L 148.799326 144.900864 
L 149.842438 144.546048 
L 149.842438 143.836416 
L 151.928663 143.126784 
L 152.981525 142.417152 
L 152.981525 141.70752 
L 154.044319 140.643072 
L 154.044319 139.578624 
L 156.169906 137.449728 
L 157.242822 136.030464 
L 158.326054 134.966016 
L 161.639683 130.708224 
L 162.766244 129.643776 
L 162.766244 128.579328 
L 163.904185 127.51488 
L 166.191679 126.450432 
L 166.191679 125.918208 
L 167.353082 125.031168 
L 168.514486 124.498944 
L 168.514486 123.96672 
L 169.687988 123.434496 
L 172.022893 121.660416 
L 172.022893 120.773376 
L 176.804427 115.09632 
L 180.518665 109.77408 
L 184.359547 105.516288 
L 186.994869 103.387392 
L 186.994869 102.322944 
L 189.677158 100.90368 
L 189.677158 100.194048 
L 191.034461 99.839232 
L 192.391764 99.1296 
L 192.391764 98.419968 
L 193.765619 98.24256 
L 195.139475 97.710336 
L 195.139475 97.532928 
L 196.530292 97.35552 
L 197.921108 96.823296 
L 197.921108 96.645888 
L 199.32931 96.46848 
L 199.32931 95.936256 
L 202.110944 95.58144 
L 202.110944 94.871808 
L 203.519145 94.162176 
L 204.927347 93.097728 
L 204.927347 92.03328 
L 206.353375 91.323648 
L 207.779402 90.2592 
L 212.169096 88.130304 
L 212.169096 87.420672 
L 213.671178 86.71104 
L 213.671178 86.001408 
L 215.17326 85.291776 
L 215.17326 84.582144 
L 216.675342 83.517696 
L 218.177424 82.808064 
L 221.24304 80.679168 
L 224.394415 77.84064 
L 224.394415 76.421376 
L 226.003788 75.002112 
L 230.902568 71.808768 
L 234.290914 68.97024 
L 234.290914 67.550976 
L 241.305703 63.293184 
L 243.122737 61.87392 
L 243.122737 60.454656 
L 250.60341 54.7776 
L 256.533899 49.45536 
L 262.794005 44.13312 
L 269.422537 40.407552 
L 274.068645 38.633472 
L 274.068645 37.746432 
L 276.465584 36.859392 
L 278.812588 36.327168 
L 278.812588 35.794944 
L 281.209527 35.617536 
L 286.055513 34.198272 
L 286.055513 33.48864 
L 288.558983 32.779008 
L 288.558983 32.069376 
L 293.565923 30.650112 
L 296.12629 29.585664 
L 296.12629 28.521216 
L 304.048401 24.263424 
L 312.501135 21.07008 
L 318.510531 18.941184 
L 318.510531 16.812288 
L 324.684629 15.393024 
L 327.813967 15.215616 
L 331.032714 14.683392 
L 334.34613 13.796352 
L 334.34613 12.909312 
L 337.759953 12.022272 
L 337.759953 11.490048 
L 351.42152 9.361152 
L 351.42152 8.296704 
L 358.689658 7.232256 
L 358.689658 6.700032 
L 362.444864 6.167808 
L 366.200069 5.280768 
L 366.200069 4.393728 
L 370.084763 3.861504 
L 381.748097 1.200384 
L 385.920547 -0.21888 
L 385.920547 -1 
L 385.920547 -1 
" clip-path="url(#p1db4ad1d67)" style="fill: none; stroke-dasharray: 1.85,0.8; stroke-dashoffset: 0; stroke: #ff0000; stroke-width: 0.5"/>
   </g>
   <g id="line2d_38">
    <path d="M 61.1712 298.343916 
L 61.579584 297.509585 
L 61.719506 296.014909 
L 64.517637 289.786858 
L 64.64631 289.123895 
L 66.89013 283.549557 
L 67.041158 282.98378 
L 69.296928 278.246421 
L 69.45973 277.206835 
L 72.670471 271.251484 
L 73.600731 269.592294 
L 73.786104 268.649724 
L 74.239809 267.718992 
L 74.432586 266.804289 
L 76.883256 263.36654 
L 77.061771 262.852737 
L 77.423775 262.290833 
L 77.607294 261.034784 
L 78.550692 259.56653 
L 78.793411 259.190795 
L 78.98961 258.623199 
L 80.62602 255.712303 
L 80.785709 254.900013 
L 84.593139 247.648187 
L 84.96884 247.141578 
L 85.158647 246.403862 
L 86.127611 244.866882 
L 87.335442 242.984411 
L 87.472764 242.185186 
L 89.906686 238.230473 
L 90.130738 237.52349 
L 90.583513 236.760084 
L 90.735835 236.165326 
L 91.352187 235.231551 
L 91.508058 234.641022 
L 92.059297 233.810149 
L 92.218434 233.233215 
L 93.43562 231.43446 
L 94.186379 230.098526 
L 94.440111 229.476513 
L 94.952866 228.714057 
L 95.211913 228.054342 
L 95.560107 227.487344 
L 95.735411 227.011392 
L 96.444759 226.215539 
L 96.624148 225.646787 
L 97.533597 224.383971 
L 97.718015 224.13402 
L 97.903284 223.528098 
L 101.9978 218.032121 
L 102.202833 217.525093 
L 102.71957 216.841297 
L 102.927937 215.828249 
L 103.242292 215.362746 
L 103.453073 214.637341 
L 104.521669 212.85764 
L 105.615168 211.10828 
L 106.621089 209.355594 
L 109.050958 204.932006 
L 109.288564 204.258374 
L 110.128859 203.171321 
L 110.371442 202.527747 
L 110.615146 202.2672 
L 110.859976 201.776061 
L 111.725817 200.84361 
L 112.101188 199.767743 
L 113.114952 198.572706 
L 113.371326 198.019115 
L 113.628884 197.701128 
L 113.887631 197.027409 
L 116.406113 193.772058 
L 116.677686 192.970181 
L 118.754861 190.358074 
L 119.03728 189.711665 
L 120.324395 188.568584 
L 120.759398 187.189657 
L 122.082592 185.961468 
L 122.529788 184.877522 
L 123.433507 184.009779 
L 123.890072 183.523921 
L 124.042963 182.903205 
L 125.123119 181.865337 
L 125.434947 181.285322 
L 126.856094 179.521167 
L 127.175926 178.747022 
L 127.820028 177.938145 
L 128.144311 177.10897 
L 128.470092 176.632535 
L 128.797378 175.682488 
L 130.456617 173.276552 
L 130.793076 172.371134 
L 132.154524 170.274571 
L 135.669969 165.42634 
L 135.850029 165.210409 
L 136.211396 164.108687 
L 137.85831 162.698661 
L 138.601304 162.034746 
L 138.788125 161.55023 
L 138.975377 161.376939 
L 139.539727 160.275512 
L 140.298287 159.579481 
L 140.680196 159.051292 
L 141.063869 158.700075 
L 141.25637 158.149161 
L 143.205963 156.073602 
L 143.6013 155.481241 
L 146.011961 152.664689 
L 146.215873 152.070834 
L 146.625111 151.592217 
L 147.036238 150.910592 
L 148.699821 149.169902 
L 149.331612 148.059692 
L 149.755238 147.618951 
L 150.180821 146.93963 
L 152.775908 144.221516 
L 152.995421 143.274867 
L 153.878548 142.177053 
L 154.100604 141.571333 
L 157.723964 137.561136 
L 157.954889 136.960248 
L 158.883928 136.085311 
L 159.117529 135.50117 
L 161.244328 133.561184 
L 161.963116 133.05619 
L 162.203819 132.654458 
L 162.68689 132.173295 
L 162.929262 131.637058 
L 163.415683 131.273461 
L 163.904351 130.643715 
L 164.149531 130.473701 
L 164.395276 129.94899 
L 164.641588 129.778967 
L 164.888468 129.362109 
L 166.131435 128.379257 
L 166.632644 127.762212 
L 168.405175 126.185105 
L 168.916885 125.573521 
L 170.726551 123.93052 
L 170.987466 123.398269 
L 171.773825 122.686637 
L 172.037154 122.166066 
L 174.165774 120.265895 
L 174.43462 119.522103 
L 177.433172 117.066544 
L 178.264233 116.193213 
L 178.542532 115.911413 
L 179.101057 115.202663 
L 180.508681 113.989726 
L 180.792156 113.435239 
L 182.219372 112.323329 
L 183.37304 111.419155 
L 183.663122 110.849946 
L 184.537389 110.215078 
L 184.830156 109.788535 
L 186.898523 108.474569 
L 187.495637 107.382676 
L 188.095508 107.001662 
L 189.000514 105.873474 
L 189.607335 105.542197 
L 189.911796 105.160379 
L 190.522826 104.881332 
L 190.829398 104.505284 
L 191.753364 103.984474 
L 192.372898 103.542868 
L 192.683737 103.121066 
L 192.995293 102.964391 
L 193.307568 102.453385 
L 194.24872 101.926338 
L 195.196399 101.151504 
L 195.513751 100.70382 
L 197.755799 99.289151 
L 198.079053 99.028058 
L 198.403053 98.604596 
L 199.053296 98.2305 
L 199.379543 97.865652 
L 199.706542 97.678725 
L 200.034296 97.114779 
L 201.684437 96.13813 
L 202.016752 95.952664 
L 202.349834 95.500991 
L 203.689861 94.494792 
L 204.364519 93.948688 
L 205.042293 92.896294 
L 205.723197 92.49257 
L 206.407246 91.962322 
L 209.524767 90.047547 
L 211.639316 88.946128 
L 212.350686 88.328525 
L 212.707602 88.232413 
L 213.783296 87.536801 
L 214.143516 87.436017 
L 214.504567 87.069845 
L 214.86645 86.937822 
L 215.592723 86.105095 
L 216.32235 85.719798 
L 216.688426 85.337549 
L 217.791728 84.760715 
L 218.53151 84.123537 
L 220.771418 82.557522 
L 221.524961 82.005963 
L 224.18987 79.646047 
L 224.574092 78.86703 
L 229.254461 75.244819 
L 231.643615 73.643157 
L 232.045028 73.0697 
L 234.066022 71.88265 
L 234.880961 70.581375 
L 236.110431 69.897274 
L 236.522146 69.424483 
L 237.762997 68.651996 
L 238.178524 68.158194 
L 242.813058 65.177716 
L 243.240232 64.036453 
L 247.129407 61.160169 
L 250.654801 59.071294 
L 251.100061 58.467585 
L 253.341814 57.047738 
L 254.699312 56.214828 
L 255.609537 55.216177 
L 258.365512 53.612703 
L 260.691437 52.236394 
L 261.159845 51.713015 
L 263.518143 50.444235 
L 263.993071 50.215376 
L 264.469095 49.745611 
L 268.803016 47.274346 
L 269.778374 46.722117 
L 270.26774 46.09731 
L 271.249862 45.521452 
L 271.742623 44.767033 
L 273.725056 43.722243 
L 274.223525 43.184323 
L 277.238576 41.895684 
L 278.761803 41.328765 
L 279.271888 40.992669 
L 282.875583 39.842477 
L 283.395157 39.410298 
L 284.96108 38.802941 
L 285.485464 38.470886 
L 286.011057 38.006479 
L 286.537863 37.354701 
L 288.125581 36.872023 
L 288.657264 36.213059 
L 292.955108 34.718903 
L 293.497929 34.297058 
L 295.681762 33.421942 
L 296.230873 32.798705 
L 299.552231 31.180892 
L 301.792112 30.152758 
L 302.355315 29.53283 
L 302.919817 29.250139 
L 303.485621 28.624675 
L 305.761916 27.673248 
L 306.907954 27.248578 
L 307.482956 26.688402 
L 312.130972 24.914676 
L 313.896182 24.224118 
L 314.487302 23.636394 
L 316.865445 22.632139 
L 317.463413 22.124291 
L 318.06276 21.871343 
L 318.66349 20.914442 
L 325.981232 18.196809 
L 329.090504 17.324695 
L 329.716667 16.777471 
L 334.140437 15.232221 
L 334.778248 14.711349 
L 338.636124 13.296545 
L 339.933978 12.23595 
L 345.848894 10.760552 
L 349.188338 10.117539 
L 349.860855 9.744397 
L 351.210547 9.44825 
L 351.887728 8.945582 
L 355.98374 8.059098 
L 356.67193 7.571522 
L 357.361707 7.235722 
L 358.053076 7.146082 
L 358.746038 6.878916 
L 360.834531 6.579988 
L 361.533909 6.348642 
L 365.76418 5.642626 
L 366.474928 5.243735 
L 368.617021 4.978581 
L 369.334349 4.75031 
L 372.220241 4.19508 
L 374.402179 3.783348 
L 375.132849 3.355347 
L 375.865205 3.223487 
L 376.599249 2.854991 
L 378.072421 2.592207 
L 378.811556 2.287068 
L 382.532882 1.640851 
L 385.54096 1.018956 
L 386.297321 0.534267 
L 388.576885 0.089985 
L 390.105371 -0.370648 
L 392.76329 -1 
L 392.76329 -1 
" clip-path="url(#p1db4ad1d67)" style="fill: none; stroke-dasharray: 7.4,3.2; stroke-dashoffset: 0; stroke: #ffa500; stroke-width: 2"/>
   </g>
   <g id="patch_3">
    <path d="M 57.6 307.584 
L 57.6 41.472 
" style="fill: none; stroke: #000000; stroke-width: 0.8; stroke-linejoin: miter; stroke-linecap: square"/>
   </g>
   <g id="patch_4">
    <path d="M 414.72 307.584 
L 414.72 41.472 
" style="fill: none; stroke: #000000; stroke-width: 0.8; stroke-linejoin: miter; stroke-linecap: square"/>
   </g>
   <g id="patch_5">
    <path d="M 57.6 307.584 
L 414.72 307.584 
" style="fill: none; stroke: #000000; stroke-width: 0.8; stroke-linejoin: miter; stroke-linecap: square"/>
   </g>
   <g id="patch_6">
    <path d="M 57.6 41.472 
L 414.72 41.472 
" style="fill: none; stroke: #000000; stroke-width: 0.8; stroke-linejoin: miter; stroke-linecap: square"/>
   </g>
   <g id="legend_1">
    <g id="patch_7">
     <path d="M 314.584 120.95195 
L 491.432437 120.95195 
Q 493.432437 120.95195 493.432437 118.95195 
L 493.432437 75.0832 
Q 493.432437 73.0832 491.432437 73.0832 
L 314.584 73.0832 
Q 312.584 73.0832 312.584 75.0832 
L 312.584 118.95195 
Q 312.584 120.95195 314.584 120.95195 
z
" style="fill: #ffffff; opacity: 0.8; stroke: #cccccc; stroke-linejoin: miter"/>
    </g>
    <g id="line2d_39">
     <path d="M 316.584 81.181637 
L 326.584 81.181637 
L 336.584 81.181637 
" style="fill: none; stroke-dasharray: 7.4,3.2; stroke-dashoffset: 0; stroke: #ffa500; stroke-width: 2"/>
    </g>
    <g id="text_16">
     <!-- Mean: N_e = [200], 1.000 kA -->
     <g transform="translate(344.584 84.681637) scale(0.1 -0.1)">
      <defs>
       <path id="DejaVuSans-4d" d="M 628 4666 
L 1569 4666 
L 2759 1491 
L 3956 4666 
L 4897 4666 
L 4897 0 
L 4281 0 
L 4281 4097 
L 3078 897 
L 2444 897 
L 1241 4097 
L 1241 0 
L 628 0 
L 628 4666 
z
" transform="scale(0.015625)"/>
       <path id="DejaVuSans-3a" d="M 750 794 
L 1409 794 
L 1409 0 
L 750 0 
L 750 794 
z
M 750 3309 
L 1409 3309 
L 1409 2516 
L 750 2516 
L 750 3309 
z
" transform="scale(0.015625)"/>
       <path id="DejaVuSans-4e" d="M 628 4666 
L 1478 4666 
L 3547 763 
L 3547 4666 
L 4159 4666 
L 4159 0 
L 3309 0 
L 1241 3903 
L 1241 0 
L 628 0 
L 628 4666 
z
" transform="scale(0.015625)"/>
       <path id="DejaVuSans-5f" d="M 3263 -1063 
L 3263 -1509 
L -63 -1509 
L -63 -1063 
L 3263 -1063 
z
" transform="scale(0.015625)"/>
       <path id="DejaVuSans-3d" d="M 678 2906 
L 4684 2906 
L 4684 2381 
L 678 2381 
L 678 2906 
z
M 678 1631 
L 4684 1631 
L 4684 1100 
L 678 1100 
L 678 1631 
z
" transform="scale(0.015625)"/>
       <path id="DejaVuSans-5b" d="M 550 4863 
L 1875 4863 
L 1875 4416 
L 1125 4416 
L 1125 -397 
L 1875 -397 
L 1875 -844 
L 550 -844 
L 550 4863 
z
" transform="scale(0.015625)"/>
       <path id="DejaVuSans-5d" d="M 1947 4863 
L 1947 -844 
L 622 -844 
L 622 -397 
L 1369 -397 
L 1369 4416 
L 622 4416 
L 622 4863 
L 1947 4863 
z
" transform="scale(0.015625)"/>
       <path id="DejaVuSans-2c" d="M 750 794 
L 1409 794 
L 1409 256 
L 897 -744 
L 494 -744 
L 750 256 
L 750 794 
z
" transform="scale(0.015625)"/>
       <path id="DejaVuSans-6b" d="M 581 4863 
L 1159 4863 
L 1159 1991 
L 2875 3500 
L 3609 3500 
L 1753 1863 
L 3688 0 
L 2938 0 
L 1159 1709 
L 1159 0 
L 581 0 
L 581 4863 
z
" transform="scale(0.015625)"/>
       <path id="DejaVuSans-41" d="M 2188 4044 
L 1331 1722 
L 3047 1722 
L 2188 4044 
z
M 1831 4666 
L 2547 4666 
L 4325 0 
L 3669 0 
L 3244 1197 
L 1141 1197 
L 716 0 
L 50 0 
L 1831 4666 
z
" transform="scale(0.015625)"/>
      </defs>
      <use xlink:href="#DejaVuSans-4d"/>
      <use xlink:href="#DejaVuSans-65" transform="translate(86.279297 0)"/>
      <use xlink:href="#DejaVuSans-61" transform="translate(147.802734 0)"/>
      <use xlink:href="#DejaVuSans-6e" transform="translate(209.082031 0)"/>
      <use xlink:href="#DejaVuSans-3a" transform="translate(272.460938 0)"/>
      <use xlink:href="#DejaVuSans-20" transform="translate(306.152344 0)"/>
      <use xlink:href="#DejaVuSans-4e" transform="translate(337.939453 0)"/>
      <use xlink:href="#DejaVuSans-5f" transform="translate(412.744141 0)"/>
      <use xlink:href="#DejaVuSans-65" transform="translate(462.744141 0)"/>
      <use xlink:href="#DejaVuSans-20" transform="translate(524.267578 0)"/>
      <use xlink:href="#DejaVuSans-3d" transform="translate(556.054688 0)"/>
      <use xlink:href="#DejaVuSans-20" transform="translate(639.84375 0)"/>
      <use xlink:href="#DejaVuSans-5b" transform="translate(671.630859 0)"/>
      <use xlink:href="#DejaVuSans-32" transform="translate(710.644531 0)"/>
      <use xlink:href="#DejaVuSans-30" transform="translate(774.267578 0)"/>
      <use xlink:href="#DejaVuSans-30" transform="translate(837.890625 0)"/>
      <use xlink:href="#DejaVuSans-5d" transform="translate(901.513672 0)"/>
      <use xlink:href="#DejaVuSans-2c" transform="translate(940.527344 0)"/>
      <use xlink:href="#DejaVuSans-20" transform="translate(972.314453 0)"/>
      <use xlink:href="#DejaVuSans-31" transform="translate(1004.101562 0)"/>
      <use xlink:href="#DejaVuSans-2e" transform="translate(1067.724609 0)"/>
      <use xlink:href="#DejaVuSans-30" transform="translate(1099.511719 0)"/>
      <use xlink:href="#DejaVuSans-30" transform="translate(1163.134766 0)"/>
      <use xlink:href="#DejaVuSans-30" transform="translate(1226.757812 0)"/>
      <use xlink:href="#DejaVuSans-20" transform="translate(1290.380859 0)"/>
      <use xlink:href="#DejaVuSans-6b" transform="translate(1322.167969 0)"/>
      <use xlink:href="#DejaVuSans-41" transform="translate(1380.078125 0)"/>
     </g>
    </g>
    <g id="line2d_40">
     <path d="M 316.584 96.137887 
L 326.584 96.137887 
L 336.584 96.137887 
" style="fill: none; stroke-dasharray: 7.4,3.2; stroke-dashoffset: 0; stroke: #ffa500; stroke-width: 2"/>
    </g>
    <g id="text_17">
     <!-- Mean: N_e = [200], 1.999 kA -->
     <g transform="translate(344.584 99.637887) scale(0.1 -0.1)">
      <defs>
       <path id="DejaVuSans-39" d="M 703 97 
L 703 672 
Q 941 559 1184 500 
Q 1428 441 1663 441 
Q 2288 441 2617 861 
Q 2947 1281 2994 2138 
Q 2813 1869 2534 1725 
Q 2256 1581 1919 1581 
Q 1219 1581 811 2004 
Q 403 2428 403 3163 
Q 403 3881 828 4315 
Q 1253 4750 1959 4750 
Q 2769 4750 3195 4129 
Q 3622 3509 3622 2328 
Q 3622 1225 3098 567 
Q 2575 -91 1691 -91 
Q 1453 -91 1209 -44 
Q 966 3 703 97 
z
M 1959 2075 
Q 2384 2075 2632 2365 
Q 2881 2656 2881 3163 
Q 2881 3666 2632 3958 
Q 2384 4250 1959 4250 
Q 1534 4250 1286 3958 
Q 1038 3666 1038 3163 
Q 1038 2656 1286 2365 
Q 1534 2075 1959 2075 
z
" transform="scale(0.015625)"/>
      </defs>
      <use xlink:href="#DejaVuSans-4d"/>
      <use xlink:href="#DejaVuSans-65" transform="translate(86.279297 0)"/>
      <use xlink:href="#DejaVuSans-61" transform="translate(147.802734 0)"/>
      <use xlink:href="#DejaVuSans-6e" transform="translate(209.082031 0)"/>
      <use xlink:href="#DejaVuSans-3a" transform="translate(272.460938 0)"/>
      <use xlink:href="#DejaVuSans-20" transform="translate(306.152344 0)"/>
      <use xlink:href="#DejaVuSans-4e" transform="translate(337.939453 0)"/>
      <use xlink:href="#DejaVuSans-5f" transform="translate(412.744141 0)"/>
      <use xlink:href="#DejaVuSans-65" transform="translate(462.744141 0)"/>
      <use xlink:href="#DejaVuSans-20" transform="translate(524.267578 0)"/>
      <use xlink:href="#DejaVuSans-3d" transform="translate(556.054688 0)"/>
      <use xlink:href="#DejaVuSans-20" transform="translate(639.84375 0)"/>
      <use xlink:href="#DejaVuSans-5b" transform="translate(671.630859 0)"/>
      <use xlink:href="#DejaVuSans-32" transform="translate(710.644531 0)"/>
      <use xlink:href="#DejaVuSans-30" transform="translate(774.267578 0)"/>
      <use xlink:href="#DejaVuSans-30" transform="translate(837.890625 0)"/>
      <use xlink:href="#DejaVuSans-5d" transform="translate(901.513672 0)"/>
      <use xlink:href="#DejaVuSans-2c" transform="translate(940.527344 0)"/>
      <use xlink:href="#DejaVuSans-20" transform="translate(972.314453 0)"/>
      <use xlink:href="#DejaVuSans-31" transform="translate(1004.101562 0)"/>
      <use xlink:href="#DejaVuSans-2e" transform="translate(1067.724609 0)"/>
      <use xlink:href="#DejaVuSans-39" transform="translate(1099.511719 0)"/>
      <use xlink:href="#DejaVuSans-39" transform="translate(1163.134766 0)"/>
      <use xlink:href="#DejaVuSans-39" transform="translate(1226.757812 0)"/>
      <use xlink:href="#DejaVuSans-20" transform="translate(1290.380859 0)"/>
      <use xlink:href="#DejaVuSans-6b" transform="translate(1322.167969 0)"/>
      <use xlink:href="#DejaVuSans-41" transform="translate(1380.078125 0)"/>
     </g>
    </g>
    <g id="line2d_41">
     <path d="M 316.584 111.094137 
L 326.584 111.094137 
L 336.584 111.094137 
" style="fill: none; stroke-dasharray: 7.4,3.2; stroke-dashoffset: 0; stroke: #ffa500; stroke-width: 2"/>
    </g>
    <g id="text_18">
     <!-- Mean: N_e = [200], 2.999 kA -->
     <g transform="translate(344.584 114.594137) scale(0.1 -0.1)">
      <use xlink:href="#DejaVuSans-4d"/>
      <use xlink:href="#DejaVuSans-65" transform="translate(86.279297 0)"/>
      <use xlink:href="#DejaVuSans-61" transform="translate(147.802734 0)"/>
      <use xlink:href="#DejaVuSans-6e" transform="translate(209.082031 0)"/>
      <use xlink:href="#DejaVuSans-3a" transform="translate(272.460938 0)"/>
      <use xlink:href="#DejaVuSans-20" transform="translate(306.152344 0)"/>
      <use xlink:href="#DejaVuSans-4e" transform="translate(337.939453 0)"/>
      <use xlink:href="#DejaVuSans-5f" transform="translate(412.744141 0)"/>
      <use xlink:href="#DejaVuSans-65" transform="translate(462.744141 0)"/>
      <use xlink:href="#DejaVuSans-20" transform="translate(524.267578 0)"/>
      <use xlink:href="#DejaVuSans-3d" transform="translate(556.054688 0)"/>
      <use xlink:href="#DejaVuSans-20" transform="translate(639.84375 0)"/>
      <use xlink:href="#DejaVuSans-5b" transform="translate(671.630859 0)"/>
      <use xlink:href="#DejaVuSans-32" transform="translate(710.644531 0)"/>
      <use xlink:href="#DejaVuSans-30" transform="translate(774.267578 0)"/>
      <use xlink:href="#DejaVuSans-30" transform="translate(837.890625 0)"/>
      <use xlink:href="#DejaVuSans-5d" transform="translate(901.513672 0)"/>
      <use xlink:href="#DejaVuSans-2c" transform="translate(940.527344 0)"/>
      <use xlink:href="#DejaVuSans-20" transform="translate(972.314453 0)"/>
      <use xlink:href="#DejaVuSans-32" transform="translate(1004.101562 0)"/>
      <use xlink:href="#DejaVuSans-2e" transform="translate(1067.724609 0)"/>
      <use xlink:href="#DejaVuSans-39" transform="translate(1099.511719 0)"/>
      <use xlink:href="#DejaVuSans-39" transform="translate(1163.134766 0)"/>
      <use xlink:href="#DejaVuSans-39" transform="translate(1226.757812 0)"/>
      <use xlink:href="#DejaVuSans-20" transform="translate(1290.380859 0)"/>
      <use xlink:href="#DejaVuSans-6b" transform="translate(1322.167969 0)"/>
      <use xlink:href="#DejaVuSans-41" transform="translate(1380.078125 0)"/>
     </g>
    </g>
   </g>
  </g>
 </g>
 <defs>
  <clipPath id="p1db4ad1d67">
   <rect x="57.6" y="41.472" width="357.12" height="266.112"/>
  </clipPath>
 </defs>
</svg>
