<?xml version="1.0" encoding="utf-8" standalone="no"?>
<!DOCTYPE svg PUBLIC "-//W3C//DTD SVG 1.1//EN"
  "http://www.w3.org/Graphics/SVG/1.1/DTD/svg11.dtd">
<svg xmlns:xlink="http://www.w3.org/1999/xlink" width="460.8pt" height="345.6pt" viewBox="0 0 460.8 345.6" xmlns="http://www.w3.org/2000/svg" version="1.1">
 <metadata>
  <rdf:RDF xmlns:dc="http://purl.org/dc/elements/1.1/" xmlns:cc="http://creativecommons.org/ns#" xmlns:rdf="http://www.w3.org/1999/02/22-rdf-syntax-ns#">
   <cc:Work>
    <dc:type rdf:resource="http://purl.org/dc/dcmitype/StillImage"/>
    <dc:date>2025-03-12T19:59:46.991025</dc:date>
    <dc:format>image/svg+xml</dc:format>
    <dc:creator>
     <cc:Agent>
      <dc:title>Matplotlib v3.10.0, https://matplotlib.org/</dc:title>
     </cc:Agent>
    </dc:creator>
   </cc:Work>
  </rdf:RDF>
 </metadata>
 <defs>
  <style type="text/css">*{stroke-linejoin: round; stroke-linecap: butt}</style>
 </defs>
 <g id="figure_1">
  <g id="patch_1">
   <path d="M 0 345.6 
L 460.8 345.6 
L 460.8 0 
L 0 0 
z
" style="fill: #ffffff"/>
  </g>
  <g id="axes_1">
   <g id="patch_2">
    <path d="M 57.6 307.584 
L 414.72 307.584 
L 414.72 41.472 
L 57.6 41.472 
z
" style="fill: #ffffff"/>
   </g>
   <g id="matplotlib.axis_1">
    <g id="xtick_1">
     <g id="line2d_1">
      <defs>
       <path id="m641e600c32" d="M 0 0 
L 0 3.5 
" style="stroke: #000000; stroke-width: 0.8"/>
      </defs>
      <g>
       <use xlink:href="#m641e600c32" x="65.630928" y="307.584" style="stroke: #000000; stroke-width: 0.8"/>
      </g>
     </g>
     <g id="text_1">
      <!-- 0 -->
      <g transform="translate(62.449678 322.182437) scale(0.1 -0.1)">
       <defs>
        <path id="DejaVuSans-30" d="M 2034 4250 
Q 1547 4250 1301 3770 
Q 1056 3291 1056 2328 
Q 1056 1369 1301 889 
Q 1547 409 2034 409 
Q 2525 409 2770 889 
Q 3016 1369 3016 2328 
Q 3016 3291 2770 3770 
Q 2525 4250 2034 4250 
z
M 2034 4750 
Q 2819 4750 3233 4129 
Q 3647 3509 3647 2328 
Q 3647 1150 3233 529 
Q 2819 -91 2034 -91 
Q 1250 -91 836 529 
Q 422 1150 422 2328 
Q 422 3509 836 4129 
Q 1250 4750 2034 4750 
z
" transform="scale(0.015625)"/>
       </defs>
       <use xlink:href="#DejaVuSans-30"/>
      </g>
     </g>
    </g>
    <g id="xtick_2">
     <g id="line2d_2">
      <g>
       <use xlink:href="#m641e600c32" x="133.979254" y="307.584" style="stroke: #000000; stroke-width: 0.8"/>
      </g>
     </g>
     <g id="text_2">
      <!-- 200 -->
      <g transform="translate(124.435504 322.182437) scale(0.1 -0.1)">
       <defs>
        <path id="DejaVuSans-32" d="M 1228 531 
L 3431 531 
L 3431 0 
L 469 0 
L 469 531 
Q 828 903 1448 1529 
Q 2069 2156 2228 2338 
Q 2531 2678 2651 2914 
Q 2772 3150 2772 3378 
Q 2772 3750 2511 3984 
Q 2250 4219 1831 4219 
Q 1534 4219 1204 4116 
Q 875 4013 500 3803 
L 500 4441 
Q 881 4594 1212 4672 
Q 1544 4750 1819 4750 
Q 2544 4750 2975 4387 
Q 3406 4025 3406 3419 
Q 3406 3131 3298 2873 
Q 3191 2616 2906 2266 
Q 2828 2175 2409 1742 
Q 1991 1309 1228 531 
z
" transform="scale(0.015625)"/>
       </defs>
       <use xlink:href="#DejaVuSans-32"/>
       <use xlink:href="#DejaVuSans-30" transform="translate(63.623047 0)"/>
       <use xlink:href="#DejaVuSans-30" transform="translate(127.246094 0)"/>
      </g>
     </g>
    </g>
    <g id="xtick_3">
     <g id="line2d_3">
      <g>
       <use xlink:href="#m641e600c32" x="202.327579" y="307.584" style="stroke: #000000; stroke-width: 0.8"/>
      </g>
     </g>
     <g id="text_3">
      <!-- 400 -->
      <g transform="translate(192.783829 322.182437) scale(0.1 -0.1)">
       <defs>
        <path id="DejaVuSans-34" d="M 2419 4116 
L 825 1625 
L 2419 1625 
L 2419 4116 
z
M 2253 4666 
L 3047 4666 
L 3047 1625 
L 3713 1625 
L 3713 1100 
L 3047 1100 
L 3047 0 
L 2419 0 
L 2419 1100 
L 313 1100 
L 313 1709 
L 2253 4666 
z
" transform="scale(0.015625)"/>
       </defs>
       <use xlink:href="#DejaVuSans-34"/>
       <use xlink:href="#DejaVuSans-30" transform="translate(63.623047 0)"/>
       <use xlink:href="#DejaVuSans-30" transform="translate(127.246094 0)"/>
      </g>
     </g>
    </g>
    <g id="xtick_4">
     <g id="line2d_4">
      <g>
       <use xlink:href="#m641e600c32" x="270.675904" y="307.584" style="stroke: #000000; stroke-width: 0.8"/>
      </g>
     </g>
     <g id="text_4">
      <!-- 600 -->
      <g transform="translate(261.132154 322.182437) scale(0.1 -0.1)">
       <defs>
        <path id="DejaVuSans-36" d="M 2113 2584 
Q 1688 2584 1439 2293 
Q 1191 2003 1191 1497 
Q 1191 994 1439 701 
Q 1688 409 2113 409 
Q 2538 409 2786 701 
Q 3034 994 3034 1497 
Q 3034 2003 2786 2293 
Q 2538 2584 2113 2584 
z
M 3366 4563 
L 3366 3988 
Q 3128 4100 2886 4159 
Q 2644 4219 2406 4219 
Q 1781 4219 1451 3797 
Q 1122 3375 1075 2522 
Q 1259 2794 1537 2939 
Q 1816 3084 2150 3084 
Q 2853 3084 3261 2657 
Q 3669 2231 3669 1497 
Q 3669 778 3244 343 
Q 2819 -91 2113 -91 
Q 1303 -91 875 529 
Q 447 1150 447 2328 
Q 447 3434 972 4092 
Q 1497 4750 2381 4750 
Q 2619 4750 2861 4703 
Q 3103 4656 3366 4563 
z
" transform="scale(0.015625)"/>
       </defs>
       <use xlink:href="#DejaVuSans-36"/>
       <use xlink:href="#DejaVuSans-30" transform="translate(63.623047 0)"/>
       <use xlink:href="#DejaVuSans-30" transform="translate(127.246094 0)"/>
      </g>
     </g>
    </g>
    <g id="xtick_5">
     <g id="line2d_5">
      <g>
       <use xlink:href="#m641e600c32" x="339.02423" y="307.584" style="stroke: #000000; stroke-width: 0.8"/>
      </g>
     </g>
     <g id="text_5">
      <!-- 800 -->
      <g transform="translate(329.48048 322.182437) scale(0.1 -0.1)">
       <defs>
        <path id="DejaVuSans-38" d="M 2034 2216 
Q 1584 2216 1326 1975 
Q 1069 1734 1069 1313 
Q 1069 891 1326 650 
Q 1584 409 2034 409 
Q 2484 409 2743 651 
Q 3003 894 3003 1313 
Q 3003 1734 2745 1975 
Q 2488 2216 2034 2216 
z
M 1403 2484 
Q 997 2584 770 2862 
Q 544 3141 544 3541 
Q 544 4100 942 4425 
Q 1341 4750 2034 4750 
Q 2731 4750 3128 4425 
Q 3525 4100 3525 3541 
Q 3525 3141 3298 2862 
Q 3072 2584 2669 2484 
Q 3125 2378 3379 2068 
Q 3634 1759 3634 1313 
Q 3634 634 3220 271 
Q 2806 -91 2034 -91 
Q 1263 -91 848 271 
Q 434 634 434 1313 
Q 434 1759 690 2068 
Q 947 2378 1403 2484 
z
M 1172 3481 
Q 1172 3119 1398 2916 
Q 1625 2713 2034 2713 
Q 2441 2713 2670 2916 
Q 2900 3119 2900 3481 
Q 2900 3844 2670 4047 
Q 2441 4250 2034 4250 
Q 1625 4250 1398 4047 
Q 1172 3844 1172 3481 
z
" transform="scale(0.015625)"/>
       </defs>
       <use xlink:href="#DejaVuSans-38"/>
       <use xlink:href="#DejaVuSans-30" transform="translate(63.623047 0)"/>
       <use xlink:href="#DejaVuSans-30" transform="translate(127.246094 0)"/>
      </g>
     </g>
    </g>
    <g id="xtick_6">
     <g id="line2d_6">
      <g>
       <use xlink:href="#m641e600c32" x="407.372555" y="307.584" style="stroke: #000000; stroke-width: 0.8"/>
      </g>
     </g>
     <g id="text_6">
      <!-- 1000 -->
      <g transform="translate(394.647555 322.182437) scale(0.1 -0.1)">
       <defs>
        <path id="DejaVuSans-31" d="M 794 531 
L 1825 531 
L 1825 4091 
L 703 3866 
L 703 4441 
L 1819 4666 
L 2450 4666 
L 2450 531 
L 3481 531 
L 3481 0 
L 794 0 
L 794 531 
z
" transform="scale(0.015625)"/>
       </defs>
       <use xlink:href="#DejaVuSans-31"/>
       <use xlink:href="#DejaVuSans-30" transform="translate(63.623047 0)"/>
       <use xlink:href="#DejaVuSans-30" transform="translate(127.246094 0)"/>
       <use xlink:href="#DejaVuSans-30" transform="translate(190.869141 0)"/>
      </g>
     </g>
    </g>
    <g id="text_7">
     <!-- Temperature ($^{\circ}C$) -->
     <g transform="translate(192.16 335.862125) scale(0.1 -0.1)">
      <defs>
       <path id="DejaVuSans-54" d="M -19 4666 
L 3928 4666 
L 3928 4134 
L 2272 4134 
L 2272 0 
L 1638 0 
L 1638 4134 
L -19 4134 
L -19 4666 
z
" transform="scale(0.015625)"/>
       <path id="DejaVuSans-65" d="M 3597 1894 
L 3597 1613 
L 953 1613 
Q 991 1019 1311 708 
Q 1631 397 2203 397 
Q 2534 397 2845 478 
Q 3156 559 3463 722 
L 3463 178 
Q 3153 47 2828 -22 
Q 2503 -91 2169 -91 
Q 1331 -91 842 396 
Q 353 884 353 1716 
Q 353 2575 817 3079 
Q 1281 3584 2069 3584 
Q 2775 3584 3186 3129 
Q 3597 2675 3597 1894 
z
M 3022 2063 
Q 3016 2534 2758 2815 
Q 2500 3097 2075 3097 
Q 1594 3097 1305 2825 
Q 1016 2553 972 2059 
L 3022 2063 
z
" transform="scale(0.015625)"/>
       <path id="DejaVuSans-6d" d="M 3328 2828 
Q 3544 3216 3844 3400 
Q 4144 3584 4550 3584 
Q 5097 3584 5394 3201 
Q 5691 2819 5691 2113 
L 5691 0 
L 5113 0 
L 5113 2094 
Q 5113 2597 4934 2840 
Q 4756 3084 4391 3084 
Q 3944 3084 3684 2787 
Q 3425 2491 3425 1978 
L 3425 0 
L 2847 0 
L 2847 2094 
Q 2847 2600 2669 2842 
Q 2491 3084 2119 3084 
Q 1678 3084 1418 2786 
Q 1159 2488 1159 1978 
L 1159 0 
L 581 0 
L 581 3500 
L 1159 3500 
L 1159 2956 
Q 1356 3278 1631 3431 
Q 1906 3584 2284 3584 
Q 2666 3584 2933 3390 
Q 3200 3197 3328 2828 
z
" transform="scale(0.015625)"/>
       <path id="DejaVuSans-70" d="M 1159 525 
L 1159 -1331 
L 581 -1331 
L 581 3500 
L 1159 3500 
L 1159 2969 
Q 1341 3281 1617 3432 
Q 1894 3584 2278 3584 
Q 2916 3584 3314 3078 
Q 3713 2572 3713 1747 
Q 3713 922 3314 415 
Q 2916 -91 2278 -91 
Q 1894 -91 1617 61 
Q 1341 213 1159 525 
z
M 3116 1747 
Q 3116 2381 2855 2742 
Q 2594 3103 2138 3103 
Q 1681 3103 1420 2742 
Q 1159 2381 1159 1747 
Q 1159 1113 1420 752 
Q 1681 391 2138 391 
Q 2594 391 2855 752 
Q 3116 1113 3116 1747 
z
" transform="scale(0.015625)"/>
       <path id="DejaVuSans-72" d="M 2631 2963 
Q 2534 3019 2420 3045 
Q 2306 3072 2169 3072 
Q 1681 3072 1420 2755 
Q 1159 2438 1159 1844 
L 1159 0 
L 581 0 
L 581 3500 
L 1159 3500 
L 1159 2956 
Q 1341 3275 1631 3429 
Q 1922 3584 2338 3584 
Q 2397 3584 2469 3576 
Q 2541 3569 2628 3553 
L 2631 2963 
z
" transform="scale(0.015625)"/>
       <path id="DejaVuSans-61" d="M 2194 1759 
Q 1497 1759 1228 1600 
Q 959 1441 959 1056 
Q 959 750 1161 570 
Q 1363 391 1709 391 
Q 2188 391 2477 730 
Q 2766 1069 2766 1631 
L 2766 1759 
L 2194 1759 
z
M 3341 1997 
L 3341 0 
L 2766 0 
L 2766 531 
Q 2569 213 2275 61 
Q 1981 -91 1556 -91 
Q 1019 -91 701 211 
Q 384 513 384 1019 
Q 384 1609 779 1909 
Q 1175 2209 1959 2209 
L 2766 2209 
L 2766 2266 
Q 2766 2663 2505 2880 
Q 2244 3097 1772 3097 
Q 1472 3097 1187 3025 
Q 903 2953 641 2809 
L 641 3341 
Q 956 3463 1253 3523 
Q 1550 3584 1831 3584 
Q 2591 3584 2966 3190 
Q 3341 2797 3341 1997 
z
" transform="scale(0.015625)"/>
       <path id="DejaVuSans-74" d="M 1172 4494 
L 1172 3500 
L 2356 3500 
L 2356 3053 
L 1172 3053 
L 1172 1153 
Q 1172 725 1289 603 
Q 1406 481 1766 481 
L 2356 481 
L 2356 0 
L 1766 0 
Q 1100 0 847 248 
Q 594 497 594 1153 
L 594 3053 
L 172 3053 
L 172 3500 
L 594 3500 
L 594 4494 
L 1172 4494 
z
" transform="scale(0.015625)"/>
       <path id="DejaVuSans-75" d="M 544 1381 
L 544 3500 
L 1119 3500 
L 1119 1403 
Q 1119 906 1312 657 
Q 1506 409 1894 409 
Q 2359 409 2629 706 
Q 2900 1003 2900 1516 
L 2900 3500 
L 3475 3500 
L 3475 0 
L 2900 0 
L 2900 538 
Q 2691 219 2414 64 
Q 2138 -91 1772 -91 
Q 1169 -91 856 284 
Q 544 659 544 1381 
z
M 1991 3584 
L 1991 3584 
z
" transform="scale(0.015625)"/>
       <path id="DejaVuSans-20" transform="scale(0.015625)"/>
       <path id="DejaVuSans-28" d="M 1984 4856 
Q 1566 4138 1362 3434 
Q 1159 2731 1159 2009 
Q 1159 1288 1364 580 
Q 1569 -128 1984 -844 
L 1484 -844 
Q 1016 -109 783 600 
Q 550 1309 550 2009 
Q 550 2706 781 3412 
Q 1013 4119 1484 4856 
L 1984 4856 
z
" transform="scale(0.015625)"/>
       <path id="DejaVuSans-2218" d="M 2000 2619 
Q 1750 2619 1578 2445 
Q 1406 2272 1406 2022 
Q 1406 1775 1578 1605 
Q 1750 1435 2000 1435 
Q 2250 1435 2422 1605 
Q 2594 1775 2594 2022 
Q 2594 2269 2420 2444 
Q 2247 2619 2000 2619 
z
M 2000 3022 
Q 2200 3022 2384 2945 
Q 2569 2869 2703 2725 
Q 2847 2585 2919 2406 
Q 2991 2228 2991 2022 
Q 2991 1610 2702 1324 
Q 2413 1038 1994 1038 
Q 1572 1038 1290 1319 
Q 1009 1600 1009 2022 
Q 1009 2441 1296 2731 
Q 1584 3022 2000 3022 
z
" transform="scale(0.015625)"/>
       <path id="DejaVuSans-Oblique-43" d="M 4447 4306 
L 4319 3641 
Q 4019 3944 3683 4091 
Q 3347 4238 2956 4238 
Q 2422 4238 2017 3981 
Q 1613 3725 1319 3200 
Q 1131 2863 1032 2486 
Q 934 2109 934 1728 
Q 934 1091 1264 756 
Q 1594 422 2222 422 
Q 2656 422 3056 561 
Q 3456 700 3834 978 
L 3688 231 
Q 3316 72 2936 -9 
Q 2556 -91 2175 -91 
Q 1278 -91 773 396 
Q 269 884 269 1753 
Q 269 2309 461 2846 
Q 653 3384 1013 3828 
Q 1394 4300 1883 4525 
Q 2372 4750 3022 4750 
Q 3422 4750 3780 4639 
Q 4138 4528 4447 4306 
z
" transform="scale(0.015625)"/>
       <path id="DejaVuSans-29" d="M 513 4856 
L 1013 4856 
Q 1481 4119 1714 3412 
Q 1947 2706 1947 2009 
Q 1947 1309 1714 600 
Q 1481 -109 1013 -844 
L 513 -844 
Q 928 -128 1133 580 
Q 1338 1288 1338 2009 
Q 1338 2731 1133 3434 
Q 928 4138 513 4856 
z
" transform="scale(0.015625)"/>
      </defs>
      <use xlink:href="#DejaVuSans-54" transform="translate(0 0.125)"/>
      <use xlink:href="#DejaVuSans-65" transform="translate(61.083984 0.125)"/>
      <use xlink:href="#DejaVuSans-6d" transform="translate(122.607422 0.125)"/>
      <use xlink:href="#DejaVuSans-70" transform="translate(220.019531 0.125)"/>
      <use xlink:href="#DejaVuSans-65" transform="translate(283.496094 0.125)"/>
      <use xlink:href="#DejaVuSans-72" transform="translate(345.019531 0.125)"/>
      <use xlink:href="#DejaVuSans-61" transform="translate(386.132812 0.125)"/>
      <use xlink:href="#DejaVuSans-74" transform="translate(447.412109 0.125)"/>
      <use xlink:href="#DejaVuSans-75" transform="translate(486.621094 0.125)"/>
      <use xlink:href="#DejaVuSans-72" transform="translate(550 0.125)"/>
      <use xlink:href="#DejaVuSans-65" transform="translate(591.113281 0.125)"/>
      <use xlink:href="#DejaVuSans-20" transform="translate(652.636719 0.125)"/>
      <use xlink:href="#DejaVuSans-28" transform="translate(684.423828 0.125)"/>
      <use xlink:href="#DejaVuSans-2218" transform="translate(724.394531 38.40625) scale(0.7)"/>
      <use xlink:href="#DejaVuSans-Oblique-43" transform="translate(770.947266 0.125)"/>
      <use xlink:href="#DejaVuSans-29" transform="translate(840.771484 0.125)"/>
     </g>
    </g>
   </g>
   <g id="matplotlib.axis_2">
    <g id="ytick_1">
     <g id="line2d_7">
      <defs>
       <path id="m4514ce13e6" d="M 0 0 
L -3.5 0 
" style="stroke: #000000; stroke-width: 0.8"/>
      </defs>
      <g>
       <use xlink:href="#m4514ce13e6" x="57.6" y="295.488" style="stroke: #000000; stroke-width: 0.8"/>
      </g>
     </g>
     <g id="text_8">
      <!-- 0.0 -->
      <g transform="translate(34.696875 299.287219) scale(0.1 -0.1)">
       <defs>
        <path id="DejaVuSans-2e" d="M 684 794 
L 1344 794 
L 1344 0 
L 684 0 
L 684 794 
z
" transform="scale(0.015625)"/>
       </defs>
       <use xlink:href="#DejaVuSans-30"/>
       <use xlink:href="#DejaVuSans-2e" transform="translate(63.623047 0)"/>
       <use xlink:href="#DejaVuSans-30" transform="translate(95.410156 0)"/>
      </g>
     </g>
    </g>
    <g id="ytick_2">
     <g id="line2d_8">
      <g>
       <use xlink:href="#m4514ce13e6" x="57.6" y="247.58305" style="stroke: #000000; stroke-width: 0.8"/>
      </g>
     </g>
     <g id="text_9">
      <!-- 0.2 -->
      <g transform="translate(34.696875 251.382268) scale(0.1 -0.1)">
       <use xlink:href="#DejaVuSans-30"/>
       <use xlink:href="#DejaVuSans-2e" transform="translate(63.623047 0)"/>
       <use xlink:href="#DejaVuSans-32" transform="translate(95.410156 0)"/>
      </g>
     </g>
    </g>
    <g id="ytick_3">
     <g id="line2d_9">
      <g>
       <use xlink:href="#m4514ce13e6" x="57.6" y="199.678099" style="stroke: #000000; stroke-width: 0.8"/>
      </g>
     </g>
     <g id="text_10">
      <!-- 0.4 -->
      <g transform="translate(34.696875 203.477318) scale(0.1 -0.1)">
       <use xlink:href="#DejaVuSans-30"/>
       <use xlink:href="#DejaVuSans-2e" transform="translate(63.623047 0)"/>
       <use xlink:href="#DejaVuSans-34" transform="translate(95.410156 0)"/>
      </g>
     </g>
    </g>
    <g id="ytick_4">
     <g id="line2d_10">
      <g>
       <use xlink:href="#m4514ce13e6" x="57.6" y="151.773149" style="stroke: #000000; stroke-width: 0.8"/>
      </g>
     </g>
     <g id="text_11">
      <!-- 0.6 -->
      <g transform="translate(34.696875 155.572367) scale(0.1 -0.1)">
       <use xlink:href="#DejaVuSans-30"/>
       <use xlink:href="#DejaVuSans-2e" transform="translate(63.623047 0)"/>
       <use xlink:href="#DejaVuSans-36" transform="translate(95.410156 0)"/>
      </g>
     </g>
    </g>
    <g id="ytick_5">
     <g id="line2d_11">
      <g>
       <use xlink:href="#m4514ce13e6" x="57.6" y="103.868198" style="stroke: #000000; stroke-width: 0.8"/>
      </g>
     </g>
     <g id="text_12">
      <!-- 0.8 -->
      <g transform="translate(34.696875 107.667417) scale(0.1 -0.1)">
       <use xlink:href="#DejaVuSans-30"/>
       <use xlink:href="#DejaVuSans-2e" transform="translate(63.623047 0)"/>
       <use xlink:href="#DejaVuSans-38" transform="translate(95.410156 0)"/>
      </g>
     </g>
    </g>
    <g id="ytick_6">
     <g id="line2d_12">
      <g>
       <use xlink:href="#m4514ce13e6" x="57.6" y="55.963248" style="stroke: #000000; stroke-width: 0.8"/>
      </g>
     </g>
     <g id="text_13">
      <!-- 1.0 -->
      <g transform="translate(34.696875 59.762466) scale(0.1 -0.1)">
       <use xlink:href="#DejaVuSans-31"/>
       <use xlink:href="#DejaVuSans-2e" transform="translate(63.623047 0)"/>
       <use xlink:href="#DejaVuSans-30" transform="translate(95.410156 0)"/>
      </g>
     </g>
    </g>
    <g id="text_14">
     <!-- Intensity ($^{\circ}C^{-1}$) -->
     <g transform="translate(28.596875 213.328) rotate(-90) scale(0.1 -0.1)">
      <defs>
       <path id="DejaVuSans-49" d="M 628 4666 
L 1259 4666 
L 1259 0 
L 628 0 
L 628 4666 
z
" transform="scale(0.015625)"/>
       <path id="DejaVuSans-6e" d="M 3513 2113 
L 3513 0 
L 2938 0 
L 2938 2094 
Q 2938 2591 2744 2837 
Q 2550 3084 2163 3084 
Q 1697 3084 1428 2787 
Q 1159 2491 1159 1978 
L 1159 0 
L 581 0 
L 581 3500 
L 1159 3500 
L 1159 2956 
Q 1366 3272 1645 3428 
Q 1925 3584 2291 3584 
Q 2894 3584 3203 3211 
Q 3513 2838 3513 2113 
z
" transform="scale(0.015625)"/>
       <path id="DejaVuSans-73" d="M 2834 3397 
L 2834 2853 
Q 2591 2978 2328 3040 
Q 2066 3103 1784 3103 
Q 1356 3103 1142 2972 
Q 928 2841 928 2578 
Q 928 2378 1081 2264 
Q 1234 2150 1697 2047 
L 1894 2003 
Q 2506 1872 2764 1633 
Q 3022 1394 3022 966 
Q 3022 478 2636 193 
Q 2250 -91 1575 -91 
Q 1294 -91 989 -36 
Q 684 19 347 128 
L 347 722 
Q 666 556 975 473 
Q 1284 391 1588 391 
Q 1994 391 2212 530 
Q 2431 669 2431 922 
Q 2431 1156 2273 1281 
Q 2116 1406 1581 1522 
L 1381 1569 
Q 847 1681 609 1914 
Q 372 2147 372 2553 
Q 372 3047 722 3315 
Q 1072 3584 1716 3584 
Q 2034 3584 2315 3537 
Q 2597 3491 2834 3397 
z
" transform="scale(0.015625)"/>
       <path id="DejaVuSans-69" d="M 603 3500 
L 1178 3500 
L 1178 0 
L 603 0 
L 603 3500 
z
M 603 4863 
L 1178 4863 
L 1178 4134 
L 603 4134 
L 603 4863 
z
" transform="scale(0.015625)"/>
       <path id="DejaVuSans-79" d="M 2059 -325 
Q 1816 -950 1584 -1140 
Q 1353 -1331 966 -1331 
L 506 -1331 
L 506 -850 
L 844 -850 
Q 1081 -850 1212 -737 
Q 1344 -625 1503 -206 
L 1606 56 
L 191 3500 
L 800 3500 
L 1894 763 
L 2988 3500 
L 3597 3500 
L 2059 -325 
z
" transform="scale(0.015625)"/>
       <path id="DejaVuSans-2212" d="M 678 2272 
L 4684 2272 
L 4684 1741 
L 678 1741 
L 678 2272 
z
" transform="scale(0.015625)"/>
      </defs>
      <use xlink:href="#DejaVuSans-49" transform="translate(0 0.684375)"/>
      <use xlink:href="#DejaVuSans-6e" transform="translate(29.492188 0.684375)"/>
      <use xlink:href="#DejaVuSans-74" transform="translate(92.871094 0.684375)"/>
      <use xlink:href="#DejaVuSans-65" transform="translate(132.080078 0.684375)"/>
      <use xlink:href="#DejaVuSans-6e" transform="translate(193.603516 0.684375)"/>
      <use xlink:href="#DejaVuSans-73" transform="translate(256.982422 0.684375)"/>
      <use xlink:href="#DejaVuSans-69" transform="translate(309.082031 0.684375)"/>
      <use xlink:href="#DejaVuSans-74" transform="translate(336.865234 0.684375)"/>
      <use xlink:href="#DejaVuSans-79" transform="translate(376.074219 0.684375)"/>
      <use xlink:href="#DejaVuSans-20" transform="translate(435.253906 0.684375)"/>
      <use xlink:href="#DejaVuSans-28" transform="translate(467.041016 0.684375)"/>
      <use xlink:href="#DejaVuSans-2218" transform="translate(507.011719 38.965625) scale(0.7)"/>
      <use xlink:href="#DejaVuSans-Oblique-43" transform="translate(553.564453 0.684375)"/>
      <use xlink:href="#DejaVuSans-2212" transform="translate(630.589193 38.965625) scale(0.7)"/>
      <use xlink:href="#DejaVuSans-31" transform="translate(689.241536 38.965625) scale(0.7)"/>
      <use xlink:href="#DejaVuSans-29" transform="translate(736.512044 0.684375)"/>
     </g>
    </g>
   </g>
   <g id="line2d_13">
    <path d="M 73.832727 295.488 
L 92.628517 295.488 
L 92.970258 293.092752 
L 93.312 293.092752 
L 93.653742 290.697505 
L 94.337225 290.697505 
L 94.678967 288.302257 
L 95.36245 278.721267 
L 95.704191 276.32602 
L 96.387675 276.32602 
L 97.071158 271.535525 
L 99.463349 271.535525 
L 99.805091 266.74503 
L 101.172057 266.74503 
L 101.513799 264.349782 
L 102.539024 264.349782 
L 102.880766 261.954535 
L 103.222507 257.16404 
L 103.90599 257.16404 
L 104.247732 252.373545 
L 104.589474 252.373545 
L 105.614699 245.187802 
L 105.95644 245.187802 
L 106.298182 238.002059 
L 106.639923 235.606812 
L 107.665148 235.606812 
L 108.00689 233.211564 
L 108.348632 223.630574 
L 109.032115 214.049584 
L 109.373856 214.049584 
L 109.715598 211.654337 
L 110.05734 214.049584 
L 110.740823 214.049584 
L 111.424306 209.259089 
L 111.766048 209.259089 
L 112.791273 216.444832 
L 113.816498 209.259089 
L 114.158239 209.259089 
L 115.183464 202.073347 
L 115.866947 192.492356 
L 116.208689 190.097109 
L 116.550431 185.306614 
L 116.892172 187.701861 
L 117.917397 173.330376 
L 118.259139 166.144634 
L 119.626105 166.144634 
L 119.967847 163.749386 
L 120.309589 168.539881 
L 120.65133 158.958891 
L 120.993072 156.563644 
L 121.334813 158.958891 
L 121.676555 154.168396 
L 122.018297 156.563644 
L 122.70178 156.563644 
L 123.043522 154.168396 
L 123.385263 161.354139 
L 123.727005 158.958891 
L 124.068746 158.958891 
L 124.75223 149.377901 
L 125.093971 146.982653 
L 125.777455 151.773149 
L 126.119196 149.377901 
L 126.802679 149.377901 
L 127.144421 144.587406 
L 127.486163 142.192158 
L 128.169646 142.192158 
L 128.511388 144.587406 
L 128.853129 142.192158 
L 129.194871 137.401663 
L 129.536612 130.215921 
L 130.220096 120.634931 
L 130.561837 113.449188 
L 130.903579 111.053941 
L 131.245321 113.449188 
L 131.587062 108.658693 
L 131.928804 111.053941 
L 132.270545 108.658693 
L 132.612287 111.053941 
L 132.954029 115.844436 
L 133.29577 115.844436 
L 133.637512 111.053941 
L 133.979254 108.658693 
L 134.320995 113.449188 
L 135.34622 120.634931 
L 135.687962 115.844436 
L 136.029703 113.449188 
L 136.371445 103.868198 
L 136.713187 103.868198 
L 137.054928 101.47295 
L 137.39667 94.287208 
L 137.738411 99.077703 
L 138.080153 96.682455 
L 138.421895 91.89196 
L 138.763636 96.682455 
L 139.105378 89.496713 
L 139.44712 79.915723 
L 140.472344 79.915723 
L 140.814086 77.520475 
L 141.155828 70.334733 
L 141.839311 70.334733 
L 142.181053 72.72998 
L 142.522794 79.915723 
L 142.864536 77.520475 
L 143.206278 79.915723 
L 143.548019 75.125228 
L 143.889761 75.125228 
L 144.231502 79.915723 
L 144.914986 79.915723 
L 145.598469 75.125228 
L 145.940211 79.915723 
L 146.281952 82.31097 
L 146.623694 87.101465 
L 146.965435 89.496713 
L 147.307177 89.496713 
L 147.648919 94.287208 
L 147.99066 96.682455 
L 148.332402 94.287208 
L 148.674144 94.287208 
L 149.015885 82.31097 
L 149.699368 77.520475 
L 150.04111 72.72998 
L 150.382852 70.334733 
L 150.724593 77.520475 
L 151.066335 77.520475 
L 151.408077 72.72998 
L 151.749818 72.72998 
L 152.09156 70.334733 
L 152.433301 65.544238 
L 152.775043 67.939485 
L 153.116785 67.939485 
L 153.458526 77.520475 
L 153.800268 72.72998 
L 154.14201 77.520475 
L 154.825493 72.72998 
L 155.167234 72.72998 
L 155.508976 79.915723 
L 155.850718 79.915723 
L 156.192459 77.520475 
L 156.534201 82.31097 
L 156.875943 84.706218 
L 157.559426 75.125228 
L 157.901167 79.915723 
L 158.242909 87.101465 
L 158.926392 91.89196 
L 159.268134 89.496713 
L 159.609876 82.31097 
L 159.951617 82.31097 
L 160.293359 84.706218 
L 160.6351 84.706218 
L 160.976842 82.31097 
L 161.318584 75.125228 
L 161.660325 63.14899 
L 162.002067 60.753743 
L 162.343809 65.544238 
L 162.68555 65.544238 
L 163.027292 53.568 
L 163.710775 58.358495 
L 164.052517 55.963248 
L 164.394258 60.753743 
L 164.736 63.14899 
L 165.077742 63.14899 
L 165.419483 60.753743 
L 165.761225 67.939485 
L 166.444708 84.706218 
L 166.78645 84.706218 
L 167.128191 87.101465 
L 167.811675 82.31097 
L 168.153416 82.31097 
L 168.495158 84.706218 
L 168.8369 82.31097 
L 169.178641 84.706218 
L 169.520383 89.496713 
L 169.862124 87.101465 
L 170.203866 89.496713 
L 170.887349 84.706218 
L 171.229091 84.706218 
L 171.570833 94.287208 
L 171.912574 94.287208 
L 172.254316 99.077703 
L 172.596057 89.496713 
L 172.937799 84.706218 
L 173.279541 91.89196 
L 173.963024 91.89196 
L 174.646507 101.47295 
L 174.988249 103.868198 
L 175.32999 99.077703 
L 176.013474 103.868198 
L 176.355215 101.47295 
L 176.696957 103.868198 
L 177.038699 103.868198 
L 177.38044 96.682455 
L 177.722182 101.47295 
L 178.063923 96.682455 
L 178.405665 103.868198 
L 178.747407 118.239683 
L 179.089148 123.030178 
L 179.43089 115.844436 
L 179.772632 115.844436 
L 180.114373 125.425426 
L 181.48134 135.006416 
L 181.823081 135.006416 
L 182.506565 139.796911 
L 183.531789 132.611168 
L 183.873531 137.401663 
L 184.215273 130.215921 
L 184.557014 137.401663 
L 184.898756 139.796911 
L 185.240498 144.587406 
L 185.582239 142.192158 
L 185.923981 146.982653 
L 186.265722 149.377901 
L 186.607464 149.377901 
L 186.949206 154.168396 
L 187.290947 151.773149 
L 187.632689 151.773149 
L 187.974431 158.958891 
L 188.316172 158.958891 
L 188.657914 154.168396 
L 188.999656 158.958891 
L 189.341397 156.563644 
L 189.683139 166.144634 
L 190.366622 170.935129 
L 190.708364 178.120871 
L 191.050105 178.120871 
L 191.391847 180.516119 
L 192.07533 175.725624 
L 192.417072 180.516119 
L 193.442297 180.516119 
L 193.784038 182.911366 
L 194.12578 187.701861 
L 194.467522 194.887604 
L 194.809263 194.887604 
L 195.151005 202.073347 
L 195.492746 194.887604 
L 195.834488 192.492356 
L 196.17623 192.492356 
L 196.517971 197.282851 
L 196.859713 197.282851 
L 197.201455 199.678099 
L 197.884938 194.887604 
L 198.568421 194.887604 
L 198.910163 197.282851 
L 199.251904 194.887604 
L 199.593646 197.282851 
L 199.935388 197.282851 
L 200.277129 202.073347 
L 200.960612 202.073347 
L 201.302354 211.654337 
L 201.644096 209.259089 
L 201.985837 211.654337 
L 202.327579 209.259089 
L 203.011062 209.259089 
L 203.694545 204.468594 
L 204.036287 206.863842 
L 204.378029 206.863842 
L 204.71977 209.259089 
L 205.061512 206.863842 
L 205.403254 209.259089 
L 205.744995 209.259089 
L 206.086737 206.863842 
L 206.428478 209.259089 
L 207.111962 209.259089 
L 207.453703 202.073347 
L 207.795445 197.282851 
L 208.137187 197.282851 
L 208.478928 194.887604 
L 208.82067 185.306614 
L 209.162411 185.306614 
L 209.504153 182.911366 
L 209.845895 182.911366 
L 210.187636 178.120871 
L 210.87112 182.911366 
L 211.212861 180.516119 
L 211.554603 180.516119 
L 211.896344 178.120871 
L 212.238086 180.516119 
L 212.579828 187.701861 
L 213.263311 187.701861 
L 213.946794 192.492356 
L 214.288536 192.492356 
L 214.972019 197.282851 
L 215.313761 197.282851 
L 215.655502 194.887604 
L 215.997244 194.887604 
L 216.338986 199.678099 
L 216.680727 194.887604 
L 217.022469 197.282851 
L 217.364211 197.282851 
L 217.705952 199.678099 
L 218.047694 194.887604 
L 218.389435 192.492356 
L 219.41466 192.492356 
L 219.756402 194.887604 
L 220.098144 194.887604 
L 220.439885 190.097109 
L 220.781627 197.282851 
L 221.123368 197.282851 
L 221.46511 194.887604 
L 222.148593 194.887604 
L 222.490335 192.492356 
L 222.832077 185.306614 
L 223.173818 185.306614 
L 223.51556 180.516119 
L 223.857301 180.516119 
L 224.199043 182.911366 
L 224.540785 190.097109 
L 224.882526 192.492356 
L 225.224268 192.492356 
L 225.56601 194.887604 
L 225.907751 206.863842 
L 226.249493 206.863842 
L 226.591234 209.259089 
L 226.932976 209.259089 
L 227.274718 206.863842 
L 227.616459 209.259089 
L 227.958201 206.863842 
L 228.299943 206.863842 
L 228.641684 209.259089 
L 229.666909 209.259089 
L 230.008651 211.654337 
L 230.350392 209.259089 
L 230.692134 204.468594 
L 231.033876 204.468594 
L 231.375617 202.073347 
L 231.717359 192.492356 
L 232.0591 190.097109 
L 232.742584 194.887604 
L 233.084325 194.887604 
L 233.426067 190.097109 
L 233.767809 194.887604 
L 234.10955 194.887604 
L 234.451292 190.097109 
L 234.793033 187.701861 
L 235.134775 190.097109 
L 235.476517 187.701861 
L 235.818258 190.097109 
L 236.501742 190.097109 
L 236.843483 192.492356 
L 237.185225 185.306614 
L 237.526967 192.492356 
L 237.868708 192.492356 
L 238.21045 190.097109 
L 238.552191 192.492356 
L 238.893933 190.097109 
L 239.235675 192.492356 
L 239.577416 192.492356 
L 239.919158 204.468594 
L 240.602641 214.049584 
L 240.944383 211.654337 
L 241.286124 211.654337 
L 241.627866 209.259089 
L 242.653091 209.259089 
L 242.994833 206.863842 
L 244.020057 206.863842 
L 244.361799 214.049584 
L 244.703541 216.444832 
L 245.045282 216.444832 
L 245.387024 218.840079 
L 245.728766 218.840079 
L 246.070507 221.235327 
L 247.095732 221.235327 
L 247.437474 223.630574 
L 248.120957 223.630574 
L 248.462699 226.025822 
L 248.80444 233.211564 
L 249.146182 228.421069 
L 249.829665 228.421069 
L 250.171407 226.025822 
L 250.513148 230.816317 
L 250.85489 228.421069 
L 251.196632 228.421069 
L 252.221856 235.606812 
L 252.563598 240.397307 
L 252.90534 240.397307 
L 253.247081 238.002059 
L 253.588823 240.397307 
L 253.930565 240.397307 
L 254.272306 247.58305 
L 254.614048 247.58305 
L 254.955789 245.187802 
L 255.639273 249.978297 
L 256.322756 249.978297 
L 256.664498 252.373545 
L 257.347981 252.373545 
L 257.689722 249.978297 
L 258.031464 252.373545 
L 258.373206 252.373545 
L 258.714947 254.768792 
L 259.398431 254.768792 
L 259.740172 252.373545 
L 260.423656 257.16404 
L 261.790622 257.16404 
L 262.132364 259.559287 
L 263.841072 259.559287 
L 264.182813 254.768792 
L 264.524555 252.373545 
L 264.866297 257.16404 
L 265.54978 252.373545 
L 265.891522 254.768792 
L 266.233263 259.559287 
L 266.916746 259.559287 
L 267.258488 261.954535 
L 267.60023 261.954535 
L 267.941971 264.349782 
L 268.283713 264.349782 
L 268.625455 266.74503 
L 268.967196 266.74503 
L 269.308938 264.349782 
L 269.650679 264.349782 
L 269.992421 261.954535 
L 270.334163 264.349782 
L 271.701129 264.349782 
L 272.042871 266.74503 
L 272.384612 266.74503 
L 272.726354 264.349782 
L 273.751579 264.349782 
L 274.093321 261.954535 
L 274.435062 261.954535 
L 274.776804 264.349782 
L 275.118545 261.954535 
L 275.802029 261.954535 
L 276.14377 264.349782 
L 276.485512 264.349782 
L 276.827254 266.74503 
L 277.168995 261.954535 
L 279.561187 261.954535 
L 279.902928 257.16404 
L 280.928153 257.16404 
L 281.611636 261.954535 
L 281.953378 261.954535 
L 282.636861 266.74503 
L 282.978603 261.954535 
L 283.320344 264.349782 
L 284.003828 264.349782 
L 284.345569 261.954535 
L 285.029053 261.954535 
L 285.370794 259.559287 
L 286.054278 259.559287 
L 286.396019 261.954535 
L 286.737761 259.559287 
L 287.079502 261.954535 
L 289.471694 261.954535 
L 290.155177 266.74503 
L 290.83866 266.74503 
L 291.180402 269.140277 
L 291.522144 266.74503 
L 291.863885 266.74503 
L 292.205627 269.140277 
L 293.914335 269.140277 
L 294.256077 273.930772 
L 294.597818 271.535525 
L 294.93956 271.535525 
L 295.281301 269.140277 
L 296.648268 269.140277 
L 296.99001 273.930772 
L 297.331751 273.930772 
L 298.015234 269.140277 
L 298.356976 271.535525 
L 299.723943 271.535525 
L 300.065684 273.930772 
L 300.407426 273.930772 
L 300.749167 271.535525 
L 301.090909 271.535525 
L 301.432651 273.930772 
L 302.116134 273.930772 
L 302.457876 276.32602 
L 303.4831 276.32602 
L 303.824842 278.721267 
L 304.850067 278.721267 
L 305.191809 276.32602 
L 305.53355 276.32602 
L 305.875292 273.930772 
L 307.925742 273.930772 
L 308.267483 271.535525 
L 308.609225 273.930772 
L 311.343158 273.930772 
L 311.6849 276.32602 
L 312.026641 276.32602 
L 312.368383 278.721267 
L 314.418833 278.721267 
L 315.102316 283.511762 
L 316.811024 283.511762 
L 317.152766 285.90701 
L 317.836249 285.90701 
L 318.17799 281.116515 
L 319.203215 281.116515 
L 319.544957 278.721267 
L 320.22844 278.721267 
L 320.911923 273.930772 
L 321.937148 273.930772 
L 322.27889 276.32602 
L 322.620632 276.32602 
L 322.962373 278.721267 
L 325.012823 278.721267 
L 325.354565 281.116515 
L 325.696306 278.721267 
L 328.430239 278.721267 
L 328.771981 276.32602 
L 330.480689 276.32602 
L 330.822431 273.930772 
L 333.556364 273.930772 
L 333.898105 271.535525 
L 334.581589 271.535525 
L 334.92333 273.930772 
L 335.265072 278.721267 
L 336.290297 278.721267 
L 336.632038 281.116515 
L 336.97378 278.721267 
L 337.315522 278.721267 
L 337.999005 283.511762 
L 338.340746 283.511762 
L 338.682488 281.116515 
L 339.02423 281.116515 
L 339.365971 278.721267 
L 341.758163 278.721267 
L 342.099904 276.32602 
L 342.441646 276.32602 
L 342.783388 278.721267 
L 343.125129 278.721267 
L 343.466871 276.32602 
L 343.808612 276.32602 
L 344.150354 273.930772 
L 345.517321 273.930772 
L 345.859062 276.32602 
L 347.56777 276.32602 
L 347.909512 278.721267 
L 350.643445 278.721267 
L 350.985187 281.116515 
L 353.035636 281.116515 
L 353.377378 278.721267 
L 353.71912 278.721267 
L 354.060861 281.116515 
L 355.427828 281.116515 
L 355.769569 283.511762 
L 356.111311 283.511762 
L 356.453053 285.90701 
L 358.845244 285.90701 
L 359.186986 288.302257 
L 360.212211 288.302257 
L 360.553952 290.697505 
L 360.895694 290.697505 
L 361.237435 293.092752 
L 361.920919 293.092752 
L 362.26266 290.697505 
L 364.31311 290.697505 
L 364.654852 288.302257 
L 369.097493 288.302257 
L 369.780976 283.511762 
L 370.122718 283.511762 
L 370.464459 285.90701 
L 374.9071 285.90701 
L 375.248842 283.511762 
L 379.008 283.511762 
L 379.349742 285.90701 
L 381.400191 285.90701 
L 381.741933 288.302257 
L 384.134124 288.302257 
L 384.817608 283.511762 
L 386.184574 283.511762 
L 386.526316 285.90701 
L 391.994182 285.90701 
L 392.335923 288.302257 
L 398.145531 288.302257 
L 398.487273 285.90701 
L 398.487273 285.90701 
" clip-path="url(#pfe73ebe3a2)" style="fill: none; stroke-dasharray: 1.85,0.8; stroke-dashoffset: 0; stroke: #8000ff; stroke-width: 0.5"/>
   </g>
   <g id="line2d_14">
    <path d="M 73.832727 295.488 
L 103.564249 295.488 
L 103.90599 293.092752 
L 105.95644 293.092752 
L 106.298182 290.697505 
L 107.665148 290.697505 
L 108.00689 288.302257 
L 108.348632 288.302257 
L 108.690373 283.511762 
L 109.715598 276.32602 
L 112.449531 276.32602 
L 112.791273 273.930772 
L 113.474756 273.930772 
L 113.816498 269.140277 
L 116.892172 269.140277 
L 117.575656 264.349782 
L 118.259139 264.349782 
L 118.60088 261.954535 
L 118.942622 257.16404 
L 119.284364 257.16404 
L 119.626105 254.768792 
L 121.334813 254.768792 
L 121.676555 249.978297 
L 122.018297 249.978297 
L 122.70178 245.187802 
L 123.385263 245.187802 
L 123.727005 240.397307 
L 124.068746 230.816317 
L 124.410488 230.816317 
L 124.75223 223.630574 
L 125.093971 226.025822 
L 125.435713 226.025822 
L 125.777455 230.816317 
L 126.119196 228.421069 
L 126.802679 233.211564 
L 127.144421 221.235327 
L 127.827904 221.235327 
L 128.511388 216.444832 
L 128.853129 216.444832 
L 129.536612 206.863842 
L 129.878354 209.259089 
L 131.587062 209.259089 
L 131.928804 206.863842 
L 132.270545 199.678099 
L 132.612287 194.887604 
L 132.954029 194.887604 
L 133.29577 192.492356 
L 133.979254 192.492356 
L 134.662737 197.282851 
L 135.34622 192.492356 
L 135.687962 187.701861 
L 136.029703 185.306614 
L 136.371445 185.306614 
L 136.713187 180.516119 
L 137.054928 170.935129 
L 137.39667 170.935129 
L 138.080153 166.144634 
L 138.421895 166.144634 
L 138.763636 170.935129 
L 139.44712 161.354139 
L 140.130603 156.563644 
L 140.472344 156.563644 
L 140.814086 161.354139 
L 141.155828 163.749386 
L 141.497569 163.749386 
L 141.839311 170.935129 
L 142.181053 168.539881 
L 142.864536 168.539881 
L 143.206278 173.330376 
L 143.548019 158.958891 
L 143.889761 158.958891 
L 144.231502 168.539881 
L 144.573244 168.539881 
L 144.914986 163.749386 
L 145.256727 161.354139 
L 145.940211 161.354139 
L 146.623694 170.935129 
L 146.965435 166.144634 
L 147.307177 166.144634 
L 147.648919 158.958891 
L 147.99066 161.354139 
L 148.332402 158.958891 
L 148.674144 158.958891 
L 149.015885 161.354139 
L 149.357627 161.354139 
L 149.699368 166.144634 
L 150.04111 166.144634 
L 150.382852 168.539881 
L 150.724593 166.144634 
L 152.09156 166.144634 
L 152.433301 161.354139 
L 152.775043 168.539881 
L 153.116785 170.935129 
L 153.458526 166.144634 
L 153.800268 170.935129 
L 154.14201 180.516119 
L 155.167234 180.516119 
L 155.508976 178.120871 
L 155.850718 170.935129 
L 156.192459 173.330376 
L 156.534201 178.120871 
L 157.217684 178.120871 
L 157.559426 175.725624 
L 157.901167 170.935129 
L 158.242909 178.120871 
L 158.926392 178.120871 
L 159.268134 163.749386 
L 159.609876 154.168396 
L 159.951617 139.796911 
L 160.293359 139.796911 
L 160.6351 142.192158 
L 160.976842 139.796911 
L 161.318584 139.796911 
L 161.660325 137.401663 
L 162.002067 137.401663 
L 162.343809 130.215921 
L 162.68555 132.611168 
L 163.710775 125.425426 
L 164.394258 125.425426 
L 164.736 127.820673 
L 165.077742 125.425426 
L 167.469933 125.425426 
L 167.811675 127.820673 
L 168.153416 123.030178 
L 168.8369 118.239683 
L 169.178641 118.239683 
L 169.520383 125.425426 
L 169.862124 125.425426 
L 170.203866 123.030178 
L 170.887349 127.820673 
L 171.229091 120.634931 
L 171.570833 120.634931 
L 171.912574 123.030178 
L 172.254316 127.820673 
L 172.596057 125.425426 
L 172.937799 127.820673 
L 173.279541 125.425426 
L 173.621282 125.425426 
L 173.963024 127.820673 
L 174.646507 123.030178 
L 174.988249 127.820673 
L 175.32999 127.820673 
L 175.671732 125.425426 
L 176.013474 125.425426 
L 176.355215 142.192158 
L 176.696957 139.796911 
L 177.038699 154.168396 
L 177.38044 144.587406 
L 177.722182 154.168396 
L 178.063923 154.168396 
L 178.405665 151.773149 
L 179.089148 156.563644 
L 179.43089 166.144634 
L 179.772632 166.144634 
L 180.114373 168.539881 
L 180.456115 168.539881 
L 180.797856 158.958891 
L 181.139598 161.354139 
L 181.48134 161.354139 
L 181.823081 166.144634 
L 182.164823 168.539881 
L 182.506565 161.354139 
L 182.848306 158.958891 
L 183.190048 149.377901 
L 183.531789 154.168396 
L 183.873531 151.773149 
L 184.215273 146.982653 
L 184.557014 139.796911 
L 184.898756 139.796911 
L 185.240498 144.587406 
L 185.582239 144.587406 
L 186.265722 149.377901 
L 186.607464 146.982653 
L 186.949206 135.006416 
L 187.632689 139.796911 
L 187.974431 139.796911 
L 188.316172 142.192158 
L 188.999656 137.401663 
L 189.341397 137.401663 
L 189.683139 139.796911 
L 190.02488 130.215921 
L 190.366622 135.006416 
L 190.708364 137.401663 
L 191.050105 127.820673 
L 191.733589 137.401663 
L 192.07533 137.401663 
L 192.758813 132.611168 
L 193.442297 123.030178 
L 193.784038 135.006416 
L 194.12578 135.006416 
L 194.467522 139.796911 
L 194.809263 135.006416 
L 195.151005 135.006416 
L 195.492746 139.796911 
L 195.834488 139.796911 
L 196.517971 144.587406 
L 196.859713 144.587406 
L 197.201455 142.192158 
L 197.543196 142.192158 
L 197.884938 146.982653 
L 198.568421 146.982653 
L 198.910163 144.587406 
L 199.593646 149.377901 
L 199.935388 146.982653 
L 200.277129 156.563644 
L 200.960612 161.354139 
L 201.644096 170.935129 
L 201.985837 166.144634 
L 202.669321 166.144634 
L 203.011062 161.354139 
L 203.352804 158.958891 
L 203.694545 146.982653 
L 204.036287 156.563644 
L 204.378029 161.354139 
L 204.71977 161.354139 
L 205.061512 154.168396 
L 205.403254 151.773149 
L 205.744995 151.773149 
L 206.086737 154.168396 
L 206.428478 151.773149 
L 206.77022 144.587406 
L 207.111962 158.958891 
L 207.453703 158.958891 
L 207.795445 154.168396 
L 208.137187 156.563644 
L 208.478928 154.168396 
L 208.82067 149.377901 
L 209.504153 149.377901 
L 209.845895 154.168396 
L 210.187636 156.563644 
L 210.529378 161.354139 
L 211.212861 156.563644 
L 211.896344 166.144634 
L 212.238086 168.539881 
L 212.579828 168.539881 
L 212.921569 163.749386 
L 213.605053 158.958891 
L 213.946794 151.773149 
L 214.288536 154.168396 
L 214.630278 149.377901 
L 214.972019 156.563644 
L 215.997244 149.377901 
L 216.338986 149.377901 
L 216.680727 156.563644 
L 217.022469 161.354139 
L 217.705952 161.354139 
L 218.389435 156.563644 
L 218.731177 158.958891 
L 219.072919 163.749386 
L 219.41466 161.354139 
L 219.756402 163.749386 
L 220.098144 168.539881 
L 220.439885 170.935129 
L 220.781627 180.516119 
L 221.123368 182.911366 
L 221.806852 178.120871 
L 222.490335 192.492356 
L 223.173818 182.911366 
L 223.51556 185.306614 
L 223.857301 194.887604 
L 224.199043 192.492356 
L 224.540785 187.701861 
L 224.882526 190.097109 
L 225.224268 199.678099 
L 225.56601 199.678099 
L 225.907751 202.073347 
L 226.249493 197.282851 
L 226.591234 199.678099 
L 226.932976 199.678099 
L 227.274718 197.282851 
L 227.616459 192.492356 
L 227.958201 190.097109 
L 228.299943 190.097109 
L 228.641684 187.701861 
L 228.983426 190.097109 
L 229.325167 190.097109 
L 229.666909 187.701861 
L 230.008651 192.492356 
L 230.692134 197.282851 
L 231.033876 204.468594 
L 231.375617 204.468594 
L 231.717359 211.654337 
L 232.0591 211.654337 
L 232.400842 209.259089 
L 232.742584 211.654337 
L 233.084325 209.259089 
L 233.426067 204.468594 
L 233.767809 204.468594 
L 234.451292 199.678099 
L 234.793033 194.887604 
L 235.476517 199.678099 
L 235.818258 194.887604 
L 236.16 194.887604 
L 236.501742 197.282851 
L 236.843483 192.492356 
L 237.185225 190.097109 
L 237.526967 190.097109 
L 237.868708 192.492356 
L 238.21045 190.097109 
L 238.552191 192.492356 
L 238.893933 190.097109 
L 239.577416 190.097109 
L 239.919158 197.282851 
L 240.944383 197.282851 
L 241.286124 199.678099 
L 241.627866 204.468594 
L 242.653091 204.468594 
L 243.336574 214.049584 
L 244.361799 214.049584 
L 245.045282 218.840079 
L 245.387024 218.840079 
L 245.728766 221.235327 
L 246.070507 218.840079 
L 246.412249 218.840079 
L 246.75399 214.049584 
L 247.095732 211.654337 
L 247.437474 204.468594 
L 247.779215 202.073347 
L 248.120957 192.492356 
L 248.80444 192.492356 
L 249.146182 187.701861 
L 249.487923 192.492356 
L 249.829665 192.492356 
L 250.171407 197.282851 
L 250.513148 199.678099 
L 250.85489 194.887604 
L 251.196632 197.282851 
L 251.538373 197.282851 
L 251.880115 202.073347 
L 252.563598 202.073347 
L 252.90534 204.468594 
L 253.588823 204.468594 
L 253.930565 209.259089 
L 254.272306 211.654337 
L 254.614048 211.654337 
L 255.297531 216.444832 
L 255.639273 214.049584 
L 255.981014 218.840079 
L 256.322756 218.840079 
L 256.664498 214.049584 
L 257.006239 214.049584 
L 257.347981 218.840079 
L 258.031464 218.840079 
L 258.373206 216.444832 
L 258.714947 216.444832 
L 259.056689 218.840079 
L 259.398431 218.840079 
L 259.740172 214.049584 
L 260.081914 211.654337 
L 260.423656 206.863842 
L 260.765397 204.468594 
L 261.107139 204.468594 
L 261.44888 209.259089 
L 261.790622 209.259089 
L 262.132364 199.678099 
L 262.474105 202.073347 
L 262.815847 202.073347 
L 263.157589 204.468594 
L 263.49933 204.468594 
L 263.841072 211.654337 
L 264.182813 214.049584 
L 264.524555 221.235327 
L 264.866297 223.630574 
L 265.208038 233.211564 
L 265.891522 233.211564 
L 266.233263 238.002059 
L 266.575005 240.397307 
L 266.916746 238.002059 
L 267.60023 242.792554 
L 267.941971 242.792554 
L 268.283713 240.397307 
L 268.625455 242.792554 
L 268.967196 240.397307 
L 269.308938 230.816317 
L 269.650679 228.421069 
L 269.992421 230.816317 
L 270.334163 230.816317 
L 270.675904 228.421069 
L 271.359388 228.421069 
L 271.701129 223.630574 
L 273.068096 223.630574 
L 273.409837 221.235327 
L 273.751579 226.025822 
L 274.093321 218.840079 
L 274.435062 218.840079 
L 274.776804 206.863842 
L 275.118545 204.468594 
L 275.460287 206.863842 
L 276.485512 206.863842 
L 276.827254 214.049584 
L 277.168995 211.654337 
L 277.510737 216.444832 
L 277.852478 218.840079 
L 278.19422 216.444832 
L 278.535962 216.444832 
L 278.877703 218.840079 
L 279.219445 230.816317 
L 282.978603 230.816317 
L 283.320344 228.421069 
L 283.662086 228.421069 
L 284.003828 230.816317 
L 284.687311 230.816317 
L 285.029053 235.606812 
L 285.370794 238.002059 
L 285.712536 238.002059 
L 286.054278 240.397307 
L 286.396019 249.978297 
L 286.737761 252.373545 
L 287.079502 252.373545 
L 287.762986 247.58305 
L 288.446469 247.58305 
L 288.788211 252.373545 
L 289.129952 249.978297 
L 289.471694 249.978297 
L 289.813435 252.373545 
L 290.83866 252.373545 
L 291.180402 259.559287 
L 291.522144 259.559287 
L 291.863885 271.535525 
L 292.205627 273.930772 
L 292.547368 271.535525 
L 293.914335 271.535525 
L 294.256077 276.32602 
L 294.93956 276.32602 
L 295.281301 278.721267 
L 295.623043 276.32602 
L 295.964785 271.535525 
L 296.306526 269.140277 
L 300.065684 269.140277 
L 300.407426 261.954535 
L 301.090909 257.16404 
L 301.432651 257.16404 
L 301.774392 254.768792 
L 304.166584 254.768792 
L 304.508325 257.16404 
L 304.850067 261.954535 
L 305.191809 261.954535 
L 305.53355 259.559287 
L 306.558775 259.559287 
L 306.900517 257.16404 
L 307.242258 257.16404 
L 307.925742 252.373545 
L 308.267483 247.58305 
L 308.609225 245.187802 
L 308.950967 245.187802 
L 309.292708 242.792554 
L 309.63445 245.187802 
L 311.6849 245.187802 
L 312.026641 242.792554 
L 312.368383 242.792554 
L 312.710124 245.187802 
L 313.051866 249.978297 
L 314.760574 249.978297 
L 315.444057 245.187802 
L 316.469282 245.187802 
L 316.811024 242.792554 
L 317.152766 242.792554 
L 317.494507 252.373545 
L 318.17799 257.16404 
L 318.519732 257.16404 
L 318.861474 259.559287 
L 319.203215 252.373545 
L 319.886699 252.373545 
L 320.22844 249.978297 
L 320.911923 249.978297 
L 321.253665 247.58305 
L 322.962373 247.58305 
L 323.304115 249.978297 
L 323.645856 249.978297 
L 323.987598 247.58305 
L 324.32934 247.58305 
L 325.012823 252.373545 
L 325.354565 257.16404 
L 326.038048 257.16404 
L 326.379789 259.559287 
L 328.430239 259.559287 
L 328.771981 257.16404 
L 329.113722 259.559287 
L 330.138947 259.559287 
L 330.480689 261.954535 
L 331.847656 261.954535 
L 332.189397 264.349782 
L 333.214622 264.349782 
L 333.556364 259.559287 
L 333.898105 259.559287 
L 334.239847 257.16404 
L 334.92333 257.16404 
L 335.265072 252.373545 
L 335.948555 252.373545 
L 336.290297 259.559287 
L 336.97378 259.559287 
L 337.315522 261.954535 
L 337.657263 259.559287 
L 339.02423 259.559287 
L 339.365971 257.16404 
L 339.707713 259.559287 
L 340.049455 257.16404 
L 340.732938 257.16404 
L 341.074679 261.954535 
L 341.416421 261.954535 
L 341.758163 264.349782 
L 342.441646 264.349782 
L 342.783388 266.74503 
L 343.125129 266.74503 
L 343.466871 264.349782 
L 344.492096 264.349782 
L 344.833837 261.954535 
L 345.517321 261.954535 
L 345.859062 264.349782 
L 346.200804 264.349782 
L 346.542545 261.954535 
L 347.909512 261.954535 
L 348.251254 259.559287 
L 348.592995 259.559287 
L 348.934737 257.16404 
L 349.276478 257.16404 
L 349.61822 259.559287 
L 349.959962 259.559287 
L 350.301703 257.16404 
L 350.643445 261.954535 
L 350.985187 261.954535 
L 351.326928 264.349782 
L 352.010411 264.349782 
L 352.352153 266.74503 
L 353.377378 266.74503 
L 353.71912 264.349782 
L 355.086086 264.349782 
L 355.427828 266.74503 
L 356.111311 266.74503 
L 356.453053 269.140277 
L 356.794794 269.140277 
L 357.136536 271.535525 
L 359.186986 271.535525 
L 359.528727 269.140277 
L 359.870469 264.349782 
L 360.212211 264.349782 
L 360.553952 266.74503 
L 361.579177 266.74503 
L 361.920919 269.140277 
L 363.287885 269.140277 
L 363.629627 271.535525 
L 363.971368 271.535525 
L 364.31311 269.140277 
L 364.996593 269.140277 
L 365.338335 271.535525 
L 365.680077 271.535525 
L 366.021818 273.930772 
L 367.047043 273.930772 
L 367.388785 271.535525 
L 367.730526 271.535525 
L 368.072268 273.930772 
L 368.41401 271.535525 
L 369.097493 271.535525 
L 369.439234 273.930772 
L 370.464459 273.930772 
L 370.806201 276.32602 
L 371.489684 276.32602 
L 371.831426 278.721267 
L 374.223617 278.721267 
L 374.565359 276.32602 
L 376.274067 276.32602 
L 376.615809 278.721267 
L 376.95755 283.511762 
L 380.374967 283.511762 
L 381.05845 278.721267 
L 381.400191 281.116515 
L 382.425416 281.116515 
L 382.767158 278.721267 
L 384.134124 278.721267 
L 384.475866 283.511762 
L 385.159349 283.511762 
L 385.501091 285.90701 
L 386.184574 281.116515 
L 387.209799 281.116515 
L 387.551541 278.721267 
L 388.576766 278.721267 
L 388.918507 276.32602 
L 390.285474 276.32602 
L 390.627215 273.930772 
L 392.677665 273.930772 
L 393.019407 271.535525 
L 396.778565 271.535525 
L 397.120306 269.140277 
L 397.803789 269.140277 
L 398.145531 271.535525 
L 398.487273 271.535525 
L 398.487273 271.535525 
" clip-path="url(#pfe73ebe3a2)" style="fill: none; stroke-dasharray: 1.85,0.8; stroke-dashoffset: 0; stroke: #00b5eb; stroke-width: 0.5"/>
   </g>
   <g id="line2d_15">
    <path d="M 73.832727 295.488 
L 111.082565 295.488 
L 111.424306 293.092752 
L 119.626105 293.092752 
L 119.967847 290.697505 
L 121.334813 290.697505 
L 121.676555 288.302257 
L 123.043522 288.302257 
L 123.385263 285.90701 
L 124.75223 285.90701 
L 125.093971 281.116515 
L 126.460938 281.116515 
L 126.802679 278.721267 
L 128.169646 278.721267 
L 128.511388 271.535525 
L 129.878354 271.535525 
L 130.220096 252.373545 
L 131.587062 252.373545 
L 131.928804 249.978297 
L 135.004478 249.978297 
L 135.34622 228.421069 
L 136.713187 228.421069 
L 137.054928 202.073347 
L 140.130603 202.073347 
L 140.472344 192.492356 
L 143.548019 192.492356 
L 143.889761 194.887604 
L 145.256727 194.887604 
L 145.598469 199.678099 
L 146.965435 199.678099 
L 147.307177 206.863842 
L 150.382852 206.863842 
L 150.724593 182.911366 
L 152.09156 182.911366 
L 152.433301 185.306614 
L 153.800268 185.306614 
L 154.14201 194.887604 
L 157.217684 194.887604 
L 157.559426 192.492356 
L 160.6351 192.492356 
L 160.976842 185.306614 
L 162.343809 185.306614 
L 162.68555 187.701861 
L 164.052517 187.701861 
L 164.394258 190.097109 
L 165.761225 190.097109 
L 166.102967 180.516119 
L 167.469933 180.516119 
L 167.811675 187.701861 
L 169.178641 187.701861 
L 169.520383 166.144634 
L 170.887349 166.144634 
L 171.229091 185.306614 
L 172.596057 185.306614 
L 172.937799 166.144634 
L 176.013474 166.144634 
L 176.355215 142.192158 
L 177.722182 142.192158 
L 178.063923 137.401663 
L 179.43089 137.401663 
L 179.772632 130.215921 
L 181.139598 130.215921 
L 181.48134 137.401663 
L 182.848306 137.401663 
L 183.190048 130.215921 
L 184.557014 130.215921 
L 184.898756 142.192158 
L 186.265722 142.192158 
L 186.607464 168.539881 
L 187.974431 168.539881 
L 188.316172 158.958891 
L 189.683139 158.958891 
L 190.02488 168.539881 
L 191.391847 168.539881 
L 191.733589 173.330376 
L 193.100555 173.330376 
L 193.442297 199.678099 
L 194.809263 199.678099 
L 195.151005 190.097109 
L 196.517971 190.097109 
L 196.859713 180.516119 
L 198.226679 180.516119 
L 198.568421 161.354139 
L 199.935388 161.354139 
L 200.277129 168.539881 
L 201.644096 168.539881 
L 201.985837 154.168396 
L 203.352804 154.168396 
L 203.694545 168.539881 
L 205.061512 168.539881 
L 205.403254 178.120871 
L 206.77022 178.120871 
L 207.111962 163.749386 
L 208.478928 163.749386 
L 208.82067 166.144634 
L 210.187636 166.144634 
L 210.529378 151.773149 
L 211.896344 151.773149 
L 212.238086 173.330376 
L 213.605053 173.330376 
L 213.946794 180.516119 
L 215.313761 180.516119 
L 215.655502 190.097109 
L 217.022469 190.097109 
L 217.364211 202.073347 
L 218.731177 202.073347 
L 219.072919 216.444832 
L 222.148593 216.444832 
L 222.490335 209.259089 
L 223.857301 209.259089 
L 224.199043 194.887604 
L 224.882526 194.887604 
L 225.224268 185.306614 
L 225.56601 185.306614 
L 225.907751 180.516119 
L 226.591234 180.516119 
L 226.932976 175.725624 
L 227.274718 175.725624 
L 227.616459 192.492356 
L 228.299943 192.492356 
L 228.641684 185.306614 
L 228.983426 185.306614 
L 229.325167 180.516119 
L 230.008651 180.516119 
L 230.350392 175.725624 
L 230.692134 175.725624 
L 231.033876 187.701861 
L 231.717359 187.701861 
L 232.0591 185.306614 
L 232.400842 185.306614 
L 232.742584 194.887604 
L 234.10955 194.887604 
L 234.451292 187.701861 
L 235.818258 187.701861 
L 236.16 192.492356 
L 238.21045 192.492356 
L 238.552191 185.306614 
L 239.235675 185.306614 
L 239.577416 170.935129 
L 240.944383 170.935129 
L 241.286124 211.654337 
L 241.627866 211.654337 
L 241.969608 187.701861 
L 242.311349 197.282851 
L 242.653091 197.282851 
L 242.994833 209.259089 
L 243.336574 209.259089 
L 243.678316 204.468594 
L 244.020057 209.259089 
L 244.361799 209.259089 
L 244.703541 199.678099 
L 245.045282 199.678099 
L 245.387024 197.282851 
L 245.728766 204.468594 
L 246.070507 204.468594 
L 246.412249 199.678099 
L 246.75399 199.678099 
L 247.095732 190.097109 
L 247.437474 194.887604 
L 247.779215 194.887604 
L 248.120957 192.492356 
L 248.80444 192.492356 
L 249.146182 194.887604 
L 250.171407 194.887604 
L 250.513148 187.701861 
L 251.196632 187.701861 
L 251.538373 194.887604 
L 252.90534 194.887604 
L 253.247081 190.097109 
L 255.297531 190.097109 
L 255.639273 192.492356 
L 256.322756 192.492356 
L 256.664498 209.259089 
L 257.006239 209.259089 
L 257.347981 202.073347 
L 258.714947 202.073347 
L 259.056689 216.444832 
L 260.423656 216.444832 
L 260.765397 221.235327 
L 261.44888 221.235327 
L 261.790622 230.816317 
L 262.132364 230.816317 
L 262.474105 233.211564 
L 263.157589 233.211564 
L 263.49933 230.816317 
L 263.841072 230.816317 
L 264.182813 238.002059 
L 264.866297 238.002059 
L 265.208038 233.211564 
L 266.575005 233.211564 
L 266.916746 228.421069 
L 267.258488 228.421069 
L 267.60023 223.630574 
L 268.283713 223.630574 
L 268.625455 214.049584 
L 269.992421 214.049584 
L 270.334163 218.840079 
L 272.384612 218.840079 
L 272.726354 223.630574 
L 273.409837 223.630574 
L 273.751579 228.421069 
L 275.118545 228.421069 
L 275.460287 223.630574 
L 276.827254 223.630574 
L 277.168995 221.235327 
L 278.535962 221.235327 
L 278.877703 214.049584 
L 279.219445 214.049584 
L 279.561187 211.654337 
L 280.24467 211.654337 
L 280.586411 223.630574 
L 280.928153 223.630574 
L 281.269895 226.025822 
L 281.953378 226.025822 
L 282.29512 233.211564 
L 282.636861 233.211564 
L 282.978603 228.421069 
L 283.662086 228.421069 
L 284.003828 233.211564 
L 284.345569 233.211564 
L 284.687311 245.187802 
L 285.370794 245.187802 
L 285.712536 254.768792 
L 287.079502 254.768792 
L 287.421244 252.373545 
L 288.788211 252.373545 
L 289.129952 249.978297 
L 291.180402 249.978297 
L 291.522144 257.16404 
L 292.205627 257.16404 
L 292.547368 261.954535 
L 292.88911 261.954535 
L 293.230852 264.349782 
L 293.914335 264.349782 
L 294.256077 266.74503 
L 294.597818 266.74503 
L 294.93956 264.349782 
L 295.623043 264.349782 
L 295.964785 271.535525 
L 296.306526 271.535525 
L 296.648268 273.930772 
L 297.331751 273.930772 
L 297.673493 264.349782 
L 298.015234 264.349782 
L 298.356976 261.954535 
L 299.040459 261.954535 
L 299.382201 252.373545 
L 299.723943 252.373545 
L 300.065684 257.16404 
L 300.749167 257.16404 
L 301.090909 242.792554 
L 304.166584 242.792554 
L 304.508325 245.187802 
L 304.850067 245.187802 
L 305.191809 223.630574 
L 305.875292 223.630574 
L 306.217033 226.025822 
L 309.976191 226.025822 
L 310.317933 230.816317 
L 311.6849 230.816317 
L 312.026641 228.421069 
L 313.393608 228.421069 
L 313.735349 223.630574 
L 314.418833 223.630574 
L 314.760574 221.235327 
L 315.102316 221.235327 
L 315.444057 223.630574 
L 316.127541 223.630574 
L 316.469282 233.211564 
L 317.836249 233.211564 
L 318.17799 247.58305 
L 318.519732 247.58305 
L 318.861474 242.792554 
L 321.937148 242.792554 
L 322.27889 264.349782 
L 323.645856 264.349782 
L 323.987598 254.768792 
L 326.379789 254.768792 
L 326.721531 245.187802 
L 327.063273 245.187802 
L 327.405014 247.58305 
L 328.771981 247.58305 
L 329.113722 249.978297 
L 329.797206 249.978297 
L 330.138947 245.187802 
L 330.480689 245.187802 
L 330.822431 249.978297 
L 331.505914 249.978297 
L 331.847656 257.16404 
L 333.898105 257.16404 
L 334.239847 254.768792 
L 335.606813 254.768792 
L 335.948555 259.559287 
L 336.632038 259.559287 
L 336.97378 257.16404 
L 337.315522 257.16404 
L 337.657263 254.768792 
L 338.340746 254.768792 
L 338.682488 249.978297 
L 340.732938 249.978297 
L 341.074679 257.16404 
L 342.441646 257.16404 
L 342.783388 254.768792 
L 343.466871 254.768792 
L 343.808612 257.16404 
L 345.859062 257.16404 
L 346.200804 259.559287 
L 348.592995 259.559287 
L 348.934737 261.954535 
L 350.985187 261.954535 
L 351.326928 264.349782 
L 352.010411 264.349782 
L 352.352153 266.74503 
L 357.820019 266.74503 
L 358.161761 261.954535 
L 359.528727 261.954535 
L 359.870469 264.349782 
L 360.553952 264.349782 
L 360.895694 271.535525 
L 361.237435 271.535525 
L 361.579177 269.140277 
L 362.26266 269.140277 
L 362.604402 264.349782 
L 363.971368 264.349782 
L 364.31311 269.140277 
L 365.680077 269.140277 
L 366.021818 264.349782 
L 366.36356 264.349782 
L 366.705301 261.954535 
L 371.489684 261.954535 
L 371.831426 264.349782 
L 372.514909 264.349782 
L 372.856651 269.140277 
L 373.198392 269.140277 
L 373.540134 261.954535 
L 374.9071 261.954535 
L 375.248842 269.140277 
L 376.615809 269.140277 
L 376.95755 266.74503 
L 378.324517 266.74503 
L 378.666258 269.140277 
L 379.349742 269.140277 
L 379.691483 271.535525 
L 382.767158 271.535525 
L 383.1089 276.32602 
L 383.450641 276.32602 
L 383.792383 278.721267 
L 387.893282 278.721267 
L 388.235024 273.930772 
L 388.576766 273.930772 
L 388.918507 271.535525 
L 390.285474 271.535525 
L 390.627215 276.32602 
L 391.994182 276.32602 
L 392.335923 271.535525 
L 393.70289 271.535525 
L 394.044632 273.930772 
L 396.436823 273.930772 
L 396.778565 276.32602 
L 397.120306 276.32602 
L 397.462048 273.930772 
L 398.487273 273.930772 
L 398.487273 273.930772 
" clip-path="url(#pfe73ebe3a2)" style="fill: none; stroke-dasharray: 1.85,0.8; stroke-dashoffset: 0; stroke: #80ffb4; stroke-width: 0.5"/>
   </g>
   <g id="line2d_16">
    <path d="M 73.832727 295.488 
L 121.334813 295.488 
L 121.676555 293.092752 
L 124.75223 293.092752 
L 125.093971 290.697505 
L 128.169646 290.697505 
L 128.511388 285.90701 
L 131.587062 285.90701 
L 131.928804 281.116515 
L 138.421895 281.116515 
L 138.763636 269.140277 
L 141.839311 269.140277 
L 142.181053 259.559287 
L 145.256727 259.559287 
L 145.598469 242.792554 
L 148.674144 242.792554 
L 149.015885 223.630574 
L 152.09156 223.630574 
L 152.433301 199.678099 
L 155.508976 199.678099 
L 155.850718 202.073347 
L 158.926392 202.073347 
L 159.609876 197.282851 
L 162.68555 197.282851 
L 163.027292 194.887604 
L 163.369033 194.887604 
L 163.710775 192.492356 
L 164.394258 192.492356 
L 164.736 190.097109 
L 165.761225 190.097109 
L 166.102967 209.259089 
L 167.811675 209.259089 
L 168.153416 192.492356 
L 169.178641 192.492356 
L 169.520383 199.678099 
L 171.229091 199.678099 
L 171.570833 197.282851 
L 172.596057 197.282851 
L 172.937799 204.468594 
L 174.646507 204.468594 
L 174.988249 194.887604 
L 176.013474 194.887604 
L 176.355215 202.073347 
L 176.696957 204.468594 
L 178.063923 204.468594 
L 178.405665 197.282851 
L 179.43089 197.282851 
L 179.772632 218.840079 
L 180.114373 221.235327 
L 180.456115 221.235327 
L 180.797856 223.630574 
L 181.48134 223.630574 
L 181.823081 199.678099 
L 182.848306 199.678099 
L 183.190048 204.468594 
L 184.898756 204.468594 
L 185.240498 199.678099 
L 186.265722 199.678099 
L 186.607464 216.444832 
L 188.316172 216.444832 
L 188.657914 197.282851 
L 189.683139 197.282851 
L 190.02488 170.935129 
L 191.733589 170.935129 
L 192.07533 175.725624 
L 193.100555 175.725624 
L 193.442297 163.749386 
L 195.151005 163.749386 
L 195.492746 166.144634 
L 196.517971 166.144634 
L 196.859713 125.425426 
L 198.568421 125.425426 
L 198.910163 146.982653 
L 201.985837 146.982653 
L 202.327579 135.006416 
L 203.352804 135.006416 
L 203.694545 127.820673 
L 205.403254 127.820673 
L 205.744995 144.587406 
L 206.77022 144.587406 
L 207.111962 139.796911 
L 208.82067 139.796911 
L 209.162411 144.587406 
L 210.187636 144.587406 
L 210.529378 156.563644 
L 212.238086 156.563644 
L 212.579828 161.354139 
L 213.605053 161.354139 
L 213.946794 202.073347 
L 215.655502 202.073347 
L 215.997244 173.330376 
L 217.022469 173.330376 
L 217.364211 156.563644 
L 219.072919 156.563644 
L 219.41466 187.701861 
L 220.439885 187.701861 
L 220.781627 192.492356 
L 222.490335 192.492356 
L 222.832077 185.306614 
L 223.857301 185.306614 
L 224.199043 192.492356 
L 225.907751 192.492356 
L 226.249493 190.097109 
L 227.274718 190.097109 
L 227.616459 192.492356 
L 229.325167 192.492356 
L 229.666909 168.539881 
L 230.692134 168.539881 
L 231.033876 163.749386 
L 232.742584 163.749386 
L 233.084325 180.516119 
L 234.10955 180.516119 
L 234.451292 182.911366 
L 236.16 182.911366 
L 236.501742 185.306614 
L 237.526967 185.306614 
L 237.868708 187.701861 
L 239.577416 187.701861 
L 239.919158 185.306614 
L 240.944383 185.306614 
L 241.286124 209.259089 
L 246.412249 209.259089 
L 246.75399 218.840079 
L 247.779215 218.840079 
L 248.120957 223.630574 
L 249.829665 223.630574 
L 250.171407 240.397307 
L 251.196632 240.397307 
L 251.538373 245.187802 
L 253.247081 245.187802 
L 253.588823 226.025822 
L 254.614048 226.025822 
L 254.955789 223.630574 
L 256.664498 223.630574 
L 257.006239 230.816317 
L 258.031464 230.816317 
L 258.373206 228.421069 
L 264.866297 228.421069 
L 265.208038 218.840079 
L 266.916746 218.840079 
L 267.258488 192.492356 
L 268.283713 192.492356 
L 268.625455 202.073347 
L 270.334163 202.073347 
L 270.675904 221.235327 
L 271.701129 221.235327 
L 272.042871 223.630574 
L 273.751579 223.630574 
L 274.093321 209.259089 
L 277.168995 209.259089 
L 277.510737 206.863842 
L 280.586411 206.863842 
L 280.928153 209.259089 
L 281.953378 209.259089 
L 282.29512 187.701861 
L 284.003828 187.701861 
L 284.345569 199.678099 
L 285.370794 199.678099 
L 285.712536 197.282851 
L 287.421244 197.282851 
L 287.762986 194.887604 
L 288.788211 194.887604 
L 289.129952 185.306614 
L 290.83866 185.306614 
L 291.180402 206.863842 
L 292.205627 206.863842 
L 292.547368 211.654337 
L 294.256077 211.654337 
L 294.597818 214.049584 
L 297.673493 214.049584 
L 298.015234 221.235327 
L 299.040459 221.235327 
L 299.382201 252.373545 
L 301.090909 252.373545 
L 301.432651 266.74503 
L 304.508325 266.74503 
L 304.850067 252.373545 
L 309.292708 252.373545 
L 309.63445 254.768792 
L 311.343158 254.768792 
L 311.6849 257.16404 
L 314.760574 257.16404 
L 315.102316 261.954535 
L 316.127541 261.954535 
L 316.469282 254.768792 
L 318.17799 254.768792 
L 318.519732 249.978297 
L 321.595407 249.978297 
L 321.937148 254.768792 
L 325.012823 254.768792 
L 325.354565 252.373545 
L 329.797206 252.373545 
L 330.138947 257.16404 
L 331.847656 257.16404 
L 332.189397 249.978297 
L 333.214622 249.978297 
L 333.556364 235.606812 
L 335.265072 235.606812 
L 335.606813 230.816317 
L 338.682488 230.816317 
L 339.02423 242.792554 
L 340.049455 242.792554 
L 340.391196 252.373545 
L 342.099904 252.373545 
L 342.441646 254.768792 
L 343.466871 254.768792 
L 343.808612 245.187802 
L 345.517321 245.187802 
L 345.859062 240.397307 
L 348.934737 240.397307 
L 349.276478 247.58305 
L 350.301703 247.58305 
L 350.643445 269.140277 
L 352.352153 269.140277 
L 352.693895 276.32602 
L 353.71912 276.32602 
L 354.060861 261.954535 
L 355.769569 261.954535 
L 356.111311 259.559287 
L 360.553952 259.559287 
L 360.895694 264.349782 
L 362.604402 264.349782 
L 362.946144 269.140277 
L 366.021818 269.140277 
L 366.36356 264.349782 
L 369.439234 264.349782 
L 369.780976 266.74503 
L 370.806201 266.74503 
L 371.147943 283.511762 
L 372.856651 283.511762 
L 373.198392 285.90701 
L 374.223617 285.90701 
L 374.565359 278.721267 
L 377.641033 278.721267 
L 377.982775 281.116515 
L 379.691483 281.116515 
L 380.033225 276.32602 
L 381.05845 276.32602 
L 381.400191 271.535525 
L 383.1089 271.535525 
L 383.450641 276.32602 
L 386.526316 276.32602 
L 386.868057 271.535525 
L 389.943732 271.535525 
L 390.285474 269.140277 
L 391.310699 269.140277 
L 391.65244 257.16404 
L 393.361148 257.16404 
L 393.70289 252.373545 
L 394.728115 252.373545 
L 395.069856 254.768792 
L 396.778565 254.768792 
L 397.120306 259.559287 
L 398.145531 259.559287 
L 398.487273 264.349782 
L 398.487273 264.349782 
" clip-path="url(#pfe73ebe3a2)" style="fill: none; stroke-dasharray: 1.85,0.8; stroke-dashoffset: 0; stroke: #ffb360; stroke-width: 0.5"/>
   </g>
   <g id="line2d_17">
    <path d="M 73.832727 295.488 
L 124.75223 295.488 
L 125.093971 293.092752 
L 131.587062 293.092752 
L 131.928804 285.90701 
L 138.421895 285.90701 
L 138.763636 259.559287 
L 141.839311 259.559287 
L 142.181053 261.954535 
L 145.256727 261.954535 
L 145.598469 235.606812 
L 148.674144 235.606812 
L 149.015885 242.792554 
L 152.09156 242.792554 
L 152.433301 216.444832 
L 155.508976 216.444832 
L 155.850718 242.792554 
L 158.926392 242.792554 
L 159.268134 216.444832 
L 162.343809 216.444832 
L 162.68555 242.792554 
L 165.761225 242.792554 
L 166.102967 192.492356 
L 169.178641 192.492356 
L 169.520383 218.840079 
L 172.596057 218.840079 
L 172.937799 204.468594 
L 176.013474 204.468594 
L 176.355215 230.816317 
L 179.43089 230.816317 
L 179.772632 216.444832 
L 182.848306 216.444832 
L 183.190048 266.74503 
L 186.265722 266.74503 
L 186.607464 170.935129 
L 189.683139 170.935129 
L 190.02488 185.306614 
L 193.100555 185.306614 
L 193.442297 170.935129 
L 196.517971 170.935129 
L 196.859713 185.306614 
L 199.935388 185.306614 
L 200.277129 166.144634 
L 203.352804 166.144634 
L 203.694545 261.954535 
L 206.77022 261.954535 
L 207.111962 214.049584 
L 210.187636 214.049584 
L 210.529378 228.421069 
L 213.605053 228.421069 
L 213.946794 166.144634 
L 217.022469 166.144634 
L 217.364211 185.306614 
L 220.439885 185.306614 
L 220.781627 94.287208 
L 223.857301 94.287208 
L 224.199043 142.192158 
L 227.274718 142.192158 
L 227.616459 111.053941 
L 230.692134 111.053941 
L 231.033876 173.330376 
L 234.10955 173.330376 
L 234.451292 142.192158 
L 237.526967 142.192158 
L 237.868708 233.211564 
L 240.944383 233.211564 
L 241.286124 209.259089 
L 244.361799 209.259089 
L 244.703541 240.397307 
L 247.779215 240.397307 
L 248.120957 170.935129 
L 251.196632 170.935129 
L 251.538373 202.073347 
L 258.031464 202.073347 
L 258.373206 226.025822 
L 261.44888 226.025822 
L 261.790622 199.678099 
L 264.866297 199.678099 
L 265.208038 269.140277 
L 268.283713 269.140277 
L 268.625455 247.58305 
L 275.118545 247.58305 
L 275.460287 223.630574 
L 278.535962 223.630574 
L 278.877703 249.978297 
L 281.953378 249.978297 
L 282.29512 235.606812 
L 285.370794 235.606812 
L 285.712536 257.16404 
L 288.788211 257.16404 
L 289.129952 214.049584 
L 292.205627 214.049584 
L 292.547368 238.002059 
L 293.230852 238.002059 
L 293.572593 216.444832 
L 295.623043 216.444832 
L 295.964785 194.887604 
L 299.040459 194.887604 
L 299.382201 209.259089 
L 300.065684 209.259089 
L 300.407426 197.282851 
L 302.457876 197.282851 
L 302.799617 180.516119 
L 305.875292 180.516119 
L 306.217033 223.630574 
L 306.900517 223.630574 
L 307.242258 221.235327 
L 309.292708 221.235327 
L 309.63445 197.282851 
L 310.317933 197.282851 
L 310.659675 218.840079 
L 312.710124 218.840079 
L 313.051866 240.397307 
L 316.127541 240.397307 
L 316.469282 238.002059 
L 317.152766 238.002059 
L 317.494507 249.978297 
L 319.544957 249.978297 
L 319.886699 266.74503 
L 320.570182 266.74503 
L 320.911923 261.954535 
L 323.987598 261.954535 
L 324.32934 264.349782 
L 326.379789 264.349782 
L 326.721531 288.302257 
L 327.405014 288.302257 
L 327.746756 257.16404 
L 329.797206 257.16404 
L 330.138947 245.187802 
L 333.214622 245.187802 
L 333.556364 247.58305 
L 334.239847 247.58305 
L 334.581589 233.211564 
L 337.657263 233.211564 
L 337.999005 238.002059 
L 341.074679 238.002059 
L 341.416421 228.421069 
L 342.783388 228.421069 
L 343.125129 221.235327 
L 344.492096 221.235327 
L 344.833837 252.373545 
L 346.884287 252.373545 
L 347.226029 264.349782 
L 349.61822 264.349782 
L 349.959962 257.16404 
L 351.326928 257.16404 
L 351.66867 271.535525 
L 354.744344 271.535525 
L 355.086086 259.559287 
L 356.453053 259.559287 
L 356.794794 254.768792 
L 358.161761 254.768792 
L 358.503502 264.349782 
L 359.870469 264.349782 
L 360.212211 271.535525 
L 361.579177 271.535525 
L 361.920919 266.74503 
L 363.287885 266.74503 
L 363.629627 254.768792 
L 366.705301 254.768792 
L 367.047043 261.954535 
L 368.41401 261.954535 
L 368.755751 257.16404 
L 370.122718 257.16404 
L 370.464459 247.58305 
L 371.831426 247.58305 
L 372.173167 259.559287 
L 373.540134 259.559287 
L 373.881876 264.349782 
L 378.666258 264.349782 
L 379.008 269.140277 
L 380.374967 269.140277 
L 380.716708 281.116515 
L 382.083675 281.116515 
L 382.425416 276.32602 
L 383.792383 276.32602 
L 384.134124 271.535525 
L 385.501091 271.535525 
L 385.842833 276.32602 
L 387.209799 276.32602 
L 387.551541 285.90701 
L 388.918507 285.90701 
L 389.260249 278.721267 
L 390.627215 278.721267 
L 390.968957 271.535525 
L 395.75334 271.535525 
L 396.095081 269.140277 
L 398.487273 269.140277 
L 398.487273 269.140277 
" clip-path="url(#pfe73ebe3a2)" style="fill: none; stroke-dasharray: 1.85,0.8; stroke-dashoffset: 0; stroke: #ff0000; stroke-width: 0.5"/>
   </g>
   <g id="patch_3">
    <path d="M 57.6 307.584 
L 57.6 41.472 
" style="fill: none; stroke: #000000; stroke-width: 0.8; stroke-linejoin: miter; stroke-linecap: square"/>
   </g>
   <g id="patch_4">
    <path d="M 414.72 307.584 
L 414.72 41.472 
" style="fill: none; stroke: #000000; stroke-width: 0.8; stroke-linejoin: miter; stroke-linecap: square"/>
   </g>
   <g id="patch_5">
    <path d="M 57.6 307.584 
L 414.72 307.584 
" style="fill: none; stroke: #000000; stroke-width: 0.8; stroke-linejoin: miter; stroke-linecap: square"/>
   </g>
   <g id="patch_6">
    <path d="M 57.6 41.472 
L 414.72 41.472 
" style="fill: none; stroke: #000000; stroke-width: 0.8; stroke-linejoin: miter; stroke-linecap: square"/>
   </g>
   <g id="text_15">
    <!-- Heating Rate ($^{\circ}C.s^{-1}$) -->
    <g transform="translate(271.872 68.0832) scale(0.12 -0.12)">
     <defs>
      <path id="DejaVuSans-48" d="M 628 4666 
L 1259 4666 
L 1259 2753 
L 3553 2753 
L 3553 4666 
L 4184 4666 
L 4184 0 
L 3553 0 
L 3553 2222 
L 1259 2222 
L 1259 0 
L 628 0 
L 628 4666 
z
" transform="scale(0.015625)"/>
      <path id="DejaVuSans-67" d="M 2906 1791 
Q 2906 2416 2648 2759 
Q 2391 3103 1925 3103 
Q 1463 3103 1205 2759 
Q 947 2416 947 1791 
Q 947 1169 1205 825 
Q 1463 481 1925 481 
Q 2391 481 2648 825 
Q 2906 1169 2906 1791 
z
M 3481 434 
Q 3481 -459 3084 -895 
Q 2688 -1331 1869 -1331 
Q 1566 -1331 1297 -1286 
Q 1028 -1241 775 -1147 
L 775 -588 
Q 1028 -725 1275 -790 
Q 1522 -856 1778 -856 
Q 2344 -856 2625 -561 
Q 2906 -266 2906 331 
L 2906 616 
Q 2728 306 2450 153 
Q 2172 0 1784 0 
Q 1141 0 747 490 
Q 353 981 353 1791 
Q 353 2603 747 3093 
Q 1141 3584 1784 3584 
Q 2172 3584 2450 3431 
Q 2728 3278 2906 2969 
L 2906 3500 
L 3481 3500 
L 3481 434 
z
" transform="scale(0.015625)"/>
      <path id="DejaVuSans-52" d="M 2841 2188 
Q 3044 2119 3236 1894 
Q 3428 1669 3622 1275 
L 4263 0 
L 3584 0 
L 2988 1197 
Q 2756 1666 2539 1819 
Q 2322 1972 1947 1972 
L 1259 1972 
L 1259 0 
L 628 0 
L 628 4666 
L 2053 4666 
Q 2853 4666 3247 4331 
Q 3641 3997 3641 3322 
Q 3641 2881 3436 2590 
Q 3231 2300 2841 2188 
z
M 1259 4147 
L 1259 2491 
L 2053 2491 
Q 2509 2491 2742 2702 
Q 2975 2913 2975 3322 
Q 2975 3731 2742 3939 
Q 2509 4147 2053 4147 
L 1259 4147 
z
" transform="scale(0.015625)"/>
      <path id="DejaVuSans-Oblique-73" d="M 3200 3397 
L 3091 2853 
Q 2863 2978 2609 3040 
Q 2356 3103 2088 3103 
Q 1634 3103 1373 2948 
Q 1113 2794 1113 2528 
Q 1113 2219 1719 2053 
Q 1766 2041 1788 2034 
L 1972 1978 
Q 2547 1819 2739 1644 
Q 2931 1469 2931 1166 
Q 2931 609 2489 259 
Q 2047 -91 1331 -91 
Q 1053 -91 747 -37 
Q 441 16 72 128 
L 184 722 
Q 500 559 806 475 
Q 1113 391 1394 391 
Q 1816 391 2080 572 
Q 2344 753 2344 1031 
Q 2344 1331 1650 1516 
L 1591 1531 
L 1394 1581 
Q 956 1697 753 1886 
Q 550 2075 550 2369 
Q 550 2928 970 3256 
Q 1391 3584 2113 3584 
Q 2397 3584 2667 3537 
Q 2938 3491 3200 3397 
z
" transform="scale(0.015625)"/>
     </defs>
     <use xlink:href="#DejaVuSans-48" transform="translate(0 0.684375)"/>
     <use xlink:href="#DejaVuSans-65" transform="translate(75.195312 0.684375)"/>
     <use xlink:href="#DejaVuSans-61" transform="translate(136.71875 0.684375)"/>
     <use xlink:href="#DejaVuSans-74" transform="translate(197.998047 0.684375)"/>
     <use xlink:href="#DejaVuSans-69" transform="translate(237.207031 0.684375)"/>
     <use xlink:href="#DejaVuSans-6e" transform="translate(264.990234 0.684375)"/>
     <use xlink:href="#DejaVuSans-67" transform="translate(328.369141 0.684375)"/>
     <use xlink:href="#DejaVuSans-20" transform="translate(391.845703 0.684375)"/>
     <use xlink:href="#DejaVuSans-52" transform="translate(423.632812 0.684375)"/>
     <use xlink:href="#DejaVuSans-61" transform="translate(493.115234 0.684375)"/>
     <use xlink:href="#DejaVuSans-74" transform="translate(554.394531 0.684375)"/>
     <use xlink:href="#DejaVuSans-65" transform="translate(593.603516 0.684375)"/>
     <use xlink:href="#DejaVuSans-20" transform="translate(655.126953 0.684375)"/>
     <use xlink:href="#DejaVuSans-28" transform="translate(686.914062 0.684375)"/>
     <use xlink:href="#DejaVuSans-2218" transform="translate(726.884766 38.965625) scale(0.7)"/>
     <use xlink:href="#DejaVuSans-Oblique-43" transform="translate(773.4375 0.684375)"/>
     <use xlink:href="#DejaVuSans-2e" transform="translate(843.261719 0.684375)"/>
     <use xlink:href="#DejaVuSans-Oblique-73" transform="translate(894.53125 0.684375)"/>
     <use xlink:href="#DejaVuSans-2212" transform="translate(951.280755 38.965625) scale(0.7)"/>
     <use xlink:href="#DejaVuSans-31" transform="translate(1009.933099 38.965625) scale(0.7)"/>
     <use xlink:href="#DejaVuSans-29" transform="translate(1057.203607 0.684375)"/>
    </g>
   </g>
   <g id="legend_1">
    <g id="patch_7">
     <path d="M 314.584 149.473825 
L 362.487125 149.473825 
Q 364.487125 149.473825 364.487125 147.473825 
L 364.487125 75.0832 
Q 364.487125 73.0832 362.487125 73.0832 
L 314.584 73.0832 
Q 312.584 73.0832 312.584 75.0832 
L 312.584 147.473825 
Q 312.584 149.473825 314.584 149.473825 
z
" style="fill: #ffffff; opacity: 0.8; stroke: #cccccc; stroke-linejoin: miter"/>
    </g>
    <g id="line2d_18">
     <path d="M 316.584 81.181637 
L 326.584 81.181637 
L 336.584 81.181637 
" style="fill: none; stroke-dasharray: 1.85,0.8; stroke-dashoffset: 0; stroke: #8000ff; stroke-width: 0.5"/>
    </g>
    <g id="text_16">
     <!-- 0.1 -->
     <g transform="translate(344.584 84.681637) scale(0.1 -0.1)">
      <use xlink:href="#DejaVuSans-30"/>
      <use xlink:href="#DejaVuSans-2e" transform="translate(63.623047 0)"/>
      <use xlink:href="#DejaVuSans-31" transform="translate(95.410156 0)"/>
     </g>
    </g>
    <g id="line2d_19">
     <path d="M 316.584 95.859762 
L 326.584 95.859762 
L 336.584 95.859762 
" style="fill: none; stroke-dasharray: 1.85,0.8; stroke-dashoffset: 0; stroke: #00b5eb; stroke-width: 0.5"/>
    </g>
    <g id="text_17">
     <!-- 1 -->
     <g transform="translate(344.584 99.359762) scale(0.1 -0.1)">
      <use xlink:href="#DejaVuSans-31"/>
     </g>
    </g>
    <g id="line2d_20">
     <path d="M 316.584 110.537887 
L 326.584 110.537887 
L 336.584 110.537887 
" style="fill: none; stroke-dasharray: 1.85,0.8; stroke-dashoffset: 0; stroke: #80ffb4; stroke-width: 0.5"/>
    </g>
    <g id="text_18">
     <!-- 5 -->
     <g transform="translate(344.584 114.037887) scale(0.1 -0.1)">
      <defs>
       <path id="DejaVuSans-35" d="M 691 4666 
L 3169 4666 
L 3169 4134 
L 1269 4134 
L 1269 2991 
Q 1406 3038 1543 3061 
Q 1681 3084 1819 3084 
Q 2600 3084 3056 2656 
Q 3513 2228 3513 1497 
Q 3513 744 3044 326 
Q 2575 -91 1722 -91 
Q 1428 -91 1123 -41 
Q 819 9 494 109 
L 494 744 
Q 775 591 1075 516 
Q 1375 441 1709 441 
Q 2250 441 2565 725 
Q 2881 1009 2881 1497 
Q 2881 1984 2565 2268 
Q 2250 2553 1709 2553 
Q 1456 2553 1204 2497 
Q 953 2441 691 2322 
L 691 4666 
z
" transform="scale(0.015625)"/>
      </defs>
      <use xlink:href="#DejaVuSans-35"/>
     </g>
    </g>
    <g id="line2d_21">
     <path d="M 316.584 125.216012 
L 326.584 125.216012 
L 336.584 125.216012 
" style="fill: none; stroke-dasharray: 1.85,0.8; stroke-dashoffset: 0; stroke: #ffb360; stroke-width: 0.5"/>
    </g>
    <g id="text_19">
     <!-- 10 -->
     <g transform="translate(344.584 128.716012) scale(0.1 -0.1)">
      <use xlink:href="#DejaVuSans-31"/>
      <use xlink:href="#DejaVuSans-30" transform="translate(63.623047 0)"/>
     </g>
    </g>
    <g id="line2d_22">
     <path d="M 316.584 139.894137 
L 326.584 139.894137 
L 336.584 139.894137 
" style="fill: none; stroke-dasharray: 1.85,0.8; stroke-dashoffset: 0; stroke: #ff0000; stroke-width: 0.5"/>
    </g>
    <g id="text_20">
     <!-- 20 -->
     <g transform="translate(344.584 143.394137) scale(0.1 -0.1)">
      <use xlink:href="#DejaVuSans-32"/>
      <use xlink:href="#DejaVuSans-30" transform="translate(63.623047 0)"/>
     </g>
    </g>
   </g>
  </g>
 </g>
 <defs>
  <clipPath id="pfe73ebe3a2">
   <rect x="57.6" y="41.472" width="357.12" height="266.112"/>
  </clipPath>
 </defs>
</svg>
