<?xml version="1.0" encoding="utf-8" standalone="no"?>
<!DOCTYPE svg PUBLIC "-//W3C//DTD SVG 1.1//EN"
  "http://www.w3.org/Graphics/SVG/1.1/DTD/svg11.dtd">
<svg xmlns:xlink="http://www.w3.org/1999/xlink" width="720pt" height="360pt" viewBox="0 0 720 360" xmlns="http://www.w3.org/2000/svg" version="1.1">
 <metadata>
  <rdf:RDF xmlns:dc="http://purl.org/dc/elements/1.1/" xmlns:cc="http://creativecommons.org/ns#" xmlns:rdf="http://www.w3.org/1999/02/22-rdf-syntax-ns#">
   <cc:Work>
    <dc:type rdf:resource="http://purl.org/dc/dcmitype/StillImage"/>
    <dc:date>2025-03-25T21:27:33.367239</dc:date>
    <dc:format>image/svg+xml</dc:format>
    <dc:creator>
     <cc:Agent>
      <dc:title>Matplotlib v3.10.0, https://matplotlib.org/</dc:title>
     </cc:Agent>
    </dc:creator>
   </cc:Work>
  </rdf:RDF>
 </metadata>
 <defs>
  <style type="text/css">*{stroke-linejoin: round; stroke-linecap: butt}</style>
 </defs>
 <g id="figure_1">
  <g id="patch_1">
   <path d="M 0 360 
L 720 360 
L 720 0 
L 0 0 
z
" style="fill: #ffffff"/>
  </g>
  <g id="axes_1">
   <g id="patch_2">
    <path d="M 50.87 314.728 
L 709.2 314.728 
L 709.2 26.88 
L 50.87 26.88 
z
" style="fill: #ffffff"/>
   </g>
   <g id="matplotlib.axis_1">
    <g id="xtick_1">
     <g id="line2d_1">
      <defs>
       <path id="m4daa93b176" d="M 0 0 
L 0 3.5 
" style="stroke: #000000; stroke-width: 0.8"/>
      </defs>
      <g>
       <use xlink:href="#m4daa93b176" x="132.231012" y="314.728" style="stroke: #000000; stroke-width: 0.8"/>
      </g>
     </g>
     <g id="text_1">
      <!-- $\mathdefault{10^{-13}}$ -->
      <g transform="translate(118.281012 329.326437) scale(0.1 -0.1)">
       <defs>
        <path id="DejaVuSans-31" d="M 794 531 
L 1825 531 
L 1825 4091 
L 703 3866 
L 703 4441 
L 1819 4666 
L 2450 4666 
L 2450 531 
L 3481 531 
L 3481 0 
L 794 0 
L 794 531 
z
" transform="scale(0.015625)"/>
        <path id="DejaVuSans-30" d="M 2034 4250 
Q 1547 4250 1301 3770 
Q 1056 3291 1056 2328 
Q 1056 1369 1301 889 
Q 1547 409 2034 409 
Q 2525 409 2770 889 
Q 3016 1369 3016 2328 
Q 3016 3291 2770 3770 
Q 2525 4250 2034 4250 
z
M 2034 4750 
Q 2819 4750 3233 4129 
Q 3647 3509 3647 2328 
Q 3647 1150 3233 529 
Q 2819 -91 2034 -91 
Q 1250 -91 836 529 
Q 422 1150 422 2328 
Q 422 3509 836 4129 
Q 1250 4750 2034 4750 
z
" transform="scale(0.015625)"/>
        <path id="DejaVuSans-2212" d="M 678 2272 
L 4684 2272 
L 4684 1741 
L 678 1741 
L 678 2272 
z
" transform="scale(0.015625)"/>
        <path id="DejaVuSans-33" d="M 2597 2516 
Q 3050 2419 3304 2112 
Q 3559 1806 3559 1356 
Q 3559 666 3084 287 
Q 2609 -91 1734 -91 
Q 1441 -91 1130 -33 
Q 819 25 488 141 
L 488 750 
Q 750 597 1062 519 
Q 1375 441 1716 441 
Q 2309 441 2620 675 
Q 2931 909 2931 1356 
Q 2931 1769 2642 2001 
Q 2353 2234 1838 2234 
L 1294 2234 
L 1294 2753 
L 1863 2753 
Q 2328 2753 2575 2939 
Q 2822 3125 2822 3475 
Q 2822 3834 2567 4026 
Q 2313 4219 1838 4219 
Q 1578 4219 1281 4162 
Q 984 4106 628 3988 
L 628 4550 
Q 988 4650 1302 4700 
Q 1616 4750 1894 4750 
Q 2613 4750 3031 4423 
Q 3450 4097 3450 3541 
Q 3450 3153 3228 2886 
Q 3006 2619 2597 2516 
z
" transform="scale(0.015625)"/>
       </defs>
       <use xlink:href="#DejaVuSans-31" transform="translate(0 0.765625)"/>
       <use xlink:href="#DejaVuSans-30" transform="translate(63.623047 0.765625)"/>
       <use xlink:href="#DejaVuSans-2212" transform="translate(128.203125 39.046875) scale(0.7)"/>
       <use xlink:href="#DejaVuSans-31" transform="translate(186.855469 39.046875) scale(0.7)"/>
       <use xlink:href="#DejaVuSans-33" transform="translate(231.391602 39.046875) scale(0.7)"/>
      </g>
     </g>
    </g>
    <g id="xtick_2">
     <g id="line2d_2">
      <g>
       <use xlink:href="#m4daa93b176" x="217.183355" y="314.728" style="stroke: #000000; stroke-width: 0.8"/>
      </g>
     </g>
     <g id="text_2">
      <!-- $\mathdefault{10^{-8}}$ -->
      <g transform="translate(205.433355 329.326437) scale(0.1 -0.1)">
       <defs>
        <path id="DejaVuSans-38" d="M 2034 2216 
Q 1584 2216 1326 1975 
Q 1069 1734 1069 1313 
Q 1069 891 1326 650 
Q 1584 409 2034 409 
Q 2484 409 2743 651 
Q 3003 894 3003 1313 
Q 3003 1734 2745 1975 
Q 2488 2216 2034 2216 
z
M 1403 2484 
Q 997 2584 770 2862 
Q 544 3141 544 3541 
Q 544 4100 942 4425 
Q 1341 4750 2034 4750 
Q 2731 4750 3128 4425 
Q 3525 4100 3525 3541 
Q 3525 3141 3298 2862 
Q 3072 2584 2669 2484 
Q 3125 2378 3379 2068 
Q 3634 1759 3634 1313 
Q 3634 634 3220 271 
Q 2806 -91 2034 -91 
Q 1263 -91 848 271 
Q 434 634 434 1313 
Q 434 1759 690 2068 
Q 947 2378 1403 2484 
z
M 1172 3481 
Q 1172 3119 1398 2916 
Q 1625 2713 2034 2713 
Q 2441 2713 2670 2916 
Q 2900 3119 2900 3481 
Q 2900 3844 2670 4047 
Q 2441 4250 2034 4250 
Q 1625 4250 1398 4047 
Q 1172 3844 1172 3481 
z
" transform="scale(0.015625)"/>
       </defs>
       <use xlink:href="#DejaVuSans-31" transform="translate(0 0.765625)"/>
       <use xlink:href="#DejaVuSans-30" transform="translate(63.623047 0.765625)"/>
       <use xlink:href="#DejaVuSans-2212" transform="translate(128.203125 39.046875) scale(0.7)"/>
       <use xlink:href="#DejaVuSans-38" transform="translate(186.855469 39.046875) scale(0.7)"/>
      </g>
     </g>
    </g>
    <g id="xtick_3">
     <g id="line2d_3">
      <g>
       <use xlink:href="#m4daa93b176" x="302.135698" y="314.728" style="stroke: #000000; stroke-width: 0.8"/>
      </g>
     </g>
     <g id="text_3">
      <!-- $\mathdefault{10^{-3}}$ -->
      <g transform="translate(290.385698 329.326437) scale(0.1 -0.1)">
       <use xlink:href="#DejaVuSans-31" transform="translate(0 0.765625)"/>
       <use xlink:href="#DejaVuSans-30" transform="translate(63.623047 0.765625)"/>
       <use xlink:href="#DejaVuSans-2212" transform="translate(128.203125 39.046875) scale(0.7)"/>
       <use xlink:href="#DejaVuSans-33" transform="translate(186.855469 39.046875) scale(0.7)"/>
      </g>
     </g>
    </g>
    <g id="xtick_4">
     <g id="line2d_4">
      <g>
       <use xlink:href="#m4daa93b176" x="387.088042" y="314.728" style="stroke: #000000; stroke-width: 0.8"/>
      </g>
     </g>
     <g id="text_4">
      <!-- $\mathdefault{10^{2}}$ -->
      <g transform="translate(378.288042 329.326437) scale(0.1 -0.1)">
       <defs>
        <path id="DejaVuSans-32" d="M 1228 531 
L 3431 531 
L 3431 0 
L 469 0 
L 469 531 
Q 828 903 1448 1529 
Q 2069 2156 2228 2338 
Q 2531 2678 2651 2914 
Q 2772 3150 2772 3378 
Q 2772 3750 2511 3984 
Q 2250 4219 1831 4219 
Q 1534 4219 1204 4116 
Q 875 4013 500 3803 
L 500 4441 
Q 881 4594 1212 4672 
Q 1544 4750 1819 4750 
Q 2544 4750 2975 4387 
Q 3406 4025 3406 3419 
Q 3406 3131 3298 2873 
Q 3191 2616 2906 2266 
Q 2828 2175 2409 1742 
Q 1991 1309 1228 531 
z
" transform="scale(0.015625)"/>
       </defs>
       <use xlink:href="#DejaVuSans-31" transform="translate(0 0.765625)"/>
       <use xlink:href="#DejaVuSans-30" transform="translate(63.623047 0.765625)"/>
       <use xlink:href="#DejaVuSans-32" transform="translate(128.203125 39.046875) scale(0.7)"/>
      </g>
     </g>
    </g>
    <g id="xtick_5">
     <g id="line2d_5">
      <g>
       <use xlink:href="#m4daa93b176" x="472.040385" y="314.728" style="stroke: #000000; stroke-width: 0.8"/>
      </g>
     </g>
     <g id="text_5">
      <!-- $\mathdefault{10^{7}}$ -->
      <g transform="translate(463.240385 329.326437) scale(0.1 -0.1)">
       <defs>
        <path id="DejaVuSans-37" d="M 525 4666 
L 3525 4666 
L 3525 4397 
L 1831 0 
L 1172 0 
L 2766 4134 
L 525 4134 
L 525 4666 
z
" transform="scale(0.015625)"/>
       </defs>
       <use xlink:href="#DejaVuSans-31" transform="translate(0 0.684375)"/>
       <use xlink:href="#DejaVuSans-30" transform="translate(63.623047 0.684375)"/>
       <use xlink:href="#DejaVuSans-37" transform="translate(128.203125 38.965625) scale(0.7)"/>
      </g>
     </g>
    </g>
    <g id="xtick_6">
     <g id="line2d_6">
      <g>
       <use xlink:href="#m4daa93b176" x="556.992728" y="314.728" style="stroke: #000000; stroke-width: 0.8"/>
      </g>
     </g>
     <g id="text_6">
      <!-- $\mathdefault{10^{12}}$ -->
      <g transform="translate(545.942728 329.326437) scale(0.1 -0.1)">
       <use xlink:href="#DejaVuSans-31" transform="translate(0 0.765625)"/>
       <use xlink:href="#DejaVuSans-30" transform="translate(63.623047 0.765625)"/>
       <use xlink:href="#DejaVuSans-31" transform="translate(128.203125 39.046875) scale(0.7)"/>
       <use xlink:href="#DejaVuSans-32" transform="translate(172.739258 39.046875) scale(0.7)"/>
      </g>
     </g>
    </g>
    <g id="xtick_7">
     <g id="line2d_7">
      <g>
       <use xlink:href="#m4daa93b176" x="641.945072" y="314.728" style="stroke: #000000; stroke-width: 0.8"/>
      </g>
     </g>
     <g id="text_7">
      <!-- $\mathdefault{10^{17}}$ -->
      <g transform="translate(630.895072 329.326437) scale(0.1 -0.1)">
       <use xlink:href="#DejaVuSans-31" transform="translate(0 0.684375)"/>
       <use xlink:href="#DejaVuSans-30" transform="translate(63.623047 0.684375)"/>
       <use xlink:href="#DejaVuSans-31" transform="translate(128.203125 38.965625) scale(0.7)"/>
       <use xlink:href="#DejaVuSans-37" transform="translate(172.739258 38.965625) scale(0.7)"/>
      </g>
     </g>
    </g>
    <g id="text_8">
     <!-- Time (s) -->
     <g transform="translate(359.706094 343.004562) scale(0.1 -0.1)">
      <defs>
       <path id="DejaVuSans-54" d="M -19 4666 
L 3928 4666 
L 3928 4134 
L 2272 4134 
L 2272 0 
L 1638 0 
L 1638 4134 
L -19 4134 
L -19 4666 
z
" transform="scale(0.015625)"/>
       <path id="DejaVuSans-69" d="M 603 3500 
L 1178 3500 
L 1178 0 
L 603 0 
L 603 3500 
z
M 603 4863 
L 1178 4863 
L 1178 4134 
L 603 4134 
L 603 4863 
z
" transform="scale(0.015625)"/>
       <path id="DejaVuSans-6d" d="M 3328 2828 
Q 3544 3216 3844 3400 
Q 4144 3584 4550 3584 
Q 5097 3584 5394 3201 
Q 5691 2819 5691 2113 
L 5691 0 
L 5113 0 
L 5113 2094 
Q 5113 2597 4934 2840 
Q 4756 3084 4391 3084 
Q 3944 3084 3684 2787 
Q 3425 2491 3425 1978 
L 3425 0 
L 2847 0 
L 2847 2094 
Q 2847 2600 2669 2842 
Q 2491 3084 2119 3084 
Q 1678 3084 1418 2786 
Q 1159 2488 1159 1978 
L 1159 0 
L 581 0 
L 581 3500 
L 1159 3500 
L 1159 2956 
Q 1356 3278 1631 3431 
Q 1906 3584 2284 3584 
Q 2666 3584 2933 3390 
Q 3200 3197 3328 2828 
z
" transform="scale(0.015625)"/>
       <path id="DejaVuSans-65" d="M 3597 1894 
L 3597 1613 
L 953 1613 
Q 991 1019 1311 708 
Q 1631 397 2203 397 
Q 2534 397 2845 478 
Q 3156 559 3463 722 
L 3463 178 
Q 3153 47 2828 -22 
Q 2503 -91 2169 -91 
Q 1331 -91 842 396 
Q 353 884 353 1716 
Q 353 2575 817 3079 
Q 1281 3584 2069 3584 
Q 2775 3584 3186 3129 
Q 3597 2675 3597 1894 
z
M 3022 2063 
Q 3016 2534 2758 2815 
Q 2500 3097 2075 3097 
Q 1594 3097 1305 2825 
Q 1016 2553 972 2059 
L 3022 2063 
z
" transform="scale(0.015625)"/>
       <path id="DejaVuSans-20" transform="scale(0.015625)"/>
       <path id="DejaVuSans-28" d="M 1984 4856 
Q 1566 4138 1362 3434 
Q 1159 2731 1159 2009 
Q 1159 1288 1364 580 
Q 1569 -128 1984 -844 
L 1484 -844 
Q 1016 -109 783 600 
Q 550 1309 550 2009 
Q 550 2706 781 3412 
Q 1013 4119 1484 4856 
L 1984 4856 
z
" transform="scale(0.015625)"/>
       <path id="DejaVuSans-73" d="M 2834 3397 
L 2834 2853 
Q 2591 2978 2328 3040 
Q 2066 3103 1784 3103 
Q 1356 3103 1142 2972 
Q 928 2841 928 2578 
Q 928 2378 1081 2264 
Q 1234 2150 1697 2047 
L 1894 2003 
Q 2506 1872 2764 1633 
Q 3022 1394 3022 966 
Q 3022 478 2636 193 
Q 2250 -91 1575 -91 
Q 1294 -91 989 -36 
Q 684 19 347 128 
L 347 722 
Q 666 556 975 473 
Q 1284 391 1588 391 
Q 1994 391 2212 530 
Q 2431 669 2431 922 
Q 2431 1156 2273 1281 
Q 2116 1406 1581 1522 
L 1381 1569 
Q 847 1681 609 1914 
Q 372 2147 372 2553 
Q 372 3047 722 3315 
Q 1072 3584 1716 3584 
Q 2034 3584 2315 3537 
Q 2597 3491 2834 3397 
z
" transform="scale(0.015625)"/>
       <path id="DejaVuSans-29" d="M 513 4856 
L 1013 4856 
Q 1481 4119 1714 3412 
Q 1947 2706 1947 2009 
Q 1947 1309 1714 600 
Q 1481 -109 1013 -844 
L 513 -844 
Q 928 -128 1133 580 
Q 1338 1288 1338 2009 
Q 1338 2731 1133 3434 
Q 928 4138 513 4856 
z
" transform="scale(0.015625)"/>
      </defs>
      <use xlink:href="#DejaVuSans-54"/>
      <use xlink:href="#DejaVuSans-69" transform="translate(57.958984 0)"/>
      <use xlink:href="#DejaVuSans-6d" transform="translate(85.742188 0)"/>
      <use xlink:href="#DejaVuSans-65" transform="translate(183.154297 0)"/>
      <use xlink:href="#DejaVuSans-20" transform="translate(244.677734 0)"/>
      <use xlink:href="#DejaVuSans-28" transform="translate(276.464844 0)"/>
      <use xlink:href="#DejaVuSans-73" transform="translate(315.478516 0)"/>
      <use xlink:href="#DejaVuSans-29" transform="translate(367.578125 0)"/>
     </g>
    </g>
   </g>
   <g id="matplotlib.axis_2">
    <g id="ytick_1">
     <g id="line2d_8">
      <defs>
       <path id="m5696221044" d="M 0 0 
L -3.5 0 
" style="stroke: #000000; stroke-width: 0.8"/>
      </defs>
      <g>
       <use xlink:href="#m5696221044" x="50.87" y="301.937385" style="stroke: #000000; stroke-width: 0.8"/>
      </g>
     </g>
     <g id="text_9">
      <!-- 0 -->
      <g transform="translate(37.5075 305.736604) scale(0.1 -0.1)">
       <use xlink:href="#DejaVuSans-30"/>
      </g>
     </g>
    </g>
    <g id="ytick_2">
     <g id="line2d_9">
      <g>
       <use xlink:href="#m5696221044" x="50.87" y="249.580465" style="stroke: #000000; stroke-width: 0.8"/>
      </g>
     </g>
     <g id="text_10">
      <!-- 20 -->
      <g transform="translate(31.145 253.379683) scale(0.1 -0.1)">
       <use xlink:href="#DejaVuSans-32"/>
       <use xlink:href="#DejaVuSans-30" transform="translate(63.623047 0)"/>
      </g>
     </g>
    </g>
    <g id="ytick_3">
     <g id="line2d_10">
      <g>
       <use xlink:href="#m5696221044" x="50.87" y="197.223544" style="stroke: #000000; stroke-width: 0.8"/>
      </g>
     </g>
     <g id="text_11">
      <!-- 40 -->
      <g transform="translate(31.145 201.022763) scale(0.1 -0.1)">
       <defs>
        <path id="DejaVuSans-34" d="M 2419 4116 
L 825 1625 
L 2419 1625 
L 2419 4116 
z
M 2253 4666 
L 3047 4666 
L 3047 1625 
L 3713 1625 
L 3713 1100 
L 3047 1100 
L 3047 0 
L 2419 0 
L 2419 1100 
L 313 1100 
L 313 1709 
L 2253 4666 
z
" transform="scale(0.015625)"/>
       </defs>
       <use xlink:href="#DejaVuSans-34"/>
       <use xlink:href="#DejaVuSans-30" transform="translate(63.623047 0)"/>
      </g>
     </g>
    </g>
    <g id="ytick_4">
     <g id="line2d_11">
      <g>
       <use xlink:href="#m5696221044" x="50.87" y="144.866624" style="stroke: #000000; stroke-width: 0.8"/>
      </g>
     </g>
     <g id="text_12">
      <!-- 60 -->
      <g transform="translate(31.145 148.665843) scale(0.1 -0.1)">
       <defs>
        <path id="DejaVuSans-36" d="M 2113 2584 
Q 1688 2584 1439 2293 
Q 1191 2003 1191 1497 
Q 1191 994 1439 701 
Q 1688 409 2113 409 
Q 2538 409 2786 701 
Q 3034 994 3034 1497 
Q 3034 2003 2786 2293 
Q 2538 2584 2113 2584 
z
M 3366 4563 
L 3366 3988 
Q 3128 4100 2886 4159 
Q 2644 4219 2406 4219 
Q 1781 4219 1451 3797 
Q 1122 3375 1075 2522 
Q 1259 2794 1537 2939 
Q 1816 3084 2150 3084 
Q 2853 3084 3261 2657 
Q 3669 2231 3669 1497 
Q 3669 778 3244 343 
Q 2819 -91 2113 -91 
Q 1303 -91 875 529 
Q 447 1150 447 2328 
Q 447 3434 972 4092 
Q 1497 4750 2381 4750 
Q 2619 4750 2861 4703 
Q 3103 4656 3366 4563 
z
" transform="scale(0.015625)"/>
       </defs>
       <use xlink:href="#DejaVuSans-36"/>
       <use xlink:href="#DejaVuSans-30" transform="translate(63.623047 0)"/>
      </g>
     </g>
    </g>
    <g id="ytick_5">
     <g id="line2d_12">
      <g>
       <use xlink:href="#m5696221044" x="50.87" y="92.509703" style="stroke: #000000; stroke-width: 0.8"/>
      </g>
     </g>
     <g id="text_13">
      <!-- 80 -->
      <g transform="translate(31.145 96.308922) scale(0.1 -0.1)">
       <use xlink:href="#DejaVuSans-38"/>
       <use xlink:href="#DejaVuSans-30" transform="translate(63.623047 0)"/>
      </g>
     </g>
    </g>
    <g id="ytick_6">
     <g id="line2d_13">
      <g>
       <use xlink:href="#m5696221044" x="50.87" y="40.152783" style="stroke: #000000; stroke-width: 0.8"/>
      </g>
     </g>
     <g id="text_14">
      <!-- 100 -->
      <g transform="translate(24.7825 43.952002) scale(0.1 -0.1)">
       <use xlink:href="#DejaVuSans-31"/>
       <use xlink:href="#DejaVuSans-30" transform="translate(63.623047 0)"/>
       <use xlink:href="#DejaVuSans-30" transform="translate(127.246094 0)"/>
      </g>
     </g>
    </g>
    <g id="text_15">
     <!-- Signal -->
     <g transform="translate(18.702813 186.163375) rotate(-90) scale(0.1 -0.1)">
      <defs>
       <path id="DejaVuSans-53" d="M 3425 4513 
L 3425 3897 
Q 3066 4069 2747 4153 
Q 2428 4238 2131 4238 
Q 1616 4238 1336 4038 
Q 1056 3838 1056 3469 
Q 1056 3159 1242 3001 
Q 1428 2844 1947 2747 
L 2328 2669 
Q 3034 2534 3370 2195 
Q 3706 1856 3706 1288 
Q 3706 609 3251 259 
Q 2797 -91 1919 -91 
Q 1588 -91 1214 -16 
Q 841 59 441 206 
L 441 856 
Q 825 641 1194 531 
Q 1563 422 1919 422 
Q 2459 422 2753 634 
Q 3047 847 3047 1241 
Q 3047 1584 2836 1778 
Q 2625 1972 2144 2069 
L 1759 2144 
Q 1053 2284 737 2584 
Q 422 2884 422 3419 
Q 422 4038 858 4394 
Q 1294 4750 2059 4750 
Q 2388 4750 2728 4690 
Q 3069 4631 3425 4513 
z
" transform="scale(0.015625)"/>
       <path id="DejaVuSans-67" d="M 2906 1791 
Q 2906 2416 2648 2759 
Q 2391 3103 1925 3103 
Q 1463 3103 1205 2759 
Q 947 2416 947 1791 
Q 947 1169 1205 825 
Q 1463 481 1925 481 
Q 2391 481 2648 825 
Q 2906 1169 2906 1791 
z
M 3481 434 
Q 3481 -459 3084 -895 
Q 2688 -1331 1869 -1331 
Q 1566 -1331 1297 -1286 
Q 1028 -1241 775 -1147 
L 775 -588 
Q 1028 -725 1275 -790 
Q 1522 -856 1778 -856 
Q 2344 -856 2625 -561 
Q 2906 -266 2906 331 
L 2906 616 
Q 2728 306 2450 153 
Q 2172 0 1784 0 
Q 1141 0 747 490 
Q 353 981 353 1791 
Q 353 2603 747 3093 
Q 1141 3584 1784 3584 
Q 2172 3584 2450 3431 
Q 2728 3278 2906 2969 
L 2906 3500 
L 3481 3500 
L 3481 434 
z
" transform="scale(0.015625)"/>
       <path id="DejaVuSans-6e" d="M 3513 2113 
L 3513 0 
L 2938 0 
L 2938 2094 
Q 2938 2591 2744 2837 
Q 2550 3084 2163 3084 
Q 1697 3084 1428 2787 
Q 1159 2491 1159 1978 
L 1159 0 
L 581 0 
L 581 3500 
L 1159 3500 
L 1159 2956 
Q 1366 3272 1645 3428 
Q 1925 3584 2291 3584 
Q 2894 3584 3203 3211 
Q 3513 2838 3513 2113 
z
" transform="scale(0.015625)"/>
       <path id="DejaVuSans-61" d="M 2194 1759 
Q 1497 1759 1228 1600 
Q 959 1441 959 1056 
Q 959 750 1161 570 
Q 1363 391 1709 391 
Q 2188 391 2477 730 
Q 2766 1069 2766 1631 
L 2766 1759 
L 2194 1759 
z
M 3341 1997 
L 3341 0 
L 2766 0 
L 2766 531 
Q 2569 213 2275 61 
Q 1981 -91 1556 -91 
Q 1019 -91 701 211 
Q 384 513 384 1019 
Q 384 1609 779 1909 
Q 1175 2209 1959 2209 
L 2766 2209 
L 2766 2266 
Q 2766 2663 2505 2880 
Q 2244 3097 1772 3097 
Q 1472 3097 1187 3025 
Q 903 2953 641 2809 
L 641 3341 
Q 956 3463 1253 3523 
Q 1550 3584 1831 3584 
Q 2591 3584 2966 3190 
Q 3341 2797 3341 1997 
z
" transform="scale(0.015625)"/>
       <path id="DejaVuSans-6c" d="M 603 4863 
L 1178 4863 
L 1178 0 
L 603 0 
L 603 4863 
z
" transform="scale(0.015625)"/>
      </defs>
      <use xlink:href="#DejaVuSans-53"/>
      <use xlink:href="#DejaVuSans-69" transform="translate(63.476562 0)"/>
      <use xlink:href="#DejaVuSans-67" transform="translate(91.259766 0)"/>
      <use xlink:href="#DejaVuSans-6e" transform="translate(154.736328 0)"/>
      <use xlink:href="#DejaVuSans-61" transform="translate(218.115234 0)"/>
      <use xlink:href="#DejaVuSans-6c" transform="translate(279.394531 0)"/>
     </g>
    </g>
   </g>
   <g id="line2d_14">
    <path d="M 157.578088 42.770629 
L 180.238618 45.388475 
L 184.203574 48.006321 
L 186.314177 50.624167 
L 209.762484 53.242013 
L 217.158745 55.859859 
L 231.732796 58.477705 
L 239.239533 61.095551 
L 248.997004 63.713397 
L 250.337686 66.331243 
L 250.475704 68.949089 
L 251.906707 71.566935 
L 253.147369 74.184781 
L 255.032761 76.802627 
L 256.021593 79.420473 
L 262.733276 82.038319 
L 264.659359 84.656165 
L 264.79296 87.274011 
L 272.556032 89.891857 
L 273.10713 92.509703 
L 284.762372 95.127549 
L 285.731698 97.745395 
L 287.641587 100.363241 
L 292.027349 102.981087 
L 301.534506 102.981087 
L 301.534506 105.598933 
L 309.151336 108.21678 
L 309.768852 110.834626 
L 310.085747 113.452472 
L 314.057632 116.070318 
L 318.679497 118.688164 
L 323.06 121.30601 
L 323.207034 123.923856 
L 334.802079 126.541702 
L 338.696881 129.159548 
L 345.387378 131.777394 
L 358.23276 134.39524 
L 365.177105 137.013086 
L 365.259401 139.630932 
L 365.982026 142.248778 
L 366.596733 144.866624 
L 367.642527 147.48447 
L 367.657273 150.102316 
L 367.772181 152.720162 
L 370.463102 155.338008 
L 370.984749 157.955854 
L 372.268944 160.5737 
L 375.402073 163.191546 
L 379.052602 165.809392 
L 382.373534 168.427238 
L 383.373314 171.045084 
L 383.446348 173.66293 
L 383.849733 176.280776 
L 386.829128 178.898622 
L 387.633955 181.516468 
L 389.320714 184.134314 
L 389.649117 186.75216 
L 394.201887 189.370006 
L 397.02673 191.987852 
L 398.134959 194.605698 
L 400.353159 197.223544 
L 402.537229 199.84139 
L 409.055382 202.459236 
L 411.608747 205.077082 
L 412.020112 207.694928 
L 412.35939 210.312774 
L 416.96849 212.93062 
L 420.649239 215.548466 
L 423.584996 218.166312 
L 424.351587 220.784158 
L 425.198623 223.402004 
L 448.00655 226.01985 
L 450.526423 228.637696 
L 451.198366 231.255542 
L 452.262583 233.873388 
L 459.340852 236.491234 
L 471.266758 239.10908 
L 472.070388 241.726926 
L 472.306682 244.344772 
L 488.861384 246.962618 
L 490.781843 249.580465 
L 493.146394 252.198311 
L 494.164689 254.816157 
L 496.597824 257.434003 
L 500.474269 260.051849 
L 506.953203 262.669695 
L 510.311475 265.287541 
L 511.616944 267.905387 
L 525.31185 270.523233 
L 526.686982 273.141079 
L 528.100502 275.758925 
L 533.109922 278.376771 
L 536.456715 280.994617 
L 545.773174 283.612463 
L 547.594801 286.230309 
L 555.742296 288.848155 
L 566.376356 291.466001 
L 586.7438 294.083847 
L 623.341654 296.701693 
L 679.275909 299.319539 
" clip-path="url(#p35a93b8b21)" style="fill: none; stroke-dasharray: 1.85,0.8; stroke-dashoffset: 0; stroke: #8000ff; stroke-width: 0.5"/>
   </g>
   <g id="line2d_15">
    <path d="M 157.578088 42.550724 
L 180.238618 45.582694 
L 184.203574 46.287359 
L 186.314177 46.68557 
L 209.762484 52.273424 
L 217.158745 54.510903 
L 231.732796 59.637315 
L 239.239533 62.661788 
L 248.997004 66.992826 
L 250.337686 67.623513 
L 250.475704 67.688929 
L 251.906707 68.372572 
L 253.147369 68.97324 
L 255.032761 69.900212 
L 256.021593 70.393206 
L 262.733276 73.863381 
L 264.659359 74.899054 
L 264.79296 74.971549 
L 272.556032 79.329521 
L 273.10713 79.649712 
L 284.762372 86.751718 
L 285.731698 87.370359 
L 287.641587 88.601625 
L 292.027349 91.490314 
L 301.534506 98.037202 
L 301.534506 98.037202 
L 309.151336 103.551141 
L 309.768852 104.008192 
L 310.085747 104.243309 
L 314.057632 107.222488 
L 318.679497 110.762311 
L 323.06 114.186607 
L 323.207034 114.302675 
L 334.802079 123.671093 
L 338.696881 126.90625 
L 345.387378 132.554663 
L 358.23276 143.671238 
L 365.177105 149.796857 
L 365.259401 149.86983 
L 365.982026 150.510929 
L 366.596733 151.056752 
L 367.642527 151.986299 
L 367.657273 151.999415 
L 367.772181 152.101622 
L 370.463102 154.498811 
L 370.984749 154.964281 
L 372.268944 156.111137 
L 375.402073 158.914216 
L 379.052602 162.187205 
L 382.373534 165.168903 
L 383.373314 166.066998 
L 383.446348 166.132608 
L 383.849733 166.495 
L 386.829128 169.171708 
L 387.633955 169.894668 
L 389.320714 171.409483 
L 389.649117 171.704332 
L 394.201887 175.787889 
L 397.02673 178.316205 
L 398.134959 179.306605 
L 400.353159 181.285979 
L 402.537229 183.23049 
L 409.055382 189.00165 
L 411.608747 191.246792 
L 412.020112 191.607569 
L 412.35939 191.904921 
L 416.96849 195.925185 
L 420.649239 199.107493 
L 423.584996 201.625768 
L 424.351587 202.280248 
L 425.198623 203.001862 
L 448.00655 221.713967 
L 450.526423 223.683489 
L 451.198366 224.204994 
L 452.262583 225.027726 
L 459.340852 230.39617 
L 471.266758 239.008078 
L 472.070388 239.567819 
L 472.306682 239.731893 
L 488.861384 250.633795 
L 490.781843 251.820734 
L 493.146394 253.259414 
L 494.164689 253.871221 
L 496.597824 255.314082 
L 500.474269 257.557242 
L 506.953203 261.153037 
L 510.311475 262.941123 
L 511.616944 263.62224 
L 525.31185 270.297981 
L 526.686982 270.921282 
L 528.100502 271.553132 
L 533.109922 273.720581 
L 536.456715 275.106844 
L 545.773174 278.710293 
L 547.594801 279.371778 
L 555.742296 282.16299 
L 566.376356 285.409804 
L 586.7438 290.479299 
L 623.341654 296.454616 
L 679.275909 300.497084 
" clip-path="url(#p35a93b8b21)" style="fill: none; stroke-dasharray: 1.85,0.8; stroke-dashoffset: 0; stroke: #000000; stroke-width: 0.5"/>
   </g>
   <g id="line2d_16">
    <path d="M 121.665864 42.770629 
L 124.015866 45.388475 
L 132.655592 45.388475 
L 132.655592 48.006321 
L 134.334049 50.624167 
L 137.127303 53.242013 
L 138.251723 55.859859 
L 138.342282 58.477705 
L 143.500596 61.095551 
L 146.261071 63.713397 
L 148.42292 66.331243 
L 151.205542 68.949089 
L 152.93198 71.566935 
L 154.1839 74.184781 
L 155.356906 76.802627 
L 156.677092 79.420473 
L 157.501802 82.038319 
L 162.361864 84.656165 
L 163.69294 87.274011 
L 164.476886 89.891857 
L 165.429473 92.509703 
L 173.165852 95.127549 
L 174.708916 97.745395 
L 175.896722 100.363241 
L 178.895663 102.981087 
L 179.380478 105.598933 
L 181.416121 108.21678 
L 183.119491 110.834626 
L 183.790468 113.452472 
L 186.20911 116.070318 
L 187.13162 118.688164 
L 187.922316 121.30601 
L 188.209626 123.923856 
L 193.508114 126.541702 
L 193.627953 129.159548 
L 195.11396 131.777394 
L 195.999631 134.39524 
L 196.294737 137.013086 
L 196.316055 139.630932 
L 197.511533 142.248778 
L 200.870355 144.866624 
L 203.513091 147.48447 
L 205.829379 150.102316 
L 206.920003 152.720162 
L 207.304958 155.338008 
L 207.395073 157.955854 
L 207.448153 160.5737 
L 207.624934 163.191546 
L 207.911141 165.809392 
L 208.295204 168.427238 
L 208.880488 171.045084 
L 209.058457 173.66293 
L 209.152995 176.280776 
L 210.603251 178.898622 
L 212.613999 181.516468 
L 214.104276 184.134314 
L 218.178392 186.75216 
L 220.345229 189.370006 
L 220.821316 191.987852 
L 220.946858 194.605698 
L 221.480228 197.223544 
L 221.76943 199.84139 
L 226.981421 202.459236 
L 228.040809 205.077082 
L 228.294146 207.694928 
L 228.346192 210.312774 
L 229.520709 212.93062 
L 232.934127 215.548466 
L 234.439028 218.166312 
L 237.884544 220.784158 
L 240.172665 223.402004 
L 240.540308 226.01985 
L 241.630259 228.637696 
L 242.802219 231.255542 
L 243.411538 233.873388 
L 244.710258 236.491234 
L 246.736308 239.10908 
L 246.892901 241.726926 
L 248.244302 244.344772 
L 248.281586 246.962618 
L 248.985789 249.580465 
L 249.463772 252.198311 
L 250.25776 254.816157 
L 251.267354 257.434003 
L 252.895515 260.051849 
L 256.683535 262.669695 
L 256.918832 265.287541 
L 260.770411 267.905387 
L 261.691088 270.523233 
L 262.532042 273.141079 
L 269.364819 275.758925 
L 271.708064 278.376771 
L 288.24684 280.994617 
L 289.698693 283.612463 
L 291.441222 286.230309 
L 291.710864 288.848155 
L 296.896233 291.466001 
L 301.252598 294.083847 
L 305.595575 296.701693 
L 310.038455 299.319539 
" clip-path="url(#p35a93b8b21)" style="fill: none; stroke-dasharray: 1.85,0.8; stroke-dashoffset: 0; stroke: #80ffb4; stroke-width: 0.5"/>
   </g>
   <g id="line2d_17">
    <path d="M 121.665864 44.029778 
L 124.015866 44.835727 
L 132.655592 48.719628 
L 132.655592 48.719628 
L 134.334049 49.656255 
L 137.127303 51.355912 
L 138.251723 52.091111 
L 138.342282 52.151619 
L 143.500596 55.924974 
L 146.261071 58.215239 
L 148.42292 60.144493 
L 151.205542 62.805998 
L 152.93198 64.559252 
L 154.1839 65.879798 
L 155.356906 67.15475 
L 156.677092 68.633328 
L 157.501802 69.580469 
L 162.361864 75.528382 
L 163.69294 77.266192 
L 164.476886 78.311408 
L 165.429473 79.603036 
L 173.165852 90.950711 
L 174.708916 93.391213 
L 175.896722 95.30837 
L 178.895663 100.293718 
L 179.380478 101.118666 
L 181.416121 104.638259 
L 183.119491 107.650654 
L 183.790468 108.853562 
L 186.20911 113.263103 
L 187.13162 114.974214 
L 187.922316 116.453179 
L 188.209626 116.993347 
L 193.508114 127.200924 
L 193.627953 127.436815 
L 195.11396 130.378593 
L 195.999631 132.146052 
L 196.294737 132.737212 
L 196.316055 132.779958 
L 197.511533 135.186047 
L 200.870355 142.03179 
L 203.513091 147.493194 
L 205.829379 152.32267 
L 206.920003 154.607622 
L 207.304958 155.41554 
L 207.395073 155.604766 
L 207.448153 155.716241 
L 207.624934 156.087593 
L 207.911141 156.689089 
L 208.295204 157.496749 
L 208.880488 158.728606 
L 209.058457 159.103407 
L 209.152995 159.302545 
L 210.603251 162.360415 
L 212.613999 166.606244 
L 214.104276 169.754314 
L 218.178392 178.343544 
L 220.345229 182.888098 
L 220.821316 183.883317 
L 220.946858 184.145527 
L 221.480228 185.258446 
L 221.76943 185.861121 
L 226.981421 196.608422 
L 228.040809 198.761169 
L 228.294146 199.27412 
L 228.346192 199.37941 
L 229.520709 201.747012 
L 232.934127 208.527453 
L 234.439028 211.46444 
L 237.884544 218.053289 
L 240.172665 222.315468 
L 240.540308 222.991308 
L 241.630259 224.979838 
L 242.802219 227.092161 
L 243.411538 228.179566 
L 244.710258 230.471995 
L 246.736308 233.977576 
L 246.892901 234.244854 
L 248.244302 236.529109 
L 248.281586 236.591557 
L 248.985789 237.765202 
L 249.463772 238.555461 
L 250.25776 239.856694 
L 251.267354 241.490345 
L 252.895515 244.074817 
L 256.683535 249.842594 
L 256.918832 250.189348 
L 260.770411 255.670187 
L 261.691088 256.925344 
L 262.532042 258.053137 
L 269.364819 266.55233 
L 271.708064 269.195149 
L 288.24684 284.069526 
L 289.698693 285.079304 
L 291.441222 286.233506 
L 291.710864 286.406587 
L 296.896233 289.458981 
L 301.252598 291.642451 
L 305.595575 293.50572 
L 310.038455 295.12042 
" clip-path="url(#p35a93b8b21)" style="fill: none; stroke-dasharray: 1.85,0.8; stroke-dashoffset: 0; stroke: #000000; stroke-width: 0.5"/>
   </g>
   <g id="line2d_18">
    <path d="M 80.794091 42.770629 
L 90.633291 42.770629 
L 90.633291 45.388475 
L 96.348491 48.006321 
L 98.530066 50.624167 
L 100.425505 53.242013 
L 100.701451 55.859859 
L 103.999651 58.477705 
L 104.454579 61.095551 
L 106.425272 63.713397 
L 107.104446 66.331243 
L 107.202779 68.949089 
L 108.190825 71.566935 
L 109.478243 74.184781 
L 109.997681 76.802627 
L 111.547505 79.420473 
L 114.612973 82.038319 
L 114.656127 84.656165 
L 115.866874 87.274011 
L 116.611202 89.891857 
L 116.615946 92.509703 
L 116.861436 95.127549 
L 117.687213 97.745395 
L 120.218857 100.363241 
L 123.087017 102.981087 
L 123.231836 105.598933 
L 124.008131 108.21678 
L 124.112904 110.834626 
L 124.781663 113.452472 
L 125.66643 116.070318 
L 126.014875 118.688164 
L 126.567515 121.30601 
L 126.796143 123.923856 
L 127.318631 126.541702 
L 127.32343 129.159548 
L 127.377118 131.777394 
L 127.839115 134.39524 
L 129.618031 137.013086 
L 129.807532 139.630932 
L 129.944711 142.248778 
L 129.983517 144.866624 
L 130.189483 147.48447 
L 130.200807 150.102316 
L 130.556519 152.720162 
L 132.565932 155.338008 
L 132.644126 157.955854 
L 134.145539 160.5737 
L 134.578707 163.191546 
L 135.3771 165.809392 
L 135.502876 168.427238 
L 135.870497 171.045084 
L 136.124406 173.66293 
L 136.298498 176.280776 
L 136.940564 178.898622 
L 137.301887 181.516468 
L 137.798408 184.134314 
L 137.958458 186.75216 
L 138.979537 189.370006 
L 140.515411 191.987852 
L 140.551472 194.605698 
L 141.219131 197.223544 
L 141.361179 199.84139 
L 141.785554 202.459236 
L 142.186152 205.077082 
L 142.298197 207.694928 
L 143.344215 210.312774 
L 143.365478 212.93062 
L 143.682784 215.548466 
L 144.784623 218.166312 
L 145.191648 220.784158 
L 147.379619 223.402004 
L 147.793332 226.01985 
L 148.117557 228.637696 
L 150.186323 231.255542 
L 150.741361 233.873388 
L 151.581078 236.491234 
L 153.005539 239.10908 
L 153.140724 241.726926 
L 153.175551 244.344772 
L 153.459341 246.962618 
L 154.208965 249.580465 
L 154.433531 252.198311 
L 155.013539 254.816157 
L 155.636526 257.434003 
L 156.045555 260.051849 
L 156.722252 262.669695 
L 158.251312 265.287541 
L 158.735801 267.905387 
L 158.78517 270.523233 
L 160.96355 273.141079 
L 162.82594 275.758925 
L 163.400148 278.376771 
L 165.394692 280.994617 
L 168.965988 283.612463 
L 169.722652 286.230309 
L 169.947984 288.848155 
L 171.59506 291.466001 
L 172.212619 294.083847 
L 172.612666 296.701693 
L 175.833362 299.319539 
" clip-path="url(#p35a93b8b21)" style="fill: none; stroke-dasharray: 1.85,0.8; stroke-dashoffset: 0; stroke: #ff0000; stroke-width: 0.5"/>
   </g>
   <g id="line2d_19">
    <path d="M 80.794091 39.964 
L 90.633291 40.321274 
L 90.633291 40.321274 
L 96.348491 41.90276 
L 98.530066 43.221703 
L 100.425505 44.793558 
L 100.701451 45.058818 
L 103.999651 49.023776 
L 104.454579 49.693437 
L 106.425272 52.965717 
L 107.104446 54.238214 
L 107.202779 54.42877 
L 108.190825 56.433543 
L 109.478243 59.296047 
L 109.997681 60.532649 
L 111.547505 64.50598 
L 114.612973 73.634083 
L 114.656127 73.774662 
L 115.866874 77.854558 
L 116.611202 80.492025 
L 116.615946 80.509146 
L 116.861436 81.4006 
L 117.687213 84.476272 
L 120.218857 94.625157 
L 123.087017 107.347174 
L 123.231836 108.021274 
L 124.008131 111.683114 
L 124.112904 112.183438 
L 124.781663 115.409911 
L 125.66643 119.762374 
L 126.014875 121.501331 
L 126.567515 124.286575 
L 126.796143 125.448239 
L 127.318631 128.122714 
L 127.32343 128.1474 
L 127.377118 128.423746 
L 127.839115 130.81287 
L 129.618031 140.18002 
L 129.807532 141.191718 
L 129.944711 141.925544 
L 129.983517 142.133353 
L 130.189483 143.237881 
L 130.200807 143.298684 
L 130.556519 145.212445 
L 132.565932 156.137791 
L 132.644126 156.565986 
L 134.145539 164.81266 
L 134.578707 167.196812 
L 135.3771 171.590739 
L 135.502876 172.28253 
L 135.870497 174.30333 
L 136.124406 175.697755 
L 136.298498 176.653091 
L 136.940564 180.169882 
L 137.301887 182.143449 
L 137.798408 184.847556 
L 137.958458 185.717014 
L 138.979537 191.234256 
L 140.515411 199.413328 
L 140.551472 199.603329 
L 141.219131 203.10197 
L 141.361179 203.841459 
L 141.785554 206.039949 
L 142.186152 208.09985 
L 142.298197 208.673214 
L 143.344215 213.963783 
L 143.365478 214.070114 
L 143.682784 215.650891 
L 144.784623 221.048897 
L 145.191648 223.005309 
L 147.379619 233.142741 
L 147.793332 234.983335 
L 148.117557 236.407995 
L 150.186323 245.115735 
L 150.741361 247.33563 
L 151.581078 250.597554 
L 153.005539 255.860174 
L 153.140724 256.341695 
L 153.175551 256.465244 
L 153.459341 257.464227 
L 154.208965 260.036548 
L 154.433531 260.78833 
L 155.013539 262.689838 
L 155.636526 264.667707 
L 156.045555 265.92999 
L 156.722252 267.955302 
L 158.251312 272.244746 
L 158.735801 273.521829 
L 158.78517 273.649769 
L 160.96355 278.898967 
L 162.82594 282.793625 
L 163.400148 283.88929 
L 165.394692 287.331113 
L 168.965988 292.207086 
L 169.722652 293.050685 
L 169.947984 293.290227 
L 171.59506 294.887474 
L 172.212619 295.420519 
L 172.612666 295.74785 
L 175.833362 297.920929 
" clip-path="url(#p35a93b8b21)" style="fill: none; stroke-dasharray: 1.85,0.8; stroke-dashoffset: 0; stroke: #000000; stroke-width: 0.5"/>
   </g>
   <g id="line2d_20">
    <path d="M 121.963947 42.770629 
L 160.78079 45.388475 
L 178.796099 48.006321 
L 213.604041 50.624167 
L 219.748477 50.624167 
L 219.748477 53.242013 
L 228.633152 55.859859 
L 232.570461 58.477705 
L 237.763842 61.095551 
L 238.74661 63.713397 
L 242.110642 66.331243 
L 253.829275 68.949089 
L 259.821408 71.566935 
L 263.907661 74.184781 
L 265.637183 76.802627 
L 275.596869 79.420473 
L 286.586298 82.038319 
L 286.68869 84.656165 
L 287.17426 87.274011 
L 290.068403 89.891857 
L 296.226951 92.509703 
L 303.639652 95.127549 
L 311.956115 97.745395 
L 316.602934 100.363241 
L 327.224804 102.981087 
L 327.963939 105.598933 
L 332.41555 108.21678 
L 332.867573 110.834626 
L 333.403374 113.452472 
L 336.012168 116.070318 
L 341.889865 118.688164 
L 343.367773 121.30601 
L 343.768804 123.923856 
L 344.252435 126.541702 
L 346.536741 129.159548 
L 348.227516 131.777394 
L 348.278886 134.39524 
L 348.384089 137.013086 
L 348.482575 139.630932 
L 348.575331 142.248778 
L 355.375938 144.866624 
L 360.811973 147.48447 
L 371.295449 150.102316 
L 374.607825 152.720162 
L 374.778006 155.338008 
L 380.93884 157.955854 
L 381.612013 160.5737 
L 383.417743 163.191546 
L 384.117613 165.809392 
L 386.432871 168.427238 
L 387.558407 171.045084 
L 397.741372 173.66293 
L 400.52723 176.280776 
L 403.169003 178.898622 
L 404.961493 181.516468 
L 406.267506 184.134314 
L 407.659234 186.75216 
L 409.493268 189.370006 
L 415.657736 191.987852 
L 418.30133 194.605698 
L 423.0258 197.223544 
L 424.201453 199.84139 
L 427.103413 202.459236 
L 429.128957 205.077082 
L 439.756874 207.694928 
L 455.357477 210.312774 
L 458.348931 212.93062 
L 459.219121 215.548466 
L 463.325755 218.166312 
L 464.346287 220.784158 
L 468.767151 223.402004 
L 472.304195 226.01985 
L 474.335687 228.637696 
L 475.595724 231.255542 
L 476.132258 233.873388 
L 477.557303 236.491234 
L 481.590992 239.10908 
L 482.538982 241.726926 
L 482.575384 244.344772 
L 488.636326 246.962618 
L 492.085224 249.580465 
L 498.526073 252.198311 
L 500.101326 254.816157 
L 503.59687 257.434003 
L 503.616158 260.051849 
L 513.177698 262.669695 
L 524.909918 265.287541 
L 529.338232 267.905387 
L 529.92399 270.523233 
L 537.044713 273.141079 
L 541.564657 275.758925 
L 549.260675 278.376771 
L 567.485798 280.994617 
L 570.832216 283.612463 
L 581.22566 286.230309 
L 589.090673 288.848155 
L 589.353562 291.466001 
L 629.946355 294.083847 
L 649.19813 296.701693 
L 658.372419 299.319539 
" clip-path="url(#p35a93b8b21)" style="fill: none; stroke-dasharray: 1.85,0.8; stroke-dashoffset: 0; stroke: #8000ff; stroke-width: 0.5"/>
   </g>
   <g id="line2d_21">
    <path d="M 121.963947 40.460618 
L 160.78079 42.884519 
L 178.796099 45.340083 
L 213.604041 53.405706 
L 219.748477 55.351378 
L 219.748477 55.351378 
L 228.633152 58.465454 
L 232.570461 59.961687 
L 237.763842 62.046244 
L 238.74661 62.455031 
L 242.110642 63.889012 
L 253.829275 69.306535 
L 259.821408 72.331325 
L 263.907661 74.492752 
L 265.637183 75.431611 
L 275.596869 81.114 
L 286.586298 87.919284 
L 286.68869 87.985271 
L 287.17426 88.298842 
L 290.068403 90.189575 
L 296.226951 94.33498 
L 303.639652 99.537901 
L 311.956115 105.638813 
L 316.602934 109.162385 
L 327.224804 117.501679 
L 327.963939 118.095822 
L 332.41555 121.709626 
L 332.867573 122.079882 
L 333.403374 122.519529 
L 336.012168 124.671807 
L 341.889865 129.588212 
L 343.367773 130.838172 
L 343.768804 131.178254 
L 344.252435 131.588888 
L 346.536741 133.5357 
L 348.227516 134.98416 
L 348.278886 135.028265 
L 348.384089 135.118606 
L 348.482575 135.2032 
L 348.575331 135.282891 
L 355.375938 141.172239 
L 360.811973 145.9385 
L 371.295449 155.241631 
L 374.607825 158.203028 
L 374.778006 158.355379 
L 380.93884 163.88042 
L 381.612013 164.484937 
L 383.417743 166.106911 
L 384.117613 166.735664 
L 386.432871 168.815729 
L 387.558407 169.826809 
L 397.741372 178.954971 
L 400.52723 181.441126 
L 403.169003 183.792065 
L 404.961493 185.38298 
L 406.267506 186.539742 
L 407.659234 187.77005 
L 409.493268 189.387363 
L 415.657736 194.785685 
L 418.30133 197.080597 
L 423.0258 201.147528 
L 424.201453 202.152174 
L 427.103413 204.618519 
L 429.128957 206.328094 
L 439.756874 215.120359 
L 455.357477 227.397503 
L 458.348931 229.654973 
L 459.219121 230.305408 
L 463.325755 233.33607 
L 464.346287 234.079091 
L 468.767151 237.250098 
L 472.304195 239.730167 
L 474.335687 241.131192 
L 475.595724 241.991489 
L 476.132258 242.355776 
L 477.557303 243.317397 
L 481.590992 245.992144 
L 482.538982 246.610538 
L 482.575384 246.634206 
L 488.636326 250.493619 
L 492.085224 252.616871 
L 498.526073 256.438449 
L 500.101326 257.344412 
L 503.59687 259.314285 
L 503.616158 259.324999 
L 513.177698 264.426291 
L 524.909918 270.114191 
L 529.338232 272.099057 
L 529.92399 272.355032 
L 537.044713 275.345332 
L 541.564657 277.128559 
L 549.260675 279.964601 
L 567.485798 285.723728 
L 570.832216 286.643177 
L 581.22566 289.245551 
L 589.090673 290.974516 
L 589.353562 291.028919 
L 629.946355 297.191155 
L 649.19813 298.883325 
L 658.372419 299.488902 
" clip-path="url(#p35a93b8b21)" style="fill: none; stroke-dasharray: 1.85,0.8; stroke-dashoffset: 0; stroke: #000000; stroke-width: 0.5"/>
   </g>
   <g id="line2d_22">
    <path d="M 98.108189 42.770629 
L 108.321734 45.388475 
L 120.194153 48.006321 
L 122.276972 50.624167 
L 131.764674 53.242013 
L 132.248604 55.859859 
L 140.674723 58.477705 
L 142.467201 61.095551 
L 146.930162 63.713397 
L 147.8859 66.331243 
L 154.229507 68.949089 
L 156.044788 71.566935 
L 158.528704 74.184781 
L 159.647394 76.802627 
L 162.417188 79.420473 
L 167.311741 82.038319 
L 172.054004 84.656165 
L 174.406372 87.274011 
L 174.595379 89.891857 
L 178.288427 92.509703 
L 180.208658 95.127549 
L 180.723966 97.745395 
L 181.228534 100.363241 
L 183.45808 102.981087 
L 185.707715 105.598933 
L 187.277769 108.21678 
L 189.515716 110.834626 
L 190.277083 113.452472 
L 192.703913 116.070318 
L 192.835642 118.688164 
L 196.522388 121.30601 
L 200.440423 123.923856 
L 201.766435 126.541702 
L 203.386266 129.159548 
L 205.332847 131.777394 
L 205.921683 134.39524 
L 208.974201 137.013086 
L 209.414276 139.630932 
L 210.196464 142.248778 
L 210.360405 144.866624 
L 210.733596 147.48447 
L 212.754576 150.102316 
L 213.338005 152.720162 
L 213.738331 155.338008 
L 213.919743 157.955854 
L 213.995909 160.5737 
L 214.668989 163.191546 
L 215.428362 165.809392 
L 215.849592 168.427238 
L 217.420821 171.045084 
L 221.388896 173.66293 
L 221.578464 176.280776 
L 221.599389 178.898622 
L 221.704902 181.516468 
L 221.968526 184.134314 
L 224.343165 186.75216 
L 226.16775 189.370006 
L 226.294938 191.987852 
L 226.379331 194.605698 
L 226.79774 197.223544 
L 230.650507 199.84139 
L 230.858445 202.459236 
L 232.161064 205.077082 
L 233.383786 207.694928 
L 234.580177 210.312774 
L 235.568333 212.93062 
L 236.319864 215.548466 
L 237.358151 218.166312 
L 238.806121 220.784158 
L 241.224734 223.402004 
L 241.656577 226.01985 
L 242.539493 228.637696 
L 242.670313 231.255542 
L 245.085249 233.873388 
L 246.882148 236.491234 
L 249.738451 239.10908 
L 250.492934 241.726926 
L 251.56471 244.344772 
L 257.902466 246.962618 
L 267.033318 249.580465 
L 267.925517 252.198311 
L 268.902337 254.816157 
L 270.076991 257.434003 
L 275.112297 260.051849 
L 277.735568 262.669695 
L 278.302927 265.287541 
L 279.829816 267.905387 
L 287.244893 270.523233 
L 289.296909 273.141079 
L 289.496572 275.758925 
L 292.084595 278.376771 
L 294.93061 280.994617 
L 297.936149 283.612463 
L 299.676224 286.230309 
L 312.663656 288.848155 
L 324.187036 291.466001 
L 327.326171 294.083847 
L 332.892265 296.701693 
L 338.149062 299.319539 
" clip-path="url(#p35a93b8b21)" style="fill: none; stroke-dasharray: 1.85,0.8; stroke-dashoffset: 0; stroke: #80ffb4; stroke-width: 0.5"/>
   </g>
   <g id="line2d_23">
    <path d="M 98.108189 40.310434 
L 108.321734 41.117843 
L 120.194153 43.574761 
L 122.276972 44.22981 
L 131.764674 48.247617 
L 132.248604 48.501864 
L 140.674723 53.777572 
L 142.467201 55.11682 
L 146.930162 58.799508 
L 147.8859 59.654017 
L 154.229507 65.928687 
L 156.044788 67.91939 
L 158.528704 70.785062 
L 159.647394 72.12918 
L 162.417188 75.599684 
L 167.311741 82.224327 
L 172.054004 89.227874 
L 174.406372 92.908224 
L 174.595379 93.209705 
L 178.288427 99.267822 
L 180.208658 102.539793 
L 180.723966 103.431543 
L 181.228534 104.310212 
L 183.45808 108.256534 
L 185.707715 112.339747 
L 187.277769 115.246731 
L 189.515716 119.467024 
L 190.277083 120.922366 
L 192.703913 125.62333 
L 192.835642 125.881091 
L 196.522388 133.193991 
L 200.440423 141.149095 
L 201.766435 143.876995 
L 203.386266 147.229816 
L 205.332847 151.284542 
L 205.921683 152.515812 
L 208.974201 158.925951 
L 209.414276 159.853052 
L 210.196464 161.502194 
L 210.360405 161.84803 
L 210.733596 162.635482 
L 212.754576 166.903208 
L 213.338005 168.135703 
L 213.738331 168.981359 
L 213.919743 169.364552 
L 213.995909 169.525429 
L 214.668989 170.946877 
L 215.428362 172.549866 
L 215.849592 173.438616 
L 217.420821 176.749849 
L 221.388896 185.068002 
L 221.578464 185.463226 
L 221.599389 185.506835 
L 221.704902 185.726699 
L 221.968526 186.275696 
L 224.343165 191.197663 
L 226.16775 194.946901 
L 226.294938 195.207067 
L 226.379331 195.379602 
L 226.79774 196.233942 
L 230.650507 204.008447 
L 230.858445 204.422872 
L 232.161064 207.005776 
L 233.383786 209.408566 
L 234.580177 211.738139 
L 235.568333 213.645469 
L 236.319864 215.08552 
L 237.358151 217.059545 
L 238.806121 219.781345 
L 241.224734 224.242658 
L 241.656577 225.02757 
L 242.539493 226.620993 
L 242.670313 226.855776 
L 245.085249 231.127396 
L 246.882148 234.226516 
L 249.738451 239.007248 
L 250.492934 240.239338 
L 251.56471 241.966997 
L 257.902466 251.624141 
L 267.033318 263.785234 
L 267.925517 264.860377 
L 268.902337 266.014376 
L 270.076991 267.370164 
L 275.112297 272.790219 
L 277.735568 275.366128 
L 278.302927 275.901333 
L 279.829816 277.303497 
L 287.244893 283.346595 
L 289.296909 284.804286 
L 289.496572 284.941374 
L 292.084595 286.644067 
L 294.93061 288.362355 
L 297.936149 290.010483 
L 299.676224 290.89035 
L 312.663656 295.949265 
L 324.187036 298.668789 
L 327.326171 299.194774 
L 332.892265 299.950802 
L 338.149062 300.492252 
" clip-path="url(#p35a93b8b21)" style="fill: none; stroke-dasharray: 1.85,0.8; stroke-dashoffset: 0; stroke: #000000; stroke-width: 0.5"/>
   </g>
   <g id="line2d_24">
    <path d="M 91.352569 42.770629 
L 92.204557 45.388475 
L 98.97653 48.006321 
L 102.875027 50.624167 
L 104.44821 53.242013 
L 106.089186 55.859859 
L 106.958663 58.477705 
L 107.031971 61.095551 
L 107.39904 63.713397 
L 108.278475 66.331243 
L 108.94917 68.949089 
L 109.242901 71.566935 
L 110.941311 74.184781 
L 112.249053 76.802627 
L 112.327751 79.420473 
L 112.361687 82.038319 
L 113.764485 84.656165 
L 114.409413 87.274011 
L 115.716574 89.891857 
L 116.118331 92.509703 
L 117.878553 95.127549 
L 118.612796 97.745395 
L 120.134267 100.363241 
L 120.285788 102.981087 
L 120.612025 105.598933 
L 121.958992 108.21678 
L 122.145226 110.834626 
L 124.294757 113.452472 
L 125.622103 116.070318 
L 127.526343 118.688164 
L 127.604483 121.30601 
L 128.041764 123.923856 
L 128.295697 126.541702 
L 128.515763 129.159548 
L 128.63829 131.777394 
L 128.842178 134.39524 
L 129.049625 137.013086 
L 129.307797 139.630932 
L 130.749959 142.248778 
L 132.886524 144.866624 
L 133.324719 147.48447 
L 134.010346 150.102316 
L 134.811948 152.720162 
L 134.876116 155.338008 
L 135.637305 157.955854 
L 135.753138 160.5737 
L 136.489272 163.191546 
L 136.760388 165.809392 
L 136.969082 168.427238 
L 137.412078 171.045084 
L 138.050798 173.66293 
L 138.30461 176.280776 
L 139.194545 178.898622 
L 140.348256 181.516468 
L 140.453149 184.134314 
L 141.181568 186.75216 
L 141.233454 189.370006 
L 141.620214 191.987852 
L 141.651485 194.605698 
L 141.883066 197.223544 
L 141.912633 199.84139 
L 143.174108 202.459236 
L 143.789033 205.077082 
L 145.349297 207.694928 
L 145.998679 210.312774 
L 146.09618 212.93062 
L 146.563778 215.548466 
L 147.864069 218.166312 
L 148.422598 220.784158 
L 148.829592 223.402004 
L 149.334666 226.01985 
L 149.619236 228.637696 
L 150.610553 231.255542 
L 150.732989 233.873388 
L 151.814565 236.491234 
L 152.458205 239.10908 
L 153.242551 241.726926 
L 153.405719 244.344772 
L 153.802082 246.962618 
L 154.350295 249.580465 
L 156.072289 252.198311 
L 156.430697 254.816157 
L 157.254054 257.434003 
L 157.507761 260.051849 
L 160.252208 262.669695 
L 160.483462 265.287541 
L 162.990004 267.905387 
L 163.923191 270.523233 
L 167.261686 273.141079 
L 168.259903 275.758925 
L 172.626331 278.376771 
L 173.569558 280.994617 
L 175.261041 283.612463 
L 176.007192 286.230309 
L 180.096186 288.848155 
L 181.743822 291.466001 
L 183.075237 294.083847 
L 184.343383 296.701693 
L 191.67918 299.319539 
" clip-path="url(#p35a93b8b21)" style="fill: none; stroke-dasharray: 1.85,0.8; stroke-dashoffset: 0; stroke: #ff0000; stroke-width: 0.5"/>
   </g>
   <g id="line2d_25">
    <path d="M 91.352569 40.408335 
L 92.204557 40.545021 
L 98.97653 43.554046 
L 102.875027 47.500198 
L 104.44821 49.683845 
L 106.089186 52.363936 
L 106.958663 53.958663 
L 107.031971 54.098797 
L 107.39904 54.813916 
L 108.278475 56.619375 
L 108.94917 58.084989 
L 109.242901 58.751326 
L 110.941311 62.900955 
L 112.249053 66.445677 
L 112.327751 66.668786 
L 112.361687 66.765337 
L 113.764485 70.938089 
L 114.409413 72.975482 
L 115.716574 77.333879 
L 116.118331 78.734631 
L 117.878553 85.205732 
L 118.612796 88.062835 
L 120.134267 94.269063 
L 120.285788 94.907715 
L 120.612025 96.295142 
L 121.958992 102.197684 
L 122.145226 103.035229 
L 124.294757 113.055201 
L 125.622103 119.542136 
L 127.526343 129.193273 
L 127.604483 129.597058 
L 128.041764 131.866925 
L 128.295697 133.192768 
L 128.515763 134.346174 
L 128.63829 134.990077 
L 128.842178 136.064192 
L 129.049625 137.160358 
L 129.307797 138.529041 
L 130.749959 146.256152 
L 132.886524 157.894398 
L 133.324719 160.299318 
L 134.010346 164.068772 
L 134.811948 168.4807 
L 134.876116 168.833902 
L 135.637305 173.021705 
L 135.753138 173.658428 
L 136.489272 177.699164 
L 136.760388 179.184168 
L 136.969082 180.325809 
L 137.412078 182.744395 
L 138.050798 186.218114 
L 138.30461 187.593398 
L 139.194545 192.388667 
L 140.348256 198.531312 
L 140.453149 199.085046 
L 141.181568 202.906124 
L 141.233454 203.176613 
L 141.620214 205.185349 
L 141.651485 205.347171 
L 141.883066 206.54277 
L 141.912633 206.695056 
L 143.174108 213.111326 
L 143.789033 216.177658 
L 145.349297 223.757376 
L 145.998679 226.820846 
L 146.09618 227.275928 
L 146.563778 229.440287 
L 147.864069 235.295501 
L 148.422598 237.733861 
L 148.829592 239.48067 
L 149.334666 241.612593 
L 149.619236 242.796038 
L 150.610553 246.817 
L 150.732989 247.302519 
L 151.814565 251.48365 
L 152.458205 253.87874 
L 153.242551 256.702337 
L 153.405719 257.276525 
L 153.802082 258.652318 
L 154.350295 260.510692 
L 156.072289 266.01149 
L 156.430697 267.092308 
L 157.254054 269.492076 
L 157.507761 270.208291 
L 160.252208 277.269057 
L 160.483462 277.807764 
L 162.990004 283.111618 
L 163.923191 284.845729 
L 167.261686 290.072968 
L 168.259903 291.363408 
L 172.626331 295.758788 
L 173.569558 296.476263 
L 175.261041 297.590067 
L 176.007192 298.01713 
L 180.096186 299.780869 
L 181.743822 300.267934 
L 183.075237 300.58874 
L 184.343383 300.842838 
L 191.67918 301.644 
" clip-path="url(#p35a93b8b21)" style="fill: none; stroke-dasharray: 1.85,0.8; stroke-dashoffset: 0; stroke: #000000; stroke-width: 0.5"/>
   </g>
   <g id="patch_3">
    <path d="M 50.87 314.728 
L 50.87 26.88 
" style="fill: none; stroke: #000000; stroke-width: 0.8; stroke-linejoin: miter; stroke-linecap: square"/>
   </g>
   <g id="patch_4">
    <path d="M 709.2 314.728 
L 709.2 26.88 
" style="fill: none; stroke: #000000; stroke-width: 0.8; stroke-linejoin: miter; stroke-linecap: square"/>
   </g>
   <g id="patch_5">
    <path d="M 50.87 314.728 
L 709.2 314.728 
" style="fill: none; stroke: #000000; stroke-width: 0.8; stroke-linejoin: miter; stroke-linecap: square"/>
   </g>
   <g id="patch_6">
    <path d="M 50.87 26.88 
L 709.2 26.88 
" style="fill: none; stroke: #000000; stroke-width: 0.8; stroke-linejoin: miter; stroke-linecap: square"/>
   </g>
   <g id="text_16">
    <!-- Unnormalized -->
    <g transform="translate(338.500937 20.88) scale(0.12 -0.12)">
     <defs>
      <path id="DejaVuSans-55" d="M 556 4666 
L 1191 4666 
L 1191 1831 
Q 1191 1081 1462 751 
Q 1734 422 2344 422 
Q 2950 422 3222 751 
Q 3494 1081 3494 1831 
L 3494 4666 
L 4128 4666 
L 4128 1753 
Q 4128 841 3676 375 
Q 3225 -91 2344 -91 
Q 1459 -91 1007 375 
Q 556 841 556 1753 
L 556 4666 
z
" transform="scale(0.015625)"/>
      <path id="DejaVuSans-6f" d="M 1959 3097 
Q 1497 3097 1228 2736 
Q 959 2375 959 1747 
Q 959 1119 1226 758 
Q 1494 397 1959 397 
Q 2419 397 2687 759 
Q 2956 1122 2956 1747 
Q 2956 2369 2687 2733 
Q 2419 3097 1959 3097 
z
M 1959 3584 
Q 2709 3584 3137 3096 
Q 3566 2609 3566 1747 
Q 3566 888 3137 398 
Q 2709 -91 1959 -91 
Q 1206 -91 779 398 
Q 353 888 353 1747 
Q 353 2609 779 3096 
Q 1206 3584 1959 3584 
z
" transform="scale(0.015625)"/>
      <path id="DejaVuSans-72" d="M 2631 2963 
Q 2534 3019 2420 3045 
Q 2306 3072 2169 3072 
Q 1681 3072 1420 2755 
Q 1159 2438 1159 1844 
L 1159 0 
L 581 0 
L 581 3500 
L 1159 3500 
L 1159 2956 
Q 1341 3275 1631 3429 
Q 1922 3584 2338 3584 
Q 2397 3584 2469 3576 
Q 2541 3569 2628 3553 
L 2631 2963 
z
" transform="scale(0.015625)"/>
      <path id="DejaVuSans-7a" d="M 353 3500 
L 3084 3500 
L 3084 2975 
L 922 459 
L 3084 459 
L 3084 0 
L 275 0 
L 275 525 
L 2438 3041 
L 353 3041 
L 353 3500 
z
" transform="scale(0.015625)"/>
      <path id="DejaVuSans-64" d="M 2906 2969 
L 2906 4863 
L 3481 4863 
L 3481 0 
L 2906 0 
L 2906 525 
Q 2725 213 2448 61 
Q 2172 -91 1784 -91 
Q 1150 -91 751 415 
Q 353 922 353 1747 
Q 353 2572 751 3078 
Q 1150 3584 1784 3584 
Q 2172 3584 2448 3432 
Q 2725 3281 2906 2969 
z
M 947 1747 
Q 947 1113 1208 752 
Q 1469 391 1925 391 
Q 2381 391 2643 752 
Q 2906 1113 2906 1747 
Q 2906 2381 2643 2742 
Q 2381 3103 1925 3103 
Q 1469 3103 1208 2742 
Q 947 2381 947 1747 
z
" transform="scale(0.015625)"/>
     </defs>
     <use xlink:href="#DejaVuSans-55"/>
     <use xlink:href="#DejaVuSans-6e" transform="translate(73.193359 0)"/>
     <use xlink:href="#DejaVuSans-6e" transform="translate(136.572266 0)"/>
     <use xlink:href="#DejaVuSans-6f" transform="translate(199.951172 0)"/>
     <use xlink:href="#DejaVuSans-72" transform="translate(261.132812 0)"/>
     <use xlink:href="#DejaVuSans-6d" transform="translate(300.496094 0)"/>
     <use xlink:href="#DejaVuSans-61" transform="translate(397.908203 0)"/>
     <use xlink:href="#DejaVuSans-6c" transform="translate(459.1875 0)"/>
     <use xlink:href="#DejaVuSans-69" transform="translate(486.970703 0)"/>
     <use xlink:href="#DejaVuSans-7a" transform="translate(514.753906 0)"/>
     <use xlink:href="#DejaVuSans-65" transform="translate(567.244141 0)"/>
     <use xlink:href="#DejaVuSans-64" transform="translate(628.767578 0)"/>
    </g>
   </g>
   <g id="legend_1">
    <g id="patch_7">
     <path d="M 493.267187 212.68625 
L 702.2 212.68625 
Q 704.2 212.68625 704.2 210.68625 
L 704.2 33.88 
Q 704.2 31.88 702.2 31.88 
L 493.267187 31.88 
Q 491.267187 31.88 491.267187 33.88 
L 491.267187 210.68625 
Q 491.267187 212.68625 493.267187 212.68625 
z
" style="fill: #ffffff; opacity: 0.8; stroke: #cccccc; stroke-linejoin: miter"/>
    </g>
    <g id="line2d_26">
     <path d="M 495.267187 39.978438 
L 505.267187 39.978438 
L 515.267187 39.978438 
" style="fill: none; stroke-dasharray: 1.85,0.8; stroke-dashoffset: 0; stroke: #8000ff; stroke-width: 0.5"/>
    </g>
    <g id="text_17">
     <!-- rho'=1e-05 -->
     <g transform="translate(523.267187 43.478438) scale(0.1 -0.1)">
      <defs>
       <path id="DejaVuSans-68" d="M 3513 2113 
L 3513 0 
L 2938 0 
L 2938 2094 
Q 2938 2591 2744 2837 
Q 2550 3084 2163 3084 
Q 1697 3084 1428 2787 
Q 1159 2491 1159 1978 
L 1159 0 
L 581 0 
L 581 4863 
L 1159 4863 
L 1159 2956 
Q 1366 3272 1645 3428 
Q 1925 3584 2291 3584 
Q 2894 3584 3203 3211 
Q 3513 2838 3513 2113 
z
" transform="scale(0.015625)"/>
       <path id="DejaVuSans-27" d="M 1147 4666 
L 1147 2931 
L 616 2931 
L 616 4666 
L 1147 4666 
z
" transform="scale(0.015625)"/>
       <path id="DejaVuSans-3d" d="M 678 2906 
L 4684 2906 
L 4684 2381 
L 678 2381 
L 678 2906 
z
M 678 1631 
L 4684 1631 
L 4684 1100 
L 678 1100 
L 678 1631 
z
" transform="scale(0.015625)"/>
       <path id="DejaVuSans-2d" d="M 313 2009 
L 1997 2009 
L 1997 1497 
L 313 1497 
L 313 2009 
z
" transform="scale(0.015625)"/>
       <path id="DejaVuSans-35" d="M 691 4666 
L 3169 4666 
L 3169 4134 
L 1269 4134 
L 1269 2991 
Q 1406 3038 1543 3061 
Q 1681 3084 1819 3084 
Q 2600 3084 3056 2656 
Q 3513 2228 3513 1497 
Q 3513 744 3044 326 
Q 2575 -91 1722 -91 
Q 1428 -91 1123 -41 
Q 819 9 494 109 
L 494 744 
Q 775 591 1075 516 
Q 1375 441 1709 441 
Q 2250 441 2565 725 
Q 2881 1009 2881 1497 
Q 2881 1984 2565 2268 
Q 2250 2553 1709 2553 
Q 1456 2553 1204 2497 
Q 953 2441 691 2322 
L 691 4666 
z
" transform="scale(0.015625)"/>
      </defs>
      <use xlink:href="#DejaVuSans-72"/>
      <use xlink:href="#DejaVuSans-68" transform="translate(39.363281 0)"/>
      <use xlink:href="#DejaVuSans-6f" transform="translate(102.742188 0)"/>
      <use xlink:href="#DejaVuSans-27" transform="translate(163.923828 0)"/>
      <use xlink:href="#DejaVuSans-3d" transform="translate(191.414062 0)"/>
      <use xlink:href="#DejaVuSans-31" transform="translate(275.203125 0)"/>
      <use xlink:href="#DejaVuSans-65" transform="translate(338.826172 0)"/>
      <use xlink:href="#DejaVuSans-2d" transform="translate(400.349609 0)"/>
      <use xlink:href="#DejaVuSans-30" transform="translate(436.433594 0)"/>
      <use xlink:href="#DejaVuSans-35" transform="translate(500.056641 0)"/>
     </g>
    </g>
    <g id="line2d_27">
     <path d="M 495.267187 54.656563 
L 505.267187 54.656563 
L 515.267187 54.656563 
" style="fill: none; stroke-dasharray: 1.85,0.8; stroke-dashoffset: 0; stroke: #000000; stroke-width: 0.5"/>
    </g>
    <g id="text_18">
     <!-- Analytical with rho_prime=1e-05 -->
     <g transform="translate(523.267187 58.156563) scale(0.1 -0.1)">
      <defs>
       <path id="DejaVuSans-41" d="M 2188 4044 
L 1331 1722 
L 3047 1722 
L 2188 4044 
z
M 1831 4666 
L 2547 4666 
L 4325 0 
L 3669 0 
L 3244 1197 
L 1141 1197 
L 716 0 
L 50 0 
L 1831 4666 
z
" transform="scale(0.015625)"/>
       <path id="DejaVuSans-79" d="M 2059 -325 
Q 1816 -950 1584 -1140 
Q 1353 -1331 966 -1331 
L 506 -1331 
L 506 -850 
L 844 -850 
Q 1081 -850 1212 -737 
Q 1344 -625 1503 -206 
L 1606 56 
L 191 3500 
L 800 3500 
L 1894 763 
L 2988 3500 
L 3597 3500 
L 2059 -325 
z
" transform="scale(0.015625)"/>
       <path id="DejaVuSans-74" d="M 1172 4494 
L 1172 3500 
L 2356 3500 
L 2356 3053 
L 1172 3053 
L 1172 1153 
Q 1172 725 1289 603 
Q 1406 481 1766 481 
L 2356 481 
L 2356 0 
L 1766 0 
Q 1100 0 847 248 
Q 594 497 594 1153 
L 594 3053 
L 172 3053 
L 172 3500 
L 594 3500 
L 594 4494 
L 1172 4494 
z
" transform="scale(0.015625)"/>
       <path id="DejaVuSans-63" d="M 3122 3366 
L 3122 2828 
Q 2878 2963 2633 3030 
Q 2388 3097 2138 3097 
Q 1578 3097 1268 2742 
Q 959 2388 959 1747 
Q 959 1106 1268 751 
Q 1578 397 2138 397 
Q 2388 397 2633 464 
Q 2878 531 3122 666 
L 3122 134 
Q 2881 22 2623 -34 
Q 2366 -91 2075 -91 
Q 1284 -91 818 406 
Q 353 903 353 1747 
Q 353 2603 823 3093 
Q 1294 3584 2113 3584 
Q 2378 3584 2631 3529 
Q 2884 3475 3122 3366 
z
" transform="scale(0.015625)"/>
       <path id="DejaVuSans-77" d="M 269 3500 
L 844 3500 
L 1563 769 
L 2278 3500 
L 2956 3500 
L 3675 769 
L 4391 3500 
L 4966 3500 
L 4050 0 
L 3372 0 
L 2619 2869 
L 1863 0 
L 1184 0 
L 269 3500 
z
" transform="scale(0.015625)"/>
       <path id="DejaVuSans-5f" d="M 3263 -1063 
L 3263 -1509 
L -63 -1509 
L -63 -1063 
L 3263 -1063 
z
" transform="scale(0.015625)"/>
       <path id="DejaVuSans-70" d="M 1159 525 
L 1159 -1331 
L 581 -1331 
L 581 3500 
L 1159 3500 
L 1159 2969 
Q 1341 3281 1617 3432 
Q 1894 3584 2278 3584 
Q 2916 3584 3314 3078 
Q 3713 2572 3713 1747 
Q 3713 922 3314 415 
Q 2916 -91 2278 -91 
Q 1894 -91 1617 61 
Q 1341 213 1159 525 
z
M 3116 1747 
Q 3116 2381 2855 2742 
Q 2594 3103 2138 3103 
Q 1681 3103 1420 2742 
Q 1159 2381 1159 1747 
Q 1159 1113 1420 752 
Q 1681 391 2138 391 
Q 2594 391 2855 752 
Q 3116 1113 3116 1747 
z
" transform="scale(0.015625)"/>
      </defs>
      <use xlink:href="#DejaVuSans-41"/>
      <use xlink:href="#DejaVuSans-6e" transform="translate(68.408203 0)"/>
      <use xlink:href="#DejaVuSans-61" transform="translate(131.787109 0)"/>
      <use xlink:href="#DejaVuSans-6c" transform="translate(193.066406 0)"/>
      <use xlink:href="#DejaVuSans-79" transform="translate(220.849609 0)"/>
      <use xlink:href="#DejaVuSans-74" transform="translate(280.029297 0)"/>
      <use xlink:href="#DejaVuSans-69" transform="translate(319.238281 0)"/>
      <use xlink:href="#DejaVuSans-63" transform="translate(347.021484 0)"/>
      <use xlink:href="#DejaVuSans-61" transform="translate(402.001953 0)"/>
      <use xlink:href="#DejaVuSans-6c" transform="translate(463.28125 0)"/>
      <use xlink:href="#DejaVuSans-20" transform="translate(491.064453 0)"/>
      <use xlink:href="#DejaVuSans-77" transform="translate(522.851562 0)"/>
      <use xlink:href="#DejaVuSans-69" transform="translate(604.638672 0)"/>
      <use xlink:href="#DejaVuSans-74" transform="translate(632.421875 0)"/>
      <use xlink:href="#DejaVuSans-68" transform="translate(671.630859 0)"/>
      <use xlink:href="#DejaVuSans-20" transform="translate(735.009766 0)"/>
      <use xlink:href="#DejaVuSans-72" transform="translate(766.796875 0)"/>
      <use xlink:href="#DejaVuSans-68" transform="translate(806.160156 0)"/>
      <use xlink:href="#DejaVuSans-6f" transform="translate(869.539062 0)"/>
      <use xlink:href="#DejaVuSans-5f" transform="translate(930.720703 0)"/>
      <use xlink:href="#DejaVuSans-70" transform="translate(980.720703 0)"/>
      <use xlink:href="#DejaVuSans-72" transform="translate(1044.197266 0)"/>
      <use xlink:href="#DejaVuSans-69" transform="translate(1085.310547 0)"/>
      <use xlink:href="#DejaVuSans-6d" transform="translate(1113.09375 0)"/>
      <use xlink:href="#DejaVuSans-65" transform="translate(1210.505859 0)"/>
      <use xlink:href="#DejaVuSans-3d" transform="translate(1272.029297 0)"/>
      <use xlink:href="#DejaVuSans-31" transform="translate(1355.818359 0)"/>
      <use xlink:href="#DejaVuSans-65" transform="translate(1419.441406 0)"/>
      <use xlink:href="#DejaVuSans-2d" transform="translate(1480.964844 0)"/>
      <use xlink:href="#DejaVuSans-30" transform="translate(1517.048828 0)"/>
      <use xlink:href="#DejaVuSans-35" transform="translate(1580.671875 0)"/>
     </g>
    </g>
    <g id="line2d_28">
     <path d="M 495.267187 69.612813 
L 505.267187 69.612813 
L 515.267187 69.612813 
" style="fill: none; stroke-dasharray: 1.85,0.8; stroke-dashoffset: 0; stroke: #80ffb4; stroke-width: 0.5"/>
    </g>
    <g id="text_19">
     <!-- rho'=0.00013 -->
     <g transform="translate(523.267187 73.112813) scale(0.1 -0.1)">
      <defs>
       <path id="DejaVuSans-2e" d="M 684 794 
L 1344 794 
L 1344 0 
L 684 0 
L 684 794 
z
" transform="scale(0.015625)"/>
      </defs>
      <use xlink:href="#DejaVuSans-72"/>
      <use xlink:href="#DejaVuSans-68" transform="translate(39.363281 0)"/>
      <use xlink:href="#DejaVuSans-6f" transform="translate(102.742188 0)"/>
      <use xlink:href="#DejaVuSans-27" transform="translate(163.923828 0)"/>
      <use xlink:href="#DejaVuSans-3d" transform="translate(191.414062 0)"/>
      <use xlink:href="#DejaVuSans-30" transform="translate(275.203125 0)"/>
      <use xlink:href="#DejaVuSans-2e" transform="translate(338.826172 0)"/>
      <use xlink:href="#DejaVuSans-30" transform="translate(370.613281 0)"/>
      <use xlink:href="#DejaVuSans-30" transform="translate(434.236328 0)"/>
      <use xlink:href="#DejaVuSans-30" transform="translate(497.859375 0)"/>
      <use xlink:href="#DejaVuSans-31" transform="translate(561.482422 0)"/>
      <use xlink:href="#DejaVuSans-33" transform="translate(625.105469 0)"/>
     </g>
    </g>
    <g id="line2d_29">
     <path d="M 495.267187 84.290938 
L 505.267187 84.290938 
L 515.267187 84.290938 
" style="fill: none; stroke-dasharray: 1.85,0.8; stroke-dashoffset: 0; stroke: #000000; stroke-width: 0.5"/>
    </g>
    <g id="text_20">
     <!-- Analytical with rho_prime=0.00013 -->
     <g transform="translate(523.267187 87.790938) scale(0.1 -0.1)">
      <use xlink:href="#DejaVuSans-41"/>
      <use xlink:href="#DejaVuSans-6e" transform="translate(68.408203 0)"/>
      <use xlink:href="#DejaVuSans-61" transform="translate(131.787109 0)"/>
      <use xlink:href="#DejaVuSans-6c" transform="translate(193.066406 0)"/>
      <use xlink:href="#DejaVuSans-79" transform="translate(220.849609 0)"/>
      <use xlink:href="#DejaVuSans-74" transform="translate(280.029297 0)"/>
      <use xlink:href="#DejaVuSans-69" transform="translate(319.238281 0)"/>
      <use xlink:href="#DejaVuSans-63" transform="translate(347.021484 0)"/>
      <use xlink:href="#DejaVuSans-61" transform="translate(402.001953 0)"/>
      <use xlink:href="#DejaVuSans-6c" transform="translate(463.28125 0)"/>
      <use xlink:href="#DejaVuSans-20" transform="translate(491.064453 0)"/>
      <use xlink:href="#DejaVuSans-77" transform="translate(522.851562 0)"/>
      <use xlink:href="#DejaVuSans-69" transform="translate(604.638672 0)"/>
      <use xlink:href="#DejaVuSans-74" transform="translate(632.421875 0)"/>
      <use xlink:href="#DejaVuSans-68" transform="translate(671.630859 0)"/>
      <use xlink:href="#DejaVuSans-20" transform="translate(735.009766 0)"/>
      <use xlink:href="#DejaVuSans-72" transform="translate(766.796875 0)"/>
      <use xlink:href="#DejaVuSans-68" transform="translate(806.160156 0)"/>
      <use xlink:href="#DejaVuSans-6f" transform="translate(869.539062 0)"/>
      <use xlink:href="#DejaVuSans-5f" transform="translate(930.720703 0)"/>
      <use xlink:href="#DejaVuSans-70" transform="translate(980.720703 0)"/>
      <use xlink:href="#DejaVuSans-72" transform="translate(1044.197266 0)"/>
      <use xlink:href="#DejaVuSans-69" transform="translate(1085.310547 0)"/>
      <use xlink:href="#DejaVuSans-6d" transform="translate(1113.09375 0)"/>
      <use xlink:href="#DejaVuSans-65" transform="translate(1210.505859 0)"/>
      <use xlink:href="#DejaVuSans-3d" transform="translate(1272.029297 0)"/>
      <use xlink:href="#DejaVuSans-30" transform="translate(1355.818359 0)"/>
      <use xlink:href="#DejaVuSans-2e" transform="translate(1419.441406 0)"/>
      <use xlink:href="#DejaVuSans-30" transform="translate(1451.228516 0)"/>
      <use xlink:href="#DejaVuSans-30" transform="translate(1514.851562 0)"/>
      <use xlink:href="#DejaVuSans-30" transform="translate(1578.474609 0)"/>
      <use xlink:href="#DejaVuSans-31" transform="translate(1642.097656 0)"/>
      <use xlink:href="#DejaVuSans-33" transform="translate(1705.720703 0)"/>
     </g>
    </g>
    <g id="line2d_30">
     <path d="M 495.267187 99.247188 
L 505.267187 99.247188 
L 515.267187 99.247188 
" style="fill: none; stroke-dasharray: 1.85,0.8; stroke-dashoffset: 0; stroke: #ff0000; stroke-width: 0.5"/>
    </g>
    <g id="text_21">
     <!-- rho'=0.0023 -->
     <g transform="translate(523.267187 102.747188) scale(0.1 -0.1)">
      <use xlink:href="#DejaVuSans-72"/>
      <use xlink:href="#DejaVuSans-68" transform="translate(39.363281 0)"/>
      <use xlink:href="#DejaVuSans-6f" transform="translate(102.742188 0)"/>
      <use xlink:href="#DejaVuSans-27" transform="translate(163.923828 0)"/>
      <use xlink:href="#DejaVuSans-3d" transform="translate(191.414062 0)"/>
      <use xlink:href="#DejaVuSans-30" transform="translate(275.203125 0)"/>
      <use xlink:href="#DejaVuSans-2e" transform="translate(338.826172 0)"/>
      <use xlink:href="#DejaVuSans-30" transform="translate(370.613281 0)"/>
      <use xlink:href="#DejaVuSans-30" transform="translate(434.236328 0)"/>
      <use xlink:href="#DejaVuSans-32" transform="translate(497.859375 0)"/>
      <use xlink:href="#DejaVuSans-33" transform="translate(561.482422 0)"/>
     </g>
    </g>
    <g id="line2d_31">
     <path d="M 495.267187 113.925313 
L 505.267187 113.925313 
L 515.267187 113.925313 
" style="fill: none; stroke-dasharray: 1.85,0.8; stroke-dashoffset: 0; stroke: #000000; stroke-width: 0.5"/>
    </g>
    <g id="text_22">
     <!-- Analytical with rho_prime=0.0023 -->
     <g transform="translate(523.267187 117.425313) scale(0.1 -0.1)">
      <use xlink:href="#DejaVuSans-41"/>
      <use xlink:href="#DejaVuSans-6e" transform="translate(68.408203 0)"/>
      <use xlink:href="#DejaVuSans-61" transform="translate(131.787109 0)"/>
      <use xlink:href="#DejaVuSans-6c" transform="translate(193.066406 0)"/>
      <use xlink:href="#DejaVuSans-79" transform="translate(220.849609 0)"/>
      <use xlink:href="#DejaVuSans-74" transform="translate(280.029297 0)"/>
      <use xlink:href="#DejaVuSans-69" transform="translate(319.238281 0)"/>
      <use xlink:href="#DejaVuSans-63" transform="translate(347.021484 0)"/>
      <use xlink:href="#DejaVuSans-61" transform="translate(402.001953 0)"/>
      <use xlink:href="#DejaVuSans-6c" transform="translate(463.28125 0)"/>
      <use xlink:href="#DejaVuSans-20" transform="translate(491.064453 0)"/>
      <use xlink:href="#DejaVuSans-77" transform="translate(522.851562 0)"/>
      <use xlink:href="#DejaVuSans-69" transform="translate(604.638672 0)"/>
      <use xlink:href="#DejaVuSans-74" transform="translate(632.421875 0)"/>
      <use xlink:href="#DejaVuSans-68" transform="translate(671.630859 0)"/>
      <use xlink:href="#DejaVuSans-20" transform="translate(735.009766 0)"/>
      <use xlink:href="#DejaVuSans-72" transform="translate(766.796875 0)"/>
      <use xlink:href="#DejaVuSans-68" transform="translate(806.160156 0)"/>
      <use xlink:href="#DejaVuSans-6f" transform="translate(869.539062 0)"/>
      <use xlink:href="#DejaVuSans-5f" transform="translate(930.720703 0)"/>
      <use xlink:href="#DejaVuSans-70" transform="translate(980.720703 0)"/>
      <use xlink:href="#DejaVuSans-72" transform="translate(1044.197266 0)"/>
      <use xlink:href="#DejaVuSans-69" transform="translate(1085.310547 0)"/>
      <use xlink:href="#DejaVuSans-6d" transform="translate(1113.09375 0)"/>
      <use xlink:href="#DejaVuSans-65" transform="translate(1210.505859 0)"/>
      <use xlink:href="#DejaVuSans-3d" transform="translate(1272.029297 0)"/>
      <use xlink:href="#DejaVuSans-30" transform="translate(1355.818359 0)"/>
      <use xlink:href="#DejaVuSans-2e" transform="translate(1419.441406 0)"/>
      <use xlink:href="#DejaVuSans-30" transform="translate(1451.228516 0)"/>
      <use xlink:href="#DejaVuSans-30" transform="translate(1514.851562 0)"/>
      <use xlink:href="#DejaVuSans-32" transform="translate(1578.474609 0)"/>
      <use xlink:href="#DejaVuSans-33" transform="translate(1642.097656 0)"/>
     </g>
    </g>
    <g id="line2d_32">
     <path d="M 495.267187 128.881563 
L 505.267187 128.881563 
L 515.267187 128.881563 
" style="fill: none; stroke-dasharray: 1.85,0.8; stroke-dashoffset: 0; stroke: #8000ff; stroke-width: 0.5"/>
    </g>
    <g id="text_23">
     <!-- rho'=1e-05 -->
     <g transform="translate(523.267187 132.381563) scale(0.1 -0.1)">
      <use xlink:href="#DejaVuSans-72"/>
      <use xlink:href="#DejaVuSans-68" transform="translate(39.363281 0)"/>
      <use xlink:href="#DejaVuSans-6f" transform="translate(102.742188 0)"/>
      <use xlink:href="#DejaVuSans-27" transform="translate(163.923828 0)"/>
      <use xlink:href="#DejaVuSans-3d" transform="translate(191.414062 0)"/>
      <use xlink:href="#DejaVuSans-31" transform="translate(275.203125 0)"/>
      <use xlink:href="#DejaVuSans-65" transform="translate(338.826172 0)"/>
      <use xlink:href="#DejaVuSans-2d" transform="translate(400.349609 0)"/>
      <use xlink:href="#DejaVuSans-30" transform="translate(436.433594 0)"/>
      <use xlink:href="#DejaVuSans-35" transform="translate(500.056641 0)"/>
     </g>
    </g>
    <g id="line2d_33">
     <path d="M 495.267187 143.559688 
L 505.267187 143.559688 
L 515.267187 143.559688 
" style="fill: none; stroke-dasharray: 1.85,0.8; stroke-dashoffset: 0; stroke: #000000; stroke-width: 0.5"/>
    </g>
    <g id="text_24">
     <!-- Analytical with rho_prime=1e-05 -->
     <g transform="translate(523.267187 147.059688) scale(0.1 -0.1)">
      <use xlink:href="#DejaVuSans-41"/>
      <use xlink:href="#DejaVuSans-6e" transform="translate(68.408203 0)"/>
      <use xlink:href="#DejaVuSans-61" transform="translate(131.787109 0)"/>
      <use xlink:href="#DejaVuSans-6c" transform="translate(193.066406 0)"/>
      <use xlink:href="#DejaVuSans-79" transform="translate(220.849609 0)"/>
      <use xlink:href="#DejaVuSans-74" transform="translate(280.029297 0)"/>
      <use xlink:href="#DejaVuSans-69" transform="translate(319.238281 0)"/>
      <use xlink:href="#DejaVuSans-63" transform="translate(347.021484 0)"/>
      <use xlink:href="#DejaVuSans-61" transform="translate(402.001953 0)"/>
      <use xlink:href="#DejaVuSans-6c" transform="translate(463.28125 0)"/>
      <use xlink:href="#DejaVuSans-20" transform="translate(491.064453 0)"/>
      <use xlink:href="#DejaVuSans-77" transform="translate(522.851562 0)"/>
      <use xlink:href="#DejaVuSans-69" transform="translate(604.638672 0)"/>
      <use xlink:href="#DejaVuSans-74" transform="translate(632.421875 0)"/>
      <use xlink:href="#DejaVuSans-68" transform="translate(671.630859 0)"/>
      <use xlink:href="#DejaVuSans-20" transform="translate(735.009766 0)"/>
      <use xlink:href="#DejaVuSans-72" transform="translate(766.796875 0)"/>
      <use xlink:href="#DejaVuSans-68" transform="translate(806.160156 0)"/>
      <use xlink:href="#DejaVuSans-6f" transform="translate(869.539062 0)"/>
      <use xlink:href="#DejaVuSans-5f" transform="translate(930.720703 0)"/>
      <use xlink:href="#DejaVuSans-70" transform="translate(980.720703 0)"/>
      <use xlink:href="#DejaVuSans-72" transform="translate(1044.197266 0)"/>
      <use xlink:href="#DejaVuSans-69" transform="translate(1085.310547 0)"/>
      <use xlink:href="#DejaVuSans-6d" transform="translate(1113.09375 0)"/>
      <use xlink:href="#DejaVuSans-65" transform="translate(1210.505859 0)"/>
      <use xlink:href="#DejaVuSans-3d" transform="translate(1272.029297 0)"/>
      <use xlink:href="#DejaVuSans-31" transform="translate(1355.818359 0)"/>
      <use xlink:href="#DejaVuSans-65" transform="translate(1419.441406 0)"/>
      <use xlink:href="#DejaVuSans-2d" transform="translate(1480.964844 0)"/>
      <use xlink:href="#DejaVuSans-30" transform="translate(1517.048828 0)"/>
      <use xlink:href="#DejaVuSans-35" transform="translate(1580.671875 0)"/>
     </g>
    </g>
    <g id="line2d_34">
     <path d="M 495.267187 158.515938 
L 505.267187 158.515938 
L 515.267187 158.515938 
" style="fill: none; stroke-dasharray: 1.85,0.8; stroke-dashoffset: 0; stroke: #80ffb4; stroke-width: 0.5"/>
    </g>
    <g id="text_25">
     <!-- rho'=0.00013 -->
     <g transform="translate(523.267187 162.015938) scale(0.1 -0.1)">
      <use xlink:href="#DejaVuSans-72"/>
      <use xlink:href="#DejaVuSans-68" transform="translate(39.363281 0)"/>
      <use xlink:href="#DejaVuSans-6f" transform="translate(102.742188 0)"/>
      <use xlink:href="#DejaVuSans-27" transform="translate(163.923828 0)"/>
      <use xlink:href="#DejaVuSans-3d" transform="translate(191.414062 0)"/>
      <use xlink:href="#DejaVuSans-30" transform="translate(275.203125 0)"/>
      <use xlink:href="#DejaVuSans-2e" transform="translate(338.826172 0)"/>
      <use xlink:href="#DejaVuSans-30" transform="translate(370.613281 0)"/>
      <use xlink:href="#DejaVuSans-30" transform="translate(434.236328 0)"/>
      <use xlink:href="#DejaVuSans-30" transform="translate(497.859375 0)"/>
      <use xlink:href="#DejaVuSans-31" transform="translate(561.482422 0)"/>
      <use xlink:href="#DejaVuSans-33" transform="translate(625.105469 0)"/>
     </g>
    </g>
    <g id="line2d_35">
     <path d="M 495.267187 173.194063 
L 505.267187 173.194063 
L 515.267187 173.194063 
" style="fill: none; stroke-dasharray: 1.85,0.8; stroke-dashoffset: 0; stroke: #000000; stroke-width: 0.5"/>
    </g>
    <g id="text_26">
     <!-- Analytical with rho_prime=0.00013 -->
     <g transform="translate(523.267187 176.694063) scale(0.1 -0.1)">
      <use xlink:href="#DejaVuSans-41"/>
      <use xlink:href="#DejaVuSans-6e" transform="translate(68.408203 0)"/>
      <use xlink:href="#DejaVuSans-61" transform="translate(131.787109 0)"/>
      <use xlink:href="#DejaVuSans-6c" transform="translate(193.066406 0)"/>
      <use xlink:href="#DejaVuSans-79" transform="translate(220.849609 0)"/>
      <use xlink:href="#DejaVuSans-74" transform="translate(280.029297 0)"/>
      <use xlink:href="#DejaVuSans-69" transform="translate(319.238281 0)"/>
      <use xlink:href="#DejaVuSans-63" transform="translate(347.021484 0)"/>
      <use xlink:href="#DejaVuSans-61" transform="translate(402.001953 0)"/>
      <use xlink:href="#DejaVuSans-6c" transform="translate(463.28125 0)"/>
      <use xlink:href="#DejaVuSans-20" transform="translate(491.064453 0)"/>
      <use xlink:href="#DejaVuSans-77" transform="translate(522.851562 0)"/>
      <use xlink:href="#DejaVuSans-69" transform="translate(604.638672 0)"/>
      <use xlink:href="#DejaVuSans-74" transform="translate(632.421875 0)"/>
      <use xlink:href="#DejaVuSans-68" transform="translate(671.630859 0)"/>
      <use xlink:href="#DejaVuSans-20" transform="translate(735.009766 0)"/>
      <use xlink:href="#DejaVuSans-72" transform="translate(766.796875 0)"/>
      <use xlink:href="#DejaVuSans-68" transform="translate(806.160156 0)"/>
      <use xlink:href="#DejaVuSans-6f" transform="translate(869.539062 0)"/>
      <use xlink:href="#DejaVuSans-5f" transform="translate(930.720703 0)"/>
      <use xlink:href="#DejaVuSans-70" transform="translate(980.720703 0)"/>
      <use xlink:href="#DejaVuSans-72" transform="translate(1044.197266 0)"/>
      <use xlink:href="#DejaVuSans-69" transform="translate(1085.310547 0)"/>
      <use xlink:href="#DejaVuSans-6d" transform="translate(1113.09375 0)"/>
      <use xlink:href="#DejaVuSans-65" transform="translate(1210.505859 0)"/>
      <use xlink:href="#DejaVuSans-3d" transform="translate(1272.029297 0)"/>
      <use xlink:href="#DejaVuSans-30" transform="translate(1355.818359 0)"/>
      <use xlink:href="#DejaVuSans-2e" transform="translate(1419.441406 0)"/>
      <use xlink:href="#DejaVuSans-30" transform="translate(1451.228516 0)"/>
      <use xlink:href="#DejaVuSans-30" transform="translate(1514.851562 0)"/>
      <use xlink:href="#DejaVuSans-30" transform="translate(1578.474609 0)"/>
      <use xlink:href="#DejaVuSans-31" transform="translate(1642.097656 0)"/>
      <use xlink:href="#DejaVuSans-33" transform="translate(1705.720703 0)"/>
     </g>
    </g>
    <g id="line2d_36">
     <path d="M 495.267187 188.150313 
L 505.267187 188.150313 
L 515.267187 188.150313 
" style="fill: none; stroke-dasharray: 1.85,0.8; stroke-dashoffset: 0; stroke: #ff0000; stroke-width: 0.5"/>
    </g>
    <g id="text_27">
     <!-- rho'=0.0023 -->
     <g transform="translate(523.267187 191.650313) scale(0.1 -0.1)">
      <use xlink:href="#DejaVuSans-72"/>
      <use xlink:href="#DejaVuSans-68" transform="translate(39.363281 0)"/>
      <use xlink:href="#DejaVuSans-6f" transform="translate(102.742188 0)"/>
      <use xlink:href="#DejaVuSans-27" transform="translate(163.923828 0)"/>
      <use xlink:href="#DejaVuSans-3d" transform="translate(191.414062 0)"/>
      <use xlink:href="#DejaVuSans-30" transform="translate(275.203125 0)"/>
      <use xlink:href="#DejaVuSans-2e" transform="translate(338.826172 0)"/>
      <use xlink:href="#DejaVuSans-30" transform="translate(370.613281 0)"/>
      <use xlink:href="#DejaVuSans-30" transform="translate(434.236328 0)"/>
      <use xlink:href="#DejaVuSans-32" transform="translate(497.859375 0)"/>
      <use xlink:href="#DejaVuSans-33" transform="translate(561.482422 0)"/>
     </g>
    </g>
    <g id="line2d_37">
     <path d="M 495.267187 202.828438 
L 505.267187 202.828438 
L 515.267187 202.828438 
" style="fill: none; stroke-dasharray: 1.85,0.8; stroke-dashoffset: 0; stroke: #000000; stroke-width: 0.5"/>
    </g>
    <g id="text_28">
     <!-- Analytical with rho_prime=0.0023 -->
     <g transform="translate(523.267187 206.328438) scale(0.1 -0.1)">
      <use xlink:href="#DejaVuSans-41"/>
      <use xlink:href="#DejaVuSans-6e" transform="translate(68.408203 0)"/>
      <use xlink:href="#DejaVuSans-61" transform="translate(131.787109 0)"/>
      <use xlink:href="#DejaVuSans-6c" transform="translate(193.066406 0)"/>
      <use xlink:href="#DejaVuSans-79" transform="translate(220.849609 0)"/>
      <use xlink:href="#DejaVuSans-74" transform="translate(280.029297 0)"/>
      <use xlink:href="#DejaVuSans-69" transform="translate(319.238281 0)"/>
      <use xlink:href="#DejaVuSans-63" transform="translate(347.021484 0)"/>
      <use xlink:href="#DejaVuSans-61" transform="translate(402.001953 0)"/>
      <use xlink:href="#DejaVuSans-6c" transform="translate(463.28125 0)"/>
      <use xlink:href="#DejaVuSans-20" transform="translate(491.064453 0)"/>
      <use xlink:href="#DejaVuSans-77" transform="translate(522.851562 0)"/>
      <use xlink:href="#DejaVuSans-69" transform="translate(604.638672 0)"/>
      <use xlink:href="#DejaVuSans-74" transform="translate(632.421875 0)"/>
      <use xlink:href="#DejaVuSans-68" transform="translate(671.630859 0)"/>
      <use xlink:href="#DejaVuSans-20" transform="translate(735.009766 0)"/>
      <use xlink:href="#DejaVuSans-72" transform="translate(766.796875 0)"/>
      <use xlink:href="#DejaVuSans-68" transform="translate(806.160156 0)"/>
      <use xlink:href="#DejaVuSans-6f" transform="translate(869.539062 0)"/>
      <use xlink:href="#DejaVuSans-5f" transform="translate(930.720703 0)"/>
      <use xlink:href="#DejaVuSans-70" transform="translate(980.720703 0)"/>
      <use xlink:href="#DejaVuSans-72" transform="translate(1044.197266 0)"/>
      <use xlink:href="#DejaVuSans-69" transform="translate(1085.310547 0)"/>
      <use xlink:href="#DejaVuSans-6d" transform="translate(1113.09375 0)"/>
      <use xlink:href="#DejaVuSans-65" transform="translate(1210.505859 0)"/>
      <use xlink:href="#DejaVuSans-3d" transform="translate(1272.029297 0)"/>
      <use xlink:href="#DejaVuSans-30" transform="translate(1355.818359 0)"/>
      <use xlink:href="#DejaVuSans-2e" transform="translate(1419.441406 0)"/>
      <use xlink:href="#DejaVuSans-30" transform="translate(1451.228516 0)"/>
      <use xlink:href="#DejaVuSans-30" transform="translate(1514.851562 0)"/>
      <use xlink:href="#DejaVuSans-32" transform="translate(1578.474609 0)"/>
      <use xlink:href="#DejaVuSans-33" transform="translate(1642.097656 0)"/>
     </g>
    </g>
   </g>
  </g>
 </g>
 <defs>
  <clipPath id="p35a93b8b21">
   <rect x="50.87" y="26.88" width="658.33" height="287.848"/>
  </clipPath>
 </defs>
</svg>
