<?xml version="1.0" encoding="utf-8" standalone="no"?>
<!DOCTYPE svg PUBLIC "-//W3C//DTD SVG 1.1//EN"
  "http://www.w3.org/Graphics/SVG/1.1/DTD/svg11.dtd">
<svg xmlns:xlink="http://www.w3.org/1999/xlink" width="460.8pt" height="345.6pt" viewBox="0 0 460.8 345.6" xmlns="http://www.w3.org/2000/svg" version="1.1">
 <metadata>
  <rdf:RDF xmlns:dc="http://purl.org/dc/elements/1.1/" xmlns:cc="http://creativecommons.org/ns#" xmlns:rdf="http://www.w3.org/1999/02/22-rdf-syntax-ns#">
   <cc:Work>
    <dc:type rdf:resource="http://purl.org/dc/dcmitype/StillImage"/>
    <dc:date>2025-03-04T12:05:31.716296</dc:date>
    <dc:format>image/svg+xml</dc:format>
    <dc:creator>
     <cc:Agent>
      <dc:title>Matplotlib v3.10.0, https://matplotlib.org/</dc:title>
     </cc:Agent>
    </dc:creator>
   </cc:Work>
  </rdf:RDF>
 </metadata>
 <defs>
  <style type="text/css">*{stroke-linejoin: round; stroke-linecap: butt}</style>
 </defs>
 <g id="figure_1">
  <g id="patch_1">
   <path d="M 0 345.6 
L 460.8 345.6 
L 460.8 0 
L 0 0 
z
" style="fill: #ffffff"/>
  </g>
  <g id="axes_1">
   <g id="patch_2">
    <path d="M 57.6 307.584 
L 414.72 307.584 
L 414.72 41.472 
L 57.6 41.472 
z
" style="fill: #ffffff"/>
   </g>
   <g id="matplotlib.axis_1">
    <g id="xtick_1">
     <g id="line2d_1">
      <defs>
       <path id="m4544347b8d" d="M 0 0 
L 0 3.5 
" style="stroke: #000000; stroke-width: 0.8"/>
      </defs>
      <g>
       <use xlink:href="#m4544347b8d" x="73.832727" y="307.584" style="stroke: #000000; stroke-width: 0.8"/>
      </g>
     </g>
     <g id="text_1">
      <!-- 0 -->
      <g transform="translate(70.651477 322.182437) scale(0.1 -0.1)">
       <defs>
        <path id="DejaVuSans-30" d="M 2034 4250 
Q 1547 4250 1301 3770 
Q 1056 3291 1056 2328 
Q 1056 1369 1301 889 
Q 1547 409 2034 409 
Q 2525 409 2770 889 
Q 3016 1369 3016 2328 
Q 3016 3291 2770 3770 
Q 2525 4250 2034 4250 
z
M 2034 4750 
Q 2819 4750 3233 4129 
Q 3647 3509 3647 2328 
Q 3647 1150 3233 529 
Q 2819 -91 2034 -91 
Q 1250 -91 836 529 
Q 422 1150 422 2328 
Q 422 3509 836 4129 
Q 1250 4750 2034 4750 
z
" transform="scale(0.015625)"/>
       </defs>
       <use xlink:href="#DejaVuSans-30"/>
      </g>
     </g>
    </g>
    <g id="xtick_2">
     <g id="line2d_2">
      <g>
       <use xlink:href="#m4544347b8d" x="114.414545" y="307.584" style="stroke: #000000; stroke-width: 0.8"/>
      </g>
     </g>
     <g id="text_2">
      <!-- 100 -->
      <g transform="translate(104.870795 322.182437) scale(0.1 -0.1)">
       <defs>
        <path id="DejaVuSans-31" d="M 794 531 
L 1825 531 
L 1825 4091 
L 703 3866 
L 703 4441 
L 1819 4666 
L 2450 4666 
L 2450 531 
L 3481 531 
L 3481 0 
L 794 0 
L 794 531 
z
" transform="scale(0.015625)"/>
       </defs>
       <use xlink:href="#DejaVuSans-31"/>
       <use xlink:href="#DejaVuSans-30" transform="translate(63.623047 0)"/>
       <use xlink:href="#DejaVuSans-30" transform="translate(127.246094 0)"/>
      </g>
     </g>
    </g>
    <g id="xtick_3">
     <g id="line2d_3">
      <g>
       <use xlink:href="#m4544347b8d" x="154.996364" y="307.584" style="stroke: #000000; stroke-width: 0.8"/>
      </g>
     </g>
     <g id="text_3">
      <!-- 200 -->
      <g transform="translate(145.452614 322.182437) scale(0.1 -0.1)">
       <defs>
        <path id="DejaVuSans-32" d="M 1228 531 
L 3431 531 
L 3431 0 
L 469 0 
L 469 531 
Q 828 903 1448 1529 
Q 2069 2156 2228 2338 
Q 2531 2678 2651 2914 
Q 2772 3150 2772 3378 
Q 2772 3750 2511 3984 
Q 2250 4219 1831 4219 
Q 1534 4219 1204 4116 
Q 875 4013 500 3803 
L 500 4441 
Q 881 4594 1212 4672 
Q 1544 4750 1819 4750 
Q 2544 4750 2975 4387 
Q 3406 4025 3406 3419 
Q 3406 3131 3298 2873 
Q 3191 2616 2906 2266 
Q 2828 2175 2409 1742 
Q 1991 1309 1228 531 
z
" transform="scale(0.015625)"/>
       </defs>
       <use xlink:href="#DejaVuSans-32"/>
       <use xlink:href="#DejaVuSans-30" transform="translate(63.623047 0)"/>
       <use xlink:href="#DejaVuSans-30" transform="translate(127.246094 0)"/>
      </g>
     </g>
    </g>
    <g id="xtick_4">
     <g id="line2d_4">
      <g>
       <use xlink:href="#m4544347b8d" x="195.578182" y="307.584" style="stroke: #000000; stroke-width: 0.8"/>
      </g>
     </g>
     <g id="text_4">
      <!-- 300 -->
      <g transform="translate(186.034432 322.182437) scale(0.1 -0.1)">
       <defs>
        <path id="DejaVuSans-33" d="M 2597 2516 
Q 3050 2419 3304 2112 
Q 3559 1806 3559 1356 
Q 3559 666 3084 287 
Q 2609 -91 1734 -91 
Q 1441 -91 1130 -33 
Q 819 25 488 141 
L 488 750 
Q 750 597 1062 519 
Q 1375 441 1716 441 
Q 2309 441 2620 675 
Q 2931 909 2931 1356 
Q 2931 1769 2642 2001 
Q 2353 2234 1838 2234 
L 1294 2234 
L 1294 2753 
L 1863 2753 
Q 2328 2753 2575 2939 
Q 2822 3125 2822 3475 
Q 2822 3834 2567 4026 
Q 2313 4219 1838 4219 
Q 1578 4219 1281 4162 
Q 984 4106 628 3988 
L 628 4550 
Q 988 4650 1302 4700 
Q 1616 4750 1894 4750 
Q 2613 4750 3031 4423 
Q 3450 4097 3450 3541 
Q 3450 3153 3228 2886 
Q 3006 2619 2597 2516 
z
" transform="scale(0.015625)"/>
       </defs>
       <use xlink:href="#DejaVuSans-33"/>
       <use xlink:href="#DejaVuSans-30" transform="translate(63.623047 0)"/>
       <use xlink:href="#DejaVuSans-30" transform="translate(127.246094 0)"/>
      </g>
     </g>
    </g>
    <g id="xtick_5">
     <g id="line2d_5">
      <g>
       <use xlink:href="#m4544347b8d" x="236.16" y="307.584" style="stroke: #000000; stroke-width: 0.8"/>
      </g>
     </g>
     <g id="text_5">
      <!-- 400 -->
      <g transform="translate(226.61625 322.182437) scale(0.1 -0.1)">
       <defs>
        <path id="DejaVuSans-34" d="M 2419 4116 
L 825 1625 
L 2419 1625 
L 2419 4116 
z
M 2253 4666 
L 3047 4666 
L 3047 1625 
L 3713 1625 
L 3713 1100 
L 3047 1100 
L 3047 0 
L 2419 0 
L 2419 1100 
L 313 1100 
L 313 1709 
L 2253 4666 
z
" transform="scale(0.015625)"/>
       </defs>
       <use xlink:href="#DejaVuSans-34"/>
       <use xlink:href="#DejaVuSans-30" transform="translate(63.623047 0)"/>
       <use xlink:href="#DejaVuSans-30" transform="translate(127.246094 0)"/>
      </g>
     </g>
    </g>
    <g id="xtick_6">
     <g id="line2d_6">
      <g>
       <use xlink:href="#m4544347b8d" x="276.741818" y="307.584" style="stroke: #000000; stroke-width: 0.8"/>
      </g>
     </g>
     <g id="text_6">
      <!-- 500 -->
      <g transform="translate(267.198068 322.182437) scale(0.1 -0.1)">
       <defs>
        <path id="DejaVuSans-35" d="M 691 4666 
L 3169 4666 
L 3169 4134 
L 1269 4134 
L 1269 2991 
Q 1406 3038 1543 3061 
Q 1681 3084 1819 3084 
Q 2600 3084 3056 2656 
Q 3513 2228 3513 1497 
Q 3513 744 3044 326 
Q 2575 -91 1722 -91 
Q 1428 -91 1123 -41 
Q 819 9 494 109 
L 494 744 
Q 775 591 1075 516 
Q 1375 441 1709 441 
Q 2250 441 2565 725 
Q 2881 1009 2881 1497 
Q 2881 1984 2565 2268 
Q 2250 2553 1709 2553 
Q 1456 2553 1204 2497 
Q 953 2441 691 2322 
L 691 4666 
z
" transform="scale(0.015625)"/>
       </defs>
       <use xlink:href="#DejaVuSans-35"/>
       <use xlink:href="#DejaVuSans-30" transform="translate(63.623047 0)"/>
       <use xlink:href="#DejaVuSans-30" transform="translate(127.246094 0)"/>
      </g>
     </g>
    </g>
    <g id="xtick_7">
     <g id="line2d_7">
      <g>
       <use xlink:href="#m4544347b8d" x="317.323636" y="307.584" style="stroke: #000000; stroke-width: 0.8"/>
      </g>
     </g>
     <g id="text_7">
      <!-- 600 -->
      <g transform="translate(307.779886 322.182437) scale(0.1 -0.1)">
       <defs>
        <path id="DejaVuSans-36" d="M 2113 2584 
Q 1688 2584 1439 2293 
Q 1191 2003 1191 1497 
Q 1191 994 1439 701 
Q 1688 409 2113 409 
Q 2538 409 2786 701 
Q 3034 994 3034 1497 
Q 3034 2003 2786 2293 
Q 2538 2584 2113 2584 
z
M 3366 4563 
L 3366 3988 
Q 3128 4100 2886 4159 
Q 2644 4219 2406 4219 
Q 1781 4219 1451 3797 
Q 1122 3375 1075 2522 
Q 1259 2794 1537 2939 
Q 1816 3084 2150 3084 
Q 2853 3084 3261 2657 
Q 3669 2231 3669 1497 
Q 3669 778 3244 343 
Q 2819 -91 2113 -91 
Q 1303 -91 875 529 
Q 447 1150 447 2328 
Q 447 3434 972 4092 
Q 1497 4750 2381 4750 
Q 2619 4750 2861 4703 
Q 3103 4656 3366 4563 
z
" transform="scale(0.015625)"/>
       </defs>
       <use xlink:href="#DejaVuSans-36"/>
       <use xlink:href="#DejaVuSans-30" transform="translate(63.623047 0)"/>
       <use xlink:href="#DejaVuSans-30" transform="translate(127.246094 0)"/>
      </g>
     </g>
    </g>
    <g id="xtick_8">
     <g id="line2d_8">
      <g>
       <use xlink:href="#m4544347b8d" x="357.905455" y="307.584" style="stroke: #000000; stroke-width: 0.8"/>
      </g>
     </g>
     <g id="text_8">
      <!-- 700 -->
      <g transform="translate(348.361705 322.182437) scale(0.1 -0.1)">
       <defs>
        <path id="DejaVuSans-37" d="M 525 4666 
L 3525 4666 
L 3525 4397 
L 1831 0 
L 1172 0 
L 2766 4134 
L 525 4134 
L 525 4666 
z
" transform="scale(0.015625)"/>
       </defs>
       <use xlink:href="#DejaVuSans-37"/>
       <use xlink:href="#DejaVuSans-30" transform="translate(63.623047 0)"/>
       <use xlink:href="#DejaVuSans-30" transform="translate(127.246094 0)"/>
      </g>
     </g>
    </g>
    <g id="xtick_9">
     <g id="line2d_9">
      <g>
       <use xlink:href="#m4544347b8d" x="398.487273" y="307.584" style="stroke: #000000; stroke-width: 0.8"/>
      </g>
     </g>
     <g id="text_9">
      <!-- 800 -->
      <g transform="translate(388.943523 322.182437) scale(0.1 -0.1)">
       <defs>
        <path id="DejaVuSans-38" d="M 2034 2216 
Q 1584 2216 1326 1975 
Q 1069 1734 1069 1313 
Q 1069 891 1326 650 
Q 1584 409 2034 409 
Q 2484 409 2743 651 
Q 3003 894 3003 1313 
Q 3003 1734 2745 1975 
Q 2488 2216 2034 2216 
z
M 1403 2484 
Q 997 2584 770 2862 
Q 544 3141 544 3541 
Q 544 4100 942 4425 
Q 1341 4750 2034 4750 
Q 2731 4750 3128 4425 
Q 3525 4100 3525 3541 
Q 3525 3141 3298 2862 
Q 3072 2584 2669 2484 
Q 3125 2378 3379 2068 
Q 3634 1759 3634 1313 
Q 3634 634 3220 271 
Q 2806 -91 2034 -91 
Q 1263 -91 848 271 
Q 434 634 434 1313 
Q 434 1759 690 2068 
Q 947 2378 1403 2484 
z
M 1172 3481 
Q 1172 3119 1398 2916 
Q 1625 2713 2034 2713 
Q 2441 2713 2670 2916 
Q 2900 3119 2900 3481 
Q 2900 3844 2670 4047 
Q 2441 4250 2034 4250 
Q 1625 4250 1398 4047 
Q 1172 3844 1172 3481 
z
" transform="scale(0.015625)"/>
       </defs>
       <use xlink:href="#DejaVuSans-38"/>
       <use xlink:href="#DejaVuSans-30" transform="translate(63.623047 0)"/>
       <use xlink:href="#DejaVuSans-30" transform="translate(127.246094 0)"/>
      </g>
     </g>
    </g>
    <g id="text_10">
     <!-- Temperature ($^{\circ}C$) -->
     <g transform="translate(192.16 335.862125) scale(0.1 -0.1)">
      <defs>
       <path id="DejaVuSans-54" d="M -19 4666 
L 3928 4666 
L 3928 4134 
L 2272 4134 
L 2272 0 
L 1638 0 
L 1638 4134 
L -19 4134 
L -19 4666 
z
" transform="scale(0.015625)"/>
       <path id="DejaVuSans-65" d="M 3597 1894 
L 3597 1613 
L 953 1613 
Q 991 1019 1311 708 
Q 1631 397 2203 397 
Q 2534 397 2845 478 
Q 3156 559 3463 722 
L 3463 178 
Q 3153 47 2828 -22 
Q 2503 -91 2169 -91 
Q 1331 -91 842 396 
Q 353 884 353 1716 
Q 353 2575 817 3079 
Q 1281 3584 2069 3584 
Q 2775 3584 3186 3129 
Q 3597 2675 3597 1894 
z
M 3022 2063 
Q 3016 2534 2758 2815 
Q 2500 3097 2075 3097 
Q 1594 3097 1305 2825 
Q 1016 2553 972 2059 
L 3022 2063 
z
" transform="scale(0.015625)"/>
       <path id="DejaVuSans-6d" d="M 3328 2828 
Q 3544 3216 3844 3400 
Q 4144 3584 4550 3584 
Q 5097 3584 5394 3201 
Q 5691 2819 5691 2113 
L 5691 0 
L 5113 0 
L 5113 2094 
Q 5113 2597 4934 2840 
Q 4756 3084 4391 3084 
Q 3944 3084 3684 2787 
Q 3425 2491 3425 1978 
L 3425 0 
L 2847 0 
L 2847 2094 
Q 2847 2600 2669 2842 
Q 2491 3084 2119 3084 
Q 1678 3084 1418 2786 
Q 1159 2488 1159 1978 
L 1159 0 
L 581 0 
L 581 3500 
L 1159 3500 
L 1159 2956 
Q 1356 3278 1631 3431 
Q 1906 3584 2284 3584 
Q 2666 3584 2933 3390 
Q 3200 3197 3328 2828 
z
" transform="scale(0.015625)"/>
       <path id="DejaVuSans-70" d="M 1159 525 
L 1159 -1331 
L 581 -1331 
L 581 3500 
L 1159 3500 
L 1159 2969 
Q 1341 3281 1617 3432 
Q 1894 3584 2278 3584 
Q 2916 3584 3314 3078 
Q 3713 2572 3713 1747 
Q 3713 922 3314 415 
Q 2916 -91 2278 -91 
Q 1894 -91 1617 61 
Q 1341 213 1159 525 
z
M 3116 1747 
Q 3116 2381 2855 2742 
Q 2594 3103 2138 3103 
Q 1681 3103 1420 2742 
Q 1159 2381 1159 1747 
Q 1159 1113 1420 752 
Q 1681 391 2138 391 
Q 2594 391 2855 752 
Q 3116 1113 3116 1747 
z
" transform="scale(0.015625)"/>
       <path id="DejaVuSans-72" d="M 2631 2963 
Q 2534 3019 2420 3045 
Q 2306 3072 2169 3072 
Q 1681 3072 1420 2755 
Q 1159 2438 1159 1844 
L 1159 0 
L 581 0 
L 581 3500 
L 1159 3500 
L 1159 2956 
Q 1341 3275 1631 3429 
Q 1922 3584 2338 3584 
Q 2397 3584 2469 3576 
Q 2541 3569 2628 3553 
L 2631 2963 
z
" transform="scale(0.015625)"/>
       <path id="DejaVuSans-61" d="M 2194 1759 
Q 1497 1759 1228 1600 
Q 959 1441 959 1056 
Q 959 750 1161 570 
Q 1363 391 1709 391 
Q 2188 391 2477 730 
Q 2766 1069 2766 1631 
L 2766 1759 
L 2194 1759 
z
M 3341 1997 
L 3341 0 
L 2766 0 
L 2766 531 
Q 2569 213 2275 61 
Q 1981 -91 1556 -91 
Q 1019 -91 701 211 
Q 384 513 384 1019 
Q 384 1609 779 1909 
Q 1175 2209 1959 2209 
L 2766 2209 
L 2766 2266 
Q 2766 2663 2505 2880 
Q 2244 3097 1772 3097 
Q 1472 3097 1187 3025 
Q 903 2953 641 2809 
L 641 3341 
Q 956 3463 1253 3523 
Q 1550 3584 1831 3584 
Q 2591 3584 2966 3190 
Q 3341 2797 3341 1997 
z
" transform="scale(0.015625)"/>
       <path id="DejaVuSans-74" d="M 1172 4494 
L 1172 3500 
L 2356 3500 
L 2356 3053 
L 1172 3053 
L 1172 1153 
Q 1172 725 1289 603 
Q 1406 481 1766 481 
L 2356 481 
L 2356 0 
L 1766 0 
Q 1100 0 847 248 
Q 594 497 594 1153 
L 594 3053 
L 172 3053 
L 172 3500 
L 594 3500 
L 594 4494 
L 1172 4494 
z
" transform="scale(0.015625)"/>
       <path id="DejaVuSans-75" d="M 544 1381 
L 544 3500 
L 1119 3500 
L 1119 1403 
Q 1119 906 1312 657 
Q 1506 409 1894 409 
Q 2359 409 2629 706 
Q 2900 1003 2900 1516 
L 2900 3500 
L 3475 3500 
L 3475 0 
L 2900 0 
L 2900 538 
Q 2691 219 2414 64 
Q 2138 -91 1772 -91 
Q 1169 -91 856 284 
Q 544 659 544 1381 
z
M 1991 3584 
L 1991 3584 
z
" transform="scale(0.015625)"/>
       <path id="DejaVuSans-20" transform="scale(0.015625)"/>
       <path id="DejaVuSans-28" d="M 1984 4856 
Q 1566 4138 1362 3434 
Q 1159 2731 1159 2009 
Q 1159 1288 1364 580 
Q 1569 -128 1984 -844 
L 1484 -844 
Q 1016 -109 783 600 
Q 550 1309 550 2009 
Q 550 2706 781 3412 
Q 1013 4119 1484 4856 
L 1984 4856 
z
" transform="scale(0.015625)"/>
       <path id="DejaVuSans-2218" d="M 2000 2619 
Q 1750 2619 1578 2445 
Q 1406 2272 1406 2022 
Q 1406 1775 1578 1605 
Q 1750 1435 2000 1435 
Q 2250 1435 2422 1605 
Q 2594 1775 2594 2022 
Q 2594 2269 2420 2444 
Q 2247 2619 2000 2619 
z
M 2000 3022 
Q 2200 3022 2384 2945 
Q 2569 2869 2703 2725 
Q 2847 2585 2919 2406 
Q 2991 2228 2991 2022 
Q 2991 1610 2702 1324 
Q 2413 1038 1994 1038 
Q 1572 1038 1290 1319 
Q 1009 1600 1009 2022 
Q 1009 2441 1296 2731 
Q 1584 3022 2000 3022 
z
" transform="scale(0.015625)"/>
       <path id="DejaVuSans-Oblique-43" d="M 4447 4306 
L 4319 3641 
Q 4019 3944 3683 4091 
Q 3347 4238 2956 4238 
Q 2422 4238 2017 3981 
Q 1613 3725 1319 3200 
Q 1131 2863 1032 2486 
Q 934 2109 934 1728 
Q 934 1091 1264 756 
Q 1594 422 2222 422 
Q 2656 422 3056 561 
Q 3456 700 3834 978 
L 3688 231 
Q 3316 72 2936 -9 
Q 2556 -91 2175 -91 
Q 1278 -91 773 396 
Q 269 884 269 1753 
Q 269 2309 461 2846 
Q 653 3384 1013 3828 
Q 1394 4300 1883 4525 
Q 2372 4750 3022 4750 
Q 3422 4750 3780 4639 
Q 4138 4528 4447 4306 
z
" transform="scale(0.015625)"/>
       <path id="DejaVuSans-29" d="M 513 4856 
L 1013 4856 
Q 1481 4119 1714 3412 
Q 1947 2706 1947 2009 
Q 1947 1309 1714 600 
Q 1481 -109 1013 -844 
L 513 -844 
Q 928 -128 1133 580 
Q 1338 1288 1338 2009 
Q 1338 2731 1133 3434 
Q 928 4138 513 4856 
z
" transform="scale(0.015625)"/>
      </defs>
      <use xlink:href="#DejaVuSans-54" transform="translate(0 0.125)"/>
      <use xlink:href="#DejaVuSans-65" transform="translate(61.083984 0.125)"/>
      <use xlink:href="#DejaVuSans-6d" transform="translate(122.607422 0.125)"/>
      <use xlink:href="#DejaVuSans-70" transform="translate(220.019531 0.125)"/>
      <use xlink:href="#DejaVuSans-65" transform="translate(283.496094 0.125)"/>
      <use xlink:href="#DejaVuSans-72" transform="translate(345.019531 0.125)"/>
      <use xlink:href="#DejaVuSans-61" transform="translate(386.132812 0.125)"/>
      <use xlink:href="#DejaVuSans-74" transform="translate(447.412109 0.125)"/>
      <use xlink:href="#DejaVuSans-75" transform="translate(486.621094 0.125)"/>
      <use xlink:href="#DejaVuSans-72" transform="translate(550 0.125)"/>
      <use xlink:href="#DejaVuSans-65" transform="translate(591.113281 0.125)"/>
      <use xlink:href="#DejaVuSans-20" transform="translate(652.636719 0.125)"/>
      <use xlink:href="#DejaVuSans-28" transform="translate(684.423828 0.125)"/>
      <use xlink:href="#DejaVuSans-2218" transform="translate(724.394531 38.40625) scale(0.7)"/>
      <use xlink:href="#DejaVuSans-Oblique-43" transform="translate(770.947266 0.125)"/>
      <use xlink:href="#DejaVuSans-29" transform="translate(840.771484 0.125)"/>
     </g>
    </g>
   </g>
   <g id="matplotlib.axis_2">
    <g id="ytick_1">
     <g id="line2d_10">
      <defs>
       <path id="mc10ae8913a" d="M 0 0 
L -3.5 0 
" style="stroke: #000000; stroke-width: 0.8"/>
      </defs>
      <g>
       <use xlink:href="#mc10ae8913a" x="57.6" y="295.488" style="stroke: #000000; stroke-width: 0.8"/>
      </g>
     </g>
     <g id="text_11">
      <!-- 0 -->
      <g transform="translate(44.2375 299.287219) scale(0.1 -0.1)">
       <use xlink:href="#DejaVuSans-30"/>
      </g>
     </g>
    </g>
    <g id="ytick_2">
     <g id="line2d_11">
      <g>
       <use xlink:href="#mc10ae8913a" x="57.6" y="241.698392" style="stroke: #000000; stroke-width: 0.8"/>
      </g>
     </g>
     <g id="text_12">
      <!-- 1 -->
      <g transform="translate(44.2375 245.497611) scale(0.1 -0.1)">
       <use xlink:href="#DejaVuSans-31"/>
      </g>
     </g>
    </g>
    <g id="ytick_3">
     <g id="line2d_12">
      <g>
       <use xlink:href="#mc10ae8913a" x="57.6" y="187.908784" style="stroke: #000000; stroke-width: 0.8"/>
      </g>
     </g>
     <g id="text_13">
      <!-- 2 -->
      <g transform="translate(44.2375 191.708002) scale(0.1 -0.1)">
       <use xlink:href="#DejaVuSans-32"/>
      </g>
     </g>
    </g>
    <g id="ytick_4">
     <g id="line2d_13">
      <g>
       <use xlink:href="#mc10ae8913a" x="57.6" y="134.119175" style="stroke: #000000; stroke-width: 0.8"/>
      </g>
     </g>
     <g id="text_14">
      <!-- 3 -->
      <g transform="translate(44.2375 137.918394) scale(0.1 -0.1)">
       <use xlink:href="#DejaVuSans-33"/>
      </g>
     </g>
    </g>
    <g id="ytick_5">
     <g id="line2d_14">
      <g>
       <use xlink:href="#mc10ae8913a" x="57.6" y="80.329567" style="stroke: #000000; stroke-width: 0.8"/>
      </g>
     </g>
     <g id="text_15">
      <!-- 4 -->
      <g transform="translate(44.2375 84.128786) scale(0.1 -0.1)">
       <use xlink:href="#DejaVuSans-34"/>
      </g>
     </g>
    </g>
    <g id="text_16">
     <!-- Intensity ($^{\circ}C^{-1}$) -->
     <g transform="translate(38.1375 213.328) rotate(-90) scale(0.1 -0.1)">
      <defs>
       <path id="DejaVuSans-49" d="M 628 4666 
L 1259 4666 
L 1259 0 
L 628 0 
L 628 4666 
z
" transform="scale(0.015625)"/>
       <path id="DejaVuSans-6e" d="M 3513 2113 
L 3513 0 
L 2938 0 
L 2938 2094 
Q 2938 2591 2744 2837 
Q 2550 3084 2163 3084 
Q 1697 3084 1428 2787 
Q 1159 2491 1159 1978 
L 1159 0 
L 581 0 
L 581 3500 
L 1159 3500 
L 1159 2956 
Q 1366 3272 1645 3428 
Q 1925 3584 2291 3584 
Q 2894 3584 3203 3211 
Q 3513 2838 3513 2113 
z
" transform="scale(0.015625)"/>
       <path id="DejaVuSans-73" d="M 2834 3397 
L 2834 2853 
Q 2591 2978 2328 3040 
Q 2066 3103 1784 3103 
Q 1356 3103 1142 2972 
Q 928 2841 928 2578 
Q 928 2378 1081 2264 
Q 1234 2150 1697 2047 
L 1894 2003 
Q 2506 1872 2764 1633 
Q 3022 1394 3022 966 
Q 3022 478 2636 193 
Q 2250 -91 1575 -91 
Q 1294 -91 989 -36 
Q 684 19 347 128 
L 347 722 
Q 666 556 975 473 
Q 1284 391 1588 391 
Q 1994 391 2212 530 
Q 2431 669 2431 922 
Q 2431 1156 2273 1281 
Q 2116 1406 1581 1522 
L 1381 1569 
Q 847 1681 609 1914 
Q 372 2147 372 2553 
Q 372 3047 722 3315 
Q 1072 3584 1716 3584 
Q 2034 3584 2315 3537 
Q 2597 3491 2834 3397 
z
" transform="scale(0.015625)"/>
       <path id="DejaVuSans-69" d="M 603 3500 
L 1178 3500 
L 1178 0 
L 603 0 
L 603 3500 
z
M 603 4863 
L 1178 4863 
L 1178 4134 
L 603 4134 
L 603 4863 
z
" transform="scale(0.015625)"/>
       <path id="DejaVuSans-79" d="M 2059 -325 
Q 1816 -950 1584 -1140 
Q 1353 -1331 966 -1331 
L 506 -1331 
L 506 -850 
L 844 -850 
Q 1081 -850 1212 -737 
Q 1344 -625 1503 -206 
L 1606 56 
L 191 3500 
L 800 3500 
L 1894 763 
L 2988 3500 
L 3597 3500 
L 2059 -325 
z
" transform="scale(0.015625)"/>
       <path id="DejaVuSans-2212" d="M 678 2272 
L 4684 2272 
L 4684 1741 
L 678 1741 
L 678 2272 
z
" transform="scale(0.015625)"/>
      </defs>
      <use xlink:href="#DejaVuSans-49" transform="translate(0 0.684375)"/>
      <use xlink:href="#DejaVuSans-6e" transform="translate(29.492188 0.684375)"/>
      <use xlink:href="#DejaVuSans-74" transform="translate(92.871094 0.684375)"/>
      <use xlink:href="#DejaVuSans-65" transform="translate(132.080078 0.684375)"/>
      <use xlink:href="#DejaVuSans-6e" transform="translate(193.603516 0.684375)"/>
      <use xlink:href="#DejaVuSans-73" transform="translate(256.982422 0.684375)"/>
      <use xlink:href="#DejaVuSans-69" transform="translate(309.082031 0.684375)"/>
      <use xlink:href="#DejaVuSans-74" transform="translate(336.865234 0.684375)"/>
      <use xlink:href="#DejaVuSans-79" transform="translate(376.074219 0.684375)"/>
      <use xlink:href="#DejaVuSans-20" transform="translate(435.253906 0.684375)"/>
      <use xlink:href="#DejaVuSans-28" transform="translate(467.041016 0.684375)"/>
      <use xlink:href="#DejaVuSans-2218" transform="translate(507.011719 38.965625) scale(0.7)"/>
      <use xlink:href="#DejaVuSans-Oblique-43" transform="translate(553.564453 0.684375)"/>
      <use xlink:href="#DejaVuSans-2212" transform="translate(630.589193 38.965625) scale(0.7)"/>
      <use xlink:href="#DejaVuSans-31" transform="translate(689.241536 38.965625) scale(0.7)"/>
      <use xlink:href="#DejaVuSans-29" transform="translate(736.512044 0.684375)"/>
     </g>
    </g>
    <g id="text_17">
     <!-- 1e7 -->
     <g transform="translate(57.6 38.472) scale(0.1 -0.1)">
      <use xlink:href="#DejaVuSans-31"/>
      <use xlink:href="#DejaVuSans-65" transform="translate(63.623047 0)"/>
      <use xlink:href="#DejaVuSans-37" transform="translate(125.146484 0)"/>
     </g>
    </g>
   </g>
   <g id="line2d_15">
    <path d="M 73.832727 295.488 
L 128.095355 295.379345 
L 128.302325 295.373294 
L 128.509294 295.369448 
L 133.582085 295.238578 
L 133.699774 295.231424 
L 133.902685 295.223893 
L 134.077189 295.22236 
L 134.239519 295.21534 
L 134.361266 295.212113 
L 134.507362 295.204045 
L 134.641284 295.205336 
L 134.775205 295.198316 
L 135.367707 295.177795 
L 136.901719 295.1186 
L 137.080282 295.113544 
L 137.287251 295.108434 
L 137.417115 295.101522 
L 137.660609 295.090226 
L 138.111073 295.074519 
L 138.703575 295.054563 
L 138.938952 295.040309 
L 139.145922 295.037727 
L 139.279844 295.025409 
L 139.405649 295.028744 
L 139.523337 295.013871 
L 139.718133 295.008062 
L 139.916986 294.997788 
L 139.925103 294.993996 
L 140.038733 294.999644 
L 140.359333 294.981947 
L 140.537896 294.978128 
L 140.862554 294.968231 
L 141.000534 294.957903 
L 141.42259 294.938674 
L 141.657968 294.929207 
L 141.787831 294.930632 
L 141.795948 294.921192 
L 141.958277 294.915168 
L 142.554837 294.88986 
L 142.713108 294.888515 
L 142.911962 294.883055 
L 143.033709 294.872082 
L 143.159514 294.865224 
L 143.634327 294.843358 
L 143.752016 294.828244 
L 143.646502 294.855407 
L 143.760132 294.839539 
L 143.918403 294.827571 
L 144.044209 294.82905 
L 144.052325 294.837576 
L 144.198421 294.816679 
L 144.45409 294.823725 
L 144.458148 294.812671 
L 144.567721 294.797368 
L 144.575837 294.810439 
L 144.734108 294.79398 
L 144.876146 294.793711 
L 144.884263 294.79952 
L 145.001951 294.782388 
L 145.11964 294.783007 
L 145.123698 294.779241 
L 145.959694 294.747075 
L 146.333052 294.729943 
L 146.45074 294.7162 
L 146.454799 294.722359 
L 147.647919 294.672442 
L 147.781841 294.668112 
L 147.931995 294.654288 
L 148.037509 294.661819 
L 148.049684 294.656628 
L 149.027718 294.613408 
L 149.141349 294.598562 
L 149.035835 294.630647 
L 149.145407 294.599799 
L 150.143732 294.565965 
L 150.253304 294.557628 
L 150.261421 294.561958 
L 150.273596 294.546547 
L 150.427808 294.555154 
L 150.549555 294.542567 
L 150.764642 294.537807 
L 150.902622 294.528124 
L 151.04466 294.534687 
L 151.186698 294.508276 
L 151.328736 294.520056 
L 151.458599 294.504672 
L 151.596579 294.495474 
L 151.75485 294.49577 
L 151.945587 294.493914 
L 152.071393 294.477535 
L 152.180965 294.480225 
L 152.079509 294.472775 
L 152.189081 294.473689 
L 152.736943 294.462662 
L 152.838398 294.439802 
L 152.850573 294.458736 
L 152.976378 294.444051 
L 153.090009 294.448516 
L 153.219872 294.427592 
L 153.325386 294.439479 
L 153.337561 294.431249 
L 153.459308 294.424983 
L 153.556706 294.425198 
L 153.467425 294.42111 
L 153.572939 294.41366 
L 153.589172 294.403601 
L 153.694686 294.41444 
L 153.873248 294.412315 
L 153.990937 294.403709 
L 154.611846 294.371032 
L 154.713302 294.382758 
L 154.721418 294.367347 
L 154.887806 294.370521 
L 155.029844 294.353873 
L 155.159707 294.356616 
L 155.4519 294.348763 
L 155.561473 294.352932 
L 155.464075 294.336284 
L 155.573647 294.341851 
L 155.991645 294.335665 
L 156.093101 294.315064 
L 156.101217 294.321976 
L 156.129625 294.302396 
L 156.214848 294.318775 
L 156.328478 294.301832 
L 156.222964 294.323482 
L 156.332537 294.304602 
L 156.438051 294.315064 
L 156.446167 294.296533 
L 156.551681 294.316059 
L 156.563856 294.302907 
L 156.693719 294.28825 
L 156.839816 294.289998 
L 156.856049 294.303257 
L 156.953446 294.281499 
L 157.034611 294.297744 
L 157.067077 294.286475 
L 157.180707 294.266088 
L 157.192882 294.277841 
L 157.314629 294.281123 
L 157.322745 294.272328 
L 157.444492 294.26278 
L 157.448551 294.265093 
L 157.972063 294.252238 
L 158.081635 294.24624 
L 158.203382 294.224213 
L 158.300779 294.249548 
L 158.312954 294.235617 
L 158.507749 294.224132 
L 158.511808 294.230641 
L 158.718777 294.22736 
L 158.832408 294.204768 
L 158.836466 294.212245 
L 158.954155 294.21679 
L 158.958213 294.209529 
L 159.136775 294.194736 
L 159.250406 294.205656 
L 159.376211 294.190648 
L 159.380269 294.193096 
L 159.518249 294.194172 
L 159.627822 294.185081 
L 159.526366 294.20224 
L 159.635938 294.19557 
L 161.543307 294.118032 
L 161.575773 294.133309 
L 161.660996 294.103698 
L 161.782743 294.121878 
L 161.965363 294.102003 
L 162.078994 294.118517 
L 161.977538 294.091649 
L 162.08711 294.110583 
L 162.253498 294.093504 
L 162.257556 294.097673 
L 162.5254 294.100874 
L 162.630914 294.072876 
L 162.643088 294.08748 
L 162.801359 294.090116 
L 162.805418 294.082585 
L 162.931223 294.078766 
L 162.935281 294.0828 
L 163.438502 294.063221 
L 163.519667 294.041517 
L 163.552132 294.063813 
L 163.681996 294.050607 
L 163.686054 294.054507 
L 163.783452 294.063194 
L 163.698229 294.042055 
L 163.799685 294.049478 
L 163.921432 294.029629 
L 164.031004 294.055959 
L 164.035062 294.046439 
L 164.152751 294.036353 
L 164.156809 294.03993 
L 166.250857 293.971671 
L 166.567399 293.96016 
L 166.68103 293.970407 
L 166.79466 293.95115 
L 166.879883 293.977668 
L 166.908291 293.951043 
L 167.034096 293.967637 
L 167.135552 293.946202 
L 167.151785 293.951984 
L 167.25324 293.962419 
L 167.159901 293.943647 
L 167.265415 293.947573 
L 167.387162 293.952791 
L 167.39122 293.942651 
L 167.569783 293.93582 
L 167.573841 293.943916 
L 167.586016 293.931894 
L 167.69153 293.946739 
L 167.801102 293.927079 
L 167.80516 293.928774 
L 167.939082 293.930791 
L 168.101411 293.936546 
L 168.113586 293.916295 
L 168.381429 293.926595 
L 168.503176 293.906478 
L 168.592457 293.929823 
L 168.612748 293.924121 
L 168.726379 293.905537 
L 168.852184 293.923556 
L 168.856242 293.912422 
L 169.034805 293.908092 
L 169.06727 293.918984 
L 169.148435 293.898759 
L 169.266124 293.910754 
L 169.27424 293.900696 
L 169.383813 293.892062 
L 169.286415 293.90551 
L 169.387871 293.896204 
L 169.400046 293.887141 
L 169.517734 293.899754 
L 169.627307 293.872725 
L 169.635423 293.889884 
L 169.643539 293.880578 
L 169.789636 293.894429 
L 169.911383 293.867373 
L 170.037188 293.890072 
L 170.045304 293.883725 
L 170.053421 293.886414 
L 170.162993 293.874688 
L 170.288798 293.878938 
L 170.410545 293.868879 
L 170.528234 293.876947 
L 170.532292 293.868314 
L 170.690563 293.859466 
L 170.816369 293.874608 
L 170.95029 293.845749 
L 171.055804 293.866432 
L 171.072037 293.858632 
L 171.193784 293.85293 
L 171.197843 293.864495 
L 171.457569 293.847256 
L 171.559025 293.856212 
L 171.477861 293.840182 
L 171.5712 293.846503 
L 171.688889 293.83206 
L 171.697005 293.847121 
L 171.830927 293.829962 
L 171.705122 293.85562 
L 171.839043 293.843168 
L 171.997314 293.841904 
L 172.143411 293.824772 
L 172.005431 293.851236 
L 172.147469 293.828483 
L 172.273274 293.842899 
L 172.390963 293.818532 
L 172.395021 293.823723 
L 172.610107 293.837547 
L 172.723738 293.812077 
L 172.837368 293.832517 
L 172.841427 293.822566 
L 173.616549 293.816596 
L 173.726121 293.794058 
L 173.73018 293.808877 
L 173.742354 293.79282 
L 173.86816 293.81197 
L 173.973674 293.790454 
L 173.98179 293.801938 
L 173.989907 293.787495 
L 174.144119 293.797957 
L 174.237459 293.784887 
L 174.156294 293.80971 
L 174.25775 293.798549 
L 174.387613 293.784967 
L 174.505302 293.7975 
L 174.614874 293.785451 
L 174.618933 293.788894 
L 174.74068 293.802691 
L 174.748796 293.792417 
L 174.866485 293.780045 
L 174.971999 293.795026 
L 174.878659 293.773456 
L 174.976057 293.774828 
L 175.122153 293.780234 
L 175.239842 293.765818 
L 175.134328 293.785909 
L 175.2439 293.776253 
L 175.40623 293.779857 
L 175.523918 293.769583 
L 175.54421 293.759901 
L 175.641607 293.777168 
L 175.755238 293.754603 
L 175.876985 293.768427 
L 175.986557 293.757884 
L 175.998732 293.76883 
L 176.136712 293.764823 
L 176.006848 293.758261 
L 176.14077 293.754818 
L 176.246284 293.75385 
L 176.2544 293.763855 
L 176.351798 293.767997 
L 176.270633 293.749843 
L 176.363973 293.754684 
L 176.469487 293.749843 
L 176.376147 293.765092 
L 176.481661 293.767755 
L 176.652107 293.750865 
L 176.66834 293.742877 
L 176.773854 293.760708 
L 177.139095 293.750649 
L 177.159386 293.733437 
L 177.256784 293.750434 
L 177.484045 293.735615 
L 177.597675 293.754307 
L 177.711306 293.733087 
L 177.841169 293.746373 
L 177.926392 293.724212 
L 177.877693 293.752774 
L 177.9548 293.729671 
L 178.072488 293.740214 
L 178.218585 293.727601 
L 178.376856 293.707779 
L 178.384972 293.723378 
L 178.494545 293.741962 
L 178.393089 293.720904 
L 178.498603 293.733652 
L 179.139804 293.718026 
L 179.241259 293.729752 
L 179.253434 293.725745 
L 179.367065 293.706354 
L 179.375181 293.709877 
L 179.472579 293.730989 
L 179.488812 293.710899 
L 179.736364 293.715659 
L 179.870285 293.722249 
L 179.74448 293.707241 
L 179.878402 293.711571 
L 180.22741 293.698097 
L 180.336982 293.714718 
L 180.41003 293.694251 
L 180.349157 293.720958 
L 180.450613 293.70474 
L 180.539894 293.719559 
L 180.462787 293.696322 
L 180.564243 293.703449 
L 180.694107 293.712271 
L 180.803679 293.676823 
L 180.815854 293.7063 
L 181.976508 293.694332 
L 182.094197 293.689787 
L 182.29305 293.691642 
L 182.479729 293.695434 
L 182.483787 293.687151 
L 182.491904 293.696456 
L 182.609592 293.681772 
L 182.739456 293.685967 
L 182.743514 293.680454 
L 182.853086 293.663268 
L 182.751631 293.697317 
L 182.869319 293.686344 
L 183.206153 293.68586 
L 183.319783 293.670799 
L 183.218327 293.695999 
L 183.3279 293.686236 
L 183.960984 293.680185 
L 183.973159 293.668567 
L 184.103022 293.681288 
L 184.257235 293.663295 
L 184.395215 293.703126 
L 184.411448 293.681395 
L 184.525078 293.662166 
L 184.423622 293.695488 
L 184.529136 293.669104 
L 184.654942 293.679351 
L 184.659 293.671821 
L 184.715815 293.690943 
L 184.77263 293.666522 
L 184.898436 293.673892 
L 184.906552 293.679701 
L 185.016124 293.668916 
L 185.040474 293.654312 
L 185.133813 293.678867 
L 188.307351 293.660633 
L 188.323584 293.673972 
L 188.420981 293.656222 
L 188.56302 293.665931 
L 188.567078 293.662031 
L 188.717232 293.652134 
L 188.721291 293.657997 
L 188.867387 293.665635 
L 188.976959 293.650843 
L 188.88362 293.676716 
L 188.985076 293.661681 
L 189.293501 293.660229 
L 189.492355 293.666845 
L 189.630335 293.658427 
L 189.634393 293.667787 
L 189.821072 293.653694 
L 189.918469 293.674914 
L 189.942819 293.661224 
L 190.275594 293.639601 
L 190.368933 293.681557 
L 190.389224 293.666415 
L 190.600252 293.661305 
L 190.608369 293.647508 
L 190.74229 293.666953 
L 190.864037 293.649148 
L 190.868096 293.655334 
L 190.985784 293.665312 
L 191.095357 293.642909 
L 191.103473 293.65485 
L 191.213045 293.664613 
L 191.221162 293.654635 
L 207.709761 293.782305 
L 207.799042 293.77542 
L 207.717877 293.786473 
L 207.819333 293.783246 
L 208.01007 293.772273 
L 208.075002 293.794972 
L 208.1237 293.77983 
L 208.241389 293.796613 
L 208.253564 293.788383 
L 208.460534 293.773967 
L 208.541698 293.8014 
L 208.574164 293.782923 
L 208.683737 293.802664 
L 208.687795 293.791422 
L 208.866357 293.790857 
L 208.870415 293.798092 
L 208.878532 293.790131 
L 208.992162 293.801508 
L 209.08956 293.788383 
L 209.105793 293.799464 
L 209.113909 293.788706 
L 209.251889 293.80729 
L 209.393927 293.797446 
L 209.397985 293.805569 
L 209.880915 293.8124 
L 209.978313 293.798388 
L 209.905265 293.819204 
L 209.994546 293.807693 
L 210.112234 293.821813 
L 210.120351 293.816246 
L 210.140642 293.825175 
L 210.23804 293.805596 
L 210.493708 293.822055 
L 210.619513 293.814498 
L 210.623572 293.818021 
L 210.960405 293.818129 
L 211.08621 293.817295 
L 210.968521 293.836014 
L 211.090268 293.822566 
L 211.260714 293.83128 
L 211.394636 293.818263 
L 211.508266 293.838515 
L 211.617839 293.821168 
L 211.621897 293.830742 
L 211.634072 293.847578 
L 211.75176 293.819823 
L 211.861333 293.83951 
L 211.865391 293.833862 
L 212.307738 293.839833 
L 212.413252 293.853925 
L 212.421369 293.84774 
L 212.526883 293.833781 
L 212.437602 293.854275 
L 212.534999 293.8383 
L 212.656746 293.856454 
L 212.758202 293.835018 
L 212.774435 293.850779 
L 212.782551 293.840639 
L 212.928648 293.853495 
L 213.03822 293.843302 
L 212.952997 293.864307 
L 213.042278 293.856642 
L 213.054453 293.867212 
L 213.172142 293.847256 
L 213.28983 293.858632 
L 213.431869 293.852366 
L 213.537383 293.872106 
L 213.545499 293.85917 
L 223.902109 294.026805 
L 223.979215 294.040522 
L 223.910225 294.016209 
L 224.015739 294.031512 
L 224.12937 294.01395 
L 224.149661 294.028688 
L 224.259233 294.035519 
L 224.26735 294.029737 
L 224.38098 294.024761 
L 224.389097 294.038182 
L 224.490552 294.041436 
L 224.401271 294.026886 
L 224.502727 294.033099 
L 224.628532 294.033475 
L 224.798978 294.056094 
L 224.803036 294.048106 
L 224.924783 294.034605 
L 224.928841 294.047138 
L 225.123637 294.048859 
L 225.135811 294.038666 
L 225.257558 294.055394 
L 225.371189 294.042404 
L 225.375247 294.044368 
L 225.833827 294.059187 
L 225.951516 294.055798 
L 225.841944 294.065372 
L 225.955574 294.065749 
L 226.150369 294.052248 
L 226.251825 294.076776 
L 226.272116 294.06583 
L 227.2745 294.087265 
L 227.428713 294.085382 
L 227.522052 294.068116 
L 227.55046 294.079761 
L 227.631624 294.099878 
L 227.66409 294.080541 
L 230.314116 294.136509 
L 230.415572 294.131238 
L 230.326291 294.151274 
L 230.423688 294.138661 
L 230.561668 294.142238 
L 230.817337 294.146783 
L 230.939084 294.156116 
L 230.825453 294.139575 
L 230.943142 294.151436 
L 231.056773 294.148666 
L 231.060831 294.151624 
L 231.267801 294.159585 
L 231.389548 294.149688 
L 231.393606 294.155228 
L 231.426072 294.139118 
L 231.511295 294.162059 
L 231.657391 294.155309 
L 231.791313 294.170289 
L 231.795371 294.160822 
L 231.811604 294.170773 
L 231.91306 294.158671 
L 232.02669 294.166201 
L 232.030748 294.159854 
L 232.193078 294.168944 
L 232.343232 294.16569 
L 232.456863 294.17981 
L 232.460921 294.175803 
L 234.412931 294.217785 
L 234.510328 294.198932 
L 234.522503 294.207915 
L 234.648308 294.220125 
L 234.652367 294.209287 
L 234.830929 294.214558 
L 234.944559 294.200035 
L 234.956734 294.222734 
L 235.411256 294.230049 
L 235.528945 294.227225 
L 245.548721 294.395399 
L 245.646119 294.393381 
L 245.556837 294.398922 
L 245.662352 294.401235 
L 245.930195 294.39322 
L 246.051942 294.412773 
L 246.068175 294.419954 
L 246.169631 294.399729 
L 246.291378 294.415408 
L 246.40095 294.399487 
L 246.409066 294.408093 
L 246.770249 294.42033 
L 246.887938 294.412504 
L 246.778365 294.424418 
L 246.891996 294.422428 
L 246.900112 294.417103 
L 247.017801 294.424284 
L 247.220713 294.426704 
L 248.754725 294.446203 
L 248.864297 294.457821 
L 248.872413 294.447359 
L 249.006335 294.466186 
L 249.124024 294.446337 
L 249.221421 294.468122 
L 249.241713 294.455428 
L 249.367518 294.45532 
L 249.509556 294.463658 
L 249.667827 294.4639 
L 249.817982 294.467019 
L 249.82204 294.462071 
L 250.000602 294.460807 
L 250.102058 294.476567 
L 250.118291 294.470301 
L 250.256271 294.459516 
L 250.260329 294.46468 
L 250.378018 294.47689 
L 250.48759 294.467046 
L 250.491648 294.479445 
L 250.641803 294.481059 
L 250.76355 294.475007 
L 250.881239 294.487406 
L 250.889355 294.483237 
L 251.185606 294.491225 
L 251.445333 294.492112 
L 263.624089 294.677955 
L 263.725545 294.681021 
L 263.741777 294.66943 
L 263.928456 294.688928 
L 264.05832 294.678493 
L 264.204416 294.683523 
L 264.476318 294.68554 
L 264.484434 294.677525 
L 264.618356 294.696378 
L 264.740103 294.686562 
L 265.024179 294.693097 
L 265.332605 294.696567 
L 265.446235 294.697965 
L 265.450293 294.704554 
L 265.567982 294.695975 
L 265.576099 294.702591 
L 265.807418 294.708831 
L 265.945398 294.702887 
L 266.440502 294.704635 
L 266.550074 294.718728 
L 266.448619 294.700332 
L 266.554133 294.708212 
L 266.683996 294.718486 
L 266.850384 294.717437 
L 266.980247 294.732175 
L 267.097936 294.714828 
L 267.223741 294.725667 
L 267.227799 294.722466 
L 267.499701 294.732606 
L 267.605215 294.725586 
L 267.609273 294.732471 
L 267.73102 294.740647 
L 267.735078 294.72728 
L 268.12061 294.733735 
L 268.230183 294.741158 
L 268.128727 294.724645 
L 268.238299 294.737743 
L 268.246416 294.749227 
L 268.376279 294.731584 
L 268.830801 294.743364 
L 268.964723 294.745865 
L 268.838918 294.752373 
L 268.968781 294.754229 
L 269.183867 294.739625 
L 269.309673 294.753664 
L 269.593749 294.755816 
L 269.727671 294.765175 
L 269.845359 294.754121 
L 269.979281 294.754175 
L 273.936058 294.808987 
L 274.053746 294.8042 
L 274.175493 294.812053 
L 274.317532 294.810816 
L 274.487977 294.816706 
L 274.601608 294.810547 
L 274.500152 294.822488 
L 274.605666 294.81641 
L 275.190052 294.81918 
L 275.352381 294.824882 
L 275.555292 294.83139 
L 275.681098 294.825554 
L 276.618549 294.842283 
L 276.756529 294.833488 
L 276.760588 294.843843 
L 276.951324 294.841234 
L 276.959441 294.833918 
L 277.073071 294.85019 
L 277.251634 294.847715 
L 277.381497 294.850566 
L 277.385555 294.841879 
L 277.600642 294.849975 
L 277.730505 294.850459 
L 277.888776 294.855004 
L 278.006465 294.847662 
L 278.010523 294.857021 
L 278.302716 294.861701 
L 278.481278 294.864901 
L 278.870868 294.861082 
L 278.984499 294.875309 
L 278.988557 294.870442 
L 279.14277 294.864847 
L 280.088338 294.88085 
L 280.311541 294.880554 
L 280.42923 294.88085 
L 280.843169 294.891608 
L 280.968975 294.883082 
L 281.115071 294.896718 
L 281.248993 294.890532 
L 281.399147 294.896045 
L 281.752214 294.904275 
L 285.43303 294.936065 
L 285.550719 294.93741 
L 286.017416 294.945962 
L 286.151338 294.944026 
L 286.30555 294.949243 
L 286.480054 294.946742 
L 286.938635 294.955537 
L 287.072556 294.951637 
L 287.38504 294.957554 
L 287.709699 294.958092 
L 287.851737 294.957823 
L 287.855795 294.96218 
L 288.314376 294.964224 
L 288.48888 294.965864 
L 288.647151 294.972642 
L 289.803747 294.975627 
L 289.917377 294.990554 
L 289.925494 294.98149 
L 290.051299 294.978021 
L 290.055357 294.981544 
L 290.363783 294.979312 
L 290.477414 294.993028 
L 290.489588 294.985955 
L 290.615393 294.981759 
L 290.619452 294.988295 
L 291.163255 294.991307 
L 291.313409 295.002683 
L 291.422982 294.989774 
L 291.431098 294.992517 
L 291.763873 295.005911 
L 291.877504 294.998488 
L 292.234628 295.005077 
L 292.364492 294.996901 
L 292.486239 295.002118 
L 292.721616 295.001527 
L 292.847421 295.012285 
L 292.85148 295.00548 
L 294.012134 295.017744 
L 294.125765 295.016695 
L 294.243453 295.025436 
L 294.369259 295.020219 
L 294.661451 295.02229 
L 294.982052 295.021886 
L 295.12409 295.035414 
L 295.128148 295.032321 
L 295.310768 295.023903 
L 295.440632 295.032671 
L 295.598903 295.025006 
L 295.744999 295.036087 
L 296.13459 295.034876 
L 296.390258 295.033881 
L 296.512005 295.042326 
L 296.516064 295.034069 
L 296.812315 295.044047 
L 297.011168 295.043187 
L 297.14509 295.049023 
L 297.315535 295.045984 
L 297.660485 295.048781 
L 297.867455 295.047544 
L 297.989202 295.058759 
L 298.106891 295.054429 
L 298.289511 295.055908 
L 298.427491 295.055263 
L 299.559738 295.058867 
L 299.709893 295.050233 
L 299.815407 295.073524 
L 299.823523 295.062847 
L 300.249637 295.071668 
L 300.407909 295.074035 
L 300.67981 295.07503 
L 300.805615 295.066827 
L 300.935479 295.082507 
L 301.065342 295.075084 
L 301.0694 295.079441 
L 301.256079 295.07495 
L 301.381884 295.080624 
L 301.390001 295.086326 
L 301.511748 295.078446 
L 302.258463 295.082884 
L 302.461374 295.085869 
L 302.56283 295.096707 
L 302.583121 295.084255 
L 304.539189 295.100876 
L 304.69746 295.104884 
L 304.831382 295.100553 
L 305.099225 295.106148 
L 305.326486 295.105852 
L 305.448233 295.11115 
L 305.618679 295.108434 
L 305.849998 295.116932 
L 305.959571 295.111984 
L 305.967687 295.11661 
L 306.276113 295.115238 
L 306.422209 295.118492 
L 306.880789 295.118976 
L 307.035002 295.120644 
L 307.172982 295.117282 
L 307.17704 295.122876 
L 307.79795 295.127018 
L 308.057677 295.126695 
L 308.195657 295.129815 
L 309.068177 295.13428 
L 309.202098 295.142725 
L 309.319787 295.133553 
L 309.510524 295.138583 
L 309.685028 295.135382 
L 309.806775 295.1406 
L 310.143608 295.138986 
L 310.285647 295.143074 
L 310.447976 295.141998 
L 310.675237 295.154881 
L 310.788867 295.144204 
L 310.792926 295.148238 
L 311.239331 295.148937 
L 311.401661 295.15679 
L 311.547757 295.147297 
L 311.888648 295.155392 
L 312.675946 295.158566 
L 313.000604 295.157866 
L 313.17105 295.16182 
L 313.483534 295.16104 
L 313.641805 295.166015 
L 313.771668 295.162223 
L 313.933998 295.166553 
L 314.076036 295.16424 
L 314.209957 295.170345 
L 314.214016 295.164267 
L 315.106827 295.170964 
L 315.670921 295.173573 
L 315.800785 295.177661 
L 315.97123 295.178468 
L 316.170084 295.174649 
L 316.279656 295.186294 
L 316.291831 295.175375 
L 316.506917 295.184492 
L 316.653013 295.179705 
L 316.839692 295.180323 
L 317.002021 295.182125 
L 317.127827 295.187988 
L 317.269865 295.185541 
L 317.971939 295.187209 
L 318.109919 295.189898 
L 318.430519 295.185891 
L 318.560383 295.193852 
L 319.039254 295.1956 
L 319.221875 295.197348 
L 319.39232 295.197079 
L 342.942244 295.303125 
L 343.072107 295.303636 
L 343.425174 295.306702 
L 344.991651 295.311005 
L 345.186446 295.31122 
L 345.401533 295.314555 
L 345.559804 295.314098 
L 346.525663 295.316573 
L 346.976127 295.319289 
L 347.114107 295.317003 
L 347.304844 295.319827 
L 347.479348 295.320876 
L 347.909521 295.317595 
L 348.887555 295.322947 
L 349.309611 295.323807 
L 349.601803 295.324775 
L 356.249188 295.34535 
L 356.411518 295.34578 
L 357.64522 295.348524 
L 357.80755 295.35237 
L 357.965821 295.350944 
L 358.501507 295.350594 
L 358.708477 295.350863 
L 358.899214 295.349519 
L 359.20764 295.351321 
L 359.34562 295.35557 
L 359.487658 295.35245 
L 359.645929 295.355893 
L 359.913772 295.354171 
L 360.33177 295.358044 
L 360.46975 295.355382 
L 360.851224 295.35678 
L 360.99732 295.360519 
L 361.001379 295.356269 
L 361.354445 295.364391 
L 361.476192 295.359362 
L 398.487273 295.423587 
L 398.487273 295.423587 
" clip-path="url(#p4922345eeb)" style="fill: none; stroke-dasharray: 1.85,0.8; stroke-dashoffset: 0; stroke: #8000ff; stroke-width: 0.5"/>
   </g>
   <g id="line2d_16">
    <path d="M 73.832727 295.488 
L 127.407424 295.379883 
L 128.787378 295.341612 
L 133.33311 295.143908 
L 133.698392 295.109644 
L 134.226022 295.074519 
L 135.362455 294.983561 
L 143.439246 293.778997 
L 143.804528 293.703691 
L 145.225069 293.388296 
L 145.509178 293.297042 
L 145.955634 293.179511 
L 150.420192 291.964996 
L 154.519468 290.700859 
L 154.681815 290.661943 
L 155.250032 290.489977 
L 155.493553 290.412574 
L 156.021183 290.225655 
L 156.224117 290.16342 
L 156.589399 290.047531 
L 156.751747 289.995167 
L 158.862265 289.315696 
L 159.146373 289.226728 
L 159.389895 289.131413 
L 160.729262 288.705104 
L 161.01337 288.61159 
L 161.338065 288.507938 
L 161.946869 288.303806 
L 162.230977 288.217205 
L 163.083302 287.946912 
L 163.651518 287.755018 
L 163.854453 287.721829 
L 164.747364 287.411248 
L 165.599689 287.159567 
L 165.802624 287.108547 
L 165.964971 287.016836 
L 166.573774 286.854553 
L 166.776709 286.783389 
L 167.304338 286.630089 
L 168.278424 286.335268 
L 168.684293 286.215989 
L 168.968401 286.120862 
L 169.293096 286.045207 
L 169.37427 285.991687 
L 169.414857 286.020383 
L 169.983073 285.820932 
L 170.226595 285.776017 
L 170.388942 285.732098 
L 171.606549 285.381632 
L 171.809483 285.318402 
L 172.3777 285.149261 
L 172.702395 285.055963 
L 173.189438 284.902931 
L 173.311198 284.90952 
L 174.772327 284.492812 
L 174.894087 284.476057 
L 175.015848 284.448544 
L 175.137609 284.405781 
L 175.38113 284.327436 
L 175.665238 284.244009 
L 175.746412 284.278945 
L 175.786999 284.237473 
L 181.185055 282.987241 
L 181.347403 282.953085 
L 181.550337 282.887515 
L 182.199728 282.785369 
L 182.443249 282.696213 
L 182.727357 282.648421 
L 183.376748 282.496626 
L 183.620269 282.495819 
L 183.782616 282.472098 
L 184.350833 282.348624 
L 187.354263 281.802418 
L 187.638371 281.756347 
L 187.881893 281.759198 
L 188.04424 281.68599 
L 188.206588 281.684538 
L 188.328348 281.683865 
L 188.450109 281.626391 
L 188.612457 281.64831 
L 188.937152 281.587474 
L 189.099499 281.50636 
L 189.261847 281.550494 
L 189.464781 281.506763 
L 190.154758 281.389636 
L 190.317106 281.360966 
L 190.479454 281.354189 
L 190.763562 281.2596 
L 190.885322 281.29104 
L 191.088257 281.266054 
L 191.69706 281.177947 
L 191.899995 281.209522 
L 192.062342 281.119854 
L 192.184103 281.113695 
L 192.346451 281.093067 
L 192.87408 281.054554 
L 192.995841 281.006789 
L 193.239362 281.017385 
L 193.807579 280.924087 
L 194.335208 280.835549 
L 194.538143 280.87487 
L 194.741077 280.811102 
L 194.862838 280.795611 
L 195.065772 280.798246 
L 195.268707 280.777403 
L 195.471641 280.7181 
L 195.593402 280.757823 
L 196.202205 280.689511 
L 196.364553 280.695132 
L 196.5269 280.654951 
L 196.689248 280.634 
L 198.840353 280.457543 
L 199.367983 280.416044 
L 199.489743 280.418411 
L 199.733265 280.350528 
L 199.855026 280.391597 
L 200.05796 280.381457 
L 200.301481 280.369167 
L 200.626176 280.328609 
L 200.788524 280.338399 
L 202.371413 280.256477 
L 202.53376 280.267908 
L 202.980216 280.237194 
L 205.009561 280.117162 
L 205.050148 280.196502 
L 205.131321 280.128162 
L 205.293669 280.185825 
L 205.53719 280.088412 
L 205.699538 280.164954 
L 205.861885 280.104952 
L 205.902472 280.192521 
L 205.983646 280.150135 
L 207.201253 280.133622 
L 207.24184 280.168854 
L 207.282427 280.096803 
L 207.607122 280.061275 
L 207.728882 280.105221 
L 208.297099 280.098094 
L 208.581207 280.132707 
L 208.824729 280.076739 
L 209.595879 280.087336 
L 209.798814 280.065739 
L 210.001748 280.121734 
L 210.772899 280.118641 
L 210.89466 280.061624 
L 211.219355 280.100514 
L 211.909332 280.110277 
L 213.126939 280.114204 
L 213.289287 280.11025 
L 214.101024 280.133003 
L 214.303959 280.167294 
L 214.466306 280.161243 
L 214.750415 280.163099 
L 226.764135 280.814329 
L 227.048243 280.840041 
L 227.372938 280.841816 
L 227.575872 280.886192 
L 227.73822 280.875112 
L 228.022328 280.984896 
L 228.184676 280.890119 
L 228.38761 280.925055 
L 229.361696 281.04393 
L 229.402283 280.976586 
L 229.483456 281.043123 
L 229.767565 281.04627 
L 229.970499 281.090189 
L 230.21402 281.094977 
L 230.376368 281.111732 
L 231.431627 281.221059 
L 231.553388 281.195751 
L 231.796909 281.256991 
L 232.365126 281.292976 
L 232.486886 281.320947 
L 233.176863 281.355964 
L 233.420385 281.374548 
L 233.542145 281.404213 
L 233.785667 281.422905 
L 234.029188 281.455717 
L 234.191536 281.45257 
L 234.516231 281.534034 
L 234.597405 281.499797 
L 234.637992 281.535917 
L 236.261467 281.642797 
L 236.423815 281.678459 
L 237.032618 281.745723 
L 237.235553 281.792063 
L 237.438487 281.791498 
L 237.966117 281.833508 
L 238.209638 281.900261 
L 238.331399 281.869977 
L 238.453159 281.912337 
L 238.818441 281.926698 
L 239.22431 281.981322 
L 239.549005 282.032745 
L 239.75194 282.066067 
L 239.995461 282.069133 
L 240.238983 282.104204 
L 240.726025 282.159742 
L 240.92896 282.153341 
L 241.091307 282.193468 
L 241.375416 282.200514 
L 241.781284 282.267106 
L 241.862458 282.262695 
L 241.984219 282.277918 
L 242.349501 282.320304 
L 242.917717 282.408842 
L 243.080065 282.397358 
L 243.93239 282.506228 
L 244.175911 282.545118 
L 244.378846 282.556064 
L 244.58178 282.585729 
L 244.947062 282.61101 
L 245.068823 282.619509 
L 245.312344 282.659716 
L 245.434105 282.701726 
L 245.474692 282.633306 
L 245.515279 282.720821 
L 245.718213 282.700247 
L 247.016993 282.889506 
L 247.179341 282.884611 
L 247.625797 282.931004 
L 247.869318 282.975058 
L 248.194013 283.000366 
L 248.478122 283.006632 
L 248.640469 283.057544 
L 248.965164 283.095305 
L 249.086925 283.140918 
L 249.168099 283.092373 
L 249.208686 283.183277 
L 249.289859 283.139977 
L 250.223358 283.250272 
L 250.466879 283.299732 
L 251.11627 283.341365 
L 251.278617 283.363742 
L 252.41505 283.529467 
L 252.577398 283.514084 
L 252.780332 283.582154 
L 252.902093 283.591003 
L 254.160286 283.747396 
L 254.282047 283.727763 
L 254.687916 283.799061 
L 254.809677 283.816623 
L 255.256132 283.846208 
L 255.377893 283.882085 
L 255.743175 283.911212 
L 255.864936 283.964706 
L 256.027283 283.952254 
L 256.270805 283.990444 
L 257.082543 284.06142 
L 257.163716 284.112574 
L 257.204303 284.075943 
L 257.528998 284.143261 
L 257.89428 284.179622 
L 258.056628 284.207163 
L 258.381323 284.247774 
L 258.827779 284.270608 
L 259.233648 284.353309 
L 259.395995 284.344837 
L 259.558343 284.36681 
L 260.573015 284.52245 
L 260.816537 284.510133 
L 261.141232 284.599477 
L 261.344166 284.583744 
L 261.465927 284.646651 
L 261.871796 284.636942 
L 261.993556 284.721606 
L 262.155904 284.702646 
L 262.358838 284.747345 
L 262.724121 284.751083 
L 263.860553 284.933188 
L 264.022901 284.911833 
L 264.225836 284.96842 
L 264.388183 284.966887 
L 264.996986 285.04429 
L 265.199921 285.044048 
L 265.402855 285.134899 
L 265.565203 285.102921 
L 265.808724 285.158055 
L 270.922673 285.785726 
L 271.044433 285.775695 
L 271.409715 285.848902 
L 271.572063 285.832362 
L 271.774997 285.877034 
L 271.977932 285.840296 
L 272.140279 285.916247 
L 273.073778 286.030738 
L 273.195539 286.031034 
L 273.317299 286.05852 
L 273.560821 286.086841 
L 273.763755 286.134337 
L 273.885516 286.111369 
L 274.819014 286.219351 
L 275.021949 286.238635 
L 275.874273 286.358855 
L 276.077208 286.368187 
L 277.09188 286.496583 
L 277.213641 286.497712 
L 280.501179 286.865606 
L 280.663527 286.871927 
L 280.825874 286.923592 
L 281.028809 286.91243 
L 281.231743 286.964337 
L 282.895806 287.158894 
L 283.058153 287.136034 
L 283.342261 287.185386 
L 284.92515 287.358561 
L 285.209258 287.392099 
L 285.777475 287.45783 
L 286.223931 287.512588 
L 286.426865 287.493062 
L 286.589213 287.550725 
L 286.710973 287.539805 
L 286.913908 287.587409 
L 287.076255 287.604837 
L 288.415623 287.728741 
L 288.57797 287.735223 
L 288.740318 287.783849 
L 289.065013 287.797592 
L 290.850836 287.977868 
L 291.175531 288.013423 
L 291.662574 288.075711 
L 292.352551 288.148784 
L 292.514899 288.148354 
L 293.367224 288.267068 
L 293.488984 288.240388 
L 302.702209 289.138083 
L 302.864556 289.130821 
L 303.067491 289.162638 
L 304.650379 289.319139 
L 304.893901 289.316369 
L 305.137422 289.349288 
L 306.070921 289.433227 
L 306.233268 289.469642 
L 306.395616 289.441833 
L 306.557963 289.487097 
L 306.842072 289.48828 
L 307.329114 289.552478 
L 307.532049 289.544732 
L 308.059678 289.613771 
L 308.42496 289.6376 
L 308.790242 289.660703 
L 309.236698 289.711642 
L 309.764328 289.751715 
L 309.926675 289.76059 
L 310.12961 289.78259 
L 310.413718 289.799211 
L 311.144282 289.850365 
L 311.347217 289.877529 
L 314.878276 290.143949 
L 315.040624 290.191821 
L 316.461165 290.270677 
L 316.623512 290.304753 
L 316.867034 290.313547 
L 317.31349 290.361501 
L 317.557011 290.383635 
L 322.102743 290.696368 
L 322.549199 290.717131 
L 322.833307 290.764815 
L 322.995654 290.764143 
L 323.523284 290.801338 
L 323.685632 290.816588 
L 323.888566 290.830062 
L 324.091501 290.842299 
L 324.862651 290.89157 
L 325.430868 290.933984 
L 325.755563 290.94891 
L 355.95221 292.634058 
L 356.195732 292.636694 
L 359.117988 292.758715 
L 359.605031 292.771114 
L 359.889139 292.785529 
L 360.497942 292.819713 
L 361.106746 292.834774 
L 361.512615 292.857285 
L 362.567874 292.893889 
L 363.054916 292.938561 
L 363.66372 292.952062 
L 366.261281 293.054074 
L 366.504802 293.051385 
L 367.803583 293.105578 
L 368.209452 293.122252 
L 370.766426 293.211489 
L 371.009947 293.203932 
L 371.334642 293.233758 
L 372.389901 293.250272 
L 372.633423 293.280367 
L 372.998705 293.274827 
L 373.3234 293.296827 
L 374.459833 293.32079 
L 374.784528 293.355377 
L 374.946876 293.343328 
L 398.487273 294.001874 
L 398.487273 294.001874 
" clip-path="url(#p4922345eeb)" style="fill: none; stroke-dasharray: 1.85,0.8; stroke-dashoffset: 0; stroke: #00b5eb; stroke-width: 0.5"/>
   </g>
   <g id="line2d_17">
    <path d="M 73.832727 295.488 
L 127.434228 295.377032 
L 135.555668 294.919605 
L 137.382992 294.70875 
L 140.834603 294.054507 
L 145.504431 292.451012 
L 148.143899 291.040084 
L 150.580331 289.368034 
L 152.407655 287.859154 
L 153.422835 286.976144 
L 154.844087 285.565539 
L 155.453195 284.984853 
L 157.077483 283.225744 
L 162.153382 277.252516 
L 164.995886 273.639065 
L 165.198922 273.464383 
L 165.80803 272.618649 
L 167.432318 270.458835 
L 168.650534 268.929623 
L 169.665714 267.566783 
L 172.508218 263.891312 
L 173.117326 263.118167 
L 177.787153 257.179095 
L 181.238765 252.987056 
L 188.954133 244.672715 
L 189.157169 244.561344 
L 189.563241 244.129763 
L 190.781457 242.952631 
L 190.984493 242.845563 
L 191.796637 241.981944 
L 191.999673 241.913228 
L 192.405744 241.451874 
L 192.811816 241.168645 
L 193.420924 240.622761 
L 195.248248 239.003479 
L 195.65432 238.784367 
L 196.466464 238.150671 
L 197.075572 237.641418 
L 198.090752 236.917222 
L 198.293788 236.908669 
L 198.69986 236.475286 
L 200.324148 235.394088 
L 201.339328 234.719943 
L 201.542364 234.665508 
L 202.354508 234.114891 
L 204.384868 232.96651 
L 204.587904 232.781151 
L 204.79094 232.772732 
L 205.197012 232.511853 
L 205.603084 232.357315 
L 207.024336 231.654231 
L 207.227372 231.694116 
L 207.83648 231.323398 
L 208.039516 231.110445 
L 209.054696 230.877671 
L 209.663804 230.548263 
L 210.069875 230.433718 
L 210.475947 230.228941 
L 211.491127 229.934981 
L 211.897199 229.774446 
L 212.709343 229.531478 
L 213.115415 229.456011 
L 213.521487 229.32264 
L 214.739703 229.004421 
L 215.145775 228.903431 
L 216.160955 228.634967 
L 216.567027 228.625715 
L 216.770063 228.491564 
L 217.176135 228.466713 
L 217.785243 228.317716 
L 218.191315 228.330787 
L 218.394351 228.201584 
L 219.206495 228.143168 
L 219.409531 228.07031 
L 219.612567 228.152205 
L 220.018639 227.998716 
L 220.221675 228.061328 
L 221.033819 227.88748 
L 221.845963 227.91779 
L 222.455071 227.780788 
L 222.861143 227.81013 
L 223.064179 227.69615 
L 224.485431 227.752468 
L 224.891503 227.716698 
L 225.297575 227.67017 
L 225.500611 227.767717 
L 225.906683 227.634722 
L 226.718827 227.733157 
L 229.358294 227.832157 
L 229.764366 227.961682 
L 230.779546 227.95356 
L 231.185618 228.004526 
L 231.997762 228.187276 
L 232.403834 228.182005 
L 233.012942 228.393936 
L 233.215978 228.244562 
L 234.63723 228.572867 
L 234.840266 228.470182 
L 235.246338 228.656913 
L 237.68277 229.102399 
L 239.104022 229.50574 
L 239.307058 229.401549 
L 239.510094 229.559664 
L 239.916166 229.606918 
L 240.119202 229.738192 
L 240.525274 229.727676 
L 241.134382 229.968089 
L 242.352598 230.259198 
L 242.555634 230.396012 
L 242.75867 230.348623 
L 243.164742 230.566605 
L 243.367778 230.544498 
L 243.976886 230.720578 
L 246.007245 231.407014 
L 246.210281 231.394589 
L 246.413317 231.545576 
L 246.819389 231.621474 
L 247.022425 231.645733 
L 247.225461 231.840155 
L 247.834569 231.912744 
L 248.037605 232.044421 
L 248.443677 232.106844 
L 249.458857 232.55198 
L 249.864929 232.634251 
L 250.677073 233.024333 
L 250.880109 233.014382 
L 251.489217 233.280103 
L 252.098325 233.497547 
L 253.316541 233.99693 
L 253.519577 233.959977 
L 254.331721 234.360494 
L 254.737793 234.411003 
L 255.346901 234.809664 
L 255.549937 234.792398 
L 255.956009 235.041901 
L 256.159045 235.051986 
L 256.362081 235.21669 
L 256.565117 235.19235 
L 256.971189 235.448254 
L 257.783333 235.730515 
L 258.595477 236.135739 
L 259.001549 236.225622 
L 259.610657 236.515333 
L 260.625837 237.029938 
L 260.828873 236.957618 
L 261.234945 237.257495 
L 261.641017 237.321612 
L 262.047089 237.576145 
L 263.265304 238.095026 
L 263.874412 238.297194 
L 264.077448 238.489358 
L 264.48352 238.626198 
L 265.904772 239.300908 
L 266.310844 239.486617 
L 268.747276 240.601622 
L 269.356384 240.871834 
L 269.965492 241.150249 
L 270.168528 241.183518 
L 270.5746 241.440928 
L 271.792816 242.015885 
L 271.995852 242.182552 
L 272.198888 242.172359 
L 274.229248 243.097594 
L 277.274788 244.569923 
L 277.477824 244.711202 
L 277.68086 244.660559 
L 278.086932 244.945509 
L 278.289968 244.948037 
L 278.69604 245.216205 
L 280.523363 246.101528 
L 282.147651 246.858187 
L 283.365867 247.448635 
L 284.178011 247.846705 
L 284.584083 247.990646 
L 285.193191 248.29601 
L 285.599263 248.456518 
L 286.208371 248.816129 
L 286.411407 248.853055 
L 286.614443 249.050113 
L 287.020515 249.17504 
L 288.238731 249.679264 
L 289.050875 250.114179 
L 290.066055 250.586452 
L 290.878199 251.005715 
L 291.081235 251.019808 
L 291.690343 251.357903 
L 292.096415 251.426323 
L 292.502487 251.747635 
L 293.923739 252.323265 
L 294.735883 252.786582 
L 309.55751 259.216457 
L 310.978762 259.827857 
L 311.58787 260.126201 
L 311.790906 260.124157 
L 312.400014 260.374117 
L 314.430374 261.272887 
L 314.63341 261.264335 
L 314.836446 261.466584 
L 315.242517 261.553078 
L 316.460733 262.016825 
L 317.272877 262.359572 
L 326.409497 265.823219 
L 327.830749 266.305766 
L 328.642893 266.619225 
L 329.455037 266.904122 
L 334.3279 268.565091 
L 334.733972 268.662531 
L 338.591656 269.956117 
L 339.200764 270.119745 
L 342.043268 271.024325 
L 342.246304 271.037207 
L 342.44934 271.192337 
L 342.855412 271.239994 
L 343.261484 271.414757 
L 348.743456 272.953462 
L 349.149528 273.135755 
L 353.413283 274.315065 
L 353.819355 274.431386 
L 354.834535 274.676908 
L 355.646679 274.917805 
L 356.052751 275.009247 
L 356.661859 275.146491 
L 359.301327 275.863588 
L 360.722579 276.222768 
L 362.346867 276.60064 
L 363.362047 276.843473 
L 363.565083 276.935991 
L 363.768119 276.901808 
L 364.174191 277.018235 
L 376.153314 279.716591 
L 376.35635 279.681332 
L 376.965458 279.856229 
L 380.823142 280.575154 
L 381.026178 280.591022 
L 381.229214 280.718799 
L 381.635286 280.780065 
L 388.132437 281.943561 
L 388.741545 282.076314 
L 390.771905 282.423876 
L 391.584049 282.534871 
L 392.193157 282.627308 
L 392.599229 282.716034 
L 393.208337 282.815357 
L 393.817445 282.936518 
L 398.487273 283.657056 
L 398.487273 283.657056 
" clip-path="url(#p4922345eeb)" style="fill: none; stroke-dasharray: 1.85,0.8; stroke-dashoffset: 0; stroke: #80ffb4; stroke-width: 0.5"/>
   </g>
   <g id="line2d_18">
    <path d="M 73.832727 295.488 
L 127.061445 295.384186 
L 133.968989 295.071722 
L 137.625923 294.656897 
L 140.06388 294.204015 
L 142.09551 293.654743 
L 143.720815 293.104771 
L 146.971423 291.450041 
L 148.190402 290.620229 
L 150.628358 288.583969 
L 152.659989 286.411757 
L 155.504271 282.568758 
L 157.535902 279.33221 
L 159.973858 274.967238 
L 164.443445 265.772119 
L 168.10038 257.546505 
L 170.13201 252.763882 
L 174.601597 242.22873 
L 179.883837 229.832512 
L 183.540771 221.535008 
L 191.260967 205.509308 
L 192.479945 203.171477 
L 193.292598 201.686024 
L 196.543206 195.953423 
L 199.793815 190.789163 
L 200.200141 190.075079 
L 200.606467 189.593259 
L 201.825445 187.759222 
L 202.231772 187.320567 
L 203.45075 185.484701 
L 205.48238 183.130142 
L 206.295032 182.024389 
L 206.701359 181.643236 
L 207.920337 180.085435 
L 208.732989 179.312424 
L 209.139315 178.781763 
L 209.545641 178.561817 
L 210.358293 177.545301 
L 210.764619 177.296659 
L 211.577272 176.51644 
L 215.234206 173.374643 
L 216.046859 172.981118 
L 216.453185 172.521675 
L 218.484815 171.373455 
L 218.891141 171.007658 
L 219.297467 170.892011 
L 219.703793 170.609938 
L 220.110119 170.499078 
L 220.922772 170.07812 
L 222.954402 169.178112 
L 224.986033 168.533336 
L 225.798685 168.226144 
L 226.205011 168.227596 
L 226.611337 168.043367 
L 227.423989 167.897221 
L 228.236641 167.718236 
L 229.45562 167.617192 
L 230.268272 167.522334 
L 233.112554 167.423119 
L 235.144185 167.412415 
L 235.956837 167.667835 
L 236.363163 167.760971 
L 236.769489 167.69602 
L 237.582141 167.959052 
L 237.988467 167.745453 
L 240.020098 168.403596 
L 240.83275 168.451603 
L 242.458054 168.95736 
L 242.86438 169.149792 
L 243.270707 169.211731 
L 245.302337 170.146702 
L 245.708663 170.057599 
L 247.740294 171.061878 
L 248.14662 171.114754 
L 249.365598 171.759395 
L 250.584576 172.282069 
L 254.647837 174.478514 
L 255.054163 174.768224 
L 255.866815 175.13082 
L 256.273141 175.430294 
L 256.679468 175.581927 
L 257.085794 176.019962 
L 259.117424 177.243057 
L 259.930076 177.86508 
L 260.742728 178.249595 
L 262.368033 179.440901 
L 262.774359 179.611118 
L 263.180685 180.02866 
L 263.993337 180.483074 
L 265.212315 181.48184 
L 266.024968 182.042274 
L 268.056598 183.541229 
L 268.462924 183.977785 
L 269.275576 184.380427 
L 271.307207 186.089458 
L 272.119859 186.580503 
L 272.526185 187.05915 
L 273.745163 187.921828 
L 275.776794 189.674347 
L 276.589446 190.193282 
L 278.21475 191.540335 
L 279.027402 192.255307 
L 280.652707 193.636624 
L 281.465359 194.201711 
L 282.684337 195.253271 
L 286.341272 198.447136 
L 286.747598 198.654818 
L 300.969011 210.632849 
L 302.18799 211.661064 
L 306.25125 214.97523 
L 307.063903 215.62864 
L 308.282881 216.563933 
L 309.501859 217.515445 
L 311.127163 218.873094 
L 311.53349 219.109553 
L 312.752468 220.154282 
L 316.409403 222.934775 
L 317.222055 223.571267 
L 317.628381 223.822303 
L 318.034707 224.27107 
L 318.441033 224.441395 
L 320.472664 226.066836 
L 320.87899 226.285733 
L 322.097968 227.256554 
L 322.504294 227.515498 
L 322.91062 227.961575 
L 323.316946 228.146611 
L 325.348577 229.64562 
L 325.754903 229.871751 
L 326.567555 230.496491 
L 330.630816 233.324856 
L 331.037142 233.565188 
L 331.849794 234.214321 
L 332.25612 234.434428 
L 332.662446 234.79662 
L 333.475098 235.313996 
L 339.976316 239.58715 
L 341.195294 240.320437 
L 342.007946 240.872533 
L 343.226925 241.545791 
L 344.039577 242.055878 
L 345.664881 243.073254 
L 346.071207 243.312806 
L 346.477533 243.68269 
L 347.290185 244.009274 
L 347.696512 244.366921 
L 349.321816 245.266552 
L 352.166099 246.953798 
L 353.385077 247.608579 
L 356.229359 249.157128 
L 357.042012 249.504017 
L 357.448338 249.863843 
L 358.667316 250.458863 
L 359.479968 251.001708 
L 359.886294 251.120583 
L 361.511599 252.01427 
L 365.574859 254.071293 
L 366.387512 254.387468 
L 368.419142 255.404872 
L 370.857099 256.434055 
L 371.263425 256.76911 
L 376.545664 259.129183 
L 377.764642 259.603581 
L 379.796273 260.499823 
L 380.608925 260.85938 
L 383.859534 262.157646 
L 385.891164 262.948999 
L 398.487273 267.554169 
L 398.487273 267.554169 
" clip-path="url(#p4922345eeb)" style="fill: none; stroke-dasharray: 1.85,0.8; stroke-dashoffset: 0; stroke: #ffb360; stroke-width: 0.5"/>
   </g>
   <g id="line2d_19">
    <path d="M 73.832727 295.488 
L 126.721312 295.391259 
L 133.230677 295.125835 
L 137.299029 294.703936 
L 140.553712 294.070429 
L 142.994723 293.322538 
L 145.435735 292.238973 
L 147.063076 291.232247 
L 148.690417 289.98422 
L 150.317758 288.455116 
L 151.945099 286.506642 
L 153.57244 284.181182 
L 155.199781 281.35279 
L 156.827122 278.092441 
L 158.454463 274.331713 
L 160.081805 270.020907 
L 161.709146 265.297265 
L 163.336487 260.032365 
L 165.777498 251.510692 
L 168.21851 242.265065 
L 171.473192 229.136286 
L 177.168886 204.940725 
L 186.119262 166.79881 
L 190.187614 150.368989 
L 195.069638 131.78675 
L 199.13799 117.821193 
L 201.579002 110.012932 
L 206.461025 95.921749 
L 209.715707 87.690514 
L 212.97039 80.340809 
L 216.225072 73.950577 
L 217.038742 72.785279 
L 217.852413 71.201417 
L 220.293424 67.208211 
L 221.107095 66.262563 
L 222.734436 64.095837 
L 225.175448 61.174577 
L 229.2438 57.603404 
L 232.498483 55.460668 
L 234.125824 54.950339 
L 234.939494 54.400502 
L 235.753165 54.31269 
L 238.194176 53.71845 
L 239.007847 53.568 
L 240.635188 53.717643 
L 241.448859 53.572922 
L 243.0762 53.862068 
L 243.88987 53.835307 
L 244.703541 54.277512 
L 245.517211 54.344964 
L 246.330882 54.823718 
L 247.144552 54.937887 
L 247.958223 55.203554 
L 248.771893 55.847738 
L 249.585564 56.053537 
L 250.399234 56.655362 
L 251.212905 56.843626 
L 252.840246 58.072987 
L 253.653917 58.647568 
L 254.467587 59.024714 
L 256.908599 60.962188 
L 259.34961 63.11813 
L 260.163281 63.734397 
L 264.231634 67.720073 
L 265.045304 68.76776 
L 265.858975 69.419152 
L 267.486316 71.376179 
L 269.113657 73.329737 
L 271.554668 76.303953 
L 272.368339 77.513896 
L 273.18201 78.326792 
L 277.250362 83.706721 
L 278.064033 84.972229 
L 278.877703 85.855051 
L 287.828079 98.409519 
L 291.896432 104.455094 
L 292.710103 105.805886 
L 293.523773 106.802499 
L 296.778455 111.890593 
L 297.592126 112.931341 
L 298.405796 114.249429 
L 300.033137 116.597775 
L 301.660478 119.187153 
L 304.915161 123.864563 
L 306.542502 126.425271 
L 307.356172 127.530836 
L 308.983513 130.123845 
L 309.797184 131.398336 
L 310.610854 132.418805 
L 317.120219 141.95971 
L 317.933889 143.062505 
L 319.56123 145.513616 
L 327.697936 156.86941 
L 329.325277 159.068947 
L 334.2073 165.616111 
L 335.834641 167.725954 
L 341.530335 175.028996 
L 342.344005 175.872149 
L 343.971347 178.016391 
L 346.412358 181.018147 
L 350.480711 185.756097 
L 353.735393 189.554988 
L 365.126781 201.829238 
L 376.518168 212.796644 
L 382.213862 217.767476 
L 383.027532 218.542396 
L 383.841203 219.10361 
L 386.282215 221.167893 
L 391.164238 225.235975 
L 391.977908 225.75257 
L 393.605249 226.966601 
L 396.046261 228.838157 
L 398.487273 230.660495 
L 398.487273 230.660495 
" clip-path="url(#p4922345eeb)" style="fill: none; stroke-dasharray: 1.85,0.8; stroke-dashoffset: 0; stroke: #ff0000; stroke-width: 0.5"/>
   </g>
   <g id="patch_3">
    <path d="M 57.6 307.584 
L 57.6 41.472 
" style="fill: none; stroke: #000000; stroke-width: 0.8; stroke-linejoin: miter; stroke-linecap: square"/>
   </g>
   <g id="patch_4">
    <path d="M 414.72 307.584 
L 414.72 41.472 
" style="fill: none; stroke: #000000; stroke-width: 0.8; stroke-linejoin: miter; stroke-linecap: square"/>
   </g>
   <g id="patch_5">
    <path d="M 57.6 307.584 
L 414.72 307.584 
" style="fill: none; stroke: #000000; stroke-width: 0.8; stroke-linejoin: miter; stroke-linecap: square"/>
   </g>
   <g id="patch_6">
    <path d="M 57.6 41.472 
L 414.72 41.472 
" style="fill: none; stroke: #000000; stroke-width: 0.8; stroke-linejoin: miter; stroke-linecap: square"/>
   </g>
   <g id="legend_1">
    <g id="patch_7">
     <path d="M 243.16 152.0832 
L 483.36 152.0832 
Q 485.36 152.0832 485.36 150.0832 
L 485.36 75.0832 
Q 485.36 73.0832 483.36 73.0832 
L 243.16 73.0832 
Q 241.16 73.0832 241.16 75.0832 
L 241.16 150.0832 
Q 241.16 152.0832 243.16 152.0832 
z
" style="fill: #ffffff; opacity: 0.8; stroke: #cccccc; stroke-linejoin: miter"/>
    </g>
    <g id="line2d_20">
     <path d="M 245.16 81.3832 
L 255.16 81.3832 
L 265.16 81.3832 
" style="fill: none; stroke-dasharray: 1.85,0.8; stroke-dashoffset: 0; stroke: #8000ff; stroke-width: 0.5"/>
    </g>
    <g id="text_18">
     <!-- $\rho'$: 3e-04, E=1e+00eV, s_tun=1e+12$s^-1$ -->
     <g transform="translate(273.16 84.8832) scale(0.1 -0.1)">
      <defs>
       <path id="DejaVuSans-Oblique-3c1" d="M 1203 2875 
Q 1453 3194 1981 3475 
Q 2188 3584 2756 3584 
Q 3394 3584 3694 3078 
Q 3994 2572 3834 1747 
Q 3672 922 3175 415 
Q 2678 -91 2041 -91 
Q 1656 -91 1409 63 
Q 1163 213 1044 525 
L 681 -1331 
L 103 -1331 
L 697 1716 
Q 838 2438 1203 2875 
z
M 3238 1747 
Q 3359 2381 3169 2744 
Q 2978 3103 2522 3103 
Q 2066 3103 1734 2744 
Q 1403 2381 1281 1747 
Q 1156 1113 1347 750 
Q 1538 391 1994 391 
Q 2450 391 2781 750 
Q 3113 1113 3238 1747 
z
" transform="scale(0.015625)"/>
       <path id="Cmsy10-30" d="M 225 347 
Q 184 359 184 409 
L 966 3316 
Q 1003 3434 1093 3506 
Q 1184 3578 1300 3578 
Q 1450 3578 1564 3479 
Q 1678 3381 1678 3231 
Q 1678 3166 1644 3084 
L 488 319 
Q 466 275 428 275 
Q 394 275 320 306 
Q 247 338 225 347 
z
" transform="scale(0.015625)"/>
       <path id="DejaVuSans-3a" d="M 750 794 
L 1409 794 
L 1409 0 
L 750 0 
L 750 794 
z
M 750 3309 
L 1409 3309 
L 1409 2516 
L 750 2516 
L 750 3309 
z
" transform="scale(0.015625)"/>
       <path id="DejaVuSans-2d" d="M 313 2009 
L 1997 2009 
L 1997 1497 
L 313 1497 
L 313 2009 
z
" transform="scale(0.015625)"/>
       <path id="DejaVuSans-2c" d="M 750 794 
L 1409 794 
L 1409 256 
L 897 -744 
L 494 -744 
L 750 256 
L 750 794 
z
" transform="scale(0.015625)"/>
       <path id="DejaVuSans-45" d="M 628 4666 
L 3578 4666 
L 3578 4134 
L 1259 4134 
L 1259 2753 
L 3481 2753 
L 3481 2222 
L 1259 2222 
L 1259 531 
L 3634 531 
L 3634 0 
L 628 0 
L 628 4666 
z
" transform="scale(0.015625)"/>
       <path id="DejaVuSans-3d" d="M 678 2906 
L 4684 2906 
L 4684 2381 
L 678 2381 
L 678 2906 
z
M 678 1631 
L 4684 1631 
L 4684 1100 
L 678 1100 
L 678 1631 
z
" transform="scale(0.015625)"/>
       <path id="DejaVuSans-2b" d="M 2944 4013 
L 2944 2272 
L 4684 2272 
L 4684 1741 
L 2944 1741 
L 2944 0 
L 2419 0 
L 2419 1741 
L 678 1741 
L 678 2272 
L 2419 2272 
L 2419 4013 
L 2944 4013 
z
" transform="scale(0.015625)"/>
       <path id="DejaVuSans-56" d="M 1831 0 
L 50 4666 
L 709 4666 
L 2188 738 
L 3669 4666 
L 4325 4666 
L 2547 0 
L 1831 0 
z
" transform="scale(0.015625)"/>
       <path id="DejaVuSans-5f" d="M 3263 -1063 
L 3263 -1509 
L -63 -1509 
L -63 -1063 
L 3263 -1063 
z
" transform="scale(0.015625)"/>
       <path id="DejaVuSans-Oblique-73" d="M 3200 3397 
L 3091 2853 
Q 2863 2978 2609 3040 
Q 2356 3103 2088 3103 
Q 1634 3103 1373 2948 
Q 1113 2794 1113 2528 
Q 1113 2219 1719 2053 
Q 1766 2041 1788 2034 
L 1972 1978 
Q 2547 1819 2739 1644 
Q 2931 1469 2931 1166 
Q 2931 609 2489 259 
Q 2047 -91 1331 -91 
Q 1053 -91 747 -37 
Q 441 16 72 128 
L 184 722 
Q 500 559 806 475 
Q 1113 391 1394 391 
Q 1816 391 2080 572 
Q 2344 753 2344 1031 
Q 2344 1331 1650 1516 
L 1591 1531 
L 1394 1581 
Q 956 1697 753 1886 
Q 550 2075 550 2369 
Q 550 2928 970 3256 
Q 1391 3584 2113 3584 
Q 2397 3584 2667 3537 
Q 2938 3491 3200 3397 
z
" transform="scale(0.015625)"/>
      </defs>
      <use xlink:href="#DejaVuSans-Oblique-3c1" transform="translate(0 0.584375)"/>
      <use xlink:href="#Cmsy10-30" transform="translate(68.126458 38.865625) scale(0.7)"/>
      <use xlink:href="#DejaVuSans-3a" transform="translate(90.103997 0.584375)"/>
      <use xlink:href="#DejaVuSans-20" transform="translate(123.795404 0.584375)"/>
      <use xlink:href="#DejaVuSans-33" transform="translate(155.582513 0.584375)"/>
      <use xlink:href="#DejaVuSans-65" transform="translate(219.20556 0.584375)"/>
      <use xlink:href="#DejaVuSans-2d" transform="translate(280.728997 0.584375)"/>
      <use xlink:href="#DejaVuSans-30" transform="translate(316.812982 0.584375)"/>
      <use xlink:href="#DejaVuSans-34" transform="translate(380.436029 0.584375)"/>
      <use xlink:href="#DejaVuSans-2c" transform="translate(444.059076 0.584375)"/>
      <use xlink:href="#DejaVuSans-20" transform="translate(475.846185 0.584375)"/>
      <use xlink:href="#DejaVuSans-45" transform="translate(507.633294 0.584375)"/>
      <use xlink:href="#DejaVuSans-3d" transform="translate(570.816888 0.584375)"/>
      <use xlink:href="#DejaVuSans-31" transform="translate(654.605951 0.584375)"/>
      <use xlink:href="#DejaVuSans-65" transform="translate(718.228997 0.584375)"/>
      <use xlink:href="#DejaVuSans-2b" transform="translate(779.752435 0.584375)"/>
      <use xlink:href="#DejaVuSans-30" transform="translate(863.541497 0.584375)"/>
      <use xlink:href="#DejaVuSans-30" transform="translate(927.164544 0.584375)"/>
      <use xlink:href="#DejaVuSans-65" transform="translate(990.787591 0.584375)"/>
      <use xlink:href="#DejaVuSans-56" transform="translate(1052.311029 0.584375)"/>
      <use xlink:href="#DejaVuSans-2c" transform="translate(1120.719232 0.584375)"/>
      <use xlink:href="#DejaVuSans-20" transform="translate(1152.506341 0.584375)"/>
      <use xlink:href="#DejaVuSans-73" transform="translate(1184.293451 0.584375)"/>
      <use xlink:href="#DejaVuSans-5f" transform="translate(1236.39306 0.584375)"/>
      <use xlink:href="#DejaVuSans-74" transform="translate(1286.39306 0.584375)"/>
      <use xlink:href="#DejaVuSans-75" transform="translate(1325.602044 0.584375)"/>
      <use xlink:href="#DejaVuSans-6e" transform="translate(1388.980951 0.584375)"/>
      <use xlink:href="#DejaVuSans-3d" transform="translate(1452.359857 0.584375)"/>
      <use xlink:href="#DejaVuSans-31" transform="translate(1536.148919 0.584375)"/>
      <use xlink:href="#DejaVuSans-65" transform="translate(1599.771966 0.584375)"/>
      <use xlink:href="#DejaVuSans-2b" transform="translate(1661.295404 0.584375)"/>
      <use xlink:href="#DejaVuSans-31" transform="translate(1745.084466 0.584375)"/>
      <use xlink:href="#DejaVuSans-32" transform="translate(1808.707513 0.584375)"/>
      <use xlink:href="#DejaVuSans-Oblique-73" transform="translate(1872.33056 0.584375)"/>
      <use xlink:href="#DejaVuSans-2212" transform="translate(1942.71776 38.865625) scale(0.7)"/>
      <use xlink:href="#DejaVuSans-31" transform="translate(2017.742174 0.584375)"/>
     </g>
    </g>
    <g id="line2d_21">
     <path d="M 245.16 96.5832 
L 255.16 96.5832 
L 265.16 96.5832 
" style="fill: none; stroke-dasharray: 1.85,0.8; stroke-dashoffset: 0; stroke: #00b5eb; stroke-width: 0.5"/>
    </g>
    <g id="text_19">
     <!-- $\rho'$: 3e-04, E=1e+00eV, s_tun=1e+12$s^-1$ -->
     <g transform="translate(273.16 100.0832) scale(0.1 -0.1)">
      <use xlink:href="#DejaVuSans-Oblique-3c1" transform="translate(0 0.584375)"/>
      <use xlink:href="#Cmsy10-30" transform="translate(68.126458 38.865625) scale(0.7)"/>
      <use xlink:href="#DejaVuSans-3a" transform="translate(90.103997 0.584375)"/>
      <use xlink:href="#DejaVuSans-20" transform="translate(123.795404 0.584375)"/>
      <use xlink:href="#DejaVuSans-33" transform="translate(155.582513 0.584375)"/>
      <use xlink:href="#DejaVuSans-65" transform="translate(219.20556 0.584375)"/>
      <use xlink:href="#DejaVuSans-2d" transform="translate(280.728997 0.584375)"/>
      <use xlink:href="#DejaVuSans-30" transform="translate(316.812982 0.584375)"/>
      <use xlink:href="#DejaVuSans-34" transform="translate(380.436029 0.584375)"/>
      <use xlink:href="#DejaVuSans-2c" transform="translate(444.059076 0.584375)"/>
      <use xlink:href="#DejaVuSans-20" transform="translate(475.846185 0.584375)"/>
      <use xlink:href="#DejaVuSans-45" transform="translate(507.633294 0.584375)"/>
      <use xlink:href="#DejaVuSans-3d" transform="translate(570.816888 0.584375)"/>
      <use xlink:href="#DejaVuSans-31" transform="translate(654.605951 0.584375)"/>
      <use xlink:href="#DejaVuSans-65" transform="translate(718.228997 0.584375)"/>
      <use xlink:href="#DejaVuSans-2b" transform="translate(779.752435 0.584375)"/>
      <use xlink:href="#DejaVuSans-30" transform="translate(863.541497 0.584375)"/>
      <use xlink:href="#DejaVuSans-30" transform="translate(927.164544 0.584375)"/>
      <use xlink:href="#DejaVuSans-65" transform="translate(990.787591 0.584375)"/>
      <use xlink:href="#DejaVuSans-56" transform="translate(1052.311029 0.584375)"/>
      <use xlink:href="#DejaVuSans-2c" transform="translate(1120.719232 0.584375)"/>
      <use xlink:href="#DejaVuSans-20" transform="translate(1152.506341 0.584375)"/>
      <use xlink:href="#DejaVuSans-73" transform="translate(1184.293451 0.584375)"/>
      <use xlink:href="#DejaVuSans-5f" transform="translate(1236.39306 0.584375)"/>
      <use xlink:href="#DejaVuSans-74" transform="translate(1286.39306 0.584375)"/>
      <use xlink:href="#DejaVuSans-75" transform="translate(1325.602044 0.584375)"/>
      <use xlink:href="#DejaVuSans-6e" transform="translate(1388.980951 0.584375)"/>
      <use xlink:href="#DejaVuSans-3d" transform="translate(1452.359857 0.584375)"/>
      <use xlink:href="#DejaVuSans-31" transform="translate(1536.148919 0.584375)"/>
      <use xlink:href="#DejaVuSans-65" transform="translate(1599.771966 0.584375)"/>
      <use xlink:href="#DejaVuSans-2b" transform="translate(1661.295404 0.584375)"/>
      <use xlink:href="#DejaVuSans-31" transform="translate(1745.084466 0.584375)"/>
      <use xlink:href="#DejaVuSans-32" transform="translate(1808.707513 0.584375)"/>
      <use xlink:href="#DejaVuSans-Oblique-73" transform="translate(1872.33056 0.584375)"/>
      <use xlink:href="#DejaVuSans-2212" transform="translate(1942.71776 38.865625) scale(0.7)"/>
      <use xlink:href="#DejaVuSans-31" transform="translate(2017.742174 0.584375)"/>
     </g>
    </g>
    <g id="line2d_22">
     <path d="M 245.16 111.7832 
L 255.16 111.7832 
L 265.16 111.7832 
" style="fill: none; stroke-dasharray: 1.85,0.8; stroke-dashoffset: 0; stroke: #80ffb4; stroke-width: 0.5"/>
    </g>
    <g id="text_20">
     <!-- $\rho'$: 3e-04, E=1e+00eV, s_tun=1e+12$s^-1$ -->
     <g transform="translate(273.16 115.2832) scale(0.1 -0.1)">
      <use xlink:href="#DejaVuSans-Oblique-3c1" transform="translate(0 0.584375)"/>
      <use xlink:href="#Cmsy10-30" transform="translate(68.126458 38.865625) scale(0.7)"/>
      <use xlink:href="#DejaVuSans-3a" transform="translate(90.103997 0.584375)"/>
      <use xlink:href="#DejaVuSans-20" transform="translate(123.795404 0.584375)"/>
      <use xlink:href="#DejaVuSans-33" transform="translate(155.582513 0.584375)"/>
      <use xlink:href="#DejaVuSans-65" transform="translate(219.20556 0.584375)"/>
      <use xlink:href="#DejaVuSans-2d" transform="translate(280.728997 0.584375)"/>
      <use xlink:href="#DejaVuSans-30" transform="translate(316.812982 0.584375)"/>
      <use xlink:href="#DejaVuSans-34" transform="translate(380.436029 0.584375)"/>
      <use xlink:href="#DejaVuSans-2c" transform="translate(444.059076 0.584375)"/>
      <use xlink:href="#DejaVuSans-20" transform="translate(475.846185 0.584375)"/>
      <use xlink:href="#DejaVuSans-45" transform="translate(507.633294 0.584375)"/>
      <use xlink:href="#DejaVuSans-3d" transform="translate(570.816888 0.584375)"/>
      <use xlink:href="#DejaVuSans-31" transform="translate(654.605951 0.584375)"/>
      <use xlink:href="#DejaVuSans-65" transform="translate(718.228997 0.584375)"/>
      <use xlink:href="#DejaVuSans-2b" transform="translate(779.752435 0.584375)"/>
      <use xlink:href="#DejaVuSans-30" transform="translate(863.541497 0.584375)"/>
      <use xlink:href="#DejaVuSans-30" transform="translate(927.164544 0.584375)"/>
      <use xlink:href="#DejaVuSans-65" transform="translate(990.787591 0.584375)"/>
      <use xlink:href="#DejaVuSans-56" transform="translate(1052.311029 0.584375)"/>
      <use xlink:href="#DejaVuSans-2c" transform="translate(1120.719232 0.584375)"/>
      <use xlink:href="#DejaVuSans-20" transform="translate(1152.506341 0.584375)"/>
      <use xlink:href="#DejaVuSans-73" transform="translate(1184.293451 0.584375)"/>
      <use xlink:href="#DejaVuSans-5f" transform="translate(1236.39306 0.584375)"/>
      <use xlink:href="#DejaVuSans-74" transform="translate(1286.39306 0.584375)"/>
      <use xlink:href="#DejaVuSans-75" transform="translate(1325.602044 0.584375)"/>
      <use xlink:href="#DejaVuSans-6e" transform="translate(1388.980951 0.584375)"/>
      <use xlink:href="#DejaVuSans-3d" transform="translate(1452.359857 0.584375)"/>
      <use xlink:href="#DejaVuSans-31" transform="translate(1536.148919 0.584375)"/>
      <use xlink:href="#DejaVuSans-65" transform="translate(1599.771966 0.584375)"/>
      <use xlink:href="#DejaVuSans-2b" transform="translate(1661.295404 0.584375)"/>
      <use xlink:href="#DejaVuSans-31" transform="translate(1745.084466 0.584375)"/>
      <use xlink:href="#DejaVuSans-32" transform="translate(1808.707513 0.584375)"/>
      <use xlink:href="#DejaVuSans-Oblique-73" transform="translate(1872.33056 0.584375)"/>
      <use xlink:href="#DejaVuSans-2212" transform="translate(1942.71776 38.865625) scale(0.7)"/>
      <use xlink:href="#DejaVuSans-31" transform="translate(2017.742174 0.584375)"/>
     </g>
    </g>
    <g id="line2d_23">
     <path d="M 245.16 126.9832 
L 255.16 126.9832 
L 265.16 126.9832 
" style="fill: none; stroke-dasharray: 1.85,0.8; stroke-dashoffset: 0; stroke: #ffb360; stroke-width: 0.5"/>
    </g>
    <g id="text_21">
     <!-- $\rho'$: 3e-04, E=1e+00eV, s_tun=1e+12$s^-1$ -->
     <g transform="translate(273.16 130.4832) scale(0.1 -0.1)">
      <use xlink:href="#DejaVuSans-Oblique-3c1" transform="translate(0 0.584375)"/>
      <use xlink:href="#Cmsy10-30" transform="translate(68.126458 38.865625) scale(0.7)"/>
      <use xlink:href="#DejaVuSans-3a" transform="translate(90.103997 0.584375)"/>
      <use xlink:href="#DejaVuSans-20" transform="translate(123.795404 0.584375)"/>
      <use xlink:href="#DejaVuSans-33" transform="translate(155.582513 0.584375)"/>
      <use xlink:href="#DejaVuSans-65" transform="translate(219.20556 0.584375)"/>
      <use xlink:href="#DejaVuSans-2d" transform="translate(280.728997 0.584375)"/>
      <use xlink:href="#DejaVuSans-30" transform="translate(316.812982 0.584375)"/>
      <use xlink:href="#DejaVuSans-34" transform="translate(380.436029 0.584375)"/>
      <use xlink:href="#DejaVuSans-2c" transform="translate(444.059076 0.584375)"/>
      <use xlink:href="#DejaVuSans-20" transform="translate(475.846185 0.584375)"/>
      <use xlink:href="#DejaVuSans-45" transform="translate(507.633294 0.584375)"/>
      <use xlink:href="#DejaVuSans-3d" transform="translate(570.816888 0.584375)"/>
      <use xlink:href="#DejaVuSans-31" transform="translate(654.605951 0.584375)"/>
      <use xlink:href="#DejaVuSans-65" transform="translate(718.228997 0.584375)"/>
      <use xlink:href="#DejaVuSans-2b" transform="translate(779.752435 0.584375)"/>
      <use xlink:href="#DejaVuSans-30" transform="translate(863.541497 0.584375)"/>
      <use xlink:href="#DejaVuSans-30" transform="translate(927.164544 0.584375)"/>
      <use xlink:href="#DejaVuSans-65" transform="translate(990.787591 0.584375)"/>
      <use xlink:href="#DejaVuSans-56" transform="translate(1052.311029 0.584375)"/>
      <use xlink:href="#DejaVuSans-2c" transform="translate(1120.719232 0.584375)"/>
      <use xlink:href="#DejaVuSans-20" transform="translate(1152.506341 0.584375)"/>
      <use xlink:href="#DejaVuSans-73" transform="translate(1184.293451 0.584375)"/>
      <use xlink:href="#DejaVuSans-5f" transform="translate(1236.39306 0.584375)"/>
      <use xlink:href="#DejaVuSans-74" transform="translate(1286.39306 0.584375)"/>
      <use xlink:href="#DejaVuSans-75" transform="translate(1325.602044 0.584375)"/>
      <use xlink:href="#DejaVuSans-6e" transform="translate(1388.980951 0.584375)"/>
      <use xlink:href="#DejaVuSans-3d" transform="translate(1452.359857 0.584375)"/>
      <use xlink:href="#DejaVuSans-31" transform="translate(1536.148919 0.584375)"/>
      <use xlink:href="#DejaVuSans-65" transform="translate(1599.771966 0.584375)"/>
      <use xlink:href="#DejaVuSans-2b" transform="translate(1661.295404 0.584375)"/>
      <use xlink:href="#DejaVuSans-31" transform="translate(1745.084466 0.584375)"/>
      <use xlink:href="#DejaVuSans-32" transform="translate(1808.707513 0.584375)"/>
      <use xlink:href="#DejaVuSans-Oblique-73" transform="translate(1872.33056 0.584375)"/>
      <use xlink:href="#DejaVuSans-2212" transform="translate(1942.71776 38.865625) scale(0.7)"/>
      <use xlink:href="#DejaVuSans-31" transform="translate(2017.742174 0.584375)"/>
     </g>
    </g>
    <g id="line2d_24">
     <path d="M 245.16 142.1832 
L 255.16 142.1832 
L 265.16 142.1832 
" style="fill: none; stroke-dasharray: 1.85,0.8; stroke-dashoffset: 0; stroke: #ff0000; stroke-width: 0.5"/>
    </g>
    <g id="text_22">
     <!-- $\rho'$: 3e-04, E=1e+00eV, s_tun=1e+12$s^-1$ -->
     <g transform="translate(273.16 145.6832) scale(0.1 -0.1)">
      <use xlink:href="#DejaVuSans-Oblique-3c1" transform="translate(0 0.584375)"/>
      <use xlink:href="#Cmsy10-30" transform="translate(68.126458 38.865625) scale(0.7)"/>
      <use xlink:href="#DejaVuSans-3a" transform="translate(90.103997 0.584375)"/>
      <use xlink:href="#DejaVuSans-20" transform="translate(123.795404 0.584375)"/>
      <use xlink:href="#DejaVuSans-33" transform="translate(155.582513 0.584375)"/>
      <use xlink:href="#DejaVuSans-65" transform="translate(219.20556 0.584375)"/>
      <use xlink:href="#DejaVuSans-2d" transform="translate(280.728997 0.584375)"/>
      <use xlink:href="#DejaVuSans-30" transform="translate(316.812982 0.584375)"/>
      <use xlink:href="#DejaVuSans-34" transform="translate(380.436029 0.584375)"/>
      <use xlink:href="#DejaVuSans-2c" transform="translate(444.059076 0.584375)"/>
      <use xlink:href="#DejaVuSans-20" transform="translate(475.846185 0.584375)"/>
      <use xlink:href="#DejaVuSans-45" transform="translate(507.633294 0.584375)"/>
      <use xlink:href="#DejaVuSans-3d" transform="translate(570.816888 0.584375)"/>
      <use xlink:href="#DejaVuSans-31" transform="translate(654.605951 0.584375)"/>
      <use xlink:href="#DejaVuSans-65" transform="translate(718.228997 0.584375)"/>
      <use xlink:href="#DejaVuSans-2b" transform="translate(779.752435 0.584375)"/>
      <use xlink:href="#DejaVuSans-30" transform="translate(863.541497 0.584375)"/>
      <use xlink:href="#DejaVuSans-30" transform="translate(927.164544 0.584375)"/>
      <use xlink:href="#DejaVuSans-65" transform="translate(990.787591 0.584375)"/>
      <use xlink:href="#DejaVuSans-56" transform="translate(1052.311029 0.584375)"/>
      <use xlink:href="#DejaVuSans-2c" transform="translate(1120.719232 0.584375)"/>
      <use xlink:href="#DejaVuSans-20" transform="translate(1152.506341 0.584375)"/>
      <use xlink:href="#DejaVuSans-73" transform="translate(1184.293451 0.584375)"/>
      <use xlink:href="#DejaVuSans-5f" transform="translate(1236.39306 0.584375)"/>
      <use xlink:href="#DejaVuSans-74" transform="translate(1286.39306 0.584375)"/>
      <use xlink:href="#DejaVuSans-75" transform="translate(1325.602044 0.584375)"/>
      <use xlink:href="#DejaVuSans-6e" transform="translate(1388.980951 0.584375)"/>
      <use xlink:href="#DejaVuSans-3d" transform="translate(1452.359857 0.584375)"/>
      <use xlink:href="#DejaVuSans-31" transform="translate(1536.148919 0.584375)"/>
      <use xlink:href="#DejaVuSans-65" transform="translate(1599.771966 0.584375)"/>
      <use xlink:href="#DejaVuSans-2b" transform="translate(1661.295404 0.584375)"/>
      <use xlink:href="#DejaVuSans-31" transform="translate(1745.084466 0.584375)"/>
      <use xlink:href="#DejaVuSans-32" transform="translate(1808.707513 0.584375)"/>
      <use xlink:href="#DejaVuSans-Oblique-73" transform="translate(1872.33056 0.584375)"/>
      <use xlink:href="#DejaVuSans-2212" transform="translate(1942.71776 38.865625) scale(0.7)"/>
      <use xlink:href="#DejaVuSans-31" transform="translate(2017.742174 0.584375)"/>
     </g>
    </g>
   </g>
  </g>
 </g>
 <defs>
  <clipPath id="p4922345eeb">
   <rect x="57.6" y="41.472" width="357.12" height="266.112"/>
  </clipPath>
 </defs>
</svg>
