<?xml version="1.0" encoding="utf-8" standalone="no"?>
<!DOCTYPE svg PUBLIC "-//W3C//DTD SVG 1.1//EN"
  "http://www.w3.org/Graphics/SVG/1.1/DTD/svg11.dtd">
<svg xmlns:xlink="http://www.w3.org/1999/xlink" width="460.8pt" height="345.6pt" viewBox="0 0 460.8 345.6" xmlns="http://www.w3.org/2000/svg" version="1.1">
 <metadata>
  <rdf:RDF xmlns:dc="http://purl.org/dc/elements/1.1/" xmlns:cc="http://creativecommons.org/ns#" xmlns:rdf="http://www.w3.org/1999/02/22-rdf-syntax-ns#">
   <cc:Work>
    <dc:type rdf:resource="http://purl.org/dc/dcmitype/StillImage"/>
    <dc:date>2025-03-04T12:20:09.649645</dc:date>
    <dc:format>image/svg+xml</dc:format>
    <dc:creator>
     <cc:Agent>
      <dc:title>Matplotlib v3.10.0, https://matplotlib.org/</dc:title>
     </cc:Agent>
    </dc:creator>
   </cc:Work>
  </rdf:RDF>
 </metadata>
 <defs>
  <style type="text/css">*{stroke-linejoin: round; stroke-linecap: butt}</style>
 </defs>
 <g id="figure_1">
  <g id="patch_1">
   <path d="M 0 345.6 
L 460.8 345.6 
L 460.8 0 
L 0 0 
z
" style="fill: #ffffff"/>
  </g>
  <g id="axes_1">
   <g id="patch_2">
    <path d="M 57.6 307.584 
L 414.72 307.584 
L 414.72 41.472 
L 57.6 41.472 
z
" style="fill: #ffffff"/>
   </g>
   <g id="matplotlib.axis_1">
    <g id="xtick_1">
     <g id="line2d_1">
      <defs>
       <path id="md467370986" d="M 0 0 
L 0 3.5 
" style="stroke: #000000; stroke-width: 0.8"/>
      </defs>
      <g>
       <use xlink:href="#md467370986" x="73.832727" y="307.584" style="stroke: #000000; stroke-width: 0.8"/>
      </g>
     </g>
     <g id="text_1">
      <!-- 0 -->
      <g transform="translate(70.651477 322.182437) scale(0.1 -0.1)">
       <defs>
        <path id="DejaVuSans-30" d="M 2034 4250 
Q 1547 4250 1301 3770 
Q 1056 3291 1056 2328 
Q 1056 1369 1301 889 
Q 1547 409 2034 409 
Q 2525 409 2770 889 
Q 3016 1369 3016 2328 
Q 3016 3291 2770 3770 
Q 2525 4250 2034 4250 
z
M 2034 4750 
Q 2819 4750 3233 4129 
Q 3647 3509 3647 2328 
Q 3647 1150 3233 529 
Q 2819 -91 2034 -91 
Q 1250 -91 836 529 
Q 422 1150 422 2328 
Q 422 3509 836 4129 
Q 1250 4750 2034 4750 
z
" transform="scale(0.015625)"/>
       </defs>
       <use xlink:href="#DejaVuSans-30"/>
      </g>
     </g>
    </g>
    <g id="xtick_2">
     <g id="line2d_2">
      <g>
       <use xlink:href="#md467370986" x="114.414545" y="307.584" style="stroke: #000000; stroke-width: 0.8"/>
      </g>
     </g>
     <g id="text_2">
      <!-- 100 -->
      <g transform="translate(104.870795 322.182437) scale(0.1 -0.1)">
       <defs>
        <path id="DejaVuSans-31" d="M 794 531 
L 1825 531 
L 1825 4091 
L 703 3866 
L 703 4441 
L 1819 4666 
L 2450 4666 
L 2450 531 
L 3481 531 
L 3481 0 
L 794 0 
L 794 531 
z
" transform="scale(0.015625)"/>
       </defs>
       <use xlink:href="#DejaVuSans-31"/>
       <use xlink:href="#DejaVuSans-30" transform="translate(63.623047 0)"/>
       <use xlink:href="#DejaVuSans-30" transform="translate(127.246094 0)"/>
      </g>
     </g>
    </g>
    <g id="xtick_3">
     <g id="line2d_3">
      <g>
       <use xlink:href="#md467370986" x="154.996364" y="307.584" style="stroke: #000000; stroke-width: 0.8"/>
      </g>
     </g>
     <g id="text_3">
      <!-- 200 -->
      <g transform="translate(145.452614 322.182437) scale(0.1 -0.1)">
       <defs>
        <path id="DejaVuSans-32" d="M 1228 531 
L 3431 531 
L 3431 0 
L 469 0 
L 469 531 
Q 828 903 1448 1529 
Q 2069 2156 2228 2338 
Q 2531 2678 2651 2914 
Q 2772 3150 2772 3378 
Q 2772 3750 2511 3984 
Q 2250 4219 1831 4219 
Q 1534 4219 1204 4116 
Q 875 4013 500 3803 
L 500 4441 
Q 881 4594 1212 4672 
Q 1544 4750 1819 4750 
Q 2544 4750 2975 4387 
Q 3406 4025 3406 3419 
Q 3406 3131 3298 2873 
Q 3191 2616 2906 2266 
Q 2828 2175 2409 1742 
Q 1991 1309 1228 531 
z
" transform="scale(0.015625)"/>
       </defs>
       <use xlink:href="#DejaVuSans-32"/>
       <use xlink:href="#DejaVuSans-30" transform="translate(63.623047 0)"/>
       <use xlink:href="#DejaVuSans-30" transform="translate(127.246094 0)"/>
      </g>
     </g>
    </g>
    <g id="xtick_4">
     <g id="line2d_4">
      <g>
       <use xlink:href="#md467370986" x="195.578182" y="307.584" style="stroke: #000000; stroke-width: 0.8"/>
      </g>
     </g>
     <g id="text_4">
      <!-- 300 -->
      <g transform="translate(186.034432 322.182437) scale(0.1 -0.1)">
       <defs>
        <path id="DejaVuSans-33" d="M 2597 2516 
Q 3050 2419 3304 2112 
Q 3559 1806 3559 1356 
Q 3559 666 3084 287 
Q 2609 -91 1734 -91 
Q 1441 -91 1130 -33 
Q 819 25 488 141 
L 488 750 
Q 750 597 1062 519 
Q 1375 441 1716 441 
Q 2309 441 2620 675 
Q 2931 909 2931 1356 
Q 2931 1769 2642 2001 
Q 2353 2234 1838 2234 
L 1294 2234 
L 1294 2753 
L 1863 2753 
Q 2328 2753 2575 2939 
Q 2822 3125 2822 3475 
Q 2822 3834 2567 4026 
Q 2313 4219 1838 4219 
Q 1578 4219 1281 4162 
Q 984 4106 628 3988 
L 628 4550 
Q 988 4650 1302 4700 
Q 1616 4750 1894 4750 
Q 2613 4750 3031 4423 
Q 3450 4097 3450 3541 
Q 3450 3153 3228 2886 
Q 3006 2619 2597 2516 
z
" transform="scale(0.015625)"/>
       </defs>
       <use xlink:href="#DejaVuSans-33"/>
       <use xlink:href="#DejaVuSans-30" transform="translate(63.623047 0)"/>
       <use xlink:href="#DejaVuSans-30" transform="translate(127.246094 0)"/>
      </g>
     </g>
    </g>
    <g id="xtick_5">
     <g id="line2d_5">
      <g>
       <use xlink:href="#md467370986" x="236.16" y="307.584" style="stroke: #000000; stroke-width: 0.8"/>
      </g>
     </g>
     <g id="text_5">
      <!-- 400 -->
      <g transform="translate(226.61625 322.182437) scale(0.1 -0.1)">
       <defs>
        <path id="DejaVuSans-34" d="M 2419 4116 
L 825 1625 
L 2419 1625 
L 2419 4116 
z
M 2253 4666 
L 3047 4666 
L 3047 1625 
L 3713 1625 
L 3713 1100 
L 3047 1100 
L 3047 0 
L 2419 0 
L 2419 1100 
L 313 1100 
L 313 1709 
L 2253 4666 
z
" transform="scale(0.015625)"/>
       </defs>
       <use xlink:href="#DejaVuSans-34"/>
       <use xlink:href="#DejaVuSans-30" transform="translate(63.623047 0)"/>
       <use xlink:href="#DejaVuSans-30" transform="translate(127.246094 0)"/>
      </g>
     </g>
    </g>
    <g id="xtick_6">
     <g id="line2d_6">
      <g>
       <use xlink:href="#md467370986" x="276.741818" y="307.584" style="stroke: #000000; stroke-width: 0.8"/>
      </g>
     </g>
     <g id="text_6">
      <!-- 500 -->
      <g transform="translate(267.198068 322.182437) scale(0.1 -0.1)">
       <defs>
        <path id="DejaVuSans-35" d="M 691 4666 
L 3169 4666 
L 3169 4134 
L 1269 4134 
L 1269 2991 
Q 1406 3038 1543 3061 
Q 1681 3084 1819 3084 
Q 2600 3084 3056 2656 
Q 3513 2228 3513 1497 
Q 3513 744 3044 326 
Q 2575 -91 1722 -91 
Q 1428 -91 1123 -41 
Q 819 9 494 109 
L 494 744 
Q 775 591 1075 516 
Q 1375 441 1709 441 
Q 2250 441 2565 725 
Q 2881 1009 2881 1497 
Q 2881 1984 2565 2268 
Q 2250 2553 1709 2553 
Q 1456 2553 1204 2497 
Q 953 2441 691 2322 
L 691 4666 
z
" transform="scale(0.015625)"/>
       </defs>
       <use xlink:href="#DejaVuSans-35"/>
       <use xlink:href="#DejaVuSans-30" transform="translate(63.623047 0)"/>
       <use xlink:href="#DejaVuSans-30" transform="translate(127.246094 0)"/>
      </g>
     </g>
    </g>
    <g id="xtick_7">
     <g id="line2d_7">
      <g>
       <use xlink:href="#md467370986" x="317.323636" y="307.584" style="stroke: #000000; stroke-width: 0.8"/>
      </g>
     </g>
     <g id="text_7">
      <!-- 600 -->
      <g transform="translate(307.779886 322.182437) scale(0.1 -0.1)">
       <defs>
        <path id="DejaVuSans-36" d="M 2113 2584 
Q 1688 2584 1439 2293 
Q 1191 2003 1191 1497 
Q 1191 994 1439 701 
Q 1688 409 2113 409 
Q 2538 409 2786 701 
Q 3034 994 3034 1497 
Q 3034 2003 2786 2293 
Q 2538 2584 2113 2584 
z
M 3366 4563 
L 3366 3988 
Q 3128 4100 2886 4159 
Q 2644 4219 2406 4219 
Q 1781 4219 1451 3797 
Q 1122 3375 1075 2522 
Q 1259 2794 1537 2939 
Q 1816 3084 2150 3084 
Q 2853 3084 3261 2657 
Q 3669 2231 3669 1497 
Q 3669 778 3244 343 
Q 2819 -91 2113 -91 
Q 1303 -91 875 529 
Q 447 1150 447 2328 
Q 447 3434 972 4092 
Q 1497 4750 2381 4750 
Q 2619 4750 2861 4703 
Q 3103 4656 3366 4563 
z
" transform="scale(0.015625)"/>
       </defs>
       <use xlink:href="#DejaVuSans-36"/>
       <use xlink:href="#DejaVuSans-30" transform="translate(63.623047 0)"/>
       <use xlink:href="#DejaVuSans-30" transform="translate(127.246094 0)"/>
      </g>
     </g>
    </g>
    <g id="xtick_8">
     <g id="line2d_8">
      <g>
       <use xlink:href="#md467370986" x="357.905455" y="307.584" style="stroke: #000000; stroke-width: 0.8"/>
      </g>
     </g>
     <g id="text_8">
      <!-- 700 -->
      <g transform="translate(348.361705 322.182437) scale(0.1 -0.1)">
       <defs>
        <path id="DejaVuSans-37" d="M 525 4666 
L 3525 4666 
L 3525 4397 
L 1831 0 
L 1172 0 
L 2766 4134 
L 525 4134 
L 525 4666 
z
" transform="scale(0.015625)"/>
       </defs>
       <use xlink:href="#DejaVuSans-37"/>
       <use xlink:href="#DejaVuSans-30" transform="translate(63.623047 0)"/>
       <use xlink:href="#DejaVuSans-30" transform="translate(127.246094 0)"/>
      </g>
     </g>
    </g>
    <g id="xtick_9">
     <g id="line2d_9">
      <g>
       <use xlink:href="#md467370986" x="398.487273" y="307.584" style="stroke: #000000; stroke-width: 0.8"/>
      </g>
     </g>
     <g id="text_9">
      <!-- 800 -->
      <g transform="translate(388.943523 322.182437) scale(0.1 -0.1)">
       <defs>
        <path id="DejaVuSans-38" d="M 2034 2216 
Q 1584 2216 1326 1975 
Q 1069 1734 1069 1313 
Q 1069 891 1326 650 
Q 1584 409 2034 409 
Q 2484 409 2743 651 
Q 3003 894 3003 1313 
Q 3003 1734 2745 1975 
Q 2488 2216 2034 2216 
z
M 1403 2484 
Q 997 2584 770 2862 
Q 544 3141 544 3541 
Q 544 4100 942 4425 
Q 1341 4750 2034 4750 
Q 2731 4750 3128 4425 
Q 3525 4100 3525 3541 
Q 3525 3141 3298 2862 
Q 3072 2584 2669 2484 
Q 3125 2378 3379 2068 
Q 3634 1759 3634 1313 
Q 3634 634 3220 271 
Q 2806 -91 2034 -91 
Q 1263 -91 848 271 
Q 434 634 434 1313 
Q 434 1759 690 2068 
Q 947 2378 1403 2484 
z
M 1172 3481 
Q 1172 3119 1398 2916 
Q 1625 2713 2034 2713 
Q 2441 2713 2670 2916 
Q 2900 3119 2900 3481 
Q 2900 3844 2670 4047 
Q 2441 4250 2034 4250 
Q 1625 4250 1398 4047 
Q 1172 3844 1172 3481 
z
" transform="scale(0.015625)"/>
       </defs>
       <use xlink:href="#DejaVuSans-38"/>
       <use xlink:href="#DejaVuSans-30" transform="translate(63.623047 0)"/>
       <use xlink:href="#DejaVuSans-30" transform="translate(127.246094 0)"/>
      </g>
     </g>
    </g>
    <g id="text_10">
     <!-- Temperature ($^{\circ}C$) -->
     <g transform="translate(192.16 335.862125) scale(0.1 -0.1)">
      <defs>
       <path id="DejaVuSans-54" d="M -19 4666 
L 3928 4666 
L 3928 4134 
L 2272 4134 
L 2272 0 
L 1638 0 
L 1638 4134 
L -19 4134 
L -19 4666 
z
" transform="scale(0.015625)"/>
       <path id="DejaVuSans-65" d="M 3597 1894 
L 3597 1613 
L 953 1613 
Q 991 1019 1311 708 
Q 1631 397 2203 397 
Q 2534 397 2845 478 
Q 3156 559 3463 722 
L 3463 178 
Q 3153 47 2828 -22 
Q 2503 -91 2169 -91 
Q 1331 -91 842 396 
Q 353 884 353 1716 
Q 353 2575 817 3079 
Q 1281 3584 2069 3584 
Q 2775 3584 3186 3129 
Q 3597 2675 3597 1894 
z
M 3022 2063 
Q 3016 2534 2758 2815 
Q 2500 3097 2075 3097 
Q 1594 3097 1305 2825 
Q 1016 2553 972 2059 
L 3022 2063 
z
" transform="scale(0.015625)"/>
       <path id="DejaVuSans-6d" d="M 3328 2828 
Q 3544 3216 3844 3400 
Q 4144 3584 4550 3584 
Q 5097 3584 5394 3201 
Q 5691 2819 5691 2113 
L 5691 0 
L 5113 0 
L 5113 2094 
Q 5113 2597 4934 2840 
Q 4756 3084 4391 3084 
Q 3944 3084 3684 2787 
Q 3425 2491 3425 1978 
L 3425 0 
L 2847 0 
L 2847 2094 
Q 2847 2600 2669 2842 
Q 2491 3084 2119 3084 
Q 1678 3084 1418 2786 
Q 1159 2488 1159 1978 
L 1159 0 
L 581 0 
L 581 3500 
L 1159 3500 
L 1159 2956 
Q 1356 3278 1631 3431 
Q 1906 3584 2284 3584 
Q 2666 3584 2933 3390 
Q 3200 3197 3328 2828 
z
" transform="scale(0.015625)"/>
       <path id="DejaVuSans-70" d="M 1159 525 
L 1159 -1331 
L 581 -1331 
L 581 3500 
L 1159 3500 
L 1159 2969 
Q 1341 3281 1617 3432 
Q 1894 3584 2278 3584 
Q 2916 3584 3314 3078 
Q 3713 2572 3713 1747 
Q 3713 922 3314 415 
Q 2916 -91 2278 -91 
Q 1894 -91 1617 61 
Q 1341 213 1159 525 
z
M 3116 1747 
Q 3116 2381 2855 2742 
Q 2594 3103 2138 3103 
Q 1681 3103 1420 2742 
Q 1159 2381 1159 1747 
Q 1159 1113 1420 752 
Q 1681 391 2138 391 
Q 2594 391 2855 752 
Q 3116 1113 3116 1747 
z
" transform="scale(0.015625)"/>
       <path id="DejaVuSans-72" d="M 2631 2963 
Q 2534 3019 2420 3045 
Q 2306 3072 2169 3072 
Q 1681 3072 1420 2755 
Q 1159 2438 1159 1844 
L 1159 0 
L 581 0 
L 581 3500 
L 1159 3500 
L 1159 2956 
Q 1341 3275 1631 3429 
Q 1922 3584 2338 3584 
Q 2397 3584 2469 3576 
Q 2541 3569 2628 3553 
L 2631 2963 
z
" transform="scale(0.015625)"/>
       <path id="DejaVuSans-61" d="M 2194 1759 
Q 1497 1759 1228 1600 
Q 959 1441 959 1056 
Q 959 750 1161 570 
Q 1363 391 1709 391 
Q 2188 391 2477 730 
Q 2766 1069 2766 1631 
L 2766 1759 
L 2194 1759 
z
M 3341 1997 
L 3341 0 
L 2766 0 
L 2766 531 
Q 2569 213 2275 61 
Q 1981 -91 1556 -91 
Q 1019 -91 701 211 
Q 384 513 384 1019 
Q 384 1609 779 1909 
Q 1175 2209 1959 2209 
L 2766 2209 
L 2766 2266 
Q 2766 2663 2505 2880 
Q 2244 3097 1772 3097 
Q 1472 3097 1187 3025 
Q 903 2953 641 2809 
L 641 3341 
Q 956 3463 1253 3523 
Q 1550 3584 1831 3584 
Q 2591 3584 2966 3190 
Q 3341 2797 3341 1997 
z
" transform="scale(0.015625)"/>
       <path id="DejaVuSans-74" d="M 1172 4494 
L 1172 3500 
L 2356 3500 
L 2356 3053 
L 1172 3053 
L 1172 1153 
Q 1172 725 1289 603 
Q 1406 481 1766 481 
L 2356 481 
L 2356 0 
L 1766 0 
Q 1100 0 847 248 
Q 594 497 594 1153 
L 594 3053 
L 172 3053 
L 172 3500 
L 594 3500 
L 594 4494 
L 1172 4494 
z
" transform="scale(0.015625)"/>
       <path id="DejaVuSans-75" d="M 544 1381 
L 544 3500 
L 1119 3500 
L 1119 1403 
Q 1119 906 1312 657 
Q 1506 409 1894 409 
Q 2359 409 2629 706 
Q 2900 1003 2900 1516 
L 2900 3500 
L 3475 3500 
L 3475 0 
L 2900 0 
L 2900 538 
Q 2691 219 2414 64 
Q 2138 -91 1772 -91 
Q 1169 -91 856 284 
Q 544 659 544 1381 
z
M 1991 3584 
L 1991 3584 
z
" transform="scale(0.015625)"/>
       <path id="DejaVuSans-20" transform="scale(0.015625)"/>
       <path id="DejaVuSans-28" d="M 1984 4856 
Q 1566 4138 1362 3434 
Q 1159 2731 1159 2009 
Q 1159 1288 1364 580 
Q 1569 -128 1984 -844 
L 1484 -844 
Q 1016 -109 783 600 
Q 550 1309 550 2009 
Q 550 2706 781 3412 
Q 1013 4119 1484 4856 
L 1984 4856 
z
" transform="scale(0.015625)"/>
       <path id="DejaVuSans-2218" d="M 2000 2619 
Q 1750 2619 1578 2445 
Q 1406 2272 1406 2022 
Q 1406 1775 1578 1605 
Q 1750 1435 2000 1435 
Q 2250 1435 2422 1605 
Q 2594 1775 2594 2022 
Q 2594 2269 2420 2444 
Q 2247 2619 2000 2619 
z
M 2000 3022 
Q 2200 3022 2384 2945 
Q 2569 2869 2703 2725 
Q 2847 2585 2919 2406 
Q 2991 2228 2991 2022 
Q 2991 1610 2702 1324 
Q 2413 1038 1994 1038 
Q 1572 1038 1290 1319 
Q 1009 1600 1009 2022 
Q 1009 2441 1296 2731 
Q 1584 3022 2000 3022 
z
" transform="scale(0.015625)"/>
       <path id="DejaVuSans-Oblique-43" d="M 4447 4306 
L 4319 3641 
Q 4019 3944 3683 4091 
Q 3347 4238 2956 4238 
Q 2422 4238 2017 3981 
Q 1613 3725 1319 3200 
Q 1131 2863 1032 2486 
Q 934 2109 934 1728 
Q 934 1091 1264 756 
Q 1594 422 2222 422 
Q 2656 422 3056 561 
Q 3456 700 3834 978 
L 3688 231 
Q 3316 72 2936 -9 
Q 2556 -91 2175 -91 
Q 1278 -91 773 396 
Q 269 884 269 1753 
Q 269 2309 461 2846 
Q 653 3384 1013 3828 
Q 1394 4300 1883 4525 
Q 2372 4750 3022 4750 
Q 3422 4750 3780 4639 
Q 4138 4528 4447 4306 
z
" transform="scale(0.015625)"/>
       <path id="DejaVuSans-29" d="M 513 4856 
L 1013 4856 
Q 1481 4119 1714 3412 
Q 1947 2706 1947 2009 
Q 1947 1309 1714 600 
Q 1481 -109 1013 -844 
L 513 -844 
Q 928 -128 1133 580 
Q 1338 1288 1338 2009 
Q 1338 2731 1133 3434 
Q 928 4138 513 4856 
z
" transform="scale(0.015625)"/>
      </defs>
      <use xlink:href="#DejaVuSans-54" transform="translate(0 0.125)"/>
      <use xlink:href="#DejaVuSans-65" transform="translate(61.083984 0.125)"/>
      <use xlink:href="#DejaVuSans-6d" transform="translate(122.607422 0.125)"/>
      <use xlink:href="#DejaVuSans-70" transform="translate(220.019531 0.125)"/>
      <use xlink:href="#DejaVuSans-65" transform="translate(283.496094 0.125)"/>
      <use xlink:href="#DejaVuSans-72" transform="translate(345.019531 0.125)"/>
      <use xlink:href="#DejaVuSans-61" transform="translate(386.132812 0.125)"/>
      <use xlink:href="#DejaVuSans-74" transform="translate(447.412109 0.125)"/>
      <use xlink:href="#DejaVuSans-75" transform="translate(486.621094 0.125)"/>
      <use xlink:href="#DejaVuSans-72" transform="translate(550 0.125)"/>
      <use xlink:href="#DejaVuSans-65" transform="translate(591.113281 0.125)"/>
      <use xlink:href="#DejaVuSans-20" transform="translate(652.636719 0.125)"/>
      <use xlink:href="#DejaVuSans-28" transform="translate(684.423828 0.125)"/>
      <use xlink:href="#DejaVuSans-2218" transform="translate(724.394531 38.40625) scale(0.7)"/>
      <use xlink:href="#DejaVuSans-Oblique-43" transform="translate(770.947266 0.125)"/>
      <use xlink:href="#DejaVuSans-29" transform="translate(840.771484 0.125)"/>
     </g>
    </g>
   </g>
   <g id="matplotlib.axis_2">
    <g id="ytick_1">
     <g id="line2d_10">
      <defs>
       <path id="mede463f3e4" d="M 0 0 
L -3.5 0 
" style="stroke: #000000; stroke-width: 0.8"/>
      </defs>
      <g>
       <use xlink:href="#mede463f3e4" x="57.6" y="295.488" style="stroke: #000000; stroke-width: 0.8"/>
      </g>
     </g>
     <g id="text_11">
      <!-- 0 -->
      <g transform="translate(44.2375 299.287219) scale(0.1 -0.1)">
       <use xlink:href="#DejaVuSans-30"/>
      </g>
     </g>
    </g>
    <g id="ytick_2">
     <g id="line2d_11">
      <g>
       <use xlink:href="#mede463f3e4" x="57.6" y="241.699103" style="stroke: #000000; stroke-width: 0.8"/>
      </g>
     </g>
     <g id="text_12">
      <!-- 1 -->
      <g transform="translate(44.2375 245.498322) scale(0.1 -0.1)">
       <use xlink:href="#DejaVuSans-31"/>
      </g>
     </g>
    </g>
    <g id="ytick_3">
     <g id="line2d_12">
      <g>
       <use xlink:href="#mede463f3e4" x="57.6" y="187.910207" style="stroke: #000000; stroke-width: 0.8"/>
      </g>
     </g>
     <g id="text_13">
      <!-- 2 -->
      <g transform="translate(44.2375 191.709426) scale(0.1 -0.1)">
       <use xlink:href="#DejaVuSans-32"/>
      </g>
     </g>
    </g>
    <g id="ytick_4">
     <g id="line2d_13">
      <g>
       <use xlink:href="#mede463f3e4" x="57.6" y="134.12131" style="stroke: #000000; stroke-width: 0.8"/>
      </g>
     </g>
     <g id="text_14">
      <!-- 3 -->
      <g transform="translate(44.2375 137.920529) scale(0.1 -0.1)">
       <use xlink:href="#DejaVuSans-33"/>
      </g>
     </g>
    </g>
    <g id="ytick_5">
     <g id="line2d_14">
      <g>
       <use xlink:href="#mede463f3e4" x="57.6" y="80.332414" style="stroke: #000000; stroke-width: 0.8"/>
      </g>
     </g>
     <g id="text_15">
      <!-- 4 -->
      <g transform="translate(44.2375 84.131632) scale(0.1 -0.1)">
       <use xlink:href="#DejaVuSans-34"/>
      </g>
     </g>
    </g>
    <g id="text_16">
     <!-- Intensity ($^{\circ}C^{-1}$) -->
     <g transform="translate(38.1375 213.328) rotate(-90) scale(0.1 -0.1)">
      <defs>
       <path id="DejaVuSans-49" d="M 628 4666 
L 1259 4666 
L 1259 0 
L 628 0 
L 628 4666 
z
" transform="scale(0.015625)"/>
       <path id="DejaVuSans-6e" d="M 3513 2113 
L 3513 0 
L 2938 0 
L 2938 2094 
Q 2938 2591 2744 2837 
Q 2550 3084 2163 3084 
Q 1697 3084 1428 2787 
Q 1159 2491 1159 1978 
L 1159 0 
L 581 0 
L 581 3500 
L 1159 3500 
L 1159 2956 
Q 1366 3272 1645 3428 
Q 1925 3584 2291 3584 
Q 2894 3584 3203 3211 
Q 3513 2838 3513 2113 
z
" transform="scale(0.015625)"/>
       <path id="DejaVuSans-73" d="M 2834 3397 
L 2834 2853 
Q 2591 2978 2328 3040 
Q 2066 3103 1784 3103 
Q 1356 3103 1142 2972 
Q 928 2841 928 2578 
Q 928 2378 1081 2264 
Q 1234 2150 1697 2047 
L 1894 2003 
Q 2506 1872 2764 1633 
Q 3022 1394 3022 966 
Q 3022 478 2636 193 
Q 2250 -91 1575 -91 
Q 1294 -91 989 -36 
Q 684 19 347 128 
L 347 722 
Q 666 556 975 473 
Q 1284 391 1588 391 
Q 1994 391 2212 530 
Q 2431 669 2431 922 
Q 2431 1156 2273 1281 
Q 2116 1406 1581 1522 
L 1381 1569 
Q 847 1681 609 1914 
Q 372 2147 372 2553 
Q 372 3047 722 3315 
Q 1072 3584 1716 3584 
Q 2034 3584 2315 3537 
Q 2597 3491 2834 3397 
z
" transform="scale(0.015625)"/>
       <path id="DejaVuSans-69" d="M 603 3500 
L 1178 3500 
L 1178 0 
L 603 0 
L 603 3500 
z
M 603 4863 
L 1178 4863 
L 1178 4134 
L 603 4134 
L 603 4863 
z
" transform="scale(0.015625)"/>
       <path id="DejaVuSans-79" d="M 2059 -325 
Q 1816 -950 1584 -1140 
Q 1353 -1331 966 -1331 
L 506 -1331 
L 506 -850 
L 844 -850 
Q 1081 -850 1212 -737 
Q 1344 -625 1503 -206 
L 1606 56 
L 191 3500 
L 800 3500 
L 1894 763 
L 2988 3500 
L 3597 3500 
L 2059 -325 
z
" transform="scale(0.015625)"/>
       <path id="DejaVuSans-2212" d="M 678 2272 
L 4684 2272 
L 4684 1741 
L 678 1741 
L 678 2272 
z
" transform="scale(0.015625)"/>
      </defs>
      <use xlink:href="#DejaVuSans-49" transform="translate(0 0.684375)"/>
      <use xlink:href="#DejaVuSans-6e" transform="translate(29.492188 0.684375)"/>
      <use xlink:href="#DejaVuSans-74" transform="translate(92.871094 0.684375)"/>
      <use xlink:href="#DejaVuSans-65" transform="translate(132.080078 0.684375)"/>
      <use xlink:href="#DejaVuSans-6e" transform="translate(193.603516 0.684375)"/>
      <use xlink:href="#DejaVuSans-73" transform="translate(256.982422 0.684375)"/>
      <use xlink:href="#DejaVuSans-69" transform="translate(309.082031 0.684375)"/>
      <use xlink:href="#DejaVuSans-74" transform="translate(336.865234 0.684375)"/>
      <use xlink:href="#DejaVuSans-79" transform="translate(376.074219 0.684375)"/>
      <use xlink:href="#DejaVuSans-20" transform="translate(435.253906 0.684375)"/>
      <use xlink:href="#DejaVuSans-28" transform="translate(467.041016 0.684375)"/>
      <use xlink:href="#DejaVuSans-2218" transform="translate(507.011719 38.965625) scale(0.7)"/>
      <use xlink:href="#DejaVuSans-Oblique-43" transform="translate(553.564453 0.684375)"/>
      <use xlink:href="#DejaVuSans-2212" transform="translate(630.589193 38.965625) scale(0.7)"/>
      <use xlink:href="#DejaVuSans-31" transform="translate(689.241536 38.965625) scale(0.7)"/>
      <use xlink:href="#DejaVuSans-29" transform="translate(736.512044 0.684375)"/>
     </g>
    </g>
    <g id="text_17">
     <!-- 1e7 -->
     <g transform="translate(57.6 38.472) scale(0.1 -0.1)">
      <use xlink:href="#DejaVuSans-31"/>
      <use xlink:href="#DejaVuSans-65" transform="translate(63.623047 0)"/>
      <use xlink:href="#DejaVuSans-37" transform="translate(125.146484 0)"/>
     </g>
    </g>
   </g>
   <g id="line2d_15">
    <path d="M 73.832727 295.488 
L 128.01419 295.379911 
L 128.160286 295.37776 
L 128.598575 295.369718 
L 128.756847 295.368454 
L 129.885035 295.340914 
L 130.140704 295.332685 
L 134.872603 295.198885 
L 134.986234 295.183313 
L 134.99435 295.194662 
L 135.367707 295.174411 
L 135.489454 295.175513 
L 135.493513 295.170457 
L 136.268635 295.146414 
L 136.435023 295.1409 
L 136.633876 295.130142 
L 136.763739 295.131756 
L 136.893603 295.116668 
L 137.023466 295.121913 
L 137.165504 295.108143 
L 137.356241 295.105884 
L 137.583502 295.09682 
L 137.72554 295.093485 
L 137.847287 295.076407 
L 137.855404 295.082674 
L 138.204412 295.068339 
L 138.338334 295.065327 
L 138.456022 295.064332 
L 138.662992 295.048168 
L 138.788797 295.048867 
L 138.792856 295.041875 
L 138.938952 295.046339 
L 139.064757 295.037679 
L 139.202737 295.039347 
L 139.312309 295.024151 
L 139.324484 295.031494 
L 139.588269 295.015196 
L 139.831763 295.007665 
L 140.034675 294.995025 
L 140.201062 294.992954 
L 140.339042 294.984401 
L 140.817914 294.967431 
L 141.382008 294.942231 
L 141.58492 294.934243 
L 141.812181 294.916332 
L 141.921753 294.924965 
L 141.929869 294.920769 
L 142.22612 294.903772 
L 142.449323 294.894655 
L 142.575128 294.891562 
L 142.863263 294.873381 
L 142.976893 294.887366 
L 142.98501 294.868782 
L 144.129431 294.826666 
L 144.234945 294.809776 
L 144.243062 294.818866 
L 144.624536 294.803644 
L 144.863972 294.797727 
L 144.98166 294.781832 
L 145.14399 294.780326 
L 146.430449 294.724171 
L 146.552196 294.71941 
L 146.702351 294.717313 
L 146.803807 294.700262 
L 146.82004 294.706501 
L 147.696618 294.666966 
L 147.818365 294.678262 
L 147.822423 294.671135 
L 147.936054 294.648194 
L 147.940112 294.664035 
L 148.134907 294.643192 
L 148.236363 294.654245 
L 148.143023 294.633402 
L 148.248537 294.640018 
L 148.35811 294.640045 
L 148.362168 294.634236 
L 148.475798 294.634962 
L 148.370284 294.643945 
L 148.479857 294.64069 
L 149.737909 294.584212 
L 149.855598 294.582948 
L 149.750084 294.574665 
L 149.859656 294.572567 
L 150.026043 294.561083 
L 150.131557 294.57765 
L 150.151849 294.566973 
L 150.24113 294.549195 
L 150.265479 294.561621 
L 150.403459 294.556753 
L 150.407517 294.549061 
L 150.825515 294.532413 
L 151.186698 294.516895 
L 151.312503 294.517702 
L 151.584405 294.510467 
L 151.706152 294.496966 
L 151.880656 294.493712 
L 151.990228 294.473999 
L 152.006461 294.484407 
L 152.19314 294.475021 
L 152.30677 294.480399 
L 152.310828 294.47849 
L 153.487716 294.423329 
L 153.63787 294.424351 
L 153.755559 294.402271 
L 153.877306 294.41518 
L 153.990937 294.399474 
L 153.994995 294.407623 
L 154.165441 294.389792 
L 154.173557 294.400227 
L 154.307479 294.395144 
L 154.421109 294.379922 
L 154.433284 294.373386 
L 154.538798 294.39068 
L 154.64837 294.367873 
L 154.660545 294.38288 
L 154.932446 294.356793 
L 155.037961 294.366071 
L 155.046077 294.357277 
L 155.184057 294.353511 
L 155.33827 294.366528 
L 155.346386 294.352194 
L 155.460017 294.329629 
L 155.569589 294.343587 
L 155.573647 294.337482 
L 158.471225 294.233051 
L 158.4834 294.21791 
L 158.601089 294.226973 
L 158.726894 294.220384 
L 158.73501 294.226355 
L 159.696811 294.181898 
L 159.704928 294.198761 
L 159.879432 294.175228 
L 160.02147 294.174314 
L 160.155392 294.161808 
L 160.273081 294.166703 
L 162.091169 294.089811 
L 162.204799 294.111919 
L 162.306255 294.087149 
L 162.322488 294.099332 
L 162.464526 294.078166 
L 162.472643 294.087552 
L 162.553807 294.097826 
L 162.492934 294.083088 
L 162.582215 294.080667 
L 162.712078 294.08645 
L 162.813534 294.070447 
L 162.732369 294.096293 
L 162.825709 294.076526 
L 162.935281 294.086019 
L 162.837883 294.067516 
L 162.939339 294.072707 
L 162.947456 294.080479 
L 163.061086 294.070313 
L 163.178775 294.082281 
L 163.288347 294.059555 
L 163.300522 294.066709 
L 163.742869 294.04877 
L 163.860558 294.037609 
L 163.864616 294.051729 
L 164.087819 294.051003 
L 164.197391 294.030294 
L 164.205508 294.039384 
L 164.485526 294.025399 
L 164.509875 294.007353 
L 164.607273 294.032957 
L 164.615389 294.035565 
L 164.724962 294.016901 
L 164.940048 294.016309 
L 165.167309 293.999984 
L 165.171367 294.012113 
L 165.284998 294.010984 
L 165.179484 294.001382 
L 165.293114 294.001598 
L 166.559283 293.967845 
L 166.640447 293.954425 
L 166.595807 293.978603 
L 166.668855 293.962708 
L 166.770311 293.975994 
L 166.786544 293.964456 
L 166.79466 293.984278 
L 166.912349 293.950256 
L 167.025979 293.96728 
L 167.030038 293.955931 
L 167.123377 293.941811 
L 167.054387 293.969566 
L 167.13961 293.950122 
L 167.25324 293.957867 
L 167.370929 293.935626 
L 167.472385 293.96018 
L 167.48456 293.942618 
L 167.825451 293.934093 
L 167.939082 293.941085 
L 168.052712 293.920941 
L 168.186634 293.92086 
L 168.409837 293.92597 
L 168.413895 293.91524 
L 168.422011 293.923577 
L 168.543758 293.910641 
L 168.596515 293.92831 
L 168.653331 293.90857 
L 168.819718 293.900098 
L 168.941465 293.910641 
L 169.063212 293.902976 
L 169.189017 293.909081 
L 169.306706 293.889367 
L 169.310764 293.896978 
L 169.416278 293.898242 
L 169.428453 293.885252 
L 172.062246 293.844104 
L 172.147469 293.82119 
L 172.175877 293.83383 
L 172.289507 293.840177 
L 172.192109 293.81686 
L 172.297624 293.833454 
L 172.455895 293.826165 
L 172.468069 293.809195 
L 172.614166 293.826945 
L 172.739971 293.816483 
L 172.853601 293.826999 
L 172.760262 293.804031 
L 172.85766 293.822481 
L 173.511035 293.808495 
L 173.620607 293.817747 
L 173.52321 293.798034 
L 173.624666 293.813471 
L 173.734238 293.795048 
L 173.746413 293.801879 
L 173.847868 293.812557 
L 173.758587 293.785555 
L 173.860043 293.795909 
L 174.079188 293.789535 
L 174.152236 293.81608 
L 174.095421 293.781225 
L 174.192818 293.791175 
L 174.322682 293.804461 
L 174.330798 293.7894 
L 174.797495 293.786012 
L 174.903009 293.776975 
L 174.911125 293.78109 
L 175.045047 293.779638 
L 175.17491 293.76775 
L 175.304774 293.787491 
L 175.422463 293.767213 
L 175.552326 293.778562 
L 175.674073 293.760059 
L 175.779587 293.774582 
L 175.787704 293.766191 
L 175.885101 293.747526 
L 175.79582 293.769499 
L 175.905392 293.76377 
L 176.786029 293.749543 
L 176.794145 293.756643 
L 176.903717 293.733272 
L 177.021406 293.75476 
L 177.159386 293.732492 
L 177.204027 293.764873 
L 177.273017 293.747284 
L 177.406938 293.734885 
L 177.524627 293.751829 
L 177.630141 293.733272 
L 177.642316 293.742281 
L 178.563535 293.733729 
L 178.669049 293.723133 
L 178.681223 293.727301 
L 179.058639 293.727005 
L 179.151978 293.719959 
L 179.172269 293.72558 
L 179.525336 293.707695 
L 179.622733 293.731416 
L 179.643024 293.716597 
L 179.748538 293.732035 
L 179.764771 293.719152 
L 179.772888 293.723778 
L 179.88246 293.702209 
L 179.9758 293.725795 
L 179.894635 293.692634 
L 179.992032 293.713988 
L 180.105663 293.694436 
L 180.207119 293.725445 
L 180.22741 293.712375 
L 180.235526 293.723966 
L 180.36539 293.697341 
L 180.592651 293.7138 
L 180.71034 293.687766 
L 180.815854 293.71579 
L 180.82397 293.704817 
L 180.990358 293.706216 
L 181.132396 293.693253 
L 181.229793 293.710062 
L 181.246026 293.700003 
L 181.384006 293.680747 
L 181.258201 293.712482 
L 181.388064 293.685373 
L 181.477346 293.70783 
L 181.501695 293.692796 
L 182.008974 293.693226 
L 182.114488 293.674561 
L 182.033323 293.713074 
L 182.122605 293.690778 
L 182.24841 293.704333 
L 182.378273 293.683894 
L 182.491904 293.700649 
L 182.504078 293.683705 
L 182.646117 293.697879 
L 182.812504 293.679994 
L 182.816562 293.686502 
L 182.938309 293.690752 
L 182.824679 293.671818 
L 182.946426 293.679886 
L 184.31405 293.675933 
L 184.334341 293.681473 
L 184.427681 293.668187 
L 184.52102 293.687417 
L 184.537253 293.671361 
L 184.654942 293.661356 
L 184.545369 293.680505 
L 184.659 293.668322 
L 185.718199 293.670796 
L 185.811538 293.65474 
L 185.726315 293.677466 
L 185.831829 293.673351 
L 185.92111 293.685964 
L 185.839946 293.664045 
L 185.949518 293.669021 
L 186.107789 293.658182 
L 185.957634 293.683947 
L 186.111847 293.666305 
L 186.736815 293.662459 
L 186.850445 293.655036 
L 186.858562 293.661975 
L 187.024949 293.663884 
L 187.114231 293.645192 
L 187.033066 293.669693 
L 187.13858 293.661383 
L 187.27656 293.663185 
L 187.394249 293.662889 
L 189.403074 293.652535 
L 189.423365 293.665283 
L 189.520762 293.648258 
L 189.646568 293.666062 
L 189.800781 293.664153 
L 189.804839 293.658478 
L 189.926586 293.648366 
L 190.011809 293.675502 
L 190.044274 293.665417 
L 190.263419 293.658693 
L 191.148114 293.662082 
L 191.245511 293.646591 
L 191.265802 293.664341 
L 191.415957 293.665094 
L 191.517413 293.652508 
L 191.428132 293.669397 
L 191.529588 293.658586 
L 191.667567 293.65197 
L 191.748732 293.672141 
L 191.781198 293.661383 
L 192.004401 293.655385 
L 192.101798 293.677493 
L 192.118031 293.653019 
L 192.126148 293.679644 
L 192.454865 293.664287 
L 192.471098 293.649603 
L 192.576612 293.672436 
L 192.714591 293.642772 
L 192.807931 293.673647 
L 192.83228 293.662243 
L 192.85663 293.672194 
L 192.945911 293.66028 
L 193.355792 293.659796 
L 193.473481 293.659877 
L 193.372025 293.677439 
L 193.477539 293.676013 
L 193.485656 293.662001 
L 193.63581 293.666977 
L 193.745383 293.659769 
L 193.668276 293.68583 
L 193.749441 293.663212 
L 193.757557 293.680639 
L 193.948294 293.653906 
L 194.04975 293.672571 
L 194.061925 293.661437 
L 194.167439 293.648635 
L 194.078158 293.674776 
L 194.183672 293.661168 
L 194.386583 293.674454 
L 194.492097 293.65872 
L 194.50833 293.67284 
L 194.520505 293.656004 
L 194.64631 293.675825 
L 194.658485 293.680397 
L 194.763999 293.662674 
L 194.881688 293.676901 
L 195.011551 293.667488 
L 195.027784 293.659231 
L 195.12924 293.687444 
L 195.230696 293.662405 
L 195.24287 293.66582 
L 195.4052 293.683947 
L 195.462015 293.647478 
L 195.514772 293.674185 
L 195.616228 293.692715 
L 195.539121 293.664126 
L 195.636519 293.681312 
L 195.924653 293.676928 
L 196.026109 293.659446 
L 195.936828 293.682065 
L 196.038284 293.667353 
L 196.155973 293.682199 
L 196.281778 293.666036 
L 196.285836 293.676766 
L 196.553679 293.664933 
L 196.671368 293.686206 
L 196.797173 293.673297 
L 197.101541 293.69215 
L 197.215171 293.669532 
L 197.328802 293.687632 
L 197.33286 293.684916 
L 197.434316 293.690805 
L 197.35721 293.671522 
L 197.450549 293.683947 
L 197.913187 293.686986 
L 197.933479 293.696373 
L 198.026818 293.680182 
L 198.083633 293.701079 
L 198.047109 293.673943 
L 198.140448 293.684512 
L 198.270312 293.692984 
L 198.465107 293.683947 
L 198.578738 293.698847 
L 198.696426 293.679644 
L 198.781649 293.704898 
L 198.810057 293.686368 
L 198.82629 293.679671 
L 198.919629 293.700218 
L 199.037318 293.68349 
L 199.053551 293.674212 
L 199.155007 293.703634 
L 199.236171 293.684216 
L 199.179356 293.711568 
L 199.268637 293.704387 
L 199.374151 293.680935 
L 199.390384 293.694087 
L 199.512131 293.700703 
L 199.617645 293.684862 
L 199.520247 293.706592 
L 199.625762 293.698067 
L 199.759683 293.702585 
L 199.861139 293.686368 
L 199.877372 293.708072 
L 200.145215 293.700568 
L 200.258846 293.686395 
L 200.153332 293.714553 
L 200.266962 293.703231 
L 200.275079 293.687793 
L 200.429292 293.708771 
L 201.094842 293.700864 
L 201.102958 293.698954 
L 201.208472 293.717189 
L 201.30587 293.704011 
L 201.228763 293.72835 
L 201.322103 293.712267 
L 201.545305 293.70592 
L 201.642703 293.725795 
L 201.658936 293.713585 
L 201.805032 293.711407 
L 201.910546 293.728054 
L 201.918663 293.71848 
L 201.967362 293.706189 
L 201.979536 293.738758 
L 202.028235 293.719152 
L 202.186506 293.727974 
L 202.287962 293.710815 
L 202.194623 293.732572 
L 202.300137 293.71649 
L 202.308253 293.707426 
L 202.45435 293.726064 
L 202.584213 293.719744 
L 202.701902 293.734536 
L 202.710018 293.724908 
L 203.951837 293.737763 
L 204.073584 293.736257 
L 204.560572 293.739968 
L 204.674203 293.753496 
L 204.678261 293.742792 
L 205.53049 293.761269 
L 205.688761 293.769714 
L 205.769926 293.744944 
L 205.802391 293.755406 
L 207.044211 293.766191 
L 207.153783 293.791444 
L 207.080735 293.756293 
L 207.157841 293.781628 
L 208.322554 293.778535 
L 208.436184 293.804945 
L 208.553873 293.782596 
L 208.687795 293.796716 
L 208.691853 293.791337 
L 209.418277 293.809921 
L 209.5035 293.7862 
L 209.531907 293.798114 
L 209.657712 293.816618 
L 209.544082 293.791471 
L 209.661771 293.810002 
L 209.815983 293.803816 
L 209.917439 293.816806 
L 209.925556 293.814708 
L 210.047303 293.807984 
L 210.051361 293.810351 
L 210.81025 293.83894 
L 210.919823 293.817344 
L 211.01722 293.83383 
L 211.029395 293.821862 
L 211.037511 293.833158 
L 211.147084 293.81616 
L 211.281005 293.844507 
L 211.289122 293.827106 
L 211.301297 293.835417 
L 211.406811 293.823018 
L 211.621897 293.836116 
L 211.767993 293.841226 
L 211.772052 293.834368 
L 211.995254 293.832996 
L 212.108885 293.845664 
L 212.214399 293.833023 
L 212.222515 293.838214 
L 212.356437 293.855561 
L 212.368612 293.839317 
L 212.518766 293.845556 
L 212.522825 293.850935 
L 212.770377 293.849832 
L 212.892124 293.855884 
L 212.78661 293.836815 
L 212.896182 293.853329 
L 213.444043 293.856986 
L 213.561732 293.87514 
L 213.646955 293.842221 
L 213.679421 293.855453 
L 213.79711 293.867341 
L 213.801168 293.864194 
L 213.983788 293.859649 
L 214.097419 293.874145 
L 214.101477 293.871886 
L 214.267865 293.864544 
L 214.377437 293.87826 
L 214.280039 293.859945 
L 214.381495 293.873446 
L 214.491067 293.865431 
L 214.413961 293.885817 
L 214.495126 293.867125 
L 214.698037 293.878098 
L 214.807609 293.867206 
L 214.706154 293.882563 
L 214.815726 293.87514 
L 215.018638 293.882213 
L 215.229666 293.877265 
L 215.347354 293.88848 
L 215.444752 293.867018 
L 215.465043 293.894262 
L 215.830284 293.897516 
L 215.943915 293.89402 
L 216.085953 293.909377 
L 216.175234 293.89012 
L 216.195525 293.898699 
L 216.309156 293.902841 
L 216.2077 293.879551 
L 216.313214 293.898457 
L 216.430902 293.893563 
L 216.32133 293.904751 
L 216.439019 293.905531 
L 216.755561 293.926589 
L 216.865133 293.904643 
L 216.869192 293.909888 
L 216.94224 293.892971 
L 216.885425 293.916019 
L 216.982822 293.912416 
L 217.161384 293.914352 
L 217.275015 293.913572 
L 217.279073 293.921049 
L 217.384587 293.931726 
L 217.28719 293.907575 
L 217.396762 293.921479 
L 217.587499 293.915428 
L 217.697071 293.932371 
L 217.705187 293.921049 
L 217.973031 293.929171 
L 217.989264 293.93576 
L 218.086661 293.925809 
L 218.285515 293.925782 
L 218.305806 293.945092 
L 218.415378 293.930865 
L 218.541183 293.938369 
L 218.634523 293.92156 
L 218.658872 293.932533 
L 218.796852 293.947325 
L 218.906424 293.941973 
L 218.910483 293.947647 
L 219.020055 293.951924 
L 218.918599 293.933447 
L 219.024113 293.943452 
L 219.312248 293.953779 
L 219.320364 293.958889 
L 219.433995 293.947459 
L 219.547625 293.957679 
L 219.442111 293.938934 
L 219.551683 293.945657 
L 219.738362 293.960315 
L 219.847934 293.954048 
L 219.758653 293.973816 
L 219.851993 293.961364 
L 220.302456 293.961444 
L 220.416087 293.96096 
L 220.314631 293.971368 
L 220.420145 293.969163 
L 220.5703 293.956012 
L 220.578416 293.969405 
L 220.870609 293.983659 
L 220.874667 293.972767 
L 221.381946 293.986322 
L 221.499635 293.978576 
L 221.503693 293.981776 
L 221.657906 293.994444 
L 221.661964 293.98694 
L 221.779653 293.979248 
L 221.885167 294.001382 
L 221.897342 293.988796 
L 222.023147 293.987209 
L 222.136777 294.000387 
L 222.258524 294.00028 
L 222.445203 294.004744 
L 222.550717 293.991351 
L 222.465494 294.011629 
L 222.558834 293.999338 
L 222.741454 293.999796 
L 222.863201 294.016551 
L 222.968715 293.99907 
L 222.976832 294.013297 
L 223.102637 294.003534 
L 223.224384 294.023194 
L 223.366422 294.008348 
L 223.455703 294.029433 
L 223.484111 294.014991 
L 223.764129 294.034032 
L 223.881817 294.022145 
L 224.03603 294.025103 
L 224.040089 294.035135 
L 224.052263 294.017143 
L 224.165894 294.029891 
L 224.283582 294.030724 
L 224.17401 294.035888 
L 224.287641 294.035646 
L 225.306257 294.046323 
L 225.314374 294.042692 
L 225.423946 294.058399 
L 225.545693 294.043607 
L 225.549751 294.049604 
L 225.66744 294.058318 
L 225.687731 294.068027 
L 225.789187 294.052482 
L 225.906875 294.063347 
L 226.000215 294.053074 
L 225.923108 294.077816 
L 226.020506 294.063051 
L 226.30864 294.059743 
L 226.418213 294.082523 
L 226.422271 294.070447 
L 226.53996 294.059743 
L 226.544018 294.068457 
L 253.222839 294.527572 
L 253.230955 294.516922 
L 253.340527 294.53045 
L 253.466333 294.516008 
L 253.584021 294.529831 
L 305.119517 295.102334 
L 305.472583 295.105158 
L 305.614621 295.110079 
L 306.272055 295.112634 
L 306.405976 295.11691 
L 306.564247 295.119143 
L 306.905139 295.123553 
L 307.071526 295.121725 
L 307.221681 295.123742 
L 307.347486 295.121348 
L 307.623446 295.12202 
L 307.765484 295.127238 
L 308.00492 295.126888 
L 308.264647 295.130223 
L 308.422918 295.124199 
L 308.548723 295.136059 
L 308.674528 295.127695 
L 308.678586 295.134338 
L 309.169633 295.130385 
L 309.299496 295.137404 
L 327.918667 295.238151 
L 328.036356 295.247214 
L 328.170277 295.240329 
L 328.361014 295.247026 
L 328.539577 295.241512 
L 329.35934 295.248613 
L 329.489203 295.250253 
L 329.627183 295.248397 
L 329.74893 295.252189 
L 329.882852 295.245681 
L 330.004599 295.252566 
L 330.142578 295.25149 
L 330.353607 295.253884 
L 330.491586 295.253185 
L 330.731022 295.257461 
L 330.925817 295.254153 
L 331.100321 295.258832 
L 331.238301 295.254852 
L 332.605926 295.262167 
L 332.75608 295.263942 
L 332.979283 295.259828 
L 333.096972 295.272818 
L 333.105088 295.267681 
L 335.280301 295.273329 
L 335.422339 295.274512 
L 335.795696 295.278573 
L 336.027016 295.280429 
L 336.181228 295.274377 
L 336.185287 295.281558 
L 337.069981 295.279918 
L 337.236369 295.283602 
L 337.828871 295.284705 
L 338.048015 295.288228 
L 338.624284 295.282473 
L 338.790672 295.290138 
L 338.961118 295.291697 
L 340.681808 295.297802 
L 340.856312 295.29549 
L 341.018642 295.294898 
L 341.513746 295.296942 
L 342.187413 295.29904 
L 342.386266 295.302375 
L 342.645993 295.301568 
L 342.844846 295.303477 
L 343.989268 295.30813 
L 344.188121 295.308695 
L 347.832414 295.320179 
L 348.006918 295.321873 
L 348.364043 295.323433 
L 348.575071 295.322492 
L 349.025534 295.322841 
L 349.200038 295.327467 
L 349.670793 295.32588 
L 349.922404 295.326284 
L 350.815215 295.328113 
L 351.123641 295.327897 
L 351.241329 295.335024 
L 351.245388 295.328919 
L 351.476707 295.331044 
L 351.639036 295.332523 
L 352.0895 295.332389 
L 352.300528 295.335132 
L 352.539964 295.334729 
L 353.177106 295.336396 
L 356.882273 295.347369 
L 357.093301 295.347019 
L 358.038869 295.35108 
L 358.298596 295.355599 
L 358.436576 295.346885 
L 358.623254 295.351322 
L 358.854574 295.352829 
L 359.422726 295.353743 
L 360.092335 295.35541 
L 360.908039 295.355572 
L 361.054136 295.361596 
L 361.058194 295.357185 
L 361.334154 295.360789 
L 361.744035 295.3581 
L 361.902306 295.358745 
L 362.474517 295.36321 
L 362.616555 295.362726 
L 362.864107 295.363317 
L 362.998029 295.363775 
L 365.294989 295.367432 
L 365.562832 295.368373 
L 366.285197 295.368347 
L 366.423177 295.37273 
L 366.772185 295.370982 
L 367.230766 295.372327 
L 368.407653 295.375581 
L 368.541575 295.375743 
L 369.26394 295.378459 
L 369.397862 295.376173 
L 369.556133 295.378835 
L 370.61939 295.381606 
L 370.842593 295.378782 
L 371.00898 295.38061 
L 371.39857 295.38252 
L 372.039771 295.38365 
L 372.193984 295.384698 
L 372.327906 295.381686 
L 372.331964 295.385989 
L 373.046213 295.384403 
L 373.23695 295.384994 
L 374.028305 295.385183 
L 374.206867 295.384725 
L 374.531526 295.388517 
L 374.697914 295.38494 
L 374.84401 295.388275 
L 375.197076 295.388679 
L 375.428395 295.388598 
L 375.651598 295.390535 
L 375.903209 295.388759 
L 376.759496 295.391234 
L 376.994873 295.390292 
L 377.161261 295.394488 
L 377.339823 295.390454 
L 377.489978 295.39317 
L 377.627957 295.393089 
L 377.948558 295.395913 
L 378.155528 295.391852 
L 378.354381 295.392605 
L 378.735855 295.39707 
L 379.145736 295.392552 
L 379.279658 295.396693 
L 379.555618 295.395779 
L 379.799112 295.398334 
L 379.981732 295.396747 
L 382.436963 295.399732 
L 382.887427 295.39906 
L 383.053814 295.402529 
L 383.317599 295.403901 
L 383.520511 295.402341 
L 383.893868 295.404573 
L 384.137362 295.40218 
L 384.433613 295.404493 
L 384.668991 295.402691 
L 384.835378 295.405703 
L 385.488754 295.407828 
L 385.764714 295.406617 
L 386.215178 295.406537 
L 386.543894 295.406348 
L 387.229736 295.407424 
L 387.408298 295.409468 
L 387.749189 295.408877 
L 387.97645 295.407317 
L 388.264585 295.410678 
L 388.516195 295.409576 
L 388.98695 295.40893 
L 389.157396 295.411055 
L 389.668733 295.412158 
L 391.361016 295.414148 
L 391.718141 295.413664 
L 391.945402 295.416299 
L 392.188896 295.415089 
L 392.452681 295.415654 
L 393.02895 295.415815 
L 393.292735 295.417832 
L 393.588986 295.415842 
L 396.713825 295.421759 
L 396.973552 295.421544 
L 397.509239 295.422404 
L 397.744616 295.42383 
L 397.979994 295.422216 
L 398.341176 295.423534 
L 398.487273 295.425094 
L 398.487273 295.425094 
" clip-path="url(#p92868e3b63)" style="fill: none; stroke-dasharray: 1.85,0.8; stroke-dashoffset: 0; stroke: #8000ff; stroke-width: 0.5"/>
   </g>
   <g id="line2d_16">
    <path d="M 73.832727 295.488 
L 127.32625 295.381659 
L 128.340923 295.356863 
L 131.466113 295.238258 
L 132.480786 295.185115 
L 138.16295 294.683641 
L 138.812341 294.595212 
L 140.192295 294.392078 
L 140.557577 294.323874 
L 141.125793 294.227377 
L 142.749269 293.924733 
L 143.073964 293.8586 
L 143.601594 293.743492 
L 144.535092 293.532854 
L 145.143896 293.399028 
L 145.671525 293.256729 
L 145.99622 293.185808 
L 147.295001 292.841237 
L 148.187913 292.610859 
L 148.593781 292.47679 
L 148.87789 292.408586 
L 152.693058 291.271246 
L 152.855405 291.23432 
L 153.05834 291.16781 
L 153.301861 291.100493 
L 154.275946 290.774452 
L 154.681815 290.658887 
L 155.168858 290.495987 
L 155.574727 290.378835 
L 156.792334 289.966408 
L 156.954681 289.910549 
L 157.198203 289.846486 
L 158.253462 289.517352 
L 158.53757 289.407434 
L 158.862265 289.341059 
L 159.105786 289.225843 
L 160.323393 288.834582 
L 160.688675 288.714095 
L 162.068629 288.273188 
L 162.393325 288.161307 
L 162.636846 288.088988 
L 162.83978 288.040927 
L 163.083302 287.947415 
L 163.489171 287.813884 
L 163.773279 287.725913 
L 163.935626 287.678874 
L 164.54443 287.467484 
L 164.747364 287.436179 
L 164.950299 287.370234 
L 165.356168 287.207172 
L 165.518515 287.177562 
L 165.802624 287.077487 
L 166.086732 286.995863 
L 167.710207 286.4981 
L 167.913142 286.416476 
L 168.19725 286.347895 
L 169.008988 286.113375 
L 169.211922 286.072415 
L 169.455444 285.965886 
L 169.617791 285.93364 
L 169.983073 285.810302 
L 171.687723 285.292799 
L 171.768897 285.339837 
L 171.809483 285.306811 
L 172.296526 285.162818 
L 172.742982 285.050184 
L 173.270612 284.891829 
L 174.244697 284.633212 
L 174.488218 284.579155 
L 174.894087 284.490215 
L 175.097022 284.426798 
L 177.613409 283.78679 
L 177.775757 283.756346 
L 178.181625 283.653206 
L 179.764514 283.271304 
L 179.886275 283.276038 
L 180.048622 283.231716 
L 180.373318 283.136187 
L 180.495078 283.141162 
L 180.657426 283.0945 
L 182.808531 282.653862 
L 183.052052 282.601552 
L 183.457921 282.512881 
L 183.74203 282.479236 
L 184.026138 282.37424 
L 184.188485 282.410951 
L 184.310246 282.331854 
L 184.432007 282.309344 
L 185.203158 282.197033 
L 186.74546 281.909343 
L 186.948394 281.873304 
L 186.988981 281.909988 
L 187.029568 281.848723 
L 187.273089 281.815642 
L 187.435437 281.81384 
L 188.04424 281.659816 
L 188.206588 281.681493 
L 188.450109 281.618856 
L 190.479454 281.347249 
L 190.601214 281.342004 
L 190.966496 281.271541 
L 191.818821 281.164743 
L 191.981169 281.158019 
L 192.549385 281.060904 
L 193.40171 280.980193 
L 193.52347 280.983851 
L 194.254034 280.868474 
L 195.268707 280.797042 
L 195.390467 280.769448 
L 196.039858 280.729376 
L 196.202205 280.685807 
L 196.364553 280.682499 
L 198.109789 280.529873 
L 198.23155 280.527963 
L 198.759179 280.478504 
L 199.327396 280.422994 
L 199.53033 280.420923 
L 200.58559 280.371007 
L 200.747937 280.334807 
L 201.153806 280.329805 
L 201.437914 280.317541 
L 201.762609 280.283385 
L 201.88437 280.285321 
L 202.046718 280.276043 
L 202.777282 280.221528 
L 202.899042 280.268378 
L 203.06139 280.224486 
L 203.223738 280.215234 
L 203.71078 280.175081 
L 203.873128 280.194418 
L 204.157236 280.184279 
L 204.278997 280.172069 
L 204.400757 280.203401 
L 204.563105 280.15959 
L 204.8878 280.195306 
L 205.050148 280.160477 
L 205.618364 280.129818 
L 205.902472 280.1498 
L 206.267754 280.136165 
L 206.430102 280.13751 
L 207.201253 280.124089 
L 207.24184 280.067073 
L 207.282427 280.125945 
L 207.485361 280.135358 
L 207.647709 280.108114 
L 208.215925 280.082457 
L 208.378273 280.0529 
L 208.54062 280.091601 
L 208.662381 280.093564 
L 218.281474 280.262972 
L 218.403235 280.327492 
L 218.606169 280.248826 
L 218.72793 280.292852 
L 219.296147 280.305869 
L 219.458494 280.348174 
L 219.661429 280.355704 
L 220.026711 280.371599 
L 220.229645 280.404007 
L 220.513753 280.431331 
L 220.635514 280.399569 
L 221.041383 280.42606 
L 221.244317 280.420843 
L 221.406665 280.479849 
L 221.528426 280.438458 
L 221.690773 280.478289 
L 222.583685 280.502709 
L 222.664859 280.577099 
L 222.705445 280.53267 
L 222.786619 280.496766 
L 222.827206 280.549613 
L 223.638944 280.57398 
L 223.720118 280.63624 
L 223.760705 280.594796 
L 224.0854 280.647159 
L 224.20716 280.617064 
L 225.100072 280.668809 
L 225.26242 280.714584 
L 225.505941 280.705709 
L 225.708875 280.747906 
L 229.645804 281.043718 
L 229.808151 281.105629 
L 230.254607 281.076717 
L 230.538716 281.112756 
L 230.822824 281.154604 
L 231.066345 281.164877 
L 231.796909 281.222566 
L 231.959257 281.229881 
L 234.637992 281.501704 
L 235.003274 281.524402 
L 235.206208 281.592069 
L 235.57149 281.56106 
L 235.733838 281.604494 
L 236.017946 281.677297 
L 236.22088 281.674769 
L 236.383228 281.670681 
L 236.992031 281.756986 
L 237.154379 281.758949 
L 237.357313 281.798726 
L 237.560248 281.825459 
L 238.169051 281.8768 
L 238.57492 281.917788 
L 239.589592 282.042228 
L 243.688868 282.483297 
L 243.891803 282.539641 
L 244.094737 282.510595 
L 244.297672 282.545235 
L 244.58178 282.59265 
L 244.703541 282.602816 
L 244.825301 282.625865 
L 244.947062 282.645524 
L 245.23117 282.694661 
L 245.393518 282.659106 
L 245.555865 282.704827 
L 245.7588 282.686565 
L 245.921147 282.767733 
L 246.124082 282.724164 
L 246.286429 282.777522 
L 276.848359 286.432236 
L 277.010706 286.473922 
L 277.254228 286.492614 
L 277.781857 286.565686 
L 278.390661 286.657746 
L 278.553008 286.62878 
L 278.837116 286.679154 
L 278.999464 286.695237 
L 279.283572 286.757659 
L 279.44592 286.737811 
L 279.689441 286.772854 
L 280.054723 286.828794 
L 280.420005 286.890302 
L 280.582353 286.885649 
L 280.7447 286.866285 
L 280.907048 286.906331 
L 281.150569 286.95969 
L 281.759373 287.018454 
L 282.246415 287.072082 
L 282.368176 287.079451 
L 282.652284 287.135553 
L 282.936393 287.104516 
L 283.179914 287.192004 
L 283.342261 287.198297 
L 283.74813 287.254023 
L 283.951065 287.265453 
L 284.762803 287.328171 
L 284.965737 287.382121 
L 285.249845 287.368808 
L 285.412193 287.406675 
L 285.939822 287.471195 
L 286.386278 287.518422 
L 286.548626 287.511187 
L 286.75156 287.565675 
L 286.995082 287.583291 
L 292.271378 288.149204 
L 292.393138 288.118034 
L 292.555486 288.154153 
L 293.610745 288.257589 
L 294.300722 288.329451 
L 294.58483 288.38246 
L 294.828352 288.367614 
L 295.153047 288.428342 
L 295.518329 288.459109 
L 295.680676 288.486972 
L 298.034716 288.694704 
L 298.278238 288.723616 
L 298.684106 288.752608 
L 298.968215 288.79529 
L 299.130562 288.820678 
L 300.46993 288.929036 
L 300.754038 288.934442 
L 301.11932 288.99369 
L 301.687536 289.030858 
L 301.890471 289.088278 
L 302.093405 289.067461 
L 302.336927 289.078945 
L 302.499274 289.129211 
L 302.702209 289.103204 
L 302.94573 289.176411 
L 303.108078 289.180122 
L 303.392186 289.177514 
L 303.676294 289.23176 
L 303.879229 289.242491 
L 304.203924 289.266803 
L 304.569206 289.314783 
L 305.137422 289.323873 
L 305.29977 289.376075 
L 305.583878 289.377447 
L 305.827399 289.440407 
L 306.070921 289.408725 
L 306.314442 289.46367 
L 307.085593 289.549706 
L 307.247941 289.511274 
L 307.410288 289.546721 
L 307.816157 289.567833 
L 308.019091 289.62138 
L 308.262613 289.621783 
L 309.236698 289.711933 
L 309.48022 289.713116 
L 309.683154 289.761553 
L 310.616653 289.834464 
L 310.779 289.816606 
L 310.981935 289.842317 
L 311.266043 289.8765 
L 311.590738 289.902346 
L 311.793672 289.928702 
L 312.037194 289.937013 
L 312.402476 289.955435 
L 312.60541 289.985342 
L 312.808345 290.005755 
L 313.011279 290.01939 
L 313.457735 290.052928 
L 318.693444 290.447281 
L 318.896378 290.487112 
L 319.058726 290.481114 
L 319.586356 290.505965 
L 319.829877 290.558221 
L 320.113985 290.54195 
L 320.398093 290.577235 
L 320.519854 290.570269 
L 320.641615 290.616797 
L 320.803962 290.607841 
L 321.209831 290.647806 
L 321.493939 290.650791 
L 322.630372 290.736181 
L 323.117415 290.780073 
L 324.172674 290.857314 
L 324.497369 290.884208 
L 324.740891 290.882003 
L 324.984412 290.907553 
L 325.309107 290.910592 
L 325.836737 290.968011 
L 326.039671 290.979657 
L 327.947255 291.101946 
L 328.190777 291.103613 
L 328.353124 291.136263 
L 328.718406 291.137635 
L 329.002514 291.152938 
L 329.733078 291.230797 
L 329.895426 291.235934 
L 330.707164 291.282703 
L 330.950685 291.296931 
L 332.655335 291.401281 
L 333.020617 291.420564 
L 333.304725 291.452058 
L 333.588833 291.459803 
L 334.847027 291.547775 
L 335.131135 291.554284 
L 335.618178 291.577735 
L 336.064634 291.615657 
L 336.267568 291.627544 
L 337.28224 291.67192 
L 337.485175 291.701047 
L 337.80987 291.690235 
L 337.972217 291.720007 
L 338.418673 291.742087 
L 339.270998 291.796038 
L 340.042149 291.837401 
L 341.219169 291.892266 
L 341.584451 291.925319 
L 341.827972 291.932204 
L 342.11208 291.950788 
L 343.045579 292.007025 
L 343.654382 292.009418 
L 343.81673 292.039352 
L 346.576638 292.191467 
L 370.279383 293.183011 
L 370.928773 293.204339 
L 371.253469 293.229888 
L 371.659337 293.23446 
L 372.389901 293.266115 
L 373.201639 293.271494 
L 373.363987 293.286044 
L 373.607508 293.305811 
L 374.094551 293.315601 
L 374.378659 293.339618 
L 374.825115 293.347094 
L 376.245656 293.39502 
L 376.732699 293.408118 
L 377.869132 293.436572 
L 378.15324 293.448486 
L 379.370847 293.497623 
L 379.614368 293.501549 
L 380.020237 293.497703 
L 380.385519 293.516314 
L 383.267188 293.601973 
L 383.916579 293.627845 
L 384.241274 293.623058 
L 384.80949 293.649603 
L 385.255946 293.669962 
L 385.945923 293.684593 
L 398.487273 293.991996 
L 398.487273 293.991996 
" clip-path="url(#p92868e3b63)" style="fill: none; stroke-dasharray: 1.85,0.8; stroke-dashoffset: 0; stroke: #00b5eb; stroke-width: 0.5"/>
   </g>
   <g id="line2d_17">
    <path d="M 73.832727 295.488 
L 127.028156 295.38287 
L 134.337452 295.053547 
L 141.240675 293.956765 
L 144.083179 293.058302 
L 146.722647 291.866931 
L 151.189439 288.878636 
L 154.844087 285.575083 
L 156.468375 283.919945 
L 159.310878 280.708452 
L 164.386778 274.446913 
L 165.80803 272.596252 
L 177.990189 256.893741 
L 178.599297 256.17617 
L 180.020549 254.426982 
L 185.299485 248.433258 
L 185.502521 248.329392 
L 187.329845 246.29566 
L 188.751097 244.911161 
L 188.954133 244.778679 
L 189.563241 244.097093 
L 190.172349 243.546133 
L 191.796637 241.98959 
L 192.405744 241.540991 
L 193.217888 240.769255 
L 193.420924 240.690615 
L 193.826996 240.214073 
L 194.233068 239.921864 
L 194.842176 239.505243 
L 195.65432 238.732269 
L 197.887716 237.080762 
L 198.293788 236.757813 
L 199.105932 236.174177 
L 199.308968 236.132544 
L 199.512004 235.883421 
L 199.71504 235.920966 
L 200.121112 235.437646 
L 200.324148 235.436381 
L 200.933256 234.98641 
L 202.354508 234.107661 
L 202.557544 234.079718 
L 202.963616 233.704003 
L 203.77576 233.357279 
L 203.978796 233.262315 
L 204.384868 232.962119 
L 204.993976 232.674698 
L 205.603084 232.375336 
L 206.009156 232.203965 
L 206.415228 232.005134 
L 206.618264 231.983242 
L 206.8213 231.720134 
L 208.648624 231.022814 
L 208.85166 230.788967 
L 209.257732 230.675822 
L 210.882019 230.16671 
L 211.288091 229.99819 
L 212.506307 229.652085 
L 213.927559 229.187645 
L 214.130595 229.206444 
L 214.536667 228.955976 
L 214.739703 229.017403 
L 214.942739 228.870048 
L 215.551847 228.754429 
L 220.018639 228.013352 
L 220.424711 228.00714 
L 221.033819 227.940495 
L 221.236855 227.924278 
L 221.439891 227.795911 
L 221.642927 227.932669 
L 222.252035 227.800483 
L 222.455071 227.869628 
L 223.064179 227.68567 
L 223.267215 227.765466 
L 223.876323 227.744435 
L 224.282395 227.743386 
L 225.703647 227.716518 
L 225.906683 227.641348 
L 226.515791 227.76006 
L 227.734006 227.769581 
L 228.140078 227.780984 
L 228.749186 227.906339 
L 229.155258 227.797094 
L 229.56133 227.962468 
L 230.170438 227.959106 
L 231.388654 228.151025 
L 231.59169 228.047804 
L 231.794726 228.189699 
L 232.200798 228.126632 
L 237.68277 229.01786 
L 237.885806 229.247243 
L 238.291878 229.24735 
L 239.307058 229.488298 
L 241.74349 230.08288 
L 241.946526 230.209096 
L 242.352598 230.261917 
L 247.022425 231.696413 
L 247.225461 231.846699 
L 247.631533 231.845381 
L 248.240641 232.154802 
L 248.849749 232.33217 
L 251.489217 233.244081 
L 251.895289 233.411364 
L 252.504397 233.65172 
L 253.113505 233.87801 
L 253.316541 234.023885 
L 253.722613 234.134125 
L 253.925649 234.275106 
L 254.128685 234.261928 
L 254.331721 234.393711 
L 254.737793 234.479262 
L 255.143865 234.74038 
L 255.346901 234.722818 
L 255.549937 234.90137 
L 255.956009 235.007065 
L 259.813693 236.597253 
L 260.625837 236.882953 
L 266.107808 239.379215 
L 266.310844 239.388951 
L 266.716916 239.660854 
L 268.341204 240.396471 
L 269.356384 240.90916 
L 270.371564 241.278716 
L 271.995852 242.112901 
L 272.401924 242.260471 
L 273.214068 242.652754 
L 275.244428 243.613101 
L 275.6505 243.73695 
L 276.056572 244.015818 
L 278.899076 245.30304 
L 279.305148 245.495551 
L 280.117291 245.955499 
L 280.523363 246.091881 
L 293.517667 252.231427 
L 293.720703 252.204075 
L 294.126775 252.441983 
L 305.699826 257.632827 
L 305.902862 257.647565 
L 306.105898 257.828161 
L 306.308934 257.810653 
L 306.918042 258.165418 
L 307.121078 258.185077 
L 307.52715 258.387297 
L 311.993942 260.185621 
L 312.400014 260.410808 
L 316.257697 261.942985 
L 316.866805 262.19902 
L 318.694129 262.924148 
L 319.303237 263.127981 
L 322.754849 264.462672 
L 323.160921 264.573827 
L 323.566993 264.774648 
L 323.973065 264.880397 
L 324.582173 265.156603 
L 325.394317 265.41011 
L 326.003425 265.672142 
L 326.206461 265.679726 
L 326.815569 265.977179 
L 327.018605 265.996812 
L 327.424677 266.174692 
L 328.845929 266.678425 
L 340.215944 270.471268 
L 341.231124 270.759281 
L 341.840232 270.988233 
L 342.652376 271.169932 
L 343.058448 271.364809 
L 343.261484 271.360829 
L 344.073628 271.710538 
L 344.682736 271.764192 
L 345.291844 272.070063 
L 346.916132 272.462291 
L 347.52524 272.65031 
L 350.773815 273.597076 
L 351.585959 273.860318 
L 351.788995 273.83961 
L 352.195067 273.97696 
L 353.210247 274.253058 
L 354.022391 274.454766 
L 354.225427 274.475045 
L 354.631499 274.658357 
L 355.443643 274.835995 
L 356.255787 275.059999 
L 357.270967 275.294814 
L 357.677039 275.440367 
L 358.083111 275.520163 
L 359.301327 275.842224 
L 360.113471 276.055228 
L 363.971155 276.977896 
L 376.559386 279.811952 
L 376.965458 279.864047 
L 380.41707 280.538506 
L 381.026178 280.632959 
L 381.635286 280.808795 
L 382.44743 280.909031 
L 383.665646 281.154738 
L 384.274754 281.235502 
L 385.086897 281.418896 
L 386.508149 281.628 
L 387.320293 281.828632 
L 389.553689 282.193859 
L 389.959761 282.278792 
L 391.787085 282.601444 
L 392.599229 282.706817 
L 395.644769 283.211222 
L 396.050841 283.283515 
L 396.659949 283.348895 
L 397.269057 283.497083 
L 398.487273 283.665873 
L 398.487273 283.665873 
" clip-path="url(#p92868e3b63)" style="fill: none; stroke-dasharray: 1.85,0.8; stroke-dashoffset: 0; stroke: #80ffb4; stroke-width: 0.5"/>
   </g>
   <g id="line2d_18">
    <path d="M 73.832727 295.488 
L 127.061445 295.380718 
L 131.531032 295.228119 
L 136.406945 294.840516 
L 140.470206 294.100892 
L 142.09551 293.671065 
L 144.533467 292.743395 
L 146.565097 291.692736 
L 149.003054 290.007611 
L 150.628358 288.581586 
L 152.253663 286.868222 
L 154.691619 283.771326 
L 156.316923 281.340283 
L 158.75488 277.246168 
L 162.818141 269.260426 
L 168.10038 257.559728 
L 173.788945 244.139533 
L 175.41425 240.305837 
L 179.071184 231.656663 
L 181.102815 227.026488 
L 187.604032 212.78776 
L 192.479945 203.146961 
L 194.917902 198.7271 
L 195.730554 197.317777 
L 197.762185 193.877305 
L 200.200141 190.193599 
L 201.825445 187.760459 
L 202.638098 186.670642 
L 203.857076 185.08594 
L 206.295032 181.967502 
L 206.701359 181.619461 
L 207.514011 180.596853 
L 208.732989 179.284808 
L 210.764619 177.247822 
L 211.170946 176.950074 
L 211.983598 176.124522 
L 212.389924 175.859773 
L 213.202576 175.081367 
L 214.015228 174.374957 
L 214.421554 173.928375 
L 214.82788 173.806516 
L 216.046859 172.808329 
L 216.453185 172.660759 
L 217.265837 172.068247 
L 218.078489 171.580732 
L 219.703793 170.755637 
L 221.735424 169.668913 
L 222.14175 169.659365 
L 222.548076 169.30374 
L 222.954402 169.22502 
L 223.360728 169.009407 
L 224.17338 168.783359 
L 224.986033 168.426954 
L 225.798685 168.237536 
L 226.611337 168.081522 
L 230.674598 167.426239 
L 231.080924 167.518782 
L 231.893576 167.42597 
L 232.299902 167.495115 
L 232.706228 167.285715 
L 233.51888 167.411473 
L 235.144185 167.371562 
L 235.550511 167.661242 
L 236.363163 167.616786 
L 236.769489 167.651883 
L 237.175815 167.808032 
L 237.582141 167.745045 
L 239.207446 168.235627 
L 239.613772 168.188158 
L 240.020098 168.451347 
L 240.426424 168.40794 
L 241.645402 168.762893 
L 243.270707 169.227629 
L 244.489685 169.738569 
L 244.896011 169.734804 
L 246.521315 170.422468 
L 247.740294 170.853936 
L 248.14662 171.150555 
L 248.959272 171.531353 
L 253.022533 173.455382 
L 253.428859 173.86321 
L 253.835185 173.955915 
L 255.054163 174.800723 
L 255.460489 174.90147 
L 256.273141 175.470422 
L 257.085794 175.877469 
L 257.898446 176.509489 
L 259.117424 177.21614 
L 267.243946 182.893021 
L 268.056598 183.518908 
L 268.86925 184.153886 
L 270.900881 185.667936 
L 271.307207 186.122264 
L 272.119859 186.62675 
L 272.932511 187.400449 
L 273.338837 187.484118 
L 274.557815 188.685896 
L 275.776794 189.591486 
L 276.18312 189.982236 
L 276.589446 190.20546 
L 276.995772 190.603551 
L 277.402098 190.829572 
L 278.621076 191.995366 
L 279.433729 192.54369 
L 280.246381 193.294153 
L 281.059033 193.883813 
L 281.871685 194.655066 
L 282.278011 194.905399 
L 283.496989 195.995028 
L 284.715968 196.963201 
L 285.122294 197.236395 
L 285.934946 198.112105 
L 286.341272 198.319864 
L 298.531055 208.602096 
L 298.937381 208.860848 
L 300.156359 210.00448 
L 300.969011 210.543606 
L 302.18799 211.662604 
L 304.625946 213.572943 
L 305.032272 214.028643 
L 305.844924 214.640222 
L 307.876555 216.30862 
L 313.56512 220.74182 
L 314.784098 221.707438 
L 315.190424 222.103109 
L 316.003077 222.611253 
L 316.815729 223.327452 
L 317.222055 223.5393 
L 317.628381 223.999222 
L 318.034707 224.14698 
L 318.441033 224.543807 
L 318.847359 224.777493 
L 320.066337 225.772292 
L 331.443468 233.934945 
L 333.881425 235.531615 
L 334.694077 236.094327 
L 335.913055 236.917808 
L 337.538359 238.031185 
L 337.944685 238.172703 
L 339.163664 239.082489 
L 339.976316 239.532003 
L 341.195294 240.411263 
L 343.633251 241.877548 
L 349.728142 245.519756 
L 350.134468 245.692606 
L 351.353446 246.530691 
L 352.572425 247.165588 
L 357.042012 249.610267 
L 359.073642 250.739215 
L 364.762207 253.610386 
L 365.981186 254.246224 
L 367.60649 255.009946 
L 369.63812 256.017546 
L 378.170968 259.801541 
L 380.608925 260.796152 
L 381.827903 261.3395 
L 389.954425 264.537546 
L 390.767077 264.808696 
L 392.392381 265.398115 
L 394.830338 266.299482 
L 395.64299 266.567808 
L 396.049316 266.644511 
L 397.268294 267.16196 
L 398.487273 267.580707 
L 398.487273 267.580707 
" clip-path="url(#p92868e3b63)" style="fill: none; stroke-dasharray: 1.85,0.8; stroke-dashoffset: 0; stroke: #ffb360; stroke-width: 0.5"/>
   </g>
   <g id="line2d_19">
    <path d="M 73.832727 295.488 
L 126.721312 295.392713 
L 133.230677 295.120084 
L 136.485359 294.819027 
L 139.740041 294.263657 
L 142.181053 293.593582 
L 143.808394 292.982944 
L 145.435735 292.231486 
L 147.876746 290.666283 
L 149.504087 289.23028 
L 151.131429 287.507718 
L 152.75877 285.407208 
L 154.386111 282.857211 
L 156.013452 279.796461 
L 157.640793 276.293674 
L 159.268134 272.234307 
L 160.895475 267.727927 
L 162.522816 262.678414 
L 164.963828 254.492308 
L 167.404839 245.509805 
L 174.727874 215.538551 
L 179.609897 194.420922 
L 186.932932 163.396616 
L 191.001285 147.179452 
L 194.255967 134.853243 
L 196.696979 126.16058 
L 198.32432 120.491715 
L 202.392673 107.599996 
L 205.647355 98.15878 
L 206.461025 95.773511 
L 208.088366 91.742787 
L 209.715707 87.730754 
L 211.343049 83.861261 
L 212.156719 82.217015 
L 212.97039 80.274375 
L 216.225072 74.071655 
L 221.107095 66.075936 
L 225.989118 60.319797 
L 226.802789 59.61484 
L 227.616459 58.757687 
L 229.2438 57.45406 
L 230.057471 57.057286 
L 230.871141 56.372741 
L 233.312153 55.078419 
L 234.125824 54.915197 
L 234.939494 54.520628 
L 238.194176 53.568 
L 239.007847 53.701773 
L 240.635188 53.57354 
L 241.448859 53.81126 
L 243.88987 53.905068 
L 244.703541 54.320453 
L 245.517211 54.293639 
L 247.958223 55.483718 
L 248.771893 55.700945 
L 252.840246 58.030058 
L 254.467587 59.219035 
L 256.908599 60.957734 
L 259.34961 62.946578 
L 260.163281 63.948154 
L 260.976951 64.552526 
L 261.790622 65.575026 
L 263.417963 66.94702 
L 264.231634 67.724269 
L 266.672645 70.65329 
L 267.486316 71.432503 
L 273.18201 78.317804 
L 273.99568 79.48427 
L 274.809351 80.414334 
L 275.623021 81.575583 
L 276.436692 82.5348 
L 278.064033 84.698458 
L 280.505044 88.062604 
L 285.387068 95.023398 
L 286.200738 96.266137 
L 287.014409 97.264486 
L 289.45542 100.971079 
L 290.269091 102.05237 
L 291.896432 104.543899 
L 294.337444 108.048138 
L 296.778455 111.819089 
L 297.592126 112.940722 
L 299.219467 115.446128 
L 301.660478 119.072038 
L 303.28782 121.73128 
L 304.915161 123.892222 
L 306.542502 126.409408 
L 308.983513 130.035075 
L 315.492878 139.643601 
L 327.697936 156.940228 
L 328.511606 157.821855 
L 331.766288 162.414862 
L 334.2073 165.664598 
L 335.020971 166.639495 
L 336.648312 168.824669 
L 339.902994 173.074503 
L 340.716664 173.88763 
L 348.039699 182.93191 
L 348.85337 183.80883 
L 349.66704 184.892004 
L 350.480711 185.687273 
L 351.294381 186.713996 
L 352.108052 187.530457 
L 354.549064 190.530022 
L 356.990075 193.080853 
L 358.617416 194.898191 
L 360.244757 196.691164 
L 370.822474 207.448539 
L 372.449815 208.909258 
L 374.890827 211.267228 
L 382.213862 217.784721 
L 384.654874 219.824154 
L 386.282215 221.223553 
L 394.41892 227.688602 
L 395.232591 228.227298 
L 396.859932 229.550128 
L 397.673602 229.955185 
L 398.487273 230.663612 
L 398.487273 230.663612 
" clip-path="url(#p92868e3b63)" style="fill: none; stroke-dasharray: 1.85,0.8; stroke-dashoffset: 0; stroke: #ff0000; stroke-width: 0.5"/>
   </g>
   <g id="patch_3">
    <path d="M 57.6 307.584 
L 57.6 41.472 
" style="fill: none; stroke: #000000; stroke-width: 0.8; stroke-linejoin: miter; stroke-linecap: square"/>
   </g>
   <g id="patch_4">
    <path d="M 414.72 307.584 
L 414.72 41.472 
" style="fill: none; stroke: #000000; stroke-width: 0.8; stroke-linejoin: miter; stroke-linecap: square"/>
   </g>
   <g id="patch_5">
    <path d="M 57.6 307.584 
L 414.72 307.584 
" style="fill: none; stroke: #000000; stroke-width: 0.8; stroke-linejoin: miter; stroke-linecap: square"/>
   </g>
   <g id="patch_6">
    <path d="M 57.6 41.472 
L 414.72 41.472 
" style="fill: none; stroke: #000000; stroke-width: 0.8; stroke-linejoin: miter; stroke-linecap: square"/>
   </g>
   <g id="text_18">
    <!-- Heating Rate ($^{\circ}C.s^{-1}$) -->
    <g transform="translate(271.872 68.0832) scale(0.12 -0.12)">
     <defs>
      <path id="DejaVuSans-48" d="M 628 4666 
L 1259 4666 
L 1259 2753 
L 3553 2753 
L 3553 4666 
L 4184 4666 
L 4184 0 
L 3553 0 
L 3553 2222 
L 1259 2222 
L 1259 0 
L 628 0 
L 628 4666 
z
" transform="scale(0.015625)"/>
      <path id="DejaVuSans-67" d="M 2906 1791 
Q 2906 2416 2648 2759 
Q 2391 3103 1925 3103 
Q 1463 3103 1205 2759 
Q 947 2416 947 1791 
Q 947 1169 1205 825 
Q 1463 481 1925 481 
Q 2391 481 2648 825 
Q 2906 1169 2906 1791 
z
M 3481 434 
Q 3481 -459 3084 -895 
Q 2688 -1331 1869 -1331 
Q 1566 -1331 1297 -1286 
Q 1028 -1241 775 -1147 
L 775 -588 
Q 1028 -725 1275 -790 
Q 1522 -856 1778 -856 
Q 2344 -856 2625 -561 
Q 2906 -266 2906 331 
L 2906 616 
Q 2728 306 2450 153 
Q 2172 0 1784 0 
Q 1141 0 747 490 
Q 353 981 353 1791 
Q 353 2603 747 3093 
Q 1141 3584 1784 3584 
Q 2172 3584 2450 3431 
Q 2728 3278 2906 2969 
L 2906 3500 
L 3481 3500 
L 3481 434 
z
" transform="scale(0.015625)"/>
      <path id="DejaVuSans-52" d="M 2841 2188 
Q 3044 2119 3236 1894 
Q 3428 1669 3622 1275 
L 4263 0 
L 3584 0 
L 2988 1197 
Q 2756 1666 2539 1819 
Q 2322 1972 1947 1972 
L 1259 1972 
L 1259 0 
L 628 0 
L 628 4666 
L 2053 4666 
Q 2853 4666 3247 4331 
Q 3641 3997 3641 3322 
Q 3641 2881 3436 2590 
Q 3231 2300 2841 2188 
z
M 1259 4147 
L 1259 2491 
L 2053 2491 
Q 2509 2491 2742 2702 
Q 2975 2913 2975 3322 
Q 2975 3731 2742 3939 
Q 2509 4147 2053 4147 
L 1259 4147 
z
" transform="scale(0.015625)"/>
      <path id="DejaVuSans-2e" d="M 684 794 
L 1344 794 
L 1344 0 
L 684 0 
L 684 794 
z
" transform="scale(0.015625)"/>
      <path id="DejaVuSans-Oblique-73" d="M 3200 3397 
L 3091 2853 
Q 2863 2978 2609 3040 
Q 2356 3103 2088 3103 
Q 1634 3103 1373 2948 
Q 1113 2794 1113 2528 
Q 1113 2219 1719 2053 
Q 1766 2041 1788 2034 
L 1972 1978 
Q 2547 1819 2739 1644 
Q 2931 1469 2931 1166 
Q 2931 609 2489 259 
Q 2047 -91 1331 -91 
Q 1053 -91 747 -37 
Q 441 16 72 128 
L 184 722 
Q 500 559 806 475 
Q 1113 391 1394 391 
Q 1816 391 2080 572 
Q 2344 753 2344 1031 
Q 2344 1331 1650 1516 
L 1591 1531 
L 1394 1581 
Q 956 1697 753 1886 
Q 550 2075 550 2369 
Q 550 2928 970 3256 
Q 1391 3584 2113 3584 
Q 2397 3584 2667 3537 
Q 2938 3491 3200 3397 
z
" transform="scale(0.015625)"/>
     </defs>
     <use xlink:href="#DejaVuSans-48" transform="translate(0 0.684375)"/>
     <use xlink:href="#DejaVuSans-65" transform="translate(75.195312 0.684375)"/>
     <use xlink:href="#DejaVuSans-61" transform="translate(136.71875 0.684375)"/>
     <use xlink:href="#DejaVuSans-74" transform="translate(197.998047 0.684375)"/>
     <use xlink:href="#DejaVuSans-69" transform="translate(237.207031 0.684375)"/>
     <use xlink:href="#DejaVuSans-6e" transform="translate(264.990234 0.684375)"/>
     <use xlink:href="#DejaVuSans-67" transform="translate(328.369141 0.684375)"/>
     <use xlink:href="#DejaVuSans-20" transform="translate(391.845703 0.684375)"/>
     <use xlink:href="#DejaVuSans-52" transform="translate(423.632812 0.684375)"/>
     <use xlink:href="#DejaVuSans-61" transform="translate(493.115234 0.684375)"/>
     <use xlink:href="#DejaVuSans-74" transform="translate(554.394531 0.684375)"/>
     <use xlink:href="#DejaVuSans-65" transform="translate(593.603516 0.684375)"/>
     <use xlink:href="#DejaVuSans-20" transform="translate(655.126953 0.684375)"/>
     <use xlink:href="#DejaVuSans-28" transform="translate(686.914062 0.684375)"/>
     <use xlink:href="#DejaVuSans-2218" transform="translate(726.884766 38.965625) scale(0.7)"/>
     <use xlink:href="#DejaVuSans-Oblique-43" transform="translate(773.4375 0.684375)"/>
     <use xlink:href="#DejaVuSans-2e" transform="translate(843.261719 0.684375)"/>
     <use xlink:href="#DejaVuSans-Oblique-73" transform="translate(894.53125 0.684375)"/>
     <use xlink:href="#DejaVuSans-2212" transform="translate(951.280755 38.965625) scale(0.7)"/>
     <use xlink:href="#DejaVuSans-31" transform="translate(1009.933099 38.965625) scale(0.7)"/>
     <use xlink:href="#DejaVuSans-29" transform="translate(1057.203607 0.684375)"/>
    </g>
   </g>
   <g id="legend_1">
    <g id="patch_7">
     <path d="M 314.584 149.473825 
L 362.487125 149.473825 
Q 364.487125 149.473825 364.487125 147.473825 
L 364.487125 75.0832 
Q 364.487125 73.0832 362.487125 73.0832 
L 314.584 73.0832 
Q 312.584 73.0832 312.584 75.0832 
L 312.584 147.473825 
Q 312.584 149.473825 314.584 149.473825 
z
" style="fill: #ffffff; opacity: 0.8; stroke: #cccccc; stroke-linejoin: miter"/>
    </g>
    <g id="line2d_20">
     <path d="M 316.584 81.181637 
L 326.584 81.181637 
L 336.584 81.181637 
" style="fill: none; stroke-dasharray: 1.85,0.8; stroke-dashoffset: 0; stroke: #8000ff; stroke-width: 0.5"/>
    </g>
    <g id="text_19">
     <!-- 0.1 -->
     <g transform="translate(344.584 84.681637) scale(0.1 -0.1)">
      <use xlink:href="#DejaVuSans-30"/>
      <use xlink:href="#DejaVuSans-2e" transform="translate(63.623047 0)"/>
      <use xlink:href="#DejaVuSans-31" transform="translate(95.410156 0)"/>
     </g>
    </g>
    <g id="line2d_21">
     <path d="M 316.584 95.859762 
L 326.584 95.859762 
L 336.584 95.859762 
" style="fill: none; stroke-dasharray: 1.85,0.8; stroke-dashoffset: 0; stroke: #00b5eb; stroke-width: 0.5"/>
    </g>
    <g id="text_20">
     <!-- 1 -->
     <g transform="translate(344.584 99.359762) scale(0.1 -0.1)">
      <use xlink:href="#DejaVuSans-31"/>
     </g>
    </g>
    <g id="line2d_22">
     <path d="M 316.584 110.537887 
L 326.584 110.537887 
L 336.584 110.537887 
" style="fill: none; stroke-dasharray: 1.85,0.8; stroke-dashoffset: 0; stroke: #80ffb4; stroke-width: 0.5"/>
    </g>
    <g id="text_21">
     <!-- 5 -->
     <g transform="translate(344.584 114.037887) scale(0.1 -0.1)">
      <use xlink:href="#DejaVuSans-35"/>
     </g>
    </g>
    <g id="line2d_23">
     <path d="M 316.584 125.216012 
L 326.584 125.216012 
L 336.584 125.216012 
" style="fill: none; stroke-dasharray: 1.85,0.8; stroke-dashoffset: 0; stroke: #ffb360; stroke-width: 0.5"/>
    </g>
    <g id="text_22">
     <!-- 10 -->
     <g transform="translate(344.584 128.716012) scale(0.1 -0.1)">
      <use xlink:href="#DejaVuSans-31"/>
      <use xlink:href="#DejaVuSans-30" transform="translate(63.623047 0)"/>
     </g>
    </g>
    <g id="line2d_24">
     <path d="M 316.584 139.894137 
L 326.584 139.894137 
L 336.584 139.894137 
" style="fill: none; stroke-dasharray: 1.85,0.8; stroke-dashoffset: 0; stroke: #ff0000; stroke-width: 0.5"/>
    </g>
    <g id="text_23">
     <!-- 20 -->
     <g transform="translate(344.584 143.394137) scale(0.1 -0.1)">
      <use xlink:href="#DejaVuSans-32"/>
      <use xlink:href="#DejaVuSans-30" transform="translate(63.623047 0)"/>
     </g>
    </g>
   </g>
  </g>
 </g>
 <defs>
  <clipPath id="p92868e3b63">
   <rect x="57.6" y="41.472" width="357.12" height="266.112"/>
  </clipPath>
 </defs>
</svg>
