<?xml version="1.0" encoding="utf-8" standalone="no"?>
<!DOCTYPE svg PUBLIC "-//W3C//DTD SVG 1.1//EN"
  "http://www.w3.org/Graphics/SVG/1.1/DTD/svg11.dtd">
<svg xmlns:xlink="http://www.w3.org/1999/xlink" width="460.8pt" height="345.6pt" viewBox="0 0 460.8 345.6" xmlns="http://www.w3.org/2000/svg" version="1.1">
 <metadata>
  <rdf:RDF xmlns:dc="http://purl.org/dc/elements/1.1/" xmlns:cc="http://creativecommons.org/ns#" xmlns:rdf="http://www.w3.org/1999/02/22-rdf-syntax-ns#">
   <cc:Work>
    <dc:type rdf:resource="http://purl.org/dc/dcmitype/StillImage"/>
    <dc:date>2025-03-04T10:38:13.599535</dc:date>
    <dc:format>image/svg+xml</dc:format>
    <dc:creator>
     <cc:Agent>
      <dc:title>Matplotlib v3.10.0, https://matplotlib.org/</dc:title>
     </cc:Agent>
    </dc:creator>
   </cc:Work>
  </rdf:RDF>
 </metadata>
 <defs>
  <style type="text/css">*{stroke-linejoin: round; stroke-linecap: butt}</style>
 </defs>
 <g id="figure_1">
  <g id="patch_1">
   <path d="M 0 345.6 
L 460.8 345.6 
L 460.8 0 
L 0 0 
z
" style="fill: #ffffff"/>
  </g>
  <g id="axes_1">
   <g id="patch_2">
    <path d="M 57.6 307.584 
L 414.72 307.584 
L 414.72 41.472 
L 57.6 41.472 
z
" style="fill: #ffffff"/>
   </g>
   <g id="matplotlib.axis_1">
    <g id="xtick_1">
     <g id="line2d_1">
      <defs>
       <path id="m6b3999954a" d="M 0 0 
L 0 3.5 
" style="stroke: #000000; stroke-width: 0.8"/>
      </defs>
      <g>
       <use xlink:href="#m6b3999954a" x="73.832727" y="307.584" style="stroke: #000000; stroke-width: 0.8"/>
      </g>
     </g>
     <g id="text_1">
      <!-- 0 -->
      <g transform="translate(70.651477 322.182437) scale(0.1 -0.1)">
       <defs>
        <path id="DejaVuSans-30" d="M 2034 4250 
Q 1547 4250 1301 3770 
Q 1056 3291 1056 2328 
Q 1056 1369 1301 889 
Q 1547 409 2034 409 
Q 2525 409 2770 889 
Q 3016 1369 3016 2328 
Q 3016 3291 2770 3770 
Q 2525 4250 2034 4250 
z
M 2034 4750 
Q 2819 4750 3233 4129 
Q 3647 3509 3647 2328 
Q 3647 1150 3233 529 
Q 2819 -91 2034 -91 
Q 1250 -91 836 529 
Q 422 1150 422 2328 
Q 422 3509 836 4129 
Q 1250 4750 2034 4750 
z
" transform="scale(0.015625)"/>
       </defs>
       <use xlink:href="#DejaVuSans-30"/>
      </g>
     </g>
    </g>
    <g id="xtick_2">
     <g id="line2d_2">
      <g>
       <use xlink:href="#m6b3999954a" x="138.763636" y="307.584" style="stroke: #000000; stroke-width: 0.8"/>
      </g>
     </g>
     <g id="text_2">
      <!-- 200 -->
      <g transform="translate(129.219886 322.182437) scale(0.1 -0.1)">
       <defs>
        <path id="DejaVuSans-32" d="M 1228 531 
L 3431 531 
L 3431 0 
L 469 0 
L 469 531 
Q 828 903 1448 1529 
Q 2069 2156 2228 2338 
Q 2531 2678 2651 2914 
Q 2772 3150 2772 3378 
Q 2772 3750 2511 3984 
Q 2250 4219 1831 4219 
Q 1534 4219 1204 4116 
Q 875 4013 500 3803 
L 500 4441 
Q 881 4594 1212 4672 
Q 1544 4750 1819 4750 
Q 2544 4750 2975 4387 
Q 3406 4025 3406 3419 
Q 3406 3131 3298 2873 
Q 3191 2616 2906 2266 
Q 2828 2175 2409 1742 
Q 1991 1309 1228 531 
z
" transform="scale(0.015625)"/>
       </defs>
       <use xlink:href="#DejaVuSans-32"/>
       <use xlink:href="#DejaVuSans-30" transform="translate(63.623047 0)"/>
       <use xlink:href="#DejaVuSans-30" transform="translate(127.246094 0)"/>
      </g>
     </g>
    </g>
    <g id="xtick_3">
     <g id="line2d_3">
      <g>
       <use xlink:href="#m6b3999954a" x="203.694545" y="307.584" style="stroke: #000000; stroke-width: 0.8"/>
      </g>
     </g>
     <g id="text_3">
      <!-- 400 -->
      <g transform="translate(194.150795 322.182437) scale(0.1 -0.1)">
       <defs>
        <path id="DejaVuSans-34" d="M 2419 4116 
L 825 1625 
L 2419 1625 
L 2419 4116 
z
M 2253 4666 
L 3047 4666 
L 3047 1625 
L 3713 1625 
L 3713 1100 
L 3047 1100 
L 3047 0 
L 2419 0 
L 2419 1100 
L 313 1100 
L 313 1709 
L 2253 4666 
z
" transform="scale(0.015625)"/>
       </defs>
       <use xlink:href="#DejaVuSans-34"/>
       <use xlink:href="#DejaVuSans-30" transform="translate(63.623047 0)"/>
       <use xlink:href="#DejaVuSans-30" transform="translate(127.246094 0)"/>
      </g>
     </g>
    </g>
    <g id="xtick_4">
     <g id="line2d_4">
      <g>
       <use xlink:href="#m6b3999954a" x="268.625455" y="307.584" style="stroke: #000000; stroke-width: 0.8"/>
      </g>
     </g>
     <g id="text_4">
      <!-- 600 -->
      <g transform="translate(259.081705 322.182437) scale(0.1 -0.1)">
       <defs>
        <path id="DejaVuSans-36" d="M 2113 2584 
Q 1688 2584 1439 2293 
Q 1191 2003 1191 1497 
Q 1191 994 1439 701 
Q 1688 409 2113 409 
Q 2538 409 2786 701 
Q 3034 994 3034 1497 
Q 3034 2003 2786 2293 
Q 2538 2584 2113 2584 
z
M 3366 4563 
L 3366 3988 
Q 3128 4100 2886 4159 
Q 2644 4219 2406 4219 
Q 1781 4219 1451 3797 
Q 1122 3375 1075 2522 
Q 1259 2794 1537 2939 
Q 1816 3084 2150 3084 
Q 2853 3084 3261 2657 
Q 3669 2231 3669 1497 
Q 3669 778 3244 343 
Q 2819 -91 2113 -91 
Q 1303 -91 875 529 
Q 447 1150 447 2328 
Q 447 3434 972 4092 
Q 1497 4750 2381 4750 
Q 2619 4750 2861 4703 
Q 3103 4656 3366 4563 
z
" transform="scale(0.015625)"/>
       </defs>
       <use xlink:href="#DejaVuSans-36"/>
       <use xlink:href="#DejaVuSans-30" transform="translate(63.623047 0)"/>
       <use xlink:href="#DejaVuSans-30" transform="translate(127.246094 0)"/>
      </g>
     </g>
    </g>
    <g id="xtick_5">
     <g id="line2d_5">
      <g>
       <use xlink:href="#m6b3999954a" x="333.556364" y="307.584" style="stroke: #000000; stroke-width: 0.8"/>
      </g>
     </g>
     <g id="text_5">
      <!-- 800 -->
      <g transform="translate(324.012614 322.182437) scale(0.1 -0.1)">
       <defs>
        <path id="DejaVuSans-38" d="M 2034 2216 
Q 1584 2216 1326 1975 
Q 1069 1734 1069 1313 
Q 1069 891 1326 650 
Q 1584 409 2034 409 
Q 2484 409 2743 651 
Q 3003 894 3003 1313 
Q 3003 1734 2745 1975 
Q 2488 2216 2034 2216 
z
M 1403 2484 
Q 997 2584 770 2862 
Q 544 3141 544 3541 
Q 544 4100 942 4425 
Q 1341 4750 2034 4750 
Q 2731 4750 3128 4425 
Q 3525 4100 3525 3541 
Q 3525 3141 3298 2862 
Q 3072 2584 2669 2484 
Q 3125 2378 3379 2068 
Q 3634 1759 3634 1313 
Q 3634 634 3220 271 
Q 2806 -91 2034 -91 
Q 1263 -91 848 271 
Q 434 634 434 1313 
Q 434 1759 690 2068 
Q 947 2378 1403 2484 
z
M 1172 3481 
Q 1172 3119 1398 2916 
Q 1625 2713 2034 2713 
Q 2441 2713 2670 2916 
Q 2900 3119 2900 3481 
Q 2900 3844 2670 4047 
Q 2441 4250 2034 4250 
Q 1625 4250 1398 4047 
Q 1172 3844 1172 3481 
z
" transform="scale(0.015625)"/>
       </defs>
       <use xlink:href="#DejaVuSans-38"/>
       <use xlink:href="#DejaVuSans-30" transform="translate(63.623047 0)"/>
       <use xlink:href="#DejaVuSans-30" transform="translate(127.246094 0)"/>
      </g>
     </g>
    </g>
    <g id="xtick_6">
     <g id="line2d_6">
      <g>
       <use xlink:href="#m6b3999954a" x="398.487273" y="307.584" style="stroke: #000000; stroke-width: 0.8"/>
      </g>
     </g>
     <g id="text_6">
      <!-- 1000 -->
      <g transform="translate(385.762273 322.182437) scale(0.1 -0.1)">
       <defs>
        <path id="DejaVuSans-31" d="M 794 531 
L 1825 531 
L 1825 4091 
L 703 3866 
L 703 4441 
L 1819 4666 
L 2450 4666 
L 2450 531 
L 3481 531 
L 3481 0 
L 794 0 
L 794 531 
z
" transform="scale(0.015625)"/>
       </defs>
       <use xlink:href="#DejaVuSans-31"/>
       <use xlink:href="#DejaVuSans-30" transform="translate(63.623047 0)"/>
       <use xlink:href="#DejaVuSans-30" transform="translate(127.246094 0)"/>
       <use xlink:href="#DejaVuSans-30" transform="translate(190.869141 0)"/>
      </g>
     </g>
    </g>
    <g id="text_7">
     <!-- Temperature ($^{\circ}C$) -->
     <g transform="translate(192.16 335.862125) scale(0.1 -0.1)">
      <defs>
       <path id="DejaVuSans-54" d="M -19 4666 
L 3928 4666 
L 3928 4134 
L 2272 4134 
L 2272 0 
L 1638 0 
L 1638 4134 
L -19 4134 
L -19 4666 
z
" transform="scale(0.015625)"/>
       <path id="DejaVuSans-65" d="M 3597 1894 
L 3597 1613 
L 953 1613 
Q 991 1019 1311 708 
Q 1631 397 2203 397 
Q 2534 397 2845 478 
Q 3156 559 3463 722 
L 3463 178 
Q 3153 47 2828 -22 
Q 2503 -91 2169 -91 
Q 1331 -91 842 396 
Q 353 884 353 1716 
Q 353 2575 817 3079 
Q 1281 3584 2069 3584 
Q 2775 3584 3186 3129 
Q 3597 2675 3597 1894 
z
M 3022 2063 
Q 3016 2534 2758 2815 
Q 2500 3097 2075 3097 
Q 1594 3097 1305 2825 
Q 1016 2553 972 2059 
L 3022 2063 
z
" transform="scale(0.015625)"/>
       <path id="DejaVuSans-6d" d="M 3328 2828 
Q 3544 3216 3844 3400 
Q 4144 3584 4550 3584 
Q 5097 3584 5394 3201 
Q 5691 2819 5691 2113 
L 5691 0 
L 5113 0 
L 5113 2094 
Q 5113 2597 4934 2840 
Q 4756 3084 4391 3084 
Q 3944 3084 3684 2787 
Q 3425 2491 3425 1978 
L 3425 0 
L 2847 0 
L 2847 2094 
Q 2847 2600 2669 2842 
Q 2491 3084 2119 3084 
Q 1678 3084 1418 2786 
Q 1159 2488 1159 1978 
L 1159 0 
L 581 0 
L 581 3500 
L 1159 3500 
L 1159 2956 
Q 1356 3278 1631 3431 
Q 1906 3584 2284 3584 
Q 2666 3584 2933 3390 
Q 3200 3197 3328 2828 
z
" transform="scale(0.015625)"/>
       <path id="DejaVuSans-70" d="M 1159 525 
L 1159 -1331 
L 581 -1331 
L 581 3500 
L 1159 3500 
L 1159 2969 
Q 1341 3281 1617 3432 
Q 1894 3584 2278 3584 
Q 2916 3584 3314 3078 
Q 3713 2572 3713 1747 
Q 3713 922 3314 415 
Q 2916 -91 2278 -91 
Q 1894 -91 1617 61 
Q 1341 213 1159 525 
z
M 3116 1747 
Q 3116 2381 2855 2742 
Q 2594 3103 2138 3103 
Q 1681 3103 1420 2742 
Q 1159 2381 1159 1747 
Q 1159 1113 1420 752 
Q 1681 391 2138 391 
Q 2594 391 2855 752 
Q 3116 1113 3116 1747 
z
" transform="scale(0.015625)"/>
       <path id="DejaVuSans-72" d="M 2631 2963 
Q 2534 3019 2420 3045 
Q 2306 3072 2169 3072 
Q 1681 3072 1420 2755 
Q 1159 2438 1159 1844 
L 1159 0 
L 581 0 
L 581 3500 
L 1159 3500 
L 1159 2956 
Q 1341 3275 1631 3429 
Q 1922 3584 2338 3584 
Q 2397 3584 2469 3576 
Q 2541 3569 2628 3553 
L 2631 2963 
z
" transform="scale(0.015625)"/>
       <path id="DejaVuSans-61" d="M 2194 1759 
Q 1497 1759 1228 1600 
Q 959 1441 959 1056 
Q 959 750 1161 570 
Q 1363 391 1709 391 
Q 2188 391 2477 730 
Q 2766 1069 2766 1631 
L 2766 1759 
L 2194 1759 
z
M 3341 1997 
L 3341 0 
L 2766 0 
L 2766 531 
Q 2569 213 2275 61 
Q 1981 -91 1556 -91 
Q 1019 -91 701 211 
Q 384 513 384 1019 
Q 384 1609 779 1909 
Q 1175 2209 1959 2209 
L 2766 2209 
L 2766 2266 
Q 2766 2663 2505 2880 
Q 2244 3097 1772 3097 
Q 1472 3097 1187 3025 
Q 903 2953 641 2809 
L 641 3341 
Q 956 3463 1253 3523 
Q 1550 3584 1831 3584 
Q 2591 3584 2966 3190 
Q 3341 2797 3341 1997 
z
" transform="scale(0.015625)"/>
       <path id="DejaVuSans-74" d="M 1172 4494 
L 1172 3500 
L 2356 3500 
L 2356 3053 
L 1172 3053 
L 1172 1153 
Q 1172 725 1289 603 
Q 1406 481 1766 481 
L 2356 481 
L 2356 0 
L 1766 0 
Q 1100 0 847 248 
Q 594 497 594 1153 
L 594 3053 
L 172 3053 
L 172 3500 
L 594 3500 
L 594 4494 
L 1172 4494 
z
" transform="scale(0.015625)"/>
       <path id="DejaVuSans-75" d="M 544 1381 
L 544 3500 
L 1119 3500 
L 1119 1403 
Q 1119 906 1312 657 
Q 1506 409 1894 409 
Q 2359 409 2629 706 
Q 2900 1003 2900 1516 
L 2900 3500 
L 3475 3500 
L 3475 0 
L 2900 0 
L 2900 538 
Q 2691 219 2414 64 
Q 2138 -91 1772 -91 
Q 1169 -91 856 284 
Q 544 659 544 1381 
z
M 1991 3584 
L 1991 3584 
z
" transform="scale(0.015625)"/>
       <path id="DejaVuSans-20" transform="scale(0.015625)"/>
       <path id="DejaVuSans-28" d="M 1984 4856 
Q 1566 4138 1362 3434 
Q 1159 2731 1159 2009 
Q 1159 1288 1364 580 
Q 1569 -128 1984 -844 
L 1484 -844 
Q 1016 -109 783 600 
Q 550 1309 550 2009 
Q 550 2706 781 3412 
Q 1013 4119 1484 4856 
L 1984 4856 
z
" transform="scale(0.015625)"/>
       <path id="DejaVuSans-2218" d="M 2000 2619 
Q 1750 2619 1578 2445 
Q 1406 2272 1406 2022 
Q 1406 1775 1578 1605 
Q 1750 1435 2000 1435 
Q 2250 1435 2422 1605 
Q 2594 1775 2594 2022 
Q 2594 2269 2420 2444 
Q 2247 2619 2000 2619 
z
M 2000 3022 
Q 2200 3022 2384 2945 
Q 2569 2869 2703 2725 
Q 2847 2585 2919 2406 
Q 2991 2228 2991 2022 
Q 2991 1610 2702 1324 
Q 2413 1038 1994 1038 
Q 1572 1038 1290 1319 
Q 1009 1600 1009 2022 
Q 1009 2441 1296 2731 
Q 1584 3022 2000 3022 
z
" transform="scale(0.015625)"/>
       <path id="DejaVuSans-Oblique-43" d="M 4447 4306 
L 4319 3641 
Q 4019 3944 3683 4091 
Q 3347 4238 2956 4238 
Q 2422 4238 2017 3981 
Q 1613 3725 1319 3200 
Q 1131 2863 1032 2486 
Q 934 2109 934 1728 
Q 934 1091 1264 756 
Q 1594 422 2222 422 
Q 2656 422 3056 561 
Q 3456 700 3834 978 
L 3688 231 
Q 3316 72 2936 -9 
Q 2556 -91 2175 -91 
Q 1278 -91 773 396 
Q 269 884 269 1753 
Q 269 2309 461 2846 
Q 653 3384 1013 3828 
Q 1394 4300 1883 4525 
Q 2372 4750 3022 4750 
Q 3422 4750 3780 4639 
Q 4138 4528 4447 4306 
z
" transform="scale(0.015625)"/>
       <path id="DejaVuSans-29" d="M 513 4856 
L 1013 4856 
Q 1481 4119 1714 3412 
Q 1947 2706 1947 2009 
Q 1947 1309 1714 600 
Q 1481 -109 1013 -844 
L 513 -844 
Q 928 -128 1133 580 
Q 1338 1288 1338 2009 
Q 1338 2731 1133 3434 
Q 928 4138 513 4856 
z
" transform="scale(0.015625)"/>
      </defs>
      <use xlink:href="#DejaVuSans-54" transform="translate(0 0.125)"/>
      <use xlink:href="#DejaVuSans-65" transform="translate(61.083984 0.125)"/>
      <use xlink:href="#DejaVuSans-6d" transform="translate(122.607422 0.125)"/>
      <use xlink:href="#DejaVuSans-70" transform="translate(220.019531 0.125)"/>
      <use xlink:href="#DejaVuSans-65" transform="translate(283.496094 0.125)"/>
      <use xlink:href="#DejaVuSans-72" transform="translate(345.019531 0.125)"/>
      <use xlink:href="#DejaVuSans-61" transform="translate(386.132812 0.125)"/>
      <use xlink:href="#DejaVuSans-74" transform="translate(447.412109 0.125)"/>
      <use xlink:href="#DejaVuSans-75" transform="translate(486.621094 0.125)"/>
      <use xlink:href="#DejaVuSans-72" transform="translate(550 0.125)"/>
      <use xlink:href="#DejaVuSans-65" transform="translate(591.113281 0.125)"/>
      <use xlink:href="#DejaVuSans-20" transform="translate(652.636719 0.125)"/>
      <use xlink:href="#DejaVuSans-28" transform="translate(684.423828 0.125)"/>
      <use xlink:href="#DejaVuSans-2218" transform="translate(724.394531 38.40625) scale(0.7)"/>
      <use xlink:href="#DejaVuSans-Oblique-43" transform="translate(770.947266 0.125)"/>
      <use xlink:href="#DejaVuSans-29" transform="translate(840.771484 0.125)"/>
     </g>
    </g>
   </g>
   <g id="matplotlib.axis_2">
    <g id="ytick_1">
     <g id="line2d_7">
      <defs>
       <path id="m848c932c51" d="M 0 0 
L -3.5 0 
" style="stroke: #000000; stroke-width: 0.8"/>
      </defs>
      <g>
       <use xlink:href="#m848c932c51" x="57.6" y="295.488" style="stroke: #000000; stroke-width: 0.8"/>
      </g>
     </g>
     <g id="text_8">
      <!-- 0.0 -->
      <g transform="translate(34.696875 299.287219) scale(0.1 -0.1)">
       <defs>
        <path id="DejaVuSans-2e" d="M 684 794 
L 1344 794 
L 1344 0 
L 684 0 
L 684 794 
z
" transform="scale(0.015625)"/>
       </defs>
       <use xlink:href="#DejaVuSans-30"/>
       <use xlink:href="#DejaVuSans-2e" transform="translate(63.623047 0)"/>
       <use xlink:href="#DejaVuSans-30" transform="translate(95.410156 0)"/>
      </g>
     </g>
    </g>
    <g id="ytick_2">
     <g id="line2d_8">
      <g>
       <use xlink:href="#m848c932c51" x="57.6" y="260.216485" style="stroke: #000000; stroke-width: 0.8"/>
      </g>
     </g>
     <g id="text_9">
      <!-- 0.2 -->
      <g transform="translate(34.696875 264.015704) scale(0.1 -0.1)">
       <use xlink:href="#DejaVuSans-30"/>
       <use xlink:href="#DejaVuSans-2e" transform="translate(63.623047 0)"/>
       <use xlink:href="#DejaVuSans-32" transform="translate(95.410156 0)"/>
      </g>
     </g>
    </g>
    <g id="ytick_3">
     <g id="line2d_9">
      <g>
       <use xlink:href="#m848c932c51" x="57.6" y="224.944971" style="stroke: #000000; stroke-width: 0.8"/>
      </g>
     </g>
     <g id="text_10">
      <!-- 0.4 -->
      <g transform="translate(34.696875 228.744189) scale(0.1 -0.1)">
       <use xlink:href="#DejaVuSans-30"/>
       <use xlink:href="#DejaVuSans-2e" transform="translate(63.623047 0)"/>
       <use xlink:href="#DejaVuSans-34" transform="translate(95.410156 0)"/>
      </g>
     </g>
    </g>
    <g id="ytick_4">
     <g id="line2d_10">
      <g>
       <use xlink:href="#m848c932c51" x="57.6" y="189.673456" style="stroke: #000000; stroke-width: 0.8"/>
      </g>
     </g>
     <g id="text_11">
      <!-- 0.6 -->
      <g transform="translate(34.696875 193.472675) scale(0.1 -0.1)">
       <use xlink:href="#DejaVuSans-30"/>
       <use xlink:href="#DejaVuSans-2e" transform="translate(63.623047 0)"/>
       <use xlink:href="#DejaVuSans-36" transform="translate(95.410156 0)"/>
      </g>
     </g>
    </g>
    <g id="ytick_5">
     <g id="line2d_11">
      <g>
       <use xlink:href="#m848c932c51" x="57.6" y="154.401941" style="stroke: #000000; stroke-width: 0.8"/>
      </g>
     </g>
     <g id="text_12">
      <!-- 0.8 -->
      <g transform="translate(34.696875 158.20116) scale(0.1 -0.1)">
       <use xlink:href="#DejaVuSans-30"/>
       <use xlink:href="#DejaVuSans-2e" transform="translate(63.623047 0)"/>
       <use xlink:href="#DejaVuSans-38" transform="translate(95.410156 0)"/>
      </g>
     </g>
    </g>
    <g id="ytick_6">
     <g id="line2d_12">
      <g>
       <use xlink:href="#m848c932c51" x="57.6" y="119.130427" style="stroke: #000000; stroke-width: 0.8"/>
      </g>
     </g>
     <g id="text_13">
      <!-- 1.0 -->
      <g transform="translate(34.696875 122.929646) scale(0.1 -0.1)">
       <use xlink:href="#DejaVuSans-31"/>
       <use xlink:href="#DejaVuSans-2e" transform="translate(63.623047 0)"/>
       <use xlink:href="#DejaVuSans-30" transform="translate(95.410156 0)"/>
      </g>
     </g>
    </g>
    <g id="ytick_7">
     <g id="line2d_13">
      <g>
       <use xlink:href="#m848c932c51" x="57.6" y="83.858912" style="stroke: #000000; stroke-width: 0.8"/>
      </g>
     </g>
     <g id="text_14">
      <!-- 1.2 -->
      <g transform="translate(34.696875 87.658131) scale(0.1 -0.1)">
       <use xlink:href="#DejaVuSans-31"/>
       <use xlink:href="#DejaVuSans-2e" transform="translate(63.623047 0)"/>
       <use xlink:href="#DejaVuSans-32" transform="translate(95.410156 0)"/>
      </g>
     </g>
    </g>
    <g id="ytick_8">
     <g id="line2d_14">
      <g>
       <use xlink:href="#m848c932c51" x="57.6" y="48.587398" style="stroke: #000000; stroke-width: 0.8"/>
      </g>
     </g>
     <g id="text_15">
      <!-- 1.4 -->
      <g transform="translate(34.696875 52.386616) scale(0.1 -0.1)">
       <use xlink:href="#DejaVuSans-31"/>
       <use xlink:href="#DejaVuSans-2e" transform="translate(63.623047 0)"/>
       <use xlink:href="#DejaVuSans-34" transform="translate(95.410156 0)"/>
      </g>
     </g>
    </g>
    <g id="text_16">
     <!-- Intensity ($^{\circ}C^{-1}$) -->
     <g transform="translate(28.596875 213.328) rotate(-90) scale(0.1 -0.1)">
      <defs>
       <path id="DejaVuSans-49" d="M 628 4666 
L 1259 4666 
L 1259 0 
L 628 0 
L 628 4666 
z
" transform="scale(0.015625)"/>
       <path id="DejaVuSans-6e" d="M 3513 2113 
L 3513 0 
L 2938 0 
L 2938 2094 
Q 2938 2591 2744 2837 
Q 2550 3084 2163 3084 
Q 1697 3084 1428 2787 
Q 1159 2491 1159 1978 
L 1159 0 
L 581 0 
L 581 3500 
L 1159 3500 
L 1159 2956 
Q 1366 3272 1645 3428 
Q 1925 3584 2291 3584 
Q 2894 3584 3203 3211 
Q 3513 2838 3513 2113 
z
" transform="scale(0.015625)"/>
       <path id="DejaVuSans-73" d="M 2834 3397 
L 2834 2853 
Q 2591 2978 2328 3040 
Q 2066 3103 1784 3103 
Q 1356 3103 1142 2972 
Q 928 2841 928 2578 
Q 928 2378 1081 2264 
Q 1234 2150 1697 2047 
L 1894 2003 
Q 2506 1872 2764 1633 
Q 3022 1394 3022 966 
Q 3022 478 2636 193 
Q 2250 -91 1575 -91 
Q 1294 -91 989 -36 
Q 684 19 347 128 
L 347 722 
Q 666 556 975 473 
Q 1284 391 1588 391 
Q 1994 391 2212 530 
Q 2431 669 2431 922 
Q 2431 1156 2273 1281 
Q 2116 1406 1581 1522 
L 1381 1569 
Q 847 1681 609 1914 
Q 372 2147 372 2553 
Q 372 3047 722 3315 
Q 1072 3584 1716 3584 
Q 2034 3584 2315 3537 
Q 2597 3491 2834 3397 
z
" transform="scale(0.015625)"/>
       <path id="DejaVuSans-69" d="M 603 3500 
L 1178 3500 
L 1178 0 
L 603 0 
L 603 3500 
z
M 603 4863 
L 1178 4863 
L 1178 4134 
L 603 4134 
L 603 4863 
z
" transform="scale(0.015625)"/>
       <path id="DejaVuSans-79" d="M 2059 -325 
Q 1816 -950 1584 -1140 
Q 1353 -1331 966 -1331 
L 506 -1331 
L 506 -850 
L 844 -850 
Q 1081 -850 1212 -737 
Q 1344 -625 1503 -206 
L 1606 56 
L 191 3500 
L 800 3500 
L 1894 763 
L 2988 3500 
L 3597 3500 
L 2059 -325 
z
" transform="scale(0.015625)"/>
       <path id="DejaVuSans-2212" d="M 678 2272 
L 4684 2272 
L 4684 1741 
L 678 1741 
L 678 2272 
z
" transform="scale(0.015625)"/>
      </defs>
      <use xlink:href="#DejaVuSans-49" transform="translate(0 0.684375)"/>
      <use xlink:href="#DejaVuSans-6e" transform="translate(29.492188 0.684375)"/>
      <use xlink:href="#DejaVuSans-74" transform="translate(92.871094 0.684375)"/>
      <use xlink:href="#DejaVuSans-65" transform="translate(132.080078 0.684375)"/>
      <use xlink:href="#DejaVuSans-6e" transform="translate(193.603516 0.684375)"/>
      <use xlink:href="#DejaVuSans-73" transform="translate(256.982422 0.684375)"/>
      <use xlink:href="#DejaVuSans-69" transform="translate(309.082031 0.684375)"/>
      <use xlink:href="#DejaVuSans-74" transform="translate(336.865234 0.684375)"/>
      <use xlink:href="#DejaVuSans-79" transform="translate(376.074219 0.684375)"/>
      <use xlink:href="#DejaVuSans-20" transform="translate(435.253906 0.684375)"/>
      <use xlink:href="#DejaVuSans-28" transform="translate(467.041016 0.684375)"/>
      <use xlink:href="#DejaVuSans-2218" transform="translate(507.011719 38.965625) scale(0.7)"/>
      <use xlink:href="#DejaVuSans-Oblique-43" transform="translate(553.564453 0.684375)"/>
      <use xlink:href="#DejaVuSans-2212" transform="translate(630.589193 38.965625) scale(0.7)"/>
      <use xlink:href="#DejaVuSans-31" transform="translate(689.241536 38.965625) scale(0.7)"/>
      <use xlink:href="#DejaVuSans-29" transform="translate(736.512044 0.684375)"/>
     </g>
    </g>
    <g id="text_17">
     <!-- 1e7 -->
     <g transform="translate(57.6 38.472) scale(0.1 -0.1)">
      <defs>
       <path id="DejaVuSans-37" d="M 525 4666 
L 3525 4666 
L 3525 4397 
L 1831 0 
L 1172 0 
L 2766 4134 
L 525 4134 
L 525 4666 
z
" transform="scale(0.015625)"/>
      </defs>
      <use xlink:href="#DejaVuSans-31"/>
      <use xlink:href="#DejaVuSans-65" transform="translate(63.623047 0)"/>
      <use xlink:href="#DejaVuSans-37" transform="translate(125.146484 0)"/>
     </g>
    </g>
   </g>
   <g id="line2d_15">
    <path d="M 73.832727 295.488 
L 96.082689 295.355996 
L 101.27976 295.056541 
L 106.152014 294.268311 
L 108.263324 293.62249 
L 109.237775 293.234591 
L 111.998719 291.676296 
L 112.97317 290.941061 
L 113.460396 290.50484 
L 114.434847 289.595893 
L 115.246889 288.7313 
L 115.896523 287.880199 
L 116.058931 287.743345 
L 116.546157 286.997882 
L 116.870974 286.551785 
L 117.845425 285.072057 
L 118.33265 284.138773 
L 118.819875 283.278236 
L 121.58082 276.95811 
L 123.367313 271.7314 
L 124.341764 268.336517 
L 124.666581 267.180317 
L 125.316214 264.739616 
L 125.965848 262.227138 
L 126.777891 258.863911 
L 127.589933 255.352279 
L 128.726792 249.862797 
L 130.350877 241.734476 
L 131.16292 237.463713 
L 136.522399 206.324609 
L 137.334442 201.293128 
L 140.582611 181.373628 
L 141.557062 175.531166 
L 143.505964 163.896151 
L 143.993189 160.86915 
L 144.805232 156.327678 
L 145.454866 152.475411 
L 149.352669 130.964902 
L 150.002303 127.981902 
L 150.489528 125.301443 
L 151.139162 122.162454 
L 151.788796 118.847726 
L 155.036966 103.785554 
L 155.199374 103.451886 
L 155.849008 100.638013 
L 156.985867 95.936496 
L 157.310684 94.707284 
L 157.473093 94.386578 
L 158.285135 91.137277 
L 160.234037 84.303686 
L 161.695713 79.643349 
L 162.02053 78.691547 
L 162.507756 77.224517 
L 163.482207 74.707101 
L 163.644615 73.820375 
L 163.807024 73.713061 
L 164.13184 72.629873 
L 164.294249 72.426533 
L 164.943883 70.867091 
L 166.243151 67.760993 
L 166.567968 67.153088 
L 166.892785 66.156933 
L 167.055193 66.130126 
L 167.217602 65.989393 
L 167.38001 65.197636 
L 167.542418 65.346481 
L 167.867235 64.26391 
L 168.679278 63.058683 
L 169.166503 62.015616 
L 169.328912 62.092949 
L 169.653729 61.26786 
L 169.978546 60.925197 
L 170.140954 60.416935 
L 170.303363 60.529274 
L 170.952996 59.480035 
L 171.440222 59.003958 
L 171.60263 58.726371 
L 171.765039 58.19333 
L 171.927447 58.137954 
L 172.252264 57.881883 
L 172.414673 57.786385 
L 172.73949 57.182537 
L 172.901898 57.341435 
L 174.038758 56.048381 
L 174.201166 56.215304 
L 174.8508 55.434216 
L 175.013208 55.452733 
L 175.338025 55.023038 
L 175.500434 55.228936 
L 175.987659 54.79633 
L 176.150068 54.649601 
L 176.312476 54.747744 
L 176.637293 54.182342 
L 176.96211 54.566625 
L 177.286927 54.386564 
L 177.449336 54.152449 
L 177.774153 54.13208 
L 178.098969 53.942672 
L 178.261378 54.143984 
L 178.423786 53.727075 
L 178.586195 53.978031 
L 178.748603 53.794796 
L 178.911012 53.996108 
L 179.07342 53.95581 
L 179.398237 53.568 
L 179.560646 53.688011 
L 179.723054 54.150685 
L 179.885463 53.696565 
L 180.535097 53.886414 
L 180.697505 53.652299 
L 180.859914 53.748502 
L 181.022322 53.706793 
L 181.347139 53.93209 
L 181.509548 54.313816 
L 181.671956 54.343973 
L 181.834364 54.118765 
L 181.996773 54.29812 
L 182.159181 54.2013 
L 182.32159 54.454197 
L 182.646407 54.248388 
L 182.971224 54.557013 
L 183.133632 54.433563 
L 183.296041 54.789629 
L 183.458449 54.556749 
L 183.620858 54.884862 
L 184.270492 54.957962 
L 184.4329 55.11589 
L 184.595309 55.522747 
L 184.920126 55.414199 
L 185.082534 55.797777 
L 185.407351 55.616746 
L 185.732168 56.188056 
L 185.894576 55.978808 
L 186.219393 56.619162 
L 186.381802 56.712367 
L 186.54421 56.620573 
L 187.031436 57.302548 
L 187.193844 57.333234 
L 187.68107 57.75949 
L 187.843478 57.685773 
L 188.168295 58.326127 
L 188.493112 58.43397 
L 188.65552 58.776456 
L 188.817929 58.604331 
L 188.980337 58.757498 
L 189.305154 59.384537 
L 189.629971 59.670325 
L 190.117197 60.307946 
L 190.279605 60.394096 
L 190.604422 60.997063 
L 190.766831 61.018931 
L 191.091648 61.374909 
L 191.254056 61.542713 
L 191.416465 62.063056 
L 191.578873 61.905481 
L 191.741282 61.962709 
L 192.228507 63.018385 
L 192.390915 63.257967 
L 192.553324 62.988492 
L 193.040549 64.033058 
L 193.202958 64.055191 
L 193.365366 64.706921 
L 193.527775 64.681966 
L 193.852592 65.18388 
L 194.015 65.355123 
L 194.177409 65.761715 
L 194.339817 65.834198 
L 194.664634 66.457446 
L 194.827043 66.531869 
L 195.476677 67.822806 
L 195.639085 68.097042 
L 195.801493 68.104185 
L 196.613536 69.635145 
L 196.775944 70.141732 
L 196.938353 69.955234 
L 198.400029 72.69874 
L 198.562438 72.803673 
L 198.887255 73.668002 
L 199.37448 74.219825 
L 199.699297 74.924108 
L 199.861705 75.127272 
L 200.024114 75.568343 
L 200.186522 75.583333 
L 200.511339 76.294319 
L 200.673748 76.658938 
L 200.836156 77.304936 
L 200.998565 77.32601 
L 201.323382 78.143781 
L 201.48579 78.242541 
L 201.648199 78.730169 
L 201.810607 78.825491 
L 201.973016 79.294955 
L 202.135424 79.369377 
L 202.62265 80.513762 
L 202.947466 81.302609 
L 203.109875 81.424208 
L 203.434692 81.932823 
L 203.5971 82.50863 
L 203.759509 82.588344 
L 204.246734 83.700631 
L 208.306946 92.428039 
L 208.631763 93.062749 
L 208.794172 93.242193 
L 208.95658 94.085976 
L 209.118989 93.96376 
L 209.281397 94.591593 
L 209.443806 94.685945 
L 209.606214 95.034074 
L 209.931031 95.923093 
L 210.255848 96.621028 
L 210.418256 97.046402 
L 210.580665 96.975242 
L 210.905482 98.003054 
L 212.042341 100.646831 
L 212.20475 100.790121 
L 213.016792 102.940537 
L 213.179201 102.940361 
L 213.504017 103.796489 
L 214.640877 106.411431 
L 214.965694 107.220559 
L 215.128102 107.336338 
L 215.452919 108.39369 
L 215.615328 108.364855 
L 215.940145 109.490105 
L 216.264962 110.057976 
L 220.162765 119.083692 
L 220.325173 119.283593 
L 220.812399 120.72223 
L 220.974807 120.716322 
L 221.624441 122.42849 
L 222.598892 124.720168 
L 222.923709 125.457167 
L 223.248526 126.03077 
L 223.735752 127.427874 
L 224.547794 129.087399 
L 224.872611 130.000402 
L 225.359836 130.920724 
L 226.00947 132.561291 
L 226.334287 133.159495 
L 226.659104 133.884501 
L 226.821513 134.193656 
L 227.14633 135.100399 
L 227.795963 136.43666 
L 228.12078 137.363066 
L 228.283189 137.525315 
L 228.770414 138.971095 
L 229.095231 139.484824 
L 229.25764 139.955346 
L 229.420048 140.065305 
L 229.744865 141.023368 
L 229.907274 141.168686 
L 230.881724 143.281186 
L 231.531358 144.898737 
L 231.856175 145.757951 
L 232.018584 145.876552 
L 232.180992 146.553765 
L 232.343401 146.666017 
L 233.317852 148.721817 
L 233.642669 149.571508 
L 233.805077 149.874402 
L 233.967486 150.510612 
L 234.129894 150.510083 
L 239.326965 161.706849 
L 239.489374 161.899078 
L 239.651782 162.452312 
L 239.814191 162.487583 
L 240.139008 163.369636 
L 241.438276 166.173721 
L 241.600684 166.26869 
L 241.925501 167.106829 
L 242.250318 167.63696 
L 242.412726 168.287102 
L 242.575135 168.31047 
L 242.899952 168.85612 
L 243.06236 169.130709 
L 243.387177 170.098295 
L 243.549586 170.215043 
L 243.874403 171.04604 
L 245.498487 174.078685 
L 245.823304 174.937899 
L 245.985713 175.112846 
L 246.31053 175.787325 
L 247.284981 177.653188 
L 247.447389 177.820728 
L 247.934615 179.01414 
L 248.259432 179.391016 
L 248.584248 180.231801 
L 248.746657 180.31125 
L 249.233882 181.364898 
L 249.396291 181.455722 
L 249.883516 182.646753 
L 250.045925 182.679556 
L 251.020376 184.70273 
L 251.994827 186.481472 
L 252.64446 187.599932 
L 252.969277 188.012432 
L 253.294094 188.78867 
L 255.405405 192.418021 
L 255.567813 192.544381 
L 256.055038 193.567255 
L 257.029489 195.106857 
L 257.191898 195.677021 
L 257.516715 196.062097 
L 257.841532 196.676086 
L 258.166349 197.013987 
L 258.815983 198.218774 
L 259.140799 198.709048 
L 259.790433 199.895406 
L 260.11525 200.298824 
L 260.277659 200.747654 
L 260.440067 200.802765 
L 260.927293 201.543467 
L 261.089701 202.016899 
L 261.25211 202.132854 
L 261.414518 202.52525 
L 261.576927 202.572602 
L 262.388969 203.934788 
L 263.688237 206.11201 
L 263.850645 206.488181 
L 264.013054 206.513929 
L 264.500279 207.347042 
L 264.825096 207.813332 
L 265.312322 208.505888 
L 265.799547 209.318191 
L 265.961956 209.411308 
L 266.611589 210.517775 
L 267.58604 211.853243 
L 268.073266 212.652142 
L 268.235674 212.756282 
L 268.885308 213.708965 
L 269.047717 213.87386 
L 269.534942 214.747094 
L 270.346984 215.668915 
L 270.671801 216.433513 
L 270.83421 216.404238 
L 270.996618 216.827055 
L 271.159027 216.881902 
L 271.483844 217.447658 
L 271.646252 217.439545 
L 272.620703 218.963098 
L 272.783112 219.092456 
L 273.107929 219.523563 
L 274.407196 221.203192 
L 274.732013 221.712777 
L 275.05683 222.059673 
L 275.219239 222.190971 
L 275.381647 222.651088 
L 275.544056 222.71246 
L 276.19369 223.60915 
L 277.330549 225.062954 
L 277.655366 225.513636 
L 277.817774 225.578976 
L 280.578718 229.023063 
L 280.741127 229.089021 
L 281.390761 229.991002 
L 281.553169 230.036767 
L 284.801339 233.878364 
L 285.126156 234.098282 
L 285.450973 234.567745 
L 285.77579 234.855296 
L 288.374325 237.666436 
L 288.536734 237.701002 
L 288.861551 238.179284 
L 289.836002 239.1183 
L 291.460086 240.771299 
L 291.947312 241.209195 
L 293.24658 242.557008 
L 293.408988 242.548807 
L 294.383439 243.6342 
L 294.708256 243.771847 
L 295.195481 244.349418 
L 295.520298 244.541119 
L 296.332341 245.281115 
L 296.494749 245.71134 
L 296.981975 245.760984 
L 297.306792 246.269159 
L 297.4692 246.433876 
L 297.631609 246.428145 
L 298.768468 247.541843 
L 298.930876 247.518299 
L 299.093285 247.865812 
L 299.255693 247.838917 
L 299.58051 248.2881 
L 299.905327 248.414813 
L 300.71737 249.180293 
L 300.879778 249.17994 
L 301.042187 249.481159 
L 301.204595 249.481512 
L 301.529412 249.908914 
L 301.69182 249.919055 
L 302.016637 250.228122 
L 302.82868 250.92588 
L 307.0513 254.198812 
L 307.213709 254.223855 
L 307.538526 254.68018 
L 307.700934 254.582566 
L 308.18816 255.036775 
L 308.512976 255.183769 
L 308.675385 255.514175 
L 309.16261 255.714341 
L 309.487427 255.988401 
L 309.649836 256.143243 
L 309.812244 256.066527 
L 310.29947 256.578493 
L 310.786695 256.835975 
L 311.436329 257.371044 
L 311.598738 257.405346 
L 311.761146 257.563009 
L 311.923555 257.542816 
L 312.085963 257.74889 
L 312.248371 257.762382 
L 312.573188 258.183876 
L 312.735597 258.152749 
L 313.222822 258.537649 
L 313.547639 258.75889 
L 314.197273 259.090971 
L 314.359682 259.38205 
L 314.52209 259.306921 
L 315.009316 259.63089 
L 315.171724 259.835641 
L 315.334133 259.844812 
L 315.658949 260.079015 
L 316.146175 260.409156 
L 316.6334 260.754729 
L 316.958217 260.825095 
L 317.283034 261.117408 
L 317.445443 261.093071 
L 317.607851 261.42136 
L 317.77026 261.376918 
L 318.419894 261.815608 
L 318.582302 261.847617 
L 318.907119 262.152274 
L 319.231936 262.252798 
L 320.368795 262.926749 
L 320.531204 263.168447 
L 320.693612 263.086176 
L 321.99288 263.916908 
L 322.155289 263.875023 
L 322.804922 264.398541 
L 324.10419 264.994806 
L 324.429007 265.243205 
L 324.916233 265.556593 
L 325.24105 265.723427 
L 325.890684 266.04475 
L 326.2155 266.145451 
L 326.540317 266.391293 
L 326.865134 266.480442 
L 327.189951 266.754854 
L 327.514768 266.82769 
L 329.46367 267.820142 
L 329.950895 268.043411 
L 330.113304 268.212185 
L 330.275712 268.172857 
L 330.600529 268.392511 
L 331.57498 268.872291 
L 331.737389 269.061788 
L 331.899797 269.061347 
L 332.062206 269.209575 
L 332.387023 269.2355 
L 332.549431 269.409741 
L 332.71184 269.312127 
L 333.036657 269.586804 
L 334.82315 270.411011 
L 334.985558 270.372301 
L 335.147967 270.457658 
L 335.310375 270.705528 
L 336.122418 270.877918 
L 336.609643 271.218112 
L 336.772051 271.183722 
L 337.259277 271.459369 
L 338.396136 271.92169 
L 338.720953 272.10325 
L 338.883362 272.039938 
L 339.208179 272.305709 
L 340.507446 272.794484 
L 340.669855 272.958055 
L 341.15708 272.979483 
L 341.319489 273.14764 
L 341.481897 273.143319 
L 341.806714 273.29966 
L 342.618757 273.696288 
L 342.781165 273.612342 
L 343.105982 273.771064 
L 343.268391 273.76736 
L 343.593208 274.031897 
L 343.918024 274.101293 
L 344.730067 274.382584 
L 344.892475 274.552592 
L 345.054884 274.495453 
L 345.379701 274.681863 
L 345.866926 274.889876 
L 346.029335 274.745704 
L 346.191743 274.978672 
L 346.678969 274.987138 
L 347.003786 275.244002 
L 352.850491 277.169827 
L 353.012899 277.360999 
L 353.175308 277.195311 
L 353.662533 277.527216 
L 353.98735 277.550671 
L 354.474575 277.788754 
L 355.124209 277.848892 
L 355.449026 278.03442 
L 355.611435 278.114575 
L 355.773843 278.049851 
L 356.261069 278.329995 
L 356.585886 278.345338 
L 360.646098 279.569172 
L 360.808506 279.684862 
L 361.295732 279.69659 
L 361.620548 279.822774 
L 363.407042 280.333065 
L 363.56945 280.390028 
L 363.731859 280.324423 
L 364.056676 280.425035 
L 365.031126 280.691511 
L 365.193535 280.680225 
L 365.355943 280.839916 
L 366.005577 280.912487 
L 367.629662 281.318286 
L 369.578564 281.811029 
L 370.228198 281.98483 
L 370.390606 281.930864 
L 371.202649 282.259066 
L 371.689874 282.323084 
L 372.826733 282.51646 
L 373.15155 282.604903 
L 373.313959 282.711599 
L 373.476367 282.65058 
L 373.963593 282.823763 
L 374.126001 282.895011 
L 374.28841 282.823674 
L 374.775635 283.009908 
L 374.938044 282.98513 
L 375.100452 283.101967 
L 375.587677 283.084772 
L 376.074903 283.239878 
L 377.374171 283.490923 
L 377.861396 283.639416 
L 378.186213 283.684388 
L 378.348622 283.77239 
L 378.51103 283.6746 
L 378.673439 283.835702 
L 378.835847 283.792407 
L 379.323072 283.966119 
L 379.647889 283.9491 
L 379.972706 284.051829 
L 380.297523 284.076166 
L 381.596791 284.301904 
L 381.921608 284.44493 
L 382.73365 284.485139 
L 383.058467 284.627107 
L 389.22999 285.665236 
L 389.392398 285.627407 
L 389.554806 285.766465 
L 389.879623 285.769287 
L 390.366849 285.852528 
L 390.854074 285.933564 
L 391.990934 286.105953 
L 392.153342 286.20198 
L 392.315751 286.130026 
L 392.965385 286.293333 
L 393.290201 286.299859 
L 393.777427 286.414227 
L 394.427061 286.435037 
L 395.56392 286.645608 
L 396.051146 286.70019 
L 397.025596 286.941536 
L 397.188005 286.827432 
L 398.487273 287.064192 
L 398.487273 287.064192 
" clip-path="url(#p64a736057b)" style="fill: none; stroke-dasharray: 1.85,0.8; stroke-dashoffset: 0; stroke: #8000ff; stroke-width: 0.5"/>
   </g>
   <g id="line2d_16">
    <path d="M 73.832727 295.487912 
L 99.818084 295.3679 
L 106.63924 294.96122 
L 110.212226 294.455162 
L 110.699452 294.332682 
L 111.998719 294.003246 
L 114.272438 293.283619 
L 117.195791 291.85133 
L 118.33265 291.119887 
L 118.819875 290.792744 
L 120.606369 289.305344 
L 121.58082 288.324179 
L 122.230453 287.661692 
L 123.529721 286.059571 
L 124.341764 285.016769 
L 126.615482 281.612539 
L 127.427525 280.151152 
L 127.752342 279.589012 
L 129.376426 276.559894 
L 134.573498 265.117727 
L 138.63371 255.10723 
L 139.445752 252.9793 
L 140.095386 251.470208 
L 147.566176 232.603475 
L 147.890993 231.856689 
L 148.540627 230.265502 
L 148.865444 229.352764 
L 152.276022 221.160337 
L 152.43843 221.04156 
L 152.763247 220.257386 
L 153.250473 219.061065 
L 153.575289 218.42847 
L 154.062515 217.036039 
L 154.224923 217.025898 
L 154.54974 216.000467 
L 154.712149 215.842892 
L 155.199374 214.622586 
L 155.361783 214.416071 
L 155.6866 213.572464 
L 155.849008 213.366126 
L 156.661051 211.484479 
L 157.310684 210.305881 
L 157.473093 210.043461 
L 157.79791 209.162114 
L 157.960318 208.935936 
L 158.285135 208.191178 
L 158.609952 207.618897 
L 159.097178 206.523981 
L 159.421995 205.931508 
L 159.746812 205.249798 
L 160.558854 203.692649 
L 161.046079 202.882815 
L 161.370896 202.072628 
L 162.994981 199.121372 
L 163.15739 199.052857 
L 163.644615 197.958999 
L 163.807024 197.904329 
L 164.294249 196.745042 
L 164.619066 196.314289 
L 165.593517 194.716401 
L 165.755925 194.569054 
L 166.243151 193.536745 
L 166.405559 193.459765 
L 166.892785 192.685379 
L 167.542418 191.407933 
L 167.704827 191.346384 
L 168.029644 190.793591 
L 168.192052 190.694919 
L 168.354461 190.146623 
L 168.516869 190.060826 
L 168.679278 189.725922 
L 168.841686 189.733594 
L 169.328912 188.833994 
L 169.816137 188.217448 
L 170.790588 186.723082 
L 170.952996 186.590726 
L 171.277813 186.188719 
L 171.60263 185.510536 
L 171.765039 185.698533 
L 172.414673 184.604499 
L 173.713941 182.793218 
L 173.876349 182.810325 
L 174.363575 182.201891 
L 174.525983 182.091668 
L 175.013208 181.135898 
L 175.175617 181.154415 
L 175.500434 180.870832 
L 176.150068 180.034457 
L 176.474885 179.626012 
L 176.637293 179.765952 
L 176.96211 179.188028 
L 177.286927 179.031335 
L 178.261378 177.869579 
L 178.423786 177.86129 
L 178.586195 177.496318 
L 178.748603 177.4062 
L 178.911012 177.505048 
L 179.07342 176.993876 
L 179.235829 177.146778 
L 179.398237 176.629962 
L 179.723054 176.626876 
L 179.885463 176.497341 
L 180.047871 176.046218 
L 180.21028 176.147271 
L 180.372688 175.79535 
L 180.535097 175.860249 
L 180.697505 175.77066 
L 181.022322 175.377029 
L 181.347139 175.181537 
L 181.509548 174.67495 
L 181.671956 174.797254 
L 181.996773 174.550001 
L 182.159181 174.537127 
L 182.32159 174.373819 
L 182.483998 174.482985 
L 182.646407 173.923931 
L 182.971224 173.781346 
L 183.133632 173.570334 
L 183.296041 173.808241 
L 183.783266 173.153072 
L 183.945675 173.185787 
L 184.270492 172.968426 
L 184.4329 172.694366 
L 184.595309 172.794185 
L 184.757717 172.487058 
L 184.920126 172.610861 
L 185.244942 172.192012 
L 185.732168 171.83524 
L 185.894576 171.980471 
L 186.056985 171.632165 
L 186.381802 171.657648 
L 186.869027 171.081576 
L 187.031436 171.205996 
L 187.193844 170.928586 
L 187.68107 170.711754 
L 188.65552 170.111786 
L 188.980337 170.104555 
L 189.305154 169.76974 
L 189.629971 169.965585 
L 190.117197 169.462966 
L 190.279605 169.482542 
L 190.604422 169.300894 
L 190.766831 168.961494 
L 190.929239 169.239169 
L 191.091648 168.972869 
L 191.254056 169.196666 
L 191.416465 168.75542 
L 191.578873 169.035476 
L 191.741282 168.79316 
L 192.066099 168.709479 
L 192.390915 168.590525 
L 193.202958 168.182434 
L 193.365366 168.280401 
L 193.527775 168.245217 
L 193.690183 168.079353 
L 194.015 168.261001 
L 194.177409 167.941265 
L 194.339817 168.055016 
L 195.476677 167.599572 
L 196.288719 167.417924 
L 196.613536 167.339004 
L 196.775944 167.507778 
L 196.938353 167.484146 
L 197.100761 166.988758 
L 197.425578 167.344295 
L 199.212071 166.852169 
L 199.37448 167.002778 
L 199.536888 166.991139 
L 199.699297 166.726514 
L 200.024114 167.084079 
L 200.186522 166.886647 
L 200.836156 166.914776 
L 200.998565 166.590719 
L 201.160973 166.866189 
L 201.323382 166.854021 
L 201.48579 166.984878 
L 201.648199 166.654472 
L 201.973016 166.723252 
L 202.135424 166.652179 
L 202.297833 166.843439 
L 202.62265 166.647947 
L 203.272283 166.802612 
L 203.434692 166.660556 
L 203.759509 166.809402 
L 203.921917 166.62987 
L 204.084326 166.642215 
L 204.246734 166.793883 
L 204.409143 166.625197 
L 205.221185 166.978617 
L 205.383594 166.779774 
L 205.870819 166.972092 
L 206.358044 166.881356 
L 206.520453 167.023588 
L 207.007678 167.031789 
L 207.170087 167.159913 
L 207.332495 167.068031 
L 207.494904 166.806845 
L 207.657312 167.019091 
L 207.819721 166.909661 
L 208.469355 167.141395 
L 208.631763 167.004454 
L 208.794172 167.028262 
L 208.95658 167.382917 
L 209.118989 167.114942 
L 209.281397 167.368191 
L 209.443806 167.249503 
L 209.606214 167.298794 
L 209.768622 167.504868 
L 209.931031 167.363165 
L 210.093439 167.501077 
L 210.255848 167.368279 
L 210.743073 167.565535 
L 211.230299 167.653626 
L 211.392707 167.487144 
L 211.879933 167.724963 
L 212.042341 167.928391 
L 212.367158 167.903084 
L 212.529567 167.789157 
L 213.016792 168.03253 
L 213.179201 168.021861 
L 213.341609 167.862786 
L 213.666426 168.210739 
L 213.991243 168.318141 
L 214.153651 168.070094 
L 214.31606 168.292481 
L 214.478468 168.257386 
L 214.803285 168.495028 
L 215.452919 168.630294 
L 215.615328 168.840071 
L 215.777736 168.729054 
L 216.102553 168.922607 
L 216.589779 169.08027 
L 216.752187 168.893684 
L 216.914595 169.307331 
L 217.077004 169.184233 
L 217.239412 169.428841 
L 217.889046 169.47972 
L 218.051455 169.493388 
L 218.213863 169.698668 
L 218.376272 169.659693 
L 218.53868 169.795312 
L 218.701089 169.509789 
L 219.025906 169.859947 
L 219.188314 169.86127 
L 219.350723 170.035247 
L 219.67554 170.034541 
L 220.000357 170.204197 
L 220.162765 170.334702 
L 220.325173 170.201287 
L 220.487582 170.47473 
L 220.812399 170.477199 
L 221.137216 170.749583 
L 221.299624 170.64853 
L 221.462033 170.73036 
L 221.624441 170.972235 
L 221.78685 170.809192 
L 221.949258 171.025935 
L 222.274075 170.944282 
L 222.436484 171.279273 
L 222.598892 171.221251 
L 222.923709 171.403252 
L 223.573343 171.765932 
L 223.735752 171.995373 
L 223.89816 171.746444 
L 224.060568 171.789299 
L 224.222977 172.067591 
L 224.547794 172.063712 
L 224.872611 172.315727 
L 225.522245 172.656097 
L 225.684653 172.448965 
L 225.847062 172.802209 
L 226.00947 172.713589 
L 226.171879 172.914725 
L 226.334287 172.856792 
L 226.983921 173.275817 
L 227.308738 173.436391 
L 227.471146 173.357294 
L 227.795963 173.67465 
L 227.958372 173.609309 
L 228.283189 174.158928 
L 228.445597 173.999324 
L 228.770414 174.100642 
L 229.095231 174.393924 
L 229.744865 174.652112 
L 229.907274 174.525487 
L 230.232091 174.920969 
L 230.394499 174.795226 
L 230.556908 175.090801 
L 230.719316 175.096533 
L 231.206541 175.400926 
L 231.856175 175.772511 
L 232.018584 175.51838 
L 232.343401 176.123816 
L 232.505809 175.960597 
L 232.830626 176.306169 
L 232.993035 176.344792 
L 233.317852 176.648127 
L 233.805077 176.673434 
L 233.967486 176.953402 
L 234.292303 176.970861 
L 234.454711 177.295888 
L 234.617119 177.120853 
L 234.941936 177.545787 
L 235.104345 177.327721 
L 235.429162 177.726818 
L 235.59157 177.744189 
L 236.078796 178.170974 
L 236.241204 178.051492 
L 236.72843 178.498029 
L 236.890838 178.448737 
L 237.053247 178.528275 
L 237.378064 179.135121 
L 237.865289 179.015374 
L 238.027697 178.980279 
L 238.352514 179.497448 
L 238.514923 179.434929 
L 238.83974 179.955008 
L 239.002148 179.660049 
L 239.164557 179.855542 
L 239.326965 179.857394 
L 239.489374 180.378354 
L 239.651782 180.218838 
L 240.139008 180.36742 
L 240.301416 180.717049 
L 240.463825 180.700912 
L 240.626233 180.567056 
L 240.95105 180.87868 
L 241.925501 181.568327 
L 242.087909 181.553424 
L 242.412726 181.931447 
L 242.575135 181.763907 
L 242.737543 182.052428 
L 242.899952 182.069358 
L 243.224769 182.441826 
L 243.387177 182.217675 
L 243.549586 182.603105 
L 243.711994 182.427188 
L 244.036811 182.918079 
L 244.19922 183.053875 
L 244.361628 182.963315 
L 244.686445 183.135793 
L 245.011262 183.448298 
L 245.17367 183.464435 
L 245.336079 183.757277 
L 245.498487 183.733821 
L 245.823304 183.969699 
L 245.985713 184.218452 
L 246.148121 183.968024 
L 246.31053 184.25972 
L 246.472938 184.273211 
L 246.797755 184.736149 
L 246.960164 184.618695 
L 248.746657 185.757524 
L 248.909065 185.807874 
L 249.233882 186.245065 
L 249.721108 186.582084 
L 249.883516 186.738954 
L 250.208333 186.715587 
L 250.370742 187.122444 
L 250.53315 186.875808 
L 250.695559 187.216795 
L 251.182784 187.333897 
L 251.67001 187.721795 
L 251.832418 187.679822 
L 251.994827 187.911291 
L 252.157235 187.859089 
L 252.482052 188.253425 
L 252.64446 188.255365 
L 252.806869 188.125742 
L 252.969277 188.576247 
L 253.131686 188.635327 
L 253.294094 188.917323 
L 253.456503 188.78964 
L 253.78132 189.151438 
L 253.943728 189.140063 
L 254.430954 189.606793 
L 255.405405 189.990812 
L 255.567813 190.288327 
L 255.730221 190.218401 
L 256.379855 190.927182 
L 256.542264 191.003457 
L 256.704672 190.948521 
L 257.029489 191.343386 
L 257.191898 191.407227 
L 257.354306 191.196392 
L 257.516715 191.571857 
L 257.679123 191.604042 
L 258.166349 192.048728 
L 258.491166 192.034972 
L 258.978391 192.503731 
L 259.628025 192.768796 
L 259.790433 193.128125 
L 259.952842 193.154137 
L 260.11525 193.313212 
L 260.277659 193.299985 
L 260.440067 193.63771 
L 260.602476 193.547238 
L 261.089701 193.899954 
L 261.25211 193.877468 
L 261.576927 194.332118 
L 261.739335 194.27198 
L 261.901744 194.550008 
L 262.064152 194.586514 
L 262.713786 195.115939 
L 262.876194 195.0394 
L 263.038603 195.250235 
L 263.201011 195.184983 
L 263.525828 195.558685 
L 264.013054 195.926478 
L 264.175462 195.936795 
L 264.500279 196.299298 
L 264.662688 196.17673 
L 264.987505 196.439062 
L 265.312322 196.773877 
L 265.961956 197.107104 
L 266.449181 197.638205 
L 266.611589 197.596849 
L 266.773998 197.689613 
L 266.936406 197.944362 
L 267.098815 197.888016 
L 267.261223 198.160047 
L 267.423632 198.043475 
L 268.398083 198.954714 
L 268.560491 198.786116 
L 269.210125 199.379119 
L 269.534942 199.584664 
L 269.69735 199.797263 
L 269.859759 199.668698 
L 270.022167 199.981733 
L 270.184576 199.907045 
L 270.509393 200.264787 
L 270.671801 200.294326 
L 271.159027 200.698273 
L 271.971069 201.055133 
L 272.620703 201.669651 
L 272.783112 201.429981 
L 273.107929 201.999351 
L 273.270337 202.149344 
L 273.432745 202.014871 
L 273.595154 202.259743 
L 273.757562 202.245194 
L 274.082379 202.76395 
L 274.244788 202.692701 
L 274.732013 203.177861 
L 274.894422 203.061641 
L 275.05683 203.128128 
L 275.381647 203.648383 
L 275.544056 203.416649 
L 275.706464 203.484635 
L 276.031281 204.135218 
L 276.356098 203.970324 
L 276.518507 204.223485 
L 276.680915 204.209729 
L 277.16814 204.563326 
L 277.330549 204.850083 
L 277.655366 204.84638 
L 277.980183 205.269814 
L 278.305 205.193363 
L 279.441859 206.083793 
L 279.604268 206.127882 
L 279.766676 206.412171 
L 279.929085 206.290308 
L 280.091493 206.557754 
L 280.253901 206.501319 
L 280.578718 206.762329 
L 280.741127 207.00385 
L 280.903535 206.952795 
L 281.228352 207.221476 
L 281.553169 207.53063 
L 281.715578 207.533452 
L 282.852437 208.440283 
L 283.014846 208.371415 
L 283.502071 208.746439 
L 283.66448 208.68833 
L 284.151705 209.267752 
L 284.314113 209.190155 
L 284.476522 209.418362 
L 284.63893 209.285653 
L 284.963747 209.701945 
L 286.587832 210.689106 
L 286.750241 210.559307 
L 287.075058 211.038294 
L 287.399874 211.173913 
L 287.562283 211.15663 
L 287.724691 211.444181 
L 288.049508 211.581564 
L 288.211917 211.46217 
L 288.374325 211.818324 
L 288.536734 211.673622 
L 288.861551 212.077217 
L 291.784903 213.90481 
L 291.947312 214.062386 
L 292.10972 213.954543 
L 292.434537 214.350995 
L 292.596946 214.346586 
L 292.921763 214.581759 
L 294.058622 215.428187 
L 294.221031 215.341155 
L 294.545847 215.639375 
L 294.708256 215.648634 
L 295.033073 215.908938 
L 295.195481 216.058842 
L 295.35789 215.999586 
L 295.845115 216.428575 
L 296.007524 216.348156 
L 296.332341 216.661015 
L 296.819566 216.920789 
L 296.981975 217.214777 
L 297.631609 217.3899 
L 297.794017 217.757077 
L 298.118834 217.635478 
L 299.093285 218.296731 
L 299.905327 218.604828 
L 300.230144 219.024559 
L 300.554961 218.979499 
L 300.879778 219.262465 
L 301.204595 219.447288 
L 301.367004 219.431239 
L 301.854229 219.913225 
L 302.179046 220.147692 
L 302.341454 220.099282 
L 302.666271 220.174675 
L 302.82868 220.641229 
L 302.991088 220.590879 
L 303.478314 220.899416 
L 303.640722 221.059813 
L 303.803131 220.923577 
L 303.965539 220.952853 
L 304.290356 221.273911 
L 304.452765 221.269238 
L 304.777582 221.715952 
L 304.93999 221.610137 
L 305.264807 221.847162 
L 305.752032 222.090183 
L 306.239258 222.379321 
L 306.401666 222.744822 
L 306.726483 222.572344 
L 306.888892 222.702761 
L 307.0513 223.084134 
L 307.213709 222.875238 
L 307.538526 222.987049 
L 307.700934 223.029992 
L 308.025751 223.440376 
L 308.18816 223.557566 
L 308.350568 223.491079 
L 308.837793 224.004191 
L 309.16261 223.891411 
L 309.325019 224.31317 
L 309.812244 224.276399 
L 310.137061 224.65936 
L 310.29947 224.688194 
L 310.461878 224.993734 
L 310.786695 224.96534 
L 311.598738 225.381368 
L 311.923555 225.624653 
L 312.248371 225.669271 
L 312.573188 226.025161 
L 312.898005 226.139881 
L 313.385231 226.309626 
L 313.547639 226.510321 
L 313.710048 226.466672 
L 314.034865 226.915943 
L 314.197273 226.833672 
L 314.359682 227.035425 
L 314.684499 226.957563 
L 315.009316 227.265925 
L 315.171724 227.411508 
L 315.334133 227.304371 
L 315.983766 227.850285 
L 316.146175 227.859721 
L 316.308583 228.001336 
L 316.470992 227.966329 
L 317.120626 228.472387 
L 317.283034 228.41657 
L 317.77026 228.766816 
L 318.419894 229.083113 
L 319.231936 229.4062 
L 319.394344 229.643048 
L 319.556753 229.635289 
L 319.88157 229.789866 
L 321.018429 230.458085 
L 321.180838 230.453676 
L 321.505655 230.627564 
L 321.668063 230.621568 
L 322.480106 231.219068 
L 322.804922 231.342694 
L 323.292148 231.585186 
L 323.454556 231.56755 
L 323.779373 231.884994 
L 323.941782 231.852809 
L 325.890684 232.78768 
L 327.514768 233.630758 
L 327.839585 233.845208 
L 328.001994 233.819989 
L 328.651628 234.317847 
L 328.976445 234.2809 
L 329.138853 234.323931 
L 329.46367 234.740752 
L 329.626078 234.652926 
L 329.788487 234.799303 
L 330.113304 234.882455 
L 330.438121 235.097347 
L 331.250163 235.339662 
L 331.412572 235.570955 
L 331.57498 235.467169 
L 332.062206 235.928432 
L 332.224614 235.80507 
L 332.549431 236.21034 
L 332.71184 236.212809 
L 333.036657 236.357069 
L 333.199065 236.24711 
L 333.523882 236.603 
L 334.173516 236.917445 
L 334.335924 236.801049 
L 334.498333 236.865685 
L 334.82315 237.267074 
L 335.147967 237.160554 
L 335.310375 237.388673 
L 335.472784 237.407279 
L 335.797601 237.546072 
L 336.284826 237.793678 
L 336.609643 237.925682 
L 336.93446 238.077261 
L 337.096868 238.118793 
L 337.259277 238.304057 
L 337.421685 238.248328 
L 337.584094 238.425303 
L 337.746502 238.399907 
L 337.908911 238.624851 
L 338.233728 238.578557 
L 338.396136 238.663738 
L 338.720953 238.962135 
L 338.883362 239.054635 
L 339.04577 239.010369 
L 339.370587 239.261679 
L 339.532996 239.230287 
L 340.182629 239.615893 
L 340.345038 239.558665 
L 340.994672 240.006348 
L 341.15708 239.958644 
L 341.644306 240.291607 
L 341.969123 240.362767 
L 342.131531 240.376435 
L 342.29394 240.657725 
L 342.618757 240.538243 
L 343.918024 241.211312 
L 344.080433 241.161843 
L 344.242841 241.379468 
L 344.567658 241.515616 
L 344.892475 241.670988 
L 345.379701 241.771776 
L 346.191743 242.243003 
L 346.841377 242.42377 
L 350.576772 243.916637 
L 350.73918 243.90729 
L 350.901589 244.214064 
L 351.063997 244.068569 
L 351.226406 244.187786 
L 351.388814 244.151192 
L 351.551223 244.238313 
L 351.713631 244.480805 
L 351.87604 244.496941 
L 352.038448 244.676826 
L 352.363265 244.619862 
L 352.525674 244.893393 
L 353.824942 245.226444 
L 353.98735 245.472287 
L 354.474575 245.556057 
L 354.799392 245.691852 
L 355.124209 245.692469 
L 355.286618 245.945807 
L 355.449026 245.778532 
L 356.423477 246.295436 
L 356.748294 246.33688 
L 356.910703 246.542601 
L 357.073111 246.471529 
L 357.722745 246.861896 
L 358.372379 247.011271 
L 359.34683 247.516183 
L 359.509238 247.384973 
L 361.620548 248.205653 
L 361.782957 248.238808 
L 362.107774 248.477332 
L 362.270182 248.594345 
L 362.432591 248.494262 
L 363.407042 248.916638 
L 363.56945 248.922987 
L 363.731859 249.075625 
L 363.894267 249.036297 
L 364.868718 249.513962 
L 365.193535 249.515108 
L 365.355943 249.675946 
L 365.518352 249.632738 
L 366.005577 249.889868 
L 366.330394 249.909002 
L 366.81762 250.219304 
L 367.142437 250.268331 
L 367.304845 250.410916 
L 367.629662 250.431462 
L 367.792071 250.466821 
L 368.116888 250.6751 
L 368.92893 250.948278 
L 369.091338 251.053916 
L 369.578564 250.974026 
L 369.903381 251.261665 
L 370.228198 251.363512 
L 370.390606 251.302227 
L 370.877832 251.586339 
L 371.04024 251.598332 
L 371.202649 251.73351 
L 371.365057 251.720812 
L 371.689874 251.845144 
L 372.177099 251.992403 
L 372.339508 251.875389 
L 372.501916 252.098658 
L 372.664325 252.11453 
L 372.989142 252.345823 
L 373.15155 252.273164 
L 374.28841 252.756207 
L 374.450818 252.673937 
L 374.613227 252.947291 
L 374.938044 252.843504 
L 375.100452 253.103632 
L 375.425269 253.243042 
L 375.587677 253.0882 
L 375.750086 253.254153 
L 375.912494 253.212885 
L 376.237311 253.387479 
L 376.39972 253.342949 
L 376.562128 253.505815 
L 376.886945 253.557312 
L 377.861396 253.925546 
L 378.348622 254.059049 
L 378.51103 254.23814 
L 378.673439 254.108429 
L 378.835847 254.142995 
L 378.998255 254.360356 
L 379.160664 254.357799 
L 379.323072 254.231086 
L 379.647889 254.504528 
L 380.297523 254.64632 
L 381.434383 255.006442 
L 381.596791 254.989247 
L 381.7592 255.166751 
L 381.921608 255.120633 
L 382.408834 255.449893 
L 382.571242 255.418854 
L 383.383284 255.760194 
L 383.708101 255.716898 
L 384.032918 255.747673 
L 384.357735 255.998806 
L 384.520144 255.946516 
L 384.682552 256.059737 
L 384.844961 255.976761 
L 385.007369 256.228071 
L 385.169778 256.096949 
L 385.494595 256.30752 
L 385.819412 256.295968 
L 386.144228 256.622053 
L 386.469045 256.518972 
L 386.793862 256.621524 
L 387.768313 256.996549 
L 389.22999 257.303676 
L 389.554806 257.500931 
L 389.717215 257.525798 
L 389.879623 257.673056 
L 390.366849 257.679141 
L 390.529257 257.849238 
L 390.691666 257.780811 
L 390.854074 257.987678 
L 391.016483 257.881423 
L 391.178891 258.040145 
L 391.666117 258.05928 
L 391.828525 258.280432 
L 391.990934 258.167563 
L 392.478159 258.399473 
L 392.640568 258.287134 
L 392.802976 258.499821 
L 392.965385 258.374871 
L 393.45261 258.575302 
L 394.102244 258.757832 
L 394.427061 258.830315 
L 395.401512 259.071131 
L 395.56392 259.298809 
L 395.726329 259.306921 
L 395.888737 259.427991 
L 396.375963 259.391749 
L 396.538371 259.527545 
L 396.700779 259.45515 
L 397.350413 259.680799 
L 397.67523 259.775151 
L 398.000047 259.889342 
L 398.324864 259.97999 
L 398.487273 260.046388 
L 398.487273 260.046388 
" clip-path="url(#p64a736057b)" style="fill: none; stroke-dasharray: 1.85,0.8; stroke-dashoffset: 0; stroke: #80ffb4; stroke-width: 0.5"/>
   </g>
   <g id="line2d_17">
    <path d="M 73.832727 295.488 
L 112.161128 295.379011 
L 115.896523 295.192689 
L 118.33265 294.926918 
L 120.119143 294.608593 
L 123.204904 293.668431 
L 124.504172 292.97561 
L 124.828989 292.847927 
L 127.589933 290.650688 
L 129.051609 288.922119 
L 131.000511 285.848031 
L 133.599047 280.122317 
L 134.248681 278.348425 
L 135.060723 275.938234 
L 137.009625 269.3183 
L 139.283343 260.359247 
L 140.907428 253.156186 
L 142.206696 247.035168 
L 143.830781 238.9803 
L 144.642823 234.944798 
L 150.002303 206.556431 
L 150.32712 204.890557 
L 151.626388 197.941452 
L 152.276022 194.245967 
L 152.600839 192.689259 
L 153.737698 186.659329 
L 156.011417 175.130746 
L 156.336234 173.330576 
L 158.122727 164.202837 
L 158.447544 162.44323 
L 159.746812 156.32177 
L 160.071629 154.695312 
L 160.234037 154.168444 
L 160.883671 150.939161 
L 162.832573 141.923321 
L 162.994981 141.435075 
L 163.644615 138.378974 
L 164.13184 136.568311 
L 164.456657 134.978888 
L 164.943883 133.264957 
L 165.2687 131.752691 
L 166.892785 125.170321 
L 167.217602 123.957069 
L 169.653729 114.968741 
L 170.303363 112.890102 
L 172.089856 106.865375 
L 172.252264 106.642812 
L 172.577081 105.437937 
L 172.73949 105.232745 
L 172.901898 104.204933 
L 173.064307 104.058468 
L 173.226715 103.719156 
L 173.551532 102.66392 
L 173.713941 102.271613 
L 174.038758 100.927504 
L 174.363575 100.387673 
L 174.688391 99.230062 
L 174.8508 99.044357 
L 176.637293 94.424318 
L 176.96211 93.758745 
L 177.449336 92.464985 
L 177.611744 92.213852 
L 177.936561 91.406928 
L 178.423786 90.099678 
L 178.586195 90.217044 
L 179.398237 88.098989 
L 179.723054 87.68208 
L 179.885463 87.136959 
L 180.047871 87.252296 
L 180.372688 86.107648 
L 180.535097 86.044512 
L 180.859914 85.342608 
L 181.347139 84.299101 
L 181.509548 84.343631 
L 181.834364 83.745867 
L 181.996773 83.598079 
L 182.159181 83.184785 
L 182.32159 83.081528 
L 182.646407 82.345676 
L 182.808815 82.481383 
L 183.133632 81.662026 
L 183.458449 81.398989 
L 183.945675 80.19623 
L 184.108083 80.425142 
L 184.270492 79.974108 
L 184.4329 80.048883 
L 185.082534 79.059076 
L 185.244942 79.035268 
L 185.732168 78.193425 
L 185.894576 78.282574 
L 186.219393 77.716025 
L 186.381802 77.521238 
L 186.54421 77.666557 
L 187.031436 76.926208 
L 187.193844 76.871625 
L 187.843478 76.030223 
L 188.005887 76.255785 
L 188.168295 76.182155 
L 188.493112 75.664898 
L 188.65552 75.826177 
L 188.817929 75.212718 
L 188.980337 75.120571 
L 189.142746 74.849509 
L 189.467563 75.112547 
L 189.79238 74.783022 
L 189.954788 74.807536 
L 190.117197 74.520691 
L 190.279605 74.475543 
L 190.442014 74.630738 
L 190.766831 74.344862 
L 191.091648 73.986063 
L 191.254056 74.187639 
L 191.416465 74.049287 
L 191.578873 73.601779 
L 191.741282 74.166388 
L 192.066099 73.744894 
L 192.228507 73.58335 
L 192.390915 73.806619 
L 192.715732 73.313876 
L 193.040549 73.519861 
L 193.202958 73.754064 
L 193.365366 73.316257 
L 193.527775 73.570123 
L 193.852592 73.49182 
L 194.015 73.262379 
L 194.177409 73.281955 
L 194.339817 73.41387 
L 194.502226 73.171731 
L 194.664634 73.239805 
L 194.827043 73.742689 
L 194.989451 73.17279 
L 195.15186 73.316168 
L 195.314268 73.167499 
L 195.476677 73.411313 
L 195.639085 72.970772 
L 195.801493 73.346943 
L 195.963902 73.221993 
L 196.12631 73.55963 
L 196.288719 73.324545 
L 196.451127 73.469688 
L 196.613536 73.384771 
L 196.775944 73.484502 
L 196.938353 73.292448 
L 197.100761 73.676202 
L 197.26317 73.511573 
L 197.425578 73.782193 
L 197.587987 73.564656 
L 197.750395 73.788454 
L 197.912804 73.507075 
L 198.075212 74.069215 
L 198.237621 73.674086 
L 198.400029 73.979978 
L 199.212071 74.268676 
L 199.37448 74.196193 
L 199.536888 74.295129 
L 199.861705 74.263649 
L 200.348931 74.780024 
L 200.511339 74.70278 
L 200.836156 75.172684 
L 200.998565 75.060874 
L 201.323382 75.318179 
L 201.973016 75.558467 
L 202.135424 75.722479 
L 202.297833 75.671424 
L 202.62265 76.362657 
L 202.785058 76.167694 
L 202.947466 76.430202 
L 203.109875 76.341847 
L 203.272283 76.469706 
L 203.434692 76.998779 
L 203.5971 76.656733 
L 203.759509 76.728246 
L 203.921917 77.13819 
L 204.084326 77.097627 
L 204.409143 77.219667 
L 204.73396 77.882419 
L 205.058777 77.862931 
L 205.383594 78.456286 
L 205.546002 78.63864 
L 205.708411 78.613862 
L 206.195636 79.154574 
L 206.358044 79.271675 
L 206.520453 79.643349 
L 206.84527 79.633297 
L 207.007678 79.728089 
L 207.332495 80.442337 
L 207.494904 80.257691 
L 207.657312 80.37973 
L 207.819721 80.912065 
L 208.306946 81.282064 
L 208.469355 81.378796 
L 208.794172 81.947637 
L 209.118989 82.133077 
L 209.281397 82.602717 
L 209.443806 82.624762 
L 209.606214 82.519829 
L 209.768622 83.293598 
L 209.931031 83.261325 
L 210.255848 83.623034 
L 211.392707 85.125953 
L 211.555116 85.389872 
L 211.717524 85.414915 
L 212.367158 86.55251 
L 212.529567 86.446607 
L 212.854384 87.117824 
L 213.016792 87.093663 
L 213.179201 87.202916 
L 213.666426 88.343597 
L 213.828834 88.22482 
L 213.991243 88.893127 
L 214.153651 88.756009 
L 214.640877 89.747668 
L 214.965694 89.93981 
L 215.128102 90.476907 
L 215.290511 90.4956 
L 215.452919 90.742677 
L 215.615328 91.212141 
L 215.777736 91.177399 
L 215.940145 91.377476 
L 216.102553 91.783363 
L 216.264962 91.859109 
L 216.914595 93.218385 
L 217.077004 93.205775 
L 217.239412 93.743931 
L 217.564229 93.857769 
L 218.051455 94.95489 
L 218.213863 94.920765 
L 218.53868 95.660408 
L 218.701089 95.717019 
L 220.812399 99.318153 
L 221.137216 99.883555 
L 221.949258 101.244065 
L 222.111667 101.375805 
L 222.598892 102.555725 
L 222.923709 103.084092 
L 223.248526 103.427637 
L 224.710202 106.158181 
L 224.872611 106.764851 
L 225.035019 106.542376 
L 225.522245 107.571863 
L 225.684653 108.148112 
L 226.00947 108.421201 
L 226.171879 108.859538 
L 226.334287 108.859715 
L 226.659104 109.904545 
L 226.821513 109.894493 
L 226.983921 110.351964 
L 227.14633 110.468096 
L 228.12078 112.599818 
L 228.283189 112.566486 
L 228.445597 113.011172 
L 228.770414 113.365386 
L 229.095231 114.129014 
L 229.420048 114.807285 
L 230.232091 116.34239 
L 230.394499 116.491765 
L 230.719316 117.360502 
L 230.881724 117.341103 
L 231.36895 118.679392 
L 231.531358 118.96033 
L 231.693767 118.858219 
L 232.018584 119.715317 
L 232.993035 121.725264 
L 233.317852 121.976485 
L 233.642669 123.015672 
L 233.805077 122.862418 
L 233.967486 123.651882 
L 234.129894 123.573315 
L 234.617119 124.828893 
L 234.779528 124.958604 
L 234.941936 125.26864 
L 235.266753 126.240106 
L 235.429162 126.245926 
L 236.078796 127.536863 
L 236.241204 128.133657 
L 236.72843 128.700382 
L 236.890838 129.344969 
L 237.053247 129.320191 
L 237.540472 130.608483 
L 237.702881 130.702129 
L 238.027697 131.394685 
L 238.190106 131.490888 
L 238.352514 132.091562 
L 238.514923 132.182651 
L 239.164557 133.489725 
L 239.326965 133.559915 
L 239.651782 134.55369 
L 239.976599 135.153571 
L 240.463825 135.998852 
L 240.95105 136.980988 
L 241.113459 137.10435 
L 241.438276 137.996455 
L 241.763092 138.452339 
L 242.087909 139.14225 
L 242.412726 139.714883 
L 242.575135 140.459817 
L 242.737543 140.330106 
L 242.899952 140.897448 
L 243.06236 140.99471 
L 243.387177 141.790964 
L 243.549586 141.925172 
L 244.19922 143.329243 
L 244.361628 143.428885 
L 244.524037 144.051075 
L 244.686445 144.100543 
L 244.848854 144.569742 
L 245.011262 144.649544 
L 245.336079 145.487772 
L 245.823304 146.301574 
L 246.148121 147.136186 
L 246.31053 147.21731 
L 246.472938 147.42603 
L 246.797755 148.252882 
L 247.122572 148.815904 
L 248.259432 151.010762 
L 248.584248 151.653761 
L 249.558699 153.557189 
L 249.721108 153.621295 
L 250.208333 154.739578 
L 250.370742 154.78596 
L 250.695559 155.741025 
L 250.857967 155.880788 
L 252.319643 158.828164 
L 252.482052 158.759032 
L 252.64446 159.218972 
L 252.806869 159.328402 
L 253.131686 160.191584 
L 253.294094 160.560877 
L 253.456503 160.624189 
L 253.78132 161.28165 
L 254.430954 162.459631 
L 254.755771 163.100691 
L 255.080588 163.677292 
L 255.242996 163.909114 
L 255.405405 164.37408 
L 255.567813 164.259007 
L 255.89263 165.172098 
L 257.029489 167.295091 
L 257.354306 167.647453 
L 257.516715 168.215942 
L 257.679123 168.295832 
L 258.328757 169.618602 
L 258.653574 169.962852 
L 259.140799 170.893226 
L 259.465616 171.70306 
L 259.790433 171.917423 
L 259.952842 172.156387 
L 260.277659 172.976362 
L 260.440067 173.087291 
L 260.602476 173.62042 
L 260.764884 173.74969 
L 262.551378 176.99802 
L 262.713786 177.309203 
L 262.876194 177.369694 
L 265.961956 182.734491 
L 266.124364 182.8217 
L 266.611589 183.762038 
L 266.773998 183.857624 
L 267.423632 185.212227 
L 267.748449 185.545278 
L 273.432745 194.451953 
L 273.757562 194.8835 
L 274.082379 195.45966 
L 274.244788 195.606213 
L 274.569605 196.145603 
L 275.706464 197.915615 
L 277.980183 201.175673 
L 278.142591 201.183874 
L 278.305 201.729524 
L 278.467408 201.81691 
L 278.954634 202.658841 
L 279.117042 202.73732 
L 279.279451 203.232708 
L 279.441859 203.218688 
L 279.929085 203.898987 
L 281.065944 205.768201 
L 281.228352 205.637167 
L 281.715578 206.504935 
L 282.040395 206.840631 
L 282.852437 208.056088 
L 283.014846 208.102205 
L 283.502071 208.941932 
L 283.826888 209.35117 
L 284.801339 210.617858 
L 285.126156 211.19587 
L 285.288564 211.172414 
L 285.77579 211.970697 
L 285.938198 212.111342 
L 286.100607 212.470494 
L 286.263015 212.458766 
L 288.049508 214.818519 
L 288.374325 215.201832 
L 289.023959 216.142876 
L 289.186368 216.092261 
L 289.348776 216.596468 
L 289.836002 217.039213 
L 289.99841 217.518906 
L 290.160819 217.456916 
L 290.323227 217.539628 
L 290.485636 217.918268 
L 290.648044 217.899662 
L 290.810452 218.338175 
L 291.135269 218.644685 
L 291.947312 219.816845 
L 292.10972 219.768523 
L 292.434537 220.265499 
L 294.708256 222.883439 
L 294.870664 223.164288 
L 295.033073 223.093481 
L 295.195481 223.540018 
L 295.35789 223.550776 
L 295.682707 223.982411 
L 296.007524 224.37225 
L 296.494749 225.045583 
L 296.657158 225.070096 
L 300.879778 229.645605 
L 301.042187 229.755741 
L 301.204595 230.271058 
L 301.367004 230.190286 
L 304.777582 233.734279 
L 304.93999 233.715674 
L 305.102398 234.117769 
L 305.264807 234.064509 
L 307.863343 236.772744 
L 308.025751 236.792055 
L 308.18816 237.179248 
L 308.837793 237.617761 
L 309.487427 238.27099 
L 309.649836 238.20318 
L 309.812244 238.54311 
L 309.974653 238.581379 
L 312.085963 240.560464 
L 312.248371 240.541682 
L 312.41078 240.889018 
L 312.735597 241.125425 
L 312.898005 241.411477 
L 313.222822 241.545685 
L 313.872456 242.147329 
L 314.034865 242.200589 
L 314.197273 242.514329 
L 314.359682 242.484172 
L 315.334133 243.392149 
L 315.496541 243.422659 
L 315.821358 243.750949 
L 316.6334 244.366525 
L 316.795809 244.683704 
L 317.283034 244.910676 
L 318.095077 245.765658 
L 318.907119 246.236709 
L 319.231936 246.580782 
L 319.88157 247.083666 
L 321.018429 247.932563 
L 321.180838 247.988909 
L 321.343246 248.291715 
L 321.505655 248.296036 
L 321.99288 248.758005 
L 322.967331 249.279847 
L 323.292148 249.818002 
L 323.454556 249.786787 
L 323.616965 249.869851 
L 323.779373 250.16622 
L 323.941782 250.102908 
L 324.266599 250.496361 
L 324.753824 250.706668 
L 325.24105 251.096683 
L 325.565867 251.419417 
L 325.728275 251.428147 
L 326.702726 252.165939 
L 329.626078 254.154547 
L 329.788487 254.217947 
L 330.275712 254.688293 
L 330.438121 254.756543 
L 330.600529 254.683972 
L 330.925346 255.036511 
L 331.087755 255.31057 
L 331.250163 255.234119 
L 331.412572 255.416385 
L 331.57498 255.377586 
L 331.737389 255.621753 
L 331.899797 255.632335 
L 332.224614 255.892109 
L 332.549431 256.103739 
L 333.361473 256.573732 
L 334.011107 257.086315 
L 334.173516 257.033055 
L 335.797601 258.018365 
L 335.960009 258.012897 
L 336.122418 258.325668 
L 336.93446 258.715771 
L 337.096868 258.921933 
L 337.259277 258.88234 
L 338.071319 259.479311 
L 338.233728 259.608228 
L 338.396136 259.567137 
L 338.720953 259.825412 
L 339.532996 260.313658 
L 339.695404 260.298051 
L 340.020221 260.609322 
L 340.345038 260.728187 
L 340.832263 261.024115 
L 341.15708 261.236273 
L 341.319489 261.216609 
L 341.481897 261.462011 
L 341.644306 261.423124 
L 342.131531 261.738363 
L 342.29394 261.770725 
L 342.618757 262.082172 
L 342.781165 262.006603 
L 343.105982 262.362933 
L 343.430799 262.364697 
L 343.755616 262.587701 
L 344.080433 262.798448 
L 344.242841 262.801711 
L 344.730067 263.115363 
L 345.054884 263.203718 
L 345.542109 263.55899 
L 346.51656 264.095029 
L 346.678969 264.09741 
L 347.328602 264.495537 
L 347.491011 264.475697 
L 347.978236 264.755488 
L 348.952687 265.276537 
L 349.277504 265.433848 
L 350.576772 266.047219 
L 350.73918 266.052069 
L 351.063997 266.294649 
L 351.713631 266.583523 
L 351.87604 266.567474 
L 352.200857 266.747712 
L 352.688082 267.004224 
L 353.500125 267.384803 
L 353.824942 267.517336 
L 354.636984 267.897387 
L 354.961801 267.992091 
L 355.611435 268.297366 
L 355.773843 268.285991 
L 356.09866 268.518077 
L 356.261069 268.516225 
L 356.748294 268.87432 
L 357.073111 268.93384 
L 357.560337 269.111697 
L 357.722745 269.313097 
L 357.885153 269.262923 
L 358.20997 269.415737 
L 358.697196 269.624633 
L 359.671647 270.053182 
L 359.834055 270.056973 
L 360.321281 270.31375 
L 360.483689 270.31763 
L 360.808506 270.451221 
L 361.295732 270.693624 
L 361.45814 270.694859 
L 361.782957 270.886383 
L 362.594999 271.183369 
L 363.082225 271.421893 
L 363.244633 271.465806 
L 363.407042 271.36634 
L 363.56945 271.59296 
L 364.056676 271.686341 
L 364.381493 271.902203 
L 364.543901 271.966573 
L 364.70631 271.885272 
L 364.868718 272.134377 
L 365.031126 272.086849 
L 365.355943 272.234108 
L 365.518352 272.249186 
L 366.005577 272.544056 
L 367.304845 273.036446 
L 367.467254 272.95444 
L 367.792071 273.045176 
L 369.253747 273.616222 
L 369.578564 273.750077 
L 369.740972 273.849367 
L 369.903381 273.742229 
L 370.390606 274.028105 
L 379.160664 276.816583 
L 379.323072 276.813056 
L 379.485481 276.928923 
L 379.647889 276.85741 
L 380.784749 277.344862 
L 381.109566 277.346978 
L 381.434383 277.503055 
L 383.383284 278.011141 
L 383.87051 278.149582 
L 384.520144 278.293489 
L 384.844961 278.402566 
L 385.007369 278.379023 
L 385.169778 278.547268 
L 385.332186 278.452299 
L 385.819412 278.629715 
L 386.306637 278.822474 
L 386.631454 278.847428 
L 387.443496 279.046713 
L 387.605905 279.050857 
L 387.768313 279.198997 
L 388.09313 279.175365 
L 389.067581 279.487166 
L 389.879623 279.649326 
L 390.366849 279.801435 
L 390.854074 279.92947 
L 391.990934 280.174872 
L 393.127793 280.47662 
L 393.615018 280.472211 
L 393.777427 280.494961 
L 394.102244 280.666998 
L 394.589469 280.77678 
L 394.751878 280.750239 
L 395.239103 280.93224 
L 398.487273 281.642784 
L 398.487273 281.642784 
" clip-path="url(#p64a736057b)" style="fill: none; stroke-dasharray: 1.85,0.8; stroke-dashoffset: 0; stroke: #ff0000; stroke-width: 0.5"/>
   </g>
   <g id="patch_3">
    <path d="M 57.6 307.584 
L 57.6 41.472 
" style="fill: none; stroke: #000000; stroke-width: 0.8; stroke-linejoin: miter; stroke-linecap: square"/>
   </g>
   <g id="patch_4">
    <path d="M 414.72 307.584 
L 414.72 41.472 
" style="fill: none; stroke: #000000; stroke-width: 0.8; stroke-linejoin: miter; stroke-linecap: square"/>
   </g>
   <g id="patch_5">
    <path d="M 57.6 307.584 
L 414.72 307.584 
" style="fill: none; stroke: #000000; stroke-width: 0.8; stroke-linejoin: miter; stroke-linecap: square"/>
   </g>
   <g id="patch_6">
    <path d="M 57.6 41.472 
L 414.72 41.472 
" style="fill: none; stroke: #000000; stroke-width: 0.8; stroke-linejoin: miter; stroke-linecap: square"/>
   </g>
   <g id="text_18">
    <!-- Heating Rate ($^{\circ}C.s^{-1}$) -->
    <g transform="translate(271.872 68.0832) scale(0.12 -0.12)">
     <defs>
      <path id="DejaVuSans-48" d="M 628 4666 
L 1259 4666 
L 1259 2753 
L 3553 2753 
L 3553 4666 
L 4184 4666 
L 4184 0 
L 3553 0 
L 3553 2222 
L 1259 2222 
L 1259 0 
L 628 0 
L 628 4666 
z
" transform="scale(0.015625)"/>
      <path id="DejaVuSans-67" d="M 2906 1791 
Q 2906 2416 2648 2759 
Q 2391 3103 1925 3103 
Q 1463 3103 1205 2759 
Q 947 2416 947 1791 
Q 947 1169 1205 825 
Q 1463 481 1925 481 
Q 2391 481 2648 825 
Q 2906 1169 2906 1791 
z
M 3481 434 
Q 3481 -459 3084 -895 
Q 2688 -1331 1869 -1331 
Q 1566 -1331 1297 -1286 
Q 1028 -1241 775 -1147 
L 775 -588 
Q 1028 -725 1275 -790 
Q 1522 -856 1778 -856 
Q 2344 -856 2625 -561 
Q 2906 -266 2906 331 
L 2906 616 
Q 2728 306 2450 153 
Q 2172 0 1784 0 
Q 1141 0 747 490 
Q 353 981 353 1791 
Q 353 2603 747 3093 
Q 1141 3584 1784 3584 
Q 2172 3584 2450 3431 
Q 2728 3278 2906 2969 
L 2906 3500 
L 3481 3500 
L 3481 434 
z
" transform="scale(0.015625)"/>
      <path id="DejaVuSans-52" d="M 2841 2188 
Q 3044 2119 3236 1894 
Q 3428 1669 3622 1275 
L 4263 0 
L 3584 0 
L 2988 1197 
Q 2756 1666 2539 1819 
Q 2322 1972 1947 1972 
L 1259 1972 
L 1259 0 
L 628 0 
L 628 4666 
L 2053 4666 
Q 2853 4666 3247 4331 
Q 3641 3997 3641 3322 
Q 3641 2881 3436 2590 
Q 3231 2300 2841 2188 
z
M 1259 4147 
L 1259 2491 
L 2053 2491 
Q 2509 2491 2742 2702 
Q 2975 2913 2975 3322 
Q 2975 3731 2742 3939 
Q 2509 4147 2053 4147 
L 1259 4147 
z
" transform="scale(0.015625)"/>
      <path id="DejaVuSans-Oblique-73" d="M 3200 3397 
L 3091 2853 
Q 2863 2978 2609 3040 
Q 2356 3103 2088 3103 
Q 1634 3103 1373 2948 
Q 1113 2794 1113 2528 
Q 1113 2219 1719 2053 
Q 1766 2041 1788 2034 
L 1972 1978 
Q 2547 1819 2739 1644 
Q 2931 1469 2931 1166 
Q 2931 609 2489 259 
Q 2047 -91 1331 -91 
Q 1053 -91 747 -37 
Q 441 16 72 128 
L 184 722 
Q 500 559 806 475 
Q 1113 391 1394 391 
Q 1816 391 2080 572 
Q 2344 753 2344 1031 
Q 2344 1331 1650 1516 
L 1591 1531 
L 1394 1581 
Q 956 1697 753 1886 
Q 550 2075 550 2369 
Q 550 2928 970 3256 
Q 1391 3584 2113 3584 
Q 2397 3584 2667 3537 
Q 2938 3491 3200 3397 
z
" transform="scale(0.015625)"/>
     </defs>
     <use xlink:href="#DejaVuSans-48" transform="translate(0 0.684375)"/>
     <use xlink:href="#DejaVuSans-65" transform="translate(75.195312 0.684375)"/>
     <use xlink:href="#DejaVuSans-61" transform="translate(136.71875 0.684375)"/>
     <use xlink:href="#DejaVuSans-74" transform="translate(197.998047 0.684375)"/>
     <use xlink:href="#DejaVuSans-69" transform="translate(237.207031 0.684375)"/>
     <use xlink:href="#DejaVuSans-6e" transform="translate(264.990234 0.684375)"/>
     <use xlink:href="#DejaVuSans-67" transform="translate(328.369141 0.684375)"/>
     <use xlink:href="#DejaVuSans-20" transform="translate(391.845703 0.684375)"/>
     <use xlink:href="#DejaVuSans-52" transform="translate(423.632812 0.684375)"/>
     <use xlink:href="#DejaVuSans-61" transform="translate(493.115234 0.684375)"/>
     <use xlink:href="#DejaVuSans-74" transform="translate(554.394531 0.684375)"/>
     <use xlink:href="#DejaVuSans-65" transform="translate(593.603516 0.684375)"/>
     <use xlink:href="#DejaVuSans-20" transform="translate(655.126953 0.684375)"/>
     <use xlink:href="#DejaVuSans-28" transform="translate(686.914062 0.684375)"/>
     <use xlink:href="#DejaVuSans-2218" transform="translate(726.884766 38.965625) scale(0.7)"/>
     <use xlink:href="#DejaVuSans-Oblique-43" transform="translate(773.4375 0.684375)"/>
     <use xlink:href="#DejaVuSans-2e" transform="translate(843.261719 0.684375)"/>
     <use xlink:href="#DejaVuSans-Oblique-73" transform="translate(894.53125 0.684375)"/>
     <use xlink:href="#DejaVuSans-2212" transform="translate(951.280755 38.965625) scale(0.7)"/>
     <use xlink:href="#DejaVuSans-31" transform="translate(1009.933099 38.965625) scale(0.7)"/>
     <use xlink:href="#DejaVuSans-29" transform="translate(1057.203607 0.684375)"/>
    </g>
   </g>
   <g id="legend_1">
    <g id="patch_7">
     <path d="M 314.584 120.117575 
L 352.9465 120.117575 
Q 354.9465 120.117575 354.9465 118.117575 
L 354.9465 75.0832 
Q 354.9465 73.0832 352.9465 73.0832 
L 314.584 73.0832 
Q 312.584 73.0832 312.584 75.0832 
L 312.584 118.117575 
Q 312.584 120.117575 314.584 120.117575 
z
" style="fill: #ffffff; opacity: 0.8; stroke: #cccccc; stroke-linejoin: miter"/>
    </g>
    <g id="line2d_18">
     <path d="M 316.584 81.181637 
L 326.584 81.181637 
L 336.584 81.181637 
" style="fill: none; stroke-dasharray: 1.85,0.8; stroke-dashoffset: 0; stroke: #8000ff; stroke-width: 0.5"/>
    </g>
    <g id="text_19">
     <!-- 5 -->
     <g transform="translate(344.584 84.681637) scale(0.1 -0.1)">
      <defs>
       <path id="DejaVuSans-35" d="M 691 4666 
L 3169 4666 
L 3169 4134 
L 1269 4134 
L 1269 2991 
Q 1406 3038 1543 3061 
Q 1681 3084 1819 3084 
Q 2600 3084 3056 2656 
Q 3513 2228 3513 1497 
Q 3513 744 3044 326 
Q 2575 -91 1722 -91 
Q 1428 -91 1123 -41 
Q 819 9 494 109 
L 494 744 
Q 775 591 1075 516 
Q 1375 441 1709 441 
Q 2250 441 2565 725 
Q 2881 1009 2881 1497 
Q 2881 1984 2565 2268 
Q 2250 2553 1709 2553 
Q 1456 2553 1204 2497 
Q 953 2441 691 2322 
L 691 4666 
z
" transform="scale(0.015625)"/>
      </defs>
      <use xlink:href="#DejaVuSans-35"/>
     </g>
    </g>
    <g id="line2d_19">
     <path d="M 316.584 95.859762 
L 326.584 95.859762 
L 336.584 95.859762 
" style="fill: none; stroke-dasharray: 1.85,0.8; stroke-dashoffset: 0; stroke: #80ffb4; stroke-width: 0.5"/>
    </g>
    <g id="text_20">
     <!-- 5 -->
     <g transform="translate(344.584 99.359762) scale(0.1 -0.1)">
      <use xlink:href="#DejaVuSans-35"/>
     </g>
    </g>
    <g id="line2d_20">
     <path d="M 316.584 110.537887 
L 326.584 110.537887 
L 336.584 110.537887 
" style="fill: none; stroke-dasharray: 1.85,0.8; stroke-dashoffset: 0; stroke: #ff0000; stroke-width: 0.5"/>
    </g>
    <g id="text_21">
     <!-- 5 -->
     <g transform="translate(344.584 114.037887) scale(0.1 -0.1)">
      <use xlink:href="#DejaVuSans-35"/>
     </g>
    </g>
   </g>
  </g>
 </g>
 <defs>
  <clipPath id="p64a736057b">
   <rect x="57.6" y="41.472" width="357.12" height="266.112"/>
  </clipPath>
 </defs>
</svg>
