<?xml version="1.0" encoding="utf-8" standalone="no"?>
<!DOCTYPE svg PUBLIC "-//W3C//DTD SVG 1.1//EN"
  "http://www.w3.org/Graphics/SVG/1.1/DTD/svg11.dtd">
<svg xmlns:xlink="http://www.w3.org/1999/xlink" width="460.8pt" height="345.6pt" viewBox="0 0 460.8 345.6" xmlns="http://www.w3.org/2000/svg" version="1.1">
 <metadata>
  <rdf:RDF xmlns:dc="http://purl.org/dc/elements/1.1/" xmlns:cc="http://creativecommons.org/ns#" xmlns:rdf="http://www.w3.org/1999/02/22-rdf-syntax-ns#">
   <cc:Work>
    <dc:type rdf:resource="http://purl.org/dc/dcmitype/StillImage"/>
    <dc:date>2025-03-11T11:29:14.752307</dc:date>
    <dc:format>image/svg+xml</dc:format>
    <dc:creator>
     <cc:Agent>
      <dc:title>Matplotlib v3.10.0, https://matplotlib.org/</dc:title>
     </cc:Agent>
    </dc:creator>
   </cc:Work>
  </rdf:RDF>
 </metadata>
 <defs>
  <style type="text/css">*{stroke-linejoin: round; stroke-linecap: butt}</style>
 </defs>
 <g id="figure_1">
  <g id="patch_1">
   <path d="M 0 345.6 
L 460.8 345.6 
L 460.8 0 
L 0 0 
z
" style="fill: #ffffff"/>
  </g>
  <g id="axes_1">
   <g id="patch_2">
    <path d="M 57.6 307.584 
L 414.72 307.584 
L 414.72 41.472 
L 57.6 41.472 
z
" style="fill: #ffffff"/>
   </g>
   <g id="matplotlib.axis_1">
    <g id="xtick_1">
     <g id="line2d_1">
      <defs>
       <path id="mc629d7e725" d="M 0 0 
L 0 3.5 
" style="stroke: #000000; stroke-width: 0.8"/>
      </defs>
      <g>
       <use xlink:href="#mc629d7e725" x="67.929917" y="307.584" style="stroke: #000000; stroke-width: 0.8"/>
      </g>
     </g>
     <g id="text_1">
      <!-- 0 -->
      <g transform="translate(64.748667 322.182437) scale(0.1 -0.1)">
       <defs>
        <path id="DejaVuSans-30" d="M 2034 4250 
Q 1547 4250 1301 3770 
Q 1056 3291 1056 2328 
Q 1056 1369 1301 889 
Q 1547 409 2034 409 
Q 2525 409 2770 889 
Q 3016 1369 3016 2328 
Q 3016 3291 2770 3770 
Q 2525 4250 2034 4250 
z
M 2034 4750 
Q 2819 4750 3233 4129 
Q 3647 3509 3647 2328 
Q 3647 1150 3233 529 
Q 2819 -91 2034 -91 
Q 1250 -91 836 529 
Q 422 1150 422 2328 
Q 422 3509 836 4129 
Q 1250 4750 2034 4750 
z
" transform="scale(0.015625)"/>
       </defs>
       <use xlink:href="#DejaVuSans-30"/>
      </g>
     </g>
    </g>
    <g id="xtick_2">
     <g id="line2d_2">
      <g>
       <use xlink:href="#mc629d7e725" x="110.040142" y="307.584" style="stroke: #000000; stroke-width: 0.8"/>
      </g>
     </g>
     <g id="text_2">
      <!-- 100 -->
      <g transform="translate(100.496392 322.182437) scale(0.1 -0.1)">
       <defs>
        <path id="DejaVuSans-31" d="M 794 531 
L 1825 531 
L 1825 4091 
L 703 3866 
L 703 4441 
L 1819 4666 
L 2450 4666 
L 2450 531 
L 3481 531 
L 3481 0 
L 794 0 
L 794 531 
z
" transform="scale(0.015625)"/>
       </defs>
       <use xlink:href="#DejaVuSans-31"/>
       <use xlink:href="#DejaVuSans-30" transform="translate(63.623047 0)"/>
       <use xlink:href="#DejaVuSans-30" transform="translate(127.246094 0)"/>
      </g>
     </g>
    </g>
    <g id="xtick_3">
     <g id="line2d_3">
      <g>
       <use xlink:href="#mc629d7e725" x="152.150366" y="307.584" style="stroke: #000000; stroke-width: 0.8"/>
      </g>
     </g>
     <g id="text_3">
      <!-- 200 -->
      <g transform="translate(142.606616 322.182437) scale(0.1 -0.1)">
       <defs>
        <path id="DejaVuSans-32" d="M 1228 531 
L 3431 531 
L 3431 0 
L 469 0 
L 469 531 
Q 828 903 1448 1529 
Q 2069 2156 2228 2338 
Q 2531 2678 2651 2914 
Q 2772 3150 2772 3378 
Q 2772 3750 2511 3984 
Q 2250 4219 1831 4219 
Q 1534 4219 1204 4116 
Q 875 4013 500 3803 
L 500 4441 
Q 881 4594 1212 4672 
Q 1544 4750 1819 4750 
Q 2544 4750 2975 4387 
Q 3406 4025 3406 3419 
Q 3406 3131 3298 2873 
Q 3191 2616 2906 2266 
Q 2828 2175 2409 1742 
Q 1991 1309 1228 531 
z
" transform="scale(0.015625)"/>
       </defs>
       <use xlink:href="#DejaVuSans-32"/>
       <use xlink:href="#DejaVuSans-30" transform="translate(63.623047 0)"/>
       <use xlink:href="#DejaVuSans-30" transform="translate(127.246094 0)"/>
      </g>
     </g>
    </g>
    <g id="xtick_4">
     <g id="line2d_4">
      <g>
       <use xlink:href="#mc629d7e725" x="194.26059" y="307.584" style="stroke: #000000; stroke-width: 0.8"/>
      </g>
     </g>
     <g id="text_4">
      <!-- 300 -->
      <g transform="translate(184.71684 322.182437) scale(0.1 -0.1)">
       <defs>
        <path id="DejaVuSans-33" d="M 2597 2516 
Q 3050 2419 3304 2112 
Q 3559 1806 3559 1356 
Q 3559 666 3084 287 
Q 2609 -91 1734 -91 
Q 1441 -91 1130 -33 
Q 819 25 488 141 
L 488 750 
Q 750 597 1062 519 
Q 1375 441 1716 441 
Q 2309 441 2620 675 
Q 2931 909 2931 1356 
Q 2931 1769 2642 2001 
Q 2353 2234 1838 2234 
L 1294 2234 
L 1294 2753 
L 1863 2753 
Q 2328 2753 2575 2939 
Q 2822 3125 2822 3475 
Q 2822 3834 2567 4026 
Q 2313 4219 1838 4219 
Q 1578 4219 1281 4162 
Q 984 4106 628 3988 
L 628 4550 
Q 988 4650 1302 4700 
Q 1616 4750 1894 4750 
Q 2613 4750 3031 4423 
Q 3450 4097 3450 3541 
Q 3450 3153 3228 2886 
Q 3006 2619 2597 2516 
z
" transform="scale(0.015625)"/>
       </defs>
       <use xlink:href="#DejaVuSans-33"/>
       <use xlink:href="#DejaVuSans-30" transform="translate(63.623047 0)"/>
       <use xlink:href="#DejaVuSans-30" transform="translate(127.246094 0)"/>
      </g>
     </g>
    </g>
    <g id="xtick_5">
     <g id="line2d_5">
      <g>
       <use xlink:href="#mc629d7e725" x="236.370815" y="307.584" style="stroke: #000000; stroke-width: 0.8"/>
      </g>
     </g>
     <g id="text_5">
      <!-- 400 -->
      <g transform="translate(226.827065 322.182437) scale(0.1 -0.1)">
       <defs>
        <path id="DejaVuSans-34" d="M 2419 4116 
L 825 1625 
L 2419 1625 
L 2419 4116 
z
M 2253 4666 
L 3047 4666 
L 3047 1625 
L 3713 1625 
L 3713 1100 
L 3047 1100 
L 3047 0 
L 2419 0 
L 2419 1100 
L 313 1100 
L 313 1709 
L 2253 4666 
z
" transform="scale(0.015625)"/>
       </defs>
       <use xlink:href="#DejaVuSans-34"/>
       <use xlink:href="#DejaVuSans-30" transform="translate(63.623047 0)"/>
       <use xlink:href="#DejaVuSans-30" transform="translate(127.246094 0)"/>
      </g>
     </g>
    </g>
    <g id="xtick_6">
     <g id="line2d_6">
      <g>
       <use xlink:href="#mc629d7e725" x="278.481039" y="307.584" style="stroke: #000000; stroke-width: 0.8"/>
      </g>
     </g>
     <g id="text_6">
      <!-- 500 -->
      <g transform="translate(268.937289 322.182437) scale(0.1 -0.1)">
       <defs>
        <path id="DejaVuSans-35" d="M 691 4666 
L 3169 4666 
L 3169 4134 
L 1269 4134 
L 1269 2991 
Q 1406 3038 1543 3061 
Q 1681 3084 1819 3084 
Q 2600 3084 3056 2656 
Q 3513 2228 3513 1497 
Q 3513 744 3044 326 
Q 2575 -91 1722 -91 
Q 1428 -91 1123 -41 
Q 819 9 494 109 
L 494 744 
Q 775 591 1075 516 
Q 1375 441 1709 441 
Q 2250 441 2565 725 
Q 2881 1009 2881 1497 
Q 2881 1984 2565 2268 
Q 2250 2553 1709 2553 
Q 1456 2553 1204 2497 
Q 953 2441 691 2322 
L 691 4666 
z
" transform="scale(0.015625)"/>
       </defs>
       <use xlink:href="#DejaVuSans-35"/>
       <use xlink:href="#DejaVuSans-30" transform="translate(63.623047 0)"/>
       <use xlink:href="#DejaVuSans-30" transform="translate(127.246094 0)"/>
      </g>
     </g>
    </g>
    <g id="xtick_7">
     <g id="line2d_7">
      <g>
       <use xlink:href="#mc629d7e725" x="320.591263" y="307.584" style="stroke: #000000; stroke-width: 0.8"/>
      </g>
     </g>
     <g id="text_7">
      <!-- 600 -->
      <g transform="translate(311.047513 322.182437) scale(0.1 -0.1)">
       <defs>
        <path id="DejaVuSans-36" d="M 2113 2584 
Q 1688 2584 1439 2293 
Q 1191 2003 1191 1497 
Q 1191 994 1439 701 
Q 1688 409 2113 409 
Q 2538 409 2786 701 
Q 3034 994 3034 1497 
Q 3034 2003 2786 2293 
Q 2538 2584 2113 2584 
z
M 3366 4563 
L 3366 3988 
Q 3128 4100 2886 4159 
Q 2644 4219 2406 4219 
Q 1781 4219 1451 3797 
Q 1122 3375 1075 2522 
Q 1259 2794 1537 2939 
Q 1816 3084 2150 3084 
Q 2853 3084 3261 2657 
Q 3669 2231 3669 1497 
Q 3669 778 3244 343 
Q 2819 -91 2113 -91 
Q 1303 -91 875 529 
Q 447 1150 447 2328 
Q 447 3434 972 4092 
Q 1497 4750 2381 4750 
Q 2619 4750 2861 4703 
Q 3103 4656 3366 4563 
z
" transform="scale(0.015625)"/>
       </defs>
       <use xlink:href="#DejaVuSans-36"/>
       <use xlink:href="#DejaVuSans-30" transform="translate(63.623047 0)"/>
       <use xlink:href="#DejaVuSans-30" transform="translate(127.246094 0)"/>
      </g>
     </g>
    </g>
    <g id="xtick_8">
     <g id="line2d_8">
      <g>
       <use xlink:href="#mc629d7e725" x="362.701488" y="307.584" style="stroke: #000000; stroke-width: 0.8"/>
      </g>
     </g>
     <g id="text_8">
      <!-- 700 -->
      <g transform="translate(353.157738 322.182437) scale(0.1 -0.1)">
       <defs>
        <path id="DejaVuSans-37" d="M 525 4666 
L 3525 4666 
L 3525 4397 
L 1831 0 
L 1172 0 
L 2766 4134 
L 525 4134 
L 525 4666 
z
" transform="scale(0.015625)"/>
       </defs>
       <use xlink:href="#DejaVuSans-37"/>
       <use xlink:href="#DejaVuSans-30" transform="translate(63.623047 0)"/>
       <use xlink:href="#DejaVuSans-30" transform="translate(127.246094 0)"/>
      </g>
     </g>
    </g>
    <g id="xtick_9">
     <g id="line2d_9">
      <g>
       <use xlink:href="#mc629d7e725" x="404.811712" y="307.584" style="stroke: #000000; stroke-width: 0.8"/>
      </g>
     </g>
     <g id="text_9">
      <!-- 800 -->
      <g transform="translate(395.267962 322.182437) scale(0.1 -0.1)">
       <defs>
        <path id="DejaVuSans-38" d="M 2034 2216 
Q 1584 2216 1326 1975 
Q 1069 1734 1069 1313 
Q 1069 891 1326 650 
Q 1584 409 2034 409 
Q 2484 409 2743 651 
Q 3003 894 3003 1313 
Q 3003 1734 2745 1975 
Q 2488 2216 2034 2216 
z
M 1403 2484 
Q 997 2584 770 2862 
Q 544 3141 544 3541 
Q 544 4100 942 4425 
Q 1341 4750 2034 4750 
Q 2731 4750 3128 4425 
Q 3525 4100 3525 3541 
Q 3525 3141 3298 2862 
Q 3072 2584 2669 2484 
Q 3125 2378 3379 2068 
Q 3634 1759 3634 1313 
Q 3634 634 3220 271 
Q 2806 -91 2034 -91 
Q 1263 -91 848 271 
Q 434 634 434 1313 
Q 434 1759 690 2068 
Q 947 2378 1403 2484 
z
M 1172 3481 
Q 1172 3119 1398 2916 
Q 1625 2713 2034 2713 
Q 2441 2713 2670 2916 
Q 2900 3119 2900 3481 
Q 2900 3844 2670 4047 
Q 2441 4250 2034 4250 
Q 1625 4250 1398 4047 
Q 1172 3844 1172 3481 
z
" transform="scale(0.015625)"/>
       </defs>
       <use xlink:href="#DejaVuSans-38"/>
       <use xlink:href="#DejaVuSans-30" transform="translate(63.623047 0)"/>
       <use xlink:href="#DejaVuSans-30" transform="translate(127.246094 0)"/>
      </g>
     </g>
    </g>
    <g id="text_10">
     <!-- Temperature ($^{\circ}C$) -->
     <g transform="translate(192.16 335.862125) scale(0.1 -0.1)">
      <defs>
       <path id="DejaVuSans-54" d="M -19 4666 
L 3928 4666 
L 3928 4134 
L 2272 4134 
L 2272 0 
L 1638 0 
L 1638 4134 
L -19 4134 
L -19 4666 
z
" transform="scale(0.015625)"/>
       <path id="DejaVuSans-65" d="M 3597 1894 
L 3597 1613 
L 953 1613 
Q 991 1019 1311 708 
Q 1631 397 2203 397 
Q 2534 397 2845 478 
Q 3156 559 3463 722 
L 3463 178 
Q 3153 47 2828 -22 
Q 2503 -91 2169 -91 
Q 1331 -91 842 396 
Q 353 884 353 1716 
Q 353 2575 817 3079 
Q 1281 3584 2069 3584 
Q 2775 3584 3186 3129 
Q 3597 2675 3597 1894 
z
M 3022 2063 
Q 3016 2534 2758 2815 
Q 2500 3097 2075 3097 
Q 1594 3097 1305 2825 
Q 1016 2553 972 2059 
L 3022 2063 
z
" transform="scale(0.015625)"/>
       <path id="DejaVuSans-6d" d="M 3328 2828 
Q 3544 3216 3844 3400 
Q 4144 3584 4550 3584 
Q 5097 3584 5394 3201 
Q 5691 2819 5691 2113 
L 5691 0 
L 5113 0 
L 5113 2094 
Q 5113 2597 4934 2840 
Q 4756 3084 4391 3084 
Q 3944 3084 3684 2787 
Q 3425 2491 3425 1978 
L 3425 0 
L 2847 0 
L 2847 2094 
Q 2847 2600 2669 2842 
Q 2491 3084 2119 3084 
Q 1678 3084 1418 2786 
Q 1159 2488 1159 1978 
L 1159 0 
L 581 0 
L 581 3500 
L 1159 3500 
L 1159 2956 
Q 1356 3278 1631 3431 
Q 1906 3584 2284 3584 
Q 2666 3584 2933 3390 
Q 3200 3197 3328 2828 
z
" transform="scale(0.015625)"/>
       <path id="DejaVuSans-70" d="M 1159 525 
L 1159 -1331 
L 581 -1331 
L 581 3500 
L 1159 3500 
L 1159 2969 
Q 1341 3281 1617 3432 
Q 1894 3584 2278 3584 
Q 2916 3584 3314 3078 
Q 3713 2572 3713 1747 
Q 3713 922 3314 415 
Q 2916 -91 2278 -91 
Q 1894 -91 1617 61 
Q 1341 213 1159 525 
z
M 3116 1747 
Q 3116 2381 2855 2742 
Q 2594 3103 2138 3103 
Q 1681 3103 1420 2742 
Q 1159 2381 1159 1747 
Q 1159 1113 1420 752 
Q 1681 391 2138 391 
Q 2594 391 2855 752 
Q 3116 1113 3116 1747 
z
" transform="scale(0.015625)"/>
       <path id="DejaVuSans-72" d="M 2631 2963 
Q 2534 3019 2420 3045 
Q 2306 3072 2169 3072 
Q 1681 3072 1420 2755 
Q 1159 2438 1159 1844 
L 1159 0 
L 581 0 
L 581 3500 
L 1159 3500 
L 1159 2956 
Q 1341 3275 1631 3429 
Q 1922 3584 2338 3584 
Q 2397 3584 2469 3576 
Q 2541 3569 2628 3553 
L 2631 2963 
z
" transform="scale(0.015625)"/>
       <path id="DejaVuSans-61" d="M 2194 1759 
Q 1497 1759 1228 1600 
Q 959 1441 959 1056 
Q 959 750 1161 570 
Q 1363 391 1709 391 
Q 2188 391 2477 730 
Q 2766 1069 2766 1631 
L 2766 1759 
L 2194 1759 
z
M 3341 1997 
L 3341 0 
L 2766 0 
L 2766 531 
Q 2569 213 2275 61 
Q 1981 -91 1556 -91 
Q 1019 -91 701 211 
Q 384 513 384 1019 
Q 384 1609 779 1909 
Q 1175 2209 1959 2209 
L 2766 2209 
L 2766 2266 
Q 2766 2663 2505 2880 
Q 2244 3097 1772 3097 
Q 1472 3097 1187 3025 
Q 903 2953 641 2809 
L 641 3341 
Q 956 3463 1253 3523 
Q 1550 3584 1831 3584 
Q 2591 3584 2966 3190 
Q 3341 2797 3341 1997 
z
" transform="scale(0.015625)"/>
       <path id="DejaVuSans-74" d="M 1172 4494 
L 1172 3500 
L 2356 3500 
L 2356 3053 
L 1172 3053 
L 1172 1153 
Q 1172 725 1289 603 
Q 1406 481 1766 481 
L 2356 481 
L 2356 0 
L 1766 0 
Q 1100 0 847 248 
Q 594 497 594 1153 
L 594 3053 
L 172 3053 
L 172 3500 
L 594 3500 
L 594 4494 
L 1172 4494 
z
" transform="scale(0.015625)"/>
       <path id="DejaVuSans-75" d="M 544 1381 
L 544 3500 
L 1119 3500 
L 1119 1403 
Q 1119 906 1312 657 
Q 1506 409 1894 409 
Q 2359 409 2629 706 
Q 2900 1003 2900 1516 
L 2900 3500 
L 3475 3500 
L 3475 0 
L 2900 0 
L 2900 538 
Q 2691 219 2414 64 
Q 2138 -91 1772 -91 
Q 1169 -91 856 284 
Q 544 659 544 1381 
z
M 1991 3584 
L 1991 3584 
z
" transform="scale(0.015625)"/>
       <path id="DejaVuSans-20" transform="scale(0.015625)"/>
       <path id="DejaVuSans-28" d="M 1984 4856 
Q 1566 4138 1362 3434 
Q 1159 2731 1159 2009 
Q 1159 1288 1364 580 
Q 1569 -128 1984 -844 
L 1484 -844 
Q 1016 -109 783 600 
Q 550 1309 550 2009 
Q 550 2706 781 3412 
Q 1013 4119 1484 4856 
L 1984 4856 
z
" transform="scale(0.015625)"/>
       <path id="DejaVuSans-2218" d="M 2000 2619 
Q 1750 2619 1578 2445 
Q 1406 2272 1406 2022 
Q 1406 1775 1578 1605 
Q 1750 1435 2000 1435 
Q 2250 1435 2422 1605 
Q 2594 1775 2594 2022 
Q 2594 2269 2420 2444 
Q 2247 2619 2000 2619 
z
M 2000 3022 
Q 2200 3022 2384 2945 
Q 2569 2869 2703 2725 
Q 2847 2585 2919 2406 
Q 2991 2228 2991 2022 
Q 2991 1610 2702 1324 
Q 2413 1038 1994 1038 
Q 1572 1038 1290 1319 
Q 1009 1600 1009 2022 
Q 1009 2441 1296 2731 
Q 1584 3022 2000 3022 
z
" transform="scale(0.015625)"/>
       <path id="DejaVuSans-Oblique-43" d="M 4447 4306 
L 4319 3641 
Q 4019 3944 3683 4091 
Q 3347 4238 2956 4238 
Q 2422 4238 2017 3981 
Q 1613 3725 1319 3200 
Q 1131 2863 1032 2486 
Q 934 2109 934 1728 
Q 934 1091 1264 756 
Q 1594 422 2222 422 
Q 2656 422 3056 561 
Q 3456 700 3834 978 
L 3688 231 
Q 3316 72 2936 -9 
Q 2556 -91 2175 -91 
Q 1278 -91 773 396 
Q 269 884 269 1753 
Q 269 2309 461 2846 
Q 653 3384 1013 3828 
Q 1394 4300 1883 4525 
Q 2372 4750 3022 4750 
Q 3422 4750 3780 4639 
Q 4138 4528 4447 4306 
z
" transform="scale(0.015625)"/>
       <path id="DejaVuSans-29" d="M 513 4856 
L 1013 4856 
Q 1481 4119 1714 3412 
Q 1947 2706 1947 2009 
Q 1947 1309 1714 600 
Q 1481 -109 1013 -844 
L 513 -844 
Q 928 -128 1133 580 
Q 1338 1288 1338 2009 
Q 1338 2731 1133 3434 
Q 928 4138 513 4856 
z
" transform="scale(0.015625)"/>
      </defs>
      <use xlink:href="#DejaVuSans-54" transform="translate(0 0.125)"/>
      <use xlink:href="#DejaVuSans-65" transform="translate(61.083984 0.125)"/>
      <use xlink:href="#DejaVuSans-6d" transform="translate(122.607422 0.125)"/>
      <use xlink:href="#DejaVuSans-70" transform="translate(220.019531 0.125)"/>
      <use xlink:href="#DejaVuSans-65" transform="translate(283.496094 0.125)"/>
      <use xlink:href="#DejaVuSans-72" transform="translate(345.019531 0.125)"/>
      <use xlink:href="#DejaVuSans-61" transform="translate(386.132812 0.125)"/>
      <use xlink:href="#DejaVuSans-74" transform="translate(447.412109 0.125)"/>
      <use xlink:href="#DejaVuSans-75" transform="translate(486.621094 0.125)"/>
      <use xlink:href="#DejaVuSans-72" transform="translate(550 0.125)"/>
      <use xlink:href="#DejaVuSans-65" transform="translate(591.113281 0.125)"/>
      <use xlink:href="#DejaVuSans-20" transform="translate(652.636719 0.125)"/>
      <use xlink:href="#DejaVuSans-28" transform="translate(684.423828 0.125)"/>
      <use xlink:href="#DejaVuSans-2218" transform="translate(724.394531 38.40625) scale(0.7)"/>
      <use xlink:href="#DejaVuSans-Oblique-43" transform="translate(770.947266 0.125)"/>
      <use xlink:href="#DejaVuSans-29" transform="translate(840.771484 0.125)"/>
     </g>
    </g>
   </g>
   <g id="matplotlib.axis_2">
    <g id="ytick_1">
     <g id="line2d_10">
      <defs>
       <path id="mdfbf29c40b" d="M 0 0 
L -3.5 0 
" style="stroke: #000000; stroke-width: 0.8"/>
      </defs>
      <g>
       <use xlink:href="#mdfbf29c40b" x="57.6" y="295.488" style="stroke: #000000; stroke-width: 0.8"/>
      </g>
     </g>
     <g id="text_11">
      <!-- 0.0 -->
      <g transform="translate(34.696875 299.287219) scale(0.1 -0.1)">
       <defs>
        <path id="DejaVuSans-2e" d="M 684 794 
L 1344 794 
L 1344 0 
L 684 0 
L 684 794 
z
" transform="scale(0.015625)"/>
       </defs>
       <use xlink:href="#DejaVuSans-30"/>
       <use xlink:href="#DejaVuSans-2e" transform="translate(63.623047 0)"/>
       <use xlink:href="#DejaVuSans-30" transform="translate(95.410156 0)"/>
      </g>
     </g>
    </g>
    <g id="ytick_2">
     <g id="line2d_11">
      <g>
       <use xlink:href="#mdfbf29c40b" x="57.6" y="265.248" style="stroke: #000000; stroke-width: 0.8"/>
      </g>
     </g>
     <g id="text_12">
      <!-- 0.5 -->
      <g transform="translate(34.696875 269.047219) scale(0.1 -0.1)">
       <use xlink:href="#DejaVuSans-30"/>
       <use xlink:href="#DejaVuSans-2e" transform="translate(63.623047 0)"/>
       <use xlink:href="#DejaVuSans-35" transform="translate(95.410156 0)"/>
      </g>
     </g>
    </g>
    <g id="ytick_3">
     <g id="line2d_12">
      <g>
       <use xlink:href="#mdfbf29c40b" x="57.6" y="235.008" style="stroke: #000000; stroke-width: 0.8"/>
      </g>
     </g>
     <g id="text_13">
      <!-- 1.0 -->
      <g transform="translate(34.696875 238.807219) scale(0.1 -0.1)">
       <use xlink:href="#DejaVuSans-31"/>
       <use xlink:href="#DejaVuSans-2e" transform="translate(63.623047 0)"/>
       <use xlink:href="#DejaVuSans-30" transform="translate(95.410156 0)"/>
      </g>
     </g>
    </g>
    <g id="ytick_4">
     <g id="line2d_13">
      <g>
       <use xlink:href="#mdfbf29c40b" x="57.6" y="204.768" style="stroke: #000000; stroke-width: 0.8"/>
      </g>
     </g>
     <g id="text_14">
      <!-- 1.5 -->
      <g transform="translate(34.696875 208.567219) scale(0.1 -0.1)">
       <use xlink:href="#DejaVuSans-31"/>
       <use xlink:href="#DejaVuSans-2e" transform="translate(63.623047 0)"/>
       <use xlink:href="#DejaVuSans-35" transform="translate(95.410156 0)"/>
      </g>
     </g>
    </g>
    <g id="ytick_5">
     <g id="line2d_14">
      <g>
       <use xlink:href="#mdfbf29c40b" x="57.6" y="174.528" style="stroke: #000000; stroke-width: 0.8"/>
      </g>
     </g>
     <g id="text_15">
      <!-- 2.0 -->
      <g transform="translate(34.696875 178.327219) scale(0.1 -0.1)">
       <use xlink:href="#DejaVuSans-32"/>
       <use xlink:href="#DejaVuSans-2e" transform="translate(63.623047 0)"/>
       <use xlink:href="#DejaVuSans-30" transform="translate(95.410156 0)"/>
      </g>
     </g>
    </g>
    <g id="ytick_6">
     <g id="line2d_15">
      <g>
       <use xlink:href="#mdfbf29c40b" x="57.6" y="144.288" style="stroke: #000000; stroke-width: 0.8"/>
      </g>
     </g>
     <g id="text_16">
      <!-- 2.5 -->
      <g transform="translate(34.696875 148.087219) scale(0.1 -0.1)">
       <use xlink:href="#DejaVuSans-32"/>
       <use xlink:href="#DejaVuSans-2e" transform="translate(63.623047 0)"/>
       <use xlink:href="#DejaVuSans-35" transform="translate(95.410156 0)"/>
      </g>
     </g>
    </g>
    <g id="ytick_7">
     <g id="line2d_16">
      <g>
       <use xlink:href="#mdfbf29c40b" x="57.6" y="114.048" style="stroke: #000000; stroke-width: 0.8"/>
      </g>
     </g>
     <g id="text_17">
      <!-- 3.0 -->
      <g transform="translate(34.696875 117.847219) scale(0.1 -0.1)">
       <use xlink:href="#DejaVuSans-33"/>
       <use xlink:href="#DejaVuSans-2e" transform="translate(63.623047 0)"/>
       <use xlink:href="#DejaVuSans-30" transform="translate(95.410156 0)"/>
      </g>
     </g>
    </g>
    <g id="ytick_8">
     <g id="line2d_17">
      <g>
       <use xlink:href="#mdfbf29c40b" x="57.6" y="83.808" style="stroke: #000000; stroke-width: 0.8"/>
      </g>
     </g>
     <g id="text_18">
      <!-- 3.5 -->
      <g transform="translate(34.696875 87.607219) scale(0.1 -0.1)">
       <use xlink:href="#DejaVuSans-33"/>
       <use xlink:href="#DejaVuSans-2e" transform="translate(63.623047 0)"/>
       <use xlink:href="#DejaVuSans-35" transform="translate(95.410156 0)"/>
      </g>
     </g>
    </g>
    <g id="ytick_9">
     <g id="line2d_18">
      <g>
       <use xlink:href="#mdfbf29c40b" x="57.6" y="53.568" style="stroke: #000000; stroke-width: 0.8"/>
      </g>
     </g>
     <g id="text_19">
      <!-- 4.0 -->
      <g transform="translate(34.696875 57.367219) scale(0.1 -0.1)">
       <use xlink:href="#DejaVuSans-34"/>
       <use xlink:href="#DejaVuSans-2e" transform="translate(63.623047 0)"/>
       <use xlink:href="#DejaVuSans-30" transform="translate(95.410156 0)"/>
      </g>
     </g>
    </g>
    <g id="text_20">
     <!-- Intensity ($^{\circ}C^{-1}$) -->
     <g transform="translate(28.596875 213.328) rotate(-90) scale(0.1 -0.1)">
      <defs>
       <path id="DejaVuSans-49" d="M 628 4666 
L 1259 4666 
L 1259 0 
L 628 0 
L 628 4666 
z
" transform="scale(0.015625)"/>
       <path id="DejaVuSans-6e" d="M 3513 2113 
L 3513 0 
L 2938 0 
L 2938 2094 
Q 2938 2591 2744 2837 
Q 2550 3084 2163 3084 
Q 1697 3084 1428 2787 
Q 1159 2491 1159 1978 
L 1159 0 
L 581 0 
L 581 3500 
L 1159 3500 
L 1159 2956 
Q 1366 3272 1645 3428 
Q 1925 3584 2291 3584 
Q 2894 3584 3203 3211 
Q 3513 2838 3513 2113 
z
" transform="scale(0.015625)"/>
       <path id="DejaVuSans-73" d="M 2834 3397 
L 2834 2853 
Q 2591 2978 2328 3040 
Q 2066 3103 1784 3103 
Q 1356 3103 1142 2972 
Q 928 2841 928 2578 
Q 928 2378 1081 2264 
Q 1234 2150 1697 2047 
L 1894 2003 
Q 2506 1872 2764 1633 
Q 3022 1394 3022 966 
Q 3022 478 2636 193 
Q 2250 -91 1575 -91 
Q 1294 -91 989 -36 
Q 684 19 347 128 
L 347 722 
Q 666 556 975 473 
Q 1284 391 1588 391 
Q 1994 391 2212 530 
Q 2431 669 2431 922 
Q 2431 1156 2273 1281 
Q 2116 1406 1581 1522 
L 1381 1569 
Q 847 1681 609 1914 
Q 372 2147 372 2553 
Q 372 3047 722 3315 
Q 1072 3584 1716 3584 
Q 2034 3584 2315 3537 
Q 2597 3491 2834 3397 
z
" transform="scale(0.015625)"/>
       <path id="DejaVuSans-69" d="M 603 3500 
L 1178 3500 
L 1178 0 
L 603 0 
L 603 3500 
z
M 603 4863 
L 1178 4863 
L 1178 4134 
L 603 4134 
L 603 4863 
z
" transform="scale(0.015625)"/>
       <path id="DejaVuSans-79" d="M 2059 -325 
Q 1816 -950 1584 -1140 
Q 1353 -1331 966 -1331 
L 506 -1331 
L 506 -850 
L 844 -850 
Q 1081 -850 1212 -737 
Q 1344 -625 1503 -206 
L 1606 56 
L 191 3500 
L 800 3500 
L 1894 763 
L 2988 3500 
L 3597 3500 
L 2059 -325 
z
" transform="scale(0.015625)"/>
       <path id="DejaVuSans-2212" d="M 678 2272 
L 4684 2272 
L 4684 1741 
L 678 1741 
L 678 2272 
z
" transform="scale(0.015625)"/>
      </defs>
      <use xlink:href="#DejaVuSans-49" transform="translate(0 0.684375)"/>
      <use xlink:href="#DejaVuSans-6e" transform="translate(29.492188 0.684375)"/>
      <use xlink:href="#DejaVuSans-74" transform="translate(92.871094 0.684375)"/>
      <use xlink:href="#DejaVuSans-65" transform="translate(132.080078 0.684375)"/>
      <use xlink:href="#DejaVuSans-6e" transform="translate(193.603516 0.684375)"/>
      <use xlink:href="#DejaVuSans-73" transform="translate(256.982422 0.684375)"/>
      <use xlink:href="#DejaVuSans-69" transform="translate(309.082031 0.684375)"/>
      <use xlink:href="#DejaVuSans-74" transform="translate(336.865234 0.684375)"/>
      <use xlink:href="#DejaVuSans-79" transform="translate(376.074219 0.684375)"/>
      <use xlink:href="#DejaVuSans-20" transform="translate(435.253906 0.684375)"/>
      <use xlink:href="#DejaVuSans-28" transform="translate(467.041016 0.684375)"/>
      <use xlink:href="#DejaVuSans-2218" transform="translate(507.011719 38.965625) scale(0.7)"/>
      <use xlink:href="#DejaVuSans-Oblique-43" transform="translate(553.564453 0.684375)"/>
      <use xlink:href="#DejaVuSans-2212" transform="translate(630.589193 38.965625) scale(0.7)"/>
      <use xlink:href="#DejaVuSans-31" transform="translate(689.241536 38.965625) scale(0.7)"/>
      <use xlink:href="#DejaVuSans-29" transform="translate(736.512044 0.684375)"/>
     </g>
    </g>
   </g>
   <g id="line2d_19">
    <path d="M 73.832727 295.488 
L 123.163353 295.488 
L 123.584982 294.48 
L 125.693129 294.48 
L 126.114758 292.464 
L 126.958017 292.464 
L 127.379646 291.456 
L 130.331051 291.456 
L 130.75268 290.448 
L 132.860826 290.448 
L 133.282456 289.44 
L 133.704085 289.44 
L 135.390602 285.408 
L 135.812231 285.408 
L 136.233861 286.416 
L 137.077119 286.416 
L 137.498749 284.4 
L 137.920378 284.4 
L 138.342007 283.392 
L 138.763636 284.4 
L 139.185266 283.392 
L 139.606895 283.392 
L 140.028524 284.4 
L 140.450153 284.4 
L 140.871783 282.384 
L 141.293412 282.384 
L 141.715041 280.368 
L 142.136671 280.368 
L 142.5583 279.36 
L 143.401558 279.36 
L 143.823188 277.344 
L 144.666446 277.344 
L 145.509705 273.312 
L 145.931334 273.312 
L 147.196222 270.288 
L 147.617851 270.288 
L 148.039481 271.296 
L 148.882739 271.296 
L 149.304368 269.28 
L 149.725998 269.28 
L 150.147627 268.272 
L 150.569256 265.248 
L 151.412515 265.248 
L 151.834144 266.256 
L 152.677403 266.256 
L 153.099032 264.24 
L 153.520661 265.248 
L 153.94229 263.232 
L 154.785549 263.232 
L 155.207178 261.216 
L 156.050437 261.216 
L 156.472066 262.224 
L 156.893695 261.216 
L 157.315325 259.2 
L 157.736954 261.216 
L 158.158583 261.216 
L 159.001842 259.2 
L 159.423471 261.216 
L 159.8451 258.192 
L 160.26673 257.184 
L 160.688359 255.168 
L 161.531617 253.152 
L 161.953247 255.168 
L 162.374876 255.168 
L 162.796505 257.184 
L 163.218135 260.208 
L 163.639764 259.2 
L 164.061393 260.208 
L 164.483022 259.2 
L 164.904652 259.2 
L 165.326281 258.192 
L 165.74791 259.2 
L 166.16954 259.2 
L 166.591169 261.216 
L 167.012798 260.208 
L 167.434427 258.192 
L 167.856057 259.2 
L 168.277686 259.2 
L 169.120945 255.168 
L 169.964203 257.184 
L 170.385832 255.168 
L 170.807462 256.176 
L 171.229091 258.192 
L 171.65072 258.192 
L 172.072349 255.168 
L 173.337237 261.216 
L 173.758867 261.216 
L 174.602125 257.184 
L 175.023754 256.176 
L 175.445384 256.176 
L 175.867013 254.16 
L 176.288642 254.16 
L 176.710272 251.136 
L 177.131901 252.144 
L 177.55353 251.136 
L 177.975159 251.136 
L 178.818418 253.152 
L 179.240047 251.136 
L 179.661677 252.144 
L 180.504935 256.176 
L 180.926564 254.16 
L 181.348194 256.176 
L 181.769823 259.2 
L 182.191452 258.192 
L 182.613081 259.2 
L 183.034711 261.216 
L 183.45634 261.216 
L 183.877969 260.208 
L 184.299599 261.216 
L 184.721228 264.24 
L 185.142857 266.256 
L 185.564486 264.24 
L 185.986116 263.232 
L 186.407745 264.24 
L 186.829374 266.256 
L 188.094262 266.256 
L 188.515891 268.272 
L 188.937521 266.256 
L 189.35915 269.28 
L 189.780779 269.28 
L 190.624038 271.296 
L 191.045667 269.28 
L 191.467296 268.272 
L 191.888926 268.272 
L 192.310555 269.28 
L 192.732184 268.272 
L 193.153813 266.256 
L 193.575443 268.272 
L 193.997072 269.28 
L 194.418701 268.272 
L 194.840331 268.272 
L 195.26196 267.264 
L 195.683589 267.264 
L 196.105218 266.256 
L 196.526848 266.256 
L 196.948477 267.264 
L 197.370106 267.264 
L 197.791736 268.272 
L 198.213365 270.288 
L 198.634994 271.296 
L 199.056623 270.288 
L 199.899882 272.304 
L 200.321511 272.304 
L 200.74314 273.312 
L 201.16477 273.312 
L 201.586399 276.336 
L 202.008028 274.32 
L 202.429658 274.32 
L 202.851287 273.312 
L 203.694545 273.312 
L 204.116175 272.304 
L 204.537804 274.32 
L 205.802692 277.344 
L 206.64595 275.328 
L 207.06758 275.328 
L 207.910838 277.344 
L 208.332468 277.344 
L 208.754097 279.36 
L 209.175726 280.368 
L 211.283872 280.368 
L 211.705502 281.376 
L 212.127131 281.376 
L 212.97039 283.392 
L 213.813648 283.392 
L 214.235277 284.4 
L 214.656907 286.416 
L 215.078536 286.416 
L 215.500165 287.424 
L 215.921795 287.424 
L 216.765053 291.456 
L 218.029941 291.456 
L 219.716458 295.488 
L 398.487273 295.488 
L 398.487273 295.488 
" clip-path="url(#p863f90f52d)" style="fill: none; stroke-dasharray: 1.85,0.8; stroke-dashoffset: 0; stroke: #8000ff; stroke-width: 0.5"/>
   </g>
   <g id="line2d_20">
    <path d="M 73.832727 295.488 
L 123.163353 295.488 
L 123.584982 294.48 
L 125.693129 294.48 
L 126.114758 292.464 
L 126.958017 292.464 
L 127.379646 290.448 
L 132.017568 290.448 
L 132.439197 289.44 
L 134.547344 289.44 
L 134.968973 288.432 
L 135.390602 288.432 
L 136.233861 286.416 
L 137.920378 286.416 
L 138.342007 285.408 
L 138.763636 285.408 
L 139.185266 284.4 
L 139.606895 284.4 
L 140.028524 286.416 
L 140.450153 284.4 
L 141.293412 282.384 
L 142.5583 282.384 
L 144.244817 278.352 
L 145.509705 278.352 
L 145.931334 277.344 
L 146.774593 273.312 
L 147.196222 273.312 
L 147.617851 274.32 
L 148.039481 272.304 
L 148.46111 272.304 
L 148.882739 271.296 
L 149.304368 268.272 
L 149.725998 267.264 
L 150.569256 267.264 
L 150.990885 265.248 
L 151.834144 267.264 
L 152.677403 265.248 
L 153.099032 265.248 
L 153.94229 261.216 
L 154.36392 260.208 
L 154.785549 258.192 
L 155.207178 257.184 
L 155.628808 258.192 
L 156.050437 257.184 
L 156.472066 255.168 
L 156.893695 256.176 
L 157.315325 254.16 
L 157.736954 255.168 
L 158.158583 250.128 
L 158.580213 248.112 
L 159.001842 249.12 
L 159.423471 249.12 
L 159.8451 248.112 
L 161.531617 248.112 
L 161.953247 249.12 
L 162.374876 247.104 
L 162.796505 247.104 
L 163.218135 245.088 
L 164.061393 247.104 
L 164.483022 243.072 
L 164.904652 244.08 
L 165.326281 243.072 
L 166.591169 249.12 
L 167.012798 248.112 
L 167.856057 242.064 
L 168.277686 237.024 
L 168.699315 238.032 
L 169.120945 240.048 
L 169.542574 237.024 
L 169.964203 236.016 
L 170.385832 232.992 
L 170.807462 235.008 
L 171.229091 236.016 
L 171.65072 231.984 
L 172.072349 232.992 
L 172.915608 230.976 
L 173.337237 231.984 
L 173.758867 230.976 
L 174.180496 231.984 
L 174.602125 231.984 
L 175.023754 234 
L 175.867013 234 
L 176.288642 236.016 
L 176.710272 234 
L 177.131901 236.016 
L 177.55353 234 
L 177.975159 235.008 
L 178.396789 232.992 
L 179.240047 226.944 
L 179.661677 225.936 
L 180.926564 235.008 
L 181.348194 232.992 
L 181.769823 232.992 
L 182.191452 235.008 
L 182.613081 235.008 
L 183.034711 234 
L 183.45634 236.016 
L 183.877969 232.992 
L 184.299599 236.016 
L 184.721228 236.016 
L 185.142857 234 
L 185.564486 232.992 
L 185.986116 229.968 
L 186.407745 227.952 
L 187.251004 225.936 
L 187.672633 222.912 
L 188.094262 214.848 
L 188.515891 213.84 
L 188.937521 209.808 
L 189.35915 207.792 
L 190.202409 207.792 
L 190.624038 208.8 
L 191.045667 210.816 
L 191.467296 210.816 
L 192.310555 214.848 
L 192.732184 214.848 
L 193.153813 213.84 
L 193.575443 213.84 
L 193.997072 212.832 
L 194.418701 210.816 
L 194.840331 209.808 
L 195.26196 212.832 
L 195.683589 212.832 
L 196.105218 211.824 
L 196.526848 213.84 
L 196.948477 213.84 
L 197.370106 211.824 
L 197.791736 214.848 
L 198.213365 214.848 
L 198.634994 216.864 
L 199.056623 219.888 
L 199.478253 221.904 
L 199.899882 220.896 
L 200.321511 222.912 
L 200.74314 228.96 
L 201.16477 230.976 
L 201.586399 234 
L 202.008028 236.016 
L 202.429658 235.008 
L 202.851287 236.016 
L 203.272916 234 
L 203.694545 232.992 
L 204.116175 237.024 
L 204.537804 238.032 
L 204.959433 237.024 
L 205.381063 237.024 
L 205.802692 239.04 
L 206.224321 240.048 
L 207.06758 247.104 
L 207.489209 248.112 
L 207.910838 248.112 
L 208.332468 251.136 
L 208.754097 251.136 
L 209.597355 253.152 
L 210.018985 256.176 
L 210.440614 257.184 
L 211.283872 261.216 
L 211.705502 261.216 
L 212.127131 262.224 
L 212.54876 265.248 
L 212.97039 267.264 
L 213.813648 267.264 
L 214.235277 265.248 
L 214.656907 265.248 
L 215.078536 268.272 
L 215.500165 268.272 
L 216.343424 270.288 
L 217.186682 270.288 
L 217.608312 272.304 
L 218.029941 273.312 
L 218.45157 271.296 
L 218.8732 272.304 
L 219.294829 270.288 
L 219.716458 270.288 
L 220.138087 271.296 
L 220.559717 268.272 
L 220.981346 268.272 
L 221.402975 269.28 
L 221.824604 271.296 
L 222.667863 271.296 
L 223.511122 269.28 
L 223.932751 267.264 
L 224.35438 267.264 
L 224.776009 266.256 
L 225.197639 267.264 
L 225.619268 266.256 
L 226.040897 268.272 
L 226.462527 269.28 
L 226.884156 272.304 
L 227.305785 274.32 
L 227.727414 274.32 
L 228.570673 276.336 
L 228.992302 275.328 
L 229.413932 275.328 
L 229.835561 276.336 
L 230.25719 276.336 
L 231.100449 278.352 
L 231.522078 278.352 
L 231.943707 280.368 
L 232.786966 278.352 
L 233.208595 280.368 
L 233.630224 281.376 
L 234.051854 281.376 
L 234.473483 280.368 
L 234.895112 281.376 
L 235.316741 281.376 
L 236.16 283.392 
L 236.581629 285.408 
L 237.003259 285.408 
L 237.424888 286.416 
L 237.846517 286.416 
L 238.268146 287.424 
L 241.219551 287.424 
L 241.641181 288.432 
L 243.327698 288.432 
L 243.749327 289.44 
L 244.592586 289.44 
L 245.857473 292.464 
L 246.279103 292.464 
L 247.122361 294.48 
L 249.230508 294.48 
L 249.652137 295.488 
L 398.487273 295.488 
L 398.487273 295.488 
" clip-path="url(#p863f90f52d)" style="fill: none; stroke-dasharray: 1.85,0.8; stroke-dashoffset: 0; stroke: #00b5eb; stroke-width: 0.5"/>
   </g>
   <g id="line2d_21">
    <path d="M 73.832727 295.488 
L 123.163353 295.488 
L 123.584982 294.48 
L 125.693129 294.48 
L 126.114758 292.464 
L 126.536387 292.464 
L 126.958017 291.456 
L 127.379646 289.44 
L 132.017568 289.44 
L 132.439197 288.432 
L 134.968973 288.432 
L 135.390602 287.424 
L 136.65549 287.424 
L 137.498749 285.408 
L 138.342007 285.408 
L 138.763636 286.416 
L 139.185266 286.416 
L 139.606895 287.424 
L 140.028524 289.44 
L 141.293412 289.44 
L 142.5583 286.416 
L 142.979929 286.416 
L 143.401558 285.408 
L 143.823188 285.408 
L 144.244817 284.4 
L 144.666446 284.4 
L 145.088076 285.408 
L 147.196222 285.408 
L 147.617851 284.4 
L 148.039481 285.408 
L 148.46111 283.392 
L 148.882739 284.4 
L 149.304368 283.392 
L 149.725998 283.392 
L 150.147627 284.4 
L 151.834144 284.4 
L 152.255773 283.392 
L 153.520661 283.392 
L 153.94229 282.384 
L 154.785549 282.384 
L 155.207178 283.392 
L 156.893695 283.392 
L 157.315325 282.384 
L 157.736954 280.368 
L 158.158583 280.368 
L 158.580213 279.36 
L 159.001842 279.36 
L 159.423471 278.352 
L 160.26673 278.352 
L 160.688359 277.344 
L 161.109988 279.36 
L 161.531617 278.352 
L 161.953247 279.36 
L 163.218135 279.36 
L 164.061393 277.344 
L 164.483022 277.344 
L 164.904652 278.352 
L 165.326281 278.352 
L 165.74791 277.344 
L 166.16954 275.328 
L 166.591169 276.336 
L 167.012798 275.328 
L 167.856057 269.28 
L 168.277686 269.28 
L 168.699315 268.272 
L 169.964203 268.272 
L 170.807462 266.256 
L 171.229091 267.264 
L 171.65072 264.24 
L 172.072349 262.224 
L 172.493979 261.216 
L 172.915608 261.216 
L 173.337237 260.208 
L 173.758867 260.208 
L 174.180496 261.216 
L 175.023754 261.216 
L 175.445384 258.192 
L 175.867013 258.192 
L 176.288642 259.2 
L 177.55353 259.2 
L 177.975159 258.192 
L 178.396789 256.176 
L 178.818418 253.152 
L 179.240047 249.12 
L 180.083306 249.12 
L 180.504935 247.104 
L 181.348194 237.024 
L 181.769823 235.008 
L 182.191452 230.976 
L 183.034711 226.944 
L 183.45634 225.936 
L 183.877969 221.904 
L 184.299599 219.888 
L 184.721228 218.88 
L 185.142857 219.888 
L 185.564486 213.84 
L 185.986116 213.84 
L 186.407745 210.816 
L 186.829374 209.808 
L 187.251004 206.784 
L 187.672633 205.776 
L 188.094262 207.792 
L 188.515891 203.76 
L 188.937521 201.744 
L 189.35915 198.72 
L 189.780779 192.672 
L 190.202409 191.664 
L 190.624038 189.648 
L 191.045667 190.656 
L 191.467296 194.688 
L 191.888926 195.696 
L 192.310555 195.696 
L 192.732184 198.72 
L 193.153813 202.752 
L 193.575443 203.76 
L 193.997072 209.808 
L 194.418701 208.8 
L 195.26196 212.832 
L 195.683589 215.856 
L 196.105218 216.864 
L 196.526848 215.856 
L 196.948477 217.872 
L 197.370106 218.88 
L 197.791736 218.88 
L 198.213365 224.928 
L 199.056623 222.912 
L 199.478253 220.896 
L 199.899882 222.912 
L 200.74314 216.864 
L 201.586399 209.808 
L 202.008028 212.832 
L 202.429658 214.848 
L 202.851287 213.84 
L 203.272916 214.848 
L 203.694545 213.84 
L 204.537804 209.808 
L 204.959433 210.816 
L 205.802692 208.8 
L 206.224321 209.808 
L 207.06758 205.776 
L 207.489209 206.784 
L 207.910838 205.776 
L 208.332468 207.792 
L 208.754097 205.776 
L 209.175726 207.792 
L 209.597355 208.8 
L 210.018985 207.792 
L 210.440614 203.76 
L 210.862243 197.712 
L 211.283872 196.704 
L 211.705502 198.72 
L 212.127131 199.728 
L 212.54876 195.696 
L 212.97039 198.72 
L 213.392019 195.696 
L 213.813648 196.704 
L 214.235277 199.728 
L 215.078536 199.728 
L 215.500165 198.72 
L 215.921795 196.704 
L 216.343424 198.72 
L 216.765053 198.72 
L 217.186682 201.744 
L 217.608312 199.728 
L 218.8732 199.728 
L 219.716458 203.76 
L 220.138087 203.76 
L 220.559717 204.768 
L 220.981346 199.728 
L 221.402975 201.744 
L 221.824604 204.768 
L 222.246234 201.744 
L 222.667863 203.76 
L 223.089492 207.792 
L 223.511122 213.84 
L 224.776009 216.864 
L 225.197639 220.896 
L 225.619268 221.904 
L 226.462527 235.008 
L 227.305785 237.024 
L 228.149044 243.072 
L 228.570673 247.104 
L 228.992302 248.112 
L 229.413932 250.128 
L 229.835561 249.12 
L 230.25719 251.136 
L 230.678819 249.12 
L 231.100449 251.136 
L 231.522078 252.144 
L 231.943707 252.144 
L 232.365336 253.152 
L 233.208595 253.152 
L 233.630224 256.176 
L 234.051854 255.168 
L 234.473483 252.144 
L 234.895112 255.168 
L 235.316741 254.16 
L 235.738371 252.144 
L 236.16 252.144 
L 236.581629 254.16 
L 237.424888 254.16 
L 237.846517 255.168 
L 238.268146 255.168 
L 238.689776 252.144 
L 239.111405 251.136 
L 239.533034 252.144 
L 239.954664 252.144 
L 241.219551 249.12 
L 241.641181 249.12 
L 242.06281 247.104 
L 242.484439 249.12 
L 242.906068 247.104 
L 243.327698 251.136 
L 243.749327 249.12 
L 244.592586 249.12 
L 245.014215 250.128 
L 245.857473 250.128 
L 246.279103 252.144 
L 246.700732 252.144 
L 247.122361 255.168 
L 247.543991 255.168 
L 248.387249 259.2 
L 248.808878 260.208 
L 249.652137 258.192 
L 250.073766 259.2 
L 250.917025 257.184 
L 251.338654 260.208 
L 251.760283 261.216 
L 252.181913 261.216 
L 252.603542 260.208 
L 253.86843 263.232 
L 254.290059 263.232 
L 254.711688 265.248 
L 255.133318 266.256 
L 255.554947 268.272 
L 255.976576 268.272 
L 256.398205 269.28 
L 256.819835 271.296 
L 257.241464 271.296 
L 257.663093 270.288 
L 258.084723 272.304 
L 258.506352 272.304 
L 258.927981 270.288 
L 259.34961 269.28 
L 259.77124 269.28 
L 260.192869 271.296 
L 260.614498 272.304 
L 261.036128 271.296 
L 261.457757 271.296 
L 261.879386 272.304 
L 262.301015 274.32 
L 262.722645 274.32 
L 263.144274 275.328 
L 263.565903 277.344 
L 264.409162 275.328 
L 264.830791 275.328 
L 265.25242 276.336 
L 266.095679 276.336 
L 267.360567 273.312 
L 268.625455 273.312 
L 269.047084 274.32 
L 269.468713 274.32 
L 270.311972 276.336 
L 270.733601 276.336 
L 271.15523 277.344 
L 271.57686 279.36 
L 271.998489 282.384 
L 272.420118 281.376 
L 273.263377 281.376 
L 273.685006 282.384 
L 274.106635 281.376 
L 274.528264 282.384 
L 274.949894 282.384 
L 275.371523 281.376 
L 276.214782 281.376 
L 276.636411 282.384 
L 277.05804 284.4 
L 277.479669 284.4 
L 278.322928 286.416 
L 278.744557 286.416 
L 279.587816 288.432 
L 280.009445 290.448 
L 280.431074 290.448 
L 280.852704 289.44 
L 282.539221 289.44 
L 282.96085 290.448 
L 283.382479 290.448 
L 283.804109 289.44 
L 284.647367 289.44 
L 285.068996 290.448 
L 286.333884 290.448 
L 286.755514 291.456 
L 287.598772 291.456 
L 288.020401 292.464 
L 288.442031 292.464 
L 288.86366 291.456 
L 293.079953 291.456 
L 293.501582 293.472 
L 296.031358 293.472 
L 296.452987 294.48 
L 301.090909 294.48 
L 301.512538 295.488 
L 398.487273 295.488 
L 398.487273 295.488 
" clip-path="url(#p863f90f52d)" style="fill: none; stroke-dasharray: 1.85,0.8; stroke-dashoffset: 0; stroke: #80ffb4; stroke-width: 0.5"/>
   </g>
   <g id="line2d_22">
    <path d="M 73.832727 295.488 
L 123.163353 295.488 
L 123.584982 294.48 
L 125.693129 294.48 
L 126.114758 292.464 
L 126.536387 292.464 
L 126.958017 291.456 
L 127.379646 289.44 
L 132.017568 289.44 
L 132.439197 288.432 
L 134.968973 288.432 
L 135.390602 287.424 
L 136.65549 287.424 
L 137.498749 285.408 
L 138.342007 285.408 
L 138.763636 286.416 
L 139.185266 286.416 
L 139.606895 287.424 
L 140.028524 289.44 
L 141.293412 289.44 
L 142.5583 286.416 
L 142.979929 286.416 
L 143.401558 285.408 
L 143.823188 285.408 
L 144.244817 284.4 
L 144.666446 284.4 
L 145.088076 285.408 
L 145.509705 284.4 
L 147.196222 284.4 
L 147.617851 283.392 
L 148.039481 284.4 
L 148.46111 282.384 
L 148.882739 283.392 
L 149.304368 282.384 
L 149.725998 282.384 
L 150.147627 283.392 
L 151.834144 283.392 
L 152.255773 282.384 
L 153.520661 282.384 
L 153.94229 281.376 
L 154.36392 282.384 
L 157.315325 282.384 
L 157.736954 280.368 
L 158.580213 280.368 
L 159.8451 277.344 
L 160.26673 278.352 
L 160.688359 277.344 
L 161.109988 279.36 
L 161.531617 279.36 
L 161.953247 280.368 
L 162.374876 277.344 
L 162.796505 277.344 
L 163.218135 275.328 
L 163.639764 274.32 
L 164.483022 270.288 
L 164.904652 269.28 
L 165.326281 267.264 
L 165.74791 263.232 
L 167.012798 260.208 
L 167.856057 256.176 
L 169.120945 256.176 
L 169.542574 257.184 
L 169.964203 254.16 
L 170.385832 256.176 
L 170.807462 255.168 
L 171.229091 252.144 
L 171.65072 250.128 
L 172.072349 249.12 
L 172.493979 247.104 
L 173.337237 247.104 
L 173.758867 245.088 
L 174.180496 245.088 
L 174.602125 241.056 
L 175.023754 242.064 
L 175.445384 238.032 
L 175.867013 236.016 
L 176.288642 236.016 
L 176.710272 235.008 
L 177.55353 230.976 
L 177.975159 229.968 
L 178.396789 231.984 
L 178.818418 228.96 
L 179.240047 227.952 
L 179.661677 225.936 
L 180.083306 224.928 
L 180.504935 227.952 
L 180.926564 223.92 
L 181.348194 222.912 
L 181.769823 220.896 
L 182.191452 216.864 
L 182.613081 217.872 
L 183.034711 213.84 
L 183.45634 212.832 
L 184.299599 214.848 
L 184.721228 214.848 
L 185.142857 213.84 
L 185.564486 213.84 
L 185.986116 210.816 
L 186.829374 206.784 
L 187.251004 208.8 
L 187.672633 208.8 
L 188.094262 210.816 
L 188.937521 208.8 
L 189.35915 208.8 
L 189.780779 209.808 
L 190.202409 212.832 
L 190.624038 212.832 
L 191.467296 205.776 
L 192.310555 207.792 
L 192.732184 206.784 
L 193.153813 203.76 
L 193.575443 197.712 
L 194.418701 191.664 
L 195.26196 191.664 
L 195.683589 192.672 
L 196.105218 189.648 
L 196.526848 181.584 
L 197.370106 181.584 
L 197.791736 183.6 
L 198.213365 181.584 
L 198.634994 184.608 
L 199.056623 186.624 
L 199.478253 185.616 
L 199.899882 182.592 
L 200.74314 184.608 
L 201.16477 187.632 
L 201.586399 186.624 
L 202.008028 187.632 
L 202.429658 189.648 
L 202.851287 188.64 
L 203.272916 190.656 
L 203.694545 194.688 
L 204.116175 200.736 
L 204.959433 200.736 
L 205.802692 196.704 
L 206.224321 200.736 
L 206.64595 201.744 
L 207.06758 203.76 
L 207.489209 204.768 
L 207.910838 204.768 
L 208.332468 203.76 
L 209.175726 212.832 
L 209.597355 210.816 
L 210.018985 206.784 
L 210.862243 208.8 
L 212.127131 205.776 
L 212.54876 206.784 
L 212.97039 206.784 
L 213.392019 204.768 
L 214.235277 202.752 
L 215.078536 198.72 
L 215.500165 198.72 
L 215.921795 192.672 
L 217.186682 192.672 
L 217.608312 191.664 
L 218.029941 191.664 
L 218.45157 192.672 
L 218.8732 196.704 
L 219.716458 192.672 
L 220.138087 186.624 
L 220.981346 182.592 
L 221.402975 182.592 
L 221.824604 181.584 
L 222.246234 181.584 
L 222.667863 184.608 
L 223.932751 181.584 
L 224.776009 183.6 
L 225.197639 187.632 
L 225.619268 187.632 
L 226.040897 183.6 
L 226.462527 181.584 
L 226.884156 183.6 
L 227.305785 186.624 
L 227.727414 186.624 
L 228.149044 181.584 
L 228.570673 186.624 
L 228.992302 183.6 
L 229.835561 175.536 
L 230.25719 177.552 
L 230.678819 183.6 
L 231.522078 183.6 
L 231.943707 185.616 
L 232.365336 188.64 
L 232.786966 195.696 
L 233.208595 198.72 
L 233.630224 203.76 
L 234.051854 201.744 
L 234.473483 206.784 
L 234.895112 208.8 
L 235.316741 209.808 
L 235.738371 209.808 
L 236.16 208.8 
L 236.581629 209.808 
L 237.003259 211.824 
L 237.424888 211.824 
L 237.846517 207.792 
L 238.268146 207.792 
L 239.111405 215.856 
L 239.954664 219.888 
L 240.376293 220.896 
L 240.797922 226.944 
L 241.219551 225.936 
L 242.484439 237.024 
L 242.906068 237.024 
L 243.327698 236.016 
L 243.749327 239.04 
L 244.170956 238.032 
L 244.592586 238.032 
L 245.014215 237.024 
L 245.435844 235.008 
L 246.279103 232.992 
L 247.122361 232.992 
L 247.543991 235.008 
L 247.96562 234 
L 248.387249 234 
L 248.808878 231.984 
L 249.652137 229.968 
L 250.073766 232.992 
L 250.495396 232.992 
L 250.917025 234 
L 251.338654 237.024 
L 251.760283 238.032 
L 252.181913 237.024 
L 252.603542 235.008 
L 253.025171 236.016 
L 253.4468 236.016 
L 253.86843 239.04 
L 254.290059 234 
L 254.711688 234 
L 255.133318 236.016 
L 255.554947 235.008 
L 256.398205 237.024 
L 256.819835 240.048 
L 257.241464 241.056 
L 257.663093 244.08 
L 258.084723 248.112 
L 258.506352 249.12 
L 258.927981 247.104 
L 259.34961 248.112 
L 259.77124 247.104 
L 260.192869 243.072 
L 260.614498 246.096 
L 261.036128 246.096 
L 261.879386 252.144 
L 262.301015 253.152 
L 262.722645 252.144 
L 263.987532 252.144 
L 264.409162 250.128 
L 264.830791 250.128 
L 265.25242 252.144 
L 265.67405 252.144 
L 266.095679 253.152 
L 266.517308 250.128 
L 266.938937 256.176 
L 267.360567 257.184 
L 267.782196 257.184 
L 268.203825 259.2 
L 268.625455 260.208 
L 269.468713 260.208 
L 269.890342 263.232 
L 270.733601 263.232 
L 271.15523 264.24 
L 271.57686 268.272 
L 271.998489 270.288 
L 272.420118 273.312 
L 272.841747 277.344 
L 273.263377 277.344 
L 274.106635 281.376 
L 274.949894 281.376 
L 275.371523 282.384 
L 275.793152 286.416 
L 276.214782 287.424 
L 276.636411 287.424 
L 277.05804 289.44 
L 277.479669 290.448 
L 277.901299 290.448 
L 278.322928 291.456 
L 278.744557 291.456 
L 279.166187 294.48 
L 280.009445 294.48 
L 280.431074 295.488 
L 398.487273 295.488 
L 398.487273 295.488 
" clip-path="url(#p863f90f52d)" style="fill: none; stroke-dasharray: 1.85,0.8; stroke-dashoffset: 0; stroke: #ffb360; stroke-width: 0.5"/>
   </g>
   <g id="line2d_23">
    <path d="M 73.832727 295.488 
L 123.163353 295.488 
L 123.584982 294.48 
L 125.693129 294.48 
L 126.114758 292.464 
L 126.536387 292.464 
L 126.958017 291.456 
L 127.379646 289.44 
L 132.017568 289.44 
L 132.439197 288.432 
L 134.968973 288.432 
L 135.390602 287.424 
L 136.65549 287.424 
L 137.498749 285.408 
L 138.342007 285.408 
L 138.763636 286.416 
L 139.185266 286.416 
L 139.606895 287.424 
L 140.028524 289.44 
L 141.293412 289.44 
L 142.5583 286.416 
L 142.979929 286.416 
L 143.401558 285.408 
L 143.823188 285.408 
L 144.244817 284.4 
L 144.666446 284.4 
L 145.088076 285.408 
L 145.509705 284.4 
L 147.196222 284.4 
L 147.617851 283.392 
L 148.039481 284.4 
L 148.46111 282.384 
L 148.882739 282.384 
L 149.304368 281.376 
L 149.725998 281.376 
L 150.147627 282.384 
L 152.677403 282.384 
L 153.099032 281.376 
L 153.94229 281.376 
L 154.785549 283.392 
L 156.893695 283.392 
L 157.315325 282.384 
L 159.8451 282.384 
L 160.26673 281.376 
L 160.688359 281.376 
L 161.109988 283.392 
L 161.531617 283.392 
L 162.374876 285.408 
L 162.796505 285.408 
L 163.218135 284.4 
L 163.639764 284.4 
L 164.061393 285.408 
L 165.326281 282.384 
L 165.74791 283.392 
L 166.591169 279.36 
L 167.012798 278.352 
L 167.856057 278.352 
L 168.277686 277.344 
L 169.964203 277.344 
L 170.385832 276.336 
L 170.807462 277.344 
L 171.229091 276.336 
L 171.65072 276.336 
L 172.072349 275.328 
L 172.493979 275.328 
L 172.915608 274.32 
L 173.337237 274.32 
L 173.758867 273.312 
L 174.180496 273.312 
L 174.602125 272.304 
L 175.023754 269.28 
L 175.867013 267.264 
L 176.710272 261.216 
L 177.131901 262.224 
L 177.975159 260.208 
L 178.396789 258.192 
L 178.818418 258.192 
L 179.661677 256.176 
L 180.083306 253.152 
L 181.348194 253.152 
L 181.769823 248.112 
L 182.191452 248.112 
L 182.613081 244.08 
L 183.034711 242.064 
L 183.45634 237.024 
L 183.877969 237.024 
L 184.299599 235.008 
L 184.721228 231.984 
L 185.142857 230.976 
L 185.564486 230.976 
L 185.986116 227.952 
L 186.407745 225.936 
L 187.251004 219.888 
L 187.672633 220.896 
L 188.094262 216.864 
L 188.515891 215.856 
L 188.937521 215.856 
L 189.35915 213.84 
L 189.780779 208.8 
L 190.202409 206.784 
L 190.624038 203.76 
L 191.045667 201.744 
L 191.888926 191.664 
L 192.732184 187.632 
L 193.153813 184.608 
L 193.997072 165.456 
L 194.418701 162.432 
L 194.840331 153.36 
L 195.26196 151.344 
L 196.105218 144.288 
L 196.948477 126.144 
L 197.370106 122.112 
L 198.213365 102.96 
L 199.478253 86.832 
L 199.899882 75.744 
L 200.321511 70.704 
L 201.16477 72.72 
L 201.586399 67.68 
L 202.429658 61.632 
L 202.851287 59.616 
L 203.272916 55.584 
L 203.694545 53.568 
L 204.116175 54.576 
L 204.537804 56.592 
L 204.959433 55.584 
L 205.381063 56.592 
L 205.802692 58.608 
L 206.64595 75.744 
L 207.06758 80.784 
L 207.489209 88.848 
L 207.910838 91.872 
L 208.332468 92.88 
L 209.597355 114.048 
L 210.018985 118.08 
L 210.862243 140.256 
L 211.283872 143.28 
L 211.705502 145.296 
L 212.127131 150.336 
L 212.54876 163.44 
L 212.97039 164.448 
L 213.392019 162.432 
L 213.813648 162.432 
L 214.235277 169.488 
L 214.656907 171.504 
L 215.078536 177.552 
L 215.500165 178.56 
L 216.343424 188.64 
L 216.765053 186.624 
L 217.186682 186.624 
L 217.608312 187.632 
L 218.8732 176.544 
L 219.294829 175.536 
L 219.716458 170.496 
L 220.138087 167.472 
L 220.559717 163.44 
L 220.981346 162.432 
L 221.824604 156.384 
L 222.246234 151.344 
L 222.667863 155.376 
L 223.089492 147.312 
L 223.511122 144.288 
L 223.932751 147.312 
L 224.35438 151.344 
L 224.776009 151.344 
L 225.197639 149.328 
L 226.040897 153.36 
L 226.462527 147.312 
L 226.884156 145.296 
L 227.305785 148.32 
L 227.727414 144.288 
L 228.149044 143.28 
L 228.570673 144.288 
L 228.992302 141.264 
L 229.413932 148.32 
L 229.835561 153.36 
L 231.100449 162.432 
L 231.522078 167.472 
L 231.943707 168.48 
L 232.365336 173.52 
L 232.786966 171.504 
L 233.208595 174.528 
L 233.630224 180.576 
L 234.051854 181.584 
L 234.895112 194.688 
L 235.316741 194.688 
L 235.738371 201.744 
L 236.16 204.768 
L 236.581629 206.784 
L 237.003259 206.784 
L 237.424888 207.792 
L 237.846517 207.792 
L 238.689776 205.776 
L 239.111405 209.808 
L 239.954664 211.824 
L 240.376293 213.84 
L 240.797922 214.848 
L 241.219551 216.864 
L 241.641181 219.888 
L 242.06281 218.88 
L 242.484439 214.848 
L 242.906068 212.832 
L 243.327698 216.864 
L 243.749327 215.856 
L 244.170956 210.816 
L 245.014215 210.816 
L 245.435844 216.864 
L 245.857473 215.856 
L 246.279103 213.84 
L 246.700732 214.848 
L 247.122361 211.824 
L 247.543991 210.816 
L 247.96562 206.784 
L 248.387249 205.776 
L 248.808878 205.776 
L 249.230508 204.768 
L 249.652137 207.792 
L 250.073766 207.792 
L 250.495396 210.816 
L 251.338654 218.88 
L 251.760283 219.888 
L 252.181913 219.888 
L 252.603542 221.904 
L 253.025171 220.896 
L 253.4468 222.912 
L 253.86843 221.904 
L 254.290059 219.888 
L 254.711688 220.896 
L 255.133318 223.92 
L 255.554947 223.92 
L 255.976576 222.912 
L 256.819835 224.928 
L 257.241464 222.912 
L 257.663093 222.912 
L 258.084723 220.896 
L 258.506352 224.928 
L 258.927981 222.912 
L 260.192869 228.96 
L 260.614498 231.984 
L 261.036128 229.968 
L 261.457757 229.968 
L 261.879386 228.96 
L 262.301015 228.96 
L 263.144274 230.976 
L 263.987532 230.976 
L 264.409162 234 
L 264.830791 235.008 
L 265.25242 235.008 
L 265.67405 240.048 
L 266.938937 246.096 
L 267.360567 247.104 
L 267.782196 249.12 
L 269.468713 253.152 
L 269.890342 257.184 
L 270.311972 259.2 
L 270.733601 260.208 
L 271.15523 262.224 
L 271.57686 266.256 
L 271.998489 265.248 
L 272.420118 266.256 
L 272.841747 265.248 
L 273.263377 266.256 
L 273.685006 268.272 
L 274.528264 270.288 
L 274.949894 270.288 
L 275.371523 271.296 
L 275.793152 270.288 
L 276.214782 271.296 
L 276.636411 271.296 
L 277.05804 270.288 
L 277.479669 271.296 
L 277.901299 271.296 
L 278.322928 270.288 
L 278.744557 271.296 
L 279.166187 271.296 
L 279.587816 272.304 
L 280.431074 272.304 
L 280.852704 273.312 
L 281.274333 273.312 
L 281.695962 275.328 
L 282.117591 278.352 
L 282.539221 278.352 
L 282.96085 279.36 
L 283.382479 281.376 
L 283.804109 281.376 
L 284.647367 283.392 
L 285.068996 283.392 
L 285.490626 285.408 
L 285.912255 285.408 
L 286.333884 287.424 
L 286.755514 287.424 
L 287.177143 288.432 
L 287.598772 288.432 
L 288.442031 290.448 
L 288.86366 290.448 
L 289.706919 292.464 
L 290.550177 292.464 
L 290.971806 293.472 
L 293.079953 293.472 
L 293.923211 295.488 
L 398.487273 295.488 
L 398.487273 295.488 
" clip-path="url(#p863f90f52d)" style="fill: none; stroke-dasharray: 1.85,0.8; stroke-dashoffset: 0; stroke: #ff0000; stroke-width: 0.5"/>
   </g>
   <g id="patch_3">
    <path d="M 57.6 307.584 
L 57.6 41.472 
" style="fill: none; stroke: #000000; stroke-width: 0.8; stroke-linejoin: miter; stroke-linecap: square"/>
   </g>
   <g id="patch_4">
    <path d="M 414.72 307.584 
L 414.72 41.472 
" style="fill: none; stroke: #000000; stroke-width: 0.8; stroke-linejoin: miter; stroke-linecap: square"/>
   </g>
   <g id="patch_5">
    <path d="M 57.6 307.584 
L 414.72 307.584 
" style="fill: none; stroke: #000000; stroke-width: 0.8; stroke-linejoin: miter; stroke-linecap: square"/>
   </g>
   <g id="patch_6">
    <path d="M 57.6 41.472 
L 414.72 41.472 
" style="fill: none; stroke: #000000; stroke-width: 0.8; stroke-linejoin: miter; stroke-linecap: square"/>
   </g>
   <g id="text_21">
    <!-- Heating Rate ($^{\circ}C.s^{-1}$) -->
    <g transform="translate(271.872 68.0832) scale(0.12 -0.12)">
     <defs>
      <path id="DejaVuSans-48" d="M 628 4666 
L 1259 4666 
L 1259 2753 
L 3553 2753 
L 3553 4666 
L 4184 4666 
L 4184 0 
L 3553 0 
L 3553 2222 
L 1259 2222 
L 1259 0 
L 628 0 
L 628 4666 
z
" transform="scale(0.015625)"/>
      <path id="DejaVuSans-67" d="M 2906 1791 
Q 2906 2416 2648 2759 
Q 2391 3103 1925 3103 
Q 1463 3103 1205 2759 
Q 947 2416 947 1791 
Q 947 1169 1205 825 
Q 1463 481 1925 481 
Q 2391 481 2648 825 
Q 2906 1169 2906 1791 
z
M 3481 434 
Q 3481 -459 3084 -895 
Q 2688 -1331 1869 -1331 
Q 1566 -1331 1297 -1286 
Q 1028 -1241 775 -1147 
L 775 -588 
Q 1028 -725 1275 -790 
Q 1522 -856 1778 -856 
Q 2344 -856 2625 -561 
Q 2906 -266 2906 331 
L 2906 616 
Q 2728 306 2450 153 
Q 2172 0 1784 0 
Q 1141 0 747 490 
Q 353 981 353 1791 
Q 353 2603 747 3093 
Q 1141 3584 1784 3584 
Q 2172 3584 2450 3431 
Q 2728 3278 2906 2969 
L 2906 3500 
L 3481 3500 
L 3481 434 
z
" transform="scale(0.015625)"/>
      <path id="DejaVuSans-52" d="M 2841 2188 
Q 3044 2119 3236 1894 
Q 3428 1669 3622 1275 
L 4263 0 
L 3584 0 
L 2988 1197 
Q 2756 1666 2539 1819 
Q 2322 1972 1947 1972 
L 1259 1972 
L 1259 0 
L 628 0 
L 628 4666 
L 2053 4666 
Q 2853 4666 3247 4331 
Q 3641 3997 3641 3322 
Q 3641 2881 3436 2590 
Q 3231 2300 2841 2188 
z
M 1259 4147 
L 1259 2491 
L 2053 2491 
Q 2509 2491 2742 2702 
Q 2975 2913 2975 3322 
Q 2975 3731 2742 3939 
Q 2509 4147 2053 4147 
L 1259 4147 
z
" transform="scale(0.015625)"/>
      <path id="DejaVuSans-Oblique-73" d="M 3200 3397 
L 3091 2853 
Q 2863 2978 2609 3040 
Q 2356 3103 2088 3103 
Q 1634 3103 1373 2948 
Q 1113 2794 1113 2528 
Q 1113 2219 1719 2053 
Q 1766 2041 1788 2034 
L 1972 1978 
Q 2547 1819 2739 1644 
Q 2931 1469 2931 1166 
Q 2931 609 2489 259 
Q 2047 -91 1331 -91 
Q 1053 -91 747 -37 
Q 441 16 72 128 
L 184 722 
Q 500 559 806 475 
Q 1113 391 1394 391 
Q 1816 391 2080 572 
Q 2344 753 2344 1031 
Q 2344 1331 1650 1516 
L 1591 1531 
L 1394 1581 
Q 956 1697 753 1886 
Q 550 2075 550 2369 
Q 550 2928 970 3256 
Q 1391 3584 2113 3584 
Q 2397 3584 2667 3537 
Q 2938 3491 3200 3397 
z
" transform="scale(0.015625)"/>
     </defs>
     <use xlink:href="#DejaVuSans-48" transform="translate(0 0.684375)"/>
     <use xlink:href="#DejaVuSans-65" transform="translate(75.195312 0.684375)"/>
     <use xlink:href="#DejaVuSans-61" transform="translate(136.71875 0.684375)"/>
     <use xlink:href="#DejaVuSans-74" transform="translate(197.998047 0.684375)"/>
     <use xlink:href="#DejaVuSans-69" transform="translate(237.207031 0.684375)"/>
     <use xlink:href="#DejaVuSans-6e" transform="translate(264.990234 0.684375)"/>
     <use xlink:href="#DejaVuSans-67" transform="translate(328.369141 0.684375)"/>
     <use xlink:href="#DejaVuSans-20" transform="translate(391.845703 0.684375)"/>
     <use xlink:href="#DejaVuSans-52" transform="translate(423.632812 0.684375)"/>
     <use xlink:href="#DejaVuSans-61" transform="translate(493.115234 0.684375)"/>
     <use xlink:href="#DejaVuSans-74" transform="translate(554.394531 0.684375)"/>
     <use xlink:href="#DejaVuSans-65" transform="translate(593.603516 0.684375)"/>
     <use xlink:href="#DejaVuSans-20" transform="translate(655.126953 0.684375)"/>
     <use xlink:href="#DejaVuSans-28" transform="translate(686.914062 0.684375)"/>
     <use xlink:href="#DejaVuSans-2218" transform="translate(726.884766 38.965625) scale(0.7)"/>
     <use xlink:href="#DejaVuSans-Oblique-43" transform="translate(773.4375 0.684375)"/>
     <use xlink:href="#DejaVuSans-2e" transform="translate(843.261719 0.684375)"/>
     <use xlink:href="#DejaVuSans-Oblique-73" transform="translate(894.53125 0.684375)"/>
     <use xlink:href="#DejaVuSans-2212" transform="translate(951.280755 38.965625) scale(0.7)"/>
     <use xlink:href="#DejaVuSans-31" transform="translate(1009.933099 38.965625) scale(0.7)"/>
     <use xlink:href="#DejaVuSans-29" transform="translate(1057.203607 0.684375)"/>
    </g>
   </g>
   <g id="legend_1">
    <g id="patch_7">
     <path d="M 314.584 149.473825 
L 362.487125 149.473825 
Q 364.487125 149.473825 364.487125 147.473825 
L 364.487125 75.0832 
Q 364.487125 73.0832 362.487125 73.0832 
L 314.584 73.0832 
Q 312.584 73.0832 312.584 75.0832 
L 312.584 147.473825 
Q 312.584 149.473825 314.584 149.473825 
z
" style="fill: #ffffff; opacity: 0.8; stroke: #cccccc; stroke-linejoin: miter"/>
    </g>
    <g id="line2d_24">
     <path d="M 316.584 81.181637 
L 326.584 81.181637 
L 336.584 81.181637 
" style="fill: none; stroke-dasharray: 1.85,0.8; stroke-dashoffset: 0; stroke: #8000ff; stroke-width: 0.5"/>
    </g>
    <g id="text_22">
     <!-- 0.1 -->
     <g transform="translate(344.584 84.681637) scale(0.1 -0.1)">
      <use xlink:href="#DejaVuSans-30"/>
      <use xlink:href="#DejaVuSans-2e" transform="translate(63.623047 0)"/>
      <use xlink:href="#DejaVuSans-31" transform="translate(95.410156 0)"/>
     </g>
    </g>
    <g id="line2d_25">
     <path d="M 316.584 95.859762 
L 326.584 95.859762 
L 336.584 95.859762 
" style="fill: none; stroke-dasharray: 1.85,0.8; stroke-dashoffset: 0; stroke: #00b5eb; stroke-width: 0.5"/>
    </g>
    <g id="text_23">
     <!-- 1 -->
     <g transform="translate(344.584 99.359762) scale(0.1 -0.1)">
      <use xlink:href="#DejaVuSans-31"/>
     </g>
    </g>
    <g id="line2d_26">
     <path d="M 316.584 110.537887 
L 326.584 110.537887 
L 336.584 110.537887 
" style="fill: none; stroke-dasharray: 1.85,0.8; stroke-dashoffset: 0; stroke: #80ffb4; stroke-width: 0.5"/>
    </g>
    <g id="text_24">
     <!-- 5 -->
     <g transform="translate(344.584 114.037887) scale(0.1 -0.1)">
      <use xlink:href="#DejaVuSans-35"/>
     </g>
    </g>
    <g id="line2d_27">
     <path d="M 316.584 125.216012 
L 326.584 125.216012 
L 336.584 125.216012 
" style="fill: none; stroke-dasharray: 1.85,0.8; stroke-dashoffset: 0; stroke: #ffb360; stroke-width: 0.5"/>
    </g>
    <g id="text_25">
     <!-- 10 -->
     <g transform="translate(344.584 128.716012) scale(0.1 -0.1)">
      <use xlink:href="#DejaVuSans-31"/>
      <use xlink:href="#DejaVuSans-30" transform="translate(63.623047 0)"/>
     </g>
    </g>
    <g id="line2d_28">
     <path d="M 316.584 139.894137 
L 326.584 139.894137 
L 336.584 139.894137 
" style="fill: none; stroke-dasharray: 1.85,0.8; stroke-dashoffset: 0; stroke: #ff0000; stroke-width: 0.5"/>
    </g>
    <g id="text_26">
     <!-- 20 -->
     <g transform="translate(344.584 143.394137) scale(0.1 -0.1)">
      <use xlink:href="#DejaVuSans-32"/>
      <use xlink:href="#DejaVuSans-30" transform="translate(63.623047 0)"/>
     </g>
    </g>
   </g>
  </g>
 </g>
 <defs>
  <clipPath id="p863f90f52d">
   <rect x="57.6" y="41.472" width="357.12" height="266.112"/>
  </clipPath>
 </defs>
</svg>
