<?xml version="1.0" encoding="utf-8" standalone="no"?>
<!DOCTYPE svg PUBLIC "-//W3C//DTD SVG 1.1//EN"
  "http://www.w3.org/Graphics/SVG/1.1/DTD/svg11.dtd">
<svg xmlns:xlink="http://www.w3.org/1999/xlink" width="720pt" height="360pt" viewBox="0 0 720 360" xmlns="http://www.w3.org/2000/svg" version="1.1">
 <metadata>
  <rdf:RDF xmlns:dc="http://purl.org/dc/elements/1.1/" xmlns:cc="http://creativecommons.org/ns#" xmlns:rdf="http://www.w3.org/1999/02/22-rdf-syntax-ns#">
   <cc:Work>
    <dc:type rdf:resource="http://purl.org/dc/dcmitype/StillImage"/>
    <dc:date>2025-03-26T07:59:58.274131</dc:date>
    <dc:format>image/svg+xml</dc:format>
    <dc:creator>
     <cc:Agent>
      <dc:title>Matplotlib v3.10.0, https://matplotlib.org/</dc:title>
     </cc:Agent>
    </dc:creator>
   </cc:Work>
  </rdf:RDF>
 </metadata>
 <defs>
  <style type="text/css">*{stroke-linejoin: round; stroke-linecap: butt}</style>
 </defs>
 <g id="figure_1">
  <g id="patch_1">
   <path d="M 0 360 
L 720 360 
L 720 0 
L 0 0 
z
" style="fill: #ffffff"/>
  </g>
  <g id="axes_1">
   <g id="patch_2">
    <path d="M 57.17 314.728 
L 363.935007 314.728 
L 363.935007 26.88 
L 57.17 26.88 
z
" style="fill: #ffffff"/>
   </g>
   <g id="matplotlib.axis_1">
    <g id="xtick_1">
     <g id="line2d_1">
      <defs>
       <path id="m53ddad97b3" d="M 0 0 
L 0 3.5 
" style="stroke: #000000; stroke-width: 0.8"/>
      </defs>
      <g>
       <use xlink:href="#m53ddad97b3" x="88.943628" y="314.728" style="stroke: #000000; stroke-width: 0.8"/>
      </g>
     </g>
     <g id="text_1">
      <!-- $\mathdefault{10^{-13}}$ -->
      <g transform="translate(74.993628 329.326437) scale(0.1 -0.1)">
       <defs>
        <path id="DejaVuSans-31" d="M 794 531 
L 1825 531 
L 1825 4091 
L 703 3866 
L 703 4441 
L 1819 4666 
L 2450 4666 
L 2450 531 
L 3481 531 
L 3481 0 
L 794 0 
L 794 531 
z
" transform="scale(0.015625)"/>
        <path id="DejaVuSans-30" d="M 2034 4250 
Q 1547 4250 1301 3770 
Q 1056 3291 1056 2328 
Q 1056 1369 1301 889 
Q 1547 409 2034 409 
Q 2525 409 2770 889 
Q 3016 1369 3016 2328 
Q 3016 3291 2770 3770 
Q 2525 4250 2034 4250 
z
M 2034 4750 
Q 2819 4750 3233 4129 
Q 3647 3509 3647 2328 
Q 3647 1150 3233 529 
Q 2819 -91 2034 -91 
Q 1250 -91 836 529 
Q 422 1150 422 2328 
Q 422 3509 836 4129 
Q 1250 4750 2034 4750 
z
" transform="scale(0.015625)"/>
        <path id="DejaVuSans-2212" d="M 678 2272 
L 4684 2272 
L 4684 1741 
L 678 1741 
L 678 2272 
z
" transform="scale(0.015625)"/>
        <path id="DejaVuSans-33" d="M 2597 2516 
Q 3050 2419 3304 2112 
Q 3559 1806 3559 1356 
Q 3559 666 3084 287 
Q 2609 -91 1734 -91 
Q 1441 -91 1130 -33 
Q 819 25 488 141 
L 488 750 
Q 750 597 1062 519 
Q 1375 441 1716 441 
Q 2309 441 2620 675 
Q 2931 909 2931 1356 
Q 2931 1769 2642 2001 
Q 2353 2234 1838 2234 
L 1294 2234 
L 1294 2753 
L 1863 2753 
Q 2328 2753 2575 2939 
Q 2822 3125 2822 3475 
Q 2822 3834 2567 4026 
Q 2313 4219 1838 4219 
Q 1578 4219 1281 4162 
Q 984 4106 628 3988 
L 628 4550 
Q 988 4650 1302 4700 
Q 1616 4750 1894 4750 
Q 2613 4750 3031 4423 
Q 3450 4097 3450 3541 
Q 3450 3153 3228 2886 
Q 3006 2619 2597 2516 
z
" transform="scale(0.015625)"/>
       </defs>
       <use xlink:href="#DejaVuSans-31" transform="translate(0 0.765625)"/>
       <use xlink:href="#DejaVuSans-30" transform="translate(63.623047 0.765625)"/>
       <use xlink:href="#DejaVuSans-2212" transform="translate(128.203125 39.046875) scale(0.7)"/>
       <use xlink:href="#DejaVuSans-31" transform="translate(186.855469 39.046875) scale(0.7)"/>
       <use xlink:href="#DejaVuSans-33" transform="translate(231.391602 39.046875) scale(0.7)"/>
      </g>
     </g>
    </g>
    <g id="xtick_2">
     <g id="line2d_2">
      <g>
       <use xlink:href="#m53ddad97b3" x="126.222464" y="314.728" style="stroke: #000000; stroke-width: 0.8"/>
      </g>
     </g>
     <g id="text_2">
      <!-- $\mathdefault{10^{-7}}$ -->
      <g transform="translate(114.472464 329.326437) scale(0.1 -0.1)">
       <defs>
        <path id="DejaVuSans-37" d="M 525 4666 
L 3525 4666 
L 3525 4397 
L 1831 0 
L 1172 0 
L 2766 4134 
L 525 4134 
L 525 4666 
z
" transform="scale(0.015625)"/>
       </defs>
       <use xlink:href="#DejaVuSans-31" transform="translate(0 0.684375)"/>
       <use xlink:href="#DejaVuSans-30" transform="translate(63.623047 0.684375)"/>
       <use xlink:href="#DejaVuSans-2212" transform="translate(128.203125 38.965625) scale(0.7)"/>
       <use xlink:href="#DejaVuSans-37" transform="translate(186.855469 38.965625) scale(0.7)"/>
      </g>
     </g>
    </g>
    <g id="xtick_3">
     <g id="line2d_3">
      <g>
       <use xlink:href="#m53ddad97b3" x="163.5013" y="314.728" style="stroke: #000000; stroke-width: 0.8"/>
      </g>
     </g>
     <g id="text_3">
      <!-- $\mathdefault{10^{-1}}$ -->
      <g transform="translate(151.7513 329.326437) scale(0.1 -0.1)">
       <use xlink:href="#DejaVuSans-31" transform="translate(0 0.684375)"/>
       <use xlink:href="#DejaVuSans-30" transform="translate(63.623047 0.684375)"/>
       <use xlink:href="#DejaVuSans-2212" transform="translate(128.203125 38.965625) scale(0.7)"/>
       <use xlink:href="#DejaVuSans-31" transform="translate(186.855469 38.965625) scale(0.7)"/>
      </g>
     </g>
    </g>
    <g id="xtick_4">
     <g id="line2d_4">
      <g>
       <use xlink:href="#m53ddad97b3" x="200.780136" y="314.728" style="stroke: #000000; stroke-width: 0.8"/>
      </g>
     </g>
     <g id="text_4">
      <!-- $\mathdefault{10^{5}}$ -->
      <g transform="translate(191.980136 329.326437) scale(0.1 -0.1)">
       <defs>
        <path id="DejaVuSans-35" d="M 691 4666 
L 3169 4666 
L 3169 4134 
L 1269 4134 
L 1269 2991 
Q 1406 3038 1543 3061 
Q 1681 3084 1819 3084 
Q 2600 3084 3056 2656 
Q 3513 2228 3513 1497 
Q 3513 744 3044 326 
Q 2575 -91 1722 -91 
Q 1428 -91 1123 -41 
Q 819 9 494 109 
L 494 744 
Q 775 591 1075 516 
Q 1375 441 1709 441 
Q 2250 441 2565 725 
Q 2881 1009 2881 1497 
Q 2881 1984 2565 2268 
Q 2250 2553 1709 2553 
Q 1456 2553 1204 2497 
Q 953 2441 691 2322 
L 691 4666 
z
" transform="scale(0.015625)"/>
       </defs>
       <use xlink:href="#DejaVuSans-31" transform="translate(0 0.684375)"/>
       <use xlink:href="#DejaVuSans-30" transform="translate(63.623047 0.684375)"/>
       <use xlink:href="#DejaVuSans-35" transform="translate(128.203125 38.965625) scale(0.7)"/>
      </g>
     </g>
    </g>
    <g id="xtick_5">
     <g id="line2d_5">
      <g>
       <use xlink:href="#m53ddad97b3" x="238.058971" y="314.728" style="stroke: #000000; stroke-width: 0.8"/>
      </g>
     </g>
     <g id="text_5">
      <!-- $\mathdefault{10^{11}}$ -->
      <g transform="translate(227.008971 329.326437) scale(0.1 -0.1)">
       <use xlink:href="#DejaVuSans-31" transform="translate(0 0.684375)"/>
       <use xlink:href="#DejaVuSans-30" transform="translate(63.623047 0.684375)"/>
       <use xlink:href="#DejaVuSans-31" transform="translate(128.203125 38.965625) scale(0.7)"/>
       <use xlink:href="#DejaVuSans-31" transform="translate(172.739258 38.965625) scale(0.7)"/>
      </g>
     </g>
    </g>
    <g id="xtick_6">
     <g id="line2d_6">
      <g>
       <use xlink:href="#m53ddad97b3" x="275.337807" y="314.728" style="stroke: #000000; stroke-width: 0.8"/>
      </g>
     </g>
     <g id="text_6">
      <!-- $\mathdefault{10^{17}}$ -->
      <g transform="translate(264.287807 329.326437) scale(0.1 -0.1)">
       <use xlink:href="#DejaVuSans-31" transform="translate(0 0.684375)"/>
       <use xlink:href="#DejaVuSans-30" transform="translate(63.623047 0.684375)"/>
       <use xlink:href="#DejaVuSans-31" transform="translate(128.203125 38.965625) scale(0.7)"/>
       <use xlink:href="#DejaVuSans-37" transform="translate(172.739258 38.965625) scale(0.7)"/>
      </g>
     </g>
    </g>
    <g id="xtick_7">
     <g id="line2d_7">
      <g>
       <use xlink:href="#m53ddad97b3" x="312.616643" y="314.728" style="stroke: #000000; stroke-width: 0.8"/>
      </g>
     </g>
     <g id="text_7">
      <!-- $\mathdefault{10^{23}}$ -->
      <g transform="translate(301.566643 329.326437) scale(0.1 -0.1)">
       <defs>
        <path id="DejaVuSans-32" d="M 1228 531 
L 3431 531 
L 3431 0 
L 469 0 
L 469 531 
Q 828 903 1448 1529 
Q 2069 2156 2228 2338 
Q 2531 2678 2651 2914 
Q 2772 3150 2772 3378 
Q 2772 3750 2511 3984 
Q 2250 4219 1831 4219 
Q 1534 4219 1204 4116 
Q 875 4013 500 3803 
L 500 4441 
Q 881 4594 1212 4672 
Q 1544 4750 1819 4750 
Q 2544 4750 2975 4387 
Q 3406 4025 3406 3419 
Q 3406 3131 3298 2873 
Q 3191 2616 2906 2266 
Q 2828 2175 2409 1742 
Q 1991 1309 1228 531 
z
" transform="scale(0.015625)"/>
       </defs>
       <use xlink:href="#DejaVuSans-31" transform="translate(0 0.765625)"/>
       <use xlink:href="#DejaVuSans-30" transform="translate(63.623047 0.765625)"/>
       <use xlink:href="#DejaVuSans-32" transform="translate(128.203125 39.046875) scale(0.7)"/>
       <use xlink:href="#DejaVuSans-33" transform="translate(172.739258 39.046875) scale(0.7)"/>
      </g>
     </g>
    </g>
    <g id="xtick_8">
     <g id="line2d_8">
      <g>
       <use xlink:href="#m53ddad97b3" x="349.895479" y="314.728" style="stroke: #000000; stroke-width: 0.8"/>
      </g>
     </g>
     <g id="text_8">
      <!-- $\mathdefault{10^{29}}$ -->
      <g transform="translate(338.945479 329.326437) scale(0.1 -0.1)">
       <defs>
        <path id="DejaVuSans-39" d="M 703 97 
L 703 672 
Q 941 559 1184 500 
Q 1428 441 1663 441 
Q 2288 441 2617 861 
Q 2947 1281 2994 2138 
Q 2813 1869 2534 1725 
Q 2256 1581 1919 1581 
Q 1219 1581 811 2004 
Q 403 2428 403 3163 
Q 403 3881 828 4315 
Q 1253 4750 1959 4750 
Q 2769 4750 3195 4129 
Q 3622 3509 3622 2328 
Q 3622 1225 3098 567 
Q 2575 -91 1691 -91 
Q 1453 -91 1209 -44 
Q 966 3 703 97 
z
M 1959 2075 
Q 2384 2075 2632 2365 
Q 2881 2656 2881 3163 
Q 2881 3666 2632 3958 
Q 2384 4250 1959 4250 
Q 1534 4250 1286 3958 
Q 1038 3666 1038 3163 
Q 1038 2656 1286 2365 
Q 1534 2075 1959 2075 
z
" transform="scale(0.015625)"/>
       </defs>
       <use xlink:href="#DejaVuSans-31" transform="translate(0 0.765625)"/>
       <use xlink:href="#DejaVuSans-30" transform="translate(63.623047 0.765625)"/>
       <use xlink:href="#DejaVuSans-32" transform="translate(128.203125 39.046875) scale(0.7)"/>
       <use xlink:href="#DejaVuSans-39" transform="translate(171.514258 39.046875) scale(0.7)"/>
      </g>
     </g>
    </g>
    <g id="text_9">
     <!-- Time (s) -->
     <g transform="translate(190.223597 343.004562) scale(0.1 -0.1)">
      <defs>
       <path id="DejaVuSans-54" d="M -19 4666 
L 3928 4666 
L 3928 4134 
L 2272 4134 
L 2272 0 
L 1638 0 
L 1638 4134 
L -19 4134 
L -19 4666 
z
" transform="scale(0.015625)"/>
       <path id="DejaVuSans-69" d="M 603 3500 
L 1178 3500 
L 1178 0 
L 603 0 
L 603 3500 
z
M 603 4863 
L 1178 4863 
L 1178 4134 
L 603 4134 
L 603 4863 
z
" transform="scale(0.015625)"/>
       <path id="DejaVuSans-6d" d="M 3328 2828 
Q 3544 3216 3844 3400 
Q 4144 3584 4550 3584 
Q 5097 3584 5394 3201 
Q 5691 2819 5691 2113 
L 5691 0 
L 5113 0 
L 5113 2094 
Q 5113 2597 4934 2840 
Q 4756 3084 4391 3084 
Q 3944 3084 3684 2787 
Q 3425 2491 3425 1978 
L 3425 0 
L 2847 0 
L 2847 2094 
Q 2847 2600 2669 2842 
Q 2491 3084 2119 3084 
Q 1678 3084 1418 2786 
Q 1159 2488 1159 1978 
L 1159 0 
L 581 0 
L 581 3500 
L 1159 3500 
L 1159 2956 
Q 1356 3278 1631 3431 
Q 1906 3584 2284 3584 
Q 2666 3584 2933 3390 
Q 3200 3197 3328 2828 
z
" transform="scale(0.015625)"/>
       <path id="DejaVuSans-65" d="M 3597 1894 
L 3597 1613 
L 953 1613 
Q 991 1019 1311 708 
Q 1631 397 2203 397 
Q 2534 397 2845 478 
Q 3156 559 3463 722 
L 3463 178 
Q 3153 47 2828 -22 
Q 2503 -91 2169 -91 
Q 1331 -91 842 396 
Q 353 884 353 1716 
Q 353 2575 817 3079 
Q 1281 3584 2069 3584 
Q 2775 3584 3186 3129 
Q 3597 2675 3597 1894 
z
M 3022 2063 
Q 3016 2534 2758 2815 
Q 2500 3097 2075 3097 
Q 1594 3097 1305 2825 
Q 1016 2553 972 2059 
L 3022 2063 
z
" transform="scale(0.015625)"/>
       <path id="DejaVuSans-20" transform="scale(0.015625)"/>
       <path id="DejaVuSans-28" d="M 1984 4856 
Q 1566 4138 1362 3434 
Q 1159 2731 1159 2009 
Q 1159 1288 1364 580 
Q 1569 -128 1984 -844 
L 1484 -844 
Q 1016 -109 783 600 
Q 550 1309 550 2009 
Q 550 2706 781 3412 
Q 1013 4119 1484 4856 
L 1984 4856 
z
" transform="scale(0.015625)"/>
       <path id="DejaVuSans-73" d="M 2834 3397 
L 2834 2853 
Q 2591 2978 2328 3040 
Q 2066 3103 1784 3103 
Q 1356 3103 1142 2972 
Q 928 2841 928 2578 
Q 928 2378 1081 2264 
Q 1234 2150 1697 2047 
L 1894 2003 
Q 2506 1872 2764 1633 
Q 3022 1394 3022 966 
Q 3022 478 2636 193 
Q 2250 -91 1575 -91 
Q 1294 -91 989 -36 
Q 684 19 347 128 
L 347 722 
Q 666 556 975 473 
Q 1284 391 1588 391 
Q 1994 391 2212 530 
Q 2431 669 2431 922 
Q 2431 1156 2273 1281 
Q 2116 1406 1581 1522 
L 1381 1569 
Q 847 1681 609 1914 
Q 372 2147 372 2553 
Q 372 3047 722 3315 
Q 1072 3584 1716 3584 
Q 2034 3584 2315 3537 
Q 2597 3491 2834 3397 
z
" transform="scale(0.015625)"/>
       <path id="DejaVuSans-29" d="M 513 4856 
L 1013 4856 
Q 1481 4119 1714 3412 
Q 1947 2706 1947 2009 
Q 1947 1309 1714 600 
Q 1481 -109 1013 -844 
L 513 -844 
Q 928 -128 1133 580 
Q 1338 1288 1338 2009 
Q 1338 2731 1133 3434 
Q 928 4138 513 4856 
z
" transform="scale(0.015625)"/>
      </defs>
      <use xlink:href="#DejaVuSans-54"/>
      <use xlink:href="#DejaVuSans-69" transform="translate(57.958984 0)"/>
      <use xlink:href="#DejaVuSans-6d" transform="translate(85.742188 0)"/>
      <use xlink:href="#DejaVuSans-65" transform="translate(183.154297 0)"/>
      <use xlink:href="#DejaVuSans-20" transform="translate(244.677734 0)"/>
      <use xlink:href="#DejaVuSans-28" transform="translate(276.464844 0)"/>
      <use xlink:href="#DejaVuSans-73" transform="translate(315.478516 0)"/>
      <use xlink:href="#DejaVuSans-29" transform="translate(367.578125 0)"/>
     </g>
    </g>
   </g>
   <g id="matplotlib.axis_2">
    <g id="ytick_1">
     <g id="line2d_9">
      <defs>
       <path id="mefb738b753" d="M 0 0 
L -3.5 0 
" style="stroke: #000000; stroke-width: 0.8"/>
      </defs>
      <g>
       <use xlink:href="#mefb738b753" x="57.17" y="301.818686" style="stroke: #000000; stroke-width: 0.8"/>
      </g>
     </g>
     <g id="text_10">
      <!-- 0 -->
      <g transform="translate(43.8075 305.617905) scale(0.1 -0.1)">
       <use xlink:href="#DejaVuSans-30"/>
      </g>
     </g>
    </g>
    <g id="ytick_2">
     <g id="line2d_10">
      <g>
       <use xlink:href="#mefb738b753" x="57.17" y="266.881437" style="stroke: #000000; stroke-width: 0.8"/>
      </g>
     </g>
     <g id="text_11">
      <!-- 200 -->
      <g transform="translate(31.0825 270.680655) scale(0.1 -0.1)">
       <use xlink:href="#DejaVuSans-32"/>
       <use xlink:href="#DejaVuSans-30" transform="translate(63.623047 0)"/>
       <use xlink:href="#DejaVuSans-30" transform="translate(127.246094 0)"/>
      </g>
     </g>
    </g>
    <g id="ytick_3">
     <g id="line2d_11">
      <g>
       <use xlink:href="#mefb738b753" x="57.17" y="231.944187" style="stroke: #000000; stroke-width: 0.8"/>
      </g>
     </g>
     <g id="text_12">
      <!-- 400 -->
      <g transform="translate(31.0825 235.743406) scale(0.1 -0.1)">
       <defs>
        <path id="DejaVuSans-34" d="M 2419 4116 
L 825 1625 
L 2419 1625 
L 2419 4116 
z
M 2253 4666 
L 3047 4666 
L 3047 1625 
L 3713 1625 
L 3713 1100 
L 3047 1100 
L 3047 0 
L 2419 0 
L 2419 1100 
L 313 1100 
L 313 1709 
L 2253 4666 
z
" transform="scale(0.015625)"/>
       </defs>
       <use xlink:href="#DejaVuSans-34"/>
       <use xlink:href="#DejaVuSans-30" transform="translate(63.623047 0)"/>
       <use xlink:href="#DejaVuSans-30" transform="translate(127.246094 0)"/>
      </g>
     </g>
    </g>
    <g id="ytick_4">
     <g id="line2d_12">
      <g>
       <use xlink:href="#mefb738b753" x="57.17" y="197.006937" style="stroke: #000000; stroke-width: 0.8"/>
      </g>
     </g>
     <g id="text_13">
      <!-- 600 -->
      <g transform="translate(31.0825 200.806156) scale(0.1 -0.1)">
       <defs>
        <path id="DejaVuSans-36" d="M 2113 2584 
Q 1688 2584 1439 2293 
Q 1191 2003 1191 1497 
Q 1191 994 1439 701 
Q 1688 409 2113 409 
Q 2538 409 2786 701 
Q 3034 994 3034 1497 
Q 3034 2003 2786 2293 
Q 2538 2584 2113 2584 
z
M 3366 4563 
L 3366 3988 
Q 3128 4100 2886 4159 
Q 2644 4219 2406 4219 
Q 1781 4219 1451 3797 
Q 1122 3375 1075 2522 
Q 1259 2794 1537 2939 
Q 1816 3084 2150 3084 
Q 2853 3084 3261 2657 
Q 3669 2231 3669 1497 
Q 3669 778 3244 343 
Q 2819 -91 2113 -91 
Q 1303 -91 875 529 
Q 447 1150 447 2328 
Q 447 3434 972 4092 
Q 1497 4750 2381 4750 
Q 2619 4750 2861 4703 
Q 3103 4656 3366 4563 
z
" transform="scale(0.015625)"/>
       </defs>
       <use xlink:href="#DejaVuSans-36"/>
       <use xlink:href="#DejaVuSans-30" transform="translate(63.623047 0)"/>
       <use xlink:href="#DejaVuSans-30" transform="translate(127.246094 0)"/>
      </g>
     </g>
    </g>
    <g id="ytick_5">
     <g id="line2d_13">
      <g>
       <use xlink:href="#mefb738b753" x="57.17" y="162.069688" style="stroke: #000000; stroke-width: 0.8"/>
      </g>
     </g>
     <g id="text_14">
      <!-- 800 -->
      <g transform="translate(31.0825 165.868906) scale(0.1 -0.1)">
       <defs>
        <path id="DejaVuSans-38" d="M 2034 2216 
Q 1584 2216 1326 1975 
Q 1069 1734 1069 1313 
Q 1069 891 1326 650 
Q 1584 409 2034 409 
Q 2484 409 2743 651 
Q 3003 894 3003 1313 
Q 3003 1734 2745 1975 
Q 2488 2216 2034 2216 
z
M 1403 2484 
Q 997 2584 770 2862 
Q 544 3141 544 3541 
Q 544 4100 942 4425 
Q 1341 4750 2034 4750 
Q 2731 4750 3128 4425 
Q 3525 4100 3525 3541 
Q 3525 3141 3298 2862 
Q 3072 2584 2669 2484 
Q 3125 2378 3379 2068 
Q 3634 1759 3634 1313 
Q 3634 634 3220 271 
Q 2806 -91 2034 -91 
Q 1263 -91 848 271 
Q 434 634 434 1313 
Q 434 1759 690 2068 
Q 947 2378 1403 2484 
z
M 1172 3481 
Q 1172 3119 1398 2916 
Q 1625 2713 2034 2713 
Q 2441 2713 2670 2916 
Q 2900 3119 2900 3481 
Q 2900 3844 2670 4047 
Q 2441 4250 2034 4250 
Q 1625 4250 1398 4047 
Q 1172 3844 1172 3481 
z
" transform="scale(0.015625)"/>
       </defs>
       <use xlink:href="#DejaVuSans-38"/>
       <use xlink:href="#DejaVuSans-30" transform="translate(63.623047 0)"/>
       <use xlink:href="#DejaVuSans-30" transform="translate(127.246094 0)"/>
      </g>
     </g>
    </g>
    <g id="ytick_6">
     <g id="line2d_14">
      <g>
       <use xlink:href="#mefb738b753" x="57.17" y="127.132438" style="stroke: #000000; stroke-width: 0.8"/>
      </g>
     </g>
     <g id="text_15">
      <!-- 1000 -->
      <g transform="translate(24.72 130.931657) scale(0.1 -0.1)">
       <use xlink:href="#DejaVuSans-31"/>
       <use xlink:href="#DejaVuSans-30" transform="translate(63.623047 0)"/>
       <use xlink:href="#DejaVuSans-30" transform="translate(127.246094 0)"/>
       <use xlink:href="#DejaVuSans-30" transform="translate(190.869141 0)"/>
      </g>
     </g>
    </g>
    <g id="ytick_7">
     <g id="line2d_15">
      <g>
       <use xlink:href="#mefb738b753" x="57.17" y="92.195188" style="stroke: #000000; stroke-width: 0.8"/>
      </g>
     </g>
     <g id="text_16">
      <!-- 1200 -->
      <g transform="translate(24.72 95.994407) scale(0.1 -0.1)">
       <use xlink:href="#DejaVuSans-31"/>
       <use xlink:href="#DejaVuSans-32" transform="translate(63.623047 0)"/>
       <use xlink:href="#DejaVuSans-30" transform="translate(127.246094 0)"/>
       <use xlink:href="#DejaVuSans-30" transform="translate(190.869141 0)"/>
      </g>
     </g>
    </g>
    <g id="ytick_8">
     <g id="line2d_16">
      <g>
       <use xlink:href="#mefb738b753" x="57.17" y="57.257939" style="stroke: #000000; stroke-width: 0.8"/>
      </g>
     </g>
     <g id="text_17">
      <!-- 1400 -->
      <g transform="translate(24.72 61.057157) scale(0.1 -0.1)">
       <use xlink:href="#DejaVuSans-31"/>
       <use xlink:href="#DejaVuSans-34" transform="translate(63.623047 0)"/>
       <use xlink:href="#DejaVuSans-30" transform="translate(127.246094 0)"/>
       <use xlink:href="#DejaVuSans-30" transform="translate(190.869141 0)"/>
      </g>
     </g>
    </g>
    <g id="text_18">
     <!-- Signal -->
     <g transform="translate(18.640312 186.163375) rotate(-90) scale(0.1 -0.1)">
      <defs>
       <path id="DejaVuSans-53" d="M 3425 4513 
L 3425 3897 
Q 3066 4069 2747 4153 
Q 2428 4238 2131 4238 
Q 1616 4238 1336 4038 
Q 1056 3838 1056 3469 
Q 1056 3159 1242 3001 
Q 1428 2844 1947 2747 
L 2328 2669 
Q 3034 2534 3370 2195 
Q 3706 1856 3706 1288 
Q 3706 609 3251 259 
Q 2797 -91 1919 -91 
Q 1588 -91 1214 -16 
Q 841 59 441 206 
L 441 856 
Q 825 641 1194 531 
Q 1563 422 1919 422 
Q 2459 422 2753 634 
Q 3047 847 3047 1241 
Q 3047 1584 2836 1778 
Q 2625 1972 2144 2069 
L 1759 2144 
Q 1053 2284 737 2584 
Q 422 2884 422 3419 
Q 422 4038 858 4394 
Q 1294 4750 2059 4750 
Q 2388 4750 2728 4690 
Q 3069 4631 3425 4513 
z
" transform="scale(0.015625)"/>
       <path id="DejaVuSans-67" d="M 2906 1791 
Q 2906 2416 2648 2759 
Q 2391 3103 1925 3103 
Q 1463 3103 1205 2759 
Q 947 2416 947 1791 
Q 947 1169 1205 825 
Q 1463 481 1925 481 
Q 2391 481 2648 825 
Q 2906 1169 2906 1791 
z
M 3481 434 
Q 3481 -459 3084 -895 
Q 2688 -1331 1869 -1331 
Q 1566 -1331 1297 -1286 
Q 1028 -1241 775 -1147 
L 775 -588 
Q 1028 -725 1275 -790 
Q 1522 -856 1778 -856 
Q 2344 -856 2625 -561 
Q 2906 -266 2906 331 
L 2906 616 
Q 2728 306 2450 153 
Q 2172 0 1784 0 
Q 1141 0 747 490 
Q 353 981 353 1791 
Q 353 2603 747 3093 
Q 1141 3584 1784 3584 
Q 2172 3584 2450 3431 
Q 2728 3278 2906 2969 
L 2906 3500 
L 3481 3500 
L 3481 434 
z
" transform="scale(0.015625)"/>
       <path id="DejaVuSans-6e" d="M 3513 2113 
L 3513 0 
L 2938 0 
L 2938 2094 
Q 2938 2591 2744 2837 
Q 2550 3084 2163 3084 
Q 1697 3084 1428 2787 
Q 1159 2491 1159 1978 
L 1159 0 
L 581 0 
L 581 3500 
L 1159 3500 
L 1159 2956 
Q 1366 3272 1645 3428 
Q 1925 3584 2291 3584 
Q 2894 3584 3203 3211 
Q 3513 2838 3513 2113 
z
" transform="scale(0.015625)"/>
       <path id="DejaVuSans-61" d="M 2194 1759 
Q 1497 1759 1228 1600 
Q 959 1441 959 1056 
Q 959 750 1161 570 
Q 1363 391 1709 391 
Q 2188 391 2477 730 
Q 2766 1069 2766 1631 
L 2766 1759 
L 2194 1759 
z
M 3341 1997 
L 3341 0 
L 2766 0 
L 2766 531 
Q 2569 213 2275 61 
Q 1981 -91 1556 -91 
Q 1019 -91 701 211 
Q 384 513 384 1019 
Q 384 1609 779 1909 
Q 1175 2209 1959 2209 
L 2766 2209 
L 2766 2266 
Q 2766 2663 2505 2880 
Q 2244 3097 1772 3097 
Q 1472 3097 1187 3025 
Q 903 2953 641 2809 
L 641 3341 
Q 956 3463 1253 3523 
Q 1550 3584 1831 3584 
Q 2591 3584 2966 3190 
Q 3341 2797 3341 1997 
z
" transform="scale(0.015625)"/>
       <path id="DejaVuSans-6c" d="M 603 4863 
L 1178 4863 
L 1178 0 
L 603 0 
L 603 4863 
z
" transform="scale(0.015625)"/>
      </defs>
      <use xlink:href="#DejaVuSans-53"/>
      <use xlink:href="#DejaVuSans-69" transform="translate(63.476562 0)"/>
      <use xlink:href="#DejaVuSans-67" transform="translate(91.259766 0)"/>
      <use xlink:href="#DejaVuSans-6e" transform="translate(154.736328 0)"/>
      <use xlink:href="#DejaVuSans-61" transform="translate(218.115234 0)"/>
      <use xlink:href="#DejaVuSans-6c" transform="translate(279.394531 0)"/>
     </g>
    </g>
   </g>
   <g id="line2d_17">
    <path d="M 78.950632 214.650248 
L 92.387978 215.174307 
L 96.173152 215.52368 
L 96.477748 215.698366 
L 100.913564 215.873052 
L 108.669188 217.095856 
L 111.471063 217.445228 
L 111.524623 217.619915 
L 112.348121 217.794601 
L 115.207426 218.143973 
L 115.461058 218.31866 
L 115.982934 218.493346 
L 118.788219 218.668032 
L 119.053438 218.842718 
L 120.956516 219.192091 
L 121.334124 219.366777 
L 122.02982 219.541463 
L 122.093313 219.71615 
L 123.511791 219.890836 
L 126.288372 220.938953 
L 127.156243 221.11364 
L 129.547015 221.288326 
L 130.274368 221.463012 
L 130.500632 221.637698 
L 130.951394 221.812385 
L 130.955992 221.987071 
L 131.175247 222.161757 
L 131.731527 222.336443 
L 131.775897 222.51113 
L 132.539723 222.685816 
L 132.62306 222.860502 
L 133.339044 223.209874 
L 133.344091 223.384561 
L 134.859316 223.559247 
L 134.865139 223.733933 
L 135.182619 223.908619 
L 135.365039 224.432678 
L 136.681618 224.607364 
L 136.978147 224.782051 
L 137.146886 225.480796 
L 137.14935 225.655482 
L 137.31032 225.830168 
L 137.861382 226.004854 
L 138.117025 226.528913 
L 139.5361 226.703599 
L 139.881116 226.878286 
L 139.909985 227.052972 
L 140.745376 227.227658 
L 140.977821 227.577031 
L 141.361634 227.751717 
L 142.907041 227.926403 
L 142.967036 228.101089 
L 143.447629 228.275776 
L 143.525386 228.450462 
L 143.992976 228.625148 
L 144.048668 228.799834 
L 144.753602 229.323893 
L 145.405645 229.498579 
L 145.698067 229.847952 
L 146.313072 230.022638 
L 146.326693 230.197324 
L 146.822082 230.721383 
L 147.318995 230.896069 
L 147.453921 231.070756 
L 148.352591 231.594814 
L 148.528738 231.769501 
L 149.158406 231.944187 
L 149.190996 232.118873 
L 150.628595 232.817618 
L 150.849269 232.992304 
L 151.426018 233.166991 
L 151.442191 233.341677 
L 152.51676 233.691049 
L 152.584646 234.040422 
L 153.151385 234.913853 
L 154.486369 235.787284 
L 155.446115 235.961971 
L 155.617452 236.311343 
L 155.925289 236.486029 
L 156.991951 236.835402 
L 158.019184 237.708833 
L 158.023914 237.883519 
L 158.323017 238.232892 
L 158.476192 238.407578 
L 158.840315 238.582264 
L 158.925512 238.756951 
L 160.231481 239.455696 
L 160.875989 240.329127 
L 161.622777 240.503813 
L 162.036619 240.853186 
L 162.051338 241.027872 
L 162.186215 241.202558 
L 162.86238 241.377244 
L 163.121649 241.901303 
L 163.910124 242.075989 
L 164.233376 242.425362 
L 164.480422 242.949421 
L 164.690426 243.124107 
L 165.342651 243.473479 
L 165.640036 243.822852 
L 165.671898 243.997538 
L 166.25713 244.346911 
L 167.338295 244.696283 
L 167.554615 244.870969 
L 168.057679 245.045656 
L 168.333182 245.569714 
L 168.730852 245.919087 
L 168.743398 246.093773 
L 169.261177 246.617832 
L 169.272483 246.792518 
L 170.816335 247.316577 
L 170.983991 247.665949 
L 171.343138 248.190008 
L 172.141407 248.364694 
L 172.698613 248.888753 
L 173.790541 249.063439 
L 174.127453 249.238126 
L 174.230658 249.762184 
L 174.688867 249.93687 
L 175.568372 251.33436 
L 176.718444 251.509047 
L 176.730787 251.683733 
L 177.258577 251.858419 
L 178.447788 252.033105 
L 178.73547 252.207792 
L 179.59435 252.557164 
L 179.918272 252.73185 
L 179.931726 252.906537 
L 180.196511 253.255909 
L 180.281525 253.605282 
L 180.887329 253.954654 
L 181.395635 254.304027 
L 181.693091 254.653399 
L 181.714185 254.828085 
L 181.995424 255.002772 
L 182.043665 255.177458 
L 182.894841 255.52683 
L 183.769239 256.225575 
L 184.334711 256.400262 
L 184.418746 256.574948 
L 184.909524 256.92432 
L 185.084809 257.273693 
L 185.888894 257.623065 
L 186.028834 257.797752 
L 186.888552 258.32181 
L 187.147135 258.496497 
L 187.873118 258.671183 
L 187.898677 258.845869 
L 188.29862 259.195242 
L 189.031956 259.893987 
L 189.111064 260.243359 
L 189.826971 260.767418 
L 190.389166 260.942104 
L 190.605074 261.291477 
L 190.697691 261.815535 
L 190.790045 261.990222 
L 191.309601 262.339594 
L 191.868144 262.688967 
L 192.339668 262.863653 
L 192.467211 263.213025 
L 192.532925 263.387712 
L 192.789446 263.562398 
L 192.816296 263.737084 
L 193.775136 264.086457 
L 193.839533 264.435829 
L 194.1649 264.959888 
L 194.862308 265.30926 
L 195.464095 265.833319 
L 195.466924 266.008005 
L 195.808195 266.182692 
L 195.880821 266.532064 
L 196.1544 266.70675 
L 196.286525 267.056123 
L 196.740536 267.754868 
L 197.59211 268.10424 
L 190.389607 268.10424 
L 190.389607 268.278927 
L 198.357196 268.453613 
L 198.793743 268.802985 
L 198.839915 268.977672 
L 199.063482 269.152358 
L 199.265492 269.851103 
L 199.607072 270.025789 
L 199.678622 270.200475 
L 199.902512 270.375162 
L 200.673752 270.724534 
L 200.940882 271.073907 
L 203.174239 271.947338 
L 203.46181 272.471397 
L 204.001217 272.646083 
L 204.157708 272.995455 
L 204.470012 273.344828 
L 204.496671 273.519514 
L 204.942751 273.6942 
L 205.1711 274.043573 
L 205.706687 274.392945 
L 205.951834 274.917004 
L 206.241628 275.09169 
L 206.54066 275.790435 
L 208.014009 276.314494 
L 208.129691 276.48918 
L 208.424345 276.663866 
L 209.991137 277.187925 
L 210.543346 277.88667 
L 210.970793 278.061356 
L 211.207719 278.585415 
L 211.846101 278.760101 
L 212.694385 279.633533 
L 214.50961 279.982905 
L 217.336611 280.332278 
L 217.639256 280.68165 
L 217.764661 281.205709 
L 217.988835 281.380395 
L 218.065082 281.729768 
L 218.199578 281.904454 
L 219.382542 282.253826 
L 219.612994 282.603199 
L 222.66037 284.000689 
L 224.153536 284.350061 
L 224.421854 284.524748 
L 224.452899 284.699434 
L 225.903157 285.048806 
L 226.229063 285.223493 
L 226.909024 285.398179 
L 227.258126 285.747551 
L 228.012901 286.27161 
L 228.286992 286.446296 
L 228.834963 286.620983 
L 230.191737 286.795669 
L 230.300389 287.145041 
L 231.395877 287.319728 
L 231.420936 287.494414 
L 231.854376 287.6691 
L 231.929265 287.843786 
L 232.184476 288.018473 
L 232.333104 288.367845 
L 232.511333 288.542531 
L 233.753776 289.06659 
L 234.213216 289.241276 
L 234.275513 289.590649 
L 234.440135 289.765335 
L 236.165602 289.940021 
L 236.920171 290.289394 
L 237.788647 290.813453 
L 238.484158 290.988139 
L 238.544105 291.162825 
L 238.758315 291.337511 
L 239.166217 291.512198 
L 239.23646 291.686884 
L 241.563093 292.036256 
L 242.840537 292.210943 
L 243.753444 292.909688 
L 244.918046 293.25906 
L 244.966629 293.433746 
L 246.758768 293.783119 
L 246.863555 293.957805 
L 247.131859 294.132491 
L 248.514509 294.307178 
L 248.52886 294.481864 
L 249.263287 294.65655 
L 249.565844 295.005923 
L 249.57975 295.180609 
L 252.026106 295.879354 
L 252.191382 296.05404 
L 253.76059 296.403413 
L 254.213792 296.578099 
L 257.046525 296.927471 
L 257.309602 297.102158 
L 257.383369 297.45153 
L 258.279703 297.626216 
L 261.124039 297.800903 
L 261.347026 297.975589 
L 264.795535 298.324961 
L 267.314513 298.674334 
L 268.52737 298.84902 
L 268.946822 299.023706 
L 270.493567 299.373079 
L 270.832428 299.547765 
L 274.618874 299.722451 
L 279.425435 300.421196 
L 295.471983 301.119941 
L 300.431182 301.469314 
L 319.273203 301.644 
L 319.273203 301.644 
" clip-path="url(#p68d5967249)" style="fill: none; stroke-dasharray: 1.85,0.8; stroke-dashoffset: 0; stroke: #8000ff; stroke-width: 0.5"/>
   </g>
   <g id="line2d_18">
    <path d="M 71.113864 39.964 
L 81.46774 40.313372 
L 81.832753 40.488059 
L 86.918982 40.662745 
L 88.545736 40.837431 
L 88.78306 41.012117 
L 91.583795 41.186804 
L 92.25341 41.536176 
L 94.363266 41.710862 
L 94.519971 41.885549 
L 95.716528 42.060235 
L 97.036223 42.584294 
L 99.274916 43.108352 
L 99.364374 43.283039 
L 102.14154 43.807097 
L 102.289521 43.981784 
L 103.124098 44.331156 
L 103.354756 44.680529 
L 104.917169 44.855215 
L 105.087112 45.029901 
L 105.561416 45.379274 
L 106.002597 45.903332 
L 106.771518 46.252705 
L 106.93779 46.602077 
L 108.26766 46.95145 
L 109.006964 47.126136 
L 109.24019 47.475509 
L 109.88723 47.824881 
L 110.476905 48.174254 
L 110.869633 48.34894 
L 110.931112 48.698312 
L 111.674027 48.872999 
L 111.926014 49.397057 
L 112.834046 49.571744 
L 113.173656 50.095802 
L 114.235782 50.445175 
L 114.316826 50.619861 
L 115.441349 50.969234 
L 115.460434 51.14392 
L 115.775492 51.318606 
L 115.800639 51.493292 
L 116.655985 51.842665 
L 117.452778 52.54141 
L 117.582744 52.890782 
L 117.661901 53.065469 
L 117.885861 53.240155 
L 118.513313 53.414841 
L 118.536112 53.764214 
L 118.974435 54.113586 
L 118.991966 54.288272 
L 119.463964 54.462959 
L 119.587665 54.812331 
L 119.917365 55.33639 
L 120.641831 55.511076 
L 121.020542 56.559194 
L 122.848808 57.083252 
L 122.956538 57.257939 
L 123.533386 57.432625 
L 123.77729 57.956684 
L 124.17652 58.13137 
L 124.198897 58.306056 
L 124.885336 58.480742 
L 124.955997 58.655429 
L 125.50939 59.004801 
L 126.086951 59.52886 
L 126.246967 59.878232 
L 126.803976 60.052919 
L 126.872057 60.227605 
L 127.103685 60.402291 
L 127.211081 60.751664 
L 127.6483 60.92635 
L 127.787512 61.275722 
L 128.945938 63.371957 
L 129.483367 63.72133 
L 129.575177 64.070702 
L 129.938251 64.245389 
L 129.991294 64.420075 
L 130.464236 64.769447 
L 130.602131 65.11882 
L 130.992713 65.293506 
L 131.207864 65.992251 
L 131.486355 66.51631 
L 131.880614 66.690996 
L 131.954961 66.865682 
L 132.656188 67.215055 
L 132.844347 67.739113 
L 133.263781 68.088486 
L 133.42369 68.437858 
L 134.769632 70.70878 
L 135.111078 70.883466 
L 135.143059 71.058152 
L 135.42022 71.407525 
L 135.477299 71.756897 
L 136.408933 72.455642 
L 136.415377 72.630328 
L 136.924262 72.805015 
L 136.957392 72.979701 
L 137.122569 73.154387 
L 137.443583 73.329073 
L 137.504193 73.50376 
L 137.977277 73.678446 
L 138.092082 74.377191 
L 138.371244 74.551877 
L 138.487194 75.599995 
L 138.688568 75.774681 
L 138.843248 76.473426 
L 139.291104 76.648112 
L 139.481537 76.997485 
L 140.173983 79.792465 
L 140.533533 80.141837 
L 140.71273 80.49121 
L 141.423021 80.840582 
L 141.70949 81.714013 
L 141.853666 82.063386 
L 141.941353 82.412758 
L 142.142949 82.587445 
L 142.19924 82.936817 
L 142.389724 83.111503 
L 142.450647 83.460876 
L 142.761689 83.635562 
L 142.930611 84.159621 
L 143.237454 84.508993 
L 143.30708 84.68368 
L 143.597327 85.033052 
L 143.839596 85.382425 
L 144.361745 85.906483 
L 144.973772 86.954601 
L 145.339003 88.177405 
L 145.674488 88.526777 
L 145.688455 88.701463 
L 146.068031 88.87615 
L 146.704634 90.448326 
L 146.83742 90.623012 
L 147.568161 91.147071 
L 147.87457 91.67113 
L 148.095075 92.195188 
L 148.246999 92.544561 
L 148.324006 93.068619 
L 148.790747 93.942051 
L 148.812986 94.291423 
L 149.06848 94.640796 
L 149.074504 94.815482 
L 149.288495 95.164854 
L 149.465517 95.339541 
L 149.540082 96.038286 
L 149.704495 96.387658 
L 149.768823 96.562344 
L 150.013415 96.911717 
L 150.148296 97.435776 
L 150.2791 97.785148 
L 150.449118 98.309207 
L 150.643326 99.182638 
L 151.057437 99.706697 
L 151.154214 100.230756 
L 151.486141 100.405442 
L 151.533143 100.929501 
L 151.897032 101.453559 
L 152.231706 102.152304 
L 152.50032 102.501677 
L 153.021902 104.248539 
L 153.237683 104.597912 
L 153.428789 105.296657 
L 153.577131 105.820716 
L 153.819972 106.344774 
L 153.861221 106.694147 
L 154.35809 107.043519 
L 154.719588 107.742264 
L 154.857844 108.266323 
L 155.011843 108.441009 
L 155.127417 108.965068 
L 155.27061 109.838499 
L 155.4539 110.187872 
L 155.71181 110.711931 
L 155.831037 111.061303 
L 156.409226 113.332224 
L 156.629551 113.856283 
L 156.938696 114.555028 
L 157.254926 114.729714 
L 157.540649 115.603146 
L 158.338911 116.301891 
L 158.352595 116.476577 
L 158.645635 116.651263 
L 158.847049 117.350008 
L 158.995764 117.699381 
L 159.117269 118.223439 
L 159.27642 118.572812 
L 159.572617 118.747498 
L 159.693973 119.271557 
L 159.954174 119.446243 
L 160.047003 120.144988 
L 160.177791 120.49436 
L 160.353503 121.193105 
L 160.741711 122.765282 
L 160.767185 122.939968 
L 160.949553 123.114654 
L 161.036526 123.638713 
L 161.230638 124.162772 
L 161.52484 125.036203 
L 161.587886 125.560262 
L 161.734341 126.08432 
L 161.750222 126.259007 
L 162.044138 126.783065 
L 162.280734 127.656497 
L 162.90146 128.8793 
L 163.449381 129.053987 
L 163.615452 129.752732 
L 163.975811 131.150222 
L 164.165004 131.499594 
L 164.43113 131.67428 
L 164.854177 132.897084 
L 165.302202 133.421143 
L 165.326738 133.595829 
L 165.548048 133.770515 
L 165.844505 134.993319 
L 166.535625 136.041437 
L 166.594765 136.565495 
L 166.958155 137.089554 
L 167.234664 138.137672 
L 167.343275 138.487044 
L 167.358734 138.66173 
L 167.577857 138.836417 
L 167.641264 139.360475 
L 168.167271 140.233907 
L 168.967909 140.583279 
L 169.509111 141.806083 
L 169.669224 142.155455 
L 169.927957 143.028887 
L 170.084569 143.552945 
L 170.365228 143.902318 
L 170.51227 144.25169 
L 170.764334 144.601063 
L 171.032304 144.950435 
L 171.696643 145.998553 
L 172.343541 146.522611 
L 172.490787 147.221356 
L 172.749739 148.44416 
L 173.021159 148.793533 
L 173.336495 149.666964 
L 173.701638 150.365709 
L 173.926698 150.540395 
L 173.982517 150.889768 
L 168.018442 150.889768 
L 168.018442 151.064454 
L 174.10902 151.23914 
L 174.134482 151.588513 
L 174.281446 151.937885 
L 174.312461 152.287258 
L 174.518801 152.63663 
L 174.547443 152.811316 
L 174.787586 153.160689 
L 174.846115 153.510061 
L 175.369868 154.558179 
L 175.724983 154.907551 
L 175.830785 155.256924 
L 176.943499 159.100021 
L 177.125324 159.274708 
L 177.220987 160.148139 
L 177.725803 160.497511 
L 177.896909 160.672198 
L 178.026204 161.545629 
L 178.117112 161.895001 
L 178.525155 162.069688 
L 178.737034 162.41906 
L 179.06889 162.943119 
L 179.222958 163.292491 
L 179.42774 163.467178 
L 179.534127 163.991236 
L 179.793875 164.165923 
L 180.006183 164.689981 
L 180.162713 165.21404 
L 180.279755 165.738099 
L 180.398841 166.087471 
L 180.69906 166.262158 
L 180.85192 166.960903 
L 181.032519 167.310275 
L 181.426532 167.659648 
L 181.783775 168.882451 
L 182.023714 169.231824 
L 182.144474 169.755883 
L 182.153444 169.930569 
L 180.571462 170.105255 
L 182.290794 170.279941 
L 182.305685 170.629314 
L 182.501697 170.978686 
L 182.751027 171.677431 
L 182.819439 172.026804 
L 182.956983 172.376176 
L 183.157534 172.900235 
L 183.362066 173.424294 
L 183.487989 173.948352 
L 183.882784 174.99647 
L 183.921861 175.171156 
L 184.080687 175.345842 
L 184.403897 175.520529 
L 184.441778 175.869901 
L 184.661082 176.044587 
L 184.730581 176.39396 
L 185.090236 176.568646 
L 186.171949 178.490195 
L 186.293181 178.839567 
L 186.590549 179.014254 
L 186.645398 179.18894 
L 186.894347 179.538312 
L 187.073864 179.712999 
L 187.107288 180.237057 
L 187.243026 180.58643 
L 187.577212 181.285175 
L 188.266972 183.730782 
L 188.483671 183.905469 
L 188.556238 184.429527 
L 188.754176 184.7789 
L 188.904651 185.652331 
L 189.475668 186.001704 
L 189.587125 186.17639 
L 189.857296 186.351076 
L 189.940412 186.875135 
L 189.997061 187.748566 
L 190.113168 188.097939 
L 190.26696 188.621997 
L 190.308437 188.796684 
L 190.499704 188.97137 
L 190.555891 189.670115 
L 190.759561 190.019487 
L 191.004686 191.067605 
L 191.266459 191.416977 
L 192.335796 195.95882 
L 192.566233 196.308192 
L 192.998977 197.705682 
L 193.289999 197.880368 
L 193.38743 198.229741 
L 193.612443 198.404427 
L 193.742544 199.277858 
L 193.866994 199.627231 
L 194.050352 200.500662 
L 194.199528 200.850035 
L 194.223721 201.199407 
L 194.63945 201.374093 
L 194.651502 201.54878 
L 195.195817 202.422211 
L 195.208041 202.596897 
L 195.386117 202.771583 
L 195.485814 203.120956 
L 195.630139 203.470328 
L 195.66751 203.645015 
L 195.847374 203.819701 
L 195.847501 203.994387 
L 195.994398 204.34376 
L 196.06127 204.867818 
L 196.329358 205.217191 
L 196.448362 205.566563 
L 196.841939 206.090622 
L 196.934652 206.439995 
L 197.270976 206.614681 
L 197.282854 206.789367 
L 197.600489 207.313426 
L 197.805042 207.837485 
L 198.003581 208.885602 
L 198.107701 209.060288 
L 198.360187 209.234975 
L 198.701924 210.283092 
L 198.999484 210.807151 
L 199.041799 211.156523 
L 199.530499 211.505896 
L 199.86894 211.680582 
L 199.873365 211.855268 
L 200.041771 212.204641 
L 200.135098 212.903386 
L 200.30631 213.252758 
L 200.471616 213.776817 
L 200.702475 213.951503 
L 200.756204 214.300876 
L 201.071566 214.475562 
L 201.117308 214.824935 
L 201.597985 215.348993 
L 202.026804 215.873052 
L 202.292609 216.222425 
L 202.30582 216.397111 
L 202.559738 216.746483 
L 202.726679 217.095856 
L 202.888849 217.619915 
L 203.19543 217.794601 
L 203.365028 218.31866 
L 203.708204 219.017405 
L 203.757732 219.192091 
L 204.070485 219.541463 
L 204.320338 221.288326 
L 204.55673 221.637698 
L 205.242324 221.987071 
L 205.244685 222.161757 
L 205.541135 222.51113 
L 205.858137 224.083306 
L 206.104326 225.131423 
L 206.988459 226.528913 
L 207.387505 226.878286 
L 207.463449 227.052972 
L 207.991271 227.227658 
L 208.17084 227.751717 
L 208.35667 228.101089 
L 208.428528 228.450462 
L 208.778697 228.799834 
L 209.372496 229.498579 
L 209.465548 229.847952 
L 210.150344 230.721383 
L 210.172487 230.896069 
L 210.586788 231.070756 
L 210.928981 231.944187 
L 210.403701 232.118873 
L 211.019829 232.293559 
L 211.077059 232.642932 
L 211.306066 232.817618 
L 211.43071 233.516363 
L 211.59555 233.691049 
L 211.687509 234.564481 
L 212.013971 234.913853 
L 212.100042 235.088539 
L 212.726118 235.437912 
L 212.891333 235.612598 
L 213.668851 235.961971 
L 213.874415 236.486029 
L 214.409233 237.708833 
L 214.711835 237.883519 
L 214.81086 238.407578 
L 214.968986 239.106323 
L 215.217742 239.630382 
L 215.336575 239.805068 
L 216.048152 240.329127 
L 216.107713 240.503813 
L 216.395104 240.678499 
L 216.487665 241.027872 
L 216.732171 241.202558 
L 216.784979 241.377244 
L 216.992307 241.551931 
L 217.530541 241.726617 
L 217.898857 242.949421 
L 217.772953 243.124107 
L 218.450887 243.648166 
L 218.478736 243.822852 
L 218.73254 243.997538 
L 218.739729 244.172224 
L 219.246983 245.045656 
L 219.249318 245.220342 
L 219.548116 245.569714 
L 219.691111 245.919087 
L 220.202923 246.617832 
L 220.39575 247.316577 
L 220.754039 247.491263 
L 220.838521 248.190008 
L 221.082938 248.539381 
L 221.106113 248.714067 
L 221.480967 249.063439 
L 222.043855 249.762184 
L 222.804614 250.460929 
L 222.996147 251.159674 
L 223.04834 251.509047 
L 223.263501 251.683733 
L 223.316647 252.033105 
L 223.494257 252.207792 
L 224.080409 252.382478 
L 224.092994 252.557164 
L 224.312284 252.73185 
L 224.404848 253.255909 
L 224.610559 253.605282 
L 224.636032 253.779968 
L 225.358638 254.653399 
L 225.621881 255.352144 
L 226.384009 255.701517 
L 226.891625 256.749634 
L 227.362098 256.92432 
L 227.581297 257.623065 
L 228.042113 257.797752 
L 228.101528 258.147124 
L 228.378024 258.496497 
L 228.648448 258.845869 
L 229.194645 260.068673 
L 229.492017 260.243359 
L 229.81333 261.291477 
L 229.922097 261.990222 
L 230.401695 262.164908 
L 230.690904 263.387712 
L 231.082896 263.737084 
L 231.113563 263.91177 
L 231.410836 264.086457 
L 231.583514 264.610515 
L 232.031653 264.785202 
L 232.260094 265.30926 
L 232.51467 265.483947 
L 232.527489 265.658633 
L 232.828162 265.833319 
L 233.191383 266.70675 
L 233.608514 267.056123 
L 234.16617 268.453613 
L 234.608124 268.802985 
L 235.223657 269.50173 
L 235.296774 269.676417 
L 235.729903 269.851103 
L 235.831994 270.200475 
L 236.377485 270.375162 
L 236.595054 270.89922 
L 237.143581 271.248593 
L 238.024962 272.29671 
L 239.260051 272.995455 
L 239.484574 273.344828 
L 240.136375 273.519514 
L 240.170007 273.6942 
L 240.341408 273.868887 
L 241.08787 274.218259 
L 241.091013 274.392945 
L 241.408165 274.567632 
L 241.459515 274.742318 
L 242.415463 275.615749 
L 243.055415 276.663866 
L 243.455646 276.838553 
L 243.460663 277.013239 
L 243.84694 277.362611 
L 244.550359 277.88667 
L 245.849201 278.410729 
L 246.090956 278.585415 
L 246.247507 278.934788 
L 246.736179 279.28416 
L 246.832736 279.633533 
L 247.729188 280.332278 
L 247.85097 280.506964 
L 248.358956 280.68165 
L 248.372437 280.856336 
L 248.568088 281.031023 
L 249.012378 281.205709 
L 249.045121 281.380395 
L 249.645233 281.555081 
L 249.939128 281.904454 
L 249.979906 282.07914 
L 250.349671 282.428513 
L 251.398059 282.603199 
L 251.620092 282.777885 
L 252.074919 282.952571 
L 252.989462 284.000689 
L 253.505672 284.175375 
L 253.575587 284.524748 
L 256.207088 285.398179 
L 256.24207 285.572865 
L 256.750721 285.747551 
L 256.751865 285.922238 
L 257.892726 286.620983 
L 258.033725 286.795669 
L 258.555431 286.970355 
L 258.593483 287.145041 
L 259.071069 287.319728 
L 259.223106 287.494414 
L 259.605908 287.6691 
L 259.659285 287.843786 
L 259.83026 288.018473 
L 259.842112 288.193159 
L 261.009294 288.542531 
L 261.717735 289.06659 
L 262.265368 289.241276 
L 263.989791 289.415963 
L 264.61926 289.765335 
L 265.483151 290.289394 
L 266.086179 290.46408 
L 266.446117 290.988139 
L 267.354457 291.162825 
L 267.431912 291.512198 
L 268.214532 291.86157 
L 268.302902 292.036256 
L 268.960938 292.210943 
L 269.507294 292.735001 
L 269.582979 292.909688 
L 270.214981 293.084374 
L 270.237982 293.25906 
L 270.568373 293.608433 
L 270.855378 293.957805 
L 270.941788 294.132491 
L 271.752131 294.65655 
L 271.955906 294.831236 
L 274.934127 295.005923 
L 275.391267 295.355295 
L 275.883286 295.529981 
L 275.934997 295.704668 
L 276.42186 295.879354 
L 277.482261 296.05404 
L 277.485973 296.228726 
L 278.05818 296.403413 
L 279.371757 296.578099 
L 280.856154 297.102158 
L 282.836688 297.626216 
L 283.073867 297.800903 
L 284.474482 298.150275 
L 285.02709 298.324961 
L 292.044456 299.023706 
L 293.128901 299.198393 
L 295.103558 299.373079 
L 301.436854 299.547765 
L 302.181996 299.722451 
L 305.374534 300.071824 
L 314.39191 300.595883 
L 318.815483 301.119941 
L 329.774031 301.294628 
L 330.08509 301.469314 
L 349.991143 301.644 
L 349.991143 301.644 
" clip-path="url(#p68d5967249)" style="fill: none; stroke-dasharray: 1.85,0.8; stroke-dashoffset: 0; stroke: #ff0000; stroke-width: 0.5"/>
   </g>
   <g id="patch_3">
    <path d="M 57.17 314.728 
L 57.17 26.88 
" style="fill: none; stroke: #000000; stroke-width: 0.8; stroke-linejoin: miter; stroke-linecap: square"/>
   </g>
   <g id="patch_4">
    <path d="M 363.935007 314.728 
L 363.935007 26.88 
" style="fill: none; stroke: #000000; stroke-width: 0.8; stroke-linejoin: miter; stroke-linecap: square"/>
   </g>
   <g id="patch_5">
    <path d="M 57.17 314.728 
L 363.935007 314.728 
" style="fill: none; stroke: #000000; stroke-width: 0.8; stroke-linejoin: miter; stroke-linecap: square"/>
   </g>
   <g id="patch_6">
    <path d="M 57.17 26.88 
L 363.935007 26.88 
" style="fill: none; stroke: #000000; stroke-width: 0.8; stroke-linejoin: miter; stroke-linecap: square"/>
   </g>
   <g id="text_19">
    <!-- Unnormalized -->
    <g transform="translate(169.018441 20.88) scale(0.12 -0.12)">
     <defs>
      <path id="DejaVuSans-55" d="M 556 4666 
L 1191 4666 
L 1191 1831 
Q 1191 1081 1462 751 
Q 1734 422 2344 422 
Q 2950 422 3222 751 
Q 3494 1081 3494 1831 
L 3494 4666 
L 4128 4666 
L 4128 1753 
Q 4128 841 3676 375 
Q 3225 -91 2344 -91 
Q 1459 -91 1007 375 
Q 556 841 556 1753 
L 556 4666 
z
" transform="scale(0.015625)"/>
      <path id="DejaVuSans-6f" d="M 1959 3097 
Q 1497 3097 1228 2736 
Q 959 2375 959 1747 
Q 959 1119 1226 758 
Q 1494 397 1959 397 
Q 2419 397 2687 759 
Q 2956 1122 2956 1747 
Q 2956 2369 2687 2733 
Q 2419 3097 1959 3097 
z
M 1959 3584 
Q 2709 3584 3137 3096 
Q 3566 2609 3566 1747 
Q 3566 888 3137 398 
Q 2709 -91 1959 -91 
Q 1206 -91 779 398 
Q 353 888 353 1747 
Q 353 2609 779 3096 
Q 1206 3584 1959 3584 
z
" transform="scale(0.015625)"/>
      <path id="DejaVuSans-72" d="M 2631 2963 
Q 2534 3019 2420 3045 
Q 2306 3072 2169 3072 
Q 1681 3072 1420 2755 
Q 1159 2438 1159 1844 
L 1159 0 
L 581 0 
L 581 3500 
L 1159 3500 
L 1159 2956 
Q 1341 3275 1631 3429 
Q 1922 3584 2338 3584 
Q 2397 3584 2469 3576 
Q 2541 3569 2628 3553 
L 2631 2963 
z
" transform="scale(0.015625)"/>
      <path id="DejaVuSans-7a" d="M 353 3500 
L 3084 3500 
L 3084 2975 
L 922 459 
L 3084 459 
L 3084 0 
L 275 0 
L 275 525 
L 2438 3041 
L 353 3041 
L 353 3500 
z
" transform="scale(0.015625)"/>
      <path id="DejaVuSans-64" d="M 2906 2969 
L 2906 4863 
L 3481 4863 
L 3481 0 
L 2906 0 
L 2906 525 
Q 2725 213 2448 61 
Q 2172 -91 1784 -91 
Q 1150 -91 751 415 
Q 353 922 353 1747 
Q 353 2572 751 3078 
Q 1150 3584 1784 3584 
Q 2172 3584 2448 3432 
Q 2725 3281 2906 2969 
z
M 947 1747 
Q 947 1113 1208 752 
Q 1469 391 1925 391 
Q 2381 391 2643 752 
Q 2906 1113 2906 1747 
Q 2906 2381 2643 2742 
Q 2381 3103 1925 3103 
Q 1469 3103 1208 2742 
Q 947 2381 947 1747 
z
" transform="scale(0.015625)"/>
     </defs>
     <use xlink:href="#DejaVuSans-55"/>
     <use xlink:href="#DejaVuSans-6e" transform="translate(73.193359 0)"/>
     <use xlink:href="#DejaVuSans-6e" transform="translate(136.572266 0)"/>
     <use xlink:href="#DejaVuSans-6f" transform="translate(199.951172 0)"/>
     <use xlink:href="#DejaVuSans-72" transform="translate(261.132812 0)"/>
     <use xlink:href="#DejaVuSans-6d" transform="translate(300.496094 0)"/>
     <use xlink:href="#DejaVuSans-61" transform="translate(397.908203 0)"/>
     <use xlink:href="#DejaVuSans-6c" transform="translate(459.1875 0)"/>
     <use xlink:href="#DejaVuSans-69" transform="translate(486.970703 0)"/>
     <use xlink:href="#DejaVuSans-7a" transform="translate(514.753906 0)"/>
     <use xlink:href="#DejaVuSans-65" transform="translate(567.244141 0)"/>
     <use xlink:href="#DejaVuSans-64" transform="translate(628.767578 0)"/>
    </g>
   </g>
   <g id="legend_1">
    <g id="patch_7">
     <path d="M 268.566257 64.23625 
L 356.935007 64.23625 
Q 358.935007 64.23625 358.935007 62.23625 
L 358.935007 33.88 
Q 358.935007 31.88 356.935007 31.88 
L 268.566257 31.88 
Q 266.566257 31.88 266.566257 33.88 
L 266.566257 62.23625 
Q 266.566257 64.23625 268.566257 64.23625 
z
" style="fill: #ffffff; opacity: 0.8; stroke: #cccccc; stroke-linejoin: miter"/>
    </g>
    <g id="line2d_19">
     <path d="M 270.566257 39.978438 
L 280.566257 39.978438 
L 290.566257 39.978438 
" style="fill: none; stroke-dasharray: 1.85,0.8; stroke-dashoffset: 0; stroke: #8000ff; stroke-width: 0.5"/>
    </g>
    <g id="text_20">
     <!-- rho'=1e-05 -->
     <g transform="translate(298.566257 43.478438) scale(0.1 -0.1)">
      <defs>
       <path id="DejaVuSans-68" d="M 3513 2113 
L 3513 0 
L 2938 0 
L 2938 2094 
Q 2938 2591 2744 2837 
Q 2550 3084 2163 3084 
Q 1697 3084 1428 2787 
Q 1159 2491 1159 1978 
L 1159 0 
L 581 0 
L 581 4863 
L 1159 4863 
L 1159 2956 
Q 1366 3272 1645 3428 
Q 1925 3584 2291 3584 
Q 2894 3584 3203 3211 
Q 3513 2838 3513 2113 
z
" transform="scale(0.015625)"/>
       <path id="DejaVuSans-27" d="M 1147 4666 
L 1147 2931 
L 616 2931 
L 616 4666 
L 1147 4666 
z
" transform="scale(0.015625)"/>
       <path id="DejaVuSans-3d" d="M 678 2906 
L 4684 2906 
L 4684 2381 
L 678 2381 
L 678 2906 
z
M 678 1631 
L 4684 1631 
L 4684 1100 
L 678 1100 
L 678 1631 
z
" transform="scale(0.015625)"/>
       <path id="DejaVuSans-2d" d="M 313 2009 
L 1997 2009 
L 1997 1497 
L 313 1497 
L 313 2009 
z
" transform="scale(0.015625)"/>
      </defs>
      <use xlink:href="#DejaVuSans-72"/>
      <use xlink:href="#DejaVuSans-68" transform="translate(39.363281 0)"/>
      <use xlink:href="#DejaVuSans-6f" transform="translate(102.742188 0)"/>
      <use xlink:href="#DejaVuSans-27" transform="translate(163.923828 0)"/>
      <use xlink:href="#DejaVuSans-3d" transform="translate(191.414062 0)"/>
      <use xlink:href="#DejaVuSans-31" transform="translate(275.203125 0)"/>
      <use xlink:href="#DejaVuSans-65" transform="translate(338.826172 0)"/>
      <use xlink:href="#DejaVuSans-2d" transform="translate(400.349609 0)"/>
      <use xlink:href="#DejaVuSans-30" transform="translate(436.433594 0)"/>
      <use xlink:href="#DejaVuSans-35" transform="translate(500.056641 0)"/>
     </g>
    </g>
    <g id="line2d_20">
     <path d="M 270.566257 54.656563 
L 280.566257 54.656563 
L 290.566257 54.656563 
" style="fill: none; stroke-dasharray: 1.85,0.8; stroke-dashoffset: 0; stroke: #ff0000; stroke-width: 0.5"/>
    </g>
    <g id="text_21">
     <!-- rho'=1e-05 -->
     <g transform="translate(298.566257 58.156563) scale(0.1 -0.1)">
      <use xlink:href="#DejaVuSans-72"/>
      <use xlink:href="#DejaVuSans-68" transform="translate(39.363281 0)"/>
      <use xlink:href="#DejaVuSans-6f" transform="translate(102.742188 0)"/>
      <use xlink:href="#DejaVuSans-27" transform="translate(163.923828 0)"/>
      <use xlink:href="#DejaVuSans-3d" transform="translate(191.414062 0)"/>
      <use xlink:href="#DejaVuSans-31" transform="translate(275.203125 0)"/>
      <use xlink:href="#DejaVuSans-65" transform="translate(338.826172 0)"/>
      <use xlink:href="#DejaVuSans-2d" transform="translate(400.349609 0)"/>
      <use xlink:href="#DejaVuSans-30" transform="translate(436.433594 0)"/>
      <use xlink:href="#DejaVuSans-35" transform="translate(500.056641 0)"/>
     </g>
    </g>
   </g>
  </g>
  <g id="axes_2">
   <g id="patch_8">
    <path d="M 402.434993 314.728 
L 709.2 314.728 
L 709.2 26.88 
L 402.434993 26.88 
z
" style="fill: #ffffff"/>
   </g>
   <g id="matplotlib.axis_3">
    <g id="xtick_9">
     <g id="line2d_21">
      <g>
       <use xlink:href="#m53ddad97b3" x="416.378857" y="314.728" style="stroke: #000000; stroke-width: 0.8"/>
      </g>
     </g>
     <g id="text_22">
      <!-- 0.0 -->
      <g transform="translate(408.427295 329.326437) scale(0.1 -0.1)">
       <defs>
        <path id="DejaVuSans-2e" d="M 684 794 
L 1344 794 
L 1344 0 
L 684 0 
L 684 794 
z
" transform="scale(0.015625)"/>
       </defs>
       <use xlink:href="#DejaVuSans-30"/>
       <use xlink:href="#DejaVuSans-2e" transform="translate(63.623047 0)"/>
       <use xlink:href="#DejaVuSans-30" transform="translate(95.410156 0)"/>
      </g>
     </g>
    </g>
    <g id="xtick_10">
     <g id="line2d_22">
      <g>
       <use xlink:href="#m53ddad97b3" x="470.211547" y="314.728" style="stroke: #000000; stroke-width: 0.8"/>
      </g>
     </g>
     <g id="text_23">
      <!-- 0.2 -->
      <g transform="translate(462.259984 329.326437) scale(0.1 -0.1)">
       <use xlink:href="#DejaVuSans-30"/>
       <use xlink:href="#DejaVuSans-2e" transform="translate(63.623047 0)"/>
       <use xlink:href="#DejaVuSans-32" transform="translate(95.410156 0)"/>
      </g>
     </g>
    </g>
    <g id="xtick_11">
     <g id="line2d_23">
      <g>
       <use xlink:href="#m53ddad97b3" x="524.044236" y="314.728" style="stroke: #000000; stroke-width: 0.8"/>
      </g>
     </g>
     <g id="text_24">
      <!-- 0.4 -->
      <g transform="translate(516.092674 329.326437) scale(0.1 -0.1)">
       <use xlink:href="#DejaVuSans-30"/>
       <use xlink:href="#DejaVuSans-2e" transform="translate(63.623047 0)"/>
       <use xlink:href="#DejaVuSans-34" transform="translate(95.410156 0)"/>
      </g>
     </g>
    </g>
    <g id="xtick_12">
     <g id="line2d_24">
      <g>
       <use xlink:href="#m53ddad97b3" x="577.876926" y="314.728" style="stroke: #000000; stroke-width: 0.8"/>
      </g>
     </g>
     <g id="text_25">
      <!-- 0.6 -->
      <g transform="translate(569.925363 329.326437) scale(0.1 -0.1)">
       <use xlink:href="#DejaVuSans-30"/>
       <use xlink:href="#DejaVuSans-2e" transform="translate(63.623047 0)"/>
       <use xlink:href="#DejaVuSans-36" transform="translate(95.410156 0)"/>
      </g>
     </g>
    </g>
    <g id="xtick_13">
     <g id="line2d_25">
      <g>
       <use xlink:href="#m53ddad97b3" x="631.709615" y="314.728" style="stroke: #000000; stroke-width: 0.8"/>
      </g>
     </g>
     <g id="text_26">
      <!-- 0.8 -->
      <g transform="translate(623.758053 329.326437) scale(0.1 -0.1)">
       <use xlink:href="#DejaVuSans-30"/>
       <use xlink:href="#DejaVuSans-2e" transform="translate(63.623047 0)"/>
       <use xlink:href="#DejaVuSans-38" transform="translate(95.410156 0)"/>
      </g>
     </g>
    </g>
    <g id="xtick_14">
     <g id="line2d_26">
      <g>
       <use xlink:href="#m53ddad97b3" x="685.542305" y="314.728" style="stroke: #000000; stroke-width: 0.8"/>
      </g>
     </g>
     <g id="text_27">
      <!-- 1.0 -->
      <g transform="translate(677.590742 329.326437) scale(0.1 -0.1)">
       <use xlink:href="#DejaVuSans-31"/>
       <use xlink:href="#DejaVuSans-2e" transform="translate(63.623047 0)"/>
       <use xlink:href="#DejaVuSans-30" transform="translate(95.410156 0)"/>
      </g>
     </g>
    </g>
    <g id="text_28">
     <!-- 1e29 -->
     <g transform="translate(683.959375 342.004562) scale(0.1 -0.1)">
      <use xlink:href="#DejaVuSans-31"/>
      <use xlink:href="#DejaVuSans-65" transform="translate(63.623047 0)"/>
      <use xlink:href="#DejaVuSans-32" transform="translate(125.146484 0)"/>
      <use xlink:href="#DejaVuSans-39" transform="translate(188.769531 0)"/>
     </g>
    </g>
   </g>
   <g id="matplotlib.axis_4">
    <g id="ytick_9">
     <g id="line2d_27">
      <g>
       <use xlink:href="#mefb738b753" x="402.434993" y="301.648647" style="stroke: #000000; stroke-width: 0.8"/>
      </g>
     </g>
     <g id="text_29">
      <!-- 0.0 -->
      <g transform="translate(379.531868 305.447866) scale(0.1 -0.1)">
       <use xlink:href="#DejaVuSans-30"/>
       <use xlink:href="#DejaVuSans-2e" transform="translate(63.623047 0)"/>
       <use xlink:href="#DejaVuSans-30" transform="translate(95.410156 0)"/>
      </g>
     </g>
    </g>
    <g id="ytick_10">
     <g id="line2d_28">
      <g>
       <use xlink:href="#mefb738b753" x="402.434993" y="249.311718" style="stroke: #000000; stroke-width: 0.8"/>
      </g>
     </g>
     <g id="text_30">
      <!-- 0.2 -->
      <g transform="translate(379.531868 253.110937) scale(0.1 -0.1)">
       <use xlink:href="#DejaVuSans-30"/>
       <use xlink:href="#DejaVuSans-2e" transform="translate(63.623047 0)"/>
       <use xlink:href="#DejaVuSans-32" transform="translate(95.410156 0)"/>
      </g>
     </g>
    </g>
    <g id="ytick_11">
     <g id="line2d_29">
      <g>
       <use xlink:href="#mefb738b753" x="402.434993" y="196.974788" style="stroke: #000000; stroke-width: 0.8"/>
      </g>
     </g>
     <g id="text_31">
      <!-- 0.4 -->
      <g transform="translate(379.531868 200.774007) scale(0.1 -0.1)">
       <use xlink:href="#DejaVuSans-30"/>
       <use xlink:href="#DejaVuSans-2e" transform="translate(63.623047 0)"/>
       <use xlink:href="#DejaVuSans-34" transform="translate(95.410156 0)"/>
      </g>
     </g>
    </g>
    <g id="ytick_12">
     <g id="line2d_30">
      <g>
       <use xlink:href="#mefb738b753" x="402.434993" y="144.637859" style="stroke: #000000; stroke-width: 0.8"/>
      </g>
     </g>
     <g id="text_32">
      <!-- 0.6 -->
      <g transform="translate(379.531868 148.437078) scale(0.1 -0.1)">
       <use xlink:href="#DejaVuSans-30"/>
       <use xlink:href="#DejaVuSans-2e" transform="translate(63.623047 0)"/>
       <use xlink:href="#DejaVuSans-36" transform="translate(95.410156 0)"/>
      </g>
     </g>
    </g>
    <g id="ytick_13">
     <g id="line2d_31">
      <g>
       <use xlink:href="#mefb738b753" x="402.434993" y="92.300929" style="stroke: #000000; stroke-width: 0.8"/>
      </g>
     </g>
     <g id="text_33">
      <!-- 0.8 -->
      <g transform="translate(379.531868 96.100148) scale(0.1 -0.1)">
       <use xlink:href="#DejaVuSans-30"/>
       <use xlink:href="#DejaVuSans-2e" transform="translate(63.623047 0)"/>
       <use xlink:href="#DejaVuSans-38" transform="translate(95.410156 0)"/>
      </g>
     </g>
    </g>
    <g id="ytick_14">
     <g id="line2d_32">
      <g>
       <use xlink:href="#mefb738b753" x="402.434993" y="39.964" style="stroke: #000000; stroke-width: 0.8"/>
      </g>
     </g>
     <g id="text_34">
      <!-- 1.0 -->
      <g transform="translate(379.531868 43.763219) scale(0.1 -0.1)">
       <use xlink:href="#DejaVuSans-31"/>
       <use xlink:href="#DejaVuSans-2e" transform="translate(63.623047 0)"/>
       <use xlink:href="#DejaVuSans-30" transform="translate(95.410156 0)"/>
      </g>
     </g>
    </g>
   </g>
   <g id="line2d_33">
    <path d="M 416.378857 39.964 
L 416.382029 301.124229 
L 416.382029 301.124229 
" clip-path="url(#pf0e914a482)" style="fill: none; stroke-dasharray: 1.85,0.8; stroke-dashoffset: 0; stroke: #8000ff; stroke-width: 0.5"/>
   </g>
   <g id="line2d_34">
    <path d="M 416.378857 39.964 
L 416.382029 301.529979 
L 416.382029 301.529979 
" clip-path="url(#pf0e914a482)" style="fill: none; stroke-dasharray: 1.85,0.8; stroke-dashoffset: 0; stroke: #000000; stroke-width: 0.5"/>
   </g>
   <g id="line2d_35">
    <path d="M 416.378857 39.964 
L 416.381534 300.950356 
L 416.553258 301.299502 
L 695.256136 301.474075 
L 695.256136 301.474075 
" clip-path="url(#pf0e914a482)" style="fill: none; stroke-dasharray: 1.85,0.8; stroke-dashoffset: 0; stroke: #ff0000; stroke-width: 0.5"/>
   </g>
   <g id="line2d_36">
    <path d="M 416.378857 39.964 
L 416.381534 301.524828 
L 416.553258 301.607315 
L 695.256136 301.644 
L 695.256136 301.644 
" clip-path="url(#pf0e914a482)" style="fill: none; stroke-dasharray: 1.85,0.8; stroke-dashoffset: 0; stroke: #000000; stroke-width: 0.5"/>
   </g>
   <g id="patch_9">
    <path d="M 402.434993 314.728 
L 402.434993 26.88 
" style="fill: none; stroke: #000000; stroke-width: 0.8; stroke-linejoin: miter; stroke-linecap: square"/>
   </g>
   <g id="patch_10">
    <path d="M 709.2 314.728 
L 709.2 26.88 
" style="fill: none; stroke: #000000; stroke-width: 0.8; stroke-linejoin: miter; stroke-linecap: square"/>
   </g>
   <g id="patch_11">
    <path d="M 402.434993 314.728 
L 709.2 314.728 
" style="fill: none; stroke: #000000; stroke-width: 0.8; stroke-linejoin: miter; stroke-linecap: square"/>
   </g>
   <g id="patch_12">
    <path d="M 402.434993 26.88 
L 709.2 26.88 
" style="fill: none; stroke: #000000; stroke-width: 0.8; stroke-linejoin: miter; stroke-linecap: square"/>
   </g>
  </g>
 </g>
 <defs>
  <clipPath id="p68d5967249">
   <rect x="57.17" y="26.88" width="306.765007" height="287.848"/>
  </clipPath>
  <clipPath id="pf0e914a482">
   <rect x="402.434993" y="26.88" width="306.765007" height="287.848"/>
  </clipPath>
 </defs>
</svg>
