<?xml version="1.0" encoding="utf-8" standalone="no"?>
<!DOCTYPE svg PUBLIC "-//W3C//DTD SVG 1.1//EN"
  "http://www.w3.org/Graphics/SVG/1.1/DTD/svg11.dtd">
<svg xmlns:xlink="http://www.w3.org/1999/xlink" width="460.8pt" height="345.6pt" viewBox="0 0 460.8 345.6" xmlns="http://www.w3.org/2000/svg" version="1.1">
 <metadata>
  <rdf:RDF xmlns:dc="http://purl.org/dc/elements/1.1/" xmlns:cc="http://creativecommons.org/ns#" xmlns:rdf="http://www.w3.org/1999/02/22-rdf-syntax-ns#">
   <cc:Work>
    <dc:type rdf:resource="http://purl.org/dc/dcmitype/StillImage"/>
    <dc:date>2025-02-26T14:30:33.208522</dc:date>
    <dc:format>image/svg+xml</dc:format>
    <dc:creator>
     <cc:Agent>
      <dc:title>Matplotlib v3.10.0, https://matplotlib.org/</dc:title>
     </cc:Agent>
    </dc:creator>
   </cc:Work>
  </rdf:RDF>
 </metadata>
 <defs>
  <style type="text/css">*{stroke-linejoin: round; stroke-linecap: butt}</style>
 </defs>
 <g id="figure_1">
  <g id="patch_1">
   <path d="M 0 345.6 
L 460.8 345.6 
L 460.8 0 
L 0 0 
z
" style="fill: #ffffff"/>
  </g>
  <g id="axes_1">
   <g id="patch_2">
    <path d="M 57.6 307.584 
L 414.72 307.584 
L 414.72 41.472 
L 57.6 41.472 
z
" style="fill: #ffffff"/>
   </g>
   <g id="matplotlib.axis_1">
    <g id="xtick_1">
     <g id="line2d_1">
      <defs>
       <path id="m0cb51cc7ab" d="M 0 0 
L 0 3.5 
" style="stroke: #000000; stroke-width: 0.8"/>
      </defs>
      <g>
       <use xlink:href="#m0cb51cc7ab" x="73.832727" y="307.584" style="stroke: #000000; stroke-width: 0.8"/>
      </g>
     </g>
     <g id="text_1">
      <!-- 0 -->
      <g transform="translate(70.651477 322.182437) scale(0.1 -0.1)">
       <defs>
        <path id="DejaVuSans-30" d="M 2034 4250 
Q 1547 4250 1301 3770 
Q 1056 3291 1056 2328 
Q 1056 1369 1301 889 
Q 1547 409 2034 409 
Q 2525 409 2770 889 
Q 3016 1369 3016 2328 
Q 3016 3291 2770 3770 
Q 2525 4250 2034 4250 
z
M 2034 4750 
Q 2819 4750 3233 4129 
Q 3647 3509 3647 2328 
Q 3647 1150 3233 529 
Q 2819 -91 2034 -91 
Q 1250 -91 836 529 
Q 422 1150 422 2328 
Q 422 3509 836 4129 
Q 1250 4750 2034 4750 
z
" transform="scale(0.015625)"/>
       </defs>
       <use xlink:href="#DejaVuSans-30"/>
      </g>
     </g>
    </g>
    <g id="xtick_2">
     <g id="line2d_2">
      <g>
       <use xlink:href="#m0cb51cc7ab" x="138.763636" y="307.584" style="stroke: #000000; stroke-width: 0.8"/>
      </g>
     </g>
     <g id="text_2">
      <!-- 200 -->
      <g transform="translate(129.219886 322.182437) scale(0.1 -0.1)">
       <defs>
        <path id="DejaVuSans-32" d="M 1228 531 
L 3431 531 
L 3431 0 
L 469 0 
L 469 531 
Q 828 903 1448 1529 
Q 2069 2156 2228 2338 
Q 2531 2678 2651 2914 
Q 2772 3150 2772 3378 
Q 2772 3750 2511 3984 
Q 2250 4219 1831 4219 
Q 1534 4219 1204 4116 
Q 875 4013 500 3803 
L 500 4441 
Q 881 4594 1212 4672 
Q 1544 4750 1819 4750 
Q 2544 4750 2975 4387 
Q 3406 4025 3406 3419 
Q 3406 3131 3298 2873 
Q 3191 2616 2906 2266 
Q 2828 2175 2409 1742 
Q 1991 1309 1228 531 
z
" transform="scale(0.015625)"/>
       </defs>
       <use xlink:href="#DejaVuSans-32"/>
       <use xlink:href="#DejaVuSans-30" transform="translate(63.623047 0)"/>
       <use xlink:href="#DejaVuSans-30" transform="translate(127.246094 0)"/>
      </g>
     </g>
    </g>
    <g id="xtick_3">
     <g id="line2d_3">
      <g>
       <use xlink:href="#m0cb51cc7ab" x="203.694545" y="307.584" style="stroke: #000000; stroke-width: 0.8"/>
      </g>
     </g>
     <g id="text_3">
      <!-- 400 -->
      <g transform="translate(194.150795 322.182437) scale(0.1 -0.1)">
       <defs>
        <path id="DejaVuSans-34" d="M 2419 4116 
L 825 1625 
L 2419 1625 
L 2419 4116 
z
M 2253 4666 
L 3047 4666 
L 3047 1625 
L 3713 1625 
L 3713 1100 
L 3047 1100 
L 3047 0 
L 2419 0 
L 2419 1100 
L 313 1100 
L 313 1709 
L 2253 4666 
z
" transform="scale(0.015625)"/>
       </defs>
       <use xlink:href="#DejaVuSans-34"/>
       <use xlink:href="#DejaVuSans-30" transform="translate(63.623047 0)"/>
       <use xlink:href="#DejaVuSans-30" transform="translate(127.246094 0)"/>
      </g>
     </g>
    </g>
    <g id="xtick_4">
     <g id="line2d_4">
      <g>
       <use xlink:href="#m0cb51cc7ab" x="268.625455" y="307.584" style="stroke: #000000; stroke-width: 0.8"/>
      </g>
     </g>
     <g id="text_4">
      <!-- 600 -->
      <g transform="translate(259.081705 322.182437) scale(0.1 -0.1)">
       <defs>
        <path id="DejaVuSans-36" d="M 2113 2584 
Q 1688 2584 1439 2293 
Q 1191 2003 1191 1497 
Q 1191 994 1439 701 
Q 1688 409 2113 409 
Q 2538 409 2786 701 
Q 3034 994 3034 1497 
Q 3034 2003 2786 2293 
Q 2538 2584 2113 2584 
z
M 3366 4563 
L 3366 3988 
Q 3128 4100 2886 4159 
Q 2644 4219 2406 4219 
Q 1781 4219 1451 3797 
Q 1122 3375 1075 2522 
Q 1259 2794 1537 2939 
Q 1816 3084 2150 3084 
Q 2853 3084 3261 2657 
Q 3669 2231 3669 1497 
Q 3669 778 3244 343 
Q 2819 -91 2113 -91 
Q 1303 -91 875 529 
Q 447 1150 447 2328 
Q 447 3434 972 4092 
Q 1497 4750 2381 4750 
Q 2619 4750 2861 4703 
Q 3103 4656 3366 4563 
z
" transform="scale(0.015625)"/>
       </defs>
       <use xlink:href="#DejaVuSans-36"/>
       <use xlink:href="#DejaVuSans-30" transform="translate(63.623047 0)"/>
       <use xlink:href="#DejaVuSans-30" transform="translate(127.246094 0)"/>
      </g>
     </g>
    </g>
    <g id="xtick_5">
     <g id="line2d_5">
      <g>
       <use xlink:href="#m0cb51cc7ab" x="333.556364" y="307.584" style="stroke: #000000; stroke-width: 0.8"/>
      </g>
     </g>
     <g id="text_5">
      <!-- 800 -->
      <g transform="translate(324.012614 322.182437) scale(0.1 -0.1)">
       <defs>
        <path id="DejaVuSans-38" d="M 2034 2216 
Q 1584 2216 1326 1975 
Q 1069 1734 1069 1313 
Q 1069 891 1326 650 
Q 1584 409 2034 409 
Q 2484 409 2743 651 
Q 3003 894 3003 1313 
Q 3003 1734 2745 1975 
Q 2488 2216 2034 2216 
z
M 1403 2484 
Q 997 2584 770 2862 
Q 544 3141 544 3541 
Q 544 4100 942 4425 
Q 1341 4750 2034 4750 
Q 2731 4750 3128 4425 
Q 3525 4100 3525 3541 
Q 3525 3141 3298 2862 
Q 3072 2584 2669 2484 
Q 3125 2378 3379 2068 
Q 3634 1759 3634 1313 
Q 3634 634 3220 271 
Q 2806 -91 2034 -91 
Q 1263 -91 848 271 
Q 434 634 434 1313 
Q 434 1759 690 2068 
Q 947 2378 1403 2484 
z
M 1172 3481 
Q 1172 3119 1398 2916 
Q 1625 2713 2034 2713 
Q 2441 2713 2670 2916 
Q 2900 3119 2900 3481 
Q 2900 3844 2670 4047 
Q 2441 4250 2034 4250 
Q 1625 4250 1398 4047 
Q 1172 3844 1172 3481 
z
" transform="scale(0.015625)"/>
       </defs>
       <use xlink:href="#DejaVuSans-38"/>
       <use xlink:href="#DejaVuSans-30" transform="translate(63.623047 0)"/>
       <use xlink:href="#DejaVuSans-30" transform="translate(127.246094 0)"/>
      </g>
     </g>
    </g>
    <g id="xtick_6">
     <g id="line2d_6">
      <g>
       <use xlink:href="#m0cb51cc7ab" x="398.487273" y="307.584" style="stroke: #000000; stroke-width: 0.8"/>
      </g>
     </g>
     <g id="text_6">
      <!-- 1000 -->
      <g transform="translate(385.762273 322.182437) scale(0.1 -0.1)">
       <defs>
        <path id="DejaVuSans-31" d="M 794 531 
L 1825 531 
L 1825 4091 
L 703 3866 
L 703 4441 
L 1819 4666 
L 2450 4666 
L 2450 531 
L 3481 531 
L 3481 0 
L 794 0 
L 794 531 
z
" transform="scale(0.015625)"/>
       </defs>
       <use xlink:href="#DejaVuSans-31"/>
       <use xlink:href="#DejaVuSans-30" transform="translate(63.623047 0)"/>
       <use xlink:href="#DejaVuSans-30" transform="translate(127.246094 0)"/>
       <use xlink:href="#DejaVuSans-30" transform="translate(190.869141 0)"/>
      </g>
     </g>
    </g>
    <g id="text_7">
     <!-- Temperature ($^{\circ}C$) -->
     <g transform="translate(192.16 335.862125) scale(0.1 -0.1)">
      <defs>
       <path id="DejaVuSans-54" d="M -19 4666 
L 3928 4666 
L 3928 4134 
L 2272 4134 
L 2272 0 
L 1638 0 
L 1638 4134 
L -19 4134 
L -19 4666 
z
" transform="scale(0.015625)"/>
       <path id="DejaVuSans-65" d="M 3597 1894 
L 3597 1613 
L 953 1613 
Q 991 1019 1311 708 
Q 1631 397 2203 397 
Q 2534 397 2845 478 
Q 3156 559 3463 722 
L 3463 178 
Q 3153 47 2828 -22 
Q 2503 -91 2169 -91 
Q 1331 -91 842 396 
Q 353 884 353 1716 
Q 353 2575 817 3079 
Q 1281 3584 2069 3584 
Q 2775 3584 3186 3129 
Q 3597 2675 3597 1894 
z
M 3022 2063 
Q 3016 2534 2758 2815 
Q 2500 3097 2075 3097 
Q 1594 3097 1305 2825 
Q 1016 2553 972 2059 
L 3022 2063 
z
" transform="scale(0.015625)"/>
       <path id="DejaVuSans-6d" d="M 3328 2828 
Q 3544 3216 3844 3400 
Q 4144 3584 4550 3584 
Q 5097 3584 5394 3201 
Q 5691 2819 5691 2113 
L 5691 0 
L 5113 0 
L 5113 2094 
Q 5113 2597 4934 2840 
Q 4756 3084 4391 3084 
Q 3944 3084 3684 2787 
Q 3425 2491 3425 1978 
L 3425 0 
L 2847 0 
L 2847 2094 
Q 2847 2600 2669 2842 
Q 2491 3084 2119 3084 
Q 1678 3084 1418 2786 
Q 1159 2488 1159 1978 
L 1159 0 
L 581 0 
L 581 3500 
L 1159 3500 
L 1159 2956 
Q 1356 3278 1631 3431 
Q 1906 3584 2284 3584 
Q 2666 3584 2933 3390 
Q 3200 3197 3328 2828 
z
" transform="scale(0.015625)"/>
       <path id="DejaVuSans-70" d="M 1159 525 
L 1159 -1331 
L 581 -1331 
L 581 3500 
L 1159 3500 
L 1159 2969 
Q 1341 3281 1617 3432 
Q 1894 3584 2278 3584 
Q 2916 3584 3314 3078 
Q 3713 2572 3713 1747 
Q 3713 922 3314 415 
Q 2916 -91 2278 -91 
Q 1894 -91 1617 61 
Q 1341 213 1159 525 
z
M 3116 1747 
Q 3116 2381 2855 2742 
Q 2594 3103 2138 3103 
Q 1681 3103 1420 2742 
Q 1159 2381 1159 1747 
Q 1159 1113 1420 752 
Q 1681 391 2138 391 
Q 2594 391 2855 752 
Q 3116 1113 3116 1747 
z
" transform="scale(0.015625)"/>
       <path id="DejaVuSans-72" d="M 2631 2963 
Q 2534 3019 2420 3045 
Q 2306 3072 2169 3072 
Q 1681 3072 1420 2755 
Q 1159 2438 1159 1844 
L 1159 0 
L 581 0 
L 581 3500 
L 1159 3500 
L 1159 2956 
Q 1341 3275 1631 3429 
Q 1922 3584 2338 3584 
Q 2397 3584 2469 3576 
Q 2541 3569 2628 3553 
L 2631 2963 
z
" transform="scale(0.015625)"/>
       <path id="DejaVuSans-61" d="M 2194 1759 
Q 1497 1759 1228 1600 
Q 959 1441 959 1056 
Q 959 750 1161 570 
Q 1363 391 1709 391 
Q 2188 391 2477 730 
Q 2766 1069 2766 1631 
L 2766 1759 
L 2194 1759 
z
M 3341 1997 
L 3341 0 
L 2766 0 
L 2766 531 
Q 2569 213 2275 61 
Q 1981 -91 1556 -91 
Q 1019 -91 701 211 
Q 384 513 384 1019 
Q 384 1609 779 1909 
Q 1175 2209 1959 2209 
L 2766 2209 
L 2766 2266 
Q 2766 2663 2505 2880 
Q 2244 3097 1772 3097 
Q 1472 3097 1187 3025 
Q 903 2953 641 2809 
L 641 3341 
Q 956 3463 1253 3523 
Q 1550 3584 1831 3584 
Q 2591 3584 2966 3190 
Q 3341 2797 3341 1997 
z
" transform="scale(0.015625)"/>
       <path id="DejaVuSans-74" d="M 1172 4494 
L 1172 3500 
L 2356 3500 
L 2356 3053 
L 1172 3053 
L 1172 1153 
Q 1172 725 1289 603 
Q 1406 481 1766 481 
L 2356 481 
L 2356 0 
L 1766 0 
Q 1100 0 847 248 
Q 594 497 594 1153 
L 594 3053 
L 172 3053 
L 172 3500 
L 594 3500 
L 594 4494 
L 1172 4494 
z
" transform="scale(0.015625)"/>
       <path id="DejaVuSans-75" d="M 544 1381 
L 544 3500 
L 1119 3500 
L 1119 1403 
Q 1119 906 1312 657 
Q 1506 409 1894 409 
Q 2359 409 2629 706 
Q 2900 1003 2900 1516 
L 2900 3500 
L 3475 3500 
L 3475 0 
L 2900 0 
L 2900 538 
Q 2691 219 2414 64 
Q 2138 -91 1772 -91 
Q 1169 -91 856 284 
Q 544 659 544 1381 
z
M 1991 3584 
L 1991 3584 
z
" transform="scale(0.015625)"/>
       <path id="DejaVuSans-20" transform="scale(0.015625)"/>
       <path id="DejaVuSans-28" d="M 1984 4856 
Q 1566 4138 1362 3434 
Q 1159 2731 1159 2009 
Q 1159 1288 1364 580 
Q 1569 -128 1984 -844 
L 1484 -844 
Q 1016 -109 783 600 
Q 550 1309 550 2009 
Q 550 2706 781 3412 
Q 1013 4119 1484 4856 
L 1984 4856 
z
" transform="scale(0.015625)"/>
       <path id="DejaVuSans-2218" d="M 2000 2619 
Q 1750 2619 1578 2445 
Q 1406 2272 1406 2022 
Q 1406 1775 1578 1605 
Q 1750 1435 2000 1435 
Q 2250 1435 2422 1605 
Q 2594 1775 2594 2022 
Q 2594 2269 2420 2444 
Q 2247 2619 2000 2619 
z
M 2000 3022 
Q 2200 3022 2384 2945 
Q 2569 2869 2703 2725 
Q 2847 2585 2919 2406 
Q 2991 2228 2991 2022 
Q 2991 1610 2702 1324 
Q 2413 1038 1994 1038 
Q 1572 1038 1290 1319 
Q 1009 1600 1009 2022 
Q 1009 2441 1296 2731 
Q 1584 3022 2000 3022 
z
" transform="scale(0.015625)"/>
       <path id="DejaVuSans-Oblique-43" d="M 4447 4306 
L 4319 3641 
Q 4019 3944 3683 4091 
Q 3347 4238 2956 4238 
Q 2422 4238 2017 3981 
Q 1613 3725 1319 3200 
Q 1131 2863 1032 2486 
Q 934 2109 934 1728 
Q 934 1091 1264 756 
Q 1594 422 2222 422 
Q 2656 422 3056 561 
Q 3456 700 3834 978 
L 3688 231 
Q 3316 72 2936 -9 
Q 2556 -91 2175 -91 
Q 1278 -91 773 396 
Q 269 884 269 1753 
Q 269 2309 461 2846 
Q 653 3384 1013 3828 
Q 1394 4300 1883 4525 
Q 2372 4750 3022 4750 
Q 3422 4750 3780 4639 
Q 4138 4528 4447 4306 
z
" transform="scale(0.015625)"/>
       <path id="DejaVuSans-29" d="M 513 4856 
L 1013 4856 
Q 1481 4119 1714 3412 
Q 1947 2706 1947 2009 
Q 1947 1309 1714 600 
Q 1481 -109 1013 -844 
L 513 -844 
Q 928 -128 1133 580 
Q 1338 1288 1338 2009 
Q 1338 2731 1133 3434 
Q 928 4138 513 4856 
z
" transform="scale(0.015625)"/>
      </defs>
      <use xlink:href="#DejaVuSans-54" transform="translate(0 0.125)"/>
      <use xlink:href="#DejaVuSans-65" transform="translate(61.083984 0.125)"/>
      <use xlink:href="#DejaVuSans-6d" transform="translate(122.607422 0.125)"/>
      <use xlink:href="#DejaVuSans-70" transform="translate(220.019531 0.125)"/>
      <use xlink:href="#DejaVuSans-65" transform="translate(283.496094 0.125)"/>
      <use xlink:href="#DejaVuSans-72" transform="translate(345.019531 0.125)"/>
      <use xlink:href="#DejaVuSans-61" transform="translate(386.132812 0.125)"/>
      <use xlink:href="#DejaVuSans-74" transform="translate(447.412109 0.125)"/>
      <use xlink:href="#DejaVuSans-75" transform="translate(486.621094 0.125)"/>
      <use xlink:href="#DejaVuSans-72" transform="translate(550 0.125)"/>
      <use xlink:href="#DejaVuSans-65" transform="translate(591.113281 0.125)"/>
      <use xlink:href="#DejaVuSans-20" transform="translate(652.636719 0.125)"/>
      <use xlink:href="#DejaVuSans-28" transform="translate(684.423828 0.125)"/>
      <use xlink:href="#DejaVuSans-2218" transform="translate(724.394531 38.40625) scale(0.7)"/>
      <use xlink:href="#DejaVuSans-Oblique-43" transform="translate(770.947266 0.125)"/>
      <use xlink:href="#DejaVuSans-29" transform="translate(840.771484 0.125)"/>
     </g>
    </g>
   </g>
   <g id="matplotlib.axis_2">
    <g id="ytick_1">
     <g id="line2d_7">
      <defs>
       <path id="mf30649c9ec" d="M 0 0 
L -3.5 0 
" style="stroke: #000000; stroke-width: 0.8"/>
      </defs>
      <g>
       <use xlink:href="#mf30649c9ec" x="57.6" y="295.488" style="stroke: #000000; stroke-width: 0.8"/>
      </g>
     </g>
     <g id="text_8">
      <!-- 0.0 -->
      <g transform="translate(34.696875 299.287219) scale(0.1 -0.1)">
       <defs>
        <path id="DejaVuSans-2e" d="M 684 794 
L 1344 794 
L 1344 0 
L 684 0 
L 684 794 
z
" transform="scale(0.015625)"/>
       </defs>
       <use xlink:href="#DejaVuSans-30"/>
       <use xlink:href="#DejaVuSans-2e" transform="translate(63.623047 0)"/>
       <use xlink:href="#DejaVuSans-30" transform="translate(95.410156 0)"/>
      </g>
     </g>
    </g>
    <g id="ytick_2">
     <g id="line2d_8">
      <g>
       <use xlink:href="#mf30649c9ec" x="57.6" y="238.022933" style="stroke: #000000; stroke-width: 0.8"/>
      </g>
     </g>
     <g id="text_9">
      <!-- 0.5 -->
      <g transform="translate(34.696875 241.822152) scale(0.1 -0.1)">
       <defs>
        <path id="DejaVuSans-35" d="M 691 4666 
L 3169 4666 
L 3169 4134 
L 1269 4134 
L 1269 2991 
Q 1406 3038 1543 3061 
Q 1681 3084 1819 3084 
Q 2600 3084 3056 2656 
Q 3513 2228 3513 1497 
Q 3513 744 3044 326 
Q 2575 -91 1722 -91 
Q 1428 -91 1123 -41 
Q 819 9 494 109 
L 494 744 
Q 775 591 1075 516 
Q 1375 441 1709 441 
Q 2250 441 2565 725 
Q 2881 1009 2881 1497 
Q 2881 1984 2565 2268 
Q 2250 2553 1709 2553 
Q 1456 2553 1204 2497 
Q 953 2441 691 2322 
L 691 4666 
z
" transform="scale(0.015625)"/>
       </defs>
       <use xlink:href="#DejaVuSans-30"/>
       <use xlink:href="#DejaVuSans-2e" transform="translate(63.623047 0)"/>
       <use xlink:href="#DejaVuSans-35" transform="translate(95.410156 0)"/>
      </g>
     </g>
    </g>
    <g id="ytick_3">
     <g id="line2d_9">
      <g>
       <use xlink:href="#mf30649c9ec" x="57.6" y="180.557867" style="stroke: #000000; stroke-width: 0.8"/>
      </g>
     </g>
     <g id="text_10">
      <!-- 1.0 -->
      <g transform="translate(34.696875 184.357086) scale(0.1 -0.1)">
       <use xlink:href="#DejaVuSans-31"/>
       <use xlink:href="#DejaVuSans-2e" transform="translate(63.623047 0)"/>
       <use xlink:href="#DejaVuSans-30" transform="translate(95.410156 0)"/>
      </g>
     </g>
    </g>
    <g id="ytick_4">
     <g id="line2d_10">
      <g>
       <use xlink:href="#mf30649c9ec" x="57.6" y="123.0928" style="stroke: #000000; stroke-width: 0.8"/>
      </g>
     </g>
     <g id="text_11">
      <!-- 1.5 -->
      <g transform="translate(34.696875 126.892019) scale(0.1 -0.1)">
       <use xlink:href="#DejaVuSans-31"/>
       <use xlink:href="#DejaVuSans-2e" transform="translate(63.623047 0)"/>
       <use xlink:href="#DejaVuSans-35" transform="translate(95.410156 0)"/>
      </g>
     </g>
    </g>
    <g id="ytick_5">
     <g id="line2d_11">
      <g>
       <use xlink:href="#mf30649c9ec" x="57.6" y="65.627734" style="stroke: #000000; stroke-width: 0.8"/>
      </g>
     </g>
     <g id="text_12">
      <!-- 2.0 -->
      <g transform="translate(34.696875 69.426953) scale(0.1 -0.1)">
       <use xlink:href="#DejaVuSans-32"/>
       <use xlink:href="#DejaVuSans-2e" transform="translate(63.623047 0)"/>
       <use xlink:href="#DejaVuSans-30" transform="translate(95.410156 0)"/>
      </g>
     </g>
    </g>
    <g id="text_13">
     <!-- Intensity ($^{\circ}C^{-1}$) -->
     <g transform="translate(28.596875 213.328) rotate(-90) scale(0.1 -0.1)">
      <defs>
       <path id="DejaVuSans-49" d="M 628 4666 
L 1259 4666 
L 1259 0 
L 628 0 
L 628 4666 
z
" transform="scale(0.015625)"/>
       <path id="DejaVuSans-6e" d="M 3513 2113 
L 3513 0 
L 2938 0 
L 2938 2094 
Q 2938 2591 2744 2837 
Q 2550 3084 2163 3084 
Q 1697 3084 1428 2787 
Q 1159 2491 1159 1978 
L 1159 0 
L 581 0 
L 581 3500 
L 1159 3500 
L 1159 2956 
Q 1366 3272 1645 3428 
Q 1925 3584 2291 3584 
Q 2894 3584 3203 3211 
Q 3513 2838 3513 2113 
z
" transform="scale(0.015625)"/>
       <path id="DejaVuSans-73" d="M 2834 3397 
L 2834 2853 
Q 2591 2978 2328 3040 
Q 2066 3103 1784 3103 
Q 1356 3103 1142 2972 
Q 928 2841 928 2578 
Q 928 2378 1081 2264 
Q 1234 2150 1697 2047 
L 1894 2003 
Q 2506 1872 2764 1633 
Q 3022 1394 3022 966 
Q 3022 478 2636 193 
Q 2250 -91 1575 -91 
Q 1294 -91 989 -36 
Q 684 19 347 128 
L 347 722 
Q 666 556 975 473 
Q 1284 391 1588 391 
Q 1994 391 2212 530 
Q 2431 669 2431 922 
Q 2431 1156 2273 1281 
Q 2116 1406 1581 1522 
L 1381 1569 
Q 847 1681 609 1914 
Q 372 2147 372 2553 
Q 372 3047 722 3315 
Q 1072 3584 1716 3584 
Q 2034 3584 2315 3537 
Q 2597 3491 2834 3397 
z
" transform="scale(0.015625)"/>
       <path id="DejaVuSans-69" d="M 603 3500 
L 1178 3500 
L 1178 0 
L 603 0 
L 603 3500 
z
M 603 4863 
L 1178 4863 
L 1178 4134 
L 603 4134 
L 603 4863 
z
" transform="scale(0.015625)"/>
       <path id="DejaVuSans-79" d="M 2059 -325 
Q 1816 -950 1584 -1140 
Q 1353 -1331 966 -1331 
L 506 -1331 
L 506 -850 
L 844 -850 
Q 1081 -850 1212 -737 
Q 1344 -625 1503 -206 
L 1606 56 
L 191 3500 
L 800 3500 
L 1894 763 
L 2988 3500 
L 3597 3500 
L 2059 -325 
z
" transform="scale(0.015625)"/>
       <path id="DejaVuSans-2212" d="M 678 2272 
L 4684 2272 
L 4684 1741 
L 678 1741 
L 678 2272 
z
" transform="scale(0.015625)"/>
      </defs>
      <use xlink:href="#DejaVuSans-49" transform="translate(0 0.684375)"/>
      <use xlink:href="#DejaVuSans-6e" transform="translate(29.492188 0.684375)"/>
      <use xlink:href="#DejaVuSans-74" transform="translate(92.871094 0.684375)"/>
      <use xlink:href="#DejaVuSans-65" transform="translate(132.080078 0.684375)"/>
      <use xlink:href="#DejaVuSans-6e" transform="translate(193.603516 0.684375)"/>
      <use xlink:href="#DejaVuSans-73" transform="translate(256.982422 0.684375)"/>
      <use xlink:href="#DejaVuSans-69" transform="translate(309.082031 0.684375)"/>
      <use xlink:href="#DejaVuSans-74" transform="translate(336.865234 0.684375)"/>
      <use xlink:href="#DejaVuSans-79" transform="translate(376.074219 0.684375)"/>
      <use xlink:href="#DejaVuSans-20" transform="translate(435.253906 0.684375)"/>
      <use xlink:href="#DejaVuSans-28" transform="translate(467.041016 0.684375)"/>
      <use xlink:href="#DejaVuSans-2218" transform="translate(507.011719 38.965625) scale(0.7)"/>
      <use xlink:href="#DejaVuSans-Oblique-43" transform="translate(553.564453 0.684375)"/>
      <use xlink:href="#DejaVuSans-2212" transform="translate(630.589193 38.965625) scale(0.7)"/>
      <use xlink:href="#DejaVuSans-31" transform="translate(689.241536 38.965625) scale(0.7)"/>
      <use xlink:href="#DejaVuSans-29" transform="translate(736.512044 0.684375)"/>
     </g>
    </g>
    <g id="text_14">
     <!-- 1e6 -->
     <g transform="translate(57.6 38.472) scale(0.1 -0.1)">
      <use xlink:href="#DejaVuSans-31"/>
      <use xlink:href="#DejaVuSans-65" transform="translate(63.623047 0)"/>
      <use xlink:href="#DejaVuSans-36" transform="translate(125.146484 0)"/>
     </g>
    </g>
   </g>
   <g id="line2d_12">
    <path d="M 73.832727 295.488 
L 104.690338 295.377552 
L 113.460396 294.8714 
L 117.683016 294.178831 
L 118.657467 293.916215 
L 119.144692 293.81864 
L 120.44396 293.385698 
L 121.093594 293.175376 
L 124.179355 291.679675 
L 127.102708 289.629092 
L 127.589933 289.169256 
L 128.726792 288.032597 
L 129.214018 287.580692 
L 129.863652 286.719635 
L 130.02606 286.64539 
L 133.27423 281.784191 
L 134.248681 280.030357 
L 135.223132 278.078728 
L 135.710357 276.89966 
L 135.872765 276.658077 
L 136.359991 275.42752 
L 139.120935 268.172785 
L 140.095386 265.155869 
L 140.582611 263.57604 
L 141.719471 259.658876 
L 142.369105 257.446701 
L 143.018738 254.845027 
L 143.343555 253.587002 
L 143.993189 251.187261 
L 145.942091 243.128475 
L 146.266908 241.671505 
L 149.839894 225.185353 
L 150.32712 222.828365 
L 150.651937 221.238307 
L 151.463979 217.158402 
L 152.43843 212.349955 
L 154.874557 200.18529 
L 155.6866 195.869779 
L 157.79791 185.134959 
L 158.285135 182.649021 
L 158.772361 180.151014 
L 159.259586 177.750583 
L 161.533305 166.543172 
L 161.858122 164.732907 
L 162.345347 162.572795 
L 162.994981 159.326019 
L 164.456657 152.060021 
L 164.619066 151.574441 
L 164.943883 149.938985 
L 165.106291 149.439614 
L 165.431108 147.531429 
L 165.593517 147.136644 
L 169.328912 130.260418 
L 170.140954 127.046512 
L 170.465771 125.574027 
L 170.62818 125.034315 
L 170.952996 123.485172 
L 171.115405 123.096363 
L 171.765039 120.082206 
L 171.927447 119.740978 
L 172.252264 118.463759 
L 176.312476 103.148859 
L 176.474885 102.803609 
L 177.124519 100.153206 
L 177.286927 99.980466 
L 179.560646 92.696653 
L 179.885463 91.801118 
L 180.21028 90.90179 
L 180.372688 90.369203 
L 180.535097 89.418731 
L 180.697505 89.202318 
L 181.022322 88.375165 
L 181.184731 88.024743 
L 181.347139 87.328956 
L 181.509548 87.237702 
L 181.996773 85.558917 
L 182.483998 84.129072 
L 182.646407 84.136427 
L 182.971224 82.861622 
L 183.296041 82.023782 
L 184.270492 79.705066 
L 184.920126 78.001572 
L 185.244942 77.38704 
L 185.407351 76.613675 
L 185.569759 76.643212 
L 186.54421 74.288294 
L 186.706619 74.129231 
L 187.356253 72.73283 
L 187.518661 72.137951 
L 187.843478 71.747763 
L 188.168295 70.948884 
L 188.330704 70.786718 
L 189.79238 67.87186 
L 189.954788 67.856919 
L 190.279605 67.13941 
L 190.442014 66.731523 
L 190.604422 66.723363 
L 190.766831 66.029185 
L 190.929239 66.089063 
L 191.578873 65.231225 
L 191.741282 64.590949 
L 192.228507 64.039514 
L 192.390915 63.489229 
L 192.715732 63.451991 
L 193.040549 62.963998 
L 193.202958 62.373257 
L 193.527775 62.279474 
L 194.989451 60.356118 
L 195.314268 60.27107 
L 195.476677 59.948116 
L 195.639085 59.891801 
L 195.801493 59.508739 
L 195.963902 59.441734 
L 196.12631 59.05327 
L 196.288719 59.206013 
L 196.775944 58.23968 
L 196.938353 58.255885 
L 197.100761 58.126704 
L 197.26317 58.366333 
L 197.587987 57.393449 
L 197.750395 57.58113 
L 197.912804 57.544008 
L 198.075212 57.373681 
L 198.237621 57.397127 
L 198.562438 56.764322 
L 198.724846 56.753748 
L 199.049663 56.352527 
L 199.212071 56.442518 
L 199.37448 56.375398 
L 199.536888 55.944295 
L 199.699297 55.860971 
L 199.861705 56.168409 
L 200.186522 55.761786 
L 200.348931 55.727997 
L 200.673748 55.345854 
L 200.836156 55.266897 
L 200.998565 55.463543 
L 201.160973 55.439752 
L 201.323382 54.976239 
L 201.48579 55.112891 
L 201.648199 54.799476 
L 201.810607 55.134153 
L 202.135424 54.704889 
L 202.460241 54.963022 
L 202.785058 54.450434 
L 203.109875 54.279418 
L 203.272283 54.44032 
L 203.434692 54.34194 
L 203.5971 54.076221 
L 203.759509 54.178969 
L 203.921917 54.027146 
L 204.246734 54.07036 
L 204.409143 54.010481 
L 204.571551 54.080129 
L 204.896368 53.912446 
L 205.058777 53.938075 
L 205.221185 53.752003 
L 205.383594 54.074957 
L 205.546002 54.097023 
L 205.708411 53.686608 
L 205.870819 53.936926 
L 206.033228 53.861646 
L 206.195636 54.008297 
L 206.520453 53.716145 
L 206.682861 53.69902 
L 207.007678 53.890494 
L 207.332495 53.829811 
L 207.494904 53.568 
L 207.657312 53.883253 
L 207.819721 53.807629 
L 207.982129 54.182416 
L 208.306946 53.964624 
L 208.469355 53.890379 
L 208.631763 54.120814 
L 208.794172 54.022893 
L 209.118989 54.14403 
L 209.281397 53.94589 
L 209.606214 54.26758 
L 209.768622 54.111275 
L 210.255848 54.583178 
L 210.905482 54.172877 
L 211.230299 54.995087 
L 211.392707 54.775686 
L 211.879933 54.990375 
L 212.20475 55.248853 
L 212.367158 55.104156 
L 212.691975 55.487678 
L 212.854384 55.068528 
L 213.179201 55.716734 
L 213.341609 55.448947 
L 213.666426 55.458945 
L 213.828834 55.987624 
L 213.991243 55.762591 
L 214.153651 56.161973 
L 214.478468 56.26564 
L 214.640877 55.994865 
L 215.128102 56.446885 
L 215.290511 56.591812 
L 215.452919 56.955566 
L 215.615328 56.862242 
L 215.777736 57.054521 
L 215.940145 57.009583 
L 216.42737 57.449765 
L 216.589779 57.613885 
L 216.752187 58.005108 
L 217.077004 57.989362 
L 217.239412 57.794671 
L 217.401821 58.358288 
L 217.726638 58.475517 
L 217.889046 58.737902 
L 218.051455 58.598262 
L 218.213863 58.650555 
L 218.53868 59.257731 
L 218.701089 59.28451 
L 218.863497 59.48173 
L 219.025906 59.305887 
L 219.350723 59.882836 
L 219.513131 59.883526 
L 219.837948 60.242567 
L 220.000357 60.319226 
L 220.325173 60.818482 
L 220.487582 61.038459 
L 220.812399 61.092476 
L 221.299624 61.601386 
L 221.462033 62.036052 
L 221.624441 61.978242 
L 221.78685 62.428079 
L 221.949258 62.248098 
L 222.111667 62.280394 
L 222.436484 63.02606 
L 222.598892 63.052954 
L 222.761301 63.482908 
L 223.086118 63.716101 
L 223.248526 64.007909 
L 223.410935 63.786553 
L 223.573343 64.198578 
L 223.735752 63.963201 
L 223.89816 64.135596 
L 224.222977 64.829774 
L 224.385385 64.79564 
L 224.547794 65.213641 
L 224.710202 65.194217 
L 225.035019 65.746342 
L 225.197428 65.726804 
L 225.359836 66.01275 
L 225.522245 66.642452 
L 225.684653 66.561196 
L 225.847062 66.630269 
L 226.00947 67.082404 
L 226.171879 66.905527 
L 226.334287 67.101368 
L 226.659104 67.632575 
L 226.821513 67.950817 
L 226.983921 67.97794 
L 227.308738 68.868189 
L 227.471146 68.741766 
L 227.795963 69.075983 
L 227.958372 69.544438 
L 228.12078 69.182868 
L 228.283189 69.9606 
L 228.445597 69.747519 
L 228.770414 70.285392 
L 228.932823 70.663513 
L 229.095231 70.576166 
L 229.25764 70.722127 
L 229.582457 71.616283 
L 229.744865 71.629615 
L 229.907274 71.775576 
L 230.069682 72.095772 
L 230.232091 72.162201 
L 230.556908 73.053485 
L 230.719316 72.908328 
L 230.881724 72.956369 
L 231.044133 73.272427 
L 231.206541 73.842135 
L 231.531358 74.048665 
L 231.693767 74.17934 
L 232.505809 75.4461 
L 232.668218 75.573328 
L 232.830626 76.091318 
L 232.993035 75.98926 
L 233.155443 76.096949 
L 233.317852 76.772164 
L 233.48026 76.788599 
L 233.642669 77.246366 
L 233.967486 77.414164 
L 234.617119 78.652996 
L 234.779528 78.72 
L 235.429162 79.850108 
L 235.59157 79.819192 
L 235.916387 80.300519 
L 236.241204 81.212949 
L 236.566021 81.554637 
L 236.72843 81.57314 
L 237.215655 82.804617 
L 237.378064 82.830936 
L 237.702881 83.563615 
L 237.865289 83.172508 
L 238.352514 84.664416 
L 238.677331 85.050926 
L 238.83974 85.010011 
L 239.164557 85.416979 
L 239.489374 85.987032 
L 239.976599 86.973937 
L 240.139008 86.847974 
L 240.463825 87.985437 
L 240.626233 87.714202 
L 240.95105 88.841897 
L 241.113459 88.819945 
L 241.275867 88.948207 
L 241.925501 90.322886 
L 242.412726 91.051543 
L 242.737543 91.319216 
L 242.899952 92.018795 
L 243.224769 92.343473 
L 243.711994 93.249812 
L 243.874403 93.429908 
L 244.036811 93.816073 
L 244.19922 93.885835 
L 244.686445 94.825159 
L 245.011262 95.149722 
L 245.17367 95.754714 
L 245.336079 95.743681 
L 245.660896 96.689671 
L 245.823304 96.590371 
L 245.985713 96.843792 
L 246.31053 97.517283 
L 246.960164 98.703822 
L 247.122572 98.613487 
L 247.447389 99.449258 
L 247.609798 99.61108 
L 247.934615 100.190213 
L 248.097023 100.352379 
L 248.259432 100.746705 
L 248.42184 101.50352 
L 248.584248 101.135513 
L 248.746657 101.894052 
L 249.071474 102.002316 
L 249.558699 103.20529 
L 249.883516 103.559505 
L 250.045925 103.816948 
L 250.370742 104.636745 
L 250.53315 104.721219 
L 250.695559 105.316327 
L 250.857967 105.316557 
L 251.020376 105.476195 
L 251.507601 106.64331 
L 251.832418 106.912476 
L 252.319643 108.133379 
L 252.482052 108.26394 
L 252.969277 109.060176 
L 253.294094 109.412437 
L 253.618911 110.165459 
L 253.78132 110.533006 
L 254.106137 110.80539 
L 254.593362 112.113525 
L 254.755771 112.081919 
L 254.918179 112.680705 
L 255.242996 112.719666 
L 255.567813 113.797711 
L 255.730221 113.835983 
L 255.89263 114.145145 
L 256.055038 114.200541 
L 256.379855 115.064011 
L 256.704672 115.403745 
L 256.867081 116.244918 
L 257.191898 116.524084 
L 257.841532 117.467545 
L 258.166349 118.219418 
L 258.328757 118.15793 
L 258.653574 119.050822 
L 259.140799 119.6965 
L 259.465616 120.526296 
L 260.440067 122.068083 
L 260.602476 122.122215 
L 260.764884 122.98649 
L 261.25211 123.358979 
L 261.414518 123.64458 
L 261.576927 124.265662 
L 261.739335 124.4176 
L 262.064152 125.060059 
L 262.226561 125.216594 
L 262.388969 125.740676 
L 262.551378 125.778488 
L 263.038603 126.672069 
L 263.850645 128.297067 
L 264.013054 128.263162 
L 264.337871 128.928838 
L 264.500279 129.604857 
L 264.662688 129.62451 
L 264.987505 130.371556 
L 265.149913 130.395921 
L 265.312322 130.579119 
L 266.286772 132.551206 
L 266.449181 132.668089 
L 266.936406 133.585577 
L 267.098815 133.660396 
L 267.423632 134.531107 
L 268.398083 136.037611 
L 268.885308 136.792817 
L 269.047717 136.82879 
L 269.372534 137.623877 
L 269.69735 138.150602 
L 270.022167 138.763754 
L 270.346984 139.327371 
L 270.671801 139.764336 
L 270.996618 140.404037 
L 271.159027 140.475064 
L 271.646252 141.516101 
L 271.971069 142.000531 
L 272.133478 142.599892 
L 272.295886 142.662988 
L 273.432745 144.382803 
L 273.919971 145.308565 
L 274.082379 145.405451 
L 274.244788 145.937693 
L 274.407196 146.046991 
L 274.569605 146.552109 
L 274.732013 146.449017 
L 275.219239 147.415005 
L 276.680915 149.933469 
L 277.16814 150.677986 
L 277.330549 151.050475 
L 277.492957 151.063117 
L 277.817774 151.979915 
L 277.980183 151.992327 
L 278.954634 153.531242 
L 279.279451 154.2907 
L 279.441859 154.358739 
L 279.766676 155.072914 
L 279.929085 155.189798 
L 280.091493 155.64699 
L 280.253901 155.588951 
L 280.578718 156.164521 
L 281.390761 157.712055 
L 281.553169 157.67976 
L 283.177254 160.342231 
L 283.339663 160.416936 
L 283.66448 161.039857 
L 283.826888 161.312931 
L 284.151705 162.069861 
L 284.314113 161.982514 
L 284.476522 162.485908 
L 284.63893 162.566244 
L 285.126156 163.444195 
L 285.613381 164.373865 
L 285.77579 164.318009 
L 286.100607 164.989891 
L 286.425424 165.615915 
L 286.587832 165.564541 
L 286.750241 166.072303 
L 286.912649 166.137008 
L 287.237466 166.748552 
L 287.399874 166.770618 
L 287.724691 167.420893 
L 287.8871 167.432156 
L 288.536734 168.779482 
L 288.861551 169.083587 
L 289.186368 169.513886 
L 289.348776 169.989352 
L 289.511185 170.04199 
L 289.673593 170.481712 
L 289.836002 170.472978 
L 289.99841 171.01154 
L 290.323227 171.40667 
L 290.485636 171.265421 
L 290.810452 172.424491 
L 290.972861 172.159807 
L 291.135269 172.333811 
L 291.297678 172.820196 
L 291.460086 172.900417 
L 291.784903 173.507018 
L 292.596946 174.585063 
L 292.921763 175.00111 
L 293.084171 175.053518 
L 293.571397 176.038814 
L 293.896214 176.392569 
L 294.221031 177.096171 
L 294.383439 177.217078 
L 295.195481 178.444072 
L 295.35789 178.55383 
L 295.682707 179.182038 
L 296.169932 179.498786 
L 296.657158 180.451786 
L 297.306792 181.148493 
L 297.794017 182.096437 
L 298.606059 182.965538 
L 298.930876 183.574783 
L 299.255693 184.1792 
L 299.418102 184.109438 
L 299.58051 184.580422 
L 299.742919 184.699489 
L 300.067736 185.122547 
L 300.230144 185.136798 
L 300.392553 185.687544 
L 300.71737 185.985902 
L 300.879778 186.347128 
L 301.042187 186.380687 
L 301.204595 186.814204 
L 301.367004 186.800067 
L 301.69182 187.273694 
L 302.179046 188.082573 
L 302.341454 188.042922 
L 302.666271 188.81962 
L 302.82868 188.696644 
L 302.991088 189.074879 
L 303.153497 189.16487 
L 303.315905 189.67424 
L 303.478314 189.69941 
L 303.640722 189.911111 
L 303.803131 189.899043 
L 304.127948 190.615288 
L 304.290356 190.691602 
L 304.452765 191.268896 
L 304.615173 191.082134 
L 304.777582 191.383021 
L 304.93999 191.440601 
L 305.264807 192.004793 
L 308.675385 196.359381 
L 308.837793 196.444085 
L 309.649836 197.41421 
L 310.29947 198.180679 
L 310.624287 198.830954 
L 310.786695 198.89405 
L 311.436329 199.680862 
L 311.598738 199.801653 
L 311.923555 200.430551 
L 312.573188 200.94992 
L 313.060414 201.627893 
L 313.547639 202.116002 
L 314.359682 203.219216 
L 314.52209 203.164394 
L 315.334133 204.326453 
L 315.658949 204.51126 
L 316.470992 205.659872 
L 316.6334 205.456561 
L 316.795809 205.643552 
L 316.958217 206.169932 
L 317.120626 206.127638 
L 317.283034 206.565407 
L 317.445443 206.492081 
L 317.607851 206.922265 
L 317.77026 206.973294 
L 317.932668 207.263148 
L 318.095077 207.171893 
L 318.582302 208.071221 
L 318.744711 208.009734 
L 318.907119 208.168222 
L 319.069527 208.501979 
L 319.231936 208.574041 
L 319.556753 209.1757 
L 319.88157 209.284539 
L 320.043978 209.38177 
L 320.368795 209.818504 
L 320.531204 209.926538 
L 320.693612 210.477628 
L 321.668063 211.24812 
L 321.830472 211.587509 
L 322.155289 211.763352 
L 323.454556 213.149984 
L 323.616965 213.214 
L 324.266599 214.188608 
L 324.429007 214.114822 
L 324.591416 214.230902 
L 324.753824 214.641547 
L 325.078641 214.740732 
L 325.403458 215.151722 
L 326.2155 216.061854 
L 326.540317 216.286427 
L 326.702726 216.637079 
L 326.865134 216.558812 
L 327.189951 217.17817 
L 327.35236 217.026003 
L 327.677177 217.394813 
L 328.326811 218.199784 
L 328.489219 218.47849 
L 328.651628 218.403785 
L 329.138853 219.024178 
L 329.301262 218.895456 
L 329.46367 219.365406 
L 329.788487 219.531709 
L 330.113304 219.825011 
L 330.438121 220.263584 
L 330.925346 220.743763 
L 331.087755 220.742268 
L 331.412572 221.363811 
L 331.57498 221.24187 
L 331.899797 221.505864 
L 332.224614 221.811693 
L 332.549431 222.253715 
L 332.874248 222.583564 
L 333.199065 222.921344 
L 333.523882 223.045928 
L 333.848699 223.439679 
L 334.011107 223.256365 
L 334.173516 223.711144 
L 334.660741 224.096964 
L 334.985558 224.452673 
L 336.122418 225.523707 
L 336.284826 225.878036 
L 336.447235 225.644843 
L 337.584094 226.917235 
L 337.746502 226.822302 
L 338.720953 227.844606 
L 339.04577 228.053549 
L 339.208179 228.120438 
L 339.695404 228.720374 
L 339.857813 228.689687 
L 340.345038 229.360764 
L 340.507446 229.316746 
L 341.15708 229.863469 
L 341.319489 230.271241 
L 341.481897 230.076664 
L 341.806714 230.516272 
L 341.969123 230.557647 
L 342.456348 230.996105 
L 342.618757 230.965993 
L 343.593208 231.944049 
L 344.730067 232.749594 
L 345.217292 233.312867 
L 345.379701 233.338726 
L 345.704518 233.683631 
L 345.866926 233.70202 
L 346.191743 233.971761 
L 346.354152 233.98199 
L 346.51656 234.381372 
L 346.678969 234.382981 
L 346.841377 234.567329 
L 347.003786 234.559859 
L 347.653419 235.112673 
L 347.815828 235.140601 
L 348.140645 235.595839 
L 348.62787 235.912816 
L 348.790279 236.121759 
L 349.115096 236.158077 
L 349.277504 236.18612 
L 349.602321 236.766517 
L 349.76473 236.738015 
L 349.927138 237.044993 
L 350.089547 236.957531 
L 350.414364 237.308873 
L 350.73918 237.409666 
L 351.063997 237.884328 
L 351.226406 237.858813 
L 351.713631 238.199236 
L 351.87604 238.458749 
L 352.038448 238.454036 
L 353.337716 239.499901 
L 353.500125 239.379799 
L 353.662533 239.576789 
L 353.824942 239.55863 
L 354.149759 239.966747 
L 354.312167 240.191895 
L 354.636984 240.243039 
L 355.449026 240.886763 
L 356.585886 241.744831 
L 356.748294 241.749888 
L 357.073111 242.085254 
L 357.397928 242.268912 
L 358.047562 242.69151 
L 358.20997 242.936197 
L 358.534787 242.946655 
L 359.184421 243.510158 
L 359.34683 243.516364 
L 359.834055 244.059983 
L 359.996464 243.953328 
L 360.158872 244.252836 
L 360.321281 244.169167 
L 361.45814 244.95414 
L 361.620548 245.295023 
L 361.782957 245.168714 
L 362.107774 245.328467 
L 362.270182 245.542352 
L 362.432591 245.508103 
L 362.919816 246.090339 
L 363.082225 246.026208 
L 363.244633 246.184697 
L 363.407042 246.120796 
L 363.56945 246.314568 
L 363.731859 246.289858 
L 364.056676 246.706939 
L 364.219084 246.671196 
L 364.543901 247.023802 
L 364.70631 246.957947 
L 365.843169 247.811418 
L 366.005577 247.670284 
L 366.980028 248.529157 
L 367.142437 248.383655 
L 367.629662 248.896473 
L 367.954479 248.973362 
L 368.441704 249.384352 
L 368.92893 249.529968 
L 369.253747 249.74983 
L 369.416155 249.765115 
L 369.740972 250.057038 
L 370.553015 250.482394 
L 370.715423 250.704899 
L 371.04024 250.808451 
L 371.527466 251.009579 
L 372.014691 251.431832 
L 372.177099 251.389193 
L 372.989142 252.005563 
L 373.15155 251.903275 
L 373.963593 252.531369 
L 374.28841 252.630668 
L 374.775635 252.893284 
L 374.938044 252.94937 
L 375.100452 253.157508 
L 375.262861 253.092687 
L 376.562128 253.983626 
L 376.724537 253.996153 
L 376.886945 254.121657 
L 377.049354 254.030402 
L 377.536579 254.425647 
L 377.698988 254.425877 
L 378.186213 254.701479 
L 379.485481 255.250271 
L 379.647889 255.49783 
L 379.810298 255.476109 
L 380.297523 255.853999 
L 380.459932 255.803085 
L 380.62234 255.976744 
L 380.784749 255.939277 
L 381.109566 256.223154 
L 381.271974 256.258898 
L 381.434383 256.499791 
L 381.7592 256.437844 
L 381.921608 256.656211 
L 382.084017 256.627019 
L 382.73365 257.0441 
L 383.220876 257.26695 
L 383.383284 257.20121 
L 383.708101 257.486007 
L 384.844961 258.001468 
L 385.332186 258.336949 
L 385.657003 258.409815 
L 386.306637 258.840343 
L 386.469045 258.768857 
L 386.793862 259.107671 
L 386.956271 258.925966 
L 387.768313 259.454645 
L 388.417947 259.705193 
L 389.392398 260.149742 
L 389.554806 260.0963 
L 389.717215 260.301565 
L 389.879623 260.245019 
L 390.854074 260.781054 
L 391.178891 260.865182 
L 391.3413 261.030682 
L 391.666117 261.061368 
L 392.315751 261.38777 
L 392.802976 261.628089 
L 392.965385 261.629238 
L 393.127793 261.762212 
L 393.290201 261.697506 
L 393.45261 261.932883 
L 393.615018 261.784853 
L 393.939835 262.001152 
L 394.264652 262.220209 
L 394.914286 262.562586 
L 395.401512 262.678895 
L 395.888737 262.987482 
L 396.051146 262.963232 
L 396.863188 263.396749 
L 397.025596 263.345949 
L 397.350413 263.495703 
L 397.512822 263.426515 
L 397.67523 263.647986 
L 398.000047 263.690395 
L 398.162456 263.882558 
L 398.324864 263.848309 
L 398.487273 263.979444 
L 398.487273 263.979444 
" clip-path="url(#p030e24bbdf)" style="fill: none; stroke: #8000ff; stroke-width: 1.5; stroke-linecap: square"/>
   </g>
   <g id="line2d_13">
    <path d="M 73.832727 295.488 
L 109.237775 295.38031 
L 116.708565 295.063333 
L 122.717679 294.33663 
L 127.752342 292.999878 
L 130.675694 291.769321 
L 131.16292 291.480156 
L 133.27423 290.235003 
L 133.761455 289.854929 
L 134.248681 289.528643 
L 135.710357 288.327393 
L 136.197582 287.914794 
L 136.847216 287.241763 
L 137.334442 286.872378 
L 138.146484 286.011091 
L 141.232245 282.329419 
L 143.668372 278.825889 
L 144.155598 278.021953 
L 144.318006 277.871279 
L 145.292457 276.128479 
L 148.540627 270.527244 
L 148.865444 269.850305 
L 149.677486 268.448043 
L 150.164711 267.407925 
L 150.489528 266.833504 
L 150.976754 265.82005 
L 152.276022 263.434101 
L 152.600839 262.584422 
L 153.412881 260.961264 
L 154.062515 259.590722 
L 155.036966 257.644036 
L 155.361783 257.044215 
L 156.011417 255.629425 
L 158.285135 250.853274 
L 158.609952 250.145994 
L 158.772361 249.924294 
L 159.259586 248.733043 
L 160.721262 245.652915 
L 161.208488 244.586823 
L 161.370896 244.520968 
L 162.182939 242.711393 
L 163.644615 239.545528 
L 163.969432 238.938927 
L 165.593517 235.682036 
L 166.080742 234.626748 
L 166.730376 233.537555 
L 167.055193 232.542145 
L 167.38001 232.060128 
L 168.516869 229.724518 
L 168.679278 229.540285 
L 169.004095 228.776689 
L 169.978546 226.986193 
L 170.140954 226.360858 
L 170.303363 226.322471 
L 170.62818 225.544049 
L 170.790588 225.492676 
L 171.115405 224.621505 
L 171.277813 224.451983 
L 171.440222 224.002836 
L 171.60263 223.88239 
L 171.765039 223.285557 
L 171.927447 223.307049 
L 172.414673 222.093272 
L 172.901898 221.47104 
L 173.389124 220.392076 
L 173.713941 219.899026 
L 175.338025 216.830392 
L 175.500434 216.757526 
L 176.312476 215.17218 
L 176.637293 214.641892 
L 177.124519 213.504084 
L 177.286927 213.662228 
L 177.611744 212.927939 
L 177.936561 212.225716 
L 178.098969 212.22698 
L 178.586195 211.096872 
L 178.748603 211.113767 
L 179.07342 210.591869 
L 179.398237 209.840801 
L 179.560646 209.64381 
L 179.885463 209.125361 
L 180.047871 209.034796 
L 180.21028 208.593809 
L 180.372688 208.515886 
L 180.697505 207.701606 
L 180.859914 207.576102 
L 181.509548 206.590691 
L 181.671956 206.504034 
L 181.834364 205.941911 
L 181.996773 205.861 
L 182.483998 205.157398 
L 182.971224 204.150265 
L 183.296041 203.902705 
L 183.620858 203.320469 
L 183.783266 203.276221 
L 184.108083 202.775471 
L 184.595309 201.824998 
L 185.894576 199.932674 
L 186.056985 199.8559 
L 186.706619 198.77889 
L 187.031436 198.419274 
L 187.356253 197.940475 
L 187.68107 197.515693 
L 187.843478 197.405935 
L 188.168295 196.80577 
L 188.493112 196.549935 
L 188.65552 196.036772 
L 188.817929 196.069872 
L 189.467563 195.097563 
L 189.629971 195.118595 
L 189.79238 194.986885 
L 190.279605 194.113876 
L 190.442014 194.128127 
L 190.604422 193.577727 
L 190.766831 193.639789 
L 190.929239 193.469348 
L 191.091648 193.523825 
L 191.254056 192.861023 
L 191.416465 192.837117 
L 192.066099 192.030308 
L 192.390915 191.436923 
L 192.553324 191.439567 
L 192.878141 190.880662 
L 193.040549 190.905027 
L 193.365366 190.487371 
L 193.527775 190.605979 
L 194.664634 189.055686 
L 194.989451 188.735491 
L 195.15186 188.815137 
L 195.476677 188.081998 
L 195.963902 187.630667 
L 196.613536 187.048086 
L 196.775944 186.959016 
L 197.100761 186.599399 
L 197.425578 186.20335 
L 197.587987 185.927633 
L 197.750395 186.119106 
L 197.912804 185.726735 
L 198.075212 185.633871 
L 198.237621 185.398149 
L 198.400029 185.507908 
L 198.562438 185.315515 
L 198.724846 184.815684 
L 199.049663 184.761207 
L 199.212071 184.357687 
L 199.536888 184.406417 
L 199.861705 183.829353 
L 200.024114 183.851879 
L 200.348931 183.538465 
L 200.673748 183.127935 
L 201.810607 182.366867 
L 201.973016 181.882896 
L 202.135424 181.846004 
L 202.297833 181.978633 
L 202.460241 181.55546 
L 202.62265 181.629705 
L 202.785058 181.547185 
L 202.947466 181.325485 
L 203.109875 181.327899 
L 204.409143 180.111593 
L 204.571551 180.329271 
L 204.896368 179.642333 
L 205.058777 179.430402 
L 205.221185 179.628312 
L 205.546002 179.25318 
L 205.708411 179.2772 
L 206.358044 178.698642 
L 207.007678 178.095834 
L 207.170087 178.366839 
L 207.332495 178.135714 
L 207.494904 177.709783 
L 207.657312 178.083191 
L 207.819721 178.033771 
L 207.982129 177.649215 
L 208.144538 177.627378 
L 208.469355 177.217193 
L 208.631763 177.388898 
L 208.794172 177.107434 
L 208.95658 177.260636 
L 209.281397 176.783446 
L 209.443806 176.789193 
L 209.768622 176.537496 
L 209.931031 176.60519 
L 210.580665 176.023528 
L 210.743073 176.112599 
L 211.06789 175.804931 
L 211.230299 175.648281 
L 211.555116 175.870786 
L 211.717524 175.532432 
L 211.879933 175.519215 
L 212.529567 175.007661 
L 213.016792 175.087652 
L 213.179201 174.809062 
L 213.504017 174.765158 
L 213.828834 174.44117 
L 213.991243 174.486338 
L 214.153651 174.388992 
L 214.31606 174.46588 
L 214.478468 174.025813 
L 214.803285 173.999149 
L 214.965694 174.143961 
L 215.290511 173.985472 
L 215.452919 173.567701 
L 215.615328 173.69355 
L 215.777736 173.517822 
L 215.940145 173.628499 
L 216.102553 173.316694 
L 216.42737 173.257505 
L 216.589779 173.285893 
L 216.752187 172.994085 
L 216.914595 173.099936 
L 217.077004 172.958916 
L 217.239412 173.225324 
L 217.564229 172.782958 
L 217.726638 172.772959 
L 217.889046 172.93662 
L 218.051455 172.642973 
L 218.376272 172.736527 
L 218.53868 172.489657 
L 218.701089 172.695382 
L 219.350723 172.224053 
L 219.67554 172.266347 
L 219.837948 172.04844 
L 220.000357 172.177621 
L 220.325173 172.041544 
L 220.64999 171.829383 
L 220.812399 172.050738 
L 221.462033 171.752725 
L 221.624441 171.801685 
L 221.949258 171.397016 
L 222.111667 171.700776 
L 222.274075 171.644001 
L 222.598892 171.409543 
L 222.761301 171.339781 
L 222.923709 171.429196 
L 223.086118 171.24278 
L 223.573343 171.300475 
L 223.735752 171.083946 
L 223.89816 171.270937 
L 224.222977 170.736168 
L 224.385385 170.934652 
L 224.872611 170.861441 
L 225.035019 171.009357 
L 225.197428 170.893392 
L 225.359836 171.167845 
L 225.522245 170.881899 
L 226.00947 170.762142 
L 226.171879 170.506652 
L 226.334287 170.744098 
L 226.821513 170.362185 
L 227.14633 170.820756 
L 227.308738 170.320925 
L 227.633555 170.538373 
L 227.795963 170.557681 
L 227.958372 170.804666 
L 228.12078 170.47723 
L 228.283189 170.504468 
L 228.445597 170.364024 
L 228.608006 170.385631 
L 228.770414 170.655487 
L 229.095231 170.177147 
L 229.582457 170.386435 
L 229.744865 170.193812 
L 229.907274 170.537338 
L 230.556908 170.078767 
L 230.881724 170.412639 
L 231.206541 170.07463 
L 231.531358 170.2299 
L 231.693767 170.190594 
L 231.856175 170.023141 
L 232.018584 170.157839 
L 232.343401 170.101294 
L 232.505809 170.187951 
L 232.668218 169.961653 
L 232.993035 170.062792 
L 233.155443 170.434821 
L 233.317852 170.169217 
L 233.48026 170.194502 
L 233.642669 169.869594 
L 233.805077 170.351037 
L 233.967486 170.105431 
L 234.129894 170.265299 
L 234.454711 170.292422 
L 234.617119 170.057735 
L 234.779528 170.407582 
L 234.941936 170.421144 
L 235.104345 169.920164 
L 235.59157 170.160712 
L 236.241204 170.119682 
L 236.403613 170.424362 
L 236.566021 170.097271 
L 236.890838 170.04084 
L 237.378064 170.400916 
L 237.540472 170.221281 
L 237.865289 170.125199 
L 238.027697 170.460795 
L 238.190106 170.359886 
L 238.352514 170.408732 
L 238.514923 170.268517 
L 238.677331 170.496193 
L 238.83974 170.241164 
L 239.002148 170.233348 
L 239.164557 170.462404 
L 239.326965 170.229326 
L 239.489374 170.519409 
L 239.651782 170.41942 
L 239.814191 170.630087 
L 239.976599 170.485505 
L 240.139008 170.584115 
L 240.626233 170.442406 
L 240.788642 170.59193 
L 240.95105 170.426316 
L 241.438276 170.610894 
L 241.600684 170.630777 
L 241.763092 170.78214 
L 242.087909 170.7572 
L 242.250318 170.813516 
L 242.412726 170.634684 
L 242.899952 170.661348 
L 243.06236 171.039008 
L 243.224769 171.09406 
L 243.549586 170.853741 
L 243.874403 170.821791 
L 244.19922 171.222782 
L 244.361628 171.071649 
L 244.524037 171.319783 
L 244.686445 171.091072 
L 244.848854 171.097623 
L 245.17367 171.501602 
L 245.336079 171.203703 
L 245.498487 171.267605 
L 245.823304 171.145434 
L 246.148121 171.319898 
L 246.960164 171.745714 
L 247.122572 171.556999 
L 247.284981 171.808006 
L 247.609798 171.798697 
L 247.934615 171.766171 
L 248.097023 171.533898 
L 248.259432 171.705373 
L 248.42184 172.039131 
L 248.584248 171.8349 
L 248.909065 171.867885 
L 249.071474 172.092228 
L 249.396291 172.036602 
L 249.558699 172.286345 
L 249.721108 172.100733 
L 249.883516 172.132799 
L 250.045925 172.320479 
L 250.370742 172.149349 
L 250.53315 172.452189 
L 250.695559 172.197159 
L 250.857967 172.180265 
L 251.020376 172.369899 
L 251.182784 172.34404 
L 251.345193 172.685498 
L 251.507601 172.482416 
L 251.832418 172.494714 
L 251.994827 172.726987 
L 252.157235 172.602748 
L 252.319643 172.763075 
L 252.482052 172.73894 
L 252.806869 173.069479 
L 253.131686 172.870075 
L 253.294094 173.185329 
L 253.456503 172.965008 
L 253.78132 173.165216 
L 253.943728 173.421395 
L 254.106137 173.262332 
L 254.593362 173.511041 
L 254.755771 173.397145 
L 254.918179 173.804572 
L 255.080588 173.500237 
L 255.242996 173.440244 
L 255.405405 173.756302 
L 255.567813 173.73366 
L 255.730221 173.477366 
L 256.055038 173.846062 
L 256.379855 173.813767 
L 256.542264 174.039719 
L 256.704672 173.929961 
L 256.867081 174.226596 
L 257.354306 174.080634 
L 257.516715 174.429907 
L 258.00394 174.4083 
L 258.328757 174.41669 
L 258.491166 174.624714 
L 258.653574 174.513346 
L 259.140799 174.97548 
L 259.303208 174.805499 
L 259.628025 174.960769 
L 259.952842 175.078113 
L 260.11525 175.268437 
L 260.277659 175.093629 
L 260.602476 175.583461 
L 260.764884 175.22373 
L 261.414518 175.81447 
L 261.739335 175.37107 
L 262.064152 175.928481 
L 262.226561 175.79022 
L 262.551378 176.026287 
L 263.038603 176.25132 
L 263.201011 176.167421 
L 263.688237 176.254653 
L 263.850645 176.648403 
L 264.013054 176.50543 
L 264.175462 176.858496 
L 264.337871 176.635991 
L 264.500279 176.951474 
L 264.662688 176.729659 
L 264.987505 176.900215 
L 265.149913 176.870908 
L 265.47473 177.191563 
L 266.124364 177.183748 
L 266.286772 177.639101 
L 266.611589 177.392346 
L 266.773998 177.742538 
L 266.936406 177.535204 
L 267.58604 178.124336 
L 267.748449 177.808049 
L 267.910857 177.870571 
L 268.073266 178.131002 
L 268.235674 178.152609 
L 268.398083 178.407294 
L 268.560491 178.252483 
L 269.047717 178.544636 
L 269.372534 178.511881 
L 269.69735 178.881036 
L 270.022167 178.72657 
L 270.346984 179.213299 
L 270.509393 178.937007 
L 270.671801 179.282257 
L 270.83421 178.995277 
L 270.996618 179.400406 
L 271.646252 179.551424 
L 271.808661 179.521312 
L 271.971069 179.800592 
L 272.133478 179.776917 
L 272.295886 180.037578 
L 272.620703 179.857253 
L 272.94552 180.282379 
L 273.107929 180.006202 
L 273.432745 180.430984 
L 273.595154 180.252957 
L 273.757562 180.248245 
L 273.919971 180.695323 
L 274.082379 180.55235 
L 274.244788 180.817724 
L 274.732013 180.818184 
L 274.894422 180.860363 
L 275.05683 181.111255 
L 275.219239 181.028276 
L 275.381647 181.361229 
L 275.544056 181.203315 
L 276.843323 181.872323 
L 277.005732 181.984265 
L 277.16814 181.709697 
L 277.330549 182.031156 
L 277.492957 182.022192 
L 277.980183 182.43594 
L 278.142591 182.24711 
L 278.467408 182.632586 
L 278.629817 182.38698 
L 278.792225 182.759698 
L 278.954634 182.729127 
L 279.117042 183.069665 
L 279.279451 183.061275 
L 279.604268 182.859228 
L 279.929085 183.276539 
L 280.091493 183.354692 
L 280.253901 183.212638 
L 280.41631 183.278378 
L 280.741127 183.617422 
L 281.877986 184.099784 
L 282.040395 184.010253 
L 282.852437 184.658804 
L 283.339663 184.753506 
L 283.502071 185.000721 
L 283.66448 184.776263 
L 283.826888 185.100021 
L 284.476522 185.325399 
L 284.63893 185.477451 
L 284.801339 185.19162 
L 284.963747 185.675591 
L 285.126156 185.77489 
L 285.288564 185.647433 
L 285.450973 185.990959 
L 285.613381 185.988086 
L 285.77579 185.704553 
L 286.100607 186.060952 
L 287.399874 186.783747 
L 287.562283 186.625144 
L 287.724691 186.980967 
L 288.536734 187.154627 
L 288.861551 187.532172 
L 289.348776 187.708705 
L 289.511185 187.74077 
L 289.673593 187.65124 
L 290.323227 188.30933 
L 290.648044 188.276919 
L 290.810452 188.425064 
L 290.972861 188.370473 
L 291.622495 188.804679 
L 292.10972 188.888693 
L 292.272129 188.842491 
L 292.596946 189.280259 
L 292.921763 189.329105 
L 293.24658 189.591375 
L 293.408988 189.393581 
L 293.571397 189.694468 
L 294.058622 189.703317 
L 294.221031 190.050406 
L 294.383439 189.837096 
L 294.708256 190.089942 
L 295.033073 190.411517 
L 295.195481 190.212113 
L 295.845115 190.908934 
L 296.007524 190.724701 
L 296.169932 191.137875 
L 296.657158 191.167527 
L 296.819566 191.456921 
L 297.144383 191.378309 
L 297.4692 191.664255 
L 297.631609 191.874577 
L 297.794017 191.692298 
L 297.956425 191.919285 
L 298.118834 191.833547 
L 298.443651 192.028009 
L 298.768468 192.284763 
L 298.930876 192.477616 
L 299.093285 192.408083 
L 299.418102 192.621508 
L 299.58051 192.54462 
L 299.742919 192.893203 
L 300.067736 192.885503 
L 300.392553 193.135016 
L 300.879778 193.344534 
L 301.042187 193.360049 
L 301.367004 193.648639 
L 301.529412 193.499115 
L 301.69182 193.534858 
L 301.854229 193.784716 
L 302.016637 193.786555 
L 302.179046 194.008025 
L 302.503863 193.986763 
L 302.666271 194.355919 
L 303.153497 194.456598 
L 305.427215 195.632103 
L 305.589624 195.47327 
L 305.914441 195.971837 
L 306.888892 196.179286 
L 307.0513 196.513617 
L 307.213709 196.539936 
L 307.376117 196.397078 
L 307.538526 196.791518 
L 307.700934 196.620847 
L 308.025751 196.801172 
L 308.18816 196.797839 
L 308.675385 197.249515 
L 308.837793 197.400878 
L 309.000202 197.356515 
L 309.325019 197.545575 
L 309.487427 197.514314 
L 309.974653 198.025293 
L 310.137061 197.745898 
L 310.624287 198.22826 
L 310.786695 198.271359 
L 310.949104 198.115513 
L 311.273921 198.634768 
L 311.436329 198.593163 
L 311.761146 198.907497 
L 311.923555 198.786591 
L 312.085963 198.927725 
L 312.248371 198.837964 
L 313.060414 199.414569 
L 313.222822 199.311706 
L 313.385231 199.617765 
L 313.547639 199.666381 
L 313.872456 200.052201 
L 314.197273 199.919687 
L 314.52209 200.099552 
L 314.684499 200.305622 
L 314.846907 200.049673 
L 315.334133 200.596855 
L 315.496541 200.552952 
L 315.983766 201.001064 
L 316.146175 200.770285 
L 316.308583 200.945783 
L 316.470992 200.924981 
L 316.958217 201.426421 
L 317.120626 201.447108 
L 317.283034 201.775234 
L 317.445443 201.556177 
L 317.607851 201.575025 
L 318.095077 202.145079 
L 318.257485 201.920505 
L 319.069527 202.369767 
L 319.231936 202.264951 
L 319.394344 202.493317 
L 319.719161 202.606179 
L 320.043978 202.882586 
L 320.856021 203.210021 
L 321.018429 203.587567 
L 321.180838 203.353339 
L 321.505655 203.52447 
L 321.830472 203.578258 
L 322.155289 203.853515 
L 322.480106 204.119579 
L 322.642514 204.271171 
L 322.804922 204.137852 
L 322.967331 204.315075 
L 323.129739 204.322315 
L 323.454556 204.541947 
L 323.616965 204.726869 
L 323.779373 204.716756 
L 323.941782 204.863062 
L 324.10419 204.598722 
L 324.429007 205.135906 
L 324.591416 204.815825 
L 324.753824 205.325426 
L 324.916233 205.323472 
L 325.078641 205.198658 
L 325.24105 205.617693 
L 325.403458 205.357721 
L 325.890684 205.853644 
L 326.053092 205.786295 
L 326.540317 206.104537 
L 326.702726 206.097986 
L 326.865134 206.273254 
L 327.189951 206.179471 
L 327.514768 206.418411 
L 327.677177 206.392207 
L 328.001994 206.800554 
L 328.164402 206.843078 
L 328.489219 207.114773 
L 328.651628 206.800784 
L 328.976445 207.34061 
L 329.138853 207.30027 
L 329.301262 207.395087 
L 329.46367 207.630694 
L 329.626078 207.364286 
L 330.275712 208.003298 
L 330.438121 207.85136 
L 331.087755 208.199943 
L 331.899797 208.769077 
L 332.062206 208.638172 
L 332.224614 208.686557 
L 332.387023 208.909177 
L 332.549431 208.790109 
L 332.71184 209.212478 
L 333.036657 209.140416 
L 334.335924 209.806551 
L 334.498333 210.098819 
L 334.660741 209.89953 
L 334.82315 210.238229 
L 334.985558 209.9986 
L 335.147967 209.958259 
L 335.797601 210.569802 
L 335.960009 210.492569 
L 336.122418 210.747944 
L 336.284826 210.699788 
L 336.447235 210.895055 
L 336.609643 210.807363 
L 336.772051 211.102963 
L 336.93446 210.994929 
L 337.584094 211.358913 
L 337.746502 211.336501 
L 338.233728 211.746687 
L 338.396136 211.645089 
L 339.04577 212.154114 
L 339.370587 211.981489 
L 339.532996 212.471092 
L 339.695404 212.330187 
L 340.020221 212.450174 
L 340.182629 212.747499 
L 340.345038 212.491204 
L 340.507446 212.864842 
L 341.15708 212.948282 
L 341.319489 213.481672 
L 341.644306 213.254915 
L 341.969123 213.55201 
L 342.131531 213.292842 
L 342.456348 213.686363 
L 342.618757 213.617405 
L 342.781165 213.986905 
L 343.268391 214.088388 
L 343.918024 214.139762 
L 344.242841 214.416629 
L 344.567658 214.605574 
L 344.730067 214.441684 
L 345.054884 214.909679 
L 345.217292 214.828538 
L 345.379701 215.150228 
L 345.542109 214.811759 
L 345.704518 215.162066 
L 345.866926 215.133678 
L 346.029335 215.359975 
L 346.191743 215.305958 
L 346.51656 215.47525 
L 347.328602 215.79625 
L 347.653419 216.090816 
L 347.815828 216.053119 
L 347.978236 216.268728 
L 348.140645 216.27436 
L 348.303053 216.443422 
L 348.465462 216.226204 
L 348.790279 216.607427 
L 349.115096 216.637884 
L 349.602321 216.946126 
L 349.76473 216.926128 
L 349.927138 217.139324 
L 350.089547 217.07094 
L 351.551223 217.816722 
L 351.713631 217.652372 
L 352.038448 218.018999 
L 352.200857 217.860855 
L 352.525674 218.286901 
L 352.688082 218.175534 
L 353.012899 218.361146 
L 353.175308 218.465273 
L 353.337716 218.704442 
L 353.500125 218.569514 
L 353.662533 218.780986 
L 354.149759 218.735244 
L 354.474575 219.133476 
L 354.636984 219.000732 
L 354.961801 219.414711 
L 355.124209 219.362302 
L 355.286618 219.434019 
L 355.449026 219.652731 
L 355.936252 219.661351 
L 356.423477 219.810185 
L 356.585886 219.864662 
L 356.910703 220.112566 
L 357.073111 220.143368 
L 357.23552 220.307948 
L 357.397928 220.290018 
L 357.560337 220.457587 
L 357.722745 220.400926 
L 357.885153 220.622281 
L 358.047562 220.538727 
L 358.697196 220.910756 
L 358.859604 221.028789 
L 359.022013 220.90409 
L 359.184421 221.119354 
L 359.509238 221.082002 
L 359.671647 221.290026 
L 359.834055 221.19199 
L 360.158872 221.552986 
L 360.321281 221.621139 
L 360.483689 221.403232 
L 360.646098 221.712279 
L 360.808506 221.681592 
L 361.945365 222.265208 
L 362.107774 222.132923 
L 362.270182 222.439901 
L 362.432591 222.35175 
L 363.244633 222.86181 
L 363.407042 222.870085 
L 363.56945 223.044434 
L 363.731859 222.898588 
L 364.056676 223.275329 
L 364.219084 223.139596 
L 364.381493 223.382788 
L 364.70631 223.435771 
L 364.868718 223.571504 
L 365.193535 223.590812 
L 365.843169 223.998469 
L 366.005577 223.950773 
L 366.330394 224.263613 
L 366.492803 224.237064 
L 366.81762 224.363602 
L 366.980028 224.191092 
L 367.142437 224.442789 
L 367.467254 224.40739 
L 367.954479 224.775742 
L 368.116888 224.795624 
L 368.441704 225.04985 
L 368.766521 225.023531 
L 368.92893 225.336371 
L 369.253747 225.279825 
L 369.903381 225.635074 
L 370.065789 225.594849 
L 370.553015 225.967912 
L 370.715423 225.810687 
L 371.365057 226.262248 
L 371.689874 226.430735 
L 371.852283 226.212368 
L 372.014691 226.42361 
L 372.177099 226.333275 
L 372.339508 226.664273 
L 372.501916 226.633472 
L 372.664325 226.732542 
L 372.826733 226.647724 
L 372.989142 227.009064 
L 373.15155 226.878503 
L 373.313959 226.910454 
L 373.476367 227.10641 
L 373.638776 227.068713 
L 373.801184 227.197894 
L 373.963593 227.147555 
L 375.100452 227.724274 
L 375.262861 227.872534 
L 375.587677 227.852996 
L 375.912494 228.000221 
L 376.074903 227.969535 
L 376.724537 228.32306 
L 377.374171 228.4881 
L 377.536579 228.718305 
L 378.023805 228.843923 
L 378.186213 229.029765 
L 378.348622 228.843694 
L 378.673439 229.151936 
L 378.835847 228.971381 
L 379.160664 229.280083 
L 379.323072 229.522816 
L 379.485481 229.302954 
L 379.647889 229.479602 
L 379.810298 229.489486 
L 379.972706 229.630046 
L 380.135115 229.597635 
L 380.297523 229.809451 
L 380.459932 229.675788 
L 380.784749 229.908176 
L 380.947157 229.877605 
L 381.271974 230.182745 
L 381.921608 230.258943 
L 382.084017 230.448003 
L 382.408834 230.373873 
L 382.571242 230.710849 
L 382.73365 230.563048 
L 382.896059 230.784174 
L 383.058467 230.677404 
L 383.383284 230.995071 
L 383.545693 230.919102 
L 383.708101 230.975533 
L 383.87051 231.188153 
L 384.032918 231.061385 
L 384.357735 231.336643 
L 384.520144 231.20229 
L 384.682552 231.420772 
L 384.844961 231.389971 
L 385.332186 231.610751 
L 386.144228 231.91704 
L 386.306637 232.113571 
L 386.469045 232.086907 
L 386.631454 232.184023 
L 386.793862 232.136097 
L 387.118679 232.243327 
L 387.281088 232.269646 
L 387.443496 232.535939 
L 387.605905 232.331823 
L 388.09313 232.697071 
L 388.255539 232.672246 
L 388.580356 232.886591 
L 388.742764 232.840159 
L 388.905173 232.999452 
L 389.067581 232.909462 
L 390.042032 233.374699 
L 390.366849 233.442738 
L 390.691666 233.709031 
L 390.854074 233.762933 
L 391.016483 233.629614 
L 391.178891 233.835799 
L 391.503708 233.835684 
L 391.828525 234.071061 
L 392.153342 234.055086 
L 392.315751 234.231503 
L 392.478159 234.161051 
L 392.802976 234.441711 
L 392.965385 234.406312 
L 393.127793 234.646516 
L 393.615018 234.625484 
L 393.939835 234.674789 
L 394.102244 234.798109 
L 394.264652 234.712141 
L 394.427061 234.97763 
L 394.589469 234.866377 
L 394.751878 235.118419 
L 394.914286 234.92729 
L 395.239103 235.252543 
L 395.401512 235.127039 
L 395.56392 235.372989 
L 395.726329 235.256335 
L 395.888737 235.443671 
L 396.051146 235.365979 
L 396.538371 235.753523 
L 396.700779 235.613193 
L 398.000047 236.122679 
L 398.324864 236.430462 
L 398.487273 236.405177 
L 398.487273 236.405177 
" clip-path="url(#p030e24bbdf)" style="fill: none; stroke: #80ffb4; stroke-width: 1.5; stroke-linecap: square"/>
   </g>
   <g id="line2d_14">
    <path d="M 73.832727 295.488 
L 120.281552 295.378472 
L 127.752342 294.85462 
L 129.376426 294.565686 
L 130.188469 294.392716 
L 134.248681 293.01229 
L 134.735906 292.697381 
L 135.38554 292.337075 
L 136.359991 291.641748 
L 137.009625 291.152031 
L 137.49685 290.751384 
L 137.984076 290.33867 
L 138.308893 290.008361 
L 138.958527 289.36866 
L 139.445752 288.740682 
L 141.069837 286.56356 
L 141.881879 285.21566 
L 142.369105 284.413792 
L 143.018738 283.130942 
L 144.96764 278.846462 
L 147.566176 271.448984 
L 149.027852 266.675705 
L 149.839894 263.753836 
L 150.814345 260.12032 
L 151.951205 255.452893 
L 153.250473 250.014973 
L 154.712149 243.424765 
L 155.036966 242.138926 
L 156.173825 236.750657 
L 159.097178 222.792967 
L 160.396445 216.111504 
L 160.883671 213.810372 
L 162.994981 203.1706 
L 164.13184 197.563734 
L 164.456657 195.837368 
L 164.781474 194.251677 
L 166.405559 186.049688 
L 166.892785 183.726031 
L 167.704827 179.684398 
L 169.328912 171.6286 
L 170.140954 167.824643 
L 170.62818 165.40295 
L 171.60263 160.809077 
L 171.765039 160.348667 
L 172.252264 157.735386 
L 173.551532 151.842228 
L 174.525983 147.458448 
L 174.688391 146.901497 
L 175.013208 145.200646 
L 175.500434 143.115353 
L 176.637293 138.045326 
L 176.799702 137.527795 
L 176.96211 136.46722 
L 177.124519 136.246094 
L 177.611744 134.239644 
L 178.748603 129.458206 
L 179.07342 128.077205 
L 179.235829 127.583006 
L 179.885463 124.528393 
L 180.047871 124.461733 
L 180.372688 123.003729 
L 182.159181 115.984257 
L 182.32159 115.778762 
L 182.808815 113.723351 
L 183.620858 110.687702 
L 183.783266 110.459335 
L 184.108083 109.173382 
L 184.4329 108.485985 
L 184.920126 106.380005 
L 185.407351 104.952573 
L 186.056985 102.476173 
L 186.219393 102.17655 
L 186.381802 101.294577 
L 186.54421 101.048741 
L 186.869027 99.708771 
L 187.031436 99.690497 
L 187.356253 98.433851 
L 187.518661 98.285246 
L 187.843478 96.927002 
L 188.005887 96.852412 
L 188.168295 96.082955 
L 188.330704 95.939752 
L 188.65552 94.670464 
L 189.142746 93.300496 
L 189.629971 91.866283 
L 191.578873 86.672361 
L 191.741282 86.436639 
L 192.066099 85.605349 
L 192.553324 84.315488 
L 192.878141 83.350765 
L 193.040549 83.25135 
L 193.365366 82.214795 
L 193.527775 82.063203 
L 193.852592 81.129395 
L 194.502226 79.588297 
L 194.664634 79.579792 
L 194.827043 78.832287 
L 195.15186 78.483474 
L 195.963902 76.583449 
L 196.12631 76.527937 
L 196.451127 75.47173 
L 196.613536 75.407599 
L 196.938353 74.573551 
L 197.425578 73.886728 
L 197.750395 73.430226 
L 197.912804 72.743058 
L 198.075212 72.956254 
L 198.237621 72.152088 
L 198.724846 71.535028 
L 199.049663 70.853032 
L 199.212071 71.029335 
L 199.536888 70.067715 
L 199.699297 69.790733 
L 199.861705 69.806364 
L 200.186522 68.920137 
L 200.348931 69.098854 
L 200.673748 68.113328 
L 200.836156 68.127234 
L 201.323382 67.251467 
L 201.48579 67.469489 
L 201.648199 66.775771 
L 201.810607 66.647279 
L 201.973016 66.360528 
L 202.135424 66.470861 
L 202.785058 65.360636 
L 202.947466 65.439823 
L 203.109875 65.252027 
L 203.272283 64.682663 
L 203.434692 64.673584 
L 203.5971 64.402923 
L 203.759509 64.393729 
L 204.246734 63.773221 
L 204.409143 63.334993 
L 204.571551 63.407858 
L 205.058777 62.776317 
L 205.221185 62.738505 
L 205.383594 62.833782 
L 205.546002 62.392221 
L 205.708411 62.313149 
L 205.870819 61.951923 
L 206.033228 62.060302 
L 206.358044 61.527601 
L 206.520453 61.621614 
L 206.682861 61.473469 
L 206.84527 60.981109 
L 207.007678 61.105348 
L 207.657312 60.534605 
L 207.982129 60.494264 
L 208.469355 59.791122 
L 208.794172 59.594591 
L 208.95658 59.48242 
L 209.118989 59.71975 
L 209.281397 59.442309 
L 209.443806 59.451503 
L 209.606214 59.679295 
L 209.931031 59.410473 
L 210.093439 58.869037 
L 210.418256 58.859958 
L 210.580665 58.75744 
L 210.743073 58.83973 
L 210.905482 58.735029 
L 211.06789 58.816859 
L 211.230299 58.524822 
L 211.392707 58.54344 
L 211.879933 58.225199 
L 212.042341 57.990167 
L 212.20475 58.397824 
L 212.367158 58.191639 
L 212.529567 58.167849 
L 212.854384 57.728586 
L 213.016792 57.977869 
L 213.179201 57.950631 
L 213.341609 57.695831 
L 213.504017 57.788349 
L 213.666426 57.533664 
L 214.31606 57.56458 
L 214.478468 57.768581 
L 214.640877 57.656639 
L 214.965694 57.662271 
L 215.128102 57.399541 
L 215.452919 57.654341 
L 215.777736 57.704335 
L 216.102553 57.49976 
L 216.264962 57.359775 
L 216.42737 57.580211 
L 216.752187 57.41747 
L 217.077004 57.396208 
L 217.239412 58.017405 
L 217.401821 57.32702 
L 217.564229 57.877535 
L 217.726638 57.664225 
L 217.889046 57.931552 
L 218.051455 57.761915 
L 218.376272 57.921439 
L 218.53868 57.793751 
L 219.188314 57.828575 
L 219.350723 58.172331 
L 219.513131 58.169803 
L 219.67554 58.374263 
L 219.837948 58.024761 
L 220.162765 58.252093 
L 220.487582 58.188306 
L 220.64999 58.509076 
L 220.812399 58.278871 
L 221.624441 58.886162 
L 221.78685 58.780311 
L 222.274075 58.982588 
L 222.436484 59.370363 
L 222.598892 58.912941 
L 222.923709 59.433689 
L 223.086118 59.335539 
L 223.248526 59.403922 
L 223.410935 59.822843 
L 223.573343 59.611716 
L 223.735752 59.6701 
L 223.89816 60.089825 
L 224.060568 60.10626 
L 224.222977 60.2713 
L 224.385385 60.236016 
L 224.547794 60.373703 
L 224.710202 60.312675 
L 225.197428 60.677003 
L 225.359836 60.902956 
L 225.522245 60.782279 
L 225.684653 61.099257 
L 225.847062 61.159135 
L 226.00947 61.458873 
L 226.171879 61.033632 
L 226.334287 61.266365 
L 226.496696 61.695629 
L 226.821513 61.822512 
L 226.983921 62.109378 
L 227.14633 61.93296 
L 227.471146 62.742758 
L 227.633555 62.460489 
L 227.958372 62.801372 
L 228.12078 62.818726 
L 228.283189 62.953539 
L 228.445597 63.243853 
L 228.770414 63.20788 
L 228.932823 63.496125 
L 229.095231 64.195474 
L 229.420048 63.480034 
L 229.744865 64.334655 
L 229.907274 64.53199 
L 230.069682 64.469583 
L 230.394499 65.037223 
L 230.556908 64.850576 
L 230.719316 64.885285 
L 231.044133 65.490737 
L 231.206541 65.573717 
L 231.531358 65.995165 
L 231.693767 66.234565 
L 231.856175 65.973329 
L 232.018584 66.65452 
L 232.180992 66.660956 
L 232.343401 67.038961 
L 232.505809 66.879668 
L 232.668218 67.046431 
L 232.830626 67.542585 
L 232.993035 67.401795 
L 233.317852 67.602808 
L 233.48026 68.226074 
L 233.805077 68.326063 
L 234.129894 68.907035 
L 234.292303 68.655683 
L 234.617119 69.067248 
L 234.941936 69.414222 
L 235.266753 70.14196 
L 235.429162 70.205171 
L 235.916387 70.653169 
L 236.078796 70.564558 
L 236.403613 71.378378 
L 236.72843 71.681219 
L 236.890838 71.880852 
L 237.053247 71.790977 
L 237.215655 71.990726 
L 237.378064 72.709844 
L 237.540472 72.58411 
L 238.190106 73.317249 
L 238.352514 73.594346 
L 238.514923 74.202901 
L 238.677331 74.012347 
L 238.83974 74.709168 
L 239.002148 74.69733 
L 239.164557 74.506891 
L 239.326965 75.082691 
L 239.489374 74.987529 
L 239.814191 75.709405 
L 240.139008 75.831231 
L 240.301416 76.553222 
L 240.463825 76.273367 
L 240.626233 76.696655 
L 240.788642 76.568968 
L 240.95105 77.249584 
L 241.275867 77.70011 
L 241.438276 77.527025 
L 241.763092 78.507264 
L 241.925501 78.27545 
L 242.737543 79.724489 
L 243.224769 80.163063 
L 243.549586 80.482339 
L 243.711994 81.300296 
L 244.036811 81.320754 
L 244.19922 81.56498 
L 244.361628 82.063777 
L 244.524037 82.176868 
L 244.686445 82.519245 
L 244.848854 82.540392 
L 245.336079 83.416275 
L 245.823304 84.252966 
L 245.985713 84.014371 
L 246.472938 84.983807 
L 246.635347 85.055523 
L 247.122572 86.298263 
L 247.284981 85.813258 
L 247.447389 86.658224 
L 248.584248 87.971071 
L 248.746657 88.534459 
L 248.909065 88.535953 
L 249.071474 89.097846 
L 249.233882 89.205766 
L 249.396291 89.550096 
L 249.558699 89.610779 
L 249.883516 90.29174 
L 250.857967 91.663661 
L 251.182784 92.229577 
L 251.345193 92.347496 
L 252.157235 94.031107 
L 252.319643 93.933302 
L 252.806869 94.827803 
L 252.969277 95.021575 
L 253.456503 96.081001 
L 253.618911 96.162027 
L 254.106137 97.329027 
L 254.268545 97.089283 
L 254.430954 97.456485 
L 254.593362 97.527742 
L 255.080588 98.71428 
L 255.242996 98.716464 
L 255.567813 99.518561 
L 255.730221 99.675671 
L 255.89263 99.636135 
L 256.217447 100.554197 
L 256.379855 100.527188 
L 256.542264 101.222745 
L 256.704672 101.262856 
L 257.354306 102.15299 
L 257.516715 102.779934 
L 257.841532 103.123805 
L 258.00394 103.340218 
L 258.166349 103.864414 
L 258.328757 103.906134 
L 258.978391 104.914416 
L 259.140799 105.032564 
L 259.303208 105.75467 
L 260.277659 107.125097 
L 260.927293 108.37933 
L 261.089701 108.437369 
L 261.25211 108.65022 
L 261.576927 109.64609 
L 261.739335 109.650457 
L 262.226561 110.847799 
L 262.388969 110.698045 
L 262.551378 111.127194 
L 262.713786 111.080188 
L 262.876194 111.652885 
L 263.201011 112.098699 
L 263.36342 112.561407 
L 263.525828 112.618183 
L 263.688237 113.105602 
L 263.850645 113.029173 
L 264.337871 114.153764 
L 264.500279 114.223642 
L 265.637139 116.496385 
L 265.799547 116.458573 
L 266.286772 117.33572 
L 266.773998 117.956458 
L 267.098815 118.683161 
L 267.261223 119.204599 
L 267.423632 119.208851 
L 267.58604 119.448826 
L 267.910857 120.206905 
L 268.7229 121.277364 
L 269.047717 122.272774 
L 269.210125 122.119917 
L 269.69735 123.39024 
L 270.346984 124.18705 
L 270.509393 124.739175 
L 270.996618 125.135339 
L 271.159027 125.758145 
L 271.321435 125.807795 
L 271.646252 126.366355 
L 272.133478 127.50221 
L 272.295886 127.525541 
L 272.783112 128.585771 
L 272.94552 128.478886 
L 273.270337 129.359481 
L 273.432745 129.513947 
L 273.595154 129.514751 
L 273.919971 130.270187 
L 274.732013 131.71325 
L 274.894422 131.775197 
L 275.219239 132.507302 
L 276.031281 133.894164 
L 276.19369 134.506282 
L 276.356098 134.273319 
L 276.680915 135.05289 
L 277.16814 135.568811 
L 277.655366 136.5733 
L 277.980183 137.025551 
L 278.142591 137.039802 
L 278.467408 138.019351 
L 279.117042 138.887878 
L 279.604268 139.928571 
L 279.766676 140.014538 
L 281.065944 142.250504 
L 282.52762 144.605308 
L 282.852437 145.304773 
L 283.014846 145.362238 
L 283.826888 146.845181 
L 283.989296 146.843457 
L 284.151705 147.407879 
L 284.314113 147.395926 
L 284.63893 148.046201 
L 284.801339 148.098149 
L 285.126156 148.824278 
L 285.288564 148.97702 
L 285.613381 149.633731 
L 285.77579 149.662349 
L 286.912649 151.580073 
L 287.075058 151.732585 
L 287.237466 152.38171 
L 287.399874 152.502387 
L 287.562283 152.84235 
L 287.724691 152.899701 
L 287.8871 153.274603 
L 288.049508 153.29529 
L 288.374325 154.02751 
L 288.536734 154.146692 
L 289.023959 155.108083 
L 289.186368 155.180719 
L 289.348776 155.703651 
L 289.673593 156.058325 
L 290.972861 158.322334 
L 291.135269 158.116724 
L 291.460086 158.895491 
L 291.622495 159.082367 
L 291.947312 159.708966 
L 292.272129 160.009049 
L 292.759354 160.88769 
L 292.921763 161.019399 
L 293.24658 161.570834 
L 293.733805 162.347877 
L 294.058622 163.022976 
L 294.221031 163.025965 
L 294.383439 163.172501 
L 294.545847 163.745312 
L 294.708256 163.822201 
L 295.845115 165.613387 
L 296.007524 165.68993 
L 296.494749 166.599947 
L 296.657158 167.002202 
L 296.819566 166.793949 
L 297.631609 168.448828 
L 297.956425 168.377801 
L 298.606059 169.67134 
L 299.742919 171.221977 
L 299.905327 171.658827 
L 300.067736 171.561251 
L 300.392553 172.32002 
L 300.554961 172.356797 
L 300.71737 172.606541 
L 301.042187 173.355885 
L 301.204595 173.373469 
L 301.367004 173.584366 
L 301.69182 174.273372 
L 301.854229 174.191887 
L 302.016637 174.790903 
L 302.179046 174.830783 
L 303.315905 176.341655 
L 303.803131 177.141799 
L 304.127948 177.484635 
L 304.290356 177.619103 
L 304.452765 178.23352 
L 304.615173 178.280411 
L 304.93999 178.698757 
L 305.914441 179.854609 
L 306.564075 180.904496 
L 306.726483 181.364332 
L 306.888892 181.137115 
L 307.700934 182.511679 
L 307.863343 182.532826 
L 308.18816 183.124602 
L 308.350568 183.488241 
L 308.675385 183.674542 
L 309.000202 184.409406 
L 309.16261 184.305739 
L 309.487427 184.800858 
L 309.974653 185.434238 
L 310.29947 185.813277 
L 310.461878 186.355747 
L 310.624287 186.233232 
L 310.786695 186.427119 
L 311.273921 187.309323 
L 311.436329 187.276338 
L 311.761146 187.902132 
L 311.923555 187.95546 
L 312.573188 188.970408 
L 313.547639 190.219469 
L 313.710048 190.245098 
L 313.872456 190.721253 
L 314.034865 190.781362 
L 314.52209 191.43428 
L 315.496541 192.481064 
L 315.821358 193.065598 
L 316.146175 193.238108 
L 316.470992 193.886774 
L 316.795809 194.03354 
L 317.120626 194.671402 
L 317.607851 195.30007 
L 317.77026 195.587395 
L 317.932668 195.470167 
L 318.095077 195.93322 
L 318.257485 195.943909 
L 318.582302 196.371564 
L 318.744711 196.433166 
L 319.231936 197.133895 
L 319.88157 197.891055 
L 320.368795 198.658443 
L 320.531204 198.560293 
L 320.693612 199.041506 
L 320.856021 199.040126 
L 322.317697 200.989571 
L 322.480106 200.991985 
L 322.804922 201.531697 
L 322.967331 201.7565 
L 323.129739 201.692484 
L 323.454556 202.189212 
L 323.941782 202.828109 
L 324.10419 202.829373 
L 324.591416 203.486199 
L 324.753824 203.669167 
L 324.916233 204.024991 
L 325.078641 204.040966 
L 325.403458 204.383228 
L 325.565867 204.359093 
L 325.728275 204.859614 
L 325.890684 204.966614 
L 326.053092 205.259341 
L 326.2155 205.235435 
L 326.377909 205.465066 
L 326.540317 205.909271 
L 326.702726 205.753195 
L 327.027543 206.316813 
L 327.35236 206.545064 
L 327.839585 207.20074 
L 328.001994 207.279238 
L 328.814036 208.216263 
L 328.976445 208.323723 
L 329.301262 208.782639 
L 329.626078 208.997443 
L 329.788487 209.363496 
L 329.950895 209.334189 
L 330.600529 210.181224 
L 331.737389 211.320411 
L 331.899797 211.580728 
L 332.062206 211.549007 
L 332.874248 212.543268 
L 333.361473 213.039421 
L 333.68629 213.531207 
L 333.848699 213.355709 
L 334.498333 214.377208 
L 335.147967 214.790726 
L 335.635192 215.294695 
L 335.797601 215.345609 
L 335.960009 215.519269 
L 336.122418 215.904974 
L 336.284826 215.938993 
L 339.370587 219.019121 
L 339.532996 219.018202 
L 339.857813 219.563775 
L 340.020221 219.429077 
L 340.345038 219.881212 
L 340.507446 219.987407 
L 340.669855 220.359091 
L 340.994672 220.554128 
L 341.319489 220.838695 
L 341.644306 221.172452 
L 341.806714 221.163373 
L 341.969123 221.628035 
L 342.131531 221.609072 
L 342.943574 222.312214 
L 343.105982 222.329683 
L 343.430799 222.875257 
L 343.755616 223.050985 
L 343.918024 223.451402 
L 344.080433 223.415428 
L 344.242841 223.686549 
L 344.40525 223.657816 
L 344.567658 223.911927 
L 344.730067 223.951118 
L 344.892475 224.314527 
L 345.054884 224.320733 
L 345.379701 224.653571 
L 345.866926 225.103063 
L 346.029335 225.040541 
L 346.678969 225.687827 
L 346.841377 225.80655 
L 347.003786 226.166396 
L 347.328602 226.277648 
L 347.491011 226.559917 
L 347.815828 226.687604 
L 348.465462 227.298458 
L 348.62787 227.255589 
L 348.952687 227.775418 
L 349.115096 227.835986 
L 349.277504 228.071593 
L 349.439913 227.96126 
L 349.76473 228.445116 
L 350.089547 228.737958 
L 350.251955 228.641187 
L 350.576772 229.024364 
L 351.388814 229.878869 
L 351.551223 229.885765 
L 352.363265 230.723261 
L 352.525674 230.644764 
L 352.688082 230.721077 
L 353.012899 231.113219 
L 353.175308 231.281936 
L 353.337716 231.230678 
L 353.500125 231.344573 
L 353.662533 231.760161 
L 353.824942 231.732118 
L 353.98735 231.857621 
L 354.149759 232.167703 
L 354.312167 231.976344 
L 354.636984 232.298608 
L 355.124209 232.836941 
L 355.286618 232.873949 
L 355.449026 233.196902 
L 355.936252 233.379756 
L 356.261069 233.696963 
L 356.423477 233.980036 
L 356.585886 233.921882 
L 356.748294 234.073819 
L 356.910703 234.03187 
L 357.23552 234.461708 
L 357.560337 234.591809 
L 357.722745 234.93614 
L 358.372379 235.278632 
L 358.697196 235.687323 
L 359.022013 235.688817 
L 359.509238 236.148538 
L 359.671647 236.11291 
L 359.834055 236.520107 
L 360.158872 236.541024 
L 360.970915 237.381164 
L 361.133323 237.342662 
L 361.45814 237.66642 
L 361.782957 237.834103 
L 361.945365 237.829046 
L 362.107774 238.135565 
L 362.270182 238.180733 
L 362.432591 238.460358 
L 362.594999 238.340026 
L 362.919816 238.716422 
L 363.082225 238.768485 
L 363.407042 239.004322 
L 363.56945 239.060293 
L 363.731859 239.234872 
L 363.894267 239.212001 
L 364.219084 239.592304 
L 364.868718 240.131097 
L 365.031126 240.095239 
L 365.355943 240.419112 
L 365.843169 240.703564 
L 366.167986 241.032954 
L 366.492803 241.160871 
L 366.81762 241.325796 
L 367.142437 241.694836 
L 367.304845 241.660587 
L 367.467254 241.841832 
L 367.629662 241.758278 
L 367.954479 242.234318 
L 368.116888 242.19122 
L 368.441704 242.412115 
L 368.92893 242.759204 
L 369.253747 242.997225 
L 369.740972 243.39925 
L 370.228198 243.612216 
L 370.877832 244.152847 
L 371.689874 244.562458 
L 372.014691 244.901617 
L 372.339508 244.979654 
L 372.664325 245.336053 
L 372.989142 245.31594 
L 373.15155 245.707392 
L 373.638776 245.806347 
L 374.28841 246.315257 
L 374.450818 246.304109 
L 374.775635 246.609708 
L 375.100452 246.756704 
L 375.262861 246.742798 
L 375.587677 247.103104 
L 376.074903 247.366753 
L 376.562128 247.613278 
L 377.049354 247.881525 
L 377.374171 248.150692 
L 377.698988 248.476059 
L 377.861396 248.431696 
L 378.51103 248.842226 
L 378.673439 248.838204 
L 378.835847 249.096107 
L 379.160664 249.204141 
L 379.323072 249.395155 
L 379.485481 249.326312 
L 379.810298 249.560999 
L 379.972706 249.588008 
L 380.135115 249.876598 
L 380.459932 249.977161 
L 380.62234 250.117836 
L 380.784749 250.101401 
L 381.596791 250.644561 
L 381.7592 250.709726 
L 382.084017 250.936023 
L 382.246425 250.825346 
L 382.571242 251.178296 
L 382.73365 251.066584 
L 382.896059 251.383332 
L 383.220876 251.366207 
L 383.545693 251.706055 
L 386.469045 253.272323 
L 386.631454 253.22796 
L 386.956271 253.514481 
L 387.118679 253.558269 
L 387.443496 253.74641 
L 387.930722 253.983511 
L 388.255539 254.172226 
L 389.554806 254.835833 
L 389.717215 255.098793 
L 390.691666 255.321528 
L 391.178891 255.674133 
L 391.3413 255.721255 
L 391.503708 255.972377 
L 391.666117 255.817911 
L 391.990934 256.129371 
L 392.965385 256.554498 
L 393.615018 256.974453 
L 393.939835 257.016057 
L 394.264652 257.186614 
L 394.427061 257.059731 
L 394.751878 257.45624 
L 395.076695 257.551517 
L 395.239103 257.599098 
L 395.401512 257.786319 
L 395.56392 257.722303 
L 398.162456 258.95355 
L 398.324864 258.967111 
L 398.487273 259.296156 
L 398.487273 259.296156 
" clip-path="url(#p030e24bbdf)" style="fill: none; stroke: #ff0000; stroke-width: 1.5; stroke-linecap: square"/>
   </g>
   <g id="patch_3">
    <path d="M 57.6 307.584 
L 57.6 41.472 
" style="fill: none; stroke: #000000; stroke-width: 0.8; stroke-linejoin: miter; stroke-linecap: square"/>
   </g>
   <g id="patch_4">
    <path d="M 414.72 307.584 
L 414.72 41.472 
" style="fill: none; stroke: #000000; stroke-width: 0.8; stroke-linejoin: miter; stroke-linecap: square"/>
   </g>
   <g id="patch_5">
    <path d="M 57.6 307.584 
L 414.72 307.584 
" style="fill: none; stroke: #000000; stroke-width: 0.8; stroke-linejoin: miter; stroke-linecap: square"/>
   </g>
   <g id="patch_6">
    <path d="M 57.6 41.472 
L 414.72 41.472 
" style="fill: none; stroke: #000000; stroke-width: 0.8; stroke-linejoin: miter; stroke-linecap: square"/>
   </g>
   <g id="legend_1">
    <g id="patch_7">
     <path d="M 243.16 121.6832 
L 483.36 121.6832 
Q 485.36 121.6832 485.36 119.6832 
L 485.36 75.0832 
Q 485.36 73.0832 483.36 73.0832 
L 243.16 73.0832 
Q 241.16 73.0832 241.16 75.0832 
L 241.16 119.6832 
Q 241.16 121.6832 243.16 121.6832 
z
" style="fill: #ffffff; opacity: 0.8; stroke: #cccccc; stroke-linejoin: miter"/>
    </g>
    <g id="line2d_15">
     <path d="M 245.16 81.3832 
L 255.16 81.3832 
L 265.16 81.3832 
" style="fill: none; stroke: #8000ff; stroke-width: 1.5; stroke-linecap: square"/>
    </g>
    <g id="text_15">
     <!-- $\rho'$: 8e-04, E=8e-01eV, s_tun=1e+10$s^-1$ -->
     <g transform="translate(273.16 84.8832) scale(0.1 -0.1)">
      <defs>
       <path id="DejaVuSans-Oblique-3c1" d="M 1203 2875 
Q 1453 3194 1981 3475 
Q 2188 3584 2756 3584 
Q 3394 3584 3694 3078 
Q 3994 2572 3834 1747 
Q 3672 922 3175 415 
Q 2678 -91 2041 -91 
Q 1656 -91 1409 63 
Q 1163 213 1044 525 
L 681 -1331 
L 103 -1331 
L 697 1716 
Q 838 2438 1203 2875 
z
M 3238 1747 
Q 3359 2381 3169 2744 
Q 2978 3103 2522 3103 
Q 2066 3103 1734 2744 
Q 1403 2381 1281 1747 
Q 1156 1113 1347 750 
Q 1538 391 1994 391 
Q 2450 391 2781 750 
Q 3113 1113 3238 1747 
z
" transform="scale(0.015625)"/>
       <path id="Cmsy10-30" d="M 225 347 
Q 184 359 184 409 
L 966 3316 
Q 1003 3434 1093 3506 
Q 1184 3578 1300 3578 
Q 1450 3578 1564 3479 
Q 1678 3381 1678 3231 
Q 1678 3166 1644 3084 
L 488 319 
Q 466 275 428 275 
Q 394 275 320 306 
Q 247 338 225 347 
z
" transform="scale(0.015625)"/>
       <path id="DejaVuSans-3a" d="M 750 794 
L 1409 794 
L 1409 0 
L 750 0 
L 750 794 
z
M 750 3309 
L 1409 3309 
L 1409 2516 
L 750 2516 
L 750 3309 
z
" transform="scale(0.015625)"/>
       <path id="DejaVuSans-2d" d="M 313 2009 
L 1997 2009 
L 1997 1497 
L 313 1497 
L 313 2009 
z
" transform="scale(0.015625)"/>
       <path id="DejaVuSans-2c" d="M 750 794 
L 1409 794 
L 1409 256 
L 897 -744 
L 494 -744 
L 750 256 
L 750 794 
z
" transform="scale(0.015625)"/>
       <path id="DejaVuSans-45" d="M 628 4666 
L 3578 4666 
L 3578 4134 
L 1259 4134 
L 1259 2753 
L 3481 2753 
L 3481 2222 
L 1259 2222 
L 1259 531 
L 3634 531 
L 3634 0 
L 628 0 
L 628 4666 
z
" transform="scale(0.015625)"/>
       <path id="DejaVuSans-3d" d="M 678 2906 
L 4684 2906 
L 4684 2381 
L 678 2381 
L 678 2906 
z
M 678 1631 
L 4684 1631 
L 4684 1100 
L 678 1100 
L 678 1631 
z
" transform="scale(0.015625)"/>
       <path id="DejaVuSans-56" d="M 1831 0 
L 50 4666 
L 709 4666 
L 2188 738 
L 3669 4666 
L 4325 4666 
L 2547 0 
L 1831 0 
z
" transform="scale(0.015625)"/>
       <path id="DejaVuSans-5f" d="M 3263 -1063 
L 3263 -1509 
L -63 -1509 
L -63 -1063 
L 3263 -1063 
z
" transform="scale(0.015625)"/>
       <path id="DejaVuSans-2b" d="M 2944 4013 
L 2944 2272 
L 4684 2272 
L 4684 1741 
L 2944 1741 
L 2944 0 
L 2419 0 
L 2419 1741 
L 678 1741 
L 678 2272 
L 2419 2272 
L 2419 4013 
L 2944 4013 
z
" transform="scale(0.015625)"/>
       <path id="DejaVuSans-Oblique-73" d="M 3200 3397 
L 3091 2853 
Q 2863 2978 2609 3040 
Q 2356 3103 2088 3103 
Q 1634 3103 1373 2948 
Q 1113 2794 1113 2528 
Q 1113 2219 1719 2053 
Q 1766 2041 1788 2034 
L 1972 1978 
Q 2547 1819 2739 1644 
Q 2931 1469 2931 1166 
Q 2931 609 2489 259 
Q 2047 -91 1331 -91 
Q 1053 -91 747 -37 
Q 441 16 72 128 
L 184 722 
Q 500 559 806 475 
Q 1113 391 1394 391 
Q 1816 391 2080 572 
Q 2344 753 2344 1031 
Q 2344 1331 1650 1516 
L 1591 1531 
L 1394 1581 
Q 956 1697 753 1886 
Q 550 2075 550 2369 
Q 550 2928 970 3256 
Q 1391 3584 2113 3584 
Q 2397 3584 2667 3537 
Q 2938 3491 3200 3397 
z
" transform="scale(0.015625)"/>
      </defs>
      <use xlink:href="#DejaVuSans-Oblique-3c1" transform="translate(0 0.584375)"/>
      <use xlink:href="#Cmsy10-30" transform="translate(68.126458 38.865625) scale(0.7)"/>
      <use xlink:href="#DejaVuSans-3a" transform="translate(90.103997 0.584375)"/>
      <use xlink:href="#DejaVuSans-20" transform="translate(123.795404 0.584375)"/>
      <use xlink:href="#DejaVuSans-38" transform="translate(155.582513 0.584375)"/>
      <use xlink:href="#DejaVuSans-65" transform="translate(219.20556 0.584375)"/>
      <use xlink:href="#DejaVuSans-2d" transform="translate(280.728997 0.584375)"/>
      <use xlink:href="#DejaVuSans-30" transform="translate(316.812982 0.584375)"/>
      <use xlink:href="#DejaVuSans-34" transform="translate(380.436029 0.584375)"/>
      <use xlink:href="#DejaVuSans-2c" transform="translate(444.059076 0.584375)"/>
      <use xlink:href="#DejaVuSans-20" transform="translate(475.846185 0.584375)"/>
      <use xlink:href="#DejaVuSans-45" transform="translate(507.633294 0.584375)"/>
      <use xlink:href="#DejaVuSans-3d" transform="translate(570.816888 0.584375)"/>
      <use xlink:href="#DejaVuSans-38" transform="translate(654.605951 0.584375)"/>
      <use xlink:href="#DejaVuSans-65" transform="translate(718.228997 0.584375)"/>
      <use xlink:href="#DejaVuSans-2d" transform="translate(779.752435 0.584375)"/>
      <use xlink:href="#DejaVuSans-30" transform="translate(815.836419 0.584375)"/>
      <use xlink:href="#DejaVuSans-31" transform="translate(879.459466 0.584375)"/>
      <use xlink:href="#DejaVuSans-65" transform="translate(943.082513 0.584375)"/>
      <use xlink:href="#DejaVuSans-56" transform="translate(1004.605951 0.584375)"/>
      <use xlink:href="#DejaVuSans-2c" transform="translate(1073.014154 0.584375)"/>
      <use xlink:href="#DejaVuSans-20" transform="translate(1104.801263 0.584375)"/>
      <use xlink:href="#DejaVuSans-73" transform="translate(1136.588372 0.584375)"/>
      <use xlink:href="#DejaVuSans-5f" transform="translate(1188.687982 0.584375)"/>
      <use xlink:href="#DejaVuSans-74" transform="translate(1238.687982 0.584375)"/>
      <use xlink:href="#DejaVuSans-75" transform="translate(1277.896966 0.584375)"/>
      <use xlink:href="#DejaVuSans-6e" transform="translate(1341.275872 0.584375)"/>
      <use xlink:href="#DejaVuSans-3d" transform="translate(1404.654779 0.584375)"/>
      <use xlink:href="#DejaVuSans-31" transform="translate(1488.443841 0.584375)"/>
      <use xlink:href="#DejaVuSans-65" transform="translate(1552.066888 0.584375)"/>
      <use xlink:href="#DejaVuSans-2b" transform="translate(1613.590326 0.584375)"/>
      <use xlink:href="#DejaVuSans-31" transform="translate(1697.379388 0.584375)"/>
      <use xlink:href="#DejaVuSans-30" transform="translate(1761.002435 0.584375)"/>
      <use xlink:href="#DejaVuSans-Oblique-73" transform="translate(1824.625482 0.584375)"/>
      <use xlink:href="#DejaVuSans-2212" transform="translate(1895.012682 38.865625) scale(0.7)"/>
      <use xlink:href="#DejaVuSans-31" transform="translate(1970.037096 0.584375)"/>
     </g>
    </g>
    <g id="line2d_16">
     <path d="M 245.16 96.5832 
L 255.16 96.5832 
L 265.16 96.5832 
" style="fill: none; stroke: #80ffb4; stroke-width: 1.5; stroke-linecap: square"/>
    </g>
    <g id="text_16">
     <!-- $\rho'$: 3e-04, E=8e-01eV, s_tun=1e+10$s^-1$ -->
     <g transform="translate(273.16 100.0832) scale(0.1 -0.1)">
      <defs>
       <path id="DejaVuSans-33" d="M 2597 2516 
Q 3050 2419 3304 2112 
Q 3559 1806 3559 1356 
Q 3559 666 3084 287 
Q 2609 -91 1734 -91 
Q 1441 -91 1130 -33 
Q 819 25 488 141 
L 488 750 
Q 750 597 1062 519 
Q 1375 441 1716 441 
Q 2309 441 2620 675 
Q 2931 909 2931 1356 
Q 2931 1769 2642 2001 
Q 2353 2234 1838 2234 
L 1294 2234 
L 1294 2753 
L 1863 2753 
Q 2328 2753 2575 2939 
Q 2822 3125 2822 3475 
Q 2822 3834 2567 4026 
Q 2313 4219 1838 4219 
Q 1578 4219 1281 4162 
Q 984 4106 628 3988 
L 628 4550 
Q 988 4650 1302 4700 
Q 1616 4750 1894 4750 
Q 2613 4750 3031 4423 
Q 3450 4097 3450 3541 
Q 3450 3153 3228 2886 
Q 3006 2619 2597 2516 
z
" transform="scale(0.015625)"/>
      </defs>
      <use xlink:href="#DejaVuSans-Oblique-3c1" transform="translate(0 0.584375)"/>
      <use xlink:href="#Cmsy10-30" transform="translate(68.126458 38.865625) scale(0.7)"/>
      <use xlink:href="#DejaVuSans-3a" transform="translate(90.103997 0.584375)"/>
      <use xlink:href="#DejaVuSans-20" transform="translate(123.795404 0.584375)"/>
      <use xlink:href="#DejaVuSans-33" transform="translate(155.582513 0.584375)"/>
      <use xlink:href="#DejaVuSans-65" transform="translate(219.20556 0.584375)"/>
      <use xlink:href="#DejaVuSans-2d" transform="translate(280.728997 0.584375)"/>
      <use xlink:href="#DejaVuSans-30" transform="translate(316.812982 0.584375)"/>
      <use xlink:href="#DejaVuSans-34" transform="translate(380.436029 0.584375)"/>
      <use xlink:href="#DejaVuSans-2c" transform="translate(444.059076 0.584375)"/>
      <use xlink:href="#DejaVuSans-20" transform="translate(475.846185 0.584375)"/>
      <use xlink:href="#DejaVuSans-45" transform="translate(507.633294 0.584375)"/>
      <use xlink:href="#DejaVuSans-3d" transform="translate(570.816888 0.584375)"/>
      <use xlink:href="#DejaVuSans-38" transform="translate(654.605951 0.584375)"/>
      <use xlink:href="#DejaVuSans-65" transform="translate(718.228997 0.584375)"/>
      <use xlink:href="#DejaVuSans-2d" transform="translate(779.752435 0.584375)"/>
      <use xlink:href="#DejaVuSans-30" transform="translate(815.836419 0.584375)"/>
      <use xlink:href="#DejaVuSans-31" transform="translate(879.459466 0.584375)"/>
      <use xlink:href="#DejaVuSans-65" transform="translate(943.082513 0.584375)"/>
      <use xlink:href="#DejaVuSans-56" transform="translate(1004.605951 0.584375)"/>
      <use xlink:href="#DejaVuSans-2c" transform="translate(1073.014154 0.584375)"/>
      <use xlink:href="#DejaVuSans-20" transform="translate(1104.801263 0.584375)"/>
      <use xlink:href="#DejaVuSans-73" transform="translate(1136.588372 0.584375)"/>
      <use xlink:href="#DejaVuSans-5f" transform="translate(1188.687982 0.584375)"/>
      <use xlink:href="#DejaVuSans-74" transform="translate(1238.687982 0.584375)"/>
      <use xlink:href="#DejaVuSans-75" transform="translate(1277.896966 0.584375)"/>
      <use xlink:href="#DejaVuSans-6e" transform="translate(1341.275872 0.584375)"/>
      <use xlink:href="#DejaVuSans-3d" transform="translate(1404.654779 0.584375)"/>
      <use xlink:href="#DejaVuSans-31" transform="translate(1488.443841 0.584375)"/>
      <use xlink:href="#DejaVuSans-65" transform="translate(1552.066888 0.584375)"/>
      <use xlink:href="#DejaVuSans-2b" transform="translate(1613.590326 0.584375)"/>
      <use xlink:href="#DejaVuSans-31" transform="translate(1697.379388 0.584375)"/>
      <use xlink:href="#DejaVuSans-30" transform="translate(1761.002435 0.584375)"/>
      <use xlink:href="#DejaVuSans-Oblique-73" transform="translate(1824.625482 0.584375)"/>
      <use xlink:href="#DejaVuSans-2212" transform="translate(1895.012682 38.865625) scale(0.7)"/>
      <use xlink:href="#DejaVuSans-31" transform="translate(1970.037096 0.584375)"/>
     </g>
    </g>
    <g id="line2d_17">
     <path d="M 245.16 111.7832 
L 255.16 111.7832 
L 265.16 111.7832 
" style="fill: none; stroke: #ff0000; stroke-width: 1.5; stroke-linecap: square"/>
    </g>
    <g id="text_17">
     <!-- $\rho'$: 3e-04, E=1e+00eV, s_tun=1e+12$s^-1$ -->
     <g transform="translate(273.16 115.2832) scale(0.1 -0.1)">
      <use xlink:href="#DejaVuSans-Oblique-3c1" transform="translate(0 0.584375)"/>
      <use xlink:href="#Cmsy10-30" transform="translate(68.126458 38.865625) scale(0.7)"/>
      <use xlink:href="#DejaVuSans-3a" transform="translate(90.103997 0.584375)"/>
      <use xlink:href="#DejaVuSans-20" transform="translate(123.795404 0.584375)"/>
      <use xlink:href="#DejaVuSans-33" transform="translate(155.582513 0.584375)"/>
      <use xlink:href="#DejaVuSans-65" transform="translate(219.20556 0.584375)"/>
      <use xlink:href="#DejaVuSans-2d" transform="translate(280.728997 0.584375)"/>
      <use xlink:href="#DejaVuSans-30" transform="translate(316.812982 0.584375)"/>
      <use xlink:href="#DejaVuSans-34" transform="translate(380.436029 0.584375)"/>
      <use xlink:href="#DejaVuSans-2c" transform="translate(444.059076 0.584375)"/>
      <use xlink:href="#DejaVuSans-20" transform="translate(475.846185 0.584375)"/>
      <use xlink:href="#DejaVuSans-45" transform="translate(507.633294 0.584375)"/>
      <use xlink:href="#DejaVuSans-3d" transform="translate(570.816888 0.584375)"/>
      <use xlink:href="#DejaVuSans-31" transform="translate(654.605951 0.584375)"/>
      <use xlink:href="#DejaVuSans-65" transform="translate(718.228997 0.584375)"/>
      <use xlink:href="#DejaVuSans-2b" transform="translate(779.752435 0.584375)"/>
      <use xlink:href="#DejaVuSans-30" transform="translate(863.541497 0.584375)"/>
      <use xlink:href="#DejaVuSans-30" transform="translate(927.164544 0.584375)"/>
      <use xlink:href="#DejaVuSans-65" transform="translate(990.787591 0.584375)"/>
      <use xlink:href="#DejaVuSans-56" transform="translate(1052.311029 0.584375)"/>
      <use xlink:href="#DejaVuSans-2c" transform="translate(1120.719232 0.584375)"/>
      <use xlink:href="#DejaVuSans-20" transform="translate(1152.506341 0.584375)"/>
      <use xlink:href="#DejaVuSans-73" transform="translate(1184.293451 0.584375)"/>
      <use xlink:href="#DejaVuSans-5f" transform="translate(1236.39306 0.584375)"/>
      <use xlink:href="#DejaVuSans-74" transform="translate(1286.39306 0.584375)"/>
      <use xlink:href="#DejaVuSans-75" transform="translate(1325.602044 0.584375)"/>
      <use xlink:href="#DejaVuSans-6e" transform="translate(1388.980951 0.584375)"/>
      <use xlink:href="#DejaVuSans-3d" transform="translate(1452.359857 0.584375)"/>
      <use xlink:href="#DejaVuSans-31" transform="translate(1536.148919 0.584375)"/>
      <use xlink:href="#DejaVuSans-65" transform="translate(1599.771966 0.584375)"/>
      <use xlink:href="#DejaVuSans-2b" transform="translate(1661.295404 0.584375)"/>
      <use xlink:href="#DejaVuSans-31" transform="translate(1745.084466 0.584375)"/>
      <use xlink:href="#DejaVuSans-32" transform="translate(1808.707513 0.584375)"/>
      <use xlink:href="#DejaVuSans-Oblique-73" transform="translate(1872.33056 0.584375)"/>
      <use xlink:href="#DejaVuSans-2212" transform="translate(1942.71776 38.865625) scale(0.7)"/>
      <use xlink:href="#DejaVuSans-31" transform="translate(2017.742174 0.584375)"/>
     </g>
    </g>
   </g>
  </g>
 </g>
 <defs>
  <clipPath id="p030e24bbdf">
   <rect x="57.6" y="41.472" width="357.12" height="266.112"/>
  </clipPath>
 </defs>
</svg>
