<?xml version="1.0" encoding="utf-8" standalone="no"?>
<!DOCTYPE svg PUBLIC "-//W3C//DTD SVG 1.1//EN"
  "http://www.w3.org/Graphics/SVG/1.1/DTD/svg11.dtd">
<svg xmlns:xlink="http://www.w3.org/1999/xlink" width="460.8pt" height="345.6pt" viewBox="0 0 460.8 345.6" xmlns="http://www.w3.org/2000/svg" version="1.1">
 <metadata>
  <rdf:RDF xmlns:dc="http://purl.org/dc/elements/1.1/" xmlns:cc="http://creativecommons.org/ns#" xmlns:rdf="http://www.w3.org/1999/02/22-rdf-syntax-ns#">
   <cc:Work>
    <dc:type rdf:resource="http://purl.org/dc/dcmitype/StillImage"/>
    <dc:date>2025-03-25T11:39:29.665952</dc:date>
    <dc:format>image/svg+xml</dc:format>
    <dc:creator>
     <cc:Agent>
      <dc:title>Matplotlib v3.10.0, https://matplotlib.org/</dc:title>
     </cc:Agent>
    </dc:creator>
   </cc:Work>
  </rdf:RDF>
 </metadata>
 <defs>
  <style type="text/css">*{stroke-linejoin: round; stroke-linecap: butt}</style>
 </defs>
 <g id="figure_1">
  <g id="patch_1">
   <path d="M 0 345.6 
L 460.8 345.6 
L 460.8 0 
L 0 0 
z
" style="fill: #ffffff"/>
  </g>
  <g id="axes_1">
   <g id="patch_2">
    <path d="M 57.6 307.584 
L 414.72 307.584 
L 414.72 41.472 
L 57.6 41.472 
z
" style="fill: #ffffff"/>
   </g>
   <g id="matplotlib.axis_1">
    <g id="xtick_1">
     <g id="line2d_1">
      <defs>
       <path id="m3ab44382b6" d="M 0 0 
L 0 3.5 
" style="stroke: #000000; stroke-width: 0.8"/>
      </defs>
      <g>
       <use xlink:href="#m3ab44382b6" x="140.993219" y="307.584" style="stroke: #000000; stroke-width: 0.8"/>
      </g>
     </g>
     <g id="text_1">
      <!-- $\mathdefault{10^{12}}$ -->
      <g transform="translate(129.943219 322.182437) scale(0.1 -0.1)">
       <defs>
        <path id="DejaVuSans-31" d="M 794 531 
L 1825 531 
L 1825 4091 
L 703 3866 
L 703 4441 
L 1819 4666 
L 2450 4666 
L 2450 531 
L 3481 531 
L 3481 0 
L 794 0 
L 794 531 
z
" transform="scale(0.015625)"/>
        <path id="DejaVuSans-30" d="M 2034 4250 
Q 1547 4250 1301 3770 
Q 1056 3291 1056 2328 
Q 1056 1369 1301 889 
Q 1547 409 2034 409 
Q 2525 409 2770 889 
Q 3016 1369 3016 2328 
Q 3016 3291 2770 3770 
Q 2525 4250 2034 4250 
z
M 2034 4750 
Q 2819 4750 3233 4129 
Q 3647 3509 3647 2328 
Q 3647 1150 3233 529 
Q 2819 -91 2034 -91 
Q 1250 -91 836 529 
Q 422 1150 422 2328 
Q 422 3509 836 4129 
Q 1250 4750 2034 4750 
z
" transform="scale(0.015625)"/>
        <path id="DejaVuSans-32" d="M 1228 531 
L 3431 531 
L 3431 0 
L 469 0 
L 469 531 
Q 828 903 1448 1529 
Q 2069 2156 2228 2338 
Q 2531 2678 2651 2914 
Q 2772 3150 2772 3378 
Q 2772 3750 2511 3984 
Q 2250 4219 1831 4219 
Q 1534 4219 1204 4116 
Q 875 4013 500 3803 
L 500 4441 
Q 881 4594 1212 4672 
Q 1544 4750 1819 4750 
Q 2544 4750 2975 4387 
Q 3406 4025 3406 3419 
Q 3406 3131 3298 2873 
Q 3191 2616 2906 2266 
Q 2828 2175 2409 1742 
Q 1991 1309 1228 531 
z
" transform="scale(0.015625)"/>
       </defs>
       <use xlink:href="#DejaVuSans-31" transform="translate(0 0.765625)"/>
       <use xlink:href="#DejaVuSans-30" transform="translate(63.623047 0.765625)"/>
       <use xlink:href="#DejaVuSans-31" transform="translate(128.203125 39.046875) scale(0.7)"/>
       <use xlink:href="#DejaVuSans-32" transform="translate(172.739258 39.046875) scale(0.7)"/>
      </g>
     </g>
    </g>
    <g id="xtick_2">
     <g id="line2d_2">
      <g>
       <use xlink:href="#m3ab44382b6" x="262.529051" y="307.584" style="stroke: #000000; stroke-width: 0.8"/>
      </g>
     </g>
     <g id="text_2">
      <!-- $\mathdefault{10^{13}}$ -->
      <g transform="translate(251.479051 322.182437) scale(0.1 -0.1)">
       <defs>
        <path id="DejaVuSans-33" d="M 2597 2516 
Q 3050 2419 3304 2112 
Q 3559 1806 3559 1356 
Q 3559 666 3084 287 
Q 2609 -91 1734 -91 
Q 1441 -91 1130 -33 
Q 819 25 488 141 
L 488 750 
Q 750 597 1062 519 
Q 1375 441 1716 441 
Q 2309 441 2620 675 
Q 2931 909 2931 1356 
Q 2931 1769 2642 2001 
Q 2353 2234 1838 2234 
L 1294 2234 
L 1294 2753 
L 1863 2753 
Q 2328 2753 2575 2939 
Q 2822 3125 2822 3475 
Q 2822 3834 2567 4026 
Q 2313 4219 1838 4219 
Q 1578 4219 1281 4162 
Q 984 4106 628 3988 
L 628 4550 
Q 988 4650 1302 4700 
Q 1616 4750 1894 4750 
Q 2613 4750 3031 4423 
Q 3450 4097 3450 3541 
Q 3450 3153 3228 2886 
Q 3006 2619 2597 2516 
z
" transform="scale(0.015625)"/>
       </defs>
       <use xlink:href="#DejaVuSans-31" transform="translate(0 0.765625)"/>
       <use xlink:href="#DejaVuSans-30" transform="translate(63.623047 0.765625)"/>
       <use xlink:href="#DejaVuSans-31" transform="translate(128.203125 39.046875) scale(0.7)"/>
       <use xlink:href="#DejaVuSans-33" transform="translate(172.739258 39.046875) scale(0.7)"/>
      </g>
     </g>
    </g>
    <g id="xtick_3">
     <g id="line2d_3">
      <g>
       <use xlink:href="#m3ab44382b6" x="384.064883" y="307.584" style="stroke: #000000; stroke-width: 0.8"/>
      </g>
     </g>
     <g id="text_3">
      <!-- $\mathdefault{10^{14}}$ -->
      <g transform="translate(373.014883 322.182437) scale(0.1 -0.1)">
       <defs>
        <path id="DejaVuSans-34" d="M 2419 4116 
L 825 1625 
L 2419 1625 
L 2419 4116 
z
M 2253 4666 
L 3047 4666 
L 3047 1625 
L 3713 1625 
L 3713 1100 
L 3047 1100 
L 3047 0 
L 2419 0 
L 2419 1100 
L 313 1100 
L 313 1709 
L 2253 4666 
z
" transform="scale(0.015625)"/>
       </defs>
       <use xlink:href="#DejaVuSans-31" transform="translate(0 0.684375)"/>
       <use xlink:href="#DejaVuSans-30" transform="translate(63.623047 0.684375)"/>
       <use xlink:href="#DejaVuSans-31" transform="translate(128.203125 38.965625) scale(0.7)"/>
       <use xlink:href="#DejaVuSans-34" transform="translate(172.739258 38.965625) scale(0.7)"/>
      </g>
     </g>
    </g>
    <g id="xtick_4">
     <g id="line2d_4">
      <defs>
       <path id="ma93163aa3b" d="M 0 0 
L 0 2 
" style="stroke: #000000; stroke-width: 0.6"/>
      </defs>
      <g>
       <use xlink:href="#ma93163aa3b" x="77.444716" y="307.584" style="stroke: #000000; stroke-width: 0.6"/>
      </g>
     </g>
    </g>
    <g id="xtick_5">
     <g id="line2d_5">
      <g>
       <use xlink:href="#ma93163aa3b" x="92.629249" y="307.584" style="stroke: #000000; stroke-width: 0.6"/>
      </g>
     </g>
    </g>
    <g id="xtick_6">
     <g id="line2d_6">
      <g>
       <use xlink:href="#ma93163aa3b" x="104.407288" y="307.584" style="stroke: #000000; stroke-width: 0.6"/>
      </g>
     </g>
    </g>
    <g id="xtick_7">
     <g id="line2d_7">
      <g>
       <use xlink:href="#ma93163aa3b" x="114.030647" y="307.584" style="stroke: #000000; stroke-width: 0.6"/>
      </g>
     </g>
    </g>
    <g id="xtick_8">
     <g id="line2d_8">
      <g>
       <use xlink:href="#ma93163aa3b" x="122.16708" y="307.584" style="stroke: #000000; stroke-width: 0.6"/>
      </g>
     </g>
    </g>
    <g id="xtick_9">
     <g id="line2d_9">
      <g>
       <use xlink:href="#ma93163aa3b" x="129.21518" y="307.584" style="stroke: #000000; stroke-width: 0.6"/>
      </g>
     </g>
    </g>
    <g id="xtick_10">
     <g id="line2d_10">
      <g>
       <use xlink:href="#ma93163aa3b" x="135.432044" y="307.584" style="stroke: #000000; stroke-width: 0.6"/>
      </g>
     </g>
    </g>
    <g id="xtick_11">
     <g id="line2d_11">
      <g>
       <use xlink:href="#ma93163aa3b" x="177.57915" y="307.584" style="stroke: #000000; stroke-width: 0.6"/>
      </g>
     </g>
    </g>
    <g id="xtick_12">
     <g id="line2d_12">
      <g>
       <use xlink:href="#ma93163aa3b" x="198.980548" y="307.584" style="stroke: #000000; stroke-width: 0.6"/>
      </g>
     </g>
    </g>
    <g id="xtick_13">
     <g id="line2d_13">
      <g>
       <use xlink:href="#ma93163aa3b" x="214.165081" y="307.584" style="stroke: #000000; stroke-width: 0.6"/>
      </g>
     </g>
    </g>
    <g id="xtick_14">
     <g id="line2d_14">
      <g>
       <use xlink:href="#ma93163aa3b" x="225.94312" y="307.584" style="stroke: #000000; stroke-width: 0.6"/>
      </g>
     </g>
    </g>
    <g id="xtick_15">
     <g id="line2d_15">
      <g>
       <use xlink:href="#ma93163aa3b" x="235.566479" y="307.584" style="stroke: #000000; stroke-width: 0.6"/>
      </g>
     </g>
    </g>
    <g id="xtick_16">
     <g id="line2d_16">
      <g>
       <use xlink:href="#ma93163aa3b" x="243.702913" y="307.584" style="stroke: #000000; stroke-width: 0.6"/>
      </g>
     </g>
    </g>
    <g id="xtick_17">
     <g id="line2d_17">
      <g>
       <use xlink:href="#ma93163aa3b" x="250.751012" y="307.584" style="stroke: #000000; stroke-width: 0.6"/>
      </g>
     </g>
    </g>
    <g id="xtick_18">
     <g id="line2d_18">
      <g>
       <use xlink:href="#ma93163aa3b" x="256.967877" y="307.584" style="stroke: #000000; stroke-width: 0.6"/>
      </g>
     </g>
    </g>
    <g id="xtick_19">
     <g id="line2d_19">
      <g>
       <use xlink:href="#ma93163aa3b" x="299.114982" y="307.584" style="stroke: #000000; stroke-width: 0.6"/>
      </g>
     </g>
    </g>
    <g id="xtick_20">
     <g id="line2d_20">
      <g>
       <use xlink:href="#ma93163aa3b" x="320.51638" y="307.584" style="stroke: #000000; stroke-width: 0.6"/>
      </g>
     </g>
    </g>
    <g id="xtick_21">
     <g id="line2d_21">
      <g>
       <use xlink:href="#ma93163aa3b" x="335.700913" y="307.584" style="stroke: #000000; stroke-width: 0.6"/>
      </g>
     </g>
    </g>
    <g id="xtick_22">
     <g id="line2d_22">
      <g>
       <use xlink:href="#ma93163aa3b" x="347.478952" y="307.584" style="stroke: #000000; stroke-width: 0.6"/>
      </g>
     </g>
    </g>
    <g id="xtick_23">
     <g id="line2d_23">
      <g>
       <use xlink:href="#ma93163aa3b" x="357.102311" y="307.584" style="stroke: #000000; stroke-width: 0.6"/>
      </g>
     </g>
    </g>
    <g id="xtick_24">
     <g id="line2d_24">
      <g>
       <use xlink:href="#ma93163aa3b" x="365.238745" y="307.584" style="stroke: #000000; stroke-width: 0.6"/>
      </g>
     </g>
    </g>
    <g id="xtick_25">
     <g id="line2d_25">
      <g>
       <use xlink:href="#ma93163aa3b" x="372.286844" y="307.584" style="stroke: #000000; stroke-width: 0.6"/>
      </g>
     </g>
    </g>
    <g id="xtick_26">
     <g id="line2d_26">
      <g>
       <use xlink:href="#ma93163aa3b" x="378.503709" y="307.584" style="stroke: #000000; stroke-width: 0.6"/>
      </g>
     </g>
    </g>
    <g id="text_4">
     <!-- Log time  -->
     <g transform="translate(212.75375 335.860562) scale(0.1 -0.1)">
      <defs>
       <path id="DejaVuSans-4c" d="M 628 4666 
L 1259 4666 
L 1259 531 
L 3531 531 
L 3531 0 
L 628 0 
L 628 4666 
z
" transform="scale(0.015625)"/>
       <path id="DejaVuSans-6f" d="M 1959 3097 
Q 1497 3097 1228 2736 
Q 959 2375 959 1747 
Q 959 1119 1226 758 
Q 1494 397 1959 397 
Q 2419 397 2687 759 
Q 2956 1122 2956 1747 
Q 2956 2369 2687 2733 
Q 2419 3097 1959 3097 
z
M 1959 3584 
Q 2709 3584 3137 3096 
Q 3566 2609 3566 1747 
Q 3566 888 3137 398 
Q 2709 -91 1959 -91 
Q 1206 -91 779 398 
Q 353 888 353 1747 
Q 353 2609 779 3096 
Q 1206 3584 1959 3584 
z
" transform="scale(0.015625)"/>
       <path id="DejaVuSans-67" d="M 2906 1791 
Q 2906 2416 2648 2759 
Q 2391 3103 1925 3103 
Q 1463 3103 1205 2759 
Q 947 2416 947 1791 
Q 947 1169 1205 825 
Q 1463 481 1925 481 
Q 2391 481 2648 825 
Q 2906 1169 2906 1791 
z
M 3481 434 
Q 3481 -459 3084 -895 
Q 2688 -1331 1869 -1331 
Q 1566 -1331 1297 -1286 
Q 1028 -1241 775 -1147 
L 775 -588 
Q 1028 -725 1275 -790 
Q 1522 -856 1778 -856 
Q 2344 -856 2625 -561 
Q 2906 -266 2906 331 
L 2906 616 
Q 2728 306 2450 153 
Q 2172 0 1784 0 
Q 1141 0 747 490 
Q 353 981 353 1791 
Q 353 2603 747 3093 
Q 1141 3584 1784 3584 
Q 2172 3584 2450 3431 
Q 2728 3278 2906 2969 
L 2906 3500 
L 3481 3500 
L 3481 434 
z
" transform="scale(0.015625)"/>
       <path id="DejaVuSans-20" transform="scale(0.015625)"/>
       <path id="DejaVuSans-74" d="M 1172 4494 
L 1172 3500 
L 2356 3500 
L 2356 3053 
L 1172 3053 
L 1172 1153 
Q 1172 725 1289 603 
Q 1406 481 1766 481 
L 2356 481 
L 2356 0 
L 1766 0 
Q 1100 0 847 248 
Q 594 497 594 1153 
L 594 3053 
L 172 3053 
L 172 3500 
L 594 3500 
L 594 4494 
L 1172 4494 
z
" transform="scale(0.015625)"/>
       <path id="DejaVuSans-69" d="M 603 3500 
L 1178 3500 
L 1178 0 
L 603 0 
L 603 3500 
z
M 603 4863 
L 1178 4863 
L 1178 4134 
L 603 4134 
L 603 4863 
z
" transform="scale(0.015625)"/>
       <path id="DejaVuSans-6d" d="M 3328 2828 
Q 3544 3216 3844 3400 
Q 4144 3584 4550 3584 
Q 5097 3584 5394 3201 
Q 5691 2819 5691 2113 
L 5691 0 
L 5113 0 
L 5113 2094 
Q 5113 2597 4934 2840 
Q 4756 3084 4391 3084 
Q 3944 3084 3684 2787 
Q 3425 2491 3425 1978 
L 3425 0 
L 2847 0 
L 2847 2094 
Q 2847 2600 2669 2842 
Q 2491 3084 2119 3084 
Q 1678 3084 1418 2786 
Q 1159 2488 1159 1978 
L 1159 0 
L 581 0 
L 581 3500 
L 1159 3500 
L 1159 2956 
Q 1356 3278 1631 3431 
Q 1906 3584 2284 3584 
Q 2666 3584 2933 3390 
Q 3200 3197 3328 2828 
z
" transform="scale(0.015625)"/>
       <path id="DejaVuSans-65" d="M 3597 1894 
L 3597 1613 
L 953 1613 
Q 991 1019 1311 708 
Q 1631 397 2203 397 
Q 2534 397 2845 478 
Q 3156 559 3463 722 
L 3463 178 
Q 3153 47 2828 -22 
Q 2503 -91 2169 -91 
Q 1331 -91 842 396 
Q 353 884 353 1716 
Q 353 2575 817 3079 
Q 1281 3584 2069 3584 
Q 2775 3584 3186 3129 
Q 3597 2675 3597 1894 
z
M 3022 2063 
Q 3016 2534 2758 2815 
Q 2500 3097 2075 3097 
Q 1594 3097 1305 2825 
Q 1016 2553 972 2059 
L 3022 2063 
z
" transform="scale(0.015625)"/>
      </defs>
      <use xlink:href="#DejaVuSans-4c"/>
      <use xlink:href="#DejaVuSans-6f" transform="translate(53.962891 0)"/>
      <use xlink:href="#DejaVuSans-67" transform="translate(115.144531 0)"/>
      <use xlink:href="#DejaVuSans-20" transform="translate(178.621094 0)"/>
      <use xlink:href="#DejaVuSans-74" transform="translate(210.408203 0)"/>
      <use xlink:href="#DejaVuSans-69" transform="translate(249.617188 0)"/>
      <use xlink:href="#DejaVuSans-6d" transform="translate(277.400391 0)"/>
      <use xlink:href="#DejaVuSans-65" transform="translate(374.8125 0)"/>
      <use xlink:href="#DejaVuSans-20" transform="translate(436.335938 0)"/>
     </g>
    </g>
   </g>
   <g id="matplotlib.axis_2">
    <g id="ytick_1">
     <g id="line2d_27">
      <defs>
       <path id="md8dbd281ce" d="M 0 0 
L -3.5 0 
" style="stroke: #000000; stroke-width: 0.8"/>
      </defs>
      <g>
       <use xlink:href="#md8dbd281ce" x="57.6" y="307.584" style="stroke: #000000; stroke-width: 0.8"/>
      </g>
     </g>
     <g id="text_5">
      <!-- 0.0 -->
      <g transform="translate(34.696875 311.383219) scale(0.1 -0.1)">
       <defs>
        <path id="DejaVuSans-2e" d="M 684 794 
L 1344 794 
L 1344 0 
L 684 0 
L 684 794 
z
" transform="scale(0.015625)"/>
       </defs>
       <use xlink:href="#DejaVuSans-30"/>
       <use xlink:href="#DejaVuSans-2e" transform="translate(63.623047 0)"/>
       <use xlink:href="#DejaVuSans-30" transform="translate(95.410156 0)"/>
      </g>
     </g>
    </g>
    <g id="ytick_2">
     <g id="line2d_28">
      <g>
       <use xlink:href="#md8dbd281ce" x="57.6" y="254.3616" style="stroke: #000000; stroke-width: 0.8"/>
      </g>
     </g>
     <g id="text_6">
      <!-- 0.2 -->
      <g transform="translate(34.696875 258.160819) scale(0.1 -0.1)">
       <use xlink:href="#DejaVuSans-30"/>
       <use xlink:href="#DejaVuSans-2e" transform="translate(63.623047 0)"/>
       <use xlink:href="#DejaVuSans-32" transform="translate(95.410156 0)"/>
      </g>
     </g>
    </g>
    <g id="ytick_3">
     <g id="line2d_29">
      <g>
       <use xlink:href="#md8dbd281ce" x="57.6" y="201.1392" style="stroke: #000000; stroke-width: 0.8"/>
      </g>
     </g>
     <g id="text_7">
      <!-- 0.4 -->
      <g transform="translate(34.696875 204.938419) scale(0.1 -0.1)">
       <use xlink:href="#DejaVuSans-30"/>
       <use xlink:href="#DejaVuSans-2e" transform="translate(63.623047 0)"/>
       <use xlink:href="#DejaVuSans-34" transform="translate(95.410156 0)"/>
      </g>
     </g>
    </g>
    <g id="ytick_4">
     <g id="line2d_30">
      <g>
       <use xlink:href="#md8dbd281ce" x="57.6" y="147.9168" style="stroke: #000000; stroke-width: 0.8"/>
      </g>
     </g>
     <g id="text_8">
      <!-- 0.6 -->
      <g transform="translate(34.696875 151.716019) scale(0.1 -0.1)">
       <defs>
        <path id="DejaVuSans-36" d="M 2113 2584 
Q 1688 2584 1439 2293 
Q 1191 2003 1191 1497 
Q 1191 994 1439 701 
Q 1688 409 2113 409 
Q 2538 409 2786 701 
Q 3034 994 3034 1497 
Q 3034 2003 2786 2293 
Q 2538 2584 2113 2584 
z
M 3366 4563 
L 3366 3988 
Q 3128 4100 2886 4159 
Q 2644 4219 2406 4219 
Q 1781 4219 1451 3797 
Q 1122 3375 1075 2522 
Q 1259 2794 1537 2939 
Q 1816 3084 2150 3084 
Q 2853 3084 3261 2657 
Q 3669 2231 3669 1497 
Q 3669 778 3244 343 
Q 2819 -91 2113 -91 
Q 1303 -91 875 529 
Q 447 1150 447 2328 
Q 447 3434 972 4092 
Q 1497 4750 2381 4750 
Q 2619 4750 2861 4703 
Q 3103 4656 3366 4563 
z
" transform="scale(0.015625)"/>
       </defs>
       <use xlink:href="#DejaVuSans-30"/>
       <use xlink:href="#DejaVuSans-2e" transform="translate(63.623047 0)"/>
       <use xlink:href="#DejaVuSans-36" transform="translate(95.410156 0)"/>
      </g>
     </g>
    </g>
    <g id="ytick_5">
     <g id="line2d_31">
      <g>
       <use xlink:href="#md8dbd281ce" x="57.6" y="94.6944" style="stroke: #000000; stroke-width: 0.8"/>
      </g>
     </g>
     <g id="text_9">
      <!-- 0.8 -->
      <g transform="translate(34.696875 98.493619) scale(0.1 -0.1)">
       <defs>
        <path id="DejaVuSans-38" d="M 2034 2216 
Q 1584 2216 1326 1975 
Q 1069 1734 1069 1313 
Q 1069 891 1326 650 
Q 1584 409 2034 409 
Q 2484 409 2743 651 
Q 3003 894 3003 1313 
Q 3003 1734 2745 1975 
Q 2488 2216 2034 2216 
z
M 1403 2484 
Q 997 2584 770 2862 
Q 544 3141 544 3541 
Q 544 4100 942 4425 
Q 1341 4750 2034 4750 
Q 2731 4750 3128 4425 
Q 3525 4100 3525 3541 
Q 3525 3141 3298 2862 
Q 3072 2584 2669 2484 
Q 3125 2378 3379 2068 
Q 3634 1759 3634 1313 
Q 3634 634 3220 271 
Q 2806 -91 2034 -91 
Q 1263 -91 848 271 
Q 434 634 434 1313 
Q 434 1759 690 2068 
Q 947 2378 1403 2484 
z
M 1172 3481 
Q 1172 3119 1398 2916 
Q 1625 2713 2034 2713 
Q 2441 2713 2670 2916 
Q 2900 3119 2900 3481 
Q 2900 3844 2670 4047 
Q 2441 4250 2034 4250 
Q 1625 4250 1398 4047 
Q 1172 3844 1172 3481 
z
" transform="scale(0.015625)"/>
       </defs>
       <use xlink:href="#DejaVuSans-30"/>
       <use xlink:href="#DejaVuSans-2e" transform="translate(63.623047 0)"/>
       <use xlink:href="#DejaVuSans-38" transform="translate(95.410156 0)"/>
      </g>
     </g>
    </g>
    <g id="ytick_6">
     <g id="line2d_32">
      <g>
       <use xlink:href="#md8dbd281ce" x="57.6" y="41.472" style="stroke: #000000; stroke-width: 0.8"/>
      </g>
     </g>
     <g id="text_10">
      <!-- 1.0 -->
      <g transform="translate(34.696875 45.271219) scale(0.1 -0.1)">
       <use xlink:href="#DejaVuSans-31"/>
       <use xlink:href="#DejaVuSans-2e" transform="translate(63.623047 0)"/>
       <use xlink:href="#DejaVuSans-30" transform="translate(95.410156 0)"/>
      </g>
     </g>
    </g>
    <g id="text_11">
     <!-- Percent of filled traps -->
     <g transform="translate(28.617187 227.95925) rotate(-90) scale(0.1 -0.1)">
      <defs>
       <path id="DejaVuSans-50" d="M 1259 4147 
L 1259 2394 
L 2053 2394 
Q 2494 2394 2734 2622 
Q 2975 2850 2975 3272 
Q 2975 3691 2734 3919 
Q 2494 4147 2053 4147 
L 1259 4147 
z
M 628 4666 
L 2053 4666 
Q 2838 4666 3239 4311 
Q 3641 3956 3641 3272 
Q 3641 2581 3239 2228 
Q 2838 1875 2053 1875 
L 1259 1875 
L 1259 0 
L 628 0 
L 628 4666 
z
" transform="scale(0.015625)"/>
       <path id="DejaVuSans-72" d="M 2631 2963 
Q 2534 3019 2420 3045 
Q 2306 3072 2169 3072 
Q 1681 3072 1420 2755 
Q 1159 2438 1159 1844 
L 1159 0 
L 581 0 
L 581 3500 
L 1159 3500 
L 1159 2956 
Q 1341 3275 1631 3429 
Q 1922 3584 2338 3584 
Q 2397 3584 2469 3576 
Q 2541 3569 2628 3553 
L 2631 2963 
z
" transform="scale(0.015625)"/>
       <path id="DejaVuSans-63" d="M 3122 3366 
L 3122 2828 
Q 2878 2963 2633 3030 
Q 2388 3097 2138 3097 
Q 1578 3097 1268 2742 
Q 959 2388 959 1747 
Q 959 1106 1268 751 
Q 1578 397 2138 397 
Q 2388 397 2633 464 
Q 2878 531 3122 666 
L 3122 134 
Q 2881 22 2623 -34 
Q 2366 -91 2075 -91 
Q 1284 -91 818 406 
Q 353 903 353 1747 
Q 353 2603 823 3093 
Q 1294 3584 2113 3584 
Q 2378 3584 2631 3529 
Q 2884 3475 3122 3366 
z
" transform="scale(0.015625)"/>
       <path id="DejaVuSans-6e" d="M 3513 2113 
L 3513 0 
L 2938 0 
L 2938 2094 
Q 2938 2591 2744 2837 
Q 2550 3084 2163 3084 
Q 1697 3084 1428 2787 
Q 1159 2491 1159 1978 
L 1159 0 
L 581 0 
L 581 3500 
L 1159 3500 
L 1159 2956 
Q 1366 3272 1645 3428 
Q 1925 3584 2291 3584 
Q 2894 3584 3203 3211 
Q 3513 2838 3513 2113 
z
" transform="scale(0.015625)"/>
       <path id="DejaVuSans-66" d="M 2375 4863 
L 2375 4384 
L 1825 4384 
Q 1516 4384 1395 4259 
Q 1275 4134 1275 3809 
L 1275 3500 
L 2222 3500 
L 2222 3053 
L 1275 3053 
L 1275 0 
L 697 0 
L 697 3053 
L 147 3053 
L 147 3500 
L 697 3500 
L 697 3744 
Q 697 4328 969 4595 
Q 1241 4863 1831 4863 
L 2375 4863 
z
" transform="scale(0.015625)"/>
       <path id="DejaVuSans-6c" d="M 603 4863 
L 1178 4863 
L 1178 0 
L 603 0 
L 603 4863 
z
" transform="scale(0.015625)"/>
       <path id="DejaVuSans-64" d="M 2906 2969 
L 2906 4863 
L 3481 4863 
L 3481 0 
L 2906 0 
L 2906 525 
Q 2725 213 2448 61 
Q 2172 -91 1784 -91 
Q 1150 -91 751 415 
Q 353 922 353 1747 
Q 353 2572 751 3078 
Q 1150 3584 1784 3584 
Q 2172 3584 2448 3432 
Q 2725 3281 2906 2969 
z
M 947 1747 
Q 947 1113 1208 752 
Q 1469 391 1925 391 
Q 2381 391 2643 752 
Q 2906 1113 2906 1747 
Q 2906 2381 2643 2742 
Q 2381 3103 1925 3103 
Q 1469 3103 1208 2742 
Q 947 2381 947 1747 
z
" transform="scale(0.015625)"/>
       <path id="DejaVuSans-61" d="M 2194 1759 
Q 1497 1759 1228 1600 
Q 959 1441 959 1056 
Q 959 750 1161 570 
Q 1363 391 1709 391 
Q 2188 391 2477 730 
Q 2766 1069 2766 1631 
L 2766 1759 
L 2194 1759 
z
M 3341 1997 
L 3341 0 
L 2766 0 
L 2766 531 
Q 2569 213 2275 61 
Q 1981 -91 1556 -91 
Q 1019 -91 701 211 
Q 384 513 384 1019 
Q 384 1609 779 1909 
Q 1175 2209 1959 2209 
L 2766 2209 
L 2766 2266 
Q 2766 2663 2505 2880 
Q 2244 3097 1772 3097 
Q 1472 3097 1187 3025 
Q 903 2953 641 2809 
L 641 3341 
Q 956 3463 1253 3523 
Q 1550 3584 1831 3584 
Q 2591 3584 2966 3190 
Q 3341 2797 3341 1997 
z
" transform="scale(0.015625)"/>
       <path id="DejaVuSans-70" d="M 1159 525 
L 1159 -1331 
L 581 -1331 
L 581 3500 
L 1159 3500 
L 1159 2969 
Q 1341 3281 1617 3432 
Q 1894 3584 2278 3584 
Q 2916 3584 3314 3078 
Q 3713 2572 3713 1747 
Q 3713 922 3314 415 
Q 2916 -91 2278 -91 
Q 1894 -91 1617 61 
Q 1341 213 1159 525 
z
M 3116 1747 
Q 3116 2381 2855 2742 
Q 2594 3103 2138 3103 
Q 1681 3103 1420 2742 
Q 1159 2381 1159 1747 
Q 1159 1113 1420 752 
Q 1681 391 2138 391 
Q 2594 391 2855 752 
Q 3116 1113 3116 1747 
z
" transform="scale(0.015625)"/>
       <path id="DejaVuSans-73" d="M 2834 3397 
L 2834 2853 
Q 2591 2978 2328 3040 
Q 2066 3103 1784 3103 
Q 1356 3103 1142 2972 
Q 928 2841 928 2578 
Q 928 2378 1081 2264 
Q 1234 2150 1697 2047 
L 1894 2003 
Q 2506 1872 2764 1633 
Q 3022 1394 3022 966 
Q 3022 478 2636 193 
Q 2250 -91 1575 -91 
Q 1294 -91 989 -36 
Q 684 19 347 128 
L 347 722 
Q 666 556 975 473 
Q 1284 391 1588 391 
Q 1994 391 2212 530 
Q 2431 669 2431 922 
Q 2431 1156 2273 1281 
Q 2116 1406 1581 1522 
L 1381 1569 
Q 847 1681 609 1914 
Q 372 2147 372 2553 
Q 372 3047 722 3315 
Q 1072 3584 1716 3584 
Q 2034 3584 2315 3537 
Q 2597 3491 2834 3397 
z
" transform="scale(0.015625)"/>
      </defs>
      <use xlink:href="#DejaVuSans-50"/>
      <use xlink:href="#DejaVuSans-65" transform="translate(56.677734 0)"/>
      <use xlink:href="#DejaVuSans-72" transform="translate(118.201172 0)"/>
      <use xlink:href="#DejaVuSans-63" transform="translate(157.064453 0)"/>
      <use xlink:href="#DejaVuSans-65" transform="translate(212.044922 0)"/>
      <use xlink:href="#DejaVuSans-6e" transform="translate(273.568359 0)"/>
      <use xlink:href="#DejaVuSans-74" transform="translate(336.947266 0)"/>
      <use xlink:href="#DejaVuSans-20" transform="translate(376.15625 0)"/>
      <use xlink:href="#DejaVuSans-6f" transform="translate(407.943359 0)"/>
      <use xlink:href="#DejaVuSans-66" transform="translate(469.125 0)"/>
      <use xlink:href="#DejaVuSans-20" transform="translate(504.330078 0)"/>
      <use xlink:href="#DejaVuSans-66" transform="translate(536.117188 0)"/>
      <use xlink:href="#DejaVuSans-69" transform="translate(571.322266 0)"/>
      <use xlink:href="#DejaVuSans-6c" transform="translate(599.105469 0)"/>
      <use xlink:href="#DejaVuSans-6c" transform="translate(626.888672 0)"/>
      <use xlink:href="#DejaVuSans-65" transform="translate(654.671875 0)"/>
      <use xlink:href="#DejaVuSans-64" transform="translate(716.195312 0)"/>
      <use xlink:href="#DejaVuSans-20" transform="translate(779.671875 0)"/>
      <use xlink:href="#DejaVuSans-74" transform="translate(811.458984 0)"/>
      <use xlink:href="#DejaVuSans-72" transform="translate(850.667969 0)"/>
      <use xlink:href="#DejaVuSans-61" transform="translate(891.78125 0)"/>
      <use xlink:href="#DejaVuSans-70" transform="translate(953.060547 0)"/>
      <use xlink:href="#DejaVuSans-73" transform="translate(1016.537109 0)"/>
     </g>
    </g>
   </g>
   <g id="line2d_33">
    <path d="M 73.832727 298.003968 
L 73.832727 297.620767 
L 74.829674 297.258854 
L 75.207942 296.896942 
L 83.958701 296.513741 
L 84.032266 296.13054 
L 85.368728 295.726049 
L 89.284193 294.917069 
L 90.92021 294.129377 
L 96.706151 293.746176 
L 104.152114 293.384264 
L 104.667736 293.022351 
L 106.976716 292.298527 
L 111.270092 291.574702 
L 112.453802 291.21279 
L 118.548554 290.510254 
L 118.725835 290.169631 
L 119.029858 289.829007 
L 119.029858 289.488384 
L 122.039987 289.147761 
L 122.24068 288.807137 
L 123.272906 288.445225 
L 123.272906 288.083313 
L 124.612679 287.742689 
L 124.809301 287.402066 
L 129.281575 287.061443 
L 130.15127 286.720819 
L 131.05038 285.698949 
L 131.05038 285.36897 
L 131.611252 285.038991 
L 131.611252 284.719657 
L 131.816194 284.410967 
L 133.843045 284.091633 
L 134.075199 283.793587 
L 134.644366 283.495542 
L 134.704466 283.197496 
L 134.908003 282.92074 
L 134.908003 282.633339 
L 136.982544 282.367227 
L 136.982544 282.101115 
L 137.754167 281.835003 
L 138.235114 281.547602 
L 138.235114 281.260201 
L 139.561736 280.727977 
L 140.712416 280.440576 
L 140.712416 280.153175 
L 140.913384 279.865774 
L 148.523382 279.312261 
L 148.607484 279.035505 
L 150.537805 278.503281 
L 151.097234 277.971057 
L 151.400583 276.874675 
L 153.674332 276.608563 
L 153.846941 276.353096 
L 153.846941 276.097628 
L 156.371636 275.820872 
L 156.371636 275.55476 
L 156.82576 275.267359 
L 156.874529 274.979958 
L 157.561672 274.692557 
L 159.505069 274.383867 
L 159.505069 274.096466 
L 162.703248 273.266196 
L 162.932606 272.98944 
L 164.015693 272.478505 
L 164.225405 272.223037 
L 165.171325 271.988859 
L 165.171325 271.75468 
L 165.2991 271.509857 
L 166.527431 271.030856 
L 166.609745 270.796677 
L 169.55455 270.094141 
L 170.475471 269.604495 
L 170.708743 269.125494 
L 170.778154 268.880671 
L 172.110689 268.444247 
L 173.503773 268.231357 
L 173.503773 267.997179 
L 174.376047 267.528822 
L 174.376047 267.315932 
L 174.571406 267.103043 
L 174.571406 266.900797 
L 175.307508 266.496307 
L 175.307508 266.325996 
L 176.204883 265.783127 
L 176.287381 265.421215 
L 179.428478 265.069947 
L 180.055652 264.739968 
L 180.139516 263.909699 
L 180.427926 263.409408 
L 180.94306 263.217807 
L 180.971835 262.855895 
L 181.29321 262.674939 
L 181.29321 262.472694 
L 181.423035 262.270449 
L 182.07909 262.089492 
L 182.07909 261.887247 
L 184.043801 261.504046 
L 184.043801 261.333734 
L 185.061873 261.163423 
L 185.42163 260.80151 
L 185.43352 260.30122 
L 186.879793 259.822218 
L 187.149651 259.662551 
L 187.152468 259.481595 
L 188.145584 259.098394 
L 188.18557 258.917437 
L 188.89838 258.736481 
L 188.89838 258.555525 
L 189.466195 258.151035 
L 189.678449 257.938145 
L 189.730839 257.523011 
L 190.000596 257.288832 
L 190.722498 257.044009 
L 190.722498 256.575652 
L 191.170686 256.330829 
L 191.340384 256.09665 
L 191.340384 255.862472 
L 192.533414 255.351537 
L 192.550217 254.840602 
L 192.951195 254.585134 
L 192.951195 254.329667 
L 194.229613 253.062973 
L 194.444786 252.81815 
L 195.517684 252.573327 
L 195.837175 252.328504 
L 196.47292 252.073037 
L 197.502953 251.093745 
L 198.502342 250.838277 
L 198.502342 250.593454 
L 199.120913 250.359276 
L 199.516824 249.65674 
L 200.348285 249.177738 
L 200.348285 248.94356 
L 201.31037 248.475203 
L 201.422596 248.219735 
L 201.770687 247.974912 
L 201.928701 247.506555 
L 201.928701 247.283021 
L 202.440175 247.048842 
L 202.491493 246.623063 
L 202.971373 246.229217 
L 202.971373 246.026972 
L 206.507954 245.207347 
L 206.516408 244.355789 
L 207.259897 244.153544 
L 207.259897 243.951299 
L 207.688908 243.568097 
L 207.688908 243.365852 
L 209.156337 242.673961 
L 209.156337 242.503649 
L 209.624943 242.322693 
L 209.712941 241.992714 
L 209.871193 241.332756 
L 210.278131 241.013422 
L 212.282537 240.587643 
L 212.286962 240.215086 
L 212.808457 239.693507 
L 212.821249 239.310305 
L 213.262433 239.10806 
L 213.262433 238.905815 
L 214.457006 238.49068 
L 214.880493 237.479455 
L 215.572623 237.27721 
L 215.792258 236.063739 
L 216.741785 235.457004 
L 216.759659 234.850268 
L 217.367955 234.669312 
L 217.511806 234.275466 
L 217.711689 233.647442 
L 217.858123 233.445197 
L 217.858123 233.242952 
L 218.406841 233.061996 
L 218.725605 232.476549 
L 219.086199 232.082703 
L 219.276952 231.667569 
L 219.330211 231.454679 
L 220.330812 231.007611 
L 220.532905 230.773432 
L 220.550279 230.549898 
L 220.896869 230.326364 
L 220.896869 230.081541 
L 221.029853 229.858007 
L 221.029853 229.613184 
L 221.375874 228.953226 
L 221.501253 228.091023 
L 222.024434 226.983997 
L 222.877894 226.568863 
L 222.930155 226.143084 
L 223.228072 225.515059 
L 223.592083 224.631567 
L 223.830979 224.450611 
L 223.830979 224.269655 
L 224.140895 223.897098 
L 224.263061 223.513897 
L 224.615364 221.885292 
L 225.388788 221.480801 
L 225.817471 220.937933 
L 226.66264 220.756977 
L 226.66264 220.586665 
L 226.788486 220.246042 
L 226.825739 219.905418 
L 228.070294 219.735107 
L 228.338268 219.192238 
L 228.654532 218.34068 
L 229.339068 217.978767 
L 229.339068 217.787167 
L 230.358285 217.212365 
L 230.508627 216.062761 
L 230.980521 215.690204 
L 231.097749 215.285714 
L 231.137635 215.094113 
L 231.501502 214.891868 
L 231.501502 214.710912 
L 231.822884 214.349 
L 232.234166 214.019021 
L 232.410221 213.124884 
L 232.60636 212.975862 
L 233.260515 212.826839 
L 233.266839 212.550083 
L 233.809587 212.09237 
L 234.15968 211.932703 
L 234.219048 211.613368 
L 234.30303 211.294034 
L 234.537922 210.208297 
L 234.968902 209.612206 
L 234.971189 209.154493 
L 235.174718 209.005471 
L 235.212512 208.696781 
L 235.531683 208.345513 
L 235.655766 208.00489 
L 235.659469 207.632333 
L 235.917078 207.451377 
L 235.917078 207.259776 
L 236.875432 206.472084 
L 236.89601 205.886638 
L 237.339114 205.673748 
L 237.822597 204.449633 
L 238.658379 203.981276 
L 238.760793 203.289385 
L 239.030888 202.618783 
L 239.282358 201.926892 
L 239.683526 200.92631 
L 239.683526 200.670843 
L 239.885725 200.159908 
L 240.059342 198.765481 
L 240.557177 198.329057 
L 240.56755 198.126812 
L 241.469743 197.701033 
L 241.509815 197.296543 
L 242.900776 196.295962 
L 242.94909 196.093716 
L 243.766678 195.497626 
L 243.92014 195.071846 
L 243.92014 194.89089 
L 244.207894 194.720579 
L 244.315794 193.602908 
L 244.619537 192.197837 
L 245.107251 191.803991 
L 245.21286 191.559168 
L 246.022288 191.324989 
L 246.022288 191.080166 
L 246.707605 190.643743 
L 246.914059 190.18603 
L 247.572198 189.440916 
L 247.600282 188.621292 
L 247.707967 187.9294 
L 247.760028 187.769733 
L 248.124268 187.450399 
L 248.655235 187.280087 
L 248.895408 186.71593 
L 249.402396 185.066035 
L 250.006513 184.24641 
L 250.358897 182.713605 
L 250.566893 182.266537 
L 250.8759 180.96791 
L 250.895353 180.723087 
L 252.789615 179.339305 
L 252.809456 178.892237 
L 253.039473 178.466458 
L 253.603025 178.083256 
L 253.634989 177.49781 
L 254.794259 176.795274 
L 254.961431 176.316273 
L 255.379219 176.177894 
L 255.665907 175.475359 
L 255.918737 175.198602 
L 256.517528 173.442263 
L 256.547105 172.899395 
L 256.63682 172.665216 
L 256.702271 172.48426 
L 256.979465 172.27137 
L 257.243113 171.313367 
L 259.097992 170.206341 
L 259.225491 169.993452 
L 259.335074 169.152538 
L 260.167823 168.599025 
L 260.514469 168.364846 
L 260.543753 168.162601 
L 261.172423 167.864556 
L 261.57882 167.715533 
L 262.001702 167.215242 
L 263.513451 166.651085 
L 263.677852 166.374328 
L 263.783386 165.820815 
L 264.150469 165.597281 
L 264.563095 164.649923 
L 264.980635 163.958031 
L 265.058674 163.67063 
L 265.302793 163.36194 
L 265.479409 163.07454 
L 265.62004 162.063314 
L 265.949422 161.158533 
L 266.124666 160.211174 
L 266.349332 159.838618 
L 266.897584 157.709722 
L 266.975692 156.730429 
L 267.239785 155.623404 
L 267.251314 154.846356 
L 267.524293 154.718623 
L 267.524293 154.590889 
L 267.755266 154.26091 
L 267.839767 154.04802 
L 268.591309 153.441285 
L 269.083923 152.653594 
L 269.805562 151.770102 
L 269.910465 151.621079 
L 270.163675 151.482701 
L 270.573468 150.780165 
L 273.851976 149.396383 
L 273.989651 149.204782 
L 274.056898 148.981248 
L 274.128694 148.715136 
L 274.237504 148.385157 
L 274.637733 147.842289 
L 274.951431 146.554307 
L 274.98656 146.18175 
L 275.262779 145.766615 
L 275.565088 144.595722 
L 276.312761 143.605786 
L 276.821356 142.892605 
L 276.983503 142.679716 
L 277.082507 142.07298 
L 277.795712 141.700424 
L 277.805629 141.615268 
L 278.243693 141.413023 
L 278.714424 141.029821 
L 279.892168 140.45502 
L 279.999172 140.167619 
L 280.958989 138.666747 
L 281.241458 137.091364 
L 281.435506 136.442051 
L 283.461127 135.356314 
L 284.407888 134.249288 
L 284.498885 133.440307 
L 284.853202 132.077814 
L 285.955502 130.981432 
L 286.084391 130.821765 
L 286.13813 130.417275 
L 286.848445 130.066007 
L 288.367148 129.469916 
L 288.367148 129.395405 
L 288.554796 129.19316 
L 288.682585 128.57578 
L 288.803116 128.373535 
L 289.025801 128.022267 
L 289.313374 127.734866 
L 289.478447 126.798152 
L 289.592255 126.595907 
L 289.687311 125.29728 
L 289.785352 125.08439 
L 289.93819 124.467011 
L 290.329125 123.168384 
L 290.457559 122.476493 
L 291.215501 122.01878 
L 291.428081 121.869757 
L 291.682847 121.529134 
L 291.8137 121.348178 
L 292.296318 120.145352 
L 292.444089 118.378368 
L 292.89367 116.238828 
L 293.265012 115.280824 
L 293.609242 114.950845 
L 293.947736 113.63093 
L 294.088606 112.630349 
L 295.401587 110.895299 
L 295.667351 110.331141 
L 296.761935 109.596672 
L 297.085515 109.192182 
L 297.171374 108.596091 
L 297.330211 108.042578 
L 297.489849 107.765821 
L 297.775256 107.680666 
L 297.775256 107.680666 
L 298.15088 107.584865 
L 299.142642 106.775885 
L 299.222953 106.254305 
L 299.664986 105.817882 
L 299.767761 105.349524 
L 300.554925 104.913101 
L 301.549803 104.295721 
L 301.678331 103.625119 
L 302.613475 103.007739 
L 302.723683 102.305203 
L 302.993112 100.516931 
L 303.382588 99.80375 
L 303.80711 99.676017 
L 304.439734 99.686661 
L 304.514387 99.70795 
L 305.647002 99.622794 
L 305.815532 98.313523 
L 305.928758 97.696143 
L 306.049838 97.398098 
L 306.184216 97.163919 
L 306.286744 96.876518 
L 306.636346 95.875937 
L 307.004599 94.736978 
L 307.535765 93.864131 
L 307.886667 92.001347 
L 308.063978 91.522345 
L 308.156296 91.266877 
L 308.27833 91.096566 
L 308.814304 90.436608 
L 309.617982 88.509957 
L 309.713539 88.201267 
L 310.010203 87.722266 
L 310.107102 86.881352 
L 310.20144 86.295905 
L 310.300565 85.976571 
L 310.413844 85.774326 
L 310.530855 84.560855 
L 310.70501 84.401188 
L 310.810585 84.220232 
L 311.165074 83.975409 
L 311.220277 83.773164 
L 311.365723 83.272873 
L 311.780728 82.50647 
L 312.512965 80.888509 
L 313.712012 79.866639 
L 313.825744 79.611172 
L 314.127188 79.24926 
L 314.214103 78.078367 
L 314.700452 77.588721 
L 315.603222 76.06656 
L 315.705807 75.906893 
L 315.82117 75.747226 
L 316.065378 75.14049 
L 316.313296 74.938245 
L 316.565505 74.746644 
L 317.04942 72.809349 
L 317.642557 71.340411 
L 317.822776 70.680453 
L 318.003725 70.467564 
L 318.503209 68.902825 
L 319.588248 67.37002 
L 319.73079 67.103908 
L 319.963718 66.795218 
L 320.126891 66.071393 
L 320.237633 65.964948 
L 320.556918 65.666903 
L 320.682963 65.432724 
L 322.049123 64.30441 
L 322.108708 64.080876 
L 322.924138 63.56994 
L 323.172615 63.16545 
L 323.534787 63.154806 
L 324.041829 63.048361 
L 324.577211 62.729027 
L 324.782337 62.324536 
L 325.088372 61.5262 
L 326.959719 59.737928 
L 327.993647 59.631483 
L 329.803254 58.822502 
L 330.258047 59.17377 
L 330.418147 59.865661 
L 331.024563 60.376596 
L 331.0594 60.546908 
L 331.136869 60.71722 
L 333.245816 61.292022 
L 333.640752 60.557553 
L 334.61156 59.599549 
L 334.832154 59.493105 
L 335.30529 59.269571 
L 335.446633 59.163126 
L 336.076742 58.801213 
L 336.622766 58.609613 
L 337.584721 57.939011 
L 337.806096 57.619676 
L 337.929004 57.055519 
L 338.645936 56.427494 
L 338.681727 55.831404 
L 338.776696 56.10816 
L 338.952043 56.267827 
L 338.960556 56.310405 
L 339.032755 56.023004 
L 339.185422 55.873981 
L 339.260949 55.70367 
L 339.362258 55.629158 
L 339.85943 55.469491 
L 340.200523 55.065001 
L 340.349659 54.426332 
L 340.807367 53.840886 
L 340.977331 53.393818 
L 341.745875 52.616771 
L 341.745875 52.616771 
L 342.353519 52.63806 
L 343.651315 52.531615 
L 344.361091 51.658767 
L 344.463481 51.573612 
L 345.709717 51.467167 
L 345.949626 51.179766 
L 346.074373 50.562386 
L 346.71941 49.817272 
L 346.962163 48.358979 
L 347.646649 47.879977 
L 348.140557 47.848044 
L 348.554899 47.858688 
L 349.925197 47.965133 
L 350.994974 48.167378 
L 351.813435 48.060933 
L 352.947265 47.848044 
L 353.451456 47.741599 
L 353.653223 46.900685 
L 354.060362 46.560061 
L 355.535621 46.262016 
L 357.254066 46.155571 
L 357.355477 45.655281 
L 358.593304 45.197568 
L 360.464255 45.091123 
L 361.086156 44.6547 
L 361.202625 44.548255 
L 361.394031 44.356654 
L 362.728065 44.13312 
L 370.980935 44.026675 
L 371.767865 43.675407 
L 372.033207 43.600896 
L 372.4156 43.494451 
L 373.112397 43.068672 
L 373.491914 42.962227 
L 374.382803 42.536448 
L 375.231815 42.430003 
L 375.84008 42.004224 
L 376.461057 42.110669 
L 376.926492 42.366136 
L 377.264387 42.153247 
L 377.861217 42.004224 
L 392.839053 41.897779 
L 393.032392 41.557156 
L 393.153092 41.472 
L 398.452173 41.472 
L 398.478893 174.528 
L 398.478893 174.528 
" clip-path="url(#p81a3ca3b1c)" style="fill: none; stroke-dasharray: 1.85,0.8; stroke-dashoffset: 0; stroke: #8000ff; stroke-width: 0.5"/>
   </g>
   <g id="line2d_34">
    <path d="M 109.61636 304.167122 
L 112.912499 304.039388 
L 112.912499 303.922299 
L 123.422601 303.368786 
L 123.463068 303.02284 
L 129.639606 302.799306 
L 129.786856 302.676895 
L 131.942012 302.554483 
L 131.942012 302.442716 
L 132.731017 302.219182 
L 138.582997 301.926459 
L 138.763587 301.756147 
L 141.185052 301.59648 
L 141.223186 301.298435 
L 141.944934 301.090867 
L 141.944934 301.021678 
L 142.181717 300.941844 
L 143.445389 300.760888 
L 143.445389 300.67041 
L 146.055477 300.500099 
L 148.082008 300.329787 
L 148.518134 300.138186 
L 148.518134 300.037064 
L 152.701636 299.74434 
L 155.986231 299.55274 
L 155.986231 299.462262 
L 157.407394 299.158894 
L 158.48147 299.047127 
L 158.48147 298.930038 
L 158.786734 298.812948 
L 163.231065 298.323302 
L 163.730851 297.727212 
L 167.501731 297.365299 
L 168.531001 297.120476 
L 168.66882 296.859686 
L 170.592726 296.72663 
L 170.592726 296.593574 
L 173.182984 296.183762 
L 173.193395 295.91765 
L 173.375832 295.773949 
L 173.975538 295.630249 
L 174.017887 295.342848 
L 174.180413 295.071414 
L 174.254464 294.821268 
L 174.321102 294.576445 
L 175.524928 294.3263 
L 175.524928 294.198566 
L 176.610344 293.964388 
L 176.610344 293.847299 
L 177.845197 293.485386 
L 178.082195 293.240563 
L 178.167622 293.123474 
L 180.25134 293.006385 
L 180.25134 292.889295 
L 182.740125 292.410294 
L 184.553768 292.28256 
L 184.604286 292.037737 
L 185.03368 291.920648 
L 187.422259 291.675825 
L 187.422259 291.558735 
L 188.294017 291.218112 
L 188.294017 291.111667 
L 189.11268 290.771044 
L 189.389326 290.43042 
L 189.389326 290.313331 
L 189.668503 290.196242 
L 191.021508 290.079153 
L 191.021508 289.951419 
L 192.016317 289.041316 
L 192.016317 288.897615 
L 192.555519 288.620859 
L 192.555519 288.471836 
L 192.777288 288.322813 
L 192.777288 288.173791 
L 193.061418 288.035412 
L 193.061418 287.88639 
L 193.291847 287.598989 
L 193.664326 287.332877 
L 194.066654 286.907098 
L 194.67356 286.614374 
L 194.938191 286.172628 
L 196.162709 285.895872 
L 197.354086 285.62976 
L 197.507915 285.491382 
L 198.512851 285.342359 
L 198.512851 285.193336 
L 198.673254 284.884646 
L 199.719925 284.575956 
L 199.760368 283.958577 
L 200.002653 283.495542 
L 200.005348 283.330552 
L 200.501427 282.878162 
L 200.842332 282.739784 
L 200.842332 282.601405 
L 201.495723 282.345938 
L 201.495723 282.228849 
L 202.178502 281.89887 
L 203.400111 281.49438 
L 203.400111 281.398579 
L 205.385584 280.621532 
L 205.825173 279.796585 
L 205.825173 279.674173 
L 206.407768 279.551762 
L 206.407768 279.418706 
L 206.591678 279.141949 
L 206.609958 278.865193 
L 206.91463 278.599081 
L 206.91463 278.471347 
L 207.2661 278.343613 
L 207.339864 278.077501 
L 209.06564 276.938542 
L 209.06564 276.789519 
L 210.046141 276.188106 
L 210.357575 275.325903 
L 210.757394 274.979958 
L 210.763998 274.341289 
L 211.702195 273.910188 
L 212.536233 273.367319 
L 212.645588 272.957507 
L 214.120372 272.393349 
L 215.101274 271.669524 
L 215.101274 271.557757 
L 215.445239 271.084078 
L 215.528617 270.525243 
L 216.117405 269.812063 
L 216.117405 269.726907 
L 216.669598 269.56724 
L 216.75397 269.492728 
L 217.687749 269.274516 
L 217.721052 269.194683 
L 219.023888 268.822126 
L 219.737096 268.039757 
L 219.741295 267.560755 
L 220.261701 267.331899 
L 220.636225 267.087076 
L 220.636225 266.95402 
L 221.197051 266.698552 
L 221.362087 266.576141 
L 221.97787 266.341962 
L 222.069241 266.224873 
L 223.618946 265.772483 
L 223.66416 265.660716 
L 224.020298 265.437181 
L 224.020298 265.31477 
L 224.350126 265.069947 
L 225.302 264.825124 
L 226.988943 263.813898 
L 226.988943 263.569075 
L 227.123305 263.31893 
L 227.877244 262.34496 
L 228.09088 262.094815 
L 228.09088 261.972403 
L 228.396488 261.849992 
L 228.419027 261.605169 
L 228.572565 261.376312 
L 228.680353 260.817477 
L 228.978109 260.583299 
L 229.173597 260.354442 
L 230.325197 259.274028 
L 231.055595 258.912115 
L 231.123488 258.145713 
L 231.611743 257.267543 
L 231.676158 257.02272 
L 231.912444 256.479852 
L 231.912444 256.378729 
L 232.511669 256.075361 
L 232.760315 255.873116 
L 232.766233 255.771994 
L 233.558195 255.580393 
L 233.56315 255.47927 
L 234.039502 255.277025 
L 234.420053 254.798024 
L 234.420053 254.696901 
L 234.879915 254.510623 
L 234.879915 254.414822 
L 235.091715 254.228544 
L 235.091715 254.143388 
L 236.184119 253.90921 
L 236.40621 253.616486 
L 236.684641 253.467464 
L 236.77481 253.382308 
L 237.650563 253.100229 
L 238.255396 252.743639 
L 238.255396 252.67445 
L 238.680977 252.376404 
L 238.712705 252.195448 
L 239.530599 251.881436 
L 241.633038 251.445012 
L 241.682418 251.280023 
L 242.498234 250.955366 
L 242.587413 250.673288 
L 242.800864 250.199608 
L 243.137251 250.002685 
L 243.206421 249.49175 
L 243.27951 249.316116 
L 244.065649 249.044682 
L 244.780356 248.544392 
L 244.907314 248.145224 
L 245.120762 247.809923 
L 245.626973 247.6609 
L 245.863634 247.49591 
L 246.367878 247.336243 
L 246.453861 247.102065 
L 246.603745 246.777408 
L 246.780493 246.63903 
L 246.909745 246.442107 
L 247.057955 246.23454 
L 247.195332 245.984394 
L 247.686547 245.80876 
L 247.742156 245.691671 
L 247.938114 245.574582 
L 250.858738 245.212669 
L 251.110481 244.962524 
L 251.230901 244.414333 
L 251.833915 244.015165 
L 251.839899 243.935332 
L 252.495238 243.525519 
L 252.654671 243.142318 
L 252.974407 242.961362 
L 253.132808 242.679283 
L 253.306152 242.487683 
L 253.379786 242.306726 
L 253.503548 242.014003 
L 253.503548 241.912881 
L 254.379982 241.178412 
L 254.608751 240.970844 
L 254.77716 240.374753 
L 255.106326 239.810596 
L 255.729943 239.41675 
L 256.034263 238.293757 
L 256.206558 238.102157 
L 256.304929 237.718956 
L 257.205761 237.388977 
L 257.308755 237.223987 
L 257.903338 236.713052 
L 258.033538 236.574674 
L 258.36044 236.260662 
L 258.439289 235.786982 
L 258.528401 235.648604 
L 258.891894 235.504904 
L 259.237584 235.297336 
L 262.625197 235.06848 
L 263.266686 234.871557 
L 263.397755 234.722534 
L 263.616969 234.4511 
L 264.342838 234.057254 
L 264.42168 233.52503 
L 265.033242 233.211018 
L 265.580588 232.492516 
L 265.702441 232.024159 
L 265.948854 231.582413 
L 265.948854 231.465324 
L 266.411304 231.2205 
L 266.606935 230.970355 
L 266.766072 230.62441 
L 266.92581 230.305075 
L 266.97348 230.113475 
L 267.368138 229.863329 
L 267.405006 229.464161 
L 267.486831 228.98516 
L 267.72518 228.841459 
L 267.829756 228.644536 
L 268.215386 228.170857 
L 268.627192 227.840878 
L 268.829886 227.510899 
L 268.847472 227.436388 
L 269.323881 227.170276 
L 269.436895 227.031898 
L 269.975867 226.664663 
L 270.773999 226.409196 
L 270.852223 226.127117 
L 271.091476 225.759882 
L 271.132822 225.674726 
L 271.760111 225.467159 
L 271.935084 225.254269 
L 272.250405 224.147244 
L 272.425737 223.960965 
L 272.531912 223.75872 
L 272.860681 223.285041 
L 272.886778 223.109407 
L 273.420633 222.47606 
L 275.151332 220.756977 
L 275.449247 220.549409 
L 275.531008 220.395064 
L 275.817423 220.038474 
L 275.92127 219.10176 
L 276.19326 218.883548 
L 276.404471 218.542925 
L 276.795666 217.9149 
L 276.872009 217.41461 
L 276.965009 217.265587 
L 277.043673 217.052698 
L 277.737908 216.185172 
L 278.152972 215.91906 
L 278.213931 215.652948 
L 278.393627 215.471992 
L 278.569974 214.987668 
L 278.569974 214.881224 
L 278.87357 214.572534 
L 278.934421 214.168044 
L 279.776766 213.843387 
L 279.996267 213.56663 
L 280.925016 210.351997 
L 281.005989 209.723973 
L 281.042108 209.654784 
L 281.439683 209.372705 
L 281.516564 209.032082 
L 281.837892 208.643558 
L 281.994639 208.121979 
L 282.585622 207.813289 
L 282.773431 207.403476 
L 282.773431 207.344932 
L 283.137352 207.052209 
L 283.384803 206.440151 
L 283.691373 206.216617 
L 283.952815 205.322481 
L 284.892526 205.093624 
L 284.999219 204.912668 
L 285.085186 204.816868 
L 286.314493 204.438989 
L 286.488229 204.268677 
L 286.781989 203.763064 
L 286.999903 203.512919 
L 287.132348 202.799739 
L 287.291182 202.171715 
L 288.068501 201.740613 
L 288.590118 201.304189 
L 288.73395 201.165811 
L 289.026631 200.580365 
L 289.761141 200.112008 
L 290.15759 199.670262 
L 290.236947 199.574461 
L 291.032037 198.871926 
L 291.102648 198.802737 
L 291.383767 198.579203 
L 291.47793 198.467436 
L 292.722092 198.094879 
L 293.017936 197.951178 
L 293.494113 197.45621 
L 293.587124 197.174131 
L 293.82603 196.817541 
L 293.82603 196.652552 
L 293.983523 196.492884 
L 293.984199 196.418373 
L 294.370302 196.258706 
L 294.481249 195.60407 
L 294.725742 195.157002 
L 294.782933 194.981368 
L 294.943259 194.550267 
L 295.019022 194.03401 
L 295.68133 193.390019 
L 295.743597 193.123907 
L 295.982557 192.937628 
L 296.08119 192.70345 
L 296.822579 192.288315 
L 296.862485 192.187192 
L 297.560475 192.059459 
L 297.649352 191.623035 
L 297.887576 191.282412 
L 298.127641 191.053555 
L 298.260826 190.249897 
L 298.39007 189.084326 
L 298.648846 188.796925 
L 298.879881 188.131645 
L 299.056848 187.9294 
L 299.103806 187.647322 
L 299.433688 187.47701 
L 299.676078 187.317343 
L 300.094061 186.354017 
L 300.588353 186.066616 
L 300.646889 185.986783 
L 301.151405 185.784538 
L 301.753026 185.582292 
L 301.92087 185.278925 
L 302.331824 184.565745 
L 302.755747 184.145288 
L 302.783427 183.735475 
L 302.980174 183.591775 
L 303.140347 182.990362 
L 303.228003 182.804083 
L 303.228003 182.734894 
L 303.366473 182.612483 
L 303.785047 181.138222 
L 303.913859 180.712443 
L 304.13739 180.339886 
L 304.209188 180.11103 
L 304.571037 179.701217 
L 304.709727 179.54155 
L 304.767116 179.222216 
L 305.419971 178.66338 
L 305.522885 178.546291 
L 305.89404 178.280179 
L 305.974996 177.987456 
L 306.267558 177.700055 
L 306.267558 177.64151 
L 306.574814 177.465876 
L 306.662136 176.923008 
L 307.063318 176.129994 
L 307.263139 175.885171 
L 307.582758 174.953779 
L 307.920674 174.687667 
L 308.004446 174.394944 
L 308.560365 173.282596 
L 309.392759 172.883428 
L 309.560872 172.468293 
L 309.931714 171.936069 
L 310.374121 171.701891 
L 310.572026 171.041933 
L 310.677404 170.664054 
L 311.268317 169.083348 
L 311.43768 168.646925 
L 311.594782 168.407424 
L 311.674966 167.843267 
L 312.040972 167.204598 
L 312.089368 167.060897 
L 312.455386 166.778819 
L 312.554508 166.629796 
L 312.589851 166.661729 
L 312.747835 166.784141 
L 313.083241 166.927841 
L 313.083241 166.911875 
L 313.268885 166.725596 
L 313.479475 166.081605 
L 313.570874 165.671793 
L 313.827682 165.224724 
L 313.895362 165.00119 
L 314.032106 164.431711 
L 314.201742 164.186888 
L 314.294678 163.681275 
L 314.546275 163.127762 
L 314.630051 162.659405 
L 314.73924 162.015414 
L 314.748279 161.83978 
L 315.119112 161.547057 
L 315.267516 161.057411 
L 315.41917 160.828554 
L 315.583417 160.322941 
L 315.873116 159.338327 
L 315.955352 159.22656 
L 316.131423 159.050926 
L 316.270474 158.82207 
L 316.563201 158.651758 
L 317.059247 158.582569 
L 317.059247 158.555958 
L 317.205431 158.353713 
L 317.420482 158.146145 
L 317.621002 157.688433 
L 317.787362 157.188142 
L 317.999593 156.512218 
L 318.179534 156.235461 
L 318.258452 155.490348 
L 318.314025 155.165691 
L 318.327503 154.888934 
L 318.657988 154.644111 
L 318.802018 154.127854 
L 319.70113 153.435963 
L 319.792654 153.244362 
L 319.92015 152.829228 
L 320.088924 152.680205 
L 320.218412 152.531182 
L 320.858458 151.1474 
L 321.322695 150.83871 
L 321.40504 150.551309 
L 321.526001 150.22133 
L 322.143744 148.624658 
L 322.460944 148.406446 
L 322.518379 148.300001 
L 322.928845 148.017923 
L 323.050096 147.767777 
L 323.377543 147.294098 
L 323.476322 146.980086 
L 323.667325 146.623496 
L 323.777251 146.517051 
L 324.414628 146.091272 
L 325.09361 144.888445 
L 325.629226 144.813934 
L 326.179556 144.569111 
L 326.753891 143.845286 
L 326.844914 143.334351 
L 326.966293 143.105495 
L 327.057284 142.945828 
L 328.223775 141.615268 
L 328.505339 141.322545 
L 328.560059 141.136266 
L 328.635247 140.976599 
L 329.055175 140.497597 
L 329.217741 140.321964 
L 329.665436 139.986662 
L 330.207843 139.103171 
L 330.605358 139.071237 
L 330.68384 139.198971 
L 330.797154 139.422505 
L 330.797154 139.422505 
L 331.755468 139.571528 
L 332.248809 139.826995 
L 332.897425 139.757806 
L 332.897425 139.731195 
L 333.347854 139.470405 
L 333.454123 139.278804 
L 333.520376 139.113815 
L 333.614723 138.672069 
L 333.763241 138.416602 
L 334.10862 137.586332 
L 334.188716 137.458598 
L 334.334642 137.139264 
L 334.431866 136.803963 
L 334.538038 136.415439 
L 334.701689 135.696937 
L 334.930636 135.42018 
L 335.554662 135.164713 
L 335.627275 134.903923 
L 335.77312 134.552655 
L 336.358514 133.722386 
L 336.440536 133.599974 
L 336.731113 133.440307 
L 337.268744 133.387085 
L 337.518516 133.296607 
L 337.946518 132.796316 
L 338.283413 131.705257 
L 338.395533 131.572201 
L 338.503479 130.576942 
L 338.57359 130.246963 
L 339.029323 127.851955 
L 339.449736 127.112164 
L 340.098218 126.526717 
L 340.312053 126.335117 
L 340.628199 125.930627 
L 341.095795 125.723059 
L 341.22274 125.169546 
L 341.308902 124.839567 
L 341.653615 124.546844 
L 341.95136 123.466429 
L 341.957213 123.429174 
L 342.341893 123.20564 
L 342.451833 123.125806 
L 342.451833 123.125806 
L 342.991104 123.051295 
L 343.033105 123.030006 
L 343.040397 123.030006 
L 343.530006 122.928883 
L 343.632646 122.865016 
L 343.857471 122.625516 
L 344.003163 122.119903 
L 344.265713 121.811213 
L 344.360498 121.475912 
L 344.492167 121.034166 
L 344.60669 120.874499 
L 344.872997 120.37953 
L 345.232317 120.416786 
L 345.403753 120.528553 
L 345.534469 120.650964 
L 345.749224 120.837243 
L 345.853632 121.193833 
L 345.929199 121.369467 
L 346.024533 121.523812 
L 346.55794 121.75799 
L 346.765106 121.619612 
L 346.903369 120.943688 
L 347.073338 120.37953 
L 347.128978 120.267763 
L 348.157302 119.911173 
L 348.707894 118.793503 
L 349.001938 118.633836 
L 349.091697 118.538035 
L 349.375374 118.266601 
L 349.628065 117.431009 
L 350.12839 117.250053 
L 350.29913 117.063775 
L 350.375101 116.850885 
L 350.535525 116.733796 
L 350.636433 116.590095 
L 350.790516 116.510262 
L 350.939052 116.382528 
L 351.089483 116.111094 
L 351.464256 115.829015 
L 352.464048 114.647478 
L 352.603344 114.301532 
L 353.007713 113.609641 
L 353.098013 113.476585 
L 353.225725 112.768727 
L 353.302734 112.635671 
L 353.738726 111.698957 
L 353.876501 111.448812 
L 353.982715 111.193344 
L 354.004098 111.028355 
L 354.11689 110.512097 
L 354.415664 109.985196 
L 355.136282 109.351849 
L 355.298266 109.192182 
L 355.617367 108.819625 
L 355.861947 108.649313 
L 355.965093 108.447068 
L 356.629971 107.707277 
L 357.118276 107.004741 
L 357.231129 106.658796 
L 357.461625 106.461873 
L 357.888093 106.382039 
L 358.722698 106.089316 
L 358.816153 105.69547 
L 358.98641 105.312269 
L 359.157882 104.838589 
L 359.290984 104.173309 
L 359.406631 103.848653 
L 359.711875 103.529318 
L 360.045708 103.098217 
L 360.371797 102.997094 
L 360.617138 102.826783 
L 360.871885 102.363748 
L 361.262406 102.172147 
L 361.517831 101.953935 
L 361.611325 101.767657 
L 361.77824 101.629279 
L 362.007201 101.469612 
L 362.158956 101.187533 
L 362.583307 100.852232 
L 362.720446 100.256141 
L 363.280398 99.383293 
L 363.38924 99.09057 
L 363.635376 98.984125 
L 363.904248 98.446579 
L 364.213656 97.392776 
L 364.258283 97.222464 
L 364.3549 96.535895 
L 364.694239 95.71627 
L 364.89358 95.365002 
L 365.19309 95.349036 
L 365.54767 95.391613 
L 365.697406 95.386291 
L 365.697406 95.386291 
L 365.94878 95.231946 
L 366.527946 94.114276 
L 367.045555 93.842842 
L 367.186934 93.470285 
L 367.233111 93.241428 
L 367.341292 92.597437 
L 367.596109 92.027958 
L 367.842108 90.990121 
L 367.902092 90.484508 
L 368.006735 90.319519 
L 368.246513 89.952284 
L 368.664724 88.430124 
L 368.700846 88.190623 
L 368.811138 87.530665 
L 369.382337 86.391706 
L 369.41619 86.290583 
L 369.536696 85.987215 
L 369.888646 85.630625 
L 369.987126 84.826967 
L 370.04958 84.646011 
L 370.158218 84.055242 
L 370.557839 83.347384 
L 370.561086 83.358029 
L 371.266803 83.347384 
L 371.385177 83.161106 
L 371.747552 82.000858 
L 372.101484 81.734746 
L 372.210134 81.346222 
L 372.48953 81.143977 
L 372.628356 80.824643 
L 372.993463 80.372252 
L 373.121103 79.84535 
L 373.250673 79.664394 
L 373.334622 79.206682 
L 373.334622 79.206682 
L 373.688841 79.313126 
L 373.814291 79.616494 
L 374.122966 79.510049 
L 374.597316 79.557949 
L 374.904984 79.983729 
L 374.943765 79.935828 
L 375.011319 79.675039 
L 375.132651 79.355704 
L 375.282152 78.98847 
L 375.384142 78.866058 
L 375.5504 78.685102 
L 375.676022 78.456246 
L 376.010101 78.195456 
L 376.012976 78.232712 
L 376.075217 78.285934 
L 376.10631 78.184812 
L 376.292249 77.84951 
L 376.54416 77.599365 
L 376.922012 77.39712 
L 377.17389 77.306642 
L 378.066397 77.200197 
L 378.185499 76.73184 
L 378.48616 76.146394 
L 379.4322 74.762611 
L 379.823357 74.661489 
L 380.235128 74.060076 
L 380.599016 73.953631 
L 380.94525 73.30964 
L 381.068606 73.102072 
L 381.071922 73.112717 
L 381.216981 73.224484 
L 381.583163 73.352218 
L 381.697879 73.256417 
L 381.86051 72.905149 
L 382.346683 72.261158 
L 382.543268 71.941824 
L 382.805957 71.154132 
L 383.058169 71.058332 
L 383.377382 71.159455 
L 383.978097 71.638456 
L 383.988547 71.627812 
L 384.03215 71.606523 
L 384.099439 71.606523 
L 384.150167 71.500078 
L 384.407289 71.079621 
L 384.775065 69.780995 
L 384.877126 69.530849 
L 385.071215 69.41376 
L 385.428834 69.307315 
L 385.59691 68.769769 
L 385.657857 68.578168 
L 385.768478 68.551557 
L 385.8417 68.418501 
L 385.892496 68.375923 
L 385.942777 68.39189 
L 386.46589 68.445112 
L 386.753636 68.370601 
L 387.289845 68.636713 
L 388.073967 68.051267 
L 388.301541 67.15713 
L 388.348339 67.050685 
L 388.49406 66.667484 
L 388.679671 66.247027 
L 388.918799 66.082038 
L 389.11185 65.799959 
L 389.217333 65.640292 
L 389.422752 65.432724 
L 389.560521 65.182579 
L 389.917836 65.097423 
L 390.023808 65.241124 
L 390.042808 65.070812 
L 390.168447 64.714222 
L 390.483231 63.963786 
L 390.628825 63.68703 
L 390.862203 63.633807 
L 391.276651 63.804119 
L 391.475502 63.942497 
L 391.557605 64.23522 
L 391.685834 64.6131 
L 392.192096 64.346988 
L 392.368379 64.032975 
L 392.865241 63.617841 
L 393.087531 63.016428 
L 393.092623 63.02175 
L 393.114682 62.920627 
L 393.342478 62.196803 
L 393.855142 61.345244 
L 394.52943 61.07381 
L 395.275011 60.62142 
L 395.608077 60.514975 
L 396.256421 60.19564 
L 396.526083 60.00404 
L 396.780698 59.168448 
L 397.131226 58.524457 
L 397.653491 58.497846 
L 398.035025 58.391401 
L 398.103968 58.258345 
L 398.422896 167.880522 
L 398.487273 182.841339 
L 398.487273 182.841339 
" clip-path="url(#p81a3ca3b1c)" style="fill: none; stroke-dasharray: 1.85,0.8; stroke-dashoffset: 0; stroke: #ff0000; stroke-width: 0.5"/>
   </g>
   <g id="patch_3">
    <path d="M 57.6 307.584 
L 57.6 41.472 
" style="fill: none; stroke: #000000; stroke-width: 0.8; stroke-linejoin: miter; stroke-linecap: square"/>
   </g>
   <g id="patch_4">
    <path d="M 414.72 307.584 
L 414.72 41.472 
" style="fill: none; stroke: #000000; stroke-width: 0.8; stroke-linejoin: miter; stroke-linecap: square"/>
   </g>
   <g id="patch_5">
    <path d="M 57.6 307.584 
L 414.72 307.584 
" style="fill: none; stroke: #000000; stroke-width: 0.8; stroke-linejoin: miter; stroke-linecap: square"/>
   </g>
   <g id="patch_6">
    <path d="M 57.6 41.472 
L 414.72 41.472 
" style="fill: none; stroke: #000000; stroke-width: 0.8; stroke-linejoin: miter; stroke-linecap: square"/>
   </g>
   <g id="legend_1">
    <g id="patch_7">
     <path d="M 314.584 105.43945 
L 523.329313 105.43945 
Q 525.329313 105.43945 525.329313 103.43945 
L 525.329313 75.0832 
Q 525.329313 73.0832 523.329313 73.0832 
L 314.584 73.0832 
Q 312.584 73.0832 312.584 75.0832 
L 312.584 103.43945 
Q 312.584 105.43945 314.584 105.43945 
z
" style="fill: #ffffff; opacity: 0.8; stroke: #cccccc; stroke-linejoin: miter"/>
    </g>
    <g id="line2d_35">
     <path d="M 316.584 81.181637 
L 326.584 81.181637 
L 336.584 81.181637 
" style="fill: none; stroke-dasharray: 1.85,0.8; stroke-dashoffset: 0; stroke: #8000ff; stroke-width: 0.5"/>
    </g>
    <g id="text_12">
     <!-- Total number of electron traps500 -->
     <g transform="translate(344.584 84.681637) scale(0.1 -0.1)">
      <defs>
       <path id="DejaVuSans-54" d="M -19 4666 
L 3928 4666 
L 3928 4134 
L 2272 4134 
L 2272 0 
L 1638 0 
L 1638 4134 
L -19 4134 
L -19 4666 
z
" transform="scale(0.015625)"/>
       <path id="DejaVuSans-75" d="M 544 1381 
L 544 3500 
L 1119 3500 
L 1119 1403 
Q 1119 906 1312 657 
Q 1506 409 1894 409 
Q 2359 409 2629 706 
Q 2900 1003 2900 1516 
L 2900 3500 
L 3475 3500 
L 3475 0 
L 2900 0 
L 2900 538 
Q 2691 219 2414 64 
Q 2138 -91 1772 -91 
Q 1169 -91 856 284 
Q 544 659 544 1381 
z
M 1991 3584 
L 1991 3584 
z
" transform="scale(0.015625)"/>
       <path id="DejaVuSans-62" d="M 3116 1747 
Q 3116 2381 2855 2742 
Q 2594 3103 2138 3103 
Q 1681 3103 1420 2742 
Q 1159 2381 1159 1747 
Q 1159 1113 1420 752 
Q 1681 391 2138 391 
Q 2594 391 2855 752 
Q 3116 1113 3116 1747 
z
M 1159 2969 
Q 1341 3281 1617 3432 
Q 1894 3584 2278 3584 
Q 2916 3584 3314 3078 
Q 3713 2572 3713 1747 
Q 3713 922 3314 415 
Q 2916 -91 2278 -91 
Q 1894 -91 1617 61 
Q 1341 213 1159 525 
L 1159 0 
L 581 0 
L 581 4863 
L 1159 4863 
L 1159 2969 
z
" transform="scale(0.015625)"/>
       <path id="DejaVuSans-35" d="M 691 4666 
L 3169 4666 
L 3169 4134 
L 1269 4134 
L 1269 2991 
Q 1406 3038 1543 3061 
Q 1681 3084 1819 3084 
Q 2600 3084 3056 2656 
Q 3513 2228 3513 1497 
Q 3513 744 3044 326 
Q 2575 -91 1722 -91 
Q 1428 -91 1123 -41 
Q 819 9 494 109 
L 494 744 
Q 775 591 1075 516 
Q 1375 441 1709 441 
Q 2250 441 2565 725 
Q 2881 1009 2881 1497 
Q 2881 1984 2565 2268 
Q 2250 2553 1709 2553 
Q 1456 2553 1204 2497 
Q 953 2441 691 2322 
L 691 4666 
z
" transform="scale(0.015625)"/>
      </defs>
      <use xlink:href="#DejaVuSans-54"/>
      <use xlink:href="#DejaVuSans-6f" transform="translate(44.083984 0)"/>
      <use xlink:href="#DejaVuSans-74" transform="translate(105.265625 0)"/>
      <use xlink:href="#DejaVuSans-61" transform="translate(144.474609 0)"/>
      <use xlink:href="#DejaVuSans-6c" transform="translate(205.753906 0)"/>
      <use xlink:href="#DejaVuSans-20" transform="translate(233.537109 0)"/>
      <use xlink:href="#DejaVuSans-6e" transform="translate(265.324219 0)"/>
      <use xlink:href="#DejaVuSans-75" transform="translate(328.703125 0)"/>
      <use xlink:href="#DejaVuSans-6d" transform="translate(392.082031 0)"/>
      <use xlink:href="#DejaVuSans-62" transform="translate(489.494141 0)"/>
      <use xlink:href="#DejaVuSans-65" transform="translate(552.970703 0)"/>
      <use xlink:href="#DejaVuSans-72" transform="translate(614.494141 0)"/>
      <use xlink:href="#DejaVuSans-20" transform="translate(655.607422 0)"/>
      <use xlink:href="#DejaVuSans-6f" transform="translate(687.394531 0)"/>
      <use xlink:href="#DejaVuSans-66" transform="translate(748.576172 0)"/>
      <use xlink:href="#DejaVuSans-20" transform="translate(783.78125 0)"/>
      <use xlink:href="#DejaVuSans-65" transform="translate(815.568359 0)"/>
      <use xlink:href="#DejaVuSans-6c" transform="translate(877.091797 0)"/>
      <use xlink:href="#DejaVuSans-65" transform="translate(904.875 0)"/>
      <use xlink:href="#DejaVuSans-63" transform="translate(966.398438 0)"/>
      <use xlink:href="#DejaVuSans-74" transform="translate(1021.378906 0)"/>
      <use xlink:href="#DejaVuSans-72" transform="translate(1060.587891 0)"/>
      <use xlink:href="#DejaVuSans-6f" transform="translate(1099.451172 0)"/>
      <use xlink:href="#DejaVuSans-6e" transform="translate(1160.632812 0)"/>
      <use xlink:href="#DejaVuSans-20" transform="translate(1224.011719 0)"/>
      <use xlink:href="#DejaVuSans-74" transform="translate(1255.798828 0)"/>
      <use xlink:href="#DejaVuSans-72" transform="translate(1295.007812 0)"/>
      <use xlink:href="#DejaVuSans-61" transform="translate(1336.121094 0)"/>
      <use xlink:href="#DejaVuSans-70" transform="translate(1397.400391 0)"/>
      <use xlink:href="#DejaVuSans-73" transform="translate(1460.876953 0)"/>
      <use xlink:href="#DejaVuSans-35" transform="translate(1512.976562 0)"/>
      <use xlink:href="#DejaVuSans-30" transform="translate(1576.599609 0)"/>
      <use xlink:href="#DejaVuSans-30" transform="translate(1640.222656 0)"/>
     </g>
    </g>
    <g id="line2d_36">
     <path d="M 316.584 95.859762 
L 326.584 95.859762 
L 336.584 95.859762 
" style="fill: none; stroke-dasharray: 1.85,0.8; stroke-dashoffset: 0; stroke: #ff0000; stroke-width: 0.5"/>
    </g>
    <g id="text_13">
     <!-- Total number of electron traps1000 -->
     <g transform="translate(344.584 99.359762) scale(0.1 -0.1)">
      <use xlink:href="#DejaVuSans-54"/>
      <use xlink:href="#DejaVuSans-6f" transform="translate(44.083984 0)"/>
      <use xlink:href="#DejaVuSans-74" transform="translate(105.265625 0)"/>
      <use xlink:href="#DejaVuSans-61" transform="translate(144.474609 0)"/>
      <use xlink:href="#DejaVuSans-6c" transform="translate(205.753906 0)"/>
      <use xlink:href="#DejaVuSans-20" transform="translate(233.537109 0)"/>
      <use xlink:href="#DejaVuSans-6e" transform="translate(265.324219 0)"/>
      <use xlink:href="#DejaVuSans-75" transform="translate(328.703125 0)"/>
      <use xlink:href="#DejaVuSans-6d" transform="translate(392.082031 0)"/>
      <use xlink:href="#DejaVuSans-62" transform="translate(489.494141 0)"/>
      <use xlink:href="#DejaVuSans-65" transform="translate(552.970703 0)"/>
      <use xlink:href="#DejaVuSans-72" transform="translate(614.494141 0)"/>
      <use xlink:href="#DejaVuSans-20" transform="translate(655.607422 0)"/>
      <use xlink:href="#DejaVuSans-6f" transform="translate(687.394531 0)"/>
      <use xlink:href="#DejaVuSans-66" transform="translate(748.576172 0)"/>
      <use xlink:href="#DejaVuSans-20" transform="translate(783.78125 0)"/>
      <use xlink:href="#DejaVuSans-65" transform="translate(815.568359 0)"/>
      <use xlink:href="#DejaVuSans-6c" transform="translate(877.091797 0)"/>
      <use xlink:href="#DejaVuSans-65" transform="translate(904.875 0)"/>
      <use xlink:href="#DejaVuSans-63" transform="translate(966.398438 0)"/>
      <use xlink:href="#DejaVuSans-74" transform="translate(1021.378906 0)"/>
      <use xlink:href="#DejaVuSans-72" transform="translate(1060.587891 0)"/>
      <use xlink:href="#DejaVuSans-6f" transform="translate(1099.451172 0)"/>
      <use xlink:href="#DejaVuSans-6e" transform="translate(1160.632812 0)"/>
      <use xlink:href="#DejaVuSans-20" transform="translate(1224.011719 0)"/>
      <use xlink:href="#DejaVuSans-74" transform="translate(1255.798828 0)"/>
      <use xlink:href="#DejaVuSans-72" transform="translate(1295.007812 0)"/>
      <use xlink:href="#DejaVuSans-61" transform="translate(1336.121094 0)"/>
      <use xlink:href="#DejaVuSans-70" transform="translate(1397.400391 0)"/>
      <use xlink:href="#DejaVuSans-73" transform="translate(1460.876953 0)"/>
      <use xlink:href="#DejaVuSans-31" transform="translate(1512.976562 0)"/>
      <use xlink:href="#DejaVuSans-30" transform="translate(1576.599609 0)"/>
      <use xlink:href="#DejaVuSans-30" transform="translate(1640.222656 0)"/>
      <use xlink:href="#DejaVuSans-30" transform="translate(1703.845703 0)"/>
     </g>
    </g>
   </g>
  </g>
 </g>
 <defs>
  <clipPath id="p81a3ca3b1c">
   <rect x="57.6" y="41.472" width="357.12" height="266.112"/>
  </clipPath>
 </defs>
</svg>
