<?xml version="1.0" encoding="utf-8" standalone="no"?>
<!DOCTYPE svg PUBLIC "-//W3C//DTD SVG 1.1//EN"
  "http://www.w3.org/Graphics/SVG/1.1/DTD/svg11.dtd">
<svg xmlns:xlink="http://www.w3.org/1999/xlink" width="460.8pt" height="345.6pt" viewBox="0 0 460.8 345.6" xmlns="http://www.w3.org/2000/svg" version="1.1">
 <metadata>
  <rdf:RDF xmlns:dc="http://purl.org/dc/elements/1.1/" xmlns:cc="http://creativecommons.org/ns#" xmlns:rdf="http://www.w3.org/1999/02/22-rdf-syntax-ns#">
   <cc:Work>
    <dc:type rdf:resource="http://purl.org/dc/dcmitype/StillImage"/>
    <dc:date>2025-03-23T15:56:09.936348</dc:date>
    <dc:format>image/svg+xml</dc:format>
    <dc:creator>
     <cc:Agent>
      <dc:title>Matplotlib v3.10.0, https://matplotlib.org/</dc:title>
     </cc:Agent>
    </dc:creator>
   </cc:Work>
  </rdf:RDF>
 </metadata>
 <defs>
  <style type="text/css">*{stroke-linejoin: round; stroke-linecap: butt}</style>
 </defs>
 <g id="figure_1">
  <g id="patch_1">
   <path d="M 0 345.6 
L 460.8 345.6 
L 460.8 0 
L 0 0 
z
" style="fill: #ffffff"/>
  </g>
  <g id="axes_1">
   <g id="patch_2">
    <path d="M 57.6 307.584 
L 414.72 307.584 
L 414.72 41.472 
L 57.6 41.472 
z
" style="fill: #ffffff"/>
   </g>
   <g id="matplotlib.axis_1">
    <g id="xtick_1">
     <g id="line2d_1">
      <defs>
       <path id="md9acb3abfe" d="M 0 0 
L 0 3.5 
" style="stroke: #000000; stroke-width: 0.8"/>
      </defs>
      <g>
       <use xlink:href="#md9acb3abfe" x="63.159153" y="307.584" style="stroke: #000000; stroke-width: 0.8"/>
      </g>
     </g>
     <g id="text_1">
      <!-- 0 -->
      <g transform="translate(59.977903 322.182437) scale(0.1 -0.1)">
       <defs>
        <path id="DejaVuSans-30" d="M 2034 4250 
Q 1547 4250 1301 3770 
Q 1056 3291 1056 2328 
Q 1056 1369 1301 889 
Q 1547 409 2034 409 
Q 2525 409 2770 889 
Q 3016 1369 3016 2328 
Q 3016 3291 2770 3770 
Q 2525 4250 2034 4250 
z
M 2034 4750 
Q 2819 4750 3233 4129 
Q 3647 3509 3647 2328 
Q 3647 1150 3233 529 
Q 2819 -91 2034 -91 
Q 1250 -91 836 529 
Q 422 1150 422 2328 
Q 422 3509 836 4129 
Q 1250 4750 2034 4750 
z
" transform="scale(0.015625)"/>
       </defs>
       <use xlink:href="#DejaVuSans-30"/>
      </g>
     </g>
    </g>
    <g id="xtick_2">
     <g id="line2d_2">
      <g>
       <use xlink:href="#md9acb3abfe" x="107.632379" y="307.584" style="stroke: #000000; stroke-width: 0.8"/>
      </g>
     </g>
     <g id="text_2">
      <!-- 100 -->
      <g transform="translate(98.088629 322.182437) scale(0.1 -0.1)">
       <defs>
        <path id="DejaVuSans-31" d="M 794 531 
L 1825 531 
L 1825 4091 
L 703 3866 
L 703 4441 
L 1819 4666 
L 2450 4666 
L 2450 531 
L 3481 531 
L 3481 0 
L 794 0 
L 794 531 
z
" transform="scale(0.015625)"/>
       </defs>
       <use xlink:href="#DejaVuSans-31"/>
       <use xlink:href="#DejaVuSans-30" transform="translate(63.623047 0)"/>
       <use xlink:href="#DejaVuSans-30" transform="translate(127.246094 0)"/>
      </g>
     </g>
    </g>
    <g id="xtick_3">
     <g id="line2d_3">
      <g>
       <use xlink:href="#md9acb3abfe" x="152.105604" y="307.584" style="stroke: #000000; stroke-width: 0.8"/>
      </g>
     </g>
     <g id="text_3">
      <!-- 200 -->
      <g transform="translate(142.561854 322.182437) scale(0.1 -0.1)">
       <defs>
        <path id="DejaVuSans-32" d="M 1228 531 
L 3431 531 
L 3431 0 
L 469 0 
L 469 531 
Q 828 903 1448 1529 
Q 2069 2156 2228 2338 
Q 2531 2678 2651 2914 
Q 2772 3150 2772 3378 
Q 2772 3750 2511 3984 
Q 2250 4219 1831 4219 
Q 1534 4219 1204 4116 
Q 875 4013 500 3803 
L 500 4441 
Q 881 4594 1212 4672 
Q 1544 4750 1819 4750 
Q 2544 4750 2975 4387 
Q 3406 4025 3406 3419 
Q 3406 3131 3298 2873 
Q 3191 2616 2906 2266 
Q 2828 2175 2409 1742 
Q 1991 1309 1228 531 
z
" transform="scale(0.015625)"/>
       </defs>
       <use xlink:href="#DejaVuSans-32"/>
       <use xlink:href="#DejaVuSans-30" transform="translate(63.623047 0)"/>
       <use xlink:href="#DejaVuSans-30" transform="translate(127.246094 0)"/>
      </g>
     </g>
    </g>
    <g id="xtick_4">
     <g id="line2d_4">
      <g>
       <use xlink:href="#md9acb3abfe" x="196.578829" y="307.584" style="stroke: #000000; stroke-width: 0.8"/>
      </g>
     </g>
     <g id="text_4">
      <!-- 300 -->
      <g transform="translate(187.035079 322.182437) scale(0.1 -0.1)">
       <defs>
        <path id="DejaVuSans-33" d="M 2597 2516 
Q 3050 2419 3304 2112 
Q 3559 1806 3559 1356 
Q 3559 666 3084 287 
Q 2609 -91 1734 -91 
Q 1441 -91 1130 -33 
Q 819 25 488 141 
L 488 750 
Q 750 597 1062 519 
Q 1375 441 1716 441 
Q 2309 441 2620 675 
Q 2931 909 2931 1356 
Q 2931 1769 2642 2001 
Q 2353 2234 1838 2234 
L 1294 2234 
L 1294 2753 
L 1863 2753 
Q 2328 2753 2575 2939 
Q 2822 3125 2822 3475 
Q 2822 3834 2567 4026 
Q 2313 4219 1838 4219 
Q 1578 4219 1281 4162 
Q 984 4106 628 3988 
L 628 4550 
Q 988 4650 1302 4700 
Q 1616 4750 1894 4750 
Q 2613 4750 3031 4423 
Q 3450 4097 3450 3541 
Q 3450 3153 3228 2886 
Q 3006 2619 2597 2516 
z
" transform="scale(0.015625)"/>
       </defs>
       <use xlink:href="#DejaVuSans-33"/>
       <use xlink:href="#DejaVuSans-30" transform="translate(63.623047 0)"/>
       <use xlink:href="#DejaVuSans-30" transform="translate(127.246094 0)"/>
      </g>
     </g>
    </g>
    <g id="xtick_5">
     <g id="line2d_5">
      <g>
       <use xlink:href="#md9acb3abfe" x="241.052055" y="307.584" style="stroke: #000000; stroke-width: 0.8"/>
      </g>
     </g>
     <g id="text_5">
      <!-- 400 -->
      <g transform="translate(231.508305 322.182437) scale(0.1 -0.1)">
       <defs>
        <path id="DejaVuSans-34" d="M 2419 4116 
L 825 1625 
L 2419 1625 
L 2419 4116 
z
M 2253 4666 
L 3047 4666 
L 3047 1625 
L 3713 1625 
L 3713 1100 
L 3047 1100 
L 3047 0 
L 2419 0 
L 2419 1100 
L 313 1100 
L 313 1709 
L 2253 4666 
z
" transform="scale(0.015625)"/>
       </defs>
       <use xlink:href="#DejaVuSans-34"/>
       <use xlink:href="#DejaVuSans-30" transform="translate(63.623047 0)"/>
       <use xlink:href="#DejaVuSans-30" transform="translate(127.246094 0)"/>
      </g>
     </g>
    </g>
    <g id="xtick_6">
     <g id="line2d_6">
      <g>
       <use xlink:href="#md9acb3abfe" x="285.52528" y="307.584" style="stroke: #000000; stroke-width: 0.8"/>
      </g>
     </g>
     <g id="text_6">
      <!-- 500 -->
      <g transform="translate(275.98153 322.182437) scale(0.1 -0.1)">
       <defs>
        <path id="DejaVuSans-35" d="M 691 4666 
L 3169 4666 
L 3169 4134 
L 1269 4134 
L 1269 2991 
Q 1406 3038 1543 3061 
Q 1681 3084 1819 3084 
Q 2600 3084 3056 2656 
Q 3513 2228 3513 1497 
Q 3513 744 3044 326 
Q 2575 -91 1722 -91 
Q 1428 -91 1123 -41 
Q 819 9 494 109 
L 494 744 
Q 775 591 1075 516 
Q 1375 441 1709 441 
Q 2250 441 2565 725 
Q 2881 1009 2881 1497 
Q 2881 1984 2565 2268 
Q 2250 2553 1709 2553 
Q 1456 2553 1204 2497 
Q 953 2441 691 2322 
L 691 4666 
z
" transform="scale(0.015625)"/>
       </defs>
       <use xlink:href="#DejaVuSans-35"/>
       <use xlink:href="#DejaVuSans-30" transform="translate(63.623047 0)"/>
       <use xlink:href="#DejaVuSans-30" transform="translate(127.246094 0)"/>
      </g>
     </g>
    </g>
    <g id="xtick_7">
     <g id="line2d_7">
      <g>
       <use xlink:href="#md9acb3abfe" x="329.998506" y="307.584" style="stroke: #000000; stroke-width: 0.8"/>
      </g>
     </g>
     <g id="text_7">
      <!-- 600 -->
      <g transform="translate(320.454756 322.182437) scale(0.1 -0.1)">
       <defs>
        <path id="DejaVuSans-36" d="M 2113 2584 
Q 1688 2584 1439 2293 
Q 1191 2003 1191 1497 
Q 1191 994 1439 701 
Q 1688 409 2113 409 
Q 2538 409 2786 701 
Q 3034 994 3034 1497 
Q 3034 2003 2786 2293 
Q 2538 2584 2113 2584 
z
M 3366 4563 
L 3366 3988 
Q 3128 4100 2886 4159 
Q 2644 4219 2406 4219 
Q 1781 4219 1451 3797 
Q 1122 3375 1075 2522 
Q 1259 2794 1537 2939 
Q 1816 3084 2150 3084 
Q 2853 3084 3261 2657 
Q 3669 2231 3669 1497 
Q 3669 778 3244 343 
Q 2819 -91 2113 -91 
Q 1303 -91 875 529 
Q 447 1150 447 2328 
Q 447 3434 972 4092 
Q 1497 4750 2381 4750 
Q 2619 4750 2861 4703 
Q 3103 4656 3366 4563 
z
" transform="scale(0.015625)"/>
       </defs>
       <use xlink:href="#DejaVuSans-36"/>
       <use xlink:href="#DejaVuSans-30" transform="translate(63.623047 0)"/>
       <use xlink:href="#DejaVuSans-30" transform="translate(127.246094 0)"/>
      </g>
     </g>
    </g>
    <g id="xtick_8">
     <g id="line2d_8">
      <g>
       <use xlink:href="#md9acb3abfe" x="374.471731" y="307.584" style="stroke: #000000; stroke-width: 0.8"/>
      </g>
     </g>
     <g id="text_8">
      <!-- 700 -->
      <g transform="translate(364.927981 322.182437) scale(0.1 -0.1)">
       <defs>
        <path id="DejaVuSans-37" d="M 525 4666 
L 3525 4666 
L 3525 4397 
L 1831 0 
L 1172 0 
L 2766 4134 
L 525 4134 
L 525 4666 
z
" transform="scale(0.015625)"/>
       </defs>
       <use xlink:href="#DejaVuSans-37"/>
       <use xlink:href="#DejaVuSans-30" transform="translate(63.623047 0)"/>
       <use xlink:href="#DejaVuSans-30" transform="translate(127.246094 0)"/>
      </g>
     </g>
    </g>
    <g id="text_9">
     <!-- Temperature ($^{\circ}C$) -->
     <g transform="translate(192.16 335.862125) scale(0.1 -0.1)">
      <defs>
       <path id="DejaVuSans-54" d="M -19 4666 
L 3928 4666 
L 3928 4134 
L 2272 4134 
L 2272 0 
L 1638 0 
L 1638 4134 
L -19 4134 
L -19 4666 
z
" transform="scale(0.015625)"/>
       <path id="DejaVuSans-65" d="M 3597 1894 
L 3597 1613 
L 953 1613 
Q 991 1019 1311 708 
Q 1631 397 2203 397 
Q 2534 397 2845 478 
Q 3156 559 3463 722 
L 3463 178 
Q 3153 47 2828 -22 
Q 2503 -91 2169 -91 
Q 1331 -91 842 396 
Q 353 884 353 1716 
Q 353 2575 817 3079 
Q 1281 3584 2069 3584 
Q 2775 3584 3186 3129 
Q 3597 2675 3597 1894 
z
M 3022 2063 
Q 3016 2534 2758 2815 
Q 2500 3097 2075 3097 
Q 1594 3097 1305 2825 
Q 1016 2553 972 2059 
L 3022 2063 
z
" transform="scale(0.015625)"/>
       <path id="DejaVuSans-6d" d="M 3328 2828 
Q 3544 3216 3844 3400 
Q 4144 3584 4550 3584 
Q 5097 3584 5394 3201 
Q 5691 2819 5691 2113 
L 5691 0 
L 5113 0 
L 5113 2094 
Q 5113 2597 4934 2840 
Q 4756 3084 4391 3084 
Q 3944 3084 3684 2787 
Q 3425 2491 3425 1978 
L 3425 0 
L 2847 0 
L 2847 2094 
Q 2847 2600 2669 2842 
Q 2491 3084 2119 3084 
Q 1678 3084 1418 2786 
Q 1159 2488 1159 1978 
L 1159 0 
L 581 0 
L 581 3500 
L 1159 3500 
L 1159 2956 
Q 1356 3278 1631 3431 
Q 1906 3584 2284 3584 
Q 2666 3584 2933 3390 
Q 3200 3197 3328 2828 
z
" transform="scale(0.015625)"/>
       <path id="DejaVuSans-70" d="M 1159 525 
L 1159 -1331 
L 581 -1331 
L 581 3500 
L 1159 3500 
L 1159 2969 
Q 1341 3281 1617 3432 
Q 1894 3584 2278 3584 
Q 2916 3584 3314 3078 
Q 3713 2572 3713 1747 
Q 3713 922 3314 415 
Q 2916 -91 2278 -91 
Q 1894 -91 1617 61 
Q 1341 213 1159 525 
z
M 3116 1747 
Q 3116 2381 2855 2742 
Q 2594 3103 2138 3103 
Q 1681 3103 1420 2742 
Q 1159 2381 1159 1747 
Q 1159 1113 1420 752 
Q 1681 391 2138 391 
Q 2594 391 2855 752 
Q 3116 1113 3116 1747 
z
" transform="scale(0.015625)"/>
       <path id="DejaVuSans-72" d="M 2631 2963 
Q 2534 3019 2420 3045 
Q 2306 3072 2169 3072 
Q 1681 3072 1420 2755 
Q 1159 2438 1159 1844 
L 1159 0 
L 581 0 
L 581 3500 
L 1159 3500 
L 1159 2956 
Q 1341 3275 1631 3429 
Q 1922 3584 2338 3584 
Q 2397 3584 2469 3576 
Q 2541 3569 2628 3553 
L 2631 2963 
z
" transform="scale(0.015625)"/>
       <path id="DejaVuSans-61" d="M 2194 1759 
Q 1497 1759 1228 1600 
Q 959 1441 959 1056 
Q 959 750 1161 570 
Q 1363 391 1709 391 
Q 2188 391 2477 730 
Q 2766 1069 2766 1631 
L 2766 1759 
L 2194 1759 
z
M 3341 1997 
L 3341 0 
L 2766 0 
L 2766 531 
Q 2569 213 2275 61 
Q 1981 -91 1556 -91 
Q 1019 -91 701 211 
Q 384 513 384 1019 
Q 384 1609 779 1909 
Q 1175 2209 1959 2209 
L 2766 2209 
L 2766 2266 
Q 2766 2663 2505 2880 
Q 2244 3097 1772 3097 
Q 1472 3097 1187 3025 
Q 903 2953 641 2809 
L 641 3341 
Q 956 3463 1253 3523 
Q 1550 3584 1831 3584 
Q 2591 3584 2966 3190 
Q 3341 2797 3341 1997 
z
" transform="scale(0.015625)"/>
       <path id="DejaVuSans-74" d="M 1172 4494 
L 1172 3500 
L 2356 3500 
L 2356 3053 
L 1172 3053 
L 1172 1153 
Q 1172 725 1289 603 
Q 1406 481 1766 481 
L 2356 481 
L 2356 0 
L 1766 0 
Q 1100 0 847 248 
Q 594 497 594 1153 
L 594 3053 
L 172 3053 
L 172 3500 
L 594 3500 
L 594 4494 
L 1172 4494 
z
" transform="scale(0.015625)"/>
       <path id="DejaVuSans-75" d="M 544 1381 
L 544 3500 
L 1119 3500 
L 1119 1403 
Q 1119 906 1312 657 
Q 1506 409 1894 409 
Q 2359 409 2629 706 
Q 2900 1003 2900 1516 
L 2900 3500 
L 3475 3500 
L 3475 0 
L 2900 0 
L 2900 538 
Q 2691 219 2414 64 
Q 2138 -91 1772 -91 
Q 1169 -91 856 284 
Q 544 659 544 1381 
z
M 1991 3584 
L 1991 3584 
z
" transform="scale(0.015625)"/>
       <path id="DejaVuSans-20" transform="scale(0.015625)"/>
       <path id="DejaVuSans-28" d="M 1984 4856 
Q 1566 4138 1362 3434 
Q 1159 2731 1159 2009 
Q 1159 1288 1364 580 
Q 1569 -128 1984 -844 
L 1484 -844 
Q 1016 -109 783 600 
Q 550 1309 550 2009 
Q 550 2706 781 3412 
Q 1013 4119 1484 4856 
L 1984 4856 
z
" transform="scale(0.015625)"/>
       <path id="DejaVuSans-2218" d="M 2000 2619 
Q 1750 2619 1578 2445 
Q 1406 2272 1406 2022 
Q 1406 1775 1578 1605 
Q 1750 1435 2000 1435 
Q 2250 1435 2422 1605 
Q 2594 1775 2594 2022 
Q 2594 2269 2420 2444 
Q 2247 2619 2000 2619 
z
M 2000 3022 
Q 2200 3022 2384 2945 
Q 2569 2869 2703 2725 
Q 2847 2585 2919 2406 
Q 2991 2228 2991 2022 
Q 2991 1610 2702 1324 
Q 2413 1038 1994 1038 
Q 1572 1038 1290 1319 
Q 1009 1600 1009 2022 
Q 1009 2441 1296 2731 
Q 1584 3022 2000 3022 
z
" transform="scale(0.015625)"/>
       <path id="DejaVuSans-Oblique-43" d="M 4447 4306 
L 4319 3641 
Q 4019 3944 3683 4091 
Q 3347 4238 2956 4238 
Q 2422 4238 2017 3981 
Q 1613 3725 1319 3200 
Q 1131 2863 1032 2486 
Q 934 2109 934 1728 
Q 934 1091 1264 756 
Q 1594 422 2222 422 
Q 2656 422 3056 561 
Q 3456 700 3834 978 
L 3688 231 
Q 3316 72 2936 -9 
Q 2556 -91 2175 -91 
Q 1278 -91 773 396 
Q 269 884 269 1753 
Q 269 2309 461 2846 
Q 653 3384 1013 3828 
Q 1394 4300 1883 4525 
Q 2372 4750 3022 4750 
Q 3422 4750 3780 4639 
Q 4138 4528 4447 4306 
z
" transform="scale(0.015625)"/>
       <path id="DejaVuSans-29" d="M 513 4856 
L 1013 4856 
Q 1481 4119 1714 3412 
Q 1947 2706 1947 2009 
Q 1947 1309 1714 600 
Q 1481 -109 1013 -844 
L 513 -844 
Q 928 -128 1133 580 
Q 1338 1288 1338 2009 
Q 1338 2731 1133 3434 
Q 928 4138 513 4856 
z
" transform="scale(0.015625)"/>
      </defs>
      <use xlink:href="#DejaVuSans-54" transform="translate(0 0.125)"/>
      <use xlink:href="#DejaVuSans-65" transform="translate(61.083984 0.125)"/>
      <use xlink:href="#DejaVuSans-6d" transform="translate(122.607422 0.125)"/>
      <use xlink:href="#DejaVuSans-70" transform="translate(220.019531 0.125)"/>
      <use xlink:href="#DejaVuSans-65" transform="translate(283.496094 0.125)"/>
      <use xlink:href="#DejaVuSans-72" transform="translate(345.019531 0.125)"/>
      <use xlink:href="#DejaVuSans-61" transform="translate(386.132812 0.125)"/>
      <use xlink:href="#DejaVuSans-74" transform="translate(447.412109 0.125)"/>
      <use xlink:href="#DejaVuSans-75" transform="translate(486.621094 0.125)"/>
      <use xlink:href="#DejaVuSans-72" transform="translate(550 0.125)"/>
      <use xlink:href="#DejaVuSans-65" transform="translate(591.113281 0.125)"/>
      <use xlink:href="#DejaVuSans-20" transform="translate(652.636719 0.125)"/>
      <use xlink:href="#DejaVuSans-28" transform="translate(684.423828 0.125)"/>
      <use xlink:href="#DejaVuSans-2218" transform="translate(724.394531 38.40625) scale(0.7)"/>
      <use xlink:href="#DejaVuSans-Oblique-43" transform="translate(770.947266 0.125)"/>
      <use xlink:href="#DejaVuSans-29" transform="translate(840.771484 0.125)"/>
     </g>
    </g>
   </g>
   <g id="matplotlib.axis_2">
    <g id="ytick_1">
     <g id="line2d_9">
      <defs>
       <path id="mdc74a41ca3" d="M 0 0 
L -3.5 0 
" style="stroke: #000000; stroke-width: 0.8"/>
      </defs>
      <g>
       <use xlink:href="#mdc74a41ca3" x="57.6" y="295.488" style="stroke: #000000; stroke-width: 0.8"/>
      </g>
     </g>
     <g id="text_10">
      <!-- 0.00 -->
      <g transform="translate(28.334375 299.287219) scale(0.1 -0.1)">
       <defs>
        <path id="DejaVuSans-2e" d="M 684 794 
L 1344 794 
L 1344 0 
L 684 0 
L 684 794 
z
" transform="scale(0.015625)"/>
       </defs>
       <use xlink:href="#DejaVuSans-30"/>
       <use xlink:href="#DejaVuSans-2e" transform="translate(63.623047 0)"/>
       <use xlink:href="#DejaVuSans-30" transform="translate(95.410156 0)"/>
       <use xlink:href="#DejaVuSans-30" transform="translate(159.033203 0)"/>
      </g>
     </g>
    </g>
    <g id="ytick_2">
     <g id="line2d_10">
      <g>
       <use xlink:href="#mdc74a41ca3" x="57.6" y="260.729379" style="stroke: #000000; stroke-width: 0.8"/>
      </g>
     </g>
     <g id="text_11">
      <!-- 0.25 -->
      <g transform="translate(28.334375 264.528598) scale(0.1 -0.1)">
       <use xlink:href="#DejaVuSans-30"/>
       <use xlink:href="#DejaVuSans-2e" transform="translate(63.623047 0)"/>
       <use xlink:href="#DejaVuSans-32" transform="translate(95.410156 0)"/>
       <use xlink:href="#DejaVuSans-35" transform="translate(159.033203 0)"/>
      </g>
     </g>
    </g>
    <g id="ytick_3">
     <g id="line2d_11">
      <g>
       <use xlink:href="#mdc74a41ca3" x="57.6" y="225.970759" style="stroke: #000000; stroke-width: 0.8"/>
      </g>
     </g>
     <g id="text_12">
      <!-- 0.50 -->
      <g transform="translate(28.334375 229.769977) scale(0.1 -0.1)">
       <use xlink:href="#DejaVuSans-30"/>
       <use xlink:href="#DejaVuSans-2e" transform="translate(63.623047 0)"/>
       <use xlink:href="#DejaVuSans-35" transform="translate(95.410156 0)"/>
       <use xlink:href="#DejaVuSans-30" transform="translate(159.033203 0)"/>
      </g>
     </g>
    </g>
    <g id="ytick_4">
     <g id="line2d_12">
      <g>
       <use xlink:href="#mdc74a41ca3" x="57.6" y="191.212138" style="stroke: #000000; stroke-width: 0.8"/>
      </g>
     </g>
     <g id="text_13">
      <!-- 0.75 -->
      <g transform="translate(28.334375 195.011357) scale(0.1 -0.1)">
       <use xlink:href="#DejaVuSans-30"/>
       <use xlink:href="#DejaVuSans-2e" transform="translate(63.623047 0)"/>
       <use xlink:href="#DejaVuSans-37" transform="translate(95.410156 0)"/>
       <use xlink:href="#DejaVuSans-35" transform="translate(159.033203 0)"/>
      </g>
     </g>
    </g>
    <g id="ytick_5">
     <g id="line2d_13">
      <g>
       <use xlink:href="#mdc74a41ca3" x="57.6" y="156.453517" style="stroke: #000000; stroke-width: 0.8"/>
      </g>
     </g>
     <g id="text_14">
      <!-- 1.00 -->
      <g transform="translate(28.334375 160.252736) scale(0.1 -0.1)">
       <use xlink:href="#DejaVuSans-31"/>
       <use xlink:href="#DejaVuSans-2e" transform="translate(63.623047 0)"/>
       <use xlink:href="#DejaVuSans-30" transform="translate(95.410156 0)"/>
       <use xlink:href="#DejaVuSans-30" transform="translate(159.033203 0)"/>
      </g>
     </g>
    </g>
    <g id="ytick_6">
     <g id="line2d_14">
      <g>
       <use xlink:href="#mdc74a41ca3" x="57.6" y="121.694897" style="stroke: #000000; stroke-width: 0.8"/>
      </g>
     </g>
     <g id="text_15">
      <!-- 1.25 -->
      <g transform="translate(28.334375 125.494115) scale(0.1 -0.1)">
       <use xlink:href="#DejaVuSans-31"/>
       <use xlink:href="#DejaVuSans-2e" transform="translate(63.623047 0)"/>
       <use xlink:href="#DejaVuSans-32" transform="translate(95.410156 0)"/>
       <use xlink:href="#DejaVuSans-35" transform="translate(159.033203 0)"/>
      </g>
     </g>
    </g>
    <g id="ytick_7">
     <g id="line2d_15">
      <g>
       <use xlink:href="#mdc74a41ca3" x="57.6" y="86.936276" style="stroke: #000000; stroke-width: 0.8"/>
      </g>
     </g>
     <g id="text_16">
      <!-- 1.50 -->
      <g transform="translate(28.334375 90.735495) scale(0.1 -0.1)">
       <use xlink:href="#DejaVuSans-31"/>
       <use xlink:href="#DejaVuSans-2e" transform="translate(63.623047 0)"/>
       <use xlink:href="#DejaVuSans-35" transform="translate(95.410156 0)"/>
       <use xlink:href="#DejaVuSans-30" transform="translate(159.033203 0)"/>
      </g>
     </g>
    </g>
    <g id="ytick_8">
     <g id="line2d_16">
      <g>
       <use xlink:href="#mdc74a41ca3" x="57.6" y="52.177655" style="stroke: #000000; stroke-width: 0.8"/>
      </g>
     </g>
     <g id="text_17">
      <!-- 1.75 -->
      <g transform="translate(28.334375 55.976874) scale(0.1 -0.1)">
       <use xlink:href="#DejaVuSans-31"/>
       <use xlink:href="#DejaVuSans-2e" transform="translate(63.623047 0)"/>
       <use xlink:href="#DejaVuSans-37" transform="translate(95.410156 0)"/>
       <use xlink:href="#DejaVuSans-35" transform="translate(159.033203 0)"/>
      </g>
     </g>
    </g>
    <g id="text_18">
     <!-- Intensity ($^{\circ}C^{-1}$) -->
     <g transform="translate(22.234375 213.328) rotate(-90) scale(0.1 -0.1)">
      <defs>
       <path id="DejaVuSans-49" d="M 628 4666 
L 1259 4666 
L 1259 0 
L 628 0 
L 628 4666 
z
" transform="scale(0.015625)"/>
       <path id="DejaVuSans-6e" d="M 3513 2113 
L 3513 0 
L 2938 0 
L 2938 2094 
Q 2938 2591 2744 2837 
Q 2550 3084 2163 3084 
Q 1697 3084 1428 2787 
Q 1159 2491 1159 1978 
L 1159 0 
L 581 0 
L 581 3500 
L 1159 3500 
L 1159 2956 
Q 1366 3272 1645 3428 
Q 1925 3584 2291 3584 
Q 2894 3584 3203 3211 
Q 3513 2838 3513 2113 
z
" transform="scale(0.015625)"/>
       <path id="DejaVuSans-73" d="M 2834 3397 
L 2834 2853 
Q 2591 2978 2328 3040 
Q 2066 3103 1784 3103 
Q 1356 3103 1142 2972 
Q 928 2841 928 2578 
Q 928 2378 1081 2264 
Q 1234 2150 1697 2047 
L 1894 2003 
Q 2506 1872 2764 1633 
Q 3022 1394 3022 966 
Q 3022 478 2636 193 
Q 2250 -91 1575 -91 
Q 1294 -91 989 -36 
Q 684 19 347 128 
L 347 722 
Q 666 556 975 473 
Q 1284 391 1588 391 
Q 1994 391 2212 530 
Q 2431 669 2431 922 
Q 2431 1156 2273 1281 
Q 2116 1406 1581 1522 
L 1381 1569 
Q 847 1681 609 1914 
Q 372 2147 372 2553 
Q 372 3047 722 3315 
Q 1072 3584 1716 3584 
Q 2034 3584 2315 3537 
Q 2597 3491 2834 3397 
z
" transform="scale(0.015625)"/>
       <path id="DejaVuSans-69" d="M 603 3500 
L 1178 3500 
L 1178 0 
L 603 0 
L 603 3500 
z
M 603 4863 
L 1178 4863 
L 1178 4134 
L 603 4134 
L 603 4863 
z
" transform="scale(0.015625)"/>
       <path id="DejaVuSans-79" d="M 2059 -325 
Q 1816 -950 1584 -1140 
Q 1353 -1331 966 -1331 
L 506 -1331 
L 506 -850 
L 844 -850 
Q 1081 -850 1212 -737 
Q 1344 -625 1503 -206 
L 1606 56 
L 191 3500 
L 800 3500 
L 1894 763 
L 2988 3500 
L 3597 3500 
L 2059 -325 
z
" transform="scale(0.015625)"/>
       <path id="DejaVuSans-2212" d="M 678 2272 
L 4684 2272 
L 4684 1741 
L 678 1741 
L 678 2272 
z
" transform="scale(0.015625)"/>
      </defs>
      <use xlink:href="#DejaVuSans-49" transform="translate(0 0.684375)"/>
      <use xlink:href="#DejaVuSans-6e" transform="translate(29.492188 0.684375)"/>
      <use xlink:href="#DejaVuSans-74" transform="translate(92.871094 0.684375)"/>
      <use xlink:href="#DejaVuSans-65" transform="translate(132.080078 0.684375)"/>
      <use xlink:href="#DejaVuSans-6e" transform="translate(193.603516 0.684375)"/>
      <use xlink:href="#DejaVuSans-73" transform="translate(256.982422 0.684375)"/>
      <use xlink:href="#DejaVuSans-69" transform="translate(309.082031 0.684375)"/>
      <use xlink:href="#DejaVuSans-74" transform="translate(336.865234 0.684375)"/>
      <use xlink:href="#DejaVuSans-79" transform="translate(376.074219 0.684375)"/>
      <use xlink:href="#DejaVuSans-20" transform="translate(435.253906 0.684375)"/>
      <use xlink:href="#DejaVuSans-28" transform="translate(467.041016 0.684375)"/>
      <use xlink:href="#DejaVuSans-2218" transform="translate(507.011719 38.965625) scale(0.7)"/>
      <use xlink:href="#DejaVuSans-Oblique-43" transform="translate(553.564453 0.684375)"/>
      <use xlink:href="#DejaVuSans-2212" transform="translate(630.589193 38.965625) scale(0.7)"/>
      <use xlink:href="#DejaVuSans-31" transform="translate(689.241536 38.965625) scale(0.7)"/>
      <use xlink:href="#DejaVuSans-29" transform="translate(736.512044 0.684375)"/>
     </g>
    </g>
   </g>
   <g id="line2d_17">
    <path d="M 73.832727 295.488 
L 87.619427 295.488 
L 88.064159 292.70731 
L 98.737733 292.70731 
L 99.182466 289.926621 
L 101.406127 289.926621 
L 101.850859 287.145931 
L 102.295592 287.145931 
L 102.740324 284.365241 
L 103.629788 284.365241 
L 104.074521 278.803862 
L 106.742914 278.803862 
L 107.187646 276.023172 
L 107.632379 276.023172 
L 108.077111 273.242483 
L 109.411308 273.242483 
L 109.85604 270.461793 
L 110.300772 273.242483 
L 111.634969 273.242483 
L 112.079701 270.461793 
L 112.969166 270.461793 
L 113.413898 267.681103 
L 116.527024 267.681103 
L 117.416488 250.996966 
L 117.86122 250.996966 
L 118.305953 242.654897 
L 118.750685 239.874207 
L 120.529614 239.874207 
L 120.974346 237.093517 
L 121.419078 239.874207 
L 121.863811 239.874207 
L 122.308543 234.312828 
L 122.753275 223.190069 
L 123.64274 223.190069 
L 124.087472 225.970759 
L 124.532204 225.970759 
L 124.976936 223.190069 
L 125.421669 223.190069 
L 125.866401 206.505931 
L 126.311133 212.06731 
L 127.200598 212.06731 
L 127.64533 200.944552 
L 128.534795 200.944552 
L 128.979527 198.163862 
L 129.424259 200.944552 
L 129.868991 184.260414 
L 130.313724 187.041103 
L 130.758456 187.041103 
L 131.203188 178.699034 
L 132.092653 173.137655 
L 132.537385 173.137655 
L 132.982117 170.356966 
L 133.426849 162.014897 
L 133.871582 162.014897 
L 134.316314 159.234207 
L 134.761046 153.672828 
L 135.205778 153.672828 
L 135.650511 156.453517 
L 136.095243 153.672828 
L 136.539975 153.672828 
L 136.984707 145.330759 
L 137.42944 145.330759 
L 137.874172 123.085241 
L 138.318904 123.085241 
L 138.763636 114.743172 
L 139.208369 114.743172 
L 139.653101 123.085241 
L 140.097833 123.085241 
L 140.542565 131.42731 
L 140.987298 131.42731 
L 141.43203 128.646621 
L 141.876762 128.646621 
L 142.321494 123.085241 
L 142.766227 123.085241 
L 143.210959 125.865931 
L 144.100423 125.865931 
L 144.545156 131.42731 
L 144.989888 142.550069 
L 145.43462 142.550069 
L 145.879352 139.769379 
L 146.324085 128.646621 
L 146.768817 128.646621 
L 147.213549 134.208 
L 147.658281 131.42731 
L 148.103014 148.111448 
L 148.547746 136.98869 
L 149.43721 136.98869 
L 149.881943 148.111448 
L 150.326675 145.330759 
L 150.771407 139.769379 
L 151.216139 114.743172 
L 151.660872 109.181793 
L 152.105604 117.523862 
L 152.550336 111.962483 
L 152.995068 100.839724 
L 153.439801 100.839724 
L 153.884533 103.620414 
L 154.329265 100.839724 
L 154.773998 92.497655 
L 155.21873 95.278345 
L 155.663462 103.620414 
L 156.108194 103.620414 
L 156.552927 109.181793 
L 156.997659 103.620414 
L 157.887123 98.059034 
L 158.331856 100.839724 
L 158.776588 100.839724 
L 159.22132 109.181793 
L 159.666052 92.497655 
L 160.110785 114.743172 
L 160.555517 109.181793 
L 161.000249 117.523862 
L 161.444981 120.304552 
L 162.779178 120.304552 
L 163.22391 123.085241 
L 163.668643 117.523862 
L 164.113375 117.523862 
L 164.558107 123.085241 
L 165.002839 123.085241 
L 165.447572 114.743172 
L 166.337036 114.743172 
L 166.781768 111.962483 
L 167.671233 111.962483 
L 168.115965 100.839724 
L 168.560697 106.401103 
L 169.00543 103.620414 
L 169.894894 73.032828 
L 170.339626 61.910069 
L 170.784359 70.252138 
L 171.229091 70.252138 
L 171.673823 61.910069 
L 172.118555 61.910069 
L 172.563288 64.690759 
L 173.00802 53.568 
L 173.452752 81.374897 
L 173.897484 86.936276 
L 174.342217 95.278345 
L 174.786949 100.839724 
L 175.676413 120.304552 
L 176.121146 114.743172 
L 176.565878 123.085241 
L 177.455342 123.085241 
L 177.900075 117.523862 
L 178.789539 111.962483 
L 179.234271 117.523862 
L 179.679004 100.839724 
L 180.123736 103.620414 
L 181.0132 103.620414 
L 181.457933 89.716966 
L 181.902665 106.401103 
L 182.79213 106.401103 
L 183.236862 98.059034 
L 184.571059 98.059034 
L 185.015791 95.278345 
L 185.460523 95.278345 
L 185.905255 103.620414 
L 187.239452 103.620414 
L 187.684184 111.962483 
L 189.907846 111.962483 
L 190.352578 125.865931 
L 190.79731 131.42731 
L 191.242042 134.208 
L 192.576239 175.918345 
L 193.020971 178.699034 
L 193.465704 178.699034 
L 193.910436 184.260414 
L 194.7999 184.260414 
L 195.244633 200.944552 
L 196.578829 200.944552 
L 197.023562 198.163862 
L 197.913026 198.163862 
L 198.357758 203.725241 
L 198.802491 203.725241 
L 199.247223 212.06731 
L 199.691955 212.06731 
L 200.136687 214.848 
L 201.026152 214.848 
L 201.470884 220.409379 
L 201.915616 237.093517 
L 202.360349 237.093517 
L 202.805081 234.312828 
L 203.249813 234.312828 
L 203.694545 239.874207 
L 204.58401 239.874207 
L 205.028742 245.435586 
L 205.473474 253.777655 
L 206.362939 253.777655 
L 206.807671 250.996966 
L 207.252403 253.777655 
L 207.697136 253.777655 
L 208.141868 242.654897 
L 209.031333 242.654897 
L 209.476065 239.874207 
L 209.920797 239.874207 
L 210.365529 237.093517 
L 210.810262 237.093517 
L 211.254994 239.874207 
L 214.36812 239.874207 
L 214.812852 231.532138 
L 215.257584 228.751448 
L 215.702316 228.751448 
L 216.147049 231.532138 
L 217.036513 231.532138 
L 217.481245 228.751448 
L 219.704907 228.751448 
L 220.149639 225.970759 
L 220.594371 220.409379 
L 221.039103 220.409379 
L 221.483836 217.62869 
L 221.928568 217.62869 
L 222.818032 223.190069 
L 223.262765 203.725241 
L 223.707497 203.725241 
L 224.152229 206.505931 
L 224.596961 206.505931 
L 225.041694 209.286621 
L 226.37589 209.286621 
L 226.820623 203.725241 
L 227.710087 203.725241 
L 228.154819 209.286621 
L 228.599552 209.286621 
L 229.044284 212.06731 
L 229.489016 212.06731 
L 229.933748 209.286621 
L 230.378481 220.409379 
L 230.823213 220.409379 
L 231.267945 214.848 
L 231.712677 217.62869 
L 232.15741 217.62869 
L 232.602142 214.848 
L 235.270535 214.848 
L 235.715268 212.06731 
L 236.16 214.848 
L 236.604732 214.848 
L 237.049465 223.190069 
L 237.494197 225.970759 
L 239.717858 225.970759 
L 240.607323 220.409379 
L 241.052055 220.409379 
L 241.496787 217.62869 
L 241.941519 217.62869 
L 242.386252 220.409379 
L 242.830984 225.970759 
L 243.275716 225.970759 
L 243.720448 228.751448 
L 244.609913 228.751448 
L 245.054645 225.970759 
L 245.499377 248.216276 
L 247.278306 248.216276 
L 247.723039 242.654897 
L 248.167771 250.996966 
L 248.612503 250.996966 
L 249.057235 253.777655 
L 249.501968 250.996966 
L 250.391432 250.996966 
L 250.836164 248.216276 
L 251.725629 248.216276 
L 252.170361 250.996966 
L 253.059826 250.996966 
L 253.504558 256.558345 
L 254.394022 256.558345 
L 254.838755 262.119724 
L 256.172951 262.119724 
L 256.617684 259.339034 
L 257.062416 259.339034 
L 257.507148 256.558345 
L 257.95188 259.339034 
L 259.286077 259.339034 
L 259.730809 250.996966 
L 260.175542 250.996966 
L 260.620274 245.435586 
L 261.509738 245.435586 
L 262.843935 253.777655 
L 263.288667 250.996966 
L 263.7334 256.558345 
L 266.846526 256.558345 
L 267.291258 259.339034 
L 269.514919 259.339034 
L 269.959651 264.900414 
L 270.849116 264.900414 
L 271.73858 270.461793 
L 272.183313 270.461793 
L 272.628045 267.681103 
L 273.072777 270.461793 
L 274.406974 270.461793 
L 274.851706 267.681103 
L 278.409564 267.681103 
L 278.854296 270.461793 
L 279.299029 270.461793 
L 279.743761 273.242483 
L 281.52269 273.242483 
L 281.967422 281.584552 
L 282.412154 281.584552 
L 282.856887 287.145931 
L 283.301619 287.145931 
L 283.746351 284.365241 
L 284.191083 284.365241 
L 284.635816 278.803862 
L 285.080548 278.803862 
L 285.52528 281.584552 
L 288.193674 281.584552 
L 288.638406 278.803862 
L 290.862067 278.803862 
L 291.751532 273.242483 
L 294.419925 273.242483 
L 294.864658 276.023172 
L 295.30939 276.023172 
L 295.754122 273.242483 
L 296.643587 273.242483 
L 297.088319 276.023172 
L 305.538232 276.023172 
L 305.982964 278.803862 
L 306.427696 278.803862 
L 306.872428 284.365241 
L 310.430286 284.365241 
L 310.875019 287.145931 
L 313.09868 287.145931 
L 313.988144 292.70731 
L 317.546002 292.70731 
L 317.990735 295.488 
L 319.324932 295.488 
L 319.769664 292.70731 
L 323.327522 292.70731 
L 323.772254 289.926621 
L 327.774844 289.926621 
L 328.219577 287.145931 
L 333.111631 287.145931 
L 333.556364 284.365241 
L 341.561544 284.365241 
L 342.006276 287.145931 
L 343.785205 287.145931 
L 344.229938 284.365241 
L 345.564134 284.365241 
L 346.008867 287.145931 
L 350.011457 287.145931 
L 350.456189 289.926621 
L 355.348244 289.926621 
L 355.792976 292.70731 
L 366.021818 292.70731 
L 366.46655 295.488 
L 376.25066 295.488 
L 376.695392 292.70731 
L 398.487273 292.70731 
L 398.487273 292.70731 
" clip-path="url(#p6593c408dd)" style="fill: none; stroke-dasharray: 1.85,0.8; stroke-dashoffset: 0; stroke: #8000ff; stroke-width: 0.5"/>
   </g>
   <g id="line2d_18">
    <path d="M 73.832727 295.488 
L 104.074521 295.488 
L 104.519253 292.70731 
L 111.190237 292.70731 
L 111.634969 289.926621 
L 114.748095 289.926621 
L 115.192827 287.145931 
L 115.637559 287.145931 
L 116.082291 281.584552 
L 116.527024 278.803862 
L 120.974346 278.803862 
L 121.419078 267.681103 
L 126.311133 267.681103 
L 126.755866 270.461793 
L 127.200598 264.900414 
L 128.090062 259.339034 
L 128.534795 250.996966 
L 131.203188 250.996966 
L 132.092653 245.435586 
L 132.537385 239.874207 
L 133.426849 239.874207 
L 133.871582 242.654897 
L 134.316314 239.874207 
L 135.205778 239.874207 
L 135.650511 237.093517 
L 136.539975 237.093517 
L 136.984707 231.532138 
L 137.42944 234.312828 
L 137.874172 234.312828 
L 138.318904 239.874207 
L 138.763636 237.093517 
L 139.653101 237.093517 
L 140.097833 225.970759 
L 140.542565 223.190069 
L 142.321494 223.190069 
L 142.766227 217.62869 
L 143.210959 217.62869 
L 143.655691 223.190069 
L 144.545156 223.190069 
L 144.989888 214.848 
L 145.43462 212.06731 
L 146.324085 200.944552 
L 147.213549 200.944552 
L 147.658281 195.383172 
L 148.103014 184.260414 
L 148.547746 178.699034 
L 148.992478 178.699034 
L 149.43721 184.260414 
L 149.881943 184.260414 
L 150.326675 187.041103 
L 150.771407 184.260414 
L 151.660872 184.260414 
L 152.105604 173.137655 
L 152.550336 170.356966 
L 153.439801 170.356966 
L 154.329265 175.918345 
L 154.773998 181.479724 
L 155.21873 175.918345 
L 155.663462 175.918345 
L 156.108194 167.576276 
L 156.552927 164.795586 
L 156.997659 150.892138 
L 157.442391 148.111448 
L 157.887123 148.111448 
L 158.331856 145.330759 
L 158.776588 145.330759 
L 159.22132 150.892138 
L 160.555517 150.892138 
L 161.000249 153.672828 
L 161.444981 142.550069 
L 161.889714 142.550069 
L 162.334446 153.672828 
L 162.779178 156.453517 
L 164.113375 156.453517 
L 165.002839 150.892138 
L 165.447572 150.892138 
L 165.892304 156.453517 
L 166.337036 150.892138 
L 166.781768 150.892138 
L 167.226501 159.234207 
L 167.671233 148.111448 
L 168.115965 148.111448 
L 168.560697 153.672828 
L 169.00543 142.550069 
L 169.450162 142.550069 
L 170.339626 153.672828 
L 170.784359 156.453517 
L 171.229091 153.672828 
L 171.673823 136.98869 
L 172.563288 136.98869 
L 173.00802 145.330759 
L 173.897484 145.330759 
L 174.342217 150.892138 
L 174.786949 153.672828 
L 175.231681 139.769379 
L 175.676413 139.769379 
L 176.121146 136.98869 
L 176.565878 131.42731 
L 177.01061 131.42731 
L 177.455342 136.98869 
L 177.900075 114.743172 
L 178.344807 123.085241 
L 178.789539 125.865931 
L 179.234271 136.98869 
L 179.679004 131.42731 
L 180.568468 136.98869 
L 181.0132 136.98869 
L 181.457933 128.646621 
L 181.902665 117.523862 
L 182.79213 117.523862 
L 183.236862 120.304552 
L 183.681594 120.304552 
L 184.126326 117.523862 
L 184.571059 103.620414 
L 185.460523 103.620414 
L 186.349988 98.059034 
L 186.79472 100.839724 
L 187.239452 109.181793 
L 187.684184 109.181793 
L 188.128917 100.839724 
L 188.573649 106.401103 
L 189.463113 106.401103 
L 189.907846 120.304552 
L 190.352578 120.304552 
L 190.79731 117.523862 
L 191.242042 123.085241 
L 191.686775 123.085241 
L 192.131507 117.523862 
L 193.465704 125.865931 
L 193.910436 134.208 
L 194.355168 131.42731 
L 194.7999 131.42731 
L 195.244633 128.646621 
L 195.689365 128.646621 
L 196.134097 123.085241 
L 196.578829 128.646621 
L 197.023562 123.085241 
L 197.468294 136.98869 
L 197.913026 128.646621 
L 198.357758 131.42731 
L 198.802491 136.98869 
L 199.247223 134.208 
L 199.691955 134.208 
L 200.136687 156.453517 
L 200.58142 156.453517 
L 201.026152 153.672828 
L 201.470884 156.453517 
L 201.915616 164.795586 
L 202.360349 148.111448 
L 203.249813 148.111448 
L 203.694545 153.672828 
L 204.139278 164.795586 
L 205.473474 164.795586 
L 205.918207 173.137655 
L 206.362939 175.918345 
L 206.807671 184.260414 
L 207.697136 184.260414 
L 208.141868 187.041103 
L 208.5866 173.137655 
L 209.031333 170.356966 
L 209.476065 164.795586 
L 209.920797 164.795586 
L 210.365529 167.576276 
L 210.810262 164.795586 
L 212.144458 164.795586 
L 212.589191 170.356966 
L 213.033923 170.356966 
L 213.478655 175.918345 
L 213.923387 175.918345 
L 214.36812 181.479724 
L 215.702316 181.479724 
L 216.147049 189.821793 
L 216.591781 195.383172 
L 217.036513 195.383172 
L 217.481245 200.944552 
L 217.925978 200.944552 
L 218.37071 206.505931 
L 219.260174 206.505931 
L 219.704907 200.944552 
L 220.149639 209.286621 
L 220.594371 203.725241 
L 222.818032 203.725241 
L 223.262765 206.505931 
L 223.707497 203.725241 
L 224.152229 203.725241 
L 224.596961 214.848 
L 225.041694 212.06731 
L 225.486426 212.06731 
L 225.931158 209.286621 
L 226.37589 209.286621 
L 226.820623 195.383172 
L 227.710087 184.260414 
L 228.599552 184.260414 
L 229.044284 189.821793 
L 229.489016 187.041103 
L 229.933748 187.041103 
L 230.378481 184.260414 
L 230.823213 200.944552 
L 231.267945 203.725241 
L 231.712677 209.286621 
L 232.15741 209.286621 
L 232.602142 214.848 
L 233.046874 212.06731 
L 234.381071 212.06731 
L 234.825803 209.286621 
L 235.270535 212.06731 
L 236.16 206.505931 
L 236.604732 206.505931 
L 237.049465 209.286621 
L 237.494197 206.505931 
L 238.383661 206.505931 
L 238.828394 203.725241 
L 239.273126 203.725241 
L 240.16259 198.163862 
L 240.607323 192.602483 
L 241.052055 192.602483 
L 241.941519 203.725241 
L 242.386252 203.725241 
L 242.830984 209.286621 
L 243.275716 209.286621 
L 243.720448 212.06731 
L 244.165181 209.286621 
L 244.609913 209.286621 
L 245.054645 206.505931 
L 245.499377 209.286621 
L 245.94411 203.725241 
L 246.388842 203.725241 
L 246.833574 209.286621 
L 247.278306 212.06731 
L 247.723039 212.06731 
L 248.167771 217.62869 
L 248.612503 217.62869 
L 249.057235 231.532138 
L 249.501968 237.093517 
L 249.9467 239.874207 
L 251.280897 239.874207 
L 251.725629 242.654897 
L 252.170361 237.093517 
L 252.615093 239.874207 
L 253.059826 239.874207 
L 253.504558 237.093517 
L 254.838755 237.093517 
L 255.283487 242.654897 
L 255.728219 239.874207 
L 256.617684 228.751448 
L 257.062416 231.532138 
L 257.507148 231.532138 
L 258.396613 237.093517 
L 259.286077 237.093517 
L 259.730809 239.874207 
L 260.620274 239.874207 
L 261.065006 242.654897 
L 261.509738 242.654897 
L 262.399203 248.216276 
L 262.843935 245.435586 
L 264.178132 245.435586 
L 264.622864 242.654897 
L 265.067597 242.654897 
L 265.512329 237.093517 
L 265.957061 237.093517 
L 266.401793 234.312828 
L 266.846526 228.751448 
L 267.291258 228.751448 
L 267.73599 225.970759 
L 268.180722 234.312828 
L 271.73858 234.312828 
L 272.628045 239.874207 
L 273.072777 239.874207 
L 273.517509 237.093517 
L 273.962242 237.093517 
L 274.406974 242.654897 
L 277.5201 242.654897 
L 277.964832 245.435586 
L 278.854296 256.558345 
L 279.299029 248.216276 
L 279.743761 245.435586 
L 281.077958 245.435586 
L 281.52269 239.874207 
L 281.967422 237.093517 
L 284.635816 237.093517 
L 285.080548 245.435586 
L 285.970012 245.435586 
L 286.414745 239.874207 
L 286.859477 242.654897 
L 287.304209 239.874207 
L 287.748941 245.435586 
L 288.193674 245.435586 
L 289.083138 256.558345 
L 289.52787 256.558345 
L 289.972603 259.339034 
L 295.30939 259.339034 
L 295.754122 262.119724 
L 297.533051 262.119724 
L 297.977783 264.900414 
L 298.422516 262.119724 
L 301.090909 262.119724 
L 301.535641 270.461793 
L 303.31457 270.461793 
L 303.759303 276.023172 
L 304.204035 278.803862 
L 308.206625 278.803862 
L 308.651357 284.365241 
L 309.09609 284.365241 
L 309.540822 287.145931 
L 311.319751 287.145931 
L 311.764483 289.926621 
L 320.214396 289.926621 
L 320.659128 292.70731 
L 322.438057 292.70731 
L 322.88279 289.926621 
L 323.772254 289.926621 
L 324.216986 292.70731 
L 327.330112 292.70731 
L 327.774844 289.926621 
L 328.664309 289.926621 
L 329.109041 284.365241 
L 329.998506 284.365241 
L 330.443238 281.584552 
L 335.335293 281.584552 
L 335.780025 278.803862 
L 344.67467 278.803862 
L 345.119402 281.584552 
L 346.008867 281.584552 
L 346.453599 278.803862 
L 346.898331 278.803862 
L 347.787796 273.242483 
L 349.566725 273.242483 
L 350.011457 276.023172 
L 350.456189 273.242483 
L 350.900922 273.242483 
L 351.345654 278.803862 
L 352.235118 278.803862 
L 352.679851 281.584552 
L 353.569315 281.584552 
L 354.014047 278.803862 
L 357.571905 278.803862 
L 358.016638 281.584552 
L 368.245479 281.584552 
L 368.690212 284.365241 
L 369.134944 284.365241 
L 370.024408 289.926621 
L 372.24807 289.926621 
L 372.692802 292.70731 
L 375.805928 292.70731 
L 376.25066 295.488 
L 398.487273 295.488 
L 398.487273 295.488 
" clip-path="url(#p6593c408dd)" style="fill: none; stroke-dasharray: 1.85,0.8; stroke-dashoffset: 0; stroke: #2adddd; stroke-width: 0.5"/>
   </g>
   <g id="line2d_19">
    <path d="M 73.832727 295.488 
L 122.753275 295.488 
L 123.198007 292.70731 
L 124.532204 292.70731 
L 125.421669 287.145931 
L 126.311133 287.145931 
L 126.755866 284.365241 
L 135.650511 284.365241 
L 136.095243 281.584552 
L 137.874172 281.584552 
L 138.318904 276.023172 
L 140.542565 276.023172 
L 140.987298 264.900414 
L 142.321494 264.900414 
L 143.210959 253.777655 
L 144.100423 253.777655 
L 144.545156 248.216276 
L 144.989888 245.435586 
L 145.43462 248.216276 
L 146.324085 248.216276 
L 146.768817 245.435586 
L 147.213549 248.216276 
L 147.658281 245.435586 
L 148.547746 245.435586 
L 148.992478 248.216276 
L 149.43721 245.435586 
L 149.881943 245.435586 
L 150.326675 237.093517 
L 150.771407 237.093517 
L 151.216139 234.312828 
L 151.660872 234.312828 
L 152.105604 231.532138 
L 152.995068 231.532138 
L 153.439801 228.751448 
L 154.329265 228.751448 
L 154.773998 225.970759 
L 155.21873 225.970759 
L 155.663462 217.62869 
L 156.108194 217.62869 
L 156.552927 206.505931 
L 156.997659 203.725241 
L 157.887123 203.725241 
L 158.331856 206.505931 
L 159.666052 198.163862 
L 160.110785 198.163862 
L 160.555517 203.725241 
L 161.000249 203.725241 
L 161.444981 192.602483 
L 161.889714 189.821793 
L 162.334446 189.821793 
L 162.779178 184.260414 
L 163.22391 195.383172 
L 163.668643 189.821793 
L 164.558107 189.821793 
L 165.002839 195.383172 
L 165.447572 198.163862 
L 165.892304 195.383172 
L 166.337036 195.383172 
L 166.781768 200.944552 
L 167.226501 200.944552 
L 167.671233 195.383172 
L 168.115965 187.041103 
L 169.450162 187.041103 
L 169.894894 192.602483 
L 170.784359 192.602483 
L 171.229091 187.041103 
L 171.673823 189.821793 
L 172.118555 181.479724 
L 172.563288 184.260414 
L 173.00802 184.260414 
L 173.452752 187.041103 
L 174.342217 187.041103 
L 174.786949 181.479724 
L 175.231681 181.479724 
L 175.676413 184.260414 
L 176.565878 184.260414 
L 177.01061 187.041103 
L 177.455342 184.260414 
L 177.900075 187.041103 
L 178.344807 187.041103 
L 178.789539 198.163862 
L 179.234271 200.944552 
L 179.679004 198.163862 
L 180.568468 187.041103 
L 181.0132 189.821793 
L 181.457933 181.479724 
L 181.902665 184.260414 
L 182.79213 178.699034 
L 183.236862 178.699034 
L 183.681594 184.260414 
L 184.126326 181.479724 
L 184.571059 181.479724 
L 185.015791 187.041103 
L 185.460523 187.041103 
L 185.905255 181.479724 
L 186.349988 164.795586 
L 186.79472 153.672828 
L 187.239452 153.672828 
L 187.684184 148.111448 
L 188.128917 148.111448 
L 189.018381 142.550069 
L 189.463113 145.330759 
L 189.907846 150.892138 
L 191.686775 150.892138 
L 192.131507 145.330759 
L 192.576239 142.550069 
L 193.465704 142.550069 
L 193.910436 134.208 
L 194.355168 142.550069 
L 194.7999 148.111448 
L 195.244633 145.330759 
L 196.134097 145.330759 
L 197.023562 150.892138 
L 197.468294 150.892138 
L 197.913026 134.208 
L 198.357758 134.208 
L 198.802491 128.646621 
L 199.247223 128.646621 
L 199.691955 125.865931 
L 200.136687 131.42731 
L 200.58142 131.42731 
L 201.026152 128.646621 
L 201.470884 128.646621 
L 201.915616 131.42731 
L 202.360349 125.865931 
L 203.249813 120.304552 
L 203.694545 131.42731 
L 204.139278 131.42731 
L 205.028742 136.98869 
L 205.473474 136.98869 
L 206.362939 148.111448 
L 207.252403 148.111448 
L 208.141868 131.42731 
L 208.5866 148.111448 
L 209.031333 153.672828 
L 209.476065 150.892138 
L 209.920797 156.453517 
L 210.365529 153.672828 
L 210.810262 156.453517 
L 211.254994 142.550069 
L 212.144458 142.550069 
L 212.589191 136.98869 
L 213.033923 136.98869 
L 213.478655 139.769379 
L 213.923387 139.769379 
L 214.812852 134.208 
L 215.257584 134.208 
L 216.147049 145.330759 
L 216.591781 145.330759 
L 217.036513 139.769379 
L 217.481245 142.550069 
L 218.37071 142.550069 
L 218.815442 139.769379 
L 219.260174 131.42731 
L 219.704907 131.42731 
L 220.149639 145.330759 
L 220.594371 142.550069 
L 221.039103 148.111448 
L 221.483836 148.111448 
L 221.928568 153.672828 
L 222.3733 148.111448 
L 223.262765 148.111448 
L 223.707497 139.769379 
L 224.152229 139.769379 
L 225.041694 159.234207 
L 225.486426 162.014897 
L 225.931158 156.453517 
L 226.37589 153.672828 
L 226.820623 145.330759 
L 227.265355 142.550069 
L 227.710087 142.550069 
L 228.154819 136.98869 
L 228.599552 128.646621 
L 229.489016 128.646621 
L 229.933748 136.98869 
L 230.378481 153.672828 
L 230.823213 150.892138 
L 231.267945 156.453517 
L 232.15741 162.014897 
L 232.602142 167.576276 
L 233.046874 167.576276 
L 233.491606 184.260414 
L 233.936339 175.918345 
L 234.381071 175.918345 
L 234.825803 189.821793 
L 236.604732 189.821793 
L 237.049465 181.479724 
L 237.494197 181.479724 
L 237.938929 178.699034 
L 238.383661 181.479724 
L 238.828394 181.479724 
L 239.273126 187.041103 
L 240.607323 187.041103 
L 241.052055 181.479724 
L 241.941519 175.918345 
L 242.830984 181.479724 
L 244.165181 181.479724 
L 244.609913 187.041103 
L 245.054645 187.041103 
L 245.499377 184.260414 
L 245.94411 192.602483 
L 247.278306 192.602483 
L 247.723039 187.041103 
L 248.167771 187.041103 
L 248.612503 189.821793 
L 249.057235 198.163862 
L 249.501968 200.944552 
L 249.9467 200.944552 
L 250.391432 206.505931 
L 250.836164 214.848 
L 252.170361 214.848 
L 253.059826 220.409379 
L 254.394022 220.409379 
L 254.838755 214.848 
L 255.728219 214.848 
L 256.172951 223.190069 
L 257.062416 223.190069 
L 257.507148 217.62869 
L 258.396613 217.62869 
L 258.841345 225.970759 
L 259.286077 239.874207 
L 259.730809 239.874207 
L 260.175542 242.654897 
L 261.509738 242.654897 
L 261.954471 237.093517 
L 262.399203 237.093517 
L 262.843935 234.312828 
L 263.288667 242.654897 
L 263.7334 253.777655 
L 264.178132 256.558345 
L 264.622864 256.558345 
L 265.067597 248.216276 
L 265.512329 231.532138 
L 267.291258 231.532138 
L 267.73599 237.093517 
L 268.625455 237.093517 
L 269.070187 225.970759 
L 269.959651 225.970759 
L 270.404384 231.532138 
L 273.517509 231.532138 
L 273.962242 228.751448 
L 276.185903 228.751448 
L 276.630635 225.970759 
L 277.075367 231.532138 
L 279.299029 231.532138 
L 279.743761 237.093517 
L 280.188493 234.312828 
L 281.077958 234.312828 
L 281.967422 228.751448 
L 283.746351 228.751448 
L 284.191083 234.312828 
L 284.635816 234.312828 
L 285.080548 237.093517 
L 285.52528 237.093517 
L 285.970012 228.751448 
L 286.859477 228.751448 
L 287.304209 237.093517 
L 287.748941 253.777655 
L 289.52787 253.777655 
L 289.972603 248.216276 
L 290.862067 248.216276 
L 291.3068 259.339034 
L 292.196264 259.339034 
L 292.640996 256.558345 
L 295.754122 256.558345 
L 296.198854 259.339034 
L 296.643587 256.558345 
L 299.31198 256.558345 
L 299.756712 253.777655 
L 300.646177 253.777655 
L 301.090909 250.996966 
L 301.980374 250.996966 
L 302.425106 253.777655 
L 303.31457 253.777655 
L 304.204035 259.339034 
L 307.761893 259.339034 
L 308.206625 270.461793 
L 310.430286 270.461793 
L 310.875019 267.681103 
L 311.319751 267.681103 
L 311.764483 262.119724 
L 312.209215 267.681103 
L 313.543412 267.681103 
L 313.988144 264.900414 
L 314.432877 270.461793 
L 318.435467 270.461793 
L 318.880199 273.242483 
L 319.324932 273.242483 
L 319.769664 267.681103 
L 320.659128 267.681103 
L 321.103861 270.461793 
L 321.548593 270.461793 
L 321.993325 273.242483 
L 322.88279 273.242483 
L 323.327522 276.023172 
L 323.772254 276.023172 
L 324.216986 273.242483 
L 326.440648 273.242483 
L 326.88538 270.461793 
L 332.666899 270.461793 
L 333.111631 273.242483 
L 333.556364 273.242483 
L 334.001096 278.803862 
L 335.780025 278.803862 
L 336.224757 281.584552 
L 336.669489 281.584552 
L 337.114222 284.365241 
L 341.561544 284.365241 
L 342.006276 289.926621 
L 342.451009 289.926621 
L 342.895741 287.145931 
L 346.008867 287.145931 
L 346.453599 289.926621 
L 348.67726 289.926621 
L 349.121993 292.70731 
L 349.566725 287.145931 
L 350.900922 287.145931 
L 351.345654 284.365241 
L 354.014047 284.365241 
L 354.45878 281.584552 
L 358.46137 281.584552 
L 358.906102 278.803862 
L 361.574496 278.803862 
L 362.019228 276.023172 
L 364.242889 276.023172 
L 364.687621 267.681103 
L 365.132354 270.461793 
L 371.358605 270.461793 
L 371.803337 273.242483 
L 373.137534 273.242483 
L 373.582267 276.023172 
L 375.805928 276.023172 
L 376.25066 273.242483 
L 376.695392 276.023172 
L 380.697983 276.023172 
L 381.142715 278.803862 
L 381.587447 278.803862 
L 382.032179 276.023172 
L 386.479502 276.023172 
L 386.924234 284.365241 
L 393.595218 284.365241 
L 394.03995 287.145931 
L 398.04254 287.145931 
L 398.487273 289.926621 
L 398.487273 289.926621 
" clip-path="url(#p6593c408dd)" style="fill: none; stroke-dasharray: 1.85,0.8; stroke-dashoffset: 0; stroke: #d4dd80; stroke-width: 0.5"/>
   </g>
   <g id="line2d_20">
    <path d="M 73.832727 295.488 
L 129.424259 295.488 
L 129.868991 292.70731 
L 131.203188 292.70731 
L 131.64792 287.145931 
L 133.426849 287.145931 
L 134.316314 281.584552 
L 134.761046 276.023172 
L 135.205778 276.023172 
L 135.650511 270.461793 
L 137.874172 270.461793 
L 138.318904 267.681103 
L 139.208369 267.681103 
L 139.653101 264.900414 
L 140.542565 264.900414 
L 140.987298 256.558345 
L 142.321494 256.558345 
L 142.766227 253.777655 
L 143.210959 248.216276 
L 144.989888 248.216276 
L 145.43462 239.874207 
L 147.213549 239.874207 
L 147.658281 234.312828 
L 148.547746 234.312828 
L 148.992478 231.532138 
L 149.43721 225.970759 
L 150.771407 225.970759 
L 151.216139 223.190069 
L 151.660872 223.190069 
L 152.105604 225.970759 
L 152.550336 225.970759 
L 153.439801 220.409379 
L 153.884533 225.970759 
L 155.663462 225.970759 
L 156.108194 223.190069 
L 156.552927 225.970759 
L 156.997659 231.532138 
L 157.442391 231.532138 
L 157.887123 234.312828 
L 158.331856 234.312828 
L 158.776588 231.532138 
L 159.22132 225.970759 
L 160.110785 225.970759 
L 160.555517 228.751448 
L 161.000249 225.970759 
L 161.444981 217.62869 
L 161.889714 220.409379 
L 162.779178 220.409379 
L 163.668643 200.944552 
L 164.113375 200.944552 
L 164.558107 198.163862 
L 165.002839 200.944552 
L 165.447572 206.505931 
L 167.226501 206.505931 
L 167.671233 214.848 
L 168.115965 212.06731 
L 168.560697 189.821793 
L 169.00543 181.479724 
L 169.450162 181.479724 
L 169.894894 187.041103 
L 170.339626 175.918345 
L 170.784359 175.918345 
L 171.229091 178.699034 
L 171.673823 184.260414 
L 172.118555 184.260414 
L 172.563288 173.137655 
L 173.00802 173.137655 
L 173.452752 175.918345 
L 173.897484 173.137655 
L 175.231681 173.137655 
L 175.676413 175.918345 
L 177.01061 175.918345 
L 177.455342 170.356966 
L 178.344807 170.356966 
L 179.679004 162.014897 
L 180.123736 164.795586 
L 181.0132 164.795586 
L 181.457933 167.576276 
L 183.236862 167.576276 
L 183.681594 175.918345 
L 184.126326 170.356966 
L 184.571059 162.014897 
L 185.015791 159.234207 
L 185.460523 175.918345 
L 185.905255 184.260414 
L 186.349988 184.260414 
L 186.79472 187.041103 
L 187.239452 178.699034 
L 187.684184 175.918345 
L 188.128917 175.918345 
L 188.573649 173.137655 
L 189.018381 156.453517 
L 189.463113 156.453517 
L 189.907846 148.111448 
L 190.352578 150.892138 
L 190.79731 167.576276 
L 191.242042 170.356966 
L 191.686775 170.356966 
L 192.131507 164.795586 
L 192.576239 175.918345 
L 193.020971 173.137655 
L 194.355168 173.137655 
L 194.7999 184.260414 
L 195.244633 178.699034 
L 195.689365 178.699034 
L 196.134097 167.576276 
L 197.023562 167.576276 
L 197.468294 170.356966 
L 198.357758 170.356966 
L 198.802491 167.576276 
L 199.247223 156.453517 
L 199.691955 162.014897 
L 200.136687 145.330759 
L 200.58142 136.98869 
L 201.026152 131.42731 
L 201.915616 136.98869 
L 202.805081 136.98869 
L 203.249813 134.208 
L 203.694545 136.98869 
L 204.139278 134.208 
L 204.58401 134.208 
L 205.028742 131.42731 
L 205.473474 134.208 
L 205.918207 134.208 
L 206.362939 136.98869 
L 206.807671 145.330759 
L 207.252403 145.330759 
L 207.697136 148.111448 
L 208.141868 139.769379 
L 209.031333 139.769379 
L 209.476065 148.111448 
L 209.920797 150.892138 
L 210.365529 150.892138 
L 210.810262 153.672828 
L 211.254994 164.795586 
L 211.699726 164.795586 
L 212.144458 167.576276 
L 213.033923 167.576276 
L 213.478655 170.356966 
L 213.923387 170.356966 
L 214.36812 175.918345 
L 214.812852 175.918345 
L 215.257584 156.453517 
L 215.702316 153.672828 
L 216.147049 153.672828 
L 216.591781 150.892138 
L 217.036513 150.892138 
L 217.481245 153.672828 
L 217.925978 153.672828 
L 218.37071 167.576276 
L 219.704907 167.576276 
L 220.594371 156.453517 
L 221.039103 159.234207 
L 221.483836 167.576276 
L 221.928568 162.014897 
L 222.3733 178.699034 
L 222.818032 187.041103 
L 223.262765 184.260414 
L 224.152229 184.260414 
L 224.596961 181.479724 
L 225.041694 181.479724 
L 225.486426 187.041103 
L 225.931158 187.041103 
L 226.37589 189.821793 
L 226.820623 187.041103 
L 227.265355 178.699034 
L 228.154819 178.699034 
L 228.599552 181.479724 
L 229.933748 181.479724 
L 230.378481 189.821793 
L 230.823213 187.041103 
L 231.267945 187.041103 
L 231.712677 175.918345 
L 232.15741 175.918345 
L 232.602142 173.137655 
L 233.046874 173.137655 
L 233.491606 178.699034 
L 233.936339 175.918345 
L 234.381071 181.479724 
L 234.825803 181.479724 
L 235.270535 187.041103 
L 235.715268 189.821793 
L 236.16 184.260414 
L 237.049465 184.260414 
L 237.494197 203.725241 
L 238.383661 203.725241 
L 238.828394 206.505931 
L 239.273126 206.505931 
L 239.717858 200.944552 
L 240.607323 200.944552 
L 241.052055 198.163862 
L 241.941519 198.163862 
L 242.830984 209.286621 
L 243.275716 203.725241 
L 243.720448 200.944552 
L 244.165181 206.505931 
L 244.609913 206.505931 
L 245.054645 209.286621 
L 245.499377 217.62869 
L 246.388842 217.62869 
L 247.278306 212.06731 
L 247.723039 212.06731 
L 248.167771 206.505931 
L 248.612503 206.505931 
L 249.057235 209.286621 
L 249.501968 217.62869 
L 251.280897 217.62869 
L 251.725629 212.06731 
L 252.170361 212.06731 
L 252.615093 203.725241 
L 253.059826 206.505931 
L 253.504558 206.505931 
L 253.94929 217.62869 
L 254.394022 217.62869 
L 254.838755 220.409379 
L 255.728219 220.409379 
L 256.172951 223.190069 
L 257.062416 223.190069 
L 257.507148 220.409379 
L 257.95188 220.409379 
L 258.396613 223.190069 
L 258.841345 220.409379 
L 259.286077 220.409379 
L 259.730809 223.190069 
L 260.175542 223.190069 
L 260.620274 220.409379 
L 261.065006 220.409379 
L 261.509738 217.62869 
L 261.954471 220.409379 
L 262.399203 220.409379 
L 262.843935 217.62869 
L 263.288667 220.409379 
L 264.178132 220.409379 
L 264.622864 214.848 
L 265.067597 214.848 
L 265.512329 220.409379 
L 265.957061 217.62869 
L 267.291258 217.62869 
L 267.73599 220.409379 
L 268.180722 217.62869 
L 268.625455 217.62869 
L 269.070187 223.190069 
L 269.514919 225.970759 
L 269.959651 223.190069 
L 270.404384 225.970759 
L 271.293848 225.970759 
L 271.73858 228.751448 
L 272.183313 223.190069 
L 273.517509 223.190069 
L 273.962242 225.970759 
L 274.406974 223.190069 
L 274.851706 231.532138 
L 275.296438 228.751448 
L 276.185903 228.751448 
L 276.630635 225.970759 
L 277.5201 225.970759 
L 278.854296 217.62869 
L 279.299029 217.62869 
L 279.743761 220.409379 
L 280.188493 220.409379 
L 281.077958 225.970759 
L 281.967422 225.970759 
L 282.412154 228.751448 
L 282.856887 225.970759 
L 283.301619 225.970759 
L 283.746351 228.751448 
L 284.191083 234.312828 
L 285.080548 234.312828 
L 285.52528 231.532138 
L 286.414745 231.532138 
L 286.859477 237.093517 
L 287.304209 234.312828 
L 287.748941 234.312828 
L 288.193674 239.874207 
L 289.52787 239.874207 
L 289.972603 237.093517 
L 291.3068 237.093517 
L 291.751532 231.532138 
L 292.640996 237.093517 
L 293.530461 237.093517 
L 293.975193 234.312828 
L 294.419925 239.874207 
L 295.754122 239.874207 
L 296.198854 242.654897 
L 297.088319 242.654897 
L 297.533051 245.435586 
L 298.422516 245.435586 
L 298.867248 248.216276 
L 299.756712 248.216276 
L 301.090909 256.558345 
L 301.535641 253.777655 
L 301.980374 253.777655 
L 302.425106 250.996966 
L 304.204035 250.996966 
L 304.648767 248.216276 
L 305.093499 253.777655 
L 305.538232 253.777655 
L 306.427696 248.216276 
L 306.872428 248.216276 
L 307.317161 250.996966 
L 308.206625 245.435586 
L 309.09609 245.435586 
L 309.540822 248.216276 
L 309.985554 248.216276 
L 310.430286 250.996966 
L 310.875019 248.216276 
L 311.319751 248.216276 
L 311.764483 250.996966 
L 312.653948 245.435586 
L 313.543412 245.435586 
L 313.988144 250.996966 
L 315.767073 250.996966 
L 316.211806 253.777655 
L 317.990735 253.777655 
L 318.880199 259.339034 
L 319.324932 250.996966 
L 319.769664 250.996966 
L 320.214396 248.216276 
L 320.659128 248.216276 
L 321.103861 242.654897 
L 321.548593 242.654897 
L 321.993325 239.874207 
L 322.438057 239.874207 
L 322.88279 237.093517 
L 323.327522 237.093517 
L 323.772254 239.874207 
L 325.995915 239.874207 
L 326.440648 234.312828 
L 326.88538 237.093517 
L 327.774844 237.093517 
L 328.664309 242.654897 
L 329.553773 242.654897 
L 329.998506 248.216276 
L 330.443238 250.996966 
L 332.666899 250.996966 
L 333.111631 253.777655 
L 334.001096 253.777655 
L 334.89056 264.900414 
L 341.116812 264.900414 
L 341.561544 273.242483 
L 342.006276 270.461793 
L 342.451009 273.242483 
L 342.895741 273.242483 
L 343.340473 278.803862 
L 343.785205 278.803862 
L 344.229938 281.584552 
L 344.67467 281.584552 
L 345.119402 284.365241 
L 346.453599 284.365241 
L 346.898331 287.145931 
L 348.232528 287.145931 
L 348.67726 292.70731 
L 350.456189 292.70731 
L 351.790386 284.365241 
L 352.235118 284.365241 
L 352.679851 281.584552 
L 353.124583 281.584552 
L 353.569315 276.023172 
L 362.908692 276.023172 
L 363.353425 273.242483 
L 363.798157 273.242483 
L 364.242889 276.023172 
L 366.46655 276.023172 
L 366.911283 273.242483 
L 372.692802 273.242483 
L 374.026999 281.584552 
L 375.361196 281.584552 
L 375.805928 287.145931 
L 378.029589 287.145931 
L 378.474321 284.365241 
L 383.811108 284.365241 
L 384.255841 281.584552 
L 385.145305 281.584552 
L 385.590037 284.365241 
L 388.703163 284.365241 
L 389.147895 287.145931 
L 396.708344 287.145931 
L 397.153076 289.926621 
L 398.487273 289.926621 
L 398.487273 289.926621 
" clip-path="url(#p6593c408dd)" style="fill: none; stroke-dasharray: 1.85,0.8; stroke-dashoffset: 0; stroke: #ff0000; stroke-width: 0.5"/>
   </g>
   <g id="patch_3">
    <path d="M 57.6 307.584 
L 57.6 41.472 
" style="fill: none; stroke: #000000; stroke-width: 0.8; stroke-linejoin: miter; stroke-linecap: square"/>
   </g>
   <g id="patch_4">
    <path d="M 414.72 307.584 
L 414.72 41.472 
" style="fill: none; stroke: #000000; stroke-width: 0.8; stroke-linejoin: miter; stroke-linecap: square"/>
   </g>
   <g id="patch_5">
    <path d="M 57.6 307.584 
L 414.72 307.584 
" style="fill: none; stroke: #000000; stroke-width: 0.8; stroke-linejoin: miter; stroke-linecap: square"/>
   </g>
   <g id="patch_6">
    <path d="M 57.6 41.472 
L 414.72 41.472 
" style="fill: none; stroke: #000000; stroke-width: 0.8; stroke-linejoin: miter; stroke-linecap: square"/>
   </g>
   <g id="text_19">
    <!-- Heating Rate ($^{\circ}C.s^{-1}$) -->
    <g transform="translate(271.872 68.0832) scale(0.12 -0.12)">
     <defs>
      <path id="DejaVuSans-48" d="M 628 4666 
L 1259 4666 
L 1259 2753 
L 3553 2753 
L 3553 4666 
L 4184 4666 
L 4184 0 
L 3553 0 
L 3553 2222 
L 1259 2222 
L 1259 0 
L 628 0 
L 628 4666 
z
" transform="scale(0.015625)"/>
      <path id="DejaVuSans-67" d="M 2906 1791 
Q 2906 2416 2648 2759 
Q 2391 3103 1925 3103 
Q 1463 3103 1205 2759 
Q 947 2416 947 1791 
Q 947 1169 1205 825 
Q 1463 481 1925 481 
Q 2391 481 2648 825 
Q 2906 1169 2906 1791 
z
M 3481 434 
Q 3481 -459 3084 -895 
Q 2688 -1331 1869 -1331 
Q 1566 -1331 1297 -1286 
Q 1028 -1241 775 -1147 
L 775 -588 
Q 1028 -725 1275 -790 
Q 1522 -856 1778 -856 
Q 2344 -856 2625 -561 
Q 2906 -266 2906 331 
L 2906 616 
Q 2728 306 2450 153 
Q 2172 0 1784 0 
Q 1141 0 747 490 
Q 353 981 353 1791 
Q 353 2603 747 3093 
Q 1141 3584 1784 3584 
Q 2172 3584 2450 3431 
Q 2728 3278 2906 2969 
L 2906 3500 
L 3481 3500 
L 3481 434 
z
" transform="scale(0.015625)"/>
      <path id="DejaVuSans-52" d="M 2841 2188 
Q 3044 2119 3236 1894 
Q 3428 1669 3622 1275 
L 4263 0 
L 3584 0 
L 2988 1197 
Q 2756 1666 2539 1819 
Q 2322 1972 1947 1972 
L 1259 1972 
L 1259 0 
L 628 0 
L 628 4666 
L 2053 4666 
Q 2853 4666 3247 4331 
Q 3641 3997 3641 3322 
Q 3641 2881 3436 2590 
Q 3231 2300 2841 2188 
z
M 1259 4147 
L 1259 2491 
L 2053 2491 
Q 2509 2491 2742 2702 
Q 2975 2913 2975 3322 
Q 2975 3731 2742 3939 
Q 2509 4147 2053 4147 
L 1259 4147 
z
" transform="scale(0.015625)"/>
      <path id="DejaVuSans-Oblique-73" d="M 3200 3397 
L 3091 2853 
Q 2863 2978 2609 3040 
Q 2356 3103 2088 3103 
Q 1634 3103 1373 2948 
Q 1113 2794 1113 2528 
Q 1113 2219 1719 2053 
Q 1766 2041 1788 2034 
L 1972 1978 
Q 2547 1819 2739 1644 
Q 2931 1469 2931 1166 
Q 2931 609 2489 259 
Q 2047 -91 1331 -91 
Q 1053 -91 747 -37 
Q 441 16 72 128 
L 184 722 
Q 500 559 806 475 
Q 1113 391 1394 391 
Q 1816 391 2080 572 
Q 2344 753 2344 1031 
Q 2344 1331 1650 1516 
L 1591 1531 
L 1394 1581 
Q 956 1697 753 1886 
Q 550 2075 550 2369 
Q 550 2928 970 3256 
Q 1391 3584 2113 3584 
Q 2397 3584 2667 3537 
Q 2938 3491 3200 3397 
z
" transform="scale(0.015625)"/>
     </defs>
     <use xlink:href="#DejaVuSans-48" transform="translate(0 0.684375)"/>
     <use xlink:href="#DejaVuSans-65" transform="translate(75.195312 0.684375)"/>
     <use xlink:href="#DejaVuSans-61" transform="translate(136.71875 0.684375)"/>
     <use xlink:href="#DejaVuSans-74" transform="translate(197.998047 0.684375)"/>
     <use xlink:href="#DejaVuSans-69" transform="translate(237.207031 0.684375)"/>
     <use xlink:href="#DejaVuSans-6e" transform="translate(264.990234 0.684375)"/>
     <use xlink:href="#DejaVuSans-67" transform="translate(328.369141 0.684375)"/>
     <use xlink:href="#DejaVuSans-20" transform="translate(391.845703 0.684375)"/>
     <use xlink:href="#DejaVuSans-52" transform="translate(423.632812 0.684375)"/>
     <use xlink:href="#DejaVuSans-61" transform="translate(493.115234 0.684375)"/>
     <use xlink:href="#DejaVuSans-74" transform="translate(554.394531 0.684375)"/>
     <use xlink:href="#DejaVuSans-65" transform="translate(593.603516 0.684375)"/>
     <use xlink:href="#DejaVuSans-20" transform="translate(655.126953 0.684375)"/>
     <use xlink:href="#DejaVuSans-28" transform="translate(686.914062 0.684375)"/>
     <use xlink:href="#DejaVuSans-2218" transform="translate(726.884766 38.965625) scale(0.7)"/>
     <use xlink:href="#DejaVuSans-Oblique-43" transform="translate(773.4375 0.684375)"/>
     <use xlink:href="#DejaVuSans-2e" transform="translate(843.261719 0.684375)"/>
     <use xlink:href="#DejaVuSans-Oblique-73" transform="translate(894.53125 0.684375)"/>
     <use xlink:href="#DejaVuSans-2212" transform="translate(951.280755 38.965625) scale(0.7)"/>
     <use xlink:href="#DejaVuSans-31" transform="translate(1009.933099 38.965625) scale(0.7)"/>
     <use xlink:href="#DejaVuSans-29" transform="translate(1057.203607 0.684375)"/>
    </g>
   </g>
   <g id="legend_1">
    <g id="patch_7">
     <path d="M 314.584 134.7957 
L 362.487125 134.7957 
Q 364.487125 134.7957 364.487125 132.7957 
L 364.487125 75.0832 
Q 364.487125 73.0832 362.487125 73.0832 
L 314.584 73.0832 
Q 312.584 73.0832 312.584 75.0832 
L 312.584 132.7957 
Q 312.584 134.7957 314.584 134.7957 
z
" style="fill: #ffffff; opacity: 0.8; stroke: #cccccc; stroke-linejoin: miter"/>
    </g>
    <g id="line2d_21">
     <path d="M 316.584 81.181637 
L 326.584 81.181637 
L 336.584 81.181637 
" style="fill: none; stroke-dasharray: 1.85,0.8; stroke-dashoffset: 0; stroke: #8000ff; stroke-width: 0.5"/>
    </g>
    <g id="text_20">
     <!-- 0.1 -->
     <g transform="translate(344.584 84.681637) scale(0.1 -0.1)">
      <use xlink:href="#DejaVuSans-30"/>
      <use xlink:href="#DejaVuSans-2e" transform="translate(63.623047 0)"/>
      <use xlink:href="#DejaVuSans-31" transform="translate(95.410156 0)"/>
     </g>
    </g>
    <g id="line2d_22">
     <path d="M 316.584 95.859762 
L 326.584 95.859762 
L 336.584 95.859762 
" style="fill: none; stroke-dasharray: 1.85,0.8; stroke-dashoffset: 0; stroke: #2adddd; stroke-width: 0.5"/>
    </g>
    <g id="text_21">
     <!-- 1 -->
     <g transform="translate(344.584 99.359762) scale(0.1 -0.1)">
      <use xlink:href="#DejaVuSans-31"/>
     </g>
    </g>
    <g id="line2d_23">
     <path d="M 316.584 110.537887 
L 326.584 110.537887 
L 336.584 110.537887 
" style="fill: none; stroke-dasharray: 1.85,0.8; stroke-dashoffset: 0; stroke: #d4dd80; stroke-width: 0.5"/>
    </g>
    <g id="text_22">
     <!-- 5 -->
     <g transform="translate(344.584 114.037887) scale(0.1 -0.1)">
      <use xlink:href="#DejaVuSans-35"/>
     </g>
    </g>
    <g id="line2d_24">
     <path d="M 316.584 125.216012 
L 326.584 125.216012 
L 336.584 125.216012 
" style="fill: none; stroke-dasharray: 1.85,0.8; stroke-dashoffset: 0; stroke: #ff0000; stroke-width: 0.5"/>
    </g>
    <g id="text_23">
     <!-- 20 -->
     <g transform="translate(344.584 128.716012) scale(0.1 -0.1)">
      <use xlink:href="#DejaVuSans-32"/>
      <use xlink:href="#DejaVuSans-30" transform="translate(63.623047 0)"/>
     </g>
    </g>
   </g>
  </g>
 </g>
 <defs>
  <clipPath id="p6593c408dd">
   <rect x="57.6" y="41.472" width="357.12" height="266.112"/>
  </clipPath>
 </defs>
</svg>
