<?xml version="1.0" encoding="utf-8" standalone="no"?>
<!DOCTYPE svg PUBLIC "-//W3C//DTD SVG 1.1//EN"
  "http://www.w3.org/Graphics/SVG/1.1/DTD/svg11.dtd">
<svg xmlns:xlink="http://www.w3.org/1999/xlink" width="460.8pt" height="345.6pt" viewBox="0 0 460.8 345.6" xmlns="http://www.w3.org/2000/svg" version="1.1">
 <metadata>
  <rdf:RDF xmlns:dc="http://purl.org/dc/elements/1.1/" xmlns:cc="http://creativecommons.org/ns#" xmlns:rdf="http://www.w3.org/1999/02/22-rdf-syntax-ns#">
   <cc:Work>
    <dc:type rdf:resource="http://purl.org/dc/dcmitype/StillImage"/>
    <dc:date>2025-03-25T10:56:20.407573</dc:date>
    <dc:format>image/svg+xml</dc:format>
    <dc:creator>
     <cc:Agent>
      <dc:title>Matplotlib v3.10.0, https://matplotlib.org/</dc:title>
     </cc:Agent>
    </dc:creator>
   </cc:Work>
  </rdf:RDF>
 </metadata>
 <defs>
  <style type="text/css">*{stroke-linejoin: round; stroke-linecap: butt}</style>
 </defs>
 <g id="figure_1">
  <g id="patch_1">
   <path d="M 0 345.6 
L 460.8 345.6 
L 460.8 0 
L 0 0 
z
" style="fill: #ffffff"/>
  </g>
  <g id="axes_1">
   <g id="patch_2">
    <path d="M 57.6 307.584 
L 414.72 307.584 
L 414.72 41.472 
L 57.6 41.472 
z
" style="fill: #ffffff"/>
   </g>
   <g id="matplotlib.axis_1">
    <g id="xtick_1">
     <g id="line2d_1">
      <defs>
       <path id="m85dc87de06" d="M 0 0 
L 0 3.5 
" style="stroke: #000000; stroke-width: 0.8"/>
      </defs>
      <g>
       <use xlink:href="#m85dc87de06" x="152.870988" y="307.584" style="stroke: #000000; stroke-width: 0.8"/>
      </g>
     </g>
     <g id="text_1">
      <!-- $\mathdefault{10^{12}}$ -->
      <g transform="translate(141.820988 322.182437) scale(0.1 -0.1)">
       <defs>
        <path id="DejaVuSans-31" d="M 794 531 
L 1825 531 
L 1825 4091 
L 703 3866 
L 703 4441 
L 1819 4666 
L 2450 4666 
L 2450 531 
L 3481 531 
L 3481 0 
L 794 0 
L 794 531 
z
" transform="scale(0.015625)"/>
        <path id="DejaVuSans-30" d="M 2034 4250 
Q 1547 4250 1301 3770 
Q 1056 3291 1056 2328 
Q 1056 1369 1301 889 
Q 1547 409 2034 409 
Q 2525 409 2770 889 
Q 3016 1369 3016 2328 
Q 3016 3291 2770 3770 
Q 2525 4250 2034 4250 
z
M 2034 4750 
Q 2819 4750 3233 4129 
Q 3647 3509 3647 2328 
Q 3647 1150 3233 529 
Q 2819 -91 2034 -91 
Q 1250 -91 836 529 
Q 422 1150 422 2328 
Q 422 3509 836 4129 
Q 1250 4750 2034 4750 
z
" transform="scale(0.015625)"/>
        <path id="DejaVuSans-32" d="M 1228 531 
L 3431 531 
L 3431 0 
L 469 0 
L 469 531 
Q 828 903 1448 1529 
Q 2069 2156 2228 2338 
Q 2531 2678 2651 2914 
Q 2772 3150 2772 3378 
Q 2772 3750 2511 3984 
Q 2250 4219 1831 4219 
Q 1534 4219 1204 4116 
Q 875 4013 500 3803 
L 500 4441 
Q 881 4594 1212 4672 
Q 1544 4750 1819 4750 
Q 2544 4750 2975 4387 
Q 3406 4025 3406 3419 
Q 3406 3131 3298 2873 
Q 3191 2616 2906 2266 
Q 2828 2175 2409 1742 
Q 1991 1309 1228 531 
z
" transform="scale(0.015625)"/>
       </defs>
       <use xlink:href="#DejaVuSans-31" transform="translate(0 0.765625)"/>
       <use xlink:href="#DejaVuSans-30" transform="translate(63.623047 0.765625)"/>
       <use xlink:href="#DejaVuSans-31" transform="translate(128.203125 39.046875) scale(0.7)"/>
       <use xlink:href="#DejaVuSans-32" transform="translate(172.739258 39.046875) scale(0.7)"/>
      </g>
     </g>
    </g>
    <g id="xtick_2">
     <g id="line2d_2">
      <g>
       <use xlink:href="#m85dc87de06" x="268.800724" y="307.584" style="stroke: #000000; stroke-width: 0.8"/>
      </g>
     </g>
     <g id="text_2">
      <!-- $\mathdefault{10^{13}}$ -->
      <g transform="translate(257.750724 322.182437) scale(0.1 -0.1)">
       <defs>
        <path id="DejaVuSans-33" d="M 2597 2516 
Q 3050 2419 3304 2112 
Q 3559 1806 3559 1356 
Q 3559 666 3084 287 
Q 2609 -91 1734 -91 
Q 1441 -91 1130 -33 
Q 819 25 488 141 
L 488 750 
Q 750 597 1062 519 
Q 1375 441 1716 441 
Q 2309 441 2620 675 
Q 2931 909 2931 1356 
Q 2931 1769 2642 2001 
Q 2353 2234 1838 2234 
L 1294 2234 
L 1294 2753 
L 1863 2753 
Q 2328 2753 2575 2939 
Q 2822 3125 2822 3475 
Q 2822 3834 2567 4026 
Q 2313 4219 1838 4219 
Q 1578 4219 1281 4162 
Q 984 4106 628 3988 
L 628 4550 
Q 988 4650 1302 4700 
Q 1616 4750 1894 4750 
Q 2613 4750 3031 4423 
Q 3450 4097 3450 3541 
Q 3450 3153 3228 2886 
Q 3006 2619 2597 2516 
z
" transform="scale(0.015625)"/>
       </defs>
       <use xlink:href="#DejaVuSans-31" transform="translate(0 0.765625)"/>
       <use xlink:href="#DejaVuSans-30" transform="translate(63.623047 0.765625)"/>
       <use xlink:href="#DejaVuSans-31" transform="translate(128.203125 39.046875) scale(0.7)"/>
       <use xlink:href="#DejaVuSans-33" transform="translate(172.739258 39.046875) scale(0.7)"/>
      </g>
     </g>
    </g>
    <g id="xtick_3">
     <g id="line2d_3">
      <g>
       <use xlink:href="#m85dc87de06" x="384.730461" y="307.584" style="stroke: #000000; stroke-width: 0.8"/>
      </g>
     </g>
     <g id="text_3">
      <!-- $\mathdefault{10^{14}}$ -->
      <g transform="translate(373.680461 322.182437) scale(0.1 -0.1)">
       <defs>
        <path id="DejaVuSans-34" d="M 2419 4116 
L 825 1625 
L 2419 1625 
L 2419 4116 
z
M 2253 4666 
L 3047 4666 
L 3047 1625 
L 3713 1625 
L 3713 1100 
L 3047 1100 
L 3047 0 
L 2419 0 
L 2419 1100 
L 313 1100 
L 313 1709 
L 2253 4666 
z
" transform="scale(0.015625)"/>
       </defs>
       <use xlink:href="#DejaVuSans-31" transform="translate(0 0.684375)"/>
       <use xlink:href="#DejaVuSans-30" transform="translate(63.623047 0.684375)"/>
       <use xlink:href="#DejaVuSans-31" transform="translate(128.203125 38.965625) scale(0.7)"/>
       <use xlink:href="#DejaVuSans-34" transform="translate(172.739258 38.965625) scale(0.7)"/>
      </g>
     </g>
    </g>
    <g id="xtick_4">
     <g id="line2d_4">
      <defs>
       <path id="m13682e1d24" d="M 0 0 
L 0 2 
" style="stroke: #000000; stroke-width: 0.6"/>
      </defs>
      <g>
       <use xlink:href="#m13682e1d24" x="71.83958" y="307.584" style="stroke: #000000; stroke-width: 0.6"/>
      </g>
     </g>
    </g>
    <g id="xtick_5">
     <g id="line2d_5">
      <g>
       <use xlink:href="#m13682e1d24" x="92.253793" y="307.584" style="stroke: #000000; stroke-width: 0.6"/>
      </g>
     </g>
    </g>
    <g id="xtick_6">
     <g id="line2d_6">
      <g>
       <use xlink:href="#m13682e1d24" x="106.737908" y="307.584" style="stroke: #000000; stroke-width: 0.6"/>
      </g>
     </g>
    </g>
    <g id="xtick_7">
     <g id="line2d_7">
      <g>
       <use xlink:href="#m13682e1d24" x="117.97266" y="307.584" style="stroke: #000000; stroke-width: 0.6"/>
      </g>
     </g>
    </g>
    <g id="xtick_8">
     <g id="line2d_8">
      <g>
       <use xlink:href="#m13682e1d24" x="127.152121" y="307.584" style="stroke: #000000; stroke-width: 0.6"/>
      </g>
     </g>
    </g>
    <g id="xtick_9">
     <g id="line2d_9">
      <g>
       <use xlink:href="#m13682e1d24" x="134.913245" y="307.584" style="stroke: #000000; stroke-width: 0.6"/>
      </g>
     </g>
    </g>
    <g id="xtick_10">
     <g id="line2d_10">
      <g>
       <use xlink:href="#m13682e1d24" x="141.636236" y="307.584" style="stroke: #000000; stroke-width: 0.6"/>
      </g>
     </g>
    </g>
    <g id="xtick_11">
     <g id="line2d_11">
      <g>
       <use xlink:href="#m13682e1d24" x="147.566334" y="307.584" style="stroke: #000000; stroke-width: 0.6"/>
      </g>
     </g>
    </g>
    <g id="xtick_12">
     <g id="line2d_12">
      <g>
       <use xlink:href="#m13682e1d24" x="187.769316" y="307.584" style="stroke: #000000; stroke-width: 0.6"/>
      </g>
     </g>
    </g>
    <g id="xtick_13">
     <g id="line2d_13">
      <g>
       <use xlink:href="#m13682e1d24" x="208.183529" y="307.584" style="stroke: #000000; stroke-width: 0.6"/>
      </g>
     </g>
    </g>
    <g id="xtick_14">
     <g id="line2d_14">
      <g>
       <use xlink:href="#m13682e1d24" x="222.667644" y="307.584" style="stroke: #000000; stroke-width: 0.6"/>
      </g>
     </g>
    </g>
    <g id="xtick_15">
     <g id="line2d_15">
      <g>
       <use xlink:href="#m13682e1d24" x="233.902396" y="307.584" style="stroke: #000000; stroke-width: 0.6"/>
      </g>
     </g>
    </g>
    <g id="xtick_16">
     <g id="line2d_16">
      <g>
       <use xlink:href="#m13682e1d24" x="243.081857" y="307.584" style="stroke: #000000; stroke-width: 0.6"/>
      </g>
     </g>
    </g>
    <g id="xtick_17">
     <g id="line2d_17">
      <g>
       <use xlink:href="#m13682e1d24" x="250.842981" y="307.584" style="stroke: #000000; stroke-width: 0.6"/>
      </g>
     </g>
    </g>
    <g id="xtick_18">
     <g id="line2d_18">
      <g>
       <use xlink:href="#m13682e1d24" x="257.565972" y="307.584" style="stroke: #000000; stroke-width: 0.6"/>
      </g>
     </g>
    </g>
    <g id="xtick_19">
     <g id="line2d_19">
      <g>
       <use xlink:href="#m13682e1d24" x="263.496071" y="307.584" style="stroke: #000000; stroke-width: 0.6"/>
      </g>
     </g>
    </g>
    <g id="xtick_20">
     <g id="line2d_20">
      <g>
       <use xlink:href="#m13682e1d24" x="303.699053" y="307.584" style="stroke: #000000; stroke-width: 0.6"/>
      </g>
     </g>
    </g>
    <g id="xtick_21">
     <g id="line2d_21">
      <g>
       <use xlink:href="#m13682e1d24" x="324.113266" y="307.584" style="stroke: #000000; stroke-width: 0.6"/>
      </g>
     </g>
    </g>
    <g id="xtick_22">
     <g id="line2d_22">
      <g>
       <use xlink:href="#m13682e1d24" x="338.597381" y="307.584" style="stroke: #000000; stroke-width: 0.6"/>
      </g>
     </g>
    </g>
    <g id="xtick_23">
     <g id="line2d_23">
      <g>
       <use xlink:href="#m13682e1d24" x="349.832133" y="307.584" style="stroke: #000000; stroke-width: 0.6"/>
      </g>
     </g>
    </g>
    <g id="xtick_24">
     <g id="line2d_24">
      <g>
       <use xlink:href="#m13682e1d24" x="359.011594" y="307.584" style="stroke: #000000; stroke-width: 0.6"/>
      </g>
     </g>
    </g>
    <g id="xtick_25">
     <g id="line2d_25">
      <g>
       <use xlink:href="#m13682e1d24" x="366.772718" y="307.584" style="stroke: #000000; stroke-width: 0.6"/>
      </g>
     </g>
    </g>
    <g id="xtick_26">
     <g id="line2d_26">
      <g>
       <use xlink:href="#m13682e1d24" x="373.495709" y="307.584" style="stroke: #000000; stroke-width: 0.6"/>
      </g>
     </g>
    </g>
    <g id="xtick_27">
     <g id="line2d_27">
      <g>
       <use xlink:href="#m13682e1d24" x="379.425807" y="307.584" style="stroke: #000000; stroke-width: 0.6"/>
      </g>
     </g>
    </g>
    <g id="text_4">
     <!-- Log time  -->
     <g transform="translate(212.75375 335.860562) scale(0.1 -0.1)">
      <defs>
       <path id="DejaVuSans-4c" d="M 628 4666 
L 1259 4666 
L 1259 531 
L 3531 531 
L 3531 0 
L 628 0 
L 628 4666 
z
" transform="scale(0.015625)"/>
       <path id="DejaVuSans-6f" d="M 1959 3097 
Q 1497 3097 1228 2736 
Q 959 2375 959 1747 
Q 959 1119 1226 758 
Q 1494 397 1959 397 
Q 2419 397 2687 759 
Q 2956 1122 2956 1747 
Q 2956 2369 2687 2733 
Q 2419 3097 1959 3097 
z
M 1959 3584 
Q 2709 3584 3137 3096 
Q 3566 2609 3566 1747 
Q 3566 888 3137 398 
Q 2709 -91 1959 -91 
Q 1206 -91 779 398 
Q 353 888 353 1747 
Q 353 2609 779 3096 
Q 1206 3584 1959 3584 
z
" transform="scale(0.015625)"/>
       <path id="DejaVuSans-67" d="M 2906 1791 
Q 2906 2416 2648 2759 
Q 2391 3103 1925 3103 
Q 1463 3103 1205 2759 
Q 947 2416 947 1791 
Q 947 1169 1205 825 
Q 1463 481 1925 481 
Q 2391 481 2648 825 
Q 2906 1169 2906 1791 
z
M 3481 434 
Q 3481 -459 3084 -895 
Q 2688 -1331 1869 -1331 
Q 1566 -1331 1297 -1286 
Q 1028 -1241 775 -1147 
L 775 -588 
Q 1028 -725 1275 -790 
Q 1522 -856 1778 -856 
Q 2344 -856 2625 -561 
Q 2906 -266 2906 331 
L 2906 616 
Q 2728 306 2450 153 
Q 2172 0 1784 0 
Q 1141 0 747 490 
Q 353 981 353 1791 
Q 353 2603 747 3093 
Q 1141 3584 1784 3584 
Q 2172 3584 2450 3431 
Q 2728 3278 2906 2969 
L 2906 3500 
L 3481 3500 
L 3481 434 
z
" transform="scale(0.015625)"/>
       <path id="DejaVuSans-20" transform="scale(0.015625)"/>
       <path id="DejaVuSans-74" d="M 1172 4494 
L 1172 3500 
L 2356 3500 
L 2356 3053 
L 1172 3053 
L 1172 1153 
Q 1172 725 1289 603 
Q 1406 481 1766 481 
L 2356 481 
L 2356 0 
L 1766 0 
Q 1100 0 847 248 
Q 594 497 594 1153 
L 594 3053 
L 172 3053 
L 172 3500 
L 594 3500 
L 594 4494 
L 1172 4494 
z
" transform="scale(0.015625)"/>
       <path id="DejaVuSans-69" d="M 603 3500 
L 1178 3500 
L 1178 0 
L 603 0 
L 603 3500 
z
M 603 4863 
L 1178 4863 
L 1178 4134 
L 603 4134 
L 603 4863 
z
" transform="scale(0.015625)"/>
       <path id="DejaVuSans-6d" d="M 3328 2828 
Q 3544 3216 3844 3400 
Q 4144 3584 4550 3584 
Q 5097 3584 5394 3201 
Q 5691 2819 5691 2113 
L 5691 0 
L 5113 0 
L 5113 2094 
Q 5113 2597 4934 2840 
Q 4756 3084 4391 3084 
Q 3944 3084 3684 2787 
Q 3425 2491 3425 1978 
L 3425 0 
L 2847 0 
L 2847 2094 
Q 2847 2600 2669 2842 
Q 2491 3084 2119 3084 
Q 1678 3084 1418 2786 
Q 1159 2488 1159 1978 
L 1159 0 
L 581 0 
L 581 3500 
L 1159 3500 
L 1159 2956 
Q 1356 3278 1631 3431 
Q 1906 3584 2284 3584 
Q 2666 3584 2933 3390 
Q 3200 3197 3328 2828 
z
" transform="scale(0.015625)"/>
       <path id="DejaVuSans-65" d="M 3597 1894 
L 3597 1613 
L 953 1613 
Q 991 1019 1311 708 
Q 1631 397 2203 397 
Q 2534 397 2845 478 
Q 3156 559 3463 722 
L 3463 178 
Q 3153 47 2828 -22 
Q 2503 -91 2169 -91 
Q 1331 -91 842 396 
Q 353 884 353 1716 
Q 353 2575 817 3079 
Q 1281 3584 2069 3584 
Q 2775 3584 3186 3129 
Q 3597 2675 3597 1894 
z
M 3022 2063 
Q 3016 2534 2758 2815 
Q 2500 3097 2075 3097 
Q 1594 3097 1305 2825 
Q 1016 2553 972 2059 
L 3022 2063 
z
" transform="scale(0.015625)"/>
      </defs>
      <use xlink:href="#DejaVuSans-4c"/>
      <use xlink:href="#DejaVuSans-6f" transform="translate(53.962891 0)"/>
      <use xlink:href="#DejaVuSans-67" transform="translate(115.144531 0)"/>
      <use xlink:href="#DejaVuSans-20" transform="translate(178.621094 0)"/>
      <use xlink:href="#DejaVuSans-74" transform="translate(210.408203 0)"/>
      <use xlink:href="#DejaVuSans-69" transform="translate(249.617188 0)"/>
      <use xlink:href="#DejaVuSans-6d" transform="translate(277.400391 0)"/>
      <use xlink:href="#DejaVuSans-65" transform="translate(374.8125 0)"/>
      <use xlink:href="#DejaVuSans-20" transform="translate(436.335938 0)"/>
     </g>
    </g>
   </g>
   <g id="matplotlib.axis_2">
    <g id="ytick_1">
     <g id="line2d_28">
      <defs>
       <path id="m844ac76e44" d="M 0 0 
L -3.5 0 
" style="stroke: #000000; stroke-width: 0.8"/>
      </defs>
      <g>
       <use xlink:href="#m844ac76e44" x="57.6" y="307.584" style="stroke: #000000; stroke-width: 0.8"/>
      </g>
     </g>
     <g id="text_5">
      <!-- 0.0 -->
      <g transform="translate(34.696875 311.383219) scale(0.1 -0.1)">
       <defs>
        <path id="DejaVuSans-2e" d="M 684 794 
L 1344 794 
L 1344 0 
L 684 0 
L 684 794 
z
" transform="scale(0.015625)"/>
       </defs>
       <use xlink:href="#DejaVuSans-30"/>
       <use xlink:href="#DejaVuSans-2e" transform="translate(63.623047 0)"/>
       <use xlink:href="#DejaVuSans-30" transform="translate(95.410156 0)"/>
      </g>
     </g>
    </g>
    <g id="ytick_2">
     <g id="line2d_29">
      <g>
       <use xlink:href="#m844ac76e44" x="57.6" y="254.3616" style="stroke: #000000; stroke-width: 0.8"/>
      </g>
     </g>
     <g id="text_6">
      <!-- 0.2 -->
      <g transform="translate(34.696875 258.160819) scale(0.1 -0.1)">
       <use xlink:href="#DejaVuSans-30"/>
       <use xlink:href="#DejaVuSans-2e" transform="translate(63.623047 0)"/>
       <use xlink:href="#DejaVuSans-32" transform="translate(95.410156 0)"/>
      </g>
     </g>
    </g>
    <g id="ytick_3">
     <g id="line2d_30">
      <g>
       <use xlink:href="#m844ac76e44" x="57.6" y="201.1392" style="stroke: #000000; stroke-width: 0.8"/>
      </g>
     </g>
     <g id="text_7">
      <!-- 0.4 -->
      <g transform="translate(34.696875 204.938419) scale(0.1 -0.1)">
       <use xlink:href="#DejaVuSans-30"/>
       <use xlink:href="#DejaVuSans-2e" transform="translate(63.623047 0)"/>
       <use xlink:href="#DejaVuSans-34" transform="translate(95.410156 0)"/>
      </g>
     </g>
    </g>
    <g id="ytick_4">
     <g id="line2d_31">
      <g>
       <use xlink:href="#m844ac76e44" x="57.6" y="147.9168" style="stroke: #000000; stroke-width: 0.8"/>
      </g>
     </g>
     <g id="text_8">
      <!-- 0.6 -->
      <g transform="translate(34.696875 151.716019) scale(0.1 -0.1)">
       <defs>
        <path id="DejaVuSans-36" d="M 2113 2584 
Q 1688 2584 1439 2293 
Q 1191 2003 1191 1497 
Q 1191 994 1439 701 
Q 1688 409 2113 409 
Q 2538 409 2786 701 
Q 3034 994 3034 1497 
Q 3034 2003 2786 2293 
Q 2538 2584 2113 2584 
z
M 3366 4563 
L 3366 3988 
Q 3128 4100 2886 4159 
Q 2644 4219 2406 4219 
Q 1781 4219 1451 3797 
Q 1122 3375 1075 2522 
Q 1259 2794 1537 2939 
Q 1816 3084 2150 3084 
Q 2853 3084 3261 2657 
Q 3669 2231 3669 1497 
Q 3669 778 3244 343 
Q 2819 -91 2113 -91 
Q 1303 -91 875 529 
Q 447 1150 447 2328 
Q 447 3434 972 4092 
Q 1497 4750 2381 4750 
Q 2619 4750 2861 4703 
Q 3103 4656 3366 4563 
z
" transform="scale(0.015625)"/>
       </defs>
       <use xlink:href="#DejaVuSans-30"/>
       <use xlink:href="#DejaVuSans-2e" transform="translate(63.623047 0)"/>
       <use xlink:href="#DejaVuSans-36" transform="translate(95.410156 0)"/>
      </g>
     </g>
    </g>
    <g id="ytick_5">
     <g id="line2d_32">
      <g>
       <use xlink:href="#m844ac76e44" x="57.6" y="94.6944" style="stroke: #000000; stroke-width: 0.8"/>
      </g>
     </g>
     <g id="text_9">
      <!-- 0.8 -->
      <g transform="translate(34.696875 98.493619) scale(0.1 -0.1)">
       <defs>
        <path id="DejaVuSans-38" d="M 2034 2216 
Q 1584 2216 1326 1975 
Q 1069 1734 1069 1313 
Q 1069 891 1326 650 
Q 1584 409 2034 409 
Q 2484 409 2743 651 
Q 3003 894 3003 1313 
Q 3003 1734 2745 1975 
Q 2488 2216 2034 2216 
z
M 1403 2484 
Q 997 2584 770 2862 
Q 544 3141 544 3541 
Q 544 4100 942 4425 
Q 1341 4750 2034 4750 
Q 2731 4750 3128 4425 
Q 3525 4100 3525 3541 
Q 3525 3141 3298 2862 
Q 3072 2584 2669 2484 
Q 3125 2378 3379 2068 
Q 3634 1759 3634 1313 
Q 3634 634 3220 271 
Q 2806 -91 2034 -91 
Q 1263 -91 848 271 
Q 434 634 434 1313 
Q 434 1759 690 2068 
Q 947 2378 1403 2484 
z
M 1172 3481 
Q 1172 3119 1398 2916 
Q 1625 2713 2034 2713 
Q 2441 2713 2670 2916 
Q 2900 3119 2900 3481 
Q 2900 3844 2670 4047 
Q 2441 4250 2034 4250 
Q 1625 4250 1398 4047 
Q 1172 3844 1172 3481 
z
" transform="scale(0.015625)"/>
       </defs>
       <use xlink:href="#DejaVuSans-30"/>
       <use xlink:href="#DejaVuSans-2e" transform="translate(63.623047 0)"/>
       <use xlink:href="#DejaVuSans-38" transform="translate(95.410156 0)"/>
      </g>
     </g>
    </g>
    <g id="ytick_6">
     <g id="line2d_33">
      <g>
       <use xlink:href="#m844ac76e44" x="57.6" y="41.472" style="stroke: #000000; stroke-width: 0.8"/>
      </g>
     </g>
     <g id="text_10">
      <!-- 1.0 -->
      <g transform="translate(34.696875 45.271219) scale(0.1 -0.1)">
       <use xlink:href="#DejaVuSans-31"/>
       <use xlink:href="#DejaVuSans-2e" transform="translate(63.623047 0)"/>
       <use xlink:href="#DejaVuSans-30" transform="translate(95.410156 0)"/>
      </g>
     </g>
    </g>
    <g id="text_11">
     <!-- Percent of filled traps -->
     <g transform="translate(28.617187 227.95925) rotate(-90) scale(0.1 -0.1)">
      <defs>
       <path id="DejaVuSans-50" d="M 1259 4147 
L 1259 2394 
L 2053 2394 
Q 2494 2394 2734 2622 
Q 2975 2850 2975 3272 
Q 2975 3691 2734 3919 
Q 2494 4147 2053 4147 
L 1259 4147 
z
M 628 4666 
L 2053 4666 
Q 2838 4666 3239 4311 
Q 3641 3956 3641 3272 
Q 3641 2581 3239 2228 
Q 2838 1875 2053 1875 
L 1259 1875 
L 1259 0 
L 628 0 
L 628 4666 
z
" transform="scale(0.015625)"/>
       <path id="DejaVuSans-72" d="M 2631 2963 
Q 2534 3019 2420 3045 
Q 2306 3072 2169 3072 
Q 1681 3072 1420 2755 
Q 1159 2438 1159 1844 
L 1159 0 
L 581 0 
L 581 3500 
L 1159 3500 
L 1159 2956 
Q 1341 3275 1631 3429 
Q 1922 3584 2338 3584 
Q 2397 3584 2469 3576 
Q 2541 3569 2628 3553 
L 2631 2963 
z
" transform="scale(0.015625)"/>
       <path id="DejaVuSans-63" d="M 3122 3366 
L 3122 2828 
Q 2878 2963 2633 3030 
Q 2388 3097 2138 3097 
Q 1578 3097 1268 2742 
Q 959 2388 959 1747 
Q 959 1106 1268 751 
Q 1578 397 2138 397 
Q 2388 397 2633 464 
Q 2878 531 3122 666 
L 3122 134 
Q 2881 22 2623 -34 
Q 2366 -91 2075 -91 
Q 1284 -91 818 406 
Q 353 903 353 1747 
Q 353 2603 823 3093 
Q 1294 3584 2113 3584 
Q 2378 3584 2631 3529 
Q 2884 3475 3122 3366 
z
" transform="scale(0.015625)"/>
       <path id="DejaVuSans-6e" d="M 3513 2113 
L 3513 0 
L 2938 0 
L 2938 2094 
Q 2938 2591 2744 2837 
Q 2550 3084 2163 3084 
Q 1697 3084 1428 2787 
Q 1159 2491 1159 1978 
L 1159 0 
L 581 0 
L 581 3500 
L 1159 3500 
L 1159 2956 
Q 1366 3272 1645 3428 
Q 1925 3584 2291 3584 
Q 2894 3584 3203 3211 
Q 3513 2838 3513 2113 
z
" transform="scale(0.015625)"/>
       <path id="DejaVuSans-66" d="M 2375 4863 
L 2375 4384 
L 1825 4384 
Q 1516 4384 1395 4259 
Q 1275 4134 1275 3809 
L 1275 3500 
L 2222 3500 
L 2222 3053 
L 1275 3053 
L 1275 0 
L 697 0 
L 697 3053 
L 147 3053 
L 147 3500 
L 697 3500 
L 697 3744 
Q 697 4328 969 4595 
Q 1241 4863 1831 4863 
L 2375 4863 
z
" transform="scale(0.015625)"/>
       <path id="DejaVuSans-6c" d="M 603 4863 
L 1178 4863 
L 1178 0 
L 603 0 
L 603 4863 
z
" transform="scale(0.015625)"/>
       <path id="DejaVuSans-64" d="M 2906 2969 
L 2906 4863 
L 3481 4863 
L 3481 0 
L 2906 0 
L 2906 525 
Q 2725 213 2448 61 
Q 2172 -91 1784 -91 
Q 1150 -91 751 415 
Q 353 922 353 1747 
Q 353 2572 751 3078 
Q 1150 3584 1784 3584 
Q 2172 3584 2448 3432 
Q 2725 3281 2906 2969 
z
M 947 1747 
Q 947 1113 1208 752 
Q 1469 391 1925 391 
Q 2381 391 2643 752 
Q 2906 1113 2906 1747 
Q 2906 2381 2643 2742 
Q 2381 3103 1925 3103 
Q 1469 3103 1208 2742 
Q 947 2381 947 1747 
z
" transform="scale(0.015625)"/>
       <path id="DejaVuSans-61" d="M 2194 1759 
Q 1497 1759 1228 1600 
Q 959 1441 959 1056 
Q 959 750 1161 570 
Q 1363 391 1709 391 
Q 2188 391 2477 730 
Q 2766 1069 2766 1631 
L 2766 1759 
L 2194 1759 
z
M 3341 1997 
L 3341 0 
L 2766 0 
L 2766 531 
Q 2569 213 2275 61 
Q 1981 -91 1556 -91 
Q 1019 -91 701 211 
Q 384 513 384 1019 
Q 384 1609 779 1909 
Q 1175 2209 1959 2209 
L 2766 2209 
L 2766 2266 
Q 2766 2663 2505 2880 
Q 2244 3097 1772 3097 
Q 1472 3097 1187 3025 
Q 903 2953 641 2809 
L 641 3341 
Q 956 3463 1253 3523 
Q 1550 3584 1831 3584 
Q 2591 3584 2966 3190 
Q 3341 2797 3341 1997 
z
" transform="scale(0.015625)"/>
       <path id="DejaVuSans-70" d="M 1159 525 
L 1159 -1331 
L 581 -1331 
L 581 3500 
L 1159 3500 
L 1159 2969 
Q 1341 3281 1617 3432 
Q 1894 3584 2278 3584 
Q 2916 3584 3314 3078 
Q 3713 2572 3713 1747 
Q 3713 922 3314 415 
Q 2916 -91 2278 -91 
Q 1894 -91 1617 61 
Q 1341 213 1159 525 
z
M 3116 1747 
Q 3116 2381 2855 2742 
Q 2594 3103 2138 3103 
Q 1681 3103 1420 2742 
Q 1159 2381 1159 1747 
Q 1159 1113 1420 752 
Q 1681 391 2138 391 
Q 2594 391 2855 752 
Q 3116 1113 3116 1747 
z
" transform="scale(0.015625)"/>
       <path id="DejaVuSans-73" d="M 2834 3397 
L 2834 2853 
Q 2591 2978 2328 3040 
Q 2066 3103 1784 3103 
Q 1356 3103 1142 2972 
Q 928 2841 928 2578 
Q 928 2378 1081 2264 
Q 1234 2150 1697 2047 
L 1894 2003 
Q 2506 1872 2764 1633 
Q 3022 1394 3022 966 
Q 3022 478 2636 193 
Q 2250 -91 1575 -91 
Q 1294 -91 989 -36 
Q 684 19 347 128 
L 347 722 
Q 666 556 975 473 
Q 1284 391 1588 391 
Q 1994 391 2212 530 
Q 2431 669 2431 922 
Q 2431 1156 2273 1281 
Q 2116 1406 1581 1522 
L 1381 1569 
Q 847 1681 609 1914 
Q 372 2147 372 2553 
Q 372 3047 722 3315 
Q 1072 3584 1716 3584 
Q 2034 3584 2315 3537 
Q 2597 3491 2834 3397 
z
" transform="scale(0.015625)"/>
      </defs>
      <use xlink:href="#DejaVuSans-50"/>
      <use xlink:href="#DejaVuSans-65" transform="translate(56.677734 0)"/>
      <use xlink:href="#DejaVuSans-72" transform="translate(118.201172 0)"/>
      <use xlink:href="#DejaVuSans-63" transform="translate(157.064453 0)"/>
      <use xlink:href="#DejaVuSans-65" transform="translate(212.044922 0)"/>
      <use xlink:href="#DejaVuSans-6e" transform="translate(273.568359 0)"/>
      <use xlink:href="#DejaVuSans-74" transform="translate(336.947266 0)"/>
      <use xlink:href="#DejaVuSans-20" transform="translate(376.15625 0)"/>
      <use xlink:href="#DejaVuSans-6f" transform="translate(407.943359 0)"/>
      <use xlink:href="#DejaVuSans-66" transform="translate(469.125 0)"/>
      <use xlink:href="#DejaVuSans-20" transform="translate(504.330078 0)"/>
      <use xlink:href="#DejaVuSans-66" transform="translate(536.117188 0)"/>
      <use xlink:href="#DejaVuSans-69" transform="translate(571.322266 0)"/>
      <use xlink:href="#DejaVuSans-6c" transform="translate(599.105469 0)"/>
      <use xlink:href="#DejaVuSans-6c" transform="translate(626.888672 0)"/>
      <use xlink:href="#DejaVuSans-65" transform="translate(654.671875 0)"/>
      <use xlink:href="#DejaVuSans-64" transform="translate(716.195312 0)"/>
      <use xlink:href="#DejaVuSans-20" transform="translate(779.671875 0)"/>
      <use xlink:href="#DejaVuSans-74" transform="translate(811.458984 0)"/>
      <use xlink:href="#DejaVuSans-72" transform="translate(850.667969 0)"/>
      <use xlink:href="#DejaVuSans-61" transform="translate(891.78125 0)"/>
      <use xlink:href="#DejaVuSans-70" transform="translate(953.060547 0)"/>
      <use xlink:href="#DejaVuSans-73" transform="translate(1016.537109 0)"/>
     </g>
    </g>
   </g>
   <g id="line2d_34">
    <path d="M 93.823356 301.781217 
L 96.521847 301.554546 
L 96.521847 301.309741 
L 104.180877 300.820131 
L 106.589012 300.575326 
L 106.755694 300.348655 
L 106.755694 299.859045 
L 110.678698 299.088363 
L 111.629363 298.834491 
L 111.629363 298.598753 
L 112.672671 298.344881 
L 114.484818 298.09101 
L 114.901181 297.837138 
L 123.334571 297.583266 
L 124.118957 297.347528 
L 130.477019 297.11179 
L 131.076069 296.676581 
L 131.076069 296.468044 
L 131.447709 296.241373 
L 131.447709 296.014701 
L 133.074042 295.769897 
L 133.39359 295.543225 
L 134.048802 295.29842 
L 135.789826 295.044549 
L 136.625584 294.790677 
L 138.534761 294.536805 
L 138.534761 294.282933 
L 141.903111 293.738923 
L 142.169969 293.45785 
L 145.093058 292.931973 
L 145.480323 292.669034 
L 145.480323 292.406096 
L 145.975731 292.143157 
L 147.29096 291.880219 
L 147.408563 291.61728 
L 147.671454 291.354341 
L 147.671454 291.091403 
L 149.285536 290.846598 
L 149.383139 290.356988 
L 149.756384 289.867378 
L 150.838567 289.60444 
L 151.186068 289.350568 
L 151.186068 289.096696 
L 152.863354 288.851891 
L 154.553853 288.13561 
L 155.172995 287.881738 
L 155.276008 287.392129 
L 155.896036 287.147324 
L 155.896036 286.893452 
L 156.327911 286.421976 
L 156.367034 285.9505 
L 156.564652 285.723829 
L 158.333127 285.052882 
L 158.333127 284.817144 
L 160.59725 284.563272 
L 160.644199 284.082729 
L 161.9935 283.837924 
L 162.248402 283.593119 
L 163.976811 283.103509 
L 164.081512 282.595766 
L 165.381885 282.12429 
L 167.291223 281.906685 
L 167.485785 281.471477 
L 167.921715 281.253872 
L 168.997091 281.018134 
L 169.063782 280.292786 
L 169.663155 280.057048 
L 170.521266 279.386102 
L 170.543393 279.168497 
L 171.365609 278.941826 
L 171.382613 278.506617 
L 171.776167 278.279946 
L 172.852739 278.053275 
L 173.041077 277.826604 
L 173.789184 277.400462 
L 173.823972 277.182857 
L 174.179704 276.983387 
L 174.179704 276.774849 
L 174.440654 276.566312 
L 174.440654 276.366841 
L 178.773703 275.605226 
L 179.137939 275.405755 
L 180.604614 275.206284 
L 180.944839 274.091062 
L 181.23666 273.873458 
L 185.095583 273.438249 
L 185.095583 273.202511 
L 185.659391 272.731035 
L 186.405538 272.495297 
L 186.405538 272.250492 
L 187.660037 271.806216 
L 187.660037 271.588612 
L 188.600524 271.153403 
L 189.074869 270.255785 
L 190.211013 269.802443 
L 190.4172 269.593905 
L 192.283171 269.158697 
L 192.462397 268.932025 
L 194.15222 268.68722 
L 194.235866 268.224811 
L 194.424353 267.99814 
L 194.95844 267.771469 
L 195.215432 267.535731 
L 195.889259 267.299993 
L 196.013082 267.082388 
L 196.403385 266.873851 
L 196.583383 266.64718 
L 196.659612 266.211971 
L 196.735725 265.758628 
L 197.281699 265.541024 
L 197.384423 264.670607 
L 197.689338 263.85459 
L 198.361324 263.664186 
L 198.39049 263.473783 
L 199.247155 262.784702 
L 199.704328 262.476429 
L 200.166766 262.041221 
L 200.475434 261.914285 
L 200.475434 261.769215 
L 201.883132 261.615079 
L 202.331104 261.288672 
L 203.276172 260.935065 
L 203.276172 260.753728 
L 204.45726 260.590525 
L 204.55599 260.109982 
L 206.029724 259.937712 
L 206.029724 259.765442 
L 206.26261 259.593172 
L 206.471823 258.67742 
L 207.021995 258.487016 
L 207.021995 258.287545 
L 207.194124 258.088075 
L 207.205842 257.888604 
L 208.163647 257.680067 
L 208.163647 257.480596 
L 208.651192 256.646446 
L 210.026567 256.020833 
L 210.0271 255.594691 
L 210.254442 255.36802 
L 211.053469 254.932811 
L 211.093348 254.70614 
L 211.645267 253.799455 
L 212.117551 253.545584 
L 212.227852 253.055974 
L 212.245456 252.793035 
L 212.691035 252.54823 
L 212.717056 252.058621 
L 213.617861 251.269805 
L 214.725603 250.508189 
L 214.7364 249.773775 
L 215.403461 249.519903 
L 215.665598 249.021226 
L 215.665598 248.785488 
L 216.510736 248.54975 
L 216.646081 248.314012 
L 217.411252 248.078274 
L 217.411252 247.842536 
L 218.406583 247.216923 
L 218.539768 246.817982 
L 218.628282 246.020099 
L 218.921758 245.439821 
L 219.14345 245.059014 
L 219.14345 244.86861 
L 219.829646 244.116061 
L 219.829646 243.934724 
L 220.852137 243.218443 
L 221.010259 242.665366 
L 221.182831 242.484029 
L 221.182831 242.302692 
L 221.457818 242.121355 
L 221.802327 240.833862 
L 223.060973 240.326119 
L 223.36956 240.135715 
L 223.36956 239.963445 
L 223.743654 239.637038 
L 223.844563 239.274364 
L 223.871319 239.093027 
L 224.436158 238.766621 
L 225.001499 238.431147 
L 225.001499 238.258877 
L 226.305296 236.291371 
L 227.435189 236.100967 
L 227.890748 235.901497 
L 227.998042 235.339352 
L 228.418284 234.3964 
L 229.025178 234.196929 
L 229.142949 233.816122 
L 229.16415 233.616651 
L 229.472014 233.036373 
L 229.824441 231.57661 
L 229.990235 231.304605 
L 231.308274 231.023532 
L 231.308274 230.878463 
L 231.474461 230.74246 
L 232.071101 230.59739 
L 234.501141 230.307251 
L 234.76716 229.708839 
L 235.094677 229.4187 
L 235.094677 229.273631 
L 235.28735 229.137628 
L 235.379316 228.376013 
L 235.402281 228.049606 
L 235.670506 227.886403 
L 235.670506 227.723199 
L 236.093827 227.559996 
L 236.164106 227.052253 
L 236.418096 226.218103 
L 236.613982 225.891696 
L 236.700431 225.583423 
L 236.828449 225.293284 
L 236.837307 224.966878 
L 237.151388 224.803674 
L 237.375873 223.915123 
L 237.590742 223.742853 
L 237.609811 223.380179 
L 237.920328 223.180708 
L 238.150905 222.264957 
L 238.598041 222.074553 
L 238.890643 221.331071 
L 238.960964 220.814261 
L 239.157206 220.632924 
L 239.168862 220.143314 
L 239.657016 219.816908 
L 239.669174 219.481434 
L 240.987177 218.511281 
L 241.113099 218.030739 
L 241.657932 217.858468 
L 241.76805 217.178455 
L 242.881466 216.135767 
L 243.035229 215.981631 
L 244.944067 215.392286 
L 245.667396 215.238149 
L 246.402496 214.567202 
L 246.432914 214.195462 
L 246.627335 214.023192 
L 246.651541 213.850921 
L 246.93902 213.506381 
L 247.020242 213.325044 
L 247.63538 213.152774 
L 248.027709 212.781033 
L 248.027709 212.599696 
L 248.370327 212.055685 
L 248.389232 211.693012 
L 249.112075 210.895129 
L 249.64075 210.278583 
L 249.823401 209.988444 
L 249.823401 209.843374 
L 250.155819 209.553235 
L 250.230608 209.172428 
L 250.292618 208.846021 
L 250.639369 208.374545 
L 250.946082 207.821467 
L 251.18902 207.12332 
L 251.954314 206.552108 
L 252.066398 206.198501 
L 252.5699 206.053432 
L 252.649954 205.708892 
L 253.128206 205.155814 
L 253.789111 204.911009 
L 254.243276 204.765939 
L 254.24385 204.684338 
L 254.445447 204.430466 
L 255.167979 203.15204 
L 255.167979 203.052305 
L 255.821305 202.698698 
L 255.947183 202.444826 
L 255.956764 201.955216 
L 256.321905 201.701345 
L 256.377674 201.574409 
L 256.71644 201.329604 
L 256.71644 201.202668 
L 256.893536 200.939729 
L 256.943927 200.812793 
L 257.712819 200.241582 
L 257.969191 199.026624 
L 258.238095 198.627683 
L 258.615104 198.237809 
L 258.760113 198.020204 
L 258.914585 197.340191 
L 259.095806 196.79618 
L 259.781074 196.070832 
L 260.535757 195.481487 
L 260.561044 195.227615 
L 260.823937 194.955609 
L 261.107349 194.302796 
L 261.799971 194.048925 
L 262.486099 193.051571 
L 262.855313 192.924635 
L 262.959274 192.353424 
L 263.136932 191.745945 
L 263.24357 191.129399 
L 263.428118 189.850974 
L 263.614141 189.66057 
L 263.691902 188.137339 
L 263.777868 187.983203 
L 264.470755 187.547994 
L 264.686946 187.112786 
L 264.806521 186.632243 
L 265.311839 185.68929 
L 265.457558 185.063678 
L 265.621308 184.900475 
L 265.661873 184.138859 
L 266.049512 183.576715 
L 266.049512 183.440712 
L 266.363779 183.032704 
L 267.291471 181.763345 
L 267.436154 181.02893 
L 267.776522 180.566521 
L 267.924159 180.348917 
L 268.168124 180.040644 
L 268.250785 179.714237 
L 268.269727 179.514767 
L 268.657519 179.324363 
L 269.639207 178.798486 
L 269.856866 178.544614 
L 270.189045 178.127539 
L 270.373956 177.819266 
L 270.459275 177.492859 
L 272.105926 175.688557 
L 272.388674 175.452819 
L 272.462058 174.945075 
L 272.871642 174.446398 
L 272.894183 174.228794 
L 273.499389 173.757318 
L 273.507056 173.639449 
L 273.98281 173.37651 
L 273.98281 173.249574 
L 274.202846 173.004769 
L 274.202846 172.787165 
L 274.373204 172.669296 
L 274.45128 172.016483 
L 274.99325 170.574854 
L 275.183465 170.230314 
L 275.290521 169.72257 
L 275.499967 169.124158 
L 275.499967 168.970022 
L 275.69837 168.806819 
L 275.767759 168.489479 
L 276.177466 167.328922 
L 276.372246 166.55824 
L 276.689737 166.277168 
L 276.940876 166.014229 
L 277.014796 165.216347 
L 277.670413 163.402977 
L 277.859601 163.094704 
L 278.054692 162.260554 
L 278.43712 161.362936 
L 278.761303 160.991195 
L 278.831226 160.465318 
L 279.031483 160.147978 
L 279.147486 158.942088 
L 279.2179 158.407144 
L 279.346274 158.008202 
L 280.003307 155.750557 
L 280.553187 154.952674 
L 281.344633 154.490265 
L 281.372282 154.354262 
L 281.679658 154.21826 
L 281.760946 153.982522 
L 283.117921 152.287021 
L 283.980276 151.733943 
L 284.208298 151.035796 
L 284.658552 150.192579 
L 284.759829 149.848039 
L 284.945534 149.603234 
L 285.015239 149.476298 
L 285.213144 149.26776 
L 285.348199 148.905086 
L 285.436852 148.642148 
L 285.54252 148.243207 
L 285.861295 147.9168 
L 285.971413 147.436257 
L 286.086954 147.25492 
L 286.54225 146.583973 
L 286.627792 146.375436 
L 286.719356 146.157831 
L 286.906466 145.922093 
L 287.082468 145.849559 
L 287.851535 145.550353 
L 288.472415 144.6074 
L 289.712225 144.253793 
L 290.203271 144.054323 
L 290.30506 143.909253 
L 290.673577 143.655381 
L 290.963605 143.211106 
L 291.123221 143.020702 
L 291.22429 142.567359 
L 291.355976 142.005215 
L 291.650008 141.878279 
L 291.746171 141.488404 
L 292.182998 141.298001 
L 292.400113 141.171065 
L 292.56436 140.835591 
L 292.762295 140.472917 
L 292.803368 139.801971 
L 293.013081 139.493698 
L 293.140029 139.294227 
L 293.553788 139.013155 
L 293.619925 138.886219 
L 293.719545 138.677681 
L 293.971658 138.260606 
L 294.24387 137.988601 
L 294.345416 137.9342 
L 294.692858 137.707529 
L 294.961626 137.571526 
L 296.734436 137.462724 
L 296.830696 137.118184 
L 296.982435 136.95498 
L 297.080359 136.710175 
L 297.333817 136.311234 
L 297.382877 135.821624 
L 297.791168 135.332014 
L 297.906293 134.987474 
L 298.421351 134.443463 
L 298.6919 134.171458 
L 298.836421 133.690915 
L 299.018 132.9565 
L 299.162731 132.61196 
L 299.318366 132.077016 
L 299.651984 131.850345 
L 299.904663 131.106863 
L 300.069382 130.780457 
L 300.362328 129.157491 
L 300.712404 128.423076 
L 300.827461 127.353188 
L 301.098262 127.017714 
L 301.464244 126.591573 
L 301.659849 126.355835 
L 301.991092 125.920626 
L 302.090538 125.557952 
L 302.257815 125.023008 
L 302.360129 124.460863 
L 302.626815 124.216058 
L 302.802624 123.889652 
L 304.214026 123.590446 
L 304.410867 123.227772 
L 304.545662 122.9739 
L 305.108217 122.62936 
L 305.278498 122.45709 
L 305.432729 122.321087 
L 305.538085 122.13975 
L 305.987002 122.012814 
L 306.265877 121.432536 
L 307.053133 121.024528 
L 307.138352 120.489584 
L 307.338389 120.12691 
L 307.611643 119.093289 
L 307.762263 118.576479 
L 308.36302 118.150337 
L 308.490871 117.950866 
L 308.513423 117.959933 
L 308.771426 118.032468 
L 309.230347 118.050601 
L 309.567965 117.914599 
L 309.81084 117.751395 
L 310.184809 117.098582 
L 310.381597 116.309767 
L 310.613308 115.956159 
L 310.696252 115.693221 
L 311.187431 115.103876 
L 311.433479 114.523597 
L 311.582759 114.052121 
L 311.75975 113.789183 
L 312.426857 112.066481 
L 312.579784 111.81261 
L 312.680828 111.268599 
L 313.125556 110.461649 
L 313.525517 110.17151 
L 313.6284 110.008307 
L 313.883251 109.31016 
L 314.098225 108.829617 
L 314.783763 108.231205 
L 315.514901 105.964493 
L 315.622759 105.502083 
L 315.753871 105.121276 
L 316.760342 103.797516 
L 316.875192 103.52551 
L 317.216938 103.271639 
L 317.5903 102.990566 
L 317.776127 102.845497 
L 317.936868 102.056681 
L 318.139793 101.630539 
L 318.208175 101.476403 
L 318.401594 101.131862 
L 319.420886 100.116375 
L 319.621676 99.953172 
L 320.024694 99.554231 
L 320.333547 99.400094 
L 320.90973 99.173423 
L 321.351197 99.137156 
L 322.205571 98.847017 
L 322.299182 98.756348 
L 322.94907 97.876864 
L 323.547671 96.616572 
L 323.709214 96.353633 
L 323.89695 96.036294 
L 324.038424 95.773355 
L 324.495271 95.256545 
L 325.206478 94.712534 
L 325.370832 94.367993 
L 326.308014 94.367993 
L 327.282526 94.213857 
L 327.752987 94.00532 
L 328.067369 93.896517 
L 328.113088 93.116768 
L 329.425798 92.454888 
L 329.589978 90.967925 
L 329.893918 90.55085 
L 330.779456 89.843636 
L 332.994213 87.867063 
L 333.391095 86.887844 
L 333.701552 86.615838 
L 334.386485 85.817955 
L 335.458369 85.555017 
L 335.578988 85.428081 
L 335.997314 85.038206 
L 336.187267 84.784335 
L 336.50848 84.430728 
L 336.911378 83.351773 
L 337.029028 83.161369 
L 337.157946 82.925631 
L 337.178544 82.844029 
L 337.270365 82.916564 
L 337.423751 83.270171 
L 337.527843 83.36084 
L 337.848703 83.324572 
L 338.05477 82.934698 
L 338.46865 82.780561 
L 338.799467 82.617358 
L 339.045841 81.928277 
L 339.43765 80.722387 
L 340.062603 80.160242 
L 340.218777 79.915437 
L 340.280532 79.715966 
L 340.773944 78.936218 
L 341.255927 78.754881 
L 341.663468 78.546343 
L 342.26599 78.174602 
L 342.663702 78.174602 
L 342.880415 78.0658 
L 343.30676 76.823642 
L 343.51364 76.533503 
L 343.679592 75.73562 
L 344.618382 74.656665 
L 345.038605 74.130788 
L 345.35108 73.124368 
L 345.537269 73.024632 
L 346.206004 73.124368 
L 346.206004 73.133435 
L 347.045236 73.178769 
L 347.618342 72.099814 
L 347.725031 71.864076 
L 347.989179 71.020859 
L 348.302272 70.803255 
L 349.318589 70.041639 
L 349.492076 69.932837 
L 349.731004 69.697099 
L 349.825192 69.542963 
L 350.053986 69.171222 
L 351.506802 68.409607 
L 351.75384 67.892796 
L 352.069274 66.478368 
L 352.182245 66.034092 
L 352.303633 65.916223 
L 353.076737 65.952491 
L 353.386968 66.115694 
L 353.660554 66.306098 
L 353.738449 66.24263 
L 354.35092 65.562616 
L 354.56451 65.326878 
L 354.69132 64.701266 
L 355.159659 62.833495 
L 355.222163 62.751893 
L 355.23632 62.915096 
L 355.40065 63.731113 
L 355.606005 63.984985 
L 355.711442 63.876182 
L 355.876617 63.341238 
L 356.16133 63.196169 
L 356.276098 63.014832 
L 356.641193 61.509735 
L 356.795626 60.956657 
L 357.157326 60.11344 
L 357.322065 59.641964 
L 357.357239 59.651031 
L 357.4041 59.569429 
L 357.563444 59.134221 
L 357.988357 57.737926 
L 358.15428 57.447787 
L 358.280823 57.202982 
L 358.564776 56.804041 
L 358.772258 56.187495 
L 359.136068 56.006158 
L 359.497267 55.643484 
L 359.881445 55.25361 
L 360.181279 55.036005 
L 360.278183 54.383192 
L 360.399193 52.841828 
L 360.723849 52.497288 
L 360.878738 52.325018 
L 361.297212 51.635937 
L 361.418664 51.436466 
L 361.937198 51.327664 
L 363.038333 50.647651 
L 363.535867 50.085506 
L 364.849839 49.976704 
L 365.06371 49.940436 
L 365.543338 50.049239 
L 365.914523 50.094573 
L 366.167513 49.876968 
L 366.276258 49.795367 
L 367.025828 49.659364 
L 367.804955 50.040172 
L 368.006931 50.067372 
L 368.415244 49.967637 
L 368.638868 49.396425 
L 368.814491 49.178821 
L 369.275018 49.287623 
L 369.61784 49.64123 
L 370.308681 50.076439 
L 370.657783 50.185241 
L 371.783338 50.974057 
L 372.696832 50.294043 
L 372.891954 50.076439 
L 372.918264 50.121773 
L 373.281557 50.529782 
L 374.653154 50.638584 
L 374.65984 50.656717 
L 374.733329 50.556982 
L 374.893296 50.520715 
L 375.118625 50.629517 
L 375.88496 50.928723 
L 376.259549 50.93779 
L 376.785491 50.674851 
L 376.941596 50.457247 
L 377.129446 50.257776 
L 377.486963 50.076439 
L 377.763288 50.085506 
L 378.272473 49.976704 
L 378.657046 49.686565 
L 378.919463 49.323891 
L 379.017702 49.12442 
L 379.134822 48.60761 
L 379.32009 48.335604 
L 379.33821 48.353738 
L 379.501 48.46254 
L 379.755196 48.562275 
L 379.92056 48.453473 
L 380.438209 48.272136 
L 381.596141 48.163334 
L 382.341359 46.903042 
L 382.391367 46.912109 
L 382.441325 46.857708 
L 382.864928 46.558502 
L 383.356324 46.4497 
L 384.00493 46.340898 
L 384.192082 46.204895 
L 386.010548 46.005424 
L 389.556767 45.896622 
L 390.220722 45.660884 
L 390.334753 45.370745 
L 390.583777 44.763266 
L 390.717796 44.645397 
L 390.767962 44.536595 
L 390.999847 44.210188 
L 391.245898 44.192055 
L 393.525297 44.300857 
L 393.732072 44.554728 
L 393.866793 44.645397 
L 394.07175 44.536595 
L 394.378475 44.201121 
L 394.576178 44.192055 
L 396.517335 44.083252 
L 396.62703 43.684311 
L 396.698709 43.938183 
L 397.271572 44.192055 
L 398.229424 44.182988 
L 398.487273 175.87896 
L -1 175.89686 
L -1 175.89686 
" clip-path="url(#pdf841ce56d)" style="fill: none; stroke-dasharray: 1.85,0.8; stroke-dashoffset: 0; stroke: #8000ff; stroke-width: 0.5"/>
   </g>
   <g id="line2d_35">
    <path d="M 73.832727 300.185452 
L 76.645013 299.868112 
L 77.698139 299.550772 
L 80.526355 299.251566 
L 84.695801 298.934227 
L 85.302923 298.616887 
L 87.474523 298.317681 
L 87.474523 298.000341 
L 90.759099 297.683002 
L 98.567551 297.383796 
L 105.650139 296.468044 
L 110.858175 296.168838 
L 111.49838 295.887766 
L 111.49838 295.606693 
L 113.938879 295.325621 
L 114.772202 295.026415 
L 117.316345 294.745343 
L 117.457641 294.473337 
L 118.388002 294.183198 
L 118.498376 293.639187 
L 118.998128 293.385315 
L 121.312772 292.877572 
L 121.744979 292.406096 
L 121.799437 291.93462 
L 127.094656 291.698882 
L 127.094656 291.481277 
L 132.379849 291.027935 
L 132.379849 290.81033 
L 132.88898 290.601793 
L 132.88898 290.393255 
L 135.217469 290.184718 
L 135.613504 289.97618 
L 135.613504 289.767643 
L 140.123383 289.559105 
L 140.500163 289.14203 
L 140.500163 288.933493 
L 143.342567 288.552685 
L 143.342567 288.353215 
L 144.402112 288.153744 
L 144.402112 287.954273 
L 145.034091 287.772936 
L 149.330809 287.600666 
L 149.330809 287.428396 
L 153.652139 286.712115 
L 153.652139 286.521711 
L 153.817046 286.331307 
L 153.817046 286.159037 
L 153.967021 285.968633 
L 157.159304 285.569692 
L 157.597016 285.361155 
L 158.698482 285.152617 
L 159.144483 284.925946 
L 159.144483 284.699275 
L 159.496341 284.472603 
L 160.659829 284.245932 
L 161.219999 284.001127 
L 161.219999 283.747256 
L 161.857172 283.493384 
L 162.029773 283.239512 
L 164.152099 282.98564 
L 164.312077 282.731769 
L 164.312077 282.477897 
L 166.974675 281.970153 
L 167.392671 281.716282 
L 168.756815 281.244805 
L 169.687772 280.519458 
L 169.687772 280.265586 
L 171.167857 279.748775 
L 171.4575 279.485837 
L 171.494486 279.222898 
L 172.827527 278.95996 
L 173.107699 278.697021 
L 174.624491 278.134876 
L 174.749512 277.853804 
L 176.052032 277.273526 
L 177.81839 276.992454 
L 177.81839 276.720448 
L 178.137398 276.45751 
L 178.137398 276.194571 
L 178.677702 275.913499 
L 178.755644 275.351354 
L 179.335192 275.079349 
L 179.335192 274.81641 
L 180.161275 274.553471 
L 180.219211 274.2996 
L 180.557809 274.036661 
L 180.557809 273.773722 
L 180.763939 273.510784 
L 181.957197 273.247845 
L 183.893734 272.232358 
L 184.177934 272.005687 
L 185.713356 271.779016 
L 186.098057 271.153403 
L 186.752042 270.944866 
L 186.752042 270.736328 
L 188.170974 270.038181 
L 188.210263 269.802443 
L 188.789401 269.566705 
L 188.789401 269.330967 
L 189.146889 269.095229 
L 189.190955 268.605619 
L 189.738115 268.152276 
L 190.336858 267.907471 
L 190.419258 267.435995 
L 190.85468 266.746915 
L 190.948049 266.311706 
L 191.500062 266.112236 
L 191.508171 265.722361 
L 192.061072 265.133016 
L 193.149723 264.915412 
L 193.237105 264.68874 
L 194.91596 264.253532 
L 195.5932 264.044994 
L 195.5932 263.818323 
L 195.891785 263.609785 
L 196.399623 263.392181 
L 196.486442 262.947905 
L 196.573112 262.739368 
L 197.229282 262.33136 
L 197.539415 261.950552 
L 198.564402 261.760148 
L 198.564402 261.551611 
L 198.925626 261.343073 
L 199.957397 261.116402 
L 199.957397 260.907865 
L 200.158917 260.69026 
L 201.916214 260.273185 
L 201.97437 260.073714 
L 202.585744 259.692907 
L 202.985279 259.348367 
L 203.096012 259.16703 
L 203.634516 258.804356 
L 203.634516 258.623019 
L 204.220036 258.051807 
L 204.220036 257.852337 
L 204.372614 257.652866 
L 204.372614 257.462462 
L 206.070565 256.891251 
L 206.339704 256.682713 
L 206.889493 256.474176 
L 206.93506 256.038967 
L 207.963534 255.395221 
L 208.066911 254.742408 
L 209.698286 254.316266 
L 209.745292 254.107728 
L 209.910199 253.890124 
L 209.954055 253.436781 
L 210.242384 252.983439 
L 210.850853 251.550877 
L 211.420483 251.043133 
L 211.868512 250.789262 
L 212.092524 249.755641 
L 212.158903 249.492702 
L 212.402716 249.229764 
L 212.557828 248.703887 
L 212.844892 248.159876 
L 214.041859 247.044653 
L 214.041859 246.763581 
L 214.33616 246.491576 
L 215.370116 246.21957 
L 215.448205 245.720893 
L 217.541279 244.977412 
L 217.873973 244.505936 
L 218.262289 244.052593 
L 218.262289 243.825922 
L 218.381267 243.599251 
L 218.933058 243.145909 
L 220.49944 242.7379 
L 220.49944 242.53843 
L 221.178352 241.595477 
L 221.300959 241.0424 
L 221.309892 240.661592 
L 222.403453 239.872776 
L 222.435121 239.482902 
L 222.68292 239.292498 
L 222.970713 238.503682 
L 223.394142 237.941538 
L 223.686454 237.751134 
L 223.686454 237.56073 
L 224.812355 237.370326 
L 224.935419 236.989519 
L 226.864909 236.663112 
L 228.015863 236.508976 
L 228.386715 236.336705 
L 228.412548 236.019366 
L 228.784394 235.683892 
L 228.890639 235.185216 
L 229.14728 234.677472 
L 229.156346 234.341999 
L 229.377382 234.024659 
L 229.392305 233.308378 
L 229.650943 232.719033 
L 229.733697 231.74888 
L 230.287644 231.359006 
L 230.287644 231.168602 
L 231.309897 230.198449 
L 232.221145 229.745107 
L 232.861111 229.273631 
L 232.950513 228.938157 
L 233.61896 228.321611 
L 233.61896 228.158408 
L 233.956687 227.995205 
L 233.966842 227.650665 
L 234.281341 227.106654 
L 234.359533 226.39944 
L 234.47691 226.045833 
L 234.585735 225.692225 
L 234.685697 224.685805 
L 234.72025 224.368466 
L 234.905976 224.087393 
L 235.537849 223.343912 
L 235.725684 222.91777 
L 236.105964 222.636698 
L 236.723018 222.346558 
L 237.271289 222.020152 
L 237.271289 221.875082 
L 240.524786 220.868662 
L 240.888204 220.134247 
L 241.217302 219.989178 
L 241.247243 219.363565 
L 241.500796 219.200362 
L 241.500796 219.046226 
L 242.730531 218.60195 
L 242.907727 218.057939 
L 242.970575 217.7678 
L 243.458304 216.434973 
L 244.350996 215.818428 
L 244.643653 214.503735 
L 244.920777 213.932523 
L 245.169362 213.660518 
L 245.548451 213.542649 
L 245.548451 213.415713 
L 246.80993 212.835434 
L 246.900334 212.635964 
L 247.013099 212.418359 
L 247.176017 211.95595 
L 247.221376 211.774613 
L 247.817392 211.493541 
L 247.817392 211.43914 
L 249.840655 211.040198 
L 250.146595 210.94953 
L 250.649988 210.786327 
L 251.047337 210.45992 
L 251.54323 210.296717 
L 251.593878 210.206048 
L 252.196639 210.070046 
L 252.402204 209.934043 
L 252.806261 209.743639 
L 253.715757 209.362831 
L 253.71885 209.199628 
L 254.124469 208.93669 
L 254.124469 208.818821 
L 255.028944 208.537748 
L 255.028944 208.44708 
L 255.675714 208.048138 
L 255.675714 207.948403 
L 256.221604 207.250256 
L 256.231186 207.014518 
L 257.279603 206.63371 
L 258.302534 204.312597 
L 258.905445 203.378712 
L 259.032522 202.172821 
L 259.548503 201.583476 
L 259.71438 201.229868 
L 259.956956 200.903462 
L 260.144421 200.033044 
L 260.584142 199.516234 
L 260.763271 199.389298 
L 261.105672 198.836221 
L 261.421085 198.391945 
L 261.573029 198.011137 
L 261.658374 197.594062 
L 262.106259 196.261236 
L 262.3227 196.025498 
L 263.205548 193.468646 
L 264.013854 192.716098 
L 264.195473 192.190221 
L 264.920718 191.800346 
L 265.226788 191.401405 
L 265.654663 191.029664 
L 266.232386 190.195514 
L 266.843652 189.83284 
L 267.161917 189.189094 
L 267.289661 188.762952 
L 267.765197 188.391211 
L 267.851343 187.856267 
L 268.179339 187.466393 
L 268.247171 187.275989 
L 268.349242 187.003983 
L 268.349242 186.904248 
L 268.532172 186.659443 
L 268.620522 186.35117 
L 268.830779 186.1517 
L 269.051382 185.625822 
L 269.066521 185.507953 
L 269.31971 185.399151 
L 269.31971 185.272215 
L 269.924935 184.737271 
L 269.989786 184.311129 
L 270.186691 184.156993 
L 270.234912 183.703651 
L 270.629101 183.105239 
L 270.713219 182.570295 
L 271.090044 182.334556 
L 271.167348 182.098818 
L 271.640603 181.174 
L 271.721303 180.765992 
L 272.014568 180.33985 
L 272.118203 179.877441 
L 272.183564 179.551034 
L 272.627232 178.589948 
L 272.985402 178.281675 
L 273.520227 177.719531 
L 274.070811 176.867247 
L 274.20706 176.667776 
L 274.372624 175.443752 
L 275.159116 175.072011 
L 275.819579 174.528 
L 275.880483 173.829853 
L 276.21382 173.37651 
L 276.245507 172.814366 
L 276.70143 172.324756 
L 276.796497 171.526873 
L 276.849013 171.245801 
L 276.971002 171.091664 
L 277.27459 170.87406 
L 277.394862 170.574854 
L 277.69049 170.438851 
L 278.719057 170.094311 
L 278.824021 169.586568 
L 279.103283 169.251094 
L 279.601317 168.870287 
L 279.634078 168.435078 
L 280.046427 168.126805 
L 280.048045 168.02707 
L 280.554656 167.809465 
L 281.016204 167.165719 
L 281.236809 166.485705 
L 281.466638 166.286235 
L 281.536144 165.941695 
L 281.635991 165.06221 
L 281.799767 164.309662 
L 281.838475 164.110191 
L 282.596289 163.484579 
L 282.925077 162.895234 
L 283.047908 162.260554 
L 283.575076 161.743744 
L 283.80384 161.272268 
L 283.952765 160.682923 
L 284.883956 160.311182 
L 285.068146 160.157045 
L 285.189223 159.930374 
L 285.575267 159.087157 
L 286.238451 156.512172 
L 286.987655 156.249234 
L 287.074518 155.931894 
L 287.902791 154.744137 
L 288.481356 154.100391 
L 289.192507 152.767564 
L 289.311635 152.051283 
L 289.558881 151.090197 
L 289.558881 150.963261 
L 289.966909 150.528052 
L 290.355678 149.331228 
L 290.452014 148.886953 
L 290.944033 148.08907 
L 290.970593 147.817065 
L 291.558684 147.25492 
L 291.649745 146.819711 
L 291.824934 146.602107 
L 291.962883 146.203166 
L 292.544384 145.205812 
L 292.681045 144.716203 
L 292.732878 144.471398 
L 294.696459 143.147638 
L 294.732073 143.038836 
L 295.069074 142.775897 
L 295.334682 142.494825 
L 295.334682 142.494825 
L 295.753868 142.531092 
L 295.818554 142.621761 
L 296.047649 142.512958 
L 296.158332 142.141218 
L 296.41669 141.93268 
L 296.563681 141.58814 
L 296.890429 141.361469 
L 297.040682 141.116664 
L 297.366677 140.255313 
L 297.969747 139.829171 
L 298.069579 139.022222 
L 298.263045 138.460077 
L 298.751485 138.015802 
L 298.843013 137.825398 
L 299.339577 137.208852 
L 299.590162 136.918713 
L 300.050302 136.574173 
L 300.685342 135.676555 
L 301.454418 135.205079 
L 301.564695 135.023742 
L 301.795693 134.461597 
L 301.867321 134.117057 
L 302.40859 133.074369 
L 302.431705 132.9293 
L 303.1433 132.766096 
L 303.401644 132.63916 
L 303.712818 131.886612 
L 304.057687 131.451403 
L 304.610723 129.220959 
L 304.914734 128.840151 
L 305.388694 126.519038 
L 305.994722 126.101963 
L 306.365345 124.587799 
L 306.426722 124.324861 
L 306.654587 123.78085 
L 307.154036 123.064569 
L 307.304372 122.774429 
L 307.832762 122.176017 
L 308.131601 121.768009 
L 308.484574 121.142397 
L 308.699552 119.972773 
L 309.108972 119.365294 
L 309.273193 119.075155 
L 309.594589 118.531144 
L 311.77392 116.899112 
L 312.004671 116.12843 
L 312.061911 116.001494 
L 312.488829 115.384948 
L 312.563731 115.239878 
L 313.115336 114.750269 
L 313.504382 113.462776 
L 314.221886 112.338487 
L 314.463992 111.767276 
L 314.636013 111.522471 
L 314.825649 111.286733 
L 314.956264 110.960326 
L 315.351428 109.736301 
L 315.352096 109.672834 
L 316.796372 109.119756 
L 316.914266 108.865884 
L 317.205216 107.288252 
L 317.313375 107.079715 
L 317.415178 106.635439 
L 317.635798 106.245565 
L 317.969008 105.592752 
L 318.272905 105.003407 
L 318.332483 104.813003 
L 318.412918 104.404995 
L 318.709683 104.178323 
L 318.863994 103.951652 
L 319.018403 103.271639 
L 319.127841 102.999633 
L 319.707772 102.02948 
L 320.20363 101.703074 
L 320.319411 101.3404 
L 320.730844 101.02306 
L 320.9088 100.905191 
L 322.143838 100.279579 
L 322.648041 99.726501 
L 322.799091 99.427295 
L 323.081152 98.565944 
L 323.558339 97.795262 
L 324.016824 97.387254 
L 324.311789 96.825109 
L 324.431485 96.607505 
L 324.49644 96.408034 
L 324.971044 95.800556 
L 325.655074 94.857603 
L 325.713052 94.667199 
L 325.788373 94.558397 
L 326.857161 94.050654 
L 328.615825 94.00532 
L 328.616024 94.014386 
L 328.616024 94.041587 
L 328.711685 94.041587 
L 329.049408 94.141322 
L 329.184732 94.213857 
L 329.908786 94.404261 
L 331.652631 94.6944 
L 332.040882 94.594665 
L 332.269695 94.141322 
L 332.564933 93.34344 
L 332.692151 93.0261 
L 332.889356 92.871963 
L 332.923229 92.935431 
L 333.196004 92.871963 
L 333.196004 92.835696 
L 333.301366 92.581824 
L 333.409145 92.355153 
L 333.749028 92.119415 
L 333.832814 91.929011 
L 334.290303 90.931658 
L 334.454668 90.17911 
L 334.695003 89.254291 
L 334.80419 88.773748 
L 335.246921 88.53801 
L 335.630076 88.347606 
L 335.778041 88.084668 
L 336.099562 86.615838 
L 336.50114 85.001939 
L 336.83385 83.995519 
L 337.026321 83.73258 
L 337.32735 81.982679 
L 337.510222 81.846676 
L 338.291065 81.511202 
L 338.400018 81.193863 
L 338.560302 80.849323 
L 338.635212 80.631718 
L 338.896232 79.788501 
L 339.362713 79.41676 
L 340.071838 78.337806 
L 342.148643 77.40392 
L 342.619592 77.131915 
L 342.718167 76.91431 
L 342.915644 76.615104 
L 343.092436 76.297765 
L 343.177143 76.161762 
L 343.361216 75.88069 
L 343.634082 75.780954 
L 343.791034 75.110007 
L 344.154366 74.520662 
L 344.507506 74.366526 
L 345.322171 73.731847 
L 345.388257 73.396373 
L 345.523907 72.797961 
L 345.824988 72.580357 
L 346.8528 72.589424 
L 347.153681 72.870496 
L 347.163248 72.852362 
L 347.98766 71.465134 
L 348.845856 70.939257 
L 348.869 70.766987 
L 348.975689 70.540316 
L 349.577582 69.642698 
L 349.908882 69.171222 
L 350.498433 68.654411 
L 351.49288 66.197296 
L 351.937251 65.834622 
L 352.249138 65.181809 
L 353.436549 62.90603 
L 353.436549 62.90603 
L 353.928991 63.014832 
L 354.86294 63.023899 
L 355.153493 62.869762 
L 355.301675 62.235083 
L 355.432331 61.917743 
L 355.540665 61.527869 
L 355.726201 61.210529 
L 355.774206 61.047326 
L 355.822166 61.237729 
L 356.632695 61.863342 
L 357.211229 61.75454 
L 357.811818 61.283064 
L 358.160433 60.94759 
L 358.706818 60.838788 
L 358.816229 60.757187 
L 359.266502 60.249443 
L 361.049385 60.059039 
L 361.38681 60.013705 
L 361.689174 59.678232 
L 361.832803 58.145934 
L 362.147737 56.522968 
L 362.741642 56.006158 
L 363.440442 54.782133 
L 364.700847 54.455727 
L 364.831784 53.947983 
L 365.076434 53.530908 
L 365.768679 52.334084 
L 366.26409 51.545269 
L 366.389929 50.992191 
L 366.412721 51.100993 
L 366.503734 51.445533 
L 366.552667 51.30953 
L 366.747441 51.055659 
L 367.051017 50.556982 
L 367.248905 49.813501 
L 367.364535 49.922303 
L 367.394371 50.076439 
L 367.450046 49.740966 
L 367.651293 49.278556 
L 368.455891 48.707345 
L 368.560893 48.399072 
L 368.807512 48.009198 
L 369.184806 47.818794 
L 370.56263 47.709992 
L 370.930301 47.510521 
L 371.735648 47.365451 
L 373.140349 47.256649 
L 373.216532 47.229449 
L 373.595729 47.039045 
L 373.682916 46.848641 
L 373.906197 45.543015 
L 374.922873 45.434213 
L 375.186741 45.216608 
L 376.245117 44.509394 
L 376.733338 44.337124 
L 377.814134 44.192055 
L 382.722369 44.29179 
L 383.403955 44.763266 
L 383.560443 45.098739 
L 383.588008 45.044338 
L 383.917029 44.627263 
L 385.082419 44.518461 
L 385.216906 44.228322 
L 385.350389 43.983517 
L 385.600137 44.092319 
L 385.882231 44.192055 
L 386.431415 44.083252 
L 386.876094 43.838447 
L 387.426386 43.738712 
L 393.159282 43.62991 
L 393.699067 43.330704 
L 393.897571 43.28537 
L 395.221775 43.176567 
L 395.625393 42.913629 
L 396.51219 42.360551 
L 396.642077 42.006944 
L 396.766837 41.925342 
L 396.831995 41.81654 
L 396.982617 41.544535 
L 397.193748 41.472 
L 398.283923 41.472 
L 398.48178 174.528 
L -1 174.546085 
L -1 174.546085 
" clip-path="url(#pdf841ce56d)" style="fill: none; stroke-dasharray: 1.85,0.8; stroke-dashoffset: 0; stroke: #8000ff; stroke-width: 0.5"/>
   </g>
   <g id="line2d_36">
    <path d="M 93.699465 298.517152 
L 96.498772 298.190745 
L 96.498772 297.864339 
L 98.099937 297.537932 
L 98.73804 297.211525 
L 102.103401 296.885119 
L 102.915278 296.558712 
L 111.111984 296.232306 
L 112.504858 295.905899 
L 112.504858 295.579493 
L 112.837714 295.253086 
L 117.287235 294.935747 
L 117.287235 294.618407 
L 120.725916 294.301067 
L 121.702402 293.702655 
L 125.81417 293.140511 
L 127.045277 292.614633 
L 128.833235 292.351695 
L 128.833235 292.088756 
L 130.10607 291.843951 
L 132.123543 291.599146 
L 133.083562 291.345275 
L 133.405452 291.091403 
L 134.394014 290.837531 
L 137.433664 290.565526 
L 138.890461 290.29352 
L 139.050189 290.021515 
L 140.097121 289.495637 
L 142.087649 289.250833 
L 143.235827 288.48015 
L 147.859444 287.93614 
L 148.661016 287.673201 
L 148.661016 287.401196 
L 151.545793 287.12919 
L 151.545793 286.866251 
L 152.963189 286.603313 
L 152.963189 286.340374 
L 153.391662 286.077436 
L 153.391662 285.832631 
L 153.523179 285.569692 
L 153.523179 285.306754 
L 153.752686 285.052882 
L 153.752686 284.79901 
L 154.237206 284.300333 
L 156.550769 284.055528 
L 157.556883 283.810724 
L 157.744528 283.565919 
L 158.221001 283.339247 
L 158.221001 283.121643 
L 162.324546 282.686434 
L 162.45636 282.269359 
L 163.696965 281.888552 
L 163.696965 281.698148 
L 164.153601 281.48961 
L 164.981498 281.281073 
L 165.473016 280.582926 
L 165.920028 280.338121 
L 165.920028 280.075182 
L 166.185815 279.830377 
L 169.557605 279.567439 
L 172.160715 279.050628 
L 172.784022 278.261812 
L 172.868651 277.49113 
L 173.719637 276.956186 
L 173.83209 276.702314 
L 174.531865 276.448443 
L 174.531865 275.958833 
L 174.821282 275.723095 
L 176.046108 275.469223 
L 176.270171 274.734808 
L 177.018794 274.490003 
L 179.307299 274.245199 
L 179.855512 274.000394 
L 179.901064 273.49265 
L 180.366834 273.247845 
L 180.494592 272.48623 
L 183.365695 272.241425 
L 185.080984 271.751815 
L 185.102784 271.280339 
L 185.451612 271.035534 
L 185.453823 270.545924 
L 185.982707 270.301119 
L 186.119775 270.038181 
L 186.119775 269.757109 
L 186.23603 269.49417 
L 189.099858 268.034407 
L 190.228284 267.807736 
L 190.381511 267.100522 
L 195.444354 266.619979 
L 195.478139 266.166637 
L 195.906883 265.958099 
L 197.084965 265.749562 
L 197.084965 265.541024 
L 197.837249 265.096748 
L 198.660665 264.643406 
L 198.701858 264.407668 
L 199.19656 263.936192 
L 199.19656 263.709521 
L 201.138343 262.839103 
L 201.351002 262.231624 
L 201.593372 261.850817 
L 203.275537 261.288672 
L 203.275537 261.125469 
L 203.562715 260.944132 
L 203.659637 260.581458 
L 203.873654 260.381987 
L 204.053618 259.973979 
L 204.197686 259.783575 
L 204.896383 259.593172 
L 204.948331 259.420901 
L 205.671766 259.094495 
L 205.704085 258.550484 
L 206.163475 257.825136 
L 206.227394 257.444328 
L 207.108778 257.253925 
L 207.400493 257.072588 
L 207.400493 256.882184 
L 207.61885 256.69178 
L 207.61885 256.501376 
L 207.965936 256.310972 
L 208.082254 256.102435 
L 208.585167 255.893897 
L 208.696554 255.51309 
L 208.891927 255.313619 
L 208.891927 255.114148 
L 209.1934 254.524803 
L 209.264632 254.125862 
L 209.853164 253.482116 
L 209.894319 253.028773 
L 210.951888 252.330626 
L 211.117339 252.085821 
L 211.117339 251.841016 
L 211.89345 251.578078 
L 211.927743 251.034067 
L 213.081261 250.490056 
L 213.309081 250.227117 
L 213.309081 249.964179 
L 213.957438 249.474569 
L 214.347573 249.229764 
L 214.434479 248.994026 
L 215.08518 248.740154 
L 215.115619 248.223344 
L 215.56262 247.960405 
L 215.639741 247.7156 
L 216.71182 247.008386 
L 216.71182 246.790782 
L 217.219879 246.582244 
L 217.301149 246.165169 
L 217.729927 245.748094 
L 218.471699 245.122481 
L 219.40348 244.904877 
L 219.40348 244.687273 
L 220.667879 244.242997 
L 220.768449 243.599251 
L 221.379031 242.520296 
L 222.273303 242.184823 
L 222.322969 241.368806 
L 224.467231 240.344252 
L 224.617157 239.999712 
L 224.965783 239.89091 
L 224.965783 239.773041 
L 225.304437 239.57357 
L 225.375379 239.392233 
L 226.181648 239.165562 
L 227.307866 238.594351 
L 227.307866 238.431147 
L 227.421194 238.286078 
L 228.094749 237.977805 
L 228.094749 237.814602 
L 228.268266 237.660465 
L 228.302421 237.234323 
L 229.358022 236.844449 
L 229.417649 236.354839 
L 229.762143 236.20977 
L 229.852106 235.928697 
L 229.917649 235.792695 
L 230.610697 235.529756 
L 230.623833 235.393753 
L 231.113714 235.103614 
L 231.358088 234.940411 
L 231.358088 234.795341 
L 231.518007 234.523336 
L 231.574234 234.25133 
L 231.894098 234.097194 
L 231.894098 233.924924 
L 232.678403 233.625718 
L 232.678403 233.480648 
L 233.509572 233.353712 
L 233.509572 233.208643 
L 233.764316 233.045439 
L 233.853007 232.573963 
L 236.444187 232.057153 
L 236.444187 231.903017 
L 236.923164 231.612877 
L 237.56542 231.213936 
L 237.636715 230.932864 
L 237.878069 230.42512 
L 238.218352 230.280051 
L 238.218352 230.008045 
L 238.786303 229.872043 
L 238.825027 229.581903 
L 239.047723 229.445901 
L 239.069357 229.137628 
L 239.257252 228.856556 
L 239.373002 227.668798 
L 239.666274 227.26079 
L 240.026348 226.381306 
L 240.057499 226.036766 
L 240.250303 225.855429 
L 240.275354 225.148215 
L 241.115318 224.622337 
L 241.566572 223.951391 
L 241.674588 222.94497 
L 241.89717 222.419093 
L 241.938552 222.056419 
L 242.640088 221.566809 
L 242.664475 221.240403 
L 242.939736 220.923063 
L 243.192863 220.288384 
L 243.737586 219.535835 
L 244.224054 219.236629 
L 244.799814 218.94649 
L 244.906302 218.076073 
L 250.075199 217.078719 
L 250.714107 215.628024 
L 250.910976 215.247216 
L 251.131082 214.231729 
L 251.414869 214.086659 
L 251.460442 213.805587 
L 251.649911 213.261576 
L 251.649911 213.13464 
L 251.829684 212.998638 
L 251.926026 212.726632 
L 252.309688 212.064752 
L 252.309688 211.937816 
L 252.805402 211.602343 
L 252.805402 211.493541 
L 253.194224 211.158067 
L 253.276781 210.759126 
L 253.505307 209.734572 
L 253.505307 209.59857 
L 253.747857 209.471634 
L 253.856131 208.954823 
L 254.071977 208.546815 
L 254.080912 208.27481 
L 254.375182 208.138807 
L 254.38026 207.748932 
L 254.547697 207.495061 
L 254.655102 207.232122 
L 254.70043 207.105186 
L 256.531917 206.733445 
L 256.609363 206.352638 
L 256.977294 205.980897 
L 257.161249 205.273683 
L 257.407874 205.128613 
L 257.493136 204.856608 
L 257.679488 204.729672 
L 257.779036 204.457667 
L 258.033276 204.203795 
L 258.337917 202.95257 
L 259.334588 202.354158 
L 259.43576 201.674144 
L 259.558728 200.921596 
L 259.785871 200.468253 
L 260.158915 199.797306 
L 260.159525 199.64317 
L 260.433455 199.135427 
L 260.563527 198.065538 
L 260.685 197.702864 
L 261.06838 196.805246 
L 261.081354 196.433506 
L 261.561526 195.853227 
L 261.601786 194.864941 
L 261.977235 194.266529 
L 262.054725 193.867588 
L 262.263961 193.332644 
L 262.445866 193.178507 
L 262.53541 192.289956 
L 262.774458 191.492073 
L 262.91334 191.201934 
L 263.500013 190.784859 
L 263.600833 190.141113 
L 263.890282 189.796573 
L 264.114688 188.409345 
L 264.298413 187.983203 
L 264.979903 185.725558 
L 265.172768 185.290349 
L 265.351583 184.592202 
L 265.413878 184.184194 
L 266.657458 183.894054 
L 267.079285 183.078038 
L 267.108156 182.688164 
L 267.370656 182.334556 
L 267.62994 181.917481 
L 267.83784 181.727078 
L 268.118886 181.083331 
L 268.352995 180.639056 
L 268.984327 179.04329 
L 269.056877 178.762218 
L 269.319036 178.154739 
L 269.656934 178.000603 
L 269.943354 177.211787 
L 270.442422 175.752025 
L 270.478252 175.208014 
L 270.720526 175.062944 
L 270.79678 174.600535 
L 271.676654 172.732764 
L 272.155228 172.442625 
L 272.337025 172.116218 
L 272.92343 171.699143 
L 273.008668 171.499673 
L 273.124378 171.100731 
L 273.186459 170.910327 
L 273.27008 170.35725 
L 274.138729 167.691596 
L 274.483451 166.676109 
L 274.936612 166.168366 
L 275.157473 165.297948 
L 275.393327 165.125678 
L 275.416274 164.853673 
L 275.663248 164.645135 
L 275.814432 163.412044 
L 276.004268 163.067504 
L 276.308448 161.843479 
L 276.394949 161.689343 
L 276.472914 161.517073 
L 276.789316 160.619455 
L 276.789316 160.555987 
L 276.973809 160.347449 
L 277.709332 159.023689 
L 277.870284 157.663662 
L 277.993582 157.373523 
L 278.066076 156.684442 
L 278.496186 155.859359 
L 279.012435 154.689736 
L 279.122844 154.027856 
L 279.642357 152.459291 
L 280.093 152.051283 
L 280.288581 151.924347 
L 280.45298 151.788344 
L 280.592582 151.42567 
L 280.880025 150.990462 
L 281.498857 150.491785 
L 281.603408 150.129111 
L 281.99025 149.657635 
L 282.168508 149.059223 
L 282.664992 148.551479 
L 282.839572 148.043736 
L 283.105088 147.608527 
L 283.105088 147.554126 
L 283.902726 147.263987 
L 283.904911 147.08265 
L 284.08517 146.919447 
L 284.163154 146.665575 
L 284.33684 146.293834 
L 284.400534 145.876759 
L 284.644074 145.613821 
L 284.682169 145.477818 
L 284.977458 145.196745 
L 284.981782 145.078876 
L 285.337003 144.879406 
L 285.370376 144.598333 
L 285.675285 144.317261 
L 285.785537 144.036189 
L 285.810856 143.872986 
L 286.27483 143.474044 
L 286.362857 143.183905 
L 286.709847 142.648961 
L 287.770024 141.751343 
L 287.998006 140.998795 
L 288.22157 140.445717 
L 288.699585 140.237179 
L 288.953847 139.801971 
L 289.329612 138.886219 
L 289.673605 137.498991 
L 290.172728 136.746443 
L 290.484512 136.274967 
L 290.484512 136.193365 
L 290.634514 136.012028 
L 290.855258 135.45895 
L 291.10857 134.706402 
L 291.298363 134.352795 
L 291.410569 133.981054 
L 291.772039 132.648227 
L 293.075315 129.556432 
L 293.436294 128.885485 
L 293.543893 128.305207 
L 293.686417 127.915332 
L 294.152603 126.609706 
L 294.259709 126.092896 
L 294.697098 125.929693 
L 295.368263 125.79369 
L 295.519327 125.539818 
L 296.251551 125.041142 
L 296.404859 124.714735 
L 296.638844 124.388328 
L 297.217333 124.016588 
L 297.980114 123.662981 
L 298.459027 122.529625 
L 298.54279 122.239485 
L 298.696449 121.840544 
L 298.82561 121.550405 
L 298.964386 120.96106 
L 299.179395 120.217578 
L 299.403496 119.764236 
L 299.505204 119.501297 
L 299.797952 119.084222 
L 299.882248 118.748749 
L 300.122502 118.304473 
L 300.660446 117.832997 
L 300.766903 117.406855 
L 300.827857 117.207385 
L 300.837369 117.053248 
L 301.639529 116.754042 
L 301.901399 116.391368 
L 301.901399 116.346034 
L 302.443373 115.992427 
L 302.540531 115.647887 
L 302.84499 115.049475 
L 303.315414 114.6324 
L 303.810495 114.251592 
L 303.906823 113.580645 
L 304.02842 113.109169 
L 304.055866 112.664893 
L 305.198748 112.093682 
L 305.272921 111.903278 
L 305.471398 111.15073 
L 305.876469 110.670187 
L 306.151401 110.443516 
L 306.740842 110.008307 
L 307.820521 109.219491 
L 307.941593 108.974686 
L 309.04836 108.412542 
L 309.422145 108.149603 
L 310.135811 108.004533 
L 310.536994 107.904798 
L 310.793524 107.569325 
L 311.304578 106.898378 
L 311.516855 106.698907 
L 311.529841 106.508503 
L 311.80252 106.290899 
L 311.863093 106.073295 
L 312.14672 104.785802 
L 312.233575 104.640733 
L 312.338981 104.305259 
L 312.526642 103.924452 
L 312.620498 103.67058 
L 313.096012 102.809229 
L 313.215114 102.537224 
L 313.587132 102.292419 
L 313.857609 101.585205 
L 314.07595 101.276932 
L 314.084055 101.222531 
L 315.177293 100.751055 
L 315.290599 99.989439 
L 316.269507 99.454495 
L 316.463933 99.273158 
L 318.099621 98.611279 
L 318.711377 97.468856 
L 319.377102 97.006446 
L 319.611228 96.163229 
L 319.755764 95.891224 
L 319.979834 95.084274 
L 320.229331 94.476796 
L 320.3127 94.041587 
L 320.840802 93.642646 
L 321.124575 93.425041 
L 321.179612 93.334373 
L 321.21627 93.34344 
L 321.970907 93.570111 
L 321.975232 93.479442 
L 322.102472 93.017033 
L 322.364149 92.527423 
L 322.559613 91.521003 
L 322.671924 91.18553 
L 322.822271 90.786588 
L 323.131911 89.607898 
L 323.255968 88.737481 
L 324.393744 88.0212 
L 324.616232 87.658526 
L 325.005576 87.196116 
L 326.292909 86.915044 
L 326.788205 86.615838 
L 326.914346 86.352899 
L 327.005068 85.963025 
L 327.256219 85.310212 
L 327.399795 84.303792 
L 327.593368 83.333639 
L 328.00007 82.481355 
L 328.919175 81.520269 
L 329.004974 81.3752 
L 330.952887 80.332512 
L 331.195703 79.181022 
L 331.703987 77.993265 
L 332.455629 77.884463 
L 332.683143 77.621524 
L 332.844606 77.412987 
L 333.149124 76.551636 
L 333.250294 75.699353 
L 333.782059 75.137208 
L 333.890223 75.463615 
L 334.085216 75.59055 
L 334.379718 75.481748 
L 334.483282 75.382013 
L 334.53105 75.236943 
L 334.657829 75.010272 
L 334.872792 74.765467 
L 335.043948 74.185189 
L 335.516661 73.777181 
L 336.075966 73.668379 
L 336.166127 73.632111 
L 336.525166 73.523309 
L 336.862914 73.360106 
L 337.869432 72.797961 
L 338.809743 71.981945 
L 338.958144 71.664605 
L 339.591043 70.603784 
L 340.102056 69.633631 
L 340.318832 69.225623 
L 340.514202 68.799481 
L 341.160282 68.273604 
L 342.131967 67.93813 
L 342.924147 67.702392 
L 343.47594 67.24905 
L 344.546229 66.09756 
L 344.814538 65.626084 
L 345.169408 65.444747 
L 345.909135 65.027672 
L 346.439737 64.021252 
L 346.562995 63.76738 
L 347.080648 62.062813 
L 347.183324 62.171615 
L 347.239241 62.153481 
L 347.267176 62.09908 
L 347.451194 61.518802 
L 347.557889 60.757187 
L 348.447578 60.512382 
L 348.799403 60.548649 
L 349.151078 60.448914 
L 349.443025 60.131574 
L 349.62226 59.986504 
L 349.636021 59.995571 
L 349.917776 60.303844 
L 349.950313 60.485181 
L 350.009417 60.131574 
L 350.138305 59.904903 
L 350.33524 59.632897 
L 350.44531 59.324624 
L 350.555046 58.744346 
L 351.227974 57.855795 
L 352.177996 57.384319 
L 352.456648 57.12138 
L 352.591946 56.74964 
L 352.647396 56.577369 
L 352.952629 55.525615 
L 353.093674 55.42588 
L 353.400977 54.609863 
L 353.808544 54.510128 
L 353.808544 54.501061 
L 354.413613 54.310657 
L 354.520541 53.648777 
L 354.703013 53.041299 
L 354.765374 52.279683 
L 354.819053 52.325018 
L 355.001138 52.615157 
L 355.216544 53.240769 
L 356.300171 53.131967 
L 356.824355 52.442887 
L 357.008242 51.255129 
L 357.127628 51.001258 
L 357.485069 50.96499 
L 357.805321 51.817274 
L 358.217054 52.270616 
L 358.728013 51.889809 
L 359.00763 50.974057 
L 359.131164 50.366578 
L 359.380922 50.203375 
L 359.836908 49.867902 
L 361.272131 49.976704 
L 362.820132 50.085506 
L 369.195395 49.985771 
L 370.198665 49.550562 
L 370.489699 49.351091 
L 371.065636 49.097219 
L 371.645536 49.015618 
L 371.730642 49.042818 
L 371.754257 48.997484 
L 372.018116 48.716412 
L 372.401574 48.825214 
L 372.818777 48.997484 
L 373.24476 48.888682 
L 373.678207 48.725479 
L 374.107954 48.616677 
L 374.36029 48.308404 
L 374.651654 47.247582 
L 375.293429 46.014491 
L 375.412624 46.005424 
L 375.803284 45.896622 
L 375.969975 45.733419 
L 376.933633 45.552082 
L 382.018902 45.44328 
L 382.138614 45.289143 
L 382.484497 44.835801 
L 383.613341 44.645397 
L 385.932443 44.536595 
L 386.0708 43.738712 
L 386.948688 43.62991 
L 387.410589 42.832027 
L 388.125126 42.723225 
L 388.340373 42.378685 
L 390.867519 42.47842 
L 391.428635 43.738712 
L 391.83104 43.62991 
L 392.321902 43.28537 
L 392.481733 43.176567 
L 392.80383 42.904562 
L 393.207246 42.523754 
L 393.346435 42.369618 
L 397.591142 42.378685 
L 398.48055 174.981342 
L -1 174.999365 
L -1 174.999365 
" clip-path="url(#pdf841ce56d)" style="fill: none; stroke-dasharray: 1.85,0.8; stroke-dashoffset: 0; stroke: #8000ff; stroke-width: 0.5"/>
   </g>
   <g id="patch_3">
    <path d="M 57.6 307.584 
L 57.6 41.472 
" style="fill: none; stroke: #000000; stroke-width: 0.8; stroke-linejoin: miter; stroke-linecap: square"/>
   </g>
   <g id="patch_4">
    <path d="M 414.72 307.584 
L 414.72 41.472 
" style="fill: none; stroke: #000000; stroke-width: 0.8; stroke-linejoin: miter; stroke-linecap: square"/>
   </g>
   <g id="patch_5">
    <path d="M 57.6 307.584 
L 414.72 307.584 
" style="fill: none; stroke: #000000; stroke-width: 0.8; stroke-linejoin: miter; stroke-linecap: square"/>
   </g>
   <g id="patch_6">
    <path d="M 57.6 41.472 
L 414.72 41.472 
" style="fill: none; stroke: #000000; stroke-width: 0.8; stroke-linejoin: miter; stroke-linecap: square"/>
   </g>
   <g id="legend_1">
    <g id="patch_7">
     <path d="M 314.584 81.0832 
L 318.584 81.0832 
Q 320.584 81.0832 320.584 79.0832 
L 320.584 75.0832 
Q 320.584 73.0832 318.584 73.0832 
L 314.584 73.0832 
Q 312.584 73.0832 312.584 75.0832 
L 312.584 79.0832 
Q 312.584 81.0832 314.584 81.0832 
z
" style="fill: #ffffff; opacity: 0.8; stroke: #cccccc; stroke-linejoin: miter"/>
    </g>
   </g>
  </g>
 </g>
 <defs>
  <clipPath id="pdf841ce56d">
   <rect x="57.6" y="41.472" width="357.12" height="266.112"/>
  </clipPath>
 </defs>
</svg>
