<?xml version="1.0" encoding="utf-8" standalone="no"?>
<!DOCTYPE svg PUBLIC "-//W3C//DTD SVG 1.1//EN"
  "http://www.w3.org/Graphics/SVG/1.1/DTD/svg11.dtd">
<svg xmlns:xlink="http://www.w3.org/1999/xlink" width="460.8pt" height="345.6pt" viewBox="0 0 460.8 345.6" xmlns="http://www.w3.org/2000/svg" version="1.1">
 <metadata>
  <rdf:RDF xmlns:dc="http://purl.org/dc/elements/1.1/" xmlns:cc="http://creativecommons.org/ns#" xmlns:rdf="http://www.w3.org/1999/02/22-rdf-syntax-ns#">
   <cc:Work>
    <dc:type rdf:resource="http://purl.org/dc/dcmitype/StillImage"/>
    <dc:date>2025-03-26T12:12:29.471845</dc:date>
    <dc:format>image/svg+xml</dc:format>
    <dc:creator>
     <cc:Agent>
      <dc:title>Matplotlib v3.10.0, https://matplotlib.org/</dc:title>
     </cc:Agent>
    </dc:creator>
   </cc:Work>
  </rdf:RDF>
 </metadata>
 <defs>
  <style type="text/css">*{stroke-linejoin: round; stroke-linecap: butt}</style>
 </defs>
 <g id="figure_1">
  <g id="patch_1">
   <path d="M 0 345.6 
L 460.8 345.6 
L 460.8 0 
L 0 0 
z
" style="fill: #ffffff"/>
  </g>
  <g id="axes_1">
   <g id="patch_2">
    <path d="M 57.6 307.584 
L 414.72 307.584 
L 414.72 41.472 
L 57.6 41.472 
z
" style="fill: #ffffff"/>
   </g>
   <g id="matplotlib.axis_1">
    <g id="xtick_1">
     <g id="line2d_1">
      <path d="M 129.024 307.584 
L 129.024 41.472 
" clip-path="url(#p041ed7ac78)" style="fill: none; stroke: #b0b0b0; stroke-width: 0.8; stroke-linecap: square"/>
     </g>
     <g id="line2d_2">
      <defs>
       <path id="m4adc6bc047" d="M 0 0 
L 0 3.5 
" style="stroke: #000000; stroke-width: 0.8"/>
      </defs>
      <g>
       <use xlink:href="#m4adc6bc047" x="129.024" y="307.584" style="stroke: #000000; stroke-width: 0.8"/>
      </g>
     </g>
     <g id="text_1">
      <!-- 2e12 -->
      <g transform="translate(116.403688 322.182437) scale(0.1 -0.1)">
       <defs>
        <path id="DejaVuSans-32" d="M 1228 531 
L 3431 531 
L 3431 0 
L 469 0 
L 469 531 
Q 828 903 1448 1529 
Q 2069 2156 2228 2338 
Q 2531 2678 2651 2914 
Q 2772 3150 2772 3378 
Q 2772 3750 2511 3984 
Q 2250 4219 1831 4219 
Q 1534 4219 1204 4116 
Q 875 4013 500 3803 
L 500 4441 
Q 881 4594 1212 4672 
Q 1544 4750 1819 4750 
Q 2544 4750 2975 4387 
Q 3406 4025 3406 3419 
Q 3406 3131 3298 2873 
Q 3191 2616 2906 2266 
Q 2828 2175 2409 1742 
Q 1991 1309 1228 531 
z
" transform="scale(0.015625)"/>
        <path id="DejaVuSans-65" d="M 3597 1894 
L 3597 1613 
L 953 1613 
Q 991 1019 1311 708 
Q 1631 397 2203 397 
Q 2534 397 2845 478 
Q 3156 559 3463 722 
L 3463 178 
Q 3153 47 2828 -22 
Q 2503 -91 2169 -91 
Q 1331 -91 842 396 
Q 353 884 353 1716 
Q 353 2575 817 3079 
Q 1281 3584 2069 3584 
Q 2775 3584 3186 3129 
Q 3597 2675 3597 1894 
z
M 3022 2063 
Q 3016 2534 2758 2815 
Q 2500 3097 2075 3097 
Q 1594 3097 1305 2825 
Q 1016 2553 972 2059 
L 3022 2063 
z
" transform="scale(0.015625)"/>
        <path id="DejaVuSans-31" d="M 794 531 
L 1825 531 
L 1825 4091 
L 703 3866 
L 703 4441 
L 1819 4666 
L 2450 4666 
L 2450 531 
L 3481 531 
L 3481 0 
L 794 0 
L 794 531 
z
" transform="scale(0.015625)"/>
       </defs>
       <use xlink:href="#DejaVuSans-32"/>
       <use xlink:href="#DejaVuSans-65" transform="translate(63.623047 0)"/>
       <use xlink:href="#DejaVuSans-31" transform="translate(125.146484 0)"/>
       <use xlink:href="#DejaVuSans-32" transform="translate(188.769531 0)"/>
      </g>
     </g>
    </g>
    <g id="xtick_2">
     <g id="line2d_3">
      <path d="M 200.448 307.584 
L 200.448 41.472 
" clip-path="url(#p041ed7ac78)" style="fill: none; stroke: #b0b0b0; stroke-width: 0.8; stroke-linecap: square"/>
     </g>
     <g id="line2d_4">
      <g>
       <use xlink:href="#m4adc6bc047" x="200.448" y="307.584" style="stroke: #000000; stroke-width: 0.8"/>
      </g>
     </g>
     <g id="text_2">
      <!-- 4e12 -->
      <g transform="translate(187.827687 322.182437) scale(0.1 -0.1)">
       <defs>
        <path id="DejaVuSans-34" d="M 2419 4116 
L 825 1625 
L 2419 1625 
L 2419 4116 
z
M 2253 4666 
L 3047 4666 
L 3047 1625 
L 3713 1625 
L 3713 1100 
L 3047 1100 
L 3047 0 
L 2419 0 
L 2419 1100 
L 313 1100 
L 313 1709 
L 2253 4666 
z
" transform="scale(0.015625)"/>
       </defs>
       <use xlink:href="#DejaVuSans-34"/>
       <use xlink:href="#DejaVuSans-65" transform="translate(63.623047 0)"/>
       <use xlink:href="#DejaVuSans-31" transform="translate(125.146484 0)"/>
       <use xlink:href="#DejaVuSans-32" transform="translate(188.769531 0)"/>
      </g>
     </g>
    </g>
    <g id="xtick_3">
     <g id="line2d_5">
      <path d="M 271.872 307.584 
L 271.872 41.472 
" clip-path="url(#p041ed7ac78)" style="fill: none; stroke: #b0b0b0; stroke-width: 0.8; stroke-linecap: square"/>
     </g>
     <g id="line2d_6">
      <g>
       <use xlink:href="#m4adc6bc047" x="271.872" y="307.584" style="stroke: #000000; stroke-width: 0.8"/>
      </g>
     </g>
     <g id="text_3">
      <!-- 6e12 -->
      <g transform="translate(259.251688 322.182437) scale(0.1 -0.1)">
       <defs>
        <path id="DejaVuSans-36" d="M 2113 2584 
Q 1688 2584 1439 2293 
Q 1191 2003 1191 1497 
Q 1191 994 1439 701 
Q 1688 409 2113 409 
Q 2538 409 2786 701 
Q 3034 994 3034 1497 
Q 3034 2003 2786 2293 
Q 2538 2584 2113 2584 
z
M 3366 4563 
L 3366 3988 
Q 3128 4100 2886 4159 
Q 2644 4219 2406 4219 
Q 1781 4219 1451 3797 
Q 1122 3375 1075 2522 
Q 1259 2794 1537 2939 
Q 1816 3084 2150 3084 
Q 2853 3084 3261 2657 
Q 3669 2231 3669 1497 
Q 3669 778 3244 343 
Q 2819 -91 2113 -91 
Q 1303 -91 875 529 
Q 447 1150 447 2328 
Q 447 3434 972 4092 
Q 1497 4750 2381 4750 
Q 2619 4750 2861 4703 
Q 3103 4656 3366 4563 
z
" transform="scale(0.015625)"/>
       </defs>
       <use xlink:href="#DejaVuSans-36"/>
       <use xlink:href="#DejaVuSans-65" transform="translate(63.623047 0)"/>
       <use xlink:href="#DejaVuSans-31" transform="translate(125.146484 0)"/>
       <use xlink:href="#DejaVuSans-32" transform="translate(188.769531 0)"/>
      </g>
     </g>
    </g>
    <g id="xtick_4">
     <g id="line2d_7">
      <path d="M 343.296 307.584 
L 343.296 41.472 
" clip-path="url(#p041ed7ac78)" style="fill: none; stroke: #b0b0b0; stroke-width: 0.8; stroke-linecap: square"/>
     </g>
     <g id="line2d_8">
      <g>
       <use xlink:href="#m4adc6bc047" x="343.296" y="307.584" style="stroke: #000000; stroke-width: 0.8"/>
      </g>
     </g>
     <g id="text_4">
      <!-- 8e12 -->
      <g transform="translate(330.675688 322.182437) scale(0.1 -0.1)">
       <defs>
        <path id="DejaVuSans-38" d="M 2034 2216 
Q 1584 2216 1326 1975 
Q 1069 1734 1069 1313 
Q 1069 891 1326 650 
Q 1584 409 2034 409 
Q 2484 409 2743 651 
Q 3003 894 3003 1313 
Q 3003 1734 2745 1975 
Q 2488 2216 2034 2216 
z
M 1403 2484 
Q 997 2584 770 2862 
Q 544 3141 544 3541 
Q 544 4100 942 4425 
Q 1341 4750 2034 4750 
Q 2731 4750 3128 4425 
Q 3525 4100 3525 3541 
Q 3525 3141 3298 2862 
Q 3072 2584 2669 2484 
Q 3125 2378 3379 2068 
Q 3634 1759 3634 1313 
Q 3634 634 3220 271 
Q 2806 -91 2034 -91 
Q 1263 -91 848 271 
Q 434 634 434 1313 
Q 434 1759 690 2068 
Q 947 2378 1403 2484 
z
M 1172 3481 
Q 1172 3119 1398 2916 
Q 1625 2713 2034 2713 
Q 2441 2713 2670 2916 
Q 2900 3119 2900 3481 
Q 2900 3844 2670 4047 
Q 2441 4250 2034 4250 
Q 1625 4250 1398 4047 
Q 1172 3844 1172 3481 
z
" transform="scale(0.015625)"/>
       </defs>
       <use xlink:href="#DejaVuSans-38"/>
       <use xlink:href="#DejaVuSans-65" transform="translate(63.623047 0)"/>
       <use xlink:href="#DejaVuSans-31" transform="translate(125.146484 0)"/>
       <use xlink:href="#DejaVuSans-32" transform="translate(188.769531 0)"/>
      </g>
     </g>
    </g>
    <g id="xtick_5">
     <g id="line2d_9">
      <path d="M 414.72 307.584 
L 414.72 41.472 
" clip-path="url(#p041ed7ac78)" style="fill: none; stroke: #b0b0b0; stroke-width: 0.8; stroke-linecap: square"/>
     </g>
     <g id="line2d_10">
      <g>
       <use xlink:href="#m4adc6bc047" x="414.72" y="307.584" style="stroke: #000000; stroke-width: 0.8"/>
      </g>
     </g>
     <g id="text_5">
      <!-- 1e13 -->
      <g transform="translate(402.099688 322.182437) scale(0.1 -0.1)">
       <defs>
        <path id="DejaVuSans-33" d="M 2597 2516 
Q 3050 2419 3304 2112 
Q 3559 1806 3559 1356 
Q 3559 666 3084 287 
Q 2609 -91 1734 -91 
Q 1441 -91 1130 -33 
Q 819 25 488 141 
L 488 750 
Q 750 597 1062 519 
Q 1375 441 1716 441 
Q 2309 441 2620 675 
Q 2931 909 2931 1356 
Q 2931 1769 2642 2001 
Q 2353 2234 1838 2234 
L 1294 2234 
L 1294 2753 
L 1863 2753 
Q 2328 2753 2575 2939 
Q 2822 3125 2822 3475 
Q 2822 3834 2567 4026 
Q 2313 4219 1838 4219 
Q 1578 4219 1281 4162 
Q 984 4106 628 3988 
L 628 4550 
Q 988 4650 1302 4700 
Q 1616 4750 1894 4750 
Q 2613 4750 3031 4423 
Q 3450 4097 3450 3541 
Q 3450 3153 3228 2886 
Q 3006 2619 2597 2516 
z
" transform="scale(0.015625)"/>
       </defs>
       <use xlink:href="#DejaVuSans-31"/>
       <use xlink:href="#DejaVuSans-65" transform="translate(63.623047 0)"/>
       <use xlink:href="#DejaVuSans-31" transform="translate(125.146484 0)"/>
       <use xlink:href="#DejaVuSans-33" transform="translate(188.769531 0)"/>
      </g>
     </g>
    </g>
    <g id="text_6">
     <!-- Irradiation time (s) -->
     <g transform="translate(189.412344 335.860562) scale(0.1 -0.1)">
      <defs>
       <path id="DejaVuSans-49" d="M 628 4666 
L 1259 4666 
L 1259 0 
L 628 0 
L 628 4666 
z
" transform="scale(0.015625)"/>
       <path id="DejaVuSans-72" d="M 2631 2963 
Q 2534 3019 2420 3045 
Q 2306 3072 2169 3072 
Q 1681 3072 1420 2755 
Q 1159 2438 1159 1844 
L 1159 0 
L 581 0 
L 581 3500 
L 1159 3500 
L 1159 2956 
Q 1341 3275 1631 3429 
Q 1922 3584 2338 3584 
Q 2397 3584 2469 3576 
Q 2541 3569 2628 3553 
L 2631 2963 
z
" transform="scale(0.015625)"/>
       <path id="DejaVuSans-61" d="M 2194 1759 
Q 1497 1759 1228 1600 
Q 959 1441 959 1056 
Q 959 750 1161 570 
Q 1363 391 1709 391 
Q 2188 391 2477 730 
Q 2766 1069 2766 1631 
L 2766 1759 
L 2194 1759 
z
M 3341 1997 
L 3341 0 
L 2766 0 
L 2766 531 
Q 2569 213 2275 61 
Q 1981 -91 1556 -91 
Q 1019 -91 701 211 
Q 384 513 384 1019 
Q 384 1609 779 1909 
Q 1175 2209 1959 2209 
L 2766 2209 
L 2766 2266 
Q 2766 2663 2505 2880 
Q 2244 3097 1772 3097 
Q 1472 3097 1187 3025 
Q 903 2953 641 2809 
L 641 3341 
Q 956 3463 1253 3523 
Q 1550 3584 1831 3584 
Q 2591 3584 2966 3190 
Q 3341 2797 3341 1997 
z
" transform="scale(0.015625)"/>
       <path id="DejaVuSans-64" d="M 2906 2969 
L 2906 4863 
L 3481 4863 
L 3481 0 
L 2906 0 
L 2906 525 
Q 2725 213 2448 61 
Q 2172 -91 1784 -91 
Q 1150 -91 751 415 
Q 353 922 353 1747 
Q 353 2572 751 3078 
Q 1150 3584 1784 3584 
Q 2172 3584 2448 3432 
Q 2725 3281 2906 2969 
z
M 947 1747 
Q 947 1113 1208 752 
Q 1469 391 1925 391 
Q 2381 391 2643 752 
Q 2906 1113 2906 1747 
Q 2906 2381 2643 2742 
Q 2381 3103 1925 3103 
Q 1469 3103 1208 2742 
Q 947 2381 947 1747 
z
" transform="scale(0.015625)"/>
       <path id="DejaVuSans-69" d="M 603 3500 
L 1178 3500 
L 1178 0 
L 603 0 
L 603 3500 
z
M 603 4863 
L 1178 4863 
L 1178 4134 
L 603 4134 
L 603 4863 
z
" transform="scale(0.015625)"/>
       <path id="DejaVuSans-74" d="M 1172 4494 
L 1172 3500 
L 2356 3500 
L 2356 3053 
L 1172 3053 
L 1172 1153 
Q 1172 725 1289 603 
Q 1406 481 1766 481 
L 2356 481 
L 2356 0 
L 1766 0 
Q 1100 0 847 248 
Q 594 497 594 1153 
L 594 3053 
L 172 3053 
L 172 3500 
L 594 3500 
L 594 4494 
L 1172 4494 
z
" transform="scale(0.015625)"/>
       <path id="DejaVuSans-6f" d="M 1959 3097 
Q 1497 3097 1228 2736 
Q 959 2375 959 1747 
Q 959 1119 1226 758 
Q 1494 397 1959 397 
Q 2419 397 2687 759 
Q 2956 1122 2956 1747 
Q 2956 2369 2687 2733 
Q 2419 3097 1959 3097 
z
M 1959 3584 
Q 2709 3584 3137 3096 
Q 3566 2609 3566 1747 
Q 3566 888 3137 398 
Q 2709 -91 1959 -91 
Q 1206 -91 779 398 
Q 353 888 353 1747 
Q 353 2609 779 3096 
Q 1206 3584 1959 3584 
z
" transform="scale(0.015625)"/>
       <path id="DejaVuSans-6e" d="M 3513 2113 
L 3513 0 
L 2938 0 
L 2938 2094 
Q 2938 2591 2744 2837 
Q 2550 3084 2163 3084 
Q 1697 3084 1428 2787 
Q 1159 2491 1159 1978 
L 1159 0 
L 581 0 
L 581 3500 
L 1159 3500 
L 1159 2956 
Q 1366 3272 1645 3428 
Q 1925 3584 2291 3584 
Q 2894 3584 3203 3211 
Q 3513 2838 3513 2113 
z
" transform="scale(0.015625)"/>
       <path id="DejaVuSans-20" transform="scale(0.015625)"/>
       <path id="DejaVuSans-6d" d="M 3328 2828 
Q 3544 3216 3844 3400 
Q 4144 3584 4550 3584 
Q 5097 3584 5394 3201 
Q 5691 2819 5691 2113 
L 5691 0 
L 5113 0 
L 5113 2094 
Q 5113 2597 4934 2840 
Q 4756 3084 4391 3084 
Q 3944 3084 3684 2787 
Q 3425 2491 3425 1978 
L 3425 0 
L 2847 0 
L 2847 2094 
Q 2847 2600 2669 2842 
Q 2491 3084 2119 3084 
Q 1678 3084 1418 2786 
Q 1159 2488 1159 1978 
L 1159 0 
L 581 0 
L 581 3500 
L 1159 3500 
L 1159 2956 
Q 1356 3278 1631 3431 
Q 1906 3584 2284 3584 
Q 2666 3584 2933 3390 
Q 3200 3197 3328 2828 
z
" transform="scale(0.015625)"/>
       <path id="DejaVuSans-28" d="M 1984 4856 
Q 1566 4138 1362 3434 
Q 1159 2731 1159 2009 
Q 1159 1288 1364 580 
Q 1569 -128 1984 -844 
L 1484 -844 
Q 1016 -109 783 600 
Q 550 1309 550 2009 
Q 550 2706 781 3412 
Q 1013 4119 1484 4856 
L 1984 4856 
z
" transform="scale(0.015625)"/>
       <path id="DejaVuSans-73" d="M 2834 3397 
L 2834 2853 
Q 2591 2978 2328 3040 
Q 2066 3103 1784 3103 
Q 1356 3103 1142 2972 
Q 928 2841 928 2578 
Q 928 2378 1081 2264 
Q 1234 2150 1697 2047 
L 1894 2003 
Q 2506 1872 2764 1633 
Q 3022 1394 3022 966 
Q 3022 478 2636 193 
Q 2250 -91 1575 -91 
Q 1294 -91 989 -36 
Q 684 19 347 128 
L 347 722 
Q 666 556 975 473 
Q 1284 391 1588 391 
Q 1994 391 2212 530 
Q 2431 669 2431 922 
Q 2431 1156 2273 1281 
Q 2116 1406 1581 1522 
L 1381 1569 
Q 847 1681 609 1914 
Q 372 2147 372 2553 
Q 372 3047 722 3315 
Q 1072 3584 1716 3584 
Q 2034 3584 2315 3537 
Q 2597 3491 2834 3397 
z
" transform="scale(0.015625)"/>
       <path id="DejaVuSans-29" d="M 513 4856 
L 1013 4856 
Q 1481 4119 1714 3412 
Q 1947 2706 1947 2009 
Q 1947 1309 1714 600 
Q 1481 -109 1013 -844 
L 513 -844 
Q 928 -128 1133 580 
Q 1338 1288 1338 2009 
Q 1338 2731 1133 3434 
Q 928 4138 513 4856 
z
" transform="scale(0.015625)"/>
      </defs>
      <use xlink:href="#DejaVuSans-49"/>
      <use xlink:href="#DejaVuSans-72" transform="translate(29.492188 0)"/>
      <use xlink:href="#DejaVuSans-72" transform="translate(68.855469 0)"/>
      <use xlink:href="#DejaVuSans-61" transform="translate(109.96875 0)"/>
      <use xlink:href="#DejaVuSans-64" transform="translate(171.248047 0)"/>
      <use xlink:href="#DejaVuSans-69" transform="translate(234.724609 0)"/>
      <use xlink:href="#DejaVuSans-61" transform="translate(262.507812 0)"/>
      <use xlink:href="#DejaVuSans-74" transform="translate(323.787109 0)"/>
      <use xlink:href="#DejaVuSans-69" transform="translate(362.996094 0)"/>
      <use xlink:href="#DejaVuSans-6f" transform="translate(390.779297 0)"/>
      <use xlink:href="#DejaVuSans-6e" transform="translate(451.960938 0)"/>
      <use xlink:href="#DejaVuSans-20" transform="translate(515.339844 0)"/>
      <use xlink:href="#DejaVuSans-74" transform="translate(547.126953 0)"/>
      <use xlink:href="#DejaVuSans-69" transform="translate(586.335938 0)"/>
      <use xlink:href="#DejaVuSans-6d" transform="translate(614.119141 0)"/>
      <use xlink:href="#DejaVuSans-65" transform="translate(711.53125 0)"/>
      <use xlink:href="#DejaVuSans-20" transform="translate(773.054688 0)"/>
      <use xlink:href="#DejaVuSans-28" transform="translate(804.841797 0)"/>
      <use xlink:href="#DejaVuSans-73" transform="translate(843.855469 0)"/>
      <use xlink:href="#DejaVuSans-29" transform="translate(895.955078 0)"/>
     </g>
    </g>
   </g>
   <g id="matplotlib.axis_2">
    <g id="ytick_1">
     <g id="line2d_11">
      <path d="M 57.6 307.584 
L 414.72 307.584 
" clip-path="url(#p041ed7ac78)" style="fill: none; stroke: #b0b0b0; stroke-width: 0.8; stroke-linecap: square"/>
     </g>
     <g id="line2d_12">
      <defs>
       <path id="ma4b7697ebc" d="M 0 0 
L -3.5 0 
" style="stroke: #000000; stroke-width: 0.8"/>
      </defs>
      <g>
       <use xlink:href="#ma4b7697ebc" x="57.6" y="307.584" style="stroke: #000000; stroke-width: 0.8"/>
      </g>
     </g>
     <g id="text_7">
      <!-- 0.0 -->
      <g transform="translate(34.696875 311.383219) scale(0.1 -0.1)">
       <defs>
        <path id="DejaVuSans-30" d="M 2034 4250 
Q 1547 4250 1301 3770 
Q 1056 3291 1056 2328 
Q 1056 1369 1301 889 
Q 1547 409 2034 409 
Q 2525 409 2770 889 
Q 3016 1369 3016 2328 
Q 3016 3291 2770 3770 
Q 2525 4250 2034 4250 
z
M 2034 4750 
Q 2819 4750 3233 4129 
Q 3647 3509 3647 2328 
Q 3647 1150 3233 529 
Q 2819 -91 2034 -91 
Q 1250 -91 836 529 
Q 422 1150 422 2328 
Q 422 3509 836 4129 
Q 1250 4750 2034 4750 
z
" transform="scale(0.015625)"/>
        <path id="DejaVuSans-2e" d="M 684 794 
L 1344 794 
L 1344 0 
L 684 0 
L 684 794 
z
" transform="scale(0.015625)"/>
       </defs>
       <use xlink:href="#DejaVuSans-30"/>
       <use xlink:href="#DejaVuSans-2e" transform="translate(63.623047 0)"/>
       <use xlink:href="#DejaVuSans-30" transform="translate(95.410156 0)"/>
      </g>
     </g>
    </g>
    <g id="ytick_2">
     <g id="line2d_13">
      <path d="M 57.6 272.1024 
L 414.72 272.1024 
" clip-path="url(#p041ed7ac78)" style="fill: none; stroke: #b0b0b0; stroke-width: 0.8; stroke-linecap: square"/>
     </g>
     <g id="line2d_14">
      <g>
       <use xlink:href="#ma4b7697ebc" x="57.6" y="272.1024" style="stroke: #000000; stroke-width: 0.8"/>
      </g>
     </g>
     <g id="text_8">
      <!-- 0.1 -->
      <g transform="translate(34.696875 275.901619) scale(0.1 -0.1)">
       <use xlink:href="#DejaVuSans-30"/>
       <use xlink:href="#DejaVuSans-2e" transform="translate(63.623047 0)"/>
       <use xlink:href="#DejaVuSans-31" transform="translate(95.410156 0)"/>
      </g>
     </g>
    </g>
    <g id="ytick_3">
     <g id="line2d_15">
      <path d="M 57.6 236.6208 
L 414.72 236.6208 
" clip-path="url(#p041ed7ac78)" style="fill: none; stroke: #b0b0b0; stroke-width: 0.8; stroke-linecap: square"/>
     </g>
     <g id="line2d_16">
      <g>
       <use xlink:href="#ma4b7697ebc" x="57.6" y="236.6208" style="stroke: #000000; stroke-width: 0.8"/>
      </g>
     </g>
     <g id="text_9">
      <!-- 0.2 -->
      <g transform="translate(34.696875 240.420019) scale(0.1 -0.1)">
       <use xlink:href="#DejaVuSans-30"/>
       <use xlink:href="#DejaVuSans-2e" transform="translate(63.623047 0)"/>
       <use xlink:href="#DejaVuSans-32" transform="translate(95.410156 0)"/>
      </g>
     </g>
    </g>
    <g id="ytick_4">
     <g id="line2d_17">
      <path d="M 57.6 201.1392 
L 414.72 201.1392 
" clip-path="url(#p041ed7ac78)" style="fill: none; stroke: #b0b0b0; stroke-width: 0.8; stroke-linecap: square"/>
     </g>
     <g id="line2d_18">
      <g>
       <use xlink:href="#ma4b7697ebc" x="57.6" y="201.1392" style="stroke: #000000; stroke-width: 0.8"/>
      </g>
     </g>
     <g id="text_10">
      <!-- 0.3 -->
      <g transform="translate(34.696875 204.938419) scale(0.1 -0.1)">
       <use xlink:href="#DejaVuSans-30"/>
       <use xlink:href="#DejaVuSans-2e" transform="translate(63.623047 0)"/>
       <use xlink:href="#DejaVuSans-33" transform="translate(95.410156 0)"/>
      </g>
     </g>
    </g>
    <g id="ytick_5">
     <g id="line2d_19">
      <path d="M 57.6 165.6576 
L 414.72 165.6576 
" clip-path="url(#p041ed7ac78)" style="fill: none; stroke: #b0b0b0; stroke-width: 0.8; stroke-linecap: square"/>
     </g>
     <g id="line2d_20">
      <g>
       <use xlink:href="#ma4b7697ebc" x="57.6" y="165.6576" style="stroke: #000000; stroke-width: 0.8"/>
      </g>
     </g>
     <g id="text_11">
      <!-- 0.4 -->
      <g transform="translate(34.696875 169.456819) scale(0.1 -0.1)">
       <use xlink:href="#DejaVuSans-30"/>
       <use xlink:href="#DejaVuSans-2e" transform="translate(63.623047 0)"/>
       <use xlink:href="#DejaVuSans-34" transform="translate(95.410156 0)"/>
      </g>
     </g>
    </g>
    <g id="ytick_6">
     <g id="line2d_21">
      <path d="M 57.6 130.176 
L 414.72 130.176 
" clip-path="url(#p041ed7ac78)" style="fill: none; stroke: #b0b0b0; stroke-width: 0.8; stroke-linecap: square"/>
     </g>
     <g id="line2d_22">
      <g>
       <use xlink:href="#ma4b7697ebc" x="57.6" y="130.176" style="stroke: #000000; stroke-width: 0.8"/>
      </g>
     </g>
     <g id="text_12">
      <!-- 0.5 -->
      <g transform="translate(34.696875 133.975219) scale(0.1 -0.1)">
       <defs>
        <path id="DejaVuSans-35" d="M 691 4666 
L 3169 4666 
L 3169 4134 
L 1269 4134 
L 1269 2991 
Q 1406 3038 1543 3061 
Q 1681 3084 1819 3084 
Q 2600 3084 3056 2656 
Q 3513 2228 3513 1497 
Q 3513 744 3044 326 
Q 2575 -91 1722 -91 
Q 1428 -91 1123 -41 
Q 819 9 494 109 
L 494 744 
Q 775 591 1075 516 
Q 1375 441 1709 441 
Q 2250 441 2565 725 
Q 2881 1009 2881 1497 
Q 2881 1984 2565 2268 
Q 2250 2553 1709 2553 
Q 1456 2553 1204 2497 
Q 953 2441 691 2322 
L 691 4666 
z
" transform="scale(0.015625)"/>
       </defs>
       <use xlink:href="#DejaVuSans-30"/>
       <use xlink:href="#DejaVuSans-2e" transform="translate(63.623047 0)"/>
       <use xlink:href="#DejaVuSans-35" transform="translate(95.410156 0)"/>
      </g>
     </g>
    </g>
    <g id="ytick_7">
     <g id="line2d_23">
      <path d="M 57.6 94.6944 
L 414.72 94.6944 
" clip-path="url(#p041ed7ac78)" style="fill: none; stroke: #b0b0b0; stroke-width: 0.8; stroke-linecap: square"/>
     </g>
     <g id="line2d_24">
      <g>
       <use xlink:href="#ma4b7697ebc" x="57.6" y="94.6944" style="stroke: #000000; stroke-width: 0.8"/>
      </g>
     </g>
     <g id="text_13">
      <!-- 0.6 -->
      <g transform="translate(34.696875 98.493619) scale(0.1 -0.1)">
       <use xlink:href="#DejaVuSans-30"/>
       <use xlink:href="#DejaVuSans-2e" transform="translate(63.623047 0)"/>
       <use xlink:href="#DejaVuSans-36" transform="translate(95.410156 0)"/>
      </g>
     </g>
    </g>
    <g id="ytick_8">
     <g id="line2d_25">
      <path d="M 57.6 59.2128 
L 414.72 59.2128 
" clip-path="url(#p041ed7ac78)" style="fill: none; stroke: #b0b0b0; stroke-width: 0.8; stroke-linecap: square"/>
     </g>
     <g id="line2d_26">
      <g>
       <use xlink:href="#ma4b7697ebc" x="57.6" y="59.2128" style="stroke: #000000; stroke-width: 0.8"/>
      </g>
     </g>
     <g id="text_14">
      <!-- 0.7 -->
      <g transform="translate(34.696875 63.012019) scale(0.1 -0.1)">
       <defs>
        <path id="DejaVuSans-37" d="M 525 4666 
L 3525 4666 
L 3525 4397 
L 1831 0 
L 1172 0 
L 2766 4134 
L 525 4134 
L 525 4666 
z
" transform="scale(0.015625)"/>
       </defs>
       <use xlink:href="#DejaVuSans-30"/>
       <use xlink:href="#DejaVuSans-2e" transform="translate(63.623047 0)"/>
       <use xlink:href="#DejaVuSans-37" transform="translate(95.410156 0)"/>
      </g>
     </g>
    </g>
    <g id="text_15">
     <!-- Percent of filled traps -->
     <g transform="translate(28.617187 227.95925) rotate(-90) scale(0.1 -0.1)">
      <defs>
       <path id="DejaVuSans-50" d="M 1259 4147 
L 1259 2394 
L 2053 2394 
Q 2494 2394 2734 2622 
Q 2975 2850 2975 3272 
Q 2975 3691 2734 3919 
Q 2494 4147 2053 4147 
L 1259 4147 
z
M 628 4666 
L 2053 4666 
Q 2838 4666 3239 4311 
Q 3641 3956 3641 3272 
Q 3641 2581 3239 2228 
Q 2838 1875 2053 1875 
L 1259 1875 
L 1259 0 
L 628 0 
L 628 4666 
z
" transform="scale(0.015625)"/>
       <path id="DejaVuSans-63" d="M 3122 3366 
L 3122 2828 
Q 2878 2963 2633 3030 
Q 2388 3097 2138 3097 
Q 1578 3097 1268 2742 
Q 959 2388 959 1747 
Q 959 1106 1268 751 
Q 1578 397 2138 397 
Q 2388 397 2633 464 
Q 2878 531 3122 666 
L 3122 134 
Q 2881 22 2623 -34 
Q 2366 -91 2075 -91 
Q 1284 -91 818 406 
Q 353 903 353 1747 
Q 353 2603 823 3093 
Q 1294 3584 2113 3584 
Q 2378 3584 2631 3529 
Q 2884 3475 3122 3366 
z
" transform="scale(0.015625)"/>
       <path id="DejaVuSans-66" d="M 2375 4863 
L 2375 4384 
L 1825 4384 
Q 1516 4384 1395 4259 
Q 1275 4134 1275 3809 
L 1275 3500 
L 2222 3500 
L 2222 3053 
L 1275 3053 
L 1275 0 
L 697 0 
L 697 3053 
L 147 3053 
L 147 3500 
L 697 3500 
L 697 3744 
Q 697 4328 969 4595 
Q 1241 4863 1831 4863 
L 2375 4863 
z
" transform="scale(0.015625)"/>
       <path id="DejaVuSans-6c" d="M 603 4863 
L 1178 4863 
L 1178 0 
L 603 0 
L 603 4863 
z
" transform="scale(0.015625)"/>
       <path id="DejaVuSans-70" d="M 1159 525 
L 1159 -1331 
L 581 -1331 
L 581 3500 
L 1159 3500 
L 1159 2969 
Q 1341 3281 1617 3432 
Q 1894 3584 2278 3584 
Q 2916 3584 3314 3078 
Q 3713 2572 3713 1747 
Q 3713 922 3314 415 
Q 2916 -91 2278 -91 
Q 1894 -91 1617 61 
Q 1341 213 1159 525 
z
M 3116 1747 
Q 3116 2381 2855 2742 
Q 2594 3103 2138 3103 
Q 1681 3103 1420 2742 
Q 1159 2381 1159 1747 
Q 1159 1113 1420 752 
Q 1681 391 2138 391 
Q 2594 391 2855 752 
Q 3116 1113 3116 1747 
z
" transform="scale(0.015625)"/>
      </defs>
      <use xlink:href="#DejaVuSans-50"/>
      <use xlink:href="#DejaVuSans-65" transform="translate(56.677734 0)"/>
      <use xlink:href="#DejaVuSans-72" transform="translate(118.201172 0)"/>
      <use xlink:href="#DejaVuSans-63" transform="translate(157.064453 0)"/>
      <use xlink:href="#DejaVuSans-65" transform="translate(212.044922 0)"/>
      <use xlink:href="#DejaVuSans-6e" transform="translate(273.568359 0)"/>
      <use xlink:href="#DejaVuSans-74" transform="translate(336.947266 0)"/>
      <use xlink:href="#DejaVuSans-20" transform="translate(376.15625 0)"/>
      <use xlink:href="#DejaVuSans-6f" transform="translate(407.943359 0)"/>
      <use xlink:href="#DejaVuSans-66" transform="translate(469.125 0)"/>
      <use xlink:href="#DejaVuSans-20" transform="translate(504.330078 0)"/>
      <use xlink:href="#DejaVuSans-66" transform="translate(536.117188 0)"/>
      <use xlink:href="#DejaVuSans-69" transform="translate(571.322266 0)"/>
      <use xlink:href="#DejaVuSans-6c" transform="translate(599.105469 0)"/>
      <use xlink:href="#DejaVuSans-6c" transform="translate(626.888672 0)"/>
      <use xlink:href="#DejaVuSans-65" transform="translate(654.671875 0)"/>
      <use xlink:href="#DejaVuSans-64" transform="translate(716.195312 0)"/>
      <use xlink:href="#DejaVuSans-20" transform="translate(779.671875 0)"/>
      <use xlink:href="#DejaVuSans-74" transform="translate(811.458984 0)"/>
      <use xlink:href="#DejaVuSans-72" transform="translate(850.667969 0)"/>
      <use xlink:href="#DejaVuSans-61" transform="translate(891.78125 0)"/>
      <use xlink:href="#DejaVuSans-70" transform="translate(953.060547 0)"/>
      <use xlink:href="#DejaVuSans-73" transform="translate(1016.537109 0)"/>
     </g>
    </g>
   </g>
   <g id="line2d_27">
    <path d="M 66.134992 300.665088 
L 66.134992 299.955456 
L 67.868164 299.245824 
L 67.868164 298.536192 
L 69.601335 297.82656 
L 71.334507 297.471744 
L 71.334507 296.762112 
L 73.076612 296.05248 
L 74.818718 294.988032 
L 76.56985 294.2784 
L 76.56985 293.568768 
L 78.330102 292.50432 
L 81.859823 291.085056 
L 81.859823 290.375424 
L 85.417386 288.246528 
L 85.417386 287.18208 
L 92.598794 282.924288 
L 96.242685 280.08576 
L 96.242685 278.666496 
L 103.620047 272.98944 
L 109.25297 267.6672 
L 113.061096 264.828672 
L 116.912619 262.699776 
L 118.854967 261.990144 
L 118.854967 261.280512 
L 120.808542 260.57088 
L 120.808542 259.861248 
L 122.762117 259.151616 
L 122.762117 258.7968 
L 130.610623 255.958272 
L 130.610623 254.893824 
L 134.586722 252.764928 
L 134.586722 252.055296 
L 136.586536 251.345664 
L 142.621829 248.15232 
L 142.621829 247.087872 
L 150.802815 242.83008 
L 150.802815 241.410816 
L 157.035893 238.217472 
L 159.135075 237.50784 
L 161.247378 236.443392 
L 161.247378 235.73376 
L 165.498554 234.314496 
L 165.498554 233.604864 
L 167.637595 233.250048 
L 167.637595 232.540416 
L 174.068342 231.475968 
L 174.068342 231.121152 
L 176.234806 230.41152 
L 176.234806 229.701888 
L 178.401271 228.992256 
L 178.401271 228.282624 
L 182.734199 226.153728 
L 187.109241 223.3152 
L 198.301232 214.4448 
L 202.883907 211.606272 
L 209.87658 208.412928 
L 209.87658 207.34848 
L 212.239996 206.284032 
L 212.239996 205.219584 
L 216.966827 203.80032 
L 224.157887 200.606976 
L 224.157887 199.542528 
L 229.020742 197.413632 
L 231.469789 196.704 
L 231.469789 195.994368 
L 238.888697 192.801024 
L 238.888697 191.736576 
L 248.958906 186.05952 
L 259.318853 178.9632 
L 264.6204 176.124672 
L 272.731989 172.931328 
L 272.731989 171.86688 
L 275.4797 171.157248 
L 275.4797 170.447616 
L 283.745355 168.31872 
L 283.745355 167.609088 
L 286.538483 166.54464 
L 292.148015 165.125376 
L 292.148015 164.415744 
L 294.988086 163.351296 
L 297.828157 162.641664 
L 297.828157 162.286848 
L 300.692296 161.932032 
L 306.445055 160.512768 
L 306.445055 158.738688 
L 315.160716 156.609792 
L 321.064208 154.480896 
L 321.064208 153.416448 
L 324.055079 152.352 
L 330.063526 150.932736 
L 330.063526 150.57792 
L 333.108287 149.868288 
L 336.153048 149.513472 
L 336.153048 149.158656 
L 339.225488 149.158656 
L 339.225488 148.80384 
L 342.297929 148.80384 
L 342.297929 148.80384 
L 345.370369 148.449024 
L 345.370369 148.094208 
L 348.44281 147.384576 
L 348.44281 147.02976 
L 354.587691 145.610496 
L 360.817656 143.4816 
L 360.817656 142.062336 
L 363.97624 140.643072 
L 380.072896 135.320832 
L 380.072896 134.6112 
L 386.699729 133.191936 
L 386.699729 132.482304 
L 390.045951 132.127488 
L 390.045951 131.417856 
L 396.738396 129.998592 
L 400.11808 128.934144 
L 400.11808 128.224512 
L 413.878594 123.96672 
L 413.878594 122.547456 
L 428.072576 118.289664 
L 431.706645 117.402624 
L 431.706645 116.515584 
L 442.767724 113.854464 
L 442.767724 113.32224 
L 457.789472 109.77408 
L 457.789472 108.354816 
L 461.8 107.243257 
L 461.8 107.243257 
" clip-path="url(#p041ed7ac78)" style="fill: none; stroke-dasharray: 1.85,0.8; stroke-dashoffset: 0; stroke: #8000ff; stroke-width: 0.5"/>
   </g>
   <g id="line2d_28">
    <path d="M 64.401999 300.665088 
L 71.317181 294.988032 
L 76.598033 291.794688 
L 76.598033 290.73024 
L 78.376815 289.665792 
L 78.376815 288.601344 
L 81.934377 286.472448 
L 85.520275 283.63392 
L 92.808269 276.5376 
L 96.512061 273.699072 
L 102.144984 270.505728 
L 102.144984 269.44128 
L 104.043683 268.376832 
L 104.043683 267.6672 
L 107.841082 266.247936 
L 111.670783 264.11904 
L 111.670783 262.699776 
L 115.53328 259.861248 
L 123.370559 255.603456 
L 125.358609 254.893824 
L 125.358609 254.184192 
L 127.358422 253.47456 
L 127.358422 253.297152 
L 129.358235 253.119744 
L 129.358235 252.942336 
L 131.358049 252.410112 
L 133.357862 252.232704 
L 133.357862 251.70048 
L 139.381109 250.103808 
L 139.381109 249.571584 
L 141.404872 248.507136 
L 143.428636 247.797504 
L 143.428636 247.087872 
L 145.46459 246.37824 
L 149.548838 244.249344 
L 149.548838 243.184896 
L 157.830056 237.50784 
L 168.458836 228.63744 
L 170.6253 226.86336 
L 179.432763 221.186304 
L 181.670965 220.121856 
L 181.670965 219.057408 
L 186.177211 217.638144 
L 188.445455 217.283328 
L 188.445455 216.928512 
L 190.729026 216.21888 
L 190.729026 215.509248 
L 193.012597 214.799616 
L 193.012597 214.089984 
L 197.579738 212.67072 
L 204.524512 209.477376 
L 204.524512 208.412928 
L 206.871516 207.34848 
L 211.581934 205.929216 
L 211.581934 205.219584 
L 216.342054 203.80032 
L 216.342054 203.090688 
L 218.738993 202.381056 
L 221.135932 201.316608 
L 221.135932 200.25216 
L 228.395481 197.058816 
L 230.844528 196.349184 
L 233.311451 195.284736 
L 235.796513 194.575104 
L 235.796513 193.865472 
L 238.299983 193.15584 
L 238.299983 192.801024 
L 240.803453 192.446208 
L 240.803453 192.091392 
L 245.810393 190.672128 
L 245.810393 189.60768 
L 248.332546 188.543232 
L 253.395814 185.704704 
L 255.956182 184.640256 
L 266.39614 178.9632 
L 266.39614 177.898752 
L 269.057309 176.834304 
L 274.400767 175.41504 
L 277.104515 175.060224 
L 277.104515 174.350592 
L 279.830067 173.995776 
L 279.830067 173.64096 
L 285.281171 172.931328 
L 285.281171 172.576512 
L 290.732275 171.86688 
L 290.732275 171.157248 
L 293.479986 170.447616 
L 296.227697 169.383168 
L 296.227697 168.31872 
L 298.99793 167.609088 
L 304.561291 165.480192 
L 307.377695 164.77056 
L 310.217766 163.706112 
L 310.217766 162.641664 
L 315.946045 160.512768 
L 315.946045 159.44832 
L 318.834664 158.383872 
L 327.575661 155.722752 
L 333.531167 153.23904 
L 333.531167 151.997184 
L 342.55719 149.336064 
L 345.60195 148.80384 
L 348.674391 147.739392 
L 348.674391 146.674944 
L 351.775019 145.610496 
L 354.875647 144.900864 
L 354.875647 144.191232 
L 358.004985 143.4816 
L 364.292906 141.352704 
L 364.292906 140.288256 
L 377.138113 134.6112 
L 390.458683 127.51488 
L 404.325879 120.41856 
L 411.478851 116.8704 
L 418.786491 114.031872 
L 422.50043 112.967424 
L 430.053033 111.54816 
L 430.053033 110.838528 
L 433.893584 110.483712 
L 433.893584 109.77408 
L 441.531533 109.064448 
L 441.531533 108.709632 
L 445.372083 108 
L 453.097329 106.935552 
L 453.097329 106.403328 
L 460.95706 105.33888 
L 460.95706 104.806656 
L 461.8 104.693824 
L 461.8 104.693824 
" clip-path="url(#p041ed7ac78)" style="fill: none; stroke-dasharray: 1.85,0.8; stroke-dashoffset: 0; stroke: #8000ff; stroke-width: 0.5"/>
   </g>
   <g id="line2d_29">
    <path d="M 66.134992 297.82656 
L 69.610269 294.2784 
L 78.458096 287.18208 
L 78.458096 285.762816 
L 91.188322 275.827968 
L 94.91252 273.699072 
L 94.91252 272.98944 
L 98.667725 271.570176 
L 98.667725 270.860544 
L 100.555817 270.150912 
L 100.555817 269.086464 
L 104.332001 266.957568 
L 108.140126 264.11904 
L 110.060402 262.34496 
L 113.933998 259.506432 
L 117.852505 257.732352 
L 119.828929 257.200128 
L 119.828929 256.667904 
L 121.816979 256.490496 
L 121.816979 256.313088 
L 123.805028 256.13568 
L 123.805028 255.958272 
L 125.781452 255.426048 
L 125.781452 255.24864 
L 129.7343 253.829376 
L 133.722163 251.70048 
L 133.722163 250.636032 
L 135.73388 249.571584 
L 139.76936 248.15232 
L 141.805314 247.797504 
L 141.805314 247.087872 
L 143.853608 246.733056 
L 143.853608 246.37824 
L 145.901902 246.023424 
L 145.901902 245.668608 
L 147.950195 244.958976 
L 147.950195 244.781568 
L 149.998489 244.249344 
L 152.046783 244.071936 
L 156.180992 243.007488 
L 156.180992 242.120448 
L 158.267217 241.233408 
L 158.267217 240.701184 
L 162.414069 240.346368 
L 164.500294 239.636736 
L 166.599477 239.28192 
L 166.599477 237.862656 
L 168.71178 237.153024 
L 170.810963 236.798208 
L 170.810963 236.443392 
L 172.923266 235.73376 
L 177.161156 233.604864 
L 177.161156 232.540416 
L 183.591903 229.347072 
L 187.93881 227.927808 
L 187.93881 227.218176 
L 192.32801 226.508544 
L 192.32801 225.798912 
L 194.536954 225.444096 
L 194.536954 225.08928 
L 196.731555 224.734464 
L 198.926155 224.024832 
L 201.135099 222.960384 
L 201.135099 221.895936 
L 207.820254 218.702592 
L 210.073377 217.99296 
L 212.341622 216.928512 
L 212.341622 216.21888 
L 216.908763 214.799616 
L 216.908763 214.4448 
L 219.207868 214.089984 
L 219.207868 213.735168 
L 221.506974 213.380352 
L 223.806079 213.380352 
L 223.806079 213.025536 
L 226.120931 213.025536 
L 226.120931 212.67072 
L 228.435784 212.315904 
L 228.435784 211.961088 
L 230.750636 211.251456 
L 230.750636 210.541824 
L 233.065488 209.477376 
L 235.380341 208.767744 
L 244.801636 204.509952 
L 244.801636 203.445504 
L 249.595515 201.316608 
L 249.595515 200.25216 
L 252.009575 199.187712 
L 259.30411 194.92992 
L 261.771033 193.15584 
L 271.822834 187.478784 
L 274.383201 186.414336 
L 274.383201 185.349888 
L 282.142782 182.156544 
L 282.142782 181.092096 
L 292.684151 176.834304 
L 295.36644 175.41504 
L 295.36644 173.995776 
L 298.070188 172.576512 
L 306.247199 169.915392 
L 311.81056 167.43168 
L 311.81056 166.189824 
L 323.076566 162.641664 
L 325.940705 161.577216 
L 325.940705 160.512768 
L 334.631465 158.383872 
L 334.631465 158.029056 
L 337.570321 157.319424 
L 337.570321 156.609792 
L 343.448033 155.190528 
L 343.448033 154.480896 
L 346.412669 153.771264 
L 352.368176 151.642368 
L 355.385751 150.932736 
L 355.385751 149.868288 
L 358.430512 148.80384 
L 364.547713 147.384576 
L 364.547713 146.674944 
L 370.748969 144.546048 
L 370.748969 143.4816 
L 373.878307 142.771968 
L 377.007645 141.70752 
L 383.35461 140.288256 
L 386.573357 139.223808 
L 386.573357 138.514176 
L 389.823054 137.804544 
L 389.823054 137.449728 
L 396.322447 136.740096 
L 396.322447 136.38528 
L 399.603694 136.030464 
L 399.603694 135.675648 
L 406.166188 134.966016 
L 406.166188 134.256384 
L 409.479605 133.546752 
L 409.479605 132.482304 
L 416.106437 130.353408 
L 429.694824 124.676352 
L 440.257103 120.41856 
L 440.257103 118.999296 
L 447.447921 117.225216 
L 454.75556 116.160768 
L 458.4695 115.273728 
L 458.4695 114.386688 
L 461.8 113.59997 
L 461.8 113.59997 
" clip-path="url(#p041ed7ac78)" style="fill: none; stroke-dasharray: 1.85,0.8; stroke-dashoffset: 0; stroke: #8000ff; stroke-width: 0.5"/>
   </g>
   <g id="line2d_30">
    <path d="M 61.1712 299.718912 
L 64.793931 299.610833 
L 66.131065 299.242123 
L 66.249804 298.918158 
L 67.857542 297.709094 
L 68.00031 297.365613 
L 70.604535 295.55412 
L 71.312174 295.122487 
L 71.439115 294.809963 
L 76.531122 291.613703 
L 76.750444 290.878672 
L 78.358519 289.810239 
L 78.550692 288.867466 
L 81.823109 286.914998 
L 81.9911 286.56595 
L 85.413772 284.086242 
L 85.542219 283.637285 
L 92.781222 278.086803 
L 94.866914 276.612031 
L 95.039016 276.262471 
L 96.17722 275.534353 
L 96.355374 274.947456 
L 98.464241 273.727823 
L 98.652956 273.61978 
L 98.842543 273.274817 
L 100.489792 272.333937 
L 100.687862 271.858075 
L 102.100198 270.965937 
L 102.305705 270.481696 
L 103.984294 269.402362 
L 104.198502 269.027337 
L 106.508288 267.442893 
L 109.050958 265.569344 
L 110.73742 264.347143 
L 111.601269 263.761303 
L 111.850653 263.10843 
L 114.408716 261.353408 
L 117.2246 259.845325 
L 118.754861 259.205286 
L 119.03728 258.857832 
L 119.749048 258.578821 
L 120.036059 258.301502 
L 120.759398 258.061786 
L 121.051075 257.72858 
L 122.679542 257.131115 
L 122.980086 256.913558 
L 125.278853 256.122095 
L 125.434947 255.83412 
L 127.336395 255.103107 
L 127.820028 254.911612 
L 129.954825 254.229533 
L 130.456617 254.035405 
L 130.624653 253.614756 
L 133.716447 252.18001 
L 133.892001 251.747411 
L 134.421097 251.513002 
L 134.598277 251.198656 
L 139.351177 249.42907 
L 139.728712 249.077364 
L 141.642704 248.305633 
L 141.836539 248.001199 
L 142.616362 247.7283 
L 142.812443 247.305066 
L 143.403404 247.09888 
L 143.6013 246.793411 
L 143.799653 246.724344 
L 144.197732 246.467461 
L 145.808517 245.886606 
L 146.215873 245.5847 
L 149.543181 244.033549 
L 149.755238 243.575493 
L 150.608369 243.194078 
L 150.822882 242.628638 
L 154.100604 241.103738 
L 156.122298 240.125266 
L 156.349529 239.710502 
L 164.888468 235.225545 
L 165.383937 235.005514 
L 165.632529 234.666075 
L 166.381751 234.375439 
L 166.632644 233.803574 
L 167.388802 233.469362 
L 167.642018 233.1209 
L 170.466238 231.973767 
L 170.726551 231.879321 
L 171.248982 231.565004 
L 173.897546 230.494977 
L 174.43462 230.121337 
L 176.060771 229.322646 
L 176.333988 228.952149 
L 177.157425 228.548434 
L 177.433172 228.059024 
L 178.264233 227.653608 
L 178.542532 227.27359 
L 181.646512 225.710218 
L 181.932612 225.230043 
L 187.795227 222.707947 
L 188.095508 222.351335 
L 188.396482 222.238847 
L 189.000514 221.866267 
L 190.522826 221.221104 
L 190.829398 220.854746 
L 192.062774 220.333398 
L 192.372898 219.966093 
L 192.995293 219.703854 
L 193.307568 219.335736 
L 196.790492 217.752598 
L 200.692072 215.788503 
L 201.022099 215.616996 
L 201.352887 215.090507 
L 204.364519 213.608597 
L 204.703016 213.096539 
L 208.131219 211.592254 
L 209.875166 210.970214 
L 210.226372 210.482778 
L 211.284858 210.052353 
L 211.639316 209.671712 
L 211.994591 209.527491 
L 212.350686 208.797596 
L 216.32235 207.593957 
L 217.055346 207.020807 
L 218.902681 206.459995 
L 219.647594 206.082399 
L 220.771418 205.69187 
L 221.147755 205.206289 
L 223.806533 204.287344 
L 224.18987 203.819876 
L 226.119861 203.25473 
L 226.898103 202.869614 
L 230.44491 201.603707 
L 230.843558 201.244672 
L 231.243126 201.087411 
L 231.643615 200.684984 
L 234.066022 199.704681 
L 235.699663 199.131301 
L 236.110431 198.734266 
L 238.595009 197.662824 
L 239.012455 197.159858 
L 240.691887 196.50992 
L 241.537424 196.030304 
L 244.527674 194.736864 
L 244.958803 194.196337 
L 245.390926 194.010486 
L 245.824045 193.46876 
L 249.325158 191.742361 
L 249.767352 191.137192 
L 257.903533 186.410714 
L 263.993071 182.86698 
L 266.384193 181.641488 
L 266.865731 181.067372 
L 271.249862 179.186199 
L 272.731556 178.629713 
L 273.227734 178.119646 
L 274.223525 177.808108 
L 274.723144 177.311668 
L 275.223915 177.177781 
L 275.725841 176.807041 
L 276.733169 176.53772 
L 277.238576 176.166096 
L 279.783151 175.486917 
L 280.809216 175.095751 
L 281.840019 174.822202 
L 282.357205 174.330422 
L 283.395157 174.056182 
L 283.91593 173.67494 
L 284.96108 173.355275 
L 286.011057 172.915861 
L 289.190172 172.057689 
L 290.25968 171.777882 
L 290.796285 171.398705 
L 291.873209 171.071959 
L 292.413535 170.660606 
L 295.133916 169.553275 
L 296.230873 168.30023 
L 301.230205 166.697027 
L 306.334275 165.149935 
L 306.907954 164.378015 
L 309.796256 163.370963 
L 310.37792 162.80981 
L 311.545275 162.396597 
L 312.130972 161.789171 
L 315.673634 160.669468 
L 316.268853 160.106382 
L 320.474004 158.675931 
L 321.080294 158.123388 
L 325.363664 156.741197 
L 325.981232 156.200601 
L 329.716667 155.141786 
L 330.973331 154.647799 
L 333.504094 153.910302 
L 334.140437 153.356521 
L 335.41753 152.960369 
L 337.344236 152.468962 
L 337.989436 152.116702 
L 338.636124 152.000719 
L 339.284304 151.766196 
L 343.204896 151.057061 
L 343.863613 150.70405 
L 345.185609 150.470652 
L 346.513709 150.017694 
L 347.847943 149.601206 
L 348.517369 149.273969 
L 349.188338 148.710246 
L 353.246779 147.543204 
L 354.612107 147.225988 
L 355.297134 146.805391 
L 355.98374 146.243472 
L 360.136762 144.958617 
L 360.834531 144.272475 
L 363.641736 143.319784 
L 365.055068 142.243088 
L 370.053331 140.371073 
L 370.773971 139.748258 
L 377.334987 137.449251 
L 379.552396 136.643781 
L 380.294945 136.145757 
L 386.297321 134.098866 
L 387.055426 133.384984 
L 389.340248 132.738088 
L 390.105371 132.174833 
L 396.290229 130.444769 
L 397.854336 129.853998 
L 399.425666 129.365698 
L 400.21405 128.765988 
L 405.783888 127.052241 
L 406.586936 126.554927 
L 409.007213 125.73241 
L 409.817696 125.090973 
L 413.078364 123.927701 
L 413.898236 123.176614 
L 414.72 122.898816 
L 414.72 122.898816 
" clip-path="url(#p041ed7ac78)" style="fill: none; stroke-dasharray: 7.4,3.2; stroke-dashoffset: 0; stroke: #8000ff; stroke-width: 2"/>
   </g>
   <g id="line2d_31">
    <path d="M 61.000999 300.665088 
L 65.334156 295.342848 
L 65.334156 294.2784 
L 66.214282 293.213952 
L 66.214282 292.149504 
L 67.094409 291.085056 
L 67.974535 290.375424 
L 69.74866 288.246528 
L 71.541608 285.408 
L 71.541608 284.343552 
L 73.348926 282.214656 
L 75.170872 280.795392 
L 75.170872 279.730944 
L 77.007657 277.602048 
L 77.007657 276.892416 
L 77.931068 276.182784 
L 78.854479 275.118336 
L 80.716578 273.699072 
L 80.716578 272.634624 
L 82.594181 270.505728 
L 82.594181 269.796096 
L 83.538227 269.086464 
L 84.482273 268.022016 
L 86.386336 266.602752 
L 86.386336 265.538304 
L 88.306611 264.11904 
L 88.306611 263.409408 
L 90.237859 261.990144 
L 90.237859 261.280512 
L 91.209033 260.925696 
L 93.156994 259.506432 
L 93.156994 259.151616 
L 94.139461 258.441984 
L 94.139461 257.732352 
L 96.104393 256.313088 
L 96.104393 255.24864 
L 102.092489 248.861952 
L 102.092489 247.797504 
L 104.128443 245.668608 
L 104.128443 244.60416 
L 108.243842 240.346368 
L 109.286954 238.927104 
L 110.336546 237.862656 
L 110.336546 236.798208 
L 113.511642 234.669312 
L 113.511642 233.95968 
L 114.581163 232.895232 
L 114.581163 231.830784 
L 118.879769 228.992256 
L 119.969989 227.927808 
L 119.969989 226.86336 
L 121.06729 226.153728 
L 121.06729 225.444096 
L 123.26189 224.024832 
L 124.366362 222.960384 
L 124.366362 222.250752 
L 125.4781 221.186304 
L 126.589839 220.476672 
L 128.835501 219.76704 
L 128.835501 219.412224 
L 129.969623 219.057408 
L 129.969623 218.347776 
L 131.103746 217.99296 
L 131.103746 217.815552 
L 132.230307 217.638144 
L 133.356869 217.10592 
L 134.490991 216.21888 
L 135.632776 215.686656 
L 135.632776 214.799616 
L 139.073667 213.202944 
L 139.073667 212.67072 
L 140.231093 211.606272 
L 140.231093 210.541824 
L 142.545945 208.412928 
L 144.884855 205.5744 
L 147.256593 202.02624 
L 153.335792 194.92992 
L 153.335792 193.865472 
L 157.072589 190.672128 
L 158.333665 190.139904 
L 158.333665 189.252864 
L 162.154965 186.591744 
L 162.154965 185.704704 
L 163.444921 184.462848 
L 166.01506 182.688768 
L 167.314939 182.156544 
L 168.624894 181.092096 
L 169.945084 180.382464 
L 169.945084 179.672832 
L 171.275668 178.9632 
L 171.275668 178.608384 
L 173.936837 177.898752 
L 175.267421 177.898752 
L 175.267421 177.543936 
L 176.608566 177.543936 
L 176.608566 177.18912 
L 177.949711 176.834304 
L 177.949711 176.479488 
L 179.290855 175.769856 
L 179.290855 175.060224 
L 184.687795 170.802432 
L 188.843331 166.54464 
L 188.843331 165.480192 
L 191.659734 163.351296 
L 194.51184 161.932032 
L 194.51184 161.2224 
L 197.400459 159.803136 
L 197.400459 159.093504 
L 198.857219 158.738688 
L 198.857219 158.029056 
L 201.770741 156.609792 
L 203.240169 155.545344 
L 203.240169 154.480896 
L 206.204804 151.642368 
L 209.209028 149.868288 
L 210.731408 148.626432 
L 213.817942 146.852352 
L 213.817942 145.965312 
L 216.932925 144.191232 
L 216.932925 143.659008 
L 218.497594 143.126784 
L 223.235745 140.997888 
L 223.235745 139.93344 
L 224.845119 138.868992 
L 224.845119 138.15936 
L 228.063866 136.740096 
L 229.688714 135.675648 
L 231.329338 134.966016 
L 231.329338 133.901568 
L 232.986046 132.83712 
L 236.315865 131.417856 
L 236.315865 130.708224 
L 239.69555 128.579328 
L 239.69555 127.51488 
L 241.402461 126.450432 
L 246.575807 122.19264 
L 250.114841 118.64448 
L 257.423334 112.967424 
L 259.300937 111.54816 
L 259.300937 110.483712 
L 261.199636 109.419264 
L 266.960958 107.290368 
L 266.960958 106.22592 
L 268.925891 105.161472 
L 268.925891 104.45184 
L 272.855757 103.032576 
L 276.855523 100.90368 
L 276.855523 99.839232 
L 278.891478 98.774784 
L 285.074441 96.645888 
L 285.074441 95.936256 
L 287.186744 95.226624 
L 287.186744 94.871808 
L 291.411349 94.162176 
L 291.411349 93.452544 
L 293.55039 92.742912 
L 293.55039 91.678464 
L 302.189537 87.420672 
L 306.666136 84.582144 
L 308.949707 83.695104 
L 308.949707 82.808064 
L 311.264559 81.921024 
L 315.926415 80.856576 
L 315.926415 80.679168 
L 320.653478 79.61472 
L 320.653478 79.437312 
L 323.033537 79.61472 
L 323.033537 79.259904 
L 327.793656 78.550272 
L 327.793656 77.131008 
L 335.001837 73.937664 
L 337.450883 72.5184 
L 342.458098 68.97024 
L 347.618223 66.131712 
L 355.666443 63.470592 
L 355.666443 62.583552 
L 358.436676 62.051328 
L 358.436676 61.519104 
L 361.206909 60.98688 
L 363.932461 60.809472 
L 366.702694 60.277248 
L 366.702694 59.745024 
L 372.335502 57.616128 
L 372.335502 56.906496 
L 375.199641 56.196864 
L 383.941938 53.00352 
L 383.941938 51.584256 
L 386.959513 50.164992 
L 393.049529 48.036096 
L 396.178867 47.503872 
L 402.616945 45.729792 
L 402.616945 44.842752 
L 405.930361 43.955712 
L 405.930361 43.068672 
L 419.186575 40.939776 
L 422.635232 39.875328 
L 422.635232 38.81088 
L 426.155737 37.746432 
L 426.155737 37.0368 
L 433.196747 35.617536 
L 436.792156 34.553088 
L 440.465726 33.843456 
L 440.465726 32.779008 
L 447.976136 30.650112 
L 451.816687 29.94048 
L 451.816687 29.230848 
L 455.746552 28.1664 
L 461.8 27.082222 
L 461.8 27.082222 
" clip-path="url(#p041ed7ac78)" style="fill: none; stroke-dasharray: 1.85,0.8; stroke-dashoffset: 0; stroke: #80ffb4; stroke-width: 0.5"/>
   </g>
   <g id="line2d_32">
    <path d="M 60.996711 302.084352 
L 61.854499 301.019904 
L 62.716663 299.60064 
L 62.716663 298.181376 
L 66.196453 292.50432 
L 68.850704 287.18208 
L 73.369258 280.08576 
L 73.369258 279.021312 
L 77.057939 274.76352 
L 77.057939 273.344256 
L 80.808015 267.6672 
L 84.637839 260.57088 
L 88.556479 254.893824 
L 89.550504 253.829376 
L 89.550504 252.764928 
L 92.556176 249.571584 
L 92.556176 248.861952 
L 96.622063 244.60416 
L 96.622063 243.539712 
L 99.719559 240.346368 
L 100.762672 239.636736 
L 100.762672 238.572288 
L 102.861855 236.443392 
L 103.918006 235.73376 
L 103.918006 235.024128 
L 104.9808 233.95968 
L 107.113114 232.540416 
L 107.113114 231.830784 
L 109.26578 230.41152 
L 109.26578 229.701888 
L 110.349012 229.347072 
L 111.432244 228.63744 
L 111.432244 227.927808 
L 112.522465 227.218176 
L 113.612686 226.153728 
L 113.612686 225.08928 
L 114.709986 224.024832 
L 121.403281 215.509248 
L 122.545066 214.089984 
L 123.694619 213.025536 
L 123.694619 211.961088 
L 127.17488 209.832192 
L 127.17488 209.12256 
L 128.348381 208.058112 
L 128.348381 206.993664 
L 130.695385 205.5744 
L 133.067122 203.445504 
L 134.265592 202.02624 
L 134.265592 200.606976 
L 139.11989 194.92992 
L 142.847617 189.60768 
L 146.659435 185.349888 
L 149.24927 183.220992 
L 149.24927 182.156544 
L 151.86918 180.027648 
L 151.86918 179.318016 
L 153.18937 178.608384 
L 157.181288 175.41504 
L 157.181288 173.995776 
L 162.621667 168.31872 
L 169.663655 159.44832 
L 177.011906 150.57792 
L 178.520694 148.80384 
L 184.694278 143.126784 
L 186.273569 142.062336 
L 186.273569 140.997888 
L 189.461951 138.868992 
L 191.071325 138.15936 
L 191.071325 137.449728 
L 195.961645 134.256384 
L 195.961645 133.191936 
L 199.275061 130.353408 
L 202.638015 128.224512 
L 204.344926 126.805248 
L 207.81136 124.676352 
L 207.81136 123.96672 
L 209.571613 123.257088 
L 211.331865 123.07968 
L 211.331865 122.902272 
L 213.110646 122.724864 
L 213.110646 122.19264 
L 214.889428 121.660416 
L 214.889428 121.483008 
L 218.428461 120.41856 
L 220.207243 119.53152 
L 222.004947 118.999296 
L 222.004947 117.934848 
L 225.639017 115.805952 
L 227.475802 115.09632 
L 227.475802 114.386688 
L 233.067343 111.193344 
L 233.067343 110.128896 
L 242.692297 103.032576 
L 244.680347 101.613312 
L 248.728019 99.484416 
L 250.788802 98.774784 
L 250.788802 98.065152 
L 252.875027 97.35552 
L 252.875027 96.645888 
L 254.961252 95.936256 
L 254.961252 95.226624 
L 257.047477 94.162176 
L 259.133702 93.452544 
L 263.385046 91.323648 
L 267.74611 88.48512 
L 267.74611 87.420672 
L 269.969587 86.356224 
L 276.729757 84.227328 
L 276.729757 83.517696 
L 279.04461 82.808064 
L 279.04461 82.098432 
L 283.674315 80.679168 
L 283.674315 79.61472 
L 286.021318 79.082496 
L 288.368321 78.195456 
L 295.611488 77.131008 
L 295.611488 76.776192 
L 298.09655 76.9536 
L 298.09655 77.131008 
L 300.545597 77.308416 
L 300.545597 77.485824 
L 302.959657 77.131008 
L 302.959657 76.776192 
L 307.753777 75.002112 
L 312.616884 73.582848 
L 317.624099 71.808768 
L 320.184466 71.276544 
L 320.184466 70.74432 
L 322.784223 70.212096 
L 322.784223 70.212096 
L 325.34459 70.212096 
L 325.34459 70.566912 
L 330.465325 70.212096 
L 330.465325 69.679872 
L 333.065082 69.502464 
L 333.065082 68.97024 
L 338.185816 67.905792 
L 340.785573 66.841344 
L 340.785573 65.776896 
L 346.06633 62.938368 
L 357.060809 58.680576 
L 359.924948 57.616128 
L 359.924948 56.906496 
L 362.838469 56.196864 
L 362.838469 55.842048 
L 365.751991 55.487232 
L 368.665512 55.487232 
L 368.665512 55.132416 
L 371.630147 54.7776 
L 371.630147 54.422784 
L 374.594783 54.067968 
L 374.594783 53.713152 
L 377.559418 53.00352 
L 380.524054 52.648704 
L 380.524054 51.939072 
L 389.631645 49.810176 
L 389.631645 49.100544 
L 395.890321 46.971648 
L 395.890321 45.9072 
L 399.078702 44.842752 
L 405.516781 42.004224 
L 408.830197 40.939776 
L 419.179044 36.681984 
L 422.774453 35.26272 
L 422.774453 34.198272 
L 426.448023 33.133824 
L 437.717349 31.004928 
L 437.717349 29.94048 
L 441.647215 29.230848 
L 441.647215 28.521216 
L 453.53038 26.39232 
L 453.53038 25.682688 
L 461.8 24.258975 
L 461.8 24.258975 
" clip-path="url(#p041ed7ac78)" style="fill: none; stroke-dasharray: 1.85,0.8; stroke-dashoffset: 0; stroke: #80ffb4; stroke-width: 0.5"/>
   </g>
   <g id="line2d_33">
    <path d="M 61.867496 299.60064 
L 62.734082 298.536192 
L 62.734082 297.471744 
L 64.476187 295.342848 
L 64.476187 294.633216 
L 65.351753 293.923584 
L 66.227319 292.859136 
L 67.99218 291.439872 
L 67.99218 290.375424 
L 69.770961 288.246528 
L 69.770961 287.536896 
L 73.361665 284.698368 
L 73.361665 283.988736 
L 74.270182 283.279104 
L 74.270182 282.569472 
L 75.1787 281.85984 
L 76.087217 281.505024 
L 76.087217 280.795392 
L 77.000645 280.440576 
L 78.832466 279.021312 
L 78.832466 278.31168 
L 79.755877 277.247232 
L 79.755877 276.5376 
L 81.602699 275.118336 
L 83.464799 272.98944 
L 83.464799 271.570176 
L 86.286447 267.312384 
L 87.235797 266.247936 
L 91.087445 260.57088 
L 91.087445 259.151616 
L 94.023487 255.958272 
L 95.011699 255.24864 
L 96.005723 254.184192 
L 96.005723 253.119744 
L 97.00563 252.410112 
L 98.005537 252.055296 
L 98.005537 251.70048 
L 99.011395 251.345664 
L 100.017254 250.636032 
L 100.017254 249.571584 
L 103.046876 247.442688 
L 104.064853 246.37824 
L 104.064853 245.313792 
L 108.180251 241.056 
L 108.180251 239.636736 
L 112.372219 233.95968 
L 118.851619 223.3152 
L 119.956091 221.54112 
L 125.5894 214.4448 
L 125.5894 213.025536 
L 126.738952 211.606272 
L 132.566549 206.284032 
L 132.566549 205.5744 
L 134.946608 204.155136 
L 134.946608 203.445504 
L 136.145078 202.735872 
L 136.145078 201.671424 
L 140.964762 198.832896 
L 142.189285 197.768448 
L 142.189285 196.704 
L 143.422746 195.639552 
L 143.422746 195.107328 
L 144.656208 194.575104 
L 145.88967 194.397696 
L 147.132201 193.865472 
L 148.383936 193.688064 
L 148.383936 193.15584 
L 149.645012 192.978432 
L 149.645012 192.801024 
L 150.896747 192.623616 
L 150.896747 192.446208 
L 152.148482 191.736576 
L 152.148482 191.026944 
L 154.651952 188.898048 
L 157.183586 186.05952 
L 161.053605 180.73728 
L 163.683749 178.253568 
L 166.355478 176.479488 
L 167.707352 175.947264 
L 167.707352 175.41504 
L 169.070128 175.237632 
L 169.070128 175.060224 
L 170.422002 174.882816 
L 170.422002 174.705408 
L 171.773876 174.350592 
L 171.773876 173.995776 
L 174.477623 172.576512 
L 175.840399 171.512064 
L 175.840399 170.447616 
L 177.214255 169.028352 
L 181.369791 165.835008 
L 184.198028 162.99648 
L 184.198028 161.577216 
L 188.506477 158.383872 
L 189.963238 157.67424 
L 191.432666 156.609792 
L 191.432666 155.545344 
L 194.397302 153.416448 
L 194.397302 152.352 
L 195.892737 151.287552 
L 197.388173 149.868288 
L 200.419341 148.094208 
L 205.070544 145.965312 
L 205.070544 145.25568 
L 206.649836 144.546048 
L 206.649836 143.836416 
L 209.764819 142.417152 
L 212.908779 139.93344 
L 219.377816 132.83712 
L 226.104388 125.7408 
L 227.828717 123.96672 
L 234.907561 118.289664 
L 236.724596 117.225216 
L 236.724596 116.160768 
L 242.255135 112.967424 
L 242.255135 112.257792 
L 249.829315 108 
L 249.829315 106.580736 
L 253.71401 103.742208 
L 257.666992 101.968128 
L 259.678709 100.726272 
L 263.775447 98.952192 
L 263.775447 98.065152 
L 267.922455 96.291072 
L 267.922455 95.404032 
L 270.008681 94.516992 
L 274.207208 91.678464 
L 276.346249 90.791424 
L 280.707314 88.307712 
L 285.183914 86.888448 
L 285.183914 86.533632 
L 287.467484 86.178816 
L 292.004178 86.178816 
L 292.004178 86.001408 
L 294.257301 85.824 
L 294.257301 85.646592 
L 296.510424 84.93696 
L 298.763547 84.582144 
L 298.763547 84.227328 
L 301.047118 83.872512 
L 305.645541 82.453248 
L 305.645541 80.679168 
L 310.307396 78.550272 
L 312.6544 77.84064 
L 322.382628 73.582848 
L 322.382628 72.5184 
L 324.904781 71.453952 
L 324.904781 70.389504 
L 327.426934 69.325056 
L 329.949086 68.792832 
L 335.109211 67.018752 
L 337.749589 65.776896 
L 340.431879 64.889856 
L 340.431879 64.002816 
L 343.157431 63.115776 
L 348.565272 62.051328 
L 348.565272 61.87392 
L 354.105739 61.164288 
L 354.105739 60.809472 
L 356.922142 60.454656 
L 356.922142 59.745024 
L 365.325183 58.680576 
L 365.325183 57.970944 
L 371.053462 55.842048 
L 371.053462 54.7776 
L 373.966983 53.713152 
L 379.84514 50.874624 
L 382.862715 49.810176 
L 389.064493 46.971648 
L 395.502572 44.842752 
L 395.502572 44.13312 
L 402.129404 42.713856 
L 402.129404 42.004224 
L 405.509089 41.649408 
L 405.509089 40.939776 
L 415.717115 39.875328 
L 415.717115 39.520512 
L 419.23762 39.165696 
L 419.23762 38.81088 
L 422.758125 38.456064 
L 422.758125 38.101248 
L 426.27863 37.391616 
L 426.27863 36.681984 
L 429.799134 35.617536 
L 433.319639 34.907904 
L 444.343823 31.71456 
L 448.184374 30.650112 
L 448.184374 29.585664 
L 456.044106 28.1664 
L 456.044106 27.456768 
L 460.067539 27.101952 
L 461.8 26.79639 
L 461.8 26.79639 
" clip-path="url(#p041ed7ac78)" style="fill: none; stroke-dasharray: 1.85,0.8; stroke-dashoffset: 0; stroke: #80ffb4; stroke-width: 0.5"/>
   </g>
   <g id="line2d_34">
    <path d="M 61.1712 300.640782 
L 62.127575 299.70678 
L 62.715549 298.901432 
L 62.846839 297.894565 
L 64.469992 295.684619 
L 64.597779 295.291513 
L 65.326481 294.403587 
L 65.45209 293.88276 
L 66.210042 292.858717 
L 66.32988 292.340504 
L 67.976378 290.250621 
L 68.120801 289.686321 
L 71.535091 284.832834 
L 71.664096 284.325301 
L 73.34477 282.351665 
L 73.490528 281.624297 
L 74.239809 280.944647 
L 74.393853 280.568565 
L 75.145262 279.888037 
L 75.307687 279.385694 
L 76.057414 278.710362 
L 76.228284 278.320209 
L 76.972308 277.652098 
L 77.196741 276.722863 
L 78.793411 274.982081 
L 78.940391 274.57422 
L 79.74167 273.658409 
L 79.895226 273.264453 
L 80.679127 272.4722 
L 80.839184 271.936551 
L 82.559529 269.656367 
L 82.732627 269.199104 
L 83.437107 268.320955 
L 83.616291 267.595963 
L 85.285916 265.287376 
L 86.325454 264.009096 
L 86.524669 263.434173 
L 88.239446 261.424721 
L 88.451935 260.929605 
L 89.536691 259.730534 
L 89.684178 259.214966 
L 90.205766 258.646819 
L 90.356343 258.261201 
L 91.042591 257.599822 
L 91.197032 256.991465 
L 92.538916 255.705066 
L 92.700267 255.314224 
L 94.10219 253.868761 
L 94.270761 253.492171 
L 95.999886 251.943279 
L 96.266195 250.994426 
L 96.53435 250.741805 
L 96.714153 250.217797 
L 99.90103 247.37224 
L 99.998593 247.292553 
L 100.194394 246.778309 
L 100.687862 246.376979 
L 100.886846 245.846514 
L 101.9978 244.819933 
L 102.202833 244.276159 
L 103.87756 242.755321 
L 104.413698 241.262188 
L 106.395745 239.386122 
L 107.074904 238.768177 
L 107.303384 238.32455 
L 108.111406 237.593879 
L 108.344673 236.880336 
L 109.169624 235.95075 
L 109.407778 235.475501 
L 110.250011 234.716842 
L 110.493154 234.145773 
L 111.353032 233.377943 
L 111.601269 232.920637 
L 113.114952 231.431248 
L 113.499957 231.00626 
L 113.758109 230.104085 
L 114.539739 229.159977 
L 114.802693 228.502932 
L 119.892388 222.350064 
L 120.180061 221.674487 
L 121.051075 220.752488 
L 121.344099 220.206626 
L 123.585345 217.927648 
L 123.890072 217.274151 
L 124.349803 216.840732 
L 124.658061 216.314775 
L 125.434947 215.58616 
L 125.591401 214.978398 
L 128.307014 212.728686 
L 128.470092 212.269716 
L 129.954825 211.243828 
L 130.288968 210.803516 
L 131.641039 209.857076 
L 132.498825 209.270051 
L 132.844715 208.800281 
L 133.716447 208.129978 
L 134.244325 207.67905 
L 134.421097 207.055393 
L 134.775865 206.783341 
L 135.132271 206.281145 
L 135.490324 206.014506 
L 135.669969 205.585084 
L 136.030504 205.316975 
L 136.211396 204.82764 
L 138.975377 202.781082 
L 139.351177 202.263069 
L 140.107991 201.52041 
L 140.298287 200.978998 
L 142.030822 199.186063 
L 142.225552 198.623205 
L 143.403404 197.335704 
L 143.799653 196.789264 
L 148.072382 192.992368 
L 148.281047 192.843184 
L 148.699821 192.36717 
L 149.12053 192.06771 
L 149.331612 191.562819 
L 151.037891 190.217412 
L 151.685897 189.669083 
L 151.902896 189.252011 
L 152.120395 189.08796 
L 152.5569 188.484708 
L 153.21544 187.92513 
L 153.435967 187.373768 
L 156.122298 184.993601 
L 157.034372 184.154157 
L 157.263706 183.483069 
L 158.186347 182.604196 
L 158.418338 182.079736 
L 165.135917 175.229902 
L 166.884116 173.836709 
L 167.642018 173.274237 
L 168.150203 172.719761 
L 169.688884 171.638843 
L 169.947405 171.238825 
L 171.248982 170.322765 
L 172.037154 169.601849 
L 175.788182 167.042149 
L 176.060771 166.490059 
L 176.607835 166.085345 
L 177.157425 165.512596 
L 178.264233 164.544434 
L 179.101057 163.900927 
L 179.381286 163.448115 
L 183.37304 159.991876 
L 183.953873 159.471524 
L 184.245295 158.741396 
L 186.007994 157.303937 
L 186.304153 156.707967 
L 188.69815 154.787222 
L 189.000514 154.227229 
L 190.829398 153.097257 
L 191.753364 151.87416 
L 194.24872 150.317919 
L 194.563886 149.531171 
L 195.831834 148.748452 
L 196.150651 148.163333 
L 197.11152 147.427604 
L 197.433288 146.952828 
L 198.7278 146.224381 
L 199.053296 145.789029 
L 201.022099 144.677548 
L 203.018304 143.504164 
L 203.353696 142.915412 
L 205.042293 141.70277 
L 205.382353 141.236747 
L 206.407246 140.570541 
L 206.750453 140.14469 
L 207.784834 139.573269 
L 208.131219 139.168092 
L 211.284858 137.533998 
L 212.350686 136.954939 
L 213.065341 136.59052 
L 213.423905 136.178969 
L 213.783296 135.941266 
L 214.143516 135.407904 
L 216.688426 133.677362 
L 217.055346 133.268922 
L 219.647594 131.654684 
L 221.903036 130.254236 
L 222.281983 129.645099 
L 223.042502 129.116113 
L 223.424077 128.483059 
L 224.574092 127.603123 
L 224.9592 127.081437 
L 231.243126 122.809979 
L 231.643615 122.192982 
L 232.850633 121.385361 
L 233.25483 120.768405 
L 236.110431 118.981401 
L 237.348427 117.596643 
L 239.430863 116.245895 
L 239.850236 115.620192 
L 241.961656 114.227146 
L 242.386867 113.689405 
L 246.258164 111.073277 
L 249.767352 108.717306 
L 250.210565 107.948322 
L 250.654801 107.672224 
L 251.100061 107.159382 
L 252.442013 106.328705 
L 252.891395 105.814752 
L 259.292668 101.963809 
L 259.75785 101.352456 
L 263.044308 99.829979 
L 263.518143 99.617965 
L 263.993071 99.092311 
L 266.865731 97.708518 
L 268.31702 95.958313 
L 268.803016 95.72412 
L 269.290133 95.274768 
L 273.227734 93.496902 
L 275.223915 92.573042 
L 276.228925 92.152757 
L 277.745149 90.856695 
L 278.761803 90.381986 
L 279.271888 89.930308 
L 281.840019 88.97953 
L 283.395157 88.47789 
L 283.91593 87.962564 
L 284.96108 87.655334 
L 285.485464 87.162987 
L 287.065884 86.73205 
L 287.595122 86.489903 
L 289.72431 86.205894 
L 291.334127 86.03617 
L 291.873209 85.717817 
L 293.497929 85.360442 
L 294.042002 84.877723 
L 296.230873 84.063332 
L 302.355315 82.66689 
L 302.919817 82.460651 
L 304.05273 81.849153 
L 305.190874 81.353464 
L 305.761916 80.507527 
L 308.059284 79.51244 
L 308.636941 79.2925 
L 309.215931 78.776838 
L 311.545275 77.975277 
L 313.896182 77.242814 
L 321.687983 74.610445 
L 322.297074 74.497048 
L 322.907569 74.038094 
L 324.132787 73.695963 
L 324.747517 73.578935 
L 325.363664 73.224653 
L 327.220644 72.828245 
L 327.842496 72.24689 
L 330.344275 71.627296 
L 330.973331 71.269113 
L 332.869215 70.725629 
L 333.504094 70.347825 
L 336.058286 69.415282 
L 339.284304 67.978305 
L 339.933978 67.66342 
L 341.237826 66.367632 
L 343.863613 65.096389 
L 347.847943 63.492429 
L 355.297134 61.199104 
L 355.98374 60.727706 
L 356.67193 60.568035 
L 357.361707 60.172083 
L 358.053076 60.013125 
L 358.746038 59.676393 
L 359.440599 59.516702 
L 360.136762 59.128863 
L 365.055068 58.293501 
L 365.76418 57.917527 
L 366.474928 57.783961 
L 367.187315 57.442662 
L 368.617021 57.085429 
L 370.053331 56.552909 
L 370.773971 56.344097 
L 371.496273 55.780918 
L 373.67319 54.85794 
L 374.402179 54.662207 
L 375.865205 54.049012 
L 379.552396 52.789439 
L 380.294945 52.569782 
L 381.039206 52.105695 
L 383.282305 51.382379 
L 384.033456 50.641454 
L 393.183552 47.169338 
L 394.733312 46.736552 
L 396.290229 45.737003 
L 401.796277 44.124022 
L 403.385812 43.148045 
L 404.982687 42.71719 
L 406.586936 41.816753 
L 411.444274 40.77825 
L 414.72 40.037332 
L 414.72 40.037332 
" clip-path="url(#p041ed7ac78)" style="fill: none; stroke-dasharray: 7.4,3.2; stroke-dashoffset: 0; stroke: #80ffb4; stroke-width: 2"/>
   </g>
   <g id="line2d_35">
    <path d="M 59.870221 302.084352 
L 59.870221 301.019904 
L 61.013938 299.60064 
L 62.166439 297.471744 
L 62.74714 296.05248 
L 62.74714 294.988032 
L 63.914562 292.859136 
L 65.091135 291.439872 
L 65.091135 290.375424 
L 65.684062 289.310976 
L 66.276989 288.601344 
L 66.276989 287.891712 
L 66.873054 287.536896 
L 68.068353 286.117632 
L 68.068353 285.408 
L 68.670792 284.343552 
L 68.670792 283.279104 
L 69.875671 281.150208 
L 70.481349 279.730944 
L 71.090301 278.666496 
L 73.55957 272.98944 
L 73.55957 271.570176 
L 74.185437 270.150912 
L 77.350136 265.715712 
L 77.350136 264.828672 
L 78.633977 263.054592 
L 78.633977 262.522368 
L 79.277726 261.990144 
L 79.921476 260.925696 
L 81.220117 259.506432 
L 81.220117 258.441984 
L 82.530072 256.313088 
L 82.530072 255.603456 
L 83.18888 254.893824 
L 84.510371 252.764928 
L 85.176975 252.055296 
L 85.176975 250.990848 
L 86.51812 248.861952 
L 87.192708 248.15232 
L 87.192708 247.442688 
L 89.232775 244.249344 
L 89.232775 243.184896 
L 91.297773 239.991552 
L 91.993181 239.28192 
L 92.692909 238.217472 
L 92.692909 237.153024 
L 93.39701 236.088576 
L 94.101111 235.378944 
L 94.135211 234.669312 
L 94.80964 233.95968 
L 96.231183 231.830784 
L 96.231183 230.766336 
L 97.666293 227.927808 
L 99.115262 225.798912 
L 101.324269 221.54112 
L 101.324269 220.121856 
L 104.323526 215.864064 
L 105.084716 214.4448 
L 105.084716 213.025536 
L 106.617453 210.89664 
L 108.166009 209.477376 
L 108.948344 208.412928 
L 108.948344 207.703296 
L 109.736149 206.993664 
L 109.736149 206.284032 
L 110.523954 205.5744 
L 111.311759 205.396992 
L 111.311759 204.864768 
L 112.105113 204.332544 
L 112.898466 203.445504 
L 113.697446 202.91328 
L 113.697446 202.381056 
L 116.105799 199.719936 
L 116.105799 198.832896 
L 119.365407 193.15584 
L 124.429434 182.51136 
L 125.29602 180.73728 
L 127.936506 177.011712 
L 129.731851 175.237632 
L 129.731851 174.350592 
L 131.541618 172.576512 
L 131.541618 171.689472 
L 132.450135 170.802432 
L 135.197967 166.54464 
L 140.903262 155.90016 
L 145.888828 148.80384 
L 145.888828 147.384576 
L 152.129432 138.868992 
L 155.379329 135.675648 
L 155.379329 134.966016 
L 156.483801 134.256384 
L 156.483801 133.546752 
L 158.692745 132.127488 
L 158.692745 131.06304 
L 159.808153 130.353408 
L 160.92356 129.28896 
L 163.188063 127.869696 
L 164.337615 126.805248 
L 164.337615 126.095616 
L 165.499019 125.385984 
L 165.499019 125.031168 
L 166.660422 124.676352 
L 167.821826 124.676352 
L 167.821826 124.321536 
L 168.995328 124.321536 
L 168.995328 123.96672 
L 170.168829 123.611904 
L 170.168829 123.257088 
L 171.342331 122.902272 
L 171.342331 122.547456 
L 173.689334 121.837824 
L 174.875188 121.128192 
L 174.875188 120.41856 
L 176.073658 119.354112 
L 176.073658 118.64448 
L 177.272127 117.934848 
L 178.470597 117.580032 
L 180.906477 116.160768 
L 180.906477 115.09632 
L 182.144457 114.031872 
L 182.144457 113.32224 
L 187.137951 110.483712 
L 187.137951 109.419264 
L 189.698318 107.290368 
L 189.698318 106.22592 
L 190.993216 105.516288 
L 192.288114 104.45184 
L 194.923436 103.032576 
L 196.264581 101.968128 
L 196.264581 100.90368 
L 197.621884 99.839232 
L 197.621884 98.774784 
L 200.33649 97.35552 
L 204.509364 95.758848 
L 204.509364 95.226624 
L 205.935391 95.049216 
L 205.935391 94.871808 
L 207.361418 94.6944 
L 207.361418 94.871808 
L 208.76962 94.6944 
L 208.76962 94.516992 
L 211.586024 93.80736 
L 211.586024 93.097728 
L 214.438078 91.678464 
L 214.438078 90.968832 
L 215.882388 90.2592 
L 218.789765 88.130304 
L 218.789765 87.065856 
L 226.322097 81.743616 
L 226.322097 80.679168 
L 229.451435 78.550272 
L 231.038141 78.018048 
L 231.038141 77.485824 
L 232.647515 76.598784 
L 235.889586 75.534336 
L 235.889586 75.356928 
L 239.178992 74.29248 
L 239.178992 73.760256 
L 240.8357 73.228032 
L 240.8357 72.163584 
L 244.149117 70.034688 
L 251.030887 64.357632 
L 252.81908 62.938368 
L 256.482937 60.809472 
L 256.482937 59.745024 
L 260.238142 57.616128 
L 260.238142 56.55168 
L 262.147568 55.487232 
L 267.975766 51.22944 
L 274.122001 46.971648 
L 278.414054 44.842752 
L 278.414054 43.778304 
L 280.622998 42.713856 
L 282.831942 42.004224 
L 282.831942 41.294592 
L 285.085065 40.58496 
L 289.637293 38.456064 
L 289.637293 37.391616 
L 294.331299 34.553088 
L 299.177285 32.424192 
L 301.680756 31.004928 
L 306.861033 28.876032 
L 306.861033 27.811584 
L 312.225612 25.682688 
L 312.225612 24.61824 
L 314.973323 23.908608 
L 317.721034 22.84416 
L 326.390692 20.715264 
L 326.390692 20.005632 
L 329.435453 19.296 
L 329.435453 18.586368 
L 332.480214 18.231552 
L 332.480214 17.876736 
L 341.699073 15.74784 
L 341.699073 15.038208 
L 351.449984 11.844864 
L 351.449984 10.780416 
L 358.277629 7.941888 
L 365.432204 5.812992 
L 369.187409 4.393728 
L 377.095537 2.264832 
L 377.095537 1.200384 
L 385.440438 -0.21888 
L 385.440438 -0.928512 
L 385.876935 -1 
L 385.876935 -1 
" clip-path="url(#p041ed7ac78)" style="fill: none; stroke-dasharray: 1.85,0.8; stroke-dashoffset: 0; stroke: #ff0000; stroke-width: 0.5"/>
   </g>
   <g id="line2d_36">
    <path d="M 59.864474 301.019904 
L 60.436332 299.955456 
L 62.753245 294.2784 
L 62.753245 292.859136 
L 63.339996 291.439872 
L 64.516569 289.310976 
L 65.109497 288.601344 
L 65.705561 287.536896 
L 66.304796 286.827264 
L 66.304796 286.117632 
L 66.907235 285.762816 
L 66.907235 285.408 
L 68.112114 285.408 
L 68.112114 285.408 
L 68.714553 285.053184 
L 68.714553 284.698368 
L 69.316992 283.988736 
L 69.316992 283.63392 
L 70.521871 282.214656 
L 71.736501 280.08576 
L 71.736501 278.666496 
L 74.195622 272.98944 
L 76.706163 265.89312 
L 79.92512 258.7968 
L 79.92512 257.377536 
L 81.235075 254.539008 
L 82.556567 252.410112 
L 83.223171 250.990848 
L 84.568331 249.216768 
L 84.568331 248.329728 
L 85.925634 246.555648 
L 85.925634 245.668608 
L 86.608399 244.781568 
L 87.28705 243.539712 
L 89.347885 240.701184 
L 90.743021 238.572288 
L 90.743021 237.862656 
L 91.447121 237.153024 
L 91.447121 236.443392 
L 92.855323 235.024128 
L 92.855323 233.95968 
L 93.563853 232.895232 
L 94.985395 230.056704 
L 95.702951 228.992256 
L 97.151919 226.153728 
L 98.619767 224.024832 
L 98.619767 222.960384 
L 99.360926 221.895936 
L 100.102085 221.186304 
L 100.102085 220.476672 
L 100.848152 219.76704 
L 102.345261 217.638144 
L 102.345261 216.573696 
L 104.618614 212.315904 
L 105.384982 211.251456 
L 108.503678 205.5744 
L 108.503678 204.509952 
L 111.694051 200.25216 
L 111.694051 198.832896 
L 114.95366 194.575104 
L 115.782014 193.15584 
L 115.782014 192.091392 
L 116.616504 191.026944 
L 119.13875 188.898048 
L 119.13875 187.8336 
L 119.992206 186.769152 
L 119.992206 185.704704 
L 120.845662 184.640256 
L 121.699117 183.930624 
L 123.425674 181.801728 
L 125.179103 178.9632 
L 125.179103 177.543936 
L 128.748562 171.86688 
L 134.312928 161.2224 
L 135.267641 159.44832 
L 137.201688 156.609792 
L 140.166476 153.416448 
L 140.166476 152.706816 
L 141.172334 151.997184 
L 141.172334 151.287552 
L 143.184051 150.57792 
L 143.184051 149.868288 
L 144.198971 149.158656 
L 145.213892 148.094208 
L 145.213892 147.02976 
L 146.238038 145.965312 
L 149.33884 141.70752 
L 151.454496 138.15936 
L 156.924272 131.06304 
L 156.924272 129.643776 
L 159.177395 127.51488 
L 162.626292 125.918208 
L 162.626292 125.385984 
L 163.799794 125.208576 
L 163.799794 125.031168 
L 164.973295 124.85376 
L 164.973295 124.676352 
L 166.134699 124.144128 
L 166.134699 123.611904 
L 168.457506 121.483008 
L 170.816862 118.64448 
L 173.226688 115.09632 
L 174.451212 113.677056 
L 179.486909 109.419264 
L 179.486909 107.645184 
L 180.781808 106.935552 
L 184.666845 105.871104 
L 184.666845 105.161472 
L 185.992211 104.45184 
L 185.992211 103.742208 
L 187.317578 103.5648 
L 187.317578 103.387392 
L 189.968311 102.322944 
L 191.309455 101.435904 
L 191.309455 100.548864 
L 196.739061 95.58144 
L 199.53808 92.03328 
L 205.353802 86.356224 
L 206.855884 85.291776 
L 206.855884 84.227328 
L 211.443879 81.033984 
L 211.443879 80.324352 
L 213.008548 79.259904 
L 216.159923 77.84064 
L 217.769297 77.485824 
L 217.769297 76.776192 
L 219.401995 76.421376 
L 219.401995 76.06656 
L 221.034693 75.711744 
L 221.034693 75.356928 
L 222.66739 74.647296 
L 222.66739 73.937664 
L 225.932786 72.5184 
L 229.270929 70.389504 
L 230.977841 68.97024 
L 230.977841 67.905792 
L 237.992629 63.648 
L 237.992629 62.228736 
L 239.809664 60.809472 
L 245.351123 57.616128 
L 249.202897 55.842048 
L 249.202897 54.955008 
L 253.155744 53.180928 
L 253.155744 52.293888 
L 255.167461 51.406848 
L 257.143885 50.164992 
L 261.203896 48.390912 
L 265.415708 45.552384 
L 267.582173 44.487936 
L 267.582173 43.423488 
L 274.253184 40.230144 
L 274.253184 39.165696 
L 278.851394 37.0368 
L 283.595337 35.617536 
L 286.044384 34.553088 
L 286.044384 34.020864 
L 288.547854 33.48864 
L 288.547854 33.311232 
L 291.051324 33.133824 
L 293.554794 33.311232 
L 293.554794 33.48864 
L 296.115161 33.666048 
L 296.115161 33.48864 
L 298.618631 33.311232 
L 298.618631 33.666048 
L 298.618631 33.48864 
L 301.122101 33.311232 
L 303.571148 32.779008 
L 306.074618 32.6016 
L 306.074618 32.069376 
L 308.634985 31.182336 
L 313.698822 30.117888 
L 313.698822 29.94048 
L 318.938643 28.521216 
L 318.938643 28.1664 
L 321.620932 27.811584 
L 321.620932 27.456768 
L 324.303222 27.101952 
L 326.985511 27.101952 
L 326.985511 26.747136 
L 329.733222 26.747136 
L 329.733222 26.39232 
L 335.228644 25.682688 
L 335.228644 25.327872 
L 340.724066 23.908608 
L 340.724066 23.198976 
L 352.210128 20.360448 
L 352.210128 19.296 
L 355.254889 18.586368 
L 355.254889 17.876736 
L 361.344411 16.457472 
L 364.473749 15.393024 
L 364.473749 14.683392 
L 367.692496 13.618944 
L 374.224659 12.19968 
L 377.638482 11.844864 
L 377.638482 11.135232 
L 381.158987 10.780416 
L 381.158987 10.4256 
L 384.679491 10.4256 
L 384.679491 10.4256 
L 388.199996 10.070784 
L 388.199996 9.715968 
L 391.720501 9.006336 
L 391.720501 8.65152 
L 395.241006 7.941888 
L 398.76151 7.587072 
L 406.150785 6.167808 
L 406.150785 5.10336 
L 410.03548 4.393728 
L 410.03548 3.684096 
L 413.920174 2.974464 
L 417.804869 2.797056 
L 421.828303 2.264832 
L 421.828303 1.732608 
L 426.000753 0.845568 
L 430.173203 0.313344 
L 430.173203 -0.21888 
L 434.506132 -0.396288 
L 439.260579 -1 
L 439.260579 -1 
" clip-path="url(#p041ed7ac78)" style="fill: none; stroke-dasharray: 1.85,0.8; stroke-dashoffset: 0; stroke: #ff0000; stroke-width: 0.5"/>
   </g>
   <g id="line2d_37">
    <path d="M 59.870221 301.37472 
L 61.016856 299.245824 
L 61.016856 298.181376 
L 63.336716 293.923584 
L 63.923467 292.50432 
L 63.923467 291.085056 
L 66.292104 285.408 
L 66.891339 283.63392 
L 68.099456 280.795392 
L 69.936278 277.602048 
L 69.936278 276.892416 
L 70.555267 276.182784 
L 70.555267 275.827968 
L 71.793247 275.118336 
L 71.793247 274.76352 
L 72.415657 274.408704 
L 72.93253 273.699072 
L 73.038067 272.98944 
L 73.660476 272.279808 
L 73.660476 271.21536 
L 74.286344 270.150912 
L 76.174475 265.89312 
L 78.094792 260.57088 
L 80.04841 256.313088 
L 81.369901 254.184192 
L 81.369901 253.119744 
L 82.70311 250.990848 
L 82.70311 249.9264 
L 84.718842 247.797504 
L 85.397494 247.442688 
L 86.080258 246.733056 
L 86.080258 245.313792 
L 86.767186 244.60416 
L 86.767186 243.894528 
L 87.449951 243.184896 
L 88.132715 242.120448 
L 89.510785 239.28192 
L 91.610022 233.95968 
L 95.198089 226.86336 
L 95.198089 225.444096 
L 96.661156 223.3152 
L 98.138629 221.895936 
L 98.884696 221.363712 
L 98.884696 220.831488 
L 99.635737 220.65408 
L 99.635737 220.476672 
L 100.386778 220.299264 
L 100.386778 220.121856 
L 101.137819 219.944448 
L 101.137819 219.76704 
L 102.629954 219.412224 
L 103.380995 218.702592 
L 103.380995 218.347776 
L 104.137076 217.638144 
L 104.137076 216.928512 
L 105.64924 215.509248 
L 105.64924 214.4448 
L 108.709606 210.187008 
L 109.486545 208.767744 
L 110.268879 207.703296 
L 110.268879 206.638848 
L 112.637843 203.445504 
L 112.637843 202.735872 
L 114.235803 200.606976 
L 115.850965 199.187712 
L 115.850965 198.123264 
L 117.483663 195.994368 
L 117.483663 194.92992 
L 120.791122 190.672128 
L 122.478879 187.8336 
L 122.478879 186.414336 
L 123.332334 184.995072 
L 127.665776 179.672832 
L 127.665776 178.608384 
L 129.439889 177.543936 
L 129.439889 177.366528 
L 130.333985 177.18912 
L 131.228082 176.656896 
L 131.228082 176.124672 
L 132.129331 175.947264 
L 132.129331 175.41504 
L 133.917524 175.060224 
L 134.818773 174.350592 
L 134.818773 173.64096 
L 135.72729 172.576512 
L 135.72729 172.044288 
L 137.544325 170.97984 
L 139.38364 169.20576 
L 139.38364 168.31872 
L 141.238093 166.54464 
L 143.107937 165.480192 
L 143.107937 164.415744 
L 145.001318 162.286848 
L 145.001318 161.2224 
L 145.956031 160.157952 
L 147.873617 157.319424 
L 148.844791 156.254976 
L 150.812622 153.416448 
L 152.815437 151.287552 
L 152.815437 150.223104 
L 154.845278 148.094208 
L 154.845278 147.384576 
L 155.869425 146.674944 
L 157.927114 144.546048 
L 158.970227 143.836416 
L 158.970227 142.771968 
L 162.138743 139.578624 
L 162.138743 138.514176 
L 165.367807 134.256384 
L 166.461556 133.191936 
L 169.807997 128.934144 
L 170.945938 128.047104 
L 170.945938 127.160064 
L 173.245043 126.095616 
L 174.406446 125.918208 
L 174.406446 125.7408 
L 175.579948 125.208576 
L 175.579948 124.676352 
L 176.741352 124.144128 
L 176.741352 123.96672 
L 179.064159 122.547456 
L 181.423515 120.41856 
L 181.423515 119.53152 
L 182.621984 118.64448 
L 186.256334 117.047808 
L 186.256334 116.160768 
L 187.494314 115.628544 
L 187.494314 115.09632 
L 189.94336 114.741504 
L 191.18134 114.031872 
L 191.18134 113.32224 
L 192.433075 112.257792 
L 192.433075 111.193344 
L 200.087382 104.806656 
L 201.412748 103.742208 
L 201.412748 102.67776 
L 202.753893 101.613312 
L 202.753893 100.548864 
L 205.436182 98.419968 
L 208.167341 95.58144 
L 210.966359 92.03328 
L 215.299763 87.775488 
L 218.284163 85.646592 
L 218.284163 84.582144 
L 219.806543 83.517696 
L 221.328924 82.985472 
L 221.328924 82.453248 
L 222.872159 81.921024 
L 225.980062 80.146944 
L 225.980062 79.259904 
L 227.566769 78.018048 
L 232.327517 75.356928 
L 235.616923 72.5184 
L 235.616923 71.099136 
L 237.298358 69.679872 
L 242.419876 66.486528 
L 244.180129 65.067264 
L 245.968322 64.180224 
L 245.968322 63.293184 
L 249.602391 61.519104 
L 251.449213 60.98688 
L 251.449213 60.454656 
L 257.051241 57.793536 
L 257.051241 57.261312 
L 258.960667 56.196864 
L 264.788864 54.067968 
L 264.788864 53.00352 
L 266.800581 52.293888 
L 266.800581 51.584256 
L 270.824015 50.164992 
L 272.872309 49.100544 
L 272.872309 48.390912 
L 277.044759 46.262016 
L 281.336811 44.842752 
L 281.336811 43.778304 
L 285.754699 41.649408 
L 285.754699 40.58496 
L 288.007822 39.520512 
L 292.560051 36.681984 
L 294.907054 35.617536 
L 302.25651 31.359744 
L 304.816877 29.94048 
L 304.816877 28.521216 
L 307.436788 27.101952 
L 312.738987 24.973056 
L 315.486698 24.263424 
L 318.303102 23.198976 
L 321.191721 22.489344 
L 321.191721 21.779712 
L 324.156357 21.07008 
L 324.156357 20.360448 
L 327.120993 19.650816 
L 327.120993 19.296 
L 330.085628 18.586368 
L 333.050264 18.231552 
L 339.224362 16.812288 
L 339.224362 16.102656 
L 342.443109 15.393024 
L 342.443109 14.683392 
L 348.880604 13.264128 
L 348.880604 12.19968 
L 352.19402 11.135232 
L 358.921259 8.296704 
L 362.441764 6.87744 
L 369.831038 3.32928 
L 379.576279 -1 
L 379.576279 -1 
" clip-path="url(#p041ed7ac78)" style="fill: none; stroke-dasharray: 1.85,0.8; stroke-dashoffset: 0; stroke: #ff0000; stroke-width: 0.5"/>
   </g>
   <g id="line2d_38">
    <path d="M 61.1712 298.449769 
L 62.739173 295.132653 
L 62.883226 294.01172 
L 63.923219 291.911803 
L 64.040836 291.226194 
L 65.08126 289.462001 
L 65.220417 288.837445 
L 67.172564 285.186571 
L 68.04834 284.154835 
L 68.193764 283.725622 
L 68.667762 283.077215 
L 68.821807 282.3727 
L 69.933414 280.509906 
L 70.0763 280.050493 
L 71.729045 277.480036 
L 71.892734 276.606647 
L 72.950794 274.601857 
L 73.23633 273.894389 
L 73.527178 273.339269 
L 73.711699 272.150818 
L 76.662412 265.73932 
L 79.038943 260.474563 
L 79.895226 258.825359 
L 80.049846 258.067677 
L 81.216981 256.17263 
L 81.435616 255.107187 
L 82.502095 253.389332 
L 82.790593 252.356169 
L 85.158647 249.066839 
L 85.34977 248.497512 
L 85.865938 247.828898 
L 86.127611 246.717638 
L 86.725266 245.953075 
L 86.927254 245.452608 
L 87.130643 245.186766 
L 87.335442 244.666521 
L 88.310112 243.219078 
L 89.170932 241.766427 
L 89.389882 241.036181 
L 90.735835 238.535074 
L 90.965637 237.908225 
L 92.619498 235.177443 
L 92.862364 234.101299 
L 95.125365 230.113264 
L 95.298661 229.371585 
L 96.17722 227.99696 
L 96.355374 227.330291 
L 97.533597 225.421284 
L 98.842543 223.410846 
L 99.033006 223.027576 
L 100.09638 221.819398 
L 100.292633 221.379072 
L 100.687862 220.91001 
L 101.287576 220.16097 
L 101.489329 219.474018 
L 102.305705 218.635043 
L 102.512161 218.042558 
L 103.347562 216.88886 
L 103.664828 216.323163 
L 104.091274 215.723772 
L 104.305976 215.185863 
L 105.06527 214.077974 
L 105.284469 213.330254 
L 105.615168 212.886019 
L 105.836907 212.194453 
L 107.763515 209.415543 
L 108.46171 208.41801 
L 108.696595 207.737176 
L 108.932565 207.382877 
L 109.169624 206.822366 
L 109.647031 206.199743 
L 109.88739 205.674522 
L 110.250011 205.239507 
L 110.493154 204.594141 
L 111.477008 203.433219 
L 111.601269 203.294674 
L 111.850653 202.544051 
L 112.605735 201.632305 
L 112.859757 201.076971 
L 113.887631 199.733193 
L 115.732631 197.554356 
L 116.001093 196.524937 
L 116.270796 195.862574 
L 117.362118 194.392879 
L 117.638105 193.679658 
L 119.03728 191.874682 
L 119.321004 191.130712 
L 119.892388 190.246662 
L 120.180061 189.444362 
L 122.380379 185.949498 
L 122.679542 184.978252 
L 125.123119 180.97196 
L 125.434947 180.020815 
L 127.658445 176.889545 
L 127.981983 176.153109 
L 129.622219 174.278919 
L 129.954825 173.637772 
L 131.13109 172.31389 
L 131.641039 171.301602 
L 131.982968 170.950705 
L 132.326476 170.420676 
L 133.716447 168.756352 
L 134.775865 167.313311 
L 135.132271 166.539712 
L 137.122131 163.61597 
L 139.351177 160.756148 
L 139.728712 159.974253 
L 140.107991 159.486802 
L 140.489022 158.800112 
L 141.063869 158.15106 
L 141.25637 157.726893 
L 143.008977 156.347104 
L 143.205963 155.581134 
L 144.999414 153.551912 
L 145.403034 152.36362 
L 145.808517 151.883434 
L 146.011961 151.163011 
L 149.12053 146.92764 
L 154.100604 140.160713 
L 154.76985 139.419857 
L 155.21859 138.732935 
L 155.443737 138.282012 
L 156.349529 137.437652 
L 157.034372 136.066079 
L 158.650865 134.740151 
L 159.117529 133.662427 
L 161.963116 131.536924 
L 162.203819 131.007795 
L 162.445076 130.814412 
L 162.929262 130.279913 
L 163.904351 129.466803 
L 164.149531 129.270663 
L 164.395276 128.844045 
L 165.383937 128.061719 
L 165.881694 127.64353 
L 166.131435 127.498933 
L 166.632644 126.937484 
L 168.916885 125.101914 
L 169.430958 124.516612 
L 170.726551 123.353047 
L 170.987466 122.847448 
L 174.704087 120.098673 
L 174.974175 119.680452 
L 175.516221 119.282674 
L 176.333988 118.295143 
L 179.381286 116.271141 
L 179.662162 115.478721 
L 180.792156 114.714994 
L 181.076286 114.178163 
L 181.361071 113.985021 
L 181.646512 113.507459 
L 181.932612 113.328444 
L 182.219372 112.919793 
L 183.663122 112.258937 
L 184.537389 111.884666 
L 184.830156 111.508911 
L 185.712516 111.056537 
L 186.304153 110.263939 
L 186.898523 110.041172 
L 187.495637 109.177957 
L 189.607335 108.208035 
L 189.911796 107.733548 
L 191.136677 107.002004 
L 191.444665 106.222883 
L 192.372898 105.43025 
L 192.683737 104.836332 
L 196.150651 102.07178 
L 196.470203 101.448057 
L 197.433288 100.553179 
L 197.755799 99.900069 
L 200.692072 97.474513 
L 201.352887 96.994679 
L 201.684437 96.400545 
L 202.683684 95.68253 
L 203.018304 95.088303 
L 204.364519 94.129183 
L 204.703016 93.72791 
L 206.750453 92.394199 
L 207.094453 91.825974 
L 208.131219 91.243065 
L 210.226372 89.663078 
L 211.284858 88.914401 
L 211.639316 88.208706 
L 216.32235 84.926984 
L 217.423113 84.314509 
L 217.791728 83.874431 
L 218.161193 83.670793 
L 218.902681 82.554778 
L 221.147755 81.243062 
L 221.524961 80.877066 
L 222.661805 80.312408 
L 223.042502 79.873962 
L 225.732082 78.347914 
L 226.898103 76.908958 
L 229.254461 75.382145 
L 230.843558 74.446684 
L 231.243126 73.690107 
L 235.28984 71.264654 
L 235.699663 70.547745 
L 236.93481 69.761854 
L 237.762997 69.308161 
L 238.178524 68.608274 
L 239.012455 68.124662 
L 239.430863 67.706274 
L 240.691887 67.038226 
L 241.114169 66.439461 
L 245.824045 63.423046 
L 246.258164 62.868772 
L 248.883982 61.317009 
L 249.325158 60.762505 
L 252.891395 58.6563 
L 253.341814 58.134799 
L 256.066225 56.716888 
L 256.523966 56.106303 
L 256.982763 55.85126 
L 257.442618 55.425788 
L 260.224106 54.05554 
L 260.691437 53.488483 
L 262.099906 52.777693 
L 264.469095 51.378024 
L 264.946216 50.744033 
L 266.384193 49.963217 
L 266.865731 49.475924 
L 267.34838 49.224596 
L 267.832142 48.618661 
L 272.731556 46.013424 
L 273.227734 45.501395 
L 274.223525 44.955483 
L 274.723144 44.355096 
L 278.25289 42.698171 
L 278.761803 42.125929 
L 281.324024 41.208521 
L 281.840019 40.665304 
L 282.357205 40.475808 
L 282.875583 40.049423 
L 285.485464 38.99032 
L 286.011057 38.392971 
L 286.537863 38.009844 
L 289.190172 36.901509 
L 289.72431 36.335379 
L 292.413535 35.238524 
L 294.58733 34.587372 
L 296.230873 34.007879 
L 304.621146 30.846552 
L 305.190874 30.179148 
L 305.761916 29.985207 
L 306.334275 29.589558 
L 306.907954 28.987355 
L 309.215931 28.104997 
L 312.130972 27.126128 
L 312.71802 26.598071 
L 315.079785 25.934104 
L 321.080294 24.133662 
L 321.687983 23.653567 
L 324.132787 23.151983 
L 324.747517 22.809827 
L 325.981232 22.612954 
L 327.220644 21.943827 
L 329.090504 21.649366 
L 330.344275 21.116429 
L 332.235797 20.886074 
L 333.504094 20.556422 
L 334.778248 20.303602 
L 336.058286 19.895632 
L 338.636124 19.278648 
L 339.284304 18.888439 
L 340.585151 18.582524 
L 342.547695 17.385796 
L 348.517369 15.793381 
L 349.188338 15.252122 
L 351.210547 14.657558 
L 352.566471 13.501631 
L 354.612107 12.767148 
L 355.297134 12.284646 
L 360.834531 10.423494 
L 363.641736 9.435035 
L 364.347588 9.171226 
L 365.055068 8.672094 
L 370.053331 6.827558 
L 375.865205 5.07564 
L 376.599249 4.877587 
L 378.072421 3.92172 
L 384.78634 2.457538 
L 385.54096 2.07068 
L 387.815279 1.62839 
L 389.340248 1.177229 
L 391.640916 0.608273 
L 393.183552 0.104552 
L 393.957539 -0.08884 
L 394.733312 -0.619062 
L 396.708932 -1 
L 396.708932 -1 
" clip-path="url(#p041ed7ac78)" style="fill: none; stroke-dasharray: 7.4,3.2; stroke-dashoffset: 0; stroke: #ff0000; stroke-width: 2"/>
   </g>
   <g id="patch_3">
    <path d="M 57.6 307.584 
L 57.6 41.472 
" style="fill: none; stroke: #000000; stroke-width: 0.8; stroke-linejoin: miter; stroke-linecap: square"/>
   </g>
   <g id="patch_4">
    <path d="M 414.72 307.584 
L 414.72 41.472 
" style="fill: none; stroke: #000000; stroke-width: 0.8; stroke-linejoin: miter; stroke-linecap: square"/>
   </g>
   <g id="patch_5">
    <path d="M 57.6 307.584 
L 414.72 307.584 
" style="fill: none; stroke: #000000; stroke-width: 0.8; stroke-linejoin: miter; stroke-linecap: square"/>
   </g>
   <g id="patch_6">
    <path d="M 57.6 41.472 
L 414.72 41.472 
" style="fill: none; stroke: #000000; stroke-width: 0.8; stroke-linejoin: miter; stroke-linecap: square"/>
   </g>
   <g id="legend_1">
    <g id="patch_7">
     <path d="M 314.584 120.95195 
L 491.432437 120.95195 
Q 493.432437 120.95195 493.432437 118.95195 
L 493.432437 75.0832 
Q 493.432437 73.0832 491.432437 73.0832 
L 314.584 73.0832 
Q 312.584 73.0832 312.584 75.0832 
L 312.584 118.95195 
Q 312.584 120.95195 314.584 120.95195 
z
" style="fill: #ffffff; opacity: 0.8; stroke: #cccccc; stroke-linejoin: miter"/>
    </g>
    <g id="line2d_39">
     <path d="M 316.584 81.181637 
L 326.584 81.181637 
L 336.584 81.181637 
" style="fill: none; stroke-dasharray: 7.4,3.2; stroke-dashoffset: 0; stroke: #8000ff; stroke-width: 2"/>
    </g>
    <g id="text_16">
     <!-- Mean: N_e = [200], 1.000 kA -->
     <g transform="translate(344.584 84.681637) scale(0.1 -0.1)">
      <defs>
       <path id="DejaVuSans-4d" d="M 628 4666 
L 1569 4666 
L 2759 1491 
L 3956 4666 
L 4897 4666 
L 4897 0 
L 4281 0 
L 4281 4097 
L 3078 897 
L 2444 897 
L 1241 4097 
L 1241 0 
L 628 0 
L 628 4666 
z
" transform="scale(0.015625)"/>
       <path id="DejaVuSans-3a" d="M 750 794 
L 1409 794 
L 1409 0 
L 750 0 
L 750 794 
z
M 750 3309 
L 1409 3309 
L 1409 2516 
L 750 2516 
L 750 3309 
z
" transform="scale(0.015625)"/>
       <path id="DejaVuSans-4e" d="M 628 4666 
L 1478 4666 
L 3547 763 
L 3547 4666 
L 4159 4666 
L 4159 0 
L 3309 0 
L 1241 3903 
L 1241 0 
L 628 0 
L 628 4666 
z
" transform="scale(0.015625)"/>
       <path id="DejaVuSans-5f" d="M 3263 -1063 
L 3263 -1509 
L -63 -1509 
L -63 -1063 
L 3263 -1063 
z
" transform="scale(0.015625)"/>
       <path id="DejaVuSans-3d" d="M 678 2906 
L 4684 2906 
L 4684 2381 
L 678 2381 
L 678 2906 
z
M 678 1631 
L 4684 1631 
L 4684 1100 
L 678 1100 
L 678 1631 
z
" transform="scale(0.015625)"/>
       <path id="DejaVuSans-5b" d="M 550 4863 
L 1875 4863 
L 1875 4416 
L 1125 4416 
L 1125 -397 
L 1875 -397 
L 1875 -844 
L 550 -844 
L 550 4863 
z
" transform="scale(0.015625)"/>
       <path id="DejaVuSans-5d" d="M 1947 4863 
L 1947 -844 
L 622 -844 
L 622 -397 
L 1369 -397 
L 1369 4416 
L 622 4416 
L 622 4863 
L 1947 4863 
z
" transform="scale(0.015625)"/>
       <path id="DejaVuSans-2c" d="M 750 794 
L 1409 794 
L 1409 256 
L 897 -744 
L 494 -744 
L 750 256 
L 750 794 
z
" transform="scale(0.015625)"/>
       <path id="DejaVuSans-6b" d="M 581 4863 
L 1159 4863 
L 1159 1991 
L 2875 3500 
L 3609 3500 
L 1753 1863 
L 3688 0 
L 2938 0 
L 1159 1709 
L 1159 0 
L 581 0 
L 581 4863 
z
" transform="scale(0.015625)"/>
       <path id="DejaVuSans-41" d="M 2188 4044 
L 1331 1722 
L 3047 1722 
L 2188 4044 
z
M 1831 4666 
L 2547 4666 
L 4325 0 
L 3669 0 
L 3244 1197 
L 1141 1197 
L 716 0 
L 50 0 
L 1831 4666 
z
" transform="scale(0.015625)"/>
      </defs>
      <use xlink:href="#DejaVuSans-4d"/>
      <use xlink:href="#DejaVuSans-65" transform="translate(86.279297 0)"/>
      <use xlink:href="#DejaVuSans-61" transform="translate(147.802734 0)"/>
      <use xlink:href="#DejaVuSans-6e" transform="translate(209.082031 0)"/>
      <use xlink:href="#DejaVuSans-3a" transform="translate(272.460938 0)"/>
      <use xlink:href="#DejaVuSans-20" transform="translate(306.152344 0)"/>
      <use xlink:href="#DejaVuSans-4e" transform="translate(337.939453 0)"/>
      <use xlink:href="#DejaVuSans-5f" transform="translate(412.744141 0)"/>
      <use xlink:href="#DejaVuSans-65" transform="translate(462.744141 0)"/>
      <use xlink:href="#DejaVuSans-20" transform="translate(524.267578 0)"/>
      <use xlink:href="#DejaVuSans-3d" transform="translate(556.054688 0)"/>
      <use xlink:href="#DejaVuSans-20" transform="translate(639.84375 0)"/>
      <use xlink:href="#DejaVuSans-5b" transform="translate(671.630859 0)"/>
      <use xlink:href="#DejaVuSans-32" transform="translate(710.644531 0)"/>
      <use xlink:href="#DejaVuSans-30" transform="translate(774.267578 0)"/>
      <use xlink:href="#DejaVuSans-30" transform="translate(837.890625 0)"/>
      <use xlink:href="#DejaVuSans-5d" transform="translate(901.513672 0)"/>
      <use xlink:href="#DejaVuSans-2c" transform="translate(940.527344 0)"/>
      <use xlink:href="#DejaVuSans-20" transform="translate(972.314453 0)"/>
      <use xlink:href="#DejaVuSans-31" transform="translate(1004.101562 0)"/>
      <use xlink:href="#DejaVuSans-2e" transform="translate(1067.724609 0)"/>
      <use xlink:href="#DejaVuSans-30" transform="translate(1099.511719 0)"/>
      <use xlink:href="#DejaVuSans-30" transform="translate(1163.134766 0)"/>
      <use xlink:href="#DejaVuSans-30" transform="translate(1226.757812 0)"/>
      <use xlink:href="#DejaVuSans-20" transform="translate(1290.380859 0)"/>
      <use xlink:href="#DejaVuSans-6b" transform="translate(1322.167969 0)"/>
      <use xlink:href="#DejaVuSans-41" transform="translate(1380.078125 0)"/>
     </g>
    </g>
    <g id="line2d_40">
     <path d="M 316.584 96.137887 
L 326.584 96.137887 
L 336.584 96.137887 
" style="fill: none; stroke-dasharray: 7.4,3.2; stroke-dashoffset: 0; stroke: #80ffb4; stroke-width: 2"/>
    </g>
    <g id="text_17">
     <!-- Mean: N_e = [200], 1.999 kA -->
     <g transform="translate(344.584 99.637887) scale(0.1 -0.1)">
      <defs>
       <path id="DejaVuSans-39" d="M 703 97 
L 703 672 
Q 941 559 1184 500 
Q 1428 441 1663 441 
Q 2288 441 2617 861 
Q 2947 1281 2994 2138 
Q 2813 1869 2534 1725 
Q 2256 1581 1919 1581 
Q 1219 1581 811 2004 
Q 403 2428 403 3163 
Q 403 3881 828 4315 
Q 1253 4750 1959 4750 
Q 2769 4750 3195 4129 
Q 3622 3509 3622 2328 
Q 3622 1225 3098 567 
Q 2575 -91 1691 -91 
Q 1453 -91 1209 -44 
Q 966 3 703 97 
z
M 1959 2075 
Q 2384 2075 2632 2365 
Q 2881 2656 2881 3163 
Q 2881 3666 2632 3958 
Q 2384 4250 1959 4250 
Q 1534 4250 1286 3958 
Q 1038 3666 1038 3163 
Q 1038 2656 1286 2365 
Q 1534 2075 1959 2075 
z
" transform="scale(0.015625)"/>
      </defs>
      <use xlink:href="#DejaVuSans-4d"/>
      <use xlink:href="#DejaVuSans-65" transform="translate(86.279297 0)"/>
      <use xlink:href="#DejaVuSans-61" transform="translate(147.802734 0)"/>
      <use xlink:href="#DejaVuSans-6e" transform="translate(209.082031 0)"/>
      <use xlink:href="#DejaVuSans-3a" transform="translate(272.460938 0)"/>
      <use xlink:href="#DejaVuSans-20" transform="translate(306.152344 0)"/>
      <use xlink:href="#DejaVuSans-4e" transform="translate(337.939453 0)"/>
      <use xlink:href="#DejaVuSans-5f" transform="translate(412.744141 0)"/>
      <use xlink:href="#DejaVuSans-65" transform="translate(462.744141 0)"/>
      <use xlink:href="#DejaVuSans-20" transform="translate(524.267578 0)"/>
      <use xlink:href="#DejaVuSans-3d" transform="translate(556.054688 0)"/>
      <use xlink:href="#DejaVuSans-20" transform="translate(639.84375 0)"/>
      <use xlink:href="#DejaVuSans-5b" transform="translate(671.630859 0)"/>
      <use xlink:href="#DejaVuSans-32" transform="translate(710.644531 0)"/>
      <use xlink:href="#DejaVuSans-30" transform="translate(774.267578 0)"/>
      <use xlink:href="#DejaVuSans-30" transform="translate(837.890625 0)"/>
      <use xlink:href="#DejaVuSans-5d" transform="translate(901.513672 0)"/>
      <use xlink:href="#DejaVuSans-2c" transform="translate(940.527344 0)"/>
      <use xlink:href="#DejaVuSans-20" transform="translate(972.314453 0)"/>
      <use xlink:href="#DejaVuSans-31" transform="translate(1004.101562 0)"/>
      <use xlink:href="#DejaVuSans-2e" transform="translate(1067.724609 0)"/>
      <use xlink:href="#DejaVuSans-39" transform="translate(1099.511719 0)"/>
      <use xlink:href="#DejaVuSans-39" transform="translate(1163.134766 0)"/>
      <use xlink:href="#DejaVuSans-39" transform="translate(1226.757812 0)"/>
      <use xlink:href="#DejaVuSans-20" transform="translate(1290.380859 0)"/>
      <use xlink:href="#DejaVuSans-6b" transform="translate(1322.167969 0)"/>
      <use xlink:href="#DejaVuSans-41" transform="translate(1380.078125 0)"/>
     </g>
    </g>
    <g id="line2d_41">
     <path d="M 316.584 111.094137 
L 326.584 111.094137 
L 336.584 111.094137 
" style="fill: none; stroke-dasharray: 7.4,3.2; stroke-dashoffset: 0; stroke: #ff0000; stroke-width: 2"/>
    </g>
    <g id="text_18">
     <!-- Mean: N_e = [200], 2.999 kA -->
     <g transform="translate(344.584 114.594137) scale(0.1 -0.1)">
      <use xlink:href="#DejaVuSans-4d"/>
      <use xlink:href="#DejaVuSans-65" transform="translate(86.279297 0)"/>
      <use xlink:href="#DejaVuSans-61" transform="translate(147.802734 0)"/>
      <use xlink:href="#DejaVuSans-6e" transform="translate(209.082031 0)"/>
      <use xlink:href="#DejaVuSans-3a" transform="translate(272.460938 0)"/>
      <use xlink:href="#DejaVuSans-20" transform="translate(306.152344 0)"/>
      <use xlink:href="#DejaVuSans-4e" transform="translate(337.939453 0)"/>
      <use xlink:href="#DejaVuSans-5f" transform="translate(412.744141 0)"/>
      <use xlink:href="#DejaVuSans-65" transform="translate(462.744141 0)"/>
      <use xlink:href="#DejaVuSans-20" transform="translate(524.267578 0)"/>
      <use xlink:href="#DejaVuSans-3d" transform="translate(556.054688 0)"/>
      <use xlink:href="#DejaVuSans-20" transform="translate(639.84375 0)"/>
      <use xlink:href="#DejaVuSans-5b" transform="translate(671.630859 0)"/>
      <use xlink:href="#DejaVuSans-32" transform="translate(710.644531 0)"/>
      <use xlink:href="#DejaVuSans-30" transform="translate(774.267578 0)"/>
      <use xlink:href="#DejaVuSans-30" transform="translate(837.890625 0)"/>
      <use xlink:href="#DejaVuSans-5d" transform="translate(901.513672 0)"/>
      <use xlink:href="#DejaVuSans-2c" transform="translate(940.527344 0)"/>
      <use xlink:href="#DejaVuSans-20" transform="translate(972.314453 0)"/>
      <use xlink:href="#DejaVuSans-32" transform="translate(1004.101562 0)"/>
      <use xlink:href="#DejaVuSans-2e" transform="translate(1067.724609 0)"/>
      <use xlink:href="#DejaVuSans-39" transform="translate(1099.511719 0)"/>
      <use xlink:href="#DejaVuSans-39" transform="translate(1163.134766 0)"/>
      <use xlink:href="#DejaVuSans-39" transform="translate(1226.757812 0)"/>
      <use xlink:href="#DejaVuSans-20" transform="translate(1290.380859 0)"/>
      <use xlink:href="#DejaVuSans-6b" transform="translate(1322.167969 0)"/>
      <use xlink:href="#DejaVuSans-41" transform="translate(1380.078125 0)"/>
     </g>
    </g>
   </g>
  </g>
 </g>
 <defs>
  <clipPath id="p041ed7ac78">
   <rect x="57.6" y="41.472" width="357.12" height="266.112"/>
  </clipPath>
 </defs>
</svg>
