<?xml version="1.0" encoding="utf-8" standalone="no"?>
<!DOCTYPE svg PUBLIC "-//W3C//DTD SVG 1.1//EN"
  "http://www.w3.org/Graphics/SVG/1.1/DTD/svg11.dtd">
<svg xmlns:xlink="http://www.w3.org/1999/xlink" width="460.8pt" height="345.6pt" viewBox="0 0 460.8 345.6" xmlns="http://www.w3.org/2000/svg" version="1.1">
 <metadata>
  <rdf:RDF xmlns:dc="http://purl.org/dc/elements/1.1/" xmlns:cc="http://creativecommons.org/ns#" xmlns:rdf="http://www.w3.org/1999/02/22-rdf-syntax-ns#">
   <cc:Work>
    <dc:type rdf:resource="http://purl.org/dc/dcmitype/StillImage"/>
    <dc:date>2025-03-26T12:12:29.519824</dc:date>
    <dc:format>image/svg+xml</dc:format>
    <dc:creator>
     <cc:Agent>
      <dc:title>Matplotlib v3.10.0, https://matplotlib.org/</dc:title>
     </cc:Agent>
    </dc:creator>
   </cc:Work>
  </rdf:RDF>
 </metadata>
 <defs>
  <style type="text/css">*{stroke-linejoin: round; stroke-linecap: butt}</style>
 </defs>
 <g id="figure_1">
  <g id="patch_1">
   <path d="M 0 345.6 
L 460.8 345.6 
L 460.8 0 
L 0 0 
z
" style="fill: #ffffff"/>
  </g>
  <g id="axes_1">
   <g id="patch_2">
    <path d="M 57.6 307.584 
L 414.72 307.584 
L 414.72 41.472 
L 57.6 41.472 
z
" style="fill: #ffffff"/>
   </g>
   <g id="matplotlib.axis_1">
    <g id="xtick_1">
     <g id="line2d_1">
      <path d="M 146.88 307.584 
L 146.88 41.472 
" clip-path="url(#p37a243f9ec)" style="fill: none; stroke: #b0b0b0; stroke-width: 0.8; stroke-linecap: square"/>
     </g>
     <g id="line2d_2">
      <defs>
       <path id="me5d1656718" d="M 0 0 
L 0 3.5 
" style="stroke: #000000; stroke-width: 0.8"/>
      </defs>
      <g>
       <use xlink:href="#me5d1656718" x="146.88" y="307.584" style="stroke: #000000; stroke-width: 0.8"/>
      </g>
     </g>
     <g id="text_1">
      <!-- 100 -->
      <g transform="translate(137.33625 322.182437) scale(0.1 -0.1)">
       <defs>
        <path id="DejaVuSans-31" d="M 794 531 
L 1825 531 
L 1825 4091 
L 703 3866 
L 703 4441 
L 1819 4666 
L 2450 4666 
L 2450 531 
L 3481 531 
L 3481 0 
L 794 0 
L 794 531 
z
" transform="scale(0.015625)"/>
        <path id="DejaVuSans-30" d="M 2034 4250 
Q 1547 4250 1301 3770 
Q 1056 3291 1056 2328 
Q 1056 1369 1301 889 
Q 1547 409 2034 409 
Q 2525 409 2770 889 
Q 3016 1369 3016 2328 
Q 3016 3291 2770 3770 
Q 2525 4250 2034 4250 
z
M 2034 4750 
Q 2819 4750 3233 4129 
Q 3647 3509 3647 2328 
Q 3647 1150 3233 529 
Q 2819 -91 2034 -91 
Q 1250 -91 836 529 
Q 422 1150 422 2328 
Q 422 3509 836 4129 
Q 1250 4750 2034 4750 
z
" transform="scale(0.015625)"/>
       </defs>
       <use xlink:href="#DejaVuSans-31"/>
       <use xlink:href="#DejaVuSans-30" transform="translate(63.623047 0)"/>
       <use xlink:href="#DejaVuSans-30" transform="translate(127.246094 0)"/>
      </g>
     </g>
    </g>
    <g id="xtick_2">
     <g id="line2d_3">
      <path d="M 236.16 307.584 
L 236.16 41.472 
" clip-path="url(#p37a243f9ec)" style="fill: none; stroke: #b0b0b0; stroke-width: 0.8; stroke-linecap: square"/>
     </g>
     <g id="line2d_4">
      <g>
       <use xlink:href="#me5d1656718" x="236.16" y="307.584" style="stroke: #000000; stroke-width: 0.8"/>
      </g>
     </g>
     <g id="text_2">
      <!-- 200 -->
      <g transform="translate(226.61625 322.182437) scale(0.1 -0.1)">
       <defs>
        <path id="DejaVuSans-32" d="M 1228 531 
L 3431 531 
L 3431 0 
L 469 0 
L 469 531 
Q 828 903 1448 1529 
Q 2069 2156 2228 2338 
Q 2531 2678 2651 2914 
Q 2772 3150 2772 3378 
Q 2772 3750 2511 3984 
Q 2250 4219 1831 4219 
Q 1534 4219 1204 4116 
Q 875 4013 500 3803 
L 500 4441 
Q 881 4594 1212 4672 
Q 1544 4750 1819 4750 
Q 2544 4750 2975 4387 
Q 3406 4025 3406 3419 
Q 3406 3131 3298 2873 
Q 3191 2616 2906 2266 
Q 2828 2175 2409 1742 
Q 1991 1309 1228 531 
z
" transform="scale(0.015625)"/>
       </defs>
       <use xlink:href="#DejaVuSans-32"/>
       <use xlink:href="#DejaVuSans-30" transform="translate(63.623047 0)"/>
       <use xlink:href="#DejaVuSans-30" transform="translate(127.246094 0)"/>
      </g>
     </g>
    </g>
    <g id="xtick_3">
     <g id="line2d_5">
      <path d="M 325.44 307.584 
L 325.44 41.472 
" clip-path="url(#p37a243f9ec)" style="fill: none; stroke: #b0b0b0; stroke-width: 0.8; stroke-linecap: square"/>
     </g>
     <g id="line2d_6">
      <g>
       <use xlink:href="#me5d1656718" x="325.44" y="307.584" style="stroke: #000000; stroke-width: 0.8"/>
      </g>
     </g>
     <g id="text_3">
      <!-- 300 -->
      <g transform="translate(315.89625 322.182437) scale(0.1 -0.1)">
       <defs>
        <path id="DejaVuSans-33" d="M 2597 2516 
Q 3050 2419 3304 2112 
Q 3559 1806 3559 1356 
Q 3559 666 3084 287 
Q 2609 -91 1734 -91 
Q 1441 -91 1130 -33 
Q 819 25 488 141 
L 488 750 
Q 750 597 1062 519 
Q 1375 441 1716 441 
Q 2309 441 2620 675 
Q 2931 909 2931 1356 
Q 2931 1769 2642 2001 
Q 2353 2234 1838 2234 
L 1294 2234 
L 1294 2753 
L 1863 2753 
Q 2328 2753 2575 2939 
Q 2822 3125 2822 3475 
Q 2822 3834 2567 4026 
Q 2313 4219 1838 4219 
Q 1578 4219 1281 4162 
Q 984 4106 628 3988 
L 628 4550 
Q 988 4650 1302 4700 
Q 1616 4750 1894 4750 
Q 2613 4750 3031 4423 
Q 3450 4097 3450 3541 
Q 3450 3153 3228 2886 
Q 3006 2619 2597 2516 
z
" transform="scale(0.015625)"/>
       </defs>
       <use xlink:href="#DejaVuSans-33"/>
       <use xlink:href="#DejaVuSans-30" transform="translate(63.623047 0)"/>
       <use xlink:href="#DejaVuSans-30" transform="translate(127.246094 0)"/>
      </g>
     </g>
    </g>
    <g id="xtick_4">
     <g id="line2d_7">
      <path d="M 414.72 307.584 
L 414.72 41.472 
" clip-path="url(#p37a243f9ec)" style="fill: none; stroke: #b0b0b0; stroke-width: 0.8; stroke-linecap: square"/>
     </g>
     <g id="line2d_8">
      <g>
       <use xlink:href="#me5d1656718" x="414.72" y="307.584" style="stroke: #000000; stroke-width: 0.8"/>
      </g>
     </g>
     <g id="text_4">
      <!-- 400 -->
      <g transform="translate(405.17625 322.182437) scale(0.1 -0.1)">
       <defs>
        <path id="DejaVuSans-34" d="M 2419 4116 
L 825 1625 
L 2419 1625 
L 2419 4116 
z
M 2253 4666 
L 3047 4666 
L 3047 1625 
L 3713 1625 
L 3713 1100 
L 3047 1100 
L 3047 0 
L 2419 0 
L 2419 1100 
L 313 1100 
L 313 1709 
L 2253 4666 
z
" transform="scale(0.015625)"/>
       </defs>
       <use xlink:href="#DejaVuSans-34"/>
       <use xlink:href="#DejaVuSans-30" transform="translate(63.623047 0)"/>
       <use xlink:href="#DejaVuSans-30" transform="translate(127.246094 0)"/>
      </g>
     </g>
    </g>
    <g id="text_5">
     <!-- Irradiation time (s)  -->
     <g transform="translate(187.823281 335.860562) scale(0.1 -0.1)">
      <defs>
       <path id="DejaVuSans-49" d="M 628 4666 
L 1259 4666 
L 1259 0 
L 628 0 
L 628 4666 
z
" transform="scale(0.015625)"/>
       <path id="DejaVuSans-72" d="M 2631 2963 
Q 2534 3019 2420 3045 
Q 2306 3072 2169 3072 
Q 1681 3072 1420 2755 
Q 1159 2438 1159 1844 
L 1159 0 
L 581 0 
L 581 3500 
L 1159 3500 
L 1159 2956 
Q 1341 3275 1631 3429 
Q 1922 3584 2338 3584 
Q 2397 3584 2469 3576 
Q 2541 3569 2628 3553 
L 2631 2963 
z
" transform="scale(0.015625)"/>
       <path id="DejaVuSans-61" d="M 2194 1759 
Q 1497 1759 1228 1600 
Q 959 1441 959 1056 
Q 959 750 1161 570 
Q 1363 391 1709 391 
Q 2188 391 2477 730 
Q 2766 1069 2766 1631 
L 2766 1759 
L 2194 1759 
z
M 3341 1997 
L 3341 0 
L 2766 0 
L 2766 531 
Q 2569 213 2275 61 
Q 1981 -91 1556 -91 
Q 1019 -91 701 211 
Q 384 513 384 1019 
Q 384 1609 779 1909 
Q 1175 2209 1959 2209 
L 2766 2209 
L 2766 2266 
Q 2766 2663 2505 2880 
Q 2244 3097 1772 3097 
Q 1472 3097 1187 3025 
Q 903 2953 641 2809 
L 641 3341 
Q 956 3463 1253 3523 
Q 1550 3584 1831 3584 
Q 2591 3584 2966 3190 
Q 3341 2797 3341 1997 
z
" transform="scale(0.015625)"/>
       <path id="DejaVuSans-64" d="M 2906 2969 
L 2906 4863 
L 3481 4863 
L 3481 0 
L 2906 0 
L 2906 525 
Q 2725 213 2448 61 
Q 2172 -91 1784 -91 
Q 1150 -91 751 415 
Q 353 922 353 1747 
Q 353 2572 751 3078 
Q 1150 3584 1784 3584 
Q 2172 3584 2448 3432 
Q 2725 3281 2906 2969 
z
M 947 1747 
Q 947 1113 1208 752 
Q 1469 391 1925 391 
Q 2381 391 2643 752 
Q 2906 1113 2906 1747 
Q 2906 2381 2643 2742 
Q 2381 3103 1925 3103 
Q 1469 3103 1208 2742 
Q 947 2381 947 1747 
z
" transform="scale(0.015625)"/>
       <path id="DejaVuSans-69" d="M 603 3500 
L 1178 3500 
L 1178 0 
L 603 0 
L 603 3500 
z
M 603 4863 
L 1178 4863 
L 1178 4134 
L 603 4134 
L 603 4863 
z
" transform="scale(0.015625)"/>
       <path id="DejaVuSans-74" d="M 1172 4494 
L 1172 3500 
L 2356 3500 
L 2356 3053 
L 1172 3053 
L 1172 1153 
Q 1172 725 1289 603 
Q 1406 481 1766 481 
L 2356 481 
L 2356 0 
L 1766 0 
Q 1100 0 847 248 
Q 594 497 594 1153 
L 594 3053 
L 172 3053 
L 172 3500 
L 594 3500 
L 594 4494 
L 1172 4494 
z
" transform="scale(0.015625)"/>
       <path id="DejaVuSans-6f" d="M 1959 3097 
Q 1497 3097 1228 2736 
Q 959 2375 959 1747 
Q 959 1119 1226 758 
Q 1494 397 1959 397 
Q 2419 397 2687 759 
Q 2956 1122 2956 1747 
Q 2956 2369 2687 2733 
Q 2419 3097 1959 3097 
z
M 1959 3584 
Q 2709 3584 3137 3096 
Q 3566 2609 3566 1747 
Q 3566 888 3137 398 
Q 2709 -91 1959 -91 
Q 1206 -91 779 398 
Q 353 888 353 1747 
Q 353 2609 779 3096 
Q 1206 3584 1959 3584 
z
" transform="scale(0.015625)"/>
       <path id="DejaVuSans-6e" d="M 3513 2113 
L 3513 0 
L 2938 0 
L 2938 2094 
Q 2938 2591 2744 2837 
Q 2550 3084 2163 3084 
Q 1697 3084 1428 2787 
Q 1159 2491 1159 1978 
L 1159 0 
L 581 0 
L 581 3500 
L 1159 3500 
L 1159 2956 
Q 1366 3272 1645 3428 
Q 1925 3584 2291 3584 
Q 2894 3584 3203 3211 
Q 3513 2838 3513 2113 
z
" transform="scale(0.015625)"/>
       <path id="DejaVuSans-20" transform="scale(0.015625)"/>
       <path id="DejaVuSans-6d" d="M 3328 2828 
Q 3544 3216 3844 3400 
Q 4144 3584 4550 3584 
Q 5097 3584 5394 3201 
Q 5691 2819 5691 2113 
L 5691 0 
L 5113 0 
L 5113 2094 
Q 5113 2597 4934 2840 
Q 4756 3084 4391 3084 
Q 3944 3084 3684 2787 
Q 3425 2491 3425 1978 
L 3425 0 
L 2847 0 
L 2847 2094 
Q 2847 2600 2669 2842 
Q 2491 3084 2119 3084 
Q 1678 3084 1418 2786 
Q 1159 2488 1159 1978 
L 1159 0 
L 581 0 
L 581 3500 
L 1159 3500 
L 1159 2956 
Q 1356 3278 1631 3431 
Q 1906 3584 2284 3584 
Q 2666 3584 2933 3390 
Q 3200 3197 3328 2828 
z
" transform="scale(0.015625)"/>
       <path id="DejaVuSans-65" d="M 3597 1894 
L 3597 1613 
L 953 1613 
Q 991 1019 1311 708 
Q 1631 397 2203 397 
Q 2534 397 2845 478 
Q 3156 559 3463 722 
L 3463 178 
Q 3153 47 2828 -22 
Q 2503 -91 2169 -91 
Q 1331 -91 842 396 
Q 353 884 353 1716 
Q 353 2575 817 3079 
Q 1281 3584 2069 3584 
Q 2775 3584 3186 3129 
Q 3597 2675 3597 1894 
z
M 3022 2063 
Q 3016 2534 2758 2815 
Q 2500 3097 2075 3097 
Q 1594 3097 1305 2825 
Q 1016 2553 972 2059 
L 3022 2063 
z
" transform="scale(0.015625)"/>
       <path id="DejaVuSans-28" d="M 1984 4856 
Q 1566 4138 1362 3434 
Q 1159 2731 1159 2009 
Q 1159 1288 1364 580 
Q 1569 -128 1984 -844 
L 1484 -844 
Q 1016 -109 783 600 
Q 550 1309 550 2009 
Q 550 2706 781 3412 
Q 1013 4119 1484 4856 
L 1984 4856 
z
" transform="scale(0.015625)"/>
       <path id="DejaVuSans-73" d="M 2834 3397 
L 2834 2853 
Q 2591 2978 2328 3040 
Q 2066 3103 1784 3103 
Q 1356 3103 1142 2972 
Q 928 2841 928 2578 
Q 928 2378 1081 2264 
Q 1234 2150 1697 2047 
L 1894 2003 
Q 2506 1872 2764 1633 
Q 3022 1394 3022 966 
Q 3022 478 2636 193 
Q 2250 -91 1575 -91 
Q 1294 -91 989 -36 
Q 684 19 347 128 
L 347 722 
Q 666 556 975 473 
Q 1284 391 1588 391 
Q 1994 391 2212 530 
Q 2431 669 2431 922 
Q 2431 1156 2273 1281 
Q 2116 1406 1581 1522 
L 1381 1569 
Q 847 1681 609 1914 
Q 372 2147 372 2553 
Q 372 3047 722 3315 
Q 1072 3584 1716 3584 
Q 2034 3584 2315 3537 
Q 2597 3491 2834 3397 
z
" transform="scale(0.015625)"/>
       <path id="DejaVuSans-29" d="M 513 4856 
L 1013 4856 
Q 1481 4119 1714 3412 
Q 1947 2706 1947 2009 
Q 1947 1309 1714 600 
Q 1481 -109 1013 -844 
L 513 -844 
Q 928 -128 1133 580 
Q 1338 1288 1338 2009 
Q 1338 2731 1133 3434 
Q 928 4138 513 4856 
z
" transform="scale(0.015625)"/>
      </defs>
      <use xlink:href="#DejaVuSans-49"/>
      <use xlink:href="#DejaVuSans-72" transform="translate(29.492188 0)"/>
      <use xlink:href="#DejaVuSans-72" transform="translate(68.855469 0)"/>
      <use xlink:href="#DejaVuSans-61" transform="translate(109.96875 0)"/>
      <use xlink:href="#DejaVuSans-64" transform="translate(171.248047 0)"/>
      <use xlink:href="#DejaVuSans-69" transform="translate(234.724609 0)"/>
      <use xlink:href="#DejaVuSans-61" transform="translate(262.507812 0)"/>
      <use xlink:href="#DejaVuSans-74" transform="translate(323.787109 0)"/>
      <use xlink:href="#DejaVuSans-69" transform="translate(362.996094 0)"/>
      <use xlink:href="#DejaVuSans-6f" transform="translate(390.779297 0)"/>
      <use xlink:href="#DejaVuSans-6e" transform="translate(451.960938 0)"/>
      <use xlink:href="#DejaVuSans-20" transform="translate(515.339844 0)"/>
      <use xlink:href="#DejaVuSans-74" transform="translate(547.126953 0)"/>
      <use xlink:href="#DejaVuSans-69" transform="translate(586.335938 0)"/>
      <use xlink:href="#DejaVuSans-6d" transform="translate(614.119141 0)"/>
      <use xlink:href="#DejaVuSans-65" transform="translate(711.53125 0)"/>
      <use xlink:href="#DejaVuSans-20" transform="translate(773.054688 0)"/>
      <use xlink:href="#DejaVuSans-28" transform="translate(804.841797 0)"/>
      <use xlink:href="#DejaVuSans-73" transform="translate(843.855469 0)"/>
      <use xlink:href="#DejaVuSans-29" transform="translate(895.955078 0)"/>
      <use xlink:href="#DejaVuSans-20" transform="translate(934.96875 0)"/>
     </g>
    </g>
   </g>
   <g id="matplotlib.axis_2">
    <g id="ytick_1">
     <g id="line2d_9">
      <path d="M 57.6 307.584 
L 414.72 307.584 
" clip-path="url(#p37a243f9ec)" style="fill: none; stroke: #b0b0b0; stroke-width: 0.8; stroke-linecap: square"/>
     </g>
     <g id="line2d_10">
      <defs>
       <path id="mc3ecbd3590" d="M 0 0 
L -3.5 0 
" style="stroke: #000000; stroke-width: 0.8"/>
      </defs>
      <g>
       <use xlink:href="#mc3ecbd3590" x="57.6" y="307.584" style="stroke: #000000; stroke-width: 0.8"/>
      </g>
     </g>
     <g id="text_6">
      <!-- 0.0 -->
      <g transform="translate(34.696875 311.383219) scale(0.1 -0.1)">
       <defs>
        <path id="DejaVuSans-2e" d="M 684 794 
L 1344 794 
L 1344 0 
L 684 0 
L 684 794 
z
" transform="scale(0.015625)"/>
       </defs>
       <use xlink:href="#DejaVuSans-30"/>
       <use xlink:href="#DejaVuSans-2e" transform="translate(63.623047 0)"/>
       <use xlink:href="#DejaVuSans-30" transform="translate(95.410156 0)"/>
      </g>
     </g>
    </g>
    <g id="ytick_2">
     <g id="line2d_11">
      <path d="M 57.6 269.568 
L 414.72 269.568 
" clip-path="url(#p37a243f9ec)" style="fill: none; stroke: #b0b0b0; stroke-width: 0.8; stroke-linecap: square"/>
     </g>
     <g id="line2d_12">
      <g>
       <use xlink:href="#mc3ecbd3590" x="57.6" y="269.568" style="stroke: #000000; stroke-width: 0.8"/>
      </g>
     </g>
     <g id="text_7">
      <!-- 0.1 -->
      <g transform="translate(34.696875 273.367219) scale(0.1 -0.1)">
       <use xlink:href="#DejaVuSans-30"/>
       <use xlink:href="#DejaVuSans-2e" transform="translate(63.623047 0)"/>
       <use xlink:href="#DejaVuSans-31" transform="translate(95.410156 0)"/>
      </g>
     </g>
    </g>
    <g id="ytick_3">
     <g id="line2d_13">
      <path d="M 57.6 231.552 
L 414.72 231.552 
" clip-path="url(#p37a243f9ec)" style="fill: none; stroke: #b0b0b0; stroke-width: 0.8; stroke-linecap: square"/>
     </g>
     <g id="line2d_14">
      <g>
       <use xlink:href="#mc3ecbd3590" x="57.6" y="231.552" style="stroke: #000000; stroke-width: 0.8"/>
      </g>
     </g>
     <g id="text_8">
      <!-- 0.2 -->
      <g transform="translate(34.696875 235.351219) scale(0.1 -0.1)">
       <use xlink:href="#DejaVuSans-30"/>
       <use xlink:href="#DejaVuSans-2e" transform="translate(63.623047 0)"/>
       <use xlink:href="#DejaVuSans-32" transform="translate(95.410156 0)"/>
      </g>
     </g>
    </g>
    <g id="ytick_4">
     <g id="line2d_15">
      <path d="M 57.6 193.536 
L 414.72 193.536 
" clip-path="url(#p37a243f9ec)" style="fill: none; stroke: #b0b0b0; stroke-width: 0.8; stroke-linecap: square"/>
     </g>
     <g id="line2d_16">
      <g>
       <use xlink:href="#mc3ecbd3590" x="57.6" y="193.536" style="stroke: #000000; stroke-width: 0.8"/>
      </g>
     </g>
     <g id="text_9">
      <!-- 0.3 -->
      <g transform="translate(34.696875 197.335219) scale(0.1 -0.1)">
       <use xlink:href="#DejaVuSans-30"/>
       <use xlink:href="#DejaVuSans-2e" transform="translate(63.623047 0)"/>
       <use xlink:href="#DejaVuSans-33" transform="translate(95.410156 0)"/>
      </g>
     </g>
    </g>
    <g id="ytick_5">
     <g id="line2d_17">
      <path d="M 57.6 155.52 
L 414.72 155.52 
" clip-path="url(#p37a243f9ec)" style="fill: none; stroke: #b0b0b0; stroke-width: 0.8; stroke-linecap: square"/>
     </g>
     <g id="line2d_18">
      <g>
       <use xlink:href="#mc3ecbd3590" x="57.6" y="155.52" style="stroke: #000000; stroke-width: 0.8"/>
      </g>
     </g>
     <g id="text_10">
      <!-- 0.4 -->
      <g transform="translate(34.696875 159.319219) scale(0.1 -0.1)">
       <use xlink:href="#DejaVuSans-30"/>
       <use xlink:href="#DejaVuSans-2e" transform="translate(63.623047 0)"/>
       <use xlink:href="#DejaVuSans-34" transform="translate(95.410156 0)"/>
      </g>
     </g>
    </g>
    <g id="ytick_6">
     <g id="line2d_19">
      <path d="M 57.6 117.504 
L 414.72 117.504 
" clip-path="url(#p37a243f9ec)" style="fill: none; stroke: #b0b0b0; stroke-width: 0.8; stroke-linecap: square"/>
     </g>
     <g id="line2d_20">
      <g>
       <use xlink:href="#mc3ecbd3590" x="57.6" y="117.504" style="stroke: #000000; stroke-width: 0.8"/>
      </g>
     </g>
     <g id="text_11">
      <!-- 0.5 -->
      <g transform="translate(34.696875 121.303219) scale(0.1 -0.1)">
       <defs>
        <path id="DejaVuSans-35" d="M 691 4666 
L 3169 4666 
L 3169 4134 
L 1269 4134 
L 1269 2991 
Q 1406 3038 1543 3061 
Q 1681 3084 1819 3084 
Q 2600 3084 3056 2656 
Q 3513 2228 3513 1497 
Q 3513 744 3044 326 
Q 2575 -91 1722 -91 
Q 1428 -91 1123 -41 
Q 819 9 494 109 
L 494 744 
Q 775 591 1075 516 
Q 1375 441 1709 441 
Q 2250 441 2565 725 
Q 2881 1009 2881 1497 
Q 2881 1984 2565 2268 
Q 2250 2553 1709 2553 
Q 1456 2553 1204 2497 
Q 953 2441 691 2322 
L 691 4666 
z
" transform="scale(0.015625)"/>
       </defs>
       <use xlink:href="#DejaVuSans-30"/>
       <use xlink:href="#DejaVuSans-2e" transform="translate(63.623047 0)"/>
       <use xlink:href="#DejaVuSans-35" transform="translate(95.410156 0)"/>
      </g>
     </g>
    </g>
    <g id="ytick_7">
     <g id="line2d_21">
      <path d="M 57.6 79.488 
L 414.72 79.488 
" clip-path="url(#p37a243f9ec)" style="fill: none; stroke: #b0b0b0; stroke-width: 0.8; stroke-linecap: square"/>
     </g>
     <g id="line2d_22">
      <g>
       <use xlink:href="#mc3ecbd3590" x="57.6" y="79.488" style="stroke: #000000; stroke-width: 0.8"/>
      </g>
     </g>
     <g id="text_12">
      <!-- 0.6 -->
      <g transform="translate(34.696875 83.287219) scale(0.1 -0.1)">
       <defs>
        <path id="DejaVuSans-36" d="M 2113 2584 
Q 1688 2584 1439 2293 
Q 1191 2003 1191 1497 
Q 1191 994 1439 701 
Q 1688 409 2113 409 
Q 2538 409 2786 701 
Q 3034 994 3034 1497 
Q 3034 2003 2786 2293 
Q 2538 2584 2113 2584 
z
M 3366 4563 
L 3366 3988 
Q 3128 4100 2886 4159 
Q 2644 4219 2406 4219 
Q 1781 4219 1451 3797 
Q 1122 3375 1075 2522 
Q 1259 2794 1537 2939 
Q 1816 3084 2150 3084 
Q 2853 3084 3261 2657 
Q 3669 2231 3669 1497 
Q 3669 778 3244 343 
Q 2819 -91 2113 -91 
Q 1303 -91 875 529 
Q 447 1150 447 2328 
Q 447 3434 972 4092 
Q 1497 4750 2381 4750 
Q 2619 4750 2861 4703 
Q 3103 4656 3366 4563 
z
" transform="scale(0.015625)"/>
       </defs>
       <use xlink:href="#DejaVuSans-30"/>
       <use xlink:href="#DejaVuSans-2e" transform="translate(63.623047 0)"/>
       <use xlink:href="#DejaVuSans-36" transform="translate(95.410156 0)"/>
      </g>
     </g>
    </g>
    <g id="ytick_8">
     <g id="line2d_23">
      <path d="M 57.6 41.472 
L 414.72 41.472 
" clip-path="url(#p37a243f9ec)" style="fill: none; stroke: #b0b0b0; stroke-width: 0.8; stroke-linecap: square"/>
     </g>
     <g id="line2d_24">
      <g>
       <use xlink:href="#mc3ecbd3590" x="57.6" y="41.472" style="stroke: #000000; stroke-width: 0.8"/>
      </g>
     </g>
     <g id="text_13">
      <!-- 0.7 -->
      <g transform="translate(34.696875 45.271219) scale(0.1 -0.1)">
       <defs>
        <path id="DejaVuSans-37" d="M 525 4666 
L 3525 4666 
L 3525 4397 
L 1831 0 
L 1172 0 
L 2766 4134 
L 525 4134 
L 525 4666 
z
" transform="scale(0.015625)"/>
       </defs>
       <use xlink:href="#DejaVuSans-30"/>
       <use xlink:href="#DejaVuSans-2e" transform="translate(63.623047 0)"/>
       <use xlink:href="#DejaVuSans-37" transform="translate(95.410156 0)"/>
      </g>
     </g>
    </g>
    <g id="text_14">
     <!-- Percent of filled traps -->
     <g transform="translate(28.617187 227.95925) rotate(-90) scale(0.1 -0.1)">
      <defs>
       <path id="DejaVuSans-50" d="M 1259 4147 
L 1259 2394 
L 2053 2394 
Q 2494 2394 2734 2622 
Q 2975 2850 2975 3272 
Q 2975 3691 2734 3919 
Q 2494 4147 2053 4147 
L 1259 4147 
z
M 628 4666 
L 2053 4666 
Q 2838 4666 3239 4311 
Q 3641 3956 3641 3272 
Q 3641 2581 3239 2228 
Q 2838 1875 2053 1875 
L 1259 1875 
L 1259 0 
L 628 0 
L 628 4666 
z
" transform="scale(0.015625)"/>
       <path id="DejaVuSans-63" d="M 3122 3366 
L 3122 2828 
Q 2878 2963 2633 3030 
Q 2388 3097 2138 3097 
Q 1578 3097 1268 2742 
Q 959 2388 959 1747 
Q 959 1106 1268 751 
Q 1578 397 2138 397 
Q 2388 397 2633 464 
Q 2878 531 3122 666 
L 3122 134 
Q 2881 22 2623 -34 
Q 2366 -91 2075 -91 
Q 1284 -91 818 406 
Q 353 903 353 1747 
Q 353 2603 823 3093 
Q 1294 3584 2113 3584 
Q 2378 3584 2631 3529 
Q 2884 3475 3122 3366 
z
" transform="scale(0.015625)"/>
       <path id="DejaVuSans-66" d="M 2375 4863 
L 2375 4384 
L 1825 4384 
Q 1516 4384 1395 4259 
Q 1275 4134 1275 3809 
L 1275 3500 
L 2222 3500 
L 2222 3053 
L 1275 3053 
L 1275 0 
L 697 0 
L 697 3053 
L 147 3053 
L 147 3500 
L 697 3500 
L 697 3744 
Q 697 4328 969 4595 
Q 1241 4863 1831 4863 
L 2375 4863 
z
" transform="scale(0.015625)"/>
       <path id="DejaVuSans-6c" d="M 603 4863 
L 1178 4863 
L 1178 0 
L 603 0 
L 603 4863 
z
" transform="scale(0.015625)"/>
       <path id="DejaVuSans-70" d="M 1159 525 
L 1159 -1331 
L 581 -1331 
L 581 3500 
L 1159 3500 
L 1159 2969 
Q 1341 3281 1617 3432 
Q 1894 3584 2278 3584 
Q 2916 3584 3314 3078 
Q 3713 2572 3713 1747 
Q 3713 922 3314 415 
Q 2916 -91 2278 -91 
Q 1894 -91 1617 61 
Q 1341 213 1159 525 
z
M 3116 1747 
Q 3116 2381 2855 2742 
Q 2594 3103 2138 3103 
Q 1681 3103 1420 2742 
Q 1159 2381 1159 1747 
Q 1159 1113 1420 752 
Q 1681 391 2138 391 
Q 2594 391 2855 752 
Q 3116 1113 3116 1747 
z
" transform="scale(0.015625)"/>
      </defs>
      <use xlink:href="#DejaVuSans-50"/>
      <use xlink:href="#DejaVuSans-65" transform="translate(56.677734 0)"/>
      <use xlink:href="#DejaVuSans-72" transform="translate(118.201172 0)"/>
      <use xlink:href="#DejaVuSans-63" transform="translate(157.064453 0)"/>
      <use xlink:href="#DejaVuSans-65" transform="translate(212.044922 0)"/>
      <use xlink:href="#DejaVuSans-6e" transform="translate(273.568359 0)"/>
      <use xlink:href="#DejaVuSans-74" transform="translate(336.947266 0)"/>
      <use xlink:href="#DejaVuSans-20" transform="translate(376.15625 0)"/>
      <use xlink:href="#DejaVuSans-6f" transform="translate(407.943359 0)"/>
      <use xlink:href="#DejaVuSans-66" transform="translate(469.125 0)"/>
      <use xlink:href="#DejaVuSans-20" transform="translate(504.330078 0)"/>
      <use xlink:href="#DejaVuSans-66" transform="translate(536.117188 0)"/>
      <use xlink:href="#DejaVuSans-69" transform="translate(571.322266 0)"/>
      <use xlink:href="#DejaVuSans-6c" transform="translate(599.105469 0)"/>
      <use xlink:href="#DejaVuSans-6c" transform="translate(626.888672 0)"/>
      <use xlink:href="#DejaVuSans-65" transform="translate(654.671875 0)"/>
      <use xlink:href="#DejaVuSans-64" transform="translate(716.195312 0)"/>
      <use xlink:href="#DejaVuSans-20" transform="translate(779.671875 0)"/>
      <use xlink:href="#DejaVuSans-74" transform="translate(811.458984 0)"/>
      <use xlink:href="#DejaVuSans-72" transform="translate(850.667969 0)"/>
      <use xlink:href="#DejaVuSans-61" transform="translate(891.78125 0)"/>
      <use xlink:href="#DejaVuSans-70" transform="translate(953.060547 0)"/>
      <use xlink:href="#DejaVuSans-73" transform="translate(1016.537109 0)"/>
     </g>
    </g>
   </g>
   <g id="line2d_25">
    <path d="M 57.6 299.15712 
L 63.138129 299.102113 
L 64.210025 298.702491 
L 64.567324 298.184936 
L 65.63922 297.095106 
L 65.996518 296.479531 
L 67.783012 294.796342 
L 68.318959 294.354376 
L 68.676258 293.808256 
L 72.606543 290.470016 
L 72.785193 289.677816 
L 74.035738 288.553135 
L 74.214387 287.521721 
L 76.715478 285.504214 
L 77.072776 284.924416 
L 79.573867 282.474834 
L 79.752516 281.917978 
L 85.647944 275.818361 
L 87.077139 274.453876 
L 87.434437 273.883368 
L 88.149035 273.265341 
L 88.327684 272.60415 
L 90.114177 271.20947 
L 90.471476 270.679781 
L 91.543372 269.852092 
L 91.722021 269.327678 
L 92.793917 268.412164 
L 92.972566 267.879795 
L 94.401761 266.635642 
L 94.75906 266.067589 
L 98.510695 262.420126 
L 100.297189 260.721623 
L 100.475838 260.049094 
L 102.61963 258.052227 
L 104.763422 256.490204 
L 106.013967 255.776911 
L 106.192616 255.428556 
L 106.907214 255.049826 
L 107.264512 254.698913 
L 107.621811 254.538828 
L 107.80046 254.205345 
L 109.229655 253.503167 
L 109.586953 253.216869 
L 111.194797 252.46439 
L 111.373447 252.131359 
L 112.802641 251.385212 
L 113.15994 251.1819 
L 114.946433 250.415762 
L 115.303732 250.228883 
L 115.482381 249.753578 
L 117.804822 248.293104 
L 117.983472 247.805766 
L 118.51942 247.48475 
L 118.698069 247.131311 
L 122.271056 245.335355 
L 122.628354 244.935473 
L 124.236198 244.056141 
L 124.414847 243.718133 
L 124.950795 243.464566 
L 125.129445 243.000096 
L 125.486743 242.831559 
L 125.665393 242.493894 
L 125.844042 242.409794 
L 126.201341 242.114875 
L 127.451886 241.508962 
L 127.809185 241.168032 
L 130.310275 239.584584 
L 130.488924 239.098598 
L 131.382171 238.552277 
L 131.56082 237.94153 
L 134.061911 236.364872 
L 135.669755 235.312763 
L 135.848404 234.870112 
L 139.60004 232.233175 
L 139.778689 231.867581 
L 141.743832 230.631844 
L 142.994377 229.835981 
L 143.173027 229.480084 
L 143.887624 229.105469 
L 144.066273 228.498944 
L 144.78087 228.071937 
L 144.95952 227.711746 
L 147.103312 226.543493 
L 147.281961 226.458885 
L 147.63926 226.149392 
L 149.783052 224.978394 
L 150.14035 224.622321 
L 151.569545 223.673302 
L 151.926843 223.183031 
L 152.284142 222.946199 
L 152.462791 222.447917 
L 153.177389 221.976621 
L 153.534687 221.472796 
L 155.857129 219.894843 
L 156.035778 219.404957 
L 160.85931 216.59928 
L 161.037959 216.253046 
L 161.216608 216.162776 
L 161.573907 215.836121 
L 163.003102 215.016969 
L 163.181751 214.661257 
L 164.253647 214.04882 
L 164.432296 213.693559 
L 164.789595 213.490029 
L 164.968244 213.134825 
L 167.826633 211.385739 
L 170.327724 209.705491 
L 171.22097 209.07676 
L 171.39962 208.571153 
L 173.90071 206.902463 
L 174.07936 206.410032 
L 177.116398 204.629337 
L 178.188294 204.112468 
L 178.366943 203.646389 
L 179.617489 202.963629 
L 179.796138 202.61213 
L 179.974787 202.514084 
L 180.332086 201.703661 
L 183.369125 200.459324 
L 183.547774 200.132825 
L 183.726423 200.059798 
L 184.083722 199.791057 
L 185.512916 199.198898 
L 185.870215 198.903932 
L 187.12076 198.316417 
L 187.29941 197.852465 
L 189.085903 197.12824 
L 189.264552 197.057241 
L 189.443202 196.859523 
L 189.621851 196.408399 
L 191.051046 195.84247 
L 191.408344 195.557118 
L 192.837539 194.894463 
L 193.194837 194.603719 
L 194.802681 193.944604 
L 194.981331 193.603381 
L 195.338629 193.413206 
L 195.517279 193.056665 
L 197.661071 191.901338 
L 198.732966 191.390507 
L 198.911616 191.042657 
L 201.234057 189.721123 
L 201.412706 189.249722 
L 202.663252 188.595419 
L 203.02055 188.267268 
L 205.878939 186.595475 
L 206.057589 186.111326 
L 206.593537 185.799693 
L 206.772186 185.31469 
L 209.630575 183.400255 
L 209.809225 182.883329 
L 216.41925 177.691399 
L 221.242781 173.902183 
L 223.029275 172.667378 
L 223.207924 172.174841 
L 226.95956 169.991893 
L 228.031456 169.447793 
L 228.210105 168.988455 
L 229.282001 168.535078 
L 229.46065 168.082206 
L 230.175248 167.823906 
L 230.353897 167.505891 
L 231.425793 167.118441 
L 231.604442 166.800449 
L 233.569585 166.091166 
L 233.926883 165.835973 
L 235.534727 165.258701 
L 235.713377 164.814705 
L 236.785273 164.431819 
L 236.963922 164.106473 
L 238.035818 163.663238 
L 238.393117 163.388773 
L 241.072856 162.399365 
L 242.323402 161.957391 
L 242.502051 161.632628 
L 243.395298 161.266224 
L 243.573947 160.934264 
L 245.181791 160.073741 
L 245.896388 159.667256 
L 246.075038 159.066558 
L 246.610985 158.785859 
L 246.789635 158.316698 
L 247.861531 157.818693 
L 248.218829 157.543583 
L 250.541271 156.69221 
L 254.650205 155.006488 
L 254.828854 154.296904 
L 257.687244 152.963615 
L 257.865893 152.497801 
L 258.937789 151.984836 
L 259.116438 151.45901 
L 262.332126 150.076652 
L 262.510775 149.612086 
L 266.262411 147.892028 
L 266.441061 147.433158 
L 270.192696 145.806647 
L 270.371346 145.359485 
L 273.408384 144.189835 
L 273.765683 143.918469 
L 276.266773 142.929144 
L 276.445423 142.432492 
L 276.981371 142.27452 
L 277.338669 142.042667 
L 278.231916 141.780225 
L 278.589215 141.560918 
L 279.303812 141.387739 
L 279.482461 141.090982 
L 280.733007 140.787758 
L 281.090305 140.574466 
L 284.127344 139.832122 
L 284.305993 139.536033 
L 285.556538 139.237543 
L 285.913837 139.006634 
L 288.057629 138.132662 
L 288.236278 137.930548 
L 288.414927 137.475191 
L 291.987914 136.084206 
L 293.05981 135.74357 
L 293.238459 135.425177 
L 293.417109 135.360348 
L 293.595758 134.915331 
L 297.883342 133.127262 
L 298.061991 132.538876 
L 300.563082 131.399877 
L 300.92038 130.60433 
L 305.743912 128.162454 
L 305.922561 127.700514 
L 310.924742 125.328805 
L 313.068534 124.275996 
L 313.247184 123.939177 
L 318.249365 121.631136 
L 318.428014 121.044412 
L 320.750455 120.154819 
L 321.465053 119.510583 
L 325.931286 117.822367 
L 326.288584 117.561206 
L 328.611026 116.587847 
L 329.325623 115.907861 
L 333.791856 114.051085 
L 333.970505 113.71739 
L 336.292946 112.650164 
L 336.471596 112.187848 
L 339.865933 110.557553 
L 340.044582 109.968904 
L 350.763542 105.188273 
L 352.728684 104.432403 
L 352.907334 104.117361 
L 353.97923 103.758057 
L 354.157879 103.381466 
L 355.765723 102.845394 
L 355.944372 102.53262 
L 360.767904 100.935874 
L 360.946553 100.376353 
L 361.8398 100.143283 
L 362.197099 99.909696 
L 362.733047 99.747793 
L 362.911696 99.503824 
L 367.735228 98.16232 
L 370.950915 97.408931 
L 371.129565 97.177208 
L 374.702551 96.249217 
L 374.881201 95.690826 
L 375.238499 95.585934 
L 375.417149 95.216839 
L 377.203642 94.694492 
L 377.382291 94.452263 
L 378.096888 94.243832 
L 378.275538 93.874911 
L 383.456368 92.332104 
L 383.635018 91.963663 
L 385.957459 91.182243 
L 388.815848 90.070948 
L 390.066393 89.561279 
L 390.245043 88.982068 
L 395.783172 86.865925 
L 396.14047 86.736944 
L 396.31912 86.289521 
L 402.035898 84.132572 
L 402.393197 84.006126 
L 402.571846 83.692946 
L 402.750495 83.637161 
L 402.929145 83.332302 
L 406.144832 82.319928 
L 406.502131 82.068455 
L 411.504312 80.44495 
L 412.754857 80.06525 
L 413.112156 79.820688 
L 414.72 79.276027 
L 414.72 79.276027 
" clip-path="url(#p37a243f9ec)" style="fill: none; stroke-dasharray: 7.4,3.2; stroke-dashoffset: 0; stroke: #8000ff; stroke-width: 2"/>
   </g>
   <g id="line2d_26">
    <path d="M 57.6 300.2976 
L 63.138129 300.213188 
L 64.567324 299.337526 
L 65.63922 298.345065 
L 65.817869 297.293077 
L 68.497609 294.826717 
L 68.854907 294.278864 
L 69.748154 293.543098 
L 69.926803 293.012372 
L 71.177349 291.872252 
L 71.355998 291.325136 
L 74.035738 289.021569 
L 74.214387 288.468401 
L 79.573867 283.308378 
L 79.752516 282.774574 
L 82.432256 280.646992 
L 82.610905 279.877692 
L 83.861451 279.110906 
L 84.0401 278.747961 
L 85.290645 277.982359 
L 85.469295 277.491772 
L 86.898489 276.621479 
L 87.077139 276.259495 
L 88.327684 275.500401 
L 88.506333 274.625218 
L 91.186073 272.65763 
L 91.543372 272.124553 
L 92.615268 271.296404 
L 92.972566 270.789396 
L 94.223112 269.935045 
L 94.401761 269.417789 
L 97.081501 267.021184 
L 97.438799 266.454305 
L 98.510695 265.5511 
L 98.689345 264.885844 
L 101.369085 262.361001 
L 103.155578 260.877366 
L 103.334227 260.363763 
L 106.192616 258.103678 
L 106.549915 257.556365 
L 108.157759 256.358113 
L 108.336408 255.846233 
L 109.229655 255.1884 
L 109.408304 254.810133 
L 110.658849 253.995423 
L 110.837499 253.385546 
L 112.981291 251.997414 
L 113.338589 251.513025 
L 115.482381 250.017127 
L 115.661031 249.663359 
L 118.34077 248.047476 
L 118.698069 247.071939 
L 119.412666 246.616871 
L 119.591316 246.123145 
L 123.342951 243.870833 
L 124.772146 243.002377 
L 124.950795 242.523732 
L 125.844042 242.032658 
L 126.022691 241.553542 
L 127.987834 240.325967 
L 128.166483 239.834433 
L 130.846223 238.189273 
L 131.203522 237.699296 
L 131.382171 236.814716 
L 134.41921 234.836286 
L 136.027054 233.847022 
L 136.205703 233.483936 
L 137.634897 232.610283 
L 137.813547 231.990902 
L 139.421391 230.770458 
L 139.60004 230.395093 
L 141.029235 229.524852 
L 141.207884 229.037687 
L 142.815728 228.067177 
L 142.994377 227.706291 
L 145.316818 226.196613 
L 146.210065 225.529996 
L 146.388714 224.750999 
L 147.817909 223.583973 
L 147.996558 223.064436 
L 151.033597 220.612113 
L 156.393077 216.210289 
L 156.571726 215.694217 
L 158.17957 214.543359 
L 158.536868 214.034968 
L 162.288504 211.451618 
L 162.467154 210.952569 
L 163.3604 210.383311 
L 163.717699 209.902895 
L 165.325543 208.893535 
L 165.504192 208.286509 
L 169.613127 205.981051 
L 169.791776 205.518465 
L 170.506373 205.222299 
L 170.863672 204.947696 
L 172.292866 204.358068 
L 172.471516 204.030925 
L 174.615308 203.026548 
L 176.401801 202.203088 
L 176.58045 201.869236 
L 178.188294 201.058614 
L 179.081541 200.542817 
L 179.26019 199.933052 
L 180.153437 199.467451 
L 180.332086 199.124041 
L 181.225333 198.674382 
L 181.403982 198.267737 
L 181.93993 197.998323 
L 182.118579 197.528358 
L 186.584812 195.292749 
L 186.942111 194.895142 
L 188.549955 193.828583 
L 188.728604 193.330007 
L 191.586993 191.324769 
L 191.765643 190.815674 
L 193.552136 189.494246 
L 193.909435 189.073296 
L 200.698109 184.952686 
L 201.412706 184.607178 
L 201.770005 184.244797 
L 202.841901 183.729042 
L 203.02055 183.263145 
L 205.342991 182.088627 
L 205.878939 181.731192 
L 206.950835 181.118067 
L 207.129485 180.769433 
L 207.308134 180.678318 
L 207.486783 180.332201 
L 209.273277 179.300387 
L 209.451926 178.814553 
L 213.382211 176.470926 
L 215.347354 175.256268 
L 215.526003 174.645099 
L 217.133847 173.609786 
L 217.312496 173.174863 
L 222.671976 169.521989 
L 223.207924 169.199072 
L 223.386573 168.770562 
L 228.388754 165.572812 
L 230.711196 164.331488 
L 231.961741 163.711035 
L 232.31904 163.335067 
L 235.534727 161.811417 
L 235.713377 161.481655 
L 237.678519 160.543399 
L 238.035818 160.27018 
L 238.393117 160.129535 
L 238.750415 159.85124 
L 245.003142 156.970253 
L 245.181791 156.501201 
L 246.075038 156.054501 
L 246.432336 155.736954 
L 250.362621 153.545677 
L 250.541271 153.198822 
L 256.436698 149.761458 
L 258.223192 148.678711 
L 258.401841 148.071952 
L 261.438879 146.397698 
L 261.617529 145.919337 
L 265.547814 143.796242 
L 265.726463 143.334892 
L 269.1208 141.910019 
L 269.29945 141.572128 
L 269.656748 141.40021 
L 269.835398 140.934248 
L 272.157839 139.939739 
L 274.301631 139.036873 
L 274.658929 138.253714 
L 276.802721 137.358663 
L 276.981371 136.890743 
L 279.125163 135.781134 
L 279.303812 135.453288 
L 281.447604 134.637817 
L 281.626253 134.309174 
L 284.305993 133.261971 
L 287.878979 131.879018 
L 288.414927 131.635848 
L 288.593577 131.166548 
L 291.273317 129.864493 
L 291.451966 129.52951 
L 293.774407 128.523674 
L 293.953057 128.203569 
L 295.5609 127.603058 
L 295.73955 127.285654 
L 300.205783 125.71993 
L 303.957419 124.398878 
L 304.314717 124.054757 
L 305.029315 123.735262 
L 305.207964 123.338592 
L 310.031496 121.13302 
L 310.388794 120.797496 
L 314.31908 119.145904 
L 317.713417 117.712404 
L 318.070715 117.567364 
L 318.249365 117.110275 
L 320.035858 116.270184 
L 320.214507 115.802274 
L 322.536948 114.60153 
L 322.715598 114.257639 
L 326.467234 112.628807 
L 326.824532 112.479372 
L 327.003182 112.144897 
L 332.184012 109.873167 
L 332.898609 109.581622 
L 333.077259 109.123487 
L 335.578349 107.992241 
L 335.756998 107.537808 
L 340.75918 105.422608 
L 340.937829 105.09503 
L 341.473777 104.857945 
L 341.652426 104.398956 
L 346.118659 102.44042 
L 346.297309 101.982269 
L 350.227594 100.217349 
L 350.406243 99.878469 
L 356.48032 97.098105 
L 359.874657 95.52646 
L 362.197099 94.507482 
L 362.375748 93.92061 
L 363.626293 93.378345 
L 363.804942 93.04985 
L 367.02063 91.704605 
L 367.19928 91.376617 
L 370.236318 90.22563 
L 370.414967 90.162661 
L 370.593617 89.839506 
L 377.203642 87.310167 
L 377.382291 86.858242 
L 380.41933 85.815473 
L 384.349615 84.642146 
L 384.528264 84.266938 
L 389.351796 82.696086 
L 389.530445 82.25415 
L 390.602341 81.86315 
L 390.78099 81.421586 
L 390.95964 81.363181 
L 391.138289 80.988186 
L 392.388834 80.580831 
L 392.567484 80.269846 
L 399.177509 78.270978 
L 402.750495 77.153889 
L 404.894287 76.527093 
L 405.430235 75.723765 
L 408.467274 74.769847 
L 408.645923 74.467258 
L 413.112156 73.344875 
L 414.72 72.993432 
L 414.72 72.993432 
" clip-path="url(#p37a243f9ec)" style="fill: none; stroke-dasharray: 7.4,3.2; stroke-dashoffset: 0; stroke: #80ffb4; stroke-width: 2"/>
   </g>
   <g id="line2d_27">
    <path d="M 57.6 301.05792 
L 62.95948 301.05792 
L 63.138129 300.569045 
L 65.63922 298.58764 
L 65.817869 298.04926 
L 69.748154 294.314043 
L 69.926803 293.25556 
L 72.606543 290.814944 
L 72.785193 290.161916 
L 75.286283 288.240068 
L 75.464932 287.725124 
L 77.608724 285.940079 
L 78.144672 285.556686 
L 78.323322 284.927921 
L 83.861451 281.358881 
L 84.0401 280.740561 
L 86.898489 278.59513 
L 87.255788 278.088452 
L 91.186073 275.333737 
L 91.364722 274.562694 
L 93.865813 272.488202 
L 94.223112 272.030858 
L 94.75906 271.502021 
L 95.473657 270.887376 
L 95.830955 269.69005 
L 101.726383 264.000796 
L 104.406123 261.315426 
L 104.763422 260.656476 
L 108.872356 256.874348 
L 110.301551 255.617806 
L 110.658849 255.295777 
L 110.837499 254.642268 
L 113.15994 252.930966 
L 113.695888 252.539459 
L 113.874537 252.02613 
L 114.053187 251.896051 
L 114.231836 251.38598 
L 116.732926 249.570363 
L 117.090225 249.063554 
L 117.268874 248.934658 
L 117.447524 248.43894 
L 121.556458 245.927238 
L 121.735108 245.516504 
L 122.985653 244.945753 
L 123.164302 244.487914 
L 124.772146 243.578475 
L 124.950795 243.156115 
L 125.308094 242.945401 
L 125.486743 242.333329 
L 126.915938 241.509336 
L 127.094587 241.150694 
L 127.809185 240.729773 
L 128.166483 240.249592 
L 130.131626 238.973433 
L 132.632716 237.086206 
L 132.811366 236.567774 
L 135.312456 234.501981 
L 136.384352 233.599725 
L 136.741651 233.072431 
L 137.992196 232.14188 
L 138.349495 231.64434 
L 141.029235 229.889872 
L 141.207884 229.388671 
L 141.386533 229.267635 
L 141.565183 228.75562 
L 144.423572 226.518459 
L 144.78087 226.133556 
L 146.924662 224.499441 
L 147.103312 223.868541 
L 149.425753 222.232156 
L 149.604402 221.708574 
L 151.926843 219.958591 
L 154.249285 218.543045 
L 154.963882 218.153612 
L 155.142531 217.676235 
L 155.678479 217.385267 
L 156.035778 217.021379 
L 158.536868 215.739433 
L 158.715518 215.402294 
L 161.037959 214.210619 
L 161.395258 213.955157 
L 161.573907 213.353644 
L 163.896348 212.277595 
L 164.074997 211.808297 
L 165.682841 210.844936 
L 168.183932 209.130113 
L 168.541231 208.650661 
L 170.327724 207.47514 
L 170.506373 206.856579 
L 171.756918 206.121342 
L 171.935568 205.622555 
L 175.865853 203.020467 
L 178.545593 201.319801 
L 178.724242 200.824719 
L 179.617489 200.243127 
L 179.796138 199.876119 
L 181.403982 198.924364 
L 181.582631 198.574231 
L 182.654527 197.994437 
L 182.833177 197.517856 
L 184.61967 196.677519 
L 185.155618 196.444111 
L 185.512916 196.084152 
L 186.048864 195.814864 
L 186.227514 195.218249 
L 188.371306 194.067063 
L 188.549955 193.712504 
L 195.874577 189.659471 
L 196.231876 188.71201 
L 196.589175 188.514397 
L 196.767824 188.091941 
L 199.804862 186.237148 
L 199.983512 185.752278 
L 203.735148 183.570312 
L 203.913797 183.086322 
L 205.878939 181.739933 
L 206.057589 181.234596 
L 211.774367 177.141699 
L 211.953017 176.500625 
L 218.205743 171.877189 
L 218.384392 171.239349 
L 219.992236 170.197485 
L 224.101171 167.593807 
L 224.27982 167.110033 
L 227.138209 165.694708 
L 228.924702 164.713876 
L 229.103352 164.313368 
L 232.497689 162.610972 
L 232.854987 162.245222 
L 233.390935 161.995701 
L 233.569585 161.596274 
L 234.641481 161.100551 
L 234.998779 160.745181 
L 236.963922 159.715469 
L 240.536908 157.638732 
L 241.072856 157.301995 
L 241.430155 156.810066 
L 243.216648 155.577599 
L 243.573947 155.163165 
L 251.970465 150.26435 
L 252.149115 149.8438 
L 253.756958 148.911777 
L 253.935608 148.556933 
L 256.258049 147.373074 
L 256.436698 147.043644 
L 260.724282 145.521786 
L 261.081581 144.746516 
L 265.369165 142.561929 
L 265.547814 142.086136 
L 265.726463 141.990541 
L 265.905113 141.514791 
L 267.334307 140.752062 
L 267.512956 140.149852 
L 269.1208 139.172838 
L 274.122981 136.100152 
L 276.266773 134.750546 
L 280.911656 131.740539 
L 283.948694 130.128084 
L 284.127344 129.657955 
L 288.772226 127.333165 
L 288.950875 126.999008 
L 290.022771 126.523824 
L 290.201421 126.197698 
L 292.523862 125.219168 
L 292.702511 124.886446 
L 293.595758 124.490037 
L 293.774407 123.905546 
L 297.883342 122.38227 
L 298.061991 121.941362 
L 298.597939 121.759301 
L 298.776588 121.310065 
L 300.92038 120.59047 
L 305.386613 119.067826 
L 306.101211 118.843666 
L 306.27986 118.400887 
L 307.173107 118.078223 
L 307.351756 117.825997 
L 310.031496 116.91822 
L 310.567444 116.661642 
L 311.282041 116.404093 
L 311.46069 116.090938 
L 313.961781 115.206339 
L 314.31908 114.978675 
L 315.569625 114.652377 
L 315.926923 114.349403 
L 319.49991 113.147411 
L 319.857209 112.903205 
L 322.358299 112.029495 
L 322.715598 111.757835 
L 327.003182 110.031639 
L 327.181831 109.650923 
L 327.896428 109.409866 
L 328.253727 109.162617 
L 333.613207 107.464351 
L 336.292946 106.627033 
L 336.471596 106.320118 
L 338.07944 105.788389 
L 338.436738 105.480019 
L 339.151336 105.244202 
L 339.329985 104.934425 
L 347.369205 102.524164 
L 347.547854 101.835073 
L 350.584892 100.913459 
L 350.763542 100.48612 
L 351.835438 100.158511 
L 352.014087 99.78767 
L 353.621931 99.334346 
L 353.80058 99.034755 
L 357.373567 98.295828 
L 359.696008 97.847947 
L 359.874657 97.553349 
L 362.733047 96.893063 
L 362.911696 96.602117 
L 363.447644 96.511213 
L 363.626293 96.164216 
L 365.412786 95.862471 
L 365.591436 95.451528 
L 366.306033 95.22623 
L 366.484682 94.994132 
L 371.486863 93.958734 
L 371.665513 93.541671 
L 373.273357 93.173474 
L 375.05985 92.68201 
L 375.238499 92.371342 
L 375.417149 92.308711 
L 375.595798 91.925412 
L 378.096888 90.964939 
L 378.275538 90.522866 
L 387.208004 87.314723 
L 387.386653 86.86685 
L 390.423692 85.604902 
L 390.602341 85.151343 
L 397.212366 82.660099 
L 399.356158 81.957915 
L 399.534807 81.519463 
L 402.571846 80.535301 
L 402.750495 80.097539 
L 406.85943 78.777895 
L 407.038079 78.536812 
L 412.397559 76.969384 
L 412.576208 76.539315 
L 414.72 76.004513 
L 414.72 76.004513 
" clip-path="url(#p37a243f9ec)" style="fill: none; stroke-dasharray: 7.4,3.2; stroke-dashoffset: 0; stroke: #ff0000; stroke-width: 2"/>
   </g>
   <g id="patch_3">
    <path d="M 57.6 307.584 
L 57.6 41.472 
" style="fill: none; stroke: #000000; stroke-width: 0.8; stroke-linejoin: miter; stroke-linecap: square"/>
   </g>
   <g id="patch_4">
    <path d="M 414.72 307.584 
L 414.72 41.472 
" style="fill: none; stroke: #000000; stroke-width: 0.8; stroke-linejoin: miter; stroke-linecap: square"/>
   </g>
   <g id="patch_5">
    <path d="M 57.6 307.584 
L 414.72 307.584 
" style="fill: none; stroke: #000000; stroke-width: 0.8; stroke-linejoin: miter; stroke-linecap: square"/>
   </g>
   <g id="patch_6">
    <path d="M 57.6 41.472 
L 414.72 41.472 
" style="fill: none; stroke: #000000; stroke-width: 0.8; stroke-linejoin: miter; stroke-linecap: square"/>
   </g>
   <g id="legend_1">
    <g id="patch_7">
     <path d="M 314.584 120.95195 
L 469.166812 120.95195 
Q 471.166812 120.95195 471.166812 118.95195 
L 471.166812 75.0832 
Q 471.166812 73.0832 469.166812 73.0832 
L 314.584 73.0832 
Q 312.584 73.0832 312.584 75.0832 
L 312.584 118.95195 
Q 312.584 120.95195 314.584 120.95195 
z
" style="fill: #ffffff; opacity: 0.8; stroke: #cccccc; stroke-linejoin: miter"/>
    </g>
    <g id="line2d_28">
     <path d="M 316.584 81.181637 
L 326.584 81.181637 
L 336.584 81.181637 
" style="fill: none; stroke-dasharray: 7.4,3.2; stroke-dashoffset: 0; stroke: #8000ff; stroke-width: 2"/>
    </g>
    <g id="text_15">
     <!-- Mean: N_e = [200], 1 kA -->
     <g transform="translate(344.584 84.681637) scale(0.1 -0.1)">
      <defs>
       <path id="DejaVuSans-4d" d="M 628 4666 
L 1569 4666 
L 2759 1491 
L 3956 4666 
L 4897 4666 
L 4897 0 
L 4281 0 
L 4281 4097 
L 3078 897 
L 2444 897 
L 1241 4097 
L 1241 0 
L 628 0 
L 628 4666 
z
" transform="scale(0.015625)"/>
       <path id="DejaVuSans-3a" d="M 750 794 
L 1409 794 
L 1409 0 
L 750 0 
L 750 794 
z
M 750 3309 
L 1409 3309 
L 1409 2516 
L 750 2516 
L 750 3309 
z
" transform="scale(0.015625)"/>
       <path id="DejaVuSans-4e" d="M 628 4666 
L 1478 4666 
L 3547 763 
L 3547 4666 
L 4159 4666 
L 4159 0 
L 3309 0 
L 1241 3903 
L 1241 0 
L 628 0 
L 628 4666 
z
" transform="scale(0.015625)"/>
       <path id="DejaVuSans-5f" d="M 3263 -1063 
L 3263 -1509 
L -63 -1509 
L -63 -1063 
L 3263 -1063 
z
" transform="scale(0.015625)"/>
       <path id="DejaVuSans-3d" d="M 678 2906 
L 4684 2906 
L 4684 2381 
L 678 2381 
L 678 2906 
z
M 678 1631 
L 4684 1631 
L 4684 1100 
L 678 1100 
L 678 1631 
z
" transform="scale(0.015625)"/>
       <path id="DejaVuSans-5b" d="M 550 4863 
L 1875 4863 
L 1875 4416 
L 1125 4416 
L 1125 -397 
L 1875 -397 
L 1875 -844 
L 550 -844 
L 550 4863 
z
" transform="scale(0.015625)"/>
       <path id="DejaVuSans-5d" d="M 1947 4863 
L 1947 -844 
L 622 -844 
L 622 -397 
L 1369 -397 
L 1369 4416 
L 622 4416 
L 622 4863 
L 1947 4863 
z
" transform="scale(0.015625)"/>
       <path id="DejaVuSans-2c" d="M 750 794 
L 1409 794 
L 1409 256 
L 897 -744 
L 494 -744 
L 750 256 
L 750 794 
z
" transform="scale(0.015625)"/>
       <path id="DejaVuSans-6b" d="M 581 4863 
L 1159 4863 
L 1159 1991 
L 2875 3500 
L 3609 3500 
L 1753 1863 
L 3688 0 
L 2938 0 
L 1159 1709 
L 1159 0 
L 581 0 
L 581 4863 
z
" transform="scale(0.015625)"/>
       <path id="DejaVuSans-41" d="M 2188 4044 
L 1331 1722 
L 3047 1722 
L 2188 4044 
z
M 1831 4666 
L 2547 4666 
L 4325 0 
L 3669 0 
L 3244 1197 
L 1141 1197 
L 716 0 
L 50 0 
L 1831 4666 
z
" transform="scale(0.015625)"/>
      </defs>
      <use xlink:href="#DejaVuSans-4d"/>
      <use xlink:href="#DejaVuSans-65" transform="translate(86.279297 0)"/>
      <use xlink:href="#DejaVuSans-61" transform="translate(147.802734 0)"/>
      <use xlink:href="#DejaVuSans-6e" transform="translate(209.082031 0)"/>
      <use xlink:href="#DejaVuSans-3a" transform="translate(272.460938 0)"/>
      <use xlink:href="#DejaVuSans-20" transform="translate(306.152344 0)"/>
      <use xlink:href="#DejaVuSans-4e" transform="translate(337.939453 0)"/>
      <use xlink:href="#DejaVuSans-5f" transform="translate(412.744141 0)"/>
      <use xlink:href="#DejaVuSans-65" transform="translate(462.744141 0)"/>
      <use xlink:href="#DejaVuSans-20" transform="translate(524.267578 0)"/>
      <use xlink:href="#DejaVuSans-3d" transform="translate(556.054688 0)"/>
      <use xlink:href="#DejaVuSans-20" transform="translate(639.84375 0)"/>
      <use xlink:href="#DejaVuSans-5b" transform="translate(671.630859 0)"/>
      <use xlink:href="#DejaVuSans-32" transform="translate(710.644531 0)"/>
      <use xlink:href="#DejaVuSans-30" transform="translate(774.267578 0)"/>
      <use xlink:href="#DejaVuSans-30" transform="translate(837.890625 0)"/>
      <use xlink:href="#DejaVuSans-5d" transform="translate(901.513672 0)"/>
      <use xlink:href="#DejaVuSans-2c" transform="translate(940.527344 0)"/>
      <use xlink:href="#DejaVuSans-20" transform="translate(972.314453 0)"/>
      <use xlink:href="#DejaVuSans-31" transform="translate(1004.101562 0)"/>
      <use xlink:href="#DejaVuSans-20" transform="translate(1067.724609 0)"/>
      <use xlink:href="#DejaVuSans-6b" transform="translate(1099.511719 0)"/>
      <use xlink:href="#DejaVuSans-41" transform="translate(1157.421875 0)"/>
     </g>
    </g>
    <g id="line2d_29">
     <path d="M 316.584 96.137887 
L 326.584 96.137887 
L 336.584 96.137887 
" style="fill: none; stroke-dasharray: 7.4,3.2; stroke-dashoffset: 0; stroke: #80ffb4; stroke-width: 2"/>
    </g>
    <g id="text_16">
     <!-- Mean: N_e = [200], 2 kA -->
     <g transform="translate(344.584 99.637887) scale(0.1 -0.1)">
      <use xlink:href="#DejaVuSans-4d"/>
      <use xlink:href="#DejaVuSans-65" transform="translate(86.279297 0)"/>
      <use xlink:href="#DejaVuSans-61" transform="translate(147.802734 0)"/>
      <use xlink:href="#DejaVuSans-6e" transform="translate(209.082031 0)"/>
      <use xlink:href="#DejaVuSans-3a" transform="translate(272.460938 0)"/>
      <use xlink:href="#DejaVuSans-20" transform="translate(306.152344 0)"/>
      <use xlink:href="#DejaVuSans-4e" transform="translate(337.939453 0)"/>
      <use xlink:href="#DejaVuSans-5f" transform="translate(412.744141 0)"/>
      <use xlink:href="#DejaVuSans-65" transform="translate(462.744141 0)"/>
      <use xlink:href="#DejaVuSans-20" transform="translate(524.267578 0)"/>
      <use xlink:href="#DejaVuSans-3d" transform="translate(556.054688 0)"/>
      <use xlink:href="#DejaVuSans-20" transform="translate(639.84375 0)"/>
      <use xlink:href="#DejaVuSans-5b" transform="translate(671.630859 0)"/>
      <use xlink:href="#DejaVuSans-32" transform="translate(710.644531 0)"/>
      <use xlink:href="#DejaVuSans-30" transform="translate(774.267578 0)"/>
      <use xlink:href="#DejaVuSans-30" transform="translate(837.890625 0)"/>
      <use xlink:href="#DejaVuSans-5d" transform="translate(901.513672 0)"/>
      <use xlink:href="#DejaVuSans-2c" transform="translate(940.527344 0)"/>
      <use xlink:href="#DejaVuSans-20" transform="translate(972.314453 0)"/>
      <use xlink:href="#DejaVuSans-32" transform="translate(1004.101562 0)"/>
      <use xlink:href="#DejaVuSans-20" transform="translate(1067.724609 0)"/>
      <use xlink:href="#DejaVuSans-6b" transform="translate(1099.511719 0)"/>
      <use xlink:href="#DejaVuSans-41" transform="translate(1157.421875 0)"/>
     </g>
    </g>
    <g id="line2d_30">
     <path d="M 316.584 111.094137 
L 326.584 111.094137 
L 336.584 111.094137 
" style="fill: none; stroke-dasharray: 7.4,3.2; stroke-dashoffset: 0; stroke: #ff0000; stroke-width: 2"/>
    </g>
    <g id="text_17">
     <!-- Mean: N_e = [200], 3 kA -->
     <g transform="translate(344.584 114.594137) scale(0.1 -0.1)">
      <use xlink:href="#DejaVuSans-4d"/>
      <use xlink:href="#DejaVuSans-65" transform="translate(86.279297 0)"/>
      <use xlink:href="#DejaVuSans-61" transform="translate(147.802734 0)"/>
      <use xlink:href="#DejaVuSans-6e" transform="translate(209.082031 0)"/>
      <use xlink:href="#DejaVuSans-3a" transform="translate(272.460938 0)"/>
      <use xlink:href="#DejaVuSans-20" transform="translate(306.152344 0)"/>
      <use xlink:href="#DejaVuSans-4e" transform="translate(337.939453 0)"/>
      <use xlink:href="#DejaVuSans-5f" transform="translate(412.744141 0)"/>
      <use xlink:href="#DejaVuSans-65" transform="translate(462.744141 0)"/>
      <use xlink:href="#DejaVuSans-20" transform="translate(524.267578 0)"/>
      <use xlink:href="#DejaVuSans-3d" transform="translate(556.054688 0)"/>
      <use xlink:href="#DejaVuSans-20" transform="translate(639.84375 0)"/>
      <use xlink:href="#DejaVuSans-5b" transform="translate(671.630859 0)"/>
      <use xlink:href="#DejaVuSans-32" transform="translate(710.644531 0)"/>
      <use xlink:href="#DejaVuSans-30" transform="translate(774.267578 0)"/>
      <use xlink:href="#DejaVuSans-30" transform="translate(837.890625 0)"/>
      <use xlink:href="#DejaVuSans-5d" transform="translate(901.513672 0)"/>
      <use xlink:href="#DejaVuSans-2c" transform="translate(940.527344 0)"/>
      <use xlink:href="#DejaVuSans-20" transform="translate(972.314453 0)"/>
      <use xlink:href="#DejaVuSans-33" transform="translate(1004.101562 0)"/>
      <use xlink:href="#DejaVuSans-20" transform="translate(1067.724609 0)"/>
      <use xlink:href="#DejaVuSans-6b" transform="translate(1099.511719 0)"/>
      <use xlink:href="#DejaVuSans-41" transform="translate(1157.421875 0)"/>
     </g>
    </g>
   </g>
  </g>
 </g>
 <defs>
  <clipPath id="p37a243f9ec">
   <rect x="57.6" y="41.472" width="357.12" height="266.112"/>
  </clipPath>
 </defs>
</svg>
