<?xml version="1.0" encoding="utf-8" standalone="no"?>
<!DOCTYPE svg PUBLIC "-//W3C//DTD SVG 1.1//EN"
  "http://www.w3.org/Graphics/SVG/1.1/DTD/svg11.dtd">
<svg xmlns:xlink="http://www.w3.org/1999/xlink" width="460.8pt" height="345.6pt" viewBox="0 0 460.8 345.6" xmlns="http://www.w3.org/2000/svg" version="1.1">
 <metadata>
  <rdf:RDF xmlns:dc="http://purl.org/dc/elements/1.1/" xmlns:cc="http://creativecommons.org/ns#" xmlns:rdf="http://www.w3.org/1999/02/22-rdf-syntax-ns#">
   <cc:Work>
    <dc:type rdf:resource="http://purl.org/dc/dcmitype/StillImage"/>
    <dc:date>2025-03-25T11:20:01.509150</dc:date>
    <dc:format>image/svg+xml</dc:format>
    <dc:creator>
     <cc:Agent>
      <dc:title>Matplotlib v3.10.0, https://matplotlib.org/</dc:title>
     </cc:Agent>
    </dc:creator>
   </cc:Work>
  </rdf:RDF>
 </metadata>
 <defs>
  <style type="text/css">*{stroke-linejoin: round; stroke-linecap: butt}</style>
 </defs>
 <g id="figure_1">
  <g id="patch_1">
   <path d="M 0 345.6 
L 460.8 345.6 
L 460.8 0 
L 0 0 
z
" style="fill: #ffffff"/>
  </g>
  <g id="axes_1">
   <g id="patch_2">
    <path d="M 57.6 307.584 
L 414.72 307.584 
L 414.72 41.472 
L 57.6 41.472 
z
" style="fill: #ffffff"/>
   </g>
   <g id="matplotlib.axis_1">
    <g id="xtick_1">
     <g id="line2d_1">
      <defs>
       <path id="md1145c8c9b" d="M 0 0 
L 0 3.5 
" style="stroke: #000000; stroke-width: 0.8"/>
      </defs>
      <g>
       <use xlink:href="#md1145c8c9b" x="146.177477" y="307.584" style="stroke: #000000; stroke-width: 0.8"/>
      </g>
     </g>
     <g id="text_1">
      <!-- $\mathdefault{10^{12}}$ -->
      <g transform="translate(135.127477 322.182437) scale(0.1 -0.1)">
       <defs>
        <path id="DejaVuSans-31" d="M 794 531 
L 1825 531 
L 1825 4091 
L 703 3866 
L 703 4441 
L 1819 4666 
L 2450 4666 
L 2450 531 
L 3481 531 
L 3481 0 
L 794 0 
L 794 531 
z
" transform="scale(0.015625)"/>
        <path id="DejaVuSans-30" d="M 2034 4250 
Q 1547 4250 1301 3770 
Q 1056 3291 1056 2328 
Q 1056 1369 1301 889 
Q 1547 409 2034 409 
Q 2525 409 2770 889 
Q 3016 1369 3016 2328 
Q 3016 3291 2770 3770 
Q 2525 4250 2034 4250 
z
M 2034 4750 
Q 2819 4750 3233 4129 
Q 3647 3509 3647 2328 
Q 3647 1150 3233 529 
Q 2819 -91 2034 -91 
Q 1250 -91 836 529 
Q 422 1150 422 2328 
Q 422 3509 836 4129 
Q 1250 4750 2034 4750 
z
" transform="scale(0.015625)"/>
        <path id="DejaVuSans-32" d="M 1228 531 
L 3431 531 
L 3431 0 
L 469 0 
L 469 531 
Q 828 903 1448 1529 
Q 2069 2156 2228 2338 
Q 2531 2678 2651 2914 
Q 2772 3150 2772 3378 
Q 2772 3750 2511 3984 
Q 2250 4219 1831 4219 
Q 1534 4219 1204 4116 
Q 875 4013 500 3803 
L 500 4441 
Q 881 4594 1212 4672 
Q 1544 4750 1819 4750 
Q 2544 4750 2975 4387 
Q 3406 4025 3406 3419 
Q 3406 3131 3298 2873 
Q 3191 2616 2906 2266 
Q 2828 2175 2409 1742 
Q 1991 1309 1228 531 
z
" transform="scale(0.015625)"/>
       </defs>
       <use xlink:href="#DejaVuSans-31" transform="translate(0 0.765625)"/>
       <use xlink:href="#DejaVuSans-30" transform="translate(63.623047 0.765625)"/>
       <use xlink:href="#DejaVuSans-31" transform="translate(128.203125 39.046875) scale(0.7)"/>
       <use xlink:href="#DejaVuSans-32" transform="translate(172.739258 39.046875) scale(0.7)"/>
      </g>
     </g>
    </g>
    <g id="xtick_2">
     <g id="line2d_2">
      <g>
       <use xlink:href="#md1145c8c9b" x="265.265383" y="307.584" style="stroke: #000000; stroke-width: 0.8"/>
      </g>
     </g>
     <g id="text_2">
      <!-- $\mathdefault{10^{13}}$ -->
      <g transform="translate(254.215383 322.182437) scale(0.1 -0.1)">
       <defs>
        <path id="DejaVuSans-33" d="M 2597 2516 
Q 3050 2419 3304 2112 
Q 3559 1806 3559 1356 
Q 3559 666 3084 287 
Q 2609 -91 1734 -91 
Q 1441 -91 1130 -33 
Q 819 25 488 141 
L 488 750 
Q 750 597 1062 519 
Q 1375 441 1716 441 
Q 2309 441 2620 675 
Q 2931 909 2931 1356 
Q 2931 1769 2642 2001 
Q 2353 2234 1838 2234 
L 1294 2234 
L 1294 2753 
L 1863 2753 
Q 2328 2753 2575 2939 
Q 2822 3125 2822 3475 
Q 2822 3834 2567 4026 
Q 2313 4219 1838 4219 
Q 1578 4219 1281 4162 
Q 984 4106 628 3988 
L 628 4550 
Q 988 4650 1302 4700 
Q 1616 4750 1894 4750 
Q 2613 4750 3031 4423 
Q 3450 4097 3450 3541 
Q 3450 3153 3228 2886 
Q 3006 2619 2597 2516 
z
" transform="scale(0.015625)"/>
       </defs>
       <use xlink:href="#DejaVuSans-31" transform="translate(0 0.765625)"/>
       <use xlink:href="#DejaVuSans-30" transform="translate(63.623047 0.765625)"/>
       <use xlink:href="#DejaVuSans-31" transform="translate(128.203125 39.046875) scale(0.7)"/>
       <use xlink:href="#DejaVuSans-33" transform="translate(172.739258 39.046875) scale(0.7)"/>
      </g>
     </g>
    </g>
    <g id="xtick_3">
     <g id="line2d_3">
      <g>
       <use xlink:href="#md1145c8c9b" x="384.353289" y="307.584" style="stroke: #000000; stroke-width: 0.8"/>
      </g>
     </g>
     <g id="text_3">
      <!-- $\mathdefault{10^{14}}$ -->
      <g transform="translate(373.303289 322.182437) scale(0.1 -0.1)">
       <defs>
        <path id="DejaVuSans-34" d="M 2419 4116 
L 825 1625 
L 2419 1625 
L 2419 4116 
z
M 2253 4666 
L 3047 4666 
L 3047 1625 
L 3713 1625 
L 3713 1100 
L 3047 1100 
L 3047 0 
L 2419 0 
L 2419 1100 
L 313 1100 
L 313 1709 
L 2253 4666 
z
" transform="scale(0.015625)"/>
       </defs>
       <use xlink:href="#DejaVuSans-31" transform="translate(0 0.684375)"/>
       <use xlink:href="#DejaVuSans-30" transform="translate(63.623047 0.684375)"/>
       <use xlink:href="#DejaVuSans-31" transform="translate(128.203125 38.965625) scale(0.7)"/>
       <use xlink:href="#DejaVuSans-34" transform="translate(172.739258 38.965625) scale(0.7)"/>
      </g>
     </g>
    </g>
    <g id="xtick_4">
     <g id="line2d_4">
      <defs>
       <path id="m66b4693218" d="M 0 0 
L 0 2 
" style="stroke: #000000; stroke-width: 0.6"/>
      </defs>
      <g>
       <use xlink:href="#m66b4693218" x="62.938604" y="307.584" style="stroke: #000000; stroke-width: 0.6"/>
      </g>
     </g>
    </g>
    <g id="xtick_5">
     <g id="line2d_5">
      <g>
       <use xlink:href="#m66b4693218" x="83.908943" y="307.584" style="stroke: #000000; stroke-width: 0.6"/>
      </g>
     </g>
    </g>
    <g id="xtick_6">
     <g id="line2d_6">
      <g>
       <use xlink:href="#m66b4693218" x="98.787635" y="307.584" style="stroke: #000000; stroke-width: 0.6"/>
      </g>
     </g>
    </g>
    <g id="xtick_7">
     <g id="line2d_7">
      <g>
       <use xlink:href="#m66b4693218" x="110.328446" y="307.584" style="stroke: #000000; stroke-width: 0.6"/>
      </g>
     </g>
    </g>
    <g id="xtick_8">
     <g id="line2d_8">
      <g>
       <use xlink:href="#m66b4693218" x="119.757975" y="307.584" style="stroke: #000000; stroke-width: 0.6"/>
      </g>
     </g>
    </g>
    <g id="xtick_9">
     <g id="line2d_9">
      <g>
       <use xlink:href="#m66b4693218" x="127.730527" y="307.584" style="stroke: #000000; stroke-width: 0.6"/>
      </g>
     </g>
    </g>
    <g id="xtick_10">
     <g id="line2d_10">
      <g>
       <use xlink:href="#m66b4693218" x="134.636667" y="307.584" style="stroke: #000000; stroke-width: 0.6"/>
      </g>
     </g>
    </g>
    <g id="xtick_11">
     <g id="line2d_11">
      <g>
       <use xlink:href="#m66b4693218" x="140.728314" y="307.584" style="stroke: #000000; stroke-width: 0.6"/>
      </g>
     </g>
    </g>
    <g id="xtick_12">
     <g id="line2d_12">
      <g>
       <use xlink:href="#m66b4693218" x="182.026509" y="307.584" style="stroke: #000000; stroke-width: 0.6"/>
      </g>
     </g>
    </g>
    <g id="xtick_13">
     <g id="line2d_13">
      <g>
       <use xlink:href="#m66b4693218" x="202.996848" y="307.584" style="stroke: #000000; stroke-width: 0.6"/>
      </g>
     </g>
    </g>
    <g id="xtick_14">
     <g id="line2d_14">
      <g>
       <use xlink:href="#m66b4693218" x="217.875541" y="307.584" style="stroke: #000000; stroke-width: 0.6"/>
      </g>
     </g>
    </g>
    <g id="xtick_15">
     <g id="line2d_15">
      <g>
       <use xlink:href="#m66b4693218" x="229.416351" y="307.584" style="stroke: #000000; stroke-width: 0.6"/>
      </g>
     </g>
    </g>
    <g id="xtick_16">
     <g id="line2d_16">
      <g>
       <use xlink:href="#m66b4693218" x="238.84588" y="307.584" style="stroke: #000000; stroke-width: 0.6"/>
      </g>
     </g>
    </g>
    <g id="xtick_17">
     <g id="line2d_17">
      <g>
       <use xlink:href="#m66b4693218" x="246.818433" y="307.584" style="stroke: #000000; stroke-width: 0.6"/>
      </g>
     </g>
    </g>
    <g id="xtick_18">
     <g id="line2d_18">
      <g>
       <use xlink:href="#m66b4693218" x="253.724573" y="307.584" style="stroke: #000000; stroke-width: 0.6"/>
      </g>
     </g>
    </g>
    <g id="xtick_19">
     <g id="line2d_19">
      <g>
       <use xlink:href="#m66b4693218" x="259.816219" y="307.584" style="stroke: #000000; stroke-width: 0.6"/>
      </g>
     </g>
    </g>
    <g id="xtick_20">
     <g id="line2d_20">
      <g>
       <use xlink:href="#m66b4693218" x="301.114415" y="307.584" style="stroke: #000000; stroke-width: 0.6"/>
      </g>
     </g>
    </g>
    <g id="xtick_21">
     <g id="line2d_21">
      <g>
       <use xlink:href="#m66b4693218" x="322.084754" y="307.584" style="stroke: #000000; stroke-width: 0.6"/>
      </g>
     </g>
    </g>
    <g id="xtick_22">
     <g id="line2d_22">
      <g>
       <use xlink:href="#m66b4693218" x="336.963447" y="307.584" style="stroke: #000000; stroke-width: 0.6"/>
      </g>
     </g>
    </g>
    <g id="xtick_23">
     <g id="line2d_23">
      <g>
       <use xlink:href="#m66b4693218" x="348.504257" y="307.584" style="stroke: #000000; stroke-width: 0.6"/>
      </g>
     </g>
    </g>
    <g id="xtick_24">
     <g id="line2d_24">
      <g>
       <use xlink:href="#m66b4693218" x="357.933786" y="307.584" style="stroke: #000000; stroke-width: 0.6"/>
      </g>
     </g>
    </g>
    <g id="xtick_25">
     <g id="line2d_25">
      <g>
       <use xlink:href="#m66b4693218" x="365.906339" y="307.584" style="stroke: #000000; stroke-width: 0.6"/>
      </g>
     </g>
    </g>
    <g id="xtick_26">
     <g id="line2d_26">
      <g>
       <use xlink:href="#m66b4693218" x="372.812478" y="307.584" style="stroke: #000000; stroke-width: 0.6"/>
      </g>
     </g>
    </g>
    <g id="xtick_27">
     <g id="line2d_27">
      <g>
       <use xlink:href="#m66b4693218" x="378.904125" y="307.584" style="stroke: #000000; stroke-width: 0.6"/>
      </g>
     </g>
    </g>
    <g id="text_4">
     <!-- Log time  -->
     <g transform="translate(212.75375 335.860562) scale(0.1 -0.1)">
      <defs>
       <path id="DejaVuSans-4c" d="M 628 4666 
L 1259 4666 
L 1259 531 
L 3531 531 
L 3531 0 
L 628 0 
L 628 4666 
z
" transform="scale(0.015625)"/>
       <path id="DejaVuSans-6f" d="M 1959 3097 
Q 1497 3097 1228 2736 
Q 959 2375 959 1747 
Q 959 1119 1226 758 
Q 1494 397 1959 397 
Q 2419 397 2687 759 
Q 2956 1122 2956 1747 
Q 2956 2369 2687 2733 
Q 2419 3097 1959 3097 
z
M 1959 3584 
Q 2709 3584 3137 3096 
Q 3566 2609 3566 1747 
Q 3566 888 3137 398 
Q 2709 -91 1959 -91 
Q 1206 -91 779 398 
Q 353 888 353 1747 
Q 353 2609 779 3096 
Q 1206 3584 1959 3584 
z
" transform="scale(0.015625)"/>
       <path id="DejaVuSans-67" d="M 2906 1791 
Q 2906 2416 2648 2759 
Q 2391 3103 1925 3103 
Q 1463 3103 1205 2759 
Q 947 2416 947 1791 
Q 947 1169 1205 825 
Q 1463 481 1925 481 
Q 2391 481 2648 825 
Q 2906 1169 2906 1791 
z
M 3481 434 
Q 3481 -459 3084 -895 
Q 2688 -1331 1869 -1331 
Q 1566 -1331 1297 -1286 
Q 1028 -1241 775 -1147 
L 775 -588 
Q 1028 -725 1275 -790 
Q 1522 -856 1778 -856 
Q 2344 -856 2625 -561 
Q 2906 -266 2906 331 
L 2906 616 
Q 2728 306 2450 153 
Q 2172 0 1784 0 
Q 1141 0 747 490 
Q 353 981 353 1791 
Q 353 2603 747 3093 
Q 1141 3584 1784 3584 
Q 2172 3584 2450 3431 
Q 2728 3278 2906 2969 
L 2906 3500 
L 3481 3500 
L 3481 434 
z
" transform="scale(0.015625)"/>
       <path id="DejaVuSans-20" transform="scale(0.015625)"/>
       <path id="DejaVuSans-74" d="M 1172 4494 
L 1172 3500 
L 2356 3500 
L 2356 3053 
L 1172 3053 
L 1172 1153 
Q 1172 725 1289 603 
Q 1406 481 1766 481 
L 2356 481 
L 2356 0 
L 1766 0 
Q 1100 0 847 248 
Q 594 497 594 1153 
L 594 3053 
L 172 3053 
L 172 3500 
L 594 3500 
L 594 4494 
L 1172 4494 
z
" transform="scale(0.015625)"/>
       <path id="DejaVuSans-69" d="M 603 3500 
L 1178 3500 
L 1178 0 
L 603 0 
L 603 3500 
z
M 603 4863 
L 1178 4863 
L 1178 4134 
L 603 4134 
L 603 4863 
z
" transform="scale(0.015625)"/>
       <path id="DejaVuSans-6d" d="M 3328 2828 
Q 3544 3216 3844 3400 
Q 4144 3584 4550 3584 
Q 5097 3584 5394 3201 
Q 5691 2819 5691 2113 
L 5691 0 
L 5113 0 
L 5113 2094 
Q 5113 2597 4934 2840 
Q 4756 3084 4391 3084 
Q 3944 3084 3684 2787 
Q 3425 2491 3425 1978 
L 3425 0 
L 2847 0 
L 2847 2094 
Q 2847 2600 2669 2842 
Q 2491 3084 2119 3084 
Q 1678 3084 1418 2786 
Q 1159 2488 1159 1978 
L 1159 0 
L 581 0 
L 581 3500 
L 1159 3500 
L 1159 2956 
Q 1356 3278 1631 3431 
Q 1906 3584 2284 3584 
Q 2666 3584 2933 3390 
Q 3200 3197 3328 2828 
z
" transform="scale(0.015625)"/>
       <path id="DejaVuSans-65" d="M 3597 1894 
L 3597 1613 
L 953 1613 
Q 991 1019 1311 708 
Q 1631 397 2203 397 
Q 2534 397 2845 478 
Q 3156 559 3463 722 
L 3463 178 
Q 3153 47 2828 -22 
Q 2503 -91 2169 -91 
Q 1331 -91 842 396 
Q 353 884 353 1716 
Q 353 2575 817 3079 
Q 1281 3584 2069 3584 
Q 2775 3584 3186 3129 
Q 3597 2675 3597 1894 
z
M 3022 2063 
Q 3016 2534 2758 2815 
Q 2500 3097 2075 3097 
Q 1594 3097 1305 2825 
Q 1016 2553 972 2059 
L 3022 2063 
z
" transform="scale(0.015625)"/>
      </defs>
      <use xlink:href="#DejaVuSans-4c"/>
      <use xlink:href="#DejaVuSans-6f" transform="translate(53.962891 0)"/>
      <use xlink:href="#DejaVuSans-67" transform="translate(115.144531 0)"/>
      <use xlink:href="#DejaVuSans-20" transform="translate(178.621094 0)"/>
      <use xlink:href="#DejaVuSans-74" transform="translate(210.408203 0)"/>
      <use xlink:href="#DejaVuSans-69" transform="translate(249.617188 0)"/>
      <use xlink:href="#DejaVuSans-6d" transform="translate(277.400391 0)"/>
      <use xlink:href="#DejaVuSans-65" transform="translate(374.8125 0)"/>
      <use xlink:href="#DejaVuSans-20" transform="translate(436.335938 0)"/>
     </g>
    </g>
   </g>
   <g id="matplotlib.axis_2">
    <g id="ytick_1">
     <g id="line2d_28">
      <defs>
       <path id="mf1d03a2328" d="M 0 0 
L -3.5 0 
" style="stroke: #000000; stroke-width: 0.8"/>
      </defs>
      <g>
       <use xlink:href="#mf1d03a2328" x="57.6" y="307.584" style="stroke: #000000; stroke-width: 0.8"/>
      </g>
     </g>
     <g id="text_5">
      <!-- 0.0 -->
      <g transform="translate(34.696875 311.383219) scale(0.1 -0.1)">
       <defs>
        <path id="DejaVuSans-2e" d="M 684 794 
L 1344 794 
L 1344 0 
L 684 0 
L 684 794 
z
" transform="scale(0.015625)"/>
       </defs>
       <use xlink:href="#DejaVuSans-30"/>
       <use xlink:href="#DejaVuSans-2e" transform="translate(63.623047 0)"/>
       <use xlink:href="#DejaVuSans-30" transform="translate(95.410156 0)"/>
      </g>
     </g>
    </g>
    <g id="ytick_2">
     <g id="line2d_29">
      <g>
       <use xlink:href="#mf1d03a2328" x="57.6" y="254.3616" style="stroke: #000000; stroke-width: 0.8"/>
      </g>
     </g>
     <g id="text_6">
      <!-- 0.2 -->
      <g transform="translate(34.696875 258.160819) scale(0.1 -0.1)">
       <use xlink:href="#DejaVuSans-30"/>
       <use xlink:href="#DejaVuSans-2e" transform="translate(63.623047 0)"/>
       <use xlink:href="#DejaVuSans-32" transform="translate(95.410156 0)"/>
      </g>
     </g>
    </g>
    <g id="ytick_3">
     <g id="line2d_30">
      <g>
       <use xlink:href="#mf1d03a2328" x="57.6" y="201.1392" style="stroke: #000000; stroke-width: 0.8"/>
      </g>
     </g>
     <g id="text_7">
      <!-- 0.4 -->
      <g transform="translate(34.696875 204.938419) scale(0.1 -0.1)">
       <use xlink:href="#DejaVuSans-30"/>
       <use xlink:href="#DejaVuSans-2e" transform="translate(63.623047 0)"/>
       <use xlink:href="#DejaVuSans-34" transform="translate(95.410156 0)"/>
      </g>
     </g>
    </g>
    <g id="ytick_4">
     <g id="line2d_31">
      <g>
       <use xlink:href="#mf1d03a2328" x="57.6" y="147.9168" style="stroke: #000000; stroke-width: 0.8"/>
      </g>
     </g>
     <g id="text_8">
      <!-- 0.6 -->
      <g transform="translate(34.696875 151.716019) scale(0.1 -0.1)">
       <defs>
        <path id="DejaVuSans-36" d="M 2113 2584 
Q 1688 2584 1439 2293 
Q 1191 2003 1191 1497 
Q 1191 994 1439 701 
Q 1688 409 2113 409 
Q 2538 409 2786 701 
Q 3034 994 3034 1497 
Q 3034 2003 2786 2293 
Q 2538 2584 2113 2584 
z
M 3366 4563 
L 3366 3988 
Q 3128 4100 2886 4159 
Q 2644 4219 2406 4219 
Q 1781 4219 1451 3797 
Q 1122 3375 1075 2522 
Q 1259 2794 1537 2939 
Q 1816 3084 2150 3084 
Q 2853 3084 3261 2657 
Q 3669 2231 3669 1497 
Q 3669 778 3244 343 
Q 2819 -91 2113 -91 
Q 1303 -91 875 529 
Q 447 1150 447 2328 
Q 447 3434 972 4092 
Q 1497 4750 2381 4750 
Q 2619 4750 2861 4703 
Q 3103 4656 3366 4563 
z
" transform="scale(0.015625)"/>
       </defs>
       <use xlink:href="#DejaVuSans-30"/>
       <use xlink:href="#DejaVuSans-2e" transform="translate(63.623047 0)"/>
       <use xlink:href="#DejaVuSans-36" transform="translate(95.410156 0)"/>
      </g>
     </g>
    </g>
    <g id="ytick_5">
     <g id="line2d_32">
      <g>
       <use xlink:href="#mf1d03a2328" x="57.6" y="94.6944" style="stroke: #000000; stroke-width: 0.8"/>
      </g>
     </g>
     <g id="text_9">
      <!-- 0.8 -->
      <g transform="translate(34.696875 98.493619) scale(0.1 -0.1)">
       <defs>
        <path id="DejaVuSans-38" d="M 2034 2216 
Q 1584 2216 1326 1975 
Q 1069 1734 1069 1313 
Q 1069 891 1326 650 
Q 1584 409 2034 409 
Q 2484 409 2743 651 
Q 3003 894 3003 1313 
Q 3003 1734 2745 1975 
Q 2488 2216 2034 2216 
z
M 1403 2484 
Q 997 2584 770 2862 
Q 544 3141 544 3541 
Q 544 4100 942 4425 
Q 1341 4750 2034 4750 
Q 2731 4750 3128 4425 
Q 3525 4100 3525 3541 
Q 3525 3141 3298 2862 
Q 3072 2584 2669 2484 
Q 3125 2378 3379 2068 
Q 3634 1759 3634 1313 
Q 3634 634 3220 271 
Q 2806 -91 2034 -91 
Q 1263 -91 848 271 
Q 434 634 434 1313 
Q 434 1759 690 2068 
Q 947 2378 1403 2484 
z
M 1172 3481 
Q 1172 3119 1398 2916 
Q 1625 2713 2034 2713 
Q 2441 2713 2670 2916 
Q 2900 3119 2900 3481 
Q 2900 3844 2670 4047 
Q 2441 4250 2034 4250 
Q 1625 4250 1398 4047 
Q 1172 3844 1172 3481 
z
" transform="scale(0.015625)"/>
       </defs>
       <use xlink:href="#DejaVuSans-30"/>
       <use xlink:href="#DejaVuSans-2e" transform="translate(63.623047 0)"/>
       <use xlink:href="#DejaVuSans-38" transform="translate(95.410156 0)"/>
      </g>
     </g>
    </g>
    <g id="ytick_6">
     <g id="line2d_33">
      <g>
       <use xlink:href="#mf1d03a2328" x="57.6" y="41.472" style="stroke: #000000; stroke-width: 0.8"/>
      </g>
     </g>
     <g id="text_10">
      <!-- 1.0 -->
      <g transform="translate(34.696875 45.271219) scale(0.1 -0.1)">
       <use xlink:href="#DejaVuSans-31"/>
       <use xlink:href="#DejaVuSans-2e" transform="translate(63.623047 0)"/>
       <use xlink:href="#DejaVuSans-30" transform="translate(95.410156 0)"/>
      </g>
     </g>
    </g>
    <g id="text_11">
     <!-- Percent of filled traps -->
     <g transform="translate(28.617187 227.95925) rotate(-90) scale(0.1 -0.1)">
      <defs>
       <path id="DejaVuSans-50" d="M 1259 4147 
L 1259 2394 
L 2053 2394 
Q 2494 2394 2734 2622 
Q 2975 2850 2975 3272 
Q 2975 3691 2734 3919 
Q 2494 4147 2053 4147 
L 1259 4147 
z
M 628 4666 
L 2053 4666 
Q 2838 4666 3239 4311 
Q 3641 3956 3641 3272 
Q 3641 2581 3239 2228 
Q 2838 1875 2053 1875 
L 1259 1875 
L 1259 0 
L 628 0 
L 628 4666 
z
" transform="scale(0.015625)"/>
       <path id="DejaVuSans-72" d="M 2631 2963 
Q 2534 3019 2420 3045 
Q 2306 3072 2169 3072 
Q 1681 3072 1420 2755 
Q 1159 2438 1159 1844 
L 1159 0 
L 581 0 
L 581 3500 
L 1159 3500 
L 1159 2956 
Q 1341 3275 1631 3429 
Q 1922 3584 2338 3584 
Q 2397 3584 2469 3576 
Q 2541 3569 2628 3553 
L 2631 2963 
z
" transform="scale(0.015625)"/>
       <path id="DejaVuSans-63" d="M 3122 3366 
L 3122 2828 
Q 2878 2963 2633 3030 
Q 2388 3097 2138 3097 
Q 1578 3097 1268 2742 
Q 959 2388 959 1747 
Q 959 1106 1268 751 
Q 1578 397 2138 397 
Q 2388 397 2633 464 
Q 2878 531 3122 666 
L 3122 134 
Q 2881 22 2623 -34 
Q 2366 -91 2075 -91 
Q 1284 -91 818 406 
Q 353 903 353 1747 
Q 353 2603 823 3093 
Q 1294 3584 2113 3584 
Q 2378 3584 2631 3529 
Q 2884 3475 3122 3366 
z
" transform="scale(0.015625)"/>
       <path id="DejaVuSans-6e" d="M 3513 2113 
L 3513 0 
L 2938 0 
L 2938 2094 
Q 2938 2591 2744 2837 
Q 2550 3084 2163 3084 
Q 1697 3084 1428 2787 
Q 1159 2491 1159 1978 
L 1159 0 
L 581 0 
L 581 3500 
L 1159 3500 
L 1159 2956 
Q 1366 3272 1645 3428 
Q 1925 3584 2291 3584 
Q 2894 3584 3203 3211 
Q 3513 2838 3513 2113 
z
" transform="scale(0.015625)"/>
       <path id="DejaVuSans-66" d="M 2375 4863 
L 2375 4384 
L 1825 4384 
Q 1516 4384 1395 4259 
Q 1275 4134 1275 3809 
L 1275 3500 
L 2222 3500 
L 2222 3053 
L 1275 3053 
L 1275 0 
L 697 0 
L 697 3053 
L 147 3053 
L 147 3500 
L 697 3500 
L 697 3744 
Q 697 4328 969 4595 
Q 1241 4863 1831 4863 
L 2375 4863 
z
" transform="scale(0.015625)"/>
       <path id="DejaVuSans-6c" d="M 603 4863 
L 1178 4863 
L 1178 0 
L 603 0 
L 603 4863 
z
" transform="scale(0.015625)"/>
       <path id="DejaVuSans-64" d="M 2906 2969 
L 2906 4863 
L 3481 4863 
L 3481 0 
L 2906 0 
L 2906 525 
Q 2725 213 2448 61 
Q 2172 -91 1784 -91 
Q 1150 -91 751 415 
Q 353 922 353 1747 
Q 353 2572 751 3078 
Q 1150 3584 1784 3584 
Q 2172 3584 2448 3432 
Q 2725 3281 2906 2969 
z
M 947 1747 
Q 947 1113 1208 752 
Q 1469 391 1925 391 
Q 2381 391 2643 752 
Q 2906 1113 2906 1747 
Q 2906 2381 2643 2742 
Q 2381 3103 1925 3103 
Q 1469 3103 1208 2742 
Q 947 2381 947 1747 
z
" transform="scale(0.015625)"/>
       <path id="DejaVuSans-61" d="M 2194 1759 
Q 1497 1759 1228 1600 
Q 959 1441 959 1056 
Q 959 750 1161 570 
Q 1363 391 1709 391 
Q 2188 391 2477 730 
Q 2766 1069 2766 1631 
L 2766 1759 
L 2194 1759 
z
M 3341 1997 
L 3341 0 
L 2766 0 
L 2766 531 
Q 2569 213 2275 61 
Q 1981 -91 1556 -91 
Q 1019 -91 701 211 
Q 384 513 384 1019 
Q 384 1609 779 1909 
Q 1175 2209 1959 2209 
L 2766 2209 
L 2766 2266 
Q 2766 2663 2505 2880 
Q 2244 3097 1772 3097 
Q 1472 3097 1187 3025 
Q 903 2953 641 2809 
L 641 3341 
Q 956 3463 1253 3523 
Q 1550 3584 1831 3584 
Q 2591 3584 2966 3190 
Q 3341 2797 3341 1997 
z
" transform="scale(0.015625)"/>
       <path id="DejaVuSans-70" d="M 1159 525 
L 1159 -1331 
L 581 -1331 
L 581 3500 
L 1159 3500 
L 1159 2969 
Q 1341 3281 1617 3432 
Q 1894 3584 2278 3584 
Q 2916 3584 3314 3078 
Q 3713 2572 3713 1747 
Q 3713 922 3314 415 
Q 2916 -91 2278 -91 
Q 1894 -91 1617 61 
Q 1341 213 1159 525 
z
M 3116 1747 
Q 3116 2381 2855 2742 
Q 2594 3103 2138 3103 
Q 1681 3103 1420 2742 
Q 1159 2381 1159 1747 
Q 1159 1113 1420 752 
Q 1681 391 2138 391 
Q 2594 391 2855 752 
Q 3116 1113 3116 1747 
z
" transform="scale(0.015625)"/>
       <path id="DejaVuSans-73" d="M 2834 3397 
L 2834 2853 
Q 2591 2978 2328 3040 
Q 2066 3103 1784 3103 
Q 1356 3103 1142 2972 
Q 928 2841 928 2578 
Q 928 2378 1081 2264 
Q 1234 2150 1697 2047 
L 1894 2003 
Q 2506 1872 2764 1633 
Q 3022 1394 3022 966 
Q 3022 478 2636 193 
Q 2250 -91 1575 -91 
Q 1294 -91 989 -36 
Q 684 19 347 128 
L 347 722 
Q 666 556 975 473 
Q 1284 391 1588 391 
Q 1994 391 2212 530 
Q 2431 669 2431 922 
Q 2431 1156 2273 1281 
Q 2116 1406 1581 1522 
L 1381 1569 
Q 847 1681 609 1914 
Q 372 2147 372 2553 
Q 372 3047 722 3315 
Q 1072 3584 1716 3584 
Q 2034 3584 2315 3537 
Q 2597 3491 2834 3397 
z
" transform="scale(0.015625)"/>
      </defs>
      <use xlink:href="#DejaVuSans-50"/>
      <use xlink:href="#DejaVuSans-65" transform="translate(56.677734 0)"/>
      <use xlink:href="#DejaVuSans-72" transform="translate(118.201172 0)"/>
      <use xlink:href="#DejaVuSans-63" transform="translate(157.064453 0)"/>
      <use xlink:href="#DejaVuSans-65" transform="translate(212.044922 0)"/>
      <use xlink:href="#DejaVuSans-6e" transform="translate(273.568359 0)"/>
      <use xlink:href="#DejaVuSans-74" transform="translate(336.947266 0)"/>
      <use xlink:href="#DejaVuSans-20" transform="translate(376.15625 0)"/>
      <use xlink:href="#DejaVuSans-6f" transform="translate(407.943359 0)"/>
      <use xlink:href="#DejaVuSans-66" transform="translate(469.125 0)"/>
      <use xlink:href="#DejaVuSans-20" transform="translate(504.330078 0)"/>
      <use xlink:href="#DejaVuSans-66" transform="translate(536.117188 0)"/>
      <use xlink:href="#DejaVuSans-69" transform="translate(571.322266 0)"/>
      <use xlink:href="#DejaVuSans-6c" transform="translate(599.105469 0)"/>
      <use xlink:href="#DejaVuSans-6c" transform="translate(626.888672 0)"/>
      <use xlink:href="#DejaVuSans-65" transform="translate(654.671875 0)"/>
      <use xlink:href="#DejaVuSans-64" transform="translate(716.195312 0)"/>
      <use xlink:href="#DejaVuSans-20" transform="translate(779.671875 0)"/>
      <use xlink:href="#DejaVuSans-74" transform="translate(811.458984 0)"/>
      <use xlink:href="#DejaVuSans-72" transform="translate(850.667969 0)"/>
      <use xlink:href="#DejaVuSans-61" transform="translate(891.78125 0)"/>
      <use xlink:href="#DejaVuSans-70" transform="translate(953.060547 0)"/>
      <use xlink:href="#DejaVuSans-73" transform="translate(1016.537109 0)"/>
     </g>
    </g>
   </g>
   <g id="line2d_34">
    <path d="M 73.832727 298.557481 
L 73.832727 298.206213 
L 80.893945 297.503677 
L 80.893945 297.15241 
L 89.864206 296.449874 
L 91.510785 296.077317 
L 98.278965 295.694116 
L 102.534934 294.927713 
L 102.534934 294.544512 
L 103.295406 294.140022 
L 103.295406 293.75682 
L 105.750478 293.373619 
L 105.822319 292.990418 
L 106.228896 292.607217 
L 107.98166 292.245304 
L 108.16106 291.883392 
L 108.658724 291.52148 
L 108.951008 291.159567 
L 110.440191 290.797655 
L 110.692118 290.457032 
L 110.741423 289.520317 
L 113.369031 289.200983 
L 113.520886 288.881649 
L 119.307013 288.562314 
L 120.858855 288.24298 
L 120.915563 287.923645 
L 121.547796 287.604311 
L 125.617728 287.306266 
L 127.941002 287.00822 
L 129.174222 286.710175 
L 129.532704 286.433418 
L 131.973366 286.135373 
L 132.050642 285.517993 
L 132.338804 285.209303 
L 132.381815 284.911258 
L 136.850607 284.613212 
L 136.850607 284.315167 
L 138.762771 284.017121 
L 138.762771 283.740365 
L 143.734444 283.197496 
L 143.734444 282.665272 
L 144.093534 282.377871 
L 144.093534 282.09047 
L 151.810842 281.579535 
L 152.21692 281.324068 
L 152.271214 280.855711 
L 153.54846 280.642821 
L 153.54846 280.429932 
L 153.966614 280.025441 
L 153.966614 279.833841 
L 156.149806 279.471928 
L 156.331396 279.269683 
L 160.943836 278.705526 
L 161.78216 278.322324 
L 161.78216 278.120079 
L 162.84899 277.917834 
L 163.424182 277.492055 
L 164.678672 277.257876 
L 164.913124 277.034342 
L 166.026159 276.789519 
L 166.026159 276.544696 
L 166.548602 276.076339 
L 166.548602 275.831516 
L 167.897027 275.607982 
L 167.897027 275.384448 
L 169.070889 275.160914 
L 171.452327 274.93738 
L 171.452327 274.713846 
L 174.988343 274.266778 
L 176.296088 274.064532 
L 176.626356 273.649398 
L 176.626356 273.447153 
L 177.658672 273.042662 
L 177.658672 272.840417 
L 178.174259 272.638172 
L 178.335473 272.265615 
L 178.596946 272.095304 
L 180.383852 271.595013 
L 180.840536 271.211812 
L 180.840536 271.020211 
L 181.190032 270.828611 
L 181.190032 270.63701 
L 181.633458 270.42412 
L 181.633458 270.211231 
L 181.777591 269.998341 
L 183.583829 269.774807 
L 183.583829 269.561917 
L 184.117313 269.338383 
L 184.189603 268.465536 
L 184.961993 268.242002 
L 185.010452 267.550111 
L 185.010452 267.326577 
L 186.162664 267.103043 
L 186.186121 266.64533 
L 186.385706 266.411151 
L 187.850152 265.942794 
L 188.031827 265.708616 
L 188.085348 265.208325 
L 189.006187 264.676101 
L 190.591365 264.3887 
L 191.36394 264.101299 
L 191.805397 263.207163 
L 191.879857 262.24916 
L 192.594602 261.908536 
L 194.503721 261.589202 
L 195.431568 260.950533 
L 195.431568 260.620554 
L 195.911512 260.269286 
L 196.620235 259.918019 
L 197.035809 259.545462 
L 197.261505 258.821637 
L 197.331329 258.459725 
L 198.049127 257.746545 
L 199.221017 257.395277 
L 199.745069 256.692741 
L 200.595601 256.00085 
L 200.933459 255.330248 
L 201.554526 254.340311 
L 201.93688 254.031621 
L 202.107305 253.712287 
L 202.114341 253.073618 
L 204.542552 251.785636 
L 204.832722 251.476946 
L 205.370602 249.720607 
L 205.570369 249.433206 
L 205.620128 248.581647 
L 206.742701 247.793956 
L 206.789459 247.272376 
L 207.341331 247.006264 
L 207.341331 246.740152 
L 208.603897 246.005683 
L 208.841478 245.782149 
L 210.107405 245.335081 
L 210.135318 244.919946 
L 210.879422 244.717701 
L 210.9684 244.3345 
L 211.538662 243.93001 
L 212.214362 243.71712 
L 212.390293 243.50423 
L 213.161909 243.301985 
L 213.161909 243.09974 
L 213.431947 242.727183 
L 213.431947 242.524938 
L 213.841031 242.343982 
L 214.161786 241.939492 
L 214.927082 241.737247 
L 214.951752 241.332756 
L 215.449628 241.130511 
L 215.449628 240.726021 
L 215.960856 240.513132 
L 216.800993 239.51255 
L 216.936926 239.310305 
L 217.448688 239.097416 
L 217.827435 238.543903 
L 217.827435 238.39488 
L 218.79061 238.235213 
L 218.79061 238.08619 
L 218.98391 237.937167 
L 218.987716 237.628477 
L 219.586916 237.351721 
L 219.836601 237.213343 
L 219.836601 237.074964 
L 221.7724 236.75563 
L 221.78221 236.595963 
L 222.258409 236.063739 
L 222.258409 235.882783 
L 223.442728 234.988646 
L 223.479427 234.339333 
L 225.339537 233.817754 
L 225.445994 233.157796 
L 226.111287 232.998129 
L 226.507361 232.327526 
L 226.933111 232.029481 
L 226.933111 231.880458 
L 227.061684 231.710147 
L 227.817745 231.550479 
L 227.817745 231.390812 
L 228.000594 231.071478 
L 228.106019 230.9331 
L 228.400654 230.784077 
L 228.400654 230.645699 
L 228.597911 230.305075 
L 228.744936 230.134764 
L 228.744936 229.964452 
L 228.905351 229.613184 
L 228.905351 229.421583 
L 230.355133 228.900004 
L 230.452004 228.601958 
L 230.523169 228.176179 
L 230.921842 228.048445 
L 231.695725 226.047283 
L 231.992054 225.727949 
L 232.014132 225.206369 
L 232.249305 225.046702 
L 232.249305 224.865746 
L 233.022228 224.195144 
L 233.796088 224.046121 
L 234.0535 223.726787 
L 234.0535 223.556475 
L 235.108092 223.024251 
L 235.161308 222.364293 
L 235.52578 221.853358 
L 236.46219 221.235978 
L 236.563167 220.522798 
L 236.999899 220.17153 
L 237.610659 219.202883 
L 238.190159 216.850452 
L 238.591705 215.881805 
L 238.932518 215.722138 
L 239.026827 215.221847 
L 239.337082 214.955735 
L 241.393452 214.572534 
L 241.421309 214.019021 
L 241.760572 213.73162 
L 241.853006 212.890706 
L 241.940194 212.454282 
L 242.342261 212.060436 
L 242.868288 210.367964 
L 243.729166 210.133786 
L 243.829177 209.495117 
L 244.077192 209.069338 
L 244.570248 208.526469 
L 244.570248 208.19649 
L 244.773677 207.855867 
L 244.784359 207.185265 
L 244.933842 207.014953 
L 244.933842 206.833997 
L 245.094702 206.653041 
L 246.00264 206.323062 
L 246.399411 205.588593 
L 246.705528 205.13088 
L 246.800521 203.80032 
L 247.050552 203.427763 
L 247.160434 202.810383 
L 247.178565 202.352671 
L 247.448179 201.916247 
L 247.700394 201.266934 
L 248.278452 199.797996 
L 248.296228 199.414794 
L 248.599641 199.010304 
L 248.648265 198.009723 
L 248.981737 197.615877 
L 249.086227 197.200742 
L 249.207727 196.019205 
L 249.302399 195.827604 
L 249.580445 195.465692 
L 250.023461 194.241577 
L 250.193184 193.666775 
L 250.332249 193.283574 
L 250.735762 192.357504 
L 251.024594 190.89921 
L 251.631325 190.39892 
L 251.715516 190.207319 
L 252.346414 189.813473 
L 252.626572 187.673933 
L 252.796033 187.503621 
L 252.912046 187.152353 
L 253.009644 186.801085 
L 253.044202 186.449818 
L 254.19487 185.534392 
L 254.498058 185.204413 
L 254.691127 185.034102 
L 254.70612 184.853146 
L 255.136429 184.491233 
L 255.219993 183.980298 
L 255.456671 183.299052 
L 255.919069 182.82005 
L 256.994304 182.170737 
L 257.235386 181.649157 
L 257.34608 181.063711 
L 257.667414 180.169574 
L 257.83622 180.052485 
L 257.928132 179.775729 
L 258.380423 179.04126 
L 258.442164 178.551613 
L 258.714336 178.168412 
L 258.987676 177.657477 
L 259.140298 177.444588 
L 259.345116 177.103964 
L 259.847949 176.763341 
L 260.271424 175.560515 
L 260.454845 175.14538 
L 260.947984 174.83669 
L 261.29333 174.528 
L 261.359278 174.070287 
L 262.031328 172.910039 
L 262.357166 172.761016 
L 262.404144 172.164925 
L 262.722356 171.504968 
L 263.076689 171.036611 
L 263.251431 170.568253 
L 263.444781 169.376072 
L 263.688563 168.875781 
L 264.030741 168.18389 
L 264.225885 167.885844 
L 264.648424 166.299817 
L 265.263164 165.746304 
L 265.270154 165.341814 
L 265.621329 165.086346 
L 265.763361 164.660567 
L 265.763361 164.564767 
L 266.621056 164.138988 
L 266.725392 163.968676 
L 268.558168 163.542897 
L 268.849202 163.202273 
L 269.388628 162.095247 
L 270.126137 161.861069 
L 270.358762 161.733335 
L 270.479159 160.306975 
L 270.579236 160.083441 
L 270.679119 159.881196 
L 270.935001 159.338327 
L 271.332694 159.114793 
L 271.692446 158.401613 
L 272.116479 157.347809 
L 273.241526 156.357873 
L 273.365511 156.081116 
L 274.37175 155.846938 
L 274.406686 155.069891 
L 274.541685 154.846356 
L 274.919668 154.228977 
L 275.023043 154.037376 
L 275.715752 153.260329 
L 276.075146 152.142659 
L 276.783064 151.833969 
L 276.783064 151.727524 
L 277.292377 151.205944 
L 277.69219 150.226652 
L 278.013917 149.417672 
L 278.013917 149.289938 
L 278.603069 148.598047 
L 278.812243 146.330772 
L 279.064613 144.553144 
L 279.255485 143.627075 
L 279.32259 143.11614 
L 279.425208 142.509404 
L 279.825115 141.625912 
L 280.209799 140.795643 
L 280.26831 140.55082 
L 280.760114 139.262838 
L 280.872121 138.900925 
L 281.328827 138.666747 
L 281.418917 137.038141 
L 282.216016 135.260513 
L 282.989629 134.196065 
L 283.09174 133.653197 
L 284.164885 133.057106 
L 284.795553 132.492948 
L 285.202011 132.024591 
L 286.003433 131.588168 
L 286.118731 131.2369 
L 286.27818 131.055944 
L 286.43688 130.885632 
L 286.651498 130.236319 
L 286.740426 130.076652 
L 287.024962 129.853117 
L 288.138275 129.310249 
L 288.174667 128.873825 
L 289.467268 128.107423 
L 290.278373 126.446884 
L 290.672708 126.22335 
L 291.216661 125.861437 
L 291.424866 125.382436 
L 291.523643 125.031168 
L 291.845116 124.6799 
L 292.141521 123.785764 
L 292.406039 123.285473 
L 293.537534 122.103936 
L 293.744898 121.667512 
L 294.607957 120.581775 
L 294.882078 118.804147 
L 295.035161 117.963233 
L 295.257232 116.994586 
L 295.419535 116.366561 
L 295.680391 115.451136 
L 295.859593 114.557 
L 295.947428 114.067354 
L 296.035247 113.758664 
L 296.774288 112.91775 
L 297.139018 112.577126 
L 297.448052 111.906524 
L 297.598628 111.672346 
L 298.415566 109.394427 
L 298.519049 108.564157 
L 298.726673 108.298045 
L 298.824597 108.031933 
L 299.085945 107.638088 
L 299.865459 107.041997 
L 300.247654 106.520417 
L 300.420904 106.243661 
L 301.135497 105.285658 
L 301.646603 104.998257 
L 301.728237 104.678922 
L 301.994087 104.466033 
L 302.294158 103.869942 
L 302.526157 103.646408 
L 302.77607 103.476096 
L 303.550743 102.390359 
L 303.589621 101.975224 
L 303.765643 100.878843 
L 303.989614 100.506286 
L 304.049432 100.304041 
L 304.295894 99.80375 
L 304.400503 99.260882 
L 304.682908 98.877681 
L 304.899374 98.622213 
L 305.207389 97.153275 
L 305.299725 96.652984 
L 305.42812 96.216561 
L 305.911867 94.524088 
L 306.193348 93.896064 
L 306.27384 93.427707 
L 306.382787 93.182884 
L 306.750975 92.586793 
L 306.780397 92.34197 
L 307.249901 91.980058 
L 308.093725 90.415319 
L 308.395473 90.032118 
L 308.715736 89.46796 
L 310.683219 88.158689 
L 311.487239 87.392287 
L 312.029323 86.764262 
L 312.939902 85.987215 
L 313.145223 85.540147 
L 313.26678 85.103724 
L 313.485356 84.912123 
L 314.326081 84.347965 
L 314.544724 84.135076 
L 314.753424 84.081853 
L 317.504493 83.538985 
L 317.612615 83.219651 
L 318.079257 82.868383 
L 318.88477 81.612334 
L 319.639836 81.239777 
L 319.806921 80.952376 
L 319.956205 80.079529 
L 320.398248 79.34506 
L 320.802294 79.217326 
L 322.029561 79.078948 
L 322.369317 79.047014 
L 322.369317 79.047014 
L 322.430536 79.015081 
L 322.433405 79.121526 
L 323.047976 79.259904 
L 323.683582 78.599946 
L 323.8475 78.195456 
L 324.503983 77.280031 
L 325.284803 76.99263 
L 325.53902 76.801029 
L 325.618866 76.705229 
L 325.784524 76.566851 
L 326.16551 76.023982 
L 326.341343 75.385313 
L 326.922094 74.693422 
L 327.498355 73.09675 
L 327.920409 72.415503 
L 328.613355 71.702323 
L 328.810423 71.542656 
L 329.23824 70.510141 
L 329.672161 69.20087 
L 330.016785 68.115133 
L 330.901799 67.849021 
L 331.0001 67.731932 
L 331.24705 67.306153 
L 331.546473 66.891018 
L 332.200908 64.921789 
L 332.321987 64.698255 
L 332.721577 64.155387 
L 332.749294 64.059587 
L 332.811076 64.176676 
L 332.824387 64.176676 
L 333.106409 64.070231 
L 333.213705 63.910564 
L 333.345853 63.516718 
L 333.812499 62.824827 
L 333.925075 62.601293 
L 334.017713 62.494848 
L 334.636439 62.313892 
L 335.42122 62.228736 
L 336.19427 62.122291 
L 336.892806 61.83489 
L 337.129781 61.057843 
L 337.487371 60.834309 
L 338.357314 60.440463 
L 338.514814 60.057262 
L 339.068846 59.727283 
L 339.925343 59.003459 
L 341.459871 58.843791 
L 341.75972 58.86508 
L 341.966294 58.758636 
L 342.226207 58.375434 
L 342.561335 57.53452 
L 342.587076 57.640965 
L 342.598104 57.683543 
L 342.616479 57.619676 
L 342.669745 57.619676 
L 343.15636 57.513231 
L 344.201577 57.055519 
L 344.329462 56.938429 
L 345.143298 56.885207 
L 345.849502 56.991652 
L 346.020336 57.002296 
L 346.057103 56.895852 
L 346.29469 56.470072 
L 346.725862 56.374272 
L 347.640887 56.267827 
L 348.030844 55.948493 
L 348.362054 55.331113 
L 348.629544 55.29918 
L 350.193139 55.192735 
L 350.689301 54.117642 
L 350.82019 53.478973 
L 350.933303 52.63806 
L 351.17145 52.382592 
L 351.188693 52.510326 
L 351.304946 52.595482 
L 351.51764 52.489037 
L 351.826598 52.137769 
L 351.990912 51.80779 
L 352.834825 51.584256 
L 353.381253 51.477811 
L 354.696644 51.052032 
L 366.244258 51.158477 
L 366.611525 51.350077 
L 366.671485 51.445878 
L 366.707427 51.318144 
L 366.912177 50.509164 
L 366.937699 50.69012 
L 367.054541 50.732698 
L 367.804143 50.626253 
L 368.479661 50.498519 
L 368.920978 50.402719 
L 369.486834 49.710828 
L 369.845969 49.327626 
L 370.2187 47.975777 
L 370.445853 47.848044 
L 371.964453 47.954488 
L 372.159425 48.390912 
L 372.555725 48.295112 
L 372.650426 48.273823 
L 373.538631 48.369623 
L 373.76333 48.390912 
L 376.111477 48.497357 
L 376.620603 48.784758 
L 376.882707 48.923136 
L 377.651942 48.816691 
L 378.011751 48.231245 
L 378.098915 47.869332 
L 378.323915 47.092285 
L 378.584378 46.783596 
L 380.05356 46.677151 
L 380.284788 46.262016 
L 380.562105 46.155571 
L 380.859541 45.761725 
L 381.037914 45.729792 
L 381.486365 45.623347 
L 381.660909 45.304013 
L 381.764615 45.176279 
L 382.130965 45.069834 
L 382.401878 44.644055 
L 382.415103 44.6547 
L 382.587395 44.548255 
L 382.823385 43.803141 
L 382.936993 43.590252 
L 384.232031 43.483807 
L 384.51311 43.185761 
L 384.857869 43.068672 
L 397.455656 42.962227 
L 397.827305 42.632248 
L 397.98925 42.536448 
L 398.362102 42.536448 
L 398.476639 175.060224 
L -1 175.077758 
L -1 175.077758 
" clip-path="url(#p9b9c5b2537)" style="fill: none; stroke-dasharray: 1.85,0.8; stroke-dashoffset: 0; stroke: #8000ff; stroke-width: 0.5"/>
   </g>
   <g id="line2d_35">
    <path d="M 74.312541 303.842465 
L 74.312541 303.693443 
L 87.853179 303.533775 
L 93.278763 303.225085 
L 105.328838 302.916396 
L 105.405557 302.597061 
L 106.091115 302.437394 
L 106.157646 302.277727 
L 114.794956 301.798725 
L 117.639595 301.330368 
L 117.639595 301.160056 
L 117.978997 300.989745 
L 118.586688 300.819433 
L 118.586688 300.649121 
L 122.785121 300.148831 
L 123.799643 299.786918 
L 123.842138 299.595318 
L 124.416216 299.403717 
L 125.92961 299.212116 
L 125.92961 299.020516 
L 127.690548 298.83956 
L 127.712561 298.658604 
L 130.139547 298.488292 
L 130.312035 298.307336 
L 130.989185 298.12638 
L 136.891589 297.402555 
L 136.891589 297.226921 
L 143.546782 296.700019 
L 145.876221 296.146506 
L 145.876221 295.954906 
L 150.587997 295.177859 
L 150.711927 294.980936 
L 151.446031 294.784013 
L 154.251882 294.379523 
L 154.341568 293.767465 
L 155.762615 293.176696 
L 156.06846 292.990418 
L 160.154193 292.80414 
L 160.154193 292.617861 
L 160.439497 292.420938 
L 162.209224 292.037737 
L 162.817358 291.851459 
L 163.110326 291.500191 
L 163.572408 291.324557 
L 164.978417 291.143601 
L 165.16774 290.962644 
L 168.931951 289.711918 
L 169.032052 289.52564 
L 169.470815 289.355328 
L 169.470815 289.174372 
L 169.830427 288.993416 
L 171.714534 288.631503 
L 171.714534 288.450547 
L 172.710372 288.269591 
L 172.745751 288.07799 
L 173.800354 287.519155 
L 173.849441 287.146598 
L 175.968883 286.96032 
L 176.936981 286.609052 
L 177.457762 286.279073 
L 178.543495 286.130051 
L 178.880818 285.832005 
L 182.731015 285.278492 
L 182.731015 285.140114 
L 183.329176 284.714335 
L 183.673306 284.575956 
L 184.873024 284.426934 
L 185.18781 283.852132 
L 185.807015 283.554086 
L 185.892339 282.766395 
L 186.047957 282.468349 
L 187.993437 282.329971 
L 188.165003 282.058537 
L 188.177664 281.936125 
L 189.194995 281.701947 
L 190.571655 281.462446 
L 190.6519 281.238912 
L 190.699348 281.127145 
L 191.479211 280.791844 
L 191.479211 280.680077 
L 191.980526 280.557665 
L 192.142253 280.312842 
L 193.746145 280.068019 
L 194.953338 279.578373 
L 195.065657 279.322906 
L 195.573995 279.205816 
L 195.672799 278.71617 
L 196.540539 278.242491 
L 197.609651 278.00299 
L 198.220282 277.651722 
L 199.136086 277.321743 
L 199.204878 276.810808 
L 200.050387 276.597919 
L 200.077067 276.36374 
L 200.470635 275.969894 
L 200.525841 275.831516 
L 201.654259 275.538793 
L 202.076975 275.395092 
L 202.096341 275.251392 
L 202.380742 275.118336 
L 204.58623 274.729812 
L 204.58623 274.612723 
L 204.900074 274.261455 
L 205.457259 274.037921 
L 205.561285 273.814387 
L 207.188269 273.691976 
L 207.238098 273.569564 
L 207.995562 273.324741 
L 208.348702 272.957507 
L 208.348702 272.824451 
L 209.130111 272.558339 
L 209.297637 272.292227 
L 209.800683 272.164493 
L 209.800683 272.036759 
L 210.103955 271.770647 
L 210.103955 271.642913 
L 211.53405 271.371479 
L 211.632415 271.227779 
L 211.92175 270.961667 
L 211.92175 270.833933 
L 213.071819 270.078175 
L 213.071819 269.961085 
L 214.643741 269.471439 
L 214.693338 269.077594 
L 214.965428 268.939215 
L 214.966714 268.806159 
L 215.58893 268.550692 
L 215.785743 268.289902 
L 217.774741 268.02379 
L 217.774741 267.901379 
L 217.94608 267.656556 
L 218.051418 267.411732 
L 218.97419 267.166909 
L 219.015847 266.757097 
L 220.054824 265.836349 
L 220.668817 265.713938 
L 220.668817 265.591526 
L 221.535668 265.346703 
L 221.535668 265.21897 
L 221.951434 264.968824 
L 222.01018 264.713357 
L 222.282905 264.580301 
L 222.282905 264.4366 
L 223.90756 263.558431 
L 223.910688 263.41473 
L 224.083877 263.281674 
L 227.201602 262.451405 
L 227.339662 262.334316 
L 227.788722 262.110781 
L 227.802462 261.999014 
L 228.065344 261.77548 
L 228.162678 261.472113 
L 228.905818 261.147456 
L 228.991551 260.8707 
L 230.113115 260.636521 
L 230.744031 260.311864 
L 231.819568 259.99253 
L 231.856895 259.768996 
L 232.997725 259.369828 
L 233.073232 259.204838 
L 233.192791 258.949371 
L 233.584148 258.768415 
L 233.705093 258.624714 
L 233.72362 258.49698 
L 234.254708 258.284091 
L 234.340559 258.214902 
L 234.704447 258.065879 
L 234.712482 257.927501 
L 235.096349 257.767834 
L 235.110756 257.597522 
L 235.546096 257.336732 
L 235.743594 256.485174 
L 235.908455 256.282929 
L 235.928479 256.00085 
L 236.522071 255.729416 
L 236.633123 255.43137 
L 236.705494 255.324925 
L 237.335097 255.12268 
L 237.35774 254.840602 
L 237.557516 254.569167 
L 237.576968 254.473367 
L 237.902593 254.271122 
L 237.902593 254.175322 
L 238.073369 253.973076 
L 238.165791 253.579231 
L 238.582383 253.366341 
L 238.608375 253.132163 
L 238.955483 252.897984 
L 239.553173 252.482849 
L 239.553173 252.36576 
L 239.84583 252.147548 
L 240.204481 251.689836 
L 240.280551 251.445012 
L 240.390559 250.9873 
L 240.748241 250.763766 
L 240.806528 250.646676 
L 241.472033 250.194286 
L 241.551375 249.741896 
L 243.016238 248.198446 
L 243.084538 247.980234 
L 243.148709 247.783311 
L 243.754534 247.602355 
L 243.760536 247.240443 
L 244.100997 247.059487 
L 244.100997 246.979653 
L 244.996384 246.580485 
L 245.335924 246.133417 
L 245.534455 245.984394 
L 245.591459 245.835372 
L 247.100126 245.505393 
L 247.100126 245.430881 
L 247.276052 245.212669 
L 247.350326 244.978491 
L 247.350326 244.898657 
L 247.671029 244.723023 
L 247.873723 244.323855 
L 248.711602 244.041777 
L 248.799823 243.600031 
L 249.167319 243.40843 
L 249.319997 242.961362 
L 250.060715 242.716539 
L 250.523034 242.477038 
L 250.543541 242.12577 
L 250.774748 241.801114 
L 250.935527 241.332756 
L 251.4472 240.970844 
L 251.594206 240.635543 
L 252.220638 238.629059 
L 252.339073 238.517292 
L 253.653154 237.958456 
L 253.788803 237.793467 
L 254.128781 237.223987 
L 254.420944 236.989809 
L 254.420944 236.925942 
L 254.808915 236.691763 
L 255.368531 235.957294 
L 256.008598 235.488937 
L 256.081275 235.244114 
L 256.177552 235.063158 
L 256.370895 234.882202 
L 256.423129 234.344655 
L 256.48641 234.243533 
L 256.826791 234.014676 
L 257.066608 233.780498 
L 257.149811 233.423908 
L 257.68474 232.721372 
L 258.779937 232.103992 
L 258.779937 231.965614 
L 259.000619 231.827236 
L 259.015171 231.550479 
L 259.448253 231.268401 
L 259.696223 230.549898 
L 259.730855 230.097508 
L 259.942418 229.95913 
L 259.988595 229.693018 
L 260.52224 229.43755 
L 260.659189 229.086282 
L 261.251476 228.527447 
L 261.292572 228.405036 
L 261.736493 228.192146 
L 261.806669 228.096346 
L 262.36986 227.7504 
L 262.928242 226.87223 
L 263.023626 226.685952 
L 263.227226 226.340006 
L 263.443429 225.951483 
L 263.928907 225.696015 
L 264.087905 225.600215 
L 264.544661 225.525704 
L 266.000592 225.23298 
L 266.063044 224.753979 
L 266.729027 224.338844 
L 266.80021 224.221755 
L 266.999109 223.97161 
L 267.15512 223.795976 
L 267.355955 223.577764 
L 267.435087 223.423419 
L 267.643516 223.263752 
L 267.745795 222.912484 
L 268.282366 222.438804 
L 268.354624 222.321715 
L 269.033509 222.007703 
L 269.185388 221.470157 
L 269.292856 221.161467 
L 269.799493 220.267331 
L 270.063625 219.990574 
L 270.214682 219.602051 
L 270.46928 219.224172 
L 270.594012 218.910159 
L 270.927597 217.457188 
L 271.090288 217.254943 
L 271.147028 217.042053 
L 271.173957 216.775941 
L 271.811871 216.265006 
L 271.900302 215.663593 
L 271.992118 215.525215 
L 272.283915 215.392159 
L 272.440186 214.929124 
L 272.748457 214.519311 
L 273.227311 214.364966 
L 273.404957 214.189332 
L 273.41214 213.880643 
L 273.586586 213.667753 
L 273.662735 213.25794 
L 273.848872 212.965217 
L 274.520194 212.80555 
L 274.666662 212.576694 
L 274.7326 212.262682 
L 275.200707 211.943347 
L 275.200707 211.890125 
L 275.454876 211.725135 
L 275.454876 211.671913 
L 275.905895 211.278067 
L 275.975989 210.846966 
L 276.281022 210.719232 
L 276.679357 210.367964 
L 277.126205 210.14443 
L 277.277569 209.83574 
L 277.398847 209.654784 
L 277.942006 209.271583 
L 278.045584 208.899026 
L 278.55485 208.292291 
L 278.895352 207.499277 
L 278.895352 207.398154 
L 279.875239 206.796741 
L 280.549194 206.36564 
L 280.93165 205.247969 
L 281.084771 205.045724 
L 281.164188 204.859446 
L 281.272935 204.4656 
L 281.608855 204.273999 
L 281.857873 203.970632 
L 281.881045 203.864187 
L 282.111133 203.640653 
L 282.327968 203.433085 
L 282.481866 203.225518 
L 283.237055 202.315415 
L 283.302534 201.703357 
L 283.623721 201.564979 
L 284.499889 201.235 
L 284.691046 200.777288 
L 285.72995 200.500531 
L 285.813156 200.362153 
L 286.160599 200.197164 
L 286.212814 200.06943 
L 286.681603 199.803318 
L 287.299937 199.207227 
L 287.424362 199.084815 
L 287.50059 198.855959 
L 287.596948 198.685647 
L 288.028376 197.057042 
L 288.408132 196.764319 
L 288.659565 196.492884 
L 288.819569 195.96066 
L 289.14747 195.380536 
L 289.438027 194.954757 
L 289.438027 194.880246 
L 289.593377 194.667356 
L 289.975399 193.884987 
L 290.194439 193.67742 
L 290.288163 193.51243 
L 290.795965 193.118584 
L 291.004915 192.203159 
L 292.049553 191.223867 
L 292.049553 191.165322 
L 292.446748 190.893888 
L 292.534124 190.776799 
L 293.259635 190.308442 
L 293.26127 190.239252 
L 293.597041 190.052974 
L 294.79178 189.126904 
L 296.422561 188.429691 
L 296.437326 188.200835 
L 296.778024 187.950689 
L 296.834451 187.812311 
L 297.239513 187.290732 
L 297.294329 187.056553 
L 297.501472 186.737219 
L 297.652024 186.09855 
L 298.909764 185.401336 
L 299.489176 184.948946 
L 299.588712 184.773312 
L 299.891011 184.613645 
L 300.029806 184.416722 
L 300.322891 184.155932 
L 300.553659 183.916431 
L 300.854121 183.506619 
L 301.338125 183.064873 
L 301.438097 182.878595 
L 301.533404 182.410237 
L 301.813372 181.154189 
L 302.046891 180.87211 
L 302.196546 180.393108 
L 302.809161 179.75444 
L 303.009352 178.886915 
L 303.074367 178.594191 
L 303.294841 178.402591 
L 303.387242 178.189701 
L 303.836608 176.981553 
L 303.860495 176.821885 
L 304.024264 176.678185 
L 304.177309 176.082094 
L 304.431595 175.560515 
L 304.5032 175.400847 
L 305.390517 174.288499 
L 305.479814 173.64983 
L 306.01742 172.361848 
L 306.241946 172.170248 
L 306.266779 172.101059 
L 306.591398 171.893491 
L 306.729479 171.563512 
L 307.036858 171.387878 
L 307.124506 171.308045 
L 307.449071 171.254822 
L 307.796631 171.127089 
L 307.903263 170.871621 
L 308.483551 170.642765 
L 308.767309 170.504387 
L 309.068012 169.961518 
L 309.146291 169.817818 
L 309.188787 169.615572 
L 309.664053 169.285594 
L 309.912925 168.99287 
L 309.930992 168.678858 
L 310.040724 168.535158 
L 310.221928 168.114701 
L 310.404452 167.869878 
L 310.538825 167.699566 
L 310.617977 167.529254 
L 310.843807 167.284431 
L 311.450252 166.411584 
L 311.612149 166.273206 
L 311.719129 166.182728 
L 311.992289 165.996449 
L 312.036853 165.868716 
L 312.411539 165.602604 
L 312.721752 165.091668 
L 312.83777 164.916035 
L 313.061206 164.282688 
L 313.492062 163.968676 
L 313.58702 163.388552 
L 314.08376 163.063895 
L 314.542497 162.686016 
L 314.649427 162.313459 
L 314.673087 161.994125 
L 314.759551 161.775913 
L 315.060534 161.392712 
L 316.076269 158.827392 
L 316.301244 158.683692 
L 316.884712 158.241946 
L 316.98327 158.055667 
L 317.097367 157.699077 
L 317.139831 157.459576 
L 317.408268 157.262653 
L 317.52508 156.842196 
L 317.622272 156.512218 
L 317.741985 156.379162 
L 318.099208 155.85226 
L 318.561594 155.522281 
L 318.66869 155.23488 
L 318.711744 155.176335 
L 319.250254 154.979412 
L 319.354089 154.910223 
L 319.841301 154.590889 
L 319.92777 154.372677 
L 320.039195 154.058665 
L 320.126299 153.803197 
L 320.444675 153.212429 
L 320.620725 152.584404 
L 322.383258 149.050437 
L 322.636718 148.810936 
L 323.239583 148.140334 
L 323.410388 147.895511 
L 324.113241 147.719877 
L 324.381622 147.570854 
L 324.70953 147.075886 
L 324.816468 146.89493 
L 325.289993 146.58624 
L 325.570396 146.160461 
L 325.9928 145.548403 
L 326.101955 145.356803 
L 327.02491 144.036887 
L 327.20121 143.398218 
L 327.637298 142.95115 
L 327.854004 142.386993 
L 328.11341 141.530112 
L 329.063707 141.593979 
L 329.329227 141.52479 
L 329.600664 141.402378 
L 329.923723 141.232067 
L 330.232339 140.848865 
L 330.588106 140.651942 
L 330.712519 140.465664 
L 331.058346 140.24213 
L 331.590752 139.901507 
L 332.156361 139.539594 
L 332.264461 139.427827 
L 332.423123 139.018015 
L 332.895492 138.544335 
L 333.032018 138.19839 
L 333.144023 138.012111 
L 333.65756 137.341509 
L 334.528939 136.878474 
L 334.633806 136.777352 
L 334.671408 136.617684 
L 334.73631 136.553818 
L 335.234831 136.229161 
L 335.436521 135.734193 
L 335.942674 135.031657 
L 336.146017 133.866086 
L 336.520223 132.631327 
L 336.947381 131.636068 
L 337.008467 131.444467 
L 337.252785 130.76322 
L 337.546826 129.932951 
L 337.62591 129.757317 
L 337.723884 129.592328 
L 337.950584 128.581102 
L 338.197329 127.9105 
L 338.457599 127.277153 
L 338.539945 127.000397 
L 338.704132 126.335117 
L 339.174705 124.472333 
L 339.43548 124.232832 
L 340.022899 123.881564 
L 340.604131 123.540941 
L 340.824258 123.189673 
L 341.037369 122.194414 
L 341.443469 121.470589 
L 341.530669 121.252378 
L 341.643161 121.098033 
L 341.884656 120.198574 
L 342.104153 119.778117 
L 342.569311 119.639739 
L 342.809402 119.469427 
L 342.976704 119.283149 
L 343.100736 118.942525 
L 343.833291 118.266601 
L 343.950591 118.19209 
L 344.056538 117.862111 
L 344.481767 116.419784 
L 345.198558 115.98336 
L 345.304758 115.83966 
L 345.352589 115.600159 
L 345.667634 113.886397 
L 345.786497 113.125317 
L 345.947861 112.406815 
L 345.986049 112.167314 
L 346.125848 111.4701 
L 346.194269 111.219955 
L 346.477591 110.20873 
L 346.753048 109.766984 
L 346.904107 109.527483 
L 347.030453 109.367816 
L 347.160013 109.128315 
L 347.264779 108.958003 
L 347.887497 107.813722 
L 348.061184 107.654054 
L 348.495574 105.38678 
L 349.349063 104.764078 
L 349.899002 104.391521 
L 350.009996 104.109443 
L 350.280937 103.811397 
L 350.377123 103.539963 
L 350.618912 103.380296 
L 350.904371 103.194017 
L 351.083748 103.209984 
L 351.331473 103.060961 
L 351.437062 102.949194 
L 351.576789 102.762916 
L 351.853538 102.363748 
L 352.02579 102.124247 
L 352.806253 100.245496 
L 352.910692 100.06454 
L 353.008119 99.793106 
L 353.156021 99.20766 
L 353.236824 99.063959 
L 353.635743 98.723336 
L 353.780128 98.212401 
L 354.278866 97.946289 
L 354.391735 97.850488 
L 354.417941 97.871777 
L 354.454608 97.887744 
L 354.506944 97.813233 
L 355.205064 95.285169 
L 355.435617 95.077601 
L 355.563278 94.795523 
L 355.825371 94.449577 
L 355.935037 94.316521 
L 356.558348 93.864131 
L 356.672063 93.635274 
L 356.911629 93.608663 
L 356.917093 93.619308 
L 357.148257 93.826875 
L 357.492724 93.619308 
L 357.718612 93.385129 
L 359.608342 93.156273 
L 359.952994 93.198851 
L 360.132867 93.092406 
L 361.10956 93.039183 
L 361.650049 92.932739 
L 362.445328 91.532989 
L 362.569292 90.841098 
L 362.868325 90.75062 
L 362.868325 90.739976 
L 362.978592 90.596275 
L 363.05224 90.447252 
L 363.19703 90.069373 
L 363.335252 89.63295 
L 363.561093 89.175237 
L 364.132867 88.286423 
L 364.297978 87.206008 
L 364.382969 87.035697 
L 364.823192 85.981893 
L 364.947058 85.880771 
L 365.082547 85.274035 
L 365.260691 84.890834 
L 365.36995 84.326676 
L 365.604005 83.858319 
L 365.682561 83.74123 
L 365.823548 83.235617 
L 365.909161 83.017405 
L 366.043003 82.745971 
L 366.204733 82.740649 
L 366.381152 82.761938 
L 367.091038 82.325514 
L 367.578563 81.660234 
L 367.650139 81.426056 
L 367.805476 81.12801 
L 369.000681 80.148718 
L 369.268399 79.733583 
L 369.298048 79.616494 
L 369.423886 79.456827 
L 369.645777 78.536079 
L 369.757612 78.285934 
L 370.425444 78.243356 
L 370.729156 78.285934 
L 370.732496 78.27529 
L 370.840964 78.2061 
L 370.941297 78.099656 
L 371.115725 78.041111 
L 371.572009 77.998533 
L 372.097285 77.764355 
L 372.483703 77.077786 
L 372.575785 76.689262 
L 372.755735 76.391217 
L 373.253168 76.029304 
L 373.674372 75.715292 
L 373.787929 75.646103 
L 373.817612 75.70997 
L 373.958088 75.736581 
L 374.176033 75.763192 
L 374.27049 75.667392 
L 374.285391 75.80577 
L 374.396856 75.949471 
L 374.914681 76.27945 
L 375.029578 76.178327 
L 375.12725 75.97076 
L 375.187642 75.827059 
L 375.367221 75.023401 
L 375.570032 74.656166 
L 375.747901 74.501821 
L 375.880676 74.374088 
L 375.892488 74.315543 
L 375.93136 74.459244 
L 375.97736 74.459244 
L 376.34055 74.358121 
L 376.34055 74.352799 
L 376.467763 74.097331 
L 376.612094 73.575752 
L 376.731902 73.229806 
L 376.974328 72.889183 
L 377.306347 72.537915 
L 378.042936 72.144069 
L 378.477922 70.717709 
L 379.017463 70.536753 
L 379.816302 70.307896 
L 380.37343 70.137585 
L 380.537151 70.03114 
L 380.65052 70.07904 
L 381.002216 70.935921 
L 381.077297 70.893343 
L 381.216827 70.701742 
L 381.373948 70.462241 
L 382.248169 70.217418 
L 382.763396 69.892762 
L 383.284536 69.791639 
L 383.448531 69.472305 
L 383.453835 69.477627 
L 383.781367 69.679872 
L 383.962074 69.578749 
L 383.993362 69.568105 
L 384.017739 69.642616 
L 384.042523 69.653261 
L 384.053231 69.690516 
L 384.150051 69.658583 
L 384.437592 69.493594 
L 384.726053 69.520205 
L 384.996323 69.520205 
L 385.215637 69.41376 
L 385.330379 68.993303 
L 385.396092 69.051848 
L 385.690273 69.647939 
L 385.821458 69.663905 
L 386.44062 69.280704 
L 386.944383 68.210934 
L 387.086875 67.880955 
L 387.24128 67.63081 
L 387.408708 67.668065 
L 387.866014 67.566943 
L 388.156464 67.41792 
L 388.251824 67.268897 
L 388.380753 67.178419 
L 388.705245 66.976174 
L 388.920751 66.507817 
L 389.026782 65.704159 
L 389.055448 65.46998 
L 389.171185 65.235802 
L 389.568559 65.134679 
L 389.734801 64.889856 
L 389.891253 64.645033 
L 389.999385 64.485366 
L 390.322037 64.064909 
L 390.504381 63.37834 
L 390.605476 63.059005 
L 390.838449 62.462915 
L 391.507707 62.186158 
L 391.876024 61.361211 
L 392.009454 61.297344 
L 392.484127 61.190899 
L 392.590742 61.148321 
L 392.595369 61.153644 
L 392.777805 61.047199 
L 393.032971 60.882209 
L 393.431266 60.493686 
L 393.601131 60.222252 
L 394.097657 60.121129 
L 394.802582 60.115807 
L 395.004276 59.913562 
L 395.366817 59.631483 
L 395.693045 59.737928 
L 396.008426 59.855017 
L 396.05962 59.759217 
L 396.16612 59.418593 
L 396.491614 59.157804 
L 396.7986 58.375434 
L 396.917674 57.954977 
L 397.434589 57.694188 
L 398.02381 57.593065 
L 398.282092 132.556815 
L 398.487273 182.532649 
L -1 182.54918 
L -1 182.54918 
" clip-path="url(#p9b9c5b2537)" style="fill: none; stroke-dasharray: 1.85,0.8; stroke-dashoffset: 0; stroke: #ff0000; stroke-width: 0.5"/>
   </g>
   <g id="patch_3">
    <path d="M 57.6 307.584 
L 57.6 41.472 
" style="fill: none; stroke: #000000; stroke-width: 0.8; stroke-linejoin: miter; stroke-linecap: square"/>
   </g>
   <g id="patch_4">
    <path d="M 414.72 307.584 
L 414.72 41.472 
" style="fill: none; stroke: #000000; stroke-width: 0.8; stroke-linejoin: miter; stroke-linecap: square"/>
   </g>
   <g id="patch_5">
    <path d="M 57.6 307.584 
L 414.72 307.584 
" style="fill: none; stroke: #000000; stroke-width: 0.8; stroke-linejoin: miter; stroke-linecap: square"/>
   </g>
   <g id="patch_6">
    <path d="M 57.6 41.472 
L 414.72 41.472 
" style="fill: none; stroke: #000000; stroke-width: 0.8; stroke-linejoin: miter; stroke-linecap: square"/>
   </g>
   <g id="legend_1">
    <g id="patch_7">
     <path d="M 314.584 105.43945 
L 523.329313 105.43945 
Q 525.329313 105.43945 525.329313 103.43945 
L 525.329313 75.0832 
Q 525.329313 73.0832 523.329313 73.0832 
L 314.584 73.0832 
Q 312.584 73.0832 312.584 75.0832 
L 312.584 103.43945 
Q 312.584 105.43945 314.584 105.43945 
z
" style="fill: #ffffff; opacity: 0.8; stroke: #cccccc; stroke-linejoin: miter"/>
    </g>
    <g id="line2d_36">
     <path d="M 316.584 81.181637 
L 326.584 81.181637 
L 336.584 81.181637 
" style="fill: none; stroke-dasharray: 1.85,0.8; stroke-dashoffset: 0; stroke: #8000ff; stroke-width: 0.5"/>
    </g>
    <g id="text_12">
     <!-- Total number of electron traps500 -->
     <g transform="translate(344.584 84.681637) scale(0.1 -0.1)">
      <defs>
       <path id="DejaVuSans-54" d="M -19 4666 
L 3928 4666 
L 3928 4134 
L 2272 4134 
L 2272 0 
L 1638 0 
L 1638 4134 
L -19 4134 
L -19 4666 
z
" transform="scale(0.015625)"/>
       <path id="DejaVuSans-75" d="M 544 1381 
L 544 3500 
L 1119 3500 
L 1119 1403 
Q 1119 906 1312 657 
Q 1506 409 1894 409 
Q 2359 409 2629 706 
Q 2900 1003 2900 1516 
L 2900 3500 
L 3475 3500 
L 3475 0 
L 2900 0 
L 2900 538 
Q 2691 219 2414 64 
Q 2138 -91 1772 -91 
Q 1169 -91 856 284 
Q 544 659 544 1381 
z
M 1991 3584 
L 1991 3584 
z
" transform="scale(0.015625)"/>
       <path id="DejaVuSans-62" d="M 3116 1747 
Q 3116 2381 2855 2742 
Q 2594 3103 2138 3103 
Q 1681 3103 1420 2742 
Q 1159 2381 1159 1747 
Q 1159 1113 1420 752 
Q 1681 391 2138 391 
Q 2594 391 2855 752 
Q 3116 1113 3116 1747 
z
M 1159 2969 
Q 1341 3281 1617 3432 
Q 1894 3584 2278 3584 
Q 2916 3584 3314 3078 
Q 3713 2572 3713 1747 
Q 3713 922 3314 415 
Q 2916 -91 2278 -91 
Q 1894 -91 1617 61 
Q 1341 213 1159 525 
L 1159 0 
L 581 0 
L 581 4863 
L 1159 4863 
L 1159 2969 
z
" transform="scale(0.015625)"/>
       <path id="DejaVuSans-35" d="M 691 4666 
L 3169 4666 
L 3169 4134 
L 1269 4134 
L 1269 2991 
Q 1406 3038 1543 3061 
Q 1681 3084 1819 3084 
Q 2600 3084 3056 2656 
Q 3513 2228 3513 1497 
Q 3513 744 3044 326 
Q 2575 -91 1722 -91 
Q 1428 -91 1123 -41 
Q 819 9 494 109 
L 494 744 
Q 775 591 1075 516 
Q 1375 441 1709 441 
Q 2250 441 2565 725 
Q 2881 1009 2881 1497 
Q 2881 1984 2565 2268 
Q 2250 2553 1709 2553 
Q 1456 2553 1204 2497 
Q 953 2441 691 2322 
L 691 4666 
z
" transform="scale(0.015625)"/>
      </defs>
      <use xlink:href="#DejaVuSans-54"/>
      <use xlink:href="#DejaVuSans-6f" transform="translate(44.083984 0)"/>
      <use xlink:href="#DejaVuSans-74" transform="translate(105.265625 0)"/>
      <use xlink:href="#DejaVuSans-61" transform="translate(144.474609 0)"/>
      <use xlink:href="#DejaVuSans-6c" transform="translate(205.753906 0)"/>
      <use xlink:href="#DejaVuSans-20" transform="translate(233.537109 0)"/>
      <use xlink:href="#DejaVuSans-6e" transform="translate(265.324219 0)"/>
      <use xlink:href="#DejaVuSans-75" transform="translate(328.703125 0)"/>
      <use xlink:href="#DejaVuSans-6d" transform="translate(392.082031 0)"/>
      <use xlink:href="#DejaVuSans-62" transform="translate(489.494141 0)"/>
      <use xlink:href="#DejaVuSans-65" transform="translate(552.970703 0)"/>
      <use xlink:href="#DejaVuSans-72" transform="translate(614.494141 0)"/>
      <use xlink:href="#DejaVuSans-20" transform="translate(655.607422 0)"/>
      <use xlink:href="#DejaVuSans-6f" transform="translate(687.394531 0)"/>
      <use xlink:href="#DejaVuSans-66" transform="translate(748.576172 0)"/>
      <use xlink:href="#DejaVuSans-20" transform="translate(783.78125 0)"/>
      <use xlink:href="#DejaVuSans-65" transform="translate(815.568359 0)"/>
      <use xlink:href="#DejaVuSans-6c" transform="translate(877.091797 0)"/>
      <use xlink:href="#DejaVuSans-65" transform="translate(904.875 0)"/>
      <use xlink:href="#DejaVuSans-63" transform="translate(966.398438 0)"/>
      <use xlink:href="#DejaVuSans-74" transform="translate(1021.378906 0)"/>
      <use xlink:href="#DejaVuSans-72" transform="translate(1060.587891 0)"/>
      <use xlink:href="#DejaVuSans-6f" transform="translate(1099.451172 0)"/>
      <use xlink:href="#DejaVuSans-6e" transform="translate(1160.632812 0)"/>
      <use xlink:href="#DejaVuSans-20" transform="translate(1224.011719 0)"/>
      <use xlink:href="#DejaVuSans-74" transform="translate(1255.798828 0)"/>
      <use xlink:href="#DejaVuSans-72" transform="translate(1295.007812 0)"/>
      <use xlink:href="#DejaVuSans-61" transform="translate(1336.121094 0)"/>
      <use xlink:href="#DejaVuSans-70" transform="translate(1397.400391 0)"/>
      <use xlink:href="#DejaVuSans-73" transform="translate(1460.876953 0)"/>
      <use xlink:href="#DejaVuSans-35" transform="translate(1512.976562 0)"/>
      <use xlink:href="#DejaVuSans-30" transform="translate(1576.599609 0)"/>
      <use xlink:href="#DejaVuSans-30" transform="translate(1640.222656 0)"/>
     </g>
    </g>
    <g id="line2d_37">
     <path d="M 316.584 95.859762 
L 326.584 95.859762 
L 336.584 95.859762 
" style="fill: none; stroke-dasharray: 1.85,0.8; stroke-dashoffset: 0; stroke: #ff0000; stroke-width: 0.5"/>
    </g>
    <g id="text_13">
     <!-- Total number of electron traps1000 -->
     <g transform="translate(344.584 99.359762) scale(0.1 -0.1)">
      <use xlink:href="#DejaVuSans-54"/>
      <use xlink:href="#DejaVuSans-6f" transform="translate(44.083984 0)"/>
      <use xlink:href="#DejaVuSans-74" transform="translate(105.265625 0)"/>
      <use xlink:href="#DejaVuSans-61" transform="translate(144.474609 0)"/>
      <use xlink:href="#DejaVuSans-6c" transform="translate(205.753906 0)"/>
      <use xlink:href="#DejaVuSans-20" transform="translate(233.537109 0)"/>
      <use xlink:href="#DejaVuSans-6e" transform="translate(265.324219 0)"/>
      <use xlink:href="#DejaVuSans-75" transform="translate(328.703125 0)"/>
      <use xlink:href="#DejaVuSans-6d" transform="translate(392.082031 0)"/>
      <use xlink:href="#DejaVuSans-62" transform="translate(489.494141 0)"/>
      <use xlink:href="#DejaVuSans-65" transform="translate(552.970703 0)"/>
      <use xlink:href="#DejaVuSans-72" transform="translate(614.494141 0)"/>
      <use xlink:href="#DejaVuSans-20" transform="translate(655.607422 0)"/>
      <use xlink:href="#DejaVuSans-6f" transform="translate(687.394531 0)"/>
      <use xlink:href="#DejaVuSans-66" transform="translate(748.576172 0)"/>
      <use xlink:href="#DejaVuSans-20" transform="translate(783.78125 0)"/>
      <use xlink:href="#DejaVuSans-65" transform="translate(815.568359 0)"/>
      <use xlink:href="#DejaVuSans-6c" transform="translate(877.091797 0)"/>
      <use xlink:href="#DejaVuSans-65" transform="translate(904.875 0)"/>
      <use xlink:href="#DejaVuSans-63" transform="translate(966.398438 0)"/>
      <use xlink:href="#DejaVuSans-74" transform="translate(1021.378906 0)"/>
      <use xlink:href="#DejaVuSans-72" transform="translate(1060.587891 0)"/>
      <use xlink:href="#DejaVuSans-6f" transform="translate(1099.451172 0)"/>
      <use xlink:href="#DejaVuSans-6e" transform="translate(1160.632812 0)"/>
      <use xlink:href="#DejaVuSans-20" transform="translate(1224.011719 0)"/>
      <use xlink:href="#DejaVuSans-74" transform="translate(1255.798828 0)"/>
      <use xlink:href="#DejaVuSans-72" transform="translate(1295.007812 0)"/>
      <use xlink:href="#DejaVuSans-61" transform="translate(1336.121094 0)"/>
      <use xlink:href="#DejaVuSans-70" transform="translate(1397.400391 0)"/>
      <use xlink:href="#DejaVuSans-73" transform="translate(1460.876953 0)"/>
      <use xlink:href="#DejaVuSans-31" transform="translate(1512.976562 0)"/>
      <use xlink:href="#DejaVuSans-30" transform="translate(1576.599609 0)"/>
      <use xlink:href="#DejaVuSans-30" transform="translate(1640.222656 0)"/>
      <use xlink:href="#DejaVuSans-30" transform="translate(1703.845703 0)"/>
     </g>
    </g>
   </g>
  </g>
 </g>
 <defs>
  <clipPath id="p9b9c5b2537">
   <rect x="57.6" y="41.472" width="357.12" height="266.112"/>
  </clipPath>
 </defs>
</svg>
