<?xml version="1.0" encoding="utf-8" standalone="no"?>
<!DOCTYPE svg PUBLIC "-//W3C//DTD SVG 1.1//EN"
  "http://www.w3.org/Graphics/SVG/1.1/DTD/svg11.dtd">
<svg xmlns:xlink="http://www.w3.org/1999/xlink" width="460.8pt" height="345.6pt" viewBox="0 0 460.8 345.6" xmlns="http://www.w3.org/2000/svg" version="1.1">
 <metadata>
  <rdf:RDF xmlns:dc="http://purl.org/dc/elements/1.1/" xmlns:cc="http://creativecommons.org/ns#" xmlns:rdf="http://www.w3.org/1999/02/22-rdf-syntax-ns#">
   <cc:Work>
    <dc:type rdf:resource="http://purl.org/dc/dcmitype/StillImage"/>
    <dc:date>2025-03-26T12:09:43.245395</dc:date>
    <dc:format>image/svg+xml</dc:format>
    <dc:creator>
     <cc:Agent>
      <dc:title>Matplotlib v3.10.0, https://matplotlib.org/</dc:title>
     </cc:Agent>
    </dc:creator>
   </cc:Work>
  </rdf:RDF>
 </metadata>
 <defs>
  <style type="text/css">*{stroke-linejoin: round; stroke-linecap: butt}</style>
 </defs>
 <g id="figure_1">
  <g id="patch_1">
   <path d="M 0 345.6 
L 460.8 345.6 
L 460.8 0 
L 0 0 
z
" style="fill: #ffffff"/>
  </g>
  <g id="axes_1">
   <g id="patch_2">
    <path d="M 57.6 307.584 
L 414.72 307.584 
L 414.72 41.472 
L 57.6 41.472 
z
" style="fill: #ffffff"/>
   </g>
   <g id="matplotlib.axis_1">
    <g id="xtick_1">
     <g id="line2d_1">
      <path d="M 129.024 307.584 
L 129.024 41.472 
" clip-path="url(#p59edc3bd37)" style="fill: none; stroke: #b0b0b0; stroke-width: 0.8; stroke-linecap: square"/>
     </g>
     <g id="line2d_2">
      <defs>
       <path id="m53e7299021" d="M 0 0 
L 0 3.5 
" style="stroke: #000000; stroke-width: 0.8"/>
      </defs>
      <g>
       <use xlink:href="#m53e7299021" x="129.024" y="307.584" style="stroke: #000000; stroke-width: 0.8"/>
      </g>
     </g>
     <g id="text_1">
      <!-- 2e12 -->
      <g transform="translate(116.403688 322.182437) scale(0.1 -0.1)">
       <defs>
        <path id="DejaVuSans-32" d="M 1228 531 
L 3431 531 
L 3431 0 
L 469 0 
L 469 531 
Q 828 903 1448 1529 
Q 2069 2156 2228 2338 
Q 2531 2678 2651 2914 
Q 2772 3150 2772 3378 
Q 2772 3750 2511 3984 
Q 2250 4219 1831 4219 
Q 1534 4219 1204 4116 
Q 875 4013 500 3803 
L 500 4441 
Q 881 4594 1212 4672 
Q 1544 4750 1819 4750 
Q 2544 4750 2975 4387 
Q 3406 4025 3406 3419 
Q 3406 3131 3298 2873 
Q 3191 2616 2906 2266 
Q 2828 2175 2409 1742 
Q 1991 1309 1228 531 
z
" transform="scale(0.015625)"/>
        <path id="DejaVuSans-65" d="M 3597 1894 
L 3597 1613 
L 953 1613 
Q 991 1019 1311 708 
Q 1631 397 2203 397 
Q 2534 397 2845 478 
Q 3156 559 3463 722 
L 3463 178 
Q 3153 47 2828 -22 
Q 2503 -91 2169 -91 
Q 1331 -91 842 396 
Q 353 884 353 1716 
Q 353 2575 817 3079 
Q 1281 3584 2069 3584 
Q 2775 3584 3186 3129 
Q 3597 2675 3597 1894 
z
M 3022 2063 
Q 3016 2534 2758 2815 
Q 2500 3097 2075 3097 
Q 1594 3097 1305 2825 
Q 1016 2553 972 2059 
L 3022 2063 
z
" transform="scale(0.015625)"/>
        <path id="DejaVuSans-31" d="M 794 531 
L 1825 531 
L 1825 4091 
L 703 3866 
L 703 4441 
L 1819 4666 
L 2450 4666 
L 2450 531 
L 3481 531 
L 3481 0 
L 794 0 
L 794 531 
z
" transform="scale(0.015625)"/>
       </defs>
       <use xlink:href="#DejaVuSans-32"/>
       <use xlink:href="#DejaVuSans-65" transform="translate(63.623047 0)"/>
       <use xlink:href="#DejaVuSans-31" transform="translate(125.146484 0)"/>
       <use xlink:href="#DejaVuSans-32" transform="translate(188.769531 0)"/>
      </g>
     </g>
    </g>
    <g id="xtick_2">
     <g id="line2d_3">
      <path d="M 200.448 307.584 
L 200.448 41.472 
" clip-path="url(#p59edc3bd37)" style="fill: none; stroke: #b0b0b0; stroke-width: 0.8; stroke-linecap: square"/>
     </g>
     <g id="line2d_4">
      <g>
       <use xlink:href="#m53e7299021" x="200.448" y="307.584" style="stroke: #000000; stroke-width: 0.8"/>
      </g>
     </g>
     <g id="text_2">
      <!-- 4e12 -->
      <g transform="translate(187.827687 322.182437) scale(0.1 -0.1)">
       <defs>
        <path id="DejaVuSans-34" d="M 2419 4116 
L 825 1625 
L 2419 1625 
L 2419 4116 
z
M 2253 4666 
L 3047 4666 
L 3047 1625 
L 3713 1625 
L 3713 1100 
L 3047 1100 
L 3047 0 
L 2419 0 
L 2419 1100 
L 313 1100 
L 313 1709 
L 2253 4666 
z
" transform="scale(0.015625)"/>
       </defs>
       <use xlink:href="#DejaVuSans-34"/>
       <use xlink:href="#DejaVuSans-65" transform="translate(63.623047 0)"/>
       <use xlink:href="#DejaVuSans-31" transform="translate(125.146484 0)"/>
       <use xlink:href="#DejaVuSans-32" transform="translate(188.769531 0)"/>
      </g>
     </g>
    </g>
    <g id="xtick_3">
     <g id="line2d_5">
      <path d="M 271.872 307.584 
L 271.872 41.472 
" clip-path="url(#p59edc3bd37)" style="fill: none; stroke: #b0b0b0; stroke-width: 0.8; stroke-linecap: square"/>
     </g>
     <g id="line2d_6">
      <g>
       <use xlink:href="#m53e7299021" x="271.872" y="307.584" style="stroke: #000000; stroke-width: 0.8"/>
      </g>
     </g>
     <g id="text_3">
      <!-- 6e12 -->
      <g transform="translate(259.251688 322.182437) scale(0.1 -0.1)">
       <defs>
        <path id="DejaVuSans-36" d="M 2113 2584 
Q 1688 2584 1439 2293 
Q 1191 2003 1191 1497 
Q 1191 994 1439 701 
Q 1688 409 2113 409 
Q 2538 409 2786 701 
Q 3034 994 3034 1497 
Q 3034 2003 2786 2293 
Q 2538 2584 2113 2584 
z
M 3366 4563 
L 3366 3988 
Q 3128 4100 2886 4159 
Q 2644 4219 2406 4219 
Q 1781 4219 1451 3797 
Q 1122 3375 1075 2522 
Q 1259 2794 1537 2939 
Q 1816 3084 2150 3084 
Q 2853 3084 3261 2657 
Q 3669 2231 3669 1497 
Q 3669 778 3244 343 
Q 2819 -91 2113 -91 
Q 1303 -91 875 529 
Q 447 1150 447 2328 
Q 447 3434 972 4092 
Q 1497 4750 2381 4750 
Q 2619 4750 2861 4703 
Q 3103 4656 3366 4563 
z
" transform="scale(0.015625)"/>
       </defs>
       <use xlink:href="#DejaVuSans-36"/>
       <use xlink:href="#DejaVuSans-65" transform="translate(63.623047 0)"/>
       <use xlink:href="#DejaVuSans-31" transform="translate(125.146484 0)"/>
       <use xlink:href="#DejaVuSans-32" transform="translate(188.769531 0)"/>
      </g>
     </g>
    </g>
    <g id="xtick_4">
     <g id="line2d_7">
      <path d="M 343.296 307.584 
L 343.296 41.472 
" clip-path="url(#p59edc3bd37)" style="fill: none; stroke: #b0b0b0; stroke-width: 0.8; stroke-linecap: square"/>
     </g>
     <g id="line2d_8">
      <g>
       <use xlink:href="#m53e7299021" x="343.296" y="307.584" style="stroke: #000000; stroke-width: 0.8"/>
      </g>
     </g>
     <g id="text_4">
      <!-- 8e12 -->
      <g transform="translate(330.675688 322.182437) scale(0.1 -0.1)">
       <defs>
        <path id="DejaVuSans-38" d="M 2034 2216 
Q 1584 2216 1326 1975 
Q 1069 1734 1069 1313 
Q 1069 891 1326 650 
Q 1584 409 2034 409 
Q 2484 409 2743 651 
Q 3003 894 3003 1313 
Q 3003 1734 2745 1975 
Q 2488 2216 2034 2216 
z
M 1403 2484 
Q 997 2584 770 2862 
Q 544 3141 544 3541 
Q 544 4100 942 4425 
Q 1341 4750 2034 4750 
Q 2731 4750 3128 4425 
Q 3525 4100 3525 3541 
Q 3525 3141 3298 2862 
Q 3072 2584 2669 2484 
Q 3125 2378 3379 2068 
Q 3634 1759 3634 1313 
Q 3634 634 3220 271 
Q 2806 -91 2034 -91 
Q 1263 -91 848 271 
Q 434 634 434 1313 
Q 434 1759 690 2068 
Q 947 2378 1403 2484 
z
M 1172 3481 
Q 1172 3119 1398 2916 
Q 1625 2713 2034 2713 
Q 2441 2713 2670 2916 
Q 2900 3119 2900 3481 
Q 2900 3844 2670 4047 
Q 2441 4250 2034 4250 
Q 1625 4250 1398 4047 
Q 1172 3844 1172 3481 
z
" transform="scale(0.015625)"/>
       </defs>
       <use xlink:href="#DejaVuSans-38"/>
       <use xlink:href="#DejaVuSans-65" transform="translate(63.623047 0)"/>
       <use xlink:href="#DejaVuSans-31" transform="translate(125.146484 0)"/>
       <use xlink:href="#DejaVuSans-32" transform="translate(188.769531 0)"/>
      </g>
     </g>
    </g>
    <g id="xtick_5">
     <g id="line2d_9">
      <path d="M 414.72 307.584 
L 414.72 41.472 
" clip-path="url(#p59edc3bd37)" style="fill: none; stroke: #b0b0b0; stroke-width: 0.8; stroke-linecap: square"/>
     </g>
     <g id="line2d_10">
      <g>
       <use xlink:href="#m53e7299021" x="414.72" y="307.584" style="stroke: #000000; stroke-width: 0.8"/>
      </g>
     </g>
     <g id="text_5">
      <!-- 1e13 -->
      <g transform="translate(402.099688 322.182437) scale(0.1 -0.1)">
       <defs>
        <path id="DejaVuSans-33" d="M 2597 2516 
Q 3050 2419 3304 2112 
Q 3559 1806 3559 1356 
Q 3559 666 3084 287 
Q 2609 -91 1734 -91 
Q 1441 -91 1130 -33 
Q 819 25 488 141 
L 488 750 
Q 750 597 1062 519 
Q 1375 441 1716 441 
Q 2309 441 2620 675 
Q 2931 909 2931 1356 
Q 2931 1769 2642 2001 
Q 2353 2234 1838 2234 
L 1294 2234 
L 1294 2753 
L 1863 2753 
Q 2328 2753 2575 2939 
Q 2822 3125 2822 3475 
Q 2822 3834 2567 4026 
Q 2313 4219 1838 4219 
Q 1578 4219 1281 4162 
Q 984 4106 628 3988 
L 628 4550 
Q 988 4650 1302 4700 
Q 1616 4750 1894 4750 
Q 2613 4750 3031 4423 
Q 3450 4097 3450 3541 
Q 3450 3153 3228 2886 
Q 3006 2619 2597 2516 
z
" transform="scale(0.015625)"/>
       </defs>
       <use xlink:href="#DejaVuSans-31"/>
       <use xlink:href="#DejaVuSans-65" transform="translate(63.623047 0)"/>
       <use xlink:href="#DejaVuSans-31" transform="translate(125.146484 0)"/>
       <use xlink:href="#DejaVuSans-33" transform="translate(188.769531 0)"/>
      </g>
     </g>
    </g>
    <g id="text_6">
     <!-- Irradiation time (s) -->
     <g transform="translate(189.412344 335.860562) scale(0.1 -0.1)">
      <defs>
       <path id="DejaVuSans-49" d="M 628 4666 
L 1259 4666 
L 1259 0 
L 628 0 
L 628 4666 
z
" transform="scale(0.015625)"/>
       <path id="DejaVuSans-72" d="M 2631 2963 
Q 2534 3019 2420 3045 
Q 2306 3072 2169 3072 
Q 1681 3072 1420 2755 
Q 1159 2438 1159 1844 
L 1159 0 
L 581 0 
L 581 3500 
L 1159 3500 
L 1159 2956 
Q 1341 3275 1631 3429 
Q 1922 3584 2338 3584 
Q 2397 3584 2469 3576 
Q 2541 3569 2628 3553 
L 2631 2963 
z
" transform="scale(0.015625)"/>
       <path id="DejaVuSans-61" d="M 2194 1759 
Q 1497 1759 1228 1600 
Q 959 1441 959 1056 
Q 959 750 1161 570 
Q 1363 391 1709 391 
Q 2188 391 2477 730 
Q 2766 1069 2766 1631 
L 2766 1759 
L 2194 1759 
z
M 3341 1997 
L 3341 0 
L 2766 0 
L 2766 531 
Q 2569 213 2275 61 
Q 1981 -91 1556 -91 
Q 1019 -91 701 211 
Q 384 513 384 1019 
Q 384 1609 779 1909 
Q 1175 2209 1959 2209 
L 2766 2209 
L 2766 2266 
Q 2766 2663 2505 2880 
Q 2244 3097 1772 3097 
Q 1472 3097 1187 3025 
Q 903 2953 641 2809 
L 641 3341 
Q 956 3463 1253 3523 
Q 1550 3584 1831 3584 
Q 2591 3584 2966 3190 
Q 3341 2797 3341 1997 
z
" transform="scale(0.015625)"/>
       <path id="DejaVuSans-64" d="M 2906 2969 
L 2906 4863 
L 3481 4863 
L 3481 0 
L 2906 0 
L 2906 525 
Q 2725 213 2448 61 
Q 2172 -91 1784 -91 
Q 1150 -91 751 415 
Q 353 922 353 1747 
Q 353 2572 751 3078 
Q 1150 3584 1784 3584 
Q 2172 3584 2448 3432 
Q 2725 3281 2906 2969 
z
M 947 1747 
Q 947 1113 1208 752 
Q 1469 391 1925 391 
Q 2381 391 2643 752 
Q 2906 1113 2906 1747 
Q 2906 2381 2643 2742 
Q 2381 3103 1925 3103 
Q 1469 3103 1208 2742 
Q 947 2381 947 1747 
z
" transform="scale(0.015625)"/>
       <path id="DejaVuSans-69" d="M 603 3500 
L 1178 3500 
L 1178 0 
L 603 0 
L 603 3500 
z
M 603 4863 
L 1178 4863 
L 1178 4134 
L 603 4134 
L 603 4863 
z
" transform="scale(0.015625)"/>
       <path id="DejaVuSans-74" d="M 1172 4494 
L 1172 3500 
L 2356 3500 
L 2356 3053 
L 1172 3053 
L 1172 1153 
Q 1172 725 1289 603 
Q 1406 481 1766 481 
L 2356 481 
L 2356 0 
L 1766 0 
Q 1100 0 847 248 
Q 594 497 594 1153 
L 594 3053 
L 172 3053 
L 172 3500 
L 594 3500 
L 594 4494 
L 1172 4494 
z
" transform="scale(0.015625)"/>
       <path id="DejaVuSans-6f" d="M 1959 3097 
Q 1497 3097 1228 2736 
Q 959 2375 959 1747 
Q 959 1119 1226 758 
Q 1494 397 1959 397 
Q 2419 397 2687 759 
Q 2956 1122 2956 1747 
Q 2956 2369 2687 2733 
Q 2419 3097 1959 3097 
z
M 1959 3584 
Q 2709 3584 3137 3096 
Q 3566 2609 3566 1747 
Q 3566 888 3137 398 
Q 2709 -91 1959 -91 
Q 1206 -91 779 398 
Q 353 888 353 1747 
Q 353 2609 779 3096 
Q 1206 3584 1959 3584 
z
" transform="scale(0.015625)"/>
       <path id="DejaVuSans-6e" d="M 3513 2113 
L 3513 0 
L 2938 0 
L 2938 2094 
Q 2938 2591 2744 2837 
Q 2550 3084 2163 3084 
Q 1697 3084 1428 2787 
Q 1159 2491 1159 1978 
L 1159 0 
L 581 0 
L 581 3500 
L 1159 3500 
L 1159 2956 
Q 1366 3272 1645 3428 
Q 1925 3584 2291 3584 
Q 2894 3584 3203 3211 
Q 3513 2838 3513 2113 
z
" transform="scale(0.015625)"/>
       <path id="DejaVuSans-20" transform="scale(0.015625)"/>
       <path id="DejaVuSans-6d" d="M 3328 2828 
Q 3544 3216 3844 3400 
Q 4144 3584 4550 3584 
Q 5097 3584 5394 3201 
Q 5691 2819 5691 2113 
L 5691 0 
L 5113 0 
L 5113 2094 
Q 5113 2597 4934 2840 
Q 4756 3084 4391 3084 
Q 3944 3084 3684 2787 
Q 3425 2491 3425 1978 
L 3425 0 
L 2847 0 
L 2847 2094 
Q 2847 2600 2669 2842 
Q 2491 3084 2119 3084 
Q 1678 3084 1418 2786 
Q 1159 2488 1159 1978 
L 1159 0 
L 581 0 
L 581 3500 
L 1159 3500 
L 1159 2956 
Q 1356 3278 1631 3431 
Q 1906 3584 2284 3584 
Q 2666 3584 2933 3390 
Q 3200 3197 3328 2828 
z
" transform="scale(0.015625)"/>
       <path id="DejaVuSans-28" d="M 1984 4856 
Q 1566 4138 1362 3434 
Q 1159 2731 1159 2009 
Q 1159 1288 1364 580 
Q 1569 -128 1984 -844 
L 1484 -844 
Q 1016 -109 783 600 
Q 550 1309 550 2009 
Q 550 2706 781 3412 
Q 1013 4119 1484 4856 
L 1984 4856 
z
" transform="scale(0.015625)"/>
       <path id="DejaVuSans-73" d="M 2834 3397 
L 2834 2853 
Q 2591 2978 2328 3040 
Q 2066 3103 1784 3103 
Q 1356 3103 1142 2972 
Q 928 2841 928 2578 
Q 928 2378 1081 2264 
Q 1234 2150 1697 2047 
L 1894 2003 
Q 2506 1872 2764 1633 
Q 3022 1394 3022 966 
Q 3022 478 2636 193 
Q 2250 -91 1575 -91 
Q 1294 -91 989 -36 
Q 684 19 347 128 
L 347 722 
Q 666 556 975 473 
Q 1284 391 1588 391 
Q 1994 391 2212 530 
Q 2431 669 2431 922 
Q 2431 1156 2273 1281 
Q 2116 1406 1581 1522 
L 1381 1569 
Q 847 1681 609 1914 
Q 372 2147 372 2553 
Q 372 3047 722 3315 
Q 1072 3584 1716 3584 
Q 2034 3584 2315 3537 
Q 2597 3491 2834 3397 
z
" transform="scale(0.015625)"/>
       <path id="DejaVuSans-29" d="M 513 4856 
L 1013 4856 
Q 1481 4119 1714 3412 
Q 1947 2706 1947 2009 
Q 1947 1309 1714 600 
Q 1481 -109 1013 -844 
L 513 -844 
Q 928 -128 1133 580 
Q 1338 1288 1338 2009 
Q 1338 2731 1133 3434 
Q 928 4138 513 4856 
z
" transform="scale(0.015625)"/>
      </defs>
      <use xlink:href="#DejaVuSans-49"/>
      <use xlink:href="#DejaVuSans-72" transform="translate(29.492188 0)"/>
      <use xlink:href="#DejaVuSans-72" transform="translate(68.855469 0)"/>
      <use xlink:href="#DejaVuSans-61" transform="translate(109.96875 0)"/>
      <use xlink:href="#DejaVuSans-64" transform="translate(171.248047 0)"/>
      <use xlink:href="#DejaVuSans-69" transform="translate(234.724609 0)"/>
      <use xlink:href="#DejaVuSans-61" transform="translate(262.507812 0)"/>
      <use xlink:href="#DejaVuSans-74" transform="translate(323.787109 0)"/>
      <use xlink:href="#DejaVuSans-69" transform="translate(362.996094 0)"/>
      <use xlink:href="#DejaVuSans-6f" transform="translate(390.779297 0)"/>
      <use xlink:href="#DejaVuSans-6e" transform="translate(451.960938 0)"/>
      <use xlink:href="#DejaVuSans-20" transform="translate(515.339844 0)"/>
      <use xlink:href="#DejaVuSans-74" transform="translate(547.126953 0)"/>
      <use xlink:href="#DejaVuSans-69" transform="translate(586.335938 0)"/>
      <use xlink:href="#DejaVuSans-6d" transform="translate(614.119141 0)"/>
      <use xlink:href="#DejaVuSans-65" transform="translate(711.53125 0)"/>
      <use xlink:href="#DejaVuSans-20" transform="translate(773.054688 0)"/>
      <use xlink:href="#DejaVuSans-28" transform="translate(804.841797 0)"/>
      <use xlink:href="#DejaVuSans-73" transform="translate(843.855469 0)"/>
      <use xlink:href="#DejaVuSans-29" transform="translate(895.955078 0)"/>
     </g>
    </g>
   </g>
   <g id="matplotlib.axis_2">
    <g id="ytick_1">
     <g id="line2d_11">
      <path d="M 57.6 307.584 
L 414.72 307.584 
" clip-path="url(#p59edc3bd37)" style="fill: none; stroke: #b0b0b0; stroke-width: 0.8; stroke-linecap: square"/>
     </g>
     <g id="line2d_12">
      <defs>
       <path id="mf02d1f7863" d="M 0 0 
L -3.5 0 
" style="stroke: #000000; stroke-width: 0.8"/>
      </defs>
      <g>
       <use xlink:href="#mf02d1f7863" x="57.6" y="307.584" style="stroke: #000000; stroke-width: 0.8"/>
      </g>
     </g>
     <g id="text_7">
      <!-- 0.0 -->
      <g transform="translate(34.696875 311.383219) scale(0.1 -0.1)">
       <defs>
        <path id="DejaVuSans-30" d="M 2034 4250 
Q 1547 4250 1301 3770 
Q 1056 3291 1056 2328 
Q 1056 1369 1301 889 
Q 1547 409 2034 409 
Q 2525 409 2770 889 
Q 3016 1369 3016 2328 
Q 3016 3291 2770 3770 
Q 2525 4250 2034 4250 
z
M 2034 4750 
Q 2819 4750 3233 4129 
Q 3647 3509 3647 2328 
Q 3647 1150 3233 529 
Q 2819 -91 2034 -91 
Q 1250 -91 836 529 
Q 422 1150 422 2328 
Q 422 3509 836 4129 
Q 1250 4750 2034 4750 
z
" transform="scale(0.015625)"/>
        <path id="DejaVuSans-2e" d="M 684 794 
L 1344 794 
L 1344 0 
L 684 0 
L 684 794 
z
" transform="scale(0.015625)"/>
       </defs>
       <use xlink:href="#DejaVuSans-30"/>
       <use xlink:href="#DejaVuSans-2e" transform="translate(63.623047 0)"/>
       <use xlink:href="#DejaVuSans-30" transform="translate(95.410156 0)"/>
      </g>
     </g>
    </g>
    <g id="ytick_2">
     <g id="line2d_13">
      <path d="M 57.6 272.1024 
L 414.72 272.1024 
" clip-path="url(#p59edc3bd37)" style="fill: none; stroke: #b0b0b0; stroke-width: 0.8; stroke-linecap: square"/>
     </g>
     <g id="line2d_14">
      <g>
       <use xlink:href="#mf02d1f7863" x="57.6" y="272.1024" style="stroke: #000000; stroke-width: 0.8"/>
      </g>
     </g>
     <g id="text_8">
      <!-- 0.1 -->
      <g transform="translate(34.696875 275.901619) scale(0.1 -0.1)">
       <use xlink:href="#DejaVuSans-30"/>
       <use xlink:href="#DejaVuSans-2e" transform="translate(63.623047 0)"/>
       <use xlink:href="#DejaVuSans-31" transform="translate(95.410156 0)"/>
      </g>
     </g>
    </g>
    <g id="ytick_3">
     <g id="line2d_15">
      <path d="M 57.6 236.6208 
L 414.72 236.6208 
" clip-path="url(#p59edc3bd37)" style="fill: none; stroke: #b0b0b0; stroke-width: 0.8; stroke-linecap: square"/>
     </g>
     <g id="line2d_16">
      <g>
       <use xlink:href="#mf02d1f7863" x="57.6" y="236.6208" style="stroke: #000000; stroke-width: 0.8"/>
      </g>
     </g>
     <g id="text_9">
      <!-- 0.2 -->
      <g transform="translate(34.696875 240.420019) scale(0.1 -0.1)">
       <use xlink:href="#DejaVuSans-30"/>
       <use xlink:href="#DejaVuSans-2e" transform="translate(63.623047 0)"/>
       <use xlink:href="#DejaVuSans-32" transform="translate(95.410156 0)"/>
      </g>
     </g>
    </g>
    <g id="ytick_4">
     <g id="line2d_17">
      <path d="M 57.6 201.1392 
L 414.72 201.1392 
" clip-path="url(#p59edc3bd37)" style="fill: none; stroke: #b0b0b0; stroke-width: 0.8; stroke-linecap: square"/>
     </g>
     <g id="line2d_18">
      <g>
       <use xlink:href="#mf02d1f7863" x="57.6" y="201.1392" style="stroke: #000000; stroke-width: 0.8"/>
      </g>
     </g>
     <g id="text_10">
      <!-- 0.3 -->
      <g transform="translate(34.696875 204.938419) scale(0.1 -0.1)">
       <use xlink:href="#DejaVuSans-30"/>
       <use xlink:href="#DejaVuSans-2e" transform="translate(63.623047 0)"/>
       <use xlink:href="#DejaVuSans-33" transform="translate(95.410156 0)"/>
      </g>
     </g>
    </g>
    <g id="ytick_5">
     <g id="line2d_19">
      <path d="M 57.6 165.6576 
L 414.72 165.6576 
" clip-path="url(#p59edc3bd37)" style="fill: none; stroke: #b0b0b0; stroke-width: 0.8; stroke-linecap: square"/>
     </g>
     <g id="line2d_20">
      <g>
       <use xlink:href="#mf02d1f7863" x="57.6" y="165.6576" style="stroke: #000000; stroke-width: 0.8"/>
      </g>
     </g>
     <g id="text_11">
      <!-- 0.4 -->
      <g transform="translate(34.696875 169.456819) scale(0.1 -0.1)">
       <use xlink:href="#DejaVuSans-30"/>
       <use xlink:href="#DejaVuSans-2e" transform="translate(63.623047 0)"/>
       <use xlink:href="#DejaVuSans-34" transform="translate(95.410156 0)"/>
      </g>
     </g>
    </g>
    <g id="ytick_6">
     <g id="line2d_21">
      <path d="M 57.6 130.176 
L 414.72 130.176 
" clip-path="url(#p59edc3bd37)" style="fill: none; stroke: #b0b0b0; stroke-width: 0.8; stroke-linecap: square"/>
     </g>
     <g id="line2d_22">
      <g>
       <use xlink:href="#mf02d1f7863" x="57.6" y="130.176" style="stroke: #000000; stroke-width: 0.8"/>
      </g>
     </g>
     <g id="text_12">
      <!-- 0.5 -->
      <g transform="translate(34.696875 133.975219) scale(0.1 -0.1)">
       <defs>
        <path id="DejaVuSans-35" d="M 691 4666 
L 3169 4666 
L 3169 4134 
L 1269 4134 
L 1269 2991 
Q 1406 3038 1543 3061 
Q 1681 3084 1819 3084 
Q 2600 3084 3056 2656 
Q 3513 2228 3513 1497 
Q 3513 744 3044 326 
Q 2575 -91 1722 -91 
Q 1428 -91 1123 -41 
Q 819 9 494 109 
L 494 744 
Q 775 591 1075 516 
Q 1375 441 1709 441 
Q 2250 441 2565 725 
Q 2881 1009 2881 1497 
Q 2881 1984 2565 2268 
Q 2250 2553 1709 2553 
Q 1456 2553 1204 2497 
Q 953 2441 691 2322 
L 691 4666 
z
" transform="scale(0.015625)"/>
       </defs>
       <use xlink:href="#DejaVuSans-30"/>
       <use xlink:href="#DejaVuSans-2e" transform="translate(63.623047 0)"/>
       <use xlink:href="#DejaVuSans-35" transform="translate(95.410156 0)"/>
      </g>
     </g>
    </g>
    <g id="ytick_7">
     <g id="line2d_23">
      <path d="M 57.6 94.6944 
L 414.72 94.6944 
" clip-path="url(#p59edc3bd37)" style="fill: none; stroke: #b0b0b0; stroke-width: 0.8; stroke-linecap: square"/>
     </g>
     <g id="line2d_24">
      <g>
       <use xlink:href="#mf02d1f7863" x="57.6" y="94.6944" style="stroke: #000000; stroke-width: 0.8"/>
      </g>
     </g>
     <g id="text_13">
      <!-- 0.6 -->
      <g transform="translate(34.696875 98.493619) scale(0.1 -0.1)">
       <use xlink:href="#DejaVuSans-30"/>
       <use xlink:href="#DejaVuSans-2e" transform="translate(63.623047 0)"/>
       <use xlink:href="#DejaVuSans-36" transform="translate(95.410156 0)"/>
      </g>
     </g>
    </g>
    <g id="ytick_8">
     <g id="line2d_25">
      <path d="M 57.6 59.2128 
L 414.72 59.2128 
" clip-path="url(#p59edc3bd37)" style="fill: none; stroke: #b0b0b0; stroke-width: 0.8; stroke-linecap: square"/>
     </g>
     <g id="line2d_26">
      <g>
       <use xlink:href="#mf02d1f7863" x="57.6" y="59.2128" style="stroke: #000000; stroke-width: 0.8"/>
      </g>
     </g>
     <g id="text_14">
      <!-- 0.7 -->
      <g transform="translate(34.696875 63.012019) scale(0.1 -0.1)">
       <defs>
        <path id="DejaVuSans-37" d="M 525 4666 
L 3525 4666 
L 3525 4397 
L 1831 0 
L 1172 0 
L 2766 4134 
L 525 4134 
L 525 4666 
z
" transform="scale(0.015625)"/>
       </defs>
       <use xlink:href="#DejaVuSans-30"/>
       <use xlink:href="#DejaVuSans-2e" transform="translate(63.623047 0)"/>
       <use xlink:href="#DejaVuSans-37" transform="translate(95.410156 0)"/>
      </g>
     </g>
    </g>
    <g id="text_15">
     <!-- Percent of filled traps -->
     <g transform="translate(28.617187 227.95925) rotate(-90) scale(0.1 -0.1)">
      <defs>
       <path id="DejaVuSans-50" d="M 1259 4147 
L 1259 2394 
L 2053 2394 
Q 2494 2394 2734 2622 
Q 2975 2850 2975 3272 
Q 2975 3691 2734 3919 
Q 2494 4147 2053 4147 
L 1259 4147 
z
M 628 4666 
L 2053 4666 
Q 2838 4666 3239 4311 
Q 3641 3956 3641 3272 
Q 3641 2581 3239 2228 
Q 2838 1875 2053 1875 
L 1259 1875 
L 1259 0 
L 628 0 
L 628 4666 
z
" transform="scale(0.015625)"/>
       <path id="DejaVuSans-63" d="M 3122 3366 
L 3122 2828 
Q 2878 2963 2633 3030 
Q 2388 3097 2138 3097 
Q 1578 3097 1268 2742 
Q 959 2388 959 1747 
Q 959 1106 1268 751 
Q 1578 397 2138 397 
Q 2388 397 2633 464 
Q 2878 531 3122 666 
L 3122 134 
Q 2881 22 2623 -34 
Q 2366 -91 2075 -91 
Q 1284 -91 818 406 
Q 353 903 353 1747 
Q 353 2603 823 3093 
Q 1294 3584 2113 3584 
Q 2378 3584 2631 3529 
Q 2884 3475 3122 3366 
z
" transform="scale(0.015625)"/>
       <path id="DejaVuSans-66" d="M 2375 4863 
L 2375 4384 
L 1825 4384 
Q 1516 4384 1395 4259 
Q 1275 4134 1275 3809 
L 1275 3500 
L 2222 3500 
L 2222 3053 
L 1275 3053 
L 1275 0 
L 697 0 
L 697 3053 
L 147 3053 
L 147 3500 
L 697 3500 
L 697 3744 
Q 697 4328 969 4595 
Q 1241 4863 1831 4863 
L 2375 4863 
z
" transform="scale(0.015625)"/>
       <path id="DejaVuSans-6c" d="M 603 4863 
L 1178 4863 
L 1178 0 
L 603 0 
L 603 4863 
z
" transform="scale(0.015625)"/>
       <path id="DejaVuSans-70" d="M 1159 525 
L 1159 -1331 
L 581 -1331 
L 581 3500 
L 1159 3500 
L 1159 2969 
Q 1341 3281 1617 3432 
Q 1894 3584 2278 3584 
Q 2916 3584 3314 3078 
Q 3713 2572 3713 1747 
Q 3713 922 3314 415 
Q 2916 -91 2278 -91 
Q 1894 -91 1617 61 
Q 1341 213 1159 525 
z
M 3116 1747 
Q 3116 2381 2855 2742 
Q 2594 3103 2138 3103 
Q 1681 3103 1420 2742 
Q 1159 2381 1159 1747 
Q 1159 1113 1420 752 
Q 1681 391 2138 391 
Q 2594 391 2855 752 
Q 3116 1113 3116 1747 
z
" transform="scale(0.015625)"/>
      </defs>
      <use xlink:href="#DejaVuSans-50"/>
      <use xlink:href="#DejaVuSans-65" transform="translate(56.677734 0)"/>
      <use xlink:href="#DejaVuSans-72" transform="translate(118.201172 0)"/>
      <use xlink:href="#DejaVuSans-63" transform="translate(157.064453 0)"/>
      <use xlink:href="#DejaVuSans-65" transform="translate(212.044922 0)"/>
      <use xlink:href="#DejaVuSans-6e" transform="translate(273.568359 0)"/>
      <use xlink:href="#DejaVuSans-74" transform="translate(336.947266 0)"/>
      <use xlink:href="#DejaVuSans-20" transform="translate(376.15625 0)"/>
      <use xlink:href="#DejaVuSans-6f" transform="translate(407.943359 0)"/>
      <use xlink:href="#DejaVuSans-66" transform="translate(469.125 0)"/>
      <use xlink:href="#DejaVuSans-20" transform="translate(504.330078 0)"/>
      <use xlink:href="#DejaVuSans-66" transform="translate(536.117188 0)"/>
      <use xlink:href="#DejaVuSans-69" transform="translate(571.322266 0)"/>
      <use xlink:href="#DejaVuSans-6c" transform="translate(599.105469 0)"/>
      <use xlink:href="#DejaVuSans-6c" transform="translate(626.888672 0)"/>
      <use xlink:href="#DejaVuSans-65" transform="translate(654.671875 0)"/>
      <use xlink:href="#DejaVuSans-64" transform="translate(716.195312 0)"/>
      <use xlink:href="#DejaVuSans-20" transform="translate(779.671875 0)"/>
      <use xlink:href="#DejaVuSans-74" transform="translate(811.458984 0)"/>
      <use xlink:href="#DejaVuSans-72" transform="translate(850.667969 0)"/>
      <use xlink:href="#DejaVuSans-61" transform="translate(891.78125 0)"/>
      <use xlink:href="#DejaVuSans-70" transform="translate(953.060547 0)"/>
      <use xlink:href="#DejaVuSans-73" transform="translate(1016.537109 0)"/>
     </g>
    </g>
   </g>
   <g id="line2d_27">
    <path d="M 62.695088 304.213248 
L 66.10891 303.503616 
L 66.10891 302.793984 
L 67.824486 302.084352 
L 67.824486 301.37472 
L 71.255638 299.955456 
L 72.979967 298.891008 
L 74.713139 298.181376 
L 74.713139 297.116928 
L 76.455244 296.05248 
L 79.948481 294.633216 
L 79.948481 293.923584 
L 83.468986 291.794688 
L 83.468986 290.73024 
L 85.238454 289.665792 
L 95.996954 281.150208 
L 99.660596 278.31168 
L 99.660596 277.247232 
L 107.078439 272.98944 
L 107.078439 271.570176 
L 112.721736 268.376832 
L 114.620435 267.6672 
L 116.529861 266.602752 
L 116.529861 265.538304 
L 120.370412 263.409408 
L 120.370412 262.34496 
L 122.30166 261.635328 
L 126.175256 259.506432 
L 128.128831 258.7968 
L 130.093763 257.732352 
L 130.093763 256.667904 
L 134.046611 254.539008 
L 134.046611 253.47456 
L 136.034661 252.410112 
L 138.02271 250.990848 
L 142.034241 249.216768 
L 148.142252 245.4912 
L 148.142252 244.249344 
L 154.312112 241.588224 
L 156.385538 241.056 
L 158.471763 239.991552 
L 158.471763 238.927104 
L 162.670129 236.798208 
L 162.670129 235.73376 
L 164.782432 235.024128 
L 171.159364 231.830784 
L 173.312029 230.41152 
L 173.312029 228.992256 
L 175.478493 227.572992 
L 182.02 224.911872 
L 186.452421 222.42816 
L 186.452421 221.186304 
L 193.152301 218.525184 
L 195.405424 217.99296 
L 197.673668 216.928512 
L 197.673668 215.864064 
L 202.24081 214.4448 
L 202.24081 213.735168 
L 204.539915 213.380352 
L 206.83902 212.67072 
L 206.83902 211.961088 
L 209.153872 211.606272 
L 211.468725 210.89664 
L 211.468725 210.187008 
L 213.799542 209.832192 
L 216.130359 209.12256 
L 216.130359 208.412928 
L 220.824365 206.993664 
L 220.824365 206.284032 
L 223.187781 205.929216 
L 227.931256 204.509952 
L 227.931256 203.80032 
L 230.328195 203.090688 
L 230.328195 202.381056 
L 235.122074 201.671424 
L 237.536134 200.961792 
L 237.536134 200.25216 
L 239.967562 199.542528 
L 239.967562 198.832896 
L 244.830418 197.413632 
L 247.279464 196.349184 
L 247.279464 195.639552 
L 257.201843 191.38176 
L 257.201843 189.962496 
L 259.723995 188.543232 
L 272.5273 183.220992 
L 272.5273 182.156544 
L 277.767121 180.027648 
L 277.767121 178.9632 
L 280.4075 177.898752 
L 283.047879 176.479488 
L 288.391337 174.350592 
L 293.820636 171.512064 
L 296.568347 170.447616 
L 296.568347 169.383168 
L 304.901942 167.254272 
L 304.901942 166.899456 
L 307.718345 166.189824 
L 307.718345 165.835008 
L 310.534749 165.480192 
L 313.351153 165.480192 
L 313.351153 165.125376 
L 316.191224 165.125376 
L 316.191224 164.77056 
L 321.871366 164.060928 
L 321.871366 163.706112 
L 327.551508 162.286848 
L 327.551508 161.2224 
L 330.415648 160.157952 
L 339.081928 155.90016 
L 350.993866 148.80384 
L 354.038627 147.02976 
L 360.211695 144.191232 
L 369.687998 140.997888 
L 369.687998 139.93344 
L 372.906745 139.223808 
L 372.906745 138.514176 
L 382.593936 136.38528 
L 382.593936 135.675648 
L 392.469847 132.482304 
L 392.469847 131.772672 
L 399.162292 129.643776 
L 405.955799 128.224512 
L 405.955799 127.160064 
L 412.853114 125.031168 
L 412.853114 123.96672 
L 416.337325 122.902272 
L 430.495012 117.225216 
L 434.129082 115.805952 
L 437.802652 114.741504 
L 445.271796 113.32224 
L 445.271796 112.612608 
L 449.069195 111.902976 
L 449.069195 111.193344 
L 460.419196 110.128896 
L 460.419196 109.419264 
L 461.8 109.03656 
L 461.8 109.03656 
" clip-path="url(#p59edc3bd37)" style="fill: none; stroke-dasharray: 1.85,0.8; stroke-dashoffset: 0; stroke: #8000ff; stroke-width: 0.5"/>
   </g>
   <g id="line2d_28">
    <path d="M 64.401999 300.665088 
L 67.841904 297.82656 
L 76.598033 288.95616 
L 85.587065 281.85984 
L 85.587065 280.440576 
L 89.240778 277.602048 
L 92.924385 275.827968 
L 94.781355 274.586112 
L 98.526186 272.812032 
L 98.526186 271.924992 
L 102.291881 270.150912 
L 102.291881 269.618688 
L 104.179972 269.086464 
L 106.068064 268.022016 
L 109.87619 266.602752 
L 109.87619 265.89312 
L 113.71674 264.473856 
L 113.71674 263.764224 
L 115.647989 263.054592 
L 115.647989 262.34496 
L 119.510485 260.925696 
L 123.406408 258.7968 
L 123.406408 257.732352 
L 125.371341 256.667904 
L 131.300747 254.539008 
L 131.300747 253.829376 
L 133.30056 253.119744 
L 133.30056 252.410112 
L 135.300374 251.70048 
L 137.300187 251.345664 
L 137.300187 250.636032 
L 139.311904 249.9264 
L 141.323621 248.861952 
L 143.347384 248.15232 
L 143.347384 247.442688 
L 149.467587 244.249344 
L 149.467587 243.184896 
L 157.748804 237.50784 
L 166.224919 230.41152 
L 172.72449 226.153728 
L 174.919091 225.08928 
L 177.128035 224.379648 
L 177.128035 223.670016 
L 179.351511 222.960384 
L 181.574988 222.605568 
L 181.574988 222.250752 
L 183.135891 221.895936 
L 183.81319 221.54112 
L 186.036666 221.186304 
L 186.036666 220.831488 
L 188.274868 220.121856 
L 190.51307 219.057408 
L 190.51307 217.99296 
L 192.766193 216.928512 
L 199.571131 212.67072 
L 211.226325 203.80032 
L 220.848812 196.704 
L 233.275466 189.60768 
L 233.275466 188.543232 
L 243.497978 184.28544 
L 243.497978 182.866176 
L 248.697492 180.73728 
L 253.957781 179.318016 
L 256.61895 178.253568 
L 256.61895 177.543936 
L 259.30124 176.834304 
L 259.30124 176.479488 
L 264.665818 175.769856 
L 264.665818 175.060224 
L 267.369566 174.350592 
L 267.369566 173.286144 
L 272.777061 171.157248 
L 278.250324 169.383168 
L 281.020557 168.141312 
L 286.630089 166.367232 
L 286.630089 165.835008 
L 289.47016 165.302784 
L 292.286564 165.125376 
L 292.286564 164.947968 
L 295.126635 164.77056 
L 295.126635 164.060928 
L 297.966706 163.351296 
L 297.966706 162.641664 
L 303.646848 160.512768 
L 309.399607 157.67424 
L 321.207491 150.57792 
L 324.225066 148.80384 
L 333.442896 144.546048 
L 339.730817 142.417152 
L 339.730817 141.70752 
L 342.919198 140.997888 
L 346.10758 140.643072 
L 346.10758 140.288256 
L 349.326327 139.93344 
L 349.326327 139.223808 
L 352.545074 138.514176 
L 352.545074 137.804544 
L 358.982569 136.38528 
L 362.232266 135.320832 
L 365.513513 134.6112 
L 368.826929 133.546752 
L 368.826929 132.83712 
L 375.519374 131.417856 
L 375.519374 130.708224 
L 378.899058 129.998592 
L 378.899058 128.934144 
L 392.520908 126.805248 
L 396.005118 125.918208 
L 396.005118 125.385984 
L 399.525623 124.85376 
L 399.525623 124.321536 
L 406.494045 123.257088 
L 406.494045 122.19264 
L 410.01455 121.128192 
L 420.688026 116.8704 
L 435.46481 109.77408 
L 443.102759 106.22592 
L 454.893419 101.968128 
L 461.8 100.149989 
L 461.8 100.149989 
" clip-path="url(#p59edc3bd37)" style="fill: none; stroke-dasharray: 1.85,0.8; stroke-dashoffset: 0; stroke: #8000ff; stroke-width: 0.5"/>
   </g>
   <g id="line2d_29">
    <path d="M 66.134992 300.310272 
L 67.868164 299.423232 
L 67.868164 298.891008 
L 71.343441 297.82656 
L 71.343441 297.294336 
L 73.085546 296.762112 
L 73.085546 295.697664 
L 76.569757 294.2784 
L 80.081141 292.149504 
L 81.85061 290.73024 
L 81.85061 289.310976 
L 88.99407 285.053184 
L 90.801388 283.63392 
L 90.801388 282.569472 
L 92.618423 281.505024 
L 98.099099 279.376128 
L 98.099099 278.666496 
L 99.945921 277.956864 
L 99.945921 277.247232 
L 101.792743 276.5376 
L 103.639565 276.182784 
L 103.639565 275.473152 
L 109.220733 273.344256 
L 109.220733 272.98944 
L 112.975938 271.570176 
L 112.975938 270.860544 
L 114.86403 270.150912 
L 114.86403 269.086464 
L 116.752122 268.022016 
L 118.640214 267.312384 
L 122.44834 265.183488 
L 124.368615 263.764224 
L 126.299863 262.699776 
L 126.299863 261.635328 
L 132.138133 258.441984 
L 132.138133 257.377536 
L 136.067999 254.539008 
L 140.032472 252.410112 
L 144.044003 249.571584 
L 146.067766 248.507136 
L 146.067766 247.442688 
L 152.187969 244.249344 
L 152.187969 243.539712 
L 156.309535 241.410816 
L 160.469186 239.991552 
L 160.469186 238.927104 
L 164.667552 236.798208 
L 164.667552 236.088576 
L 166.779855 235.378944 
L 168.892158 234.314496 
L 173.156786 232.895232 
L 173.156786 231.830784 
L 177.462117 230.41152 
L 177.462117 229.701888 
L 181.795046 228.282624 
L 181.795046 227.572992 
L 183.975488 227.218176 
L 188.35053 225.798912 
L 188.35053 225.444096 
L 190.559474 224.734464 
L 190.559474 224.379648 
L 192.768418 224.024832 
L 194.977362 224.024832 
L 194.977362 223.670016 
L 197.200839 223.670016 
L 197.200839 223.3152 
L 199.424315 222.960384 
L 199.424315 222.605568 
L 201.647792 221.895936 
L 201.647792 221.186304 
L 206.094745 219.057408 
L 208.332947 217.638144 
L 210.58607 216.573696 
L 219.751843 210.89664 
L 219.751843 209.832192 
L 229.123896 205.5744 
L 229.123896 204.155136 
L 243.575489 195.639552 
L 248.527474 192.801024 
L 251.030944 191.736576 
L 251.030944 190.672128 
L 253.553097 189.60768 
L 258.616366 188.188416 
L 258.616366 187.8336 
L 263.7371 186.414336 
L 263.7371 186.05952 
L 266.317012 185.704704 
L 266.317012 184.995072 
L 271.476835 183.575808 
L 271.476835 182.866176 
L 279.296261 180.73728 
L 281.936639 180.382464 
L 281.936639 179.672832 
L 284.597808 178.9632 
L 284.597808 178.608384 
L 287.258977 178.253568 
L 287.258977 177.898752 
L 289.920146 177.18912 
L 292.581315 176.834304 
L 292.581315 176.124672 
L 300.649641 173.995776 
L 300.649641 173.286144 
L 303.375193 172.221696 
L 306.100745 171.512064 
L 306.100745 170.802432 
L 308.848456 170.447616 
L 311.596167 169.737984 
L 314.366401 169.383168 
L 314.366401 169.028352 
L 317.159528 168.31872 
L 317.159528 167.609088 
L 319.952656 167.254272 
L 319.952656 166.899456 
L 328.355315 165.835008 
L 328.355315 165.480192 
L 331.195386 164.77056 
L 331.195386 164.060928 
L 334.035457 163.351296 
L 334.035457 162.641664 
L 339.715599 161.577216 
L 345.468358 159.803136 
L 348.381879 158.56128 
L 348.381879 157.319424 
L 357.173113 153.593856 
L 360.137748 152.706816 
L 372.263396 147.02976 
L 372.263396 145.965312 
L 375.364024 144.900864 
L 384.752574 142.771968 
L 384.752574 141.70752 
L 387.940955 140.643072 
L 387.940955 139.578624 
L 394.317719 137.449728 
L 400.786162 134.6112 
L 414.106733 127.51488 
L 427.973929 120.41856 
L 442.43454 113.32224 
L 457.541633 107.645184 
L 461.426328 106.580736 
L 461.426328 105.516288 
L 461.8 105.415075 
L 461.8 105.415075 
" clip-path="url(#p59edc3bd37)" style="fill: none; stroke-dasharray: 1.85,0.8; stroke-dashoffset: 0; stroke: #8000ff; stroke-width: 0.5"/>
   </g>
   <g id="line2d_30">
    <path d="M 61.1712 301.729536 
L 64.298086 301.618464 
L 64.793931 301.476028 
L 66.091849 301.02818 
L 66.210042 300.731243 
L 67.810389 299.798495 
L 67.952501 299.300121 
L 71.312174 297.346739 
L 71.439115 297.087389 
L 73.057254 296.048548 
L 73.20035 295.60764 
L 74.706231 294.691743 
L 74.864593 294.230497 
L 78.406396 291.977932 
L 79.946647 291.051912 
L 80.101624 290.710663 
L 81.823109 289.450284 
L 81.9911 288.863789 
L 83.437107 287.905368 
L 83.616291 287.431942 
L 85.542219 286.139767 
L 85.671259 285.573095 
L 90.735835 281.948793 
L 90.888859 281.494833 
L 96.088451 278.399196 
L 98.089409 277.30799 
L 98.276393 276.969884 
L 98.464241 276.86786 
L 98.652956 276.469795 
L 99.609686 275.951011 
L 99.803692 275.50036 
L 99.90103 275.453949 
L 100.09638 275.12426 
L 102.202833 274.144587 
L 102.408814 273.889405 
L 103.558829 273.486971 
L 103.771071 273.168009 
L 105.394448 272.38458 
L 107.074904 271.599174 
L 107.303384 271.025337 
L 109.767072 269.824066 
L 110.007985 269.481893 
L 112.859757 268.243295 
L 113.114952 267.91147 
L 113.628884 267.71975 
L 113.887631 267.3868 
L 114.802693 267.034919 
L 115.066861 266.552857 
L 115.598862 266.288862 
L 115.866707 265.919406 
L 116.406113 265.651737 
L 116.677686 265.162314 
L 120.324395 263.42759 
L 120.469063 262.998727 
L 123.282018 261.50896 
L 123.433507 261.061505 
L 125.905393 259.682184 
L 126.220834 259.53144 
L 126.379101 259.109414 
L 129.954825 257.48646 
L 130.121704 257.0512 
L 131.300681 256.48507 
L 131.470664 256.167031 
L 131.982968 255.921417 
L 132.154524 255.483382 
L 133.192203 254.924516 
L 133.541296 254.49996 
L 133.892001 254.31108 
L 134.06796 253.86152 
L 143.205963 248.954162 
L 143.403404 248.604508 
L 146.011961 247.123047 
L 146.215873 246.655788 
L 148.072382 245.634195 
L 148.281047 245.113697 
L 149.331612 244.597891 
L 149.543181 244.13494 
L 152.120395 242.724777 
L 152.338396 242.369188 
L 156.349529 240.307381 
L 158.418338 239.216653 
L 158.650865 238.730608 
L 160.293638 237.804669 
L 160.530489 237.313243 
L 162.445076 236.130855 
L 162.68689 235.627975 
L 164.641588 234.535841 
L 164.888468 234.168333 
L 170.206523 231.324915 
L 173.09656 229.814018 
L 173.362941 228.855263 
L 176.060771 227.643524 
L 176.882314 227.35315 
L 177.157425 227.019389 
L 177.433172 226.922119 
L 177.709554 226.588311 
L 181.646512 225.209534 
L 181.932612 224.889086 
L 184.245295 224.087805 
L 186.007994 223.47465 
L 186.304153 223.239422 
L 186.600996 222.714872 
L 188.095508 222.198405 
L 188.69815 221.849744 
L 190.216959 221.244358 
L 190.522826 220.767636 
L 191.136677 220.436431 
L 197.11152 218.354156 
L 197.433288 218.106279 
L 197.755799 217.621384 
L 199.379543 217.030426 
L 200.034296 216.618233 
L 201.352887 216.00221 
L 201.684437 215.608822 
L 202.016752 215.43615 
L 202.349834 215.032546 
L 206.407246 213.031475 
L 206.750453 212.836954 
L 207.094453 212.41886 
L 211.284858 210.282051 
L 211.639316 209.856062 
L 215.957116 207.563704 
L 216.32235 207.125524 
L 219.647594 205.296829 
L 220.021339 204.751114 
L 220.771418 204.378903 
L 221.147755 203.98698 
L 225.345196 202.223011 
L 227.679939 201.19377 
L 228.07221 200.78477 
L 228.859469 200.43987 
L 229.254461 199.787508 
L 230.047179 199.401906 
L 230.44491 198.977653 
L 233.25483 197.752974 
L 233.659959 197.240082 
L 237.348427 195.707947 
L 237.762997 195.291809 
L 239.850236 194.391452 
L 240.270577 193.973978 
L 243.240232 192.701121 
L 243.668391 192.045095 
L 247.129407 190.464403 
L 247.566536 190.021952 
L 249.767352 189.095799 
L 250.654801 188.762255 
L 251.100061 188.240162 
L 256.523966 186.244762 
L 256.982763 185.855737 
L 257.442618 185.223076 
L 259.292668 184.422892 
L 259.75785 184.155086 
L 264.469095 182.767447 
L 264.946216 182.409371 
L 265.903762 182.149004 
L 266.384193 181.778746 
L 267.34838 181.472372 
L 267.832142 180.944111 
L 271.249862 179.713588 
L 271.742623 179.300133 
L 272.23652 179.122972 
L 272.731556 178.590802 
L 277.745149 176.913415 
L 278.25289 176.389757 
L 281.840019 175.135085 
L 282.357205 174.709415 
L 286.011057 173.425781 
L 286.537863 173.277375 
L 287.595122 172.709947 
L 292.413535 171.347163 
L 292.955108 170.964918 
L 294.58733 170.537752 
L 295.133916 170.170589 
L 296.230873 169.840836 
L 296.781249 169.329886 
L 297.885813 169.046164 
L 298.440006 168.647904 
L 300.110268 168.150488 
L 300.669592 167.746522 
L 305.761916 165.915916 
L 306.334275 165.497302 
L 313.306423 163.433223 
L 315.079785 162.734171 
L 315.673634 162.565122 
L 318.06276 161.491722 
L 319.869108 160.982587 
L 321.080294 160.523112 
L 321.687983 160.352761 
L 322.907569 159.849902 
L 326.600224 158.759119 
L 327.220644 158.584992 
L 327.842496 158.044637 
L 329.090504 157.496825 
L 330.973331 156.7947 
L 331.603837 156.305296 
L 333.504094 155.545925 
L 334.140437 155.082198 
L 339.284304 153.334554 
L 339.933978 152.852565 
L 347.847943 149.846441 
L 348.517369 149.181533 
L 349.188338 148.930877 
L 349.860855 148.423459 
L 351.887728 147.59267 
L 352.566471 147.077983 
L 356.67193 145.504563 
L 368.617021 141.228725 
L 370.053331 140.160199 
L 372.220241 139.514119 
L 372.945879 138.733393 
L 375.132849 138.167814 
L 375.865205 137.761233 
L 378.811556 137.113961 
L 379.552396 136.608427 
L 382.532882 136.010391 
L 383.282305 135.599503 
L 384.033456 135.422595 
L 384.78634 134.889234 
L 387.815279 134.066764 
L 388.576885 133.505259 
L 392.411345 132.46981 
L 393.183552 132.003519 
L 395.510873 131.257656 
L 396.290229 130.82675 
L 399.425666 129.887576 
L 400.21405 129.500126 
L 405.783888 127.847964 
L 406.586936 126.87264 
L 412.260378 124.640334 
L 413.078364 123.948547 
L 414.72 123.276252 
L 414.72 123.276252 
" clip-path="url(#p59edc3bd37)" style="fill: none; stroke-dasharray: 7.4,3.2; stroke-dashoffset: 0; stroke: #ffa500; stroke-width: 2"/>
   </g>
   <g id="line2d_31">
    <path d="M 61.867496 300.310272 
L 61.867496 299.245824 
L 63.600668 297.116928 
L 63.600668 296.407296 
L 64.47172 295.697664 
L 65.342773 294.633216 
L 67.098465 293.213952 
L 67.098465 292.149504 
L 68.867934 290.73024 
L 68.867934 290.375424 
L 69.757324 290.020608 
L 70.646715 289.310976 
L 70.646715 288.601344 
L 71.540811 287.891712 
L 71.540811 286.827264 
L 72.434908 285.762816 
L 73.329004 285.053184 
L 75.131516 282.924288 
L 76.040033 281.505024 
L 76.953461 280.440576 
L 76.953461 279.376128 
L 78.790246 277.956864 
L 79.713657 277.602048 
L 79.713657 277.247232 
L 80.642142 276.5376 
L 80.642142 275.827968 
L 81.570627 275.118336 
L 81.570627 274.408704 
L 83.427596 272.279808 
L 84.361211 270.860544 
L 85.300012 269.796096 
L 86.244058 268.376832 
L 89.108258 265.183488 
L 89.108258 264.11904 
L 90.073883 263.409408 
L 90.073883 262.699776 
L 92.005131 261.280512 
L 92.976305 260.216064 
L 92.976305 259.151616 
L 93.953092 257.732352 
L 96.900558 254.539008 
L 98.894489 251.70048 
L 98.894489 250.281216 
L 100.906206 247.442688 
L 106.027317 242.120448 
L 106.027317 241.056 
L 107.070429 239.991552 
L 107.070429 238.927104 
L 109.156654 236.798208 
L 111.262397 233.95968 
L 113.394711 230.41152 
L 116.644497 226.153728 
L 118.846269 224.024832 
L 118.846269 222.960384 
L 119.958008 221.895936 
L 121.069746 221.186304 
L 121.069746 220.476672 
L 124.434509 218.347776 
L 124.434509 217.638144 
L 125.568632 216.573696 
L 126.702754 215.864064 
L 126.702754 215.154432 
L 130.135877 213.025536 
L 130.135877 212.315904 
L 132.45073 210.187008 
L 132.45073 209.12256 
L 133.616138 208.058112 
L 137.136756 203.80032 
L 138.326786 202.02624 
L 141.948 197.768448 
L 144.405984 195.639552 
L 144.405984 194.575104 
L 145.648515 193.510656 
L 146.891047 192.801024 
L 146.891047 192.091392 
L 148.142782 191.736576 
L 150.655593 190.317312 
L 150.655593 189.962496 
L 151.926151 189.252864 
L 151.926151 188.898048 
L 154.467267 188.188416 
L 154.467267 187.478784 
L 155.747451 186.769152 
L 155.747451 185.704704 
L 160.897652 181.446912 
L 163.527797 178.608384 
L 164.858381 177.721344 
L 164.858381 176.834304 
L 168.892545 175.237632 
L 168.892545 174.705408 
L 170.255321 173.818368 
L 170.255321 172.931328 
L 172.959068 171.86688 
L 175.6957 169.737984 
L 177.080816 168.31872 
L 177.080816 166.899456 
L 178.47738 165.480192 
L 182.702182 162.286848 
L 184.134251 160.867584 
L 185.578561 159.803136 
L 185.578561 158.738688 
L 189.96151 156.609792 
L 189.96151 155.90016 
L 191.443828 154.835712 
L 191.443828 153.771264 
L 192.926146 152.706816 
L 194.408463 151.997184 
L 197.412687 149.868288 
L 200.471287 147.02976 
L 200.471287 145.610496 
L 209.919441 137.094912 
L 214.841621 133.901568 
L 214.841621 132.83712 
L 216.514732 131.772672 
L 216.514732 131.06304 
L 223.257708 128.224512 
L 223.257708 127.160064 
L 226.706365 125.7408 
L 226.706365 125.031168 
L 228.448471 124.676352 
L 230.190576 123.96672 
L 230.190576 123.257088 
L 231.950829 122.547456 
L 233.711081 121.483008 
L 233.711081 120.41856 
L 235.489862 119.354112 
L 240.883383 115.09632 
L 248.353439 108 
L 252.216062 104.45184 
L 258.180762 100.194048 
L 262.277499 98.065152 
L 262.277499 97.000704 
L 266.449949 94.871808 
L 266.449949 93.80736 
L 268.562252 92.742912 
L 274.98006 88.48512 
L 279.398137 84.93696 
L 283.934831 82.098432 
L 290.976746 78.905088 
L 290.976746 77.84064 
L 293.390807 76.776192 
L 293.390807 75.711744 
L 298.218927 73.582848 
L 305.675189 69.325056 
L 310.835313 67.19616 
L 316.157981 65.776896 
L 316.157981 65.067264 
L 318.883533 64.712448 
L 318.883533 64.357632 
L 321.565823 64.002816 
L 321.565823 63.293184 
L 335.24259 57.970944 
L 338.10673 56.906496 
L 341.020251 56.196864 
L 341.020251 55.487232 
L 343.984886 55.309824 
L 343.984886 55.132416 
L 346.949522 54.955008 
L 346.949522 54.7776 
L 349.914158 54.245376 
L 349.914158 54.067968 
L 361.774525 51.939072 
L 361.774525 51.22944 
L 367.919406 49.810176 
L 367.919406 49.100544 
L 371.048744 48.390912 
L 371.048744 47.326464 
L 374.178081 46.262016 
L 377.307419 45.552384 
L 380.495801 44.487936 
L 383.745497 43.955712 
L 390.438598 42.181632 
L 390.438598 41.294592 
L 393.887256 40.407552 
L 393.887256 39.520512 
L 397.335913 38.633472 
L 400.715598 38.278656 
L 407.68476 36.859392 
L 414.95374 34.37568 
L 414.95374 33.133824 
L 422.382515 31.359744 
L 429.978271 30.295296 
L 433.908136 29.230848 
L 433.908136 28.1664 
L 437.93157 27.101952 
L 437.93157 26.037504 
L 445.978438 23.908608 
L 450.100005 22.489344 
L 454.32461 21.424896 
L 461.8 19.002702 
L 461.8 19.002702 
" clip-path="url(#p59edc3bd37)" style="fill: none; stroke-dasharray: 1.85,0.8; stroke-dashoffset: 0; stroke: #80ffb4; stroke-width: 0.5"/>
   </g>
   <g id="line2d_32">
    <path d="M 61.005332 300.310272 
L 63.59187 297.116928 
L 65.338489 294.2784 
L 65.338489 292.859136 
L 69.766962 285.762816 
L 73.391419 281.505024 
L 73.391419 279.376128 
L 77.065043 275.118336 
L 80.80999 269.44128 
L 80.80999 268.376832 
L 81.75934 267.312384 
L 84.62354 265.183488 
L 84.62354 264.473856 
L 85.589164 263.764224 
L 85.589164 263.409408 
L 86.554788 263.054592 
L 87.520412 263.054592 
L 87.520412 262.699776 
L 88.491586 262.34496 
L 88.491586 261.635328 
L 89.46276 260.925696 
L 89.46276 260.216064 
L 91.405107 258.087168 
L 92.381895 256.667904 
L 93.364361 255.780864 
L 94.352573 254.539008 
L 97.352363 251.877888 
L 97.352363 250.990848 
L 98.364245 250.458624 
L 98.364245 249.9264 
L 100.375962 248.861952 
L 101.387843 247.797504 
L 101.387843 246.733056 
L 104.447945 242.475264 
L 105.478336 241.410816 
L 107.558162 238.572288 
L 108.607753 237.50784 
L 109.663905 236.798208 
L 109.663905 236.088576 
L 110.726699 235.378944 
L 111.789492 235.024128 
L 111.789492 234.314496 
L 113.921807 232.895232 
L 113.921807 232.540416 
L 114.991327 231.830784 
L 118.220413 228.63744 
L 118.220413 227.218176 
L 120.400854 224.379648 
L 122.602626 222.250752 
L 125.960027 217.99296 
L 125.960027 216.573696 
L 129.370057 213.380352 
L 130.51961 212.67072 
L 131.677036 211.606272 
L 131.677036 210.89664 
L 134.007853 209.477376 
L 134.007853 208.767744 
L 135.181354 208.412928 
L 135.181354 207.703296 
L 137.528358 206.993664 
L 138.710065 206.284032 
L 138.710065 205.929216 
L 139.900095 205.219584 
L 139.900095 204.509952 
L 142.280155 203.090688 
L 142.280155 202.381056 
L 143.478624 201.671424 
L 145.884124 199.542528 
L 147.099838 198.832896 
L 147.099838 197.768448 
L 150.782346 194.575104 
L 150.782346 193.865472 
L 154.519144 190.672128 
L 155.78022 189.962496 
L 155.78022 188.898048 
L 159.60152 185.704704 
L 159.60152 184.640256 
L 162.181432 182.51136 
L 164.791265 181.092096 
L 166.111455 180.027648 
L 166.111455 178.9632 
L 167.442039 178.253568 
L 167.442039 178.07616 
L 170.103208 177.721344 
L 171.444353 177.18912 
L 171.444353 176.124672 
L 172.796227 175.592448 
L 174.126811 175.41504 
L 175.467956 175.592448 
L 176.81983 175.41504 
L 176.81983 174.705408 
L 178.182606 173.995776 
L 178.182606 173.286144 
L 182.260031 172.221696 
L 182.260031 171.512064 
L 185.007742 169.383168 
L 185.007742 168.31872 
L 189.17454 165.125376 
L 190.582741 164.415744 
L 193.434847 162.286848 
L 193.434847 161.2224 
L 194.879156 160.157952 
L 194.879156 159.093504 
L 197.767776 156.964608 
L 205.180505 149.868288 
L 208.239106 147.739392 
L 208.239106 147.02976 
L 211.339734 145.610496 
L 211.339734 145.25568 
L 212.904403 144.900864 
L 212.904403 144.191232 
L 216.03374 143.4816 
L 216.03374 142.771968 
L 217.613032 142.59456 
L 219.192324 142.062336 
L 219.192324 141.530112 
L 220.786515 141.352704 
L 222.380706 140.82048 
L 222.380706 140.288256 
L 223.990079 139.756032 
L 225.58427 138.868992 
L 225.58427 137.981952 
L 227.193644 137.094912 
L 228.803017 135.675648 
L 232.068489 133.546752 
L 233.725197 132.127488 
L 237.088151 129.998592 
L 237.088151 128.934144 
L 240.501974 126.805248 
L 240.501974 125.7408 
L 251.029475 119.354112 
L 251.029475 118.289664 
L 254.663544 116.160768 
L 254.663544 115.09632 
L 256.500329 114.386688 
L 262.071687 111.193344 
L 263.970386 109.77408 
L 263.970386 108.354816 
L 267.810936 106.22592 
L 271.718217 104.806656 
L 273.706266 103.742208 
L 273.706266 102.67776 
L 275.717983 101.613312 
L 275.717983 100.548864 
L 279.741417 99.1296 
L 281.777372 98.065152 
L 285.92438 96.645888 
L 285.92438 95.936256 
L 288.036683 95.226624 
L 290.148986 94.871808 
L 290.148986 94.162176 
L 298.678411 92.742912 
L 298.678411 92.388096 
L 300.844876 92.388096 
L 300.844876 92.03328 
L 303.01134 91.678464 
L 303.01134 91.323648 
L 305.177805 90.968832 
L 305.177805 90.614016 
L 311.705334 88.48512 
L 311.705334 87.775488 
L 318.40541 84.582144 
L 318.40541 83.517696 
L 320.688981 82.098432 
L 327.634407 78.905088 
L 330.014467 77.485824 
L 332.428527 76.421376 
L 332.428527 75.356928 
L 334.877574 74.29248 
L 339.811683 72.873216 
L 339.811683 72.163584 
L 344.855988 70.034688 
L 344.855988 69.325056 
L 347.416355 68.615424 
L 355.216858 65.42208 
L 355.216858 64.357632 
L 357.899147 63.293184 
L 363.306989 61.87392 
L 366.077222 61.519104 
L 366.077222 60.809472 
L 368.893626 60.09984 
L 368.893626 59.390208 
L 371.710029 58.680576 
L 371.710029 57.970944 
L 374.526433 56.906496 
L 377.342837 56.196864 
L 389.102709 51.939072 
L 389.102709 50.874624 
L 395.24759 49.45536 
L 395.24759 49.100544 
L 398.376927 48.745728 
L 401.506265 48.036096 
L 401.506265 47.326464 
L 404.694646 46.616832 
L 404.694646 45.552384 
L 411.07141 43.423488 
L 414.321106 42.004224 
L 417.634523 40.939776 
L 421.014207 39.520512 
L 427.98337 37.391616 
L 431.578779 36.681984 
L 431.578779 35.972352 
L 435.252349 35.26272 
L 435.252349 34.907904 
L 446.273059 33.843456 
L 446.273059 33.133824 
L 450.028264 32.424192 
L 450.028264 31.891968 
L 457.538674 30.82752 
L 461.8 29.845504 
L 461.8 29.845504 
" clip-path="url(#p59edc3bd37)" style="fill: none; stroke-dasharray: 1.85,0.8; stroke-dashoffset: 0; stroke: #80ffb4; stroke-width: 0.5"/>
   </g>
   <g id="line2d_33">
    <path d="M 61.867496 298.891008 
L 62.734082 297.471744 
L 63.605135 296.407296 
L 63.605135 295.342848 
L 66.236393 292.149504 
L 66.236393 291.085056 
L 73.413805 279.730944 
L 74.332198 278.31168 
L 74.332198 276.892416 
L 78.041119 271.21536 
L 78.97992 269.44128 
L 82.788167 263.764224 
L 83.753791 262.699776 
L 83.753791 261.635328 
L 86.672926 258.441984 
L 86.672926 257.377536 
L 89.62607 253.119744 
L 90.620095 252.232704 
L 92.62586 249.748992 
L 94.655719 247.974912 
L 94.655719 247.087872 
L 96.697843 245.313792 
L 96.697843 244.426752 
L 97.72199 243.894528 
L 98.746137 242.83008 
L 100.813242 241.410816 
L 101.856354 240.346368 
L 101.856354 239.636736 
L 102.905946 238.927104 
L 102.905946 238.217472 
L 105.005129 237.50784 
L 105.005129 236.798208 
L 106.06128 236.088576 
L 107.117432 235.024128 
L 107.117432 233.95968 
L 108.180225 232.895232 
L 113.562325 228.460032 
L 113.562325 227.572992 
L 115.749846 225.798912 
L 115.749846 224.911872 
L 116.847147 224.379648 
L 117.944447 223.3152 
L 121.279758 221.718528 
L 121.279758 221.186304 
L 122.40632 220.65408 
L 122.40632 220.121856 
L 123.532881 219.944448 
L 123.532881 220.121856 
L 124.651982 219.944448 
L 125.771083 220.121856 
L 126.897644 219.76704 
L 126.897644 219.76704 
L 126.897644 219.412224 
L 129.158328 219.412224 
L 129.158328 219.057408 
L 130.28489 218.347776 
L 130.28489 217.638144 
L 134.81392 213.380352 
L 138.286308 209.12256 
L 138.286308 207.703296 
L 140.633311 204.864768 
L 143.005048 202.735872 
L 146.626262 198.47808 
L 146.626262 197.058816 
L 147.850785 195.639552 
L 151.551301 192.446208 
L 154.064113 189.60768 
L 154.064113 188.188416 
L 155.334671 186.769152 
L 159.175368 183.575808 
L 161.785202 180.73728 
L 161.785202 179.672832 
L 167.09731 175.41504 
L 167.09731 173.995776 
L 168.449184 172.576512 
L 171.163834 170.447616 
L 172.537689 169.737984 
L 175.31937 167.609088 
L 175.31937 166.899456 
L 176.727572 166.189824 
L 176.727572 165.480192 
L 178.135773 164.77056 
L 179.543975 164.415744 
L 179.543975 163.706112 
L 180.964011 163.351296 
L 183.816116 161.932032 
L 183.816116 161.2224 
L 185.260426 160.512768 
L 185.260426 159.803136 
L 188.149045 158.383872 
L 189.605806 157.319424 
L 189.605806 156.609792 
L 191.075234 155.545344 
L 194.026979 154.12608 
L 195.522415 153.771264 
L 195.522415 153.061632 
L 197.031203 152.352 
L 197.031203 151.642368 
L 198.539991 150.932736 
L 198.539991 150.223104 
L 201.557566 148.80384 
L 203.079947 147.739392 
L 204.616167 147.02976 
L 206.166481 145.965312 
L 206.166481 144.900864 
L 209.295818 142.771968 
L 209.295818 141.70752 
L 210.87511 140.997888 
L 214.048593 138.868992 
L 215.657966 138.15936 
L 217.282815 137.094912 
L 217.282815 136.38528 
L 220.564062 134.966016 
L 220.564062 134.256384 
L 222.22077 133.901568 
L 222.22077 133.191936 
L 225.534186 132.482304 
L 227.207297 131.772672 
L 227.207297 131.417856 
L 228.89714 131.06304 
L 228.89714 130.708224 
L 232.276824 131.06304 
L 232.276824 130.708224 
L 233.983736 130.176 
L 233.983736 129.643776 
L 235.673578 129.466368 
L 237.346689 128.934144 
L 239.036531 128.047104 
L 240.743443 127.51488 
L 242.467772 126.450432 
L 242.467772 125.385984 
L 244.209877 124.321536 
L 245.951982 123.611904 
L 245.951982 122.902272 
L 247.712235 122.19264 
L 251.251268 120.063744 
L 251.251268 118.999296 
L 253.048973 117.580032 
L 258.500497 114.386688 
L 262.235069 111.54816 
L 262.235069 110.66112 
L 266.032468 108.88704 
L 269.89509 107.822592 
L 269.89509 106.935552 
L 273.802371 105.871104 
L 273.802371 105.33888 
L 275.767304 104.806656 
L 277.732237 103.742208 
L 277.732237 102.67776 
L 279.720286 102.145536 
L 281.708336 101.258496 
L 285.756008 100.548864 
L 287.816791 99.839232 
L 287.816791 99.1296 
L 289.903016 98.419968 
L 289.903016 98.065152 
L 293.999754 97.35552 
L 298.146762 96.291072 
L 298.146762 95.226624 
L 302.371368 93.80736 
L 302.371368 93.097728 
L 304.510408 92.388096 
L 306.649449 91.323648 
L 306.649449 90.2592 
L 308.815914 89.194752 
L 310.982378 87.775488 
L 315.400455 85.646592 
L 322.252001 81.3888 
L 322.252001 80.324352 
L 326.946008 78.195456 
L 331.740128 76.776192 
L 331.740128 75.711744 
L 336.638221 73.582848 
L 336.638221 72.873216 
L 339.123283 72.163584 
L 341.608345 71.099136 
L 346.690865 69.679872 
L 346.690865 68.615424 
L 351.89038 66.486528 
L 351.89038 65.42208 
L 354.530758 64.712448 
L 365.349211 60.454656 
L 365.349211 59.390208 
L 373.846159 56.196864 
L 373.846159 55.132416 
L 385.655412 51.584256 
L 388.727852 50.3424 
L 388.727852 49.100544 
L 398.058968 45.374976 
L 401.24735 44.487936 
L 407.810462 41.649408 
L 414.638805 39.875328 
L 414.638805 38.988288 
L 421.679814 37.214208 
L 421.679814 36.327168 
L 425.275223 35.440128 
L 432.391137 32.956416 
L 436.064707 32.069376 
L 443.660463 29.230848 
L 451.613763 27.101952 
L 451.613763 26.037504 
L 459.856896 23.908608 
L 459.856896 22.84416 
L 461.8 22.517765 
L 461.8 22.517765 
" clip-path="url(#p59edc3bd37)" style="fill: none; stroke-dasharray: 1.85,0.8; stroke-dashoffset: 0; stroke: #80ffb4; stroke-width: 0.5"/>
   </g>
   <g id="line2d_34">
    <path d="M 61.1712 299.768574 
L 61.864349 299.481862 
L 61.98388 298.966665 
L 63.596899 296.882551 
L 63.722534 296.137388 
L 65.326481 294.06705 
L 65.45209 293.439541 
L 66.2299 292.497764 
L 66.350014 291.982728 
L 67.084759 290.997431 
L 67.216771 290.466081 
L 71.535091 284.743101 
L 71.664096 284.220058 
L 73.381084 282.096787 
L 73.527178 281.197673 
L 74.316653 280.174516 
L 74.471409 279.501222 
L 76.92773 276.218869 
L 77.061771 275.706359 
L 80.62602 271.080079 
L 80.892783 270.16474 
L 81.545691 269.430845 
L 81.711758 268.989658 
L 83.023795 267.538585 
L 83.736437 266.789453 
L 83.917697 266.231872 
L 84.593139 265.5063 
L 84.780341 265.08471 
L 86.658246 263.141667 
L 86.79244 262.673814 
L 87.749312 261.710443 
L 88.451935 261.026051 
L 88.665898 260.560202 
L 89.098285 260.088102 
L 89.243747 259.591344 
L 89.389882 259.449994 
L 89.610349 258.982226 
L 90.055882 258.574935 
L 90.205766 258.202331 
L 91.586263 256.815012 
L 92.943693 255.294285 
L 93.106914 254.767479 
L 94.610242 253.113279 
L 94.781159 252.655249 
L 96.624148 250.91161 
L 96.804366 250.458389 
L 97.350028 249.955011 
L 97.533597 249.507704 
L 98.276393 248.800315 
L 98.464241 248.43591 
L 98.842543 248.070406 
L 99.033006 247.430275 
L 101.187047 245.395118 
L 101.287576 245.290423 
L 101.489329 244.713912 
L 101.793708 244.362192 
L 101.9978 243.906216 
L 102.823633 243.048463 
L 103.032481 242.609461 
L 104.956048 240.898464 
L 105.174743 240.468172 
L 105.948161 239.711309 
L 106.171437 239.116148 
L 106.961058 238.2232 
L 107.303384 237.127254 
L 108.579018 235.82901 
L 109.647031 234.872591 
L 109.88739 234.40774 
L 111.725817 232.729897 
L 111.975776 232.237756 
L 113.499957 230.653474 
L 113.758109 230.1172 
L 115.199402 228.63614 
L 115.732631 228.082241 
L 116.001093 227.535712 
L 118.19391 225.504007 
L 118.473739 224.777466 
L 118.754861 224.52001 
L 119.03728 223.90695 
L 120.759398 222.460747 
L 121.051075 222.258134 
L 121.344099 221.641084 
L 122.380379 220.925623 
L 122.679542 220.562425 
L 124.349803 219.473033 
L 124.658061 219.002804 
L 125.905393 218.168108 
L 126.062932 217.590486 
L 126.69673 217.193468 
L 127.015826 216.651613 
L 129.126175 215.556259 
L 129.45649 215.21384 
L 130.121704 214.800402 
L 130.288968 214.2075 
L 131.641039 212.975933 
L 131.982968 212.453746 
L 132.326476 212.17053 
L 132.498825 211.673716 
L 133.892001 210.503302 
L 134.244325 209.9669 
L 135.132271 209.209916 
L 135.490324 208.645587 
L 138.043417 206.183801 
L 138.228951 205.979149 
L 138.414913 205.310303 
L 139.728712 203.88278 
L 140.107991 203.269287 
L 142.030822 201.514371 
L 142.225552 201.361178 
L 142.616362 200.81766 
L 143.799653 199.781324 
L 144.397461 199.196937 
L 144.59765 198.647207 
L 146.420256 197.006019 
L 146.625111 196.847444 
L 147.036238 195.834632 
L 147.242513 195.326917 
L 150.608369 192.774375 
L 150.822882 192.256678 
L 151.902896 191.406311 
L 152.338396 190.956378 
L 153.878548 189.795407 
L 154.100604 189.155503 
L 154.323172 188.988823 
L 154.546254 188.580573 
L 155.669403 187.77533 
L 155.89559 186.894049 
L 159.586347 183.788397 
L 159.821568 183.219012 
L 161.722968 181.415704 
L 161.963116 180.837811 
L 163.659736 179.462307 
L 164.641588 178.803395 
L 164.888468 178.336574 
L 165.881694 177.673656 
L 166.131435 177.154429 
L 166.884116 176.721925 
L 167.136168 176.100686 
L 169.688884 174.521346 
L 170.206523 174.241945 
L 170.466238 173.806023 
L 171.248982 173.403472 
L 171.511101 172.934524 
L 173.629936 171.907589 
L 176.607835 170.165462 
L 177.157425 168.871597 
L 177.986574 168.307526 
L 178.264233 167.899963 
L 179.381286 167.407344 
L 179.662162 167.051474 
L 182.219372 165.868332 
L 182.506793 165.445008 
L 183.663122 164.589103 
L 183.953873 164.133586 
L 184.830156 163.533213 
L 185.712516 162.010518 
L 189.303575 159.842714 
L 189.607335 159.432265 
L 189.911796 159.258595 
L 190.216959 158.827956 
L 191.136677 158.190821 
L 191.444665 157.63575 
L 193.307568 156.458718 
L 193.620563 155.92685 
L 194.563886 155.425183 
L 194.879778 154.89283 
L 195.513751 154.536525 
L 195.831834 154.097173 
L 196.790492 153.485773 
L 197.11152 153.044539 
L 198.403053 152.095942 
L 198.7278 151.602106 
L 200.362805 150.313897 
L 200.692072 149.582397 
L 206.064827 145.267865 
L 206.407246 144.652807 
L 208.131219 143.350598 
L 208.478403 142.871336 
L 209.175176 142.402197 
L 209.524767 141.829626 
L 212.707602 139.995189 
L 213.065341 139.574615 
L 214.504567 138.871477 
L 214.86645 138.358665 
L 215.957116 137.863264 
L 216.688426 137.057365 
L 217.055346 136.911626 
L 217.423113 136.539417 
L 218.902681 135.96493 
L 219.274709 135.645693 
L 220.395947 135.28467 
L 220.771418 134.942598 
L 221.903036 134.579091 
L 222.661805 133.921676 
L 223.042502 133.799775 
L 223.424077 133.32301 
L 225.345196 132.608592 
L 225.732082 132.146869 
L 226.508534 131.787929 
L 227.288571 131.108193 
L 230.047179 129.904894 
L 230.44491 129.541805 
L 232.045028 129.03039 
L 232.850633 128.469782 
L 233.659959 127.991418 
L 234.066022 127.250649 
L 236.110431 126.266947 
L 236.93481 125.787185 
L 237.348427 125.192308 
L 240.270577 123.395616 
L 240.691887 122.800138 
L 242.386867 121.573924 
L 242.813058 120.907549 
L 250.654801 115.291496 
L 251.546348 113.938914 
L 253.341814 112.660136 
L 254.24577 112.087744 
L 254.699312 111.449298 
L 258.828556 109.010619 
L 262.099906 106.993154 
L 262.571563 106.05809 
L 263.518143 105.513837 
L 263.993071 104.769142 
L 266.384193 103.570569 
L 266.865731 103.001265 
L 269.778374 101.762532 
L 270.26774 101.254032 
L 273.227734 99.886689 
L 273.725056 99.289129 
L 274.223525 98.869868 
L 275.223915 98.372189 
L 275.725841 97.74874 
L 277.238576 96.894051 
L 277.745149 96.254647 
L 283.91593 93.436263 
L 285.485464 92.925532 
L 286.011057 92.503962 
L 287.595122 91.904771 
L 288.125581 91.473152 
L 289.72431 90.96304 
L 290.25968 90.457781 
L 290.796285 90.317318 
L 291.334127 89.822466 
L 292.955108 89.400397 
L 293.497929 88.90387 
L 297.885813 87.65392 
L 298.440006 87.121765 
L 298.995478 86.820805 
L 300.669592 86.309944 
L 301.792112 85.800558 
L 302.355315 85.599524 
L 303.485621 84.843737 
L 304.621146 84.437058 
L 305.761916 83.825666 
L 306.334275 83.588915 
L 306.907954 82.997345 
L 311.545275 81.014897 
L 312.130972 80.546014 
L 315.673634 79.085096 
L 316.268853 78.581311 
L 318.06276 77.845446 
L 318.66349 77.232682 
L 319.869108 76.561868 
L 321.080294 76.030086 
L 321.687983 75.537358 
L 322.297074 74.885249 
L 330.344275 71.45409 
L 331.603837 70.984215 
L 332.869215 69.751446 
L 336.058286 68.484354 
L 336.70052 68.016267 
L 339.284304 67.246036 
L 339.933978 66.796582 
L 340.585151 66.559133 
L 341.237826 66.097917 
L 344.52385 65.18517 
L 345.185609 64.79711 
L 346.513709 64.525221 
L 347.180058 63.944086 
L 351.210547 62.548637 
L 351.887728 62.32327 
L 352.566471 61.774271 
L 354.612107 61.188215 
L 355.297134 60.607747 
L 360.136762 59.134008 
L 361.533909 58.748108 
L 362.2349 58.309881 
L 365.055068 57.563148 
L 366.474928 56.605938 
L 367.901345 56.196616 
L 369.334349 55.314295 
L 370.773971 54.903198 
L 372.220241 53.83574 
L 373.67319 53.307959 
L 374.402179 52.709262 
L 378.811556 51.440638 
L 381.785184 50.519668 
L 386.297321 49.175344 
L 388.576885 48.399412 
L 389.340248 47.382396 
L 390.105371 47.15534 
L 390.872259 46.632839 
L 393.183552 45.94774 
L 393.957539 45.421832 
L 398.639096 44.132171 
L 401.004252 43.641588 
L 401.796277 43.1888 
L 404.18333 42.500499 
L 404.982687 41.906975 
L 413.898236 38.995738 
L 414.72 38.432868 
L 414.72 38.432868 
" clip-path="url(#p59edc3bd37)" style="fill: none; stroke-dasharray: 7.4,3.2; stroke-dashoffset: 0; stroke: #ffa500; stroke-width: 2"/>
   </g>
   <g id="line2d_35">
    <path d="M 59.870221 301.019904 
L 61.019774 298.891008 
L 61.019774 297.82656 
L 61.597498 296.762112 
L 63.339634 292.50432 
L 63.926385 290.73024 
L 66.906873 283.63392 
L 66.906873 282.569472 
L 69.339443 278.31168 
L 69.339443 276.892416 
L 70.570658 274.053888 
L 71.812058 271.924992 
L 72.437925 270.505728 
L 73.700189 268.376832 
L 73.700189 267.312384 
L 74.97314 265.183488 
L 74.97314 264.11904 
L 75.613231 263.054592 
L 76.897073 260.216064 
L 77.544522 259.151616 
L 78.195713 257.732352 
L 80.172182 255.071232 
L 80.172182 254.184192 
L 80.838787 253.297152 
L 80.838787 252.410112 
L 82.168074 250.636032 
L 82.834679 249.394176 
L 83.505251 248.507136 
L 85.541255 244.249344 
L 86.228183 243.184896 
L 86.228183 242.120448 
L 86.919325 241.056 
L 88.305875 239.636736 
L 88.305875 238.927104 
L 89.70533 236.798208 
L 89.70533 235.73376 
L 90.409431 235.024128 
L 92.535075 231.830784 
L 93.25263 230.41152 
L 93.25263 228.992256 
L 93.974785 227.572992 
L 95.423754 225.444096 
L 96.155287 224.734464 
L 97.632761 222.605568 
L 97.632761 221.54112 
L 98.378828 220.476672 
L 98.378828 219.412224 
L 99.870963 217.283328 
L 103.677261 210.187008 
L 105.236535 208.058112 
L 105.236535 207.34848 
L 106.812145 205.929216 
L 106.812145 205.5744 
L 107.605498 205.219584 
L 107.605498 204.509952 
L 109.192205 203.80032 
L 109.192205 203.445504 
L 109.991184 203.090688 
L 110.790164 202.381056 
L 110.790164 201.671424 
L 111.594851 200.961792 
L 111.594851 200.429568 
L 112.399538 199.897344 
L 113.204225 199.719936 
L 114.831049 198.655488 
L 114.831049 197.768448 
L 115.653357 196.881408 
L 115.653357 195.994368 
L 117.286055 194.220288 
L 118.936717 191.38176 
L 119.771207 189.60768 
L 124.038975 182.51136 
L 124.038975 181.092096 
L 124.912279 179.672832 
L 126.665708 177.543936 
L 127.552765 176.834304 
L 129.34811 174.705408 
L 129.34811 173.995776 
L 130.256628 173.286144 
L 130.256628 172.931328 
L 132.073662 172.221696 
L 132.073662 171.86688 
L 132.989566 171.512064 
L 132.989566 170.802432 
L 133.90547 170.0928 
L 134.821373 169.737984 
L 134.821373 169.028352 
L 137.599238 166.899456 
L 137.599238 166.189824 
L 138.538039 165.125376 
L 139.47684 164.415744 
L 139.47684 163.706112 
L 140.423531 163.351296 
L 142.324934 161.932032 
L 142.324934 161.2224 
L 143.287807 160.157952 
L 143.287807 159.093504 
L 145.213554 156.964608 
L 151.170294 148.449024 
L 152.194441 147.02976 
L 152.194441 145.610496 
L 153.227983 144.191232 
L 156.3575 140.997888 
L 157.420294 139.578624 
L 158.493209 138.514176 
L 158.493209 137.449728 
L 160.659674 135.320832 
L 161.753423 134.6112 
L 161.753423 133.901568 
L 162.857895 132.83712 
L 165.077774 131.417856 
L 165.077774 130.708224 
L 167.330897 129.28896 
L 167.330897 128.579328 
L 168.468838 127.869696 
L 169.606779 126.805248 
L 169.606779 125.7408 
L 170.756332 124.676352 
L 173.067288 121.837824 
L 174.24079 120.773376 
L 175.426644 119.354112 
L 177.83647 117.580032 
L 179.060993 117.047808 
L 179.060993 116.515584 
L 180.298973 115.98336 
L 180.298973 115.451136 
L 181.536953 114.918912 
L 181.536953 114.386688 
L 182.761476 113.499648 
L 183.985999 112.967424 
L 186.475714 110.838528 
L 187.741514 109.419264 
L 189.021697 108.532224 
L 189.021697 107.645184 
L 191.611494 105.871104 
L 192.921449 105.33888 
L 192.921449 104.806656 
L 196.882137 102.145536 
L 196.882137 101.258496 
L 199.564427 98.419968 
L 202.295585 96.291072 
L 206.520631 92.03328 
L 206.520631 90.968832 
L 212.354635 88.130304 
L 212.354635 86.001408 
L 215.339035 83.872512 
L 216.841117 83.16288 
L 218.363497 82.098432 
L 223.058107 79.437312 
L 223.058107 78.550272 
L 224.667481 77.663232 
L 224.667481 77.131008 
L 227.863561 76.06656 
L 231.105632 74.29248 
L 231.105632 72.873216 
L 234.419048 70.034688 
L 241.300819 65.776896 
L 243.089012 65.067264 
L 243.089012 64.357632 
L 244.906046 63.648 
L 244.906046 63.293184 
L 246.723081 62.938368 
L 246.723081 62.583552 
L 250.35715 61.87392 
L 250.35715 61.164288 
L 252.203973 60.454656 
L 254.050795 59.390208 
L 254.050795 58.680576 
L 261.657774 55.842048 
L 261.657774 55.132416 
L 263.634197 54.422784 
L 263.634197 53.713152 
L 267.587045 52.293888 
L 267.587045 51.22944 
L 269.598762 50.164992 
L 271.610479 48.745728 
L 280.03705 44.487936 
L 282.245994 43.423488 
L 282.245994 42.713856 
L 284.499117 42.004224 
L 284.499117 41.294592 
L 289.005363 39.875328 
L 289.005363 39.165696 
L 298.347516 36.327168 
L 298.347516 35.26272 
L 300.796562 34.553088 
L 300.796562 33.843456 
L 305.694656 33.133824 
L 308.198126 32.424192 
L 308.198126 31.71456 
L 310.758493 30.650112 
L 310.758493 29.585664 
L 315.879227 27.456768 
L 323.929138 23.198976 
L 332.598797 18.941184 
L 335.643557 17.876736 
L 335.643557 16.812288 
L 341.902233 14.683392 
L 345.12098 13.97376 
L 345.12098 13.264128 
L 348.434396 12.19968 
L 355.161635 10.780416 
L 355.161635 10.4256 
L 358.68214 9.715968 
L 362.202644 9.361152 
L 362.202644 9.006336 
L 365.836714 9.183744 
L 365.836714 9.006336 
L 369.470783 8.828928 
L 369.470783 8.65152 
L 373.104853 8.119296 
L 373.104853 7.587072 
L 380.259427 5.812992 
L 400.020278 -1 
L 400.020278 -1 
" clip-path="url(#p59edc3bd37)" style="fill: none; stroke-dasharray: 1.85,0.8; stroke-dashoffset: 0; stroke: #ff0000; stroke-width: 0.5"/>
   </g>
   <g id="line2d_36">
    <path d="M 59.870221 300.310272 
L 61.59458 296.05248 
L 66.326232 281.85984 
L 69.387721 274.76352 
L 69.387721 273.344256 
L 70.63254 270.505728 
L 71.887772 268.376832 
L 72.520671 266.957568 
L 73.797239 264.828672 
L 73.797239 263.764224 
L 74.440988 262.699776 
L 75.084737 261.990144 
L 75.084737 261.280512 
L 77.030827 259.151616 
L 77.030827 258.441984 
L 77.685805 257.377536 
L 78.340783 256.667904 
L 78.340783 255.958272 
L 80.321082 253.829376 
L 80.321082 253.119744 
L 80.987686 252.055296 
L 81.654291 251.345664 
L 81.654291 250.636032 
L 82.324863 249.9264 
L 83.670023 247.797504 
L 83.670023 246.733056 
L 86.397018 241.056 
L 89.895927 232.1856 
L 93.506997 225.08928 
L 93.506997 223.670016 
L 94.243312 222.250752 
L 97.973976 216.928512 
L 97.973976 215.864064 
L 99.496356 214.4448 
L 99.496356 213.735168 
L 100.262724 213.025536 
L 101.029093 211.961088 
L 101.029093 210.89664 
L 101.80071 209.832192 
L 102.572328 208.412928 
L 104.131601 206.284032 
L 106.511739 202.02624 
L 106.511739 200.606976 
L 109.747938 194.92992 
L 111.398599 191.38176 
L 114.774301 185.704704 
L 115.634272 184.640256 
L 115.634272 183.575808 
L 117.367444 181.446912 
L 118.240747 180.73728 
L 118.240747 180.027648 
L 120.000999 178.608384 
L 120.888056 178.253568 
L 120.888056 177.898752 
L 121.782152 177.18912 
L 121.782152 176.834304 
L 122.676249 176.479488 
L 122.676249 176.124672 
L 123.570345 175.41504 
L 124.464441 175.060224 
L 124.464441 174.350592 
L 125.365691 173.64096 
L 127.175457 171.512064 
L 127.175457 170.447616 
L 128.091361 169.028352 
L 130.861718 165.835008 
L 131.80052 164.415744 
L 132.74721 163.351296 
L 132.74721 162.286848 
L 135.619509 160.157952 
L 135.619509 159.44832 
L 136.590683 158.738688 
L 136.590683 158.029056 
L 138.53303 157.319424 
L 139.512649 156.609792 
L 139.512649 155.90016 
L 140.500861 154.835712 
L 140.500861 154.12608 
L 142.477285 152.706816 
L 144.4801 150.57792 
L 144.4801 149.158656 
L 145.495021 147.739392 
L 147.534088 145.610496 
L 148.56763 144.900864 
L 150.663604 142.771968 
L 150.663604 141.70752 
L 151.726398 140.643072 
L 151.726398 139.578624 
L 152.789192 138.514176 
L 156.008134 136.38528 
L 157.101883 135.320832 
L 158.206355 134.6112 
L 158.206355 133.191936 
L 160.426234 131.772672 
L 160.426234 131.06304 
L 161.541642 129.998592 
L 167.232508 122.902272 
L 170.790333 118.64448 
L 170.790333 117.225216 
L 175.675549 112.967424 
L 176.927284 111.54816 
L 176.927284 110.128896 
L 182.033965 105.871104 
L 183.34392 104.45184 
L 183.34392 103.032576 
L 185.994653 100.194048 
L 188.693101 98.065152 
L 192.865975 93.80736 
L 192.865975 92.388096 
L 194.292002 90.968832 
L 198.625406 87.775488 
L 201.609806 84.93696 
L 201.609806 83.872512 
L 206.197802 80.679168 
L 207.76247 79.969536 
L 207.76247 78.905088 
L 209.349177 77.84064 
L 212.545257 76.421376 
L 212.545257 75.711744 
L 215.810652 73.582848 
L 215.810652 72.873216 
L 217.467361 72.163584 
L 222.512415 68.97024 
L 222.512415 67.550976 
L 229.527204 63.293184 
L 231.344238 61.87392 
L 231.344238 60.454656 
L 238.824911 54.7776 
L 242.743682 51.939072 
L 248.889918 49.277952 
L 248.889918 48.390912 
L 251.015506 47.858688 
L 251.015506 47.326464 
L 255.227319 46.262016 
L 257.352906 45.374976 
L 257.352906 44.842752 
L 266.147903 40.58496 
L 266.147903 39.165696 
L 275.490055 33.48864 
L 283.002939 28.1664 
L 285.62285 26.39232 
L 291.05285 23.553792 
L 299.722509 20.360448 
L 299.722509 19.650816 
L 302.76727 18.941184 
L 302.76727 18.231552 
L 308.856791 16.812288 
L 308.856791 15.74784 
L 321.64763 11.490048 
L 328.581957 9.361152 
L 328.581957 8.296704 
L 335.850096 6.87744 
L 335.850096 6.167808 
L 339.605301 5.458176 
L 343.360506 4.393728 
L 343.360506 3.32928 
L 347.245201 2.619648 
L 351.129896 1.5552 
L 359.32578 0.135936 
L 363.658709 -1 
L 363.658709 -1 
" clip-path="url(#p59edc3bd37)" style="fill: none; stroke-dasharray: 1.85,0.8; stroke-dashoffset: 0; stroke: #ff0000; stroke-width: 0.5"/>
   </g>
   <g id="line2d_37">
    <path d="M 59.867333 301.019904 
L 61.013968 298.891008 
L 62.172394 296.05248 
L 62.172394 294.633216 
L 64.516388 290.375424 
L 65.109316 288.95616 
L 65.109316 287.891712 
L 65.70538 286.827264 
L 67.503118 284.698368 
L 67.503118 283.63392 
L 68.108797 282.569472 
L 68.108797 281.505024 
L 69.320153 280.08576 
L 71.156974 276.892416 
L 71.156974 275.827968 
L 72.394954 273.699072 
L 73.017364 272.98944 
L 73.017364 272.279808 
L 74.898463 270.150912 
L 74.898463 269.44128 
L 75.531362 268.376832 
L 75.531362 267.6672 
L 76.164262 266.957568 
L 76.797162 266.602752 
L 78.073729 265.183488 
L 78.073729 264.11904 
L 78.717478 263.054592 
L 78.717478 262.34496 
L 79.361228 261.635328 
L 80.004977 261.280512 
L 80.652426 260.57088 
L 81.303618 260.216064 
L 81.303618 259.506432 
L 81.958596 258.7968 
L 81.958596 258.441984 
L 85.237314 258.441984 
L 85.237314 258.087168 
L 85.892292 257.377536 
L 85.892292 256.667904 
L 87.202247 254.539008 
L 88.523738 251.70048 
L 92.583846 241.056 
L 96.082755 233.95968 
L 96.082755 232.895232 
L 96.795768 231.830784 
L 98.226337 230.41152 
L 98.948492 230.056704 
L 98.948492 229.347072 
L 99.675306 228.63744 
L 99.675306 227.927808 
L 100.40212 227.218176 
L 100.40212 226.508544 
L 103.323595 223.670016 
L 104.064754 222.605568 
L 104.064754 221.54112 
L 104.810822 220.476672 
L 104.810822 219.412224 
L 106.302956 217.99296 
L 107.810079 215.864064 
L 108.571269 214.4448 
L 108.571269 213.380352 
L 109.337637 212.315904 
L 111.652562 210.187008 
L 111.652562 209.12256 
L 112.434896 208.412928 
L 112.434896 207.703296 
L 114.78737 205.5744 
L 114.78737 204.864768 
L 117.173057 201.671424 
L 117.173057 200.961792 
L 120.409255 196.704 
L 120.409255 195.284736 
L 122.05387 193.15584 
L 123.716714 191.736576 
L 124.557432 190.672128 
L 124.557432 190.139904 
L 125.404471 189.60768 
L 125.404471 189.075456 
L 127.098548 188.011008 
L 127.098548 187.123968 
L 127.952004 186.236928 
L 128.799043 184.995072 
L 131.379055 182.156544 
L 132.252358 181.092096 
L 133.132484 180.382464 
L 133.132484 179.672832 
L 134.019541 179.318016 
L 134.019541 178.9632 
L 134.906597 178.608384 
L 134.906597 178.253568 
L 135.793653 177.543936 
L 135.793653 176.834304 
L 139.363112 172.576512 
L 141.187533 169.737984 
L 142.110944 168.850944 
L 142.110944 167.963904 
L 144.91183 165.302784 
L 144.91183 164.77056 
L 147.744012 162.10944 
L 148.698725 161.577216 
L 148.698725 160.512768 
L 149.661598 159.44832 
L 151.595645 158.029056 
L 151.595645 157.319424 
L 153.554883 155.190528 
L 153.554883 154.480896 
L 156.528263 152.352 
L 157.534122 151.997184 
L 157.534122 151.287552 
L 158.549042 150.57792 
L 158.549042 149.868288 
L 159.563962 149.158656 
L 159.563962 148.80384 
L 163.651492 145.965312 
L 163.651492 144.900864 
L 165.737717 143.4816 
L 165.737717 143.126784 
L 166.790579 142.771968 
L 167.84344 142.062336 
L 167.84344 141.70752 
L 168.906234 141.352704 
L 168.906234 140.997888 
L 169.969028 140.643072 
L 171.031822 140.643072 
L 171.031822 140.288256 
L 172.104737 140.288256 
L 172.104737 139.93344 
L 173.177653 139.93344 
L 173.177653 139.93344 
L 177.469316 138.514176 
L 177.469316 137.804544 
L 178.552548 137.449728 
L 178.552548 136.740096 
L 180.719013 136.030464 
L 181.812762 135.320832 
L 181.812762 134.6112 
L 182.917234 133.546752 
L 182.917234 132.482304 
L 185.126178 130.353408 
L 187.368147 127.51488 
L 189.65564 123.96672 
L 195.586226 116.8704 
L 195.586226 115.805952 
L 198.035273 113.677056 
L 200.524987 112.257792 
L 200.524987 111.193344 
L 203.056586 109.064448 
L 203.056586 108.354816 
L 204.33677 107.645184 
L 205.616953 106.580736 
L 208.221807 105.161472 
L 208.221807 104.097024 
L 209.547173 103.032576 
L 210.87254 102.322944 
L 210.87254 101.613312 
L 214.912132 99.484416 
L 214.912132 98.774784 
L 217.659843 96.645888 
L 217.659843 95.58144 
L 219.05066 94.516992 
L 224.720015 88.839936 
L 229.167482 84.582144 
L 230.689862 83.695104 
L 230.689862 82.808064 
L 235.341001 80.146944 
L 235.341001 79.259904 
L 236.927708 78.018048 
L 241.688456 75.356928 
L 244.977862 72.5184 
L 244.977862 71.099136 
L 246.659297 69.679872 
L 250.047644 67.550976 
L 251.780815 66.841344 
L 253.541068 65.776896 
L 255.329261 65.244672 
L 255.329261 64.712448 
L 257.146295 64.180224 
L 257.146295 63.648 
L 258.96333 63.470592 
L 258.96333 63.293184 
L 260.780365 62.76096 
L 262.568558 62.583552 
L 264.385592 62.051328 
L 264.385592 61.87392 
L 268.079237 60.454656 
L 268.079237 60.09984 
L 269.956839 59.745024 
L 269.956839 59.390208 
L 273.712044 58.680576 
L 273.712044 57.970944 
L 275.62147 57.261312 
L 275.62147 56.196864 
L 279.440323 54.7776 
L 283.359094 52.648704 
L 285.370811 51.22944 
L 285.370811 50.164992 
L 287.419105 49.100544 
L 293.679211 47.503872 
L 293.679211 46.616832 
L 295.845676 46.084608 
L 295.845676 45.552384 
L 300.137728 45.197568 
L 302.304192 44.665344 
L 302.304192 44.487936 
L 304.513137 43.778304 
L 304.513137 43.068672 
L 308.931025 41.649408 
L 308.931025 40.58496 
L 311.184148 39.520512 
L 318.083379 35.26272 
L 322.929365 32.424192 
L 330.613113 29.230848 
L 330.613113 28.1664 
L 333.295402 27.101952 
L 333.295402 26.39232 
L 338.659981 24.973056 
L 341.407692 23.908608 
L 344.224096 23.198976 
L 344.224096 22.134528 
L 347.112715 21.07008 
L 352.96597 19.650816 
L 352.96597 18.941184 
L 359.055491 17.52192 
L 359.055491 16.812288 
L 362.184829 16.457472 
L 365.314167 15.74784 
L 365.314167 15.393024 
L 368.532914 15.038208 
L 371.751661 14.328576 
L 371.751661 13.618944 
L 375.065077 12.909312 
L 375.065077 11.844864 
L 381.69191 9.715968 
L 388.626237 6.87744 
L 396.015512 3.32928 
L 399.900206 1.910016 
L 411.275708 -1 
L 411.275708 -1 
" clip-path="url(#p59edc3bd37)" style="fill: none; stroke-dasharray: 1.85,0.8; stroke-dashoffset: 0; stroke: #ff0000; stroke-width: 0.5"/>
   </g>
   <g id="line2d_38">
    <path d="M 61.1712 297.71496 
L 62.16949 295.237534 
L 62.286765 294.478148 
L 65.098515 287.461552 
L 65.237993 286.772993 
L 66.699495 283.584636 
L 66.89013 283.210778 
L 67.019433 282.625452 
L 67.486334 281.805879 
L 67.623936 281.186534 
L 68.096591 280.26754 
L 68.242687 279.65558 
L 69.323905 277.775912 
L 69.487083 276.487895 
L 72.601194 270.17214 
L 72.986199 269.594139 
L 73.128637 269.144182 
L 73.674624 268.328994 
L 73.860854 267.34205 
L 74.944323 265.580254 
L 75.104888 264.750825 
L 75.512836 264.146945 
L 75.678665 263.680363 
L 78.07356 260.046562 
L 78.215547 259.464541 
L 78.310752 259.334705 
L 78.454384 258.902521 
L 78.695988 258.57354 
L 78.842292 258.160711 
L 80.153522 256.740906 
L 80.362312 255.957984 
L 80.785709 255.414619 
L 80.946505 254.932824 
L 81.271451 254.607059 
L 81.435616 254.185931 
L 81.600919 253.994001 
L 81.767369 253.564249 
L 83.616291 251.532597 
L 83.796718 250.934667 
L 85.413772 248.500516 
L 86.193407 246.96467 
L 86.391706 246.26395 
L 88.451935 242.124149 
L 89.684178 239.388694 
L 89.906686 238.575651 
L 91.900892 234.605188 
L 93.188806 232.01936 
L 93.353159 231.219875 
L 93.43562 231.056428 
L 93.601113 230.25571 
L 94.781159 228.144271 
L 95.999886 226.244847 
L 96.17722 225.642534 
L 97.903284 222.971398 
L 98.089409 222.397662 
L 98.370209 222.108157 
L 98.55849 221.574452 
L 98.937665 221.214193 
L 99.128566 220.767157 
L 99.416573 220.446954 
L 99.706577 219.651883 
L 100.391099 218.792192 
L 100.588713 218.275363 
L 100.986683 217.712436 
L 101.187047 217.074773 
L 103.984294 212.990647 
L 104.198502 212.328895 
L 104.738358 211.502308 
L 104.956048 210.837684 
L 105.174743 210.538748 
L 105.394448 210.026093 
L 106.508288 208.645746 
L 106.734151 207.865332 
L 107.074904 207.32322 
L 107.532919 206.770726 
L 107.763515 206.25602 
L 108.46171 205.316036 
L 108.696595 204.662982 
L 110.73742 202.083148 
L 110.982814 201.52417 
L 111.601269 200.565416 
L 111.850653 199.938728 
L 112.35288 199.391932 
L 112.605735 198.91121 
L 114.277994 197.19311 
L 114.671065 196.77178 
L 115.066861 195.782143 
L 115.598862 195.13342 
L 115.866707 194.156486 
L 117.087399 192.670862 
L 117.362118 192.08472 
L 118.19391 191.013728 
L 118.473739 190.418676 
L 120.324395 187.989162 
L 120.614063 187.189205 
L 121.197418 186.375029 
L 123.737533 183.354654 
L 123.890072 183.186824 
L 124.196206 182.377574 
L 124.349803 182.209225 
L 124.658061 181.453597 
L 127.015826 179.008642 
L 127.175926 178.208735 
L 128.633546 176.395102 
L 130.624653 173.992278 
L 131.982968 172.629389 
L 132.326476 172.208547 
L 132.671571 171.941896 
L 133.192203 170.750154 
L 134.775865 169.732001 
L 134.953863 169.263607 
L 135.490324 168.851342 
L 136.030504 167.932414 
L 136.574432 167.443031 
L 136.939144 166.921354 
L 137.489373 166.494465 
L 137.85831 165.940506 
L 139.351177 164.609367 
L 139.539727 163.951381 
L 140.489022 162.99035 
L 140.871812 162.367396 
L 141.836539 161.525509 
L 142.030822 161.368658 
L 142.420732 160.510893 
L 143.205963 159.699292 
L 143.403404 159.138747 
L 144.397461 158.106986 
L 144.59765 157.413134 
L 144.7983 157.182469 
L 145.200991 156.542892 
L 147.036238 154.404079 
L 148.281047 153.143864 
L 148.490193 152.957887 
L 148.909933 152.153153 
L 150.608369 150.271062 
L 150.822882 149.692183 
L 151.469397 149.018768 
L 152.5569 146.711508 
L 154.323172 144.828655 
L 157.49357 142.195528 
L 157.723964 141.784435 
L 158.186347 141.424729 
L 158.650865 140.000345 
L 160.293638 138.610679 
L 160.530489 138.17979 
L 161.722968 137.231302 
L 162.203819 136.528472 
L 163.415683 135.409847 
L 163.659736 134.844437 
L 164.888468 133.793235 
L 165.135917 133.346248 
L 167.136168 131.656888 
L 167.388802 131.208409 
L 168.660736 130.101 
L 169.173626 129.561116 
L 169.430958 129.34958 
L 169.688884 128.783407 
L 170.726551 128.022337 
L 170.987466 127.362017 
L 171.511101 126.874871 
L 174.43462 124.697862 
L 176.882314 122.86206 
L 177.157425 122.209986 
L 177.433172 122.034988 
L 177.709554 121.623295 
L 178.542532 121.165582 
L 179.101057 120.453232 
L 180.225857 119.856356 
L 180.508681 119.529151 
L 181.361071 119.010888 
L 182.506793 117.66176 
L 182.794877 117.398834 
L 183.663122 115.853988 
L 184.830156 114.773781 
L 186.898523 112.649213 
L 189.000514 110.424081 
L 189.303575 109.798882 
L 190.829398 108.269076 
L 192.683737 106.575017 
L 192.995293 105.647435 
L 195.513751 103.357963 
L 195.831834 102.753815 
L 196.790492 102.026657 
L 197.11152 101.457731 
L 200.034296 99.00466 
L 200.362805 98.752931 
L 200.692072 98.130852 
L 201.352887 97.566106 
L 201.684437 96.934414 
L 203.018304 95.845967 
L 203.353696 95.351542 
L 206.407246 92.959315 
L 206.750453 92.414663 
L 207.439246 92.073007 
L 207.784834 91.545322 
L 208.131219 91.348586 
L 208.478403 90.774222 
L 210.226372 89.756828 
L 210.578388 89.584611 
L 210.931216 89.1757 
L 212.350686 88.490184 
L 212.707602 87.333173 
L 214.86645 85.972867 
L 215.229168 85.480835 
L 215.592723 85.241687 
L 215.957116 84.785377 
L 217.423113 83.922596 
L 217.791728 83.311297 
L 222.281983 80.077783 
L 222.661805 79.329426 
L 223.042502 79.05425 
L 223.424077 78.484343 
L 224.574092 77.660936 
L 224.9592 77.230234 
L 230.44491 73.688551 
L 230.843558 73.13986 
L 231.643615 71.63226 
L 235.28984 69.028349 
L 235.699663 68.43969 
L 238.178524 66.748284 
L 242.813058 63.821532 
L 243.240232 63.342236 
L 244.958803 62.260518 
L 245.390926 61.575262 
L 248.883982 59.906237 
L 249.325158 59.452966 
L 250.210565 59.149017 
L 251.100061 58.434731 
L 252.891395 57.694991 
L 253.793271 57.289443 
L 254.24577 56.895487 
L 255.1539 56.613758 
L 255.609537 56.274773 
L 256.982763 55.776672 
L 257.442618 55.272131 
L 259.75785 54.419258 
L 261.629334 53.756929 
L 262.099906 53.37268 
L 263.518143 52.866922 
L 263.993071 52.45119 
L 265.424438 51.823955 
L 265.903762 51.629713 
L 266.384193 50.950523 
L 267.34838 50.513231 
L 267.832142 49.925116 
L 268.803016 49.35859 
L 269.778374 48.913863 
L 270.758236 48.301862 
L 275.223915 45.97933 
L 275.725841 45.367506 
L 281.840019 42.019381 
L 282.357205 41.493651 
L 284.437903 40.368606 
L 285.485464 39.191566 
L 288.125581 38.04582 
L 288.657264 37.851654 
L 289.190172 37.42164 
L 292.955108 36.155535 
L 293.497929 35.985996 
L 294.042002 35.522421 
L 295.681762 35.021464 
L 296.230873 34.697917 
L 297.885813 34.289697 
L 298.440006 33.798704 
L 299.552231 33.527222 
L 300.110268 33.17075 
L 300.669592 33.028956 
L 301.230205 32.669746 
L 302.355315 32.375445 
L 302.919817 32.007334 
L 304.05273 31.74329 
L 304.621146 31.374267 
L 308.059284 30.463722 
L 308.636941 30.046513 
L 309.215931 29.122486 
L 310.37792 28.646719 
L 310.960925 28.053197 
L 316.268853 25.614401 
L 323.519473 22.16342 
L 328.465781 20.144693 
L 329.090504 19.558145 
L 330.344275 19.10438 
L 330.973331 18.524177 
L 332.869215 17.859083 
L 333.504094 17.43245 
L 335.41753 16.916183 
L 336.058286 16.153683 
L 340.585151 14.846361 
L 342.547695 14.262194 
L 343.204896 14.096603 
L 345.185609 12.673153 
L 349.860855 11.397355 
L 352.566471 10.78938 
L 353.246779 10.41201 
L 354.612107 10.131066 
L 355.297134 9.872422 
L 358.746038 9.179369 
L 359.440599 8.838626 
L 361.533909 8.517768 
L 362.2349 8.291765 
L 363.641736 8.093113 
L 364.347588 7.640797 
L 365.76418 7.344438 
L 367.187315 7.100156 
L 367.901345 7.006078 
L 368.617021 6.684014 
L 370.773971 6.275629 
L 371.496273 6.149371 
L 372.220241 5.787261 
L 372.945879 5.661943 
L 373.67319 5.340432 
L 374.402179 5.19081 
L 375.132849 4.683608 
L 380.294945 3.357451 
L 385.54096 1.699785 
L 386.297321 1.459978 
L 387.055426 0.740827 
L 390.872259 -0.646345 
L 391.814197 -1 
L 391.814197 -1 
" clip-path="url(#p59edc3bd37)" style="fill: none; stroke-dasharray: 7.4,3.2; stroke-dashoffset: 0; stroke: #ffa500; stroke-width: 2"/>
   </g>
   <g id="patch_3">
    <path d="M 57.6 307.584 
L 57.6 41.472 
" style="fill: none; stroke: #000000; stroke-width: 0.8; stroke-linejoin: miter; stroke-linecap: square"/>
   </g>
   <g id="patch_4">
    <path d="M 414.72 307.584 
L 414.72 41.472 
" style="fill: none; stroke: #000000; stroke-width: 0.8; stroke-linejoin: miter; stroke-linecap: square"/>
   </g>
   <g id="patch_5">
    <path d="M 57.6 307.584 
L 414.72 307.584 
" style="fill: none; stroke: #000000; stroke-width: 0.8; stroke-linejoin: miter; stroke-linecap: square"/>
   </g>
   <g id="patch_6">
    <path d="M 57.6 41.472 
L 414.72 41.472 
" style="fill: none; stroke: #000000; stroke-width: 0.8; stroke-linejoin: miter; stroke-linecap: square"/>
   </g>
   <g id="legend_1">
    <g id="patch_7">
     <path d="M 314.584 120.95195 
L 491.432437 120.95195 
Q 493.432437 120.95195 493.432437 118.95195 
L 493.432437 75.0832 
Q 493.432437 73.0832 491.432437 73.0832 
L 314.584 73.0832 
Q 312.584 73.0832 312.584 75.0832 
L 312.584 118.95195 
Q 312.584 120.95195 314.584 120.95195 
z
" style="fill: #ffffff; opacity: 0.8; stroke: #cccccc; stroke-linejoin: miter"/>
    </g>
    <g id="line2d_39">
     <path d="M 316.584 81.181637 
L 326.584 81.181637 
L 336.584 81.181637 
" style="fill: none; stroke-dasharray: 7.4,3.2; stroke-dashoffset: 0; stroke: #ffa500; stroke-width: 2"/>
    </g>
    <g id="text_16">
     <!-- Mean: N_e = [200], 1.000 kA -->
     <g transform="translate(344.584 84.681637) scale(0.1 -0.1)">
      <defs>
       <path id="DejaVuSans-4d" d="M 628 4666 
L 1569 4666 
L 2759 1491 
L 3956 4666 
L 4897 4666 
L 4897 0 
L 4281 0 
L 4281 4097 
L 3078 897 
L 2444 897 
L 1241 4097 
L 1241 0 
L 628 0 
L 628 4666 
z
" transform="scale(0.015625)"/>
       <path id="DejaVuSans-3a" d="M 750 794 
L 1409 794 
L 1409 0 
L 750 0 
L 750 794 
z
M 750 3309 
L 1409 3309 
L 1409 2516 
L 750 2516 
L 750 3309 
z
" transform="scale(0.015625)"/>
       <path id="DejaVuSans-4e" d="M 628 4666 
L 1478 4666 
L 3547 763 
L 3547 4666 
L 4159 4666 
L 4159 0 
L 3309 0 
L 1241 3903 
L 1241 0 
L 628 0 
L 628 4666 
z
" transform="scale(0.015625)"/>
       <path id="DejaVuSans-5f" d="M 3263 -1063 
L 3263 -1509 
L -63 -1509 
L -63 -1063 
L 3263 -1063 
z
" transform="scale(0.015625)"/>
       <path id="DejaVuSans-3d" d="M 678 2906 
L 4684 2906 
L 4684 2381 
L 678 2381 
L 678 2906 
z
M 678 1631 
L 4684 1631 
L 4684 1100 
L 678 1100 
L 678 1631 
z
" transform="scale(0.015625)"/>
       <path id="DejaVuSans-5b" d="M 550 4863 
L 1875 4863 
L 1875 4416 
L 1125 4416 
L 1125 -397 
L 1875 -397 
L 1875 -844 
L 550 -844 
L 550 4863 
z
" transform="scale(0.015625)"/>
       <path id="DejaVuSans-5d" d="M 1947 4863 
L 1947 -844 
L 622 -844 
L 622 -397 
L 1369 -397 
L 1369 4416 
L 622 4416 
L 622 4863 
L 1947 4863 
z
" transform="scale(0.015625)"/>
       <path id="DejaVuSans-2c" d="M 750 794 
L 1409 794 
L 1409 256 
L 897 -744 
L 494 -744 
L 750 256 
L 750 794 
z
" transform="scale(0.015625)"/>
       <path id="DejaVuSans-6b" d="M 581 4863 
L 1159 4863 
L 1159 1991 
L 2875 3500 
L 3609 3500 
L 1753 1863 
L 3688 0 
L 2938 0 
L 1159 1709 
L 1159 0 
L 581 0 
L 581 4863 
z
" transform="scale(0.015625)"/>
       <path id="DejaVuSans-41" d="M 2188 4044 
L 1331 1722 
L 3047 1722 
L 2188 4044 
z
M 1831 4666 
L 2547 4666 
L 4325 0 
L 3669 0 
L 3244 1197 
L 1141 1197 
L 716 0 
L 50 0 
L 1831 4666 
z
" transform="scale(0.015625)"/>
      </defs>
      <use xlink:href="#DejaVuSans-4d"/>
      <use xlink:href="#DejaVuSans-65" transform="translate(86.279297 0)"/>
      <use xlink:href="#DejaVuSans-61" transform="translate(147.802734 0)"/>
      <use xlink:href="#DejaVuSans-6e" transform="translate(209.082031 0)"/>
      <use xlink:href="#DejaVuSans-3a" transform="translate(272.460938 0)"/>
      <use xlink:href="#DejaVuSans-20" transform="translate(306.152344 0)"/>
      <use xlink:href="#DejaVuSans-4e" transform="translate(337.939453 0)"/>
      <use xlink:href="#DejaVuSans-5f" transform="translate(412.744141 0)"/>
      <use xlink:href="#DejaVuSans-65" transform="translate(462.744141 0)"/>
      <use xlink:href="#DejaVuSans-20" transform="translate(524.267578 0)"/>
      <use xlink:href="#DejaVuSans-3d" transform="translate(556.054688 0)"/>
      <use xlink:href="#DejaVuSans-20" transform="translate(639.84375 0)"/>
      <use xlink:href="#DejaVuSans-5b" transform="translate(671.630859 0)"/>
      <use xlink:href="#DejaVuSans-32" transform="translate(710.644531 0)"/>
      <use xlink:href="#DejaVuSans-30" transform="translate(774.267578 0)"/>
      <use xlink:href="#DejaVuSans-30" transform="translate(837.890625 0)"/>
      <use xlink:href="#DejaVuSans-5d" transform="translate(901.513672 0)"/>
      <use xlink:href="#DejaVuSans-2c" transform="translate(940.527344 0)"/>
      <use xlink:href="#DejaVuSans-20" transform="translate(972.314453 0)"/>
      <use xlink:href="#DejaVuSans-31" transform="translate(1004.101562 0)"/>
      <use xlink:href="#DejaVuSans-2e" transform="translate(1067.724609 0)"/>
      <use xlink:href="#DejaVuSans-30" transform="translate(1099.511719 0)"/>
      <use xlink:href="#DejaVuSans-30" transform="translate(1163.134766 0)"/>
      <use xlink:href="#DejaVuSans-30" transform="translate(1226.757812 0)"/>
      <use xlink:href="#DejaVuSans-20" transform="translate(1290.380859 0)"/>
      <use xlink:href="#DejaVuSans-6b" transform="translate(1322.167969 0)"/>
      <use xlink:href="#DejaVuSans-41" transform="translate(1380.078125 0)"/>
     </g>
    </g>
    <g id="line2d_40">
     <path d="M 316.584 96.137887 
L 326.584 96.137887 
L 336.584 96.137887 
" style="fill: none; stroke-dasharray: 7.4,3.2; stroke-dashoffset: 0; stroke: #ffa500; stroke-width: 2"/>
    </g>
    <g id="text_17">
     <!-- Mean: N_e = [200], 1.999 kA -->
     <g transform="translate(344.584 99.637887) scale(0.1 -0.1)">
      <defs>
       <path id="DejaVuSans-39" d="M 703 97 
L 703 672 
Q 941 559 1184 500 
Q 1428 441 1663 441 
Q 2288 441 2617 861 
Q 2947 1281 2994 2138 
Q 2813 1869 2534 1725 
Q 2256 1581 1919 1581 
Q 1219 1581 811 2004 
Q 403 2428 403 3163 
Q 403 3881 828 4315 
Q 1253 4750 1959 4750 
Q 2769 4750 3195 4129 
Q 3622 3509 3622 2328 
Q 3622 1225 3098 567 
Q 2575 -91 1691 -91 
Q 1453 -91 1209 -44 
Q 966 3 703 97 
z
M 1959 2075 
Q 2384 2075 2632 2365 
Q 2881 2656 2881 3163 
Q 2881 3666 2632 3958 
Q 2384 4250 1959 4250 
Q 1534 4250 1286 3958 
Q 1038 3666 1038 3163 
Q 1038 2656 1286 2365 
Q 1534 2075 1959 2075 
z
" transform="scale(0.015625)"/>
      </defs>
      <use xlink:href="#DejaVuSans-4d"/>
      <use xlink:href="#DejaVuSans-65" transform="translate(86.279297 0)"/>
      <use xlink:href="#DejaVuSans-61" transform="translate(147.802734 0)"/>
      <use xlink:href="#DejaVuSans-6e" transform="translate(209.082031 0)"/>
      <use xlink:href="#DejaVuSans-3a" transform="translate(272.460938 0)"/>
      <use xlink:href="#DejaVuSans-20" transform="translate(306.152344 0)"/>
      <use xlink:href="#DejaVuSans-4e" transform="translate(337.939453 0)"/>
      <use xlink:href="#DejaVuSans-5f" transform="translate(412.744141 0)"/>
      <use xlink:href="#DejaVuSans-65" transform="translate(462.744141 0)"/>
      <use xlink:href="#DejaVuSans-20" transform="translate(524.267578 0)"/>
      <use xlink:href="#DejaVuSans-3d" transform="translate(556.054688 0)"/>
      <use xlink:href="#DejaVuSans-20" transform="translate(639.84375 0)"/>
      <use xlink:href="#DejaVuSans-5b" transform="translate(671.630859 0)"/>
      <use xlink:href="#DejaVuSans-32" transform="translate(710.644531 0)"/>
      <use xlink:href="#DejaVuSans-30" transform="translate(774.267578 0)"/>
      <use xlink:href="#DejaVuSans-30" transform="translate(837.890625 0)"/>
      <use xlink:href="#DejaVuSans-5d" transform="translate(901.513672 0)"/>
      <use xlink:href="#DejaVuSans-2c" transform="translate(940.527344 0)"/>
      <use xlink:href="#DejaVuSans-20" transform="translate(972.314453 0)"/>
      <use xlink:href="#DejaVuSans-31" transform="translate(1004.101562 0)"/>
      <use xlink:href="#DejaVuSans-2e" transform="translate(1067.724609 0)"/>
      <use xlink:href="#DejaVuSans-39" transform="translate(1099.511719 0)"/>
      <use xlink:href="#DejaVuSans-39" transform="translate(1163.134766 0)"/>
      <use xlink:href="#DejaVuSans-39" transform="translate(1226.757812 0)"/>
      <use xlink:href="#DejaVuSans-20" transform="translate(1290.380859 0)"/>
      <use xlink:href="#DejaVuSans-6b" transform="translate(1322.167969 0)"/>
      <use xlink:href="#DejaVuSans-41" transform="translate(1380.078125 0)"/>
     </g>
    </g>
    <g id="line2d_41">
     <path d="M 316.584 111.094137 
L 326.584 111.094137 
L 336.584 111.094137 
" style="fill: none; stroke-dasharray: 7.4,3.2; stroke-dashoffset: 0; stroke: #ffa500; stroke-width: 2"/>
    </g>
    <g id="text_18">
     <!-- Mean: N_e = [200], 2.999 kA -->
     <g transform="translate(344.584 114.594137) scale(0.1 -0.1)">
      <use xlink:href="#DejaVuSans-4d"/>
      <use xlink:href="#DejaVuSans-65" transform="translate(86.279297 0)"/>
      <use xlink:href="#DejaVuSans-61" transform="translate(147.802734 0)"/>
      <use xlink:href="#DejaVuSans-6e" transform="translate(209.082031 0)"/>
      <use xlink:href="#DejaVuSans-3a" transform="translate(272.460938 0)"/>
      <use xlink:href="#DejaVuSans-20" transform="translate(306.152344 0)"/>
      <use xlink:href="#DejaVuSans-4e" transform="translate(337.939453 0)"/>
      <use xlink:href="#DejaVuSans-5f" transform="translate(412.744141 0)"/>
      <use xlink:href="#DejaVuSans-65" transform="translate(462.744141 0)"/>
      <use xlink:href="#DejaVuSans-20" transform="translate(524.267578 0)"/>
      <use xlink:href="#DejaVuSans-3d" transform="translate(556.054688 0)"/>
      <use xlink:href="#DejaVuSans-20" transform="translate(639.84375 0)"/>
      <use xlink:href="#DejaVuSans-5b" transform="translate(671.630859 0)"/>
      <use xlink:href="#DejaVuSans-32" transform="translate(710.644531 0)"/>
      <use xlink:href="#DejaVuSans-30" transform="translate(774.267578 0)"/>
      <use xlink:href="#DejaVuSans-30" transform="translate(837.890625 0)"/>
      <use xlink:href="#DejaVuSans-5d" transform="translate(901.513672 0)"/>
      <use xlink:href="#DejaVuSans-2c" transform="translate(940.527344 0)"/>
      <use xlink:href="#DejaVuSans-20" transform="translate(972.314453 0)"/>
      <use xlink:href="#DejaVuSans-32" transform="translate(1004.101562 0)"/>
      <use xlink:href="#DejaVuSans-2e" transform="translate(1067.724609 0)"/>
      <use xlink:href="#DejaVuSans-39" transform="translate(1099.511719 0)"/>
      <use xlink:href="#DejaVuSans-39" transform="translate(1163.134766 0)"/>
      <use xlink:href="#DejaVuSans-39" transform="translate(1226.757812 0)"/>
      <use xlink:href="#DejaVuSans-20" transform="translate(1290.380859 0)"/>
      <use xlink:href="#DejaVuSans-6b" transform="translate(1322.167969 0)"/>
      <use xlink:href="#DejaVuSans-41" transform="translate(1380.078125 0)"/>
     </g>
    </g>
   </g>
  </g>
 </g>
 <defs>
  <clipPath id="p59edc3bd37">
   <rect x="57.6" y="41.472" width="357.12" height="266.112"/>
  </clipPath>
 </defs>
</svg>
