<?xml version="1.0" encoding="utf-8" standalone="no"?>
<!DOCTYPE svg PUBLIC "-//W3C//DTD SVG 1.1//EN"
  "http://www.w3.org/Graphics/SVG/1.1/DTD/svg11.dtd">
<svg xmlns:xlink="http://www.w3.org/1999/xlink" width="460.8pt" height="345.6pt" viewBox="0 0 460.8 345.6" xmlns="http://www.w3.org/2000/svg" version="1.1">
 <metadata>
  <rdf:RDF xmlns:dc="http://purl.org/dc/elements/1.1/" xmlns:cc="http://creativecommons.org/ns#" xmlns:rdf="http://www.w3.org/1999/02/22-rdf-syntax-ns#">
   <cc:Work>
    <dc:type rdf:resource="http://purl.org/dc/dcmitype/StillImage"/>
    <dc:date>2025-03-23T16:16:28.489764</dc:date>
    <dc:format>image/svg+xml</dc:format>
    <dc:creator>
     <cc:Agent>
      <dc:title>Matplotlib v3.10.0, https://matplotlib.org/</dc:title>
     </cc:Agent>
    </dc:creator>
   </cc:Work>
  </rdf:RDF>
 </metadata>
 <defs>
  <style type="text/css">*{stroke-linejoin: round; stroke-linecap: butt}</style>
 </defs>
 <g id="figure_1">
  <g id="patch_1">
   <path d="M 0 345.6 
L 460.8 345.6 
L 460.8 0 
L 0 0 
z
" style="fill: #ffffff"/>
  </g>
  <g id="axes_1">
   <g id="patch_2">
    <path d="M 57.6 307.584 
L 414.72 307.584 
L 414.72 41.472 
L 57.6 41.472 
z
" style="fill: #ffffff"/>
   </g>
   <g id="matplotlib.axis_1">
    <g id="xtick_1">
     <g id="line2d_1">
      <defs>
       <path id="m6a657c2f6f" d="M 0 0 
L 0 3.5 
" style="stroke: #000000; stroke-width: 0.8"/>
      </defs>
      <g>
       <use xlink:href="#m6a657c2f6f" x="63.159153" y="307.584" style="stroke: #000000; stroke-width: 0.8"/>
      </g>
     </g>
     <g id="text_1">
      <!-- 0 -->
      <g transform="translate(59.977903 322.182437) scale(0.1 -0.1)">
       <defs>
        <path id="DejaVuSans-30" d="M 2034 4250 
Q 1547 4250 1301 3770 
Q 1056 3291 1056 2328 
Q 1056 1369 1301 889 
Q 1547 409 2034 409 
Q 2525 409 2770 889 
Q 3016 1369 3016 2328 
Q 3016 3291 2770 3770 
Q 2525 4250 2034 4250 
z
M 2034 4750 
Q 2819 4750 3233 4129 
Q 3647 3509 3647 2328 
Q 3647 1150 3233 529 
Q 2819 -91 2034 -91 
Q 1250 -91 836 529 
Q 422 1150 422 2328 
Q 422 3509 836 4129 
Q 1250 4750 2034 4750 
z
" transform="scale(0.015625)"/>
       </defs>
       <use xlink:href="#DejaVuSans-30"/>
      </g>
     </g>
    </g>
    <g id="xtick_2">
     <g id="line2d_2">
      <g>
       <use xlink:href="#m6a657c2f6f" x="107.632379" y="307.584" style="stroke: #000000; stroke-width: 0.8"/>
      </g>
     </g>
     <g id="text_2">
      <!-- 100 -->
      <g transform="translate(98.088629 322.182437) scale(0.1 -0.1)">
       <defs>
        <path id="DejaVuSans-31" d="M 794 531 
L 1825 531 
L 1825 4091 
L 703 3866 
L 703 4441 
L 1819 4666 
L 2450 4666 
L 2450 531 
L 3481 531 
L 3481 0 
L 794 0 
L 794 531 
z
" transform="scale(0.015625)"/>
       </defs>
       <use xlink:href="#DejaVuSans-31"/>
       <use xlink:href="#DejaVuSans-30" transform="translate(63.623047 0)"/>
       <use xlink:href="#DejaVuSans-30" transform="translate(127.246094 0)"/>
      </g>
     </g>
    </g>
    <g id="xtick_3">
     <g id="line2d_3">
      <g>
       <use xlink:href="#m6a657c2f6f" x="152.105604" y="307.584" style="stroke: #000000; stroke-width: 0.8"/>
      </g>
     </g>
     <g id="text_3">
      <!-- 200 -->
      <g transform="translate(142.561854 322.182437) scale(0.1 -0.1)">
       <defs>
        <path id="DejaVuSans-32" d="M 1228 531 
L 3431 531 
L 3431 0 
L 469 0 
L 469 531 
Q 828 903 1448 1529 
Q 2069 2156 2228 2338 
Q 2531 2678 2651 2914 
Q 2772 3150 2772 3378 
Q 2772 3750 2511 3984 
Q 2250 4219 1831 4219 
Q 1534 4219 1204 4116 
Q 875 4013 500 3803 
L 500 4441 
Q 881 4594 1212 4672 
Q 1544 4750 1819 4750 
Q 2544 4750 2975 4387 
Q 3406 4025 3406 3419 
Q 3406 3131 3298 2873 
Q 3191 2616 2906 2266 
Q 2828 2175 2409 1742 
Q 1991 1309 1228 531 
z
" transform="scale(0.015625)"/>
       </defs>
       <use xlink:href="#DejaVuSans-32"/>
       <use xlink:href="#DejaVuSans-30" transform="translate(63.623047 0)"/>
       <use xlink:href="#DejaVuSans-30" transform="translate(127.246094 0)"/>
      </g>
     </g>
    </g>
    <g id="xtick_4">
     <g id="line2d_4">
      <g>
       <use xlink:href="#m6a657c2f6f" x="196.578829" y="307.584" style="stroke: #000000; stroke-width: 0.8"/>
      </g>
     </g>
     <g id="text_4">
      <!-- 300 -->
      <g transform="translate(187.035079 322.182437) scale(0.1 -0.1)">
       <defs>
        <path id="DejaVuSans-33" d="M 2597 2516 
Q 3050 2419 3304 2112 
Q 3559 1806 3559 1356 
Q 3559 666 3084 287 
Q 2609 -91 1734 -91 
Q 1441 -91 1130 -33 
Q 819 25 488 141 
L 488 750 
Q 750 597 1062 519 
Q 1375 441 1716 441 
Q 2309 441 2620 675 
Q 2931 909 2931 1356 
Q 2931 1769 2642 2001 
Q 2353 2234 1838 2234 
L 1294 2234 
L 1294 2753 
L 1863 2753 
Q 2328 2753 2575 2939 
Q 2822 3125 2822 3475 
Q 2822 3834 2567 4026 
Q 2313 4219 1838 4219 
Q 1578 4219 1281 4162 
Q 984 4106 628 3988 
L 628 4550 
Q 988 4650 1302 4700 
Q 1616 4750 1894 4750 
Q 2613 4750 3031 4423 
Q 3450 4097 3450 3541 
Q 3450 3153 3228 2886 
Q 3006 2619 2597 2516 
z
" transform="scale(0.015625)"/>
       </defs>
       <use xlink:href="#DejaVuSans-33"/>
       <use xlink:href="#DejaVuSans-30" transform="translate(63.623047 0)"/>
       <use xlink:href="#DejaVuSans-30" transform="translate(127.246094 0)"/>
      </g>
     </g>
    </g>
    <g id="xtick_5">
     <g id="line2d_5">
      <g>
       <use xlink:href="#m6a657c2f6f" x="241.052055" y="307.584" style="stroke: #000000; stroke-width: 0.8"/>
      </g>
     </g>
     <g id="text_5">
      <!-- 400 -->
      <g transform="translate(231.508305 322.182437) scale(0.1 -0.1)">
       <defs>
        <path id="DejaVuSans-34" d="M 2419 4116 
L 825 1625 
L 2419 1625 
L 2419 4116 
z
M 2253 4666 
L 3047 4666 
L 3047 1625 
L 3713 1625 
L 3713 1100 
L 3047 1100 
L 3047 0 
L 2419 0 
L 2419 1100 
L 313 1100 
L 313 1709 
L 2253 4666 
z
" transform="scale(0.015625)"/>
       </defs>
       <use xlink:href="#DejaVuSans-34"/>
       <use xlink:href="#DejaVuSans-30" transform="translate(63.623047 0)"/>
       <use xlink:href="#DejaVuSans-30" transform="translate(127.246094 0)"/>
      </g>
     </g>
    </g>
    <g id="xtick_6">
     <g id="line2d_6">
      <g>
       <use xlink:href="#m6a657c2f6f" x="285.52528" y="307.584" style="stroke: #000000; stroke-width: 0.8"/>
      </g>
     </g>
     <g id="text_6">
      <!-- 500 -->
      <g transform="translate(275.98153 322.182437) scale(0.1 -0.1)">
       <defs>
        <path id="DejaVuSans-35" d="M 691 4666 
L 3169 4666 
L 3169 4134 
L 1269 4134 
L 1269 2991 
Q 1406 3038 1543 3061 
Q 1681 3084 1819 3084 
Q 2600 3084 3056 2656 
Q 3513 2228 3513 1497 
Q 3513 744 3044 326 
Q 2575 -91 1722 -91 
Q 1428 -91 1123 -41 
Q 819 9 494 109 
L 494 744 
Q 775 591 1075 516 
Q 1375 441 1709 441 
Q 2250 441 2565 725 
Q 2881 1009 2881 1497 
Q 2881 1984 2565 2268 
Q 2250 2553 1709 2553 
Q 1456 2553 1204 2497 
Q 953 2441 691 2322 
L 691 4666 
z
" transform="scale(0.015625)"/>
       </defs>
       <use xlink:href="#DejaVuSans-35"/>
       <use xlink:href="#DejaVuSans-30" transform="translate(63.623047 0)"/>
       <use xlink:href="#DejaVuSans-30" transform="translate(127.246094 0)"/>
      </g>
     </g>
    </g>
    <g id="xtick_7">
     <g id="line2d_7">
      <g>
       <use xlink:href="#m6a657c2f6f" x="329.998506" y="307.584" style="stroke: #000000; stroke-width: 0.8"/>
      </g>
     </g>
     <g id="text_7">
      <!-- 600 -->
      <g transform="translate(320.454756 322.182437) scale(0.1 -0.1)">
       <defs>
        <path id="DejaVuSans-36" d="M 2113 2584 
Q 1688 2584 1439 2293 
Q 1191 2003 1191 1497 
Q 1191 994 1439 701 
Q 1688 409 2113 409 
Q 2538 409 2786 701 
Q 3034 994 3034 1497 
Q 3034 2003 2786 2293 
Q 2538 2584 2113 2584 
z
M 3366 4563 
L 3366 3988 
Q 3128 4100 2886 4159 
Q 2644 4219 2406 4219 
Q 1781 4219 1451 3797 
Q 1122 3375 1075 2522 
Q 1259 2794 1537 2939 
Q 1816 3084 2150 3084 
Q 2853 3084 3261 2657 
Q 3669 2231 3669 1497 
Q 3669 778 3244 343 
Q 2819 -91 2113 -91 
Q 1303 -91 875 529 
Q 447 1150 447 2328 
Q 447 3434 972 4092 
Q 1497 4750 2381 4750 
Q 2619 4750 2861 4703 
Q 3103 4656 3366 4563 
z
" transform="scale(0.015625)"/>
       </defs>
       <use xlink:href="#DejaVuSans-36"/>
       <use xlink:href="#DejaVuSans-30" transform="translate(63.623047 0)"/>
       <use xlink:href="#DejaVuSans-30" transform="translate(127.246094 0)"/>
      </g>
     </g>
    </g>
    <g id="xtick_8">
     <g id="line2d_8">
      <g>
       <use xlink:href="#m6a657c2f6f" x="374.471731" y="307.584" style="stroke: #000000; stroke-width: 0.8"/>
      </g>
     </g>
     <g id="text_8">
      <!-- 700 -->
      <g transform="translate(364.927981 322.182437) scale(0.1 -0.1)">
       <defs>
        <path id="DejaVuSans-37" d="M 525 4666 
L 3525 4666 
L 3525 4397 
L 1831 0 
L 1172 0 
L 2766 4134 
L 525 4134 
L 525 4666 
z
" transform="scale(0.015625)"/>
       </defs>
       <use xlink:href="#DejaVuSans-37"/>
       <use xlink:href="#DejaVuSans-30" transform="translate(63.623047 0)"/>
       <use xlink:href="#DejaVuSans-30" transform="translate(127.246094 0)"/>
      </g>
     </g>
    </g>
    <g id="text_9">
     <!-- Temperature ($^{\circ}C$) -->
     <g transform="translate(192.16 335.862125) scale(0.1 -0.1)">
      <defs>
       <path id="DejaVuSans-54" d="M -19 4666 
L 3928 4666 
L 3928 4134 
L 2272 4134 
L 2272 0 
L 1638 0 
L 1638 4134 
L -19 4134 
L -19 4666 
z
" transform="scale(0.015625)"/>
       <path id="DejaVuSans-65" d="M 3597 1894 
L 3597 1613 
L 953 1613 
Q 991 1019 1311 708 
Q 1631 397 2203 397 
Q 2534 397 2845 478 
Q 3156 559 3463 722 
L 3463 178 
Q 3153 47 2828 -22 
Q 2503 -91 2169 -91 
Q 1331 -91 842 396 
Q 353 884 353 1716 
Q 353 2575 817 3079 
Q 1281 3584 2069 3584 
Q 2775 3584 3186 3129 
Q 3597 2675 3597 1894 
z
M 3022 2063 
Q 3016 2534 2758 2815 
Q 2500 3097 2075 3097 
Q 1594 3097 1305 2825 
Q 1016 2553 972 2059 
L 3022 2063 
z
" transform="scale(0.015625)"/>
       <path id="DejaVuSans-6d" d="M 3328 2828 
Q 3544 3216 3844 3400 
Q 4144 3584 4550 3584 
Q 5097 3584 5394 3201 
Q 5691 2819 5691 2113 
L 5691 0 
L 5113 0 
L 5113 2094 
Q 5113 2597 4934 2840 
Q 4756 3084 4391 3084 
Q 3944 3084 3684 2787 
Q 3425 2491 3425 1978 
L 3425 0 
L 2847 0 
L 2847 2094 
Q 2847 2600 2669 2842 
Q 2491 3084 2119 3084 
Q 1678 3084 1418 2786 
Q 1159 2488 1159 1978 
L 1159 0 
L 581 0 
L 581 3500 
L 1159 3500 
L 1159 2956 
Q 1356 3278 1631 3431 
Q 1906 3584 2284 3584 
Q 2666 3584 2933 3390 
Q 3200 3197 3328 2828 
z
" transform="scale(0.015625)"/>
       <path id="DejaVuSans-70" d="M 1159 525 
L 1159 -1331 
L 581 -1331 
L 581 3500 
L 1159 3500 
L 1159 2969 
Q 1341 3281 1617 3432 
Q 1894 3584 2278 3584 
Q 2916 3584 3314 3078 
Q 3713 2572 3713 1747 
Q 3713 922 3314 415 
Q 2916 -91 2278 -91 
Q 1894 -91 1617 61 
Q 1341 213 1159 525 
z
M 3116 1747 
Q 3116 2381 2855 2742 
Q 2594 3103 2138 3103 
Q 1681 3103 1420 2742 
Q 1159 2381 1159 1747 
Q 1159 1113 1420 752 
Q 1681 391 2138 391 
Q 2594 391 2855 752 
Q 3116 1113 3116 1747 
z
" transform="scale(0.015625)"/>
       <path id="DejaVuSans-72" d="M 2631 2963 
Q 2534 3019 2420 3045 
Q 2306 3072 2169 3072 
Q 1681 3072 1420 2755 
Q 1159 2438 1159 1844 
L 1159 0 
L 581 0 
L 581 3500 
L 1159 3500 
L 1159 2956 
Q 1341 3275 1631 3429 
Q 1922 3584 2338 3584 
Q 2397 3584 2469 3576 
Q 2541 3569 2628 3553 
L 2631 2963 
z
" transform="scale(0.015625)"/>
       <path id="DejaVuSans-61" d="M 2194 1759 
Q 1497 1759 1228 1600 
Q 959 1441 959 1056 
Q 959 750 1161 570 
Q 1363 391 1709 391 
Q 2188 391 2477 730 
Q 2766 1069 2766 1631 
L 2766 1759 
L 2194 1759 
z
M 3341 1997 
L 3341 0 
L 2766 0 
L 2766 531 
Q 2569 213 2275 61 
Q 1981 -91 1556 -91 
Q 1019 -91 701 211 
Q 384 513 384 1019 
Q 384 1609 779 1909 
Q 1175 2209 1959 2209 
L 2766 2209 
L 2766 2266 
Q 2766 2663 2505 2880 
Q 2244 3097 1772 3097 
Q 1472 3097 1187 3025 
Q 903 2953 641 2809 
L 641 3341 
Q 956 3463 1253 3523 
Q 1550 3584 1831 3584 
Q 2591 3584 2966 3190 
Q 3341 2797 3341 1997 
z
" transform="scale(0.015625)"/>
       <path id="DejaVuSans-74" d="M 1172 4494 
L 1172 3500 
L 2356 3500 
L 2356 3053 
L 1172 3053 
L 1172 1153 
Q 1172 725 1289 603 
Q 1406 481 1766 481 
L 2356 481 
L 2356 0 
L 1766 0 
Q 1100 0 847 248 
Q 594 497 594 1153 
L 594 3053 
L 172 3053 
L 172 3500 
L 594 3500 
L 594 4494 
L 1172 4494 
z
" transform="scale(0.015625)"/>
       <path id="DejaVuSans-75" d="M 544 1381 
L 544 3500 
L 1119 3500 
L 1119 1403 
Q 1119 906 1312 657 
Q 1506 409 1894 409 
Q 2359 409 2629 706 
Q 2900 1003 2900 1516 
L 2900 3500 
L 3475 3500 
L 3475 0 
L 2900 0 
L 2900 538 
Q 2691 219 2414 64 
Q 2138 -91 1772 -91 
Q 1169 -91 856 284 
Q 544 659 544 1381 
z
M 1991 3584 
L 1991 3584 
z
" transform="scale(0.015625)"/>
       <path id="DejaVuSans-20" transform="scale(0.015625)"/>
       <path id="DejaVuSans-28" d="M 1984 4856 
Q 1566 4138 1362 3434 
Q 1159 2731 1159 2009 
Q 1159 1288 1364 580 
Q 1569 -128 1984 -844 
L 1484 -844 
Q 1016 -109 783 600 
Q 550 1309 550 2009 
Q 550 2706 781 3412 
Q 1013 4119 1484 4856 
L 1984 4856 
z
" transform="scale(0.015625)"/>
       <path id="DejaVuSans-2218" d="M 2000 2619 
Q 1750 2619 1578 2445 
Q 1406 2272 1406 2022 
Q 1406 1775 1578 1605 
Q 1750 1435 2000 1435 
Q 2250 1435 2422 1605 
Q 2594 1775 2594 2022 
Q 2594 2269 2420 2444 
Q 2247 2619 2000 2619 
z
M 2000 3022 
Q 2200 3022 2384 2945 
Q 2569 2869 2703 2725 
Q 2847 2585 2919 2406 
Q 2991 2228 2991 2022 
Q 2991 1610 2702 1324 
Q 2413 1038 1994 1038 
Q 1572 1038 1290 1319 
Q 1009 1600 1009 2022 
Q 1009 2441 1296 2731 
Q 1584 3022 2000 3022 
z
" transform="scale(0.015625)"/>
       <path id="DejaVuSans-Oblique-43" d="M 4447 4306 
L 4319 3641 
Q 4019 3944 3683 4091 
Q 3347 4238 2956 4238 
Q 2422 4238 2017 3981 
Q 1613 3725 1319 3200 
Q 1131 2863 1032 2486 
Q 934 2109 934 1728 
Q 934 1091 1264 756 
Q 1594 422 2222 422 
Q 2656 422 3056 561 
Q 3456 700 3834 978 
L 3688 231 
Q 3316 72 2936 -9 
Q 2556 -91 2175 -91 
Q 1278 -91 773 396 
Q 269 884 269 1753 
Q 269 2309 461 2846 
Q 653 3384 1013 3828 
Q 1394 4300 1883 4525 
Q 2372 4750 3022 4750 
Q 3422 4750 3780 4639 
Q 4138 4528 4447 4306 
z
" transform="scale(0.015625)"/>
       <path id="DejaVuSans-29" d="M 513 4856 
L 1013 4856 
Q 1481 4119 1714 3412 
Q 1947 2706 1947 2009 
Q 1947 1309 1714 600 
Q 1481 -109 1013 -844 
L 513 -844 
Q 928 -128 1133 580 
Q 1338 1288 1338 2009 
Q 1338 2731 1133 3434 
Q 928 4138 513 4856 
z
" transform="scale(0.015625)"/>
      </defs>
      <use xlink:href="#DejaVuSans-54" transform="translate(0 0.125)"/>
      <use xlink:href="#DejaVuSans-65" transform="translate(61.083984 0.125)"/>
      <use xlink:href="#DejaVuSans-6d" transform="translate(122.607422 0.125)"/>
      <use xlink:href="#DejaVuSans-70" transform="translate(220.019531 0.125)"/>
      <use xlink:href="#DejaVuSans-65" transform="translate(283.496094 0.125)"/>
      <use xlink:href="#DejaVuSans-72" transform="translate(345.019531 0.125)"/>
      <use xlink:href="#DejaVuSans-61" transform="translate(386.132812 0.125)"/>
      <use xlink:href="#DejaVuSans-74" transform="translate(447.412109 0.125)"/>
      <use xlink:href="#DejaVuSans-75" transform="translate(486.621094 0.125)"/>
      <use xlink:href="#DejaVuSans-72" transform="translate(550 0.125)"/>
      <use xlink:href="#DejaVuSans-65" transform="translate(591.113281 0.125)"/>
      <use xlink:href="#DejaVuSans-20" transform="translate(652.636719 0.125)"/>
      <use xlink:href="#DejaVuSans-28" transform="translate(684.423828 0.125)"/>
      <use xlink:href="#DejaVuSans-2218" transform="translate(724.394531 38.40625) scale(0.7)"/>
      <use xlink:href="#DejaVuSans-Oblique-43" transform="translate(770.947266 0.125)"/>
      <use xlink:href="#DejaVuSans-29" transform="translate(840.771484 0.125)"/>
     </g>
    </g>
   </g>
   <g id="matplotlib.axis_2">
    <g id="ytick_1">
     <g id="line2d_9">
      <defs>
       <path id="m0300e84279" d="M 0 0 
L -3.5 0 
" style="stroke: #000000; stroke-width: 0.8"/>
      </defs>
      <g>
       <use xlink:href="#m0300e84279" x="57.6" y="295.488" style="stroke: #000000; stroke-width: 0.8"/>
      </g>
     </g>
     <g id="text_10">
      <!-- 0 -->
      <g transform="translate(44.2375 299.287219) scale(0.1 -0.1)">
       <use xlink:href="#DejaVuSans-30"/>
      </g>
     </g>
    </g>
    <g id="ytick_2">
     <g id="line2d_10">
      <g>
       <use xlink:href="#m0300e84279" x="57.6" y="248.052706" style="stroke: #000000; stroke-width: 0.8"/>
      </g>
     </g>
     <g id="text_11">
      <!-- 1 -->
      <g transform="translate(44.2375 251.851925) scale(0.1 -0.1)">
       <use xlink:href="#DejaVuSans-31"/>
      </g>
     </g>
    </g>
    <g id="ytick_3">
     <g id="line2d_11">
      <g>
       <use xlink:href="#m0300e84279" x="57.6" y="200.617412" style="stroke: #000000; stroke-width: 0.8"/>
      </g>
     </g>
     <g id="text_12">
      <!-- 2 -->
      <g transform="translate(44.2375 204.416631) scale(0.1 -0.1)">
       <use xlink:href="#DejaVuSans-32"/>
      </g>
     </g>
    </g>
    <g id="ytick_4">
     <g id="line2d_12">
      <g>
       <use xlink:href="#m0300e84279" x="57.6" y="153.182118" style="stroke: #000000; stroke-width: 0.8"/>
      </g>
     </g>
     <g id="text_13">
      <!-- 3 -->
      <g transform="translate(44.2375 156.981336) scale(0.1 -0.1)">
       <use xlink:href="#DejaVuSans-33"/>
      </g>
     </g>
    </g>
    <g id="ytick_5">
     <g id="line2d_13">
      <g>
       <use xlink:href="#m0300e84279" x="57.6" y="105.746824" style="stroke: #000000; stroke-width: 0.8"/>
      </g>
     </g>
     <g id="text_14">
      <!-- 4 -->
      <g transform="translate(44.2375 109.546042) scale(0.1 -0.1)">
       <use xlink:href="#DejaVuSans-34"/>
      </g>
     </g>
    </g>
    <g id="ytick_6">
     <g id="line2d_14">
      <g>
       <use xlink:href="#m0300e84279" x="57.6" y="58.311529" style="stroke: #000000; stroke-width: 0.8"/>
      </g>
     </g>
     <g id="text_15">
      <!-- 5 -->
      <g transform="translate(44.2375 62.110748) scale(0.1 -0.1)">
       <use xlink:href="#DejaVuSans-35"/>
      </g>
     </g>
    </g>
    <g id="text_16">
     <!-- Intensity ($^{\circ}C^{-1}$) -->
     <g transform="translate(38.1375 213.328) rotate(-90) scale(0.1 -0.1)">
      <defs>
       <path id="DejaVuSans-49" d="M 628 4666 
L 1259 4666 
L 1259 0 
L 628 0 
L 628 4666 
z
" transform="scale(0.015625)"/>
       <path id="DejaVuSans-6e" d="M 3513 2113 
L 3513 0 
L 2938 0 
L 2938 2094 
Q 2938 2591 2744 2837 
Q 2550 3084 2163 3084 
Q 1697 3084 1428 2787 
Q 1159 2491 1159 1978 
L 1159 0 
L 581 0 
L 581 3500 
L 1159 3500 
L 1159 2956 
Q 1366 3272 1645 3428 
Q 1925 3584 2291 3584 
Q 2894 3584 3203 3211 
Q 3513 2838 3513 2113 
z
" transform="scale(0.015625)"/>
       <path id="DejaVuSans-73" d="M 2834 3397 
L 2834 2853 
Q 2591 2978 2328 3040 
Q 2066 3103 1784 3103 
Q 1356 3103 1142 2972 
Q 928 2841 928 2578 
Q 928 2378 1081 2264 
Q 1234 2150 1697 2047 
L 1894 2003 
Q 2506 1872 2764 1633 
Q 3022 1394 3022 966 
Q 3022 478 2636 193 
Q 2250 -91 1575 -91 
Q 1294 -91 989 -36 
Q 684 19 347 128 
L 347 722 
Q 666 556 975 473 
Q 1284 391 1588 391 
Q 1994 391 2212 530 
Q 2431 669 2431 922 
Q 2431 1156 2273 1281 
Q 2116 1406 1581 1522 
L 1381 1569 
Q 847 1681 609 1914 
Q 372 2147 372 2553 
Q 372 3047 722 3315 
Q 1072 3584 1716 3584 
Q 2034 3584 2315 3537 
Q 2597 3491 2834 3397 
z
" transform="scale(0.015625)"/>
       <path id="DejaVuSans-69" d="M 603 3500 
L 1178 3500 
L 1178 0 
L 603 0 
L 603 3500 
z
M 603 4863 
L 1178 4863 
L 1178 4134 
L 603 4134 
L 603 4863 
z
" transform="scale(0.015625)"/>
       <path id="DejaVuSans-79" d="M 2059 -325 
Q 1816 -950 1584 -1140 
Q 1353 -1331 966 -1331 
L 506 -1331 
L 506 -850 
L 844 -850 
Q 1081 -850 1212 -737 
Q 1344 -625 1503 -206 
L 1606 56 
L 191 3500 
L 800 3500 
L 1894 763 
L 2988 3500 
L 3597 3500 
L 2059 -325 
z
" transform="scale(0.015625)"/>
       <path id="DejaVuSans-2212" d="M 678 2272 
L 4684 2272 
L 4684 1741 
L 678 1741 
L 678 2272 
z
" transform="scale(0.015625)"/>
      </defs>
      <use xlink:href="#DejaVuSans-49" transform="translate(0 0.684375)"/>
      <use xlink:href="#DejaVuSans-6e" transform="translate(29.492188 0.684375)"/>
      <use xlink:href="#DejaVuSans-74" transform="translate(92.871094 0.684375)"/>
      <use xlink:href="#DejaVuSans-65" transform="translate(132.080078 0.684375)"/>
      <use xlink:href="#DejaVuSans-6e" transform="translate(193.603516 0.684375)"/>
      <use xlink:href="#DejaVuSans-73" transform="translate(256.982422 0.684375)"/>
      <use xlink:href="#DejaVuSans-69" transform="translate(309.082031 0.684375)"/>
      <use xlink:href="#DejaVuSans-74" transform="translate(336.865234 0.684375)"/>
      <use xlink:href="#DejaVuSans-79" transform="translate(376.074219 0.684375)"/>
      <use xlink:href="#DejaVuSans-20" transform="translate(435.253906 0.684375)"/>
      <use xlink:href="#DejaVuSans-28" transform="translate(467.041016 0.684375)"/>
      <use xlink:href="#DejaVuSans-2218" transform="translate(507.011719 38.965625) scale(0.7)"/>
      <use xlink:href="#DejaVuSans-Oblique-43" transform="translate(553.564453 0.684375)"/>
      <use xlink:href="#DejaVuSans-2212" transform="translate(630.589193 38.965625) scale(0.7)"/>
      <use xlink:href="#DejaVuSans-31" transform="translate(689.241536 38.965625) scale(0.7)"/>
      <use xlink:href="#DejaVuSans-29" transform="translate(736.512044 0.684375)"/>
     </g>
    </g>
   </g>
   <g id="line2d_15">
    <path d="M 73.832727 295.488 
L 87.619427 295.488 
L 88.064159 295.013647 
L 89.398356 295.013647 
L 89.843088 294.539294 
L 94.735143 294.539294 
L 95.179875 294.064941 
L 97.403537 294.064941 
L 97.848269 293.590588 
L 100.07193 293.590588 
L 100.516663 293.116235 
L 100.961395 293.116235 
L 101.406127 292.167529 
L 103.629788 292.167529 
L 104.074521 290.270118 
L 104.519253 290.270118 
L 104.963985 289.321412 
L 105.408717 289.321412 
L 105.85345 287.898353 
L 106.298182 287.898353 
L 106.742914 287.424 
L 107.187646 287.424 
L 107.632379 284.103529 
L 108.966575 284.103529 
L 109.411308 279.834353 
L 109.85604 279.834353 
L 110.300772 277.462588 
L 110.745504 277.462588 
L 111.190237 276.513882 
L 111.634969 276.513882 
L 112.079701 272.719059 
L 112.524433 272.719059 
L 112.969166 265.129412 
L 113.413898 265.129412 
L 113.85863 262.283294 
L 114.303362 262.283294 
L 114.748095 258.014118 
L 115.192827 258.014118 
L 115.637559 252.796235 
L 116.082291 252.796235 
L 116.527024 249.475765 
L 116.971756 249.475765 
L 117.416488 248.527059 
L 117.86122 248.527059 
L 118.305953 242.834824 
L 118.750685 242.834824 
L 119.195417 241.411765 
L 119.640149 241.411765 
L 120.084882 239.988706 
L 120.529614 239.988706 
L 120.974346 229.078588 
L 121.419078 229.078588 
L 121.863811 227.181176 
L 122.308543 227.181176 
L 122.753275 212.950588 
L 123.198007 212.950588 
L 123.64274 205.835294 
L 124.087472 205.835294 
L 124.532204 202.040471 
L 124.976936 202.040471 
L 125.421669 195.399529 
L 125.866401 195.399529 
L 126.311133 194.450824 
L 126.755866 194.450824 
L 127.200598 180.694588 
L 127.64533 180.694588 
L 128.090062 166.464 
L 128.534795 166.464 
L 128.979527 158.874353 
L 129.424259 158.874353 
L 129.868991 156.028235 
L 130.313724 156.028235 
L 130.758456 145.118118 
L 131.203188 145.118118 
L 131.64792 140.374588 
L 132.092653 140.374588 
L 132.537385 138.477176 
L 132.982117 138.477176 
L 133.426849 134.208 
L 133.871582 134.208 
L 134.316314 125.669647 
L 134.761046 125.669647 
L 135.205778 122.823529 
L 135.650511 122.823529 
L 136.095243 121.874824 
L 136.539975 121.874824 
L 136.984707 119.028706 
L 137.42944 119.028706 
L 137.874172 112.387765 
L 138.318904 112.387765 
L 138.763636 112.862118 
L 139.208369 112.862118 
L 139.653101 109.067294 
L 140.987298 109.067294 
L 141.43203 93.413647 
L 141.876762 93.413647 
L 142.321494 87.721412 
L 142.766227 87.721412 
L 143.210959 87.247059 
L 143.655691 87.247059 
L 144.100423 82.503529 
L 144.545156 82.503529 
L 144.989888 93.888 
L 145.43462 93.888 
L 145.879352 91.516235 
L 146.324085 91.516235 
L 146.768817 68.272941 
L 147.213549 68.272941 
L 147.658281 65.426824 
L 148.103014 65.426824 
L 148.547746 53.568 
L 148.992478 53.568 
L 149.43721 65.426824 
L 149.881943 65.426824 
L 150.326675 65.901176 
L 150.771407 65.901176 
L 151.216139 73.490824 
L 151.660872 73.490824 
L 152.105604 69.696 
L 152.550336 69.696 
L 152.995068 73.490824 
L 153.439801 73.490824 
L 153.884533 79.183059 
L 154.329265 79.183059 
L 154.773998 75.862588 
L 156.108194 75.862588 
L 156.552927 74.439529 
L 156.997659 74.439529 
L 157.442391 77.76 
L 157.887123 77.76 
L 158.331856 75.862588 
L 158.776588 75.862588 
L 159.22132 82.977882 
L 159.666052 82.977882 
L 160.110785 92.464941 
L 160.555517 92.464941 
L 161.000249 78.708706 
L 161.444981 78.708706 
L 161.889714 78.234353 
L 162.334446 78.234353 
L 162.779178 78.708706 
L 163.22391 78.708706 
L 163.668643 91.516235 
L 164.113375 91.516235 
L 164.558107 93.413647 
L 165.002839 93.413647 
L 165.447572 90.567529 
L 165.892304 90.567529 
L 166.337036 95.311059 
L 166.781768 95.311059 
L 167.226501 87.247059 
L 167.671233 87.247059 
L 168.115965 88.195765 
L 168.560697 88.195765 
L 169.00543 106.695529 
L 169.450162 106.695529 
L 169.894894 111.439059 
L 170.339626 111.439059 
L 170.784359 123.772235 
L 171.229091 123.772235 
L 171.673823 120.451765 
L 172.118555 120.451765 
L 172.563288 132.310588 
L 173.00802 132.310588 
L 173.452752 123.297882 
L 173.897484 123.297882 
L 174.342217 132.784941 
L 174.786949 132.784941 
L 175.231681 131.836235 
L 175.676413 131.836235 
L 176.121146 134.682353 
L 176.565878 134.682353 
L 177.01061 135.156706 
L 177.455342 135.156706 
L 177.900075 136.579765 
L 178.344807 136.579765 
L 178.789539 149.387294 
L 179.234271 149.387294 
L 179.679004 152.233412 
L 180.123736 152.233412 
L 180.568468 156.976941 
L 181.0132 156.976941 
L 181.457933 146.066824 
L 181.902665 146.066824 
L 182.347397 145.592471 
L 182.79213 145.592471 
L 183.236862 157.925647 
L 183.681594 157.925647 
L 184.126326 149.387294 
L 184.571059 149.387294 
L 185.015791 149.861647 
L 185.460523 149.861647 
L 185.905255 131.361882 
L 186.349988 131.361882 
L 186.79472 137.054118 
L 187.239452 137.054118 
L 187.684184 150.336 
L 189.018381 150.336 
L 189.463113 153.656471 
L 189.907846 153.656471 
L 190.352578 159.823059 
L 190.79731 159.823059 
L 191.242042 160.297412 
L 191.686775 160.297412 
L 192.131507 164.566588 
L 192.576239 164.566588 
L 193.020971 163.617882 
L 193.465704 163.617882 
L 193.910436 169.310118 
L 194.355168 169.310118 
L 194.7999 168.835765 
L 195.244633 168.835765 
L 195.689365 176.425412 
L 196.134097 176.425412 
L 196.578829 173.104941 
L 197.023562 173.104941 
L 197.468294 178.797176 
L 197.913026 178.797176 
L 198.357758 179.271529 
L 198.802491 179.271529 
L 199.247223 182.117647 
L 199.691955 182.117647 
L 200.136687 180.220235 
L 200.58142 180.220235 
L 201.026152 180.694588 
L 201.470884 180.694588 
L 201.915616 181.168941 
L 202.360349 181.168941 
L 202.805081 177.848471 
L 203.249813 177.848471 
L 203.694545 175.476706 
L 204.139278 175.476706 
L 204.58401 178.322824 
L 205.028742 178.322824 
L 205.473474 181.168941 
L 205.918207 181.168941 
L 206.362939 193.027765 
L 206.807671 193.027765 
L 207.252403 195.399529 
L 207.697136 195.399529 
L 208.141868 214.848 
L 208.5866 214.848 
L 209.031333 212.476235 
L 209.476065 212.476235 
L 209.920797 210.104471 
L 210.365529 210.104471 
L 210.810262 210.578824 
L 211.254994 210.578824 
L 211.699726 207.732706 
L 212.144458 207.732706 
L 212.589191 210.104471 
L 213.033923 210.104471 
L 213.478655 217.219765 
L 213.923387 217.219765 
L 214.36812 211.053176 
L 214.812852 211.053176 
L 215.257584 208.207059 
L 215.702316 208.207059 
L 216.147049 207.732706 
L 216.591781 207.732706 
L 217.036513 211.053176 
L 217.481245 211.053176 
L 217.925978 212.001882 
L 218.37071 212.001882 
L 218.815442 215.322353 
L 219.260174 215.322353 
L 219.704907 211.527529 
L 220.149639 211.527529 
L 220.594371 209.630118 
L 221.039103 209.630118 
L 221.483836 213.899294 
L 221.928568 213.899294 
L 222.3733 217.219765 
L 222.818032 217.219765 
L 223.262765 209.155765 
L 223.707497 209.155765 
L 224.152229 208.207059 
L 224.596961 208.207059 
L 225.041694 210.578824 
L 225.486426 210.578824 
L 225.931158 222.912 
L 226.37589 222.912 
L 226.820623 221.014588 
L 227.265355 221.014588 
L 227.710087 219.117176 
L 228.154819 219.117176 
L 228.599552 221.488941 
L 229.044284 221.488941 
L 229.489016 223.386353 
L 229.933748 223.386353 
L 230.378481 225.758118 
L 230.823213 225.758118 
L 231.267945 228.129882 
L 231.712677 228.129882 
L 232.15741 230.501647 
L 233.491606 230.501647 
L 233.936339 239.04 
L 234.381071 239.04 
L 234.825803 236.193882 
L 235.270535 236.193882 
L 235.715268 237.142588 
L 236.16 237.142588 
L 236.604732 241.886118 
L 237.049465 241.886118 
L 237.494197 247.104 
L 238.828394 247.104 
L 239.273126 247.578353 
L 239.717858 247.578353 
L 240.16259 248.527059 
L 240.607323 248.527059 
L 241.052055 244.732235 
L 241.496787 244.732235 
L 241.941519 247.104 
L 242.386252 247.104 
L 242.830984 246.629647 
L 243.275716 246.629647 
L 243.720448 239.04 
L 244.165181 239.04 
L 244.609913 238.565647 
L 245.054645 238.565647 
L 245.499377 247.578353 
L 245.94411 247.578353 
L 246.388842 250.424471 
L 246.833574 250.424471 
L 247.278306 251.847529 
L 248.612503 251.847529 
L 249.057235 253.744941 
L 249.501968 253.744941 
L 249.9467 257.065412 
L 250.391432 257.065412 
L 250.836164 256.591059 
L 251.280897 256.591059 
L 251.725629 253.270588 
L 252.170361 253.270588 
L 252.615093 249.950118 
L 253.059826 249.950118 
L 253.504558 249.001412 
L 253.94929 249.001412 
L 254.394022 249.475765 
L 254.838755 249.475765 
L 255.283487 250.424471 
L 255.728219 250.424471 
L 256.172951 248.527059 
L 256.617684 248.527059 
L 257.062416 252.321882 
L 257.507148 252.321882 
L 257.95188 249.475765 
L 258.396613 249.475765 
L 258.841345 250.424471 
L 260.175542 250.424471 
L 260.620274 249.001412 
L 261.065006 249.001412 
L 261.509738 244.257882 
L 261.954471 244.257882 
L 262.399203 239.514353 
L 262.843935 239.514353 
L 263.288667 243.783529 
L 263.7334 243.783529 
L 264.178132 244.732235 
L 265.512329 244.732235 
L 265.957061 250.898824 
L 266.401793 250.898824 
L 266.846526 253.270588 
L 267.291258 253.270588 
L 267.73599 252.796235 
L 268.180722 252.796235 
L 268.625455 250.424471 
L 269.070187 250.424471 
L 269.514919 249.475765 
L 269.959651 249.475765 
L 270.404384 249.001412 
L 271.73858 249.001412 
L 272.183313 247.104 
L 272.628045 246.629647 
L 273.072777 246.629647 
L 273.517509 245.206588 
L 273.962242 247.578353 
L 274.406974 247.578353 
L 274.851706 249.950118 
L 275.296438 249.475765 
L 275.741171 250.424471 
L 276.185903 249.001412 
L 276.630635 246.629647 
L 277.075367 246.629647 
L 277.5201 247.104 
L 277.964832 247.104 
L 278.409564 251.373176 
L 278.854296 250.424471 
L 279.743761 250.424471 
L 280.188493 252.321882 
L 280.633225 251.847529 
L 281.077958 250.898824 
L 281.52269 250.898824 
L 281.967422 251.847529 
L 282.412154 251.847529 
L 282.856887 254.219294 
L 283.301619 253.270588 
L 283.746351 257.539765 
L 284.191083 257.539765 
L 284.635816 262.283294 
L 285.970012 262.283294 
L 286.414745 265.129412 
L 286.859477 265.129412 
L 287.304209 267.501176 
L 287.748941 267.026824 
L 288.193674 268.924235 
L 288.638406 266.552471 
L 289.083138 265.603765 
L 289.52787 265.603765 
L 289.972603 266.078118 
L 290.417335 265.603765 
L 290.862067 268.924235 
L 291.3068 268.924235 
L 291.751532 270.347294 
L 292.196264 270.347294 
L 292.640996 271.770353 
L 293.975193 271.770353 
L 294.419925 273.667765 
L 294.864658 274.142118 
L 295.30939 274.142118 
L 295.754122 275.090824 
L 296.198854 274.616471 
L 296.643587 274.616471 
L 297.088319 276.513882 
L 297.533051 276.513882 
L 297.977783 275.565176 
L 298.422516 276.988235 
L 298.867248 279.834353 
L 299.31198 279.36 
L 299.756712 279.36 
L 300.201445 278.885647 
L 301.090909 278.885647 
L 301.535641 278.411294 
L 302.425106 278.411294 
L 302.869838 278.885647 
L 303.31457 280.308706 
L 303.759303 279.834353 
L 305.093499 279.834353 
L 305.538232 280.783059 
L 305.982964 281.257412 
L 306.872428 281.257412 
L 307.761893 280.308706 
L 308.206625 280.308706 
L 309.09609 278.411294 
L 309.540822 278.411294 
L 309.985554 277.936941 
L 310.430286 277.936941 
L 310.875019 280.308706 
L 311.319751 280.783059 
L 312.209215 280.783059 
L 312.653948 280.308706 
L 313.09868 280.783059 
L 314.432877 280.783059 
L 314.877609 280.308706 
L 317.10127 280.308706 
L 317.546002 278.885647 
L 317.990735 277.936941 
L 318.435467 279.36 
L 319.769664 279.36 
L 320.214396 280.308706 
L 321.103861 280.308706 
L 321.548593 280.783059 
L 322.88279 280.783059 
L 323.327522 281.731765 
L 323.772254 282.206118 
L 324.216986 282.206118 
L 324.661719 283.154824 
L 325.106451 283.154824 
L 325.995915 284.103529 
L 326.440648 284.103529 
L 326.88538 283.629176 
L 327.330112 283.629176 
L 328.219577 280.308706 
L 328.664309 279.36 
L 329.109041 278.885647 
L 329.998506 279.834353 
L 330.443238 279.36 
L 330.88797 279.834353 
L 331.332702 280.783059 
L 331.777435 280.783059 
L 332.222167 281.731765 
L 333.111631 281.731765 
L 333.556364 282.206118 
L 334.001096 282.206118 
L 334.445828 281.731765 
L 334.89056 282.680471 
L 335.335293 283.154824 
L 336.669489 283.154824 
L 337.114222 283.629176 
L 337.558954 283.629176 
L 338.003686 282.680471 
L 339.337883 282.680471 
L 339.782615 284.577882 
L 340.227347 285.526588 
L 340.67208 286.000941 
L 341.561544 286.000941 
L 342.006276 286.475294 
L 344.229938 286.475294 
L 344.67467 286.949647 
L 345.564134 286.949647 
L 346.008867 286.000941 
L 346.453599 286.000941 
L 346.898331 285.526588 
L 347.343064 284.577882 
L 348.67726 284.577882 
L 349.121993 285.052235 
L 349.566725 285.052235 
L 350.456189 288.372706 
L 350.900922 289.321412 
L 351.345654 289.795765 
L 351.790386 289.321412 
L 352.235118 289.321412 
L 353.124583 290.270118 
L 353.569315 289.321412 
L 354.45878 289.321412 
L 354.903512 288.847059 
L 355.348244 287.898353 
L 355.792976 288.372706 
L 356.682441 287.424 
L 358.016638 287.424 
L 358.46137 286.949647 
L 358.906102 285.526588 
L 359.350834 284.577882 
L 359.795567 284.577882 
L 360.240299 285.526588 
L 361.129763 285.526588 
L 361.574496 285.052235 
L 362.019228 285.052235 
L 362.46396 285.526588 
L 362.908692 285.052235 
L 366.46655 285.052235 
L 366.911283 284.103529 
L 367.356015 283.629176 
L 367.800747 283.629176 
L 368.245479 284.577882 
L 368.690212 284.577882 
L 369.134944 285.052235 
L 369.579676 286.000941 
L 370.024408 285.526588 
L 370.913873 285.526588 
L 371.358605 285.052235 
L 373.582267 285.052235 
L 374.026999 285.526588 
L 374.471731 285.526588 
L 374.916463 285.052235 
L 375.361196 285.052235 
L 375.805928 286.000941 
L 376.695392 286.000941 
L 377.584857 286.949647 
L 378.029589 285.526588 
L 378.474321 285.052235 
L 378.919054 286.000941 
L 379.363786 285.052235 
L 380.25325 285.052235 
L 380.697983 285.526588 
L 381.142715 286.949647 
L 381.587447 287.898353 
L 383.366376 287.898353 
L 383.811108 288.372706 
L 384.255841 288.372706 
L 384.700573 287.424 
L 385.145305 287.898353 
L 386.924234 287.898353 
L 387.368966 286.949647 
L 388.703163 286.949647 
L 389.147895 287.898353 
L 389.592628 288.372706 
L 390.482092 288.372706 
L 390.926824 287.898353 
L 391.371557 287.898353 
L 391.816289 287.424 
L 392.261021 287.898353 
L 393.150486 287.898353 
L 393.595218 288.372706 
L 396.708344 288.372706 
L 397.153076 287.898353 
L 398.487273 287.898353 
L 398.487273 287.898353 
" clip-path="url(#pb87c85a883)" style="fill: none; stroke-dasharray: 1.85,0.8; stroke-dashoffset: 0; stroke: #8000ff; stroke-width: 0.5"/>
   </g>
   <g id="line2d_16">
    <path d="M 73.832727 295.488 
L 93.845679 295.488 
L 94.290411 295.013647 
L 108.077111 295.013647 
L 108.521843 294.539294 
L 109.85604 294.539294 
L 110.300772 294.064941 
L 110.745504 294.064941 
L 111.190237 293.116235 
L 111.634969 293.116235 
L 112.079701 292.641882 
L 112.524433 292.641882 
L 112.969166 291.693176 
L 116.082291 291.693176 
L 116.527024 291.218824 
L 116.971756 291.218824 
L 117.416488 290.744471 
L 117.86122 290.744471 
L 118.305953 289.795765 
L 118.750685 289.795765 
L 119.195417 288.847059 
L 119.640149 288.847059 
L 120.084882 286.000941 
L 120.529614 286.000941 
L 120.974346 285.526588 
L 121.419078 285.526588 
L 121.863811 284.103529 
L 122.308543 284.103529 
L 122.753275 283.154824 
L 123.198007 283.154824 
L 123.64274 277.936941 
L 124.087472 277.936941 
L 124.532204 271.770353 
L 124.976936 271.770353 
L 125.421669 267.975529 
L 125.866401 267.975529 
L 126.311133 258.962824 
L 126.755866 258.962824 
L 127.200598 254.693647 
L 127.64533 254.693647 
L 128.090062 251.373176 
L 128.534795 251.373176 
L 128.979527 246.155294 
L 129.424259 246.155294 
L 129.868991 244.732235 
L 130.313724 244.732235 
L 130.758456 236.668235 
L 131.203188 236.668235 
L 131.64792 229.078588 
L 132.092653 229.078588 
L 132.537385 226.232471 
L 132.982117 226.232471 
L 133.426849 223.860706 
L 133.871582 223.860706 
L 134.316314 224.335059 
L 134.761046 224.335059 
L 135.205778 211.527529 
L 135.650511 211.527529 
L 136.095243 203.937882 
L 136.539975 203.937882 
L 136.984707 200.617412 
L 137.42944 200.617412 
L 137.874172 195.873882 
L 138.318904 195.873882 
L 138.763636 192.079059 
L 139.208369 192.079059 
L 139.653101 190.656 
L 140.097833 190.656 
L 140.542565 184.015059 
L 140.987298 184.015059 
L 141.43203 183.540706 
L 141.876762 183.540706 
L 142.321494 177.848471 
L 142.766227 177.848471 
L 143.210959 175.002353 
L 143.655691 175.002353 
L 144.100423 172.156235 
L 144.545156 172.156235 
L 144.989888 156.028235 
L 145.43462 156.028235 
L 145.879352 152.233412 
L 146.324085 152.233412 
L 146.768817 156.976941 
L 147.213549 156.976941 
L 147.658281 154.605176 
L 148.103014 154.605176 
L 148.547746 160.297412 
L 148.992478 160.297412 
L 149.43721 146.541176 
L 149.881943 146.541176 
L 150.326675 144.643765 
L 150.771407 144.643765 
L 151.216139 147.489882 
L 151.660872 147.489882 
L 152.105604 139.425882 
L 152.550336 139.425882 
L 152.995068 142.746353 
L 153.439801 142.746353 
L 153.884533 148.438588 
L 154.329265 148.438588 
L 154.773998 145.592471 
L 155.21873 145.592471 
L 155.663462 144.643765 
L 156.108194 144.643765 
L 156.552927 134.682353 
L 156.997659 134.682353 
L 157.442391 134.208 
L 157.887123 134.208 
L 158.331856 121.874824 
L 158.776588 121.874824 
L 159.22132 117.605647 
L 159.666052 117.605647 
L 160.110785 118.554353 
L 160.555517 118.554353 
L 161.000249 116.656941 
L 161.444981 116.656941 
L 161.889714 108.118588 
L 162.334446 108.118588 
L 162.779178 108.592941 
L 163.22391 108.592941 
L 163.668643 107.169882 
L 164.113375 107.169882 
L 164.558107 108.118588 
L 165.002839 108.118588 
L 165.447572 109.067294 
L 165.892304 109.067294 
L 166.337036 106.695529 
L 166.781768 106.221176 
L 167.226501 117.605647 
L 167.671233 111.439059 
L 168.115965 119.503059 
L 168.560697 117.131294 
L 169.450162 107.169882 
L 169.894894 111.913412 
L 170.339626 111.913412 
L 170.784359 113.810824 
L 171.229091 110.490353 
L 171.673823 122.823529 
L 172.118555 110.964706 
L 172.563288 112.862118 
L 173.00802 112.862118 
L 173.897484 96.734118 
L 174.342217 106.221176 
L 174.786949 104.798118 
L 175.231681 108.592941 
L 176.565878 101.477647 
L 177.01061 104.798118 
L 177.455342 103.375059 
L 177.900075 107.169882 
L 178.344807 101.952 
L 178.789539 111.913412 
L 179.234271 110.016 
L 179.679004 113.336471 
L 180.123736 112.387765 
L 180.568468 128.990118 
L 181.0132 127.092706 
L 181.457933 134.682353 
L 181.902665 133.733647 
L 182.347397 133.259294 
L 182.79213 131.361882 
L 183.236862 137.054118 
L 183.681594 131.836235 
L 184.126326 141.323294 
L 184.571059 140.374588 
L 185.015791 142.746353 
L 185.460523 140.374588 
L 185.905255 142.272 
L 186.349988 142.272 
L 186.79472 147.489882 
L 187.239452 143.695059 
L 187.684184 146.066824 
L 188.128917 140.374588 
L 188.573649 143.695059 
L 189.018381 144.169412 
L 189.463113 149.861647 
L 189.907846 145.592471 
L 190.352578 143.220706 
L 190.79731 144.169412 
L 191.242042 151.284706 
L 191.686775 154.605176 
L 192.131507 152.233412 
L 192.576239 148.912941 
L 193.020971 150.336 
L 193.465704 152.707765 
L 193.910436 151.759059 
L 194.355168 157.925647 
L 194.7999 161.246118 
L 195.244633 155.079529 
L 195.689365 160.297412 
L 196.134097 166.938353 
L 196.578829 166.938353 
L 197.023562 167.412706 
L 197.468294 156.976941 
L 197.913026 156.976941 
L 198.357758 161.720471 
L 198.802491 162.194824 
L 199.247223 165.040941 
L 199.691955 163.143529 
L 200.136687 163.617882 
L 200.58142 168.835765 
L 201.026152 161.720471 
L 201.470884 163.617882 
L 201.915616 173.104941 
L 202.360349 171.207529 
L 202.805081 174.528 
L 203.249813 173.104941 
L 203.694545 173.104941 
L 204.139278 174.053647 
L 204.58401 162.194824 
L 205.028742 160.297412 
L 205.473474 157.451294 
L 205.918207 161.720471 
L 206.362939 160.771765 
L 206.807671 157.925647 
L 207.252403 162.194824 
L 207.697136 164.566588 
L 208.141868 165.515294 
L 208.5866 161.246118 
L 209.031333 161.246118 
L 209.476065 158.4 
L 209.920797 156.502588 
L 210.365529 159.823059 
L 211.254994 155.079529 
L 211.699726 154.605176 
L 212.144458 165.040941 
L 212.589191 167.887059 
L 213.033923 168.835765 
L 213.478655 167.412706 
L 213.923387 166.464 
L 214.36812 169.784471 
L 214.812852 168.361412 
L 215.257584 168.361412 
L 215.702316 169.310118 
L 216.147049 173.104941 
L 217.036513 173.104941 
L 217.925978 179.271529 
L 218.37071 179.271529 
L 218.815442 169.784471 
L 219.260174 169.784471 
L 219.704907 180.694588 
L 220.149639 182.592 
L 220.594371 182.592 
L 221.039103 184.015059 
L 221.483836 180.220235 
L 221.928568 183.066353 
L 222.3733 182.117647 
L 222.818032 179.745882 
L 223.262765 185.438118 
L 223.707497 181.168941 
L 224.152229 180.694588 
L 224.596961 183.540706 
L 225.041694 183.540706 
L 225.486426 184.015059 
L 226.37589 184.015059 
L 226.820623 200.143059 
L 227.265355 200.143059 
L 227.710087 203.463529 
L 228.154819 203.937882 
L 228.599552 205.835294 
L 229.044284 205.835294 
L 229.489016 200.143059 
L 229.933748 197.296941 
L 230.823213 196.348235 
L 231.267945 197.296941 
L 231.712677 202.040471 
L 232.15741 200.143059 
L 232.602142 202.040471 
L 233.046874 207.732706 
L 233.491606 210.104471 
L 233.936339 210.578824 
L 234.381071 210.104471 
L 234.825803 209.155765 
L 235.715268 205.835294 
L 236.16 207.732706 
L 236.604732 207.732706 
L 237.049465 212.476235 
L 237.938929 212.476235 
L 238.383661 214.848 
L 238.828394 220.540235 
L 239.273126 219.591529 
L 239.717858 222.437647 
L 240.16259 219.117176 
L 240.607323 220.065882 
L 241.052055 225.758118 
L 241.941519 221.488941 
L 242.386252 221.963294 
L 242.830984 221.963294 
L 243.275716 221.014588 
L 243.720448 221.488941 
L 244.165181 219.117176 
L 244.609913 219.591529 
L 245.054645 221.963294 
L 245.499377 223.386353 
L 245.94411 227.655529 
L 246.388842 229.552941 
L 246.833574 227.181176 
L 247.278306 226.706824 
L 247.723039 227.181176 
L 248.167771 225.758118 
L 248.612503 224.809412 
L 249.057235 224.809412 
L 249.501968 228.604235 
L 249.9467 229.078588 
L 250.391432 227.181176 
L 250.836164 223.860706 
L 251.280897 223.860706 
L 252.170361 230.501647 
L 252.615093 230.976 
L 253.059826 233.347765 
L 253.504558 230.501647 
L 253.94929 232.399059 
L 254.394022 236.193882 
L 254.838755 235.245176 
L 255.283487 233.347765 
L 255.728219 232.873412 
L 256.172951 231.924706 
L 256.617684 229.552941 
L 257.062416 230.976 
L 257.95188 235.245176 
L 258.396613 235.245176 
L 258.841345 235.719529 
L 259.286077 234.296471 
L 260.175542 234.296471 
L 260.620274 233.822118 
L 261.509738 233.822118 
L 261.954471 231.450353 
L 262.399203 236.193882 
L 262.843935 237.142588 
L 263.288667 240.937412 
L 263.7334 242.834824 
L 264.178132 246.155294 
L 264.622864 245.206588 
L 265.067597 245.206588 
L 265.512329 246.155294 
L 265.957061 249.475765 
L 266.401793 251.373176 
L 266.846526 249.950118 
L 267.291258 249.950118 
L 267.73599 248.527059 
L 268.180722 247.578353 
L 268.625455 243.309176 
L 269.070187 244.257882 
L 269.514919 244.732235 
L 270.404384 248.052706 
L 270.849116 248.052706 
L 271.293848 247.578353 
L 272.183313 247.578353 
L 272.628045 249.950118 
L 273.072777 251.373176 
L 273.517509 253.270588 
L 273.962242 254.219294 
L 274.406974 252.796235 
L 274.851706 251.847529 
L 275.296438 254.219294 
L 275.741171 258.014118 
L 276.630635 258.014118 
L 277.075367 259.437176 
L 277.5201 260.385882 
L 277.964832 259.911529 
L 278.409564 260.860235 
L 278.854296 262.757647 
L 279.299029 262.757647 
L 279.743761 261.334588 
L 280.188493 262.283294 
L 280.633225 260.385882 
L 281.077958 260.385882 
L 281.52269 259.911529 
L 281.967422 259.911529 
L 282.412154 258.014118 
L 282.856887 258.488471 
L 283.301619 257.065412 
L 284.191083 258.962824 
L 284.635816 258.014118 
L 285.080548 256.116706 
L 285.52528 255.168 
L 285.970012 256.116706 
L 286.414745 255.168 
L 286.859477 256.116706 
L 287.304209 254.693647 
L 288.193674 254.693647 
L 288.638406 255.642353 
L 289.083138 254.219294 
L 289.52787 251.847529 
L 289.972603 252.321882 
L 290.417335 253.270588 
L 290.862067 257.539765 
L 291.3068 258.962824 
L 291.751532 257.065412 
L 292.196264 257.539765 
L 292.640996 257.539765 
L 293.530461 258.488471 
L 294.419925 258.488471 
L 294.864658 253.744941 
L 295.30939 255.642353 
L 295.754122 256.116706 
L 296.198854 256.116706 
L 296.643587 257.539765 
L 297.088319 258.488471 
L 297.533051 258.488471 
L 297.977783 258.962824 
L 298.422516 258.014118 
L 298.867248 257.539765 
L 299.756712 257.539765 
L 300.201445 258.014118 
L 300.646177 257.539765 
L 301.090909 258.488471 
L 301.535641 258.014118 
L 301.980374 258.962824 
L 302.869838 256.116706 
L 303.31457 255.642353 
L 303.759303 257.539765 
L 304.204035 256.591059 
L 304.648767 258.014118 
L 305.093499 258.488471 
L 305.538232 259.437176 
L 305.982964 258.014118 
L 306.427696 258.488471 
L 306.872428 259.911529 
L 307.317161 259.437176 
L 307.761893 259.911529 
L 308.206625 259.911529 
L 308.651357 260.860235 
L 309.09609 260.860235 
L 309.540822 262.283294 
L 310.875019 262.283294 
L 311.319751 265.603765 
L 311.764483 267.975529 
L 312.209215 268.449882 
L 312.653948 268.449882 
L 313.09868 267.026824 
L 313.543412 267.026824 
L 313.988144 267.975529 
L 314.432877 267.975529 
L 314.877609 266.552471 
L 315.322341 267.026824 
L 316.211806 267.026824 
L 316.656538 266.552471 
L 317.10127 270.821647 
L 317.546002 269.398588 
L 318.435467 272.244706 
L 318.880199 272.244706 
L 319.324932 270.347294 
L 319.769664 270.347294 
L 320.214396 269.872941 
L 320.659128 270.821647 
L 321.103861 270.821647 
L 321.548593 270.347294 
L 322.88279 271.770353 
L 323.327522 270.821647 
L 323.772254 268.924235 
L 324.216986 269.398588 
L 324.661719 270.821647 
L 325.106451 274.142118 
L 325.551183 274.142118 
L 325.995915 271.296 
L 326.440648 270.821647 
L 326.88538 271.296 
L 327.330112 271.296 
L 327.774844 271.770353 
L 328.219577 273.193412 
L 328.664309 273.667765 
L 329.109041 273.193412 
L 329.553773 274.616471 
L 331.777435 274.616471 
L 332.222167 273.667765 
L 332.666899 273.667765 
L 333.111631 272.719059 
L 333.556364 272.719059 
L 334.001096 271.770353 
L 334.445828 272.244706 
L 334.89056 272.244706 
L 335.335293 273.667765 
L 335.780025 272.719059 
L 336.224757 273.667765 
L 336.669489 273.667765 
L 337.114222 275.090824 
L 337.558954 275.090824 
L 338.003686 274.616471 
L 338.448418 272.719059 
L 339.337883 273.667765 
L 339.782615 275.090824 
L 340.227347 275.090824 
L 340.67208 274.616471 
L 341.116812 274.616471 
L 341.561544 276.513882 
L 342.006276 276.039529 
L 342.895741 276.039529 
L 343.340473 276.513882 
L 343.785205 275.565176 
L 344.229938 276.039529 
L 345.119402 276.039529 
L 345.564134 276.988235 
L 346.008867 278.411294 
L 346.898331 277.462588 
L 347.343064 277.462588 
L 347.787796 277.936941 
L 348.232528 280.783059 
L 348.67726 282.206118 
L 350.011457 282.206118 
L 350.456189 281.731765 
L 351.345654 282.680471 
L 351.790386 283.629176 
L 354.014047 283.629176 
L 354.45878 284.103529 
L 354.903512 284.103529 
L 355.348244 285.052235 
L 355.792976 284.577882 
L 356.237709 285.526588 
L 357.127173 285.526588 
L 357.571905 285.052235 
L 358.016638 283.629176 
L 358.46137 282.680471 
L 358.906102 282.680471 
L 359.350834 281.731765 
L 359.795567 281.257412 
L 360.240299 281.731765 
L 360.685031 283.154824 
L 361.129763 281.257412 
L 362.46396 281.257412 
L 362.908692 281.731765 
L 363.798157 281.731765 
L 364.687621 282.680471 
L 365.132354 281.257412 
L 365.577086 281.257412 
L 366.021818 282.206118 
L 366.46655 282.206118 
L 366.911283 281.731765 
L 367.356015 281.731765 
L 367.800747 280.308706 
L 368.245479 281.257412 
L 368.690212 281.731765 
L 369.134944 281.731765 
L 369.579676 281.257412 
L 372.24807 281.257412 
L 372.692802 281.731765 
L 374.026999 281.731765 
L 374.471731 282.206118 
L 374.916463 282.206118 
L 375.361196 281.731765 
L 376.25066 281.731765 
L 376.695392 282.206118 
L 377.140125 281.731765 
L 377.584857 281.731765 
L 378.029589 281.257412 
L 378.474321 281.257412 
L 378.919054 279.834353 
L 379.363786 279.834353 
L 379.808518 280.308706 
L 380.25325 282.680471 
L 380.697983 283.154824 
L 381.142715 283.154824 
L 381.587447 284.103529 
L 382.476912 284.103529 
L 383.366376 285.052235 
L 383.811108 284.577882 
L 385.145305 284.577882 
L 385.590037 284.103529 
L 386.03477 283.154824 
L 386.924234 283.154824 
L 387.368966 284.577882 
L 387.813699 283.629176 
L 388.258431 284.103529 
L 388.703163 284.103529 
L 389.147895 284.577882 
L 389.592628 284.577882 
L 390.03736 286.000941 
L 390.482092 285.052235 
L 391.371557 285.052235 
L 391.816289 285.526588 
L 392.261021 285.526588 
L 392.705753 285.052235 
L 393.150486 285.052235 
L 394.03995 284.103529 
L 394.484682 283.154824 
L 394.929415 282.680471 
L 396.708344 282.680471 
L 397.153076 282.206118 
L 397.597808 282.206118 
L 398.04254 281.731765 
L 398.487273 281.731765 
L 398.487273 281.731765 
" clip-path="url(#pb87c85a883)" style="fill: none; stroke-dasharray: 1.85,0.8; stroke-dashoffset: 0; stroke: #2adddd; stroke-width: 0.5"/>
   </g>
   <g id="line2d_17">
    <path d="M 73.832727 295.488 
L 105.408717 295.488 
L 105.85345 295.013647 
L 113.413898 295.013647 
L 113.85863 293.590588 
L 114.303362 293.590588 
L 114.748095 293.116235 
L 119.640149 293.116235 
L 120.084882 292.641882 
L 120.529614 292.641882 
L 120.974346 291.218824 
L 121.419078 291.218824 
L 121.863811 290.270118 
L 122.308543 290.270118 
L 122.753275 289.321412 
L 123.198007 289.321412 
L 123.64274 288.372706 
L 124.976936 288.372706 
L 125.421669 285.526588 
L 125.866401 285.526588 
L 126.311133 285.052235 
L 126.755866 285.052235 
L 127.200598 284.577882 
L 128.534795 284.577882 
L 128.979527 282.206118 
L 129.424259 282.206118 
L 129.868991 281.731765 
L 130.313724 281.731765 
L 130.758456 279.834353 
L 131.203188 279.834353 
L 131.64792 278.885647 
L 132.092653 278.885647 
L 132.537385 270.821647 
L 132.982117 270.821647 
L 133.426849 268.924235 
L 133.871582 268.924235 
L 134.316314 267.975529 
L 134.761046 267.975529 
L 135.205778 263.706353 
L 135.650511 263.706353 
L 136.095243 260.385882 
L 137.42944 260.385882 
L 137.874172 249.950118 
L 138.318904 249.950118 
L 138.763636 248.052706 
L 139.208369 248.052706 
L 139.653101 246.155294 
L 140.987298 246.155294 
L 141.43203 244.732235 
L 141.876762 244.732235 
L 142.321494 233.822118 
L 143.655691 233.822118 
L 144.100423 220.065882 
L 144.545156 220.065882 
L 144.989888 216.271059 
L 145.43462 216.271059 
L 145.879352 213.424941 
L 146.324085 213.424941 
L 146.768817 207.732706 
L 147.213549 207.732706 
L 147.658281 210.104471 
L 148.103014 210.104471 
L 148.547746 209.155765 
L 148.992478 209.155765 
L 149.43721 205.360941 
L 149.881943 205.360941 
L 150.326675 203.937882 
L 150.771407 203.937882 
L 151.216139 194.925176 
L 151.660872 194.925176 
L 152.105604 189.232941 
L 152.550336 189.232941 
L 152.995068 185.438118 
L 153.439801 185.438118 
L 153.884533 177.374118 
L 154.329265 177.374118 
L 154.773998 176.899765 
L 155.21873 176.899765 
L 155.663462 178.797176 
L 156.108194 178.797176 
L 156.552927 173.579294 
L 156.997659 173.579294 
L 157.442391 176.899765 
L 157.887123 176.899765 
L 158.331856 174.528 
L 158.776588 174.528 
L 159.22132 159.348706 
L 159.666052 156.976941 
L 160.110785 167.412706 
L 160.555517 165.989647 
L 161.000249 165.515294 
L 161.444981 164.566588 
L 161.889714 165.040941 
L 162.779178 165.040941 
L 163.22391 160.771765 
L 163.668643 160.297412 
L 164.113375 160.297412 
L 164.558107 167.887059 
L 165.002839 160.771765 
L 165.447572 150.336 
L 165.892304 145.592471 
L 166.337036 158.874353 
L 166.781768 152.707765 
L 167.226501 157.451294 
L 167.671233 144.643765 
L 168.115965 138.477176 
L 168.560697 138.477176 
L 169.00543 142.272 
L 169.450162 140.848941 
L 169.894894 133.259294 
L 170.339626 131.361882 
L 170.784359 132.784941 
L 171.229091 132.784941 
L 171.673823 134.682353 
L 172.563288 130.413176 
L 173.00802 119.503059 
L 173.452752 130.413176 
L 173.897484 125.195294 
L 174.342217 128.515765 
L 174.786949 124.246588 
L 175.231681 124.720941 
L 175.676413 124.246588 
L 176.121146 129.938824 
L 176.565878 128.515765 
L 177.01061 131.361882 
L 177.455342 130.887529 
L 177.900075 125.669647 
L 178.344807 125.669647 
L 178.789539 131.836235 
L 179.234271 131.361882 
L 180.123736 123.772235 
L 180.568468 128.041412 
L 181.0132 125.195294 
L 181.457933 139.900235 
L 182.347397 130.413176 
L 182.79213 130.887529 
L 183.236862 128.990118 
L 183.681594 122.823529 
L 184.126326 121.874824 
L 184.571059 121.874824 
L 185.015791 119.503059 
L 185.460523 119.028706 
L 185.905255 119.028706 
L 186.349988 113.810824 
L 186.79472 114.759529 
L 187.239452 119.028706 
L 187.684184 128.515765 
L 188.128917 131.361882 
L 188.573649 127.567059 
L 189.018381 131.361882 
L 189.463113 130.887529 
L 189.907846 143.695059 
L 190.352578 152.233412 
L 190.79731 137.528471 
L 191.242042 132.784941 
L 191.686775 126.618353 
L 192.131507 134.682353 
L 192.576239 133.259294 
L 193.020971 133.259294 
L 193.465704 130.887529 
L 193.910436 133.259294 
L 194.355168 134.208 
L 194.7999 138.477176 
L 195.244633 149.387294 
L 195.689365 149.861647 
L 196.134097 154.605176 
L 196.578829 157.451294 
L 197.023562 159.348706 
L 197.468294 164.566588 
L 197.913026 155.079529 
L 198.357758 158.4 
L 198.802491 152.233412 
L 199.247223 157.925647 
L 199.691955 153.656471 
L 200.136687 158.874353 
L 200.58142 158.4 
L 201.026152 158.4 
L 201.470884 154.130824 
L 201.915616 159.348706 
L 202.360349 160.297412 
L 202.805081 163.143529 
L 203.249813 151.759059 
L 203.694545 152.707765 
L 204.139278 155.553882 
L 204.58401 160.297412 
L 205.028742 146.066824 
L 205.473474 150.336 
L 205.918207 156.502588 
L 206.362939 158.874353 
L 206.807671 149.387294 
L 207.252403 151.759059 
L 207.697136 151.759059 
L 208.5866 155.553882 
L 209.031333 158.4 
L 209.476065 150.336 
L 210.365529 154.605176 
L 210.810262 159.823059 
L 211.254994 155.079529 
L 211.699726 155.553882 
L 212.144458 149.387294 
L 212.589191 150.810353 
L 213.033923 156.028235 
L 213.923387 168.361412 
L 214.36812 168.361412 
L 214.812852 166.938353 
L 215.257584 166.938353 
L 215.702316 161.246118 
L 216.147049 161.246118 
L 216.591781 162.194824 
L 217.925978 162.194824 
L 218.37071 157.451294 
L 219.704907 157.451294 
L 220.149639 165.989647 
L 220.594371 165.989647 
L 221.039103 173.579294 
L 221.483836 173.579294 
L 221.928568 173.104941 
L 222.3733 173.104941 
L 222.818032 170.733176 
L 223.262765 170.733176 
L 223.707497 172.156235 
L 224.152229 172.156235 
L 224.596961 174.053647 
L 225.041694 174.053647 
L 225.486426 183.066353 
L 226.820623 183.066353 
L 227.265355 198.245647 
L 227.710087 198.245647 
L 228.154819 188.284235 
L 228.599552 188.284235 
L 229.044284 196.822588 
L 229.489016 196.822588 
L 229.933748 194.450824 
L 230.378481 194.450824 
L 230.823213 193.976471 
L 231.267945 193.976471 
L 231.712677 203.463529 
L 232.15741 203.463529 
L 232.602142 200.143059 
L 233.046874 200.143059 
L 233.491606 197.771294 
L 233.936339 197.771294 
L 234.381071 193.976471 
L 234.825803 193.976471 
L 235.270535 199.668706 
L 235.715268 199.668706 
L 236.16 197.771294 
L 236.604732 197.771294 
L 237.049465 202.040471 
L 237.494197 202.040471 
L 237.938929 210.104471 
L 239.273126 210.104471 
L 239.717858 207.732706 
L 240.16259 207.732706 
L 240.607323 212.001882 
L 241.052055 212.001882 
L 241.496787 213.424941 
L 241.941519 213.424941 
L 242.386252 207.732706 
L 242.830984 207.732706 
L 243.275716 203.463529 
L 243.720448 203.463529 
L 244.165181 208.207059 
L 244.609913 208.207059 
L 245.054645 207.258353 
L 245.499377 207.258353 
L 245.94411 208.681412 
L 246.388842 208.681412 
L 246.833574 201.566118 
L 247.278306 201.566118 
L 247.723039 206.309647 
L 248.167771 206.309647 
L 248.612503 210.578824 
L 249.9467 210.578824 
L 250.391432 221.488941 
L 250.836164 221.488941 
L 251.280897 217.694118 
L 251.725629 217.694118 
L 252.170361 221.963294 
L 252.615093 221.963294 
L 253.059826 218.168471 
L 253.504558 218.168471 
L 253.94929 219.117176 
L 254.394022 219.117176 
L 254.838755 221.963294 
L 255.283487 221.963294 
L 255.728219 226.232471 
L 256.172951 226.232471 
L 256.617684 230.501647 
L 257.062416 230.501647 
L 257.507148 234.296471 
L 257.95188 234.296471 
L 258.396613 236.193882 
L 258.841345 236.193882 
L 259.286077 236.668235 
L 260.620274 236.668235 
L 261.065006 232.399059 
L 262.399203 232.399059 
L 262.843935 232.873412 
L 264.178132 232.873412 
L 264.622864 239.04 
L 265.067597 239.04 
L 265.512329 236.668235 
L 265.957061 236.668235 
L 266.401793 232.873412 
L 266.846526 232.873412 
L 267.291258 235.245176 
L 267.73599 235.245176 
L 268.180722 235.719529 
L 268.625455 235.719529 
L 269.070187 239.04 
L 270.404384 239.04 
L 270.849116 234.296471 
L 271.293848 234.296471 
L 271.73858 232.399059 
L 272.183313 232.399059 
L 272.628045 231.924706 
L 273.072777 231.924706 
L 273.517509 236.668235 
L 273.962242 236.668235 
L 274.406974 239.514353 
L 274.851706 239.514353 
L 275.296438 241.411765 
L 275.741171 241.411765 
L 276.185903 240.463059 
L 276.630635 240.463059 
L 277.075367 236.193882 
L 277.5201 236.193882 
L 277.964832 237.142588 
L 278.409564 237.142588 
L 278.854296 239.988706 
L 280.188493 239.988706 
L 280.633225 241.411765 
L 281.077958 241.411765 
L 281.52269 240.937412 
L 281.967422 240.937412 
L 282.412154 237.616941 
L 282.856887 237.616941 
L 283.301619 241.886118 
L 283.746351 241.886118 
L 284.191083 242.834824 
L 284.635816 242.834824 
L 285.080548 238.565647 
L 286.414745 238.565647 
L 286.859477 239.514353 
L 287.304209 239.514353 
L 287.748941 246.155294 
L 288.193674 246.155294 
L 288.638406 245.680941 
L 289.083138 245.680941 
L 289.52787 242.834824 
L 289.972603 242.834824 
L 290.417335 243.783529 
L 290.862067 243.783529 
L 291.3068 247.578353 
L 291.751532 247.578353 
L 292.196264 246.629647 
L 292.640996 246.629647 
L 293.085729 251.373176 
L 293.530461 251.373176 
L 293.975193 250.898824 
L 294.419925 250.898824 
L 294.864658 251.373176 
L 295.30939 251.373176 
L 295.754122 250.424471 
L 296.198854 250.424471 
L 296.643587 248.527059 
L 297.088319 248.527059 
L 297.533051 253.744941 
L 297.977783 253.744941 
L 298.422516 253.270588 
L 298.867248 253.270588 
L 299.31198 254.219294 
L 299.756712 254.219294 
L 300.201445 255.642353 
L 300.646177 255.642353 
L 301.090909 258.488471 
L 301.535641 258.488471 
L 301.980374 257.065412 
L 302.425106 257.065412 
L 302.869838 257.539765 
L 303.31457 257.539765 
L 303.759303 258.014118 
L 304.204035 258.014118 
L 304.648767 261.334588 
L 306.872428 261.334588 
L 307.317161 261.808941 
L 307.761893 261.808941 
L 308.206625 259.911529 
L 310.430286 259.911529 
L 310.875019 263.706353 
L 312.209215 263.706353 
L 312.653948 262.283294 
L 313.09868 262.283294 
L 313.543412 260.860235 
L 314.877609 260.860235 
L 315.322341 260.385882 
L 315.767073 260.385882 
L 316.211806 262.283294 
L 316.656538 262.283294 
L 317.10127 258.488471 
L 318.435467 258.488471 
L 318.880199 258.962824 
L 319.324932 258.962824 
L 319.769664 259.437176 
L 320.214396 259.437176 
L 320.659128 259.911529 
L 321.103861 259.911529 
L 321.548593 260.860235 
L 321.993325 260.860235 
L 322.438057 262.283294 
L 322.88279 262.283294 
L 323.327522 260.385882 
L 323.772254 260.385882 
L 324.216986 261.808941 
L 328.219577 261.808941 
L 328.664309 262.757647 
L 329.109041 262.757647 
L 329.553773 267.026824 
L 329.998506 267.026824 
L 330.443238 269.398588 
L 330.88797 269.398588 
L 331.332702 267.501176 
L 331.777435 267.501176 
L 332.222167 267.026824 
L 332.666899 267.026824 
L 333.111631 261.808941 
L 333.556364 261.808941 
L 334.001096 263.706353 
L 334.445828 263.706353 
L 334.89056 265.603765 
L 335.335293 265.603765 
L 335.780025 266.552471 
L 336.224757 266.552471 
L 336.669489 267.501176 
L 337.114222 267.501176 
L 337.558954 267.975529 
L 338.003686 267.975529 
L 338.448418 267.026824 
L 338.893151 267.026824 
L 339.337883 270.347294 
L 339.782615 270.347294 
L 340.227347 271.296 
L 340.67208 271.296 
L 341.116812 272.244706 
L 342.451009 272.244706 
L 342.895741 271.296 
L 343.340473 271.296 
L 343.785205 273.193412 
L 344.229938 273.193412 
L 344.67467 274.616471 
L 345.119402 274.616471 
L 345.564134 275.090824 
L 346.008867 275.090824 
L 346.453599 274.616471 
L 346.898331 274.616471 
L 347.343064 273.667765 
L 348.67726 273.667765 
L 349.121993 273.193412 
L 349.566725 273.193412 
L 350.011457 272.719059 
L 350.456189 272.719059 
L 350.900922 270.821647 
L 351.345654 270.821647 
L 351.790386 269.398588 
L 352.235118 269.398588 
L 352.679851 269.872941 
L 353.124583 269.872941 
L 353.569315 270.347294 
L 354.903512 270.347294 
L 355.348244 276.039529 
L 355.792976 276.039529 
L 356.237709 278.411294 
L 356.682441 278.411294 
L 357.127173 275.090824 
L 358.46137 275.090824 
L 358.906102 275.565176 
L 359.350834 275.565176 
L 359.795567 275.090824 
L 360.240299 275.090824 
L 360.685031 274.616471 
L 361.129763 274.616471 
L 361.574496 274.142118 
L 362.019228 274.142118 
L 362.46396 273.667765 
L 362.908692 273.667765 
L 363.353425 274.142118 
L 363.798157 274.142118 
L 364.242889 273.667765 
L 364.687621 273.667765 
L 365.132354 276.039529 
L 365.577086 276.039529 
L 366.021818 275.090824 
L 366.46655 275.090824 
L 366.911283 273.667765 
L 367.356015 273.667765 
L 367.800747 274.142118 
L 368.245479 274.142118 
L 368.690212 273.193412 
L 369.134944 273.193412 
L 369.579676 273.667765 
L 370.913873 273.667765 
L 371.358605 272.719059 
L 372.692802 272.719059 
L 373.137534 274.616471 
L 373.582267 274.616471 
L 374.026999 276.039529 
L 375.361196 276.039529 
L 375.805928 277.462588 
L 376.25066 277.462588 
L 376.695392 276.988235 
L 378.029589 276.988235 
L 378.474321 276.513882 
L 378.919054 276.513882 
L 379.363786 279.834353 
L 379.808518 279.834353 
L 380.25325 280.308706 
L 381.587447 280.308706 
L 382.032179 280.783059 
L 382.476912 280.783059 
L 382.921644 282.206118 
L 383.366376 282.206118 
L 383.811108 283.154824 
L 384.255841 283.154824 
L 384.700573 282.680471 
L 386.924234 282.680471 
L 387.368966 281.731765 
L 387.813699 281.731765 
L 388.258431 283.629176 
L 388.703163 283.629176 
L 389.147895 285.052235 
L 389.592628 285.052235 
L 390.03736 285.526588 
L 390.482092 285.526588 
L 390.926824 286.949647 
L 391.371557 286.949647 
L 391.816289 286.475294 
L 393.150486 286.475294 
L 393.595218 287.898353 
L 394.03995 287.898353 
L 394.484682 286.949647 
L 394.929415 286.949647 
L 395.374147 285.526588 
L 398.487273 285.526588 
L 398.487273 285.526588 
" clip-path="url(#pb87c85a883)" style="fill: none; stroke-dasharray: 1.85,0.8; stroke-dashoffset: 0; stroke: #d4dd80; stroke-width: 0.5"/>
   </g>
   <g id="line2d_18">
    <path d="M 73.832727 295.488 
L 118.750685 295.488 
L 119.195417 295.013647 
L 124.087472 295.013647 
L 124.532204 294.064941 
L 126.755866 294.064941 
L 127.200598 293.590588 
L 127.64533 293.590588 
L 128.090062 293.116235 
L 128.534795 293.116235 
L 128.979527 290.744471 
L 130.313724 290.744471 
L 130.758456 290.270118 
L 132.982117 290.270118 
L 133.426849 288.847059 
L 133.871582 288.847059 
L 134.316314 286.475294 
L 134.761046 286.475294 
L 135.205778 285.526588 
L 135.650511 285.526588 
L 136.095243 281.731765 
L 136.539975 281.731765 
L 136.984707 280.783059 
L 137.42944 280.783059 
L 137.874172 276.513882 
L 138.318904 276.513882 
L 138.763636 274.616471 
L 139.208369 274.616471 
L 139.653101 272.719059 
L 140.987298 272.719059 
L 141.43203 267.975529 
L 141.876762 267.975529 
L 142.321494 264.655059 
L 142.766227 264.655059 
L 143.210959 262.757647 
L 143.655691 262.757647 
L 144.100423 262.283294 
L 145.43462 262.283294 
L 145.879352 257.539765 
L 146.324085 257.539765 
L 146.768817 254.219294 
L 147.213549 254.219294 
L 147.658281 248.527059 
L 148.103014 248.527059 
L 148.547746 243.783529 
L 148.992478 243.783529 
L 149.43721 240.937412 
L 149.881943 240.937412 
L 150.326675 241.411765 
L 151.660872 241.411765 
L 152.105604 230.501647 
L 152.550336 230.501647 
L 152.995068 229.078588 
L 153.439801 229.078588 
L 153.884533 219.117176 
L 154.329265 219.117176 
L 154.773998 215.796706 
L 155.21873 215.796706 
L 155.663462 216.745412 
L 156.108194 216.745412 
L 156.552927 218.168471 
L 156.997659 218.168471 
L 157.442391 217.694118 
L 157.887123 217.694118 
L 158.331856 221.488941 
L 158.776588 221.488941 
L 159.22132 210.104471 
L 159.666052 210.104471 
L 160.110785 212.476235 
L 160.555517 212.476235 
L 161.000249 212.950588 
L 161.444981 212.950588 
L 161.889714 212.001882 
L 162.334446 212.001882 
L 162.779178 208.207059 
L 163.22391 208.207059 
L 163.668643 204.412235 
L 164.113375 204.412235 
L 164.558107 203.937882 
L 165.002839 203.937882 
L 165.447572 204.886588 
L 165.892304 204.886588 
L 166.337036 204.412235 
L 166.781768 204.412235 
L 167.226501 198.72 
L 167.671233 198.72 
L 168.115965 197.296941 
L 168.560697 197.296941 
L 169.00543 198.72 
L 169.450162 198.72 
L 169.894894 189.707294 
L 170.339626 189.707294 
L 170.784359 191.130353 
L 171.229091 191.130353 
L 171.673823 182.592 
L 172.118555 182.592 
L 172.563288 174.528 
L 173.00802 174.528 
L 173.452752 173.104941 
L 173.897484 173.104941 
L 174.342217 178.797176 
L 174.786949 178.797176 
L 175.231681 175.951059 
L 175.676413 175.951059 
L 176.121146 182.592 
L 176.565878 182.592 
L 177.01061 181.168941 
L 177.455342 181.168941 
L 177.900075 178.322824 
L 178.344807 178.322824 
L 178.789539 172.156235 
L 179.234271 172.156235 
L 179.679004 164.566588 
L 180.123736 164.566588 
L 180.568468 159.823059 
L 181.0132 159.823059 
L 181.457933 168.835765 
L 181.902665 168.835765 
L 182.347397 157.925647 
L 183.681594 157.925647 
L 184.126326 149.861647 
L 184.571059 149.861647 
L 185.015791 152.707765 
L 185.460523 152.707765 
L 185.905255 159.823059 
L 186.349988 159.823059 
L 186.79472 158.874353 
L 187.239452 158.874353 
L 187.684184 153.182118 
L 188.128917 153.182118 
L 188.573649 139.900235 
L 189.018381 139.900235 
L 189.463113 144.169412 
L 189.907846 144.169412 
L 190.352578 137.528471 
L 190.79731 137.528471 
L 191.242042 132.784941 
L 191.686775 132.784941 
L 192.131507 145.118118 
L 192.576239 145.118118 
L 193.020971 147.489882 
L 193.465704 147.489882 
L 193.910436 156.976941 
L 194.355168 156.976941 
L 194.7999 160.297412 
L 195.244633 160.297412 
L 195.689365 157.451294 
L 196.134097 157.451294 
L 196.578829 159.348706 
L 197.023562 159.348706 
L 197.468294 158.874353 
L 198.802491 158.874353 
L 199.247223 163.143529 
L 199.691955 163.143529 
L 200.136687 160.771765 
L 200.58142 160.771765 
L 201.026152 156.502588 
L 201.470884 156.502588 
L 201.915616 163.617882 
L 202.360349 163.617882 
L 202.805081 165.040941 
L 203.249813 165.040941 
L 203.694545 155.079529 
L 204.139278 155.079529 
L 204.58401 160.771765 
L 205.028742 160.771765 
L 205.473474 154.130824 
L 205.918207 154.130824 
L 206.362939 162.194824 
L 206.807671 162.194824 
L 207.252403 156.976941 
L 207.697136 156.976941 
L 208.141868 151.759059 
L 208.5866 151.759059 
L 209.031333 151.284706 
L 209.476065 151.284706 
L 209.920797 157.451294 
L 210.365529 157.451294 
L 210.810262 168.835765 
L 211.254994 168.835765 
L 211.699726 166.938353 
L 212.144458 166.938353 
L 212.589191 165.515294 
L 213.033923 165.515294 
L 213.478655 170.733176 
L 213.923387 170.733176 
L 214.36812 169.784471 
L 214.812852 169.784471 
L 215.257584 165.040941 
L 215.702316 165.040941 
L 216.147049 155.079529 
L 216.591781 155.079529 
L 217.036513 159.348706 
L 217.481245 159.348706 
L 217.925978 149.861647 
L 218.37071 149.861647 
L 218.815442 153.182118 
L 219.260174 153.182118 
L 219.704907 155.553882 
L 220.149639 155.553882 
L 220.594371 156.976941 
L 221.039103 156.976941 
L 221.483836 150.810353 
L 221.928568 150.810353 
L 222.3733 155.553882 
L 222.818032 155.553882 
L 223.262765 166.938353 
L 223.707497 166.938353 
L 224.152229 161.246118 
L 224.596961 161.246118 
L 225.041694 162.669176 
L 225.486426 162.669176 
L 225.931158 174.528 
L 226.37589 174.528 
L 226.820623 178.797176 
L 227.265355 178.797176 
L 227.710087 170.733176 
L 229.044284 170.733176 
L 229.489016 158.4 
L 229.933748 158.4 
L 230.378481 159.348706 
L 230.823213 159.348706 
L 231.267945 152.707765 
L 231.712677 152.707765 
L 232.15741 153.182118 
L 232.602142 153.182118 
L 233.046874 154.130824 
L 233.491606 154.130824 
L 233.936339 156.502588 
L 234.381071 156.502588 
L 234.825803 164.092235 
L 235.270535 164.092235 
L 235.715268 166.464 
L 236.16 166.464 
L 236.604732 165.989647 
L 237.049465 165.989647 
L 237.494197 171.207529 
L 237.938929 171.207529 
L 238.383661 179.745882 
L 238.828394 179.745882 
L 239.273126 176.425412 
L 239.717858 176.425412 
L 240.16259 192.079059 
L 240.607323 192.079059 
L 241.052055 191.604706 
L 241.496787 191.604706 
L 241.941519 193.502118 
L 242.386252 193.502118 
L 242.830984 193.027765 
L 243.275716 193.027765 
L 243.720448 199.194353 
L 244.165181 199.194353 
L 244.609913 197.296941 
L 245.054645 197.296941 
L 245.499377 191.130353 
L 245.94411 191.130353 
L 246.388842 187.335529 
L 246.833574 179.745882 
L 247.278306 181.643294 
L 247.723039 181.643294 
L 248.167771 181.168941 
L 248.612503 180.220235 
L 249.057235 182.117647 
L 249.501968 178.322824 
L 249.9467 194.450824 
L 250.391432 194.450824 
L 250.836164 196.822588 
L 251.280897 193.976471 
L 251.725629 211.527529 
L 252.170361 209.630118 
L 252.615093 215.322353 
L 253.059826 214.848 
L 253.504558 225.758118 
L 253.94929 218.168471 
L 254.394022 217.219765 
L 254.838755 213.424941 
L 255.283487 215.322353 
L 255.728219 214.373647 
L 256.172951 214.848 
L 256.617684 214.848 
L 257.062416 219.117176 
L 257.507148 217.694118 
L 257.95188 217.219765 
L 258.396613 217.219765 
L 258.841345 212.950588 
L 259.286077 210.104471 
L 259.730809 208.681412 
L 260.175542 208.681412 
L 260.620274 212.476235 
L 261.065006 212.001882 
L 261.509738 213.424941 
L 261.954471 212.001882 
L 262.399203 199.668706 
L 262.843935 196.822588 
L 263.288667 197.296941 
L 263.7334 193.502118 
L 264.178132 193.976471 
L 264.622864 193.976471 
L 265.067597 196.348235 
L 265.512329 195.873882 
L 265.957061 196.348235 
L 266.401793 196.348235 
L 266.846526 199.194353 
L 267.291258 199.194353 
L 267.73599 204.886588 
L 268.180722 204.886588 
L 268.625455 216.271059 
L 269.070187 221.963294 
L 269.959651 221.963294 
L 270.404384 223.860706 
L 270.849116 223.860706 
L 271.293848 219.591529 
L 271.73858 220.540235 
L 272.628045 220.540235 
L 273.072777 221.014588 
L 273.517509 223.860706 
L 273.962242 224.809412 
L 274.406974 226.706824 
L 274.851706 226.232471 
L 275.741171 223.386353 
L 276.185903 230.976 
L 276.630635 231.924706 
L 277.075367 235.245176 
L 277.5201 235.245176 
L 278.409564 234.296471 
L 278.854296 232.873412 
L 279.299029 235.245176 
L 279.743761 236.668235 
L 280.188493 232.399059 
L 280.633225 232.399059 
L 281.077958 239.514353 
L 281.52269 238.091294 
L 281.967422 239.988706 
L 282.412154 239.988706 
L 282.856887 238.565647 
L 283.746351 239.514353 
L 284.191083 240.937412 
L 284.635816 253.744941 
L 285.080548 256.591059 
L 285.970012 254.693647 
L 286.414745 249.950118 
L 287.304209 249.950118 
L 287.748941 246.629647 
L 288.193674 246.629647 
L 288.638406 246.155294 
L 289.083138 245.206588 
L 289.52787 241.886118 
L 289.972603 242.360471 
L 290.417335 241.411765 
L 290.862067 240.937412 
L 291.3068 242.834824 
L 291.751532 241.411765 
L 292.640996 241.411765 
L 293.085729 239.988706 
L 293.530461 244.732235 
L 293.975193 247.578353 
L 295.30939 247.578353 
L 296.198854 243.783529 
L 297.088319 242.834824 
L 297.533051 244.257882 
L 297.977783 246.155294 
L 298.422516 246.155294 
L 298.867248 245.680941 
L 299.31198 244.732235 
L 299.756712 242.360471 
L 300.201445 242.834824 
L 300.646177 243.783529 
L 301.535641 243.783529 
L 301.980374 242.360471 
L 302.425106 247.104 
L 302.869838 247.104 
L 303.31457 248.052706 
L 303.759303 252.321882 
L 304.204035 252.321882 
L 304.648767 248.052706 
L 305.093499 246.629647 
L 305.538232 246.629647 
L 305.982964 248.052706 
L 306.427696 247.104 
L 307.317161 247.104 
L 307.761893 248.052706 
L 308.651357 258.014118 
L 309.09609 257.065412 
L 309.540822 256.591059 
L 309.985554 259.911529 
L 310.430286 258.488471 
L 310.875019 258.014118 
L 311.319751 256.591059 
L 311.764483 258.014118 
L 312.209215 256.591059 
L 312.653948 257.065412 
L 313.09868 257.065412 
L 313.543412 255.168 
L 313.988144 255.642353 
L 314.432877 255.642353 
L 314.877609 254.693647 
L 315.322341 250.898824 
L 315.767073 248.527059 
L 316.211806 248.052706 
L 316.656538 248.052706 
L 317.10127 247.104 
L 317.546002 247.104 
L 318.435467 250.898824 
L 318.880199 251.373176 
L 319.324932 252.796235 
L 319.769664 253.270588 
L 320.659128 249.475765 
L 321.103861 249.950118 
L 321.548593 251.373176 
L 322.438057 253.270588 
L 323.772254 253.270588 
L 324.216986 254.219294 
L 324.661719 253.744941 
L 325.551183 253.744941 
L 325.995915 252.321882 
L 326.440648 252.321882 
L 326.88538 256.591059 
L 327.330112 258.014118 
L 327.774844 257.065412 
L 328.219577 257.065412 
L 328.664309 258.014118 
L 329.109041 258.014118 
L 329.553773 257.539765 
L 330.443238 257.539765 
L 330.88797 255.642353 
L 331.332702 254.693647 
L 331.777435 254.693647 
L 332.222167 255.168 
L 332.666899 256.591059 
L 333.111631 257.065412 
L 334.001096 261.334588 
L 334.445828 262.757647 
L 334.89056 263.232 
L 335.335293 260.860235 
L 335.780025 260.860235 
L 336.224757 261.334588 
L 336.669489 260.385882 
L 337.114222 261.334588 
L 337.558954 267.501176 
L 338.003686 270.347294 
L 338.448418 270.347294 
L 338.893151 269.872941 
L 339.337883 270.821647 
L 339.782615 268.924235 
L 340.227347 265.603765 
L 340.67208 265.603765 
L 341.116812 264.655059 
L 342.006276 264.655059 
L 342.895741 266.552471 
L 343.785205 266.552471 
L 344.67467 265.603765 
L 345.119402 265.603765 
L 345.564134 267.026824 
L 346.008867 267.026824 
L 346.453599 267.501176 
L 347.787796 267.501176 
L 348.232528 267.975529 
L 349.121993 267.975529 
L 349.566725 269.398588 
L 350.011457 270.347294 
L 350.456189 270.821647 
L 350.900922 269.398588 
L 351.345654 269.398588 
L 351.790386 269.872941 
L 352.679851 269.872941 
L 353.569315 273.667765 
L 354.014047 273.193412 
L 354.45878 271.770353 
L 356.237709 271.770353 
L 356.682441 271.296 
L 357.127173 271.296 
L 358.016638 275.565176 
L 358.46137 276.039529 
L 358.906102 274.616471 
L 359.350834 271.770353 
L 359.795567 269.872941 
L 360.240299 269.872941 
L 360.685031 269.398588 
L 361.129763 269.872941 
L 361.574496 269.872941 
L 362.019228 271.296 
L 362.46396 273.667765 
L 362.908692 273.193412 
L 363.353425 274.142118 
L 363.798157 274.142118 
L 364.242889 273.667765 
L 365.132354 275.565176 
L 365.577086 275.565176 
L 366.021818 274.616471 
L 366.46655 276.513882 
L 366.911283 276.988235 
L 367.356015 276.988235 
L 367.800747 276.039529 
L 368.690212 276.039529 
L 369.134944 275.565176 
L 369.579676 275.565176 
L 370.024408 274.616471 
L 370.469141 274.616471 
L 370.913873 272.719059 
L 371.358605 271.770353 
L 371.803337 271.770353 
L 372.24807 270.821647 
L 372.692802 270.821647 
L 373.137534 272.244706 
L 374.916463 272.244706 
L 375.361196 271.770353 
L 375.805928 270.821647 
L 376.25066 271.770353 
L 376.695392 272.244706 
L 377.140125 271.296 
L 377.584857 271.770353 
L 378.029589 271.296 
L 378.919054 271.296 
L 379.363786 270.347294 
L 379.808518 270.821647 
L 380.697983 270.821647 
L 382.032179 277.936941 
L 382.476912 276.513882 
L 382.921644 277.462588 
L 383.366376 277.462588 
L 383.811108 276.988235 
L 384.700573 277.936941 
L 385.145305 274.616471 
L 385.590037 273.667765 
L 386.479502 273.667765 
L 386.924234 273.193412 
L 387.813699 273.193412 
L 388.258431 274.142118 
L 389.592628 274.142118 
L 390.03736 275.090824 
L 390.482092 275.090824 
L 390.926824 274.142118 
L 391.371557 274.616471 
L 391.816289 274.616471 
L 392.705753 276.513882 
L 393.150486 278.411294 
L 393.595218 278.885647 
L 394.03995 278.885647 
L 394.484682 279.36 
L 396.708344 279.36 
L 397.153076 277.936941 
L 397.597808 278.411294 
L 398.04254 279.36 
L 398.487273 278.885647 
L 398.487273 278.885647 
" clip-path="url(#pb87c85a883)" style="fill: none; stroke-dasharray: 1.85,0.8; stroke-dashoffset: 0; stroke: #ff0000; stroke-width: 0.5"/>
   </g>
   <g id="patch_3">
    <path d="M 57.6 307.584 
L 57.6 41.472 
" style="fill: none; stroke: #000000; stroke-width: 0.8; stroke-linejoin: miter; stroke-linecap: square"/>
   </g>
   <g id="patch_4">
    <path d="M 414.72 307.584 
L 414.72 41.472 
" style="fill: none; stroke: #000000; stroke-width: 0.8; stroke-linejoin: miter; stroke-linecap: square"/>
   </g>
   <g id="patch_5">
    <path d="M 57.6 307.584 
L 414.72 307.584 
" style="fill: none; stroke: #000000; stroke-width: 0.8; stroke-linejoin: miter; stroke-linecap: square"/>
   </g>
   <g id="patch_6">
    <path d="M 57.6 41.472 
L 414.72 41.472 
" style="fill: none; stroke: #000000; stroke-width: 0.8; stroke-linejoin: miter; stroke-linecap: square"/>
   </g>
   <g id="text_17">
    <!-- Heating Rate ($^{\circ}C.s^{-1}$) -->
    <g transform="translate(271.872 68.0832) scale(0.12 -0.12)">
     <defs>
      <path id="DejaVuSans-48" d="M 628 4666 
L 1259 4666 
L 1259 2753 
L 3553 2753 
L 3553 4666 
L 4184 4666 
L 4184 0 
L 3553 0 
L 3553 2222 
L 1259 2222 
L 1259 0 
L 628 0 
L 628 4666 
z
" transform="scale(0.015625)"/>
      <path id="DejaVuSans-67" d="M 2906 1791 
Q 2906 2416 2648 2759 
Q 2391 3103 1925 3103 
Q 1463 3103 1205 2759 
Q 947 2416 947 1791 
Q 947 1169 1205 825 
Q 1463 481 1925 481 
Q 2391 481 2648 825 
Q 2906 1169 2906 1791 
z
M 3481 434 
Q 3481 -459 3084 -895 
Q 2688 -1331 1869 -1331 
Q 1566 -1331 1297 -1286 
Q 1028 -1241 775 -1147 
L 775 -588 
Q 1028 -725 1275 -790 
Q 1522 -856 1778 -856 
Q 2344 -856 2625 -561 
Q 2906 -266 2906 331 
L 2906 616 
Q 2728 306 2450 153 
Q 2172 0 1784 0 
Q 1141 0 747 490 
Q 353 981 353 1791 
Q 353 2603 747 3093 
Q 1141 3584 1784 3584 
Q 2172 3584 2450 3431 
Q 2728 3278 2906 2969 
L 2906 3500 
L 3481 3500 
L 3481 434 
z
" transform="scale(0.015625)"/>
      <path id="DejaVuSans-52" d="M 2841 2188 
Q 3044 2119 3236 1894 
Q 3428 1669 3622 1275 
L 4263 0 
L 3584 0 
L 2988 1197 
Q 2756 1666 2539 1819 
Q 2322 1972 1947 1972 
L 1259 1972 
L 1259 0 
L 628 0 
L 628 4666 
L 2053 4666 
Q 2853 4666 3247 4331 
Q 3641 3997 3641 3322 
Q 3641 2881 3436 2590 
Q 3231 2300 2841 2188 
z
M 1259 4147 
L 1259 2491 
L 2053 2491 
Q 2509 2491 2742 2702 
Q 2975 2913 2975 3322 
Q 2975 3731 2742 3939 
Q 2509 4147 2053 4147 
L 1259 4147 
z
" transform="scale(0.015625)"/>
      <path id="DejaVuSans-2e" d="M 684 794 
L 1344 794 
L 1344 0 
L 684 0 
L 684 794 
z
" transform="scale(0.015625)"/>
      <path id="DejaVuSans-Oblique-73" d="M 3200 3397 
L 3091 2853 
Q 2863 2978 2609 3040 
Q 2356 3103 2088 3103 
Q 1634 3103 1373 2948 
Q 1113 2794 1113 2528 
Q 1113 2219 1719 2053 
Q 1766 2041 1788 2034 
L 1972 1978 
Q 2547 1819 2739 1644 
Q 2931 1469 2931 1166 
Q 2931 609 2489 259 
Q 2047 -91 1331 -91 
Q 1053 -91 747 -37 
Q 441 16 72 128 
L 184 722 
Q 500 559 806 475 
Q 1113 391 1394 391 
Q 1816 391 2080 572 
Q 2344 753 2344 1031 
Q 2344 1331 1650 1516 
L 1591 1531 
L 1394 1581 
Q 956 1697 753 1886 
Q 550 2075 550 2369 
Q 550 2928 970 3256 
Q 1391 3584 2113 3584 
Q 2397 3584 2667 3537 
Q 2938 3491 3200 3397 
z
" transform="scale(0.015625)"/>
     </defs>
     <use xlink:href="#DejaVuSans-48" transform="translate(0 0.684375)"/>
     <use xlink:href="#DejaVuSans-65" transform="translate(75.195312 0.684375)"/>
     <use xlink:href="#DejaVuSans-61" transform="translate(136.71875 0.684375)"/>
     <use xlink:href="#DejaVuSans-74" transform="translate(197.998047 0.684375)"/>
     <use xlink:href="#DejaVuSans-69" transform="translate(237.207031 0.684375)"/>
     <use xlink:href="#DejaVuSans-6e" transform="translate(264.990234 0.684375)"/>
     <use xlink:href="#DejaVuSans-67" transform="translate(328.369141 0.684375)"/>
     <use xlink:href="#DejaVuSans-20" transform="translate(391.845703 0.684375)"/>
     <use xlink:href="#DejaVuSans-52" transform="translate(423.632812 0.684375)"/>
     <use xlink:href="#DejaVuSans-61" transform="translate(493.115234 0.684375)"/>
     <use xlink:href="#DejaVuSans-74" transform="translate(554.394531 0.684375)"/>
     <use xlink:href="#DejaVuSans-65" transform="translate(593.603516 0.684375)"/>
     <use xlink:href="#DejaVuSans-20" transform="translate(655.126953 0.684375)"/>
     <use xlink:href="#DejaVuSans-28" transform="translate(686.914062 0.684375)"/>
     <use xlink:href="#DejaVuSans-2218" transform="translate(726.884766 38.965625) scale(0.7)"/>
     <use xlink:href="#DejaVuSans-Oblique-43" transform="translate(773.4375 0.684375)"/>
     <use xlink:href="#DejaVuSans-2e" transform="translate(843.261719 0.684375)"/>
     <use xlink:href="#DejaVuSans-Oblique-73" transform="translate(894.53125 0.684375)"/>
     <use xlink:href="#DejaVuSans-2212" transform="translate(951.280755 38.965625) scale(0.7)"/>
     <use xlink:href="#DejaVuSans-31" transform="translate(1009.933099 38.965625) scale(0.7)"/>
     <use xlink:href="#DejaVuSans-29" transform="translate(1057.203607 0.684375)"/>
    </g>
   </g>
   <g id="legend_1">
    <g id="patch_7">
     <path d="M 314.584 134.7957 
L 362.487125 134.7957 
Q 364.487125 134.7957 364.487125 132.7957 
L 364.487125 75.0832 
Q 364.487125 73.0832 362.487125 73.0832 
L 314.584 73.0832 
Q 312.584 73.0832 312.584 75.0832 
L 312.584 132.7957 
Q 312.584 134.7957 314.584 134.7957 
z
" style="fill: #ffffff; opacity: 0.8; stroke: #cccccc; stroke-linejoin: miter"/>
    </g>
    <g id="line2d_19">
     <path d="M 316.584 81.181637 
L 326.584 81.181637 
L 336.584 81.181637 
" style="fill: none; stroke-dasharray: 1.85,0.8; stroke-dashoffset: 0; stroke: #8000ff; stroke-width: 0.5"/>
    </g>
    <g id="text_18">
     <!-- 0.1 -->
     <g transform="translate(344.584 84.681637) scale(0.1 -0.1)">
      <use xlink:href="#DejaVuSans-30"/>
      <use xlink:href="#DejaVuSans-2e" transform="translate(63.623047 0)"/>
      <use xlink:href="#DejaVuSans-31" transform="translate(95.410156 0)"/>
     </g>
    </g>
    <g id="line2d_20">
     <path d="M 316.584 95.859762 
L 326.584 95.859762 
L 336.584 95.859762 
" style="fill: none; stroke-dasharray: 1.85,0.8; stroke-dashoffset: 0; stroke: #2adddd; stroke-width: 0.5"/>
    </g>
    <g id="text_19">
     <!-- 1 -->
     <g transform="translate(344.584 99.359762) scale(0.1 -0.1)">
      <use xlink:href="#DejaVuSans-31"/>
     </g>
    </g>
    <g id="line2d_21">
     <path d="M 316.584 110.537887 
L 326.584 110.537887 
L 336.584 110.537887 
" style="fill: none; stroke-dasharray: 1.85,0.8; stroke-dashoffset: 0; stroke: #d4dd80; stroke-width: 0.5"/>
    </g>
    <g id="text_20">
     <!-- 5 -->
     <g transform="translate(344.584 114.037887) scale(0.1 -0.1)">
      <use xlink:href="#DejaVuSans-35"/>
     </g>
    </g>
    <g id="line2d_22">
     <path d="M 316.584 125.216012 
L 326.584 125.216012 
L 336.584 125.216012 
" style="fill: none; stroke-dasharray: 1.85,0.8; stroke-dashoffset: 0; stroke: #ff0000; stroke-width: 0.5"/>
    </g>
    <g id="text_21">
     <!-- 20 -->
     <g transform="translate(344.584 128.716012) scale(0.1 -0.1)">
      <use xlink:href="#DejaVuSans-32"/>
      <use xlink:href="#DejaVuSans-30" transform="translate(63.623047 0)"/>
     </g>
    </g>
   </g>
  </g>
 </g>
 <defs>
  <clipPath id="pb87c85a883">
   <rect x="57.6" y="41.472" width="357.12" height="266.112"/>
  </clipPath>
 </defs>
</svg>
