<?xml version="1.0" encoding="utf-8" standalone="no"?>
<!DOCTYPE svg PUBLIC "-//W3C//DTD SVG 1.1//EN"
  "http://www.w3.org/Graphics/SVG/1.1/DTD/svg11.dtd">
<svg xmlns:xlink="http://www.w3.org/1999/xlink" width="460.8pt" height="345.6pt" viewBox="0 0 460.8 345.6" xmlns="http://www.w3.org/2000/svg" version="1.1">
 <metadata>
  <rdf:RDF xmlns:dc="http://purl.org/dc/elements/1.1/" xmlns:cc="http://creativecommons.org/ns#" xmlns:rdf="http://www.w3.org/1999/02/22-rdf-syntax-ns#">
   <cc:Work>
    <dc:type rdf:resource="http://purl.org/dc/dcmitype/StillImage"/>
    <dc:date>2025-03-25T11:43:39.029962</dc:date>
    <dc:format>image/svg+xml</dc:format>
    <dc:creator>
     <cc:Agent>
      <dc:title>Matplotlib v3.10.0, https://matplotlib.org/</dc:title>
     </cc:Agent>
    </dc:creator>
   </cc:Work>
  </rdf:RDF>
 </metadata>
 <defs>
  <style type="text/css">*{stroke-linejoin: round; stroke-linecap: butt}</style>
 </defs>
 <g id="figure_1">
  <g id="patch_1">
   <path d="M 0 345.6 
L 460.8 345.6 
L 460.8 0 
L 0 0 
z
" style="fill: #ffffff"/>
  </g>
  <g id="axes_1">
   <g id="patch_2">
    <path d="M 57.6 307.584 
L 414.72 307.584 
L 414.72 41.472 
L 57.6 41.472 
z
" style="fill: #ffffff"/>
   </g>
   <g id="matplotlib.axis_1">
    <g id="xtick_1">
     <g id="line2d_1">
      <defs>
       <path id="md4d494c8ec" d="M 0 0 
L 0 3.5 
" style="stroke: #000000; stroke-width: 0.8"/>
      </defs>
      <g>
       <use xlink:href="#md4d494c8ec" x="126.152795" y="307.584" style="stroke: #000000; stroke-width: 0.8"/>
      </g>
     </g>
     <g id="text_1">
      <!-- $\mathdefault{10^{12}}$ -->
      <g transform="translate(115.102795 322.182437) scale(0.1 -0.1)">
       <defs>
        <path id="DejaVuSans-31" d="M 794 531 
L 1825 531 
L 1825 4091 
L 703 3866 
L 703 4441 
L 1819 4666 
L 2450 4666 
L 2450 531 
L 3481 531 
L 3481 0 
L 794 0 
L 794 531 
z
" transform="scale(0.015625)"/>
        <path id="DejaVuSans-30" d="M 2034 4250 
Q 1547 4250 1301 3770 
Q 1056 3291 1056 2328 
Q 1056 1369 1301 889 
Q 1547 409 2034 409 
Q 2525 409 2770 889 
Q 3016 1369 3016 2328 
Q 3016 3291 2770 3770 
Q 2525 4250 2034 4250 
z
M 2034 4750 
Q 2819 4750 3233 4129 
Q 3647 3509 3647 2328 
Q 3647 1150 3233 529 
Q 2819 -91 2034 -91 
Q 1250 -91 836 529 
Q 422 1150 422 2328 
Q 422 3509 836 4129 
Q 1250 4750 2034 4750 
z
" transform="scale(0.015625)"/>
        <path id="DejaVuSans-32" d="M 1228 531 
L 3431 531 
L 3431 0 
L 469 0 
L 469 531 
Q 828 903 1448 1529 
Q 2069 2156 2228 2338 
Q 2531 2678 2651 2914 
Q 2772 3150 2772 3378 
Q 2772 3750 2511 3984 
Q 2250 4219 1831 4219 
Q 1534 4219 1204 4116 
Q 875 4013 500 3803 
L 500 4441 
Q 881 4594 1212 4672 
Q 1544 4750 1819 4750 
Q 2544 4750 2975 4387 
Q 3406 4025 3406 3419 
Q 3406 3131 3298 2873 
Q 3191 2616 2906 2266 
Q 2828 2175 2409 1742 
Q 1991 1309 1228 531 
z
" transform="scale(0.015625)"/>
       </defs>
       <use xlink:href="#DejaVuSans-31" transform="translate(0 0.765625)"/>
       <use xlink:href="#DejaVuSans-30" transform="translate(63.623047 0.765625)"/>
       <use xlink:href="#DejaVuSans-31" transform="translate(128.203125 39.046875) scale(0.7)"/>
       <use xlink:href="#DejaVuSans-32" transform="translate(172.739258 39.046875) scale(0.7)"/>
      </g>
     </g>
    </g>
    <g id="xtick_2">
     <g id="line2d_2">
      <g>
       <use xlink:href="#md4d494c8ec" x="254.85172" y="307.584" style="stroke: #000000; stroke-width: 0.8"/>
      </g>
     </g>
     <g id="text_2">
      <!-- $\mathdefault{10^{13}}$ -->
      <g transform="translate(243.80172 322.182437) scale(0.1 -0.1)">
       <defs>
        <path id="DejaVuSans-33" d="M 2597 2516 
Q 3050 2419 3304 2112 
Q 3559 1806 3559 1356 
Q 3559 666 3084 287 
Q 2609 -91 1734 -91 
Q 1441 -91 1130 -33 
Q 819 25 488 141 
L 488 750 
Q 750 597 1062 519 
Q 1375 441 1716 441 
Q 2309 441 2620 675 
Q 2931 909 2931 1356 
Q 2931 1769 2642 2001 
Q 2353 2234 1838 2234 
L 1294 2234 
L 1294 2753 
L 1863 2753 
Q 2328 2753 2575 2939 
Q 2822 3125 2822 3475 
Q 2822 3834 2567 4026 
Q 2313 4219 1838 4219 
Q 1578 4219 1281 4162 
Q 984 4106 628 3988 
L 628 4550 
Q 988 4650 1302 4700 
Q 1616 4750 1894 4750 
Q 2613 4750 3031 4423 
Q 3450 4097 3450 3541 
Q 3450 3153 3228 2886 
Q 3006 2619 2597 2516 
z
" transform="scale(0.015625)"/>
       </defs>
       <use xlink:href="#DejaVuSans-31" transform="translate(0 0.765625)"/>
       <use xlink:href="#DejaVuSans-30" transform="translate(63.623047 0.765625)"/>
       <use xlink:href="#DejaVuSans-31" transform="translate(128.203125 39.046875) scale(0.7)"/>
       <use xlink:href="#DejaVuSans-33" transform="translate(172.739258 39.046875) scale(0.7)"/>
      </g>
     </g>
    </g>
    <g id="xtick_3">
     <g id="line2d_3">
      <g>
       <use xlink:href="#md4d494c8ec" x="383.550645" y="307.584" style="stroke: #000000; stroke-width: 0.8"/>
      </g>
     </g>
     <g id="text_3">
      <!-- $\mathdefault{10^{14}}$ -->
      <g transform="translate(372.500645 322.182437) scale(0.1 -0.1)">
       <defs>
        <path id="DejaVuSans-34" d="M 2419 4116 
L 825 1625 
L 2419 1625 
L 2419 4116 
z
M 2253 4666 
L 3047 4666 
L 3047 1625 
L 3713 1625 
L 3713 1100 
L 3047 1100 
L 3047 0 
L 2419 0 
L 2419 1100 
L 313 1100 
L 313 1709 
L 2253 4666 
z
" transform="scale(0.015625)"/>
       </defs>
       <use xlink:href="#DejaVuSans-31" transform="translate(0 0.684375)"/>
       <use xlink:href="#DejaVuSans-30" transform="translate(63.623047 0.684375)"/>
       <use xlink:href="#DejaVuSans-31" transform="translate(128.203125 38.965625) scale(0.7)"/>
       <use xlink:href="#DejaVuSans-34" transform="translate(172.739258 38.965625) scale(0.7)"/>
      </g>
     </g>
    </g>
    <g id="xtick_4">
     <g id="line2d_4">
      <defs>
       <path id="mcb87d3b0be" d="M 0 0 
L 0 2 
" style="stroke: #000000; stroke-width: 0.6"/>
      </defs>
      <g>
       <use xlink:href="#mcb87d3b0be" x="58.858862" y="307.584" style="stroke: #000000; stroke-width: 0.6"/>
      </g>
     </g>
    </g>
    <g id="xtick_5">
     <g id="line2d_5">
      <g>
       <use xlink:href="#mcb87d3b0be" x="74.938343" y="307.584" style="stroke: #000000; stroke-width: 0.6"/>
      </g>
     </g>
    </g>
    <g id="xtick_6">
     <g id="line2d_6">
      <g>
       <use xlink:href="#mcb87d3b0be" x="87.410558" y="307.584" style="stroke: #000000; stroke-width: 0.6"/>
      </g>
     </g>
    </g>
    <g id="xtick_7">
     <g id="line2d_7">
      <g>
       <use xlink:href="#mcb87d3b0be" x="97.601099" y="307.584" style="stroke: #000000; stroke-width: 0.6"/>
      </g>
     </g>
    </g>
    <g id="xtick_8">
     <g id="line2d_8">
      <g>
       <use xlink:href="#mcb87d3b0be" x="106.217079" y="307.584" style="stroke: #000000; stroke-width: 0.6"/>
      </g>
     </g>
    </g>
    <g id="xtick_9">
     <g id="line2d_9">
      <g>
       <use xlink:href="#mcb87d3b0be" x="113.68058" y="307.584" style="stroke: #000000; stroke-width: 0.6"/>
      </g>
     </g>
    </g>
    <g id="xtick_10">
     <g id="line2d_10">
      <g>
       <use xlink:href="#mcb87d3b0be" x="120.263855" y="307.584" style="stroke: #000000; stroke-width: 0.6"/>
      </g>
     </g>
    </g>
    <g id="xtick_11">
     <g id="line2d_11">
      <g>
       <use xlink:href="#mcb87d3b0be" x="164.895032" y="307.584" style="stroke: #000000; stroke-width: 0.6"/>
      </g>
     </g>
    </g>
    <g id="xtick_12">
     <g id="line2d_12">
      <g>
       <use xlink:href="#mcb87d3b0be" x="187.557787" y="307.584" style="stroke: #000000; stroke-width: 0.6"/>
      </g>
     </g>
    </g>
    <g id="xtick_13">
     <g id="line2d_13">
      <g>
       <use xlink:href="#mcb87d3b0be" x="203.637269" y="307.584" style="stroke: #000000; stroke-width: 0.6"/>
      </g>
     </g>
    </g>
    <g id="xtick_14">
     <g id="line2d_14">
      <g>
       <use xlink:href="#mcb87d3b0be" x="216.109483" y="307.584" style="stroke: #000000; stroke-width: 0.6"/>
      </g>
     </g>
    </g>
    <g id="xtick_15">
     <g id="line2d_15">
      <g>
       <use xlink:href="#mcb87d3b0be" x="226.300024" y="307.584" style="stroke: #000000; stroke-width: 0.6"/>
      </g>
     </g>
    </g>
    <g id="xtick_16">
     <g id="line2d_16">
      <g>
       <use xlink:href="#mcb87d3b0be" x="234.916004" y="307.584" style="stroke: #000000; stroke-width: 0.6"/>
      </g>
     </g>
    </g>
    <g id="xtick_17">
     <g id="line2d_17">
      <g>
       <use xlink:href="#mcb87d3b0be" x="242.379506" y="307.584" style="stroke: #000000; stroke-width: 0.6"/>
      </g>
     </g>
    </g>
    <g id="xtick_18">
     <g id="line2d_18">
      <g>
       <use xlink:href="#mcb87d3b0be" x="248.96278" y="307.584" style="stroke: #000000; stroke-width: 0.6"/>
      </g>
     </g>
    </g>
    <g id="xtick_19">
     <g id="line2d_19">
      <g>
       <use xlink:href="#mcb87d3b0be" x="293.593957" y="307.584" style="stroke: #000000; stroke-width: 0.6"/>
      </g>
     </g>
    </g>
    <g id="xtick_20">
     <g id="line2d_20">
      <g>
       <use xlink:href="#mcb87d3b0be" x="316.256713" y="307.584" style="stroke: #000000; stroke-width: 0.6"/>
      </g>
     </g>
    </g>
    <g id="xtick_21">
     <g id="line2d_21">
      <g>
       <use xlink:href="#mcb87d3b0be" x="332.336194" y="307.584" style="stroke: #000000; stroke-width: 0.6"/>
      </g>
     </g>
    </g>
    <g id="xtick_22">
     <g id="line2d_22">
      <g>
       <use xlink:href="#mcb87d3b0be" x="344.808408" y="307.584" style="stroke: #000000; stroke-width: 0.6"/>
      </g>
     </g>
    </g>
    <g id="xtick_23">
     <g id="line2d_23">
      <g>
       <use xlink:href="#mcb87d3b0be" x="354.99895" y="307.584" style="stroke: #000000; stroke-width: 0.6"/>
      </g>
     </g>
    </g>
    <g id="xtick_24">
     <g id="line2d_24">
      <g>
       <use xlink:href="#mcb87d3b0be" x="363.61493" y="307.584" style="stroke: #000000; stroke-width: 0.6"/>
      </g>
     </g>
    </g>
    <g id="xtick_25">
     <g id="line2d_25">
      <g>
       <use xlink:href="#mcb87d3b0be" x="371.078431" y="307.584" style="stroke: #000000; stroke-width: 0.6"/>
      </g>
     </g>
    </g>
    <g id="xtick_26">
     <g id="line2d_26">
      <g>
       <use xlink:href="#mcb87d3b0be" x="377.661706" y="307.584" style="stroke: #000000; stroke-width: 0.6"/>
      </g>
     </g>
    </g>
    <g id="text_4">
     <!-- Log time  -->
     <g transform="translate(212.75375 335.860562) scale(0.1 -0.1)">
      <defs>
       <path id="DejaVuSans-4c" d="M 628 4666 
L 1259 4666 
L 1259 531 
L 3531 531 
L 3531 0 
L 628 0 
L 628 4666 
z
" transform="scale(0.015625)"/>
       <path id="DejaVuSans-6f" d="M 1959 3097 
Q 1497 3097 1228 2736 
Q 959 2375 959 1747 
Q 959 1119 1226 758 
Q 1494 397 1959 397 
Q 2419 397 2687 759 
Q 2956 1122 2956 1747 
Q 2956 2369 2687 2733 
Q 2419 3097 1959 3097 
z
M 1959 3584 
Q 2709 3584 3137 3096 
Q 3566 2609 3566 1747 
Q 3566 888 3137 398 
Q 2709 -91 1959 -91 
Q 1206 -91 779 398 
Q 353 888 353 1747 
Q 353 2609 779 3096 
Q 1206 3584 1959 3584 
z
" transform="scale(0.015625)"/>
       <path id="DejaVuSans-67" d="M 2906 1791 
Q 2906 2416 2648 2759 
Q 2391 3103 1925 3103 
Q 1463 3103 1205 2759 
Q 947 2416 947 1791 
Q 947 1169 1205 825 
Q 1463 481 1925 481 
Q 2391 481 2648 825 
Q 2906 1169 2906 1791 
z
M 3481 434 
Q 3481 -459 3084 -895 
Q 2688 -1331 1869 -1331 
Q 1566 -1331 1297 -1286 
Q 1028 -1241 775 -1147 
L 775 -588 
Q 1028 -725 1275 -790 
Q 1522 -856 1778 -856 
Q 2344 -856 2625 -561 
Q 2906 -266 2906 331 
L 2906 616 
Q 2728 306 2450 153 
Q 2172 0 1784 0 
Q 1141 0 747 490 
Q 353 981 353 1791 
Q 353 2603 747 3093 
Q 1141 3584 1784 3584 
Q 2172 3584 2450 3431 
Q 2728 3278 2906 2969 
L 2906 3500 
L 3481 3500 
L 3481 434 
z
" transform="scale(0.015625)"/>
       <path id="DejaVuSans-20" transform="scale(0.015625)"/>
       <path id="DejaVuSans-74" d="M 1172 4494 
L 1172 3500 
L 2356 3500 
L 2356 3053 
L 1172 3053 
L 1172 1153 
Q 1172 725 1289 603 
Q 1406 481 1766 481 
L 2356 481 
L 2356 0 
L 1766 0 
Q 1100 0 847 248 
Q 594 497 594 1153 
L 594 3053 
L 172 3053 
L 172 3500 
L 594 3500 
L 594 4494 
L 1172 4494 
z
" transform="scale(0.015625)"/>
       <path id="DejaVuSans-69" d="M 603 3500 
L 1178 3500 
L 1178 0 
L 603 0 
L 603 3500 
z
M 603 4863 
L 1178 4863 
L 1178 4134 
L 603 4134 
L 603 4863 
z
" transform="scale(0.015625)"/>
       <path id="DejaVuSans-6d" d="M 3328 2828 
Q 3544 3216 3844 3400 
Q 4144 3584 4550 3584 
Q 5097 3584 5394 3201 
Q 5691 2819 5691 2113 
L 5691 0 
L 5113 0 
L 5113 2094 
Q 5113 2597 4934 2840 
Q 4756 3084 4391 3084 
Q 3944 3084 3684 2787 
Q 3425 2491 3425 1978 
L 3425 0 
L 2847 0 
L 2847 2094 
Q 2847 2600 2669 2842 
Q 2491 3084 2119 3084 
Q 1678 3084 1418 2786 
Q 1159 2488 1159 1978 
L 1159 0 
L 581 0 
L 581 3500 
L 1159 3500 
L 1159 2956 
Q 1356 3278 1631 3431 
Q 1906 3584 2284 3584 
Q 2666 3584 2933 3390 
Q 3200 3197 3328 2828 
z
" transform="scale(0.015625)"/>
       <path id="DejaVuSans-65" d="M 3597 1894 
L 3597 1613 
L 953 1613 
Q 991 1019 1311 708 
Q 1631 397 2203 397 
Q 2534 397 2845 478 
Q 3156 559 3463 722 
L 3463 178 
Q 3153 47 2828 -22 
Q 2503 -91 2169 -91 
Q 1331 -91 842 396 
Q 353 884 353 1716 
Q 353 2575 817 3079 
Q 1281 3584 2069 3584 
Q 2775 3584 3186 3129 
Q 3597 2675 3597 1894 
z
M 3022 2063 
Q 3016 2534 2758 2815 
Q 2500 3097 2075 3097 
Q 1594 3097 1305 2825 
Q 1016 2553 972 2059 
L 3022 2063 
z
" transform="scale(0.015625)"/>
      </defs>
      <use xlink:href="#DejaVuSans-4c"/>
      <use xlink:href="#DejaVuSans-6f" transform="translate(53.962891 0)"/>
      <use xlink:href="#DejaVuSans-67" transform="translate(115.144531 0)"/>
      <use xlink:href="#DejaVuSans-20" transform="translate(178.621094 0)"/>
      <use xlink:href="#DejaVuSans-74" transform="translate(210.408203 0)"/>
      <use xlink:href="#DejaVuSans-69" transform="translate(249.617188 0)"/>
      <use xlink:href="#DejaVuSans-6d" transform="translate(277.400391 0)"/>
      <use xlink:href="#DejaVuSans-65" transform="translate(374.8125 0)"/>
      <use xlink:href="#DejaVuSans-20" transform="translate(436.335938 0)"/>
     </g>
    </g>
   </g>
   <g id="matplotlib.axis_2">
    <g id="ytick_1">
     <g id="line2d_27">
      <defs>
       <path id="m74986c7fbb" d="M 0 0 
L -3.5 0 
" style="stroke: #000000; stroke-width: 0.8"/>
      </defs>
      <g>
       <use xlink:href="#m74986c7fbb" x="57.6" y="307.584" style="stroke: #000000; stroke-width: 0.8"/>
      </g>
     </g>
     <g id="text_5">
      <!-- 0.0 -->
      <g transform="translate(34.696875 311.383219) scale(0.1 -0.1)">
       <defs>
        <path id="DejaVuSans-2e" d="M 684 794 
L 1344 794 
L 1344 0 
L 684 0 
L 684 794 
z
" transform="scale(0.015625)"/>
       </defs>
       <use xlink:href="#DejaVuSans-30"/>
       <use xlink:href="#DejaVuSans-2e" transform="translate(63.623047 0)"/>
       <use xlink:href="#DejaVuSans-30" transform="translate(95.410156 0)"/>
      </g>
     </g>
    </g>
    <g id="ytick_2">
     <g id="line2d_28">
      <g>
       <use xlink:href="#m74986c7fbb" x="57.6" y="254.3616" style="stroke: #000000; stroke-width: 0.8"/>
      </g>
     </g>
     <g id="text_6">
      <!-- 0.2 -->
      <g transform="translate(34.696875 258.160819) scale(0.1 -0.1)">
       <use xlink:href="#DejaVuSans-30"/>
       <use xlink:href="#DejaVuSans-2e" transform="translate(63.623047 0)"/>
       <use xlink:href="#DejaVuSans-32" transform="translate(95.410156 0)"/>
      </g>
     </g>
    </g>
    <g id="ytick_3">
     <g id="line2d_29">
      <g>
       <use xlink:href="#m74986c7fbb" x="57.6" y="201.1392" style="stroke: #000000; stroke-width: 0.8"/>
      </g>
     </g>
     <g id="text_7">
      <!-- 0.4 -->
      <g transform="translate(34.696875 204.938419) scale(0.1 -0.1)">
       <use xlink:href="#DejaVuSans-30"/>
       <use xlink:href="#DejaVuSans-2e" transform="translate(63.623047 0)"/>
       <use xlink:href="#DejaVuSans-34" transform="translate(95.410156 0)"/>
      </g>
     </g>
    </g>
    <g id="ytick_4">
     <g id="line2d_30">
      <g>
       <use xlink:href="#m74986c7fbb" x="57.6" y="147.9168" style="stroke: #000000; stroke-width: 0.8"/>
      </g>
     </g>
     <g id="text_8">
      <!-- 0.6 -->
      <g transform="translate(34.696875 151.716019) scale(0.1 -0.1)">
       <defs>
        <path id="DejaVuSans-36" d="M 2113 2584 
Q 1688 2584 1439 2293 
Q 1191 2003 1191 1497 
Q 1191 994 1439 701 
Q 1688 409 2113 409 
Q 2538 409 2786 701 
Q 3034 994 3034 1497 
Q 3034 2003 2786 2293 
Q 2538 2584 2113 2584 
z
M 3366 4563 
L 3366 3988 
Q 3128 4100 2886 4159 
Q 2644 4219 2406 4219 
Q 1781 4219 1451 3797 
Q 1122 3375 1075 2522 
Q 1259 2794 1537 2939 
Q 1816 3084 2150 3084 
Q 2853 3084 3261 2657 
Q 3669 2231 3669 1497 
Q 3669 778 3244 343 
Q 2819 -91 2113 -91 
Q 1303 -91 875 529 
Q 447 1150 447 2328 
Q 447 3434 972 4092 
Q 1497 4750 2381 4750 
Q 2619 4750 2861 4703 
Q 3103 4656 3366 4563 
z
" transform="scale(0.015625)"/>
       </defs>
       <use xlink:href="#DejaVuSans-30"/>
       <use xlink:href="#DejaVuSans-2e" transform="translate(63.623047 0)"/>
       <use xlink:href="#DejaVuSans-36" transform="translate(95.410156 0)"/>
      </g>
     </g>
    </g>
    <g id="ytick_5">
     <g id="line2d_31">
      <g>
       <use xlink:href="#m74986c7fbb" x="57.6" y="94.6944" style="stroke: #000000; stroke-width: 0.8"/>
      </g>
     </g>
     <g id="text_9">
      <!-- 0.8 -->
      <g transform="translate(34.696875 98.493619) scale(0.1 -0.1)">
       <defs>
        <path id="DejaVuSans-38" d="M 2034 2216 
Q 1584 2216 1326 1975 
Q 1069 1734 1069 1313 
Q 1069 891 1326 650 
Q 1584 409 2034 409 
Q 2484 409 2743 651 
Q 3003 894 3003 1313 
Q 3003 1734 2745 1975 
Q 2488 2216 2034 2216 
z
M 1403 2484 
Q 997 2584 770 2862 
Q 544 3141 544 3541 
Q 544 4100 942 4425 
Q 1341 4750 2034 4750 
Q 2731 4750 3128 4425 
Q 3525 4100 3525 3541 
Q 3525 3141 3298 2862 
Q 3072 2584 2669 2484 
Q 3125 2378 3379 2068 
Q 3634 1759 3634 1313 
Q 3634 634 3220 271 
Q 2806 -91 2034 -91 
Q 1263 -91 848 271 
Q 434 634 434 1313 
Q 434 1759 690 2068 
Q 947 2378 1403 2484 
z
M 1172 3481 
Q 1172 3119 1398 2916 
Q 1625 2713 2034 2713 
Q 2441 2713 2670 2916 
Q 2900 3119 2900 3481 
Q 2900 3844 2670 4047 
Q 2441 4250 2034 4250 
Q 1625 4250 1398 4047 
Q 1172 3844 1172 3481 
z
" transform="scale(0.015625)"/>
       </defs>
       <use xlink:href="#DejaVuSans-30"/>
       <use xlink:href="#DejaVuSans-2e" transform="translate(63.623047 0)"/>
       <use xlink:href="#DejaVuSans-38" transform="translate(95.410156 0)"/>
      </g>
     </g>
    </g>
    <g id="ytick_6">
     <g id="line2d_32">
      <g>
       <use xlink:href="#m74986c7fbb" x="57.6" y="41.472" style="stroke: #000000; stroke-width: 0.8"/>
      </g>
     </g>
     <g id="text_10">
      <!-- 1.0 -->
      <g transform="translate(34.696875 45.271219) scale(0.1 -0.1)">
       <use xlink:href="#DejaVuSans-31"/>
       <use xlink:href="#DejaVuSans-2e" transform="translate(63.623047 0)"/>
       <use xlink:href="#DejaVuSans-30" transform="translate(95.410156 0)"/>
      </g>
     </g>
    </g>
    <g id="text_11">
     <!-- Percent of filled traps -->
     <g transform="translate(28.617187 227.95925) rotate(-90) scale(0.1 -0.1)">
      <defs>
       <path id="DejaVuSans-50" d="M 1259 4147 
L 1259 2394 
L 2053 2394 
Q 2494 2394 2734 2622 
Q 2975 2850 2975 3272 
Q 2975 3691 2734 3919 
Q 2494 4147 2053 4147 
L 1259 4147 
z
M 628 4666 
L 2053 4666 
Q 2838 4666 3239 4311 
Q 3641 3956 3641 3272 
Q 3641 2581 3239 2228 
Q 2838 1875 2053 1875 
L 1259 1875 
L 1259 0 
L 628 0 
L 628 4666 
z
" transform="scale(0.015625)"/>
       <path id="DejaVuSans-72" d="M 2631 2963 
Q 2534 3019 2420 3045 
Q 2306 3072 2169 3072 
Q 1681 3072 1420 2755 
Q 1159 2438 1159 1844 
L 1159 0 
L 581 0 
L 581 3500 
L 1159 3500 
L 1159 2956 
Q 1341 3275 1631 3429 
Q 1922 3584 2338 3584 
Q 2397 3584 2469 3576 
Q 2541 3569 2628 3553 
L 2631 2963 
z
" transform="scale(0.015625)"/>
       <path id="DejaVuSans-63" d="M 3122 3366 
L 3122 2828 
Q 2878 2963 2633 3030 
Q 2388 3097 2138 3097 
Q 1578 3097 1268 2742 
Q 959 2388 959 1747 
Q 959 1106 1268 751 
Q 1578 397 2138 397 
Q 2388 397 2633 464 
Q 2878 531 3122 666 
L 3122 134 
Q 2881 22 2623 -34 
Q 2366 -91 2075 -91 
Q 1284 -91 818 406 
Q 353 903 353 1747 
Q 353 2603 823 3093 
Q 1294 3584 2113 3584 
Q 2378 3584 2631 3529 
Q 2884 3475 3122 3366 
z
" transform="scale(0.015625)"/>
       <path id="DejaVuSans-6e" d="M 3513 2113 
L 3513 0 
L 2938 0 
L 2938 2094 
Q 2938 2591 2744 2837 
Q 2550 3084 2163 3084 
Q 1697 3084 1428 2787 
Q 1159 2491 1159 1978 
L 1159 0 
L 581 0 
L 581 3500 
L 1159 3500 
L 1159 2956 
Q 1366 3272 1645 3428 
Q 1925 3584 2291 3584 
Q 2894 3584 3203 3211 
Q 3513 2838 3513 2113 
z
" transform="scale(0.015625)"/>
       <path id="DejaVuSans-66" d="M 2375 4863 
L 2375 4384 
L 1825 4384 
Q 1516 4384 1395 4259 
Q 1275 4134 1275 3809 
L 1275 3500 
L 2222 3500 
L 2222 3053 
L 1275 3053 
L 1275 0 
L 697 0 
L 697 3053 
L 147 3053 
L 147 3500 
L 697 3500 
L 697 3744 
Q 697 4328 969 4595 
Q 1241 4863 1831 4863 
L 2375 4863 
z
" transform="scale(0.015625)"/>
       <path id="DejaVuSans-6c" d="M 603 4863 
L 1178 4863 
L 1178 0 
L 603 0 
L 603 4863 
z
" transform="scale(0.015625)"/>
       <path id="DejaVuSans-64" d="M 2906 2969 
L 2906 4863 
L 3481 4863 
L 3481 0 
L 2906 0 
L 2906 525 
Q 2725 213 2448 61 
Q 2172 -91 1784 -91 
Q 1150 -91 751 415 
Q 353 922 353 1747 
Q 353 2572 751 3078 
Q 1150 3584 1784 3584 
Q 2172 3584 2448 3432 
Q 2725 3281 2906 2969 
z
M 947 1747 
Q 947 1113 1208 752 
Q 1469 391 1925 391 
Q 2381 391 2643 752 
Q 2906 1113 2906 1747 
Q 2906 2381 2643 2742 
Q 2381 3103 1925 3103 
Q 1469 3103 1208 2742 
Q 947 2381 947 1747 
z
" transform="scale(0.015625)"/>
       <path id="DejaVuSans-61" d="M 2194 1759 
Q 1497 1759 1228 1600 
Q 959 1441 959 1056 
Q 959 750 1161 570 
Q 1363 391 1709 391 
Q 2188 391 2477 730 
Q 2766 1069 2766 1631 
L 2766 1759 
L 2194 1759 
z
M 3341 1997 
L 3341 0 
L 2766 0 
L 2766 531 
Q 2569 213 2275 61 
Q 1981 -91 1556 -91 
Q 1019 -91 701 211 
Q 384 513 384 1019 
Q 384 1609 779 1909 
Q 1175 2209 1959 2209 
L 2766 2209 
L 2766 2266 
Q 2766 2663 2505 2880 
Q 2244 3097 1772 3097 
Q 1472 3097 1187 3025 
Q 903 2953 641 2809 
L 641 3341 
Q 956 3463 1253 3523 
Q 1550 3584 1831 3584 
Q 2591 3584 2966 3190 
Q 3341 2797 3341 1997 
z
" transform="scale(0.015625)"/>
       <path id="DejaVuSans-70" d="M 1159 525 
L 1159 -1331 
L 581 -1331 
L 581 3500 
L 1159 3500 
L 1159 2969 
Q 1341 3281 1617 3432 
Q 1894 3584 2278 3584 
Q 2916 3584 3314 3078 
Q 3713 2572 3713 1747 
Q 3713 922 3314 415 
Q 2916 -91 2278 -91 
Q 1894 -91 1617 61 
Q 1341 213 1159 525 
z
M 3116 1747 
Q 3116 2381 2855 2742 
Q 2594 3103 2138 3103 
Q 1681 3103 1420 2742 
Q 1159 2381 1159 1747 
Q 1159 1113 1420 752 
Q 1681 391 2138 391 
Q 2594 391 2855 752 
Q 3116 1113 3116 1747 
z
" transform="scale(0.015625)"/>
       <path id="DejaVuSans-73" d="M 2834 3397 
L 2834 2853 
Q 2591 2978 2328 3040 
Q 2066 3103 1784 3103 
Q 1356 3103 1142 2972 
Q 928 2841 928 2578 
Q 928 2378 1081 2264 
Q 1234 2150 1697 2047 
L 1894 2003 
Q 2506 1872 2764 1633 
Q 3022 1394 3022 966 
Q 3022 478 2636 193 
Q 2250 -91 1575 -91 
Q 1294 -91 989 -36 
Q 684 19 347 128 
L 347 722 
Q 666 556 975 473 
Q 1284 391 1588 391 
Q 1994 391 2212 530 
Q 2431 669 2431 922 
Q 2431 1156 2273 1281 
Q 2116 1406 1581 1522 
L 1381 1569 
Q 847 1681 609 1914 
Q 372 2147 372 2553 
Q 372 3047 722 3315 
Q 1072 3584 1716 3584 
Q 2034 3584 2315 3537 
Q 2597 3491 2834 3397 
z
" transform="scale(0.015625)"/>
      </defs>
      <use xlink:href="#DejaVuSans-50"/>
      <use xlink:href="#DejaVuSans-65" transform="translate(56.677734 0)"/>
      <use xlink:href="#DejaVuSans-72" transform="translate(118.201172 0)"/>
      <use xlink:href="#DejaVuSans-63" transform="translate(157.064453 0)"/>
      <use xlink:href="#DejaVuSans-65" transform="translate(212.044922 0)"/>
      <use xlink:href="#DejaVuSans-6e" transform="translate(273.568359 0)"/>
      <use xlink:href="#DejaVuSans-74" transform="translate(336.947266 0)"/>
      <use xlink:href="#DejaVuSans-20" transform="translate(376.15625 0)"/>
      <use xlink:href="#DejaVuSans-6f" transform="translate(407.943359 0)"/>
      <use xlink:href="#DejaVuSans-66" transform="translate(469.125 0)"/>
      <use xlink:href="#DejaVuSans-20" transform="translate(504.330078 0)"/>
      <use xlink:href="#DejaVuSans-66" transform="translate(536.117188 0)"/>
      <use xlink:href="#DejaVuSans-69" transform="translate(571.322266 0)"/>
      <use xlink:href="#DejaVuSans-6c" transform="translate(599.105469 0)"/>
      <use xlink:href="#DejaVuSans-6c" transform="translate(626.888672 0)"/>
      <use xlink:href="#DejaVuSans-65" transform="translate(654.671875 0)"/>
      <use xlink:href="#DejaVuSans-64" transform="translate(716.195312 0)"/>
      <use xlink:href="#DejaVuSans-20" transform="translate(779.671875 0)"/>
      <use xlink:href="#DejaVuSans-74" transform="translate(811.458984 0)"/>
      <use xlink:href="#DejaVuSans-72" transform="translate(850.667969 0)"/>
      <use xlink:href="#DejaVuSans-61" transform="translate(891.78125 0)"/>
      <use xlink:href="#DejaVuSans-70" transform="translate(953.060547 0)"/>
      <use xlink:href="#DejaVuSans-73" transform="translate(1016.537109 0)"/>
     </g>
    </g>
   </g>
   <g id="line2d_33">
    <path d="M 73.832727 298.621348 
L 76.243599 298.333947 
L 79.712729 298.046546 
L 84.615966 297.759145 
L 85.12786 297.471744 
L 85.33901 297.205632 
L 87.088235 296.93952 
L 87.457473 296.705341 
L 87.457473 296.471163 
L 93.637889 296.024095 
L 95.192649 295.577027 
L 95.192649 295.353492 
L 95.558136 295.129958 
L 95.558136 294.906424 
L 96.515729 294.704179 
L 96.52927 294.033577 
L 99.403738 293.799398 
L 100.805956 293.35233 
L 100.805956 293.139441 
L 104.189344 292.905262 
L 104.189344 292.681728 
L 107.247647 292.458194 
L 107.959831 292.23466 
L 111.099337 292.02177 
L 111.304129 291.808881 
L 111.304129 291.595991 
L 112.299921 291.393746 
L 112.299921 291.191501 
L 113.711009 290.967967 
L 116.22274 290.744433 
L 116.283816 290.339942 
L 120.287959 290.137697 
L 120.287959 289.935452 
L 120.610555 289.733207 
L 122.439522 289.509673 
L 122.439522 289.307428 
L 124.085624 288.615537 
L 124.75003 288.168468 
L 124.75003 287.955579 
L 125.300523 287.7214 
L 127.211311 287.508511 
L 127.29282 287.040154 
L 131.188401 286.805975 
L 131.761688 286.092795 
L 134.448299 285.017702 
L 134.550567 283.825521 
L 135.352207 283.250719 
L 135.352207 282.942029 
L 135.528414 282.633339 
L 136.575368 282.345938 
L 136.779987 282.058537 
L 137.3759 281.760492 
L 137.446895 281.18569 
L 138.112038 280.887644 
L 138.112038 280.610888 
L 140.207265 279.450639 
L 140.329071 279.163238 
L 141.119679 278.599081 
L 141.803519 278.322324 
L 146.210219 277.481411 
L 146.97824 277.19401 
L 147.116518 276.906609 
L 147.116518 276.597919 
L 147.462984 275.991183 
L 147.779862 275.682493 
L 148.534858 275.384448 
L 148.534858 275.086403 
L 149.537286 274.490312 
L 149.537286 274.192266 
L 151.445233 273.894221 
L 152.493519 273.596175 
L 152.493519 273.29813 
L 154.706259 272.723328 
L 155.141993 272.18046 
L 161.720634 271.392768 
L 162.78475 270.63701 
L 163.071188 269.647073 
L 164.215947 269.391606 
L 166.181848 268.412314 
L 166.183174 268.178135 
L 166.93661 267.954601 
L 167.021371 267.464955 
L 167.492034 267.220132 
L 167.492034 266.95402 
L 168.595608 266.176973 
L 168.595608 265.921505 
L 169.109045 265.655393 
L 169.333924 265.378637 
L 171.828503 265.10188 
L 172.183273 264.835768 
L 172.183273 264.569656 
L 172.658239 264.324833 
L 174.827806 263.803254 
L 175.48129 263.068785 
L 175.670616 262.813317 
L 175.670616 262.547205 
L 175.919124 262.291738 
L 176.354313 262.03627 
L 176.354313 261.780803 
L 177.84439 260.993111 
L 177.959789 260.460887 
L 179.06514 260.184131 
L 179.11963 259.630618 
L 179.793311 259.332572 
L 179.837238 259.034527 
L 180.450574 258.736481 
L 180.781953 258.438436 
L 180.781953 258.161679 
L 180.930038 257.863634 
L 180.930038 257.586877 
L 181.27185 257.310121 
L 181.412722 257.044009 
L 181.412722 256.788541 
L 181.703442 256.522429 
L 182.311351 256.245673 
L 182.473093 255.968916 
L 183.448261 255.670871 
L 183.448261 255.372826 
L 185.054921 254.489334 
L 185.649406 253.64842 
L 185.65568 253.137485 
L 186.03669 252.62655 
L 186.234041 251.966592 
L 186.530028 251.753702 
L 186.530028 251.519524 
L 186.70411 251.306634 
L 186.70411 251.072456 
L 188.350195 250.412498 
L 188.831151 250.188964 
L 189.207414 249.763185 
L 189.594903 249.550295 
L 189.612882 249.092582 
L 189.892899 248.677448 
L 189.892899 248.464558 
L 190.679482 248.251668 
L 190.679482 248.038779 
L 190.968024 247.8046 
L 190.968024 247.591711 
L 191.287318 246.974331 
L 191.287318 246.761441 
L 191.795645 246.112128 
L 191.900809 245.66506 
L 193.390907 243.014584 
L 193.78108 242.812339 
L 193.948041 242.59945 
L 193.959103 242.17367 
L 195.630832 241.76918 
L 195.746708 241.545646 
L 196.010216 241.322112 
L 196.538704 241.109222 
L 196.561073 240.896333 
L 197.599027 239.587062 
L 197.632863 239.363528 
L 197.995271 238.937748 
L 197.995271 238.724859 
L 198.173864 238.522614 
L 199.041405 238.08619 
L 199.054031 237.383654 
L 199.418596 236.915297 
L 199.471537 235.680538 
L 200.049943 235.254758 
L 200.148059 234.626734 
L 200.938544 234.435133 
L 201.166678 234.222244 
L 201.250824 233.636797 
L 201.775897 233.264241 
L 202.340661 232.721372 
L 202.352115 232.540416 
L 203.201114 231.752724 
L 203.755367 231.539835 
L 203.983734 231.316301 
L 204.048764 230.400876 
L 204.099334 229.953807 
L 204.345065 229.719629 
L 204.406816 229.283205 
L 204.761282 229.070316 
L 204.761282 228.857426 
L 206.107709 228.197468 
L 206.147341 227.569444 
L 206.561367 226.962708 
L 207.159615 226.611441 
L 207.382966 226.441129 
L 208.4905 225.983416 
L 208.5639 225.664082 
L 208.758678 225.49377 
L 208.864129 225.195725 
L 209.283932 224.482545 
L 209.350609 224.035476 
L 210.431766 223.535186 
L 210.770743 223.194563 
L 211.286415 222.545249 
L 211.286415 222.374938 
L 211.521968 222.204626 
L 211.5813 221.161467 
L 213.365422 220.501509 
L 213.802578 220.150241 
L 214.131193 219.607373 
L 214.94186 218.936771 
L 214.94186 218.755814 
L 215.232601 218.372613 
L 216.047609 218.000056 
L 216.153059 217.457188 
L 216.189515 216.89303 
L 216.441465 216.690785 
L 216.503968 216.275651 
L 216.737438 215.881805 
L 217.310271 215.285714 
L 217.349335 214.902513 
L 217.647797 214.710912 
L 217.647797 214.519311 
L 218.38343 214.157399 
L 218.68972 213.784842 
L 219.497016 212.826839 
L 220.588874 212.539438 
L 220.655779 211.87948 
L 220.889596 211.709169 
L 220.961481 211.2621 
L 222.504666 210.964055 
L 222.519289 210.676654 
L 223.513139 210.389253 
L 223.541898 210.112497 
L 224.888897 208.984182 
L 224.943573 208.781937 
L 226.25266 208.462602 
L 226.25266 208.334868 
L 227.095586 207.972956 
L 227.131617 207.451377 
L 227.184468 207.036242 
L 227.334453 206.589174 
L 227.334453 206.418862 
L 227.556397 206.237906 
L 227.56637 205.737615 
L 228.003721 205.567304 
L 228.107662 204.939279 
L 228.239679 204.438989 
L 228.409939 203.693875 
L 228.894596 202.746516 
L 228.912874 202.554916 
L 229.475489 202.193004 
L 229.578899 201.980114 
L 230.436374 201.777869 
L 230.523049 201.384023 
L 232.081895 200.766643 
L 232.081895 200.553754 
L 232.510342 200.340864 
L 232.613086 199.925729 
L 233.056716 198.99966 
L 233.770512 198.275835 
L 233.770512 198.094879 
L 234.315331 197.711677 
L 234.393172 196.987853 
L 234.683522 195.965983 
L 234.83767 195.785027 
L 234.83767 195.60407 
L 235.75411 194.550267 
L 235.762299 194.198999 
L 236.310835 194.018043 
L 236.740291 193.187773 
L 236.838889 192.155259 
L 237.030842 190.654387 
L 237.195696 190.420209 
L 238.108388 189.78154 
L 238.146165 189.334472 
L 238.548154 189.121582 
L 238.548154 188.908692 
L 239.284034 187.801667 
L 239.358676 187.461043 
L 239.572844 187.12042 
L 240.354936 186.790441 
L 240.721841 186.087905 
L 240.721841 185.917594 
L 240.884467 185.757926 
L 240.950192 185.427948 
L 241.177759 184.672189 
L 241.460632 183.107451 
L 241.935216 182.72425 
L 242.067939 182.128159 
L 242.114736 181.383045 
L 242.281771 181.170156 
L 242.407205 180.797599 
L 242.959001 180.531487 
L 242.959001 180.393108 
L 243.859789 179.701217 
L 244.041532 178.82837 
L 244.075537 178.466458 
L 244.586426 178.083256 
L 244.741397 177.519099 
L 245.259152 177.252987 
L 245.918004 176.805919 
L 246.923388 175.922427 
L 246.983269 175.624381 
L 247.607295 175.262469 
L 248.056681 175.081513 
L 248.067192 174.943135 
L 248.281601 174.708956 
L 248.287826 174.442844 
L 249.787182 174.155443 
L 249.827921 173.431619 
L 250.137607 173.218729 
L 250.475161 172.558771 
L 250.64876 171.600768 
L 250.830402 171.409167 
L 250.925496 171.068544 
L 251.108214 170.674698 
L 251.639908 170.291497 
L 252.128589 170.057318 
L 252.189082 169.82314 
L 252.370167 169.557028 
L 252.779798 169.354783 
L 252.873895 169.056737 
L 252.942695 168.843848 
L 253.074429 168.694825 
L 253.569701 168.418068 
L 254.906579 167.726177 
L 254.925356 167.023642 
L 255.036908 166.85333 
L 255.097857 166.683018 
L 255.443902 166.342395 
L 255.499959 166.172083 
L 255.604979 166.001772 
L 255.896318 165.671793 
L 256.058758 165.52277 
L 256.143004 165.21408 
L 256.266052 165.054413 
L 256.407994 164.788301 
L 256.801864 163.88352 
L 256.952724 163.606764 
L 256.952724 163.510963 
L 257.686532 162.989384 
L 258.335057 161.807846 
L 258.340945 161.62689 
L 258.762236 161.243689 
L 258.955358 160.924355 
L 259.019516 160.349553 
L 259.301647 160.008929 
L 259.604783 159.753462 
L 259.675598 159.317038 
L 259.940735 159.168015 
L 260.097357 158.891259 
L 260.507401 158.593213 
L 260.630777 158.199368 
L 260.703863 158.092923 
L 262.557319 157.688433 
L 262.630756 157.475543 
L 263.052404 156.911386 
L 263.757016 156.655918 
L 263.862274 156.506895 
L 264.16085 156.187561 
L 264.16085 156.144983 
L 264.647176 155.857582 
L 264.756195 155.272136 
L 264.995226 154.654756 
L 265.04237 154.495089 
L 265.300507 154.282199 
L 265.300507 154.207688 
L 265.771905 153.835131 
L 265.834245 153.270973 
L 266.86839 152.685527 
L 266.892006 152.249103 
L 267.732301 151.674301 
L 268.030376 151.354967 
L 269.644781 150.971766 
L 269.974471 150.301164 
L 270.013044 150.258586 
L 270.314456 150.066985 
L 270.600569 149.811517 
L 273.167018 149.172849 
L 273.309092 149.002537 
L 273.571257 148.204201 
L 273.650811 147.906156 
L 273.752515 147.001375 
L 273.84012 146.862996 
L 275.131139 146.085949 
L 275.215901 145.436636 
L 275.576023 144.627656 
L 275.821429 144.436055 
L 275.92553 144.169943 
L 276.163978 143.584497 
L 276.366085 142.956472 
L 276.728165 142.371026 
L 276.977392 142.19007 
L 277.141166 141.945247 
L 277.244432 141.721713 
L 277.300765 141.083044 
L 277.557464 140.923377 
L 277.652227 139.922796 
L 277.716573 139.273482 
L 277.927529 139.049948 
L 278.079858 138.145167 
L 278.272312 137.549076 
L 278.606658 135.441469 
L 278.753174 135.079557 
L 278.775338 134.813445 
L 278.913408 134.568622 
L 278.957329 133.844797 
L 279.042204 133.291284 
L 279.723703 132.099103 
L 280.037851 131.779768 
L 280.20827 131.215611 
L 280.366102 131.045299 
L 280.436068 130.938854 
L 280.638635 130.651453 
L 280.855298 130.438564 
L 281.199085 129.916984 
L 281.24944 129.544428 
L 281.64228 129.331538 
L 281.661715 129.129293 
L 282.09848 128.895114 
L 282.256692 128.288379 
L 282.494051 127.937111 
L 282.937621 127.543265 
L 283.314316 126.585262 
L 284.219029 126.212705 
L 284.219029 126.116905 
L 284.504973 125.925304 
L 284.504973 125.829504 
L 284.828137 125.574036 
L 284.906392 125.318569 
L 285.376172 125.169546 
L 285.746719 125.29728 
L 285.789121 125.39308 
L 286.482966 125.574036 
L 287.071438 125.414369 
L 287.814064 124.083809 
L 287.907496 123.402563 
L 288.03358 122.284892 
L 288.18206 121.848468 
L 288.26554 121.358822 
L 288.469329 120.709509 
L 289.222872 120.038907 
L 289.384973 119.293793 
L 289.734368 118.506102 
L 289.804421 117.239409 
L 290.041881 116.941363 
L 290.84279 116.143027 
L 290.918939 115.57887 
L 291.062347 114.940201 
L 291.296807 114.067354 
L 291.540722 113.300951 
L 291.615155 112.279081 
L 291.714124 111.800079 
L 292.253643 110.831432 
L 292.850526 110.192763 
L 294.319107 109.937295 
L 294.591563 109.841495 
L 295.158413 109.085737 
L 295.27986 108.755758 
L 295.707574 108.457713 
L 296.302604 107.403909 
L 296.395882 107.19102 
L 296.522357 106.541706 
L 296.641625 106.435261 
L 296.732137 106.541706 
L 297.701447 106.531062 
L 297.881784 106.222372 
L 298.035252 106.05206 
L 298.149778 105.573059 
L 298.311052 105.349524 
L 298.36934 105.179213 
L 298.460819 104.210565 
L 298.654668 103.848653 
L 298.667344 103.688986 
L 299.196301 103.422874 
L 299.48174 103.220628 
L 299.737239 103.071606 
L 299.995827 102.784205 
L 300.434062 102.432937 
L 301.299579 102.017802 
L 302.775061 100.42113 
L 303.004601 100.22953 
L 303.093022 100.059218 
L 303.093022 100.059218 
L 303.451144 100.005996 
L 303.451144 99.963418 
L 303.666736 99.697306 
L 303.773558 99.516349 
L 304.462689 99.058637 
L 304.586218 98.185789 
L 304.67535 97.962255 
L 304.892802 97.749366 
L 305.608009 97.100052 
L 305.732835 96.83394 
L 305.904554 96.397517 
L 306.069731 96.067538 
L 306.22273 95.609825 
L 307.312569 92.022636 
L 307.565419 90.266296 
L 307.762671 90.053407 
L 307.910534 89.659561 
L 308.23642 88.318356 
L 308.605523 88.084178 
L 308.849927 87.317775 
L 309.066695 87.062308 
L 309.5011 86.18946 
L 309.604715 85.891415 
L 309.695564 85.657236 
L 310.351761 85.082435 
L 310.701996 84.6673 
L 311.236539 84.241521 
L 311.394134 84.124431 
L 311.463657 83.719941 
L 311.588674 83.43254 
L 312.295561 82.879027 
L 312.848507 81.3888 
L 313.029502 81.037532 
L 313.159684 80.909798 
L 313.30325 80.782065 
L 313.457005 80.090173 
L 313.602528 79.174748 
L 313.967136 78.802191 
L 314.075396 77.897411 
L 314.234531 77.748388 
L 315.321273 77.844188 
L 315.614824 77.854833 
L 316.589775 77.471631 
L 317.395781 76.886185 
L 317.58601 76.609428 
L 318.274691 76.513628 
L 318.363578 76.439117 
L 318.849944 76.087849 
L 319.381533 75.587558 
L 319.545527 75.374669 
L 320.032965 74.863734 
L 320.1405 74.810511 
L 320.173436 74.927601 
L 320.868194 74.938245 
L 320.868194 74.916956 
L 320.965409 74.799867 
L 321.439325 74.448599 
L 321.552815 74.320865 
L 321.667194 72.713549 
L 321.885732 72.309059 
L 321.973171 72.07488 
L 322.684504 70.701742 
L 323.239981 70.052429 
L 323.436299 69.658583 
L 323.67914 69.211515 
L 324.134228 68.753802 
L 324.372455 68.785736 
L 324.497418 68.764447 
L 324.50839 68.743158 
L 325.141165 67.710643 
L 325.280776 67.785155 
L 325.395525 68.157711 
L 325.481578 68.0832 
L 326.406803 67.582909 
L 327.260548 67.018752 
L 327.73293 66.795218 
L 327.829554 66.75264 
L 329.742548 66.156549 
L 330.024824 64.740833 
L 330.727237 64.368276 
L 331.05461 63.676385 
L 331.198681 63.325117 
L 331.601529 62.97385 
L 332.167992 62.782249 
L 333.419384 62.335181 
L 333.491672 62.409692 
L 333.52103 62.281958 
L 333.672391 61.920046 
L 333.931459 61.728445 
L 334.151909 61.419756 
L 334.779886 61.142999 
L 335.312858 61.036554 
L 335.603904 60.802376 
L 336.001994 59.365371 
L 337.249259 59.269571 
L 337.67393 59.29086 
L 338.280767 58.045455 
L 338.872202 57.076808 
L 338.943949 56.874563 
L 339.064947 56.757473 
L 340.144763 56.523295 
L 340.974111 56.235894 
L 341.019825 55.820759 
L 341.148184 55.065001 
L 341.270909 54.766956 
L 341.498213 54.245376 
L 342.378246 54.351821 
L 342.73774 54.46891 
L 342.940391 54.362465 
L 343.609763 52.584837 
L 343.790205 52.233569 
L 343.943762 52.127124 
L 345.921835 51.062676 
L 346.038184 51.052032 
L 346.126487 50.945587 
L 346.391459 50.360141 
L 346.610543 50.211118 
L 347.485264 49.955651 
L 348.725232 49.646961 
L 348.78929 49.806628 
L 348.960392 50.147251 
L 349.19177 50.232407 
L 349.634429 49.934362 
L 350.025426 49.476649 
L 350.114442 49.434071 
L 350.126989 49.444716 
L 350.61785 49.785339 
L 350.649546 49.742761 
L 350.818448 49.66825 
L 351.016444 49.508582 
L 351.177208 49.072159 
L 351.469479 48.678313 
L 351.800038 48.380268 
L 351.922995 48.476068 
L 352.745626 49.210537 
L 353.307429 49.45536 
L 356.222319 49.348915 
L 358.21881 48.550579 
L 358.848038 48.380268 
L 361.58302 48.273823 
L 362.375232 47.773532 
L 362.697276 47.592576 
L 363.447599 47.31582 
L 364.178365 47.209375 
L 364.55857 47.00713 
L 366.129155 46.79424 
L 368.996584 46.900685 
L 369.301664 47.220019 
L 369.633294 47.326464 
L 370.052543 47.220019 
L 370.947819 46.453617 
L 370.981005 46.251372 
L 371.045931 46.719729 
L 371.179999 46.79424 
L 371.727489 46.69844 
L 371.904308 46.070415 
L 372.206781 45.708503 
L 372.312262 44.984678 
L 372.81 44.6547 
L 373.543488 44.548255 
L 373.721211 44.250209 
L 373.846955 43.739274 
L 374.138572 43.590252 
L 374.52854 43.483807 
L 374.852967 43.143183 
L 375.465608 42.536448 
L 376.519835 42.430003 
L 376.951027 41.99358 
L 395.707914 41.887135 
L 396.82806 41.472 
L 398.487273 41.472 
L 398.487273 41.472 
" clip-path="url(#p8c12ee3bdc)" style="fill: none; stroke-dasharray: 1.85,0.8; stroke-dashoffset: 0; stroke: #8000ff; stroke-width: 0.5"/>
   </g>
   <g id="patch_3">
    <path d="M 57.6 307.584 
L 57.6 41.472 
" style="fill: none; stroke: #000000; stroke-width: 0.8; stroke-linejoin: miter; stroke-linecap: square"/>
   </g>
   <g id="patch_4">
    <path d="M 414.72 307.584 
L 414.72 41.472 
" style="fill: none; stroke: #000000; stroke-width: 0.8; stroke-linejoin: miter; stroke-linecap: square"/>
   </g>
   <g id="patch_5">
    <path d="M 57.6 307.584 
L 414.72 307.584 
" style="fill: none; stroke: #000000; stroke-width: 0.8; stroke-linejoin: miter; stroke-linecap: square"/>
   </g>
   <g id="patch_6">
    <path d="M 57.6 41.472 
L 414.72 41.472 
" style="fill: none; stroke: #000000; stroke-width: 0.8; stroke-linejoin: miter; stroke-linecap: square"/>
   </g>
   <g id="legend_1">
    <g id="patch_7">
     <path d="M 314.584 90.761325 
L 516.966813 90.761325 
Q 518.966813 90.761325 518.966813 88.761325 
L 518.966813 75.0832 
Q 518.966813 73.0832 516.966813 73.0832 
L 314.584 73.0832 
Q 312.584 73.0832 312.584 75.0832 
L 312.584 88.761325 
Q 312.584 90.761325 314.584 90.761325 
z
" style="fill: #ffffff; opacity: 0.8; stroke: #cccccc; stroke-linejoin: miter"/>
    </g>
    <g id="line2d_34">
     <path d="M 316.584 81.181637 
L 326.584 81.181637 
L 336.584 81.181637 
" style="fill: none; stroke-dasharray: 1.85,0.8; stroke-dashoffset: 0; stroke: #8000ff; stroke-width: 0.5"/>
    </g>
    <g id="text_12">
     <!-- Total number of electron traps500 -->
     <g transform="translate(344.584 84.681637) scale(0.1 -0.1)">
      <defs>
       <path id="DejaVuSans-54" d="M -19 4666 
L 3928 4666 
L 3928 4134 
L 2272 4134 
L 2272 0 
L 1638 0 
L 1638 4134 
L -19 4134 
L -19 4666 
z
" transform="scale(0.015625)"/>
       <path id="DejaVuSans-75" d="M 544 1381 
L 544 3500 
L 1119 3500 
L 1119 1403 
Q 1119 906 1312 657 
Q 1506 409 1894 409 
Q 2359 409 2629 706 
Q 2900 1003 2900 1516 
L 2900 3500 
L 3475 3500 
L 3475 0 
L 2900 0 
L 2900 538 
Q 2691 219 2414 64 
Q 2138 -91 1772 -91 
Q 1169 -91 856 284 
Q 544 659 544 1381 
z
M 1991 3584 
L 1991 3584 
z
" transform="scale(0.015625)"/>
       <path id="DejaVuSans-62" d="M 3116 1747 
Q 3116 2381 2855 2742 
Q 2594 3103 2138 3103 
Q 1681 3103 1420 2742 
Q 1159 2381 1159 1747 
Q 1159 1113 1420 752 
Q 1681 391 2138 391 
Q 2594 391 2855 752 
Q 3116 1113 3116 1747 
z
M 1159 2969 
Q 1341 3281 1617 3432 
Q 1894 3584 2278 3584 
Q 2916 3584 3314 3078 
Q 3713 2572 3713 1747 
Q 3713 922 3314 415 
Q 2916 -91 2278 -91 
Q 1894 -91 1617 61 
Q 1341 213 1159 525 
L 1159 0 
L 581 0 
L 581 4863 
L 1159 4863 
L 1159 2969 
z
" transform="scale(0.015625)"/>
       <path id="DejaVuSans-35" d="M 691 4666 
L 3169 4666 
L 3169 4134 
L 1269 4134 
L 1269 2991 
Q 1406 3038 1543 3061 
Q 1681 3084 1819 3084 
Q 2600 3084 3056 2656 
Q 3513 2228 3513 1497 
Q 3513 744 3044 326 
Q 2575 -91 1722 -91 
Q 1428 -91 1123 -41 
Q 819 9 494 109 
L 494 744 
Q 775 591 1075 516 
Q 1375 441 1709 441 
Q 2250 441 2565 725 
Q 2881 1009 2881 1497 
Q 2881 1984 2565 2268 
Q 2250 2553 1709 2553 
Q 1456 2553 1204 2497 
Q 953 2441 691 2322 
L 691 4666 
z
" transform="scale(0.015625)"/>
      </defs>
      <use xlink:href="#DejaVuSans-54"/>
      <use xlink:href="#DejaVuSans-6f" transform="translate(44.083984 0)"/>
      <use xlink:href="#DejaVuSans-74" transform="translate(105.265625 0)"/>
      <use xlink:href="#DejaVuSans-61" transform="translate(144.474609 0)"/>
      <use xlink:href="#DejaVuSans-6c" transform="translate(205.753906 0)"/>
      <use xlink:href="#DejaVuSans-20" transform="translate(233.537109 0)"/>
      <use xlink:href="#DejaVuSans-6e" transform="translate(265.324219 0)"/>
      <use xlink:href="#DejaVuSans-75" transform="translate(328.703125 0)"/>
      <use xlink:href="#DejaVuSans-6d" transform="translate(392.082031 0)"/>
      <use xlink:href="#DejaVuSans-62" transform="translate(489.494141 0)"/>
      <use xlink:href="#DejaVuSans-65" transform="translate(552.970703 0)"/>
      <use xlink:href="#DejaVuSans-72" transform="translate(614.494141 0)"/>
      <use xlink:href="#DejaVuSans-20" transform="translate(655.607422 0)"/>
      <use xlink:href="#DejaVuSans-6f" transform="translate(687.394531 0)"/>
      <use xlink:href="#DejaVuSans-66" transform="translate(748.576172 0)"/>
      <use xlink:href="#DejaVuSans-20" transform="translate(783.78125 0)"/>
      <use xlink:href="#DejaVuSans-65" transform="translate(815.568359 0)"/>
      <use xlink:href="#DejaVuSans-6c" transform="translate(877.091797 0)"/>
      <use xlink:href="#DejaVuSans-65" transform="translate(904.875 0)"/>
      <use xlink:href="#DejaVuSans-63" transform="translate(966.398438 0)"/>
      <use xlink:href="#DejaVuSans-74" transform="translate(1021.378906 0)"/>
      <use xlink:href="#DejaVuSans-72" transform="translate(1060.587891 0)"/>
      <use xlink:href="#DejaVuSans-6f" transform="translate(1099.451172 0)"/>
      <use xlink:href="#DejaVuSans-6e" transform="translate(1160.632812 0)"/>
      <use xlink:href="#DejaVuSans-20" transform="translate(1224.011719 0)"/>
      <use xlink:href="#DejaVuSans-74" transform="translate(1255.798828 0)"/>
      <use xlink:href="#DejaVuSans-72" transform="translate(1295.007812 0)"/>
      <use xlink:href="#DejaVuSans-61" transform="translate(1336.121094 0)"/>
      <use xlink:href="#DejaVuSans-70" transform="translate(1397.400391 0)"/>
      <use xlink:href="#DejaVuSans-73" transform="translate(1460.876953 0)"/>
      <use xlink:href="#DejaVuSans-35" transform="translate(1512.976562 0)"/>
      <use xlink:href="#DejaVuSans-30" transform="translate(1576.599609 0)"/>
      <use xlink:href="#DejaVuSans-30" transform="translate(1640.222656 0)"/>
     </g>
    </g>
   </g>
  </g>
 </g>
 <defs>
  <clipPath id="p8c12ee3bdc">
   <rect x="57.6" y="41.472" width="357.12" height="266.112"/>
  </clipPath>
 </defs>
</svg>
