<?xml version="1.0" encoding="utf-8" standalone="no"?>
<!DOCTYPE svg PUBLIC "-//W3C//DTD SVG 1.1//EN"
  "http://www.w3.org/Graphics/SVG/1.1/DTD/svg11.dtd">
<svg xmlns:xlink="http://www.w3.org/1999/xlink" width="460.8pt" height="345.6pt" viewBox="0 0 460.8 345.6" xmlns="http://www.w3.org/2000/svg" version="1.1">
 <metadata>
  <rdf:RDF xmlns:dc="http://purl.org/dc/elements/1.1/" xmlns:cc="http://creativecommons.org/ns#" xmlns:rdf="http://www.w3.org/1999/02/22-rdf-syntax-ns#">
   <cc:Work>
    <dc:type rdf:resource="http://purl.org/dc/dcmitype/StillImage"/>
    <dc:date>2025-03-25T13:23:17.420220</dc:date>
    <dc:format>image/svg+xml</dc:format>
    <dc:creator>
     <cc:Agent>
      <dc:title>Matplotlib v3.10.0, https://matplotlib.org/</dc:title>
     </cc:Agent>
    </dc:creator>
   </cc:Work>
  </rdf:RDF>
 </metadata>
 <defs>
  <style type="text/css">*{stroke-linejoin: round; stroke-linecap: butt}</style>
 </defs>
 <g id="figure_1">
  <g id="patch_1">
   <path d="M 0 345.6 
L 460.8 345.6 
L 460.8 0 
L 0 0 
z
" style="fill: #ffffff"/>
  </g>
  <g id="axes_1">
   <g id="patch_2">
    <path d="M 57.6 307.584 
L 414.72 307.584 
L 414.72 41.472 
L 57.6 41.472 
z
" style="fill: #ffffff"/>
   </g>
   <g id="matplotlib.axis_1">
    <g id="xtick_1">
     <g id="line2d_1">
      <defs>
       <path id="mbacfb427d9" d="M 0 0 
L 0 3.5 
" style="stroke: #000000; stroke-width: 0.8"/>
      </defs>
      <g>
       <use xlink:href="#mbacfb427d9" x="106.481131" y="307.584" style="stroke: #000000; stroke-width: 0.8"/>
      </g>
     </g>
     <g id="text_1">
      <!-- $\mathdefault{10^{11}}$ -->
      <g transform="translate(95.431131 322.182437) scale(0.1 -0.1)">
       <defs>
        <path id="DejaVuSans-31" d="M 794 531 
L 1825 531 
L 1825 4091 
L 703 3866 
L 703 4441 
L 1819 4666 
L 2450 4666 
L 2450 531 
L 3481 531 
L 3481 0 
L 794 0 
L 794 531 
z
" transform="scale(0.015625)"/>
        <path id="DejaVuSans-30" d="M 2034 4250 
Q 1547 4250 1301 3770 
Q 1056 3291 1056 2328 
Q 1056 1369 1301 889 
Q 1547 409 2034 409 
Q 2525 409 2770 889 
Q 3016 1369 3016 2328 
Q 3016 3291 2770 3770 
Q 2525 4250 2034 4250 
z
M 2034 4750 
Q 2819 4750 3233 4129 
Q 3647 3509 3647 2328 
Q 3647 1150 3233 529 
Q 2819 -91 2034 -91 
Q 1250 -91 836 529 
Q 422 1150 422 2328 
Q 422 3509 836 4129 
Q 1250 4750 2034 4750 
z
" transform="scale(0.015625)"/>
       </defs>
       <use xlink:href="#DejaVuSans-31" transform="translate(0 0.684375)"/>
       <use xlink:href="#DejaVuSans-30" transform="translate(63.623047 0.684375)"/>
       <use xlink:href="#DejaVuSans-31" transform="translate(128.203125 38.965625) scale(0.7)"/>
       <use xlink:href="#DejaVuSans-31" transform="translate(172.739258 38.965625) scale(0.7)"/>
      </g>
     </g>
    </g>
    <g id="xtick_2">
     <g id="line2d_2">
      <g>
       <use xlink:href="#mbacfb427d9" x="206.561963" y="307.584" style="stroke: #000000; stroke-width: 0.8"/>
      </g>
     </g>
     <g id="text_2">
      <!-- $\mathdefault{10^{12}}$ -->
      <g transform="translate(195.511963 322.182437) scale(0.1 -0.1)">
       <defs>
        <path id="DejaVuSans-32" d="M 1228 531 
L 3431 531 
L 3431 0 
L 469 0 
L 469 531 
Q 828 903 1448 1529 
Q 2069 2156 2228 2338 
Q 2531 2678 2651 2914 
Q 2772 3150 2772 3378 
Q 2772 3750 2511 3984 
Q 2250 4219 1831 4219 
Q 1534 4219 1204 4116 
Q 875 4013 500 3803 
L 500 4441 
Q 881 4594 1212 4672 
Q 1544 4750 1819 4750 
Q 2544 4750 2975 4387 
Q 3406 4025 3406 3419 
Q 3406 3131 3298 2873 
Q 3191 2616 2906 2266 
Q 2828 2175 2409 1742 
Q 1991 1309 1228 531 
z
" transform="scale(0.015625)"/>
       </defs>
       <use xlink:href="#DejaVuSans-31" transform="translate(0 0.765625)"/>
       <use xlink:href="#DejaVuSans-30" transform="translate(63.623047 0.765625)"/>
       <use xlink:href="#DejaVuSans-31" transform="translate(128.203125 39.046875) scale(0.7)"/>
       <use xlink:href="#DejaVuSans-32" transform="translate(172.739258 39.046875) scale(0.7)"/>
      </g>
     </g>
    </g>
    <g id="xtick_3">
     <g id="line2d_3">
      <g>
       <use xlink:href="#mbacfb427d9" x="306.642796" y="307.584" style="stroke: #000000; stroke-width: 0.8"/>
      </g>
     </g>
     <g id="text_3">
      <!-- $\mathdefault{10^{13}}$ -->
      <g transform="translate(295.592796 322.182437) scale(0.1 -0.1)">
       <defs>
        <path id="DejaVuSans-33" d="M 2597 2516 
Q 3050 2419 3304 2112 
Q 3559 1806 3559 1356 
Q 3559 666 3084 287 
Q 2609 -91 1734 -91 
Q 1441 -91 1130 -33 
Q 819 25 488 141 
L 488 750 
Q 750 597 1062 519 
Q 1375 441 1716 441 
Q 2309 441 2620 675 
Q 2931 909 2931 1356 
Q 2931 1769 2642 2001 
Q 2353 2234 1838 2234 
L 1294 2234 
L 1294 2753 
L 1863 2753 
Q 2328 2753 2575 2939 
Q 2822 3125 2822 3475 
Q 2822 3834 2567 4026 
Q 2313 4219 1838 4219 
Q 1578 4219 1281 4162 
Q 984 4106 628 3988 
L 628 4550 
Q 988 4650 1302 4700 
Q 1616 4750 1894 4750 
Q 2613 4750 3031 4423 
Q 3450 4097 3450 3541 
Q 3450 3153 3228 2886 
Q 3006 2619 2597 2516 
z
" transform="scale(0.015625)"/>
       </defs>
       <use xlink:href="#DejaVuSans-31" transform="translate(0 0.765625)"/>
       <use xlink:href="#DejaVuSans-30" transform="translate(63.623047 0.765625)"/>
       <use xlink:href="#DejaVuSans-31" transform="translate(128.203125 39.046875) scale(0.7)"/>
       <use xlink:href="#DejaVuSans-33" transform="translate(172.739258 39.046875) scale(0.7)"/>
      </g>
     </g>
    </g>
    <g id="xtick_4">
     <g id="line2d_4">
      <g>
       <use xlink:href="#mbacfb427d9" x="406.723628" y="307.584" style="stroke: #000000; stroke-width: 0.8"/>
      </g>
     </g>
     <g id="text_4">
      <!-- $\mathdefault{10^{14}}$ -->
      <g transform="translate(395.673628 322.182437) scale(0.1 -0.1)">
       <defs>
        <path id="DejaVuSans-34" d="M 2419 4116 
L 825 1625 
L 2419 1625 
L 2419 4116 
z
M 2253 4666 
L 3047 4666 
L 3047 1625 
L 3713 1625 
L 3713 1100 
L 3047 1100 
L 3047 0 
L 2419 0 
L 2419 1100 
L 313 1100 
L 313 1709 
L 2253 4666 
z
" transform="scale(0.015625)"/>
       </defs>
       <use xlink:href="#DejaVuSans-31" transform="translate(0 0.684375)"/>
       <use xlink:href="#DejaVuSans-30" transform="translate(63.623047 0.684375)"/>
       <use xlink:href="#DejaVuSans-31" transform="translate(128.203125 38.965625) scale(0.7)"/>
       <use xlink:href="#DejaVuSans-34" transform="translate(172.739258 38.965625) scale(0.7)"/>
      </g>
     </g>
    </g>
    <g id="xtick_5">
     <g id="line2d_5">
      <defs>
       <path id="m1958464994" d="M 0 0 
L 0 2 
" style="stroke: #000000; stroke-width: 0.6"/>
      </defs>
      <g>
       <use xlink:href="#m1958464994" x="66.654963" y="307.584" style="stroke: #000000; stroke-width: 0.6"/>
      </g>
     </g>
    </g>
    <g id="xtick_6">
     <g id="line2d_6">
      <g>
       <use xlink:href="#m1958464994" x="76.353798" y="307.584" style="stroke: #000000; stroke-width: 0.6"/>
      </g>
     </g>
    </g>
    <g id="xtick_7">
     <g id="line2d_7">
      <g>
       <use xlink:href="#m1958464994" x="84.278323" y="307.584" style="stroke: #000000; stroke-width: 0.6"/>
      </g>
     </g>
    </g>
    <g id="xtick_8">
     <g id="line2d_8">
      <g>
       <use xlink:href="#m1958464994" x="90.978414" y="307.584" style="stroke: #000000; stroke-width: 0.6"/>
      </g>
     </g>
    </g>
    <g id="xtick_9">
     <g id="line2d_9">
      <g>
       <use xlink:href="#m1958464994" x="96.782296" y="307.584" style="stroke: #000000; stroke-width: 0.6"/>
      </g>
     </g>
    </g>
    <g id="xtick_10">
     <g id="line2d_10">
      <g>
       <use xlink:href="#m1958464994" x="101.901683" y="307.584" style="stroke: #000000; stroke-width: 0.6"/>
      </g>
     </g>
    </g>
    <g id="xtick_11">
     <g id="line2d_11">
      <g>
       <use xlink:href="#m1958464994" x="136.608463" y="307.584" style="stroke: #000000; stroke-width: 0.6"/>
      </g>
     </g>
    </g>
    <g id="xtick_12">
     <g id="line2d_12">
      <g>
       <use xlink:href="#m1958464994" x="154.231823" y="307.584" style="stroke: #000000; stroke-width: 0.6"/>
      </g>
     </g>
    </g>
    <g id="xtick_13">
     <g id="line2d_13">
      <g>
       <use xlink:href="#m1958464994" x="166.735796" y="307.584" style="stroke: #000000; stroke-width: 0.6"/>
      </g>
     </g>
    </g>
    <g id="xtick_14">
     <g id="line2d_14">
      <g>
       <use xlink:href="#m1958464994" x="176.434631" y="307.584" style="stroke: #000000; stroke-width: 0.6"/>
      </g>
     </g>
    </g>
    <g id="xtick_15">
     <g id="line2d_15">
      <g>
       <use xlink:href="#m1958464994" x="184.359156" y="307.584" style="stroke: #000000; stroke-width: 0.6"/>
      </g>
     </g>
    </g>
    <g id="xtick_16">
     <g id="line2d_16">
      <g>
       <use xlink:href="#m1958464994" x="191.059246" y="307.584" style="stroke: #000000; stroke-width: 0.6"/>
      </g>
     </g>
    </g>
    <g id="xtick_17">
     <g id="line2d_17">
      <g>
       <use xlink:href="#m1958464994" x="196.863128" y="307.584" style="stroke: #000000; stroke-width: 0.6"/>
      </g>
     </g>
    </g>
    <g id="xtick_18">
     <g id="line2d_18">
      <g>
       <use xlink:href="#m1958464994" x="201.982516" y="307.584" style="stroke: #000000; stroke-width: 0.6"/>
      </g>
     </g>
    </g>
    <g id="xtick_19">
     <g id="line2d_19">
      <g>
       <use xlink:href="#m1958464994" x="236.689296" y="307.584" style="stroke: #000000; stroke-width: 0.6"/>
      </g>
     </g>
    </g>
    <g id="xtick_20">
     <g id="line2d_20">
      <g>
       <use xlink:href="#m1958464994" x="254.312656" y="307.584" style="stroke: #000000; stroke-width: 0.6"/>
      </g>
     </g>
    </g>
    <g id="xtick_21">
     <g id="line2d_21">
      <g>
       <use xlink:href="#m1958464994" x="266.816628" y="307.584" style="stroke: #000000; stroke-width: 0.6"/>
      </g>
     </g>
    </g>
    <g id="xtick_22">
     <g id="line2d_22">
      <g>
       <use xlink:href="#m1958464994" x="276.515463" y="307.584" style="stroke: #000000; stroke-width: 0.6"/>
      </g>
     </g>
    </g>
    <g id="xtick_23">
     <g id="line2d_23">
      <g>
       <use xlink:href="#m1958464994" x="284.439988" y="307.584" style="stroke: #000000; stroke-width: 0.6"/>
      </g>
     </g>
    </g>
    <g id="xtick_24">
     <g id="line2d_24">
      <g>
       <use xlink:href="#m1958464994" x="291.140079" y="307.584" style="stroke: #000000; stroke-width: 0.6"/>
      </g>
     </g>
    </g>
    <g id="xtick_25">
     <g id="line2d_25">
      <g>
       <use xlink:href="#m1958464994" x="296.943961" y="307.584" style="stroke: #000000; stroke-width: 0.6"/>
      </g>
     </g>
    </g>
    <g id="xtick_26">
     <g id="line2d_26">
      <g>
       <use xlink:href="#m1958464994" x="302.063348" y="307.584" style="stroke: #000000; stroke-width: 0.6"/>
      </g>
     </g>
    </g>
    <g id="xtick_27">
     <g id="line2d_27">
      <g>
       <use xlink:href="#m1958464994" x="336.770128" y="307.584" style="stroke: #000000; stroke-width: 0.6"/>
      </g>
     </g>
    </g>
    <g id="xtick_28">
     <g id="line2d_28">
      <g>
       <use xlink:href="#m1958464994" x="354.393488" y="307.584" style="stroke: #000000; stroke-width: 0.6"/>
      </g>
     </g>
    </g>
    <g id="xtick_29">
     <g id="line2d_29">
      <g>
       <use xlink:href="#m1958464994" x="366.897461" y="307.584" style="stroke: #000000; stroke-width: 0.6"/>
      </g>
     </g>
    </g>
    <g id="xtick_30">
     <g id="line2d_30">
      <g>
       <use xlink:href="#m1958464994" x="376.596296" y="307.584" style="stroke: #000000; stroke-width: 0.6"/>
      </g>
     </g>
    </g>
    <g id="xtick_31">
     <g id="line2d_31">
      <g>
       <use xlink:href="#m1958464994" x="384.520821" y="307.584" style="stroke: #000000; stroke-width: 0.6"/>
      </g>
     </g>
    </g>
    <g id="xtick_32">
     <g id="line2d_32">
      <g>
       <use xlink:href="#m1958464994" x="391.220911" y="307.584" style="stroke: #000000; stroke-width: 0.6"/>
      </g>
     </g>
    </g>
    <g id="xtick_33">
     <g id="line2d_33">
      <g>
       <use xlink:href="#m1958464994" x="397.024794" y="307.584" style="stroke: #000000; stroke-width: 0.6"/>
      </g>
     </g>
    </g>
    <g id="xtick_34">
     <g id="line2d_34">
      <g>
       <use xlink:href="#m1958464994" x="402.144181" y="307.584" style="stroke: #000000; stroke-width: 0.6"/>
      </g>
     </g>
    </g>
    <g id="text_5">
     <!-- Log time  -->
     <g transform="translate(212.75375 335.860562) scale(0.1 -0.1)">
      <defs>
       <path id="DejaVuSans-4c" d="M 628 4666 
L 1259 4666 
L 1259 531 
L 3531 531 
L 3531 0 
L 628 0 
L 628 4666 
z
" transform="scale(0.015625)"/>
       <path id="DejaVuSans-6f" d="M 1959 3097 
Q 1497 3097 1228 2736 
Q 959 2375 959 1747 
Q 959 1119 1226 758 
Q 1494 397 1959 397 
Q 2419 397 2687 759 
Q 2956 1122 2956 1747 
Q 2956 2369 2687 2733 
Q 2419 3097 1959 3097 
z
M 1959 3584 
Q 2709 3584 3137 3096 
Q 3566 2609 3566 1747 
Q 3566 888 3137 398 
Q 2709 -91 1959 -91 
Q 1206 -91 779 398 
Q 353 888 353 1747 
Q 353 2609 779 3096 
Q 1206 3584 1959 3584 
z
" transform="scale(0.015625)"/>
       <path id="DejaVuSans-67" d="M 2906 1791 
Q 2906 2416 2648 2759 
Q 2391 3103 1925 3103 
Q 1463 3103 1205 2759 
Q 947 2416 947 1791 
Q 947 1169 1205 825 
Q 1463 481 1925 481 
Q 2391 481 2648 825 
Q 2906 1169 2906 1791 
z
M 3481 434 
Q 3481 -459 3084 -895 
Q 2688 -1331 1869 -1331 
Q 1566 -1331 1297 -1286 
Q 1028 -1241 775 -1147 
L 775 -588 
Q 1028 -725 1275 -790 
Q 1522 -856 1778 -856 
Q 2344 -856 2625 -561 
Q 2906 -266 2906 331 
L 2906 616 
Q 2728 306 2450 153 
Q 2172 0 1784 0 
Q 1141 0 747 490 
Q 353 981 353 1791 
Q 353 2603 747 3093 
Q 1141 3584 1784 3584 
Q 2172 3584 2450 3431 
Q 2728 3278 2906 2969 
L 2906 3500 
L 3481 3500 
L 3481 434 
z
" transform="scale(0.015625)"/>
       <path id="DejaVuSans-20" transform="scale(0.015625)"/>
       <path id="DejaVuSans-74" d="M 1172 4494 
L 1172 3500 
L 2356 3500 
L 2356 3053 
L 1172 3053 
L 1172 1153 
Q 1172 725 1289 603 
Q 1406 481 1766 481 
L 2356 481 
L 2356 0 
L 1766 0 
Q 1100 0 847 248 
Q 594 497 594 1153 
L 594 3053 
L 172 3053 
L 172 3500 
L 594 3500 
L 594 4494 
L 1172 4494 
z
" transform="scale(0.015625)"/>
       <path id="DejaVuSans-69" d="M 603 3500 
L 1178 3500 
L 1178 0 
L 603 0 
L 603 3500 
z
M 603 4863 
L 1178 4863 
L 1178 4134 
L 603 4134 
L 603 4863 
z
" transform="scale(0.015625)"/>
       <path id="DejaVuSans-6d" d="M 3328 2828 
Q 3544 3216 3844 3400 
Q 4144 3584 4550 3584 
Q 5097 3584 5394 3201 
Q 5691 2819 5691 2113 
L 5691 0 
L 5113 0 
L 5113 2094 
Q 5113 2597 4934 2840 
Q 4756 3084 4391 3084 
Q 3944 3084 3684 2787 
Q 3425 2491 3425 1978 
L 3425 0 
L 2847 0 
L 2847 2094 
Q 2847 2600 2669 2842 
Q 2491 3084 2119 3084 
Q 1678 3084 1418 2786 
Q 1159 2488 1159 1978 
L 1159 0 
L 581 0 
L 581 3500 
L 1159 3500 
L 1159 2956 
Q 1356 3278 1631 3431 
Q 1906 3584 2284 3584 
Q 2666 3584 2933 3390 
Q 3200 3197 3328 2828 
z
" transform="scale(0.015625)"/>
       <path id="DejaVuSans-65" d="M 3597 1894 
L 3597 1613 
L 953 1613 
Q 991 1019 1311 708 
Q 1631 397 2203 397 
Q 2534 397 2845 478 
Q 3156 559 3463 722 
L 3463 178 
Q 3153 47 2828 -22 
Q 2503 -91 2169 -91 
Q 1331 -91 842 396 
Q 353 884 353 1716 
Q 353 2575 817 3079 
Q 1281 3584 2069 3584 
Q 2775 3584 3186 3129 
Q 3597 2675 3597 1894 
z
M 3022 2063 
Q 3016 2534 2758 2815 
Q 2500 3097 2075 3097 
Q 1594 3097 1305 2825 
Q 1016 2553 972 2059 
L 3022 2063 
z
" transform="scale(0.015625)"/>
      </defs>
      <use xlink:href="#DejaVuSans-4c"/>
      <use xlink:href="#DejaVuSans-6f" transform="translate(53.962891 0)"/>
      <use xlink:href="#DejaVuSans-67" transform="translate(115.144531 0)"/>
      <use xlink:href="#DejaVuSans-20" transform="translate(178.621094 0)"/>
      <use xlink:href="#DejaVuSans-74" transform="translate(210.408203 0)"/>
      <use xlink:href="#DejaVuSans-69" transform="translate(249.617188 0)"/>
      <use xlink:href="#DejaVuSans-6d" transform="translate(277.400391 0)"/>
      <use xlink:href="#DejaVuSans-65" transform="translate(374.8125 0)"/>
      <use xlink:href="#DejaVuSans-20" transform="translate(436.335938 0)"/>
     </g>
    </g>
   </g>
   <g id="matplotlib.axis_2">
    <g id="ytick_1">
     <g id="line2d_35">
      <defs>
       <path id="m97bf840ffc" d="M 0 0 
L -3.5 0 
" style="stroke: #000000; stroke-width: 0.8"/>
      </defs>
      <g>
       <use xlink:href="#m97bf840ffc" x="57.6" y="307.584" style="stroke: #000000; stroke-width: 0.8"/>
      </g>
     </g>
     <g id="text_6">
      <!-- 0.0 -->
      <g transform="translate(34.696875 311.383219) scale(0.1 -0.1)">
       <defs>
        <path id="DejaVuSans-2e" d="M 684 794 
L 1344 794 
L 1344 0 
L 684 0 
L 684 794 
z
" transform="scale(0.015625)"/>
       </defs>
       <use xlink:href="#DejaVuSans-30"/>
       <use xlink:href="#DejaVuSans-2e" transform="translate(63.623047 0)"/>
       <use xlink:href="#DejaVuSans-30" transform="translate(95.410156 0)"/>
      </g>
     </g>
    </g>
    <g id="ytick_2">
     <g id="line2d_36">
      <g>
       <use xlink:href="#m97bf840ffc" x="57.6" y="254.3616" style="stroke: #000000; stroke-width: 0.8"/>
      </g>
     </g>
     <g id="text_7">
      <!-- 0.2 -->
      <g transform="translate(34.696875 258.160819) scale(0.1 -0.1)">
       <use xlink:href="#DejaVuSans-30"/>
       <use xlink:href="#DejaVuSans-2e" transform="translate(63.623047 0)"/>
       <use xlink:href="#DejaVuSans-32" transform="translate(95.410156 0)"/>
      </g>
     </g>
    </g>
    <g id="ytick_3">
     <g id="line2d_37">
      <g>
       <use xlink:href="#m97bf840ffc" x="57.6" y="201.1392" style="stroke: #000000; stroke-width: 0.8"/>
      </g>
     </g>
     <g id="text_8">
      <!-- 0.4 -->
      <g transform="translate(34.696875 204.938419) scale(0.1 -0.1)">
       <use xlink:href="#DejaVuSans-30"/>
       <use xlink:href="#DejaVuSans-2e" transform="translate(63.623047 0)"/>
       <use xlink:href="#DejaVuSans-34" transform="translate(95.410156 0)"/>
      </g>
     </g>
    </g>
    <g id="ytick_4">
     <g id="line2d_38">
      <g>
       <use xlink:href="#m97bf840ffc" x="57.6" y="147.9168" style="stroke: #000000; stroke-width: 0.8"/>
      </g>
     </g>
     <g id="text_9">
      <!-- 0.6 -->
      <g transform="translate(34.696875 151.716019) scale(0.1 -0.1)">
       <defs>
        <path id="DejaVuSans-36" d="M 2113 2584 
Q 1688 2584 1439 2293 
Q 1191 2003 1191 1497 
Q 1191 994 1439 701 
Q 1688 409 2113 409 
Q 2538 409 2786 701 
Q 3034 994 3034 1497 
Q 3034 2003 2786 2293 
Q 2538 2584 2113 2584 
z
M 3366 4563 
L 3366 3988 
Q 3128 4100 2886 4159 
Q 2644 4219 2406 4219 
Q 1781 4219 1451 3797 
Q 1122 3375 1075 2522 
Q 1259 2794 1537 2939 
Q 1816 3084 2150 3084 
Q 2853 3084 3261 2657 
Q 3669 2231 3669 1497 
Q 3669 778 3244 343 
Q 2819 -91 2113 -91 
Q 1303 -91 875 529 
Q 447 1150 447 2328 
Q 447 3434 972 4092 
Q 1497 4750 2381 4750 
Q 2619 4750 2861 4703 
Q 3103 4656 3366 4563 
z
" transform="scale(0.015625)"/>
       </defs>
       <use xlink:href="#DejaVuSans-30"/>
       <use xlink:href="#DejaVuSans-2e" transform="translate(63.623047 0)"/>
       <use xlink:href="#DejaVuSans-36" transform="translate(95.410156 0)"/>
      </g>
     </g>
    </g>
    <g id="ytick_5">
     <g id="line2d_39">
      <g>
       <use xlink:href="#m97bf840ffc" x="57.6" y="94.6944" style="stroke: #000000; stroke-width: 0.8"/>
      </g>
     </g>
     <g id="text_10">
      <!-- 0.8 -->
      <g transform="translate(34.696875 98.493619) scale(0.1 -0.1)">
       <defs>
        <path id="DejaVuSans-38" d="M 2034 2216 
Q 1584 2216 1326 1975 
Q 1069 1734 1069 1313 
Q 1069 891 1326 650 
Q 1584 409 2034 409 
Q 2484 409 2743 651 
Q 3003 894 3003 1313 
Q 3003 1734 2745 1975 
Q 2488 2216 2034 2216 
z
M 1403 2484 
Q 997 2584 770 2862 
Q 544 3141 544 3541 
Q 544 4100 942 4425 
Q 1341 4750 2034 4750 
Q 2731 4750 3128 4425 
Q 3525 4100 3525 3541 
Q 3525 3141 3298 2862 
Q 3072 2584 2669 2484 
Q 3125 2378 3379 2068 
Q 3634 1759 3634 1313 
Q 3634 634 3220 271 
Q 2806 -91 2034 -91 
Q 1263 -91 848 271 
Q 434 634 434 1313 
Q 434 1759 690 2068 
Q 947 2378 1403 2484 
z
M 1172 3481 
Q 1172 3119 1398 2916 
Q 1625 2713 2034 2713 
Q 2441 2713 2670 2916 
Q 2900 3119 2900 3481 
Q 2900 3844 2670 4047 
Q 2441 4250 2034 4250 
Q 1625 4250 1398 4047 
Q 1172 3844 1172 3481 
z
" transform="scale(0.015625)"/>
       </defs>
       <use xlink:href="#DejaVuSans-30"/>
       <use xlink:href="#DejaVuSans-2e" transform="translate(63.623047 0)"/>
       <use xlink:href="#DejaVuSans-38" transform="translate(95.410156 0)"/>
      </g>
     </g>
    </g>
    <g id="ytick_6">
     <g id="line2d_40">
      <g>
       <use xlink:href="#m97bf840ffc" x="57.6" y="41.472" style="stroke: #000000; stroke-width: 0.8"/>
      </g>
     </g>
     <g id="text_11">
      <!-- 1.0 -->
      <g transform="translate(34.696875 45.271219) scale(0.1 -0.1)">
       <use xlink:href="#DejaVuSans-31"/>
       <use xlink:href="#DejaVuSans-2e" transform="translate(63.623047 0)"/>
       <use xlink:href="#DejaVuSans-30" transform="translate(95.410156 0)"/>
      </g>
     </g>
    </g>
    <g id="text_12">
     <!-- Percent of filled traps -->
     <g transform="translate(28.617187 227.95925) rotate(-90) scale(0.1 -0.1)">
      <defs>
       <path id="DejaVuSans-50" d="M 1259 4147 
L 1259 2394 
L 2053 2394 
Q 2494 2394 2734 2622 
Q 2975 2850 2975 3272 
Q 2975 3691 2734 3919 
Q 2494 4147 2053 4147 
L 1259 4147 
z
M 628 4666 
L 2053 4666 
Q 2838 4666 3239 4311 
Q 3641 3956 3641 3272 
Q 3641 2581 3239 2228 
Q 2838 1875 2053 1875 
L 1259 1875 
L 1259 0 
L 628 0 
L 628 4666 
z
" transform="scale(0.015625)"/>
       <path id="DejaVuSans-72" d="M 2631 2963 
Q 2534 3019 2420 3045 
Q 2306 3072 2169 3072 
Q 1681 3072 1420 2755 
Q 1159 2438 1159 1844 
L 1159 0 
L 581 0 
L 581 3500 
L 1159 3500 
L 1159 2956 
Q 1341 3275 1631 3429 
Q 1922 3584 2338 3584 
Q 2397 3584 2469 3576 
Q 2541 3569 2628 3553 
L 2631 2963 
z
" transform="scale(0.015625)"/>
       <path id="DejaVuSans-63" d="M 3122 3366 
L 3122 2828 
Q 2878 2963 2633 3030 
Q 2388 3097 2138 3097 
Q 1578 3097 1268 2742 
Q 959 2388 959 1747 
Q 959 1106 1268 751 
Q 1578 397 2138 397 
Q 2388 397 2633 464 
Q 2878 531 3122 666 
L 3122 134 
Q 2881 22 2623 -34 
Q 2366 -91 2075 -91 
Q 1284 -91 818 406 
Q 353 903 353 1747 
Q 353 2603 823 3093 
Q 1294 3584 2113 3584 
Q 2378 3584 2631 3529 
Q 2884 3475 3122 3366 
z
" transform="scale(0.015625)"/>
       <path id="DejaVuSans-6e" d="M 3513 2113 
L 3513 0 
L 2938 0 
L 2938 2094 
Q 2938 2591 2744 2837 
Q 2550 3084 2163 3084 
Q 1697 3084 1428 2787 
Q 1159 2491 1159 1978 
L 1159 0 
L 581 0 
L 581 3500 
L 1159 3500 
L 1159 2956 
Q 1366 3272 1645 3428 
Q 1925 3584 2291 3584 
Q 2894 3584 3203 3211 
Q 3513 2838 3513 2113 
z
" transform="scale(0.015625)"/>
       <path id="DejaVuSans-66" d="M 2375 4863 
L 2375 4384 
L 1825 4384 
Q 1516 4384 1395 4259 
Q 1275 4134 1275 3809 
L 1275 3500 
L 2222 3500 
L 2222 3053 
L 1275 3053 
L 1275 0 
L 697 0 
L 697 3053 
L 147 3053 
L 147 3500 
L 697 3500 
L 697 3744 
Q 697 4328 969 4595 
Q 1241 4863 1831 4863 
L 2375 4863 
z
" transform="scale(0.015625)"/>
       <path id="DejaVuSans-6c" d="M 603 4863 
L 1178 4863 
L 1178 0 
L 603 0 
L 603 4863 
z
" transform="scale(0.015625)"/>
       <path id="DejaVuSans-64" d="M 2906 2969 
L 2906 4863 
L 3481 4863 
L 3481 0 
L 2906 0 
L 2906 525 
Q 2725 213 2448 61 
Q 2172 -91 1784 -91 
Q 1150 -91 751 415 
Q 353 922 353 1747 
Q 353 2572 751 3078 
Q 1150 3584 1784 3584 
Q 2172 3584 2448 3432 
Q 2725 3281 2906 2969 
z
M 947 1747 
Q 947 1113 1208 752 
Q 1469 391 1925 391 
Q 2381 391 2643 752 
Q 2906 1113 2906 1747 
Q 2906 2381 2643 2742 
Q 2381 3103 1925 3103 
Q 1469 3103 1208 2742 
Q 947 2381 947 1747 
z
" transform="scale(0.015625)"/>
       <path id="DejaVuSans-61" d="M 2194 1759 
Q 1497 1759 1228 1600 
Q 959 1441 959 1056 
Q 959 750 1161 570 
Q 1363 391 1709 391 
Q 2188 391 2477 730 
Q 2766 1069 2766 1631 
L 2766 1759 
L 2194 1759 
z
M 3341 1997 
L 3341 0 
L 2766 0 
L 2766 531 
Q 2569 213 2275 61 
Q 1981 -91 1556 -91 
Q 1019 -91 701 211 
Q 384 513 384 1019 
Q 384 1609 779 1909 
Q 1175 2209 1959 2209 
L 2766 2209 
L 2766 2266 
Q 2766 2663 2505 2880 
Q 2244 3097 1772 3097 
Q 1472 3097 1187 3025 
Q 903 2953 641 2809 
L 641 3341 
Q 956 3463 1253 3523 
Q 1550 3584 1831 3584 
Q 2591 3584 2966 3190 
Q 3341 2797 3341 1997 
z
" transform="scale(0.015625)"/>
       <path id="DejaVuSans-70" d="M 1159 525 
L 1159 -1331 
L 581 -1331 
L 581 3500 
L 1159 3500 
L 1159 2969 
Q 1341 3281 1617 3432 
Q 1894 3584 2278 3584 
Q 2916 3584 3314 3078 
Q 3713 2572 3713 1747 
Q 3713 922 3314 415 
Q 2916 -91 2278 -91 
Q 1894 -91 1617 61 
Q 1341 213 1159 525 
z
M 3116 1747 
Q 3116 2381 2855 2742 
Q 2594 3103 2138 3103 
Q 1681 3103 1420 2742 
Q 1159 2381 1159 1747 
Q 1159 1113 1420 752 
Q 1681 391 2138 391 
Q 2594 391 2855 752 
Q 3116 1113 3116 1747 
z
" transform="scale(0.015625)"/>
       <path id="DejaVuSans-73" d="M 2834 3397 
L 2834 2853 
Q 2591 2978 2328 3040 
Q 2066 3103 1784 3103 
Q 1356 3103 1142 2972 
Q 928 2841 928 2578 
Q 928 2378 1081 2264 
Q 1234 2150 1697 2047 
L 1894 2003 
Q 2506 1872 2764 1633 
Q 3022 1394 3022 966 
Q 3022 478 2636 193 
Q 2250 -91 1575 -91 
Q 1294 -91 989 -36 
Q 684 19 347 128 
L 347 722 
Q 666 556 975 473 
Q 1284 391 1588 391 
Q 1994 391 2212 530 
Q 2431 669 2431 922 
Q 2431 1156 2273 1281 
Q 2116 1406 1581 1522 
L 1381 1569 
Q 847 1681 609 1914 
Q 372 2147 372 2553 
Q 372 3047 722 3315 
Q 1072 3584 1716 3584 
Q 2034 3584 2315 3537 
Q 2597 3491 2834 3397 
z
" transform="scale(0.015625)"/>
      </defs>
      <use xlink:href="#DejaVuSans-50"/>
      <use xlink:href="#DejaVuSans-65" transform="translate(56.677734 0)"/>
      <use xlink:href="#DejaVuSans-72" transform="translate(118.201172 0)"/>
      <use xlink:href="#DejaVuSans-63" transform="translate(157.064453 0)"/>
      <use xlink:href="#DejaVuSans-65" transform="translate(212.044922 0)"/>
      <use xlink:href="#DejaVuSans-6e" transform="translate(273.568359 0)"/>
      <use xlink:href="#DejaVuSans-74" transform="translate(336.947266 0)"/>
      <use xlink:href="#DejaVuSans-20" transform="translate(376.15625 0)"/>
      <use xlink:href="#DejaVuSans-6f" transform="translate(407.943359 0)"/>
      <use xlink:href="#DejaVuSans-66" transform="translate(469.125 0)"/>
      <use xlink:href="#DejaVuSans-20" transform="translate(504.330078 0)"/>
      <use xlink:href="#DejaVuSans-66" transform="translate(536.117188 0)"/>
      <use xlink:href="#DejaVuSans-69" transform="translate(571.322266 0)"/>
      <use xlink:href="#DejaVuSans-6c" transform="translate(599.105469 0)"/>
      <use xlink:href="#DejaVuSans-6c" transform="translate(626.888672 0)"/>
      <use xlink:href="#DejaVuSans-65" transform="translate(654.671875 0)"/>
      <use xlink:href="#DejaVuSans-64" transform="translate(716.195312 0)"/>
      <use xlink:href="#DejaVuSans-20" transform="translate(779.671875 0)"/>
      <use xlink:href="#DejaVuSans-74" transform="translate(811.458984 0)"/>
      <use xlink:href="#DejaVuSans-72" transform="translate(850.667969 0)"/>
      <use xlink:href="#DejaVuSans-61" transform="translate(891.78125 0)"/>
      <use xlink:href="#DejaVuSans-70" transform="translate(953.060547 0)"/>
      <use xlink:href="#DejaVuSans-73" transform="translate(1016.537109 0)"/>
     </g>
    </g>
   </g>
   <g id="line2d_41">
    <path d="M 73.832727 305.157059 
L 73.832727 305.114481 
L 74.316944 305.071903 
L 85.030355 304.92288 
L 85.030355 304.880302 
L 86.374893 304.752568 
L 86.746287 304.688701 
L 95.900614 304.560968 
L 101.590574 304.316145 
L 101.812839 304.241633 
L 106.311591 304.092611 
L 106.311591 304.071322 
L 109.230078 303.943588 
L 119.539985 303.794565 
L 126.623022 303.581676 
L 127.503748 303.368786 
L 127.503748 303.315564 
L 134.763948 302.47465 
L 135.580843 302.283049 
L 135.5812 302.134026 
L 137.378795 301.963715 
L 137.406938 301.793403 
L 139.088588 301.601802 
L 141.20832 301.346335 
L 141.216668 301.176023 
L 142.930158 300.771533 
L 142.930158 300.675732 
L 143.259501 300.579932 
L 143.259501 300.462843 
L 144.324303 300.271242 
L 144.406521 300.100931 
L 145.22767 299.898685 
L 146.912906 299.685796 
L 149.427685 299.29195 
L 149.651646 299.228083 
L 152.728922 299.015194 
L 152.728922 298.972616 
L 155.518622 298.536192 
L 158.987497 298.408458 
L 158.987497 298.408458 
L 160.700184 298.238147 
L 160.700184 298.184924 
L 161.943383 297.737856 
L 161.943383 297.631411 
L 162.303772 297.418522 
L 162.48117 297.205632 
L 162.601428 297.099187 
L 162.884998 297.014031 
L 163.861232 296.822431 
L 163.926965 296.63083 
L 164.513682 296.439229 
L 165.951395 296.119895 
L 165.951395 295.907005 
L 166.673806 295.694116 
L 166.673806 295.587671 
L 167.87707 295.353492 
L 168.850656 295.002225 
L 169.874052 294.768046 
L 169.874052 294.650957 
L 170.465089 294.533868 
L 170.571291 294.203889 
L 171.012692 293.87391 
L 171.012692 293.75682 
L 172.080188 293.543931 
L 172.080188 293.437486 
L 172.360597 293.139441 
L 172.360597 293.032996 
L 173.32685 292.756239 
L 173.32685 292.671084 
L 173.923937 292.436905 
L 174.000351 292.309171 
L 176.086298 291.627924 
L 177.79515 291.489546 
L 177.79515 291.478902 
L 178.539905 291.191501 
L 178.617495 291.106345 
L 181.149506 290.680566 
L 186.248516 290.584765 
L 186.248516 290.574121 
L 187.97523 290.222853 
L 188.302802 290.052541 
L 188.302802 289.988675 
L 188.728207 289.733207 
L 188.773795 289.605473 
L 189.792385 289.424517 
L 189.792385 289.371295 
L 190.501923 289.073249 
L 190.531484 288.828426 
L 190.748775 288.700692 
L 191.114975 288.264269 
L 191.473363 288.093957 
L 191.510702 287.83849 
L 192.073869 287.689467 
L 192.073869 287.668178 
L 193.923357 287.359488 
L 193.923357 287.338199 
L 194.433632 287.167887 
L 194.479208 287.029509 
L 195.99514 286.805975 
L 196.080713 286.646308 
L 196.403666 286.465352 
L 196.998964 286.316329 
L 197.237476 286.19924 
L 197.661936 285.847972 
L 199.408888 285.528637 
L 199.408888 285.496704 
L 200.122806 285.390259 
L 201.007778 285.27317 
L 201.007778 285.27317 
L 203.906662 285.36897 
L 203.906662 285.337037 
L 204.489993 285.145436 
L 204.600848 284.943191 
L 204.734277 284.719657 
L 204.8708 284.591923 
L 205.497798 284.198077 
L 206.074031 283.399741 
L 206.546118 283.144274 
L 206.546118 283.080407 
L 208.647294 282.526894 
L 209.848006 282.39916 
L 209.935439 282.282071 
L 210.075355 282.143693 
L 210.075355 282.069181 
L 210.472363 281.792425 
L 210.546196 281.600824 
L 210.94341 281.473091 
L 210.94341 281.430513 
L 211.110073 281.270845 
L 211.188296 281.004733 
L 211.390255 280.749266 
L 211.390255 280.66411 
L 212.112074 280.408643 
L 212.217313 279.908352 
L 212.354944 279.759329 
L 212.412748 279.503862 
L 212.987049 279.23775 
L 213.199149 278.950349 
L 213.377261 278.332969 
L 213.518936 278.152013 
L 213.54982 278.09879 
L 214.03806 277.949768 
L 214.461198 277.183365 
L 214.550975 276.938542 
L 214.83332 276.76823 
L 214.83332 276.715008 
L 215.459164 276.512763 
L 215.496365 276.225362 
L 215.806298 276.044406 
L 216.415848 275.725071 
L 216.421909 275.597338 
L 216.925859 275.416381 
L 216.953376 275.12898 
L 217.809396 274.618045 
L 217.809396 274.618045 
L 218.383204 274.522245 
L 218.634725 274.373222 
L 218.83703 274.149688 
L 218.83703 274.096466 
L 219.29341 273.947443 
L 219.29341 273.894221 
L 219.545348 273.777132 
L 219.545348 273.734554 
L 220.0321 273.553597 
L 220.378197 273.372641 
L 220.801534 272.957507 
L 221.175603 272.829773 
L 221.23587 272.755261 
L 222.561077 272.723328 
L 222.561077 272.755261 
L 222.927119 272.872351 
L 222.981715 272.925573 
L 222.981715 272.925573 
L 223.231487 272.936218 
L 223.231487 272.925573 
L 223.941001 272.797839 
L 224.804836 272.435927 
L 224.860599 272.223037 
L 225.309347 272.095304 
L 225.699658 271.96757 
L 225.798799 271.786614 
L 225.880651 271.605658 
L 226.608512 271.424701 
L 226.68951 271.35019 
L 227.072518 271.211812 
L 227.102879 271.158589 
L 227.235244 271.030856 
L 228.329976 270.615721 
L 229.146695 270.679588 
L 229.146695 270.679588 
L 230.275226 270.583788 
L 230.333285 270.434765 
L 230.374749 270.434765 
L 231.045125 270.23252 
L 231.449666 270.083497 
L 231.715111 269.870607 
L 231.788763 269.540628 
L 232.687348 268.859382 
L 232.999335 268.252646 
L 233.088675 268.07169 
L 233.6545 267.124332 
L 234.10571 266.922086 
L 234.682982 266.272773 
L 234.733398 266.134395 
L 235.265365 265.857638 
L 235.359312 265.793772 
L 235.60322 265.697971 
L 235.780707 265.485082 
L 235.944679 265.399926 
L 236.250732 265.250903 
L 236.315254 265.208325 
L 236.652839 265.080591 
L 236.862451 264.79319 
L 237.247774 264.644168 
L 237.248812 264.516434 
L 237.397783 264.356767 
L 237.695241 263.739387 
L 238.03171 263.398764 
L 239.223774 263.356186 
L 239.223774 263.377475 
L 239.479753 263.526497 
L 239.516408 263.654231 
L 239.73374 263.835187 
L 239.73374 263.845832 
L 239.806042 263.845832 
L 240.196012 263.760676 
L 240.196012 263.739387 
L 240.196012 263.718098 
L 240.572335 263.473275 
L 240.662808 263.292319 
L 240.833317 263.15394 
L 240.833461 263.090074 
L 241.059314 262.96234 
L 241.059314 262.930406 
L 241.587589 262.717517 
L 241.587589 262.696228 
L 241.723261 262.65365 
L 241.723261 262.589783 
L 241.904447 262.44076 
L 241.98434 262.355604 
L 242.573492 262.44076 
L 242.573492 262.419471 
L 242.681231 262.270449 
L 242.964562 261.663713 
L 243.10034 261.53598 
L 243.175184 261.067622 
L 244.141063 260.833444 
L 244.41358 260.70571 
L 244.41358 260.641843 
L 244.669426 260.428954 
L 244.705357 260.290575 
L 245.254637 259.99253 
L 245.289768 259.758351 
L 245.916066 259.534817 
L 245.916066 259.534817 
L 246.090352 259.321928 
L 246.153534 259.119683 
L 246.240127 258.864215 
L 246.364295 258.672614 
L 246.603492 258.151035 
L 246.940156 257.938145 
L 246.940156 257.895567 
L 247.096054 257.767834 
L 247.115692 257.661389 
L 247.517815 257.523011 
L 247.524842 257.384632 
L 247.731615 257.23561 
L 248.46481 256.969498 
L 248.552786 256.80983 
L 248.698204 256.650163 
L 248.87529 256.320184 
L 248.947854 256.160517 
L 249.503361 255.862472 
L 249.597653 255.670871 
L 249.733543 255.085425 
L 250.377591 254.851246 
L 250.377591 254.851246 
L 250.703987 255.07478 
L 251.55136 255.149292 
L 251.55136 255.128003 
L 251.994644 255.010913 
L 252.039917 254.904468 
L 252.155047 254.723512 
L 252.365489 254.425467 
L 252.555755 254.297733 
L 252.615838 254.223222 
L 253.534244 253.627131 
L 253.643665 253.541975 
L 253.741791 253.414241 
L 253.894048 253.12684 
L 254.159543 252.967173 
L 254.348225 252.701061 
L 254.463966 252.530749 
L 254.825277 252.381727 
L 254.972239 252.019814 
L 255.192179 251.679191 
L 255.192179 251.70048 
L 255.371239 251.774991 
L 255.443346 251.955948 
L 255.535875 252.285926 
L 255.632098 252.552038 
L 255.754936 252.72235 
L 255.860562 252.913951 
L 256.470434 253.318441 
L 256.58398 253.169418 
L 256.58398 253.12684 
L 256.776519 253.009751 
L 256.923139 252.732995 
L 257.024748 252.573327 
L 257.306104 252.264637 
L 257.595324 252.10497 
L 257.658735 251.91337 
L 257.918286 251.583391 
L 257.985308 251.498235 
L 258.479438 251.359857 
L 258.480012 251.402435 
L 259.641183 251.466301 
L 259.642572 251.423724 
L 259.697323 251.285345 
L 260.128946 251.061811 
L 260.576292 250.77441 
L 260.655819 250.348631 
L 260.89028 249.933496 
L 260.979225 249.741896 
L 261.076734 249.582228 
L 261.174003 249.411917 
L 261.409743 249.124516 
L 261.489856 248.922271 
L 261.857937 248.751959 
L 262.202206 248.624225 
L 262.242312 248.432625 
L 262.414595 248.304891 
L 262.663325 247.953623 
L 262.842705 247.825889 
L 263.004721 247.336243 
L 263.267435 247.251087 
L 263.537283 246.953042 
L 263.647727 246.665641 
L 264.073113 245.462815 
L 264.073113 245.345725 
L 264.536663 244.919946 
L 264.725607 244.600612 
L 264.960354 244.174833 
L 265.126007 243.376497 
L 265.148493 243.174252 
L 265.385129 243.046518 
L 265.834412 241.779825 
L 265.926692 241.524357 
L 266.033075 240.885688 
L 266.18995 240.374753 
L 266.464624 239.672218 
L 266.627917 239.480617 
L 266.875119 238.692925 
L 266.965801 238.373591 
L 267.086728 238.08619 
L 267.533895 236.564029 
L 267.593858 236.383073 
L 267.819597 236.127606 
L 267.892633 235.914716 
L 267.995862 235.755049 
L 268.098532 235.627315 
L 268.265213 235.318625 
L 268.735201 234.946068 
L 268.872565 235.031224 
L 268.968599 235.201536 
L 269.389779 235.701827 
L 269.427649 235.552804 
L 269.49413 235.371848 
L 269.866433 234.179666 
L 269.971873 233.679375 
L 270.132598 233.455841 
L 270.474822 232.465905 
L 270.619459 232.221082 
L 270.809372 231.965614 
L 270.939209 231.571768 
L 271.007281 231.475968 
L 271.326369 231.316301 
L 271.549655 231.082122 
L 271.751897 230.81601 
L 272.088663 229.730273 
L 272.45876 228.495514 
L 272.628053 228.27198 
L 272.709356 227.590733 
L 272.917374 227.367199 
L 273.307839 226.345329 
L 273.423903 225.515059 
L 273.50651 225.291525 
L 273.614024 224.99348 
L 273.672141 224.823168 
L 273.764926 224.503834 
L 273.952399 224.290944 
L 274.20723 223.737431 
L 274.302251 223.428741 
L 274.440967 223.109407 
L 274.440967 223.109407 
L 274.60503 222.555894 
L 274.666223 222.364293 
L 274.768469 222.204626 
L 274.873913 222.076892 
L 274.958139 221.725624 
L 274.958139 221.725624 
L 275.223217 221.661757 
L 275.225024 221.683046 
L 275.347325 221.640468 
L 275.347325 221.629824 
L 276.151552 221.385001 
L 276.151552 221.385001 
L 276.741035 220.916644 
L 276.835401 220.767621 
L 277.805253 219.852196 
L 278.026233 219.24546 
L 278.25416 219.043215 
L 278.649404 218.787748 
L 278.757707 218.638725 
L 279.124409 218.212946 
L 279.136853 218.276813 
L 279.328754 218.330035 
L 279.518647 218.43648 
L 279.590689 218.596147 
L 279.968022 218.596147 
L 279.968022 218.585503 
L 280.145369 218.383258 
L 280.289318 218.117146 
L 280.382251 217.297521 
L 280.578335 216.903675 
L 280.684413 216.211784 
L 280.859838 215.977605 
L 281.135913 215.817938 
L 281.205929 215.754071 
L 281.314111 215.594404 
L 281.341791 215.360225 
L 281.436741 215.243136 
L 281.436741 215.25378 
L 281.774134 215.349581 
L 281.774134 215.360225 
L 281.909803 215.434737 
L 282.019111 215.519892 
L 282.019111 215.530537 
L 282.12378 215.711493 
L 282.435855 215.67956 
L 282.528921 215.541181 
L 282.639058 215.200558 
L 282.747187 214.583178 
L 282.829359 214.455444 
L 282.875371 214.04031 
L 282.96137 213.838065 
L 283.037775 213.050373 
L 283.282859 212.762972 
L 283.429166 212.464927 
L 283.515289 212.252037 
L 283.584929 212.039148 
L 283.935714 211.719813 
L 284.353014 211.826258 
L 284.405654 211.858191 
L 284.449265 211.847547 
L 284.623609 211.826258 
L 284.623609 211.804969 
L 285.409947 209.505761 
L 285.409947 209.505761 
L 286.015517 209.282227 
L 286.097756 209.133204 
L 286.537261 208.707425 
L 286.684958 208.60098 
L 286.788262 208.483891 
L 286.963135 208.31358 
L 286.963135 208.31358 
L 287.075709 208.153912 
L 287.230261 208.058112 
L 287.321001 207.930378 
L 287.482501 207.717489 
L 287.719981 207.355576 
L 287.744676 207.281065 
L 287.817348 207.323643 
L 288.007122 207.227843 
L 288.115155 206.24855 
L 288.224595 205.929216 
L 288.418134 205.663104 
L 288.523895 204.91799 
L 288.60961 204.311255 
L 288.60961 204.194166 
L 288.731974 203.959987 
L 289.39217 201.66078 
L 289.62384 201.682068 
L 289.780874 201.85238 
L 289.848152 201.980114 
L 289.959193 202.107848 
L 290.079325 202.310093 
L 290.232152 202.37396 
L 290.263236 202.299448 
L 290.348544 202.118492 
L 290.451938 202.054625 
L 290.883703 201.256289 
L 291.009146 201.096622 
L 291.074708 200.979533 
L 291.145384 201.075333 
L 291.287396 201.171133 
L 291.399339 201.437245 
L 291.399339 201.437245 
L 291.684656 201.533046 
L 291.953619 201.235 
L 292.208558 200.511176 
L 292.376066 200.372797 
L 292.475624 200.191841 
L 293.47853 198.776125 
L 293.586396 198.243901 
L 293.644283 198.094879 
L 293.892224 197.381699 
L 294.030156 197.466854 
L 294.321129 197.530721 
L 294.321129 197.498788 
L 294.576503 197.349765 
L 294.616767 197.104942 
L 294.651917 197.104942 
L 294.843845 196.955919 
L 295.006774 196.679163 
L 295.380091 195.699871 
L 295.615478 195.401825 
L 295.842034 194.348022 
L 295.913443 194.17771 
L 295.992558 193.517752 
L 296.325778 193.304863 
L 296.368284 193.400663 
L 296.65747 193.666775 
L 296.729662 193.762575 
L 296.768297 193.656131 
L 296.845055 193.379374 
L 297.074039 193.134551 
L 297.174273 192.793928 
L 297.261698 192.570394 
L 297.558065 191.793347 
L 297.697888 191.697546 
L 297.697888 191.708191 
L 298.243197 191.537879 
L 298.475051 190.867277 
L 298.605631 190.633098 
L 298.722766 189.834762 
L 298.846711 189.504783 
L 298.943958 188.961915 
L 299.51168 188.259379 
L 299.676208 188.089068 
L 299.828067 187.748444 
L 299.890246 187.588777 
L 299.988712 187.450399 
L 300.095164 186.896886 
L 300.442546 186.066616 
L 300.540319 185.555681 
L 300.663449 185.310858 
L 300.764751 184.661545 
L 301.097788 183.394852 
L 301.26905 183.171318 
L 301.391395 182.564582 
L 301.633241 181.713024 
L 301.742211 180.829532 
L 301.995087 180.627287 
L 302.099299 180.456975 
L 302.195384 180.382464 
L 302.214936 180.414397 
L 302.357238 180.382464 
L 302.612852 179.956685 
L 302.951327 180.297308 
L 303.059701 180.701798 
L 303.26288 181.095644 
L 303.292855 181.287245 
L 303.334049 180.989199 
L 303.74536 179.935396 
L 304.73815 178.008745 
L 304.963182 177.9023 
L 305.056623 177.774566 
L 305.074282 177.795855 
L 305.164816 177.731988 
L 305.383759 178.583547 
L 305.492826 179.211571 
L 305.849609 179.679928 
L 305.896014 179.573484 
L 305.987672 179.318016 
L 306.095512 178.92417 
L 306.197257 177.849078 
L 306.292358 177.327498 
L 306.370237 177.050742 
L 306.477472 176.944297 
L 306.854186 176.039516 
L 306.983561 175.209247 
L 307.09707 174.591867 
L 307.66852 173.527419 
L 307.745713 173.50613 
L 307.755391 173.474196 
L 307.841851 173.218729 
L 307.931955 172.846172 
L 308.066956 172.537482 
L 308.285576 171.781724 
L 308.357938 171.451745 
L 308.396129 171.132411 
L 308.529744 170.515031 
L 309.237585 168.833203 
L 309.522306 168.354202 
L 309.749984 165.661148 
L 309.943554 165.30988 
L 309.990883 164.745723 
L 310.087781 164.522189 
L 310.446444 164.245432 
L 310.503111 164.170921 
L 310.539229 164.245432 
L 310.766327 164.330588 
L 311.020753 164.511544 
L 311.029375 164.447677 
L 311.223547 163.926098 
L 311.300744 163.819653 
L 311.382284 163.276785 
L 311.511506 163.106473 
L 311.617137 162.978739 
L 311.522394 163.127762 
L 311.617137 162.978739 
L 311.842823 162.829716 
L 311.864522 162.882939 
L 311.986302 162.776494 
L 312.039231 162.446515 
L 312.454419 161.328845 
L 312.51484 161.371423 
L 312.553876 161.3182 
L 313.061218 160.477286 
L 313.084359 160.498575 
L 313.306882 160.732754 
L 313.306882 160.722109 
L 313.318444 160.732754 
L 313.352904 160.658243 
L 313.856978 160.115374 
L 313.957436 159.881196 
L 313.964723 159.881196 
L 314.023339 159.774751 
L 314.102427 159.593795 
L 314.145308 159.689595 
L 314.250333 159.870551 
L 314.352268 160.243108 
L 314.426556 160.29633 
L 314.45791 160.179241 
L 314.543541 160.062152 
L 314.654515 159.79604 
L 314.772741 159.402194 
L 314.830982 159.146726 
L 314.953332 158.56128 
L 315.348423 158.901903 
L 315.401706 158.742236 
L 315.586549 158.220657 
L 315.707375 157.369098 
L 315.861196 156.932675 
L 315.934791 156.645274 
L 316.422575 154.207688 
L 316.483477 153.877709 
L 316.584975 153.505152 
L 316.755567 153.217751 
L 316.870692 152.653594 
L 317.160467 152.302326 
L 317.265245 150.993055 
L 317.521477 150.216008 
L 317.615897 149.981829 
L 317.805887 149.492183 
L 317.883207 149.353805 
L 317.994186 148.821581 
L 318.15322 148.342579 
L 318.160301 148.512891 
L 318.26861 149.087693 
L 318.302818 149.353805 
L 318.366051 149.566694 
L 318.398369 149.566694 
L 318.468128 149.236716 
L 318.573546 148.981248 
L 318.640369 148.140334 
L 318.726645 147.863578 
L 318.748116 147.863578 
L 318.79871 147.991311 
L 318.938214 148.480957 
L 319.02635 148.417091 
L 319.162347 148.161623 
L 319.452542 146.905574 
L 319.524243 146.479795 
L 319.609689 146.18175 
L 319.629295 146.18175 
L 319.705962 146.054016 
L 319.810739 145.936927 
L 319.997876 145.851771 
L 319.997876 145.830482 
L 320.031658 145.606948 
L 320.160491 144.350899 
L 320.177019 144.404122 
L 320.263692 144.925701 
L 320.352345 145.117302 
L 320.380405 145.010857 
L 320.51163 144.883123 
L 320.51163 144.883123 
L 320.819903 144.776678 
L 320.864478 144.531855 
L 321.032474 143.382252 
L 321.236254 142.317804 
L 321.505455 141.604623 
L 321.59832 140.95531 
L 322.184141 140.231485 
L 322.287976 140.231485 
L 322.289088 140.210196 
L 322.38772 140.082463 
L 322.589492 139.816351 
L 322.692745 139.965373 
L 322.778706 140.433731 
L 322.820782 140.593398 
L 322.884958 140.806287 
L 322.932171 140.635976 
L 323.037169 139.560883 
L 323.14786 137.815188 
L 323.360789 136.601718 
L 323.602419 136.399473 
L 323.628338 136.452695 
L 323.770616 137.091364 
L 323.866292 137.730033 
L 323.942425 137.815188 
L 323.989604 137.67681 
L 324.048257 137.453276 
L 324.235343 136.782674 
L 324.274972 136.952986 
L 324.385364 137.687455 
L 324.571395 138.900925 
L 324.73302 140.401797 
L 324.887156 140.252774 
L 324.99233 140.093107 
L 325.306102 139.049948 
L 325.334732 139.135104 
L 325.524165 139.273482 
L 325.529916 139.262838 
L 325.576694 139.167037 
L 325.808437 138.773192 
L 325.940013 138.677391 
L 326.056467 138.358057 
L 326.165662 138.113234 
L 326.549991 137.740677 
L 326.81144 137.293609 
L 327.019823 136.96363 
L 327.105195 136.835896 
L 327.171198 136.55914 
L 327.791272 133.568041 
L 327.812552 133.578685 
L 328.007015 133.472241 
L 328.106788 133.28064 
L 328.186682 133.099684 
L 328.592485 130.683387 
L 328.668874 130.491786 
L 328.757757 129.778606 
L 328.926821 128.224512 
L 329.121428 127.788088 
L 329.308532 127.330376 
L 329.39994 127.426176 
L 329.510188 127.713577 
L 329.612621 128.032911 
L 329.687206 128.139356 
L 329.72474 128.203223 
L 329.741865 128.043556 
L 329.817635 127.756155 
L 329.845767 127.766799 
L 329.992304 127.820022 
L 330.011748 127.798733 
L 330.187066 127.298442 
L 330.94151 124.073165 
L 331.097351 123.881564 
L 331.195942 123.700608 
L 331.334768 123.519652 
L 331.524807 122.614871 
L 331.53171 122.657449 
L 331.636232 122.604227 
L 331.730533 122.444559 
L 331.730533 122.444559 
L 331.787643 122.455204 
L 331.856284 122.316826 
L 331.953205 122.42327 
L 332.1654 122.700027 
L 332.217823 122.614871 
L 332.252281 122.444559 
L 332.971384 116.983941 
L 333.041088 117.441654 
L 333.254882 119.485394 
L 333.373543 119.506683 
L 333.376576 119.442816 
L 333.483441 118.836081 
L 333.528679 118.229345 
L 333.660793 116.824274 
L 333.746506 116.653962 
L 333.982036 115.185024 
L 334.083217 114.674089 
L 334.167922 114.493133 
L 334.332575 113.790597 
L 334.35526 113.481907 
L 334.469959 113.258373 
L 334.659269 112.907105 
L 334.873001 111.342367 
L 334.910182 111.619123 
L 335.102583 112.066191 
L 335.1644 111.874591 
L 335.448321 111.172055 
L 335.582189 109.905362 
L 335.844021 108.468357 
L 335.971835 107.9042 
L 336.060849 107.712599 
L 336.080733 107.765821 
L 336.123212 107.840333 
L 336.123212 107.872266 
L 336.151895 108.287401 
L 336.222367 108.223534 
L 336.263477 108.117089 
L 336.734344 106.829107 
L 337.038959 106.807818 
L 337.365546 107.052641 
L 337.375719 107.19102 
L 337.465411 106.871685 
L 337.666953 105.636925 
L 337.920166 105.43468 
L 338.039047 104.753434 
L 338.229779 104.093476 
L 338.313077 103.987031 
L 338.572423 103.731564 
L 338.681485 102.89065 
L 338.844229 102.251981 
L 338.958133 102.315848 
L 339.027888 102.507448 
L 339.075927 102.326492 
L 339.468652 98.856392 
L 339.744496 98.962836 
L 339.847926 99.016059 
L 339.86487 99.026703 
L 339.880849 98.909614 
L 339.994587 98.111278 
L 340.03255 97.791944 
L 340.144601 97.823877 
L 340.422806 97.56841 
L 340.572846 97.185208 
L 340.611866 97.227786 
L 340.769194 97.334231 
L 340.876297 97.35552 
L 340.91029 97.312942 
L 341.107748 97.206497 
L 341.310325 96.802007 
L 341.453044 96.631695 
L 341.509681 96.73814 
L 341.776627 98.089989 
L 341.806623 97.994189 
L 341.881944 97.717432 
L 342.159607 96.780718 
L 342.21747 96.674273 
L 342.346769 96.54654 
L 342.431216 96.440095 
L 342.594817 95.865293 
L 342.612076 95.897226 
L 342.68626 96.003671 
L 342.895675 96.035604 
L 343.228968 95.567247 
L 343.337471 94.375066 
L 343.575494 92.24617 
L 343.582093 92.278103 
L 343.912183 92.74646 
L 343.962883 92.714527 
L 344.003843 92.576148 
L 344.281615 90.29823 
L 344.968566 90.191785 
L 345.036662 90.042762 
L 345.03752 90.010829 
L 345.094671 90.213074 
L 345.145131 90.021473 
L 345.189806 89.851162 
L 345.263929 89.936317 
L 345.417286 90.340808 
L 345.559281 90.851743 
L 345.63245 91.064632 
L 345.674392 91.341389 
L 345.775144 91.256233 
L 345.878982 90.904965 
L 346.012573 90.894321 
L 346.283434 91.000765 
L 346.339889 91.096566 
L 346.344925 90.883676 
L 346.444105 90.170496 
L 346.514906 89.946962 
L 346.743891 89.15927 
L 346.973473 88.85058 
L 346.987972 88.957025 
L 347.096694 89.15927 
L 347.137063 89.297649 
L 347.182649 89.052826 
L 347.297934 88.861225 
L 347.427392 88.552535 
L 347.592036 87.11553 
L 347.602223 87.147464 
L 347.877913 87.551954 
L 347.989625 87.679688 
L 347.997905 87.669043 
L 348.073835 87.562598 
L 348.23232 86.977152 
L 348.23232 86.977152 
L 348.386482 86.870707 
L 348.732498 86.657818 
L 348.810867 86.551373 
L 348.94242 86.168172 
L 349.019926 85.870126 
L 349.098256 85.912704 
L 349.228607 86.178816 
L 349.394635 86.774907 
L 349.44833 86.732329 
L 349.573311 86.49815 
L 349.633646 86.657818 
L 349.731083 87.764844 
L 349.741892 87.573243 
L 349.877863 87.466798 
L 349.877863 87.466798 
L 349.880102 87.434865 
L 349.931201 87.63711 
L 349.97956 87.583887 
L 350.100224 87.339064 
L 350.349028 86.657818 
L 350.364001 86.945219 
L 350.495947 87.764844 
L 350.654649 87.871288 
L 350.676093 87.807421 
L 350.884069 86.955863 
L 350.975247 87.243264 
L 351.140209 87.211331 
L 351.464703 87.147464 
L 351.806999 87.243264 
L 351.809283 87.23262 
L 351.878849 86.902641 
L 351.911069 87.285842 
L 352.048652 87.9458 
L 352.29135 88.201267 
L 352.343181 88.148045 
L 352.601413 87.679688 
L 352.691379 87.051663 
L 352.788059 85.90206 
L 353.088005 84.390543 
L 353.295741 83.83703 
L 353.310921 84.028631 
L 353.431262 85.188879 
L 353.546449 85.401769 
L 353.575935 85.38048 
L 353.71587 85.050501 
L 353.770103 85.220813 
L 353.852711 85.369836 
L 353.887612 85.359191 
L 353.986091 85.125012 
L 354.310772 83.358029 
L 354.310772 83.358029 
L 354.365943 83.400607 
L 354.518357 82.62356 
L 354.627295 81.537823 
L 354.811178 81.090755 
L 354.820959 81.133332 
L 355.078311 82.50647 
L 355.207133 83.762519 
L 355.436253 84.7631 
L 355.43758 84.784389 
L 355.515294 84.252165 
L 355.763337 83.592207 
L 355.817025 83.868964 
L 355.935028 84.060564 
L 356.068272 83.95412 
L 356.291284 82.50647 
L 356.814911 79.557949 
L 356.846947 79.568594 
L 356.924796 79.664394 
L 357.026776 79.738906 
L 357.057323 79.706972 
L 357.132333 79.472794 
L 357.291892 77.993211 
L 357.526906 77.80161 
L 357.723929 77.70581 
L 358.328921 77.18423 
L 358.441765 77.109719 
L 358.376956 77.237453 
L 358.454918 77.120364 
L 358.652146 77.013919 
L 358.796456 76.609428 
L 358.93137 76.513628 
L 359.003528 76.173005 
L 359.2535 75.683359 
L 359.604537 75.587558 
L 359.753137 74.076042 
L 359.810983 73.820575 
L 360.15107 72.149391 
L 360.334889 70.446275 
L 360.50043 70.180163 
L 360.631881 70.073718 
L 360.745523 70.041784 
L 360.992629 70.33983 
L 361.323818 71.521367 
L 361.358705 71.840701 
L 361.479165 72.468726 
L 361.503396 72.649682 
L 361.503459 72.681615 
L 361.614111 72.670971 
L 361.713134 72.575171 
L 361.815858 71.883279 
L 361.872807 71.3617 
L 361.98747 71.010432 
L 362.139885 70.158874 
L 362.643955 68.743158 
L 362.674684 68.668646 
L 362.754475 68.743158 
L 363.035555 69.658583 
L 363.074768 69.477627 
L 363.336514 69.126359 
L 363.339562 69.137004 
L 363.412962 70.414341 
L 363.471894 71.3617 
L 363.525154 70.850765 
L 363.736437 69.254093 
L 363.781237 69.190226 
L 363.838771 69.296671 
L 364.01308 69.424404 
L 364.019727 69.41376 
L 364.374514 68.647357 
L 364.47561 68.551557 
L 364.510736 68.647357 
L 364.620271 69.126359 
L 364.729856 68.924114 
L 364.870888 68.647357 
L 364.90051 68.370601 
L 364.959176 68.79638 
L 365.197287 69.669228 
L 365.278135 69.647939 
L 365.436347 69.754383 
L 365.513867 70.701742 
L 365.558858 70.574008 
L 365.645981 70.22274 
L 365.803846 69.765028 
L 365.904263 69.41376 
L 365.971308 69.701161 
L 366.129583 70.318541 
L 366.199429 70.424986 
L 366.246692 70.74432 
L 366.265574 70.212096 
L 366.787917 66.465239 
L 366.828001 66.358794 
L 366.933977 66.060749 
L 367.063403 65.890437 
L 367.092024 66.03946 
L 367.190371 66.720707 
L 367.300979 66.997463 
L 367.422709 67.018752 
L 367.427488 67.008108 
L 367.451378 66.933596 
L 367.451378 66.912307 
L 367.871479 65.720125 
L 367.911015 65.283702 
L 368.020845 64.698255 
L 368.071958 64.8047 
L 368.09704 64.975012 
L 368.103697 64.6131 
L 368.123052 64.357632 
L 368.21459 64.645033 
L 368.290742 65.20919 
L 368.360697 64.751478 
L 368.569697 63.133517 
L 368.624882 63.250606 
L 368.749671 63.346406 
L 368.941741 63.548652 
L 369.003667 63.804119 
L 369.077545 63.633807 
L 369.098197 63.548652 
L 369.142172 63.484785 
L 369.20765 63.548652 
L 369.231553 63.804119 
L 369.335889 64.155387 
L 369.450913 64.325699 
L 369.552091 64.176676 
L 369.728695 63.867986 
L 369.778924 63.548652 
L 369.877754 63.665741 
L 370.135273 63.942497 
L 370.15689 63.740252 
L 370.33769 62.388403 
L 370.359736 62.484204 
L 370.460372 62.76096 
L 370.523152 62.654515 
L 370.636687 61.877468 
L 370.673494 61.707156 
L 370.745433 61.973268 
L 370.774346 61.888113 
L 370.869202 62.005202 
L 371.05283 62.218092 
L 371.534694 62.324536 
L 371.65685 62.643871 
L 371.808815 62.76096 
L 371.836523 62.718382 
L 372.143844 61.888113 
L 372.417246 61.132355 
L 372.441587 61.185577 
L 372.675891 62.090358 
L 373.127748 64.18732 
L 373.24787 64.293765 
L 373.413645 64.336343 
L 373.422837 64.325699 
L 373.467204 64.421499 
L 373.633836 64.932434 
L 373.871197 65.01759 
L 373.87801 64.943078 
L 374.026761 63.718963 
L 374.108499 62.803538 
L 374.230838 62.45227 
L 374.256271 62.707738 
L 374.259447 62.814182 
L 374.333512 61.824246 
L 374.431551 61.664579 
L 374.449449 61.717801 
L 374.483107 62.23938 
L 374.507138 62.611937 
L 374.59705 62.281958 
L 374.929497 59.705994 
L 375.110198 59.493105 
L 375.127958 59.503749 
L 375.232559 59.397304 
L 375.269233 59.099259 
L 375.287182 59.663416 
L 375.451673 61.02591 
L 375.542581 61.153644 
L 375.569282 61.100421 
L 375.971551 59.823084 
L 375.988441 59.844372 
L 376.324876 60.09984 
L 376.483775 59.993395 
L 376.636534 59.620838 
L 376.646462 59.525038 
L 376.73595 59.748572 
L 376.786363 60.153062 
L 376.929383 61.377178 
L 377.124079 61.696512 
L 377.140629 61.685868 
L 377.19575 61.590067 
L 377.281423 60.823665 
L 377.392397 60.419174 
L 377.951221 59.280215 
L 378.385911 56.502006 
L 378.454296 56.395561 
L 378.462529 56.342339 
L 378.526002 56.82134 
L 378.545724 56.82134 
L 378.578575 56.714895 
L 378.692702 55.980426 
L 378.999939 54.128287 
L 379.181749 53.840886 
L 379.610971 53.361884 
L 379.652278 52.872238 
L 379.965978 50.211118 
L 380.116534 49.434071 
L 380.129928 49.497938 
L 380.344487 50.519808 
L 380.35821 49.966295 
L 380.488665 49.434071 
L 380.546749 50.519808 
L 380.645946 49.966295 
L 380.675774 50.062095 
L 380.756205 52.11648 
L 380.828944 50.57303 
L 380.999122 51.041388 
L 381.101233 51.147832 
L 381.19146 52.11648 
L 381.262689 51.531034 
L 381.328084 51.115899 
L 381.402366 50.700764 
L 381.432101 51.328788 
L 381.541826 51.584256 
L 381.56221 51.4991 
L 381.78612 51.030743 
L 381.903477 50.924298 
L 381.962968 50.487875 
L 382.07746 49.263759 
L 382.301843 48.74218 
L 382.627605 47.848044 
L 382.679569 48.039644 
L 382.8801 48.380268 
L 383.303151 48.273823 
L 383.392406 47.50742 
L 383.547114 46.262016 
L 384.004101 46.155571 
L 384.131306 45.740436 
L 384.24535 45.729792 
L 384.794371 45.623347 
L 384.986808 45.176279 
L 384.988731 45.186924 
L 385.027178 45.080479 
L 385.279112 44.122476 
L 385.310794 44.13312 
L 385.688839 44.026675 
L 385.904409 43.600896 
L 386.071388 43.696696 
L 386.140376 44.665344 
L 386.207508 44.13312 
L 386.229041 44.111831 
L 386.284753 44.452454 
L 386.335104 45.080479 
L 386.445374 45.783014 
L 386.719709 46.262016 
L 388.022785 46.155571 
L 388.116249 46.059771 
L 388.136713 46.134282 
L 388.295762 46.325883 
L 388.393861 46.432328 
L 388.744362 47.358397 
L 389.146532 47.464842 
L 389.281551 47.848044 
L 389.337646 47.741599 
L 389.478744 47.390331 
L 389.52537 47.549998 
L 389.565014 47.826755 
L 389.596504 47.41162 
L 389.779554 46.783596 
L 390.061241 46.677151 
L 390.514745 44.665344 
L 391.060913 44.558899 
L 391.066649 44.473743 
L 391.128638 45.112412 
L 391.139216 45.453036 
L 391.242364 45.197568 
L 391.367075 45.091123 
L 391.562213 43.270917 
L 391.719689 43.068672 
L 392.22197 42.962227 
L 392.345651 42.100024 
L 392.477925 42.004224 
L 392.854598 42.110669 
L 392.993752 42.536448 
L 393.017736 42.366136 
L 393.178466 42.004224 
L 394.953974 41.897779 
L 395.097408 41.472 
L 398.487273 41.472 
L 398.487273 41.472 
" clip-path="url(#p3c0d20a1d4)" style="fill: none; stroke-dasharray: 1.85,0.8; stroke-dashoffset: 0; stroke: #8000ff; stroke-width: 0.5"/>
   </g>
   <g id="patch_3">
    <path d="M 57.6 307.584 
L 57.6 41.472 
" style="fill: none; stroke: #000000; stroke-width: 0.8; stroke-linejoin: miter; stroke-linecap: square"/>
   </g>
   <g id="patch_4">
    <path d="M 414.72 307.584 
L 414.72 41.472 
" style="fill: none; stroke: #000000; stroke-width: 0.8; stroke-linejoin: miter; stroke-linecap: square"/>
   </g>
   <g id="patch_5">
    <path d="M 57.6 307.584 
L 414.72 307.584 
" style="fill: none; stroke: #000000; stroke-width: 0.8; stroke-linejoin: miter; stroke-linecap: square"/>
   </g>
   <g id="patch_6">
    <path d="M 57.6 41.472 
L 414.72 41.472 
" style="fill: none; stroke: #000000; stroke-width: 0.8; stroke-linejoin: miter; stroke-linecap: square"/>
   </g>
   <g id="legend_1">
    <g id="patch_7">
     <path d="M 314.584 90.761325 
L 516.966813 90.761325 
Q 518.966813 90.761325 518.966813 88.761325 
L 518.966813 75.0832 
Q 518.966813 73.0832 516.966813 73.0832 
L 314.584 73.0832 
Q 312.584 73.0832 312.584 75.0832 
L 312.584 88.761325 
Q 312.584 90.761325 314.584 90.761325 
z
" style="fill: #ffffff; opacity: 0.8; stroke: #cccccc; stroke-linejoin: miter"/>
    </g>
    <g id="line2d_42">
     <path d="M 316.584 81.181637 
L 326.584 81.181637 
L 336.584 81.181637 
" style="fill: none; stroke-dasharray: 1.85,0.8; stroke-dashoffset: 0; stroke: #8000ff; stroke-width: 0.5"/>
    </g>
    <g id="text_13">
     <!-- Total number of electron traps500 -->
     <g transform="translate(344.584 84.681637) scale(0.1 -0.1)">
      <defs>
       <path id="DejaVuSans-54" d="M -19 4666 
L 3928 4666 
L 3928 4134 
L 2272 4134 
L 2272 0 
L 1638 0 
L 1638 4134 
L -19 4134 
L -19 4666 
z
" transform="scale(0.015625)"/>
       <path id="DejaVuSans-75" d="M 544 1381 
L 544 3500 
L 1119 3500 
L 1119 1403 
Q 1119 906 1312 657 
Q 1506 409 1894 409 
Q 2359 409 2629 706 
Q 2900 1003 2900 1516 
L 2900 3500 
L 3475 3500 
L 3475 0 
L 2900 0 
L 2900 538 
Q 2691 219 2414 64 
Q 2138 -91 1772 -91 
Q 1169 -91 856 284 
Q 544 659 544 1381 
z
M 1991 3584 
L 1991 3584 
z
" transform="scale(0.015625)"/>
       <path id="DejaVuSans-62" d="M 3116 1747 
Q 3116 2381 2855 2742 
Q 2594 3103 2138 3103 
Q 1681 3103 1420 2742 
Q 1159 2381 1159 1747 
Q 1159 1113 1420 752 
Q 1681 391 2138 391 
Q 2594 391 2855 752 
Q 3116 1113 3116 1747 
z
M 1159 2969 
Q 1341 3281 1617 3432 
Q 1894 3584 2278 3584 
Q 2916 3584 3314 3078 
Q 3713 2572 3713 1747 
Q 3713 922 3314 415 
Q 2916 -91 2278 -91 
Q 1894 -91 1617 61 
Q 1341 213 1159 525 
L 1159 0 
L 581 0 
L 581 4863 
L 1159 4863 
L 1159 2969 
z
" transform="scale(0.015625)"/>
       <path id="DejaVuSans-35" d="M 691 4666 
L 3169 4666 
L 3169 4134 
L 1269 4134 
L 1269 2991 
Q 1406 3038 1543 3061 
Q 1681 3084 1819 3084 
Q 2600 3084 3056 2656 
Q 3513 2228 3513 1497 
Q 3513 744 3044 326 
Q 2575 -91 1722 -91 
Q 1428 -91 1123 -41 
Q 819 9 494 109 
L 494 744 
Q 775 591 1075 516 
Q 1375 441 1709 441 
Q 2250 441 2565 725 
Q 2881 1009 2881 1497 
Q 2881 1984 2565 2268 
Q 2250 2553 1709 2553 
Q 1456 2553 1204 2497 
Q 953 2441 691 2322 
L 691 4666 
z
" transform="scale(0.015625)"/>
      </defs>
      <use xlink:href="#DejaVuSans-54"/>
      <use xlink:href="#DejaVuSans-6f" transform="translate(44.083984 0)"/>
      <use xlink:href="#DejaVuSans-74" transform="translate(105.265625 0)"/>
      <use xlink:href="#DejaVuSans-61" transform="translate(144.474609 0)"/>
      <use xlink:href="#DejaVuSans-6c" transform="translate(205.753906 0)"/>
      <use xlink:href="#DejaVuSans-20" transform="translate(233.537109 0)"/>
      <use xlink:href="#DejaVuSans-6e" transform="translate(265.324219 0)"/>
      <use xlink:href="#DejaVuSans-75" transform="translate(328.703125 0)"/>
      <use xlink:href="#DejaVuSans-6d" transform="translate(392.082031 0)"/>
      <use xlink:href="#DejaVuSans-62" transform="translate(489.494141 0)"/>
      <use xlink:href="#DejaVuSans-65" transform="translate(552.970703 0)"/>
      <use xlink:href="#DejaVuSans-72" transform="translate(614.494141 0)"/>
      <use xlink:href="#DejaVuSans-20" transform="translate(655.607422 0)"/>
      <use xlink:href="#DejaVuSans-6f" transform="translate(687.394531 0)"/>
      <use xlink:href="#DejaVuSans-66" transform="translate(748.576172 0)"/>
      <use xlink:href="#DejaVuSans-20" transform="translate(783.78125 0)"/>
      <use xlink:href="#DejaVuSans-65" transform="translate(815.568359 0)"/>
      <use xlink:href="#DejaVuSans-6c" transform="translate(877.091797 0)"/>
      <use xlink:href="#DejaVuSans-65" transform="translate(904.875 0)"/>
      <use xlink:href="#DejaVuSans-63" transform="translate(966.398438 0)"/>
      <use xlink:href="#DejaVuSans-74" transform="translate(1021.378906 0)"/>
      <use xlink:href="#DejaVuSans-72" transform="translate(1060.587891 0)"/>
      <use xlink:href="#DejaVuSans-6f" transform="translate(1099.451172 0)"/>
      <use xlink:href="#DejaVuSans-6e" transform="translate(1160.632812 0)"/>
      <use xlink:href="#DejaVuSans-20" transform="translate(1224.011719 0)"/>
      <use xlink:href="#DejaVuSans-74" transform="translate(1255.798828 0)"/>
      <use xlink:href="#DejaVuSans-72" transform="translate(1295.007812 0)"/>
      <use xlink:href="#DejaVuSans-61" transform="translate(1336.121094 0)"/>
      <use xlink:href="#DejaVuSans-70" transform="translate(1397.400391 0)"/>
      <use xlink:href="#DejaVuSans-73" transform="translate(1460.876953 0)"/>
      <use xlink:href="#DejaVuSans-35" transform="translate(1512.976562 0)"/>
      <use xlink:href="#DejaVuSans-30" transform="translate(1576.599609 0)"/>
      <use xlink:href="#DejaVuSans-30" transform="translate(1640.222656 0)"/>
     </g>
    </g>
   </g>
  </g>
 </g>
 <defs>
  <clipPath id="p3c0d20a1d4">
   <rect x="57.6" y="41.472" width="357.12" height="266.112"/>
  </clipPath>
 </defs>
</svg>
