<?xml version="1.0" encoding="utf-8" standalone="no"?>
<!DOCTYPE svg PUBLIC "-//W3C//DTD SVG 1.1//EN"
  "http://www.w3.org/Graphics/SVG/1.1/DTD/svg11.dtd">
<svg xmlns:xlink="http://www.w3.org/1999/xlink" width="460.8pt" height="345.6pt" viewBox="0 0 460.8 345.6" xmlns="http://www.w3.org/2000/svg" version="1.1">
 <metadata>
  <rdf:RDF xmlns:dc="http://purl.org/dc/elements/1.1/" xmlns:cc="http://creativecommons.org/ns#" xmlns:rdf="http://www.w3.org/1999/02/22-rdf-syntax-ns#">
   <cc:Work>
    <dc:type rdf:resource="http://purl.org/dc/dcmitype/StillImage"/>
    <dc:date>2025-03-25T10:51:16.379274</dc:date>
    <dc:format>image/svg+xml</dc:format>
    <dc:creator>
     <cc:Agent>
      <dc:title>Matplotlib v3.10.0, https://matplotlib.org/</dc:title>
     </cc:Agent>
    </dc:creator>
   </cc:Work>
  </rdf:RDF>
 </metadata>
 <defs>
  <style type="text/css">*{stroke-linejoin: round; stroke-linecap: butt}</style>
 </defs>
 <g id="figure_1">
  <g id="patch_1">
   <path d="M 0 345.6 
L 460.8 345.6 
L 460.8 0 
L 0 0 
z
" style="fill: #ffffff"/>
  </g>
  <g id="axes_1">
   <g id="patch_2">
    <path d="M 57.6 307.584 
L 414.72 307.584 
L 414.72 41.472 
L 57.6 41.472 
z
" style="fill: #ffffff"/>
   </g>
   <g id="matplotlib.axis_1">
    <g id="xtick_1">
     <g id="line2d_1">
      <defs>
       <path id="m91801ac8de" d="M 0 0 
L 0 3.5 
" style="stroke: #000000; stroke-width: 0.8"/>
      </defs>
      <g>
       <use xlink:href="#m91801ac8de" x="145.612077" y="307.584" style="stroke: #000000; stroke-width: 0.8"/>
      </g>
     </g>
     <g id="text_1">
      <!-- $\mathdefault{10^{12}}$ -->
      <g transform="translate(134.562077 322.182437) scale(0.1 -0.1)">
       <defs>
        <path id="DejaVuSans-31" d="M 794 531 
L 1825 531 
L 1825 4091 
L 703 3866 
L 703 4441 
L 1819 4666 
L 2450 4666 
L 2450 531 
L 3481 531 
L 3481 0 
L 794 0 
L 794 531 
z
" transform="scale(0.015625)"/>
        <path id="DejaVuSans-30" d="M 2034 4250 
Q 1547 4250 1301 3770 
Q 1056 3291 1056 2328 
Q 1056 1369 1301 889 
Q 1547 409 2034 409 
Q 2525 409 2770 889 
Q 3016 1369 3016 2328 
Q 3016 3291 2770 3770 
Q 2525 4250 2034 4250 
z
M 2034 4750 
Q 2819 4750 3233 4129 
Q 3647 3509 3647 2328 
Q 3647 1150 3233 529 
Q 2819 -91 2034 -91 
Q 1250 -91 836 529 
Q 422 1150 422 2328 
Q 422 3509 836 4129 
Q 1250 4750 2034 4750 
z
" transform="scale(0.015625)"/>
        <path id="DejaVuSans-32" d="M 1228 531 
L 3431 531 
L 3431 0 
L 469 0 
L 469 531 
Q 828 903 1448 1529 
Q 2069 2156 2228 2338 
Q 2531 2678 2651 2914 
Q 2772 3150 2772 3378 
Q 2772 3750 2511 3984 
Q 2250 4219 1831 4219 
Q 1534 4219 1204 4116 
Q 875 4013 500 3803 
L 500 4441 
Q 881 4594 1212 4672 
Q 1544 4750 1819 4750 
Q 2544 4750 2975 4387 
Q 3406 4025 3406 3419 
Q 3406 3131 3298 2873 
Q 3191 2616 2906 2266 
Q 2828 2175 2409 1742 
Q 1991 1309 1228 531 
z
" transform="scale(0.015625)"/>
       </defs>
       <use xlink:href="#DejaVuSans-31" transform="translate(0 0.765625)"/>
       <use xlink:href="#DejaVuSans-30" transform="translate(63.623047 0.765625)"/>
       <use xlink:href="#DejaVuSans-31" transform="translate(128.203125 39.046875) scale(0.7)"/>
       <use xlink:href="#DejaVuSans-32" transform="translate(172.739258 39.046875) scale(0.7)"/>
      </g>
     </g>
    </g>
    <g id="xtick_2">
     <g id="line2d_2">
      <g>
       <use xlink:href="#m91801ac8de" x="371.600664" y="307.584" style="stroke: #000000; stroke-width: 0.8"/>
      </g>
     </g>
     <g id="text_2">
      <!-- $\mathdefault{10^{13}}$ -->
      <g transform="translate(360.550664 322.182437) scale(0.1 -0.1)">
       <defs>
        <path id="DejaVuSans-33" d="M 2597 2516 
Q 3050 2419 3304 2112 
Q 3559 1806 3559 1356 
Q 3559 666 3084 287 
Q 2609 -91 1734 -91 
Q 1441 -91 1130 -33 
Q 819 25 488 141 
L 488 750 
Q 750 597 1062 519 
Q 1375 441 1716 441 
Q 2309 441 2620 675 
Q 2931 909 2931 1356 
Q 2931 1769 2642 2001 
Q 2353 2234 1838 2234 
L 1294 2234 
L 1294 2753 
L 1863 2753 
Q 2328 2753 2575 2939 
Q 2822 3125 2822 3475 
Q 2822 3834 2567 4026 
Q 2313 4219 1838 4219 
Q 1578 4219 1281 4162 
Q 984 4106 628 3988 
L 628 4550 
Q 988 4650 1302 4700 
Q 1616 4750 1894 4750 
Q 2613 4750 3031 4423 
Q 3450 4097 3450 3541 
Q 3450 3153 3228 2886 
Q 3006 2619 2597 2516 
z
" transform="scale(0.015625)"/>
       </defs>
       <use xlink:href="#DejaVuSans-31" transform="translate(0 0.765625)"/>
       <use xlink:href="#DejaVuSans-30" transform="translate(63.623047 0.765625)"/>
       <use xlink:href="#DejaVuSans-31" transform="translate(128.203125 39.046875) scale(0.7)"/>
       <use xlink:href="#DejaVuSans-33" transform="translate(172.739258 39.046875) scale(0.7)"/>
      </g>
     </g>
    </g>
    <g id="xtick_3">
     <g id="line2d_3">
      <defs>
       <path id="mc3436a3827" d="M 0 0 
L 0 2 
" style="stroke: #000000; stroke-width: 0.6"/>
      </defs>
      <g>
       <use xlink:href="#mc3436a3827" x="77.582733" y="307.584" style="stroke: #000000; stroke-width: 0.6"/>
      </g>
     </g>
    </g>
    <g id="xtick_4">
     <g id="line2d_4">
      <g>
       <use xlink:href="#mc3436a3827" x="95.476791" y="307.584" style="stroke: #000000; stroke-width: 0.6"/>
      </g>
     </g>
    </g>
    <g id="xtick_5">
     <g id="line2d_5">
      <g>
       <use xlink:href="#mc3436a3827" x="110.606002" y="307.584" style="stroke: #000000; stroke-width: 0.6"/>
      </g>
     </g>
    </g>
    <g id="xtick_6">
     <g id="line2d_6">
      <g>
       <use xlink:href="#mc3436a3827" x="123.71152" y="307.584" style="stroke: #000000; stroke-width: 0.6"/>
      </g>
     </g>
    </g>
    <g id="xtick_7">
     <g id="line2d_7">
      <g>
       <use xlink:href="#mc3436a3827" x="135.271406" y="307.584" style="stroke: #000000; stroke-width: 0.6"/>
      </g>
     </g>
    </g>
    <g id="xtick_8">
     <g id="line2d_8">
      <g>
       <use xlink:href="#mc3436a3827" x="213.64142" y="307.584" style="stroke: #000000; stroke-width: 0.6"/>
      </g>
     </g>
    </g>
    <g id="xtick_9">
     <g id="line2d_9">
      <g>
       <use xlink:href="#mc3436a3827" x="253.436035" y="307.584" style="stroke: #000000; stroke-width: 0.6"/>
      </g>
     </g>
    </g>
    <g id="xtick_10">
     <g id="line2d_10">
      <g>
       <use xlink:href="#mc3436a3827" x="281.670763" y="307.584" style="stroke: #000000; stroke-width: 0.6"/>
      </g>
     </g>
    </g>
    <g id="xtick_11">
     <g id="line2d_11">
      <g>
       <use xlink:href="#mc3436a3827" x="303.57132" y="307.584" style="stroke: #000000; stroke-width: 0.6"/>
      </g>
     </g>
    </g>
    <g id="xtick_12">
     <g id="line2d_12">
      <g>
       <use xlink:href="#mc3436a3827" x="321.465378" y="307.584" style="stroke: #000000; stroke-width: 0.6"/>
      </g>
     </g>
    </g>
    <g id="xtick_13">
     <g id="line2d_13">
      <g>
       <use xlink:href="#mc3436a3827" x="336.594589" y="307.584" style="stroke: #000000; stroke-width: 0.6"/>
      </g>
     </g>
    </g>
    <g id="xtick_14">
     <g id="line2d_14">
      <g>
       <use xlink:href="#mc3436a3827" x="349.700107" y="307.584" style="stroke: #000000; stroke-width: 0.6"/>
      </g>
     </g>
    </g>
    <g id="xtick_15">
     <g id="line2d_15">
      <g>
       <use xlink:href="#mc3436a3827" x="361.259993" y="307.584" style="stroke: #000000; stroke-width: 0.6"/>
      </g>
     </g>
    </g>
    <g id="text_3">
     <!-- Log time  -->
     <g transform="translate(212.75375 335.860562) scale(0.1 -0.1)">
      <defs>
       <path id="DejaVuSans-4c" d="M 628 4666 
L 1259 4666 
L 1259 531 
L 3531 531 
L 3531 0 
L 628 0 
L 628 4666 
z
" transform="scale(0.015625)"/>
       <path id="DejaVuSans-6f" d="M 1959 3097 
Q 1497 3097 1228 2736 
Q 959 2375 959 1747 
Q 959 1119 1226 758 
Q 1494 397 1959 397 
Q 2419 397 2687 759 
Q 2956 1122 2956 1747 
Q 2956 2369 2687 2733 
Q 2419 3097 1959 3097 
z
M 1959 3584 
Q 2709 3584 3137 3096 
Q 3566 2609 3566 1747 
Q 3566 888 3137 398 
Q 2709 -91 1959 -91 
Q 1206 -91 779 398 
Q 353 888 353 1747 
Q 353 2609 779 3096 
Q 1206 3584 1959 3584 
z
" transform="scale(0.015625)"/>
       <path id="DejaVuSans-67" d="M 2906 1791 
Q 2906 2416 2648 2759 
Q 2391 3103 1925 3103 
Q 1463 3103 1205 2759 
Q 947 2416 947 1791 
Q 947 1169 1205 825 
Q 1463 481 1925 481 
Q 2391 481 2648 825 
Q 2906 1169 2906 1791 
z
M 3481 434 
Q 3481 -459 3084 -895 
Q 2688 -1331 1869 -1331 
Q 1566 -1331 1297 -1286 
Q 1028 -1241 775 -1147 
L 775 -588 
Q 1028 -725 1275 -790 
Q 1522 -856 1778 -856 
Q 2344 -856 2625 -561 
Q 2906 -266 2906 331 
L 2906 616 
Q 2728 306 2450 153 
Q 2172 0 1784 0 
Q 1141 0 747 490 
Q 353 981 353 1791 
Q 353 2603 747 3093 
Q 1141 3584 1784 3584 
Q 2172 3584 2450 3431 
Q 2728 3278 2906 2969 
L 2906 3500 
L 3481 3500 
L 3481 434 
z
" transform="scale(0.015625)"/>
       <path id="DejaVuSans-20" transform="scale(0.015625)"/>
       <path id="DejaVuSans-74" d="M 1172 4494 
L 1172 3500 
L 2356 3500 
L 2356 3053 
L 1172 3053 
L 1172 1153 
Q 1172 725 1289 603 
Q 1406 481 1766 481 
L 2356 481 
L 2356 0 
L 1766 0 
Q 1100 0 847 248 
Q 594 497 594 1153 
L 594 3053 
L 172 3053 
L 172 3500 
L 594 3500 
L 594 4494 
L 1172 4494 
z
" transform="scale(0.015625)"/>
       <path id="DejaVuSans-69" d="M 603 3500 
L 1178 3500 
L 1178 0 
L 603 0 
L 603 3500 
z
M 603 4863 
L 1178 4863 
L 1178 4134 
L 603 4134 
L 603 4863 
z
" transform="scale(0.015625)"/>
       <path id="DejaVuSans-6d" d="M 3328 2828 
Q 3544 3216 3844 3400 
Q 4144 3584 4550 3584 
Q 5097 3584 5394 3201 
Q 5691 2819 5691 2113 
L 5691 0 
L 5113 0 
L 5113 2094 
Q 5113 2597 4934 2840 
Q 4756 3084 4391 3084 
Q 3944 3084 3684 2787 
Q 3425 2491 3425 1978 
L 3425 0 
L 2847 0 
L 2847 2094 
Q 2847 2600 2669 2842 
Q 2491 3084 2119 3084 
Q 1678 3084 1418 2786 
Q 1159 2488 1159 1978 
L 1159 0 
L 581 0 
L 581 3500 
L 1159 3500 
L 1159 2956 
Q 1356 3278 1631 3431 
Q 1906 3584 2284 3584 
Q 2666 3584 2933 3390 
Q 3200 3197 3328 2828 
z
" transform="scale(0.015625)"/>
       <path id="DejaVuSans-65" d="M 3597 1894 
L 3597 1613 
L 953 1613 
Q 991 1019 1311 708 
Q 1631 397 2203 397 
Q 2534 397 2845 478 
Q 3156 559 3463 722 
L 3463 178 
Q 3153 47 2828 -22 
Q 2503 -91 2169 -91 
Q 1331 -91 842 396 
Q 353 884 353 1716 
Q 353 2575 817 3079 
Q 1281 3584 2069 3584 
Q 2775 3584 3186 3129 
Q 3597 2675 3597 1894 
z
M 3022 2063 
Q 3016 2534 2758 2815 
Q 2500 3097 2075 3097 
Q 1594 3097 1305 2825 
Q 1016 2553 972 2059 
L 3022 2063 
z
" transform="scale(0.015625)"/>
      </defs>
      <use xlink:href="#DejaVuSans-4c"/>
      <use xlink:href="#DejaVuSans-6f" transform="translate(53.962891 0)"/>
      <use xlink:href="#DejaVuSans-67" transform="translate(115.144531 0)"/>
      <use xlink:href="#DejaVuSans-20" transform="translate(178.621094 0)"/>
      <use xlink:href="#DejaVuSans-74" transform="translate(210.408203 0)"/>
      <use xlink:href="#DejaVuSans-69" transform="translate(249.617188 0)"/>
      <use xlink:href="#DejaVuSans-6d" transform="translate(277.400391 0)"/>
      <use xlink:href="#DejaVuSans-65" transform="translate(374.8125 0)"/>
      <use xlink:href="#DejaVuSans-20" transform="translate(436.335938 0)"/>
     </g>
    </g>
   </g>
   <g id="matplotlib.axis_2">
    <g id="ytick_1">
     <g id="line2d_16">
      <defs>
       <path id="me2c4a9b088" d="M 0 0 
L -3.5 0 
" style="stroke: #000000; stroke-width: 0.8"/>
      </defs>
      <g>
       <use xlink:href="#me2c4a9b088" x="57.6" y="307.584" style="stroke: #000000; stroke-width: 0.8"/>
      </g>
     </g>
     <g id="text_4">
      <!-- 0.0 -->
      <g transform="translate(34.696875 311.383219) scale(0.1 -0.1)">
       <defs>
        <path id="DejaVuSans-2e" d="M 684 794 
L 1344 794 
L 1344 0 
L 684 0 
L 684 794 
z
" transform="scale(0.015625)"/>
       </defs>
       <use xlink:href="#DejaVuSans-30"/>
       <use xlink:href="#DejaVuSans-2e" transform="translate(63.623047 0)"/>
       <use xlink:href="#DejaVuSans-30" transform="translate(95.410156 0)"/>
      </g>
     </g>
    </g>
    <g id="ytick_2">
     <g id="line2d_17">
      <g>
       <use xlink:href="#me2c4a9b088" x="57.6" y="254.3616" style="stroke: #000000; stroke-width: 0.8"/>
      </g>
     </g>
     <g id="text_5">
      <!-- 0.2 -->
      <g transform="translate(34.696875 258.160819) scale(0.1 -0.1)">
       <use xlink:href="#DejaVuSans-30"/>
       <use xlink:href="#DejaVuSans-2e" transform="translate(63.623047 0)"/>
       <use xlink:href="#DejaVuSans-32" transform="translate(95.410156 0)"/>
      </g>
     </g>
    </g>
    <g id="ytick_3">
     <g id="line2d_18">
      <g>
       <use xlink:href="#me2c4a9b088" x="57.6" y="201.1392" style="stroke: #000000; stroke-width: 0.8"/>
      </g>
     </g>
     <g id="text_6">
      <!-- 0.4 -->
      <g transform="translate(34.696875 204.938419) scale(0.1 -0.1)">
       <defs>
        <path id="DejaVuSans-34" d="M 2419 4116 
L 825 1625 
L 2419 1625 
L 2419 4116 
z
M 2253 4666 
L 3047 4666 
L 3047 1625 
L 3713 1625 
L 3713 1100 
L 3047 1100 
L 3047 0 
L 2419 0 
L 2419 1100 
L 313 1100 
L 313 1709 
L 2253 4666 
z
" transform="scale(0.015625)"/>
       </defs>
       <use xlink:href="#DejaVuSans-30"/>
       <use xlink:href="#DejaVuSans-2e" transform="translate(63.623047 0)"/>
       <use xlink:href="#DejaVuSans-34" transform="translate(95.410156 0)"/>
      </g>
     </g>
    </g>
    <g id="ytick_4">
     <g id="line2d_19">
      <g>
       <use xlink:href="#me2c4a9b088" x="57.6" y="147.9168" style="stroke: #000000; stroke-width: 0.8"/>
      </g>
     </g>
     <g id="text_7">
      <!-- 0.6 -->
      <g transform="translate(34.696875 151.716019) scale(0.1 -0.1)">
       <defs>
        <path id="DejaVuSans-36" d="M 2113 2584 
Q 1688 2584 1439 2293 
Q 1191 2003 1191 1497 
Q 1191 994 1439 701 
Q 1688 409 2113 409 
Q 2538 409 2786 701 
Q 3034 994 3034 1497 
Q 3034 2003 2786 2293 
Q 2538 2584 2113 2584 
z
M 3366 4563 
L 3366 3988 
Q 3128 4100 2886 4159 
Q 2644 4219 2406 4219 
Q 1781 4219 1451 3797 
Q 1122 3375 1075 2522 
Q 1259 2794 1537 2939 
Q 1816 3084 2150 3084 
Q 2853 3084 3261 2657 
Q 3669 2231 3669 1497 
Q 3669 778 3244 343 
Q 2819 -91 2113 -91 
Q 1303 -91 875 529 
Q 447 1150 447 2328 
Q 447 3434 972 4092 
Q 1497 4750 2381 4750 
Q 2619 4750 2861 4703 
Q 3103 4656 3366 4563 
z
" transform="scale(0.015625)"/>
       </defs>
       <use xlink:href="#DejaVuSans-30"/>
       <use xlink:href="#DejaVuSans-2e" transform="translate(63.623047 0)"/>
       <use xlink:href="#DejaVuSans-36" transform="translate(95.410156 0)"/>
      </g>
     </g>
    </g>
    <g id="ytick_5">
     <g id="line2d_20">
      <g>
       <use xlink:href="#me2c4a9b088" x="57.6" y="94.6944" style="stroke: #000000; stroke-width: 0.8"/>
      </g>
     </g>
     <g id="text_8">
      <!-- 0.8 -->
      <g transform="translate(34.696875 98.493619) scale(0.1 -0.1)">
       <defs>
        <path id="DejaVuSans-38" d="M 2034 2216 
Q 1584 2216 1326 1975 
Q 1069 1734 1069 1313 
Q 1069 891 1326 650 
Q 1584 409 2034 409 
Q 2484 409 2743 651 
Q 3003 894 3003 1313 
Q 3003 1734 2745 1975 
Q 2488 2216 2034 2216 
z
M 1403 2484 
Q 997 2584 770 2862 
Q 544 3141 544 3541 
Q 544 4100 942 4425 
Q 1341 4750 2034 4750 
Q 2731 4750 3128 4425 
Q 3525 4100 3525 3541 
Q 3525 3141 3298 2862 
Q 3072 2584 2669 2484 
Q 3125 2378 3379 2068 
Q 3634 1759 3634 1313 
Q 3634 634 3220 271 
Q 2806 -91 2034 -91 
Q 1263 -91 848 271 
Q 434 634 434 1313 
Q 434 1759 690 2068 
Q 947 2378 1403 2484 
z
M 1172 3481 
Q 1172 3119 1398 2916 
Q 1625 2713 2034 2713 
Q 2441 2713 2670 2916 
Q 2900 3119 2900 3481 
Q 2900 3844 2670 4047 
Q 2441 4250 2034 4250 
Q 1625 4250 1398 4047 
Q 1172 3844 1172 3481 
z
" transform="scale(0.015625)"/>
       </defs>
       <use xlink:href="#DejaVuSans-30"/>
       <use xlink:href="#DejaVuSans-2e" transform="translate(63.623047 0)"/>
       <use xlink:href="#DejaVuSans-38" transform="translate(95.410156 0)"/>
      </g>
     </g>
    </g>
    <g id="ytick_6">
     <g id="line2d_21">
      <g>
       <use xlink:href="#me2c4a9b088" x="57.6" y="41.472" style="stroke: #000000; stroke-width: 0.8"/>
      </g>
     </g>
     <g id="text_9">
      <!-- 1.0 -->
      <g transform="translate(34.696875 45.271219) scale(0.1 -0.1)">
       <use xlink:href="#DejaVuSans-31"/>
       <use xlink:href="#DejaVuSans-2e" transform="translate(63.623047 0)"/>
       <use xlink:href="#DejaVuSans-30" transform="translate(95.410156 0)"/>
      </g>
     </g>
    </g>
    <g id="text_10">
     <!-- Percent of filled traps -->
     <g transform="translate(28.617187 227.95925) rotate(-90) scale(0.1 -0.1)">
      <defs>
       <path id="DejaVuSans-50" d="M 1259 4147 
L 1259 2394 
L 2053 2394 
Q 2494 2394 2734 2622 
Q 2975 2850 2975 3272 
Q 2975 3691 2734 3919 
Q 2494 4147 2053 4147 
L 1259 4147 
z
M 628 4666 
L 2053 4666 
Q 2838 4666 3239 4311 
Q 3641 3956 3641 3272 
Q 3641 2581 3239 2228 
Q 2838 1875 2053 1875 
L 1259 1875 
L 1259 0 
L 628 0 
L 628 4666 
z
" transform="scale(0.015625)"/>
       <path id="DejaVuSans-72" d="M 2631 2963 
Q 2534 3019 2420 3045 
Q 2306 3072 2169 3072 
Q 1681 3072 1420 2755 
Q 1159 2438 1159 1844 
L 1159 0 
L 581 0 
L 581 3500 
L 1159 3500 
L 1159 2956 
Q 1341 3275 1631 3429 
Q 1922 3584 2338 3584 
Q 2397 3584 2469 3576 
Q 2541 3569 2628 3553 
L 2631 2963 
z
" transform="scale(0.015625)"/>
       <path id="DejaVuSans-63" d="M 3122 3366 
L 3122 2828 
Q 2878 2963 2633 3030 
Q 2388 3097 2138 3097 
Q 1578 3097 1268 2742 
Q 959 2388 959 1747 
Q 959 1106 1268 751 
Q 1578 397 2138 397 
Q 2388 397 2633 464 
Q 2878 531 3122 666 
L 3122 134 
Q 2881 22 2623 -34 
Q 2366 -91 2075 -91 
Q 1284 -91 818 406 
Q 353 903 353 1747 
Q 353 2603 823 3093 
Q 1294 3584 2113 3584 
Q 2378 3584 2631 3529 
Q 2884 3475 3122 3366 
z
" transform="scale(0.015625)"/>
       <path id="DejaVuSans-6e" d="M 3513 2113 
L 3513 0 
L 2938 0 
L 2938 2094 
Q 2938 2591 2744 2837 
Q 2550 3084 2163 3084 
Q 1697 3084 1428 2787 
Q 1159 2491 1159 1978 
L 1159 0 
L 581 0 
L 581 3500 
L 1159 3500 
L 1159 2956 
Q 1366 3272 1645 3428 
Q 1925 3584 2291 3584 
Q 2894 3584 3203 3211 
Q 3513 2838 3513 2113 
z
" transform="scale(0.015625)"/>
       <path id="DejaVuSans-66" d="M 2375 4863 
L 2375 4384 
L 1825 4384 
Q 1516 4384 1395 4259 
Q 1275 4134 1275 3809 
L 1275 3500 
L 2222 3500 
L 2222 3053 
L 1275 3053 
L 1275 0 
L 697 0 
L 697 3053 
L 147 3053 
L 147 3500 
L 697 3500 
L 697 3744 
Q 697 4328 969 4595 
Q 1241 4863 1831 4863 
L 2375 4863 
z
" transform="scale(0.015625)"/>
       <path id="DejaVuSans-6c" d="M 603 4863 
L 1178 4863 
L 1178 0 
L 603 0 
L 603 4863 
z
" transform="scale(0.015625)"/>
       <path id="DejaVuSans-64" d="M 2906 2969 
L 2906 4863 
L 3481 4863 
L 3481 0 
L 2906 0 
L 2906 525 
Q 2725 213 2448 61 
Q 2172 -91 1784 -91 
Q 1150 -91 751 415 
Q 353 922 353 1747 
Q 353 2572 751 3078 
Q 1150 3584 1784 3584 
Q 2172 3584 2448 3432 
Q 2725 3281 2906 2969 
z
M 947 1747 
Q 947 1113 1208 752 
Q 1469 391 1925 391 
Q 2381 391 2643 752 
Q 2906 1113 2906 1747 
Q 2906 2381 2643 2742 
Q 2381 3103 1925 3103 
Q 1469 3103 1208 2742 
Q 947 2381 947 1747 
z
" transform="scale(0.015625)"/>
       <path id="DejaVuSans-61" d="M 2194 1759 
Q 1497 1759 1228 1600 
Q 959 1441 959 1056 
Q 959 750 1161 570 
Q 1363 391 1709 391 
Q 2188 391 2477 730 
Q 2766 1069 2766 1631 
L 2766 1759 
L 2194 1759 
z
M 3341 1997 
L 3341 0 
L 2766 0 
L 2766 531 
Q 2569 213 2275 61 
Q 1981 -91 1556 -91 
Q 1019 -91 701 211 
Q 384 513 384 1019 
Q 384 1609 779 1909 
Q 1175 2209 1959 2209 
L 2766 2209 
L 2766 2266 
Q 2766 2663 2505 2880 
Q 2244 3097 1772 3097 
Q 1472 3097 1187 3025 
Q 903 2953 641 2809 
L 641 3341 
Q 956 3463 1253 3523 
Q 1550 3584 1831 3584 
Q 2591 3584 2966 3190 
Q 3341 2797 3341 1997 
z
" transform="scale(0.015625)"/>
       <path id="DejaVuSans-70" d="M 1159 525 
L 1159 -1331 
L 581 -1331 
L 581 3500 
L 1159 3500 
L 1159 2969 
Q 1341 3281 1617 3432 
Q 1894 3584 2278 3584 
Q 2916 3584 3314 3078 
Q 3713 2572 3713 1747 
Q 3713 922 3314 415 
Q 2916 -91 2278 -91 
Q 1894 -91 1617 61 
Q 1341 213 1159 525 
z
M 3116 1747 
Q 3116 2381 2855 2742 
Q 2594 3103 2138 3103 
Q 1681 3103 1420 2742 
Q 1159 2381 1159 1747 
Q 1159 1113 1420 752 
Q 1681 391 2138 391 
Q 2594 391 2855 752 
Q 3116 1113 3116 1747 
z
" transform="scale(0.015625)"/>
       <path id="DejaVuSans-73" d="M 2834 3397 
L 2834 2853 
Q 2591 2978 2328 3040 
Q 2066 3103 1784 3103 
Q 1356 3103 1142 2972 
Q 928 2841 928 2578 
Q 928 2378 1081 2264 
Q 1234 2150 1697 2047 
L 1894 2003 
Q 2506 1872 2764 1633 
Q 3022 1394 3022 966 
Q 3022 478 2636 193 
Q 2250 -91 1575 -91 
Q 1294 -91 989 -36 
Q 684 19 347 128 
L 347 722 
Q 666 556 975 473 
Q 1284 391 1588 391 
Q 1994 391 2212 530 
Q 2431 669 2431 922 
Q 2431 1156 2273 1281 
Q 2116 1406 1581 1522 
L 1381 1569 
Q 847 1681 609 1914 
Q 372 2147 372 2553 
Q 372 3047 722 3315 
Q 1072 3584 1716 3584 
Q 2034 3584 2315 3537 
Q 2597 3491 2834 3397 
z
" transform="scale(0.015625)"/>
      </defs>
      <use xlink:href="#DejaVuSans-50"/>
      <use xlink:href="#DejaVuSans-65" transform="translate(56.677734 0)"/>
      <use xlink:href="#DejaVuSans-72" transform="translate(118.201172 0)"/>
      <use xlink:href="#DejaVuSans-63" transform="translate(157.064453 0)"/>
      <use xlink:href="#DejaVuSans-65" transform="translate(212.044922 0)"/>
      <use xlink:href="#DejaVuSans-6e" transform="translate(273.568359 0)"/>
      <use xlink:href="#DejaVuSans-74" transform="translate(336.947266 0)"/>
      <use xlink:href="#DejaVuSans-20" transform="translate(376.15625 0)"/>
      <use xlink:href="#DejaVuSans-6f" transform="translate(407.943359 0)"/>
      <use xlink:href="#DejaVuSans-66" transform="translate(469.125 0)"/>
      <use xlink:href="#DejaVuSans-20" transform="translate(504.330078 0)"/>
      <use xlink:href="#DejaVuSans-66" transform="translate(536.117188 0)"/>
      <use xlink:href="#DejaVuSans-69" transform="translate(571.322266 0)"/>
      <use xlink:href="#DejaVuSans-6c" transform="translate(599.105469 0)"/>
      <use xlink:href="#DejaVuSans-6c" transform="translate(626.888672 0)"/>
      <use xlink:href="#DejaVuSans-65" transform="translate(654.671875 0)"/>
      <use xlink:href="#DejaVuSans-64" transform="translate(716.195312 0)"/>
      <use xlink:href="#DejaVuSans-20" transform="translate(779.671875 0)"/>
      <use xlink:href="#DejaVuSans-74" transform="translate(811.458984 0)"/>
      <use xlink:href="#DejaVuSans-72" transform="translate(850.667969 0)"/>
      <use xlink:href="#DejaVuSans-61" transform="translate(891.78125 0)"/>
      <use xlink:href="#DejaVuSans-70" transform="translate(953.060547 0)"/>
      <use xlink:href="#DejaVuSans-73" transform="translate(1016.537109 0)"/>
     </g>
    </g>
   </g>
   <g id="line2d_22">
    <path d="M 73.832727 290.712499 
L 73.832727 290.127053 
L 75.796299 289.594829 
L 75.796299 289.062605 
L 78.605942 288.583603 
L 88.030016 288.051379 
L 89.876509 287.492544 
L 89.99047 286.96032 
L 93.967893 286.428096 
L 93.967893 285.895872 
L 94.271945 285.41687 
L 94.271945 284.937869 
L 95.150321 284.485478 
L 95.150321 284.033088 
L 104.221909 283.021862 
L 104.929616 282.542861 
L 104.929616 282.037248 
L 107.106873 281.531635 
L 109.237773 280.573632 
L 110.286121 280.041408 
L 115.036681 279.509184 
L 116.432498 278.97696 
L 118.560137 278.444736 
L 118.560137 277.912512 
L 123.168558 277.327066 
L 123.168558 276.794842 
L 123.521401 276.209395 
L 123.521401 275.623949 
L 125.261533 274.453056 
L 127.78368 272.643494 
L 127.78368 272.004826 
L 130.203716 271.366157 
L 130.203716 270.727488 
L 131.789584 270.035597 
L 134.439391 269.317094 
L 135.09136 268.598592 
L 136.208011 266.54953 
L 136.254707 265.139136 
L 136.850108 264.420634 
L 138.871815 263.755354 
L 140.041311 263.090074 
L 141.58553 262.478016 
L 141.940024 261.812736 
L 143.636394 261.200678 
L 143.636394 260.56201 
L 144.227296 259.923341 
L 144.64335 259.23145 
L 144.79021 258.539558 
L 148.988367 257.90089 
L 150.622227 257.288832 
L 151.178298 256.676774 
L 151.324737 256.064717 
L 154.242901 255.399437 
L 154.242901 254.760768 
L 156.028195 254.068877 
L 156.182512 253.430208 
L 157.501834 252.844762 
L 157.695496 252.259315 
L 157.695496 251.647258 
L 159.308629 251.0352 
L 159.308629 250.423142 
L 160.539339 249.757862 
L 164.224241 249.092582 
L 164.849005 248.427302 
L 164.849005 247.762022 
L 166.42567 247.149965 
L 166.42567 246.564518 
L 168.754235 245.979072 
L 168.754235 245.446848 
L 170.901423 244.302566 
L 175.021045 243.743731 
L 175.312054 243.184896 
L 175.312054 242.067226 
L 176.77863 241.50839 
L 176.864659 241.002778 
L 177.521074 240.497165 
L 177.566373 238.075546 
L 178.384421 237.596544 
L 179.567621 236.585318 
L 180.824445 236.053094 
L 182.347892 235.121702 
L 186.032825 234.61609 
L 186.032825 234.110477 
L 187.686791 232.992806 
L 187.686791 232.380749 
L 190.798822 231.768691 
L 190.84007 230.597798 
L 192.115965 229.373683 
L 195.445896 228.681792 
L 196.360034 227.989901 
L 196.360034 227.324621 
L 197.57216 226.659341 
L 200.409843 224.63689 
L 200.409843 223.891776 
L 201.853959 221.683046 
L 203.117202 220.246042 
L 203.117202 219.55415 
L 204.498196 218.170368 
L 204.860569 217.425254 
L 205.017381 216.65353 
L 206.028604 215.881805 
L 207.049617 214.285133 
L 207.946806 212.715072 
L 207.985206 211.969958 
L 209.744918 211.251456 
L 210.172233 210.559565 
L 211.738555 209.867674 
L 212.691666 208.430669 
L 213.410708 207.712166 
L 213.410708 206.967053 
L 214.315912 206.24855 
L 214.431364 205.476826 
L 214.777626 204.731712 
L 216.134725 203.241485 
L 216.659558 202.496371 
L 216.659558 201.831091 
L 216.808588 201.112589 
L 217.873096 200.420698 
L 218.457952 199.728806 
L 220.007098 199.063526 
L 220.53447 198.424858 
L 220.676643 197.8128 
L 221.154658 197.227354 
L 221.257156 196.02985 
L 225.748305 193.102618 
L 226.178958 192.03817 
L 226.823667 191.026944 
L 227.884338 190.095552 
L 227.884338 189.643162 
L 228.527811 189.217382 
L 228.756191 188.791603 
L 231.221838 188.365824 
L 231.221838 187.886822 
L 232.72057 187.407821 
L 232.72057 186.982042 
L 232.854747 186.582874 
L 234.513095 184.29431 
L 234.938484 183.895142 
L 236.343433 183.495974 
L 238.171884 182.192026 
L 238.248719 180.941299 
L 238.35638 179.344627 
L 238.434219 178.599514 
L 238.526195 178.253568 
L 241.188308 177.428621 
L 241.188308 177.002842 
L 243.422909 176.151283 
L 244.887843 175.725504 
L 247.892728 174.448166 
L 250.351726 171.946714 
L 250.351726 171.600768 
L 250.915822 170.855654 
L 253.666165 170.456486 
L 253.666165 170.030707 
L 255.20005 169.179149 
L 255.20005 168.75337 
L 257.483239 168.354202 
L 258.062883 167.955034 
L 258.643451 166.75753 
L 263.492492 162.207014 
L 263.653569 161.88768 
L 263.653569 161.594957 
L 264.283689 161.302234 
L 266.028173 160.716787 
L 266.755325 160.424064 
L 267.721302 159.67895 
L 268.589857 159.199949 
L 268.589857 158.987059 
L 270.284857 158.10889 
L 272.169727 157.656499 
L 272.169727 157.416998 
L 273.830093 156.432384 
L 275.442987 155.128435 
L 275.442987 154.915546 
L 276.444992 154.516378 
L 276.444992 154.330099 
L 277.311039 153.824486 
L 277.758635 152.999539 
L 277.870215 152.57376 
L 278.081358 151.828646 
L 278.081358 151.668979 
L 278.57524 150.923866 
L 278.67818 150.498086 
L 279.994559 150.311808 
L 279.994559 150.072307 
L 282.494862 149.007859 
L 284.329156 148.12969 
L 284.729389 147.810355 
L 286.337783 147.198298 
L 287.031673 146.58624 
L 287.031673 146.240294 
L 287.568481 145.894349 
L 287.628483 145.202458 
L 287.808271 144.058176 
L 288.530591 143.71223 
L 288.530591 143.392896 
L 288.900317 143.073562 
L 290.835099 142.115558 
L 293.426028 140.066496 
L 294.512007 139.374605 
L 294.512007 139.002048 
L 295.182301 138.656102 
L 296.49693 137.298931 
L 297.49885 136.553818 
L 297.722737 135.436147 
L 297.98621 133.706419 
L 298.024891 132.375859 
L 298.869914 131.444467 
L 298.88593 130.805798 
L 300.381469 129.50185 
L 301.144067 128.943014 
L 304.285607 127.74551 
L 304.285607 127.50601 
L 305.620138 126.973786 
L 306.190622 125.909338 
L 306.49467 125.403725 
L 306.49467 125.164224 
L 306.752025 124.898112 
L 308.090235 123.993331 
L 308.269031 123.381274 
L 313.359698 121.119322 
L 313.359698 120.933043 
L 314.564069 120.720154 
L 314.58496 118.990426 
L 315.694629 118.325146 
L 315.694629 118.112256 
L 315.907202 117.846144 
L 316.757627 117.633254 
L 318.071386 116.622029 
L 320.504394 113.614963 
L 321.222788 113.295629 
L 321.222788 112.976294 
L 322.030773 112.417459 
L 322.299449 112.124736 
L 322.768338 110.20873 
L 323.568159 109.729728 
L 324.151914 108.612058 
L 325.02063 107.946778 
L 326.494799 107.12183 
L 328.80836 106.083994 
L 328.80836 105.897715 
L 329.753176 105.205824 
L 330.414206 104.726822 
L 330.789592 104.114765 
L 331.078049 103.822042 
L 331.3595 100.548864 
L 331.952006 99.484416 
L 334.215412 99.218304 
L 334.64853 98.419968 
L 335.312878 97.887744 
L 338.164161 97.062797 
L 339.367451 96.637018 
L 342.147281 95.785459 
L 344.085747 95.625792 
L 345.609418 95.625792 
L 348.953576 95.758848 
L 350.068455 95.466125 
L 350.356419 95.173402 
L 351.100057 94.587955 
L 351.100057 94.454899 
L 355.503835 93.337229 
L 358.245538 92.379226 
L 359.8897 91.82039 
L 360.506964 90.888998 
L 360.590031 90.516442 
L 363.6548 88.440768 
L 364.634897 87.802099 
L 364.862521 86.631206 
L 366.585758 86.098982 
L 371.506727 85.353869 
L 371.577129 85.034534 
L 372.091162 84.741811 
L 372.093471 84.475699 
L 372.837858 84.236198 
L 372.851956 84.023309 
L 373.830053 83.17175 
L 373.998 82.745971 
L 374.302511 82.612915 
L 374.340215 82.426637 
L 375.444251 81.761357 
L 375.913633 81.335578 
L 376.394513 79.313126 
L 377.050362 78.381734 
L 377.65969 76.173005 
L 377.678945 75.800448 
L 379.96667 73.032883 
L 380.107898 72.74016 
L 380.308662 72.101491 
L 380.95407 71.4096 
L 382.91516 69.20087 
L 384.929085 68.375923 
L 390.083243 67.098586 
L 393.050625 66.247027 
L 394.341201 66.034138 
L 397.495292 114.20041 
L 397.801703 147.9168 
L 398.437806 186.449818 
L -1 186.458221 
L -1 186.458221 
" clip-path="url(#p1dab5b35ac)" style="fill: none; stroke-dasharray: 1.85,0.8; stroke-dashoffset: 0; stroke: #8000ff; stroke-width: 0.5"/>
   </g>
   <g id="line2d_23">
    <path d="M 86.145791 289.514995 
L 90.083786 287.519155 
L 91.760962 286.853875 
L 115.206998 286.135373 
L 120.808297 284.698368 
L 120.808297 283.979866 
L 124.07095 283.261363 
L 133.315338 282.596083 
L 133.315338 281.957414 
L 135.115912 280.041408 
L 137.890739 278.072179 
L 143.54035 277.380288 
L 152.384317 275.969894 
L 154.504669 275.19817 
L 154.504669 274.426445 
L 156.244764 273.65472 
L 156.244764 272.856384 
L 156.793814 272.084659 
L 158.023058 271.312934 
L 161.849571 270.54121 
L 167.248072 269.769485 
L 168.118097 268.279258 
L 168.743305 266.815642 
L 171.297948 265.325414 
L 171.297948 264.633523 
L 177.092569 263.169907 
L 177.866114 262.478016 
L 178.014568 261.786125 
L 179.211274 261.094234 
L 179.211274 260.428954 
L 179.493963 259.790285 
L 182.436423 259.151616 
L 183.517225 258.539558 
L 184.920117 257.368666 
L 185.991766 256.756608 
L 191.394732 255.612326 
L 193.338803 254.494656 
L 193.756437 253.962432 
L 194.519109 253.430208 
L 197.747502 252.951206 
L 197.747502 252.472205 
L 203.156552 250.662643 
L 203.156552 250.210253 
L 205.516426 249.25225 
L 205.516426 248.773248 
L 207.857543 247.868467 
L 207.857543 247.362854 
L 210.28637 246.458074 
L 210.28637 246.058906 
L 211.221403 245.633126 
L 211.221403 245.207347 
L 213.973631 244.781568 
L 213.973631 244.355789 
L 219.539311 243.50423 
L 219.611486 242.652672 
L 220.522173 242.226893 
L 220.522173 241.827725 
L 221.362694 241.401946 
L 221.362694 240.976166 
L 223.926198 240.550387 
L 227.088894 239.72544 
L 227.088894 239.27305 
L 227.638724 238.820659 
L 227.92528 238.39488 
L 228.583868 237.94249 
L 229.109006 237.090931 
L 229.929222 236.638541 
L 229.960759 235.148314 
L 230.1271 234.61609 
L 230.503032 234.057254 
L 232.237588 232.327526 
L 232.506931 231.156634 
L 233.394708 230.597798 
L 234.953273 230.065574 
L 236.338837 228.335846 
L 237.048025 225.887616 
L 239.057092 223.572442 
L 239.057092 223.013606 
L 239.466796 222.454771 
L 240.23753 221.895936 
L 240.67948 220.725043 
L 241.201653 220.166208 
L 248.408942 218.622758 
L 249.370703 218.143757 
L 249.370703 217.638144 
L 249.699202 217.185754 
L 249.790097 216.307584 
L 250.034731 215.030246 
L 250.998513 214.631078 
L 251.082179 213.752909 
L 255.865166 212.848128 
L 258.918317 211.357901 
L 259.915286 210.825677 
L 260.157832 210.293453 
L 260.157832 209.78784 
L 260.291615 209.282227 
L 261.656743 208.776614 
L 261.656743 208.271002 
L 264.968926 206.754163 
L 265.08487 205.317158 
L 265.444581 204.838157 
L 265.608062 202.070592 
L 266.27271 201.112589 
L 266.391177 199.59575 
L 266.598865 199.090138 
L 267.687333 198.078912 
L 270.04877 197.067686 
L 270.147839 196.562074 
L 270.697168 196.003238 
L 270.702664 194.885568 
L 271.440762 193.794509 
L 271.440762 193.235674 
L 271.63268 192.650227 
L 271.63268 192.064781 
L 276.033038 190.840666 
L 276.033038 190.228608 
L 276.635977 189.643162 
L 277.489336 187.8336 
L 280.319887 186.636096 
L 280.72481 186.077261 
L 281.264789 185.545037 
L 281.264789 185.039424 
L 281.815413 184.533811 
L 282.019319 183.070195 
L 282.194535 182.617805 
L 282.739025 182.165414 
L 283.648505 179.85024 
L 284.242142 178.892237 
L 284.961757 178.413235 
L 285.43842 174.98039 
L 285.958542 174.501389 
L 286.055204 173.623219 
L 286.440904 171.707213 
L 287.374735 170.32343 
L 287.498767 168.221146 
L 289.423115 167.449421 
L 289.423115 167.076864 
L 289.816555 166.75753 
L 289.951683 165.373747 
L 290.16332 165.027802 
L 290.287808 164.415744 
L 291.152447 163.377907 
L 291.341134 162.659405 
L 291.559442 161.2224 
L 293.666904 159.785395 
L 295.494899 158.10889 
L 295.494899 157.656499 
L 296.302286 156.751718 
L 296.327167 156.35255 
L 302.723201 153.851098 
L 302.807649 151.90848 
L 303.51187 150.737587 
L 304.101763 149.433638 
L 304.215132 148.58208 
L 304.311728 147.757133 
L 305.133863 147.304742 
L 305.275021 146.852352 
L 305.275021 146.426573 
L 306.550438 144.004954 
L 306.55389 143.286451 
L 307.437391 142.913894 
L 307.437391 142.567949 
L 307.756593 141.876058 
L 307.756593 141.503501 
L 308.886618 140.731776 
L 309.048385 139.560883 
L 310.649964 137.857766 
L 311.598514 136.846541 
L 313.159339 134.850701 
L 313.159339 134.478144 
L 314.539586 132.269414 
L 314.967232 131.311411 
L 317.171003 129.448627 
L 317.212414 128.41079 
L 318.134616 127.665677 
L 320.944292 126.920563 
L 321.723467 125.802893 
L 322.821782 124.685222 
L 322.923342 123.940109 
L 323.126148 123.30144 
L 324.856497 121.97088 
L 326.019957 121.278989 
L 326.427906 121.039488 
L 329.972214 120.054874 
L 330.988806 119.735539 
L 330.988806 119.575872 
L 332.182349 118.830758 
L 332.182349 118.64448 
L 337.084063 117.31392 
L 338.371213 116.063194 
L 338.424866 115.903526 
L 339.711157 114.998746 
L 339.966405 114.785856 
L 339.966405 114.546355 
L 340.20517 114.306854 
L 340.209605 113.614963 
L 341.32923 111.672346 
L 341.577668 111.406234 
L 341.577668 111.140122 
L 343.625382 110.395008 
L 348.335892 108.931392 
L 355.800645 106.21705 
L 359.634102 105.232435 
L 359.643559 105.019546 
L 360.405551 104.646989 
L 361.822268 103.875264 
L 362.39973 103.768819 
L 362.646178 103.662374 
L 363.946687 103.502707 
L 364.717711 102.917261 
L 365.228382 102.385037 
L 365.409568 101.746368 
L 368.506197 100.89481 
L 368.712489 100.602086 
L 368.880954 100.335974 
L 369.325775 97.382131 
L 370.163285 96.743462 
L 370.539749 95.838682 
L 370.539749 95.679014 
L 371.851337 94.667789 
L 372.255661 93.656563 
L 372.546258 92.166336 
L 374.586307 90.03744 
L 375.226508 89.106048 
L 375.877653 88.281101 
L 377.071087 87.669043 
L 377.503969 85.460314 
L 380.30583 84.821645 
L 383.720902 83.943475 
L 383.985347 82.799194 
L 384.654145 81.415411 
L 384.896567 80.670298 
L 384.986637 77.716454 
L 385.642501 76.598784 
L 387.09197 74.975501 
L 387.847556 73.964275 
L 388.431239 73.538496 
L 388.84604 73.352218 
L 390.324974 73.245773 
L 390.846563 72.979661 
L 390.846563 72.926438 
L 396.033944 71.702323 
L 396.138135 70.611264 
L 396.297571 69.892762 
L 396.321508 69.839539 
L 396.542032 98.286912 
L 396.728992 117.234086 
L 396.782709 145.654848 
L 398.487273 188.28599 
L -1 188.294255 
L -1 188.294255 
" clip-path="url(#p1dab5b35ac)" style="fill: none; stroke-dasharray: 1.85,0.8; stroke-dashoffset: 0; stroke: #8000ff; stroke-width: 0.5"/>
   </g>
   <g id="line2d_24">
    <path d="M 74.760639 288.423936 
L 74.760639 287.785267 
L 75.99413 287.146598 
L 89.964149 285.869261 
L 92.433311 285.283814 
L 92.870919 284.698368 
L 94.11394 283.527475 
L 94.11394 282.942029 
L 97.896973 281.717914 
L 99.041915 281.079245 
L 99.041915 280.387354 
L 103.462066 279.695462 
L 105.300124 278.950349 
L 106.526233 278.258458 
L 110.836404 277.513344 
L 110.836404 276.76823 
L 113.534231 275.996506 
L 113.959287 275.251392 
L 116.311459 274.53289 
L 116.45996 273.814387 
L 117.349346 273.149107 
L 117.349346 272.483827 
L 118.659365 271.845158 
L 118.659365 271.153267 
L 121.372063 270.514598 
L 122.154147 269.849318 
L 127.498362 269.184038 
L 127.498362 268.518758 
L 128.592854 267.933312 
L 130.409138 267.321254 
L 130.621832 266.709197 
L 134.236365 265.431859 
L 134.262876 264.819802 
L 135.403723 264.207744 
L 136.923351 263.542464 
L 138.867756 262.930406 
L 139.257177 262.318349 
L 139.257177 261.732902 
L 140.686298 261.174067 
L 141.06307 260.56201 
L 141.21712 259.949952 
L 141.21712 259.337894 
L 149.878983 258.193613 
L 149.878983 257.634778 
L 151.050533 257.02272 
L 151.935225 255.745382 
L 151.935225 255.133325 
L 155.139505 254.547878 
L 155.787153 253.376986 
L 155.787153 252.791539 
L 157.313435 252.206093 
L 157.341138 251.620646 
L 163.34578 248.932915 
L 163.34578 248.453914 
L 165.446749 247.974912 
L 170.676818 245.579904 
L 173.889287 243.93001 
L 174.065411 243.397786 
L 175.171903 242.333338 
L 175.171903 241.774502 
L 176.858469 240.763277 
L 176.858469 240.284275 
L 179.448852 239.752051 
L 179.689493 239.246438 
L 180.210672 238.740826 
L 180.210873 238.235213 
L 180.351127 237.702989 
L 180.351127 237.197376 
L 182.892556 235.228147 
L 182.892556 234.695923 
L 183.655631 234.163699 
L 183.678519 233.631475 
L 190.034312 232.62025 
L 190.037511 232.114637 
L 190.399524 231.582413 
L 192.098762 231.050189 
L 192.098762 230.517965 
L 195.668995 229.985741 
L 195.668995 229.453517 
L 196.12066 228.921293 
L 196.12066 228.362458 
L 198.460667 227.856845 
L 200.9644 224.849779 
L 200.9644 224.370778 
L 204.780278 223.891776 
L 204.780278 223.386163 
L 206.650321 222.933773 
L 207.979689 222.481382 
L 210.079324 222.028992 
L 210.230573 219.926707 
L 212.268399 219.500928 
L 214.026661 218.702592 
L 214.39105 218.276813 
L 215.588763 217.824422 
L 215.588763 217.372032 
L 216.640649 216.866419 
L 216.640649 216.414029 
L 223.416116 214.923802 
L 223.61252 214.418189 
L 224.798592 213.912576 
L 224.798592 213.433574 
L 226.022666 211.863514 
L 226.022666 211.33129 
L 226.318301 210.852288 
L 226.318301 210.373286 
L 228.21924 208.936282 
L 229.137555 208.430669 
L 229.313153 207.978278 
L 229.697029 207.57911 
L 229.697029 207.179942 
L 231.425313 206.807386 
L 232.352846 206.434829 
L 232.738092 205.716326 
L 233.357766 205.34377 
L 233.357766 204.91799 
L 233.752744 204.066432 
L 233.974587 203.294707 
L 237.373969 201.777869 
L 239.76066 200.979533 
L 239.76066 200.606976 
L 239.928617 200.181197 
L 240.27907 199.782029 
L 240.27907 199.382861 
L 241.26758 198.611136 
L 241.26758 197.892634 
L 241.80535 197.520077 
L 242.210156 196.48224 
L 242.591042 195.843571 
L 243.063892 195.471014 
L 244.559216 193.129229 
L 246.060162 192.197837 
L 246.060162 191.851891 
L 246.281168 191.532557 
L 246.281168 191.239834 
L 247.12424 190.521331 
L 247.211356 189.776218 
L 248.547698 188.49888 
L 248.547698 188.073101 
L 249.430422 186.902208 
L 249.758523 186.50304 
L 249.758523 186.103872 
L 250.54765 185.678093 
L 250.766187 185.225702 
L 251.746079 183.84192 
L 251.746079 183.38953 
L 255.271627 181.579968 
L 255.297872 180.196186 
L 256.497942 179.264794 
L 256.497942 178.812403 
L 256.985983 178.360013 
L 257.765184 177.907622 
L 258.205969 177.029453 
L 258.205969 176.577062 
L 258.418071 176.124672 
L 258.939561 175.698893 
L 259.796598 175.273114 
L 263.612318 174.448166 
L 263.926164 173.623219 
L 264.142624 173.250662 
L 264.238698 170.829043 
L 264.798115 170.004096 
L 264.815451 168.886426 
L 271.902115 166.54464 
L 272.187852 165.054413 
L 273.3127 164.149632 
L 273.408582 163.590797 
L 282.799695 161.701402 
L 282.829052 161.089344 
L 282.945579 160.55712 
L 282.984469 159.705562 
L 283.16943 159.146726 
L 283.16943 158.854003 
L 290.043865 158.002445 
L 290.043865 157.709722 
L 299.004515 156.405773 
L 299.004515 155.953382 
L 300.214916 155.527603 
L 301.314421 154.622822 
L 301.314421 154.409933 
L 302.213501 153.185818 
L 302.838126 152.094758 
L 302.969182 151.881869 
L 302.971561 151.056922 
L 304.214433 149.806195 
L 304.269812 148.901414 
L 304.460369 148.635302 
L 304.460369 148.342579 
L 304.618127 148.103078 
L 304.672057 147.597466 
L 304.781941 147.357965 
L 307.020684 146.905574 
L 307.080927 146.187072 
L 309.342051 145.016179 
L 309.976166 144.510566 
L 310.16388 144.271066 
L 317.704384 142.993728 
L 318.246126 142.647782 
L 318.246126 142.461504 
L 318.473947 142.248614 
L 318.473947 142.062336 
L 319.914611 141.450278 
L 321.680903 140.81161 
L 321.781911 139.880218 
L 322.197298 138.735936 
L 322.483221 138.017434 
L 323.173225 137.698099 
L 323.996657 136.793318 
L 324.522975 136.021594 
L 325.596761 135.702259 
L 325.624118 135.116813 
L 325.927489 134.903923 
L 327.212881 134.478144 
L 327.849319 134.212032 
L 327.849319 133.972531 
L 328.648585 132.82825 
L 328.648585 132.588749 
L 329.564896 131.258189 
L 330.729207 129.847795 
L 330.958434 129.634906 
L 330.994954 129.235738 
L 332.895524 128.676902 
L 333.059315 128.330957 
L 333.242624 127.74551 
L 333.374232 127.585843 
L 333.417405 126.548006 
L 333.692467 126.335117 
L 333.728292 125.350502 
L 335.042364 124.392499 
L 338.252571 122.343437 
L 338.252571 122.157158 
L 338.468234 121.704768 
L 338.694533 120.986266 
L 339.265554 120.507264 
L 339.405676 119.070259 
L 339.683746 117.739699 
L 340.235052 116.675251 
L 341.435416 115.903526 
L 341.507098 115.424525 
L 341.721829 114.6528 
L 342.802848 113.588352 
L 344.023133 112.816627 
L 344.977888 112.497293 
L 346.858594 112.124736 
L 347.289099 111.858624 
L 347.498678 111.193344 
L 355.467001 110.421619 
L 355.640406 110.128896 
L 357.720026 109.224115 
L 358.668575 108.558835 
L 359.350256 107.33472 
L 359.786811 105.072768 
L 361.167223 104.114765 
L 361.167223 103.981709 
L 365.212261 102.864038 
L 365.718453 102.172147 
L 368.292604 101.453645 
L 370.800961 101.081088 
L 373.648586 100.628698 
L 374.169132 100.415808 
L 374.169132 100.309363 
L 376.471324 99.537638 
L 376.572618 99.324749 
L 377.329808 98.68608 
L 379.699815 98.047411 
L 381.018541 97.648243 
L 381.849856 97.222464 
L 382.557034 96.90313 
L 384.475902 95.838682 
L 385.335864 95.679014 
L 387.399948 95.57257 
L 391.846465 94.667789 
L 392.733551 94.082342 
L 392.91406 93.36384 
L 392.950116 92.432448 
L 393.028457 92.166336 
L 393.255299 91.713946 
L 395.266138 90.223718 
L 395.861108 89.877773 
L 397.650962 88.813325 
L 398.030765 145.308902 
L 398.147041 154.037376 
L 398.302515 193.342118 
L 398.404167 197.732966 
L -1 197.740626 
L -1 197.740626 
" clip-path="url(#p1dab5b35ac)" style="fill: none; stroke-dasharray: 1.85,0.8; stroke-dashoffset: 0; stroke: #8000ff; stroke-width: 0.5"/>
   </g>
   <g id="patch_3">
    <path d="M 57.6 307.584 
L 57.6 41.472 
" style="fill: none; stroke: #000000; stroke-width: 0.8; stroke-linejoin: miter; stroke-linecap: square"/>
   </g>
   <g id="patch_4">
    <path d="M 414.72 307.584 
L 414.72 41.472 
" style="fill: none; stroke: #000000; stroke-width: 0.8; stroke-linejoin: miter; stroke-linecap: square"/>
   </g>
   <g id="patch_5">
    <path d="M 57.6 307.584 
L 414.72 307.584 
" style="fill: none; stroke: #000000; stroke-width: 0.8; stroke-linejoin: miter; stroke-linecap: square"/>
   </g>
   <g id="patch_6">
    <path d="M 57.6 41.472 
L 414.72 41.472 
" style="fill: none; stroke: #000000; stroke-width: 0.8; stroke-linejoin: miter; stroke-linecap: square"/>
   </g>
   <g id="legend_1">
    <g id="patch_7">
     <path d="M 314.584 81.0832 
L 318.584 81.0832 
Q 320.584 81.0832 320.584 79.0832 
L 320.584 75.0832 
Q 320.584 73.0832 318.584 73.0832 
L 314.584 73.0832 
Q 312.584 73.0832 312.584 75.0832 
L 312.584 79.0832 
Q 312.584 81.0832 314.584 81.0832 
z
" style="fill: #ffffff; opacity: 0.8; stroke: #cccccc; stroke-linejoin: miter"/>
    </g>
   </g>
  </g>
 </g>
 <defs>
  <clipPath id="p1dab5b35ac">
   <rect x="57.6" y="41.472" width="357.12" height="266.112"/>
  </clipPath>
 </defs>
</svg>
