<?xml version="1.0" encoding="utf-8" standalone="no"?>
<!DOCTYPE svg PUBLIC "-//W3C//DTD SVG 1.1//EN"
  "http://www.w3.org/Graphics/SVG/1.1/DTD/svg11.dtd">
<svg xmlns:xlink="http://www.w3.org/1999/xlink" width="720pt" height="360pt" viewBox="0 0 720 360" xmlns="http://www.w3.org/2000/svg" version="1.1">
 <metadata>
  <rdf:RDF xmlns:dc="http://purl.org/dc/elements/1.1/" xmlns:cc="http://creativecommons.org/ns#" xmlns:rdf="http://www.w3.org/1999/02/22-rdf-syntax-ns#">
   <cc:Work>
    <dc:type rdf:resource="http://purl.org/dc/dcmitype/StillImage"/>
    <dc:date>2025-03-26T07:46:35.037334</dc:date>
    <dc:format>image/svg+xml</dc:format>
    <dc:creator>
     <cc:Agent>
      <dc:title>Matplotlib v3.10.0, https://matplotlib.org/</dc:title>
     </cc:Agent>
    </dc:creator>
   </cc:Work>
  </rdf:RDF>
 </metadata>
 <defs>
  <style type="text/css">*{stroke-linejoin: round; stroke-linecap: butt}</style>
 </defs>
 <g id="figure_1">
  <g id="patch_1">
   <path d="M 0 360 
L 720 360 
L 720 0 
L 0 0 
z
" style="fill: #ffffff"/>
  </g>
  <g id="axes_1">
   <g id="patch_2">
    <path d="M 57.17 314.728 
L 709.2 314.728 
L 709.2 26.88 
L 57.17 26.88 
z
" style="fill: #ffffff"/>
   </g>
   <g id="matplotlib.axis_1">
    <g id="xtick_1">
     <g id="line2d_1">
      <defs>
       <path id="mdc1d1f7189" d="M 0 0 
L 0 3.5 
" style="stroke: #000000; stroke-width: 0.8"/>
      </defs>
      <g>
       <use xlink:href="#mdc1d1f7189" x="133.291891" y="314.728" style="stroke: #000000; stroke-width: 0.8"/>
      </g>
     </g>
     <g id="text_1">
      <!-- $\mathdefault{10^{-12}}$ -->
      <g transform="translate(119.341891 329.326437) scale(0.1 -0.1)">
       <defs>
        <path id="DejaVuSans-31" d="M 794 531 
L 1825 531 
L 1825 4091 
L 703 3866 
L 703 4441 
L 1819 4666 
L 2450 4666 
L 2450 531 
L 3481 531 
L 3481 0 
L 794 0 
L 794 531 
z
" transform="scale(0.015625)"/>
        <path id="DejaVuSans-30" d="M 2034 4250 
Q 1547 4250 1301 3770 
Q 1056 3291 1056 2328 
Q 1056 1369 1301 889 
Q 1547 409 2034 409 
Q 2525 409 2770 889 
Q 3016 1369 3016 2328 
Q 3016 3291 2770 3770 
Q 2525 4250 2034 4250 
z
M 2034 4750 
Q 2819 4750 3233 4129 
Q 3647 3509 3647 2328 
Q 3647 1150 3233 529 
Q 2819 -91 2034 -91 
Q 1250 -91 836 529 
Q 422 1150 422 2328 
Q 422 3509 836 4129 
Q 1250 4750 2034 4750 
z
" transform="scale(0.015625)"/>
        <path id="DejaVuSans-2212" d="M 678 2272 
L 4684 2272 
L 4684 1741 
L 678 1741 
L 678 2272 
z
" transform="scale(0.015625)"/>
        <path id="DejaVuSans-32" d="M 1228 531 
L 3431 531 
L 3431 0 
L 469 0 
L 469 531 
Q 828 903 1448 1529 
Q 2069 2156 2228 2338 
Q 2531 2678 2651 2914 
Q 2772 3150 2772 3378 
Q 2772 3750 2511 3984 
Q 2250 4219 1831 4219 
Q 1534 4219 1204 4116 
Q 875 4013 500 3803 
L 500 4441 
Q 881 4594 1212 4672 
Q 1544 4750 1819 4750 
Q 2544 4750 2975 4387 
Q 3406 4025 3406 3419 
Q 3406 3131 3298 2873 
Q 3191 2616 2906 2266 
Q 2828 2175 2409 1742 
Q 1991 1309 1228 531 
z
" transform="scale(0.015625)"/>
       </defs>
       <use xlink:href="#DejaVuSans-31" transform="translate(0 0.765625)"/>
       <use xlink:href="#DejaVuSans-30" transform="translate(63.623047 0.765625)"/>
       <use xlink:href="#DejaVuSans-2212" transform="translate(128.203125 39.046875) scale(0.7)"/>
       <use xlink:href="#DejaVuSans-31" transform="translate(186.855469 39.046875) scale(0.7)"/>
       <use xlink:href="#DejaVuSans-32" transform="translate(231.391602 39.046875) scale(0.7)"/>
      </g>
     </g>
    </g>
    <g id="xtick_2">
     <g id="line2d_2">
      <g>
       <use xlink:href="#mdc1d1f7189" x="212.983799" y="314.728" style="stroke: #000000; stroke-width: 0.8"/>
      </g>
     </g>
     <g id="text_2">
      <!-- $\mathdefault{10^{-6}}$ -->
      <g transform="translate(201.233799 329.326437) scale(0.1 -0.1)">
       <defs>
        <path id="DejaVuSans-36" d="M 2113 2584 
Q 1688 2584 1439 2293 
Q 1191 2003 1191 1497 
Q 1191 994 1439 701 
Q 1688 409 2113 409 
Q 2538 409 2786 701 
Q 3034 994 3034 1497 
Q 3034 2003 2786 2293 
Q 2538 2584 2113 2584 
z
M 3366 4563 
L 3366 3988 
Q 3128 4100 2886 4159 
Q 2644 4219 2406 4219 
Q 1781 4219 1451 3797 
Q 1122 3375 1075 2522 
Q 1259 2794 1537 2939 
Q 1816 3084 2150 3084 
Q 2853 3084 3261 2657 
Q 3669 2231 3669 1497 
Q 3669 778 3244 343 
Q 2819 -91 2113 -91 
Q 1303 -91 875 529 
Q 447 1150 447 2328 
Q 447 3434 972 4092 
Q 1497 4750 2381 4750 
Q 2619 4750 2861 4703 
Q 3103 4656 3366 4563 
z
" transform="scale(0.015625)"/>
       </defs>
       <use xlink:href="#DejaVuSans-31" transform="translate(0 0.765625)"/>
       <use xlink:href="#DejaVuSans-30" transform="translate(63.623047 0.765625)"/>
       <use xlink:href="#DejaVuSans-2212" transform="translate(128.203125 39.046875) scale(0.7)"/>
       <use xlink:href="#DejaVuSans-36" transform="translate(186.855469 39.046875) scale(0.7)"/>
      </g>
     </g>
    </g>
    <g id="xtick_3">
     <g id="line2d_3">
      <g>
       <use xlink:href="#mdc1d1f7189" x="292.675707" y="314.728" style="stroke: #000000; stroke-width: 0.8"/>
      </g>
     </g>
     <g id="text_3">
      <!-- $\mathdefault{10^{0}}$ -->
      <g transform="translate(283.875707 329.326437) scale(0.1 -0.1)">
       <use xlink:href="#DejaVuSans-31" transform="translate(0 0.765625)"/>
       <use xlink:href="#DejaVuSans-30" transform="translate(63.623047 0.765625)"/>
       <use xlink:href="#DejaVuSans-30" transform="translate(128.203125 39.046875) scale(0.7)"/>
      </g>
     </g>
    </g>
    <g id="xtick_4">
     <g id="line2d_4">
      <g>
       <use xlink:href="#mdc1d1f7189" x="372.367615" y="314.728" style="stroke: #000000; stroke-width: 0.8"/>
      </g>
     </g>
     <g id="text_4">
      <!-- $\mathdefault{10^{6}}$ -->
      <g transform="translate(363.567615 329.326437) scale(0.1 -0.1)">
       <use xlink:href="#DejaVuSans-31" transform="translate(0 0.765625)"/>
       <use xlink:href="#DejaVuSans-30" transform="translate(63.623047 0.765625)"/>
       <use xlink:href="#DejaVuSans-36" transform="translate(128.203125 39.046875) scale(0.7)"/>
      </g>
     </g>
    </g>
    <g id="xtick_5">
     <g id="line2d_5">
      <g>
       <use xlink:href="#mdc1d1f7189" x="452.059523" y="314.728" style="stroke: #000000; stroke-width: 0.8"/>
      </g>
     </g>
     <g id="text_5">
      <!-- $\mathdefault{10^{12}}$ -->
      <g transform="translate(441.009523 329.326437) scale(0.1 -0.1)">
       <use xlink:href="#DejaVuSans-31" transform="translate(0 0.765625)"/>
       <use xlink:href="#DejaVuSans-30" transform="translate(63.623047 0.765625)"/>
       <use xlink:href="#DejaVuSans-31" transform="translate(128.203125 39.046875) scale(0.7)"/>
       <use xlink:href="#DejaVuSans-32" transform="translate(172.739258 39.046875) scale(0.7)"/>
      </g>
     </g>
    </g>
    <g id="xtick_6">
     <g id="line2d_6">
      <g>
       <use xlink:href="#mdc1d1f7189" x="531.751431" y="314.728" style="stroke: #000000; stroke-width: 0.8"/>
      </g>
     </g>
     <g id="text_6">
      <!-- $\mathdefault{10^{18}}$ -->
      <g transform="translate(520.701431 329.326437) scale(0.1 -0.1)">
       <defs>
        <path id="DejaVuSans-38" d="M 2034 2216 
Q 1584 2216 1326 1975 
Q 1069 1734 1069 1313 
Q 1069 891 1326 650 
Q 1584 409 2034 409 
Q 2484 409 2743 651 
Q 3003 894 3003 1313 
Q 3003 1734 2745 1975 
Q 2488 2216 2034 2216 
z
M 1403 2484 
Q 997 2584 770 2862 
Q 544 3141 544 3541 
Q 544 4100 942 4425 
Q 1341 4750 2034 4750 
Q 2731 4750 3128 4425 
Q 3525 4100 3525 3541 
Q 3525 3141 3298 2862 
Q 3072 2584 2669 2484 
Q 3125 2378 3379 2068 
Q 3634 1759 3634 1313 
Q 3634 634 3220 271 
Q 2806 -91 2034 -91 
Q 1263 -91 848 271 
Q 434 634 434 1313 
Q 434 1759 690 2068 
Q 947 2378 1403 2484 
z
M 1172 3481 
Q 1172 3119 1398 2916 
Q 1625 2713 2034 2713 
Q 2441 2713 2670 2916 
Q 2900 3119 2900 3481 
Q 2900 3844 2670 4047 
Q 2441 4250 2034 4250 
Q 1625 4250 1398 4047 
Q 1172 3844 1172 3481 
z
" transform="scale(0.015625)"/>
       </defs>
       <use xlink:href="#DejaVuSans-31" transform="translate(0 0.765625)"/>
       <use xlink:href="#DejaVuSans-30" transform="translate(63.623047 0.765625)"/>
       <use xlink:href="#DejaVuSans-31" transform="translate(128.203125 39.046875) scale(0.7)"/>
       <use xlink:href="#DejaVuSans-38" transform="translate(172.739258 39.046875) scale(0.7)"/>
      </g>
     </g>
    </g>
    <g id="xtick_7">
     <g id="line2d_7">
      <g>
       <use xlink:href="#mdc1d1f7189" x="611.443339" y="314.728" style="stroke: #000000; stroke-width: 0.8"/>
      </g>
     </g>
     <g id="text_7">
      <!-- $\mathdefault{10^{24}}$ -->
      <g transform="translate(600.393339 329.326437) scale(0.1 -0.1)">
       <defs>
        <path id="DejaVuSans-34" d="M 2419 4116 
L 825 1625 
L 2419 1625 
L 2419 4116 
z
M 2253 4666 
L 3047 4666 
L 3047 1625 
L 3713 1625 
L 3713 1100 
L 3047 1100 
L 3047 0 
L 2419 0 
L 2419 1100 
L 313 1100 
L 313 1709 
L 2253 4666 
z
" transform="scale(0.015625)"/>
       </defs>
       <use xlink:href="#DejaVuSans-31" transform="translate(0 0.765625)"/>
       <use xlink:href="#DejaVuSans-30" transform="translate(63.623047 0.765625)"/>
       <use xlink:href="#DejaVuSans-32" transform="translate(128.203125 39.046875) scale(0.7)"/>
       <use xlink:href="#DejaVuSans-34" transform="translate(172.739258 39.046875) scale(0.7)"/>
      </g>
     </g>
    </g>
    <g id="xtick_8">
     <g id="line2d_8">
      <g>
       <use xlink:href="#mdc1d1f7189" x="691.135247" y="314.728" style="stroke: #000000; stroke-width: 0.8"/>
      </g>
     </g>
     <g id="text_8">
      <!-- $\mathdefault{10^{30}}$ -->
      <g transform="translate(680.085247 329.326437) scale(0.1 -0.1)">
       <defs>
        <path id="DejaVuSans-33" d="M 2597 2516 
Q 3050 2419 3304 2112 
Q 3559 1806 3559 1356 
Q 3559 666 3084 287 
Q 2609 -91 1734 -91 
Q 1441 -91 1130 -33 
Q 819 25 488 141 
L 488 750 
Q 750 597 1062 519 
Q 1375 441 1716 441 
Q 2309 441 2620 675 
Q 2931 909 2931 1356 
Q 2931 1769 2642 2001 
Q 2353 2234 1838 2234 
L 1294 2234 
L 1294 2753 
L 1863 2753 
Q 2328 2753 2575 2939 
Q 2822 3125 2822 3475 
Q 2822 3834 2567 4026 
Q 2313 4219 1838 4219 
Q 1578 4219 1281 4162 
Q 984 4106 628 3988 
L 628 4550 
Q 988 4650 1302 4700 
Q 1616 4750 1894 4750 
Q 2613 4750 3031 4423 
Q 3450 4097 3450 3541 
Q 3450 3153 3228 2886 
Q 3006 2619 2597 2516 
z
" transform="scale(0.015625)"/>
       </defs>
       <use xlink:href="#DejaVuSans-31" transform="translate(0 0.765625)"/>
       <use xlink:href="#DejaVuSans-30" transform="translate(63.623047 0.765625)"/>
       <use xlink:href="#DejaVuSans-33" transform="translate(128.203125 39.046875) scale(0.7)"/>
       <use xlink:href="#DejaVuSans-30" transform="translate(172.739258 39.046875) scale(0.7)"/>
      </g>
     </g>
    </g>
    <g id="text_9">
     <!-- Time (s) -->
     <g transform="translate(362.856094 343.004562) scale(0.1 -0.1)">
      <defs>
       <path id="DejaVuSans-54" d="M -19 4666 
L 3928 4666 
L 3928 4134 
L 2272 4134 
L 2272 0 
L 1638 0 
L 1638 4134 
L -19 4134 
L -19 4666 
z
" transform="scale(0.015625)"/>
       <path id="DejaVuSans-69" d="M 603 3500 
L 1178 3500 
L 1178 0 
L 603 0 
L 603 3500 
z
M 603 4863 
L 1178 4863 
L 1178 4134 
L 603 4134 
L 603 4863 
z
" transform="scale(0.015625)"/>
       <path id="DejaVuSans-6d" d="M 3328 2828 
Q 3544 3216 3844 3400 
Q 4144 3584 4550 3584 
Q 5097 3584 5394 3201 
Q 5691 2819 5691 2113 
L 5691 0 
L 5113 0 
L 5113 2094 
Q 5113 2597 4934 2840 
Q 4756 3084 4391 3084 
Q 3944 3084 3684 2787 
Q 3425 2491 3425 1978 
L 3425 0 
L 2847 0 
L 2847 2094 
Q 2847 2600 2669 2842 
Q 2491 3084 2119 3084 
Q 1678 3084 1418 2786 
Q 1159 2488 1159 1978 
L 1159 0 
L 581 0 
L 581 3500 
L 1159 3500 
L 1159 2956 
Q 1356 3278 1631 3431 
Q 1906 3584 2284 3584 
Q 2666 3584 2933 3390 
Q 3200 3197 3328 2828 
z
" transform="scale(0.015625)"/>
       <path id="DejaVuSans-65" d="M 3597 1894 
L 3597 1613 
L 953 1613 
Q 991 1019 1311 708 
Q 1631 397 2203 397 
Q 2534 397 2845 478 
Q 3156 559 3463 722 
L 3463 178 
Q 3153 47 2828 -22 
Q 2503 -91 2169 -91 
Q 1331 -91 842 396 
Q 353 884 353 1716 
Q 353 2575 817 3079 
Q 1281 3584 2069 3584 
Q 2775 3584 3186 3129 
Q 3597 2675 3597 1894 
z
M 3022 2063 
Q 3016 2534 2758 2815 
Q 2500 3097 2075 3097 
Q 1594 3097 1305 2825 
Q 1016 2553 972 2059 
L 3022 2063 
z
" transform="scale(0.015625)"/>
       <path id="DejaVuSans-20" transform="scale(0.015625)"/>
       <path id="DejaVuSans-28" d="M 1984 4856 
Q 1566 4138 1362 3434 
Q 1159 2731 1159 2009 
Q 1159 1288 1364 580 
Q 1569 -128 1984 -844 
L 1484 -844 
Q 1016 -109 783 600 
Q 550 1309 550 2009 
Q 550 2706 781 3412 
Q 1013 4119 1484 4856 
L 1984 4856 
z
" transform="scale(0.015625)"/>
       <path id="DejaVuSans-73" d="M 2834 3397 
L 2834 2853 
Q 2591 2978 2328 3040 
Q 2066 3103 1784 3103 
Q 1356 3103 1142 2972 
Q 928 2841 928 2578 
Q 928 2378 1081 2264 
Q 1234 2150 1697 2047 
L 1894 2003 
Q 2506 1872 2764 1633 
Q 3022 1394 3022 966 
Q 3022 478 2636 193 
Q 2250 -91 1575 -91 
Q 1294 -91 989 -36 
Q 684 19 347 128 
L 347 722 
Q 666 556 975 473 
Q 1284 391 1588 391 
Q 1994 391 2212 530 
Q 2431 669 2431 922 
Q 2431 1156 2273 1281 
Q 2116 1406 1581 1522 
L 1381 1569 
Q 847 1681 609 1914 
Q 372 2147 372 2553 
Q 372 3047 722 3315 
Q 1072 3584 1716 3584 
Q 2034 3584 2315 3537 
Q 2597 3491 2834 3397 
z
" transform="scale(0.015625)"/>
       <path id="DejaVuSans-29" d="M 513 4856 
L 1013 4856 
Q 1481 4119 1714 3412 
Q 1947 2706 1947 2009 
Q 1947 1309 1714 600 
Q 1481 -109 1013 -844 
L 513 -844 
Q 928 -128 1133 580 
Q 1338 1288 1338 2009 
Q 1338 2731 1133 3434 
Q 928 4138 513 4856 
z
" transform="scale(0.015625)"/>
      </defs>
      <use xlink:href="#DejaVuSans-54"/>
      <use xlink:href="#DejaVuSans-69" transform="translate(57.958984 0)"/>
      <use xlink:href="#DejaVuSans-6d" transform="translate(85.742188 0)"/>
      <use xlink:href="#DejaVuSans-65" transform="translate(183.154297 0)"/>
      <use xlink:href="#DejaVuSans-20" transform="translate(244.677734 0)"/>
      <use xlink:href="#DejaVuSans-28" transform="translate(276.464844 0)"/>
      <use xlink:href="#DejaVuSans-73" transform="translate(315.478516 0)"/>
      <use xlink:href="#DejaVuSans-29" transform="translate(367.578125 0)"/>
     </g>
    </g>
   </g>
   <g id="matplotlib.axis_2">
    <g id="ytick_1">
     <g id="line2d_9">
      <defs>
       <path id="m09c8e382f4" d="M 0 0 
L -3.5 0 
" style="stroke: #000000; stroke-width: 0.8"/>
      </defs>
      <g>
       <use xlink:href="#m09c8e382f4" x="57.17" y="301.644116" style="stroke: #000000; stroke-width: 0.8"/>
      </g>
     </g>
     <g id="text_10">
      <!-- 0 -->
      <g transform="translate(43.8075 305.443335) scale(0.1 -0.1)">
       <use xlink:href="#DejaVuSans-30"/>
      </g>
     </g>
    </g>
    <g id="ytick_2">
     <g id="line2d_10">
      <g>
       <use xlink:href="#m09c8e382f4" x="57.17" y="266.753381" style="stroke: #000000; stroke-width: 0.8"/>
      </g>
     </g>
     <g id="text_11">
      <!-- 200 -->
      <g transform="translate(31.0825 270.552599) scale(0.1 -0.1)">
       <use xlink:href="#DejaVuSans-32"/>
       <use xlink:href="#DejaVuSans-30" transform="translate(63.623047 0)"/>
       <use xlink:href="#DejaVuSans-30" transform="translate(127.246094 0)"/>
      </g>
     </g>
    </g>
    <g id="ytick_3">
     <g id="line2d_11">
      <g>
       <use xlink:href="#m09c8e382f4" x="57.17" y="231.862645" style="stroke: #000000; stroke-width: 0.8"/>
      </g>
     </g>
     <g id="text_12">
      <!-- 400 -->
      <g transform="translate(31.0825 235.661863) scale(0.1 -0.1)">
       <use xlink:href="#DejaVuSans-34"/>
       <use xlink:href="#DejaVuSans-30" transform="translate(63.623047 0)"/>
       <use xlink:href="#DejaVuSans-30" transform="translate(127.246094 0)"/>
      </g>
     </g>
    </g>
    <g id="ytick_4">
     <g id="line2d_12">
      <g>
       <use xlink:href="#m09c8e382f4" x="57.17" y="196.971909" style="stroke: #000000; stroke-width: 0.8"/>
      </g>
     </g>
     <g id="text_13">
      <!-- 600 -->
      <g transform="translate(31.0825 200.771128) scale(0.1 -0.1)">
       <use xlink:href="#DejaVuSans-36"/>
       <use xlink:href="#DejaVuSans-30" transform="translate(63.623047 0)"/>
       <use xlink:href="#DejaVuSans-30" transform="translate(127.246094 0)"/>
      </g>
     </g>
    </g>
    <g id="ytick_5">
     <g id="line2d_13">
      <g>
       <use xlink:href="#m09c8e382f4" x="57.17" y="162.081173" style="stroke: #000000; stroke-width: 0.8"/>
      </g>
     </g>
     <g id="text_14">
      <!-- 800 -->
      <g transform="translate(31.0825 165.880392) scale(0.1 -0.1)">
       <use xlink:href="#DejaVuSans-38"/>
       <use xlink:href="#DejaVuSans-30" transform="translate(63.623047 0)"/>
       <use xlink:href="#DejaVuSans-30" transform="translate(127.246094 0)"/>
      </g>
     </g>
    </g>
    <g id="ytick_6">
     <g id="line2d_14">
      <g>
       <use xlink:href="#m09c8e382f4" x="57.17" y="127.190437" style="stroke: #000000; stroke-width: 0.8"/>
      </g>
     </g>
     <g id="text_15">
      <!-- 1000 -->
      <g transform="translate(24.72 130.989656) scale(0.1 -0.1)">
       <use xlink:href="#DejaVuSans-31"/>
       <use xlink:href="#DejaVuSans-30" transform="translate(63.623047 0)"/>
       <use xlink:href="#DejaVuSans-30" transform="translate(127.246094 0)"/>
       <use xlink:href="#DejaVuSans-30" transform="translate(190.869141 0)"/>
      </g>
     </g>
    </g>
    <g id="ytick_7">
     <g id="line2d_15">
      <g>
       <use xlink:href="#m09c8e382f4" x="57.17" y="92.299702" style="stroke: #000000; stroke-width: 0.8"/>
      </g>
     </g>
     <g id="text_16">
      <!-- 1200 -->
      <g transform="translate(24.72 96.09892) scale(0.1 -0.1)">
       <use xlink:href="#DejaVuSans-31"/>
       <use xlink:href="#DejaVuSans-32" transform="translate(63.623047 0)"/>
       <use xlink:href="#DejaVuSans-30" transform="translate(127.246094 0)"/>
       <use xlink:href="#DejaVuSans-30" transform="translate(190.869141 0)"/>
      </g>
     </g>
    </g>
    <g id="ytick_8">
     <g id="line2d_16">
      <g>
       <use xlink:href="#m09c8e382f4" x="57.17" y="57.408966" style="stroke: #000000; stroke-width: 0.8"/>
      </g>
     </g>
     <g id="text_17">
      <!-- 1400 -->
      <g transform="translate(24.72 61.208185) scale(0.1 -0.1)">
       <use xlink:href="#DejaVuSans-31"/>
       <use xlink:href="#DejaVuSans-34" transform="translate(63.623047 0)"/>
       <use xlink:href="#DejaVuSans-30" transform="translate(127.246094 0)"/>
       <use xlink:href="#DejaVuSans-30" transform="translate(190.869141 0)"/>
      </g>
     </g>
    </g>
    <g id="text_18">
     <!-- Signal -->
     <g transform="translate(18.640312 186.163375) rotate(-90) scale(0.1 -0.1)">
      <defs>
       <path id="DejaVuSans-53" d="M 3425 4513 
L 3425 3897 
Q 3066 4069 2747 4153 
Q 2428 4238 2131 4238 
Q 1616 4238 1336 4038 
Q 1056 3838 1056 3469 
Q 1056 3159 1242 3001 
Q 1428 2844 1947 2747 
L 2328 2669 
Q 3034 2534 3370 2195 
Q 3706 1856 3706 1288 
Q 3706 609 3251 259 
Q 2797 -91 1919 -91 
Q 1588 -91 1214 -16 
Q 841 59 441 206 
L 441 856 
Q 825 641 1194 531 
Q 1563 422 1919 422 
Q 2459 422 2753 634 
Q 3047 847 3047 1241 
Q 3047 1584 2836 1778 
Q 2625 1972 2144 2069 
L 1759 2144 
Q 1053 2284 737 2584 
Q 422 2884 422 3419 
Q 422 4038 858 4394 
Q 1294 4750 2059 4750 
Q 2388 4750 2728 4690 
Q 3069 4631 3425 4513 
z
" transform="scale(0.015625)"/>
       <path id="DejaVuSans-67" d="M 2906 1791 
Q 2906 2416 2648 2759 
Q 2391 3103 1925 3103 
Q 1463 3103 1205 2759 
Q 947 2416 947 1791 
Q 947 1169 1205 825 
Q 1463 481 1925 481 
Q 2391 481 2648 825 
Q 2906 1169 2906 1791 
z
M 3481 434 
Q 3481 -459 3084 -895 
Q 2688 -1331 1869 -1331 
Q 1566 -1331 1297 -1286 
Q 1028 -1241 775 -1147 
L 775 -588 
Q 1028 -725 1275 -790 
Q 1522 -856 1778 -856 
Q 2344 -856 2625 -561 
Q 2906 -266 2906 331 
L 2906 616 
Q 2728 306 2450 153 
Q 2172 0 1784 0 
Q 1141 0 747 490 
Q 353 981 353 1791 
Q 353 2603 747 3093 
Q 1141 3584 1784 3584 
Q 2172 3584 2450 3431 
Q 2728 3278 2906 2969 
L 2906 3500 
L 3481 3500 
L 3481 434 
z
" transform="scale(0.015625)"/>
       <path id="DejaVuSans-6e" d="M 3513 2113 
L 3513 0 
L 2938 0 
L 2938 2094 
Q 2938 2591 2744 2837 
Q 2550 3084 2163 3084 
Q 1697 3084 1428 2787 
Q 1159 2491 1159 1978 
L 1159 0 
L 581 0 
L 581 3500 
L 1159 3500 
L 1159 2956 
Q 1366 3272 1645 3428 
Q 1925 3584 2291 3584 
Q 2894 3584 3203 3211 
Q 3513 2838 3513 2113 
z
" transform="scale(0.015625)"/>
       <path id="DejaVuSans-61" d="M 2194 1759 
Q 1497 1759 1228 1600 
Q 959 1441 959 1056 
Q 959 750 1161 570 
Q 1363 391 1709 391 
Q 2188 391 2477 730 
Q 2766 1069 2766 1631 
L 2766 1759 
L 2194 1759 
z
M 3341 1997 
L 3341 0 
L 2766 0 
L 2766 531 
Q 2569 213 2275 61 
Q 1981 -91 1556 -91 
Q 1019 -91 701 211 
Q 384 513 384 1019 
Q 384 1609 779 1909 
Q 1175 2209 1959 2209 
L 2766 2209 
L 2766 2266 
Q 2766 2663 2505 2880 
Q 2244 3097 1772 3097 
Q 1472 3097 1187 3025 
Q 903 2953 641 2809 
L 641 3341 
Q 956 3463 1253 3523 
Q 1550 3584 1831 3584 
Q 2591 3584 2966 3190 
Q 3341 2797 3341 1997 
z
" transform="scale(0.015625)"/>
       <path id="DejaVuSans-6c" d="M 603 4863 
L 1178 4863 
L 1178 0 
L 603 0 
L 603 4863 
z
" transform="scale(0.015625)"/>
      </defs>
      <use xlink:href="#DejaVuSans-53"/>
      <use xlink:href="#DejaVuSans-69" transform="translate(63.476562 0)"/>
      <use xlink:href="#DejaVuSans-67" transform="translate(91.259766 0)"/>
      <use xlink:href="#DejaVuSans-6e" transform="translate(154.736328 0)"/>
      <use xlink:href="#DejaVuSans-61" transform="translate(218.115234 0)"/>
      <use xlink:href="#DejaVuSans-6c" transform="translate(279.394531 0)"/>
     </g>
    </g>
   </g>
   <g id="line2d_17">
    <path d="M 115.700569 301.470012 
L 381.579036 301.588989 
L 525.420153 301.641674 
L 576.57441 301.643767 
L 576.57441 301.643767 
" clip-path="url(#p974e19145b)" style="fill: none; stroke-dasharray: 1.85,0.8; stroke-dashoffset: 0; stroke: #8000ff; stroke-width: 0.5"/>
   </g>
   <g id="line2d_18">
    <path d="M 115.700569 214.565825 
L 129.994035 214.866485 
L 141.676898 215.297639 
L 157.162198 216.19925 
L 170.586611 217.346127 
L 173.46488 217.641383 
L 188.244948 219.45614 
L 198.140688 220.966692 
L 208.686606 222.850904 
L 216.627504 224.460688 
L 224.173195 226.143201 
L 233.444322 228.412438 
L 244.074309 231.280755 
L 254.857578 234.46572 
L 264.739663 237.607913 
L 276.863252 241.718745 
L 289.506973 246.251721 
L 305.886874 252.381917 
L 349.116431 268.709369 
L 361.81189 273.1994 
L 373.492637 277.093192 
L 384.316369 280.458645 
L 394.313013 283.335395 
L 403.507877 285.771669 
L 413.362738 288.151372 
L 422.886023 290.220543 
L 433.213848 292.210641 
L 441.785308 293.667074 
L 452.167014 295.204798 
L 461.412984 296.378153 
L 476.453637 297.929191 
L 484.96617 298.63198 
L 500.033878 299.612064 
L 515.306771 300.321087 
L 525.420153 300.66537 
L 544.563026 301.112016 
L 573.172167 301.450294 
L 576.57441 301.473631 
L 576.57441 301.473631 
" clip-path="url(#p974e19145b)" style="fill: none; stroke-dasharray: 1.85,0.8; stroke-dashoffset: 0; stroke: #000000; stroke-width: 0.5"/>
   </g>
   <g id="line2d_19">
    <path d="M 116.092699 301.469779 
L 370.272778 301.587128 
L 364.593552 301.58771 
L 426.914756 301.619809 
L 609.384668 301.644 
L 609.384668 301.644 
" clip-path="url(#p974e19145b)" style="fill: none; stroke-dasharray: 1.85,0.8; stroke-dashoffset: 0; stroke: #ff0000; stroke-width: 0.5"/>
   </g>
   <g id="line2d_20">
    <path d="M 116.092699 40.42582 
L 126.315323 41.015301 
L 134.726525 41.766822 
L 143.096087 42.802401 
L 149.872093 43.88122 
L 156.616478 45.192423 
L 163.60043 46.822019 
L 170.011072 48.579547 
L 173.785316 49.737925 
L 180.831804 52.157635 
L 186.142141 54.210905 
L 192.259893 56.830322 
L 197.770855 59.429186 
L 203.045895 62.133841 
L 209.195096 65.5589 
L 215.188731 69.18209 
L 220.838773 72.855888 
L 226.515202 76.798449 
L 232.608404 81.308222 
L 238.513567 85.948302 
L 245.05663 91.390919 
L 251.126019 96.71228 
L 257.924887 102.969463 
L 265.102193 109.892609 
L 272.575456 117.418047 
L 280.853025 126.087103 
L 289.726168 135.708127 
L 300.259241 147.467797 
L 315.556596 164.932768 
L 337.665174 190.163162 
L 348.54453 202.217144 
L 357.368171 211.677608 
L 365.911841 220.495727 
L 364.593552 219.159485 
L 373.145274 227.655189 
L 380.178583 234.316637 
L 387.17454 240.625767 
L 393.55416 246.087397 
L 399.302631 250.7607 
L 405.912901 255.83591 
L 403.923804 254.342719 
L 411.972151 260.202555 
L 418.084631 264.328657 
L 424.400168 268.297907 
L 430.256519 271.714058 
L 436.531487 275.096719 
L 442.501875 278.054872 
L 448.408263 280.739235 
L 454.499198 283.26466 
L 460.442417 285.501507 
L 466.973699 287.714037 
L 473.313366 289.630075 
L 479.852811 291.383541 
L 487.217729 293.108208 
L 494.163346 294.513021 
L 501.702837 295.818509 
L 510.608111 297.099904 
L 520.191308 298.206747 
L 528.834762 299.000383 
L 539.425312 299.754548 
L 549.662454 300.298936 
L 564.027923 300.830403 
L 578.559266 301.169931 
L 609.384668 301.508917 
L 609.384668 301.508917 
" clip-path="url(#p974e19145b)" style="fill: none; stroke-dasharray: 1.85,0.8; stroke-dashoffset: 0; stroke: #000000; stroke-width: 0.5"/>
   </g>
   <g id="line2d_21">
    <path d="M 132.470059 301.470012 
L 369.795512 301.587942 
L 586.983035 301.643767 
L 586.983035 301.643767 
" clip-path="url(#p974e19145b)" style="fill: none; stroke-dasharray: 1.85,0.8; stroke-dashoffset: 0; stroke: #8000ff; stroke-width: 0.5"/>
   </g>
   <g id="line2d_22">
    <path d="M 132.470059 214.942289 
L 148.452944 215.641479 
L 160.050337 216.415329 
L 171.319521 217.419585 
L 181.477553 218.561609 
L 192.611895 220.09257 
L 200.031111 221.283368 
L 212.523652 223.608149 
L 222.603657 225.780996 
L 232.362691 228.136362 
L 242.410132 230.81343 
L 251.418273 233.421055 
L 262.152483 236.765918 
L 271.980019 240.031881 
L 283.846815 244.195644 
L 298.881163 249.733635 
L 322.107528 258.581601 
L 344.038064 266.852499 
L 356.722105 271.428179 
L 368.586063 275.488498 
L 379.877755 279.108779 
L 390.197476 282.179149 
L 397.935426 284.31971 
L 408.976563 287.122109 
L 415.926649 288.730737 
L 426.791935 291.003953 
L 436.302655 292.755523 
L 446.821247 294.443123 
L 454.79561 295.556561 
L 464.706999 296.754213 
L 474.698164 297.769322 
L 487.565898 298.823935 
L 496.942203 299.435906 
L 505.903177 299.914691 
L 525.232802 300.659764 
L 541.97148 301.064492 
L 562.398221 301.356519 
L 586.983035 301.530247 
L 586.983035 301.530247 
" clip-path="url(#p974e19145b)" style="fill: none; stroke-dasharray: 1.85,0.8; stroke-dashoffset: 0; stroke: #000000; stroke-width: 0.5"/>
   </g>
   <g id="line2d_23">
    <path d="M 86.807727 301.469779 
L 365.512841 301.5855 
L 679.562273 301.644 
L 679.562273 301.644 
" clip-path="url(#p974e19145b)" style="fill: none; stroke-dasharray: 1.85,0.8; stroke-dashoffset: 0; stroke: #ff0000; stroke-width: 0.5"/>
   </g>
   <g id="line2d_24">
    <path d="M 86.807727 39.964 
L 105.633767 40.107069 
L 115.108544 40.384968 
L 124.442392 40.882819 
L 131.078697 41.407954 
L 139.672673 42.341266 
L 146.578062 43.328254 
L 152.211866 44.308186 
L 160.279211 46.011204 
L 166.18505 47.499521 
L 171.730964 49.095779 
L 177.116766 50.839457 
L 183.488917 53.159826 
L 189.255342 55.509394 
L 194.489961 57.854342 
L 200.787062 60.949452 
L 206.530459 64.038519 
L 212.840679 67.729077 
L 218.915942 71.577493 
L 224.615305 75.450918 
L 230.673461 79.845216 
L 236.595947 84.412804 
L 242.819419 89.495005 
L 249.373994 95.149934 
L 255.85925 101.036385 
L 262.903592 107.738762 
L 270.260205 115.054132 
L 278.078802 123.145716 
L 286.762799 132.461551 
L 296.776344 143.546049 
L 309.769082 158.293848 
L 341.37318 194.311965 
L 351.308759 205.21543 
L 359.959244 214.390327 
L 368.000601 222.593592 
L 375.409047 229.832791 
L 382.417724 236.371343 
L 388.799754 242.044072 
L 395.469807 247.671239 
L 401.56259 252.532121 
L 407.710823 257.160241 
L 413.986271 261.593124 
L 419.951712 265.533122 
L 424.08957 268.109651 
L 431.311851 272.302892 
L 437.180028 275.430211 
L 442.851589 278.220437 
L 449.099362 281.037991 
L 455.129619 283.512386 
L 461.911985 286.021259 
L 468.694232 288.255955 
L 475.312185 290.189299 
L 482.117265 291.940992 
L 489.457644 293.583727 
L 496.445552 294.931194 
L 503.81661 296.146874 
L 512.341568 297.319702 
L 520.228788 298.210581 
L 530.043242 299.097756 
L 542.96512 299.961162 
L 557.489814 300.617344 
L 555.430785 300.540771 
L 571.20882 301.018476 
L 590.626216 301.3487 
L 618.72708 301.554457 
L 628.055181 301.58548 
L 679.562273 301.63984 
L 679.562273 301.63984 
" clip-path="url(#p974e19145b)" style="fill: none; stroke-dasharray: 1.85,0.8; stroke-dashoffset: 0; stroke: #000000; stroke-width: 0.5"/>
   </g>
   <g id="patch_3">
    <path d="M 57.17 314.728 
L 57.17 26.88 
" style="fill: none; stroke: #000000; stroke-width: 0.8; stroke-linejoin: miter; stroke-linecap: square"/>
   </g>
   <g id="patch_4">
    <path d="M 709.2 314.728 
L 709.2 26.88 
" style="fill: none; stroke: #000000; stroke-width: 0.8; stroke-linejoin: miter; stroke-linecap: square"/>
   </g>
   <g id="patch_5">
    <path d="M 57.17 314.728 
L 709.2 314.728 
" style="fill: none; stroke: #000000; stroke-width: 0.8; stroke-linejoin: miter; stroke-linecap: square"/>
   </g>
   <g id="patch_6">
    <path d="M 57.17 26.88 
L 709.2 26.88 
" style="fill: none; stroke: #000000; stroke-width: 0.8; stroke-linejoin: miter; stroke-linecap: square"/>
   </g>
   <g id="text_19">
    <!-- Unnormalized -->
    <g transform="translate(341.650938 20.88) scale(0.12 -0.12)">
     <defs>
      <path id="DejaVuSans-55" d="M 556 4666 
L 1191 4666 
L 1191 1831 
Q 1191 1081 1462 751 
Q 1734 422 2344 422 
Q 2950 422 3222 751 
Q 3494 1081 3494 1831 
L 3494 4666 
L 4128 4666 
L 4128 1753 
Q 4128 841 3676 375 
Q 3225 -91 2344 -91 
Q 1459 -91 1007 375 
Q 556 841 556 1753 
L 556 4666 
z
" transform="scale(0.015625)"/>
      <path id="DejaVuSans-6f" d="M 1959 3097 
Q 1497 3097 1228 2736 
Q 959 2375 959 1747 
Q 959 1119 1226 758 
Q 1494 397 1959 397 
Q 2419 397 2687 759 
Q 2956 1122 2956 1747 
Q 2956 2369 2687 2733 
Q 2419 3097 1959 3097 
z
M 1959 3584 
Q 2709 3584 3137 3096 
Q 3566 2609 3566 1747 
Q 3566 888 3137 398 
Q 2709 -91 1959 -91 
Q 1206 -91 779 398 
Q 353 888 353 1747 
Q 353 2609 779 3096 
Q 1206 3584 1959 3584 
z
" transform="scale(0.015625)"/>
      <path id="DejaVuSans-72" d="M 2631 2963 
Q 2534 3019 2420 3045 
Q 2306 3072 2169 3072 
Q 1681 3072 1420 2755 
Q 1159 2438 1159 1844 
L 1159 0 
L 581 0 
L 581 3500 
L 1159 3500 
L 1159 2956 
Q 1341 3275 1631 3429 
Q 1922 3584 2338 3584 
Q 2397 3584 2469 3576 
Q 2541 3569 2628 3553 
L 2631 2963 
z
" transform="scale(0.015625)"/>
      <path id="DejaVuSans-7a" d="M 353 3500 
L 3084 3500 
L 3084 2975 
L 922 459 
L 3084 459 
L 3084 0 
L 275 0 
L 275 525 
L 2438 3041 
L 353 3041 
L 353 3500 
z
" transform="scale(0.015625)"/>
      <path id="DejaVuSans-64" d="M 2906 2969 
L 2906 4863 
L 3481 4863 
L 3481 0 
L 2906 0 
L 2906 525 
Q 2725 213 2448 61 
Q 2172 -91 1784 -91 
Q 1150 -91 751 415 
Q 353 922 353 1747 
Q 353 2572 751 3078 
Q 1150 3584 1784 3584 
Q 2172 3584 2448 3432 
Q 2725 3281 2906 2969 
z
M 947 1747 
Q 947 1113 1208 752 
Q 1469 391 1925 391 
Q 2381 391 2643 752 
Q 2906 1113 2906 1747 
Q 2906 2381 2643 2742 
Q 2381 3103 1925 3103 
Q 1469 3103 1208 2742 
Q 947 2381 947 1747 
z
" transform="scale(0.015625)"/>
     </defs>
     <use xlink:href="#DejaVuSans-55"/>
     <use xlink:href="#DejaVuSans-6e" transform="translate(73.193359 0)"/>
     <use xlink:href="#DejaVuSans-6e" transform="translate(136.572266 0)"/>
     <use xlink:href="#DejaVuSans-6f" transform="translate(199.951172 0)"/>
     <use xlink:href="#DejaVuSans-72" transform="translate(261.132812 0)"/>
     <use xlink:href="#DejaVuSans-6d" transform="translate(300.496094 0)"/>
     <use xlink:href="#DejaVuSans-61" transform="translate(397.908203 0)"/>
     <use xlink:href="#DejaVuSans-6c" transform="translate(459.1875 0)"/>
     <use xlink:href="#DejaVuSans-69" transform="translate(486.970703 0)"/>
     <use xlink:href="#DejaVuSans-7a" transform="translate(514.753906 0)"/>
     <use xlink:href="#DejaVuSans-65" transform="translate(567.244141 0)"/>
     <use xlink:href="#DejaVuSans-64" transform="translate(628.767578 0)"/>
    </g>
   </g>
   <g id="legend_1">
    <g id="patch_7">
     <path d="M 505.771875 153.4175 
L 702.2 153.4175 
Q 704.2 153.4175 704.2 151.4175 
L 704.2 33.88 
Q 704.2 31.88 702.2 31.88 
L 505.771875 31.88 
Q 503.771875 31.88 503.771875 33.88 
L 503.771875 151.4175 
Q 503.771875 153.4175 505.771875 153.4175 
z
" style="fill: #ffffff; opacity: 0.8; stroke: #cccccc; stroke-linejoin: miter"/>
    </g>
    <g id="line2d_25">
     <path d="M 507.771875 39.978438 
L 517.771875 39.978438 
L 527.771875 39.978438 
" style="fill: none; stroke-dasharray: 1.85,0.8; stroke-dashoffset: 0; stroke: #8000ff; stroke-width: 0.5"/>
    </g>
    <g id="text_20">
     <!-- rho'=1e-05 -->
     <g transform="translate(535.771875 43.478438) scale(0.1 -0.1)">
      <defs>
       <path id="DejaVuSans-68" d="M 3513 2113 
L 3513 0 
L 2938 0 
L 2938 2094 
Q 2938 2591 2744 2837 
Q 2550 3084 2163 3084 
Q 1697 3084 1428 2787 
Q 1159 2491 1159 1978 
L 1159 0 
L 581 0 
L 581 4863 
L 1159 4863 
L 1159 2956 
Q 1366 3272 1645 3428 
Q 1925 3584 2291 3584 
Q 2894 3584 3203 3211 
Q 3513 2838 3513 2113 
z
" transform="scale(0.015625)"/>
       <path id="DejaVuSans-27" d="M 1147 4666 
L 1147 2931 
L 616 2931 
L 616 4666 
L 1147 4666 
z
" transform="scale(0.015625)"/>
       <path id="DejaVuSans-3d" d="M 678 2906 
L 4684 2906 
L 4684 2381 
L 678 2381 
L 678 2906 
z
M 678 1631 
L 4684 1631 
L 4684 1100 
L 678 1100 
L 678 1631 
z
" transform="scale(0.015625)"/>
       <path id="DejaVuSans-2d" d="M 313 2009 
L 1997 2009 
L 1997 1497 
L 313 1497 
L 313 2009 
z
" transform="scale(0.015625)"/>
       <path id="DejaVuSans-35" d="M 691 4666 
L 3169 4666 
L 3169 4134 
L 1269 4134 
L 1269 2991 
Q 1406 3038 1543 3061 
Q 1681 3084 1819 3084 
Q 2600 3084 3056 2656 
Q 3513 2228 3513 1497 
Q 3513 744 3044 326 
Q 2575 -91 1722 -91 
Q 1428 -91 1123 -41 
Q 819 9 494 109 
L 494 744 
Q 775 591 1075 516 
Q 1375 441 1709 441 
Q 2250 441 2565 725 
Q 2881 1009 2881 1497 
Q 2881 1984 2565 2268 
Q 2250 2553 1709 2553 
Q 1456 2553 1204 2497 
Q 953 2441 691 2322 
L 691 4666 
z
" transform="scale(0.015625)"/>
      </defs>
      <use xlink:href="#DejaVuSans-72"/>
      <use xlink:href="#DejaVuSans-68" transform="translate(39.363281 0)"/>
      <use xlink:href="#DejaVuSans-6f" transform="translate(102.742188 0)"/>
      <use xlink:href="#DejaVuSans-27" transform="translate(163.923828 0)"/>
      <use xlink:href="#DejaVuSans-3d" transform="translate(191.414062 0)"/>
      <use xlink:href="#DejaVuSans-31" transform="translate(275.203125 0)"/>
      <use xlink:href="#DejaVuSans-65" transform="translate(338.826172 0)"/>
      <use xlink:href="#DejaVuSans-2d" transform="translate(400.349609 0)"/>
      <use xlink:href="#DejaVuSans-30" transform="translate(436.433594 0)"/>
      <use xlink:href="#DejaVuSans-35" transform="translate(500.056641 0)"/>
     </g>
    </g>
    <g id="line2d_26">
     <path d="M 507.771875 54.656563 
L 517.771875 54.656563 
L 527.771875 54.656563 
" style="fill: none; stroke-dasharray: 1.85,0.8; stroke-dashoffset: 0; stroke: #000000; stroke-width: 0.5"/>
    </g>
    <g id="text_21">
     <!-- Analytical with rho_prime=1e-05 -->
     <g transform="translate(535.771875 58.156563) scale(0.1 -0.1)">
      <defs>
       <path id="DejaVuSans-41" d="M 2188 4044 
L 1331 1722 
L 3047 1722 
L 2188 4044 
z
M 1831 4666 
L 2547 4666 
L 4325 0 
L 3669 0 
L 3244 1197 
L 1141 1197 
L 716 0 
L 50 0 
L 1831 4666 
z
" transform="scale(0.015625)"/>
       <path id="DejaVuSans-79" d="M 2059 -325 
Q 1816 -950 1584 -1140 
Q 1353 -1331 966 -1331 
L 506 -1331 
L 506 -850 
L 844 -850 
Q 1081 -850 1212 -737 
Q 1344 -625 1503 -206 
L 1606 56 
L 191 3500 
L 800 3500 
L 1894 763 
L 2988 3500 
L 3597 3500 
L 2059 -325 
z
" transform="scale(0.015625)"/>
       <path id="DejaVuSans-74" d="M 1172 4494 
L 1172 3500 
L 2356 3500 
L 2356 3053 
L 1172 3053 
L 1172 1153 
Q 1172 725 1289 603 
Q 1406 481 1766 481 
L 2356 481 
L 2356 0 
L 1766 0 
Q 1100 0 847 248 
Q 594 497 594 1153 
L 594 3053 
L 172 3053 
L 172 3500 
L 594 3500 
L 594 4494 
L 1172 4494 
z
" transform="scale(0.015625)"/>
       <path id="DejaVuSans-63" d="M 3122 3366 
L 3122 2828 
Q 2878 2963 2633 3030 
Q 2388 3097 2138 3097 
Q 1578 3097 1268 2742 
Q 959 2388 959 1747 
Q 959 1106 1268 751 
Q 1578 397 2138 397 
Q 2388 397 2633 464 
Q 2878 531 3122 666 
L 3122 134 
Q 2881 22 2623 -34 
Q 2366 -91 2075 -91 
Q 1284 -91 818 406 
Q 353 903 353 1747 
Q 353 2603 823 3093 
Q 1294 3584 2113 3584 
Q 2378 3584 2631 3529 
Q 2884 3475 3122 3366 
z
" transform="scale(0.015625)"/>
       <path id="DejaVuSans-77" d="M 269 3500 
L 844 3500 
L 1563 769 
L 2278 3500 
L 2956 3500 
L 3675 769 
L 4391 3500 
L 4966 3500 
L 4050 0 
L 3372 0 
L 2619 2869 
L 1863 0 
L 1184 0 
L 269 3500 
z
" transform="scale(0.015625)"/>
       <path id="DejaVuSans-5f" d="M 3263 -1063 
L 3263 -1509 
L -63 -1509 
L -63 -1063 
L 3263 -1063 
z
" transform="scale(0.015625)"/>
       <path id="DejaVuSans-70" d="M 1159 525 
L 1159 -1331 
L 581 -1331 
L 581 3500 
L 1159 3500 
L 1159 2969 
Q 1341 3281 1617 3432 
Q 1894 3584 2278 3584 
Q 2916 3584 3314 3078 
Q 3713 2572 3713 1747 
Q 3713 922 3314 415 
Q 2916 -91 2278 -91 
Q 1894 -91 1617 61 
Q 1341 213 1159 525 
z
M 3116 1747 
Q 3116 2381 2855 2742 
Q 2594 3103 2138 3103 
Q 1681 3103 1420 2742 
Q 1159 2381 1159 1747 
Q 1159 1113 1420 752 
Q 1681 391 2138 391 
Q 2594 391 2855 752 
Q 3116 1113 3116 1747 
z
" transform="scale(0.015625)"/>
      </defs>
      <use xlink:href="#DejaVuSans-41"/>
      <use xlink:href="#DejaVuSans-6e" transform="translate(68.408203 0)"/>
      <use xlink:href="#DejaVuSans-61" transform="translate(131.787109 0)"/>
      <use xlink:href="#DejaVuSans-6c" transform="translate(193.066406 0)"/>
      <use xlink:href="#DejaVuSans-79" transform="translate(220.849609 0)"/>
      <use xlink:href="#DejaVuSans-74" transform="translate(280.029297 0)"/>
      <use xlink:href="#DejaVuSans-69" transform="translate(319.238281 0)"/>
      <use xlink:href="#DejaVuSans-63" transform="translate(347.021484 0)"/>
      <use xlink:href="#DejaVuSans-61" transform="translate(402.001953 0)"/>
      <use xlink:href="#DejaVuSans-6c" transform="translate(463.28125 0)"/>
      <use xlink:href="#DejaVuSans-20" transform="translate(491.064453 0)"/>
      <use xlink:href="#DejaVuSans-77" transform="translate(522.851562 0)"/>
      <use xlink:href="#DejaVuSans-69" transform="translate(604.638672 0)"/>
      <use xlink:href="#DejaVuSans-74" transform="translate(632.421875 0)"/>
      <use xlink:href="#DejaVuSans-68" transform="translate(671.630859 0)"/>
      <use xlink:href="#DejaVuSans-20" transform="translate(735.009766 0)"/>
      <use xlink:href="#DejaVuSans-72" transform="translate(766.796875 0)"/>
      <use xlink:href="#DejaVuSans-68" transform="translate(806.160156 0)"/>
      <use xlink:href="#DejaVuSans-6f" transform="translate(869.539062 0)"/>
      <use xlink:href="#DejaVuSans-5f" transform="translate(930.720703 0)"/>
      <use xlink:href="#DejaVuSans-70" transform="translate(980.720703 0)"/>
      <use xlink:href="#DejaVuSans-72" transform="translate(1044.197266 0)"/>
      <use xlink:href="#DejaVuSans-69" transform="translate(1085.310547 0)"/>
      <use xlink:href="#DejaVuSans-6d" transform="translate(1113.09375 0)"/>
      <use xlink:href="#DejaVuSans-65" transform="translate(1210.505859 0)"/>
      <use xlink:href="#DejaVuSans-3d" transform="translate(1272.029297 0)"/>
      <use xlink:href="#DejaVuSans-31" transform="translate(1355.818359 0)"/>
      <use xlink:href="#DejaVuSans-65" transform="translate(1419.441406 0)"/>
      <use xlink:href="#DejaVuSans-2d" transform="translate(1480.964844 0)"/>
      <use xlink:href="#DejaVuSans-30" transform="translate(1517.048828 0)"/>
      <use xlink:href="#DejaVuSans-35" transform="translate(1580.671875 0)"/>
     </g>
    </g>
    <g id="line2d_27">
     <path d="M 507.771875 69.612813 
L 517.771875 69.612813 
L 527.771875 69.612813 
" style="fill: none; stroke-dasharray: 1.85,0.8; stroke-dashoffset: 0; stroke: #ff0000; stroke-width: 0.5"/>
    </g>
    <g id="text_22">
     <!-- rho'=1e-05 -->
     <g transform="translate(535.771875 73.112813) scale(0.1 -0.1)">
      <use xlink:href="#DejaVuSans-72"/>
      <use xlink:href="#DejaVuSans-68" transform="translate(39.363281 0)"/>
      <use xlink:href="#DejaVuSans-6f" transform="translate(102.742188 0)"/>
      <use xlink:href="#DejaVuSans-27" transform="translate(163.923828 0)"/>
      <use xlink:href="#DejaVuSans-3d" transform="translate(191.414062 0)"/>
      <use xlink:href="#DejaVuSans-31" transform="translate(275.203125 0)"/>
      <use xlink:href="#DejaVuSans-65" transform="translate(338.826172 0)"/>
      <use xlink:href="#DejaVuSans-2d" transform="translate(400.349609 0)"/>
      <use xlink:href="#DejaVuSans-30" transform="translate(436.433594 0)"/>
      <use xlink:href="#DejaVuSans-35" transform="translate(500.056641 0)"/>
     </g>
    </g>
    <g id="line2d_28">
     <path d="M 507.771875 84.290938 
L 517.771875 84.290938 
L 527.771875 84.290938 
" style="fill: none; stroke-dasharray: 1.85,0.8; stroke-dashoffset: 0; stroke: #000000; stroke-width: 0.5"/>
    </g>
    <g id="text_23">
     <!-- Analytical with rho_prime=1e-05 -->
     <g transform="translate(535.771875 87.790938) scale(0.1 -0.1)">
      <use xlink:href="#DejaVuSans-41"/>
      <use xlink:href="#DejaVuSans-6e" transform="translate(68.408203 0)"/>
      <use xlink:href="#DejaVuSans-61" transform="translate(131.787109 0)"/>
      <use xlink:href="#DejaVuSans-6c" transform="translate(193.066406 0)"/>
      <use xlink:href="#DejaVuSans-79" transform="translate(220.849609 0)"/>
      <use xlink:href="#DejaVuSans-74" transform="translate(280.029297 0)"/>
      <use xlink:href="#DejaVuSans-69" transform="translate(319.238281 0)"/>
      <use xlink:href="#DejaVuSans-63" transform="translate(347.021484 0)"/>
      <use xlink:href="#DejaVuSans-61" transform="translate(402.001953 0)"/>
      <use xlink:href="#DejaVuSans-6c" transform="translate(463.28125 0)"/>
      <use xlink:href="#DejaVuSans-20" transform="translate(491.064453 0)"/>
      <use xlink:href="#DejaVuSans-77" transform="translate(522.851562 0)"/>
      <use xlink:href="#DejaVuSans-69" transform="translate(604.638672 0)"/>
      <use xlink:href="#DejaVuSans-74" transform="translate(632.421875 0)"/>
      <use xlink:href="#DejaVuSans-68" transform="translate(671.630859 0)"/>
      <use xlink:href="#DejaVuSans-20" transform="translate(735.009766 0)"/>
      <use xlink:href="#DejaVuSans-72" transform="translate(766.796875 0)"/>
      <use xlink:href="#DejaVuSans-68" transform="translate(806.160156 0)"/>
      <use xlink:href="#DejaVuSans-6f" transform="translate(869.539062 0)"/>
      <use xlink:href="#DejaVuSans-5f" transform="translate(930.720703 0)"/>
      <use xlink:href="#DejaVuSans-70" transform="translate(980.720703 0)"/>
      <use xlink:href="#DejaVuSans-72" transform="translate(1044.197266 0)"/>
      <use xlink:href="#DejaVuSans-69" transform="translate(1085.310547 0)"/>
      <use xlink:href="#DejaVuSans-6d" transform="translate(1113.09375 0)"/>
      <use xlink:href="#DejaVuSans-65" transform="translate(1210.505859 0)"/>
      <use xlink:href="#DejaVuSans-3d" transform="translate(1272.029297 0)"/>
      <use xlink:href="#DejaVuSans-31" transform="translate(1355.818359 0)"/>
      <use xlink:href="#DejaVuSans-65" transform="translate(1419.441406 0)"/>
      <use xlink:href="#DejaVuSans-2d" transform="translate(1480.964844 0)"/>
      <use xlink:href="#DejaVuSans-30" transform="translate(1517.048828 0)"/>
      <use xlink:href="#DejaVuSans-35" transform="translate(1580.671875 0)"/>
     </g>
    </g>
    <g id="line2d_29">
     <path d="M 507.771875 99.247188 
L 517.771875 99.247188 
L 527.771875 99.247188 
" style="fill: none; stroke-dasharray: 1.85,0.8; stroke-dashoffset: 0; stroke: #8000ff; stroke-width: 0.5"/>
    </g>
    <g id="text_24">
     <!-- rho'=1e-05 -->
     <g transform="translate(535.771875 102.747188) scale(0.1 -0.1)">
      <use xlink:href="#DejaVuSans-72"/>
      <use xlink:href="#DejaVuSans-68" transform="translate(39.363281 0)"/>
      <use xlink:href="#DejaVuSans-6f" transform="translate(102.742188 0)"/>
      <use xlink:href="#DejaVuSans-27" transform="translate(163.923828 0)"/>
      <use xlink:href="#DejaVuSans-3d" transform="translate(191.414062 0)"/>
      <use xlink:href="#DejaVuSans-31" transform="translate(275.203125 0)"/>
      <use xlink:href="#DejaVuSans-65" transform="translate(338.826172 0)"/>
      <use xlink:href="#DejaVuSans-2d" transform="translate(400.349609 0)"/>
      <use xlink:href="#DejaVuSans-30" transform="translate(436.433594 0)"/>
      <use xlink:href="#DejaVuSans-35" transform="translate(500.056641 0)"/>
     </g>
    </g>
    <g id="line2d_30">
     <path d="M 507.771875 113.925313 
L 517.771875 113.925313 
L 527.771875 113.925313 
" style="fill: none; stroke-dasharray: 1.85,0.8; stroke-dashoffset: 0; stroke: #000000; stroke-width: 0.5"/>
    </g>
    <g id="text_25">
     <!-- Analytical with rho_prime=1e-05 -->
     <g transform="translate(535.771875 117.425313) scale(0.1 -0.1)">
      <use xlink:href="#DejaVuSans-41"/>
      <use xlink:href="#DejaVuSans-6e" transform="translate(68.408203 0)"/>
      <use xlink:href="#DejaVuSans-61" transform="translate(131.787109 0)"/>
      <use xlink:href="#DejaVuSans-6c" transform="translate(193.066406 0)"/>
      <use xlink:href="#DejaVuSans-79" transform="translate(220.849609 0)"/>
      <use xlink:href="#DejaVuSans-74" transform="translate(280.029297 0)"/>
      <use xlink:href="#DejaVuSans-69" transform="translate(319.238281 0)"/>
      <use xlink:href="#DejaVuSans-63" transform="translate(347.021484 0)"/>
      <use xlink:href="#DejaVuSans-61" transform="translate(402.001953 0)"/>
      <use xlink:href="#DejaVuSans-6c" transform="translate(463.28125 0)"/>
      <use xlink:href="#DejaVuSans-20" transform="translate(491.064453 0)"/>
      <use xlink:href="#DejaVuSans-77" transform="translate(522.851562 0)"/>
      <use xlink:href="#DejaVuSans-69" transform="translate(604.638672 0)"/>
      <use xlink:href="#DejaVuSans-74" transform="translate(632.421875 0)"/>
      <use xlink:href="#DejaVuSans-68" transform="translate(671.630859 0)"/>
      <use xlink:href="#DejaVuSans-20" transform="translate(735.009766 0)"/>
      <use xlink:href="#DejaVuSans-72" transform="translate(766.796875 0)"/>
      <use xlink:href="#DejaVuSans-68" transform="translate(806.160156 0)"/>
      <use xlink:href="#DejaVuSans-6f" transform="translate(869.539062 0)"/>
      <use xlink:href="#DejaVuSans-5f" transform="translate(930.720703 0)"/>
      <use xlink:href="#DejaVuSans-70" transform="translate(980.720703 0)"/>
      <use xlink:href="#DejaVuSans-72" transform="translate(1044.197266 0)"/>
      <use xlink:href="#DejaVuSans-69" transform="translate(1085.310547 0)"/>
      <use xlink:href="#DejaVuSans-6d" transform="translate(1113.09375 0)"/>
      <use xlink:href="#DejaVuSans-65" transform="translate(1210.505859 0)"/>
      <use xlink:href="#DejaVuSans-3d" transform="translate(1272.029297 0)"/>
      <use xlink:href="#DejaVuSans-31" transform="translate(1355.818359 0)"/>
      <use xlink:href="#DejaVuSans-65" transform="translate(1419.441406 0)"/>
      <use xlink:href="#DejaVuSans-2d" transform="translate(1480.964844 0)"/>
      <use xlink:href="#DejaVuSans-30" transform="translate(1517.048828 0)"/>
      <use xlink:href="#DejaVuSans-35" transform="translate(1580.671875 0)"/>
     </g>
    </g>
    <g id="line2d_31">
     <path d="M 507.771875 128.881563 
L 517.771875 128.881563 
L 527.771875 128.881563 
" style="fill: none; stroke-dasharray: 1.85,0.8; stroke-dashoffset: 0; stroke: #ff0000; stroke-width: 0.5"/>
    </g>
    <g id="text_26">
     <!-- rho'=1e-05 -->
     <g transform="translate(535.771875 132.381563) scale(0.1 -0.1)">
      <use xlink:href="#DejaVuSans-72"/>
      <use xlink:href="#DejaVuSans-68" transform="translate(39.363281 0)"/>
      <use xlink:href="#DejaVuSans-6f" transform="translate(102.742188 0)"/>
      <use xlink:href="#DejaVuSans-27" transform="translate(163.923828 0)"/>
      <use xlink:href="#DejaVuSans-3d" transform="translate(191.414062 0)"/>
      <use xlink:href="#DejaVuSans-31" transform="translate(275.203125 0)"/>
      <use xlink:href="#DejaVuSans-65" transform="translate(338.826172 0)"/>
      <use xlink:href="#DejaVuSans-2d" transform="translate(400.349609 0)"/>
      <use xlink:href="#DejaVuSans-30" transform="translate(436.433594 0)"/>
      <use xlink:href="#DejaVuSans-35" transform="translate(500.056641 0)"/>
     </g>
    </g>
    <g id="line2d_32">
     <path d="M 507.771875 143.559688 
L 517.771875 143.559688 
L 527.771875 143.559688 
" style="fill: none; stroke-dasharray: 1.85,0.8; stroke-dashoffset: 0; stroke: #000000; stroke-width: 0.5"/>
    </g>
    <g id="text_27">
     <!-- Analytical with rho_prime=1e-05 -->
     <g transform="translate(535.771875 147.059688) scale(0.1 -0.1)">
      <use xlink:href="#DejaVuSans-41"/>
      <use xlink:href="#DejaVuSans-6e" transform="translate(68.408203 0)"/>
      <use xlink:href="#DejaVuSans-61" transform="translate(131.787109 0)"/>
      <use xlink:href="#DejaVuSans-6c" transform="translate(193.066406 0)"/>
      <use xlink:href="#DejaVuSans-79" transform="translate(220.849609 0)"/>
      <use xlink:href="#DejaVuSans-74" transform="translate(280.029297 0)"/>
      <use xlink:href="#DejaVuSans-69" transform="translate(319.238281 0)"/>
      <use xlink:href="#DejaVuSans-63" transform="translate(347.021484 0)"/>
      <use xlink:href="#DejaVuSans-61" transform="translate(402.001953 0)"/>
      <use xlink:href="#DejaVuSans-6c" transform="translate(463.28125 0)"/>
      <use xlink:href="#DejaVuSans-20" transform="translate(491.064453 0)"/>
      <use xlink:href="#DejaVuSans-77" transform="translate(522.851562 0)"/>
      <use xlink:href="#DejaVuSans-69" transform="translate(604.638672 0)"/>
      <use xlink:href="#DejaVuSans-74" transform="translate(632.421875 0)"/>
      <use xlink:href="#DejaVuSans-68" transform="translate(671.630859 0)"/>
      <use xlink:href="#DejaVuSans-20" transform="translate(735.009766 0)"/>
      <use xlink:href="#DejaVuSans-72" transform="translate(766.796875 0)"/>
      <use xlink:href="#DejaVuSans-68" transform="translate(806.160156 0)"/>
      <use xlink:href="#DejaVuSans-6f" transform="translate(869.539062 0)"/>
      <use xlink:href="#DejaVuSans-5f" transform="translate(930.720703 0)"/>
      <use xlink:href="#DejaVuSans-70" transform="translate(980.720703 0)"/>
      <use xlink:href="#DejaVuSans-72" transform="translate(1044.197266 0)"/>
      <use xlink:href="#DejaVuSans-69" transform="translate(1085.310547 0)"/>
      <use xlink:href="#DejaVuSans-6d" transform="translate(1113.09375 0)"/>
      <use xlink:href="#DejaVuSans-65" transform="translate(1210.505859 0)"/>
      <use xlink:href="#DejaVuSans-3d" transform="translate(1272.029297 0)"/>
      <use xlink:href="#DejaVuSans-31" transform="translate(1355.818359 0)"/>
      <use xlink:href="#DejaVuSans-65" transform="translate(1419.441406 0)"/>
      <use xlink:href="#DejaVuSans-2d" transform="translate(1480.964844 0)"/>
      <use xlink:href="#DejaVuSans-30" transform="translate(1517.048828 0)"/>
      <use xlink:href="#DejaVuSans-35" transform="translate(1580.671875 0)"/>
     </g>
    </g>
   </g>
  </g>
 </g>
 <defs>
  <clipPath id="p974e19145b">
   <rect x="57.17" y="26.88" width="652.03" height="287.848"/>
  </clipPath>
 </defs>
</svg>
