<?xml version="1.0" encoding="utf-8" standalone="no"?>
<!DOCTYPE svg PUBLIC "-//W3C//DTD SVG 1.1//EN"
  "http://www.w3.org/Graphics/SVG/1.1/DTD/svg11.dtd">
<svg xmlns:xlink="http://www.w3.org/1999/xlink" width="460.8pt" height="345.6pt" viewBox="0 0 460.8 345.6" xmlns="http://www.w3.org/2000/svg" version="1.1">
 <metadata>
  <rdf:RDF xmlns:dc="http://purl.org/dc/elements/1.1/" xmlns:cc="http://creativecommons.org/ns#" xmlns:rdf="http://www.w3.org/1999/02/22-rdf-syntax-ns#">
   <cc:Work>
    <dc:type rdf:resource="http://purl.org/dc/dcmitype/StillImage"/>
    <dc:date>2025-03-04T10:10:35.157286</dc:date>
    <dc:format>image/svg+xml</dc:format>
    <dc:creator>
     <cc:Agent>
      <dc:title>Matplotlib v3.10.0, https://matplotlib.org/</dc:title>
     </cc:Agent>
    </dc:creator>
   </cc:Work>
  </rdf:RDF>
 </metadata>
 <defs>
  <style type="text/css">*{stroke-linejoin: round; stroke-linecap: butt}</style>
 </defs>
 <g id="figure_1">
  <g id="patch_1">
   <path d="M 0 345.6 
L 460.8 345.6 
L 460.8 0 
L 0 0 
z
" style="fill: #ffffff"/>
  </g>
  <g id="axes_1">
   <g id="patch_2">
    <path d="M 57.6 307.584 
L 414.72 307.584 
L 414.72 41.472 
L 57.6 41.472 
z
" style="fill: #ffffff"/>
   </g>
   <g id="matplotlib.axis_1">
    <g id="xtick_1">
     <g id="line2d_1">
      <defs>
       <path id="mb6ab18865f" d="M 0 0 
L 0 3.5 
" style="stroke: #000000; stroke-width: 0.8"/>
      </defs>
      <g>
       <use xlink:href="#mb6ab18865f" x="73.832727" y="307.584" style="stroke: #000000; stroke-width: 0.8"/>
      </g>
     </g>
     <g id="text_1">
      <!-- 0 -->
      <g transform="translate(70.651477 322.182437) scale(0.1 -0.1)">
       <defs>
        <path id="DejaVuSans-30" d="M 2034 4250 
Q 1547 4250 1301 3770 
Q 1056 3291 1056 2328 
Q 1056 1369 1301 889 
Q 1547 409 2034 409 
Q 2525 409 2770 889 
Q 3016 1369 3016 2328 
Q 3016 3291 2770 3770 
Q 2525 4250 2034 4250 
z
M 2034 4750 
Q 2819 4750 3233 4129 
Q 3647 3509 3647 2328 
Q 3647 1150 3233 529 
Q 2819 -91 2034 -91 
Q 1250 -91 836 529 
Q 422 1150 422 2328 
Q 422 3509 836 4129 
Q 1250 4750 2034 4750 
z
" transform="scale(0.015625)"/>
       </defs>
       <use xlink:href="#DejaVuSans-30"/>
      </g>
     </g>
    </g>
    <g id="xtick_2">
     <g id="line2d_2">
      <g>
       <use xlink:href="#mb6ab18865f" x="138.763636" y="307.584" style="stroke: #000000; stroke-width: 0.8"/>
      </g>
     </g>
     <g id="text_2">
      <!-- 200 -->
      <g transform="translate(129.219886 322.182437) scale(0.1 -0.1)">
       <defs>
        <path id="DejaVuSans-32" d="M 1228 531 
L 3431 531 
L 3431 0 
L 469 0 
L 469 531 
Q 828 903 1448 1529 
Q 2069 2156 2228 2338 
Q 2531 2678 2651 2914 
Q 2772 3150 2772 3378 
Q 2772 3750 2511 3984 
Q 2250 4219 1831 4219 
Q 1534 4219 1204 4116 
Q 875 4013 500 3803 
L 500 4441 
Q 881 4594 1212 4672 
Q 1544 4750 1819 4750 
Q 2544 4750 2975 4387 
Q 3406 4025 3406 3419 
Q 3406 3131 3298 2873 
Q 3191 2616 2906 2266 
Q 2828 2175 2409 1742 
Q 1991 1309 1228 531 
z
" transform="scale(0.015625)"/>
       </defs>
       <use xlink:href="#DejaVuSans-32"/>
       <use xlink:href="#DejaVuSans-30" transform="translate(63.623047 0)"/>
       <use xlink:href="#DejaVuSans-30" transform="translate(127.246094 0)"/>
      </g>
     </g>
    </g>
    <g id="xtick_3">
     <g id="line2d_3">
      <g>
       <use xlink:href="#mb6ab18865f" x="203.694545" y="307.584" style="stroke: #000000; stroke-width: 0.8"/>
      </g>
     </g>
     <g id="text_3">
      <!-- 400 -->
      <g transform="translate(194.150795 322.182437) scale(0.1 -0.1)">
       <defs>
        <path id="DejaVuSans-34" d="M 2419 4116 
L 825 1625 
L 2419 1625 
L 2419 4116 
z
M 2253 4666 
L 3047 4666 
L 3047 1625 
L 3713 1625 
L 3713 1100 
L 3047 1100 
L 3047 0 
L 2419 0 
L 2419 1100 
L 313 1100 
L 313 1709 
L 2253 4666 
z
" transform="scale(0.015625)"/>
       </defs>
       <use xlink:href="#DejaVuSans-34"/>
       <use xlink:href="#DejaVuSans-30" transform="translate(63.623047 0)"/>
       <use xlink:href="#DejaVuSans-30" transform="translate(127.246094 0)"/>
      </g>
     </g>
    </g>
    <g id="xtick_4">
     <g id="line2d_4">
      <g>
       <use xlink:href="#mb6ab18865f" x="268.625455" y="307.584" style="stroke: #000000; stroke-width: 0.8"/>
      </g>
     </g>
     <g id="text_4">
      <!-- 600 -->
      <g transform="translate(259.081705 322.182437) scale(0.1 -0.1)">
       <defs>
        <path id="DejaVuSans-36" d="M 2113 2584 
Q 1688 2584 1439 2293 
Q 1191 2003 1191 1497 
Q 1191 994 1439 701 
Q 1688 409 2113 409 
Q 2538 409 2786 701 
Q 3034 994 3034 1497 
Q 3034 2003 2786 2293 
Q 2538 2584 2113 2584 
z
M 3366 4563 
L 3366 3988 
Q 3128 4100 2886 4159 
Q 2644 4219 2406 4219 
Q 1781 4219 1451 3797 
Q 1122 3375 1075 2522 
Q 1259 2794 1537 2939 
Q 1816 3084 2150 3084 
Q 2853 3084 3261 2657 
Q 3669 2231 3669 1497 
Q 3669 778 3244 343 
Q 2819 -91 2113 -91 
Q 1303 -91 875 529 
Q 447 1150 447 2328 
Q 447 3434 972 4092 
Q 1497 4750 2381 4750 
Q 2619 4750 2861 4703 
Q 3103 4656 3366 4563 
z
" transform="scale(0.015625)"/>
       </defs>
       <use xlink:href="#DejaVuSans-36"/>
       <use xlink:href="#DejaVuSans-30" transform="translate(63.623047 0)"/>
       <use xlink:href="#DejaVuSans-30" transform="translate(127.246094 0)"/>
      </g>
     </g>
    </g>
    <g id="xtick_5">
     <g id="line2d_5">
      <g>
       <use xlink:href="#mb6ab18865f" x="333.556364" y="307.584" style="stroke: #000000; stroke-width: 0.8"/>
      </g>
     </g>
     <g id="text_5">
      <!-- 800 -->
      <g transform="translate(324.012614 322.182437) scale(0.1 -0.1)">
       <defs>
        <path id="DejaVuSans-38" d="M 2034 2216 
Q 1584 2216 1326 1975 
Q 1069 1734 1069 1313 
Q 1069 891 1326 650 
Q 1584 409 2034 409 
Q 2484 409 2743 651 
Q 3003 894 3003 1313 
Q 3003 1734 2745 1975 
Q 2488 2216 2034 2216 
z
M 1403 2484 
Q 997 2584 770 2862 
Q 544 3141 544 3541 
Q 544 4100 942 4425 
Q 1341 4750 2034 4750 
Q 2731 4750 3128 4425 
Q 3525 4100 3525 3541 
Q 3525 3141 3298 2862 
Q 3072 2584 2669 2484 
Q 3125 2378 3379 2068 
Q 3634 1759 3634 1313 
Q 3634 634 3220 271 
Q 2806 -91 2034 -91 
Q 1263 -91 848 271 
Q 434 634 434 1313 
Q 434 1759 690 2068 
Q 947 2378 1403 2484 
z
M 1172 3481 
Q 1172 3119 1398 2916 
Q 1625 2713 2034 2713 
Q 2441 2713 2670 2916 
Q 2900 3119 2900 3481 
Q 2900 3844 2670 4047 
Q 2441 4250 2034 4250 
Q 1625 4250 1398 4047 
Q 1172 3844 1172 3481 
z
" transform="scale(0.015625)"/>
       </defs>
       <use xlink:href="#DejaVuSans-38"/>
       <use xlink:href="#DejaVuSans-30" transform="translate(63.623047 0)"/>
       <use xlink:href="#DejaVuSans-30" transform="translate(127.246094 0)"/>
      </g>
     </g>
    </g>
    <g id="xtick_6">
     <g id="line2d_6">
      <g>
       <use xlink:href="#mb6ab18865f" x="398.487273" y="307.584" style="stroke: #000000; stroke-width: 0.8"/>
      </g>
     </g>
     <g id="text_6">
      <!-- 1000 -->
      <g transform="translate(385.762273 322.182437) scale(0.1 -0.1)">
       <defs>
        <path id="DejaVuSans-31" d="M 794 531 
L 1825 531 
L 1825 4091 
L 703 3866 
L 703 4441 
L 1819 4666 
L 2450 4666 
L 2450 531 
L 3481 531 
L 3481 0 
L 794 0 
L 794 531 
z
" transform="scale(0.015625)"/>
       </defs>
       <use xlink:href="#DejaVuSans-31"/>
       <use xlink:href="#DejaVuSans-30" transform="translate(63.623047 0)"/>
       <use xlink:href="#DejaVuSans-30" transform="translate(127.246094 0)"/>
       <use xlink:href="#DejaVuSans-30" transform="translate(190.869141 0)"/>
      </g>
     </g>
    </g>
    <g id="text_7">
     <!-- Temperature ($^{\circ}C$) -->
     <g transform="translate(192.16 335.862125) scale(0.1 -0.1)">
      <defs>
       <path id="DejaVuSans-54" d="M -19 4666 
L 3928 4666 
L 3928 4134 
L 2272 4134 
L 2272 0 
L 1638 0 
L 1638 4134 
L -19 4134 
L -19 4666 
z
" transform="scale(0.015625)"/>
       <path id="DejaVuSans-65" d="M 3597 1894 
L 3597 1613 
L 953 1613 
Q 991 1019 1311 708 
Q 1631 397 2203 397 
Q 2534 397 2845 478 
Q 3156 559 3463 722 
L 3463 178 
Q 3153 47 2828 -22 
Q 2503 -91 2169 -91 
Q 1331 -91 842 396 
Q 353 884 353 1716 
Q 353 2575 817 3079 
Q 1281 3584 2069 3584 
Q 2775 3584 3186 3129 
Q 3597 2675 3597 1894 
z
M 3022 2063 
Q 3016 2534 2758 2815 
Q 2500 3097 2075 3097 
Q 1594 3097 1305 2825 
Q 1016 2553 972 2059 
L 3022 2063 
z
" transform="scale(0.015625)"/>
       <path id="DejaVuSans-6d" d="M 3328 2828 
Q 3544 3216 3844 3400 
Q 4144 3584 4550 3584 
Q 5097 3584 5394 3201 
Q 5691 2819 5691 2113 
L 5691 0 
L 5113 0 
L 5113 2094 
Q 5113 2597 4934 2840 
Q 4756 3084 4391 3084 
Q 3944 3084 3684 2787 
Q 3425 2491 3425 1978 
L 3425 0 
L 2847 0 
L 2847 2094 
Q 2847 2600 2669 2842 
Q 2491 3084 2119 3084 
Q 1678 3084 1418 2786 
Q 1159 2488 1159 1978 
L 1159 0 
L 581 0 
L 581 3500 
L 1159 3500 
L 1159 2956 
Q 1356 3278 1631 3431 
Q 1906 3584 2284 3584 
Q 2666 3584 2933 3390 
Q 3200 3197 3328 2828 
z
" transform="scale(0.015625)"/>
       <path id="DejaVuSans-70" d="M 1159 525 
L 1159 -1331 
L 581 -1331 
L 581 3500 
L 1159 3500 
L 1159 2969 
Q 1341 3281 1617 3432 
Q 1894 3584 2278 3584 
Q 2916 3584 3314 3078 
Q 3713 2572 3713 1747 
Q 3713 922 3314 415 
Q 2916 -91 2278 -91 
Q 1894 -91 1617 61 
Q 1341 213 1159 525 
z
M 3116 1747 
Q 3116 2381 2855 2742 
Q 2594 3103 2138 3103 
Q 1681 3103 1420 2742 
Q 1159 2381 1159 1747 
Q 1159 1113 1420 752 
Q 1681 391 2138 391 
Q 2594 391 2855 752 
Q 3116 1113 3116 1747 
z
" transform="scale(0.015625)"/>
       <path id="DejaVuSans-72" d="M 2631 2963 
Q 2534 3019 2420 3045 
Q 2306 3072 2169 3072 
Q 1681 3072 1420 2755 
Q 1159 2438 1159 1844 
L 1159 0 
L 581 0 
L 581 3500 
L 1159 3500 
L 1159 2956 
Q 1341 3275 1631 3429 
Q 1922 3584 2338 3584 
Q 2397 3584 2469 3576 
Q 2541 3569 2628 3553 
L 2631 2963 
z
" transform="scale(0.015625)"/>
       <path id="DejaVuSans-61" d="M 2194 1759 
Q 1497 1759 1228 1600 
Q 959 1441 959 1056 
Q 959 750 1161 570 
Q 1363 391 1709 391 
Q 2188 391 2477 730 
Q 2766 1069 2766 1631 
L 2766 1759 
L 2194 1759 
z
M 3341 1997 
L 3341 0 
L 2766 0 
L 2766 531 
Q 2569 213 2275 61 
Q 1981 -91 1556 -91 
Q 1019 -91 701 211 
Q 384 513 384 1019 
Q 384 1609 779 1909 
Q 1175 2209 1959 2209 
L 2766 2209 
L 2766 2266 
Q 2766 2663 2505 2880 
Q 2244 3097 1772 3097 
Q 1472 3097 1187 3025 
Q 903 2953 641 2809 
L 641 3341 
Q 956 3463 1253 3523 
Q 1550 3584 1831 3584 
Q 2591 3584 2966 3190 
Q 3341 2797 3341 1997 
z
" transform="scale(0.015625)"/>
       <path id="DejaVuSans-74" d="M 1172 4494 
L 1172 3500 
L 2356 3500 
L 2356 3053 
L 1172 3053 
L 1172 1153 
Q 1172 725 1289 603 
Q 1406 481 1766 481 
L 2356 481 
L 2356 0 
L 1766 0 
Q 1100 0 847 248 
Q 594 497 594 1153 
L 594 3053 
L 172 3053 
L 172 3500 
L 594 3500 
L 594 4494 
L 1172 4494 
z
" transform="scale(0.015625)"/>
       <path id="DejaVuSans-75" d="M 544 1381 
L 544 3500 
L 1119 3500 
L 1119 1403 
Q 1119 906 1312 657 
Q 1506 409 1894 409 
Q 2359 409 2629 706 
Q 2900 1003 2900 1516 
L 2900 3500 
L 3475 3500 
L 3475 0 
L 2900 0 
L 2900 538 
Q 2691 219 2414 64 
Q 2138 -91 1772 -91 
Q 1169 -91 856 284 
Q 544 659 544 1381 
z
M 1991 3584 
L 1991 3584 
z
" transform="scale(0.015625)"/>
       <path id="DejaVuSans-20" transform="scale(0.015625)"/>
       <path id="DejaVuSans-28" d="M 1984 4856 
Q 1566 4138 1362 3434 
Q 1159 2731 1159 2009 
Q 1159 1288 1364 580 
Q 1569 -128 1984 -844 
L 1484 -844 
Q 1016 -109 783 600 
Q 550 1309 550 2009 
Q 550 2706 781 3412 
Q 1013 4119 1484 4856 
L 1984 4856 
z
" transform="scale(0.015625)"/>
       <path id="DejaVuSans-2218" d="M 2000 2619 
Q 1750 2619 1578 2445 
Q 1406 2272 1406 2022 
Q 1406 1775 1578 1605 
Q 1750 1435 2000 1435 
Q 2250 1435 2422 1605 
Q 2594 1775 2594 2022 
Q 2594 2269 2420 2444 
Q 2247 2619 2000 2619 
z
M 2000 3022 
Q 2200 3022 2384 2945 
Q 2569 2869 2703 2725 
Q 2847 2585 2919 2406 
Q 2991 2228 2991 2022 
Q 2991 1610 2702 1324 
Q 2413 1038 1994 1038 
Q 1572 1038 1290 1319 
Q 1009 1600 1009 2022 
Q 1009 2441 1296 2731 
Q 1584 3022 2000 3022 
z
" transform="scale(0.015625)"/>
       <path id="DejaVuSans-Oblique-43" d="M 4447 4306 
L 4319 3641 
Q 4019 3944 3683 4091 
Q 3347 4238 2956 4238 
Q 2422 4238 2017 3981 
Q 1613 3725 1319 3200 
Q 1131 2863 1032 2486 
Q 934 2109 934 1728 
Q 934 1091 1264 756 
Q 1594 422 2222 422 
Q 2656 422 3056 561 
Q 3456 700 3834 978 
L 3688 231 
Q 3316 72 2936 -9 
Q 2556 -91 2175 -91 
Q 1278 -91 773 396 
Q 269 884 269 1753 
Q 269 2309 461 2846 
Q 653 3384 1013 3828 
Q 1394 4300 1883 4525 
Q 2372 4750 3022 4750 
Q 3422 4750 3780 4639 
Q 4138 4528 4447 4306 
z
" transform="scale(0.015625)"/>
       <path id="DejaVuSans-29" d="M 513 4856 
L 1013 4856 
Q 1481 4119 1714 3412 
Q 1947 2706 1947 2009 
Q 1947 1309 1714 600 
Q 1481 -109 1013 -844 
L 513 -844 
Q 928 -128 1133 580 
Q 1338 1288 1338 2009 
Q 1338 2731 1133 3434 
Q 928 4138 513 4856 
z
" transform="scale(0.015625)"/>
      </defs>
      <use xlink:href="#DejaVuSans-54" transform="translate(0 0.125)"/>
      <use xlink:href="#DejaVuSans-65" transform="translate(61.083984 0.125)"/>
      <use xlink:href="#DejaVuSans-6d" transform="translate(122.607422 0.125)"/>
      <use xlink:href="#DejaVuSans-70" transform="translate(220.019531 0.125)"/>
      <use xlink:href="#DejaVuSans-65" transform="translate(283.496094 0.125)"/>
      <use xlink:href="#DejaVuSans-72" transform="translate(345.019531 0.125)"/>
      <use xlink:href="#DejaVuSans-61" transform="translate(386.132812 0.125)"/>
      <use xlink:href="#DejaVuSans-74" transform="translate(447.412109 0.125)"/>
      <use xlink:href="#DejaVuSans-75" transform="translate(486.621094 0.125)"/>
      <use xlink:href="#DejaVuSans-72" transform="translate(550 0.125)"/>
      <use xlink:href="#DejaVuSans-65" transform="translate(591.113281 0.125)"/>
      <use xlink:href="#DejaVuSans-20" transform="translate(652.636719 0.125)"/>
      <use xlink:href="#DejaVuSans-28" transform="translate(684.423828 0.125)"/>
      <use xlink:href="#DejaVuSans-2218" transform="translate(724.394531 38.40625) scale(0.7)"/>
      <use xlink:href="#DejaVuSans-Oblique-43" transform="translate(770.947266 0.125)"/>
      <use xlink:href="#DejaVuSans-29" transform="translate(840.771484 0.125)"/>
     </g>
    </g>
   </g>
   <g id="matplotlib.axis_2">
    <g id="ytick_1">
     <g id="line2d_7">
      <defs>
       <path id="m58476e277a" d="M 0 0 
L -3.5 0 
" style="stroke: #000000; stroke-width: 0.8"/>
      </defs>
      <g>
       <use xlink:href="#m58476e277a" x="57.6" y="295.488" style="stroke: #000000; stroke-width: 0.8"/>
      </g>
     </g>
     <g id="text_8">
      <!-- 0.0 -->
      <g transform="translate(34.696875 299.287219) scale(0.1 -0.1)">
       <defs>
        <path id="DejaVuSans-2e" d="M 684 794 
L 1344 794 
L 1344 0 
L 684 0 
L 684 794 
z
" transform="scale(0.015625)"/>
       </defs>
       <use xlink:href="#DejaVuSans-30"/>
       <use xlink:href="#DejaVuSans-2e" transform="translate(63.623047 0)"/>
       <use xlink:href="#DejaVuSans-30" transform="translate(95.410156 0)"/>
      </g>
     </g>
    </g>
    <g id="ytick_2">
     <g id="line2d_8">
      <g>
       <use xlink:href="#m58476e277a" x="57.6" y="260.204924" style="stroke: #000000; stroke-width: 0.8"/>
      </g>
     </g>
     <g id="text_9">
      <!-- 0.2 -->
      <g transform="translate(34.696875 264.004143) scale(0.1 -0.1)">
       <use xlink:href="#DejaVuSans-30"/>
       <use xlink:href="#DejaVuSans-2e" transform="translate(63.623047 0)"/>
       <use xlink:href="#DejaVuSans-32" transform="translate(95.410156 0)"/>
      </g>
     </g>
    </g>
    <g id="ytick_3">
     <g id="line2d_9">
      <g>
       <use xlink:href="#m58476e277a" x="57.6" y="224.921848" style="stroke: #000000; stroke-width: 0.8"/>
      </g>
     </g>
     <g id="text_10">
      <!-- 0.4 -->
      <g transform="translate(34.696875 228.721066) scale(0.1 -0.1)">
       <use xlink:href="#DejaVuSans-30"/>
       <use xlink:href="#DejaVuSans-2e" transform="translate(63.623047 0)"/>
       <use xlink:href="#DejaVuSans-34" transform="translate(95.410156 0)"/>
      </g>
     </g>
    </g>
    <g id="ytick_4">
     <g id="line2d_10">
      <g>
       <use xlink:href="#m58476e277a" x="57.6" y="189.638771" style="stroke: #000000; stroke-width: 0.8"/>
      </g>
     </g>
     <g id="text_11">
      <!-- 0.6 -->
      <g transform="translate(34.696875 193.43799) scale(0.1 -0.1)">
       <use xlink:href="#DejaVuSans-30"/>
       <use xlink:href="#DejaVuSans-2e" transform="translate(63.623047 0)"/>
       <use xlink:href="#DejaVuSans-36" transform="translate(95.410156 0)"/>
      </g>
     </g>
    </g>
    <g id="ytick_5">
     <g id="line2d_11">
      <g>
       <use xlink:href="#m58476e277a" x="57.6" y="154.355695" style="stroke: #000000; stroke-width: 0.8"/>
      </g>
     </g>
     <g id="text_12">
      <!-- 0.8 -->
      <g transform="translate(34.696875 158.154914) scale(0.1 -0.1)">
       <use xlink:href="#DejaVuSans-30"/>
       <use xlink:href="#DejaVuSans-2e" transform="translate(63.623047 0)"/>
       <use xlink:href="#DejaVuSans-38" transform="translate(95.410156 0)"/>
      </g>
     </g>
    </g>
    <g id="ytick_6">
     <g id="line2d_12">
      <g>
       <use xlink:href="#m58476e277a" x="57.6" y="119.072619" style="stroke: #000000; stroke-width: 0.8"/>
      </g>
     </g>
     <g id="text_13">
      <!-- 1.0 -->
      <g transform="translate(34.696875 122.871838) scale(0.1 -0.1)">
       <use xlink:href="#DejaVuSans-31"/>
       <use xlink:href="#DejaVuSans-2e" transform="translate(63.623047 0)"/>
       <use xlink:href="#DejaVuSans-30" transform="translate(95.410156 0)"/>
      </g>
     </g>
    </g>
    <g id="ytick_7">
     <g id="line2d_13">
      <g>
       <use xlink:href="#m58476e277a" x="57.6" y="83.789543" style="stroke: #000000; stroke-width: 0.8"/>
      </g>
     </g>
     <g id="text_14">
      <!-- 1.2 -->
      <g transform="translate(34.696875 87.588761) scale(0.1 -0.1)">
       <use xlink:href="#DejaVuSans-31"/>
       <use xlink:href="#DejaVuSans-2e" transform="translate(63.623047 0)"/>
       <use xlink:href="#DejaVuSans-32" transform="translate(95.410156 0)"/>
      </g>
     </g>
    </g>
    <g id="ytick_8">
     <g id="line2d_14">
      <g>
       <use xlink:href="#m58476e277a" x="57.6" y="48.506466" style="stroke: #000000; stroke-width: 0.8"/>
      </g>
     </g>
     <g id="text_15">
      <!-- 1.4 -->
      <g transform="translate(34.696875 52.305685) scale(0.1 -0.1)">
       <use xlink:href="#DejaVuSans-31"/>
       <use xlink:href="#DejaVuSans-2e" transform="translate(63.623047 0)"/>
       <use xlink:href="#DejaVuSans-34" transform="translate(95.410156 0)"/>
      </g>
     </g>
    </g>
    <g id="text_16">
     <!-- Intensity ($^{\circ}C^{-1}$) -->
     <g transform="translate(28.596875 213.328) rotate(-90) scale(0.1 -0.1)">
      <defs>
       <path id="DejaVuSans-49" d="M 628 4666 
L 1259 4666 
L 1259 0 
L 628 0 
L 628 4666 
z
" transform="scale(0.015625)"/>
       <path id="DejaVuSans-6e" d="M 3513 2113 
L 3513 0 
L 2938 0 
L 2938 2094 
Q 2938 2591 2744 2837 
Q 2550 3084 2163 3084 
Q 1697 3084 1428 2787 
Q 1159 2491 1159 1978 
L 1159 0 
L 581 0 
L 581 3500 
L 1159 3500 
L 1159 2956 
Q 1366 3272 1645 3428 
Q 1925 3584 2291 3584 
Q 2894 3584 3203 3211 
Q 3513 2838 3513 2113 
z
" transform="scale(0.015625)"/>
       <path id="DejaVuSans-73" d="M 2834 3397 
L 2834 2853 
Q 2591 2978 2328 3040 
Q 2066 3103 1784 3103 
Q 1356 3103 1142 2972 
Q 928 2841 928 2578 
Q 928 2378 1081 2264 
Q 1234 2150 1697 2047 
L 1894 2003 
Q 2506 1872 2764 1633 
Q 3022 1394 3022 966 
Q 3022 478 2636 193 
Q 2250 -91 1575 -91 
Q 1294 -91 989 -36 
Q 684 19 347 128 
L 347 722 
Q 666 556 975 473 
Q 1284 391 1588 391 
Q 1994 391 2212 530 
Q 2431 669 2431 922 
Q 2431 1156 2273 1281 
Q 2116 1406 1581 1522 
L 1381 1569 
Q 847 1681 609 1914 
Q 372 2147 372 2553 
Q 372 3047 722 3315 
Q 1072 3584 1716 3584 
Q 2034 3584 2315 3537 
Q 2597 3491 2834 3397 
z
" transform="scale(0.015625)"/>
       <path id="DejaVuSans-69" d="M 603 3500 
L 1178 3500 
L 1178 0 
L 603 0 
L 603 3500 
z
M 603 4863 
L 1178 4863 
L 1178 4134 
L 603 4134 
L 603 4863 
z
" transform="scale(0.015625)"/>
       <path id="DejaVuSans-79" d="M 2059 -325 
Q 1816 -950 1584 -1140 
Q 1353 -1331 966 -1331 
L 506 -1331 
L 506 -850 
L 844 -850 
Q 1081 -850 1212 -737 
Q 1344 -625 1503 -206 
L 1606 56 
L 191 3500 
L 800 3500 
L 1894 763 
L 2988 3500 
L 3597 3500 
L 2059 -325 
z
" transform="scale(0.015625)"/>
       <path id="DejaVuSans-2212" d="M 678 2272 
L 4684 2272 
L 4684 1741 
L 678 1741 
L 678 2272 
z
" transform="scale(0.015625)"/>
      </defs>
      <use xlink:href="#DejaVuSans-49" transform="translate(0 0.684375)"/>
      <use xlink:href="#DejaVuSans-6e" transform="translate(29.492188 0.684375)"/>
      <use xlink:href="#DejaVuSans-74" transform="translate(92.871094 0.684375)"/>
      <use xlink:href="#DejaVuSans-65" transform="translate(132.080078 0.684375)"/>
      <use xlink:href="#DejaVuSans-6e" transform="translate(193.603516 0.684375)"/>
      <use xlink:href="#DejaVuSans-73" transform="translate(256.982422 0.684375)"/>
      <use xlink:href="#DejaVuSans-69" transform="translate(309.082031 0.684375)"/>
      <use xlink:href="#DejaVuSans-74" transform="translate(336.865234 0.684375)"/>
      <use xlink:href="#DejaVuSans-79" transform="translate(376.074219 0.684375)"/>
      <use xlink:href="#DejaVuSans-20" transform="translate(435.253906 0.684375)"/>
      <use xlink:href="#DejaVuSans-28" transform="translate(467.041016 0.684375)"/>
      <use xlink:href="#DejaVuSans-2218" transform="translate(507.011719 38.965625) scale(0.7)"/>
      <use xlink:href="#DejaVuSans-Oblique-43" transform="translate(553.564453 0.684375)"/>
      <use xlink:href="#DejaVuSans-2212" transform="translate(630.589193 38.965625) scale(0.7)"/>
      <use xlink:href="#DejaVuSans-31" transform="translate(689.241536 38.965625) scale(0.7)"/>
      <use xlink:href="#DejaVuSans-29" transform="translate(736.512044 0.684375)"/>
     </g>
    </g>
    <g id="text_17">
     <!-- 1e7 -->
     <g transform="translate(57.6 38.472) scale(0.1 -0.1)">
      <defs>
       <path id="DejaVuSans-37" d="M 525 4666 
L 3525 4666 
L 3525 4397 
L 1831 0 
L 1172 0 
L 2766 4134 
L 525 4134 
L 525 4666 
z
" transform="scale(0.015625)"/>
      </defs>
      <use xlink:href="#DejaVuSans-31"/>
      <use xlink:href="#DejaVuSans-65" transform="translate(63.623047 0)"/>
      <use xlink:href="#DejaVuSans-37" transform="translate(125.146484 0)"/>
     </g>
    </g>
   </g>
   <g id="line2d_15">
    <path d="M 73.832727 295.488 
L 183.945675 295.379505 
L 188.65552 295.168335 
L 193.527775 294.568699 
L 195.15186 294.178116 
L 195.963902 293.953627 
L 197.425578 293.425969 
L 198.400029 292.988282 
L 201.648199 290.924311 
L 202.785058 289.909657 
L 203.759509 288.922261 
L 204.084326 288.558316 
L 206.195636 285.564811 
L 207.819721 282.705471 
L 210.093439 277.451291 
L 212.691975 269.490459 
L 213.341609 267.131962 
L 214.803285 261.682579 
L 218.53868 244.30928 
L 219.837948 237.287331 
L 220.974807 231.188034 
L 221.78685 226.429758 
L 222.761301 220.830863 
L 225.684653 203.058601 
L 226.171879 200.251127 
L 230.232091 175.471558 
L 231.36895 168.468661 
L 232.180992 163.97739 
L 233.155443 157.942308 
L 233.805077 154.412765 
L 234.617119 149.639494 
L 236.078796 141.267879 
L 236.72843 137.882997 
L 237.215655 135.409565 
L 237.540472 133.652027 
L 238.190106 130.233185 
L 238.83974 126.869208 
L 239.326965 124.317448 
L 239.489374 123.793935 
L 239.976599 121.111099 
L 241.600684 113.321301 
L 241.763092 112.790202 
L 242.250318 110.48313 
L 245.17367 97.812889 
L 245.336079 97.422129 
L 245.823304 95.309732 
L 245.985713 94.903182 
L 246.635347 92.023554 
L 246.797755 91.759901 
L 247.284981 89.722127 
L 247.447389 89.463502 
L 247.772206 88.198957 
L 248.746657 84.712636 
L 248.909065 84.441574 
L 249.233882 83.209312 
L 249.558699 82.128945 
L 250.045925 80.458556 
L 250.695559 78.608664 
L 251.507601 76.000539 
L 251.67001 75.811069 
L 252.969277 72.547913 
L 253.294094 71.243586 
L 253.456503 71.229561 
L 253.943728 69.957606 
L 254.106137 69.691484 
L 254.430954 68.849012 
L 255.080588 67.501551 
L 255.242996 66.887538 
L 255.405405 66.758843 
L 255.89263 65.555161 
L 256.055038 65.50153 
L 256.379855 64.871639 
L 256.542264 64.138633 
L 256.704672 64.27659 
L 257.191898 62.935216 
L 257.354306 63.131742 
L 257.841532 62.159517 
L 258.00394 62.038408 
L 258.328757 61.34289 
L 258.491166 60.794503 
L 258.653574 60.844429 
L 258.815983 60.341645 
L 258.978391 60.543288 
L 259.303208 59.635278 
L 259.465616 59.614549 
L 259.952842 58.605012 
L 260.11525 59.144402 
L 260.602476 58.19123 
L 260.927293 58.012874 
L 261.25211 57.324854 
L 261.414518 57.397096 
L 261.576927 57.316386 
L 261.901744 56.828244 
L 262.064152 56.547479 
L 262.388969 56.38209 
L 262.551378 55.993888 
L 262.713786 56.090652 
L 263.201011 55.405278 
L 263.36342 55.627561 
L 263.688237 55.418597 
L 263.850645 55.110841 
L 264.175462 55.062768 
L 264.337871 54.885205 
L 264.500279 54.99423 
L 264.825096 54.433141 
L 264.987505 54.391419 
L 265.149913 54.814551 
L 265.312322 54.308504 
L 265.47473 54.298271 
L 265.637139 54.502119 
L 265.961956 54.075194 
L 266.773998 53.75994 
L 266.936406 53.906188 
L 267.261223 53.759411 
L 267.423632 53.967934 
L 267.58604 53.953027 
L 267.748449 53.710103 
L 268.073266 53.67579 
L 268.235674 53.787637 
L 268.398083 53.568 
L 268.560491 53.870993 
L 268.7229 53.746003 
L 268.885308 53.827331 
L 269.047717 53.716277 
L 269.210125 54.04388 
L 269.534942 53.768408 
L 269.859759 54.094335 
L 270.022167 53.643065 
L 270.184576 53.962906 
L 270.346984 54.018565 
L 270.509393 53.899308 
L 270.671801 54.130765 
L 270.83421 54.091777 
L 270.996618 54.424938 
L 271.321435 54.242877 
L 271.483844 54.457486 
L 271.646252 54.115241 
L 271.808661 54.646604 
L 271.971069 54.229028 
L 272.133478 54.694677 
L 272.458295 54.931779 
L 272.783112 54.90417 
L 272.94552 54.921723 
L 273.270337 55.673782 
L 273.757562 55.40519 
L 273.919971 55.74523 
L 274.244788 55.741173 
L 274.569605 56.170656 
L 274.732013 56.383148 
L 274.894422 56.117379 
L 275.219239 56.6498 
L 275.381647 56.519429 
L 275.544056 56.972464 
L 275.706464 56.797813 
L 276.031281 57.517411 
L 276.19369 57.480364 
L 276.680915 58.022488 
L 276.843323 58.327334 
L 277.16814 58.097553 
L 277.330549 58.685987 
L 277.492957 58.49881 
L 277.655366 59.081863 
L 277.817774 59.050461 
L 277.980183 59.427372 
L 278.142591 59.417493 
L 278.305 59.905899 
L 278.629817 59.867088 
L 278.792225 60.500595 
L 278.954634 60.43391 
L 279.929085 61.579375 
L 280.253901 62.399883 
L 280.41631 62.215529 
L 280.578718 62.378184 
L 280.741127 62.272247 
L 281.065944 63.104486 
L 281.553169 63.931257 
L 281.715578 63.955249 
L 281.877986 64.301994 
L 282.040395 64.212728 
L 282.365212 65.018064 
L 283.014846 65.743484 
L 283.339663 66.467404 
L 283.502071 66.37708 
L 284.151705 67.810808 
L 284.314113 67.83233 
L 284.63893 68.708321 
L 284.801339 68.521497 
L 285.288564 69.585105 
L 285.450973 69.582988 
L 285.938198 70.598347 
L 286.263015 71.089135 
L 286.587832 71.717791 
L 286.750241 71.747958 
L 286.912649 71.898793 
L 287.237466 72.954727 
L 287.399874 73.053432 
L 287.562283 73.299708 
L 288.049508 74.679188 
L 288.211917 74.600595 
L 288.374325 74.832934 
L 288.536734 75.283763 
L 288.699142 75.187881 
L 288.861551 75.951584 
L 289.186368 76.141671 
L 289.511185 76.931659 
L 289.836002 77.443087 
L 289.99841 77.928406 
L 290.160819 78.042459 
L 290.972861 79.818873 
L 291.297678 80.232744 
L 291.622495 81.107411 
L 291.947312 81.746211 
L 292.272129 82.543697 
L 292.434537 82.566455 
L 292.759354 83.585254 
L 292.921763 83.503309 
L 293.24658 84.410348 
L 293.571397 84.87926 
L 294.058622 86.125018 
L 294.221031 86.295435 
L 294.708256 87.405705 
L 295.033073 87.78588 
L 295.195481 88.465079 
L 295.35789 88.606123 
L 295.845115 89.584523 
L 296.981975 92.221757 
L 297.306792 93.115477 
L 297.631609 93.556868 
L 299.418102 97.815888 
L 299.58051 97.819329 
L 299.905327 98.6633 
L 300.067736 98.77303 
L 300.71737 100.385731 
L 301.042187 100.90501 
L 301.204595 101.843187 
L 301.367004 101.921604 
L 303.803131 107.458048 
L 304.127948 108.23207 
L 304.452765 108.723828 
L 304.777582 109.714665 
L 305.102398 110.268433 
L 305.264807 111.083472 
L 305.427215 111.048806 
L 305.752032 111.90645 
L 308.025751 116.958633 
L 308.18816 117.729745 
L 308.350568 117.795812 
L 308.675385 118.640754 
L 308.837793 118.639784 
L 309.325019 120.096004 
L 313.547639 129.85892 
L 313.710048 129.987879 
L 314.197273 131.377768 
L 314.684499 132.500828 
L 314.846907 133.147479 
L 315.009316 133.184614 
L 315.496541 134.313673 
L 315.658949 134.513375 
L 316.146175 135.797503 
L 316.308583 136.010171 
L 316.470992 136.575583 
L 316.6334 136.593224 
L 316.958217 137.666624 
L 317.283034 138.465168 
L 317.445443 138.497981 
L 318.744711 141.707947 
L 318.907119 141.781777 
L 319.394344 143.270987 
L 319.556753 143.305388 
L 320.531204 145.625603 
L 320.856021 146.085871 
L 321.180838 146.939104 
L 321.343246 147.235658 
L 321.505655 147.898363 
L 321.668063 147.90639 
L 322.155289 149.254203 
L 322.317697 149.627675 
L 322.480106 149.720293 
L 323.129739 151.225116 
L 323.454556 152.126775 
L 323.941782 153.05719 
L 324.10419 153.332398 
L 324.429007 154.050761 
L 324.753824 154.581683 
L 324.916233 155.334007 
L 325.078641 155.335153 
L 325.403458 156.166246 
L 325.728275 156.710135 
L 325.890684 157.387746 
L 326.053092 157.536376 
L 326.702726 158.929617 
L 326.865134 159.050549 
L 327.35236 160.515414 
L 327.514768 160.658487 
L 328.001994 161.763642 
L 328.976445 163.754401 
L 329.138853 163.884154 
L 329.46367 164.665763 
L 329.626078 164.662234 
L 329.788487 165.565393 
L 329.950895 165.538313 
L 330.438121 166.918675 
L 330.600529 166.984919 
L 330.925346 167.597963 
L 331.57498 169.040688 
L 331.737389 169.176351 
L 331.899797 169.497868 
L 332.062206 170.070248 
L 332.224614 170.169305 
L 333.036657 171.931077 
L 333.199065 172.027047 
L 333.68629 173.177893 
L 334.011107 173.663476 
L 334.498333 174.68351 
L 334.660741 174.869893 
L 334.985558 175.843 
L 335.635192 176.839306 
L 335.960009 177.581574 
L 336.122418 177.799623 
L 336.447235 178.686287 
L 336.609643 178.80228 
L 337.096868 179.750866 
L 337.259277 179.796204 
L 338.558545 182.449315 
L 338.720953 182.684212 
L 338.883362 183.226337 
L 339.04577 183.360324 
L 339.208179 183.971427 
L 339.370587 183.955814 
L 339.695404 184.58844 
L 340.182629 185.503771 
L 340.669855 186.251331 
L 340.832263 186.762318 
L 341.15708 187.173102 
L 341.806714 188.546407 
L 342.131531 189.049985 
L 342.618757 189.796839 
L 343.268391 190.891497 
L 343.593208 191.655375 
L 343.755616 191.710417 
L 344.080433 192.388734 
L 344.730067 193.576892 
L 345.379701 194.641647 
L 345.542109 195.111 
L 345.704518 195.178302 
L 348.140645 199.31639 
L 348.303053 199.375401 
L 348.952687 200.645327 
L 349.277504 200.99507 
L 349.602321 201.647013 
L 349.76473 202.045271 
L 349.927138 201.93951 
L 350.251955 202.752344 
L 350.576772 203.282825 
L 350.901589 203.770261 
L 351.063997 203.896662 
L 351.551223 204.894556 
L 351.713631 204.885647 
L 351.87604 205.092053 
L 352.200857 205.850904 
L 352.363265 205.998652 
L 352.688082 206.507786 
L 353.175308 207.188221 
L 356.748294 212.52902 
L 356.910703 212.652422 
L 357.073111 213.09893 
L 357.23552 213.125657 
L 357.560337 213.709944 
L 357.885153 214.065069 
L 358.20997 214.623776 
L 358.697196 215.374776 
L 359.184421 215.91399 
L 359.509238 216.622739 
L 359.671647 216.659257 
L 359.834055 217.048782 
L 359.996464 217.077273 
L 360.483689 217.868761 
L 365.518352 224.403098 
L 365.68076 224.475164 
L 365.843169 224.893092 
L 366.005577 224.988356 
L 366.492803 225.638182 
L 367.792071 227.254853 
L 367.954479 227.267114 
L 368.116888 227.834554 
L 368.279296 227.732233 
L 368.441704 228.22205 
L 368.604113 228.215082 
L 369.253747 228.832888 
L 369.578564 229.38745 
L 371.202649 231.174097 
L 371.527466 231.600934 
L 371.689874 231.678645 
L 373.313959 233.760787 
L 373.638776 233.850759 
L 373.963593 234.34975 
L 374.126001 234.434165 
L 374.450818 234.892845 
L 374.613227 234.966851 
L 375.262861 235.826082 
L 375.425269 235.746872 
L 375.750086 236.339275 
L 375.912494 236.322603 
L 376.074903 236.49699 
L 376.39972 237.046877 
L 376.724537 237.299592 
L 377.374171 237.891024 
L 377.698988 238.37008 
L 379.160664 239.625805 
L 379.323072 240.078928 
L 379.647889 240.21318 
L 379.810298 240.473216 
L 379.972706 240.469511 
L 380.135115 240.615583 
L 380.459932 241.03704 
L 381.109566 241.665167 
L 381.271974 241.768017 
L 381.596791 242.154719 
L 381.921608 242.47262 
L 382.246425 242.93818 
L 382.571242 242.976374 
L 383.058467 243.620114 
L 383.220876 243.605824 
L 383.383284 243.926812 
L 383.545693 243.974444 
L 383.87051 244.357971 
L 384.032918 244.37182 
L 384.520144 244.847788 
L 384.682552 245.175304 
L 384.844961 245.172481 
L 385.98182 246.309566 
L 386.144228 246.296864 
L 386.631454 246.83599 
L 386.793862 246.890943 
L 387.118679 247.191379 
L 387.605905 247.444887 
L 387.930722 247.973252 
L 388.09313 248.008799 
L 389.554806 249.243178 
L 390.20444 249.775952 
L 390.529257 250.232162 
L 391.178891 250.517867 
L 391.503708 251.000275 
L 391.666117 250.948232 
L 391.828525 251.264192 
L 391.990934 251.172368 
L 392.315751 251.553161 
L 392.478159 251.621257 
L 392.802976 251.990142 
L 392.965385 252.0099 
L 393.615018 252.582985 
L 393.939835 252.756225 
L 394.102244 252.920203 
L 394.264652 252.905208 
L 394.589469 253.292263 
L 395.076695 253.629217 
L 395.56392 254.031885 
L 395.726329 254.048292 
L 396.051146 254.384363 
L 396.538371 254.755453 
L 396.700779 254.760569 
L 397.025596 255.137304 
L 397.188005 255.065944 
L 397.837639 255.710036 
L 398.487273 256.104236 
L 398.487273 256.104236 
" clip-path="url(#pcf121a5154)" style="fill: none; stroke-dasharray: 1.85,0.8; stroke-dashoffset: 0; stroke: #8000ff; stroke-width: 0.5"/>
   </g>
   <g id="line2d_16">
    <path d="M 73.832727 295.488 
L 188.330704 295.377564 
L 197.100761 294.744056 
L 201.48579 293.791325 
L 204.246734 292.751268 
L 206.033228 291.734145 
L 206.358044 291.572372 
L 208.306946 290.15461 
L 209.118989 289.417635 
L 209.931031 288.674397 
L 212.854384 285.233944 
L 215.290511 281.613636 
L 215.940145 280.498955 
L 217.564229 277.457907 
L 219.513131 273.626253 
L 222.598892 266.602716 
L 227.14633 255.543236 
L 227.795963 253.883343 
L 228.12078 253.10888 
L 235.104345 235.354877 
L 235.266753 235.171758 
L 235.59157 234.216909 
L 239.326965 225.086531 
L 239.489374 224.800033 
L 239.814191 223.852329 
L 240.139008 223.111649 
L 240.626233 222.00429 
L 241.438276 220.060898 
L 243.387177 215.850657 
L 243.549586 215.102479 
L 244.036811 214.47347 
L 244.361628 213.537057 
L 244.686445 212.993963 
L 245.660896 210.787359 
L 246.472938 209.257397 
L 246.797755 208.492548 
L 247.447389 207.094897 
L 247.609798 206.949354 
L 249.071474 203.913598 
L 249.233882 203.968728 
L 249.558699 202.884744 
L 249.721108 202.78895 
L 250.045925 202.123511 
L 250.208333 201.976116 
L 250.857967 200.482584 
L 251.182784 200.189205 
L 251.507601 199.43353 
L 252.64446 197.51563 
L 252.969277 196.830785 
L 253.294094 196.191985 
L 253.618911 195.85759 
L 254.106137 194.819474 
L 254.268545 194.731266 
L 254.593362 194.104727 
L 254.755771 193.749779 
L 254.918179 193.690327 
L 255.080588 193.199363 
L 255.242996 193.144586 
L 255.405405 192.596375 
L 255.730221 192.44898 
L 258.328757 188.380665 
L 258.491166 188.223214 
L 259.140799 187.104123 
L 259.465616 186.87443 
L 259.790433 186.345361 
L 259.952842 186.111699 
L 260.11525 185.665809 
L 260.277659 185.647197 
L 260.602476 185.243294 
L 261.25211 184.245136 
L 261.414518 184.266129 
L 261.739335 183.582431 
L 261.901744 183.605453 
L 262.226561 183.006435 
L 262.388969 183.01949 
L 262.551378 182.609324 
L 262.713786 182.511149 
L 263.201011 181.924921 
L 264.013054 181.070541 
L 264.337871 180.560612 
L 264.500279 180.657464 
L 265.149913 179.723433 
L 265.47473 179.440463 
L 266.286772 178.554593 
L 266.449181 178.548859 
L 267.098815 177.714326 
L 267.261223 177.707182 
L 267.423632 177.276199 
L 267.58604 177.31845 
L 267.748449 177.001432 
L 267.910857 176.981497 
L 268.235674 176.550779 
L 268.398083 176.746953 
L 268.560491 176.296035 
L 268.7229 176.2387 
L 269.047717 176.029648 
L 269.210125 175.985279 
L 269.372534 175.669055 
L 269.859759 175.472352 
L 270.022167 175.056982 
L 270.184576 175.039516 
L 270.346984 174.779304 
L 270.671801 174.595744 
L 273.107929 172.633652 
L 273.270337 172.48608 
L 273.595154 172.465351 
L 273.757562 172.343713 
L 273.919971 172.000497 
L 274.082379 171.967066 
L 274.244788 172.054656 
L 274.407196 171.762071 
L 274.732013 171.74002 
L 274.894422 171.36646 
L 275.05683 171.50768 
L 275.544056 171.292718 
L 275.706464 170.953031 
L 275.868873 170.871968 
L 276.031281 170.990078 
L 276.19369 170.935036 
L 276.518507 170.522401 
L 276.680915 170.71143 
L 277.005732 170.228581 
L 277.330549 170.28177 
L 277.817774 169.832175 
L 278.142591 169.817268 
L 278.629817 169.490194 
L 278.792225 169.606275 
L 279.279451 169.306017 
L 279.441859 169.097582 
L 279.604268 169.223013 
L 279.766676 168.899555 
L 280.091493 169.015284 
L 280.253901 168.955656 
L 280.41631 168.733549 
L 280.741127 168.784885 
L 281.228352 168.464956 
L 281.553169 168.466015 
L 281.715578 168.383364 
L 281.877986 168.162139 
L 282.040395 168.256698 
L 282.365212 168.082311 
L 282.852437 168.11239 
L 283.014846 167.77923 
L 283.177254 167.740418 
L 283.502071 167.860292 
L 283.66448 167.742359 
L 283.826888 167.78214 
L 283.989296 167.555623 
L 284.151705 167.705841 
L 284.314113 167.534277 
L 284.63893 167.652828 
L 284.801339 167.390057 
L 285.126156 167.439365 
L 285.450973 167.107087 
L 285.613381 167.481881 
L 285.77579 167.256158 
L 285.938198 167.403465 
L 286.263015 167.199088 
L 286.425424 167.100736 
L 286.587832 167.13399 
L 286.750241 167.019497 
L 287.075058 167.127904 
L 287.399874 167.110174 
L 287.724691 167.004766 
L 287.8871 166.994093 
L 288.049508 166.782483 
L 288.211917 166.976363 
L 288.374325 166.732293 
L 288.536734 166.831438 
L 288.699142 166.798272 
L 288.861551 166.92044 
L 289.186368 166.698597 
L 289.348776 166.832937 
L 289.511185 166.733439 
L 289.836002 166.86134 
L 290.160819 166.58675 
L 290.485636 166.818824 
L 290.810452 166.610125 
L 290.972861 166.792803 
L 291.297678 166.734145 
L 291.622495 166.803211 
L 291.784903 166.67187 
L 292.10972 166.789363 
L 292.272129 166.558788 
L 292.434537 166.752139 
L 292.921763 166.568755 
L 293.408988 166.769428 
L 293.733805 166.750552 
L 294.221031 166.908179 
L 294.383439 166.5946 
L 294.708256 166.836554 
L 294.870664 166.742701 
L 295.033073 166.909855 
L 295.195481 166.746053 
L 295.520298 167.031581 
L 295.845115 166.91303 
L 296.332341 167.00803 
L 296.494749 167.106293 
L 296.657158 166.945049 
L 296.819566 167.097737 
L 296.981975 166.942139 
L 297.144383 167.094738 
L 297.306792 166.997092 
L 297.631609 167.123141 
L 297.794017 166.978392 
L 297.956425 167.301938 
L 298.443651 167.160717 
L 298.768468 167.222286 
L 298.930876 167.421106 
L 299.255693 167.281033 
L 299.418102 167.496348 
L 299.58051 167.422429 
L 299.905327 167.612429 
L 300.067736 167.501375 
L 300.230144 167.556241 
L 300.392553 167.868937 
L 300.554961 167.880051 
L 300.71737 167.768468 
L 300.879778 167.889489 
L 301.042187 167.846267 
L 301.204595 167.957056 
L 301.367004 167.672234 
L 302.341454 168.150584 
L 302.82868 168.232 
L 302.991088 168.087515 
L 303.153497 168.349139 
L 303.315905 168.28316 
L 304.452765 168.698001 
L 304.777582 168.691032 
L 304.93999 169.010521 
L 305.102398 168.834899 
L 305.264807 169.156063 
L 305.427215 169.218867 
L 305.589624 169.050655 
L 305.752032 169.20493 
L 305.914441 169.043334 
L 306.076849 169.401104 
L 306.401666 169.449707 
L 306.564075 169.219132 
L 306.726483 169.498486 
L 307.0513 169.529535 
L 307.213709 169.717682 
L 307.538526 169.599395 
L 307.700934 169.983981 
L 308.18816 169.87134 
L 308.512976 170.216055 
L 308.675385 170.105796 
L 308.837793 170.247016 
L 309.000202 170.149017 
L 309.16261 170.576913 
L 309.325019 170.454833 
L 309.649836 170.55936 
L 309.812244 170.823277 
L 309.974653 170.729865 
L 310.137061 170.924892 
L 310.29947 170.89499 
L 310.461878 170.741685 
L 310.786695 170.981786 
L 311.761146 171.574983 
L 311.923555 171.400243 
L 312.573188 171.801324 
L 312.735597 171.795855 
L 313.060414 172.132367 
L 313.222822 171.920492 
L 313.385231 172.202581 
L 313.547639 172.119489 
L 313.710048 172.349182 
L 314.034865 172.447181 
L 315.009316 172.915034 
L 315.171724 172.8921 
L 315.496541 173.194212 
L 315.821358 173.361453 
L 315.983766 173.278097 
L 316.146175 173.474183 
L 316.308583 173.481769 
L 316.470992 173.711638 
L 316.958217 173.751243 
L 317.283034 174.170318 
L 317.445443 174.102221 
L 318.095077 174.514504 
L 318.257485 174.476399 
L 318.419894 174.612591 
L 318.582302 174.511329 
L 318.744711 174.935167 
L 319.231936 174.911527 
L 319.394344 175.124813 
L 319.556753 175.054688 
L 319.719161 175.329367 
L 319.88157 175.262594 
L 320.206387 175.55756 
L 320.531204 175.501901 
L 320.693612 175.819625 
L 320.856021 175.768288 
L 321.830472 176.304856 
L 322.155289 176.596206 
L 322.317697 176.42623 
L 322.480106 176.765212 
L 322.967331 177.014222 
L 323.129739 177.144769 
L 323.292148 177.00055 
L 323.616965 177.472196 
L 323.779373 177.411774 
L 324.429007 177.821587 
L 324.591416 178.154218 
L 324.753824 177.969423 
L 324.916233 178.262537 
L 325.078641 178.17036 
L 325.728275 178.501051 
L 325.890684 178.767085 
L 326.053092 178.59067 
L 326.2155 178.834123 
L 326.377909 178.87611 
L 326.540317 179.12909 
L 326.702726 179.088867 
L 326.865134 179.312209 
L 327.027543 179.158286 
L 327.189951 179.514116 
L 327.514768 179.706056 
L 327.677177 179.534404 
L 327.839585 179.870563 
L 328.001994 179.808201 
L 328.164402 180.058446 
L 328.326811 180.063385 
L 328.651628 180.303751 
L 328.976445 180.518714 
L 329.138853 180.733146 
L 329.626078 180.781131 
L 329.788487 181.024585 
L 330.113304 181.026084 
L 330.600529 181.531867 
L 330.925346 181.655181 
L 331.250163 181.881434 
L 331.899797 182.380601 
L 332.224614 182.550401 
L 332.387023 182.527732 
L 333.199065 183.12137 
L 333.68629 183.304136 
L 333.848699 183.542385 
L 334.173516 183.673726 
L 334.498333 184.001947 
L 334.660741 183.920796 
L 334.985558 184.341547 
L 335.147967 184.219467 
L 335.472784 184.557126 
L 335.635192 184.782938 
L 335.960009 184.650979 
L 336.284826 185.084961 
L 336.609643 185.112835 
L 336.772051 185.371989 
L 337.096868 185.443614 
L 337.908911 186.068918 
L 338.071319 186.052247 
L 338.233728 186.323221 
L 338.396136 186.232984 
L 338.720953 186.620657 
L 339.370587 187.15696 
L 339.532996 187.025001 
L 339.695404 187.138524 
L 340.020221 187.48324 
L 340.507446 187.735779 
L 340.669855 188.029687 
L 340.832263 188.012398 
L 341.15708 188.266701 
L 341.319489 188.276051 
L 341.806714 188.704564 
L 341.969123 188.668751 
L 342.29394 188.889182 
L 342.456348 188.964247 
L 342.781165 189.232046 
L 343.268391 189.666557 
L 343.430799 189.586641 
L 343.593208 189.934884 
L 343.755616 189.839267 
L 344.080433 190.18857 
L 344.40525 190.21071 
L 344.567658 190.261253 
L 345.217292 190.853127 
L 346.191743 191.71915 
L 346.354152 191.681309 
L 346.678969 191.917176 
L 346.841377 191.868838 
L 347.166194 192.227667 
L 347.491011 192.392439 
L 347.978236 192.80481 
L 348.140645 192.870966 
L 348.303053 192.800929 
L 349.76473 193.965535 
L 349.927138 193.935544 
L 350.089547 194.253445 
L 350.414364 194.342005 
L 350.576772 194.183143 
L 351.063997 194.748643 
L 351.388814 194.998712 
L 351.551223 195.022616 
L 351.713631 195.318729 
L 352.038448 195.407554 
L 352.200857 195.686026 
L 352.363265 195.568092 
L 352.688082 195.943504 
L 352.850491 195.853973 
L 353.500125 196.473368 
L 353.662533 196.403507 
L 353.824942 196.471692 
L 353.98735 196.951806 
L 354.636984 197.008788 
L 354.799392 197.276234 
L 354.961801 197.324925 
L 355.124209 197.521981 
L 355.286618 197.432979 
L 355.611435 197.734738 
L 356.09866 197.993539 
L 356.423477 198.346193 
L 357.23552 199.058294 
L 357.397928 198.895286 
L 357.722745 199.427796 
L 358.047562 199.36658 
L 358.20997 199.615502 
L 358.372379 199.565665 
L 358.697196 199.84396 
L 359.022013 200.118903 
L 359.184421 200.113435 
L 359.34683 200.338364 
L 359.509238 200.300258 
L 359.671647 200.405314 
L 359.996464 200.835414 
L 360.158872 200.720127 
L 361.133323 201.514878 
L 361.295732 201.47986 
L 361.45814 201.861005 
L 361.782957 201.693499 
L 362.270182 202.285372 
L 362.757408 202.544438 
L 362.919816 202.834201 
L 363.082225 202.805533 
L 363.56945 203.143104 
L 363.731859 203.215611 
L 364.056676 203.453242 
L 364.219084 203.355067 
L 364.543901 203.650651 
L 366.167986 204.839955 
L 366.330394 204.829547 
L 366.492803 205.000405 
L 366.655211 204.998994 
L 366.980028 205.416304 
L 367.142437 205.573226 
L 367.304845 205.442326 
L 367.467254 205.685955 
L 367.629662 205.626062 
L 367.954479 205.779985 
L 368.279296 206.383943 
L 368.604113 206.408553 
L 369.253747 206.604903 
L 369.903381 207.290453 
L 370.065789 207.281985 
L 370.877832 207.794296 
L 371.04024 207.820052 
L 371.527466 208.279967 
L 371.689874 208.239303 
L 372.177099 208.702482 
L 373.15155 209.281036 
L 373.801184 209.54416 
L 373.963593 209.951768 
L 374.28841 209.971261 
L 374.450818 210.024627 
L 374.613227 210.316153 
L 374.775635 210.197691 
L 374.938044 210.466812 
L 375.262861 210.422885 
L 375.425269 210.757721 
L 375.587677 210.709119 
L 375.750086 210.998264 
L 375.912494 210.993941 
L 376.237311 211.213579 
L 376.724537 211.58608 
L 376.886945 211.541447 
L 377.374171 212.014416 
L 377.536579 211.984867 
L 377.861396 212.411174 
L 378.023805 212.277451 
L 378.186213 212.289271 
L 378.51103 212.725723 
L 378.835847 212.831484 
L 379.160664 212.997667 
L 379.323072 213.287871 
L 379.485481 213.133154 
L 379.647889 213.432355 
L 380.135115 213.612651 
L 380.459932 213.844373 
L 380.62234 213.916968 
L 380.784749 214.192881 
L 381.271974 214.210876 
L 381.7592 214.678465 
L 382.084017 214.743915 
L 382.571242 215.365956 
L 382.73365 215.168018 
L 383.058467 215.404855 
L 383.220876 215.455222 
L 383.383284 215.814668 
L 383.545693 215.716493 
L 384.520144 216.384843 
L 385.169778 216.648584 
L 385.332186 216.881011 
L 385.494595 216.902975 
L 385.657003 217.195118 
L 385.819412 217.098619 
L 386.144228 217.301056 
L 386.306637 217.272036 
L 386.469045 217.575823 
L 386.793862 217.60846 
L 387.281088 217.950529 
L 387.768313 218.347464 
L 387.930722 218.240909 
L 388.255539 218.519116 
L 388.417947 218.458782 
L 388.905173 219.022076 
L 389.067581 219.205989 
L 389.22999 218.977796 
L 389.554806 219.358677 
L 389.879623 219.456058 
L 390.042032 219.765932 
L 390.20444 219.791071 
L 390.366849 219.669432 
L 390.854074 220.172481 
L 391.016483 220.179978 
L 391.178891 220.326932 
L 391.3413 220.218172 
L 391.503708 220.564652 
L 391.666117 220.427313 
L 391.828525 220.553979 
L 391.990934 220.827776 
L 392.153342 220.813663 
L 392.640568 221.093987 
L 392.802976 221.373693 
L 392.965385 221.230091 
L 394.914286 222.371851 
L 395.076695 222.421424 
L 395.401512 222.7253 
L 395.726329 222.90736 
L 396.051146 223.06781 
L 396.375963 223.289476 
L 396.538371 223.381036 
L 396.700779 223.309764 
L 397.025596 223.605789 
L 397.188005 223.811489 
L 397.350413 223.758829 
L 397.512822 223.964882 
L 397.67523 223.813694 
L 398.000047 224.312332 
L 398.162456 224.239737 
L 398.487273 224.307128 
L 398.487273 224.307128 
" clip-path="url(#pcf121a5154)" style="fill: none; stroke-dasharray: 1.85,0.8; stroke-dashoffset: 0; stroke: #80ffb4; stroke-width: 0.5"/>
   </g>
   <g id="line2d_17">
    <path d="M 73.832727 295.488 
L 200.998565 295.377123 
L 205.546002 295.113823 
L 207.819721 294.797422 
L 209.768622 294.39246 
L 212.20475 293.532259 
L 215.452919 291.407336 
L 217.239412 289.564854 
L 219.67554 285.838696 
L 220.812399 283.621243 
L 221.949258 280.918206 
L 223.086118 277.93467 
L 223.573343 276.461248 
L 224.547794 273.386505 
L 227.633555 261.66679 
L 229.420048 254.033649 
L 230.232091 249.995589 
L 230.719316 247.728034 
L 232.343401 239.856909 
L 232.993035 236.521953 
L 234.129894 230.836791 
L 236.566021 217.677262 
L 236.890838 216.127541 
L 239.002148 205.087819 
L 239.489374 202.404188 
L 241.438276 191.800213 
L 242.087909 188.223214 
L 244.848854 173.981289 
L 246.635347 164.91001 
L 246.797755 164.521279 
L 247.609798 160.164524 
L 248.42184 156.229226 
L 249.071474 153.299761 
L 249.883516 149.434941 
L 250.857967 144.757993 
L 251.020376 144.549646 
L 251.507601 142.035727 
L 255.405405 125.537184 
L 255.567813 125.417751 
L 256.055038 123.245284 
L 257.191898 118.941719 
L 257.354306 118.593739 
L 258.653574 113.840227 
L 259.140799 112.253018 
L 260.277659 108.323453 
L 261.089701 105.914501 
L 261.576927 104.330291 
L 262.064152 103.200086 
L 262.388969 102.032481 
L 262.551378 101.847862 
L 262.876194 100.45912 
L 263.201011 99.930139 
L 263.525828 98.929422 
L 263.850645 98.116059 
L 264.013054 97.756701 
L 264.500279 96.175137 
L 266.124364 92.526955 
L 266.449181 91.479665 
L 266.773998 90.857537 
L 266.936406 90.802142 
L 267.261223 89.965669 
L 267.423632 89.392407 
L 267.58604 89.33957 
L 267.910857 88.565548 
L 268.235674 87.833424 
L 270.184576 84.226082 
L 270.346984 84.195563 
L 270.671801 83.268147 
L 270.83421 83.30934 
L 270.996618 82.739342 
L 271.159027 82.71632 
L 271.646252 81.575706 
L 271.808661 81.868379 
L 272.620703 80.49719 
L 273.270337 79.431906 
L 273.595154 79.450959 
L 273.919971 78.752178 
L 274.082379 78.783139 
L 274.569605 78.03549 
L 274.732013 78.187031 
L 275.381647 77.131538 
L 275.544056 76.941362 
L 275.706464 77.052857 
L 275.868873 76.715727 
L 276.031281 76.794584 
L 276.19369 76.614994 
L 276.356098 76.076397 
L 276.518507 76.227321 
L 276.843323 75.966402 
L 277.005732 75.622657 
L 277.16814 75.711659 
L 277.330549 75.599106 
L 277.655366 75.233838 
L 278.142591 74.852516 
L 278.305 75.122696 
L 278.467408 74.988179 
L 278.792225 74.425855 
L 279.279451 74.240002 
L 279.441859 74.020717 
L 279.604268 74.24944 
L 279.766676 73.97582 
L 279.929085 74.136181 
L 280.091493 73.868383 
L 280.253901 73.959589 
L 280.41631 74.192193 
L 280.578718 73.694878 
L 280.741127 73.853299 
L 280.903535 73.623342 
L 281.065944 73.654302 
L 281.553169 73.325641 
L 281.715578 73.448338 
L 281.877986 73.323876 
L 282.040395 73.437047 
L 282.202803 73.263101 
L 283.339663 73.155047 
L 283.502071 73.334638 
L 283.66448 73.252957 
L 284.151705 73.404675 
L 284.314113 73.201709 
L 284.476522 73.570152 
L 284.63893 73.075748 
L 284.801339 73.472595 
L 285.126156 73.198181 
L 285.288564 73.356602 
L 285.450973 73.072837 
L 285.613381 73.553834 
L 285.77579 73.328904 
L 285.938198 73.400794 
L 286.100607 73.34046 
L 286.263015 73.812194 
L 286.425424 73.595644 
L 286.912649 73.679706 
L 287.075058 73.889641 
L 287.237466 73.710314 
L 287.562283 74.085638 
L 287.724691 74.007398 
L 287.8871 74.259407 
L 288.049508 74.067467 
L 288.211917 74.125773 
L 288.374325 74.474369 
L 288.536734 74.499861 
L 288.699142 74.713412 
L 288.861551 74.736258 
L 289.023959 74.502155 
L 289.348776 74.750548 
L 289.673593 74.899883 
L 289.99841 75.489111 
L 290.323227 75.236748 
L 290.485636 75.673465 
L 290.648044 75.520336 
L 290.810452 75.701603 
L 291.135269 75.576701 
L 291.460086 76.229526 
L 291.622495 76.002303 
L 291.947312 76.586591 
L 292.10972 76.513114 
L 292.272129 76.597705 
L 292.434537 77.003372 
L 292.759354 77.196635 
L 292.921763 77.482693 
L 293.084171 76.938275 
L 293.24658 77.580427 
L 293.733805 77.92576 
L 293.896214 78.399523 
L 294.383439 78.521779 
L 294.545847 78.766203 
L 294.708256 78.733125 
L 295.033073 79.270663 
L 295.35789 79.447431 
L 295.520298 79.257784 
L 295.845115 80.004286 
L 296.169932 80.486165 
L 296.332341 80.355882 
L 296.657158 80.985685 
L 296.819566 81.116673 
L 296.981975 81.445688 
L 297.144383 81.510168 
L 298.118834 82.577922 
L 298.281242 83.007229 
L 298.443651 82.811496 
L 298.930876 83.634473 
L 299.093285 83.892481 
L 299.418102 84.053195 
L 299.742919 84.533133 
L 299.905327 84.651596 
L 300.230144 85.256877 
L 300.392553 85.336353 
L 300.554961 85.273196 
L 300.71737 85.961745 
L 300.879778 85.891267 
L 301.042187 86.443447 
L 301.204595 86.410722 
L 301.529412 86.855113 
L 302.666271 88.436059 
L 302.82868 88.848606 
L 302.991088 88.844637 
L 303.315905 89.370796 
L 303.478314 89.748766 
L 303.640722 89.659059 
L 303.965539 90.414028 
L 306.239258 93.793794 
L 306.401666 94.267734 
L 306.564075 94.310074 
L 307.538526 96.088517 
L 307.700934 96.4836 
L 307.863343 96.574983 
L 308.512976 97.648382 
L 308.675385 97.781311 
L 309.16261 98.719312 
L 309.325019 98.796405 
L 309.812244 99.933667 
L 309.974653 100.020199 
L 310.137061 100.255801 
L 310.29947 100.888692 
L 310.461878 100.940028 
L 310.624287 101.160812 
L 310.949104 101.965619 
L 311.273921 102.103929 
L 311.436329 102.807915 
L 311.598738 102.802446 
L 312.085963 103.867289 
L 312.248371 103.74274 
L 312.41078 104.332937 
L 312.573188 104.49374 
L 313.710048 106.799489 
L 313.872456 106.878435 
L 314.197273 107.552518 
L 314.684499 108.425774 
L 315.496541 109.606787 
L 315.658949 110.294895 
L 315.821358 110.292955 
L 316.146175 111.290142 
L 316.6334 111.906626 
L 317.932668 114.464737 
L 318.095077 114.566264 
L 318.419894 115.293272 
L 318.582302 115.502148 
L 318.907119 116.256059 
L 319.069527 116.381755 
L 319.231936 117.051516 
L 319.394344 117.122082 
L 319.719161 117.881286 
L 320.693612 119.692983 
L 320.856021 120.25813 
L 321.018429 120.164189 
L 321.343246 120.923481 
L 321.505655 121.08199 
L 321.668063 121.788886 
L 321.830472 121.831755 
L 322.155289 122.704129 
L 322.317697 122.665406 
L 322.642514 123.605788 
L 323.779373 125.500225 
L 324.10419 126.313853 
L 324.429007 126.623991 
L 324.591416 127.192401 
L 324.753824 127.220716 
L 325.24105 128.468767 
L 326.053092 129.904347 
L 326.865134 131.561416 
L 327.514768 132.721789 
L 328.164402 134.093859 
L 328.326811 134.479415 
L 328.489219 134.555627 
L 329.138853 136.138778 
L 329.301262 136.264386 
L 330.438121 138.54332 
L 330.600529 138.681718 
L 330.925346 139.545271 
L 331.250163 140.043115 
L 331.412572 140.613995 
L 331.57498 140.614877 
L 331.737389 141.064207 
L 331.899797 141.105312 
L 332.387023 142.273799 
L 332.549431 142.465475 
L 333.361473 144.329656 
L 333.68629 144.582371 
L 334.335924 146.259199 
L 335.147967 147.515982 
L 336.122418 149.501449 
L 336.284826 149.61709 
L 336.772051 150.794839 
L 336.93446 150.891338 
L 338.233728 153.299849 
L 338.396136 153.889076 
L 338.558545 153.975696 
L 338.720953 154.262283 
L 339.04577 154.98391 
L 339.695404 156.247133 
L 340.020221 156.875171 
L 340.182629 157.011276 
L 340.669855 157.861951 
L 340.994672 158.45109 
L 341.319489 159.150048 
L 343.593208 163.258144 
L 343.755616 163.977302 
L 343.918024 163.75493 
L 345.217292 166.361556 
L 345.542109 166.684925 
L 345.866926 167.374268 
L 346.029335 167.631217 
L 346.191743 168.204479 
L 346.354152 168.19116 
L 346.51656 168.717054 
L 346.678969 168.814082 
L 346.841377 169.100316 
L 347.003786 169.643411 
L 347.166194 169.685486 
L 347.978236 171.327384 
L 348.790279 172.521099 
L 349.115096 173.115001 
L 349.439913 173.75486 
L 349.76473 174.33509 
L 350.089547 174.799944 
L 353.175308 180.099374 
L 353.662533 180.870486 
L 353.824942 181.316111 
L 353.98735 181.334811 
L 354.636984 182.555341 
L 354.799392 182.692327 
L 355.124209 183.33889 
L 355.449026 184.036701 
L 355.611435 184.022058 
L 356.585886 185.865423 
L 356.748294 185.930608 
L 357.397928 187.283361 
L 357.560337 187.222233 
L 358.047562 188.332415 
L 358.20997 188.206278 
L 359.184421 190.043204 
L 359.509238 190.156991 
L 359.671647 190.858243 
L 360.321281 191.678486 
L 361.45814 193.40277 
L 361.782957 193.793265 
L 362.107774 194.457381 
L 362.270182 194.557761 
L 362.432591 195.074394 
L 362.594999 194.960341 
L 362.919816 195.679675 
L 363.244633 196.242175 
L 363.894267 197.107581 
L 365.355943 199.160968 
L 365.518352 199.635261 
L 365.68076 199.741198 
L 367.954479 203.051633 
L 368.279296 203.344041 
L 369.416155 205.167471 
L 369.578564 205.287168 
L 370.553015 206.7261 
L 370.715423 206.811574 
L 371.04024 207.382366 
L 371.365057 207.799147 
L 371.689874 208.237539 
L 372.014691 208.719506 
L 372.339508 209.039965 
L 372.501916 209.358042 
L 372.664325 209.329374 
L 372.989142 209.912692 
L 373.15155 210.026656 
L 373.476367 210.664662 
L 373.963593 211.195055 
L 374.28841 211.667672 
L 374.938044 212.495236 
L 375.262861 212.992463 
L 375.425269 213.106075 
L 375.587677 213.445233 
L 375.750086 213.496305 
L 376.074903 213.95084 
L 376.886945 215.094099 
L 377.049354 215.197391 
L 377.211762 215.598295 
L 377.374171 215.665685 
L 378.186213 216.711476 
L 378.51103 216.92388 
L 378.835847 217.586231 
L 378.998255 217.625219 
L 379.485481 218.394655 
L 380.135115 219.06715 
L 380.297523 219.064151 
L 380.947157 220.003387 
L 381.271974 220.187476 
L 381.7592 220.91122 
L 382.084017 221.307978 
L 382.246425 221.715498 
L 382.408834 221.567133 
L 382.571242 222.044777 
L 382.73365 222.070357 
L 383.708101 223.420376 
L 383.87051 223.335344 
L 384.520144 224.228976 
L 384.682552 224.315772 
L 385.007369 224.76228 
L 385.169778 224.722145 
L 385.494595 225.326015 
L 386.144228 226.074898 
L 388.417947 228.474059 
L 388.580356 228.826626 
L 388.742764 228.684788 
L 389.22999 229.463397 
L 389.392398 229.515969 
L 389.554806 229.752806 
L 389.717215 229.76542 
L 390.042032 230.243947 
L 390.20444 230.346532 
L 390.529257 230.681016 
L 390.854074 230.990007 
L 391.178891 231.532132 
L 391.3413 231.493762 
L 391.503708 231.586556 
L 391.666117 231.917423 
L 391.828525 231.935241 
L 392.478159 232.767569 
L 392.802976 232.932517 
L 392.965385 233.361648 
L 393.127793 233.277762 
L 393.615018 233.911887 
L 393.777427 233.868313 
L 394.102244 234.327434 
L 396.700779 236.858289 
L 396.863188 236.832444 
L 397.350413 237.523286 
L 397.512822 237.602409 
L 397.67523 237.841804 
L 397.837639 237.785263 
L 398.487273 238.507684 
L 398.487273 238.507684 
" clip-path="url(#pcf121a5154)" style="fill: none; stroke-dasharray: 1.85,0.8; stroke-dashoffset: 0; stroke: #ff0000; stroke-width: 0.5"/>
   </g>
   <g id="patch_3">
    <path d="M 57.6 307.584 
L 57.6 41.472 
" style="fill: none; stroke: #000000; stroke-width: 0.8; stroke-linejoin: miter; stroke-linecap: square"/>
   </g>
   <g id="patch_4">
    <path d="M 414.72 307.584 
L 414.72 41.472 
" style="fill: none; stroke: #000000; stroke-width: 0.8; stroke-linejoin: miter; stroke-linecap: square"/>
   </g>
   <g id="patch_5">
    <path d="M 57.6 307.584 
L 414.72 307.584 
" style="fill: none; stroke: #000000; stroke-width: 0.8; stroke-linejoin: miter; stroke-linecap: square"/>
   </g>
   <g id="patch_6">
    <path d="M 57.6 41.472 
L 414.72 41.472 
" style="fill: none; stroke: #000000; stroke-width: 0.8; stroke-linejoin: miter; stroke-linecap: square"/>
   </g>
   <g id="text_18">
    <!-- Heating Rate ($^{\circ}C.s^{-1}$) -->
    <g transform="translate(271.872 68.0832) scale(0.12 -0.12)">
     <defs>
      <path id="DejaVuSans-48" d="M 628 4666 
L 1259 4666 
L 1259 2753 
L 3553 2753 
L 3553 4666 
L 4184 4666 
L 4184 0 
L 3553 0 
L 3553 2222 
L 1259 2222 
L 1259 0 
L 628 0 
L 628 4666 
z
" transform="scale(0.015625)"/>
      <path id="DejaVuSans-67" d="M 2906 1791 
Q 2906 2416 2648 2759 
Q 2391 3103 1925 3103 
Q 1463 3103 1205 2759 
Q 947 2416 947 1791 
Q 947 1169 1205 825 
Q 1463 481 1925 481 
Q 2391 481 2648 825 
Q 2906 1169 2906 1791 
z
M 3481 434 
Q 3481 -459 3084 -895 
Q 2688 -1331 1869 -1331 
Q 1566 -1331 1297 -1286 
Q 1028 -1241 775 -1147 
L 775 -588 
Q 1028 -725 1275 -790 
Q 1522 -856 1778 -856 
Q 2344 -856 2625 -561 
Q 2906 -266 2906 331 
L 2906 616 
Q 2728 306 2450 153 
Q 2172 0 1784 0 
Q 1141 0 747 490 
Q 353 981 353 1791 
Q 353 2603 747 3093 
Q 1141 3584 1784 3584 
Q 2172 3584 2450 3431 
Q 2728 3278 2906 2969 
L 2906 3500 
L 3481 3500 
L 3481 434 
z
" transform="scale(0.015625)"/>
      <path id="DejaVuSans-52" d="M 2841 2188 
Q 3044 2119 3236 1894 
Q 3428 1669 3622 1275 
L 4263 0 
L 3584 0 
L 2988 1197 
Q 2756 1666 2539 1819 
Q 2322 1972 1947 1972 
L 1259 1972 
L 1259 0 
L 628 0 
L 628 4666 
L 2053 4666 
Q 2853 4666 3247 4331 
Q 3641 3997 3641 3322 
Q 3641 2881 3436 2590 
Q 3231 2300 2841 2188 
z
M 1259 4147 
L 1259 2491 
L 2053 2491 
Q 2509 2491 2742 2702 
Q 2975 2913 2975 3322 
Q 2975 3731 2742 3939 
Q 2509 4147 2053 4147 
L 1259 4147 
z
" transform="scale(0.015625)"/>
      <path id="DejaVuSans-Oblique-73" d="M 3200 3397 
L 3091 2853 
Q 2863 2978 2609 3040 
Q 2356 3103 2088 3103 
Q 1634 3103 1373 2948 
Q 1113 2794 1113 2528 
Q 1113 2219 1719 2053 
Q 1766 2041 1788 2034 
L 1972 1978 
Q 2547 1819 2739 1644 
Q 2931 1469 2931 1166 
Q 2931 609 2489 259 
Q 2047 -91 1331 -91 
Q 1053 -91 747 -37 
Q 441 16 72 128 
L 184 722 
Q 500 559 806 475 
Q 1113 391 1394 391 
Q 1816 391 2080 572 
Q 2344 753 2344 1031 
Q 2344 1331 1650 1516 
L 1591 1531 
L 1394 1581 
Q 956 1697 753 1886 
Q 550 2075 550 2369 
Q 550 2928 970 3256 
Q 1391 3584 2113 3584 
Q 2397 3584 2667 3537 
Q 2938 3491 3200 3397 
z
" transform="scale(0.015625)"/>
     </defs>
     <use xlink:href="#DejaVuSans-48" transform="translate(0 0.684375)"/>
     <use xlink:href="#DejaVuSans-65" transform="translate(75.195312 0.684375)"/>
     <use xlink:href="#DejaVuSans-61" transform="translate(136.71875 0.684375)"/>
     <use xlink:href="#DejaVuSans-74" transform="translate(197.998047 0.684375)"/>
     <use xlink:href="#DejaVuSans-69" transform="translate(237.207031 0.684375)"/>
     <use xlink:href="#DejaVuSans-6e" transform="translate(264.990234 0.684375)"/>
     <use xlink:href="#DejaVuSans-67" transform="translate(328.369141 0.684375)"/>
     <use xlink:href="#DejaVuSans-20" transform="translate(391.845703 0.684375)"/>
     <use xlink:href="#DejaVuSans-52" transform="translate(423.632812 0.684375)"/>
     <use xlink:href="#DejaVuSans-61" transform="translate(493.115234 0.684375)"/>
     <use xlink:href="#DejaVuSans-74" transform="translate(554.394531 0.684375)"/>
     <use xlink:href="#DejaVuSans-65" transform="translate(593.603516 0.684375)"/>
     <use xlink:href="#DejaVuSans-20" transform="translate(655.126953 0.684375)"/>
     <use xlink:href="#DejaVuSans-28" transform="translate(686.914062 0.684375)"/>
     <use xlink:href="#DejaVuSans-2218" transform="translate(726.884766 38.965625) scale(0.7)"/>
     <use xlink:href="#DejaVuSans-Oblique-43" transform="translate(773.4375 0.684375)"/>
     <use xlink:href="#DejaVuSans-2e" transform="translate(843.261719 0.684375)"/>
     <use xlink:href="#DejaVuSans-Oblique-73" transform="translate(894.53125 0.684375)"/>
     <use xlink:href="#DejaVuSans-2212" transform="translate(951.280755 38.965625) scale(0.7)"/>
     <use xlink:href="#DejaVuSans-31" transform="translate(1009.933099 38.965625) scale(0.7)"/>
     <use xlink:href="#DejaVuSans-29" transform="translate(1057.203607 0.684375)"/>
    </g>
   </g>
   <g id="legend_1">
    <g id="patch_7">
     <path d="M 314.584 120.117575 
L 352.9465 120.117575 
Q 354.9465 120.117575 354.9465 118.117575 
L 354.9465 75.0832 
Q 354.9465 73.0832 352.9465 73.0832 
L 314.584 73.0832 
Q 312.584 73.0832 312.584 75.0832 
L 312.584 118.117575 
Q 312.584 120.117575 314.584 120.117575 
z
" style="fill: #ffffff; opacity: 0.8; stroke: #cccccc; stroke-linejoin: miter"/>
    </g>
    <g id="line2d_18">
     <path d="M 316.584 81.181637 
L 326.584 81.181637 
L 336.584 81.181637 
" style="fill: none; stroke-dasharray: 1.85,0.8; stroke-dashoffset: 0; stroke: #8000ff; stroke-width: 0.5"/>
    </g>
    <g id="text_19">
     <!-- 5 -->
     <g transform="translate(344.584 84.681637) scale(0.1 -0.1)">
      <defs>
       <path id="DejaVuSans-35" d="M 691 4666 
L 3169 4666 
L 3169 4134 
L 1269 4134 
L 1269 2991 
Q 1406 3038 1543 3061 
Q 1681 3084 1819 3084 
Q 2600 3084 3056 2656 
Q 3513 2228 3513 1497 
Q 3513 744 3044 326 
Q 2575 -91 1722 -91 
Q 1428 -91 1123 -41 
Q 819 9 494 109 
L 494 744 
Q 775 591 1075 516 
Q 1375 441 1709 441 
Q 2250 441 2565 725 
Q 2881 1009 2881 1497 
Q 2881 1984 2565 2268 
Q 2250 2553 1709 2553 
Q 1456 2553 1204 2497 
Q 953 2441 691 2322 
L 691 4666 
z
" transform="scale(0.015625)"/>
      </defs>
      <use xlink:href="#DejaVuSans-35"/>
     </g>
    </g>
    <g id="line2d_19">
     <path d="M 316.584 95.859762 
L 326.584 95.859762 
L 336.584 95.859762 
" style="fill: none; stroke-dasharray: 1.85,0.8; stroke-dashoffset: 0; stroke: #80ffb4; stroke-width: 0.5"/>
    </g>
    <g id="text_20">
     <!-- 5 -->
     <g transform="translate(344.584 99.359762) scale(0.1 -0.1)">
      <use xlink:href="#DejaVuSans-35"/>
     </g>
    </g>
    <g id="line2d_20">
     <path d="M 316.584 110.537887 
L 326.584 110.537887 
L 336.584 110.537887 
" style="fill: none; stroke-dasharray: 1.85,0.8; stroke-dashoffset: 0; stroke: #ff0000; stroke-width: 0.5"/>
    </g>
    <g id="text_21">
     <!-- 5 -->
     <g transform="translate(344.584 114.037887) scale(0.1 -0.1)">
      <use xlink:href="#DejaVuSans-35"/>
     </g>
    </g>
   </g>
  </g>
 </g>
 <defs>
  <clipPath id="pcf121a5154">
   <rect x="57.6" y="41.472" width="357.12" height="266.112"/>
  </clipPath>
 </defs>
</svg>
