<?xml version="1.0" encoding="utf-8" standalone="no"?>
<!DOCTYPE svg PUBLIC "-//W3C//DTD SVG 1.1//EN"
  "http://www.w3.org/Graphics/SVG/1.1/DTD/svg11.dtd">
<svg xmlns:xlink="http://www.w3.org/1999/xlink" width="460.8pt" height="345.6pt" viewBox="0 0 460.8 345.6" xmlns="http://www.w3.org/2000/svg" version="1.1">
 <metadata>
  <rdf:RDF xmlns:dc="http://purl.org/dc/elements/1.1/" xmlns:cc="http://creativecommons.org/ns#" xmlns:rdf="http://www.w3.org/1999/02/22-rdf-syntax-ns#">
   <cc:Work>
    <dc:type rdf:resource="http://purl.org/dc/dcmitype/StillImage"/>
    <dc:date>2025-03-12T11:27:51.993882</dc:date>
    <dc:format>image/svg+xml</dc:format>
    <dc:creator>
     <cc:Agent>
      <dc:title>Matplotlib v3.10.0, https://matplotlib.org/</dc:title>
     </cc:Agent>
    </dc:creator>
   </cc:Work>
  </rdf:RDF>
 </metadata>
 <defs>
  <style type="text/css">*{stroke-linejoin: round; stroke-linecap: butt}</style>
 </defs>
 <g id="figure_1">
  <g id="patch_1">
   <path d="M 0 345.6 
L 460.8 345.6 
L 460.8 0 
L 0 0 
z
" style="fill: #ffffff"/>
  </g>
  <g id="axes_1">
   <g id="patch_2">
    <path d="M 40.165 304.64 
L 450 304.64 
L 450 21.72 
L 40.165 21.72 
z
" style="fill: #ffffff"/>
   </g>
   <g id="matplotlib.axis_1">
    <g id="xtick_1">
     <g id="line2d_1">
      <defs>
       <path id="m28afea2595" d="M 0 0 
L 0 3.5 
" style="stroke: #000000; stroke-width: 0.8"/>
      </defs>
      <g>
       <use xlink:href="#m28afea2595" x="52.019731" y="304.64" style="stroke: #000000; stroke-width: 0.8"/>
      </g>
     </g>
     <g id="text_1">
      <!-- 0 -->
      <g transform="translate(48.838481 319.238437) scale(0.1 -0.1)">
       <defs>
        <path id="DejaVuSans-30" d="M 2034 4250 
Q 1547 4250 1301 3770 
Q 1056 3291 1056 2328 
Q 1056 1369 1301 889 
Q 1547 409 2034 409 
Q 2525 409 2770 889 
Q 3016 1369 3016 2328 
Q 3016 3291 2770 3770 
Q 2525 4250 2034 4250 
z
M 2034 4750 
Q 2819 4750 3233 4129 
Q 3647 3509 3647 2328 
Q 3647 1150 3233 529 
Q 2819 -91 2034 -91 
Q 1250 -91 836 529 
Q 422 1150 422 2328 
Q 422 3509 836 4129 
Q 1250 4750 2034 4750 
z
" transform="scale(0.015625)"/>
       </defs>
       <use xlink:href="#DejaVuSans-30"/>
      </g>
     </g>
    </g>
    <g id="xtick_2">
     <g id="line2d_2">
      <g>
       <use xlink:href="#m28afea2595" x="100.345907" y="304.64" style="stroke: #000000; stroke-width: 0.8"/>
      </g>
     </g>
     <g id="text_2">
      <!-- 100 -->
      <g transform="translate(90.802157 319.238437) scale(0.1 -0.1)">
       <defs>
        <path id="DejaVuSans-31" d="M 794 531 
L 1825 531 
L 1825 4091 
L 703 3866 
L 703 4441 
L 1819 4666 
L 2450 4666 
L 2450 531 
L 3481 531 
L 3481 0 
L 794 0 
L 794 531 
z
" transform="scale(0.015625)"/>
       </defs>
       <use xlink:href="#DejaVuSans-31"/>
       <use xlink:href="#DejaVuSans-30" transform="translate(63.623047 0)"/>
       <use xlink:href="#DejaVuSans-30" transform="translate(127.246094 0)"/>
      </g>
     </g>
    </g>
    <g id="xtick_3">
     <g id="line2d_3">
      <g>
       <use xlink:href="#m28afea2595" x="148.672082" y="304.64" style="stroke: #000000; stroke-width: 0.8"/>
      </g>
     </g>
     <g id="text_3">
      <!-- 200 -->
      <g transform="translate(139.128332 319.238437) scale(0.1 -0.1)">
       <defs>
        <path id="DejaVuSans-32" d="M 1228 531 
L 3431 531 
L 3431 0 
L 469 0 
L 469 531 
Q 828 903 1448 1529 
Q 2069 2156 2228 2338 
Q 2531 2678 2651 2914 
Q 2772 3150 2772 3378 
Q 2772 3750 2511 3984 
Q 2250 4219 1831 4219 
Q 1534 4219 1204 4116 
Q 875 4013 500 3803 
L 500 4441 
Q 881 4594 1212 4672 
Q 1544 4750 1819 4750 
Q 2544 4750 2975 4387 
Q 3406 4025 3406 3419 
Q 3406 3131 3298 2873 
Q 3191 2616 2906 2266 
Q 2828 2175 2409 1742 
Q 1991 1309 1228 531 
z
" transform="scale(0.015625)"/>
       </defs>
       <use xlink:href="#DejaVuSans-32"/>
       <use xlink:href="#DejaVuSans-30" transform="translate(63.623047 0)"/>
       <use xlink:href="#DejaVuSans-30" transform="translate(127.246094 0)"/>
      </g>
     </g>
    </g>
    <g id="xtick_4">
     <g id="line2d_4">
      <g>
       <use xlink:href="#m28afea2595" x="196.998258" y="304.64" style="stroke: #000000; stroke-width: 0.8"/>
      </g>
     </g>
     <g id="text_4">
      <!-- 300 -->
      <g transform="translate(187.454508 319.238437) scale(0.1 -0.1)">
       <defs>
        <path id="DejaVuSans-33" d="M 2597 2516 
Q 3050 2419 3304 2112 
Q 3559 1806 3559 1356 
Q 3559 666 3084 287 
Q 2609 -91 1734 -91 
Q 1441 -91 1130 -33 
Q 819 25 488 141 
L 488 750 
Q 750 597 1062 519 
Q 1375 441 1716 441 
Q 2309 441 2620 675 
Q 2931 909 2931 1356 
Q 2931 1769 2642 2001 
Q 2353 2234 1838 2234 
L 1294 2234 
L 1294 2753 
L 1863 2753 
Q 2328 2753 2575 2939 
Q 2822 3125 2822 3475 
Q 2822 3834 2567 4026 
Q 2313 4219 1838 4219 
Q 1578 4219 1281 4162 
Q 984 4106 628 3988 
L 628 4550 
Q 988 4650 1302 4700 
Q 1616 4750 1894 4750 
Q 2613 4750 3031 4423 
Q 3450 4097 3450 3541 
Q 3450 3153 3228 2886 
Q 3006 2619 2597 2516 
z
" transform="scale(0.015625)"/>
       </defs>
       <use xlink:href="#DejaVuSans-33"/>
       <use xlink:href="#DejaVuSans-30" transform="translate(63.623047 0)"/>
       <use xlink:href="#DejaVuSans-30" transform="translate(127.246094 0)"/>
      </g>
     </g>
    </g>
    <g id="xtick_5">
     <g id="line2d_5">
      <g>
       <use xlink:href="#m28afea2595" x="245.324433" y="304.64" style="stroke: #000000; stroke-width: 0.8"/>
      </g>
     </g>
     <g id="text_5">
      <!-- 400 -->
      <g transform="translate(235.780683 319.238437) scale(0.1 -0.1)">
       <defs>
        <path id="DejaVuSans-34" d="M 2419 4116 
L 825 1625 
L 2419 1625 
L 2419 4116 
z
M 2253 4666 
L 3047 4666 
L 3047 1625 
L 3713 1625 
L 3713 1100 
L 3047 1100 
L 3047 0 
L 2419 0 
L 2419 1100 
L 313 1100 
L 313 1709 
L 2253 4666 
z
" transform="scale(0.015625)"/>
       </defs>
       <use xlink:href="#DejaVuSans-34"/>
       <use xlink:href="#DejaVuSans-30" transform="translate(63.623047 0)"/>
       <use xlink:href="#DejaVuSans-30" transform="translate(127.246094 0)"/>
      </g>
     </g>
    </g>
    <g id="xtick_6">
     <g id="line2d_6">
      <g>
       <use xlink:href="#m28afea2595" x="293.650609" y="304.64" style="stroke: #000000; stroke-width: 0.8"/>
      </g>
     </g>
     <g id="text_6">
      <!-- 500 -->
      <g transform="translate(284.106859 319.238437) scale(0.1 -0.1)">
       <defs>
        <path id="DejaVuSans-35" d="M 691 4666 
L 3169 4666 
L 3169 4134 
L 1269 4134 
L 1269 2991 
Q 1406 3038 1543 3061 
Q 1681 3084 1819 3084 
Q 2600 3084 3056 2656 
Q 3513 2228 3513 1497 
Q 3513 744 3044 326 
Q 2575 -91 1722 -91 
Q 1428 -91 1123 -41 
Q 819 9 494 109 
L 494 744 
Q 775 591 1075 516 
Q 1375 441 1709 441 
Q 2250 441 2565 725 
Q 2881 1009 2881 1497 
Q 2881 1984 2565 2268 
Q 2250 2553 1709 2553 
Q 1456 2553 1204 2497 
Q 953 2441 691 2322 
L 691 4666 
z
" transform="scale(0.015625)"/>
       </defs>
       <use xlink:href="#DejaVuSans-35"/>
       <use xlink:href="#DejaVuSans-30" transform="translate(63.623047 0)"/>
       <use xlink:href="#DejaVuSans-30" transform="translate(127.246094 0)"/>
      </g>
     </g>
    </g>
    <g id="xtick_7">
     <g id="line2d_7">
      <g>
       <use xlink:href="#m28afea2595" x="341.976784" y="304.64" style="stroke: #000000; stroke-width: 0.8"/>
      </g>
     </g>
     <g id="text_7">
      <!-- 600 -->
      <g transform="translate(332.433034 319.238437) scale(0.1 -0.1)">
       <defs>
        <path id="DejaVuSans-36" d="M 2113 2584 
Q 1688 2584 1439 2293 
Q 1191 2003 1191 1497 
Q 1191 994 1439 701 
Q 1688 409 2113 409 
Q 2538 409 2786 701 
Q 3034 994 3034 1497 
Q 3034 2003 2786 2293 
Q 2538 2584 2113 2584 
z
M 3366 4563 
L 3366 3988 
Q 3128 4100 2886 4159 
Q 2644 4219 2406 4219 
Q 1781 4219 1451 3797 
Q 1122 3375 1075 2522 
Q 1259 2794 1537 2939 
Q 1816 3084 2150 3084 
Q 2853 3084 3261 2657 
Q 3669 2231 3669 1497 
Q 3669 778 3244 343 
Q 2819 -91 2113 -91 
Q 1303 -91 875 529 
Q 447 1150 447 2328 
Q 447 3434 972 4092 
Q 1497 4750 2381 4750 
Q 2619 4750 2861 4703 
Q 3103 4656 3366 4563 
z
" transform="scale(0.015625)"/>
       </defs>
       <use xlink:href="#DejaVuSans-36"/>
       <use xlink:href="#DejaVuSans-30" transform="translate(63.623047 0)"/>
       <use xlink:href="#DejaVuSans-30" transform="translate(127.246094 0)"/>
      </g>
     </g>
    </g>
    <g id="xtick_8">
     <g id="line2d_8">
      <g>
       <use xlink:href="#m28afea2595" x="390.30296" y="304.64" style="stroke: #000000; stroke-width: 0.8"/>
      </g>
     </g>
     <g id="text_8">
      <!-- 700 -->
      <g transform="translate(380.75921 319.238437) scale(0.1 -0.1)">
       <defs>
        <path id="DejaVuSans-37" d="M 525 4666 
L 3525 4666 
L 3525 4397 
L 1831 0 
L 1172 0 
L 2766 4134 
L 525 4134 
L 525 4666 
z
" transform="scale(0.015625)"/>
       </defs>
       <use xlink:href="#DejaVuSans-37"/>
       <use xlink:href="#DejaVuSans-30" transform="translate(63.623047 0)"/>
       <use xlink:href="#DejaVuSans-30" transform="translate(127.246094 0)"/>
      </g>
     </g>
    </g>
    <g id="xtick_9">
     <g id="line2d_9">
      <g>
       <use xlink:href="#m28afea2595" x="438.629135" y="304.64" style="stroke: #000000; stroke-width: 0.8"/>
      </g>
     </g>
     <g id="text_9">
      <!-- 800 -->
      <g transform="translate(429.085385 319.238437) scale(0.1 -0.1)">
       <defs>
        <path id="DejaVuSans-38" d="M 2034 2216 
Q 1584 2216 1326 1975 
Q 1069 1734 1069 1313 
Q 1069 891 1326 650 
Q 1584 409 2034 409 
Q 2484 409 2743 651 
Q 3003 894 3003 1313 
Q 3003 1734 2745 1975 
Q 2488 2216 2034 2216 
z
M 1403 2484 
Q 997 2584 770 2862 
Q 544 3141 544 3541 
Q 544 4100 942 4425 
Q 1341 4750 2034 4750 
Q 2731 4750 3128 4425 
Q 3525 4100 3525 3541 
Q 3525 3141 3298 2862 
Q 3072 2584 2669 2484 
Q 3125 2378 3379 2068 
Q 3634 1759 3634 1313 
Q 3634 634 3220 271 
Q 2806 -91 2034 -91 
Q 1263 -91 848 271 
Q 434 634 434 1313 
Q 434 1759 690 2068 
Q 947 2378 1403 2484 
z
M 1172 3481 
Q 1172 3119 1398 2916 
Q 1625 2713 2034 2713 
Q 2441 2713 2670 2916 
Q 2900 3119 2900 3481 
Q 2900 3844 2670 4047 
Q 2441 4250 2034 4250 
Q 1625 4250 1398 4047 
Q 1172 3844 1172 3481 
z
" transform="scale(0.015625)"/>
       </defs>
       <use xlink:href="#DejaVuSans-38"/>
       <use xlink:href="#DejaVuSans-30" transform="translate(63.623047 0)"/>
       <use xlink:href="#DejaVuSans-30" transform="translate(127.246094 0)"/>
      </g>
     </g>
    </g>
    <g id="text_10">
     <!-- Temperature ($^{\circ}C$) -->
     <g transform="translate(201.0825 332.918125) scale(0.1 -0.1)">
      <defs>
       <path id="DejaVuSans-54" d="M -19 4666 
L 3928 4666 
L 3928 4134 
L 2272 4134 
L 2272 0 
L 1638 0 
L 1638 4134 
L -19 4134 
L -19 4666 
z
" transform="scale(0.015625)"/>
       <path id="DejaVuSans-65" d="M 3597 1894 
L 3597 1613 
L 953 1613 
Q 991 1019 1311 708 
Q 1631 397 2203 397 
Q 2534 397 2845 478 
Q 3156 559 3463 722 
L 3463 178 
Q 3153 47 2828 -22 
Q 2503 -91 2169 -91 
Q 1331 -91 842 396 
Q 353 884 353 1716 
Q 353 2575 817 3079 
Q 1281 3584 2069 3584 
Q 2775 3584 3186 3129 
Q 3597 2675 3597 1894 
z
M 3022 2063 
Q 3016 2534 2758 2815 
Q 2500 3097 2075 3097 
Q 1594 3097 1305 2825 
Q 1016 2553 972 2059 
L 3022 2063 
z
" transform="scale(0.015625)"/>
       <path id="DejaVuSans-6d" d="M 3328 2828 
Q 3544 3216 3844 3400 
Q 4144 3584 4550 3584 
Q 5097 3584 5394 3201 
Q 5691 2819 5691 2113 
L 5691 0 
L 5113 0 
L 5113 2094 
Q 5113 2597 4934 2840 
Q 4756 3084 4391 3084 
Q 3944 3084 3684 2787 
Q 3425 2491 3425 1978 
L 3425 0 
L 2847 0 
L 2847 2094 
Q 2847 2600 2669 2842 
Q 2491 3084 2119 3084 
Q 1678 3084 1418 2786 
Q 1159 2488 1159 1978 
L 1159 0 
L 581 0 
L 581 3500 
L 1159 3500 
L 1159 2956 
Q 1356 3278 1631 3431 
Q 1906 3584 2284 3584 
Q 2666 3584 2933 3390 
Q 3200 3197 3328 2828 
z
" transform="scale(0.015625)"/>
       <path id="DejaVuSans-70" d="M 1159 525 
L 1159 -1331 
L 581 -1331 
L 581 3500 
L 1159 3500 
L 1159 2969 
Q 1341 3281 1617 3432 
Q 1894 3584 2278 3584 
Q 2916 3584 3314 3078 
Q 3713 2572 3713 1747 
Q 3713 922 3314 415 
Q 2916 -91 2278 -91 
Q 1894 -91 1617 61 
Q 1341 213 1159 525 
z
M 3116 1747 
Q 3116 2381 2855 2742 
Q 2594 3103 2138 3103 
Q 1681 3103 1420 2742 
Q 1159 2381 1159 1747 
Q 1159 1113 1420 752 
Q 1681 391 2138 391 
Q 2594 391 2855 752 
Q 3116 1113 3116 1747 
z
" transform="scale(0.015625)"/>
       <path id="DejaVuSans-72" d="M 2631 2963 
Q 2534 3019 2420 3045 
Q 2306 3072 2169 3072 
Q 1681 3072 1420 2755 
Q 1159 2438 1159 1844 
L 1159 0 
L 581 0 
L 581 3500 
L 1159 3500 
L 1159 2956 
Q 1341 3275 1631 3429 
Q 1922 3584 2338 3584 
Q 2397 3584 2469 3576 
Q 2541 3569 2628 3553 
L 2631 2963 
z
" transform="scale(0.015625)"/>
       <path id="DejaVuSans-61" d="M 2194 1759 
Q 1497 1759 1228 1600 
Q 959 1441 959 1056 
Q 959 750 1161 570 
Q 1363 391 1709 391 
Q 2188 391 2477 730 
Q 2766 1069 2766 1631 
L 2766 1759 
L 2194 1759 
z
M 3341 1997 
L 3341 0 
L 2766 0 
L 2766 531 
Q 2569 213 2275 61 
Q 1981 -91 1556 -91 
Q 1019 -91 701 211 
Q 384 513 384 1019 
Q 384 1609 779 1909 
Q 1175 2209 1959 2209 
L 2766 2209 
L 2766 2266 
Q 2766 2663 2505 2880 
Q 2244 3097 1772 3097 
Q 1472 3097 1187 3025 
Q 903 2953 641 2809 
L 641 3341 
Q 956 3463 1253 3523 
Q 1550 3584 1831 3584 
Q 2591 3584 2966 3190 
Q 3341 2797 3341 1997 
z
" transform="scale(0.015625)"/>
       <path id="DejaVuSans-74" d="M 1172 4494 
L 1172 3500 
L 2356 3500 
L 2356 3053 
L 1172 3053 
L 1172 1153 
Q 1172 725 1289 603 
Q 1406 481 1766 481 
L 2356 481 
L 2356 0 
L 1766 0 
Q 1100 0 847 248 
Q 594 497 594 1153 
L 594 3053 
L 172 3053 
L 172 3500 
L 594 3500 
L 594 4494 
L 1172 4494 
z
" transform="scale(0.015625)"/>
       <path id="DejaVuSans-75" d="M 544 1381 
L 544 3500 
L 1119 3500 
L 1119 1403 
Q 1119 906 1312 657 
Q 1506 409 1894 409 
Q 2359 409 2629 706 
Q 2900 1003 2900 1516 
L 2900 3500 
L 3475 3500 
L 3475 0 
L 2900 0 
L 2900 538 
Q 2691 219 2414 64 
Q 2138 -91 1772 -91 
Q 1169 -91 856 284 
Q 544 659 544 1381 
z
M 1991 3584 
L 1991 3584 
z
" transform="scale(0.015625)"/>
       <path id="DejaVuSans-20" transform="scale(0.015625)"/>
       <path id="DejaVuSans-28" d="M 1984 4856 
Q 1566 4138 1362 3434 
Q 1159 2731 1159 2009 
Q 1159 1288 1364 580 
Q 1569 -128 1984 -844 
L 1484 -844 
Q 1016 -109 783 600 
Q 550 1309 550 2009 
Q 550 2706 781 3412 
Q 1013 4119 1484 4856 
L 1984 4856 
z
" transform="scale(0.015625)"/>
       <path id="DejaVuSans-2218" d="M 2000 2619 
Q 1750 2619 1578 2445 
Q 1406 2272 1406 2022 
Q 1406 1775 1578 1605 
Q 1750 1435 2000 1435 
Q 2250 1435 2422 1605 
Q 2594 1775 2594 2022 
Q 2594 2269 2420 2444 
Q 2247 2619 2000 2619 
z
M 2000 3022 
Q 2200 3022 2384 2945 
Q 2569 2869 2703 2725 
Q 2847 2585 2919 2406 
Q 2991 2228 2991 2022 
Q 2991 1610 2702 1324 
Q 2413 1038 1994 1038 
Q 1572 1038 1290 1319 
Q 1009 1600 1009 2022 
Q 1009 2441 1296 2731 
Q 1584 3022 2000 3022 
z
" transform="scale(0.015625)"/>
       <path id="DejaVuSans-Oblique-43" d="M 4447 4306 
L 4319 3641 
Q 4019 3944 3683 4091 
Q 3347 4238 2956 4238 
Q 2422 4238 2017 3981 
Q 1613 3725 1319 3200 
Q 1131 2863 1032 2486 
Q 934 2109 934 1728 
Q 934 1091 1264 756 
Q 1594 422 2222 422 
Q 2656 422 3056 561 
Q 3456 700 3834 978 
L 3688 231 
Q 3316 72 2936 -9 
Q 2556 -91 2175 -91 
Q 1278 -91 773 396 
Q 269 884 269 1753 
Q 269 2309 461 2846 
Q 653 3384 1013 3828 
Q 1394 4300 1883 4525 
Q 2372 4750 3022 4750 
Q 3422 4750 3780 4639 
Q 4138 4528 4447 4306 
z
" transform="scale(0.015625)"/>
       <path id="DejaVuSans-29" d="M 513 4856 
L 1013 4856 
Q 1481 4119 1714 3412 
Q 1947 2706 1947 2009 
Q 1947 1309 1714 600 
Q 1481 -109 1013 -844 
L 513 -844 
Q 928 -128 1133 580 
Q 1338 1288 1338 2009 
Q 1338 2731 1133 3434 
Q 928 4138 513 4856 
z
" transform="scale(0.015625)"/>
      </defs>
      <use xlink:href="#DejaVuSans-54" transform="translate(0 0.125)"/>
      <use xlink:href="#DejaVuSans-65" transform="translate(61.083984 0.125)"/>
      <use xlink:href="#DejaVuSans-6d" transform="translate(122.607422 0.125)"/>
      <use xlink:href="#DejaVuSans-70" transform="translate(220.019531 0.125)"/>
      <use xlink:href="#DejaVuSans-65" transform="translate(283.496094 0.125)"/>
      <use xlink:href="#DejaVuSans-72" transform="translate(345.019531 0.125)"/>
      <use xlink:href="#DejaVuSans-61" transform="translate(386.132812 0.125)"/>
      <use xlink:href="#DejaVuSans-74" transform="translate(447.412109 0.125)"/>
      <use xlink:href="#DejaVuSans-75" transform="translate(486.621094 0.125)"/>
      <use xlink:href="#DejaVuSans-72" transform="translate(550 0.125)"/>
      <use xlink:href="#DejaVuSans-65" transform="translate(591.113281 0.125)"/>
      <use xlink:href="#DejaVuSans-20" transform="translate(652.636719 0.125)"/>
      <use xlink:href="#DejaVuSans-28" transform="translate(684.423828 0.125)"/>
      <use xlink:href="#DejaVuSans-2218" transform="translate(724.394531 38.40625) scale(0.7)"/>
      <use xlink:href="#DejaVuSans-Oblique-43" transform="translate(770.947266 0.125)"/>
      <use xlink:href="#DejaVuSans-29" transform="translate(840.771484 0.125)"/>
     </g>
    </g>
   </g>
   <g id="matplotlib.axis_2">
    <g id="ytick_1">
     <g id="line2d_10">
      <defs>
       <path id="m1bf7f04362" d="M 0 0 
L -3.5 0 
" style="stroke: #000000; stroke-width: 0.8"/>
      </defs>
      <g>
       <use xlink:href="#m1bf7f04362" x="40.165" y="291.78" style="stroke: #000000; stroke-width: 0.8"/>
      </g>
     </g>
     <g id="text_11">
      <!-- 0.00 -->
      <g transform="translate(10.899375 295.579219) scale(0.1 -0.1)">
       <defs>
        <path id="DejaVuSans-2e" d="M 684 794 
L 1344 794 
L 1344 0 
L 684 0 
L 684 794 
z
" transform="scale(0.015625)"/>
       </defs>
       <use xlink:href="#DejaVuSans-30"/>
       <use xlink:href="#DejaVuSans-2e" transform="translate(63.623047 0)"/>
       <use xlink:href="#DejaVuSans-30" transform="translate(95.410156 0)"/>
       <use xlink:href="#DejaVuSans-30" transform="translate(159.033203 0)"/>
      </g>
     </g>
    </g>
    <g id="ytick_2">
     <g id="line2d_11">
      <g>
       <use xlink:href="#m1bf7f04362" x="40.165" y="259.63" style="stroke: #000000; stroke-width: 0.8"/>
      </g>
     </g>
     <g id="text_12">
      <!-- 0.25 -->
      <g transform="translate(10.899375 263.429219) scale(0.1 -0.1)">
       <use xlink:href="#DejaVuSans-30"/>
       <use xlink:href="#DejaVuSans-2e" transform="translate(63.623047 0)"/>
       <use xlink:href="#DejaVuSans-32" transform="translate(95.410156 0)"/>
       <use xlink:href="#DejaVuSans-35" transform="translate(159.033203 0)"/>
      </g>
     </g>
    </g>
    <g id="ytick_3">
     <g id="line2d_12">
      <g>
       <use xlink:href="#m1bf7f04362" x="40.165" y="227.48" style="stroke: #000000; stroke-width: 0.8"/>
      </g>
     </g>
     <g id="text_13">
      <!-- 0.50 -->
      <g transform="translate(10.899375 231.279219) scale(0.1 -0.1)">
       <use xlink:href="#DejaVuSans-30"/>
       <use xlink:href="#DejaVuSans-2e" transform="translate(63.623047 0)"/>
       <use xlink:href="#DejaVuSans-35" transform="translate(95.410156 0)"/>
       <use xlink:href="#DejaVuSans-30" transform="translate(159.033203 0)"/>
      </g>
     </g>
    </g>
    <g id="ytick_4">
     <g id="line2d_13">
      <g>
       <use xlink:href="#m1bf7f04362" x="40.165" y="195.33" style="stroke: #000000; stroke-width: 0.8"/>
      </g>
     </g>
     <g id="text_14">
      <!-- 0.75 -->
      <g transform="translate(10.899375 199.129219) scale(0.1 -0.1)">
       <use xlink:href="#DejaVuSans-30"/>
       <use xlink:href="#DejaVuSans-2e" transform="translate(63.623047 0)"/>
       <use xlink:href="#DejaVuSans-37" transform="translate(95.410156 0)"/>
       <use xlink:href="#DejaVuSans-35" transform="translate(159.033203 0)"/>
      </g>
     </g>
    </g>
    <g id="ytick_5">
     <g id="line2d_14">
      <g>
       <use xlink:href="#m1bf7f04362" x="40.165" y="163.18" style="stroke: #000000; stroke-width: 0.8"/>
      </g>
     </g>
     <g id="text_15">
      <!-- 1.00 -->
      <g transform="translate(10.899375 166.979219) scale(0.1 -0.1)">
       <use xlink:href="#DejaVuSans-31"/>
       <use xlink:href="#DejaVuSans-2e" transform="translate(63.623047 0)"/>
       <use xlink:href="#DejaVuSans-30" transform="translate(95.410156 0)"/>
       <use xlink:href="#DejaVuSans-30" transform="translate(159.033203 0)"/>
      </g>
     </g>
    </g>
    <g id="ytick_6">
     <g id="line2d_15">
      <g>
       <use xlink:href="#m1bf7f04362" x="40.165" y="131.03" style="stroke: #000000; stroke-width: 0.8"/>
      </g>
     </g>
     <g id="text_16">
      <!-- 1.25 -->
      <g transform="translate(10.899375 134.829219) scale(0.1 -0.1)">
       <use xlink:href="#DejaVuSans-31"/>
       <use xlink:href="#DejaVuSans-2e" transform="translate(63.623047 0)"/>
       <use xlink:href="#DejaVuSans-32" transform="translate(95.410156 0)"/>
       <use xlink:href="#DejaVuSans-35" transform="translate(159.033203 0)"/>
      </g>
     </g>
    </g>
    <g id="ytick_7">
     <g id="line2d_16">
      <g>
       <use xlink:href="#m1bf7f04362" x="40.165" y="98.88" style="stroke: #000000; stroke-width: 0.8"/>
      </g>
     </g>
     <g id="text_17">
      <!-- 1.50 -->
      <g transform="translate(10.899375 102.679219) scale(0.1 -0.1)">
       <use xlink:href="#DejaVuSans-31"/>
       <use xlink:href="#DejaVuSans-2e" transform="translate(63.623047 0)"/>
       <use xlink:href="#DejaVuSans-35" transform="translate(95.410156 0)"/>
       <use xlink:href="#DejaVuSans-30" transform="translate(159.033203 0)"/>
      </g>
     </g>
    </g>
    <g id="ytick_8">
     <g id="line2d_17">
      <g>
       <use xlink:href="#m1bf7f04362" x="40.165" y="66.73" style="stroke: #000000; stroke-width: 0.8"/>
      </g>
     </g>
     <g id="text_18">
      <!-- 1.75 -->
      <g transform="translate(10.899375 70.529219) scale(0.1 -0.1)">
       <use xlink:href="#DejaVuSans-31"/>
       <use xlink:href="#DejaVuSans-2e" transform="translate(63.623047 0)"/>
       <use xlink:href="#DejaVuSans-37" transform="translate(95.410156 0)"/>
       <use xlink:href="#DejaVuSans-35" transform="translate(159.033203 0)"/>
      </g>
     </g>
    </g>
    <g id="ytick_9">
     <g id="line2d_18">
      <g>
       <use xlink:href="#m1bf7f04362" x="40.165" y="34.58" style="stroke: #000000; stroke-width: 0.8"/>
      </g>
     </g>
     <g id="text_19">
      <!-- 2.00 -->
      <g transform="translate(10.899375 38.379219) scale(0.1 -0.1)">
       <use xlink:href="#DejaVuSans-32"/>
       <use xlink:href="#DejaVuSans-2e" transform="translate(63.623047 0)"/>
       <use xlink:href="#DejaVuSans-30" transform="translate(95.410156 0)"/>
       <use xlink:href="#DejaVuSans-30" transform="translate(159.033203 0)"/>
      </g>
     </g>
    </g>
    <g id="text_20">
     <!-- Intensity ($^{\circ}C^{-1}$) -->
     <g transform="translate(4.799375 201.98) rotate(-90) scale(0.1 -0.1)">
      <defs>
       <path id="DejaVuSans-49" d="M 628 4666 
L 1259 4666 
L 1259 0 
L 628 0 
L 628 4666 
z
" transform="scale(0.015625)"/>
       <path id="DejaVuSans-6e" d="M 3513 2113 
L 3513 0 
L 2938 0 
L 2938 2094 
Q 2938 2591 2744 2837 
Q 2550 3084 2163 3084 
Q 1697 3084 1428 2787 
Q 1159 2491 1159 1978 
L 1159 0 
L 581 0 
L 581 3500 
L 1159 3500 
L 1159 2956 
Q 1366 3272 1645 3428 
Q 1925 3584 2291 3584 
Q 2894 3584 3203 3211 
Q 3513 2838 3513 2113 
z
" transform="scale(0.015625)"/>
       <path id="DejaVuSans-73" d="M 2834 3397 
L 2834 2853 
Q 2591 2978 2328 3040 
Q 2066 3103 1784 3103 
Q 1356 3103 1142 2972 
Q 928 2841 928 2578 
Q 928 2378 1081 2264 
Q 1234 2150 1697 2047 
L 1894 2003 
Q 2506 1872 2764 1633 
Q 3022 1394 3022 966 
Q 3022 478 2636 193 
Q 2250 -91 1575 -91 
Q 1294 -91 989 -36 
Q 684 19 347 128 
L 347 722 
Q 666 556 975 473 
Q 1284 391 1588 391 
Q 1994 391 2212 530 
Q 2431 669 2431 922 
Q 2431 1156 2273 1281 
Q 2116 1406 1581 1522 
L 1381 1569 
Q 847 1681 609 1914 
Q 372 2147 372 2553 
Q 372 3047 722 3315 
Q 1072 3584 1716 3584 
Q 2034 3584 2315 3537 
Q 2597 3491 2834 3397 
z
" transform="scale(0.015625)"/>
       <path id="DejaVuSans-69" d="M 603 3500 
L 1178 3500 
L 1178 0 
L 603 0 
L 603 3500 
z
M 603 4863 
L 1178 4863 
L 1178 4134 
L 603 4134 
L 603 4863 
z
" transform="scale(0.015625)"/>
       <path id="DejaVuSans-79" d="M 2059 -325 
Q 1816 -950 1584 -1140 
Q 1353 -1331 966 -1331 
L 506 -1331 
L 506 -850 
L 844 -850 
Q 1081 -850 1212 -737 
Q 1344 -625 1503 -206 
L 1606 56 
L 191 3500 
L 800 3500 
L 1894 763 
L 2988 3500 
L 3597 3500 
L 2059 -325 
z
" transform="scale(0.015625)"/>
       <path id="DejaVuSans-2212" d="M 678 2272 
L 4684 2272 
L 4684 1741 
L 678 1741 
L 678 2272 
z
" transform="scale(0.015625)"/>
      </defs>
      <use xlink:href="#DejaVuSans-49" transform="translate(0 0.684375)"/>
      <use xlink:href="#DejaVuSans-6e" transform="translate(29.492188 0.684375)"/>
      <use xlink:href="#DejaVuSans-74" transform="translate(92.871094 0.684375)"/>
      <use xlink:href="#DejaVuSans-65" transform="translate(132.080078 0.684375)"/>
      <use xlink:href="#DejaVuSans-6e" transform="translate(193.603516 0.684375)"/>
      <use xlink:href="#DejaVuSans-73" transform="translate(256.982422 0.684375)"/>
      <use xlink:href="#DejaVuSans-69" transform="translate(309.082031 0.684375)"/>
      <use xlink:href="#DejaVuSans-74" transform="translate(336.865234 0.684375)"/>
      <use xlink:href="#DejaVuSans-79" transform="translate(376.074219 0.684375)"/>
      <use xlink:href="#DejaVuSans-20" transform="translate(435.253906 0.684375)"/>
      <use xlink:href="#DejaVuSans-28" transform="translate(467.041016 0.684375)"/>
      <use xlink:href="#DejaVuSans-2218" transform="translate(507.011719 38.965625) scale(0.7)"/>
      <use xlink:href="#DejaVuSans-Oblique-43" transform="translate(553.564453 0.684375)"/>
      <use xlink:href="#DejaVuSans-2212" transform="translate(630.589193 38.965625) scale(0.7)"/>
      <use xlink:href="#DejaVuSans-31" transform="translate(689.241536 38.965625) scale(0.7)"/>
      <use xlink:href="#DejaVuSans-29" transform="translate(736.512044 0.684375)"/>
     </g>
    </g>
   </g>
   <g id="line2d_19">
    <path d="M 58.793864 291.78 
L 106.212789 291.78 
L 106.696656 289.636667 
L 119.277187 289.636667 
L 119.761054 287.493333 
L 120.728787 287.493333 
L 121.212653 289.636667 
L 121.69652 289.636667 
L 122.180387 287.493333 
L 129.922252 287.493333 
L 130.406119 283.206667 
L 132.341585 283.206667 
L 132.825452 281.063333 
L 133.309318 281.063333 
L 133.793185 278.92 
L 135.728651 278.92 
L 136.212518 276.776667 
L 136.696384 276.776667 
L 137.180251 272.49 
L 137.664117 270.346667 
L 138.147984 261.773333 
L 138.631851 255.343333 
L 140.567317 255.343333 
L 141.051184 251.056667 
L 141.53505 251.056667 
L 142.018917 244.626667 
L 142.502783 240.34 
L 143.470517 236.053333 
L 143.954383 227.48 
L 144.43825 227.48 
L 144.922116 231.766667 
L 145.405983 223.193333 
L 146.857583 216.763333 
L 147.341449 218.906667 
L 147.825316 216.763333 
L 148.793049 216.763333 
L 149.276916 214.62 
L 149.760782 201.76 
L 150.244649 195.33 
L 151.212382 195.33 
L 151.696249 193.186667 
L 152.180115 193.186667 
L 153.147848 201.76 
L 153.631715 195.33 
L 154.115581 184.613333 
L 154.599448 178.183333 
L 155.567181 173.896667 
L 156.051048 167.466667 
L 156.534914 171.753333 
L 157.502648 176.04 
L 157.986514 173.896667 
L 158.470381 176.04 
L 159.921981 176.04 
L 160.405847 173.896667 
L 160.889714 176.04 
L 161.37358 171.753333 
L 161.857447 165.323333 
L 162.341313 167.466667 
L 162.82518 161.036667 
L 163.309047 156.75 
L 163.792913 154.606667 
L 164.27678 163.18 
L 164.760646 165.323333 
L 165.244513 163.18 
L 165.72838 158.893333 
L 166.212246 163.18 
L 167.179979 154.606667 
L 167.663846 143.89 
L 168.147713 143.89 
L 168.631579 150.32 
L 169.599312 146.033333 
L 170.083179 152.463333 
L 170.567045 152.463333 
L 171.050912 146.033333 
L 171.534779 141.746667 
L 172.018645 135.316667 
L 172.502512 137.46 
L 172.986378 137.46 
L 173.470245 135.316667 
L 173.954112 131.03 
L 174.437978 133.173333 
L 175.405711 120.313333 
L 175.889578 124.6 
L 176.373445 126.743333 
L 176.857311 118.17 
L 177.341178 120.313333 
L 177.825044 120.313333 
L 178.308911 113.883333 
L 178.792777 109.596667 
L 179.276644 101.023333 
L 179.760511 103.166667 
L 180.244377 103.166667 
L 180.728244 98.88 
L 181.695977 98.88 
L 182.179844 107.453333 
L 182.66371 111.74 
L 183.147577 107.453333 
L 183.631443 111.74 
L 184.11531 109.596667 
L 184.599177 105.31 
L 185.083043 107.453333 
L 185.56691 111.74 
L 186.050776 107.453333 
L 186.534643 101.023333 
L 187.018509 96.736667 
L 187.502376 101.023333 
L 187.986243 96.736667 
L 188.470109 88.163333 
L 188.953976 88.163333 
L 189.437842 92.45 
L 189.921709 94.593333 
L 190.405576 81.733333 
L 190.889442 83.876667 
L 191.373309 88.163333 
L 191.857175 94.593333 
L 192.824909 103.166667 
L 193.308775 96.736667 
L 193.792642 103.166667 
L 194.276508 103.166667 
L 194.760375 101.023333 
L 195.244241 94.593333 
L 196.211975 107.453333 
L 196.695841 107.453333 
L 197.179708 101.023333 
L 197.663574 107.453333 
L 198.147441 96.736667 
L 199.115174 88.163333 
L 199.599041 86.02 
L 200.082907 79.59 
L 201.05064 92.45 
L 201.534507 92.45 
L 202.018374 83.876667 
L 202.50224 86.02 
L 202.986107 83.876667 
L 203.469973 79.59 
L 203.95384 79.59 
L 204.437707 75.303333 
L 204.921573 79.59 
L 205.40544 73.16 
L 205.889306 73.16 
L 206.373173 62.443333 
L 206.85704 60.3 
L 207.340906 60.3 
L 207.824773 71.016667 
L 208.308639 68.873333 
L 208.792506 64.586667 
L 209.760239 64.586667 
L 210.244106 53.87 
L 210.727972 49.583333 
L 211.211839 41.01 
L 211.695705 38.866667 
L 212.179572 34.58 
L 212.663439 45.296667 
L 213.631172 58.156667 
L 214.115038 60.3 
L 214.598905 58.156667 
L 215.082772 53.87 
L 215.566638 53.87 
L 216.050505 47.44 
L 216.534371 51.726667 
L 217.018238 43.153333 
L 217.985971 51.726667 
L 218.469838 53.87 
L 218.953704 51.726667 
L 219.437571 60.3 
L 219.921437 64.586667 
L 220.889171 68.873333 
L 221.373037 64.586667 
L 221.856904 68.873333 
L 222.34077 66.73 
L 224.276237 66.73 
L 225.24397 75.303333 
L 226.211703 92.45 
L 226.69557 94.593333 
L 227.179436 90.306667 
L 227.663303 83.876667 
L 228.147169 75.303333 
L 228.631036 75.303333 
L 229.114903 83.876667 
L 229.598769 86.02 
L 230.082636 86.02 
L 230.566502 94.593333 
L 231.050369 88.163333 
L 231.534236 94.593333 
L 232.018102 96.736667 
L 232.501969 101.023333 
L 232.985835 98.88 
L 233.469702 103.166667 
L 233.953568 98.88 
L 234.437435 101.023333 
L 234.921302 96.736667 
L 235.405168 96.736667 
L 235.889035 98.88 
L 236.372901 92.45 
L 236.856768 90.306667 
L 237.340635 90.306667 
L 237.824501 88.163333 
L 238.308368 90.306667 
L 238.792234 90.306667 
L 239.276101 88.163333 
L 239.759968 79.59 
L 240.243834 81.733333 
L 240.727701 75.303333 
L 241.211567 73.16 
L 241.695434 75.303333 
L 242.1793 79.59 
L 242.663167 81.733333 
L 243.147034 77.446667 
L 243.6309 68.873333 
L 244.114767 75.303333 
L 244.598633 66.73 
L 245.566367 58.156667 
L 246.050233 60.3 
L 246.5341 60.3 
L 247.017966 53.87 
L 247.501833 56.013333 
L 247.9857 51.726667 
L 248.469566 51.726667 
L 248.953433 41.01 
L 249.921166 41.01 
L 250.405032 38.866667 
L 250.888899 45.296667 
L 251.372766 45.296667 
L 251.856632 49.583333 
L 252.340499 47.44 
L 252.824365 38.866667 
L 253.308232 49.583333 
L 253.792099 47.44 
L 254.275965 56.013333 
L 254.759832 47.44 
L 255.243698 51.726667 
L 255.727565 47.44 
L 256.211432 51.726667 
L 256.695298 49.583333 
L 257.663031 53.87 
L 258.146898 64.586667 
L 258.630764 60.3 
L 259.114631 62.443333 
L 259.598498 66.73 
L 260.082364 77.446667 
L 260.566231 73.16 
L 261.050097 75.303333 
L 261.533964 81.733333 
L 262.017831 79.59 
L 262.501697 83.876667 
L 262.985564 90.306667 
L 263.46943 94.593333 
L 263.953297 94.593333 
L 264.437164 103.166667 
L 264.92103 107.453333 
L 265.404897 92.45 
L 265.888763 96.736667 
L 266.37263 94.593333 
L 266.856496 101.023333 
L 267.340363 109.596667 
L 267.82423 101.023333 
L 268.308096 109.596667 
L 268.791963 105.31 
L 269.275829 107.453333 
L 270.727429 101.023333 
L 271.211296 101.023333 
L 272.179029 105.31 
L 272.662896 101.023333 
L 273.146762 101.023333 
L 273.630629 105.31 
L 274.114495 101.023333 
L 274.598362 103.166667 
L 275.082228 98.88 
L 276.049962 81.733333 
L 276.533828 86.02 
L 277.501561 77.446667 
L 278.469295 77.446667 
L 278.953161 71.016667 
L 279.437028 68.873333 
L 279.920894 71.016667 
L 280.404761 68.873333 
L 280.888628 64.586667 
L 281.372494 62.443333 
L 282.340227 62.443333 
L 282.824094 56.013333 
L 283.30796 53.87 
L 283.791827 60.3 
L 284.275694 56.013333 
L 284.75956 62.443333 
L 285.243427 49.583333 
L 285.727293 56.013333 
L 286.21116 53.87 
L 286.695027 43.153333 
L 287.178893 43.153333 
L 287.66276 34.58 
L 288.146626 43.153333 
L 288.630493 49.583333 
L 289.11436 45.296667 
L 289.598226 58.156667 
L 290.565959 66.73 
L 291.049826 60.3 
L 291.533692 60.3 
L 292.501426 64.586667 
L 292.985292 71.016667 
L 293.469159 75.303333 
L 293.953025 81.733333 
L 294.436892 94.593333 
L 294.920759 94.593333 
L 295.404625 103.166667 
L 296.372358 90.306667 
L 296.856225 96.736667 
L 297.340091 92.45 
L 297.823958 92.45 
L 298.307825 94.593333 
L 298.791691 98.88 
L 299.275558 96.736667 
L 299.759424 113.883333 
L 300.243291 109.596667 
L 300.727158 116.026667 
L 301.211024 131.03 
L 301.694891 131.03 
L 302.178757 143.89 
L 302.662624 139.603333 
L 303.146491 133.173333 
L 303.630357 131.03 
L 304.114224 120.313333 
L 304.59809 126.743333 
L 305.081957 131.03 
L 305.565823 128.886667 
L 306.04969 133.173333 
L 306.533557 131.03 
L 307.017423 133.173333 
L 307.985156 116.026667 
L 308.469023 116.026667 
L 308.95289 109.596667 
L 309.436756 111.74 
L 309.920623 111.74 
L 310.404489 122.456667 
L 310.888356 128.886667 
L 311.372223 128.886667 
L 311.856089 135.316667 
L 312.339956 143.89 
L 312.823822 141.746667 
L 313.307689 146.033333 
L 313.791555 146.033333 
L 314.275422 141.746667 
L 314.759289 146.033333 
L 315.243155 143.89 
L 315.727022 139.603333 
L 316.210888 141.746667 
L 316.694755 131.03 
L 317.178622 133.173333 
L 317.662488 137.46 
L 318.146355 143.89 
L 318.630221 146.033333 
L 319.597955 141.746667 
L 320.081821 152.463333 
L 320.565688 152.463333 
L 321.049554 156.75 
L 322.017287 156.75 
L 322.501154 163.18 
L 322.985021 150.32 
L 323.468887 156.75 
L 324.43662 156.75 
L 324.920487 150.32 
L 325.88822 154.606667 
L 326.372087 152.463333 
L 326.855953 148.176667 
L 327.33982 148.176667 
L 327.823687 141.746667 
L 328.307553 141.746667 
L 329.275286 146.033333 
L 329.759153 143.89 
L 330.243019 139.603333 
L 330.726886 139.603333 
L 331.210753 148.176667 
L 331.694619 143.89 
L 332.662352 148.176667 
L 333.146219 154.606667 
L 333.630086 150.32 
L 334.597819 150.32 
L 335.081685 148.176667 
L 335.565552 141.746667 
L 336.049419 137.46 
L 336.533285 146.033333 
L 337.017152 143.89 
L 337.501018 154.606667 
L 337.984885 152.463333 
L 338.468751 146.033333 
L 338.952618 143.89 
L 339.436485 148.176667 
L 339.920351 150.32 
L 340.404218 143.89 
L 340.888084 143.89 
L 341.371951 146.033333 
L 341.855818 141.746667 
L 342.823551 150.32 
L 343.791284 141.746667 
L 344.275151 141.746667 
L 344.759017 148.176667 
L 345.242884 150.32 
L 345.72675 146.033333 
L 346.210617 146.033333 
L 346.694483 143.89 
L 347.17835 137.46 
L 347.662217 137.46 
L 348.146083 148.176667 
L 349.113816 148.176667 
L 349.597683 154.606667 
L 350.08155 156.75 
L 350.565416 156.75 
L 351.049283 152.463333 
L 351.533149 152.463333 
L 352.017016 143.89 
L 352.500883 137.46 
L 352.984749 146.033333 
L 353.468616 150.32 
L 353.952482 152.463333 
L 354.436349 150.32 
L 354.920215 156.75 
L 355.404082 156.75 
L 355.887949 158.893333 
L 356.371815 165.323333 
L 357.339548 165.323333 
L 357.823415 167.466667 
L 358.791148 176.04 
L 359.275015 178.183333 
L 359.758881 178.183333 
L 360.242748 173.896667 
L 360.726615 176.04 
L 361.210481 180.326667 
L 361.694348 188.9 
L 362.178214 184.613333 
L 363.145947 180.326667 
L 364.113681 171.753333 
L 364.597547 173.896667 
L 365.081414 182.47 
L 366.049147 186.756667 
L 367.01688 203.903333 
L 368.46848 191.043333 
L 368.952347 191.043333 
L 369.436213 193.186667 
L 369.92008 199.616667 
L 370.887813 191.043333 
L 371.371679 195.33 
L 371.855546 195.33 
L 372.339413 197.473333 
L 372.823279 195.33 
L 373.307146 188.9 
L 374.274879 184.613333 
L 374.758746 193.186667 
L 375.242612 188.9 
L 375.726479 182.47 
L 376.210345 180.326667 
L 376.694212 180.326667 
L 377.178079 171.753333 
L 377.661945 178.183333 
L 378.145812 176.04 
L 379.597411 176.04 
L 380.081278 178.183333 
L 380.565145 176.04 
L 381.049011 171.753333 
L 381.532878 173.896667 
L 382.016744 169.61 
L 382.984478 173.896667 
L 383.468344 178.183333 
L 383.952211 173.896667 
L 384.436077 173.896667 
L 384.919944 178.183333 
L 385.403811 178.183333 
L 385.887677 173.896667 
L 386.371544 176.04 
L 386.85541 173.896667 
L 387.339277 173.896667 
L 387.823143 178.183333 
L 388.30701 173.896667 
L 388.790877 178.183333 
L 389.274743 180.326667 
L 389.75861 184.613333 
L 390.242476 191.043333 
L 390.726343 193.186667 
L 391.21021 197.473333 
L 391.694076 208.19 
L 392.177943 206.046667 
L 393.145676 214.62 
L 393.629543 210.333333 
L 394.113409 208.19 
L 394.597276 208.19 
L 395.081142 214.62 
L 395.565009 216.763333 
L 396.048875 212.476667 
L 396.532742 216.763333 
L 397.016609 212.476667 
L 397.500475 210.333333 
L 398.468208 210.333333 
L 398.952075 208.19 
L 399.435942 208.19 
L 400.403675 212.476667 
L 401.371408 212.476667 
L 401.855274 208.19 
L 402.823008 212.476667 
L 403.306874 212.476667 
L 403.790741 206.046667 
L 404.274607 203.903333 
L 405.242341 195.33 
L 406.69394 188.9 
L 407.177807 188.9 
L 407.661674 191.043333 
L 408.629407 191.043333 
L 409.113273 188.9 
L 409.59714 188.9 
L 410.081006 193.186667 
L 411.04874 197.473333 
L 412.016473 210.333333 
L 412.500339 208.19 
L 413.468073 212.476667 
L 413.951939 212.476667 
L 415.403539 218.906667 
L 415.887406 218.906667 
L 416.371272 221.05 
L 416.855139 221.05 
L 417.339005 225.336667 
L 417.822872 221.05 
L 418.306738 223.193333 
L 418.790605 229.623333 
L 419.274472 231.766667 
L 420.242205 240.34 
L 420.726071 242.483333 
L 421.693805 242.483333 
L 422.177671 238.196667 
L 422.661538 242.483333 
L 423.629271 242.483333 
L 424.113138 238.196667 
L 424.597004 236.053333 
L 425.080871 238.196667 
L 425.564737 242.483333 
L 426.048604 242.483333 
L 427.016337 238.196667 
L 427.500204 240.34 
L 429.43567 231.766667 
L 430.403403 231.766667 
L 430.88727 236.053333 
L 431.371136 236.053333 
L 431.371136 236.053333 
" clip-path="url(#pb775a9aebd)" style="fill: none; stroke-dasharray: 1.85,0.8; stroke-dashoffset: 0; stroke: #8000ff; stroke-width: 0.5"/>
   </g>
   <g id="line2d_20">
    <path d="M 58.793864 291.78 
L 126.051319 291.78 
L 126.535186 289.636667 
L 134.277051 289.636667 
L 134.760918 287.493333 
L 136.212518 287.493333 
L 136.696384 285.35 
L 140.567317 285.35 
L 141.051184 287.493333 
L 144.43825 287.493333 
L 145.405983 283.206667 
L 147.341449 283.206667 
L 147.825316 281.063333 
L 148.793049 281.063333 
L 149.276916 283.206667 
L 149.760782 283.206667 
L 150.244649 281.063333 
L 150.728515 281.063333 
L 151.212382 283.206667 
L 151.696249 283.206667 
L 152.180115 281.063333 
L 152.663982 276.776667 
L 153.147848 276.776667 
L 154.599448 270.346667 
L 155.083315 270.346667 
L 155.567181 266.06 
L 156.534914 266.06 
L 157.018781 261.773333 
L 157.502648 261.773333 
L 158.954247 248.913333 
L 159.921981 253.2 
L 160.889714 248.913333 
L 161.37358 248.913333 
L 161.857447 244.626667 
L 162.341313 242.483333 
L 162.82518 236.053333 
L 163.309047 236.053333 
L 163.792913 231.766667 
L 164.27678 229.623333 
L 164.760646 231.766667 
L 165.72838 227.48 
L 166.212246 223.193333 
L 166.696113 223.193333 
L 167.179979 227.48 
L 167.663846 223.193333 
L 168.631579 227.48 
L 169.599312 223.193333 
L 170.083179 225.336667 
L 170.567045 223.193333 
L 171.050912 223.193333 
L 171.534779 227.48 
L 172.018645 216.763333 
L 172.986378 221.05 
L 173.954112 216.763333 
L 174.437978 212.476667 
L 175.405711 208.19 
L 175.889578 203.903333 
L 176.373445 201.76 
L 176.857311 201.76 
L 177.341178 208.19 
L 177.825044 206.046667 
L 178.308911 210.333333 
L 178.792777 208.19 
L 179.276644 203.903333 
L 179.760511 206.046667 
L 180.244377 203.903333 
L 180.728244 199.616667 
L 181.695977 195.33 
L 182.179844 197.473333 
L 182.66371 186.756667 
L 183.147577 182.47 
L 183.631443 182.47 
L 184.11531 180.326667 
L 184.599177 180.326667 
L 185.56691 171.753333 
L 186.050776 165.323333 
L 186.534643 169.61 
L 187.018509 165.323333 
L 189.437842 165.323333 
L 189.921709 169.61 
L 190.405576 167.466667 
L 190.889442 167.466667 
L 191.373309 169.61 
L 191.857175 163.18 
L 192.341042 163.18 
L 192.824909 156.75 
L 193.308775 158.893333 
L 193.792642 152.463333 
L 194.276508 143.89 
L 194.760375 143.89 
L 195.244241 148.176667 
L 195.728108 150.32 
L 196.211975 148.176667 
L 196.695841 143.89 
L 197.179708 148.176667 
L 198.147441 148.176667 
L 198.631308 143.89 
L 199.115174 141.746667 
L 199.599041 141.746667 
L 200.082907 143.89 
L 200.566774 148.176667 
L 201.05064 148.176667 
L 202.018374 152.463333 
L 202.50224 146.033333 
L 202.986107 148.176667 
L 203.469973 148.176667 
L 203.95384 150.32 
L 204.437707 146.033333 
L 204.921573 146.033333 
L 205.40544 150.32 
L 205.889306 141.746667 
L 207.824773 141.746667 
L 208.308639 150.32 
L 208.792506 154.606667 
L 209.276372 152.463333 
L 209.760239 154.606667 
L 210.244106 146.033333 
L 210.727972 139.603333 
L 211.211839 146.033333 
L 211.695705 148.176667 
L 212.179572 146.033333 
L 212.663439 141.746667 
L 213.147305 150.32 
L 213.631172 150.32 
L 214.598905 146.033333 
L 215.082772 148.176667 
L 215.566638 152.463333 
L 216.050505 154.606667 
L 216.534371 154.606667 
L 217.018238 165.323333 
L 217.502104 163.18 
L 217.985971 156.75 
L 218.469838 152.463333 
L 218.953704 150.32 
L 219.437571 154.606667 
L 219.921437 152.463333 
L 220.405304 161.036667 
L 220.889171 161.036667 
L 221.373037 154.606667 
L 221.856904 156.75 
L 222.34077 154.606667 
L 222.824637 146.033333 
L 223.308504 146.033333 
L 223.79237 150.32 
L 224.276237 141.746667 
L 225.24397 158.893333 
L 225.727836 152.463333 
L 226.211703 150.32 
L 226.69557 154.606667 
L 227.179436 152.463333 
L 228.147169 143.89 
L 228.631036 148.176667 
L 229.114903 148.176667 
L 229.598769 146.033333 
L 230.082636 141.746667 
L 231.050369 128.886667 
L 231.534236 131.03 
L 232.018102 124.6 
L 232.501969 131.03 
L 232.985835 135.316667 
L 233.953568 131.03 
L 234.437435 135.316667 
L 234.921302 135.316667 
L 235.405168 141.746667 
L 235.889035 146.033333 
L 236.372901 137.46 
L 236.856768 133.173333 
L 237.340635 137.46 
L 238.308368 124.6 
L 238.792234 135.316667 
L 239.276101 128.886667 
L 239.759968 126.743333 
L 240.243834 133.173333 
L 240.727701 135.316667 
L 241.211567 135.316667 
L 241.695434 141.746667 
L 242.1793 141.746667 
L 242.663167 148.176667 
L 243.147034 150.32 
L 243.6309 148.176667 
L 244.114767 148.176667 
L 244.598633 143.89 
L 245.0825 146.033333 
L 245.566367 139.603333 
L 246.050233 139.603333 
L 247.017966 148.176667 
L 247.501833 146.033333 
L 247.9857 152.463333 
L 248.469566 152.463333 
L 248.953433 139.603333 
L 249.437299 139.603333 
L 250.405032 131.03 
L 250.888899 131.03 
L 251.856632 135.316667 
L 252.340499 135.316667 
L 252.824365 141.746667 
L 253.308232 135.316667 
L 253.792099 141.746667 
L 254.275965 133.173333 
L 254.759832 126.743333 
L 255.243698 126.743333 
L 255.727565 109.596667 
L 256.211432 109.596667 
L 256.695298 107.453333 
L 257.179165 103.166667 
L 257.663031 94.593333 
L 258.146898 94.593333 
L 258.630764 92.45 
L 259.114631 98.88 
L 259.598498 96.736667 
L 260.082364 103.166667 
L 260.566231 96.736667 
L 261.533964 75.303333 
L 262.017831 77.446667 
L 262.985564 77.446667 
L 263.46943 90.306667 
L 263.953297 86.02 
L 264.92103 81.733333 
L 265.404897 92.45 
L 265.888763 96.736667 
L 266.37263 92.45 
L 267.340363 96.736667 
L 267.82423 92.45 
L 268.308096 90.306667 
L 268.791963 101.023333 
L 269.275829 101.023333 
L 269.759696 98.88 
L 270.243563 118.17 
L 270.727429 116.026667 
L 271.211296 118.17 
L 271.695162 116.026667 
L 272.179029 122.456667 
L 273.146762 122.456667 
L 273.630629 124.6 
L 274.598362 133.173333 
L 275.082228 128.886667 
L 275.566095 137.46 
L 276.049962 143.89 
L 276.533828 137.46 
L 277.017695 133.173333 
L 277.501561 133.173333 
L 277.985428 128.886667 
L 278.469295 126.743333 
L 278.953161 126.743333 
L 279.437028 133.173333 
L 279.920894 128.886667 
L 280.404761 128.886667 
L 280.888628 135.316667 
L 281.372494 143.89 
L 281.856361 139.603333 
L 282.340227 148.176667 
L 282.824094 146.033333 
L 283.30796 139.603333 
L 283.791827 141.746667 
L 284.275694 141.746667 
L 284.75956 135.316667 
L 285.243427 131.03 
L 285.727293 131.03 
L 286.21116 137.46 
L 286.695027 135.316667 
L 287.178893 137.46 
L 287.66276 124.6 
L 288.146626 122.456667 
L 288.630493 124.6 
L 290.082093 111.74 
L 290.565959 109.596667 
L 291.049826 111.74 
L 292.017559 120.313333 
L 292.501426 122.456667 
L 292.985292 126.743333 
L 293.469159 128.886667 
L 293.953025 124.6 
L 294.436892 118.17 
L 294.920759 118.17 
L 295.404625 101.023333 
L 295.888492 94.593333 
L 296.856225 98.88 
L 297.340091 105.31 
L 297.823958 113.883333 
L 298.307825 118.17 
L 299.275558 122.456667 
L 299.759424 126.743333 
L 301.694891 126.743333 
L 302.178757 137.46 
L 303.630357 137.46 
L 304.114224 146.033333 
L 304.59809 152.463333 
L 305.081957 148.176667 
L 305.565823 154.606667 
L 306.533557 141.746667 
L 307.017423 131.03 
L 307.50129 128.886667 
L 307.985156 122.456667 
L 308.469023 126.743333 
L 308.95289 139.603333 
L 309.436756 137.46 
L 309.920623 152.463333 
L 310.404489 150.32 
L 310.888356 152.463333 
L 311.372223 143.89 
L 311.856089 137.46 
L 312.339956 135.316667 
L 312.823822 131.03 
L 313.307689 131.03 
L 313.791555 126.743333 
L 314.275422 131.03 
L 315.243155 126.743333 
L 315.727022 126.743333 
L 316.210888 124.6 
L 317.178622 128.886667 
L 317.662488 128.886667 
L 318.146355 124.6 
L 319.114088 124.6 
L 319.597955 126.743333 
L 320.081821 120.313333 
L 320.565688 126.743333 
L 321.049554 126.743333 
L 321.533421 137.46 
L 322.017287 133.173333 
L 322.501154 139.603333 
L 322.985021 137.46 
L 323.468887 122.456667 
L 324.43662 126.743333 
L 324.920487 133.173333 
L 325.404354 128.886667 
L 325.88822 131.03 
L 326.372087 135.316667 
L 326.855953 118.17 
L 327.33982 111.74 
L 327.823687 116.026667 
L 328.307553 122.456667 
L 328.79142 122.456667 
L 329.275286 120.313333 
L 330.243019 120.313333 
L 330.726886 124.6 
L 331.210753 124.6 
L 331.694619 122.456667 
L 332.178486 122.456667 
L 332.662352 126.743333 
L 333.146219 128.886667 
L 333.630086 126.743333 
L 334.113952 133.173333 
L 334.597819 135.316667 
L 335.081685 131.03 
L 335.565552 131.03 
L 336.049419 124.6 
L 336.533285 133.173333 
L 337.017152 133.173333 
L 337.501018 137.46 
L 337.984885 150.32 
L 338.468751 150.32 
L 339.436485 146.033333 
L 340.404218 150.32 
L 340.888084 146.033333 
L 341.371951 156.75 
L 341.855818 163.18 
L 342.339684 154.606667 
L 342.823551 156.75 
L 343.307417 156.75 
L 343.791284 161.036667 
L 344.275151 163.18 
L 345.242884 158.893333 
L 346.210617 158.893333 
L 346.694483 156.75 
L 347.662217 148.176667 
L 348.146083 148.176667 
L 348.62995 146.033333 
L 349.113816 146.033333 
L 349.597683 150.32 
L 350.08155 152.463333 
L 350.565416 158.893333 
L 351.049283 158.893333 
L 351.533149 161.036667 
L 352.017016 161.036667 
L 352.500883 150.32 
L 352.984749 146.033333 
L 353.468616 146.033333 
L 353.952482 141.746667 
L 354.436349 135.316667 
L 355.404082 131.03 
L 355.887949 139.603333 
L 356.855682 143.89 
L 357.339548 141.746667 
L 357.823415 137.46 
L 358.307282 141.746667 
L 358.791148 135.316667 
L 359.275015 141.746667 
L 359.758881 139.603333 
L 360.242748 141.746667 
L 360.726615 141.746667 
L 361.210481 139.603333 
L 362.178214 152.463333 
L 362.662081 156.75 
L 363.145947 156.75 
L 363.629814 158.893333 
L 364.113681 154.606667 
L 365.081414 150.32 
L 365.56528 150.32 
L 366.533014 141.746667 
L 367.01688 152.463333 
L 367.500747 156.75 
L 367.984613 158.893333 
L 368.952347 171.753333 
L 369.436213 171.753333 
L 369.92008 173.896667 
L 370.887813 169.61 
L 371.855546 169.61 
L 372.339413 173.896667 
L 372.823279 171.753333 
L 373.307146 176.04 
L 373.791012 176.04 
L 374.274879 173.896667 
L 375.242612 173.896667 
L 375.726479 178.183333 
L 376.210345 178.183333 
L 376.694212 173.896667 
L 377.661945 178.183333 
L 378.145812 178.183333 
L 378.629678 182.47 
L 379.597411 186.756667 
L 380.081278 182.47 
L 380.565145 186.756667 
L 381.049011 188.9 
L 381.532878 188.9 
L 382.500611 184.613333 
L 382.984478 184.613333 
L 383.468344 182.47 
L 383.952211 186.756667 
L 384.436077 188.9 
L 384.919944 186.756667 
L 385.403811 178.183333 
L 385.887677 180.326667 
L 386.371544 180.326667 
L 386.85541 182.47 
L 388.790877 182.47 
L 389.274743 184.613333 
L 390.242476 176.04 
L 391.21021 184.613333 
L 391.694076 176.04 
L 392.177943 171.753333 
L 393.145676 171.753333 
L 393.629543 176.04 
L 394.113409 171.753333 
L 394.597276 173.896667 
L 395.081142 169.61 
L 395.565009 171.753333 
L 396.048875 169.61 
L 396.532742 173.896667 
L 397.016609 176.04 
L 397.500475 171.753333 
L 397.984342 171.753333 
L 398.952075 176.04 
L 399.435942 173.896667 
L 399.919808 184.613333 
L 400.403675 180.326667 
L 401.855274 180.326667 
L 402.339141 184.613333 
L 402.823008 184.613333 
L 403.306874 186.756667 
L 403.790741 180.326667 
L 404.274607 184.613333 
L 404.758474 186.756667 
L 405.242341 186.756667 
L 405.726207 182.47 
L 406.210074 186.756667 
L 406.69394 193.186667 
L 407.177807 184.613333 
L 407.661674 182.47 
L 408.14554 176.04 
L 408.629407 173.896667 
L 409.113273 178.183333 
L 409.59714 184.613333 
L 410.081006 182.47 
L 410.564873 178.183333 
L 411.04874 176.04 
L 411.532606 176.04 
L 412.016473 178.183333 
L 412.500339 182.47 
L 412.984206 176.04 
L 413.468073 176.04 
L 413.951939 180.326667 
L 414.435806 178.183333 
L 414.919672 182.47 
L 415.403539 176.04 
L 415.887406 171.753333 
L 416.371272 169.61 
L 417.339005 161.036667 
L 417.822872 161.036667 
L 419.274472 173.896667 
L 419.758338 173.896667 
L 420.726071 182.47 
L 421.209938 176.04 
L 421.693805 186.756667 
L 422.177671 180.326667 
L 422.661538 186.756667 
L 423.145404 191.043333 
L 424.113138 178.183333 
L 424.597004 180.326667 
L 425.080871 180.326667 
L 425.564737 178.183333 
L 426.048604 178.183333 
L 426.53247 180.326667 
L 427.016337 171.753333 
L 427.500204 176.04 
L 427.98407 178.183333 
L 428.467937 176.04 
L 429.43567 180.326667 
L 429.919537 188.9 
L 430.403403 191.043333 
L 430.88727 186.756667 
L 431.371136 191.043333 
L 431.371136 191.043333 
" clip-path="url(#pb775a9aebd)" style="fill: none; stroke-dasharray: 1.85,0.8; stroke-dashoffset: 0; stroke: #00b5eb; stroke-width: 0.5"/>
   </g>
   <g id="line2d_21">
    <path d="M 58.793864 291.78 
L 141.53505 291.78 
L 142.018917 289.636667 
L 148.793049 289.636667 
L 149.276916 287.493333 
L 156.051048 287.493333 
L 156.534914 289.636667 
L 157.018781 287.493333 
L 158.954247 287.493333 
L 159.438114 285.35 
L 160.405847 285.35 
L 161.37358 281.063333 
L 161.857447 281.063333 
L 162.82518 276.776667 
L 164.27678 276.776667 
L 164.760646 274.633333 
L 165.72838 274.633333 
L 166.212246 270.346667 
L 166.696113 270.346667 
L 167.179979 268.203333 
L 168.147713 268.203333 
L 168.631579 263.916667 
L 169.599312 259.63 
L 171.050912 259.63 
L 171.534779 261.773333 
L 172.018645 259.63 
L 172.502512 259.63 
L 172.986378 255.343333 
L 173.470245 255.343333 
L 173.954112 257.486667 
L 174.437978 253.2 
L 174.921845 251.056667 
L 175.889578 255.343333 
L 176.373445 255.343333 
L 177.341178 259.63 
L 177.825044 257.486667 
L 178.308911 257.486667 
L 178.792777 255.343333 
L 179.276644 255.343333 
L 179.760511 251.056667 
L 180.244377 251.056667 
L 180.728244 255.343333 
L 181.21211 253.2 
L 181.695977 255.343333 
L 182.179844 255.343333 
L 183.147577 251.056667 
L 183.631443 251.056667 
L 184.11531 253.2 
L 184.599177 251.056667 
L 185.083043 246.77 
L 186.050776 242.483333 
L 187.018509 242.483333 
L 187.502376 246.77 
L 187.986243 240.34 
L 188.470109 236.053333 
L 188.953976 238.196667 
L 189.437842 238.196667 
L 189.921709 233.91 
L 191.373309 233.91 
L 191.857175 231.766667 
L 192.341042 227.48 
L 193.308775 227.48 
L 193.792642 229.623333 
L 194.276508 227.48 
L 194.760375 227.48 
L 195.728108 223.193333 
L 196.211975 223.193333 
L 197.179708 218.906667 
L 197.663574 221.05 
L 198.147441 218.906667 
L 198.631308 212.476667 
L 199.115174 210.333333 
L 199.599041 206.046667 
L 200.082907 206.046667 
L 200.566774 197.473333 
L 201.05064 197.473333 
L 202.018374 193.186667 
L 202.50224 195.33 
L 202.986107 195.33 
L 203.469973 188.9 
L 203.95384 188.9 
L 204.437707 191.043333 
L 204.921573 188.9 
L 205.40544 182.47 
L 206.373173 173.896667 
L 207.340906 178.183333 
L 207.824773 171.753333 
L 208.308639 169.61 
L 208.792506 169.61 
L 209.276372 167.466667 
L 210.244106 167.466667 
L 210.727972 163.18 
L 211.211839 163.18 
L 212.179572 171.753333 
L 213.147305 163.18 
L 213.631172 165.323333 
L 214.115038 171.753333 
L 214.598905 173.896667 
L 215.082772 184.613333 
L 215.566638 182.47 
L 216.050505 178.183333 
L 216.534371 178.183333 
L 217.018238 173.896667 
L 217.502104 176.04 
L 217.985971 180.326667 
L 218.469838 178.183333 
L 219.437571 169.61 
L 219.921437 167.466667 
L 220.405304 158.893333 
L 221.373037 163.18 
L 221.856904 156.75 
L 222.34077 158.893333 
L 222.824637 158.893333 
L 223.308504 161.036667 
L 223.79237 156.75 
L 224.760103 152.463333 
L 225.24397 152.463333 
L 226.69557 146.033333 
L 227.179436 148.176667 
L 228.147169 143.89 
L 228.631036 143.89 
L 229.114903 139.603333 
L 229.598769 133.173333 
L 230.566502 141.746667 
L 231.050369 139.603333 
L 231.534236 146.033333 
L 232.018102 148.176667 
L 232.501969 148.176667 
L 232.985835 150.32 
L 233.469702 154.606667 
L 234.921302 161.036667 
L 235.405168 161.036667 
L 235.889035 156.75 
L 236.372901 163.18 
L 236.856768 165.323333 
L 237.340635 163.18 
L 237.824501 158.893333 
L 238.308368 165.323333 
L 238.792234 165.323333 
L 239.759968 169.61 
L 240.727701 169.61 
L 241.211567 163.18 
L 241.695434 165.323333 
L 242.1793 176.04 
L 242.663167 178.183333 
L 243.147034 173.896667 
L 243.6309 171.753333 
L 244.114767 176.04 
L 244.598633 173.896667 
L 245.0825 176.04 
L 245.566367 173.896667 
L 246.050233 167.466667 
L 246.5341 165.323333 
L 247.017966 161.036667 
L 247.501833 158.893333 
L 247.9857 154.606667 
L 248.469566 154.606667 
L 248.953433 156.75 
L 249.437299 163.18 
L 249.921166 158.893333 
L 250.405032 165.323333 
L 250.888899 156.75 
L 251.372766 152.463333 
L 251.856632 154.606667 
L 252.340499 154.606667 
L 252.824365 148.176667 
L 253.792099 148.176667 
L 254.275965 143.89 
L 254.759832 146.033333 
L 255.243698 139.603333 
L 255.727565 139.603333 
L 256.211432 137.46 
L 257.179165 137.46 
L 257.663031 141.746667 
L 258.146898 143.89 
L 258.630764 141.746667 
L 259.598498 122.456667 
L 260.082364 124.6 
L 260.566231 128.886667 
L 261.050097 120.313333 
L 262.017831 128.886667 
L 262.501697 128.886667 
L 262.985564 133.173333 
L 263.46943 135.316667 
L 263.953297 139.603333 
L 264.437164 148.176667 
L 264.92103 146.033333 
L 265.404897 152.463333 
L 265.888763 156.75 
L 266.37263 156.75 
L 266.856496 161.036667 
L 267.340363 167.466667 
L 268.308096 167.466667 
L 268.791963 169.61 
L 269.275829 163.18 
L 270.243563 163.18 
L 270.727429 167.466667 
L 271.211296 158.893333 
L 271.695162 143.89 
L 272.179029 137.46 
L 272.662896 141.746667 
L 273.146762 139.603333 
L 273.630629 152.463333 
L 274.114495 152.463333 
L 274.598362 148.176667 
L 275.082228 148.176667 
L 275.566095 154.606667 
L 276.533828 141.746667 
L 277.017695 146.033333 
L 277.501561 141.746667 
L 277.985428 135.316667 
L 278.469295 131.03 
L 278.953161 128.886667 
L 279.920894 107.453333 
L 280.404761 111.74 
L 280.888628 107.453333 
L 281.372494 109.596667 
L 281.856361 107.453333 
L 282.340227 109.596667 
L 283.30796 109.596667 
L 283.791827 111.74 
L 284.275694 118.17 
L 284.75956 118.17 
L 285.243427 98.88 
L 285.727293 103.166667 
L 286.21116 116.026667 
L 286.695027 116.026667 
L 287.66276 111.74 
L 288.146626 98.88 
L 289.11436 107.453333 
L 289.598226 103.166667 
L 290.082093 103.166667 
L 291.049826 111.74 
L 291.533692 111.74 
L 292.501426 120.313333 
L 292.985292 120.313333 
L 293.953025 124.6 
L 294.436892 133.173333 
L 294.920759 128.886667 
L 295.404625 133.173333 
L 295.888492 131.03 
L 296.856225 122.456667 
L 297.823958 122.456667 
L 298.307825 126.743333 
L 298.791691 122.456667 
L 299.275558 126.743333 
L 299.759424 139.603333 
L 300.243291 139.603333 
L 300.727158 143.89 
L 301.211024 150.32 
L 301.694891 150.32 
L 302.178757 158.893333 
L 302.662624 161.036667 
L 303.146491 161.036667 
L 303.630357 158.893333 
L 304.114224 158.893333 
L 304.59809 156.75 
L 305.081957 158.893333 
L 305.565823 154.606667 
L 306.04969 148.176667 
L 306.533557 148.176667 
L 307.017423 143.89 
L 307.50129 141.746667 
L 307.985156 135.316667 
L 308.469023 143.89 
L 308.95289 148.176667 
L 309.436756 148.176667 
L 310.404489 143.89 
L 310.888356 143.89 
L 311.372223 139.603333 
L 311.856089 137.46 
L 312.823822 137.46 
L 313.307689 135.316667 
L 313.791555 135.316667 
L 314.275422 133.173333 
L 314.759289 139.603333 
L 315.243155 135.316667 
L 316.210888 135.316667 
L 316.694755 131.03 
L 317.178622 139.603333 
L 317.662488 141.746667 
L 318.146355 148.176667 
L 318.630221 152.463333 
L 319.114088 146.033333 
L 320.081821 146.033333 
L 320.565688 150.32 
L 321.049554 141.746667 
L 321.533421 150.32 
L 322.017287 150.32 
L 322.501154 156.75 
L 322.985021 152.463333 
L 323.468887 146.033333 
L 323.952754 141.746667 
L 324.920487 137.46 
L 325.404354 141.746667 
L 325.88822 143.89 
L 326.372087 143.89 
L 326.855953 146.033333 
L 327.33982 143.89 
L 327.823687 150.32 
L 328.307553 150.32 
L 328.79142 156.75 
L 329.275286 152.463333 
L 329.759153 152.463333 
L 330.243019 148.176667 
L 330.726886 150.32 
L 331.210753 150.32 
L 332.178486 146.033333 
L 332.662352 141.746667 
L 333.146219 143.89 
L 333.630086 148.176667 
L 334.597819 152.463333 
L 335.081685 148.176667 
L 335.565552 152.463333 
L 336.049419 146.033333 
L 336.533285 141.746667 
L 337.017152 131.03 
L 337.984885 126.743333 
L 338.952618 135.316667 
L 339.436485 143.89 
L 339.920351 143.89 
L 340.404218 148.176667 
L 340.888084 148.176667 
L 341.371951 139.603333 
L 341.855818 128.886667 
L 342.339684 126.743333 
L 343.791284 133.173333 
L 344.275151 131.03 
L 344.759017 133.173333 
L 345.242884 122.456667 
L 345.72675 118.17 
L 346.210617 118.17 
L 346.694483 116.026667 
L 347.17835 120.313333 
L 347.662217 120.313333 
L 348.146083 122.456667 
L 348.62995 118.17 
L 349.597683 122.456667 
L 350.08155 126.743333 
L 350.565416 128.886667 
L 351.049283 135.316667 
L 351.533149 143.89 
L 352.984749 156.75 
L 353.468616 152.463333 
L 353.952482 146.033333 
L 354.436349 146.033333 
L 354.920215 143.89 
L 355.404082 133.173333 
L 355.887949 141.746667 
L 356.371815 156.75 
L 356.855682 156.75 
L 357.339548 154.606667 
L 357.823415 150.32 
L 358.307282 148.176667 
L 359.275015 152.463333 
L 359.758881 148.176667 
L 360.726615 152.463333 
L 361.210481 156.75 
L 361.694348 150.32 
L 362.178214 152.463333 
L 362.662081 148.176667 
L 363.145947 150.32 
L 363.629814 146.033333 
L 364.113681 148.176667 
L 364.597547 141.746667 
L 365.081414 137.46 
L 365.56528 135.316667 
L 366.049147 135.316667 
L 367.01688 143.89 
L 367.500747 139.603333 
L 367.984613 137.46 
L 368.46848 133.173333 
L 368.952347 122.456667 
L 369.436213 126.743333 
L 369.92008 137.46 
L 371.371679 131.03 
L 371.855546 131.03 
L 372.339413 135.316667 
L 372.823279 133.173333 
L 373.791012 124.6 
L 374.274879 139.603333 
L 374.758746 133.173333 
L 375.242612 131.03 
L 376.210345 135.316667 
L 376.694212 135.316667 
L 377.178079 143.89 
L 377.661945 141.746667 
L 379.597411 141.746667 
L 380.081278 143.89 
L 380.565145 143.89 
L 381.049011 139.603333 
L 381.532878 128.886667 
L 382.016744 126.743333 
L 382.500611 133.173333 
L 382.984478 143.89 
L 383.468344 146.033333 
L 383.952211 139.603333 
L 384.436077 141.746667 
L 384.919944 141.746667 
L 385.403811 139.603333 
L 385.887677 139.603333 
L 386.371544 141.746667 
L 386.85541 137.46 
L 387.339277 141.746667 
L 387.823143 150.32 
L 388.30701 150.32 
L 388.790877 146.033333 
L 389.274743 150.32 
L 389.75861 150.32 
L 390.242476 148.176667 
L 390.726343 152.463333 
L 391.21021 148.176667 
L 391.694076 139.603333 
L 392.177943 137.46 
L 394.597276 148.176667 
L 395.081142 146.033333 
L 395.565009 148.176667 
L 396.048875 154.606667 
L 397.016609 154.606667 
L 397.500475 150.32 
L 397.984342 154.606667 
L 398.468208 154.606667 
L 398.952075 156.75 
L 399.919808 165.323333 
L 400.403675 163.18 
L 400.887541 165.323333 
L 401.371408 171.753333 
L 401.855274 169.61 
L 402.339141 165.323333 
L 402.823008 167.466667 
L 403.306874 167.466667 
L 403.790741 173.896667 
L 404.758474 173.896667 
L 405.242341 167.466667 
L 405.726207 169.61 
L 406.210074 173.896667 
L 406.69394 176.04 
L 407.177807 180.326667 
L 407.661674 182.47 
L 408.14554 182.47 
L 408.629407 184.613333 
L 409.113273 184.613333 
L 409.59714 182.47 
L 410.081006 182.47 
L 410.564873 180.326667 
L 411.532606 184.613333 
L 412.016473 184.613333 
L 412.500339 182.47 
L 412.984206 186.756667 
L 413.951939 182.47 
L 414.435806 176.04 
L 414.919672 184.613333 
L 415.403539 182.47 
L 415.887406 176.04 
L 416.371272 178.183333 
L 416.855139 178.183333 
L 418.790605 186.756667 
L 419.274472 178.183333 
L 419.758338 171.753333 
L 420.242205 173.896667 
L 420.726071 169.61 
L 421.209938 173.896667 
L 422.177671 173.896667 
L 422.661538 176.04 
L 423.145404 171.753333 
L 423.629271 171.753333 
L 424.113138 178.183333 
L 425.080871 178.183333 
L 425.564737 180.326667 
L 426.048604 173.896667 
L 426.53247 178.183333 
L 427.016337 186.756667 
L 427.500204 188.9 
L 427.98407 193.186667 
L 428.467937 186.756667 
L 428.951803 188.9 
L 429.43567 182.47 
L 430.403403 186.756667 
L 430.88727 186.756667 
L 431.371136 191.043333 
L 431.371136 191.043333 
" clip-path="url(#pb775a9aebd)" style="fill: none; stroke-dasharray: 1.85,0.8; stroke-dashoffset: 0; stroke: #80ffb4; stroke-width: 0.5"/>
   </g>
   <g id="line2d_22">
    <path d="M 58.793864 291.78 
L 139.599584 291.78 
L 140.08345 289.636667 
L 154.115581 289.636667 
L 154.599448 291.78 
L 157.502648 291.78 
L 157.986514 289.636667 
L 160.405847 289.636667 
L 160.889714 287.493333 
L 161.857447 287.493333 
L 162.341313 285.35 
L 164.27678 285.35 
L 164.760646 283.206667 
L 166.696113 283.206667 
L 167.179979 278.92 
L 170.083179 278.92 
L 170.567045 276.776667 
L 174.437978 276.776667 
L 174.921845 274.633333 
L 175.405711 276.776667 
L 176.373445 272.49 
L 176.857311 274.633333 
L 178.792777 274.633333 
L 179.276644 272.49 
L 179.760511 268.203333 
L 180.728244 268.203333 
L 181.21211 263.916667 
L 181.695977 268.203333 
L 183.147577 268.203333 
L 184.11531 263.916667 
L 185.56691 263.916667 
L 186.050776 257.486667 
L 186.534643 257.486667 
L 187.018509 259.63 
L 187.502376 253.2 
L 187.986243 253.2 
L 188.470109 251.056667 
L 188.953976 246.77 
L 189.437842 246.77 
L 189.921709 240.34 
L 190.405576 238.196667 
L 190.889442 238.196667 
L 191.373309 233.91 
L 191.857175 233.91 
L 192.341042 231.766667 
L 192.824909 225.336667 
L 193.308775 221.05 
L 193.792642 218.906667 
L 194.276508 221.05 
L 195.244241 208.19 
L 196.211975 203.903333 
L 196.695841 203.903333 
L 197.179708 201.76 
L 197.663574 195.33 
L 199.115174 188.9 
L 200.082907 188.9 
L 200.566774 195.33 
L 202.018374 195.33 
L 202.50224 193.186667 
L 202.986107 193.186667 
L 203.469973 186.756667 
L 203.95384 186.756667 
L 204.437707 193.186667 
L 204.921573 188.9 
L 205.889306 193.186667 
L 206.373173 186.756667 
L 206.85704 182.47 
L 207.340906 188.9 
L 207.824773 191.043333 
L 208.308639 197.473333 
L 208.792506 195.33 
L 209.276372 199.616667 
L 209.760239 197.473333 
L 210.244106 201.76 
L 210.727972 201.76 
L 211.211839 197.473333 
L 211.695705 197.473333 
L 212.179572 201.76 
L 212.663439 203.903333 
L 213.147305 208.19 
L 213.631172 208.19 
L 214.115038 206.046667 
L 214.598905 201.76 
L 215.082772 195.33 
L 216.050505 191.043333 
L 216.534371 197.473333 
L 217.018238 199.616667 
L 217.502104 197.473333 
L 217.985971 203.903333 
L 218.469838 203.903333 
L 218.953704 201.76 
L 219.437571 208.19 
L 219.921437 201.76 
L 220.405304 203.903333 
L 220.889171 208.19 
L 221.373037 208.19 
L 221.856904 203.903333 
L 222.824637 203.903333 
L 223.79237 208.19 
L 224.276237 216.763333 
L 225.24397 216.763333 
L 225.727836 218.906667 
L 226.69557 214.62 
L 227.663303 201.76 
L 228.147169 197.473333 
L 228.631036 199.616667 
L 229.114903 199.616667 
L 229.598769 197.473333 
L 230.566502 197.473333 
L 231.050369 193.186667 
L 231.534236 191.043333 
L 232.018102 191.043333 
L 232.985835 195.33 
L 233.469702 195.33 
L 234.437435 199.616667 
L 234.921302 199.616667 
L 235.405168 188.9 
L 235.889035 188.9 
L 236.372901 193.186667 
L 236.856768 182.47 
L 237.340635 176.04 
L 237.824501 178.183333 
L 238.308368 176.04 
L 238.792234 176.04 
L 239.276101 171.753333 
L 240.727701 171.753333 
L 241.211567 167.466667 
L 241.695434 173.896667 
L 242.1793 173.896667 
L 242.663167 178.183333 
L 243.147034 176.04 
L 243.6309 176.04 
L 244.114767 180.326667 
L 244.598633 171.753333 
L 245.0825 171.753333 
L 245.566367 173.896667 
L 246.5341 173.896667 
L 247.017966 169.61 
L 247.501833 163.18 
L 247.9857 165.323333 
L 248.469566 156.75 
L 248.953433 158.893333 
L 249.437299 146.033333 
L 249.921166 156.75 
L 250.405032 154.606667 
L 250.888899 150.32 
L 251.372766 161.036667 
L 253.792099 161.036667 
L 254.275965 150.32 
L 254.759832 146.033333 
L 255.243698 148.176667 
L 255.727565 156.75 
L 256.211432 156.75 
L 256.695298 161.036667 
L 257.179165 158.893333 
L 257.663031 161.036667 
L 258.146898 158.893333 
L 258.630764 158.893333 
L 259.114631 163.18 
L 259.598498 154.606667 
L 260.082364 154.606667 
L 260.566231 152.463333 
L 261.050097 154.606667 
L 261.533964 158.893333 
L 262.017831 158.893333 
L 262.501697 152.463333 
L 262.985564 158.893333 
L 263.46943 156.75 
L 263.953297 161.036667 
L 264.437164 158.893333 
L 264.92103 161.036667 
L 265.404897 156.75 
L 265.888763 156.75 
L 266.37263 158.893333 
L 266.856496 152.463333 
L 267.340363 154.606667 
L 267.82423 148.176667 
L 268.308096 146.033333 
L 268.791963 156.75 
L 269.275829 152.463333 
L 269.759696 152.463333 
L 270.243563 148.176667 
L 270.727429 146.033333 
L 271.211296 137.46 
L 271.695162 137.46 
L 272.662896 141.746667 
L 273.146762 141.746667 
L 273.630629 139.603333 
L 274.114495 146.033333 
L 274.598362 146.033333 
L 275.082228 148.176667 
L 275.566095 146.033333 
L 276.533828 146.033333 
L 277.017695 150.32 
L 277.501561 143.89 
L 277.985428 143.89 
L 278.469295 148.176667 
L 278.953161 141.746667 
L 279.437028 146.033333 
L 279.920894 152.463333 
L 280.404761 148.176667 
L 280.888628 148.176667 
L 281.372494 154.606667 
L 281.856361 152.463333 
L 282.824094 156.75 
L 283.30796 156.75 
L 283.791827 158.893333 
L 284.275694 156.75 
L 284.75956 161.036667 
L 285.243427 161.036667 
L 285.727293 171.753333 
L 286.21116 171.753333 
L 286.695027 163.18 
L 287.178893 165.323333 
L 287.66276 165.323333 
L 288.146626 163.18 
L 288.630493 167.466667 
L 289.11436 163.18 
L 289.598226 154.606667 
L 290.082093 150.32 
L 290.565959 141.746667 
L 291.049826 146.033333 
L 291.533692 139.603333 
L 292.017559 143.89 
L 292.501426 143.89 
L 292.985292 137.46 
L 293.469159 141.746667 
L 293.953025 137.46 
L 294.436892 128.886667 
L 294.920759 124.6 
L 295.404625 126.743333 
L 295.888492 122.456667 
L 296.372358 124.6 
L 296.856225 124.6 
L 297.340091 128.886667 
L 298.307825 133.173333 
L 298.791691 116.026667 
L 299.275558 111.74 
L 299.759424 111.74 
L 300.243291 98.88 
L 300.727158 98.88 
L 301.211024 107.453333 
L 301.694891 105.31 
L 302.178757 105.31 
L 302.662624 111.74 
L 303.146491 109.596667 
L 304.114224 118.17 
L 304.59809 126.743333 
L 305.081957 133.173333 
L 306.04969 137.46 
L 306.533557 131.03 
L 307.017423 122.456667 
L 307.50129 126.743333 
L 307.985156 126.743333 
L 308.469023 131.03 
L 308.95289 139.603333 
L 309.436756 143.89 
L 309.920623 141.746667 
L 310.404489 141.746667 
L 310.888356 135.316667 
L 311.372223 135.316667 
L 311.856089 128.886667 
L 312.339956 124.6 
L 312.823822 122.456667 
L 313.307689 141.746667 
L 313.791555 137.46 
L 314.275422 139.603333 
L 314.759289 146.033333 
L 315.243155 146.033333 
L 315.727022 141.746667 
L 316.210888 126.743333 
L 316.694755 128.886667 
L 317.178622 133.173333 
L 317.662488 128.886667 
L 318.630221 133.173333 
L 319.114088 131.03 
L 320.081821 122.456667 
L 320.565688 126.743333 
L 321.049554 128.886667 
L 321.533421 128.886667 
L 322.501154 137.46 
L 322.985021 135.316667 
L 323.468887 131.03 
L 323.952754 135.316667 
L 324.43662 131.03 
L 324.920487 133.173333 
L 325.404354 137.46 
L 325.88822 135.316667 
L 326.372087 139.603333 
L 326.855953 139.603333 
L 327.33982 143.89 
L 327.823687 143.89 
L 328.307553 152.463333 
L 329.275286 143.89 
L 329.759153 143.89 
L 330.243019 146.033333 
L 330.726886 158.893333 
L 331.210753 156.75 
L 331.694619 148.176667 
L 332.662352 139.603333 
L 333.146219 139.603333 
L 333.630086 135.316667 
L 334.113952 143.89 
L 334.597819 146.033333 
L 335.081685 139.603333 
L 335.565552 141.746667 
L 336.049419 154.606667 
L 336.533285 154.606667 
L 337.501018 150.32 
L 337.984885 154.606667 
L 338.468751 146.033333 
L 338.952618 152.463333 
L 339.436485 146.033333 
L 339.920351 137.46 
L 340.404218 139.603333 
L 340.888084 139.603333 
L 341.371951 137.46 
L 341.855818 131.03 
L 342.339684 122.456667 
L 342.823551 116.026667 
L 343.307417 118.17 
L 343.791284 124.6 
L 344.759017 124.6 
L 345.72675 128.886667 
L 346.210617 135.316667 
L 346.694483 139.603333 
L 348.146083 139.603333 
L 349.113816 131.03 
L 350.08155 135.316667 
L 350.565416 131.03 
L 351.049283 128.886667 
L 351.533149 128.886667 
L 352.017016 133.173333 
L 352.500883 133.173333 
L 352.984749 139.603333 
L 353.468616 137.46 
L 353.952482 141.746667 
L 354.436349 152.463333 
L 354.920215 148.176667 
L 355.404082 148.176667 
L 356.371815 156.75 
L 356.855682 167.466667 
L 357.339548 169.61 
L 358.307282 169.61 
L 358.791148 171.753333 
L 359.275015 169.61 
L 359.758881 165.323333 
L 360.726615 165.323333 
L 361.210481 169.61 
L 361.694348 161.036667 
L 362.178214 163.18 
L 362.662081 169.61 
L 363.145947 167.466667 
L 364.597547 180.326667 
L 365.081414 176.04 
L 365.56528 178.183333 
L 366.049147 178.183333 
L 367.500747 165.323333 
L 368.46848 165.323333 
L 368.952347 163.18 
L 369.436213 167.466667 
L 369.92008 167.466667 
L 370.403946 165.323333 
L 370.887813 167.466667 
L 371.371679 158.893333 
L 371.855546 158.893333 
L 372.339413 156.75 
L 372.823279 161.036667 
L 373.307146 156.75 
L 373.791012 158.893333 
L 374.274879 165.323333 
L 375.726479 158.893333 
L 376.210345 167.466667 
L 377.178079 167.466667 
L 377.661945 171.753333 
L 378.145812 173.896667 
L 378.629678 169.61 
L 379.113545 163.18 
L 379.597411 167.466667 
L 380.081278 163.18 
L 380.565145 167.466667 
L 381.049011 163.18 
L 382.016744 176.04 
L 382.500611 176.04 
L 382.984478 171.753333 
L 383.468344 171.753333 
L 383.952211 173.896667 
L 384.919944 169.61 
L 385.403811 169.61 
L 385.887677 173.896667 
L 386.371544 171.753333 
L 386.85541 171.753333 
L 387.339277 165.323333 
L 387.823143 165.323333 
L 389.274743 158.893333 
L 389.75861 161.036667 
L 390.242476 158.893333 
L 390.726343 154.606667 
L 391.21021 156.75 
L 391.694076 152.463333 
L 392.177943 146.033333 
L 392.661809 141.746667 
L 393.145676 143.89 
L 393.629543 148.176667 
L 394.113409 148.176667 
L 394.597276 150.32 
L 395.081142 143.89 
L 395.565009 152.463333 
L 396.048875 146.033333 
L 397.016609 150.32 
L 397.500475 156.75 
L 397.984342 156.75 
L 398.468208 152.463333 
L 398.952075 158.893333 
L 399.435942 163.18 
L 399.919808 161.036667 
L 400.403675 161.036667 
L 400.887541 163.18 
L 401.371408 161.036667 
L 401.855274 156.75 
L 402.339141 158.893333 
L 402.823008 156.75 
L 403.306874 156.75 
L 404.274607 161.036667 
L 404.758474 165.323333 
L 405.242341 167.466667 
L 405.726207 161.036667 
L 406.210074 163.18 
L 406.69394 167.466667 
L 407.177807 163.18 
L 407.661674 165.323333 
L 408.14554 163.18 
L 408.629407 165.323333 
L 409.113273 165.323333 
L 409.59714 169.61 
L 410.081006 169.61 
L 410.564873 173.896667 
L 411.04874 167.466667 
L 412.016473 163.18 
L 412.500339 165.323333 
L 412.984206 169.61 
L 413.468073 169.61 
L 413.951939 171.753333 
L 414.435806 171.753333 
L 414.919672 169.61 
L 415.403539 169.61 
L 415.887406 173.896667 
L 416.371272 180.326667 
L 416.855139 182.47 
L 417.339005 171.753333 
L 417.822872 176.04 
L 418.306738 176.04 
L 418.790605 173.896667 
L 419.274472 169.61 
L 419.758338 173.896667 
L 420.242205 180.326667 
L 420.726071 180.326667 
L 421.209938 184.613333 
L 421.693805 193.186667 
L 422.177671 191.043333 
L 422.661538 195.33 
L 423.629271 199.616667 
L 424.113138 199.616667 
L 424.597004 195.33 
L 425.080871 195.33 
L 426.53247 201.76 
L 427.016337 195.33 
L 427.500204 193.186667 
L 427.98407 193.186667 
L 428.467937 184.613333 
L 428.951803 184.613333 
L 429.43567 188.9 
L 429.919537 188.9 
L 430.403403 184.613333 
L 431.371136 188.9 
L 431.371136 188.9 
" clip-path="url(#pb775a9aebd)" style="fill: none; stroke-dasharray: 1.85,0.8; stroke-dashoffset: 0; stroke: #ffb360; stroke-width: 0.5"/>
   </g>
   <g id="line2d_23">
    <path d="M 58.793864 291.78 
L 146.373716 291.78 
L 146.857583 289.636667 
L 149.276916 289.636667 
L 149.760782 287.493333 
L 160.889714 287.493333 
L 161.37358 289.636667 
L 163.792913 289.636667 
L 164.27678 291.78 
L 168.631579 291.78 
L 169.599312 287.493333 
L 172.986378 287.493333 
L 173.470245 285.35 
L 175.405711 285.35 
L 176.857311 278.92 
L 177.825044 278.92 
L 178.308911 276.776667 
L 178.792777 272.49 
L 181.21211 272.49 
L 182.179844 268.203333 
L 182.66371 268.203333 
L 183.147577 266.06 
L 184.11531 270.346667 
L 185.083043 270.346667 
L 186.050776 266.06 
L 186.534643 266.06 
L 187.018509 263.916667 
L 188.470109 263.916667 
L 188.953976 259.63 
L 189.921709 259.63 
L 190.889442 263.916667 
L 191.373309 263.916667 
L 191.857175 261.773333 
L 192.341042 261.773333 
L 192.824909 263.916667 
L 193.308775 268.203333 
L 193.792642 266.06 
L 194.760375 257.486667 
L 195.244241 251.056667 
L 195.728108 246.77 
L 196.211975 244.626667 
L 197.179708 244.626667 
L 197.663574 242.483333 
L 198.147441 238.196667 
L 198.631308 238.196667 
L 199.115174 231.766667 
L 200.082907 231.766667 
L 200.566774 233.91 
L 201.05064 231.766667 
L 201.534507 227.48 
L 202.986107 227.48 
L 203.469973 229.623333 
L 203.95384 227.48 
L 204.437707 227.48 
L 205.889306 221.05 
L 206.373173 216.763333 
L 206.85704 216.763333 
L 207.824773 208.19 
L 208.308639 208.19 
L 208.792506 206.046667 
L 209.276372 210.333333 
L 209.760239 206.046667 
L 210.244106 206.046667 
L 210.727972 210.333333 
L 211.211839 210.333333 
L 211.695705 206.046667 
L 212.663439 210.333333 
L 213.147305 210.333333 
L 213.631172 212.476667 
L 214.115038 206.046667 
L 214.598905 201.76 
L 215.082772 195.33 
L 215.566638 193.186667 
L 216.050505 195.33 
L 217.018238 195.33 
L 217.502104 191.043333 
L 217.985971 193.186667 
L 218.469838 193.186667 
L 218.953704 191.043333 
L 219.921437 191.043333 
L 220.889171 195.33 
L 221.373037 193.186667 
L 221.856904 197.473333 
L 222.824637 201.76 
L 223.308504 208.19 
L 223.79237 208.19 
L 224.276237 214.62 
L 224.760103 212.476667 
L 225.24397 212.476667 
L 225.727836 210.333333 
L 226.211703 212.476667 
L 226.69557 212.476667 
L 227.663303 208.19 
L 228.631036 212.476667 
L 229.114903 218.906667 
L 229.598769 223.193333 
L 230.082636 225.336667 
L 230.566502 229.623333 
L 231.050369 225.336667 
L 232.018102 229.623333 
L 232.501969 223.193333 
L 232.985835 225.336667 
L 233.469702 221.05 
L 234.437435 221.05 
L 235.405168 216.763333 
L 236.372901 216.763333 
L 236.856768 218.906667 
L 237.340635 210.333333 
L 238.308368 206.046667 
L 239.276101 214.62 
L 239.759968 214.62 
L 240.243834 218.906667 
L 240.727701 216.763333 
L 241.211567 216.763333 
L 242.1793 221.05 
L 243.6309 221.05 
L 244.114767 212.476667 
L 244.598633 214.62 
L 245.0825 212.476667 
L 245.566367 214.62 
L 246.050233 208.19 
L 247.017966 212.476667 
L 247.501833 201.76 
L 247.9857 206.046667 
L 248.469566 195.33 
L 248.953433 195.33 
L 249.437299 191.043333 
L 249.921166 182.47 
L 250.405032 178.183333 
L 251.372766 173.896667 
L 251.856632 178.183333 
L 252.340499 178.183333 
L 253.308232 169.61 
L 253.792099 167.466667 
L 255.243698 154.606667 
L 255.727565 152.463333 
L 256.211432 148.176667 
L 256.695298 139.603333 
L 257.179165 137.46 
L 257.663031 131.03 
L 258.146898 131.03 
L 258.630764 135.316667 
L 260.082364 128.886667 
L 260.566231 128.886667 
L 261.050097 126.743333 
L 261.533964 122.456667 
L 262.017831 126.743333 
L 262.501697 120.313333 
L 262.985564 131.03 
L 263.46943 131.03 
L 263.953297 128.886667 
L 264.437164 137.46 
L 264.92103 139.603333 
L 265.404897 139.603333 
L 265.888763 135.316667 
L 266.37263 135.316667 
L 266.856496 133.173333 
L 267.340363 135.316667 
L 267.82423 135.316667 
L 268.308096 137.46 
L 269.275829 137.46 
L 269.759696 143.89 
L 270.243563 143.89 
L 270.727429 148.176667 
L 271.211296 156.75 
L 271.695162 158.893333 
L 272.179029 165.323333 
L 272.662896 161.036667 
L 273.146762 154.606667 
L 273.630629 156.75 
L 274.598362 156.75 
L 275.082228 161.036667 
L 275.566095 150.32 
L 276.049962 152.463333 
L 276.533828 156.75 
L 277.017695 163.18 
L 277.985428 158.893333 
L 278.953161 158.893333 
L 279.437028 161.036667 
L 279.920894 161.036667 
L 281.372494 173.896667 
L 281.856361 171.753333 
L 282.340227 173.896667 
L 282.824094 171.753333 
L 283.30796 176.04 
L 283.791827 176.04 
L 284.275694 169.61 
L 285.243427 169.61 
L 285.727293 163.18 
L 286.21116 158.893333 
L 286.695027 158.893333 
L 287.178893 161.036667 
L 287.66276 158.893333 
L 288.146626 152.463333 
L 288.630493 152.463333 
L 289.11436 154.606667 
L 289.598226 152.463333 
L 290.082093 158.893333 
L 290.565959 163.18 
L 291.049826 161.036667 
L 292.017559 165.323333 
L 292.501426 165.323333 
L 292.985292 169.61 
L 293.469159 161.036667 
L 293.953025 163.18 
L 294.920759 163.18 
L 295.888492 158.893333 
L 296.372358 158.893333 
L 296.856225 154.606667 
L 297.340091 146.033333 
L 297.823958 143.89 
L 298.307825 139.603333 
L 298.791691 141.746667 
L 299.275558 141.746667 
L 300.243291 137.46 
L 300.727158 141.746667 
L 301.211024 143.89 
L 301.694891 139.603333 
L 302.178757 152.463333 
L 302.662624 156.75 
L 303.146491 158.893333 
L 303.630357 156.75 
L 304.114224 156.75 
L 305.081957 152.463333 
L 305.565823 152.463333 
L 306.04969 148.176667 
L 306.533557 139.603333 
L 307.017423 137.46 
L 307.50129 139.603333 
L 307.985156 150.32 
L 308.469023 143.89 
L 308.95289 143.89 
L 309.920623 135.316667 
L 310.404489 128.886667 
L 310.888356 133.173333 
L 311.372223 135.316667 
L 311.856089 148.176667 
L 312.339956 148.176667 
L 312.823822 154.606667 
L 313.307689 152.463333 
L 314.275422 156.75 
L 314.759289 163.18 
L 315.243155 158.893333 
L 315.727022 156.75 
L 316.210888 152.463333 
L 316.694755 150.32 
L 317.178622 146.033333 
L 317.662488 148.176667 
L 318.146355 143.89 
L 318.630221 146.033333 
L 319.114088 150.32 
L 320.081821 154.606667 
L 320.565688 152.463333 
L 321.049554 161.036667 
L 321.533421 167.466667 
L 322.501154 171.753333 
L 322.985021 171.753333 
L 323.952754 176.04 
L 324.43662 173.896667 
L 324.920487 176.04 
L 325.404354 176.04 
L 325.88822 178.183333 
L 326.372087 171.753333 
L 326.855953 169.61 
L 327.33982 165.323333 
L 327.823687 173.896667 
L 328.307553 173.896667 
L 328.79142 165.323333 
L 329.275286 161.036667 
L 329.759153 161.036667 
L 330.243019 154.606667 
L 330.726886 161.036667 
L 331.210753 161.036667 
L 331.694619 167.466667 
L 332.178486 165.323333 
L 332.662352 173.896667 
L 333.146219 169.61 
L 333.630086 173.896667 
L 335.081685 161.036667 
L 335.565552 161.036667 
L 336.049419 154.606667 
L 336.533285 150.32 
L 337.017152 150.32 
L 337.501018 156.75 
L 338.468751 148.176667 
L 338.952618 154.606667 
L 339.920351 154.606667 
L 340.404218 152.463333 
L 341.371951 152.463333 
L 341.855818 154.606667 
L 342.339684 143.89 
L 342.823551 146.033333 
L 343.307417 152.463333 
L 343.791284 156.75 
L 344.275151 154.606667 
L 344.759017 161.036667 
L 345.242884 158.893333 
L 345.72675 161.036667 
L 346.210617 152.463333 
L 346.694483 146.033333 
L 347.17835 141.746667 
L 347.662217 148.176667 
L 348.146083 141.746667 
L 348.62995 141.746667 
L 349.597683 150.32 
L 350.08155 152.463333 
L 350.565416 152.463333 
L 351.049283 158.893333 
L 352.017016 154.606667 
L 352.500883 150.32 
L 352.984749 154.606667 
L 353.468616 148.176667 
L 353.952482 148.176667 
L 354.436349 139.603333 
L 354.920215 141.746667 
L 355.887949 141.746667 
L 356.371815 143.89 
L 356.855682 152.463333 
L 357.339548 141.746667 
L 357.823415 146.033333 
L 358.307282 148.176667 
L 358.791148 148.176667 
L 359.275015 150.32 
L 359.758881 154.606667 
L 360.242748 152.463333 
L 361.210481 161.036667 
L 361.694348 161.036667 
L 362.178214 154.606667 
L 362.662081 156.75 
L 363.629814 148.176667 
L 364.113681 154.606667 
L 365.081414 150.32 
L 365.56528 141.746667 
L 366.049147 143.89 
L 366.533014 143.89 
L 367.01688 152.463333 
L 368.46848 158.893333 
L 368.952347 165.323333 
L 369.436213 158.893333 
L 369.92008 161.036667 
L 370.887813 156.75 
L 371.371679 152.463333 
L 371.855546 158.893333 
L 372.339413 148.176667 
L 372.823279 141.746667 
L 373.307146 141.746667 
L 373.791012 135.316667 
L 374.274879 131.03 
L 374.758746 133.173333 
L 375.242612 128.886667 
L 375.726479 126.743333 
L 376.210345 126.743333 
L 376.694212 133.173333 
L 377.178079 133.173333 
L 377.661945 139.603333 
L 378.145812 141.746667 
L 378.629678 135.316667 
L 379.113545 133.173333 
L 379.597411 139.603333 
L 380.081278 139.603333 
L 380.565145 135.316667 
L 381.049011 135.316667 
L 381.532878 133.173333 
L 382.016744 133.173333 
L 382.984478 137.46 
L 383.468344 137.46 
L 384.436077 141.746667 
L 384.919944 137.46 
L 385.403811 137.46 
L 386.371544 141.746667 
L 386.85541 152.463333 
L 387.339277 152.463333 
L 387.823143 156.75 
L 388.30701 163.18 
L 388.790877 165.323333 
L 390.242476 158.893333 
L 390.726343 161.036667 
L 391.21021 158.893333 
L 391.694076 154.606667 
L 392.661809 154.606667 
L 393.145676 150.32 
L 393.629543 150.32 
L 394.113409 148.176667 
L 394.597276 150.32 
L 395.081142 150.32 
L 395.565009 152.463333 
L 396.532742 143.89 
L 397.016609 143.89 
L 397.500475 137.46 
L 397.984342 137.46 
L 398.468208 141.746667 
L 398.952075 133.173333 
L 399.435942 141.746667 
L 399.919808 135.316667 
L 400.403675 137.46 
L 400.887541 137.46 
L 401.371408 135.316667 
L 401.855274 137.46 
L 402.339141 141.746667 
L 402.823008 143.89 
L 403.306874 143.89 
L 403.790741 146.033333 
L 404.274607 156.75 
L 404.758474 161.036667 
L 405.242341 163.18 
L 405.726207 163.18 
L 406.69394 171.753333 
L 407.177807 169.61 
L 407.661674 173.896667 
L 408.14554 169.61 
L 408.629407 171.753333 
L 409.59714 171.753333 
L 410.081006 167.466667 
L 410.564873 171.753333 
L 411.04874 173.896667 
L 412.016473 182.47 
L 412.500339 182.47 
L 412.984206 176.04 
L 413.468073 182.47 
L 413.951939 184.613333 
L 414.435806 195.33 
L 415.403539 199.616667 
L 416.371272 199.616667 
L 416.855139 191.043333 
L 417.339005 184.613333 
L 417.822872 182.47 
L 418.306738 182.47 
L 418.790605 178.183333 
L 419.274472 178.183333 
L 419.758338 171.753333 
L 420.242205 169.61 
L 420.726071 171.753333 
L 421.209938 171.753333 
L 421.693805 176.04 
L 422.661538 188.9 
L 423.145404 186.756667 
L 424.113138 195.33 
L 424.597004 191.043333 
L 425.080871 193.186667 
L 426.048604 193.186667 
L 427.016337 197.473333 
L 427.500204 203.903333 
L 427.98407 208.19 
L 428.467937 201.76 
L 428.951803 201.76 
L 429.919537 197.473333 
L 430.88727 197.473333 
L 431.371136 203.903333 
L 431.371136 203.903333 
" clip-path="url(#pb775a9aebd)" style="fill: none; stroke-dasharray: 1.85,0.8; stroke-dashoffset: 0; stroke: #ff0000; stroke-width: 0.5"/>
   </g>
   <g id="patch_3">
    <path d="M 40.165 304.64 
L 40.165 21.72 
" style="fill: none; stroke: #000000; stroke-width: 0.8; stroke-linejoin: miter; stroke-linecap: square"/>
   </g>
   <g id="patch_4">
    <path d="M 450 304.64 
L 450 21.72 
" style="fill: none; stroke: #000000; stroke-width: 0.8; stroke-linejoin: miter; stroke-linecap: square"/>
   </g>
   <g id="patch_5">
    <path d="M 40.165 304.64 
L 450 304.64 
" style="fill: none; stroke: #000000; stroke-width: 0.8; stroke-linejoin: miter; stroke-linecap: square"/>
   </g>
   <g id="patch_6">
    <path d="M 40.165 21.72 
L 450 21.72 
" style="fill: none; stroke: #000000; stroke-width: 0.8; stroke-linejoin: miter; stroke-linecap: square"/>
   </g>
   <g id="text_21">
    <!-- Heating Rate ($^{\circ}C.s^{-1}$) -->
    <g transform="translate(286.066 50.012) scale(0.12 -0.12)">
     <defs>
      <path id="DejaVuSans-48" d="M 628 4666 
L 1259 4666 
L 1259 2753 
L 3553 2753 
L 3553 4666 
L 4184 4666 
L 4184 0 
L 3553 0 
L 3553 2222 
L 1259 2222 
L 1259 0 
L 628 0 
L 628 4666 
z
" transform="scale(0.015625)"/>
      <path id="DejaVuSans-67" d="M 2906 1791 
Q 2906 2416 2648 2759 
Q 2391 3103 1925 3103 
Q 1463 3103 1205 2759 
Q 947 2416 947 1791 
Q 947 1169 1205 825 
Q 1463 481 1925 481 
Q 2391 481 2648 825 
Q 2906 1169 2906 1791 
z
M 3481 434 
Q 3481 -459 3084 -895 
Q 2688 -1331 1869 -1331 
Q 1566 -1331 1297 -1286 
Q 1028 -1241 775 -1147 
L 775 -588 
Q 1028 -725 1275 -790 
Q 1522 -856 1778 -856 
Q 2344 -856 2625 -561 
Q 2906 -266 2906 331 
L 2906 616 
Q 2728 306 2450 153 
Q 2172 0 1784 0 
Q 1141 0 747 490 
Q 353 981 353 1791 
Q 353 2603 747 3093 
Q 1141 3584 1784 3584 
Q 2172 3584 2450 3431 
Q 2728 3278 2906 2969 
L 2906 3500 
L 3481 3500 
L 3481 434 
z
" transform="scale(0.015625)"/>
      <path id="DejaVuSans-52" d="M 2841 2188 
Q 3044 2119 3236 1894 
Q 3428 1669 3622 1275 
L 4263 0 
L 3584 0 
L 2988 1197 
Q 2756 1666 2539 1819 
Q 2322 1972 1947 1972 
L 1259 1972 
L 1259 0 
L 628 0 
L 628 4666 
L 2053 4666 
Q 2853 4666 3247 4331 
Q 3641 3997 3641 3322 
Q 3641 2881 3436 2590 
Q 3231 2300 2841 2188 
z
M 1259 4147 
L 1259 2491 
L 2053 2491 
Q 2509 2491 2742 2702 
Q 2975 2913 2975 3322 
Q 2975 3731 2742 3939 
Q 2509 4147 2053 4147 
L 1259 4147 
z
" transform="scale(0.015625)"/>
      <path id="DejaVuSans-Oblique-73" d="M 3200 3397 
L 3091 2853 
Q 2863 2978 2609 3040 
Q 2356 3103 2088 3103 
Q 1634 3103 1373 2948 
Q 1113 2794 1113 2528 
Q 1113 2219 1719 2053 
Q 1766 2041 1788 2034 
L 1972 1978 
Q 2547 1819 2739 1644 
Q 2931 1469 2931 1166 
Q 2931 609 2489 259 
Q 2047 -91 1331 -91 
Q 1053 -91 747 -37 
Q 441 16 72 128 
L 184 722 
Q 500 559 806 475 
Q 1113 391 1394 391 
Q 1816 391 2080 572 
Q 2344 753 2344 1031 
Q 2344 1331 1650 1516 
L 1591 1531 
L 1394 1581 
Q 956 1697 753 1886 
Q 550 2075 550 2369 
Q 550 2928 970 3256 
Q 1391 3584 2113 3584 
Q 2397 3584 2667 3537 
Q 2938 3491 3200 3397 
z
" transform="scale(0.015625)"/>
     </defs>
     <use xlink:href="#DejaVuSans-48" transform="translate(0 0.684375)"/>
     <use xlink:href="#DejaVuSans-65" transform="translate(75.195312 0.684375)"/>
     <use xlink:href="#DejaVuSans-61" transform="translate(136.71875 0.684375)"/>
     <use xlink:href="#DejaVuSans-74" transform="translate(197.998047 0.684375)"/>
     <use xlink:href="#DejaVuSans-69" transform="translate(237.207031 0.684375)"/>
     <use xlink:href="#DejaVuSans-6e" transform="translate(264.990234 0.684375)"/>
     <use xlink:href="#DejaVuSans-67" transform="translate(328.369141 0.684375)"/>
     <use xlink:href="#DejaVuSans-20" transform="translate(391.845703 0.684375)"/>
     <use xlink:href="#DejaVuSans-52" transform="translate(423.632812 0.684375)"/>
     <use xlink:href="#DejaVuSans-61" transform="translate(493.115234 0.684375)"/>
     <use xlink:href="#DejaVuSans-74" transform="translate(554.394531 0.684375)"/>
     <use xlink:href="#DejaVuSans-65" transform="translate(593.603516 0.684375)"/>
     <use xlink:href="#DejaVuSans-20" transform="translate(655.126953 0.684375)"/>
     <use xlink:href="#DejaVuSans-28" transform="translate(686.914062 0.684375)"/>
     <use xlink:href="#DejaVuSans-2218" transform="translate(726.884766 38.965625) scale(0.7)"/>
     <use xlink:href="#DejaVuSans-Oblique-43" transform="translate(773.4375 0.684375)"/>
     <use xlink:href="#DejaVuSans-2e" transform="translate(843.261719 0.684375)"/>
     <use xlink:href="#DejaVuSans-Oblique-73" transform="translate(894.53125 0.684375)"/>
     <use xlink:href="#DejaVuSans-2212" transform="translate(951.280755 38.965625) scale(0.7)"/>
     <use xlink:href="#DejaVuSans-31" transform="translate(1009.933099 38.965625) scale(0.7)"/>
     <use xlink:href="#DejaVuSans-29" transform="translate(1057.203607 0.684375)"/>
    </g>
   </g>
   <g id="legend_1">
    <g id="patch_7">
     <path d="M 334.0495 131.402625 
L 381.952625 131.402625 
Q 383.952625 131.402625 383.952625 129.402625 
L 383.952625 57.012 
Q 383.952625 55.012 381.952625 55.012 
L 334.0495 55.012 
Q 332.0495 55.012 332.0495 57.012 
L 332.0495 129.402625 
Q 332.0495 131.402625 334.0495 131.402625 
z
" style="fill: #ffffff; opacity: 0.8; stroke: #cccccc; stroke-linejoin: miter"/>
    </g>
    <g id="line2d_24">
     <path d="M 336.0495 63.110437 
L 346.0495 63.110437 
L 356.0495 63.110437 
" style="fill: none; stroke-dasharray: 1.85,0.8; stroke-dashoffset: 0; stroke: #8000ff; stroke-width: 0.5"/>
    </g>
    <g id="text_22">
     <!-- 0.1 -->
     <g transform="translate(364.0495 66.610437) scale(0.1 -0.1)">
      <use xlink:href="#DejaVuSans-30"/>
      <use xlink:href="#DejaVuSans-2e" transform="translate(63.623047 0)"/>
      <use xlink:href="#DejaVuSans-31" transform="translate(95.410156 0)"/>
     </g>
    </g>
    <g id="line2d_25">
     <path d="M 336.0495 77.788563 
L 346.0495 77.788563 
L 356.0495 77.788563 
" style="fill: none; stroke-dasharray: 1.85,0.8; stroke-dashoffset: 0; stroke: #00b5eb; stroke-width: 0.5"/>
    </g>
    <g id="text_23">
     <!-- 1 -->
     <g transform="translate(364.0495 81.288563) scale(0.1 -0.1)">
      <use xlink:href="#DejaVuSans-31"/>
     </g>
    </g>
    <g id="line2d_26">
     <path d="M 336.0495 92.466687 
L 346.0495 92.466687 
L 356.0495 92.466687 
" style="fill: none; stroke-dasharray: 1.85,0.8; stroke-dashoffset: 0; stroke: #80ffb4; stroke-width: 0.5"/>
    </g>
    <g id="text_24">
     <!-- 5 -->
     <g transform="translate(364.0495 95.966687) scale(0.1 -0.1)">
      <use xlink:href="#DejaVuSans-35"/>
     </g>
    </g>
    <g id="line2d_27">
     <path d="M 336.0495 107.144813 
L 346.0495 107.144813 
L 356.0495 107.144813 
" style="fill: none; stroke-dasharray: 1.85,0.8; stroke-dashoffset: 0; stroke: #ffb360; stroke-width: 0.5"/>
    </g>
    <g id="text_25">
     <!-- 10 -->
     <g transform="translate(364.0495 110.644813) scale(0.1 -0.1)">
      <use xlink:href="#DejaVuSans-31"/>
      <use xlink:href="#DejaVuSans-30" transform="translate(63.623047 0)"/>
     </g>
    </g>
    <g id="line2d_28">
     <path d="M 336.0495 121.822937 
L 346.0495 121.822937 
L 356.0495 121.822937 
" style="fill: none; stroke-dasharray: 1.85,0.8; stroke-dashoffset: 0; stroke: #ff0000; stroke-width: 0.5"/>
    </g>
    <g id="text_26">
     <!-- 20 -->
     <g transform="translate(364.0495 125.322937) scale(0.1 -0.1)">
      <use xlink:href="#DejaVuSans-32"/>
      <use xlink:href="#DejaVuSans-30" transform="translate(63.623047 0)"/>
     </g>
    </g>
   </g>
  </g>
 </g>
 <defs>
  <clipPath id="pb775a9aebd">
   <rect x="40.165" y="21.72" width="409.835" height="282.92"/>
  </clipPath>
 </defs>
</svg>
