<?xml version="1.0" encoding="utf-8" standalone="no"?>
<!DOCTYPE svg PUBLIC "-//W3C//DTD SVG 1.1//EN"
  "http://www.w3.org/Graphics/SVG/1.1/DTD/svg11.dtd">
<svg xmlns:xlink="http://www.w3.org/1999/xlink" width="460.8pt" height="345.6pt" viewBox="0 0 460.8 345.6" xmlns="http://www.w3.org/2000/svg" version="1.1">
 <metadata>
  <rdf:RDF xmlns:dc="http://purl.org/dc/elements/1.1/" xmlns:cc="http://creativecommons.org/ns#" xmlns:rdf="http://www.w3.org/1999/02/22-rdf-syntax-ns#">
   <cc:Work>
    <dc:type rdf:resource="http://purl.org/dc/dcmitype/StillImage"/>
    <dc:date>2025-03-12T19:47:37.937692</dc:date>
    <dc:format>image/svg+xml</dc:format>
    <dc:creator>
     <cc:Agent>
      <dc:title>Matplotlib v3.10.0, https://matplotlib.org/</dc:title>
     </cc:Agent>
    </dc:creator>
   </cc:Work>
  </rdf:RDF>
 </metadata>
 <defs>
  <style type="text/css">*{stroke-linejoin: round; stroke-linecap: butt}</style>
 </defs>
 <g id="figure_1">
  <g id="patch_1">
   <path d="M 0 345.6 
L 460.8 345.6 
L 460.8 0 
L 0 0 
z
" style="fill: #ffffff"/>
  </g>
  <g id="axes_1">
   <g id="patch_2">
    <path d="M 57.6 307.584 
L 414.72 307.584 
L 414.72 41.472 
L 57.6 41.472 
z
" style="fill: #ffffff"/>
   </g>
   <g id="matplotlib.axis_1">
    <g id="xtick_1">
     <g id="line2d_1">
      <defs>
       <path id="mb2d69cb5c9" d="M 0 0 
L 0 3.5 
" style="stroke: #000000; stroke-width: 0.8"/>
      </defs>
      <g>
       <use xlink:href="#mb2d69cb5c9" x="71.525538" y="307.584" style="stroke: #000000; stroke-width: 0.8"/>
      </g>
     </g>
     <g id="text_1">
      <!-- 0 -->
      <g transform="translate(68.344288 322.182437) scale(0.1 -0.1)">
       <defs>
        <path id="DejaVuSans-30" d="M 2034 4250 
Q 1547 4250 1301 3770 
Q 1056 3291 1056 2328 
Q 1056 1369 1301 889 
Q 1547 409 2034 409 
Q 2525 409 2770 889 
Q 3016 1369 3016 2328 
Q 3016 3291 2770 3770 
Q 2525 4250 2034 4250 
z
M 2034 4750 
Q 2819 4750 3233 4129 
Q 3647 3509 3647 2328 
Q 3647 1150 3233 529 
Q 2819 -91 2034 -91 
Q 1250 -91 836 529 
Q 422 1150 422 2328 
Q 422 3509 836 4129 
Q 1250 4750 2034 4750 
z
" transform="scale(0.015625)"/>
       </defs>
       <use xlink:href="#DejaVuSans-30"/>
      </g>
     </g>
    </g>
    <g id="xtick_2">
     <g id="line2d_2">
      <g>
       <use xlink:href="#mb2d69cb5c9" x="137.445242" y="307.584" style="stroke: #000000; stroke-width: 0.8"/>
      </g>
     </g>
     <g id="text_2">
      <!-- 200 -->
      <g transform="translate(127.901492 322.182437) scale(0.1 -0.1)">
       <defs>
        <path id="DejaVuSans-32" d="M 1228 531 
L 3431 531 
L 3431 0 
L 469 0 
L 469 531 
Q 828 903 1448 1529 
Q 2069 2156 2228 2338 
Q 2531 2678 2651 2914 
Q 2772 3150 2772 3378 
Q 2772 3750 2511 3984 
Q 2250 4219 1831 4219 
Q 1534 4219 1204 4116 
Q 875 4013 500 3803 
L 500 4441 
Q 881 4594 1212 4672 
Q 1544 4750 1819 4750 
Q 2544 4750 2975 4387 
Q 3406 4025 3406 3419 
Q 3406 3131 3298 2873 
Q 3191 2616 2906 2266 
Q 2828 2175 2409 1742 
Q 1991 1309 1228 531 
z
" transform="scale(0.015625)"/>
       </defs>
       <use xlink:href="#DejaVuSans-32"/>
       <use xlink:href="#DejaVuSans-30" transform="translate(63.623047 0)"/>
       <use xlink:href="#DejaVuSans-30" transform="translate(127.246094 0)"/>
      </g>
     </g>
    </g>
    <g id="xtick_3">
     <g id="line2d_3">
      <g>
       <use xlink:href="#mb2d69cb5c9" x="203.364947" y="307.584" style="stroke: #000000; stroke-width: 0.8"/>
      </g>
     </g>
     <g id="text_3">
      <!-- 400 -->
      <g transform="translate(193.821197 322.182437) scale(0.1 -0.1)">
       <defs>
        <path id="DejaVuSans-34" d="M 2419 4116 
L 825 1625 
L 2419 1625 
L 2419 4116 
z
M 2253 4666 
L 3047 4666 
L 3047 1625 
L 3713 1625 
L 3713 1100 
L 3047 1100 
L 3047 0 
L 2419 0 
L 2419 1100 
L 313 1100 
L 313 1709 
L 2253 4666 
z
" transform="scale(0.015625)"/>
       </defs>
       <use xlink:href="#DejaVuSans-34"/>
       <use xlink:href="#DejaVuSans-30" transform="translate(63.623047 0)"/>
       <use xlink:href="#DejaVuSans-30" transform="translate(127.246094 0)"/>
      </g>
     </g>
    </g>
    <g id="xtick_4">
     <g id="line2d_4">
      <g>
       <use xlink:href="#mb2d69cb5c9" x="269.284652" y="307.584" style="stroke: #000000; stroke-width: 0.8"/>
      </g>
     </g>
     <g id="text_4">
      <!-- 600 -->
      <g transform="translate(259.740902 322.182437) scale(0.1 -0.1)">
       <defs>
        <path id="DejaVuSans-36" d="M 2113 2584 
Q 1688 2584 1439 2293 
Q 1191 2003 1191 1497 
Q 1191 994 1439 701 
Q 1688 409 2113 409 
Q 2538 409 2786 701 
Q 3034 994 3034 1497 
Q 3034 2003 2786 2293 
Q 2538 2584 2113 2584 
z
M 3366 4563 
L 3366 3988 
Q 3128 4100 2886 4159 
Q 2644 4219 2406 4219 
Q 1781 4219 1451 3797 
Q 1122 3375 1075 2522 
Q 1259 2794 1537 2939 
Q 1816 3084 2150 3084 
Q 2853 3084 3261 2657 
Q 3669 2231 3669 1497 
Q 3669 778 3244 343 
Q 2819 -91 2113 -91 
Q 1303 -91 875 529 
Q 447 1150 447 2328 
Q 447 3434 972 4092 
Q 1497 4750 2381 4750 
Q 2619 4750 2861 4703 
Q 3103 4656 3366 4563 
z
" transform="scale(0.015625)"/>
       </defs>
       <use xlink:href="#DejaVuSans-36"/>
       <use xlink:href="#DejaVuSans-30" transform="translate(63.623047 0)"/>
       <use xlink:href="#DejaVuSans-30" transform="translate(127.246094 0)"/>
      </g>
     </g>
    </g>
    <g id="xtick_5">
     <g id="line2d_5">
      <g>
       <use xlink:href="#mb2d69cb5c9" x="335.204356" y="307.584" style="stroke: #000000; stroke-width: 0.8"/>
      </g>
     </g>
     <g id="text_5">
      <!-- 800 -->
      <g transform="translate(325.660606 322.182437) scale(0.1 -0.1)">
       <defs>
        <path id="DejaVuSans-38" d="M 2034 2216 
Q 1584 2216 1326 1975 
Q 1069 1734 1069 1313 
Q 1069 891 1326 650 
Q 1584 409 2034 409 
Q 2484 409 2743 651 
Q 3003 894 3003 1313 
Q 3003 1734 2745 1975 
Q 2488 2216 2034 2216 
z
M 1403 2484 
Q 997 2584 770 2862 
Q 544 3141 544 3541 
Q 544 4100 942 4425 
Q 1341 4750 2034 4750 
Q 2731 4750 3128 4425 
Q 3525 4100 3525 3541 
Q 3525 3141 3298 2862 
Q 3072 2584 2669 2484 
Q 3125 2378 3379 2068 
Q 3634 1759 3634 1313 
Q 3634 634 3220 271 
Q 2806 -91 2034 -91 
Q 1263 -91 848 271 
Q 434 634 434 1313 
Q 434 1759 690 2068 
Q 947 2378 1403 2484 
z
M 1172 3481 
Q 1172 3119 1398 2916 
Q 1625 2713 2034 2713 
Q 2441 2713 2670 2916 
Q 2900 3119 2900 3481 
Q 2900 3844 2670 4047 
Q 2441 4250 2034 4250 
Q 1625 4250 1398 4047 
Q 1172 3844 1172 3481 
z
" transform="scale(0.015625)"/>
       </defs>
       <use xlink:href="#DejaVuSans-38"/>
       <use xlink:href="#DejaVuSans-30" transform="translate(63.623047 0)"/>
       <use xlink:href="#DejaVuSans-30" transform="translate(127.246094 0)"/>
      </g>
     </g>
    </g>
    <g id="xtick_6">
     <g id="line2d_6">
      <g>
       <use xlink:href="#mb2d69cb5c9" x="401.124061" y="307.584" style="stroke: #000000; stroke-width: 0.8"/>
      </g>
     </g>
     <g id="text_6">
      <!-- 1000 -->
      <g transform="translate(388.399061 322.182437) scale(0.1 -0.1)">
       <defs>
        <path id="DejaVuSans-31" d="M 794 531 
L 1825 531 
L 1825 4091 
L 703 3866 
L 703 4441 
L 1819 4666 
L 2450 4666 
L 2450 531 
L 3481 531 
L 3481 0 
L 794 0 
L 794 531 
z
" transform="scale(0.015625)"/>
       </defs>
       <use xlink:href="#DejaVuSans-31"/>
       <use xlink:href="#DejaVuSans-30" transform="translate(63.623047 0)"/>
       <use xlink:href="#DejaVuSans-30" transform="translate(127.246094 0)"/>
       <use xlink:href="#DejaVuSans-30" transform="translate(190.869141 0)"/>
      </g>
     </g>
    </g>
    <g id="text_7">
     <!-- Temperature ($^{\circ}C$) -->
     <g transform="translate(192.16 335.862125) scale(0.1 -0.1)">
      <defs>
       <path id="DejaVuSans-54" d="M -19 4666 
L 3928 4666 
L 3928 4134 
L 2272 4134 
L 2272 0 
L 1638 0 
L 1638 4134 
L -19 4134 
L -19 4666 
z
" transform="scale(0.015625)"/>
       <path id="DejaVuSans-65" d="M 3597 1894 
L 3597 1613 
L 953 1613 
Q 991 1019 1311 708 
Q 1631 397 2203 397 
Q 2534 397 2845 478 
Q 3156 559 3463 722 
L 3463 178 
Q 3153 47 2828 -22 
Q 2503 -91 2169 -91 
Q 1331 -91 842 396 
Q 353 884 353 1716 
Q 353 2575 817 3079 
Q 1281 3584 2069 3584 
Q 2775 3584 3186 3129 
Q 3597 2675 3597 1894 
z
M 3022 2063 
Q 3016 2534 2758 2815 
Q 2500 3097 2075 3097 
Q 1594 3097 1305 2825 
Q 1016 2553 972 2059 
L 3022 2063 
z
" transform="scale(0.015625)"/>
       <path id="DejaVuSans-6d" d="M 3328 2828 
Q 3544 3216 3844 3400 
Q 4144 3584 4550 3584 
Q 5097 3584 5394 3201 
Q 5691 2819 5691 2113 
L 5691 0 
L 5113 0 
L 5113 2094 
Q 5113 2597 4934 2840 
Q 4756 3084 4391 3084 
Q 3944 3084 3684 2787 
Q 3425 2491 3425 1978 
L 3425 0 
L 2847 0 
L 2847 2094 
Q 2847 2600 2669 2842 
Q 2491 3084 2119 3084 
Q 1678 3084 1418 2786 
Q 1159 2488 1159 1978 
L 1159 0 
L 581 0 
L 581 3500 
L 1159 3500 
L 1159 2956 
Q 1356 3278 1631 3431 
Q 1906 3584 2284 3584 
Q 2666 3584 2933 3390 
Q 3200 3197 3328 2828 
z
" transform="scale(0.015625)"/>
       <path id="DejaVuSans-70" d="M 1159 525 
L 1159 -1331 
L 581 -1331 
L 581 3500 
L 1159 3500 
L 1159 2969 
Q 1341 3281 1617 3432 
Q 1894 3584 2278 3584 
Q 2916 3584 3314 3078 
Q 3713 2572 3713 1747 
Q 3713 922 3314 415 
Q 2916 -91 2278 -91 
Q 1894 -91 1617 61 
Q 1341 213 1159 525 
z
M 3116 1747 
Q 3116 2381 2855 2742 
Q 2594 3103 2138 3103 
Q 1681 3103 1420 2742 
Q 1159 2381 1159 1747 
Q 1159 1113 1420 752 
Q 1681 391 2138 391 
Q 2594 391 2855 752 
Q 3116 1113 3116 1747 
z
" transform="scale(0.015625)"/>
       <path id="DejaVuSans-72" d="M 2631 2963 
Q 2534 3019 2420 3045 
Q 2306 3072 2169 3072 
Q 1681 3072 1420 2755 
Q 1159 2438 1159 1844 
L 1159 0 
L 581 0 
L 581 3500 
L 1159 3500 
L 1159 2956 
Q 1341 3275 1631 3429 
Q 1922 3584 2338 3584 
Q 2397 3584 2469 3576 
Q 2541 3569 2628 3553 
L 2631 2963 
z
" transform="scale(0.015625)"/>
       <path id="DejaVuSans-61" d="M 2194 1759 
Q 1497 1759 1228 1600 
Q 959 1441 959 1056 
Q 959 750 1161 570 
Q 1363 391 1709 391 
Q 2188 391 2477 730 
Q 2766 1069 2766 1631 
L 2766 1759 
L 2194 1759 
z
M 3341 1997 
L 3341 0 
L 2766 0 
L 2766 531 
Q 2569 213 2275 61 
Q 1981 -91 1556 -91 
Q 1019 -91 701 211 
Q 384 513 384 1019 
Q 384 1609 779 1909 
Q 1175 2209 1959 2209 
L 2766 2209 
L 2766 2266 
Q 2766 2663 2505 2880 
Q 2244 3097 1772 3097 
Q 1472 3097 1187 3025 
Q 903 2953 641 2809 
L 641 3341 
Q 956 3463 1253 3523 
Q 1550 3584 1831 3584 
Q 2591 3584 2966 3190 
Q 3341 2797 3341 1997 
z
" transform="scale(0.015625)"/>
       <path id="DejaVuSans-74" d="M 1172 4494 
L 1172 3500 
L 2356 3500 
L 2356 3053 
L 1172 3053 
L 1172 1153 
Q 1172 725 1289 603 
Q 1406 481 1766 481 
L 2356 481 
L 2356 0 
L 1766 0 
Q 1100 0 847 248 
Q 594 497 594 1153 
L 594 3053 
L 172 3053 
L 172 3500 
L 594 3500 
L 594 4494 
L 1172 4494 
z
" transform="scale(0.015625)"/>
       <path id="DejaVuSans-75" d="M 544 1381 
L 544 3500 
L 1119 3500 
L 1119 1403 
Q 1119 906 1312 657 
Q 1506 409 1894 409 
Q 2359 409 2629 706 
Q 2900 1003 2900 1516 
L 2900 3500 
L 3475 3500 
L 3475 0 
L 2900 0 
L 2900 538 
Q 2691 219 2414 64 
Q 2138 -91 1772 -91 
Q 1169 -91 856 284 
Q 544 659 544 1381 
z
M 1991 3584 
L 1991 3584 
z
" transform="scale(0.015625)"/>
       <path id="DejaVuSans-20" transform="scale(0.015625)"/>
       <path id="DejaVuSans-28" d="M 1984 4856 
Q 1566 4138 1362 3434 
Q 1159 2731 1159 2009 
Q 1159 1288 1364 580 
Q 1569 -128 1984 -844 
L 1484 -844 
Q 1016 -109 783 600 
Q 550 1309 550 2009 
Q 550 2706 781 3412 
Q 1013 4119 1484 4856 
L 1984 4856 
z
" transform="scale(0.015625)"/>
       <path id="DejaVuSans-2218" d="M 2000 2619 
Q 1750 2619 1578 2445 
Q 1406 2272 1406 2022 
Q 1406 1775 1578 1605 
Q 1750 1435 2000 1435 
Q 2250 1435 2422 1605 
Q 2594 1775 2594 2022 
Q 2594 2269 2420 2444 
Q 2247 2619 2000 2619 
z
M 2000 3022 
Q 2200 3022 2384 2945 
Q 2569 2869 2703 2725 
Q 2847 2585 2919 2406 
Q 2991 2228 2991 2022 
Q 2991 1610 2702 1324 
Q 2413 1038 1994 1038 
Q 1572 1038 1290 1319 
Q 1009 1600 1009 2022 
Q 1009 2441 1296 2731 
Q 1584 3022 2000 3022 
z
" transform="scale(0.015625)"/>
       <path id="DejaVuSans-Oblique-43" d="M 4447 4306 
L 4319 3641 
Q 4019 3944 3683 4091 
Q 3347 4238 2956 4238 
Q 2422 4238 2017 3981 
Q 1613 3725 1319 3200 
Q 1131 2863 1032 2486 
Q 934 2109 934 1728 
Q 934 1091 1264 756 
Q 1594 422 2222 422 
Q 2656 422 3056 561 
Q 3456 700 3834 978 
L 3688 231 
Q 3316 72 2936 -9 
Q 2556 -91 2175 -91 
Q 1278 -91 773 396 
Q 269 884 269 1753 
Q 269 2309 461 2846 
Q 653 3384 1013 3828 
Q 1394 4300 1883 4525 
Q 2372 4750 3022 4750 
Q 3422 4750 3780 4639 
Q 4138 4528 4447 4306 
z
" transform="scale(0.015625)"/>
       <path id="DejaVuSans-29" d="M 513 4856 
L 1013 4856 
Q 1481 4119 1714 3412 
Q 1947 2706 1947 2009 
Q 1947 1309 1714 600 
Q 1481 -109 1013 -844 
L 513 -844 
Q 928 -128 1133 580 
Q 1338 1288 1338 2009 
Q 1338 2731 1133 3434 
Q 928 4138 513 4856 
z
" transform="scale(0.015625)"/>
      </defs>
      <use xlink:href="#DejaVuSans-54" transform="translate(0 0.125)"/>
      <use xlink:href="#DejaVuSans-65" transform="translate(61.083984 0.125)"/>
      <use xlink:href="#DejaVuSans-6d" transform="translate(122.607422 0.125)"/>
      <use xlink:href="#DejaVuSans-70" transform="translate(220.019531 0.125)"/>
      <use xlink:href="#DejaVuSans-65" transform="translate(283.496094 0.125)"/>
      <use xlink:href="#DejaVuSans-72" transform="translate(345.019531 0.125)"/>
      <use xlink:href="#DejaVuSans-61" transform="translate(386.132812 0.125)"/>
      <use xlink:href="#DejaVuSans-74" transform="translate(447.412109 0.125)"/>
      <use xlink:href="#DejaVuSans-75" transform="translate(486.621094 0.125)"/>
      <use xlink:href="#DejaVuSans-72" transform="translate(550 0.125)"/>
      <use xlink:href="#DejaVuSans-65" transform="translate(591.113281 0.125)"/>
      <use xlink:href="#DejaVuSans-20" transform="translate(652.636719 0.125)"/>
      <use xlink:href="#DejaVuSans-28" transform="translate(684.423828 0.125)"/>
      <use xlink:href="#DejaVuSans-2218" transform="translate(724.394531 38.40625) scale(0.7)"/>
      <use xlink:href="#DejaVuSans-Oblique-43" transform="translate(770.947266 0.125)"/>
      <use xlink:href="#DejaVuSans-29" transform="translate(840.771484 0.125)"/>
     </g>
    </g>
   </g>
   <g id="matplotlib.axis_2">
    <g id="ytick_1">
     <g id="line2d_7">
      <defs>
       <path id="m133c663888" d="M 0 0 
L -3.5 0 
" style="stroke: #000000; stroke-width: 0.8"/>
      </defs>
      <g>
       <use xlink:href="#m133c663888" x="57.6" y="295.488" style="stroke: #000000; stroke-width: 0.8"/>
      </g>
     </g>
     <g id="text_8">
      <!-- 0.0 -->
      <g transform="translate(34.696875 299.287219) scale(0.1 -0.1)">
       <defs>
        <path id="DejaVuSans-2e" d="M 684 794 
L 1344 794 
L 1344 0 
L 684 0 
L 684 794 
z
" transform="scale(0.015625)"/>
       </defs>
       <use xlink:href="#DejaVuSans-30"/>
       <use xlink:href="#DejaVuSans-2e" transform="translate(63.623047 0)"/>
       <use xlink:href="#DejaVuSans-30" transform="translate(95.410156 0)"/>
      </g>
     </g>
    </g>
    <g id="ytick_2">
     <g id="line2d_8">
      <g>
       <use xlink:href="#m133c663888" x="57.6" y="252.288" style="stroke: #000000; stroke-width: 0.8"/>
      </g>
     </g>
     <g id="text_9">
      <!-- 0.1 -->
      <g transform="translate(34.696875 256.087219) scale(0.1 -0.1)">
       <use xlink:href="#DejaVuSans-30"/>
       <use xlink:href="#DejaVuSans-2e" transform="translate(63.623047 0)"/>
       <use xlink:href="#DejaVuSans-31" transform="translate(95.410156 0)"/>
      </g>
     </g>
    </g>
    <g id="ytick_3">
     <g id="line2d_9">
      <g>
       <use xlink:href="#m133c663888" x="57.6" y="209.088" style="stroke: #000000; stroke-width: 0.8"/>
      </g>
     </g>
     <g id="text_10">
      <!-- 0.2 -->
      <g transform="translate(34.696875 212.887219) scale(0.1 -0.1)">
       <use xlink:href="#DejaVuSans-30"/>
       <use xlink:href="#DejaVuSans-2e" transform="translate(63.623047 0)"/>
       <use xlink:href="#DejaVuSans-32" transform="translate(95.410156 0)"/>
      </g>
     </g>
    </g>
    <g id="ytick_4">
     <g id="line2d_10">
      <g>
       <use xlink:href="#m133c663888" x="57.6" y="165.888" style="stroke: #000000; stroke-width: 0.8"/>
      </g>
     </g>
     <g id="text_11">
      <!-- 0.3 -->
      <g transform="translate(34.696875 169.687219) scale(0.1 -0.1)">
       <defs>
        <path id="DejaVuSans-33" d="M 2597 2516 
Q 3050 2419 3304 2112 
Q 3559 1806 3559 1356 
Q 3559 666 3084 287 
Q 2609 -91 1734 -91 
Q 1441 -91 1130 -33 
Q 819 25 488 141 
L 488 750 
Q 750 597 1062 519 
Q 1375 441 1716 441 
Q 2309 441 2620 675 
Q 2931 909 2931 1356 
Q 2931 1769 2642 2001 
Q 2353 2234 1838 2234 
L 1294 2234 
L 1294 2753 
L 1863 2753 
Q 2328 2753 2575 2939 
Q 2822 3125 2822 3475 
Q 2822 3834 2567 4026 
Q 2313 4219 1838 4219 
Q 1578 4219 1281 4162 
Q 984 4106 628 3988 
L 628 4550 
Q 988 4650 1302 4700 
Q 1616 4750 1894 4750 
Q 2613 4750 3031 4423 
Q 3450 4097 3450 3541 
Q 3450 3153 3228 2886 
Q 3006 2619 2597 2516 
z
" transform="scale(0.015625)"/>
       </defs>
       <use xlink:href="#DejaVuSans-30"/>
       <use xlink:href="#DejaVuSans-2e" transform="translate(63.623047 0)"/>
       <use xlink:href="#DejaVuSans-33" transform="translate(95.410156 0)"/>
      </g>
     </g>
    </g>
    <g id="ytick_5">
     <g id="line2d_11">
      <g>
       <use xlink:href="#m133c663888" x="57.6" y="122.688" style="stroke: #000000; stroke-width: 0.8"/>
      </g>
     </g>
     <g id="text_12">
      <!-- 0.4 -->
      <g transform="translate(34.696875 126.487219) scale(0.1 -0.1)">
       <use xlink:href="#DejaVuSans-30"/>
       <use xlink:href="#DejaVuSans-2e" transform="translate(63.623047 0)"/>
       <use xlink:href="#DejaVuSans-34" transform="translate(95.410156 0)"/>
      </g>
     </g>
    </g>
    <g id="ytick_6">
     <g id="line2d_12">
      <g>
       <use xlink:href="#m133c663888" x="57.6" y="79.488" style="stroke: #000000; stroke-width: 0.8"/>
      </g>
     </g>
     <g id="text_13">
      <!-- 0.5 -->
      <g transform="translate(34.696875 83.287219) scale(0.1 -0.1)">
       <defs>
        <path id="DejaVuSans-35" d="M 691 4666 
L 3169 4666 
L 3169 4134 
L 1269 4134 
L 1269 2991 
Q 1406 3038 1543 3061 
Q 1681 3084 1819 3084 
Q 2600 3084 3056 2656 
Q 3513 2228 3513 1497 
Q 3513 744 3044 326 
Q 2575 -91 1722 -91 
Q 1428 -91 1123 -41 
Q 819 9 494 109 
L 494 744 
Q 775 591 1075 516 
Q 1375 441 1709 441 
Q 2250 441 2565 725 
Q 2881 1009 2881 1497 
Q 2881 1984 2565 2268 
Q 2250 2553 1709 2553 
Q 1456 2553 1204 2497 
Q 953 2441 691 2322 
L 691 4666 
z
" transform="scale(0.015625)"/>
       </defs>
       <use xlink:href="#DejaVuSans-30"/>
       <use xlink:href="#DejaVuSans-2e" transform="translate(63.623047 0)"/>
       <use xlink:href="#DejaVuSans-35" transform="translate(95.410156 0)"/>
      </g>
     </g>
    </g>
    <g id="text_14">
     <!-- Intensity ($^{\circ}C^{-1}$) -->
     <g transform="translate(28.596875 213.328) rotate(-90) scale(0.1 -0.1)">
      <defs>
       <path id="DejaVuSans-49" d="M 628 4666 
L 1259 4666 
L 1259 0 
L 628 0 
L 628 4666 
z
" transform="scale(0.015625)"/>
       <path id="DejaVuSans-6e" d="M 3513 2113 
L 3513 0 
L 2938 0 
L 2938 2094 
Q 2938 2591 2744 2837 
Q 2550 3084 2163 3084 
Q 1697 3084 1428 2787 
Q 1159 2491 1159 1978 
L 1159 0 
L 581 0 
L 581 3500 
L 1159 3500 
L 1159 2956 
Q 1366 3272 1645 3428 
Q 1925 3584 2291 3584 
Q 2894 3584 3203 3211 
Q 3513 2838 3513 2113 
z
" transform="scale(0.015625)"/>
       <path id="DejaVuSans-73" d="M 2834 3397 
L 2834 2853 
Q 2591 2978 2328 3040 
Q 2066 3103 1784 3103 
Q 1356 3103 1142 2972 
Q 928 2841 928 2578 
Q 928 2378 1081 2264 
Q 1234 2150 1697 2047 
L 1894 2003 
Q 2506 1872 2764 1633 
Q 3022 1394 3022 966 
Q 3022 478 2636 193 
Q 2250 -91 1575 -91 
Q 1294 -91 989 -36 
Q 684 19 347 128 
L 347 722 
Q 666 556 975 473 
Q 1284 391 1588 391 
Q 1994 391 2212 530 
Q 2431 669 2431 922 
Q 2431 1156 2273 1281 
Q 2116 1406 1581 1522 
L 1381 1569 
Q 847 1681 609 1914 
Q 372 2147 372 2553 
Q 372 3047 722 3315 
Q 1072 3584 1716 3584 
Q 2034 3584 2315 3537 
Q 2597 3491 2834 3397 
z
" transform="scale(0.015625)"/>
       <path id="DejaVuSans-69" d="M 603 3500 
L 1178 3500 
L 1178 0 
L 603 0 
L 603 3500 
z
M 603 4863 
L 1178 4863 
L 1178 4134 
L 603 4134 
L 603 4863 
z
" transform="scale(0.015625)"/>
       <path id="DejaVuSans-79" d="M 2059 -325 
Q 1816 -950 1584 -1140 
Q 1353 -1331 966 -1331 
L 506 -1331 
L 506 -850 
L 844 -850 
Q 1081 -850 1212 -737 
Q 1344 -625 1503 -206 
L 1606 56 
L 191 3500 
L 800 3500 
L 1894 763 
L 2988 3500 
L 3597 3500 
L 2059 -325 
z
" transform="scale(0.015625)"/>
       <path id="DejaVuSans-2212" d="M 678 2272 
L 4684 2272 
L 4684 1741 
L 678 1741 
L 678 2272 
z
" transform="scale(0.015625)"/>
      </defs>
      <use xlink:href="#DejaVuSans-49" transform="translate(0 0.684375)"/>
      <use xlink:href="#DejaVuSans-6e" transform="translate(29.492188 0.684375)"/>
      <use xlink:href="#DejaVuSans-74" transform="translate(92.871094 0.684375)"/>
      <use xlink:href="#DejaVuSans-65" transform="translate(132.080078 0.684375)"/>
      <use xlink:href="#DejaVuSans-6e" transform="translate(193.603516 0.684375)"/>
      <use xlink:href="#DejaVuSans-73" transform="translate(256.982422 0.684375)"/>
      <use xlink:href="#DejaVuSans-69" transform="translate(309.082031 0.684375)"/>
      <use xlink:href="#DejaVuSans-74" transform="translate(336.865234 0.684375)"/>
      <use xlink:href="#DejaVuSans-79" transform="translate(376.074219 0.684375)"/>
      <use xlink:href="#DejaVuSans-20" transform="translate(435.253906 0.684375)"/>
      <use xlink:href="#DejaVuSans-28" transform="translate(467.041016 0.684375)"/>
      <use xlink:href="#DejaVuSans-2218" transform="translate(507.011719 38.965625) scale(0.7)"/>
      <use xlink:href="#DejaVuSans-Oblique-43" transform="translate(553.564453 0.684375)"/>
      <use xlink:href="#DejaVuSans-2212" transform="translate(630.589193 38.965625) scale(0.7)"/>
      <use xlink:href="#DejaVuSans-31" transform="translate(689.241536 38.965625) scale(0.7)"/>
      <use xlink:href="#DejaVuSans-29" transform="translate(736.512044 0.684375)"/>
     </g>
    </g>
   </g>
   <g id="line2d_13">
    <path d="M 73.832727 295.488 
L 99.871011 295.488 
L 100.200609 289.728 
L 100.859806 289.728 
L 101.519003 278.208 
L 102.507799 278.208 
L 103.826193 255.168 
L 105.474186 255.168 
L 105.803784 249.408 
L 106.133383 249.408 
L 106.462981 255.168 
L 107.122178 243.648 
L 107.451777 243.648 
L 108.440572 260.928 
L 108.770171 260.928 
L 109.099769 255.168 
L 109.758966 255.168 
L 110.088565 260.928 
L 111.406959 237.888 
L 112.066156 249.408 
L 112.395754 249.408 
L 112.725353 243.648 
L 113.38455 243.648 
L 114.043747 232.128 
L 114.702944 232.128 
L 115.032543 226.368 
L 116.350937 249.408 
L 116.680535 249.408 
L 117.010134 226.368 
L 117.339732 214.848 
L 117.669331 214.848 
L 117.998929 197.568 
L 118.328528 191.808 
L 118.658126 191.808 
L 119.317323 180.288 
L 119.976521 180.288 
L 120.306119 168.768 
L 120.965316 180.288 
L 121.624513 180.288 
L 121.954112 174.528 
L 122.613309 186.048 
L 122.942907 203.328 
L 123.272506 197.568 
L 123.602104 180.288 
L 123.931703 197.568 
L 124.920498 197.568 
L 125.250097 203.328 
L 125.579695 186.048 
L 125.909294 186.048 
L 126.238892 180.288 
L 126.568491 163.008 
L 126.89809 191.808 
L 127.227688 174.528 
L 127.886885 174.528 
L 128.216484 168.768 
L 128.546082 186.048 
L 129.205279 163.008 
L 129.534878 139.968 
L 129.864476 145.728 
L 130.194075 128.448 
L 130.523673 139.968 
L 130.853272 139.968 
L 131.18287 145.728 
L 131.512469 157.248 
L 131.842067 145.728 
L 132.171666 163.008 
L 132.501264 157.248 
L 132.830863 145.728 
L 133.49006 157.248 
L 133.819659 157.248 
L 134.149257 174.528 
L 134.478856 180.288 
L 134.808454 163.008 
L 135.138053 186.048 
L 135.79725 174.528 
L 136.126848 163.008 
L 136.786045 174.528 
L 137.115644 174.528 
L 137.445242 168.768 
L 137.774841 151.488 
L 138.104439 163.008 
L 138.434038 151.488 
L 138.763636 157.248 
L 139.093235 151.488 
L 139.422833 151.488 
L 139.752432 139.968 
L 140.08203 122.688 
L 140.411629 122.688 
L 141.070826 134.208 
L 141.400425 128.448 
L 141.730023 128.448 
L 142.38922 116.928 
L 142.718819 139.968 
L 143.048417 134.208 
L 143.378016 134.208 
L 143.707614 122.688 
L 144.037213 122.688 
L 144.366811 128.448 
L 144.69641 157.248 
L 145.026008 168.768 
L 145.355607 157.248 
L 145.685205 134.208 
L 146.344402 134.208 
L 147.992395 163.008 
L 148.321994 180.288 
L 148.981191 180.288 
L 149.310789 186.048 
L 149.969986 186.048 
L 150.629183 197.568 
L 150.958782 180.288 
L 151.28838 180.288 
L 151.947577 168.768 
L 152.277176 174.528 
L 152.606774 168.768 
L 152.936373 151.488 
L 153.265971 145.728 
L 153.59557 163.008 
L 153.925168 157.248 
L 154.254767 157.248 
L 154.584365 134.208 
L 154.913964 134.208 
L 155.243563 151.488 
L 155.573161 151.488 
L 155.90276 163.008 
L 156.232358 163.008 
L 156.891555 151.488 
L 157.221154 139.968 
L 157.880351 128.448 
L 158.209949 128.448 
L 158.539548 111.168 
L 158.869146 105.408 
L 159.198745 93.888 
L 159.528343 93.888 
L 160.18754 59.328 
L 160.517139 65.088 
L 160.846737 65.088 
L 161.505934 53.568 
L 162.165132 76.608 
L 162.49473 70.848 
L 162.824329 82.368 
L 163.153927 82.368 
L 163.483526 93.888 
L 163.813124 99.648 
L 164.142723 99.648 
L 164.472321 105.408 
L 164.80192 122.688 
L 165.131518 128.448 
L 165.790715 116.928 
L 166.120314 116.928 
L 166.449912 122.688 
L 166.779511 111.168 
L 167.438708 122.688 
L 167.768306 116.928 
L 168.097905 105.408 
L 168.757102 105.408 
L 169.086701 116.928 
L 169.416299 105.408 
L 169.745898 105.408 
L 170.075496 111.168 
L 170.734693 139.968 
L 171.064292 134.208 
L 171.723489 157.248 
L 172.053087 157.248 
L 172.382686 151.488 
L 172.712284 157.248 
L 173.041883 174.528 
L 173.371481 168.768 
L 173.70108 174.528 
L 174.030678 151.488 
L 174.360277 151.488 
L 174.689875 139.968 
L 175.349072 128.448 
L 176.008269 128.448 
L 176.337868 116.928 
L 176.667467 122.688 
L 176.997065 122.688 
L 177.656262 145.728 
L 178.315459 116.928 
L 178.645058 111.168 
L 178.974656 122.688 
L 179.633853 151.488 
L 179.963452 157.248 
L 180.29305 157.248 
L 180.622649 139.968 
L 180.952247 151.488 
L 181.281846 151.488 
L 181.941043 139.968 
L 182.270641 145.728 
L 182.60024 134.208 
L 183.259437 163.008 
L 184.248233 197.568 
L 184.577831 197.568 
L 185.237028 209.088 
L 185.566627 232.128 
L 186.885021 232.128 
L 187.214619 226.368 
L 187.544218 232.128 
L 187.873816 226.368 
L 188.203415 237.888 
L 188.533013 220.608 
L 188.862612 220.608 
L 189.19221 214.848 
L 190.510605 214.848 
L 190.840203 203.328 
L 191.828999 220.608 
L 192.158597 209.088 
L 192.817794 220.608 
L 193.147393 214.848 
L 193.476991 226.368 
L 194.465787 226.368 
L 195.454582 209.088 
L 195.784181 226.368 
L 196.113779 232.128 
L 196.443378 226.368 
L 196.772976 214.848 
L 197.102575 232.128 
L 197.432174 226.368 
L 198.091371 203.328 
L 199.080166 220.608 
L 199.409765 220.608 
L 199.739363 214.848 
L 200.068962 203.328 
L 200.39856 203.328 
L 201.057757 174.528 
L 201.716954 174.528 
L 202.046553 168.768 
L 202.376151 174.528 
L 202.70575 174.528 
L 203.035348 186.048 
L 203.364947 186.048 
L 204.024144 157.248 
L 204.353743 157.248 
L 205.342538 174.528 
L 205.672137 186.048 
L 206.001735 186.048 
L 206.331334 180.288 
L 206.660932 191.808 
L 206.990531 197.568 
L 207.320129 186.048 
L 207.979326 197.568 
L 208.308925 186.048 
L 208.638523 197.568 
L 209.627319 214.848 
L 209.956917 226.368 
L 210.616114 226.368 
L 211.275311 249.408 
L 211.934509 249.408 
L 212.264107 243.648 
L 212.593706 249.408 
L 213.582501 249.408 
L 213.9121 255.168 
L 214.241698 249.408 
L 215.230494 249.408 
L 215.560092 243.648 
L 215.889691 243.648 
L 216.219289 237.888 
L 216.878486 237.888 
L 217.208085 255.168 
L 217.867282 255.168 
L 218.19688 266.688 
L 218.526479 266.688 
L 218.856078 249.408 
L 219.844873 249.408 
L 220.174472 237.888 
L 220.50407 249.408 
L 222.152063 249.408 
L 222.481661 232.128 
L 223.140858 232.128 
L 223.470457 237.888 
L 223.800055 255.168 
L 224.129654 249.408 
L 224.459252 249.408 
L 224.788851 243.648 
L 225.118449 243.648 
L 225.448048 237.888 
L 225.777647 237.888 
L 226.107245 243.648 
L 226.436844 237.888 
L 226.766442 226.368 
L 227.096041 226.368 
L 227.425639 237.888 
L 227.755238 237.888 
L 228.084836 226.368 
L 228.744033 226.368 
L 229.073632 237.888 
L 229.40323 237.888 
L 230.062427 249.408 
L 230.721624 249.408 
L 231.051223 243.648 
L 231.380821 249.408 
L 231.71042 260.928 
L 232.040018 260.928 
L 232.369617 255.168 
L 232.699216 255.168 
L 233.028814 260.928 
L 233.688011 260.928 
L 234.01761 255.168 
L 234.676807 255.168 
L 235.336004 266.688 
L 235.665602 260.928 
L 235.995201 266.688 
L 236.654398 266.688 
L 236.983996 260.928 
L 237.313595 272.448 
L 237.643193 272.448 
L 237.972792 278.208 
L 238.631989 278.208 
L 238.961587 283.968 
L 239.291186 278.208 
L 240.279982 278.208 
L 240.60958 283.968 
L 241.598376 283.968 
L 241.927974 289.728 
L 242.257573 283.968 
L 243.575967 283.968 
L 243.905565 278.208 
L 244.235164 283.968 
L 244.894361 283.968 
L 245.223959 278.208 
L 245.883156 278.208 
L 246.212755 272.448 
L 246.871952 272.448 
L 247.201551 278.208 
L 247.531149 278.208 
L 248.190346 249.408 
L 248.519945 243.648 
L 248.849543 249.408 
L 249.179142 249.408 
L 249.50874 237.888 
L 249.838339 232.128 
L 250.167937 237.888 
L 250.497536 237.888 
L 251.156733 226.368 
L 252.145528 226.368 
L 252.475127 220.608 
L 252.804725 226.368 
L 253.134324 220.608 
L 253.463922 226.368 
L 254.12312 226.368 
L 254.452718 237.888 
L 255.771112 237.888 
L 256.100711 249.408 
L 257.089506 249.408 
L 257.748703 260.928 
L 258.078302 278.208 
L 258.4079 278.208 
L 258.737499 272.448 
L 259.067097 272.448 
L 259.396696 266.688 
L 259.726294 272.448 
L 260.055893 266.688 
L 260.385491 266.688 
L 260.71509 260.928 
L 262.363083 260.928 
L 262.692681 266.688 
L 263.351878 266.688 
L 263.681477 260.928 
L 264.011075 249.408 
L 264.340674 255.168 
L 264.670272 255.168 
L 264.999871 260.928 
L 265.329469 260.928 
L 265.659068 266.688 
L 267.636659 266.688 
L 267.966257 260.928 
L 268.295856 260.928 
L 268.955053 283.968 
L 270.273447 283.968 
L 270.603046 289.728 
L 270.932644 289.728 
L 271.92144 272.448 
L 272.580637 272.448 
L 272.910235 278.208 
L 273.239834 272.448 
L 276.535819 272.448 
L 276.865418 278.208 
L 277.524615 278.208 
L 277.854213 266.688 
L 278.183812 272.448 
L 281.150198 272.448 
L 281.479797 278.208 
L 281.809395 272.448 
L 282.138994 272.448 
L 282.468593 266.688 
L 282.798191 278.208 
L 284.446184 278.208 
L 284.775782 272.448 
L 286.423775 272.448 
L 286.753373 266.688 
L 287.082972 266.688 
L 287.41257 272.448 
L 291.038154 272.448 
L 291.367753 266.688 
L 291.697351 278.208 
L 292.02695 278.208 
L 292.356548 272.448 
L 295.322935 272.448 
L 295.652533 266.688 
L 296.311731 278.208 
L 296.970928 266.688 
L 297.300526 272.448 
L 297.959723 272.448 
L 298.289322 260.928 
L 300.266913 260.928 
L 300.596511 266.688 
L 300.92611 260.928 
L 301.255708 260.928 
L 301.585307 266.688 
L 302.903701 266.688 
L 303.233299 278.208 
L 303.562898 278.208 
L 303.892497 272.448 
L 304.222095 272.448 
L 304.551694 278.208 
L 304.881292 272.448 
L 306.199686 272.448 
L 306.858883 260.928 
L 308.506876 260.928 
L 308.836474 266.688 
L 309.495671 266.688 
L 309.82527 272.448 
L 310.484467 272.448 
L 310.814066 278.208 
L 311.143664 278.208 
L 311.473263 283.968 
L 311.802861 295.488 
L 312.462058 295.488 
L 312.791657 289.728 
L 317.076437 289.728 
L 317.406036 283.968 
L 317.735635 289.728 
L 318.394832 289.728 
L 318.72443 283.968 
L 322.020415 283.968 
L 322.350014 289.728 
L 323.338809 289.728 
L 323.668408 295.488 
L 323.998006 289.728 
L 328.612386 289.728 
L 328.941984 295.488 
L 331.249174 295.488 
L 331.578772 289.728 
L 336.193152 289.728 
L 336.52275 295.488 
L 347.7291 295.488 
L 348.058699 289.728 
L 352.673078 289.728 
L 353.002677 295.488 
L 353.332275 295.488 
L 353.661874 283.968 
L 357.946654 283.968 
L 358.276253 278.208 
L 358.605851 289.728 
L 359.924246 289.728 
L 360.253844 283.968 
L 360.913041 283.968 
L 361.24264 278.208 
L 362.890632 278.208 
L 363.220231 283.968 
L 363.549829 278.208 
L 364.868223 278.208 
L 365.197822 283.968 
L 365.857019 283.968 
L 366.186617 289.728 
L 368.164209 289.728 
L 368.493807 295.488 
L 379.700157 295.488 
L 380.029755 289.728 
L 384.644135 289.728 
L 384.973733 295.488 
L 386.951324 295.488 
L 387.280923 289.728 
L 391.895302 289.728 
L 392.224901 295.488 
L 398.487273 295.488 
L 398.487273 295.488 
" clip-path="url(#p0ee5b3add0)" style="fill: none; stroke-dasharray: 1.85,0.8; stroke-dashoffset: 0; stroke: #8000ff; stroke-width: 0.5"/>
   </g>
   <g id="line2d_14">
    <path d="M 73.832727 295.488 
L 116.350937 295.488 
L 116.680535 293.088 
L 117.998929 293.088 
L 118.328528 290.688 
L 119.317323 290.688 
L 119.646922 288.288 
L 120.635718 288.288 
L 120.965316 285.888 
L 121.294915 285.888 
L 121.624513 288.288 
L 121.954112 285.888 
L 122.613309 285.888 
L 122.942907 283.488 
L 123.272506 283.488 
L 123.602104 281.088 
L 123.931703 276.288 
L 124.261301 276.288 
L 124.5909 278.688 
L 125.579695 278.688 
L 125.909294 281.088 
L 126.238892 278.688 
L 126.568491 278.688 
L 126.89809 281.088 
L 127.886885 281.088 
L 128.216484 283.488 
L 128.546082 283.488 
L 128.875681 273.888 
L 129.864476 273.888 
L 130.523673 269.088 
L 130.853272 269.088 
L 131.18287 271.488 
L 131.842067 271.488 
L 132.501264 266.688 
L 133.49006 266.688 
L 133.819659 281.088 
L 134.149257 278.688 
L 134.478856 271.488 
L 134.808454 271.488 
L 135.467651 276.288 
L 136.126848 266.688 
L 136.456447 266.688 
L 137.774841 235.488 
L 138.104439 235.488 
L 138.434038 237.888 
L 138.763636 237.888 
L 139.093235 240.288 
L 139.422833 245.088 
L 139.752432 245.088 
L 140.08203 242.688 
L 140.411629 242.688 
L 141.070826 247.488 
L 141.400425 247.488 
L 142.38922 271.488 
L 142.718819 283.488 
L 143.048417 281.088 
L 143.707614 271.488 
L 144.037213 271.488 
L 144.366811 273.888 
L 144.69641 273.888 
L 145.026008 269.088 
L 145.355607 269.088 
L 145.685205 257.088 
L 146.014804 259.488 
L 146.344402 249.888 
L 147.003599 249.888 
L 147.662796 237.888 
L 148.321994 242.688 
L 149.640388 242.688 
L 149.969986 245.088 
L 150.299585 245.088 
L 150.629183 259.488 
L 150.958782 259.488 
L 151.28838 269.088 
L 151.947577 264.288 
L 152.277176 269.088 
L 152.606774 269.088 
L 152.936373 261.888 
L 153.265971 264.288 
L 153.59557 269.088 
L 154.254767 269.088 
L 154.584365 266.688 
L 154.913964 269.088 
L 155.90276 269.088 
L 156.232358 259.488 
L 156.561957 259.488 
L 156.891555 249.888 
L 157.550752 259.488 
L 157.880351 254.688 
L 158.209949 247.488 
L 158.539548 245.088 
L 158.869146 237.888 
L 159.198745 237.888 
L 159.528343 230.688 
L 160.517139 230.688 
L 160.846737 225.888 
L 161.176336 235.488 
L 161.505934 237.888 
L 161.835533 249.888 
L 162.165132 245.088 
L 162.49473 245.088 
L 163.153927 259.488 
L 163.483526 261.888 
L 163.813124 269.088 
L 164.142723 257.088 
L 164.80192 261.888 
L 165.131518 261.888 
L 165.461117 249.888 
L 165.790715 252.288 
L 166.120314 245.088 
L 166.449912 245.088 
L 166.779511 242.688 
L 167.109109 247.488 
L 167.438708 245.088 
L 167.768306 249.888 
L 168.097905 245.088 
L 168.757102 245.088 
L 169.086701 254.688 
L 169.416299 259.488 
L 169.745898 259.488 
L 170.075496 257.088 
L 170.405095 269.088 
L 170.734693 261.888 
L 171.064292 266.688 
L 171.39389 259.488 
L 171.723489 261.888 
L 172.053087 247.488 
L 172.382686 249.888 
L 172.712284 249.888 
L 173.041883 254.688 
L 173.371481 247.488 
L 174.030678 247.488 
L 174.360277 249.888 
L 174.689875 249.888 
L 175.019474 252.288 
L 175.349072 249.888 
L 175.678671 257.088 
L 176.008269 259.488 
L 176.337868 266.688 
L 176.667467 266.688 
L 176.997065 281.088 
L 177.985861 247.488 
L 178.645058 237.888 
L 178.974656 240.288 
L 179.304255 240.288 
L 179.633853 235.488 
L 180.29305 235.488 
L 180.622649 237.888 
L 181.281846 228.288 
L 181.611444 225.888 
L 181.941043 221.088 
L 182.60024 242.688 
L 182.929838 242.688 
L 183.259437 247.488 
L 183.589036 249.888 
L 183.918634 245.088 
L 184.248233 245.088 
L 184.577831 249.888 
L 184.90743 247.488 
L 185.237028 249.888 
L 185.566627 247.488 
L 186.225824 257.088 
L 186.555422 252.288 
L 187.214619 252.288 
L 187.544218 254.688 
L 187.873816 259.488 
L 188.203415 266.688 
L 188.533013 269.088 
L 188.862612 273.888 
L 189.19221 273.888 
L 189.521809 269.088 
L 189.851407 242.688 
L 190.510605 233.088 
L 191.169802 233.088 
L 191.4994 228.288 
L 191.828999 233.088 
L 192.158597 233.088 
L 192.488196 230.688 
L 192.817794 235.488 
L 193.147393 225.888 
L 193.80659 225.888 
L 194.136188 223.488 
L 194.465787 223.488 
L 194.795385 252.288 
L 195.454582 261.888 
L 196.113779 257.088 
L 196.443378 269.088 
L 196.772976 269.088 
L 197.102575 266.688 
L 197.432174 266.688 
L 197.761772 264.288 
L 198.091371 273.888 
L 199.080166 273.888 
L 199.409765 276.288 
L 199.739363 276.288 
L 200.068962 266.688 
L 200.39856 269.088 
L 201.057757 269.088 
L 201.387356 266.688 
L 201.716954 266.688 
L 202.046553 264.288 
L 202.70575 269.088 
L 203.035348 259.488 
L 203.364947 257.088 
L 203.694545 257.088 
L 204.024144 254.688 
L 204.353743 242.688 
L 204.683341 242.688 
L 205.01294 252.288 
L 205.342538 252.288 
L 205.672137 249.888 
L 206.331334 249.888 
L 206.660932 245.088 
L 206.990531 249.888 
L 207.320129 249.888 
L 207.649728 247.488 
L 207.979326 252.288 
L 208.308925 249.888 
L 208.968122 249.888 
L 209.29772 259.488 
L 209.627319 257.088 
L 209.956917 252.288 
L 210.286516 249.888 
L 210.616114 254.688 
L 210.945713 257.088 
L 211.275311 254.688 
L 211.60491 245.088 
L 211.934509 240.288 
L 212.264107 240.288 
L 212.923304 245.088 
L 213.252903 249.888 
L 213.582501 245.088 
L 214.241698 254.688 
L 214.571297 257.088 
L 214.900895 261.888 
L 215.230494 259.488 
L 215.560092 240.288 
L 215.889691 237.888 
L 216.219289 240.288 
L 216.548888 254.688 
L 217.537683 254.688 
L 217.867282 252.288 
L 218.19688 247.488 
L 218.526479 252.288 
L 218.856078 252.288 
L 219.515275 247.488 
L 219.844873 247.488 
L 220.174472 252.288 
L 220.50407 266.688 
L 220.833669 269.088 
L 221.163267 266.688 
L 221.492866 266.688 
L 221.822464 271.488 
L 222.152063 269.088 
L 222.481661 269.088 
L 222.81126 273.888 
L 223.140858 276.288 
L 223.470457 269.088 
L 223.800055 252.288 
L 224.459252 257.088 
L 224.788851 257.088 
L 225.118449 254.688 
L 225.448048 257.088 
L 225.777647 257.088 
L 226.107245 254.688 
L 226.436844 249.888 
L 227.425639 249.888 
L 227.755238 245.088 
L 228.084836 247.488 
L 228.414435 254.688 
L 228.744033 271.488 
L 229.732829 264.288 
L 230.721624 264.288 
L 231.051223 271.488 
L 231.380821 273.888 
L 231.71042 273.888 
L 232.040018 276.288 
L 232.369617 271.488 
L 232.699216 276.288 
L 233.028814 276.288 
L 233.358413 271.488 
L 233.688011 271.488 
L 234.01761 266.688 
L 234.347208 269.088 
L 234.676807 269.088 
L 235.336004 273.888 
L 235.995201 273.888 
L 236.654398 269.088 
L 236.983996 254.688 
L 237.313595 259.488 
L 238.631989 259.488 
L 238.961587 264.288 
L 239.291186 259.488 
L 239.620784 261.888 
L 240.279982 261.888 
L 240.60958 257.088 
L 240.939179 247.488 
L 241.268777 249.888 
L 241.598376 245.088 
L 241.927974 257.088 
L 242.257573 257.088 
L 242.587171 249.888 
L 242.91677 249.888 
L 243.246368 254.688 
L 243.575967 254.688 
L 243.905565 257.088 
L 244.235164 261.888 
L 244.564762 261.888 
L 244.894361 257.088 
L 245.223959 249.888 
L 245.553558 254.688 
L 245.883156 252.288 
L 246.212755 252.288 
L 246.542353 259.488 
L 247.531149 259.488 
L 247.860748 257.088 
L 248.849543 257.088 
L 249.179142 249.888 
L 249.50874 247.488 
L 249.838339 249.888 
L 250.167937 257.088 
L 250.497536 257.088 
L 250.827134 269.088 
L 251.486331 269.088 
L 251.81593 271.488 
L 252.145528 271.488 
L 252.475127 276.288 
L 252.804725 278.688 
L 253.134324 278.688 
L 253.463922 269.088 
L 254.12312 269.088 
L 254.452718 266.688 
L 254.782317 269.088 
L 255.441514 269.088 
L 255.771112 266.688 
L 256.100711 269.088 
L 256.430309 269.088 
L 256.759908 264.288 
L 257.089506 264.288 
L 257.419105 266.688 
L 258.078302 266.688 
L 258.4079 276.288 
L 258.737499 273.888 
L 259.067097 281.088 
L 259.396696 283.488 
L 259.726294 278.688 
L 260.055893 276.288 
L 260.385491 276.288 
L 260.71509 278.688 
L 261.374287 278.688 
L 261.703886 283.488 
L 262.033484 281.088 
L 262.363083 281.088 
L 262.692681 271.488 
L 263.351878 271.488 
L 263.681477 273.888 
L 264.340674 273.888 
L 264.670272 278.688 
L 264.999871 273.888 
L 265.988666 273.888 
L 266.318265 271.488 
L 266.647863 266.688 
L 266.977462 269.088 
L 267.30706 269.088 
L 267.636659 278.688 
L 268.625455 278.688 
L 268.955053 276.288 
L 269.284652 278.688 
L 269.61425 276.288 
L 269.943849 283.488 
L 270.273447 281.088 
L 270.932644 281.088 
L 271.262243 283.488 
L 273.569432 283.488 
L 273.899031 285.888 
L 275.217425 285.888 
L 275.547024 283.488 
L 275.876622 283.488 
L 276.206221 281.088 
L 276.535819 283.488 
L 277.195016 271.488 
L 277.524615 269.088 
L 277.854213 261.888 
L 278.183812 261.888 
L 278.51341 259.488 
L 278.843009 259.488 
L 279.172607 254.688 
L 279.502206 254.688 
L 280.161403 249.888 
L 281.150198 249.888 
L 281.479797 252.288 
L 282.138994 264.288 
L 282.468593 266.688 
L 282.798191 271.488 
L 283.12779 269.088 
L 283.457388 271.488 
L 283.786987 269.088 
L 284.116585 273.888 
L 284.446184 276.288 
L 285.105381 276.288 
L 285.434979 278.688 
L 285.764578 278.688 
L 286.423775 273.888 
L 287.41257 273.888 
L 288.071767 278.688 
L 288.401366 278.688 
L 288.730964 281.088 
L 289.390162 276.288 
L 289.71976 278.688 
L 292.02695 278.688 
L 292.356548 273.888 
L 293.674942 273.888 
L 294.334139 278.688 
L 294.663738 278.688 
L 294.993336 283.488 
L 295.652533 283.488 
L 295.982132 288.288 
L 296.970928 288.288 
L 297.300526 293.088 
L 299.607716 293.088 
L 299.937314 288.288 
L 300.596511 288.288 
L 300.92611 285.888 
L 302.903701 285.888 
L 303.233299 283.488 
L 304.551694 283.488 
L 304.881292 285.888 
L 305.870088 285.888 
L 306.199686 288.288 
L 306.529285 288.288 
L 306.858883 285.888 
L 309.495671 285.888 
L 309.82527 288.288 
L 310.484467 288.288 
L 310.814066 290.688 
L 313.121255 290.688 
L 313.450854 288.288 
L 314.769248 288.288 
L 315.098846 285.888 
L 316.41724 285.888 
L 316.746839 288.288 
L 317.076437 288.288 
L 317.735635 283.488 
L 318.394832 288.288 
L 321.03162 288.288 
L 321.361218 285.888 
L 322.020415 285.888 
L 322.679612 290.688 
L 323.009211 285.888 
L 323.338809 285.888 
L 323.998006 281.088 
L 325.975598 281.088 
L 326.305196 283.488 
L 326.964393 283.488 
L 327.293992 281.088 
L 327.62359 281.088 
L 327.953189 285.888 
L 328.282787 285.888 
L 328.941984 290.688 
L 329.271583 288.288 
L 329.601181 288.288 
L 329.93078 285.888 
L 330.260378 285.888 
L 330.589977 283.488 
L 331.908371 283.488 
L 332.23797 285.888 
L 333.885962 285.888 
L 334.215561 288.288 
L 334.545159 288.288 
L 334.874758 293.088 
L 335.204356 290.688 
L 335.533955 293.088 
L 335.863553 290.688 
L 340.477933 290.688 
L 340.807531 293.088 
L 342.455524 293.088 
L 343.114721 288.288 
L 344.762713 288.288 
L 345.092312 290.688 
L 345.42191 283.488 
L 345.751509 283.488 
L 346.081108 281.088 
L 347.399502 281.088 
L 348.058699 285.888 
L 348.388297 285.888 
L 348.717896 283.488 
L 350.03629 283.488 
L 350.365888 290.688 
L 350.695487 290.688 
L 351.025085 293.088 
L 353.332275 293.088 
L 353.661874 295.488 
L 354.321071 295.488 
L 354.650669 293.088 
L 354.980268 293.088 
L 355.309866 290.688 
L 356.298662 290.688 
L 356.957859 285.888 
L 357.617056 285.888 
L 357.946654 283.488 
L 359.265048 283.488 
L 359.594647 285.888 
L 359.924246 285.888 
L 360.253844 288.288 
L 361.24264 288.288 
L 361.901837 293.088 
L 362.561034 293.088 
L 362.890632 295.488 
L 363.220231 293.088 
L 365.197822 293.088 
L 365.52742 290.688 
L 367.83461 290.688 
L 368.164209 293.088 
L 370.1418 293.088 
L 370.471398 290.688 
L 375.085778 290.688 
L 375.415376 295.488 
L 380.359354 295.488 
L 380.688952 293.088 
L 383.655339 293.088 
L 383.984938 290.688 
L 385.303332 290.688 
L 385.63293 293.088 
L 388.599317 293.088 
L 388.928916 295.488 
L 389.258514 295.488 
L 389.588113 293.088 
L 389.917711 293.088 
L 390.24731 290.688 
L 392.224901 290.688 
L 392.554499 288.288 
L 392.884098 288.288 
L 393.213696 285.888 
L 394.202492 285.888 
L 394.53209 288.288 
L 394.861689 288.288 
L 395.191287 290.688 
L 396.509682 290.688 
L 396.83928 288.288 
L 397.168879 288.288 
L 397.498477 290.688 
L 397.828076 290.688 
L 398.157674 293.088 
L 398.487273 293.088 
L 398.487273 293.088 
" clip-path="url(#p0ee5b3add0)" style="fill: none; stroke-dasharray: 1.85,0.8; stroke-dashoffset: 0; stroke: #00b5eb; stroke-width: 0.5"/>
   </g>
   <g id="line2d_15">
    <path d="M 73.832727 295.488 
L 113.054952 295.488 
L 113.38455 293.430857 
L 117.998929 293.430857 
L 118.328528 295.488 
L 127.886885 295.488 
L 128.216484 293.430857 
L 131.18287 293.430857 
L 131.512469 291.373714 
L 132.830863 291.373714 
L 133.160461 293.430857 
L 136.126848 293.430857 
L 136.456447 289.316571 
L 137.774841 289.316571 
L 138.104439 279.030857 
L 139.422833 279.030857 
L 139.752432 276.973714 
L 142.718819 276.973714 
L 143.048417 283.145143 
L 146.014804 283.145143 
L 146.344402 287.259429 
L 147.662796 287.259429 
L 147.992395 285.202286 
L 149.310789 285.202286 
L 149.640388 283.145143 
L 150.958782 283.145143 
L 151.28838 279.030857 
L 152.606774 279.030857 
L 152.936373 266.688 
L 154.254767 266.688 
L 154.584365 262.573714 
L 157.550752 262.573714 
L 157.880351 274.916571 
L 159.198745 274.916571 
L 159.528343 268.745143 
L 160.846737 268.745143 
L 161.176336 262.573714 
L 162.49473 262.573714 
L 162.824329 258.459429 
L 164.142723 258.459429 
L 164.472321 250.230857 
L 165.790715 250.230857 
L 166.120314 254.345143 
L 167.438708 254.345143 
L 167.768306 262.573714 
L 169.086701 262.573714 
L 169.416299 281.088 
L 170.734693 281.088 
L 171.064292 276.973714 
L 172.382686 276.973714 
L 172.712284 266.688 
L 174.030678 266.688 
L 174.360277 264.630857 
L 175.678671 264.630857 
L 176.008269 254.345143 
L 177.326664 254.345143 
L 177.656262 244.059429 
L 180.622649 244.059429 
L 180.952247 264.630857 
L 182.270641 264.630857 
L 182.60024 279.030857 
L 183.918634 279.030857 
L 184.248233 256.402286 
L 185.566627 256.402286 
L 185.896225 244.059429 
L 187.214619 244.059429 
L 187.544218 248.173714 
L 188.862612 248.173714 
L 189.19221 262.573714 
L 190.510605 262.573714 
L 190.840203 274.916571 
L 192.158597 274.916571 
L 192.488196 268.745143 
L 193.80659 268.745143 
L 194.136188 264.630857 
L 195.454582 264.630857 
L 195.784181 254.345143 
L 197.102575 254.345143 
L 197.432174 252.288 
L 198.750568 252.288 
L 199.080166 258.459429 
L 200.39856 258.459429 
L 200.728159 246.116571 
L 202.046553 246.116571 
L 202.376151 252.288 
L 205.342538 252.288 
L 205.672137 272.859429 
L 206.001735 272.859429 
L 206.331334 268.745143 
L 206.990531 268.745143 
L 207.320129 272.859429 
L 208.638523 272.859429 
L 208.968122 276.973714 
L 211.934509 276.973714 
L 212.264107 279.030857 
L 212.593706 279.030857 
L 212.923304 276.973714 
L 213.582501 276.973714 
L 213.9121 285.202286 
L 214.241698 285.202286 
L 214.571297 262.573714 
L 215.230494 262.573714 
L 215.560092 266.688 
L 215.889691 266.688 
L 216.219289 270.802286 
L 216.878486 270.802286 
L 217.208085 260.516571 
L 217.537683 260.516571 
L 217.867282 258.459429 
L 218.526479 258.459429 
L 218.856078 254.345143 
L 219.185676 254.345143 
L 219.515275 268.745143 
L 222.481661 268.745143 
L 222.81126 262.573714 
L 223.470457 262.573714 
L 223.800055 264.630857 
L 224.129654 264.630857 
L 224.459252 268.745143 
L 225.118449 268.745143 
L 225.448048 264.630857 
L 225.777647 264.630857 
L 226.107245 254.345143 
L 226.766442 254.345143 
L 227.096041 264.630857 
L 227.425639 264.630857 
L 227.755238 274.916571 
L 228.414435 274.916571 
L 228.744033 264.630857 
L 229.073632 264.630857 
L 229.40323 268.745143 
L 230.062427 268.745143 
L 230.392026 272.859429 
L 230.721624 272.859429 
L 231.051223 283.145143 
L 231.71042 283.145143 
L 232.040018 270.802286 
L 232.369617 270.802286 
L 232.699216 262.573714 
L 233.358413 262.573714 
L 233.688011 268.745143 
L 235.006405 268.745143 
L 235.336004 262.573714 
L 235.665602 262.573714 
L 235.995201 260.516571 
L 236.654398 260.516571 
L 236.983996 258.459429 
L 238.30239 258.459429 
L 238.631989 260.516571 
L 239.950383 260.516571 
L 240.279982 258.459429 
L 240.60958 258.459429 
L 240.939179 260.516571 
L 241.598376 260.516571 
L 241.927974 268.745143 
L 242.257573 268.745143 
L 242.587171 264.630857 
L 243.246368 264.630857 
L 243.575967 268.745143 
L 243.905565 268.745143 
L 244.235164 262.573714 
L 244.894361 262.573714 
L 245.223959 270.802286 
L 246.542353 270.802286 
L 246.871952 274.916571 
L 247.201551 274.916571 
L 247.531149 287.259429 
L 248.190346 287.259429 
L 248.519945 279.030857 
L 248.849543 279.030857 
L 249.179142 283.145143 
L 249.838339 283.145143 
L 250.167937 279.030857 
L 251.486331 279.030857 
L 251.81593 281.088 
L 252.145528 281.088 
L 252.475127 266.688 
L 253.134324 266.688 
L 253.463922 262.573714 
L 253.793521 262.573714 
L 254.12312 264.630857 
L 254.782317 264.630857 
L 255.111915 268.745143 
L 255.441514 268.745143 
L 255.771112 244.059429 
L 257.089506 244.059429 
L 257.419105 254.345143 
L 258.078302 254.345143 
L 258.4079 266.688 
L 258.737499 266.688 
L 259.067097 262.573714 
L 260.385491 262.573714 
L 260.71509 274.916571 
L 262.033484 274.916571 
L 262.363083 279.030857 
L 263.02228 279.030857 
L 263.351878 276.973714 
L 263.681477 276.973714 
L 264.011075 274.916571 
L 265.329469 274.916571 
L 265.659068 285.202286 
L 266.318265 285.202286 
L 266.647863 264.630857 
L 267.966257 264.630857 
L 268.295856 258.459429 
L 268.625455 258.459429 
L 268.955053 264.630857 
L 269.61425 264.630857 
L 269.943849 256.402286 
L 270.273447 256.402286 
L 270.603046 258.459429 
L 271.262243 258.459429 
L 271.591841 279.030857 
L 271.92144 279.030857 
L 272.251038 276.973714 
L 272.910235 276.973714 
L 273.239834 285.202286 
L 274.558228 285.202286 
L 274.887826 289.316571 
L 276.206221 289.316571 
L 276.535819 281.088 
L 276.865418 281.088 
L 277.195016 268.745143 
L 277.854213 268.745143 
L 278.183812 260.516571 
L 279.502206 260.516571 
L 279.831804 264.630857 
L 281.150198 264.630857 
L 281.479797 270.802286 
L 282.798191 270.802286 
L 283.12779 279.030857 
L 283.457388 279.030857 
L 283.786987 276.973714 
L 284.446184 276.973714 
L 284.775782 272.859429 
L 286.094176 272.859429 
L 286.423775 274.916571 
L 286.753373 274.916571 
L 287.082972 287.259429 
L 287.742169 287.259429 
L 288.071767 285.202286 
L 288.401366 285.202286 
L 288.730964 283.145143 
L 289.390162 283.145143 
L 289.71976 287.259429 
L 291.038154 287.259429 
L 291.367753 285.202286 
L 291.697351 285.202286 
L 292.02695 283.145143 
L 292.686147 283.145143 
L 293.015745 276.973714 
L 293.345344 276.973714 
L 293.674942 279.030857 
L 294.334139 279.030857 
L 294.663738 274.916571 
L 295.982132 274.916571 
L 296.311731 276.973714 
L 296.641329 276.973714 
L 296.970928 281.088 
L 297.630125 281.088 
L 297.959723 289.316571 
L 298.289322 289.316571 
L 298.61892 291.373714 
L 299.278117 291.373714 
L 299.607716 295.488 
L 300.92611 295.488 
L 301.255708 291.373714 
L 301.585307 285.202286 
L 302.574102 285.202286 
L 302.903701 283.145143 
L 304.222095 283.145143 
L 304.551694 276.973714 
L 304.881292 274.916571 
L 305.870088 274.916571 
L 306.199686 276.973714 
L 306.529285 281.088 
L 307.51808 281.088 
L 308.177277 276.973714 
L 309.166073 276.973714 
L 309.495671 281.088 
L 309.82527 283.145143 
L 310.814066 283.145143 
L 311.143664 279.030857 
L 311.473263 281.088 
L 312.462058 281.088 
L 312.791657 285.202286 
L 313.121255 287.259429 
L 314.110051 287.259429 
L 314.439649 285.202286 
L 315.758043 285.202286 
L 316.087642 291.373714 
L 316.41724 276.973714 
L 319.054029 276.973714 
L 319.383627 279.030857 
L 320.702021 279.030857 
L 321.03162 274.916571 
L 321.361218 289.316571 
L 323.998006 289.316571 
L 324.327605 291.373714 
L 325.645999 291.373714 
L 325.975598 295.488 
L 326.305196 283.145143 
L 330.919575 283.145143 
L 331.249174 295.488 
L 332.23797 295.488 
L 332.567568 293.430857 
L 337.181947 293.430857 
L 337.511546 295.488 
L 337.841144 291.373714 
L 339.489137 291.373714 
L 339.818736 289.316571 
L 341.13713 289.316571 
L 341.466728 287.259429 
L 342.455524 287.259429 
L 342.785122 291.373714 
L 344.433115 291.373714 
L 344.762713 285.202286 
L 346.081108 285.202286 
L 346.410706 283.145143 
L 347.7291 283.145143 
L 348.058699 279.030857 
L 349.377093 279.030857 
L 349.706691 287.259429 
L 351.025085 287.259429 
L 351.354684 291.373714 
L 352.673078 291.373714 
L 353.002677 289.316571 
L 354.321071 289.316571 
L 354.650669 279.030857 
L 357.617056 279.030857 
L 357.946654 285.202286 
L 359.265048 285.202286 
L 359.594647 293.430857 
L 362.561034 293.430857 
L 362.890632 285.202286 
L 367.505012 285.202286 
L 367.83461 293.430857 
L 374.096982 293.430857 
L 374.426581 291.373714 
L 375.744975 291.373714 
L 376.074573 289.316571 
L 377.392967 289.316571 
L 377.722566 287.259429 
L 379.04096 287.259429 
L 379.370558 285.202286 
L 380.688952 285.202286 
L 381.018551 287.259429 
L 382.336945 287.259429 
L 382.666544 285.202286 
L 383.984938 285.202286 
L 384.314536 287.259429 
L 387.280923 287.259429 
L 387.610521 291.373714 
L 393.872893 291.373714 
L 394.202492 295.488 
L 395.520886 295.488 
L 395.850485 291.373714 
L 397.168879 291.373714 
L 397.498477 289.316571 
L 398.487273 289.316571 
L 398.487273 289.316571 
" clip-path="url(#p0ee5b3add0)" style="fill: none; stroke-dasharray: 1.85,0.8; stroke-dashoffset: 0; stroke: #80ffb4; stroke-width: 0.5"/>
   </g>
   <g id="line2d_16">
    <path d="M 73.832727 295.488 
L 134.149257 295.488 
L 134.478856 293.688 
L 134.808454 290.088 
L 137.445242 290.088 
L 137.774841 288.288 
L 139.093235 288.288 
L 139.422833 290.088 
L 139.752432 293.688 
L 141.070826 293.688 
L 141.400425 286.488 
L 142.38922 286.488 
L 142.718819 288.288 
L 144.366811 288.288 
L 144.69641 284.688 
L 146.014804 284.688 
L 146.344402 291.888 
L 147.333198 291.888 
L 147.662796 282.888 
L 147.992395 277.488 
L 149.310789 277.488 
L 149.640388 281.088 
L 150.629183 281.088 
L 150.958782 277.488 
L 151.28838 275.688 
L 152.277176 275.688 
L 152.606774 284.688 
L 152.936373 290.088 
L 153.925168 290.088 
L 154.254767 282.888 
L 154.584365 279.288 
L 155.573161 279.288 
L 155.90276 282.888 
L 156.232358 284.688 
L 157.550752 284.688 
L 157.880351 273.888 
L 158.869146 273.888 
L 159.198745 281.088 
L 159.528343 284.688 
L 160.517139 284.688 
L 161.176336 250.488 
L 162.49473 250.488 
L 162.824329 261.288 
L 163.813124 261.288 
L 164.472321 241.488 
L 165.461117 241.488 
L 166.120314 275.688 
L 168.757102 275.688 
L 169.416299 295.488 
L 170.405095 295.488 
L 171.064292 279.288 
L 173.70108 279.288 
L 174.030678 266.688 
L 175.349072 266.688 
L 176.008269 282.888 
L 176.997065 282.888 
L 177.326664 281.088 
L 178.645058 281.088 
L 178.974656 293.688 
L 180.29305 293.688 
L 180.952247 252.288 
L 181.941043 252.288 
L 182.270641 254.088 
L 183.589036 254.088 
L 183.918634 241.488 
L 185.237028 241.488 
L 185.896225 282.888 
L 187.214619 282.888 
L 187.544218 279.288 
L 188.533013 279.288 
L 188.862612 291.888 
L 190.510605 291.888 
L 190.840203 286.488 
L 192.158597 286.488 
L 192.488196 290.088 
L 193.476991 290.088 
L 193.80659 277.488 
L 194.136188 255.888 
L 195.454582 255.888 
L 195.784181 261.288 
L 197.102575 261.288 
L 197.432174 259.488 
L 198.420969 259.488 
L 198.750568 272.088 
L 199.080166 293.688 
L 200.068962 293.688 
L 200.39856 288.288 
L 200.728159 279.288 
L 202.046553 279.288 
L 202.376151 281.088 
L 203.364947 281.088 
L 203.694545 259.488 
L 205.01294 259.488 
L 205.342538 264.888 
L 205.672137 273.888 
L 206.660932 273.888 
L 206.990531 248.688 
L 207.320129 239.688 
L 208.308925 239.688 
L 208.638523 261.288 
L 211.60491 261.288 
L 211.934509 286.488 
L 212.264107 295.488 
L 213.252903 295.488 
L 213.9121 279.288 
L 216.878486 279.288 
L 217.208085 255.888 
L 218.19688 255.888 
L 218.856078 272.088 
L 219.844873 272.088 
L 220.174472 264.888 
L 221.822464 264.888 
L 222.152063 288.288 
L 223.140858 288.288 
L 223.470457 275.688 
L 223.800055 270.288 
L 224.788851 270.288 
L 225.118449 277.488 
L 226.436844 277.488 
L 226.766442 261.288 
L 227.096041 236.088 
L 228.084836 236.088 
L 228.414435 248.688 
L 228.744033 254.088 
L 230.062427 254.088 
L 230.392026 232.488 
L 231.380821 232.488 
L 231.71042 248.688 
L 232.040018 273.888 
L 233.028814 273.888 
L 233.358413 264.888 
L 235.006405 264.888 
L 235.336004 286.488 
L 236.324799 286.488 
L 236.654398 284.688 
L 237.972792 284.688 
L 238.30239 293.688 
L 239.620784 293.688 
L 239.950383 291.888 
L 240.279982 266.688 
L 241.268777 266.688 
L 241.598376 268.488 
L 242.91677 268.488 
L 243.246368 264.888 
L 243.575967 245.088 
L 244.564762 245.088 
L 244.894361 246.888 
L 245.223959 272.088 
L 246.212755 272.088 
L 246.542353 250.488 
L 247.860748 250.488 
L 248.190346 254.088 
L 248.519945 273.888 
L 249.838339 273.888 
L 250.167937 264.888 
L 251.156733 264.888 
L 251.486331 286.488 
L 252.804725 286.488 
L 253.134324 266.688 
L 254.782317 266.688 
L 255.111915 275.688 
L 256.430309 275.688 
L 256.759908 250.488 
L 257.748703 250.488 
L 258.078302 270.288 
L 259.396696 270.288 
L 259.726294 259.488 
L 261.374287 259.488 
L 261.703886 284.688 
L 262.692681 284.688 
L 263.02228 279.288 
L 264.340674 279.288 
L 264.670272 290.088 
L 266.318265 290.088 
L 266.647863 286.488 
L 267.636659 286.488 
L 267.966257 291.888 
L 269.284652 291.888 
L 269.61425 288.288 
L 271.262243 288.288 
L 271.591841 291.888 
L 272.580637 291.888 
L 272.910235 282.888 
L 273.239834 279.288 
L 274.228629 279.288 
L 274.558228 282.888 
L 275.547024 282.888 
L 276.206221 264.888 
L 277.524615 264.888 
L 277.854213 273.888 
L 278.183812 277.488 
L 278.843009 277.488 
L 279.172607 264.888 
L 279.502206 261.288 
L 280.491001 261.288 
L 281.150198 279.288 
L 282.468593 279.288 
L 282.798191 270.288 
L 283.786987 270.288 
L 284.116585 282.888 
L 284.446184 286.488 
L 285.434979 286.488 
L 285.764578 282.888 
L 286.094176 268.488 
L 287.41257 268.488 
L 287.742169 277.488 
L 289.060563 277.488 
L 289.390162 272.088 
L 290.378957 272.088 
L 290.708556 275.688 
L 291.038154 290.088 
L 292.356548 290.088 
L 292.686147 281.088 
L 294.004541 281.088 
L 294.334139 286.488 
L 295.652533 286.488 
L 295.982132 272.088 
L 297.300526 272.088 
L 297.630125 281.088 
L 298.948519 281.088 
L 299.278117 266.688 
L 300.596511 266.688 
L 300.92611 281.088 
L 302.244504 281.088 
L 302.574102 272.088 
L 303.892497 272.088 
L 304.222095 286.488 
L 305.540489 286.488 
L 305.870088 279.288 
L 307.188482 279.288 
L 307.51808 288.288 
L 310.484467 288.288 
L 310.814066 295.488 
L 312.13246 295.488 
L 312.462058 288.288 
L 315.428445 288.288 
L 315.758043 268.488 
L 317.076437 268.488 
L 317.406036 275.688 
L 318.72443 275.688 
L 319.054029 268.488 
L 320.372423 268.488 
L 320.702021 288.288 
L 322.020415 288.288 
L 322.350014 282.888 
L 323.668408 282.888 
L 323.998006 290.088 
L 325.316401 290.088 
L 325.645999 284.688 
L 326.964393 284.688 
L 327.293992 290.088 
L 328.612386 290.088 
L 328.941984 282.888 
L 330.260378 282.888 
L 330.589977 288.288 
L 331.908371 288.288 
L 332.23797 284.688 
L 333.556364 284.688 
L 333.885962 291.888 
L 335.204356 291.888 
L 335.533955 290.088 
L 336.852349 290.088 
L 337.181947 293.688 
L 338.500341 293.688 
L 338.82994 291.888 
L 340.148334 291.888 
L 340.477933 293.688 
L 341.796327 293.688 
L 342.125925 264.888 
L 343.444319 264.888 
L 343.773918 266.688 
L 345.092312 266.688 
L 345.42191 264.888 
L 346.740305 264.888 
L 347.069903 293.688 
L 350.03629 293.688 
L 350.365888 295.488 
L 351.684282 295.488 
L 352.013881 286.488 
L 356.62826 286.488 
L 356.957859 295.488 
L 358.276253 295.488 
L 358.605851 291.888 
L 361.572238 291.888 
L 361.901837 288.288 
L 363.220231 288.288 
L 363.549829 291.888 
L 364.868223 291.888 
L 365.197822 284.688 
L 366.516216 284.688 
L 366.845814 288.288 
L 368.164209 288.288 
L 368.493807 286.488 
L 369.812201 286.488 
L 370.1418 293.688 
L 371.460194 293.688 
L 371.789792 286.488 
L 373.108186 286.488 
L 373.437785 288.288 
L 374.756179 288.288 
L 375.085778 270.288 
L 376.404172 270.288 
L 376.73377 277.488 
L 378.052164 277.488 
L 378.381763 268.488 
L 379.700157 268.488 
L 380.029755 286.488 
L 382.996142 286.488 
L 383.325741 295.488 
L 384.644135 295.488 
L 384.973733 288.288 
L 389.588113 288.288 
L 389.917711 295.488 
L 391.236105 295.488 
L 391.565704 293.688 
L 396.180083 293.688 
L 396.509682 295.488 
L 397.828076 295.488 
L 398.157674 293.688 
L 398.487273 293.688 
L 398.487273 293.688 
" clip-path="url(#p0ee5b3add0)" style="fill: none; stroke-dasharray: 1.85,0.8; stroke-dashoffset: 0; stroke: #ffb360; stroke-width: 0.5"/>
   </g>
   <g id="line2d_17">
    <path d="M 73.832727 295.488 
L 141.070826 295.488 
L 141.400425 292.288 
L 146.014804 292.288 
L 146.344402 295.488 
L 147.662796 295.488 
L 147.992395 294.421333 
L 152.606774 294.421333 
L 152.936373 295.488 
L 154.254767 295.488 
L 154.584365 290.154667 
L 159.198745 290.154667 
L 159.528343 295.488 
L 160.846737 295.488 
L 161.176336 269.888 
L 165.790715 269.888 
L 166.120314 295.488 
L 167.438708 295.488 
L 167.768306 285.888 
L 172.382686 285.888 
L 172.712284 295.488 
L 174.030678 295.488 
L 174.360277 286.954667 
L 178.974656 286.954667 
L 179.304255 295.488 
L 180.622649 295.488 
L 180.952247 275.221333 
L 185.566627 275.221333 
L 185.896225 295.488 
L 187.214619 295.488 
L 187.544218 282.688 
L 192.158597 282.688 
L 192.488196 295.488 
L 193.80659 295.488 
L 194.136188 273.088 
L 198.750568 273.088 
L 199.080166 295.488 
L 200.39856 295.488 
L 200.728159 268.821333 
L 205.342538 268.821333 
L 205.672137 295.488 
L 206.990531 295.488 
L 207.320129 278.421333 
L 207.979326 278.421333 
L 208.308925 277.354667 
L 211.934509 277.354667 
L 212.264107 294.421333 
L 212.923304 294.421333 
L 213.252903 295.488 
L 213.582501 295.488 
L 213.9121 282.688 
L 214.571297 282.688 
L 214.900895 278.421333 
L 218.526479 278.421333 
L 218.856078 291.221333 
L 219.515275 291.221333 
L 219.844873 295.488 
L 220.174472 295.488 
L 220.50407 274.154667 
L 221.163267 274.154667 
L 221.492866 269.888 
L 225.118449 269.888 
L 225.448048 291.221333 
L 226.107245 291.221333 
L 226.436844 295.488 
L 226.766442 295.488 
L 227.096041 280.554667 
L 227.755238 280.554667 
L 228.084836 273.088 
L 231.71042 273.088 
L 232.040018 288.021333 
L 232.699216 288.021333 
L 233.028814 295.488 
L 233.358413 295.488 
L 233.688011 266.688 
L 238.30239 266.688 
L 238.631989 295.488 
L 239.950383 295.488 
L 240.279982 290.154667 
L 240.939179 290.154667 
L 241.268777 267.754667 
L 244.894361 267.754667 
L 245.223959 273.088 
L 245.883156 273.088 
L 246.212755 295.488 
L 246.542353 295.488 
L 246.871952 286.954667 
L 247.531149 286.954667 
L 247.860748 280.554667 
L 251.486331 280.554667 
L 251.81593 289.088 
L 252.475127 289.088 
L 252.804725 295.488 
L 253.134324 295.488 
L 253.463922 290.154667 
L 254.12312 290.154667 
L 254.452718 279.488 
L 258.078302 279.488 
L 258.4079 284.821333 
L 259.067097 284.821333 
L 259.396696 295.488 
L 259.726294 295.488 
L 260.055893 281.621333 
L 260.71509 281.621333 
L 261.044689 274.154667 
L 264.670272 274.154667 
L 264.999871 288.021333 
L 265.659068 288.021333 
L 265.988666 295.488 
L 266.318265 295.488 
L 266.647863 286.954667 
L 267.30706 286.954667 
L 267.636659 281.621333 
L 271.262243 281.621333 
L 271.591841 290.154667 
L 272.251038 290.154667 
L 272.580637 295.488 
L 273.899031 295.488 
L 274.228629 290.154667 
L 278.843009 290.154667 
L 279.172607 295.488 
L 279.502206 295.488 
L 279.831804 290.154667 
L 280.491001 290.154667 
L 280.8206 282.688 
L 284.446184 282.688 
L 284.775782 288.021333 
L 285.434979 288.021333 
L 285.764578 295.488 
L 286.094176 295.488 
L 286.423775 290.154667 
L 287.082972 290.154667 
L 287.41257 280.554667 
L 291.038154 280.554667 
L 291.367753 285.888 
L 292.02695 285.888 
L 292.356548 295.488 
L 292.686147 295.488 
L 293.015745 288.021333 
L 297.630125 288.021333 
L 297.959723 295.488 
L 299.278117 295.488 
L 299.607716 267.754667 
L 300.266913 267.754667 
L 300.596511 254.954667 
L 304.222095 254.954667 
L 304.551694 282.688 
L 305.210891 282.688 
L 305.540489 295.488 
L 305.870088 295.488 
L 306.199686 293.354667 
L 306.858883 293.354667 
L 307.188482 286.954667 
L 310.814066 286.954667 
L 311.143664 289.088 
L 311.802861 289.088 
L 312.13246 295.488 
L 313.450854 295.488 
L 313.780452 293.354667 
L 318.394832 293.354667 
L 318.72443 295.488 
L 320.042824 295.488 
L 320.372423 293.354667 
L 324.986802 293.354667 
L 325.316401 295.488 
L 325.645999 295.488 
L 325.975598 292.288 
L 326.634795 292.288 
L 326.964393 290.154667 
L 330.589977 290.154667 
L 330.919575 293.354667 
L 331.578772 293.354667 
L 331.908371 295.488 
L 332.23797 295.488 
L 332.567568 294.421333 
L 333.226765 294.421333 
L 333.556364 286.954667 
L 337.181947 286.954667 
L 337.511546 288.021333 
L 338.170743 288.021333 
L 338.500341 295.488 
L 338.82994 295.488 
L 339.159539 283.754667 
L 339.818736 283.754667 
L 340.148334 282.688 
L 343.773918 282.688 
L 344.103516 294.421333 
L 344.762713 294.421333 
L 345.092312 295.488 
L 352.013881 295.488 
L 352.343479 291.221333 
L 353.002677 291.221333 
L 353.332275 278.421333 
L 356.957859 278.421333 
L 357.287457 282.688 
L 357.946654 282.688 
L 358.276253 295.488 
L 359.594647 295.488 
L 359.924246 292.288 
L 364.538625 292.288 
L 364.868223 295.488 
L 366.186617 295.488 
L 366.516216 294.421333 
L 371.130595 294.421333 
L 371.460194 295.488 
L 378.381763 295.488 
L 378.711361 292.288 
L 383.325741 292.288 
L 383.655339 295.488 
L 385.962529 295.488 
L 386.292127 290.154667 
L 390.906507 290.154667 
L 391.236105 295.488 
L 391.565704 295.488 
L 391.895302 288.021333 
L 392.554499 288.021333 
L 392.884098 282.688 
L 396.509682 282.688 
L 396.83928 290.154667 
L 397.498477 290.154667 
L 397.828076 295.488 
L 398.487273 295.488 
L 398.487273 295.488 
" clip-path="url(#p0ee5b3add0)" style="fill: none; stroke-dasharray: 1.85,0.8; stroke-dashoffset: 0; stroke: #ff0000; stroke-width: 0.5"/>
   </g>
   <g id="patch_3">
    <path d="M 57.6 307.584 
L 57.6 41.472 
" style="fill: none; stroke: #000000; stroke-width: 0.8; stroke-linejoin: miter; stroke-linecap: square"/>
   </g>
   <g id="patch_4">
    <path d="M 414.72 307.584 
L 414.72 41.472 
" style="fill: none; stroke: #000000; stroke-width: 0.8; stroke-linejoin: miter; stroke-linecap: square"/>
   </g>
   <g id="patch_5">
    <path d="M 57.6 307.584 
L 414.72 307.584 
" style="fill: none; stroke: #000000; stroke-width: 0.8; stroke-linejoin: miter; stroke-linecap: square"/>
   </g>
   <g id="patch_6">
    <path d="M 57.6 41.472 
L 414.72 41.472 
" style="fill: none; stroke: #000000; stroke-width: 0.8; stroke-linejoin: miter; stroke-linecap: square"/>
   </g>
   <g id="text_15">
    <!-- Heating Rate ($^{\circ}C.s^{-1}$) -->
    <g transform="translate(271.872 68.0832) scale(0.12 -0.12)">
     <defs>
      <path id="DejaVuSans-48" d="M 628 4666 
L 1259 4666 
L 1259 2753 
L 3553 2753 
L 3553 4666 
L 4184 4666 
L 4184 0 
L 3553 0 
L 3553 2222 
L 1259 2222 
L 1259 0 
L 628 0 
L 628 4666 
z
" transform="scale(0.015625)"/>
      <path id="DejaVuSans-67" d="M 2906 1791 
Q 2906 2416 2648 2759 
Q 2391 3103 1925 3103 
Q 1463 3103 1205 2759 
Q 947 2416 947 1791 
Q 947 1169 1205 825 
Q 1463 481 1925 481 
Q 2391 481 2648 825 
Q 2906 1169 2906 1791 
z
M 3481 434 
Q 3481 -459 3084 -895 
Q 2688 -1331 1869 -1331 
Q 1566 -1331 1297 -1286 
Q 1028 -1241 775 -1147 
L 775 -588 
Q 1028 -725 1275 -790 
Q 1522 -856 1778 -856 
Q 2344 -856 2625 -561 
Q 2906 -266 2906 331 
L 2906 616 
Q 2728 306 2450 153 
Q 2172 0 1784 0 
Q 1141 0 747 490 
Q 353 981 353 1791 
Q 353 2603 747 3093 
Q 1141 3584 1784 3584 
Q 2172 3584 2450 3431 
Q 2728 3278 2906 2969 
L 2906 3500 
L 3481 3500 
L 3481 434 
z
" transform="scale(0.015625)"/>
      <path id="DejaVuSans-52" d="M 2841 2188 
Q 3044 2119 3236 1894 
Q 3428 1669 3622 1275 
L 4263 0 
L 3584 0 
L 2988 1197 
Q 2756 1666 2539 1819 
Q 2322 1972 1947 1972 
L 1259 1972 
L 1259 0 
L 628 0 
L 628 4666 
L 2053 4666 
Q 2853 4666 3247 4331 
Q 3641 3997 3641 3322 
Q 3641 2881 3436 2590 
Q 3231 2300 2841 2188 
z
M 1259 4147 
L 1259 2491 
L 2053 2491 
Q 2509 2491 2742 2702 
Q 2975 2913 2975 3322 
Q 2975 3731 2742 3939 
Q 2509 4147 2053 4147 
L 1259 4147 
z
" transform="scale(0.015625)"/>
      <path id="DejaVuSans-Oblique-73" d="M 3200 3397 
L 3091 2853 
Q 2863 2978 2609 3040 
Q 2356 3103 2088 3103 
Q 1634 3103 1373 2948 
Q 1113 2794 1113 2528 
Q 1113 2219 1719 2053 
Q 1766 2041 1788 2034 
L 1972 1978 
Q 2547 1819 2739 1644 
Q 2931 1469 2931 1166 
Q 2931 609 2489 259 
Q 2047 -91 1331 -91 
Q 1053 -91 747 -37 
Q 441 16 72 128 
L 184 722 
Q 500 559 806 475 
Q 1113 391 1394 391 
Q 1816 391 2080 572 
Q 2344 753 2344 1031 
Q 2344 1331 1650 1516 
L 1591 1531 
L 1394 1581 
Q 956 1697 753 1886 
Q 550 2075 550 2369 
Q 550 2928 970 3256 
Q 1391 3584 2113 3584 
Q 2397 3584 2667 3537 
Q 2938 3491 3200 3397 
z
" transform="scale(0.015625)"/>
     </defs>
     <use xlink:href="#DejaVuSans-48" transform="translate(0 0.684375)"/>
     <use xlink:href="#DejaVuSans-65" transform="translate(75.195312 0.684375)"/>
     <use xlink:href="#DejaVuSans-61" transform="translate(136.71875 0.684375)"/>
     <use xlink:href="#DejaVuSans-74" transform="translate(197.998047 0.684375)"/>
     <use xlink:href="#DejaVuSans-69" transform="translate(237.207031 0.684375)"/>
     <use xlink:href="#DejaVuSans-6e" transform="translate(264.990234 0.684375)"/>
     <use xlink:href="#DejaVuSans-67" transform="translate(328.369141 0.684375)"/>
     <use xlink:href="#DejaVuSans-20" transform="translate(391.845703 0.684375)"/>
     <use xlink:href="#DejaVuSans-52" transform="translate(423.632812 0.684375)"/>
     <use xlink:href="#DejaVuSans-61" transform="translate(493.115234 0.684375)"/>
     <use xlink:href="#DejaVuSans-74" transform="translate(554.394531 0.684375)"/>
     <use xlink:href="#DejaVuSans-65" transform="translate(593.603516 0.684375)"/>
     <use xlink:href="#DejaVuSans-20" transform="translate(655.126953 0.684375)"/>
     <use xlink:href="#DejaVuSans-28" transform="translate(686.914062 0.684375)"/>
     <use xlink:href="#DejaVuSans-2218" transform="translate(726.884766 38.965625) scale(0.7)"/>
     <use xlink:href="#DejaVuSans-Oblique-43" transform="translate(773.4375 0.684375)"/>
     <use xlink:href="#DejaVuSans-2e" transform="translate(843.261719 0.684375)"/>
     <use xlink:href="#DejaVuSans-Oblique-73" transform="translate(894.53125 0.684375)"/>
     <use xlink:href="#DejaVuSans-2212" transform="translate(951.280755 38.965625) scale(0.7)"/>
     <use xlink:href="#DejaVuSans-31" transform="translate(1009.933099 38.965625) scale(0.7)"/>
     <use xlink:href="#DejaVuSans-29" transform="translate(1057.203607 0.684375)"/>
    </g>
   </g>
   <g id="legend_1">
    <g id="patch_7">
     <path d="M 314.584 149.473825 
L 362.487125 149.473825 
Q 364.487125 149.473825 364.487125 147.473825 
L 364.487125 75.0832 
Q 364.487125 73.0832 362.487125 73.0832 
L 314.584 73.0832 
Q 312.584 73.0832 312.584 75.0832 
L 312.584 147.473825 
Q 312.584 149.473825 314.584 149.473825 
z
" style="fill: #ffffff; opacity: 0.8; stroke: #cccccc; stroke-linejoin: miter"/>
    </g>
    <g id="line2d_18">
     <path d="M 316.584 81.181637 
L 326.584 81.181637 
L 336.584 81.181637 
" style="fill: none; stroke-dasharray: 1.85,0.8; stroke-dashoffset: 0; stroke: #8000ff; stroke-width: 0.5"/>
    </g>
    <g id="text_16">
     <!-- 0.1 -->
     <g transform="translate(344.584 84.681637) scale(0.1 -0.1)">
      <use xlink:href="#DejaVuSans-30"/>
      <use xlink:href="#DejaVuSans-2e" transform="translate(63.623047 0)"/>
      <use xlink:href="#DejaVuSans-31" transform="translate(95.410156 0)"/>
     </g>
    </g>
    <g id="line2d_19">
     <path d="M 316.584 95.859762 
L 326.584 95.859762 
L 336.584 95.859762 
" style="fill: none; stroke-dasharray: 1.85,0.8; stroke-dashoffset: 0; stroke: #00b5eb; stroke-width: 0.5"/>
    </g>
    <g id="text_17">
     <!-- 1 -->
     <g transform="translate(344.584 99.359762) scale(0.1 -0.1)">
      <use xlink:href="#DejaVuSans-31"/>
     </g>
    </g>
    <g id="line2d_20">
     <path d="M 316.584 110.537887 
L 326.584 110.537887 
L 336.584 110.537887 
" style="fill: none; stroke-dasharray: 1.85,0.8; stroke-dashoffset: 0; stroke: #80ffb4; stroke-width: 0.5"/>
    </g>
    <g id="text_18">
     <!-- 5 -->
     <g transform="translate(344.584 114.037887) scale(0.1 -0.1)">
      <use xlink:href="#DejaVuSans-35"/>
     </g>
    </g>
    <g id="line2d_21">
     <path d="M 316.584 125.216012 
L 326.584 125.216012 
L 336.584 125.216012 
" style="fill: none; stroke-dasharray: 1.85,0.8; stroke-dashoffset: 0; stroke: #ffb360; stroke-width: 0.5"/>
    </g>
    <g id="text_19">
     <!-- 10 -->
     <g transform="translate(344.584 128.716012) scale(0.1 -0.1)">
      <use xlink:href="#DejaVuSans-31"/>
      <use xlink:href="#DejaVuSans-30" transform="translate(63.623047 0)"/>
     </g>
    </g>
    <g id="line2d_22">
     <path d="M 316.584 139.894137 
L 326.584 139.894137 
L 336.584 139.894137 
" style="fill: none; stroke-dasharray: 1.85,0.8; stroke-dashoffset: 0; stroke: #ff0000; stroke-width: 0.5"/>
    </g>
    <g id="text_20">
     <!-- 20 -->
     <g transform="translate(344.584 143.394137) scale(0.1 -0.1)">
      <use xlink:href="#DejaVuSans-32"/>
      <use xlink:href="#DejaVuSans-30" transform="translate(63.623047 0)"/>
     </g>
    </g>
   </g>
  </g>
 </g>
 <defs>
  <clipPath id="p0ee5b3add0">
   <rect x="57.6" y="41.472" width="357.12" height="266.112"/>
  </clipPath>
 </defs>
</svg>
