<?xml version="1.0" encoding="utf-8" standalone="no"?>
<!DOCTYPE svg PUBLIC "-//W3C//DTD SVG 1.1//EN"
  "http://www.w3.org/Graphics/SVG/1.1/DTD/svg11.dtd">
<svg xmlns:xlink="http://www.w3.org/1999/xlink" width="460.8pt" height="345.6pt" viewBox="0 0 460.8 345.6" xmlns="http://www.w3.org/2000/svg" version="1.1">
 <metadata>
  <rdf:RDF xmlns:dc="http://purl.org/dc/elements/1.1/" xmlns:cc="http://creativecommons.org/ns#" xmlns:rdf="http://www.w3.org/1999/02/22-rdf-syntax-ns#">
   <cc:Work>
    <dc:type rdf:resource="http://purl.org/dc/dcmitype/StillImage"/>
    <dc:date>2025-02-26T13:35:21.657621</dc:date>
    <dc:format>image/svg+xml</dc:format>
    <dc:creator>
     <cc:Agent>
      <dc:title>Matplotlib v3.10.0, https://matplotlib.org/</dc:title>
     </cc:Agent>
    </dc:creator>
   </cc:Work>
  </rdf:RDF>
 </metadata>
 <defs>
  <style type="text/css">*{stroke-linejoin: round; stroke-linecap: butt}</style>
 </defs>
 <g id="figure_1">
  <g id="patch_1">
   <path d="M 0 345.6 
L 460.8 345.6 
L 460.8 0 
L 0 0 
z
" style="fill: #ffffff"/>
  </g>
  <g id="axes_1">
   <g id="patch_2">
    <path d="M 57.6 307.584 
L 414.72 307.584 
L 414.72 41.472 
L 57.6 41.472 
z
" style="fill: #ffffff"/>
   </g>
   <g id="matplotlib.axis_1">
    <g id="xtick_1">
     <g id="line2d_1">
      <defs>
       <path id="m37c89c6eaa" d="M 0 0 
L 0 3.5 
" style="stroke: #000000; stroke-width: 0.8"/>
      </defs>
      <g>
       <use xlink:href="#m37c89c6eaa" x="73.832727" y="307.584" style="stroke: #000000; stroke-width: 0.8"/>
      </g>
     </g>
     <g id="text_1">
      <!-- 0 -->
      <g transform="translate(70.651477 322.182437) scale(0.1 -0.1)">
       <defs>
        <path id="DejaVuSans-30" d="M 2034 4250 
Q 1547 4250 1301 3770 
Q 1056 3291 1056 2328 
Q 1056 1369 1301 889 
Q 1547 409 2034 409 
Q 2525 409 2770 889 
Q 3016 1369 3016 2328 
Q 3016 3291 2770 3770 
Q 2525 4250 2034 4250 
z
M 2034 4750 
Q 2819 4750 3233 4129 
Q 3647 3509 3647 2328 
Q 3647 1150 3233 529 
Q 2819 -91 2034 -91 
Q 1250 -91 836 529 
Q 422 1150 422 2328 
Q 422 3509 836 4129 
Q 1250 4750 2034 4750 
z
" transform="scale(0.015625)"/>
       </defs>
       <use xlink:href="#DejaVuSans-30"/>
      </g>
     </g>
    </g>
    <g id="xtick_2">
     <g id="line2d_2">
      <g>
       <use xlink:href="#m37c89c6eaa" x="138.763636" y="307.584" style="stroke: #000000; stroke-width: 0.8"/>
      </g>
     </g>
     <g id="text_2">
      <!-- 200 -->
      <g transform="translate(129.219886 322.182437) scale(0.1 -0.1)">
       <defs>
        <path id="DejaVuSans-32" d="M 1228 531 
L 3431 531 
L 3431 0 
L 469 0 
L 469 531 
Q 828 903 1448 1529 
Q 2069 2156 2228 2338 
Q 2531 2678 2651 2914 
Q 2772 3150 2772 3378 
Q 2772 3750 2511 3984 
Q 2250 4219 1831 4219 
Q 1534 4219 1204 4116 
Q 875 4013 500 3803 
L 500 4441 
Q 881 4594 1212 4672 
Q 1544 4750 1819 4750 
Q 2544 4750 2975 4387 
Q 3406 4025 3406 3419 
Q 3406 3131 3298 2873 
Q 3191 2616 2906 2266 
Q 2828 2175 2409 1742 
Q 1991 1309 1228 531 
z
" transform="scale(0.015625)"/>
       </defs>
       <use xlink:href="#DejaVuSans-32"/>
       <use xlink:href="#DejaVuSans-30" transform="translate(63.623047 0)"/>
       <use xlink:href="#DejaVuSans-30" transform="translate(127.246094 0)"/>
      </g>
     </g>
    </g>
    <g id="xtick_3">
     <g id="line2d_3">
      <g>
       <use xlink:href="#m37c89c6eaa" x="203.694545" y="307.584" style="stroke: #000000; stroke-width: 0.8"/>
      </g>
     </g>
     <g id="text_3">
      <!-- 400 -->
      <g transform="translate(194.150795 322.182437) scale(0.1 -0.1)">
       <defs>
        <path id="DejaVuSans-34" d="M 2419 4116 
L 825 1625 
L 2419 1625 
L 2419 4116 
z
M 2253 4666 
L 3047 4666 
L 3047 1625 
L 3713 1625 
L 3713 1100 
L 3047 1100 
L 3047 0 
L 2419 0 
L 2419 1100 
L 313 1100 
L 313 1709 
L 2253 4666 
z
" transform="scale(0.015625)"/>
       </defs>
       <use xlink:href="#DejaVuSans-34"/>
       <use xlink:href="#DejaVuSans-30" transform="translate(63.623047 0)"/>
       <use xlink:href="#DejaVuSans-30" transform="translate(127.246094 0)"/>
      </g>
     </g>
    </g>
    <g id="xtick_4">
     <g id="line2d_4">
      <g>
       <use xlink:href="#m37c89c6eaa" x="268.625455" y="307.584" style="stroke: #000000; stroke-width: 0.8"/>
      </g>
     </g>
     <g id="text_4">
      <!-- 600 -->
      <g transform="translate(259.081705 322.182437) scale(0.1 -0.1)">
       <defs>
        <path id="DejaVuSans-36" d="M 2113 2584 
Q 1688 2584 1439 2293 
Q 1191 2003 1191 1497 
Q 1191 994 1439 701 
Q 1688 409 2113 409 
Q 2538 409 2786 701 
Q 3034 994 3034 1497 
Q 3034 2003 2786 2293 
Q 2538 2584 2113 2584 
z
M 3366 4563 
L 3366 3988 
Q 3128 4100 2886 4159 
Q 2644 4219 2406 4219 
Q 1781 4219 1451 3797 
Q 1122 3375 1075 2522 
Q 1259 2794 1537 2939 
Q 1816 3084 2150 3084 
Q 2853 3084 3261 2657 
Q 3669 2231 3669 1497 
Q 3669 778 3244 343 
Q 2819 -91 2113 -91 
Q 1303 -91 875 529 
Q 447 1150 447 2328 
Q 447 3434 972 4092 
Q 1497 4750 2381 4750 
Q 2619 4750 2861 4703 
Q 3103 4656 3366 4563 
z
" transform="scale(0.015625)"/>
       </defs>
       <use xlink:href="#DejaVuSans-36"/>
       <use xlink:href="#DejaVuSans-30" transform="translate(63.623047 0)"/>
       <use xlink:href="#DejaVuSans-30" transform="translate(127.246094 0)"/>
      </g>
     </g>
    </g>
    <g id="xtick_5">
     <g id="line2d_5">
      <g>
       <use xlink:href="#m37c89c6eaa" x="333.556364" y="307.584" style="stroke: #000000; stroke-width: 0.8"/>
      </g>
     </g>
     <g id="text_5">
      <!-- 800 -->
      <g transform="translate(324.012614 322.182437) scale(0.1 -0.1)">
       <defs>
        <path id="DejaVuSans-38" d="M 2034 2216 
Q 1584 2216 1326 1975 
Q 1069 1734 1069 1313 
Q 1069 891 1326 650 
Q 1584 409 2034 409 
Q 2484 409 2743 651 
Q 3003 894 3003 1313 
Q 3003 1734 2745 1975 
Q 2488 2216 2034 2216 
z
M 1403 2484 
Q 997 2584 770 2862 
Q 544 3141 544 3541 
Q 544 4100 942 4425 
Q 1341 4750 2034 4750 
Q 2731 4750 3128 4425 
Q 3525 4100 3525 3541 
Q 3525 3141 3298 2862 
Q 3072 2584 2669 2484 
Q 3125 2378 3379 2068 
Q 3634 1759 3634 1313 
Q 3634 634 3220 271 
Q 2806 -91 2034 -91 
Q 1263 -91 848 271 
Q 434 634 434 1313 
Q 434 1759 690 2068 
Q 947 2378 1403 2484 
z
M 1172 3481 
Q 1172 3119 1398 2916 
Q 1625 2713 2034 2713 
Q 2441 2713 2670 2916 
Q 2900 3119 2900 3481 
Q 2900 3844 2670 4047 
Q 2441 4250 2034 4250 
Q 1625 4250 1398 4047 
Q 1172 3844 1172 3481 
z
" transform="scale(0.015625)"/>
       </defs>
       <use xlink:href="#DejaVuSans-38"/>
       <use xlink:href="#DejaVuSans-30" transform="translate(63.623047 0)"/>
       <use xlink:href="#DejaVuSans-30" transform="translate(127.246094 0)"/>
      </g>
     </g>
    </g>
    <g id="xtick_6">
     <g id="line2d_6">
      <g>
       <use xlink:href="#m37c89c6eaa" x="398.487273" y="307.584" style="stroke: #000000; stroke-width: 0.8"/>
      </g>
     </g>
     <g id="text_6">
      <!-- 1000 -->
      <g transform="translate(385.762273 322.182437) scale(0.1 -0.1)">
       <defs>
        <path id="DejaVuSans-31" d="M 794 531 
L 1825 531 
L 1825 4091 
L 703 3866 
L 703 4441 
L 1819 4666 
L 2450 4666 
L 2450 531 
L 3481 531 
L 3481 0 
L 794 0 
L 794 531 
z
" transform="scale(0.015625)"/>
       </defs>
       <use xlink:href="#DejaVuSans-31"/>
       <use xlink:href="#DejaVuSans-30" transform="translate(63.623047 0)"/>
       <use xlink:href="#DejaVuSans-30" transform="translate(127.246094 0)"/>
       <use xlink:href="#DejaVuSans-30" transform="translate(190.869141 0)"/>
      </g>
     </g>
    </g>
    <g id="text_7">
     <!-- Temperature ($^{\circ}C$) -->
     <g transform="translate(192.16 335.862125) scale(0.1 -0.1)">
      <defs>
       <path id="DejaVuSans-54" d="M -19 4666 
L 3928 4666 
L 3928 4134 
L 2272 4134 
L 2272 0 
L 1638 0 
L 1638 4134 
L -19 4134 
L -19 4666 
z
" transform="scale(0.015625)"/>
       <path id="DejaVuSans-65" d="M 3597 1894 
L 3597 1613 
L 953 1613 
Q 991 1019 1311 708 
Q 1631 397 2203 397 
Q 2534 397 2845 478 
Q 3156 559 3463 722 
L 3463 178 
Q 3153 47 2828 -22 
Q 2503 -91 2169 -91 
Q 1331 -91 842 396 
Q 353 884 353 1716 
Q 353 2575 817 3079 
Q 1281 3584 2069 3584 
Q 2775 3584 3186 3129 
Q 3597 2675 3597 1894 
z
M 3022 2063 
Q 3016 2534 2758 2815 
Q 2500 3097 2075 3097 
Q 1594 3097 1305 2825 
Q 1016 2553 972 2059 
L 3022 2063 
z
" transform="scale(0.015625)"/>
       <path id="DejaVuSans-6d" d="M 3328 2828 
Q 3544 3216 3844 3400 
Q 4144 3584 4550 3584 
Q 5097 3584 5394 3201 
Q 5691 2819 5691 2113 
L 5691 0 
L 5113 0 
L 5113 2094 
Q 5113 2597 4934 2840 
Q 4756 3084 4391 3084 
Q 3944 3084 3684 2787 
Q 3425 2491 3425 1978 
L 3425 0 
L 2847 0 
L 2847 2094 
Q 2847 2600 2669 2842 
Q 2491 3084 2119 3084 
Q 1678 3084 1418 2786 
Q 1159 2488 1159 1978 
L 1159 0 
L 581 0 
L 581 3500 
L 1159 3500 
L 1159 2956 
Q 1356 3278 1631 3431 
Q 1906 3584 2284 3584 
Q 2666 3584 2933 3390 
Q 3200 3197 3328 2828 
z
" transform="scale(0.015625)"/>
       <path id="DejaVuSans-70" d="M 1159 525 
L 1159 -1331 
L 581 -1331 
L 581 3500 
L 1159 3500 
L 1159 2969 
Q 1341 3281 1617 3432 
Q 1894 3584 2278 3584 
Q 2916 3584 3314 3078 
Q 3713 2572 3713 1747 
Q 3713 922 3314 415 
Q 2916 -91 2278 -91 
Q 1894 -91 1617 61 
Q 1341 213 1159 525 
z
M 3116 1747 
Q 3116 2381 2855 2742 
Q 2594 3103 2138 3103 
Q 1681 3103 1420 2742 
Q 1159 2381 1159 1747 
Q 1159 1113 1420 752 
Q 1681 391 2138 391 
Q 2594 391 2855 752 
Q 3116 1113 3116 1747 
z
" transform="scale(0.015625)"/>
       <path id="DejaVuSans-72" d="M 2631 2963 
Q 2534 3019 2420 3045 
Q 2306 3072 2169 3072 
Q 1681 3072 1420 2755 
Q 1159 2438 1159 1844 
L 1159 0 
L 581 0 
L 581 3500 
L 1159 3500 
L 1159 2956 
Q 1341 3275 1631 3429 
Q 1922 3584 2338 3584 
Q 2397 3584 2469 3576 
Q 2541 3569 2628 3553 
L 2631 2963 
z
" transform="scale(0.015625)"/>
       <path id="DejaVuSans-61" d="M 2194 1759 
Q 1497 1759 1228 1600 
Q 959 1441 959 1056 
Q 959 750 1161 570 
Q 1363 391 1709 391 
Q 2188 391 2477 730 
Q 2766 1069 2766 1631 
L 2766 1759 
L 2194 1759 
z
M 3341 1997 
L 3341 0 
L 2766 0 
L 2766 531 
Q 2569 213 2275 61 
Q 1981 -91 1556 -91 
Q 1019 -91 701 211 
Q 384 513 384 1019 
Q 384 1609 779 1909 
Q 1175 2209 1959 2209 
L 2766 2209 
L 2766 2266 
Q 2766 2663 2505 2880 
Q 2244 3097 1772 3097 
Q 1472 3097 1187 3025 
Q 903 2953 641 2809 
L 641 3341 
Q 956 3463 1253 3523 
Q 1550 3584 1831 3584 
Q 2591 3584 2966 3190 
Q 3341 2797 3341 1997 
z
" transform="scale(0.015625)"/>
       <path id="DejaVuSans-74" d="M 1172 4494 
L 1172 3500 
L 2356 3500 
L 2356 3053 
L 1172 3053 
L 1172 1153 
Q 1172 725 1289 603 
Q 1406 481 1766 481 
L 2356 481 
L 2356 0 
L 1766 0 
Q 1100 0 847 248 
Q 594 497 594 1153 
L 594 3053 
L 172 3053 
L 172 3500 
L 594 3500 
L 594 4494 
L 1172 4494 
z
" transform="scale(0.015625)"/>
       <path id="DejaVuSans-75" d="M 544 1381 
L 544 3500 
L 1119 3500 
L 1119 1403 
Q 1119 906 1312 657 
Q 1506 409 1894 409 
Q 2359 409 2629 706 
Q 2900 1003 2900 1516 
L 2900 3500 
L 3475 3500 
L 3475 0 
L 2900 0 
L 2900 538 
Q 2691 219 2414 64 
Q 2138 -91 1772 -91 
Q 1169 -91 856 284 
Q 544 659 544 1381 
z
M 1991 3584 
L 1991 3584 
z
" transform="scale(0.015625)"/>
       <path id="DejaVuSans-20" transform="scale(0.015625)"/>
       <path id="DejaVuSans-28" d="M 1984 4856 
Q 1566 4138 1362 3434 
Q 1159 2731 1159 2009 
Q 1159 1288 1364 580 
Q 1569 -128 1984 -844 
L 1484 -844 
Q 1016 -109 783 600 
Q 550 1309 550 2009 
Q 550 2706 781 3412 
Q 1013 4119 1484 4856 
L 1984 4856 
z
" transform="scale(0.015625)"/>
       <path id="DejaVuSans-2218" d="M 2000 2619 
Q 1750 2619 1578 2445 
Q 1406 2272 1406 2022 
Q 1406 1775 1578 1605 
Q 1750 1435 2000 1435 
Q 2250 1435 2422 1605 
Q 2594 1775 2594 2022 
Q 2594 2269 2420 2444 
Q 2247 2619 2000 2619 
z
M 2000 3022 
Q 2200 3022 2384 2945 
Q 2569 2869 2703 2725 
Q 2847 2585 2919 2406 
Q 2991 2228 2991 2022 
Q 2991 1610 2702 1324 
Q 2413 1038 1994 1038 
Q 1572 1038 1290 1319 
Q 1009 1600 1009 2022 
Q 1009 2441 1296 2731 
Q 1584 3022 2000 3022 
z
" transform="scale(0.015625)"/>
       <path id="DejaVuSans-Oblique-43" d="M 4447 4306 
L 4319 3641 
Q 4019 3944 3683 4091 
Q 3347 4238 2956 4238 
Q 2422 4238 2017 3981 
Q 1613 3725 1319 3200 
Q 1131 2863 1032 2486 
Q 934 2109 934 1728 
Q 934 1091 1264 756 
Q 1594 422 2222 422 
Q 2656 422 3056 561 
Q 3456 700 3834 978 
L 3688 231 
Q 3316 72 2936 -9 
Q 2556 -91 2175 -91 
Q 1278 -91 773 396 
Q 269 884 269 1753 
Q 269 2309 461 2846 
Q 653 3384 1013 3828 
Q 1394 4300 1883 4525 
Q 2372 4750 3022 4750 
Q 3422 4750 3780 4639 
Q 4138 4528 4447 4306 
z
" transform="scale(0.015625)"/>
       <path id="DejaVuSans-29" d="M 513 4856 
L 1013 4856 
Q 1481 4119 1714 3412 
Q 1947 2706 1947 2009 
Q 1947 1309 1714 600 
Q 1481 -109 1013 -844 
L 513 -844 
Q 928 -128 1133 580 
Q 1338 1288 1338 2009 
Q 1338 2731 1133 3434 
Q 928 4138 513 4856 
z
" transform="scale(0.015625)"/>
      </defs>
      <use xlink:href="#DejaVuSans-54" transform="translate(0 0.125)"/>
      <use xlink:href="#DejaVuSans-65" transform="translate(61.083984 0.125)"/>
      <use xlink:href="#DejaVuSans-6d" transform="translate(122.607422 0.125)"/>
      <use xlink:href="#DejaVuSans-70" transform="translate(220.019531 0.125)"/>
      <use xlink:href="#DejaVuSans-65" transform="translate(283.496094 0.125)"/>
      <use xlink:href="#DejaVuSans-72" transform="translate(345.019531 0.125)"/>
      <use xlink:href="#DejaVuSans-61" transform="translate(386.132812 0.125)"/>
      <use xlink:href="#DejaVuSans-74" transform="translate(447.412109 0.125)"/>
      <use xlink:href="#DejaVuSans-75" transform="translate(486.621094 0.125)"/>
      <use xlink:href="#DejaVuSans-72" transform="translate(550 0.125)"/>
      <use xlink:href="#DejaVuSans-65" transform="translate(591.113281 0.125)"/>
      <use xlink:href="#DejaVuSans-20" transform="translate(652.636719 0.125)"/>
      <use xlink:href="#DejaVuSans-28" transform="translate(684.423828 0.125)"/>
      <use xlink:href="#DejaVuSans-2218" transform="translate(724.394531 38.40625) scale(0.7)"/>
      <use xlink:href="#DejaVuSans-Oblique-43" transform="translate(770.947266 0.125)"/>
      <use xlink:href="#DejaVuSans-29" transform="translate(840.771484 0.125)"/>
     </g>
    </g>
   </g>
   <g id="matplotlib.axis_2">
    <g id="ytick_1">
     <g id="line2d_7">
      <defs>
       <path id="mfcfa042257" d="M 0 0 
L -3.5 0 
" style="stroke: #000000; stroke-width: 0.8"/>
      </defs>
      <g>
       <use xlink:href="#mfcfa042257" x="57.6" y="295.488" style="stroke: #000000; stroke-width: 0.8"/>
      </g>
     </g>
     <g id="text_8">
      <!-- 0.0 -->
      <g transform="translate(34.696875 299.287219) scale(0.1 -0.1)">
       <defs>
        <path id="DejaVuSans-2e" d="M 684 794 
L 1344 794 
L 1344 0 
L 684 0 
L 684 794 
z
" transform="scale(0.015625)"/>
       </defs>
       <use xlink:href="#DejaVuSans-30"/>
       <use xlink:href="#DejaVuSans-2e" transform="translate(63.623047 0)"/>
       <use xlink:href="#DejaVuSans-30" transform="translate(95.410156 0)"/>
      </g>
     </g>
    </g>
    <g id="ytick_2">
     <g id="line2d_8">
      <g>
       <use xlink:href="#mfcfa042257" x="57.6" y="253.293274" style="stroke: #000000; stroke-width: 0.8"/>
      </g>
     </g>
     <g id="text_9">
      <!-- 0.5 -->
      <g transform="translate(34.696875 257.092493) scale(0.1 -0.1)">
       <defs>
        <path id="DejaVuSans-35" d="M 691 4666 
L 3169 4666 
L 3169 4134 
L 1269 4134 
L 1269 2991 
Q 1406 3038 1543 3061 
Q 1681 3084 1819 3084 
Q 2600 3084 3056 2656 
Q 3513 2228 3513 1497 
Q 3513 744 3044 326 
Q 2575 -91 1722 -91 
Q 1428 -91 1123 -41 
Q 819 9 494 109 
L 494 744 
Q 775 591 1075 516 
Q 1375 441 1709 441 
Q 2250 441 2565 725 
Q 2881 1009 2881 1497 
Q 2881 1984 2565 2268 
Q 2250 2553 1709 2553 
Q 1456 2553 1204 2497 
Q 953 2441 691 2322 
L 691 4666 
z
" transform="scale(0.015625)"/>
       </defs>
       <use xlink:href="#DejaVuSans-30"/>
       <use xlink:href="#DejaVuSans-2e" transform="translate(63.623047 0)"/>
       <use xlink:href="#DejaVuSans-35" transform="translate(95.410156 0)"/>
      </g>
     </g>
    </g>
    <g id="ytick_3">
     <g id="line2d_9">
      <g>
       <use xlink:href="#mfcfa042257" x="57.6" y="211.098549" style="stroke: #000000; stroke-width: 0.8"/>
      </g>
     </g>
     <g id="text_10">
      <!-- 1.0 -->
      <g transform="translate(34.696875 214.897767) scale(0.1 -0.1)">
       <use xlink:href="#DejaVuSans-31"/>
       <use xlink:href="#DejaVuSans-2e" transform="translate(63.623047 0)"/>
       <use xlink:href="#DejaVuSans-30" transform="translate(95.410156 0)"/>
      </g>
     </g>
    </g>
    <g id="ytick_4">
     <g id="line2d_10">
      <g>
       <use xlink:href="#mfcfa042257" x="57.6" y="168.903823" style="stroke: #000000; stroke-width: 0.8"/>
      </g>
     </g>
     <g id="text_11">
      <!-- 1.5 -->
      <g transform="translate(34.696875 172.703042) scale(0.1 -0.1)">
       <use xlink:href="#DejaVuSans-31"/>
       <use xlink:href="#DejaVuSans-2e" transform="translate(63.623047 0)"/>
       <use xlink:href="#DejaVuSans-35" transform="translate(95.410156 0)"/>
      </g>
     </g>
    </g>
    <g id="ytick_5">
     <g id="line2d_11">
      <g>
       <use xlink:href="#mfcfa042257" x="57.6" y="126.709097" style="stroke: #000000; stroke-width: 0.8"/>
      </g>
     </g>
     <g id="text_12">
      <!-- 2.0 -->
      <g transform="translate(34.696875 130.508316) scale(0.1 -0.1)">
       <use xlink:href="#DejaVuSans-32"/>
       <use xlink:href="#DejaVuSans-2e" transform="translate(63.623047 0)"/>
       <use xlink:href="#DejaVuSans-30" transform="translate(95.410156 0)"/>
      </g>
     </g>
    </g>
    <g id="ytick_6">
     <g id="line2d_12">
      <g>
       <use xlink:href="#mfcfa042257" x="57.6" y="84.514371" style="stroke: #000000; stroke-width: 0.8"/>
      </g>
     </g>
     <g id="text_13">
      <!-- 2.5 -->
      <g transform="translate(34.696875 88.31359) scale(0.1 -0.1)">
       <use xlink:href="#DejaVuSans-32"/>
       <use xlink:href="#DejaVuSans-2e" transform="translate(63.623047 0)"/>
       <use xlink:href="#DejaVuSans-35" transform="translate(95.410156 0)"/>
      </g>
     </g>
    </g>
    <g id="ytick_7">
     <g id="line2d_13">
      <g>
       <use xlink:href="#mfcfa042257" x="57.6" y="42.319646" style="stroke: #000000; stroke-width: 0.8"/>
      </g>
     </g>
     <g id="text_14">
      <!-- 3.0 -->
      <g transform="translate(34.696875 46.118864) scale(0.1 -0.1)">
       <defs>
        <path id="DejaVuSans-33" d="M 2597 2516 
Q 3050 2419 3304 2112 
Q 3559 1806 3559 1356 
Q 3559 666 3084 287 
Q 2609 -91 1734 -91 
Q 1441 -91 1130 -33 
Q 819 25 488 141 
L 488 750 
Q 750 597 1062 519 
Q 1375 441 1716 441 
Q 2309 441 2620 675 
Q 2931 909 2931 1356 
Q 2931 1769 2642 2001 
Q 2353 2234 1838 2234 
L 1294 2234 
L 1294 2753 
L 1863 2753 
Q 2328 2753 2575 2939 
Q 2822 3125 2822 3475 
Q 2822 3834 2567 4026 
Q 2313 4219 1838 4219 
Q 1578 4219 1281 4162 
Q 984 4106 628 3988 
L 628 4550 
Q 988 4650 1302 4700 
Q 1616 4750 1894 4750 
Q 2613 4750 3031 4423 
Q 3450 4097 3450 3541 
Q 3450 3153 3228 2886 
Q 3006 2619 2597 2516 
z
" transform="scale(0.015625)"/>
       </defs>
       <use xlink:href="#DejaVuSans-33"/>
       <use xlink:href="#DejaVuSans-2e" transform="translate(63.623047 0)"/>
       <use xlink:href="#DejaVuSans-30" transform="translate(95.410156 0)"/>
      </g>
     </g>
    </g>
    <g id="text_15">
     <!-- Intensity ($^{\circ}C^{-1}$) -->
     <g transform="translate(28.596875 213.328) rotate(-90) scale(0.1 -0.1)">
      <defs>
       <path id="DejaVuSans-49" d="M 628 4666 
L 1259 4666 
L 1259 0 
L 628 0 
L 628 4666 
z
" transform="scale(0.015625)"/>
       <path id="DejaVuSans-6e" d="M 3513 2113 
L 3513 0 
L 2938 0 
L 2938 2094 
Q 2938 2591 2744 2837 
Q 2550 3084 2163 3084 
Q 1697 3084 1428 2787 
Q 1159 2491 1159 1978 
L 1159 0 
L 581 0 
L 581 3500 
L 1159 3500 
L 1159 2956 
Q 1366 3272 1645 3428 
Q 1925 3584 2291 3584 
Q 2894 3584 3203 3211 
Q 3513 2838 3513 2113 
z
" transform="scale(0.015625)"/>
       <path id="DejaVuSans-73" d="M 2834 3397 
L 2834 2853 
Q 2591 2978 2328 3040 
Q 2066 3103 1784 3103 
Q 1356 3103 1142 2972 
Q 928 2841 928 2578 
Q 928 2378 1081 2264 
Q 1234 2150 1697 2047 
L 1894 2003 
Q 2506 1872 2764 1633 
Q 3022 1394 3022 966 
Q 3022 478 2636 193 
Q 2250 -91 1575 -91 
Q 1294 -91 989 -36 
Q 684 19 347 128 
L 347 722 
Q 666 556 975 473 
Q 1284 391 1588 391 
Q 1994 391 2212 530 
Q 2431 669 2431 922 
Q 2431 1156 2273 1281 
Q 2116 1406 1581 1522 
L 1381 1569 
Q 847 1681 609 1914 
Q 372 2147 372 2553 
Q 372 3047 722 3315 
Q 1072 3584 1716 3584 
Q 2034 3584 2315 3537 
Q 2597 3491 2834 3397 
z
" transform="scale(0.015625)"/>
       <path id="DejaVuSans-69" d="M 603 3500 
L 1178 3500 
L 1178 0 
L 603 0 
L 603 3500 
z
M 603 4863 
L 1178 4863 
L 1178 4134 
L 603 4134 
L 603 4863 
z
" transform="scale(0.015625)"/>
       <path id="DejaVuSans-79" d="M 2059 -325 
Q 1816 -950 1584 -1140 
Q 1353 -1331 966 -1331 
L 506 -1331 
L 506 -850 
L 844 -850 
Q 1081 -850 1212 -737 
Q 1344 -625 1503 -206 
L 1606 56 
L 191 3500 
L 800 3500 
L 1894 763 
L 2988 3500 
L 3597 3500 
L 2059 -325 
z
" transform="scale(0.015625)"/>
       <path id="DejaVuSans-2212" d="M 678 2272 
L 4684 2272 
L 4684 1741 
L 678 1741 
L 678 2272 
z
" transform="scale(0.015625)"/>
      </defs>
      <use xlink:href="#DejaVuSans-49" transform="translate(0 0.684375)"/>
      <use xlink:href="#DejaVuSans-6e" transform="translate(29.492188 0.684375)"/>
      <use xlink:href="#DejaVuSans-74" transform="translate(92.871094 0.684375)"/>
      <use xlink:href="#DejaVuSans-65" transform="translate(132.080078 0.684375)"/>
      <use xlink:href="#DejaVuSans-6e" transform="translate(193.603516 0.684375)"/>
      <use xlink:href="#DejaVuSans-73" transform="translate(256.982422 0.684375)"/>
      <use xlink:href="#DejaVuSans-69" transform="translate(309.082031 0.684375)"/>
      <use xlink:href="#DejaVuSans-74" transform="translate(336.865234 0.684375)"/>
      <use xlink:href="#DejaVuSans-79" transform="translate(376.074219 0.684375)"/>
      <use xlink:href="#DejaVuSans-20" transform="translate(435.253906 0.684375)"/>
      <use xlink:href="#DejaVuSans-28" transform="translate(467.041016 0.684375)"/>
      <use xlink:href="#DejaVuSans-2218" transform="translate(507.011719 38.965625) scale(0.7)"/>
      <use xlink:href="#DejaVuSans-Oblique-43" transform="translate(553.564453 0.684375)"/>
      <use xlink:href="#DejaVuSans-2212" transform="translate(630.589193 38.965625) scale(0.7)"/>
      <use xlink:href="#DejaVuSans-31" transform="translate(689.241536 38.965625) scale(0.7)"/>
      <use xlink:href="#DejaVuSans-29" transform="translate(736.512044 0.684375)"/>
     </g>
    </g>
    <g id="text_16">
     <!-- 1e6 -->
     <g transform="translate(57.6 38.472) scale(0.1 -0.1)">
      <use xlink:href="#DejaVuSans-31"/>
      <use xlink:href="#DejaVuSans-65" transform="translate(63.623047 0)"/>
      <use xlink:href="#DejaVuSans-36" transform="translate(125.146484 0)"/>
     </g>
    </g>
   </g>
   <g id="line2d_14">
    <path d="M 73.832727 295.488 
L 107.243021 295.377703 
L 108.02227 295.34285 
L 108.963862 295.303693 
L 109.840517 295.24403 
L 110.327548 295.209177 
L 110.814578 295.17078 
L 111.950983 295.042339 
L 112.373076 294.989427 
L 112.535419 294.959553 
L 113.087387 294.872885 
L 113.574418 294.803686 
L 114.613416 294.552543 
L 114.808228 294.525707 
L 115.132915 294.417267 
L 115.457602 294.321653 
L 116.236851 294.081143 
L 116.431664 293.992788 
L 117.178444 293.676834 
L 117.730412 293.424087 
L 117.957692 293.261131 
L 118.087567 293.197502 
L 118.28238 293.106867 
L 118.50966 292.949987 
L 118.639535 292.868214 
L 120.425314 291.430049 
L 121.431844 290.375856 
L 121.821468 289.853823 
L 121.886405 289.790784 
L 122.730592 288.611947 
L 123.185153 287.854552 
L 123.477372 287.419862 
L 124.613776 285.161516 
L 124.711182 284.984129 
L 125.133276 283.980739 
L 125.328088 283.575838 
L 125.717712 282.566372 
L 125.750181 282.550844 
L 126.00993 281.809905 
L 126.204743 281.326606 
L 126.594367 280.199163 
L 128.704833 273.11315 
L 129.321738 270.772861 
L 129.549019 269.942891 
L 129.971112 268.022862 
L 130.003581 268.00033 
L 130.425674 266.104437 
L 131.789359 259.77776 
L 132.049109 258.417317 
L 132.081578 258.437824 
L 132.471202 256.382856 
L 132.503671 256.350029 
L 132.76342 254.933721 
L 133.347857 251.807176 
L 134.127106 247.645679 
L 134.419324 245.940253 
L 134.451793 245.918311 
L 134.744011 244.113305 
L 134.808949 243.755578 
L 135.620666 239.17551 
L 135.945353 237.314638 
L 136.27004 235.327604 
L 136.399915 234.703375 
L 136.627196 233.158711 
L 142.114406 198.947987 
L 142.341687 197.551426 
L 145.556089 177.208251 
L 145.588557 177.28032 
L 145.78337 175.721056 
L 145.848307 175.23396 
L 146.237931 172.916879 
L 146.562618 170.975921 
L 146.822368 169.255811 
L 147.049649 167.829629 
L 147.244461 166.685477 
L 147.666554 164.076577 
L 147.893835 162.747781 
L 148.348397 159.786808 
L 148.380866 159.908836 
L 148.413334 159.618958 
L 148.705553 157.709225 
L 148.738021 157.715976 
L 148.932834 156.479417 
L 149.289989 154.096596 
L 149.322458 154.104192 
L 149.614676 152.423238 
L 149.647145 152.313194 
L 149.77702 151.359847 
L 149.809489 151.411577 
L 150.166644 148.920654 
L 150.199113 148.960908 
L 150.621206 146.448887 
L 150.653675 146.478086 
L 150.686144 146.415975 
L 150.848487 145.061187 
L 150.880956 145.248025 
L 150.913424 144.857471 
L 151.140705 143.538717 
L 151.205643 143.294494 
L 151.497861 141.426027 
L 151.562798 141.016569 
L 152.244641 137.318792 
L 152.471922 136.023583 
L 152.504391 135.997169 
L 152.666734 134.876477 
L 152.699203 134.923398 
L 153.543389 130.364426 
L 153.738201 129.38188 
L 155.101887 122.15232 
L 155.296699 120.850528 
L 155.361637 121.101334 
L 155.394105 120.767995 
L 155.653855 119.280125 
L 155.686324 119.432448 
L 155.881136 118.275384 
L 156.011011 117.638413 
L 156.205823 116.626161 
L 159.647505 100.444231 
L 159.712443 100.669466 
L 159.744911 100.602714 
L 159.907255 99.763292 
L 159.939723 99.705232 
L 160.102067 98.982521 
L 160.134536 99.02134 
L 160.329348 97.813896 
L 160.459223 97.474397 
L 160.491691 97.571276 
L 160.654035 96.430246 
L 160.686504 96.634638 
L 160.718972 96.594131 
L 160.848847 95.841377 
L 160.978722 95.270145 
L 161.011191 95.586521 
L 161.173534 94.533087 
L 161.563158 93.073909 
L 161.855377 91.852119 
L 161.887846 91.85254 
L 162.01772 91.373799 
L 162.212533 90.65421 
L 162.342407 90.06475 
L 162.374876 90.183908 
L 162.407345 89.942976 
L 162.439813 89.915127 
L 162.667094 88.744224 
L 162.796969 88.279407 
L 162.829438 88.494093 
L 162.861907 88.069108 
L 162.894375 88.250714 
L 163.121656 87.362684 
L 163.868436 84.609647 
L 163.900905 84.838849 
L 163.933374 84.551671 
L 164.77756 81.627746 
L 164.842497 81.702515 
L 164.972372 80.786045 
L 165.004841 81.022505 
L 165.26459 80.010084 
L 165.297059 79.999704 
L 165.426934 79.34653 
L 165.459403 79.61126 
L 165.491871 79.576407 
L 165.686684 78.590401 
L 165.751621 78.615042 
L 165.978902 77.840347 
L 166.043839 77.627517 
L 166.076308 77.813511 
L 166.206183 77.045145 
L 166.27112 77.148185 
L 166.433464 76.59594 
L 166.855557 75.390015 
L 166.888026 75.655926 
L 166.920494 75.429341 
L 167.050369 74.484263 
L 167.082838 74.73144 
L 167.797149 72.598074 
L 167.829618 72.641873 
L 167.862087 72.962806 
L 167.894555 72.439254 
L 168.28418 71.4908 
L 168.316648 71.80743 
L 168.349117 71.328773 
L 168.641335 70.216435 
L 168.673804 70.577453 
L 168.77121 70.518381 
L 168.933554 69.921325 
L 169.063429 69.47212 
L 169.095897 69.656427 
L 169.128366 69.459124 
L 169.193303 69.115069 
L 169.225772 69.55575 
L 169.258241 68.955657 
L 169.290709 69.068401 
L 169.582928 68.295563 
L 169.712803 68.219275 
L 169.940083 67.210483 
L 169.972552 67.406604 
L 170.005021 67.523399 
L 170.03749 67.335211 
L 170.199833 66.860858 
L 170.232302 67.02913 
L 170.26477 66.834359 
L 170.492051 66.105825 
L 170.52452 66.127851 
L 170.556989 66.392834 
L 170.621926 66.150552 
L 170.881676 65.432313 
L 170.946613 65.35054 
L 171.011551 65.471301 
L 171.141425 64.961504 
L 171.206363 64.903022 
L 171.401175 64.441243 
L 171.466112 64.55441 
L 171.563519 64.042419 
L 171.595987 64.047566 
L 171.660925 64.131365 
L 171.725862 64.225544 
L 171.823268 63.57718 
L 171.855737 63.626969 
L 171.888206 63.361649 
L 171.920674 63.702667 
L 171.953143 63.682666 
L 172.245361 62.91582 
L 172.27783 63.087468 
L 172.310299 62.716407 
L 172.342767 62.466277 
L 172.407705 62.652778 
L 172.440173 62.702145 
L 172.472642 62.298426 
L 172.570048 62.37193 
L 172.699923 62.056566 
L 172.732392 62.275388 
L 172.76486 62.069393 
L 172.829798 61.863567 
L 172.862267 62.184332 
L 172.927204 61.725506 
L 172.959673 61.734536 
L 173.089548 61.238073 
L 173.122016 61.628121 
L 173.186954 61.194359 
L 173.219422 61.317821 
L 173.316828 60.80026 
L 173.349297 61.120518 
L 173.479172 60.793509 
L 173.511641 60.855873 
L 173.933734 59.924298 
L 173.576578 60.949883 
L 173.966202 60.187171 
L 173.998671 60.374853 
L 174.03114 59.967252 
L 174.096077 59.79265 
L 174.128546 59.905479 
L 174.161015 60.047844 
L 174.193483 59.445557 
L 174.258421 59.643956 
L 174.290889 59.783536 
L 174.323358 59.526908 
L 174.453233 59.228254 
L 174.388296 59.598723 
L 174.485702 59.271714 
L 174.51817 59.667585 
L 174.583108 59.489101 
L 174.745451 58.95019 
L 174.77792 59.134244 
L 174.842857 58.891287 
L 174.907795 58.791369 
L 174.940263 59.12994 
L 175.102607 58.473221 
L 175.135076 58.392123 
L 175.167544 58.479382 
L 175.200013 58.706811 
L 175.232482 58.150769 
L 175.26495 58.545796 
L 175.297419 58.577442 
L 175.394825 58.100304 
L 175.427294 58.175242 
L 175.459763 58.052793 
L 175.492231 58.277353 
L 175.5247 58.111866 
L 175.557169 58.250264 
L 175.589638 58.22596 
L 175.622106 57.799962 
L 175.719512 57.922327 
L 175.78445 57.564516 
L 175.816918 57.691775 
L 175.849387 57.852537 
L 175.881856 57.719202 
L 175.979262 57.386116 
L 176.011731 57.66823 
L 176.076668 57.434218 
L 176.141605 57.273541 
L 176.174074 57.599453 
L 176.206543 57.139699 
L 176.239012 57.194721 
L 176.27148 57.349069 
L 176.303949 57.034381 
L 176.368886 57.166788 
L 176.401355 57.375314 
L 176.433824 56.984338 
L 176.53123 57.05531 
L 176.563699 56.83345 
L 176.596167 56.950076 
L 176.628636 57.180544 
L 176.661105 56.850496 
L 176.693573 56.570577 
L 176.758511 56.897501 
L 176.823448 56.867796 
L 177.01826 56.076476 
L 177.115666 56.743744 
L 177.148135 56.30745 
L 177.27801 56.159178 
L 177.310479 56.352852 
L 177.342947 56.146604 
L 177.407885 55.875039 
L 177.440353 56.039345 
L 177.505291 55.894195 
L 177.53776 56.269222 
L 177.732572 55.737822 
L 177.797509 55.908204 
L 177.927384 55.652841 
L 178.057259 55.506679 
L 178.089728 55.810818 
L 178.154665 55.434441 
L 178.187134 55.624487 
L 178.219602 55.443302 
L 178.252071 55.14988 
L 178.28454 55.584824 
L 178.317008 55.558916 
L 178.349477 55.593769 
L 178.381946 55.467691 
L 178.446883 55.531574 
L 178.511821 55.240515 
L 178.674164 55.359588 
L 178.804039 55.085154 
L 178.836508 55.13334 
L 178.868976 55.30811 
L 178.933914 55.206506 
L 179.063789 54.812322 
L 179.096257 55.110217 
L 179.161195 54.869876 
L 179.193663 54.786415 
L 179.226132 55.208278 
L 179.291069 54.810466 
L 179.356007 54.967515 
L 179.420944 54.646919 
L 179.453413 54.897049 
L 179.51835 54.803124 
L 179.550819 54.511896 
L 179.648225 54.537888 
L 179.680694 54.869117 
L 179.745631 54.477296 
L 179.810569 54.42489 
L 179.843037 54.650632 
L 179.972912 54.407675 
L 180.005381 54.485735 
L 180.070318 54.239824 
L 180.135256 54.279994 
L 180.265131 54.628353 
L 180.297599 54.451473 
L 180.330068 54.050454 
L 180.427474 54.176195 
L 180.459943 54.21071 
L 180.492411 54.621265 
L 180.557349 54.345733 
L 180.589818 54.388519 
L 180.622286 54.058893 
L 180.687224 54.304889 
L 180.719692 54.296872 
L 180.78463 54.01653 
L 180.817098 54.204634 
L 181.011911 54.003956 
L 181.044379 54.311134 
L 181.141785 54.255352 
L 181.206723 54.176532 
L 181.239192 54.244635 
L 181.401535 53.985137 
L 181.434004 54.045813 
L 181.563879 53.973069 
L 181.596347 53.726483 
L 181.628816 54.166574 
L 181.661285 53.918047 
L 181.758691 54.22033 
L 181.823628 53.859988 
L 181.888566 53.869777 
L 181.985972 54.099063 
L 182.01844 54.078303 
L 182.050909 53.912225 
L 182.148315 53.969103 
L 182.180784 53.990369 
L 182.245721 53.639815 
L 182.27819 53.661841 
L 182.310659 54.170794 
L 182.408065 54.080919 
L 182.473002 53.886317 
L 182.53794 53.740492 
L 182.570408 53.830873 
L 182.602877 53.873743 
L 182.700283 53.893575 
L 182.732752 53.674331 
L 182.765221 53.675681 
L 182.862627 53.843954 
L 182.895095 53.670702 
L 182.927564 53.934588 
L 182.960033 53.882688 
L 182.992501 54.078219 
L 183.057439 54.045982 
L 183.187314 53.743952 
L 183.219782 53.927246 
L 183.28472 53.673993 
L 183.414595 54.214423 
L 183.447063 53.947499 
L 183.479532 53.568 
L 183.512001 54.148177 
L 183.544469 53.965306 
L 183.576938 54.065476 
L 183.609407 53.98134 
L 183.641875 53.786569 
L 183.674344 54.118894 
L 183.739282 53.850451 
L 183.804219 53.728002 
L 183.869156 54.074674 
L 184.0315 53.76218 
L 184.096437 54.236702 
L 184.161375 53.981846 
L 184.226312 53.867836 
L 184.291249 54.128937 
L 184.323718 53.959651 
L 184.388656 54.008429 
L 184.453593 53.978217 
L 184.486062 54.094675 
L 184.583468 54.174507 
L 184.615937 53.770619 
L 184.713343 54.183874 
L 184.745811 54.146996 
L 184.875686 54.07729 
L 184.908155 54.052058 
L 184.940624 54.375354 
L 184.973092 53.978302 
L 185.03803 54.269614 
L 185.232842 54.098556 
L 185.330248 54.378223 
L 185.395185 54.335353 
L 185.427654 54.230457 
L 185.460123 54.268854 
L 185.557529 54.193832 
L 185.589998 54.469448 
L 185.622466 54.384552 
L 185.687404 54.476452 
L 185.752341 54.395101 
L 185.78481 54.548605 
L 185.914685 54.259909 
L 185.947153 54.282525 
L 186.012091 54.720591 
L 186.109497 54.508352 
L 186.141965 54.368772 
L 186.174434 54.556285 
L 186.27184 54.847091 
L 186.304309 54.744895 
L 186.336778 54.462106 
L 186.401715 54.592235 
L 186.596527 55.043465 
L 186.726402 54.766077 
L 186.823808 55.050132 
L 186.856277 54.829707 
L 186.953683 55.094521 
L 186.986152 55.02338 
L 187.051089 54.943886 
L 187.083558 55.047094 
L 187.213433 55.285325 
L 187.148495 55.002958 
L 187.27837 55.181948 
L 187.343307 55.153593 
L 187.473182 55.345242 
L 187.635526 55.482206 
L 187.667994 55.147855 
L 187.732932 55.429378 
L 187.830338 55.806093 
L 187.862807 55.395032 
L 187.927744 55.628031 
L 187.992681 55.512586 
L 188.02515 55.814954 
L 188.122556 55.892423 
L 188.155025 55.466172 
L 188.382306 56.061371 
L 188.414775 55.979682 
L 188.479712 56.062383 
L 188.544649 56.195972 
L 188.577118 55.98137 
L 188.642055 56.179516 
L 188.674524 56.121962 
L 188.706993 56.405764 
L 188.804399 56.360025 
L 188.836868 56.252007 
L 188.934274 56.28399 
L 189.096617 56.68349 
L 189.194023 56.415722 
L 189.226492 56.773027 
L 189.323898 56.732773 
L 189.356367 56.574121 
L 189.421304 56.663996 
L 189.486242 57.016828 
L 189.51871 56.740959 
L 189.648585 56.7429 
L 189.77846 57.248308 
L 189.810929 56.968979 
L 189.843397 57.380462 
L 189.875866 57.090078 
L 190.005741 57.361897 
L 190.070678 57.354639 
L 190.103147 57.0905 
L 190.135616 57.53287 
L 190.168084 57.425948 
L 190.233022 57.334217 
L 190.265491 57.526456 
L 190.330428 57.253203 
L 190.395365 57.964522 
L 190.492771 57.629496 
L 190.52524 57.343162 
L 190.557709 58.04081 
L 190.590178 57.643082 
L 190.687584 57.956927 
L 190.720052 57.870681 
L 190.752521 57.789498 
L 190.78499 57.989079 
L 190.817458 58.061654 
L 190.849927 57.828739 
L 190.882396 58.218703 
L 190.914865 58.014058 
L 190.947333 58.033468 
L 191.109677 58.392545 
L 191.142145 58.206804 
L 191.174614 58.554488 
L 191.207083 58.639215 
L 191.27202 58.178111 
L 191.336958 58.37457 
L 191.369426 58.408748 
L 191.53177 58.881582 
L 191.564239 58.867658 
L 191.629176 58.669933 
L 191.661645 58.687233 
L 191.694113 59.168506 
L 191.759051 59.000402 
L 191.79152 58.906645 
L 191.856457 59.011795 
L 191.888926 58.974495 
L 192.0188 59.480916 
L 192.051269 59.132894 
L 192.116207 59.197705 
L 192.246081 59.653577 
L 192.27855 59.336863 
L 192.343487 59.726151 
L 192.408425 59.657458 
L 192.473362 60.168943 
L 192.505831 59.800583 
L 192.603237 59.9378 
L 192.668174 59.916028 
L 192.700643 60.101263 
L 192.733112 59.805731 
L 192.798049 59.983455 
L 192.862987 60.017211 
L 192.895455 60.580848 
L 192.992861 60.445572 
L 193.02533 60.645743 
L 193.057799 60.439242 
L 193.090268 60.349452 
L 193.122736 60.573253 
L 193.155205 60.421774 
L 193.187674 60.860599 
L 193.28508 60.755365 
L 193.414955 60.969377 
L 193.479892 60.83832 
L 193.609767 61.264487 
L 193.642235 61.360353 
L 193.674704 60.953934 
L 193.707173 61.521875 
L 193.739642 61.224402 
L 193.837048 61.676645 
L 193.869516 61.621623 
L 193.934454 61.342885 
L 194.064329 61.936733 
L 194.129266 61.643395 
L 194.161735 61.901627 
L 194.259141 61.917408 
L 194.29161 62.390073 
L 194.389016 62.270831 
L 194.421484 62.126947 
L 194.453953 62.363237 
L 194.51889 62.153108 
L 194.746171 62.970504 
L 194.876046 62.614634 
L 195.103327 63.396839 
L 195.200733 63.170844 
L 195.330608 63.636674 
L 195.428014 63.623172 
L 195.492951 63.723089 
L 195.52542 63.509415 
L 195.720232 64.179214 
L 195.752701 63.957945 
L 195.78517 64.097694 
L 195.817638 64.35525 
L 195.882576 64.046385 
L 195.915045 64.259384 
L 195.979982 64.336938 
L 196.142326 64.777282 
L 196.174794 64.68766 
L 196.239732 64.62344 
L 196.369606 65.055936 
L 196.402075 65.281171 
L 196.467013 64.971884 
L 196.629356 65.601936 
L 196.661825 65.333662 
L 196.726762 65.638561 
L 196.759231 65.709532 
L 196.7917 65.671557 
L 196.824168 65.572821 
L 196.921574 65.999916 
L 196.954043 65.694849 
L 196.986512 66.358656 
L 197.01898 66.014178 
L 197.083918 66.186502 
L 197.116387 66.131902 
L 197.148855 66.049284 
L 197.181324 66.253676 
L 197.246261 66.163632 
L 197.506011 66.611824 
L 197.53848 67.069553 
L 197.635886 67.052422 
L 197.798229 67.229471 
L 197.830698 67.158584 
L 197.993041 67.728972 
L 198.02551 67.523315 
L 198.057979 67.58551 
L 198.122916 68.119442 
L 198.187854 67.9283 
L 198.28526 68.014546 
L 198.350197 67.95387 
L 198.415135 68.342905 
L 198.447603 68.231258 
L 198.480072 68.25379 
L 198.545009 68.185941 
L 198.577478 68.652614 
L 198.609947 68.223241 
L 198.674884 68.718269 
L 198.739822 68.63658 
L 198.869696 69.506129 
L 198.934634 69.355325 
L 198.967103 69.040046 
L 199.03204 69.283088 
L 199.064509 69.670182 
L 199.129446 69.356507 
L 199.161915 69.226294 
L 199.194383 69.448154 
L 199.324258 70.092889 
L 199.356727 69.976854 
L 199.389196 69.9366 
L 199.486602 70.213651 
L 199.51907 70.03196 
L 199.551539 70.254579 
L 199.584008 70.257533 
L 199.616477 70.142848 
L 199.713883 70.558972 
L 199.77882 70.229009 
L 199.811289 70.51914 
L 199.908695 70.474245 
L 199.941164 70.716443 
L 199.973632 70.613403 
L 200.071038 71.334849 
L 200.03857 70.567242 
L 200.103507 71.156281 
L 200.168444 71.251472 
L 200.233382 70.981595 
L 200.298319 71.733589 
L 200.363257 71.496033 
L 200.428194 71.998825 
L 200.493131 71.762113 
L 200.720412 72.344484 
L 200.752881 72.054438 
L 200.78535 72.408114 
L 200.882756 72.802044 
L 200.915225 72.555964 
L 200.947693 72.556724 
L 201.110037 72.994367 
L 201.239912 73.202219 
L 201.27238 73.122049 
L 201.402255 73.564671 
L 202.408785 75.572296 
L 202.441254 75.287735 
L 202.473722 75.321997 
L 202.506191 75.884875 
L 202.603597 75.774915 
L 202.733472 76.391296 
L 202.765941 75.988927 
L 202.798409 76.407414 
L 202.830878 76.261589 
L 202.863347 76.223277 
L 202.928284 76.775774 
L 202.960753 76.669106 
L 202.993222 76.350789 
L 203.058159 76.766407 
L 203.090628 76.750879 
L 203.123096 76.850375 
L 203.188034 76.837379 
L 203.252971 77.188523 
L 203.317909 77.127594 
L 203.382846 77.447514 
L 203.447783 77.356964 
L 203.480252 77.09907 
L 203.577658 77.854609 
L 203.610127 77.744228 
L 203.642596 77.729038 
L 203.707533 78.319089 
L 203.77247 78.112503 
L 204.162095 79.172941 
L 204.259501 78.870658 
L 204.389376 79.445097 
L 204.421844 79.239102 
L 204.454313 79.327036 
L 204.616657 79.974894 
L 204.649125 79.811685 
L 204.681594 79.953712 
L 204.714063 80.401483 
L 204.811469 80.381567 
L 204.941344 80.255826 
L 205.071218 80.766636 
L 205.103687 80.650938 
L 205.201093 81.171114 
L 205.233562 80.747817 
L 205.298499 81.267234 
L 205.330968 81.243183 
L 205.52578 81.879648 
L 205.558249 81.825217 
L 205.590718 81.723443 
L 205.655655 81.870028 
L 205.850467 82.373833 
L 205.882936 82.257122 
L 205.915405 82.553498 
L 206.077748 83.044813 
L 206.110217 82.732319 
L 206.175154 83.044138 
L 206.207623 82.96439 
L 206.337498 83.407097 
L 206.369966 83.363721 
L 206.597247 84.140189 
L 206.629716 83.955038 
L 206.662185 84.346943 
L 206.694653 84.088036 
L 206.856997 84.693699 
L 206.954403 84.495721 
L 207.116747 85.092355 
L 207.149215 85.014801 
L 207.181684 85.051848 
L 207.246621 84.99767 
L 207.311559 85.407971 
L 207.376496 85.457255 
L 207.473902 85.737512 
L 207.506371 85.709579 
L 207.53884 86.14351 
L 207.636246 85.968402 
L 207.798589 86.688497 
L 207.831058 86.560984 
L 207.895995 86.69778 
L 207.928464 86.582335 
L 208.058339 87.157196 
L 208.123276 87.064114 
L 208.155745 87.17323 
L 208.28562 87.631971 
L 208.383026 87.586654 
L 208.447963 88.170376 
L 208.480432 87.82556 
L 208.545369 88.00742 
L 208.740182 88.615446 
L 208.77265 88.466836 
L 208.805119 88.659581 
L 208.837588 88.593082 
L 209.097337 89.512252 
L 209.129806 89.449382 
L 209.194743 89.675715 
L 209.259681 89.615714 
L 209.29215 89.620608 
L 209.422024 90.031838 
L 209.486962 90.207537 
L 209.51943 90.156903 
L 209.649305 90.603999 
L 209.973992 91.406205 
L 210.006461 91.183923 
L 210.03893 91.300887 
L 210.201273 91.84157 
L 210.233742 91.880642 
L 210.266211 92.177862 
L 210.363617 92.095329 
L 210.428554 92.369257 
L 210.461023 92.056425 
L 210.623366 92.830867 
L 210.78571 93.168678 
L 210.688304 92.771542 
L 210.850647 93.048592 
L 210.980522 93.595858 
L 211.045459 93.500751 
L 211.110397 93.870883 
L 211.27274 94.328443 
L 211.305209 94.184643 
L 211.370146 94.401018 
L 211.402615 94.216458 
L 211.662365 95.213688 
L 211.694833 94.988621 
L 211.727302 95.356644 
L 211.759771 95.213266 
L 211.79224 95.235376 
L 211.922114 95.658927 
L 212.01952 95.899774 
L 212.214333 96.511513 
L 212.246801 96.365013 
L 212.27927 96.45109 
L 212.53902 97.277348 
L 212.571488 97.067133 
L 212.603957 97.247474 
L 212.863707 97.958624 
L 212.896175 97.915332 
L 213.02605 98.389601 
L 213.155925 98.277953 
L 213.350737 99.078134 
L 213.383206 99.119401 
L 213.415675 99.087248 
L 213.448143 98.899735 
L 213.480612 99.553584 
L 213.578018 99.539913 
L 213.707893 99.837302 
L 213.740362 99.792744 
L 214.000111 100.621448 
L 214.065049 100.519675 
L 214.162455 101.008458 
L 214.194923 100.939512 
L 214.357267 101.352514 
L 214.487142 101.759271 
L 214.519611 101.423823 
L 214.552079 101.916405 
L 214.584548 102.027714 
L 214.617017 101.877417 
L 214.649485 101.821044 
L 214.746891 102.319786 
L 214.77936 102.253034 
L 215.071578 102.937686 
L 215.104047 102.879204 
L 215.233922 103.327734 
L 215.298859 103.562505 
L 215.363797 103.878206 
L 215.428734 103.704955 
L 215.493672 103.908249 
L 215.720952 104.678893 
L 215.753421 104.759654 
L 215.78589 104.490536 
L 215.850827 104.87417 
L 215.980702 105.115524 
L 216.337858 106.040264 
L 216.370326 106.018069 
L 216.402795 106.030981 
L 216.597607 106.600863 
L 216.630076 106.560947 
L 216.824888 107.329482 
L 216.857357 107.172095 
L 216.889826 107.176821 
L 217.084638 107.928309 
L 217.117107 107.751429 
L 217.149575 107.899026 
L 217.376856 108.534732 
L 217.474262 108.846466 
L 217.506731 108.808407 
L 217.571668 109.193476 
L 217.636606 109.062841 
L 217.863887 109.701078 
L 217.993762 109.93855 
L 218.02623 109.998298 
L 218.156105 110.338472 
L 218.188574 110.243534 
L 218.221042 110.467841 
L 218.480792 111.206333 
L 218.513261 111.185573 
L 218.805479 111.860857 
L 218.837948 111.747438 
L 218.967823 112.344831 
L 219.000291 112.314788 
L 219.065229 112.651502 
L 219.130166 112.608379 
L 219.162635 112.452428 
L 219.29251 113.008892 
L 219.617197 113.784937 
L 219.77954 114.442162 
L 219.812009 114.280978 
L 219.844478 114.302666 
L 219.909415 114.676512 
L 219.941884 114.452964 
L 219.974352 114.433386 
L 220.006821 114.94217 
L 220.071758 114.812379 
L 220.104227 114.703938 
L 220.266571 115.386227 
L 220.299039 115.37821 
L 220.558789 116.212653 
L 220.591258 116.040583 
L 220.623726 116.343119 
L 220.721132 116.383204 
L 221.013351 117.245495 
L 221.045819 117.06313 
L 221.078288 117.456975 
L 221.110757 117.199081 
L 221.370507 118.168125 
L 221.565319 118.543067 
L 221.597787 118.442475 
L 221.727662 119.069404 
L 221.760131 118.889149 
L 221.825068 119.020459 
L 221.890006 118.95742 
L 224.000471 124.299441 
L 224.03294 124.223575 
L 224.162815 124.864512 
L 224.227752 124.958691 
L 224.552439 125.960563 
L 224.617377 125.874907 
L 224.649845 125.759716 
L 224.682314 125.903093 
L 225.266751 127.619997 
L 225.299219 127.222101 
L 225.364157 127.683711 
L 225.396625 127.645229 
L 225.558969 128.074687 
L 225.591438 128.072831 
L 225.753781 128.750815 
L 225.78625 128.385747 
L 225.851187 128.720604 
L 225.981062 129.144999 
L 226.013531 129.020609 
L 226.046 129.250992 
L 226.208343 129.62509 
L 226.53303 130.568142 
L 226.565499 130.462824 
L 226.597967 130.565442 
L 226.760311 131.127307 
L 226.79278 131.114648 
L 226.825248 131.039626 
L 226.857717 131.072285 
L 226.987592 131.47305 
L 228.059059 134.135284 
L 228.221403 134.576388 
L 228.253871 134.395626 
L 228.28634 134.67985 
L 228.318809 134.591831 
L 228.513621 135.381463 
L 228.578558 135.206187 
L 228.611027 135.110236 
L 228.675964 135.755984 
L 228.740902 135.675983 
L 228.77337 135.631594 
L 228.805839 135.665687 
L 229.065589 136.659204 
L 229.130526 136.502071 
L 229.195464 136.568232 
L 229.325338 137.0717 
L 229.357807 136.923681 
L 229.422744 137.114907 
L 229.617557 137.916016 
L 229.650025 137.816184 
L 229.714963 137.952557 
L 229.909775 138.417374 
L 230.364337 139.76212 
L 230.396805 139.442875 
L 230.429274 139.711317 
L 230.52668 140.017567 
L 230.559149 139.998832 
L 230.591618 140.026428 
L 230.753961 140.365336 
L 230.818899 140.641205 
L 230.851367 140.515296 
L 230.981242 140.966273 
L 231.111117 141.135896 
L 231.305929 141.815737 
L 231.338398 141.737255 
L 231.370867 141.782488 
L 231.435804 142.125109 
L 231.500741 142.052872 
L 231.760491 142.889002 
L 231.79296 142.768072 
L 231.890366 143.14428 
L 231.922834 143.016093 
L 232.27999 144.094759 
L 232.312459 143.891886 
L 232.344928 144.284804 
L 232.442334 144.227503 
L 232.637146 144.820677 
L 232.929364 145.676217 
L 232.961833 145.646259 
L 233.02677 145.704319 
L 233.059239 145.564907 
L 233.221583 146.351501 
L 233.254051 146.127616 
L 233.318989 146.356649 
L 233.481332 146.876319 
L 233.513801 146.737077 
L 233.54627 146.933704 
L 233.741082 147.562828 
L 233.77355 147.413121 
L 233.806019 147.68418 
L 233.935894 147.738695 
L 234.065769 148.23153 
L 234.130706 148.332713 
L 234.228112 148.596514 
L 234.260581 148.433811 
L 234.29305 148.589341 
L 234.650205 149.421252 
L 234.682674 149.249688 
L 234.715143 149.593913 
L 235.137236 150.753593 
L 235.169705 150.635701 
L 235.202173 150.563126 
L 235.234642 150.691313 
L 235.396986 151.189549 
L 235.429454 151.480861 
L 235.52686 151.427189 
L 236.078828 153.042403 
L 236.111297 152.65109 
L 236.176234 153.065104 
L 236.241172 152.936326 
L 236.27364 153.097341 
L 236.468453 153.732962 
L 236.565859 153.631526 
L 236.728202 154.403268 
L 236.760671 154.332465 
L 236.79314 154.284785 
L 236.825608 154.392719 
L 236.923014 154.704285 
L 236.955483 154.629516 
L 236.987952 154.6296 
L 237.215233 155.414507 
L 237.247701 155.389443 
L 237.28017 155.242099 
L 237.312639 155.413325 
L 237.669795 156.25165 
L 237.702263 156.208274 
L 237.734732 156.310723 
L 237.897076 156.87841 
L 237.929544 156.746763 
L 237.962013 156.944825 
L 238.124356 157.541711 
L 238.156825 157.199428 
L 238.221763 157.598084 
L 238.254231 157.468799 
L 238.2867 157.708212 
L 238.319169 157.605763 
L 238.513981 158.190835 
L 238.676324 158.345859 
L 238.77373 158.84595 
L 238.806199 158.715906 
L 239.001011 159.399545 
L 239.03348 159.151693 
L 239.065949 159.476846 
L 239.098417 159.475496 
L 239.163355 159.509167 
L 239.325698 160.188249 
L 239.358167 160.1231 
L 239.520511 160.50741 
L 239.585448 160.376016 
L 239.650385 160.860917 
L 239.682854 160.716527 
L 239.715323 160.77965 
L 239.747792 161.088094 
L 239.812729 160.948429 
L 239.845198 160.946573 
L 239.975072 161.569198 
L 240.007541 161.456791 
L 240.299759 162.149882 
L 240.332228 162.115704 
L 240.364697 162.223976 
L 240.429634 162.28423 
L 240.591978 162.953185 
L 240.624446 162.907699 
L 240.656915 162.692337 
L 240.689384 162.813099 
L 240.851727 163.55446 
L 240.884196 163.317747 
L 240.949133 163.454205 
L 241.143946 164.20409 
L 241.176414 163.835139 
L 241.208883 164.240715 
L 241.241352 164.193794 
L 241.436164 164.434726 
L 241.468633 164.346202 
L 241.630976 165.210603 
L 241.695914 164.93659 
L 241.728382 165.181573 
L 241.760851 165.620314 
L 241.858257 165.54276 
L 241.890726 165.51508 
L 241.923195 165.81365 
L 241.988132 165.781751 
L 242.020601 165.633394 
L 242.053069 165.908419 
L 242.410225 166.916029 
L 242.475162 166.867083 
L 242.507631 166.778137 
L 242.5401 166.927759 
L 242.767381 167.511312 
L 242.799849 167.481439 
L 242.897256 167.646758 
L 243.02713 168.007438 
L 243.059599 167.810895 
L 243.124536 168.098916 
L 243.189474 168.071405 
L 243.384286 168.834961 
L 243.416755 168.704495 
L 243.579098 169.370328 
L 243.644036 169.055217 
L 243.676504 169.19522 
L 243.838848 169.749574 
L 243.871317 169.709911 
L 243.903785 169.835482 
L 244.098597 170.40739 
L 244.163535 170.296502 
L 244.196004 170.360722 
L 244.423285 171.023095 
L 244.455753 170.764863 
L 244.520691 171.098961 
L 244.715503 171.661586 
L 244.747972 171.483355 
L 244.942784 172.08944 
L 244.975252 172.052562 
L 245.105127 172.417884 
L 245.137596 172.27265 
L 245.170065 172.598309 
L 245.202533 172.513919 
L 245.235002 172.528519 
L 245.397346 172.99477 
L 245.429814 172.969538 
L 245.462283 173.054687 
L 245.819439 174.01352 
L 245.851907 173.76474 
L 245.916845 173.916894 
L 246.728562 175.738187 
L 246.7935 175.557003 
L 246.955843 176.192287 
L 246.988312 176.052369 
L 247.020781 176.277689 
L 247.053249 176.280895 
L 247.118187 176.235325 
L 247.183124 176.757105 
L 247.215593 176.498114 
L 247.248062 176.670015 
L 247.410405 177.220066 
L 247.442874 177.14825 
L 247.475342 177.259644 
L 247.507811 177.578046 
L 247.605217 177.457453 
L 247.962373 178.24295 
L 248.02731 178.197549 
L 248.254591 178.885323 
L 248.28706 178.779245 
L 248.319529 178.968784 
L 248.54681 179.417061 
L 248.579278 179.338072 
L 248.709153 179.878671 
L 248.741622 179.799092 
L 248.77409 180.105257 
L 248.871497 179.980698 
L 249.098778 180.533196 
L 249.131246 180.494545 
L 249.163715 180.477499 
L 249.29359 180.896155 
L 249.326058 180.80628 
L 249.358527 180.804001 
L 249.553339 181.342744 
L 251.306649 184.76482 
L 251.339118 184.659418 
L 251.371587 184.906173 
L 251.436524 184.979001 
L 251.53393 185.166936 
L 251.631336 185.52787 
L 251.663805 185.448797 
L 251.826148 185.80914 
L 251.956023 186.020113 
L 251.988492 185.948129 
L 252.020961 186.067287 
L 252.150835 186.575818 
L 252.183304 186.56586 
L 252.248242 186.513116 
L 252.378116 186.960127 
L 252.443054 186.855906 
L 252.605397 187.479629 
L 252.637866 187.105784 
L 252.702803 187.406548 
L 252.735272 187.317095 
L 252.897616 188.006303 
L 252.962553 187.720308 
L 252.995022 188.051452 
L 253.157365 188.363524 
L 253.189834 188.277953 
L 253.222303 188.301582 
L 253.384646 188.725977 
L 253.482052 188.831126 
L 253.644396 189.22168 
L 253.676864 189.172566 
L 253.709333 189.306829 
L 254.163895 190.252582 
L 254.196364 190.070638 
L 254.228832 190.291148 
L 254.261301 190.2833 
L 254.391176 190.761619 
L 254.456113 190.572587 
L 254.488582 190.714783 
L 254.553519 190.954365 
L 254.683394 191.191752 
L 254.715863 191.052003 
L 254.748332 191.275382 
L 254.7808 191.281458 
L 254.975612 191.706275 
L 255.008081 191.613615 
L 255.137956 191.965435 
L 255.202893 192.057925 
L 255.430174 192.613883 
L 255.462643 192.51 
L 255.819799 193.344274 
L 255.852267 193.199715 
L 255.884736 193.646726 
L 255.982142 193.613898 
L 256.014611 193.405794 
L 256.04708 193.600565 
L 256.176954 193.971878 
L 256.209423 193.815926 
L 256.241892 194.043525 
L 256.371767 194.248676 
L 256.404235 194.174666 
L 256.501641 194.551043 
L 256.53411 194.400577 
L 256.79386 195.069785 
L 256.858797 194.953243 
L 256.891266 195.055861 
L 257.118547 195.829881 
L 257.151015 195.466922 
L 257.215953 195.742706 
L 257.28089 195.82448 
L 257.638046 196.594112 
L 257.702983 196.52103 
L 257.865327 197.113191 
L 257.897796 196.870318 
L 257.962733 197.174627 
L 258.02767 197.085089 
L 258.060139 197.191167 
L 258.157545 197.440453 
L 258.190014 197.287118 
L 258.28742 197.853118 
L 258.319889 197.694972 
L 258.352357 197.588557 
L 258.384826 197.724846 
L 258.579638 198.271436 
L 258.612107 198.150759 
L 258.677044 198.207132 
L 258.774451 198.600555 
L 258.806919 198.545449 
L 258.969263 198.768068 
L 259.131606 199.136597 
L 259.326418 199.481075 
L 259.488762 199.665466 
L 259.618637 199.920153 
L 259.651105 199.762176 
L 259.683574 200.125304 
L 259.813449 200.398472 
L 259.845918 200.135768 
L 259.910855 200.381341 
L 259.943324 200.373999 
L 260.105667 200.712486 
L 260.332948 201.168611 
L 260.462823 201.41334 
L 260.495292 201.378318 
L 260.52776 201.482792 
L 260.560229 201.482877 
L 260.722573 201.799759 
L 260.949854 202.175124 
L 260.982322 202.126853 
L 261.144666 202.63454 
L 261.177134 202.399093 
L 261.209603 202.643823 
L 261.436884 203.081973 
L 261.469353 203.042225 
L 261.566759 203.495903 
L 261.631696 203.330162 
L 261.664165 203.250667 
L 261.79404 203.745274 
L 261.826508 203.630504 
L 261.858977 203.828397 
L 261.891446 203.772869 
L 261.923915 203.764346 
L 262.053789 204.154563 
L 262.086258 204.042747 
L 262.410945 204.721069 
L 262.443414 204.592628 
L 262.508351 204.714824 
L 263.157725 205.950623 
L 263.190194 205.754333 
L 263.222663 205.97805 
L 263.514881 206.485568 
L 263.54735 206.38295 
L 263.677224 206.73207 
L 263.839568 206.952242 
L 263.872037 206.914435 
L 263.904505 207.04583 
L 263.936974 207.03334 
L 264.066849 207.330813 
L 264.099318 207.314019 
L 264.164255 207.763393 
L 264.229192 207.604572 
L 264.29413 207.614361 
L 264.521411 208.216818 
L 264.553879 208.107364 
L 264.586348 208.180024 
L 264.78116 208.538932 
L 264.813629 208.397158 
L 264.878566 208.574038 
L 264.911035 208.528299 
L 265.04091 208.957673 
L 265.073379 208.801636 
L 265.138316 209.013032 
L 265.170785 208.985859 
L 265.268191 209.353881 
L 265.30066 209.285694 
L 266.209783 210.789936 
L 266.242252 211.052472 
L 266.307189 210.771877 
L 266.79422 211.77704 
L 266.826688 211.40792 
L 266.859157 211.899067 
L 266.891626 211.740837 
L 267.021501 212.111813 
L 267.053969 211.850627 
L 267.118907 212.188185 
L 267.313719 212.492747 
L 267.183844 212.102108 
L 267.346188 212.462535 
L 267.378656 212.374601 
L 267.508531 212.939926 
L 267.541 212.926255 
L 267.573469 212.780093 
L 267.638406 212.92904 
L 267.735812 213.024991 
L 267.930624 213.398077 
L 267.963093 213.335122 
L 268.02803 213.415292 
L 268.190374 213.850911 
L 268.222843 213.591666 
L 268.255311 213.845425 
L 268.450124 214.232773 
L 268.482592 214.156063 
L 268.515061 214.260537 
L 268.644936 214.471089 
L 268.742342 214.74451 
L 268.807279 214.695818 
L 268.839748 214.655395 
L 268.872217 214.788984 
L 268.937154 214.759447 
L 269.03456 215.042236 
L 269.067029 214.976497 
L 269.099498 215.26224 
L 269.196904 215.169664 
L 269.554059 215.920562 
L 269.586528 215.714567 
L 269.651466 215.944866 
L 270.203433 216.842685 
L 270.235902 216.698464 
L 270.30084 216.889521 
L 270.430714 217.089018 
L 270.463183 217.019144 
L 270.495652 217.146656 
L 270.593058 217.241763 
L 270.625527 217.192311 
L 270.755401 217.558055 
L 270.78787 217.530713 
L 270.982682 218.073252 
L 271.015151 217.984812 
L 271.080088 217.962702 
L 271.307369 218.380514 
L 271.339838 218.291568 
L 271.372307 218.501444 
L 271.696994 218.878243 
L 271.924275 219.227447 
L 272.021681 219.279431 
L 272.216493 219.641461 
L 272.248962 219.605343 
L 272.411305 219.953196 
L 272.443774 219.88003 
L 272.476243 220.016319 
L 272.508711 219.961129 
L 272.573649 220.112101 
L 272.638586 220.047797 
L 272.735992 220.327717 
L 272.80093 220.469913 
L 273.060679 220.832365 
L 273.093148 221.00798 
L 273.158085 220.852619 
L 273.255491 220.93397 
L 273.417835 221.386298 
L 273.515241 221.489759 
L 273.54771 221.46959 
L 273.580178 221.452797 
L 273.742522 221.875166 
L 273.774991 221.630183 
L 273.807459 221.904111 
L 273.839928 221.878879 
L 274.03474 222.215255 
L 274.067209 222.159474 
L 274.099678 222.297113 
L 274.456833 222.738132 
L 274.489302 222.656528 
L 274.651646 223.104636 
L 274.684114 223.049445 
L 274.716583 223.082948 
L 274.78152 223.059656 
L 274.878926 223.353416 
L 274.911395 223.209701 
L 274.943864 223.477637 
L 275.203613 223.876884 
L 275.236082 223.731481 
L 275.30102 223.919416 
L 275.463363 224.263387 
L 275.495832 224.053342 
L 275.560769 224.297228 
L 275.593238 224.302966 
L 275.625707 224.189631 
L 275.690644 224.365414 
L 275.982862 224.860358 
L 276.015331 224.612338 
L 276.0478 224.897237 
L 276.080268 224.778669 
L 276.242612 225.275301 
L 276.275081 225.132261 
L 276.307549 225.162557 
L 276.340018 225.102894 
L 276.469893 225.425683 
L 276.53483 225.517668 
L 276.567299 225.658092 
L 276.632236 225.618598 
L 276.664705 225.523828 
L 276.697174 225.702396 
L 276.859517 226.112698 
L 276.891986 225.950079 
L 276.956923 226.181897 
L 277.054329 226.033625 
L 277.086798 226.288397 
L 277.184204 226.265949 
L 277.379016 226.724774 
L 277.443954 226.774227 
L 277.476423 226.631693 
L 277.508891 226.710006 
L 277.638766 227.052206 
L 277.671235 226.991361 
L 278.02839 227.523605 
L 278.060859 227.344362 
L 278.125797 227.409342 
L 278.223203 227.78479 
L 278.255671 227.736688 
L 278.353077 227.766815 
L 278.54789 228.170703 
L 278.612827 228.191969 
L 278.775171 228.524295 
L 278.807639 228.503451 
L 278.937514 228.640331 
L 278.969983 228.563114 
L 279.002452 228.734762 
L 279.03492 228.696196 
L 279.164795 228.986581 
L 279.099858 228.672736 
L 279.197264 228.960335 
L 279.392076 229.211057 
L 279.424545 229.091392 
L 279.457013 229.280087 
L 280.885636 231.071169 
L 280.918105 230.944585 
L 280.950574 231.194799 
L 281.015511 231.267796 
L 281.04798 231.034375 
L 281.112917 231.347882 
L 282.249322 232.722164 
L 282.411665 232.923264 
L 282.509071 232.87204 
L 282.54154 232.95837 
L 282.638946 233.241834 
L 282.671415 233.062254 
L 282.996102 233.603021 
L 283.093508 233.46015 
L 283.223383 233.868257 
L 283.255851 233.755091 
L 283.28832 233.792307 
L 283.450664 234.059399 
L 283.54807 234.209612 
L 283.580538 234.334087 
L 283.677945 234.305479 
L 283.710413 234.321597 
L 283.872757 234.625399 
L 283.905225 234.558478 
L 283.937694 234.732152 
L 283.970163 234.638395 
L 284.067569 234.736793 
L 284.100038 234.965151 
L 284.164975 234.767258 
L 284.29485 235.14296 
L 284.327319 235.083972 
L 284.359787 234.938315 
L 284.392256 235.228109 
L 284.554599 235.433344 
L 284.587068 235.340684 
L 284.652006 235.441867 
L 284.846818 235.630646 
L 284.879286 235.628959 
L 285.04163 235.985589 
L 285.074099 235.950482 
L 285.236442 236.274454 
L 285.268911 236.111076 
L 285.366317 236.18517 
L 285.658535 236.608551 
L 285.691004 236.591927 
L 285.723473 236.668299 
L 285.918285 236.867121 
L 285.950754 236.852268 
L 285.983222 237.019528 
L 286.080628 236.998684 
L 286.275441 237.259194 
L 286.340378 237.421644 
L 286.470253 237.556161 
L 286.53519 237.481223 
L 286.567659 237.564262 
L 286.762471 237.881735 
L 286.859877 237.856587 
L 287.022221 238.162414 
L 287.379376 238.498875 
L 287.411845 238.439381 
L 287.444314 238.468326 
L 287.574189 238.74698 
L 287.769001 238.836349 
L 287.931344 239.078462 
L 287.963813 239.04631 
L 288.093688 239.256608 
L 288.126157 239.246988 
L 288.256031 239.451041 
L 288.2885 239.405555 
L 288.320969 239.489185 
L 288.450844 239.759822 
L 288.483312 239.727079 
L 288.515781 239.511886 
L 288.54825 239.811216 
L 288.580718 239.725729 
L 288.775531 240.095439 
L 288.840468 239.98202 
L 288.872937 239.960416 
L 288.937874 239.944045 
L 289.002812 240.277298 
L 289.03528 240.140756 
L 289.067749 240.393165 
L 289.100218 240.307847 
L 289.197624 240.456035 
L 289.230092 240.417722 
L 289.262561 240.399241 
L 289.457373 240.767264 
L 289.489842 240.662199 
L 289.522311 240.691735 
L 289.684654 241.042964 
L 289.717123 240.88946 
L 289.78206 240.998744 
L 289.814529 241.183641 
L 289.879466 241.059082 
L 289.911935 241.046761 
L 290.074279 241.431999 
L 290.106747 241.381197 
L 290.171685 241.445417 
L 290.334028 241.821288 
L 290.366497 241.693607 
L 290.398966 241.565335 
L 290.431434 241.803144 
L 290.463903 241.727109 
L 290.821059 242.104583 
L 290.950934 242.307793 
L 291.437964 242.729656 
L 291.632776 243.09945 
L 291.665245 242.856324 
L 291.730182 243.141139 
L 291.762651 243.159198 
L 291.79512 243.026538 
L 291.860057 243.123333 
L 292.087338 243.345446 
L 292.119807 243.295403 
L 292.249682 243.585871 
L 292.314619 243.503845 
L 292.476963 243.861403 
L 292.5419 243.685282 
L 292.574369 243.828322 
L 292.931524 244.270101 
L 292.963993 244.086976 
L 293.028931 244.285038 
L 293.191274 244.513565 
L 293.223743 244.473142 
L 293.256211 244.413141 
L 293.28868 244.547995 
L 293.483492 244.817451 
L 293.54843 244.709686 
L 293.580898 244.842852 
L 294.03546 245.327079 
L 294.067929 245.188089 
L 294.100398 245.444971 
L 294.132866 245.361594 
L 294.230272 245.492735 
L 294.262741 245.447081 
L 294.554959 245.848184 
L 294.587428 245.978987 
L 294.652366 245.844724 
L 294.814709 246.074263 
L 294.847178 246.009114 
L 294.879647 246.011224 
L 295.04199 246.275869 
L 295.106927 246.328444 
L 295.236802 246.402116 
L 295.529021 246.731488 
L 295.561489 246.666593 
L 295.593958 246.671909 
L 295.723833 247.024826 
L 295.756301 246.911575 
L 295.918645 247.091662 
L 295.983582 247.12584 
L 296.016051 246.984656 
L 296.145926 247.399599 
L 296.243332 247.268964 
L 296.405675 247.512344 
L 296.503082 247.516648 
L 296.827769 247.984587 
L 296.860237 247.793023 
L 296.925175 248.017246 
L 297.152456 248.178767 
L 297.184924 248.121298 
L 297.217393 248.214548 
L 297.54208 248.64485 
L 297.28233 248.119948 
L 297.574549 248.588478 
L 297.736892 248.764008 
L 297.769361 248.706792 
L 297.866767 248.877343 
L 297.899236 248.815654 
L 297.964173 248.911774 
L 298.386266 249.369165 
L 298.418735 249.288995 
L 298.451204 249.376 
L 298.646016 249.591869 
L 298.808359 249.647059 
L 298.938234 249.880059 
L 298.970703 249.704022 
L 299.03564 249.86394 
L 299.165515 249.991621 
L 299.197984 249.795838 
L 299.262921 250.0312 
L 299.457733 250.369602 
L 299.490202 250.117868 
L 299.55514 250.208755 
L 299.587608 250.408674 
L 299.685014 250.358969 
L 299.814889 250.615006 
L 299.847358 250.548676 
L 299.879827 250.478886 
L 300.009701 250.713911 
L 300.04217 250.615597 
L 300.074639 250.708932 
L 300.204514 250.942606 
L 300.236982 250.891466 
L 300.561669 251.215353 
L 300.594138 251.02497 
L 300.659075 251.268181 
L 300.691544 251.16531 
L 300.724013 251.264467 
L 300.853888 251.516792 
L 300.886356 251.38987 
L 300.951294 251.445145 
L 301.0487 251.735783 
L 301.081168 251.582784 
L 301.79548 252.225157 
L 301.827949 252.171148 
L 301.860417 252.287774 
L 301.990292 252.404569 
L 302.022761 252.320686 
L 302.05523 252.492081 
L 302.120167 252.364822 
L 302.314979 252.636978 
L 302.347448 252.57723 
L 302.379917 252.732253 
L 302.477323 252.675206 
L 302.639666 252.973776 
L 302.672135 252.909133 
L 302.704604 252.992088 
L 302.834478 253.102385 
L 302.899416 253.038671 
L 302.931884 253.290743 
L 303.029291 253.275721 
L 303.061759 253.250911 
L 303.094228 253.295131 
L 303.321509 253.539438 
L 303.386446 253.440787 
L 303.418915 253.584587 
L 303.451384 253.51429 
L 303.483852 253.589481 
L 303.646196 253.896068 
L 303.678665 253.610494 
L 303.743602 253.931005 
L 303.841008 253.814464 
L 303.873477 253.868051 
L 303.905946 253.792269 
L 303.938414 253.898769 
L 304.133226 254.204596 
L 304.198164 254.039615 
L 304.230633 254.208393 
L 304.944944 254.694561 
L 305.074819 254.853466 
L 305.204694 254.881568 
L 305.3021 255.055242 
L 305.334568 255.004439 
L 305.431974 254.949248 
L 305.529381 255.220392 
L 305.561849 255.131023 
L 305.854068 255.468412 
L 305.886536 255.39128 
L 305.919005 255.53508 
L 306.178755 255.690272 
L 306.211223 255.515839 
L 306.243692 255.817447 
L 306.373567 255.823017 
L 306.406036 255.972217 
L 306.503442 255.941837 
L 306.53591 255.905803 
L 306.568379 256.012134 
L 306.79566 256.100405 
L 306.958003 256.380662 
L 307.217753 256.494504 
L 307.250222 256.639907 
L 307.347628 256.616531 
L 307.672315 256.842441 
L 307.704784 256.743031 
L 307.737252 256.886999 
L 308.419095 257.416712 
L 308.451564 257.356373 
L 308.516501 257.434011 
L 308.711313 257.640006 
L 308.743782 257.568275 
L 308.776251 257.567938 
L 308.938594 257.832077 
L 309.100938 257.892753 
L 309.29575 258.11014 
L 309.328219 258.036299 
L 309.360687 257.962289 
L 309.458093 258.011742 
L 309.750312 258.442128 
L 309.847718 258.341367 
L 310.04253 258.636814 
L 310.074999 258.487783 
L 310.139936 258.525167 
L 310.30228 258.740107 
L 310.399686 258.749727 
L 310.529561 258.947283 
L 310.562029 258.930996 
L 310.691904 258.985174 
L 310.854248 259.199523 
L 310.886716 259.071589 
L 310.951654 259.140957 
L 311.146466 259.280453 
L 311.178935 259.207118 
L 311.308809 259.494971 
L 311.341278 259.370581 
L 311.373747 259.415391 
L 311.503622 259.589656 
L 311.601028 259.560372 
L 311.79584 259.757928 
L 312.088058 259.994809 
L 312.152996 259.950674 
L 312.250402 260.085697 
L 312.28287 260.071182 
L 312.380277 260.11709 
L 312.54262 260.359963 
L 312.704964 260.366545 
L 312.867307 260.497686 
L 312.899776 260.424605 
L 312.932244 260.531948 
L 312.964713 260.481905 
L 313.127057 260.669419 
L 313.159525 260.634988 
L 313.191994 260.808914 
L 313.256932 260.713217 
L 313.2894 260.698702 
L 313.386806 260.903009 
L 313.419275 260.778787 
L 313.516681 261.032293 
L 313.54915 260.885202 
L 313.614087 260.95955 
L 313.776431 261.157443 
L 313.808899 261.114489 
L 313.841368 261.206979 
L 313.873837 261.205882 
L 314.003712 261.177021 
L 314.166055 261.393902 
L 314.198524 261.455338 
L 314.230993 261.334492 
L 314.29593 261.347657 
L 314.458273 261.638632 
L 314.55568 261.561415 
L 314.685554 261.778127 
L 314.718023 261.649096 
L 314.750492 261.830364 
L 314.815429 261.690784 
L 314.945304 261.949016 
L 314.977773 261.811883 
L 315.04271 261.884627 
L 315.205054 262.086318 
L 315.237522 262.070621 
L 315.269991 262.002688 
L 315.334928 262.123871 
L 315.594678 262.29189 
L 315.659615 262.377883 
L 315.724553 262.304886 
L 315.886896 262.612823 
L 315.919365 262.429192 
L 315.951834 262.412652 
L 316.04924 262.59738 
L 316.081709 262.507927 
L 317.088238 263.227938 
L 317.120707 263.14262 
L 317.153176 263.261019 
L 317.28305 263.416464 
L 317.315519 263.294268 
L 317.347988 263.459587 
L 317.380457 263.344733 
L 317.705144 263.61191 
L 317.770081 263.604484 
L 317.80255 263.653852 
L 317.932425 263.78052 
L 317.997362 263.718916 
L 318.029831 263.696637 
L 318.159705 263.892167 
L 318.322049 264.020861 
L 318.354518 263.940438 
L 318.451924 263.994279 
L 318.581799 264.118247 
L 318.614267 264.060356 
L 318.646736 264.184577 
L 318.679205 264.132593 
L 319.490922 264.71218 
L 319.523391 264.586524 
L 319.588328 264.699606 
L 320.432515 265.137925 
L 320.464983 265.33894 
L 320.562389 265.252863 
L 320.757202 265.390333 
L 320.78967 265.328307 
L 320.822139 265.502065 
L 321.016951 265.468056 
L 321.179295 265.672194 
L 321.439044 265.773124 
L 321.471513 265.75979 
L 321.633856 265.937261 
L 321.731263 265.880636 
L 321.698794 265.993212 
L 321.763731 265.914898 
L 321.926075 266.037263 
L 322.153356 266.17237 
L 322.315699 266.191611 
L 322.413105 266.370517 
L 322.445574 266.359462 
L 322.575449 266.502924 
L 322.607918 266.430771 
L 322.672855 266.424695 
L 322.770261 266.554148 
L 322.80273 266.453472 
L 322.835198 266.614909 
L 322.867667 266.602419 
L 323.030011 266.740058 
L 323.062479 266.570604 
L 323.094948 266.82411 
L 323.192354 266.808582 
L 323.224823 266.858457 
L 323.28976 266.785797 
L 323.419635 266.866558 
L 323.581979 266.992467 
L 323.614447 266.929006 
L 323.646916 266.950779 
L 323.744322 267.162765 
L 323.776791 267.120402 
L 324.004072 267.121667 
L 324.166415 267.350785 
L 324.198884 267.288337 
L 324.231353 267.413149 
L 324.393696 267.423613 
L 324.523571 267.423697 
L 324.653446 267.632561 
L 324.685914 267.607075 
L 324.718383 267.532644 
L 324.783321 267.580915 
L 324.945664 267.732816 
L 325.04307 267.680072 
L 325.075539 267.722436 
L 325.140476 267.851467 
L 325.172945 267.888177 
L 325.205414 267.821003 
L 325.237882 267.771382 
L 325.270351 267.961764 
L 325.335288 267.894928 
L 325.367757 267.831636 
L 325.400226 267.918979 
L 325.595038 268.1151 
L 325.724913 268.075099 
L 325.78985 268.24565 
L 325.854788 268.202359 
L 325.887256 268.161936 
L 325.919725 268.196283 
L 326.082069 268.367087 
L 326.244412 268.352572 
L 326.374287 268.491477 
L 326.471693 268.407678 
L 326.53663 268.649454 
L 326.601568 268.477637 
L 326.828849 268.735025 
L 326.958724 268.709455 
L 327.121067 268.883128 
L 327.153536 268.821524 
L 327.218473 268.903719 
L 327.348348 268.92372 
L 327.608098 269.116803 
L 327.640566 269.084735 
L 328.517221 269.473011 
L 328.54969 269.431829 
L 328.614627 269.527442 
L 328.744502 269.624658 
L 328.776971 269.596135 
L 328.874377 269.804999 
L 328.906846 269.726432 
L 328.939314 269.688119 
L 329.069189 269.85943 
L 329.231533 269.812087 
L 329.264001 270.004833 
L 329.328939 269.925001 
L 329.361407 269.833016 
L 329.393876 269.928461 
L 329.426345 270.072851 
L 329.491282 269.935549 
L 329.653626 270.116733 
L 329.686094 270.056395 
L 330.010781 270.312601 
L 330.108188 270.243064 
L 330.270531 270.467793 
L 330.432875 270.365176 
L 330.465343 270.48619 
L 331.212123 270.82839 
L 331.244592 270.72535 
L 331.277061 270.889572 
L 331.699154 271.057676 
L 331.79656 271.07987 
L 331.958904 271.211433 
L 331.991372 271.104343 
L 332.023841 271.282152 
L 332.05631 271.194387 
L 332.088778 271.314135 
L 332.153716 271.291772 
L 332.218653 271.254978 
L 332.316059 271.410002 
L 332.348528 271.399284 
L 332.380997 271.31076 
L 332.413465 271.352617 
L 332.445934 271.490762 
L 332.510871 271.473969 
L 332.640746 271.436922 
L 332.770621 271.527894 
L 332.80309 271.515067 
L 332.932965 271.694479 
L 332.965433 271.548063 
L 333.030371 271.73161 
L 333.160245 271.761737 
L 333.192714 271.641482 
L 333.225183 271.792033 
L 333.257652 271.67009 
L 333.452464 271.909925 
L 333.54987 271.823257 
L 333.679745 271.978027 
L 333.712213 271.894903 
L 333.777151 272.0198 
L 333.874557 272.005622 
L 333.971963 271.95482 
L 334.069369 272.173557 
L 334.101838 272.086046 
L 334.134307 272.24571 
L 334.199244 272.126384 
L 334.361587 272.26858 
L 334.394056 272.14689 
L 334.458994 272.292969 
L 334.523931 272.244445 
L 334.588868 272.360311 
L 334.621337 272.266217 
L 334.686274 272.387232 
L 335.075899 272.624113 
L 335.108368 272.539386 
L 335.173305 272.66175 
L 335.205774 272.578711 
L 335.400586 272.737954 
L 335.595398 272.71289 
L 335.660335 272.879813 
L 335.725273 272.836859 
L 335.920085 272.940573 
L 336.04996 273.053824 
L 336.114897 272.987831 
L 336.147366 273.075849 
L 336.342178 273.146399 
L 336.407116 273.105808 
L 336.439584 273.165724 
L 336.699334 273.248679 
L 336.829209 273.278469 
L 336.991552 273.452648 
L 337.153896 273.426741 
L 337.316239 273.517206 
L 337.381177 273.604212 
L 337.446114 273.503282 
L 337.575989 273.674677 
L 337.705864 273.684297 
L 337.80327 273.793835 
L 337.835738 273.719657 
L 337.998082 273.725648 
L 338.160425 273.899659 
L 338.225363 273.86852 
L 338.257832 273.946074 
L 338.452644 273.94236 
L 338.582519 274.06405 
L 338.679925 274.060421 
L 338.777331 274.125064 
L 338.8098 274.053839 
L 338.842268 274.24034 
L 338.874737 274.127933 
L 339.03708 274.295952 
L 339.069549 274.257977 
L 339.166955 274.276374 
L 339.329299 274.382958 
L 339.426705 274.292745 
L 339.589048 274.475786 
L 339.913735 274.52777 
L 340.04361 274.608446 
L 340.692984 274.858323 
L 340.725453 274.994444 
L 340.822859 274.953768 
L 340.985203 274.961785 
L 341.082609 275.022377 
L 341.277421 275.129973 
L 341.374827 275.071829 
L 341.53717 275.210312 
L 341.634577 275.277233 
L 341.667045 275.250312 
L 343.777511 276.045936 
L 343.80998 276.004585 
L 343.874917 276.066443 
L 343.907386 276.156318 
L 344.004792 276.104671 
L 344.134667 276.180031 
L 344.167135 276.117161 
L 344.232073 276.197162 
L 344.55676 276.308387 
L 344.686634 276.358684 
L 344.946384 276.450752 
L 345.076259 276.550585 
L 345.108728 276.451259 
L 345.400946 276.606535 
L 345.563289 276.721305 
L 345.660696 276.743837 
L 345.79057 276.740124 
L 345.985383 276.810842 
L 346.017851 276.756917 
L 346.05032 276.836159 
L 346.180195 276.88021 
L 346.894506 277.1311 
L 346.926975 277.191945 
L 346.991912 277.128653 
L 347.05685 277.193802 
L 347.154256 277.286546 
L 347.186724 277.162324 
L 347.251662 277.248402 
L 347.284131 277.232874 
L 347.381537 277.350344 
L 347.414005 277.298698 
L 347.576349 277.391948 
L 347.901036 277.500304 
L 347.933505 277.456168 
L 347.965973 277.520473 
L 348.063379 277.598955 
L 348.095848 277.560727 
L 348.160786 277.538786 
L 348.193254 277.584693 
L 348.29066 277.690349 
L 348.323129 277.570178 
L 348.388066 277.635074 
L 348.453004 277.69786 
L 348.517941 277.630686 
L 348.615347 277.731194 
L 350.401126 278.322426 
L 350.531001 278.360486 
L 350.693344 278.419643 
L 350.920625 278.424284 
L 351.0505 278.603612 
L 351.082969 278.457196 
L 351.180375 278.492218 
L 351.212843 278.676018 
L 351.277781 278.627156 
L 351.31025 278.52918 
L 351.375187 278.645891 
L 351.699874 278.734415 
L 351.732343 278.660575 
L 351.79728 278.759563 
L 351.894686 278.779901 
L 351.927155 278.862772 
L 351.992092 278.805471 
L 352.089498 278.848426 
L 352.251842 278.883953 
L 352.608998 279.005981 
L 352.641466 278.930536 
L 352.706404 279.051551 
L 353.128497 279.166827 
L 353.225903 279.204802 
L 353.258372 279.15535 
L 353.323309 279.231807 
L 354.005152 279.42143 
L 354.135027 279.486241 
L 354.199964 279.420502 
L 354.232433 279.511727 
L 354.29737 279.467675 
L 354.362308 279.555103 
L 354.524651 279.539744 
L 354.849338 279.669704 
L 354.914275 279.682278 
L 354.979213 279.744051 
L 355.04415 279.692573 
L 355.271431 279.810718 
L 355.401306 279.790718 
L 355.563649 279.851732 
L 355.596118 279.815107 
L 355.628587 279.918821 
L 355.661056 279.9584 
L 355.693524 279.890551 
L 355.823399 279.915108 
L 356.472773 280.174775 
L 356.505242 280.078064 
L 356.570179 280.145491 
L 356.764991 280.256632 
L 356.79746 280.194775 
L 356.927335 280.288532 
L 358.420895 280.735458 
L 358.453364 280.599591 
L 358.518301 280.753855 
L 358.713113 280.75318 
L 358.745582 280.839088 
L 358.81052 280.747526 
L 358.842988 280.728454 
L 358.972863 280.829299 
L 359.589768 280.976221 
L 359.622237 281.088628 
L 359.687175 280.981538 
L 359.817049 281.039682 
L 359.979393 281.123987 
L 360.239142 281.092763 
L 360.271611 281.234622 
L 360.336549 281.185929 
L 360.369017 281.155633 
L 360.401486 281.190992 
L 360.498892 281.298589 
L 360.531361 281.195634 
L 360.596298 281.276479 
L 360.758642 281.386269 
L 360.79111 281.312598 
L 361.213204 281.413443 
L 361.245672 281.501714 
L 361.343078 281.451503 
L 361.408016 281.455469 
L 361.440484 281.50163 
L 361.732703 281.573614 
L 361.959984 281.623995 
L 362.089858 281.628805 
L 362.252202 281.737245 
L 362.284671 281.601378 
L 362.349608 281.747203 
L 362.739232 281.828555 
L 362.901576 281.880285 
L 362.934045 281.833787 
L 362.966513 281.896404 
L 363.096388 281.923071 
L 363.193794 281.913619 
L 363.648356 282.026954 
L 363.680825 281.99362 
L 363.713294 282.123327 
L 363.778231 282.057925 
L 363.8107 282.008304 
L 363.843168 282.12493 
L 363.875637 282.108137 
L 364.817229 282.299701 
L 364.914635 282.402234 
L 365.04451 282.370504 
L 365.076979 282.363246 
L 365.109448 282.472362 
L 365.206854 282.42426 
L 365.30426 282.455906 
L 365.434135 282.459366 
L 365.693884 282.526962 
L 365.79129 282.554135 
L 365.986103 282.576245 
L 366.115977 282.650423 
L 366.245852 282.622659 
L 366.505602 282.76283 
L 366.635477 282.729496 
L 366.765351 282.809835 
L 366.79782 282.786712 
L 367.122507 282.831523 
L 367.219913 282.929246 
L 367.252382 282.874899 
L 367.349788 282.963255 
L 367.382257 282.911271 
L 367.609538 282.991441 
L 367.836819 283.025113 
L 368.0641 283.071696 
L 368.193974 283.166212 
L 368.226443 283.118785 
L 368.356318 283.106042 
L 368.55113 283.214651 
L 368.745942 283.298281 
L 368.778411 283.233808 
L 369.330379 283.370772 
L 369.460254 283.37862 
L 369.492722 283.490014 
L 369.55766 283.372797 
L 369.752472 283.495077 
L 369.849878 283.456765 
L 370.077159 283.586134 
L 370.207034 283.511533 
L 370.271971 283.640312 
L 370.336909 283.589762 
L 370.434315 283.572716 
L 370.56419 283.657274 
L 370.759002 283.710777 
L 371.603188 283.881244 
L 371.895406 283.918037 
L 371.960344 283.855758 
L 371.992812 283.892299 
L 372.155156 284.00825 
L 372.317499 284.000486 
L 374.590308 284.480915 
L 374.622777 284.413404 
L 374.687715 284.492476 
L 374.882527 284.555431 
L 375.272151 284.583617 
L 375.531901 284.675011 
L 375.79165 284.679652 
L 375.953994 284.74632 
L 376.116337 284.762523 
L 376.441024 284.872229 
L 376.473493 284.81881 
L 376.538431 284.919825 
L 376.765711 284.87687 
L 376.960524 284.943538 
L 377.05793 284.963116 
L 377.220273 285.009868 
L 377.252742 284.909276 
L 377.317679 285.005817 
L 377.447554 285.041683 
L 377.642366 285.033582 
L 377.739773 285.126832 
L 377.772241 285.094004 
L 377.869647 285.011809 
L 377.999522 285.165735 
L 378.161866 285.097971 
L 378.29174 285.242024 
L 378.324209 285.204639 
L 378.746302 285.288269 
L 378.778771 285.222867 
L 378.843708 285.257636 
L 378.973583 285.338734 
L 379.135927 285.367004 
L 379.395676 285.417976 
L 379.817769 285.481352 
L 379.850238 285.429115 
L 379.915176 285.494939 
L 380.142456 285.524391 
L 380.499612 285.558062 
L 380.629487 285.63992 
L 380.79183 285.597303 
L 380.921705 285.701271 
L 380.954174 285.62051 
L 381.019111 285.729963 
L 381.408736 285.733676 
L 386.993352 286.68407 
L 387.05829 286.748797 
L 387.090759 286.706096 
L 387.123227 286.614618 
L 387.188165 286.642298 
L 387.415446 286.756983 
L 387.772601 286.817828 
L 387.934945 286.773523 
L 388.097288 286.811836 
L 388.389507 286.866689 
L 388.616787 286.970657 
L 388.649256 286.896479 
L 388.714194 286.947281 
L 390.402566 287.200703 
L 390.435035 287.12374 
L 390.499972 287.198846 
L 391.31169 287.362393 
L 391.344158 287.264079 
L 391.409096 287.398512 
L 391.441565 287.319354 
L 391.636377 287.379608 
L 391.733783 287.380115 
L 391.928595 287.429145 
L 392.253282 287.451255 
L 392.415626 287.469821 
L 393.097468 287.560371 
L 393.227343 287.588894 
L 393.357218 287.643494 
L 393.55203 287.654718 
L 393.746842 287.733622 
L 393.81178 287.641553 
L 393.876717 287.683579 
L 394.039061 287.674212 
L 394.071529 287.774804 
L 394.136467 287.709234 
L 395.30534 287.86451 
L 395.467683 287.928646 
L 395.56509 287.911093 
L 395.597558 287.938942 
L 395.727433 287.938267 
L 396.181995 287.988731 
L 396.344338 287.981136 
L 396.539151 288.085526 
L 396.733963 288.062825 
L 397.350868 288.13751 
L 397.448274 288.122236 
L 397.675555 288.18038 
L 397.902836 288.222406 
L 398.324929 288.27152 
L 398.357398 288.218018 
L 398.422335 288.262069 
L 398.454804 288.352619 
L 398.487273 288.304517 
" clip-path="url(#p0016a55082)" style="fill: none; stroke-dasharray: 1.85,0.8; stroke-dashoffset: 0; stroke: #8000ff; stroke-width: 0.5"/>
   </g>
   <g id="line2d_15">
    <path d="M 73.832727 295.488 
L 115.105127 295.381382 
L 119.65484 295.143379 
L 122.904636 294.724723 
L 124.854513 294.285788 
L 126.80439 293.609997 
L 128.104308 293.005895 
L 130.054185 291.731429 
L 131.354103 290.607243 
L 132.979001 288.759528 
L 134.278919 286.906816 
L 135.578837 284.651525 
L 137.203735 281.250824 
L 138.503653 278.009873 
L 139.803571 274.342485 
L 141.753448 268.028854 
L 144.353284 258.384507 
L 148.253038 241.912715 
L 154.427649 213.498964 
L 160.92724 183.812873 
L 165.476953 164.484313 
L 169.051728 150.717069 
L 171.976544 140.495464 
L 176.201278 127.539852 
L 180.750991 116.04746 
L 183.675807 110.084054 
L 185.625684 106.64175 
L 187.575561 103.641603 
L 190.825356 99.684996 
L 192.125274 98.503358 
L 193.100213 97.554018 
L 193.425192 97.440076 
L 194.075152 96.985436 
L 195.37507 96.120731 
L 196.350008 95.670902 
L 198.299885 94.961456 
L 200.574742 94.645874 
L 204.149517 94.891354 
L 205.124455 95.306601 
L 205.774414 95.482975 
L 207.399312 96.183593 
L 208.69923 96.823712 
L 209.349189 97.239128 
L 211.949025 99.039948 
L 212.923964 99.837589 
L 215.198821 101.889704 
L 218.448616 105.202538 
L 219.098575 106.017074 
L 223.973268 112.085435 
L 232.097756 123.738504 
L 233.722654 126.269521 
L 234.697592 127.757459 
L 235.99751 129.880672 
L 237.947387 132.930406 
L 239.572285 135.637991 
L 242.172121 139.83418 
L 244.121998 143.061975 
L 259.396036 168.047422 
L 261.345913 171.10551 
L 261.995872 172.17064 
L 262.320852 172.594283 
L 262.970811 173.627227 
L 263.945749 175.261176 
L 266.545586 179.208796 
L 267.520524 180.734009 
L 268.820442 182.589707 
L 269.145422 183.224384 
L 269.470401 183.60033 
L 270.12036 184.595029 
L 271.420278 186.514357 
L 272.070238 187.499123 
L 274.345094 190.751087 
L 281.169664 200.169802 
L 284.09448 204.025573 
L 286.044357 206.501661 
L 289.294152 210.544279 
L 292.218968 214.068365 
L 297.41864 219.959542 
L 298.718559 221.39407 
L 300.668436 223.510363 
L 300.993415 223.770494 
L 301.968354 224.838932 
L 309.117903 231.923333 
L 317.242391 239.203536 
L 325.36688 245.709523 
L 326.341818 246.381019 
L 329.266634 248.508671 
L 332.19145 250.5046 
L 333.166388 251.180188 
L 337.391122 253.920642 
L 340.315938 255.706264 
L 341.940835 256.650936 
L 343.565733 257.633078 
L 345.190631 258.497116 
L 346.815528 259.431417 
L 348.440426 260.313616 
L 355.264996 263.715152 
L 359.48973 265.680473 
L 361.764586 266.674201 
L 363.064505 267.207373 
L 365.98932 268.430311 
L 367.939197 269.191462 
L 376.388665 272.294268 
L 382.238296 274.234441 
L 383.213235 274.490993 
L 384.188174 274.807513 
L 391.987682 277.022854 
L 394.912498 277.789481 
L 396.212416 278.142693 
L 398.487273 278.675858 
L 398.487273 278.675858 
" clip-path="url(#p0016a55082)" style="fill: none; stroke-dasharray: 1.85,0.8; stroke-dashoffset: 0; stroke: #00b5eb; stroke-width: 0.5"/>
   </g>
   <g id="line2d_16">
    <path d="M 73.832727 295.488 
L 121.144194 295.387514 
L 126.038483 295.169055 
L 129.301343 294.828061 
L 132.564203 294.167119 
L 134.195633 293.65337 
L 135.827063 292.955054 
L 137.458492 292.023828 
L 139.089922 290.810067 
L 140.721352 289.225344 
L 142.352782 287.239145 
L 143.984212 284.760452 
L 145.615642 281.773391 
L 147.247072 278.232897 
L 148.878502 274.183954 
L 150.509931 269.660246 
L 153.772791 259.485149 
L 157.035651 248.236182 
L 161.929941 230.298342 
L 168.45566 206.200509 
L 173.34995 189.075226 
L 176.61281 178.462469 
L 179.875669 168.647176 
L 183.138529 159.612597 
L 186.401389 151.552256 
L 189.664249 144.451996 
L 192.927108 138.313919 
L 196.189968 133.083778 
L 197.821398 130.842207 
L 199.452828 128.810104 
L 201.084258 126.987241 
L 202.715688 125.415098 
L 204.347117 124.036929 
L 205.978547 122.857075 
L 207.609977 121.872928 
L 209.241407 121.128568 
L 210.872837 120.544279 
L 212.504267 120.133106 
L 214.135697 119.856282 
L 217.398556 119.952743 
L 219.029986 120.13261 
L 222.292846 121.085352 
L 223.924276 121.709506 
L 227.187136 123.380986 
L 230.449995 125.494807 
L 233.712855 128.015265 
L 235.344285 129.332731 
L 240.238575 133.926286 
L 243.501434 137.284798 
L 246.764294 140.83805 
L 251.658584 146.479831 
L 258.184303 154.393521 
L 263.078593 160.459156 
L 276.130032 176.802539 
L 284.287181 186.71034 
L 292.444331 196.198001 
L 298.97005 203.393014 
L 305.49577 210.227935 
L 312.021489 216.636935 
L 316.915779 221.221021 
L 323.441498 226.96452 
L 329.967218 232.294114 
L 334.861508 236.045807 
L 339.755797 239.590984 
L 344.650087 242.919993 
L 351.175806 247.093617 
L 359.332956 251.849479 
L 367.490105 256.115543 
L 372.384395 258.48135 
L 382.172974 262.758154 
L 387.067264 264.714478 
L 395.224413 267.68984 
L 398.487273 268.804246 
L 398.487273 268.804246 
" clip-path="url(#p0016a55082)" style="fill: none; stroke-dasharray: 1.85,0.8; stroke-dashoffset: 0; stroke: #80ffb4; stroke-width: 0.5"/>
   </g>
   <g id="line2d_17">
    <path d="M 73.832727 295.488 
L 77.112066 295.488 
L 80.391405 295.488 
L 83.670744 295.488 
L 86.950083 295.487999 
L 90.229421 295.487999 
L 93.50876 295.487993 
L 96.788099 295.487965 
L 100.067438 295.487882 
L 103.346777 295.487693 
L 106.626116 295.487102 
L 109.905455 295.485544 
L 113.184793 295.481736 
L 116.464132 295.472923 
L 119.743471 295.452383 
L 123.02281 295.409126 
L 126.302149 295.317322 
L 129.581488 295.135919 
L 132.860826 294.781661 
L 136.140165 294.119569 
L 139.419504 292.921058 
L 142.698843 290.86067 
L 145.978182 287.480326 
L 149.257521 282.331881 
L 152.53686 275.226459 
L 155.816198 266.492019 
L 159.095537 256.592232 
L 162.374876 245.91764 
L 165.654215 234.987298 
L 168.933554 223.757208 
L 172.212893 212.933131 
L 175.492231 202.158672 
L 178.77157 192.143894 
L 182.050909 182.655627 
L 185.330248 173.767827 
L 188.609587 165.736475 
L 191.888926 158.685055 
L 195.168264 152.257101 
L 198.447603 146.715964 
L 201.726942 142.026433 
L 205.006281 138.093356 
L 208.28562 134.992544 
L 211.564959 132.600438 
L 214.844298 130.947757 
L 218.123636 129.910456 
L 221.402975 129.51478 
L 224.682314 129.611622 
L 227.961653 130.255089 
L 231.240992 131.383241 
L 234.520331 132.97299 
L 237.799669 134.869556 
L 241.079008 137.091651 
L 244.358347 139.586241 
L 247.637686 142.362064 
L 250.917025 145.345902 
L 254.196364 148.505308 
L 257.475702 151.734631 
L 260.755041 155.214474 
L 264.03438 158.700686 
L 267.313719 162.26624 
L 270.593058 165.900728 
L 273.872397 169.526003 
L 277.151736 173.196421 
L 280.431074 176.85095 
L 283.710413 180.484902 
L 286.989752 184.113134 
L 290.269091 187.644666 
L 293.54843 191.186906 
L 296.827769 194.633183 
L 300.107107 198.011828 
L 303.386446 201.34109 
L 306.665785 204.604866 
L 309.945124 207.752636 
L 313.224463 210.860692 
L 316.503802 213.873142 
L 319.78314 216.792619 
L 323.062479 219.643166 
L 326.341818 222.390152 
L 329.621157 225.096795 
L 332.900496 227.668114 
L 336.179835 230.171416 
L 339.459174 232.610227 
L 342.738512 234.935144 
L 346.017851 237.195618 
L 349.29719 239.385744 
L 352.576529 241.484976 
L 355.855868 243.51351 
L 359.135207 245.47383 
L 362.414545 247.341664 
L 365.693884 249.166171 
L 368.973223 250.905818 
L 372.252562 252.580061 
L 375.531901 254.199225 
L 378.81124 255.751909 
L 382.090579 257.252643 
L 385.369917 258.688865 
L 388.649256 260.068245 
L 391.928595 261.389665 
L 395.207934 262.668945 
L 398.487273 263.894092 
" clip-path="url(#p0016a55082)" style="fill: none; stroke-dasharray: 1.85,0.8; stroke-dashoffset: 0; stroke: #ffb360; stroke-width: 0.5"/>
   </g>
   <g id="line2d_18">
    <path d="M 73.832727 295.488 
L 80.45833 295.488 
L 87.083933 295.488 
L 93.709536 295.487996 
L 100.335139 295.487938 
L 106.960742 295.487478 
L 113.586345 295.484486 
L 120.211948 295.468076 
L 126.837551 295.391641 
L 133.463154 295.086964 
L 140.088757 294.011482 
L 146.71436 290.697641 
L 153.339963 282.200714 
L 159.965566 266.954793 
L 166.591169 247.599729 
L 173.216772 227.072255 
L 179.842375 207.211903 
L 186.467978 188.804136 
L 193.093581 173.365212 
L 199.719184 160.260232 
L 206.344787 150.550139 
L 212.97039 143.919079 
L 219.595993 139.909328 
L 226.221596 138.158367 
L 232.847199 138.177392 
L 239.472801 139.818619 
L 246.098404 143.75593 
L 252.724007 147.638875 
L 259.34961 153.296834 
L 265.975213 159.01276 
L 272.600816 165.130077 
L 279.226419 171.641359 
L 285.852022 178.403137 
L 292.477625 184.930725 
L 299.103228 191.373916 
L 305.728831 197.68388 
L 312.354434 203.790806 
L 318.980037 209.64135 
L 325.60564 215.229589 
L 332.231243 220.587528 
L 338.856846 225.616537 
L 345.482449 230.342732 
L 352.108052 234.78865 
L 358.733655 238.933496 
L 365.359258 242.868938 
L 371.984861 246.498675 
L 378.610464 249.878284 
L 385.236067 253.044699 
L 391.86167 255.982294 
L 398.487273 258.704244 
" clip-path="url(#p0016a55082)" style="fill: none; stroke-dasharray: 1.85,0.8; stroke-dashoffset: 0; stroke: #ff0000; stroke-width: 0.5"/>
   </g>
   <g id="patch_3">
    <path d="M 57.6 307.584 
L 57.6 41.472 
" style="fill: none; stroke: #000000; stroke-width: 0.8; stroke-linejoin: miter; stroke-linecap: square"/>
   </g>
   <g id="patch_4">
    <path d="M 414.72 307.584 
L 414.72 41.472 
" style="fill: none; stroke: #000000; stroke-width: 0.8; stroke-linejoin: miter; stroke-linecap: square"/>
   </g>
   <g id="patch_5">
    <path d="M 57.6 307.584 
L 414.72 307.584 
" style="fill: none; stroke: #000000; stroke-width: 0.8; stroke-linejoin: miter; stroke-linecap: square"/>
   </g>
   <g id="patch_6">
    <path d="M 57.6 41.472 
L 414.72 41.472 
" style="fill: none; stroke: #000000; stroke-width: 0.8; stroke-linejoin: miter; stroke-linecap: square"/>
   </g>
   <g id="text_17">
    <!-- Heating Rate ($^{\circ}C.s^{-1}$) -->
    <g transform="translate(271.872 68.0832) scale(0.12 -0.12)">
     <defs>
      <path id="DejaVuSans-48" d="M 628 4666 
L 1259 4666 
L 1259 2753 
L 3553 2753 
L 3553 4666 
L 4184 4666 
L 4184 0 
L 3553 0 
L 3553 2222 
L 1259 2222 
L 1259 0 
L 628 0 
L 628 4666 
z
" transform="scale(0.015625)"/>
      <path id="DejaVuSans-67" d="M 2906 1791 
Q 2906 2416 2648 2759 
Q 2391 3103 1925 3103 
Q 1463 3103 1205 2759 
Q 947 2416 947 1791 
Q 947 1169 1205 825 
Q 1463 481 1925 481 
Q 2391 481 2648 825 
Q 2906 1169 2906 1791 
z
M 3481 434 
Q 3481 -459 3084 -895 
Q 2688 -1331 1869 -1331 
Q 1566 -1331 1297 -1286 
Q 1028 -1241 775 -1147 
L 775 -588 
Q 1028 -725 1275 -790 
Q 1522 -856 1778 -856 
Q 2344 -856 2625 -561 
Q 2906 -266 2906 331 
L 2906 616 
Q 2728 306 2450 153 
Q 2172 0 1784 0 
Q 1141 0 747 490 
Q 353 981 353 1791 
Q 353 2603 747 3093 
Q 1141 3584 1784 3584 
Q 2172 3584 2450 3431 
Q 2728 3278 2906 2969 
L 2906 3500 
L 3481 3500 
L 3481 434 
z
" transform="scale(0.015625)"/>
      <path id="DejaVuSans-52" d="M 2841 2188 
Q 3044 2119 3236 1894 
Q 3428 1669 3622 1275 
L 4263 0 
L 3584 0 
L 2988 1197 
Q 2756 1666 2539 1819 
Q 2322 1972 1947 1972 
L 1259 1972 
L 1259 0 
L 628 0 
L 628 4666 
L 2053 4666 
Q 2853 4666 3247 4331 
Q 3641 3997 3641 3322 
Q 3641 2881 3436 2590 
Q 3231 2300 2841 2188 
z
M 1259 4147 
L 1259 2491 
L 2053 2491 
Q 2509 2491 2742 2702 
Q 2975 2913 2975 3322 
Q 2975 3731 2742 3939 
Q 2509 4147 2053 4147 
L 1259 4147 
z
" transform="scale(0.015625)"/>
      <path id="DejaVuSans-Oblique-73" d="M 3200 3397 
L 3091 2853 
Q 2863 2978 2609 3040 
Q 2356 3103 2088 3103 
Q 1634 3103 1373 2948 
Q 1113 2794 1113 2528 
Q 1113 2219 1719 2053 
Q 1766 2041 1788 2034 
L 1972 1978 
Q 2547 1819 2739 1644 
Q 2931 1469 2931 1166 
Q 2931 609 2489 259 
Q 2047 -91 1331 -91 
Q 1053 -91 747 -37 
Q 441 16 72 128 
L 184 722 
Q 500 559 806 475 
Q 1113 391 1394 391 
Q 1816 391 2080 572 
Q 2344 753 2344 1031 
Q 2344 1331 1650 1516 
L 1591 1531 
L 1394 1581 
Q 956 1697 753 1886 
Q 550 2075 550 2369 
Q 550 2928 970 3256 
Q 1391 3584 2113 3584 
Q 2397 3584 2667 3537 
Q 2938 3491 3200 3397 
z
" transform="scale(0.015625)"/>
     </defs>
     <use xlink:href="#DejaVuSans-48" transform="translate(0 0.684375)"/>
     <use xlink:href="#DejaVuSans-65" transform="translate(75.195312 0.684375)"/>
     <use xlink:href="#DejaVuSans-61" transform="translate(136.71875 0.684375)"/>
     <use xlink:href="#DejaVuSans-74" transform="translate(197.998047 0.684375)"/>
     <use xlink:href="#DejaVuSans-69" transform="translate(237.207031 0.684375)"/>
     <use xlink:href="#DejaVuSans-6e" transform="translate(264.990234 0.684375)"/>
     <use xlink:href="#DejaVuSans-67" transform="translate(328.369141 0.684375)"/>
     <use xlink:href="#DejaVuSans-20" transform="translate(391.845703 0.684375)"/>
     <use xlink:href="#DejaVuSans-52" transform="translate(423.632812 0.684375)"/>
     <use xlink:href="#DejaVuSans-61" transform="translate(493.115234 0.684375)"/>
     <use xlink:href="#DejaVuSans-74" transform="translate(554.394531 0.684375)"/>
     <use xlink:href="#DejaVuSans-65" transform="translate(593.603516 0.684375)"/>
     <use xlink:href="#DejaVuSans-20" transform="translate(655.126953 0.684375)"/>
     <use xlink:href="#DejaVuSans-28" transform="translate(686.914062 0.684375)"/>
     <use xlink:href="#DejaVuSans-2218" transform="translate(726.884766 38.965625) scale(0.7)"/>
     <use xlink:href="#DejaVuSans-Oblique-43" transform="translate(773.4375 0.684375)"/>
     <use xlink:href="#DejaVuSans-2e" transform="translate(843.261719 0.684375)"/>
     <use xlink:href="#DejaVuSans-Oblique-73" transform="translate(894.53125 0.684375)"/>
     <use xlink:href="#DejaVuSans-2212" transform="translate(951.280755 38.965625) scale(0.7)"/>
     <use xlink:href="#DejaVuSans-31" transform="translate(1009.933099 38.965625) scale(0.7)"/>
     <use xlink:href="#DejaVuSans-29" transform="translate(1057.203607 0.684375)"/>
    </g>
   </g>
   <g id="legend_1">
    <g id="patch_7">
     <path d="M 314.584 149.473825 
L 362.487125 149.473825 
Q 364.487125 149.473825 364.487125 147.473825 
L 364.487125 75.0832 
Q 364.487125 73.0832 362.487125 73.0832 
L 314.584 73.0832 
Q 312.584 73.0832 312.584 75.0832 
L 312.584 147.473825 
Q 312.584 149.473825 314.584 149.473825 
z
" style="fill: #ffffff; opacity: 0.8; stroke: #cccccc; stroke-linejoin: miter"/>
    </g>
    <g id="line2d_19">
     <path d="M 316.584 81.181637 
L 326.584 81.181637 
L 336.584 81.181637 
" style="fill: none; stroke-dasharray: 1.85,0.8; stroke-dashoffset: 0; stroke: #8000ff; stroke-width: 0.5"/>
    </g>
    <g id="text_18">
     <!-- 0.1 -->
     <g transform="translate(344.584 84.681637) scale(0.1 -0.1)">
      <use xlink:href="#DejaVuSans-30"/>
      <use xlink:href="#DejaVuSans-2e" transform="translate(63.623047 0)"/>
      <use xlink:href="#DejaVuSans-31" transform="translate(95.410156 0)"/>
     </g>
    </g>
    <g id="line2d_20">
     <path d="M 316.584 95.859762 
L 326.584 95.859762 
L 336.584 95.859762 
" style="fill: none; stroke-dasharray: 1.85,0.8; stroke-dashoffset: 0; stroke: #00b5eb; stroke-width: 0.5"/>
    </g>
    <g id="text_19">
     <!-- 1 -->
     <g transform="translate(344.584 99.359762) scale(0.1 -0.1)">
      <use xlink:href="#DejaVuSans-31"/>
     </g>
    </g>
    <g id="line2d_21">
     <path d="M 316.584 110.537887 
L 326.584 110.537887 
L 336.584 110.537887 
" style="fill: none; stroke-dasharray: 1.85,0.8; stroke-dashoffset: 0; stroke: #80ffb4; stroke-width: 0.5"/>
    </g>
    <g id="text_20">
     <!-- 5 -->
     <g transform="translate(344.584 114.037887) scale(0.1 -0.1)">
      <use xlink:href="#DejaVuSans-35"/>
     </g>
    </g>
    <g id="line2d_22">
     <path d="M 316.584 125.216012 
L 326.584 125.216012 
L 336.584 125.216012 
" style="fill: none; stroke-dasharray: 1.85,0.8; stroke-dashoffset: 0; stroke: #ffb360; stroke-width: 0.5"/>
    </g>
    <g id="text_21">
     <!-- 10 -->
     <g transform="translate(344.584 128.716012) scale(0.1 -0.1)">
      <use xlink:href="#DejaVuSans-31"/>
      <use xlink:href="#DejaVuSans-30" transform="translate(63.623047 0)"/>
     </g>
    </g>
    <g id="line2d_23">
     <path d="M 316.584 139.894137 
L 326.584 139.894137 
L 336.584 139.894137 
" style="fill: none; stroke-dasharray: 1.85,0.8; stroke-dashoffset: 0; stroke: #ff0000; stroke-width: 0.5"/>
    </g>
    <g id="text_22">
     <!-- 20 -->
     <g transform="translate(344.584 143.394137) scale(0.1 -0.1)">
      <use xlink:href="#DejaVuSans-32"/>
      <use xlink:href="#DejaVuSans-30" transform="translate(63.623047 0)"/>
     </g>
    </g>
   </g>
  </g>
 </g>
 <defs>
  <clipPath id="p0016a55082">
   <rect x="57.6" y="41.472" width="357.12" height="266.112"/>
  </clipPath>
 </defs>
</svg>
