<?xml version="1.0" encoding="utf-8" standalone="no"?>
<!DOCTYPE svg PUBLIC "-//W3C//DTD SVG 1.1//EN"
  "http://www.w3.org/Graphics/SVG/1.1/DTD/svg11.dtd">
<svg xmlns:xlink="http://www.w3.org/1999/xlink" width="460.8pt" height="345.6pt" viewBox="0 0 460.8 345.6" xmlns="http://www.w3.org/2000/svg" version="1.1">
 <metadata>
  <rdf:RDF xmlns:dc="http://purl.org/dc/elements/1.1/" xmlns:cc="http://creativecommons.org/ns#" xmlns:rdf="http://www.w3.org/1999/02/22-rdf-syntax-ns#">
   <cc:Work>
    <dc:type rdf:resource="http://purl.org/dc/dcmitype/StillImage"/>
    <dc:date>2025-03-25T11:25:31.578203</dc:date>
    <dc:format>image/svg+xml</dc:format>
    <dc:creator>
     <cc:Agent>
      <dc:title>Matplotlib v3.10.0, https://matplotlib.org/</dc:title>
     </cc:Agent>
    </dc:creator>
   </cc:Work>
  </rdf:RDF>
 </metadata>
 <defs>
  <style type="text/css">*{stroke-linejoin: round; stroke-linecap: butt}</style>
 </defs>
 <g id="figure_1">
  <g id="patch_1">
   <path d="M 0 345.6 
L 460.8 345.6 
L 460.8 0 
L 0 0 
z
" style="fill: #ffffff"/>
  </g>
  <g id="axes_1">
   <g id="patch_2">
    <path d="M 57.6 307.584 
L 414.72 307.584 
L 414.72 41.472 
L 57.6 41.472 
z
" style="fill: #ffffff"/>
   </g>
   <g id="matplotlib.axis_1">
    <g id="xtick_1">
     <g id="line2d_1">
      <defs>
       <path id="m88b16ad691" d="M 0 0 
L 0 3.5 
" style="stroke: #000000; stroke-width: 0.8"/>
      </defs>
      <g>
       <use xlink:href="#m88b16ad691" x="135.163099" y="307.584" style="stroke: #000000; stroke-width: 0.8"/>
      </g>
     </g>
     <g id="text_1">
      <!-- $\mathdefault{10^{12}}$ -->
      <g transform="translate(124.113099 322.182437) scale(0.1 -0.1)">
       <defs>
        <path id="DejaVuSans-31" d="M 794 531 
L 1825 531 
L 1825 4091 
L 703 3866 
L 703 4441 
L 1819 4666 
L 2450 4666 
L 2450 531 
L 3481 531 
L 3481 0 
L 794 0 
L 794 531 
z
" transform="scale(0.015625)"/>
        <path id="DejaVuSans-30" d="M 2034 4250 
Q 1547 4250 1301 3770 
Q 1056 3291 1056 2328 
Q 1056 1369 1301 889 
Q 1547 409 2034 409 
Q 2525 409 2770 889 
Q 3016 1369 3016 2328 
Q 3016 3291 2770 3770 
Q 2525 4250 2034 4250 
z
M 2034 4750 
Q 2819 4750 3233 4129 
Q 3647 3509 3647 2328 
Q 3647 1150 3233 529 
Q 2819 -91 2034 -91 
Q 1250 -91 836 529 
Q 422 1150 422 2328 
Q 422 3509 836 4129 
Q 1250 4750 2034 4750 
z
" transform="scale(0.015625)"/>
        <path id="DejaVuSans-32" d="M 1228 531 
L 3431 531 
L 3431 0 
L 469 0 
L 469 531 
Q 828 903 1448 1529 
Q 2069 2156 2228 2338 
Q 2531 2678 2651 2914 
Q 2772 3150 2772 3378 
Q 2772 3750 2511 3984 
Q 2250 4219 1831 4219 
Q 1534 4219 1204 4116 
Q 875 4013 500 3803 
L 500 4441 
Q 881 4594 1212 4672 
Q 1544 4750 1819 4750 
Q 2544 4750 2975 4387 
Q 3406 4025 3406 3419 
Q 3406 3131 3298 2873 
Q 3191 2616 2906 2266 
Q 2828 2175 2409 1742 
Q 1991 1309 1228 531 
z
" transform="scale(0.015625)"/>
       </defs>
       <use xlink:href="#DejaVuSans-31" transform="translate(0 0.765625)"/>
       <use xlink:href="#DejaVuSans-30" transform="translate(63.623047 0.765625)"/>
       <use xlink:href="#DejaVuSans-31" transform="translate(128.203125 39.046875) scale(0.7)"/>
       <use xlink:href="#DejaVuSans-32" transform="translate(172.739258 39.046875) scale(0.7)"/>
      </g>
     </g>
    </g>
    <g id="xtick_2">
     <g id="line2d_2">
      <g>
       <use xlink:href="#m88b16ad691" x="259.452271" y="307.584" style="stroke: #000000; stroke-width: 0.8"/>
      </g>
     </g>
     <g id="text_2">
      <!-- $\mathdefault{10^{13}}$ -->
      <g transform="translate(248.402271 322.182437) scale(0.1 -0.1)">
       <defs>
        <path id="DejaVuSans-33" d="M 2597 2516 
Q 3050 2419 3304 2112 
Q 3559 1806 3559 1356 
Q 3559 666 3084 287 
Q 2609 -91 1734 -91 
Q 1441 -91 1130 -33 
Q 819 25 488 141 
L 488 750 
Q 750 597 1062 519 
Q 1375 441 1716 441 
Q 2309 441 2620 675 
Q 2931 909 2931 1356 
Q 2931 1769 2642 2001 
Q 2353 2234 1838 2234 
L 1294 2234 
L 1294 2753 
L 1863 2753 
Q 2328 2753 2575 2939 
Q 2822 3125 2822 3475 
Q 2822 3834 2567 4026 
Q 2313 4219 1838 4219 
Q 1578 4219 1281 4162 
Q 984 4106 628 3988 
L 628 4550 
Q 988 4650 1302 4700 
Q 1616 4750 1894 4750 
Q 2613 4750 3031 4423 
Q 3450 4097 3450 3541 
Q 3450 3153 3228 2886 
Q 3006 2619 2597 2516 
z
" transform="scale(0.015625)"/>
       </defs>
       <use xlink:href="#DejaVuSans-31" transform="translate(0 0.765625)"/>
       <use xlink:href="#DejaVuSans-30" transform="translate(63.623047 0.765625)"/>
       <use xlink:href="#DejaVuSans-31" transform="translate(128.203125 39.046875) scale(0.7)"/>
       <use xlink:href="#DejaVuSans-33" transform="translate(172.739258 39.046875) scale(0.7)"/>
      </g>
     </g>
    </g>
    <g id="xtick_3">
     <g id="line2d_3">
      <g>
       <use xlink:href="#m88b16ad691" x="383.741443" y="307.584" style="stroke: #000000; stroke-width: 0.8"/>
      </g>
     </g>
     <g id="text_3">
      <!-- $\mathdefault{10^{14}}$ -->
      <g transform="translate(372.691443 322.182437) scale(0.1 -0.1)">
       <defs>
        <path id="DejaVuSans-34" d="M 2419 4116 
L 825 1625 
L 2419 1625 
L 2419 4116 
z
M 2253 4666 
L 3047 4666 
L 3047 1625 
L 3713 1625 
L 3713 1100 
L 3047 1100 
L 3047 0 
L 2419 0 
L 2419 1100 
L 313 1100 
L 313 1709 
L 2253 4666 
z
" transform="scale(0.015625)"/>
       </defs>
       <use xlink:href="#DejaVuSans-31" transform="translate(0 0.684375)"/>
       <use xlink:href="#DejaVuSans-30" transform="translate(63.623047 0.684375)"/>
       <use xlink:href="#DejaVuSans-31" transform="translate(128.203125 38.965625) scale(0.7)"/>
       <use xlink:href="#DejaVuSans-34" transform="translate(172.739258 38.965625) scale(0.7)"/>
      </g>
     </g>
    </g>
    <g id="xtick_4">
     <g id="line2d_4">
      <defs>
       <path id="mfaa1457a0c" d="M 0 0 
L 0 2 
" style="stroke: #000000; stroke-width: 0.6"/>
      </defs>
      <g>
       <use xlink:href="#mfaa1457a0c" x="70.174933" y="307.584" style="stroke: #000000; stroke-width: 0.6"/>
      </g>
     </g>
    </g>
    <g id="xtick_5">
     <g id="line2d_5">
      <g>
       <use xlink:href="#mfaa1457a0c" x="85.703465" y="307.584" style="stroke: #000000; stroke-width: 0.6"/>
      </g>
     </g>
    </g>
    <g id="xtick_6">
     <g id="line2d_6">
      <g>
       <use xlink:href="#mfaa1457a0c" x="97.748331" y="307.584" style="stroke: #000000; stroke-width: 0.6"/>
      </g>
     </g>
    </g>
    <g id="xtick_7">
     <g id="line2d_7">
      <g>
       <use xlink:href="#mfaa1457a0c" x="107.589702" y="307.584" style="stroke: #000000; stroke-width: 0.6"/>
      </g>
     </g>
    </g>
    <g id="xtick_8">
     <g id="line2d_8">
      <g>
       <use xlink:href="#mfaa1457a0c" x="115.910463" y="307.584" style="stroke: #000000; stroke-width: 0.6"/>
      </g>
     </g>
    </g>
    <g id="xtick_9">
     <g id="line2d_9">
      <g>
       <use xlink:href="#mfaa1457a0c" x="123.118234" y="307.584" style="stroke: #000000; stroke-width: 0.6"/>
      </g>
     </g>
    </g>
    <g id="xtick_10">
     <g id="line2d_10">
      <g>
       <use xlink:href="#mfaa1457a0c" x="129.475939" y="307.584" style="stroke: #000000; stroke-width: 0.6"/>
      </g>
     </g>
    </g>
    <g id="xtick_11">
     <g id="line2d_11">
      <g>
       <use xlink:href="#mfaa1457a0c" x="172.577868" y="307.584" style="stroke: #000000; stroke-width: 0.6"/>
      </g>
     </g>
    </g>
    <g id="xtick_12">
     <g id="line2d_12">
      <g>
       <use xlink:href="#mfaa1457a0c" x="194.464105" y="307.584" style="stroke: #000000; stroke-width: 0.6"/>
      </g>
     </g>
    </g>
    <g id="xtick_13">
     <g id="line2d_13">
      <g>
       <use xlink:href="#mfaa1457a0c" x="209.992637" y="307.584" style="stroke: #000000; stroke-width: 0.6"/>
      </g>
     </g>
    </g>
    <g id="xtick_14">
     <g id="line2d_14">
      <g>
       <use xlink:href="#mfaa1457a0c" x="222.037503" y="307.584" style="stroke: #000000; stroke-width: 0.6"/>
      </g>
     </g>
    </g>
    <g id="xtick_15">
     <g id="line2d_15">
      <g>
       <use xlink:href="#mfaa1457a0c" x="231.878874" y="307.584" style="stroke: #000000; stroke-width: 0.6"/>
      </g>
     </g>
    </g>
    <g id="xtick_16">
     <g id="line2d_16">
      <g>
       <use xlink:href="#mfaa1457a0c" x="240.199635" y="307.584" style="stroke: #000000; stroke-width: 0.6"/>
      </g>
     </g>
    </g>
    <g id="xtick_17">
     <g id="line2d_17">
      <g>
       <use xlink:href="#mfaa1457a0c" x="247.407406" y="307.584" style="stroke: #000000; stroke-width: 0.6"/>
      </g>
     </g>
    </g>
    <g id="xtick_18">
     <g id="line2d_18">
      <g>
       <use xlink:href="#mfaa1457a0c" x="253.765111" y="307.584" style="stroke: #000000; stroke-width: 0.6"/>
      </g>
     </g>
    </g>
    <g id="xtick_19">
     <g id="line2d_19">
      <g>
       <use xlink:href="#mfaa1457a0c" x="296.86704" y="307.584" style="stroke: #000000; stroke-width: 0.6"/>
      </g>
     </g>
    </g>
    <g id="xtick_20">
     <g id="line2d_20">
      <g>
       <use xlink:href="#mfaa1457a0c" x="318.753277" y="307.584" style="stroke: #000000; stroke-width: 0.6"/>
      </g>
     </g>
    </g>
    <g id="xtick_21">
     <g id="line2d_21">
      <g>
       <use xlink:href="#mfaa1457a0c" x="334.281809" y="307.584" style="stroke: #000000; stroke-width: 0.6"/>
      </g>
     </g>
    </g>
    <g id="xtick_22">
     <g id="line2d_22">
      <g>
       <use xlink:href="#mfaa1457a0c" x="346.326674" y="307.584" style="stroke: #000000; stroke-width: 0.6"/>
      </g>
     </g>
    </g>
    <g id="xtick_23">
     <g id="line2d_23">
      <g>
       <use xlink:href="#mfaa1457a0c" x="356.168046" y="307.584" style="stroke: #000000; stroke-width: 0.6"/>
      </g>
     </g>
    </g>
    <g id="xtick_24">
     <g id="line2d_24">
      <g>
       <use xlink:href="#mfaa1457a0c" x="364.488807" y="307.584" style="stroke: #000000; stroke-width: 0.6"/>
      </g>
     </g>
    </g>
    <g id="xtick_25">
     <g id="line2d_25">
      <g>
       <use xlink:href="#mfaa1457a0c" x="371.696578" y="307.584" style="stroke: #000000; stroke-width: 0.6"/>
      </g>
     </g>
    </g>
    <g id="xtick_26">
     <g id="line2d_26">
      <g>
       <use xlink:href="#mfaa1457a0c" x="378.054283" y="307.584" style="stroke: #000000; stroke-width: 0.6"/>
      </g>
     </g>
    </g>
    <g id="text_4">
     <!-- Log time  -->
     <g transform="translate(212.75375 335.860562) scale(0.1 -0.1)">
      <defs>
       <path id="DejaVuSans-4c" d="M 628 4666 
L 1259 4666 
L 1259 531 
L 3531 531 
L 3531 0 
L 628 0 
L 628 4666 
z
" transform="scale(0.015625)"/>
       <path id="DejaVuSans-6f" d="M 1959 3097 
Q 1497 3097 1228 2736 
Q 959 2375 959 1747 
Q 959 1119 1226 758 
Q 1494 397 1959 397 
Q 2419 397 2687 759 
Q 2956 1122 2956 1747 
Q 2956 2369 2687 2733 
Q 2419 3097 1959 3097 
z
M 1959 3584 
Q 2709 3584 3137 3096 
Q 3566 2609 3566 1747 
Q 3566 888 3137 398 
Q 2709 -91 1959 -91 
Q 1206 -91 779 398 
Q 353 888 353 1747 
Q 353 2609 779 3096 
Q 1206 3584 1959 3584 
z
" transform="scale(0.015625)"/>
       <path id="DejaVuSans-67" d="M 2906 1791 
Q 2906 2416 2648 2759 
Q 2391 3103 1925 3103 
Q 1463 3103 1205 2759 
Q 947 2416 947 1791 
Q 947 1169 1205 825 
Q 1463 481 1925 481 
Q 2391 481 2648 825 
Q 2906 1169 2906 1791 
z
M 3481 434 
Q 3481 -459 3084 -895 
Q 2688 -1331 1869 -1331 
Q 1566 -1331 1297 -1286 
Q 1028 -1241 775 -1147 
L 775 -588 
Q 1028 -725 1275 -790 
Q 1522 -856 1778 -856 
Q 2344 -856 2625 -561 
Q 2906 -266 2906 331 
L 2906 616 
Q 2728 306 2450 153 
Q 2172 0 1784 0 
Q 1141 0 747 490 
Q 353 981 353 1791 
Q 353 2603 747 3093 
Q 1141 3584 1784 3584 
Q 2172 3584 2450 3431 
Q 2728 3278 2906 2969 
L 2906 3500 
L 3481 3500 
L 3481 434 
z
" transform="scale(0.015625)"/>
       <path id="DejaVuSans-20" transform="scale(0.015625)"/>
       <path id="DejaVuSans-74" d="M 1172 4494 
L 1172 3500 
L 2356 3500 
L 2356 3053 
L 1172 3053 
L 1172 1153 
Q 1172 725 1289 603 
Q 1406 481 1766 481 
L 2356 481 
L 2356 0 
L 1766 0 
Q 1100 0 847 248 
Q 594 497 594 1153 
L 594 3053 
L 172 3053 
L 172 3500 
L 594 3500 
L 594 4494 
L 1172 4494 
z
" transform="scale(0.015625)"/>
       <path id="DejaVuSans-69" d="M 603 3500 
L 1178 3500 
L 1178 0 
L 603 0 
L 603 3500 
z
M 603 4863 
L 1178 4863 
L 1178 4134 
L 603 4134 
L 603 4863 
z
" transform="scale(0.015625)"/>
       <path id="DejaVuSans-6d" d="M 3328 2828 
Q 3544 3216 3844 3400 
Q 4144 3584 4550 3584 
Q 5097 3584 5394 3201 
Q 5691 2819 5691 2113 
L 5691 0 
L 5113 0 
L 5113 2094 
Q 5113 2597 4934 2840 
Q 4756 3084 4391 3084 
Q 3944 3084 3684 2787 
Q 3425 2491 3425 1978 
L 3425 0 
L 2847 0 
L 2847 2094 
Q 2847 2600 2669 2842 
Q 2491 3084 2119 3084 
Q 1678 3084 1418 2786 
Q 1159 2488 1159 1978 
L 1159 0 
L 581 0 
L 581 3500 
L 1159 3500 
L 1159 2956 
Q 1356 3278 1631 3431 
Q 1906 3584 2284 3584 
Q 2666 3584 2933 3390 
Q 3200 3197 3328 2828 
z
" transform="scale(0.015625)"/>
       <path id="DejaVuSans-65" d="M 3597 1894 
L 3597 1613 
L 953 1613 
Q 991 1019 1311 708 
Q 1631 397 2203 397 
Q 2534 397 2845 478 
Q 3156 559 3463 722 
L 3463 178 
Q 3153 47 2828 -22 
Q 2503 -91 2169 -91 
Q 1331 -91 842 396 
Q 353 884 353 1716 
Q 353 2575 817 3079 
Q 1281 3584 2069 3584 
Q 2775 3584 3186 3129 
Q 3597 2675 3597 1894 
z
M 3022 2063 
Q 3016 2534 2758 2815 
Q 2500 3097 2075 3097 
Q 1594 3097 1305 2825 
Q 1016 2553 972 2059 
L 3022 2063 
z
" transform="scale(0.015625)"/>
      </defs>
      <use xlink:href="#DejaVuSans-4c"/>
      <use xlink:href="#DejaVuSans-6f" transform="translate(53.962891 0)"/>
      <use xlink:href="#DejaVuSans-67" transform="translate(115.144531 0)"/>
      <use xlink:href="#DejaVuSans-20" transform="translate(178.621094 0)"/>
      <use xlink:href="#DejaVuSans-74" transform="translate(210.408203 0)"/>
      <use xlink:href="#DejaVuSans-69" transform="translate(249.617188 0)"/>
      <use xlink:href="#DejaVuSans-6d" transform="translate(277.400391 0)"/>
      <use xlink:href="#DejaVuSans-65" transform="translate(374.8125 0)"/>
      <use xlink:href="#DejaVuSans-20" transform="translate(436.335938 0)"/>
     </g>
    </g>
   </g>
   <g id="matplotlib.axis_2">
    <g id="ytick_1">
     <g id="line2d_27">
      <defs>
       <path id="m96045ccb60" d="M 0 0 
L -3.5 0 
" style="stroke: #000000; stroke-width: 0.8"/>
      </defs>
      <g>
       <use xlink:href="#m96045ccb60" x="57.6" y="307.584" style="stroke: #000000; stroke-width: 0.8"/>
      </g>
     </g>
     <g id="text_5">
      <!-- 0.0 -->
      <g transform="translate(34.696875 311.383219) scale(0.1 -0.1)">
       <defs>
        <path id="DejaVuSans-2e" d="M 684 794 
L 1344 794 
L 1344 0 
L 684 0 
L 684 794 
z
" transform="scale(0.015625)"/>
       </defs>
       <use xlink:href="#DejaVuSans-30"/>
       <use xlink:href="#DejaVuSans-2e" transform="translate(63.623047 0)"/>
       <use xlink:href="#DejaVuSans-30" transform="translate(95.410156 0)"/>
      </g>
     </g>
    </g>
    <g id="ytick_2">
     <g id="line2d_28">
      <g>
       <use xlink:href="#m96045ccb60" x="57.6" y="254.3616" style="stroke: #000000; stroke-width: 0.8"/>
      </g>
     </g>
     <g id="text_6">
      <!-- 0.2 -->
      <g transform="translate(34.696875 258.160819) scale(0.1 -0.1)">
       <use xlink:href="#DejaVuSans-30"/>
       <use xlink:href="#DejaVuSans-2e" transform="translate(63.623047 0)"/>
       <use xlink:href="#DejaVuSans-32" transform="translate(95.410156 0)"/>
      </g>
     </g>
    </g>
    <g id="ytick_3">
     <g id="line2d_29">
      <g>
       <use xlink:href="#m96045ccb60" x="57.6" y="201.1392" style="stroke: #000000; stroke-width: 0.8"/>
      </g>
     </g>
     <g id="text_7">
      <!-- 0.4 -->
      <g transform="translate(34.696875 204.938419) scale(0.1 -0.1)">
       <use xlink:href="#DejaVuSans-30"/>
       <use xlink:href="#DejaVuSans-2e" transform="translate(63.623047 0)"/>
       <use xlink:href="#DejaVuSans-34" transform="translate(95.410156 0)"/>
      </g>
     </g>
    </g>
    <g id="ytick_4">
     <g id="line2d_30">
      <g>
       <use xlink:href="#m96045ccb60" x="57.6" y="147.9168" style="stroke: #000000; stroke-width: 0.8"/>
      </g>
     </g>
     <g id="text_8">
      <!-- 0.6 -->
      <g transform="translate(34.696875 151.716019) scale(0.1 -0.1)">
       <defs>
        <path id="DejaVuSans-36" d="M 2113 2584 
Q 1688 2584 1439 2293 
Q 1191 2003 1191 1497 
Q 1191 994 1439 701 
Q 1688 409 2113 409 
Q 2538 409 2786 701 
Q 3034 994 3034 1497 
Q 3034 2003 2786 2293 
Q 2538 2584 2113 2584 
z
M 3366 4563 
L 3366 3988 
Q 3128 4100 2886 4159 
Q 2644 4219 2406 4219 
Q 1781 4219 1451 3797 
Q 1122 3375 1075 2522 
Q 1259 2794 1537 2939 
Q 1816 3084 2150 3084 
Q 2853 3084 3261 2657 
Q 3669 2231 3669 1497 
Q 3669 778 3244 343 
Q 2819 -91 2113 -91 
Q 1303 -91 875 529 
Q 447 1150 447 2328 
Q 447 3434 972 4092 
Q 1497 4750 2381 4750 
Q 2619 4750 2861 4703 
Q 3103 4656 3366 4563 
z
" transform="scale(0.015625)"/>
       </defs>
       <use xlink:href="#DejaVuSans-30"/>
       <use xlink:href="#DejaVuSans-2e" transform="translate(63.623047 0)"/>
       <use xlink:href="#DejaVuSans-36" transform="translate(95.410156 0)"/>
      </g>
     </g>
    </g>
    <g id="ytick_5">
     <g id="line2d_31">
      <g>
       <use xlink:href="#m96045ccb60" x="57.6" y="94.6944" style="stroke: #000000; stroke-width: 0.8"/>
      </g>
     </g>
     <g id="text_9">
      <!-- 0.8 -->
      <g transform="translate(34.696875 98.493619) scale(0.1 -0.1)">
       <defs>
        <path id="DejaVuSans-38" d="M 2034 2216 
Q 1584 2216 1326 1975 
Q 1069 1734 1069 1313 
Q 1069 891 1326 650 
Q 1584 409 2034 409 
Q 2484 409 2743 651 
Q 3003 894 3003 1313 
Q 3003 1734 2745 1975 
Q 2488 2216 2034 2216 
z
M 1403 2484 
Q 997 2584 770 2862 
Q 544 3141 544 3541 
Q 544 4100 942 4425 
Q 1341 4750 2034 4750 
Q 2731 4750 3128 4425 
Q 3525 4100 3525 3541 
Q 3525 3141 3298 2862 
Q 3072 2584 2669 2484 
Q 3125 2378 3379 2068 
Q 3634 1759 3634 1313 
Q 3634 634 3220 271 
Q 2806 -91 2034 -91 
Q 1263 -91 848 271 
Q 434 634 434 1313 
Q 434 1759 690 2068 
Q 947 2378 1403 2484 
z
M 1172 3481 
Q 1172 3119 1398 2916 
Q 1625 2713 2034 2713 
Q 2441 2713 2670 2916 
Q 2900 3119 2900 3481 
Q 2900 3844 2670 4047 
Q 2441 4250 2034 4250 
Q 1625 4250 1398 4047 
Q 1172 3844 1172 3481 
z
" transform="scale(0.015625)"/>
       </defs>
       <use xlink:href="#DejaVuSans-30"/>
       <use xlink:href="#DejaVuSans-2e" transform="translate(63.623047 0)"/>
       <use xlink:href="#DejaVuSans-38" transform="translate(95.410156 0)"/>
      </g>
     </g>
    </g>
    <g id="ytick_6">
     <g id="line2d_32">
      <g>
       <use xlink:href="#m96045ccb60" x="57.6" y="41.472" style="stroke: #000000; stroke-width: 0.8"/>
      </g>
     </g>
     <g id="text_10">
      <!-- 1.0 -->
      <g transform="translate(34.696875 45.271219) scale(0.1 -0.1)">
       <use xlink:href="#DejaVuSans-31"/>
       <use xlink:href="#DejaVuSans-2e" transform="translate(63.623047 0)"/>
       <use xlink:href="#DejaVuSans-30" transform="translate(95.410156 0)"/>
      </g>
     </g>
    </g>
    <g id="text_11">
     <!-- Percent of filled traps -->
     <g transform="translate(28.617187 227.95925) rotate(-90) scale(0.1 -0.1)">
      <defs>
       <path id="DejaVuSans-50" d="M 1259 4147 
L 1259 2394 
L 2053 2394 
Q 2494 2394 2734 2622 
Q 2975 2850 2975 3272 
Q 2975 3691 2734 3919 
Q 2494 4147 2053 4147 
L 1259 4147 
z
M 628 4666 
L 2053 4666 
Q 2838 4666 3239 4311 
Q 3641 3956 3641 3272 
Q 3641 2581 3239 2228 
Q 2838 1875 2053 1875 
L 1259 1875 
L 1259 0 
L 628 0 
L 628 4666 
z
" transform="scale(0.015625)"/>
       <path id="DejaVuSans-72" d="M 2631 2963 
Q 2534 3019 2420 3045 
Q 2306 3072 2169 3072 
Q 1681 3072 1420 2755 
Q 1159 2438 1159 1844 
L 1159 0 
L 581 0 
L 581 3500 
L 1159 3500 
L 1159 2956 
Q 1341 3275 1631 3429 
Q 1922 3584 2338 3584 
Q 2397 3584 2469 3576 
Q 2541 3569 2628 3553 
L 2631 2963 
z
" transform="scale(0.015625)"/>
       <path id="DejaVuSans-63" d="M 3122 3366 
L 3122 2828 
Q 2878 2963 2633 3030 
Q 2388 3097 2138 3097 
Q 1578 3097 1268 2742 
Q 959 2388 959 1747 
Q 959 1106 1268 751 
Q 1578 397 2138 397 
Q 2388 397 2633 464 
Q 2878 531 3122 666 
L 3122 134 
Q 2881 22 2623 -34 
Q 2366 -91 2075 -91 
Q 1284 -91 818 406 
Q 353 903 353 1747 
Q 353 2603 823 3093 
Q 1294 3584 2113 3584 
Q 2378 3584 2631 3529 
Q 2884 3475 3122 3366 
z
" transform="scale(0.015625)"/>
       <path id="DejaVuSans-6e" d="M 3513 2113 
L 3513 0 
L 2938 0 
L 2938 2094 
Q 2938 2591 2744 2837 
Q 2550 3084 2163 3084 
Q 1697 3084 1428 2787 
Q 1159 2491 1159 1978 
L 1159 0 
L 581 0 
L 581 3500 
L 1159 3500 
L 1159 2956 
Q 1366 3272 1645 3428 
Q 1925 3584 2291 3584 
Q 2894 3584 3203 3211 
Q 3513 2838 3513 2113 
z
" transform="scale(0.015625)"/>
       <path id="DejaVuSans-66" d="M 2375 4863 
L 2375 4384 
L 1825 4384 
Q 1516 4384 1395 4259 
Q 1275 4134 1275 3809 
L 1275 3500 
L 2222 3500 
L 2222 3053 
L 1275 3053 
L 1275 0 
L 697 0 
L 697 3053 
L 147 3053 
L 147 3500 
L 697 3500 
L 697 3744 
Q 697 4328 969 4595 
Q 1241 4863 1831 4863 
L 2375 4863 
z
" transform="scale(0.015625)"/>
       <path id="DejaVuSans-6c" d="M 603 4863 
L 1178 4863 
L 1178 0 
L 603 0 
L 603 4863 
z
" transform="scale(0.015625)"/>
       <path id="DejaVuSans-64" d="M 2906 2969 
L 2906 4863 
L 3481 4863 
L 3481 0 
L 2906 0 
L 2906 525 
Q 2725 213 2448 61 
Q 2172 -91 1784 -91 
Q 1150 -91 751 415 
Q 353 922 353 1747 
Q 353 2572 751 3078 
Q 1150 3584 1784 3584 
Q 2172 3584 2448 3432 
Q 2725 3281 2906 2969 
z
M 947 1747 
Q 947 1113 1208 752 
Q 1469 391 1925 391 
Q 2381 391 2643 752 
Q 2906 1113 2906 1747 
Q 2906 2381 2643 2742 
Q 2381 3103 1925 3103 
Q 1469 3103 1208 2742 
Q 947 2381 947 1747 
z
" transform="scale(0.015625)"/>
       <path id="DejaVuSans-61" d="M 2194 1759 
Q 1497 1759 1228 1600 
Q 959 1441 959 1056 
Q 959 750 1161 570 
Q 1363 391 1709 391 
Q 2188 391 2477 730 
Q 2766 1069 2766 1631 
L 2766 1759 
L 2194 1759 
z
M 3341 1997 
L 3341 0 
L 2766 0 
L 2766 531 
Q 2569 213 2275 61 
Q 1981 -91 1556 -91 
Q 1019 -91 701 211 
Q 384 513 384 1019 
Q 384 1609 779 1909 
Q 1175 2209 1959 2209 
L 2766 2209 
L 2766 2266 
Q 2766 2663 2505 2880 
Q 2244 3097 1772 3097 
Q 1472 3097 1187 3025 
Q 903 2953 641 2809 
L 641 3341 
Q 956 3463 1253 3523 
Q 1550 3584 1831 3584 
Q 2591 3584 2966 3190 
Q 3341 2797 3341 1997 
z
" transform="scale(0.015625)"/>
       <path id="DejaVuSans-70" d="M 1159 525 
L 1159 -1331 
L 581 -1331 
L 581 3500 
L 1159 3500 
L 1159 2969 
Q 1341 3281 1617 3432 
Q 1894 3584 2278 3584 
Q 2916 3584 3314 3078 
Q 3713 2572 3713 1747 
Q 3713 922 3314 415 
Q 2916 -91 2278 -91 
Q 1894 -91 1617 61 
Q 1341 213 1159 525 
z
M 3116 1747 
Q 3116 2381 2855 2742 
Q 2594 3103 2138 3103 
Q 1681 3103 1420 2742 
Q 1159 2381 1159 1747 
Q 1159 1113 1420 752 
Q 1681 391 2138 391 
Q 2594 391 2855 752 
Q 3116 1113 3116 1747 
z
" transform="scale(0.015625)"/>
       <path id="DejaVuSans-73" d="M 2834 3397 
L 2834 2853 
Q 2591 2978 2328 3040 
Q 2066 3103 1784 3103 
Q 1356 3103 1142 2972 
Q 928 2841 928 2578 
Q 928 2378 1081 2264 
Q 1234 2150 1697 2047 
L 1894 2003 
Q 2506 1872 2764 1633 
Q 3022 1394 3022 966 
Q 3022 478 2636 193 
Q 2250 -91 1575 -91 
Q 1294 -91 989 -36 
Q 684 19 347 128 
L 347 722 
Q 666 556 975 473 
Q 1284 391 1588 391 
Q 1994 391 2212 530 
Q 2431 669 2431 922 
Q 2431 1156 2273 1281 
Q 2116 1406 1581 1522 
L 1381 1569 
Q 847 1681 609 1914 
Q 372 2147 372 2553 
Q 372 3047 722 3315 
Q 1072 3584 1716 3584 
Q 2034 3584 2315 3537 
Q 2597 3491 2834 3397 
z
" transform="scale(0.015625)"/>
      </defs>
      <use xlink:href="#DejaVuSans-50"/>
      <use xlink:href="#DejaVuSans-65" transform="translate(56.677734 0)"/>
      <use xlink:href="#DejaVuSans-72" transform="translate(118.201172 0)"/>
      <use xlink:href="#DejaVuSans-63" transform="translate(157.064453 0)"/>
      <use xlink:href="#DejaVuSans-65" transform="translate(212.044922 0)"/>
      <use xlink:href="#DejaVuSans-6e" transform="translate(273.568359 0)"/>
      <use xlink:href="#DejaVuSans-74" transform="translate(336.947266 0)"/>
      <use xlink:href="#DejaVuSans-20" transform="translate(376.15625 0)"/>
      <use xlink:href="#DejaVuSans-6f" transform="translate(407.943359 0)"/>
      <use xlink:href="#DejaVuSans-66" transform="translate(469.125 0)"/>
      <use xlink:href="#DejaVuSans-20" transform="translate(504.330078 0)"/>
      <use xlink:href="#DejaVuSans-66" transform="translate(536.117188 0)"/>
      <use xlink:href="#DejaVuSans-69" transform="translate(571.322266 0)"/>
      <use xlink:href="#DejaVuSans-6c" transform="translate(599.105469 0)"/>
      <use xlink:href="#DejaVuSans-6c" transform="translate(626.888672 0)"/>
      <use xlink:href="#DejaVuSans-65" transform="translate(654.671875 0)"/>
      <use xlink:href="#DejaVuSans-64" transform="translate(716.195312 0)"/>
      <use xlink:href="#DejaVuSans-20" transform="translate(779.671875 0)"/>
      <use xlink:href="#DejaVuSans-74" transform="translate(811.458984 0)"/>
      <use xlink:href="#DejaVuSans-72" transform="translate(850.667969 0)"/>
      <use xlink:href="#DejaVuSans-61" transform="translate(891.78125 0)"/>
      <use xlink:href="#DejaVuSans-70" transform="translate(953.060547 0)"/>
      <use xlink:href="#DejaVuSans-73" transform="translate(1016.537109 0)"/>
     </g>
    </g>
   </g>
   <g id="line2d_33">
    <path d="M 73.832727 300.377687 
L 82.444447 300.090286 
L 83.976427 299.781596 
L 83.976427 299.472906 
L 85.284853 299.164216 
L 85.284853 298.866171 
L 94.990008 298.27008 
L 95.613561 297.972035 
L 99.131307 297.375944 
L 105.851756 297.088543 
L 105.851756 296.811786 
L 106.216966 296.236984 
L 106.216966 295.949583 
L 110.265821 295.662182 
L 110.265821 295.374781 
L 111.871384 295.108669 
L 111.925231 294.842557 
L 112.868636 294.576445 
L 116.243061 294.310333 
L 116.601705 294.022932 
L 116.601705 293.735532 
L 121.3389 293.171374 
L 122.229118 292.894618 
L 124.726625 292.617861 
L 127.418383 292.02177 
L 127.458685 291.063767 
L 131.119865 290.478321 
L 138.996705 288.051379 
L 138.996705 287.7214 
L 139.216009 287.391421 
L 139.689612 287.061443 
L 142.946733 286.092795 
L 147.235182 285.762816 
L 147.235182 285.443482 
L 147.687634 285.124147 
L 150.039948 284.804813 
L 150.098151 284.485478 
L 150.271767 284.187433 
L 151.411163 283.857454 
L 152.684175 283.197496 
L 152.684175 282.867517 
L 156.112847 282.250138 
L 156.616381 281.930803 
L 158.493139 281.611469 
L 158.92503 281.292134 
L 158.92503 280.9728 
L 159.474978 280.004152 
L 159.57116 279.674173 
L 160.830345 279.035505 
L 161.799269 278.726815 
L 161.799269 278.418125 
L 162.296469 278.120079 
L 163.756166 277.822034 
L 164.337519 277.204654 
L 165.386374 276.917253 
L 165.491807 276.342451 
L 165.924649 276.05505 
L 167.062228 275.767649 
L 167.062228 275.501537 
L 167.435645 275.214136 
L 167.435645 274.93738 
L 168.399366 274.660623 
L 170.337619 274.405156 
L 171.853676 273.894221 
L 171.858268 273.617464 
L 171.98459 273.340708 
L 172.37861 273.063951 
L 172.37861 272.787195 
L 172.93031 272.531727 
L 173.204198 271.488568 
L 173.84529 270.711521 
L 173.923883 269.955763 
L 174.26028 269.700296 
L 174.350901 268.912604 
L 174.742705 268.657137 
L 174.742705 268.391025 
L 175.15924 268.124913 
L 175.176159 267.582044 
L 176.637635 266.64533 
L 176.652901 266.155684 
L 176.927231 265.910861 
L 177.846574 265.431859 
L 178.065687 265.197681 
L 178.173922 264.708035 
L 178.252272 264.473856 
L 178.952551 264.218388 
L 178.952551 263.973565 
L 179.478236 263.739387 
L 179.482554 263.079429 
L 180.063991 262.86654 
L 180.161535 262.419471 
L 180.258903 262.185293 
L 180.707887 261.716936 
L 180.707887 261.504046 
L 180.869363 261.291156 
L 180.869363 261.099556 
L 181.998969 260.30122 
L 181.998969 260.098975 
L 182.917683 259.289994 
L 183.818317 258.949371 
L 183.818317 258.768415 
L 184.149521 258.438436 
L 184.232717 257.842345 
L 185.249973 257.288832 
L 185.249973 257.139809 
L 186.299007 257.012076 
L 186.408859 256.437274 
L 186.789715 255.234447 
L 186.977917 255.064136 
L 186.977917 254.904468 
L 187.211711 254.744801 
L 187.526804 253.659064 
L 187.682176 253.318441 
L 187.975489 252.754284 
L 188.462783 252.562683 
L 188.597592 251.998525 
L 190.807412 251.657902 
L 190.807412 251.508879 
L 191.138616 251.338568 
L 192.772834 250.806344 
L 192.948581 250.614743 
L 192.948581 250.412498 
L 193.6187 250.210253 
L 193.831684 250.008008 
L 194.275101 249.773829 
L 194.399663 249.539651 
L 194.399663 249.294828 
L 195.231554 249.050004 
L 195.289479 248.028134 
L 196.201245 247.762022 
L 196.315906 247.49591 
L 197.037589 246.974331 
L 197.314002 246.47404 
L 197.398854 245.505393 
L 197.745843 245.026391 
L 198.957784 244.568678 
L 199.433522 243.887432 
L 199.754728 242.993295 
L 200.26526 242.258826 
L 200.352083 241.779825 
L 201.021441 241.311468 
L 201.021441 241.087933 
L 201.439211 240.853755 
L 201.595454 239.906396 
L 202.009809 239.171927 
L 202.15841 238.171346 
L 203.038403 237.671055 
L 203.192566 237.436877 
L 203.65424 236.989809 
L 203.806421 236.787564 
L 203.806421 236.564029 
L 204.076443 235.893427 
L 204.116335 235.669893 
L 205.311513 234.978002 
L 205.438022 234.126444 
L 205.836623 233.700664 
L 205.836623 233.498419 
L 206.69921 232.870395 
L 207.078117 231.986903 
L 207.097471 231.380168 
L 207.281436 231.188567 
L 207.319829 230.794721 
L 207.977905 230.422164 
L 208.204415 230.230564 
L 208.64435 230.038963 
L 208.647352 229.261916 
L 208.80691 229.070316 
L 209.304594 228.86807 
L 209.320186 228.293268 
L 209.909927 227.931356 
L 210.12934 227.218176 
L 210.796177 226.643374 
L 210.839761 225.525704 
L 211.514746 225.163791 
L 211.594896 224.759301 
L 211.6595 224.312233 
L 211.967737 224.088699 
L 211.967737 223.843876 
L 212.247903 223.343585 
L 212.46875 222.438804 
L 212.46875 222.204626 
L 212.774489 221.970447 
L 212.783613 221.736269 
L 213.049973 221.50209 
L 213.105568 221.012444 
L 213.470786 219.500928 
L 214.287896 219.24546 
L 214.31267 218.989993 
L 215.010262 218.713236 
L 215.554623 218.212946 
L 215.866044 216.956897 
L 215.899559 215.913738 
L 216.078728 215.658271 
L 216.757384 215.168625 
L 216.900132 214.902513 
L 219.185479 213.390996 
L 219.453118 212.90135 
L 219.965087 212.454282 
L 220.062226 211.826258 
L 220.11073 211.634657 
L 220.798665 211.081144 
L 221.683329 209.165138 
L 221.724643 208.760648 
L 222.211867 208.569047 
L 222.211867 208.388091 
L 222.414416 208.19649 
L 222.478373 207.227843 
L 224.469797 205.673748 
L 224.469797 205.514081 
L 224.721581 205.34377 
L 224.721581 205.162813 
L 225.208234 204.481567 
L 225.353921 204.066432 
L 227.970486 203.406474 
L 227.973364 203.257452 
L 228.655965 202.970051 
L 228.963345 202.554916 
L 229.120436 202.278159 
L 229.670594 201.533046 
L 229.680667 200.809221 
L 230.645474 200.404731 
L 230.745602 199.563817 
L 231.569037 199.212549 
L 232.425173 199.09546 
L 232.464423 198.701614 
L 233.193134 198.148101 
L 233.389656 197.8607 
L 233.569571 196.870764 
L 233.569571 196.689807 
L 233.706615 196.33854 
L 233.869541 195.859538 
L 234.209644 195.369892 
L 234.2988 195.050557 
L 234.551062 194.603489 
L 234.551062 194.454467 
L 235.258817 193.986109 
L 235.300388 193.67742 
L 235.527078 193.400663 
L 235.617621 193.113262 
L 236.468939 191.814636 
L 237.341301 191.537879 
L 237.582678 191.42079 
L 237.582678 191.293056 
L 238.125257 190.792765 
L 238.151901 190.228608 
L 238.594893 189.813473 
L 238.740439 189.68574 
L 239.879739 189.270605 
L 239.879739 189.110938 
L 240.356936 188.940626 
L 241.003227 188.131645 
L 241.351012 187.812311 
L 241.487737 187.21622 
L 241.581689 186.864952 
L 241.83735 186.364662 
L 241.892345 185.811149 
L 242.351241 185.619548 
L 242.658833 185.055391 
L 242.697209 184.842501 
L 242.947708 184.640256 
L 243.204058 183.394852 
L 243.268084 183.011651 
L 243.332035 182.82005 
L 244.176649 182.41556 
L 244.177233 182.213315 
L 244.3347 182.000425 
L 244.3347 181.79818 
L 245.04034 180.96791 
L 245.257531 180.212152 
L 245.610173 179.286083 
L 247.189933 178.721925 
L 247.189933 178.328079 
L 247.546334 178.125834 
L 247.547775 177.934234 
L 247.852495 177.380721 
L 248.062339 177.040097 
L 250.060051 174.666378 
L 250.192151 173.633864 
L 250.297343 173.10164 
L 250.335253 172.707794 
L 250.534955 172.452326 
L 250.712016 171.65399 
L 251.106489 171.068544 
L 251.348779 170.74921 
L 251.556889 170.142474 
L 251.677023 169.791206 
L 252.086995 169.567672 
L 252.168269 169.20576 
L 252.451768 168.481935 
L 253.027096 168.066801 
L 253.101973 167.843267 
L 253.299439 167.736822 
L 253.395144 166.810752 
L 253.504966 166.576573 
L 253.81124 166.108216 
L 253.81124 165.874038 
L 254.480822 165.629215 
L 254.580392 164.735078 
L 255.617884 164.213499 
L 255.85977 163.447096 
L 255.963371 163.180984 
L 256.606661 162.105892 
L 256.979387 160.636954 
L 257.860059 160.10473 
L 257.860059 159.945062 
L 258.278341 159.79604 
L 258.458488 158.646436 
L 258.68818 157.188142 
L 258.966638 157.060408 
L 259.000925 156.496251 
L 259.442386 156.379162 
L 259.58398 156.134339 
L 261.48286 154.016087 
L 261.647115 153.281618 
L 263.644397 152.674883 
L 264.018739 151.844613 
L 264.50676 151.333678 
L 264.607063 151.056922 
L 264.650487 150.801454 
L 264.903896 150.556631 
L 265.006464 150.290519 
L 265.207121 149.183493 
L 265.741257 147.150397 
L 265.841993 146.650107 
L 266.060983 145.35148 
L 267.829398 143.062917 
L 267.845932 142.977761 
L 268.310861 142.775516 
L 268.430554 142.49876 
L 268.999189 141.647201 
L 269.759446 140.774354 
L 269.761099 140.604042 
L 270.608338 140.007951 
L 270.672168 139.869573 
L 271.150083 139.465083 
L 271.834335 139.103171 
L 271.837222 138.91157 
L 273.668018 138.123878 
L 273.690007 137.974856 
L 275.163943 137.570365 
L 275.325812 136.835896 
L 276.114939 136.516562 
L 276.210605 136.261094 
L 276.530308 135.963049 
L 276.88856 135.675648 
L 277.181066 135.441469 
L 277.425171 134.632489 
L 277.900775 134.08962 
L 278.130177 133.301929 
L 278.239763 132.56746 
L 278.361439 132.099103 
L 278.645545 130.92821 
L 279.827431 129.863762 
L 280.006139 129.352827 
L 280.38548 129.001559 
L 280.49002 128.458691 
L 280.980095 127.628421 
L 281.331384 126.425595 
L 281.476879 126.191416 
L 281.822691 125.776282 
L 281.921257 125.659192 
L 282.047435 125.467592 
L 282.406547 124.349921 
L 283.703402 124.137032 
L 284.137851 123.87092 
L 284.484117 123.434496 
L 284.68771 123.136451 
L 284.856187 122.987428 
L 285.012489 121.891046 
L 285.306433 121.007555 
L 285.61519 119.591839 
L 285.722909 119.368305 
L 286.328279 117.792922 
L 286.423054 117.548099 
L 286.622455 117.239409 
L 286.727156 116.270761 
L 287.060531 115.610803 
L 287.774336 115.259535 
L 288.000599 114.982779 
L 288.100007 114.737956 
L 289.629618 114.258954 
L 290.696253 113.790597 
L 291.444905 113.332884 
L 292.549751 111.832013 
L 292.738607 111.629768 
L 293.178672 110.544031 
L 293.304978 110.160829 
L 294.261058 109.532805 
L 294.415652 108.798336 
L 294.8655 108.393846 
L 294.934021 108.244823 
L 295.353182 107.606154 
L 295.474777 106.807818 
L 295.590553 106.648151 
L 297.139595 106.179794 
L 297.264763 105.221791 
L 297.492102 104.668278 
L 298.819209 103.454807 
L 298.819209 103.401585 
L 299.437827 103.018383 
L 299.53021 102.858716 
L 299.749979 102.826783 
L 300.124996 102.720338 
L 301.143057 102.017802 
L 301.426621 101.645245 
L 301.545209 101.432356 
L 301.658951 101.272689 
L 301.842765 100.644664 
L 302.14881 99.505705 
L 302.929184 98.973481 
L 303.06418 98.015478 
L 303.190849 97.312942 
L 303.363543 97.14263 
L 303.911754 96.695562 
L 304.248594 96.291072 
L 304.808218 95.247913 
L 304.949648 94.736978 
L 305.150479 94.204754 
L 305.27454 93.448996 
L 305.753703 92.927416 
L 306.134845 92.565504 
L 306.273177 92.320681 
L 306.566498 91.660723 
L 306.669266 91.171077 
L 306.997669 91.032699 
L 308.104994 90.713364 
L 308.933772 90.48983 
L 309.191887 90.117274 
L 309.367275 89.563761 
L 309.57064 88.935736 
L 309.681704 88.627046 
L 309.871372 87.541309 
L 310.388248 87.072952 
L 310.441157 86.61524 
L 311.03812 86.210749 
L 311.360768 85.210168 
L 311.588712 84.230876 
L 312.027597 83.52834 
L 312.204872 83.379318 
L 313.008366 82.900316 
L 313.299217 82.187136 
L 313.40411 81.622979 
L 313.542259 79.973084 
L 313.707383 79.100237 
L 314.347302 78.32319 
L 314.595259 78.1103 
L 314.700745 77.833544 
L 314.995359 77.61001 
L 315.106662 77.429053 
L 315.31593 77.280031 
L 316.711145 77.386476 
L 318.102391 77.471631 
L 318.102391 77.482276 
L 318.307527 77.460987 
L 318.816666 77.269386 
L 319.18726 77.375831 
L 319.287206 77.418409 
L 320.126919 77.503565 
L 321.029198 77.205519 
L 321.479892 77.013919 
L 322.241948 76.630717 
L 322.656913 76.27945 
L 322.938903 76.002693 
L 322.961317 75.683359 
L 323.621824 75.459825 
L 323.684682 75.332091 
L 323.922132 75.14049 
L 324.087459 75.04469 
L 324.304763 74.8318 
L 324.645257 74.299576 
L 327.891269 73.873797 
L 328.361998 73.660908 
L 328.472771 73.479951 
L 328.676042 72.69226 
L 328.750921 72.351636 
L 328.998157 71.606523 
L 330.260359 71.606523 
L 330.931043 71.510723 
L 331.757472 70.925276 
L 332.515796 69.658583 
L 332.891761 68.125778 
L 333.185322 67.87031 
L 334.572753 67.497754 
L 334.99827 67.806444 
L 335.078547 67.976755 
L 335.121213 67.891599 
L 335.277316 67.859666 
L 335.534954 67.785155 
L 335.534954 67.763866 
L 335.632735 67.540332 
L 335.946202 67.306153 
L 336.280578 67.008108 
L 338.439438 66.901663 
L 338.966692 66.507817 
L 339.015311 66.220416 
L 339.407674 64.485366 
L 339.612789 63.910564 
L 339.724919 63.090939 
L 339.906203 62.729027 
L 340.003398 62.505492 
L 340.785144 62.228736 
L 341.170128 62.207447 
L 343.09692 62.101002 
L 343.763091 61.83489 
L 344.245172 60.589486 
L 344.501256 60.365952 
L 344.622731 60.142418 
L 345.048812 59.855017 
L 345.10136 59.759217 
L 345.38488 59.131192 
L 346.469839 58.194478 
L 346.593483 57.853855 
L 346.950054 57.619676 
L 347.63349 57.289697 
L 347.719354 57.044874 
L 347.831054 56.885207 
L 348.179872 56.778762 
L 348.749476 56.363628 
L 349.254428 55.884626 
L 349.470593 55.831404 
L 349.744412 55.735603 
L 349.744412 55.724959 
L 349.957969 55.607869 
L 350.446125 55.842048 
L 350.591123 55.735603 
L 350.769738 55.416269 
L 350.864201 55.107579 
L 352.286338 53.979264 
L 352.333529 53.585418 
L 352.446231 52.808371 
L 352.506465 52.457103 
L 352.724429 51.765212 
L 353.190399 51.477811 
L 353.353999 49.795983 
L 354.281489 49.710828 
L 354.607174 49.817272 
L 354.742509 49.97694 
L 354.917665 49.955651 
L 354.92795 49.966295 
L 354.999895 49.891784 
L 355.128808 49.604383 
L 355.230722 49.072159 
L 355.359136 48.827336 
L 356.126546 47.975777 
L 356.82602 47.400975 
L 357.249823 47.326464 
L 359.139455 47.220019 
L 359.332957 47.00713 
L 359.78762 46.262016 
L 360.430174 46.155571 
L 360.546479 45.953326 
L 361.709144 45.729792 
L 365.744685 45.623347 
L 366.003578 45.378524 
L 366.615979 45.484969 
L 366.94254 45.729792 
L 366.954909 45.548836 
L 367.079882 45.314657 
L 368.055714 44.005386 
L 368.215746 43.739274 
L 368.535383 43.600896 
L 370.641961 43.494451 
L 370.990867 43.249628 
L 371.018747 43.292206 
L 371.340598 43.600896 
L 371.345772 43.590252 
L 372.223796 43.483807 
L 372.742625 43.11125 
L 373.264002 42.674826 
L 373.372625 41.695534 
L 373.813174 41.472 
L 398.282635 41.472 
L 398.487273 174.528 
L -1 174.544868 
L -1 174.544868 
" clip-path="url(#p75072721b9)" style="fill: none; stroke-dasharray: 1.85,0.8; stroke-dashoffset: 0; stroke: #8000ff; stroke-width: 0.5"/>
   </g>
   <g id="line2d_34">
    <path d="M 95.672916 303.044129 
L 97.078264 302.873818 
L 100.584974 302.554483 
L 100.720112 302.256438 
L 107.042203 301.958392 
L 108.979358 301.372946 
L 116.232186 300.659766 
L 116.232186 300.500099 
L 124.153637 299.999808 
L 125.538944 299.64854 
L 125.538944 299.467584 
L 133.601051 299.286628 
L 133.64327 299.116316 
L 134.846423 298.946004 
L 134.846423 298.775693 
L 134.959855 298.435069 
L 135.392938 298.254113 
L 135.723746 297.892201 
L 135.868502 297.711245 
L 135.868502 297.530289 
L 136.396967 297.359977 
L 136.396967 297.189665 
L 142.374202 296.157151 
L 142.86396 295.816527 
L 144.629493 295.646216 
L 144.915309 295.46526 
L 146.897633 295.103347 
L 147.033103 294.741435 
L 147.632439 294.560479 
L 149.013002 294.368878 
L 149.390828 293.985677 
L 149.540126 293.794076 
L 150.558227 293.61312 
L 150.640276 293.432164 
L 151.076373 293.080896 
L 151.076373 292.89994 
L 151.281605 292.708339 
L 152.791309 292.516739 
L 152.794976 292.325138 
L 153.080851 291.947259 
L 153.810798 291.76098 
L 153.871391 291.409713 
L 155.211085 290.893455 
L 156.962063 290.723144 
L 156.962063 290.563476 
L 157.678429 289.903519 
L 157.96295 289.296783 
L 158.289348 289.153083 
L 158.381483 288.865682 
L 162.45675 288.168468 
L 162.531765 287.779945 
L 162.737985 287.652211 
L 163.681592 287.524477 
L 163.711954 287.290299 
L 164.250422 287.17321 
L 164.250422 287.045476 
L 165.258218 286.790008 
L 165.498902 286.55583 
L 165.579522 286.060861 
L 167.741027 285.800072 
L 168.004361 285.667016 
L 168.004361 285.53396 
L 171.036477 285.267848 
L 171.036477 285.134792 
L 171.356423 284.863357 
L 172.831327 284.581279 
L 172.869351 284.166144 
L 175.912478 283.900032 
L 176.044386 283.346519 
L 178.272474 282.580116 
L 179.011081 282.149015 
L 179.586646 281.728558 
L 180.102154 281.584858 
L 181.792777 281.318746 
L 182.070042 281.191012 
L 182.071728 280.786522 
L 184.811339 279.392095 
L 185.353214 279.248394 
L 185.353214 278.950349 
L 185.597386 278.662948 
L 185.672172 278.253135 
L 186.487474 277.6464 
L 187.135895 277.412221 
L 187.484573 277.28981 
L 187.527042 277.034342 
L 187.770577 276.789519 
L 187.785875 276.667108 
L 189.50058 276.331807 
L 190.2566 276.118917 
L 190.678835 275.884739 
L 190.678835 275.762327 
L 191.362433 275.517504 
L 191.362433 275.395092 
L 191.678582 275.262036 
L 191.678582 275.12898 
L 192.092161 274.98528 
L 194.17086 274.713846 
L 194.17086 274.575468 
L 194.562735 274.298711 
L 195.575204 274.021955 
L 195.697194 273.755843 
L 196.530204 273.500375 
L 196.575208 273.13314 
L 196.846437 273.010729 
L 196.846437 272.888317 
L 198.295092 272.068692 
L 199.228515 271.813225 
L 199.228515 271.701458 
L 199.623971 271.477924 
L 201.6646 271.036178 
L 202.276654 270.812644 
L 202.376532 270.578465 
L 202.465648 270.322998 
L 204.301929 269.705618 
L 204.570386 269.471439 
L 204.683063 269.237261 
L 206.163727 268.790193 
L 206.369108 268.454892 
L 208.797093 267.778967 
L 208.823686 267.661878 
L 210.068226 267.427699 
L 210.079235 267.193521 
L 210.778738 266.836931 
L 210.858485 266.459052 
L 212.031743 265.453148 
L 212.685211 265.176392 
L 212.685211 265.043336 
L 213.222028 264.91028 
L 213.222028 264.777224 
L 213.917087 264.521756 
L 214.475885 263.755354 
L 215.908519 263.393441 
L 215.908519 263.276352 
L 217.063676 262.946373 
L 217.100539 262.733484 
L 217.565728 262.424794 
L 217.818425 262.233193 
L 218.285628 261.935148 
L 218.993082 261.637102 
L 219.056001 261.429535 
L 219.65154 261.237934 
L 220.537548 260.051075 
L 220.845418 259.864796 
L 220.966936 259.465628 
L 221.778125 259.252739 
L 222.098341 259.103716 
L 222.206402 258.954693 
L 222.218228 258.87486 
L 222.448814 258.693903 
L 223.191767 258.161679 
L 223.246606 258.049912 
L 223.883851 257.826378 
L 224.04808 257.602844 
L 224.04808 257.491077 
L 224.769394 257.065298 
L 224.880297 256.751286 
L 225.239121 256.45324 
L 225.573298 255.862472 
L 226.100873 255.394115 
L 226.167133 255.138647 
L 227.118742 254.702223 
L 227.461972 254.233866 
L 228.136254 253.994365 
L 228.136254 253.919854 
L 228.255346 253.855987 
L 229.652117 253.60052 
L 229.84276 253.313119 
L 230.060233 253.116196 
L 230.113041 252.967173 
L 230.257653 252.690417 
L 230.316674 252.472205 
L 230.499386 252.22206 
L 230.61039 251.567424 
L 231.394999 251.370501 
L 231.394999 251.280023 
L 232.510861 250.859566 
L 232.61973 250.689254 
L 232.745604 250.412498 
L 232.844784 250.332664 
L 233.502432 250.039941 
L 233.502432 249.970752 
L 233.929832 249.821729 
L 233.986307 249.747218 
L 234.189855 249.614162 
L 234.238815 249.49175 
L 236.246487 249.225638 
L 236.246487 249.161772 
L 237.065056 248.986138 
L 237.065056 248.927593 
L 239.665242 248.416658 
L 240.635827 248.086679 
L 241.746972 247.597033 
L 242.344352 247.261732 
L 242.406121 247.000942 
L 242.948655 246.788052 
L 242.994255 246.575163 
L 244.064642 246.28244 
L 245.026171 244.057743 
L 245.405623 243.93001 
L 245.488698 243.562775 
L 246.098098 243.035873 
L 246.409043 242.833628 
L 246.409043 242.732506 
L 246.562121 242.540905 
L 246.676356 242.343982 
L 246.876096 242.163026 
L 246.95359 241.98207 
L 247.381005 241.582902 
L 248.181788 241.370012 
L 248.969072 240.9602 
L 249.305523 240.566354 
L 249.472676 240.358787 
L 249.617191 240.092675 
L 250.943071 239.82124 
L 251.035442 239.576417 
L 251.235888 239.374172 
L 251.235888 239.310305 
L 251.582174 239.182572 
L 251.771918 238.804692 
L 251.878983 238.740826 
L 252.909548 238.480036 
L 253.358356 238.022323 
L 253.463017 237.724278 
L 253.617936 237.500744 
L 253.617936 237.42091 
L 253.899495 237.239954 
L 254.007867 237.074964 
L 254.038356 236.835464 
L 255.362147 236.404362 
L 255.381547 236.340495 
L 255.865388 236.095672 
L 255.869108 235.973261 
L 256.106726 235.856172 
L 256.30572 235.536837 
L 256.493864 235.302659 
L 257.224546 235.079124 
L 257.224546 235.015258 
L 257.860112 234.823657 
L 257.860112 234.770435 
L 258.578487 234.562867 
L 258.590294 234.456422 
L 259.051373 234.334011 
L 259.079012 234.216922 
L 259.307464 234.035965 
L 259.439933 233.423908 
L 259.711682 233.269563 
L 259.847178 232.950228 
L 260.130875 232.801206 
L 260.178253 232.641539 
L 260.309805 232.412682 
L 260.336775 232.327526 
L 260.7752 232.093348 
L 261.022999 231.720791 
L 261.170638 231.507901 
L 261.170638 231.316301 
L 261.587995 231.023578 
L 262.27465 229.671729 
L 263.150193 229.096927 
L 263.253892 228.830815 
L 263.351228 228.655181 
L 263.627021 228.037801 
L 263.953743 227.718467 
L 263.97585 227.388488 
L 264.07247 227.271398 
L 264.591656 226.936097 
L 265.160636 226.350651 
L 265.484818 225.786493 
L 265.715007 225.568282 
L 265.79289 225.153147 
L 266.257011 224.87639 
L 266.847221 224.269655 
L 267.233142 223.934354 
L 267.97708 223.396808 
L 268.265388 222.614438 
L 268.265388 222.52396 
L 268.453353 222.33236 
L 268.494187 222.156726 
L 268.776531 221.991736 
L 269.564506 220.490865 
L 269.646478 219.963963 
L 269.808793 219.660595 
L 270.127745 219.192238 
L 270.127745 219.10176 
L 270.501444 218.814359 
L 270.547396 218.425836 
L 270.722452 218.271491 
L 270.811943 218.111823 
L 271.140062 217.7712 
L 271.140062 217.6754 
L 271.319506 217.499766 
L 271.459176 217.180431 
L 271.52723 216.956897 
L 271.830242 216.696108 
L 272.004986 216.08405 
L 272.114476 215.897772 
L 273.271454 214.327711 
L 273.448937 214.04031 
L 273.525503 213.816776 
L 273.820477 213.172785 
L 273.92185 212.778939 
L 274.141509 212.390415 
L 274.274244 212.023181 
L 274.476355 211.634657 
L 274.548031 211.315323 
L 275.00815 210.197652 
L 275.055142 210.080563 
L 275.445894 209.73994 
L 275.687735 209.298194 
L 275.83882 208.67017 
L 276.038919 208.249713 
L 276.610099 207.855867 
L 276.841796 207.307676 
L 276.841796 207.217198 
L 276.959901 207.036242 
L 277.121302 206.551918 
L 277.206405 206.349673 
L 277.277761 206.003727 
L 278.197045 205.375703 
L 278.258999 205.168136 
L 278.562369 204.960568 
L 278.964987 204.619945 
L 279.050377 204.305933 
L 279.565452 203.523564 
L 279.814675 203.145684 
L 280.138826 202.842317 
L 280.306129 202.315415 
L 280.507563 202.155748 
L 280.762154 201.453212 
L 280.920219 201.133878 
L 281.124394 200.984855 
L 281.505029 200.175875 
L 281.512274 199.962985 
L 281.909562 199.819284 
L 282.269984 199.388183 
L 283.343373 198.510013 
L 283.479443 198.392924 
L 283.569316 198.185357 
L 284.215008 196.977208 
L 284.347009 196.737708 
L 284.538778 196.466273 
L 284.643974 196.157583 
L 284.902419 195.870182 
L 285.010479 195.763738 
L 285.294273 195.476337 
L 285.617156 195.258125 
L 285.895837 194.965402 
L 285.96778 194.768479 
L 286.19105 194.417211 
L 286.256073 194.087232 
L 286.556168 193.581619 
L 286.556168 193.533719 
L 286.918502 193.278252 
L 287.021041 193.076006 
L 287.397266 192.724739 
L 288.09529 190.995011 
L 288.250929 190.856632 
L 288.250929 190.776799 
L 288.500114 190.547942 
L 288.659951 189.73364 
L 288.87285 188.929981 
L 289.063978 188.653225 
L 289.88237 186.508362 
L 290.072691 186.279506 
L 290.151542 186.024038 
L 290.280353 185.523748 
L 290.628668 184.682834 
L 290.884898 184.310277 
L 291.051585 184.182543 
L 291.177891 184.044165 
L 291.275618 183.591775 
L 292.110154 182.969073 
L 292.498462 182.65506 
L 292.830649 182.303793 
L 293.025617 181.521423 
L 293.499143 179.674606 
L 293.915402 179.004004 
L 294.240363 178.61548 
L 294.4621 177.620221 
L 294.823091 177.391365 
L 294.846673 177.146542 
L 295.502549 176.795274 
L 295.502549 176.773985 
L 296.28312 176.800596 
L 296.28312 176.811241 
L 296.381873 176.965586 
L 296.400982 176.917686 
L 296.860217 176.752696 
L 296.987163 176.507873 
L 297.871449 176.247084 
L 297.916815 176.140639 
L 298.042442 176.00226 
L 298.174086 175.720182 
L 298.174086 175.677604 
L 298.538788 175.555192 
L 298.671599 175.262469 
L 298.959962 175.038935 
L 299.313237 174.708956 
L 299.616283 174.565256 
L 299.710724 174.256566 
L 299.815606 174.112865 
L 299.960742 173.942554 
L 300.059292 173.644508 
L 300.141509 173.181473 
L 300.318647 172.755694 
L 300.431333 172.303304 
L 300.749727 171.760435 
L 300.799363 171.265467 
L 300.892332 170.972744 
L 301.039569 170.706632 
L 301.345236 170.020063 
L 301.566992 169.173827 
L 301.862091 168.875781 
L 301.993087 168.737403 
L 302.614981 168.630958 
L 302.722624 168.519191 
L 303.153498 168.151956 
L 303.314689 167.523932 
L 303.637411 166.384973 
L 303.957553 166.150794 
L 304.068641 165.655826 
L 304.185417 165.501481 
L 304.465126 164.910712 
L 305.127596 164.154954 
L 305.401284 163.473708 
L 305.678483 163.335329 
L 305.752238 163.287429 
L 306.016381 163.079862 
L 306.279423 162.866972 
L 306.680305 162.749883 
L 307.706579 162.584893 
L 307.720683 162.547638 
L 308.18816 162.372004 
L 308.359955 162.036703 
L 308.855516 161.680113 
L 308.966366 161.557701 
L 309.357002 161.264978 
L 309.462811 161.153211 
L 310.13376 160.919032 
L 310.13376 160.919032 
L 310.86791 160.658243 
L 311.302297 159.992963 
L 312.480782 159.945062 
L 312.480782 159.929096 
L 312.65768 159.881196 
L 313.126526 159.668306 
L 313.185309 159.561861 
L 314.229164 159.53525 
L 314.229164 159.540572 
L 314.824471 159.647017 
L 315.025515 159.790717 
L 315.286335 159.838618 
L 315.702345 159.716206 
L 316.282121 159.242527 
L 316.387292 158.848681 
L 316.643629 158.438868 
L 316.757414 158.273879 
L 316.848372 157.922611 
L 317.045023 157.63521 
L 317.115051 157.172175 
L 317.26531 156.576084 
L 317.721831 155.479703 
L 317.823332 155.085857 
L 318.05096 154.191721 
L 318.217341 153.781908 
L 318.622676 153.042117 
L 318.72628 152.541827 
L 318.799964 152.21717 
L 318.911048 151.998958 
L 319.113999 151.621079 
L 319.503996 150.891932 
L 320.042485 150.498086 
L 320.136436 150.253263 
L 320.796222 149.742328 
L 321.263196 149.385738 
L 321.726859 148.933348 
L 321.827572 148.789647 
L 322.561949 148.071145 
L 322.69647 147.884867 
L 322.773072 147.453765 
L 322.826498 147.161042 
L 323.094639 146.79913 
L 324.037521 144.744745 
L 325.149244 144.6383 
L 325.335988 144.441377 
L 325.514747 144.32961 
L 325.826728 144.132687 
L 325.916732 143.483374 
L 326.074663 143.222584 
L 326.114919 142.791483 
L 326.244145 142.64246 
L 326.698566 140.630653 
L 326.762794 140.093107 
L 327.053791 139.523628 
L 327.226054 138.884959 
L 327.321383 138.714647 
L 327.467397 138.523046 
L 327.876231 138.374024 
L 328.097973 138.453857 
L 328.26881 138.592236 
L 328.881914 138.581591 
L 328.881914 138.565624 
L 329.702368 136.65494 
L 329.996244 136.495273 
L 330.455868 136.197228 
L 330.855759 136.010949 
L 330.959406 135.72887 
L 331.046191 135.42018 
L 331.31013 134.96779 
L 331.876386 133.152906 
L 332.09483 132.940017 
L 332.673957 132.029914 
L 332.89543 131.763802 
L 332.992254 131.710579 
L 333.329776 131.465756 
L 333.410619 130.965466 
L 333.529433 130.411953 
L 333.967863 129.901018 
L 334.017309 129.698772 
L 334.165637 129.304927 
L 334.296883 129.161226 
L 334.829167 127.947756 
L 335.128675 127.846633 
L 335.237916 127.623099 
L 335.346232 127.484721 
L 335.534869 126.98443 
L 335.639102 126.814118 
L 336.054141 126.202061 
L 336.161905 125.850793 
L 336.23576 125.600648 
L 336.383638 125.185513 
L 337.561072 123.296118 
L 338.075581 123.051295 
L 338.326387 122.880983 
L 338.639388 122.747927 
L 339.059789 122.242314 
L 339.275718 121.816535 
L 339.490323 121.635579 
L 339.656793 121.417367 
L 339.759856 121.3056 
L 340.419566 121.023521 
L 340.669887 120.837243 
L 340.939187 120.406141 
L 341.026506 120.246474 
L 341.928114 117.17022 
L 342.177221 116.925396 
L 342.424153 115.834337 
L 342.474424 115.594836 
L 342.547392 115.53097 
L 342.840619 115.286147 
L 342.94563 115.153091 
L 343.414218 114.892301 
L 343.474321 114.876334 
L 343.712124 114.721989 
L 343.868405 114.338788 
L 344.033184 114.03542 
L 344.456408 113.598996 
L 344.823151 113.32224 
L 345.017694 113.114673 
L 345.299676 112.742116 
L 345.4079 112.768727 
L 345.408893 112.821949 
L 345.527669 113.237084 
L 345.667562 113.295629 
L 345.878132 113.189184 
L 346.18293 112.875172 
L 346.293503 112.625027 
L 346.558083 112.30037 
L 346.786424 111.826691 
L 346.989285 111.922491 
L 347.112731 112.007647 
L 347.501826 112.151347 
L 348.03766 112.257792 
L 348.410189 112.502615 
L 348.941688 112.279081 
L 349.070842 112.108769 
L 349.275138 111.140122 
L 349.808833 109.873428 
L 350.587825 109.596672 
L 351.34675 109.463616 
L 351.855865 108.824947 
L 352.107148 108.601413 
L 352.220901 108.532224 
L 352.414477 108.329979 
L 352.671801 107.850977 
L 352.889866 107.137797 
L 353.834094 106.802496 
L 353.985177 105.844493 
L 354.088569 105.477258 
L 354.471792 103.241917 
L 354.924644 102.82146 
L 355.311217 102.810816 
L 355.72318 102.086991 
L 355.740264 102.097636 
L 356.266409 102.267948 
L 356.29148 102.166825 
L 356.532728 101.639923 
L 356.788426 101.357844 
L 356.87697 101.139633 
L 357.040245 100.937388 
L 357.151331 100.63402 
L 358.0628 99.96874 
L 358.322818 99.745206 
L 358.487261 99.542961 
L 359.077326 98.462546 
L 359.151788 98.175145 
L 359.328574 97.930322 
L 359.437054 97.525832 
L 359.616965 97.233108 
L 359.735577 96.860552 
L 359.853412 96.732818 
L 360.123442 96.530573 
L 360.216504 96.397517 
L 361.317934 95.487414 
L 361.393397 95.375647 
L 361.435064 95.200013 
L 361.559341 94.848745 
L 361.689491 94.912612 
L 361.860106 95.013734 
L 361.967567 95.402258 
L 362.08717 95.482092 
L 362.121294 95.423547 
L 362.436553 95.056312 
L 362.788192 94.513444 
L 362.910547 94.130243 
L 363.076032 93.677852 
L 363.174934 93.534152 
L 363.239104 93.00725 
L 363.355246 92.922094 
L 363.578506 92.751782 
L 363.992061 92.576148 
L 364.116738 92.453737 
L 364.227285 91.948124 
L 364.323073 91.650079 
L 364.433119 91.181722 
L 364.620488 90.96351 
L 366.130794 90.048084 
L 367.79903 88.313034 
L 368.131687 88.100145 
L 368.328737 87.823388 
L 368.38938 87.695654 
L 368.570035 87.301809 
L 368.662394 87.078275 
L 368.853922 85.90206 
L 369.067033 85.726426 
L 369.219936 85.508214 
L 369.271223 85.412413 
L 369.35841 85.454991 
L 369.544525 85.625303 
L 369.645945 85.811581 
L 369.894307 86.04576 
L 369.95186 85.987215 
L 370.080231 85.242102 
L 370.244272 84.6673 
L 370.423014 84.50231 
L 371.432211 84.305388 
L 371.549777 84.060564 
L 371.771371 83.475118 
L 372.407961 82.93225 
L 372.493133 82.687427 
L 372.596997 82.485181 
L 373.331112 81.463311 
L 373.742662 80.994954 
L 373.866312 80.766098 
L 374.228743 80.62772 
L 375.527113 80.382897 
L 377.338194 79.792128 
L 377.393213 79.424893 
L 377.507539 79.116204 
L 377.728752 79.153459 
L 378.297226 79.643105 
L 378.66859 80.084851 
L 378.751293 80.244518 
L 378.848335 80.590464 
L 378.906155 80.531919 
L 379.170388 80.031629 
L 379.234473 79.680361 
L 379.386411 79.227971 
L 379.456896 79.259904 
L 379.476585 79.291837 
L 379.540829 79.313126 
L 379.552945 79.212004 
L 379.66126 79.068303 
L 379.948267 78.711713 
L 380.038681 78.0145 
L 380.290187 77.18423 
L 380.464078 77.029885 
L 381.133021 76.811674 
L 381.410758 76.630717 
L 381.963955 76.73184 
L 382.254707 76.753129 
L 382.257067 76.699907 
L 382.371534 76.497661 
L 382.497464 76.21026 
L 382.614368 76.082527 
L 382.857198 75.816415 
L 383.317026 75.358702 
L 383.32802 75.369347 
L 383.72592 75.603525 
L 383.798236 75.523692 
L 383.798236 75.502403 
L 384.11739 74.730678 
L 384.25767 74.586977 
L 384.407792 74.459244 
L 384.857362 74.358121 
L 385.561416 74.081364 
L 385.751312 73.985564 
L 386.435908 73.45334 
L 386.545531 73.325606 
L 386.566958 73.330929 
L 386.895905 73.224484 
L 387.077856 73.19255 
L 387.452975 73.086106 
L 387.594344 72.782738 
L 387.673797 72.580493 
L 387.821581 72.058913 
L 387.884305 71.665068 
L 388.011921 71.340411 
L 388.266319 70.994465 
L 388.508486 70.770931 
L 388.656715 70.781576 
L 388.753415 71.021076 
L 389.063602 71.468145 
L 389.072817 71.377667 
L 389.184207 70.946565 
L 389.712841 69.930017 
L 389.718226 69.940662 
L 389.842263 69.600038 
L 390.012973 69.504238 
L 390.190446 69.344571 
L 390.485409 68.322701 
L 391.199868 66.475884 
L 391.44836 66.34815 
L 391.78179 66.140582 
L 391.89071 65.917048 
L 391.973109 65.773348 
L 392.165215 65.379502 
L 392.291255 65.203868 
L 393.1709 63.814764 
L 393.338531 63.665741 
L 393.531126 63.325117 
L 394.070174 63.234639 
L 394.128389 62.649193 
L 394.186399 62.883372 
L 394.347609 63.383662 
L 394.36287 63.133517 
L 394.655954 62.750316 
L 394.732359 62.915305 
L 394.877504 63.176095 
L 394.95811 63.287862 
L 394.989596 63.144161 
L 395.226743 62.415014 
L 395.582946 61.925368 
L 395.605487 61.946657 
L 395.812091 61.840212 
L 396.0745 61.69119 
L 396.299481 61.696512 
L 396.80576 61.595389 
L 397.309214 61.244122 
L 397.532152 60.887532 
L 397.700561 60.674642 
L 397.722289 60.435141 
L 397.807447 60.600131 
L 398.104399 60.270152 
L 398.345881 59.594227 
L 398.462802 173.64983 
L 398.483168 183.570486 
L -1 183.586207 
L -1 183.586207 
" clip-path="url(#p75072721b9)" style="fill: none; stroke-dasharray: 1.85,0.8; stroke-dashoffset: 0; stroke: #ff0000; stroke-width: 0.5"/>
   </g>
   <g id="patch_3">
    <path d="M 57.6 307.584 
L 57.6 41.472 
" style="fill: none; stroke: #000000; stroke-width: 0.8; stroke-linejoin: miter; stroke-linecap: square"/>
   </g>
   <g id="patch_4">
    <path d="M 414.72 307.584 
L 414.72 41.472 
" style="fill: none; stroke: #000000; stroke-width: 0.8; stroke-linejoin: miter; stroke-linecap: square"/>
   </g>
   <g id="patch_5">
    <path d="M 57.6 307.584 
L 414.72 307.584 
" style="fill: none; stroke: #000000; stroke-width: 0.8; stroke-linejoin: miter; stroke-linecap: square"/>
   </g>
   <g id="patch_6">
    <path d="M 57.6 41.472 
L 414.72 41.472 
" style="fill: none; stroke: #000000; stroke-width: 0.8; stroke-linejoin: miter; stroke-linecap: square"/>
   </g>
   <g id="legend_1">
    <g id="patch_7">
     <path d="M 314.584 105.43945 
L 523.329313 105.43945 
Q 525.329313 105.43945 525.329313 103.43945 
L 525.329313 75.0832 
Q 525.329313 73.0832 523.329313 73.0832 
L 314.584 73.0832 
Q 312.584 73.0832 312.584 75.0832 
L 312.584 103.43945 
Q 312.584 105.43945 314.584 105.43945 
z
" style="fill: #ffffff; opacity: 0.8; stroke: #cccccc; stroke-linejoin: miter"/>
    </g>
    <g id="line2d_35">
     <path d="M 316.584 81.181637 
L 326.584 81.181637 
L 336.584 81.181637 
" style="fill: none; stroke-dasharray: 1.85,0.8; stroke-dashoffset: 0; stroke: #8000ff; stroke-width: 0.5"/>
    </g>
    <g id="text_12">
     <!-- Total number of electron traps500 -->
     <g transform="translate(344.584 84.681637) scale(0.1 -0.1)">
      <defs>
       <path id="DejaVuSans-54" d="M -19 4666 
L 3928 4666 
L 3928 4134 
L 2272 4134 
L 2272 0 
L 1638 0 
L 1638 4134 
L -19 4134 
L -19 4666 
z
" transform="scale(0.015625)"/>
       <path id="DejaVuSans-75" d="M 544 1381 
L 544 3500 
L 1119 3500 
L 1119 1403 
Q 1119 906 1312 657 
Q 1506 409 1894 409 
Q 2359 409 2629 706 
Q 2900 1003 2900 1516 
L 2900 3500 
L 3475 3500 
L 3475 0 
L 2900 0 
L 2900 538 
Q 2691 219 2414 64 
Q 2138 -91 1772 -91 
Q 1169 -91 856 284 
Q 544 659 544 1381 
z
M 1991 3584 
L 1991 3584 
z
" transform="scale(0.015625)"/>
       <path id="DejaVuSans-62" d="M 3116 1747 
Q 3116 2381 2855 2742 
Q 2594 3103 2138 3103 
Q 1681 3103 1420 2742 
Q 1159 2381 1159 1747 
Q 1159 1113 1420 752 
Q 1681 391 2138 391 
Q 2594 391 2855 752 
Q 3116 1113 3116 1747 
z
M 1159 2969 
Q 1341 3281 1617 3432 
Q 1894 3584 2278 3584 
Q 2916 3584 3314 3078 
Q 3713 2572 3713 1747 
Q 3713 922 3314 415 
Q 2916 -91 2278 -91 
Q 1894 -91 1617 61 
Q 1341 213 1159 525 
L 1159 0 
L 581 0 
L 581 4863 
L 1159 4863 
L 1159 2969 
z
" transform="scale(0.015625)"/>
       <path id="DejaVuSans-35" d="M 691 4666 
L 3169 4666 
L 3169 4134 
L 1269 4134 
L 1269 2991 
Q 1406 3038 1543 3061 
Q 1681 3084 1819 3084 
Q 2600 3084 3056 2656 
Q 3513 2228 3513 1497 
Q 3513 744 3044 326 
Q 2575 -91 1722 -91 
Q 1428 -91 1123 -41 
Q 819 9 494 109 
L 494 744 
Q 775 591 1075 516 
Q 1375 441 1709 441 
Q 2250 441 2565 725 
Q 2881 1009 2881 1497 
Q 2881 1984 2565 2268 
Q 2250 2553 1709 2553 
Q 1456 2553 1204 2497 
Q 953 2441 691 2322 
L 691 4666 
z
" transform="scale(0.015625)"/>
      </defs>
      <use xlink:href="#DejaVuSans-54"/>
      <use xlink:href="#DejaVuSans-6f" transform="translate(44.083984 0)"/>
      <use xlink:href="#DejaVuSans-74" transform="translate(105.265625 0)"/>
      <use xlink:href="#DejaVuSans-61" transform="translate(144.474609 0)"/>
      <use xlink:href="#DejaVuSans-6c" transform="translate(205.753906 0)"/>
      <use xlink:href="#DejaVuSans-20" transform="translate(233.537109 0)"/>
      <use xlink:href="#DejaVuSans-6e" transform="translate(265.324219 0)"/>
      <use xlink:href="#DejaVuSans-75" transform="translate(328.703125 0)"/>
      <use xlink:href="#DejaVuSans-6d" transform="translate(392.082031 0)"/>
      <use xlink:href="#DejaVuSans-62" transform="translate(489.494141 0)"/>
      <use xlink:href="#DejaVuSans-65" transform="translate(552.970703 0)"/>
      <use xlink:href="#DejaVuSans-72" transform="translate(614.494141 0)"/>
      <use xlink:href="#DejaVuSans-20" transform="translate(655.607422 0)"/>
      <use xlink:href="#DejaVuSans-6f" transform="translate(687.394531 0)"/>
      <use xlink:href="#DejaVuSans-66" transform="translate(748.576172 0)"/>
      <use xlink:href="#DejaVuSans-20" transform="translate(783.78125 0)"/>
      <use xlink:href="#DejaVuSans-65" transform="translate(815.568359 0)"/>
      <use xlink:href="#DejaVuSans-6c" transform="translate(877.091797 0)"/>
      <use xlink:href="#DejaVuSans-65" transform="translate(904.875 0)"/>
      <use xlink:href="#DejaVuSans-63" transform="translate(966.398438 0)"/>
      <use xlink:href="#DejaVuSans-74" transform="translate(1021.378906 0)"/>
      <use xlink:href="#DejaVuSans-72" transform="translate(1060.587891 0)"/>
      <use xlink:href="#DejaVuSans-6f" transform="translate(1099.451172 0)"/>
      <use xlink:href="#DejaVuSans-6e" transform="translate(1160.632812 0)"/>
      <use xlink:href="#DejaVuSans-20" transform="translate(1224.011719 0)"/>
      <use xlink:href="#DejaVuSans-74" transform="translate(1255.798828 0)"/>
      <use xlink:href="#DejaVuSans-72" transform="translate(1295.007812 0)"/>
      <use xlink:href="#DejaVuSans-61" transform="translate(1336.121094 0)"/>
      <use xlink:href="#DejaVuSans-70" transform="translate(1397.400391 0)"/>
      <use xlink:href="#DejaVuSans-73" transform="translate(1460.876953 0)"/>
      <use xlink:href="#DejaVuSans-35" transform="translate(1512.976562 0)"/>
      <use xlink:href="#DejaVuSans-30" transform="translate(1576.599609 0)"/>
      <use xlink:href="#DejaVuSans-30" transform="translate(1640.222656 0)"/>
     </g>
    </g>
    <g id="line2d_36">
     <path d="M 316.584 95.859762 
L 326.584 95.859762 
L 336.584 95.859762 
" style="fill: none; stroke-dasharray: 1.85,0.8; stroke-dashoffset: 0; stroke: #ff0000; stroke-width: 0.5"/>
    </g>
    <g id="text_13">
     <!-- Total number of electron traps1000 -->
     <g transform="translate(344.584 99.359762) scale(0.1 -0.1)">
      <use xlink:href="#DejaVuSans-54"/>
      <use xlink:href="#DejaVuSans-6f" transform="translate(44.083984 0)"/>
      <use xlink:href="#DejaVuSans-74" transform="translate(105.265625 0)"/>
      <use xlink:href="#DejaVuSans-61" transform="translate(144.474609 0)"/>
      <use xlink:href="#DejaVuSans-6c" transform="translate(205.753906 0)"/>
      <use xlink:href="#DejaVuSans-20" transform="translate(233.537109 0)"/>
      <use xlink:href="#DejaVuSans-6e" transform="translate(265.324219 0)"/>
      <use xlink:href="#DejaVuSans-75" transform="translate(328.703125 0)"/>
      <use xlink:href="#DejaVuSans-6d" transform="translate(392.082031 0)"/>
      <use xlink:href="#DejaVuSans-62" transform="translate(489.494141 0)"/>
      <use xlink:href="#DejaVuSans-65" transform="translate(552.970703 0)"/>
      <use xlink:href="#DejaVuSans-72" transform="translate(614.494141 0)"/>
      <use xlink:href="#DejaVuSans-20" transform="translate(655.607422 0)"/>
      <use xlink:href="#DejaVuSans-6f" transform="translate(687.394531 0)"/>
      <use xlink:href="#DejaVuSans-66" transform="translate(748.576172 0)"/>
      <use xlink:href="#DejaVuSans-20" transform="translate(783.78125 0)"/>
      <use xlink:href="#DejaVuSans-65" transform="translate(815.568359 0)"/>
      <use xlink:href="#DejaVuSans-6c" transform="translate(877.091797 0)"/>
      <use xlink:href="#DejaVuSans-65" transform="translate(904.875 0)"/>
      <use xlink:href="#DejaVuSans-63" transform="translate(966.398438 0)"/>
      <use xlink:href="#DejaVuSans-74" transform="translate(1021.378906 0)"/>
      <use xlink:href="#DejaVuSans-72" transform="translate(1060.587891 0)"/>
      <use xlink:href="#DejaVuSans-6f" transform="translate(1099.451172 0)"/>
      <use xlink:href="#DejaVuSans-6e" transform="translate(1160.632812 0)"/>
      <use xlink:href="#DejaVuSans-20" transform="translate(1224.011719 0)"/>
      <use xlink:href="#DejaVuSans-74" transform="translate(1255.798828 0)"/>
      <use xlink:href="#DejaVuSans-72" transform="translate(1295.007812 0)"/>
      <use xlink:href="#DejaVuSans-61" transform="translate(1336.121094 0)"/>
      <use xlink:href="#DejaVuSans-70" transform="translate(1397.400391 0)"/>
      <use xlink:href="#DejaVuSans-73" transform="translate(1460.876953 0)"/>
      <use xlink:href="#DejaVuSans-31" transform="translate(1512.976562 0)"/>
      <use xlink:href="#DejaVuSans-30" transform="translate(1576.599609 0)"/>
      <use xlink:href="#DejaVuSans-30" transform="translate(1640.222656 0)"/>
      <use xlink:href="#DejaVuSans-30" transform="translate(1703.845703 0)"/>
     </g>
    </g>
   </g>
  </g>
 </g>
 <defs>
  <clipPath id="p75072721b9">
   <rect x="57.6" y="41.472" width="357.12" height="266.112"/>
  </clipPath>
 </defs>
</svg>
