<?xml version="1.0" encoding="utf-8" standalone="no"?>
<!DOCTYPE svg PUBLIC "-//W3C//DTD SVG 1.1//EN"
  "http://www.w3.org/Graphics/SVG/1.1/DTD/svg11.dtd">
<svg xmlns:xlink="http://www.w3.org/1999/xlink" width="460.8pt" height="345.6pt" viewBox="0 0 460.8 345.6" xmlns="http://www.w3.org/2000/svg" version="1.1">
 <metadata>
  <rdf:RDF xmlns:dc="http://purl.org/dc/elements/1.1/" xmlns:cc="http://creativecommons.org/ns#" xmlns:rdf="http://www.w3.org/1999/02/22-rdf-syntax-ns#">
   <cc:Work>
    <dc:type rdf:resource="http://purl.org/dc/dcmitype/StillImage"/>
    <dc:date>2025-03-25T11:46:48.965262</dc:date>
    <dc:format>image/svg+xml</dc:format>
    <dc:creator>
     <cc:Agent>
      <dc:title>Matplotlib v3.10.0, https://matplotlib.org/</dc:title>
     </cc:Agent>
    </dc:creator>
   </cc:Work>
  </rdf:RDF>
 </metadata>
 <defs>
  <style type="text/css">*{stroke-linejoin: round; stroke-linecap: butt}</style>
 </defs>
 <g id="figure_1">
  <g id="patch_1">
   <path d="M 0 345.6 
L 460.8 345.6 
L 460.8 0 
L 0 0 
z
" style="fill: #ffffff"/>
  </g>
  <g id="axes_1">
   <g id="patch_2">
    <path d="M 57.6 307.584 
L 414.72 307.584 
L 414.72 41.472 
L 57.6 41.472 
z
" style="fill: #ffffff"/>
   </g>
   <g id="matplotlib.axis_1">
    <g id="xtick_1">
     <g id="line2d_1">
      <defs>
       <path id="m2925885b8f" d="M 0 0 
L 0 3.5 
" style="stroke: #000000; stroke-width: 0.8"/>
      </defs>
      <g>
       <use xlink:href="#m2925885b8f" x="153.875616" y="307.584" style="stroke: #000000; stroke-width: 0.8"/>
      </g>
     </g>
     <g id="text_1">
      <!-- $\mathdefault{10^{12}}$ -->
      <g transform="translate(142.825616 322.182437) scale(0.1 -0.1)">
       <defs>
        <path id="DejaVuSans-31" d="M 794 531 
L 1825 531 
L 1825 4091 
L 703 3866 
L 703 4441 
L 1819 4666 
L 2450 4666 
L 2450 531 
L 3481 531 
L 3481 0 
L 794 0 
L 794 531 
z
" transform="scale(0.015625)"/>
        <path id="DejaVuSans-30" d="M 2034 4250 
Q 1547 4250 1301 3770 
Q 1056 3291 1056 2328 
Q 1056 1369 1301 889 
Q 1547 409 2034 409 
Q 2525 409 2770 889 
Q 3016 1369 3016 2328 
Q 3016 3291 2770 3770 
Q 2525 4250 2034 4250 
z
M 2034 4750 
Q 2819 4750 3233 4129 
Q 3647 3509 3647 2328 
Q 3647 1150 3233 529 
Q 2819 -91 2034 -91 
Q 1250 -91 836 529 
Q 422 1150 422 2328 
Q 422 3509 836 4129 
Q 1250 4750 2034 4750 
z
" transform="scale(0.015625)"/>
        <path id="DejaVuSans-32" d="M 1228 531 
L 3431 531 
L 3431 0 
L 469 0 
L 469 531 
Q 828 903 1448 1529 
Q 2069 2156 2228 2338 
Q 2531 2678 2651 2914 
Q 2772 3150 2772 3378 
Q 2772 3750 2511 3984 
Q 2250 4219 1831 4219 
Q 1534 4219 1204 4116 
Q 875 4013 500 3803 
L 500 4441 
Q 881 4594 1212 4672 
Q 1544 4750 1819 4750 
Q 2544 4750 2975 4387 
Q 3406 4025 3406 3419 
Q 3406 3131 3298 2873 
Q 3191 2616 2906 2266 
Q 2828 2175 2409 1742 
Q 1991 1309 1228 531 
z
" transform="scale(0.015625)"/>
       </defs>
       <use xlink:href="#DejaVuSans-31" transform="translate(0 0.765625)"/>
       <use xlink:href="#DejaVuSans-30" transform="translate(63.623047 0.765625)"/>
       <use xlink:href="#DejaVuSans-31" transform="translate(128.203125 39.046875) scale(0.7)"/>
       <use xlink:href="#DejaVuSans-32" transform="translate(172.739258 39.046875) scale(0.7)"/>
      </g>
     </g>
    </g>
    <g id="xtick_2">
     <g id="line2d_2">
      <g>
       <use xlink:href="#m2925885b8f" x="269.424207" y="307.584" style="stroke: #000000; stroke-width: 0.8"/>
      </g>
     </g>
     <g id="text_2">
      <!-- $\mathdefault{10^{13}}$ -->
      <g transform="translate(258.374207 322.182437) scale(0.1 -0.1)">
       <defs>
        <path id="DejaVuSans-33" d="M 2597 2516 
Q 3050 2419 3304 2112 
Q 3559 1806 3559 1356 
Q 3559 666 3084 287 
Q 2609 -91 1734 -91 
Q 1441 -91 1130 -33 
Q 819 25 488 141 
L 488 750 
Q 750 597 1062 519 
Q 1375 441 1716 441 
Q 2309 441 2620 675 
Q 2931 909 2931 1356 
Q 2931 1769 2642 2001 
Q 2353 2234 1838 2234 
L 1294 2234 
L 1294 2753 
L 1863 2753 
Q 2328 2753 2575 2939 
Q 2822 3125 2822 3475 
Q 2822 3834 2567 4026 
Q 2313 4219 1838 4219 
Q 1578 4219 1281 4162 
Q 984 4106 628 3988 
L 628 4550 
Q 988 4650 1302 4700 
Q 1616 4750 1894 4750 
Q 2613 4750 3031 4423 
Q 3450 4097 3450 3541 
Q 3450 3153 3228 2886 
Q 3006 2619 2597 2516 
z
" transform="scale(0.015625)"/>
       </defs>
       <use xlink:href="#DejaVuSans-31" transform="translate(0 0.765625)"/>
       <use xlink:href="#DejaVuSans-30" transform="translate(63.623047 0.765625)"/>
       <use xlink:href="#DejaVuSans-31" transform="translate(128.203125 39.046875) scale(0.7)"/>
       <use xlink:href="#DejaVuSans-33" transform="translate(172.739258 39.046875) scale(0.7)"/>
      </g>
     </g>
    </g>
    <g id="xtick_3">
     <g id="line2d_3">
      <g>
       <use xlink:href="#m2925885b8f" x="384.972799" y="307.584" style="stroke: #000000; stroke-width: 0.8"/>
      </g>
     </g>
     <g id="text_3">
      <!-- $\mathdefault{10^{14}}$ -->
      <g transform="translate(373.922799 322.182437) scale(0.1 -0.1)">
       <defs>
        <path id="DejaVuSans-34" d="M 2419 4116 
L 825 1625 
L 2419 1625 
L 2419 4116 
z
M 2253 4666 
L 3047 4666 
L 3047 1625 
L 3713 1625 
L 3713 1100 
L 3047 1100 
L 3047 0 
L 2419 0 
L 2419 1100 
L 313 1100 
L 313 1709 
L 2253 4666 
z
" transform="scale(0.015625)"/>
       </defs>
       <use xlink:href="#DejaVuSans-31" transform="translate(0 0.684375)"/>
       <use xlink:href="#DejaVuSans-30" transform="translate(63.623047 0.684375)"/>
       <use xlink:href="#DejaVuSans-31" transform="translate(128.203125 38.965625) scale(0.7)"/>
       <use xlink:href="#DejaVuSans-34" transform="translate(172.739258 38.965625) scale(0.7)"/>
      </g>
     </g>
    </g>
    <g id="xtick_4">
     <g id="line2d_4">
      <defs>
       <path id="mceb2be5de2" d="M 0 0 
L 0 2 
" style="stroke: #000000; stroke-width: 0.6"/>
      </defs>
      <g>
       <use xlink:href="#mceb2be5de2" x="73.110616" y="307.584" style="stroke: #000000; stroke-width: 0.6"/>
      </g>
     </g>
    </g>
    <g id="xtick_5">
     <g id="line2d_5">
      <g>
       <use xlink:href="#mceb2be5de2" x="93.457713" y="307.584" style="stroke: #000000; stroke-width: 0.6"/>
      </g>
     </g>
    </g>
    <g id="xtick_6">
     <g id="line2d_6">
      <g>
       <use xlink:href="#mceb2be5de2" x="107.894208" y="307.584" style="stroke: #000000; stroke-width: 0.6"/>
      </g>
     </g>
    </g>
    <g id="xtick_7">
     <g id="line2d_7">
      <g>
       <use xlink:href="#mceb2be5de2" x="119.092024" y="307.584" style="stroke: #000000; stroke-width: 0.6"/>
      </g>
     </g>
    </g>
    <g id="xtick_8">
     <g id="line2d_8">
      <g>
       <use xlink:href="#mceb2be5de2" x="128.241305" y="307.584" style="stroke: #000000; stroke-width: 0.6"/>
      </g>
     </g>
    </g>
    <g id="xtick_9">
     <g id="line2d_9">
      <g>
       <use xlink:href="#mceb2be5de2" x="135.976912" y="307.584" style="stroke: #000000; stroke-width: 0.6"/>
      </g>
     </g>
    </g>
    <g id="xtick_10">
     <g id="line2d_10">
      <g>
       <use xlink:href="#mceb2be5de2" x="142.6778" y="307.584" style="stroke: #000000; stroke-width: 0.6"/>
      </g>
     </g>
    </g>
    <g id="xtick_11">
     <g id="line2d_11">
      <g>
       <use xlink:href="#mceb2be5de2" x="148.588402" y="307.584" style="stroke: #000000; stroke-width: 0.6"/>
      </g>
     </g>
    </g>
    <g id="xtick_12">
     <g id="line2d_12">
      <g>
       <use xlink:href="#mceb2be5de2" x="188.659208" y="307.584" style="stroke: #000000; stroke-width: 0.6"/>
      </g>
     </g>
    </g>
    <g id="xtick_13">
     <g id="line2d_13">
      <g>
       <use xlink:href="#mceb2be5de2" x="209.006305" y="307.584" style="stroke: #000000; stroke-width: 0.6"/>
      </g>
     </g>
    </g>
    <g id="xtick_14">
     <g id="line2d_14">
      <g>
       <use xlink:href="#mceb2be5de2" x="223.4428" y="307.584" style="stroke: #000000; stroke-width: 0.6"/>
      </g>
     </g>
    </g>
    <g id="xtick_15">
     <g id="line2d_15">
      <g>
       <use xlink:href="#mceb2be5de2" x="234.640615" y="307.584" style="stroke: #000000; stroke-width: 0.6"/>
      </g>
     </g>
    </g>
    <g id="xtick_16">
     <g id="line2d_16">
      <g>
       <use xlink:href="#mceb2be5de2" x="243.789897" y="307.584" style="stroke: #000000; stroke-width: 0.6"/>
      </g>
     </g>
    </g>
    <g id="xtick_17">
     <g id="line2d_17">
      <g>
       <use xlink:href="#mceb2be5de2" x="251.525504" y="307.584" style="stroke: #000000; stroke-width: 0.6"/>
      </g>
     </g>
    </g>
    <g id="xtick_18">
     <g id="line2d_18">
      <g>
       <use xlink:href="#mceb2be5de2" x="258.226392" y="307.584" style="stroke: #000000; stroke-width: 0.6"/>
      </g>
     </g>
    </g>
    <g id="xtick_19">
     <g id="line2d_19">
      <g>
       <use xlink:href="#mceb2be5de2" x="264.136994" y="307.584" style="stroke: #000000; stroke-width: 0.6"/>
      </g>
     </g>
    </g>
    <g id="xtick_20">
     <g id="line2d_20">
      <g>
       <use xlink:href="#mceb2be5de2" x="304.207799" y="307.584" style="stroke: #000000; stroke-width: 0.6"/>
      </g>
     </g>
    </g>
    <g id="xtick_21">
     <g id="line2d_21">
      <g>
       <use xlink:href="#mceb2be5de2" x="324.554896" y="307.584" style="stroke: #000000; stroke-width: 0.6"/>
      </g>
     </g>
    </g>
    <g id="xtick_22">
     <g id="line2d_22">
      <g>
       <use xlink:href="#mceb2be5de2" x="338.991391" y="307.584" style="stroke: #000000; stroke-width: 0.6"/>
      </g>
     </g>
    </g>
    <g id="xtick_23">
     <g id="line2d_23">
      <g>
       <use xlink:href="#mceb2be5de2" x="350.189207" y="307.584" style="stroke: #000000; stroke-width: 0.6"/>
      </g>
     </g>
    </g>
    <g id="xtick_24">
     <g id="line2d_24">
      <g>
       <use xlink:href="#mceb2be5de2" x="359.338488" y="307.584" style="stroke: #000000; stroke-width: 0.6"/>
      </g>
     </g>
    </g>
    <g id="xtick_25">
     <g id="line2d_25">
      <g>
       <use xlink:href="#mceb2be5de2" x="367.074096" y="307.584" style="stroke: #000000; stroke-width: 0.6"/>
      </g>
     </g>
    </g>
    <g id="xtick_26">
     <g id="line2d_26">
      <g>
       <use xlink:href="#mceb2be5de2" x="373.774983" y="307.584" style="stroke: #000000; stroke-width: 0.6"/>
      </g>
     </g>
    </g>
    <g id="xtick_27">
     <g id="line2d_27">
      <g>
       <use xlink:href="#mceb2be5de2" x="379.685585" y="307.584" style="stroke: #000000; stroke-width: 0.6"/>
      </g>
     </g>
    </g>
    <g id="text_4">
     <!-- Log time  -->
     <g transform="translate(212.75375 335.860562) scale(0.1 -0.1)">
      <defs>
       <path id="DejaVuSans-4c" d="M 628 4666 
L 1259 4666 
L 1259 531 
L 3531 531 
L 3531 0 
L 628 0 
L 628 4666 
z
" transform="scale(0.015625)"/>
       <path id="DejaVuSans-6f" d="M 1959 3097 
Q 1497 3097 1228 2736 
Q 959 2375 959 1747 
Q 959 1119 1226 758 
Q 1494 397 1959 397 
Q 2419 397 2687 759 
Q 2956 1122 2956 1747 
Q 2956 2369 2687 2733 
Q 2419 3097 1959 3097 
z
M 1959 3584 
Q 2709 3584 3137 3096 
Q 3566 2609 3566 1747 
Q 3566 888 3137 398 
Q 2709 -91 1959 -91 
Q 1206 -91 779 398 
Q 353 888 353 1747 
Q 353 2609 779 3096 
Q 1206 3584 1959 3584 
z
" transform="scale(0.015625)"/>
       <path id="DejaVuSans-67" d="M 2906 1791 
Q 2906 2416 2648 2759 
Q 2391 3103 1925 3103 
Q 1463 3103 1205 2759 
Q 947 2416 947 1791 
Q 947 1169 1205 825 
Q 1463 481 1925 481 
Q 2391 481 2648 825 
Q 2906 1169 2906 1791 
z
M 3481 434 
Q 3481 -459 3084 -895 
Q 2688 -1331 1869 -1331 
Q 1566 -1331 1297 -1286 
Q 1028 -1241 775 -1147 
L 775 -588 
Q 1028 -725 1275 -790 
Q 1522 -856 1778 -856 
Q 2344 -856 2625 -561 
Q 2906 -266 2906 331 
L 2906 616 
Q 2728 306 2450 153 
Q 2172 0 1784 0 
Q 1141 0 747 490 
Q 353 981 353 1791 
Q 353 2603 747 3093 
Q 1141 3584 1784 3584 
Q 2172 3584 2450 3431 
Q 2728 3278 2906 2969 
L 2906 3500 
L 3481 3500 
L 3481 434 
z
" transform="scale(0.015625)"/>
       <path id="DejaVuSans-20" transform="scale(0.015625)"/>
       <path id="DejaVuSans-74" d="M 1172 4494 
L 1172 3500 
L 2356 3500 
L 2356 3053 
L 1172 3053 
L 1172 1153 
Q 1172 725 1289 603 
Q 1406 481 1766 481 
L 2356 481 
L 2356 0 
L 1766 0 
Q 1100 0 847 248 
Q 594 497 594 1153 
L 594 3053 
L 172 3053 
L 172 3500 
L 594 3500 
L 594 4494 
L 1172 4494 
z
" transform="scale(0.015625)"/>
       <path id="DejaVuSans-69" d="M 603 3500 
L 1178 3500 
L 1178 0 
L 603 0 
L 603 3500 
z
M 603 4863 
L 1178 4863 
L 1178 4134 
L 603 4134 
L 603 4863 
z
" transform="scale(0.015625)"/>
       <path id="DejaVuSans-6d" d="M 3328 2828 
Q 3544 3216 3844 3400 
Q 4144 3584 4550 3584 
Q 5097 3584 5394 3201 
Q 5691 2819 5691 2113 
L 5691 0 
L 5113 0 
L 5113 2094 
Q 5113 2597 4934 2840 
Q 4756 3084 4391 3084 
Q 3944 3084 3684 2787 
Q 3425 2491 3425 1978 
L 3425 0 
L 2847 0 
L 2847 2094 
Q 2847 2600 2669 2842 
Q 2491 3084 2119 3084 
Q 1678 3084 1418 2786 
Q 1159 2488 1159 1978 
L 1159 0 
L 581 0 
L 581 3500 
L 1159 3500 
L 1159 2956 
Q 1356 3278 1631 3431 
Q 1906 3584 2284 3584 
Q 2666 3584 2933 3390 
Q 3200 3197 3328 2828 
z
" transform="scale(0.015625)"/>
       <path id="DejaVuSans-65" d="M 3597 1894 
L 3597 1613 
L 953 1613 
Q 991 1019 1311 708 
Q 1631 397 2203 397 
Q 2534 397 2845 478 
Q 3156 559 3463 722 
L 3463 178 
Q 3153 47 2828 -22 
Q 2503 -91 2169 -91 
Q 1331 -91 842 396 
Q 353 884 353 1716 
Q 353 2575 817 3079 
Q 1281 3584 2069 3584 
Q 2775 3584 3186 3129 
Q 3597 2675 3597 1894 
z
M 3022 2063 
Q 3016 2534 2758 2815 
Q 2500 3097 2075 3097 
Q 1594 3097 1305 2825 
Q 1016 2553 972 2059 
L 3022 2063 
z
" transform="scale(0.015625)"/>
      </defs>
      <use xlink:href="#DejaVuSans-4c"/>
      <use xlink:href="#DejaVuSans-6f" transform="translate(53.962891 0)"/>
      <use xlink:href="#DejaVuSans-67" transform="translate(115.144531 0)"/>
      <use xlink:href="#DejaVuSans-20" transform="translate(178.621094 0)"/>
      <use xlink:href="#DejaVuSans-74" transform="translate(210.408203 0)"/>
      <use xlink:href="#DejaVuSans-69" transform="translate(249.617188 0)"/>
      <use xlink:href="#DejaVuSans-6d" transform="translate(277.400391 0)"/>
      <use xlink:href="#DejaVuSans-65" transform="translate(374.8125 0)"/>
      <use xlink:href="#DejaVuSans-20" transform="translate(436.335938 0)"/>
     </g>
    </g>
   </g>
   <g id="matplotlib.axis_2">
    <g id="ytick_1">
     <g id="line2d_28">
      <defs>
       <path id="ma05d4b6952" d="M 0 0 
L -3.5 0 
" style="stroke: #000000; stroke-width: 0.8"/>
      </defs>
      <g>
       <use xlink:href="#ma05d4b6952" x="57.6" y="307.584" style="stroke: #000000; stroke-width: 0.8"/>
      </g>
     </g>
     <g id="text_5">
      <!-- 0.0 -->
      <g transform="translate(34.696875 311.383219) scale(0.1 -0.1)">
       <defs>
        <path id="DejaVuSans-2e" d="M 684 794 
L 1344 794 
L 1344 0 
L 684 0 
L 684 794 
z
" transform="scale(0.015625)"/>
       </defs>
       <use xlink:href="#DejaVuSans-30"/>
       <use xlink:href="#DejaVuSans-2e" transform="translate(63.623047 0)"/>
       <use xlink:href="#DejaVuSans-30" transform="translate(95.410156 0)"/>
      </g>
     </g>
    </g>
    <g id="ytick_2">
     <g id="line2d_29">
      <g>
       <use xlink:href="#ma05d4b6952" x="57.6" y="254.3616" style="stroke: #000000; stroke-width: 0.8"/>
      </g>
     </g>
     <g id="text_6">
      <!-- 0.2 -->
      <g transform="translate(34.696875 258.160819) scale(0.1 -0.1)">
       <use xlink:href="#DejaVuSans-30"/>
       <use xlink:href="#DejaVuSans-2e" transform="translate(63.623047 0)"/>
       <use xlink:href="#DejaVuSans-32" transform="translate(95.410156 0)"/>
      </g>
     </g>
    </g>
    <g id="ytick_3">
     <g id="line2d_30">
      <g>
       <use xlink:href="#ma05d4b6952" x="57.6" y="201.1392" style="stroke: #000000; stroke-width: 0.8"/>
      </g>
     </g>
     <g id="text_7">
      <!-- 0.4 -->
      <g transform="translate(34.696875 204.938419) scale(0.1 -0.1)">
       <use xlink:href="#DejaVuSans-30"/>
       <use xlink:href="#DejaVuSans-2e" transform="translate(63.623047 0)"/>
       <use xlink:href="#DejaVuSans-34" transform="translate(95.410156 0)"/>
      </g>
     </g>
    </g>
    <g id="ytick_4">
     <g id="line2d_31">
      <g>
       <use xlink:href="#ma05d4b6952" x="57.6" y="147.9168" style="stroke: #000000; stroke-width: 0.8"/>
      </g>
     </g>
     <g id="text_8">
      <!-- 0.6 -->
      <g transform="translate(34.696875 151.716019) scale(0.1 -0.1)">
       <defs>
        <path id="DejaVuSans-36" d="M 2113 2584 
Q 1688 2584 1439 2293 
Q 1191 2003 1191 1497 
Q 1191 994 1439 701 
Q 1688 409 2113 409 
Q 2538 409 2786 701 
Q 3034 994 3034 1497 
Q 3034 2003 2786 2293 
Q 2538 2584 2113 2584 
z
M 3366 4563 
L 3366 3988 
Q 3128 4100 2886 4159 
Q 2644 4219 2406 4219 
Q 1781 4219 1451 3797 
Q 1122 3375 1075 2522 
Q 1259 2794 1537 2939 
Q 1816 3084 2150 3084 
Q 2853 3084 3261 2657 
Q 3669 2231 3669 1497 
Q 3669 778 3244 343 
Q 2819 -91 2113 -91 
Q 1303 -91 875 529 
Q 447 1150 447 2328 
Q 447 3434 972 4092 
Q 1497 4750 2381 4750 
Q 2619 4750 2861 4703 
Q 3103 4656 3366 4563 
z
" transform="scale(0.015625)"/>
       </defs>
       <use xlink:href="#DejaVuSans-30"/>
       <use xlink:href="#DejaVuSans-2e" transform="translate(63.623047 0)"/>
       <use xlink:href="#DejaVuSans-36" transform="translate(95.410156 0)"/>
      </g>
     </g>
    </g>
    <g id="ytick_5">
     <g id="line2d_32">
      <g>
       <use xlink:href="#ma05d4b6952" x="57.6" y="94.6944" style="stroke: #000000; stroke-width: 0.8"/>
      </g>
     </g>
     <g id="text_9">
      <!-- 0.8 -->
      <g transform="translate(34.696875 98.493619) scale(0.1 -0.1)">
       <defs>
        <path id="DejaVuSans-38" d="M 2034 2216 
Q 1584 2216 1326 1975 
Q 1069 1734 1069 1313 
Q 1069 891 1326 650 
Q 1584 409 2034 409 
Q 2484 409 2743 651 
Q 3003 894 3003 1313 
Q 3003 1734 2745 1975 
Q 2488 2216 2034 2216 
z
M 1403 2484 
Q 997 2584 770 2862 
Q 544 3141 544 3541 
Q 544 4100 942 4425 
Q 1341 4750 2034 4750 
Q 2731 4750 3128 4425 
Q 3525 4100 3525 3541 
Q 3525 3141 3298 2862 
Q 3072 2584 2669 2484 
Q 3125 2378 3379 2068 
Q 3634 1759 3634 1313 
Q 3634 634 3220 271 
Q 2806 -91 2034 -91 
Q 1263 -91 848 271 
Q 434 634 434 1313 
Q 434 1759 690 2068 
Q 947 2378 1403 2484 
z
M 1172 3481 
Q 1172 3119 1398 2916 
Q 1625 2713 2034 2713 
Q 2441 2713 2670 2916 
Q 2900 3119 2900 3481 
Q 2900 3844 2670 4047 
Q 2441 4250 2034 4250 
Q 1625 4250 1398 4047 
Q 1172 3844 1172 3481 
z
" transform="scale(0.015625)"/>
       </defs>
       <use xlink:href="#DejaVuSans-30"/>
       <use xlink:href="#DejaVuSans-2e" transform="translate(63.623047 0)"/>
       <use xlink:href="#DejaVuSans-38" transform="translate(95.410156 0)"/>
      </g>
     </g>
    </g>
    <g id="ytick_6">
     <g id="line2d_33">
      <g>
       <use xlink:href="#ma05d4b6952" x="57.6" y="41.472" style="stroke: #000000; stroke-width: 0.8"/>
      </g>
     </g>
     <g id="text_10">
      <!-- 1.0 -->
      <g transform="translate(34.696875 45.271219) scale(0.1 -0.1)">
       <use xlink:href="#DejaVuSans-31"/>
       <use xlink:href="#DejaVuSans-2e" transform="translate(63.623047 0)"/>
       <use xlink:href="#DejaVuSans-30" transform="translate(95.410156 0)"/>
      </g>
     </g>
    </g>
    <g id="text_11">
     <!-- Percent of filled traps -->
     <g transform="translate(28.617187 227.95925) rotate(-90) scale(0.1 -0.1)">
      <defs>
       <path id="DejaVuSans-50" d="M 1259 4147 
L 1259 2394 
L 2053 2394 
Q 2494 2394 2734 2622 
Q 2975 2850 2975 3272 
Q 2975 3691 2734 3919 
Q 2494 4147 2053 4147 
L 1259 4147 
z
M 628 4666 
L 2053 4666 
Q 2838 4666 3239 4311 
Q 3641 3956 3641 3272 
Q 3641 2581 3239 2228 
Q 2838 1875 2053 1875 
L 1259 1875 
L 1259 0 
L 628 0 
L 628 4666 
z
" transform="scale(0.015625)"/>
       <path id="DejaVuSans-72" d="M 2631 2963 
Q 2534 3019 2420 3045 
Q 2306 3072 2169 3072 
Q 1681 3072 1420 2755 
Q 1159 2438 1159 1844 
L 1159 0 
L 581 0 
L 581 3500 
L 1159 3500 
L 1159 2956 
Q 1341 3275 1631 3429 
Q 1922 3584 2338 3584 
Q 2397 3584 2469 3576 
Q 2541 3569 2628 3553 
L 2631 2963 
z
" transform="scale(0.015625)"/>
       <path id="DejaVuSans-63" d="M 3122 3366 
L 3122 2828 
Q 2878 2963 2633 3030 
Q 2388 3097 2138 3097 
Q 1578 3097 1268 2742 
Q 959 2388 959 1747 
Q 959 1106 1268 751 
Q 1578 397 2138 397 
Q 2388 397 2633 464 
Q 2878 531 3122 666 
L 3122 134 
Q 2881 22 2623 -34 
Q 2366 -91 2075 -91 
Q 1284 -91 818 406 
Q 353 903 353 1747 
Q 353 2603 823 3093 
Q 1294 3584 2113 3584 
Q 2378 3584 2631 3529 
Q 2884 3475 3122 3366 
z
" transform="scale(0.015625)"/>
       <path id="DejaVuSans-6e" d="M 3513 2113 
L 3513 0 
L 2938 0 
L 2938 2094 
Q 2938 2591 2744 2837 
Q 2550 3084 2163 3084 
Q 1697 3084 1428 2787 
Q 1159 2491 1159 1978 
L 1159 0 
L 581 0 
L 581 3500 
L 1159 3500 
L 1159 2956 
Q 1366 3272 1645 3428 
Q 1925 3584 2291 3584 
Q 2894 3584 3203 3211 
Q 3513 2838 3513 2113 
z
" transform="scale(0.015625)"/>
       <path id="DejaVuSans-66" d="M 2375 4863 
L 2375 4384 
L 1825 4384 
Q 1516 4384 1395 4259 
Q 1275 4134 1275 3809 
L 1275 3500 
L 2222 3500 
L 2222 3053 
L 1275 3053 
L 1275 0 
L 697 0 
L 697 3053 
L 147 3053 
L 147 3500 
L 697 3500 
L 697 3744 
Q 697 4328 969 4595 
Q 1241 4863 1831 4863 
L 2375 4863 
z
" transform="scale(0.015625)"/>
       <path id="DejaVuSans-6c" d="M 603 4863 
L 1178 4863 
L 1178 0 
L 603 0 
L 603 4863 
z
" transform="scale(0.015625)"/>
       <path id="DejaVuSans-64" d="M 2906 2969 
L 2906 4863 
L 3481 4863 
L 3481 0 
L 2906 0 
L 2906 525 
Q 2725 213 2448 61 
Q 2172 -91 1784 -91 
Q 1150 -91 751 415 
Q 353 922 353 1747 
Q 353 2572 751 3078 
Q 1150 3584 1784 3584 
Q 2172 3584 2448 3432 
Q 2725 3281 2906 2969 
z
M 947 1747 
Q 947 1113 1208 752 
Q 1469 391 1925 391 
Q 2381 391 2643 752 
Q 2906 1113 2906 1747 
Q 2906 2381 2643 2742 
Q 2381 3103 1925 3103 
Q 1469 3103 1208 2742 
Q 947 2381 947 1747 
z
" transform="scale(0.015625)"/>
       <path id="DejaVuSans-61" d="M 2194 1759 
Q 1497 1759 1228 1600 
Q 959 1441 959 1056 
Q 959 750 1161 570 
Q 1363 391 1709 391 
Q 2188 391 2477 730 
Q 2766 1069 2766 1631 
L 2766 1759 
L 2194 1759 
z
M 3341 1997 
L 3341 0 
L 2766 0 
L 2766 531 
Q 2569 213 2275 61 
Q 1981 -91 1556 -91 
Q 1019 -91 701 211 
Q 384 513 384 1019 
Q 384 1609 779 1909 
Q 1175 2209 1959 2209 
L 2766 2209 
L 2766 2266 
Q 2766 2663 2505 2880 
Q 2244 3097 1772 3097 
Q 1472 3097 1187 3025 
Q 903 2953 641 2809 
L 641 3341 
Q 956 3463 1253 3523 
Q 1550 3584 1831 3584 
Q 2591 3584 2966 3190 
Q 3341 2797 3341 1997 
z
" transform="scale(0.015625)"/>
       <path id="DejaVuSans-70" d="M 1159 525 
L 1159 -1331 
L 581 -1331 
L 581 3500 
L 1159 3500 
L 1159 2969 
Q 1341 3281 1617 3432 
Q 1894 3584 2278 3584 
Q 2916 3584 3314 3078 
Q 3713 2572 3713 1747 
Q 3713 922 3314 415 
Q 2916 -91 2278 -91 
Q 1894 -91 1617 61 
Q 1341 213 1159 525 
z
M 3116 1747 
Q 3116 2381 2855 2742 
Q 2594 3103 2138 3103 
Q 1681 3103 1420 2742 
Q 1159 2381 1159 1747 
Q 1159 1113 1420 752 
Q 1681 391 2138 391 
Q 2594 391 2855 752 
Q 3116 1113 3116 1747 
z
" transform="scale(0.015625)"/>
       <path id="DejaVuSans-73" d="M 2834 3397 
L 2834 2853 
Q 2591 2978 2328 3040 
Q 2066 3103 1784 3103 
Q 1356 3103 1142 2972 
Q 928 2841 928 2578 
Q 928 2378 1081 2264 
Q 1234 2150 1697 2047 
L 1894 2003 
Q 2506 1872 2764 1633 
Q 3022 1394 3022 966 
Q 3022 478 2636 193 
Q 2250 -91 1575 -91 
Q 1294 -91 989 -36 
Q 684 19 347 128 
L 347 722 
Q 666 556 975 473 
Q 1284 391 1588 391 
Q 1994 391 2212 530 
Q 2431 669 2431 922 
Q 2431 1156 2273 1281 
Q 2116 1406 1581 1522 
L 1381 1569 
Q 847 1681 609 1914 
Q 372 2147 372 2553 
Q 372 3047 722 3315 
Q 1072 3584 1716 3584 
Q 2034 3584 2315 3537 
Q 2597 3491 2834 3397 
z
" transform="scale(0.015625)"/>
      </defs>
      <use xlink:href="#DejaVuSans-50"/>
      <use xlink:href="#DejaVuSans-65" transform="translate(56.677734 0)"/>
      <use xlink:href="#DejaVuSans-72" transform="translate(118.201172 0)"/>
      <use xlink:href="#DejaVuSans-63" transform="translate(157.064453 0)"/>
      <use xlink:href="#DejaVuSans-65" transform="translate(212.044922 0)"/>
      <use xlink:href="#DejaVuSans-6e" transform="translate(273.568359 0)"/>
      <use xlink:href="#DejaVuSans-74" transform="translate(336.947266 0)"/>
      <use xlink:href="#DejaVuSans-20" transform="translate(376.15625 0)"/>
      <use xlink:href="#DejaVuSans-6f" transform="translate(407.943359 0)"/>
      <use xlink:href="#DejaVuSans-66" transform="translate(469.125 0)"/>
      <use xlink:href="#DejaVuSans-20" transform="translate(504.330078 0)"/>
      <use xlink:href="#DejaVuSans-66" transform="translate(536.117188 0)"/>
      <use xlink:href="#DejaVuSans-69" transform="translate(571.322266 0)"/>
      <use xlink:href="#DejaVuSans-6c" transform="translate(599.105469 0)"/>
      <use xlink:href="#DejaVuSans-6c" transform="translate(626.888672 0)"/>
      <use xlink:href="#DejaVuSans-65" transform="translate(654.671875 0)"/>
      <use xlink:href="#DejaVuSans-64" transform="translate(716.195312 0)"/>
      <use xlink:href="#DejaVuSans-20" transform="translate(779.671875 0)"/>
      <use xlink:href="#DejaVuSans-74" transform="translate(811.458984 0)"/>
      <use xlink:href="#DejaVuSans-72" transform="translate(850.667969 0)"/>
      <use xlink:href="#DejaVuSans-61" transform="translate(891.78125 0)"/>
      <use xlink:href="#DejaVuSans-70" transform="translate(953.060547 0)"/>
      <use xlink:href="#DejaVuSans-73" transform="translate(1016.537109 0)"/>
     </g>
    </g>
   </g>
   <g id="line2d_34">
    <path d="M 73.832727 304.534356 
L 74.299991 304.411945 
L 76.539517 304.289533 
L 76.539517 304.156477 
L 79.050582 304.023421 
L 79.168204 303.890365 
L 79.454258 303.757309 
L 80.320562 303.613609 
L 80.320562 303.480553 
L 90.466954 302.639639 
L 90.867493 302.495939 
L 96.078567 302.352238 
L 96.078567 302.219182 
L 101.232233 301.841303 
L 101.866705 301.718892 
L 101.866705 301.585836 
L 103.938474 301.330368 
L 106.389668 301.064256 
L 106.989829 300.9312 
L 109.039178 300.643799 
L 109.039178 300.500099 
L 110.355729 300.212698 
L 110.355729 300.05303 
L 112.125614 299.574029 
L 117.932316 299.095027 
L 117.932316 298.93536 
L 119.222953 298.786337 
L 119.222953 298.62667 
L 119.384582 298.467003 
L 119.384582 298.307336 
L 119.649235 298.137024 
L 120.178238 297.977357 
L 122.611102 297.807045 
L 123.318972 297.636733 
L 123.318972 297.466422 
L 125.567556 297.125798 
L 125.735478 296.955487 
L 130.11825 296.27424 
L 130.334418 295.933617 
L 132.614202 295.603638 
L 132.843934 295.140603 
L 134.837448 294.821268 
L 134.837448 294.666924 
L 135.355848 294.501934 
L 136.300979 294.336945 
L 136.385363 294.161311 
L 136.800652 293.985677 
L 136.800652 293.810043 
L 137.020003 293.634409 
L 137.535836 293.46942 
L 137.706998 293.293786 
L 138.074614 293.118152 
L 138.106248 292.953162 
L 138.449697 292.788173 
L 138.533395 292.623183 
L 139.839598 292.458194 
L 139.839598 292.293204 
L 141.705871 291.963226 
L 142.79964 291.803558 
L 142.79964 291.643891 
L 143.210058 291.484224 
L 143.210058 291.324557 
L 143.761961 291.16489 
L 143.841504 291.005222 
L 144.273284 290.845555 
L 144.354527 290.515576 
L 144.803703 290.345265 
L 146.070117 290.180275 
L 146.163375 290.015286 
L 147.222966 289.339361 
L 147.479071 289.185016 
L 150.423556 289.030671 
L 150.423556 288.886971 
L 150.825971 288.74327 
L 151.985195 288.610214 
L 152.03659 288.477158 
L 152.653868 288.072668 
L 153.913592 287.785267 
L 154.054607 287.210465 
L 154.46528 287.066765 
L 154.467431 286.923064 
L 154.69576 286.768719 
L 155.846818 286.470674 
L 156.070797 286.326973 
L 157.219381 286.050217 
L 157.306121 285.784105 
L 158.292337 285.517993 
L 158.356856 285.118825 
L 158.847508 284.985769 
L 158.847508 284.852713 
L 160.26489 284.719657 
L 160.475899 284.458867 
L 161.175485 284.325811 
L 161.175485 284.192755 
L 161.906245 283.947932 
L 162.466067 283.570053 
L 164.11482 283.346519 
L 164.161553 283.11234 
L 164.645253 282.888806 
L 164.751805 282.670595 
L 167.081969 282.44706 
L 167.081969 282.329971 
L 167.711741 282.212882 
L 167.732472 282.09047 
L 168.647307 281.835003 
L 168.661323 281.701947 
L 169.943044 281.435835 
L 169.964953 281.313423 
L 170.887266 281.180367 
L 170.923862 280.908933 
L 171.050589 280.531054 
L 171.050589 280.408643 
L 171.230616 280.291553 
L 171.73293 280.04673 
L 171.739086 279.801907 
L 172.026931 279.684818 
L 172.026931 279.557084 
L 172.772609 279.439995 
L 172.772609 279.322906 
L 173.274249 278.992927 
L 173.339397 278.886482 
L 174.950579 278.561825 
L 176.244045 278.343613 
L 176.358651 278.237169 
L 176.689291 278.013635 
L 176.689291 277.90719 
L 177.12093 277.545277 
L 177.845183 277.311099 
L 177.845183 277.19401 
L 178.278264 276.949187 
L 178.278264 276.821453 
L 178.4873 276.683075 
L 178.522615 276.118917 
L 178.785627 275.975217 
L 179.633097 275.69846 
L 179.805734 275.432348 
L 180.58056 275.299292 
L 180.78182 275.011891 
L 181.471684 274.878835 
L 181.471684 274.745779 
L 181.966348 274.479667 
L 182.232148 274.2242 
L 182.232148 274.091144 
L 183.116293 273.590853 
L 183.17054 273.457797 
L 183.494757 273.324741 
L 184.614783 273.058629 
L 184.614783 272.925573 
L 185.633596 272.638172 
L 185.763531 272.382705 
L 185.836464 272.254971 
L 186.853149 271.898381 
L 187.711259 271.674847 
L 187.894872 271.227779 
L 188.821354 270.711521 
L 188.90469 270.615721 
L 189.868442 270.42412 
L 189.868442 270.32832 
L 190.090056 270.126075 
L 190.440884 269.689651 
L 190.608066 269.285161 
L 190.608066 269.189361 
L 190.943103 268.976471 
L 191.69579 268.348447 
L 191.725547 268.257969 
L 192.417599 268.066368 
L 192.84756 267.970568 
L 194.179034 267.778967 
L 194.991658 267.475599 
L 195.106873 267.278676 
L 195.890426 267.092398 
L 196.014661 266.78903 
L 197.13691 266.443085 
L 197.36614 265.841672 
L 197.871556 265.708616 
L 197.928748 265.229614 
L 198.868168 264.729324 
L 198.868168 264.638845 
L 200.870775 263.622298 
L 201.333183 263.436019 
L 201.333183 263.334897 
L 201.722026 263.122007 
L 201.922827 262.925084 
L 202.139124 262.632361 
L 202.68808 262.424794 
L 203.194401 262.078848 
L 203.194401 261.961759 
L 203.911936 261.844669 
L 203.911936 261.72758 
L 204.151103 261.493402 
L 204.94622 260.907955 
L 205.368945 260.684421 
L 205.750171 259.971241 
L 205.750171 259.838185 
L 206.74909 259.348539 
L 207.945198 258.837604 
L 208.959941 258.055235 
L 208.959941 257.938145 
L 209.196556 257.714611 
L 209.196556 257.602844 
L 210.111756 256.719352 
L 210.148516 256.517107 
L 210.743929 256.336151 
L 210.771903 256.064717 
L 211.188604 255.894405 
L 211.189963 255.745382 
L 211.48973 255.591037 
L 211.520957 255.43137 
L 211.761449 255.250414 
L 212.521997 254.462723 
L 212.521997 254.398856 
L 213.011499 254.2179 
L 213.410756 253.754865 
L 214.258547 253.456819 
L 214.360228 253.233285 
L 214.900129 252.434949 
L 215.136905 251.977236 
L 215.244096 251.737736 
L 215.517516 251.503557 
L 215.741214 251.280023 
L 215.744299 251.157612 
L 216.190335 250.742477 
L 216.258211 250.646676 
L 216.651244 250.391209 
L 216.753665 250.114452 
L 217.357974 249.544973 
L 217.64612 249.30015 
L 217.975685 248.906304 
L 218.751788 248.390047 
L 218.751788 248.150546 
L 219.39256 247.618322 
L 219.769099 247.426721 
L 219.967728 247.229798 
L 219.997638 247.128676 
L 220.774423 246.697574 
L 220.838461 246.293084 
L 220.935306 246.122772 
L 221.538202 245.846016 
L 221.688313 245.654415 
L 221.772346 245.45217 
L 221.772346 245.351048 
L 222.487317 244.994458 
L 222.871059 244.829468 
L 223.034673 244.568678 
L 224.168145 243.791631 
L 224.26581 243.631964 
L 224.399319 243.371174 
L 224.399319 243.275374 
L 225.061472 243.083773 
L 225.78787 241.785147 
L 225.862065 241.593546 
L 226.225435 241.109222 
L 226.969798 240.69941 
L 227.024385 240.465231 
L 227.220254 239.991552 
L 227.315577 239.427395 
L 227.994295 238.581158 
L 228.832284 237.798789 
L 229.408501 237.51671 
L 229.606369 237.229309 
L 229.61035 237.021742 
L 229.992947 236.808852 
L 230.850334 235.776338 
L 231.008124 235.249436 
L 231.46503 235.041869 
L 231.527203 234.75979 
L 232.107907 233.764531 
L 232.197299 233.498419 
L 232.388418 233.12054 
L 232.486129 232.221082 
L 233.452074 231.805947 
L 233.452074 231.667569 
L 233.730956 231.390812 
L 234.190404 230.736177 
L 234.540806 230.464742 
L 234.683775 230.203953 
L 235.220992 229.091604 
L 235.481199 228.830815 
L 235.481544 228.452936 
L 235.925532 227.957967 
L 235.984504 227.601377 
L 236.115337 227.494932 
L 236.674828 227.282043 
L 236.762345 226.797719 
L 236.940144 226.542252 
L 237.173451 225.988739 
L 237.304497 225.775849 
L 237.655605 225.318136 
L 237.673653 225.105247 
L 237.916281 224.908324 
L 237.916281 224.812524 
L 239.184322 224.344166 
L 239.395612 223.673564 
L 239.904405 223.263752 
L 240.183407 223.082796 
L 240.261663 222.795395 
L 240.425202 222.406871 
L 240.883161 222.11947 
L 241.537687 221.395645 
L 241.537687 221.315812 
L 242.124396 220.948577 
L 242.47994 220.639887 
L 242.897693 220.176852 
L 243.02743 219.798973 
L 243.181032 219.628662 
L 243.205002 219.447706 
L 243.878531 219.085793 
L 244.233293 218.675981 
L 244.331355 218.526958 
L 244.431277 218.377935 
L 244.435379 218.228913 
L 244.965745 217.968123 
L 245.083923 217.616855 
L 245.408275 217.457188 
L 245.417431 217.207043 
L 246.083493 216.855775 
L 246.247384 216.515151 
L 246.520729 216.147917 
L 246.743425 215.977605 
L 246.844958 215.413448 
L 247.036309 214.70559 
L 247.233383 213.529375 
L 247.970742 212.794906 
L 248.134149 212.369126 
L 249.008747 211.613368 
L 249.176878 210.969377 
L 249.202356 210.692621 
L 249.66174 210.495698 
L 249.66174 210.399898 
L 249.884691 210.187008 
L 250.254748 208.962893 
L 250.545521 208.611625 
L 250.669622 208.24439 
L 250.894322 208.079401 
L 251.063811 207.525888 
L 251.415021 207.254454 
L 251.44838 206.897864 
L 251.857567 206.541274 
L 251.957605 206.285806 
L 252.555043 205.279903 
L 252.902797 204.997824 
L 253.01372 204.577367 
L 253.751203 203.592753 
L 253.771719 203.454374 
L 254.011732 203.177618 
L 254.448482 201.990758 
L 254.750638 201.783191 
L 255.454613 200.644232 
L 255.607218 200.489887 
L 255.686689 200.127974 
L 255.808739 200.000241 
L 255.808739 199.931052 
L 256.137982 199.792673 
L 256.178297 199.728806 
L 256.396339 199.553172 
L 256.546748 199.441405 
L 256.791562 199.244483 
L 256.831105 199.020948 
L 257.377919 198.712259 
L 257.467186 198.302446 
L 257.651115 197.935212 
L 258.424401 197.546688 
L 258.578093 197.142198 
L 258.703521 196.923986 
L 258.737137 196.237417 
L 258.919069 196.051139 
L 259.044138 195.705193 
L 259.353592 195.524237 
L 259.459461 194.84299 
L 259.601115 194.688645 
L 259.753309 194.544945 
L 259.753309 194.395922 
L 260.213498 194.198999 
L 260.213498 194.12981 
L 260.384752 193.954176 
L 260.459439 193.778542 
L 260.672791 193.618875 
L 261.002127 193.363407 
L 261.002127 193.320829 
L 261.781353 193.028106 
L 261.966505 192.692805 
L 262.10167 192.298959 
L 262.57394 192.096714 
L 262.632762 191.995592 
L 262.813292 191.697546 
L 263.31574 191.117422 
L 264.240712 190.531976 
L 264.501938 190.148774 
L 264.635885 189.999752 
L 264.712295 189.786862 
L 265.1142 189.483494 
L 265.223266 189.004493 
L 265.298773 188.722414 
L 265.314338 188.323246 
L 266.687294 186.944786 
L 267.027153 186.135805 
L 267.453068 185.704704 
L 267.453068 185.614226 
L 267.614504 185.443914 
L 267.717786 185.12458 
L 267.773006 184.810568 
L 267.873534 184.464622 
L 268.121167 183.93772 
L 268.348462 183.809987 
L 268.36812 183.687575 
L 269.0083 183.495974 
L 269.197799 182.734894 
L 269.620728 181.862047 
L 270.145208 181.39369 
L 270.229369 181.234022 
L 270.651644 180.72841 
L 270.751605 180.361175 
L 270.812062 180.142963 
L 270.884112 179.924751 
L 271.013565 179.557517 
L 271.253651 179.131738 
L 271.253651 179.08916 
L 271.698706 178.854981 
L 271.770875 178.604836 
L 271.838481 178.402591 
L 272.258617 178.024712 
L 272.334819 177.912945 
L 272.461061 177.652155 
L 272.543471 177.18912 
L 272.724365 176.758019 
L 272.768617 176.422717 
L 273.532746 176.050161 
L 273.536821 175.917105 
L 273.889027 175.619059 
L 274.020235 175.267791 
L 274.394182 175.081513 
L 274.506725 174.586545 
L 274.737143 174.304466 
L 275.220637 173.825464 
L 275.222847 173.660475 
L 275.682696 173.463552 
L 275.883339 173.229373 
L 276.073256 173.037773 
L 276.252814 172.824883 
L 277.067657 172.212826 
L 277.225831 172.063803 
L 277.48539 171.435779 
L 277.742127 171.036611 
L 277.83891 170.898232 
L 277.937419 170.743887 
L 278.328306 170.296819 
L 278.612019 169.498483 
L 278.684014 169.328172 
L 278.815635 169.06206 
L 279.118998 168.774659 
L 279.381399 168.226468 
L 279.81431 167.853911 
L 279.922619 167.523932 
L 279.996019 167.364265 
L 280.345314 167.119442 
L 280.532767 166.608507 
L 280.950793 166.374328 
L 281.177524 166.028383 
L 281.343258 165.852749 
L 281.466283 165.416325 
L 281.826205 165.07038 
L 282.022212 164.543478 
L 282.378891 164.351877 
L 282.492392 164.24011 
L 282.738732 163.968676 
L 282.96925 163.319363 
L 283.054523 162.973417 
L 283.231902 162.276204 
L 283.524441 161.988803 
L 283.615645 161.610924 
L 284.180905 161.057411 
L 284.527919 160.312297 
L 285.012927 159.556539 
L 285.431084 157.661821 
L 285.56071 157.390387 
L 285.67241 157.204109 
L 285.923639 156.964608 
L 286.118003 156.677207 
L 286.537506 155.99596 
L 286.791321 155.44777 
L 287.580639 153.739331 
L 287.734058 152.946317 
L 288.728557 151.072888 
L 289.096382 149.635884 
L 289.260867 149.359127 
L 289.631725 148.023245 
L 289.883366 146.910897 
L 290.344413 146.623496 
L 290.562866 146.479795 
L 290.676643 146.187072 
L 290.779607 145.92096 
L 290.950065 145.670815 
L 291.746214 144.382833 
L 292.383028 144.180588 
L 292.507589 144.026243 
L 292.885337 143.802708 
L 293.660062 142.631816 
L 294.479299 142.041047 
L 294.588036 141.689779 
L 294.665809 141.104333 
L 294.721588 140.263419 
L 295.176731 139.88554 
L 295.247638 139.67265 
L 295.498795 139.300093 
L 295.937049 138.054689 
L 296.243206 136.623007 
L 296.39127 136.447373 
L 296.610517 135.920471 
L 296.690366 135.611781 
L 296.839411 135.37228 
L 296.945849 135.164713 
L 297.542429 134.935857 
L 297.646177 134.621844 
L 297.754332 134.403633 
L 297.834308 134.307832 
L 298.107699 134.121554 
L 298.306034 133.94592 
L 298.592034 133.669164 
L 298.86857 133.301929 
L 299.07934 132.92405 
L 299.21777 132.727127 
L 299.313225 132.530204 
L 299.406921 131.870246 
L 299.893917 130.704676 
L 300.435442 130.225674 
L 300.564091 130.023429 
L 300.697987 129.815862 
L 300.799033 129.092037 
L 301.135387 128.41079 
L 301.236277 128.17129 
L 301.482118 127.974367 
L 301.651476 127.851955 
L 301.677827 127.883889 
L 302.585397 127.585843 
L 302.846069 127.234575 
L 303.078647 127.016364 
L 303.390964 126.739607 
L 303.599211 126.41495 
L 304.023552 125.898693 
L 304.13381 125.350502 
L 304.652595 124.152998 
L 305.106881 123.791086 
L 305.200723 123.604808 
L 305.402744 123.131128 
L 305.662183 122.487137 
L 306.028193 122.364726 
L 306.168895 121.779279 
L 306.366238 121.61429 
L 306.524016 121.374789 
L 306.796974 121.135288 
L 307.072874 120.879821 
L 307.216052 120.634998 
L 307.990208 118.85737 
L 308.094035 118.197412 
L 308.696905 117.431009 
L 308.926741 117.10103 
L 309.026084 116.989263 
L 309.855401 116.707185 
L 310.239685 116.558162 
L 310.472232 115.962071 
L 310.74457 115.371302 
L 310.911071 114.982779 
L 311.29615 114.562322 
L 311.635213 113.652219 
L 311.905153 113.439329 
L 312.015502 113.290307 
L 312.803208 112.167314 
L 313.168038 111.363656 
L 313.358188 111.076255 
L 314.139665 110.75692 
L 314.824401 109.410394 
L 314.962289 109.261371 
L 315.171313 108.729147 
L 315.296898 108.489646 
L 315.390395 107.984033 
L 315.498732 107.574221 
L 315.604994 106.839752 
L 316.216304 106.206405 
L 316.520161 105.43468 
L 316.573119 105.147279 
L 316.809559 104.487322 
L 316.99693 104.114765 
L 317.15373 103.790108 
L 317.261362 103.609152 
L 317.375405 103.449485 
L 318.206751 102.794849 
L 318.795884 101.458967 
L 319.124292 100.021962 
L 319.279617 99.633439 
L 319.410718 99.298138 
L 319.725044 98.845747 
L 320.120456 97.440676 
L 320.812673 95.955771 
L 321.512223 95.231946 
L 321.611548 95.013734 
L 321.965352 94.092987 
L 322.198012 93.778975 
L 322.464927 93.454318 
L 322.571337 93.369162 
L 324.038823 92.517604 
L 324.148257 92.240847 
L 324.386154 91.809746 
L 324.480008 91.527667 
L 324.699499 91.096566 
L 324.809579 90.718687 
L 325.035613 90.197107 
L 325.161548 89.98954 
L 325.28634 89.643594 
L 325.693709 89.457316 
L 326.354034 89.808584 
L 326.955738 89.036859 
L 327.146375 88.238523 
L 327.511641 88.030956 
L 328.191817 86.902641 
L 328.635165 86.652495 
L 328.921744 86.205427 
L 329.016037 86.067049 
L 329.155251 85.774326 
L 329.365842 85.635948 
L 329.547002 85.417736 
L 330.036637 85.215491 
L 330.431072 85.114368 
L 330.81391 84.922767 
L 331.499101 84.182976 
L 331.593142 83.900897 
L 331.856904 83.618819 
L 332.128463 82.809838 
L 332.373763 82.602271 
L 332.826711 82.064724 
L 332.909184 81.851835 
L 333.014882 81.713457 
L 333.591371 81.117366 
L 333.699488 80.931087 
L 333.897819 80.670298 
L 334.448199 79.792128 
L 334.799418 79.408927 
L 335.066308 78.456246 
L 335.246149 78.408346 
L 336.321824 78.131589 
L 336.475443 77.562109 
L 336.902504 77.34922 
L 337.451873 77.647265 
L 337.864977 77.551465 
L 337.864977 77.54082 
L 338.040519 77.359864 
L 338.24738 76.854252 
L 338.495141 76.439117 
L 338.972914 75.624814 
L 339.145519 75.385313 
L 339.394137 75.09259 
L 339.891419 74.421988 
L 340.054857 74.235709 
L 340.581141 73.868475 
L 340.685151 73.687519 
L 341.00765 73.346895 
L 341.35826 73.197873 
L 341.508117 73.09675 
L 341.811209 72.612426 
L 341.814533 72.607104 
L 341.895861 72.623071 
L 342.141745 72.452759 
L 342.241766 72.282447 
L 342.318193 72.165358 
L 342.448489 71.888602 
L 342.873786 71.872635 
L 343.060168 72.080202 
L 343.082978 72.021658 
L 343.257556 71.824735 
L 344.200532 71.106232 
L 344.273035 70.664486 
L 344.498266 70.116296 
L 344.86098 69.850184 
L 345.18019 69.605361 
L 345.331572 69.466982 
L 345.783034 69.387149 
L 347.117228 69.286026 
L 347.295207 69.051848 
L 347.423773 68.84428 
L 348.01124 68.60478 
L 348.594762 68.503657 
L 348.701398 68.328023 
L 349.136689 67.769188 
L 349.209547 67.577587 
L 349.313016 67.433887 
L 349.434718 67.183741 
L 349.571434 66.449272 
L 349.713485 66.140582 
L 349.851882 65.789315 
L 350.174295 65.145324 
L 350.282459 64.799378 
L 351.219124 64.389565 
L 351.611452 64.155387 
L 352.470434 63.862664 
L 352.71861 63.580585 
L 352.927818 62.97385 
L 353.479275 62.553393 
L 353.694468 62.367114 
L 353.900276 62.14358 
L 354.222673 61.829568 
L 354.378691 61.696512 
L 354.752223 61.590067 
L 355.746122 60.903498 
L 356.855744 60.546908 
L 357.518424 60.637386 
L 357.518424 60.648031 
L 357.804603 60.892854 
L 357.827022 60.770442 
L 357.942991 60.679964 
L 358.089981 60.477719 
L 358.38503 60.153062 
L 358.482213 59.860339 
L 358.593555 59.69535 
L 358.656335 59.737928 
L 359.020382 59.769861 
L 359.254337 59.450527 
L 359.357333 59.237637 
L 360.73138 58.758636 
L 361.075732 58.657513 
L 361.335272 58.338179 
L 361.518541 58.231734 
L 362.289277 58.338179 
L 362.585509 58.36479 
L 362.95358 58.093356 
L 363.0149 57.859177 
L 363.300189 56.358305 
L 363.90078 55.772859 
L 364.229163 55.341757 
L 364.467756 55.235313 
L 364.550197 55.08629 
L 364.68915 54.7776 
L 364.723447 54.671155 
L 364.830731 53.70783 
L 364.940603 54.085709 
L 365.050414 54.245376 
L 365.100732 54.106998 
L 365.17243 53.995231 
L 365.238949 54.027164 
L 365.799482 53.995231 
L 366.101084 53.441718 
L 366.346741 53.335273 
L 366.792647 52.989327 
L 366.983402 52.675315 
L 367.113282 52.728538 
L 367.346593 53.037228 
L 367.434474 52.936105 
L 367.533974 52.787082 
L 368.208403 52.297436 
L 368.275151 52.041969 
L 368.392765 51.797146 
L 368.433734 51.552323 
L 368.536602 51.424589 
L 368.645505 51.531034 
L 368.774614 51.642801 
L 368.957236 51.461844 
L 369.402783 50.583675 
L 369.859838 50.519808 
L 372.120694 50.626253 
L 372.139698 50.722053 
L 372.216041 50.578353 
L 372.493291 50.184507 
L 372.724832 49.923717 
L 372.878377 49.71615 
L 372.935581 49.886461 
L 373.310046 49.939684 
L 373.815243 49.721472 
L 374.693374 49.615027 
L 375.82325 48.939103 
L 376.07565 48.614446 
L 376.316076 48.332367 
L 376.488197 48.199311 
L 376.901523 48.130122 
L 377.19833 48.380268 
L 377.230048 48.390912 
L 377.288676 48.193989 
L 377.568661 47.858688 
L 378.005992 47.592576 
L 378.205001 47.486131 
L 378.713894 47.113574 
L 379.116934 47.124219 
L 379.545166 47.118897 
L 379.855448 46.991163 
L 379.989677 47.177441 
L 380.17716 47.326464 
L 381.523053 47.225341 
L 381.74769 46.991163 
L 382.069554 46.79424 
L 383.492927 46.687795 
L 383.918834 46.565384 
L 384.192165 46.714406 
L 384.406931 46.432328 
L 384.497677 46.416361 
L 384.509797 46.474906 
L 384.551731 46.496195 
L 384.585777 46.38975 
L 385.361758 45.628669 
L 385.555282 45.314657 
L 385.744659 45.192246 
L 386.477907 45.085801 
L 387.424612 44.931456 
L 389.219281 44.825011 
L 389.515778 44.782433 
L 389.73858 45.064512 
L 389.811749 44.995323 
L 390.049225 44.926134 
L 390.276367 45.032579 
L 390.411946 45.101768 
L 390.808677 45.346591 
L 391.046068 45.72447 
L 391.379731 45.618025 
L 391.823231 45.005967 
L 392.030868 44.931456 
L 392.264559 44.825011 
L 392.765527 44.399232 
L 392.994023 44.292787 
L 393.103891 44.101187 
L 393.158581 44.282143 
L 393.38679 44.660022 
L 393.829999 44.553577 
L 393.939919 44.542932 
L 393.962591 44.590833 
L 394.135042 45.213535 
L 394.28468 45.458358 
L 394.329832 45.564803 
L 394.441704 46.187505 
L 394.511285 45.884137 
L 394.674384 45.729792 
L 395.689696 45.623347 
L 396.684147 45.170957 
L 396.965138 45.091123 
L 397.964224 44.984678 
L 398.003442 44.915489 
L 398.072975 44.920812 
L 398.195244 44.814367 
L 398.323965 44.707922 
L 398.487273 44.665344 
L 398.487273 44.665344 
" clip-path="url(#p74bf612f62)" style="fill: none; stroke-dasharray: 1.85,0.8; stroke-dashoffset: 0; stroke: #8000ff; stroke-width: 0.5"/>
   </g>
   <g id="patch_3">
    <path d="M 57.6 307.584 
L 57.6 41.472 
" style="fill: none; stroke: #000000; stroke-width: 0.8; stroke-linejoin: miter; stroke-linecap: square"/>
   </g>
   <g id="patch_4">
    <path d="M 414.72 307.584 
L 414.72 41.472 
" style="fill: none; stroke: #000000; stroke-width: 0.8; stroke-linejoin: miter; stroke-linecap: square"/>
   </g>
   <g id="patch_5">
    <path d="M 57.6 307.584 
L 414.72 307.584 
" style="fill: none; stroke: #000000; stroke-width: 0.8; stroke-linejoin: miter; stroke-linecap: square"/>
   </g>
   <g id="patch_6">
    <path d="M 57.6 41.472 
L 414.72 41.472 
" style="fill: none; stroke: #000000; stroke-width: 0.8; stroke-linejoin: miter; stroke-linecap: square"/>
   </g>
   <g id="legend_1">
    <g id="patch_7">
     <path d="M 314.584 90.761325 
L 523.329313 90.761325 
Q 525.329313 90.761325 525.329313 88.761325 
L 525.329313 75.0832 
Q 525.329313 73.0832 523.329313 73.0832 
L 314.584 73.0832 
Q 312.584 73.0832 312.584 75.0832 
L 312.584 88.761325 
Q 312.584 90.761325 314.584 90.761325 
z
" style="fill: #ffffff; opacity: 0.8; stroke: #cccccc; stroke-linejoin: miter"/>
    </g>
    <g id="line2d_35">
     <path d="M 316.584 81.181637 
L 326.584 81.181637 
L 336.584 81.181637 
" style="fill: none; stroke-dasharray: 1.85,0.8; stroke-dashoffset: 0; stroke: #8000ff; stroke-width: 0.5"/>
    </g>
    <g id="text_12">
     <!-- Total number of electron traps1000 -->
     <g transform="translate(344.584 84.681637) scale(0.1 -0.1)">
      <defs>
       <path id="DejaVuSans-54" d="M -19 4666 
L 3928 4666 
L 3928 4134 
L 2272 4134 
L 2272 0 
L 1638 0 
L 1638 4134 
L -19 4134 
L -19 4666 
z
" transform="scale(0.015625)"/>
       <path id="DejaVuSans-75" d="M 544 1381 
L 544 3500 
L 1119 3500 
L 1119 1403 
Q 1119 906 1312 657 
Q 1506 409 1894 409 
Q 2359 409 2629 706 
Q 2900 1003 2900 1516 
L 2900 3500 
L 3475 3500 
L 3475 0 
L 2900 0 
L 2900 538 
Q 2691 219 2414 64 
Q 2138 -91 1772 -91 
Q 1169 -91 856 284 
Q 544 659 544 1381 
z
M 1991 3584 
L 1991 3584 
z
" transform="scale(0.015625)"/>
       <path id="DejaVuSans-62" d="M 3116 1747 
Q 3116 2381 2855 2742 
Q 2594 3103 2138 3103 
Q 1681 3103 1420 2742 
Q 1159 2381 1159 1747 
Q 1159 1113 1420 752 
Q 1681 391 2138 391 
Q 2594 391 2855 752 
Q 3116 1113 3116 1747 
z
M 1159 2969 
Q 1341 3281 1617 3432 
Q 1894 3584 2278 3584 
Q 2916 3584 3314 3078 
Q 3713 2572 3713 1747 
Q 3713 922 3314 415 
Q 2916 -91 2278 -91 
Q 1894 -91 1617 61 
Q 1341 213 1159 525 
L 1159 0 
L 581 0 
L 581 4863 
L 1159 4863 
L 1159 2969 
z
" transform="scale(0.015625)"/>
      </defs>
      <use xlink:href="#DejaVuSans-54"/>
      <use xlink:href="#DejaVuSans-6f" transform="translate(44.083984 0)"/>
      <use xlink:href="#DejaVuSans-74" transform="translate(105.265625 0)"/>
      <use xlink:href="#DejaVuSans-61" transform="translate(144.474609 0)"/>
      <use xlink:href="#DejaVuSans-6c" transform="translate(205.753906 0)"/>
      <use xlink:href="#DejaVuSans-20" transform="translate(233.537109 0)"/>
      <use xlink:href="#DejaVuSans-6e" transform="translate(265.324219 0)"/>
      <use xlink:href="#DejaVuSans-75" transform="translate(328.703125 0)"/>
      <use xlink:href="#DejaVuSans-6d" transform="translate(392.082031 0)"/>
      <use xlink:href="#DejaVuSans-62" transform="translate(489.494141 0)"/>
      <use xlink:href="#DejaVuSans-65" transform="translate(552.970703 0)"/>
      <use xlink:href="#DejaVuSans-72" transform="translate(614.494141 0)"/>
      <use xlink:href="#DejaVuSans-20" transform="translate(655.607422 0)"/>
      <use xlink:href="#DejaVuSans-6f" transform="translate(687.394531 0)"/>
      <use xlink:href="#DejaVuSans-66" transform="translate(748.576172 0)"/>
      <use xlink:href="#DejaVuSans-20" transform="translate(783.78125 0)"/>
      <use xlink:href="#DejaVuSans-65" transform="translate(815.568359 0)"/>
      <use xlink:href="#DejaVuSans-6c" transform="translate(877.091797 0)"/>
      <use xlink:href="#DejaVuSans-65" transform="translate(904.875 0)"/>
      <use xlink:href="#DejaVuSans-63" transform="translate(966.398438 0)"/>
      <use xlink:href="#DejaVuSans-74" transform="translate(1021.378906 0)"/>
      <use xlink:href="#DejaVuSans-72" transform="translate(1060.587891 0)"/>
      <use xlink:href="#DejaVuSans-6f" transform="translate(1099.451172 0)"/>
      <use xlink:href="#DejaVuSans-6e" transform="translate(1160.632812 0)"/>
      <use xlink:href="#DejaVuSans-20" transform="translate(1224.011719 0)"/>
      <use xlink:href="#DejaVuSans-74" transform="translate(1255.798828 0)"/>
      <use xlink:href="#DejaVuSans-72" transform="translate(1295.007812 0)"/>
      <use xlink:href="#DejaVuSans-61" transform="translate(1336.121094 0)"/>
      <use xlink:href="#DejaVuSans-70" transform="translate(1397.400391 0)"/>
      <use xlink:href="#DejaVuSans-73" transform="translate(1460.876953 0)"/>
      <use xlink:href="#DejaVuSans-31" transform="translate(1512.976562 0)"/>
      <use xlink:href="#DejaVuSans-30" transform="translate(1576.599609 0)"/>
      <use xlink:href="#DejaVuSans-30" transform="translate(1640.222656 0)"/>
      <use xlink:href="#DejaVuSans-30" transform="translate(1703.845703 0)"/>
     </g>
    </g>
   </g>
  </g>
 </g>
 <defs>
  <clipPath id="p74bf612f62">
   <rect x="57.6" y="41.472" width="357.12" height="266.112"/>
  </clipPath>
 </defs>
</svg>
