<?xml version="1.0" encoding="utf-8" standalone="no"?>
<!DOCTYPE svg PUBLIC "-//W3C//DTD SVG 1.1//EN"
  "http://www.w3.org/Graphics/SVG/1.1/DTD/svg11.dtd">
<svg xmlns:xlink="http://www.w3.org/1999/xlink" width="460.8pt" height="345.6pt" viewBox="0 0 460.8 345.6" xmlns="http://www.w3.org/2000/svg" version="1.1">
 <metadata>
  <rdf:RDF xmlns:dc="http://purl.org/dc/elements/1.1/" xmlns:cc="http://creativecommons.org/ns#" xmlns:rdf="http://www.w3.org/1999/02/22-rdf-syntax-ns#">
   <cc:Work>
    <dc:type rdf:resource="http://purl.org/dc/dcmitype/StillImage"/>
    <dc:date>2025-03-04T10:39:32.405767</dc:date>
    <dc:format>image/svg+xml</dc:format>
    <dc:creator>
     <cc:Agent>
      <dc:title>Matplotlib v3.10.0, https://matplotlib.org/</dc:title>
     </cc:Agent>
    </dc:creator>
   </cc:Work>
  </rdf:RDF>
 </metadata>
 <defs>
  <style type="text/css">*{stroke-linejoin: round; stroke-linecap: butt}</style>
 </defs>
 <g id="figure_1">
  <g id="patch_1">
   <path d="M 0 345.6 
L 460.8 345.6 
L 460.8 0 
L 0 0 
z
" style="fill: #ffffff"/>
  </g>
  <g id="axes_1">
   <g id="patch_2">
    <path d="M 57.6 307.584 
L 414.72 307.584 
L 414.72 41.472 
L 57.6 41.472 
z
" style="fill: #ffffff"/>
   </g>
   <g id="matplotlib.axis_1">
    <g id="xtick_1">
     <g id="line2d_1">
      <defs>
       <path id="mfb72230d29" d="M 0 0 
L 0 3.5 
" style="stroke: #000000; stroke-width: 0.8"/>
      </defs>
      <g>
       <use xlink:href="#mfb72230d29" x="73.832727" y="307.584" style="stroke: #000000; stroke-width: 0.8"/>
      </g>
     </g>
     <g id="text_1">
      <!-- 0 -->
      <g transform="translate(70.651477 322.182437) scale(0.1 -0.1)">
       <defs>
        <path id="DejaVuSans-30" d="M 2034 4250 
Q 1547 4250 1301 3770 
Q 1056 3291 1056 2328 
Q 1056 1369 1301 889 
Q 1547 409 2034 409 
Q 2525 409 2770 889 
Q 3016 1369 3016 2328 
Q 3016 3291 2770 3770 
Q 2525 4250 2034 4250 
z
M 2034 4750 
Q 2819 4750 3233 4129 
Q 3647 3509 3647 2328 
Q 3647 1150 3233 529 
Q 2819 -91 2034 -91 
Q 1250 -91 836 529 
Q 422 1150 422 2328 
Q 422 3509 836 4129 
Q 1250 4750 2034 4750 
z
" transform="scale(0.015625)"/>
       </defs>
       <use xlink:href="#DejaVuSans-30"/>
      </g>
     </g>
    </g>
    <g id="xtick_2">
     <g id="line2d_2">
      <g>
       <use xlink:href="#mfb72230d29" x="138.763636" y="307.584" style="stroke: #000000; stroke-width: 0.8"/>
      </g>
     </g>
     <g id="text_2">
      <!-- 200 -->
      <g transform="translate(129.219886 322.182437) scale(0.1 -0.1)">
       <defs>
        <path id="DejaVuSans-32" d="M 1228 531 
L 3431 531 
L 3431 0 
L 469 0 
L 469 531 
Q 828 903 1448 1529 
Q 2069 2156 2228 2338 
Q 2531 2678 2651 2914 
Q 2772 3150 2772 3378 
Q 2772 3750 2511 3984 
Q 2250 4219 1831 4219 
Q 1534 4219 1204 4116 
Q 875 4013 500 3803 
L 500 4441 
Q 881 4594 1212 4672 
Q 1544 4750 1819 4750 
Q 2544 4750 2975 4387 
Q 3406 4025 3406 3419 
Q 3406 3131 3298 2873 
Q 3191 2616 2906 2266 
Q 2828 2175 2409 1742 
Q 1991 1309 1228 531 
z
" transform="scale(0.015625)"/>
       </defs>
       <use xlink:href="#DejaVuSans-32"/>
       <use xlink:href="#DejaVuSans-30" transform="translate(63.623047 0)"/>
       <use xlink:href="#DejaVuSans-30" transform="translate(127.246094 0)"/>
      </g>
     </g>
    </g>
    <g id="xtick_3">
     <g id="line2d_3">
      <g>
       <use xlink:href="#mfb72230d29" x="203.694545" y="307.584" style="stroke: #000000; stroke-width: 0.8"/>
      </g>
     </g>
     <g id="text_3">
      <!-- 400 -->
      <g transform="translate(194.150795 322.182437) scale(0.1 -0.1)">
       <defs>
        <path id="DejaVuSans-34" d="M 2419 4116 
L 825 1625 
L 2419 1625 
L 2419 4116 
z
M 2253 4666 
L 3047 4666 
L 3047 1625 
L 3713 1625 
L 3713 1100 
L 3047 1100 
L 3047 0 
L 2419 0 
L 2419 1100 
L 313 1100 
L 313 1709 
L 2253 4666 
z
" transform="scale(0.015625)"/>
       </defs>
       <use xlink:href="#DejaVuSans-34"/>
       <use xlink:href="#DejaVuSans-30" transform="translate(63.623047 0)"/>
       <use xlink:href="#DejaVuSans-30" transform="translate(127.246094 0)"/>
      </g>
     </g>
    </g>
    <g id="xtick_4">
     <g id="line2d_4">
      <g>
       <use xlink:href="#mfb72230d29" x="268.625455" y="307.584" style="stroke: #000000; stroke-width: 0.8"/>
      </g>
     </g>
     <g id="text_4">
      <!-- 600 -->
      <g transform="translate(259.081705 322.182437) scale(0.1 -0.1)">
       <defs>
        <path id="DejaVuSans-36" d="M 2113 2584 
Q 1688 2584 1439 2293 
Q 1191 2003 1191 1497 
Q 1191 994 1439 701 
Q 1688 409 2113 409 
Q 2538 409 2786 701 
Q 3034 994 3034 1497 
Q 3034 2003 2786 2293 
Q 2538 2584 2113 2584 
z
M 3366 4563 
L 3366 3988 
Q 3128 4100 2886 4159 
Q 2644 4219 2406 4219 
Q 1781 4219 1451 3797 
Q 1122 3375 1075 2522 
Q 1259 2794 1537 2939 
Q 1816 3084 2150 3084 
Q 2853 3084 3261 2657 
Q 3669 2231 3669 1497 
Q 3669 778 3244 343 
Q 2819 -91 2113 -91 
Q 1303 -91 875 529 
Q 447 1150 447 2328 
Q 447 3434 972 4092 
Q 1497 4750 2381 4750 
Q 2619 4750 2861 4703 
Q 3103 4656 3366 4563 
z
" transform="scale(0.015625)"/>
       </defs>
       <use xlink:href="#DejaVuSans-36"/>
       <use xlink:href="#DejaVuSans-30" transform="translate(63.623047 0)"/>
       <use xlink:href="#DejaVuSans-30" transform="translate(127.246094 0)"/>
      </g>
     </g>
    </g>
    <g id="xtick_5">
     <g id="line2d_5">
      <g>
       <use xlink:href="#mfb72230d29" x="333.556364" y="307.584" style="stroke: #000000; stroke-width: 0.8"/>
      </g>
     </g>
     <g id="text_5">
      <!-- 800 -->
      <g transform="translate(324.012614 322.182437) scale(0.1 -0.1)">
       <defs>
        <path id="DejaVuSans-38" d="M 2034 2216 
Q 1584 2216 1326 1975 
Q 1069 1734 1069 1313 
Q 1069 891 1326 650 
Q 1584 409 2034 409 
Q 2484 409 2743 651 
Q 3003 894 3003 1313 
Q 3003 1734 2745 1975 
Q 2488 2216 2034 2216 
z
M 1403 2484 
Q 997 2584 770 2862 
Q 544 3141 544 3541 
Q 544 4100 942 4425 
Q 1341 4750 2034 4750 
Q 2731 4750 3128 4425 
Q 3525 4100 3525 3541 
Q 3525 3141 3298 2862 
Q 3072 2584 2669 2484 
Q 3125 2378 3379 2068 
Q 3634 1759 3634 1313 
Q 3634 634 3220 271 
Q 2806 -91 2034 -91 
Q 1263 -91 848 271 
Q 434 634 434 1313 
Q 434 1759 690 2068 
Q 947 2378 1403 2484 
z
M 1172 3481 
Q 1172 3119 1398 2916 
Q 1625 2713 2034 2713 
Q 2441 2713 2670 2916 
Q 2900 3119 2900 3481 
Q 2900 3844 2670 4047 
Q 2441 4250 2034 4250 
Q 1625 4250 1398 4047 
Q 1172 3844 1172 3481 
z
" transform="scale(0.015625)"/>
       </defs>
       <use xlink:href="#DejaVuSans-38"/>
       <use xlink:href="#DejaVuSans-30" transform="translate(63.623047 0)"/>
       <use xlink:href="#DejaVuSans-30" transform="translate(127.246094 0)"/>
      </g>
     </g>
    </g>
    <g id="xtick_6">
     <g id="line2d_6">
      <g>
       <use xlink:href="#mfb72230d29" x="398.487273" y="307.584" style="stroke: #000000; stroke-width: 0.8"/>
      </g>
     </g>
     <g id="text_6">
      <!-- 1000 -->
      <g transform="translate(385.762273 322.182437) scale(0.1 -0.1)">
       <defs>
        <path id="DejaVuSans-31" d="M 794 531 
L 1825 531 
L 1825 4091 
L 703 3866 
L 703 4441 
L 1819 4666 
L 2450 4666 
L 2450 531 
L 3481 531 
L 3481 0 
L 794 0 
L 794 531 
z
" transform="scale(0.015625)"/>
       </defs>
       <use xlink:href="#DejaVuSans-31"/>
       <use xlink:href="#DejaVuSans-30" transform="translate(63.623047 0)"/>
       <use xlink:href="#DejaVuSans-30" transform="translate(127.246094 0)"/>
       <use xlink:href="#DejaVuSans-30" transform="translate(190.869141 0)"/>
      </g>
     </g>
    </g>
    <g id="text_7">
     <!-- Temperature ($^{\circ}C$) -->
     <g transform="translate(192.16 335.862125) scale(0.1 -0.1)">
      <defs>
       <path id="DejaVuSans-54" d="M -19 4666 
L 3928 4666 
L 3928 4134 
L 2272 4134 
L 2272 0 
L 1638 0 
L 1638 4134 
L -19 4134 
L -19 4666 
z
" transform="scale(0.015625)"/>
       <path id="DejaVuSans-65" d="M 3597 1894 
L 3597 1613 
L 953 1613 
Q 991 1019 1311 708 
Q 1631 397 2203 397 
Q 2534 397 2845 478 
Q 3156 559 3463 722 
L 3463 178 
Q 3153 47 2828 -22 
Q 2503 -91 2169 -91 
Q 1331 -91 842 396 
Q 353 884 353 1716 
Q 353 2575 817 3079 
Q 1281 3584 2069 3584 
Q 2775 3584 3186 3129 
Q 3597 2675 3597 1894 
z
M 3022 2063 
Q 3016 2534 2758 2815 
Q 2500 3097 2075 3097 
Q 1594 3097 1305 2825 
Q 1016 2553 972 2059 
L 3022 2063 
z
" transform="scale(0.015625)"/>
       <path id="DejaVuSans-6d" d="M 3328 2828 
Q 3544 3216 3844 3400 
Q 4144 3584 4550 3584 
Q 5097 3584 5394 3201 
Q 5691 2819 5691 2113 
L 5691 0 
L 5113 0 
L 5113 2094 
Q 5113 2597 4934 2840 
Q 4756 3084 4391 3084 
Q 3944 3084 3684 2787 
Q 3425 2491 3425 1978 
L 3425 0 
L 2847 0 
L 2847 2094 
Q 2847 2600 2669 2842 
Q 2491 3084 2119 3084 
Q 1678 3084 1418 2786 
Q 1159 2488 1159 1978 
L 1159 0 
L 581 0 
L 581 3500 
L 1159 3500 
L 1159 2956 
Q 1356 3278 1631 3431 
Q 1906 3584 2284 3584 
Q 2666 3584 2933 3390 
Q 3200 3197 3328 2828 
z
" transform="scale(0.015625)"/>
       <path id="DejaVuSans-70" d="M 1159 525 
L 1159 -1331 
L 581 -1331 
L 581 3500 
L 1159 3500 
L 1159 2969 
Q 1341 3281 1617 3432 
Q 1894 3584 2278 3584 
Q 2916 3584 3314 3078 
Q 3713 2572 3713 1747 
Q 3713 922 3314 415 
Q 2916 -91 2278 -91 
Q 1894 -91 1617 61 
Q 1341 213 1159 525 
z
M 3116 1747 
Q 3116 2381 2855 2742 
Q 2594 3103 2138 3103 
Q 1681 3103 1420 2742 
Q 1159 2381 1159 1747 
Q 1159 1113 1420 752 
Q 1681 391 2138 391 
Q 2594 391 2855 752 
Q 3116 1113 3116 1747 
z
" transform="scale(0.015625)"/>
       <path id="DejaVuSans-72" d="M 2631 2963 
Q 2534 3019 2420 3045 
Q 2306 3072 2169 3072 
Q 1681 3072 1420 2755 
Q 1159 2438 1159 1844 
L 1159 0 
L 581 0 
L 581 3500 
L 1159 3500 
L 1159 2956 
Q 1341 3275 1631 3429 
Q 1922 3584 2338 3584 
Q 2397 3584 2469 3576 
Q 2541 3569 2628 3553 
L 2631 2963 
z
" transform="scale(0.015625)"/>
       <path id="DejaVuSans-61" d="M 2194 1759 
Q 1497 1759 1228 1600 
Q 959 1441 959 1056 
Q 959 750 1161 570 
Q 1363 391 1709 391 
Q 2188 391 2477 730 
Q 2766 1069 2766 1631 
L 2766 1759 
L 2194 1759 
z
M 3341 1997 
L 3341 0 
L 2766 0 
L 2766 531 
Q 2569 213 2275 61 
Q 1981 -91 1556 -91 
Q 1019 -91 701 211 
Q 384 513 384 1019 
Q 384 1609 779 1909 
Q 1175 2209 1959 2209 
L 2766 2209 
L 2766 2266 
Q 2766 2663 2505 2880 
Q 2244 3097 1772 3097 
Q 1472 3097 1187 3025 
Q 903 2953 641 2809 
L 641 3341 
Q 956 3463 1253 3523 
Q 1550 3584 1831 3584 
Q 2591 3584 2966 3190 
Q 3341 2797 3341 1997 
z
" transform="scale(0.015625)"/>
       <path id="DejaVuSans-74" d="M 1172 4494 
L 1172 3500 
L 2356 3500 
L 2356 3053 
L 1172 3053 
L 1172 1153 
Q 1172 725 1289 603 
Q 1406 481 1766 481 
L 2356 481 
L 2356 0 
L 1766 0 
Q 1100 0 847 248 
Q 594 497 594 1153 
L 594 3053 
L 172 3053 
L 172 3500 
L 594 3500 
L 594 4494 
L 1172 4494 
z
" transform="scale(0.015625)"/>
       <path id="DejaVuSans-75" d="M 544 1381 
L 544 3500 
L 1119 3500 
L 1119 1403 
Q 1119 906 1312 657 
Q 1506 409 1894 409 
Q 2359 409 2629 706 
Q 2900 1003 2900 1516 
L 2900 3500 
L 3475 3500 
L 3475 0 
L 2900 0 
L 2900 538 
Q 2691 219 2414 64 
Q 2138 -91 1772 -91 
Q 1169 -91 856 284 
Q 544 659 544 1381 
z
M 1991 3584 
L 1991 3584 
z
" transform="scale(0.015625)"/>
       <path id="DejaVuSans-20" transform="scale(0.015625)"/>
       <path id="DejaVuSans-28" d="M 1984 4856 
Q 1566 4138 1362 3434 
Q 1159 2731 1159 2009 
Q 1159 1288 1364 580 
Q 1569 -128 1984 -844 
L 1484 -844 
Q 1016 -109 783 600 
Q 550 1309 550 2009 
Q 550 2706 781 3412 
Q 1013 4119 1484 4856 
L 1984 4856 
z
" transform="scale(0.015625)"/>
       <path id="DejaVuSans-2218" d="M 2000 2619 
Q 1750 2619 1578 2445 
Q 1406 2272 1406 2022 
Q 1406 1775 1578 1605 
Q 1750 1435 2000 1435 
Q 2250 1435 2422 1605 
Q 2594 1775 2594 2022 
Q 2594 2269 2420 2444 
Q 2247 2619 2000 2619 
z
M 2000 3022 
Q 2200 3022 2384 2945 
Q 2569 2869 2703 2725 
Q 2847 2585 2919 2406 
Q 2991 2228 2991 2022 
Q 2991 1610 2702 1324 
Q 2413 1038 1994 1038 
Q 1572 1038 1290 1319 
Q 1009 1600 1009 2022 
Q 1009 2441 1296 2731 
Q 1584 3022 2000 3022 
z
" transform="scale(0.015625)"/>
       <path id="DejaVuSans-Oblique-43" d="M 4447 4306 
L 4319 3641 
Q 4019 3944 3683 4091 
Q 3347 4238 2956 4238 
Q 2422 4238 2017 3981 
Q 1613 3725 1319 3200 
Q 1131 2863 1032 2486 
Q 934 2109 934 1728 
Q 934 1091 1264 756 
Q 1594 422 2222 422 
Q 2656 422 3056 561 
Q 3456 700 3834 978 
L 3688 231 
Q 3316 72 2936 -9 
Q 2556 -91 2175 -91 
Q 1278 -91 773 396 
Q 269 884 269 1753 
Q 269 2309 461 2846 
Q 653 3384 1013 3828 
Q 1394 4300 1883 4525 
Q 2372 4750 3022 4750 
Q 3422 4750 3780 4639 
Q 4138 4528 4447 4306 
z
" transform="scale(0.015625)"/>
       <path id="DejaVuSans-29" d="M 513 4856 
L 1013 4856 
Q 1481 4119 1714 3412 
Q 1947 2706 1947 2009 
Q 1947 1309 1714 600 
Q 1481 -109 1013 -844 
L 513 -844 
Q 928 -128 1133 580 
Q 1338 1288 1338 2009 
Q 1338 2731 1133 3434 
Q 928 4138 513 4856 
z
" transform="scale(0.015625)"/>
      </defs>
      <use xlink:href="#DejaVuSans-54" transform="translate(0 0.125)"/>
      <use xlink:href="#DejaVuSans-65" transform="translate(61.083984 0.125)"/>
      <use xlink:href="#DejaVuSans-6d" transform="translate(122.607422 0.125)"/>
      <use xlink:href="#DejaVuSans-70" transform="translate(220.019531 0.125)"/>
      <use xlink:href="#DejaVuSans-65" transform="translate(283.496094 0.125)"/>
      <use xlink:href="#DejaVuSans-72" transform="translate(345.019531 0.125)"/>
      <use xlink:href="#DejaVuSans-61" transform="translate(386.132812 0.125)"/>
      <use xlink:href="#DejaVuSans-74" transform="translate(447.412109 0.125)"/>
      <use xlink:href="#DejaVuSans-75" transform="translate(486.621094 0.125)"/>
      <use xlink:href="#DejaVuSans-72" transform="translate(550 0.125)"/>
      <use xlink:href="#DejaVuSans-65" transform="translate(591.113281 0.125)"/>
      <use xlink:href="#DejaVuSans-20" transform="translate(652.636719 0.125)"/>
      <use xlink:href="#DejaVuSans-28" transform="translate(684.423828 0.125)"/>
      <use xlink:href="#DejaVuSans-2218" transform="translate(724.394531 38.40625) scale(0.7)"/>
      <use xlink:href="#DejaVuSans-Oblique-43" transform="translate(770.947266 0.125)"/>
      <use xlink:href="#DejaVuSans-29" transform="translate(840.771484 0.125)"/>
     </g>
    </g>
   </g>
   <g id="matplotlib.axis_2">
    <g id="ytick_1">
     <g id="line2d_7">
      <defs>
       <path id="m5adb844f87" d="M 0 0 
L -3.5 0 
" style="stroke: #000000; stroke-width: 0.8"/>
      </defs>
      <g>
       <use xlink:href="#m5adb844f87" x="57.6" y="295.488" style="stroke: #000000; stroke-width: 0.8"/>
      </g>
     </g>
     <g id="text_8">
      <!-- 0.0 -->
      <g transform="translate(34.696875 299.287219) scale(0.1 -0.1)">
       <defs>
        <path id="DejaVuSans-2e" d="M 684 794 
L 1344 794 
L 1344 0 
L 684 0 
L 684 794 
z
" transform="scale(0.015625)"/>
       </defs>
       <use xlink:href="#DejaVuSans-30"/>
       <use xlink:href="#DejaVuSans-2e" transform="translate(63.623047 0)"/>
       <use xlink:href="#DejaVuSans-30" transform="translate(95.410156 0)"/>
      </g>
     </g>
    </g>
    <g id="ytick_2">
     <g id="line2d_8">
      <g>
       <use xlink:href="#m5adb844f87" x="57.6" y="260.204049" style="stroke: #000000; stroke-width: 0.8"/>
      </g>
     </g>
     <g id="text_9">
      <!-- 0.2 -->
      <g transform="translate(34.696875 264.003268) scale(0.1 -0.1)">
       <use xlink:href="#DejaVuSans-30"/>
       <use xlink:href="#DejaVuSans-2e" transform="translate(63.623047 0)"/>
       <use xlink:href="#DejaVuSans-32" transform="translate(95.410156 0)"/>
      </g>
     </g>
    </g>
    <g id="ytick_3">
     <g id="line2d_9">
      <g>
       <use xlink:href="#m5adb844f87" x="57.6" y="224.920098" style="stroke: #000000; stroke-width: 0.8"/>
      </g>
     </g>
     <g id="text_10">
      <!-- 0.4 -->
      <g transform="translate(34.696875 228.719317) scale(0.1 -0.1)">
       <use xlink:href="#DejaVuSans-30"/>
       <use xlink:href="#DejaVuSans-2e" transform="translate(63.623047 0)"/>
       <use xlink:href="#DejaVuSans-34" transform="translate(95.410156 0)"/>
      </g>
     </g>
    </g>
    <g id="ytick_4">
     <g id="line2d_10">
      <g>
       <use xlink:href="#m5adb844f87" x="57.6" y="189.636147" style="stroke: #000000; stroke-width: 0.8"/>
      </g>
     </g>
     <g id="text_11">
      <!-- 0.6 -->
      <g transform="translate(34.696875 193.435366) scale(0.1 -0.1)">
       <use xlink:href="#DejaVuSans-30"/>
       <use xlink:href="#DejaVuSans-2e" transform="translate(63.623047 0)"/>
       <use xlink:href="#DejaVuSans-36" transform="translate(95.410156 0)"/>
      </g>
     </g>
    </g>
    <g id="ytick_5">
     <g id="line2d_11">
      <g>
       <use xlink:href="#m5adb844f87" x="57.6" y="154.352196" style="stroke: #000000; stroke-width: 0.8"/>
      </g>
     </g>
     <g id="text_12">
      <!-- 0.8 -->
      <g transform="translate(34.696875 158.151414) scale(0.1 -0.1)">
       <use xlink:href="#DejaVuSans-30"/>
       <use xlink:href="#DejaVuSans-2e" transform="translate(63.623047 0)"/>
       <use xlink:href="#DejaVuSans-38" transform="translate(95.410156 0)"/>
      </g>
     </g>
    </g>
    <g id="ytick_6">
     <g id="line2d_12">
      <g>
       <use xlink:href="#m5adb844f87" x="57.6" y="119.068245" style="stroke: #000000; stroke-width: 0.8"/>
      </g>
     </g>
     <g id="text_13">
      <!-- 1.0 -->
      <g transform="translate(34.696875 122.867463) scale(0.1 -0.1)">
       <use xlink:href="#DejaVuSans-31"/>
       <use xlink:href="#DejaVuSans-2e" transform="translate(63.623047 0)"/>
       <use xlink:href="#DejaVuSans-30" transform="translate(95.410156 0)"/>
      </g>
     </g>
    </g>
    <g id="ytick_7">
     <g id="line2d_13">
      <g>
       <use xlink:href="#m5adb844f87" x="57.6" y="83.784294" style="stroke: #000000; stroke-width: 0.8"/>
      </g>
     </g>
     <g id="text_14">
      <!-- 1.2 -->
      <g transform="translate(34.696875 87.583512) scale(0.1 -0.1)">
       <use xlink:href="#DejaVuSans-31"/>
       <use xlink:href="#DejaVuSans-2e" transform="translate(63.623047 0)"/>
       <use xlink:href="#DejaVuSans-32" transform="translate(95.410156 0)"/>
      </g>
     </g>
    </g>
    <g id="ytick_8">
     <g id="line2d_14">
      <g>
       <use xlink:href="#m5adb844f87" x="57.6" y="48.500343" style="stroke: #000000; stroke-width: 0.8"/>
      </g>
     </g>
     <g id="text_15">
      <!-- 1.4 -->
      <g transform="translate(34.696875 52.299561) scale(0.1 -0.1)">
       <use xlink:href="#DejaVuSans-31"/>
       <use xlink:href="#DejaVuSans-2e" transform="translate(63.623047 0)"/>
       <use xlink:href="#DejaVuSans-34" transform="translate(95.410156 0)"/>
      </g>
     </g>
    </g>
    <g id="text_16">
     <!-- Intensity ($^{\circ}C^{-1}$) -->
     <g transform="translate(28.596875 213.328) rotate(-90) scale(0.1 -0.1)">
      <defs>
       <path id="DejaVuSans-49" d="M 628 4666 
L 1259 4666 
L 1259 0 
L 628 0 
L 628 4666 
z
" transform="scale(0.015625)"/>
       <path id="DejaVuSans-6e" d="M 3513 2113 
L 3513 0 
L 2938 0 
L 2938 2094 
Q 2938 2591 2744 2837 
Q 2550 3084 2163 3084 
Q 1697 3084 1428 2787 
Q 1159 2491 1159 1978 
L 1159 0 
L 581 0 
L 581 3500 
L 1159 3500 
L 1159 2956 
Q 1366 3272 1645 3428 
Q 1925 3584 2291 3584 
Q 2894 3584 3203 3211 
Q 3513 2838 3513 2113 
z
" transform="scale(0.015625)"/>
       <path id="DejaVuSans-73" d="M 2834 3397 
L 2834 2853 
Q 2591 2978 2328 3040 
Q 2066 3103 1784 3103 
Q 1356 3103 1142 2972 
Q 928 2841 928 2578 
Q 928 2378 1081 2264 
Q 1234 2150 1697 2047 
L 1894 2003 
Q 2506 1872 2764 1633 
Q 3022 1394 3022 966 
Q 3022 478 2636 193 
Q 2250 -91 1575 -91 
Q 1294 -91 989 -36 
Q 684 19 347 128 
L 347 722 
Q 666 556 975 473 
Q 1284 391 1588 391 
Q 1994 391 2212 530 
Q 2431 669 2431 922 
Q 2431 1156 2273 1281 
Q 2116 1406 1581 1522 
L 1381 1569 
Q 847 1681 609 1914 
Q 372 2147 372 2553 
Q 372 3047 722 3315 
Q 1072 3584 1716 3584 
Q 2034 3584 2315 3537 
Q 2597 3491 2834 3397 
z
" transform="scale(0.015625)"/>
       <path id="DejaVuSans-69" d="M 603 3500 
L 1178 3500 
L 1178 0 
L 603 0 
L 603 3500 
z
M 603 4863 
L 1178 4863 
L 1178 4134 
L 603 4134 
L 603 4863 
z
" transform="scale(0.015625)"/>
       <path id="DejaVuSans-79" d="M 2059 -325 
Q 1816 -950 1584 -1140 
Q 1353 -1331 966 -1331 
L 506 -1331 
L 506 -850 
L 844 -850 
Q 1081 -850 1212 -737 
Q 1344 -625 1503 -206 
L 1606 56 
L 191 3500 
L 800 3500 
L 1894 763 
L 2988 3500 
L 3597 3500 
L 2059 -325 
z
" transform="scale(0.015625)"/>
       <path id="DejaVuSans-2212" d="M 678 2272 
L 4684 2272 
L 4684 1741 
L 678 1741 
L 678 2272 
z
" transform="scale(0.015625)"/>
      </defs>
      <use xlink:href="#DejaVuSans-49" transform="translate(0 0.684375)"/>
      <use xlink:href="#DejaVuSans-6e" transform="translate(29.492188 0.684375)"/>
      <use xlink:href="#DejaVuSans-74" transform="translate(92.871094 0.684375)"/>
      <use xlink:href="#DejaVuSans-65" transform="translate(132.080078 0.684375)"/>
      <use xlink:href="#DejaVuSans-6e" transform="translate(193.603516 0.684375)"/>
      <use xlink:href="#DejaVuSans-73" transform="translate(256.982422 0.684375)"/>
      <use xlink:href="#DejaVuSans-69" transform="translate(309.082031 0.684375)"/>
      <use xlink:href="#DejaVuSans-74" transform="translate(336.865234 0.684375)"/>
      <use xlink:href="#DejaVuSans-79" transform="translate(376.074219 0.684375)"/>
      <use xlink:href="#DejaVuSans-20" transform="translate(435.253906 0.684375)"/>
      <use xlink:href="#DejaVuSans-28" transform="translate(467.041016 0.684375)"/>
      <use xlink:href="#DejaVuSans-2218" transform="translate(507.011719 38.965625) scale(0.7)"/>
      <use xlink:href="#DejaVuSans-Oblique-43" transform="translate(553.564453 0.684375)"/>
      <use xlink:href="#DejaVuSans-2212" transform="translate(630.589193 38.965625) scale(0.7)"/>
      <use xlink:href="#DejaVuSans-31" transform="translate(689.241536 38.965625) scale(0.7)"/>
      <use xlink:href="#DejaVuSans-29" transform="translate(736.512044 0.684375)"/>
     </g>
    </g>
    <g id="text_17">
     <!-- 1e7 -->
     <g transform="translate(57.6 38.472) scale(0.1 -0.1)">
      <defs>
       <path id="DejaVuSans-37" d="M 525 4666 
L 3525 4666 
L 3525 4397 
L 1831 0 
L 1172 0 
L 2766 4134 
L 525 4134 
L 525 4666 
z
" transform="scale(0.015625)"/>
      </defs>
      <use xlink:href="#DejaVuSans-31"/>
      <use xlink:href="#DejaVuSans-65" transform="translate(63.623047 0)"/>
      <use xlink:href="#DejaVuSans-37" transform="translate(125.146484 0)"/>
     </g>
    </g>
   </g>
   <g id="line2d_15">
    <path d="M 73.832727 295.487824 
L 95.757872 295.369887 
L 101.27976 295.052861 
L 104.040704 294.706813 
L 105.339972 294.446947 
L 107.126465 294.020011 
L 108.75055 293.42283 
L 109.237775 293.238031 
L 110.537043 292.580073 
L 111.186677 292.226175 
L 113.622804 290.392821 
L 114.434847 289.613134 
L 114.922072 289.057235 
L 116.870974 286.544401 
L 119.144692 282.626471 
L 120.768777 279.053529 
L 123.042496 272.771839 
L 124.016947 269.560559 
L 126.940299 258.080925 
L 129.376426 246.64231 
L 131.487737 235.639009 
L 138.146484 196.326601 
L 138.958527 191.140037 
L 140.420203 182.440602 
L 141.719471 174.437585 
L 142.044288 172.45348 
L 143.181147 165.665465 
L 143.668372 162.741925 
L 148.21581 137.021954 
L 150.489528 125.191333 
L 150.976754 122.842834 
L 152.925656 113.21252 
L 153.088064 112.766531 
L 153.412881 111.141176 
L 153.737698 109.617615 
L 153.900106 109.086327 
L 154.387332 106.66276 
L 154.874557 104.621054 
L 155.361783 102.627335 
L 155.524191 102.04118 
L 155.849008 100.453226 
L 156.336234 98.423428 
L 157.473093 94.01761 
L 157.960318 92.058292 
L 158.772361 89.317611 
L 158.934769 88.843924 
L 159.421995 86.845088 
L 159.746812 86.082867 
L 160.071629 84.7217 
L 160.234037 84.403174 
L 160.558854 83.120867 
L 162.507756 77.302367 
L 162.670164 77.20419 
L 162.994981 75.500328 
L 163.15739 75.284213 
L 163.644615 74.127694 
L 163.807024 73.903552 
L 164.13184 72.701252 
L 164.294249 72.459821 
L 165.2687 69.876154 
L 166.080742 68.399873 
L 166.405559 67.191839 
L 166.567968 67.13168 
L 166.730376 66.807244 
L 167.055193 65.958224 
L 167.217602 65.733553 
L 167.38001 65.058748 
L 167.542418 65.305206 
L 167.704827 64.960217 
L 168.029644 64.072914 
L 168.192052 63.864386 
L 168.354461 63.398726 
L 168.516869 63.456063 
L 168.841686 62.577316 
L 169.816137 61.029938 
L 169.978546 60.599562 
L 170.140954 60.57504 
L 170.303363 60.045604 
L 170.465771 60.144223 
L 170.790588 59.627136 
L 171.115405 59.402819 
L 171.277813 58.802462 
L 171.440222 58.963622 
L 171.60263 58.318014 
L 171.765039 58.457121 
L 171.927447 58.397403 
L 172.414673 57.597163 
L 172.577081 57.640738 
L 172.73949 57.218919 
L 172.901898 57.290633 
L 173.226715 56.801157 
L 173.389124 56.749201 
L 173.551532 56.494804 
L 173.713941 56.458991 
L 174.038758 56.090361 
L 174.201166 55.999064 
L 174.363575 55.687595 
L 174.8508 55.549635 
L 175.338025 55.295149 
L 175.500434 55.182682 
L 175.825251 54.672476 
L 176.150068 54.711288 
L 176.474885 54.346629 
L 176.637293 54.43131 
L 176.799702 54.091878 
L 176.96211 54.46827 
L 177.124519 54.167651 
L 177.286927 54.346364 
L 177.449336 53.577968 
L 177.611744 54.059064 
L 177.936561 53.928426 
L 178.098969 53.982763 
L 178.261378 53.85874 
L 178.423786 54.021046 
L 178.586195 53.713635 
L 178.748603 53.891201 
L 179.235829 53.568 
L 179.398237 53.695463 
L 179.560646 53.638833 
L 179.723054 53.811195 
L 180.21028 53.686995 
L 180.372688 53.635216 
L 180.535097 53.7528 
L 180.697505 54.012137 
L 180.859914 53.832894 
L 181.184731 53.982851 
L 181.347139 53.735158 
L 181.509548 53.979411 
L 181.996773 53.958946 
L 182.646407 54.395761 
L 182.808815 54.266622 
L 182.971224 54.614169 
L 183.296041 54.490058 
L 183.458449 54.697616 
L 183.620858 54.523313 
L 184.270492 55.050455 
L 184.4329 55.22811 
L 184.595309 55.199177 
L 184.757717 55.285182 
L 184.920126 55.61985 
L 185.407351 55.912707 
L 185.569759 56.066633 
L 185.732168 55.928849 
L 186.056985 56.58319 
L 186.219393 56.2644 
L 186.381802 56.696187 
L 186.54421 56.471957 
L 187.031436 57.310216 
L 187.193844 57.087839 
L 187.518661 57.561261 
L 187.68107 57.510452 
L 187.843478 58.004251 
L 188.005887 57.904574 
L 188.168295 58.303371 
L 188.493112 58.149092 
L 188.817929 58.85927 
L 189.142746 58.936453 
L 189.467563 59.358978 
L 189.629971 59.44613 
L 190.279605 60.55334 
L 190.604422 60.903533 
L 190.766831 61.073955 
L 190.929239 61.45167 
L 191.091648 61.362401 
L 191.741282 62.322654 
L 191.90369 62.348764 
L 193.202958 64.090203 
L 193.365366 64.668684 
L 193.527775 64.442867 
L 193.852592 65.206411 
L 194.339817 65.82441 
L 194.502226 66.210945 
L 194.664634 66.183953 
L 194.989451 66.964346 
L 195.15186 66.992308 
L 195.801493 68.15465 
L 196.12631 68.622868 
L 196.613536 69.635517 
L 196.775944 69.547484 
L 197.100761 70.40162 
L 197.587987 71.08754 
L 197.912804 71.570313 
L 198.075212 71.735177 
L 198.237621 72.361203 
L 198.400029 72.518216 
L 199.049663 73.810667 
L 199.37448 74.235751 
L 199.699297 74.765627 
L 200.024114 75.267012 
L 200.348931 76.282573 
L 200.511339 76.63453 
L 200.673748 76.665315 
L 200.836156 77.120302 
L 200.998565 77.19528 
L 202.135424 79.560981 
L 202.297833 79.648044 
L 202.785058 80.73823 
L 202.947466 80.818854 
L 203.109875 81.520652 
L 203.272283 81.555936 
L 203.759509 82.910487 
L 203.921917 82.819895 
L 204.409143 84.132017 
L 204.73396 84.696737 
L 205.058777 85.567544 
L 205.221185 85.392007 
L 205.383594 86.2517 
L 205.546002 85.960696 
L 205.708411 86.838913 
L 205.870819 86.805394 
L 206.195636 87.754003 
L 206.84527 89.100085 
L 207.170087 89.925201 
L 207.332495 90.023025 
L 207.657312 90.993775 
L 207.819721 91.187749 
L 208.144538 91.812098 
L 208.306946 92.065172 
L 208.794172 93.304609 
L 209.118989 93.946072 
L 210.418256 96.884078 
L 211.717524 99.840608 
L 211.879933 100.282804 
L 212.042341 100.319412 
L 213.991243 104.885067 
L 214.153651 104.985008 
L 214.640877 106.183075 
L 215.615328 108.674298 
L 216.102553 109.533904 
L 216.914595 111.744884 
L 217.077004 111.763938 
L 217.239412 112.355385 
L 217.401821 112.378055 
L 217.726638 113.450599 
L 218.051455 114.154072 
L 218.213863 114.354662 
L 218.53868 115.205975 
L 220.974807 120.762933 
L 221.299624 121.817835 
L 221.624441 122.275379 
L 222.111667 123.647837 
L 222.274075 123.720522 
L 222.923709 125.425972 
L 223.086118 125.546113 
L 223.248526 125.874695 
L 223.573343 126.911514 
L 223.735752 127.073644 
L 224.547794 129.09709 
L 224.710202 129.50065 
L 224.872611 129.553047 
L 225.197428 130.485867 
L 226.334287 133.125459 
L 226.821513 134.426114 
L 226.983921 134.638523 
L 227.14633 135.259609 
L 227.471146 135.609096 
L 227.633555 135.798924 
L 227.958372 136.919189 
L 228.445597 137.919578 
L 228.608006 138.548073 
L 228.770414 138.470537 
L 229.25764 139.793773 
L 229.744865 140.683546 
L 230.069682 141.647151 
L 234.129894 150.602658 
L 234.292303 150.779166 
L 234.779528 152.182321 
L 235.104345 152.58641 
L 238.352514 159.645582 
L 238.514923 159.878192 
L 239.002148 160.999075 
L 240.626233 164.371956 
L 240.95105 165.090072 
L 241.113459 165.275842 
L 241.275867 165.842944 
L 241.600684 166.279759 
L 241.763092 166.708459 
L 241.925501 166.818457 
L 242.087909 167.146862 
L 242.412726 168.055777 
L 242.899952 168.977129 
L 243.06236 169.195713 
L 243.549586 170.199982 
L 243.711994 170.391839 
L 243.874403 171.077318 
L 244.19922 171.439508 
L 244.686445 172.768037 
L 245.011262 173.100852 
L 245.336079 173.93523 
L 246.148121 175.294456 
L 246.472938 175.932742 
L 246.797755 176.530541 
L 247.447389 177.886591 
L 247.609798 177.972596 
L 247.934615 179.064546 
L 248.097023 179.081129 
L 248.746657 180.630536 
L 248.909065 180.583873 
L 249.883516 182.552805 
L 250.208333 183.002058 
L 250.370742 183.409941 
L 250.53315 183.475834 
L 251.020376 184.650789 
L 251.507601 185.336533 
L 251.832418 186.185994 
L 251.994827 186.313722 
L 252.319643 187.158949 
L 252.64446 187.553159 
L 254.430954 190.83289 
L 254.593362 191.230717 
L 254.755771 191.294581 
L 255.405405 192.519198 
L 255.567813 192.701705 
L 255.730221 193.134903 
L 255.89263 193.235992 
L 257.354306 195.686198 
L 257.516715 195.948181 
L 257.841532 196.599964 
L 258.491166 197.665627 
L 258.815983 198.197533 
L 260.11525 200.38355 
L 260.277659 200.529714 
L 260.764884 201.397258 
L 260.927293 201.432101 
L 261.089701 201.898731 
L 261.25211 201.824458 
L 261.576927 202.735137 
L 261.739335 202.809234 
L 261.901744 203.360722 
L 262.064152 203.313 
L 262.388969 203.990187 
L 264.825096 207.804382 
L 265.312322 208.327114 
L 265.47473 208.719384 
L 265.637139 208.810504 
L 266.286772 210.038121 
L 266.449181 210.093341 
L 266.773998 210.634596 
L 266.936406 210.787023 
L 267.261223 211.29079 
L 268.560491 213.321999 
L 268.7229 213.40518 
L 268.885308 213.777867 
L 269.047717 213.823119 
L 269.69735 215.025949 
L 269.859759 214.893105 
L 270.184576 215.522217 
L 270.346984 215.69405 
L 270.509393 216.090642 
L 270.671801 216.18485 
L 271.971069 218.001709 
L 272.133478 218.194712 
L 272.295886 218.595891 
L 272.458295 218.593509 
L 273.107929 219.608364 
L 273.270337 219.649911 
L 273.757562 220.41566 
L 273.919971 220.563588 
L 274.407196 221.259917 
L 274.894422 221.978916 
L 275.05683 222.064127 
L 276.19369 223.597832 
L 280.41631 228.756698 
L 280.578718 228.898981 
L 280.903535 229.347263 
L 282.202803 230.852124 
L 282.365212 231.275972 
L 282.52762 231.146127 
L 283.177254 232.02805 
L 283.339663 232.09703 
L 284.151705 233.137554 
L 284.476522 233.311592 
L 284.63893 233.647671 
L 284.801339 233.694423 
L 285.126156 234.111832 
L 285.613381 234.728595 
L 285.77579 234.817775 
L 286.100607 235.27188 
L 286.263015 235.308311 
L 286.587832 235.751477 
L 286.912649 236.169239 
L 287.075058 236.262389 
L 287.237466 236.484942 
L 287.562283 236.616551 
L 287.8871 237.090591 
L 288.699142 237.990332 
L 288.861551 237.960076 
L 289.186368 238.481926 
L 289.348776 238.480691 
L 289.836002 239.214861 
L 290.160819 239.340031 
L 290.485636 239.943916 
L 290.810452 240.123776 
L 290.972861 240.332304 
L 291.135269 240.313956 
L 291.784903 241.054126 
L 292.434537 241.664626 
L 292.596946 241.72752 
L 292.921763 242.184712 
L 293.084171 242.32276 
L 293.24658 242.313057 
L 293.571397 242.795477 
L 293.896214 243.008592 
L 294.221031 243.380837 
L 294.545847 243.530706 
L 295.033073 244.105129 
L 295.195481 244.188311 
L 295.520298 244.612953 
L 296.169932 245.158619 
L 296.332341 245.201754 
L 296.657158 245.674294 
L 296.981975 245.82478 
L 297.144383 246.153009 
L 297.306792 246.127517 
L 297.956425 246.730696 
L 298.768468 247.386977 
L 298.930876 247.697829 
L 299.093285 247.724027 
L 299.58051 248.27428 
L 299.742919 248.325707 
L 299.905327 248.591748 
L 300.067736 248.497363 
L 300.554961 249.110863 
L 300.71737 249.057937 
L 303.153497 251.139955 
L 303.640722 251.307201 
L 303.965539 251.72461 
L 304.290356 252.048605 
L 304.615173 252.195474 
L 305.427215 252.952932 
L 305.589624 252.96193 
L 305.752032 253.283102 
L 306.239258 253.462697 
L 306.726483 253.993544 
L 307.213709 254.186459 
L 307.700934 254.666233 
L 308.350568 255.053739 
L 308.512976 255.351624 
L 308.675385 255.313164 
L 309.16261 255.710461 
L 309.325019 255.764005 
L 309.649836 255.989646 
L 309.812244 256.124166 
L 309.974653 256.425226 
L 310.137061 256.368154 
L 310.949104 256.986417 
L 311.436329 257.239668 
L 311.761146 257.498299 
L 312.41078 257.91121 
L 312.573188 257.918178 
L 312.735597 258.206977 
L 312.898005 258.210506 
L 313.222822 258.540146 
L 313.385231 258.550467 
L 313.547639 258.806893 
L 313.872456 258.915126 
L 314.359682 259.395164 
L 314.52209 259.289048 
L 315.009316 259.700988 
L 315.334133 259.840712 
L 315.821358 260.257416 
L 316.146175 260.386467 
L 316.470992 260.556183 
L 316.795809 260.781735 
L 317.120626 260.946423 
L 317.283034 260.976415 
L 317.607851 261.27871 
L 317.932668 261.491649 
L 318.095077 261.505321 
L 318.257485 261.752132 
L 318.419894 261.77886 
L 318.744711 261.974686 
L 320.368795 263.024472 
L 320.531204 263.028353 
L 321.018429 263.370695 
L 321.343246 263.569609 
L 321.505655 263.742941 
L 321.830472 263.736149 
L 323.292148 264.723394 
L 323.454556 264.647445 
L 324.429007 265.243126 
L 324.753824 265.385233 
L 325.24105 265.734191 
L 325.403458 265.673855 
L 325.728275 266.022814 
L 325.890684 265.971564 
L 326.540317 266.32749 
L 327.839585 267.028671 
L 328.326811 267.290037 
L 328.489219 267.246726 
L 328.814036 267.526968 
L 328.976445 267.53429 
L 329.46367 267.868517 
L 329.626078 267.863048 
L 329.950895 268.04529 
L 330.438121 268.345556 
L 330.762938 268.513243 
L 330.925346 268.663905 
L 331.250163 268.614684 
L 331.737389 269.005454 
L 331.899797 268.993193 
L 332.224614 269.224656 
L 332.387023 269.207631 
L 332.71184 269.401252 
L 333.199065 269.638184 
L 333.523882 269.756649 
L 334.011107 270.0286 
L 334.498333 270.175646 
L 336.284826 271.122579 
L 336.447235 271.037369 
L 336.772051 271.264774 
L 336.93446 271.274741 
L 337.096868 271.403704 
L 337.259277 271.342928 
L 337.746502 271.706882 
L 338.233728 271.760072 
L 338.396136 271.950341 
L 338.558545 271.957133 
L 338.720953 272.127202 
L 339.04577 272.10903 
L 339.532996 272.443081 
L 339.857813 272.494772 
L 344.567658 274.398606 
L 344.730067 274.325392 
L 346.191743 274.94833 
L 348.62787 275.806436 
L 348.952687 275.979151 
L 349.115096 275.94713 
L 349.439913 276.108996 
L 349.602321 276.083062 
L 349.927138 276.29062 
L 350.251955 276.345663 
L 350.576772 276.475772 
L 350.901589 276.547399 
L 351.226406 276.669305 
L 351.87604 276.914969 
L 353.012899 277.318882 
L 353.175308 277.254489 
L 353.662533 277.522912 
L 353.824942 277.493273 
L 354.636984 277.811711 
L 355.286618 277.935293 
L 358.372379 278.869877 
L 360.808506 279.551474 
L 361.133323 279.715721 
L 362.757408 280.100316 
L 363.407042 280.291114 
L 364.056676 280.431897 
L 364.219084 280.403229 
L 364.543901 280.586529 
L 365.355943 280.854511 
L 365.843169 280.860244 
L 366.330394 281.074771 
L 366.81762 281.105468 
L 367.629662 281.420465 
L 368.116888 281.421347 
L 371.365057 282.229614 
L 371.852283 282.245845 
L 372.339508 282.471221 
L 373.801184 282.777751 
L 374.126001 282.819827 
L 374.938044 282.995629 
L 375.262861 283.02121 
L 375.750086 283.195512 
L 388.905173 285.639808 
L 389.067581 285.590411 
L 389.22999 285.713993 
L 389.392398 285.669711 
L 389.717215 285.79197 
L 390.042032 285.80529 
L 390.854074 285.915199 
L 398.487273 287.019234 
L 398.487273 287.019234 
" clip-path="url(#p20ecb1c3f1)" style="fill: none; stroke-dasharray: 1.85,0.8; stroke-dashoffset: 0; stroke: #8000ff; stroke-width: 0.5"/>
   </g>
   <g id="line2d_16">
    <path d="M 73.832727 295.488 
L 99.818084 295.370945 
L 108.100916 294.787878 
L 111.024268 294.266029 
L 113.622804 293.504248 
L 115.734114 292.660521 
L 116.546157 292.226087 
L 117.358199 291.780892 
L 118.657467 290.892971 
L 119.631918 290.126868 
L 121.743228 288.192955 
L 122.55527 287.249286 
L 122.880087 286.865573 
L 125.316214 283.624213 
L 128.889201 277.550874 
L 129.214018 276.858074 
L 129.376426 276.648752 
L 129.863652 275.603465 
L 131.812554 271.430608 
L 132.462187 269.982643 
L 132.624596 269.734862 
L 133.27423 268.143555 
L 135.547949 262.799536 
L 136.035174 261.565921 
L 138.146484 256.265919 
L 138.308893 256.036132 
L 138.796118 254.738124 
L 139.770569 252.270276 
L 140.420203 250.573206 
L 141.394654 248.183601 
L 141.881879 246.874743 
L 143.668372 242.312704 
L 144.318006 240.675088 
L 145.617274 237.494857 
L 146.266908 235.71337 
L 150.651937 225.008925 
L 150.976754 224.214772 
L 152.600839 220.378524 
L 152.763247 220.211366 
L 153.250473 219.098422 
L 154.387332 216.445598 
L 155.036966 215.046061 
L 156.985867 210.864207 
L 158.122727 208.580629 
L 158.447544 207.825553 
L 159.097178 206.552773 
L 160.396445 203.976515 
L 160.558854 203.444609 
L 160.721262 203.335582 
L 161.046079 202.692003 
L 161.208488 202.447485 
L 161.370896 201.875973 
L 161.533305 201.875885 
L 161.858122 201.291671 
L 162.670164 199.637647 
L 162.832573 199.536471 
L 163.319798 198.389389 
L 163.482207 198.327642 
L 163.644615 198.119996 
L 163.969432 197.372947 
L 164.13184 197.232076 
L 164.619066 196.273675 
L 164.781474 196.128217 
L 165.106291 195.241708 
L 165.2687 195.244795 
L 165.431108 194.750467 
L 165.593517 194.717653 
L 166.080742 193.68648 
L 166.243151 193.615735 
L 166.567968 192.956631 
L 166.892785 192.473241 
L 168.841686 189.448965 
L 169.004095 189.420562 
L 171.277813 185.956472 
L 171.440222 185.977907 
L 172.577081 184.239202 
L 172.73949 184.245112 
L 173.064307 183.688067 
L 173.226715 183.451752 
L 173.389124 183.464896 
L 174.038758 182.56048 
L 174.201166 182.551659 
L 174.363575 181.957036 
L 174.688391 181.81837 
L 175.175617 181.08614 
L 175.338025 181.04521 
L 176.799702 179.381749 
L 176.96211 179.364371 
L 177.936561 178.231139 
L 179.07342 177.143158 
L 179.235829 176.819252 
L 179.398237 176.85383 
L 179.885463 176.355268 
L 180.047871 176.164381 
L 180.21028 176.213691 
L 180.372688 176.068938 
L 180.535097 175.755705 
L 180.697505 175.688577 
L 180.859914 175.265435 
L 181.184731 175.101805 
L 181.347139 175.197248 
L 181.509548 174.892395 
L 181.671956 174.987397 
L 181.834364 174.534792 
L 181.996773 174.545995 
L 182.159181 174.355461 
L 182.32159 174.35061 
L 182.483998 174.068779 
L 182.646407 174.166251 
L 183.296041 173.518967 
L 183.620858 173.431816 
L 183.783266 173.319613 
L 183.945675 172.858981 
L 184.108083 173.043075 
L 184.270492 172.815229 
L 184.595309 172.843368 
L 184.757717 172.377972 
L 185.082534 172.247686 
L 185.894576 171.837687 
L 186.056985 171.809283 
L 186.381802 171.359325 
L 186.54421 171.376879 
L 186.706619 171.15062 
L 187.031436 171.215102 
L 187.68107 170.653734 
L 187.843478 170.707101 
L 188.168295 170.305658 
L 188.330704 170.407364 
L 188.65552 170.324799 
L 188.817929 169.942674 
L 189.142746 170.038117 
L 189.305154 169.916476 
L 189.467563 169.543172 
L 189.629971 169.761932 
L 189.79238 169.558697 
L 189.954788 169.707948 
L 190.117197 169.384306 
L 190.279605 169.395596 
L 190.442014 169.194919 
L 190.604422 169.324852 
L 191.741282 168.902591 
L 191.90369 168.974041 
L 192.066099 168.708177 
L 192.228507 168.8726 
L 192.390915 168.396796 
L 192.553324 168.608323 
L 193.365366 168.118141 
L 193.852592 167.998264 
L 194.015 168.113378 
L 194.177409 167.797233 
L 194.339817 167.734163 
L 194.502226 168.051013 
L 195.15186 167.502965 
L 195.314268 167.553598 
L 195.476677 167.46971 
L 195.639085 167.627253 
L 196.451127 167.341277 
L 196.775944 167.429398 
L 196.938353 167.199171 
L 197.26317 167.296025 
L 197.425578 167.220076 
L 197.587987 167.289056 
L 197.750395 167.012166 
L 197.912804 167.005814 
L 198.075212 167.125339 
L 198.400029 167.103551 
L 198.562438 166.8114 
L 199.212071 166.950066 
L 199.37448 167.146862 
L 199.536888 167.115459 
L 199.699297 166.77691 
L 199.861705 166.76509 
L 200.024114 166.962503 
L 200.511339 166.838657 
L 200.673748 166.975382 
L 200.836156 166.664707 
L 200.998565 166.794905 
L 201.160973 166.599608 
L 201.323382 166.9528 
L 201.48579 166.693552 
L 201.648199 166.85524 
L 201.810607 166.580555 
L 202.135424 166.718162 
L 202.297833 166.570322 
L 202.460241 166.907637 
L 202.785058 166.549417 
L 202.947466 166.673881 
L 203.272283 166.661178 
L 203.759509 166.7089 
L 203.921917 166.846243 
L 204.084326 166.569176 
L 204.409143 166.846155 
L 204.571551 166.591404 
L 204.73396 166.637097 
L 204.896368 166.843949 
L 205.546002 166.765266 
L 205.870819 166.790847 
L 206.033228 166.665501 
L 206.682861 166.899345 
L 206.84527 166.802491 
L 207.332495 166.996641 
L 207.494904 167.052654 
L 207.657312 166.847831 
L 207.982129 167.116694 
L 208.144538 167.064562 
L 208.306946 167.33519 
L 208.469355 167.025485 
L 208.794172 167.093054 
L 208.95658 167.039599 
L 209.118989 167.282 
L 209.281397 167.204992 
L 209.443806 167.460272 
L 209.768622 167.223781 
L 210.093439 167.414932 
L 210.580665 167.336425 
L 210.743073 167.535515 
L 211.230299 167.601408 
L 211.392707 167.702761 
L 211.717524 167.718991 
L 211.879933 167.801027 
L 212.20475 167.526606 
L 212.691975 168.078535 
L 212.854384 168.106586 
L 213.016792 167.92452 
L 213.179201 168.002674 
L 213.341609 167.956541 
L 213.504017 168.2591 
L 213.666426 167.942162 
L 213.828834 168.331962 
L 213.991243 168.135342 
L 214.640877 168.387093 
L 214.803285 168.603295 
L 215.128102 168.539608 
L 215.452919 168.510234 
L 215.615328 168.835993 
L 215.777736 168.717968 
L 215.940145 169.016206 
L 216.102553 168.546753 
L 216.42737 169.076012 
L 216.589779 168.949607 
L 216.752187 169.118882 
L 217.077004 169.093919 
L 217.239412 169.243434 
L 217.401821 169.114648 
L 217.889046 169.415797 
L 218.051455 169.327851 
L 218.213863 169.585248 
L 218.863497 169.733087 
L 219.025906 169.903774 
L 219.188314 169.844849 
L 219.513131 169.984486 
L 219.67554 169.923268 
L 219.837948 170.220976 
L 220.162765 170.237383 
L 220.325173 170.109038 
L 220.487582 170.512686 
L 220.974807 170.480754 
L 221.137216 170.89834 
L 221.299624 170.910248 
L 221.462033 170.80572 
L 221.624441 170.896752 
L 221.78685 170.796369 
L 222.111667 171.219953 
L 222.436484 170.92542 
L 222.761301 171.422483 
L 222.923709 171.331274 
L 223.086118 171.616368 
L 223.248526 171.401313 
L 223.410935 171.644596 
L 223.573343 171.659856 
L 224.060568 171.952183 
L 224.222977 171.974236 
L 224.385385 171.792347 
L 224.710202 172.23075 
L 224.872611 172.062446 
L 225.035019 172.302641 
L 225.197428 172.336867 
L 225.522245 172.64172 
L 225.684653 172.597174 
L 225.847062 172.734693 
L 226.00947 172.515227 
L 226.171879 172.763979 
L 226.334287 172.672329 
L 226.496696 173.139488 
L 226.659104 173.001704 
L 226.821513 173.29809 
L 227.14633 173.396091 
L 227.308738 173.256543 
L 228.932823 174.284894 
L 229.095231 174.039847 
L 229.420048 174.388805 
L 229.582457 174.317178 
L 229.744865 174.434939 
L 229.907274 174.791659 
L 230.069682 174.622826 
L 230.394499 174.813094 
L 230.719316 175.137883 
L 231.206541 175.446265 
L 231.693767 175.539856 
L 232.018584 175.775817 
L 232.180992 175.730124 
L 232.343401 175.998459 
L 232.505809 175.946327 
L 232.993035 176.482466 
L 233.155443 176.274291 
L 233.317852 176.556563 
L 233.48026 176.435627 
L 233.967486 176.965504 
L 234.129894 176.919458 
L 234.454711 177.079647 
L 234.617119 177.111491 
L 234.779528 177.354862 
L 234.941936 177.347099 
L 235.104345 177.600085 
L 235.429162 177.481267 
L 235.753979 177.767949 
L 236.078796 178.126434 
L 236.241204 178.022699 
L 236.72843 178.460396 
L 236.890838 178.272333 
L 237.215655 178.780422 
L 237.540472 178.840846 
L 237.702881 179.058371 
L 238.027697 179.122676 
L 238.190106 179.428235 
L 238.352514 179.440849 
L 238.514923 179.326794 
L 238.677331 179.662168 
L 238.83974 179.741557 
L 239.002148 179.59504 
L 239.164557 180.015536 
L 239.326965 179.931561 
L 239.489374 180.003628 
L 239.651782 179.908803 
L 239.976599 180.225829 
L 240.95105 180.890667 
L 241.113459 180.84171 
L 241.275867 181.352798 
L 241.438276 181.156002 
L 242.250318 181.688966 
L 242.412726 181.602079 
L 242.899952 181.86865 
L 243.06236 182.314639 
L 243.387177 182.276179 
L 243.711994 182.542573 
L 244.524037 183.362043 
L 244.686445 183.199384 
L 245.011262 183.477245 
L 245.985713 184.059871 
L 246.31053 184.346994 
L 246.472938 184.381925 
L 246.635347 184.279867 
L 246.797755 184.561344 
L 246.960164 184.597775 
L 247.122572 184.515916 
L 247.447389 184.899365 
L 248.259432 185.493723 
L 248.584248 185.438151 
L 248.746657 186.045034 
L 248.909065 185.85997 
L 249.071474 185.892255 
L 249.721108 186.604814 
L 249.883516 186.623074 
L 250.045925 186.522779 
L 250.208333 186.820752 
L 250.370742 186.687467 
L 250.53315 187.106993 
L 250.695559 187.01552 
L 250.857967 187.054949 
L 251.020376 187.303348 
L 251.182784 187.207552 
L 251.67001 187.700205 
L 251.832418 187.676741 
L 251.994827 188.033991 
L 252.482052 188.118319 
L 252.64446 188.124141 
L 252.806869 188.288123 
L 252.969277 188.667338 
L 253.131686 188.514382 
L 253.618911 188.987275 
L 253.78132 188.932585 
L 253.943728 189.025382 
L 254.106137 189.262137 
L 254.430954 189.269282 
L 254.593362 189.723122 
L 254.755771 189.66949 
L 254.918179 189.741999 
L 255.242996 190.067846 
L 255.405405 190.026917 
L 255.89263 190.477757 
L 256.055038 190.547267 
L 256.379855 190.886345 
L 256.867081 190.991139 
L 257.029489 191.37494 
L 257.191898 191.375557 
L 257.516715 191.501345 
L 257.679123 191.470207 
L 257.841532 191.576323 
L 258.166349 192.013756 
L 258.328757 191.991527 
L 258.653574 192.407172 
L 258.815983 192.281914 
L 259.465616 192.759394 
L 259.628025 193.18139 
L 259.952842 192.998178 
L 260.11525 193.295798 
L 260.602476 193.410647 
L 260.764884 193.737465 
L 261.25211 193.899859 
L 261.739335 194.409095 
L 262.226561 194.668167 
L 262.388969 195.004159 
L 262.551378 194.7607 
L 262.713786 195.006982 
L 262.876194 194.976461 
L 263.36342 195.513659 
L 263.525828 195.457028 
L 263.688237 195.704545 
L 263.850645 195.598958 
L 264.175462 196.068058 
L 264.337871 195.923923 
L 264.825096 196.44639 
L 265.312322 196.556123 
L 265.47473 196.911874 
L 265.799547 196.931898 
L 265.961956 196.949275 
L 266.286772 197.427461 
L 266.449181 197.539487 
L 266.611589 197.512319 
L 266.773998 197.72905 
L 267.098815 197.808616 
L 267.58604 198.288918 
L 267.910857 198.414882 
L 268.073266 198.624557 
L 268.235674 198.497358 
L 268.398083 198.886805 
L 268.560491 198.828057 
L 269.047717 199.313123 
L 269.210125 199.24529 
L 269.534942 199.54538 
L 269.69735 199.602187 
L 270.022167 199.910392 
L 270.346984 199.874844 
L 270.509393 199.992516 
L 270.671801 200.267378 
L 270.83421 200.311924 
L 270.996618 200.641917 
L 271.321435 200.726775 
L 271.483844 201.018749 
L 271.646252 200.940243 
L 271.808661 201.126895 
L 271.971069 201.025101 
L 272.295886 201.394082 
L 272.620703 201.571296 
L 272.783112 201.855508 
L 273.270337 201.847834 
L 273.432745 202.182943 
L 273.595154 202.060773 
L 274.082379 202.653808 
L 274.244788 202.574331 
L 274.732013 202.880595 
L 274.894422 203.281862 
L 275.544056 203.366014 
L 275.706464 203.685951 
L 275.868873 203.562546 
L 276.19369 204.007124 
L 276.518507 204.044436 
L 276.680915 204.310654 
L 276.843323 204.231353 
L 277.005732 204.499776 
L 277.16814 204.516095 
L 277.492957 204.784517 
L 277.980183 205.08646 
L 278.142591 205.005483 
L 278.954634 205.823541 
L 279.117042 205.71028 
L 279.279451 205.967765 
L 279.441859 205.959208 
L 279.929085 206.532484 
L 280.091493 206.223044 
L 280.41631 206.888323 
L 280.578718 206.654743 
L 280.741127 206.997439 
L 280.903535 207.026283 
L 281.065944 207.203761 
L 281.228352 207.117757 
L 281.390761 207.425256 
L 281.877986 207.519376 
L 282.040395 207.765041 
L 282.202803 207.786829 
L 282.52762 208.074481 
L 282.852437 208.049694 
L 283.014846 208.479276 
L 283.339663 208.568986 
L 283.502071 208.838202 
L 283.66448 208.770104 
L 283.826888 208.985954 
L 284.151705 208.959491 
L 284.476522 209.329796 
L 284.63893 209.26355 
L 284.963747 209.632532 
L 285.126156 209.713068 
L 285.288564 209.666052 
L 285.450973 209.950441 
L 285.613381 209.971435 
L 286.100607 210.320657 
L 286.587832 210.694579 
L 287.562283 211.213165 
L 287.8871 211.409079 
L 288.861551 212.175888 
L 289.023959 212.199881 
L 289.348776 212.454807 
L 289.511185 212.397383 
L 289.836002 212.707264 
L 289.99841 212.63502 
L 290.810452 213.243051 
L 290.972861 213.218793 
L 291.135269 213.514561 
L 291.460086 213.602153 
L 291.784903 213.905948 
L 292.434537 214.196688 
L 292.596946 214.451085 
L 292.759354 214.405745 
L 292.921763 214.57846 
L 293.084171 214.541147 
L 293.408988 214.879344 
L 293.571397 215.097046 
L 293.733805 214.985901 
L 294.383439 215.48614 
L 294.708256 215.567557 
L 295.033073 215.993258 
L 295.35789 215.980468 
L 295.520298 216.191201 
L 295.682707 216.145067 
L 296.007524 216.460418 
L 297.144383 217.082738 
L 298.118834 217.698796 
L 298.281242 217.638902 
L 298.606059 217.921703 
L 298.768468 218.110031 
L 298.930876 217.996416 
L 299.255693 218.418853 
L 299.418102 218.39883 
L 299.742919 218.641495 
L 299.905327 218.569516 
L 300.230144 219.009595 
L 300.392553 219.018592 
L 300.554961 219.290191 
L 300.71737 219.208155 
L 300.879778 219.31242 
L 301.042187 219.550763 
L 301.204595 219.467051 
L 301.367004 219.550498 
L 301.529412 219.820067 
L 301.854229 219.832152 
L 302.016637 220.090695 
L 302.179046 220.111777 
L 302.341454 220.261117 
L 302.503863 220.217012 
L 303.478314 221.03507 
L 303.640722 220.801138 
L 303.965539 221.099287 
L 304.615173 221.650775 
L 304.777582 221.541219 
L 304.93999 221.704671 
L 305.102398 221.621578 
L 305.427215 221.884002 
L 306.239258 222.504029 
L 306.401666 222.375155 
L 306.564075 222.679479 
L 307.213709 222.831729 
L 307.863343 223.346875 
L 308.025751 223.175395 
L 308.18816 223.542436 
L 308.512976 223.742408 
L 308.675385 223.618914 
L 309.16261 224.006773 
L 309.325019 223.959757 
L 309.649836 224.302452 
L 309.974653 224.50507 
L 311.111512 225.087167 
L 311.436329 225.272408 
L 312.248371 225.929748 
L 312.573188 225.883173 
L 312.735597 226.096818 
L 313.060414 226.1366 
L 313.385231 226.438366 
L 313.547639 226.429722 
L 314.034865 226.786972 
L 314.52209 226.967714 
L 314.846907 227.124022 
L 315.009316 227.137871 
L 315.496541 227.485418 
L 315.658949 227.455514 
L 315.983766 227.890301 
L 316.308583 227.849724 
L 316.795809 228.189068 
L 316.958217 228.062134 
L 317.445443 228.517473 
L 318.095077 228.88866 
L 318.419894 228.870136 
L 318.744711 229.330239 
L 318.907119 229.27105 
L 319.069527 229.51795 
L 319.394344 229.576962 
L 319.719161 229.854735 
L 320.206387 229.957852 
L 320.693612 230.182699 
L 320.856021 230.151826 
L 321.99288 230.836864 
L 322.155289 230.811636 
L 322.480106 231.087821 
L 322.967331 231.450893 
L 323.129739 231.483001 
L 323.292148 231.381736 
L 323.454556 231.741809 
L 323.779373 231.672652 
L 324.10419 232.06104 
L 324.266599 232.013672 
L 324.429007 232.169274 
L 324.591416 232.102323 
L 324.916233 232.340401 
L 325.403458 232.64102 
L 325.565867 232.642608 
L 325.890684 232.885891 
L 326.053092 232.98204 
L 326.2155 232.78145 
L 326.540317 233.113825 
L 328.326811 234.030149 
L 328.976445 234.299895 
L 329.301262 234.562055 
L 329.46367 234.52977 
L 329.950895 234.902545 
L 330.113304 234.857117 
L 330.600529 235.31819 
L 330.762938 235.175555 
L 330.925346 235.274614 
L 331.087755 235.511987 
L 331.250163 235.438685 
L 331.412572 235.657974 
L 331.737389 235.602402 
L 332.71184 236.21352 
L 333.361473 236.406347 
L 333.68629 236.54369 
L 333.848699 236.494645 
L 334.173516 236.907026 
L 334.498333 236.879505 
L 334.82315 237.24734 
L 335.147967 237.22811 
L 335.310375 237.394121 
L 335.635192 237.438932 
L 335.960009 237.521232 
L 336.122418 237.773159 
L 336.284826 237.696593 
L 336.447235 237.852107 
L 336.609643 237.845844 
L 336.93446 238.081364 
L 337.096868 238.070867 
L 337.584094 238.319884 
L 338.720953 238.91583 
L 338.883362 238.844027 
L 339.04577 239.127975 
L 339.208179 238.974666 
L 339.857813 239.487077 
L 340.020221 239.401425 
L 340.182629 239.44553 
L 340.507446 239.819717 
L 340.669855 239.749325 
L 340.994672 239.895842 
L 342.29394 240.530953 
L 342.618757 240.454739 
L 343.105982 240.960976 
L 343.755616 241.083852 
L 343.918024 241.340102 
L 344.080433 241.252686 
L 344.242841 241.382707 
L 344.40525 241.368329 
L 344.567658 241.505495 
L 344.730067 241.432634 
L 345.542109 241.878888 
L 345.704518 241.894766 
L 346.029335 242.115379 
L 346.191743 242.093591 
L 346.354152 242.260925 
L 346.51656 242.232257 
L 346.678969 242.449694 
L 347.328602 242.59427 
L 347.815828 242.894889 
L 348.303053 242.895948 
L 348.62787 243.209534 
L 348.952687 243.283983 
L 349.277504 243.429794 
L 349.602321 243.604979 
L 349.927138 243.701039 
L 350.089547 243.894131 
L 350.414364 243.873137 
L 351.063997 244.165376 
L 351.226406 244.074432 
L 351.388814 244.344001 
L 352.038448 244.471553 
L 352.200857 244.636858 
L 352.363265 244.443678 
L 352.525674 244.793342 
L 354.312167 245.29508 
L 354.474575 245.610519 
L 354.799392 245.638128 
L 354.961801 245.64298 
L 355.286618 245.898965 
L 355.449026 245.862358 
L 355.773843 246.104494 
L 356.09866 246.084823 
L 356.423477 246.267506 
L 356.585886 246.358538 
L 356.748294 246.279767 
L 357.073111 246.525167 
L 357.23552 246.658187 
L 357.560337 246.634635 
L 358.20997 246.93746 
L 358.859604 247.191681 
L 359.671647 247.50509 
L 359.834055 247.45781 
L 360.158872 247.735583 
L 360.646098 247.864722 
L 360.808506 248.004711 
L 360.970915 247.903799 
L 361.45814 248.245612 
L 362.594999 248.593247 
L 362.919816 248.815007 
L 363.082225 248.872343 
L 363.244633 248.723798 
L 363.56945 248.943088 
L 363.894267 249.032003 
L 364.056676 249.21742 
L 364.219084 249.16326 
L 364.381493 249.242296 
L 364.543901 249.450912 
L 365.031126 249.480462 
L 365.193535 249.651678 
L 365.518352 249.545032 
L 365.68076 249.84424 
L 366.005577 249.824657 
L 366.167986 249.991991 
L 366.330394 249.986875 
L 366.492803 250.135509 
L 366.655211 249.966058 
L 366.980028 250.284231 
L 367.304845 250.287759 
L 367.629662 250.591201 
L 367.792071 250.506872 
L 368.116888 250.652595 
L 368.279296 250.577529 
L 368.604113 250.892702 
L 368.92893 250.76912 
L 369.578564 251.07909 
L 369.740972 251.079972 
L 370.228198 251.386766 
L 370.715423 251.542368 
L 370.877832 251.471536 
L 371.365057 251.683328 
L 372.014691 251.881535 
L 372.177099 251.859306 
L 372.339508 252.111939 
L 372.501916 252.019054 
L 372.664325 252.24346 
L 372.989142 252.309971 
L 373.313959 252.386007 
L 374.775635 252.83332 
L 374.938044 253.152992 
L 375.262861 252.989716 
L 375.425269 253.219414 
L 375.587677 253.163048 
L 376.562128 253.475399 
L 376.724537 253.455817 
L 376.886945 253.618211 
L 377.049354 253.576135 
L 377.211762 253.652348 
L 377.374171 253.527532 
L 377.536579 253.804775 
L 377.698988 253.712949 
L 377.861396 253.956408 
L 378.023805 253.928181 
L 378.186213 254.076462 
L 378.348622 254.055115 
L 378.51103 254.205424 
L 378.998255 254.188223 
L 379.160664 254.217597 
L 379.485481 254.403808 
L 379.647889 254.364555 
L 379.810298 254.55994 
L 379.972706 254.555706 
L 380.135115 254.705839 
L 380.459932 254.740153 
L 381.109566 254.972409 
L 381.271974 254.89355 
L 381.7592 255.159326 
L 381.921608 255.101637 
L 383.058467 255.53907 
L 383.220876 255.509607 
L 383.545693 255.723428 
L 384.195327 255.882118 
L 384.357735 255.815255 
L 384.682552 256.075738 
L 384.844961 255.951627 
L 385.169778 256.191646 
L 385.819412 256.346896 
L 386.631454 256.583475 
L 386.956271 256.738812 
L 387.281088 256.914438 
L 387.443496 256.893973 
L 387.768313 257.0247 
L 388.09313 256.951133 
L 388.255539 257.07939 
L 388.417947 257.042783 
L 388.742764 257.266836 
L 389.067581 257.32382 
L 389.554806 257.483833 
L 389.717215 257.463368 
L 390.042032 257.667839 
L 390.20444 257.577423 
L 390.691666 257.812326 
L 390.854074 257.784452 
L 391.178891 257.962901 
L 392.478159 258.247289 
L 392.640568 258.396717 
L 392.802976 258.329765 
L 392.965385 258.503892 
L 393.290201 258.587691 
L 393.939835 258.679429 
L 394.264652 258.844823 
L 394.427061 258.972286 
L 394.589469 258.850116 
L 394.914286 259.084577 
L 395.401512 259.102572 
L 395.726329 259.337916 
L 395.888737 259.228624 
L 396.700779 259.534007 
L 397.67523 259.731332 
L 397.837639 259.902371 
L 398.000047 259.780994 
L 398.324864 259.898755 
L 398.487273 259.899107 
L 398.487273 259.899107 
" clip-path="url(#p20ecb1c3f1)" style="fill: none; stroke-dasharray: 1.85,0.8; stroke-dashoffset: 0; stroke: #80ffb4; stroke-width: 0.5"/>
   </g>
   <g id="line2d_17">
    <path d="M 73.832727 295.488 
L 112.161128 295.382413 
L 117.845425 295.002316 
L 121.256003 294.326541 
L 123.69213 293.450528 
L 126.453074 291.676716 
L 128.564384 289.551652 
L 130.188469 287.273367 
L 132.949413 281.733963 
L 134.086272 278.762525 
L 134.898315 276.432373 
L 137.334442 268.169489 
L 138.63371 263.054728 
L 139.445752 259.596548 
L 142.206696 247.089269 
L 142.693922 244.576787 
L 143.505964 240.711695 
L 155.036966 179.688013 
L 155.199374 179.290098 
L 155.6866 176.466677 
L 156.173825 174.135378 
L 156.823459 170.648706 
L 160.883671 150.807217 
L 162.182939 145.106389 
L 164.619066 134.451871 
L 165.755925 129.63817 
L 166.080742 128.488354 
L 167.217602 123.9601 
L 167.542418 122.666678 
L 167.867235 121.412687 
L 169.653729 114.849695 
L 169.816137 114.569717 
L 170.465771 112.247063 
L 171.277813 109.729465 
L 171.765039 107.845126 
L 171.927447 107.495373 
L 172.252264 106.487664 
L 174.038758 101.113918 
L 175.500434 97.073641 
L 176.799702 93.987001 
L 177.124519 93.231395 
L 177.774153 91.597748 
L 177.936561 91.421328 
L 178.586195 89.677066 
L 178.748603 89.820584 
L 178.911012 89.085354 
L 179.07342 88.902848 
L 179.723054 87.437506 
L 180.21028 86.480517 
L 180.372688 86.620947 
L 180.859914 85.302915 
L 181.022322 85.199974 
L 181.347139 84.409349 
L 181.509548 84.337987 
L 181.671956 84.049452 
L 181.834364 83.388672 
L 182.159181 83.220103 
L 182.483998 82.594254 
L 182.646407 82.534183 
L 182.808815 82.005012 
L 182.971224 81.926858 
L 183.296041 81.444174 
L 185.244942 78.859889 
L 185.407351 78.84357 
L 185.569759 78.221602 
L 185.732168 78.242684 
L 186.056985 77.683257 
L 186.219393 77.722423 
L 186.54421 77.459028 
L 186.706619 77.469084 
L 187.031436 76.811479 
L 187.193844 76.915743 
L 187.518661 76.474253 
L 187.68107 76.233881 
L 187.843478 76.234498 
L 188.005887 75.987864 
L 188.168295 76.066194 
L 188.330704 76.007887 
L 188.493112 75.389801 
L 188.65552 75.558899 
L 188.817929 75.35434 
L 188.980337 75.332993 
L 189.142746 74.943988 
L 189.467563 74.871215 
L 189.629971 75.009969 
L 190.442014 74.28409 
L 190.604422 74.416581 
L 190.766831 74.273946 
L 190.929239 74.32105 
L 191.091648 73.958772 
L 191.254056 74.220314 
L 191.578873 73.771943 
L 191.741282 73.983647 
L 191.90369 73.858036 
L 192.066099 73.476352 
L 192.228507 73.674383 
L 192.553324 73.65286 
L 192.715732 73.459063 
L 192.878141 73.63266 
L 193.040549 73.241978 
L 193.202958 73.501139 
L 193.365366 73.060266 
L 193.690183 73.51931 
L 193.852592 73.632395 
L 194.015 73.123424 
L 194.339817 73.255915 
L 194.502226 73.038478 
L 194.664634 73.362649 
L 194.827043 73.205107 
L 194.989451 73.204401 
L 195.314268 72.873437 
L 195.476677 73.452535 
L 195.639085 73.025335 
L 195.801493 73.622075 
L 195.963902 73.071204 
L 196.12631 73.518516 
L 196.288719 73.219838 
L 196.451127 73.45624 
L 196.938353 73.464885 
L 197.26317 73.458886 
L 197.425578 73.597817 
L 197.587987 73.403755 
L 197.750395 73.653654 
L 197.912804 73.627985 
L 198.075212 73.71937 
L 198.237621 73.562445 
L 198.400029 74.237162 
L 198.562438 73.783852 
L 198.724846 73.799994 
L 198.887255 74.098673 
L 199.049663 74.082089 
L 199.212071 73.760652 
L 199.37448 74.278533 
L 199.536888 74.367183 
L 199.699297 74.284619 
L 200.511339 74.507261 
L 200.673748 74.92714 
L 200.998565 74.87342 
L 201.48579 75.418204 
L 201.810607 75.452165 
L 202.297833 75.613324 
L 202.460241 75.970927 
L 202.62265 75.912973 
L 202.947466 76.270488 
L 203.272283 76.458816 
L 203.434692 76.818801 
L 203.759509 76.618035 
L 203.921917 77.018861 
L 204.084326 77.014185 
L 204.246734 77.484168 
L 204.409143 77.212746 
L 204.73396 77.656265 
L 204.896368 77.792108 
L 205.058777 78.162502 
L 205.221185 78.196021 
L 205.383594 78.040772 
L 205.546002 78.256445 
L 205.708411 78.704816 
L 205.870819 78.708962 
L 206.195636 79.140926 
L 206.358044 78.955244 
L 206.682861 79.532489 
L 206.84527 79.467126 
L 207.007678 79.556218 
L 207.332495 80.169453 
L 207.494904 80.244255 
L 207.982129 81.20636 
L 208.144538 81.209271 
L 208.306946 81.327031 
L 208.469355 81.298539 
L 208.794172 81.835649 
L 209.118989 82.077521 
L 209.281397 82.242561 
L 209.606214 82.772615 
L 209.768622 82.873968 
L 209.931031 83.613872 
L 210.255848 83.461622 
L 210.418256 83.643158 
L 210.743073 84.184502 
L 211.06789 84.467038 
L 211.230299 85.108412 
L 211.555116 85.201032 
L 211.717524 85.390419 
L 211.879933 85.761871 
L 212.042341 85.73532 
L 212.691975 86.784841 
L 212.854384 86.727945 
L 213.016792 87.297164 
L 213.179201 87.226067 
L 213.341609 87.75806 
L 213.504017 87.777908 
L 213.666426 88.290672 
L 213.828834 88.186584 
L 214.153651 88.634249 
L 214.31606 89.18706 
L 214.478468 89.161391 
L 214.640877 89.324139 
L 214.803285 89.669921 
L 214.965694 89.726552 
L 215.290511 90.528997 
L 215.452919 90.535966 
L 216.264962 91.975551 
L 216.42737 92.091194 
L 216.914595 93.215429 
L 217.077004 93.008136 
L 217.564229 93.973064 
L 217.726638 93.95454 
L 218.213863 95.292772 
L 218.376272 95.297447 
L 218.863497 96.147525 
L 219.025906 96.428033 
L 219.188314 96.334883 
L 219.513131 97.086167 
L 219.67554 97.172524 
L 220.162765 98.174147 
L 220.487582 98.763125 
L 220.64999 99.012582 
L 220.974807 99.722407 
L 221.137216 99.623877 
L 221.299624 100.246021 
L 221.624441 100.525382 
L 221.78685 101.066726 
L 221.949258 101.082868 
L 222.111667 101.408892 
L 222.274075 102.007749 
L 222.436484 101.974405 
L 222.598892 102.063233 
L 222.761301 102.651063 
L 222.923709 102.740155 
L 223.086118 103.328074 
L 223.248526 103.447775 
L 223.573343 104.228432 
L 223.735752 104.358189 
L 223.89816 104.333755 
L 224.547794 105.676397 
L 224.872611 106.44647 
L 225.035019 106.604101 
L 226.00947 108.622255 
L 226.171879 108.653745 
L 226.821513 109.779303 
L 227.308738 111.0976 
L 227.958372 112.033507 
L 228.283189 112.686525 
L 228.445597 112.93263 
L 228.608006 112.916752 
L 228.770414 113.675798 
L 229.095231 114.057306 
L 229.420048 114.705384 
L 230.069682 116.008244 
L 230.232091 116.152908 
L 230.394499 116.745679 
L 230.556908 116.897488 
L 231.856175 119.326964 
L 233.967486 123.311581 
L 234.292303 124.107322 
L 234.454711 124.350164 
L 234.779528 125.182159 
L 235.104345 125.532794 
L 235.429162 126.479462 
L 235.59157 126.394075 
L 236.078796 127.654682 
L 236.241204 127.794671 
L 236.890838 128.97095 
L 239.326965 133.908763 
L 239.489374 133.907616 
L 239.651782 134.558869 
L 239.814191 134.642757 
L 240.139008 135.273722 
L 240.301416 135.502539 
L 240.626233 136.238121 
L 241.113459 137.290906 
L 241.438276 137.82881 
L 242.412726 139.579864 
L 242.737543 140.437705 
L 242.899952 140.515506 
L 243.387177 141.673878 
L 243.711994 142.173499 
L 244.361628 143.357981 
L 244.524037 143.564128 
L 244.686445 144.331289 
L 244.848854 144.248284 
L 245.498487 145.822742 
L 245.660896 145.957526 
L 246.31053 147.263915 
L 246.472938 147.502875 
L 246.797755 148.241986 
L 246.960164 148.100321 
L 247.284981 148.946871 
L 250.208333 154.669398 
L 250.370742 155.194688 
L 250.53315 155.015093 
L 250.695559 155.738414 
L 251.182784 156.353854 
L 251.994827 158.065567 
L 252.157235 158.150689 
L 252.319643 158.567481 
L 252.482052 158.66019 
L 252.806869 159.53876 
L 253.131686 159.968078 
L 253.456503 160.725095 
L 253.618911 160.861644 
L 254.106137 161.943979 
L 254.268545 162.017987 
L 255.567813 164.603683 
L 256.055038 165.309803 
L 256.217447 165.920568 
L 256.542264 166.136065 
L 256.867081 166.86953 
L 257.029489 166.989319 
L 258.00394 168.97757 
L 258.166349 169.054489 
L 258.328757 169.704507 
L 258.491166 169.724796 
L 258.653574 169.858081 
L 258.978391 170.635298 
L 259.140799 170.788695 
L 259.465616 171.470205 
L 259.628025 171.609841 
L 260.11525 172.778357 
L 260.440067 172.983886 
L 260.764884 173.843315 
L 260.927293 173.950314 
L 261.25211 174.649818 
L 262.226561 176.322101 
L 263.038603 177.587648 
L 263.525828 178.555134 
L 263.850645 178.957988 
L 264.337871 179.842998 
L 264.500279 180.189751 
L 264.662688 180.22283 
L 264.987505 180.964322 
L 265.312322 181.445154 
L 265.799547 182.295674 
L 266.286772 183.297297 
L 266.449181 183.302678 
L 266.773998 183.906915 
L 267.098815 184.494834 
L 267.423632 184.744556 
L 267.748449 185.452441 
L 267.910857 185.58158 
L 268.073266 186.154415 
L 268.235674 186.21872 
L 268.560491 186.785115 
L 269.047717 187.643486 
L 269.210125 187.804645 
L 269.372534 188.271452 
L 269.534942 188.334522 
L 269.69735 188.738523 
L 269.859759 188.761987 
L 270.022167 189.235056 
L 270.184576 189.232498 
L 270.509393 190.018096 
L 270.671801 190.047911 
L 271.646252 191.757771 
L 271.971069 192.202525 
L 272.295886 192.707968 
L 272.458295 192.771655 
L 272.620703 193.351106 
L 272.783112 193.463309 
L 272.94552 193.793302 
L 273.107929 193.836437 
L 273.595154 194.833914 
L 273.757562 194.832061 
L 274.082379 195.570907 
L 274.244788 195.633713 
L 274.407196 196.072733 
L 274.569605 196.094698 
L 275.05683 196.948393 
L 275.381647 197.429842 
L 275.544056 197.49944 
L 276.19369 198.630026 
L 276.356098 199.017091 
L 276.518507 199.043377 
L 276.843323 199.713772 
L 277.005732 199.729827 
L 277.330549 200.111687 
L 277.492957 200.500252 
L 277.655366 200.571878 
L 278.305 201.715078 
L 278.467408 201.789968 
L 278.792225 202.501028 
L 278.954634 202.544251 
L 279.766676 203.755284 
L 280.41631 204.552437 
L 280.578718 205.062555 
L 280.741127 205.052146 
L 281.228352 205.681347 
L 281.390761 205.840301 
L 281.715578 206.490232 
L 282.040395 206.901378 
L 283.014846 208.28398 
L 283.177254 208.413825 
L 283.66448 209.136881 
L 283.826888 209.28622 
L 283.989296 209.733885 
L 284.476522 210.065378 
L 284.801339 210.674997 
L 285.77579 211.88603 
L 286.100607 212.332813 
L 286.263015 212.362275 
L 286.587832 212.88483 
L 286.750241 213.321734 
L 286.912649 213.233083 
L 287.399874 214.153818 
L 287.562283 214.370461 
L 287.724691 214.351672 
L 288.049508 214.724183 
L 288.699142 215.59993 
L 289.673593 216.857009 
L 289.836002 216.963567 
L 289.99841 217.346398 
L 290.160819 217.388121 
L 290.648044 218.133142 
L 290.810452 218.17513 
L 290.972861 218.357018 
L 291.297678 218.955522 
L 291.622495 219.235236 
L 291.947312 219.615244 
L 292.272129 220.007602 
L 292.434537 220.310426 
L 292.596946 220.36591 
L 292.921763 220.831923 
L 293.24658 221.13016 
L 295.195481 223.425999 
L 295.35789 223.500801 
L 295.520298 223.909124 
L 295.845115 224.13009 
L 296.007524 224.456643 
L 296.169932 224.521389 
L 296.332341 224.788577 
L 296.494749 224.789812 
L 297.956425 226.552774 
L 298.118834 226.651658 
L 298.443651 227.117582 
L 298.606059 227.205792 
L 298.930876 227.630258 
L 299.255693 227.85634 
L 299.905327 228.644495 
L 300.067736 228.748759 
L 300.230144 229.225269 
L 300.554961 229.3208 
L 304.777582 233.704831 
L 304.93999 233.77046 
L 305.264807 234.122858 
L 305.752032 234.646825 
L 305.914441 234.72489 
L 306.239258 235.331598 
L 306.401666 235.303988 
L 306.888892 235.724397 
L 307.213709 236.126369 
L 307.700934 236.495351 
L 309.487427 238.266517 
L 309.812244 238.443025 
L 310.29947 238.98331 
L 310.461878 238.958965 
L 310.624287 239.307482 
L 310.786695 239.255879 
L 311.111512 239.721362 
L 311.436329 239.897165 
L 312.735597 241.132809 
L 313.060414 241.362772 
L 313.222822 241.579768 
L 313.385231 241.577651 
L 314.034865 242.317026 
L 314.197273 242.309617 
L 314.52209 242.764603 
L 315.009316 243.00427 
L 315.334133 243.340967 
L 316.146175 244.112979 
L 316.308583 244.112979 
L 316.6334 244.493517 
L 316.958217 244.727185 
L 317.283034 244.775083 
L 317.445443 245.123776 
L 317.607851 245.18817 
L 318.257485 245.894378 
L 318.419894 245.796465 
L 318.582302 246.149216 
L 318.744711 246.029163 
L 319.069527 246.381208 
L 319.394344 246.630048 
L 321.505655 248.333116 
L 321.668063 248.402361 
L 321.99288 248.794013 
L 322.155289 248.733501 
L 322.480106 249.103189 
L 322.967331 249.404337 
L 323.129739 249.405219 
L 323.292148 249.756383 
L 323.454556 249.790785 
L 323.941782 250.169823 
L 324.10419 250.312546 
L 324.266599 250.300638 
L 325.24105 251.11455 
L 325.728275 251.413758 
L 326.053092 251.632872 
L 327.189951 252.45931 
L 328.164402 253.224619 
L 328.489219 253.355346 
L 329.301262 253.896425 
L 329.626078 254.149499 
L 330.113304 254.533212 
L 330.275712 254.551031 
L 330.925346 255.080555 
L 331.087755 255.017043 
L 331.412572 255.297286 
L 331.899797 255.637159 
L 332.062206 255.653742 
L 332.387023 255.915549 
L 332.549431 256.097703 
L 332.71184 256.094527 
L 332.874248 256.250923 
L 333.036657 256.22446 
L 333.523882 256.709174 
L 334.335924 257.072598 
L 334.82315 257.602122 
L 334.985558 257.497505 
L 337.746502 259.240268 
L 337.908911 259.266819 
L 338.558545 259.703017 
L 339.532996 260.207666 
L 340.020221 260.672179 
L 340.182629 260.62631 
L 340.994672 261.122843 
L 341.481897 261.355011 
L 341.644306 261.536459 
L 341.969123 261.67142 
L 342.456348 261.934197 
L 342.618757 261.898031 
L 343.593208 262.487979 
L 343.755616 262.465838 
L 343.918024 262.734173 
L 344.080433 262.743964 
L 344.242841 262.93882 
L 344.40525 262.917826 
L 344.892475 263.22806 
L 345.217292 263.234499 
L 345.379701 263.533178 
L 345.704518 263.653761 
L 346.191743 263.890604 
L 346.841377 264.239563 
L 347.166194 264.301486 
L 347.328602 264.513631 
L 347.491011 264.497929 
L 347.978236 264.826423 
L 348.140645 264.846182 
L 348.303053 264.978056 
L 348.465462 264.947535 
L 348.952687 265.249036 
L 353.012899 267.214705 
L 353.175308 267.177304 
L 353.500125 267.401799 
L 353.824942 267.530761 
L 356.748294 268.826212 
L 356.910703 268.960467 
L 357.073111 268.940708 
L 357.560337 269.155587 
L 359.022013 269.742536 
L 359.184421 269.731686 
L 359.834055 270.154741 
L 359.996464 270.108783 
L 360.321281 270.253271 
L 361.782957 270.835015 
L 361.945365 270.823636 
L 362.270182 271.053864 
L 364.381493 271.839373 
L 364.543901 271.85181 
L 365.031126 272.172101 
L 365.518352 272.187625 
L 365.68076 272.400917 
L 365.843169 272.376483 
L 366.167986 272.530409 
L 367.142437 272.869752 
L 367.629662 273.058963 
L 368.116888 273.233177 
L 368.604113 273.385957 
L 369.740972 273.788811 
L 369.903381 273.92095 
L 370.065789 273.895192 
L 370.390606 274.017451 
L 370.553015 273.986578 
L 370.715423 274.132477 
L 370.877832 274.104338 
L 371.04024 274.272731 
L 371.527466 274.344445 
L 371.852283 274.494578 
L 372.177099 274.562324 
L 372.501916 274.683083 
L 375.425269 275.678355 
L 375.587677 275.606199 
L 375.912494 275.815521 
L 376.237311 275.846571 
L 377.374171 276.324845 
L 378.023805 276.400441 
L 378.51103 276.603853 
L 378.673439 276.566276 
L 379.160664 276.79915 
L 379.485481 276.897063 
L 384.520144 278.305069 
L 384.682552 278.281428 
L 385.007369 278.423623 
L 385.169778 278.370609 
L 385.657003 278.561054 
L 386.793862 278.882932 
L 387.118679 278.987284 
L 388.09313 279.214954 
L 388.417947 279.234536 
L 388.742764 279.356001 
L 389.717215 279.605018 
L 390.20444 279.750035 
L 391.016483 279.912605 
L 392.153342 280.262887 
L 392.478159 280.259359 
L 393.45261 280.544012 
L 393.777427 280.56677 
L 394.427061 280.763743 
L 395.401512 280.907701 
L 395.888737 281.058452 
L 398.487273 281.622289 
L 398.487273 281.622289 
" clip-path="url(#p20ecb1c3f1)" style="fill: none; stroke-dasharray: 1.85,0.8; stroke-dashoffset: 0; stroke: #ff0000; stroke-width: 0.5"/>
   </g>
   <g id="patch_3">
    <path d="M 57.6 307.584 
L 57.6 41.472 
" style="fill: none; stroke: #000000; stroke-width: 0.8; stroke-linejoin: miter; stroke-linecap: square"/>
   </g>
   <g id="patch_4">
    <path d="M 414.72 307.584 
L 414.72 41.472 
" style="fill: none; stroke: #000000; stroke-width: 0.8; stroke-linejoin: miter; stroke-linecap: square"/>
   </g>
   <g id="patch_5">
    <path d="M 57.6 307.584 
L 414.72 307.584 
" style="fill: none; stroke: #000000; stroke-width: 0.8; stroke-linejoin: miter; stroke-linecap: square"/>
   </g>
   <g id="patch_6">
    <path d="M 57.6 41.472 
L 414.72 41.472 
" style="fill: none; stroke: #000000; stroke-width: 0.8; stroke-linejoin: miter; stroke-linecap: square"/>
   </g>
   <g id="text_18">
    <!-- Heating Rate ($^{\circ}C.s^{-1}$) -->
    <g transform="translate(271.872 68.0832) scale(0.12 -0.12)">
     <defs>
      <path id="DejaVuSans-48" d="M 628 4666 
L 1259 4666 
L 1259 2753 
L 3553 2753 
L 3553 4666 
L 4184 4666 
L 4184 0 
L 3553 0 
L 3553 2222 
L 1259 2222 
L 1259 0 
L 628 0 
L 628 4666 
z
" transform="scale(0.015625)"/>
      <path id="DejaVuSans-67" d="M 2906 1791 
Q 2906 2416 2648 2759 
Q 2391 3103 1925 3103 
Q 1463 3103 1205 2759 
Q 947 2416 947 1791 
Q 947 1169 1205 825 
Q 1463 481 1925 481 
Q 2391 481 2648 825 
Q 2906 1169 2906 1791 
z
M 3481 434 
Q 3481 -459 3084 -895 
Q 2688 -1331 1869 -1331 
Q 1566 -1331 1297 -1286 
Q 1028 -1241 775 -1147 
L 775 -588 
Q 1028 -725 1275 -790 
Q 1522 -856 1778 -856 
Q 2344 -856 2625 -561 
Q 2906 -266 2906 331 
L 2906 616 
Q 2728 306 2450 153 
Q 2172 0 1784 0 
Q 1141 0 747 490 
Q 353 981 353 1791 
Q 353 2603 747 3093 
Q 1141 3584 1784 3584 
Q 2172 3584 2450 3431 
Q 2728 3278 2906 2969 
L 2906 3500 
L 3481 3500 
L 3481 434 
z
" transform="scale(0.015625)"/>
      <path id="DejaVuSans-52" d="M 2841 2188 
Q 3044 2119 3236 1894 
Q 3428 1669 3622 1275 
L 4263 0 
L 3584 0 
L 2988 1197 
Q 2756 1666 2539 1819 
Q 2322 1972 1947 1972 
L 1259 1972 
L 1259 0 
L 628 0 
L 628 4666 
L 2053 4666 
Q 2853 4666 3247 4331 
Q 3641 3997 3641 3322 
Q 3641 2881 3436 2590 
Q 3231 2300 2841 2188 
z
M 1259 4147 
L 1259 2491 
L 2053 2491 
Q 2509 2491 2742 2702 
Q 2975 2913 2975 3322 
Q 2975 3731 2742 3939 
Q 2509 4147 2053 4147 
L 1259 4147 
z
" transform="scale(0.015625)"/>
      <path id="DejaVuSans-Oblique-73" d="M 3200 3397 
L 3091 2853 
Q 2863 2978 2609 3040 
Q 2356 3103 2088 3103 
Q 1634 3103 1373 2948 
Q 1113 2794 1113 2528 
Q 1113 2219 1719 2053 
Q 1766 2041 1788 2034 
L 1972 1978 
Q 2547 1819 2739 1644 
Q 2931 1469 2931 1166 
Q 2931 609 2489 259 
Q 2047 -91 1331 -91 
Q 1053 -91 747 -37 
Q 441 16 72 128 
L 184 722 
Q 500 559 806 475 
Q 1113 391 1394 391 
Q 1816 391 2080 572 
Q 2344 753 2344 1031 
Q 2344 1331 1650 1516 
L 1591 1531 
L 1394 1581 
Q 956 1697 753 1886 
Q 550 2075 550 2369 
Q 550 2928 970 3256 
Q 1391 3584 2113 3584 
Q 2397 3584 2667 3537 
Q 2938 3491 3200 3397 
z
" transform="scale(0.015625)"/>
     </defs>
     <use xlink:href="#DejaVuSans-48" transform="translate(0 0.684375)"/>
     <use xlink:href="#DejaVuSans-65" transform="translate(75.195312 0.684375)"/>
     <use xlink:href="#DejaVuSans-61" transform="translate(136.71875 0.684375)"/>
     <use xlink:href="#DejaVuSans-74" transform="translate(197.998047 0.684375)"/>
     <use xlink:href="#DejaVuSans-69" transform="translate(237.207031 0.684375)"/>
     <use xlink:href="#DejaVuSans-6e" transform="translate(264.990234 0.684375)"/>
     <use xlink:href="#DejaVuSans-67" transform="translate(328.369141 0.684375)"/>
     <use xlink:href="#DejaVuSans-20" transform="translate(391.845703 0.684375)"/>
     <use xlink:href="#DejaVuSans-52" transform="translate(423.632812 0.684375)"/>
     <use xlink:href="#DejaVuSans-61" transform="translate(493.115234 0.684375)"/>
     <use xlink:href="#DejaVuSans-74" transform="translate(554.394531 0.684375)"/>
     <use xlink:href="#DejaVuSans-65" transform="translate(593.603516 0.684375)"/>
     <use xlink:href="#DejaVuSans-20" transform="translate(655.126953 0.684375)"/>
     <use xlink:href="#DejaVuSans-28" transform="translate(686.914062 0.684375)"/>
     <use xlink:href="#DejaVuSans-2218" transform="translate(726.884766 38.965625) scale(0.7)"/>
     <use xlink:href="#DejaVuSans-Oblique-43" transform="translate(773.4375 0.684375)"/>
     <use xlink:href="#DejaVuSans-2e" transform="translate(843.261719 0.684375)"/>
     <use xlink:href="#DejaVuSans-Oblique-73" transform="translate(894.53125 0.684375)"/>
     <use xlink:href="#DejaVuSans-2212" transform="translate(951.280755 38.965625) scale(0.7)"/>
     <use xlink:href="#DejaVuSans-31" transform="translate(1009.933099 38.965625) scale(0.7)"/>
     <use xlink:href="#DejaVuSans-29" transform="translate(1057.203607 0.684375)"/>
    </g>
   </g>
   <g id="legend_1">
    <g id="patch_7">
     <path d="M 314.584 120.117575 
L 352.9465 120.117575 
Q 354.9465 120.117575 354.9465 118.117575 
L 354.9465 75.0832 
Q 354.9465 73.0832 352.9465 73.0832 
L 314.584 73.0832 
Q 312.584 73.0832 312.584 75.0832 
L 312.584 118.117575 
Q 312.584 120.117575 314.584 120.117575 
z
" style="fill: #ffffff; opacity: 0.8; stroke: #cccccc; stroke-linejoin: miter"/>
    </g>
    <g id="line2d_18">
     <path d="M 316.584 81.181637 
L 326.584 81.181637 
L 336.584 81.181637 
" style="fill: none; stroke-dasharray: 1.85,0.8; stroke-dashoffset: 0; stroke: #8000ff; stroke-width: 0.5"/>
    </g>
    <g id="text_19">
     <!-- 5 -->
     <g transform="translate(344.584 84.681637) scale(0.1 -0.1)">
      <defs>
       <path id="DejaVuSans-35" d="M 691 4666 
L 3169 4666 
L 3169 4134 
L 1269 4134 
L 1269 2991 
Q 1406 3038 1543 3061 
Q 1681 3084 1819 3084 
Q 2600 3084 3056 2656 
Q 3513 2228 3513 1497 
Q 3513 744 3044 326 
Q 2575 -91 1722 -91 
Q 1428 -91 1123 -41 
Q 819 9 494 109 
L 494 744 
Q 775 591 1075 516 
Q 1375 441 1709 441 
Q 2250 441 2565 725 
Q 2881 1009 2881 1497 
Q 2881 1984 2565 2268 
Q 2250 2553 1709 2553 
Q 1456 2553 1204 2497 
Q 953 2441 691 2322 
L 691 4666 
z
" transform="scale(0.015625)"/>
      </defs>
      <use xlink:href="#DejaVuSans-35"/>
     </g>
    </g>
    <g id="line2d_19">
     <path d="M 316.584 95.859762 
L 326.584 95.859762 
L 336.584 95.859762 
" style="fill: none; stroke-dasharray: 1.85,0.8; stroke-dashoffset: 0; stroke: #80ffb4; stroke-width: 0.5"/>
    </g>
    <g id="text_20">
     <!-- 5 -->
     <g transform="translate(344.584 99.359762) scale(0.1 -0.1)">
      <use xlink:href="#DejaVuSans-35"/>
     </g>
    </g>
    <g id="line2d_20">
     <path d="M 316.584 110.537887 
L 326.584 110.537887 
L 336.584 110.537887 
" style="fill: none; stroke-dasharray: 1.85,0.8; stroke-dashoffset: 0; stroke: #ff0000; stroke-width: 0.5"/>
    </g>
    <g id="text_21">
     <!-- 5 -->
     <g transform="translate(344.584 114.037887) scale(0.1 -0.1)">
      <use xlink:href="#DejaVuSans-35"/>
     </g>
    </g>
   </g>
  </g>
 </g>
 <defs>
  <clipPath id="p20ecb1c3f1">
   <rect x="57.6" y="41.472" width="357.12" height="266.112"/>
  </clipPath>
 </defs>
</svg>
