<?xml version="1.0" encoding="utf-8" standalone="no"?>
<!DOCTYPE svg PUBLIC "-//W3C//DTD SVG 1.1//EN"
  "http://www.w3.org/Graphics/SVG/1.1/DTD/svg11.dtd">
<svg xmlns:xlink="http://www.w3.org/1999/xlink" width="460.8pt" height="345.6pt" viewBox="0 0 460.8 345.6" xmlns="http://www.w3.org/2000/svg" version="1.1">
 <metadata>
  <rdf:RDF xmlns:dc="http://purl.org/dc/elements/1.1/" xmlns:cc="http://creativecommons.org/ns#" xmlns:rdf="http://www.w3.org/1999/02/22-rdf-syntax-ns#">
   <cc:Work>
    <dc:type rdf:resource="http://purl.org/dc/dcmitype/StillImage"/>
    <dc:date>2025-03-26T12:09:26.928511</dc:date>
    <dc:format>image/svg+xml</dc:format>
    <dc:creator>
     <cc:Agent>
      <dc:title>Matplotlib v3.10.0, https://matplotlib.org/</dc:title>
     </cc:Agent>
    </dc:creator>
   </cc:Work>
  </rdf:RDF>
 </metadata>
 <defs>
  <style type="text/css">*{stroke-linejoin: round; stroke-linecap: butt}</style>
 </defs>
 <g id="figure_1">
  <g id="patch_1">
   <path d="M 0 345.6 
L 460.8 345.6 
L 460.8 0 
L 0 0 
z
" style="fill: #ffffff"/>
  </g>
  <g id="axes_1">
   <g id="patch_2">
    <path d="M 57.6 307.584 
L 414.72 307.584 
L 414.72 41.472 
L 57.6 41.472 
z
" style="fill: #ffffff"/>
   </g>
   <g id="matplotlib.axis_1">
    <g id="xtick_1">
     <g id="line2d_1">
      <path d="M 146.88 307.584 
L 146.88 41.472 
" clip-path="url(#p8ae603f574)" style="fill: none; stroke: #b0b0b0; stroke-width: 0.8; stroke-linecap: square"/>
     </g>
     <g id="line2d_2">
      <defs>
       <path id="m812d35750c" d="M 0 0 
L 0 3.5 
" style="stroke: #000000; stroke-width: 0.8"/>
      </defs>
      <g>
       <use xlink:href="#m812d35750c" x="146.88" y="307.584" style="stroke: #000000; stroke-width: 0.8"/>
      </g>
     </g>
     <g id="text_1">
      <!-- 100 -->
      <g transform="translate(137.33625 322.182437) scale(0.1 -0.1)">
       <defs>
        <path id="DejaVuSans-31" d="M 794 531 
L 1825 531 
L 1825 4091 
L 703 3866 
L 703 4441 
L 1819 4666 
L 2450 4666 
L 2450 531 
L 3481 531 
L 3481 0 
L 794 0 
L 794 531 
z
" transform="scale(0.015625)"/>
        <path id="DejaVuSans-30" d="M 2034 4250 
Q 1547 4250 1301 3770 
Q 1056 3291 1056 2328 
Q 1056 1369 1301 889 
Q 1547 409 2034 409 
Q 2525 409 2770 889 
Q 3016 1369 3016 2328 
Q 3016 3291 2770 3770 
Q 2525 4250 2034 4250 
z
M 2034 4750 
Q 2819 4750 3233 4129 
Q 3647 3509 3647 2328 
Q 3647 1150 3233 529 
Q 2819 -91 2034 -91 
Q 1250 -91 836 529 
Q 422 1150 422 2328 
Q 422 3509 836 4129 
Q 1250 4750 2034 4750 
z
" transform="scale(0.015625)"/>
       </defs>
       <use xlink:href="#DejaVuSans-31"/>
       <use xlink:href="#DejaVuSans-30" transform="translate(63.623047 0)"/>
       <use xlink:href="#DejaVuSans-30" transform="translate(127.246094 0)"/>
      </g>
     </g>
    </g>
    <g id="xtick_2">
     <g id="line2d_3">
      <path d="M 236.16 307.584 
L 236.16 41.472 
" clip-path="url(#p8ae603f574)" style="fill: none; stroke: #b0b0b0; stroke-width: 0.8; stroke-linecap: square"/>
     </g>
     <g id="line2d_4">
      <g>
       <use xlink:href="#m812d35750c" x="236.16" y="307.584" style="stroke: #000000; stroke-width: 0.8"/>
      </g>
     </g>
     <g id="text_2">
      <!-- 200 -->
      <g transform="translate(226.61625 322.182437) scale(0.1 -0.1)">
       <defs>
        <path id="DejaVuSans-32" d="M 1228 531 
L 3431 531 
L 3431 0 
L 469 0 
L 469 531 
Q 828 903 1448 1529 
Q 2069 2156 2228 2338 
Q 2531 2678 2651 2914 
Q 2772 3150 2772 3378 
Q 2772 3750 2511 3984 
Q 2250 4219 1831 4219 
Q 1534 4219 1204 4116 
Q 875 4013 500 3803 
L 500 4441 
Q 881 4594 1212 4672 
Q 1544 4750 1819 4750 
Q 2544 4750 2975 4387 
Q 3406 4025 3406 3419 
Q 3406 3131 3298 2873 
Q 3191 2616 2906 2266 
Q 2828 2175 2409 1742 
Q 1991 1309 1228 531 
z
" transform="scale(0.015625)"/>
       </defs>
       <use xlink:href="#DejaVuSans-32"/>
       <use xlink:href="#DejaVuSans-30" transform="translate(63.623047 0)"/>
       <use xlink:href="#DejaVuSans-30" transform="translate(127.246094 0)"/>
      </g>
     </g>
    </g>
    <g id="xtick_3">
     <g id="line2d_5">
      <path d="M 325.44 307.584 
L 325.44 41.472 
" clip-path="url(#p8ae603f574)" style="fill: none; stroke: #b0b0b0; stroke-width: 0.8; stroke-linecap: square"/>
     </g>
     <g id="line2d_6">
      <g>
       <use xlink:href="#m812d35750c" x="325.44" y="307.584" style="stroke: #000000; stroke-width: 0.8"/>
      </g>
     </g>
     <g id="text_3">
      <!-- 300 -->
      <g transform="translate(315.89625 322.182437) scale(0.1 -0.1)">
       <defs>
        <path id="DejaVuSans-33" d="M 2597 2516 
Q 3050 2419 3304 2112 
Q 3559 1806 3559 1356 
Q 3559 666 3084 287 
Q 2609 -91 1734 -91 
Q 1441 -91 1130 -33 
Q 819 25 488 141 
L 488 750 
Q 750 597 1062 519 
Q 1375 441 1716 441 
Q 2309 441 2620 675 
Q 2931 909 2931 1356 
Q 2931 1769 2642 2001 
Q 2353 2234 1838 2234 
L 1294 2234 
L 1294 2753 
L 1863 2753 
Q 2328 2753 2575 2939 
Q 2822 3125 2822 3475 
Q 2822 3834 2567 4026 
Q 2313 4219 1838 4219 
Q 1578 4219 1281 4162 
Q 984 4106 628 3988 
L 628 4550 
Q 988 4650 1302 4700 
Q 1616 4750 1894 4750 
Q 2613 4750 3031 4423 
Q 3450 4097 3450 3541 
Q 3450 3153 3228 2886 
Q 3006 2619 2597 2516 
z
" transform="scale(0.015625)"/>
       </defs>
       <use xlink:href="#DejaVuSans-33"/>
       <use xlink:href="#DejaVuSans-30" transform="translate(63.623047 0)"/>
       <use xlink:href="#DejaVuSans-30" transform="translate(127.246094 0)"/>
      </g>
     </g>
    </g>
    <g id="xtick_4">
     <g id="line2d_7">
      <path d="M 414.72 307.584 
L 414.72 41.472 
" clip-path="url(#p8ae603f574)" style="fill: none; stroke: #b0b0b0; stroke-width: 0.8; stroke-linecap: square"/>
     </g>
     <g id="line2d_8">
      <g>
       <use xlink:href="#m812d35750c" x="414.72" y="307.584" style="stroke: #000000; stroke-width: 0.8"/>
      </g>
     </g>
     <g id="text_4">
      <!-- 400 -->
      <g transform="translate(405.17625 322.182437) scale(0.1 -0.1)">
       <defs>
        <path id="DejaVuSans-34" d="M 2419 4116 
L 825 1625 
L 2419 1625 
L 2419 4116 
z
M 2253 4666 
L 3047 4666 
L 3047 1625 
L 3713 1625 
L 3713 1100 
L 3047 1100 
L 3047 0 
L 2419 0 
L 2419 1100 
L 313 1100 
L 313 1709 
L 2253 4666 
z
" transform="scale(0.015625)"/>
       </defs>
       <use xlink:href="#DejaVuSans-34"/>
       <use xlink:href="#DejaVuSans-30" transform="translate(63.623047 0)"/>
       <use xlink:href="#DejaVuSans-30" transform="translate(127.246094 0)"/>
      </g>
     </g>
    </g>
    <g id="text_5">
     <!-- Irradiation time (s)  -->
     <g transform="translate(187.823281 335.860562) scale(0.1 -0.1)">
      <defs>
       <path id="DejaVuSans-49" d="M 628 4666 
L 1259 4666 
L 1259 0 
L 628 0 
L 628 4666 
z
" transform="scale(0.015625)"/>
       <path id="DejaVuSans-72" d="M 2631 2963 
Q 2534 3019 2420 3045 
Q 2306 3072 2169 3072 
Q 1681 3072 1420 2755 
Q 1159 2438 1159 1844 
L 1159 0 
L 581 0 
L 581 3500 
L 1159 3500 
L 1159 2956 
Q 1341 3275 1631 3429 
Q 1922 3584 2338 3584 
Q 2397 3584 2469 3576 
Q 2541 3569 2628 3553 
L 2631 2963 
z
" transform="scale(0.015625)"/>
       <path id="DejaVuSans-61" d="M 2194 1759 
Q 1497 1759 1228 1600 
Q 959 1441 959 1056 
Q 959 750 1161 570 
Q 1363 391 1709 391 
Q 2188 391 2477 730 
Q 2766 1069 2766 1631 
L 2766 1759 
L 2194 1759 
z
M 3341 1997 
L 3341 0 
L 2766 0 
L 2766 531 
Q 2569 213 2275 61 
Q 1981 -91 1556 -91 
Q 1019 -91 701 211 
Q 384 513 384 1019 
Q 384 1609 779 1909 
Q 1175 2209 1959 2209 
L 2766 2209 
L 2766 2266 
Q 2766 2663 2505 2880 
Q 2244 3097 1772 3097 
Q 1472 3097 1187 3025 
Q 903 2953 641 2809 
L 641 3341 
Q 956 3463 1253 3523 
Q 1550 3584 1831 3584 
Q 2591 3584 2966 3190 
Q 3341 2797 3341 1997 
z
" transform="scale(0.015625)"/>
       <path id="DejaVuSans-64" d="M 2906 2969 
L 2906 4863 
L 3481 4863 
L 3481 0 
L 2906 0 
L 2906 525 
Q 2725 213 2448 61 
Q 2172 -91 1784 -91 
Q 1150 -91 751 415 
Q 353 922 353 1747 
Q 353 2572 751 3078 
Q 1150 3584 1784 3584 
Q 2172 3584 2448 3432 
Q 2725 3281 2906 2969 
z
M 947 1747 
Q 947 1113 1208 752 
Q 1469 391 1925 391 
Q 2381 391 2643 752 
Q 2906 1113 2906 1747 
Q 2906 2381 2643 2742 
Q 2381 3103 1925 3103 
Q 1469 3103 1208 2742 
Q 947 2381 947 1747 
z
" transform="scale(0.015625)"/>
       <path id="DejaVuSans-69" d="M 603 3500 
L 1178 3500 
L 1178 0 
L 603 0 
L 603 3500 
z
M 603 4863 
L 1178 4863 
L 1178 4134 
L 603 4134 
L 603 4863 
z
" transform="scale(0.015625)"/>
       <path id="DejaVuSans-74" d="M 1172 4494 
L 1172 3500 
L 2356 3500 
L 2356 3053 
L 1172 3053 
L 1172 1153 
Q 1172 725 1289 603 
Q 1406 481 1766 481 
L 2356 481 
L 2356 0 
L 1766 0 
Q 1100 0 847 248 
Q 594 497 594 1153 
L 594 3053 
L 172 3053 
L 172 3500 
L 594 3500 
L 594 4494 
L 1172 4494 
z
" transform="scale(0.015625)"/>
       <path id="DejaVuSans-6f" d="M 1959 3097 
Q 1497 3097 1228 2736 
Q 959 2375 959 1747 
Q 959 1119 1226 758 
Q 1494 397 1959 397 
Q 2419 397 2687 759 
Q 2956 1122 2956 1747 
Q 2956 2369 2687 2733 
Q 2419 3097 1959 3097 
z
M 1959 3584 
Q 2709 3584 3137 3096 
Q 3566 2609 3566 1747 
Q 3566 888 3137 398 
Q 2709 -91 1959 -91 
Q 1206 -91 779 398 
Q 353 888 353 1747 
Q 353 2609 779 3096 
Q 1206 3584 1959 3584 
z
" transform="scale(0.015625)"/>
       <path id="DejaVuSans-6e" d="M 3513 2113 
L 3513 0 
L 2938 0 
L 2938 2094 
Q 2938 2591 2744 2837 
Q 2550 3084 2163 3084 
Q 1697 3084 1428 2787 
Q 1159 2491 1159 1978 
L 1159 0 
L 581 0 
L 581 3500 
L 1159 3500 
L 1159 2956 
Q 1366 3272 1645 3428 
Q 1925 3584 2291 3584 
Q 2894 3584 3203 3211 
Q 3513 2838 3513 2113 
z
" transform="scale(0.015625)"/>
       <path id="DejaVuSans-20" transform="scale(0.015625)"/>
       <path id="DejaVuSans-6d" d="M 3328 2828 
Q 3544 3216 3844 3400 
Q 4144 3584 4550 3584 
Q 5097 3584 5394 3201 
Q 5691 2819 5691 2113 
L 5691 0 
L 5113 0 
L 5113 2094 
Q 5113 2597 4934 2840 
Q 4756 3084 4391 3084 
Q 3944 3084 3684 2787 
Q 3425 2491 3425 1978 
L 3425 0 
L 2847 0 
L 2847 2094 
Q 2847 2600 2669 2842 
Q 2491 3084 2119 3084 
Q 1678 3084 1418 2786 
Q 1159 2488 1159 1978 
L 1159 0 
L 581 0 
L 581 3500 
L 1159 3500 
L 1159 2956 
Q 1356 3278 1631 3431 
Q 1906 3584 2284 3584 
Q 2666 3584 2933 3390 
Q 3200 3197 3328 2828 
z
" transform="scale(0.015625)"/>
       <path id="DejaVuSans-65" d="M 3597 1894 
L 3597 1613 
L 953 1613 
Q 991 1019 1311 708 
Q 1631 397 2203 397 
Q 2534 397 2845 478 
Q 3156 559 3463 722 
L 3463 178 
Q 3153 47 2828 -22 
Q 2503 -91 2169 -91 
Q 1331 -91 842 396 
Q 353 884 353 1716 
Q 353 2575 817 3079 
Q 1281 3584 2069 3584 
Q 2775 3584 3186 3129 
Q 3597 2675 3597 1894 
z
M 3022 2063 
Q 3016 2534 2758 2815 
Q 2500 3097 2075 3097 
Q 1594 3097 1305 2825 
Q 1016 2553 972 2059 
L 3022 2063 
z
" transform="scale(0.015625)"/>
       <path id="DejaVuSans-28" d="M 1984 4856 
Q 1566 4138 1362 3434 
Q 1159 2731 1159 2009 
Q 1159 1288 1364 580 
Q 1569 -128 1984 -844 
L 1484 -844 
Q 1016 -109 783 600 
Q 550 1309 550 2009 
Q 550 2706 781 3412 
Q 1013 4119 1484 4856 
L 1984 4856 
z
" transform="scale(0.015625)"/>
       <path id="DejaVuSans-73" d="M 2834 3397 
L 2834 2853 
Q 2591 2978 2328 3040 
Q 2066 3103 1784 3103 
Q 1356 3103 1142 2972 
Q 928 2841 928 2578 
Q 928 2378 1081 2264 
Q 1234 2150 1697 2047 
L 1894 2003 
Q 2506 1872 2764 1633 
Q 3022 1394 3022 966 
Q 3022 478 2636 193 
Q 2250 -91 1575 -91 
Q 1294 -91 989 -36 
Q 684 19 347 128 
L 347 722 
Q 666 556 975 473 
Q 1284 391 1588 391 
Q 1994 391 2212 530 
Q 2431 669 2431 922 
Q 2431 1156 2273 1281 
Q 2116 1406 1581 1522 
L 1381 1569 
Q 847 1681 609 1914 
Q 372 2147 372 2553 
Q 372 3047 722 3315 
Q 1072 3584 1716 3584 
Q 2034 3584 2315 3537 
Q 2597 3491 2834 3397 
z
" transform="scale(0.015625)"/>
       <path id="DejaVuSans-29" d="M 513 4856 
L 1013 4856 
Q 1481 4119 1714 3412 
Q 1947 2706 1947 2009 
Q 1947 1309 1714 600 
Q 1481 -109 1013 -844 
L 513 -844 
Q 928 -128 1133 580 
Q 1338 1288 1338 2009 
Q 1338 2731 1133 3434 
Q 928 4138 513 4856 
z
" transform="scale(0.015625)"/>
      </defs>
      <use xlink:href="#DejaVuSans-49"/>
      <use xlink:href="#DejaVuSans-72" transform="translate(29.492188 0)"/>
      <use xlink:href="#DejaVuSans-72" transform="translate(68.855469 0)"/>
      <use xlink:href="#DejaVuSans-61" transform="translate(109.96875 0)"/>
      <use xlink:href="#DejaVuSans-64" transform="translate(171.248047 0)"/>
      <use xlink:href="#DejaVuSans-69" transform="translate(234.724609 0)"/>
      <use xlink:href="#DejaVuSans-61" transform="translate(262.507812 0)"/>
      <use xlink:href="#DejaVuSans-74" transform="translate(323.787109 0)"/>
      <use xlink:href="#DejaVuSans-69" transform="translate(362.996094 0)"/>
      <use xlink:href="#DejaVuSans-6f" transform="translate(390.779297 0)"/>
      <use xlink:href="#DejaVuSans-6e" transform="translate(451.960938 0)"/>
      <use xlink:href="#DejaVuSans-20" transform="translate(515.339844 0)"/>
      <use xlink:href="#DejaVuSans-74" transform="translate(547.126953 0)"/>
      <use xlink:href="#DejaVuSans-69" transform="translate(586.335938 0)"/>
      <use xlink:href="#DejaVuSans-6d" transform="translate(614.119141 0)"/>
      <use xlink:href="#DejaVuSans-65" transform="translate(711.53125 0)"/>
      <use xlink:href="#DejaVuSans-20" transform="translate(773.054688 0)"/>
      <use xlink:href="#DejaVuSans-28" transform="translate(804.841797 0)"/>
      <use xlink:href="#DejaVuSans-73" transform="translate(843.855469 0)"/>
      <use xlink:href="#DejaVuSans-29" transform="translate(895.955078 0)"/>
      <use xlink:href="#DejaVuSans-20" transform="translate(934.96875 0)"/>
     </g>
    </g>
   </g>
   <g id="matplotlib.axis_2">
    <g id="ytick_1">
     <g id="line2d_9">
      <path d="M 57.6 307.584 
L 414.72 307.584 
" clip-path="url(#p8ae603f574)" style="fill: none; stroke: #b0b0b0; stroke-width: 0.8; stroke-linecap: square"/>
     </g>
     <g id="line2d_10">
      <defs>
       <path id="m51e1d593da" d="M 0 0 
L -3.5 0 
" style="stroke: #000000; stroke-width: 0.8"/>
      </defs>
      <g>
       <use xlink:href="#m51e1d593da" x="57.6" y="307.584" style="stroke: #000000; stroke-width: 0.8"/>
      </g>
     </g>
     <g id="text_6">
      <!-- 0.0 -->
      <g transform="translate(34.696875 311.383219) scale(0.1 -0.1)">
       <defs>
        <path id="DejaVuSans-2e" d="M 684 794 
L 1344 794 
L 1344 0 
L 684 0 
L 684 794 
z
" transform="scale(0.015625)"/>
       </defs>
       <use xlink:href="#DejaVuSans-30"/>
       <use xlink:href="#DejaVuSans-2e" transform="translate(63.623047 0)"/>
       <use xlink:href="#DejaVuSans-30" transform="translate(95.410156 0)"/>
      </g>
     </g>
    </g>
    <g id="ytick_2">
     <g id="line2d_11">
      <path d="M 57.6 269.568 
L 414.72 269.568 
" clip-path="url(#p8ae603f574)" style="fill: none; stroke: #b0b0b0; stroke-width: 0.8; stroke-linecap: square"/>
     </g>
     <g id="line2d_12">
      <g>
       <use xlink:href="#m51e1d593da" x="57.6" y="269.568" style="stroke: #000000; stroke-width: 0.8"/>
      </g>
     </g>
     <g id="text_7">
      <!-- 0.1 -->
      <g transform="translate(34.696875 273.367219) scale(0.1 -0.1)">
       <use xlink:href="#DejaVuSans-30"/>
       <use xlink:href="#DejaVuSans-2e" transform="translate(63.623047 0)"/>
       <use xlink:href="#DejaVuSans-31" transform="translate(95.410156 0)"/>
      </g>
     </g>
    </g>
    <g id="ytick_3">
     <g id="line2d_13">
      <path d="M 57.6 231.552 
L 414.72 231.552 
" clip-path="url(#p8ae603f574)" style="fill: none; stroke: #b0b0b0; stroke-width: 0.8; stroke-linecap: square"/>
     </g>
     <g id="line2d_14">
      <g>
       <use xlink:href="#m51e1d593da" x="57.6" y="231.552" style="stroke: #000000; stroke-width: 0.8"/>
      </g>
     </g>
     <g id="text_8">
      <!-- 0.2 -->
      <g transform="translate(34.696875 235.351219) scale(0.1 -0.1)">
       <use xlink:href="#DejaVuSans-30"/>
       <use xlink:href="#DejaVuSans-2e" transform="translate(63.623047 0)"/>
       <use xlink:href="#DejaVuSans-32" transform="translate(95.410156 0)"/>
      </g>
     </g>
    </g>
    <g id="ytick_4">
     <g id="line2d_15">
      <path d="M 57.6 193.536 
L 414.72 193.536 
" clip-path="url(#p8ae603f574)" style="fill: none; stroke: #b0b0b0; stroke-width: 0.8; stroke-linecap: square"/>
     </g>
     <g id="line2d_16">
      <g>
       <use xlink:href="#m51e1d593da" x="57.6" y="193.536" style="stroke: #000000; stroke-width: 0.8"/>
      </g>
     </g>
     <g id="text_9">
      <!-- 0.3 -->
      <g transform="translate(34.696875 197.335219) scale(0.1 -0.1)">
       <use xlink:href="#DejaVuSans-30"/>
       <use xlink:href="#DejaVuSans-2e" transform="translate(63.623047 0)"/>
       <use xlink:href="#DejaVuSans-33" transform="translate(95.410156 0)"/>
      </g>
     </g>
    </g>
    <g id="ytick_5">
     <g id="line2d_17">
      <path d="M 57.6 155.52 
L 414.72 155.52 
" clip-path="url(#p8ae603f574)" style="fill: none; stroke: #b0b0b0; stroke-width: 0.8; stroke-linecap: square"/>
     </g>
     <g id="line2d_18">
      <g>
       <use xlink:href="#m51e1d593da" x="57.6" y="155.52" style="stroke: #000000; stroke-width: 0.8"/>
      </g>
     </g>
     <g id="text_10">
      <!-- 0.4 -->
      <g transform="translate(34.696875 159.319219) scale(0.1 -0.1)">
       <use xlink:href="#DejaVuSans-30"/>
       <use xlink:href="#DejaVuSans-2e" transform="translate(63.623047 0)"/>
       <use xlink:href="#DejaVuSans-34" transform="translate(95.410156 0)"/>
      </g>
     </g>
    </g>
    <g id="ytick_6">
     <g id="line2d_19">
      <path d="M 57.6 117.504 
L 414.72 117.504 
" clip-path="url(#p8ae603f574)" style="fill: none; stroke: #b0b0b0; stroke-width: 0.8; stroke-linecap: square"/>
     </g>
     <g id="line2d_20">
      <g>
       <use xlink:href="#m51e1d593da" x="57.6" y="117.504" style="stroke: #000000; stroke-width: 0.8"/>
      </g>
     </g>
     <g id="text_11">
      <!-- 0.5 -->
      <g transform="translate(34.696875 121.303219) scale(0.1 -0.1)">
       <defs>
        <path id="DejaVuSans-35" d="M 691 4666 
L 3169 4666 
L 3169 4134 
L 1269 4134 
L 1269 2991 
Q 1406 3038 1543 3061 
Q 1681 3084 1819 3084 
Q 2600 3084 3056 2656 
Q 3513 2228 3513 1497 
Q 3513 744 3044 326 
Q 2575 -91 1722 -91 
Q 1428 -91 1123 -41 
Q 819 9 494 109 
L 494 744 
Q 775 591 1075 516 
Q 1375 441 1709 441 
Q 2250 441 2565 725 
Q 2881 1009 2881 1497 
Q 2881 1984 2565 2268 
Q 2250 2553 1709 2553 
Q 1456 2553 1204 2497 
Q 953 2441 691 2322 
L 691 4666 
z
" transform="scale(0.015625)"/>
       </defs>
       <use xlink:href="#DejaVuSans-30"/>
       <use xlink:href="#DejaVuSans-2e" transform="translate(63.623047 0)"/>
       <use xlink:href="#DejaVuSans-35" transform="translate(95.410156 0)"/>
      </g>
     </g>
    </g>
    <g id="ytick_7">
     <g id="line2d_21">
      <path d="M 57.6 79.488 
L 414.72 79.488 
" clip-path="url(#p8ae603f574)" style="fill: none; stroke: #b0b0b0; stroke-width: 0.8; stroke-linecap: square"/>
     </g>
     <g id="line2d_22">
      <g>
       <use xlink:href="#m51e1d593da" x="57.6" y="79.488" style="stroke: #000000; stroke-width: 0.8"/>
      </g>
     </g>
     <g id="text_12">
      <!-- 0.6 -->
      <g transform="translate(34.696875 83.287219) scale(0.1 -0.1)">
       <defs>
        <path id="DejaVuSans-36" d="M 2113 2584 
Q 1688 2584 1439 2293 
Q 1191 2003 1191 1497 
Q 1191 994 1439 701 
Q 1688 409 2113 409 
Q 2538 409 2786 701 
Q 3034 994 3034 1497 
Q 3034 2003 2786 2293 
Q 2538 2584 2113 2584 
z
M 3366 4563 
L 3366 3988 
Q 3128 4100 2886 4159 
Q 2644 4219 2406 4219 
Q 1781 4219 1451 3797 
Q 1122 3375 1075 2522 
Q 1259 2794 1537 2939 
Q 1816 3084 2150 3084 
Q 2853 3084 3261 2657 
Q 3669 2231 3669 1497 
Q 3669 778 3244 343 
Q 2819 -91 2113 -91 
Q 1303 -91 875 529 
Q 447 1150 447 2328 
Q 447 3434 972 4092 
Q 1497 4750 2381 4750 
Q 2619 4750 2861 4703 
Q 3103 4656 3366 4563 
z
" transform="scale(0.015625)"/>
       </defs>
       <use xlink:href="#DejaVuSans-30"/>
       <use xlink:href="#DejaVuSans-2e" transform="translate(63.623047 0)"/>
       <use xlink:href="#DejaVuSans-36" transform="translate(95.410156 0)"/>
      </g>
     </g>
    </g>
    <g id="ytick_8">
     <g id="line2d_23">
      <path d="M 57.6 41.472 
L 414.72 41.472 
" clip-path="url(#p8ae603f574)" style="fill: none; stroke: #b0b0b0; stroke-width: 0.8; stroke-linecap: square"/>
     </g>
     <g id="line2d_24">
      <g>
       <use xlink:href="#m51e1d593da" x="57.6" y="41.472" style="stroke: #000000; stroke-width: 0.8"/>
      </g>
     </g>
     <g id="text_13">
      <!-- 0.7 -->
      <g transform="translate(34.696875 45.271219) scale(0.1 -0.1)">
       <defs>
        <path id="DejaVuSans-37" d="M 525 4666 
L 3525 4666 
L 3525 4397 
L 1831 0 
L 1172 0 
L 2766 4134 
L 525 4134 
L 525 4666 
z
" transform="scale(0.015625)"/>
       </defs>
       <use xlink:href="#DejaVuSans-30"/>
       <use xlink:href="#DejaVuSans-2e" transform="translate(63.623047 0)"/>
       <use xlink:href="#DejaVuSans-37" transform="translate(95.410156 0)"/>
      </g>
     </g>
    </g>
    <g id="text_14">
     <!-- Percent of filled traps -->
     <g transform="translate(28.617187 227.95925) rotate(-90) scale(0.1 -0.1)">
      <defs>
       <path id="DejaVuSans-50" d="M 1259 4147 
L 1259 2394 
L 2053 2394 
Q 2494 2394 2734 2622 
Q 2975 2850 2975 3272 
Q 2975 3691 2734 3919 
Q 2494 4147 2053 4147 
L 1259 4147 
z
M 628 4666 
L 2053 4666 
Q 2838 4666 3239 4311 
Q 3641 3956 3641 3272 
Q 3641 2581 3239 2228 
Q 2838 1875 2053 1875 
L 1259 1875 
L 1259 0 
L 628 0 
L 628 4666 
z
" transform="scale(0.015625)"/>
       <path id="DejaVuSans-63" d="M 3122 3366 
L 3122 2828 
Q 2878 2963 2633 3030 
Q 2388 3097 2138 3097 
Q 1578 3097 1268 2742 
Q 959 2388 959 1747 
Q 959 1106 1268 751 
Q 1578 397 2138 397 
Q 2388 397 2633 464 
Q 2878 531 3122 666 
L 3122 134 
Q 2881 22 2623 -34 
Q 2366 -91 2075 -91 
Q 1284 -91 818 406 
Q 353 903 353 1747 
Q 353 2603 823 3093 
Q 1294 3584 2113 3584 
Q 2378 3584 2631 3529 
Q 2884 3475 3122 3366 
z
" transform="scale(0.015625)"/>
       <path id="DejaVuSans-66" d="M 2375 4863 
L 2375 4384 
L 1825 4384 
Q 1516 4384 1395 4259 
Q 1275 4134 1275 3809 
L 1275 3500 
L 2222 3500 
L 2222 3053 
L 1275 3053 
L 1275 0 
L 697 0 
L 697 3053 
L 147 3053 
L 147 3500 
L 697 3500 
L 697 3744 
Q 697 4328 969 4595 
Q 1241 4863 1831 4863 
L 2375 4863 
z
" transform="scale(0.015625)"/>
       <path id="DejaVuSans-6c" d="M 603 4863 
L 1178 4863 
L 1178 0 
L 603 0 
L 603 4863 
z
" transform="scale(0.015625)"/>
       <path id="DejaVuSans-70" d="M 1159 525 
L 1159 -1331 
L 581 -1331 
L 581 3500 
L 1159 3500 
L 1159 2969 
Q 1341 3281 1617 3432 
Q 1894 3584 2278 3584 
Q 2916 3584 3314 3078 
Q 3713 2572 3713 1747 
Q 3713 922 3314 415 
Q 2916 -91 2278 -91 
Q 1894 -91 1617 61 
Q 1341 213 1159 525 
z
M 3116 1747 
Q 3116 2381 2855 2742 
Q 2594 3103 2138 3103 
Q 1681 3103 1420 2742 
Q 1159 2381 1159 1747 
Q 1159 1113 1420 752 
Q 1681 391 2138 391 
Q 2594 391 2855 752 
Q 3116 1113 3116 1747 
z
" transform="scale(0.015625)"/>
      </defs>
      <use xlink:href="#DejaVuSans-50"/>
      <use xlink:href="#DejaVuSans-65" transform="translate(56.677734 0)"/>
      <use xlink:href="#DejaVuSans-72" transform="translate(118.201172 0)"/>
      <use xlink:href="#DejaVuSans-63" transform="translate(157.064453 0)"/>
      <use xlink:href="#DejaVuSans-65" transform="translate(212.044922 0)"/>
      <use xlink:href="#DejaVuSans-6e" transform="translate(273.568359 0)"/>
      <use xlink:href="#DejaVuSans-74" transform="translate(336.947266 0)"/>
      <use xlink:href="#DejaVuSans-20" transform="translate(376.15625 0)"/>
      <use xlink:href="#DejaVuSans-6f" transform="translate(407.943359 0)"/>
      <use xlink:href="#DejaVuSans-66" transform="translate(469.125 0)"/>
      <use xlink:href="#DejaVuSans-20" transform="translate(504.330078 0)"/>
      <use xlink:href="#DejaVuSans-66" transform="translate(536.117188 0)"/>
      <use xlink:href="#DejaVuSans-69" transform="translate(571.322266 0)"/>
      <use xlink:href="#DejaVuSans-6c" transform="translate(599.105469 0)"/>
      <use xlink:href="#DejaVuSans-6c" transform="translate(626.888672 0)"/>
      <use xlink:href="#DejaVuSans-65" transform="translate(654.671875 0)"/>
      <use xlink:href="#DejaVuSans-64" transform="translate(716.195312 0)"/>
      <use xlink:href="#DejaVuSans-20" transform="translate(779.671875 0)"/>
      <use xlink:href="#DejaVuSans-74" transform="translate(811.458984 0)"/>
      <use xlink:href="#DejaVuSans-72" transform="translate(850.667969 0)"/>
      <use xlink:href="#DejaVuSans-61" transform="translate(891.78125 0)"/>
      <use xlink:href="#DejaVuSans-70" transform="translate(953.060547 0)"/>
      <use xlink:href="#DejaVuSans-73" transform="translate(1016.537109 0)"/>
     </g>
    </g>
   </g>
   <g id="line2d_25">
    <path d="M 62.997451 299.79072 
L 67.097114 296.36928 
L 69.865504 293.328 
L 69.865504 291.80736 
L 72.655504 288.76608 
L 75.467492 286.48512 
L 78.309316 283.44384 
L 79.741615 282.30336 
L 79.741615 281.16288 
L 82.621615 278.88192 
L 84.069399 278.1216 
L 84.069399 277.36128 
L 86.980704 275.84064 
L 88.44431 275.46048 
L 88.44431 275.08032 
L 89.915958 274.32 
L 89.915958 273.55968 
L 91.387607 273.17952 
L 91.387607 272.79936 
L 94.330904 271.27872 
L 95.810683 270.13824 
L 95.810683 268.99776 
L 106.353267 258.35328 
L 109.440786 255.312 
L 109.440786 253.79136 
L 112.555204 250.75008 
L 115.69705 248.46912 
L 118.876187 245.42784 
L 120.48002 244.28736 
L 120.48002 243.14688 
L 125.33028 239.72544 
L 125.33028 238.96512 
L 126.963451 237.82464 
L 131.893145 235.54368 
L 131.893145 234.78336 
L 133.556748 234.02304 
L 133.556748 233.26272 
L 136.883953 232.5024 
L 136.883953 232.12224 
L 140.231953 231.36192 
L 140.231953 230.98176 
L 141.916481 230.98176 
L 141.916481 230.6016 
L 145.285538 229.84128 
L 145.285538 229.46112 
L 148.654594 228.7008 
L 148.654594 227.94048 
L 150.349784 227.56032 
L 152.044974 226.8 
L 152.044974 226.03968 
L 153.750961 225.27936 
L 155.456949 224.13888 
L 155.456949 223.37856 
L 157.173872 222.61824 
L 162.358015 219.1968 
L 162.358015 218.05632 
L 169.395072 213.4944 
L 169.395072 211.97376 
L 174.763856 208.55232 
L 176.573586 207.98208 
L 178.395626 207.03168 
L 178.395626 206.08128 
L 182.064668 204.9408 
L 182.064668 204.37056 
L 185.746361 203.9904 
L 185.746361 203.80032 
L 187.593533 203.9904 
L 191.300705 203.23008 
L 191.300705 202.84992 
L 193.147878 202.84992 
L 193.147878 202.46976 
L 196.842223 200.94912 
L 198.702223 199.80864 
L 198.702223 198.66816 
L 202.448237 196.3872 
L 208.147151 194.10624 
L 208.147151 193.34592 
L 210.074058 192.5856 
L 210.074058 192.39552 
L 212.000964 192.20544 
L 212.000964 192.01536 
L 215.854777 190.87488 
L 215.854777 190.30464 
L 223.618459 188.02368 
L 223.618459 187.26336 
L 225.587871 186.50304 
L 225.587871 185.74272 
L 229.526694 184.9824 
L 229.526694 184.22208 
L 231.510694 183.84192 
L 233.494694 183.0816 
L 233.494694 182.32128 
L 235.4935 181.56096 
L 237.492306 180.42048 
L 237.492306 179.28 
L 245.593647 174.71808 
L 249.730233 171.6768 
L 249.730233 170.15616 
L 251.822733 168.63552 
L 256.02421 166.35456 
L 258.149924 165.59424 
L 262.452644 163.31328 
L 262.452644 162.55296 
L 264.630205 161.79264 
L 264.630205 161.41248 
L 268.985327 160.65216 
L 268.985327 159.89184 
L 271.180737 159.13152 
L 271.180737 157.99104 
L 275.571556 155.71008 
L 277.78511 154.18944 
L 280.01711 153.04896 
L 282.267866 151.52832 
L 286.826928 149.24736 
L 289.135893 148.48704 
L 289.135893 147.72672 
L 291.464937 146.9664 
L 291.464937 146.20608 
L 293.79398 145.44576 
L 293.79398 144.68544 
L 296.123024 143.54496 
L 298.452067 142.78464 
L 307.976208 138.22272 
L 307.976208 137.08224 
L 312.846026 134.80128 
L 312.846026 133.6608 
L 327.821349 126.81792 
L 327.821349 126.0576 
L 330.396733 125.29728 
L 332.972118 124.91712 
L 332.972118 124.53696 
L 335.572506 124.1568 
L 335.572506 123.96672 
L 338.172895 123.77664 
L 338.172895 123.96672 
L 340.773283 123.77664 
L 343.373671 123.96672 
L 343.373671 123.77664 
L 345.999554 123.96672 
L 345.999554 123.77664 
L 348.599942 123.58656 
L 348.599942 123.39648 
L 351.20033 122.63616 
L 351.20033 122.256 
L 356.401107 120.73536 
L 361.678871 118.4544 
L 361.678871 117.31392 
L 372.474186 112.752 
L 372.474186 111.61152 
L 377.996661 109.33056 
L 383.606029 107.80992 
L 383.606029 107.0496 
L 389.304752 105.52896 
L 389.304752 104.76864 
L 392.184752 104.38848 
L 392.184752 103.62816 
L 400.856057 101.3472 
L 400.856057 100.58688 
L 406.74265 98.30592 
L 409.71865 97.5456 
L 409.71865 96.78528 
L 412.728088 95.6448 
L 415.737527 94.88448 
L 418.781163 94.50432 
L 418.781163 94.12416 
L 424.938404 92.60352 
L 424.938404 91.08288 
L 428.052823 89.9424 
L 437.396921 87.66144 
L 440.585492 86.52096 
L 443.81248 85.76064 
L 443.81248 85.00032 
L 447.078822 84.24 
L 447.078822 83.47968 
L 450.345163 83.09952 
L 450.345163 82.71936 
L 456.877846 81.95904 
L 460.184513 81.19872 
L 460.184513 80.81856 
L 461.8 80.451688 
L 461.8 80.451688 
" clip-path="url(#p8ae603f574)" style="fill: none; stroke-dasharray: 1.85,0.8; stroke-dashoffset: 0; stroke: #8000ff; stroke-width: 0.5"/>
   </g>
   <g id="line2d_26">
    <path d="M 64.363981 297.1296 
L 68.50591 291.4272 
L 71.303214 288.38592 
L 75.554722 284.96448 
L 75.554722 283.824 
L 76.987022 282.68352 
L 76.987022 281.54304 
L 79.85162 279.26208 
L 82.739404 276.2208 
L 91.594403 264.816 
L 93.099122 262.9152 
L 96.134161 259.87392 
L 100.752194 256.45248 
L 100.752194 255.69216 
L 102.309403 254.93184 
L 102.309403 254.17152 
L 105.423821 252.65088 
L 105.423821 251.5104 
L 111.716834 246.94848 
L 114.914953 243.9072 
L 114.914953 242.38656 
L 121.398384 238.58496 
L 123.041574 237.2544 
L 123.041574 236.304 
L 126.338098 234.4032 
L 129.655033 233.26272 
L 129.655033 232.12224 
L 133.003033 229.84128 
L 133.003033 229.27104 
L 134.687562 228.7008 
L 136.37209 227.7504 
L 139.773267 226.60992 
L 139.773267 225.65952 
L 143.196178 223.75872 
L 143.196178 222.80832 
L 144.913101 222.23808 
L 150.097244 218.81664 
L 151.847833 217.296 
L 151.847833 215.77536 
L 155.372043 212.73408 
L 158.931418 210.45312 
L 162.538732 208.55232 
L 164.360773 207.98208 
L 164.360773 207.41184 
L 166.195293 207.22176 
L 166.195293 207.03168 
L 168.029814 207.22176 
L 168.029814 207.41184 
L 169.851854 207.22176 
L 169.851854 207.03168 
L 171.673895 206.65152 
L 171.673895 206.27136 
L 175.317977 204.75072 
L 177.152497 203.61024 
L 177.152497 202.84992 
L 178.99967 201.70944 
L 184.579849 199.42848 
L 184.579849 198.288 
L 186.466046 197.14752 
L 186.466046 196.00704 
L 190.238441 193.72608 
L 192.138015 192.77568 
L 194.051158 192.20544 
L 197.918934 190.30464 
L 199.873971 189.7344 
L 199.873971 188.59392 
L 203.784252 187.45344 
L 203.784252 186.8832 
L 205.739288 185.74272 
L 207.694325 184.22208 
L 211.647737 181.94112 
L 217.689468 177.3792 
L 217.689468 176.23872 
L 225.915215 171.6768 
L 225.915215 170.15616 
L 228.007715 168.63552 
L 230.100215 167.49504 
L 234.334906 165.9744 
L 236.477626 164.83392 
L 238.637626 164.0736 
L 238.637626 162.55296 
L 240.815187 161.79264 
L 242.975187 161.41248 
L 242.975187 161.03232 
L 245.152748 160.272 
L 249.525719 157.99104 
L 249.525719 156.85056 
L 251.739272 155.32992 
L 256.184826 153.04896 
L 258.435582 152.28864 
L 262.994644 150.00768 
L 262.994644 148.8672 
L 265.303609 147.72672 
L 265.303609 146.58624 
L 267.612575 145.44576 
L 269.92154 144.68544 
L 279.361751 140.12352 
L 279.361751 138.98304 
L 281.774724 137.84256 
L 284.187697 137.08224 
L 284.187697 136.32192 
L 286.622607 135.94176 
L 291.514763 134.42112 
L 291.514763 134.04096 
L 293.994763 133.28064 
L 293.994763 132.52032 
L 296.474763 132.14016 
L 298.954763 132.14016 
L 298.954763 131.76 
L 301.457941 131.37984 
L 303.961118 130.61952 
L 303.961118 130.23936 
L 311.517881 128.52864 
L 311.517881 127.9584 
L 314.068738 127.008 
L 319.146388 125.86752 
L 321.721772 125.67744 
L 321.721772 124.91712 
L 324.322161 124.53696 
L 324.322161 124.1568 
L 326.922549 123.77664 
L 326.922549 123.39648 
L 329.522937 122.63616 
L 329.522937 121.87584 
L 340.001478 119.59488 
L 342.679878 118.64448 
L 342.679878 117.69408 
L 345.385332 116.74368 
L 345.385332 115.79328 
L 350.742132 113.89248 
L 356.180648 111.61152 
L 364.551253 107.0496 
L 364.551253 105.90912 
L 367.400615 104.76864 
L 376.041281 102.48768 
L 376.041281 101.3472 
L 378.984578 100.20672 
L 378.984578 99.06624 
L 393.900246 95.26464 
L 393.900246 94.50432 
L 396.978867 93.744 
L 396.978867 92.98368 
L 400.057487 92.22336 
L 400.057487 91.46304 
L 406.214729 89.9424 
L 409.329147 88.80192 
L 412.480206 88.0416 
L 415.668777 86.90112 
L 415.668777 86.1408 
L 422.122753 84.62016 
L 422.122753 83.85984 
L 425.389095 83.47968 
L 425.389095 82.71936 
L 435.228444 81.57888 
L 435.228444 81.19872 
L 438.576444 80.4384 
L 438.576444 79.67808 
L 441.924444 79.29792 
L 441.924444 78.91776 
L 448.620444 78.15744 
L 452.010824 77.39712 
L 452.010824 76.6368 
L 455.44467 75.49632 
L 455.44467 74.35584 
L 461.8 72.245051 
L 461.8 72.245051 
" clip-path="url(#p8ae603f574)" style="fill: none; stroke-dasharray: 1.85,0.8; stroke-dashoffset: 0; stroke: #8000ff; stroke-width: 0.5"/>
   </g>
   <g id="line2d_27">
    <path d="M 62.990584 303.21216 
L 62.990584 302.45184 
L 64.350178 301.69152 
L 64.350178 300.55104 
L 67.069366 298.27008 
L 73.972826 290.66688 
L 76.784813 288.38592 
L 76.784813 287.24544 
L 78.201956 286.10496 
L 79.619099 285.34464 
L 79.619099 284.58432 
L 81.04378 284.20416 
L 83.90076 282.68352 
L 83.90076 282.30336 
L 85.34076 281.54304 
L 85.34076 280.78272 
L 88.22076 279.26208 
L 88.22076 278.1216 
L 94.035587 273.55968 
L 96.987014 270.5184 
L 96.987014 269.37792 
L 102.964046 264.816 
L 102.964046 263.29536 
L 107.512305 259.87392 
L 109.042819 259.1136 
L 110.582129 257.97312 
L 110.582129 257.2128 
L 113.678546 255.69216 
L 113.678546 254.93184 
L 115.235755 254.74176 
L 115.235755 254.17152 
L 119.916489 252.4608 
L 119.916489 251.89056 
L 121.492019 250.94016 
L 124.633864 249.79968 
L 124.633864 249.22944 
L 127.803568 247.7088 
L 127.803568 246.94848 
L 129.397854 246.56832 
L 130.992139 245.808 
L 130.992139 245.04768 
L 132.595972 244.28736 
L 134.199804 243.14688 
L 134.199804 242.38656 
L 140.683236 239.34528 
L 140.683236 238.2048 
L 142.326426 237.63456 
L 142.326426 237.06432 
L 147.266139 236.49408 
L 147.266139 236.304 
L 148.929742 236.11392 
L 148.929742 235.92384 
L 150.583075 235.73376 
L 150.583075 235.54368 
L 152.236409 235.16352 
L 152.236409 234.78336 
L 155.543075 233.26272 
L 157.206678 232.12224 
L 157.206678 231.36192 
L 163.934396 226.8 
L 163.934396 225.27936 
L 169.063294 220.71744 
L 170.791294 219.57696 
L 176.043208 215.01504 
L 177.816983 213.87456 
L 177.816983 212.73408 
L 181.388183 210.45312 
L 183.185767 209.6928 
L 183.185767 208.93248 
L 186.805226 207.41184 
L 188.627267 207.03168 
L 188.627267 206.65152 
L 190.461787 205.8912 
L 190.461787 205.70112 
L 192.296308 205.51104 
L 192.296308 205.70112 
L 195.965349 205.32096 
L 195.965349 204.75072 
L 197.812521 204.56064 
L 197.812521 203.9904 
L 199.647042 203.42016 
L 201.481563 203.23008 
L 203.328735 202.46976 
L 203.328735 202.0896 
L 207.048735 200.56896 
L 207.048735 199.80864 
L 208.921742 199.04832 
L 208.921742 198.288 
L 212.667756 196.76736 
L 214.553953 195.62688 
L 216.453528 194.86656 
L 216.453528 193.72608 
L 218.36667 192.5856 
L 222.20672 191.06496 
L 222.20672 190.30464 
L 226.088459 188.02368 
L 226.088459 187.26336 
L 228.043495 186.50304 
L 233.951944 183.0816 
L 233.951944 181.56096 
L 237.949556 178.51968 
L 241.992481 176.23872 
L 244.037061 174.71808 
L 248.173648 172.43712 
L 248.173648 171.29664 
L 252.358648 169.01568 
L 252.358648 167.8752 
L 254.467624 166.73472 
L 256.576601 165.21408 
L 260.845035 162.93312 
L 267.378006 158.3712 
L 267.378006 156.85056 
L 276.28787 150.768 
L 280.846931 146.9664 
L 290.204679 140.88384 
L 292.596108 139.74336 
L 292.596108 138.60288 
L 299.856963 135.18144 
L 299.856963 134.04096 
L 312.281428 126.43776 
L 320.008058 121.87584 
L 322.633941 120.73536 
L 322.633941 119.59488 
L 327.937703 118.07424 
L 330.616103 117.88416 
L 330.616103 117.69408 
L 333.321557 117.12384 
L 333.321557 116.5536 
L 336.027012 115.98336 
L 336.027012 115.41312 
L 341.410867 113.51232 
L 344.116321 112.18176 
L 346.849382 111.23136 
L 352.400619 108.19008 
L 358.06935 105.90912 
L 358.06935 104.76864 
L 363.82935 103.248 
L 363.82935 102.86784 
L 366.740654 102.86784 
L 369.651958 102.48768 
L 369.651958 102.10752 
L 372.595255 102.10752 
L 372.595255 101.72736 
L 372.595255 101.72736 
L 378.449856 101.72736 
L 378.449856 102.10752 
L 384.336449 102.10752 
L 384.336449 102.48768 
L 384.336449 102.48768 
L 387.279746 102.86784 
L 387.279746 102.86784 
L 390.19105 102.86784 
L 390.19105 102.48768 
L 393.102355 101.72736 
L 393.102355 101.3472 
L 398.924963 99.82656 
L 404.84426 97.5456 
L 404.84426 96.02496 
L 407.853698 94.50432 
L 420.099812 89.9424 
L 423.250871 88.80192 
L 423.250871 88.0416 
L 426.439443 87.28128 
L 429.628014 86.90112 
L 429.628014 86.52096 
L 432.855002 86.52096 
L 432.855002 86.1408 
L 436.08199 85.76064 
L 436.08199 85.38048 
L 439.308978 84.62016 
L 439.308978 84.24 
L 442.535966 83.47968 
L 445.762954 83.09952 
L 452.335962 81.57888 
L 452.335962 80.4384 
L 455.683962 79.29792 
L 455.683962 78.15744 
L 461.8 76.768507 
L 461.8 76.768507 
" clip-path="url(#p8ae603f574)" style="fill: none; stroke-dasharray: 1.85,0.8; stroke-dashoffset: 0; stroke: #8000ff; stroke-width: 0.5"/>
   </g>
   <g id="line2d_28">
    <path d="M 57.6 300.04416 
L 62.95948 300.04416 
L 63.138129 299.723881 
L 64.210025 299.224354 
L 64.567324 298.563945 
L 67.961661 294.955618 
L 69.748154 292.942101 
L 69.926803 292.239517 
L 72.785193 289.269781 
L 75.464932 286.992432 
L 75.643582 286.452876 
L 76.715478 285.495915 
L 77.072776 284.417373 
L 79.037919 282.810044 
L 79.573867 282.429694 
L 79.752516 281.681319 
L 81.53901 280.386938 
L 84.0401 278.296373 
L 84.397399 277.76277 
L 85.290645 277.063348 
L 85.647944 276.530139 
L 88.149035 274.68232 
L 88.506333 273.898599 
L 89.756878 272.822131 
L 90.114177 272.278306 
L 91.543372 271.035256 
L 95.652306 267.501889 
L 95.830955 266.953438 
L 96.902851 265.929214 
L 97.081501 265.390855 
L 100.654487 262.384932 
L 101.011786 261.854114 
L 102.262331 260.913645 
L 102.61963 260.3921 
L 102.798279 260.258048 
L 102.976928 259.617134 
L 105.29937 257.882434 
L 105.478019 257.364818 
L 109.229655 254.412224 
L 109.408304 254.266508 
L 109.586953 253.614188 
L 110.4802 252.887791 
L 110.837499 252.365366 
L 113.517239 250.351128 
L 113.695888 249.970756 
L 114.767784 249.329135 
L 114.946433 248.719187 
L 115.125083 248.633735 
L 115.482381 248.252682 
L 117.268874 247.129336 
L 120.305913 245.095841 
L 120.484562 244.602766 
L 122.985653 243.023955 
L 123.164302 242.604848 
L 124.593497 241.823092 
L 124.950795 241.425017 
L 125.308094 241.215317 
L 125.486743 240.85725 
L 127.451886 239.831272 
L 127.630535 239.754442 
L 127.809185 239.424623 
L 129.595678 238.786363 
L 129.774327 238.316376 
L 130.846223 237.737804 
L 131.024872 237.388039 
L 131.73947 237.003294 
L 131.918119 236.653691 
L 132.990015 236.046454 
L 133.347314 235.675446 
L 133.525963 235.585725 
L 133.704612 235.253828 
L 134.061911 235.101603 
L 134.24056 234.77531 
L 136.205703 233.980998 
L 139.60004 232.674269 
L 139.778689 232.295921 
L 140.135988 232.1475 
L 140.493287 231.892142 
L 140.671936 231.831455 
L 140.850585 231.397219 
L 141.743832 231.128772 
L 142.101131 230.88048 
L 142.27978 230.8132 
L 142.458429 230.566021 
L 143.173027 230.35201 
L 143.351676 229.993368 
L 145.138169 229.567393 
L 145.495468 229.320905 
L 148.532506 228.243455 
L 148.711156 227.930749 
L 150.497649 227.235471 
L 151.033597 226.898997 
L 151.748194 226.53048 
L 152.105493 225.586446 
L 152.462791 225.259131 
L 155.321181 223.45746 
L 155.49983 223.098032 
L 157.107674 222.151931 
L 157.464972 221.666858 
L 162.109855 218.721711 
L 162.288504 218.611142 
L 162.467154 218.12075 
L 163.896348 217.335716 
L 164.074997 216.721095 
L 164.253647 216.610583 
L 164.610945 216.216935 
L 168.005283 214.420568 
L 168.362581 214.291143 
L 169.255828 213.819412 
L 169.434477 213.228784 
L 170.863672 212.456666 
L 171.578269 212.046564 
L 171.935568 211.696594 
L 176.223152 209.059945 
L 177.116398 208.552212 
L 177.295048 208.192603 
L 177.652346 207.980368 
L 177.830995 207.49411 
L 178.366943 207.176518 
L 178.545593 206.76439 
L 180.689385 205.760557 
L 181.93993 205.233872 
L 182.118579 204.979488 
L 183.011826 204.701487 
L 183.190475 204.392563 
L 184.441021 204.005199 
L 184.61967 203.567039 
L 186.406163 202.877147 
L 186.584812 202.44209 
L 188.728604 201.668437 
L 192.122941 200.387382 
L 192.48024 200.401886 
L 193.016188 200.330126 
L 193.373487 200.124612 
L 195.695928 199.388007 
L 195.874577 199.327954 
L 196.231876 199.018131 
L 197.661071 198.484723 
L 198.018369 198.143335 
L 198.554317 197.926155 
L 198.732966 197.473645 
L 199.804862 197.051708 
L 199.983512 196.611826 
L 202.841901 195.54299 
L 203.1992 195.410967 
L 203.556498 195.152438 
L 203.735148 195.086596 
L 204.092446 194.735084 
L 206.950835 193.330343 
L 207.129485 192.982652 
L 208.022731 192.533616 
L 208.201381 192.197903 
L 208.915978 191.86928 
L 209.094627 191.533684 
L 214.096808 189.1263 
L 216.41925 187.7834 
L 216.597899 187.307855 
L 217.669795 186.722116 
L 217.848444 186.254449 
L 220.170885 185.251859 
L 222.136028 184.436282 
L 222.314677 184.102066 
L 223.565223 183.504789 
L 223.743872 183.162078 
L 225.530365 182.255019 
L 225.709015 181.918682 
L 225.887664 181.839485 
L 226.244962 180.911635 
L 229.46065 179.505036 
L 229.6393 179.172959 
L 233.390935 177.612496 
L 233.569585 177.280775 
L 233.926883 177.124409 
L 234.105533 176.529827 
L 235.892026 175.521392 
L 237.321221 174.684258 
L 237.49987 174.203865 
L 238.571766 173.644256 
L 238.750415 173.049073 
L 245.36044 169.665638 
L 247.682881 168.277104 
L 248.04018 168.062586 
L 248.218829 167.575232 
L 249.469375 166.826195 
L 250.005323 165.591885 
L 252.327764 164.13983 
L 252.506413 163.664285 
L 258.044542 160.826391 
L 259.652386 160.013238 
L 262.332126 158.533621 
L 262.510775 158.180614 
L 262.868074 157.995848 
L 263.046723 157.523458 
L 264.475918 156.789129 
L 264.833217 156.49064 
L 265.190515 156.327866 
L 265.369165 155.866649 
L 267.334307 154.975023 
L 267.512956 154.387342 
L 268.942151 153.814561 
L 269.1208 153.482452 
L 271.085943 152.527645 
L 271.264592 152.051952 
L 277.338669 148.490835 
L 279.303812 147.270757 
L 279.482461 146.782495 
L 283.412746 144.519187 
L 284.127344 144.168926 
L 284.305993 143.83419 
L 289.129525 141.740633 
L 289.308174 141.411117 
L 291.451966 140.56673 
L 291.630615 140.120414 
L 292.523862 139.789932 
L 292.702511 139.343827 
L 293.774407 138.94877 
L 294.131706 138.298826 
L 297.347394 137.21421 
L 298.776588 136.818248 
L 299.133887 136.568862 
L 299.848484 136.305491 
L 300.027134 135.850954 
L 303.778769 134.167706 
L 307.887704 132.235773 
L 308.066353 131.777854 
L 311.46069 130.307795 
L 311.817989 129.948682 
L 312.711236 129.519911 
L 312.889885 129.054234 
L 316.462871 127.468051 
L 320.571806 125.827243 
L 321.643702 125.482899 
L 321.822351 125.169642 
L 322.536948 124.922837 
L 322.715598 124.484993 
L 324.144792 124.063695 
L 324.502091 123.83166 
L 326.824532 123.14932 
L 327.181831 122.905157 
L 327.717779 122.721828 
L 327.896428 122.41108 
L 329.504272 122.055146 
L 329.682921 121.766386 
L 332.898609 121.092182 
L 333.434557 120.672399 
L 335.935648 120.138323 
L 336.114297 119.914318 
L 342.545673 118.517504 
L 342.724322 118.154692 
L 345.225413 117.502208 
L 345.404062 117.148069 
L 346.833257 116.744056 
L 348.977049 115.954884 
L 351.12084 115.09328 
L 351.478139 114.816617 
L 354.872476 113.509964 
L 357.552216 112.402566 
L 357.909515 112.237579 
L 358.088164 111.775779 
L 361.661151 110.297073 
L 361.8398 109.843557 
L 364.51954 108.67963 
L 364.698189 108.248808 
L 369.521721 106.897434 
L 369.87902 106.683255 
L 372.38011 106.114914 
L 372.737409 105.527266 
L 375.953097 104.804229 
L 376.131746 104.380112 
L 378.275538 103.821128 
L 378.454187 103.908545 
L 378.811486 103.829939 
L 378.990135 103.410716 
L 383.456368 102.622959 
L 383.635018 102.338104 
L 384.170965 102.244284 
L 384.528264 102.316716 
L 389.173147 101.627399 
L 389.351796 101.345138 
L 390.066393 101.253516 
L 390.423692 101.060733 
L 392.031536 100.715726 
L 392.210185 100.422878 
L 392.924782 100.238281 
L 393.282081 100.019263 
L 393.818029 99.880816 
L 393.996678 99.581318 
L 396.855068 98.845636 
L 397.033717 98.546216 
L 399.892106 97.771653 
L 400.070755 97.464879 
L 400.785353 97.251545 
L 400.964002 96.940226 
L 404.715638 95.666291 
L 404.894287 95.096773 
L 409.717819 93.350609 
L 409.896468 93.0377 
L 414.72 91.434709 
L 414.72 91.434709 
" clip-path="url(#p8ae603f574)" style="fill: none; stroke-dasharray: 7.4,3.2; stroke-dashoffset: 0; stroke: #ffa500; stroke-width: 2"/>
   </g>
   <g id="line2d_29">
    <path d="M 61.637857 302.45184 
L 64.343311 300.17088 
L 65.702905 298.65024 
L 67.069436 297.50976 
L 68.442974 295.98912 
L 72.606365 292.56768 
L 72.606365 291.80736 
L 74.008669 291.04704 
L 74.008669 290.28672 
L 76.813276 288.76608 
L 76.813276 287.6256 
L 82.474468 283.06368 
L 83.906768 281.54304 
L 85.346768 280.40256 
L 85.346768 279.26208 
L 89.697987 275.84064 
L 89.697987 274.70016 
L 92.6252 271.65888 
L 95.576628 269.37792 
L 100.06566 264.816 
L 100.06566 263.29536 
L 101.57888 261.77472 
L 106.144433 258.35328 
L 109.231951 255.312 
L 109.231951 254.17152 
L 115.488215 249.6096 
L 115.488215 248.08896 
L 118.657919 245.04768 
L 121.856037 242.76672 
L 125.092804 239.72544 
L 126.725975 238.58496 
L 126.725975 237.44448 
L 131.665688 234.02304 
L 131.665688 232.88256 
L 133.329291 231.36192 
L 138.351422 227.94048 
L 141.752599 224.8992 
L 141.752599 223.37856 
L 148.653666 217.296 
L 157.523318 207.792 
L 161.155089 205.13088 
L 164.836782 203.23008 
L 166.696782 202.65984 
L 166.696782 202.0896 
L 168.569789 201.51936 
L 168.569789 200.94912 
L 170.429789 200.37888 
L 170.429789 199.80864 
L 172.289789 198.66816 
L 177.908993 196.3872 
L 181.72171 194.10624 
L 181.72171 191.82528 
L 187.488666 188.40384 
L 195.337984 182.32128 
L 199.350624 180.04032 
L 199.350624 178.89984 
L 203.408806 177.3792 
L 203.408806 176.61888 
L 205.453386 176.23872 
L 207.497966 175.4784 
L 207.497966 175.09824 
L 209.558274 174.71808 
L 211.618582 173.95776 
L 211.618582 173.19744 
L 213.694861 172.43712 
L 213.694861 171.6768 
L 217.847419 170.15616 
L 222.048895 167.8752 
L 222.048895 166.35456 
L 224.17461 165.21408 
L 230.603044 163.50336 
L 232.780605 162.55296 
L 232.780605 161.2224 
L 239.313576 160.08192 
L 241.508986 160.08192 
L 241.508986 159.51168 
L 245.917949 158.3712 
L 248.131503 158.3712 
L 248.131503 158.3712 
L 254.772466 156.66048 
L 254.772466 156.09024 
L 261.45002 152.09856 
L 263.700776 151.14816 
L 265.970607 149.62752 
L 272.897847 146.20608 
L 272.897847 145.0656 
L 275.24732 143.92512 
L 275.24732 143.1648 
L 279.946268 141.64416 
L 284.707962 139.3632 
L 284.707962 138.22272 
L 289.533908 135.94176 
L 294.426065 134.42112 
L 294.426065 133.28064 
L 299.386065 131.76 
L 299.386065 130.99968 
L 301.889242 130.61952 
L 304.39242 129.8592 
L 304.39242 129.09888 
L 306.919212 128.9088 
L 309.446005 128.33856 
L 309.446005 127.76832 
L 314.547719 126.62784 
L 314.547719 126.0576 
L 322.249345 124.34688 
L 322.249345 123.77664 
L 327.450122 122.256 
L 327.450122 121.87584 
L 332.701887 121.11552 
L 332.701887 120.73536 
L 335.353768 120.3552 
L 335.353768 119.59488 
L 338.005649 119.21472 
L 338.005649 118.83456 
L 343.309411 117.31392 
L 345.987811 116.17344 
L 345.987811 115.41312 
L 354.131782 111.99168 
L 356.893019 111.23136 
L 356.893019 110.09088 
L 362.473019 107.80992 
L 365.292387 107.0496 
L 365.292387 106.28928 
L 373.871111 102.86784 
L 373.871111 102.10752 
L 376.782415 100.96704 
L 385.613016 99.25632 
L 385.613016 98.30592 
L 388.622454 97.35552 
L 388.622454 96.78528 
L 394.607892 95.6448 
L 397.617331 94.6944 
L 400.660967 94.12416 
L 400.660967 92.98368 
L 406.818208 90.70272 
L 409.932627 90.13248 
L 409.932627 89.56224 
L 419.423316 86.71104 
L 419.423316 85.76064 
L 432.332205 80.4384 
L 442.377251 75.87648 
L 449.289539 73.59552 
L 449.289539 72.8352 
L 456.33796 71.31456 
L 456.33796 70.55424 
L 459.90916 70.17408 
L 459.90916 69.41376 
L 461.8 69.011194 
L 461.8 69.011194 
" clip-path="url(#p8ae603f574)" style="fill: none; stroke-dasharray: 1.85,0.8; stroke-dashoffset: 0; stroke: #80ffb4; stroke-width: 0.5"/>
   </g>
   <g id="line2d_30">
    <path d="M 61.637857 302.45184 
L 64.343311 300.17088 
L 65.702905 298.65024 
L 67.069436 297.50976 
L 68.442974 295.98912 
L 72.606365 292.56768 
L 72.606365 291.4272 
L 74.008669 290.28672 
L 74.008669 289.14624 
L 76.813276 286.86528 
L 79.640103 283.824 
L 86.840519 274.32 
L 89.775774 271.27872 
L 94.239866 267.85728 
L 94.239866 266.7168 
L 95.744585 265.57632 
L 95.744585 264.43584 
L 97.249304 263.29536 
L 98.754023 262.53504 
L 101.789062 260.25408 
L 103.319576 258.73344 
L 104.858887 257.59296 
L 104.858887 256.45248 
L 107.955303 254.17152 
L 109.512512 253.60128 
L 109.512512 253.03104 
L 114.220673 251.32032 
L 114.220673 250.75008 
L 115.805525 249.79968 
L 115.805525 248.84928 
L 118.956584 246.94848 
L 126.976321 239.34528 
L 130.252682 237.06432 
L 130.252682 235.92384 
L 133.559348 234.4032 
L 133.559348 233.64288 
L 136.886553 232.12224 
L 136.886553 231.36192 
L 141.919082 229.08096 
L 141.919082 228.7008 
L 145.309461 227.18016 
L 145.309461 226.41984 
L 147.015449 225.65952 
L 147.015449 224.51904 
L 150.427423 222.9984 
L 153.872346 220.71744 
L 155.611567 219.1968 
L 155.611567 218.05632 
L 159.112743 215.77536 
L 162.648624 214.25472 
L 162.648624 213.11424 
L 166.219824 210.83328 
L 166.219824 210.07296 
L 168.017407 209.31264 
L 169.814991 208.17216 
L 173.446762 206.65152 
L 173.446762 205.51104 
L 177.115803 203.9904 
L 177.115803 203.23008 
L 178.962975 202.84992 
L 180.810148 202.0896 
L 180.810148 201.70944 
L 182.670148 201.32928 
L 184.530148 200.56896 
L 184.530148 199.80864 
L 186.403155 199.04832 
L 186.403155 197.90784 
L 190.149169 196.3872 
L 192.035366 195.24672 
L 193.93494 194.4864 
L 195.848083 193.34592 
L 195.848083 192.5856 
L 199.701896 191.06496 
L 199.701896 190.30464 
L 201.642766 189.92448 
L 201.642766 189.16416 
L 203.583635 188.40384 
L 205.524505 188.02368 
L 207.479541 187.26336 
L 207.479541 186.50304 
L 211.418365 184.22208 
L 211.418365 183.46176 
L 213.402365 182.70144 
L 215.386365 181.56096 
L 219.399006 180.04032 
L 219.399006 179.28 
L 223.457187 177.75936 
L 223.457187 177.3792 
L 225.501768 176.99904 
L 225.501768 176.61888 
L 227.546348 176.23872 
L 229.590928 176.23872 
L 229.590928 175.85856 
L 231.651236 175.4784 
L 231.651236 174.71808 
L 233.711543 173.95776 
L 233.711543 173.19744 
L 237.832159 170.91648 
L 242.000938 167.8752 
L 246.235628 164.0736 
L 250.538348 161.03232 
L 257.124873 157.61088 
L 257.124873 156.4704 
L 259.356873 155.32992 
L 259.356873 154.18944 
L 263.820873 151.90848 
L 268.34146 148.8672 
L 270.63069 146.9664 
L 279.988439 140.88384 
L 282.379867 139.3632 
L 282.379867 137.84256 
L 284.79284 136.32192 
L 292.09797 132.90048 
L 294.57797 131.37984 
L 297.081147 130.23936 
L 297.081147 129.09888 
L 304.68559 125.67744 
L 304.68559 124.53696 
L 309.836359 121.49568 
L 315.062629 119.21472 
L 317.714511 117.69408 
L 323.098365 115.41312 
L 323.098365 114.27264 
L 328.564488 112.752 
L 328.564488 112.37184 
L 331.325725 111.99168 
L 334.086962 111.23136 
L 334.086962 110.47104 
L 336.876962 109.71072 
L 336.876962 108.57024 
L 339.666962 107.42976 
L 342.456962 106.66944 
L 345.27633 105.52896 
L 348.125692 104.76864 
L 353.916996 102.48768 
L 353.916996 101.3472 
L 356.860293 100.20672 
L 356.860293 99.06624 
L 362.746886 96.78528 
L 365.722886 95.26464 
L 368.732325 94.12416 
L 371.775961 92.60352 
L 377.969 90.32256 
L 381.120059 89.56224 
L 381.120059 88.80192 
L 384.308631 88.0416 
L 384.308631 87.28128 
L 387.497202 86.90112 
L 387.497202 86.52096 
L 397.101333 84.24 
L 397.101333 83.47968 
L 406.940682 80.05824 
L 406.940682 79.29792 
L 410.288682 78.15744 
L 420.460908 75.87648 
L 420.460908 74.736 
L 423.93935 73.59552 
L 423.93935 72.45504 
L 427.417791 71.31456 
L 430.896233 70.55424 
L 437.991644 68.27328 
L 445.280144 65.232 
L 445.280144 63.71136 
L 456.492538 60.28992 
L 460.318824 59.5296 
L 461.8 59.094421 
L 461.8 59.094421 
" clip-path="url(#p8ae603f574)" style="fill: none; stroke-dasharray: 1.85,0.8; stroke-dashoffset: 0; stroke: #80ffb4; stroke-width: 0.5"/>
   </g>
   <g id="line2d_31">
    <path d="M 62.990584 301.31136 
L 65.716709 299.0304 
L 65.716709 297.88992 
L 71.232176 293.328 
L 71.232176 291.80736 
L 75.42448 287.24544 
L 76.834164 286.10496 
L 78.251307 284.58432 
L 82.548287 281.16288 
L 82.548287 280.40256 
L 83.996071 279.64224 
L 83.996071 278.88192 
L 85.443855 278.1216 
L 86.891639 277.93152 
L 86.891639 277.36128 
L 88.347291 277.1712 
L 91.26655 276.03072 
L 91.26655 275.46048 
L 92.738198 274.51008 
L 92.738198 273.93984 
L 95.665411 272.79936 
L 97.137059 271.65888 
L 98.616838 270.89856 
L 98.616838 269.75808 
L 103.089151 266.33664 
L 103.089151 265.19616 
L 104.59387 263.67552 
L 112.203453 257.97312 
L 112.203453 256.83264 
L 115.299869 254.55168 
L 115.299869 253.4112 
L 116.857078 252.27072 
L 118.414287 250.75008 
L 124.73527 246.18816 
L 126.339103 245.42784 
L 126.339103 244.66752 
L 127.952597 243.9072 
L 127.952597 243.14688 
L 129.566091 242.38656 
L 129.566091 241.62624 
L 132.793079 240.1056 
L 137.692712 236.68416 
L 137.692712 235.54368 
L 142.662981 232.12224 
L 142.662981 231.36192 
L 149.3907 226.8 
L 149.3907 225.27936 
L 154.519597 220.71744 
L 156.247597 219.57696 
L 157.986818 218.05632 
L 163.273286 214.63488 
L 163.273286 213.4944 
L 165.058886 212.35392 
L 165.058886 211.5936 
L 172.2374 208.55232 
L 172.2374 207.41184 
L 175.881481 205.13088 
L 175.881481 203.9904 
L 183.257695 199.42848 
L 187.016899 196.3872 
L 187.016899 194.86656 
L 188.916474 193.34592 
L 194.656097 189.92448 
L 198.552004 186.8832 
L 198.552004 185.74272 
L 202.490827 183.46176 
L 206.473633 181.94112 
L 206.473633 180.80064 
L 210.501302 178.51968 
L 210.501302 177.75936 
L 212.530393 176.99904 
L 216.604064 174.71808 
L 218.664372 173.95776 
L 218.664372 172.81728 
L 224.90943 169.39584 
L 224.90943 168.25536 
L 235.555817 162.55296 
L 235.555817 161.41248 
L 239.910939 159.89184 
L 242.106349 159.51168 
L 242.106349 159.13152 
L 244.319903 158.3712 
L 244.319903 157.99104 
L 246.533456 157.99104 
L 246.533456 157.99104 
L 248.74701 157.61088 
L 250.960564 157.61088 
L 250.960564 157.23072 
L 250.960564 157.23072 
L 255.406117 156.4704 
L 255.406117 156.09024 
L 257.638117 155.32992 
L 257.638117 154.18944 
L 266.622704 151.14816 
L 268.911935 150.00768 
L 268.911935 148.8672 
L 271.220901 148.10688 
L 271.220901 147.34656 
L 278.167875 145.0656 
L 278.167875 144.30528 
L 280.517349 143.1648 
L 285.237088 141.64416 
L 285.237088 140.88384 
L 290.019945 139.3632 
L 290.019945 138.60288 
L 292.432918 137.84256 
L 294.845891 136.70208 
L 294.845891 135.5616 
L 297.2808 134.80128 
L 304.652957 131.37984 
L 307.156134 129.8592 
L 307.156134 128.33856 
L 314.760576 123.77664 
L 317.335961 122.63616 
L 322.562232 119.59488 
L 327.892513 117.31392 
L 327.892513 116.17344 
L 333.303422 113.89248 
L 333.303422 112.752 
L 336.036483 111.99168 
L 341.530782 109.71072 
L 344.320782 108.9504 
L 347.14015 107.80992 
L 347.14015 107.0496 
L 352.838873 105.52896 
L 352.838873 105.1488 
L 355.718873 104.76864 
L 355.718873 104.38848 
L 361.478873 103.62816 
L 361.478873 102.86784 
L 364.390178 102.10752 
L 364.390178 101.53728 
L 370.212787 100.3968 
L 376.132083 98.496 
L 376.132083 97.16544 
L 382.117521 94.50432 
L 388.170596 92.98368 
L 397.514694 90.13248 
L 397.514694 89.18208 
L 400.703266 88.23168 
L 400.703266 87.66144 
L 403.854324 87.0912 
L 407.005383 87.0912 
L 413.420943 85.95072 
L 413.420943 85.38048 
L 416.687284 84.81024 
L 416.687284 84.24 
L 423.180613 83.85984 
L 423.180613 83.66976 
L 426.446955 83.47968 
L 429.713296 83.09952 
L 429.713296 82.71936 
L 433.019963 82.3392 
L 433.019963 81.57888 
L 436.32663 80.81856 
L 436.32663 80.4384 
L 442.939963 78.91776 
L 446.287963 77.77728 
L 449.678343 77.01696 
L 449.678343 75.87648 
L 456.546035 73.59552 
L 460.024477 72.8352 
L 460.024477 72.07488 
L 461.8 71.691825 
L 461.8 71.691825 
" clip-path="url(#p8ae603f574)" style="fill: none; stroke-dasharray: 1.85,0.8; stroke-dashoffset: 0; stroke: #80ffb4; stroke-width: 0.5"/>
   </g>
   <g id="line2d_32">
    <path d="M 57.6 302.07168 
L 61.708934 302.03173 
L 63.316778 301.03681 
L 65.103272 299.394722 
L 65.63922 298.846003 
L 65.817869 298.304837 
L 67.783012 296.537916 
L 69.212206 295.232695 
L 71.177349 293.615096 
L 71.355998 292.950739 
L 72.427894 291.977043 
L 72.606543 291.181177 
L 73.857089 290.161754 
L 74.035738 289.382547 
L 76.715478 287.321635 
L 76.894127 286.792957 
L 82.074957 281.834618 
L 82.432256 281.486893 
L 82.789555 280.880451 
L 83.861451 279.841841 
L 84.218749 279.270909 
L 85.290645 278.331191 
L 85.469295 277.798125 
L 86.71984 276.870704 
L 87.077139 276.436737 
L 89.578229 274.7021 
L 89.756878 274.185408 
L 91.186073 273.135984 
L 91.543372 272.660738 
L 92.615268 271.784918 
L 92.972566 271.353806 
L 94.223112 270.550812 
L 94.401761 270.056397 
L 95.652306 269.250436 
L 95.830955 268.71982 
L 97.974747 267.029878 
L 98.510695 266.666264 
L 98.689345 266.159035 
L 99.93989 265.109468 
L 100.118539 264.451985 
L 102.976928 262.072365 
L 103.155578 261.53736 
L 104.763422 260.197686 
L 104.942071 259.684014 
L 107.80046 257.418922 
L 109.229655 256.400547 
L 109.586953 255.61058 
L 112.088044 254.077254 
L 112.266693 253.587769 
L 114.053187 252.499786 
L 114.410485 252.07761 
L 115.125083 251.586874 
L 115.303732 251.084036 
L 115.482381 250.961605 
L 115.83968 249.865421 
L 119.948614 246.584637 
L 123.878899 243.306199 
L 125.665393 241.882045 
L 126.201341 241.505244 
L 126.737289 240.495237 
L 127.809185 239.810371 
L 127.987834 239.445954 
L 129.417029 238.559278 
L 129.595678 238.195114 
L 130.131626 237.863111 
L 130.310275 237.376976 
L 131.56082 236.701305 
L 131.73947 236.219105 
L 133.525963 235.078778 
L 133.704612 234.715428 
L 136.741651 232.854357 
L 136.9203 232.492084 
L 137.634897 232.057301 
L 137.813547 231.568617 
L 139.957339 230.149545 
L 141.743832 228.939812 
L 141.922481 228.185754 
L 142.637079 227.704654 
L 142.994377 227.211134 
L 145.138169 225.770874 
L 145.495468 225.278152 
L 146.924662 224.323352 
L 147.103312 223.824269 
L 149.247104 222.357564 
L 149.425753 221.716867 
L 152.462791 219.121841 
L 155.49983 216.432753 
L 155.678479 215.902803 
L 159.430115 213.048337 
L 162.645803 211.217618 
L 162.824452 210.730481 
L 163.181751 210.51636 
L 163.3604 210.029361 
L 164.968244 209.078089 
L 165.146893 208.736568 
L 166.218789 208.246676 
L 166.397439 207.924361 
L 166.576088 207.85556 
L 166.933387 207.528046 
L 168.541231 206.87305 
L 168.898529 206.520454 
L 170.327724 205.907277 
L 170.685023 205.554431 
L 172.114217 204.862488 
L 172.292866 204.392351 
L 173.364762 203.873553 
L 173.543412 203.407018 
L 175.865853 202.286778 
L 176.044502 201.820742 
L 176.937749 201.392214 
L 177.116398 201.05311 
L 179.26019 200.064491 
L 181.582631 198.732089 
L 181.761281 197.887641 
L 183.726423 196.861284 
L 184.441021 196.42853 
L 184.61967 196.066986 
L 186.227514 195.097832 
L 186.406163 194.610244 
L 186.942111 194.287961 
L 187.12076 193.673849 
L 190.693747 191.412227 
L 193.730785 189.531127 
L 195.15998 188.581175 
L 195.695928 188.221153 
L 195.874577 187.853359 
L 198.375668 186.40036 
L 198.554317 185.916813 
L 199.268914 185.549987 
L 199.447564 185.084311 
L 199.626213 185.004015 
L 199.804862 184.677099 
L 201.591356 183.992469 
L 201.770005 183.662258 
L 203.377849 182.999028 
L 203.556498 182.686419 
L 206.414887 181.84068 
L 206.593537 181.385132 
L 207.308134 181.069019 
L 207.665433 180.529476 
L 210.345173 179.293117 
L 210.523822 178.95093 
L 211.417069 178.557056 
L 211.774367 177.916018 
L 213.56086 177.172124 
L 213.73951 176.829175 
L 216.776548 175.411629 
L 218.563042 174.705738 
L 218.741691 174.244017 
L 219.277639 173.981068 
L 219.456288 173.640033 
L 221.957379 172.418169 
L 222.136028 171.824185 
L 224.815768 170.538522 
L 224.994417 170.098979 
L 225.351716 169.980478 
L 225.709015 169.735258 
L 229.282001 168.66076 
L 229.46065 168.613089 
L 229.817949 168.377065 
L 231.604442 167.733415 
L 231.783092 167.403191 
L 232.676338 167.00488 
L 232.854987 166.488226 
L 233.569585 166.232539 
L 233.748234 165.913113 
L 235.534727 165.165407 
L 235.713377 164.719753 
L 241.430155 162.666895 
L 241.787454 162.345728 
L 241.966103 162.2768 
L 242.323402 161.981136 
L 246.075038 160.193146 
L 250.898569 158.705506 
L 251.255868 158.468708 
L 254.650205 157.393067 
L 255.007504 157.063596 
L 255.364802 156.91078 
L 255.722101 156.613454 
L 256.972646 156.00819 
L 257.151296 155.541358 
L 257.508594 155.368341 
L 257.687244 154.901672 
L 259.295088 154.123223 
L 259.473737 153.65685 
L 263.404022 151.874651 
L 264.475918 151.320684 
L 268.763502 148.945553 
L 268.942151 148.458568 
L 271.085943 147.303743 
L 271.264592 146.962315 
L 272.872436 146.170426 
L 273.051086 145.702707 
L 275.194877 144.653954 
L 275.373527 144.320124 
L 278.053267 143.161707 
L 278.231916 142.827958 
L 282.34085 140.818261 
L 282.5195 140.226109 
L 284.663292 139.205428 
L 284.841941 138.743007 
L 285.19924 138.592219 
L 285.377889 138.263519 
L 289.844122 136.403517 
L 290.022771 136.084913 
L 293.417109 134.734111 
L 294.310355 134.318684 
L 294.489005 133.855498 
L 294.667654 133.777292 
L 294.846303 133.323619 
L 296.990095 132.555819 
L 297.168744 132.1118 
L 299.312536 131.241305 
L 299.491186 130.920259 
L 304.314717 129.087148 
L 304.493367 128.7693 
L 304.672016 128.709873 
L 304.850665 128.254545 
L 306.994457 127.340974 
L 307.173107 126.74935 
L 309.316898 125.736097 
L 309.674197 125.377303 
L 312.353937 124.240361 
L 314.497729 123.344138 
L 314.855028 123.009752 
L 317.356118 121.986411 
L 320.035858 120.86684 
L 322.17965 119.993049 
L 322.536948 119.650618 
L 323.072896 119.444987 
L 323.251546 119.004022 
L 327.36048 117.63654 
L 328.253727 116.87304 
L 328.432376 116.82275 
L 328.789675 116.605996 
L 332.541311 115.669826 
L 332.898609 115.442955 
L 333.255908 115.342881 
L 333.434557 114.91895 
L 333.970505 114.794449 
L 334.149155 114.499567 
L 335.221051 114.251579 
L 335.3997 113.956807 
L 336.828894 113.589416 
L 337.007544 113.15371 
L 337.90079 112.865067 
L 338.258089 112.610826 
L 341.831076 111.402221 
L 344.153517 110.644544 
L 345.94001 109.947018 
L 346.118659 109.628428 
L 347.011906 109.303018 
L 347.190555 108.986809 
L 350.763542 107.73557 
L 352.728684 107.029578 
L 353.085983 106.785829 
L 353.80058 106.561676 
L 353.97923 106.125566 
L 356.837619 105.234309 
L 357.016268 104.421175 
L 361.303852 103.094514 
L 361.482501 102.78564 
L 364.34089 101.799128 
L 364.51954 101.549824 
L 365.234137 101.317219 
L 365.412786 101.000387 
L 368.271176 100.057674 
L 370.772266 99.139012 
L 373.809305 97.993457 
L 373.987954 97.675523 
L 376.131746 96.904464 
L 376.310395 96.389495 
L 378.275538 95.713644 
L 380.955278 94.926113 
L 381.133927 94.620155 
L 383.813667 93.945507 
L 384.170965 93.864196 
L 384.349615 93.57173 
L 385.60016 93.33729 
L 385.778809 92.980241 
L 387.386653 92.613203 
L 387.743952 92.395112 
L 388.458549 92.197931 
L 388.637199 91.957082 
L 397.033717 89.804063 
L 397.212366 89.495623 
L 397.391016 89.438063 
L 397.569665 89.063768 
L 400.606703 88.216843 
L 400.785353 87.592516 
L 405.608884 86.253166 
L 406.85943 85.957546 
L 407.038079 85.670852 
L 409.896468 85.001436 
L 410.075118 84.763889 
L 414.72 83.475391 
L 414.72 83.475391 
" clip-path="url(#p8ae603f574)" style="fill: none; stroke-dasharray: 7.4,3.2; stroke-dashoffset: 0; stroke: #ffa500; stroke-width: 2"/>
   </g>
   <g id="line2d_33">
    <path d="M 64.363981 297.1296 
L 67.118138 293.328 
L 71.303214 288.76608 
L 74.130041 286.48512 
L 74.130041 285.34464 
L 76.979403 283.824 
L 76.979403 283.06368 
L 78.411702 282.30336 
L 79.844002 281.16288 
L 79.844002 280.0224 
L 81.284002 279.26208 
L 85.627438 275.84064 
L 87.091044 274.32 
L 87.091044 273.17952 
L 93.00212 268.6176 
L 93.00212 267.09696 
L 94.498433 265.57632 
L 97.499465 263.67552 
L 99.012685 263.10528 
L 102.065018 261.20448 
L 102.065018 260.25408 
L 103.604328 259.30368 
L 103.604328 258.35328 
L 106.665357 257.59296 
L 109.752875 255.69216 
L 111.310084 254.3616 
L 111.310084 253.4112 
L 117.575455 249.6096 
L 117.575455 248.08896 
L 122.339444 243.52704 
L 123.943277 242.57664 
L 130.456404 237.2544 
L 130.456404 235.92384 
L 135.406261 231.93216 
L 137.069864 230.98176 
L 143.829569 224.8992 
L 143.829569 223.37856 
L 152.481224 217.67616 
L 152.481224 216.53568 
L 156.005435 215.01504 
L 157.77921 214.63488 
L 157.77921 214.25472 
L 159.56481 213.4944 
L 159.56481 213.11424 
L 161.35041 212.73408 
L 161.35041 212.35392 
L 164.92161 211.5936 
L 164.92161 211.21344 
L 168.516778 210.45312 
L 168.516778 210.07296 
L 170.326507 209.6928 
L 170.326507 208.93248 
L 172.136237 208.17216 
L 172.136237 207.41184 
L 179.412258 202.84992 
L 184.992437 198.288 
L 184.992437 197.14752 
L 188.764832 194.86656 
L 192.577549 193.34592 
L 192.577549 192.20544 
L 196.431362 190.6848 
L 196.431362 190.30464 
L 198.372231 189.92448 
L 200.313101 189.16416 
L 200.313101 188.784 
L 202.268137 188.40384 
L 202.268137 187.64352 
L 206.17821 186.12288 
L 206.17821 184.9824 
L 212.101034 181.56096 
L 214.09984 180.80064 
L 218.142765 178.51968 
L 218.142765 177.3792 
L 220.187346 176.80896 
L 220.187346 176.23872 
L 224.276506 175.09824 
L 226.336814 174.14784 
L 226.336814 173.19744 
L 234.642179 167.8752 
L 243.17959 160.272 
L 249.766115 155.71008 
L 254.248871 153.42912 
L 254.248871 152.28864 
L 258.788532 150.00768 
L 258.788532 149.24736 
L 268.005002 146.20608 
L 268.005002 145.0656 
L 270.354476 143.92512 
L 270.354476 142.78464 
L 275.053424 140.50368 
L 277.423689 138.98304 
L 279.815118 137.84256 
L 289.600247 131.76 
L 289.600247 130.23936 
L 292.103425 128.71872 
L 304.860025 123.01632 
L 304.860025 122.256 
L 310.11179 120.73536 
L 310.11179 119.97504 
L 312.763671 119.59488 
L 312.763671 118.83456 
L 318.067433 117.31392 
L 320.745833 116.17344 
L 321.093876 115.41312 
L 323.451288 114.27264 
L 326.156742 113.13216 
L 331.651041 111.61152 
L 331.651041 110.47104 
L 337.231041 108.19008 
L 337.231041 107.0496 
L 351.510444 101.3472 
L 354.45374 100.20672 
L 354.45374 99.06624 
L 360.40574 96.78528 
L 360.486594 96.02496 
L 363.415179 95.26464 
L 366.424617 94.12416 
L 372.546874 92.60352 
L 372.546874 91.8432 
L 375.661292 91.08288 
L 378.775711 90.70272 
L 378.775711 90.32256 
L 381.92677 89.9424 
L 381.92677 89.56224 
L 391.379946 88.42176 
L 391.379946 87.66144 
L 394.568518 86.90112 
L 394.568518 86.1408 
L 397.757089 85.38048 
L 400.945661 85.00032 
L 407.43899 83.47968 
L 407.43899 82.3392 
L 410.745657 81.57888 
L 410.745657 80.81856 
L 417.35899 79.29792 
L 420.70699 78.15744 
L 420.70699 77.39712 
L 427.48775 75.11616 
L 434.400037 73.59552 
L 434.400037 72.8352 
L 441.448458 71.31456 
L 441.448458 70.55424 
L 445.019658 69.79392 
L 445.019658 69.0336 
L 452.162058 67.51296 
L 459.450559 65.232 
L 459.450559 63.71136 
L 461.8 62.750969 
L 461.8 62.750969 
" clip-path="url(#p8ae603f574)" style="fill: none; stroke-dasharray: 1.85,0.8; stroke-dashoffset: 0; stroke: #ff0000; stroke-width: 0.5"/>
   </g>
   <g id="line2d_34">
    <path d="M 64.363981 297.50976 
L 65.73752 295.98912 
L 69.90091 292.56768 
L 69.90091 291.4272 
L 71.303214 290.28672 
L 71.303214 289.14624 
L 74.107821 286.86528 
L 75.517506 285.34464 
L 76.934649 284.20416 
L 81.231629 279.64224 
L 82.679413 278.50176 
L 82.679413 277.36128 
L 87.054324 273.93984 
L 87.054324 272.79936 
L 89.99762 270.5184 
L 94.461712 268.23744 
L 94.461712 267.47712 
L 95.966431 267.09696 
L 95.966431 266.7168 
L 97.47115 266.7168 
L 97.47115 266.7168 
L 98.975869 266.33664 
L 98.975869 265.95648 
L 100.480589 265.57632 
L 100.480589 265.19616 
L 103.490027 263.67552 
L 105.003247 262.53504 
L 105.003247 261.39456 
L 115.788441 250.75008 
L 118.948823 247.7088 
L 118.948823 246.56832 
L 122.137394 244.28736 
L 125.35472 242.76672 
L 125.35472 241.62624 
L 126.977993 240.48576 
L 128.601266 239.72544 
L 128.601266 238.96512 
L 130.234437 238.2048 
L 133.510798 235.92384 
L 133.510798 234.78336 
L 141.839595 229.08096 
L 141.839595 227.94048 
L 145.229975 225.65952 
L 146.935962 224.8992 
L 146.935962 224.13888 
L 152.097808 220.71744 
L 152.097808 219.57696 
L 162.648318 210.45312 
L 168.077673 205.8912 
L 168.077673 204.37056 
L 169.912193 202.84992 
L 173.593886 200.56896 
L 175.453886 199.80864 
L 179.21309 197.52768 
L 179.21309 196.3872 
L 181.112665 195.62688 
L 181.112665 194.86656 
L 184.911814 193.34592 
L 186.824956 192.20544 
L 186.824956 191.06496 
L 194.574675 184.9824 
L 198.528087 181.1808 
L 208.674707 173.5776 
L 208.674707 172.05696 
L 210.750986 170.53632 
L 217.028741 167.11488 
L 221.297175 164.0736 
L 221.297175 162.93312 
L 223.457175 161.79264 
L 227.794736 160.272 
L 229.990146 159.89184 
L 229.990146 159.13152 
L 232.2037 158.3712 
L 232.2037 157.61088 
L 234.417254 156.85056 
L 234.417254 156.09024 
L 238.844361 154.5696 
L 243.327117 152.28864 
L 245.596948 150.768 
L 245.596948 149.62752 
L 254.813418 145.0656 
L 254.813418 143.92512 
L 257.162892 142.78464 
L 264.27406 140.50368 
L 264.27406 139.3632 
L 266.687033 138.60288 
L 266.687033 137.84256 
L 271.512979 136.32192 
L 273.947888 135.18144 
L 273.947888 134.04096 
L 286.372353 126.43776 
L 294.098983 121.87584 
L 296.724866 120.73536 
L 296.724866 119.59488 
L 302.028628 117.31392 
L 304.707028 116.5536 
L 304.707028 115.79328 
L 312.850998 112.37184 
L 312.850998 111.23136 
L 318.373473 108.19008 
L 329.712203 103.62816 
L 332.623507 102.86784 
L 332.623507 102.10752 
L 335.566804 101.3472 
L 335.566804 100.58688 
L 338.5101 100.20672 
L 338.5101 99.82656 
L 344.396694 98.30592 
L 347.372694 97.16544 
L 347.372694 96.02496 
L 350.382132 94.50432 
L 356.435207 92.22336 
L 359.513827 91.46304 
L 362.628246 90.32256 
L 365.779305 89.56224 
L 365.779305 88.80192 
L 368.967876 88.42176 
L 368.967876 88.0416 
L 372.156448 88.0416 
L 375.345019 87.66144 
L 375.345019 87.85152 
L 378.533591 87.66144 
L 378.533591 87.85152 
L 384.910733 87.47136 
L 384.910733 87.28128 
L 388.137721 87.0912 
L 388.137721 86.52096 
L 394.514864 86.1408 
L 394.514864 85.38048 
L 397.741852 84.62016 
L 400.96884 83.47968 
L 400.96884 82.3392 
L 414.15619 77.77728 
L 420.980416 74.736 
L 420.980416 73.59552 
L 427.937299 71.31456 
L 435.032709 69.79392 
L 435.032709 69.0336 
L 438.652169 68.27328 
L 442.271628 67.89312 
L 442.271628 67.51296 
L 445.940669 67.1328 
L 445.940669 66.75264 
L 449.60971 66.37248 
L 449.60971 65.99232 
L 456.947793 64.47168 
L 456.947793 63.3312 
L 461.8 61.843607 
L 461.8 61.843607 
" clip-path="url(#p8ae603f574)" style="fill: none; stroke-dasharray: 1.85,0.8; stroke-dashoffset: 0; stroke: #ff0000; stroke-width: 0.5"/>
   </g>
   <g id="line2d_35">
    <path d="M 62.997451 300.9312 
L 64.363981 299.79072 
L 64.363981 299.0304 
L 67.097043 297.50976 
L 69.8512 295.2288 
L 69.8512 293.70816 
L 71.238972 292.18752 
L 76.833732 287.6256 
L 78.250874 286.86528 
L 78.250874 286.10496 
L 81.100236 284.58432 
L 81.100236 283.44384 
L 86.829516 280.40256 
L 86.829516 279.26208 
L 91.180736 276.98112 
L 91.180736 276.2208 
L 92.644342 275.08032 
L 92.644342 274.32 
L 95.571555 272.79936 
L 98.522983 270.5184 
L 98.522983 269.37792 
L 100.010983 268.23744 
L 104.500015 265.95648 
L 104.500015 265.19616 
L 106.013235 264.43584 
L 106.013235 263.67552 
L 109.039676 262.15488 
L 109.039676 261.0144 
L 110.561494 259.87392 
L 112.083312 258.35328 
L 119.82487 252.65088 
L 119.82487 251.5104 
L 121.400399 250.36992 
L 121.400399 249.22944 
L 124.551458 247.7088 
L 127.730596 245.42784 
L 129.334428 243.9072 
L 129.334428 242.38656 
L 135.81786 237.82464 
L 137.46105 236.304 
L 137.46105 235.16352 
L 144.105319 230.6016 
L 144.105319 229.08096 
L 149.169565 224.51904 
L 150.875553 223.37856 
L 154.320476 220.33728 
L 157.810285 218.05632 
L 157.810285 216.91584 
L 161.334495 215.3952 
L 163.10827 213.87456 
L 164.882045 212.73408 
L 164.882045 211.97376 
L 166.667645 211.21344 
L 172.060559 207.792 
L 172.060559 206.65152 
L 179.386333 202.0896 
L 179.386333 200.56896 
L 181.246333 199.04832 
L 186.865537 195.62688 
L 188.765112 194.10624 
L 190.678255 193.15584 
L 190.678255 192.20544 
L 196.472937 190.49472 
L 196.472937 189.92448 
L 198.427974 188.97408 
L 198.427974 188.59392 
L 200.368843 188.21376 
L 202.309713 188.21376 
L 206.234161 187.07328 
L 206.234161 186.12288 
L 208.218161 185.55264 
L 208.218161 184.9824 
L 212.156985 183.84192 
L 214.140985 183.0816 
L 214.140985 182.32128 
L 220.152431 178.89984 
L 220.152431 177.75936 
L 222.181522 176.23872 
L 228.315501 172.81728 
L 230.39178 171.29664 
L 232.48428 170.15616 
L 232.48428 169.01568 
L 234.593256 167.8752 
L 238.827947 166.35456 
L 238.827947 165.59424 
L 240.970667 164.45376 
L 243.113387 163.69344 
L 243.113387 162.93312 
L 249.610948 160.65216 
L 249.610948 159.89184 
L 254.001768 158.3712 
L 254.001768 157.61088 
L 258.428875 156.09024 
L 258.428875 155.32992 
L 260.660875 154.5696 
L 265.143631 152.28864 
L 265.143631 151.14816 
L 274.281489 145.0656 
L 278.960006 141.264 
L 283.7217 138.60288 
L 291.02683 135.75168 
L 291.02683 134.80128 
L 293.50683 133.85088 
L 293.50683 132.90048 
L 298.421325 131.76 
L 303.404503 129.47904 
L 305.931295 127.9584 
L 305.931295 126.81792 
L 316.208782 122.256 
L 316.208782 121.11552 
L 318.834665 119.97504 
L 326.790828 117.69408 
L 326.790828 116.5536 
L 329.496283 115.41312 
L 329.496283 114.27264 
L 340.40149 111.23136 
L 343.19149 110.09088 
L 343.19149 108.9504 
L 346.010859 108.19008 
L 346.010859 107.42976 
L 351.649595 105.90912 
L 354.498957 104.76864 
L 354.498957 103.62816 
L 357.378957 102.10752 
L 366.113558 98.68608 
L 372.098996 95.6448 
L 372.098996 94.12416 
L 384.379308 88.0416 
L 393.945927 82.3392 
L 407.257314 76.25664 
L 410.691161 74.736 
L 410.691161 73.21536 
L 421.172254 68.65344 
L 424.743454 67.51296 
L 435.751955 62.95104 
L 439.524349 62.00064 
L 439.524349 61.05024 
L 447.176921 59.14944 
L 451.05866 58.5792 
L 451.05866 58.00896 
L 461.8 55.403405 
L 461.8 55.403405 
" clip-path="url(#p8ae603f574)" style="fill: none; stroke-dasharray: 1.85,0.8; stroke-dashoffset: 0; stroke: #ff0000; stroke-width: 0.5"/>
   </g>
   <g id="line2d_36">
    <path d="M 57.6 298.52352 
L 63.316778 298.434685 
L 64.210025 298.18619 
L 64.567324 297.683368 
L 67.247064 295.104871 
L 69.748154 292.819907 
L 69.926803 291.763367 
L 71.177349 290.515565 
L 71.355998 289.972678 
L 74.035738 287.793365 
L 74.214387 287.266613 
L 78.144672 284.093335 
L 78.501971 283.578173 
L 79.752516 282.581233 
L 79.931166 282.066711 
L 81.003062 281.310068 
L 81.181711 280.803878 
L 82.610905 279.802865 
L 82.789555 279.2971 
L 86.71984 276.455539 
L 87.255788 274.9111 
L 91.007424 272.406599 
L 91.364722 271.92221 
L 92.615268 271.064582 
L 92.793917 270.701619 
L 92.972566 270.594621 
L 93.151216 269.96849 
L 94.401761 269.116505 
L 94.58041 268.761876 
L 95.830955 268.153158 
L 96.188254 267.847312 
L 98.510695 266.758828 
L 98.689345 266.295523 
L 98.867994 266.212395 
L 99.225293 265.901867 
L 101.905033 264.350341 
L 102.083682 263.936235 
L 103.512876 263.157905 
L 103.691526 262.740093 
L 104.406123 262.381042 
L 104.584772 262.03792 
L 104.942071 261.858732 
L 105.12072 261.379364 
L 105.835318 260.9625 
L 106.013967 260.604844 
L 107.621811 259.549246 
L 108.872356 258.668256 
L 109.051006 258.161521 
L 111.016148 256.481237 
L 111.194797 256.312172 
L 111.373447 255.831727 
L 113.695888 253.965749 
L 117.447524 251.073797 
L 117.626173 250.424222 
L 118.876718 249.319886 
L 119.055368 248.790762 
L 119.769965 248.218377 
L 119.948614 247.695297 
L 121.377809 246.553753 
L 121.556458 246.043641 
L 122.807004 245.256845 
L 124.950795 244.041429 
L 125.308094 243.801386 
L 125.486743 243.291023 
L 128.523782 241.086098 
L 128.881081 240.567297 
L 129.238379 240.302489 
L 129.417029 239.669848 
L 130.310275 239.073787 
L 130.488924 238.498424 
L 133.347314 236.393972 
L 133.525963 235.882443 
L 137.456248 233.001233 
L 137.634897 232.4847 
L 141.743832 229.373223 
L 141.922481 228.858621 
L 143.708974 227.520376 
L 143.887624 226.884176 
L 144.066273 226.763986 
L 144.244922 226.126612 
L 151.926843 220.438354 
L 152.105493 219.926805 
L 152.462791 219.639598 
L 152.641441 219.127677 
L 156.035778 216.785845 
L 157.643622 215.856835 
L 157.822271 215.24485 
L 161.395258 213.070348 
L 164.789595 211.019639 
L 164.968244 210.544737 
L 168.005283 208.957329 
L 168.183932 208.350322 
L 170.149075 207.143256 
L 170.327724 206.802528 
L 171.935568 205.906691 
L 172.292866 205.063826 
L 175.865853 202.963353 
L 179.081541 200.980175 
L 179.617489 199.762095 
L 181.046683 198.789751 
L 181.225333 198.414768 
L 184.976968 196.125481 
L 185.155618 195.636736 
L 186.763462 194.669126 
L 186.942111 194.168916 
L 189.443202 192.454387 
L 190.515098 191.851913 
L 190.693747 191.435793 
L 192.48024 190.556339 
L 192.658889 190.088385 
L 196.410525 188.138863 
L 196.589175 187.726702 
L 201.055408 185.371499 
L 202.127304 185.032227 
L 202.305953 184.71979 
L 206.057589 182.93552 
L 206.236238 182.150191 
L 208.201381 181.098399 
L 208.915978 180.019191 
L 212.488964 178.236586 
L 214.096808 177.53474 
L 214.275458 177.184088 
L 218.027094 175.02978 
L 218.205743 174.545612 
L 219.992236 173.617875 
L 220.349535 172.850417 
L 221.242781 172.332929 
L 221.421431 171.856797 
L 223.743872 170.766365 
L 226.244962 169.655599 
L 226.423612 169.252364 
L 229.817949 167.532726 
L 229.996598 167.186537 
L 232.14039 166.068195 
L 232.676338 165.161859 
L 234.284182 164.347149 
L 234.462831 164.003186 
L 237.321221 162.483636 
L 238.750415 161.723612 
L 239.107714 161.249729 
L 245.53909 157.170458 
L 245.717739 156.69511 
L 249.469375 154.771275 
L 249.648024 154.426501 
L 252.863712 152.972218 
L 253.935608 152.49247 
L 254.471556 151.619756 
L 254.650205 151.540221 
L 254.828854 151.080547 
L 258.401841 149.561733 
L 258.58049 149.23879 
L 258.75914 149.169313 
L 258.937789 148.85487 
L 262.689425 147.497443 
L 264.118619 146.94678 
L 264.297269 146.497926 
L 265.011866 146.223735 
L 265.190515 145.772477 
L 266.61971 145.147229 
L 266.798359 144.81569 
L 267.870255 144.347099 
L 268.048904 143.886514 
L 270.192696 142.836697 
L 270.371346 142.36931 
L 273.944332 140.504268 
L 274.122981 140.01931 
L 275.909475 138.839496 
L 279.125163 136.727148 
L 282.34085 134.831718 
L 285.913837 132.826791 
L 289.486823 130.920399 
L 289.665473 130.318935 
L 290.916018 129.658351 
L 291.094667 129.247262 
L 293.417109 128.093345 
L 293.595758 127.69625 
L 296.275498 126.671159 
L 296.632796 126.538036 
L 296.811446 126.091438 
L 300.027134 124.780555 
L 304.672016 122.792853 
L 305.029315 122.121874 
L 305.922561 121.730958 
L 306.101211 121.281378 
L 310.031496 119.764034 
L 310.210145 119.446548 
L 312.711236 118.608778 
L 312.889885 117.907661 
L 316.105573 116.538901 
L 316.284222 116.082863 
L 326.109935 112.03233 
L 326.645883 111.858175 
L 326.824532 111.419162 
L 329.325623 110.506047 
L 329.504272 110.061179 
L 331.648064 109.467616 
L 331.826713 109.030958 
L 332.541311 108.804439 
L 332.71996 108.49446 
L 335.3997 107.648013 
L 335.578349 107.338778 
L 337.186193 106.901376 
L 337.364842 106.472805 
L 338.436738 106.183478 
L 338.794037 105.948179 
L 342.902971 104.551985 
L 343.081621 104.488424 
L 343.26027 104.047893 
L 345.94001 103.154788 
L 346.118659 102.838886 
L 347.369205 102.401652 
L 347.547854 101.951903 
L 354.336528 99.365182 
L 354.515178 98.535035 
L 358.266813 97.043971 
L 360.410605 96.260604 
L 360.589255 95.968394 
L 365.770085 94.251947 
L 365.948734 93.94539 
L 368.807124 93.093225 
L 369.164422 92.86965 
L 372.022811 92.152614 
L 372.201461 91.599342 
L 372.38011 91.547784 
L 372.558759 91.242796 
L 376.310395 90.27257 
L 381.848524 88.961008 
L 382.205823 88.754668 
L 385.60016 87.888295 
L 388.101251 87.237049 
L 388.2799 87.000744 
L 391.316938 86.216186 
L 391.495588 85.912394 
L 394.353977 85.083967 
L 394.711276 84.474618 
L 400.964002 82.524387 
L 401.142651 82.08235 
L 407.395378 79.926878 
L 407.574027 79.485924 
L 410.611066 78.455682 
L 410.789715 77.634946 
L 414.72 76.294409 
L 414.72 76.294409 
" clip-path="url(#p8ae603f574)" style="fill: none; stroke-dasharray: 7.4,3.2; stroke-dashoffset: 0; stroke: #ffa500; stroke-width: 2"/>
   </g>
   <g id="patch_3">
    <path d="M 57.6 307.584 
L 57.6 41.472 
" style="fill: none; stroke: #000000; stroke-width: 0.8; stroke-linejoin: miter; stroke-linecap: square"/>
   </g>
   <g id="patch_4">
    <path d="M 414.72 307.584 
L 414.72 41.472 
" style="fill: none; stroke: #000000; stroke-width: 0.8; stroke-linejoin: miter; stroke-linecap: square"/>
   </g>
   <g id="patch_5">
    <path d="M 57.6 307.584 
L 414.72 307.584 
" style="fill: none; stroke: #000000; stroke-width: 0.8; stroke-linejoin: miter; stroke-linecap: square"/>
   </g>
   <g id="patch_6">
    <path d="M 57.6 41.472 
L 414.72 41.472 
" style="fill: none; stroke: #000000; stroke-width: 0.8; stroke-linejoin: miter; stroke-linecap: square"/>
   </g>
   <g id="legend_1">
    <g id="patch_7">
     <path d="M 314.584 120.95195 
L 491.432437 120.95195 
Q 493.432437 120.95195 493.432437 118.95195 
L 493.432437 75.0832 
Q 493.432437 73.0832 491.432437 73.0832 
L 314.584 73.0832 
Q 312.584 73.0832 312.584 75.0832 
L 312.584 118.95195 
Q 312.584 120.95195 314.584 120.95195 
z
" style="fill: #ffffff; opacity: 0.8; stroke: #cccccc; stroke-linejoin: miter"/>
    </g>
    <g id="line2d_37">
     <path d="M 316.584 81.181637 
L 326.584 81.181637 
L 336.584 81.181637 
" style="fill: none; stroke-dasharray: 7.4,3.2; stroke-dashoffset: 0; stroke: #ffa500; stroke-width: 2"/>
    </g>
    <g id="text_15">
     <!-- Mean: N_e = [200], 1.000 kA -->
     <g transform="translate(344.584 84.681637) scale(0.1 -0.1)">
      <defs>
       <path id="DejaVuSans-4d" d="M 628 4666 
L 1569 4666 
L 2759 1491 
L 3956 4666 
L 4897 4666 
L 4897 0 
L 4281 0 
L 4281 4097 
L 3078 897 
L 2444 897 
L 1241 4097 
L 1241 0 
L 628 0 
L 628 4666 
z
" transform="scale(0.015625)"/>
       <path id="DejaVuSans-3a" d="M 750 794 
L 1409 794 
L 1409 0 
L 750 0 
L 750 794 
z
M 750 3309 
L 1409 3309 
L 1409 2516 
L 750 2516 
L 750 3309 
z
" transform="scale(0.015625)"/>
       <path id="DejaVuSans-4e" d="M 628 4666 
L 1478 4666 
L 3547 763 
L 3547 4666 
L 4159 4666 
L 4159 0 
L 3309 0 
L 1241 3903 
L 1241 0 
L 628 0 
L 628 4666 
z
" transform="scale(0.015625)"/>
       <path id="DejaVuSans-5f" d="M 3263 -1063 
L 3263 -1509 
L -63 -1509 
L -63 -1063 
L 3263 -1063 
z
" transform="scale(0.015625)"/>
       <path id="DejaVuSans-3d" d="M 678 2906 
L 4684 2906 
L 4684 2381 
L 678 2381 
L 678 2906 
z
M 678 1631 
L 4684 1631 
L 4684 1100 
L 678 1100 
L 678 1631 
z
" transform="scale(0.015625)"/>
       <path id="DejaVuSans-5b" d="M 550 4863 
L 1875 4863 
L 1875 4416 
L 1125 4416 
L 1125 -397 
L 1875 -397 
L 1875 -844 
L 550 -844 
L 550 4863 
z
" transform="scale(0.015625)"/>
       <path id="DejaVuSans-5d" d="M 1947 4863 
L 1947 -844 
L 622 -844 
L 622 -397 
L 1369 -397 
L 1369 4416 
L 622 4416 
L 622 4863 
L 1947 4863 
z
" transform="scale(0.015625)"/>
       <path id="DejaVuSans-2c" d="M 750 794 
L 1409 794 
L 1409 256 
L 897 -744 
L 494 -744 
L 750 256 
L 750 794 
z
" transform="scale(0.015625)"/>
       <path id="DejaVuSans-6b" d="M 581 4863 
L 1159 4863 
L 1159 1991 
L 2875 3500 
L 3609 3500 
L 1753 1863 
L 3688 0 
L 2938 0 
L 1159 1709 
L 1159 0 
L 581 0 
L 581 4863 
z
" transform="scale(0.015625)"/>
       <path id="DejaVuSans-41" d="M 2188 4044 
L 1331 1722 
L 3047 1722 
L 2188 4044 
z
M 1831 4666 
L 2547 4666 
L 4325 0 
L 3669 0 
L 3244 1197 
L 1141 1197 
L 716 0 
L 50 0 
L 1831 4666 
z
" transform="scale(0.015625)"/>
      </defs>
      <use xlink:href="#DejaVuSans-4d"/>
      <use xlink:href="#DejaVuSans-65" transform="translate(86.279297 0)"/>
      <use xlink:href="#DejaVuSans-61" transform="translate(147.802734 0)"/>
      <use xlink:href="#DejaVuSans-6e" transform="translate(209.082031 0)"/>
      <use xlink:href="#DejaVuSans-3a" transform="translate(272.460938 0)"/>
      <use xlink:href="#DejaVuSans-20" transform="translate(306.152344 0)"/>
      <use xlink:href="#DejaVuSans-4e" transform="translate(337.939453 0)"/>
      <use xlink:href="#DejaVuSans-5f" transform="translate(412.744141 0)"/>
      <use xlink:href="#DejaVuSans-65" transform="translate(462.744141 0)"/>
      <use xlink:href="#DejaVuSans-20" transform="translate(524.267578 0)"/>
      <use xlink:href="#DejaVuSans-3d" transform="translate(556.054688 0)"/>
      <use xlink:href="#DejaVuSans-20" transform="translate(639.84375 0)"/>
      <use xlink:href="#DejaVuSans-5b" transform="translate(671.630859 0)"/>
      <use xlink:href="#DejaVuSans-32" transform="translate(710.644531 0)"/>
      <use xlink:href="#DejaVuSans-30" transform="translate(774.267578 0)"/>
      <use xlink:href="#DejaVuSans-30" transform="translate(837.890625 0)"/>
      <use xlink:href="#DejaVuSans-5d" transform="translate(901.513672 0)"/>
      <use xlink:href="#DejaVuSans-2c" transform="translate(940.527344 0)"/>
      <use xlink:href="#DejaVuSans-20" transform="translate(972.314453 0)"/>
      <use xlink:href="#DejaVuSans-31" transform="translate(1004.101562 0)"/>
      <use xlink:href="#DejaVuSans-2e" transform="translate(1067.724609 0)"/>
      <use xlink:href="#DejaVuSans-30" transform="translate(1099.511719 0)"/>
      <use xlink:href="#DejaVuSans-30" transform="translate(1163.134766 0)"/>
      <use xlink:href="#DejaVuSans-30" transform="translate(1226.757812 0)"/>
      <use xlink:href="#DejaVuSans-20" transform="translate(1290.380859 0)"/>
      <use xlink:href="#DejaVuSans-6b" transform="translate(1322.167969 0)"/>
      <use xlink:href="#DejaVuSans-41" transform="translate(1380.078125 0)"/>
     </g>
    </g>
    <g id="line2d_38">
     <path d="M 316.584 96.137887 
L 326.584 96.137887 
L 336.584 96.137887 
" style="fill: none; stroke-dasharray: 7.4,3.2; stroke-dashoffset: 0; stroke: #ffa500; stroke-width: 2"/>
    </g>
    <g id="text_16">
     <!-- Mean: N_e = [200], 1.999 kA -->
     <g transform="translate(344.584 99.637887) scale(0.1 -0.1)">
      <defs>
       <path id="DejaVuSans-39" d="M 703 97 
L 703 672 
Q 941 559 1184 500 
Q 1428 441 1663 441 
Q 2288 441 2617 861 
Q 2947 1281 2994 2138 
Q 2813 1869 2534 1725 
Q 2256 1581 1919 1581 
Q 1219 1581 811 2004 
Q 403 2428 403 3163 
Q 403 3881 828 4315 
Q 1253 4750 1959 4750 
Q 2769 4750 3195 4129 
Q 3622 3509 3622 2328 
Q 3622 1225 3098 567 
Q 2575 -91 1691 -91 
Q 1453 -91 1209 -44 
Q 966 3 703 97 
z
M 1959 2075 
Q 2384 2075 2632 2365 
Q 2881 2656 2881 3163 
Q 2881 3666 2632 3958 
Q 2384 4250 1959 4250 
Q 1534 4250 1286 3958 
Q 1038 3666 1038 3163 
Q 1038 2656 1286 2365 
Q 1534 2075 1959 2075 
z
" transform="scale(0.015625)"/>
      </defs>
      <use xlink:href="#DejaVuSans-4d"/>
      <use xlink:href="#DejaVuSans-65" transform="translate(86.279297 0)"/>
      <use xlink:href="#DejaVuSans-61" transform="translate(147.802734 0)"/>
      <use xlink:href="#DejaVuSans-6e" transform="translate(209.082031 0)"/>
      <use xlink:href="#DejaVuSans-3a" transform="translate(272.460938 0)"/>
      <use xlink:href="#DejaVuSans-20" transform="translate(306.152344 0)"/>
      <use xlink:href="#DejaVuSans-4e" transform="translate(337.939453 0)"/>
      <use xlink:href="#DejaVuSans-5f" transform="translate(412.744141 0)"/>
      <use xlink:href="#DejaVuSans-65" transform="translate(462.744141 0)"/>
      <use xlink:href="#DejaVuSans-20" transform="translate(524.267578 0)"/>
      <use xlink:href="#DejaVuSans-3d" transform="translate(556.054688 0)"/>
      <use xlink:href="#DejaVuSans-20" transform="translate(639.84375 0)"/>
      <use xlink:href="#DejaVuSans-5b" transform="translate(671.630859 0)"/>
      <use xlink:href="#DejaVuSans-32" transform="translate(710.644531 0)"/>
      <use xlink:href="#DejaVuSans-30" transform="translate(774.267578 0)"/>
      <use xlink:href="#DejaVuSans-30" transform="translate(837.890625 0)"/>
      <use xlink:href="#DejaVuSans-5d" transform="translate(901.513672 0)"/>
      <use xlink:href="#DejaVuSans-2c" transform="translate(940.527344 0)"/>
      <use xlink:href="#DejaVuSans-20" transform="translate(972.314453 0)"/>
      <use xlink:href="#DejaVuSans-31" transform="translate(1004.101562 0)"/>
      <use xlink:href="#DejaVuSans-2e" transform="translate(1067.724609 0)"/>
      <use xlink:href="#DejaVuSans-39" transform="translate(1099.511719 0)"/>
      <use xlink:href="#DejaVuSans-39" transform="translate(1163.134766 0)"/>
      <use xlink:href="#DejaVuSans-39" transform="translate(1226.757812 0)"/>
      <use xlink:href="#DejaVuSans-20" transform="translate(1290.380859 0)"/>
      <use xlink:href="#DejaVuSans-6b" transform="translate(1322.167969 0)"/>
      <use xlink:href="#DejaVuSans-41" transform="translate(1380.078125 0)"/>
     </g>
    </g>
    <g id="line2d_39">
     <path d="M 316.584 111.094137 
L 326.584 111.094137 
L 336.584 111.094137 
" style="fill: none; stroke-dasharray: 7.4,3.2; stroke-dashoffset: 0; stroke: #ffa500; stroke-width: 2"/>
    </g>
    <g id="text_17">
     <!-- Mean: N_e = [200], 2.999 kA -->
     <g transform="translate(344.584 114.594137) scale(0.1 -0.1)">
      <use xlink:href="#DejaVuSans-4d"/>
      <use xlink:href="#DejaVuSans-65" transform="translate(86.279297 0)"/>
      <use xlink:href="#DejaVuSans-61" transform="translate(147.802734 0)"/>
      <use xlink:href="#DejaVuSans-6e" transform="translate(209.082031 0)"/>
      <use xlink:href="#DejaVuSans-3a" transform="translate(272.460938 0)"/>
      <use xlink:href="#DejaVuSans-20" transform="translate(306.152344 0)"/>
      <use xlink:href="#DejaVuSans-4e" transform="translate(337.939453 0)"/>
      <use xlink:href="#DejaVuSans-5f" transform="translate(412.744141 0)"/>
      <use xlink:href="#DejaVuSans-65" transform="translate(462.744141 0)"/>
      <use xlink:href="#DejaVuSans-20" transform="translate(524.267578 0)"/>
      <use xlink:href="#DejaVuSans-3d" transform="translate(556.054688 0)"/>
      <use xlink:href="#DejaVuSans-20" transform="translate(639.84375 0)"/>
      <use xlink:href="#DejaVuSans-5b" transform="translate(671.630859 0)"/>
      <use xlink:href="#DejaVuSans-32" transform="translate(710.644531 0)"/>
      <use xlink:href="#DejaVuSans-30" transform="translate(774.267578 0)"/>
      <use xlink:href="#DejaVuSans-30" transform="translate(837.890625 0)"/>
      <use xlink:href="#DejaVuSans-5d" transform="translate(901.513672 0)"/>
      <use xlink:href="#DejaVuSans-2c" transform="translate(940.527344 0)"/>
      <use xlink:href="#DejaVuSans-20" transform="translate(972.314453 0)"/>
      <use xlink:href="#DejaVuSans-32" transform="translate(1004.101562 0)"/>
      <use xlink:href="#DejaVuSans-2e" transform="translate(1067.724609 0)"/>
      <use xlink:href="#DejaVuSans-39" transform="translate(1099.511719 0)"/>
      <use xlink:href="#DejaVuSans-39" transform="translate(1163.134766 0)"/>
      <use xlink:href="#DejaVuSans-39" transform="translate(1226.757812 0)"/>
      <use xlink:href="#DejaVuSans-20" transform="translate(1290.380859 0)"/>
      <use xlink:href="#DejaVuSans-6b" transform="translate(1322.167969 0)"/>
      <use xlink:href="#DejaVuSans-41" transform="translate(1380.078125 0)"/>
     </g>
    </g>
   </g>
  </g>
 </g>
 <defs>
  <clipPath id="p8ae603f574">
   <rect x="57.6" y="41.472" width="357.12" height="266.112"/>
  </clipPath>
 </defs>
</svg>
