<?xml version="1.0" encoding="utf-8" standalone="no"?>
<!DOCTYPE svg PUBLIC "-//W3C//DTD SVG 1.1//EN"
  "http://www.w3.org/Graphics/SVG/1.1/DTD/svg11.dtd">
<svg xmlns:xlink="http://www.w3.org/1999/xlink" width="460.8pt" height="345.6pt" viewBox="0 0 460.8 345.6" xmlns="http://www.w3.org/2000/svg" version="1.1">
 <metadata>
  <rdf:RDF xmlns:dc="http://purl.org/dc/elements/1.1/" xmlns:cc="http://creativecommons.org/ns#" xmlns:rdf="http://www.w3.org/1999/02/22-rdf-syntax-ns#">
   <cc:Work>
    <dc:type rdf:resource="http://purl.org/dc/dcmitype/StillImage"/>
    <dc:date>2025-03-12T11:15:03.342325</dc:date>
    <dc:format>image/svg+xml</dc:format>
    <dc:creator>
     <cc:Agent>
      <dc:title>Matplotlib v3.10.0, https://matplotlib.org/</dc:title>
     </cc:Agent>
    </dc:creator>
   </cc:Work>
  </rdf:RDF>
 </metadata>
 <defs>
  <style type="text/css">*{stroke-linejoin: round; stroke-linecap: butt}</style>
 </defs>
 <g id="figure_1">
  <g id="patch_1">
   <path d="M 0 345.6 
L 460.8 345.6 
L 460.8 0 
L 0 0 
z
" style="fill: #ffffff"/>
  </g>
  <g id="axes_1">
   <g id="patch_2">
    <path d="M 33.775 304.64 
L 450 304.64 
L 450 21.72 
L 33.775 21.72 
z
" style="fill: #ffffff"/>
   </g>
   <g id="matplotlib.axis_1">
    <g id="xtick_1">
     <g id="line2d_1">
      <defs>
       <path id="m832d689588" d="M 0 0 
L 0 3.5 
" style="stroke: #000000; stroke-width: 0.8"/>
      </defs>
      <g>
       <use xlink:href="#m832d689588" x="45.814566" y="304.64" style="stroke: #000000; stroke-width: 0.8"/>
      </g>
     </g>
     <g id="text_1">
      <!-- 0 -->
      <g transform="translate(42.633316 319.238437) scale(0.1 -0.1)">
       <defs>
        <path id="DejaVuSans-30" d="M 2034 4250 
Q 1547 4250 1301 3770 
Q 1056 3291 1056 2328 
Q 1056 1369 1301 889 
Q 1547 409 2034 409 
Q 2525 409 2770 889 
Q 3016 1369 3016 2328 
Q 3016 3291 2770 3770 
Q 2525 4250 2034 4250 
z
M 2034 4750 
Q 2819 4750 3233 4129 
Q 3647 3509 3647 2328 
Q 3647 1150 3233 529 
Q 2819 -91 2034 -91 
Q 1250 -91 836 529 
Q 422 1150 422 2328 
Q 422 3509 836 4129 
Q 1250 4750 2034 4750 
z
" transform="scale(0.015625)"/>
       </defs>
       <use xlink:href="#DejaVuSans-30"/>
      </g>
     </g>
    </g>
    <g id="xtick_2">
     <g id="line2d_2">
      <g>
       <use xlink:href="#m832d689588" x="94.894226" y="304.64" style="stroke: #000000; stroke-width: 0.8"/>
      </g>
     </g>
     <g id="text_2">
      <!-- 100 -->
      <g transform="translate(85.350476 319.238437) scale(0.1 -0.1)">
       <defs>
        <path id="DejaVuSans-31" d="M 794 531 
L 1825 531 
L 1825 4091 
L 703 3866 
L 703 4441 
L 1819 4666 
L 2450 4666 
L 2450 531 
L 3481 531 
L 3481 0 
L 794 0 
L 794 531 
z
" transform="scale(0.015625)"/>
       </defs>
       <use xlink:href="#DejaVuSans-31"/>
       <use xlink:href="#DejaVuSans-30" transform="translate(63.623047 0)"/>
       <use xlink:href="#DejaVuSans-30" transform="translate(127.246094 0)"/>
      </g>
     </g>
    </g>
    <g id="xtick_3">
     <g id="line2d_3">
      <g>
       <use xlink:href="#m832d689588" x="143.973886" y="304.64" style="stroke: #000000; stroke-width: 0.8"/>
      </g>
     </g>
     <g id="text_3">
      <!-- 200 -->
      <g transform="translate(134.430136 319.238437) scale(0.1 -0.1)">
       <defs>
        <path id="DejaVuSans-32" d="M 1228 531 
L 3431 531 
L 3431 0 
L 469 0 
L 469 531 
Q 828 903 1448 1529 
Q 2069 2156 2228 2338 
Q 2531 2678 2651 2914 
Q 2772 3150 2772 3378 
Q 2772 3750 2511 3984 
Q 2250 4219 1831 4219 
Q 1534 4219 1204 4116 
Q 875 4013 500 3803 
L 500 4441 
Q 881 4594 1212 4672 
Q 1544 4750 1819 4750 
Q 2544 4750 2975 4387 
Q 3406 4025 3406 3419 
Q 3406 3131 3298 2873 
Q 3191 2616 2906 2266 
Q 2828 2175 2409 1742 
Q 1991 1309 1228 531 
z
" transform="scale(0.015625)"/>
       </defs>
       <use xlink:href="#DejaVuSans-32"/>
       <use xlink:href="#DejaVuSans-30" transform="translate(63.623047 0)"/>
       <use xlink:href="#DejaVuSans-30" transform="translate(127.246094 0)"/>
      </g>
     </g>
    </g>
    <g id="xtick_4">
     <g id="line2d_4">
      <g>
       <use xlink:href="#m832d689588" x="193.053546" y="304.64" style="stroke: #000000; stroke-width: 0.8"/>
      </g>
     </g>
     <g id="text_4">
      <!-- 300 -->
      <g transform="translate(183.509796 319.238437) scale(0.1 -0.1)">
       <defs>
        <path id="DejaVuSans-33" d="M 2597 2516 
Q 3050 2419 3304 2112 
Q 3559 1806 3559 1356 
Q 3559 666 3084 287 
Q 2609 -91 1734 -91 
Q 1441 -91 1130 -33 
Q 819 25 488 141 
L 488 750 
Q 750 597 1062 519 
Q 1375 441 1716 441 
Q 2309 441 2620 675 
Q 2931 909 2931 1356 
Q 2931 1769 2642 2001 
Q 2353 2234 1838 2234 
L 1294 2234 
L 1294 2753 
L 1863 2753 
Q 2328 2753 2575 2939 
Q 2822 3125 2822 3475 
Q 2822 3834 2567 4026 
Q 2313 4219 1838 4219 
Q 1578 4219 1281 4162 
Q 984 4106 628 3988 
L 628 4550 
Q 988 4650 1302 4700 
Q 1616 4750 1894 4750 
Q 2613 4750 3031 4423 
Q 3450 4097 3450 3541 
Q 3450 3153 3228 2886 
Q 3006 2619 2597 2516 
z
" transform="scale(0.015625)"/>
       </defs>
       <use xlink:href="#DejaVuSans-33"/>
       <use xlink:href="#DejaVuSans-30" transform="translate(63.623047 0)"/>
       <use xlink:href="#DejaVuSans-30" transform="translate(127.246094 0)"/>
      </g>
     </g>
    </g>
    <g id="xtick_5">
     <g id="line2d_5">
      <g>
       <use xlink:href="#m832d689588" x="242.133205" y="304.64" style="stroke: #000000; stroke-width: 0.8"/>
      </g>
     </g>
     <g id="text_5">
      <!-- 400 -->
      <g transform="translate(232.589455 319.238437) scale(0.1 -0.1)">
       <defs>
        <path id="DejaVuSans-34" d="M 2419 4116 
L 825 1625 
L 2419 1625 
L 2419 4116 
z
M 2253 4666 
L 3047 4666 
L 3047 1625 
L 3713 1625 
L 3713 1100 
L 3047 1100 
L 3047 0 
L 2419 0 
L 2419 1100 
L 313 1100 
L 313 1709 
L 2253 4666 
z
" transform="scale(0.015625)"/>
       </defs>
       <use xlink:href="#DejaVuSans-34"/>
       <use xlink:href="#DejaVuSans-30" transform="translate(63.623047 0)"/>
       <use xlink:href="#DejaVuSans-30" transform="translate(127.246094 0)"/>
      </g>
     </g>
    </g>
    <g id="xtick_6">
     <g id="line2d_6">
      <g>
       <use xlink:href="#m832d689588" x="291.212865" y="304.64" style="stroke: #000000; stroke-width: 0.8"/>
      </g>
     </g>
     <g id="text_6">
      <!-- 500 -->
      <g transform="translate(281.669115 319.238437) scale(0.1 -0.1)">
       <defs>
        <path id="DejaVuSans-35" d="M 691 4666 
L 3169 4666 
L 3169 4134 
L 1269 4134 
L 1269 2991 
Q 1406 3038 1543 3061 
Q 1681 3084 1819 3084 
Q 2600 3084 3056 2656 
Q 3513 2228 3513 1497 
Q 3513 744 3044 326 
Q 2575 -91 1722 -91 
Q 1428 -91 1123 -41 
Q 819 9 494 109 
L 494 744 
Q 775 591 1075 516 
Q 1375 441 1709 441 
Q 2250 441 2565 725 
Q 2881 1009 2881 1497 
Q 2881 1984 2565 2268 
Q 2250 2553 1709 2553 
Q 1456 2553 1204 2497 
Q 953 2441 691 2322 
L 691 4666 
z
" transform="scale(0.015625)"/>
       </defs>
       <use xlink:href="#DejaVuSans-35"/>
       <use xlink:href="#DejaVuSans-30" transform="translate(63.623047 0)"/>
       <use xlink:href="#DejaVuSans-30" transform="translate(127.246094 0)"/>
      </g>
     </g>
    </g>
    <g id="xtick_7">
     <g id="line2d_7">
      <g>
       <use xlink:href="#m832d689588" x="340.292525" y="304.64" style="stroke: #000000; stroke-width: 0.8"/>
      </g>
     </g>
     <g id="text_7">
      <!-- 600 -->
      <g transform="translate(330.748775 319.238437) scale(0.1 -0.1)">
       <defs>
        <path id="DejaVuSans-36" d="M 2113 2584 
Q 1688 2584 1439 2293 
Q 1191 2003 1191 1497 
Q 1191 994 1439 701 
Q 1688 409 2113 409 
Q 2538 409 2786 701 
Q 3034 994 3034 1497 
Q 3034 2003 2786 2293 
Q 2538 2584 2113 2584 
z
M 3366 4563 
L 3366 3988 
Q 3128 4100 2886 4159 
Q 2644 4219 2406 4219 
Q 1781 4219 1451 3797 
Q 1122 3375 1075 2522 
Q 1259 2794 1537 2939 
Q 1816 3084 2150 3084 
Q 2853 3084 3261 2657 
Q 3669 2231 3669 1497 
Q 3669 778 3244 343 
Q 2819 -91 2113 -91 
Q 1303 -91 875 529 
Q 447 1150 447 2328 
Q 447 3434 972 4092 
Q 1497 4750 2381 4750 
Q 2619 4750 2861 4703 
Q 3103 4656 3366 4563 
z
" transform="scale(0.015625)"/>
       </defs>
       <use xlink:href="#DejaVuSans-36"/>
       <use xlink:href="#DejaVuSans-30" transform="translate(63.623047 0)"/>
       <use xlink:href="#DejaVuSans-30" transform="translate(127.246094 0)"/>
      </g>
     </g>
    </g>
    <g id="xtick_8">
     <g id="line2d_8">
      <g>
       <use xlink:href="#m832d689588" x="389.372185" y="304.64" style="stroke: #000000; stroke-width: 0.8"/>
      </g>
     </g>
     <g id="text_8">
      <!-- 700 -->
      <g transform="translate(379.828435 319.238437) scale(0.1 -0.1)">
       <defs>
        <path id="DejaVuSans-37" d="M 525 4666 
L 3525 4666 
L 3525 4397 
L 1831 0 
L 1172 0 
L 2766 4134 
L 525 4134 
L 525 4666 
z
" transform="scale(0.015625)"/>
       </defs>
       <use xlink:href="#DejaVuSans-37"/>
       <use xlink:href="#DejaVuSans-30" transform="translate(63.623047 0)"/>
       <use xlink:href="#DejaVuSans-30" transform="translate(127.246094 0)"/>
      </g>
     </g>
    </g>
    <g id="xtick_9">
     <g id="line2d_9">
      <g>
       <use xlink:href="#m832d689588" x="438.451845" y="304.64" style="stroke: #000000; stroke-width: 0.8"/>
      </g>
     </g>
     <g id="text_9">
      <!-- 800 -->
      <g transform="translate(428.908095 319.238437) scale(0.1 -0.1)">
       <defs>
        <path id="DejaVuSans-38" d="M 2034 2216 
Q 1584 2216 1326 1975 
Q 1069 1734 1069 1313 
Q 1069 891 1326 650 
Q 1584 409 2034 409 
Q 2484 409 2743 651 
Q 3003 894 3003 1313 
Q 3003 1734 2745 1975 
Q 2488 2216 2034 2216 
z
M 1403 2484 
Q 997 2584 770 2862 
Q 544 3141 544 3541 
Q 544 4100 942 4425 
Q 1341 4750 2034 4750 
Q 2731 4750 3128 4425 
Q 3525 4100 3525 3541 
Q 3525 3141 3298 2862 
Q 3072 2584 2669 2484 
Q 3125 2378 3379 2068 
Q 3634 1759 3634 1313 
Q 3634 634 3220 271 
Q 2806 -91 2034 -91 
Q 1263 -91 848 271 
Q 434 634 434 1313 
Q 434 1759 690 2068 
Q 947 2378 1403 2484 
z
M 1172 3481 
Q 1172 3119 1398 2916 
Q 1625 2713 2034 2713 
Q 2441 2713 2670 2916 
Q 2900 3119 2900 3481 
Q 2900 3844 2670 4047 
Q 2441 4250 2034 4250 
Q 1625 4250 1398 4047 
Q 1172 3844 1172 3481 
z
" transform="scale(0.015625)"/>
       </defs>
       <use xlink:href="#DejaVuSans-38"/>
       <use xlink:href="#DejaVuSans-30" transform="translate(63.623047 0)"/>
       <use xlink:href="#DejaVuSans-30" transform="translate(127.246094 0)"/>
      </g>
     </g>
    </g>
    <g id="text_10">
     <!-- Temperature ($^{\circ}C$) -->
     <g transform="translate(197.8875 332.918125) scale(0.1 -0.1)">
      <defs>
       <path id="DejaVuSans-54" d="M -19 4666 
L 3928 4666 
L 3928 4134 
L 2272 4134 
L 2272 0 
L 1638 0 
L 1638 4134 
L -19 4134 
L -19 4666 
z
" transform="scale(0.015625)"/>
       <path id="DejaVuSans-65" d="M 3597 1894 
L 3597 1613 
L 953 1613 
Q 991 1019 1311 708 
Q 1631 397 2203 397 
Q 2534 397 2845 478 
Q 3156 559 3463 722 
L 3463 178 
Q 3153 47 2828 -22 
Q 2503 -91 2169 -91 
Q 1331 -91 842 396 
Q 353 884 353 1716 
Q 353 2575 817 3079 
Q 1281 3584 2069 3584 
Q 2775 3584 3186 3129 
Q 3597 2675 3597 1894 
z
M 3022 2063 
Q 3016 2534 2758 2815 
Q 2500 3097 2075 3097 
Q 1594 3097 1305 2825 
Q 1016 2553 972 2059 
L 3022 2063 
z
" transform="scale(0.015625)"/>
       <path id="DejaVuSans-6d" d="M 3328 2828 
Q 3544 3216 3844 3400 
Q 4144 3584 4550 3584 
Q 5097 3584 5394 3201 
Q 5691 2819 5691 2113 
L 5691 0 
L 5113 0 
L 5113 2094 
Q 5113 2597 4934 2840 
Q 4756 3084 4391 3084 
Q 3944 3084 3684 2787 
Q 3425 2491 3425 1978 
L 3425 0 
L 2847 0 
L 2847 2094 
Q 2847 2600 2669 2842 
Q 2491 3084 2119 3084 
Q 1678 3084 1418 2786 
Q 1159 2488 1159 1978 
L 1159 0 
L 581 0 
L 581 3500 
L 1159 3500 
L 1159 2956 
Q 1356 3278 1631 3431 
Q 1906 3584 2284 3584 
Q 2666 3584 2933 3390 
Q 3200 3197 3328 2828 
z
" transform="scale(0.015625)"/>
       <path id="DejaVuSans-70" d="M 1159 525 
L 1159 -1331 
L 581 -1331 
L 581 3500 
L 1159 3500 
L 1159 2969 
Q 1341 3281 1617 3432 
Q 1894 3584 2278 3584 
Q 2916 3584 3314 3078 
Q 3713 2572 3713 1747 
Q 3713 922 3314 415 
Q 2916 -91 2278 -91 
Q 1894 -91 1617 61 
Q 1341 213 1159 525 
z
M 3116 1747 
Q 3116 2381 2855 2742 
Q 2594 3103 2138 3103 
Q 1681 3103 1420 2742 
Q 1159 2381 1159 1747 
Q 1159 1113 1420 752 
Q 1681 391 2138 391 
Q 2594 391 2855 752 
Q 3116 1113 3116 1747 
z
" transform="scale(0.015625)"/>
       <path id="DejaVuSans-72" d="M 2631 2963 
Q 2534 3019 2420 3045 
Q 2306 3072 2169 3072 
Q 1681 3072 1420 2755 
Q 1159 2438 1159 1844 
L 1159 0 
L 581 0 
L 581 3500 
L 1159 3500 
L 1159 2956 
Q 1341 3275 1631 3429 
Q 1922 3584 2338 3584 
Q 2397 3584 2469 3576 
Q 2541 3569 2628 3553 
L 2631 2963 
z
" transform="scale(0.015625)"/>
       <path id="DejaVuSans-61" d="M 2194 1759 
Q 1497 1759 1228 1600 
Q 959 1441 959 1056 
Q 959 750 1161 570 
Q 1363 391 1709 391 
Q 2188 391 2477 730 
Q 2766 1069 2766 1631 
L 2766 1759 
L 2194 1759 
z
M 3341 1997 
L 3341 0 
L 2766 0 
L 2766 531 
Q 2569 213 2275 61 
Q 1981 -91 1556 -91 
Q 1019 -91 701 211 
Q 384 513 384 1019 
Q 384 1609 779 1909 
Q 1175 2209 1959 2209 
L 2766 2209 
L 2766 2266 
Q 2766 2663 2505 2880 
Q 2244 3097 1772 3097 
Q 1472 3097 1187 3025 
Q 903 2953 641 2809 
L 641 3341 
Q 956 3463 1253 3523 
Q 1550 3584 1831 3584 
Q 2591 3584 2966 3190 
Q 3341 2797 3341 1997 
z
" transform="scale(0.015625)"/>
       <path id="DejaVuSans-74" d="M 1172 4494 
L 1172 3500 
L 2356 3500 
L 2356 3053 
L 1172 3053 
L 1172 1153 
Q 1172 725 1289 603 
Q 1406 481 1766 481 
L 2356 481 
L 2356 0 
L 1766 0 
Q 1100 0 847 248 
Q 594 497 594 1153 
L 594 3053 
L 172 3053 
L 172 3500 
L 594 3500 
L 594 4494 
L 1172 4494 
z
" transform="scale(0.015625)"/>
       <path id="DejaVuSans-75" d="M 544 1381 
L 544 3500 
L 1119 3500 
L 1119 1403 
Q 1119 906 1312 657 
Q 1506 409 1894 409 
Q 2359 409 2629 706 
Q 2900 1003 2900 1516 
L 2900 3500 
L 3475 3500 
L 3475 0 
L 2900 0 
L 2900 538 
Q 2691 219 2414 64 
Q 2138 -91 1772 -91 
Q 1169 -91 856 284 
Q 544 659 544 1381 
z
M 1991 3584 
L 1991 3584 
z
" transform="scale(0.015625)"/>
       <path id="DejaVuSans-20" transform="scale(0.015625)"/>
       <path id="DejaVuSans-28" d="M 1984 4856 
Q 1566 4138 1362 3434 
Q 1159 2731 1159 2009 
Q 1159 1288 1364 580 
Q 1569 -128 1984 -844 
L 1484 -844 
Q 1016 -109 783 600 
Q 550 1309 550 2009 
Q 550 2706 781 3412 
Q 1013 4119 1484 4856 
L 1984 4856 
z
" transform="scale(0.015625)"/>
       <path id="DejaVuSans-2218" d="M 2000 2619 
Q 1750 2619 1578 2445 
Q 1406 2272 1406 2022 
Q 1406 1775 1578 1605 
Q 1750 1435 2000 1435 
Q 2250 1435 2422 1605 
Q 2594 1775 2594 2022 
Q 2594 2269 2420 2444 
Q 2247 2619 2000 2619 
z
M 2000 3022 
Q 2200 3022 2384 2945 
Q 2569 2869 2703 2725 
Q 2847 2585 2919 2406 
Q 2991 2228 2991 2022 
Q 2991 1610 2702 1324 
Q 2413 1038 1994 1038 
Q 1572 1038 1290 1319 
Q 1009 1600 1009 2022 
Q 1009 2441 1296 2731 
Q 1584 3022 2000 3022 
z
" transform="scale(0.015625)"/>
       <path id="DejaVuSans-Oblique-43" d="M 4447 4306 
L 4319 3641 
Q 4019 3944 3683 4091 
Q 3347 4238 2956 4238 
Q 2422 4238 2017 3981 
Q 1613 3725 1319 3200 
Q 1131 2863 1032 2486 
Q 934 2109 934 1728 
Q 934 1091 1264 756 
Q 1594 422 2222 422 
Q 2656 422 3056 561 
Q 3456 700 3834 978 
L 3688 231 
Q 3316 72 2936 -9 
Q 2556 -91 2175 -91 
Q 1278 -91 773 396 
Q 269 884 269 1753 
Q 269 2309 461 2846 
Q 653 3384 1013 3828 
Q 1394 4300 1883 4525 
Q 2372 4750 3022 4750 
Q 3422 4750 3780 4639 
Q 4138 4528 4447 4306 
z
" transform="scale(0.015625)"/>
       <path id="DejaVuSans-29" d="M 513 4856 
L 1013 4856 
Q 1481 4119 1714 3412 
Q 1947 2706 1947 2009 
Q 1947 1309 1714 600 
Q 1481 -109 1013 -844 
L 513 -844 
Q 928 -128 1133 580 
Q 1338 1288 1338 2009 
Q 1338 2731 1133 3434 
Q 928 4138 513 4856 
z
" transform="scale(0.015625)"/>
      </defs>
      <use xlink:href="#DejaVuSans-54" transform="translate(0 0.125)"/>
      <use xlink:href="#DejaVuSans-65" transform="translate(61.083984 0.125)"/>
      <use xlink:href="#DejaVuSans-6d" transform="translate(122.607422 0.125)"/>
      <use xlink:href="#DejaVuSans-70" transform="translate(220.019531 0.125)"/>
      <use xlink:href="#DejaVuSans-65" transform="translate(283.496094 0.125)"/>
      <use xlink:href="#DejaVuSans-72" transform="translate(345.019531 0.125)"/>
      <use xlink:href="#DejaVuSans-61" transform="translate(386.132812 0.125)"/>
      <use xlink:href="#DejaVuSans-74" transform="translate(447.412109 0.125)"/>
      <use xlink:href="#DejaVuSans-75" transform="translate(486.621094 0.125)"/>
      <use xlink:href="#DejaVuSans-72" transform="translate(550 0.125)"/>
      <use xlink:href="#DejaVuSans-65" transform="translate(591.113281 0.125)"/>
      <use xlink:href="#DejaVuSans-20" transform="translate(652.636719 0.125)"/>
      <use xlink:href="#DejaVuSans-28" transform="translate(684.423828 0.125)"/>
      <use xlink:href="#DejaVuSans-2218" transform="translate(724.394531 38.40625) scale(0.7)"/>
      <use xlink:href="#DejaVuSans-Oblique-43" transform="translate(770.947266 0.125)"/>
      <use xlink:href="#DejaVuSans-29" transform="translate(840.771484 0.125)"/>
     </g>
    </g>
   </g>
   <g id="matplotlib.axis_2">
    <g id="ytick_1">
     <g id="line2d_10">
      <defs>
       <path id="m7e0cafd723" d="M 0 0 
L -3.5 0 
" style="stroke: #000000; stroke-width: 0.8"/>
      </defs>
      <g>
       <use xlink:href="#m7e0cafd723" x="33.775" y="291.78" style="stroke: #000000; stroke-width: 0.8"/>
      </g>
     </g>
     <g id="text_11">
      <!-- 0 -->
      <g transform="translate(20.4125 295.579219) scale(0.1 -0.1)">
       <use xlink:href="#DejaVuSans-30"/>
      </g>
     </g>
    </g>
    <g id="ytick_2">
     <g id="line2d_11">
      <g>
       <use xlink:href="#m7e0cafd723" x="33.775" y="233.546038" style="stroke: #000000; stroke-width: 0.8"/>
      </g>
     </g>
     <g id="text_12">
      <!-- 1 -->
      <g transform="translate(20.4125 237.345256) scale(0.1 -0.1)">
       <use xlink:href="#DejaVuSans-31"/>
      </g>
     </g>
    </g>
    <g id="ytick_3">
     <g id="line2d_12">
      <g>
       <use xlink:href="#m7e0cafd723" x="33.775" y="175.312075" style="stroke: #000000; stroke-width: 0.8"/>
      </g>
     </g>
     <g id="text_13">
      <!-- 2 -->
      <g transform="translate(20.4125 179.111294) scale(0.1 -0.1)">
       <use xlink:href="#DejaVuSans-32"/>
      </g>
     </g>
    </g>
    <g id="ytick_4">
     <g id="line2d_13">
      <g>
       <use xlink:href="#m7e0cafd723" x="33.775" y="117.078113" style="stroke: #000000; stroke-width: 0.8"/>
      </g>
     </g>
     <g id="text_14">
      <!-- 3 -->
      <g transform="translate(20.4125 120.877332) scale(0.1 -0.1)">
       <use xlink:href="#DejaVuSans-33"/>
      </g>
     </g>
    </g>
    <g id="ytick_5">
     <g id="line2d_14">
      <g>
       <use xlink:href="#m7e0cafd723" x="33.775" y="58.844151" style="stroke: #000000; stroke-width: 0.8"/>
      </g>
     </g>
     <g id="text_15">
      <!-- 4 -->
      <g transform="translate(20.4125 62.64337) scale(0.1 -0.1)">
       <use xlink:href="#DejaVuSans-34"/>
      </g>
     </g>
    </g>
    <g id="text_16">
     <!-- Intensity ($^{\circ}C^{-1}$) -->
     <g transform="translate(14.3125 201.98) rotate(-90) scale(0.1 -0.1)">
      <defs>
       <path id="DejaVuSans-49" d="M 628 4666 
L 1259 4666 
L 1259 0 
L 628 0 
L 628 4666 
z
" transform="scale(0.015625)"/>
       <path id="DejaVuSans-6e" d="M 3513 2113 
L 3513 0 
L 2938 0 
L 2938 2094 
Q 2938 2591 2744 2837 
Q 2550 3084 2163 3084 
Q 1697 3084 1428 2787 
Q 1159 2491 1159 1978 
L 1159 0 
L 581 0 
L 581 3500 
L 1159 3500 
L 1159 2956 
Q 1366 3272 1645 3428 
Q 1925 3584 2291 3584 
Q 2894 3584 3203 3211 
Q 3513 2838 3513 2113 
z
" transform="scale(0.015625)"/>
       <path id="DejaVuSans-73" d="M 2834 3397 
L 2834 2853 
Q 2591 2978 2328 3040 
Q 2066 3103 1784 3103 
Q 1356 3103 1142 2972 
Q 928 2841 928 2578 
Q 928 2378 1081 2264 
Q 1234 2150 1697 2047 
L 1894 2003 
Q 2506 1872 2764 1633 
Q 3022 1394 3022 966 
Q 3022 478 2636 193 
Q 2250 -91 1575 -91 
Q 1294 -91 989 -36 
Q 684 19 347 128 
L 347 722 
Q 666 556 975 473 
Q 1284 391 1588 391 
Q 1994 391 2212 530 
Q 2431 669 2431 922 
Q 2431 1156 2273 1281 
Q 2116 1406 1581 1522 
L 1381 1569 
Q 847 1681 609 1914 
Q 372 2147 372 2553 
Q 372 3047 722 3315 
Q 1072 3584 1716 3584 
Q 2034 3584 2315 3537 
Q 2597 3491 2834 3397 
z
" transform="scale(0.015625)"/>
       <path id="DejaVuSans-69" d="M 603 3500 
L 1178 3500 
L 1178 0 
L 603 0 
L 603 3500 
z
M 603 4863 
L 1178 4863 
L 1178 4134 
L 603 4134 
L 603 4863 
z
" transform="scale(0.015625)"/>
       <path id="DejaVuSans-79" d="M 2059 -325 
Q 1816 -950 1584 -1140 
Q 1353 -1331 966 -1331 
L 506 -1331 
L 506 -850 
L 844 -850 
Q 1081 -850 1212 -737 
Q 1344 -625 1503 -206 
L 1606 56 
L 191 3500 
L 800 3500 
L 1894 763 
L 2988 3500 
L 3597 3500 
L 2059 -325 
z
" transform="scale(0.015625)"/>
       <path id="DejaVuSans-2212" d="M 678 2272 
L 4684 2272 
L 4684 1741 
L 678 1741 
L 678 2272 
z
" transform="scale(0.015625)"/>
      </defs>
      <use xlink:href="#DejaVuSans-49" transform="translate(0 0.684375)"/>
      <use xlink:href="#DejaVuSans-6e" transform="translate(29.492188 0.684375)"/>
      <use xlink:href="#DejaVuSans-74" transform="translate(92.871094 0.684375)"/>
      <use xlink:href="#DejaVuSans-65" transform="translate(132.080078 0.684375)"/>
      <use xlink:href="#DejaVuSans-6e" transform="translate(193.603516 0.684375)"/>
      <use xlink:href="#DejaVuSans-73" transform="translate(256.982422 0.684375)"/>
      <use xlink:href="#DejaVuSans-69" transform="translate(309.082031 0.684375)"/>
      <use xlink:href="#DejaVuSans-74" transform="translate(336.865234 0.684375)"/>
      <use xlink:href="#DejaVuSans-79" transform="translate(376.074219 0.684375)"/>
      <use xlink:href="#DejaVuSans-20" transform="translate(435.253906 0.684375)"/>
      <use xlink:href="#DejaVuSans-28" transform="translate(467.041016 0.684375)"/>
      <use xlink:href="#DejaVuSans-2218" transform="translate(507.011719 38.965625) scale(0.7)"/>
      <use xlink:href="#DejaVuSans-Oblique-43" transform="translate(553.564453 0.684375)"/>
      <use xlink:href="#DejaVuSans-2212" transform="translate(630.589193 38.965625) scale(0.7)"/>
      <use xlink:href="#DejaVuSans-31" transform="translate(689.241536 38.965625) scale(0.7)"/>
      <use xlink:href="#DejaVuSans-29" transform="translate(736.512044 0.684375)"/>
     </g>
    </g>
   </g>
   <g id="line2d_15">
    <path d="M 52.694318 291.78 
L 110.189389 291.78 
L 110.6808 290.809434 
L 120.509017 290.809434 
L 121.000428 289.838868 
L 122.966071 289.838868 
L 123.457482 288.868302 
L 123.948893 288.868302 
L 124.440304 287.897736 
L 126.405947 287.897736 
L 126.897358 284.986038 
L 127.388769 284.986038 
L 128.371591 283.044906 
L 130.337234 283.044906 
L 130.828645 281.103774 
L 131.320056 281.103774 
L 132.302878 279.162642 
L 132.794289 277.221509 
L 133.2857 277.221509 
L 133.77711 276.250943 
L 134.268521 272.368679 
L 134.759932 270.427547 
L 135.742754 270.427547 
L 137.708397 266.545283 
L 138.199808 266.545283 
L 138.691219 263.633585 
L 139.18263 262.663019 
L 139.674041 259.751321 
L 140.165452 259.751321 
L 141.148273 257.810189 
L 141.639684 258.780755 
L 142.131095 255.869057 
L 142.622506 254.898491 
L 143.113917 255.869057 
L 143.605328 255.869057 
L 144.096738 253.927925 
L 144.588149 252.957358 
L 145.570971 252.957358 
L 146.062382 251.986792 
L 146.553793 251.986792 
L 147.536615 253.927925 
L 148.028025 253.927925 
L 148.519436 250.04566 
L 149.010847 252.957358 
L 149.502258 253.927925 
L 149.993669 253.927925 
L 150.48508 254.898491 
L 150.976491 254.898491 
L 151.467901 255.869057 
L 151.959312 255.869057 
L 152.450723 253.927925 
L 152.942134 253.927925 
L 153.924956 255.869057 
L 154.416367 257.810189 
L 154.907777 256.839623 
L 156.38201 256.839623 
L 156.873421 258.780755 
L 157.364832 257.810189 
L 157.856243 257.810189 
L 158.347653 252.957358 
L 158.839064 253.927925 
L 159.330475 252.957358 
L 159.821886 252.957358 
L 160.313297 251.986792 
L 160.804708 251.986792 
L 161.296119 251.016226 
L 162.27894 247.133962 
L 162.770351 247.133962 
L 163.261762 250.04566 
L 163.753173 247.133962 
L 164.244584 248.104528 
L 164.735995 247.133962 
L 165.227406 242.281132 
L 165.718816 240.34 
L 167.193049 237.428302 
L 168.175871 233.546038 
L 168.667282 232.575472 
L 169.158692 229.663774 
L 169.650103 228.693208 
L 170.141514 226.752075 
L 170.632925 227.722642 
L 171.124336 227.722642 
L 171.615747 228.693208 
L 172.107158 230.63434 
L 172.598568 224.810943 
L 173.58139 226.752075 
L 174.072801 226.752075 
L 174.564212 222.869811 
L 175.055623 222.869811 
L 175.547034 217.046415 
L 176.529855 211.223019 
L 177.021266 213.164151 
L 177.512677 210.252453 
L 178.004088 208.311321 
L 178.495499 208.311321 
L 178.98691 204.429057 
L 179.478321 203.458491 
L 179.969731 203.458491 
L 180.461142 205.399623 
L 181.443964 201.517358 
L 181.935375 201.517358 
L 182.426786 199.576226 
L 182.918197 201.517358 
L 183.409607 200.546792 
L 184.392429 202.487925 
L 184.88384 204.429057 
L 185.375251 198.60566 
L 186.358073 196.664528 
L 186.849483 192.782264 
L 187.340894 194.723396 
L 187.832305 195.693962 
L 188.323716 192.782264 
L 188.815127 190.841132 
L 189.306538 190.841132 
L 189.797949 192.782264 
L 190.28936 197.635094 
L 190.78077 200.546792 
L 191.272181 201.517358 
L 191.763592 198.60566 
L 192.255003 196.664528 
L 192.746414 199.576226 
L 193.237825 200.546792 
L 193.729236 204.429057 
L 194.220646 205.399623 
L 195.203468 201.517358 
L 195.694879 201.517358 
L 196.18629 199.576226 
L 196.677701 201.517358 
L 197.169112 201.517358 
L 197.660522 202.487925 
L 198.151933 200.546792 
L 199.134755 198.60566 
L 199.626166 195.693962 
L 200.117577 196.664528 
L 200.608988 198.60566 
L 201.100398 196.664528 
L 201.591809 198.60566 
L 202.08322 201.517358 
L 202.574631 201.517358 
L 203.557453 203.458491 
L 204.048864 207.340755 
L 204.540274 202.487925 
L 205.031685 199.576226 
L 205.523096 194.723396 
L 206.014507 196.664528 
L 206.505918 196.664528 
L 206.997329 198.60566 
L 207.48874 194.723396 
L 207.980151 193.75283 
L 208.471561 186.958868 
L 208.962972 186.958868 
L 209.454383 190.841132 
L 209.945794 192.782264 
L 210.437205 193.75283 
L 210.928616 195.693962 
L 211.420027 193.75283 
L 211.911437 194.723396 
L 212.402848 185.988302 
L 212.894259 187.929434 
L 213.38567 187.929434 
L 213.877081 184.04717 
L 214.368492 185.017736 
L 214.859903 185.017736 
L 215.351313 181.135472 
L 215.842724 180.164906 
L 216.334135 182.106038 
L 216.825546 181.135472 
L 217.316957 183.076604 
L 217.808368 180.164906 
L 218.299779 181.135472 
L 218.791189 176.282642 
L 219.774011 182.106038 
L 220.265422 185.988302 
L 220.756833 184.04717 
L 221.248244 185.017736 
L 221.739655 184.04717 
L 222.231066 185.017736 
L 222.722476 185.017736 
L 223.213887 187.929434 
L 223.705298 185.988302 
L 224.196709 185.017736 
L 224.68812 178.223774 
L 225.179531 180.164906 
L 225.670942 180.164906 
L 226.162352 181.135472 
L 226.653763 184.04717 
L 227.145174 190.841132 
L 227.636585 186.958868 
L 228.127996 186.958868 
L 229.110818 188.9 
L 229.602228 192.782264 
L 230.093639 194.723396 
L 230.58505 195.693962 
L 231.076461 193.75283 
L 231.567872 193.75283 
L 232.059283 191.811698 
L 232.550694 192.782264 
L 233.042104 190.841132 
L 233.533515 190.841132 
L 234.024926 191.811698 
L 234.516337 190.841132 
L 235.007748 187.929434 
L 235.499159 187.929434 
L 235.99057 184.04717 
L 236.481981 182.106038 
L 236.973391 183.076604 
L 237.464802 185.017736 
L 237.956213 185.017736 
L 238.447624 185.988302 
L 238.939035 187.929434 
L 239.430446 193.75283 
L 239.921857 185.988302 
L 240.904678 184.04717 
L 241.396089 184.04717 
L 241.8875 182.106038 
L 242.378911 185.988302 
L 243.361733 187.929434 
L 244.344554 185.988302 
L 245.327376 180.164906 
L 245.818787 180.164906 
L 246.310198 177.253208 
L 246.801609 177.253208 
L 247.293019 179.19434 
L 247.78443 180.164906 
L 248.275841 183.076604 
L 249.258663 183.076604 
L 249.750074 185.988302 
L 250.241485 185.988302 
L 250.732896 187.929434 
L 251.224306 190.841132 
L 251.715717 189.870566 
L 252.698539 189.870566 
L 253.18995 187.929434 
L 253.681361 187.929434 
L 254.172772 188.9 
L 254.664182 190.841132 
L 255.647004 192.782264 
L 256.138415 188.9 
L 256.629826 192.782264 
L 257.121237 191.811698 
L 257.612648 193.75283 
L 258.104058 194.723396 
L 258.595469 192.782264 
L 259.08688 189.870566 
L 259.578291 193.75283 
L 260.069702 193.75283 
L 260.561113 191.811698 
L 261.052524 193.75283 
L 261.543934 193.75283 
L 262.035345 192.782264 
L 263.509578 184.04717 
L 264.000989 186.958868 
L 264.4924 187.929434 
L 264.983811 187.929434 
L 265.475221 188.9 
L 265.966632 187.929434 
L 266.458043 185.988302 
L 266.949454 186.958868 
L 267.440865 189.870566 
L 267.932276 191.811698 
L 268.915097 191.811698 
L 269.406508 195.693962 
L 269.897919 193.75283 
L 270.880741 199.576226 
L 271.372152 197.635094 
L 272.354973 197.635094 
L 272.846384 196.664528 
L 273.337795 196.664528 
L 273.829206 198.60566 
L 274.320617 197.635094 
L 274.812028 198.60566 
L 275.303439 201.517358 
L 275.794849 201.517358 
L 276.28626 202.487925 
L 276.777671 205.399623 
L 277.269082 209.281887 
L 277.760493 209.281887 
L 278.251904 212.193585 
L 278.743315 208.311321 
L 279.234726 206.370189 
L 279.726136 207.340755 
L 280.708958 213.164151 
L 281.200369 218.987547 
L 281.69178 218.987547 
L 282.183191 218.016981 
L 282.674602 218.016981 
L 283.166012 217.046415 
L 283.657423 215.105283 
L 284.148834 212.193585 
L 284.640245 216.075849 
L 285.131656 212.193585 
L 285.623067 210.252453 
L 286.114478 206.370189 
L 286.605888 207.340755 
L 287.097299 201.517358 
L 287.58871 201.517358 
L 288.080121 203.458491 
L 288.571532 203.458491 
L 289.062943 204.429057 
L 289.554354 207.340755 
L 290.045764 207.340755 
L 290.537175 206.370189 
L 291.028586 206.370189 
L 291.519997 202.487925 
L 292.011408 200.546792 
L 292.502819 202.487925 
L 293.48564 204.429057 
L 293.977051 203.458491 
L 294.468462 204.429057 
L 295.451284 194.723396 
L 295.942695 193.75283 
L 296.434106 190.841132 
L 296.925517 188.9 
L 297.416927 187.929434 
L 297.908338 185.988302 
L 298.89116 184.04717 
L 299.382571 182.106038 
L 299.873982 182.106038 
L 300.365393 184.04717 
L 300.856803 189.870566 
L 301.348214 187.929434 
L 301.839625 193.75283 
L 302.331036 196.664528 
L 302.822447 197.635094 
L 303.313858 199.576226 
L 303.805269 198.60566 
L 304.78809 200.546792 
L 305.279501 200.546792 
L 306.262323 202.487925 
L 306.753734 204.429057 
L 308.227966 207.340755 
L 308.719377 206.370189 
L 309.210788 206.370189 
L 309.702199 210.252453 
L 310.19361 213.164151 
L 310.685021 213.164151 
L 311.667842 215.105283 
L 312.159253 213.164151 
L 313.142075 215.105283 
L 313.633486 218.987547 
L 314.616308 215.105283 
L 315.599129 215.105283 
L 316.09054 218.987547 
L 316.581951 217.046415 
L 317.073362 218.987547 
L 317.564773 218.016981 
L 318.056184 218.016981 
L 318.547594 218.987547 
L 319.039005 218.016981 
L 319.530416 218.016981 
L 320.021827 220.928679 
L 320.513238 219.958113 
L 321.98747 222.869811 
L 322.478881 222.869811 
L 322.970292 221.899245 
L 323.953114 225.781509 
L 324.444525 223.840377 
L 324.935936 224.810943 
L 325.427347 223.840377 
L 325.918757 223.840377 
L 326.410168 225.781509 
L 326.901579 226.752075 
L 327.39299 229.663774 
L 327.884401 228.693208 
L 328.375812 228.693208 
L 328.867223 232.575472 
L 329.358633 237.428302 
L 329.850044 237.428302 
L 330.832866 235.48717 
L 331.324277 235.48717 
L 331.815688 232.575472 
L 332.307099 233.546038 
L 332.798509 230.63434 
L 333.28992 230.63434 
L 333.781331 229.663774 
L 334.272742 226.752075 
L 334.764153 221.899245 
L 335.255564 222.869811 
L 335.746975 221.899245 
L 336.238385 221.899245 
L 336.729796 218.987547 
L 337.221207 213.164151 
L 337.712618 212.193585 
L 338.204029 215.105283 
L 338.69544 212.193585 
L 339.186851 213.164151 
L 339.678262 212.193585 
L 340.169672 207.340755 
L 340.661083 208.311321 
L 341.152494 208.311321 
L 341.643905 211.223019 
L 342.135316 209.281887 
L 342.626727 209.281887 
L 343.118138 207.340755 
L 343.609548 209.281887 
L 344.100959 208.311321 
L 344.59237 209.281887 
L 345.083781 209.281887 
L 345.575192 210.252453 
L 346.066603 213.164151 
L 346.558014 214.134717 
L 347.049424 214.134717 
L 347.540835 215.105283 
L 348.032246 214.134717 
L 348.523657 217.046415 
L 349.015068 217.046415 
L 349.506479 221.899245 
L 349.99789 219.958113 
L 350.4893 219.958113 
L 350.980711 218.016981 
L 351.472122 221.899245 
L 351.963533 224.810943 
L 352.454944 226.752075 
L 352.946355 225.781509 
L 353.437766 226.752075 
L 353.929177 229.663774 
L 354.420587 230.63434 
L 354.911998 237.428302 
L 355.403409 237.428302 
L 356.386231 235.48717 
L 356.877642 236.457736 
L 357.860463 244.222264 
L 358.351874 240.34 
L 358.843285 242.281132 
L 359.826107 240.34 
L 360.317518 240.34 
L 360.808929 239.369434 
L 361.300339 239.369434 
L 361.79175 241.310566 
L 362.283161 240.34 
L 362.774572 242.281132 
L 363.265983 239.369434 
L 363.757394 237.428302 
L 364.248805 237.428302 
L 364.740215 236.457736 
L 365.231626 237.428302 
L 365.723037 237.428302 
L 366.214448 236.457736 
L 366.705859 239.369434 
L 367.19727 239.369434 
L 367.688681 238.398868 
L 368.180091 239.369434 
L 368.671502 237.428302 
L 369.162913 238.398868 
L 369.654324 237.428302 
L 370.145735 237.428302 
L 370.637146 233.546038 
L 371.619968 235.48717 
L 372.111378 233.546038 
L 372.602789 230.63434 
L 373.0942 233.546038 
L 373.585611 230.63434 
L 374.077022 229.663774 
L 375.059844 231.604906 
L 376.042665 231.604906 
L 376.534076 230.63434 
L 377.025487 233.546038 
L 378.008309 233.546038 
L 378.49972 237.428302 
L 378.99113 237.428302 
L 379.482541 241.310566 
L 379.973952 239.369434 
L 380.465363 240.34 
L 380.956774 239.369434 
L 381.448185 236.457736 
L 381.939596 236.457736 
L 382.431006 238.398868 
L 382.922417 239.369434 
L 383.413828 239.369434 
L 383.905239 238.398868 
L 384.888061 238.398868 
L 385.379472 239.369434 
L 385.870883 239.369434 
L 386.362293 240.34 
L 386.853704 239.369434 
L 387.345115 241.310566 
L 387.836526 241.310566 
L 388.327937 242.281132 
L 388.819348 244.222264 
L 389.310759 243.251698 
L 389.802169 240.34 
L 391.276402 243.251698 
L 391.767813 241.310566 
L 392.259224 240.34 
L 392.750635 243.251698 
L 393.733456 245.19283 
L 394.224867 244.222264 
L 394.716278 246.163396 
L 395.207689 246.163396 
L 395.6991 247.133962 
L 396.190511 250.04566 
L 396.681921 251.986792 
L 397.173332 252.957358 
L 397.664743 251.016226 
L 398.647565 254.898491 
L 399.138976 253.927925 
L 400.613208 253.927925 
L 401.104619 252.957358 
L 401.59603 252.957358 
L 402.087441 253.927925 
L 403.070263 253.927925 
L 403.561674 250.04566 
L 404.053084 251.986792 
L 404.544495 252.957358 
L 405.035906 251.986792 
L 405.527317 248.104528 
L 406.018728 245.19283 
L 406.510139 248.104528 
L 407.00155 249.075094 
L 407.49296 245.19283 
L 407.984371 246.163396 
L 408.475782 244.222264 
L 408.967193 245.19283 
L 409.458604 245.19283 
L 410.441426 247.133962 
L 410.932836 246.163396 
L 411.424247 244.222264 
L 411.915658 244.222264 
L 412.407069 245.19283 
L 412.89848 242.281132 
L 413.389891 240.34 
L 413.881302 242.281132 
L 414.372713 243.251698 
L 414.864123 247.133962 
L 415.355534 246.163396 
L 415.846945 246.163396 
L 416.338356 248.104528 
L 416.829767 247.133962 
L 417.812589 249.075094 
L 418.303999 251.986792 
L 418.79541 251.986792 
L 419.286821 251.016226 
L 419.778232 251.986792 
L 420.269643 255.869057 
L 420.761054 258.780755 
L 421.252465 258.780755 
L 421.743875 255.869057 
L 422.235286 258.780755 
L 422.726697 258.780755 
L 423.218108 259.751321 
L 423.709519 259.751321 
L 424.692341 261.692453 
L 425.183751 259.751321 
L 425.675162 259.751321 
L 426.166573 261.692453 
L 426.657984 260.721887 
L 427.149395 261.692453 
L 428.132217 265.574717 
L 428.623628 261.692453 
L 429.115038 261.692453 
L 429.606449 262.663019 
L 430.09786 264.604151 
L 430.589271 264.604151 
L 431.080682 265.574717 
L 431.080682 265.574717 
" clip-path="url(#p952b15b1b1)" style="fill: none; stroke-dasharray: 1.85,0.8; stroke-dashoffset: 0; stroke: #8000ff; stroke-width: 0.5"/>
   </g>
   <g id="line2d_16">
    <path d="M 52.694318 291.78 
L 114.120676 291.78 
L 114.612087 290.809434 
L 126.405947 290.809434 
L 126.897358 289.838868 
L 128.863002 289.838868 
L 129.354413 290.809434 
L 132.302878 290.809434 
L 132.794289 289.838868 
L 133.77711 289.838868 
L 134.268521 288.868302 
L 136.234165 288.868302 
L 137.216986 286.92717 
L 140.165452 286.92717 
L 141.148273 284.986038 
L 141.639684 285.956604 
L 142.131095 284.986038 
L 143.113917 284.986038 
L 143.605328 284.015472 
L 144.588149 284.015472 
L 145.570971 280.133208 
L 146.062382 280.133208 
L 148.519436 275.280377 
L 150.976491 275.280377 
L 151.959312 277.221509 
L 152.450723 276.250943 
L 153.924956 276.250943 
L 154.416367 274.309811 
L 154.907777 274.309811 
L 155.399188 275.280377 
L 156.873421 275.280377 
L 157.364832 273.339245 
L 157.856243 273.339245 
L 158.347653 271.398113 
L 159.330475 271.398113 
L 160.313297 275.280377 
L 160.804708 275.280377 
L 161.78753 277.221509 
L 162.27894 277.221509 
L 162.770351 276.250943 
L 163.261762 277.221509 
L 163.753173 277.221509 
L 164.244584 274.309811 
L 164.735995 273.339245 
L 165.718816 273.339245 
L 166.210227 270.427547 
L 166.701638 269.456981 
L 167.193049 270.427547 
L 168.175871 270.427547 
L 168.667282 268.486415 
L 169.158692 269.456981 
L 169.650103 267.515849 
L 170.141514 263.633585 
L 170.632925 262.663019 
L 171.124336 259.751321 
L 171.615747 260.721887 
L 172.107158 260.721887 
L 172.598568 259.751321 
L 173.089979 261.692453 
L 174.072801 261.692453 
L 174.564212 260.721887 
L 175.055623 257.810189 
L 176.529855 254.898491 
L 177.021266 255.869057 
L 178.004088 255.869057 
L 178.495499 253.927925 
L 178.98691 256.839623 
L 179.478321 257.810189 
L 180.461142 255.869057 
L 180.952553 258.780755 
L 181.443964 254.898491 
L 182.426786 251.016226 
L 182.918197 250.04566 
L 183.409607 251.986792 
L 183.901018 251.016226 
L 184.392429 249.075094 
L 184.88384 252.957358 
L 185.375251 253.927925 
L 185.866662 252.957358 
L 186.358073 249.075094 
L 186.849483 246.163396 
L 187.832305 248.104528 
L 188.815127 242.281132 
L 189.797949 244.222264 
L 190.78077 244.222264 
L 191.272181 243.251698 
L 191.763592 244.222264 
L 192.255003 246.163396 
L 192.746414 245.19283 
L 193.237825 246.163396 
L 193.729236 246.163396 
L 194.220646 245.19283 
L 194.712057 245.19283 
L 195.203468 244.222264 
L 195.694879 244.222264 
L 196.18629 247.133962 
L 197.169112 249.075094 
L 197.660522 247.133962 
L 198.151933 246.163396 
L 198.643344 248.104528 
L 199.134755 248.104528 
L 199.626166 247.133962 
L 200.117577 244.222264 
L 200.608988 246.163396 
L 201.100398 245.19283 
L 201.591809 248.104528 
L 202.08322 246.163396 
L 202.574631 245.19283 
L 203.066042 246.163396 
L 203.557453 246.163396 
L 204.540274 244.222264 
L 205.031685 244.222264 
L 205.523096 242.281132 
L 206.014507 241.310566 
L 206.505918 241.310566 
L 206.997329 240.34 
L 207.48874 241.310566 
L 207.980151 243.251698 
L 208.471561 243.251698 
L 208.962972 244.222264 
L 209.454383 244.222264 
L 209.945794 246.163396 
L 210.437205 243.251698 
L 210.928616 244.222264 
L 211.420027 242.281132 
L 211.911437 239.369434 
L 212.402848 237.428302 
L 212.894259 233.546038 
L 213.38567 232.575472 
L 214.368492 232.575472 
L 215.351313 236.457736 
L 216.334135 238.398868 
L 216.825546 240.34 
L 217.316957 236.457736 
L 217.808368 233.546038 
L 218.299779 234.516604 
L 218.791189 232.575472 
L 220.265422 229.663774 
L 220.756833 231.604906 
L 221.248244 229.663774 
L 221.739655 226.752075 
L 222.231066 224.810943 
L 222.722476 219.958113 
L 223.213887 219.958113 
L 223.705298 218.987547 
L 224.196709 216.075849 
L 224.68812 214.134717 
L 225.179531 214.134717 
L 225.670942 212.193585 
L 226.653763 214.134717 
L 227.145174 218.987547 
L 228.127996 220.928679 
L 229.602228 220.928679 
L 230.093639 217.046415 
L 230.58505 218.987547 
L 231.076461 218.987547 
L 231.567872 214.134717 
L 232.059283 214.134717 
L 232.550694 215.105283 
L 233.042104 213.164151 
L 233.533515 213.164151 
L 234.516337 215.105283 
L 235.007748 218.016981 
L 235.99057 216.075849 
L 236.481981 218.016981 
L 236.973391 218.016981 
L 237.464802 221.899245 
L 237.956213 218.016981 
L 238.447624 212.193585 
L 238.939035 215.105283 
L 239.430446 215.105283 
L 239.921857 213.164151 
L 241.396089 213.164151 
L 241.8875 209.281887 
L 242.378911 211.223019 
L 242.870322 210.252453 
L 243.361733 211.223019 
L 243.853143 208.311321 
L 244.835965 206.370189 
L 245.818787 202.487925 
L 246.310198 202.487925 
L 246.801609 204.429057 
L 247.293019 203.458491 
L 247.78443 204.429057 
L 248.275841 202.487925 
L 248.767252 203.458491 
L 249.258663 199.576226 
L 249.750074 199.576226 
L 250.241485 200.546792 
L 250.732896 200.546792 
L 251.224306 197.635094 
L 251.715717 193.75283 
L 252.207128 191.811698 
L 252.698539 193.75283 
L 253.18995 199.576226 
L 253.681361 195.693962 
L 254.172772 194.723396 
L 254.664182 197.635094 
L 255.155593 195.693962 
L 255.647004 191.811698 
L 256.629826 189.870566 
L 257.121237 189.870566 
L 257.612648 186.958868 
L 258.104058 183.076604 
L 258.595469 183.076604 
L 259.08688 184.04717 
L 259.578291 187.929434 
L 260.069702 188.9 
L 260.561113 187.929434 
L 261.052524 190.841132 
L 261.543934 191.811698 
L 262.035345 191.811698 
L 262.526756 193.75283 
L 263.018167 194.723396 
L 263.509578 191.811698 
L 264.000989 189.870566 
L 264.4924 188.9 
L 264.983811 188.9 
L 265.475221 189.870566 
L 265.966632 191.811698 
L 266.458043 195.693962 
L 267.440865 193.75283 
L 267.932276 191.811698 
L 268.423687 192.782264 
L 268.915097 194.723396 
L 269.406508 192.782264 
L 269.897919 196.664528 
L 270.880741 202.487925 
L 271.372152 204.429057 
L 271.863563 204.429057 
L 272.354973 206.370189 
L 272.846384 209.281887 
L 273.337795 209.281887 
L 273.829206 207.340755 
L 274.320617 207.340755 
L 274.812028 205.399623 
L 275.303439 209.281887 
L 275.794849 210.252453 
L 276.28626 209.281887 
L 276.777671 212.193585 
L 278.251904 212.193585 
L 278.743315 216.075849 
L 279.726136 212.193585 
L 280.217547 211.223019 
L 280.708958 213.164151 
L 281.200369 213.164151 
L 281.69178 217.046415 
L 282.183191 216.075849 
L 282.674602 214.134717 
L 283.166012 211.223019 
L 283.657423 211.223019 
L 285.131656 214.134717 
L 285.623067 209.281887 
L 286.114478 208.311321 
L 286.605888 205.399623 
L 287.097299 198.60566 
L 287.58871 200.546792 
L 288.080121 201.517358 
L 289.062943 199.576226 
L 289.554354 203.458491 
L 290.045764 201.517358 
L 290.537175 201.517358 
L 291.028586 200.546792 
L 291.519997 201.517358 
L 292.011408 201.517358 
L 292.502819 200.546792 
L 292.99423 201.517358 
L 293.48564 203.458491 
L 293.977051 201.517358 
L 294.468462 201.517358 
L 294.959873 202.487925 
L 295.451284 201.517358 
L 296.434106 195.693962 
L 296.925517 197.635094 
L 297.416927 200.546792 
L 297.908338 204.429057 
L 298.399749 204.429057 
L 298.89116 203.458491 
L 299.873982 197.635094 
L 300.365393 202.487925 
L 300.856803 204.429057 
L 301.348214 209.281887 
L 301.839625 217.046415 
L 302.331036 218.016981 
L 302.822447 219.958113 
L 303.313858 219.958113 
L 303.805269 221.899245 
L 304.296679 218.987547 
L 304.78809 218.016981 
L 305.279501 215.105283 
L 306.262323 211.223019 
L 306.753734 210.252453 
L 307.245145 212.193585 
L 307.736555 216.075849 
L 308.227966 215.105283 
L 308.719377 215.105283 
L 309.210788 216.075849 
L 310.19361 214.134717 
L 310.685021 217.046415 
L 311.176432 218.016981 
L 311.667842 218.016981 
L 312.159253 219.958113 
L 312.650664 219.958113 
L 313.142075 218.016981 
L 313.633486 219.958113 
L 314.124897 218.987547 
L 314.616308 221.899245 
L 315.107718 221.899245 
L 315.599129 222.869811 
L 316.09054 218.987547 
L 317.073362 217.046415 
L 317.564773 215.105283 
L 318.056184 218.987547 
L 318.547594 216.075849 
L 319.039005 216.075849 
L 319.530416 217.046415 
L 320.021827 215.105283 
L 320.513238 219.958113 
L 321.004649 219.958113 
L 321.49606 218.987547 
L 321.98747 221.899245 
L 322.478881 220.928679 
L 322.970292 222.869811 
L 323.461703 223.840377 
L 323.953114 222.869811 
L 324.444525 220.928679 
L 324.935936 219.958113 
L 325.427347 218.016981 
L 325.918757 218.016981 
L 326.410168 218.987547 
L 326.901579 214.134717 
L 327.39299 215.105283 
L 327.884401 217.046415 
L 328.375812 216.075849 
L 328.867223 218.016981 
L 329.358633 218.016981 
L 330.341455 216.075849 
L 330.832866 218.987547 
L 331.324277 218.987547 
L 331.815688 214.134717 
L 332.307099 217.046415 
L 332.798509 216.075849 
L 333.28992 218.016981 
L 334.272742 219.958113 
L 334.764153 223.840377 
L 335.255564 218.987547 
L 335.746975 219.958113 
L 336.238385 221.899245 
L 337.712618 218.987547 
L 338.204029 221.899245 
L 339.186851 225.781509 
L 339.678262 224.810943 
L 340.661083 228.693208 
L 341.152494 227.722642 
L 341.643905 229.663774 
L 342.135316 230.63434 
L 342.626727 229.663774 
L 343.118138 232.575472 
L 343.609548 232.575472 
L 344.100959 231.604906 
L 344.59237 231.604906 
L 345.083781 232.575472 
L 345.575192 232.575472 
L 346.066603 231.604906 
L 346.558014 236.457736 
L 347.540835 230.63434 
L 348.032246 231.604906 
L 348.523657 233.546038 
L 349.015068 230.63434 
L 349.506479 230.63434 
L 349.99789 236.457736 
L 350.4893 238.398868 
L 350.980711 236.457736 
L 351.472122 237.428302 
L 351.963533 239.369434 
L 352.454944 239.369434 
L 352.946355 237.428302 
L 353.437766 237.428302 
L 353.929177 238.398868 
L 354.420587 241.310566 
L 355.403409 241.310566 
L 356.386231 243.251698 
L 356.877642 243.251698 
L 357.369053 242.281132 
L 357.860463 242.281132 
L 358.843285 244.222264 
L 359.334696 244.222264 
L 360.317518 242.281132 
L 360.808929 245.19283 
L 361.300339 246.163396 
L 362.283161 250.04566 
L 362.774572 246.163396 
L 363.265983 246.163396 
L 364.248805 248.104528 
L 364.740215 247.133962 
L 365.231626 242.281132 
L 365.723037 244.222264 
L 366.214448 242.281132 
L 366.705859 242.281132 
L 367.19727 243.251698 
L 367.688681 247.133962 
L 368.671502 245.19283 
L 369.162913 246.163396 
L 369.654324 244.222264 
L 370.145735 238.398868 
L 370.637146 237.428302 
L 371.128557 235.48717 
L 371.619968 234.516604 
L 372.111378 236.457736 
L 372.602789 233.546038 
L 373.0942 232.575472 
L 373.585611 232.575472 
L 375.551254 228.693208 
L 377.025487 228.693208 
L 377.516898 232.575472 
L 378.008309 229.663774 
L 378.49972 231.604906 
L 378.99113 232.575472 
L 379.482541 231.604906 
L 379.973952 232.575472 
L 380.956774 232.575472 
L 381.939596 228.693208 
L 382.431006 225.781509 
L 382.922417 224.810943 
L 383.413828 225.781509 
L 383.905239 224.810943 
L 384.39665 226.752075 
L 384.888061 231.604906 
L 385.379472 231.604906 
L 386.362293 233.546038 
L 386.853704 230.63434 
L 387.345115 233.546038 
L 387.836526 231.604906 
L 388.327937 230.63434 
L 388.819348 232.575472 
L 389.310759 232.575472 
L 390.29358 234.516604 
L 390.784991 233.546038 
L 391.276402 233.546038 
L 391.767813 235.48717 
L 392.259224 233.546038 
L 392.750635 235.48717 
L 393.242045 232.575472 
L 393.733456 230.63434 
L 394.716278 232.575472 
L 395.6991 232.575472 
L 396.190511 234.516604 
L 396.681921 234.516604 
L 397.173332 236.457736 
L 398.156154 234.516604 
L 399.138976 234.516604 
L 399.630387 233.546038 
L 400.121798 235.48717 
L 400.613208 238.398868 
L 401.104619 238.398868 
L 401.59603 242.281132 
L 402.087441 242.281132 
L 402.578852 245.19283 
L 403.070263 247.133962 
L 403.561674 248.104528 
L 404.053084 250.04566 
L 404.544495 250.04566 
L 405.035906 249.075094 
L 405.527317 250.04566 
L 407.00155 250.04566 
L 407.984371 253.927925 
L 408.475782 254.898491 
L 408.967193 254.898491 
L 409.458604 256.839623 
L 409.950015 254.898491 
L 410.441426 255.869057 
L 410.932836 254.898491 
L 411.424247 255.869057 
L 411.915658 254.898491 
L 412.407069 257.810189 
L 412.89848 259.751321 
L 413.389891 258.780755 
L 414.372713 260.721887 
L 414.864123 258.780755 
L 415.846945 252.957358 
L 416.338356 251.016226 
L 416.829767 250.04566 
L 417.812589 250.04566 
L 418.303999 248.104528 
L 418.79541 245.19283 
L 419.286821 246.163396 
L 419.778232 245.19283 
L 420.761054 245.19283 
L 421.252465 243.251698 
L 421.743875 245.19283 
L 422.235286 242.281132 
L 423.218108 244.222264 
L 423.709519 242.281132 
L 424.20093 243.251698 
L 424.692341 245.19283 
L 426.166573 242.281132 
L 426.657984 243.251698 
L 427.640806 241.310566 
L 428.132217 242.281132 
L 428.623628 241.310566 
L 429.115038 241.310566 
L 429.606449 243.251698 
L 430.09786 243.251698 
L 430.589271 245.19283 
L 431.080682 245.19283 
L 431.080682 245.19283 
" clip-path="url(#p952b15b1b1)" style="fill: none; stroke-dasharray: 1.85,0.8; stroke-dashoffset: 0; stroke: #00b5eb; stroke-width: 0.5"/>
   </g>
   <g id="line2d_17">
    <path d="M 52.694318 291.78 
L 122.474661 291.78 
L 122.966071 290.809434 
L 137.216986 290.809434 
L 137.708397 291.78 
L 142.131095 291.78 
L 142.622506 290.809434 
L 147.536615 290.809434 
L 149.993669 285.956604 
L 151.467901 285.956604 
L 151.959312 284.015472 
L 154.416367 284.015472 
L 154.907777 282.07434 
L 156.38201 282.07434 
L 156.873421 281.103774 
L 157.364832 282.07434 
L 157.856243 282.07434 
L 158.839064 280.133208 
L 160.313297 280.133208 
L 160.804708 278.192075 
L 161.296119 277.221509 
L 162.27894 277.221509 
L 162.770351 276.250943 
L 163.753173 278.192075 
L 166.210227 278.192075 
L 166.701638 279.162642 
L 167.193049 278.192075 
L 169.158692 278.192075 
L 169.650103 279.162642 
L 172.107158 279.162642 
L 172.598568 277.221509 
L 173.089979 278.192075 
L 173.58139 278.192075 
L 174.564212 274.309811 
L 176.529855 274.309811 
L 177.021266 272.368679 
L 177.512677 274.309811 
L 178.004088 273.339245 
L 178.98691 269.456981 
L 179.478321 270.427547 
L 179.969731 268.486415 
L 180.461142 267.515849 
L 180.952553 267.515849 
L 181.443964 268.486415 
L 181.935375 267.515849 
L 182.426786 267.515849 
L 182.918197 265.574717 
L 184.392429 265.574717 
L 184.88384 263.633585 
L 185.375251 263.633585 
L 185.866662 260.721887 
L 186.358073 260.721887 
L 186.849483 258.780755 
L 187.340894 259.751321 
L 187.832305 258.780755 
L 188.323716 259.751321 
L 188.815127 261.692453 
L 189.306538 260.721887 
L 189.797949 257.810189 
L 190.28936 258.780755 
L 190.78077 258.780755 
L 191.272181 257.810189 
L 191.763592 258.780755 
L 192.255003 258.780755 
L 192.746414 259.751321 
L 193.237825 258.780755 
L 193.729236 259.751321 
L 194.220646 259.751321 
L 194.712057 260.721887 
L 195.203468 258.780755 
L 195.694879 257.810189 
L 196.18629 254.898491 
L 196.677701 253.927925 
L 197.169112 251.986792 
L 197.660522 251.986792 
L 198.151933 248.104528 
L 199.134755 244.222264 
L 199.626166 244.222264 
L 200.117577 242.281132 
L 200.608988 242.281132 
L 201.100398 240.34 
L 201.591809 241.310566 
L 202.08322 241.310566 
L 202.574631 239.369434 
L 203.066042 238.398868 
L 203.557453 236.457736 
L 204.540274 240.34 
L 205.031685 239.369434 
L 205.523096 240.34 
L 206.505918 240.34 
L 206.997329 238.398868 
L 207.48874 237.428302 
L 207.980151 237.428302 
L 209.454383 234.516604 
L 209.945794 235.48717 
L 210.437205 233.546038 
L 210.928616 236.457736 
L 211.911437 238.398868 
L 212.402848 238.398868 
L 212.894259 242.281132 
L 213.38567 243.251698 
L 214.368492 247.133962 
L 214.859903 245.19283 
L 215.351313 248.104528 
L 215.842724 249.075094 
L 216.334135 248.104528 
L 216.825546 246.163396 
L 217.316957 248.104528 
L 217.808368 248.104528 
L 218.299779 246.163396 
L 218.791189 243.251698 
L 219.2826 241.310566 
L 219.774011 242.281132 
L 220.265422 238.398868 
L 221.248244 238.398868 
L 222.231066 240.34 
L 222.722476 242.281132 
L 223.213887 241.310566 
L 223.705298 238.398868 
L 225.179531 241.310566 
L 225.670942 238.398868 
L 226.162352 238.398868 
L 226.653763 234.516604 
L 227.145174 234.516604 
L 228.127996 232.575472 
L 228.619407 232.575472 
L 229.110818 231.604906 
L 229.602228 234.516604 
L 230.093639 231.604906 
L 230.58505 233.546038 
L 231.076461 232.575472 
L 231.567872 234.516604 
L 232.059283 233.546038 
L 232.550694 229.663774 
L 233.042104 232.575472 
L 233.533515 232.575472 
L 234.024926 231.604906 
L 234.516337 231.604906 
L 235.007748 233.546038 
L 235.99057 231.604906 
L 236.481981 229.663774 
L 236.973391 222.869811 
L 237.464802 220.928679 
L 237.956213 219.958113 
L 238.939035 219.958113 
L 239.921857 216.075849 
L 240.413267 217.046415 
L 240.904678 214.134717 
L 241.396089 217.046415 
L 241.8875 216.075849 
L 242.378911 212.193585 
L 243.361733 212.193585 
L 243.853143 211.223019 
L 244.344554 208.311321 
L 244.835965 209.281887 
L 245.818787 209.281887 
L 246.310198 204.429057 
L 246.801609 206.370189 
L 247.293019 209.281887 
L 247.78443 206.370189 
L 248.275841 208.311321 
L 248.767252 209.281887 
L 249.258663 206.370189 
L 250.241485 204.429057 
L 250.732896 201.517358 
L 251.224306 201.517358 
L 251.715717 206.370189 
L 252.207128 209.281887 
L 252.698539 214.134717 
L 253.18995 211.223019 
L 253.681361 211.223019 
L 254.172772 210.252453 
L 254.664182 212.193585 
L 255.155593 213.164151 
L 255.647004 216.075849 
L 256.138415 215.105283 
L 257.121237 218.987547 
L 257.612648 217.046415 
L 258.104058 217.046415 
L 258.595469 211.223019 
L 259.08688 210.252453 
L 259.578291 208.311321 
L 260.561113 202.487925 
L 261.052524 207.340755 
L 261.543934 202.487925 
L 263.018167 208.311321 
L 263.509578 208.311321 
L 264.000989 212.193585 
L 264.4924 211.223019 
L 264.983811 212.193585 
L 265.475221 215.105283 
L 265.966632 215.105283 
L 266.458043 214.134717 
L 266.949454 210.252453 
L 267.440865 207.340755 
L 267.932276 213.164151 
L 268.423687 212.193585 
L 268.915097 216.075849 
L 269.897919 216.075849 
L 270.38933 215.105283 
L 270.880741 215.105283 
L 271.372152 211.223019 
L 271.863563 211.223019 
L 272.846384 207.340755 
L 273.337795 210.252453 
L 273.829206 212.193585 
L 274.812028 208.311321 
L 275.303439 211.223019 
L 275.794849 209.281887 
L 276.28626 210.252453 
L 276.777671 199.576226 
L 277.269082 199.576226 
L 277.760493 195.693962 
L 278.251904 188.9 
L 278.743315 185.988302 
L 279.234726 185.988302 
L 279.726136 184.04717 
L 280.217547 181.135472 
L 280.708958 179.19434 
L 281.200369 175.312075 
L 281.69178 176.282642 
L 283.166012 164.635849 
L 284.148834 160.753585 
L 284.640245 161.724151 
L 285.131656 164.635849 
L 285.623067 160.753585 
L 286.114478 165.606415 
L 287.097299 167.547547 
L 287.58871 167.547547 
L 288.080121 166.576981 
L 288.571532 163.665283 
L 289.554354 169.488679 
L 290.045764 169.488679 
L 290.537175 164.635849 
L 291.028586 163.665283 
L 291.519997 166.576981 
L 292.011408 165.606415 
L 292.502819 166.576981 
L 292.99423 174.341509 
L 293.48564 170.459245 
L 293.977051 169.488679 
L 294.468462 167.547547 
L 294.959873 170.459245 
L 295.451284 171.429811 
L 295.942695 176.282642 
L 296.434106 174.341509 
L 296.925517 179.19434 
L 297.416927 179.19434 
L 297.908338 185.017736 
L 298.399749 180.164906 
L 298.89116 182.106038 
L 299.382571 176.282642 
L 299.873982 162.694717 
L 300.365393 164.635849 
L 300.856803 161.724151 
L 301.348214 161.724151 
L 301.839625 166.576981 
L 302.822447 170.459245 
L 303.313858 173.370943 
L 303.805269 175.312075 
L 304.296679 175.312075 
L 304.78809 174.341509 
L 305.279501 178.223774 
L 306.262323 182.106038 
L 306.753734 179.19434 
L 307.245145 181.135472 
L 307.736555 178.223774 
L 308.227966 180.164906 
L 308.719377 179.19434 
L 309.210788 184.04717 
L 309.702199 180.164906 
L 310.685021 178.223774 
L 311.176432 181.135472 
L 311.667842 177.253208 
L 312.159253 180.164906 
L 312.650664 175.312075 
L 313.142075 172.400377 
L 313.633486 163.665283 
L 314.124897 163.665283 
L 314.616308 171.429811 
L 315.107718 174.341509 
L 315.599129 173.370943 
L 316.09054 168.518113 
L 316.581951 168.518113 
L 317.073362 165.606415 
L 317.564773 163.665283 
L 318.056184 163.665283 
L 319.039005 159.783019 
L 319.530416 162.694717 
L 320.513238 164.635849 
L 321.49606 176.282642 
L 321.98747 171.429811 
L 322.478881 169.488679 
L 323.461703 179.19434 
L 323.953114 178.223774 
L 324.444525 182.106038 
L 325.427347 171.429811 
L 325.918757 171.429811 
L 326.410168 173.370943 
L 326.901579 173.370943 
L 327.39299 176.282642 
L 327.884401 178.223774 
L 328.375812 185.017736 
L 328.867223 186.958868 
L 329.358633 190.841132 
L 329.850044 188.9 
L 330.341455 192.782264 
L 331.324277 192.782264 
L 331.815688 195.693962 
L 332.307099 199.576226 
L 332.798509 194.723396 
L 333.28992 193.75283 
L 333.781331 195.693962 
L 334.764153 195.693962 
L 335.255564 189.870566 
L 336.238385 182.106038 
L 336.729796 185.017736 
L 337.221207 185.017736 
L 337.712618 179.19434 
L 338.204029 176.282642 
L 338.69544 174.341509 
L 339.186851 176.282642 
L 339.678262 184.04717 
L 340.169672 188.9 
L 341.643905 188.9 
L 342.135316 185.017736 
L 342.626727 189.870566 
L 343.118138 187.929434 
L 343.609548 185.017736 
L 344.100959 185.017736 
L 344.59237 184.04717 
L 345.083781 180.164906 
L 345.575192 184.04717 
L 346.066603 174.341509 
L 346.558014 173.370943 
L 347.049424 170.459245 
L 347.540835 169.488679 
L 348.032246 169.488679 
L 348.523657 171.429811 
L 349.015068 168.518113 
L 349.506479 164.635849 
L 349.99789 167.547547 
L 350.4893 171.429811 
L 350.980711 170.459245 
L 351.472122 166.576981 
L 352.454944 179.19434 
L 352.946355 177.253208 
L 353.437766 178.223774 
L 353.929177 172.400377 
L 354.420587 170.459245 
L 354.911998 164.635849 
L 355.403409 161.724151 
L 356.386231 161.724151 
L 356.877642 164.635849 
L 357.369053 165.606415 
L 357.860463 167.547547 
L 358.351874 173.370943 
L 359.334696 169.488679 
L 360.317518 171.429811 
L 360.808929 177.253208 
L 361.300339 176.282642 
L 361.79175 176.282642 
L 362.774572 178.223774 
L 363.265983 171.429811 
L 363.757394 166.576981 
L 364.248805 164.635849 
L 364.740215 166.576981 
L 365.231626 162.694717 
L 366.214448 173.370943 
L 366.705859 168.518113 
L 367.19727 166.576981 
L 367.688681 168.518113 
L 368.180091 171.429811 
L 368.671502 175.312075 
L 369.162913 173.370943 
L 369.654324 180.164906 
L 370.145735 179.19434 
L 370.637146 181.135472 
L 371.128557 178.223774 
L 371.619968 174.341509 
L 372.111378 171.429811 
L 372.602789 171.429811 
L 373.0942 172.400377 
L 373.585611 174.341509 
L 374.077022 177.253208 
L 374.568433 170.459245 
L 375.059844 168.518113 
L 375.551254 164.635849 
L 376.534076 166.576981 
L 377.516898 170.459245 
L 378.008309 177.253208 
L 378.49972 185.988302 
L 378.99113 190.841132 
L 379.482541 188.9 
L 379.973952 190.841132 
L 380.465363 186.958868 
L 380.956774 182.106038 
L 381.448185 183.076604 
L 381.939596 183.076604 
L 382.431006 182.106038 
L 382.922417 176.282642 
L 383.413828 174.341509 
L 383.905239 179.19434 
L 384.39665 180.164906 
L 384.888061 179.19434 
L 385.379472 181.135472 
L 385.870883 185.017736 
L 386.853704 190.841132 
L 387.345115 192.782264 
L 388.327937 188.9 
L 388.819348 185.017736 
L 389.310759 189.870566 
L 389.802169 189.870566 
L 390.29358 195.693962 
L 390.784991 193.75283 
L 391.276402 193.75283 
L 391.767813 199.576226 
L 392.259224 196.664528 
L 392.750635 187.929434 
L 393.242045 187.929434 
L 393.733456 188.9 
L 394.224867 188.9 
L 394.716278 185.017736 
L 395.207689 187.929434 
L 395.6991 185.988302 
L 396.190511 187.929434 
L 397.664743 185.017736 
L 398.156154 186.958868 
L 398.647565 181.135472 
L 399.138976 181.135472 
L 399.630387 185.988302 
L 400.121798 180.164906 
L 400.613208 181.135472 
L 401.59603 185.017736 
L 402.087441 181.135472 
L 402.578852 179.19434 
L 403.070263 182.106038 
L 403.561674 184.04717 
L 404.053084 188.9 
L 404.544495 182.106038 
L 405.035906 180.164906 
L 405.527317 182.106038 
L 406.018728 182.106038 
L 406.510139 178.223774 
L 407.00155 178.223774 
L 407.49296 186.958868 
L 407.984371 183.076604 
L 408.475782 180.164906 
L 408.967193 185.017736 
L 409.458604 186.958868 
L 409.950015 185.017736 
L 410.441426 191.811698 
L 410.932836 193.75283 
L 411.424247 191.811698 
L 411.915658 195.693962 
L 412.407069 201.517358 
L 412.89848 197.635094 
L 413.389891 204.429057 
L 413.881302 203.458491 
L 414.372713 201.517358 
L 414.864123 207.340755 
L 415.355534 205.399623 
L 415.846945 206.370189 
L 416.338356 197.635094 
L 417.321178 205.399623 
L 417.812589 204.429057 
L 418.303999 208.311321 
L 418.79541 201.517358 
L 419.286821 210.252453 
L 420.761054 210.252453 
L 421.252465 212.193585 
L 421.743875 211.223019 
L 422.235286 207.340755 
L 422.726697 211.223019 
L 423.218108 214.134717 
L 423.709519 212.193585 
L 424.20093 216.075849 
L 424.692341 212.193585 
L 425.183751 213.164151 
L 425.675162 205.399623 
L 426.166573 206.370189 
L 426.657984 208.311321 
L 427.149395 209.281887 
L 427.640806 214.134717 
L 428.132217 212.193585 
L 428.623628 211.223019 
L 429.115038 214.134717 
L 429.606449 209.281887 
L 430.09786 211.223019 
L 430.589271 208.311321 
L 431.080682 215.105283 
L 431.080682 215.105283 
" clip-path="url(#p952b15b1b1)" style="fill: none; stroke-dasharray: 1.85,0.8; stroke-dashoffset: 0; stroke: #80ffb4; stroke-width: 0.5"/>
   </g>
   <g id="line2d_18">
    <path d="M 52.694318 291.78 
L 141.148273 291.78 
L 141.639684 290.809434 
L 150.976491 290.809434 
L 151.467901 289.838868 
L 153.433545 289.838868 
L 154.416367 287.897736 
L 155.399188 287.897736 
L 155.890599 285.956604 
L 156.38201 286.92717 
L 156.873421 286.92717 
L 157.364832 285.956604 
L 157.856243 285.956604 
L 158.839064 284.015472 
L 163.261762 284.015472 
L 163.753173 281.103774 
L 165.718816 281.103774 
L 166.210227 282.07434 
L 166.701638 282.07434 
L 167.193049 281.103774 
L 168.175871 281.103774 
L 169.158692 283.044906 
L 170.141514 283.044906 
L 170.632925 284.986038 
L 171.124336 284.015472 
L 171.615747 282.07434 
L 172.107158 283.044906 
L 172.598568 282.07434 
L 173.58139 284.015472 
L 174.564212 284.015472 
L 175.055623 281.103774 
L 175.547034 280.133208 
L 176.038445 280.133208 
L 176.529855 279.162642 
L 177.512677 279.162642 
L 178.004088 278.192075 
L 178.495499 280.133208 
L 179.478321 280.133208 
L 180.952553 277.221509 
L 181.443964 275.280377 
L 182.918197 275.280377 
L 184.392429 272.368679 
L 184.88384 270.427547 
L 185.866662 270.427547 
L 186.358073 272.368679 
L 186.849483 270.427547 
L 187.340894 271.398113 
L 188.323716 267.515849 
L 188.815127 267.515849 
L 189.306538 263.633585 
L 189.797949 262.663019 
L 190.28936 260.721887 
L 190.78077 260.721887 
L 191.272181 257.810189 
L 191.763592 252.957358 
L 192.255003 252.957358 
L 192.746414 250.04566 
L 193.237825 249.075094 
L 193.729236 249.075094 
L 194.712057 247.133962 
L 195.203468 244.222264 
L 195.694879 245.19283 
L 196.18629 245.19283 
L 196.677701 246.163396 
L 197.660522 242.281132 
L 198.151933 241.310566 
L 199.134755 233.546038 
L 199.626166 233.546038 
L 200.117577 231.604906 
L 200.608988 227.722642 
L 201.100398 224.810943 
L 201.591809 223.840377 
L 202.574631 216.075849 
L 203.066042 214.134717 
L 203.557453 208.311321 
L 204.048864 210.252453 
L 204.540274 210.252453 
L 205.031685 213.164151 
L 205.523096 207.340755 
L 206.014507 207.340755 
L 206.505918 210.252453 
L 206.997329 204.429057 
L 207.48874 202.487925 
L 208.471561 194.723396 
L 208.962972 195.693962 
L 209.454383 195.693962 
L 209.945794 199.576226 
L 210.437205 191.811698 
L 210.928616 193.75283 
L 211.420027 193.75283 
L 211.911437 191.811698 
L 212.402848 191.811698 
L 212.894259 189.870566 
L 213.38567 192.782264 
L 213.877081 197.635094 
L 214.368492 195.693962 
L 214.859903 195.693962 
L 216.334135 198.60566 
L 216.825546 197.635094 
L 217.316957 191.811698 
L 217.808368 193.75283 
L 219.2826 187.929434 
L 219.774011 182.106038 
L 220.265422 187.929434 
L 220.756833 185.988302 
L 221.248244 185.988302 
L 221.739655 189.870566 
L 222.231066 191.811698 
L 222.722476 197.635094 
L 223.213887 197.635094 
L 224.196709 193.75283 
L 224.68812 189.870566 
L 225.179531 193.75283 
L 225.670942 187.929434 
L 226.162352 184.04717 
L 226.653763 185.988302 
L 227.145174 180.164906 
L 227.636585 176.282642 
L 228.127996 170.459245 
L 228.619407 162.694717 
L 229.110818 164.635849 
L 229.602228 158.812453 
L 230.093639 156.871321 
L 230.58505 158.812453 
L 231.076461 151.047925 
L 231.567872 150.077358 
L 232.059283 161.724151 
L 232.550694 161.724151 
L 233.042104 165.606415 
L 233.533515 161.724151 
L 234.024926 161.724151 
L 234.516337 163.665283 
L 235.007748 163.665283 
L 235.499159 167.547547 
L 235.99057 169.488679 
L 236.481981 163.665283 
L 237.956213 152.018491 
L 238.447624 153.959623 
L 238.939035 152.018491 
L 239.430446 152.018491 
L 239.921857 150.077358 
L 240.904678 157.841887 
L 241.396089 155.900755 
L 243.361733 171.429811 
L 243.853143 165.606415 
L 244.344554 169.488679 
L 244.835965 170.459245 
L 245.327376 168.518113 
L 245.818787 172.400377 
L 246.310198 174.341509 
L 246.801609 174.341509 
L 247.293019 168.518113 
L 248.767252 174.341509 
L 249.750074 162.694717 
L 250.241485 162.694717 
L 250.732896 156.871321 
L 251.224306 162.694717 
L 251.715717 162.694717 
L 252.207128 166.576981 
L 252.698539 174.341509 
L 253.18995 172.400377 
L 254.172772 172.400377 
L 254.664182 176.282642 
L 255.155593 176.282642 
L 255.647004 172.400377 
L 256.138415 172.400377 
L 256.629826 174.341509 
L 257.612648 174.341509 
L 259.08688 180.164906 
L 259.578291 183.076604 
L 260.069702 183.076604 
L 260.561113 184.04717 
L 261.052524 180.164906 
L 261.543934 174.341509 
L 262.035345 178.223774 
L 262.526756 174.341509 
L 263.018167 176.282642 
L 263.509578 172.400377 
L 264.4924 176.282642 
L 264.983811 173.370943 
L 265.475221 175.312075 
L 265.966632 174.341509 
L 266.458043 174.341509 
L 266.949454 165.606415 
L 267.440865 159.783019 
L 267.932276 155.900755 
L 268.423687 156.871321 
L 269.406508 156.871321 
L 269.897919 154.930189 
L 270.38933 156.871321 
L 270.880741 160.753585 
L 271.372152 160.753585 
L 271.863563 157.841887 
L 272.354973 159.783019 
L 272.846384 157.841887 
L 273.829206 148.136226 
L 274.320617 146.195094 
L 274.812028 142.31283 
L 275.303439 142.31283 
L 275.794849 143.283396 
L 276.28626 142.31283 
L 276.777671 138.430566 
L 277.269082 144.253962 
L 277.760493 142.31283 
L 278.251904 143.283396 
L 278.743315 141.342264 
L 279.234726 143.283396 
L 279.726136 139.401132 
L 280.217547 138.430566 
L 280.708958 134.548302 
L 281.200369 134.548302 
L 281.69178 135.518868 
L 282.674602 129.695472 
L 283.166012 119.019245 
L 284.640245 104.460755 
L 285.131656 95.72566 
L 285.623067 93.784528 
L 286.114478 87.961132 
L 286.605888 86.990566 
L 287.097299 86.990566 
L 287.58871 90.87283 
L 288.080121 95.72566 
L 288.571532 98.637358 
L 289.062943 94.755094 
L 289.554354 98.637358 
L 290.045764 100.578491 
L 290.537175 105.431321 
L 291.028586 102.519623 
L 291.519997 105.431321 
L 292.99423 89.902264 
L 293.48564 99.607925 
L 293.977051 99.607925 
L 294.468462 104.460755 
L 294.959873 101.549057 
L 295.942695 103.490189 
L 296.434106 105.431321 
L 297.416927 117.078113 
L 297.908338 132.60717 
L 298.399749 139.401132 
L 298.89116 138.430566 
L 299.382571 139.401132 
L 299.873982 142.31283 
L 300.365393 139.401132 
L 300.856803 137.46 
L 301.348214 142.31283 
L 301.839625 139.401132 
L 302.331036 123.872075 
L 302.822447 125.813208 
L 303.313858 124.842642 
L 303.805269 129.695472 
L 304.296679 128.724906 
L 304.78809 124.842642 
L 305.279501 119.019245 
L 305.770912 116.107547 
L 306.262323 116.107547 
L 306.753734 117.078113 
L 307.736555 131.636604 
L 308.227966 120.960377 
L 308.719377 115.136981 
L 309.210788 119.019245 
L 309.702199 126.783774 
L 310.19361 130.666038 
L 310.685021 135.518868 
L 311.176432 128.724906 
L 311.667842 125.813208 
L 312.159253 126.783774 
L 313.142075 119.019245 
L 313.633486 124.842642 
L 314.124897 124.842642 
L 314.616308 123.872075 
L 315.107718 119.989811 
L 315.599129 123.872075 
L 316.09054 126.783774 
L 316.581951 128.724906 
L 317.073362 144.253962 
L 317.564773 142.31283 
L 318.056184 144.253962 
L 318.547594 135.518868 
L 319.039005 136.489434 
L 319.530416 136.489434 
L 320.021827 141.342264 
L 320.513238 152.018491 
L 321.004649 153.959623 
L 321.49606 157.841887 
L 321.98747 159.783019 
L 322.478881 164.635849 
L 322.970292 167.547547 
L 323.461703 167.547547 
L 323.953114 161.724151 
L 324.935936 161.724151 
L 325.427347 163.665283 
L 325.918757 171.429811 
L 326.410168 175.312075 
L 326.901579 171.429811 
L 327.39299 172.400377 
L 327.884401 167.547547 
L 328.375812 164.635849 
L 328.867223 167.547547 
L 329.358633 168.518113 
L 329.850044 174.341509 
L 330.341455 174.341509 
L 330.832866 169.488679 
L 331.324277 169.488679 
L 331.815688 160.753585 
L 332.307099 161.724151 
L 332.798509 156.871321 
L 333.28992 154.930189 
L 333.781331 142.31283 
L 334.272742 144.253962 
L 334.764153 145.224528 
L 335.255564 140.371698 
L 336.729796 117.078113 
L 337.221207 112.225283 
L 337.712618 118.048679 
L 338.204029 120.960377 
L 338.69544 126.783774 
L 339.186851 126.783774 
L 339.678262 123.872075 
L 340.169672 116.107547 
L 340.661083 118.048679 
L 341.152494 114.166415 
L 341.643905 115.136981 
L 342.135316 104.460755 
L 342.626727 115.136981 
L 343.118138 113.195849 
L 343.609548 110.284151 
L 344.100959 116.107547 
L 345.083781 108.343019 
L 345.575192 109.313585 
L 346.066603 107.372453 
L 346.558014 110.284151 
L 347.049424 110.284151 
L 347.540835 118.048679 
L 348.032246 122.901509 
L 348.523657 129.695472 
L 349.506479 127.75434 
L 349.99789 123.872075 
L 350.4893 128.724906 
L 350.980711 128.724906 
L 351.472122 127.75434 
L 351.963533 128.724906 
L 352.454944 124.842642 
L 352.946355 126.783774 
L 353.437766 123.872075 
L 353.929177 115.136981 
L 354.420587 114.166415 
L 354.911998 119.989811 
L 355.403409 120.960377 
L 355.89482 126.783774 
L 356.386231 122.901509 
L 356.877642 134.548302 
L 357.369053 134.548302 
L 357.860463 135.518868 
L 358.351874 143.283396 
L 358.843285 137.46 
L 359.334696 141.342264 
L 359.826107 148.136226 
L 360.317518 149.106792 
L 361.300339 154.930189 
L 361.79175 147.16566 
L 362.283161 141.342264 
L 363.265983 152.018491 
L 363.757394 146.195094 
L 364.248805 149.106792 
L 364.740215 153.959623 
L 365.231626 151.047925 
L 366.705859 159.783019 
L 367.19727 165.606415 
L 367.688681 165.606415 
L 368.180091 160.753585 
L 368.671502 164.635849 
L 369.162913 161.724151 
L 369.654324 152.989057 
L 370.145735 150.077358 
L 370.637146 145.224528 
L 371.128557 153.959623 
L 372.111378 148.136226 
L 372.602789 151.047925 
L 373.0942 143.283396 
L 373.585611 151.047925 
L 374.077022 151.047925 
L 374.568433 139.401132 
L 375.059844 134.548302 
L 375.551254 133.577736 
L 376.042665 130.666038 
L 376.534076 137.46 
L 377.025487 135.518868 
L 377.516898 138.430566 
L 378.008309 139.401132 
L 378.49972 149.106792 
L 378.99113 146.195094 
L 379.482541 150.077358 
L 379.973952 150.077358 
L 380.465363 147.16566 
L 380.956774 148.136226 
L 381.939596 128.724906 
L 382.431006 131.636604 
L 382.922417 130.666038 
L 383.413828 126.783774 
L 383.905239 129.695472 
L 384.39665 140.371698 
L 384.888061 142.31283 
L 385.379472 147.16566 
L 385.870883 144.253962 
L 386.362293 144.253962 
L 387.345115 146.195094 
L 387.836526 145.224528 
L 388.327937 145.224528 
L 388.819348 148.136226 
L 389.310759 157.841887 
L 389.802169 160.753585 
L 390.29358 154.930189 
L 390.784991 158.812453 
L 391.276402 161.724151 
L 391.767813 161.724151 
L 393.733456 143.283396 
L 394.716278 125.813208 
L 395.207689 133.577736 
L 395.6991 135.518868 
L 396.190511 136.489434 
L 396.681921 142.31283 
L 397.173332 136.489434 
L 397.664743 139.401132 
L 398.156154 145.224528 
L 398.647565 146.195094 
L 399.630387 130.666038 
L 400.121798 123.872075 
L 400.613208 121.930943 
L 401.104619 123.872075 
L 401.59603 117.078113 
L 402.087441 119.019245 
L 402.578852 121.930943 
L 403.070263 121.930943 
L 403.561674 119.019245 
L 404.053084 121.930943 
L 404.544495 121.930943 
L 405.035906 124.842642 
L 405.527317 115.136981 
L 406.018728 112.225283 
L 406.510139 115.136981 
L 407.00155 112.225283 
L 407.49296 111.254717 
L 407.984371 107.372453 
L 408.475782 115.136981 
L 408.967193 113.195849 
L 409.458604 124.842642 
L 410.441426 124.842642 
L 412.407069 144.253962 
L 412.89848 144.253962 
L 413.389891 133.577736 
L 413.881302 140.371698 
L 414.372713 144.253962 
L 414.864123 151.047925 
L 415.355534 150.077358 
L 415.846945 148.136226 
L 416.338356 156.871321 
L 417.321178 145.224528 
L 417.812589 142.31283 
L 418.303999 145.224528 
L 418.79541 147.16566 
L 419.778232 147.16566 
L 420.269643 153.959623 
L 420.761054 156.871321 
L 421.252465 155.900755 
L 422.235286 166.576981 
L 422.726697 175.312075 
L 423.218108 170.459245 
L 423.709519 183.076604 
L 424.20093 185.988302 
L 424.692341 180.164906 
L 425.183751 177.253208 
L 425.675162 183.076604 
L 426.166573 177.253208 
L 426.657984 174.341509 
L 427.149395 161.724151 
L 427.640806 164.635849 
L 428.132217 169.488679 
L 428.623628 165.606415 
L 429.115038 168.518113 
L 429.606449 168.518113 
L 430.09786 166.576981 
L 430.589271 168.518113 
L 431.080682 162.694717 
L 431.080682 162.694717 
" clip-path="url(#p952b15b1b1)" style="fill: none; stroke-dasharray: 1.85,0.8; stroke-dashoffset: 0; stroke: #ffb360; stroke-width: 0.5"/>
   </g>
   <g id="line2d_19">
    <path d="M 52.694318 291.78 
L 134.759932 291.78 
L 135.251343 290.809434 
L 149.502258 290.809434 
L 149.993669 291.78 
L 150.976491 291.78 
L 151.467901 290.809434 
L 151.959312 290.809434 
L 152.450723 289.838868 
L 157.364832 289.838868 
L 157.856243 288.868302 
L 162.27894 288.868302 
L 162.770351 287.897736 
L 164.735995 287.897736 
L 165.227406 286.92717 
L 165.718816 286.92717 
L 166.210227 287.897736 
L 166.701638 286.92717 
L 167.193049 287.897736 
L 168.175871 287.897736 
L 168.667282 286.92717 
L 169.158692 284.986038 
L 169.650103 284.986038 
L 170.141514 284.015472 
L 172.107158 284.015472 
L 172.598568 284.986038 
L 173.58139 283.044906 
L 175.055623 283.044906 
L 175.547034 282.07434 
L 176.038445 279.162642 
L 176.529855 279.162642 
L 177.021266 276.250943 
L 177.512677 277.221509 
L 178.004088 277.221509 
L 178.495499 275.280377 
L 179.478321 275.280377 
L 179.969731 276.250943 
L 180.952553 276.250943 
L 181.443964 277.221509 
L 181.935375 277.221509 
L 182.918197 275.280377 
L 183.409607 276.250943 
L 184.392429 276.250943 
L 184.88384 277.221509 
L 185.375251 274.309811 
L 186.358073 270.427547 
L 186.849483 269.456981 
L 187.340894 269.456981 
L 188.323716 271.398113 
L 189.306538 271.398113 
L 189.797949 269.456981 
L 190.28936 266.545283 
L 190.78077 269.456981 
L 191.272181 265.574717 
L 191.763592 267.515849 
L 192.255003 267.515849 
L 192.746414 265.574717 
L 193.237825 267.515849 
L 193.729236 261.692453 
L 194.220646 261.692453 
L 194.712057 258.780755 
L 195.203468 258.780755 
L 195.694879 257.810189 
L 196.18629 255.869057 
L 196.677701 251.986792 
L 197.169112 252.957358 
L 197.660522 251.986792 
L 198.151933 248.104528 
L 198.643344 247.133962 
L 199.134755 245.19283 
L 199.626166 241.310566 
L 200.117577 242.281132 
L 200.608988 242.281132 
L 201.100398 238.398868 
L 201.591809 232.575472 
L 202.08322 232.575472 
L 202.574631 226.752075 
L 203.066042 224.810943 
L 204.048864 224.810943 
L 204.540274 221.899245 
L 205.031685 223.840377 
L 206.014507 219.958113 
L 206.505918 216.075849 
L 206.997329 213.164151 
L 207.48874 212.193585 
L 207.980151 210.252453 
L 208.962972 199.576226 
L 209.454383 200.546792 
L 209.945794 200.546792 
L 210.437205 196.664528 
L 210.928616 198.60566 
L 211.420027 196.664528 
L 211.911437 193.75283 
L 212.402848 186.958868 
L 212.894259 190.841132 
L 213.38567 187.929434 
L 213.877081 187.929434 
L 214.368492 191.811698 
L 215.351313 195.693962 
L 215.842724 195.693962 
L 216.334135 202.487925 
L 216.825546 199.576226 
L 217.316957 203.458491 
L 217.808368 199.576226 
L 218.299779 197.635094 
L 218.791189 197.635094 
L 219.2826 199.576226 
L 220.265422 193.75283 
L 220.756833 196.664528 
L 221.248244 201.517358 
L 221.739655 201.517358 
L 222.231066 198.60566 
L 222.722476 197.635094 
L 223.213887 202.487925 
L 223.705298 202.487925 
L 224.196709 198.60566 
L 224.68812 186.958868 
L 225.179531 188.9 
L 225.670942 185.988302 
L 226.162352 191.811698 
L 226.653763 191.811698 
L 227.145174 200.546792 
L 228.127996 194.723396 
L 228.619407 190.841132 
L 229.602228 179.19434 
L 230.58505 161.724151 
L 231.567872 155.900755 
L 232.059283 152.018491 
L 232.550694 149.106792 
L 233.042104 145.224528 
L 234.024926 139.401132 
L 234.516337 141.342264 
L 235.007748 137.46 
L 235.499159 134.548302 
L 235.99057 123.872075 
L 236.481981 123.872075 
L 236.973391 126.783774 
L 237.464802 118.048679 
L 238.447624 106.401887 
L 239.430446 118.048679 
L 239.921857 120.960377 
L 240.413267 115.136981 
L 240.904678 106.401887 
L 241.396089 109.313585 
L 242.378911 103.490189 
L 242.870322 112.225283 
L 243.361733 115.136981 
L 244.344554 109.313585 
L 244.835965 112.225283 
L 245.327376 118.048679 
L 245.818787 115.136981 
L 246.310198 120.960377 
L 246.801609 118.048679 
L 247.78443 123.872075 
L 248.275841 115.136981 
L 248.767252 115.136981 
L 249.258663 112.225283 
L 250.241485 112.225283 
L 250.732896 122.901509 
L 251.715717 117.078113 
L 252.207128 117.078113 
L 252.698539 119.989811 
L 253.18995 131.636604 
L 253.681361 122.901509 
L 254.172772 125.813208 
L 254.664182 114.166415 
L 255.647004 119.989811 
L 256.138415 108.343019 
L 256.629826 105.431321 
L 257.121237 105.431321 
L 257.612648 93.784528 
L 258.104058 87.961132 
L 258.595469 85.049434 
L 259.08688 90.87283 
L 259.578291 93.784528 
L 260.069702 99.607925 
L 261.052524 93.784528 
L 261.543934 102.519623 
L 262.035345 102.519623 
L 262.526756 99.607925 
L 263.018167 102.519623 
L 263.509578 102.519623 
L 264.000989 96.696226 
L 264.4924 96.696226 
L 264.983811 99.607925 
L 265.475221 90.87283 
L 265.966632 90.87283 
L 266.458043 87.961132 
L 266.949454 92.813962 
L 267.440865 95.72566 
L 267.932276 86.990566 
L 268.915097 81.16717 
L 269.406508 81.16717 
L 269.897919 84.078868 
L 270.38933 84.078868 
L 270.880741 95.72566 
L 271.863563 95.72566 
L 273.337795 113.195849 
L 273.829206 110.284151 
L 274.320617 98.637358 
L 274.812028 92.813962 
L 275.303439 95.72566 
L 276.28626 78.255472 
L 276.777671 75.343774 
L 277.269082 74.373208 
L 277.760493 80.196604 
L 278.251904 74.373208 
L 278.743315 80.196604 
L 279.234726 83.108302 
L 279.726136 83.108302 
L 280.217547 88.931698 
L 280.708958 87.961132 
L 281.200369 87.961132 
L 281.69178 76.31434 
L 282.183191 67.579245 
L 282.674602 73.402642 
L 283.166012 75.343774 
L 283.657423 63.696981 
L 284.148834 65.638113 
L 285.131656 65.638113 
L 285.623067 59.814717 
L 286.114478 65.638113 
L 286.605888 65.638113 
L 287.097299 64.667547 
L 287.58871 57.873585 
L 288.080121 59.814717 
L 289.062943 71.461509 
L 289.554354 66.608679 
L 290.045764 68.549811 
L 290.537175 66.608679 
L 291.028586 75.343774 
L 291.519997 81.16717 
L 292.011408 85.049434 
L 292.502819 84.078868 
L 292.99423 95.72566 
L 293.48564 91.843396 
L 293.977051 97.666792 
L 294.468462 87.961132 
L 294.959873 82.137736 
L 295.451284 80.196604 
L 295.942695 83.108302 
L 296.925517 102.519623 
L 297.416927 98.637358 
L 297.908338 101.549057 
L 298.399749 116.107547 
L 298.89116 119.989811 
L 299.382571 114.166415 
L 299.873982 119.989811 
L 300.365393 119.989811 
L 300.856803 111.254717 
L 301.348214 111.254717 
L 301.839625 109.313585 
L 302.331036 110.284151 
L 302.822447 108.343019 
L 303.313858 104.460755 
L 303.805269 88.931698 
L 304.296679 102.519623 
L 304.78809 97.666792 
L 305.279501 111.254717 
L 305.770912 102.519623 
L 306.262323 105.431321 
L 306.753734 104.460755 
L 307.245145 108.343019 
L 307.736555 105.431321 
L 308.227966 101.549057 
L 308.719377 94.755094 
L 309.702199 113.195849 
L 310.19361 115.136981 
L 310.685021 107.372453 
L 311.176432 107.372453 
L 311.667842 110.284151 
L 312.159253 110.284151 
L 312.650664 117.078113 
L 313.142075 117.078113 
L 313.633486 122.901509 
L 314.124897 118.048679 
L 314.616308 115.136981 
L 315.107718 113.195849 
L 315.599129 115.136981 
L 316.581951 120.960377 
L 317.073362 129.695472 
L 317.564773 125.813208 
L 318.056184 126.783774 
L 318.547594 148.136226 
L 319.039005 141.342264 
L 319.530416 150.077358 
L 320.021827 144.253962 
L 320.513238 145.224528 
L 321.004649 145.224528 
L 321.49606 141.342264 
L 321.98747 129.695472 
L 322.478881 122.901509 
L 322.970292 132.60717 
L 323.953114 132.60717 
L 324.444525 124.842642 
L 324.935936 120.960377 
L 325.427347 128.724906 
L 325.918757 133.577736 
L 326.410168 133.577736 
L 326.901579 131.636604 
L 327.884401 107.372453 
L 328.375812 99.607925 
L 328.867223 106.401887 
L 329.358633 99.607925 
L 329.850044 96.696226 
L 330.341455 92.813962 
L 331.324277 80.196604 
L 331.815688 72.432075 
L 332.307099 82.137736 
L 332.798509 76.31434 
L 333.28992 79.226038 
L 333.781331 79.226038 
L 334.272742 69.520377 
L 335.255564 80.196604 
L 335.746975 76.31434 
L 336.238385 64.667547 
L 337.221207 80.196604 
L 338.204029 74.373208 
L 338.69544 54.961887 
L 339.186851 53.020755 
L 339.678262 56.903019 
L 340.169672 62.726415 
L 340.661083 65.638113 
L 341.152494 61.755849 
L 341.643905 63.696981 
L 342.135316 69.520377 
L 343.118138 77.284906 
L 344.100959 83.108302 
L 345.083781 96.696226 
L 345.575192 97.666792 
L 346.066603 103.490189 
L 346.558014 104.460755 
L 347.049424 101.549057 
L 347.540835 110.284151 
L 348.523657 97.666792 
L 349.015068 96.696226 
L 349.506479 92.813962 
L 349.99789 81.16717 
L 350.4893 81.16717 
L 350.980711 90.87283 
L 351.472122 77.284906 
L 351.963533 73.402642 
L 352.454944 74.373208 
L 352.946355 72.432075 
L 353.437766 84.078868 
L 353.929177 85.049434 
L 354.420587 85.049434 
L 355.403409 77.284906 
L 355.89482 74.373208 
L 356.386231 81.16717 
L 356.877642 85.049434 
L 357.369053 89.902264 
L 357.860463 90.87283 
L 358.351874 77.284906 
L 358.843285 84.078868 
L 359.334696 85.049434 
L 359.826107 73.402642 
L 360.317518 81.16717 
L 361.300339 63.696981 
L 361.79175 63.696981 
L 362.283161 59.814717 
L 363.265983 72.432075 
L 363.757394 61.755849 
L 364.248805 58.844151 
L 364.740215 66.608679 
L 365.231626 67.579245 
L 365.723037 69.520377 
L 366.214448 75.343774 
L 366.705859 74.373208 
L 367.19727 67.579245 
L 367.688681 79.226038 
L 368.180091 79.226038 
L 368.671502 84.078868 
L 369.162913 81.16717 
L 369.654324 70.490943 
L 370.145735 43.315094 
L 370.637146 53.020755 
L 371.128557 53.020755 
L 371.619968 48.167925 
L 372.111378 48.167925 
L 372.602789 51.079623 
L 373.0942 60.785283 
L 373.585611 51.079623 
L 374.077022 46.226792 
L 374.568433 57.873585 
L 375.059844 52.050189 
L 375.551254 64.667547 
L 376.042665 62.726415 
L 376.534076 65.638113 
L 377.025487 66.608679 
L 377.516898 59.814717 
L 378.008309 54.961887 
L 378.49972 73.402642 
L 379.482541 81.16717 
L 379.973952 84.078868 
L 380.465363 83.108302 
L 380.956774 75.343774 
L 381.448185 79.226038 
L 381.939596 87.961132 
L 382.431006 84.078868 
L 382.922417 87.961132 
L 383.413828 84.078868 
L 383.905239 93.784528 
L 384.39665 100.578491 
L 384.888061 119.989811 
L 385.379472 116.107547 
L 385.870883 97.666792 
L 386.362293 97.666792 
L 386.853704 92.813962 
L 387.345115 85.049434 
L 387.836526 88.931698 
L 388.327937 80.196604 
L 388.819348 81.16717 
L 389.310759 74.373208 
L 389.802169 65.638113 
L 390.29358 62.726415 
L 390.784991 60.785283 
L 391.276402 50.109057 
L 391.767813 53.020755 
L 392.259224 59.814717 
L 392.750635 64.667547 
L 393.242045 63.696981 
L 393.733456 59.814717 
L 394.224867 54.961887 
L 394.716278 36.521132 
L 395.207689 34.58 
L 395.6991 53.020755 
L 396.190511 53.020755 
L 396.681921 53.991321 
L 397.173332 57.873585 
L 397.664743 51.079623 
L 398.156154 47.197358 
L 398.647565 47.197358 
L 399.138976 43.315094 
L 399.630387 54.961887 
L 400.121798 54.961887 
L 400.613208 66.608679 
L 401.104619 67.579245 
L 401.59603 74.373208 
L 402.578852 74.373208 
L 403.070263 88.931698 
L 403.561674 91.843396 
L 404.053084 92.813962 
L 404.544495 107.372453 
L 405.035906 98.637358 
L 405.527317 109.313585 
L 406.018728 108.343019 
L 406.510139 98.637358 
L 407.00155 94.755094 
L 407.49296 97.666792 
L 407.984371 90.87283 
L 408.967193 98.637358 
L 409.458604 106.401887 
L 409.950015 110.284151 
L 410.441426 99.607925 
L 410.932836 91.843396 
L 411.424247 90.87283 
L 411.915658 84.078868 
L 412.407069 86.990566 
L 412.89848 98.637358 
L 413.389891 87.961132 
L 413.881302 99.607925 
L 414.372713 91.843396 
L 414.864123 88.931698 
L 415.355534 88.931698 
L 415.846945 87.961132 
L 416.338356 78.255472 
L 417.321178 80.196604 
L 417.812589 69.520377 
L 418.303999 73.402642 
L 418.79541 79.226038 
L 419.286821 61.755849 
L 419.778232 73.402642 
L 420.269643 67.579245 
L 420.761054 67.579245 
L 421.252465 71.461509 
L 421.743875 71.461509 
L 422.235286 53.020755 
L 422.726697 63.696981 
L 423.218108 54.961887 
L 423.709519 54.961887 
L 424.692341 68.549811 
L 425.183751 67.579245 
L 425.675162 75.343774 
L 426.166573 63.696981 
L 426.657984 58.844151 
L 427.149395 65.638113 
L 427.640806 65.638113 
L 428.132217 73.402642 
L 428.623628 73.402642 
L 429.606449 87.961132 
L 430.09786 94.755094 
L 430.589271 95.72566 
L 431.080682 109.313585 
L 431.080682 109.313585 
" clip-path="url(#p952b15b1b1)" style="fill: none; stroke-dasharray: 1.85,0.8; stroke-dashoffset: 0; stroke: #ff0000; stroke-width: 0.5"/>
   </g>
   <g id="patch_3">
    <path d="M 33.775 304.64 
L 33.775 21.72 
" style="fill: none; stroke: #000000; stroke-width: 0.8; stroke-linejoin: miter; stroke-linecap: square"/>
   </g>
   <g id="patch_4">
    <path d="M 450 304.64 
L 450 21.72 
" style="fill: none; stroke: #000000; stroke-width: 0.8; stroke-linejoin: miter; stroke-linecap: square"/>
   </g>
   <g id="patch_5">
    <path d="M 33.775 304.64 
L 450 304.64 
" style="fill: none; stroke: #000000; stroke-width: 0.8; stroke-linejoin: miter; stroke-linecap: square"/>
   </g>
   <g id="patch_6">
    <path d="M 33.775 21.72 
L 450 21.72 
" style="fill: none; stroke: #000000; stroke-width: 0.8; stroke-linejoin: miter; stroke-linecap: square"/>
   </g>
   <g id="text_17">
    <!-- Heating Rate ($^{\circ}C.s^{-1}$) -->
    <g transform="translate(283.51 50.012) scale(0.12 -0.12)">
     <defs>
      <path id="DejaVuSans-48" d="M 628 4666 
L 1259 4666 
L 1259 2753 
L 3553 2753 
L 3553 4666 
L 4184 4666 
L 4184 0 
L 3553 0 
L 3553 2222 
L 1259 2222 
L 1259 0 
L 628 0 
L 628 4666 
z
" transform="scale(0.015625)"/>
      <path id="DejaVuSans-67" d="M 2906 1791 
Q 2906 2416 2648 2759 
Q 2391 3103 1925 3103 
Q 1463 3103 1205 2759 
Q 947 2416 947 1791 
Q 947 1169 1205 825 
Q 1463 481 1925 481 
Q 2391 481 2648 825 
Q 2906 1169 2906 1791 
z
M 3481 434 
Q 3481 -459 3084 -895 
Q 2688 -1331 1869 -1331 
Q 1566 -1331 1297 -1286 
Q 1028 -1241 775 -1147 
L 775 -588 
Q 1028 -725 1275 -790 
Q 1522 -856 1778 -856 
Q 2344 -856 2625 -561 
Q 2906 -266 2906 331 
L 2906 616 
Q 2728 306 2450 153 
Q 2172 0 1784 0 
Q 1141 0 747 490 
Q 353 981 353 1791 
Q 353 2603 747 3093 
Q 1141 3584 1784 3584 
Q 2172 3584 2450 3431 
Q 2728 3278 2906 2969 
L 2906 3500 
L 3481 3500 
L 3481 434 
z
" transform="scale(0.015625)"/>
      <path id="DejaVuSans-52" d="M 2841 2188 
Q 3044 2119 3236 1894 
Q 3428 1669 3622 1275 
L 4263 0 
L 3584 0 
L 2988 1197 
Q 2756 1666 2539 1819 
Q 2322 1972 1947 1972 
L 1259 1972 
L 1259 0 
L 628 0 
L 628 4666 
L 2053 4666 
Q 2853 4666 3247 4331 
Q 3641 3997 3641 3322 
Q 3641 2881 3436 2590 
Q 3231 2300 2841 2188 
z
M 1259 4147 
L 1259 2491 
L 2053 2491 
Q 2509 2491 2742 2702 
Q 2975 2913 2975 3322 
Q 2975 3731 2742 3939 
Q 2509 4147 2053 4147 
L 1259 4147 
z
" transform="scale(0.015625)"/>
      <path id="DejaVuSans-2e" d="M 684 794 
L 1344 794 
L 1344 0 
L 684 0 
L 684 794 
z
" transform="scale(0.015625)"/>
      <path id="DejaVuSans-Oblique-73" d="M 3200 3397 
L 3091 2853 
Q 2863 2978 2609 3040 
Q 2356 3103 2088 3103 
Q 1634 3103 1373 2948 
Q 1113 2794 1113 2528 
Q 1113 2219 1719 2053 
Q 1766 2041 1788 2034 
L 1972 1978 
Q 2547 1819 2739 1644 
Q 2931 1469 2931 1166 
Q 2931 609 2489 259 
Q 2047 -91 1331 -91 
Q 1053 -91 747 -37 
Q 441 16 72 128 
L 184 722 
Q 500 559 806 475 
Q 1113 391 1394 391 
Q 1816 391 2080 572 
Q 2344 753 2344 1031 
Q 2344 1331 1650 1516 
L 1591 1531 
L 1394 1581 
Q 956 1697 753 1886 
Q 550 2075 550 2369 
Q 550 2928 970 3256 
Q 1391 3584 2113 3584 
Q 2397 3584 2667 3537 
Q 2938 3491 3200 3397 
z
" transform="scale(0.015625)"/>
     </defs>
     <use xlink:href="#DejaVuSans-48" transform="translate(0 0.684375)"/>
     <use xlink:href="#DejaVuSans-65" transform="translate(75.195312 0.684375)"/>
     <use xlink:href="#DejaVuSans-61" transform="translate(136.71875 0.684375)"/>
     <use xlink:href="#DejaVuSans-74" transform="translate(197.998047 0.684375)"/>
     <use xlink:href="#DejaVuSans-69" transform="translate(237.207031 0.684375)"/>
     <use xlink:href="#DejaVuSans-6e" transform="translate(264.990234 0.684375)"/>
     <use xlink:href="#DejaVuSans-67" transform="translate(328.369141 0.684375)"/>
     <use xlink:href="#DejaVuSans-20" transform="translate(391.845703 0.684375)"/>
     <use xlink:href="#DejaVuSans-52" transform="translate(423.632812 0.684375)"/>
     <use xlink:href="#DejaVuSans-61" transform="translate(493.115234 0.684375)"/>
     <use xlink:href="#DejaVuSans-74" transform="translate(554.394531 0.684375)"/>
     <use xlink:href="#DejaVuSans-65" transform="translate(593.603516 0.684375)"/>
     <use xlink:href="#DejaVuSans-20" transform="translate(655.126953 0.684375)"/>
     <use xlink:href="#DejaVuSans-28" transform="translate(686.914062 0.684375)"/>
     <use xlink:href="#DejaVuSans-2218" transform="translate(726.884766 38.965625) scale(0.7)"/>
     <use xlink:href="#DejaVuSans-Oblique-43" transform="translate(773.4375 0.684375)"/>
     <use xlink:href="#DejaVuSans-2e" transform="translate(843.261719 0.684375)"/>
     <use xlink:href="#DejaVuSans-Oblique-73" transform="translate(894.53125 0.684375)"/>
     <use xlink:href="#DejaVuSans-2212" transform="translate(951.280755 38.965625) scale(0.7)"/>
     <use xlink:href="#DejaVuSans-31" transform="translate(1009.933099 38.965625) scale(0.7)"/>
     <use xlink:href="#DejaVuSans-29" transform="translate(1057.203607 0.684375)"/>
    </g>
   </g>
   <g id="legend_1">
    <g id="patch_7">
     <path d="M 332.1325 131.402625 
L 380.035625 131.402625 
Q 382.035625 131.402625 382.035625 129.402625 
L 382.035625 57.012 
Q 382.035625 55.012 380.035625 55.012 
L 332.1325 55.012 
Q 330.1325 55.012 330.1325 57.012 
L 330.1325 129.402625 
Q 330.1325 131.402625 332.1325 131.402625 
z
" style="fill: #ffffff; opacity: 0.8; stroke: #cccccc; stroke-linejoin: miter"/>
    </g>
    <g id="line2d_20">
     <path d="M 334.1325 63.110437 
L 344.1325 63.110437 
L 354.1325 63.110437 
" style="fill: none; stroke-dasharray: 1.85,0.8; stroke-dashoffset: 0; stroke: #8000ff; stroke-width: 0.5"/>
    </g>
    <g id="text_18">
     <!-- 0.1 -->
     <g transform="translate(362.1325 66.610437) scale(0.1 -0.1)">
      <use xlink:href="#DejaVuSans-30"/>
      <use xlink:href="#DejaVuSans-2e" transform="translate(63.623047 0)"/>
      <use xlink:href="#DejaVuSans-31" transform="translate(95.410156 0)"/>
     </g>
    </g>
    <g id="line2d_21">
     <path d="M 334.1325 77.788563 
L 344.1325 77.788563 
L 354.1325 77.788563 
" style="fill: none; stroke-dasharray: 1.85,0.8; stroke-dashoffset: 0; stroke: #00b5eb; stroke-width: 0.5"/>
    </g>
    <g id="text_19">
     <!-- 1 -->
     <g transform="translate(362.1325 81.288563) scale(0.1 -0.1)">
      <use xlink:href="#DejaVuSans-31"/>
     </g>
    </g>
    <g id="line2d_22">
     <path d="M 334.1325 92.466687 
L 344.1325 92.466687 
L 354.1325 92.466687 
" style="fill: none; stroke-dasharray: 1.85,0.8; stroke-dashoffset: 0; stroke: #80ffb4; stroke-width: 0.5"/>
    </g>
    <g id="text_20">
     <!-- 5 -->
     <g transform="translate(362.1325 95.966687) scale(0.1 -0.1)">
      <use xlink:href="#DejaVuSans-35"/>
     </g>
    </g>
    <g id="line2d_23">
     <path d="M 334.1325 107.144813 
L 344.1325 107.144813 
L 354.1325 107.144813 
" style="fill: none; stroke-dasharray: 1.85,0.8; stroke-dashoffset: 0; stroke: #ffb360; stroke-width: 0.5"/>
    </g>
    <g id="text_21">
     <!-- 10 -->
     <g transform="translate(362.1325 110.644813) scale(0.1 -0.1)">
      <use xlink:href="#DejaVuSans-31"/>
      <use xlink:href="#DejaVuSans-30" transform="translate(63.623047 0)"/>
     </g>
    </g>
    <g id="line2d_24">
     <path d="M 334.1325 121.822937 
L 344.1325 121.822937 
L 354.1325 121.822937 
" style="fill: none; stroke-dasharray: 1.85,0.8; stroke-dashoffset: 0; stroke: #ff0000; stroke-width: 0.5"/>
    </g>
    <g id="text_22">
     <!-- 20 -->
     <g transform="translate(362.1325 125.322937) scale(0.1 -0.1)">
      <use xlink:href="#DejaVuSans-32"/>
      <use xlink:href="#DejaVuSans-30" transform="translate(63.623047 0)"/>
     </g>
    </g>
   </g>
  </g>
 </g>
 <defs>
  <clipPath id="p952b15b1b1">
   <rect x="33.775" y="21.72" width="416.225" height="282.92"/>
  </clipPath>
 </defs>
</svg>
