<?xml version="1.0" encoding="utf-8" standalone="no"?>
<!DOCTYPE svg PUBLIC "-//W3C//DTD SVG 1.1//EN"
  "http://www.w3.org/Graphics/SVG/1.1/DTD/svg11.dtd">
<svg xmlns:xlink="http://www.w3.org/1999/xlink" width="460.8pt" height="345.6pt" viewBox="0 0 460.8 345.6" xmlns="http://www.w3.org/2000/svg" version="1.1">
 <metadata>
  <rdf:RDF xmlns:dc="http://purl.org/dc/elements/1.1/" xmlns:cc="http://creativecommons.org/ns#" xmlns:rdf="http://www.w3.org/1999/02/22-rdf-syntax-ns#">
   <cc:Work>
    <dc:type rdf:resource="http://purl.org/dc/dcmitype/StillImage"/>
    <dc:date>2025-03-12T11:12:13.665552</dc:date>
    <dc:format>image/svg+xml</dc:format>
    <dc:creator>
     <cc:Agent>
      <dc:title>Matplotlib v3.10.0, https://matplotlib.org/</dc:title>
     </cc:Agent>
    </dc:creator>
   </cc:Work>
  </rdf:RDF>
 </metadata>
 <defs>
  <style type="text/css">*{stroke-linejoin: round; stroke-linecap: butt}</style>
 </defs>
 <g id="figure_1">
  <g id="patch_1">
   <path d="M 0 345.6 
L 460.8 345.6 
L 460.8 0 
L 0 0 
z
" style="fill: #ffffff"/>
  </g>
  <g id="axes_1">
   <g id="patch_2">
    <path d="M 33.775 304.64 
L 450 304.64 
L 450 21.72 
L 33.775 21.72 
z
" style="fill: #ffffff"/>
   </g>
   <g id="matplotlib.axis_1">
    <g id="xtick_1">
     <g id="line2d_1">
      <defs>
       <path id="me2951e58ee" d="M 0 0 
L 0 3.5 
" style="stroke: #000000; stroke-width: 0.8"/>
      </defs>
      <g>
       <use xlink:href="#me2951e58ee" x="45.814566" y="304.64" style="stroke: #000000; stroke-width: 0.8"/>
      </g>
     </g>
     <g id="text_1">
      <!-- 0 -->
      <g transform="translate(42.633316 319.238437) scale(0.1 -0.1)">
       <defs>
        <path id="DejaVuSans-30" d="M 2034 4250 
Q 1547 4250 1301 3770 
Q 1056 3291 1056 2328 
Q 1056 1369 1301 889 
Q 1547 409 2034 409 
Q 2525 409 2770 889 
Q 3016 1369 3016 2328 
Q 3016 3291 2770 3770 
Q 2525 4250 2034 4250 
z
M 2034 4750 
Q 2819 4750 3233 4129 
Q 3647 3509 3647 2328 
Q 3647 1150 3233 529 
Q 2819 -91 2034 -91 
Q 1250 -91 836 529 
Q 422 1150 422 2328 
Q 422 3509 836 4129 
Q 1250 4750 2034 4750 
z
" transform="scale(0.015625)"/>
       </defs>
       <use xlink:href="#DejaVuSans-30"/>
      </g>
     </g>
    </g>
    <g id="xtick_2">
     <g id="line2d_2">
      <g>
       <use xlink:href="#me2951e58ee" x="94.894226" y="304.64" style="stroke: #000000; stroke-width: 0.8"/>
      </g>
     </g>
     <g id="text_2">
      <!-- 100 -->
      <g transform="translate(85.350476 319.238437) scale(0.1 -0.1)">
       <defs>
        <path id="DejaVuSans-31" d="M 794 531 
L 1825 531 
L 1825 4091 
L 703 3866 
L 703 4441 
L 1819 4666 
L 2450 4666 
L 2450 531 
L 3481 531 
L 3481 0 
L 794 0 
L 794 531 
z
" transform="scale(0.015625)"/>
       </defs>
       <use xlink:href="#DejaVuSans-31"/>
       <use xlink:href="#DejaVuSans-30" transform="translate(63.623047 0)"/>
       <use xlink:href="#DejaVuSans-30" transform="translate(127.246094 0)"/>
      </g>
     </g>
    </g>
    <g id="xtick_3">
     <g id="line2d_3">
      <g>
       <use xlink:href="#me2951e58ee" x="143.973886" y="304.64" style="stroke: #000000; stroke-width: 0.8"/>
      </g>
     </g>
     <g id="text_3">
      <!-- 200 -->
      <g transform="translate(134.430136 319.238437) scale(0.1 -0.1)">
       <defs>
        <path id="DejaVuSans-32" d="M 1228 531 
L 3431 531 
L 3431 0 
L 469 0 
L 469 531 
Q 828 903 1448 1529 
Q 2069 2156 2228 2338 
Q 2531 2678 2651 2914 
Q 2772 3150 2772 3378 
Q 2772 3750 2511 3984 
Q 2250 4219 1831 4219 
Q 1534 4219 1204 4116 
Q 875 4013 500 3803 
L 500 4441 
Q 881 4594 1212 4672 
Q 1544 4750 1819 4750 
Q 2544 4750 2975 4387 
Q 3406 4025 3406 3419 
Q 3406 3131 3298 2873 
Q 3191 2616 2906 2266 
Q 2828 2175 2409 1742 
Q 1991 1309 1228 531 
z
" transform="scale(0.015625)"/>
       </defs>
       <use xlink:href="#DejaVuSans-32"/>
       <use xlink:href="#DejaVuSans-30" transform="translate(63.623047 0)"/>
       <use xlink:href="#DejaVuSans-30" transform="translate(127.246094 0)"/>
      </g>
     </g>
    </g>
    <g id="xtick_4">
     <g id="line2d_4">
      <g>
       <use xlink:href="#me2951e58ee" x="193.053546" y="304.64" style="stroke: #000000; stroke-width: 0.8"/>
      </g>
     </g>
     <g id="text_4">
      <!-- 300 -->
      <g transform="translate(183.509796 319.238437) scale(0.1 -0.1)">
       <defs>
        <path id="DejaVuSans-33" d="M 2597 2516 
Q 3050 2419 3304 2112 
Q 3559 1806 3559 1356 
Q 3559 666 3084 287 
Q 2609 -91 1734 -91 
Q 1441 -91 1130 -33 
Q 819 25 488 141 
L 488 750 
Q 750 597 1062 519 
Q 1375 441 1716 441 
Q 2309 441 2620 675 
Q 2931 909 2931 1356 
Q 2931 1769 2642 2001 
Q 2353 2234 1838 2234 
L 1294 2234 
L 1294 2753 
L 1863 2753 
Q 2328 2753 2575 2939 
Q 2822 3125 2822 3475 
Q 2822 3834 2567 4026 
Q 2313 4219 1838 4219 
Q 1578 4219 1281 4162 
Q 984 4106 628 3988 
L 628 4550 
Q 988 4650 1302 4700 
Q 1616 4750 1894 4750 
Q 2613 4750 3031 4423 
Q 3450 4097 3450 3541 
Q 3450 3153 3228 2886 
Q 3006 2619 2597 2516 
z
" transform="scale(0.015625)"/>
       </defs>
       <use xlink:href="#DejaVuSans-33"/>
       <use xlink:href="#DejaVuSans-30" transform="translate(63.623047 0)"/>
       <use xlink:href="#DejaVuSans-30" transform="translate(127.246094 0)"/>
      </g>
     </g>
    </g>
    <g id="xtick_5">
     <g id="line2d_5">
      <g>
       <use xlink:href="#me2951e58ee" x="242.133205" y="304.64" style="stroke: #000000; stroke-width: 0.8"/>
      </g>
     </g>
     <g id="text_5">
      <!-- 400 -->
      <g transform="translate(232.589455 319.238437) scale(0.1 -0.1)">
       <defs>
        <path id="DejaVuSans-34" d="M 2419 4116 
L 825 1625 
L 2419 1625 
L 2419 4116 
z
M 2253 4666 
L 3047 4666 
L 3047 1625 
L 3713 1625 
L 3713 1100 
L 3047 1100 
L 3047 0 
L 2419 0 
L 2419 1100 
L 313 1100 
L 313 1709 
L 2253 4666 
z
" transform="scale(0.015625)"/>
       </defs>
       <use xlink:href="#DejaVuSans-34"/>
       <use xlink:href="#DejaVuSans-30" transform="translate(63.623047 0)"/>
       <use xlink:href="#DejaVuSans-30" transform="translate(127.246094 0)"/>
      </g>
     </g>
    </g>
    <g id="xtick_6">
     <g id="line2d_6">
      <g>
       <use xlink:href="#me2951e58ee" x="291.212865" y="304.64" style="stroke: #000000; stroke-width: 0.8"/>
      </g>
     </g>
     <g id="text_6">
      <!-- 500 -->
      <g transform="translate(281.669115 319.238437) scale(0.1 -0.1)">
       <defs>
        <path id="DejaVuSans-35" d="M 691 4666 
L 3169 4666 
L 3169 4134 
L 1269 4134 
L 1269 2991 
Q 1406 3038 1543 3061 
Q 1681 3084 1819 3084 
Q 2600 3084 3056 2656 
Q 3513 2228 3513 1497 
Q 3513 744 3044 326 
Q 2575 -91 1722 -91 
Q 1428 -91 1123 -41 
Q 819 9 494 109 
L 494 744 
Q 775 591 1075 516 
Q 1375 441 1709 441 
Q 2250 441 2565 725 
Q 2881 1009 2881 1497 
Q 2881 1984 2565 2268 
Q 2250 2553 1709 2553 
Q 1456 2553 1204 2497 
Q 953 2441 691 2322 
L 691 4666 
z
" transform="scale(0.015625)"/>
       </defs>
       <use xlink:href="#DejaVuSans-35"/>
       <use xlink:href="#DejaVuSans-30" transform="translate(63.623047 0)"/>
       <use xlink:href="#DejaVuSans-30" transform="translate(127.246094 0)"/>
      </g>
     </g>
    </g>
    <g id="xtick_7">
     <g id="line2d_7">
      <g>
       <use xlink:href="#me2951e58ee" x="340.292525" y="304.64" style="stroke: #000000; stroke-width: 0.8"/>
      </g>
     </g>
     <g id="text_7">
      <!-- 600 -->
      <g transform="translate(330.748775 319.238437) scale(0.1 -0.1)">
       <defs>
        <path id="DejaVuSans-36" d="M 2113 2584 
Q 1688 2584 1439 2293 
Q 1191 2003 1191 1497 
Q 1191 994 1439 701 
Q 1688 409 2113 409 
Q 2538 409 2786 701 
Q 3034 994 3034 1497 
Q 3034 2003 2786 2293 
Q 2538 2584 2113 2584 
z
M 3366 4563 
L 3366 3988 
Q 3128 4100 2886 4159 
Q 2644 4219 2406 4219 
Q 1781 4219 1451 3797 
Q 1122 3375 1075 2522 
Q 1259 2794 1537 2939 
Q 1816 3084 2150 3084 
Q 2853 3084 3261 2657 
Q 3669 2231 3669 1497 
Q 3669 778 3244 343 
Q 2819 -91 2113 -91 
Q 1303 -91 875 529 
Q 447 1150 447 2328 
Q 447 3434 972 4092 
Q 1497 4750 2381 4750 
Q 2619 4750 2861 4703 
Q 3103 4656 3366 4563 
z
" transform="scale(0.015625)"/>
       </defs>
       <use xlink:href="#DejaVuSans-36"/>
       <use xlink:href="#DejaVuSans-30" transform="translate(63.623047 0)"/>
       <use xlink:href="#DejaVuSans-30" transform="translate(127.246094 0)"/>
      </g>
     </g>
    </g>
    <g id="xtick_8">
     <g id="line2d_8">
      <g>
       <use xlink:href="#me2951e58ee" x="389.372185" y="304.64" style="stroke: #000000; stroke-width: 0.8"/>
      </g>
     </g>
     <g id="text_8">
      <!-- 700 -->
      <g transform="translate(379.828435 319.238437) scale(0.1 -0.1)">
       <defs>
        <path id="DejaVuSans-37" d="M 525 4666 
L 3525 4666 
L 3525 4397 
L 1831 0 
L 1172 0 
L 2766 4134 
L 525 4134 
L 525 4666 
z
" transform="scale(0.015625)"/>
       </defs>
       <use xlink:href="#DejaVuSans-37"/>
       <use xlink:href="#DejaVuSans-30" transform="translate(63.623047 0)"/>
       <use xlink:href="#DejaVuSans-30" transform="translate(127.246094 0)"/>
      </g>
     </g>
    </g>
    <g id="xtick_9">
     <g id="line2d_9">
      <g>
       <use xlink:href="#me2951e58ee" x="438.451845" y="304.64" style="stroke: #000000; stroke-width: 0.8"/>
      </g>
     </g>
     <g id="text_9">
      <!-- 800 -->
      <g transform="translate(428.908095 319.238437) scale(0.1 -0.1)">
       <defs>
        <path id="DejaVuSans-38" d="M 2034 2216 
Q 1584 2216 1326 1975 
Q 1069 1734 1069 1313 
Q 1069 891 1326 650 
Q 1584 409 2034 409 
Q 2484 409 2743 651 
Q 3003 894 3003 1313 
Q 3003 1734 2745 1975 
Q 2488 2216 2034 2216 
z
M 1403 2484 
Q 997 2584 770 2862 
Q 544 3141 544 3541 
Q 544 4100 942 4425 
Q 1341 4750 2034 4750 
Q 2731 4750 3128 4425 
Q 3525 4100 3525 3541 
Q 3525 3141 3298 2862 
Q 3072 2584 2669 2484 
Q 3125 2378 3379 2068 
Q 3634 1759 3634 1313 
Q 3634 634 3220 271 
Q 2806 -91 2034 -91 
Q 1263 -91 848 271 
Q 434 634 434 1313 
Q 434 1759 690 2068 
Q 947 2378 1403 2484 
z
M 1172 3481 
Q 1172 3119 1398 2916 
Q 1625 2713 2034 2713 
Q 2441 2713 2670 2916 
Q 2900 3119 2900 3481 
Q 2900 3844 2670 4047 
Q 2441 4250 2034 4250 
Q 1625 4250 1398 4047 
Q 1172 3844 1172 3481 
z
" transform="scale(0.015625)"/>
       </defs>
       <use xlink:href="#DejaVuSans-38"/>
       <use xlink:href="#DejaVuSans-30" transform="translate(63.623047 0)"/>
       <use xlink:href="#DejaVuSans-30" transform="translate(127.246094 0)"/>
      </g>
     </g>
    </g>
    <g id="text_10">
     <!-- Temperature ($^{\circ}C$) -->
     <g transform="translate(197.8875 332.918125) scale(0.1 -0.1)">
      <defs>
       <path id="DejaVuSans-54" d="M -19 4666 
L 3928 4666 
L 3928 4134 
L 2272 4134 
L 2272 0 
L 1638 0 
L 1638 4134 
L -19 4134 
L -19 4666 
z
" transform="scale(0.015625)"/>
       <path id="DejaVuSans-65" d="M 3597 1894 
L 3597 1613 
L 953 1613 
Q 991 1019 1311 708 
Q 1631 397 2203 397 
Q 2534 397 2845 478 
Q 3156 559 3463 722 
L 3463 178 
Q 3153 47 2828 -22 
Q 2503 -91 2169 -91 
Q 1331 -91 842 396 
Q 353 884 353 1716 
Q 353 2575 817 3079 
Q 1281 3584 2069 3584 
Q 2775 3584 3186 3129 
Q 3597 2675 3597 1894 
z
M 3022 2063 
Q 3016 2534 2758 2815 
Q 2500 3097 2075 3097 
Q 1594 3097 1305 2825 
Q 1016 2553 972 2059 
L 3022 2063 
z
" transform="scale(0.015625)"/>
       <path id="DejaVuSans-6d" d="M 3328 2828 
Q 3544 3216 3844 3400 
Q 4144 3584 4550 3584 
Q 5097 3584 5394 3201 
Q 5691 2819 5691 2113 
L 5691 0 
L 5113 0 
L 5113 2094 
Q 5113 2597 4934 2840 
Q 4756 3084 4391 3084 
Q 3944 3084 3684 2787 
Q 3425 2491 3425 1978 
L 3425 0 
L 2847 0 
L 2847 2094 
Q 2847 2600 2669 2842 
Q 2491 3084 2119 3084 
Q 1678 3084 1418 2786 
Q 1159 2488 1159 1978 
L 1159 0 
L 581 0 
L 581 3500 
L 1159 3500 
L 1159 2956 
Q 1356 3278 1631 3431 
Q 1906 3584 2284 3584 
Q 2666 3584 2933 3390 
Q 3200 3197 3328 2828 
z
" transform="scale(0.015625)"/>
       <path id="DejaVuSans-70" d="M 1159 525 
L 1159 -1331 
L 581 -1331 
L 581 3500 
L 1159 3500 
L 1159 2969 
Q 1341 3281 1617 3432 
Q 1894 3584 2278 3584 
Q 2916 3584 3314 3078 
Q 3713 2572 3713 1747 
Q 3713 922 3314 415 
Q 2916 -91 2278 -91 
Q 1894 -91 1617 61 
Q 1341 213 1159 525 
z
M 3116 1747 
Q 3116 2381 2855 2742 
Q 2594 3103 2138 3103 
Q 1681 3103 1420 2742 
Q 1159 2381 1159 1747 
Q 1159 1113 1420 752 
Q 1681 391 2138 391 
Q 2594 391 2855 752 
Q 3116 1113 3116 1747 
z
" transform="scale(0.015625)"/>
       <path id="DejaVuSans-72" d="M 2631 2963 
Q 2534 3019 2420 3045 
Q 2306 3072 2169 3072 
Q 1681 3072 1420 2755 
Q 1159 2438 1159 1844 
L 1159 0 
L 581 0 
L 581 3500 
L 1159 3500 
L 1159 2956 
Q 1341 3275 1631 3429 
Q 1922 3584 2338 3584 
Q 2397 3584 2469 3576 
Q 2541 3569 2628 3553 
L 2631 2963 
z
" transform="scale(0.015625)"/>
       <path id="DejaVuSans-61" d="M 2194 1759 
Q 1497 1759 1228 1600 
Q 959 1441 959 1056 
Q 959 750 1161 570 
Q 1363 391 1709 391 
Q 2188 391 2477 730 
Q 2766 1069 2766 1631 
L 2766 1759 
L 2194 1759 
z
M 3341 1997 
L 3341 0 
L 2766 0 
L 2766 531 
Q 2569 213 2275 61 
Q 1981 -91 1556 -91 
Q 1019 -91 701 211 
Q 384 513 384 1019 
Q 384 1609 779 1909 
Q 1175 2209 1959 2209 
L 2766 2209 
L 2766 2266 
Q 2766 2663 2505 2880 
Q 2244 3097 1772 3097 
Q 1472 3097 1187 3025 
Q 903 2953 641 2809 
L 641 3341 
Q 956 3463 1253 3523 
Q 1550 3584 1831 3584 
Q 2591 3584 2966 3190 
Q 3341 2797 3341 1997 
z
" transform="scale(0.015625)"/>
       <path id="DejaVuSans-74" d="M 1172 4494 
L 1172 3500 
L 2356 3500 
L 2356 3053 
L 1172 3053 
L 1172 1153 
Q 1172 725 1289 603 
Q 1406 481 1766 481 
L 2356 481 
L 2356 0 
L 1766 0 
Q 1100 0 847 248 
Q 594 497 594 1153 
L 594 3053 
L 172 3053 
L 172 3500 
L 594 3500 
L 594 4494 
L 1172 4494 
z
" transform="scale(0.015625)"/>
       <path id="DejaVuSans-75" d="M 544 1381 
L 544 3500 
L 1119 3500 
L 1119 1403 
Q 1119 906 1312 657 
Q 1506 409 1894 409 
Q 2359 409 2629 706 
Q 2900 1003 2900 1516 
L 2900 3500 
L 3475 3500 
L 3475 0 
L 2900 0 
L 2900 538 
Q 2691 219 2414 64 
Q 2138 -91 1772 -91 
Q 1169 -91 856 284 
Q 544 659 544 1381 
z
M 1991 3584 
L 1991 3584 
z
" transform="scale(0.015625)"/>
       <path id="DejaVuSans-20" transform="scale(0.015625)"/>
       <path id="DejaVuSans-28" d="M 1984 4856 
Q 1566 4138 1362 3434 
Q 1159 2731 1159 2009 
Q 1159 1288 1364 580 
Q 1569 -128 1984 -844 
L 1484 -844 
Q 1016 -109 783 600 
Q 550 1309 550 2009 
Q 550 2706 781 3412 
Q 1013 4119 1484 4856 
L 1984 4856 
z
" transform="scale(0.015625)"/>
       <path id="DejaVuSans-2218" d="M 2000 2619 
Q 1750 2619 1578 2445 
Q 1406 2272 1406 2022 
Q 1406 1775 1578 1605 
Q 1750 1435 2000 1435 
Q 2250 1435 2422 1605 
Q 2594 1775 2594 2022 
Q 2594 2269 2420 2444 
Q 2247 2619 2000 2619 
z
M 2000 3022 
Q 2200 3022 2384 2945 
Q 2569 2869 2703 2725 
Q 2847 2585 2919 2406 
Q 2991 2228 2991 2022 
Q 2991 1610 2702 1324 
Q 2413 1038 1994 1038 
Q 1572 1038 1290 1319 
Q 1009 1600 1009 2022 
Q 1009 2441 1296 2731 
Q 1584 3022 2000 3022 
z
" transform="scale(0.015625)"/>
       <path id="DejaVuSans-Oblique-43" d="M 4447 4306 
L 4319 3641 
Q 4019 3944 3683 4091 
Q 3347 4238 2956 4238 
Q 2422 4238 2017 3981 
Q 1613 3725 1319 3200 
Q 1131 2863 1032 2486 
Q 934 2109 934 1728 
Q 934 1091 1264 756 
Q 1594 422 2222 422 
Q 2656 422 3056 561 
Q 3456 700 3834 978 
L 3688 231 
Q 3316 72 2936 -9 
Q 2556 -91 2175 -91 
Q 1278 -91 773 396 
Q 269 884 269 1753 
Q 269 2309 461 2846 
Q 653 3384 1013 3828 
Q 1394 4300 1883 4525 
Q 2372 4750 3022 4750 
Q 3422 4750 3780 4639 
Q 4138 4528 4447 4306 
z
" transform="scale(0.015625)"/>
       <path id="DejaVuSans-29" d="M 513 4856 
L 1013 4856 
Q 1481 4119 1714 3412 
Q 1947 2706 1947 2009 
Q 1947 1309 1714 600 
Q 1481 -109 1013 -844 
L 513 -844 
Q 928 -128 1133 580 
Q 1338 1288 1338 2009 
Q 1338 2731 1133 3434 
Q 928 4138 513 4856 
z
" transform="scale(0.015625)"/>
      </defs>
      <use xlink:href="#DejaVuSans-54" transform="translate(0 0.125)"/>
      <use xlink:href="#DejaVuSans-65" transform="translate(61.083984 0.125)"/>
      <use xlink:href="#DejaVuSans-6d" transform="translate(122.607422 0.125)"/>
      <use xlink:href="#DejaVuSans-70" transform="translate(220.019531 0.125)"/>
      <use xlink:href="#DejaVuSans-65" transform="translate(283.496094 0.125)"/>
      <use xlink:href="#DejaVuSans-72" transform="translate(345.019531 0.125)"/>
      <use xlink:href="#DejaVuSans-61" transform="translate(386.132812 0.125)"/>
      <use xlink:href="#DejaVuSans-74" transform="translate(447.412109 0.125)"/>
      <use xlink:href="#DejaVuSans-75" transform="translate(486.621094 0.125)"/>
      <use xlink:href="#DejaVuSans-72" transform="translate(550 0.125)"/>
      <use xlink:href="#DejaVuSans-65" transform="translate(591.113281 0.125)"/>
      <use xlink:href="#DejaVuSans-20" transform="translate(652.636719 0.125)"/>
      <use xlink:href="#DejaVuSans-28" transform="translate(684.423828 0.125)"/>
      <use xlink:href="#DejaVuSans-2218" transform="translate(724.394531 38.40625) scale(0.7)"/>
      <use xlink:href="#DejaVuSans-Oblique-43" transform="translate(770.947266 0.125)"/>
      <use xlink:href="#DejaVuSans-29" transform="translate(840.771484 0.125)"/>
     </g>
    </g>
   </g>
   <g id="matplotlib.axis_2">
    <g id="ytick_1">
     <g id="line2d_10">
      <defs>
       <path id="m26a6a55d58" d="M 0 0 
L -3.5 0 
" style="stroke: #000000; stroke-width: 0.8"/>
      </defs>
      <g>
       <use xlink:href="#m26a6a55d58" x="33.775" y="291.78" style="stroke: #000000; stroke-width: 0.8"/>
      </g>
     </g>
     <g id="text_11">
      <!-- 0 -->
      <g transform="translate(20.4125 295.579219) scale(0.1 -0.1)">
       <use xlink:href="#DejaVuSans-30"/>
      </g>
     </g>
    </g>
    <g id="ytick_2">
     <g id="line2d_11">
      <g>
       <use xlink:href="#m26a6a55d58" x="33.775" y="237.056596" style="stroke: #000000; stroke-width: 0.8"/>
      </g>
     </g>
     <g id="text_12">
      <!-- 1 -->
      <g transform="translate(20.4125 240.855814) scale(0.1 -0.1)">
       <use xlink:href="#DejaVuSans-31"/>
      </g>
     </g>
    </g>
    <g id="ytick_3">
     <g id="line2d_12">
      <g>
       <use xlink:href="#m26a6a55d58" x="33.775" y="182.333191" style="stroke: #000000; stroke-width: 0.8"/>
      </g>
     </g>
     <g id="text_13">
      <!-- 2 -->
      <g transform="translate(20.4125 186.13241) scale(0.1 -0.1)">
       <use xlink:href="#DejaVuSans-32"/>
      </g>
     </g>
    </g>
    <g id="ytick_4">
     <g id="line2d_13">
      <g>
       <use xlink:href="#m26a6a55d58" x="33.775" y="127.609787" style="stroke: #000000; stroke-width: 0.8"/>
      </g>
     </g>
     <g id="text_14">
      <!-- 3 -->
      <g transform="translate(20.4125 131.409006) scale(0.1 -0.1)">
       <use xlink:href="#DejaVuSans-33"/>
      </g>
     </g>
    </g>
    <g id="ytick_5">
     <g id="line2d_14">
      <g>
       <use xlink:href="#m26a6a55d58" x="33.775" y="72.886383" style="stroke: #000000; stroke-width: 0.8"/>
      </g>
     </g>
     <g id="text_15">
      <!-- 4 -->
      <g transform="translate(20.4125 76.685602) scale(0.1 -0.1)">
       <use xlink:href="#DejaVuSans-34"/>
      </g>
     </g>
    </g>
    <g id="text_16">
     <!-- Intensity ($^{\circ}C^{-1}$) -->
     <g transform="translate(14.3125 201.98) rotate(-90) scale(0.1 -0.1)">
      <defs>
       <path id="DejaVuSans-49" d="M 628 4666 
L 1259 4666 
L 1259 0 
L 628 0 
L 628 4666 
z
" transform="scale(0.015625)"/>
       <path id="DejaVuSans-6e" d="M 3513 2113 
L 3513 0 
L 2938 0 
L 2938 2094 
Q 2938 2591 2744 2837 
Q 2550 3084 2163 3084 
Q 1697 3084 1428 2787 
Q 1159 2491 1159 1978 
L 1159 0 
L 581 0 
L 581 3500 
L 1159 3500 
L 1159 2956 
Q 1366 3272 1645 3428 
Q 1925 3584 2291 3584 
Q 2894 3584 3203 3211 
Q 3513 2838 3513 2113 
z
" transform="scale(0.015625)"/>
       <path id="DejaVuSans-73" d="M 2834 3397 
L 2834 2853 
Q 2591 2978 2328 3040 
Q 2066 3103 1784 3103 
Q 1356 3103 1142 2972 
Q 928 2841 928 2578 
Q 928 2378 1081 2264 
Q 1234 2150 1697 2047 
L 1894 2003 
Q 2506 1872 2764 1633 
Q 3022 1394 3022 966 
Q 3022 478 2636 193 
Q 2250 -91 1575 -91 
Q 1294 -91 989 -36 
Q 684 19 347 128 
L 347 722 
Q 666 556 975 473 
Q 1284 391 1588 391 
Q 1994 391 2212 530 
Q 2431 669 2431 922 
Q 2431 1156 2273 1281 
Q 2116 1406 1581 1522 
L 1381 1569 
Q 847 1681 609 1914 
Q 372 2147 372 2553 
Q 372 3047 722 3315 
Q 1072 3584 1716 3584 
Q 2034 3584 2315 3537 
Q 2597 3491 2834 3397 
z
" transform="scale(0.015625)"/>
       <path id="DejaVuSans-69" d="M 603 3500 
L 1178 3500 
L 1178 0 
L 603 0 
L 603 3500 
z
M 603 4863 
L 1178 4863 
L 1178 4134 
L 603 4134 
L 603 4863 
z
" transform="scale(0.015625)"/>
       <path id="DejaVuSans-79" d="M 2059 -325 
Q 1816 -950 1584 -1140 
Q 1353 -1331 966 -1331 
L 506 -1331 
L 506 -850 
L 844 -850 
Q 1081 -850 1212 -737 
Q 1344 -625 1503 -206 
L 1606 56 
L 191 3500 
L 800 3500 
L 1894 763 
L 2988 3500 
L 3597 3500 
L 2059 -325 
z
" transform="scale(0.015625)"/>
       <path id="DejaVuSans-2212" d="M 678 2272 
L 4684 2272 
L 4684 1741 
L 678 1741 
L 678 2272 
z
" transform="scale(0.015625)"/>
      </defs>
      <use xlink:href="#DejaVuSans-49" transform="translate(0 0.684375)"/>
      <use xlink:href="#DejaVuSans-6e" transform="translate(29.492188 0.684375)"/>
      <use xlink:href="#DejaVuSans-74" transform="translate(92.871094 0.684375)"/>
      <use xlink:href="#DejaVuSans-65" transform="translate(132.080078 0.684375)"/>
      <use xlink:href="#DejaVuSans-6e" transform="translate(193.603516 0.684375)"/>
      <use xlink:href="#DejaVuSans-73" transform="translate(256.982422 0.684375)"/>
      <use xlink:href="#DejaVuSans-69" transform="translate(309.082031 0.684375)"/>
      <use xlink:href="#DejaVuSans-74" transform="translate(336.865234 0.684375)"/>
      <use xlink:href="#DejaVuSans-79" transform="translate(376.074219 0.684375)"/>
      <use xlink:href="#DejaVuSans-20" transform="translate(435.253906 0.684375)"/>
      <use xlink:href="#DejaVuSans-28" transform="translate(467.041016 0.684375)"/>
      <use xlink:href="#DejaVuSans-2218" transform="translate(507.011719 38.965625) scale(0.7)"/>
      <use xlink:href="#DejaVuSans-Oblique-43" transform="translate(553.564453 0.684375)"/>
      <use xlink:href="#DejaVuSans-2212" transform="translate(630.589193 38.965625) scale(0.7)"/>
      <use xlink:href="#DejaVuSans-31" transform="translate(689.241536 38.965625) scale(0.7)"/>
      <use xlink:href="#DejaVuSans-29" transform="translate(736.512044 0.684375)"/>
     </g>
    </g>
   </g>
   <g id="line2d_15">
    <path d="M 52.694318 291.78 
L 109.697978 291.78 
L 110.189389 290.867943 
L 116.57773 290.867943 
L 117.069141 289.955887 
L 122.474661 289.955887 
L 122.966071 289.04383 
L 124.440304 289.04383 
L 124.931715 289.955887 
L 125.423126 289.955887 
L 125.914537 289.04383 
L 126.405947 289.04383 
L 126.897358 288.131773 
L 127.388769 286.30766 
L 127.88018 285.395603 
L 128.863002 285.395603 
L 129.354413 283.571489 
L 129.845823 283.571489 
L 130.337234 281.747376 
L 131.811467 281.747376 
L 132.302878 279.923262 
L 132.794289 279.923262 
L 133.77711 278.099149 
L 134.268521 276.275035 
L 134.759932 275.362979 
L 135.742754 275.362979 
L 136.234165 272.626809 
L 136.725576 271.714752 
L 138.199808 271.714752 
L 138.691219 270.802695 
L 140.165452 265.330355 
L 140.656862 266.242411 
L 141.639684 262.594184 
L 142.131095 263.506241 
L 142.622506 263.506241 
L 143.113917 262.594184 
L 143.605328 259.858014 
L 144.096738 259.858014 
L 144.588149 258.033901 
L 145.07956 258.033901 
L 145.570971 256.209787 
L 146.062382 255.29773 
L 147.045204 257.121844 
L 147.536615 255.29773 
L 148.519436 255.29773 
L 149.010847 257.121844 
L 149.502258 254.385674 
L 149.993669 253.473617 
L 150.48508 251.649504 
L 150.976491 253.473617 
L 151.959312 251.649504 
L 152.450723 252.56156 
L 153.433545 248.913333 
L 153.924956 249.82539 
L 154.416367 248.913333 
L 154.907777 250.737447 
L 155.399188 249.82539 
L 155.890599 247.08922 
L 156.38201 247.08922 
L 156.873421 244.35305 
L 157.364832 243.440993 
L 157.856243 244.35305 
L 158.347653 246.177163 
L 159.821886 243.440993 
L 160.313297 244.35305 
L 160.804708 241.616879 
L 161.296119 239.792766 
L 162.27894 239.792766 
L 162.770351 237.968652 
L 163.261762 237.968652 
L 163.753173 237.056596 
L 164.244584 237.968652 
L 164.735995 236.144539 
L 165.227406 235.232482 
L 165.718816 235.232482 
L 166.210227 231.584255 
L 166.701638 232.496312 
L 167.193049 230.672199 
L 167.68446 227.023972 
L 168.175871 228.848085 
L 168.667282 227.023972 
L 169.158692 227.936028 
L 169.650103 224.287801 
L 170.141514 224.287801 
L 171.124336 227.936028 
L 172.107158 229.760142 
L 173.089979 226.111915 
L 173.58139 227.023972 
L 174.072801 227.023972 
L 174.564212 226.111915 
L 175.055623 226.111915 
L 175.547034 227.023972 
L 176.038445 223.375745 
L 176.529855 220.639574 
L 177.021266 218.815461 
L 177.512677 217.903404 
L 178.004088 215.167234 
L 178.495499 215.167234 
L 178.98691 216.991348 
L 179.969731 215.167234 
L 180.461142 215.167234 
L 180.952553 220.639574 
L 181.443964 217.903404 
L 181.935375 216.079291 
L 182.426786 219.727518 
L 182.918197 215.167234 
L 183.409607 215.167234 
L 183.901018 214.255177 
L 184.392429 216.079291 
L 184.88384 215.167234 
L 185.375251 215.167234 
L 185.866662 209.694894 
L 186.358073 209.694894 
L 186.849483 206.046667 
L 187.340894 205.13461 
L 187.832305 206.958723 
L 188.815127 205.13461 
L 189.306538 205.13461 
L 189.797949 203.310496 
L 190.28936 202.39844 
L 190.78077 206.046667 
L 191.763592 209.694894 
L 192.255003 207.87078 
L 193.237825 207.87078 
L 193.729236 206.958723 
L 194.220646 209.694894 
L 194.712057 210.60695 
L 195.203468 207.87078 
L 195.694879 206.046667 
L 196.18629 206.046667 
L 196.677701 206.958723 
L 197.169112 206.958723 
L 197.660522 208.782837 
L 198.151933 208.782837 
L 198.643344 206.958723 
L 199.134755 206.958723 
L 199.626166 205.13461 
L 200.117577 206.958723 
L 200.608988 209.694894 
L 201.100398 209.694894 
L 201.591809 208.782837 
L 202.08322 208.782837 
L 202.574631 206.046667 
L 203.066042 206.958723 
L 203.557453 206.046667 
L 204.048864 206.958723 
L 204.540274 208.782837 
L 205.523096 208.782837 
L 206.014507 205.13461 
L 206.505918 203.310496 
L 206.997329 207.87078 
L 207.48874 206.046667 
L 207.980151 203.310496 
L 208.962972 199.66227 
L 209.454383 199.66227 
L 209.945794 198.750213 
L 210.437205 196.014043 
L 210.928616 196.014043 
L 211.911437 187.805532 
L 212.402848 187.805532 
L 212.894259 185.981418 
L 213.38567 187.805532 
L 213.877081 186.893475 
L 214.368492 188.717589 
L 214.859903 185.981418 
L 215.351313 185.981418 
L 215.842724 180.509078 
L 216.334135 177.772908 
L 216.825546 179.597021 
L 217.316957 176.860851 
L 217.808368 173.212624 
L 218.299779 174.124681 
L 218.791189 174.124681 
L 219.2826 169.564397 
L 219.774011 173.212624 
L 220.265422 171.388511 
L 220.756833 174.124681 
L 221.248244 175.036738 
L 221.739655 173.212624 
L 222.231066 175.948794 
L 223.213887 177.772908 
L 223.705298 176.860851 
L 224.196709 176.860851 
L 224.68812 175.948794 
L 225.179531 178.684965 
L 225.670942 179.597021 
L 226.162352 183.245248 
L 226.653763 182.333191 
L 227.636585 184.157305 
L 228.127996 183.245248 
L 228.619407 185.069362 
L 229.110818 184.157305 
L 229.602228 185.069362 
L 230.093639 182.333191 
L 230.58505 185.981418 
L 231.076461 192.365816 
L 231.567872 192.365816 
L 233.042104 200.574326 
L 233.533515 198.750213 
L 234.024926 201.486383 
L 234.516337 195.101986 
L 235.007748 193.277872 
L 235.499159 193.277872 
L 235.99057 189.629645 
L 236.973391 187.805532 
L 237.464802 187.805532 
L 237.956213 188.717589 
L 238.939035 192.365816 
L 239.430446 195.101986 
L 239.921857 195.101986 
L 240.413267 196.926099 
L 240.904678 197.838156 
L 241.396089 201.486383 
L 242.378911 201.486383 
L 242.870322 204.222553 
L 243.361733 205.13461 
L 243.853143 205.13461 
L 244.344554 204.222553 
L 244.835965 204.222553 
L 245.327376 206.958723 
L 245.818787 206.958723 
L 246.310198 204.222553 
L 246.801609 205.13461 
L 247.293019 205.13461 
L 247.78443 203.310496 
L 248.275841 205.13461 
L 248.767252 206.046667 
L 249.750074 209.694894 
L 250.241485 210.60695 
L 250.732896 216.079291 
L 251.224306 216.991348 
L 251.715717 219.727518 
L 252.207128 220.639574 
L 252.698539 220.639574 
L 254.172772 217.903404 
L 255.155593 212.431064 
L 255.647004 213.343121 
L 256.138415 211.519007 
L 256.629826 207.87078 
L 257.121237 207.87078 
L 257.612648 208.782837 
L 258.104058 206.046667 
L 258.595469 206.046667 
L 259.08688 207.87078 
L 259.578291 213.343121 
L 260.069702 213.343121 
L 260.561113 212.431064 
L 261.052524 212.431064 
L 261.543934 209.694894 
L 262.035345 211.519007 
L 262.526756 212.431064 
L 263.509578 208.782837 
L 264.000989 211.519007 
L 264.4924 212.431064 
L 264.983811 212.431064 
L 265.475221 209.694894 
L 265.966632 207.87078 
L 266.458043 204.222553 
L 266.949454 203.310496 
L 267.440865 200.574326 
L 267.932276 198.750213 
L 268.423687 195.101986 
L 268.915097 193.277872 
L 269.406508 196.014043 
L 269.897919 196.926099 
L 270.38933 196.014043 
L 270.880741 197.838156 
L 271.863563 205.13461 
L 272.354973 204.222553 
L 272.846384 204.222553 
L 273.337795 206.958723 
L 273.829206 205.13461 
L 274.320617 199.66227 
L 274.812028 196.926099 
L 275.303439 198.750213 
L 275.794849 199.66227 
L 276.28626 203.310496 
L 276.777671 201.486383 
L 277.269082 200.574326 
L 277.760493 201.486383 
L 278.251904 204.222553 
L 278.743315 202.39844 
L 279.234726 204.222553 
L 279.726136 204.222553 
L 280.217547 203.310496 
L 280.708958 207.87078 
L 281.200369 208.782837 
L 282.183191 208.782837 
L 282.674602 209.694894 
L 283.166012 213.343121 
L 283.657423 214.255177 
L 284.148834 211.519007 
L 284.640245 212.431064 
L 285.131656 209.694894 
L 285.623067 208.782837 
L 286.114478 211.519007 
L 286.605888 209.694894 
L 287.097299 206.958723 
L 287.58871 206.046667 
L 288.080121 201.486383 
L 288.571532 203.310496 
L 289.062943 208.782837 
L 289.554354 211.519007 
L 290.045764 210.60695 
L 290.537175 213.343121 
L 291.028586 212.431064 
L 291.519997 213.343121 
L 292.011408 211.519007 
L 292.502819 210.60695 
L 292.99423 208.782837 
L 293.48564 210.60695 
L 293.977051 208.782837 
L 294.468462 206.046667 
L 294.959873 206.046667 
L 295.451284 205.13461 
L 295.942695 202.39844 
L 296.434106 198.750213 
L 296.925517 202.39844 
L 297.416927 201.486383 
L 297.908338 199.66227 
L 298.399749 203.310496 
L 298.89116 205.13461 
L 299.382571 205.13461 
L 299.873982 207.87078 
L 300.856803 204.222553 
L 301.348214 204.222553 
L 301.839625 205.13461 
L 302.331036 204.222553 
L 302.822447 206.958723 
L 303.313858 205.13461 
L 303.805269 202.39844 
L 304.296679 203.310496 
L 304.78809 203.310496 
L 305.279501 200.574326 
L 306.262323 200.574326 
L 306.753734 203.310496 
L 307.245145 206.958723 
L 307.736555 209.694894 
L 308.227966 207.87078 
L 308.719377 207.87078 
L 309.210788 208.782837 
L 310.19361 208.782837 
L 310.685021 211.519007 
L 311.176432 216.991348 
L 312.159253 216.991348 
L 312.650664 218.815461 
L 313.142075 214.255177 
L 313.633486 215.167234 
L 315.107718 215.167234 
L 315.599129 214.255177 
L 316.09054 212.431064 
L 316.581951 214.255177 
L 317.073362 217.903404 
L 317.564773 216.079291 
L 318.056184 213.343121 
L 318.547594 216.079291 
L 319.039005 212.431064 
L 319.530416 213.343121 
L 320.513238 216.991348 
L 321.004649 216.079291 
L 321.98747 216.079291 
L 322.478881 215.167234 
L 322.970292 217.903404 
L 323.461703 218.815461 
L 324.444525 224.287801 
L 324.935936 223.375745 
L 325.427347 225.199858 
L 325.918757 223.375745 
L 326.410168 222.463688 
L 326.901579 227.023972 
L 327.39299 226.111915 
L 327.884401 230.672199 
L 328.375812 231.584255 
L 328.867223 227.936028 
L 329.358633 229.760142 
L 330.341455 231.584255 
L 330.832866 233.408369 
L 331.324277 232.496312 
L 331.815688 228.848085 
L 332.307099 227.023972 
L 332.798509 233.408369 
L 333.781331 235.232482 
L 334.272742 231.584255 
L 334.764153 230.672199 
L 335.255564 227.023972 
L 335.746975 227.936028 
L 336.729796 226.111915 
L 337.221207 224.287801 
L 337.712618 221.551631 
L 338.204029 217.903404 
L 338.69544 215.167234 
L 339.186851 216.991348 
L 339.678262 217.903404 
L 340.169672 217.903404 
L 340.661083 218.815461 
L 341.152494 218.815461 
L 341.643905 217.903404 
L 342.135316 219.727518 
L 342.626727 219.727518 
L 343.118138 220.639574 
L 343.609548 222.463688 
L 344.100959 220.639574 
L 344.59237 223.375745 
L 345.083781 221.551631 
L 345.575192 221.551631 
L 346.066603 223.375745 
L 347.049424 233.408369 
L 347.540835 232.496312 
L 348.032246 228.848085 
L 348.523657 228.848085 
L 349.015068 233.408369 
L 349.506479 231.584255 
L 349.99789 234.320426 
L 350.4893 232.496312 
L 350.980711 232.496312 
L 351.472122 231.584255 
L 352.454944 235.232482 
L 352.946355 237.968652 
L 353.437766 239.792766 
L 353.929177 239.792766 
L 354.911998 241.616879 
L 355.403409 237.968652 
L 355.89482 237.968652 
L 356.386231 238.880709 
L 357.369053 237.056596 
L 357.860463 234.320426 
L 358.843285 237.968652 
L 359.334696 236.144539 
L 359.826107 239.792766 
L 360.317518 240.704823 
L 361.300339 238.880709 
L 361.79175 237.056596 
L 362.283161 236.144539 
L 362.774572 238.880709 
L 363.265983 242.528936 
L 363.757394 241.616879 
L 364.248805 244.35305 
L 364.740215 246.177163 
L 365.231626 247.08922 
L 365.723037 248.913333 
L 366.705859 248.913333 
L 367.19727 247.08922 
L 367.688681 249.82539 
L 368.180091 249.82539 
L 368.671502 248.001277 
L 369.162913 248.001277 
L 369.654324 247.08922 
L 370.637146 248.913333 
L 371.128557 246.177163 
L 372.111378 248.001277 
L 372.602789 249.82539 
L 373.0942 249.82539 
L 373.585611 247.08922 
L 374.077022 250.737447 
L 374.568433 250.737447 
L 375.551254 248.913333 
L 376.042665 246.177163 
L 377.025487 249.82539 
L 378.008309 248.001277 
L 378.49972 242.528936 
L 378.99113 243.440993 
L 379.482541 238.880709 
L 379.973952 239.792766 
L 380.465363 239.792766 
L 380.956774 242.528936 
L 381.448185 242.528936 
L 381.939596 243.440993 
L 382.431006 241.616879 
L 382.922417 242.528936 
L 383.413828 242.528936 
L 383.905239 241.616879 
L 384.39665 242.528936 
L 384.888061 244.35305 
L 385.379472 244.35305 
L 385.870883 247.08922 
L 386.362293 248.001277 
L 386.853704 246.177163 
L 387.345115 246.177163 
L 388.327937 248.001277 
L 388.819348 246.177163 
L 389.310759 243.440993 
L 389.802169 242.528936 
L 390.29358 244.35305 
L 390.784991 244.35305 
L 392.259224 238.880709 
L 392.750635 238.880709 
L 393.242045 242.528936 
L 393.733456 240.704823 
L 394.224867 244.35305 
L 394.716278 246.177163 
L 395.6991 242.528936 
L 397.173332 245.265106 
L 397.664743 243.440993 
L 398.647565 241.616879 
L 399.138976 239.792766 
L 399.630387 240.704823 
L 400.121798 240.704823 
L 400.613208 239.792766 
L 401.104619 239.792766 
L 401.59603 238.880709 
L 402.087441 235.232482 
L 402.578852 232.496312 
L 403.561674 236.144539 
L 404.544495 241.616879 
L 405.035906 241.616879 
L 405.527317 245.265106 
L 406.018728 244.35305 
L 406.510139 244.35305 
L 407.00155 245.265106 
L 407.49296 244.35305 
L 408.475782 244.35305 
L 408.967193 245.265106 
L 409.458604 242.528936 
L 410.441426 244.35305 
L 410.932836 244.35305 
L 411.424247 246.177163 
L 411.915658 246.177163 
L 412.89848 251.649504 
L 413.881302 255.29773 
L 414.372713 254.385674 
L 414.864123 254.385674 
L 415.355534 252.56156 
L 415.846945 252.56156 
L 416.338356 254.385674 
L 416.829767 258.945957 
L 417.321178 260.770071 
L 417.812589 259.858014 
L 418.303999 259.858014 
L 418.79541 258.945957 
L 419.286821 256.209787 
L 419.778232 254.385674 
L 420.269643 254.385674 
L 420.761054 255.29773 
L 421.252465 255.29773 
L 421.743875 256.209787 
L 422.726697 259.858014 
L 423.218108 259.858014 
L 423.709519 258.033901 
L 424.692341 261.682128 
L 425.675162 259.858014 
L 428.132217 259.858014 
L 428.623628 258.033901 
L 429.115038 260.770071 
L 429.606449 259.858014 
L 430.09786 260.770071 
L 430.589271 260.770071 
L 431.080682 262.594184 
L 431.080682 262.594184 
" clip-path="url(#pf93759b506)" style="fill: none; stroke-dasharray: 1.85,0.8; stroke-dashoffset: 0; stroke: #8000ff; stroke-width: 0.5"/>
   </g>
   <g id="line2d_16">
    <path d="M 52.694318 291.78 
L 121.98325 291.78 
L 122.474661 290.867943 
L 124.931715 290.867943 
L 125.423126 289.955887 
L 136.725576 289.955887 
L 137.216986 290.867943 
L 138.691219 290.867943 
L 139.674041 289.04383 
L 140.165452 289.955887 
L 142.131095 289.955887 
L 142.622506 289.04383 
L 145.07956 289.04383 
L 146.062382 287.219716 
L 146.553793 285.395603 
L 147.045204 285.395603 
L 147.536615 284.483546 
L 149.010847 284.483546 
L 151.467901 279.923262 
L 152.450723 279.923262 
L 152.942134 279.011206 
L 153.433545 279.011206 
L 153.924956 279.923262 
L 154.907777 279.923262 
L 155.399188 279.011206 
L 155.890599 279.011206 
L 156.873421 277.187092 
L 157.364832 277.187092 
L 157.856243 276.275035 
L 158.347653 273.538865 
L 159.330475 273.538865 
L 159.821886 270.802695 
L 160.804708 272.626809 
L 161.296119 274.450922 
L 161.78753 273.538865 
L 162.27894 273.538865 
L 162.770351 270.802695 
L 163.261762 269.890638 
L 164.735995 269.890638 
L 165.227406 268.978582 
L 165.718816 268.978582 
L 166.701638 267.154468 
L 168.175871 267.154468 
L 170.141514 263.506241 
L 170.632925 263.506241 
L 171.124336 262.594184 
L 172.107158 262.594184 
L 172.598568 263.506241 
L 173.089979 265.330355 
L 173.58139 263.506241 
L 174.072801 263.506241 
L 174.564212 266.242411 
L 175.055623 261.682128 
L 175.547034 258.945957 
L 176.529855 255.29773 
L 177.021266 251.649504 
L 177.512677 248.913333 
L 178.004088 247.08922 
L 178.98691 245.265106 
L 179.478321 246.177163 
L 179.969731 243.440993 
L 180.461142 241.616879 
L 180.952553 240.704823 
L 181.443964 240.704823 
L 181.935375 239.792766 
L 182.426786 239.792766 
L 182.918197 238.880709 
L 183.409607 233.408369 
L 183.901018 235.232482 
L 184.392429 236.144539 
L 184.88384 237.968652 
L 185.375251 234.320426 
L 185.866662 235.232482 
L 186.358073 235.232482 
L 187.832305 229.760142 
L 188.323716 227.023972 
L 188.815127 227.023972 
L 189.306538 226.111915 
L 189.797949 227.936028 
L 190.28936 228.848085 
L 190.78077 228.848085 
L 191.272181 229.760142 
L 191.763592 233.408369 
L 192.255003 237.968652 
L 192.746414 238.880709 
L 193.237825 237.056596 
L 194.220646 235.232482 
L 194.712057 236.144539 
L 195.203468 235.232482 
L 195.694879 235.232482 
L 196.18629 234.320426 
L 196.677701 232.496312 
L 197.169112 228.848085 
L 197.660522 227.023972 
L 198.151933 230.672199 
L 198.643344 227.023972 
L 199.134755 225.199858 
L 199.626166 225.199858 
L 200.117577 226.111915 
L 200.608988 225.199858 
L 201.100398 221.551631 
L 201.591809 222.463688 
L 202.08322 221.551631 
L 202.574631 223.375745 
L 203.066042 223.375745 
L 203.557453 220.639574 
L 204.048864 218.815461 
L 204.540274 219.727518 
L 205.031685 219.727518 
L 205.523096 218.815461 
L 206.014507 219.727518 
L 206.505918 218.815461 
L 206.997329 215.167234 
L 207.980151 215.167234 
L 208.471561 216.079291 
L 209.454383 214.255177 
L 210.437205 216.079291 
L 210.928616 215.167234 
L 211.911437 218.815461 
L 212.402848 216.991348 
L 212.894259 218.815461 
L 213.38567 221.551631 
L 213.877081 222.463688 
L 214.368492 219.727518 
L 214.859903 221.551631 
L 215.351313 222.463688 
L 215.842724 221.551631 
L 216.334135 222.463688 
L 216.825546 224.287801 
L 217.316957 222.463688 
L 217.808368 226.111915 
L 218.299779 224.287801 
L 218.791189 225.199858 
L 219.2826 225.199858 
L 219.774011 224.287801 
L 220.265422 226.111915 
L 220.756833 221.551631 
L 221.739655 221.551631 
L 223.213887 224.287801 
L 223.705298 223.375745 
L 224.196709 225.199858 
L 224.68812 226.111915 
L 225.179531 225.199858 
L 225.670942 225.199858 
L 226.162352 218.815461 
L 226.653763 218.815461 
L 227.145174 221.551631 
L 227.636585 221.551631 
L 228.127996 218.815461 
L 228.619407 217.903404 
L 229.110818 220.639574 
L 230.093639 218.815461 
L 230.58505 223.375745 
L 231.076461 221.551631 
L 232.059283 219.727518 
L 233.042104 221.551631 
L 233.533515 220.639574 
L 234.024926 218.815461 
L 234.516337 219.727518 
L 235.007748 216.991348 
L 235.499159 221.551631 
L 235.99057 221.551631 
L 236.481981 223.375745 
L 236.973391 221.551631 
L 237.464802 222.463688 
L 237.956213 219.727518 
L 238.447624 219.727518 
L 238.939035 217.903404 
L 239.430446 219.727518 
L 240.413267 219.727518 
L 240.904678 223.375745 
L 241.8875 223.375745 
L 242.378911 224.287801 
L 242.870322 224.287801 
L 243.361733 223.375745 
L 243.853143 217.903404 
L 244.344554 216.079291 
L 245.327376 214.255177 
L 245.818787 216.079291 
L 246.310198 213.343121 
L 246.801609 214.255177 
L 247.293019 210.60695 
L 247.78443 208.782837 
L 248.275841 208.782837 
L 248.767252 209.694894 
L 249.258663 208.782837 
L 249.750074 209.694894 
L 250.732896 206.046667 
L 251.715717 204.222553 
L 252.207128 201.486383 
L 252.698539 204.222553 
L 253.18995 204.222553 
L 253.681361 208.782837 
L 254.172772 206.958723 
L 254.664182 208.782837 
L 255.155593 206.958723 
L 255.647004 207.87078 
L 256.138415 207.87078 
L 256.629826 205.13461 
L 257.121237 203.310496 
L 257.612648 205.13461 
L 258.104058 203.310496 
L 258.595469 206.958723 
L 259.08688 205.13461 
L 259.578291 201.486383 
L 260.069702 201.486383 
L 260.561113 198.750213 
L 261.052524 198.750213 
L 261.543934 197.838156 
L 262.035345 197.838156 
L 262.526756 200.574326 
L 263.018167 202.39844 
L 263.509578 202.39844 
L 264.4924 206.046667 
L 264.983811 206.046667 
L 265.475221 206.958723 
L 265.966632 209.694894 
L 266.949454 211.519007 
L 267.440865 206.046667 
L 267.932276 206.046667 
L 268.423687 204.222553 
L 268.915097 205.13461 
L 269.406508 202.39844 
L 269.897919 205.13461 
L 270.38933 205.13461 
L 270.880741 206.046667 
L 271.863563 209.694894 
L 272.354973 209.694894 
L 272.846384 214.255177 
L 273.829206 214.255177 
L 274.320617 218.815461 
L 274.812028 216.079291 
L 275.303439 217.903404 
L 275.794849 220.639574 
L 276.28626 218.815461 
L 277.269082 220.639574 
L 277.760493 218.815461 
L 278.251904 219.727518 
L 278.743315 219.727518 
L 279.234726 218.815461 
L 279.726136 216.991348 
L 280.217547 216.991348 
L 280.708958 216.079291 
L 281.200369 216.991348 
L 281.69178 218.815461 
L 282.183191 221.551631 
L 282.674602 219.727518 
L 283.166012 218.815461 
L 283.657423 216.991348 
L 284.148834 216.079291 
L 284.640245 212.431064 
L 285.131656 213.343121 
L 285.623067 210.60695 
L 286.114478 209.694894 
L 286.605888 206.958723 
L 287.097299 205.13461 
L 287.58871 200.574326 
L 288.080121 200.574326 
L 288.571532 204.222553 
L 289.062943 199.66227 
L 289.554354 204.222553 
L 290.537175 204.222553 
L 291.028586 206.046667 
L 291.519997 206.958723 
L 292.011408 205.13461 
L 292.502819 206.046667 
L 292.99423 206.046667 
L 293.48564 200.574326 
L 293.977051 198.750213 
L 294.468462 199.66227 
L 294.959873 197.838156 
L 295.451284 197.838156 
L 295.942695 198.750213 
L 296.434106 196.014043 
L 296.925517 196.926099 
L 297.416927 198.750213 
L 297.908338 198.750213 
L 298.399749 199.66227 
L 298.89116 199.66227 
L 299.382571 204.222553 
L 299.873982 204.222553 
L 300.365393 206.046667 
L 302.331036 209.694894 
L 302.822447 207.87078 
L 303.313858 207.87078 
L 303.805269 209.694894 
L 304.296679 206.046667 
L 304.78809 206.046667 
L 305.279501 205.13461 
L 305.770912 207.87078 
L 306.262323 209.694894 
L 306.753734 209.694894 
L 307.245145 208.782837 
L 307.736555 206.046667 
L 308.227966 209.694894 
L 308.719377 208.782837 
L 310.19361 211.519007 
L 310.685021 210.60695 
L 311.667842 216.079291 
L 312.159253 216.079291 
L 312.650664 215.167234 
L 313.142075 216.079291 
L 313.633486 218.815461 
L 314.124897 218.815461 
L 314.616308 217.903404 
L 315.599129 219.727518 
L 316.09054 218.815461 
L 316.581951 219.727518 
L 317.073362 222.463688 
L 317.564773 221.551631 
L 318.056184 217.903404 
L 318.547594 221.551631 
L 319.039005 220.639574 
L 320.021827 222.463688 
L 320.513238 222.463688 
L 321.004649 220.639574 
L 321.98747 224.287801 
L 322.970292 220.639574 
L 323.461703 223.375745 
L 323.953114 223.375745 
L 324.444525 224.287801 
L 324.935936 223.375745 
L 325.427347 225.199858 
L 325.918757 225.199858 
L 326.410168 222.463688 
L 326.901579 222.463688 
L 327.39299 223.375745 
L 327.884401 223.375745 
L 328.375812 224.287801 
L 329.358633 224.287801 
L 330.341455 226.111915 
L 330.832866 227.936028 
L 331.815688 229.760142 
L 332.307099 231.584255 
L 332.798509 236.144539 
L 333.28992 233.408369 
L 333.781331 236.144539 
L 334.272742 236.144539 
L 334.764153 237.056596 
L 335.746975 235.232482 
L 336.238385 232.496312 
L 336.729796 231.584255 
L 337.712618 239.792766 
L 338.204029 237.968652 
L 338.69544 239.792766 
L 339.678262 239.792766 
L 340.169672 238.880709 
L 340.661083 234.320426 
L 341.152494 236.144539 
L 341.643905 237.056596 
L 342.135316 237.056596 
L 342.626727 234.320426 
L 343.118138 230.672199 
L 343.609548 230.672199 
L 344.100959 233.408369 
L 345.083781 233.408369 
L 345.575192 230.672199 
L 346.066603 230.672199 
L 346.558014 228.848085 
L 347.049424 230.672199 
L 347.540835 228.848085 
L 349.015068 231.584255 
L 349.506479 231.584255 
L 349.99789 230.672199 
L 350.980711 232.496312 
L 351.472122 232.496312 
L 351.963533 231.584255 
L 352.946355 231.584255 
L 353.437766 230.672199 
L 353.929177 230.672199 
L 354.420587 229.760142 
L 354.911998 227.936028 
L 355.403409 231.584255 
L 355.89482 226.111915 
L 356.386231 227.023972 
L 356.877642 227.023972 
L 357.369053 228.848085 
L 357.860463 233.408369 
L 358.843285 231.584255 
L 359.334696 231.584255 
L 359.826107 228.848085 
L 360.317518 227.936028 
L 360.808929 225.199858 
L 362.774572 225.199858 
L 363.265983 223.375745 
L 363.757394 220.639574 
L 364.248805 216.079291 
L 364.740215 218.815461 
L 365.231626 216.991348 
L 365.723037 218.815461 
L 366.705859 220.639574 
L 367.19727 220.639574 
L 367.688681 223.375745 
L 368.180091 223.375745 
L 368.671502 224.287801 
L 369.162913 223.375745 
L 370.145735 227.023972 
L 370.637146 232.496312 
L 371.128557 232.496312 
L 371.619968 230.672199 
L 372.111378 230.672199 
L 372.602789 227.936028 
L 373.0942 228.848085 
L 374.077022 225.199858 
L 374.568433 226.111915 
L 375.059844 230.672199 
L 375.551254 232.496312 
L 376.042665 233.408369 
L 376.534076 232.496312 
L 377.025487 233.408369 
L 378.008309 238.880709 
L 378.49972 238.880709 
L 378.99113 242.528936 
L 379.482541 240.704823 
L 379.973952 243.440993 
L 380.956774 245.265106 
L 381.448185 243.440993 
L 381.939596 242.528936 
L 382.431006 243.440993 
L 382.922417 245.265106 
L 383.413828 245.265106 
L 383.905239 246.177163 
L 384.39665 245.265106 
L 384.888061 242.528936 
L 385.379472 242.528936 
L 385.870883 240.704823 
L 386.362293 244.35305 
L 386.853704 243.440993 
L 387.345115 245.265106 
L 387.836526 246.177163 
L 388.327937 245.265106 
L 388.819348 247.08922 
L 389.310759 248.001277 
L 389.802169 247.08922 
L 390.29358 248.913333 
L 390.784991 246.177163 
L 391.276402 247.08922 
L 391.767813 248.913333 
L 392.259224 247.08922 
L 392.750635 243.440993 
L 393.242045 245.265106 
L 394.716278 245.265106 
L 395.6991 243.440993 
L 396.681921 245.265106 
L 397.173332 245.265106 
L 397.664743 244.35305 
L 398.647565 246.177163 
L 399.138976 246.177163 
L 399.630387 248.913333 
L 400.121798 248.913333 
L 400.613208 251.649504 
L 401.104619 251.649504 
L 401.59603 252.56156 
L 402.578852 248.913333 
L 403.070263 250.737447 
L 403.561674 251.649504 
L 404.053084 251.649504 
L 404.544495 250.737447 
L 405.035906 248.001277 
L 405.527317 249.82539 
L 406.018728 249.82539 
L 406.510139 247.08922 
L 407.00155 248.001277 
L 407.49296 249.82539 
L 407.984371 248.913333 
L 408.475782 249.82539 
L 408.967193 249.82539 
L 409.458604 248.913333 
L 409.950015 250.737447 
L 410.441426 250.737447 
L 410.932836 253.473617 
L 411.424247 253.473617 
L 411.915658 251.649504 
L 412.407069 251.649504 
L 412.89848 252.56156 
L 413.389891 251.649504 
L 413.881302 249.82539 
L 414.372713 248.913333 
L 414.864123 247.08922 
L 415.355534 244.35305 
L 415.846945 243.440993 
L 416.338356 243.440993 
L 416.829767 246.177163 
L 417.321178 245.265106 
L 417.812589 246.177163 
L 418.303999 246.177163 
L 419.286821 248.001277 
L 419.778232 250.737447 
L 420.269643 250.737447 
L 421.252465 252.56156 
L 421.743875 252.56156 
L 422.235286 253.473617 
L 423.218108 253.473617 
L 423.709519 255.29773 
L 424.20093 256.209787 
L 425.183751 254.385674 
L 425.675162 254.385674 
L 426.166573 252.56156 
L 426.657984 253.473617 
L 427.149395 253.473617 
L 428.132217 251.649504 
L 428.623628 255.29773 
L 429.115038 255.29773 
L 429.606449 257.121844 
L 430.09786 259.858014 
L 430.589271 260.770071 
L 431.080682 262.594184 
L 431.080682 262.594184 
" clip-path="url(#pf93759b506)" style="fill: none; stroke-dasharray: 1.85,0.8; stroke-dashoffset: 0; stroke: #00b5eb; stroke-width: 0.5"/>
   </g>
   <g id="line2d_17">
    <path d="M 52.694318 291.78 
L 134.759932 291.78 
L 135.742754 289.955887 
L 138.199808 289.955887 
L 138.691219 289.04383 
L 144.096738 289.04383 
L 144.588149 288.131773 
L 147.045204 288.131773 
L 147.536615 287.219716 
L 149.502258 287.219716 
L 150.48508 289.04383 
L 150.976491 289.04383 
L 151.467901 287.219716 
L 153.433545 287.219716 
L 154.907777 284.483546 
L 155.399188 284.483546 
L 157.364832 280.835319 
L 157.856243 280.835319 
L 158.347653 279.923262 
L 158.839064 279.923262 
L 159.330475 280.835319 
L 159.821886 279.923262 
L 160.313297 279.923262 
L 160.804708 278.099149 
L 161.78753 278.099149 
L 162.27894 277.187092 
L 162.770351 277.187092 
L 163.261762 275.362979 
L 164.244584 275.362979 
L 164.735995 274.450922 
L 165.718816 274.450922 
L 166.210227 276.275035 
L 167.193049 276.275035 
L 167.68446 275.362979 
L 168.175871 276.275035 
L 169.158692 276.275035 
L 169.650103 277.187092 
L 170.141514 276.275035 
L 171.124336 276.275035 
L 172.107158 278.099149 
L 172.598568 277.187092 
L 173.089979 277.187092 
L 173.58139 276.275035 
L 174.072801 274.450922 
L 174.564212 275.362979 
L 175.055623 274.450922 
L 175.547034 276.275035 
L 177.512677 276.275035 
L 178.004088 277.187092 
L 178.98691 275.362979 
L 179.478321 276.275035 
L 179.969731 276.275035 
L 180.461142 275.362979 
L 180.952553 272.626809 
L 181.443964 271.714752 
L 181.935375 268.978582 
L 182.426786 267.154468 
L 182.918197 264.418298 
L 183.901018 262.594184 
L 185.375251 262.594184 
L 185.866662 263.506241 
L 186.358073 260.770071 
L 186.849483 260.770071 
L 187.340894 261.682128 
L 187.832305 258.945957 
L 188.323716 258.033901 
L 188.815127 258.033901 
L 189.306538 257.121844 
L 189.797949 258.033901 
L 191.763592 258.033901 
L 192.255003 256.209787 
L 192.746414 253.473617 
L 193.729236 251.649504 
L 194.712057 246.177163 
L 195.203468 245.265106 
L 195.694879 248.001277 
L 196.677701 249.82539 
L 197.169112 252.56156 
L 197.660522 254.385674 
L 198.151933 253.473617 
L 198.643344 253.473617 
L 199.134755 252.56156 
L 199.626166 252.56156 
L 200.608988 247.08922 
L 201.100398 248.913333 
L 201.591809 247.08922 
L 202.08322 244.35305 
L 202.574631 246.177163 
L 204.048864 246.177163 
L 204.540274 245.265106 
L 205.031685 243.440993 
L 205.523096 242.528936 
L 206.014507 239.792766 
L 206.505918 239.792766 
L 206.997329 238.880709 
L 207.48874 237.056596 
L 207.980151 238.880709 
L 208.471561 237.968652 
L 208.962972 238.880709 
L 209.454383 240.704823 
L 209.945794 241.616879 
L 210.437205 240.704823 
L 210.928616 238.880709 
L 211.420027 238.880709 
L 212.402848 233.408369 
L 213.38567 231.584255 
L 213.877081 229.760142 
L 214.368492 228.848085 
L 214.859903 230.672199 
L 215.351313 231.584255 
L 215.842724 230.672199 
L 216.334135 232.496312 
L 216.825546 235.232482 
L 217.316957 236.144539 
L 217.808368 236.144539 
L 218.299779 237.968652 
L 218.791189 236.144539 
L 219.2826 237.056596 
L 219.774011 237.056596 
L 220.265422 234.320426 
L 220.756833 236.144539 
L 221.248244 237.056596 
L 221.739655 239.792766 
L 222.231066 245.265106 
L 222.722476 243.440993 
L 223.213887 246.177163 
L 223.705298 246.177163 
L 224.196709 243.440993 
L 224.68812 241.616879 
L 225.670942 241.616879 
L 226.162352 242.528936 
L 226.653763 245.265106 
L 227.145174 246.177163 
L 227.636585 246.177163 
L 228.127996 244.35305 
L 228.619407 245.265106 
L 229.110818 243.440993 
L 229.602228 239.792766 
L 230.093639 240.704823 
L 230.58505 242.528936 
L 231.076461 240.704823 
L 231.567872 240.704823 
L 232.059283 239.792766 
L 232.550694 241.616879 
L 233.042104 237.968652 
L 233.533515 238.880709 
L 234.024926 237.968652 
L 234.516337 236.144539 
L 235.007748 238.880709 
L 235.499159 238.880709 
L 235.99057 235.232482 
L 236.481981 235.232482 
L 236.973391 233.408369 
L 238.447624 233.408369 
L 240.413267 237.056596 
L 240.904678 233.408369 
L 241.396089 231.584255 
L 241.8875 228.848085 
L 242.378911 227.936028 
L 242.870322 228.848085 
L 243.361733 226.111915 
L 243.853143 228.848085 
L 244.344554 230.672199 
L 244.835965 229.760142 
L 245.327376 226.111915 
L 245.818787 226.111915 
L 246.310198 223.375745 
L 246.801609 224.287801 
L 247.293019 219.727518 
L 248.275841 223.375745 
L 248.767252 223.375745 
L 249.258663 224.287801 
L 249.750074 224.287801 
L 250.241485 225.199858 
L 250.732896 228.848085 
L 251.715717 227.023972 
L 252.207128 227.023972 
L 252.698539 220.639574 
L 253.18995 216.991348 
L 253.681361 219.727518 
L 254.172772 218.815461 
L 254.664182 213.343121 
L 255.155593 214.255177 
L 255.647004 214.255177 
L 256.138415 212.431064 
L 256.629826 216.079291 
L 257.612648 217.903404 
L 258.104058 216.991348 
L 258.595469 216.991348 
L 259.08688 217.903404 
L 259.578291 216.991348 
L 260.069702 219.727518 
L 260.561113 217.903404 
L 261.052524 218.815461 
L 261.543934 215.167234 
L 262.035345 216.991348 
L 262.526756 214.255177 
L 263.018167 213.343121 
L 263.509578 210.60695 
L 264.000989 211.519007 
L 264.983811 207.87078 
L 265.966632 198.750213 
L 266.458043 198.750213 
L 266.949454 194.189929 
L 267.440865 197.838156 
L 267.932276 196.014043 
L 268.423687 191.453759 
L 268.915097 189.629645 
L 269.406508 190.541702 
L 269.897919 187.805532 
L 270.38933 190.541702 
L 270.880741 191.453759 
L 271.372152 191.453759 
L 271.863563 194.189929 
L 272.354973 194.189929 
L 272.846384 197.838156 
L 273.337795 196.926099 
L 273.829206 194.189929 
L 274.320617 192.365816 
L 274.812028 189.629645 
L 275.303439 190.541702 
L 275.794849 188.717589 
L 276.28626 191.453759 
L 276.777671 192.365816 
L 277.269082 194.189929 
L 277.760493 191.453759 
L 278.251904 191.453759 
L 278.743315 193.277872 
L 279.234726 193.277872 
L 279.726136 189.629645 
L 280.217547 191.453759 
L 280.708958 190.541702 
L 281.200369 190.541702 
L 281.69178 191.453759 
L 282.183191 191.453759 
L 282.674602 197.838156 
L 283.657423 199.66227 
L 284.148834 198.750213 
L 284.640245 201.486383 
L 285.131656 199.66227 
L 285.623067 198.750213 
L 286.114478 196.014043 
L 286.605888 190.541702 
L 287.097299 186.893475 
L 287.58871 177.772908 
L 288.080121 174.124681 
L 288.571532 174.124681 
L 289.062943 172.300567 
L 289.554354 175.948794 
L 290.045764 176.860851 
L 290.537175 174.124681 
L 291.028586 174.124681 
L 291.519997 175.948794 
L 292.011408 176.860851 
L 292.502819 179.597021 
L 292.99423 183.245248 
L 293.48564 182.333191 
L 293.977051 182.333191 
L 294.468462 187.805532 
L 294.959873 186.893475 
L 295.451284 190.541702 
L 295.942695 185.069362 
L 296.434106 184.157305 
L 296.925517 181.421135 
L 297.416927 173.212624 
L 297.908338 174.124681 
L 298.399749 165.91617 
L 298.89116 169.564397 
L 299.382571 165.91617 
L 299.873982 166.828227 
L 300.365393 169.564397 
L 300.856803 173.212624 
L 301.348214 171.388511 
L 302.331036 183.245248 
L 302.822447 188.717589 
L 303.313858 187.805532 
L 303.805269 189.629645 
L 304.296679 185.069362 
L 304.78809 183.245248 
L 305.279501 175.036738 
L 305.770912 170.476454 
L 306.262323 163.18 
L 306.753734 161.355887 
L 307.736555 159.531773 
L 308.227966 159.531773 
L 308.719377 158.619716 
L 309.210788 149.499149 
L 309.702199 148.587092 
L 310.19361 144.026809 
L 310.685021 146.762979 
L 311.176432 150.411206 
L 311.667842 150.411206 
L 312.159253 155.883546 
L 312.650664 156.795603 
L 313.142075 160.44383 
L 314.124897 150.411206 
L 314.616308 152.235319 
L 315.599129 146.762979 
L 316.09054 149.499149 
L 316.581951 145.850922 
L 317.073362 149.499149 
L 317.564773 144.026809 
L 318.056184 143.114752 
L 318.547594 141.290638 
L 319.039005 136.730355 
L 319.530416 138.554468 
L 320.021827 152.235319 
L 320.513238 151.323262 
L 321.004649 151.323262 
L 321.49606 154.059433 
L 321.98747 147.675035 
L 322.970292 145.850922 
L 323.461703 147.675035 
L 323.953114 148.587092 
L 324.935936 154.059433 
L 325.427347 157.70766 
L 326.410168 155.883546 
L 326.901579 157.70766 
L 327.39299 157.70766 
L 327.884401 165.004113 
L 328.375812 165.004113 
L 328.867223 173.212624 
L 329.358633 169.564397 
L 329.850044 167.740284 
L 330.341455 165.004113 
L 330.832866 168.65234 
L 331.815688 166.828227 
L 332.307099 166.828227 
L 332.798509 174.124681 
L 333.28992 177.772908 
L 333.781331 180.509078 
L 334.272742 180.509078 
L 334.764153 179.597021 
L 335.255564 183.245248 
L 335.746975 185.981418 
L 336.238385 185.069362 
L 336.729796 189.629645 
L 337.221207 191.453759 
L 337.712618 188.717589 
L 338.204029 187.805532 
L 338.69544 196.014043 
L 339.186851 195.101986 
L 339.678262 197.838156 
L 340.169672 197.838156 
L 340.661083 199.66227 
L 341.152494 202.39844 
L 341.643905 196.926099 
L 342.135316 196.926099 
L 342.626727 194.189929 
L 343.118138 199.66227 
L 343.609548 197.838156 
L 344.100959 198.750213 
L 344.59237 196.926099 
L 345.083781 198.750213 
L 345.575192 196.926099 
L 346.066603 194.189929 
L 346.558014 195.101986 
L 347.540835 185.069362 
L 348.523657 179.597021 
L 349.015068 174.124681 
L 349.506479 171.388511 
L 349.99789 170.476454 
L 350.4893 174.124681 
L 350.980711 171.388511 
L 351.472122 170.476454 
L 351.963533 164.092057 
L 352.454944 165.004113 
L 352.946355 164.092057 
L 353.437766 157.70766 
L 354.420587 161.355887 
L 354.911998 162.267943 
L 355.403409 160.44383 
L 355.89482 160.44383 
L 356.386231 162.267943 
L 356.877642 161.355887 
L 357.369053 163.18 
L 358.351874 163.18 
L 358.843285 164.092057 
L 359.826107 174.124681 
L 360.317518 173.212624 
L 360.808929 176.860851 
L 361.300339 173.212624 
L 361.79175 183.245248 
L 362.283161 185.981418 
L 362.774572 185.981418 
L 363.757394 193.277872 
L 364.248805 193.277872 
L 364.740215 195.101986 
L 365.231626 191.453759 
L 365.723037 196.014043 
L 366.214448 198.750213 
L 366.705859 202.39844 
L 367.19727 200.574326 
L 367.688681 204.222553 
L 368.180091 206.958723 
L 368.671502 205.13461 
L 369.162913 202.39844 
L 369.654324 201.486383 
L 370.145735 203.310496 
L 370.637146 203.310496 
L 371.128557 206.958723 
L 373.0942 206.958723 
L 373.585611 205.13461 
L 374.077022 200.574326 
L 374.568433 198.750213 
L 375.059844 202.39844 
L 375.551254 204.222553 
L 376.042665 206.958723 
L 376.534076 199.66227 
L 377.025487 196.926099 
L 377.516898 198.750213 
L 378.008309 201.486383 
L 378.49972 200.574326 
L 378.99113 202.39844 
L 379.482541 203.310496 
L 379.973952 200.574326 
L 380.465363 195.101986 
L 381.448185 195.101986 
L 381.939596 198.750213 
L 382.431006 191.453759 
L 383.413828 195.101986 
L 383.905239 196.014043 
L 384.39665 193.277872 
L 384.888061 192.365816 
L 385.379472 196.014043 
L 385.870883 194.189929 
L 386.362293 195.101986 
L 386.853704 193.277872 
L 387.345115 185.981418 
L 387.836526 187.805532 
L 388.327937 190.541702 
L 388.819348 195.101986 
L 389.310759 193.277872 
L 389.802169 190.541702 
L 390.29358 192.365816 
L 390.784991 191.453759 
L 391.276402 195.101986 
L 391.767813 196.014043 
L 392.259224 196.014043 
L 392.750635 196.926099 
L 393.733456 195.101986 
L 394.224867 195.101986 
L 394.716278 201.486383 
L 395.207689 205.13461 
L 395.6991 201.486383 
L 396.190511 202.39844 
L 396.681921 204.222553 
L 397.173332 209.694894 
L 397.664743 207.87078 
L 398.156154 205.13461 
L 398.647565 203.310496 
L 399.138976 202.39844 
L 399.630387 203.310496 
L 400.121798 203.310496 
L 400.613208 206.958723 
L 401.104619 204.222553 
L 401.59603 204.222553 
L 402.087441 210.60695 
L 402.578852 209.694894 
L 403.070263 211.519007 
L 403.561674 211.519007 
L 404.053084 213.343121 
L 404.544495 213.343121 
L 405.035906 206.958723 
L 405.527317 205.13461 
L 406.018728 207.87078 
L 406.510139 206.958723 
L 407.00155 210.60695 
L 407.49296 211.519007 
L 407.984371 213.343121 
L 408.475782 211.519007 
L 408.967193 212.431064 
L 409.458604 209.694894 
L 409.950015 209.694894 
L 410.441426 215.167234 
L 410.932836 213.343121 
L 411.424247 213.343121 
L 411.915658 210.60695 
L 412.407069 210.60695 
L 412.89848 213.343121 
L 413.389891 213.343121 
L 413.881302 216.079291 
L 414.372713 214.255177 
L 414.864123 208.782837 
L 415.355534 208.782837 
L 416.338356 216.991348 
L 416.829767 217.903404 
L 417.321178 216.079291 
L 418.303999 216.079291 
L 418.79541 209.694894 
L 419.286821 206.046667 
L 419.778232 210.60695 
L 420.269643 211.519007 
L 420.761054 209.694894 
L 421.252465 210.60695 
L 421.743875 209.694894 
L 422.235286 206.958723 
L 422.726697 210.60695 
L 423.218108 211.519007 
L 423.709519 208.782837 
L 424.20093 211.519007 
L 424.692341 213.343121 
L 425.183751 211.519007 
L 425.675162 214.255177 
L 426.166573 210.60695 
L 426.657984 213.343121 
L 427.149395 216.991348 
L 427.640806 215.167234 
L 428.623628 218.815461 
L 429.115038 222.463688 
L 429.606449 223.375745 
L 430.09786 219.727518 
L 430.589271 217.903404 
L 431.080682 216.991348 
L 431.080682 216.991348 
" clip-path="url(#pf93759b506)" style="fill: none; stroke-dasharray: 1.85,0.8; stroke-dashoffset: 0; stroke: #80ffb4; stroke-width: 0.5"/>
   </g>
   <g id="line2d_18">
    <path d="M 52.694318 291.78 
L 134.759932 291.78 
L 135.251343 290.867943 
L 147.045204 290.867943 
L 147.536615 289.955887 
L 148.028025 289.955887 
L 148.519436 289.04383 
L 149.502258 289.04383 
L 149.993669 289.955887 
L 151.959312 289.955887 
L 152.450723 289.04383 
L 154.907777 289.04383 
L 155.399188 288.131773 
L 158.839064 288.131773 
L 159.330475 287.219716 
L 161.296119 287.219716 
L 161.78753 286.30766 
L 162.27894 287.219716 
L 162.770351 287.219716 
L 163.261762 288.131773 
L 164.244584 288.131773 
L 164.735995 287.219716 
L 165.227406 287.219716 
L 165.718816 286.30766 
L 166.210227 286.30766 
L 166.701638 285.395603 
L 167.193049 286.30766 
L 168.175871 284.483546 
L 168.667282 284.483546 
L 169.158692 283.571489 
L 170.632925 283.571489 
L 171.124336 282.659433 
L 172.107158 282.659433 
L 172.598568 281.747376 
L 173.58139 281.747376 
L 174.072801 282.659433 
L 174.564212 280.835319 
L 175.547034 279.011206 
L 176.038445 279.011206 
L 176.529855 279.923262 
L 177.021266 279.923262 
L 177.512677 278.099149 
L 178.004088 277.187092 
L 178.98691 277.187092 
L 179.478321 278.099149 
L 180.461142 278.099149 
L 180.952553 277.187092 
L 181.443964 277.187092 
L 181.935375 276.275035 
L 182.918197 278.099149 
L 183.409607 272.626809 
L 184.392429 272.626809 
L 184.88384 271.714752 
L 185.375251 269.890638 
L 186.358073 264.418298 
L 186.849483 260.770071 
L 187.340894 261.682128 
L 187.832305 259.858014 
L 188.323716 254.385674 
L 188.815127 252.56156 
L 189.306538 251.649504 
L 189.797949 251.649504 
L 190.78077 248.001277 
L 191.272181 245.265106 
L 191.763592 241.616879 
L 192.255003 240.704823 
L 192.746414 241.616879 
L 193.729236 241.616879 
L 194.220646 237.968652 
L 195.203468 234.320426 
L 195.694879 231.584255 
L 196.18629 231.584255 
L 196.677701 230.672199 
L 197.169112 228.848085 
L 197.660522 228.848085 
L 198.151933 233.408369 
L 198.643344 230.672199 
L 199.134755 228.848085 
L 199.626166 228.848085 
L 200.117577 227.023972 
L 200.608988 230.672199 
L 201.100398 231.584255 
L 201.591809 233.408369 
L 202.08322 230.672199 
L 202.574631 229.760142 
L 203.557453 233.408369 
L 204.048864 234.320426 
L 204.540274 231.584255 
L 205.031685 230.672199 
L 205.523096 230.672199 
L 206.014507 227.936028 
L 206.505918 231.584255 
L 206.997329 227.023972 
L 207.48874 227.023972 
L 207.980151 221.551631 
L 208.471561 217.903404 
L 208.962972 221.551631 
L 209.454383 219.727518 
L 209.945794 215.167234 
L 210.437205 218.815461 
L 210.928616 208.782837 
L 211.420027 208.782837 
L 211.911437 210.60695 
L 212.402848 206.958723 
L 212.894259 201.486383 
L 215.842724 201.486383 
L 216.334135 203.310496 
L 216.825546 202.39844 
L 217.316957 199.66227 
L 218.299779 192.365816 
L 218.791189 186.893475 
L 219.2826 188.717589 
L 219.774011 186.893475 
L 220.265422 183.245248 
L 220.756833 188.717589 
L 221.248244 187.805532 
L 221.739655 191.453759 
L 222.231066 187.805532 
L 222.722476 193.277872 
L 223.705298 189.629645 
L 224.196709 189.629645 
L 224.68812 196.926099 
L 225.179531 196.926099 
L 225.670942 206.046667 
L 226.162352 207.87078 
L 226.653763 207.87078 
L 227.145174 209.694894 
L 227.636585 212.431064 
L 228.127996 212.431064 
L 228.619407 208.782837 
L 229.110818 206.958723 
L 229.602228 208.782837 
L 230.093639 203.310496 
L 230.58505 205.13461 
L 231.076461 201.486383 
L 231.567872 203.310496 
L 232.059283 206.958723 
L 232.550694 212.431064 
L 233.042104 216.079291 
L 233.533515 221.551631 
L 234.024926 216.079291 
L 234.516337 217.903404 
L 235.007748 217.903404 
L 235.499159 216.079291 
L 235.99057 215.167234 
L 236.481981 216.991348 
L 236.973391 216.991348 
L 237.464802 213.343121 
L 237.956213 215.167234 
L 238.447624 206.046667 
L 238.939035 206.046667 
L 239.430446 202.39844 
L 239.921857 195.101986 
L 240.413267 193.277872 
L 240.904678 193.277872 
L 241.396089 187.805532 
L 241.8875 185.069362 
L 243.361733 196.014043 
L 243.853143 196.014043 
L 244.835965 199.66227 
L 245.327376 196.014043 
L 245.818787 193.277872 
L 246.310198 191.453759 
L 246.801609 187.805532 
L 247.293019 187.805532 
L 247.78443 180.509078 
L 248.275841 180.509078 
L 248.767252 182.333191 
L 249.258663 180.509078 
L 249.750074 185.981418 
L 250.732896 185.981418 
L 251.224306 187.805532 
L 251.715717 185.981418 
L 252.207128 182.333191 
L 252.698539 176.860851 
L 253.18995 184.157305 
L 254.172772 187.805532 
L 254.664182 193.277872 
L 255.155593 193.277872 
L 255.647004 187.805532 
L 256.138415 193.277872 
L 256.629826 192.365816 
L 257.121237 188.717589 
L 257.612648 179.597021 
L 258.104058 176.860851 
L 258.595469 178.684965 
L 259.08688 176.860851 
L 259.578291 178.684965 
L 260.069702 173.212624 
L 260.561113 174.124681 
L 261.052524 172.300567 
L 261.543934 175.036738 
L 262.035345 173.212624 
L 262.526756 178.684965 
L 263.018167 175.036738 
L 263.509578 173.212624 
L 264.000989 173.212624 
L 264.983811 162.267943 
L 265.966632 158.619716 
L 266.458043 160.44383 
L 267.440865 175.036738 
L 267.932276 175.036738 
L 268.423687 169.564397 
L 269.406508 169.564397 
L 269.897919 165.91617 
L 270.38933 164.092057 
L 271.372152 164.092057 
L 271.863563 160.44383 
L 272.354973 164.092057 
L 272.846384 168.65234 
L 273.829206 161.355887 
L 274.320617 159.531773 
L 274.812028 165.004113 
L 275.303439 166.828227 
L 275.794849 166.828227 
L 276.28626 165.91617 
L 276.777671 163.18 
L 277.269082 162.267943 
L 277.760493 163.18 
L 278.251904 162.267943 
L 279.234726 158.619716 
L 279.726136 154.059433 
L 280.217547 154.059433 
L 280.708958 155.883546 
L 281.69178 152.235319 
L 282.183191 152.235319 
L 282.674602 144.026809 
L 283.166012 144.026809 
L 283.657423 145.850922 
L 284.148834 143.114752 
L 284.640245 148.587092 
L 285.623067 136.730355 
L 286.114478 139.466525 
L 286.605888 134.906241 
L 287.097299 136.730355 
L 287.58871 132.170071 
L 288.080121 133.994184 
L 288.571532 128.521844 
L 289.062943 130.345957 
L 289.554354 129.433901 
L 290.045764 127.609787 
L 290.537175 133.082128 
L 291.028586 132.170071 
L 291.519997 132.170071 
L 292.011408 134.906241 
L 292.502819 131.258014 
L 292.99423 139.466525 
L 293.48564 140.378582 
L 293.977051 144.026809 
L 294.468462 154.059433 
L 294.959873 154.059433 
L 295.451284 149.499149 
L 295.942695 148.587092 
L 296.434106 150.411206 
L 296.925517 149.499149 
L 297.416927 159.531773 
L 297.908338 155.883546 
L 298.399749 150.411206 
L 298.89116 143.114752 
L 299.382571 144.938865 
L 299.873982 153.147376 
L 300.365393 157.70766 
L 300.856803 154.971489 
L 301.348214 158.619716 
L 301.839625 158.619716 
L 302.331036 161.355887 
L 302.822447 159.531773 
L 303.313858 165.91617 
L 303.805269 158.619716 
L 304.296679 156.795603 
L 304.78809 156.795603 
L 305.770912 153.147376 
L 306.262323 157.70766 
L 306.753734 157.70766 
L 307.245145 164.092057 
L 307.736555 162.267943 
L 308.227966 165.91617 
L 308.719377 160.44383 
L 309.210788 160.44383 
L 309.702199 156.795603 
L 310.19361 159.531773 
L 310.685021 160.44383 
L 311.176432 158.619716 
L 311.667842 154.971489 
L 312.159253 146.762979 
L 312.650664 154.971489 
L 313.633486 165.004113 
L 314.124897 157.70766 
L 314.616308 159.531773 
L 315.107718 155.883546 
L 315.599129 149.499149 
L 316.09054 155.883546 
L 316.581951 151.323262 
L 317.564773 134.906241 
L 318.056184 132.170071 
L 319.039005 139.466525 
L 319.530416 140.378582 
L 320.021827 134.906241 
L 320.513238 141.290638 
L 321.004649 135.818298 
L 321.49606 133.082128 
L 322.478881 125.785674 
L 322.970292 121.22539 
L 323.461703 130.345957 
L 323.953114 127.609787 
L 324.444525 132.170071 
L 324.935936 133.994184 
L 325.427347 133.082128 
L 325.918757 126.69773 
L 326.410168 130.345957 
L 326.901579 134.906241 
L 327.884401 125.785674 
L 328.375812 127.609787 
L 328.867223 132.170071 
L 329.850044 137.642411 
L 330.341455 139.466525 
L 330.832866 137.642411 
L 331.324277 143.114752 
L 331.815688 154.059433 
L 332.798509 164.092057 
L 333.28992 161.355887 
L 334.272742 161.355887 
L 334.764153 163.18 
L 335.255564 163.18 
L 335.746975 165.004113 
L 336.729796 161.355887 
L 337.221207 164.092057 
L 337.712618 165.91617 
L 338.204029 165.91617 
L 338.69544 163.18 
L 339.186851 155.883546 
L 339.678262 153.147376 
L 340.169672 156.795603 
L 340.661083 162.267943 
L 341.152494 162.267943 
L 341.643905 163.18 
L 342.135316 167.740284 
L 342.626727 166.828227 
L 343.118138 165.004113 
L 343.609548 167.740284 
L 344.100959 167.740284 
L 344.59237 168.65234 
L 345.083781 178.684965 
L 345.575192 174.124681 
L 346.558014 170.476454 
L 347.049424 178.684965 
L 347.540835 176.860851 
L 348.032246 182.333191 
L 348.523657 185.069362 
L 349.015068 189.629645 
L 349.506479 187.805532 
L 349.99789 179.597021 
L 350.4893 185.069362 
L 350.980711 182.333191 
L 351.472122 181.421135 
L 352.454944 172.300567 
L 352.946355 169.564397 
L 353.437766 171.388511 
L 353.929177 178.684965 
L 354.420587 178.684965 
L 354.911998 176.860851 
L 355.403409 176.860851 
L 355.89482 174.124681 
L 356.386231 162.267943 
L 356.877642 159.531773 
L 357.369053 162.267943 
L 357.860463 169.564397 
L 358.351874 158.619716 
L 358.843285 155.883546 
L 359.334696 147.675035 
L 359.826107 147.675035 
L 360.317518 149.499149 
L 360.808929 146.762979 
L 361.300339 135.818298 
L 361.79175 129.433901 
L 362.283161 133.082128 
L 362.774572 133.994184 
L 363.265983 131.258014 
L 363.757394 117.577163 
L 364.248805 122.137447 
L 364.740215 130.345957 
L 365.231626 122.137447 
L 365.723037 123.96156 
L 366.214448 123.96156 
L 366.705859 126.69773 
L 367.19727 136.730355 
L 367.688681 133.994184 
L 368.671502 139.466525 
L 369.162913 140.378582 
L 369.654324 139.466525 
L 370.145735 139.466525 
L 370.637146 132.170071 
L 371.128557 143.114752 
L 371.619968 146.762979 
L 372.111378 146.762979 
L 372.602789 144.026809 
L 373.0942 153.147376 
L 373.585611 148.587092 
L 374.077022 153.147376 
L 374.568433 147.675035 
L 375.059844 154.059433 
L 375.551254 158.619716 
L 376.042665 165.004113 
L 376.534076 167.740284 
L 377.025487 167.740284 
L 377.516898 166.828227 
L 378.008309 167.740284 
L 378.49972 181.421135 
L 379.482541 172.300567 
L 379.973952 177.772908 
L 380.465363 177.772908 
L 380.956774 185.981418 
L 381.939596 175.948794 
L 382.431006 170.476454 
L 382.922417 173.212624 
L 383.413828 170.476454 
L 383.905239 165.004113 
L 384.888061 159.531773 
L 385.379472 165.004113 
L 386.362293 152.235319 
L 386.853704 154.971489 
L 387.345115 152.235319 
L 387.836526 152.235319 
L 388.327937 154.059433 
L 388.819348 148.587092 
L 389.310759 148.587092 
L 389.802169 142.202695 
L 390.29358 144.938865 
L 390.784991 151.323262 
L 391.276402 147.675035 
L 391.767813 137.642411 
L 392.259224 140.378582 
L 392.750635 136.730355 
L 393.242045 134.906241 
L 393.733456 136.730355 
L 394.224867 135.818298 
L 394.716278 135.818298 
L 395.207689 138.554468 
L 395.6991 130.345957 
L 396.190511 130.345957 
L 396.681921 131.258014 
L 397.173332 136.730355 
L 397.664743 136.730355 
L 398.156154 133.994184 
L 398.647565 141.290638 
L 399.138976 142.202695 
L 400.121798 147.675035 
L 400.613208 159.531773 
L 401.104619 159.531773 
L 401.59603 154.971489 
L 402.087441 157.70766 
L 402.578852 146.762979 
L 403.070263 147.675035 
L 403.561674 153.147376 
L 404.053084 144.026809 
L 404.544495 143.114752 
L 405.035906 138.554468 
L 405.527317 135.818298 
L 406.018728 141.290638 
L 406.510139 148.587092 
L 407.00155 146.762979 
L 407.49296 152.235319 
L 407.984371 151.323262 
L 408.475782 154.059433 
L 408.967193 152.235319 
L 409.458604 146.762979 
L 409.950015 149.499149 
L 410.441426 154.971489 
L 410.932836 154.971489 
L 411.424247 151.323262 
L 411.915658 154.059433 
L 412.407069 151.323262 
L 412.89848 156.795603 
L 413.389891 152.235319 
L 413.881302 159.531773 
L 414.372713 153.147376 
L 414.864123 150.411206 
L 415.355534 150.411206 
L 415.846945 156.795603 
L 416.338356 151.323262 
L 416.829767 154.059433 
L 417.321178 166.828227 
L 417.812589 171.388511 
L 418.303999 171.388511 
L 418.79541 178.684965 
L 419.286821 175.948794 
L 419.778232 172.300567 
L 420.269643 175.036738 
L 420.761054 171.388511 
L 421.252465 171.388511 
L 421.743875 161.355887 
L 422.235286 154.971489 
L 422.726697 157.70766 
L 423.218108 157.70766 
L 423.709519 159.531773 
L 424.20093 157.70766 
L 424.692341 154.971489 
L 425.183751 148.587092 
L 425.675162 152.235319 
L 426.166573 158.619716 
L 426.657984 161.355887 
L 427.149395 161.355887 
L 427.640806 151.323262 
L 428.132217 155.883546 
L 428.623628 147.675035 
L 429.115038 152.235319 
L 429.606449 154.971489 
L 430.09786 150.411206 
L 430.589271 152.235319 
L 431.080682 158.619716 
L 431.080682 158.619716 
" clip-path="url(#pf93759b506)" style="fill: none; stroke-dasharray: 1.85,0.8; stroke-dashoffset: 0; stroke: #ffb360; stroke-width: 0.5"/>
   </g>
   <g id="line2d_19">
    <path d="M 52.694318 291.78 
L 147.045204 291.78 
L 147.536615 290.867943 
L 151.467901 290.867943 
L 151.959312 289.955887 
L 156.873421 289.955887 
L 157.364832 288.131773 
L 160.804708 288.131773 
L 161.296119 287.219716 
L 162.27894 287.219716 
L 163.753173 284.483546 
L 166.210227 284.483546 
L 166.701638 285.395603 
L 167.193049 285.395603 
L 167.68446 284.483546 
L 169.158692 284.483546 
L 170.632925 281.747376 
L 171.615747 281.747376 
L 172.107158 283.571489 
L 172.598568 283.571489 
L 173.089979 282.659433 
L 177.021266 282.659433 
L 178.495499 285.395603 
L 179.969731 285.395603 
L 180.461142 280.835319 
L 180.952553 279.011206 
L 181.443964 278.099149 
L 181.935375 276.275035 
L 182.426786 277.187092 
L 182.918197 276.275035 
L 183.901018 276.275035 
L 184.392429 277.187092 
L 184.88384 277.187092 
L 185.375251 278.099149 
L 185.866662 278.099149 
L 186.358073 277.187092 
L 186.849483 277.187092 
L 187.340894 275.362979 
L 187.832305 274.450922 
L 188.323716 274.450922 
L 188.815127 270.802695 
L 190.28936 270.802695 
L 191.272181 267.154468 
L 191.763592 266.242411 
L 192.255003 260.770071 
L 193.237825 257.121844 
L 193.729236 257.121844 
L 194.712057 245.265106 
L 195.203468 249.82539 
L 196.677701 249.82539 
L 197.169112 248.001277 
L 197.660522 247.08922 
L 198.151933 245.265106 
L 198.643344 239.792766 
L 199.134755 236.144539 
L 199.626166 235.232482 
L 200.117577 230.672199 
L 200.608988 230.672199 
L 201.100398 227.936028 
L 202.08322 227.936028 
L 202.574631 229.760142 
L 203.066042 229.760142 
L 203.557453 230.672199 
L 205.031685 230.672199 
L 205.523096 233.408369 
L 206.014507 227.936028 
L 206.505918 229.760142 
L 206.997329 232.496312 
L 207.48874 231.584255 
L 207.980151 228.848085 
L 208.471561 227.023972 
L 208.962972 223.375745 
L 209.454383 228.848085 
L 209.945794 216.079291 
L 210.437205 213.343121 
L 211.420027 211.519007 
L 211.911437 213.343121 
L 212.402848 212.431064 
L 212.894259 208.782837 
L 213.38567 214.255177 
L 213.877081 217.903404 
L 214.859903 221.551631 
L 215.842724 217.903404 
L 216.334135 213.343121 
L 216.825546 203.310496 
L 217.316957 200.574326 
L 217.808368 189.629645 
L 218.299779 184.157305 
L 218.791189 180.509078 
L 219.2826 177.772908 
L 219.774011 177.772908 
L 220.265422 172.300567 
L 220.756833 179.597021 
L 221.248244 174.124681 
L 221.739655 174.124681 
L 222.231066 176.860851 
L 222.722476 173.212624 
L 223.213887 172.300567 
L 223.705298 174.124681 
L 224.196709 165.91617 
L 224.68812 175.948794 
L 225.179531 180.509078 
L 225.670942 176.860851 
L 226.162352 179.597021 
L 226.653763 174.124681 
L 228.127996 174.124681 
L 229.110818 168.65234 
L 229.602228 171.388511 
L 230.093639 173.212624 
L 230.58505 175.948794 
L 231.076461 177.772908 
L 231.567872 189.629645 
L 232.059283 186.893475 
L 232.550694 189.629645 
L 233.042104 195.101986 
L 233.533515 190.541702 
L 234.024926 187.805532 
L 234.516337 182.333191 
L 235.007748 179.597021 
L 235.499159 177.772908 
L 235.99057 166.828227 
L 236.973391 161.355887 
L 237.464802 161.355887 
L 237.956213 155.883546 
L 238.447624 161.355887 
L 238.939035 161.355887 
L 239.430446 158.619716 
L 239.921857 158.619716 
L 240.413267 148.587092 
L 240.904678 143.114752 
L 241.396089 148.587092 
L 241.8875 145.850922 
L 242.378911 151.323262 
L 242.870322 145.850922 
L 243.361733 134.906241 
L 244.344554 123.96156 
L 244.835965 123.96156 
L 245.327376 118.48922 
L 246.310198 113.016879 
L 247.293019 118.48922 
L 247.78443 107.544539 
L 248.275841 115.75305 
L 248.767252 110.280709 
L 249.258663 113.016879 
L 249.750074 113.016879 
L 250.241485 112.104823 
L 250.732896 120.313333 
L 251.715717 125.785674 
L 252.207128 125.785674 
L 252.698539 120.313333 
L 253.681361 120.313333 
L 254.172772 125.785674 
L 254.664182 123.049504 
L 255.155593 124.873617 
L 255.647004 127.609787 
L 256.138415 113.928936 
L 257.121237 113.928936 
L 257.612648 111.192766 
L 258.104058 116.665106 
L 258.595469 119.401277 
L 259.08688 117.577163 
L 259.578291 107.544539 
L 260.069702 115.75305 
L 260.561113 115.75305 
L 261.052524 113.016879 
L 261.543934 113.016879 
L 262.035345 107.544539 
L 262.526756 113.016879 
L 263.018167 110.280709 
L 263.509578 115.75305 
L 264.000989 110.280709 
L 264.4924 118.48922 
L 264.983811 110.280709 
L 265.475221 107.544539 
L 265.966632 102.072199 
L 266.458043 93.863688 
L 266.949454 99.336028 
L 267.440865 110.280709 
L 267.932276 104.808369 
L 268.423687 102.072199 
L 268.915097 91.127518 
L 269.406508 88.391348 
L 269.897919 102.072199 
L 270.38933 98.423972 
L 270.880741 112.104823 
L 271.372152 114.840993 
L 271.863563 103.896312 
L 272.354973 97.511915 
L 272.846384 105.720426 
L 273.337795 111.192766 
L 273.829206 113.016879 
L 274.320617 123.049504 
L 274.812028 114.840993 
L 275.794849 120.313333 
L 276.28626 117.577163 
L 276.777671 123.049504 
L 277.269082 123.049504 
L 277.760493 120.313333 
L 278.251904 120.313333 
L 278.743315 125.785674 
L 279.726136 109.368652 
L 280.217547 114.840993 
L 281.200369 120.313333 
L 281.69178 114.840993 
L 282.183191 112.104823 
L 282.674602 112.104823 
L 283.166012 114.840993 
L 283.657423 114.840993 
L 284.148834 112.104823 
L 284.640245 103.896312 
L 285.131656 107.544539 
L 286.114478 96.599858 
L 286.605888 102.072199 
L 287.097299 113.928936 
L 287.58871 111.192766 
L 288.080121 101.160142 
L 288.571532 98.423972 
L 289.062943 84.743121 
L 289.554354 83.831064 
L 290.045764 83.831064 
L 290.537175 81.094894 
L 291.028586 81.094894 
L 291.519997 70.150213 
L 292.011408 75.622553 
L 292.502819 71.974326 
L 292.99423 73.79844 
L 293.48564 71.06227 
L 293.977051 70.150213 
L 294.468462 82.00695 
L 294.959873 87.479291 
L 295.942695 92.951631 
L 296.434106 91.127518 
L 296.925517 90.215461 
L 297.416927 83.831064 
L 298.399749 95.687801 
L 298.89116 94.775745 
L 299.382571 100.248085 
L 299.873982 92.039574 
L 300.365393 87.479291 
L 300.856803 81.094894 
L 301.348214 83.831064 
L 301.839625 81.094894 
L 302.331036 75.622553 
L 302.822447 77.446667 
L 303.313858 72.886383 
L 303.805269 72.886383 
L 304.296679 82.00695 
L 304.78809 66.501986 
L 305.279501 63.765816 
L 305.770912 56.469362 
L 306.262323 67.414043 
L 306.753734 62.853759 
L 307.245145 64.677872 
L 307.736555 65.589929 
L 308.227966 68.326099 
L 308.719377 73.79844 
L 309.210788 81.094894 
L 309.702199 67.414043 
L 310.19361 61.029645 
L 310.685021 61.029645 
L 311.176432 64.677872 
L 311.667842 65.589929 
L 312.159253 77.446667 
L 312.650664 71.974326 
L 313.142075 74.710496 
L 313.633486 71.06227 
L 314.124897 63.765816 
L 314.616308 61.941702 
L 315.107718 62.853759 
L 315.599129 69.238156 
L 316.09054 69.238156 
L 316.581951 64.677872 
L 317.564773 73.79844 
L 318.056184 69.238156 
L 318.547594 75.622553 
L 319.039005 69.238156 
L 319.530416 82.00695 
L 320.021827 81.094894 
L 320.513238 88.391348 
L 321.004649 70.150213 
L 321.49606 73.79844 
L 321.98747 74.710496 
L 322.478881 68.326099 
L 322.970292 63.765816 
L 323.461703 49.172908 
L 323.953114 49.172908 
L 324.444525 59.205532 
L 324.935936 61.941702 
L 325.427347 58.293475 
L 325.918757 46.436738 
L 326.410168 51.909078 
L 326.901579 49.172908 
L 327.39299 56.469362 
L 327.884401 55.557305 
L 328.375812 65.589929 
L 328.867223 59.205532 
L 329.358633 68.326099 
L 329.850044 73.79844 
L 330.341455 74.710496 
L 330.832866 68.326099 
L 331.324277 68.326099 
L 331.815688 71.974326 
L 332.307099 72.886383 
L 332.798509 83.831064 
L 333.28992 76.53461 
L 333.781331 82.919007 
L 334.272742 73.79844 
L 334.764153 76.53461 
L 335.255564 82.00695 
L 335.746975 102.072199 
L 336.238385 102.984255 
L 336.729796 98.423972 
L 337.221207 98.423972 
L 337.712618 92.039574 
L 338.204029 102.984255 
L 339.186851 97.511915 
L 340.169672 102.984255 
L 340.661083 111.192766 
L 341.152494 100.248085 
L 341.643905 102.072199 
L 342.135316 95.687801 
L 342.626727 85.655177 
L 343.118138 88.391348 
L 343.609548 97.511915 
L 344.100959 84.743121 
L 345.083781 84.743121 
L 345.575192 80.182837 
L 346.066603 79.27078 
L 346.558014 61.029645 
L 347.049424 52.821135 
L 347.540835 48.260851 
L 348.032246 62.853759 
L 348.523657 62.853759 
L 349.015068 70.150213 
L 349.506479 70.150213 
L 349.99789 66.501986 
L 350.4893 70.150213 
L 350.980711 70.150213 
L 351.472122 74.710496 
L 351.963533 76.53461 
L 352.454944 86.567234 
L 352.946355 80.182837 
L 353.929177 71.974326 
L 354.420587 68.326099 
L 354.911998 61.941702 
L 355.403409 71.974326 
L 355.89482 79.27078 
L 356.386231 75.622553 
L 356.877642 68.326099 
L 357.369053 79.27078 
L 357.860463 79.27078 
L 358.351874 83.831064 
L 358.843285 80.182837 
L 359.334696 77.446667 
L 359.826107 62.853759 
L 360.317518 76.53461 
L 360.808929 75.622553 
L 361.300339 91.127518 
L 362.283161 113.016879 
L 362.774572 106.632482 
L 363.265983 95.687801 
L 363.757394 95.687801 
L 364.248805 94.775745 
L 364.740215 91.127518 
L 365.231626 84.743121 
L 365.723037 80.182837 
L 366.214448 80.182837 
L 366.705859 83.831064 
L 367.19727 80.182837 
L 367.688681 83.831064 
L 368.180091 88.391348 
L 368.671502 94.775745 
L 369.162913 98.423972 
L 369.654324 104.808369 
L 370.145735 90.215461 
L 370.637146 93.863688 
L 371.128557 90.215461 
L 371.619968 100.248085 
L 372.111378 99.336028 
L 372.602789 99.336028 
L 373.0942 98.423972 
L 373.585611 112.104823 
L 374.077022 112.104823 
L 374.568433 127.609787 
L 375.059844 117.577163 
L 375.551254 125.785674 
L 376.042665 119.401277 
L 377.516898 119.401277 
L 378.49972 133.994184 
L 378.99113 137.642411 
L 379.973952 137.642411 
L 380.465363 144.938865 
L 381.448185 136.730355 
L 381.939596 141.290638 
L 382.431006 151.323262 
L 382.922417 141.290638 
L 383.905239 141.290638 
L 384.39665 137.642411 
L 384.888061 148.587092 
L 385.379472 141.290638 
L 385.870883 152.235319 
L 386.362293 152.235319 
L 386.853704 153.147376 
L 387.345115 146.762979 
L 387.836526 144.938865 
L 389.310759 153.147376 
L 389.802169 153.147376 
L 390.29358 156.795603 
L 390.784991 165.91617 
L 391.276402 163.18 
L 391.767813 159.531773 
L 392.259224 163.18 
L 392.750635 155.883546 
L 393.242045 153.147376 
L 393.733456 156.795603 
L 394.224867 164.092057 
L 394.716278 166.828227 
L 395.207689 152.235319 
L 396.190511 161.355887 
L 396.681921 153.147376 
L 397.173332 150.411206 
L 397.664743 149.499149 
L 398.156154 144.026809 
L 398.647565 125.785674 
L 399.138976 119.401277 
L 399.630387 115.75305 
L 400.121798 115.75305 
L 400.613208 105.720426 
L 401.104619 102.984255 
L 401.59603 98.423972 
L 402.087441 104.808369 
L 402.578852 97.511915 
L 403.070263 101.160142 
L 403.561674 94.775745 
L 404.544495 102.072199 
L 405.035906 102.072199 
L 405.527317 84.743121 
L 406.018728 75.622553 
L 406.510139 75.622553 
L 407.00155 56.469362 
L 407.49296 63.765816 
L 407.984371 59.205532 
L 408.475782 56.469362 
L 408.967193 34.58 
L 409.458604 34.58 
L 410.441426 48.260851 
L 410.932836 47.348794 
L 411.424247 52.821135 
L 411.915658 49.172908 
L 412.407069 56.469362 
L 412.89848 58.293475 
L 413.389891 76.53461 
L 413.881302 86.567234 
L 414.372713 90.215461 
L 414.864123 87.479291 
L 415.355534 88.391348 
L 415.846945 81.094894 
L 416.338356 84.743121 
L 416.829767 82.00695 
L 417.321178 84.743121 
L 417.812589 81.094894 
L 418.303999 91.127518 
L 418.79541 78.358723 
L 419.286821 84.743121 
L 419.778232 78.358723 
L 420.761054 100.248085 
L 421.252465 103.896312 
L 421.743875 125.785674 
L 422.235286 123.049504 
L 422.726697 119.401277 
L 423.218108 112.104823 
L 423.709519 126.69773 
L 424.20093 123.049504 
L 425.183751 123.049504 
L 425.675162 126.69773 
L 426.166573 122.137447 
L 426.657984 112.104823 
L 427.149395 115.75305 
L 427.640806 105.720426 
L 429.115038 116.665106 
L 429.606449 123.96156 
L 430.09786 133.082128 
L 430.589271 136.730355 
L 431.080682 133.994184 
L 431.080682 133.994184 
" clip-path="url(#pf93759b506)" style="fill: none; stroke-dasharray: 1.85,0.8; stroke-dashoffset: 0; stroke: #ff0000; stroke-width: 0.5"/>
   </g>
   <g id="patch_3">
    <path d="M 33.775 304.64 
L 33.775 21.72 
" style="fill: none; stroke: #000000; stroke-width: 0.8; stroke-linejoin: miter; stroke-linecap: square"/>
   </g>
   <g id="patch_4">
    <path d="M 450 304.64 
L 450 21.72 
" style="fill: none; stroke: #000000; stroke-width: 0.8; stroke-linejoin: miter; stroke-linecap: square"/>
   </g>
   <g id="patch_5">
    <path d="M 33.775 304.64 
L 450 304.64 
" style="fill: none; stroke: #000000; stroke-width: 0.8; stroke-linejoin: miter; stroke-linecap: square"/>
   </g>
   <g id="patch_6">
    <path d="M 33.775 21.72 
L 450 21.72 
" style="fill: none; stroke: #000000; stroke-width: 0.8; stroke-linejoin: miter; stroke-linecap: square"/>
   </g>
   <g id="text_17">
    <!-- Heating Rate ($^{\circ}C.s^{-1}$) -->
    <g transform="translate(283.51 50.012) scale(0.12 -0.12)">
     <defs>
      <path id="DejaVuSans-48" d="M 628 4666 
L 1259 4666 
L 1259 2753 
L 3553 2753 
L 3553 4666 
L 4184 4666 
L 4184 0 
L 3553 0 
L 3553 2222 
L 1259 2222 
L 1259 0 
L 628 0 
L 628 4666 
z
" transform="scale(0.015625)"/>
      <path id="DejaVuSans-67" d="M 2906 1791 
Q 2906 2416 2648 2759 
Q 2391 3103 1925 3103 
Q 1463 3103 1205 2759 
Q 947 2416 947 1791 
Q 947 1169 1205 825 
Q 1463 481 1925 481 
Q 2391 481 2648 825 
Q 2906 1169 2906 1791 
z
M 3481 434 
Q 3481 -459 3084 -895 
Q 2688 -1331 1869 -1331 
Q 1566 -1331 1297 -1286 
Q 1028 -1241 775 -1147 
L 775 -588 
Q 1028 -725 1275 -790 
Q 1522 -856 1778 -856 
Q 2344 -856 2625 -561 
Q 2906 -266 2906 331 
L 2906 616 
Q 2728 306 2450 153 
Q 2172 0 1784 0 
Q 1141 0 747 490 
Q 353 981 353 1791 
Q 353 2603 747 3093 
Q 1141 3584 1784 3584 
Q 2172 3584 2450 3431 
Q 2728 3278 2906 2969 
L 2906 3500 
L 3481 3500 
L 3481 434 
z
" transform="scale(0.015625)"/>
      <path id="DejaVuSans-52" d="M 2841 2188 
Q 3044 2119 3236 1894 
Q 3428 1669 3622 1275 
L 4263 0 
L 3584 0 
L 2988 1197 
Q 2756 1666 2539 1819 
Q 2322 1972 1947 1972 
L 1259 1972 
L 1259 0 
L 628 0 
L 628 4666 
L 2053 4666 
Q 2853 4666 3247 4331 
Q 3641 3997 3641 3322 
Q 3641 2881 3436 2590 
Q 3231 2300 2841 2188 
z
M 1259 4147 
L 1259 2491 
L 2053 2491 
Q 2509 2491 2742 2702 
Q 2975 2913 2975 3322 
Q 2975 3731 2742 3939 
Q 2509 4147 2053 4147 
L 1259 4147 
z
" transform="scale(0.015625)"/>
      <path id="DejaVuSans-2e" d="M 684 794 
L 1344 794 
L 1344 0 
L 684 0 
L 684 794 
z
" transform="scale(0.015625)"/>
      <path id="DejaVuSans-Oblique-73" d="M 3200 3397 
L 3091 2853 
Q 2863 2978 2609 3040 
Q 2356 3103 2088 3103 
Q 1634 3103 1373 2948 
Q 1113 2794 1113 2528 
Q 1113 2219 1719 2053 
Q 1766 2041 1788 2034 
L 1972 1978 
Q 2547 1819 2739 1644 
Q 2931 1469 2931 1166 
Q 2931 609 2489 259 
Q 2047 -91 1331 -91 
Q 1053 -91 747 -37 
Q 441 16 72 128 
L 184 722 
Q 500 559 806 475 
Q 1113 391 1394 391 
Q 1816 391 2080 572 
Q 2344 753 2344 1031 
Q 2344 1331 1650 1516 
L 1591 1531 
L 1394 1581 
Q 956 1697 753 1886 
Q 550 2075 550 2369 
Q 550 2928 970 3256 
Q 1391 3584 2113 3584 
Q 2397 3584 2667 3537 
Q 2938 3491 3200 3397 
z
" transform="scale(0.015625)"/>
     </defs>
     <use xlink:href="#DejaVuSans-48" transform="translate(0 0.684375)"/>
     <use xlink:href="#DejaVuSans-65" transform="translate(75.195312 0.684375)"/>
     <use xlink:href="#DejaVuSans-61" transform="translate(136.71875 0.684375)"/>
     <use xlink:href="#DejaVuSans-74" transform="translate(197.998047 0.684375)"/>
     <use xlink:href="#DejaVuSans-69" transform="translate(237.207031 0.684375)"/>
     <use xlink:href="#DejaVuSans-6e" transform="translate(264.990234 0.684375)"/>
     <use xlink:href="#DejaVuSans-67" transform="translate(328.369141 0.684375)"/>
     <use xlink:href="#DejaVuSans-20" transform="translate(391.845703 0.684375)"/>
     <use xlink:href="#DejaVuSans-52" transform="translate(423.632812 0.684375)"/>
     <use xlink:href="#DejaVuSans-61" transform="translate(493.115234 0.684375)"/>
     <use xlink:href="#DejaVuSans-74" transform="translate(554.394531 0.684375)"/>
     <use xlink:href="#DejaVuSans-65" transform="translate(593.603516 0.684375)"/>
     <use xlink:href="#DejaVuSans-20" transform="translate(655.126953 0.684375)"/>
     <use xlink:href="#DejaVuSans-28" transform="translate(686.914062 0.684375)"/>
     <use xlink:href="#DejaVuSans-2218" transform="translate(726.884766 38.965625) scale(0.7)"/>
     <use xlink:href="#DejaVuSans-Oblique-43" transform="translate(773.4375 0.684375)"/>
     <use xlink:href="#DejaVuSans-2e" transform="translate(843.261719 0.684375)"/>
     <use xlink:href="#DejaVuSans-Oblique-73" transform="translate(894.53125 0.684375)"/>
     <use xlink:href="#DejaVuSans-2212" transform="translate(951.280755 38.965625) scale(0.7)"/>
     <use xlink:href="#DejaVuSans-31" transform="translate(1009.933099 38.965625) scale(0.7)"/>
     <use xlink:href="#DejaVuSans-29" transform="translate(1057.203607 0.684375)"/>
    </g>
   </g>
   <g id="legend_1">
    <g id="patch_7">
     <path d="M 332.1325 131.402625 
L 380.035625 131.402625 
Q 382.035625 131.402625 382.035625 129.402625 
L 382.035625 57.012 
Q 382.035625 55.012 380.035625 55.012 
L 332.1325 55.012 
Q 330.1325 55.012 330.1325 57.012 
L 330.1325 129.402625 
Q 330.1325 131.402625 332.1325 131.402625 
z
" style="fill: #ffffff; opacity: 0.8; stroke: #cccccc; stroke-linejoin: miter"/>
    </g>
    <g id="line2d_20">
     <path d="M 334.1325 63.110437 
L 344.1325 63.110437 
L 354.1325 63.110437 
" style="fill: none; stroke-dasharray: 1.85,0.8; stroke-dashoffset: 0; stroke: #8000ff; stroke-width: 0.5"/>
    </g>
    <g id="text_18">
     <!-- 0.1 -->
     <g transform="translate(362.1325 66.610437) scale(0.1 -0.1)">
      <use xlink:href="#DejaVuSans-30"/>
      <use xlink:href="#DejaVuSans-2e" transform="translate(63.623047 0)"/>
      <use xlink:href="#DejaVuSans-31" transform="translate(95.410156 0)"/>
     </g>
    </g>
    <g id="line2d_21">
     <path d="M 334.1325 77.788563 
L 344.1325 77.788563 
L 354.1325 77.788563 
" style="fill: none; stroke-dasharray: 1.85,0.8; stroke-dashoffset: 0; stroke: #00b5eb; stroke-width: 0.5"/>
    </g>
    <g id="text_19">
     <!-- 1 -->
     <g transform="translate(362.1325 81.288563) scale(0.1 -0.1)">
      <use xlink:href="#DejaVuSans-31"/>
     </g>
    </g>
    <g id="line2d_22">
     <path d="M 334.1325 92.466687 
L 344.1325 92.466687 
L 354.1325 92.466687 
" style="fill: none; stroke-dasharray: 1.85,0.8; stroke-dashoffset: 0; stroke: #80ffb4; stroke-width: 0.5"/>
    </g>
    <g id="text_20">
     <!-- 5 -->
     <g transform="translate(362.1325 95.966687) scale(0.1 -0.1)">
      <use xlink:href="#DejaVuSans-35"/>
     </g>
    </g>
    <g id="line2d_23">
     <path d="M 334.1325 107.144813 
L 344.1325 107.144813 
L 354.1325 107.144813 
" style="fill: none; stroke-dasharray: 1.85,0.8; stroke-dashoffset: 0; stroke: #ffb360; stroke-width: 0.5"/>
    </g>
    <g id="text_21">
     <!-- 10 -->
     <g transform="translate(362.1325 110.644813) scale(0.1 -0.1)">
      <use xlink:href="#DejaVuSans-31"/>
      <use xlink:href="#DejaVuSans-30" transform="translate(63.623047 0)"/>
     </g>
    </g>
    <g id="line2d_24">
     <path d="M 334.1325 121.822937 
L 344.1325 121.822937 
L 354.1325 121.822937 
" style="fill: none; stroke-dasharray: 1.85,0.8; stroke-dashoffset: 0; stroke: #ff0000; stroke-width: 0.5"/>
    </g>
    <g id="text_22">
     <!-- 20 -->
     <g transform="translate(362.1325 125.322937) scale(0.1 -0.1)">
      <use xlink:href="#DejaVuSans-32"/>
      <use xlink:href="#DejaVuSans-30" transform="translate(63.623047 0)"/>
     </g>
    </g>
   </g>
  </g>
 </g>
 <defs>
  <clipPath id="pf93759b506">
   <rect x="33.775" y="21.72" width="416.225" height="282.92"/>
  </clipPath>
 </defs>
</svg>
