<?xml version="1.0" encoding="utf-8" standalone="no"?>
<!DOCTYPE svg PUBLIC "-//W3C//DTD SVG 1.1//EN"
  "http://www.w3.org/Graphics/SVG/1.1/DTD/svg11.dtd">
<svg xmlns:xlink="http://www.w3.org/1999/xlink" width="460.8pt" height="345.6pt" viewBox="0 0 460.8 345.6" xmlns="http://www.w3.org/2000/svg" version="1.1">
 <metadata>
  <rdf:RDF xmlns:dc="http://purl.org/dc/elements/1.1/" xmlns:cc="http://creativecommons.org/ns#" xmlns:rdf="http://www.w3.org/1999/02/22-rdf-syntax-ns#">
   <cc:Work>
    <dc:type rdf:resource="http://purl.org/dc/dcmitype/StillImage"/>
    <dc:date>2025-03-25T11:46:13.399280</dc:date>
    <dc:format>image/svg+xml</dc:format>
    <dc:creator>
     <cc:Agent>
      <dc:title>Matplotlib v3.10.0, https://matplotlib.org/</dc:title>
     </cc:Agent>
    </dc:creator>
   </cc:Work>
  </rdf:RDF>
 </metadata>
 <defs>
  <style type="text/css">*{stroke-linejoin: round; stroke-linecap: butt}</style>
 </defs>
 <g id="figure_1">
  <g id="patch_1">
   <path d="M 0 345.6 
L 460.8 345.6 
L 460.8 0 
L 0 0 
z
" style="fill: #ffffff"/>
  </g>
  <g id="axes_1">
   <g id="patch_2">
    <path d="M 57.6 307.584 
L 414.72 307.584 
L 414.72 41.472 
L 57.6 41.472 
z
" style="fill: #ffffff"/>
   </g>
   <g id="matplotlib.axis_1">
    <g id="xtick_1">
     <g id="line2d_1">
      <defs>
       <path id="m6f2426f64f" d="M 0 0 
L 0 3.5 
" style="stroke: #000000; stroke-width: 0.8"/>
      </defs>
      <g>
       <use xlink:href="#m6f2426f64f" x="158.372684" y="307.584" style="stroke: #000000; stroke-width: 0.8"/>
      </g>
     </g>
     <g id="text_1">
      <!-- $\mathdefault{10^{12}}$ -->
      <g transform="translate(147.322684 322.182437) scale(0.1 -0.1)">
       <defs>
        <path id="DejaVuSans-31" d="M 794 531 
L 1825 531 
L 1825 4091 
L 703 3866 
L 703 4441 
L 1819 4666 
L 2450 4666 
L 2450 531 
L 3481 531 
L 3481 0 
L 794 0 
L 794 531 
z
" transform="scale(0.015625)"/>
        <path id="DejaVuSans-30" d="M 2034 4250 
Q 1547 4250 1301 3770 
Q 1056 3291 1056 2328 
Q 1056 1369 1301 889 
Q 1547 409 2034 409 
Q 2525 409 2770 889 
Q 3016 1369 3016 2328 
Q 3016 3291 2770 3770 
Q 2525 4250 2034 4250 
z
M 2034 4750 
Q 2819 4750 3233 4129 
Q 3647 3509 3647 2328 
Q 3647 1150 3233 529 
Q 2819 -91 2034 -91 
Q 1250 -91 836 529 
Q 422 1150 422 2328 
Q 422 3509 836 4129 
Q 1250 4750 2034 4750 
z
" transform="scale(0.015625)"/>
        <path id="DejaVuSans-32" d="M 1228 531 
L 3431 531 
L 3431 0 
L 469 0 
L 469 531 
Q 828 903 1448 1529 
Q 2069 2156 2228 2338 
Q 2531 2678 2651 2914 
Q 2772 3150 2772 3378 
Q 2772 3750 2511 3984 
Q 2250 4219 1831 4219 
Q 1534 4219 1204 4116 
Q 875 4013 500 3803 
L 500 4441 
Q 881 4594 1212 4672 
Q 1544 4750 1819 4750 
Q 2544 4750 2975 4387 
Q 3406 4025 3406 3419 
Q 3406 3131 3298 2873 
Q 3191 2616 2906 2266 
Q 2828 2175 2409 1742 
Q 1991 1309 1228 531 
z
" transform="scale(0.015625)"/>
       </defs>
       <use xlink:href="#DejaVuSans-31" transform="translate(0 0.765625)"/>
       <use xlink:href="#DejaVuSans-30" transform="translate(63.623047 0.765625)"/>
       <use xlink:href="#DejaVuSans-31" transform="translate(128.203125 39.046875) scale(0.7)"/>
       <use xlink:href="#DejaVuSans-32" transform="translate(172.739258 39.046875) scale(0.7)"/>
      </g>
     </g>
    </g>
    <g id="xtick_2">
     <g id="line2d_2">
      <g>
       <use xlink:href="#m6f2426f64f" x="271.792217" y="307.584" style="stroke: #000000; stroke-width: 0.8"/>
      </g>
     </g>
     <g id="text_2">
      <!-- $\mathdefault{10^{13}}$ -->
      <g transform="translate(260.742217 322.182437) scale(0.1 -0.1)">
       <defs>
        <path id="DejaVuSans-33" d="M 2597 2516 
Q 3050 2419 3304 2112 
Q 3559 1806 3559 1356 
Q 3559 666 3084 287 
Q 2609 -91 1734 -91 
Q 1441 -91 1130 -33 
Q 819 25 488 141 
L 488 750 
Q 750 597 1062 519 
Q 1375 441 1716 441 
Q 2309 441 2620 675 
Q 2931 909 2931 1356 
Q 2931 1769 2642 2001 
Q 2353 2234 1838 2234 
L 1294 2234 
L 1294 2753 
L 1863 2753 
Q 2328 2753 2575 2939 
Q 2822 3125 2822 3475 
Q 2822 3834 2567 4026 
Q 2313 4219 1838 4219 
Q 1578 4219 1281 4162 
Q 984 4106 628 3988 
L 628 4550 
Q 988 4650 1302 4700 
Q 1616 4750 1894 4750 
Q 2613 4750 3031 4423 
Q 3450 4097 3450 3541 
Q 3450 3153 3228 2886 
Q 3006 2619 2597 2516 
z
" transform="scale(0.015625)"/>
       </defs>
       <use xlink:href="#DejaVuSans-31" transform="translate(0 0.765625)"/>
       <use xlink:href="#DejaVuSans-30" transform="translate(63.623047 0.765625)"/>
       <use xlink:href="#DejaVuSans-31" transform="translate(128.203125 39.046875) scale(0.7)"/>
       <use xlink:href="#DejaVuSans-33" transform="translate(172.739258 39.046875) scale(0.7)"/>
      </g>
     </g>
    </g>
    <g id="xtick_3">
     <g id="line2d_3">
      <g>
       <use xlink:href="#m6f2426f64f" x="385.211751" y="307.584" style="stroke: #000000; stroke-width: 0.8"/>
      </g>
     </g>
     <g id="text_3">
      <!-- $\mathdefault{10^{14}}$ -->
      <g transform="translate(374.161751 322.182437) scale(0.1 -0.1)">
       <defs>
        <path id="DejaVuSans-34" d="M 2419 4116 
L 825 1625 
L 2419 1625 
L 2419 4116 
z
M 2253 4666 
L 3047 4666 
L 3047 1625 
L 3713 1625 
L 3713 1100 
L 3047 1100 
L 3047 0 
L 2419 0 
L 2419 1100 
L 313 1100 
L 313 1709 
L 2253 4666 
z
" transform="scale(0.015625)"/>
       </defs>
       <use xlink:href="#DejaVuSans-31" transform="translate(0 0.684375)"/>
       <use xlink:href="#DejaVuSans-30" transform="translate(63.623047 0.684375)"/>
       <use xlink:href="#DejaVuSans-31" transform="translate(128.203125 38.965625) scale(0.7)"/>
       <use xlink:href="#DejaVuSans-34" transform="translate(172.739258 38.965625) scale(0.7)"/>
      </g>
     </g>
    </g>
    <g id="xtick_4">
     <g id="line2d_4">
      <defs>
       <path id="mbcffde1231" d="M 0 0 
L 0 2 
" style="stroke: #000000; stroke-width: 0.6"/>
      </defs>
      <g>
       <use xlink:href="#mbcffde1231" x="79.095832" y="307.584" style="stroke: #000000; stroke-width: 0.6"/>
      </g>
     </g>
    </g>
    <g id="xtick_5">
     <g id="line2d_5">
      <g>
       <use xlink:href="#mbcffde1231" x="99.06802" y="307.584" style="stroke: #000000; stroke-width: 0.6"/>
      </g>
     </g>
    </g>
    <g id="xtick_6">
     <g id="line2d_6">
      <g>
       <use xlink:href="#mbcffde1231" x="113.238513" y="307.584" style="stroke: #000000; stroke-width: 0.6"/>
      </g>
     </g>
    </g>
    <g id="xtick_7">
     <g id="line2d_7">
      <g>
       <use xlink:href="#mbcffde1231" x="124.230002" y="307.584" style="stroke: #000000; stroke-width: 0.6"/>
      </g>
     </g>
    </g>
    <g id="xtick_8">
     <g id="line2d_8">
      <g>
       <use xlink:href="#mbcffde1231" x="133.210702" y="307.584" style="stroke: #000000; stroke-width: 0.6"/>
      </g>
     </g>
    </g>
    <g id="xtick_9">
     <g id="line2d_9">
      <g>
       <use xlink:href="#mbcffde1231" x="140.803776" y="307.584" style="stroke: #000000; stroke-width: 0.6"/>
      </g>
     </g>
    </g>
    <g id="xtick_10">
     <g id="line2d_10">
      <g>
       <use xlink:href="#mbcffde1231" x="147.381195" y="307.584" style="stroke: #000000; stroke-width: 0.6"/>
      </g>
     </g>
    </g>
    <g id="xtick_11">
     <g id="line2d_11">
      <g>
       <use xlink:href="#mbcffde1231" x="153.18289" y="307.584" style="stroke: #000000; stroke-width: 0.6"/>
      </g>
     </g>
    </g>
    <g id="xtick_12">
     <g id="line2d_12">
      <g>
       <use xlink:href="#mbcffde1231" x="192.515365" y="307.584" style="stroke: #000000; stroke-width: 0.6"/>
      </g>
     </g>
    </g>
    <g id="xtick_13">
     <g id="line2d_13">
      <g>
       <use xlink:href="#mbcffde1231" x="212.487554" y="307.584" style="stroke: #000000; stroke-width: 0.6"/>
      </g>
     </g>
    </g>
    <g id="xtick_14">
     <g id="line2d_14">
      <g>
       <use xlink:href="#mbcffde1231" x="226.658047" y="307.584" style="stroke: #000000; stroke-width: 0.6"/>
      </g>
     </g>
    </g>
    <g id="xtick_15">
     <g id="line2d_15">
      <g>
       <use xlink:href="#mbcffde1231" x="237.649536" y="307.584" style="stroke: #000000; stroke-width: 0.6"/>
      </g>
     </g>
    </g>
    <g id="xtick_16">
     <g id="line2d_16">
      <g>
       <use xlink:href="#mbcffde1231" x="246.630236" y="307.584" style="stroke: #000000; stroke-width: 0.6"/>
      </g>
     </g>
    </g>
    <g id="xtick_17">
     <g id="line2d_17">
      <g>
       <use xlink:href="#mbcffde1231" x="254.223309" y="307.584" style="stroke: #000000; stroke-width: 0.6"/>
      </g>
     </g>
    </g>
    <g id="xtick_18">
     <g id="line2d_18">
      <g>
       <use xlink:href="#mbcffde1231" x="260.800729" y="307.584" style="stroke: #000000; stroke-width: 0.6"/>
      </g>
     </g>
    </g>
    <g id="xtick_19">
     <g id="line2d_19">
      <g>
       <use xlink:href="#mbcffde1231" x="266.602424" y="307.584" style="stroke: #000000; stroke-width: 0.6"/>
      </g>
     </g>
    </g>
    <g id="xtick_20">
     <g id="line2d_20">
      <g>
       <use xlink:href="#mbcffde1231" x="305.934899" y="307.584" style="stroke: #000000; stroke-width: 0.6"/>
      </g>
     </g>
    </g>
    <g id="xtick_21">
     <g id="line2d_21">
      <g>
       <use xlink:href="#mbcffde1231" x="325.907087" y="307.584" style="stroke: #000000; stroke-width: 0.6"/>
      </g>
     </g>
    </g>
    <g id="xtick_22">
     <g id="line2d_22">
      <g>
       <use xlink:href="#mbcffde1231" x="340.077581" y="307.584" style="stroke: #000000; stroke-width: 0.6"/>
      </g>
     </g>
    </g>
    <g id="xtick_23">
     <g id="line2d_23">
      <g>
       <use xlink:href="#mbcffde1231" x="351.069069" y="307.584" style="stroke: #000000; stroke-width: 0.6"/>
      </g>
     </g>
    </g>
    <g id="xtick_24">
     <g id="line2d_24">
      <g>
       <use xlink:href="#mbcffde1231" x="360.049769" y="307.584" style="stroke: #000000; stroke-width: 0.6"/>
      </g>
     </g>
    </g>
    <g id="xtick_25">
     <g id="line2d_25">
      <g>
       <use xlink:href="#mbcffde1231" x="367.642843" y="307.584" style="stroke: #000000; stroke-width: 0.6"/>
      </g>
     </g>
    </g>
    <g id="xtick_26">
     <g id="line2d_26">
      <g>
       <use xlink:href="#mbcffde1231" x="374.220262" y="307.584" style="stroke: #000000; stroke-width: 0.6"/>
      </g>
     </g>
    </g>
    <g id="xtick_27">
     <g id="line2d_27">
      <g>
       <use xlink:href="#mbcffde1231" x="380.021958" y="307.584" style="stroke: #000000; stroke-width: 0.6"/>
      </g>
     </g>
    </g>
    <g id="text_4">
     <!-- Log time  -->
     <g transform="translate(212.75375 335.860562) scale(0.1 -0.1)">
      <defs>
       <path id="DejaVuSans-4c" d="M 628 4666 
L 1259 4666 
L 1259 531 
L 3531 531 
L 3531 0 
L 628 0 
L 628 4666 
z
" transform="scale(0.015625)"/>
       <path id="DejaVuSans-6f" d="M 1959 3097 
Q 1497 3097 1228 2736 
Q 959 2375 959 1747 
Q 959 1119 1226 758 
Q 1494 397 1959 397 
Q 2419 397 2687 759 
Q 2956 1122 2956 1747 
Q 2956 2369 2687 2733 
Q 2419 3097 1959 3097 
z
M 1959 3584 
Q 2709 3584 3137 3096 
Q 3566 2609 3566 1747 
Q 3566 888 3137 398 
Q 2709 -91 1959 -91 
Q 1206 -91 779 398 
Q 353 888 353 1747 
Q 353 2609 779 3096 
Q 1206 3584 1959 3584 
z
" transform="scale(0.015625)"/>
       <path id="DejaVuSans-67" d="M 2906 1791 
Q 2906 2416 2648 2759 
Q 2391 3103 1925 3103 
Q 1463 3103 1205 2759 
Q 947 2416 947 1791 
Q 947 1169 1205 825 
Q 1463 481 1925 481 
Q 2391 481 2648 825 
Q 2906 1169 2906 1791 
z
M 3481 434 
Q 3481 -459 3084 -895 
Q 2688 -1331 1869 -1331 
Q 1566 -1331 1297 -1286 
Q 1028 -1241 775 -1147 
L 775 -588 
Q 1028 -725 1275 -790 
Q 1522 -856 1778 -856 
Q 2344 -856 2625 -561 
Q 2906 -266 2906 331 
L 2906 616 
Q 2728 306 2450 153 
Q 2172 0 1784 0 
Q 1141 0 747 490 
Q 353 981 353 1791 
Q 353 2603 747 3093 
Q 1141 3584 1784 3584 
Q 2172 3584 2450 3431 
Q 2728 3278 2906 2969 
L 2906 3500 
L 3481 3500 
L 3481 434 
z
" transform="scale(0.015625)"/>
       <path id="DejaVuSans-20" transform="scale(0.015625)"/>
       <path id="DejaVuSans-74" d="M 1172 4494 
L 1172 3500 
L 2356 3500 
L 2356 3053 
L 1172 3053 
L 1172 1153 
Q 1172 725 1289 603 
Q 1406 481 1766 481 
L 2356 481 
L 2356 0 
L 1766 0 
Q 1100 0 847 248 
Q 594 497 594 1153 
L 594 3053 
L 172 3053 
L 172 3500 
L 594 3500 
L 594 4494 
L 1172 4494 
z
" transform="scale(0.015625)"/>
       <path id="DejaVuSans-69" d="M 603 3500 
L 1178 3500 
L 1178 0 
L 603 0 
L 603 3500 
z
M 603 4863 
L 1178 4863 
L 1178 4134 
L 603 4134 
L 603 4863 
z
" transform="scale(0.015625)"/>
       <path id="DejaVuSans-6d" d="M 3328 2828 
Q 3544 3216 3844 3400 
Q 4144 3584 4550 3584 
Q 5097 3584 5394 3201 
Q 5691 2819 5691 2113 
L 5691 0 
L 5113 0 
L 5113 2094 
Q 5113 2597 4934 2840 
Q 4756 3084 4391 3084 
Q 3944 3084 3684 2787 
Q 3425 2491 3425 1978 
L 3425 0 
L 2847 0 
L 2847 2094 
Q 2847 2600 2669 2842 
Q 2491 3084 2119 3084 
Q 1678 3084 1418 2786 
Q 1159 2488 1159 1978 
L 1159 0 
L 581 0 
L 581 3500 
L 1159 3500 
L 1159 2956 
Q 1356 3278 1631 3431 
Q 1906 3584 2284 3584 
Q 2666 3584 2933 3390 
Q 3200 3197 3328 2828 
z
" transform="scale(0.015625)"/>
       <path id="DejaVuSans-65" d="M 3597 1894 
L 3597 1613 
L 953 1613 
Q 991 1019 1311 708 
Q 1631 397 2203 397 
Q 2534 397 2845 478 
Q 3156 559 3463 722 
L 3463 178 
Q 3153 47 2828 -22 
Q 2503 -91 2169 -91 
Q 1331 -91 842 396 
Q 353 884 353 1716 
Q 353 2575 817 3079 
Q 1281 3584 2069 3584 
Q 2775 3584 3186 3129 
Q 3597 2675 3597 1894 
z
M 3022 2063 
Q 3016 2534 2758 2815 
Q 2500 3097 2075 3097 
Q 1594 3097 1305 2825 
Q 1016 2553 972 2059 
L 3022 2063 
z
" transform="scale(0.015625)"/>
      </defs>
      <use xlink:href="#DejaVuSans-4c"/>
      <use xlink:href="#DejaVuSans-6f" transform="translate(53.962891 0)"/>
      <use xlink:href="#DejaVuSans-67" transform="translate(115.144531 0)"/>
      <use xlink:href="#DejaVuSans-20" transform="translate(178.621094 0)"/>
      <use xlink:href="#DejaVuSans-74" transform="translate(210.408203 0)"/>
      <use xlink:href="#DejaVuSans-69" transform="translate(249.617188 0)"/>
      <use xlink:href="#DejaVuSans-6d" transform="translate(277.400391 0)"/>
      <use xlink:href="#DejaVuSans-65" transform="translate(374.8125 0)"/>
      <use xlink:href="#DejaVuSans-20" transform="translate(436.335938 0)"/>
     </g>
    </g>
   </g>
   <g id="matplotlib.axis_2">
    <g id="ytick_1">
     <g id="line2d_28">
      <defs>
       <path id="m80f5ce5dc9" d="M 0 0 
L -3.5 0 
" style="stroke: #000000; stroke-width: 0.8"/>
      </defs>
      <g>
       <use xlink:href="#m80f5ce5dc9" x="57.6" y="307.584" style="stroke: #000000; stroke-width: 0.8"/>
      </g>
     </g>
     <g id="text_5">
      <!-- 0.0 -->
      <g transform="translate(34.696875 311.383219) scale(0.1 -0.1)">
       <defs>
        <path id="DejaVuSans-2e" d="M 684 794 
L 1344 794 
L 1344 0 
L 684 0 
L 684 794 
z
" transform="scale(0.015625)"/>
       </defs>
       <use xlink:href="#DejaVuSans-30"/>
       <use xlink:href="#DejaVuSans-2e" transform="translate(63.623047 0)"/>
       <use xlink:href="#DejaVuSans-30" transform="translate(95.410156 0)"/>
      </g>
     </g>
    </g>
    <g id="ytick_2">
     <g id="line2d_29">
      <g>
       <use xlink:href="#m80f5ce5dc9" x="57.6" y="254.3616" style="stroke: #000000; stroke-width: 0.8"/>
      </g>
     </g>
     <g id="text_6">
      <!-- 0.2 -->
      <g transform="translate(34.696875 258.160819) scale(0.1 -0.1)">
       <use xlink:href="#DejaVuSans-30"/>
       <use xlink:href="#DejaVuSans-2e" transform="translate(63.623047 0)"/>
       <use xlink:href="#DejaVuSans-32" transform="translate(95.410156 0)"/>
      </g>
     </g>
    </g>
    <g id="ytick_3">
     <g id="line2d_30">
      <g>
       <use xlink:href="#m80f5ce5dc9" x="57.6" y="201.1392" style="stroke: #000000; stroke-width: 0.8"/>
      </g>
     </g>
     <g id="text_7">
      <!-- 0.4 -->
      <g transform="translate(34.696875 204.938419) scale(0.1 -0.1)">
       <use xlink:href="#DejaVuSans-30"/>
       <use xlink:href="#DejaVuSans-2e" transform="translate(63.623047 0)"/>
       <use xlink:href="#DejaVuSans-34" transform="translate(95.410156 0)"/>
      </g>
     </g>
    </g>
    <g id="ytick_4">
     <g id="line2d_31">
      <g>
       <use xlink:href="#m80f5ce5dc9" x="57.6" y="147.9168" style="stroke: #000000; stroke-width: 0.8"/>
      </g>
     </g>
     <g id="text_8">
      <!-- 0.6 -->
      <g transform="translate(34.696875 151.716019) scale(0.1 -0.1)">
       <defs>
        <path id="DejaVuSans-36" d="M 2113 2584 
Q 1688 2584 1439 2293 
Q 1191 2003 1191 1497 
Q 1191 994 1439 701 
Q 1688 409 2113 409 
Q 2538 409 2786 701 
Q 3034 994 3034 1497 
Q 3034 2003 2786 2293 
Q 2538 2584 2113 2584 
z
M 3366 4563 
L 3366 3988 
Q 3128 4100 2886 4159 
Q 2644 4219 2406 4219 
Q 1781 4219 1451 3797 
Q 1122 3375 1075 2522 
Q 1259 2794 1537 2939 
Q 1816 3084 2150 3084 
Q 2853 3084 3261 2657 
Q 3669 2231 3669 1497 
Q 3669 778 3244 343 
Q 2819 -91 2113 -91 
Q 1303 -91 875 529 
Q 447 1150 447 2328 
Q 447 3434 972 4092 
Q 1497 4750 2381 4750 
Q 2619 4750 2861 4703 
Q 3103 4656 3366 4563 
z
" transform="scale(0.015625)"/>
       </defs>
       <use xlink:href="#DejaVuSans-30"/>
       <use xlink:href="#DejaVuSans-2e" transform="translate(63.623047 0)"/>
       <use xlink:href="#DejaVuSans-36" transform="translate(95.410156 0)"/>
      </g>
     </g>
    </g>
    <g id="ytick_5">
     <g id="line2d_32">
      <g>
       <use xlink:href="#m80f5ce5dc9" x="57.6" y="94.6944" style="stroke: #000000; stroke-width: 0.8"/>
      </g>
     </g>
     <g id="text_9">
      <!-- 0.8 -->
      <g transform="translate(34.696875 98.493619) scale(0.1 -0.1)">
       <defs>
        <path id="DejaVuSans-38" d="M 2034 2216 
Q 1584 2216 1326 1975 
Q 1069 1734 1069 1313 
Q 1069 891 1326 650 
Q 1584 409 2034 409 
Q 2484 409 2743 651 
Q 3003 894 3003 1313 
Q 3003 1734 2745 1975 
Q 2488 2216 2034 2216 
z
M 1403 2484 
Q 997 2584 770 2862 
Q 544 3141 544 3541 
Q 544 4100 942 4425 
Q 1341 4750 2034 4750 
Q 2731 4750 3128 4425 
Q 3525 4100 3525 3541 
Q 3525 3141 3298 2862 
Q 3072 2584 2669 2484 
Q 3125 2378 3379 2068 
Q 3634 1759 3634 1313 
Q 3634 634 3220 271 
Q 2806 -91 2034 -91 
Q 1263 -91 848 271 
Q 434 634 434 1313 
Q 434 1759 690 2068 
Q 947 2378 1403 2484 
z
M 1172 3481 
Q 1172 3119 1398 2916 
Q 1625 2713 2034 2713 
Q 2441 2713 2670 2916 
Q 2900 3119 2900 3481 
Q 2900 3844 2670 4047 
Q 2441 4250 2034 4250 
Q 1625 4250 1398 4047 
Q 1172 3844 1172 3481 
z
" transform="scale(0.015625)"/>
       </defs>
       <use xlink:href="#DejaVuSans-30"/>
       <use xlink:href="#DejaVuSans-2e" transform="translate(63.623047 0)"/>
       <use xlink:href="#DejaVuSans-38" transform="translate(95.410156 0)"/>
      </g>
     </g>
    </g>
    <g id="ytick_6">
     <g id="line2d_33">
      <g>
       <use xlink:href="#m80f5ce5dc9" x="57.6" y="41.472" style="stroke: #000000; stroke-width: 0.8"/>
      </g>
     </g>
     <g id="text_10">
      <!-- 1.0 -->
      <g transform="translate(34.696875 45.271219) scale(0.1 -0.1)">
       <use xlink:href="#DejaVuSans-31"/>
       <use xlink:href="#DejaVuSans-2e" transform="translate(63.623047 0)"/>
       <use xlink:href="#DejaVuSans-30" transform="translate(95.410156 0)"/>
      </g>
     </g>
    </g>
    <g id="text_11">
     <!-- Percent of filled traps -->
     <g transform="translate(28.617187 227.95925) rotate(-90) scale(0.1 -0.1)">
      <defs>
       <path id="DejaVuSans-50" d="M 1259 4147 
L 1259 2394 
L 2053 2394 
Q 2494 2394 2734 2622 
Q 2975 2850 2975 3272 
Q 2975 3691 2734 3919 
Q 2494 4147 2053 4147 
L 1259 4147 
z
M 628 4666 
L 2053 4666 
Q 2838 4666 3239 4311 
Q 3641 3956 3641 3272 
Q 3641 2581 3239 2228 
Q 2838 1875 2053 1875 
L 1259 1875 
L 1259 0 
L 628 0 
L 628 4666 
z
" transform="scale(0.015625)"/>
       <path id="DejaVuSans-72" d="M 2631 2963 
Q 2534 3019 2420 3045 
Q 2306 3072 2169 3072 
Q 1681 3072 1420 2755 
Q 1159 2438 1159 1844 
L 1159 0 
L 581 0 
L 581 3500 
L 1159 3500 
L 1159 2956 
Q 1341 3275 1631 3429 
Q 1922 3584 2338 3584 
Q 2397 3584 2469 3576 
Q 2541 3569 2628 3553 
L 2631 2963 
z
" transform="scale(0.015625)"/>
       <path id="DejaVuSans-63" d="M 3122 3366 
L 3122 2828 
Q 2878 2963 2633 3030 
Q 2388 3097 2138 3097 
Q 1578 3097 1268 2742 
Q 959 2388 959 1747 
Q 959 1106 1268 751 
Q 1578 397 2138 397 
Q 2388 397 2633 464 
Q 2878 531 3122 666 
L 3122 134 
Q 2881 22 2623 -34 
Q 2366 -91 2075 -91 
Q 1284 -91 818 406 
Q 353 903 353 1747 
Q 353 2603 823 3093 
Q 1294 3584 2113 3584 
Q 2378 3584 2631 3529 
Q 2884 3475 3122 3366 
z
" transform="scale(0.015625)"/>
       <path id="DejaVuSans-6e" d="M 3513 2113 
L 3513 0 
L 2938 0 
L 2938 2094 
Q 2938 2591 2744 2837 
Q 2550 3084 2163 3084 
Q 1697 3084 1428 2787 
Q 1159 2491 1159 1978 
L 1159 0 
L 581 0 
L 581 3500 
L 1159 3500 
L 1159 2956 
Q 1366 3272 1645 3428 
Q 1925 3584 2291 3584 
Q 2894 3584 3203 3211 
Q 3513 2838 3513 2113 
z
" transform="scale(0.015625)"/>
       <path id="DejaVuSans-66" d="M 2375 4863 
L 2375 4384 
L 1825 4384 
Q 1516 4384 1395 4259 
Q 1275 4134 1275 3809 
L 1275 3500 
L 2222 3500 
L 2222 3053 
L 1275 3053 
L 1275 0 
L 697 0 
L 697 3053 
L 147 3053 
L 147 3500 
L 697 3500 
L 697 3744 
Q 697 4328 969 4595 
Q 1241 4863 1831 4863 
L 2375 4863 
z
" transform="scale(0.015625)"/>
       <path id="DejaVuSans-6c" d="M 603 4863 
L 1178 4863 
L 1178 0 
L 603 0 
L 603 4863 
z
" transform="scale(0.015625)"/>
       <path id="DejaVuSans-64" d="M 2906 2969 
L 2906 4863 
L 3481 4863 
L 3481 0 
L 2906 0 
L 2906 525 
Q 2725 213 2448 61 
Q 2172 -91 1784 -91 
Q 1150 -91 751 415 
Q 353 922 353 1747 
Q 353 2572 751 3078 
Q 1150 3584 1784 3584 
Q 2172 3584 2448 3432 
Q 2725 3281 2906 2969 
z
M 947 1747 
Q 947 1113 1208 752 
Q 1469 391 1925 391 
Q 2381 391 2643 752 
Q 2906 1113 2906 1747 
Q 2906 2381 2643 2742 
Q 2381 3103 1925 3103 
Q 1469 3103 1208 2742 
Q 947 2381 947 1747 
z
" transform="scale(0.015625)"/>
       <path id="DejaVuSans-61" d="M 2194 1759 
Q 1497 1759 1228 1600 
Q 959 1441 959 1056 
Q 959 750 1161 570 
Q 1363 391 1709 391 
Q 2188 391 2477 730 
Q 2766 1069 2766 1631 
L 2766 1759 
L 2194 1759 
z
M 3341 1997 
L 3341 0 
L 2766 0 
L 2766 531 
Q 2569 213 2275 61 
Q 1981 -91 1556 -91 
Q 1019 -91 701 211 
Q 384 513 384 1019 
Q 384 1609 779 1909 
Q 1175 2209 1959 2209 
L 2766 2209 
L 2766 2266 
Q 2766 2663 2505 2880 
Q 2244 3097 1772 3097 
Q 1472 3097 1187 3025 
Q 903 2953 641 2809 
L 641 3341 
Q 956 3463 1253 3523 
Q 1550 3584 1831 3584 
Q 2591 3584 2966 3190 
Q 3341 2797 3341 1997 
z
" transform="scale(0.015625)"/>
       <path id="DejaVuSans-70" d="M 1159 525 
L 1159 -1331 
L 581 -1331 
L 581 3500 
L 1159 3500 
L 1159 2969 
Q 1341 3281 1617 3432 
Q 1894 3584 2278 3584 
Q 2916 3584 3314 3078 
Q 3713 2572 3713 1747 
Q 3713 922 3314 415 
Q 2916 -91 2278 -91 
Q 1894 -91 1617 61 
Q 1341 213 1159 525 
z
M 3116 1747 
Q 3116 2381 2855 2742 
Q 2594 3103 2138 3103 
Q 1681 3103 1420 2742 
Q 1159 2381 1159 1747 
Q 1159 1113 1420 752 
Q 1681 391 2138 391 
Q 2594 391 2855 752 
Q 3116 1113 3116 1747 
z
" transform="scale(0.015625)"/>
       <path id="DejaVuSans-73" d="M 2834 3397 
L 2834 2853 
Q 2591 2978 2328 3040 
Q 2066 3103 1784 3103 
Q 1356 3103 1142 2972 
Q 928 2841 928 2578 
Q 928 2378 1081 2264 
Q 1234 2150 1697 2047 
L 1894 2003 
Q 2506 1872 2764 1633 
Q 3022 1394 3022 966 
Q 3022 478 2636 193 
Q 2250 -91 1575 -91 
Q 1294 -91 989 -36 
Q 684 19 347 128 
L 347 722 
Q 666 556 975 473 
Q 1284 391 1588 391 
Q 1994 391 2212 530 
Q 2431 669 2431 922 
Q 2431 1156 2273 1281 
Q 2116 1406 1581 1522 
L 1381 1569 
Q 847 1681 609 1914 
Q 372 2147 372 2553 
Q 372 3047 722 3315 
Q 1072 3584 1716 3584 
Q 2034 3584 2315 3537 
Q 2597 3491 2834 3397 
z
" transform="scale(0.015625)"/>
      </defs>
      <use xlink:href="#DejaVuSans-50"/>
      <use xlink:href="#DejaVuSans-65" transform="translate(56.677734 0)"/>
      <use xlink:href="#DejaVuSans-72" transform="translate(118.201172 0)"/>
      <use xlink:href="#DejaVuSans-63" transform="translate(157.064453 0)"/>
      <use xlink:href="#DejaVuSans-65" transform="translate(212.044922 0)"/>
      <use xlink:href="#DejaVuSans-6e" transform="translate(273.568359 0)"/>
      <use xlink:href="#DejaVuSans-74" transform="translate(336.947266 0)"/>
      <use xlink:href="#DejaVuSans-20" transform="translate(376.15625 0)"/>
      <use xlink:href="#DejaVuSans-6f" transform="translate(407.943359 0)"/>
      <use xlink:href="#DejaVuSans-66" transform="translate(469.125 0)"/>
      <use xlink:href="#DejaVuSans-20" transform="translate(504.330078 0)"/>
      <use xlink:href="#DejaVuSans-66" transform="translate(536.117188 0)"/>
      <use xlink:href="#DejaVuSans-69" transform="translate(571.322266 0)"/>
      <use xlink:href="#DejaVuSans-6c" transform="translate(599.105469 0)"/>
      <use xlink:href="#DejaVuSans-6c" transform="translate(626.888672 0)"/>
      <use xlink:href="#DejaVuSans-65" transform="translate(654.671875 0)"/>
      <use xlink:href="#DejaVuSans-64" transform="translate(716.195312 0)"/>
      <use xlink:href="#DejaVuSans-20" transform="translate(779.671875 0)"/>
      <use xlink:href="#DejaVuSans-74" transform="translate(811.458984 0)"/>
      <use xlink:href="#DejaVuSans-72" transform="translate(850.667969 0)"/>
      <use xlink:href="#DejaVuSans-61" transform="translate(891.78125 0)"/>
      <use xlink:href="#DejaVuSans-70" transform="translate(953.060547 0)"/>
      <use xlink:href="#DejaVuSans-73" transform="translate(1016.537109 0)"/>
     </g>
    </g>
   </g>
   <g id="line2d_34">
    <path d="M 73.832727 304.491779 
L 77.893767 304.374689 
L 77.893767 304.2576 
L 86.786948 304.002132 
L 87.884431 303.874399 
L 87.884431 303.751987 
L 95.532756 303.507164 
L 96.386895 303.28363 
L 108.867807 303.060096 
L 108.867807 302.948329 
L 110.651871 302.724795 
L 110.651871 302.613028 
L 113.090498 302.410783 
L 113.090498 302.299016 
L 114.489353 302.086126 
L 114.835051 301.862592 
L 117.130883 301.639058 
L 117.132498 301.527291 
L 117.571492 301.404879 
L 123.133056 301.160056 
L 123.133056 301.037645 
L 125.503515 300.659766 
L 125.503515 300.537354 
L 127.344446 300.404298 
L 127.344446 300.271242 
L 128.942816 300.148831 
L 129.338833 299.882719 
L 134.441885 299.185505 
L 134.441885 299.041805 
L 135.254287 298.765048 
L 135.643319 298.211535 
L 138.212457 297.828334 
L 138.901848 297.306755 
L 139.433311 297.168376 
L 139.937452 296.588252 
L 140.935966 296.157151 
L 143.112007 296.002806 
L 143.112007 295.848461 
L 143.235079 295.70476 
L 143.654 295.550415 
L 144.630052 295.39607 
L 144.630052 295.241725 
L 148.63318 294.933036 
L 148.875621 294.603057 
L 148.875621 294.443389 
L 149.401904 294.294367 
L 149.600803 293.857943 
L 149.642696 293.70892 
L 150.566869 293.421519 
L 152.292943 293.155407 
L 152.311591 292.878651 
L 152.731735 292.617861 
L 154.510251 292.261271 
L 154.510251 292.149504 
L 154.691837 292.037737 
L 158.516719 291.580024 
L 159.241826 291.462935 
L 159.241826 291.345846 
L 159.721018 291.218112 
L 159.721018 291.090378 
L 161.083875 290.590088 
L 161.490294 290.457032 
L 161.490294 290.323976 
L 162.195875 290.201564 
L 162.261244 289.956741 
L 163.168545 289.690629 
L 163.168545 289.557573 
L 164.146785 289.424517 
L 164.146785 289.291461 
L 164.29599 289.030671 
L 165.180087 288.775204 
L 165.180087 288.652792 
L 166.761105 288.429258 
L 167.482836 287.992835 
L 167.508023 287.7693 
L 167.951764 287.545766 
L 168.349764 287.433999 
L 169.228186 287.311588 
L 169.228186 287.189176 
L 170.165941 286.731464 
L 171.133751 286.497285 
L 171.295195 286.24714 
L 171.365096 285.847972 
L 171.842588 285.704271 
L 171.842588 285.560571 
L 172.735261 285.41687 
L 172.735261 285.27317 
L 173.762524 285.007058 
L 173.762524 284.874002 
L 174.326698 284.60789 
L 174.326698 284.485478 
L 175.504015 284.363067 
L 175.640398 284.128888 
L 176.0643 284.006477 
L 176.0643 283.761654 
L 176.653993 283.314586 
L 177.463247 283.107018 
L 179.185758 282.44706 
L 180.178606 282.223526 
L 180.619711 281.552924 
L 181.031164 281.32939 
L 181.053894 281.217623 
L 182.418603 280.8291 
L 182.418603 280.696044 
L 182.960641 280.552343 
L 182.960641 280.408643 
L 183.118504 280.280909 
L 183.649872 280.014797 
L 183.649872 279.892385 
L 184.523976 279.658207 
L 184.523976 279.54644 
L 186.251293 279.12066 
L 186.251293 279.008893 
L 186.595611 278.774715 
L 186.595611 278.646981 
L 186.710484 278.519247 
L 187.712454 278.125402 
L 187.783406 277.997668 
L 188.988034 277.508022 
L 189.295171 277.12482 
L 189.504648 276.874675 
L 189.640386 276.374385 
L 190.019014 276.241329 
L 190.131301 275.842161 
L 190.885235 275.059791 
L 190.885235 274.932058 
L 191.016156 274.697879 
L 191.025297 274.58079 
L 191.400449 274.357256 
L 191.500774 274.128399 
L 191.621156 273.883576 
L 191.643502 273.495053 
L 193.181503 272.718006 
L 193.547246 272.265615 
L 193.590974 272.06337 
L 193.785375 271.850481 
L 194.240238 271.270356 
L 194.662132 271.025533 
L 194.723867 270.8978 
L 195.018257 270.764744 
L 195.018257 270.631688 
L 195.390377 270.487987 
L 195.404136 270.200586 
L 195.853187 270.051564 
L 196.64277 269.913185 
L 196.64277 269.780129 
L 197.543677 269.636429 
L 197.543677 269.492728 
L 198.139864 269.21065 
L 198.180765 268.912604 
L 198.777347 268.619881 
L 199.345661 267.736389 
L 199.392049 267.438344 
L 199.732312 267.294643 
L 199.758004 267.007242 
L 200.293121 266.730486 
L 200.36715 266.581463 
L 200.573532 266.43244 
L 200.573532 266.283418 
L 201.147765 265.969405 
L 201.887475 265.804416 
L 201.927622 265.31477 
L 202.079151 265.144458 
L 203.024997 264.819802 
L 203.6653 264.489823 
L 203.749829 263.845832 
L 204.447399 263.526497 
L 204.696077 262.91444 
L 205.486279 262.041592 
L 205.522811 261.89257 
L 205.804338 261.738225 
L 205.804338 261.578557 
L 206.452743 261.269868 
L 206.452743 261.126167 
L 207.161833 260.977144 
L 207.442537 260.279931 
L 207.766195 260.152197 
L 207.850368 259.89673 
L 208.29781 259.369828 
L 208.895941 259.125005 
L 209.081029 258.885504 
L 210.086194 258.768415 
L 210.141703 258.646003 
L 210.787303 258.177646 
L 210.787303 258.065879 
L 211.492467 257.7359 
L 211.59638 257.405921 
L 211.922777 257.193032 
L 212.199129 256.910953 
L 212.299624 256.447918 
L 212.510277 256.256317 
L 212.531844 256.064717 
L 213.236114 255.638938 
L 213.236114 255.54846 
L 214.225871 255.101391 
L 214.225871 255.005591 
L 214.441326 254.81399 
L 214.622643 254.441434 
L 214.878225 253.903887 
L 215.605976 253.48343 
L 215.605976 253.38763 
L 215.737273 253.185385 
L 215.922292 252.892662 
L 216.374735 252.711706 
L 216.374735 252.621228 
L 217.65312 252.312538 
L 217.764035 252.094326 
L 217.871683 251.684513 
L 218.21774 251.471624 
L 218.21774 251.375823 
L 219.159149 250.67861 
L 219.319046 250.178319 
L 220.048473 249.640773 
L 220.154683 249.411917 
L 220.479638 249.071293 
L 221.096289 248.735992 
L 221.415712 248.310213 
L 221.895128 248.022812 
L 221.949893 247.92169 
L 222.208655 247.730089 
L 222.558491 247.432044 
L 222.651819 247.240443 
L 223.195509 246.942397 
L 223.195509 246.835953 
L 224.107416 245.92585 
L 224.161918 245.707638 
L 224.596201 245.159447 
L 224.762826 244.946557 
L 226.141818 243.701153 
L 226.25303 243.498908 
L 226.46842 243.19554 
L 226.531372 242.987973 
L 227.104248 242.477038 
L 227.133915 242.370593 
L 227.406182 242.147059 
L 227.780973 241.370012 
L 229.202223 241.061322 
L 229.288164 240.869722 
L 229.373956 240.678121 
L 229.466903 240.151219 
L 230.234749 239.523195 
L 230.250965 239.41675 
L 230.632694 239.209183 
L 230.632694 239.10806 
L 230.837385 238.927104 
L 230.957468 238.740826 
L 231.065668 238.559869 
L 231.15206 238.150057 
L 231.540747 237.261243 
L 231.688393 236.537418 
L 231.849079 236.308562 
L 231.950353 235.898749 
L 232.189931 235.723116 
L 232.425535 235.323948 
L 233.230484 234.669312 
L 233.330494 234.270144 
L 233.561624 233.870976 
L 233.654551 233.647442 
L 234.246779 232.215759 
L 234.246779 232.109315 
L 234.640794 231.880458 
L 236.005616 231.422746 
L 236.687053 231.087444 
L 237.089591 230.603121 
L 237.157392 230.347653 
L 237.800102 229.102249 
L 239.126685 228.745659 
L 239.186694 228.516803 
L 239.302347 228.282624 
L 239.604134 228.069734 
L 240.072186 227.787656 
L 240.444608 227.6067 
L 240.553556 227.340588 
L 240.65628 227.101087 
L 240.792664 226.861586 
L 241.029943 226.712563 
L 241.053767 226.552896 
L 241.549881 226.201628 
L 241.619112 226.041961 
L 241.705197 225.818427 
L 241.765962 225.600215 
L 242.12124 225.467159 
L 242.233183 225.318136 
L 242.581849 224.988157 
L 242.639558 224.658179 
L 242.731519 224.455933 
L 243.021795 223.913065 
L 243.932067 223.316974 
L 244.028981 223.066829 
L 244.277027 222.672983 
L 245.196784 222.401549 
L 245.294464 222.21527 
L 245.644809 221.911903 
L 245.644809 221.821425 
L 246.070364 221.363712 
L 246.248298 220.858099 
L 246.435665 220.629243 
L 246.630542 220.400387 
L 246.71514 220.081052 
L 247.84145 219.027249 
L 248.09457 218.84097 
L 248.543704 217.893612 
L 248.669385 217.707333 
L 248.708997 216.983508 
L 249.959829 215.796649 
L 250.406162 214.317066 
L 250.512718 213.795487 
L 251.174464 213.412285 
L 251.270017 213.21004 
L 251.741688 212.975862 
L 251.78801 212.736361 
L 252.355631 212.40106 
L 252.47199 212.087048 
L 252.831671 211.778358 
L 253.146504 211.506924 
L 253.221764 211.139689 
L 253.515002 210.85761 
L 253.600317 210.181686 
L 254.301509 209.181105 
L 254.386272 209.010793 
L 254.649434 208.627592 
L 254.649434 208.547758 
L 255.274415 208.308257 
L 255.369147 207.792 
L 255.461672 207.328965 
L 255.599011 207.185265 
L 255.615531 206.951086 
L 255.881815 206.727552 
L 256.082762 206.339028 
L 256.119653 206.099528 
L 256.327812 205.854705 
L 256.395035 205.540692 
L 256.989306 204.4177 
L 256.989306 204.343188 
L 257.600226 204.082399 
L 257.838443 203.321318 
L 257.944749 203.151007 
L 258.186828 202.996662 
L 258.336293 202.773128 
L 258.843599 202.166392 
L 259.699352 201.474501 
L 259.924808 201.133878 
L 260.463649 200.053463 
L 261.078404 199.675584 
L 261.168978 199.180616 
L 261.310418 199.052882 
L 262.229519 198.392924 
L 262.275203 198.249224 
L 262.514551 198.068268 
L 262.705041 197.222031 
L 262.750541 197.131553 
L 263.256513 196.870764 
L 263.365809 196.689807 
L 263.461417 196.253384 
L 263.925112 195.130391 
L 264.037966 194.896212 
L 264.213248 194.363988 
L 264.789477 194.103199 
L 264.832484 193.762575 
L 265.171248 193.517752 
L 265.275479 193.102618 
L 265.647068 192.58636 
L 266.059041 191.750769 
L 266.169664 191.548524 
L 266.233159 191.239834 
L 266.60712 190.861955 
L 266.691449 190.627776 
L 266.706343 190.473431 
L 268.222807 189.882662 
L 268.779461 188.631936 
L 269.121695 188.19019 
L 269.215961 187.791022 
L 269.460042 187.131064 
L 269.592999 186.785119 
L 269.666256 186.614807 
L 270.143475 186.024038 
L 270.384856 185.853727 
L 270.52648 184.906368 
L 270.578619 184.645578 
L 270.697512 184.108032 
L 270.85819 183.911109 
L 271.230334 182.82005 
L 271.358953 182.351693 
L 271.613547 182.05897 
L 271.72256 181.819469 
L 272.361342 181.579968 
L 272.743928 181.127578 
L 273.027938 180.605998 
L 273.161644 180.057807 
L 273.474286 179.54155 
L 273.596359 179.243505 
L 273.728694 178.998682 
L 273.841215 178.66338 
L 274.257651 178.157768 
L 274.533411 177.747955 
L 274.763708 177.348787 
L 274.90948 177.018808 
L 275.304022 176.294984 
L 275.415578 175.730826 
L 275.924427 175.219891 
L 276.027813 174.6717 
L 276.413772 173.825464 
L 276.504064 173.234696 
L 276.9028 172.93665 
L 277.340612 172.67586 
L 277.412796 172.53216 
L 277.652988 172.308626 
L 277.768049 171.983969 
L 277.834067 171.701891 
L 277.965555 171.425134 
L 278.159481 171.025966 
L 278.7295 170.791788 
L 278.777724 170.616154 
L 278.938287 170.381975 
L 279.318376 170.051996 
L 279.477221 169.934907 
L 279.619507 169.408005 
L 279.677885 169.227049 
L 279.785801 168.843848 
L 280.618238 168.109379 
L 280.706456 167.630377 
L 281.287094 167.034286 
L 281.424613 166.895908 
L 281.49814 166.533996 
L 281.598213 166.358362 
L 281.702887 166.097572 
L 281.790477 165.73566 
L 281.803037 165.607926 
L 281.970873 165.416325 
L 282.806586 162.936161 
L 283.339604 162.627471 
L 283.878356 162.111214 
L 283.970866 161.914291 
L 284.061129 161.712046 
L 284.123519 161.190467 
L 284.315423 160.977577 
L 284.537611 160.567764 
L 284.666295 160.376164 
L 284.895265 160.014252 
L 285.295807 159.391549 
L 285.664846 159.136082 
L 285.671444 159.088182 
L 286.227532 158.784814 
L 286.283977 158.359035 
L 286.689991 157.890678 
L 286.771062 157.68311 
L 287.065549 157.342487 
L 287.137881 156.831552 
L 287.442425 156.427062 
L 287.497781 155.815004 
L 287.805916 155.676626 
L 288.096505 154.644111 
L 288.346172 154.314132 
L 288.557646 154.079954 
L 288.68247 153.95222 
L 288.68247 153.898998 
L 288.802245 153.723364 
L 288.900346 153.590308 
L 289.458807 153.090017 
L 289.944297 152.733427 
L 290.048458 152.440704 
L 290.096271 152.281037 
L 290.198264 152.190559 
L 290.231741 152.036214 
L 290.319375 151.754135 
L 290.74927 151.317711 
L 291.10145 150.556631 
L 291.561995 150.279875 
L 291.981607 149.705073 
L 292.224077 149.396383 
L 292.258445 149.220749 
L 293.032496 148.789647 
L 293.274788 148.560791 
L 293.720565 148.055178 
L 294.027974 147.852933 
L 294.178027 147.677299 
L 294.410079 147.522954 
L 294.542448 147.341998 
L 294.697947 147.272809 
L 295.224669 147.134431 
L 295.239902 147.012019 
L 296.010031 146.857674 
L 296.12361 146.591562 
L 296.427106 146.293517 
L 296.791582 146.043372 
L 297.148076 145.346158 
L 297.320498 144.632978 
L 297.430712 144.271066 
L 297.805036 143.808031 
L 298.159599 142.386993 
L 298.790953 141.812191 
L 299.335232 141.157555 
L 299.475243 140.705165 
L 299.60985 140.199552 
L 300.154066 139.699261 
L 300.165323 139.614106 
L 300.346593 139.48105 
L 300.444876 138.890281 
L 300.562501 137.868411 
L 300.791046 137.325542 
L 300.921072 137.160553 
L 301.190682 136.543173 
L 301.287462 136.239805 
L 301.696193 135.042301 
L 302.413775 133.466918 
L 302.872817 131.02401 
L 302.944792 130.773865 
L 303.072636 130.284219 
L 303.255995 129.970207 
L 303.59799 129.049459 
L 303.671954 128.841892 
L 303.802922 128.554491 
L 304.308446 128.1021 
L 304.408419 127.681644 
L 304.879721 127.394243 
L 305.069413 127.181353 
L 305.176535 127.037652 
L 305.299955 126.702351 
L 305.449625 126.558651 
L 305.587513 126.27125 
L 305.888628 125.96256 
L 305.991863 125.552748 
L 306.422442 124.781023 
L 306.593218 124.541522 
L 306.737557 124.232832 
L 307.206467 122.795827 
L 307.812855 121.853791 
L 307.921507 121.332211 
L 308.130753 120.773376 
L 308.624247 120.42743 
L 308.753762 119.996329 
L 309.142983 119.421527 
L 309.46356 119.139448 
L 309.761708 118.538035 
L 310.539056 117.633254 
L 310.638232 117.250053 
L 310.713154 117.079741 
L 310.886648 116.057871 
L 311.676185 114.019453 
L 312.051376 113.439329 
L 312.155657 113.348851 
L 312.530594 113.024195 
L 312.648139 112.790016 
L 312.85096 112.342948 
L 312.937747 112.209892 
L 313.256447 111.933135 
L 313.601233 111.416878 
L 313.818603 111.225277 
L 313.902587 111.001743 
L 314.089863 110.87401 
L 314.863148 110.033096 
L 315.4093 109.708439 
L 315.549962 109.516838 
L 315.688015 109.421038 
L 316.095963 109.101704 
L 316.332325 108.643991 
L 316.739885 108.196923 
L 317.043146 107.084575 
L 317.529881 106.76524 
L 317.640931 106.371395 
L 317.748665 105.919004 
L 318.007286 105.253724 
L 318.219744 103.422874 
L 318.50316 102.981128 
L 318.849315 102.603249 
L 318.997372 102.326492 
L 319.140134 102.140214 
L 319.676405 101.719757 
L 319.684009 101.613312 
L 320.63641 101.570734 
L 320.833403 101.767657 
L 320.991742 101.719757 
L 320.991742 101.687823 
L 321.127273 101.480256 
L 321.357149 101.08641 
L 321.585147 100.602086 
L 321.687151 100.378552 
L 322.063411 99.809073 
L 322.313699 98.73398 
L 322.414633 98.478513 
L 322.509151 98.244334 
L 323.414396 97.323587 
L 323.520597 97.100052 
L 324.377994 95.556603 
L 324.589393 95.301135 
L 324.707661 95.221302 
L 325.250418 94.8381 
L 325.393832 94.518766 
L 325.428495 94.300554 
L 325.543258 93.997187 
L 325.715203 93.353196 
L 325.867272 93.140306 
L 326.276564 92.757105 
L 326.384314 92.299392 
L 326.508977 92.161014 
L 326.947992 91.969413 
L 327.057055 91.527667 
L 327.321994 90.803843 
L 327.449271 90.548375 
L 327.557537 89.835195 
L 327.793822 89.659561 
L 327.978137 89.489249 
L 328.273781 89.32426 
L 329.107254 89.292326 
L 329.107254 89.281682 
L 329.212878 89.137981 
L 329.415274 88.941059 
L 329.721716 87.956444 
L 330.223248 87.253908 
L 330.389659 87.051663 
L 330.760522 86.125594 
L 330.8723 85.747715 
L 331.619464 85.359191 
L 331.734425 85.130335 
L 332.295702 84.811 
L 332.402843 84.5715 
L 333.028451 83.038694 
L 333.15662 82.538404 
L 333.660858 82.133914 
L 333.80411 81.974246 
L 334.408812 81.08011 
L 335.286256 80.558531 
L 335.58154 80.185974 
L 335.752692 79.919862 
L 336.377811 79.595205 
L 336.511602 79.376993 
L 336.760269 79.13217 
L 337.195844 78.67978 
L 337.37241 78.355123 
L 338.335148 76.769096 
L 338.619851 76.582817 
L 338.803292 76.401861 
L 339.009162 76.157038 
L 339.11879 75.741903 
L 339.589396 75.09259 
L 339.741545 74.970179 
L 339.852633 74.805189 
L 340.152818 74.225065 
L 341.505085 73.165939 
L 341.690502 72.830638 
L 341.922828 72.548559 
L 342.018954 72.38357 
L 342.13083 72.191969 
L 342.465624 71.808768 
L 342.893943 71.377667 
L 343.001558 70.723031 
L 343.186952 70.286607 
L 343.261922 70.38773 
L 343.415343 70.48353 
L 343.830462 70.462241 
L 344.025089 70.206774 
L 344.338461 69.892762 
L 344.522213 69.765028 
L 344.64518 69.823572 
L 344.761328 69.919373 
L 344.827775 69.930017 
L 344.874118 69.903406 
L 345.497393 69.254093 
L 345.639533 68.727191 
L 345.873501 68.407857 
L 346.087241 68.173678 
L 346.354706 67.859666 
L 346.549375 67.311475 
L 346.973574 65.996882 
L 347.224386 65.821248 
L 347.398444 65.592392 
L 347.876281 65.51788 
L 349.319111 65.411436 
L 349.532785 65.060168 
L 349.648724 64.692933 
L 349.906865 64.336343 
L 350.238427 64.102164 
L 350.408028 64.357632 
L 350.522732 64.501332 
L 350.673373 64.671644 
L 350.673492 64.682289 
L 350.777903 64.506655 
L 351.062687 64.027653 
L 351.260691 63.42624 
L 351.681935 62.867405 
L 351.78819 62.250025 
L 352.361176 61.611356 
L 352.729761 61.387822 
L 353.166756 61.07381 
L 353.236381 60.972687 
L 353.624016 60.328696 
L 353.759257 60.158385 
L 354.123033 59.780506 
L 354.624125 58.763958 
L 354.650309 58.801213 
L 354.777081 58.801213 
L 355.458979 58.705413 
L 356.025371 58.295601 
L 356.209787 58.343501 
L 356.210601 58.36479 
L 356.338862 58.497846 
L 356.535565 58.604291 
L 356.881572 58.76928 
L 357.793387 58.662835 
L 357.917148 58.55639 
L 358.822332 58.497846 
L 359.365465 58.391401 
L 359.584608 58.231734 
L 359.610465 58.253023 
L 359.786718 58.540424 
L 359.805617 58.593646 
L 359.880978 58.487201 
L 360.047934 58.082711 
L 360.228913 57.933688 
L 361.046278 58.295601 
L 361.275426 58.135933 
L 361.846466 58.029489 
L 362.335091 57.853855 
L 362.47774 57.470653 
L 362.848016 57.03423 
L 362.94361 56.922463 
L 363.207665 56.533939 
L 363.332873 56.102838 
L 363.677514 55.836726 
L 363.763743 55.772859 
L 364.084872 55.634481 
L 364.435274 55.639803 
L 364.658933 55.719636 
L 364.688724 55.602547 
L 365.072858 54.820178 
L 365.370057 54.772278 
L 365.940117 54.671155 
L 366.607904 54.245376 
L 367.714524 54.149576 
L 367.808511 53.915397 
L 368.07268 53.164961 
L 368.425514 52.834982 
L 368.573665 52.813693 
L 369.500206 52.707249 
L 369.819494 52.233569 
L 369.962811 51.632156 
L 369.98516 51.696023 
L 370.209804 51.600223 
L 370.445505 51.312822 
L 370.950881 51.052032 
L 371.262789 51.158477 
L 371.839809 51.509745 
L 372.097828 51.243633 
L 372.511357 50.658186 
L 372.548622 50.695442 
L 372.67351 51.126543 
L 372.745845 51.312822 
L 372.778237 51.169121 
L 373.133138 50.844465 
L 373.444279 50.519808 
L 374.108493 50.418685 
L 374.108493 50.413363 
L 374.435779 49.85985 
L 374.813192 49.705505 
L 375.341468 49.59906 
L 375.911187 48.795402 
L 375.987812 48.667668 
L 376.056651 48.651702 
L 376.083891 48.832658 
L 377.455427 48.917814 
L 378.052231 48.811369 
L 378.425649 48.657024 
L 378.728813 48.555901 
L 378.999855 48.449457 
L 379.572593 48.374945 
L 380.333841 48.2685 
L 380.636748 47.917233 
L 380.967097 47.858688 
L 382.241263 47.752243 
L 382.652331 47.31582 
L 382.87183 47.214697 
L 383.117782 46.703762 
L 383.295572 46.395072 
L 384.030167 46.262016 
L 387.503539 46.368461 
L 387.531271 46.379105 
L 387.558712 46.27266 
L 387.709799 46.139604 
L 388.069987 45.729792 
L 388.631088 45.623347 
L 388.661883 45.405135 
L 388.751175 45.192246 
L 388.779062 45.197568 
L 388.927527 45.091123 
L 389.232759 44.665344 
L 390.790919 44.558899 
L 391.043811 44.399232 
L 391.960863 44.292787 
L 392.012865 44.095864 
L 392.137989 43.893619 
L 392.336462 43.760563 
L 392.984884 43.281562 
L 393.166133 42.80256 
L 393.384086 42.696115 
L 393.643232 42.536448 
L 394.732901 42.642893 
L 394.990413 42.797238 
L 397.296767 42.690793 
L 397.503668 42.54177 
L 397.711918 42.536448 
L 397.88617 42.430003 
L 398.333255 42.270336 
L 398.487273 42.270336 
L 398.487273 42.270336 
" clip-path="url(#pf809e35ae5)" style="fill: none; stroke-dasharray: 1.85,0.8; stroke-dashoffset: 0; stroke: #8000ff; stroke-width: 0.5"/>
   </g>
   <g id="patch_3">
    <path d="M 57.6 307.584 
L 57.6 41.472 
" style="fill: none; stroke: #000000; stroke-width: 0.8; stroke-linejoin: miter; stroke-linecap: square"/>
   </g>
   <g id="patch_4">
    <path d="M 414.72 307.584 
L 414.72 41.472 
" style="fill: none; stroke: #000000; stroke-width: 0.8; stroke-linejoin: miter; stroke-linecap: square"/>
   </g>
   <g id="patch_5">
    <path d="M 57.6 307.584 
L 414.72 307.584 
" style="fill: none; stroke: #000000; stroke-width: 0.8; stroke-linejoin: miter; stroke-linecap: square"/>
   </g>
   <g id="patch_6">
    <path d="M 57.6 41.472 
L 414.72 41.472 
" style="fill: none; stroke: #000000; stroke-width: 0.8; stroke-linejoin: miter; stroke-linecap: square"/>
   </g>
   <g id="legend_1">
    <g id="patch_7">
     <path d="M 314.584 90.761325 
L 523.329313 90.761325 
Q 525.329313 90.761325 525.329313 88.761325 
L 525.329313 75.0832 
Q 525.329313 73.0832 523.329313 73.0832 
L 314.584 73.0832 
Q 312.584 73.0832 312.584 75.0832 
L 312.584 88.761325 
Q 312.584 90.761325 314.584 90.761325 
z
" style="fill: #ffffff; opacity: 0.8; stroke: #cccccc; stroke-linejoin: miter"/>
    </g>
    <g id="line2d_35">
     <path d="M 316.584 81.181637 
L 326.584 81.181637 
L 336.584 81.181637 
" style="fill: none; stroke-dasharray: 1.85,0.8; stroke-dashoffset: 0; stroke: #8000ff; stroke-width: 0.5"/>
    </g>
    <g id="text_12">
     <!-- Total number of electron traps1000 -->
     <g transform="translate(344.584 84.681637) scale(0.1 -0.1)">
      <defs>
       <path id="DejaVuSans-54" d="M -19 4666 
L 3928 4666 
L 3928 4134 
L 2272 4134 
L 2272 0 
L 1638 0 
L 1638 4134 
L -19 4134 
L -19 4666 
z
" transform="scale(0.015625)"/>
       <path id="DejaVuSans-75" d="M 544 1381 
L 544 3500 
L 1119 3500 
L 1119 1403 
Q 1119 906 1312 657 
Q 1506 409 1894 409 
Q 2359 409 2629 706 
Q 2900 1003 2900 1516 
L 2900 3500 
L 3475 3500 
L 3475 0 
L 2900 0 
L 2900 538 
Q 2691 219 2414 64 
Q 2138 -91 1772 -91 
Q 1169 -91 856 284 
Q 544 659 544 1381 
z
M 1991 3584 
L 1991 3584 
z
" transform="scale(0.015625)"/>
       <path id="DejaVuSans-62" d="M 3116 1747 
Q 3116 2381 2855 2742 
Q 2594 3103 2138 3103 
Q 1681 3103 1420 2742 
Q 1159 2381 1159 1747 
Q 1159 1113 1420 752 
Q 1681 391 2138 391 
Q 2594 391 2855 752 
Q 3116 1113 3116 1747 
z
M 1159 2969 
Q 1341 3281 1617 3432 
Q 1894 3584 2278 3584 
Q 2916 3584 3314 3078 
Q 3713 2572 3713 1747 
Q 3713 922 3314 415 
Q 2916 -91 2278 -91 
Q 1894 -91 1617 61 
Q 1341 213 1159 525 
L 1159 0 
L 581 0 
L 581 4863 
L 1159 4863 
L 1159 2969 
z
" transform="scale(0.015625)"/>
      </defs>
      <use xlink:href="#DejaVuSans-54"/>
      <use xlink:href="#DejaVuSans-6f" transform="translate(44.083984 0)"/>
      <use xlink:href="#DejaVuSans-74" transform="translate(105.265625 0)"/>
      <use xlink:href="#DejaVuSans-61" transform="translate(144.474609 0)"/>
      <use xlink:href="#DejaVuSans-6c" transform="translate(205.753906 0)"/>
      <use xlink:href="#DejaVuSans-20" transform="translate(233.537109 0)"/>
      <use xlink:href="#DejaVuSans-6e" transform="translate(265.324219 0)"/>
      <use xlink:href="#DejaVuSans-75" transform="translate(328.703125 0)"/>
      <use xlink:href="#DejaVuSans-6d" transform="translate(392.082031 0)"/>
      <use xlink:href="#DejaVuSans-62" transform="translate(489.494141 0)"/>
      <use xlink:href="#DejaVuSans-65" transform="translate(552.970703 0)"/>
      <use xlink:href="#DejaVuSans-72" transform="translate(614.494141 0)"/>
      <use xlink:href="#DejaVuSans-20" transform="translate(655.607422 0)"/>
      <use xlink:href="#DejaVuSans-6f" transform="translate(687.394531 0)"/>
      <use xlink:href="#DejaVuSans-66" transform="translate(748.576172 0)"/>
      <use xlink:href="#DejaVuSans-20" transform="translate(783.78125 0)"/>
      <use xlink:href="#DejaVuSans-65" transform="translate(815.568359 0)"/>
      <use xlink:href="#DejaVuSans-6c" transform="translate(877.091797 0)"/>
      <use xlink:href="#DejaVuSans-65" transform="translate(904.875 0)"/>
      <use xlink:href="#DejaVuSans-63" transform="translate(966.398438 0)"/>
      <use xlink:href="#DejaVuSans-74" transform="translate(1021.378906 0)"/>
      <use xlink:href="#DejaVuSans-72" transform="translate(1060.587891 0)"/>
      <use xlink:href="#DejaVuSans-6f" transform="translate(1099.451172 0)"/>
      <use xlink:href="#DejaVuSans-6e" transform="translate(1160.632812 0)"/>
      <use xlink:href="#DejaVuSans-20" transform="translate(1224.011719 0)"/>
      <use xlink:href="#DejaVuSans-74" transform="translate(1255.798828 0)"/>
      <use xlink:href="#DejaVuSans-72" transform="translate(1295.007812 0)"/>
      <use xlink:href="#DejaVuSans-61" transform="translate(1336.121094 0)"/>
      <use xlink:href="#DejaVuSans-70" transform="translate(1397.400391 0)"/>
      <use xlink:href="#DejaVuSans-73" transform="translate(1460.876953 0)"/>
      <use xlink:href="#DejaVuSans-31" transform="translate(1512.976562 0)"/>
      <use xlink:href="#DejaVuSans-30" transform="translate(1576.599609 0)"/>
      <use xlink:href="#DejaVuSans-30" transform="translate(1640.222656 0)"/>
      <use xlink:href="#DejaVuSans-30" transform="translate(1703.845703 0)"/>
     </g>
    </g>
   </g>
  </g>
 </g>
 <defs>
  <clipPath id="pf809e35ae5">
   <rect x="57.6" y="41.472" width="357.12" height="266.112"/>
  </clipPath>
 </defs>
</svg>
