<?xml version="1.0" encoding="utf-8" standalone="no"?>
<!DOCTYPE svg PUBLIC "-//W3C//DTD SVG 1.1//EN"
  "http://www.w3.org/Graphics/SVG/1.1/DTD/svg11.dtd">
<svg xmlns:xlink="http://www.w3.org/1999/xlink" width="460.8pt" height="345.6pt" viewBox="0 0 460.8 345.6" xmlns="http://www.w3.org/2000/svg" version="1.1">
 <metadata>
  <rdf:RDF xmlns:dc="http://purl.org/dc/elements/1.1/" xmlns:cc="http://creativecommons.org/ns#" xmlns:rdf="http://www.w3.org/1999/02/22-rdf-syntax-ns#">
   <cc:Work>
    <dc:type rdf:resource="http://purl.org/dc/dcmitype/StillImage"/>
    <dc:date>2025-03-04T14:22:14.043180</dc:date>
    <dc:format>image/svg+xml</dc:format>
    <dc:creator>
     <cc:Agent>
      <dc:title>Matplotlib v3.10.0, https://matplotlib.org/</dc:title>
     </cc:Agent>
    </dc:creator>
   </cc:Work>
  </rdf:RDF>
 </metadata>
 <defs>
  <style type="text/css">*{stroke-linejoin: round; stroke-linecap: butt}</style>
 </defs>
 <g id="figure_1">
  <g id="patch_1">
   <path d="M 0 345.6 
L 460.8 345.6 
L 460.8 0 
L 0 0 
z
" style="fill: #ffffff"/>
  </g>
  <g id="axes_1">
   <g id="patch_2">
    <path d="M 57.6 307.584 
L 414.72 307.584 
L 414.72 41.472 
L 57.6 41.472 
z
" style="fill: #ffffff"/>
   </g>
   <g id="matplotlib.axis_1">
    <g id="xtick_1">
     <g id="line2d_1">
      <defs>
       <path id="m826686ebd8" d="M 0 0 
L 0 3.5 
" style="stroke: #000000; stroke-width: 0.8"/>
      </defs>
      <g>
       <use xlink:href="#m826686ebd8" x="73.832727" y="307.584" style="stroke: #000000; stroke-width: 0.8"/>
      </g>
     </g>
     <g id="text_1">
      <!-- 0 -->
      <g transform="translate(70.651477 322.182437) scale(0.1 -0.1)">
       <defs>
        <path id="DejaVuSans-30" d="M 2034 4250 
Q 1547 4250 1301 3770 
Q 1056 3291 1056 2328 
Q 1056 1369 1301 889 
Q 1547 409 2034 409 
Q 2525 409 2770 889 
Q 3016 1369 3016 2328 
Q 3016 3291 2770 3770 
Q 2525 4250 2034 4250 
z
M 2034 4750 
Q 2819 4750 3233 4129 
Q 3647 3509 3647 2328 
Q 3647 1150 3233 529 
Q 2819 -91 2034 -91 
Q 1250 -91 836 529 
Q 422 1150 422 2328 
Q 422 3509 836 4129 
Q 1250 4750 2034 4750 
z
" transform="scale(0.015625)"/>
       </defs>
       <use xlink:href="#DejaVuSans-30"/>
      </g>
     </g>
    </g>
    <g id="xtick_2">
     <g id="line2d_2">
      <g>
       <use xlink:href="#m826686ebd8" x="114.414545" y="307.584" style="stroke: #000000; stroke-width: 0.8"/>
      </g>
     </g>
     <g id="text_2">
      <!-- 100 -->
      <g transform="translate(104.870795 322.182437) scale(0.1 -0.1)">
       <defs>
        <path id="DejaVuSans-31" d="M 794 531 
L 1825 531 
L 1825 4091 
L 703 3866 
L 703 4441 
L 1819 4666 
L 2450 4666 
L 2450 531 
L 3481 531 
L 3481 0 
L 794 0 
L 794 531 
z
" transform="scale(0.015625)"/>
       </defs>
       <use xlink:href="#DejaVuSans-31"/>
       <use xlink:href="#DejaVuSans-30" transform="translate(63.623047 0)"/>
       <use xlink:href="#DejaVuSans-30" transform="translate(127.246094 0)"/>
      </g>
     </g>
    </g>
    <g id="xtick_3">
     <g id="line2d_3">
      <g>
       <use xlink:href="#m826686ebd8" x="154.996364" y="307.584" style="stroke: #000000; stroke-width: 0.8"/>
      </g>
     </g>
     <g id="text_3">
      <!-- 200 -->
      <g transform="translate(145.452614 322.182437) scale(0.1 -0.1)">
       <defs>
        <path id="DejaVuSans-32" d="M 1228 531 
L 3431 531 
L 3431 0 
L 469 0 
L 469 531 
Q 828 903 1448 1529 
Q 2069 2156 2228 2338 
Q 2531 2678 2651 2914 
Q 2772 3150 2772 3378 
Q 2772 3750 2511 3984 
Q 2250 4219 1831 4219 
Q 1534 4219 1204 4116 
Q 875 4013 500 3803 
L 500 4441 
Q 881 4594 1212 4672 
Q 1544 4750 1819 4750 
Q 2544 4750 2975 4387 
Q 3406 4025 3406 3419 
Q 3406 3131 3298 2873 
Q 3191 2616 2906 2266 
Q 2828 2175 2409 1742 
Q 1991 1309 1228 531 
z
" transform="scale(0.015625)"/>
       </defs>
       <use xlink:href="#DejaVuSans-32"/>
       <use xlink:href="#DejaVuSans-30" transform="translate(63.623047 0)"/>
       <use xlink:href="#DejaVuSans-30" transform="translate(127.246094 0)"/>
      </g>
     </g>
    </g>
    <g id="xtick_4">
     <g id="line2d_4">
      <g>
       <use xlink:href="#m826686ebd8" x="195.578182" y="307.584" style="stroke: #000000; stroke-width: 0.8"/>
      </g>
     </g>
     <g id="text_4">
      <!-- 300 -->
      <g transform="translate(186.034432 322.182437) scale(0.1 -0.1)">
       <defs>
        <path id="DejaVuSans-33" d="M 2597 2516 
Q 3050 2419 3304 2112 
Q 3559 1806 3559 1356 
Q 3559 666 3084 287 
Q 2609 -91 1734 -91 
Q 1441 -91 1130 -33 
Q 819 25 488 141 
L 488 750 
Q 750 597 1062 519 
Q 1375 441 1716 441 
Q 2309 441 2620 675 
Q 2931 909 2931 1356 
Q 2931 1769 2642 2001 
Q 2353 2234 1838 2234 
L 1294 2234 
L 1294 2753 
L 1863 2753 
Q 2328 2753 2575 2939 
Q 2822 3125 2822 3475 
Q 2822 3834 2567 4026 
Q 2313 4219 1838 4219 
Q 1578 4219 1281 4162 
Q 984 4106 628 3988 
L 628 4550 
Q 988 4650 1302 4700 
Q 1616 4750 1894 4750 
Q 2613 4750 3031 4423 
Q 3450 4097 3450 3541 
Q 3450 3153 3228 2886 
Q 3006 2619 2597 2516 
z
" transform="scale(0.015625)"/>
       </defs>
       <use xlink:href="#DejaVuSans-33"/>
       <use xlink:href="#DejaVuSans-30" transform="translate(63.623047 0)"/>
       <use xlink:href="#DejaVuSans-30" transform="translate(127.246094 0)"/>
      </g>
     </g>
    </g>
    <g id="xtick_5">
     <g id="line2d_5">
      <g>
       <use xlink:href="#m826686ebd8" x="236.16" y="307.584" style="stroke: #000000; stroke-width: 0.8"/>
      </g>
     </g>
     <g id="text_5">
      <!-- 400 -->
      <g transform="translate(226.61625 322.182437) scale(0.1 -0.1)">
       <defs>
        <path id="DejaVuSans-34" d="M 2419 4116 
L 825 1625 
L 2419 1625 
L 2419 4116 
z
M 2253 4666 
L 3047 4666 
L 3047 1625 
L 3713 1625 
L 3713 1100 
L 3047 1100 
L 3047 0 
L 2419 0 
L 2419 1100 
L 313 1100 
L 313 1709 
L 2253 4666 
z
" transform="scale(0.015625)"/>
       </defs>
       <use xlink:href="#DejaVuSans-34"/>
       <use xlink:href="#DejaVuSans-30" transform="translate(63.623047 0)"/>
       <use xlink:href="#DejaVuSans-30" transform="translate(127.246094 0)"/>
      </g>
     </g>
    </g>
    <g id="xtick_6">
     <g id="line2d_6">
      <g>
       <use xlink:href="#m826686ebd8" x="276.741818" y="307.584" style="stroke: #000000; stroke-width: 0.8"/>
      </g>
     </g>
     <g id="text_6">
      <!-- 500 -->
      <g transform="translate(267.198068 322.182437) scale(0.1 -0.1)">
       <defs>
        <path id="DejaVuSans-35" d="M 691 4666 
L 3169 4666 
L 3169 4134 
L 1269 4134 
L 1269 2991 
Q 1406 3038 1543 3061 
Q 1681 3084 1819 3084 
Q 2600 3084 3056 2656 
Q 3513 2228 3513 1497 
Q 3513 744 3044 326 
Q 2575 -91 1722 -91 
Q 1428 -91 1123 -41 
Q 819 9 494 109 
L 494 744 
Q 775 591 1075 516 
Q 1375 441 1709 441 
Q 2250 441 2565 725 
Q 2881 1009 2881 1497 
Q 2881 1984 2565 2268 
Q 2250 2553 1709 2553 
Q 1456 2553 1204 2497 
Q 953 2441 691 2322 
L 691 4666 
z
" transform="scale(0.015625)"/>
       </defs>
       <use xlink:href="#DejaVuSans-35"/>
       <use xlink:href="#DejaVuSans-30" transform="translate(63.623047 0)"/>
       <use xlink:href="#DejaVuSans-30" transform="translate(127.246094 0)"/>
      </g>
     </g>
    </g>
    <g id="xtick_7">
     <g id="line2d_7">
      <g>
       <use xlink:href="#m826686ebd8" x="317.323636" y="307.584" style="stroke: #000000; stroke-width: 0.8"/>
      </g>
     </g>
     <g id="text_7">
      <!-- 600 -->
      <g transform="translate(307.779886 322.182437) scale(0.1 -0.1)">
       <defs>
        <path id="DejaVuSans-36" d="M 2113 2584 
Q 1688 2584 1439 2293 
Q 1191 2003 1191 1497 
Q 1191 994 1439 701 
Q 1688 409 2113 409 
Q 2538 409 2786 701 
Q 3034 994 3034 1497 
Q 3034 2003 2786 2293 
Q 2538 2584 2113 2584 
z
M 3366 4563 
L 3366 3988 
Q 3128 4100 2886 4159 
Q 2644 4219 2406 4219 
Q 1781 4219 1451 3797 
Q 1122 3375 1075 2522 
Q 1259 2794 1537 2939 
Q 1816 3084 2150 3084 
Q 2853 3084 3261 2657 
Q 3669 2231 3669 1497 
Q 3669 778 3244 343 
Q 2819 -91 2113 -91 
Q 1303 -91 875 529 
Q 447 1150 447 2328 
Q 447 3434 972 4092 
Q 1497 4750 2381 4750 
Q 2619 4750 2861 4703 
Q 3103 4656 3366 4563 
z
" transform="scale(0.015625)"/>
       </defs>
       <use xlink:href="#DejaVuSans-36"/>
       <use xlink:href="#DejaVuSans-30" transform="translate(63.623047 0)"/>
       <use xlink:href="#DejaVuSans-30" transform="translate(127.246094 0)"/>
      </g>
     </g>
    </g>
    <g id="xtick_8">
     <g id="line2d_8">
      <g>
       <use xlink:href="#m826686ebd8" x="357.905455" y="307.584" style="stroke: #000000; stroke-width: 0.8"/>
      </g>
     </g>
     <g id="text_8">
      <!-- 700 -->
      <g transform="translate(348.361705 322.182437) scale(0.1 -0.1)">
       <defs>
        <path id="DejaVuSans-37" d="M 525 4666 
L 3525 4666 
L 3525 4397 
L 1831 0 
L 1172 0 
L 2766 4134 
L 525 4134 
L 525 4666 
z
" transform="scale(0.015625)"/>
       </defs>
       <use xlink:href="#DejaVuSans-37"/>
       <use xlink:href="#DejaVuSans-30" transform="translate(63.623047 0)"/>
       <use xlink:href="#DejaVuSans-30" transform="translate(127.246094 0)"/>
      </g>
     </g>
    </g>
    <g id="xtick_9">
     <g id="line2d_9">
      <g>
       <use xlink:href="#m826686ebd8" x="398.487273" y="307.584" style="stroke: #000000; stroke-width: 0.8"/>
      </g>
     </g>
     <g id="text_9">
      <!-- 800 -->
      <g transform="translate(388.943523 322.182437) scale(0.1 -0.1)">
       <defs>
        <path id="DejaVuSans-38" d="M 2034 2216 
Q 1584 2216 1326 1975 
Q 1069 1734 1069 1313 
Q 1069 891 1326 650 
Q 1584 409 2034 409 
Q 2484 409 2743 651 
Q 3003 894 3003 1313 
Q 3003 1734 2745 1975 
Q 2488 2216 2034 2216 
z
M 1403 2484 
Q 997 2584 770 2862 
Q 544 3141 544 3541 
Q 544 4100 942 4425 
Q 1341 4750 2034 4750 
Q 2731 4750 3128 4425 
Q 3525 4100 3525 3541 
Q 3525 3141 3298 2862 
Q 3072 2584 2669 2484 
Q 3125 2378 3379 2068 
Q 3634 1759 3634 1313 
Q 3634 634 3220 271 
Q 2806 -91 2034 -91 
Q 1263 -91 848 271 
Q 434 634 434 1313 
Q 434 1759 690 2068 
Q 947 2378 1403 2484 
z
M 1172 3481 
Q 1172 3119 1398 2916 
Q 1625 2713 2034 2713 
Q 2441 2713 2670 2916 
Q 2900 3119 2900 3481 
Q 2900 3844 2670 4047 
Q 2441 4250 2034 4250 
Q 1625 4250 1398 4047 
Q 1172 3844 1172 3481 
z
" transform="scale(0.015625)"/>
       </defs>
       <use xlink:href="#DejaVuSans-38"/>
       <use xlink:href="#DejaVuSans-30" transform="translate(63.623047 0)"/>
       <use xlink:href="#DejaVuSans-30" transform="translate(127.246094 0)"/>
      </g>
     </g>
    </g>
    <g id="text_10">
     <!-- Temperature ($^{\circ}C$) -->
     <g transform="translate(192.16 335.862125) scale(0.1 -0.1)">
      <defs>
       <path id="DejaVuSans-54" d="M -19 4666 
L 3928 4666 
L 3928 4134 
L 2272 4134 
L 2272 0 
L 1638 0 
L 1638 4134 
L -19 4134 
L -19 4666 
z
" transform="scale(0.015625)"/>
       <path id="DejaVuSans-65" d="M 3597 1894 
L 3597 1613 
L 953 1613 
Q 991 1019 1311 708 
Q 1631 397 2203 397 
Q 2534 397 2845 478 
Q 3156 559 3463 722 
L 3463 178 
Q 3153 47 2828 -22 
Q 2503 -91 2169 -91 
Q 1331 -91 842 396 
Q 353 884 353 1716 
Q 353 2575 817 3079 
Q 1281 3584 2069 3584 
Q 2775 3584 3186 3129 
Q 3597 2675 3597 1894 
z
M 3022 2063 
Q 3016 2534 2758 2815 
Q 2500 3097 2075 3097 
Q 1594 3097 1305 2825 
Q 1016 2553 972 2059 
L 3022 2063 
z
" transform="scale(0.015625)"/>
       <path id="DejaVuSans-6d" d="M 3328 2828 
Q 3544 3216 3844 3400 
Q 4144 3584 4550 3584 
Q 5097 3584 5394 3201 
Q 5691 2819 5691 2113 
L 5691 0 
L 5113 0 
L 5113 2094 
Q 5113 2597 4934 2840 
Q 4756 3084 4391 3084 
Q 3944 3084 3684 2787 
Q 3425 2491 3425 1978 
L 3425 0 
L 2847 0 
L 2847 2094 
Q 2847 2600 2669 2842 
Q 2491 3084 2119 3084 
Q 1678 3084 1418 2786 
Q 1159 2488 1159 1978 
L 1159 0 
L 581 0 
L 581 3500 
L 1159 3500 
L 1159 2956 
Q 1356 3278 1631 3431 
Q 1906 3584 2284 3584 
Q 2666 3584 2933 3390 
Q 3200 3197 3328 2828 
z
" transform="scale(0.015625)"/>
       <path id="DejaVuSans-70" d="M 1159 525 
L 1159 -1331 
L 581 -1331 
L 581 3500 
L 1159 3500 
L 1159 2969 
Q 1341 3281 1617 3432 
Q 1894 3584 2278 3584 
Q 2916 3584 3314 3078 
Q 3713 2572 3713 1747 
Q 3713 922 3314 415 
Q 2916 -91 2278 -91 
Q 1894 -91 1617 61 
Q 1341 213 1159 525 
z
M 3116 1747 
Q 3116 2381 2855 2742 
Q 2594 3103 2138 3103 
Q 1681 3103 1420 2742 
Q 1159 2381 1159 1747 
Q 1159 1113 1420 752 
Q 1681 391 2138 391 
Q 2594 391 2855 752 
Q 3116 1113 3116 1747 
z
" transform="scale(0.015625)"/>
       <path id="DejaVuSans-72" d="M 2631 2963 
Q 2534 3019 2420 3045 
Q 2306 3072 2169 3072 
Q 1681 3072 1420 2755 
Q 1159 2438 1159 1844 
L 1159 0 
L 581 0 
L 581 3500 
L 1159 3500 
L 1159 2956 
Q 1341 3275 1631 3429 
Q 1922 3584 2338 3584 
Q 2397 3584 2469 3576 
Q 2541 3569 2628 3553 
L 2631 2963 
z
" transform="scale(0.015625)"/>
       <path id="DejaVuSans-61" d="M 2194 1759 
Q 1497 1759 1228 1600 
Q 959 1441 959 1056 
Q 959 750 1161 570 
Q 1363 391 1709 391 
Q 2188 391 2477 730 
Q 2766 1069 2766 1631 
L 2766 1759 
L 2194 1759 
z
M 3341 1997 
L 3341 0 
L 2766 0 
L 2766 531 
Q 2569 213 2275 61 
Q 1981 -91 1556 -91 
Q 1019 -91 701 211 
Q 384 513 384 1019 
Q 384 1609 779 1909 
Q 1175 2209 1959 2209 
L 2766 2209 
L 2766 2266 
Q 2766 2663 2505 2880 
Q 2244 3097 1772 3097 
Q 1472 3097 1187 3025 
Q 903 2953 641 2809 
L 641 3341 
Q 956 3463 1253 3523 
Q 1550 3584 1831 3584 
Q 2591 3584 2966 3190 
Q 3341 2797 3341 1997 
z
" transform="scale(0.015625)"/>
       <path id="DejaVuSans-74" d="M 1172 4494 
L 1172 3500 
L 2356 3500 
L 2356 3053 
L 1172 3053 
L 1172 1153 
Q 1172 725 1289 603 
Q 1406 481 1766 481 
L 2356 481 
L 2356 0 
L 1766 0 
Q 1100 0 847 248 
Q 594 497 594 1153 
L 594 3053 
L 172 3053 
L 172 3500 
L 594 3500 
L 594 4494 
L 1172 4494 
z
" transform="scale(0.015625)"/>
       <path id="DejaVuSans-75" d="M 544 1381 
L 544 3500 
L 1119 3500 
L 1119 1403 
Q 1119 906 1312 657 
Q 1506 409 1894 409 
Q 2359 409 2629 706 
Q 2900 1003 2900 1516 
L 2900 3500 
L 3475 3500 
L 3475 0 
L 2900 0 
L 2900 538 
Q 2691 219 2414 64 
Q 2138 -91 1772 -91 
Q 1169 -91 856 284 
Q 544 659 544 1381 
z
M 1991 3584 
L 1991 3584 
z
" transform="scale(0.015625)"/>
       <path id="DejaVuSans-20" transform="scale(0.015625)"/>
       <path id="DejaVuSans-28" d="M 1984 4856 
Q 1566 4138 1362 3434 
Q 1159 2731 1159 2009 
Q 1159 1288 1364 580 
Q 1569 -128 1984 -844 
L 1484 -844 
Q 1016 -109 783 600 
Q 550 1309 550 2009 
Q 550 2706 781 3412 
Q 1013 4119 1484 4856 
L 1984 4856 
z
" transform="scale(0.015625)"/>
       <path id="DejaVuSans-2218" d="M 2000 2619 
Q 1750 2619 1578 2445 
Q 1406 2272 1406 2022 
Q 1406 1775 1578 1605 
Q 1750 1435 2000 1435 
Q 2250 1435 2422 1605 
Q 2594 1775 2594 2022 
Q 2594 2269 2420 2444 
Q 2247 2619 2000 2619 
z
M 2000 3022 
Q 2200 3022 2384 2945 
Q 2569 2869 2703 2725 
Q 2847 2585 2919 2406 
Q 2991 2228 2991 2022 
Q 2991 1610 2702 1324 
Q 2413 1038 1994 1038 
Q 1572 1038 1290 1319 
Q 1009 1600 1009 2022 
Q 1009 2441 1296 2731 
Q 1584 3022 2000 3022 
z
" transform="scale(0.015625)"/>
       <path id="DejaVuSans-Oblique-43" d="M 4447 4306 
L 4319 3641 
Q 4019 3944 3683 4091 
Q 3347 4238 2956 4238 
Q 2422 4238 2017 3981 
Q 1613 3725 1319 3200 
Q 1131 2863 1032 2486 
Q 934 2109 934 1728 
Q 934 1091 1264 756 
Q 1594 422 2222 422 
Q 2656 422 3056 561 
Q 3456 700 3834 978 
L 3688 231 
Q 3316 72 2936 -9 
Q 2556 -91 2175 -91 
Q 1278 -91 773 396 
Q 269 884 269 1753 
Q 269 2309 461 2846 
Q 653 3384 1013 3828 
Q 1394 4300 1883 4525 
Q 2372 4750 3022 4750 
Q 3422 4750 3780 4639 
Q 4138 4528 4447 4306 
z
" transform="scale(0.015625)"/>
       <path id="DejaVuSans-29" d="M 513 4856 
L 1013 4856 
Q 1481 4119 1714 3412 
Q 1947 2706 1947 2009 
Q 1947 1309 1714 600 
Q 1481 -109 1013 -844 
L 513 -844 
Q 928 -128 1133 580 
Q 1338 1288 1338 2009 
Q 1338 2731 1133 3434 
Q 928 4138 513 4856 
z
" transform="scale(0.015625)"/>
      </defs>
      <use xlink:href="#DejaVuSans-54" transform="translate(0 0.125)"/>
      <use xlink:href="#DejaVuSans-65" transform="translate(61.083984 0.125)"/>
      <use xlink:href="#DejaVuSans-6d" transform="translate(122.607422 0.125)"/>
      <use xlink:href="#DejaVuSans-70" transform="translate(220.019531 0.125)"/>
      <use xlink:href="#DejaVuSans-65" transform="translate(283.496094 0.125)"/>
      <use xlink:href="#DejaVuSans-72" transform="translate(345.019531 0.125)"/>
      <use xlink:href="#DejaVuSans-61" transform="translate(386.132812 0.125)"/>
      <use xlink:href="#DejaVuSans-74" transform="translate(447.412109 0.125)"/>
      <use xlink:href="#DejaVuSans-75" transform="translate(486.621094 0.125)"/>
      <use xlink:href="#DejaVuSans-72" transform="translate(550 0.125)"/>
      <use xlink:href="#DejaVuSans-65" transform="translate(591.113281 0.125)"/>
      <use xlink:href="#DejaVuSans-20" transform="translate(652.636719 0.125)"/>
      <use xlink:href="#DejaVuSans-28" transform="translate(684.423828 0.125)"/>
      <use xlink:href="#DejaVuSans-2218" transform="translate(724.394531 38.40625) scale(0.7)"/>
      <use xlink:href="#DejaVuSans-Oblique-43" transform="translate(770.947266 0.125)"/>
      <use xlink:href="#DejaVuSans-29" transform="translate(840.771484 0.125)"/>
     </g>
    </g>
   </g>
   <g id="matplotlib.axis_2">
    <g id="ytick_1">
     <g id="line2d_10">
      <defs>
       <path id="m844fbee318" d="M 0 0 
L -3.5 0 
" style="stroke: #000000; stroke-width: 0.8"/>
      </defs>
      <g>
       <use xlink:href="#m844fbee318" x="57.6" y="295.528427" style="stroke: #000000; stroke-width: 0.8"/>
      </g>
     </g>
     <g id="text_11">
      <!-- 0.00 -->
      <g transform="translate(28.334375 299.327646) scale(0.1 -0.1)">
       <defs>
        <path id="DejaVuSans-2e" d="M 684 794 
L 1344 794 
L 1344 0 
L 684 0 
L 684 794 
z
" transform="scale(0.015625)"/>
       </defs>
       <use xlink:href="#DejaVuSans-30"/>
       <use xlink:href="#DejaVuSans-2e" transform="translate(63.623047 0)"/>
       <use xlink:href="#DejaVuSans-30" transform="translate(95.410156 0)"/>
       <use xlink:href="#DejaVuSans-30" transform="translate(159.033203 0)"/>
      </g>
     </g>
    </g>
    <g id="ytick_2">
     <g id="line2d_11">
      <g>
       <use xlink:href="#m844fbee318" x="57.6" y="261.326115" style="stroke: #000000; stroke-width: 0.8"/>
      </g>
     </g>
     <g id="text_12">
      <!-- 0.25 -->
      <g transform="translate(28.334375 265.125334) scale(0.1 -0.1)">
       <use xlink:href="#DejaVuSans-30"/>
       <use xlink:href="#DejaVuSans-2e" transform="translate(63.623047 0)"/>
       <use xlink:href="#DejaVuSans-32" transform="translate(95.410156 0)"/>
       <use xlink:href="#DejaVuSans-35" transform="translate(159.033203 0)"/>
      </g>
     </g>
    </g>
    <g id="ytick_3">
     <g id="line2d_12">
      <g>
       <use xlink:href="#m844fbee318" x="57.6" y="227.123803" style="stroke: #000000; stroke-width: 0.8"/>
      </g>
     </g>
     <g id="text_13">
      <!-- 0.50 -->
      <g transform="translate(28.334375 230.923021) scale(0.1 -0.1)">
       <use xlink:href="#DejaVuSans-30"/>
       <use xlink:href="#DejaVuSans-2e" transform="translate(63.623047 0)"/>
       <use xlink:href="#DejaVuSans-35" transform="translate(95.410156 0)"/>
       <use xlink:href="#DejaVuSans-30" transform="translate(159.033203 0)"/>
      </g>
     </g>
    </g>
    <g id="ytick_4">
     <g id="line2d_13">
      <g>
       <use xlink:href="#m844fbee318" x="57.6" y="192.92149" style="stroke: #000000; stroke-width: 0.8"/>
      </g>
     </g>
     <g id="text_14">
      <!-- 0.75 -->
      <g transform="translate(28.334375 196.720709) scale(0.1 -0.1)">
       <use xlink:href="#DejaVuSans-30"/>
       <use xlink:href="#DejaVuSans-2e" transform="translate(63.623047 0)"/>
       <use xlink:href="#DejaVuSans-37" transform="translate(95.410156 0)"/>
       <use xlink:href="#DejaVuSans-35" transform="translate(159.033203 0)"/>
      </g>
     </g>
    </g>
    <g id="ytick_5">
     <g id="line2d_14">
      <g>
       <use xlink:href="#m844fbee318" x="57.6" y="158.719178" style="stroke: #000000; stroke-width: 0.8"/>
      </g>
     </g>
     <g id="text_15">
      <!-- 1.00 -->
      <g transform="translate(28.334375 162.518397) scale(0.1 -0.1)">
       <use xlink:href="#DejaVuSans-31"/>
       <use xlink:href="#DejaVuSans-2e" transform="translate(63.623047 0)"/>
       <use xlink:href="#DejaVuSans-30" transform="translate(95.410156 0)"/>
       <use xlink:href="#DejaVuSans-30" transform="translate(159.033203 0)"/>
      </g>
     </g>
    </g>
    <g id="ytick_6">
     <g id="line2d_15">
      <g>
       <use xlink:href="#m844fbee318" x="57.6" y="124.516866" style="stroke: #000000; stroke-width: 0.8"/>
      </g>
     </g>
     <g id="text_16">
      <!-- 1.25 -->
      <g transform="translate(28.334375 128.316085) scale(0.1 -0.1)">
       <use xlink:href="#DejaVuSans-31"/>
       <use xlink:href="#DejaVuSans-2e" transform="translate(63.623047 0)"/>
       <use xlink:href="#DejaVuSans-32" transform="translate(95.410156 0)"/>
       <use xlink:href="#DejaVuSans-35" transform="translate(159.033203 0)"/>
      </g>
     </g>
    </g>
    <g id="ytick_7">
     <g id="line2d_16">
      <g>
       <use xlink:href="#m844fbee318" x="57.6" y="90.314554" style="stroke: #000000; stroke-width: 0.8"/>
      </g>
     </g>
     <g id="text_17">
      <!-- 1.50 -->
      <g transform="translate(28.334375 94.113773) scale(0.1 -0.1)">
       <use xlink:href="#DejaVuSans-31"/>
       <use xlink:href="#DejaVuSans-2e" transform="translate(63.623047 0)"/>
       <use xlink:href="#DejaVuSans-35" transform="translate(95.410156 0)"/>
       <use xlink:href="#DejaVuSans-30" transform="translate(159.033203 0)"/>
      </g>
     </g>
    </g>
    <g id="ytick_8">
     <g id="line2d_17">
      <g>
       <use xlink:href="#m844fbee318" x="57.6" y="56.112242" style="stroke: #000000; stroke-width: 0.8"/>
      </g>
     </g>
     <g id="text_18">
      <!-- 1.75 -->
      <g transform="translate(28.334375 59.91146) scale(0.1 -0.1)">
       <use xlink:href="#DejaVuSans-31"/>
       <use xlink:href="#DejaVuSans-2e" transform="translate(63.623047 0)"/>
       <use xlink:href="#DejaVuSans-37" transform="translate(95.410156 0)"/>
       <use xlink:href="#DejaVuSans-35" transform="translate(159.033203 0)"/>
      </g>
     </g>
    </g>
    <g id="text_19">
     <!-- Intensity ($^{\circ}C^{-1}$) -->
     <g transform="translate(22.234375 213.328) rotate(-90) scale(0.1 -0.1)">
      <defs>
       <path id="DejaVuSans-49" d="M 628 4666 
L 1259 4666 
L 1259 0 
L 628 0 
L 628 4666 
z
" transform="scale(0.015625)"/>
       <path id="DejaVuSans-6e" d="M 3513 2113 
L 3513 0 
L 2938 0 
L 2938 2094 
Q 2938 2591 2744 2837 
Q 2550 3084 2163 3084 
Q 1697 3084 1428 2787 
Q 1159 2491 1159 1978 
L 1159 0 
L 581 0 
L 581 3500 
L 1159 3500 
L 1159 2956 
Q 1366 3272 1645 3428 
Q 1925 3584 2291 3584 
Q 2894 3584 3203 3211 
Q 3513 2838 3513 2113 
z
" transform="scale(0.015625)"/>
       <path id="DejaVuSans-73" d="M 2834 3397 
L 2834 2853 
Q 2591 2978 2328 3040 
Q 2066 3103 1784 3103 
Q 1356 3103 1142 2972 
Q 928 2841 928 2578 
Q 928 2378 1081 2264 
Q 1234 2150 1697 2047 
L 1894 2003 
Q 2506 1872 2764 1633 
Q 3022 1394 3022 966 
Q 3022 478 2636 193 
Q 2250 -91 1575 -91 
Q 1294 -91 989 -36 
Q 684 19 347 128 
L 347 722 
Q 666 556 975 473 
Q 1284 391 1588 391 
Q 1994 391 2212 530 
Q 2431 669 2431 922 
Q 2431 1156 2273 1281 
Q 2116 1406 1581 1522 
L 1381 1569 
Q 847 1681 609 1914 
Q 372 2147 372 2553 
Q 372 3047 722 3315 
Q 1072 3584 1716 3584 
Q 2034 3584 2315 3537 
Q 2597 3491 2834 3397 
z
" transform="scale(0.015625)"/>
       <path id="DejaVuSans-69" d="M 603 3500 
L 1178 3500 
L 1178 0 
L 603 0 
L 603 3500 
z
M 603 4863 
L 1178 4863 
L 1178 4134 
L 603 4134 
L 603 4863 
z
" transform="scale(0.015625)"/>
       <path id="DejaVuSans-79" d="M 2059 -325 
Q 1816 -950 1584 -1140 
Q 1353 -1331 966 -1331 
L 506 -1331 
L 506 -850 
L 844 -850 
Q 1081 -850 1212 -737 
Q 1344 -625 1503 -206 
L 1606 56 
L 191 3500 
L 800 3500 
L 1894 763 
L 2988 3500 
L 3597 3500 
L 2059 -325 
z
" transform="scale(0.015625)"/>
       <path id="DejaVuSans-2212" d="M 678 2272 
L 4684 2272 
L 4684 1741 
L 678 1741 
L 678 2272 
z
" transform="scale(0.015625)"/>
      </defs>
      <use xlink:href="#DejaVuSans-49" transform="translate(0 0.684375)"/>
      <use xlink:href="#DejaVuSans-6e" transform="translate(29.492188 0.684375)"/>
      <use xlink:href="#DejaVuSans-74" transform="translate(92.871094 0.684375)"/>
      <use xlink:href="#DejaVuSans-65" transform="translate(132.080078 0.684375)"/>
      <use xlink:href="#DejaVuSans-6e" transform="translate(193.603516 0.684375)"/>
      <use xlink:href="#DejaVuSans-73" transform="translate(256.982422 0.684375)"/>
      <use xlink:href="#DejaVuSans-69" transform="translate(309.082031 0.684375)"/>
      <use xlink:href="#DejaVuSans-74" transform="translate(336.865234 0.684375)"/>
      <use xlink:href="#DejaVuSans-79" transform="translate(376.074219 0.684375)"/>
      <use xlink:href="#DejaVuSans-20" transform="translate(435.253906 0.684375)"/>
      <use xlink:href="#DejaVuSans-28" transform="translate(467.041016 0.684375)"/>
      <use xlink:href="#DejaVuSans-2218" transform="translate(507.011719 38.965625) scale(0.7)"/>
      <use xlink:href="#DejaVuSans-Oblique-43" transform="translate(553.564453 0.684375)"/>
      <use xlink:href="#DejaVuSans-2212" transform="translate(630.589193 38.965625) scale(0.7)"/>
      <use xlink:href="#DejaVuSans-31" transform="translate(689.241536 38.965625) scale(0.7)"/>
      <use xlink:href="#DejaVuSans-29" transform="translate(736.512044 0.684375)"/>
     </g>
    </g>
    <g id="text_20">
     <!-- 1e9 -->
     <g transform="translate(57.6 38.472) scale(0.1 -0.1)">
      <defs>
       <path id="DejaVuSans-39" d="M 703 97 
L 703 672 
Q 941 559 1184 500 
Q 1428 441 1663 441 
Q 2288 441 2617 861 
Q 2947 1281 2994 2138 
Q 2813 1869 2534 1725 
Q 2256 1581 1919 1581 
Q 1219 1581 811 2004 
Q 403 2428 403 3163 
Q 403 3881 828 4315 
Q 1253 4750 1959 4750 
Q 2769 4750 3195 4129 
Q 3622 3509 3622 2328 
Q 3622 1225 3098 567 
Q 2575 -91 1691 -91 
Q 1453 -91 1209 -44 
Q 966 3 703 97 
z
M 1959 2075 
Q 2384 2075 2632 2365 
Q 2881 2656 2881 3163 
Q 2881 3666 2632 3958 
Q 2384 4250 1959 4250 
Q 1534 4250 1286 3958 
Q 1038 3666 1038 3163 
Q 1038 2656 1286 2365 
Q 1534 2075 1959 2075 
z
" transform="scale(0.015625)"/>
      </defs>
      <use xlink:href="#DejaVuSans-31"/>
      <use xlink:href="#DejaVuSans-65" transform="translate(63.623047 0)"/>
      <use xlink:href="#DejaVuSans-39" transform="translate(125.146484 0)"/>
     </g>
    </g>
   </g>
   <g id="line2d_18">
    <path d="M 73.832727 295.287916 
L 74.097866 295.293115 
L 74.200675 295.28648 
L 74.211497 295.291131 
L 74.465814 295.294073 
L 75.217943 295.29763 
L 75.336985 295.289285 
L 75.445205 295.296877 
L 75.456027 295.290789 
L 75.715755 295.305838 
L 75.845619 295.287027 
L 75.970072 295.305223 
L 75.975483 295.29763 
L 77.468919 295.307891 
L 77.587961 295.298519 
L 77.593372 295.303444 
L 77.761113 295.30919 
L 77.896388 295.305907 
L 78.047896 295.311242 
L 78.269747 295.312063 
L 79.4764 295.314115 
L 79.617085 295.3135 
L 79.990444 295.31049 
L 80.114897 295.319588 
L 81.451414 295.324308 
L 81.602922 295.328344 
L 81.727375 295.320614 
L 81.868061 295.328549 
L 82.052035 295.320203 
L 82.879918 295.325813 
L 83.085536 295.327181 
L 83.356086 295.33108 
L 83.550882 295.324103 
L 83.680746 295.339152 
L 83.805199 295.325471 
L 84.156914 295.339767 
L 84.270545 295.329506 
L 84.275956 295.333337 
L 84.665548 295.33751 
L 84.790001 295.334432 
L 85.86679 295.332311 
L 86.039942 295.336073 
L 87.847215 295.341888 
L 88.020367 295.336826 
L 88.14482 295.351601 
L 88.393726 295.340041 
L 88.529001 295.349617 
L 88.756263 295.343256 
L 88.90236 295.345103 
L 90.801621 295.354885 
L 90.942307 295.353106 
L 91.726902 295.354816 
L 92.084028 295.35167 
L 92.240947 295.355842 
L 93.9887 295.360083 
L 94.107742 295.357074 
L 94.248428 295.364666 
L 94.253839 295.357963 
L 94.962679 295.360699 
L 95.406381 295.365351 
L 95.703986 295.358784 
L 95.855494 295.362751 
L 96.531869 295.365693 
L 96.721254 295.361588 
L 96.851118 295.370618 
L 96.856529 295.364188 
L 97.175778 295.369181 
L 97.327286 295.367197 
L 97.608658 295.36966 
L 97.776399 295.362341 
L 97.900852 295.372875 
L 98.030716 295.366035 
L 98.036127 295.370002 
L 98.252567 295.369455 
L 98.836955 295.372465 
L 98.966819 295.367197 
L 99.13456 295.37137 
L 99.556618 295.370549 
L 99.691893 295.372807 
L 99.875867 295.369523 
L 100.698339 295.374243 
L 100.876902 295.374106 
L 101.185329 295.3778 
L 101.347659 295.369044 
L 101.477523 295.377321 
L 101.73184 295.371917 
L 101.856293 295.377595 
L 102.002389 295.374927 
L 102.235062 295.377869 
L 102.402803 295.368908 
L 102.5489 295.380194 
L 102.862738 295.376569 
L 102.992602 295.385188 
L 103.122466 295.379031 
L 103.295618 295.37267 
L 103.41466 295.383546 
L 103.420071 295.371644 
L 103.674388 295.378963 
L 103.874595 295.377937 
L 104.074802 295.379442 
L 104.561792 295.38211 
L 104.87563 295.380673 
L 105.075837 295.376637 
L 105.232756 295.383751 
L 105.432963 295.381084 
L 105.622348 295.387856 
L 105.871254 295.382383 
L 106.136393 295.387103 
L 106.358244 295.376569 
L 106.477286 295.383136 
L 106.742425 295.384025 
L 106.920988 295.381768 
L 107.74346 295.389839 
L 107.884146 295.385735 
L 108.300793 295.389566 
L 108.517233 295.386146 
L 108.641686 295.388471 
L 108.760728 295.389292 
L 116.325305 295.401331 
L 116.51469 295.4014 
L 116.644554 295.390387 
L 116.78524 295.4014 
L 116.95298 295.398595 
L 117.748397 295.398527 
L 117.92696 295.393465 
L 118.056824 295.398116 
L 120.085949 295.402289 
L 120.242868 295.399142 
L 120.448486 295.40523 
L 120.621638 295.4014 
L 120.881366 295.398527 
L 121.887812 295.403589 
L 122.109663 295.398664 
L 122.271993 295.401058 
L 122.74275 295.405504 
L 123.310905 295.406325 
L 123.467824 295.40612 
L 123.640976 295.399895 
L 123.754607 295.410224 
L 123.765429 295.402905 
L 124.528379 295.408377 
L 132.639467 295.411455 
L 132.785564 295.41556 
L 133.002004 295.414328 
L 134.646948 295.410292 
L 134.760579 295.418364 
L 134.76599 295.416107 
L 134.949964 295.416107 
L 135.280035 295.416244 
L 138.147865 295.418843 
L 138.310195 295.417201 
L 138.813418 295.421853 
L 139.019036 295.419527 
L 139.354517 295.417338 
L 139.500614 295.423631 
L 139.727876 295.41898 
L 141.167202 295.423905 
L 141.297066 295.420827 
L 141.302477 295.425683 
L 141.486451 295.4211 
L 141.621726 295.423084 
L 141.767823 295.419459 
L 141.935564 295.4237 
L 142.081661 295.420006 
L 142.303512 295.422058 
L 142.530774 295.420143 
L 142.687693 295.421853 
L 144.105375 295.418569 
L 144.246061 295.420963 
L 144.722229 295.423426 
L 145.041478 295.423836 
L 145.560934 295.41727 
L 145.690798 295.426915 
L 145.858539 295.41898 
L 145.988403 295.426504 
L 146.18861 295.423905 
L 154.272642 295.431429 
L 154.602713 295.434166 
L 154.80292 295.428625 
L 154.938195 295.427188 
L 155.12758 295.433139 
L 155.279088 295.430882 
L 156.723825 295.430403 
L 156.91321 295.430061 
L 157.172938 295.438407 
L 157.324446 295.424657 
L 157.497598 295.433755 
L 157.925067 295.429788 
L 158.136096 295.430745 
L 158.531099 295.433687 
L 158.785416 295.433071 
L 159.126309 295.432866 
L 159.288639 295.432113 
L 159.602477 295.435739 
L 159.753985 295.430814 
L 160.067823 295.432524 
L 160.289674 295.436765 
L 160.479059 295.430335 
L 160.614334 295.435602 
L 160.75502 295.430745 
L 161.074269 295.436149 
L 161.474683 295.431019 
L 161.631601 295.435944 
L 161.988727 295.429172 
L 162.145646 295.43054 
L 162.351264 295.439091 
L 162.481128 295.43054 
L 162.648869 295.435123 
L 162.859898 295.429788 
L 162.984351 295.435876 
L 163.752713 295.43485 
L 163.904221 295.434644 
L 164.531897 295.434644 
L 164.797036 295.432592 
L 164.937722 295.436833 
L 165.132518 295.43526 
L 166.38787 295.437039 
L 166.561022 295.437381 
L 166.993902 295.433892 
L 167.334795 295.432455 
L 167.491714 295.434576 
L 167.751442 295.437859 
L 167.90295 295.432592 
L 168.038225 295.434918 
L 168.178911 295.437039 
L 168.325008 295.43355 
L 168.514393 295.43998 
L 168.779532 295.436697 
L 169.401796 295.434029 
L 169.840087 295.437039 
L 170.105226 295.440732 
L 170.359543 295.437381 
L 170.651737 295.442443 
L 171.057562 295.438817 
L 171.490442 295.439091 
L 172.285859 295.439364 
L 172.545587 295.440048 
L 172.686273 295.437791 
L 173.119153 295.442511 
L 173.254428 295.436081 
L 173.384292 295.44128 
L 173.389703 295.43567 
L 173.5358 295.438065 
L 175.240265 295.438817 
L 175.440472 295.439091 
L 179.623174 295.439706 
L 179.780093 295.440527 
L 180.342837 295.4434 
L 180.727018 295.440048 
L 180.873115 295.444563 
L 181.257296 295.440527 
L 181.430448 295.445658 
L 181.565723 295.444837 
L 182.03648 295.444289 
L 182.588402 295.443195 
L 183.556971 295.444153 
L 183.832932 295.449351 
L 183.984439 295.441622 
L 185.115338 295.446547 
L 185.315545 295.440869 
L 185.483286 295.443469 
L 186.543842 295.443263 
L 186.700761 295.446615 
L 186.830625 295.44511 
L 188.269951 295.445863 
L 188.756941 295.447026 
L 188.962559 295.445794 
L 189.471193 295.445452 
L 189.628112 295.447778 
L 190.060992 295.443811 
L 190.228733 295.44641 
L 190.364008 295.442579 
L 190.526338 295.446615 
L 190.69949 295.443879 
L 190.997095 295.448189 
L 192.447242 295.447778 
L 192.674504 295.446957 
L 193.269714 295.447162 
L 193.442866 295.448325 
L 193.886568 295.445179 
L 194.048898 295.443811 
L 194.308626 295.449283 
L 194.498011 295.443127 
L 194.649519 295.447368 
L 194.882192 295.4447 
L 195.049933 295.449009 
L 195.780418 295.443469 
L 195.910282 295.448736 
L 196.105078 295.447983 
L 196.27823 295.452361 
L 196.462204 295.446752 
L 196.667822 295.447983 
L 197.447006 295.450446 
L 197.717556 295.450514 
L 197.917763 295.449762 
L 199.005373 295.449488 
L 199.362499 295.452361 
L 200.163327 295.453114 
L 208.609897 295.451335 
L 208.869625 295.449215 
L 209.134764 295.454687 
L 209.307916 295.452224 
L 209.551411 295.456055 
L 209.735385 295.450377 
L 209.930181 295.45284 
L 210.233197 295.453934 
L 211.699578 295.453934 
L 214.518708 295.452019 
L 214.664805 295.457697 
L 214.837957 295.455371 
L 215.103096 295.45113 
L 215.227549 295.456944 
L 215.379057 295.454961 
L 216.363859 295.452019 
L 216.564066 295.454003 
L 217.197153 295.453661 
L 217.408182 295.457355 
L 217.797774 295.456876 
L 218.073735 295.453934 
L 218.474149 295.459407 
L 218.631068 295.457492 
L 218.820453 295.453387 
L 218.999016 295.453729 
L 219.588815 295.458654 
L 219.718679 295.451814 
L 219.72409 295.45585 
L 220.96862 295.453456 
L 221.125539 295.460843 
L 221.304101 295.459202 
L 225.546325 295.456739 
L 225.6816 295.459954 
L 225.687011 295.454892 
L 225.876396 295.458244 
L 226.195645 295.454755 
L 226.460784 295.45626 
L 226.807088 295.455303 
L 227.050583 295.455645 
L 228.516964 295.45797 
L 228.782102 295.456397 
L 230.849104 295.454687 
L 230.984379 295.461185 
L 231.271162 295.457834 
L 231.585 295.462417 
L 231.80144 295.457218 
L 232.001647 295.463032 
L 232.131511 295.459612 
L 234.977697 295.461938 
L 235.383522 295.46399 
L 235.507975 295.460296 
L 236.065308 295.461254 
L 236.35209 295.458791 
L 236.519831 295.461801 
L 240.664657 295.458039 
L 240.902741 295.459886 
L 241.11377 295.461322 
L 242.071517 295.459475 
L 242.233847 295.463922 
L 242.428643 295.46399 
L 243.088785 295.462759 
L 243.229471 295.457492 
L 243.380979 295.464469 
L 243.900434 295.46358 
L 244.154751 295.46399 
L 244.327903 295.461869 
L 245.117909 295.46098 
L 245.485857 295.464195 
L 245.999902 295.462827 
L 246.135177 295.464195 
L 246.292096 295.459817 
L 246.519358 295.458381 
L 246.946827 295.462759 
L 247.249843 295.463101 
L 249.387188 295.462006 
L 249.554929 295.463922 
L 250.280003 295.46098 
L 250.447744 295.466247 
L 250.685828 295.460775 
L 251.443367 295.463648 
L 252.303716 295.464879 
L 252.747418 295.464332 
L 252.915159 295.461869 
L 253.331806 295.466042 
L 253.618589 295.46269 
L 253.89455 295.464332 
L 254.132634 295.462896 
L 398.487273 295.484306 
L 398.487273 295.484306 
" clip-path="url(#p482b326bbd)" style="fill: none; stroke-dasharray: 1.85,0.8; stroke-dashoffset: 0; stroke: #8000ff; stroke-width: 0.5"/>
   </g>
   <g id="line2d_19">
    <path d="M 73.832727 293.099858 
L 73.951769 293.190767 
L 73.854371 293.077558 
L 73.95718 293.158686 
L 74.276429 293.339684 
L 74.330539 293.337769 
L 74.363005 293.40118 
L 74.379238 293.366773 
L 74.601089 293.470337 
L 74.6065 293.461787 
L 74.676843 293.530738 
L 74.709309 293.494484 
L 74.882461 293.582726 
L 74.887872 293.555091 
L 74.969037 293.61255 
L 74.990681 293.589224 
L 75.125956 293.642101 
L 75.244998 293.704281 
L 75.358629 293.697304 
L 75.456027 293.750317 
L 75.477671 293.744435 
L 75.6887 293.81065 
L 75.775276 293.809966 
L 75.759043 293.833497 
L 75.79692 293.833292 
L 76.386719 293.939456 
L 76.484117 293.96586 
L 76.408363 293.97188 
L 76.489528 293.980978 
L 77.587961 294.174836 
L 77.701592 294.147201 
L 77.820634 294.194058 
L 77.863922 294.206029 
L 77.934265 294.191596 
L 78.421255 294.26342 
L 78.44831 294.286815 
L 78.534886 294.246251 
L 78.648517 294.291261 
L 78.653928 294.288388 
L 78.686394 294.300564 
L 78.767559 294.287772 
L 78.886601 294.322248 
L 79.011054 294.310278 
L 79.016465 294.31404 
L 79.140918 294.337708 
L 79.146329 294.324164 
L 79.162562 294.350157 
L 79.297837 294.347969 
L 79.400646 294.364659 
L 79.31407 294.332577 
L 79.42229 294.348242 
L 79.600852 294.382786 
L 79.774004 294.376151 
L 79.784826 294.372594 
L 79.887635 294.403787 
L 80.02291 294.410217 
L 80.028321 294.42253 
L 80.120308 294.447634 
L 80.044554 294.399204 
L 80.152774 294.413979 
L 80.325926 294.423898 
L 80.45579 294.444761 
L 80.612709 294.446745 
L 80.466612 294.469934 
L 80.623531 294.465488 
L 80.769628 294.476296 
L 80.910314 294.46884 
L 80.915725 294.475133 
L 81.013123 294.505162 
L 80.926547 294.465077 
L 81.034767 294.497638 
L 81.873472 294.529651 
L 81.981692 294.548668 
L 81.987103 294.534713 
L 82.116967 294.552704 
L 82.225187 294.539775 
L 82.127789 294.559065 
L 82.230598 294.554619 
L 82.360462 294.590326 
L 82.447038 294.564743 
L 82.474093 294.570762 
L 82.593135 294.572883 
L 82.706766 294.603391 
L 82.717588 294.595867 
L 82.804164 294.575209 
L 82.831219 294.60346 
L 84.227257 294.657636 
L 84.259723 294.673506 
L 84.346299 294.650796 
L 84.454519 294.681715 
L 84.465341 294.67077 
L 84.611438 294.682946 
L 84.73048 294.667145 
L 84.741302 294.684998 
L 84.89281 294.667965 
L 85.006441 294.697174 
L 85.011852 294.687187 
L 85.114661 294.708803 
L 85.130894 294.691975 
L 85.255347 294.714617 
L 85.358156 294.682672 
L 85.368978 294.709555 
L 85.953366 294.734386 
L 86.039942 294.719474 
L 86.072408 294.732334 
L 86.256382 294.734728 
L 86.278026 294.727683 
L 86.370013 294.747657 
L 86.483644 294.743142 
L 86.489055 294.750256 
L 86.748783 294.744579 
L 86.862414 294.770846 
L 86.970634 294.752035 
L 86.976045 294.760517 
L 87.522555 294.774198 
L 87.733584 294.777481 
L 87.841804 294.788015 
L 87.749817 294.762979 
L 87.852626 294.780628 
L 87.993312 294.790136 
L 87.998723 294.800876 
L 88.231396 294.790957 
L 88.328794 294.812026 
L 88.345027 294.787742 
L 88.501946 294.809221 
L 88.637221 294.809153 
L 88.777907 294.810657 
L 88.924004 294.801628 
L 88.929415 294.808879 
L 89.048457 294.827211 
L 88.95647 294.796634 
L 89.053868 294.820234 
L 89.178321 294.815241 
L 89.308185 294.830563 
L 89.421816 294.81312 
L 89.540858 294.841097 
L 90.000793 294.843218 
L 90.157712 294.860046 
L 90.238877 294.837335 
L 90.271343 294.860798 
L 90.384974 294.836446 
L 90.493194 294.865039 
L 90.498605 294.846433 
L 90.655524 294.856762 
L 92.792869 294.901772 
L 92.901089 294.910733 
L 92.911911 294.901978 
L 93.236571 294.918532 
L 93.344791 294.910528 
L 93.350202 294.915932 
L 94.491923 294.933102 
L 94.502745 294.928655 
L 94.605553 294.933512 
L 94.713773 294.929066 
L 94.621786 294.941173 
L 94.724595 294.935222 
L 95.249462 294.928382 
L 95.363093 294.952871 
L 95.503779 294.936248 
L 95.50919 294.951366 
L 95.731041 294.948356 
L 95.915015 294.947877 
L 96.272141 294.965868 
L 96.37495 294.950613 
L 96.385772 294.956017 
L 96.504814 294.969288 
L 96.510225 294.963405 
L 96.688788 294.968262 
L 96.813241 294.965183 
L 97.262354 294.974008 
L 97.375985 294.970451 
L 97.722289 294.981532 
L 97.733111 294.968467 
L 97.884619 294.98078 
L 98.079415 294.990288 
L 98.257978 294.98632 
L 98.8099 294.995897 
L 98.939764 294.999454 
L 98.950586 294.983174 
L 99.075039 294.998975 
L 99.502508 295.003969 
L 99.648605 295.010536 
L 99.773058 295.002122 
L 99.967854 295.018129 
L 100.092307 294.997334 
L 100.189705 295.025995 
L 100.211349 295.016008 
L 100.357446 295.011288 
L 100.368268 295.021138 
L 100.481899 295.012588 
L 100.779504 295.015803 
L 100.985122 295.018607 
L 101.131219 295.022096 
L 101.320604 295.025722 
L 101.331426 295.015666 
L 101.455879 295.024422 
L 102.072732 295.033041 
L 102.186363 295.042275 
L 102.191774 295.033246 
L 102.381159 295.033109 
L 102.391981 295.02066 
L 102.538078 295.041865 
L 102.759929 295.04378 
L 102.878971 295.039266 
L 103.068356 295.046653 
L 103.079178 295.058145 
L 103.181987 295.035777 
L 103.301029 295.05753 
L 103.430893 295.047064 
L 103.571579 295.050758 
L 104.015281 295.054794 
L 104.026103 295.040907 
L 104.177611 295.058624 
L 104.437339 295.054657 
L 104.583436 295.062523 
L 104.724122 295.061224 
L 104.967617 295.061566 
L 105.135358 295.063549 
L 105.281455 295.077777 
L 105.411319 295.066422 
L 105.562827 295.075383 
L 105.568238 295.061908 
L 105.74139 295.0721 
L 105.882076 295.069227 
L 106.396121 295.075862 
L 106.509752 295.075246 
L 106.60715 295.087696 
L 106.547629 295.066149 
L 106.617972 295.074836 
L 122.932135 295.185652 
L 123.045766 295.181547 
L 123.056588 295.189551 
L 123.170219 295.183394 
L 123.310905 295.182984 
L 124.890916 295.187225 
L 125.015369 295.18702 
L 125.145233 295.184694 
L 125.150644 295.193108 
L 125.410372 295.198375 
L 125.529414 295.190782 
L 126.173323 295.192629 
L 126.665724 295.192492 
L 126.790177 295.198922 
L 126.795588 295.194339 
L 127.174358 295.196733 
L 127.45573 295.197349 
L 127.758746 295.206241 
L 127.877788 295.196596 
L 128.094228 295.203095 
L 129.041153 295.204942 
L 129.149373 295.193518 
L 129.165606 295.20542 
L 129.376635 295.206994 
L 129.533554 295.199811 
L 129.641774 295.210004 
L 129.647185 295.205557 
L 130.442602 295.205489 
L 130.567055 295.217118 
L 130.837605 295.196596 
L 130.956647 295.215955 
L 131.075689 295.204394 
L 131.0811 295.213834 
L 131.302951 295.21274 
L 131.45987 295.213903 
L 131.95227 295.216776 
L 132.082134 295.215544 
L 132.244464 295.224437 
L 132.379739 295.214245 
L 132.38515 295.224574 
L 132.964127 295.228404 
L 133.115635 295.220743 
L 133.580981 295.223958 
L 133.764955 295.225942 
L 133.916463 295.22218 
L 134.111259 295.229157 
L 134.235712 295.217391 
L 134.360165 295.228268 
L 134.695647 295.221154 
L 134.836333 295.226284 
L 135.09065 295.231688 
L 135.220514 295.228404 
L 135.864423 295.227242 
L 136.026753 295.217802 
L 136.140384 295.230388 
L 136.145795 295.224369 
L 136.400112 295.235724 
L 136.632785 295.227857 
L 136.751827 295.233808 
L 137.011555 295.239896 
L 137.152241 295.232646 
L 138.970337 295.240444 
L 139.121845 295.23675 
L 139.257119 295.247011 
L 139.392394 295.238665 
L 139.635889 295.2453 
L 139.781986 295.233877 
L 139.906439 295.246874 
L 140.030892 295.236203 
L 140.149934 295.246258 
L 140.155345 295.242906 
L 140.333908 295.243043 
L 140.566581 295.23716 
L 140.707267 295.248857 
L 140.929118 295.235861 
L 141.026516 295.249131 
L 141.042749 295.241196 
L 141.443163 295.249131 
L 141.58926 295.233808 
L 141.724535 295.250773 
L 141.85981 295.244343 
L 141.865221 295.249952 
L 142.043784 295.252414 
L 142.211525 295.252551 
L 142.357622 295.244274 
L 142.363033 295.251115 
L 142.633583 295.253099 
L 142.758036 295.245916 
L 142.871667 295.257408 
L 142.882489 295.251252 
L 143.32078 295.25816 
L 143.456055 295.250773 
L 143.683317 295.253235 
L 143.818592 295.255082 
L 143.980922 295.266574 
L 144.105375 295.246121 
L 144.267705 295.257545 
L 144.440857 295.25433 
L 145.122643 295.259529 
L 145.241685 295.25173 
L 155.906764 295.286343 
L 156.004162 295.272183 
L 156.020395 295.280666 
L 156.193547 295.28689 
L 156.334233 295.278271 
L 156.53444 295.290516 
L 156.648071 295.283812 
L 156.842867 295.278066 
L 157.048485 295.285249 
L 157.18376 295.28819 
L 157.189171 295.282718 
L 157.335268 295.286822 
L 157.513831 295.282786 
L 157.654517 295.289011 
L 157.898012 295.281418 
L 158.152329 295.29161 
L 158.271371 295.286343 
L 160.354606 295.296467 
L 160.473648 295.289216 
L 160.608923 295.28176 
L 160.619745 295.292158 
L 160.847007 295.292431 
L 161.810164 295.293936 
L 162.042837 295.30577 
L 162.161879 295.296535 
L 162.43784 295.290516 
L 162.567704 295.292226 
L 162.573115 295.301803 
L 163.135859 295.299614 
L 163.254901 295.295783 
L 167.085889 295.30235 
L 167.19952 295.310285 
L 167.210342 295.303718 
L 167.545824 295.302555 
L 167.735209 295.306591 
L 167.913772 295.303992 
L 168.584736 295.306659 
L 168.741655 295.305565 
L 168.893163 295.313089 
L 169.028438 295.29975 
L 169.136657 295.312132 
L 169.147479 295.30707 
L 169.320631 295.307822 
L 169.455906 295.30748 
L 169.58577 295.299887 
L 169.710223 295.315415 
L 169.829265 295.305018 
L 169.980773 295.313021 
L 170.094404 295.297972 
L 170.099815 295.309396 
L 170.2892 295.311926 
L 170.456941 295.30536 
L 170.575983 295.310627 
L 179.769271 295.319588 
L 179.909957 295.316168 
L 180.028999 295.323418 
L 180.03441 295.32034 
L 180.505167 295.320614 
L 180.640442 295.330669 
L 180.645853 295.324376 
L 181.040856 295.319246 
L 181.181542 295.33149 
L 181.186953 295.322529 
L 181.863328 295.319861 
L 181.966137 295.333748 
L 181.98237 295.324034 
L 182.610046 295.325744 
L 182.73991 295.329028 
L 183.248544 295.32636 
L 183.464984 295.326702 
L 183.600259 295.324445 
L 183.60567 295.331011 
L 186.294936 295.329917 
L 186.419389 295.333884 
L 187.18234 295.32506 
L 187.301382 295.334568 
L 187.425835 295.333337 
L 187.431246 295.33751 
L 187.658508 295.335047 
L 187.977757 295.332106 
L 188.269951 295.333679 
L 188.421459 295.331285 
L 188.578378 295.337168 
L 188.724475 295.334568 
L 188.978792 295.332995 
L 189.200643 295.334295 
L 189.341329 295.338673 
L 189.525303 295.332653 
L 189.693044 295.33751 
L 189.855374 295.330533 
L 190.033937 295.338878 
L 190.163801 295.33279 
L 191.337988 295.334637 
L 191.494906 295.340041 
L 191.662647 295.336894 
L 191.900731 295.342435 
L 192.036006 295.334842 
L 192.247035 295.33792 
L 192.398543 295.335937 
L 192.517585 295.34435 
L 192.522996 295.341204 
L 192.955876 295.340314 
L 193.183138 295.334842 
L 193.313002 295.336415 
L 197.777077 295.34695 
L 197.90153 295.34606 
L 198.11797 295.339562 
L 198.247834 295.344692 
L 198.383109 295.343803 
L 198.71318 295.347497 
L 198.886331 295.347086 
L 199.63846 295.346334 
L 199.779146 295.344213 
L 199.930654 295.344077 
L 200.163327 295.345718 
L 201.824504 295.346266 
L 201.943546 295.343393 
L 201.954368 295.353517 
L 202.609099 295.349549 
L 202.955403 295.352217 
L 203.15561 295.343256 
L 203.604723 295.351806 
L 203.734587 295.350849 
L 204.654457 295.349275 
L 204.784321 295.355569 
L 204.979117 295.351806 
L 205.785356 295.352354 
L 205.931453 295.353585 
L 208.08503 295.352285 
L 208.214894 295.353243 
L 208.344758 295.354064 
L 208.57202 295.348797 
L 208.707295 295.358168 
L 208.837159 295.353174 
L 209.015722 295.355569 
L 209.156408 295.348318 
L 209.313327 295.359468 
L 209.746207 295.351533 
L 209.913948 295.357689 
L 210.308951 295.350644 
L 210.438815 295.356116 
L 210.763475 295.355158 
L 211.017792 295.362341 
L 211.239643 295.350233 
L 211.391151 295.358784 
L 211.856497 295.35379 
L 211.991772 295.363162 
L 212.132458 295.354953 
L 212.283966 295.365487 
L 212.430063 295.364119 
L 212.689791 295.35721 
L 213.928909 295.355979 
L 214.264391 295.357894 
L 214.534941 295.361862 
L 214.756792 295.357826 
L 214.902889 295.365145 
L 215.043575 295.355842 
L 215.146384 295.36624 
L 215.162617 295.355432 
L 215.373646 295.365624 
L 215.50351 295.36323 
L 216.033788 295.362751 
L 216.169063 295.359605 
L 216.569477 295.362956 
L 216.753451 295.362135 
L 216.959069 295.365966 
L 217.272907 295.35892 
L 217.527224 295.363162 
L 217.83024 295.362614 
L 218.04668 295.359947 
L 218.37134 295.362135 
L 218.944906 295.36364 
L 219.155935 295.364324 
L 219.307443 295.362067 
L 219.567171 295.370686 
L 219.697035 295.365145 
L 220.119093 295.372533 
L 220.243546 295.360015 
L 220.395054 295.367266 
L 221.607117 295.363777 
L 221.980476 295.363367 
L 222.115751 295.36925 
L 222.337602 295.369797 
L 225.08639 295.36494 
L 225.378584 295.367881 
L 225.562558 295.378621 
L 225.697833 295.365898 
L 225.703244 295.372328 
L 226.33092 295.367608 
L 226.498661 295.370549 
L 226.991062 295.37308 
L 227.115515 295.368224 
L 227.283256 295.376706 
L 227.624149 295.366855 
L 227.770246 295.371781 
L 228.744225 295.372328 
L 228.906555 295.36624 
L 228.911966 295.374106 
L 229.382723 295.372191 
L 229.550464 295.368087 
L 229.680328 295.375132 
L 229.821014 295.371644 
L 230.010399 295.370754 
L 398.487273 295.436423 
L 398.487273 295.436423 
" clip-path="url(#p482b326bbd)" style="fill: none; stroke-dasharray: 1.85,0.8; stroke-dashoffset: 0; stroke: #2adddd; stroke-width: 0.5"/>
   </g>
   <g id="line2d_20">
    <path d="M 73.832727 271.332138 
L 74.097866 280.033959 
L 74.460403 284.451666 
L 74.465814 284.4438 
L 74.482047 284.602635 
L 74.806707 286.566532 
L 74.839173 286.686514 
L 74.844584 286.672628 
L 75.001503 287.396143 
L 75.006914 287.360641 
L 75.077257 287.617569 
L 75.623768 289.055298 
L 75.683289 289.184035 
L 75.6887 289.160025 
L 75.807742 289.436859 
L 75.813153 289.421057 
L 75.829386 289.414011 
L 75.872674 289.540081 
L 75.883496 289.532693 
L 76.154046 290.008995 
L 76.159457 289.984643 
L 76.17569 289.947225 
L 76.235211 290.07439 
L 76.240622 290.055236 
L 76.370486 290.256414 
L 76.603159 290.554248 
L 76.60857 290.50486 
L 76.700557 290.65535 
L 76.705968 290.614649 
L 76.792544 290.72697 
L 77.165903 291.085 
L 77.171314 291.075354 
L 77.176725 291.042178 
L 77.241657 291.153609 
L 77.268712 291.156756 
L 77.284945 291.118928 
L 77.393165 291.26935 
L 77.398576 291.236037 
L 77.495974 291.31908 
L 77.642071 291.459036 
L 77.517618 291.309298 
L 77.647482 291.447065 
L 77.652893 291.395283 
L 77.707003 291.503841 
L 77.750291 291.507672 
L 77.869333 291.567047 
L 77.988375 291.673485 
L 77.999197 291.649748 
L 78.074951 291.737101 
L 78.091184 291.705087 
L 78.204815 291.800444 
L 78.215637 291.786763 
L 78.242692 291.752697 
L 78.307624 291.850174 
L 78.313035 291.847369 
L 78.421255 291.86577 
L 78.426666 291.881024 
L 78.545708 291.952917 
L 78.551119 291.92706 
L 78.637695 292.023921 
L 78.643106 292.00641 
L 78.751326 292.087333 
L 78.66475 291.993071 
L 78.767559 292.069205 
L 78.886601 292.130017 
L 78.892012 292.102655 
L 79.027287 292.159568 
L 79.15174 292.233513 
L 79.357358 292.307253 
L 79.449345 292.362251 
L 79.373591 292.298976 
L 79.470989 292.345765 
L 79.69825 292.440848 
L 79.725305 292.418753 
L 79.817292 292.490373 
L 79.930923 292.500565 
L 80.055376 292.559119 
L 80.082431 292.534836 
L 80.136541 292.612954 
L 80.158185 292.576084 
L 80.271816 292.64141 
L 80.282638 292.627113 
L 80.423324 292.699554 
L 80.444968 292.649482 
L 80.515311 292.714671 
L 80.531544 292.71043 
L 80.623531 292.706668 
L 80.639764 292.737176 
L 80.742573 292.770763 
L 80.650586 292.728147 
L 80.753395 292.755851 
L 80.829149 292.759066 
L 80.796683 292.791148 
L 80.856204 292.791763 
L 80.953602 292.794431 
L 80.975246 292.82494 
L 81.002301 292.801887 
L 81.115932 292.873986 
L 81.456825 292.949231 
L 81.467647 292.917765 
L 81.586689 292.974404 
L 81.5921 292.939723 
L 81.619155 293.004365 
L 81.689498 292.986306 
L 81.705731 292.980834 
L 81.80854 293.035147 
L 81.97087 293.063398 
L 82.019569 293.044313 
L 82.046624 293.083441 
L 82.07909 293.06976 
L 82.176488 293.120242 
L 82.089912 293.063466 
L 82.192721 293.095753 
L 82.279297 293.137891 
L 82.300941 293.090418 
L 82.392928 293.142611 
L 82.414572 293.134813 
L 82.495737 293.173393 
L 82.522792 293.136659 
L 82.647245 293.209784 
L 82.685122 293.223397 
L 82.760876 293.181533 
L 82.885329 293.250485 
L 83.004371 293.231331 
L 83.177523 293.28927 
L 83.621225 293.361437 
L 85.536719 293.611935 
L 85.585418 293.631225 
L 85.644939 293.604342 
L 85.742337 293.662075 
L 85.769392 293.646342 
L 85.780214 293.659134 
L 85.888434 293.639912 
L 85.991243 293.682186 
L 86.012887 293.673773 
L 86.115696 293.654824 
L 86.126518 293.681844 
L 86.267204 293.691763 
L 86.142751 293.658655 
L 86.272615 293.685812 
L 88.350438 293.876866 
L 88.355849 293.857234 
L 88.399137 293.897592 
L 88.453247 293.892325 
L 88.572289 293.913668 
L 88.464069 293.883364 
L 88.5777 293.903749 
L 88.680509 293.890889 
L 88.599344 293.921329 
L 88.691331 293.91483 
L 88.821195 293.939456 
L 88.886127 293.914215 
L 88.934826 293.930564 
L 89.026813 293.952043 
L 88.945648 293.927075 
L 89.043046 293.931111 
L 89.356884 293.956899 
L 89.470515 293.984466 
L 89.481337 293.977968 
L 89.962916 293.996369 
L 89.98456 294.013265 
L 90.071136 294.003141 
L 90.190178 294.032281 
L 90.206411 294.041037 
L 90.30922 294.023457 
L 90.320042 294.04261 
L 90.422851 294.032692 
L 90.52566 294.071545 
L 90.444495 294.018463 
L 90.536482 294.052939 
L 90.644702 294.047467 
L 90.758333 294.067168 
L 90.828676 294.036112 
L 90.779977 294.078317 
L 90.871964 294.060874 
L 91.018061 294.0868 
L 91.153336 294.078386 
L 91.256145 294.106295 
L 91.164158 294.060464 
L 91.277789 294.093709 
L 91.348132 294.083927 
L 91.294022 294.106569 
L 91.386009 294.100686 
L 91.569983 294.112657 
L 92.565607 294.159582 
L 92.663005 294.187833 
L 92.592662 294.150621 
L 92.679238 294.173605 
L 92.69006 294.155615 
L 92.809102 294.188107 
L 92.911911 294.16567 
L 92.922733 294.180377 
L 93.101296 294.210612 
L 93.220338 294.1931 
L 93.366435 294.211228 
L 93.436778 294.191664 
L 93.453011 294.235101 
L 93.474655 294.204045 
L 93.577464 294.229971 
L 93.593697 294.219915 
L 93.972467 294.249739 
L 94.145619 294.249739 
L 94.243017 294.225866 
L 94.264661 294.254596 
L 94.378292 294.261026 
L 94.275483 294.228808 
L 94.383703 294.258153 
L 94.616375 294.257127 
L 94.730006 294.291261 
L 94.80576 294.2613 
L 94.843637 294.285036 
L 94.984323 294.285173 
L 95.103365 294.294613 
L 95.189941 294.280385 
L 95.216996 294.288799 
L 95.5633 294.30419 
L 95.666109 294.332714 
L 95.574122 294.29988 
L 95.676931 294.316434 
L 95.790562 294.305558 
L 95.909604 294.325532 
L 95.915015 294.32177 
L 95.925837 294.327652 
L 96.023235 294.317186 
L 96.131455 294.336066 
L 96.039468 294.308773 
L 96.136866 294.328678 
L 96.358717 294.343043 
L 96.472348 294.353099 
L 96.477759 294.350294 
L 96.596801 294.353578 
L 96.602212 294.349405 
L 96.732076 294.35221 
L 96.834885 294.387028 
L 96.780775 294.33333 
L 96.845707 294.365754 
L 96.975571 294.357066 
L 97.035092 294.384975 
L 97.089202 294.364386 
L 97.278587 294.375604 
L 97.300231 294.36507 
L 97.397629 294.390106 
L 97.56537 294.382376 
L 97.668179 294.413774 
L 97.592425 294.373689 
L 97.679001 294.405702 
L 97.792632 294.383949 
L 97.798043 294.3938 
L 97.884619 294.413158 
L 97.917085 294.39722 
L 99.491686 294.456595 
L 99.589084 294.471781 
L 99.502508 294.446266 
L 99.605317 294.466309 
L 99.794702 294.438263 
L 99.800113 294.457416 
L 99.94621 294.463504 
L 100.065252 294.46323 
L 100.205938 294.484367 
L 100.32498 294.465214 
L 100.438611 294.497569 
L 100.557653 294.475954 
L 100.676695 294.497022 
L 100.768682 294.478348 
L 100.790326 294.48813 
L 100.952656 294.507557 
L 101.055465 294.484983 
L 101.060876 294.516996 
L 101.239439 294.481768 
L 101.24485 294.504342 
L 102.841094 294.559339 
L 102.911437 294.53444 
L 102.954725 294.557834 
L 103.122466 294.560707 
L 103.495825 294.563101 
L 103.636511 294.563512 
L 103.771786 294.567958 
L 103.885417 294.569052 
L 103.79343 294.587385 
L 103.890828 294.584307 
L 116.395648 294.800055 
L 116.503868 294.79855 
L 116.428114 294.818387 
L 116.509279 294.812846 
L 116.687842 294.796292 
L 116.790651 294.80628 
L 116.801473 294.799165 
L 118.327374 294.830221 
L 118.484293 294.826938 
L 118.597924 294.827075 
L 119.122791 294.832615 
L 119.620603 294.838566 
L 119.71259 294.828374 
L 119.631425 294.844723 
L 119.734234 294.844039 
L 119.847865 294.8504 
L 119.745056 294.835967 
L 119.853276 294.836378 
L 120.026428 294.829811 
L 120.210402 294.854984 
L 120.324033 294.837404 
L 120.443075 294.856899 
L 120.572939 294.84315 
L 120.908421 294.84787 
L 121.054518 294.838566 
L 121.162738 294.86798 
L 121.17356 294.858677 
L 121.33589 294.863055 
L 121.460343 294.857925 
L 121.579385 294.866134 
L 121.720071 294.857104 
L 121.833702 294.876189 
L 121.844524 294.867296 
L 122.196239 294.870443 
L 122.304459 294.859019 
L 122.315281 294.86757 
L 122.41809 294.873932 
L 122.428912 294.865997 
L 122.883436 294.873453 
L 123.0133 294.869827 
L 123.186452 294.879951 
L 123.202685 294.888502 
L 123.305494 294.875573 
L 123.429947 294.887749 
L 123.603099 294.870785 
L 123.60851 294.877831 
L 123.711319 294.895548 
L 123.727552 294.885902 
L 123.738374 294.899105 
L 123.852005 294.878857 
L 124.182076 294.884671 
L 124.301118 294.894316 
L 124.376871 294.877626 
L 124.414748 294.893085 
L 124.577078 294.902593 
L 124.582489 294.895821 
L 124.723175 294.888639 
L 124.885505 294.89158 
L 124.896327 294.913401 
L 125.004547 294.889938 
L 125.134411 294.90615 
L 125.264275 294.890075 
L 125.269686 294.89459 
L 125.34544 294.916753 
L 125.285919 294.889938 
L 125.383317 294.903825 
L 125.534825 294.893837 
L 125.6701 294.901362 
L 126.48175 294.903619 
L 126.600792 294.9199 
L 126.719834 294.91388 
L 126.871342 294.919831 
L 127.049905 294.911144 
L 127.168947 294.9186 
L 127.325866 294.91559 
L 127.444908 294.930981 
L 127.450319 294.924414 
L 127.558539 294.905193 
L 127.56395 294.918668 
L 127.688403 294.931597 
L 127.693814 294.928245 
L 132.888373 294.96833 
L 133.029059 294.969014 
L 133.277965 294.955128 
L 133.353719 294.981122 
L 133.391596 294.963405 
L 133.526871 294.973529 
L 133.543104 294.982353 
L 133.645913 294.961353 
L 133.764955 294.972024 
L 133.770366 294.966346 
L 133.997628 294.983516 
L 134.122081 294.967304 
L 134.262767 294.984474 
L 134.381809 294.96621 
L 134.398042 294.980985 
L 134.598249 294.974213 
L 134.701058 294.991246 
L 134.722702 294.977017 
L 135.031129 294.996786 
L 135.03654 294.980711 
L 135.166404 294.985705 
L 135.372022 294.982832 
L 135.528941 294.977633 
L 135.664216 294.983653 
L 135.896889 294.970451 
L 136.01052 294.994597 
L 136.124151 294.977565 
L 136.129562 294.981327 
L 136.259426 295.000822 
L 136.270248 294.991793 
L 136.459633 294.990904 
L 136.686895 294.988715 
L 136.784293 294.983858 
L 136.697717 295.001027 
L 136.805937 294.995897 
L 136.935801 294.997128 
L 137.433613 294.995966 
L 137.552655 295.003627 
L 137.671697 294.989672 
L 137.79615 295.002259 
L 137.931425 294.988988 
L 137.936836 295.005747 
L 139.619656 295.022849 
L 139.700821 295.005679 
L 139.733287 295.019018 
L 140.144523 295.02107 
L 140.263565 295.005953 
L 140.268976 295.021822 
L 141.984263 295.030099 
L 142.103305 295.020796 
L 142.828379 295.034204 
L 142.958243 295.021617 
L 142.963654 295.028731 
L 143.261259 295.033588 
L 143.396534 295.032425 
L 143.401945 295.037419 
L 143.688728 295.034067 
L 144.035032 295.042549 
L 144.154074 295.03222 
L 144.283938 295.04549 
L 144.40298 295.042275 
L 144.630242 295.048363 
L 144.733051 295.036051 
L 144.749284 295.047269 
L 145.669154 295.050758 
L 145.679976 295.036051 
L 145.815251 295.057667 
L 145.928882 295.037761 
L 145.934293 295.051784 
L 146.166966 295.054725 
L 146.340118 295.056777 
L 146.556558 295.045901 
L 146.664778 295.062797 
L 146.6756 295.05794 
L 147.027314 295.05021 
L 147.168 295.060608 
L 147.866019 295.061976 
L 147.876841 295.050826 
L 148.012116 295.060608 
L 148.298899 295.060471 
L 149.256646 295.065601 
L 149.364866 295.059924 
L 149.27829 295.077983 
L 149.370277 295.065738 
L 149.527196 295.064028 
L 149.689526 295.074836 
L 150.219804 295.069911 
L 150.387545 295.075041 
L 150.533642 295.070663 
L 150.928645 295.085644 
L 151.047687 295.067996 
L 151.177551 295.082839 
L 151.285771 295.072442 
L 151.296593 295.079146 
L 154.938195 295.087217 
L 155.051826 295.101514 
L 155.165457 295.079624 
L 155.170868 295.087012 
L 155.284499 295.093716 
L 155.544227 295.101445 
L 155.663269 295.093989 
L 155.841832 295.089543 
L 155.966285 295.093716 
L 156.139437 295.100283 
L 156.26389 295.096999 
L 156.415398 295.099051 
L 156.64266 295.097341 
L 156.880744 295.099872 
L 156.891566 295.109244 
L 157.016019 295.101856 
L 157.156705 295.109312 
L 157.264925 295.094605 
L 157.281158 295.106849 
L 157.849313 295.100488 
L 158.006232 295.107055 
L 158.233494 295.106029 
L 158.352536 295.102814 
L 158.357947 295.110954 
L 158.444523 295.118136 
L 158.368769 295.102745 
L 158.471578 295.100077 
L 158.742128 295.106849 
L 161.209544 295.108081 
L 161.317764 295.118341 
L 161.323175 295.111843 
L 163.162914 295.126345 
L 163.298189 295.133117 
L 163.460519 295.123267 
L 163.590383 295.138658 
L 163.595794 295.133527 
L 163.763535 295.118341 
L 163.768946 295.130586 
L 163.887988 295.137905 
L 163.779768 295.121214 
L 163.89881 295.126687 
L 164.380389 295.126482 
L 164.537308 295.133732 
L 164.65635 295.124635 
L 164.661761 295.130244 
L 164.851146 295.129833 
L 165.289437 295.132706 
L 165.430123 295.136127 
L 165.554576 295.130928 
L 165.679029 295.137632 
L 165.976634 295.130244 
L 166.079443 295.147003 
L 166.095676 295.140299 
L 166.896504 295.148371 
L 167.004724 295.135511 
L 167.010135 295.143104 
L 167.134588 295.132912 
L 167.275274 295.137905 
L 167.583701 295.1377 
L 167.724387 295.135511 
L 167.832607 295.140847 
L 167.838018 295.138247 
L 168.032814 295.146661 
L 168.178911 295.145293 
L 168.449461 295.137768 
L 168.747066 295.140983 
L 168.866108 295.150218 
L 168.968917 295.140231 
L 168.98515 295.149534 
L 169.466728 295.145293 
L 170.056527 295.140573 
L 170.164747 295.1574 
L 170.175569 295.140915 
L 170.337899 295.15357 
L 170.440708 295.143788 
L 170.456941 295.151244 
L 170.592216 295.152886 
L 172.172228 295.156374 
L 172.296681 295.161368 
L 172.302092 295.157811 
L 173.167852 295.159042 
L 173.184085 295.169098 
L 173.292305 295.15357 
L 174.109366 295.163899 
L 174.233819 295.166909 
L 174.396149 295.157537 
L 174.520602 295.167866 
L 174.634233 295.157058 
L 174.639644 295.168208 
L 174.839851 295.166156 
L 175.316019 295.164993 
L 175.48376 295.166225 
L 175.635268 295.161231 
L 175.786776 295.173134 
L 175.889585 295.16171 
L 175.900407 295.168003 
L 176.046504 295.171287 
L 176.165546 295.158974 
L 176.300821 295.17457 
L 176.419863 295.167593 
L 176.576781 295.172313 
L 176.717467 295.166567 
L 176.885208 295.17416 
L 177.015072 295.172997 
L 177.215279 295.165472 
L 177.22069 295.174638 
L 177.604871 295.176212 
L 177.745557 295.179016 
L 177.750968 295.167319 
L 184.233345 295.188319 
L 184.357798 295.190645 
L 184.920542 295.195981 
L 185.304723 295.194749 
L 185.439998 295.190371 
L 185.645616 295.193039 
L 185.770069 295.182231 
L 185.905344 295.199538 
L 186.10014 295.189414 
L 186.26247 295.206105 
L 186.386923 295.187156 
L 186.505965 295.204121 
L 186.511376 295.200359 
L 186.679117 295.192082 
L 186.884735 295.201521 
L 187.052476 295.194544 
L 187.193162 295.201863 
L 187.317615 295.202616 
L 188.275362 295.199811 
L 188.399815 295.204394 
L 188.405226 295.196733 
L 188.811051 295.196391 
L 188.935504 295.197212 
L 189.087012 295.199127 
L 189.325096 295.203437 
L 189.72551 295.211235 
L 189.83373 295.191398 
L 189.844552 295.207062 
L 189.855374 295.213971 
L 189.979827 295.196802 
L 190.098869 295.205763 
L 190.223322 295.203163 
L 190.228733 295.213424 
L 190.80771 295.201385 
L 190.932163 295.20973 
L 191.099904 295.196391 
L 191.235179 295.211919 
L 191.343399 295.19557 
L 191.359632 295.208841 
L 191.511139 295.203505 
L 191.646414 295.20843 
L 191.797922 295.198854 
L 191.803333 295.20843 
L 192.366077 295.209183 
L 192.495941 295.210893 
L 193.664717 295.218281 
L 193.978555 295.218075 
L 194.097597 295.209388 
L 194.270749 295.20932 
L 194.503422 295.211166 
L 194.671163 295.213219 
L 194.687396 295.201932 
L 194.790205 295.218212 
L 194.968768 295.210619 
L 195.098632 295.21746 
L 195.634321 295.219649 
L 195.758774 295.214724 
L 195.921104 295.215955 
L 195.931926 295.208704 
L 196.040146 295.221701 
L 196.186243 295.212193 
L 196.316107 295.219649 
L 196.824741 295.221017 
L 196.965427 295.227789 
L 196.970838 295.220743 
L 197.333375 295.216502 
L 197.479472 295.220264 
L 197.603925 295.221974 
L 198.204546 295.219717 
L 198.393931 295.224847 
L 198.523795 295.213082 
L 198.648248 295.227515 
L 198.837633 295.216297 
L 198.994551 295.222932 
L 199.140648 295.215544 
L 199.270512 295.228541 
L 199.432842 295.223958 
L 199.573528 295.230115 
L 199.578939 295.223069 
L 202.538756 295.23073 
L 202.657798 295.223753 
L 202.663209 295.229841 
L 202.917526 295.234356 
L 203.052801 295.228883 
L 203.204309 295.229499 
L 203.42616 295.226352 
L 203.556024 295.236134 
L 203.675066 295.227036 
L 203.685888 295.236203 
L 203.810341 295.236203 
L 203.69671 295.226284 
L 203.815752 295.228952 
L 205.953097 295.2269 
L 206.115427 295.239076 
L 206.23988 295.238665 
L 206.358921 295.228883 
L 206.521251 295.245711 
L 206.645704 295.231277 
L 206.743102 295.244753 
L 206.764746 295.236134 
L 207.338312 295.230662 
L 207.446532 295.243522 
L 207.457354 295.236476 
L 207.59804 295.249131 
L 207.727904 295.235519 
L 207.86859 295.242496 
L 208.415101 295.244001 
L 208.539554 295.235724 
L 208.647774 295.251183 
L 208.658596 295.239281 
L 208.902091 295.245437 
L 209.015722 295.231619 
L 209.021133 295.238597 
L 210.076278 295.245027 
L 210.19532 295.238392 
L 210.877106 295.240649 
L 211.077313 295.245642 
L 211.234232 295.257271 
L 211.245054 295.243932 
L 211.380329 295.238392 
L 211.38574 295.245369 
L 211.542659 295.2453 
L 211.677934 295.241196 
L 211.81862 295.261581 
L 211.824031 295.246874 
L 212.798011 295.246053 
L 219.734912 295.264659 
L 219.864776 295.262744 
L 220.032517 295.26247 
L 221.228348 295.257818 
L 222.061641 295.259871 
L 222.251026 295.265753 
L 222.424178 295.267806 
L 223.766106 295.260828 
L 224.00419 295.26377 
L 224.139465 295.268216 
L 224.280151 295.267806 
L 224.404604 295.268353 
L 224.859128 295.267806 
L 224.97817 295.262812 
L 224.983581 295.26849 
L 225.129678 295.270063 
L 225.470571 295.269242 
L 225.589613 295.26247 
L 225.595024 295.266574 
L 225.719477 295.266506 
L 226.092836 295.266916 
L 226.27681 295.271978 
L 226.417496 295.268421 
L 226.850376 295.26418 
L 226.974829 295.270747 
L 227.202091 295.264317 
L 227.315722 295.272183 
L 227.321133 295.26931 
L 227.607916 295.27663 
L 227.732369 295.267532 
L 227.965042 295.276903 
L 228.17066 295.267395 
L 228.289702 295.276835 
L 228.895733 295.26548 
L 229.052652 295.267942 
L 229.182516 295.27492 
L 229.334024 295.275877 
L 229.469299 295.269652 
L 229.642451 295.278545 
L 229.826425 295.273483 
L 230.021221 295.283197 
L 230.134852 295.276151 
L 230.140263 295.280871 
L 230.356703 295.273209 
L 231.379382 295.276082 
L 231.487602 295.26418 
L 231.498424 295.272252 
L 231.628288 295.282034 
L 231.915071 295.279229 
L 232.77542 295.281486 
L 232.959394 295.279297 
L 233.121724 295.281213 
L 234.209335 295.280802 
L 234.420364 295.284428 
L 234.56105 295.282855 
L 242.331245 295.28347 
L 242.450287 295.290926 
L 398.487273 295.39326 
L 398.487273 295.39326 
" clip-path="url(#p482b326bbd)" style="fill: none; stroke-dasharray: 1.85,0.8; stroke-dashoffset: 0; stroke: #d4dd80; stroke-width: 0.5"/>
   </g>
   <g id="line2d_21">
    <path d="M 73.832727 53.568 
L 73.973413 222.351691 
L 74.195264 253.505414 
L 74.465814 266.244134 
L 74.730953 272.475863 
L 75.082668 277.314396 
L 75.115134 277.618044 
L 75.737399 282.096016 
L 75.894318 282.879454 
L 75.899729 282.838001 
L 76.045826 283.557549 
L 76.051237 283.475669 
L 76.132402 283.855794 
L 76.305554 284.48238 
L 76.310965 284.472735 
L 76.895353 286.192427 
L 76.900764 286.133941 
L 76.906175 286.132163 
L 76.922408 286.232786 
L 76.93323 286.215685 
L 77.09556 286.61592 
L 77.100971 286.540333 
L 77.187547 286.798492 
L 77.192958 286.751088 
L 77.382343 287.150844 
L 77.52844 287.411329 
L 77.863922 287.978814 
L 77.550084 287.388208 
L 77.869333 287.929905 
L 77.874744 287.915334 
L 77.934265 288.052281 
L 77.966731 288.029365 
L 78.107417 288.307019 
L 78.118239 288.275622 
L 78.193993 288.41633 
L 78.204815 288.372346 
L 78.350912 288.591035 
L 78.361734 288.567709 
L 78.572763 288.825868 
L 78.578174 288.807878 
L 78.626873 288.924781 
L 78.659339 288.87895 
L 78.767559 289.091347 
L 78.783792 289.061454 
L 78.789203 289.043669 
L 78.848724 289.17309 
L 78.875779 289.131637 
L 79.021876 289.302922 
L 78.886601 289.113715 
L 79.027287 289.280759 
L 79.081397 289.327069 
L 79.038109 289.311883 
L 79.092219 289.372969 
L 79.216672 289.510941 
L 79.113863 289.344923 
L 79.222083 289.484126 
L 79.227494 289.453002 
L 79.297837 289.595831 
L 79.324892 289.518807 
L 79.454756 289.708972 
L 79.470989 289.661431 
L 79.508866 289.779018 
L 79.557565 289.754256 
L 79.676606 289.866098 
L 79.687428 289.848518 
L 79.692839 289.830048 
L 79.703661 289.924857 
L 79.774004 289.935939 
L 79.957978 290.058246 
L 80.060787 290.17556 
L 79.9688 290.040461 
L 80.07702 290.157364 
L 80.082431 290.120289 
L 80.169007 290.214893 
L 80.255583 290.286376 
L 80.179829 290.191156 
L 80.282638 290.260929 
L 80.417913 290.409641 
L 80.423324 290.402595 
L 80.428735 290.361142 
L 80.515311 290.452872 
L 80.526133 290.427084 
L 80.661408 290.536805 
L 80.666819 290.483312 
L 80.764217 290.586056 
L 80.861615 290.596727 
L 80.785861 290.615744 
L 80.867026 290.624021 
L 80.980657 290.719103 
L 80.986068 290.712742 
L 80.99689 290.675119 
L 81.034767 290.770065 
L 81.083466 290.739009 
L 81.202508 290.82472 
L 81.207919 290.822599 
L 81.218741 290.808234 
L 81.586689 291.014406 
L 81.5921 290.990738 
L 81.684087 291.084589 
L 81.689498 291.052234 
L 81.711142 291.026992 
L 81.841006 291.170095 
L 81.846417 291.096218 
L 81.927582 291.215447 
L 81.949226 291.170232 
L 82.035802 291.188017 
L 82.046624 291.242125 
L 82.160255 291.274549 
L 82.068268 291.20505 
L 82.176488 291.256969 
L 82.273886 291.288777 
L 82.18731 291.289598 
L 82.279297 291.306083 
L 82.387517 291.380644 
L 82.409161 291.371273 
L 82.982727 291.578334 
L 82.988138 291.543105 
L 83.063892 291.640924 
L 83.085536 291.569988 
L 83.199167 291.659804 
L 83.204578 291.650979 
L 83.301976 291.654126 
L 83.285743 291.713159 
L 83.307387 291.672322 
L 83.448073 291.75427 
L 83.453484 291.717263 
L 83.518416 291.794287 
L 83.556293 291.78129 
L 83.626636 291.757417 
L 83.599581 291.801401 
L 83.664513 291.799417 
L 83.729445 291.848258 
L 83.767322 291.804274 
L 83.859309 291.8919 
L 83.886364 291.875552 
L 84.059516 291.883008 
L 84.064927 291.928907 
L 84.146092 291.972481 
L 84.091982 291.910438 
L 84.178558 291.958116 
L 84.270545 291.946351 
L 84.238079 291.997312 
L 84.286778 291.961126 
L 84.422053 292.05443 
L 84.438286 292.020638 
L 84.584383 292.043554 
L 84.681781 292.121808 
L 84.703425 292.101766 
L 85.498842 292.292957 
L 85.515075 292.274419 
L 85.617884 292.319908 
L 85.623295 292.291726 
L 85.715282 292.372169 
L 85.720693 292.3327 
L 85.839735 292.385577 
L 85.9209 292.367381 
L 85.899256 292.42101 
L 85.953366 292.387424 
L 86.164395 292.46732 
L 86.175217 292.437701 
L 86.180628 292.406645 
L 86.229327 292.477444 
L 86.278026 292.464789 
L 89.60579 293.004912 
L 89.665311 292.985485 
L 89.622023 293.030222 
L 89.71401 293.025912 
L 89.892573 293.034053 
L 90.000793 293.073932 
L 90.011615 293.067844 
L 90.103602 293.049786 
L 90.044081 293.086929 
L 90.119835 293.081799 
L 90.30922 293.096711 
L 90.314631 293.113197 
L 91.759368 293.255615 
L 91.764779 293.234888 
L 91.851355 293.297205 
L 91.867588 293.26355 
L 91.997452 293.313007 
L 92.013685 293.298573 
L 92.019096 293.26184 
L 92.056973 293.319915 
L 92.121905 293.312254 
L 94.010344 293.500025 
L 94.015755 293.449747 
L 94.118564 293.496399 
L 94.15103 293.454331 
L 94.237606 293.514116 
L 94.318771 293.489285 
L 94.351237 293.502487 
L 94.454046 293.532585 
L 94.464868 293.507207 
L 94.567676 293.510012 
L 94.491923 293.538195 
L 94.573087 293.524719 
L 94.670485 293.564394 
L 94.686718 293.539905 
L 94.784116 293.51822 
L 94.740828 293.567335 
L 94.800349 293.526566 
L 94.881514 293.575133 
L 94.919391 293.556869 
L 94.924802 293.521504 
L 94.973501 293.581221 
L 95.033022 293.547292 
L 95.141242 293.608993 
L 95.081721 293.527729 
L 95.152064 293.575612 
L 95.438847 293.58772 
L 95.503779 293.633345 
L 95.45508 293.580674 
L 95.552478 293.606668 
L 95.649876 293.592439 
L 95.676931 293.612619 
L 95.860905 293.654004 
L 95.893371 293.598117 
L 95.974536 293.629173 
L 96.120633 293.65072 
L 96.80783 293.700724 
L 96.894406 293.715705 
L 96.818652 293.677945 
L 96.91605 293.690463 
L 96.926872 293.710848 
L 97.045914 293.713584 
L 97.159545 293.741014 
L 97.062147 293.69532 
L 97.164956 293.723982 
L 97.273176 293.711395 
L 97.181189 293.7365 
L 97.278587 293.735268 
L 97.40304 293.724734 
L 97.408451 293.731027 
L 110.389438 294.299333 
L 110.486836 294.292492 
L 110.438137 294.313698 
L 110.497658 294.301317 
L 110.67081 294.311235 
L 110.816907 294.297828 
L 110.919716 294.326079 
L 110.930538 294.307747 
L 111.168622 294.332646 
L 111.26602 294.30419 
L 111.282253 294.323138 
L 111.309308 294.304532 
L 111.395884 294.337161 
L 111.487871 294.328952 
L 111.509515 294.336545 
L 111.628557 294.330731 
L 111.774654 294.351868 
L 111.888285 294.336066 
L 112.012738 294.355493 
L 112.018149 294.348037 
L 112.153424 294.337503 
L 112.164246 294.35221 
L 112.396919 294.358776 
L 112.732401 294.359529 
L 112.829799 294.390721 
L 112.754045 294.352278 
L 112.846032 294.365685 
L 112.986718 294.400161 
L 113.002951 294.371158 
L 113.425009 294.374304 
L 113.527818 294.392363 
L 113.53864 294.388532 
L 113.765902 294.402966 
L 113.771313 294.385933 
L 115.697629 294.438605 
L 115.800438 294.444214 
L 115.708451 294.428002 
L 115.805849 294.442504 
L 115.81126 294.403718 
L 115.843726 294.457895 
L 115.914069 294.440178 
L 116.043933 294.449549 
L 116.152153 294.444898 
L 116.157564 294.45639 
L 116.173797 294.438057 
L 116.276606 294.457348 
L 116.390237 294.44011 
L 116.287428 294.462067 
L 116.395648 294.445582 
L 116.487635 294.471165 
L 116.51469 294.452833 
L 116.644554 294.452833 
L 116.78524 294.458921 
L 116.925925 294.460221 
L 117.028734 294.482931 
L 116.942158 294.45037 
L 117.039556 294.456253 
L 117.164009 294.488403 
L 117.272229 294.461725 
L 117.27764 294.479237 
L 117.364216 294.453243 
L 117.402093 294.479442 
L 118.451827 294.491345 
L 118.570869 294.488266 
L 118.581691 294.502905 
L 118.890118 294.503999 
L 118.987516 294.542716 
L 118.938817 294.490866 
L 118.998338 294.521853 
L 119.11738 294.502495 
L 119.236422 294.533277 
L 119.350053 294.504136 
L 119.49615 294.524521 
L 119.626014 294.514465 
L 119.71259 294.531635 
L 119.636836 294.508035 
L 119.739645 294.52069 
L 119.896564 294.521853 
L 119.901975 294.530404 
L 119.918208 294.519664 
L 120.015606 294.533482 
L 120.102182 294.520006 
L 120.129237 294.531293 
L 120.351088 294.517065 
L 120.459308 294.546752 
L 120.464719 294.535739 
L 120.659515 294.544358 
L 120.79479 294.533413 
L 120.800201 294.540528 
L 120.897599 294.561596 
L 120.811023 294.53485 
L 120.924654 294.540459 
L 121.06534 294.551062 
L 121.070751 294.546137 
L 121.184382 294.543537 
L 121.081573 294.55455 
L 121.189793 294.549831 
L 121.200615 294.542101 
L 121.314246 294.560023 
L 121.492809 294.537244 
L 121.622673 294.566111 
L 121.730893 294.550446 
L 121.839113 294.574251 
L 121.855346 294.560912 
L 122.088019 294.557355 
L 122.20165 294.572062 
L 122.748161 294.571104 
L 122.878025 294.562212 
L 122.758983 294.583759 
L 122.883436 294.573567 
L 122.975423 294.588821 
L 122.899669 294.565837 
L 122.997067 294.572541 
L 123.191863 294.589368 
L 123.300083 294.578424 
L 123.305494 294.586359 
L 123.424536 294.599356 
L 123.548989 294.576303 
L 123.927759 294.618304 
L 124.04139 294.596893 
L 124.046801 294.598808 
L 124.306529 294.604623 
L 124.333583 294.613926 
L 124.420159 294.603665 
L 124.85845 294.608727 
L 124.988314 294.614678 
L 125.123589 294.617414 
L 126.692779 294.643271 
L 126.80641 294.635063 
L 126.925452 294.646486 
L 127.136481 294.643545 
L 127.255523 294.641835 
L 127.434086 294.641288 
L 127.553128 294.66003 
L 127.558539 294.656268 
L 127.688403 294.644434 
L 128.077995 294.662767 
L 128.186215 294.652574 
L 128.088817 294.68062 
L 128.197037 294.661877 
L 128.440532 294.660714 
L 128.53793 294.657773 
L 128.554163 294.664203 
L 128.743548 294.67077 
L 128.857179 294.661877 
L 128.770603 294.685067 
L 128.86259 294.667008 
L 129.008687 294.676516 
L 129.171017 294.664887 
L 129.365813 294.689171 
L 129.474033 294.670565 
L 129.484855 294.678568 
L 129.609308 294.676995 
L 129.614719 294.684382 
L 129.771638 294.689923 
L 129.966434 294.669812 
L 130.074654 294.697653 
L 130.080065 294.68876 
L 130.226162 294.681099 
L 130.350615 294.698747 
L 130.59411 294.687324 
L 130.696919 294.702715 
L 130.707741 294.693412 
L 131.005346 294.701894 
L 131.108155 294.688897 
L 131.016168 294.713112 
L 131.113566 294.703262 
L 131.227197 294.711881 
L 131.129799 294.693001 
L 131.232608 294.693754 
L 131.373294 294.715849 
L 131.378705 294.71106 
L 131.519391 294.708598 
L 131.795351 294.713728 
L 132.033435 294.715301 
L 132.049668 294.72221 
L 132.152477 294.704357 
L 132.27693 294.716875 
L 132.628645 294.728572 
L 132.742276 294.722142 
L 132.953305 294.713796 
L 133.072347 294.726383 
L 133.234677 294.732266 
L 133.245499 294.717148 
L 133.353719 294.731308 
L 133.483583 294.723784 
L 133.602625 294.742116 
L 133.608036 294.733429 
L 133.7379 294.728093 
L 133.743311 294.732403 
L 133.921874 294.740337 
L 133.938107 294.74622 
L 134.040916 294.725288 
L 134.165369 294.740406 
L 134.235712 294.723715 
L 134.279 294.737601 
L 134.679414 294.75094 
L 134.966197 294.750119 
L 135.09065 294.752719 
L 135.263802 294.755455 
L 135.355789 294.733292 
L 135.274624 294.762364 
L 135.377433 294.743758 
L 135.501886 294.76469 
L 135.653394 294.742595 
L 135.712915 294.771325 
L 135.767025 294.752582 
L 135.891478 294.769067 
L 135.999698 294.748272 
L 136.01052 294.75354 
L 136.140384 294.769409 
L 136.254015 294.747246 
L 136.259426 294.764758 
L 136.502921 294.748478 
L 136.621963 294.776729 
L 136.741005 294.76722 
L 136.746416 294.771188 
L 136.87628 294.775361 
L 137.011555 294.763663 
L 137.227995 294.783774 
L 137.336215 294.768452 
L 137.347037 294.774471 
L 137.498545 294.773514 
L 137.704163 294.781791 
L 137.812383 294.790204 
L 137.731218 294.768041 
L 137.817794 294.784732 
L 137.828616 294.754566 
L 137.931425 294.787126 
L 138.034234 294.77153 
L 138.045056 294.78268 
L 138.169509 294.791915 
L 138.17492 294.788494 
L 138.331839 294.790615 
L 140.636924 294.807306 
L 140.647746 294.799986 
L 140.761377 294.815993 
L 140.983228 294.798892 
L 141.096859 294.81654 
L 141.459396 294.809768 
L 141.578438 294.820644 
L 141.64337 294.80026 
L 141.605493 294.832 
L 141.692069 294.827006 
L 141.940975 294.815309 
L 142.070839 294.828169 
L 142.206114 294.818456 
L 142.319745 294.83111 
L 142.227758 294.806006 
L 142.330567 294.820508 
L 143.769893 294.845475 
L 143.878113 294.82557 
L 143.883524 294.835899 
L 144.013388 294.845339 
L 144.137841 294.83713 
L 144.278527 294.84055 
L 144.424624 294.835625 
L 144.689763 294.84486 
L 144.716818 294.859635 
L 144.803394 294.827964 
L 144.927847 294.857857 
L 145.041478 294.841439 
L 145.046889 294.848485 
L 146.226487 294.849169 
L 146.323885 294.864218 
L 146.237309 294.846433 
L 146.340118 294.855736 
L 146.502448 294.867228 
L 146.686422 294.862166 
L 146.794641 294.859704 
L 146.708065 294.846433 
L 146.800052 294.855326 
L 146.95156 294.864287 
L 147.076013 294.877489 
L 147.178822 294.858472 
L 147.189644 294.86798 
L 147.351974 294.867502 
L 147.719922 294.879062 
L 162.670513 294.978454 
L 162.773322 294.961968 
L 162.784144 294.972982 
L 164.521075 294.9829 
L 164.640117 294.973529 
L 165.083819 294.980643 
L 165.246149 294.989262 
L 166.106498 294.983995 
L 166.22554 294.990288 
L 166.236362 295.002122 
L 166.38787 294.98379 
L 166.512323 295.005132 
L 166.642187 294.987073 
L 166.788284 295.009099 
L 166.912737 294.975786 
L 167.048012 294.999317 
L 167.172465 294.987825 
L 167.296918 294.996855 
L 167.426782 294.988715 
L 169.883375 295.012041 
L 169.894197 295.022643 
L 169.997006 294.996034 
L 170.099815 295.022575 
L 170.116048 295.0039 
L 171.652772 295.02709 
L 171.739348 295.006431 
L 171.766403 295.028253 
L 171.923322 295.005405 
L 172.036953 295.026679 
L 172.172228 295.000412 
L 172.285859 295.025995 
L 172.29127 295.012451 
L 185.115338 295.070321 
L 185.245202 295.076136 
L 185.439998 295.080856 
L 185.564451 295.072374 
L 185.743014 295.082224 
L 185.867467 295.073331 
L 186.067674 295.062728 
L 186.186716 295.080719 
L 186.197538 295.069364 
L 186.338224 295.079966 
L 186.468088 295.069158 
L 186.592541 295.083865 
L 186.754871 295.074084 
L 186.917201 295.084344 
L 186.922612 295.074768 
L 187.079531 295.066901 
L 187.090353 295.081813 
L 187.323026 295.082019 
L 187.458301 295.083934 
L 187.653097 295.085712 
L 188.491802 295.088654 
L 188.610844 295.074357 
L 188.724475 295.096657 
L 188.729886 295.086807 
L 188.85975 295.093237 
L 191.446207 295.09269 
L 191.565249 295.0944 
L 191.776278 295.107944 
L 191.906142 295.097615 
L 192.284912 295.08968 
L 192.414776 295.1141 
L 192.533818 295.096999 
L 193.740471 295.103087 
L 193.848691 295.099872 
L 193.859513 295.107602 
L 194.162529 295.108012 
L 196.808508 295.117384 
L 196.943783 295.11239 
L 197.079058 295.106097 
L 197.1981 295.119162 
L 197.658035 295.114784 
L 197.804132 295.10767 
L 197.933996 295.123951 
L 198.085504 295.124908 
L 198.242423 295.108833 
L 198.366876 295.121009 
L 198.577905 295.119094 
L 198.870099 295.116016 
L 199.010784 295.12012 
L 199.265101 295.114579 
L 199.400376 295.123403 
L 199.838667 295.117931 
L 199.96312 295.128602 
L 200.082162 295.116905 
L 200.087573 295.129081 
L 200.266136 295.123609 
L 200.61244 295.125182 
L 200.72066 295.124156 
L 200.726071 295.129833 
L 203.404516 295.127576 
L 203.415338 295.139273 
L 203.539791 295.123335 
L 203.680477 295.137905 
L 203.837396 295.130928 
L 203.961849 295.141462 
L 204.086302 295.122172 
L 204.226988 295.143104 
L 204.356852 295.137905 
L 204.50836 295.130723 
L 204.611169 295.144609 
L 204.621991 295.134416 
L 205.060282 295.139752 
L 205.071104 295.131407 
L 205.179324 295.138863 
L 205.411997 295.14454 
L 206.748513 295.142283 
L 206.851322 295.145772 
L 206.862144 295.136605 
L 207.078584 295.142146 
L 207.186804 295.15186 
L 207.197626 295.145772 
L 207.316668 295.133185 
L 207.322079 295.142899 
L 207.457354 295.14283 
L 207.890234 295.147413 
L 208.079619 295.136263 
L 208.241949 295.161231 
L 208.24736 295.150628 
L 208.371813 295.145772 
L 208.799282 295.144814 
L 208.939968 295.147071 
L 259.971102 295.244206 
L 259.981924 295.238392 
L 260.084733 295.249473 
L 262.774 295.248721 
L 262.909275 295.242427 
L 263.049961 295.257545 
L 263.055372 295.248994 
L 263.201469 295.245711 
L 263.482841 295.245848 
L 263.796679 295.247284 
L 263.937365 295.254603 
L 264.083462 295.248379 
L 265.327992 295.251867 
L 265.474089 295.247626 
L 265.636419 295.255424 
L 265.777105 295.245232 
L 265.901558 295.255766 
L 395.159508 295.363435 
L 395.311016 295.356116 
L 395.662731 295.36282 
L 395.835883 295.363435 
L 396.095611 295.354748 
L 396.230886 295.358647 
L 396.544724 295.36364 
L 396.663766 295.355979 
L 396.669177 295.360289 
L 396.84774 295.357758 
L 397.275209 295.362409 
L 397.453772 295.360562 
L 397.648568 295.360699 
L 397.827131 295.3581 
L 398.09227 295.359741 
L 398.47104 295.359741 
L 398.487273 295.360425 
L 398.487273 295.360425 
" clip-path="url(#p482b326bbd)" style="fill: none; stroke-dasharray: 1.85,0.8; stroke-dashoffset: 0; stroke: #ff0000; stroke-width: 0.5"/>
   </g>
   <g id="patch_3">
    <path d="M 57.6 307.584 
L 57.6 41.472 
" style="fill: none; stroke: #000000; stroke-width: 0.8; stroke-linejoin: miter; stroke-linecap: square"/>
   </g>
   <g id="patch_4">
    <path d="M 414.72 307.584 
L 414.72 41.472 
" style="fill: none; stroke: #000000; stroke-width: 0.8; stroke-linejoin: miter; stroke-linecap: square"/>
   </g>
   <g id="patch_5">
    <path d="M 57.6 307.584 
L 414.72 307.584 
" style="fill: none; stroke: #000000; stroke-width: 0.8; stroke-linejoin: miter; stroke-linecap: square"/>
   </g>
   <g id="patch_6">
    <path d="M 57.6 41.472 
L 414.72 41.472 
" style="fill: none; stroke: #000000; stroke-width: 0.8; stroke-linejoin: miter; stroke-linecap: square"/>
   </g>
   <g id="legend_1">
    <g id="patch_7">
     <path d="M 243.16 134.7957 
L 313.8225 134.7957 
Q 315.8225 134.7957 315.8225 132.7957 
L 315.8225 75.0832 
Q 315.8225 73.0832 313.8225 73.0832 
L 243.16 73.0832 
Q 241.16 73.0832 241.16 75.0832 
L 241.16 132.7957 
Q 241.16 134.7957 243.16 134.7957 
z
" style="fill: #ffffff; opacity: 0.8; stroke: #cccccc; stroke-linejoin: miter"/>
    </g>
    <g id="line2d_22">
     <path d="M 245.16 81.181637 
L 255.16 81.181637 
L 265.16 81.181637 
" style="fill: none; stroke-dasharray: 1.85,0.8; stroke-dashoffset: 0; stroke: #8000ff; stroke-width: 0.5"/>
    </g>
    <g id="text_21">
     <!-- A: 1 -->
     <g transform="translate(273.16 84.681637) scale(0.1 -0.1)">
      <defs>
       <path id="DejaVuSans-41" d="M 2188 4044 
L 1331 1722 
L 3047 1722 
L 2188 4044 
z
M 1831 4666 
L 2547 4666 
L 4325 0 
L 3669 0 
L 3244 1197 
L 1141 1197 
L 716 0 
L 50 0 
L 1831 4666 
z
" transform="scale(0.015625)"/>
       <path id="DejaVuSans-3a" d="M 750 794 
L 1409 794 
L 1409 0 
L 750 0 
L 750 794 
z
M 750 3309 
L 1409 3309 
L 1409 2516 
L 750 2516 
L 750 3309 
z
" transform="scale(0.015625)"/>
      </defs>
      <use xlink:href="#DejaVuSans-41"/>
      <use xlink:href="#DejaVuSans-3a" transform="translate(66.658203 0)"/>
      <use xlink:href="#DejaVuSans-20" transform="translate(100.349609 0)"/>
      <use xlink:href="#DejaVuSans-31" transform="translate(132.136719 0)"/>
     </g>
    </g>
    <g id="line2d_23">
     <path d="M 245.16 95.859762 
L 255.16 95.859762 
L 265.16 95.859762 
" style="fill: none; stroke-dasharray: 1.85,0.8; stroke-dashoffset: 0; stroke: #2adddd; stroke-width: 0.5"/>
    </g>
    <g id="text_22">
     <!-- A: 10 -->
     <g transform="translate(273.16 99.359762) scale(0.1 -0.1)">
      <use xlink:href="#DejaVuSans-41"/>
      <use xlink:href="#DejaVuSans-3a" transform="translate(66.658203 0)"/>
      <use xlink:href="#DejaVuSans-20" transform="translate(100.349609 0)"/>
      <use xlink:href="#DejaVuSans-31" transform="translate(132.136719 0)"/>
      <use xlink:href="#DejaVuSans-30" transform="translate(195.759766 0)"/>
     </g>
    </g>
    <g id="line2d_24">
     <path d="M 245.16 110.537887 
L 255.16 110.537887 
L 265.16 110.537887 
" style="fill: none; stroke-dasharray: 1.85,0.8; stroke-dashoffset: 0; stroke: #d4dd80; stroke-width: 0.5"/>
    </g>
    <g id="text_23">
     <!-- A: 100 -->
     <g transform="translate(273.16 114.037887) scale(0.1 -0.1)">
      <use xlink:href="#DejaVuSans-41"/>
      <use xlink:href="#DejaVuSans-3a" transform="translate(66.658203 0)"/>
      <use xlink:href="#DejaVuSans-20" transform="translate(100.349609 0)"/>
      <use xlink:href="#DejaVuSans-31" transform="translate(132.136719 0)"/>
      <use xlink:href="#DejaVuSans-30" transform="translate(195.759766 0)"/>
      <use xlink:href="#DejaVuSans-30" transform="translate(259.382812 0)"/>
     </g>
    </g>
    <g id="line2d_25">
     <path d="M 245.16 125.216012 
L 255.16 125.216012 
L 265.16 125.216012 
" style="fill: none; stroke-dasharray: 1.85,0.8; stroke-dashoffset: 0; stroke: #ff0000; stroke-width: 0.5"/>
    </g>
    <g id="text_24">
     <!-- A: 1000 -->
     <g transform="translate(273.16 128.716012) scale(0.1 -0.1)">
      <use xlink:href="#DejaVuSans-41"/>
      <use xlink:href="#DejaVuSans-3a" transform="translate(66.658203 0)"/>
      <use xlink:href="#DejaVuSans-20" transform="translate(100.349609 0)"/>
      <use xlink:href="#DejaVuSans-31" transform="translate(132.136719 0)"/>
      <use xlink:href="#DejaVuSans-30" transform="translate(195.759766 0)"/>
      <use xlink:href="#DejaVuSans-30" transform="translate(259.382812 0)"/>
      <use xlink:href="#DejaVuSans-30" transform="translate(323.005859 0)"/>
     </g>
    </g>
   </g>
  </g>
 </g>
 <defs>
  <clipPath id="p482b326bbd">
   <rect x="57.6" y="41.472" width="357.12" height="266.112"/>
  </clipPath>
 </defs>
</svg>
