<?xml version="1.0" encoding="utf-8" standalone="no"?>
<!DOCTYPE svg PUBLIC "-//W3C//DTD SVG 1.1//EN"
  "http://www.w3.org/Graphics/SVG/1.1/DTD/svg11.dtd">
<svg xmlns:xlink="http://www.w3.org/1999/xlink" width="460.8pt" height="345.6pt" viewBox="0 0 460.8 345.6" xmlns="http://www.w3.org/2000/svg" version="1.1">
 <metadata>
  <rdf:RDF xmlns:dc="http://purl.org/dc/elements/1.1/" xmlns:cc="http://creativecommons.org/ns#" xmlns:rdf="http://www.w3.org/1999/02/22-rdf-syntax-ns#">
   <cc:Work>
    <dc:type rdf:resource="http://purl.org/dc/dcmitype/StillImage"/>
    <dc:date>2025-03-04T11:14:59.936090</dc:date>
    <dc:format>image/svg+xml</dc:format>
    <dc:creator>
     <cc:Agent>
      <dc:title>Matplotlib v3.10.0, https://matplotlib.org/</dc:title>
     </cc:Agent>
    </dc:creator>
   </cc:Work>
  </rdf:RDF>
 </metadata>
 <defs>
  <style type="text/css">*{stroke-linejoin: round; stroke-linecap: butt}</style>
 </defs>
 <g id="figure_1">
  <g id="patch_1">
   <path d="M 0 345.6 
L 460.8 345.6 
L 460.8 0 
L 0 0 
z
" style="fill: #ffffff"/>
  </g>
  <g id="axes_1">
   <g id="patch_2">
    <path d="M 57.6 307.584 
L 414.72 307.584 
L 414.72 41.472 
L 57.6 41.472 
z
" style="fill: #ffffff"/>
   </g>
   <g id="matplotlib.axis_1">
    <g id="xtick_1">
     <g id="line2d_1">
      <defs>
       <path id="m633e70dc79" d="M 0 0 
L 0 3.5 
" style="stroke: #000000; stroke-width: 0.8"/>
      </defs>
      <g>
       <use xlink:href="#m633e70dc79" x="73.832727" y="307.584" style="stroke: #000000; stroke-width: 0.8"/>
      </g>
     </g>
     <g id="text_1">
      <!-- 0 -->
      <g transform="translate(70.651477 322.182437) scale(0.1 -0.1)">
       <defs>
        <path id="DejaVuSans-30" d="M 2034 4250 
Q 1547 4250 1301 3770 
Q 1056 3291 1056 2328 
Q 1056 1369 1301 889 
Q 1547 409 2034 409 
Q 2525 409 2770 889 
Q 3016 1369 3016 2328 
Q 3016 3291 2770 3770 
Q 2525 4250 2034 4250 
z
M 2034 4750 
Q 2819 4750 3233 4129 
Q 3647 3509 3647 2328 
Q 3647 1150 3233 529 
Q 2819 -91 2034 -91 
Q 1250 -91 836 529 
Q 422 1150 422 2328 
Q 422 3509 836 4129 
Q 1250 4750 2034 4750 
z
" transform="scale(0.015625)"/>
       </defs>
       <use xlink:href="#DejaVuSans-30"/>
      </g>
     </g>
    </g>
    <g id="xtick_2">
     <g id="line2d_2">
      <g>
       <use xlink:href="#m633e70dc79" x="114.414545" y="307.584" style="stroke: #000000; stroke-width: 0.8"/>
      </g>
     </g>
     <g id="text_2">
      <!-- 100 -->
      <g transform="translate(104.870795 322.182437) scale(0.1 -0.1)">
       <defs>
        <path id="DejaVuSans-31" d="M 794 531 
L 1825 531 
L 1825 4091 
L 703 3866 
L 703 4441 
L 1819 4666 
L 2450 4666 
L 2450 531 
L 3481 531 
L 3481 0 
L 794 0 
L 794 531 
z
" transform="scale(0.015625)"/>
       </defs>
       <use xlink:href="#DejaVuSans-31"/>
       <use xlink:href="#DejaVuSans-30" transform="translate(63.623047 0)"/>
       <use xlink:href="#DejaVuSans-30" transform="translate(127.246094 0)"/>
      </g>
     </g>
    </g>
    <g id="xtick_3">
     <g id="line2d_3">
      <g>
       <use xlink:href="#m633e70dc79" x="154.996364" y="307.584" style="stroke: #000000; stroke-width: 0.8"/>
      </g>
     </g>
     <g id="text_3">
      <!-- 200 -->
      <g transform="translate(145.452614 322.182437) scale(0.1 -0.1)">
       <defs>
        <path id="DejaVuSans-32" d="M 1228 531 
L 3431 531 
L 3431 0 
L 469 0 
L 469 531 
Q 828 903 1448 1529 
Q 2069 2156 2228 2338 
Q 2531 2678 2651 2914 
Q 2772 3150 2772 3378 
Q 2772 3750 2511 3984 
Q 2250 4219 1831 4219 
Q 1534 4219 1204 4116 
Q 875 4013 500 3803 
L 500 4441 
Q 881 4594 1212 4672 
Q 1544 4750 1819 4750 
Q 2544 4750 2975 4387 
Q 3406 4025 3406 3419 
Q 3406 3131 3298 2873 
Q 3191 2616 2906 2266 
Q 2828 2175 2409 1742 
Q 1991 1309 1228 531 
z
" transform="scale(0.015625)"/>
       </defs>
       <use xlink:href="#DejaVuSans-32"/>
       <use xlink:href="#DejaVuSans-30" transform="translate(63.623047 0)"/>
       <use xlink:href="#DejaVuSans-30" transform="translate(127.246094 0)"/>
      </g>
     </g>
    </g>
    <g id="xtick_4">
     <g id="line2d_4">
      <g>
       <use xlink:href="#m633e70dc79" x="195.578182" y="307.584" style="stroke: #000000; stroke-width: 0.8"/>
      </g>
     </g>
     <g id="text_4">
      <!-- 300 -->
      <g transform="translate(186.034432 322.182437) scale(0.1 -0.1)">
       <defs>
        <path id="DejaVuSans-33" d="M 2597 2516 
Q 3050 2419 3304 2112 
Q 3559 1806 3559 1356 
Q 3559 666 3084 287 
Q 2609 -91 1734 -91 
Q 1441 -91 1130 -33 
Q 819 25 488 141 
L 488 750 
Q 750 597 1062 519 
Q 1375 441 1716 441 
Q 2309 441 2620 675 
Q 2931 909 2931 1356 
Q 2931 1769 2642 2001 
Q 2353 2234 1838 2234 
L 1294 2234 
L 1294 2753 
L 1863 2753 
Q 2328 2753 2575 2939 
Q 2822 3125 2822 3475 
Q 2822 3834 2567 4026 
Q 2313 4219 1838 4219 
Q 1578 4219 1281 4162 
Q 984 4106 628 3988 
L 628 4550 
Q 988 4650 1302 4700 
Q 1616 4750 1894 4750 
Q 2613 4750 3031 4423 
Q 3450 4097 3450 3541 
Q 3450 3153 3228 2886 
Q 3006 2619 2597 2516 
z
" transform="scale(0.015625)"/>
       </defs>
       <use xlink:href="#DejaVuSans-33"/>
       <use xlink:href="#DejaVuSans-30" transform="translate(63.623047 0)"/>
       <use xlink:href="#DejaVuSans-30" transform="translate(127.246094 0)"/>
      </g>
     </g>
    </g>
    <g id="xtick_5">
     <g id="line2d_5">
      <g>
       <use xlink:href="#m633e70dc79" x="236.16" y="307.584" style="stroke: #000000; stroke-width: 0.8"/>
      </g>
     </g>
     <g id="text_5">
      <!-- 400 -->
      <g transform="translate(226.61625 322.182437) scale(0.1 -0.1)">
       <defs>
        <path id="DejaVuSans-34" d="M 2419 4116 
L 825 1625 
L 2419 1625 
L 2419 4116 
z
M 2253 4666 
L 3047 4666 
L 3047 1625 
L 3713 1625 
L 3713 1100 
L 3047 1100 
L 3047 0 
L 2419 0 
L 2419 1100 
L 313 1100 
L 313 1709 
L 2253 4666 
z
" transform="scale(0.015625)"/>
       </defs>
       <use xlink:href="#DejaVuSans-34"/>
       <use xlink:href="#DejaVuSans-30" transform="translate(63.623047 0)"/>
       <use xlink:href="#DejaVuSans-30" transform="translate(127.246094 0)"/>
      </g>
     </g>
    </g>
    <g id="xtick_6">
     <g id="line2d_6">
      <g>
       <use xlink:href="#m633e70dc79" x="276.741818" y="307.584" style="stroke: #000000; stroke-width: 0.8"/>
      </g>
     </g>
     <g id="text_6">
      <!-- 500 -->
      <g transform="translate(267.198068 322.182437) scale(0.1 -0.1)">
       <defs>
        <path id="DejaVuSans-35" d="M 691 4666 
L 3169 4666 
L 3169 4134 
L 1269 4134 
L 1269 2991 
Q 1406 3038 1543 3061 
Q 1681 3084 1819 3084 
Q 2600 3084 3056 2656 
Q 3513 2228 3513 1497 
Q 3513 744 3044 326 
Q 2575 -91 1722 -91 
Q 1428 -91 1123 -41 
Q 819 9 494 109 
L 494 744 
Q 775 591 1075 516 
Q 1375 441 1709 441 
Q 2250 441 2565 725 
Q 2881 1009 2881 1497 
Q 2881 1984 2565 2268 
Q 2250 2553 1709 2553 
Q 1456 2553 1204 2497 
Q 953 2441 691 2322 
L 691 4666 
z
" transform="scale(0.015625)"/>
       </defs>
       <use xlink:href="#DejaVuSans-35"/>
       <use xlink:href="#DejaVuSans-30" transform="translate(63.623047 0)"/>
       <use xlink:href="#DejaVuSans-30" transform="translate(127.246094 0)"/>
      </g>
     </g>
    </g>
    <g id="xtick_7">
     <g id="line2d_7">
      <g>
       <use xlink:href="#m633e70dc79" x="317.323636" y="307.584" style="stroke: #000000; stroke-width: 0.8"/>
      </g>
     </g>
     <g id="text_7">
      <!-- 600 -->
      <g transform="translate(307.779886 322.182437) scale(0.1 -0.1)">
       <defs>
        <path id="DejaVuSans-36" d="M 2113 2584 
Q 1688 2584 1439 2293 
Q 1191 2003 1191 1497 
Q 1191 994 1439 701 
Q 1688 409 2113 409 
Q 2538 409 2786 701 
Q 3034 994 3034 1497 
Q 3034 2003 2786 2293 
Q 2538 2584 2113 2584 
z
M 3366 4563 
L 3366 3988 
Q 3128 4100 2886 4159 
Q 2644 4219 2406 4219 
Q 1781 4219 1451 3797 
Q 1122 3375 1075 2522 
Q 1259 2794 1537 2939 
Q 1816 3084 2150 3084 
Q 2853 3084 3261 2657 
Q 3669 2231 3669 1497 
Q 3669 778 3244 343 
Q 2819 -91 2113 -91 
Q 1303 -91 875 529 
Q 447 1150 447 2328 
Q 447 3434 972 4092 
Q 1497 4750 2381 4750 
Q 2619 4750 2861 4703 
Q 3103 4656 3366 4563 
z
" transform="scale(0.015625)"/>
       </defs>
       <use xlink:href="#DejaVuSans-36"/>
       <use xlink:href="#DejaVuSans-30" transform="translate(63.623047 0)"/>
       <use xlink:href="#DejaVuSans-30" transform="translate(127.246094 0)"/>
      </g>
     </g>
    </g>
    <g id="xtick_8">
     <g id="line2d_8">
      <g>
       <use xlink:href="#m633e70dc79" x="357.905455" y="307.584" style="stroke: #000000; stroke-width: 0.8"/>
      </g>
     </g>
     <g id="text_8">
      <!-- 700 -->
      <g transform="translate(348.361705 322.182437) scale(0.1 -0.1)">
       <defs>
        <path id="DejaVuSans-37" d="M 525 4666 
L 3525 4666 
L 3525 4397 
L 1831 0 
L 1172 0 
L 2766 4134 
L 525 4134 
L 525 4666 
z
" transform="scale(0.015625)"/>
       </defs>
       <use xlink:href="#DejaVuSans-37"/>
       <use xlink:href="#DejaVuSans-30" transform="translate(63.623047 0)"/>
       <use xlink:href="#DejaVuSans-30" transform="translate(127.246094 0)"/>
      </g>
     </g>
    </g>
    <g id="xtick_9">
     <g id="line2d_9">
      <g>
       <use xlink:href="#m633e70dc79" x="398.487273" y="307.584" style="stroke: #000000; stroke-width: 0.8"/>
      </g>
     </g>
     <g id="text_9">
      <!-- 800 -->
      <g transform="translate(388.943523 322.182437) scale(0.1 -0.1)">
       <defs>
        <path id="DejaVuSans-38" d="M 2034 2216 
Q 1584 2216 1326 1975 
Q 1069 1734 1069 1313 
Q 1069 891 1326 650 
Q 1584 409 2034 409 
Q 2484 409 2743 651 
Q 3003 894 3003 1313 
Q 3003 1734 2745 1975 
Q 2488 2216 2034 2216 
z
M 1403 2484 
Q 997 2584 770 2862 
Q 544 3141 544 3541 
Q 544 4100 942 4425 
Q 1341 4750 2034 4750 
Q 2731 4750 3128 4425 
Q 3525 4100 3525 3541 
Q 3525 3141 3298 2862 
Q 3072 2584 2669 2484 
Q 3125 2378 3379 2068 
Q 3634 1759 3634 1313 
Q 3634 634 3220 271 
Q 2806 -91 2034 -91 
Q 1263 -91 848 271 
Q 434 634 434 1313 
Q 434 1759 690 2068 
Q 947 2378 1403 2484 
z
M 1172 3481 
Q 1172 3119 1398 2916 
Q 1625 2713 2034 2713 
Q 2441 2713 2670 2916 
Q 2900 3119 2900 3481 
Q 2900 3844 2670 4047 
Q 2441 4250 2034 4250 
Q 1625 4250 1398 4047 
Q 1172 3844 1172 3481 
z
" transform="scale(0.015625)"/>
       </defs>
       <use xlink:href="#DejaVuSans-38"/>
       <use xlink:href="#DejaVuSans-30" transform="translate(63.623047 0)"/>
       <use xlink:href="#DejaVuSans-30" transform="translate(127.246094 0)"/>
      </g>
     </g>
    </g>
    <g id="text_10">
     <!-- Temperature ($^{\circ}C$) -->
     <g transform="translate(192.16 335.862125) scale(0.1 -0.1)">
      <defs>
       <path id="DejaVuSans-54" d="M -19 4666 
L 3928 4666 
L 3928 4134 
L 2272 4134 
L 2272 0 
L 1638 0 
L 1638 4134 
L -19 4134 
L -19 4666 
z
" transform="scale(0.015625)"/>
       <path id="DejaVuSans-65" d="M 3597 1894 
L 3597 1613 
L 953 1613 
Q 991 1019 1311 708 
Q 1631 397 2203 397 
Q 2534 397 2845 478 
Q 3156 559 3463 722 
L 3463 178 
Q 3153 47 2828 -22 
Q 2503 -91 2169 -91 
Q 1331 -91 842 396 
Q 353 884 353 1716 
Q 353 2575 817 3079 
Q 1281 3584 2069 3584 
Q 2775 3584 3186 3129 
Q 3597 2675 3597 1894 
z
M 3022 2063 
Q 3016 2534 2758 2815 
Q 2500 3097 2075 3097 
Q 1594 3097 1305 2825 
Q 1016 2553 972 2059 
L 3022 2063 
z
" transform="scale(0.015625)"/>
       <path id="DejaVuSans-6d" d="M 3328 2828 
Q 3544 3216 3844 3400 
Q 4144 3584 4550 3584 
Q 5097 3584 5394 3201 
Q 5691 2819 5691 2113 
L 5691 0 
L 5113 0 
L 5113 2094 
Q 5113 2597 4934 2840 
Q 4756 3084 4391 3084 
Q 3944 3084 3684 2787 
Q 3425 2491 3425 1978 
L 3425 0 
L 2847 0 
L 2847 2094 
Q 2847 2600 2669 2842 
Q 2491 3084 2119 3084 
Q 1678 3084 1418 2786 
Q 1159 2488 1159 1978 
L 1159 0 
L 581 0 
L 581 3500 
L 1159 3500 
L 1159 2956 
Q 1356 3278 1631 3431 
Q 1906 3584 2284 3584 
Q 2666 3584 2933 3390 
Q 3200 3197 3328 2828 
z
" transform="scale(0.015625)"/>
       <path id="DejaVuSans-70" d="M 1159 525 
L 1159 -1331 
L 581 -1331 
L 581 3500 
L 1159 3500 
L 1159 2969 
Q 1341 3281 1617 3432 
Q 1894 3584 2278 3584 
Q 2916 3584 3314 3078 
Q 3713 2572 3713 1747 
Q 3713 922 3314 415 
Q 2916 -91 2278 -91 
Q 1894 -91 1617 61 
Q 1341 213 1159 525 
z
M 3116 1747 
Q 3116 2381 2855 2742 
Q 2594 3103 2138 3103 
Q 1681 3103 1420 2742 
Q 1159 2381 1159 1747 
Q 1159 1113 1420 752 
Q 1681 391 2138 391 
Q 2594 391 2855 752 
Q 3116 1113 3116 1747 
z
" transform="scale(0.015625)"/>
       <path id="DejaVuSans-72" d="M 2631 2963 
Q 2534 3019 2420 3045 
Q 2306 3072 2169 3072 
Q 1681 3072 1420 2755 
Q 1159 2438 1159 1844 
L 1159 0 
L 581 0 
L 581 3500 
L 1159 3500 
L 1159 2956 
Q 1341 3275 1631 3429 
Q 1922 3584 2338 3584 
Q 2397 3584 2469 3576 
Q 2541 3569 2628 3553 
L 2631 2963 
z
" transform="scale(0.015625)"/>
       <path id="DejaVuSans-61" d="M 2194 1759 
Q 1497 1759 1228 1600 
Q 959 1441 959 1056 
Q 959 750 1161 570 
Q 1363 391 1709 391 
Q 2188 391 2477 730 
Q 2766 1069 2766 1631 
L 2766 1759 
L 2194 1759 
z
M 3341 1997 
L 3341 0 
L 2766 0 
L 2766 531 
Q 2569 213 2275 61 
Q 1981 -91 1556 -91 
Q 1019 -91 701 211 
Q 384 513 384 1019 
Q 384 1609 779 1909 
Q 1175 2209 1959 2209 
L 2766 2209 
L 2766 2266 
Q 2766 2663 2505 2880 
Q 2244 3097 1772 3097 
Q 1472 3097 1187 3025 
Q 903 2953 641 2809 
L 641 3341 
Q 956 3463 1253 3523 
Q 1550 3584 1831 3584 
Q 2591 3584 2966 3190 
Q 3341 2797 3341 1997 
z
" transform="scale(0.015625)"/>
       <path id="DejaVuSans-74" d="M 1172 4494 
L 1172 3500 
L 2356 3500 
L 2356 3053 
L 1172 3053 
L 1172 1153 
Q 1172 725 1289 603 
Q 1406 481 1766 481 
L 2356 481 
L 2356 0 
L 1766 0 
Q 1100 0 847 248 
Q 594 497 594 1153 
L 594 3053 
L 172 3053 
L 172 3500 
L 594 3500 
L 594 4494 
L 1172 4494 
z
" transform="scale(0.015625)"/>
       <path id="DejaVuSans-75" d="M 544 1381 
L 544 3500 
L 1119 3500 
L 1119 1403 
Q 1119 906 1312 657 
Q 1506 409 1894 409 
Q 2359 409 2629 706 
Q 2900 1003 2900 1516 
L 2900 3500 
L 3475 3500 
L 3475 0 
L 2900 0 
L 2900 538 
Q 2691 219 2414 64 
Q 2138 -91 1772 -91 
Q 1169 -91 856 284 
Q 544 659 544 1381 
z
M 1991 3584 
L 1991 3584 
z
" transform="scale(0.015625)"/>
       <path id="DejaVuSans-20" transform="scale(0.015625)"/>
       <path id="DejaVuSans-28" d="M 1984 4856 
Q 1566 4138 1362 3434 
Q 1159 2731 1159 2009 
Q 1159 1288 1364 580 
Q 1569 -128 1984 -844 
L 1484 -844 
Q 1016 -109 783 600 
Q 550 1309 550 2009 
Q 550 2706 781 3412 
Q 1013 4119 1484 4856 
L 1984 4856 
z
" transform="scale(0.015625)"/>
       <path id="DejaVuSans-2218" d="M 2000 2619 
Q 1750 2619 1578 2445 
Q 1406 2272 1406 2022 
Q 1406 1775 1578 1605 
Q 1750 1435 2000 1435 
Q 2250 1435 2422 1605 
Q 2594 1775 2594 2022 
Q 2594 2269 2420 2444 
Q 2247 2619 2000 2619 
z
M 2000 3022 
Q 2200 3022 2384 2945 
Q 2569 2869 2703 2725 
Q 2847 2585 2919 2406 
Q 2991 2228 2991 2022 
Q 2991 1610 2702 1324 
Q 2413 1038 1994 1038 
Q 1572 1038 1290 1319 
Q 1009 1600 1009 2022 
Q 1009 2441 1296 2731 
Q 1584 3022 2000 3022 
z
" transform="scale(0.015625)"/>
       <path id="DejaVuSans-Oblique-43" d="M 4447 4306 
L 4319 3641 
Q 4019 3944 3683 4091 
Q 3347 4238 2956 4238 
Q 2422 4238 2017 3981 
Q 1613 3725 1319 3200 
Q 1131 2863 1032 2486 
Q 934 2109 934 1728 
Q 934 1091 1264 756 
Q 1594 422 2222 422 
Q 2656 422 3056 561 
Q 3456 700 3834 978 
L 3688 231 
Q 3316 72 2936 -9 
Q 2556 -91 2175 -91 
Q 1278 -91 773 396 
Q 269 884 269 1753 
Q 269 2309 461 2846 
Q 653 3384 1013 3828 
Q 1394 4300 1883 4525 
Q 2372 4750 3022 4750 
Q 3422 4750 3780 4639 
Q 4138 4528 4447 4306 
z
" transform="scale(0.015625)"/>
       <path id="DejaVuSans-29" d="M 513 4856 
L 1013 4856 
Q 1481 4119 1714 3412 
Q 1947 2706 1947 2009 
Q 1947 1309 1714 600 
Q 1481 -109 1013 -844 
L 513 -844 
Q 928 -128 1133 580 
Q 1338 1288 1338 2009 
Q 1338 2731 1133 3434 
Q 928 4138 513 4856 
z
" transform="scale(0.015625)"/>
      </defs>
      <use xlink:href="#DejaVuSans-54" transform="translate(0 0.125)"/>
      <use xlink:href="#DejaVuSans-65" transform="translate(61.083984 0.125)"/>
      <use xlink:href="#DejaVuSans-6d" transform="translate(122.607422 0.125)"/>
      <use xlink:href="#DejaVuSans-70" transform="translate(220.019531 0.125)"/>
      <use xlink:href="#DejaVuSans-65" transform="translate(283.496094 0.125)"/>
      <use xlink:href="#DejaVuSans-72" transform="translate(345.019531 0.125)"/>
      <use xlink:href="#DejaVuSans-61" transform="translate(386.132812 0.125)"/>
      <use xlink:href="#DejaVuSans-74" transform="translate(447.412109 0.125)"/>
      <use xlink:href="#DejaVuSans-75" transform="translate(486.621094 0.125)"/>
      <use xlink:href="#DejaVuSans-72" transform="translate(550 0.125)"/>
      <use xlink:href="#DejaVuSans-65" transform="translate(591.113281 0.125)"/>
      <use xlink:href="#DejaVuSans-20" transform="translate(652.636719 0.125)"/>
      <use xlink:href="#DejaVuSans-28" transform="translate(684.423828 0.125)"/>
      <use xlink:href="#DejaVuSans-2218" transform="translate(724.394531 38.40625) scale(0.7)"/>
      <use xlink:href="#DejaVuSans-Oblique-43" transform="translate(770.947266 0.125)"/>
      <use xlink:href="#DejaVuSans-29" transform="translate(840.771484 0.125)"/>
     </g>
    </g>
   </g>
   <g id="matplotlib.axis_2">
    <g id="ytick_1">
     <g id="line2d_10">
      <defs>
       <path id="mf1a5201753" d="M 0 0 
L -3.5 0 
" style="stroke: #000000; stroke-width: 0.8"/>
      </defs>
      <g>
       <use xlink:href="#mf1a5201753" x="57.6" y="295.488" style="stroke: #000000; stroke-width: 0.8"/>
      </g>
     </g>
     <g id="text_11">
      <!-- 0 -->
      <g transform="translate(44.2375 299.287219) scale(0.1 -0.1)">
       <use xlink:href="#DejaVuSans-30"/>
      </g>
     </g>
    </g>
    <g id="ytick_2">
     <g id="line2d_11">
      <g>
       <use xlink:href="#mf1a5201753" x="57.6" y="241.723663" style="stroke: #000000; stroke-width: 0.8"/>
      </g>
     </g>
     <g id="text_12">
      <!-- 1 -->
      <g transform="translate(44.2375 245.522882) scale(0.1 -0.1)">
       <use xlink:href="#DejaVuSans-31"/>
      </g>
     </g>
    </g>
    <g id="ytick_3">
     <g id="line2d_12">
      <g>
       <use xlink:href="#mf1a5201753" x="57.6" y="187.959326" style="stroke: #000000; stroke-width: 0.8"/>
      </g>
     </g>
     <g id="text_13">
      <!-- 2 -->
      <g transform="translate(44.2375 191.758545) scale(0.1 -0.1)">
       <use xlink:href="#DejaVuSans-32"/>
      </g>
     </g>
    </g>
    <g id="ytick_4">
     <g id="line2d_13">
      <g>
       <use xlink:href="#mf1a5201753" x="57.6" y="134.194989" style="stroke: #000000; stroke-width: 0.8"/>
      </g>
     </g>
     <g id="text_14">
      <!-- 3 -->
      <g transform="translate(44.2375 137.994208) scale(0.1 -0.1)">
       <use xlink:href="#DejaVuSans-33"/>
      </g>
     </g>
    </g>
    <g id="ytick_5">
     <g id="line2d_14">
      <g>
       <use xlink:href="#mf1a5201753" x="57.6" y="80.430652" style="stroke: #000000; stroke-width: 0.8"/>
      </g>
     </g>
     <g id="text_15">
      <!-- 4 -->
      <g transform="translate(44.2375 84.229871) scale(0.1 -0.1)">
       <use xlink:href="#DejaVuSans-34"/>
      </g>
     </g>
    </g>
    <g id="text_16">
     <!-- Intensity ($^{\circ}C^{-1}$) -->
     <g transform="translate(38.1375 213.328) rotate(-90) scale(0.1 -0.1)">
      <defs>
       <path id="DejaVuSans-49" d="M 628 4666 
L 1259 4666 
L 1259 0 
L 628 0 
L 628 4666 
z
" transform="scale(0.015625)"/>
       <path id="DejaVuSans-6e" d="M 3513 2113 
L 3513 0 
L 2938 0 
L 2938 2094 
Q 2938 2591 2744 2837 
Q 2550 3084 2163 3084 
Q 1697 3084 1428 2787 
Q 1159 2491 1159 1978 
L 1159 0 
L 581 0 
L 581 3500 
L 1159 3500 
L 1159 2956 
Q 1366 3272 1645 3428 
Q 1925 3584 2291 3584 
Q 2894 3584 3203 3211 
Q 3513 2838 3513 2113 
z
" transform="scale(0.015625)"/>
       <path id="DejaVuSans-73" d="M 2834 3397 
L 2834 2853 
Q 2591 2978 2328 3040 
Q 2066 3103 1784 3103 
Q 1356 3103 1142 2972 
Q 928 2841 928 2578 
Q 928 2378 1081 2264 
Q 1234 2150 1697 2047 
L 1894 2003 
Q 2506 1872 2764 1633 
Q 3022 1394 3022 966 
Q 3022 478 2636 193 
Q 2250 -91 1575 -91 
Q 1294 -91 989 -36 
Q 684 19 347 128 
L 347 722 
Q 666 556 975 473 
Q 1284 391 1588 391 
Q 1994 391 2212 530 
Q 2431 669 2431 922 
Q 2431 1156 2273 1281 
Q 2116 1406 1581 1522 
L 1381 1569 
Q 847 1681 609 1914 
Q 372 2147 372 2553 
Q 372 3047 722 3315 
Q 1072 3584 1716 3584 
Q 2034 3584 2315 3537 
Q 2597 3491 2834 3397 
z
" transform="scale(0.015625)"/>
       <path id="DejaVuSans-69" d="M 603 3500 
L 1178 3500 
L 1178 0 
L 603 0 
L 603 3500 
z
M 603 4863 
L 1178 4863 
L 1178 4134 
L 603 4134 
L 603 4863 
z
" transform="scale(0.015625)"/>
       <path id="DejaVuSans-79" d="M 2059 -325 
Q 1816 -950 1584 -1140 
Q 1353 -1331 966 -1331 
L 506 -1331 
L 506 -850 
L 844 -850 
Q 1081 -850 1212 -737 
Q 1344 -625 1503 -206 
L 1606 56 
L 191 3500 
L 800 3500 
L 1894 763 
L 2988 3500 
L 3597 3500 
L 2059 -325 
z
" transform="scale(0.015625)"/>
       <path id="DejaVuSans-2212" d="M 678 2272 
L 4684 2272 
L 4684 1741 
L 678 1741 
L 678 2272 
z
" transform="scale(0.015625)"/>
      </defs>
      <use xlink:href="#DejaVuSans-49" transform="translate(0 0.684375)"/>
      <use xlink:href="#DejaVuSans-6e" transform="translate(29.492188 0.684375)"/>
      <use xlink:href="#DejaVuSans-74" transform="translate(92.871094 0.684375)"/>
      <use xlink:href="#DejaVuSans-65" transform="translate(132.080078 0.684375)"/>
      <use xlink:href="#DejaVuSans-6e" transform="translate(193.603516 0.684375)"/>
      <use xlink:href="#DejaVuSans-73" transform="translate(256.982422 0.684375)"/>
      <use xlink:href="#DejaVuSans-69" transform="translate(309.082031 0.684375)"/>
      <use xlink:href="#DejaVuSans-74" transform="translate(336.865234 0.684375)"/>
      <use xlink:href="#DejaVuSans-79" transform="translate(376.074219 0.684375)"/>
      <use xlink:href="#DejaVuSans-20" transform="translate(435.253906 0.684375)"/>
      <use xlink:href="#DejaVuSans-28" transform="translate(467.041016 0.684375)"/>
      <use xlink:href="#DejaVuSans-2218" transform="translate(507.011719 38.965625) scale(0.7)"/>
      <use xlink:href="#DejaVuSans-Oblique-43" transform="translate(553.564453 0.684375)"/>
      <use xlink:href="#DejaVuSans-2212" transform="translate(630.589193 38.965625) scale(0.7)"/>
      <use xlink:href="#DejaVuSans-31" transform="translate(689.241536 38.965625) scale(0.7)"/>
      <use xlink:href="#DejaVuSans-29" transform="translate(736.512044 0.684375)"/>
     </g>
    </g>
    <g id="text_17">
     <!-- 1e7 -->
     <g transform="translate(57.6 38.472) scale(0.1 -0.1)">
      <use xlink:href="#DejaVuSans-31"/>
      <use xlink:href="#DejaVuSans-65" transform="translate(63.623047 0)"/>
      <use xlink:href="#DejaVuSans-37" transform="translate(125.146484 0)"/>
     </g>
    </g>
   </g>
   <g id="line2d_15">
    <path d="M 73.832727 295.488 
L 128.022306 295.380767 
L 128.156228 295.377837 
L 129.032806 295.361815 
L 129.410222 295.349315 
L 135.501629 295.174178 
L 135.647725 295.164204 
L 135.988617 295.153183 
L 136.122539 295.155441 
L 136.126597 295.148774 
L 136.361974 295.14251 
L 136.495896 295.13708 
L 137.003175 295.121273 
L 137.12898 295.112913 
L 137.133039 295.115736 
L 138.577769 295.05888 
L 138.6914 295.048261 
L 138.695458 295.05353 
L 140.355275 294.984067 
L 140.493255 294.982454 
L 141.499697 294.937507 
L 141.641735 294.930733 
L 141.763482 294.923125 
L 142.144956 294.915087 
L 142.262644 294.898608 
L 142.368159 294.906834 
L 142.380333 294.898474 
L 143.062116 294.867318 
L 143.074291 294.881001 
L 143.208213 294.85971 
L 143.415183 294.862775 
L 143.553162 294.844656 
L 143.658676 294.854737 
L 143.670851 294.838876 
L 144.080733 294.819064 
L 144.194363 294.821053 
L 144.332343 294.817371 
L 144.636711 294.806053 
L 144.803098 294.793822 
L 144.924845 294.779547 
L 144.815273 294.802397 
L 144.928903 294.787908 
L 145.099349 294.781967 
L 145.21298 294.782531 
L 145.334727 294.767316 
L 145.444299 294.776617 
L 145.448357 294.767208 
L 145.635036 294.766536 
L 145.756783 294.750434 
L 146.000277 294.747988 
L 146.134198 294.732504 
L 146.251887 294.734036 
L 146.649594 294.714788 
L 146.763224 294.711052 
L 146.945845 294.699062 
L 147.059475 294.710917 
L 147.067592 294.697073 
L 147.440949 294.688255 
L 147.546463 294.673658 
L 147.55458 294.678336 
L 148.642186 294.629948 
L 148.751758 294.628066 
L 148.650302 294.620996 
L 148.755817 294.613254 
L 148.918146 294.617072 
L 149.352377 294.5982 
L 149.486298 294.590243 
L 149.490357 294.596292 
L 150.435925 294.554329 
L 150.569846 294.554248 
L 150.687535 294.525887 
L 150.695652 294.54199 
L 150.703768 294.533092 
L 150.825515 294.537366 
L 150.979728 294.528522 
L 150.995961 294.514892 
L 151.109591 294.525242 
L 151.223222 294.511075 
L 151.231338 294.515269 
L 151.369318 294.516263 
L 151.499182 294.504892 
L 151.515415 294.493951 
L 151.608754 294.508656 
L 151.734559 294.497822 
L 151.990228 294.47715 
L 152.087625 294.495806 
L 152.107917 294.479999 
L 152.229664 294.481021 
L 152.233722 294.477311 
L 152.367644 294.462741 
L 152.469099 294.469945 
L 152.477216 294.462499 
L 152.594905 294.450348 
L 152.761292 294.467526 
L 152.769409 294.45559 
L 152.915505 294.445321 
L 153.053485 294.449112 
L 153.167115 294.431638 
L 153.171174 294.435025 
L 153.288862 294.432364 
L 153.17929 294.423601 
L 153.292921 294.427794 
L 153.544531 294.419891 
L 153.686569 294.411235 
L 153.804258 294.415401 
L 153.930063 294.395616 
L 154.039635 294.410697 
L 154.043694 294.407417 
L 154.181673 294.390455 
L 154.270955 294.400616 
L 154.291246 294.386557 
L 155.97947 294.327201 
L 156.076868 294.327551 
L 155.991645 294.316099 
L 156.093101 294.3154 
L 156.450225 294.308975 
L 156.571972 294.297496 
L 156.718069 294.300722 
L 156.835758 294.287819 
L 156.843874 294.291878 
L 156.85199 294.30298 
L 157.006203 294.273437 
L 157.12795 294.290319 
L 157.310571 294.272066 
L 157.436376 294.277523 
L 157.550006 294.254969 
L 157.647404 294.272308 
L 157.663637 294.252307 
L 157.821908 294.254458 
L 157.976121 294.248141 
L 159.250406 294.20435 
L 159.359978 294.194645 
L 159.258522 294.220371 
L 159.364036 294.205129 
L 159.725219 294.179134 
L 159.834791 294.19521 
L 159.842908 294.186876 
L 159.972771 294.172655 
L 160.082344 294.185102 
L 160.09046 294.177145 
L 160.200032 294.158972 
L 160.110751 294.183704 
L 160.204091 294.162037 
L 160.325838 294.166258 
L 161.202416 294.138381 
L 161.324163 294.126633 
L 161.42156 294.138004 
L 161.441851 294.127413 
L 161.709695 294.123703 
L 161.8355 294.106498 
L 161.957247 294.107359 
L 162.164217 294.105638 
L 162.172333 294.090423 
L 162.285964 294.09967 
L 163.349221 294.07139 
L 163.454735 294.046659 
L 163.46691 294.064482 
L 163.617064 294.045395 
L 163.746928 294.055342 
L 163.755044 294.045368 
L 163.767219 294.060127 
L 163.909257 294.047895 
L 165.130785 294.007653 
L 165.232241 294.014965 
L 165.244415 294.009319 
L 165.455443 293.996577 
L 165.64618 293.992894 
L 165.735462 294.002572 
L 165.658355 293.98198 
L 165.759811 293.99362 
L 165.869383 293.98526 
L 165.8775 293.990798 
L 166.06012 293.980475 
L 166.068237 293.991497 
L 166.242741 293.978916 
L 166.510584 293.978647 
L 166.640447 293.959749 
L 166.766253 293.971416 
L 166.770311 293.965233 
L 167.054387 293.95655 
L 167.066562 293.948673 
L 167.180192 293.962007 
L 167.285706 293.941254 
L 167.301939 293.948404 
L 167.41557 293.959802 
L 167.314114 293.939399 
L 167.419628 293.942222 
L 167.723995 293.935017 
L 167.732112 293.943136 
L 167.857917 293.925017 
L 167.967489 293.936791 
L 167.971548 293.924345 
L 170.333439 293.875957 
L 170.414604 293.862758 
L 170.345614 293.880823 
L 170.447069 293.871575 
L 170.893475 293.857086 
L 170.994931 293.864371 
L 171.007106 293.850661 
L 171.11262 293.865392 
L 171.124794 293.85015 
L 171.412929 293.85093 
L 171.50221 293.831978 
L 171.534676 293.850231 
L 171.729471 293.842301 
L 171.839043 293.853887 
L 171.84716 293.845446 
L 171.972965 293.838107 
L 171.98514 293.848914 
L 172.151527 293.835284 
L 172.265158 293.840016 
L 172.179935 293.817166 
L 172.273274 293.830392 
L 172.281391 293.842596 
L 172.423429 293.830445 
L 172.606049 293.838833 
L 172.610107 293.827085 
L 172.683156 293.807811 
L 172.723738 293.822811 
L 173.052455 293.815418 
L 173.174202 293.821144 
L 173.17826 293.817676 
L 173.300007 293.800418 
L 173.405521 293.817569 
L 173.417696 293.807891 
L 173.559734 293.812918 
L 173.66119 293.784638 
L 173.677423 293.812811 
L 173.864101 293.797327 
L 173.973674 293.808994 
L 173.977732 293.807112 
L 174.107595 293.791574 
L 174.217168 293.803079 
L 174.225284 293.799235 
L 174.338915 293.787757 
L 174.342973 293.796036 
L 174.505302 293.792569 
L 174.590525 293.773832 
L 174.614874 293.794477 
L 174.793437 293.786601 
L 174.915184 293.779826 
L 175.004465 293.79359 
L 174.927358 293.768724 
L 175.028814 293.772057 
L 175.195202 293.793993 
L 175.284483 293.761439 
L 175.308832 293.773428 
L 175.414346 293.779907 
L 175.316949 293.768993 
L 175.422463 293.77566 
L 175.564501 293.764665 
L 175.690306 293.776385 
L 175.844519 293.755579 
L 175.937858 293.78195 
L 175.954091 293.774826 
L 176.075838 293.751412 
L 176.189469 293.771654 
L 176.083955 293.746304 
L 176.193527 293.764504 
L 176.907776 293.753562 
L 177.122862 293.751815 
L 177.232434 293.738965 
L 177.240551 293.751358 
L 177.47187 293.74617 
L 177.585501 293.734987 
L 177.589559 293.742111 
L 177.796529 293.749745 
L 177.914217 293.731223 
L 178.044081 293.750417 
L 178.084663 293.717836 
L 178.157711 293.739853 
L 178.242934 293.744449 
L 178.173944 293.727487 
L 178.267284 293.730417 
L 178.372798 293.727084 
L 178.283517 293.74453 
L 178.384972 293.73324 
L 178.506719 293.739879 
L 178.393089 293.727325 
L 178.514836 293.733616 
L 178.62035 293.718159 
L 178.52701 293.740686 
L 178.628466 293.727917 
L 183.827062 293.665819 
L 183.83112 293.701304 
L 183.936634 293.678481 
L 184.139546 293.684744 
L 184.143604 293.677701 
L 184.172012 293.693777 
L 184.261293 293.664152 
L 184.297817 293.655254 
L 184.374924 293.675308 
L 184.663058 293.67633 
L 184.764514 293.663534 
L 184.671175 293.680766 
L 184.776689 293.673588 
L 184.951193 293.68547 
L 184.955251 293.678749 
L 185.060765 293.663131 
L 185.068881 293.678239 
L 185.174395 293.684771 
L 185.085114 293.659636 
L 185.182512 293.664475 
L 185.320492 293.676196 
L 185.474705 293.653184 
L 185.588335 293.672432 
L 185.726315 293.66055 
L 185.848062 293.67754 
L 186.278235 293.670255 
L 186.306642 293.687298 
L 186.391865 293.659959 
L 186.51767 293.676868 
L 186.529845 293.662271 
L 186.838271 293.669421 
L 186.964076 293.658158 
L 187.097998 293.676895 
L 187.215686 293.642378 
L 187.333375 293.673454 
L 187.438889 293.653346 
L 187.447006 293.662271 
L 187.706733 293.661518 
L 187.731082 293.648776 
L 187.828479 293.676895 
L 187.938052 293.655604 
L 187.946168 293.662432 
L 188.071973 293.655496 
L 188.076032 293.660819 
L 188.205895 293.670228 
L 188.311409 293.64719 
L 188.327642 293.655685 
L 188.343875 293.649098 
L 188.445331 293.669045 
L 188.571136 293.650819 
L 188.688825 293.667647 
L 188.802455 293.673212 
L 188.810572 293.667002 
L 188.924202 293.65176 
L 188.928261 293.659744 
L 189.050007 293.664152 
L 189.163638 293.655953 
L 189.175813 293.645254 
L 189.285385 293.667835 
L 189.41119 293.654072 
L 189.975285 293.66754 
L 190.080799 293.650604 
L 190.088915 293.656706 
L 190.795047 293.652566 
L 190.872154 293.67219 
L 190.81128 293.649555 
L 190.908678 293.661921 
L 191.091298 293.673265 
L 191.217104 293.648211 
L 191.22522 293.657647 
L 191.253628 293.645631 
L 191.346967 293.668857 
L 191.468714 293.660416 
L 191.472772 293.662566 
L 191.606694 293.666142 
L 191.484947 293.650469 
L 191.610752 293.657513 
L 191.789314 293.654582 
L 191.911061 293.669771 
L 192.085565 293.663346 
L 192.195138 293.680094 
L 192.093682 293.656007 
L 192.211371 293.663238 
L 192.227604 293.669045 
L 192.325001 293.653803 
L 192.434573 293.666679 
L 192.438632 293.661195 
L 192.544146 293.670954 
L 192.458923 293.652486 
L 192.552262 293.652674 
L 192.799814 293.668669 
L 192.905328 293.656733 
L 192.816047 293.680147 
L 192.913445 293.666975 
L 193.03925 293.655147 
L 193.047367 293.664878 
L 193.071716 293.652835 
L 193.160997 293.665335 
L 193.266511 293.656572 
L 193.173172 293.671437 
L 193.278686 293.66348 
L 193.412607 293.669314 
L 193.538413 293.660013 
L 193.656101 293.681061 
L 193.765674 293.660281 
L 193.769732 293.667432 
L 193.891479 293.675093 
L 193.984818 293.642727 
L 193.899595 293.685631 
L 194.005109 293.664986 
L 194.147148 293.662109 
L 194.151206 293.665846 
L 194.281069 293.674421 
L 194.297302 293.681249 
L 194.3947 293.659421 
L 194.544854 293.682244 
L 194.548913 293.672808 
L 194.686892 293.660523 
L 194.690951 293.671061 
L 194.699067 293.656034 
L 194.820814 293.678964 
L 194.926328 293.661115 
L 194.938503 293.670201 
L 194.958794 293.657674 
L 195.06025 293.68012 
L 195.161706 293.657136 
L 195.072425 293.685443 
L 195.169822 293.683561 
L 195.271278 293.691008 
L 195.181997 293.668964 
L 195.283453 293.679314 
L 195.401141 293.660577 
L 195.4052 293.664771 
L 195.51883 293.682782 
L 195.664927 293.665497 
L 195.668985 293.671921 
L 195.677101 293.6609 
L 195.786674 293.677271 
L 195.928712 293.682943 
L 196.050459 293.661679 
L 196.164089 293.688373 
L 196.310186 293.663158 
L 196.318302 293.680685 
L 203.436442 293.716707 
L 203.529781 293.747084 
L 203.550072 293.738347 
L 203.675878 293.727594 
L 203.78545 293.741761 
L 203.793566 293.734154 
L 203.988361 293.728965 
L 203.99242 293.743213 
L 204.134458 293.754503 
L 204.138516 293.735766 
L 204.150691 293.747138 
L 204.252147 293.730713 
L 204.365777 293.759369 
L 204.479408 293.733266 
L 204.649853 293.759745 
L 204.763484 293.735148 
L 204.7716 293.743885 
L 204.885231 293.759208 
L 204.889289 293.745041 
L 206.183865 293.768751 
L 206.273146 293.752138 
L 206.220389 293.776278 
L 206.293438 293.764262 
L 206.435476 293.77195 
L 206.549106 293.758912 
L 206.557223 293.766842 
L 206.662737 293.755444 
L 206.674911 293.772031 
L 206.695203 293.756735 
L 206.788542 293.775041 
L 206.88594 293.752675 
L 206.902172 293.774289 
L 211.772052 293.83515 
L 211.885682 293.827381 
L 212.003371 293.847354 
L 212.112943 293.835956 
L 212.117001 293.844827 
L 212.267156 293.842704 
L 212.413252 293.857838 
L 212.41731 293.847139 
L 212.547174 293.836843 
L 212.551232 293.848376 
L 212.664863 293.859774 
L 212.559349 293.84429 
L 212.672979 293.851548 
L 212.782551 293.831118 
L 212.790668 293.852704 
L 212.944881 293.86472 
L 212.806901 293.833429 
L 212.948939 293.857677 
L 213.062569 293.844989 
L 213.135618 293.870231 
L 213.1762 293.859962 
L 213.188375 293.848967 
L 213.302005 293.861898 
L 213.655071 293.850661 
L 213.748411 293.878484 
L 213.768702 293.866817 
L 213.886391 293.858027 
L 213.987846 293.873457 
L 213.902624 293.849612 
L 214.000021 293.859236 
L 214.129885 293.875796 
L 214.219166 293.851736 
L 214.243515 293.866253 
L 214.397728 293.882516 
L 214.5073 293.869021 
L 214.405844 293.887248 
L 214.511358 293.883081 
L 214.771085 293.883565 
L 215.525917 293.88464 
L 215.696362 293.892006 
L 215.814051 293.902275 
L 215.708537 293.884559 
L 215.822168 293.89792 
L 216.244224 293.908081 
L 216.41467 293.914291 
L 216.25234 293.893887 
L 216.418728 293.908753 
L 216.605406 293.905635 
L 216.80426 293.918565 
L 217.047754 293.89843 
L 217.145151 293.927651 
L 217.161384 293.91956 
L 217.28719 293.910259 
L 217.169501 293.926495 
L 217.291248 293.915904 
L 217.46981 293.912275 
L 217.575324 293.938969 
L 217.587499 293.926119 
L 217.733595 293.916038 
L 217.851284 293.931576 
L 219.003822 293.942813 
L 219.040346 293.92784 
L 219.117452 293.951281 
L 219.304131 293.951066 
L 219.308189 293.942625 
L 219.413703 293.93413 
L 219.336597 293.961254 
L 219.417762 293.956792 
L 219.531392 293.958996 
L 219.53545 293.953136 
L 219.543567 293.960851 
L 219.649081 293.939668 
L 219.74242 293.967141 
L 219.762711 293.955421 
L 219.916924 293.968835 
L 219.925041 293.957679 
L 220.111719 293.953593 
L 220.184768 293.986416 
L 220.22535 293.969077 
L 220.424203 293.970421 
L 220.448553 293.980878 
L 220.541892 293.971711 
L 220.667697 293.969265 
L 220.781328 293.982948 
L 221.061346 293.972437 
L 221.179035 293.996147 
L 221.300782 293.97155 
L 221.30484 293.976684 
L 221.422529 293.987679 
L 221.560508 293.98526 
L 221.824294 293.977948 
L 221.828352 293.987975 
L 221.933866 293.999615 
L 221.836468 293.972464 
L 221.941982 293.996631 
L 222.055613 293.985529 
L 222.17736 294.002599 
L 222.286932 293.992787 
L 222.29099 294.004696 
L 222.473611 293.999507 
L 222.611591 294.01061 
L 222.741454 294.001389 
L 222.940307 294.011766 
L 223.053938 294.003674 
L 223.18786 294.02026 
L 223.30149 294.007223 
L 223.415121 294.027492 
L 223.532809 294.016363 
L 223.650498 294.02846 
L 223.654556 294.020153 
L 223.914283 294.021551 
L 224.031972 294.029481 
L 224.291699 294.044105 
L 224.405329 294.031094 
L 224.689406 294.044992 
L 224.697522 294.05053 
L 224.811153 294.035341 
L 225.030297 294.057896 
L 225.13987 294.03518 
L 225.143928 294.04717 
L 226.170661 294.067439 
L 226.30864 294.069777 
L 226.560251 294.07967 
L 226.673881 294.065906 
L 226.783454 294.081874 
L 226.79157 294.073326 
L 227.06753 294.075665 
L 227.168986 294.095342 
L 227.083763 294.069132 
L 227.185219 294.084428 
L 227.201452 294.094186 
L 227.298849 294.081202 
L 228.199777 294.099751 
L 228.333699 294.112224 
L 228.211952 294.080477 
L 228.341815 294.102278 
L 228.451387 294.09088 
L 228.471678 294.11045 
L 228.780104 294.106122 
L 228.800395 294.115638 
L 228.889676 294.108004 
L 228.901851 294.101337 
L 229.011423 294.11959 
L 229.145345 294.112197 
L 229.246801 294.129752 
L 229.15752 294.105611 
L 229.258976 294.122198 
L 229.36449 294.101256 
L 229.380723 294.120988 
L 229.620158 294.12994 
L 229.729731 294.118811 
L 229.733789 294.121687 
L 229.839303 294.137547 
L 229.855536 294.122628 
L 230.021923 294.138273 
L 230.025982 294.131606 
L 230.176136 294.128891 
L 230.293825 294.145263 
L 230.395281 294.131956 
L 230.407455 294.135316 
L 230.55761 294.142843 
L 230.683415 294.138676 
L 231.527528 294.169134 
L 231.616809 294.145746 
L 231.6371 294.161177 
L 231.783196 294.169376 
L 231.787254 294.165317 
L 231.900885 294.161876 
L 231.904943 294.168435 
L 232.059156 294.162037 
L 232.176845 294.179 
L 232.282359 294.160317 
L 232.290475 294.168516 
L 232.400048 294.184484 
L 232.412222 294.176392 
L 232.590784 294.166419 
L 232.667891 294.188435 
L 232.615134 294.158032 
L 232.704415 294.173785 
L 232.895152 294.177736 
L 233.012841 294.19322 
L 233.020957 294.188086 
L 233.162995 294.180666 
L 233.2888 294.194995 
L 233.296917 294.189699 
L 233.422722 294.185882 
L 233.42678 294.190908 
L 233.434897 294.177494 
L 233.63375 294.196446 
L 235.687216 294.230829 
L 235.796788 294.22642 
L 235.804905 294.233436 
L 239.964593 294.304324 
L 240.033583 294.318303 
L 239.976768 294.299943 
L 240.078224 294.30169 
L 240.220262 294.311556 
L 240.317659 294.301475 
L 240.333892 294.309539 
L 240.455639 294.322228 
L 240.463756 294.310212 
L 240.557095 294.306824 
L 240.471872 294.316153 
L 240.577386 294.312873 
L 240.678842 294.301959 
L 240.699133 294.319943 
L 240.885812 294.313921 
L 241.07249 294.318249 
L 241.194237 294.328142 
L 241.315984 294.324056 
L 241.324101 294.330266 
L 241.352509 294.311394 
L 241.449906 294.333975 
L 243.872671 294.369863 
L 243.974127 294.377068 
L 243.986301 294.371718 
L 244.412416 294.382713 
L 244.534163 294.39188 
L 244.647793 294.374352 
L 244.773599 294.388385 
L 244.903462 294.380025 
L 245.021151 294.396907 
L 245.029267 294.390105 
L 245.167247 294.396234 
L 245.276819 294.381879 
L 245.179422 294.399729 
L 245.280878 294.392713 
L 245.495964 294.389783 
L 245.593362 294.407579 
L 245.605536 294.38825 
L 245.978894 294.402283 
L 246.137165 294.398331 
L 246.283261 294.410025 
L 246.624153 294.420966 
L 246.72155 294.426638 
L 246.640386 294.408654 
L 246.733725 294.417848 
L 246.855472 294.413224 
L 246.85953 294.422256 
L 247.082733 294.416907 
L 247.196363 294.426934 
L 247.20448 294.423117 
L 247.330285 294.4268 
L 247.439857 294.434945 
L 247.338402 294.422149 
L 247.447974 294.429945 
L 247.711759 294.424407 
L 247.817273 294.44473 
L 247.829448 294.439891 
L 248.068883 294.442149 
L 248.182514 294.43438 
L 248.186572 294.44223 
L 249.160548 294.455053 
L 249.282295 294.467768 
L 249.391867 294.454381 
L 249.404042 294.464542 
L 249.537964 294.464596 
L 249.761166 294.466773 
L 249.947845 294.465349 
L 250.077709 294.47637 
L 250.203514 294.469596 
L 250.21163 294.47508 
L 251.769991 294.493037 
L 251.88768 294.500134 
L 252.009427 294.503683 
L 252.139291 294.502204 
L 252.261038 294.503467 
L 252.480182 294.505726 
L 252.597871 294.518844 
L 252.492357 294.497742 
L 252.601929 294.51672 
L 252.711501 294.504489 
L 252.71556 294.518602 
L 252.959054 294.525645 
L 253.080801 294.512312 
L 253.239072 294.524704 
L 253.551556 294.525941 
L 253.673303 294.535941 
L 253.677361 294.526747 
L 254.265805 294.532688 
L 254.387551 294.544543 
L 254.594521 294.538925 
L 263.449585 294.672153 
L 263.555099 294.666669 
L 263.461759 294.677986 
L 263.559157 294.673497 
L 263.672788 294.679062 
L 263.579448 294.663873 
L 263.680904 294.672933 
L 263.794535 294.666777 
L 263.68902 294.679062 
L 263.802651 294.676212 
L 264.042087 294.672664 
L 264.159775 294.682718 
L 264.273406 294.674142 
L 264.395153 294.687691 
L 264.500667 294.676185 
L 264.512842 294.685406 
L 264.520958 294.680809 
L 264.626472 294.690594 
L 264.760394 294.679519 
L 264.943014 294.695325 
L 265.080994 294.692933 
L 265.210858 294.70132 
L 265.336663 294.694358 
L 265.539575 294.703148 
L 265.98598 294.713229 
L 266.761103 294.719869 
L 266.862558 294.71546 
L 266.769219 294.724251 
L 266.874733 294.719197 
L 267.061412 294.713901 
L 267.166926 294.730353 
L 267.1791 294.72124 
L 268.218008 294.744224 
L 268.32758 294.730003 
L 268.335697 294.737235 
L 268.571074 294.733848 
L 268.688763 294.744117 
L 268.692821 294.738686 
L 269.167634 294.747181 
L 269.321847 294.75116 
L 269.451711 294.757585 
L 269.585632 294.753687 
L 269.711438 294.759762 
L 269.853476 294.757154 
L 269.975223 294.763069 
L 269.861592 294.75038 
L 269.979281 294.758445 
L 270.133494 294.764144 
L 270.14161 294.768499 
L 270.255241 294.757611 
L 270.425687 294.770381 
L 270.441919 294.780085 
L 270.55555 294.763875 
L 270.880209 294.764708 
L 271.001956 294.767182 
L 271.314439 294.781375 
L 271.440245 294.775676 
L 271.545759 294.782719 
L 271.553875 294.772477 
L 271.793311 294.785676 
L 271.947524 294.782316 
L 272.126086 294.790435 
L 272.268124 294.788418 
L 272.41422 294.796644 
L 272.276241 294.781026 
L 272.418279 294.792451 
L 272.544084 294.784064 
L 272.548142 294.791187 
L 272.884975 294.800838 
L 273.022955 294.79565 
L 273.177168 294.804682 
L 273.181226 294.798634 
L 273.469361 294.806833 
L 273.58705 294.802505 
L 273.810252 294.810516 
L 273.927941 294.799064 
L 273.931999 294.802881 
L 274.057805 294.815139 
L 274.244483 294.811483 
L 274.2526 294.806618 
L 274.370289 294.816994 
L 274.617841 294.817854 
L 274.910033 294.820139 
L 275.048013 294.816457 
L 275.052072 294.820543 
L 275.344264 294.821967 
L 275.482244 294.836806 
L 275.490361 294.821 
L 275.689214 294.82979 
L 275.888068 294.835919 
L 276.050397 294.828446 
L 276.176202 294.834951 
L 276.488686 294.83893 
L 276.602316 294.831645 
L 276.610433 294.839737 
L 276.752471 294.849656 
L 276.874218 294.838984 
L 276.878276 294.84229 
L 277.332798 294.844844 
L 277.458604 294.853635 
L 277.677748 294.853984 
L 277.81167 294.856968 
L 278.071397 294.865113 
L 278.193144 294.853097 
L 278.335182 294.863016 
L 278.619258 294.858097 
L 278.741005 294.862882 
L 279.175236 294.868957 
L 279.382206 294.875759 
L 279.495836 294.864844 
L 279.613525 294.878366 
L 279.76368 294.87471 
L 280.230376 294.885947 
L 280.465754 294.884603 
L 280.652433 294.890409 
L 280.774179 294.881968 
L 281.033906 294.891189 
L 281.192177 294.890329 
L 281.354507 294.895598 
L 281.679165 294.893823 
L 281.800912 294.898232 
L 282.466462 294.910679 
L 282.576035 294.905652 
L 282.474579 294.913313 
L 282.580093 294.912184 
L 282.730248 294.90377 
L 282.843878 294.920571 
L 282.851995 294.914953 
L 282.9778 294.910006 
L 283.168537 294.917587 
L 283.294342 294.910759 
L 283.610884 294.922507 
L 283.797563 294.922211 
L 283.947717 294.919415 
L 284.085697 294.93119 
L 284.093814 294.923098 
L 284.272376 294.927238 
L 290.729024 294.981701 
L 290.842654 294.989793 
L 290.984693 294.98732 
L 291.167313 294.996271 
L 291.293118 294.989685 
L 291.406749 294.99896 
L 291.410807 294.991218 
L 291.694883 294.992239 
L 291.824747 294.997804 
L 292.697267 295.007831 
L 292.847421 295.0081 
L 292.977285 295.00361 
L 293.638777 295.01896 
L 293.910678 295.020465 
L 294.036483 295.013987 
L 294.040542 295.016702 
L 294.43419 295.027401 
L 294.547821 295.01861 
L 294.551879 295.02396 
L 294.730441 295.028664 
L 294.734499 295.019175 
L 295.095682 295.027697 
L 295.229604 295.026917 
L 296.658102 295.038691 
L 296.796082 295.041541 
L 296.921887 295.041353 
L 297.0761 295.0431 
L 297.279011 295.045761 
L 297.408875 295.048907 
L 297.692951 295.046917 
L 297.839047 295.055116 
L 297.960794 295.048315 
L 297.964853 295.052885 
L 298.115007 295.055331 
L 298.252987 295.053772 
L 298.443724 295.064794 
L 298.533005 295.048423 
L 298.557355 295.064471 
L 298.679101 295.052186 
L 298.79679 295.062267 
L 298.914479 295.050036 
L 299.044342 295.059901 
L 299.166089 295.061514 
L 299.332477 295.066595 
L 299.608437 295.064552 
L 300.168473 295.070009 
L 300.322686 295.070063 
L 302.688635 295.089257 
L 302.818499 295.088477 
L 302.842848 295.077697 
L 302.936187 295.091031 
L 303.15939 295.088101 
L 303.29737 295.096031 
L 303.301428 295.091246 
L 303.626087 295.095628 
L 303.75595 295.094445 
L 304.121191 295.097913 
L 304.295695 295.094714 
L 304.669053 295.100924 
L 304.807033 295.099875 
L 304.957187 295.105924 
L 305.1114 295.105198 
L 305.468525 295.109929 
L 305.898697 295.108128 
L 306.048852 295.116811 
L 306.19089 295.115924 
L 306.645412 295.1213 
L 306.767159 295.115709 
L 306.876731 295.121381 
L 306.880789 295.11915 
L 307.323137 295.13079 
L 307.440826 295.12122 
L 307.639679 295.120843 
L 308.203773 295.129822 
L 308.382336 295.130575 
L 308.53249 295.131999 
L 308.723227 295.133424 
L 309.043827 295.130145 
L 309.181807 295.142403 
L 309.29138 295.133182 
L 309.299496 295.13665 
L 309.457767 295.136516 
L 309.620096 295.142349 
L 309.758076 295.133639 
L 309.762135 295.137752 
L 309.908231 295.143209 
L 310.02592 295.140871 
L 310.176074 295.146731 
L 310.334345 295.14536 
L 310.594072 295.142806 
L 310.8051 295.143935 
L 311.117584 295.146005 
L 311.259622 295.149769 
L 311.515291 295.150736 
L 311.673562 295.147349 
L 311.791251 295.156032 
L 311.795309 295.153263 
L 311.949522 295.150656 
L 312.083444 295.156973 
L 312.326938 295.155817 
L 312.716528 295.159876 
L 312.854508 295.161247 
L 313.012779 295.156516 
L 313.142642 295.164984 
L 313.280622 295.155011 
L 313.402369 295.160091 
L 313.808192 295.163667 
L 313.994871 295.166892 
L 314.116618 295.157107 
L 314.120676 295.170522 
L 316.222841 295.178022 
L 316.352704 295.184796 
L 316.506917 295.177968 
L 316.709829 295.185011 
L 317.911066 295.191006 
L 318.122094 295.190871 
L 318.402112 295.190952 
L 318.771411 295.195361 
L 319.542475 295.19864 
L 319.66828 295.201597 
L 319.846842 295.200522 
L 319.980764 295.20356 
L 320.130919 295.197673 
L 320.277015 295.201221 
L 320.516451 295.200522 
L 320.642256 295.207054 
L 320.893866 295.202915 
L 323.568242 295.218506 
L 323.698105 295.224178 
L 323.896959 295.222216 
L 324.266258 295.221087 
L 324.420471 295.230523 
L 324.534101 295.222915 
L 324.546276 295.230012 
L 324.700489 295.22598 
L 324.895284 295.229985 
L 325.057613 295.222431 
L 325.240234 295.228748 
L 325.43097 295.229259 
L 325.585183 295.231786 
L 326.51046 295.236195 
L 326.636265 295.236732 
L 328.064763 295.239125 
L 328.206801 295.246517 
L 328.474645 295.239367 
L 328.604508 295.246276 
L 328.827711 295.247915 
L 329.241651 295.24805 
L 329.477028 295.252593 
L 329.631241 295.249475 
L 330.280558 295.252942 
L 330.422596 295.255362 
L 330.726964 295.251195 
L 330.856827 295.257942 
L 330.860886 295.254421 
L 331.059739 295.258399 
L 331.972841 295.261114 
L 332.540994 295.268561 
L 332.662741 295.264475 
L 332.865652 295.26641 
L 333.003632 295.262969 
L 333.153787 295.26512 
L 333.65295 295.266867 
L 338.498479 295.29297 
L 338.616168 295.284018 
L 338.620226 295.288857 
L 338.936768 295.287486 
L 339.894511 295.291518 
L 340.028433 295.29297 
L 341.956093 295.298965 
L 342.085957 295.301814 
L 343.100515 295.301707 
L 343.258786 295.307943 
L 343.392708 295.305255 
L 344.021734 295.305846 
L 344.326101 295.308965 
L 344.853671 295.309072 
L 345.275728 295.310094 
L 345.409649 295.312379 
L 351.97587 295.335524 
L 352.243713 295.334342 
L 352.588663 295.336223 
L 352.771283 295.335928 
L 353.830482 295.339422 
L 354.025277 295.340121 
L 354.325586 295.344449 
L 354.475741 295.337863 
L 354.670536 295.343777 
L 354.824749 295.340713 
L 355.003311 295.343132 
L 355.177815 295.344906 
L 355.78655 295.341385 
L 355.928588 295.345928 
L 356.099034 295.345175 
L 362.437993 295.36289 
L 362.620613 295.361869 
L 364.527983 295.364772 
L 364.78771 295.366493 
L 365.124543 295.367487 
L 365.294989 295.365417 
L 365.506017 295.367622 
L 365.899665 295.367595 
L 366.037645 295.372084 
L 366.199975 295.368159 
L 366.333896 295.370122 
L 398.487273 295.424585 
L 398.487273 295.424585 
" clip-path="url(#pab8d5911cb)" style="fill: none; stroke-dasharray: 1.85,0.8; stroke-dashoffset: 0; stroke: #8000ff; stroke-width: 0.5"/>
   </g>
   <g id="line2d_16">
    <path d="M 73.832727 295.488 
L 127.488598 295.37738 
L 136.823583 294.840543 
L 137.554147 294.749627 
L 137.960016 294.712207 
L 138.771754 294.602878 
L 146.320916 293.099304 
L 146.726784 292.996614 
L 147.335588 292.842042 
L 147.660283 292.741422 
L 147.863217 292.691475 
L 149.933149 292.107836 
L 150.095496 292.07297 
L 150.460779 291.951839 
L 150.866647 291.84888 
L 151.110169 291.759954 
L 151.475451 291.653554 
L 151.840733 291.559359 
L 152.408949 291.36527 
L 152.611884 291.329355 
L 152.855405 291.232822 
L 153.342448 291.094217 
L 153.626556 291.000237 
L 154.032425 290.867789 
L 154.844163 290.616306 
L 155.047097 290.545928 
L 155.615314 290.354662 
L 158.659331 289.367145 
L 159.105786 289.232493 
L 159.511655 289.122141 
L 159.71459 289.04136 
L 160.120459 288.923509 
L 160.323393 288.813561 
L 160.648088 288.755791 
L 160.810436 288.653155 
L 160.932197 288.659526 
L 161.338065 288.5049 
L 164.787951 287.40679 
L 165.072059 287.305713 
L 165.315581 287.259503 
L 165.599689 287.155254 
L 166.654948 286.843098 
L 166.89847 286.741268 
L 167.101404 286.702907 
L 167.385512 286.602717 
L 168.684293 286.216905 
L 168.887227 286.126742 
L 169.130749 286.10158 
L 169.37427 285.989266 
L 169.617791 285.94569 
L 170.835398 285.58883 
L 171.038333 285.521329 
L 172.621221 285.06495 
L 172.742982 285.053794 
L 174.407045 284.603786 
L 174.569392 284.571393 
L 174.73174 284.501876 
L 175.015848 284.463811 
L 175.178195 284.398702 
L 175.462304 284.33276 
L 175.624651 284.279883 
L 178.628081 283.544978 
L 178.749842 283.515892 
L 179.723927 283.300324 
L 179.886275 283.273952 
L 180.251557 283.195698 
L 180.819773 283.044325 
L 180.941534 283.045454 
L 185.893135 282.055733 
L 186.096069 282.077212 
L 186.339591 281.991108 
L 187.029568 281.851294 
L 187.191915 281.876779 
L 187.476024 281.781266 
L 188.247175 281.705647 
L 188.409522 281.629355 
L 188.57187 281.652393 
L 188.774804 281.606451 
L 189.099499 281.550321 
L 189.545955 281.48489 
L 189.789476 281.48032 
L 191.412952 281.22709 
L 191.453539 281.262897 
L 191.494126 281.194536 
L 191.981169 281.122384 
L 192.184103 281.145637 
L 193.198775 280.996979 
L 193.320536 281.013108 
L 193.52347 280.982489 
L 194.741077 280.835417 
L 194.903425 280.831519 
L 195.065772 280.787701 
L 195.349881 280.79633 
L 195.512228 280.766599 
L 195.674576 280.742674 
L 195.836923 280.73098 
L 195.999271 280.745926 
L 196.283379 280.667672 
L 199.692678 280.408152 
L 199.855026 280.42127 
L 202.046718 280.255918 
L 202.168478 280.29229 
L 202.452587 280.255757 
L 203.101977 280.242101 
L 203.304911 280.233767 
L 203.954302 280.19175 
L 204.23841 280.157422 
L 204.319584 280.212584 
L 204.36017 280.171347 
L 205.131321 280.168874 
L 205.374843 280.146615 
L 206.633036 280.11105 
L 206.835971 280.145406 
L 206.998318 280.135405 
L 207.323014 280.141024 
L 207.404187 280.096803 
L 207.444774 280.149787 
L 207.647709 280.104088 
L 208.662381 280.093792 
L 208.946489 280.086614 
L 210.164096 280.070324 
L 210.285857 280.080297 
L 210.407617 280.113765 
L 210.691726 280.092367 
L 210.854073 280.075324 
L 211.016421 280.105996 
L 211.138181 280.111588 
L 212.518136 280.09191 
L 212.680483 280.14261 
L 212.883418 280.088899 
L 213.005178 280.149707 
L 213.167526 280.131642 
L 213.329874 280.152637 
L 213.451634 280.15054 
L 213.654569 280.143685 
L 213.735742 280.119061 
L 213.776329 280.173524 
L 214.101024 280.129895 
L 214.303959 280.137798 
L 214.912762 280.144438 
L 215.115697 280.176347 
L 215.318631 280.176992 
L 215.683913 280.196482 
L 215.886848 280.190353 
L 218.768517 280.333366 
L 218.849691 280.314844 
L 219.012038 280.307747 
L 221.08197 280.425464 
L 221.20373 280.468664 
L 221.366078 280.473045 
L 221.893708 280.469309 
L 222.015468 280.522347 
L 222.177816 280.478744 
L 222.90838 280.534095 
L 223.314249 280.563638 
L 223.963639 280.585924 
L 224.0854 280.592322 
L 224.247747 280.607053 
L 224.572442 280.630656 
L 224.653616 280.695065 
L 224.694203 280.649823 
L 224.897138 280.673479 
L 225.26242 280.703184 
L 225.505941 280.751706 
L 225.627702 280.748991 
L 226.480026 280.821008 
L 226.601787 280.773373 
L 226.804721 280.834396 
L 227.413525 280.848482 
L 227.819394 280.932919 
L 227.859981 280.855229 
L 227.941154 280.918725 
L 230.416955 281.127976 
L 230.498129 281.149831 
L 230.538716 281.0844 
L 230.619889 281.141578 
L 232.527473 281.321689 
L 232.892755 281.353625 
L 233.014516 281.362684 
L 235.693251 281.620995 
L 235.815011 281.626317 
L 236.09912 281.663038 
L 236.423815 281.656022 
L 236.586162 281.74468 
L 236.707923 281.751024 
L 238.656094 281.928204 
L 238.899615 281.97842 
L 239.021376 281.960086 
L 239.264897 281.997453 
L 240.036048 282.067857 
L 240.644852 282.162563 
L 240.807199 282.141111 
L 241.010134 282.211273 
L 241.131894 282.184015 
L 241.375416 282.238854 
L 241.416002 282.165493 
L 241.456589 282.222537 
L 241.740698 282.301947 
L 242.552435 282.333668 
L 242.795957 282.382325 
L 243.485934 282.456681 
L 243.891803 282.508106 
L 244.094737 282.518456 
L 244.378846 282.552381 
L 244.662954 282.612678 
L 244.987649 282.64499 
L 245.637039 282.713862 
L 246.124082 282.779401 
L 246.286429 282.771686 
L 246.448777 282.782009 
L 247.219928 282.88365 
L 247.382276 282.930344 
L 248.681056 283.110804 
L 248.802817 283.064863 
L 249.046338 283.155698 
L 249.208686 283.117633 
L 249.533381 283.153601 
L 249.898663 283.230323 
L 250.223358 283.25285 
L 250.466879 283.299921 
L 251.928007 283.465434 
L 252.130942 283.504924 
L 252.374463 283.489735 
L 252.536811 283.552774 
L 252.699158 283.550758 
L 252.902093 283.591135 
L 253.267375 283.606189 
L 253.470309 283.67611 
L 253.754417 283.681943 
L 254.444395 283.763853 
L 254.728503 283.780009 
L 254.931437 283.818719 
L 255.215546 283.850682 
L 255.743175 283.90528 
L 255.94611 283.937834 
L 256.189631 283.989986 
L 256.717261 284.023911 
L 256.879608 284.071439 
L 257.285477 284.09738 
L 257.447825 284.138698 
L 257.731933 284.163295 
L 258.503084 284.279265 
L 258.665431 284.293082 
L 258.868366 284.317007 
L 259.436582 284.378863 
L 259.964212 284.407009 
L 260.126559 284.445907 
L 261.060058 284.60048 
L 261.222406 284.596985 
L 261.547101 284.649862 
L 261.668861 284.635104 
L 261.831209 284.658599 
L 262.237078 284.732955 
L 262.886468 284.761128 
L 263.008229 284.820752 
L 263.170576 284.810456 
L 263.373511 284.84543 
L 263.617032 284.876479 
L 263.77938 284.914705 
L 264.022901 284.93976 
L 264.185249 284.957556 
L 264.347596 284.949491 
L 264.509944 285.006105 
L 264.834639 285.034869 
L 265.402855 285.110515 
L 265.849311 285.161699 
L 266.214593 285.239899 
L 266.336354 285.218313 
L 266.863983 285.306943 
L 267.066918 285.268206 
L 267.269852 285.340895 
L 267.594548 285.341541 
L 268.568633 285.508344 
L 268.690394 285.50399 
L 268.852741 285.52063 
L 269.461545 285.586598 
L 269.664479 285.644341 
L 269.826827 285.637433 
L 270.800912 285.737972 
L 271.450302 285.845716 
L 271.774997 285.869936 
L 271.937345 285.880636 
L 272.221453 285.95639 
L 272.343214 285.952922 
L 272.708496 286.009267 
L 272.91143 286.002439 
L 273.317299 286.085881 
L 273.479647 286.088112 
L 274.08845 286.150237 
L 274.859601 286.229808 
L 275.103122 286.259755 
L 275.427818 286.307471 
L 275.874273 286.334165 
L 276.117795 286.385375 
L 276.604837 286.45164 
L 277.213641 286.515243 
L 277.335401 286.504786 
L 277.822444 286.580835 
L 278.91829 286.728741 
L 279.040051 286.713821 
L 279.242985 286.714789 
L 279.608267 286.76057 
L 280.135897 286.849093 
L 284.113412 287.271438 
L 284.316347 287.294423 
L 284.559868 287.342595 
L 284.681629 287.335552 
L 286.10217 287.476361 
L 286.426865 287.530717 
L 286.589213 287.535663 
L 287.360364 287.649859 
L 287.522711 287.637385 
L 287.766233 287.661391 
L 288.009754 287.695289 
L 288.375036 287.784269 
L 288.496797 287.739833 
L 288.902666 287.790184 
L 289.186774 287.811716 
L 289.592643 287.860131 
L 290.444967 287.96395 
L 290.566728 287.960482 
L 291.419053 288.051908 
L 291.662574 288.048656 
L 291.946682 288.088387 
L 293.367224 288.270218 
L 293.488984 288.250568 
L 293.93544 288.304117 
L 294.828352 288.352101 
L 294.990699 288.417909 
L 295.477742 288.452426 
L 295.802437 288.495975 
L 296.086545 288.506163 
L 296.330067 288.547938 
L 296.735936 288.570277 
L 296.979457 288.594014 
L 298.684106 288.769151 
L 299.29291 288.829018 
L 299.495844 288.841948 
L 301.565776 289.018591 
L 301.931058 289.044721 
L 302.133992 289.068458 
L 303.838642 289.242493 
L 304.000989 289.246659 
L 306.314442 289.45634 
L 306.59855 289.468599 
L 307.085593 289.524164 
L 308.181439 289.627203 
L 309.114938 289.689301 
L 309.399046 289.714328 
L 309.642567 289.733361 
L 309.926675 289.753818 
L 310.089023 289.789303 
L 310.454305 289.813067 
L 310.576066 289.821535 
L 311.022521 289.851051 
L 311.225456 289.859949 
L 311.590738 289.903391 
L 312.158954 289.941268 
L 312.564823 289.970085 
L 318.896378 290.476841 
L 319.099313 290.497325 
L 319.26166 290.494718 
L 345.196684 292.10418 
L 345.399619 292.117809 
L 346.454878 292.189155 
L 346.82016 292.183079 
L 347.023094 292.214935 
L 347.266616 292.220096 
L 347.794245 292.248188 
L 348.484222 292.2805 
L 348.768331 292.294049 
L 349.1742 292.307409 
L 349.783003 292.352464 
L 350.107698 292.358566 
L 350.594741 292.38569 
L 351.00061 292.412949 
L 351.406479 292.420368 
L 351.812347 292.434051 
L 352.989367 292.49959 
L 353.354649 292.503622 
L 353.719931 292.521176 
L 354.572256 292.565881 
L 356.885709 292.667281 
L 357.048056 292.672281 
L 357.413338 292.693948 
L 358.30625 292.728787 
L 365.733651 293.031534 
L 366.058346 293.028497 
L 366.342455 293.043819 
L 367.194779 293.074304 
L 367.96593 293.104842 
L 368.412386 293.129305 
L 369.954688 293.180784 
L 370.360557 293.170784 
L 370.604078 293.214656 
L 370.807013 293.205112 
L 371.172295 293.230435 
L 371.862272 293.238178 
L 372.268141 293.257828 
L 372.714597 293.27256 
L 373.039292 293.288931 
L 374.703354 293.329926 
L 376.813873 293.407213 
L 377.016807 293.428691 
L 377.50385 293.429955 
L 381.603126 293.549876 
L 382.049582 293.570145 
L 382.820733 293.588318 
L 383.348362 293.615173 
L 383.63247 293.61942 
L 386.230031 293.691008 
L 386.6359 293.70125 
L 388.705832 293.756358 
L 397.35084 293.966711 
L 397.634948 293.972222 
L 398.487273 294.006174 
L 398.487273 294.006174 
" clip-path="url(#pab8d5911cb)" style="fill: none; stroke-dasharray: 1.85,0.8; stroke-dashoffset: 0; stroke: #00b5eb; stroke-width: 0.5"/>
   </g>
   <g id="line2d_17">
    <path d="M 73.832727 295.488 
L 127.231192 295.380686 
L 135.96174 294.886861 
L 140.631567 294.111821 
L 144.286215 292.969678 
L 147.128719 291.629952 
L 150.174259 289.674919 
L 151.392475 288.72778 
L 154.234979 286.179565 
L 158.904806 281.185745 
L 166.214102 272.077932 
L 166.82321 271.296038 
L 168.650534 268.943445 
L 169.259642 268.119856 
L 173.117326 263.087487 
L 173.726434 262.329625 
L 175.350721 260.217009 
L 176.771973 258.442786 
L 178.396261 256.420171 
L 179.005369 255.691718 
L 181.238765 253.026163 
L 181.644837 252.553548 
L 182.253945 251.889316 
L 182.863053 251.168982 
L 183.269125 250.759916 
L 184.081269 249.794604 
L 185.705557 248.031349 
L 186.517701 247.169856 
L 188.548061 245.131354 
L 189.157169 244.510914 
L 190.781457 243.018658 
L 191.390565 242.435691 
L 191.999673 241.930683 
L 192.405744 241.488525 
L 192.811816 241.216047 
L 193.217888 240.789696 
L 193.62396 240.516224 
L 194.233068 239.869223 
L 195.045212 239.382576 
L 195.65432 238.736705 
L 196.060392 238.528932 
L 197.887716 237.128291 
L 198.496824 236.64581 
L 199.308968 236.123166 
L 199.71504 235.753053 
L 199.918076 235.723294 
L 200.73022 235.072074 
L 200.933256 235.078203 
L 201.542364 234.621878 
L 202.354508 234.11074 
L 202.963616 233.827913 
L 203.77576 233.303657 
L 204.181832 233.114057 
L 206.415228 232.038663 
L 207.633444 231.523601 
L 207.83648 231.276016 
L 208.242552 231.198165 
L 208.445588 231.055286 
L 208.648624 231.082975 
L 208.85166 230.830229 
L 209.054696 230.872756 
L 209.86684 230.473798 
L 210.678983 230.269494 
L 211.085055 230.087125 
L 211.288091 230.10226 
L 211.491127 229.887552 
L 211.897199 229.783813 
L 213.521487 229.283698 
L 213.724523 229.351226 
L 214.130595 229.195094 
L 214.942739 228.958692 
L 216.160955 228.601132 
L 216.567027 228.637343 
L 216.973099 228.509249 
L 217.582207 228.389301 
L 217.785243 228.314031 
L 217.988279 228.391236 
L 218.394351 228.231476 
L 218.800423 228.24653 
L 219.409531 228.121716 
L 220.018639 228.124081 
L 220.424711 228.010128 
L 221.642927 227.948057 
L 221.845963 227.798995 
L 222.455071 227.841093 
L 222.658107 227.740231 
L 222.861143 227.81706 
L 223.267215 227.788243 
L 223.673287 227.780823 
L 224.079359 227.654504 
L 224.485431 227.728591 
L 224.688467 227.803485 
L 225.094539 227.74636 
L 225.906683 227.787087 
L 226.109719 227.687945 
L 226.312755 227.801845 
L 226.515791 227.682246 
L 226.921863 227.747489 
L 227.734006 227.710311 
L 228.140078 227.87155 
L 228.54615 227.830985 
L 228.749186 227.884293 
L 228.952222 227.787033 
L 229.155258 227.913648 
L 229.56133 227.923379 
L 230.982582 227.938568 
L 231.185618 228.108544 
L 231.794726 228.087387 
L 232.60687 228.28817 
L 233.215978 228.340752 
L 237.68277 229.128722 
L 238.291878 229.329478 
L 238.494914 229.305822 
L 239.104022 229.495825 
L 239.510094 229.586283 
L 239.71313 229.700801 
L 240.119202 229.752281 
L 240.72831 229.891423 
L 241.134382 230.043603 
L 241.337418 229.972392 
L 244.585994 231.023538 
L 244.78903 230.973134 
L 245.398137 231.176982 
L 245.804209 231.359135 
L 246.007245 231.469567 
L 246.210281 231.446718 
L 246.616353 231.650592 
L 246.819389 231.660269 
L 247.225461 231.811159 
L 247.428497 231.804842 
L 247.834569 231.981726 
L 248.443677 232.196757 
L 250.474037 232.939941 
L 250.677073 232.911581 
L 250.880109 233.073815 
L 251.083145 233.035803 
L 251.692253 233.419492 
L 252.098325 233.49323 
L 256.971189 235.44837 
L 257.174225 235.597647 
L 257.377261 235.593964 
L 257.783333 235.845124 
L 257.986369 235.791871 
L 258.189405 236.004804 
L 258.392441 235.955556 
L 259.001549 236.312067 
L 259.610657 236.524813 
L 261.031909 237.105548 
L 261.641017 237.422543 
L 261.844053 237.43386 
L 262.047089 237.655154 
L 263.062268 238.009381 
L 265.092628 238.943375 
L 265.904772 239.262762 
L 266.51388 239.611612 
L 269.153348 240.724775 
L 269.55942 240.995533 
L 271.58978 241.868934 
L 271.995852 242.093938 
L 272.198888 242.149907 
L 272.401924 242.39147 
L 273.417104 242.706959 
L 273.823176 243.100353 
L 274.026212 243.015835 
L 274.432284 243.261726 
L 275.041392 243.525897 
L 275.447464 243.687916 
L 275.6505 243.725578 
L 276.66568 244.358519 
L 277.071752 244.531855 
L 277.883896 244.805731 
L 278.493004 245.158935 
L 281.741579 246.680036 
L 282.350687 246.993052 
L 282.756759 247.20026 
L 283.568903 247.506582 
L 284.381047 247.977208 
L 285.193191 248.295117 
L 285.599263 248.493776 
L 285.802299 248.542271 
L 286.208371 248.806684 
L 287.223551 249.293252 
L 287.832659 249.578552 
L 288.847839 250.079125 
L 289.050875 250.077512 
L 289.863019 250.528837 
L 290.472127 250.786287 
L 290.878199 250.980618 
L 291.081235 251.002124 
L 291.487307 251.262344 
L 294.735883 252.721051 
L 294.938919 252.753175 
L 295.548027 253.164069 
L 296.157135 253.387836 
L 297.375351 253.96341 
L 300.217854 255.23413 
L 300.826962 255.47564 
L 301.233034 255.700348 
L 302.045178 255.997476 
L 302.45125 256.207265 
L 302.654286 256.35888 
L 303.060358 256.439258 
L 303.46643 256.648643 
L 305.293754 257.446129 
L 306.51197 257.909712 
L 307.52715 258.405688 
L 308.948402 259.009704 
L 310.166618 259.506406 
L 310.978762 259.818803 
L 311.181798 259.99472 
L 311.58787 260.067437 
L 315.242517 261.536171 
L 315.648589 261.745448 
L 315.851625 261.743459 
L 316.257697 261.996205 
L 321.942705 264.139117 
L 322.348777 264.33619 
L 324.785209 265.222307 
L 325.394317 265.478468 
L 325.800389 265.552743 
L 326.003425 265.722074 
L 326.409497 265.829952 
L 327.221641 266.018342 
L 327.424677 266.20606 
L 327.627713 266.213265 
L 327.830749 266.388563 
L 328.439857 266.462785 
L 328.845929 266.74322 
L 329.658073 266.961987 
L 330.267181 267.226615 
L 330.673253 267.297718 
L 331.891469 267.75579 
L 332.094505 267.760629 
L 332.500576 267.987595 
L 332.906648 268.072516 
L 333.31272 268.235449 
L 337.170404 269.506465 
L 337.779512 269.684936 
L 341.231124 270.756862 
L 341.840232 270.973828 
L 342.855412 271.296118 
L 360.316507 276.087811 
L 361.128651 276.317385 
L 361.534723 276.432279 
L 362.143831 276.570911 
L 362.549903 276.646046 
L 364.174191 277.056026 
L 365.189371 277.295546 
L 367.219731 277.762248 
L 368.23491 277.985316 
L 371.077414 278.643983 
L 371.483486 278.715866 
L 376.559386 279.77255 
L 377.168494 279.871638 
L 377.574566 279.982311 
L 378.792782 280.220004 
L 382.041358 280.843966 
L 386.711185 281.705674 
L 387.320293 281.858848 
L 388.335473 281.990463 
L 390.974941 282.459691 
L 391.787085 282.562274 
L 392.802265 282.776767 
L 393.208337 282.829993 
L 396.862985 283.403041 
L 398.081201 283.629281 
L 398.487273 283.68361 
L 398.487273 283.68361 
" clip-path="url(#pab8d5911cb)" style="fill: none; stroke-dasharray: 1.85,0.8; stroke-dashoffset: 0; stroke: #80ffb4; stroke-width: 0.5"/>
   </g>
   <g id="line2d_18">
    <path d="M 73.832727 295.488 
L 127.061445 295.384127 
L 132.75001 295.157806 
L 136.813271 294.772961 
L 139.251228 294.384299 
L 141.282858 293.902275 
L 143.720815 293.08503 
L 145.346119 292.367168 
L 147.784076 290.907601 
L 149.40938 289.667607 
L 151.44101 287.760989 
L 154.285293 284.327868 
L 155.910597 281.991969 
L 158.348554 277.970773 
L 162.005489 270.965656 
L 167.694054 258.529588 
L 183.540771 221.519778 
L 190.041989 207.885922 
L 191.667293 204.757375 
L 192.886271 202.415481 
L 193.698924 200.985807 
L 194.917902 198.849185 
L 198.574837 192.725185 
L 199.793815 190.826632 
L 200.606467 189.563466 
L 201.419119 188.426807 
L 202.638098 186.716805 
L 204.669728 184.068132 
L 205.48238 183.018894 
L 205.888706 182.662007 
L 206.701359 181.551101 
L 207.920337 180.140325 
L 208.326663 179.835078 
L 209.545641 178.514088 
L 211.983598 176.179506 
L 214.82788 173.806966 
L 215.234206 173.600861 
L 215.640532 173.17201 
L 216.453185 172.625199 
L 216.859511 172.320624 
L 217.265837 172.191563 
L 217.672163 171.796288 
L 218.078489 171.672845 
L 218.484815 171.30757 
L 219.703793 170.695114 
L 221.329098 169.884428 
L 225.798685 168.354913 
L 226.611337 168.145958 
L 228.236641 167.740521 
L 229.45562 167.664956 
L 230.268272 167.529765 
L 230.674598 167.563744 
L 231.48725 167.328982 
L 232.299902 167.506727 
L 233.112554 167.506861 
L 233.51888 167.577804 
L 233.925207 167.447694 
L 238.80112 168.141361 
L 239.207446 168.312547 
L 240.020098 168.352843 
L 240.83275 168.672795 
L 241.239076 168.66715 
L 244.896011 169.879025 
L 245.302337 170.105157 
L 245.708663 170.029807 
L 246.521315 170.513632 
L 246.927641 170.702856 
L 247.333967 171.021006 
L 247.740294 171.042646 
L 248.14662 171.313699 
L 248.959272 171.486551 
L 249.365598 171.790508 
L 250.17825 172.120433 
L 250.584576 172.396325 
L 250.990902 172.521085 
L 252.209881 173.257925 
L 253.022533 173.530618 
L 253.835185 174.06603 
L 254.241511 174.270415 
L 254.647837 174.630771 
L 255.054163 174.69975 
L 255.460489 175.117849 
L 256.679468 175.66603 
L 257.085794 176.119828 
L 257.49212 176.243271 
L 257.898446 176.574405 
L 258.711098 176.934277 
L 259.52375 177.538023 
L 260.336402 178.040317 
L 261.555381 178.968907 
L 261.961707 179.114421 
L 262.774359 179.749754 
L 264.399663 180.944128 
L 265.618641 181.787476 
L 267.243946 183.040964 
L 267.650272 183.243145 
L 268.86925 184.254614 
L 269.681902 184.784381 
L 272.526185 187.084634 
L 272.932511 187.313025 
L 273.338837 187.776608 
L 274.151489 188.243363 
L 275.370468 189.252009 
L 280.652707 193.589366 
L 299.750033 209.663801 
L 300.156359 209.899342 
L 301.375337 210.978043 
L 305.032272 214.022583 
L 306.25125 214.838054 
L 306.657577 215.334675 
L 308.689207 216.904325 
L 309.501859 217.664499 
L 321.285316 226.720537 
L 322.097968 227.262562 
L 324.535924 229.167083 
L 325.348577 229.633623 
L 326.161229 230.257854 
L 326.973881 230.722673 
L 327.380207 231.157143 
L 328.192859 231.713657 
L 342.414272 241.223305 
L 343.633251 241.854902 
L 352.572425 247.186792 
L 353.385077 247.618654 
L 353.791403 247.91917 
L 354.604055 248.300359 
L 355.416707 248.773942 
L 358.26099 250.3005 
L 360.29262 251.409792 
L 361.105272 251.795578 
L 363.543229 252.961834 
L 364.355881 253.421734 
L 367.60649 255.024342 
L 368.419142 255.454591 
L 369.231794 255.788414 
L 370.044446 256.220706 
L 371.263425 256.716816 
L 374.107707 258.05864 
L 377.358316 259.46834 
L 381.827903 261.405738 
L 382.234229 261.490901 
L 383.046881 261.857681 
L 383.859534 262.131127 
L 384.26586 262.400083 
L 386.29749 263.143832 
L 387.922794 263.719406 
L 388.735447 264.05667 
L 389.954425 264.528317 
L 391.173403 264.953674 
L 398.487273 267.543099 
L 398.487273 267.543099 
" clip-path="url(#pab8d5911cb)" style="fill: none; stroke-dasharray: 1.85,0.8; stroke-dashoffset: 0; stroke: #ffb360; stroke-width: 0.5"/>
   </g>
   <g id="line2d_19">
    <path d="M 73.832727 295.488 
L 126.721312 295.391144 
L 132.417006 295.184796 
L 137.299029 294.70124 
L 140.553712 294.071256 
L 142.994723 293.321862 
L 144.622064 292.64134 
L 146.249405 291.768422 
L 147.876746 290.64136 
L 149.504087 289.23596 
L 151.131429 287.543728 
L 152.75877 285.416112 
L 154.386111 282.861714 
L 156.013452 279.813814 
L 157.640793 276.347735 
L 160.081805 270.055963 
L 162.522816 262.67498 
L 164.963828 254.493607 
L 168.21851 242.325017 
L 172.286863 225.853533 
L 178.796227 197.997773 
L 188.560273 156.911067 
L 192.628626 140.912332 
L 199.13799 117.899637 
L 204.833684 100.610209 
L 207.274696 93.786735 
L 209.715707 87.866394 
L 212.156719 82.151138 
L 215.411401 75.655841 
L 217.038742 72.711814 
L 218.666083 69.936821 
L 221.107095 66.228614 
L 221.920766 65.299862 
L 222.734436 63.970969 
L 226.802789 59.680226 
L 227.616459 59.092124 
L 228.43013 58.283132 
L 230.871141 56.469823 
L 231.684812 56.187802 
L 232.498483 55.77387 
L 233.312153 55.186979 
L 235.753165 54.105536 
L 236.566835 54.221479 
L 237.380506 53.936823 
L 239.007847 53.900909 
L 239.821517 53.568 
L 241.448859 53.798757 
L 242.262529 53.813219 
L 243.0762 54.052685 
L 243.88987 54.060831 
L 245.517211 54.651056 
L 247.958223 55.456902 
L 252.026576 57.433978 
L 252.840246 58.107108 
L 254.467587 59.147744 
L 255.281258 59.675602 
L 261.790622 65.503065 
L 265.858975 69.695285 
L 267.486316 71.480584 
L 275.623021 81.538466 
L 276.436692 82.76768 
L 277.250362 83.684765 
L 290.269091 102.169321 
L 291.082761 103.54136 
L 292.710103 105.843226 
L 295.964785 110.612203 
L 296.778455 111.946796 
L 298.405796 114.278421 
L 301.660478 119.13412 
L 302.474149 120.492072 
L 304.10149 122.837327 
L 306.542502 126.415746 
L 308.169843 128.905062 
L 310.610854 132.477057 
L 321.188571 147.941885 
L 322.815913 150.147647 
L 327.697936 157.067924 
L 339.089323 172.045701 
L 339.902994 172.959775 
L 343.157676 177.145544 
L 344.785017 179.045575 
L 345.598688 179.93973 
L 346.412358 181.111685 
L 352.921722 188.664176 
L 353.735393 189.5811 
L 354.549064 190.326543 
L 356.176405 192.342732 
L 358.617416 194.975169 
L 361.872098 198.487136 
L 363.49944 200.075146 
L 364.31311 200.969435 
L 365.126781 201.65864 
L 365.940451 202.671776 
L 367.567792 204.197822 
L 368.381463 205.102918 
L 369.195133 205.814382 
L 370.822474 207.442688 
L 374.890827 211.339124 
L 376.518168 212.781648 
L 378.145509 214.273474 
L 383.027532 218.512066 
L 384.654874 219.892089 
L 391.164238 225.150779 
L 392.791579 226.457763 
L 395.232591 228.382392 
L 396.046261 228.850384 
L 398.487273 230.701463 
L 398.487273 230.701463 
" clip-path="url(#pab8d5911cb)" style="fill: none; stroke-dasharray: 1.85,0.8; stroke-dashoffset: 0; stroke: #ff0000; stroke-width: 0.5"/>
   </g>
   <g id="patch_3">
    <path d="M 57.6 307.584 
L 57.6 41.472 
" style="fill: none; stroke: #000000; stroke-width: 0.8; stroke-linejoin: miter; stroke-linecap: square"/>
   </g>
   <g id="patch_4">
    <path d="M 414.72 307.584 
L 414.72 41.472 
" style="fill: none; stroke: #000000; stroke-width: 0.8; stroke-linejoin: miter; stroke-linecap: square"/>
   </g>
   <g id="patch_5">
    <path d="M 57.6 307.584 
L 414.72 307.584 
" style="fill: none; stroke: #000000; stroke-width: 0.8; stroke-linejoin: miter; stroke-linecap: square"/>
   </g>
   <g id="patch_6">
    <path d="M 57.6 41.472 
L 414.72 41.472 
" style="fill: none; stroke: #000000; stroke-width: 0.8; stroke-linejoin: miter; stroke-linecap: square"/>
   </g>
   <g id="text_18">
    <!-- Heating Rate ($^{\circ}C.s^{-1}$) -->
    <g transform="translate(271.872 68.0832) scale(0.12 -0.12)">
     <defs>
      <path id="DejaVuSans-48" d="M 628 4666 
L 1259 4666 
L 1259 2753 
L 3553 2753 
L 3553 4666 
L 4184 4666 
L 4184 0 
L 3553 0 
L 3553 2222 
L 1259 2222 
L 1259 0 
L 628 0 
L 628 4666 
z
" transform="scale(0.015625)"/>
      <path id="DejaVuSans-67" d="M 2906 1791 
Q 2906 2416 2648 2759 
Q 2391 3103 1925 3103 
Q 1463 3103 1205 2759 
Q 947 2416 947 1791 
Q 947 1169 1205 825 
Q 1463 481 1925 481 
Q 2391 481 2648 825 
Q 2906 1169 2906 1791 
z
M 3481 434 
Q 3481 -459 3084 -895 
Q 2688 -1331 1869 -1331 
Q 1566 -1331 1297 -1286 
Q 1028 -1241 775 -1147 
L 775 -588 
Q 1028 -725 1275 -790 
Q 1522 -856 1778 -856 
Q 2344 -856 2625 -561 
Q 2906 -266 2906 331 
L 2906 616 
Q 2728 306 2450 153 
Q 2172 0 1784 0 
Q 1141 0 747 490 
Q 353 981 353 1791 
Q 353 2603 747 3093 
Q 1141 3584 1784 3584 
Q 2172 3584 2450 3431 
Q 2728 3278 2906 2969 
L 2906 3500 
L 3481 3500 
L 3481 434 
z
" transform="scale(0.015625)"/>
      <path id="DejaVuSans-52" d="M 2841 2188 
Q 3044 2119 3236 1894 
Q 3428 1669 3622 1275 
L 4263 0 
L 3584 0 
L 2988 1197 
Q 2756 1666 2539 1819 
Q 2322 1972 1947 1972 
L 1259 1972 
L 1259 0 
L 628 0 
L 628 4666 
L 2053 4666 
Q 2853 4666 3247 4331 
Q 3641 3997 3641 3322 
Q 3641 2881 3436 2590 
Q 3231 2300 2841 2188 
z
M 1259 4147 
L 1259 2491 
L 2053 2491 
Q 2509 2491 2742 2702 
Q 2975 2913 2975 3322 
Q 2975 3731 2742 3939 
Q 2509 4147 2053 4147 
L 1259 4147 
z
" transform="scale(0.015625)"/>
      <path id="DejaVuSans-2e" d="M 684 794 
L 1344 794 
L 1344 0 
L 684 0 
L 684 794 
z
" transform="scale(0.015625)"/>
      <path id="DejaVuSans-Oblique-73" d="M 3200 3397 
L 3091 2853 
Q 2863 2978 2609 3040 
Q 2356 3103 2088 3103 
Q 1634 3103 1373 2948 
Q 1113 2794 1113 2528 
Q 1113 2219 1719 2053 
Q 1766 2041 1788 2034 
L 1972 1978 
Q 2547 1819 2739 1644 
Q 2931 1469 2931 1166 
Q 2931 609 2489 259 
Q 2047 -91 1331 -91 
Q 1053 -91 747 -37 
Q 441 16 72 128 
L 184 722 
Q 500 559 806 475 
Q 1113 391 1394 391 
Q 1816 391 2080 572 
Q 2344 753 2344 1031 
Q 2344 1331 1650 1516 
L 1591 1531 
L 1394 1581 
Q 956 1697 753 1886 
Q 550 2075 550 2369 
Q 550 2928 970 3256 
Q 1391 3584 2113 3584 
Q 2397 3584 2667 3537 
Q 2938 3491 3200 3397 
z
" transform="scale(0.015625)"/>
     </defs>
     <use xlink:href="#DejaVuSans-48" transform="translate(0 0.684375)"/>
     <use xlink:href="#DejaVuSans-65" transform="translate(75.195312 0.684375)"/>
     <use xlink:href="#DejaVuSans-61" transform="translate(136.71875 0.684375)"/>
     <use xlink:href="#DejaVuSans-74" transform="translate(197.998047 0.684375)"/>
     <use xlink:href="#DejaVuSans-69" transform="translate(237.207031 0.684375)"/>
     <use xlink:href="#DejaVuSans-6e" transform="translate(264.990234 0.684375)"/>
     <use xlink:href="#DejaVuSans-67" transform="translate(328.369141 0.684375)"/>
     <use xlink:href="#DejaVuSans-20" transform="translate(391.845703 0.684375)"/>
     <use xlink:href="#DejaVuSans-52" transform="translate(423.632812 0.684375)"/>
     <use xlink:href="#DejaVuSans-61" transform="translate(493.115234 0.684375)"/>
     <use xlink:href="#DejaVuSans-74" transform="translate(554.394531 0.684375)"/>
     <use xlink:href="#DejaVuSans-65" transform="translate(593.603516 0.684375)"/>
     <use xlink:href="#DejaVuSans-20" transform="translate(655.126953 0.684375)"/>
     <use xlink:href="#DejaVuSans-28" transform="translate(686.914062 0.684375)"/>
     <use xlink:href="#DejaVuSans-2218" transform="translate(726.884766 38.965625) scale(0.7)"/>
     <use xlink:href="#DejaVuSans-Oblique-43" transform="translate(773.4375 0.684375)"/>
     <use xlink:href="#DejaVuSans-2e" transform="translate(843.261719 0.684375)"/>
     <use xlink:href="#DejaVuSans-Oblique-73" transform="translate(894.53125 0.684375)"/>
     <use xlink:href="#DejaVuSans-2212" transform="translate(951.280755 38.965625) scale(0.7)"/>
     <use xlink:href="#DejaVuSans-31" transform="translate(1009.933099 38.965625) scale(0.7)"/>
     <use xlink:href="#DejaVuSans-29" transform="translate(1057.203607 0.684375)"/>
    </g>
   </g>
   <g id="legend_1">
    <g id="patch_7">
     <path d="M 314.584 149.473825 
L 362.487125 149.473825 
Q 364.487125 149.473825 364.487125 147.473825 
L 364.487125 75.0832 
Q 364.487125 73.0832 362.487125 73.0832 
L 314.584 73.0832 
Q 312.584 73.0832 312.584 75.0832 
L 312.584 147.473825 
Q 312.584 149.473825 314.584 149.473825 
z
" style="fill: #ffffff; opacity: 0.8; stroke: #cccccc; stroke-linejoin: miter"/>
    </g>
    <g id="line2d_20">
     <path d="M 316.584 81.181637 
L 326.584 81.181637 
L 336.584 81.181637 
" style="fill: none; stroke-dasharray: 1.85,0.8; stroke-dashoffset: 0; stroke: #8000ff; stroke-width: 0.5"/>
    </g>
    <g id="text_19">
     <!-- 0.1 -->
     <g transform="translate(344.584 84.681637) scale(0.1 -0.1)">
      <use xlink:href="#DejaVuSans-30"/>
      <use xlink:href="#DejaVuSans-2e" transform="translate(63.623047 0)"/>
      <use xlink:href="#DejaVuSans-31" transform="translate(95.410156 0)"/>
     </g>
    </g>
    <g id="line2d_21">
     <path d="M 316.584 95.859762 
L 326.584 95.859762 
L 336.584 95.859762 
" style="fill: none; stroke-dasharray: 1.85,0.8; stroke-dashoffset: 0; stroke: #00b5eb; stroke-width: 0.5"/>
    </g>
    <g id="text_20">
     <!-- 1 -->
     <g transform="translate(344.584 99.359762) scale(0.1 -0.1)">
      <use xlink:href="#DejaVuSans-31"/>
     </g>
    </g>
    <g id="line2d_22">
     <path d="M 316.584 110.537887 
L 326.584 110.537887 
L 336.584 110.537887 
" style="fill: none; stroke-dasharray: 1.85,0.8; stroke-dashoffset: 0; stroke: #80ffb4; stroke-width: 0.5"/>
    </g>
    <g id="text_21">
     <!-- 5 -->
     <g transform="translate(344.584 114.037887) scale(0.1 -0.1)">
      <use xlink:href="#DejaVuSans-35"/>
     </g>
    </g>
    <g id="line2d_23">
     <path d="M 316.584 125.216012 
L 326.584 125.216012 
L 336.584 125.216012 
" style="fill: none; stroke-dasharray: 1.85,0.8; stroke-dashoffset: 0; stroke: #ffb360; stroke-width: 0.5"/>
    </g>
    <g id="text_22">
     <!-- 10 -->
     <g transform="translate(344.584 128.716012) scale(0.1 -0.1)">
      <use xlink:href="#DejaVuSans-31"/>
      <use xlink:href="#DejaVuSans-30" transform="translate(63.623047 0)"/>
     </g>
    </g>
    <g id="line2d_24">
     <path d="M 316.584 139.894137 
L 326.584 139.894137 
L 336.584 139.894137 
" style="fill: none; stroke-dasharray: 1.85,0.8; stroke-dashoffset: 0; stroke: #ff0000; stroke-width: 0.5"/>
    </g>
    <g id="text_23">
     <!-- 20 -->
     <g transform="translate(344.584 143.394137) scale(0.1 -0.1)">
      <use xlink:href="#DejaVuSans-32"/>
      <use xlink:href="#DejaVuSans-30" transform="translate(63.623047 0)"/>
     </g>
    </g>
   </g>
  </g>
 </g>
 <defs>
  <clipPath id="pab8d5911cb">
   <rect x="57.6" y="41.472" width="357.12" height="266.112"/>
  </clipPath>
 </defs>
</svg>
