<?xml version="1.0" encoding="utf-8" standalone="no"?>
<!DOCTYPE svg PUBLIC "-//W3C//DTD SVG 1.1//EN"
  "http://www.w3.org/Graphics/SVG/1.1/DTD/svg11.dtd">
<svg xmlns:xlink="http://www.w3.org/1999/xlink" width="460.8pt" height="345.6pt" viewBox="0 0 460.8 345.6" xmlns="http://www.w3.org/2000/svg" version="1.1">
 <metadata>
  <rdf:RDF xmlns:dc="http://purl.org/dc/elements/1.1/" xmlns:cc="http://creativecommons.org/ns#" xmlns:rdf="http://www.w3.org/1999/02/22-rdf-syntax-ns#">
   <cc:Work>
    <dc:type rdf:resource="http://purl.org/dc/dcmitype/StillImage"/>
    <dc:date>2025-03-04T10:13:56.243487</dc:date>
    <dc:format>image/svg+xml</dc:format>
    <dc:creator>
     <cc:Agent>
      <dc:title>Matplotlib v3.10.0, https://matplotlib.org/</dc:title>
     </cc:Agent>
    </dc:creator>
   </cc:Work>
  </rdf:RDF>
 </metadata>
 <defs>
  <style type="text/css">*{stroke-linejoin: round; stroke-linecap: butt}</style>
 </defs>
 <g id="figure_1">
  <g id="patch_1">
   <path d="M 0 345.6 
L 460.8 345.6 
L 460.8 0 
L 0 0 
z
" style="fill: #ffffff"/>
  </g>
  <g id="axes_1">
   <g id="patch_2">
    <path d="M 57.6 307.584 
L 414.72 307.584 
L 414.72 41.472 
L 57.6 41.472 
z
" style="fill: #ffffff"/>
   </g>
   <g id="matplotlib.axis_1">
    <g id="xtick_1">
     <g id="line2d_1">
      <defs>
       <path id="mab6f587f5a" d="M 0 0 
L 0 3.5 
" style="stroke: #000000; stroke-width: 0.8"/>
      </defs>
      <g>
       <use xlink:href="#mab6f587f5a" x="73.832727" y="307.584" style="stroke: #000000; stroke-width: 0.8"/>
      </g>
     </g>
     <g id="text_1">
      <!-- 0 -->
      <g transform="translate(70.651477 322.182437) scale(0.1 -0.1)">
       <defs>
        <path id="DejaVuSans-30" d="M 2034 4250 
Q 1547 4250 1301 3770 
Q 1056 3291 1056 2328 
Q 1056 1369 1301 889 
Q 1547 409 2034 409 
Q 2525 409 2770 889 
Q 3016 1369 3016 2328 
Q 3016 3291 2770 3770 
Q 2525 4250 2034 4250 
z
M 2034 4750 
Q 2819 4750 3233 4129 
Q 3647 3509 3647 2328 
Q 3647 1150 3233 529 
Q 2819 -91 2034 -91 
Q 1250 -91 836 529 
Q 422 1150 422 2328 
Q 422 3509 836 4129 
Q 1250 4750 2034 4750 
z
" transform="scale(0.015625)"/>
       </defs>
       <use xlink:href="#DejaVuSans-30"/>
      </g>
     </g>
    </g>
    <g id="xtick_2">
     <g id="line2d_2">
      <g>
       <use xlink:href="#mab6f587f5a" x="138.763636" y="307.584" style="stroke: #000000; stroke-width: 0.8"/>
      </g>
     </g>
     <g id="text_2">
      <!-- 200 -->
      <g transform="translate(129.219886 322.182437) scale(0.1 -0.1)">
       <defs>
        <path id="DejaVuSans-32" d="M 1228 531 
L 3431 531 
L 3431 0 
L 469 0 
L 469 531 
Q 828 903 1448 1529 
Q 2069 2156 2228 2338 
Q 2531 2678 2651 2914 
Q 2772 3150 2772 3378 
Q 2772 3750 2511 3984 
Q 2250 4219 1831 4219 
Q 1534 4219 1204 4116 
Q 875 4013 500 3803 
L 500 4441 
Q 881 4594 1212 4672 
Q 1544 4750 1819 4750 
Q 2544 4750 2975 4387 
Q 3406 4025 3406 3419 
Q 3406 3131 3298 2873 
Q 3191 2616 2906 2266 
Q 2828 2175 2409 1742 
Q 1991 1309 1228 531 
z
" transform="scale(0.015625)"/>
       </defs>
       <use xlink:href="#DejaVuSans-32"/>
       <use xlink:href="#DejaVuSans-30" transform="translate(63.623047 0)"/>
       <use xlink:href="#DejaVuSans-30" transform="translate(127.246094 0)"/>
      </g>
     </g>
    </g>
    <g id="xtick_3">
     <g id="line2d_3">
      <g>
       <use xlink:href="#mab6f587f5a" x="203.694545" y="307.584" style="stroke: #000000; stroke-width: 0.8"/>
      </g>
     </g>
     <g id="text_3">
      <!-- 400 -->
      <g transform="translate(194.150795 322.182437) scale(0.1 -0.1)">
       <defs>
        <path id="DejaVuSans-34" d="M 2419 4116 
L 825 1625 
L 2419 1625 
L 2419 4116 
z
M 2253 4666 
L 3047 4666 
L 3047 1625 
L 3713 1625 
L 3713 1100 
L 3047 1100 
L 3047 0 
L 2419 0 
L 2419 1100 
L 313 1100 
L 313 1709 
L 2253 4666 
z
" transform="scale(0.015625)"/>
       </defs>
       <use xlink:href="#DejaVuSans-34"/>
       <use xlink:href="#DejaVuSans-30" transform="translate(63.623047 0)"/>
       <use xlink:href="#DejaVuSans-30" transform="translate(127.246094 0)"/>
      </g>
     </g>
    </g>
    <g id="xtick_4">
     <g id="line2d_4">
      <g>
       <use xlink:href="#mab6f587f5a" x="268.625455" y="307.584" style="stroke: #000000; stroke-width: 0.8"/>
      </g>
     </g>
     <g id="text_4">
      <!-- 600 -->
      <g transform="translate(259.081705 322.182437) scale(0.1 -0.1)">
       <defs>
        <path id="DejaVuSans-36" d="M 2113 2584 
Q 1688 2584 1439 2293 
Q 1191 2003 1191 1497 
Q 1191 994 1439 701 
Q 1688 409 2113 409 
Q 2538 409 2786 701 
Q 3034 994 3034 1497 
Q 3034 2003 2786 2293 
Q 2538 2584 2113 2584 
z
M 3366 4563 
L 3366 3988 
Q 3128 4100 2886 4159 
Q 2644 4219 2406 4219 
Q 1781 4219 1451 3797 
Q 1122 3375 1075 2522 
Q 1259 2794 1537 2939 
Q 1816 3084 2150 3084 
Q 2853 3084 3261 2657 
Q 3669 2231 3669 1497 
Q 3669 778 3244 343 
Q 2819 -91 2113 -91 
Q 1303 -91 875 529 
Q 447 1150 447 2328 
Q 447 3434 972 4092 
Q 1497 4750 2381 4750 
Q 2619 4750 2861 4703 
Q 3103 4656 3366 4563 
z
" transform="scale(0.015625)"/>
       </defs>
       <use xlink:href="#DejaVuSans-36"/>
       <use xlink:href="#DejaVuSans-30" transform="translate(63.623047 0)"/>
       <use xlink:href="#DejaVuSans-30" transform="translate(127.246094 0)"/>
      </g>
     </g>
    </g>
    <g id="xtick_5">
     <g id="line2d_5">
      <g>
       <use xlink:href="#mab6f587f5a" x="333.556364" y="307.584" style="stroke: #000000; stroke-width: 0.8"/>
      </g>
     </g>
     <g id="text_5">
      <!-- 800 -->
      <g transform="translate(324.012614 322.182437) scale(0.1 -0.1)">
       <defs>
        <path id="DejaVuSans-38" d="M 2034 2216 
Q 1584 2216 1326 1975 
Q 1069 1734 1069 1313 
Q 1069 891 1326 650 
Q 1584 409 2034 409 
Q 2484 409 2743 651 
Q 3003 894 3003 1313 
Q 3003 1734 2745 1975 
Q 2488 2216 2034 2216 
z
M 1403 2484 
Q 997 2584 770 2862 
Q 544 3141 544 3541 
Q 544 4100 942 4425 
Q 1341 4750 2034 4750 
Q 2731 4750 3128 4425 
Q 3525 4100 3525 3541 
Q 3525 3141 3298 2862 
Q 3072 2584 2669 2484 
Q 3125 2378 3379 2068 
Q 3634 1759 3634 1313 
Q 3634 634 3220 271 
Q 2806 -91 2034 -91 
Q 1263 -91 848 271 
Q 434 634 434 1313 
Q 434 1759 690 2068 
Q 947 2378 1403 2484 
z
M 1172 3481 
Q 1172 3119 1398 2916 
Q 1625 2713 2034 2713 
Q 2441 2713 2670 2916 
Q 2900 3119 2900 3481 
Q 2900 3844 2670 4047 
Q 2441 4250 2034 4250 
Q 1625 4250 1398 4047 
Q 1172 3844 1172 3481 
z
" transform="scale(0.015625)"/>
       </defs>
       <use xlink:href="#DejaVuSans-38"/>
       <use xlink:href="#DejaVuSans-30" transform="translate(63.623047 0)"/>
       <use xlink:href="#DejaVuSans-30" transform="translate(127.246094 0)"/>
      </g>
     </g>
    </g>
    <g id="xtick_6">
     <g id="line2d_6">
      <g>
       <use xlink:href="#mab6f587f5a" x="398.487273" y="307.584" style="stroke: #000000; stroke-width: 0.8"/>
      </g>
     </g>
     <g id="text_6">
      <!-- 1000 -->
      <g transform="translate(385.762273 322.182437) scale(0.1 -0.1)">
       <defs>
        <path id="DejaVuSans-31" d="M 794 531 
L 1825 531 
L 1825 4091 
L 703 3866 
L 703 4441 
L 1819 4666 
L 2450 4666 
L 2450 531 
L 3481 531 
L 3481 0 
L 794 0 
L 794 531 
z
" transform="scale(0.015625)"/>
       </defs>
       <use xlink:href="#DejaVuSans-31"/>
       <use xlink:href="#DejaVuSans-30" transform="translate(63.623047 0)"/>
       <use xlink:href="#DejaVuSans-30" transform="translate(127.246094 0)"/>
       <use xlink:href="#DejaVuSans-30" transform="translate(190.869141 0)"/>
      </g>
     </g>
    </g>
    <g id="text_7">
     <!-- Temperature ($^{\circ}C$) -->
     <g transform="translate(192.16 335.862125) scale(0.1 -0.1)">
      <defs>
       <path id="DejaVuSans-54" d="M -19 4666 
L 3928 4666 
L 3928 4134 
L 2272 4134 
L 2272 0 
L 1638 0 
L 1638 4134 
L -19 4134 
L -19 4666 
z
" transform="scale(0.015625)"/>
       <path id="DejaVuSans-65" d="M 3597 1894 
L 3597 1613 
L 953 1613 
Q 991 1019 1311 708 
Q 1631 397 2203 397 
Q 2534 397 2845 478 
Q 3156 559 3463 722 
L 3463 178 
Q 3153 47 2828 -22 
Q 2503 -91 2169 -91 
Q 1331 -91 842 396 
Q 353 884 353 1716 
Q 353 2575 817 3079 
Q 1281 3584 2069 3584 
Q 2775 3584 3186 3129 
Q 3597 2675 3597 1894 
z
M 3022 2063 
Q 3016 2534 2758 2815 
Q 2500 3097 2075 3097 
Q 1594 3097 1305 2825 
Q 1016 2553 972 2059 
L 3022 2063 
z
" transform="scale(0.015625)"/>
       <path id="DejaVuSans-6d" d="M 3328 2828 
Q 3544 3216 3844 3400 
Q 4144 3584 4550 3584 
Q 5097 3584 5394 3201 
Q 5691 2819 5691 2113 
L 5691 0 
L 5113 0 
L 5113 2094 
Q 5113 2597 4934 2840 
Q 4756 3084 4391 3084 
Q 3944 3084 3684 2787 
Q 3425 2491 3425 1978 
L 3425 0 
L 2847 0 
L 2847 2094 
Q 2847 2600 2669 2842 
Q 2491 3084 2119 3084 
Q 1678 3084 1418 2786 
Q 1159 2488 1159 1978 
L 1159 0 
L 581 0 
L 581 3500 
L 1159 3500 
L 1159 2956 
Q 1356 3278 1631 3431 
Q 1906 3584 2284 3584 
Q 2666 3584 2933 3390 
Q 3200 3197 3328 2828 
z
" transform="scale(0.015625)"/>
       <path id="DejaVuSans-70" d="M 1159 525 
L 1159 -1331 
L 581 -1331 
L 581 3500 
L 1159 3500 
L 1159 2969 
Q 1341 3281 1617 3432 
Q 1894 3584 2278 3584 
Q 2916 3584 3314 3078 
Q 3713 2572 3713 1747 
Q 3713 922 3314 415 
Q 2916 -91 2278 -91 
Q 1894 -91 1617 61 
Q 1341 213 1159 525 
z
M 3116 1747 
Q 3116 2381 2855 2742 
Q 2594 3103 2138 3103 
Q 1681 3103 1420 2742 
Q 1159 2381 1159 1747 
Q 1159 1113 1420 752 
Q 1681 391 2138 391 
Q 2594 391 2855 752 
Q 3116 1113 3116 1747 
z
" transform="scale(0.015625)"/>
       <path id="DejaVuSans-72" d="M 2631 2963 
Q 2534 3019 2420 3045 
Q 2306 3072 2169 3072 
Q 1681 3072 1420 2755 
Q 1159 2438 1159 1844 
L 1159 0 
L 581 0 
L 581 3500 
L 1159 3500 
L 1159 2956 
Q 1341 3275 1631 3429 
Q 1922 3584 2338 3584 
Q 2397 3584 2469 3576 
Q 2541 3569 2628 3553 
L 2631 2963 
z
" transform="scale(0.015625)"/>
       <path id="DejaVuSans-61" d="M 2194 1759 
Q 1497 1759 1228 1600 
Q 959 1441 959 1056 
Q 959 750 1161 570 
Q 1363 391 1709 391 
Q 2188 391 2477 730 
Q 2766 1069 2766 1631 
L 2766 1759 
L 2194 1759 
z
M 3341 1997 
L 3341 0 
L 2766 0 
L 2766 531 
Q 2569 213 2275 61 
Q 1981 -91 1556 -91 
Q 1019 -91 701 211 
Q 384 513 384 1019 
Q 384 1609 779 1909 
Q 1175 2209 1959 2209 
L 2766 2209 
L 2766 2266 
Q 2766 2663 2505 2880 
Q 2244 3097 1772 3097 
Q 1472 3097 1187 3025 
Q 903 2953 641 2809 
L 641 3341 
Q 956 3463 1253 3523 
Q 1550 3584 1831 3584 
Q 2591 3584 2966 3190 
Q 3341 2797 3341 1997 
z
" transform="scale(0.015625)"/>
       <path id="DejaVuSans-74" d="M 1172 4494 
L 1172 3500 
L 2356 3500 
L 2356 3053 
L 1172 3053 
L 1172 1153 
Q 1172 725 1289 603 
Q 1406 481 1766 481 
L 2356 481 
L 2356 0 
L 1766 0 
Q 1100 0 847 248 
Q 594 497 594 1153 
L 594 3053 
L 172 3053 
L 172 3500 
L 594 3500 
L 594 4494 
L 1172 4494 
z
" transform="scale(0.015625)"/>
       <path id="DejaVuSans-75" d="M 544 1381 
L 544 3500 
L 1119 3500 
L 1119 1403 
Q 1119 906 1312 657 
Q 1506 409 1894 409 
Q 2359 409 2629 706 
Q 2900 1003 2900 1516 
L 2900 3500 
L 3475 3500 
L 3475 0 
L 2900 0 
L 2900 538 
Q 2691 219 2414 64 
Q 2138 -91 1772 -91 
Q 1169 -91 856 284 
Q 544 659 544 1381 
z
M 1991 3584 
L 1991 3584 
z
" transform="scale(0.015625)"/>
       <path id="DejaVuSans-20" transform="scale(0.015625)"/>
       <path id="DejaVuSans-28" d="M 1984 4856 
Q 1566 4138 1362 3434 
Q 1159 2731 1159 2009 
Q 1159 1288 1364 580 
Q 1569 -128 1984 -844 
L 1484 -844 
Q 1016 -109 783 600 
Q 550 1309 550 2009 
Q 550 2706 781 3412 
Q 1013 4119 1484 4856 
L 1984 4856 
z
" transform="scale(0.015625)"/>
       <path id="DejaVuSans-2218" d="M 2000 2619 
Q 1750 2619 1578 2445 
Q 1406 2272 1406 2022 
Q 1406 1775 1578 1605 
Q 1750 1435 2000 1435 
Q 2250 1435 2422 1605 
Q 2594 1775 2594 2022 
Q 2594 2269 2420 2444 
Q 2247 2619 2000 2619 
z
M 2000 3022 
Q 2200 3022 2384 2945 
Q 2569 2869 2703 2725 
Q 2847 2585 2919 2406 
Q 2991 2228 2991 2022 
Q 2991 1610 2702 1324 
Q 2413 1038 1994 1038 
Q 1572 1038 1290 1319 
Q 1009 1600 1009 2022 
Q 1009 2441 1296 2731 
Q 1584 3022 2000 3022 
z
" transform="scale(0.015625)"/>
       <path id="DejaVuSans-Oblique-43" d="M 4447 4306 
L 4319 3641 
Q 4019 3944 3683 4091 
Q 3347 4238 2956 4238 
Q 2422 4238 2017 3981 
Q 1613 3725 1319 3200 
Q 1131 2863 1032 2486 
Q 934 2109 934 1728 
Q 934 1091 1264 756 
Q 1594 422 2222 422 
Q 2656 422 3056 561 
Q 3456 700 3834 978 
L 3688 231 
Q 3316 72 2936 -9 
Q 2556 -91 2175 -91 
Q 1278 -91 773 396 
Q 269 884 269 1753 
Q 269 2309 461 2846 
Q 653 3384 1013 3828 
Q 1394 4300 1883 4525 
Q 2372 4750 3022 4750 
Q 3422 4750 3780 4639 
Q 4138 4528 4447 4306 
z
" transform="scale(0.015625)"/>
       <path id="DejaVuSans-29" d="M 513 4856 
L 1013 4856 
Q 1481 4119 1714 3412 
Q 1947 2706 1947 2009 
Q 1947 1309 1714 600 
Q 1481 -109 1013 -844 
L 513 -844 
Q 928 -128 1133 580 
Q 1338 1288 1338 2009 
Q 1338 2731 1133 3434 
Q 928 4138 513 4856 
z
" transform="scale(0.015625)"/>
      </defs>
      <use xlink:href="#DejaVuSans-54" transform="translate(0 0.125)"/>
      <use xlink:href="#DejaVuSans-65" transform="translate(61.083984 0.125)"/>
      <use xlink:href="#DejaVuSans-6d" transform="translate(122.607422 0.125)"/>
      <use xlink:href="#DejaVuSans-70" transform="translate(220.019531 0.125)"/>
      <use xlink:href="#DejaVuSans-65" transform="translate(283.496094 0.125)"/>
      <use xlink:href="#DejaVuSans-72" transform="translate(345.019531 0.125)"/>
      <use xlink:href="#DejaVuSans-61" transform="translate(386.132812 0.125)"/>
      <use xlink:href="#DejaVuSans-74" transform="translate(447.412109 0.125)"/>
      <use xlink:href="#DejaVuSans-75" transform="translate(486.621094 0.125)"/>
      <use xlink:href="#DejaVuSans-72" transform="translate(550 0.125)"/>
      <use xlink:href="#DejaVuSans-65" transform="translate(591.113281 0.125)"/>
      <use xlink:href="#DejaVuSans-20" transform="translate(652.636719 0.125)"/>
      <use xlink:href="#DejaVuSans-28" transform="translate(684.423828 0.125)"/>
      <use xlink:href="#DejaVuSans-2218" transform="translate(724.394531 38.40625) scale(0.7)"/>
      <use xlink:href="#DejaVuSans-Oblique-43" transform="translate(770.947266 0.125)"/>
      <use xlink:href="#DejaVuSans-29" transform="translate(840.771484 0.125)"/>
     </g>
    </g>
   </g>
   <g id="matplotlib.axis_2">
    <g id="ytick_1">
     <g id="line2d_7">
      <defs>
       <path id="m2effa77132" d="M 0 0 
L -3.5 0 
" style="stroke: #000000; stroke-width: 0.8"/>
      </defs>
      <g>
       <use xlink:href="#m2effa77132" x="57.6" y="295.488" style="stroke: #000000; stroke-width: 0.8"/>
      </g>
     </g>
     <g id="text_8">
      <!-- 0.0 -->
      <g transform="translate(34.696875 299.287219) scale(0.1 -0.1)">
       <defs>
        <path id="DejaVuSans-2e" d="M 684 794 
L 1344 794 
L 1344 0 
L 684 0 
L 684 794 
z
" transform="scale(0.015625)"/>
       </defs>
       <use xlink:href="#DejaVuSans-30"/>
       <use xlink:href="#DejaVuSans-2e" transform="translate(63.623047 0)"/>
       <use xlink:href="#DejaVuSans-30" transform="translate(95.410156 0)"/>
      </g>
     </g>
    </g>
    <g id="ytick_2">
     <g id="line2d_8">
      <g>
       <use xlink:href="#m2effa77132" x="57.6" y="260.20522" style="stroke: #000000; stroke-width: 0.8"/>
      </g>
     </g>
     <g id="text_9">
      <!-- 0.2 -->
      <g transform="translate(34.696875 264.004438) scale(0.1 -0.1)">
       <use xlink:href="#DejaVuSans-30"/>
       <use xlink:href="#DejaVuSans-2e" transform="translate(63.623047 0)"/>
       <use xlink:href="#DejaVuSans-32" transform="translate(95.410156 0)"/>
      </g>
     </g>
    </g>
    <g id="ytick_3">
     <g id="line2d_9">
      <g>
       <use xlink:href="#m2effa77132" x="57.6" y="224.922439" style="stroke: #000000; stroke-width: 0.8"/>
      </g>
     </g>
     <g id="text_10">
      <!-- 0.4 -->
      <g transform="translate(34.696875 228.721658) scale(0.1 -0.1)">
       <use xlink:href="#DejaVuSans-30"/>
       <use xlink:href="#DejaVuSans-2e" transform="translate(63.623047 0)"/>
       <use xlink:href="#DejaVuSans-34" transform="translate(95.410156 0)"/>
      </g>
     </g>
    </g>
    <g id="ytick_4">
     <g id="line2d_10">
      <g>
       <use xlink:href="#m2effa77132" x="57.6" y="189.639659" style="stroke: #000000; stroke-width: 0.8"/>
      </g>
     </g>
     <g id="text_11">
      <!-- 0.6 -->
      <g transform="translate(34.696875 193.438878) scale(0.1 -0.1)">
       <use xlink:href="#DejaVuSans-30"/>
       <use xlink:href="#DejaVuSans-2e" transform="translate(63.623047 0)"/>
       <use xlink:href="#DejaVuSans-36" transform="translate(95.410156 0)"/>
      </g>
     </g>
    </g>
    <g id="ytick_5">
     <g id="line2d_11">
      <g>
       <use xlink:href="#m2effa77132" x="57.6" y="154.356879" style="stroke: #000000; stroke-width: 0.8"/>
      </g>
     </g>
     <g id="text_12">
      <!-- 0.8 -->
      <g transform="translate(34.696875 158.156097) scale(0.1 -0.1)">
       <use xlink:href="#DejaVuSans-30"/>
       <use xlink:href="#DejaVuSans-2e" transform="translate(63.623047 0)"/>
       <use xlink:href="#DejaVuSans-38" transform="translate(95.410156 0)"/>
      </g>
     </g>
    </g>
    <g id="ytick_6">
     <g id="line2d_12">
      <g>
       <use xlink:href="#m2effa77132" x="57.6" y="119.074098" style="stroke: #000000; stroke-width: 0.8"/>
      </g>
     </g>
     <g id="text_13">
      <!-- 1.0 -->
      <g transform="translate(34.696875 122.873317) scale(0.1 -0.1)">
       <use xlink:href="#DejaVuSans-31"/>
       <use xlink:href="#DejaVuSans-2e" transform="translate(63.623047 0)"/>
       <use xlink:href="#DejaVuSans-30" transform="translate(95.410156 0)"/>
      </g>
     </g>
    </g>
    <g id="ytick_7">
     <g id="line2d_13">
      <g>
       <use xlink:href="#m2effa77132" x="57.6" y="83.791318" style="stroke: #000000; stroke-width: 0.8"/>
      </g>
     </g>
     <g id="text_14">
      <!-- 1.2 -->
      <g transform="translate(34.696875 87.590537) scale(0.1 -0.1)">
       <use xlink:href="#DejaVuSans-31"/>
       <use xlink:href="#DejaVuSans-2e" transform="translate(63.623047 0)"/>
       <use xlink:href="#DejaVuSans-32" transform="translate(95.410156 0)"/>
      </g>
     </g>
    </g>
    <g id="ytick_8">
     <g id="line2d_14">
      <g>
       <use xlink:href="#m2effa77132" x="57.6" y="48.508538" style="stroke: #000000; stroke-width: 0.8"/>
      </g>
     </g>
     <g id="text_15">
      <!-- 1.4 -->
      <g transform="translate(34.696875 52.307756) scale(0.1 -0.1)">
       <use xlink:href="#DejaVuSans-31"/>
       <use xlink:href="#DejaVuSans-2e" transform="translate(63.623047 0)"/>
       <use xlink:href="#DejaVuSans-34" transform="translate(95.410156 0)"/>
      </g>
     </g>
    </g>
    <g id="text_16">
     <!-- Intensity ($^{\circ}C^{-1}$) -->
     <g transform="translate(28.596875 213.328) rotate(-90) scale(0.1 -0.1)">
      <defs>
       <path id="DejaVuSans-49" d="M 628 4666 
L 1259 4666 
L 1259 0 
L 628 0 
L 628 4666 
z
" transform="scale(0.015625)"/>
       <path id="DejaVuSans-6e" d="M 3513 2113 
L 3513 0 
L 2938 0 
L 2938 2094 
Q 2938 2591 2744 2837 
Q 2550 3084 2163 3084 
Q 1697 3084 1428 2787 
Q 1159 2491 1159 1978 
L 1159 0 
L 581 0 
L 581 3500 
L 1159 3500 
L 1159 2956 
Q 1366 3272 1645 3428 
Q 1925 3584 2291 3584 
Q 2894 3584 3203 3211 
Q 3513 2838 3513 2113 
z
" transform="scale(0.015625)"/>
       <path id="DejaVuSans-73" d="M 2834 3397 
L 2834 2853 
Q 2591 2978 2328 3040 
Q 2066 3103 1784 3103 
Q 1356 3103 1142 2972 
Q 928 2841 928 2578 
Q 928 2378 1081 2264 
Q 1234 2150 1697 2047 
L 1894 2003 
Q 2506 1872 2764 1633 
Q 3022 1394 3022 966 
Q 3022 478 2636 193 
Q 2250 -91 1575 -91 
Q 1294 -91 989 -36 
Q 684 19 347 128 
L 347 722 
Q 666 556 975 473 
Q 1284 391 1588 391 
Q 1994 391 2212 530 
Q 2431 669 2431 922 
Q 2431 1156 2273 1281 
Q 2116 1406 1581 1522 
L 1381 1569 
Q 847 1681 609 1914 
Q 372 2147 372 2553 
Q 372 3047 722 3315 
Q 1072 3584 1716 3584 
Q 2034 3584 2315 3537 
Q 2597 3491 2834 3397 
z
" transform="scale(0.015625)"/>
       <path id="DejaVuSans-69" d="M 603 3500 
L 1178 3500 
L 1178 0 
L 603 0 
L 603 3500 
z
M 603 4863 
L 1178 4863 
L 1178 4134 
L 603 4134 
L 603 4863 
z
" transform="scale(0.015625)"/>
       <path id="DejaVuSans-79" d="M 2059 -325 
Q 1816 -950 1584 -1140 
Q 1353 -1331 966 -1331 
L 506 -1331 
L 506 -850 
L 844 -850 
Q 1081 -850 1212 -737 
Q 1344 -625 1503 -206 
L 1606 56 
L 191 3500 
L 800 3500 
L 1894 763 
L 2988 3500 
L 3597 3500 
L 2059 -325 
z
" transform="scale(0.015625)"/>
       <path id="DejaVuSans-2212" d="M 678 2272 
L 4684 2272 
L 4684 1741 
L 678 1741 
L 678 2272 
z
" transform="scale(0.015625)"/>
      </defs>
      <use xlink:href="#DejaVuSans-49" transform="translate(0 0.684375)"/>
      <use xlink:href="#DejaVuSans-6e" transform="translate(29.492188 0.684375)"/>
      <use xlink:href="#DejaVuSans-74" transform="translate(92.871094 0.684375)"/>
      <use xlink:href="#DejaVuSans-65" transform="translate(132.080078 0.684375)"/>
      <use xlink:href="#DejaVuSans-6e" transform="translate(193.603516 0.684375)"/>
      <use xlink:href="#DejaVuSans-73" transform="translate(256.982422 0.684375)"/>
      <use xlink:href="#DejaVuSans-69" transform="translate(309.082031 0.684375)"/>
      <use xlink:href="#DejaVuSans-74" transform="translate(336.865234 0.684375)"/>
      <use xlink:href="#DejaVuSans-79" transform="translate(376.074219 0.684375)"/>
      <use xlink:href="#DejaVuSans-20" transform="translate(435.253906 0.684375)"/>
      <use xlink:href="#DejaVuSans-28" transform="translate(467.041016 0.684375)"/>
      <use xlink:href="#DejaVuSans-2218" transform="translate(507.011719 38.965625) scale(0.7)"/>
      <use xlink:href="#DejaVuSans-Oblique-43" transform="translate(553.564453 0.684375)"/>
      <use xlink:href="#DejaVuSans-2212" transform="translate(630.589193 38.965625) scale(0.7)"/>
      <use xlink:href="#DejaVuSans-31" transform="translate(689.241536 38.965625) scale(0.7)"/>
      <use xlink:href="#DejaVuSans-29" transform="translate(736.512044 0.684375)"/>
     </g>
    </g>
    <g id="text_17">
     <!-- 1e7 -->
     <g transform="translate(57.6 38.472) scale(0.1 -0.1)">
      <defs>
       <path id="DejaVuSans-37" d="M 525 4666 
L 3525 4666 
L 3525 4397 
L 1831 0 
L 1172 0 
L 2766 4134 
L 525 4134 
L 525 4666 
z
" transform="scale(0.015625)"/>
      </defs>
      <use xlink:href="#DejaVuSans-31"/>
      <use xlink:href="#DejaVuSans-65" transform="translate(63.623047 0)"/>
      <use xlink:href="#DejaVuSans-37" transform="translate(125.146484 0)"/>
     </g>
    </g>
   </g>
   <g id="line2d_15">
    <path d="M 73.832727 295.488 
L 184.108083 295.380035 
L 190.442014 295.010977 
L 194.339817 294.392029 
L 198.237621 293.082155 
L 199.861705 292.231135 
L 200.511339 291.775722 
L 200.998565 291.461617 
L 201.48579 291.059746 
L 201.973016 290.716798 
L 202.297833 290.33495 
L 202.947466 289.767162 
L 204.896368 287.503507 
L 205.383594 286.810377 
L 205.708411 286.334765 
L 206.520453 285.040592 
L 208.144538 281.979723 
L 208.95658 280.226081 
L 210.905482 275.143684 
L 211.879933 272.260287 
L 213.828834 265.374235 
L 216.42737 254.617221 
L 216.914595 252.310962 
L 217.889046 247.546728 
L 218.376272 245.089636 
L 220.162765 235.677954 
L 221.624441 227.433603 
L 222.111667 224.499311 
L 224.222977 212.096796 
L 228.12078 188.365245 
L 229.744865 178.448314 
L 231.044133 170.629561 
L 232.830626 160.014208 
L 234.454711 150.717813 
L 234.941936 147.935677 
L 236.241204 140.47875 
L 236.403613 139.939629 
L 237.053247 135.949411 
L 237.215655 135.523283 
L 238.352514 129.412217 
L 239.326965 124.621169 
L 239.651782 122.71387 
L 244.19922 101.850809 
L 244.361628 101.536087 
L 244.848854 99.229298 
L 245.660896 95.626397 
L 245.823304 95.516227 
L 246.31053 93.436836 
L 246.472938 93.041934 
L 246.797755 91.770695 
L 247.447389 89.159858 
L 248.584248 85.172551 
L 249.233882 82.958997 
L 249.396291 82.677882 
L 250.53315 79.075421 
L 250.695559 78.675403 
L 251.020376 77.504015 
L 251.507601 76.288699 
L 253.456503 71.107776 
L 253.943728 70.216974 
L 254.106137 69.353692 
L 254.268545 69.194214 
L 256.704672 64.169593 
L 257.354306 62.86122 
L 257.679123 62.183173 
L 257.841532 62.155123 
L 258.00394 61.73614 
L 258.166349 61.930019 
L 258.491166 60.976678 
L 259.628025 59.364873 
L 259.790433 58.97438 
L 259.952842 59.072114 
L 260.11525 58.531846 
L 260.277659 58.554956 
L 261.089701 57.565627 
L 261.25211 57.707376 
L 261.901744 56.722016 
L 262.226561 56.531224 
L 262.388969 56.452632 
L 262.551378 56.089925 
L 262.713786 56.121856 
L 263.201011 55.683114 
L 263.36342 55.588116 
L 263.525828 55.302149 
L 263.688237 55.382593 
L 263.850645 55.193125 
L 264.013054 55.23961 
L 264.175462 54.945087 
L 264.337871 55.151668 
L 264.500279 54.909275 
L 264.662688 54.867112 
L 264.825096 54.591377 
L 265.149913 54.691316 
L 265.799547 53.719451 
L 265.961956 54.395469 
L 266.286772 53.896659 
L 266.449181 53.748736 
L 266.611589 54.068398 
L 266.773998 53.755175 
L 266.936406 53.797162 
L 267.098815 54.128908 
L 267.261223 53.984778 
L 267.423632 53.670673 
L 267.748449 53.74362 
L 268.073266 53.583789 
L 268.398083 54.036467 
L 268.560491 53.785077 
L 268.7229 53.910684 
L 268.885308 53.568 
L 269.047717 53.916329 
L 269.210125 53.577791 
L 269.534942 53.993863 
L 269.69735 53.775198 
L 270.509393 54.024118 
L 270.671801 54.02597 
L 270.83421 54.301088 
L 270.996618 53.967136 
L 271.159027 54.214116 
L 271.321435 53.913507 
L 271.483844 54.303646 
L 271.646252 54.247635 
L 271.808661 54.631952 
L 272.295886 54.515166 
L 272.620703 54.901072 
L 272.783112 54.74768 
L 272.94552 55.250636 
L 273.107929 54.774406 
L 273.595154 55.445926 
L 273.919971 55.586881 
L 274.082379 55.529634 
L 274.407196 56.225234 
L 274.732013 56.258577 
L 275.05683 56.608758 
L 275.219239 56.534312 
L 275.544056 57.209095 
L 275.706464 56.979051 
L 275.868873 57.083223 
L 276.031281 57.428377 
L 276.19369 57.32491 
L 276.680915 57.977289 
L 277.330549 58.511735 
L 277.492957 58.351904 
L 277.817774 59.176815 
L 277.980183 59.287692 
L 278.142591 59.554165 
L 278.305 59.537935 
L 278.792225 60.334796 
L 279.117042 60.321742 
L 279.441859 61.066032 
L 279.929085 61.457671 
L 280.091493 61.891473 
L 280.253901 61.944838 
L 280.41631 62.36779 
L 280.741127 62.665312 
L 280.903535 63.00191 
L 281.065944 63.026696 
L 281.228352 63.237952 
L 281.390761 63.82444 
L 281.553169 63.962836 
L 281.715578 63.884068 
L 281.877986 64.422483 
L 282.040395 64.470732 
L 282.365212 64.851521 
L 282.52762 65.301818 
L 282.690029 65.334013 
L 283.339663 66.374679 
L 283.502071 66.516869 
L 283.989296 67.536365 
L 284.151705 67.558416 
L 284.476522 68.338078 
L 284.63893 68.386591 
L 284.801339 68.611078 
L 284.963747 69.267161 
L 285.126156 69.200124 
L 285.288564 69.363042 
L 285.450973 70.069315 
L 285.77579 70.240966 
L 285.938198 70.859385 
L 286.263015 70.894139 
L 286.425424 71.542724 
L 286.587832 71.57245 
L 286.750241 71.812461 
L 287.075058 72.468985 
L 287.237466 72.531877 
L 287.562283 73.437057 
L 287.724691 73.480102 
L 288.536734 75.208958 
L 288.699142 75.40416 
L 289.348776 76.948046 
L 289.511185 77.014642 
L 289.673593 76.922025 
L 289.836002 77.538327 
L 289.99841 77.589575 
L 290.485636 78.777635 
L 290.972861 79.800924 
L 291.135269 80.000624 
L 291.622495 81.171836 
L 291.947312 81.556595 
L 292.10972 82.046673 
L 292.272129 82.029119 
L 292.759354 83.413527 
L 292.921763 83.55166 
L 293.084171 84.186132 
L 293.408988 84.46072 
L 293.571397 85.178372 
L 293.733805 85.154644 
L 293.896214 85.791146 
L 294.058622 85.843453 
L 295.35789 88.857837 
L 295.520298 89.053921 
L 296.007524 90.331158 
L 296.332341 90.777926 
L 296.494749 91.398021 
L 296.657158 91.395992 
L 296.981975 92.256274 
L 297.144383 92.360006 
L 297.4692 93.546742 
L 297.631609 93.86808 
L 297.794017 93.712836 
L 298.281242 95.201152 
L 298.443651 95.361953 
L 299.255693 97.320853 
L 299.742919 98.287513 
L 300.067736 99.044417 
L 300.392553 99.605325 
L 300.71737 100.538201 
L 301.204595 101.629498 
L 301.367004 101.81385 
L 303.478314 106.927031 
L 303.803131 107.508932 
L 303.965539 107.62907 
L 304.127948 108.459274 
L 304.290356 108.56768 
L 304.452765 109.404676 
L 304.615173 109.093658 
L 305.427215 111.157083 
L 305.589624 111.30139 
L 305.914441 112.451256 
L 306.239258 112.829487 
L 306.726483 114.267613 
L 306.888892 114.310482 
L 307.213709 115.393134 
L 307.376117 115.562227 
L 307.863343 116.636852 
L 308.350568 118.081858 
L 308.837793 118.955636 
L 309.000202 119.589139 
L 309.16261 119.688371 
L 309.812244 121.385209 
L 310.949104 123.762298 
L 311.273921 124.625579 
L 311.436329 124.867002 
L 311.923555 126.186313 
L 313.710048 130.182882 
L 314.359682 131.866311 
L 314.52209 131.747144 
L 315.009316 133.216583 
L 315.171724 133.426869 
L 315.496541 134.281682 
L 316.146175 135.623045 
L 316.308583 135.882197 
L 316.795809 137.213681 
L 317.120626 137.967233 
L 318.582302 141.443028 
L 318.744711 141.465433 
L 319.394344 143.243861 
L 319.556753 143.299343 
L 319.88157 144.233102 
L 320.531204 145.510956 
L 321.505655 147.637185 
L 321.668063 148.292827 
L 321.830472 148.458656 
L 325.890684 157.204111 
L 326.053092 157.458411 
L 326.540317 158.775606 
L 326.702726 159.083977 
L 326.865134 159.116173 
L 327.839585 161.398175 
L 328.001994 161.590201 
L 328.164402 162.256076 
L 328.326811 162.215148 
L 328.489219 162.4541 
L 329.301262 164.570714 
L 329.626078 164.782323 
L 329.950895 165.775886 
L 330.113304 165.879353 
L 330.275712 166.401361 
L 330.438121 166.518853 
L 330.762938 167.331592 
L 330.925346 167.518061 
L 331.412572 168.650903 
L 331.737389 169.375788 
L 331.899797 169.865248 
L 332.062206 169.759488 
L 332.387023 170.662992 
L 332.549431 170.860487 
L 333.036657 171.858196 
L 333.199065 172.152278 
L 333.523882 172.857228 
L 333.68629 172.997742 
L 334.660741 175.119648 
L 334.82315 175.365834 
L 335.147967 176.208298 
L 335.310375 176.319792 
L 336.122418 177.819134 
L 336.609643 178.903462 
L 336.772051 178.96997 
L 337.259277 180.051211 
L 337.746502 181.06709 
L 337.908911 181.231067 
L 338.720953 182.90744 
L 338.883362 182.849752 
L 339.04577 183.520478 
L 339.208179 183.607803 
L 339.532996 184.275706 
L 341.969123 188.662767 
L 342.29394 189.25834 
L 342.456348 189.684292 
L 342.618757 189.716046 
L 343.268391 190.962234 
L 343.430799 191.159818 
L 343.918024 192.37725 
L 344.242841 192.682358 
L 344.567658 193.381133 
L 344.730067 193.449758 
L 345.054884 194.086789 
L 345.217292 194.202163 
L 345.379701 194.762366 
L 345.542109 194.874741 
L 346.029335 195.860631 
L 346.191743 196.028312 
L 346.51656 196.917879 
L 346.678969 196.815118 
L 347.003786 197.280674 
L 348.140645 199.287823 
L 348.303053 199.417223 
L 349.439913 201.490616 
L 350.414364 202.918333 
L 350.576772 203.441489 
L 350.73918 203.455073 
L 351.226406 204.282277 
L 351.551223 204.609878 
L 351.713631 205.286073 
L 351.87604 205.226797 
L 352.200857 205.837542 
L 352.363265 205.872031 
L 352.525674 206.338205 
L 352.688082 206.43735 
L 353.175308 207.271787 
L 353.824942 208.243828 
L 357.885153 214.251427 
L 358.047562 214.305674 
L 358.372379 214.903806 
L 358.534787 215.285212 
L 358.697196 215.274187 
L 360.646098 217.996871 
L 361.133323 218.614584 
L 361.782957 219.612645 
L 362.107774 220.052886 
L 362.432591 220.437116 
L 363.731859 222.182026 
L 363.894267 222.285228 
L 364.056676 222.586543 
L 364.219084 222.640967 
L 364.543901 223.273058 
L 365.031126 223.64582 
L 365.355943 224.182207 
L 365.518352 224.268826 
L 365.843169 224.853373 
L 366.980028 226.123818 
L 367.467254 226.875165 
L 367.792071 227.218907 
L 368.279296 227.835474 
L 368.441704 227.891662 
L 368.92893 228.659062 
L 369.091338 228.710751 
L 369.416155 229.161136 
L 369.903381 229.855413 
L 370.065789 229.822953 
L 370.228198 230.153288 
L 370.553015 230.383332 
L 371.04024 231.142529 
L 371.202649 231.146145 
L 371.527466 231.803816 
L 371.689874 231.703613 
L 371.852283 232.018336 
L 372.014691 232.071524 
L 373.963593 234.328387 
L 374.450818 234.904555 
L 374.613227 234.952805 
L 375.262861 235.699476 
L 375.750086 236.226336 
L 376.39972 236.935256 
L 376.724537 237.116962 
L 377.049354 237.535328 
L 377.698988 238.389877 
L 378.023805 238.617274 
L 378.673439 239.157101 
L 378.835847 239.492199 
L 378.998255 239.551033 
L 379.160664 239.882338 
L 379.323072 239.878369 
L 379.485481 240.197678 
L 379.647889 240.110353 
L 379.972706 240.641183 
L 380.62234 241.026118 
L 380.947157 241.54698 
L 381.109566 241.614546 
L 381.921608 242.522901 
L 382.084017 242.581383 
L 382.408834 242.959085 
L 382.571242 243.048527 
L 382.73365 243.357163 
L 382.896059 243.309002 
L 383.383284 243.968261 
L 383.545693 243.877231 
L 383.87051 244.405679 
L 384.520144 244.884378 
L 384.844961 245.291188 
L 385.007369 245.191779 
L 385.169778 245.531111 
L 385.332186 245.562689 
L 385.657003 245.828633 
L 386.469045 246.699412 
L 386.793862 246.846189 
L 387.118679 247.189931 
L 387.930722 247.760454 
L 388.255539 248.204929 
L 389.554806 249.231216 
L 389.717215 249.302841 
L 389.879623 249.604067 
L 390.042032 249.618886 
L 392.965385 252.158452 
L 393.127793 252.088504 
L 393.45261 252.381087 
L 393.615018 252.58952 
L 393.777427 252.601692 
L 394.102244 252.969868 
L 394.427061 253.139666 
L 395.726329 254.107561 
L 395.888737 254.366449 
L 396.051146 254.203089 
L 396.375963 254.670498 
L 396.863188 254.993688 
L 397.188005 255.164457 
L 398.487273 256.0572 
L 398.487273 256.0572 
" clip-path="url(#pd7d19ed568)" style="fill: none; stroke-dasharray: 1.85,0.8; stroke-dashoffset: 0; stroke: #8000ff; stroke-width: 0.5"/>
   </g>
   <g id="line2d_16">
    <path d="M 73.832727 295.488 
L 188.330704 295.377388 
L 194.989451 295.003038 
L 200.673748 294.023147 
L 202.297833 293.499198 
L 203.109875 293.204675 
L 204.409143 292.658145 
L 206.682861 291.328072 
L 207.819721 290.505189 
L 207.982129 290.48843 
L 208.469355 290.026226 
L 211.06789 287.438851 
L 212.367158 285.935452 
L 213.016792 285.02348 
L 213.991243 283.633427 
L 214.478468 282.870349 
L 215.128102 281.821391 
L 217.239412 278.110966 
L 217.726638 277.119255 
L 217.889046 276.910822 
L 218.701089 275.212574 
L 220.162765 272.188134 
L 221.624441 268.891664 
L 222.274075 267.453449 
L 225.684653 259.244381 
L 226.00947 258.344141 
L 227.14633 255.610784 
L 227.795963 253.881663 
L 228.12078 253.077569 
L 234.129894 237.74182 
L 234.779528 236.144128 
L 235.59157 234.156208 
L 235.916387 233.398686 
L 238.514923 227.066309 
L 238.677331 226.433513 
L 238.83974 226.371768 
L 239.814191 223.88539 
L 240.139008 223.119136 
L 241.113459 220.972708 
L 241.438276 220.110221 
L 241.763092 219.458195 
L 242.575135 217.531491 
L 243.06236 216.439136 
L 243.224769 216.263163 
L 244.686445 212.82221 
L 245.336079 211.611834 
L 245.823304 210.565523 
L 245.985713 210.295522 
L 246.148121 209.691833 
L 246.31053 209.592512 
L 246.797755 208.589511 
L 247.122572 207.796266 
L 248.097023 205.856507 
L 248.909065 204.354431 
L 249.071474 203.774117 
L 249.233882 203.814163 
L 249.721108 202.724366 
L 250.53315 201.084864 
L 250.857967 200.713424 
L 251.507601 199.357772 
L 251.832418 198.799863 
L 252.969277 197.084943 
L 253.294094 196.315073 
L 254.755771 193.890881 
L 254.918179 193.44129 
L 255.080588 193.341528 
L 255.405405 192.832927 
L 256.704672 190.694349 
L 256.867081 190.686411 
L 257.354306 189.605346 
L 257.516715 189.600671 
L 257.841532 189.018417 
L 258.166349 188.764734 
L 258.653574 187.683846 
L 258.815983 187.753177 
L 258.978391 187.089861 
L 259.140799 187.216438 
L 259.465616 186.8405 
L 261.576927 183.834759 
L 261.739335 183.868455 
L 261.901744 183.701302 
L 262.226561 183.08306 
L 262.388969 182.952425 
L 262.551378 182.965656 
L 262.876194 182.356852 
L 263.201011 182.027311 
L 263.850645 181.228332 
L 264.013054 181.223128 
L 264.175462 181.081732 
L 264.825096 180.097784 
L 264.987505 180.084994 
L 265.312322 179.693884 
L 265.47473 179.535464 
L 265.799547 179.042035 
L 265.961956 178.698469 
L 266.124364 178.742396 
L 266.449181 178.262462 
L 266.611589 178.245261 
L 266.773998 177.981875 
L 266.936406 178.03083 
L 267.098815 177.937507 
L 267.261223 177.477949 
L 267.423632 177.464012 
L 267.58604 177.181133 
L 267.748449 177.200891 
L 267.910857 177.096719 
L 268.235674 176.678353 
L 268.398083 176.486591 
L 268.560491 176.46992 
L 268.885308 176.110918 
L 269.047717 175.884138 
L 269.210125 175.850972 
L 269.534942 175.361512 
L 269.69735 175.31635 
L 269.859759 175.139583 
L 270.184576 175.084806 
L 270.509393 174.633892 
L 270.996618 174.420961 
L 271.321435 174.004095 
L 271.483844 174.052785 
L 271.808661 173.682051 
L 272.783112 172.930263 
L 273.270337 172.612895 
L 273.919971 172.160834 
L 274.244788 172.125728 
L 274.407196 171.869663 
L 274.569605 171.895596 
L 274.894422 171.358063 
L 275.05683 171.553618 
L 275.219239 171.230604 
L 275.381647 171.436655 
L 275.706464 171.068744 
L 275.868873 170.919498 
L 276.031281 170.97939 
L 276.356098 170.689189 
L 276.680915 170.678605 
L 277.005732 170.123518 
L 277.16814 170.354709 
L 277.330549 170.309017 
L 277.492957 170.038751 
L 277.817774 170.039633 
L 278.142591 169.850253 
L 279.604268 169.094672 
L 279.766676 169.278672 
L 280.091493 168.714765 
L 280.253901 168.879447 
L 280.578718 168.569753 
L 280.741127 168.693948 
L 280.903535 168.470432 
L 281.065944 168.518681 
L 281.553169 168.379314 
L 282.365212 168.275759 
L 282.52762 168.016254 
L 282.690029 168.132335 
L 282.852437 167.839664 
L 283.014846 167.930252 
L 283.502071 167.624615 
L 283.66448 167.774302 
L 284.151705 167.56878 
L 284.801339 167.429413 
L 284.963747 167.18605 
L 285.126156 167.458169 
L 285.450973 167.330533 
L 285.77579 167.303895 
L 286.100607 167.153855 
L 286.587832 167.225391 
L 286.750241 167.163646 
L 286.912649 167.231565 
L 287.237466 167.017134 
L 288.211917 166.904406 
L 288.374325 166.838868 
L 288.536734 166.976823 
L 288.699142 166.699942 
L 288.861551 166.911639 
L 289.023959 166.719259 
L 289.186368 166.724375 
L 289.348776 166.913932 
L 289.673593 166.714231 
L 289.99841 166.861978 
L 290.160819 166.693856 
L 290.323227 166.862684 
L 290.485636 166.726228 
L 290.648044 166.750925 
L 290.810452 166.544168 
L 290.972861 166.54408 
L 291.135269 166.76054 
L 291.297678 166.652928 
L 291.622495 166.716878 
L 291.784903 166.483306 
L 292.434537 166.7945 
L 292.596946 166.521058 
L 293.084171 166.819286 
L 293.24658 166.482688 
L 293.408988 166.876091 
L 293.571397 166.738665 
L 293.896214 166.788149 
L 294.058622 166.618968 
L 294.545847 166.910756 
L 294.708256 166.747044 
L 295.195481 166.697737 
L 295.35789 167.098549 
L 295.520298 166.822726 
L 296.332341 167.049418 
L 296.494749 166.679037 
L 296.657158 167.048889 
L 296.981975 167.226185 
L 297.144383 166.919401 
L 297.631609 167.127834 
L 298.118834 167.134537 
L 298.281242 167.302748 
L 298.443651 167.117955 
L 298.768468 167.45711 
L 298.930876 167.346411 
L 300.71737 167.801647 
L 301.042187 167.674364 
L 301.204595 167.938985 
L 301.367004 167.788327 
L 301.529412 167.969504 
L 302.016637 167.866832 
L 302.179046 168.259088 
L 302.341454 168.271172 
L 302.503863 168.005669 
L 302.82868 168.400043 
L 302.991088 168.025604 
L 303.478314 168.458171 
L 303.640722 168.310865 
L 303.965539 168.703298 
L 304.290356 168.564549 
L 304.777582 168.991823 
L 304.93999 168.686451 
L 305.102398 169.027194 
L 305.427215 169.10808 
L 305.589624 169.253974 
L 305.752032 168.961303 
L 306.076849 169.28026 
L 306.401666 169.271704 
L 306.726483 169.530062 
L 306.888892 169.467611 
L 307.213709 169.814706 
L 307.700934 169.8514 
L 308.025751 170.05357 
L 308.18816 169.918261 
L 308.350568 170.19823 
L 308.512976 169.969509 
L 308.675385 170.309635 
L 308.837793 170.268178 
L 309.16261 170.482785 
L 309.325019 170.316074 
L 309.649836 170.712829 
L 310.137061 170.601953 
L 310.29947 170.692012 
L 310.624287 171.026316 
L 310.949104 171.08418 
L 311.273921 171.47776 
L 311.923555 171.52248 
L 313.547639 172.106675 
L 313.710048 172.502195 
L 313.872456 172.327545 
L 314.52209 172.640415 
L 314.846907 172.795395 
L 315.009316 173.084096 
L 315.171724 172.906624 
L 315.496541 173.338662 
L 315.658949 173.187739 
L 315.983766 173.406669 
L 316.146175 173.375532 
L 316.308583 173.544448 
L 316.470992 173.522749 
L 316.958217 173.993422 
L 317.120626 173.921004 
L 317.445443 174.246576 
L 317.607851 173.934058 
L 317.77026 174.099094 
L 318.095077 174.559005 
L 318.257485 174.356746 
L 318.419894 174.609194 
L 318.582302 174.596846 
L 319.231936 175.012741 
L 319.394344 174.89816 
L 320.043978 175.578324 
L 320.206387 175.433224 
L 320.368795 175.529017 
L 320.531204 175.795843 
L 320.693612 175.598524 
L 321.018429 175.933357 
L 321.343246 176.147083 
L 321.505655 176.066991 
L 321.668063 176.285391 
L 321.830472 176.268808 
L 322.804922 176.978169 
L 322.967331 177.011952 
L 323.129739 177.17046 
L 323.292148 177.13209 
L 323.454556 177.362398 
L 323.616965 177.38886 
L 323.779373 177.592618 
L 324.10419 177.522229 
L 325.078641 178.325265 
L 325.24105 178.043709 
L 325.565867 178.511294 
L 325.728275 178.571892 
L 326.053092 178.890142 
L 326.2155 178.746453 
L 326.377909 178.990081 
L 326.540317 178.957092 
L 326.702726 179.194015 
L 326.865134 179.047768 
L 327.027543 179.051385 
L 327.35236 179.445493 
L 328.164402 180.113926 
L 328.326811 179.887763 
L 329.138853 180.673334 
L 329.46367 180.75669 
L 329.626078 181.019017 
L 329.788487 180.951539 
L 331.412572 181.858836 
L 331.57498 181.872155 
L 331.737389 182.339122 
L 331.899797 182.237773 
L 332.549431 182.734113 
L 332.71184 182.666723 
L 333.848699 183.484754 
L 334.335924 183.659757 
L 335.310375 184.408193 
L 335.635192 184.615391 
L 335.797601 184.836438 
L 335.960009 184.742321 
L 336.447235 185.182297 
L 336.609643 185.167919 
L 336.772051 185.413046 
L 336.93446 185.426189 
L 337.096868 185.850288 
L 337.259277 185.641326 
L 337.584094 186.011619 
L 337.746502 186.018234 
L 337.908911 186.361624 
L 338.071319 186.297145 
L 338.233728 186.428926 
L 338.396136 186.405639 
L 338.558545 186.593785 
L 338.720953 186.590609 
L 338.883362 186.836442 
L 339.208179 186.865815 
L 339.370587 187.049109 
L 339.532996 186.984542 
L 339.857813 187.343456 
L 340.020221 187.376533 
L 340.182629 187.849587 
L 340.345038 187.474884 
L 340.669855 187.96161 
L 340.832263 187.861319 
L 340.994672 188.096302 
L 341.319489 188.245372 
L 341.644306 188.358541 
L 341.969123 188.871817 
L 342.29394 188.724335 
L 342.618757 189.269984 
L 343.268391 189.607022 
L 343.755616 189.90675 
L 344.242841 190.197127 
L 344.567658 190.597498 
L 344.730067 190.410852 
L 344.892475 190.548191 
L 345.054884 190.891668 
L 345.542109 191.012777 
L 346.354152 191.576772 
L 346.841377 191.93842 
L 347.003786 191.936303 
L 347.328602 192.192809 
L 347.491011 192.313212 
L 347.653419 192.572099 
L 347.815828 192.525349 
L 348.140645 192.790676 
L 348.303053 193.069145 
L 348.465462 192.973352 
L 349.602321 193.913197 
L 349.76473 193.802586 
L 350.414364 194.394278 
L 351.226406 194.821376 
L 351.388814 195.07259 
L 351.551223 195.074707 
L 351.87604 195.415891 
L 352.038448 195.292931 
L 352.363265 195.672662 
L 352.525674 195.687833 
L 352.688082 195.874126 
L 352.850491 195.861777 
L 353.175308 196.245477 
L 353.337716 196.184085 
L 353.662533 196.577929 
L 353.824942 196.57396 
L 353.98735 196.778336 
L 354.149759 196.716679 
L 354.474575 197.11167 
L 354.799392 197.191321 
L 355.124209 197.525449 
L 355.449026 197.588693 
L 356.423477 198.408047 
L 356.585886 198.520511 
L 356.748294 198.436362 
L 357.073111 198.916472 
L 357.23552 198.801803 
L 357.560337 199.053369 
L 358.047562 199.442803 
L 358.20997 199.45621 
L 358.859604 199.883573 
L 359.022013 199.948141 
L 359.184421 200.424194 
L 359.34683 200.301586 
L 359.509238 200.58623 
L 360.321281 200.891073 
L 360.483689 201.119353 
L 360.646098 201.113266 
L 360.808506 201.370037 
L 360.970915 201.311026 
L 361.295732 201.637039 
L 361.620548 201.731597 
L 361.945365 201.995865 
L 362.432591 202.473153 
L 363.082225 202.650096 
L 363.56945 203.132853 
L 363.731859 203.175192 
L 364.056676 203.386007 
L 364.868718 203.982903 
L 365.031126 203.90828 
L 365.193535 204.058144 
L 365.355943 204.374983 
L 365.518352 204.273898 
L 365.843169 204.59206 
L 366.005577 204.543987 
L 366.330394 204.890288 
L 366.492803 204.916044 
L 366.655211 205.13859 
L 366.81762 205.141325 
L 367.142437 205.408416 
L 367.629662 205.753658 
L 367.954479 205.991375 
L 368.116888 205.963678 
L 368.441704 206.298688 
L 368.604113 206.245058 
L 368.766521 206.612617 
L 368.92893 206.535612 
L 369.253747 206.751631 
L 369.740972 207.096167 
L 369.903381 207.103136 
L 370.065789 207.300278 
L 370.228198 207.315185 
L 370.553015 207.662015 
L 370.715423 207.660515 
L 371.365057 208.145477 
L 371.527466 208.1468 
L 372.014691 208.602742 
L 372.177099 208.516917 
L 372.826733 209.093173 
L 373.313959 209.263765 
L 373.638776 209.555554 
L 374.28841 210.04766 
L 374.450818 210.014141 
L 374.775635 210.260062 
L 374.938044 210.334774 
L 375.100452 210.608127 
L 375.425269 210.711594 
L 375.912494 211.107731 
L 376.074903 211.314753 
L 376.237311 211.138692 
L 376.39972 211.361326 
L 376.562128 211.30408 
L 377.536579 212.080389 
L 377.698988 212.108263 
L 377.861396 212.348715 
L 378.023805 212.190736 
L 378.186213 212.536596 
L 378.348622 212.418134 
L 378.51103 212.800423 
L 378.998255 212.787103 
L 379.647889 213.388322 
L 379.972706 213.636801 
L 380.135115 213.475647 
L 380.459932 213.906273 
L 381.109566 214.136141 
L 381.434383 214.481206 
L 381.596791 214.421314 
L 381.921608 214.855556 
L 382.084017 214.796987 
L 382.246425 214.995188 
L 382.571242 215.060902 
L 382.896059 215.505642 
L 383.220876 215.309381 
L 383.383284 215.549392 
L 383.545693 215.557154 
L 383.87051 215.95144 
L 384.032918 215.997395 
L 384.357735 216.303032 
L 384.520144 216.343167 
L 384.682552 216.569065 
L 384.844961 216.443017 
L 385.007369 216.745479 
L 385.169778 216.696347 
L 385.494595 217.004278 
L 385.657003 216.949766 
L 385.819412 217.162345 
L 385.98182 217.09566 
L 386.306637 217.41885 
L 386.469045 217.572595 
L 386.631454 217.54975 
L 387.118679 217.995724 
L 387.281088 217.929392 
L 388.09313 218.592532 
L 388.255539 218.388068 
L 388.905173 218.949947 
L 389.067581 218.968029 
L 389.22999 219.122656 
L 389.392398 219.43879 
L 389.554806 219.347143 
L 389.879623 219.473984 
L 390.529257 219.86677 
L 390.854074 220.005784 
L 391.178891 220.381986 
L 391.3413 220.185285 
L 391.666117 220.651106 
L 391.828525 220.651547 
L 392.153342 220.852747 
L 392.315751 220.951539 
L 392.478159 220.912992 
L 392.802976 221.293341 
L 393.45261 221.567223 
L 393.615018 221.841635 
L 393.777427 221.74055 
L 394.102244 221.837137 
L 394.264652 222.031104 
L 394.427061 222.018578 
L 394.751878 222.422919 
L 394.914286 222.385784 
L 395.076695 222.595364 
L 395.239103 222.601714 
L 395.56392 222.758017 
L 396.375963 223.154155 
L 397.025596 223.626503 
L 397.188005 223.582929 
L 397.350413 223.726088 
L 397.512822 223.605862 
L 397.837639 224.079798 
L 398.162456 224.171269 
L 398.324864 224.484315 
L 398.487273 224.401313 
L 398.487273 224.401313 
" clip-path="url(#pd7d19ed568)" style="fill: none; stroke-dasharray: 1.85,0.8; stroke-dashoffset: 0; stroke: #80ffb4; stroke-width: 0.5"/>
   </g>
   <g id="line2d_17">
    <path d="M 73.832727 295.488 
L 200.836156 295.381005 
L 207.007678 294.92374 
L 210.255848 294.245076 
L 211.230299 293.913947 
L 213.341609 292.921707 
L 214.478468 292.180239 
L 216.102553 290.798918 
L 217.889046 288.694918 
L 218.53868 287.751457 
L 220.325173 284.617023 
L 222.923709 278.318958 
L 226.171879 267.580379 
L 227.958372 260.301189 
L 229.25764 254.730743 
L 230.232091 250.106318 
L 230.881724 247.040156 
L 236.566021 218.005515 
L 237.540472 212.692722 
L 237.702881 212.030111 
L 238.190106 209.180321 
L 239.164557 203.921423 
L 239.976599 199.683784 
L 243.874403 178.958326 
L 244.361628 176.646422 
L 245.011262 173.138873 
L 250.695559 145.572525 
L 250.857967 145.079448 
L 251.507601 141.946161 
L 256.867081 120.295147 
L 257.516715 118.004324 
L 257.841532 116.572814 
L 258.166349 115.560551 
L 258.653574 113.760688 
L 259.140799 112.0949 
L 259.303208 111.766329 
L 260.602476 107.25225 
L 260.764884 107.125761 
L 261.414518 104.889362 
L 261.739335 104.098146 
L 262.713786 101.224099 
L 262.876194 100.894469 
L 263.36342 99.274549 
L 263.688237 98.466573 
L 264.662688 95.920126 
L 265.149913 94.807396 
L 265.799547 93.058781 
L 265.961956 92.956814 
L 266.611589 91.177944 
L 266.773998 91.073948 
L 267.098815 89.977977 
L 267.261223 90.016259 
L 267.423632 89.360969 
L 267.58604 89.248594 
L 268.073266 88.027545 
L 268.235674 88.065121 
L 268.398083 87.79265 
L 268.7229 86.750485 
L 269.047717 86.278136 
L 269.859759 84.818223 
L 270.022167 84.71308 
L 270.346984 84.033887 
L 270.509393 83.438666 
L 270.671801 83.536488 
L 270.996618 82.713605 
L 271.159027 82.753563 
L 271.483844 82.18357 
L 272.133478 81.221673 
L 272.620703 80.686962 
L 272.94552 80.018883 
L 273.595154 78.952637 
L 273.757562 78.872369 
L 273.919971 78.626536 
L 274.082379 78.63571 
L 274.732013 77.873955 
L 274.894422 77.869632 
L 275.05683 77.43045 
L 275.219239 77.328924 
L 275.381647 76.887007 
L 275.544056 77.388552 
L 275.868873 76.679015 
L 276.356098 76.293462 
L 276.518507 76.318337 
L 276.843323 75.85922 
L 277.005732 75.89856 
L 277.16814 75.671956 
L 277.330549 75.651404 
L 277.492957 75.25262 
L 277.817774 75.347002 
L 278.142591 75.069591 
L 278.305 75.099405 
L 278.629817 74.556315 
L 278.792225 74.519709 
L 278.954634 74.685009 
L 279.604268 74.217159 
L 279.766676 73.826667 
L 279.929085 74.312246 
L 280.091493 73.970621 
L 280.253901 74.256676 
L 280.741127 73.710763 
L 281.065944 73.640903 
L 281.228352 73.364903 
L 281.390761 73.738901 
L 281.553169 73.188754 
L 281.877986 73.543875 
L 282.040395 73.363316 
L 282.365212 73.348144 
L 282.52762 73.220156 
L 282.690029 73.364374 
L 282.852437 73.229153 
L 283.014846 72.922987 
L 283.177254 73.201103 
L 283.339663 73.081406 
L 283.502071 73.28243 
L 283.826888 73.206396 
L 283.989296 73.121099 
L 284.314113 73.499243 
L 284.63893 73.250234 
L 284.963747 73.094549 
L 285.288564 73.325916 
L 285.450973 73.279607 
L 285.613381 73.356083 
L 285.77579 73.599093 
L 285.938198 73.322829 
L 286.263015 73.694797 
L 286.425424 73.445789 
L 286.587832 73.607296 
L 286.750241 73.478514 
L 286.912649 73.959595 
L 287.237466 73.786356 
L 287.399874 73.914786 
L 287.724691 73.866007 
L 288.049508 74.26038 
L 288.211917 73.931104 
L 288.374325 74.341531 
L 288.699142 74.572986 
L 288.861551 74.313569 
L 289.186368 74.93384 
L 289.348776 74.749841 
L 289.673593 75.075589 
L 289.99841 75.38202 
L 290.160819 75.246005 
L 290.323227 75.282082 
L 290.485636 75.51089 
L 290.648044 75.512213 
L 290.810452 75.326538 
L 291.135269 75.99991 
L 291.297678 75.92167 
L 291.460086 76.405397 
L 291.784903 76.362969 
L 292.10972 76.729205 
L 292.434537 76.888154 
L 292.596946 77.051866 
L 292.759354 76.876951 
L 293.084171 77.560996 
L 293.408988 77.579343 
L 293.571397 77.836555 
L 293.733805 77.774545 
L 294.058622 78.546709 
L 294.545847 78.72718 
L 295.033073 79.312081 
L 295.35789 79.432836 
L 295.682707 79.856229 
L 296.007524 80.375504 
L 296.169932 80.297264 
L 296.657158 81.106298 
L 296.819566 80.944968 
L 297.4692 81.60555 
L 297.794017 82.370304 
L 297.956425 81.942059 
L 298.118834 82.693318 
L 298.281242 82.533751 
L 298.606059 83.217708 
L 298.768468 83.238348 
L 299.093285 83.787084 
L 299.418102 83.914631 
L 299.58051 84.445196 
L 299.742919 84.552985 
L 300.067736 85.079845 
L 300.230144 85.01025 
L 300.392553 85.591622 
L 300.554961 85.575039 
L 301.042187 86.025159 
L 301.529412 87.032041 
L 301.69182 86.973736 
L 301.854229 87.699062 
L 302.016637 87.465137 
L 302.341454 88.171587 
L 302.666271 88.52415 
L 303.315905 89.421127 
L 303.478314 89.337947 
L 304.127948 90.795479 
L 304.290356 90.876188 
L 305.102398 92.283266 
L 305.264807 92.400846 
L 305.914441 93.274006 
L 306.076849 93.913065 
L 306.239258 93.993422 
L 306.888892 95.075016 
L 307.0513 95.037439 
L 307.213709 95.622693 
L 307.376117 95.711517 
L 307.538526 96.160667 
L 307.700934 96.17919 
L 308.025751 97.084282 
L 308.18816 97.041766 
L 308.512976 97.409501 
L 309.325019 99.007987 
L 309.974653 100.013899 
L 310.137061 100.540318 
L 310.29947 100.627555 
L 311.923555 103.397782 
L 312.085963 104.125578 
L 312.41078 104.295376 
L 312.573188 104.663464 
L 312.735597 104.625447 
L 313.060414 105.547915 
L 313.385231 106.030495 
L 313.710048 106.762789 
L 314.359682 107.939117 
L 314.52209 107.917507 
L 314.846907 108.681555 
L 315.009316 108.782817 
L 315.496541 109.979962 
L 316.308583 111.074963 
L 316.470992 111.821899 
L 316.795809 112.362078 
L 318.907119 116.489723 
L 319.069527 116.911705 
L 319.231936 116.796859 
L 319.719161 117.847581 
L 321.505655 121.11653 
L 321.830472 121.863996 
L 322.155289 122.561184 
L 322.317697 122.798813 
L 322.480106 123.262958 
L 322.642514 123.36369 
L 323.292148 124.966499 
L 323.454556 124.822369 
L 323.779373 125.741309 
L 323.941782 125.739721 
L 324.10419 126.278666 
L 324.266599 126.308391 
L 324.429007 127.0675 
L 324.591416 127.133038 
L 324.916233 127.748723 
L 325.565867 129.064947 
L 325.728275 129.328597 
L 325.890684 129.815852 
L 326.053092 129.921613 
L 326.377909 130.816384 
L 326.540317 130.713887 
L 327.027543 131.955665 
L 327.35236 132.417517 
L 328.001994 133.768406 
L 328.489219 134.773965 
L 329.788487 137.172841 
L 329.950895 137.36672 
L 330.438121 138.502914 
L 330.600529 138.678358 
L 330.925346 139.390805 
L 332.062206 141.562284 
L 332.224614 141.734993 
L 332.549431 142.6826 
L 333.199065 143.835377 
L 333.361473 144.304903 
L 333.523882 144.376262 
L 333.848699 145.074685 
L 334.173516 145.823474 
L 334.335924 145.926587 
L 334.660741 146.675288 
L 334.82315 146.8936 
L 335.310375 148.110592 
L 335.472784 147.998745 
L 336.122418 149.446133 
L 336.447235 150.020801 
L 336.609643 150.243436 
L 337.096868 151.369133 
L 337.259277 151.335967 
L 337.908911 152.759362 
L 338.071319 152.910373 
L 338.396136 153.908434 
L 338.720953 154.334209 
L 338.883362 154.970005 
L 339.04577 154.814232 
L 339.208179 155.157268 
L 339.370587 155.226687 
L 339.695404 156.117666 
L 339.857813 156.364645 
L 340.020221 156.839375 
L 340.182629 156.933845 
L 341.969123 160.485674 
L 342.131531 160.378238 
L 342.29394 161.243724 
L 342.618757 161.371889 
L 342.781165 161.930063 
L 342.943574 162.018005 
L 343.918024 164.118565 
L 344.40525 164.750127 
L 344.892475 165.820077 
L 345.217292 166.152265 
L 345.542109 166.839309 
L 346.029335 167.747929 
L 346.354152 168.193374 
L 346.51656 168.786301 
L 346.678969 168.909261 
L 347.328602 170.098908 
L 347.491011 170.271794 
L 347.653419 170.698804 
L 347.815828 170.778278 
L 348.62787 172.446625 
L 348.790279 172.494168 
L 349.602321 174.11206 
L 349.927138 174.472297 
L 350.576772 175.749269 
L 350.901589 176.32579 
L 351.388814 177.068934 
L 351.87604 177.951973 
L 352.038448 178.408885 
L 352.363265 178.679151 
L 352.525674 178.871619 
L 352.850491 179.507679 
L 353.98735 181.505831 
L 354.799392 182.757135 
L 354.961801 183.308517 
L 355.286618 183.535914 
L 356.910703 186.267419 
L 357.073111 186.314345 
L 357.560337 187.314083 
L 357.885153 187.771083 
L 358.534787 188.850736 
L 359.184421 189.840506 
L 359.509238 190.293713 
L 359.834055 190.990725 
L 362.270182 194.600153 
L 362.432591 195.145008 
L 362.757408 195.344002 
L 363.082225 195.872803 
L 363.56945 196.741465 
L 363.731859 196.801358 
L 364.70631 198.308903 
L 365.031126 199.052399 
L 366.005577 200.264892 
L 366.330394 200.811422 
L 366.492803 200.780461 
L 366.980028 201.830477 
L 367.467254 202.363159 
L 367.954479 202.994103 
L 368.604113 204.101365 
L 368.766521 204.159758 
L 371.527466 208.0922 
L 371.689874 208.130217 
L 372.339508 209.055156 
L 372.501916 209.18235 
L 372.664325 209.622679 
L 372.826733 209.65558 
L 373.15155 210.107817 
L 374.450818 211.843642 
L 374.613227 211.892509 
L 375.587677 213.46515 
L 375.912494 213.779343 
L 376.237311 214.173011 
L 376.562128 214.605049 
L 376.886945 214.826889 
L 377.049354 215.301619 
L 377.211762 215.359218 
L 377.698988 216.097157 
L 378.186213 216.633632 
L 378.348622 216.967143 
L 378.51103 217.020155 
L 379.323072 218.146028 
L 379.647889 218.329323 
L 379.972706 218.877088 
L 380.459932 219.456078 
L 381.596791 220.737813 
L 382.246425 221.634349 
L 382.408834 221.643258 
L 382.73365 222.156534 
L 383.058467 222.347061 
L 383.87051 223.362147 
L 384.357735 224.139162 
L 384.682552 224.258065 
L 385.657003 225.425307 
L 386.144228 226.154867 
L 386.306637 226.086947 
L 386.793862 226.782283 
L 387.118679 226.909036 
L 387.443496 227.470209 
L 387.930722 227.985602 
L 388.255539 228.316378 
L 388.417947 228.31188 
L 388.742764 228.963641 
L 388.905173 228.942736 
L 389.22999 229.283303 
L 389.879623 230.112889 
L 390.20444 230.26831 
L 390.529257 230.696554 
L 391.3413 231.499414 
L 391.666117 231.980936 
L 392.153342 232.372487 
L 392.478159 232.714641 
L 393.45261 233.677597 
L 393.615018 233.698943 
L 395.239103 235.466169 
L 395.726329 235.860807 
L 398.000047 238.081946 
L 398.162456 238.072861 
L 398.324864 238.454444 
L 398.487273 238.421278 
L 398.487273 238.421278 
" clip-path="url(#pd7d19ed568)" style="fill: none; stroke-dasharray: 1.85,0.8; stroke-dashoffset: 0; stroke: #ff0000; stroke-width: 0.5"/>
   </g>
   <g id="patch_3">
    <path d="M 57.6 307.584 
L 57.6 41.472 
" style="fill: none; stroke: #000000; stroke-width: 0.8; stroke-linejoin: miter; stroke-linecap: square"/>
   </g>
   <g id="patch_4">
    <path d="M 414.72 307.584 
L 414.72 41.472 
" style="fill: none; stroke: #000000; stroke-width: 0.8; stroke-linejoin: miter; stroke-linecap: square"/>
   </g>
   <g id="patch_5">
    <path d="M 57.6 307.584 
L 414.72 307.584 
" style="fill: none; stroke: #000000; stroke-width: 0.8; stroke-linejoin: miter; stroke-linecap: square"/>
   </g>
   <g id="patch_6">
    <path d="M 57.6 41.472 
L 414.72 41.472 
" style="fill: none; stroke: #000000; stroke-width: 0.8; stroke-linejoin: miter; stroke-linecap: square"/>
   </g>
   <g id="text_18">
    <!-- Heating Rate ($^{\circ}C.s^{-1}$) -->
    <g transform="translate(271.872 68.0832) scale(0.12 -0.12)">
     <defs>
      <path id="DejaVuSans-48" d="M 628 4666 
L 1259 4666 
L 1259 2753 
L 3553 2753 
L 3553 4666 
L 4184 4666 
L 4184 0 
L 3553 0 
L 3553 2222 
L 1259 2222 
L 1259 0 
L 628 0 
L 628 4666 
z
" transform="scale(0.015625)"/>
      <path id="DejaVuSans-67" d="M 2906 1791 
Q 2906 2416 2648 2759 
Q 2391 3103 1925 3103 
Q 1463 3103 1205 2759 
Q 947 2416 947 1791 
Q 947 1169 1205 825 
Q 1463 481 1925 481 
Q 2391 481 2648 825 
Q 2906 1169 2906 1791 
z
M 3481 434 
Q 3481 -459 3084 -895 
Q 2688 -1331 1869 -1331 
Q 1566 -1331 1297 -1286 
Q 1028 -1241 775 -1147 
L 775 -588 
Q 1028 -725 1275 -790 
Q 1522 -856 1778 -856 
Q 2344 -856 2625 -561 
Q 2906 -266 2906 331 
L 2906 616 
Q 2728 306 2450 153 
Q 2172 0 1784 0 
Q 1141 0 747 490 
Q 353 981 353 1791 
Q 353 2603 747 3093 
Q 1141 3584 1784 3584 
Q 2172 3584 2450 3431 
Q 2728 3278 2906 2969 
L 2906 3500 
L 3481 3500 
L 3481 434 
z
" transform="scale(0.015625)"/>
      <path id="DejaVuSans-52" d="M 2841 2188 
Q 3044 2119 3236 1894 
Q 3428 1669 3622 1275 
L 4263 0 
L 3584 0 
L 2988 1197 
Q 2756 1666 2539 1819 
Q 2322 1972 1947 1972 
L 1259 1972 
L 1259 0 
L 628 0 
L 628 4666 
L 2053 4666 
Q 2853 4666 3247 4331 
Q 3641 3997 3641 3322 
Q 3641 2881 3436 2590 
Q 3231 2300 2841 2188 
z
M 1259 4147 
L 1259 2491 
L 2053 2491 
Q 2509 2491 2742 2702 
Q 2975 2913 2975 3322 
Q 2975 3731 2742 3939 
Q 2509 4147 2053 4147 
L 1259 4147 
z
" transform="scale(0.015625)"/>
      <path id="DejaVuSans-Oblique-73" d="M 3200 3397 
L 3091 2853 
Q 2863 2978 2609 3040 
Q 2356 3103 2088 3103 
Q 1634 3103 1373 2948 
Q 1113 2794 1113 2528 
Q 1113 2219 1719 2053 
Q 1766 2041 1788 2034 
L 1972 1978 
Q 2547 1819 2739 1644 
Q 2931 1469 2931 1166 
Q 2931 609 2489 259 
Q 2047 -91 1331 -91 
Q 1053 -91 747 -37 
Q 441 16 72 128 
L 184 722 
Q 500 559 806 475 
Q 1113 391 1394 391 
Q 1816 391 2080 572 
Q 2344 753 2344 1031 
Q 2344 1331 1650 1516 
L 1591 1531 
L 1394 1581 
Q 956 1697 753 1886 
Q 550 2075 550 2369 
Q 550 2928 970 3256 
Q 1391 3584 2113 3584 
Q 2397 3584 2667 3537 
Q 2938 3491 3200 3397 
z
" transform="scale(0.015625)"/>
     </defs>
     <use xlink:href="#DejaVuSans-48" transform="translate(0 0.684375)"/>
     <use xlink:href="#DejaVuSans-65" transform="translate(75.195312 0.684375)"/>
     <use xlink:href="#DejaVuSans-61" transform="translate(136.71875 0.684375)"/>
     <use xlink:href="#DejaVuSans-74" transform="translate(197.998047 0.684375)"/>
     <use xlink:href="#DejaVuSans-69" transform="translate(237.207031 0.684375)"/>
     <use xlink:href="#DejaVuSans-6e" transform="translate(264.990234 0.684375)"/>
     <use xlink:href="#DejaVuSans-67" transform="translate(328.369141 0.684375)"/>
     <use xlink:href="#DejaVuSans-20" transform="translate(391.845703 0.684375)"/>
     <use xlink:href="#DejaVuSans-52" transform="translate(423.632812 0.684375)"/>
     <use xlink:href="#DejaVuSans-61" transform="translate(493.115234 0.684375)"/>
     <use xlink:href="#DejaVuSans-74" transform="translate(554.394531 0.684375)"/>
     <use xlink:href="#DejaVuSans-65" transform="translate(593.603516 0.684375)"/>
     <use xlink:href="#DejaVuSans-20" transform="translate(655.126953 0.684375)"/>
     <use xlink:href="#DejaVuSans-28" transform="translate(686.914062 0.684375)"/>
     <use xlink:href="#DejaVuSans-2218" transform="translate(726.884766 38.965625) scale(0.7)"/>
     <use xlink:href="#DejaVuSans-Oblique-43" transform="translate(773.4375 0.684375)"/>
     <use xlink:href="#DejaVuSans-2e" transform="translate(843.261719 0.684375)"/>
     <use xlink:href="#DejaVuSans-Oblique-73" transform="translate(894.53125 0.684375)"/>
     <use xlink:href="#DejaVuSans-2212" transform="translate(951.280755 38.965625) scale(0.7)"/>
     <use xlink:href="#DejaVuSans-31" transform="translate(1009.933099 38.965625) scale(0.7)"/>
     <use xlink:href="#DejaVuSans-29" transform="translate(1057.203607 0.684375)"/>
    </g>
   </g>
   <g id="legend_1">
    <g id="patch_7">
     <path d="M 314.584 120.117575 
L 352.9465 120.117575 
Q 354.9465 120.117575 354.9465 118.117575 
L 354.9465 75.0832 
Q 354.9465 73.0832 352.9465 73.0832 
L 314.584 73.0832 
Q 312.584 73.0832 312.584 75.0832 
L 312.584 118.117575 
Q 312.584 120.117575 314.584 120.117575 
z
" style="fill: #ffffff; opacity: 0.8; stroke: #cccccc; stroke-linejoin: miter"/>
    </g>
    <g id="line2d_18">
     <path d="M 316.584 81.181637 
L 326.584 81.181637 
L 336.584 81.181637 
" style="fill: none; stroke-dasharray: 1.85,0.8; stroke-dashoffset: 0; stroke: #8000ff; stroke-width: 0.5"/>
    </g>
    <g id="text_19">
     <!-- 5 -->
     <g transform="translate(344.584 84.681637) scale(0.1 -0.1)">
      <defs>
       <path id="DejaVuSans-35" d="M 691 4666 
L 3169 4666 
L 3169 4134 
L 1269 4134 
L 1269 2991 
Q 1406 3038 1543 3061 
Q 1681 3084 1819 3084 
Q 2600 3084 3056 2656 
Q 3513 2228 3513 1497 
Q 3513 744 3044 326 
Q 2575 -91 1722 -91 
Q 1428 -91 1123 -41 
Q 819 9 494 109 
L 494 744 
Q 775 591 1075 516 
Q 1375 441 1709 441 
Q 2250 441 2565 725 
Q 2881 1009 2881 1497 
Q 2881 1984 2565 2268 
Q 2250 2553 1709 2553 
Q 1456 2553 1204 2497 
Q 953 2441 691 2322 
L 691 4666 
z
" transform="scale(0.015625)"/>
      </defs>
      <use xlink:href="#DejaVuSans-35"/>
     </g>
    </g>
    <g id="line2d_19">
     <path d="M 316.584 95.859762 
L 326.584 95.859762 
L 336.584 95.859762 
" style="fill: none; stroke-dasharray: 1.85,0.8; stroke-dashoffset: 0; stroke: #80ffb4; stroke-width: 0.5"/>
    </g>
    <g id="text_20">
     <!-- 5 -->
     <g transform="translate(344.584 99.359762) scale(0.1 -0.1)">
      <use xlink:href="#DejaVuSans-35"/>
     </g>
    </g>
    <g id="line2d_20">
     <path d="M 316.584 110.537887 
L 326.584 110.537887 
L 336.584 110.537887 
" style="fill: none; stroke-dasharray: 1.85,0.8; stroke-dashoffset: 0; stroke: #ff0000; stroke-width: 0.5"/>
    </g>
    <g id="text_21">
     <!-- 5 -->
     <g transform="translate(344.584 114.037887) scale(0.1 -0.1)">
      <use xlink:href="#DejaVuSans-35"/>
     </g>
    </g>
   </g>
  </g>
 </g>
 <defs>
  <clipPath id="pd7d19ed568">
   <rect x="57.6" y="41.472" width="357.12" height="266.112"/>
  </clipPath>
 </defs>
</svg>
