<?xml version="1.0" encoding="utf-8" standalone="no"?>
<!DOCTYPE svg PUBLIC "-//W3C//DTD SVG 1.1//EN"
  "http://www.w3.org/Graphics/SVG/1.1/DTD/svg11.dtd">
<svg xmlns:xlink="http://www.w3.org/1999/xlink" width="720pt" height="432pt" viewBox="0 0 720 432" xmlns="http://www.w3.org/2000/svg" version="1.1">
 <metadata>
  <rdf:RDF xmlns:dc="http://purl.org/dc/elements/1.1/" xmlns:cc="http://creativecommons.org/ns#" xmlns:rdf="http://www.w3.org/1999/02/22-rdf-syntax-ns#">
   <cc:Work>
    <dc:type rdf:resource="http://purl.org/dc/dcmitype/StillImage"/>
    <dc:date>2025-04-19T21:28:05.383683</dc:date>
    <dc:format>image/svg+xml</dc:format>
    <dc:creator>
     <cc:Agent>
      <dc:title>Matplotlib v3.10.0, https://matplotlib.org/</dc:title>
     </cc:Agent>
    </dc:creator>
   </cc:Work>
  </rdf:RDF>
 </metadata>
 <defs>
  <style type="text/css">*{stroke-linejoin: round; stroke-linecap: butt}</style>
 </defs>
 <g id="figure_1">
  <g id="patch_1">
   <path d="M 0 432 
L 720 432 
L 720 0 
L 0 0 
z
" style="fill: #ffffff"/>
  </g>
  <g id="axes_1">
   <g id="patch_2">
    <path d="M 90 384.48 
L 648 384.48 
L 648 51.84 
L 90 51.84 
z
" style="fill: #ffffff"/>
   </g>
   <g id="matplotlib.axis_1">
    <g id="xtick_1">
     <g id="line2d_1">
      <defs>
       <path id="mdce42b2b7f" d="M 0 0 
L 0 3.5 
" style="stroke: #000000; stroke-width: 0.8"/>
      </defs>
      <g>
       <use xlink:href="#mdce42b2b7f" x="115.363636" y="384.48" style="stroke: #000000; stroke-width: 0.8"/>
      </g>
     </g>
     <g id="text_1">
      <!-- 0 -->
      <g transform="translate(112.182386 399.078438) scale(0.1 -0.1)">
       <defs>
        <path id="DejaVuSans-30" d="M 2034 4250 
Q 1547 4250 1301 3770 
Q 1056 3291 1056 2328 
Q 1056 1369 1301 889 
Q 1547 409 2034 409 
Q 2525 409 2770 889 
Q 3016 1369 3016 2328 
Q 3016 3291 2770 3770 
Q 2525 4250 2034 4250 
z
M 2034 4750 
Q 2819 4750 3233 4129 
Q 3647 3509 3647 2328 
Q 3647 1150 3233 529 
Q 2819 -91 2034 -91 
Q 1250 -91 836 529 
Q 422 1150 422 2328 
Q 422 3509 836 4129 
Q 1250 4750 2034 4750 
z
" transform="scale(0.015625)"/>
       </defs>
       <use xlink:href="#DejaVuSans-30"/>
      </g>
     </g>
    </g>
    <g id="xtick_2">
     <g id="line2d_2">
      <g>
       <use xlink:href="#mdce42b2b7f" x="177.655369" y="384.48" style="stroke: #000000; stroke-width: 0.8"/>
      </g>
     </g>
     <g id="text_2">
      <!-- 2000 -->
      <g transform="translate(164.930369 399.078438) scale(0.1 -0.1)">
       <defs>
        <path id="DejaVuSans-32" d="M 1228 531 
L 3431 531 
L 3431 0 
L 469 0 
L 469 531 
Q 828 903 1448 1529 
Q 2069 2156 2228 2338 
Q 2531 2678 2651 2914 
Q 2772 3150 2772 3378 
Q 2772 3750 2511 3984 
Q 2250 4219 1831 4219 
Q 1534 4219 1204 4116 
Q 875 4013 500 3803 
L 500 4441 
Q 881 4594 1212 4672 
Q 1544 4750 1819 4750 
Q 2544 4750 2975 4387 
Q 3406 4025 3406 3419 
Q 3406 3131 3298 2873 
Q 3191 2616 2906 2266 
Q 2828 2175 2409 1742 
Q 1991 1309 1228 531 
z
" transform="scale(0.015625)"/>
       </defs>
       <use xlink:href="#DejaVuSans-32"/>
       <use xlink:href="#DejaVuSans-30" transform="translate(63.623047 0)"/>
       <use xlink:href="#DejaVuSans-30" transform="translate(127.246094 0)"/>
       <use xlink:href="#DejaVuSans-30" transform="translate(190.869141 0)"/>
      </g>
     </g>
    </g>
    <g id="xtick_3">
     <g id="line2d_3">
      <g>
       <use xlink:href="#mdce42b2b7f" x="239.947102" y="384.48" style="stroke: #000000; stroke-width: 0.8"/>
      </g>
     </g>
     <g id="text_3">
      <!-- 4000 -->
      <g transform="translate(227.222102 399.078438) scale(0.1 -0.1)">
       <defs>
        <path id="DejaVuSans-34" d="M 2419 4116 
L 825 1625 
L 2419 1625 
L 2419 4116 
z
M 2253 4666 
L 3047 4666 
L 3047 1625 
L 3713 1625 
L 3713 1100 
L 3047 1100 
L 3047 0 
L 2419 0 
L 2419 1100 
L 313 1100 
L 313 1709 
L 2253 4666 
z
" transform="scale(0.015625)"/>
       </defs>
       <use xlink:href="#DejaVuSans-34"/>
       <use xlink:href="#DejaVuSans-30" transform="translate(63.623047 0)"/>
       <use xlink:href="#DejaVuSans-30" transform="translate(127.246094 0)"/>
       <use xlink:href="#DejaVuSans-30" transform="translate(190.869141 0)"/>
      </g>
     </g>
    </g>
    <g id="xtick_4">
     <g id="line2d_4">
      <g>
       <use xlink:href="#mdce42b2b7f" x="302.238835" y="384.48" style="stroke: #000000; stroke-width: 0.8"/>
      </g>
     </g>
     <g id="text_4">
      <!-- 6000 -->
      <g transform="translate(289.513835 399.078438) scale(0.1 -0.1)">
       <defs>
        <path id="DejaVuSans-36" d="M 2113 2584 
Q 1688 2584 1439 2293 
Q 1191 2003 1191 1497 
Q 1191 994 1439 701 
Q 1688 409 2113 409 
Q 2538 409 2786 701 
Q 3034 994 3034 1497 
Q 3034 2003 2786 2293 
Q 2538 2584 2113 2584 
z
M 3366 4563 
L 3366 3988 
Q 3128 4100 2886 4159 
Q 2644 4219 2406 4219 
Q 1781 4219 1451 3797 
Q 1122 3375 1075 2522 
Q 1259 2794 1537 2939 
Q 1816 3084 2150 3084 
Q 2853 3084 3261 2657 
Q 3669 2231 3669 1497 
Q 3669 778 3244 343 
Q 2819 -91 2113 -91 
Q 1303 -91 875 529 
Q 447 1150 447 2328 
Q 447 3434 972 4092 
Q 1497 4750 2381 4750 
Q 2619 4750 2861 4703 
Q 3103 4656 3366 4563 
z
" transform="scale(0.015625)"/>
       </defs>
       <use xlink:href="#DejaVuSans-36"/>
       <use xlink:href="#DejaVuSans-30" transform="translate(63.623047 0)"/>
       <use xlink:href="#DejaVuSans-30" transform="translate(127.246094 0)"/>
       <use xlink:href="#DejaVuSans-30" transform="translate(190.869141 0)"/>
      </g>
     </g>
    </g>
    <g id="xtick_5">
     <g id="line2d_5">
      <g>
       <use xlink:href="#mdce42b2b7f" x="364.530568" y="384.48" style="stroke: #000000; stroke-width: 0.8"/>
      </g>
     </g>
     <g id="text_5">
      <!-- 8000 -->
      <g transform="translate(351.805568 399.078438) scale(0.1 -0.1)">
       <defs>
        <path id="DejaVuSans-38" d="M 2034 2216 
Q 1584 2216 1326 1975 
Q 1069 1734 1069 1313 
Q 1069 891 1326 650 
Q 1584 409 2034 409 
Q 2484 409 2743 651 
Q 3003 894 3003 1313 
Q 3003 1734 2745 1975 
Q 2488 2216 2034 2216 
z
M 1403 2484 
Q 997 2584 770 2862 
Q 544 3141 544 3541 
Q 544 4100 942 4425 
Q 1341 4750 2034 4750 
Q 2731 4750 3128 4425 
Q 3525 4100 3525 3541 
Q 3525 3141 3298 2862 
Q 3072 2584 2669 2484 
Q 3125 2378 3379 2068 
Q 3634 1759 3634 1313 
Q 3634 634 3220 271 
Q 2806 -91 2034 -91 
Q 1263 -91 848 271 
Q 434 634 434 1313 
Q 434 1759 690 2068 
Q 947 2378 1403 2484 
z
M 1172 3481 
Q 1172 3119 1398 2916 
Q 1625 2713 2034 2713 
Q 2441 2713 2670 2916 
Q 2900 3119 2900 3481 
Q 2900 3844 2670 4047 
Q 2441 4250 2034 4250 
Q 1625 4250 1398 4047 
Q 1172 3844 1172 3481 
z
" transform="scale(0.015625)"/>
       </defs>
       <use xlink:href="#DejaVuSans-38"/>
       <use xlink:href="#DejaVuSans-30" transform="translate(63.623047 0)"/>
       <use xlink:href="#DejaVuSans-30" transform="translate(127.246094 0)"/>
       <use xlink:href="#DejaVuSans-30" transform="translate(190.869141 0)"/>
      </g>
     </g>
    </g>
    <g id="xtick_6">
     <g id="line2d_6">
      <g>
       <use xlink:href="#mdce42b2b7f" x="426.822301" y="384.48" style="stroke: #000000; stroke-width: 0.8"/>
      </g>
     </g>
     <g id="text_6">
      <!-- 10000 -->
      <g transform="translate(410.916051 399.078438) scale(0.1 -0.1)">
       <defs>
        <path id="DejaVuSans-31" d="M 794 531 
L 1825 531 
L 1825 4091 
L 703 3866 
L 703 4441 
L 1819 4666 
L 2450 4666 
L 2450 531 
L 3481 531 
L 3481 0 
L 794 0 
L 794 531 
z
" transform="scale(0.015625)"/>
       </defs>
       <use xlink:href="#DejaVuSans-31"/>
       <use xlink:href="#DejaVuSans-30" transform="translate(63.623047 0)"/>
       <use xlink:href="#DejaVuSans-30" transform="translate(127.246094 0)"/>
       <use xlink:href="#DejaVuSans-30" transform="translate(190.869141 0)"/>
       <use xlink:href="#DejaVuSans-30" transform="translate(254.492188 0)"/>
      </g>
     </g>
    </g>
    <g id="xtick_7">
     <g id="line2d_7">
      <g>
       <use xlink:href="#mdce42b2b7f" x="489.114034" y="384.48" style="stroke: #000000; stroke-width: 0.8"/>
      </g>
     </g>
     <g id="text_7">
      <!-- 12000 -->
      <g transform="translate(473.207784 399.078438) scale(0.1 -0.1)">
       <use xlink:href="#DejaVuSans-31"/>
       <use xlink:href="#DejaVuSans-32" transform="translate(63.623047 0)"/>
       <use xlink:href="#DejaVuSans-30" transform="translate(127.246094 0)"/>
       <use xlink:href="#DejaVuSans-30" transform="translate(190.869141 0)"/>
       <use xlink:href="#DejaVuSans-30" transform="translate(254.492188 0)"/>
      </g>
     </g>
    </g>
    <g id="xtick_8">
     <g id="line2d_8">
      <g>
       <use xlink:href="#mdce42b2b7f" x="551.405767" y="384.48" style="stroke: #000000; stroke-width: 0.8"/>
      </g>
     </g>
     <g id="text_8">
      <!-- 14000 -->
      <g transform="translate(535.499517 399.078438) scale(0.1 -0.1)">
       <use xlink:href="#DejaVuSans-31"/>
       <use xlink:href="#DejaVuSans-34" transform="translate(63.623047 0)"/>
       <use xlink:href="#DejaVuSans-30" transform="translate(127.246094 0)"/>
       <use xlink:href="#DejaVuSans-30" transform="translate(190.869141 0)"/>
       <use xlink:href="#DejaVuSans-30" transform="translate(254.492188 0)"/>
      </g>
     </g>
    </g>
    <g id="xtick_9">
     <g id="line2d_9">
      <g>
       <use xlink:href="#mdce42b2b7f" x="613.6975" y="384.48" style="stroke: #000000; stroke-width: 0.8"/>
      </g>
     </g>
     <g id="text_9">
      <!-- 16000 -->
      <g transform="translate(597.79125 399.078438) scale(0.1 -0.1)">
       <use xlink:href="#DejaVuSans-31"/>
       <use xlink:href="#DejaVuSans-36" transform="translate(63.623047 0)"/>
       <use xlink:href="#DejaVuSans-30" transform="translate(127.246094 0)"/>
       <use xlink:href="#DejaVuSans-30" transform="translate(190.869141 0)"/>
       <use xlink:href="#DejaVuSans-30" transform="translate(254.492188 0)"/>
      </g>
     </g>
    </g>
    <g id="text_10">
     <!-- Time (s) -->
     <g transform="translate(348.671094 412.756563) scale(0.1 -0.1)">
      <defs>
       <path id="DejaVuSans-54" d="M -19 4666 
L 3928 4666 
L 3928 4134 
L 2272 4134 
L 2272 0 
L 1638 0 
L 1638 4134 
L -19 4134 
L -19 4666 
z
" transform="scale(0.015625)"/>
       <path id="DejaVuSans-69" d="M 603 3500 
L 1178 3500 
L 1178 0 
L 603 0 
L 603 3500 
z
M 603 4863 
L 1178 4863 
L 1178 4134 
L 603 4134 
L 603 4863 
z
" transform="scale(0.015625)"/>
       <path id="DejaVuSans-6d" d="M 3328 2828 
Q 3544 3216 3844 3400 
Q 4144 3584 4550 3584 
Q 5097 3584 5394 3201 
Q 5691 2819 5691 2113 
L 5691 0 
L 5113 0 
L 5113 2094 
Q 5113 2597 4934 2840 
Q 4756 3084 4391 3084 
Q 3944 3084 3684 2787 
Q 3425 2491 3425 1978 
L 3425 0 
L 2847 0 
L 2847 2094 
Q 2847 2600 2669 2842 
Q 2491 3084 2119 3084 
Q 1678 3084 1418 2786 
Q 1159 2488 1159 1978 
L 1159 0 
L 581 0 
L 581 3500 
L 1159 3500 
L 1159 2956 
Q 1356 3278 1631 3431 
Q 1906 3584 2284 3584 
Q 2666 3584 2933 3390 
Q 3200 3197 3328 2828 
z
" transform="scale(0.015625)"/>
       <path id="DejaVuSans-65" d="M 3597 1894 
L 3597 1613 
L 953 1613 
Q 991 1019 1311 708 
Q 1631 397 2203 397 
Q 2534 397 2845 478 
Q 3156 559 3463 722 
L 3463 178 
Q 3153 47 2828 -22 
Q 2503 -91 2169 -91 
Q 1331 -91 842 396 
Q 353 884 353 1716 
Q 353 2575 817 3079 
Q 1281 3584 2069 3584 
Q 2775 3584 3186 3129 
Q 3597 2675 3597 1894 
z
M 3022 2063 
Q 3016 2534 2758 2815 
Q 2500 3097 2075 3097 
Q 1594 3097 1305 2825 
Q 1016 2553 972 2059 
L 3022 2063 
z
" transform="scale(0.015625)"/>
       <path id="DejaVuSans-20" transform="scale(0.015625)"/>
       <path id="DejaVuSans-28" d="M 1984 4856 
Q 1566 4138 1362 3434 
Q 1159 2731 1159 2009 
Q 1159 1288 1364 580 
Q 1569 -128 1984 -844 
L 1484 -844 
Q 1016 -109 783 600 
Q 550 1309 550 2009 
Q 550 2706 781 3412 
Q 1013 4119 1484 4856 
L 1984 4856 
z
" transform="scale(0.015625)"/>
       <path id="DejaVuSans-73" d="M 2834 3397 
L 2834 2853 
Q 2591 2978 2328 3040 
Q 2066 3103 1784 3103 
Q 1356 3103 1142 2972 
Q 928 2841 928 2578 
Q 928 2378 1081 2264 
Q 1234 2150 1697 2047 
L 1894 2003 
Q 2506 1872 2764 1633 
Q 3022 1394 3022 966 
Q 3022 478 2636 193 
Q 2250 -91 1575 -91 
Q 1294 -91 989 -36 
Q 684 19 347 128 
L 347 722 
Q 666 556 975 473 
Q 1284 391 1588 391 
Q 1994 391 2212 530 
Q 2431 669 2431 922 
Q 2431 1156 2273 1281 
Q 2116 1406 1581 1522 
L 1381 1569 
Q 847 1681 609 1914 
Q 372 2147 372 2553 
Q 372 3047 722 3315 
Q 1072 3584 1716 3584 
Q 2034 3584 2315 3537 
Q 2597 3491 2834 3397 
z
" transform="scale(0.015625)"/>
       <path id="DejaVuSans-29" d="M 513 4856 
L 1013 4856 
Q 1481 4119 1714 3412 
Q 1947 2706 1947 2009 
Q 1947 1309 1714 600 
Q 1481 -109 1013 -844 
L 513 -844 
Q 928 -128 1133 580 
Q 1338 1288 1338 2009 
Q 1338 2731 1133 3434 
Q 928 4138 513 4856 
z
" transform="scale(0.015625)"/>
      </defs>
      <use xlink:href="#DejaVuSans-54"/>
      <use xlink:href="#DejaVuSans-69" transform="translate(57.958984 0)"/>
      <use xlink:href="#DejaVuSans-6d" transform="translate(85.742188 0)"/>
      <use xlink:href="#DejaVuSans-65" transform="translate(183.154297 0)"/>
      <use xlink:href="#DejaVuSans-20" transform="translate(244.677734 0)"/>
      <use xlink:href="#DejaVuSans-28" transform="translate(276.464844 0)"/>
      <use xlink:href="#DejaVuSans-73" transform="translate(315.478516 0)"/>
      <use xlink:href="#DejaVuSans-29" transform="translate(367.578125 0)"/>
     </g>
    </g>
   </g>
   <g id="matplotlib.axis_2">
    <g id="ytick_1">
     <g id="line2d_10">
      <defs>
       <path id="mcb2e762913" d="M 0 0 
L -3.5 0 
" style="stroke: #000000; stroke-width: 0.8"/>
      </defs>
      <g>
       <use xlink:href="#mcb2e762913" x="90" y="369.36" style="stroke: #000000; stroke-width: 0.8"/>
      </g>
     </g>
     <g id="text_11">
      <!-- 0.0 -->
      <g transform="translate(67.096875 373.159219) scale(0.1 -0.1)">
       <defs>
        <path id="DejaVuSans-2e" d="M 684 794 
L 1344 794 
L 1344 0 
L 684 0 
L 684 794 
z
" transform="scale(0.015625)"/>
       </defs>
       <use xlink:href="#DejaVuSans-30"/>
       <use xlink:href="#DejaVuSans-2e" transform="translate(63.623047 0)"/>
       <use xlink:href="#DejaVuSans-30" transform="translate(95.410156 0)"/>
      </g>
     </g>
    </g>
    <g id="ytick_2">
     <g id="line2d_11">
      <g>
       <use xlink:href="#mcb2e762913" x="90" y="308.519762" style="stroke: #000000; stroke-width: 0.8"/>
      </g>
     </g>
     <g id="text_12">
      <!-- 0.2 -->
      <g transform="translate(67.096875 312.31898) scale(0.1 -0.1)">
       <use xlink:href="#DejaVuSans-30"/>
       <use xlink:href="#DejaVuSans-2e" transform="translate(63.623047 0)"/>
       <use xlink:href="#DejaVuSans-32" transform="translate(95.410156 0)"/>
      </g>
     </g>
    </g>
    <g id="ytick_3">
     <g id="line2d_12">
      <g>
       <use xlink:href="#mcb2e762913" x="90" y="247.679523" style="stroke: #000000; stroke-width: 0.8"/>
      </g>
     </g>
     <g id="text_13">
      <!-- 0.4 -->
      <g transform="translate(67.096875 251.478742) scale(0.1 -0.1)">
       <use xlink:href="#DejaVuSans-30"/>
       <use xlink:href="#DejaVuSans-2e" transform="translate(63.623047 0)"/>
       <use xlink:href="#DejaVuSans-34" transform="translate(95.410156 0)"/>
      </g>
     </g>
    </g>
    <g id="ytick_4">
     <g id="line2d_13">
      <g>
       <use xlink:href="#mcb2e762913" x="90" y="186.839285" style="stroke: #000000; stroke-width: 0.8"/>
      </g>
     </g>
     <g id="text_14">
      <!-- 0.6 -->
      <g transform="translate(67.096875 190.638504) scale(0.1 -0.1)">
       <use xlink:href="#DejaVuSans-30"/>
       <use xlink:href="#DejaVuSans-2e" transform="translate(63.623047 0)"/>
       <use xlink:href="#DejaVuSans-36" transform="translate(95.410156 0)"/>
      </g>
     </g>
    </g>
    <g id="ytick_5">
     <g id="line2d_14">
      <g>
       <use xlink:href="#mcb2e762913" x="90" y="125.999047" style="stroke: #000000; stroke-width: 0.8"/>
      </g>
     </g>
     <g id="text_15">
      <!-- 0.8 -->
      <g transform="translate(67.096875 129.798266) scale(0.1 -0.1)">
       <use xlink:href="#DejaVuSans-30"/>
       <use xlink:href="#DejaVuSans-2e" transform="translate(63.623047 0)"/>
       <use xlink:href="#DejaVuSans-38" transform="translate(95.410156 0)"/>
      </g>
     </g>
    </g>
    <g id="ytick_6">
     <g id="line2d_15">
      <g>
       <use xlink:href="#mcb2e762913" x="90" y="65.158809" style="stroke: #000000; stroke-width: 0.8"/>
      </g>
     </g>
     <g id="text_16">
      <!-- 1.0 -->
      <g transform="translate(67.096875 68.958027) scale(0.1 -0.1)">
       <use xlink:href="#DejaVuSans-31"/>
       <use xlink:href="#DejaVuSans-2e" transform="translate(63.623047 0)"/>
       <use xlink:href="#DejaVuSans-30" transform="translate(95.410156 0)"/>
      </g>
     </g>
    </g>
    <g id="text_17">
     <!-- Electron Ratio (electrons / N_e) -->
     <g transform="translate(60.739062 295.786562) rotate(-90) scale(0.1 -0.1)">
      <defs>
       <path id="DejaVuSans-45" d="M 628 4666 
L 3578 4666 
L 3578 4134 
L 1259 4134 
L 1259 2753 
L 3481 2753 
L 3481 2222 
L 1259 2222 
L 1259 531 
L 3634 531 
L 3634 0 
L 628 0 
L 628 4666 
z
" transform="scale(0.015625)"/>
       <path id="DejaVuSans-6c" d="M 603 4863 
L 1178 4863 
L 1178 0 
L 603 0 
L 603 4863 
z
" transform="scale(0.015625)"/>
       <path id="DejaVuSans-63" d="M 3122 3366 
L 3122 2828 
Q 2878 2963 2633 3030 
Q 2388 3097 2138 3097 
Q 1578 3097 1268 2742 
Q 959 2388 959 1747 
Q 959 1106 1268 751 
Q 1578 397 2138 397 
Q 2388 397 2633 464 
Q 2878 531 3122 666 
L 3122 134 
Q 2881 22 2623 -34 
Q 2366 -91 2075 -91 
Q 1284 -91 818 406 
Q 353 903 353 1747 
Q 353 2603 823 3093 
Q 1294 3584 2113 3584 
Q 2378 3584 2631 3529 
Q 2884 3475 3122 3366 
z
" transform="scale(0.015625)"/>
       <path id="DejaVuSans-74" d="M 1172 4494 
L 1172 3500 
L 2356 3500 
L 2356 3053 
L 1172 3053 
L 1172 1153 
Q 1172 725 1289 603 
Q 1406 481 1766 481 
L 2356 481 
L 2356 0 
L 1766 0 
Q 1100 0 847 248 
Q 594 497 594 1153 
L 594 3053 
L 172 3053 
L 172 3500 
L 594 3500 
L 594 4494 
L 1172 4494 
z
" transform="scale(0.015625)"/>
       <path id="DejaVuSans-72" d="M 2631 2963 
Q 2534 3019 2420 3045 
Q 2306 3072 2169 3072 
Q 1681 3072 1420 2755 
Q 1159 2438 1159 1844 
L 1159 0 
L 581 0 
L 581 3500 
L 1159 3500 
L 1159 2956 
Q 1341 3275 1631 3429 
Q 1922 3584 2338 3584 
Q 2397 3584 2469 3576 
Q 2541 3569 2628 3553 
L 2631 2963 
z
" transform="scale(0.015625)"/>
       <path id="DejaVuSans-6f" d="M 1959 3097 
Q 1497 3097 1228 2736 
Q 959 2375 959 1747 
Q 959 1119 1226 758 
Q 1494 397 1959 397 
Q 2419 397 2687 759 
Q 2956 1122 2956 1747 
Q 2956 2369 2687 2733 
Q 2419 3097 1959 3097 
z
M 1959 3584 
Q 2709 3584 3137 3096 
Q 3566 2609 3566 1747 
Q 3566 888 3137 398 
Q 2709 -91 1959 -91 
Q 1206 -91 779 398 
Q 353 888 353 1747 
Q 353 2609 779 3096 
Q 1206 3584 1959 3584 
z
" transform="scale(0.015625)"/>
       <path id="DejaVuSans-6e" d="M 3513 2113 
L 3513 0 
L 2938 0 
L 2938 2094 
Q 2938 2591 2744 2837 
Q 2550 3084 2163 3084 
Q 1697 3084 1428 2787 
Q 1159 2491 1159 1978 
L 1159 0 
L 581 0 
L 581 3500 
L 1159 3500 
L 1159 2956 
Q 1366 3272 1645 3428 
Q 1925 3584 2291 3584 
Q 2894 3584 3203 3211 
Q 3513 2838 3513 2113 
z
" transform="scale(0.015625)"/>
       <path id="DejaVuSans-52" d="M 2841 2188 
Q 3044 2119 3236 1894 
Q 3428 1669 3622 1275 
L 4263 0 
L 3584 0 
L 2988 1197 
Q 2756 1666 2539 1819 
Q 2322 1972 1947 1972 
L 1259 1972 
L 1259 0 
L 628 0 
L 628 4666 
L 2053 4666 
Q 2853 4666 3247 4331 
Q 3641 3997 3641 3322 
Q 3641 2881 3436 2590 
Q 3231 2300 2841 2188 
z
M 1259 4147 
L 1259 2491 
L 2053 2491 
Q 2509 2491 2742 2702 
Q 2975 2913 2975 3322 
Q 2975 3731 2742 3939 
Q 2509 4147 2053 4147 
L 1259 4147 
z
" transform="scale(0.015625)"/>
       <path id="DejaVuSans-61" d="M 2194 1759 
Q 1497 1759 1228 1600 
Q 959 1441 959 1056 
Q 959 750 1161 570 
Q 1363 391 1709 391 
Q 2188 391 2477 730 
Q 2766 1069 2766 1631 
L 2766 1759 
L 2194 1759 
z
M 3341 1997 
L 3341 0 
L 2766 0 
L 2766 531 
Q 2569 213 2275 61 
Q 1981 -91 1556 -91 
Q 1019 -91 701 211 
Q 384 513 384 1019 
Q 384 1609 779 1909 
Q 1175 2209 1959 2209 
L 2766 2209 
L 2766 2266 
Q 2766 2663 2505 2880 
Q 2244 3097 1772 3097 
Q 1472 3097 1187 3025 
Q 903 2953 641 2809 
L 641 3341 
Q 956 3463 1253 3523 
Q 1550 3584 1831 3584 
Q 2591 3584 2966 3190 
Q 3341 2797 3341 1997 
z
" transform="scale(0.015625)"/>
       <path id="DejaVuSans-2f" d="M 1625 4666 
L 2156 4666 
L 531 -594 
L 0 -594 
L 1625 4666 
z
" transform="scale(0.015625)"/>
       <path id="DejaVuSans-4e" d="M 628 4666 
L 1478 4666 
L 3547 763 
L 3547 4666 
L 4159 4666 
L 4159 0 
L 3309 0 
L 1241 3903 
L 1241 0 
L 628 0 
L 628 4666 
z
" transform="scale(0.015625)"/>
       <path id="DejaVuSans-5f" d="M 3263 -1063 
L 3263 -1509 
L -63 -1509 
L -63 -1063 
L 3263 -1063 
z
" transform="scale(0.015625)"/>
      </defs>
      <use xlink:href="#DejaVuSans-45"/>
      <use xlink:href="#DejaVuSans-6c" transform="translate(63.183594 0)"/>
      <use xlink:href="#DejaVuSans-65" transform="translate(90.966797 0)"/>
      <use xlink:href="#DejaVuSans-63" transform="translate(152.490234 0)"/>
      <use xlink:href="#DejaVuSans-74" transform="translate(207.470703 0)"/>
      <use xlink:href="#DejaVuSans-72" transform="translate(246.679688 0)"/>
      <use xlink:href="#DejaVuSans-6f" transform="translate(285.542969 0)"/>
      <use xlink:href="#DejaVuSans-6e" transform="translate(346.724609 0)"/>
      <use xlink:href="#DejaVuSans-20" transform="translate(410.103516 0)"/>
      <use xlink:href="#DejaVuSans-52" transform="translate(441.890625 0)"/>
      <use xlink:href="#DejaVuSans-61" transform="translate(509.123047 0)"/>
      <use xlink:href="#DejaVuSans-74" transform="translate(570.402344 0)"/>
      <use xlink:href="#DejaVuSans-69" transform="translate(609.611328 0)"/>
      <use xlink:href="#DejaVuSans-6f" transform="translate(637.394531 0)"/>
      <use xlink:href="#DejaVuSans-20" transform="translate(698.576172 0)"/>
      <use xlink:href="#DejaVuSans-28" transform="translate(730.363281 0)"/>
      <use xlink:href="#DejaVuSans-65" transform="translate(769.376953 0)"/>
      <use xlink:href="#DejaVuSans-6c" transform="translate(830.900391 0)"/>
      <use xlink:href="#DejaVuSans-65" transform="translate(858.683594 0)"/>
      <use xlink:href="#DejaVuSans-63" transform="translate(920.207031 0)"/>
      <use xlink:href="#DejaVuSans-74" transform="translate(975.1875 0)"/>
      <use xlink:href="#DejaVuSans-72" transform="translate(1014.396484 0)"/>
      <use xlink:href="#DejaVuSans-6f" transform="translate(1053.259766 0)"/>
      <use xlink:href="#DejaVuSans-6e" transform="translate(1114.441406 0)"/>
      <use xlink:href="#DejaVuSans-73" transform="translate(1177.820312 0)"/>
      <use xlink:href="#DejaVuSans-20" transform="translate(1229.919922 0)"/>
      <use xlink:href="#DejaVuSans-2f" transform="translate(1261.707031 0)"/>
      <use xlink:href="#DejaVuSans-20" transform="translate(1295.398438 0)"/>
      <use xlink:href="#DejaVuSans-4e" transform="translate(1327.185547 0)"/>
      <use xlink:href="#DejaVuSans-5f" transform="translate(1401.990234 0)"/>
      <use xlink:href="#DejaVuSans-65" transform="translate(1451.990234 0)"/>
      <use xlink:href="#DejaVuSans-29" transform="translate(1513.513672 0)"/>
     </g>
    </g>
   </g>
   <g id="line2d_16">
    <path d="M 116.207929 366.317988 
L 132.174812 366.317988 
L 132.570726 259.847571 
L 149.093767 259.847571 
L 149.27109 186.839285 
L 193.876589 186.839285 
L 217.587933 86.452892 
L 261.674118 86.452892 
L 356.733631 68.200821 
L 115.714021 366.317988 
L 132.254398 366.317988 
L 132.635996 247.679523 
L 149.113041 247.679523 
L 149.277033 177.71325 
L 198.368198 177.71325 
L 201.669914 98.62094 
L 258.006286 98.62094 
L 302.66778 71.242833 
L 305.294396 71.242833 
L 305.294396 71.242833 
" clip-path="url(#pb1f9cb3330)" style="fill: none; stroke: #440154; stroke-width: 1.5; stroke-linecap: square"/>
   </g>
   <g id="line2d_17">
    <defs>
     <path id="mea51cbd80b" d="M 0 4 
C 1.060812 4 2.078319 3.578535 2.828427 2.828427 
C 3.578535 2.078319 4 1.060812 4 0 
C 4 -1.060812 3.578535 -2.078319 2.828427 -2.828427 
C 2.078319 -3.578535 1.060812 -4 0 -4 
C -1.060812 -4 -2.078319 -3.578535 -2.828427 -2.828427 
C -3.578535 -2.078319 -4 -1.060812 -4 0 
C -4 1.060812 -3.578535 2.078319 -2.828427 2.828427 
C -2.078319 3.578535 -1.060812 4 0 4 
z
" style="stroke: #000000"/>
    </defs>
    <g clip-path="url(#pb1f9cb3330)">
     <use xlink:href="#mea51cbd80b" x="305.294396" y="71.242833" style="fill: #440154; stroke: #000000"/>
    </g>
   </g>
   <g id="line2d_18">
    <path d="M 582.046953 83.41088 
L 501.752382 83.41088 
" clip-path="url(#pb1f9cb3330)" style="fill: none; stroke: #440154; stroke-width: 1.5; stroke-linecap: square"/>
   </g>
   <g id="line2d_19">
    <g clip-path="url(#pb1f9cb3330)">
     <use xlink:href="#mea51cbd80b" x="501.752382" y="83.41088" style="fill: #440154; stroke: #000000"/>
    </g>
   </g>
   <g id="line2d_20">
    <path d="M 381.121257 86.452892 
L 381.121257 86.452892 
L 381.121257 86.452892 
L 381.121257 86.452892 
L 381.121257 86.452892 
L 381.121257 86.452892 
L 525.71819 86.452892 
" clip-path="url(#pb1f9cb3330)" style="fill: none; stroke: #440154; stroke-width: 1.5; stroke-linecap: square"/>
   </g>
   <g id="line2d_21">
    <g clip-path="url(#pb1f9cb3330)">
     <use xlink:href="#mea51cbd80b" x="525.71819" y="86.452892" style="fill: #440154; stroke: #000000"/>
    </g>
   </g>
   <g id="line2d_22">
    <path d="M 180.384162 86.452892 
L 180.384162 86.452892 
L 180.384162 86.452892 
L 300.392023 110.788987 
L 300.392023 110.788987 
L 300.392023 110.788987 
L 300.392023 110.788987 
L 300.392023 110.788987 
L 300.392023 110.788987 
L 300.392023 110.788987 
L 300.392023 110.788987 
L 300.392023 110.788987 
L 300.392023 110.788987 
L 300.392023 110.788987 
L 300.392023 110.788987 
L 300.392023 110.788987 
L 300.392023 110.788987 
L 300.392023 110.788987 
L 330.584326 110.788987 
L 330.584326 110.788987 
L 330.584326 110.788987 
L 330.584326 110.788987 
L 330.584326 110.788987 
L 337.823624 110.788987 
L 337.823624 110.788987 
L 337.823624 110.788987 
L 337.823624 110.788987 
L 340.286013 110.788987 
L 340.286013 110.788987 
L 340.286013 110.788987 
L 340.286013 110.788987 
L 563.529149 299.393726 
L 128.171237 86.452892 
L 128.171237 86.452892 
L 151.20194 92.536916 
L 168.47632 95.578928 
L 168.47632 95.578928 
L 229.631079 107.746976 
L 229.631079 107.746976 
L 229.631079 107.746976 
L 229.631079 107.746976 
L 229.631079 107.746976 
L 229.631079 107.746976 
L 229.631079 107.746976 
L 229.631079 107.746976 
L 232.359848 107.746976 
L 232.359848 107.746976 
L 232.359848 107.746976 
L 232.359848 107.746976 
L 232.359848 107.746976 
L 243.965696 107.746976 
L 281.117549 189.881297 
L 281.117549 189.881297 
L 281.117549 189.881297 
L 281.117549 189.881297 
L 281.117549 189.881297 
L 285.325155 189.881297 
L 285.325155 189.881297 
L 285.325155 189.881297 
L 285.325155 189.881297 
L 285.325155 189.881297 
L 285.325155 189.881297 
L 326.535067 189.881297 
L 326.535067 189.881297 
L 326.535067 189.881297 
L 448.085004 268.973607 
" clip-path="url(#pb1f9cb3330)" style="fill: none; stroke: #440154; stroke-width: 1.5; stroke-linecap: square"/>
   </g>
   <g id="line2d_23">
    <g clip-path="url(#pb1f9cb3330)">
     <use xlink:href="#mea51cbd80b" x="448.085004" y="268.973607" style="fill: #440154; stroke: #000000"/>
    </g>
   </g>
   <g id="line2d_24">
    <path d="M 116.812866 86.452892 
L 117.872766 89.494904 
L 119.064699 89.494904 
L 119.064699 89.494904 
L 119.064699 89.494904 
L 119.064699 89.494904 
L 119.064699 89.494904 
L 119.064699 89.494904 
L 138.126703 113.830999 
L 138.126703 113.830999 
L 138.126703 113.830999 
L 138.126703 113.830999 
L 138.126703 113.830999 
L 138.126703 113.830999 
L 138.126703 113.830999 
L 138.126703 113.830999 
L 138.126703 113.830999 
L 148.89832 113.830999 
L 148.89832 113.830999 
L 148.89832 113.830999 
L 148.89832 113.830999 
L 148.89832 113.830999 
L 148.89832 113.830999 
L 148.89832 113.830999 
L 148.89832 113.830999 
L 148.89832 113.830999 
L 148.89832 113.830999 
L 148.89832 113.830999 
L 148.89832 113.830999 
L 148.89832 113.830999 
L 148.89832 113.830999 
L 148.89832 113.830999 
L 148.89832 113.830999 
L 165.231256 253.763547 
L 165.231256 253.763547 
L 165.231256 253.763547 
L 165.231256 253.763547 
L 165.231256 253.763547 
L 165.231256 253.763547 
L 165.231256 253.763547 
L 165.231256 253.763547 
L 179.399346 253.763547 
L 179.399346 253.763547 
L 179.399346 253.763547 
L 179.399346 253.763547 
L 179.399346 253.763547 
L 283.587145 317.645797 
L 283.587145 317.645797 
L 283.587145 317.645797 
L 283.587145 317.645797 
L 283.587145 317.645797 
L 283.587145 317.645797 
L 283.587145 317.645797 
L 283.587145 317.645797 
L 283.587145 317.645797 
L 283.587145 317.645797 
L 288.373346 317.645797 
L 548.064769 366.317988 
L 130.61629 86.452892 
L 130.61629 86.452892 
L 130.61629 86.452892 
L 130.61629 86.452892 
L 130.61629 86.452892 
L 145.649074 119.915023 
L 145.649074 119.915023 
L 145.649074 119.915023 
L 145.649074 119.915023 
L 145.649074 119.915023 
L 145.649074 119.915023 
L 145.649074 119.915023 
L 145.649074 119.915023 
L 145.649074 119.915023 
L 145.649074 119.915023 
L 145.649074 119.915023 
L 145.649074 119.915023 
L 165.200266 205.091357 
L 165.200266 205.091357 
L 165.200266 205.091357 
L 165.200266 205.091357 
L 165.200266 205.091357 
L 165.200266 205.091357 
L 165.200266 205.091357 
L 165.200266 205.091357 
L 165.200266 205.091357 
L 165.200266 205.091357 
L 165.200266 205.091357 
L 165.200266 205.091357 
L 321.196426 293.309702 
L 321.196426 293.309702 
L 321.196426 293.309702 
L 321.196426 293.309702 
L 321.196426 293.309702 
L 321.196426 293.309702 
L 321.196426 293.309702 
L 414.995104 293.309702 
L 414.995104 293.309702 
L 414.995104 293.309702 
L 548.472033 360.233964 
" clip-path="url(#pb1f9cb3330)" style="fill: none; stroke: #440154; stroke-width: 1.5; stroke-linecap: square"/>
   </g>
   <g id="line2d_25">
    <g clip-path="url(#pb1f9cb3330)">
     <use xlink:href="#mea51cbd80b" x="548.472033" y="360.233964" style="fill: #440154; stroke: #000000"/>
    </g>
   </g>
   <g id="line2d_26">
    <path d="M 117.257215 95.578928 
L 117.257215 95.578928 
L 117.257215 95.578928 
L 117.257215 95.578928 
L 117.257215 95.578928 
L 117.257215 95.578928 
L 117.257215 95.578928 
L 117.257215 95.578928 
L 117.257215 95.578928 
L 117.257215 95.578928 
L 117.257215 95.578928 
L 117.257215 95.578928 
L 120.867927 141.209107 
L 120.867927 141.209107 
L 120.867927 141.209107 
L 126.147059 156.419166 
L 126.147059 156.419166 
L 126.147059 156.419166 
L 126.147059 156.419166 
L 126.147059 156.419166 
L 126.147059 156.419166 
L 126.147059 156.419166 
L 126.147059 156.419166 
L 130.556195 156.419166 
L 130.556195 156.419166 
L 130.556195 156.419166 
L 130.556195 156.419166 
L 130.556195 156.419166 
L 130.556195 156.419166 
L 130.556195 156.419166 
L 130.556195 156.419166 
L 130.556195 156.419166 
L 130.556195 156.419166 
L 130.556195 156.419166 
L 130.556195 156.419166 
L 130.556195 156.419166 
L 131.160314 156.419166 
L 144.984892 308.519762 
L 144.984892 308.519762 
L 151.960069 308.519762 
L 151.960069 308.519762 
L 151.960069 308.519762 
L 151.960069 308.519762 
L 151.960069 308.519762 
L 151.974697 308.519762 
L 175.789922 351.107929 
L 175.789922 351.107929 
L 175.789922 351.107929 
L 175.789922 351.107929 
L 175.789922 351.107929 
L 115.69103 95.578928 
L 116.044424 98.62094 
L 116.185611 98.62094 
L 116.185611 98.62094 
L 116.185611 98.62094 
L 116.47209 98.62094 
L 116.47209 98.62094 
L 116.47209 98.62094 
L 116.47209 98.62094 
L 116.799039 125.999047 
L 116.799039 125.999047 
L 116.799039 125.999047 
L 119.761245 135.125083 
L 119.761245 135.125083 
L 119.761245 135.125083 
L 119.761245 135.125083 
L 119.761245 135.125083 
L 126.421265 159.461178 
L 126.421265 159.461178 
L 126.421265 159.461178 
L 126.421265 159.461178 
L 126.421265 159.461178 
L 126.421265 159.461178 
L 126.421265 159.461178 
L 126.421265 159.461178 
L 126.421265 159.461178 
L 126.421265 159.461178 
L 126.421265 159.461178 
L 126.421265 159.461178 
L 126.421265 159.461178 
L 126.421265 159.461178 
L 126.421265 159.461178 
L 126.421265 159.461178 
L 131.915561 159.461178 
L 131.915561 159.461178 
L 133.070119 159.461178 
L 133.070119 159.461178 
L 133.070119 159.461178 
L 133.070119 159.461178 
L 159.099925 308.519762 
L 159.099925 308.519762 
L 159.099925 308.519762 
L 159.099925 308.519762 
L 159.099925 308.519762 
L 159.099925 308.519762 
L 184.78901 308.519762 
L 229.938822 360.233964 
L 229.938822 360.233964 
L 229.938822 360.233964 
L 229.938822 360.233964 
" clip-path="url(#pb1f9cb3330)" style="fill: none; stroke: #440154; stroke-width: 1.5; stroke-linecap: square"/>
   </g>
   <g id="line2d_27">
    <g clip-path="url(#pb1f9cb3330)">
     <use xlink:href="#mea51cbd80b" x="229.938822" y="360.233964" style="fill: #440154; stroke: #000000"/>
    </g>
   </g>
   <g id="line2d_28">
    <path d="M 115.594782 211.175381 
L 115.616017 211.175381 
L 115.644486 211.175381 
L 115.644486 211.175381 
L 115.644486 211.175381 
L 115.644486 211.175381 
L 115.762178 235.511476 
L 115.762178 235.511476 
L 115.762178 235.511476 
L 115.762178 235.511476 
L 115.762178 235.511476 
L 115.762178 235.511476 
L 115.762178 235.511476 
L 115.762178 235.511476 
L 115.762178 235.511476 
L 115.762178 235.511476 
L 115.762178 235.511476 
L 115.762178 235.511476 
L 115.762178 235.511476 
L 115.762178 235.511476 
L 117.564786 314.603786 
L 117.564786 314.603786 
L 117.564786 314.603786 
L 117.564786 314.603786 
L 117.564786 314.603786 
L 117.564786 314.603786 
L 118.382184 369.36 
L 115.509777 211.175381 
L 115.509777 211.175381 
L 115.509777 211.175381 
L 115.509777 211.175381 
L 115.532713 211.175381 
L 115.532713 211.175381 
L 115.532713 211.175381 
L 115.532713 211.175381 
L 115.613865 211.175381 
L 115.613865 211.175381 
L 115.613865 211.175381 
L 115.613865 211.175381 
L 115.613865 211.175381 
L 115.689643 284.183666 
L 115.689643 284.183666 
L 115.689643 284.183666 
L 115.689643 284.183666 
L 117.503734 314.603786 
L 117.503734 314.603786 
L 117.503734 314.603786 
L 117.503734 314.603786 
L 117.503734 314.603786 
L 117.503734 314.603786 
L 117.503734 314.603786 
L 117.503734 314.603786 
L 117.940297 366.317988 
L 117.940297 366.317988 
" clip-path="url(#pb1f9cb3330)" style="fill: none; stroke: #440154; stroke-width: 1.5; stroke-linecap: square"/>
   </g>
   <g id="line2d_29">
    <g clip-path="url(#pb1f9cb3330)">
     <use xlink:href="#mea51cbd80b" x="117.940297" y="366.317988" style="fill: #440154; stroke: #000000"/>
    </g>
   </g>
   <g id="patch_3">
    <path d="M 90 384.48 
L 90 51.84 
" style="fill: none; stroke: #000000; stroke-width: 0.8; stroke-linejoin: miter; stroke-linecap: square"/>
   </g>
   <g id="patch_4">
    <path d="M 648 384.48 
L 648 51.84 
" style="fill: none; stroke: #000000; stroke-width: 0.8; stroke-linejoin: miter; stroke-linecap: square"/>
   </g>
   <g id="patch_5">
    <path d="M 90 384.48 
L 648 384.48 
" style="fill: none; stroke: #000000; stroke-width: 0.8; stroke-linejoin: miter; stroke-linecap: square"/>
   </g>
   <g id="patch_6">
    <path d="M 90 51.84 
L 648 51.84 
" style="fill: none; stroke: #000000; stroke-width: 0.8; stroke-linejoin: miter; stroke-linecap: square"/>
   </g>
   <g id="text_18">
    <!-- Evolution of Electron Ratio Over Time for Each Outer Loop -->
    <g transform="translate(194.712187 45.84) scale(0.12 -0.12)">
     <defs>
      <path id="DejaVuSans-76" d="M 191 3500 
L 800 3500 
L 1894 563 
L 2988 3500 
L 3597 3500 
L 2284 0 
L 1503 0 
L 191 3500 
z
" transform="scale(0.015625)"/>
      <path id="DejaVuSans-75" d="M 544 1381 
L 544 3500 
L 1119 3500 
L 1119 1403 
Q 1119 906 1312 657 
Q 1506 409 1894 409 
Q 2359 409 2629 706 
Q 2900 1003 2900 1516 
L 2900 3500 
L 3475 3500 
L 3475 0 
L 2900 0 
L 2900 538 
Q 2691 219 2414 64 
Q 2138 -91 1772 -91 
Q 1169 -91 856 284 
Q 544 659 544 1381 
z
M 1991 3584 
L 1991 3584 
z
" transform="scale(0.015625)"/>
      <path id="DejaVuSans-66" d="M 2375 4863 
L 2375 4384 
L 1825 4384 
Q 1516 4384 1395 4259 
Q 1275 4134 1275 3809 
L 1275 3500 
L 2222 3500 
L 2222 3053 
L 1275 3053 
L 1275 0 
L 697 0 
L 697 3053 
L 147 3053 
L 147 3500 
L 697 3500 
L 697 3744 
Q 697 4328 969 4595 
Q 1241 4863 1831 4863 
L 2375 4863 
z
" transform="scale(0.015625)"/>
      <path id="DejaVuSans-4f" d="M 2522 4238 
Q 1834 4238 1429 3725 
Q 1025 3213 1025 2328 
Q 1025 1447 1429 934 
Q 1834 422 2522 422 
Q 3209 422 3611 934 
Q 4013 1447 4013 2328 
Q 4013 3213 3611 3725 
Q 3209 4238 2522 4238 
z
M 2522 4750 
Q 3503 4750 4090 4092 
Q 4678 3434 4678 2328 
Q 4678 1225 4090 567 
Q 3503 -91 2522 -91 
Q 1538 -91 948 565 
Q 359 1222 359 2328 
Q 359 3434 948 4092 
Q 1538 4750 2522 4750 
z
" transform="scale(0.015625)"/>
      <path id="DejaVuSans-68" d="M 3513 2113 
L 3513 0 
L 2938 0 
L 2938 2094 
Q 2938 2591 2744 2837 
Q 2550 3084 2163 3084 
Q 1697 3084 1428 2787 
Q 1159 2491 1159 1978 
L 1159 0 
L 581 0 
L 581 4863 
L 1159 4863 
L 1159 2956 
Q 1366 3272 1645 3428 
Q 1925 3584 2291 3584 
Q 2894 3584 3203 3211 
Q 3513 2838 3513 2113 
z
" transform="scale(0.015625)"/>
      <path id="DejaVuSans-4c" d="M 628 4666 
L 1259 4666 
L 1259 531 
L 3531 531 
L 3531 0 
L 628 0 
L 628 4666 
z
" transform="scale(0.015625)"/>
      <path id="DejaVuSans-70" d="M 1159 525 
L 1159 -1331 
L 581 -1331 
L 581 3500 
L 1159 3500 
L 1159 2969 
Q 1341 3281 1617 3432 
Q 1894 3584 2278 3584 
Q 2916 3584 3314 3078 
Q 3713 2572 3713 1747 
Q 3713 922 3314 415 
Q 2916 -91 2278 -91 
Q 1894 -91 1617 61 
Q 1341 213 1159 525 
z
M 3116 1747 
Q 3116 2381 2855 2742 
Q 2594 3103 2138 3103 
Q 1681 3103 1420 2742 
Q 1159 2381 1159 1747 
Q 1159 1113 1420 752 
Q 1681 391 2138 391 
Q 2594 391 2855 752 
Q 3116 1113 3116 1747 
z
" transform="scale(0.015625)"/>
     </defs>
     <use xlink:href="#DejaVuSans-45"/>
     <use xlink:href="#DejaVuSans-76" transform="translate(63.183594 0)"/>
     <use xlink:href="#DejaVuSans-6f" transform="translate(122.363281 0)"/>
     <use xlink:href="#DejaVuSans-6c" transform="translate(183.544922 0)"/>
     <use xlink:href="#DejaVuSans-75" transform="translate(211.328125 0)"/>
     <use xlink:href="#DejaVuSans-74" transform="translate(274.707031 0)"/>
     <use xlink:href="#DejaVuSans-69" transform="translate(313.916016 0)"/>
     <use xlink:href="#DejaVuSans-6f" transform="translate(341.699219 0)"/>
     <use xlink:href="#DejaVuSans-6e" transform="translate(402.880859 0)"/>
     <use xlink:href="#DejaVuSans-20" transform="translate(466.259766 0)"/>
     <use xlink:href="#DejaVuSans-6f" transform="translate(498.046875 0)"/>
     <use xlink:href="#DejaVuSans-66" transform="translate(559.228516 0)"/>
     <use xlink:href="#DejaVuSans-20" transform="translate(594.433594 0)"/>
     <use xlink:href="#DejaVuSans-45" transform="translate(626.220703 0)"/>
     <use xlink:href="#DejaVuSans-6c" transform="translate(689.404297 0)"/>
     <use xlink:href="#DejaVuSans-65" transform="translate(717.1875 0)"/>
     <use xlink:href="#DejaVuSans-63" transform="translate(778.710938 0)"/>
     <use xlink:href="#DejaVuSans-74" transform="translate(833.691406 0)"/>
     <use xlink:href="#DejaVuSans-72" transform="translate(872.900391 0)"/>
     <use xlink:href="#DejaVuSans-6f" transform="translate(911.763672 0)"/>
     <use xlink:href="#DejaVuSans-6e" transform="translate(972.945312 0)"/>
     <use xlink:href="#DejaVuSans-20" transform="translate(1036.324219 0)"/>
     <use xlink:href="#DejaVuSans-52" transform="translate(1068.111328 0)"/>
     <use xlink:href="#DejaVuSans-61" transform="translate(1135.34375 0)"/>
     <use xlink:href="#DejaVuSans-74" transform="translate(1196.623047 0)"/>
     <use xlink:href="#DejaVuSans-69" transform="translate(1235.832031 0)"/>
     <use xlink:href="#DejaVuSans-6f" transform="translate(1263.615234 0)"/>
     <use xlink:href="#DejaVuSans-20" transform="translate(1324.796875 0)"/>
     <use xlink:href="#DejaVuSans-4f" transform="translate(1356.583984 0)"/>
     <use xlink:href="#DejaVuSans-76" transform="translate(1435.294922 0)"/>
     <use xlink:href="#DejaVuSans-65" transform="translate(1494.474609 0)"/>
     <use xlink:href="#DejaVuSans-72" transform="translate(1555.998047 0)"/>
     <use xlink:href="#DejaVuSans-20" transform="translate(1597.111328 0)"/>
     <use xlink:href="#DejaVuSans-54" transform="translate(1628.898438 0)"/>
     <use xlink:href="#DejaVuSans-69" transform="translate(1686.857422 0)"/>
     <use xlink:href="#DejaVuSans-6d" transform="translate(1714.640625 0)"/>
     <use xlink:href="#DejaVuSans-65" transform="translate(1812.052734 0)"/>
     <use xlink:href="#DejaVuSans-20" transform="translate(1873.576172 0)"/>
     <use xlink:href="#DejaVuSans-66" transform="translate(1905.363281 0)"/>
     <use xlink:href="#DejaVuSans-6f" transform="translate(1940.568359 0)"/>
     <use xlink:href="#DejaVuSans-72" transform="translate(2001.75 0)"/>
     <use xlink:href="#DejaVuSans-20" transform="translate(2042.863281 0)"/>
     <use xlink:href="#DejaVuSans-45" transform="translate(2074.650391 0)"/>
     <use xlink:href="#DejaVuSans-61" transform="translate(2137.833984 0)"/>
     <use xlink:href="#DejaVuSans-63" transform="translate(2199.113281 0)"/>
     <use xlink:href="#DejaVuSans-68" transform="translate(2254.09375 0)"/>
     <use xlink:href="#DejaVuSans-20" transform="translate(2317.472656 0)"/>
     <use xlink:href="#DejaVuSans-4f" transform="translate(2349.259766 0)"/>
     <use xlink:href="#DejaVuSans-75" transform="translate(2427.970703 0)"/>
     <use xlink:href="#DejaVuSans-74" transform="translate(2491.349609 0)"/>
     <use xlink:href="#DejaVuSans-65" transform="translate(2530.558594 0)"/>
     <use xlink:href="#DejaVuSans-72" transform="translate(2592.082031 0)"/>
     <use xlink:href="#DejaVuSans-20" transform="translate(2633.195312 0)"/>
     <use xlink:href="#DejaVuSans-4c" transform="translate(2664.982422 0)"/>
     <use xlink:href="#DejaVuSans-6f" transform="translate(2718.945312 0)"/>
     <use xlink:href="#DejaVuSans-6f" transform="translate(2780.126953 0)"/>
     <use xlink:href="#DejaVuSans-70" transform="translate(2841.308594 0)"/>
    </g>
   </g>
   <g id="legend_1">
    <g id="patch_7">
     <path d="M 560.885937 379.48 
L 641 379.48 
Q 643 379.48 643 377.48 
L 643 334.1675 
Q 643 332.1675 641 332.1675 
L 560.885937 332.1675 
Q 558.885937 332.1675 558.885937 334.1675 
L 558.885937 377.48 
Q 558.885937 379.48 560.885937 379.48 
z
" style="fill: #ffffff; opacity: 0.8; stroke: #cccccc; stroke-linejoin: miter"/>
    </g>
    <g id="text_19">
     <!-- T_end -->
     <g transform="translate(585.969531 343.765938) scale(0.1 -0.1)">
      <defs>
       <path id="DejaVuSans-64" d="M 2906 2969 
L 2906 4863 
L 3481 4863 
L 3481 0 
L 2906 0 
L 2906 525 
Q 2725 213 2448 61 
Q 2172 -91 1784 -91 
Q 1150 -91 751 415 
Q 353 922 353 1747 
Q 353 2572 751 3078 
Q 1150 3584 1784 3584 
Q 2172 3584 2448 3432 
Q 2725 3281 2906 2969 
z
M 947 1747 
Q 947 1113 1208 752 
Q 1469 391 1925 391 
Q 2381 391 2643 752 
Q 2906 1113 2906 1747 
Q 2906 2381 2643 2742 
Q 2381 3103 1925 3103 
Q 1469 3103 1208 2742 
Q 947 2381 947 1747 
z
" transform="scale(0.015625)"/>
      </defs>
      <use xlink:href="#DejaVuSans-54"/>
      <use xlink:href="#DejaVuSans-5f" transform="translate(61.083984 0)"/>
      <use xlink:href="#DejaVuSans-65" transform="translate(111.083984 0)"/>
      <use xlink:href="#DejaVuSans-6e" transform="translate(172.607422 0)"/>
      <use xlink:href="#DejaVuSans-64" transform="translate(235.986328 0)"/>
     </g>
    </g>
    <g id="line2d_30">
     <path d="M 562.885937 355.222188 
L 572.885937 355.222188 
L 582.885937 355.222188 
" style="fill: none; stroke: #440154; stroke-width: 1.5; stroke-linecap: square"/>
    </g>
    <g id="text_20">
     <!-- Cfg 15.0 -->
     <g transform="translate(590.885937 358.722188) scale(0.1 -0.1)">
      <defs>
       <path id="DejaVuSans-43" d="M 4122 4306 
L 4122 3641 
Q 3803 3938 3442 4084 
Q 3081 4231 2675 4231 
Q 1875 4231 1450 3742 
Q 1025 3253 1025 2328 
Q 1025 1406 1450 917 
Q 1875 428 2675 428 
Q 3081 428 3442 575 
Q 3803 722 4122 1019 
L 4122 359 
Q 3791 134 3420 21 
Q 3050 -91 2638 -91 
Q 1578 -91 968 557 
Q 359 1206 359 2328 
Q 359 3453 968 4101 
Q 1578 4750 2638 4750 
Q 3056 4750 3426 4639 
Q 3797 4528 4122 4306 
z
" transform="scale(0.015625)"/>
       <path id="DejaVuSans-67" d="M 2906 1791 
Q 2906 2416 2648 2759 
Q 2391 3103 1925 3103 
Q 1463 3103 1205 2759 
Q 947 2416 947 1791 
Q 947 1169 1205 825 
Q 1463 481 1925 481 
Q 2391 481 2648 825 
Q 2906 1169 2906 1791 
z
M 3481 434 
Q 3481 -459 3084 -895 
Q 2688 -1331 1869 -1331 
Q 1566 -1331 1297 -1286 
Q 1028 -1241 775 -1147 
L 775 -588 
Q 1028 -725 1275 -790 
Q 1522 -856 1778 -856 
Q 2344 -856 2625 -561 
Q 2906 -266 2906 331 
L 2906 616 
Q 2728 306 2450 153 
Q 2172 0 1784 0 
Q 1141 0 747 490 
Q 353 981 353 1791 
Q 353 2603 747 3093 
Q 1141 3584 1784 3584 
Q 2172 3584 2450 3431 
Q 2728 3278 2906 2969 
L 2906 3500 
L 3481 3500 
L 3481 434 
z
" transform="scale(0.015625)"/>
       <path id="DejaVuSans-35" d="M 691 4666 
L 3169 4666 
L 3169 4134 
L 1269 4134 
L 1269 2991 
Q 1406 3038 1543 3061 
Q 1681 3084 1819 3084 
Q 2600 3084 3056 2656 
Q 3513 2228 3513 1497 
Q 3513 744 3044 326 
Q 2575 -91 1722 -91 
Q 1428 -91 1123 -41 
Q 819 9 494 109 
L 494 744 
Q 775 591 1075 516 
Q 1375 441 1709 441 
Q 2250 441 2565 725 
Q 2881 1009 2881 1497 
Q 2881 1984 2565 2268 
Q 2250 2553 1709 2553 
Q 1456 2553 1204 2497 
Q 953 2441 691 2322 
L 691 4666 
z
" transform="scale(0.015625)"/>
      </defs>
      <use xlink:href="#DejaVuSans-43"/>
      <use xlink:href="#DejaVuSans-66" transform="translate(69.824219 0)"/>
      <use xlink:href="#DejaVuSans-67" transform="translate(105.029297 0)"/>
      <use xlink:href="#DejaVuSans-20" transform="translate(168.505859 0)"/>
      <use xlink:href="#DejaVuSans-31" transform="translate(200.292969 0)"/>
      <use xlink:href="#DejaVuSans-35" transform="translate(263.916016 0)"/>
      <use xlink:href="#DejaVuSans-2e" transform="translate(327.539062 0)"/>
      <use xlink:href="#DejaVuSans-30" transform="translate(359.326172 0)"/>
     </g>
    </g>
    <g id="PathCollection_1">
     <defs>
      <path id="mcdc9c72239" d="M -3 3 
L 3 -3 
M -3 -3 
L 3 3 
" style="stroke: #ff0000; stroke-width: 1.5"/>
     </defs>
     <g>
      <use xlink:href="#mcdc9c72239" x="572.885937" y="370.775312" style="fill: #ff0000; stroke: #ff0000; stroke-width: 1.5"/>
     </g>
    </g>
    <g id="text_21">
     <!-- Observed -->
     <g transform="translate(590.885937 373.400312) scale(0.1 -0.1)">
      <defs>
       <path id="DejaVuSans-62" d="M 3116 1747 
Q 3116 2381 2855 2742 
Q 2594 3103 2138 3103 
Q 1681 3103 1420 2742 
Q 1159 2381 1159 1747 
Q 1159 1113 1420 752 
Q 1681 391 2138 391 
Q 2594 391 2855 752 
Q 3116 1113 3116 1747 
z
M 1159 2969 
Q 1341 3281 1617 3432 
Q 1894 3584 2278 3584 
Q 2916 3584 3314 3078 
Q 3713 2572 3713 1747 
Q 3713 922 3314 415 
Q 2916 -91 2278 -91 
Q 1894 -91 1617 61 
Q 1341 213 1159 525 
L 1159 0 
L 581 0 
L 581 4863 
L 1159 4863 
L 1159 2969 
z
" transform="scale(0.015625)"/>
      </defs>
      <use xlink:href="#DejaVuSans-4f"/>
      <use xlink:href="#DejaVuSans-62" transform="translate(78.710938 0)"/>
      <use xlink:href="#DejaVuSans-73" transform="translate(142.1875 0)"/>
      <use xlink:href="#DejaVuSans-65" transform="translate(194.287109 0)"/>
      <use xlink:href="#DejaVuSans-72" transform="translate(255.810547 0)"/>
      <use xlink:href="#DejaVuSans-76" transform="translate(296.923828 0)"/>
      <use xlink:href="#DejaVuSans-65" transform="translate(356.103516 0)"/>
      <use xlink:href="#DejaVuSans-64" transform="translate(417.626953 0)"/>
     </g>
    </g>
   </g>
   <g id="PathCollection_2">
    <g clip-path="url(#pb1f9cb3330)">
     <use xlink:href="#mcdc9c72239" x="115.363636" y="369.159868" style="fill: #ff0000; stroke: #ff0000; stroke-width: 1.5"/>
     <use xlink:href="#mcdc9c72239" x="132.275842" y="243.076479" style="fill: #ff0000; stroke: #ff0000; stroke-width: 1.5"/>
     <use xlink:href="#mcdc9c72239" x="149.188047" y="187.039418" style="fill: #ff0000; stroke: #ff0000; stroke-width: 1.5"/>
     <use xlink:href="#mcdc9c72239" x="199.924664" y="117.993752" style="fill: #ff0000; stroke: #ff0000; stroke-width: 1.5"/>
     <use xlink:href="#mcdc9c72239" x="284.454545" y="81.969927" style="fill: #ff0000; stroke: #ff0000; stroke-width: 1.5"/>
     <use xlink:href="#mcdc9c72239" x="453.545455" y="67.360265" style="fill: #ff0000; stroke: #ff0000; stroke-width: 1.5"/>
     <use xlink:href="#mcdc9c72239" x="622.636364" y="66.96" style="fill: #ff0000; stroke: #ff0000; stroke-width: 1.5"/>
     <use xlink:href="#mcdc9c72239" x="115.363636" y="79.368206" style="fill: #ff0000; stroke: #ff0000; stroke-width: 1.5"/>
     <use xlink:href="#mcdc9c72239" x="115.675095" y="80.569001" style="fill: #ff0000; stroke: #ff0000; stroke-width: 1.5"/>
     <use xlink:href="#mcdc9c72239" x="115.986554" y="80.969265" style="fill: #ff0000; stroke: #ff0000; stroke-width: 1.5"/>
     <use xlink:href="#mcdc9c72239" x="116.609471" y="80.769133" style="fill: #ff0000; stroke: #ff0000; stroke-width: 1.5"/>
     <use xlink:href="#mcdc9c72239" x="117.855306" y="81.36953" style="fill: #ff0000; stroke: #ff0000; stroke-width: 1.5"/>
     <use xlink:href="#mcdc9c72239" x="120.346975" y="81.969927" style="fill: #ff0000; stroke: #ff0000; stroke-width: 1.5"/>
     <use xlink:href="#mcdc9c72239" x="125.330314" y="82.570324" style="fill: #ff0000; stroke: #ff0000; stroke-width: 1.5"/>
     <use xlink:href="#mcdc9c72239" x="135.296991" y="83.771118" style="fill: #ff0000; stroke: #ff0000; stroke-width: 1.5"/>
     <use xlink:href="#mcdc9c72239" x="155.230345" y="86.372839" style="fill: #ff0000; stroke: #ff0000; stroke-width: 1.5"/>
     <use xlink:href="#mcdc9c72239" x="195.097055" y="91.176016" style="fill: #ff0000; stroke: #ff0000; stroke-width: 1.5"/>
     <use xlink:href="#mcdc9c72239" x="274.830473" y="99.381443" style="fill: #ff0000; stroke: #ff0000; stroke-width: 1.5"/>
     <use xlink:href="#mcdc9c72239" x="434.297309" y="111.589517" style="fill: #ff0000; stroke: #ff0000; stroke-width: 1.5"/>
     <use xlink:href="#mcdc9c72239" x="115.363636" y="81.169398" style="fill: #ff0000; stroke: #ff0000; stroke-width: 1.5"/>
     <use xlink:href="#mcdc9c72239" x="115.675095" y="81.769795" style="fill: #ff0000; stroke: #ff0000; stroke-width: 1.5"/>
     <use xlink:href="#mcdc9c72239" x="115.986554" y="82.17006" style="fill: #ff0000; stroke: #ff0000; stroke-width: 1.5"/>
     <use xlink:href="#mcdc9c72239" x="116.609471" y="82.17006" style="fill: #ff0000; stroke: #ff0000; stroke-width: 1.5"/>
     <use xlink:href="#mcdc9c72239" x="117.855306" y="83.370854" style="fill: #ff0000; stroke: #ff0000; stroke-width: 1.5"/>
     <use xlink:href="#mcdc9c72239" x="120.346975" y="84.971913" style="fill: #ff0000; stroke: #ff0000; stroke-width: 1.5"/>
     <use xlink:href="#mcdc9c72239" x="125.330314" y="88.574295" style="fill: #ff0000; stroke: #ff0000; stroke-width: 1.5"/>
     <use xlink:href="#mcdc9c72239" x="135.296991" y="93.577604" style="fill: #ff0000; stroke: #ff0000; stroke-width: 1.5"/>
     <use xlink:href="#mcdc9c72239" x="155.230345" y="103.984487" style="fill: #ff0000; stroke: #ff0000; stroke-width: 1.5"/>
     <use xlink:href="#mcdc9c72239" x="195.097055" y="120.395341" style="fill: #ff0000; stroke: #ff0000; stroke-width: 1.5"/>
     <use xlink:href="#mcdc9c72239" x="274.830473" y="144.611357" style="fill: #ff0000; stroke: #ff0000; stroke-width: 1.5"/>
     <use xlink:href="#mcdc9c72239" x="434.297309" y="174.831343" style="fill: #ff0000; stroke: #ff0000; stroke-width: 1.5"/>
     <use xlink:href="#mcdc9c72239" x="115.363636" y="81.169398" style="fill: #ff0000; stroke: #ff0000; stroke-width: 1.5"/>
     <use xlink:href="#mcdc9c72239" x="115.675095" y="83.971251" style="fill: #ff0000; stroke: #ff0000; stroke-width: 1.5"/>
     <use xlink:href="#mcdc9c72239" x="115.986554" y="84.571648" style="fill: #ff0000; stroke: #ff0000; stroke-width: 1.5"/>
     <use xlink:href="#mcdc9c72239" x="116.609471" y="87.173369" style="fill: #ff0000; stroke: #ff0000; stroke-width: 1.5"/>
     <use xlink:href="#mcdc9c72239" x="117.855306" y="89.374825" style="fill: #ff0000; stroke: #ff0000; stroke-width: 1.5"/>
     <use xlink:href="#mcdc9c72239" x="120.346975" y="96.379457" style="fill: #ff0000; stroke: #ff0000; stroke-width: 1.5"/>
     <use xlink:href="#mcdc9c72239" x="125.330314" y="107.58687" style="fill: #ff0000; stroke: #ff0000; stroke-width: 1.5"/>
     <use xlink:href="#mcdc9c72239" x="135.296991" y="125.798915" style="fill: #ff0000; stroke: #ff0000; stroke-width: 1.5"/>
     <use xlink:href="#mcdc9c72239" x="155.230345" y="152.616651" style="fill: #ff0000; stroke: #ff0000; stroke-width: 1.5"/>
     <use xlink:href="#mcdc9c72239" x="195.097055" y="187.639815" style="fill: #ff0000; stroke: #ff0000; stroke-width: 1.5"/>
     <use xlink:href="#mcdc9c72239" x="274.830473" y="229.067214" style="fill: #ff0000; stroke: #ff0000; stroke-width: 1.5"/>
     <use xlink:href="#mcdc9c72239" x="434.297309" y="268.693422" style="fill: #ff0000; stroke: #ff0000; stroke-width: 1.5"/>
     <use xlink:href="#mcdc9c72239" x="115.363636" y="83.370854" style="fill: #ff0000; stroke: #ff0000; stroke-width: 1.5"/>
     <use xlink:href="#mcdc9c72239" x="115.675095" y="89.174692" style="fill: #ff0000; stroke: #ff0000; stroke-width: 1.5"/>
     <use xlink:href="#mcdc9c72239" x="115.986554" y="92.576942" style="fill: #ff0000; stroke: #ff0000; stroke-width: 1.5"/>
     <use xlink:href="#mcdc9c72239" x="116.609471" y="98.981178" style="fill: #ff0000; stroke: #ff0000; stroke-width: 1.5"/>
     <use xlink:href="#mcdc9c72239" x="117.855306" y="110.98912" style="fill: #ff0000; stroke: #ff0000; stroke-width: 1.5"/>
     <use xlink:href="#mcdc9c72239" x="120.346975" y="130.201827" style="fill: #ff0000; stroke: #ff0000; stroke-width: 1.5"/>
     <use xlink:href="#mcdc9c72239" x="125.330314" y="158.020225" style="fill: #ff0000; stroke: #ff0000; stroke-width: 1.5"/>
     <use xlink:href="#mcdc9c72239" x="135.296991" y="195.044712" style="fill: #ff0000; stroke: #ff0000; stroke-width: 1.5"/>
     <use xlink:href="#mcdc9c72239" x="155.230345" y="237.472773" style="fill: #ff0000; stroke: #ff0000; stroke-width: 1.5"/>
     <use xlink:href="#mcdc9c72239" x="195.097055" y="277.499246" style="fill: #ff0000; stroke: #ff0000; stroke-width: 1.5"/>
     <use xlink:href="#mcdc9c72239" x="274.830473" y="314.923997" style="fill: #ff0000; stroke: #ff0000; stroke-width: 1.5"/>
     <use xlink:href="#mcdc9c72239" x="434.297309" y="340.340807" style="fill: #ff0000; stroke: #ff0000; stroke-width: 1.5"/>
     <use xlink:href="#mcdc9c72239" x="115.363636" y="92.176678" style="fill: #ff0000; stroke: #ff0000; stroke-width: 1.5"/>
     <use xlink:href="#mcdc9c72239" x="115.675095" y="105.585546" style="fill: #ff0000; stroke: #ff0000; stroke-width: 1.5"/>
     <use xlink:href="#mcdc9c72239" x="115.986554" y="116.392694" style="fill: #ff0000; stroke: #ff0000; stroke-width: 1.5"/>
     <use xlink:href="#mcdc9c72239" x="116.609471" y="133.804209" style="fill: #ff0000; stroke: #ff0000; stroke-width: 1.5"/>
     <use xlink:href="#mcdc9c72239" x="117.855306" y="160.221681" style="fill: #ff0000; stroke: #ff0000; stroke-width: 1.5"/>
     <use xlink:href="#mcdc9c72239" x="120.346975" y="196.045374" style="fill: #ff0000; stroke: #ff0000; stroke-width: 1.5"/>
     <use xlink:href="#mcdc9c72239" x="125.330314" y="238.673567" style="fill: #ff0000; stroke: #ff0000; stroke-width: 1.5"/>
     <use xlink:href="#mcdc9c72239" x="135.296991" y="281.101628" style="fill: #ff0000; stroke: #ff0000; stroke-width: 1.5"/>
     <use xlink:href="#mcdc9c72239" x="155.230345" y="317.325586" style="fill: #ff0000; stroke: #ff0000; stroke-width: 1.5"/>
     <use xlink:href="#mcdc9c72239" x="195.097055" y="343.342793" style="fill: #ff0000; stroke: #ff0000; stroke-width: 1.5"/>
     <use xlink:href="#mcdc9c72239" x="274.830473" y="358.552852" style="fill: #ff0000; stroke: #ff0000; stroke-width: 1.5"/>
     <use xlink:href="#mcdc9c72239" x="434.297309" y="365.557485" style="fill: #ff0000; stroke: #ff0000; stroke-width: 1.5"/>
     <use xlink:href="#mcdc9c72239" x="115.363636" y="207.653051" style="fill: #ff0000; stroke: #ff0000; stroke-width: 1.5"/>
     <use xlink:href="#mcdc9c72239" x="115.675095" y="258.086406" style="fill: #ff0000; stroke: #ff0000; stroke-width: 1.5"/>
     <use xlink:href="#mcdc9c72239" x="115.986554" y="282.302422" style="fill: #ff0000; stroke: #ff0000; stroke-width: 1.5"/>
     <use xlink:href="#mcdc9c72239" x="116.609471" y="311.72188" style="fill: #ff0000; stroke: #ff0000; stroke-width: 1.5"/>
     <use xlink:href="#mcdc9c72239" x="117.855306" y="337.538954" style="fill: #ff0000; stroke: #ff0000; stroke-width: 1.5"/>
     <use xlink:href="#mcdc9c72239" x="120.346975" y="355.550867" style="fill: #ff0000; stroke: #ff0000; stroke-width: 1.5"/>
     <use xlink:href="#mcdc9c72239" x="125.330314" y="364.556823" style="fill: #ff0000; stroke: #ff0000; stroke-width: 1.5"/>
     <use xlink:href="#mcdc9c72239" x="135.296991" y="368.159206" style="fill: #ff0000; stroke: #ff0000; stroke-width: 1.5"/>
     <use xlink:href="#mcdc9c72239" x="155.230345" y="369.159868" style="fill: #ff0000; stroke: #ff0000; stroke-width: 1.5"/>
     <use xlink:href="#mcdc9c72239" x="195.097055" y="369.36" style="fill: #ff0000; stroke: #ff0000; stroke-width: 1.5"/>
     <use xlink:href="#mcdc9c72239" x="274.830473" y="369.36" style="fill: #ff0000; stroke: #ff0000; stroke-width: 1.5"/>
     <use xlink:href="#mcdc9c72239" x="434.297309" y="369.36" style="fill: #ff0000; stroke: #ff0000; stroke-width: 1.5"/>
     <use xlink:href="#mcdc9c72239" x="115.363636" y="356.751661" style="fill: #ff0000; stroke: #ff0000; stroke-width: 1.5"/>
     <use xlink:href="#mcdc9c72239" x="115.675095" y="365.15722" style="fill: #ff0000; stroke: #ff0000; stroke-width: 1.5"/>
     <use xlink:href="#mcdc9c72239" x="115.986554" y="367.358676" style="fill: #ff0000; stroke: #ff0000; stroke-width: 1.5"/>
     <use xlink:href="#mcdc9c72239" x="116.609471" y="368.759603" style="fill: #ff0000; stroke: #ff0000; stroke-width: 1.5"/>
     <use xlink:href="#mcdc9c72239" x="117.855306" y="369.159868" style="fill: #ff0000; stroke: #ff0000; stroke-width: 1.5"/>
     <use xlink:href="#mcdc9c72239" x="120.346975" y="369.36" style="fill: #ff0000; stroke: #ff0000; stroke-width: 1.5"/>
     <use xlink:href="#mcdc9c72239" x="125.330314" y="369.36" style="fill: #ff0000; stroke: #ff0000; stroke-width: 1.5"/>
     <use xlink:href="#mcdc9c72239" x="135.296991" y="369.36" style="fill: #ff0000; stroke: #ff0000; stroke-width: 1.5"/>
     <use xlink:href="#mcdc9c72239" x="155.230345" y="369.36" style="fill: #ff0000; stroke: #ff0000; stroke-width: 1.5"/>
     <use xlink:href="#mcdc9c72239" x="195.097055" y="369.36" style="fill: #ff0000; stroke: #ff0000; stroke-width: 1.5"/>
     <use xlink:href="#mcdc9c72239" x="274.830473" y="369.36" style="fill: #ff0000; stroke: #ff0000; stroke-width: 1.5"/>
     <use xlink:href="#mcdc9c72239" x="434.297309" y="369.36" style="fill: #ff0000; stroke: #ff0000; stroke-width: 1.5"/>
    </g>
   </g>
  </g>
 </g>
 <defs>
  <clipPath id="pb1f9cb3330">
   <rect x="90" y="51.84" width="558" height="332.64"/>
  </clipPath>
 </defs>
</svg>
