<?xml version="1.0" encoding="utf-8" standalone="no"?>
<!DOCTYPE svg PUBLIC "-//W3C//DTD SVG 1.1//EN"
  "http://www.w3.org/Graphics/SVG/1.1/DTD/svg11.dtd">
<svg xmlns:xlink="http://www.w3.org/1999/xlink" width="460.8pt" height="345.6pt" viewBox="0 0 460.8 345.6" xmlns="http://www.w3.org/2000/svg" version="1.1">
 <metadata>
  <rdf:RDF xmlns:dc="http://purl.org/dc/elements/1.1/" xmlns:cc="http://creativecommons.org/ns#" xmlns:rdf="http://www.w3.org/1999/02/22-rdf-syntax-ns#">
   <cc:Work>
    <dc:type rdf:resource="http://purl.org/dc/dcmitype/StillImage"/>
    <dc:date>2025-03-23T15:59:01.871113</dc:date>
    <dc:format>image/svg+xml</dc:format>
    <dc:creator>
     <cc:Agent>
      <dc:title>Matplotlib v3.10.0, https://matplotlib.org/</dc:title>
     </cc:Agent>
    </dc:creator>
   </cc:Work>
  </rdf:RDF>
 </metadata>
 <defs>
  <style type="text/css">*{stroke-linejoin: round; stroke-linecap: butt}</style>
 </defs>
 <g id="figure_1">
  <g id="patch_1">
   <path d="M 0 345.6 
L 460.8 345.6 
L 460.8 0 
L 0 0 
z
" style="fill: #ffffff"/>
  </g>
  <g id="axes_1">
   <g id="patch_2">
    <path d="M 57.6 307.584 
L 414.72 307.584 
L 414.72 41.472 
L 57.6 41.472 
z
" style="fill: #ffffff"/>
   </g>
   <g id="matplotlib.axis_1">
    <g id="xtick_1">
     <g id="line2d_1">
      <defs>
       <path id="ma38ba62b30" d="M 0 0 
L 0 3.5 
" style="stroke: #000000; stroke-width: 0.8"/>
      </defs>
      <g>
       <use xlink:href="#ma38ba62b30" x="63.159153" y="307.584" style="stroke: #000000; stroke-width: 0.8"/>
      </g>
     </g>
     <g id="text_1">
      <!-- 0 -->
      <g transform="translate(59.977903 322.182437) scale(0.1 -0.1)">
       <defs>
        <path id="DejaVuSans-30" d="M 2034 4250 
Q 1547 4250 1301 3770 
Q 1056 3291 1056 2328 
Q 1056 1369 1301 889 
Q 1547 409 2034 409 
Q 2525 409 2770 889 
Q 3016 1369 3016 2328 
Q 3016 3291 2770 3770 
Q 2525 4250 2034 4250 
z
M 2034 4750 
Q 2819 4750 3233 4129 
Q 3647 3509 3647 2328 
Q 3647 1150 3233 529 
Q 2819 -91 2034 -91 
Q 1250 -91 836 529 
Q 422 1150 422 2328 
Q 422 3509 836 4129 
Q 1250 4750 2034 4750 
z
" transform="scale(0.015625)"/>
       </defs>
       <use xlink:href="#DejaVuSans-30"/>
      </g>
     </g>
    </g>
    <g id="xtick_2">
     <g id="line2d_2">
      <g>
       <use xlink:href="#ma38ba62b30" x="107.632379" y="307.584" style="stroke: #000000; stroke-width: 0.8"/>
      </g>
     </g>
     <g id="text_2">
      <!-- 100 -->
      <g transform="translate(98.088629 322.182437) scale(0.1 -0.1)">
       <defs>
        <path id="DejaVuSans-31" d="M 794 531 
L 1825 531 
L 1825 4091 
L 703 3866 
L 703 4441 
L 1819 4666 
L 2450 4666 
L 2450 531 
L 3481 531 
L 3481 0 
L 794 0 
L 794 531 
z
" transform="scale(0.015625)"/>
       </defs>
       <use xlink:href="#DejaVuSans-31"/>
       <use xlink:href="#DejaVuSans-30" transform="translate(63.623047 0)"/>
       <use xlink:href="#DejaVuSans-30" transform="translate(127.246094 0)"/>
      </g>
     </g>
    </g>
    <g id="xtick_3">
     <g id="line2d_3">
      <g>
       <use xlink:href="#ma38ba62b30" x="152.105604" y="307.584" style="stroke: #000000; stroke-width: 0.8"/>
      </g>
     </g>
     <g id="text_3">
      <!-- 200 -->
      <g transform="translate(142.561854 322.182437) scale(0.1 -0.1)">
       <defs>
        <path id="DejaVuSans-32" d="M 1228 531 
L 3431 531 
L 3431 0 
L 469 0 
L 469 531 
Q 828 903 1448 1529 
Q 2069 2156 2228 2338 
Q 2531 2678 2651 2914 
Q 2772 3150 2772 3378 
Q 2772 3750 2511 3984 
Q 2250 4219 1831 4219 
Q 1534 4219 1204 4116 
Q 875 4013 500 3803 
L 500 4441 
Q 881 4594 1212 4672 
Q 1544 4750 1819 4750 
Q 2544 4750 2975 4387 
Q 3406 4025 3406 3419 
Q 3406 3131 3298 2873 
Q 3191 2616 2906 2266 
Q 2828 2175 2409 1742 
Q 1991 1309 1228 531 
z
" transform="scale(0.015625)"/>
       </defs>
       <use xlink:href="#DejaVuSans-32"/>
       <use xlink:href="#DejaVuSans-30" transform="translate(63.623047 0)"/>
       <use xlink:href="#DejaVuSans-30" transform="translate(127.246094 0)"/>
      </g>
     </g>
    </g>
    <g id="xtick_4">
     <g id="line2d_4">
      <g>
       <use xlink:href="#ma38ba62b30" x="196.578829" y="307.584" style="stroke: #000000; stroke-width: 0.8"/>
      </g>
     </g>
     <g id="text_4">
      <!-- 300 -->
      <g transform="translate(187.035079 322.182437) scale(0.1 -0.1)">
       <defs>
        <path id="DejaVuSans-33" d="M 2597 2516 
Q 3050 2419 3304 2112 
Q 3559 1806 3559 1356 
Q 3559 666 3084 287 
Q 2609 -91 1734 -91 
Q 1441 -91 1130 -33 
Q 819 25 488 141 
L 488 750 
Q 750 597 1062 519 
Q 1375 441 1716 441 
Q 2309 441 2620 675 
Q 2931 909 2931 1356 
Q 2931 1769 2642 2001 
Q 2353 2234 1838 2234 
L 1294 2234 
L 1294 2753 
L 1863 2753 
Q 2328 2753 2575 2939 
Q 2822 3125 2822 3475 
Q 2822 3834 2567 4026 
Q 2313 4219 1838 4219 
Q 1578 4219 1281 4162 
Q 984 4106 628 3988 
L 628 4550 
Q 988 4650 1302 4700 
Q 1616 4750 1894 4750 
Q 2613 4750 3031 4423 
Q 3450 4097 3450 3541 
Q 3450 3153 3228 2886 
Q 3006 2619 2597 2516 
z
" transform="scale(0.015625)"/>
       </defs>
       <use xlink:href="#DejaVuSans-33"/>
       <use xlink:href="#DejaVuSans-30" transform="translate(63.623047 0)"/>
       <use xlink:href="#DejaVuSans-30" transform="translate(127.246094 0)"/>
      </g>
     </g>
    </g>
    <g id="xtick_5">
     <g id="line2d_5">
      <g>
       <use xlink:href="#ma38ba62b30" x="241.052055" y="307.584" style="stroke: #000000; stroke-width: 0.8"/>
      </g>
     </g>
     <g id="text_5">
      <!-- 400 -->
      <g transform="translate(231.508305 322.182437) scale(0.1 -0.1)">
       <defs>
        <path id="DejaVuSans-34" d="M 2419 4116 
L 825 1625 
L 2419 1625 
L 2419 4116 
z
M 2253 4666 
L 3047 4666 
L 3047 1625 
L 3713 1625 
L 3713 1100 
L 3047 1100 
L 3047 0 
L 2419 0 
L 2419 1100 
L 313 1100 
L 313 1709 
L 2253 4666 
z
" transform="scale(0.015625)"/>
       </defs>
       <use xlink:href="#DejaVuSans-34"/>
       <use xlink:href="#DejaVuSans-30" transform="translate(63.623047 0)"/>
       <use xlink:href="#DejaVuSans-30" transform="translate(127.246094 0)"/>
      </g>
     </g>
    </g>
    <g id="xtick_6">
     <g id="line2d_6">
      <g>
       <use xlink:href="#ma38ba62b30" x="285.52528" y="307.584" style="stroke: #000000; stroke-width: 0.8"/>
      </g>
     </g>
     <g id="text_6">
      <!-- 500 -->
      <g transform="translate(275.98153 322.182437) scale(0.1 -0.1)">
       <defs>
        <path id="DejaVuSans-35" d="M 691 4666 
L 3169 4666 
L 3169 4134 
L 1269 4134 
L 1269 2991 
Q 1406 3038 1543 3061 
Q 1681 3084 1819 3084 
Q 2600 3084 3056 2656 
Q 3513 2228 3513 1497 
Q 3513 744 3044 326 
Q 2575 -91 1722 -91 
Q 1428 -91 1123 -41 
Q 819 9 494 109 
L 494 744 
Q 775 591 1075 516 
Q 1375 441 1709 441 
Q 2250 441 2565 725 
Q 2881 1009 2881 1497 
Q 2881 1984 2565 2268 
Q 2250 2553 1709 2553 
Q 1456 2553 1204 2497 
Q 953 2441 691 2322 
L 691 4666 
z
" transform="scale(0.015625)"/>
       </defs>
       <use xlink:href="#DejaVuSans-35"/>
       <use xlink:href="#DejaVuSans-30" transform="translate(63.623047 0)"/>
       <use xlink:href="#DejaVuSans-30" transform="translate(127.246094 0)"/>
      </g>
     </g>
    </g>
    <g id="xtick_7">
     <g id="line2d_7">
      <g>
       <use xlink:href="#ma38ba62b30" x="329.998506" y="307.584" style="stroke: #000000; stroke-width: 0.8"/>
      </g>
     </g>
     <g id="text_7">
      <!-- 600 -->
      <g transform="translate(320.454756 322.182437) scale(0.1 -0.1)">
       <defs>
        <path id="DejaVuSans-36" d="M 2113 2584 
Q 1688 2584 1439 2293 
Q 1191 2003 1191 1497 
Q 1191 994 1439 701 
Q 1688 409 2113 409 
Q 2538 409 2786 701 
Q 3034 994 3034 1497 
Q 3034 2003 2786 2293 
Q 2538 2584 2113 2584 
z
M 3366 4563 
L 3366 3988 
Q 3128 4100 2886 4159 
Q 2644 4219 2406 4219 
Q 1781 4219 1451 3797 
Q 1122 3375 1075 2522 
Q 1259 2794 1537 2939 
Q 1816 3084 2150 3084 
Q 2853 3084 3261 2657 
Q 3669 2231 3669 1497 
Q 3669 778 3244 343 
Q 2819 -91 2113 -91 
Q 1303 -91 875 529 
Q 447 1150 447 2328 
Q 447 3434 972 4092 
Q 1497 4750 2381 4750 
Q 2619 4750 2861 4703 
Q 3103 4656 3366 4563 
z
" transform="scale(0.015625)"/>
       </defs>
       <use xlink:href="#DejaVuSans-36"/>
       <use xlink:href="#DejaVuSans-30" transform="translate(63.623047 0)"/>
       <use xlink:href="#DejaVuSans-30" transform="translate(127.246094 0)"/>
      </g>
     </g>
    </g>
    <g id="xtick_8">
     <g id="line2d_8">
      <g>
       <use xlink:href="#ma38ba62b30" x="374.471731" y="307.584" style="stroke: #000000; stroke-width: 0.8"/>
      </g>
     </g>
     <g id="text_8">
      <!-- 700 -->
      <g transform="translate(364.927981 322.182437) scale(0.1 -0.1)">
       <defs>
        <path id="DejaVuSans-37" d="M 525 4666 
L 3525 4666 
L 3525 4397 
L 1831 0 
L 1172 0 
L 2766 4134 
L 525 4134 
L 525 4666 
z
" transform="scale(0.015625)"/>
       </defs>
       <use xlink:href="#DejaVuSans-37"/>
       <use xlink:href="#DejaVuSans-30" transform="translate(63.623047 0)"/>
       <use xlink:href="#DejaVuSans-30" transform="translate(127.246094 0)"/>
      </g>
     </g>
    </g>
    <g id="text_9">
     <!-- Temperature ($^{\circ}C$) -->
     <g transform="translate(192.16 335.862125) scale(0.1 -0.1)">
      <defs>
       <path id="DejaVuSans-54" d="M -19 4666 
L 3928 4666 
L 3928 4134 
L 2272 4134 
L 2272 0 
L 1638 0 
L 1638 4134 
L -19 4134 
L -19 4666 
z
" transform="scale(0.015625)"/>
       <path id="DejaVuSans-65" d="M 3597 1894 
L 3597 1613 
L 953 1613 
Q 991 1019 1311 708 
Q 1631 397 2203 397 
Q 2534 397 2845 478 
Q 3156 559 3463 722 
L 3463 178 
Q 3153 47 2828 -22 
Q 2503 -91 2169 -91 
Q 1331 -91 842 396 
Q 353 884 353 1716 
Q 353 2575 817 3079 
Q 1281 3584 2069 3584 
Q 2775 3584 3186 3129 
Q 3597 2675 3597 1894 
z
M 3022 2063 
Q 3016 2534 2758 2815 
Q 2500 3097 2075 3097 
Q 1594 3097 1305 2825 
Q 1016 2553 972 2059 
L 3022 2063 
z
" transform="scale(0.015625)"/>
       <path id="DejaVuSans-6d" d="M 3328 2828 
Q 3544 3216 3844 3400 
Q 4144 3584 4550 3584 
Q 5097 3584 5394 3201 
Q 5691 2819 5691 2113 
L 5691 0 
L 5113 0 
L 5113 2094 
Q 5113 2597 4934 2840 
Q 4756 3084 4391 3084 
Q 3944 3084 3684 2787 
Q 3425 2491 3425 1978 
L 3425 0 
L 2847 0 
L 2847 2094 
Q 2847 2600 2669 2842 
Q 2491 3084 2119 3084 
Q 1678 3084 1418 2786 
Q 1159 2488 1159 1978 
L 1159 0 
L 581 0 
L 581 3500 
L 1159 3500 
L 1159 2956 
Q 1356 3278 1631 3431 
Q 1906 3584 2284 3584 
Q 2666 3584 2933 3390 
Q 3200 3197 3328 2828 
z
" transform="scale(0.015625)"/>
       <path id="DejaVuSans-70" d="M 1159 525 
L 1159 -1331 
L 581 -1331 
L 581 3500 
L 1159 3500 
L 1159 2969 
Q 1341 3281 1617 3432 
Q 1894 3584 2278 3584 
Q 2916 3584 3314 3078 
Q 3713 2572 3713 1747 
Q 3713 922 3314 415 
Q 2916 -91 2278 -91 
Q 1894 -91 1617 61 
Q 1341 213 1159 525 
z
M 3116 1747 
Q 3116 2381 2855 2742 
Q 2594 3103 2138 3103 
Q 1681 3103 1420 2742 
Q 1159 2381 1159 1747 
Q 1159 1113 1420 752 
Q 1681 391 2138 391 
Q 2594 391 2855 752 
Q 3116 1113 3116 1747 
z
" transform="scale(0.015625)"/>
       <path id="DejaVuSans-72" d="M 2631 2963 
Q 2534 3019 2420 3045 
Q 2306 3072 2169 3072 
Q 1681 3072 1420 2755 
Q 1159 2438 1159 1844 
L 1159 0 
L 581 0 
L 581 3500 
L 1159 3500 
L 1159 2956 
Q 1341 3275 1631 3429 
Q 1922 3584 2338 3584 
Q 2397 3584 2469 3576 
Q 2541 3569 2628 3553 
L 2631 2963 
z
" transform="scale(0.015625)"/>
       <path id="DejaVuSans-61" d="M 2194 1759 
Q 1497 1759 1228 1600 
Q 959 1441 959 1056 
Q 959 750 1161 570 
Q 1363 391 1709 391 
Q 2188 391 2477 730 
Q 2766 1069 2766 1631 
L 2766 1759 
L 2194 1759 
z
M 3341 1997 
L 3341 0 
L 2766 0 
L 2766 531 
Q 2569 213 2275 61 
Q 1981 -91 1556 -91 
Q 1019 -91 701 211 
Q 384 513 384 1019 
Q 384 1609 779 1909 
Q 1175 2209 1959 2209 
L 2766 2209 
L 2766 2266 
Q 2766 2663 2505 2880 
Q 2244 3097 1772 3097 
Q 1472 3097 1187 3025 
Q 903 2953 641 2809 
L 641 3341 
Q 956 3463 1253 3523 
Q 1550 3584 1831 3584 
Q 2591 3584 2966 3190 
Q 3341 2797 3341 1997 
z
" transform="scale(0.015625)"/>
       <path id="DejaVuSans-74" d="M 1172 4494 
L 1172 3500 
L 2356 3500 
L 2356 3053 
L 1172 3053 
L 1172 1153 
Q 1172 725 1289 603 
Q 1406 481 1766 481 
L 2356 481 
L 2356 0 
L 1766 0 
Q 1100 0 847 248 
Q 594 497 594 1153 
L 594 3053 
L 172 3053 
L 172 3500 
L 594 3500 
L 594 4494 
L 1172 4494 
z
" transform="scale(0.015625)"/>
       <path id="DejaVuSans-75" d="M 544 1381 
L 544 3500 
L 1119 3500 
L 1119 1403 
Q 1119 906 1312 657 
Q 1506 409 1894 409 
Q 2359 409 2629 706 
Q 2900 1003 2900 1516 
L 2900 3500 
L 3475 3500 
L 3475 0 
L 2900 0 
L 2900 538 
Q 2691 219 2414 64 
Q 2138 -91 1772 -91 
Q 1169 -91 856 284 
Q 544 659 544 1381 
z
M 1991 3584 
L 1991 3584 
z
" transform="scale(0.015625)"/>
       <path id="DejaVuSans-20" transform="scale(0.015625)"/>
       <path id="DejaVuSans-28" d="M 1984 4856 
Q 1566 4138 1362 3434 
Q 1159 2731 1159 2009 
Q 1159 1288 1364 580 
Q 1569 -128 1984 -844 
L 1484 -844 
Q 1016 -109 783 600 
Q 550 1309 550 2009 
Q 550 2706 781 3412 
Q 1013 4119 1484 4856 
L 1984 4856 
z
" transform="scale(0.015625)"/>
       <path id="DejaVuSans-2218" d="M 2000 2619 
Q 1750 2619 1578 2445 
Q 1406 2272 1406 2022 
Q 1406 1775 1578 1605 
Q 1750 1435 2000 1435 
Q 2250 1435 2422 1605 
Q 2594 1775 2594 2022 
Q 2594 2269 2420 2444 
Q 2247 2619 2000 2619 
z
M 2000 3022 
Q 2200 3022 2384 2945 
Q 2569 2869 2703 2725 
Q 2847 2585 2919 2406 
Q 2991 2228 2991 2022 
Q 2991 1610 2702 1324 
Q 2413 1038 1994 1038 
Q 1572 1038 1290 1319 
Q 1009 1600 1009 2022 
Q 1009 2441 1296 2731 
Q 1584 3022 2000 3022 
z
" transform="scale(0.015625)"/>
       <path id="DejaVuSans-Oblique-43" d="M 4447 4306 
L 4319 3641 
Q 4019 3944 3683 4091 
Q 3347 4238 2956 4238 
Q 2422 4238 2017 3981 
Q 1613 3725 1319 3200 
Q 1131 2863 1032 2486 
Q 934 2109 934 1728 
Q 934 1091 1264 756 
Q 1594 422 2222 422 
Q 2656 422 3056 561 
Q 3456 700 3834 978 
L 3688 231 
Q 3316 72 2936 -9 
Q 2556 -91 2175 -91 
Q 1278 -91 773 396 
Q 269 884 269 1753 
Q 269 2309 461 2846 
Q 653 3384 1013 3828 
Q 1394 4300 1883 4525 
Q 2372 4750 3022 4750 
Q 3422 4750 3780 4639 
Q 4138 4528 4447 4306 
z
" transform="scale(0.015625)"/>
       <path id="DejaVuSans-29" d="M 513 4856 
L 1013 4856 
Q 1481 4119 1714 3412 
Q 1947 2706 1947 2009 
Q 1947 1309 1714 600 
Q 1481 -109 1013 -844 
L 513 -844 
Q 928 -128 1133 580 
Q 1338 1288 1338 2009 
Q 1338 2731 1133 3434 
Q 928 4138 513 4856 
z
" transform="scale(0.015625)"/>
      </defs>
      <use xlink:href="#DejaVuSans-54" transform="translate(0 0.125)"/>
      <use xlink:href="#DejaVuSans-65" transform="translate(61.083984 0.125)"/>
      <use xlink:href="#DejaVuSans-6d" transform="translate(122.607422 0.125)"/>
      <use xlink:href="#DejaVuSans-70" transform="translate(220.019531 0.125)"/>
      <use xlink:href="#DejaVuSans-65" transform="translate(283.496094 0.125)"/>
      <use xlink:href="#DejaVuSans-72" transform="translate(345.019531 0.125)"/>
      <use xlink:href="#DejaVuSans-61" transform="translate(386.132812 0.125)"/>
      <use xlink:href="#DejaVuSans-74" transform="translate(447.412109 0.125)"/>
      <use xlink:href="#DejaVuSans-75" transform="translate(486.621094 0.125)"/>
      <use xlink:href="#DejaVuSans-72" transform="translate(550 0.125)"/>
      <use xlink:href="#DejaVuSans-65" transform="translate(591.113281 0.125)"/>
      <use xlink:href="#DejaVuSans-20" transform="translate(652.636719 0.125)"/>
      <use xlink:href="#DejaVuSans-28" transform="translate(684.423828 0.125)"/>
      <use xlink:href="#DejaVuSans-2218" transform="translate(724.394531 38.40625) scale(0.7)"/>
      <use xlink:href="#DejaVuSans-Oblique-43" transform="translate(770.947266 0.125)"/>
      <use xlink:href="#DejaVuSans-29" transform="translate(840.771484 0.125)"/>
     </g>
    </g>
   </g>
   <g id="matplotlib.axis_2">
    <g id="ytick_1">
     <g id="line2d_9">
      <defs>
       <path id="m7cb990205a" d="M 0 0 
L -3.5 0 
" style="stroke: #000000; stroke-width: 0.8"/>
      </defs>
      <g>
       <use xlink:href="#m7cb990205a" x="57.6" y="295.488" style="stroke: #000000; stroke-width: 0.8"/>
      </g>
     </g>
     <g id="text_10">
      <!-- 0.0 -->
      <g transform="translate(34.696875 299.287219) scale(0.1 -0.1)">
       <defs>
        <path id="DejaVuSans-2e" d="M 684 794 
L 1344 794 
L 1344 0 
L 684 0 
L 684 794 
z
" transform="scale(0.015625)"/>
       </defs>
       <use xlink:href="#DejaVuSans-30"/>
       <use xlink:href="#DejaVuSans-2e" transform="translate(63.623047 0)"/>
       <use xlink:href="#DejaVuSans-30" transform="translate(95.410156 0)"/>
      </g>
     </g>
    </g>
    <g id="ytick_2">
     <g id="line2d_10">
      <g>
       <use xlink:href="#m7cb990205a" x="57.6" y="253.777655" style="stroke: #000000; stroke-width: 0.8"/>
      </g>
     </g>
     <g id="text_11">
      <!-- 0.2 -->
      <g transform="translate(34.696875 257.576874) scale(0.1 -0.1)">
       <use xlink:href="#DejaVuSans-30"/>
       <use xlink:href="#DejaVuSans-2e" transform="translate(63.623047 0)"/>
       <use xlink:href="#DejaVuSans-32" transform="translate(95.410156 0)"/>
      </g>
     </g>
    </g>
    <g id="ytick_3">
     <g id="line2d_11">
      <g>
       <use xlink:href="#m7cb990205a" x="57.6" y="212.06731" style="stroke: #000000; stroke-width: 0.8"/>
      </g>
     </g>
     <g id="text_12">
      <!-- 0.4 -->
      <g transform="translate(34.696875 215.866529) scale(0.1 -0.1)">
       <use xlink:href="#DejaVuSans-30"/>
       <use xlink:href="#DejaVuSans-2e" transform="translate(63.623047 0)"/>
       <use xlink:href="#DejaVuSans-34" transform="translate(95.410156 0)"/>
      </g>
     </g>
    </g>
    <g id="ytick_4">
     <g id="line2d_12">
      <g>
       <use xlink:href="#m7cb990205a" x="57.6" y="170.356966" style="stroke: #000000; stroke-width: 0.8"/>
      </g>
     </g>
     <g id="text_13">
      <!-- 0.6 -->
      <g transform="translate(34.696875 174.156184) scale(0.1 -0.1)">
       <use xlink:href="#DejaVuSans-30"/>
       <use xlink:href="#DejaVuSans-2e" transform="translate(63.623047 0)"/>
       <use xlink:href="#DejaVuSans-36" transform="translate(95.410156 0)"/>
      </g>
     </g>
    </g>
    <g id="ytick_5">
     <g id="line2d_13">
      <g>
       <use xlink:href="#m7cb990205a" x="57.6" y="128.646621" style="stroke: #000000; stroke-width: 0.8"/>
      </g>
     </g>
     <g id="text_14">
      <!-- 0.8 -->
      <g transform="translate(34.696875 132.445839) scale(0.1 -0.1)">
       <defs>
        <path id="DejaVuSans-38" d="M 2034 2216 
Q 1584 2216 1326 1975 
Q 1069 1734 1069 1313 
Q 1069 891 1326 650 
Q 1584 409 2034 409 
Q 2484 409 2743 651 
Q 3003 894 3003 1313 
Q 3003 1734 2745 1975 
Q 2488 2216 2034 2216 
z
M 1403 2484 
Q 997 2584 770 2862 
Q 544 3141 544 3541 
Q 544 4100 942 4425 
Q 1341 4750 2034 4750 
Q 2731 4750 3128 4425 
Q 3525 4100 3525 3541 
Q 3525 3141 3298 2862 
Q 3072 2584 2669 2484 
Q 3125 2378 3379 2068 
Q 3634 1759 3634 1313 
Q 3634 634 3220 271 
Q 2806 -91 2034 -91 
Q 1263 -91 848 271 
Q 434 634 434 1313 
Q 434 1759 690 2068 
Q 947 2378 1403 2484 
z
M 1172 3481 
Q 1172 3119 1398 2916 
Q 1625 2713 2034 2713 
Q 2441 2713 2670 2916 
Q 2900 3119 2900 3481 
Q 2900 3844 2670 4047 
Q 2441 4250 2034 4250 
Q 1625 4250 1398 4047 
Q 1172 3844 1172 3481 
z
" transform="scale(0.015625)"/>
       </defs>
       <use xlink:href="#DejaVuSans-30"/>
       <use xlink:href="#DejaVuSans-2e" transform="translate(63.623047 0)"/>
       <use xlink:href="#DejaVuSans-38" transform="translate(95.410156 0)"/>
      </g>
     </g>
    </g>
    <g id="ytick_6">
     <g id="line2d_14">
      <g>
       <use xlink:href="#m7cb990205a" x="57.6" y="86.936276" style="stroke: #000000; stroke-width: 0.8"/>
      </g>
     </g>
     <g id="text_15">
      <!-- 1.0 -->
      <g transform="translate(34.696875 90.735495) scale(0.1 -0.1)">
       <use xlink:href="#DejaVuSans-31"/>
       <use xlink:href="#DejaVuSans-2e" transform="translate(63.623047 0)"/>
       <use xlink:href="#DejaVuSans-30" transform="translate(95.410156 0)"/>
      </g>
     </g>
    </g>
    <g id="ytick_7">
     <g id="line2d_15">
      <g>
       <use xlink:href="#m7cb990205a" x="57.6" y="45.225931" style="stroke: #000000; stroke-width: 0.8"/>
      </g>
     </g>
     <g id="text_16">
      <!-- 1.2 -->
      <g transform="translate(34.696875 49.02515) scale(0.1 -0.1)">
       <use xlink:href="#DejaVuSans-31"/>
       <use xlink:href="#DejaVuSans-2e" transform="translate(63.623047 0)"/>
       <use xlink:href="#DejaVuSans-32" transform="translate(95.410156 0)"/>
      </g>
     </g>
    </g>
    <g id="text_17">
     <!-- Intensity ($^{\circ}C^{-1}$) -->
     <g transform="translate(28.596875 213.328) rotate(-90) scale(0.1 -0.1)">
      <defs>
       <path id="DejaVuSans-49" d="M 628 4666 
L 1259 4666 
L 1259 0 
L 628 0 
L 628 4666 
z
" transform="scale(0.015625)"/>
       <path id="DejaVuSans-6e" d="M 3513 2113 
L 3513 0 
L 2938 0 
L 2938 2094 
Q 2938 2591 2744 2837 
Q 2550 3084 2163 3084 
Q 1697 3084 1428 2787 
Q 1159 2491 1159 1978 
L 1159 0 
L 581 0 
L 581 3500 
L 1159 3500 
L 1159 2956 
Q 1366 3272 1645 3428 
Q 1925 3584 2291 3584 
Q 2894 3584 3203 3211 
Q 3513 2838 3513 2113 
z
" transform="scale(0.015625)"/>
       <path id="DejaVuSans-73" d="M 2834 3397 
L 2834 2853 
Q 2591 2978 2328 3040 
Q 2066 3103 1784 3103 
Q 1356 3103 1142 2972 
Q 928 2841 928 2578 
Q 928 2378 1081 2264 
Q 1234 2150 1697 2047 
L 1894 2003 
Q 2506 1872 2764 1633 
Q 3022 1394 3022 966 
Q 3022 478 2636 193 
Q 2250 -91 1575 -91 
Q 1294 -91 989 -36 
Q 684 19 347 128 
L 347 722 
Q 666 556 975 473 
Q 1284 391 1588 391 
Q 1994 391 2212 530 
Q 2431 669 2431 922 
Q 2431 1156 2273 1281 
Q 2116 1406 1581 1522 
L 1381 1569 
Q 847 1681 609 1914 
Q 372 2147 372 2553 
Q 372 3047 722 3315 
Q 1072 3584 1716 3584 
Q 2034 3584 2315 3537 
Q 2597 3491 2834 3397 
z
" transform="scale(0.015625)"/>
       <path id="DejaVuSans-69" d="M 603 3500 
L 1178 3500 
L 1178 0 
L 603 0 
L 603 3500 
z
M 603 4863 
L 1178 4863 
L 1178 4134 
L 603 4134 
L 603 4863 
z
" transform="scale(0.015625)"/>
       <path id="DejaVuSans-79" d="M 2059 -325 
Q 1816 -950 1584 -1140 
Q 1353 -1331 966 -1331 
L 506 -1331 
L 506 -850 
L 844 -850 
Q 1081 -850 1212 -737 
Q 1344 -625 1503 -206 
L 1606 56 
L 191 3500 
L 800 3500 
L 1894 763 
L 2988 3500 
L 3597 3500 
L 2059 -325 
z
" transform="scale(0.015625)"/>
       <path id="DejaVuSans-2212" d="M 678 2272 
L 4684 2272 
L 4684 1741 
L 678 1741 
L 678 2272 
z
" transform="scale(0.015625)"/>
      </defs>
      <use xlink:href="#DejaVuSans-49" transform="translate(0 0.684375)"/>
      <use xlink:href="#DejaVuSans-6e" transform="translate(29.492188 0.684375)"/>
      <use xlink:href="#DejaVuSans-74" transform="translate(92.871094 0.684375)"/>
      <use xlink:href="#DejaVuSans-65" transform="translate(132.080078 0.684375)"/>
      <use xlink:href="#DejaVuSans-6e" transform="translate(193.603516 0.684375)"/>
      <use xlink:href="#DejaVuSans-73" transform="translate(256.982422 0.684375)"/>
      <use xlink:href="#DejaVuSans-69" transform="translate(309.082031 0.684375)"/>
      <use xlink:href="#DejaVuSans-74" transform="translate(336.865234 0.684375)"/>
      <use xlink:href="#DejaVuSans-79" transform="translate(376.074219 0.684375)"/>
      <use xlink:href="#DejaVuSans-20" transform="translate(435.253906 0.684375)"/>
      <use xlink:href="#DejaVuSans-28" transform="translate(467.041016 0.684375)"/>
      <use xlink:href="#DejaVuSans-2218" transform="translate(507.011719 38.965625) scale(0.7)"/>
      <use xlink:href="#DejaVuSans-Oblique-43" transform="translate(553.564453 0.684375)"/>
      <use xlink:href="#DejaVuSans-2212" transform="translate(630.589193 38.965625) scale(0.7)"/>
      <use xlink:href="#DejaVuSans-31" transform="translate(689.241536 38.965625) scale(0.7)"/>
      <use xlink:href="#DejaVuSans-29" transform="translate(736.512044 0.684375)"/>
     </g>
    </g>
   </g>
   <g id="line2d_16">
    <path d="M 73.832727 295.488 
L 104.519253 295.488 
L 104.963985 293.402483 
L 107.187646 293.402483 
L 107.632379 291.316966 
L 109.85604 291.316966 
L 110.300772 287.145931 
L 111.634969 287.145931 
L 112.079701 272.54731 
L 112.524433 272.54731 
L 112.969166 262.119724 
L 113.413898 262.119724 
L 113.85863 260.034207 
L 114.303362 260.034207 
L 114.748095 253.777655 
L 116.082291 253.777655 
L 116.527024 249.606621 
L 116.971756 249.606621 
L 117.416488 239.179034 
L 117.86122 239.179034 
L 118.305953 235.008 
L 118.750685 235.008 
L 119.195417 228.751448 
L 120.529614 228.751448 
L 120.974346 226.665931 
L 121.419078 226.665931 
L 121.863811 224.580414 
L 122.308543 224.580414 
L 122.753275 209.981793 
L 123.198007 209.981793 
L 123.64274 191.212138 
L 124.087472 191.212138 
L 124.532204 189.126621 
L 124.976936 189.126621 
L 125.421669 182.870069 
L 125.866401 182.870069 
L 126.311133 174.528 
L 126.755866 174.528 
L 127.200598 176.613517 
L 127.64533 176.613517 
L 128.090062 170.356966 
L 128.534795 170.356966 
L 128.979527 164.100414 
L 129.424259 164.100414 
L 129.868991 166.185931 
L 130.313724 166.185931 
L 130.758456 162.014897 
L 131.203188 162.014897 
L 131.64792 157.843862 
L 132.092653 157.843862 
L 132.537385 155.758345 
L 132.982117 155.758345 
L 133.426849 143.245241 
L 133.871582 143.245241 
L 134.316314 151.58731 
L 134.761046 151.58731 
L 135.205778 157.843862 
L 136.539975 157.843862 
L 136.984707 155.758345 
L 137.42944 155.758345 
L 137.874172 153.672828 
L 138.318904 141.159724 
L 138.763636 143.245241 
L 139.208369 143.245241 
L 139.653101 139.074207 
L 140.097833 139.074207 
L 140.542565 143.245241 
L 140.987298 141.159724 
L 141.43203 147.416276 
L 142.766227 147.416276 
L 143.210959 139.074207 
L 143.655691 136.98869 
L 144.100423 139.074207 
L 144.545156 134.903172 
L 144.989888 149.501793 
L 145.43462 139.074207 
L 145.879352 145.330759 
L 147.213549 122.390069 
L 147.658281 124.475586 
L 148.103014 120.304552 
L 148.547746 128.646621 
L 149.881943 128.646621 
L 150.326675 122.390069 
L 150.771407 114.048 
L 151.660872 109.876966 
L 152.105604 109.876966 
L 152.550336 105.705931 
L 152.995068 109.876966 
L 153.439801 109.876966 
L 153.884533 111.962483 
L 154.329265 103.620414 
L 154.773998 107.791448 
L 155.21873 103.620414 
L 155.663462 111.962483 
L 156.108194 109.876966 
L 156.552927 114.048 
L 157.442391 101.534897 
L 157.887123 97.363862 
L 158.331856 84.850759 
L 158.776588 78.594207 
L 159.22132 68.166621 
L 159.666052 63.995586 
L 160.110785 66.081103 
L 160.555517 78.594207 
L 161.444981 78.594207 
L 161.889714 89.021793 
L 162.779178 89.021793 
L 163.22391 91.10731 
L 163.668643 91.10731 
L 164.113375 78.594207 
L 164.558107 74.423172 
L 165.002839 72.337655 
L 165.447572 78.594207 
L 165.892304 78.594207 
L 166.337036 76.50869 
L 166.781768 68.166621 
L 167.226501 63.995586 
L 167.671233 70.252138 
L 168.115965 80.679724 
L 169.00543 93.192828 
L 169.450162 76.50869 
L 169.894894 80.679724 
L 170.339626 82.765241 
L 170.784359 74.423172 
L 171.229091 70.252138 
L 172.118555 57.739034 
L 172.563288 70.252138 
L 173.00802 78.594207 
L 173.897484 82.765241 
L 174.342217 70.252138 
L 174.786949 66.081103 
L 175.231681 55.653517 
L 175.676413 55.653517 
L 176.121146 57.739034 
L 176.565878 66.081103 
L 177.01061 68.166621 
L 177.455342 72.337655 
L 177.900075 68.166621 
L 178.344807 70.252138 
L 178.789539 61.910069 
L 179.234271 68.166621 
L 179.679004 76.50869 
L 180.123736 80.679724 
L 180.568468 95.278345 
L 181.0132 84.850759 
L 181.457933 101.534897 
L 181.902665 105.705931 
L 182.347397 105.705931 
L 182.79213 74.423172 
L 183.236862 76.50869 
L 183.681594 76.50869 
L 184.126326 80.679724 
L 184.571059 80.679724 
L 185.015791 70.252138 
L 185.460523 70.252138 
L 185.905255 68.166621 
L 186.349988 76.50869 
L 186.79472 80.679724 
L 187.239452 82.765241 
L 187.684184 80.679724 
L 188.128917 76.50869 
L 188.573649 78.594207 
L 189.018381 91.10731 
L 189.463113 89.021793 
L 189.907846 93.192828 
L 190.352578 78.594207 
L 191.242042 82.765241 
L 191.686775 105.705931 
L 192.131507 101.534897 
L 192.576239 103.620414 
L 193.020971 111.962483 
L 193.465704 116.133517 
L 193.910436 118.219034 
L 194.355168 124.475586 
L 194.7999 124.475586 
L 195.244633 114.048 
L 195.689365 120.304552 
L 196.134097 116.133517 
L 196.578829 126.561103 
L 197.023562 124.475586 
L 197.468294 134.903172 
L 199.247223 134.903172 
L 199.691955 128.646621 
L 200.136687 134.903172 
L 200.58142 130.732138 
L 201.026152 132.817655 
L 201.470884 118.219034 
L 201.915616 120.304552 
L 202.805081 120.304552 
L 203.249813 134.903172 
L 203.694545 132.817655 
L 204.139278 126.561103 
L 204.58401 126.561103 
L 205.028742 153.672828 
L 205.473474 149.501793 
L 205.918207 147.416276 
L 206.807671 139.074207 
L 207.252403 147.416276 
L 207.697136 143.245241 
L 208.141868 145.330759 
L 208.5866 149.501793 
L 209.476065 145.330759 
L 209.920797 151.58731 
L 210.365529 155.758345 
L 210.810262 151.58731 
L 211.254994 149.501793 
L 211.699726 143.245241 
L 212.144458 134.903172 
L 212.589191 145.330759 
L 213.033923 141.159724 
L 213.478655 143.245241 
L 213.923387 128.646621 
L 214.36812 132.817655 
L 215.702316 132.817655 
L 216.147049 136.98869 
L 216.591781 130.732138 
L 217.036513 130.732138 
L 217.481245 139.074207 
L 217.925978 139.074207 
L 218.37071 143.245241 
L 218.815442 145.330759 
L 219.260174 153.672828 
L 219.704907 153.672828 
L 220.149639 147.416276 
L 221.483836 147.416276 
L 221.928568 141.159724 
L 222.3733 143.245241 
L 222.818032 143.245241 
L 223.262765 151.58731 
L 223.707497 166.185931 
L 224.152229 166.185931 
L 224.596961 155.758345 
L 225.041694 155.758345 
L 225.486426 149.501793 
L 225.931158 153.672828 
L 226.820623 153.672828 
L 227.710087 162.014897 
L 228.154819 159.929379 
L 228.599552 164.100414 
L 229.044284 162.014897 
L 229.489016 164.100414 
L 230.823213 164.100414 
L 231.712677 168.271448 
L 232.15741 168.271448 
L 232.602142 170.356966 
L 233.046874 174.528 
L 233.491606 174.528 
L 233.936339 187.041103 
L 234.825803 199.554207 
L 235.270535 203.725241 
L 235.715268 203.725241 
L 236.16 216.238345 
L 237.494197 216.238345 
L 237.938929 214.152828 
L 238.383661 214.152828 
L 238.828394 220.409379 
L 239.273126 220.409379 
L 239.717858 222.494897 
L 241.052055 222.494897 
L 241.496787 220.409379 
L 241.941519 220.409379 
L 242.386252 222.494897 
L 242.830984 222.494897 
L 243.275716 218.323862 
L 243.720448 218.323862 
L 244.165181 230.836966 
L 244.609913 230.836966 
L 245.054645 235.008 
L 246.388842 235.008 
L 246.833574 245.435586 
L 247.278306 245.435586 
L 247.723039 253.777655 
L 248.167771 253.777655 
L 248.612503 260.034207 
L 249.057235 260.034207 
L 249.501968 257.94869 
L 249.9467 257.94869 
L 250.391432 262.119724 
L 250.836164 262.119724 
L 251.280897 264.205241 
L 251.725629 264.205241 
L 252.170361 268.376276 
L 252.615093 268.376276 
L 253.059826 266.290759 
L 255.283487 266.290759 
L 255.728219 268.376276 
L 256.172951 268.376276 
L 256.617684 270.461793 
L 257.95188 270.461793 
L 258.396613 272.54731 
L 259.730809 272.54731 
L 260.175542 270.461793 
L 260.620274 270.461793 
L 261.065006 268.376276 
L 264.178132 268.376276 
L 264.622864 272.54731 
L 265.067597 272.54731 
L 265.512329 276.718345 
L 271.293848 276.718345 
L 271.73858 278.803862 
L 272.183313 278.803862 
L 272.628045 274.632828 
L 273.072777 274.632828 
L 273.517509 276.718345 
L 273.962242 276.718345 
L 274.406974 272.54731 
L 274.851706 272.54731 
L 275.296438 274.632828 
L 277.5201 274.632828 
L 277.964832 272.54731 
L 278.409564 272.54731 
L 278.854296 270.461793 
L 279.299029 270.461793 
L 279.743761 268.376276 
L 281.967422 268.376276 
L 282.412154 270.461793 
L 282.856887 270.461793 
L 283.301619 272.54731 
L 284.635816 272.54731 
L 285.080548 268.376276 
L 285.52528 268.376276 
L 285.970012 270.461793 
L 287.304209 270.461793 
L 287.748941 266.290759 
L 288.193674 266.290759 
L 288.638406 264.205241 
L 294.419925 264.205241 
L 294.864658 268.376276 
L 296.198854 268.376276 
L 296.643587 272.54731 
L 297.088319 272.54731 
L 297.533051 270.461793 
L 299.756712 270.461793 
L 300.201445 272.54731 
L 300.646177 272.54731 
L 301.090909 274.632828 
L 302.425106 274.632828 
L 302.869838 272.54731 
L 304.204035 272.54731 
L 304.648767 274.632828 
L 306.872428 274.632828 
L 307.317161 276.718345 
L 307.761893 276.718345 
L 308.206625 278.803862 
L 309.540822 278.803862 
L 309.985554 282.974897 
L 310.430286 282.974897 
L 310.875019 285.060414 
L 312.209215 285.060414 
L 312.653948 282.974897 
L 313.988144 282.974897 
L 314.432877 278.803862 
L 316.656538 278.803862 
L 317.10127 276.718345 
L 317.546002 276.718345 
L 317.990735 278.803862 
L 319.324932 278.803862 
L 319.769664 280.889379 
L 321.993325 280.889379 
L 322.438057 278.803862 
L 323.772254 278.803862 
L 324.216986 280.889379 
L 324.661719 280.889379 
L 325.106451 282.974897 
L 329.109041 282.974897 
L 329.553773 285.060414 
L 329.998506 285.060414 
L 330.443238 282.974897 
L 334.445828 282.974897 
L 334.89056 285.060414 
L 336.224757 285.060414 
L 336.669489 289.231448 
L 338.893151 289.231448 
L 339.337883 287.145931 
L 339.782615 287.145931 
L 340.227347 285.060414 
L 344.229938 285.060414 
L 344.67467 287.145931 
L 346.898331 287.145931 
L 347.343064 285.060414 
L 352.235118 285.060414 
L 352.679851 287.145931 
L 361.129763 287.145931 
L 361.574496 291.316966 
L 362.019228 291.316966 
L 362.46396 293.402483 
L 367.356015 293.402483 
L 367.800747 291.316966 
L 369.134944 291.316966 
L 369.579676 293.402483 
L 378.919054 293.402483 
L 379.363786 291.316966 
L 380.697983 291.316966 
L 381.142715 289.231448 
L 389.592628 289.231448 
L 390.03736 291.316966 
L 398.487273 291.316966 
L 398.487273 291.316966 
" clip-path="url(#p0b4b265a2b)" style="fill: none; stroke-dasharray: 1.85,0.8; stroke-dashoffset: 0; stroke: #8000ff; stroke-width: 0.5"/>
   </g>
   <g id="line2d_17">
    <path d="M 73.832727 295.488 
L 110.745504 295.488 
L 111.190237 293.402483 
L 114.303362 293.402483 
L 114.748095 291.316966 
L 116.082291 291.316966 
L 116.527024 287.145931 
L 117.86122 287.145931 
L 118.305953 285.060414 
L 118.750685 285.060414 
L 119.195417 282.974897 
L 119.640149 282.974897 
L 120.084882 278.803862 
L 121.419078 278.803862 
L 121.863811 274.632828 
L 123.198007 274.632828 
L 123.64274 272.54731 
L 124.087472 272.54731 
L 124.532204 268.376276 
L 125.866401 268.376276 
L 126.311133 264.205241 
L 126.755866 264.205241 
L 127.200598 262.119724 
L 127.64533 262.119724 
L 128.090062 255.863172 
L 129.424259 255.863172 
L 129.868991 249.606621 
L 130.313724 249.606621 
L 130.758456 232.922483 
L 131.203188 232.922483 
L 131.64792 228.751448 
L 132.092653 228.751448 
L 132.537385 218.323862 
L 132.982117 218.323862 
L 133.426849 207.896276 
L 134.761046 207.896276 
L 135.205778 203.725241 
L 135.650511 203.725241 
L 136.095243 195.383172 
L 136.539975 195.383172 
L 136.984707 184.955586 
L 137.42944 184.955586 
L 137.874172 176.613517 
L 138.318904 176.613517 
L 138.763636 180.784552 
L 139.208369 180.784552 
L 139.653101 176.613517 
L 140.097833 176.613517 
L 140.542565 178.699034 
L 140.987298 178.699034 
L 141.43203 176.613517 
L 142.766227 176.613517 
L 143.210959 174.528 
L 143.655691 174.528 
L 144.100423 159.929379 
L 144.545156 159.929379 
L 144.989888 151.58731 
L 145.43462 151.58731 
L 145.879352 145.330759 
L 146.324085 145.330759 
L 146.768817 147.416276 
L 147.213549 147.416276 
L 147.658281 141.159724 
L 148.103014 141.159724 
L 148.547746 143.245241 
L 148.992478 143.245241 
L 149.43721 145.330759 
L 149.881943 145.330759 
L 150.326675 149.501793 
L 150.771407 149.501793 
L 151.216139 145.330759 
L 151.660872 145.330759 
L 152.105604 143.245241 
L 152.550336 143.245241 
L 152.995068 157.843862 
L 153.439801 157.843862 
L 153.884533 141.159724 
L 154.329265 141.159724 
L 154.773998 149.501793 
L 155.21873 149.501793 
L 155.663462 155.758345 
L 156.108194 155.758345 
L 156.552927 147.416276 
L 156.997659 147.416276 
L 157.442391 141.159724 
L 157.887123 141.159724 
L 158.331856 136.98869 
L 158.776588 136.98869 
L 159.22132 139.074207 
L 159.666052 139.074207 
L 160.110785 141.159724 
L 160.555517 141.159724 
L 161.000249 139.074207 
L 161.444981 139.074207 
L 161.889714 143.245241 
L 162.334446 143.245241 
L 162.779178 130.732138 
L 163.22391 130.732138 
L 163.668643 128.646621 
L 164.113375 128.646621 
L 164.558107 130.732138 
L 165.002839 130.732138 
L 165.447572 89.021793 
L 165.892304 89.021793 
L 166.337036 103.620414 
L 166.781768 103.620414 
L 167.226501 109.876966 
L 167.671233 109.876966 
L 168.115965 99.449379 
L 168.560697 99.449379 
L 169.00543 95.278345 
L 170.339626 95.278345 
L 170.784359 91.10731 
L 171.229091 91.10731 
L 171.673823 78.594207 
L 173.00802 78.594207 
L 173.452752 76.50869 
L 173.897484 76.50869 
L 174.342217 80.679724 
L 174.786949 80.679724 
L 175.231681 78.594207 
L 175.676413 78.594207 
L 176.121146 91.10731 
L 176.565878 91.10731 
L 177.01061 93.192828 
L 177.455342 93.192828 
L 177.900075 95.278345 
L 178.344807 95.278345 
L 178.789539 86.936276 
L 181.0132 86.936276 
L 181.457933 89.021793 
L 181.902665 89.021793 
L 182.347397 95.278345 
L 182.79213 95.278345 
L 183.236862 80.679724 
L 184.571059 80.679724 
L 185.015791 74.423172 
L 185.460523 74.423172 
L 185.905255 68.166621 
L 186.349988 68.166621 
L 186.79472 66.081103 
L 187.239452 66.081103 
L 187.684184 103.620414 
L 188.128917 103.620414 
L 188.573649 93.192828 
L 189.018381 93.192828 
L 189.463113 86.936276 
L 189.907846 86.936276 
L 190.352578 95.278345 
L 190.79731 95.278345 
L 191.242042 93.192828 
L 191.686775 93.192828 
L 192.131507 99.449379 
L 192.576239 99.449379 
L 193.020971 101.534897 
L 193.465704 101.534897 
L 193.910436 109.876966 
L 194.355168 109.876966 
L 194.7999 111.962483 
L 195.244633 111.962483 
L 195.689365 118.219034 
L 196.578829 118.219034 
L 197.023562 111.962483 
L 197.913026 111.962483 
L 198.357758 107.791448 
L 198.802491 101.534897 
L 199.691955 101.534897 
L 200.136687 105.705931 
L 200.58142 105.705931 
L 201.026152 122.390069 
L 201.470884 122.390069 
L 201.915616 118.219034 
L 202.360349 111.962483 
L 202.805081 124.475586 
L 203.249813 124.475586 
L 203.694545 126.561103 
L 205.028742 126.561103 
L 205.473474 141.159724 
L 205.918207 130.732138 
L 206.362939 130.732138 
L 206.807671 128.646621 
L 207.252403 147.416276 
L 207.697136 147.416276 
L 208.141868 157.843862 
L 208.5866 153.672828 
L 209.031333 153.672828 
L 209.476065 149.501793 
L 209.920797 155.758345 
L 210.365529 155.758345 
L 210.810262 166.185931 
L 211.254994 166.185931 
L 211.699726 168.271448 
L 212.144458 166.185931 
L 212.589191 170.356966 
L 213.033923 166.185931 
L 213.478655 174.528 
L 213.923387 172.442483 
L 214.812852 172.442483 
L 215.257584 176.613517 
L 216.147049 168.271448 
L 216.591781 168.271448 
L 217.036513 166.185931 
L 217.481245 166.185931 
L 217.925978 157.843862 
L 218.37071 155.758345 
L 218.815442 157.843862 
L 219.260174 164.100414 
L 219.704907 168.271448 
L 220.149639 166.185931 
L 220.594371 178.699034 
L 221.039103 182.870069 
L 221.483836 176.613517 
L 222.3733 176.613517 
L 222.818032 168.271448 
L 223.707497 168.271448 
L 224.152229 178.699034 
L 224.596961 184.955586 
L 225.486426 184.955586 
L 225.931158 189.126621 
L 226.37589 187.041103 
L 226.820623 187.041103 
L 227.265355 184.955586 
L 227.710087 184.955586 
L 228.154819 195.383172 
L 228.599552 191.212138 
L 229.044284 182.870069 
L 229.933748 182.870069 
L 230.823213 187.041103 
L 231.712677 195.383172 
L 232.15741 187.041103 
L 232.602142 182.870069 
L 233.491606 178.699034 
L 233.936339 184.955586 
L 234.381071 187.041103 
L 234.825803 191.212138 
L 235.715268 191.212138 
L 236.16 193.297655 
L 236.604732 193.297655 
L 237.494197 189.126621 
L 237.938929 193.297655 
L 238.383661 201.639724 
L 238.828394 201.639724 
L 239.273126 203.725241 
L 239.717858 203.725241 
L 240.16259 212.06731 
L 240.607323 203.725241 
L 241.052055 205.810759 
L 241.496787 199.554207 
L 241.941519 195.383172 
L 242.386252 197.46869 
L 242.830984 197.46869 
L 243.720448 201.639724 
L 244.609913 201.639724 
L 245.054645 207.896276 
L 245.499377 203.725241 
L 246.388842 199.554207 
L 247.278306 199.554207 
L 247.723039 197.46869 
L 248.167771 199.554207 
L 248.612503 193.297655 
L 249.057235 193.297655 
L 249.9467 197.46869 
L 250.391432 195.383172 
L 250.836164 199.554207 
L 251.280897 205.810759 
L 252.170361 205.810759 
L 252.615093 201.639724 
L 253.059826 203.725241 
L 253.504558 199.554207 
L 253.94929 191.212138 
L 254.394022 191.212138 
L 255.283487 199.554207 
L 255.728219 197.46869 
L 256.617684 197.46869 
L 257.507148 201.639724 
L 258.841345 201.639724 
L 259.730809 205.810759 
L 260.620274 205.810759 
L 261.065006 203.725241 
L 261.509738 197.46869 
L 261.954471 193.297655 
L 262.399203 193.297655 
L 262.843935 203.725241 
L 263.288667 197.46869 
L 263.7334 203.725241 
L 264.178132 205.810759 
L 264.622864 203.725241 
L 265.067597 199.554207 
L 265.512329 199.554207 
L 265.957061 201.639724 
L 266.401793 201.639724 
L 266.846526 199.554207 
L 267.291258 201.639724 
L 267.73599 205.810759 
L 268.180722 205.810759 
L 268.625455 209.981793 
L 269.514919 209.981793 
L 269.959651 212.06731 
L 270.404384 212.06731 
L 270.849116 220.409379 
L 271.293848 218.323862 
L 272.183313 218.323862 
L 272.628045 220.409379 
L 273.072777 218.323862 
L 273.517509 222.494897 
L 273.962242 220.409379 
L 274.406974 216.238345 
L 274.851706 218.323862 
L 275.296438 218.323862 
L 275.741171 222.494897 
L 276.630635 239.179034 
L 277.5201 239.179034 
L 277.964832 243.350069 
L 279.299029 243.350069 
L 279.743761 245.435586 
L 280.188493 245.435586 
L 280.633225 241.264552 
L 281.077958 235.008 
L 281.967422 235.008 
L 282.856887 230.836966 
L 283.301619 232.922483 
L 283.746351 239.179034 
L 284.191083 241.264552 
L 285.080548 237.093517 
L 285.52528 243.350069 
L 285.970012 243.350069 
L 286.414745 245.435586 
L 286.859477 243.350069 
L 287.304209 247.521103 
L 287.748941 243.350069 
L 288.193674 245.435586 
L 288.638406 241.264552 
L 289.083138 243.350069 
L 290.417335 243.350069 
L 290.862067 245.435586 
L 293.085729 245.435586 
L 293.530461 247.521103 
L 294.419925 247.521103 
L 294.864658 243.350069 
L 295.30939 245.435586 
L 295.754122 243.350069 
L 296.198854 245.435586 
L 296.643587 249.606621 
L 299.31198 249.606621 
L 299.756712 251.692138 
L 302.425106 251.692138 
L 302.869838 255.863172 
L 303.31457 262.119724 
L 303.759303 262.119724 
L 304.204035 260.034207 
L 305.093499 264.205241 
L 305.982964 264.205241 
L 306.427696 266.290759 
L 306.872428 266.290759 
L 307.317161 268.376276 
L 308.651357 268.376276 
L 309.09609 272.54731 
L 309.540822 272.54731 
L 309.985554 276.718345 
L 310.430286 276.718345 
L 310.875019 280.889379 
L 311.319751 280.889379 
L 311.764483 278.803862 
L 312.209215 278.803862 
L 312.653948 280.889379 
L 314.877609 280.889379 
L 316.211806 274.632828 
L 316.656538 274.632828 
L 317.10127 278.803862 
L 317.546002 278.803862 
L 317.990735 280.889379 
L 318.880199 280.889379 
L 319.324932 282.974897 
L 321.103861 282.974897 
L 321.548593 280.889379 
L 322.438057 280.889379 
L 323.327522 276.718345 
L 325.995915 276.718345 
L 326.440648 278.803862 
L 328.664309 278.803862 
L 329.109041 276.718345 
L 337.114222 276.718345 
L 338.448418 282.974897 
L 340.227347 282.974897 
L 340.67208 280.889379 
L 343.340473 280.889379 
L 343.785205 282.974897 
L 344.67467 282.974897 
L 345.564134 287.145931 
L 350.900922 287.145931 
L 351.345654 291.316966 
L 354.903512 291.316966 
L 355.792976 287.145931 
L 356.237709 289.231448 
L 362.46396 289.231448 
L 362.908692 291.316966 
L 363.798157 291.316966 
L 364.242889 289.231448 
L 365.132354 289.231448 
L 365.577086 287.145931 
L 376.695392 287.145931 
L 377.140125 285.060414 
L 378.029589 289.231448 
L 386.03477 289.231448 
L 386.479502 291.316966 
L 387.368966 291.316966 
L 387.813699 293.402483 
L 396.708344 293.402483 
L 397.153076 291.316966 
L 398.487273 291.316966 
L 398.487273 291.316966 
" clip-path="url(#p0b4b265a2b)" style="fill: none; stroke-dasharray: 1.85,0.8; stroke-dashoffset: 0; stroke: #2adddd; stroke-width: 0.5"/>
   </g>
   <g id="line2d_18">
    <path d="M 73.832727 295.488 
L 110.745504 295.488 
L 111.190237 293.402483 
L 120.529614 293.402483 
L 120.974346 291.316966 
L 121.419078 291.316966 
L 121.863811 289.231448 
L 122.308543 289.231448 
L 122.753275 285.060414 
L 124.087472 285.060414 
L 124.532204 280.889379 
L 124.976936 280.889379 
L 125.421669 278.803862 
L 125.866401 278.803862 
L 126.311133 276.718345 
L 126.755866 276.718345 
L 127.200598 274.632828 
L 127.64533 274.632828 
L 128.090062 272.54731 
L 129.424259 272.54731 
L 129.868991 270.461793 
L 131.203188 270.461793 
L 131.64792 266.290759 
L 132.982117 266.290759 
L 133.426849 268.376276 
L 133.871582 268.376276 
L 134.316314 264.205241 
L 135.650511 264.205241 
L 136.095243 260.034207 
L 137.42944 260.034207 
L 137.874172 251.692138 
L 139.208369 251.692138 
L 139.653101 239.179034 
L 142.766227 239.179034 
L 143.210959 232.922483 
L 143.655691 232.922483 
L 144.100423 222.494897 
L 144.545156 222.494897 
L 144.989888 226.665931 
L 145.43462 226.665931 
L 145.879352 224.580414 
L 146.324085 224.580414 
L 146.768817 207.896276 
L 147.213549 207.896276 
L 147.658281 209.981793 
L 148.103014 209.981793 
L 148.547746 212.06731 
L 148.992478 212.06731 
L 149.43721 209.981793 
L 149.881943 209.981793 
L 150.326675 207.896276 
L 150.771407 207.896276 
L 151.216139 191.212138 
L 152.550336 191.212138 
L 152.995068 182.870069 
L 153.439801 182.870069 
L 153.884533 187.041103 
L 154.329265 187.041103 
L 154.773998 176.613517 
L 155.21873 176.613517 
L 155.663462 174.528 
L 156.108194 174.528 
L 156.552927 176.613517 
L 156.997659 176.613517 
L 157.442391 164.100414 
L 157.887123 164.100414 
L 158.331856 168.271448 
L 158.776588 168.271448 
L 159.22132 159.929379 
L 159.666052 159.929379 
L 160.110785 168.271448 
L 161.444981 168.271448 
L 161.889714 176.613517 
L 163.22391 176.613517 
L 163.668643 174.528 
L 164.113375 174.528 
L 164.558107 166.185931 
L 165.002839 166.185931 
L 165.447572 170.356966 
L 165.892304 170.356966 
L 166.337036 180.784552 
L 166.781768 180.784552 
L 167.226501 172.442483 
L 167.671233 172.442483 
L 168.115965 164.100414 
L 168.560697 164.100414 
L 169.00543 184.955586 
L 169.450162 184.955586 
L 169.894894 172.442483 
L 171.229091 172.442483 
L 171.673823 168.271448 
L 172.118555 168.271448 
L 172.563288 166.185931 
L 173.00802 166.185931 
L 173.452752 172.442483 
L 173.897484 172.442483 
L 174.342217 162.014897 
L 174.786949 162.014897 
L 175.231681 155.758345 
L 176.565878 155.758345 
L 177.01061 153.672828 
L 178.344807 153.672828 
L 178.789539 130.732138 
L 179.234271 130.732138 
L 179.679004 128.646621 
L 180.123736 128.646621 
L 180.568468 126.561103 
L 181.0132 126.561103 
L 181.457933 103.620414 
L 181.902665 103.620414 
L 182.347397 95.278345 
L 182.79213 95.278345 
L 183.236862 93.192828 
L 183.681594 93.192828 
L 184.126326 97.363862 
L 185.460523 97.363862 
L 185.905255 91.10731 
L 186.349988 91.10731 
L 186.79472 93.192828 
L 187.239452 93.192828 
L 187.684184 76.50869 
L 189.018381 76.50869 
L 189.463113 53.568 
L 189.907846 53.568 
L 190.352578 59.824552 
L 190.79731 59.824552 
L 191.242042 53.568 
L 191.686775 53.568 
L 192.131507 61.910069 
L 193.465704 61.910069 
L 193.910436 70.252138 
L 194.355168 70.252138 
L 194.7999 66.081103 
L 197.023562 66.081103 
L 197.468294 70.252138 
L 197.913026 70.252138 
L 198.357758 53.568 
L 198.802491 53.568 
L 199.247223 63.995586 
L 199.691955 63.995586 
L 200.136687 61.910069 
L 200.58142 61.910069 
L 201.026152 78.594207 
L 201.470884 78.594207 
L 201.915616 72.337655 
L 203.249813 72.337655 
L 203.694545 103.620414 
L 204.139278 103.620414 
L 204.58401 93.192828 
L 205.028742 93.192828 
L 205.473474 89.021793 
L 206.807671 89.021793 
L 207.252403 86.936276 
L 207.697136 86.936276 
L 208.141868 82.765241 
L 208.5866 82.765241 
L 209.031333 80.679724 
L 209.476065 80.679724 
L 209.920797 97.363862 
L 210.365529 97.363862 
L 210.810262 89.021793 
L 211.254994 89.021793 
L 211.699726 114.048 
L 213.033923 114.048 
L 213.478655 120.304552 
L 213.923387 120.304552 
L 214.36812 124.475586 
L 215.702316 124.475586 
L 216.147049 122.390069 
L 216.591781 122.390069 
L 217.036513 132.817655 
L 217.481245 132.817655 
L 217.925978 134.903172 
L 218.37071 134.903172 
L 218.815442 143.245241 
L 219.260174 143.245241 
L 219.704907 153.672828 
L 220.149639 153.672828 
L 220.594371 166.185931 
L 221.039103 166.185931 
L 221.483836 162.014897 
L 221.928568 162.014897 
L 222.3733 157.843862 
L 222.818032 157.843862 
L 223.262765 166.185931 
L 223.707497 164.100414 
L 224.152229 176.613517 
L 224.596961 168.271448 
L 225.041694 170.356966 
L 226.37589 170.356966 
L 226.820623 189.126621 
L 227.265355 189.126621 
L 227.710087 195.383172 
L 228.599552 195.383172 
L 229.044284 193.297655 
L 229.489016 195.383172 
L 229.933748 193.297655 
L 230.378481 205.810759 
L 230.823213 197.46869 
L 231.267945 205.810759 
L 231.712677 199.554207 
L 232.15741 203.725241 
L 232.602142 199.554207 
L 233.046874 209.981793 
L 233.491606 203.725241 
L 233.936339 199.554207 
L 234.381071 199.554207 
L 234.825803 195.383172 
L 235.270535 189.126621 
L 235.715268 178.699034 
L 236.604732 178.699034 
L 237.049465 174.528 
L 237.494197 174.528 
L 237.938929 168.271448 
L 238.383661 159.929379 
L 238.828394 155.758345 
L 239.717858 151.58731 
L 240.16259 153.672828 
L 240.607323 153.672828 
L 241.052055 157.843862 
L 242.830984 157.843862 
L 243.275716 153.672828 
L 243.720448 151.58731 
L 244.165181 143.245241 
L 244.609913 151.58731 
L 245.499377 151.58731 
L 245.94411 153.672828 
L 246.388842 159.929379 
L 246.833574 168.271448 
L 249.057235 168.271448 
L 249.501968 166.185931 
L 250.836164 166.185931 
L 251.280897 168.271448 
L 252.615093 168.271448 
L 253.059826 176.613517 
L 253.504558 170.356966 
L 253.94929 176.613517 
L 254.394022 174.528 
L 254.838755 178.699034 
L 255.283487 176.613517 
L 255.728219 176.613517 
L 256.172951 187.041103 
L 256.617684 187.041103 
L 257.507148 195.383172 
L 257.95188 201.639724 
L 258.841345 201.639724 
L 259.286077 205.810759 
L 259.730809 205.810759 
L 260.175542 197.46869 
L 260.620274 207.896276 
L 261.065006 212.06731 
L 261.954471 212.06731 
L 262.399203 218.323862 
L 263.288667 209.981793 
L 264.622864 209.981793 
L 265.512329 218.323862 
L 266.401793 235.008 
L 268.180722 235.008 
L 268.625455 237.093517 
L 269.514919 237.093517 
L 269.959651 232.922483 
L 271.293848 232.922483 
L 271.73858 226.665931 
L 272.183313 226.665931 
L 272.628045 220.409379 
L 273.072777 220.409379 
L 273.517509 214.152828 
L 273.962242 212.06731 
L 274.406974 214.152828 
L 275.296438 214.152828 
L 275.741171 220.409379 
L 276.185903 220.409379 
L 276.630635 222.494897 
L 277.075367 222.494897 
L 277.5201 218.323862 
L 277.964832 224.580414 
L 278.854296 224.580414 
L 279.299029 228.751448 
L 280.188493 232.922483 
L 281.967422 232.922483 
L 282.412154 247.521103 
L 283.301619 247.521103 
L 283.746351 249.606621 
L 284.191083 249.606621 
L 284.635816 247.521103 
L 285.52528 255.863172 
L 285.970012 251.692138 
L 288.638406 251.692138 
L 289.083138 249.606621 
L 290.417335 249.606621 
L 290.862067 247.521103 
L 291.3068 241.264552 
L 291.751532 241.264552 
L 292.196264 245.435586 
L 293.085729 245.435586 
L 293.530461 239.179034 
L 293.975193 247.521103 
L 294.419925 247.521103 
L 294.864658 253.777655 
L 295.30939 247.521103 
L 295.754122 253.777655 
L 296.198854 255.863172 
L 296.643587 253.777655 
L 297.088319 249.606621 
L 297.977783 249.606621 
L 298.422516 247.521103 
L 299.31198 247.521103 
L 299.756712 253.777655 
L 301.980374 253.777655 
L 302.425106 255.863172 
L 303.31457 255.863172 
L 303.759303 247.521103 
L 305.982964 247.521103 
L 306.872428 251.692138 
L 307.317161 251.692138 
L 307.761893 249.606621 
L 308.206625 253.777655 
L 310.430286 253.777655 
L 310.875019 251.692138 
L 311.319751 247.521103 
L 312.653948 247.521103 
L 313.09868 245.435586 
L 313.543412 251.692138 
L 315.322341 251.692138 
L 315.767073 257.94869 
L 317.10127 257.94869 
L 317.546002 262.119724 
L 318.880199 262.119724 
L 319.324932 266.290759 
L 320.214396 266.290759 
L 320.659128 264.205241 
L 325.551183 264.205241 
L 325.995915 272.54731 
L 326.440648 270.461793 
L 329.553773 270.461793 
L 329.998506 272.54731 
L 332.222167 272.54731 
L 332.666899 270.461793 
L 333.111631 272.54731 
L 333.556364 276.718345 
L 334.89056 276.718345 
L 335.335293 280.889379 
L 335.780025 274.632828 
L 336.669489 274.632828 
L 337.114222 272.54731 
L 339.337883 272.54731 
L 339.782615 274.632828 
L 340.67208 274.632828 
L 341.116812 276.718345 
L 342.451009 276.718345 
L 342.895741 280.889379 
L 345.564134 280.889379 
L 346.008867 278.803862 
L 348.232528 278.803862 
L 348.67726 280.889379 
L 349.121993 280.889379 
L 349.566725 278.803862 
L 351.345654 278.803862 
L 351.790386 276.718345 
L 354.014047 276.718345 
L 354.45878 274.632828 
L 354.903512 276.718345 
L 355.348244 276.718345 
L 355.792976 278.803862 
L 357.571905 278.803862 
L 358.016638 285.060414 
L 358.906102 285.060414 
L 359.350834 282.974897 
L 360.240299 282.974897 
L 360.685031 280.889379 
L 362.908692 280.889379 
L 363.353425 276.718345 
L 371.358605 276.718345 
L 371.803337 278.803862 
L 373.582267 278.803862 
L 374.026999 280.889379 
L 375.361196 280.889379 
L 375.805928 276.718345 
L 378.919054 276.718345 
L 379.363786 274.632828 
L 381.142715 274.632828 
L 381.587447 278.803862 
L 382.476912 278.803862 
L 382.921644 280.889379 
L 383.366376 278.803862 
L 384.700573 278.803862 
L 385.145305 276.718345 
L 385.590037 280.889379 
L 390.03736 280.889379 
L 390.482092 282.974897 
L 396.263611 282.974897 
L 396.708344 280.889379 
L 397.597808 280.889379 
L 398.04254 285.060414 
L 398.487273 285.060414 
L 398.487273 285.060414 
" clip-path="url(#p0b4b265a2b)" style="fill: none; stroke-dasharray: 1.85,0.8; stroke-dashoffset: 0; stroke: #d4dd80; stroke-width: 0.5"/>
   </g>
   <g id="line2d_19">
    <path d="M 73.832727 295.488 
L 126.755866 295.488 
L 127.200598 293.402483 
L 130.313724 293.402483 
L 130.758456 291.316966 
L 137.42944 291.316966 
L 137.874172 289.231448 
L 139.208369 289.231448 
L 139.653101 287.145931 
L 140.097833 287.145931 
L 140.542565 282.974897 
L 140.987298 282.974897 
L 141.43203 276.718345 
L 141.876762 276.718345 
L 142.321494 270.461793 
L 143.655691 270.461793 
L 144.100423 268.376276 
L 145.43462 268.376276 
L 145.879352 264.205241 
L 146.324085 264.205241 
L 146.768817 262.119724 
L 148.103014 262.119724 
L 148.547746 260.034207 
L 148.992478 260.034207 
L 149.43721 255.863172 
L 150.771407 255.863172 
L 151.216139 251.692138 
L 151.660872 251.692138 
L 152.105604 243.350069 
L 153.439801 243.350069 
L 153.884533 239.179034 
L 154.329265 239.179034 
L 154.773998 212.06731 
L 155.21873 212.06731 
L 155.663462 209.981793 
L 156.997659 209.981793 
L 157.442391 205.810759 
L 157.887123 205.810759 
L 158.331856 199.554207 
L 158.776588 199.554207 
L 159.22132 184.955586 
L 159.666052 184.955586 
L 160.110785 174.528 
L 160.555517 174.528 
L 161.000249 164.100414 
L 161.444981 164.100414 
L 161.889714 159.929379 
L 164.113375 159.929379 
L 164.558107 166.185931 
L 165.002839 166.185931 
L 165.447572 164.100414 
L 165.892304 164.100414 
L 166.337036 162.014897 
L 166.781768 162.014897 
L 167.226501 155.758345 
L 167.671233 155.758345 
L 168.115965 157.843862 
L 169.450162 157.843862 
L 169.894894 143.245241 
L 170.339626 143.245241 
L 170.784359 136.98869 
L 171.229091 136.98869 
L 171.673823 134.903172 
L 173.00802 134.903172 
L 173.452752 130.732138 
L 173.897484 130.732138 
L 174.342217 136.98869 
L 174.786949 136.98869 
L 175.231681 139.074207 
L 175.676413 139.074207 
L 176.121146 134.903172 
L 176.565878 134.903172 
L 177.01061 157.843862 
L 177.455342 157.843862 
L 177.900075 145.330759 
L 178.344807 145.330759 
L 178.789539 143.245241 
L 179.234271 143.245241 
L 179.679004 147.416276 
L 180.123736 147.416276 
L 180.568468 145.330759 
L 181.0132 145.330759 
L 181.457933 159.929379 
L 181.902665 159.929379 
L 182.347397 164.100414 
L 182.79213 164.100414 
L 183.236862 172.442483 
L 184.571059 172.442483 
L 185.015791 174.528 
L 185.460523 174.528 
L 185.905255 166.185931 
L 186.349988 166.185931 
L 186.79472 157.843862 
L 187.239452 157.843862 
L 187.684184 155.758345 
L 188.128917 155.758345 
L 188.573649 159.929379 
L 189.018381 159.929379 
L 189.463113 166.185931 
L 189.907846 166.185931 
L 190.352578 162.014897 
L 190.79731 162.014897 
L 191.242042 155.758345 
L 191.686775 155.758345 
L 192.131507 170.356966 
L 192.576239 170.356966 
L 193.020971 172.442483 
L 193.465704 172.442483 
L 193.910436 176.613517 
L 194.355168 176.613517 
L 194.7999 151.58731 
L 195.244633 151.58731 
L 195.689365 149.501793 
L 196.134097 149.501793 
L 196.578829 124.475586 
L 197.023562 124.475586 
L 197.468294 122.390069 
L 197.913026 122.390069 
L 198.357758 130.732138 
L 198.802491 130.732138 
L 199.247223 134.903172 
L 199.691955 134.903172 
L 200.136687 130.732138 
L 200.58142 130.732138 
L 201.026152 128.646621 
L 201.470884 128.646621 
L 201.915616 122.390069 
L 202.360349 122.390069 
L 202.805081 130.732138 
L 203.249813 130.732138 
L 203.694545 124.475586 
L 204.139278 124.475586 
L 204.58401 109.876966 
L 205.028742 109.876966 
L 205.473474 111.962483 
L 205.918207 111.962483 
L 206.362939 107.791448 
L 206.807671 107.791448 
L 207.252403 109.876966 
L 207.697136 109.876966 
L 208.141868 118.219034 
L 209.476065 118.219034 
L 209.920797 122.390069 
L 211.254994 122.390069 
L 211.699726 114.048 
L 212.144458 114.048 
L 212.589191 116.133517 
L 213.033923 116.133517 
L 213.478655 124.475586 
L 213.923387 124.475586 
L 214.36812 120.304552 
L 214.812852 120.304552 
L 215.257584 122.390069 
L 215.702316 122.390069 
L 216.147049 124.475586 
L 216.591781 124.475586 
L 217.036513 143.245241 
L 217.481245 143.245241 
L 217.925978 153.672828 
L 218.37071 153.672828 
L 218.815442 176.613517 
L 219.260174 176.613517 
L 219.704907 174.528 
L 221.039103 174.528 
L 221.483836 170.356966 
L 221.928568 170.356966 
L 222.3733 187.041103 
L 222.818032 180.784552 
L 223.707497 176.613517 
L 224.152229 182.870069 
L 224.596961 155.758345 
L 225.041694 155.758345 
L 225.486426 153.672828 
L 225.931158 159.929379 
L 226.37589 159.929379 
L 226.820623 182.870069 
L 227.265355 182.870069 
L 227.710087 180.784552 
L 228.154819 180.784552 
L 228.599552 191.212138 
L 229.044284 187.041103 
L 230.378481 187.041103 
L 230.823213 182.870069 
L 231.267945 184.955586 
L 232.15741 184.955586 
L 232.602142 180.784552 
L 233.046874 178.699034 
L 233.491606 174.528 
L 233.936339 182.870069 
L 234.381071 182.870069 
L 234.825803 184.955586 
L 235.270535 178.699034 
L 235.715268 178.699034 
L 236.16 172.442483 
L 236.604732 176.613517 
L 237.049465 162.014897 
L 237.494197 159.929379 
L 237.938929 155.758345 
L 238.383661 157.843862 
L 238.828394 157.843862 
L 239.273126 164.100414 
L 239.717858 159.929379 
L 241.052055 159.929379 
L 241.496787 153.672828 
L 241.941519 157.843862 
L 242.386252 155.758345 
L 242.830984 155.758345 
L 243.275716 153.672828 
L 244.165181 141.159724 
L 244.609913 143.245241 
L 245.054645 147.416276 
L 245.499377 147.416276 
L 245.94411 149.501793 
L 246.388842 149.501793 
L 246.833574 176.613517 
L 247.723039 172.442483 
L 248.612503 172.442483 
L 249.057235 168.271448 
L 250.391432 168.271448 
L 250.836164 159.929379 
L 251.280897 162.014897 
L 252.170361 162.014897 
L 252.615093 168.271448 
L 254.394022 168.271448 
L 254.838755 170.356966 
L 255.283487 170.356966 
L 255.728219 174.528 
L 256.172951 166.185931 
L 256.617684 162.014897 
L 257.062416 164.100414 
L 257.507148 170.356966 
L 257.95188 170.356966 
L 258.396613 176.613517 
L 258.841345 176.613517 
L 259.286077 189.126621 
L 259.730809 191.212138 
L 260.175542 195.383172 
L 260.620274 195.383172 
L 261.065006 191.212138 
L 261.509738 191.212138 
L 261.954471 195.383172 
L 262.399203 193.297655 
L 262.843935 187.041103 
L 263.288667 187.041103 
L 263.7334 189.126621 
L 264.178132 184.955586 
L 264.622864 178.699034 
L 265.512329 178.699034 
L 265.957061 189.126621 
L 266.401793 195.383172 
L 266.846526 195.383172 
L 267.291258 197.46869 
L 267.73599 201.639724 
L 268.180722 201.639724 
L 268.625455 199.554207 
L 269.070187 199.554207 
L 269.514919 201.639724 
L 269.959651 205.810759 
L 270.404384 205.810759 
L 270.849116 201.639724 
L 271.293848 201.639724 
L 271.73858 197.46869 
L 272.183313 199.554207 
L 272.628045 199.554207 
L 273.072777 207.896276 
L 273.517509 207.896276 
L 273.962242 203.725241 
L 274.851706 203.725241 
L 275.296438 201.639724 
L 275.741171 207.896276 
L 276.185903 207.896276 
L 277.075367 195.383172 
L 277.5201 197.46869 
L 277.964832 197.46869 
L 278.409564 205.810759 
L 278.854296 209.981793 
L 279.299029 201.639724 
L 279.743761 201.639724 
L 280.188493 199.554207 
L 281.077958 199.554207 
L 281.52269 201.639724 
L 281.967422 205.810759 
L 282.856887 205.810759 
L 283.301619 209.981793 
L 284.191083 209.981793 
L 284.635816 212.06731 
L 285.080548 218.323862 
L 285.52528 220.409379 
L 286.859477 232.922483 
L 287.304209 232.922483 
L 287.748941 235.008 
L 288.193674 232.922483 
L 289.52787 232.922483 
L 289.972603 235.008 
L 290.417335 235.008 
L 290.862067 232.922483 
L 292.640996 232.922483 
L 293.975193 245.435586 
L 294.864658 245.435586 
L 295.30939 241.264552 
L 295.754122 243.350069 
L 296.198854 247.521103 
L 297.088319 247.521103 
L 297.533051 253.777655 
L 297.977783 253.777655 
L 298.422516 251.692138 
L 298.867248 255.863172 
L 299.31198 264.205241 
L 299.756712 264.205241 
L 300.201445 262.119724 
L 300.646177 262.119724 
L 301.090909 257.94869 
L 301.535641 266.290759 
L 301.980374 266.290759 
L 302.425106 268.376276 
L 302.869838 266.290759 
L 303.31457 266.290759 
L 303.759303 257.94869 
L 304.648767 257.94869 
L 305.093499 255.863172 
L 307.317161 255.863172 
L 307.761893 257.94869 
L 308.206625 257.94869 
L 308.651357 251.692138 
L 309.09609 255.863172 
L 309.540822 251.692138 
L 309.985554 251.692138 
L 310.430286 253.777655 
L 310.875019 253.777655 
L 311.319751 249.606621 
L 312.653948 249.606621 
L 313.09868 247.521103 
L 313.543412 247.521103 
L 313.988144 243.350069 
L 314.432877 243.350069 
L 314.877609 241.264552 
L 315.322341 241.264552 
L 315.767073 230.836966 
L 316.211806 230.836966 
L 316.656538 224.580414 
L 317.10127 224.580414 
L 317.546002 228.751448 
L 317.990735 228.751448 
L 318.435467 226.665931 
L 320.214396 226.665931 
L 321.103861 230.836966 
L 321.548593 230.836966 
L 321.993325 216.238345 
L 322.438057 218.323862 
L 322.88279 216.238345 
L 323.327522 220.409379 
L 324.661719 220.409379 
L 325.106451 222.494897 
L 325.551183 222.494897 
L 325.995915 230.836966 
L 326.440648 228.751448 
L 327.774844 228.751448 
L 328.219577 226.665931 
L 330.443238 226.665931 
L 330.88797 230.836966 
L 331.332702 230.836966 
L 331.777435 232.922483 
L 333.111631 232.922483 
L 333.556364 237.093517 
L 334.89056 237.093517 
L 335.335293 243.350069 
L 335.780025 243.350069 
L 336.224757 247.521103 
L 336.669489 247.521103 
L 337.114222 245.435586 
L 337.558954 245.435586 
L 338.003686 247.521103 
L 338.448418 247.521103 
L 338.893151 253.777655 
L 343.785205 253.777655 
L 344.229938 268.376276 
L 344.67467 268.376276 
L 345.119402 270.461793 
L 345.564134 270.461793 
L 346.008867 262.119724 
L 348.232528 262.119724 
L 348.67726 264.205241 
L 349.121993 264.205241 
L 349.566725 262.119724 
L 350.011457 262.119724 
L 350.456189 264.205241 
L 352.679851 264.205241 
L 353.124583 266.290759 
L 353.569315 266.290759 
L 354.014047 268.376276 
L 354.45878 268.376276 
L 354.903512 266.290759 
L 358.906102 266.290759 
L 359.350834 270.461793 
L 359.795567 270.461793 
L 360.240299 276.718345 
L 362.46396 276.718345 
L 362.908692 278.803862 
L 366.911283 278.803862 
L 367.356015 274.632828 
L 367.800747 274.632828 
L 368.245479 280.889379 
L 370.469141 280.889379 
L 370.913873 278.803862 
L 371.358605 278.803862 
L 371.803337 282.974897 
L 374.026999 282.974897 
L 374.471731 280.889379 
L 376.695392 280.889379 
L 377.140125 282.974897 
L 382.032179 282.974897 
L 382.476912 285.060414 
L 382.921644 285.060414 
L 383.366376 280.889379 
L 387.368966 280.889379 
L 387.813699 276.718345 
L 389.147895 276.718345 
L 389.592628 278.803862 
L 390.03736 278.803862 
L 390.482092 280.889379 
L 390.926824 280.889379 
L 391.371557 278.803862 
L 392.705753 278.803862 
L 393.150486 280.889379 
L 396.263611 280.889379 
L 396.708344 282.974897 
L 398.487273 282.974897 
L 398.487273 282.974897 
" clip-path="url(#p0b4b265a2b)" style="fill: none; stroke-dasharray: 1.85,0.8; stroke-dashoffset: 0; stroke: #ff0000; stroke-width: 0.5"/>
   </g>
   <g id="patch_3">
    <path d="M 57.6 307.584 
L 57.6 41.472 
" style="fill: none; stroke: #000000; stroke-width: 0.8; stroke-linejoin: miter; stroke-linecap: square"/>
   </g>
   <g id="patch_4">
    <path d="M 414.72 307.584 
L 414.72 41.472 
" style="fill: none; stroke: #000000; stroke-width: 0.8; stroke-linejoin: miter; stroke-linecap: square"/>
   </g>
   <g id="patch_5">
    <path d="M 57.6 307.584 
L 414.72 307.584 
" style="fill: none; stroke: #000000; stroke-width: 0.8; stroke-linejoin: miter; stroke-linecap: square"/>
   </g>
   <g id="patch_6">
    <path d="M 57.6 41.472 
L 414.72 41.472 
" style="fill: none; stroke: #000000; stroke-width: 0.8; stroke-linejoin: miter; stroke-linecap: square"/>
   </g>
   <g id="text_18">
    <!-- Heating Rate ($^{\circ}C.s^{-1}$) -->
    <g transform="translate(271.872 68.0832) scale(0.12 -0.12)">
     <defs>
      <path id="DejaVuSans-48" d="M 628 4666 
L 1259 4666 
L 1259 2753 
L 3553 2753 
L 3553 4666 
L 4184 4666 
L 4184 0 
L 3553 0 
L 3553 2222 
L 1259 2222 
L 1259 0 
L 628 0 
L 628 4666 
z
" transform="scale(0.015625)"/>
      <path id="DejaVuSans-67" d="M 2906 1791 
Q 2906 2416 2648 2759 
Q 2391 3103 1925 3103 
Q 1463 3103 1205 2759 
Q 947 2416 947 1791 
Q 947 1169 1205 825 
Q 1463 481 1925 481 
Q 2391 481 2648 825 
Q 2906 1169 2906 1791 
z
M 3481 434 
Q 3481 -459 3084 -895 
Q 2688 -1331 1869 -1331 
Q 1566 -1331 1297 -1286 
Q 1028 -1241 775 -1147 
L 775 -588 
Q 1028 -725 1275 -790 
Q 1522 -856 1778 -856 
Q 2344 -856 2625 -561 
Q 2906 -266 2906 331 
L 2906 616 
Q 2728 306 2450 153 
Q 2172 0 1784 0 
Q 1141 0 747 490 
Q 353 981 353 1791 
Q 353 2603 747 3093 
Q 1141 3584 1784 3584 
Q 2172 3584 2450 3431 
Q 2728 3278 2906 2969 
L 2906 3500 
L 3481 3500 
L 3481 434 
z
" transform="scale(0.015625)"/>
      <path id="DejaVuSans-52" d="M 2841 2188 
Q 3044 2119 3236 1894 
Q 3428 1669 3622 1275 
L 4263 0 
L 3584 0 
L 2988 1197 
Q 2756 1666 2539 1819 
Q 2322 1972 1947 1972 
L 1259 1972 
L 1259 0 
L 628 0 
L 628 4666 
L 2053 4666 
Q 2853 4666 3247 4331 
Q 3641 3997 3641 3322 
Q 3641 2881 3436 2590 
Q 3231 2300 2841 2188 
z
M 1259 4147 
L 1259 2491 
L 2053 2491 
Q 2509 2491 2742 2702 
Q 2975 2913 2975 3322 
Q 2975 3731 2742 3939 
Q 2509 4147 2053 4147 
L 1259 4147 
z
" transform="scale(0.015625)"/>
      <path id="DejaVuSans-Oblique-73" d="M 3200 3397 
L 3091 2853 
Q 2863 2978 2609 3040 
Q 2356 3103 2088 3103 
Q 1634 3103 1373 2948 
Q 1113 2794 1113 2528 
Q 1113 2219 1719 2053 
Q 1766 2041 1788 2034 
L 1972 1978 
Q 2547 1819 2739 1644 
Q 2931 1469 2931 1166 
Q 2931 609 2489 259 
Q 2047 -91 1331 -91 
Q 1053 -91 747 -37 
Q 441 16 72 128 
L 184 722 
Q 500 559 806 475 
Q 1113 391 1394 391 
Q 1816 391 2080 572 
Q 2344 753 2344 1031 
Q 2344 1331 1650 1516 
L 1591 1531 
L 1394 1581 
Q 956 1697 753 1886 
Q 550 2075 550 2369 
Q 550 2928 970 3256 
Q 1391 3584 2113 3584 
Q 2397 3584 2667 3537 
Q 2938 3491 3200 3397 
z
" transform="scale(0.015625)"/>
     </defs>
     <use xlink:href="#DejaVuSans-48" transform="translate(0 0.684375)"/>
     <use xlink:href="#DejaVuSans-65" transform="translate(75.195312 0.684375)"/>
     <use xlink:href="#DejaVuSans-61" transform="translate(136.71875 0.684375)"/>
     <use xlink:href="#DejaVuSans-74" transform="translate(197.998047 0.684375)"/>
     <use xlink:href="#DejaVuSans-69" transform="translate(237.207031 0.684375)"/>
     <use xlink:href="#DejaVuSans-6e" transform="translate(264.990234 0.684375)"/>
     <use xlink:href="#DejaVuSans-67" transform="translate(328.369141 0.684375)"/>
     <use xlink:href="#DejaVuSans-20" transform="translate(391.845703 0.684375)"/>
     <use xlink:href="#DejaVuSans-52" transform="translate(423.632812 0.684375)"/>
     <use xlink:href="#DejaVuSans-61" transform="translate(493.115234 0.684375)"/>
     <use xlink:href="#DejaVuSans-74" transform="translate(554.394531 0.684375)"/>
     <use xlink:href="#DejaVuSans-65" transform="translate(593.603516 0.684375)"/>
     <use xlink:href="#DejaVuSans-20" transform="translate(655.126953 0.684375)"/>
     <use xlink:href="#DejaVuSans-28" transform="translate(686.914062 0.684375)"/>
     <use xlink:href="#DejaVuSans-2218" transform="translate(726.884766 38.965625) scale(0.7)"/>
     <use xlink:href="#DejaVuSans-Oblique-43" transform="translate(773.4375 0.684375)"/>
     <use xlink:href="#DejaVuSans-2e" transform="translate(843.261719 0.684375)"/>
     <use xlink:href="#DejaVuSans-Oblique-73" transform="translate(894.53125 0.684375)"/>
     <use xlink:href="#DejaVuSans-2212" transform="translate(951.280755 38.965625) scale(0.7)"/>
     <use xlink:href="#DejaVuSans-31" transform="translate(1009.933099 38.965625) scale(0.7)"/>
     <use xlink:href="#DejaVuSans-29" transform="translate(1057.203607 0.684375)"/>
    </g>
   </g>
   <g id="legend_1">
    <g id="patch_7">
     <path d="M 314.584 134.7957 
L 362.487125 134.7957 
Q 364.487125 134.7957 364.487125 132.7957 
L 364.487125 75.0832 
Q 364.487125 73.0832 362.487125 73.0832 
L 314.584 73.0832 
Q 312.584 73.0832 312.584 75.0832 
L 312.584 132.7957 
Q 312.584 134.7957 314.584 134.7957 
z
" style="fill: #ffffff; opacity: 0.8; stroke: #cccccc; stroke-linejoin: miter"/>
    </g>
    <g id="line2d_20">
     <path d="M 316.584 81.181637 
L 326.584 81.181637 
L 336.584 81.181637 
" style="fill: none; stroke-dasharray: 1.85,0.8; stroke-dashoffset: 0; stroke: #8000ff; stroke-width: 0.5"/>
    </g>
    <g id="text_19">
     <!-- 0.1 -->
     <g transform="translate(344.584 84.681637) scale(0.1 -0.1)">
      <use xlink:href="#DejaVuSans-30"/>
      <use xlink:href="#DejaVuSans-2e" transform="translate(63.623047 0)"/>
      <use xlink:href="#DejaVuSans-31" transform="translate(95.410156 0)"/>
     </g>
    </g>
    <g id="line2d_21">
     <path d="M 316.584 95.859762 
L 326.584 95.859762 
L 336.584 95.859762 
" style="fill: none; stroke-dasharray: 1.85,0.8; stroke-dashoffset: 0; stroke: #2adddd; stroke-width: 0.5"/>
    </g>
    <g id="text_20">
     <!-- 1 -->
     <g transform="translate(344.584 99.359762) scale(0.1 -0.1)">
      <use xlink:href="#DejaVuSans-31"/>
     </g>
    </g>
    <g id="line2d_22">
     <path d="M 316.584 110.537887 
L 326.584 110.537887 
L 336.584 110.537887 
" style="fill: none; stroke-dasharray: 1.85,0.8; stroke-dashoffset: 0; stroke: #d4dd80; stroke-width: 0.5"/>
    </g>
    <g id="text_21">
     <!-- 5 -->
     <g transform="translate(344.584 114.037887) scale(0.1 -0.1)">
      <use xlink:href="#DejaVuSans-35"/>
     </g>
    </g>
    <g id="line2d_23">
     <path d="M 316.584 125.216012 
L 326.584 125.216012 
L 336.584 125.216012 
" style="fill: none; stroke-dasharray: 1.85,0.8; stroke-dashoffset: 0; stroke: #ff0000; stroke-width: 0.5"/>
    </g>
    <g id="text_22">
     <!-- 20 -->
     <g transform="translate(344.584 128.716012) scale(0.1 -0.1)">
      <use xlink:href="#DejaVuSans-32"/>
      <use xlink:href="#DejaVuSans-30" transform="translate(63.623047 0)"/>
     </g>
    </g>
   </g>
  </g>
 </g>
 <defs>
  <clipPath id="p0b4b265a2b">
   <rect x="57.6" y="41.472" width="357.12" height="266.112"/>
  </clipPath>
 </defs>
</svg>
