<?xml version="1.0" encoding="utf-8" standalone="no"?>
<!DOCTYPE svg PUBLIC "-//W3C//DTD SVG 1.1//EN"
  "http://www.w3.org/Graphics/SVG/1.1/DTD/svg11.dtd">
<svg xmlns:xlink="http://www.w3.org/1999/xlink" width="460.8pt" height="345.6pt" viewBox="0 0 460.8 345.6" xmlns="http://www.w3.org/2000/svg" version="1.1">
 <metadata>
  <rdf:RDF xmlns:dc="http://purl.org/dc/elements/1.1/" xmlns:cc="http://creativecommons.org/ns#" xmlns:rdf="http://www.w3.org/1999/02/22-rdf-syntax-ns#">
   <cc:Work>
    <dc:type rdf:resource="http://purl.org/dc/dcmitype/StillImage"/>
    <dc:date>2025-03-04T11:27:33.662761</dc:date>
    <dc:format>image/svg+xml</dc:format>
    <dc:creator>
     <cc:Agent>
      <dc:title>Matplotlib v3.10.0, https://matplotlib.org/</dc:title>
     </cc:Agent>
    </dc:creator>
   </cc:Work>
  </rdf:RDF>
 </metadata>
 <defs>
  <style type="text/css">*{stroke-linejoin: round; stroke-linecap: butt}</style>
 </defs>
 <g id="figure_1">
  <g id="patch_1">
   <path d="M 0 345.6 
L 460.8 345.6 
L 460.8 0 
L 0 0 
z
" style="fill: #ffffff"/>
  </g>
  <g id="axes_1">
   <g id="patch_2">
    <path d="M 57.6 307.584 
L 414.72 307.584 
L 414.72 41.472 
L 57.6 41.472 
z
" style="fill: #ffffff"/>
   </g>
   <g id="matplotlib.axis_1">
    <g id="xtick_1">
     <g id="line2d_1">
      <defs>
       <path id="m9dfe25d9e5" d="M 0 0 
L 0 3.5 
" style="stroke: #000000; stroke-width: 0.8"/>
      </defs>
      <g>
       <use xlink:href="#m9dfe25d9e5" x="73.832727" y="307.584" style="stroke: #000000; stroke-width: 0.8"/>
      </g>
     </g>
     <g id="text_1">
      <!-- 0 -->
      <g transform="translate(70.651477 322.182437) scale(0.1 -0.1)">
       <defs>
        <path id="DejaVuSans-30" d="M 2034 4250 
Q 1547 4250 1301 3770 
Q 1056 3291 1056 2328 
Q 1056 1369 1301 889 
Q 1547 409 2034 409 
Q 2525 409 2770 889 
Q 3016 1369 3016 2328 
Q 3016 3291 2770 3770 
Q 2525 4250 2034 4250 
z
M 2034 4750 
Q 2819 4750 3233 4129 
Q 3647 3509 3647 2328 
Q 3647 1150 3233 529 
Q 2819 -91 2034 -91 
Q 1250 -91 836 529 
Q 422 1150 422 2328 
Q 422 3509 836 4129 
Q 1250 4750 2034 4750 
z
" transform="scale(0.015625)"/>
       </defs>
       <use xlink:href="#DejaVuSans-30"/>
      </g>
     </g>
    </g>
    <g id="xtick_2">
     <g id="line2d_2">
      <g>
       <use xlink:href="#m9dfe25d9e5" x="138.763636" y="307.584" style="stroke: #000000; stroke-width: 0.8"/>
      </g>
     </g>
     <g id="text_2">
      <!-- 200 -->
      <g transform="translate(129.219886 322.182437) scale(0.1 -0.1)">
       <defs>
        <path id="DejaVuSans-32" d="M 1228 531 
L 3431 531 
L 3431 0 
L 469 0 
L 469 531 
Q 828 903 1448 1529 
Q 2069 2156 2228 2338 
Q 2531 2678 2651 2914 
Q 2772 3150 2772 3378 
Q 2772 3750 2511 3984 
Q 2250 4219 1831 4219 
Q 1534 4219 1204 4116 
Q 875 4013 500 3803 
L 500 4441 
Q 881 4594 1212 4672 
Q 1544 4750 1819 4750 
Q 2544 4750 2975 4387 
Q 3406 4025 3406 3419 
Q 3406 3131 3298 2873 
Q 3191 2616 2906 2266 
Q 2828 2175 2409 1742 
Q 1991 1309 1228 531 
z
" transform="scale(0.015625)"/>
       </defs>
       <use xlink:href="#DejaVuSans-32"/>
       <use xlink:href="#DejaVuSans-30" transform="translate(63.623047 0)"/>
       <use xlink:href="#DejaVuSans-30" transform="translate(127.246094 0)"/>
      </g>
     </g>
    </g>
    <g id="xtick_3">
     <g id="line2d_3">
      <g>
       <use xlink:href="#m9dfe25d9e5" x="203.694545" y="307.584" style="stroke: #000000; stroke-width: 0.8"/>
      </g>
     </g>
     <g id="text_3">
      <!-- 400 -->
      <g transform="translate(194.150795 322.182437) scale(0.1 -0.1)">
       <defs>
        <path id="DejaVuSans-34" d="M 2419 4116 
L 825 1625 
L 2419 1625 
L 2419 4116 
z
M 2253 4666 
L 3047 4666 
L 3047 1625 
L 3713 1625 
L 3713 1100 
L 3047 1100 
L 3047 0 
L 2419 0 
L 2419 1100 
L 313 1100 
L 313 1709 
L 2253 4666 
z
" transform="scale(0.015625)"/>
       </defs>
       <use xlink:href="#DejaVuSans-34"/>
       <use xlink:href="#DejaVuSans-30" transform="translate(63.623047 0)"/>
       <use xlink:href="#DejaVuSans-30" transform="translate(127.246094 0)"/>
      </g>
     </g>
    </g>
    <g id="xtick_4">
     <g id="line2d_4">
      <g>
       <use xlink:href="#m9dfe25d9e5" x="268.625455" y="307.584" style="stroke: #000000; stroke-width: 0.8"/>
      </g>
     </g>
     <g id="text_4">
      <!-- 600 -->
      <g transform="translate(259.081705 322.182437) scale(0.1 -0.1)">
       <defs>
        <path id="DejaVuSans-36" d="M 2113 2584 
Q 1688 2584 1439 2293 
Q 1191 2003 1191 1497 
Q 1191 994 1439 701 
Q 1688 409 2113 409 
Q 2538 409 2786 701 
Q 3034 994 3034 1497 
Q 3034 2003 2786 2293 
Q 2538 2584 2113 2584 
z
M 3366 4563 
L 3366 3988 
Q 3128 4100 2886 4159 
Q 2644 4219 2406 4219 
Q 1781 4219 1451 3797 
Q 1122 3375 1075 2522 
Q 1259 2794 1537 2939 
Q 1816 3084 2150 3084 
Q 2853 3084 3261 2657 
Q 3669 2231 3669 1497 
Q 3669 778 3244 343 
Q 2819 -91 2113 -91 
Q 1303 -91 875 529 
Q 447 1150 447 2328 
Q 447 3434 972 4092 
Q 1497 4750 2381 4750 
Q 2619 4750 2861 4703 
Q 3103 4656 3366 4563 
z
" transform="scale(0.015625)"/>
       </defs>
       <use xlink:href="#DejaVuSans-36"/>
       <use xlink:href="#DejaVuSans-30" transform="translate(63.623047 0)"/>
       <use xlink:href="#DejaVuSans-30" transform="translate(127.246094 0)"/>
      </g>
     </g>
    </g>
    <g id="xtick_5">
     <g id="line2d_5">
      <g>
       <use xlink:href="#m9dfe25d9e5" x="333.556364" y="307.584" style="stroke: #000000; stroke-width: 0.8"/>
      </g>
     </g>
     <g id="text_5">
      <!-- 800 -->
      <g transform="translate(324.012614 322.182437) scale(0.1 -0.1)">
       <defs>
        <path id="DejaVuSans-38" d="M 2034 2216 
Q 1584 2216 1326 1975 
Q 1069 1734 1069 1313 
Q 1069 891 1326 650 
Q 1584 409 2034 409 
Q 2484 409 2743 651 
Q 3003 894 3003 1313 
Q 3003 1734 2745 1975 
Q 2488 2216 2034 2216 
z
M 1403 2484 
Q 997 2584 770 2862 
Q 544 3141 544 3541 
Q 544 4100 942 4425 
Q 1341 4750 2034 4750 
Q 2731 4750 3128 4425 
Q 3525 4100 3525 3541 
Q 3525 3141 3298 2862 
Q 3072 2584 2669 2484 
Q 3125 2378 3379 2068 
Q 3634 1759 3634 1313 
Q 3634 634 3220 271 
Q 2806 -91 2034 -91 
Q 1263 -91 848 271 
Q 434 634 434 1313 
Q 434 1759 690 2068 
Q 947 2378 1403 2484 
z
M 1172 3481 
Q 1172 3119 1398 2916 
Q 1625 2713 2034 2713 
Q 2441 2713 2670 2916 
Q 2900 3119 2900 3481 
Q 2900 3844 2670 4047 
Q 2441 4250 2034 4250 
Q 1625 4250 1398 4047 
Q 1172 3844 1172 3481 
z
" transform="scale(0.015625)"/>
       </defs>
       <use xlink:href="#DejaVuSans-38"/>
       <use xlink:href="#DejaVuSans-30" transform="translate(63.623047 0)"/>
       <use xlink:href="#DejaVuSans-30" transform="translate(127.246094 0)"/>
      </g>
     </g>
    </g>
    <g id="xtick_6">
     <g id="line2d_6">
      <g>
       <use xlink:href="#m9dfe25d9e5" x="398.487273" y="307.584" style="stroke: #000000; stroke-width: 0.8"/>
      </g>
     </g>
     <g id="text_6">
      <!-- 1000 -->
      <g transform="translate(385.762273 322.182437) scale(0.1 -0.1)">
       <defs>
        <path id="DejaVuSans-31" d="M 794 531 
L 1825 531 
L 1825 4091 
L 703 3866 
L 703 4441 
L 1819 4666 
L 2450 4666 
L 2450 531 
L 3481 531 
L 3481 0 
L 794 0 
L 794 531 
z
" transform="scale(0.015625)"/>
       </defs>
       <use xlink:href="#DejaVuSans-31"/>
       <use xlink:href="#DejaVuSans-30" transform="translate(63.623047 0)"/>
       <use xlink:href="#DejaVuSans-30" transform="translate(127.246094 0)"/>
       <use xlink:href="#DejaVuSans-30" transform="translate(190.869141 0)"/>
      </g>
     </g>
    </g>
    <g id="text_7">
     <!-- Temperature ($^{\circ}C$) -->
     <g transform="translate(192.16 335.862125) scale(0.1 -0.1)">
      <defs>
       <path id="DejaVuSans-54" d="M -19 4666 
L 3928 4666 
L 3928 4134 
L 2272 4134 
L 2272 0 
L 1638 0 
L 1638 4134 
L -19 4134 
L -19 4666 
z
" transform="scale(0.015625)"/>
       <path id="DejaVuSans-65" d="M 3597 1894 
L 3597 1613 
L 953 1613 
Q 991 1019 1311 708 
Q 1631 397 2203 397 
Q 2534 397 2845 478 
Q 3156 559 3463 722 
L 3463 178 
Q 3153 47 2828 -22 
Q 2503 -91 2169 -91 
Q 1331 -91 842 396 
Q 353 884 353 1716 
Q 353 2575 817 3079 
Q 1281 3584 2069 3584 
Q 2775 3584 3186 3129 
Q 3597 2675 3597 1894 
z
M 3022 2063 
Q 3016 2534 2758 2815 
Q 2500 3097 2075 3097 
Q 1594 3097 1305 2825 
Q 1016 2553 972 2059 
L 3022 2063 
z
" transform="scale(0.015625)"/>
       <path id="DejaVuSans-6d" d="M 3328 2828 
Q 3544 3216 3844 3400 
Q 4144 3584 4550 3584 
Q 5097 3584 5394 3201 
Q 5691 2819 5691 2113 
L 5691 0 
L 5113 0 
L 5113 2094 
Q 5113 2597 4934 2840 
Q 4756 3084 4391 3084 
Q 3944 3084 3684 2787 
Q 3425 2491 3425 1978 
L 3425 0 
L 2847 0 
L 2847 2094 
Q 2847 2600 2669 2842 
Q 2491 3084 2119 3084 
Q 1678 3084 1418 2786 
Q 1159 2488 1159 1978 
L 1159 0 
L 581 0 
L 581 3500 
L 1159 3500 
L 1159 2956 
Q 1356 3278 1631 3431 
Q 1906 3584 2284 3584 
Q 2666 3584 2933 3390 
Q 3200 3197 3328 2828 
z
" transform="scale(0.015625)"/>
       <path id="DejaVuSans-70" d="M 1159 525 
L 1159 -1331 
L 581 -1331 
L 581 3500 
L 1159 3500 
L 1159 2969 
Q 1341 3281 1617 3432 
Q 1894 3584 2278 3584 
Q 2916 3584 3314 3078 
Q 3713 2572 3713 1747 
Q 3713 922 3314 415 
Q 2916 -91 2278 -91 
Q 1894 -91 1617 61 
Q 1341 213 1159 525 
z
M 3116 1747 
Q 3116 2381 2855 2742 
Q 2594 3103 2138 3103 
Q 1681 3103 1420 2742 
Q 1159 2381 1159 1747 
Q 1159 1113 1420 752 
Q 1681 391 2138 391 
Q 2594 391 2855 752 
Q 3116 1113 3116 1747 
z
" transform="scale(0.015625)"/>
       <path id="DejaVuSans-72" d="M 2631 2963 
Q 2534 3019 2420 3045 
Q 2306 3072 2169 3072 
Q 1681 3072 1420 2755 
Q 1159 2438 1159 1844 
L 1159 0 
L 581 0 
L 581 3500 
L 1159 3500 
L 1159 2956 
Q 1341 3275 1631 3429 
Q 1922 3584 2338 3584 
Q 2397 3584 2469 3576 
Q 2541 3569 2628 3553 
L 2631 2963 
z
" transform="scale(0.015625)"/>
       <path id="DejaVuSans-61" d="M 2194 1759 
Q 1497 1759 1228 1600 
Q 959 1441 959 1056 
Q 959 750 1161 570 
Q 1363 391 1709 391 
Q 2188 391 2477 730 
Q 2766 1069 2766 1631 
L 2766 1759 
L 2194 1759 
z
M 3341 1997 
L 3341 0 
L 2766 0 
L 2766 531 
Q 2569 213 2275 61 
Q 1981 -91 1556 -91 
Q 1019 -91 701 211 
Q 384 513 384 1019 
Q 384 1609 779 1909 
Q 1175 2209 1959 2209 
L 2766 2209 
L 2766 2266 
Q 2766 2663 2505 2880 
Q 2244 3097 1772 3097 
Q 1472 3097 1187 3025 
Q 903 2953 641 2809 
L 641 3341 
Q 956 3463 1253 3523 
Q 1550 3584 1831 3584 
Q 2591 3584 2966 3190 
Q 3341 2797 3341 1997 
z
" transform="scale(0.015625)"/>
       <path id="DejaVuSans-74" d="M 1172 4494 
L 1172 3500 
L 2356 3500 
L 2356 3053 
L 1172 3053 
L 1172 1153 
Q 1172 725 1289 603 
Q 1406 481 1766 481 
L 2356 481 
L 2356 0 
L 1766 0 
Q 1100 0 847 248 
Q 594 497 594 1153 
L 594 3053 
L 172 3053 
L 172 3500 
L 594 3500 
L 594 4494 
L 1172 4494 
z
" transform="scale(0.015625)"/>
       <path id="DejaVuSans-75" d="M 544 1381 
L 544 3500 
L 1119 3500 
L 1119 1403 
Q 1119 906 1312 657 
Q 1506 409 1894 409 
Q 2359 409 2629 706 
Q 2900 1003 2900 1516 
L 2900 3500 
L 3475 3500 
L 3475 0 
L 2900 0 
L 2900 538 
Q 2691 219 2414 64 
Q 2138 -91 1772 -91 
Q 1169 -91 856 284 
Q 544 659 544 1381 
z
M 1991 3584 
L 1991 3584 
z
" transform="scale(0.015625)"/>
       <path id="DejaVuSans-20" transform="scale(0.015625)"/>
       <path id="DejaVuSans-28" d="M 1984 4856 
Q 1566 4138 1362 3434 
Q 1159 2731 1159 2009 
Q 1159 1288 1364 580 
Q 1569 -128 1984 -844 
L 1484 -844 
Q 1016 -109 783 600 
Q 550 1309 550 2009 
Q 550 2706 781 3412 
Q 1013 4119 1484 4856 
L 1984 4856 
z
" transform="scale(0.015625)"/>
       <path id="DejaVuSans-2218" d="M 2000 2619 
Q 1750 2619 1578 2445 
Q 1406 2272 1406 2022 
Q 1406 1775 1578 1605 
Q 1750 1435 2000 1435 
Q 2250 1435 2422 1605 
Q 2594 1775 2594 2022 
Q 2594 2269 2420 2444 
Q 2247 2619 2000 2619 
z
M 2000 3022 
Q 2200 3022 2384 2945 
Q 2569 2869 2703 2725 
Q 2847 2585 2919 2406 
Q 2991 2228 2991 2022 
Q 2991 1610 2702 1324 
Q 2413 1038 1994 1038 
Q 1572 1038 1290 1319 
Q 1009 1600 1009 2022 
Q 1009 2441 1296 2731 
Q 1584 3022 2000 3022 
z
" transform="scale(0.015625)"/>
       <path id="DejaVuSans-Oblique-43" d="M 4447 4306 
L 4319 3641 
Q 4019 3944 3683 4091 
Q 3347 4238 2956 4238 
Q 2422 4238 2017 3981 
Q 1613 3725 1319 3200 
Q 1131 2863 1032 2486 
Q 934 2109 934 1728 
Q 934 1091 1264 756 
Q 1594 422 2222 422 
Q 2656 422 3056 561 
Q 3456 700 3834 978 
L 3688 231 
Q 3316 72 2936 -9 
Q 2556 -91 2175 -91 
Q 1278 -91 773 396 
Q 269 884 269 1753 
Q 269 2309 461 2846 
Q 653 3384 1013 3828 
Q 1394 4300 1883 4525 
Q 2372 4750 3022 4750 
Q 3422 4750 3780 4639 
Q 4138 4528 4447 4306 
z
" transform="scale(0.015625)"/>
       <path id="DejaVuSans-29" d="M 513 4856 
L 1013 4856 
Q 1481 4119 1714 3412 
Q 1947 2706 1947 2009 
Q 1947 1309 1714 600 
Q 1481 -109 1013 -844 
L 513 -844 
Q 928 -128 1133 580 
Q 1338 1288 1338 2009 
Q 1338 2731 1133 3434 
Q 928 4138 513 4856 
z
" transform="scale(0.015625)"/>
      </defs>
      <use xlink:href="#DejaVuSans-54" transform="translate(0 0.125)"/>
      <use xlink:href="#DejaVuSans-65" transform="translate(61.083984 0.125)"/>
      <use xlink:href="#DejaVuSans-6d" transform="translate(122.607422 0.125)"/>
      <use xlink:href="#DejaVuSans-70" transform="translate(220.019531 0.125)"/>
      <use xlink:href="#DejaVuSans-65" transform="translate(283.496094 0.125)"/>
      <use xlink:href="#DejaVuSans-72" transform="translate(345.019531 0.125)"/>
      <use xlink:href="#DejaVuSans-61" transform="translate(386.132812 0.125)"/>
      <use xlink:href="#DejaVuSans-74" transform="translate(447.412109 0.125)"/>
      <use xlink:href="#DejaVuSans-75" transform="translate(486.621094 0.125)"/>
      <use xlink:href="#DejaVuSans-72" transform="translate(550 0.125)"/>
      <use xlink:href="#DejaVuSans-65" transform="translate(591.113281 0.125)"/>
      <use xlink:href="#DejaVuSans-20" transform="translate(652.636719 0.125)"/>
      <use xlink:href="#DejaVuSans-28" transform="translate(684.423828 0.125)"/>
      <use xlink:href="#DejaVuSans-2218" transform="translate(724.394531 38.40625) scale(0.7)"/>
      <use xlink:href="#DejaVuSans-Oblique-43" transform="translate(770.947266 0.125)"/>
      <use xlink:href="#DejaVuSans-29" transform="translate(840.771484 0.125)"/>
     </g>
    </g>
   </g>
   <g id="matplotlib.axis_2">
    <g id="ytick_1">
     <g id="line2d_7">
      <defs>
       <path id="mf0ae2d5340" d="M 0 0 
L -3.5 0 
" style="stroke: #000000; stroke-width: 0.8"/>
      </defs>
      <g>
       <use xlink:href="#mf0ae2d5340" x="57.6" y="295.488" style="stroke: #000000; stroke-width: 0.8"/>
      </g>
     </g>
     <g id="text_8">
      <!-- 0 -->
      <g transform="translate(44.2375 299.287219) scale(0.1 -0.1)">
       <use xlink:href="#DejaVuSans-30"/>
      </g>
     </g>
    </g>
    <g id="ytick_2">
     <g id="line2d_8">
      <g>
       <use xlink:href="#mf0ae2d5340" x="57.6" y="241.677909" style="stroke: #000000; stroke-width: 0.8"/>
      </g>
     </g>
     <g id="text_9">
      <!-- 1 -->
      <g transform="translate(44.2375 245.477128) scale(0.1 -0.1)">
       <use xlink:href="#DejaVuSans-31"/>
      </g>
     </g>
    </g>
    <g id="ytick_3">
     <g id="line2d_9">
      <g>
       <use xlink:href="#mf0ae2d5340" x="57.6" y="187.867818" style="stroke: #000000; stroke-width: 0.8"/>
      </g>
     </g>
     <g id="text_10">
      <!-- 2 -->
      <g transform="translate(44.2375 191.667036) scale(0.1 -0.1)">
       <use xlink:href="#DejaVuSans-32"/>
      </g>
     </g>
    </g>
    <g id="ytick_4">
     <g id="line2d_10">
      <g>
       <use xlink:href="#mf0ae2d5340" x="57.6" y="134.057726" style="stroke: #000000; stroke-width: 0.8"/>
      </g>
     </g>
     <g id="text_11">
      <!-- 3 -->
      <g transform="translate(44.2375 137.856945) scale(0.1 -0.1)">
       <defs>
        <path id="DejaVuSans-33" d="M 2597 2516 
Q 3050 2419 3304 2112 
Q 3559 1806 3559 1356 
Q 3559 666 3084 287 
Q 2609 -91 1734 -91 
Q 1441 -91 1130 -33 
Q 819 25 488 141 
L 488 750 
Q 750 597 1062 519 
Q 1375 441 1716 441 
Q 2309 441 2620 675 
Q 2931 909 2931 1356 
Q 2931 1769 2642 2001 
Q 2353 2234 1838 2234 
L 1294 2234 
L 1294 2753 
L 1863 2753 
Q 2328 2753 2575 2939 
Q 2822 3125 2822 3475 
Q 2822 3834 2567 4026 
Q 2313 4219 1838 4219 
Q 1578 4219 1281 4162 
Q 984 4106 628 3988 
L 628 4550 
Q 988 4650 1302 4700 
Q 1616 4750 1894 4750 
Q 2613 4750 3031 4423 
Q 3450 4097 3450 3541 
Q 3450 3153 3228 2886 
Q 3006 2619 2597 2516 
z
" transform="scale(0.015625)"/>
       </defs>
       <use xlink:href="#DejaVuSans-33"/>
      </g>
     </g>
    </g>
    <g id="ytick_5">
     <g id="line2d_11">
      <g>
       <use xlink:href="#mf0ae2d5340" x="57.6" y="80.247635" style="stroke: #000000; stroke-width: 0.8"/>
      </g>
     </g>
     <g id="text_12">
      <!-- 4 -->
      <g transform="translate(44.2375 84.046854) scale(0.1 -0.1)">
       <use xlink:href="#DejaVuSans-34"/>
      </g>
     </g>
    </g>
    <g id="text_13">
     <!-- Intensity ($^{\circ}C^{-1}$) -->
     <g transform="translate(38.1375 213.328) rotate(-90) scale(0.1 -0.1)">
      <defs>
       <path id="DejaVuSans-49" d="M 628 4666 
L 1259 4666 
L 1259 0 
L 628 0 
L 628 4666 
z
" transform="scale(0.015625)"/>
       <path id="DejaVuSans-6e" d="M 3513 2113 
L 3513 0 
L 2938 0 
L 2938 2094 
Q 2938 2591 2744 2837 
Q 2550 3084 2163 3084 
Q 1697 3084 1428 2787 
Q 1159 2491 1159 1978 
L 1159 0 
L 581 0 
L 581 3500 
L 1159 3500 
L 1159 2956 
Q 1366 3272 1645 3428 
Q 1925 3584 2291 3584 
Q 2894 3584 3203 3211 
Q 3513 2838 3513 2113 
z
" transform="scale(0.015625)"/>
       <path id="DejaVuSans-73" d="M 2834 3397 
L 2834 2853 
Q 2591 2978 2328 3040 
Q 2066 3103 1784 3103 
Q 1356 3103 1142 2972 
Q 928 2841 928 2578 
Q 928 2378 1081 2264 
Q 1234 2150 1697 2047 
L 1894 2003 
Q 2506 1872 2764 1633 
Q 3022 1394 3022 966 
Q 3022 478 2636 193 
Q 2250 -91 1575 -91 
Q 1294 -91 989 -36 
Q 684 19 347 128 
L 347 722 
Q 666 556 975 473 
Q 1284 391 1588 391 
Q 1994 391 2212 530 
Q 2431 669 2431 922 
Q 2431 1156 2273 1281 
Q 2116 1406 1581 1522 
L 1381 1569 
Q 847 1681 609 1914 
Q 372 2147 372 2553 
Q 372 3047 722 3315 
Q 1072 3584 1716 3584 
Q 2034 3584 2315 3537 
Q 2597 3491 2834 3397 
z
" transform="scale(0.015625)"/>
       <path id="DejaVuSans-69" d="M 603 3500 
L 1178 3500 
L 1178 0 
L 603 0 
L 603 3500 
z
M 603 4863 
L 1178 4863 
L 1178 4134 
L 603 4134 
L 603 4863 
z
" transform="scale(0.015625)"/>
       <path id="DejaVuSans-79" d="M 2059 -325 
Q 1816 -950 1584 -1140 
Q 1353 -1331 966 -1331 
L 506 -1331 
L 506 -850 
L 844 -850 
Q 1081 -850 1212 -737 
Q 1344 -625 1503 -206 
L 1606 56 
L 191 3500 
L 800 3500 
L 1894 763 
L 2988 3500 
L 3597 3500 
L 2059 -325 
z
" transform="scale(0.015625)"/>
       <path id="DejaVuSans-2212" d="M 678 2272 
L 4684 2272 
L 4684 1741 
L 678 1741 
L 678 2272 
z
" transform="scale(0.015625)"/>
      </defs>
      <use xlink:href="#DejaVuSans-49" transform="translate(0 0.684375)"/>
      <use xlink:href="#DejaVuSans-6e" transform="translate(29.492188 0.684375)"/>
      <use xlink:href="#DejaVuSans-74" transform="translate(92.871094 0.684375)"/>
      <use xlink:href="#DejaVuSans-65" transform="translate(132.080078 0.684375)"/>
      <use xlink:href="#DejaVuSans-6e" transform="translate(193.603516 0.684375)"/>
      <use xlink:href="#DejaVuSans-73" transform="translate(256.982422 0.684375)"/>
      <use xlink:href="#DejaVuSans-69" transform="translate(309.082031 0.684375)"/>
      <use xlink:href="#DejaVuSans-74" transform="translate(336.865234 0.684375)"/>
      <use xlink:href="#DejaVuSans-79" transform="translate(376.074219 0.684375)"/>
      <use xlink:href="#DejaVuSans-20" transform="translate(435.253906 0.684375)"/>
      <use xlink:href="#DejaVuSans-28" transform="translate(467.041016 0.684375)"/>
      <use xlink:href="#DejaVuSans-2218" transform="translate(507.011719 38.965625) scale(0.7)"/>
      <use xlink:href="#DejaVuSans-Oblique-43" transform="translate(553.564453 0.684375)"/>
      <use xlink:href="#DejaVuSans-2212" transform="translate(630.589193 38.965625) scale(0.7)"/>
      <use xlink:href="#DejaVuSans-31" transform="translate(689.241536 38.965625) scale(0.7)"/>
      <use xlink:href="#DejaVuSans-29" transform="translate(736.512044 0.684375)"/>
     </g>
    </g>
    <g id="text_14">
     <!-- 1e7 -->
     <g transform="translate(57.6 38.472) scale(0.1 -0.1)">
      <defs>
       <path id="DejaVuSans-37" d="M 525 4666 
L 3525 4666 
L 3525 4397 
L 1831 0 
L 1172 0 
L 2766 4134 
L 525 4134 
L 525 4666 
z
" transform="scale(0.015625)"/>
      </defs>
      <use xlink:href="#DejaVuSans-31"/>
      <use xlink:href="#DejaVuSans-65" transform="translate(63.623047 0)"/>
      <use xlink:href="#DejaVuSans-37" transform="translate(125.146484 0)"/>
     </g>
    </g>
   </g>
   <g id="line2d_12">
    <path d="M 73.832727 295.488 
L 117.207008 295.38003 
L 117.356351 295.37707 
L 117.784899 295.363483 
L 117.927749 295.363376 
L 118.122543 295.353017 
L 118.24916 295.352506 
L 123.190451 295.170763 
L 123.310575 295.166027 
L 124.031315 295.130809 
L 124.041055 295.136217 
L 124.154685 295.124836 
L 124.271562 295.123948 
L 124.372206 295.111222 
L 124.388439 295.119966 
L 124.579987 295.100648 
L 124.687124 295.109715 
L 124.693617 295.103446 
L 124.820234 295.090451 
L 124.920877 295.096612 
L 124.933864 295.092388 
L 126.498714 295.010516 
L 126.635071 295.003279 
L 126.641564 294.998194 
L 126.76818 295.00118 
L 126.904537 294.991118 
L 127.021413 294.984903 
L 127.02466 294.982696 
L 132.073089 294.722578 
L 132.183472 294.70474 
L 132.186719 294.714803 
L 132.306842 294.698418 
L 132.316582 294.703583 
L 132.488651 294.690534 
L 132.657473 294.683647 
L 132.673706 294.689162 
L 132.777596 294.671432 
L 132.784089 294.666051 
L 132.894473 294.679988 
L 133.01135 294.659674 
L 133.128226 294.668096 
L 133.22887 294.643612 
L 133.241857 294.656769 
L 133.566514 294.630859 
L 133.667158 294.616922 
L 133.585994 294.642159 
L 133.683391 294.628088 
L 134.024282 294.619505 
L 134.124926 294.5986 
L 134.141159 294.603577 
L 134.322967 294.587999 
L 134.439844 294.591901 
L 134.582693 294.572287 
L 134.725543 294.575381 
L 134.845666 294.557893 
L 134.732036 294.580493 
L 134.848913 294.565964 
L 134.861899 294.557489 
L 134.959296 294.563785 
L 134.96579 294.566664 
L 135.076173 294.548072 
L 135.18331 294.555337 
L 135.19305 294.551113 
L 135.329406 294.5354 
L 135.443036 294.542584 
L 135.524201 294.517589 
L 135.559913 294.528997 
L 136.043653 294.514871 
L 136.157284 294.491249 
L 136.602065 294.470909 
L 136.839065 294.452748 
L 136.842312 294.465501 
L 137.248134 294.436255 
L 137.361764 294.435286 
L 137.365011 294.433511 
L 137.637723 294.430739 
L 137.751353 294.406982 
L 137.7546 294.418444 
L 137.884463 294.399287 
L 137.994847 294.402085 
L 137.998093 294.40074 
L 138.092244 294.384893 
L 138.004586 294.40491 
L 138.11497 294.391216 
L 138.2286 294.399852 
L 138.23834 294.3857 
L 138.634423 294.365252 
L 138.644162 294.375665 
L 138.751299 294.360759 
L 138.86493 294.364338 
L 138.868176 294.359468 
L 139.176601 294.346446 
L 139.283738 294.326993 
L 139.293478 294.334984 
L 139.498012 294.333343 
L 139.621382 294.31303 
L 139.627875 294.307945 
L 139.747999 294.322231 
L 139.858382 294.30407 
L 139.861629 294.307729 
L 139.959026 294.309021 
L 139.871369 294.30364 
L 139.972013 294.299523 
L 146.387251 294.026087 
L 146.481401 294.033917 
L 146.432703 294.009648 
L 146.497634 294.031334 
L 146.614511 294.013846 
L 146.617758 294.019657 
L 146.624251 294.011263 
L 146.737881 294.012312 
L 147.413169 293.993774 
L 147.513813 293.997407 
L 147.426156 293.980053 
L 147.526799 293.987963 
L 147.650169 293.976286 
L 147.757307 293.987344 
L 147.689128 293.965686 
L 147.760553 293.981102 
L 147.87743 293.96582 
L 148.030019 293.974941 
L 148.137156 293.954655 
L 148.146896 293.976609 
L 148.432595 293.947121 
L 148.546225 293.963587 
L 148.659855 293.938404 
L 148.766992 293.955112 
L 148.695568 293.924117 
L 148.773485 293.952179 
L 148.883869 293.925732 
L 148.887116 293.942251 
L 148.997499 293.942816 
L 148.913088 293.922826 
L 149.000746 293.930494 
L 149.010486 293.944888 
L 149.124116 293.92853 
L 149.143595 293.916745 
L 149.237746 293.937355 
L 149.32865 293.907894 
L 149.354623 293.929229 
L 149.487733 293.90819 
L 149.494226 293.921561 
L 149.926021 293.913032 
L 150.029911 293.895732 
L 149.958486 293.922073 
L 150.036404 293.906521 
L 150.049391 293.900279 
L 150.146788 293.911553 
L 150.260418 293.887849 
L 150.338336 293.908862 
L 150.377295 293.897401 
L 150.490925 293.872971 
L 150.546117 293.901679 
L 150.604555 293.884755 
L 150.981158 293.881688 
L 151.085049 293.86837 
L 151.094789 293.873913 
L 151.383734 293.862559 
L 151.497364 293.854433 
L 151.390227 293.867455 
L 151.500611 293.857016 
L 151.620734 293.841411 
L 151.510351 293.865626 
L 151.630474 293.855375 
L 151.737611 293.865276 
L 151.64346 293.850855 
L 151.740858 293.859895 
L 151.831762 293.838102 
L 151.854488 293.85107 
L 151.961625 293.852066 
L 151.864228 293.84499 
L 151.971365 293.843456 
L 152.396666 293.82777 
L 152.510297 293.841519 
L 152.63042 293.815125 
L 152.718078 293.837295 
L 152.656393 293.808264 
L 152.740804 293.826156 
L 152.87716 293.81639 
L 152.880406 293.823708 
L 152.890146 293.816659 
L 153.003776 293.829519 
L 153.10442 293.806085 
L 153.117407 293.811116 
L 153.208311 293.830568 
L 153.234283 293.818246 
L 154.107613 293.790614 
L 154.198517 293.804847 
L 154.133586 293.783808 
L 154.221243 293.793789 
L 154.334873 293.802157 
L 154.243969 293.776597 
L 154.341367 293.796507 
L 154.360846 293.80143 
L 154.454997 293.778669 
L 154.552394 293.790803 
L 154.464737 293.767207 
L 154.568627 293.785341 
L 154.70823 293.778911 
L 154.730956 293.792552 
L 154.825107 293.770651 
L 154.922504 293.792202 
L 154.938737 293.786363 
L 155.071847 293.775548 
L 155.691943 293.756607 
L 155.792587 293.766965 
L 155.714669 293.750741 
L 155.805573 293.757198 
L 156.240615 293.749504 
L 156.325026 293.731343 
L 156.269834 293.76379 
L 156.354245 293.749315 
L 156.480861 293.745333 
L 156.484108 293.748804 
L 156.604231 293.760481 
L 156.497094 293.735082 
L 156.620464 293.740571 
L 156.626957 293.751118 
L 156.743834 293.72459 
L 156.837985 293.758113 
L 156.857464 293.749934 
L 156.958108 293.7152 
L 156.867204 293.75588 
L 156.971095 293.738042 
L 156.990574 293.728275 
L 157.084725 293.7431 
L 157.091218 293.747835 
L 157.201602 293.721899 
L 157.445095 293.735674 
L 157.542492 293.718213 
L 157.558725 293.723863 
L 157.665862 293.7325 
L 157.672355 293.729298 
L 158.081424 293.724697 
L 158.188561 293.726258 
L 158.087917 293.708985 
L 158.191808 293.708177 
L 158.305438 293.727872 
L 158.311931 293.724428 
L 158.419068 293.705917 
L 158.324918 293.733952 
L 158.428808 293.71033 
L 158.665808 293.726984 
L 158.669055 293.718348 
L 158.782685 293.699541 
L 158.902809 293.716868 
L 159.026178 293.690366 
L 159.045658 293.706482 
L 159.143055 293.711218 
L 159.055398 293.691362 
L 159.156042 293.697792 
L 159.162535 293.715253 
L 159.302138 293.704922 
L 159.402782 293.716383 
L 159.315124 293.687487 
L 159.419014 293.706267 
L 159.545631 293.690312 
L 159.425508 293.713101 
L 159.548878 293.694644 
L 159.649521 293.707397 
L 159.665754 293.70137 
L 159.779385 293.691577 
L 159.675494 293.712536 
L 159.785878 293.69607 
L 159.899508 293.702312 
L 159.792371 293.688537 
L 159.902755 293.694079 
L 160.100796 293.692034 
L 160.237152 293.684985 
L 160.110536 293.7025 
L 160.240399 293.691227 
L 160.263125 293.682779 
L 160.354029 293.706133 
L 160.464412 293.68399 
L 160.467659 293.69303 
L 160.639728 293.684743 
L 160.646221 293.679362 
L 160.769591 293.69911 
L 160.866988 293.673847 
L 160.883221 293.685174 
L 160.980618 293.700402 
L 160.909194 293.668896 
L 161.000098 293.691792 
L 161.717592 293.67799 
L 161.818235 293.689747 
L 161.724085 293.664941 
L 161.827975 293.672663 
L 161.944852 293.689048 
L 161.951345 293.670726 
L 162.058482 293.66408 
L 161.980564 293.692142 
L 162.061729 293.686357 
L 162.224058 293.6739 
L 162.334441 293.677048 
L 162.237044 293.666797 
L 162.337688 293.675945 
L 162.40262 293.658672 
L 162.366907 293.685308 
L 162.448072 293.686788 
L 162.571442 293.670887 
L 162.574688 293.672663 
L 162.581181 293.66217 
L 162.694812 293.693756 
L 162.779223 293.654287 
L 162.811688 293.671318 
L 163.240237 293.666232 
L 163.357113 293.680815 
L 163.36036 293.666502 
L 163.545415 293.666797 
L 163.678525 293.675434 
L 163.753196 293.656574 
L 163.792155 293.667605 
L 169.762612 293.669515 
L 169.782091 293.659533 
L 169.872995 293.674519 
L 169.983379 293.660771 
L 169.879488 293.676591 
L 169.986626 293.673201 
L 170.106749 293.658511 
L 170.213886 293.674331 
L 170.217133 293.67008 
L 170.317776 293.658215 
L 170.239859 293.684017 
L 170.327516 293.66704 
L 170.502831 293.658484 
L 170.603475 293.685308 
L 170.619708 293.676483 
L 170.655421 293.651838 
L 170.730092 293.676268 
L 171.119681 293.668546 
L 171.587188 293.673362 
L 171.681339 293.688429 
L 171.603421 293.665345 
L 171.697572 293.672636 
L 171.817695 293.662977 
L 171.707312 293.683613 
L 171.824189 293.678259 
L 171.918339 293.685335 
L 171.837175 293.666878 
L 171.934572 293.677586 
L 172.061189 293.660367 
L 172.194299 293.687487 
L 172.304682 293.664887 
L 172.307929 293.684017 
L 172.457271 293.67573 
L 172.460518 293.682187 
L 172.570902 293.692815 
L 172.489737 293.664295 
L 172.580641 293.683048 
L 172.691025 293.670833 
L 172.587134 293.690151 
L 172.704011 293.683721 
L 172.713751 293.670268 
L 172.840368 293.687568 
L 172.950751 293.675811 
L 172.846861 293.690555 
L 172.953998 293.686519 
L 177.086891 293.723217 
L 177.187535 293.712106 
L 177.099878 293.740652 
L 177.197275 293.732311 
L 177.210261 293.740598 
L 177.320645 293.724078 
L 177.489467 293.736697 
L 177.492714 293.732042 
L 177.603097 293.728894 
L 177.502453 293.735244 
L 177.606344 293.739226 
L 177.729714 293.726742 
L 177.739454 293.74084 
L 177.745947 293.732419 
L 177.86607 293.746625 
L 177.9797 293.72954 
L 178.12255 293.735513 
L 178.216701 293.750795 
L 178.232933 293.740302 
L 178.395262 293.745118 
L 178.736153 293.756149 
L 178.791345 293.727926 
L 178.846537 293.764543 
L 178.973153 293.745226 
L 179.083537 293.757898 
L 179.093277 293.752517 
L 179.255606 293.744499 
L 179.258852 293.748212 
L 179.365989 293.772642 
L 179.372482 293.76223 
L 179.476373 293.74501 
L 179.395208 293.770167 
L 179.486113 293.770274 
L 179.710126 293.749423 
L 179.794537 293.77961 
L 179.823757 293.762875 
L 180.083483 293.765378 
L 180.19062 293.779153 
L 180.093223 293.760884 
L 180.193867 293.766508 
L 180.20036 293.774848 
L 180.330223 293.756311 
L 180.434113 293.782059 
L 180.443853 293.773288 
L 180.469826 293.786094 
L 180.557483 293.764543 
L 180.667867 293.784373 
L 180.67436 293.779368 
L 180.778251 293.791126 
L 180.680853 293.76796 
L 180.79773 293.779718 
L 180.979538 293.76866 
L 181.086675 293.795323 
L 181.096415 293.778588 
L 183.115787 293.814372 
L 183.229417 293.825941 
L 183.23591 293.835062 
L 183.339801 293.810282 
L 183.446938 293.832237 
L 183.456677 293.826936 
L 183.570308 293.811224 
L 183.46317 293.83186 
L 183.573554 293.826882 
L 183.917691 293.831537 
L 184.031322 293.829143 
L 184.138459 293.848891 
L 184.161185 293.829492 
L 184.287801 293.821582 
L 184.291048 293.830595 
L 184.411171 293.853061 
L 184.498829 293.821609 
L 184.524801 293.837564 
L 184.648171 293.850021 
L 184.654665 293.845931 
L 184.82024 293.852738 
L 184.917637 293.829896 
L 184.82998 293.858873 
L 184.930624 293.842756 
L 185.047501 293.854756 
L 185.615652 293.860191 
L 185.713049 293.842487 
L 185.729282 293.865007 
L 185.735775 293.860191 
L 185.846159 293.871626 
L 185.956542 293.853895 
L 186.070173 293.872594 
L 186.187049 293.859061 
L 186.076666 293.876199 
L 186.190296 293.863931 
L 186.368858 293.877437 
L 186.459762 293.861751 
L 186.385091 293.887903 
L 186.482488 293.879482 
L 186.924023 293.901436 
L 186.927269 293.886316 
L 187.02142 293.875608 
L 186.943502 293.901302 
L 187.040899 293.884594 
L 187.047393 293.905526 
L 187.161023 293.879536 
L 187.261667 293.90262 
L 187.281146 293.895006 
L 187.40127 293.878729 
L 187.5149 293.902701 
L 187.518146 293.894199 
L 187.625283 293.888979 
L 187.537626 293.909562 
L 187.62853 293.900737 
L 187.73242 293.889571 
L 187.745407 293.896997 
L 187.755146 293.881876 
L 187.859037 293.904369 
L 188.001886 293.895033 
L 188.115517 293.91914 
L 188.12201 293.906764 
L 188.238887 293.902593 
L 188.128503 293.913221 
L 188.24538 293.905903 
L 188.443421 293.91949 
L 188.553805 293.911526 
L 188.557051 293.916396 
L 189.092737 293.923445 
L 189.32649 293.935283 
L 189.456353 293.938942 
L 189.4596 293.932216 
L 189.560244 293.923095 
L 189.479079 293.945157 
L 189.576477 293.931435 
L 189.732312 293.945318 
L 189.738806 293.950269 
L 189.855682 293.938108 
L 189.982299 293.949543 
L 190.102422 293.94018 
L 190.186833 293.962699 
L 190.115409 293.934718 
L 190.219299 293.943058 
L 190.381628 293.953202 
L 190.384875 293.949596 
L 190.563436 293.95409 
L 190.871861 293.955246 
L 190.888094 293.96652 
L 190.978998 293.955193 
L 191.089382 293.977147 
L 191.092629 293.960547 
L 191.099122 293.949812 
L 191.212752 293.975721 
L 191.345862 293.967623 
L 191.459492 293.980752 
L 191.462738 293.97443 
L 191.472478 293.98573 
L 191.621821 293.96434 
L 191.715972 293.990169 
L 191.628314 293.961704 
L 191.735451 293.982071 
L 191.741944 293.971336 
L 191.858821 293.986887 
L 192.858767 294.000528 
L 192.868507 293.986295 
L 192.982137 294.015218 
L 193.092521 294.007684 
L 193.099014 294.014841 
L 193.36848 294.014922 
L 193.459384 294.006393 
L 193.387959 294.021433 
L 193.48211 294.021433 
L 193.60548 294.005263 
L 193.699631 294.032249 
L 193.71911 294.015352 
L 193.926891 294.025765 
L 194.030782 294.040239 
L 193.959357 294.009191 
L 194.043768 294.032975 
L 194.199604 294.040885 
L 194.050261 294.019415 
L 194.20285 294.032787 
L 194.309987 294.023693 
L 194.21259 294.042849 
L 194.322974 294.032168 
L 194.446344 294.045298 
L 194.553481 294.036796 
L 194.56322 294.04137 
L 194.735289 294.036419 
L 194.741782 294.03093 
L 194.858659 294.046939 
L 194.959303 294.035773 
L 194.887878 294.053934 
L 194.969043 294.048661 
L 194.982029 294.042177 
L 195.092413 294.057163 
L 195.319673 294.05649 
L 195.443043 294.069109 
L 195.339153 294.042338 
L 195.44629 294.065799 
L 195.572906 294.056167 
L 195.696276 294.06892 
L 195.803413 294.06171 
L 195.702769 294.073575 
L 195.80666 294.066849 
L 195.90081 294.08361 
L 195.813153 294.062867 
L 195.917043 294.057055 
L 196.050153 294.06136 
L 195.923537 294.078687 
L 196.056646 294.06736 
L 196.283907 294.074759 
L 196.410523 294.0711 
L 196.520907 294.089852 
L 196.420263 294.068167 
L 196.5274 294.081001 
L 196.53714 294.066849 
L 196.686482 294.087565 
L 196.696222 294.091386 
L 196.803359 294.075539 
L 196.916989 294.09561 
L 196.809852 294.065342 
L 196.920236 294.088426 
L 197.056592 294.098058 
L 197.524099 294.100668 
L 197.647469 294.10987 
L 197.75136 294.099108 
L 197.7611 294.105969 
L 197.87473 294.116623 
L 197.767593 294.103601 
L 197.877976 294.113744 
L 198.004593 294.107502 
L 198.150689 294.12491 
L 198.153936 294.120417 
L 198.274059 294.109681 
L 198.277306 294.112399 
L 198.390936 294.122865 
L 198.293538 294.102175 
L 198.394182 294.121735 
L 198.413662 294.130963 
L 198.514306 294.117134 
L 198.618196 294.134622 
L 198.631183 294.130049 
L 199.040251 294.127735 
L 199.043498 294.141053 
L 199.049991 294.125502 
L 199.196087 294.140703 
L 199.306471 294.13508 
L 199.231799 294.153079 
L 199.309717 294.137851 
L 199.433087 294.154586 
L 199.546718 294.143097 
L 199.559704 294.137716 
L 199.660348 294.152057 
L 199.770731 294.140622 
L 199.780471 294.153886 
L 199.9428 294.144335 
L 199.949293 294.152783 
L 200.05643 294.168792 
L 200.062923 294.156227 
L 200.166814 294.149313 
L 200.07591 294.167931 
L 200.17006 294.161958 
L 200.280444 294.169464 
L 200.1798 294.15281 
L 200.286937 294.161043 
L 200.407061 294.170971 
L 200.410307 294.160693 
L 200.579129 294.174146 
L 200.689513 294.163465 
L 200.585622 294.179204 
L 200.69276 294.175545 
L 200.699253 294.166666 
L 200.874568 294.179419 
L 200.981705 294.166047 
L 200.991445 294.173958 
L 201.101828 294.190208 
L 201.105075 294.177886 
L 201.114815 294.183401 
L 201.225198 294.168792 
L 201.338829 294.194244 
L 201.468692 294.186845 
L 202.562788 294.212728 
L 202.676419 294.213266 
L 202.790049 294.231884 
L 202.803035 294.205275 
L 203.098474 294.219777 
L 203.199118 294.238826 
L 203.212104 294.219346 
L 203.218597 294.232503 
L 203.390666 294.233472 
L 203.523775 294.232664 
L 203.656885 294.227203 
L 203.530269 294.239041 
L 203.660132 294.236377 
L 203.809474 294.239014 
L 203.919858 294.25026 
L 203.848433 294.228252 
L 203.923105 294.239175 
L 204.153612 294.240144 
L 204.160105 294.248942 
L 204.312694 294.252251 
L 212.312262 294.421511 
L 212.399919 294.429044 
L 212.325248 294.411179 
L 212.422646 294.415188 
L 217.396403 294.521033 
L 217.497047 294.509194 
L 217.402896 294.525876 
L 217.506787 294.527786 
L 217.7308 294.528189 
L 217.847677 294.525687 
L 217.737294 294.537122 
L 217.85417 294.533732 
L 218.039225 294.531095 
L 218.162595 294.519795 
L 218.175582 294.538763 
L 218.522965 294.539247 
L 218.652829 294.558189 
L 218.756719 294.542637 
L 218.763212 294.550036 
L 218.779445 294.540996 
L 218.880089 294.559426 
L 218.990473 294.541588 
L 218.993719 294.548664 
L 219.107349 294.569408 
L 219.110596 294.552754 
L 219.243706 294.560045 
L 219.246952 294.555175 
L 219.461226 294.556278 
L 219.58135 294.568816 
L 219.701473 294.558081 
L 219.70472 294.562332 
L 219.83783 294.576618 
L 219.711213 294.557624 
L 219.841076 294.563839 
L 220.165734 294.575542 
L 220.175474 294.569704 
L 220.285857 294.582134 
L 220.402734 294.576107 
L 220.496885 294.592627 
L 220.516364 294.586089 
L 220.633241 294.579148 
L 220.740378 294.589748 
L 220.639734 294.577372 
L 220.746871 294.582591 
L 220.954652 294.596824 
L 221.081269 294.585443 
L 221.087762 294.589748 
L 221.100748 294.579336 
L 221.211132 294.597362 
L 221.220872 294.587434 
L 221.357228 294.602044 
L 221.477351 294.590179 
L 221.587735 294.604223 
L 221.594228 294.602017 
L 221.737078 294.599299 
L 221.844215 294.608905 
L 221.847461 294.60008 
L 222.013037 294.607586 
L 222.136407 294.605219 
L 222.360421 294.621388 
L 222.457818 294.603443 
L 222.480544 294.622115 
L 222.717544 294.622761 
L 222.889613 294.625962 
L 223.012983 294.62346 
L 223.016229 294.628599 
L 223.8506 294.640545 
L 223.97397 294.638715 
L 224.094093 294.652894 
L 224.09734 294.645038 
L 224.240189 294.647513 
L 224.376545 294.654024 
L 224.379792 294.651145 
L 224.5616 294.661316 
L 224.646011 294.649181 
L 224.671984 294.65997 
L 224.788861 294.668257 
L 224.678477 294.652921 
L 224.798601 294.660535 
L 224.912231 294.652733 
L 224.915477 294.657468 
L 225.042094 294.671513 
L 225.048587 294.659594 
L 225.162217 294.653352 
L 225.16871 294.655988 
L 225.275848 294.676705 
L 225.285587 294.669549 
L 225.295327 294.660105 
L 225.412204 294.672454 
L 225.555053 294.669387 
L 225.694656 294.67579 
L 229.795084 294.743564 
L 229.889235 294.735439 
L 229.80807 294.752739 
L 229.908714 294.746443 
L 230.204153 294.748676 
L 230.392454 294.748273 
L 230.509331 294.763555 
L 230.635948 294.75064 
L 230.642441 294.756102 
L 230.652181 294.74838 
L 230.762564 294.763017 
L 230.89892 294.751071 
L 231.012551 294.771169 
L 231.015797 294.769689 
L 231.307989 294.77125 
L 231.424866 294.766864 
L 231.541743 294.782227 
L 231.551483 294.77012 
L 231.859908 294.773725 
L 231.973538 294.781151 
L 232.113141 294.778675 
L 232.239757 294.789841 
L 232.340401 294.780828 
L 232.353387 294.787985 
L 232.587141 294.783276 
L 232.742977 294.795437 
L 232.928032 294.791671 
L 233.048155 294.796809 
L 233.051402 294.791079 
L 233.408525 294.798854 
L 233.866293 294.80967 
L 233.872786 294.803832 
L 234.002649 294.814782 
L 234.122772 294.803589 
L 234.249389 294.818253 
L 234.252635 294.808056 
L 236.746007 294.847687 
L 236.859638 294.842413 
L 236.7525 294.852584 
L 236.866131 294.848037 
L 236.87587 294.843005 
L 236.989501 294.859121 
L 237.112871 294.854736 
L 237.346624 294.866736 
L 237.453761 294.851615 
L 237.466748 294.856915 
L 237.593364 294.864879 
L 237.596611 294.856512 
L 237.784912 294.860117 
L 237.892049 294.870287 
L 237.898542 294.86757 
L 238.028406 294.862135 
L 238.158269 294.875856 
L 238.301118 294.871363 
L 238.645255 294.875587 
L 238.758886 294.879758 
L 238.762132 294.875803 
L 238.879009 294.87887 
L 239.018612 294.885488 
L 239.141982 294.879435 
L 239.281585 294.893398 
L 239.284831 294.887506 
L 239.411448 294.878009 
L 239.518585 294.893775 
L 239.531571 294.888044 
L 240.151668 294.895228 
L 240.32049 294.902412 
L 240.473079 294.899883 
L 240.632161 294.907228 
L 240.736052 294.898887 
L 240.745791 294.910779 
L 240.869161 294.906232 
L 240.885394 294.89851 
L 240.986038 294.909999 
L 241.102915 294.901685 
L 240.995778 294.915999 
L 241.115901 294.909622 
L 241.265244 294.916456 
L 241.26849 294.912689 
L 241.53471 294.910133 
L 241.651587 294.925173 
L 241.765217 294.913981 
L 241.768463 294.922617 
L 242.005464 294.922214 
L 242.313888 294.925389 
L 242.434012 294.927756 
L 242.320382 294.921003 
L 242.437258 294.92442 
L 242.602834 294.932411 
L 242.807368 294.931577 
L 242.946971 294.94102 
L 242.817108 294.922886 
L 242.953464 294.935182 
L 243.086574 294.927111 
L 243.089821 294.936258 
L 243.206697 294.940052 
L 243.641739 294.944653 
L 243.784588 294.951002 
L 243.937177 294.944061 
L 243.940424 294.947424 
L 244.583246 294.948446 
L 244.696877 294.959181 
L 244.82674 294.950706 
L 244.829986 294.959988 
L 245.089713 294.963567 
L 245.092959 294.954446 
L 245.540987 294.964482 
L 245.654617 294.959693 
L 245.657864 294.965881 
L 246.372111 294.983503 
L 246.479248 294.974652 
L 246.485741 294.978876 
L 246.605864 294.984068 
L 246.492234 294.972822 
L 246.609111 294.97901 
L 246.618851 294.984876 
L 246.732481 294.973549 
L 246.846111 294.984741 
L 246.849358 294.979226 
L 248.112277 294.99857 
L 248.131756 295.005727 
L 248.2324 294.989907 
L 248.381743 295.001368 
L 248.384989 294.997682 
L 248.589524 295.000023 
L 248.596017 295.009467 
L 248.71614 294.998328 
L 248.83951 295.008794 
L 248.949894 294.998678 
L 248.95314 295.00266 
L 249.118716 295.014471 
L 249.251825 295.006776 
L 249.368702 295.016651 
L 249.488826 295.009386 
L 249.605702 295.016946 
L 249.755045 295.009036 
L 249.761538 295.016005 
L 249.768031 295.009763 
L 249.904388 295.020525 
L 250.027758 295.015736 
L 254.728802 295.067689 
L 254.835939 295.063546 
L 254.845679 295.070272 
L 254.969049 295.066425 
L 255.089173 295.072371 
L 255.092419 295.068577 
L 255.270981 295.071887 
L 255.644337 295.076703 
L 256.705968 295.081626 
L 256.822845 295.089375 
L 257.329311 295.098361 
L 257.449435 295.089456 
L 257.452681 295.090989 
L 260.121368 295.122172 
L 260.234999 295.114316 
L 260.351875 295.127526 
L 260.358369 295.123948 
L 260.488232 295.118352 
L 260.601862 295.12419 
L 260.608355 295.119966 
L 260.851848 295.124029 
L 260.994698 295.119266 
L 261.147287 295.132719 
L 261.260917 295.123733 
L 261.407013 295.130889 
L 261.53363 295.125643 
L 261.676479 295.132638 
L 261.842055 295.132369 
L 262.208918 295.135786 
L 262.419946 295.135571 
L 262.536822 295.143723 
L 262.543315 295.137104 
L 262.682918 295.132773 
L 262.790055 295.147086 
L 262.799795 295.141732 
L 263.134193 295.14184 
L 263.251069 295.15123 
L 263.371193 295.142405 
L 263.374439 295.144154 
L 263.507549 295.151552 
L 263.627672 295.140952 
L 263.634166 295.148189 
L 263.757536 295.146414 
L 264.049728 295.153086 
L 264.202317 295.151929 
L 264.212057 295.140252 
L 264.33218 295.154001 
L 264.501002 295.148378 
L 264.621125 295.156368 
L 265.199016 295.156799 
L 265.31914 295.162637 
L 265.429523 295.154404 
L 265.439263 295.167346 
L 265.647044 295.164225 
L 265.971702 295.167077 
L 266.088579 295.167157 
L 266.091825 295.169444 
L 266.101565 295.162368 
L 266.218442 295.167292 
L 266.364538 295.167561 
L 266.504141 295.17044 
L 266.718415 295.170359 
L 266.88399 295.171274 
L 267.004114 295.173372 
L 267.010607 295.178807 
L 267.14047 295.171005 
L 267.293059 295.174852 
L 267.533306 295.177354 
L 267.776799 295.180825 
L 267.903416 295.176386 
L 267.906662 295.181282 
L 268.182621 295.180045 
L 268.565718 295.183731 
L 268.702074 295.188143 
L 268.85791 295.18626 
L 269.176074 295.189489 
L 269.380609 295.190511 
L 269.552677 295.193148 
L 269.844869 295.200035 
L 269.968239 295.192636 
L 269.971486 295.194789 
L 270.130568 295.19643 
L 270.335102 295.19982 
L 270.458472 295.198905 
L 270.620801 295.202995 
L 270.747418 295.196699 
L 270.870788 295.206008 
L 270.874034 295.201757 
L 271.091555 295.207784 
L 271.201939 295.19947 
L 271.208432 295.203452 
L 271.377254 295.206035 
L 271.546076 295.20391 
L 271.773336 295.208645 
L 271.783076 295.21556 
L 271.899953 295.206277 
L 272.088255 295.211416 
L 272.360967 295.213246 
L 272.487584 295.206035 
L 272.60446 295.214887 
L 273.292735 295.215102 
L 273.412858 295.223604 
L 273.416105 295.219757 
L 274.56864 295.224707 
L 274.70175 295.220833 
L 274.708243 295.227963 
L 275.081599 295.229308 
L 275.286134 295.233155 
L 275.419244 295.226591 
L 275.42249 295.231272 
L 275.581572 295.239424 
L 275.584819 295.234662 
L 275.724422 295.230868 
L 275.860778 295.237649 
L 275.993888 295.231918 
L 277.084738 295.242169 
L 277.201615 295.239182 
L 277.204861 295.24198 
L 277.396409 295.24311 
L 277.691848 295.243056 
L 277.834697 295.247872 
L 278.152862 295.254249 
L 278.269739 295.244536 
L 278.272985 295.250724 
L 278.71452 295.252177 
L 278.83789 295.248572 
L 278.841137 295.25137 
L 279.130082 295.253361 
L 279.363836 295.254034 
L 279.542397 295.256939 
L 279.70148 295.25998 
L 280.065097 295.253011 
L 280.181973 295.263289 
L 280.18522 295.261433 
L 280.467672 295.264231 
L 280.89622 295.260679 
L 281.022837 295.263746 
L 281.233865 295.269531 
L 281.357235 295.258688 
L 281.467618 295.269639 
L 281.470865 295.264688 
L 282.116934 295.270338 
L 282.259783 295.270177 
L 287.321198 295.294849 
L 287.483527 295.29727 
L 287.610144 295.296194 
L 287.616637 295.30144 
L 287.782212 295.296786 
L 287.947788 295.299207 
L 288.132843 295.30144 
L 288.834103 295.299718 
L 289.038638 295.298992 
L 289.181487 295.306337 
L 289.184734 295.302705 
L 289.395761 295.306525 
L 289.782104 295.309512 
L 289.954173 295.304265 
L 290.17494 295.311153 
L 290.356749 295.308328 
L 290.561283 295.309404 
L 290.704132 295.312552 
L 291.132681 295.313682 
L 291.307996 295.315915 
L 291.437859 295.315323 
L 291.567722 295.314462 
L 291.879394 295.314167 
L 292.044969 295.318983 
L 292.178079 295.3104 
L 292.301449 295.320543 
L 292.460531 295.316534 
L 300.950332 295.352022 
L 301.070456 295.348739 
L 301.219798 295.353233 
L 301.375634 295.349304 
L 301.664579 295.356865 
L 301.787949 295.351242 
L 301.927552 295.355089 
L 302.047676 295.352103 
L 302.278183 295.353367 
L 302.434018 295.356273 
L 303.028142 295.356757 
L 303.180731 295.358452 
L 305.982528 295.364883 
L 306.226021 295.366255 
L 306.618857 295.366201 
L 307.057145 295.36803 
L 307.352584 295.369349 
L 308.232407 295.369994 
L 308.492133 295.372147 
L 308.868736 295.374138 
L 309.018078 295.377501 
L 309.209626 295.372362 
L 309.345983 295.37664 
L 309.482339 295.37395 
L 309.660901 295.374891 
L 309.865435 295.376344 
L 310.300477 295.377851 
L 310.547217 295.377259 
L 310.927066 295.3789 
L 311.157573 295.378308 
L 311.28419 295.381752 
L 311.287436 295.378066 
L 311.693259 295.380568 
L 313.293822 295.384792 
L 313.462644 295.385868 
L 315.572919 295.389285 
L 315.728755 295.391276 
L 316.618317 295.393913 
L 316.74818 295.391976 
L 316.907263 295.393536 
L 317.530606 295.394263 
L 317.767606 295.392164 
L 317.962401 295.39394 
L 318.696127 295.395393 
L 318.842223 295.39776 
L 319.043511 295.398568 
L 319.351936 295.400343 
L 319.491539 295.397222 
L 319.835676 295.398514 
L 320.111635 295.399375 
L 320.309676 295.402092 
L 320.462266 295.39994 
L 321.647267 295.402388 
L 321.923226 295.404783 
L 322.533582 295.407285 
L 322.666692 295.405455 
L 323.079007 295.406827 
L 334.075167 295.424101 
L 334.227756 295.424692 
L 334.416057 295.425284 
L 334.705003 295.426226 
L 335.253675 295.427625 
L 335.40951 295.426576 
L 336.152977 295.428002 
L 398.487273 295.473471 
L 398.487273 295.473471 
" clip-path="url(#p16f1d3cd7b)" style="fill: none; stroke-dasharray: 1.85,0.8; stroke-dashoffset: 0; stroke: #8000ff; stroke-width: 0.5"/>
   </g>
   <g id="line2d_13">
    <path d="M 73.832727 295.488 
L 116.658944 295.377824 
L 118.02263 295.332166 
L 119.288909 295.276526 
L 120.327908 295.220187 
L 122.113686 295.074335 
L 122.633186 295.032524 
L 123.055279 294.980167 
L 128.28274 294.094211 
L 128.834707 293.948601 
L 129.938643 293.662412 
L 130.328268 293.545752 
L 133.607607 292.51249 
L 133.899825 292.397982 
L 135.750541 291.724388 
L 136.075228 291.596293 
L 136.367446 291.497497 
L 136.594727 291.385626 
L 136.757071 291.34387 
L 137.211632 291.168395 
L 137.633726 291.003198 
L 138.445443 290.661316 
L 138.607787 290.61972 
L 139.451973 290.274152 
L 145.52362 287.852698 
L 145.685964 287.761194 
L 146.075588 287.60762 
L 154.51745 284.486339 
L 154.647325 284.501647 
L 154.907075 284.372611 
L 155.03695 284.351813 
L 155.751261 284.139586 
L 156.043479 284.005653 
L 156.140885 284.041571 
L 156.400635 283.897441 
L 156.790259 283.834887 
L 156.952603 283.742764 
L 157.179884 283.691187 
L 157.342227 283.62613 
L 157.472102 283.609772 
L 157.666914 283.525317 
L 157.861727 283.485901 
L 158.186414 283.387644 
L 158.28382 283.380218 
L 158.543569 283.273351 
L 158.900725 283.19721 
L 159.387756 283.040139 
L 159.51763 283.011915 
L 159.647505 282.980302 
L 159.842317 282.932007 
L 160.069598 282.871525 
L 161.855377 282.432784 
L 161.985252 282.422291 
L 163.413874 282.082749 
L 163.543749 282.039432 
L 163.576218 282.083287 
L 163.641155 282.014733 
L 164.258061 281.902432 
L 164.550279 281.85898 
L 164.712623 281.776462 
L 164.842497 281.742696 
L 169.160835 281.038538 
L 169.485522 280.974746 
L 169.680334 280.956612 
L 176.953323 280.253126 
L 177.148135 280.22918 
L 177.862447 280.177092 
L 177.992321 280.187262 
L 178.154665 280.200526 
L 178.317008 280.171146 
L 180.362537 280.068853 
L 180.492411 280.10843 
L 180.589818 280.076628 
L 180.622286 280.123981 
L 182.213253 280.086422 
L 182.343127 280.102027 
L 182.505471 280.028711 
L 182.635346 280.089408 
L 183.219782 280.059409 
L 183.349657 280.097722 
L 183.674344 280.093229 
L 184.096437 280.101785 
L 184.323718 280.108645 
L 184.421124 280.068961 
L 184.453593 280.100493 
L 185.200373 280.101623 
L 185.330248 280.079265 
L 185.492591 280.14338 
L 185.557529 280.049158 
L 185.622466 280.121425 
L 185.752341 280.120968 
L 185.979622 280.131111 
L 186.012091 280.085561 
L 186.077028 280.139963 
L 186.53159 280.132618 
L 186.726402 280.098152 
L 186.888746 280.204078 
L 187.051089 280.155729 
L 189.194023 280.286434 
L 189.226492 280.332522 
L 189.29143 280.271851 
L 190.103147 280.338145 
L 190.265491 280.314146 
L 190.78499 280.347186 
L 191.077208 280.397525 
L 191.564239 280.415524 
L 191.726582 280.424941 
L 191.888926 280.423273 
L 192.343487 280.499872 
L 192.473362 280.468662 
L 193.252611 280.522391 
L 193.414955 280.545207 
L 193.674704 280.609079 
L 193.77211 280.58099 
L 193.804579 280.61446 
L 194.129266 280.59673 
L 194.356547 280.665795 
L 194.51889 280.655786 
L 194.908515 280.698243 
L 195.03839 280.712099 
L 195.233202 280.682449 
L 195.330608 280.782213 
L 195.363077 280.751488 
L 195.492951 280.728027 
L 195.655295 280.728215 
L 196.142326 280.816598 
L 196.304669 280.796419 
L 196.53195 280.841001 
L 196.759231 280.8537 
L 197.01898 280.894972 
L 197.051449 280.849664 
L 197.116387 280.910335 
L 197.798229 280.948379 
L 197.928104 280.997454 
L 198.090448 280.983786 
L 198.252791 280.98914 
L 198.934634 281.10685 
L 199.096977 281.085487 
L 199.259321 281.12727 
L 199.713883 281.180892 
L 203.740002 281.647964 
L 203.77247 281.597329 
L 203.837408 281.663165 
L 204.03222 281.715899 
L 204.259501 281.716034 
L 204.454313 281.757252 
L 204.681594 281.747674 
L 204.811469 281.802049 
L 205.168624 281.838102 
L 205.395905 281.909319 
L 205.428374 281.846012 
L 205.52578 281.897562 
L 205.947873 281.934422 
L 206.045279 281.977551 
L 206.077748 281.93235 
L 206.305029 282.011209 
L 207.636246 282.16672 
L 207.831058 282.203015 
L 207.960933 282.236727 
L 209.194743 282.374346 
L 209.324618 282.451375 
L 209.486962 282.413412 
L 209.681774 282.465231 
L 210.136336 282.559561 
L 210.298679 282.544817 
L 210.850647 282.666024 
L 211.207803 282.677916 
L 211.467553 282.743564 
L 211.662365 282.737242 
L 212.01952 282.823849 
L 212.149395 282.810504 
L 212.344208 282.861435 
L 212.636426 282.887479 
L 212.831238 282.931604 
L 213.058519 282.943872 
L 213.253331 282.997817 
L 213.448143 283.025717 
L 213.642956 283.069061 
L 213.77283 283.059107 
L 214.065049 283.108504 
L 214.227392 283.135033 
L 214.357267 283.149642 
L 215.396265 283.301898 
L 215.591078 283.337466 
L 215.818359 283.397922 
L 215.948233 283.38646 
L 216.207983 283.444629 
L 216.402795 283.4587 
L 216.857357 283.540142 
L 216.987232 283.576275 
L 221.338038 284.236229 
L 221.402975 284.198724 
L 221.435444 284.271421 
L 221.857537 284.295716 
L 222.019881 284.330774 
L 222.27963 284.36949 
L 222.506911 284.378934 
L 222.669255 284.450501 
L 222.766661 284.426771 
L 222.929004 284.452465 
L 223.156285 284.501755 
L 223.28616 284.514777 
L 223.416035 284.539315 
L 223.578378 284.572919 
L 223.740722 284.564417 
L 224.584908 284.715139 
L 224.747251 284.728 
L 225.007001 284.78894 
L 225.461563 284.861233 
L 225.753781 284.91125 
L 225.883656 284.901618 
L 227.701903 285.194964 
L 227.929184 285.223052 
L 228.188934 285.26158 
L 228.28634 285.283777 
L 228.448683 285.309283 
L 228.708433 285.307131 
L 228.968183 285.385774 
L 229.682494 285.498049 
L 229.844838 285.489762 
L 230.007181 285.549142 
L 230.169525 285.561545 
L 230.331868 285.576612 
L 232.994302 285.991649 
L 233.221583 286.000366 
L 233.708613 286.090606 
L 233.968363 286.103762 
L 234.098237 286.151815 
L 234.585268 286.193491 
L 234.715143 286.229247 
L 235.007361 286.268313 
L 235.137236 286.307407 
L 235.332048 286.318976 
L 235.52686 286.3638 
L 235.689204 286.36127 
L 235.851547 286.395305 
L 236.111297 286.443842 
L 236.306109 286.450461 
L 236.565859 286.515221 
L 236.695734 286.496872 
L 237.052889 286.596663 
L 237.28017 286.56817 
L 237.410045 286.658652 
L 237.442514 286.60807 
L 237.637326 286.641137 
L 238.091888 286.726022 
L 238.254231 286.720722 
L 238.481512 286.787554 
L 238.676324 286.811849 
L 239.617917 286.924985 
L 239.975072 286.963997 
L 240.169885 287.020148 
L 240.397166 287.051008 
L 241.143946 287.155884 
L 251.306649 288.48954 
L 251.436524 288.482545 
L 255.430174 288.964226 
L 255.624986 288.957876 
L 255.852267 288.996135 
L 256.144486 289.051883 
L 259.910855 289.456185 
L 260.332948 289.504721 
L 260.657635 289.53577 
L 260.78751 289.533806 
L 260.982322 289.595095 
L 261.631696 289.646592 
L 261.858977 289.686761 
L 263.709693 289.852631 
L 263.904505 289.871868 
L 265.235722 290.036903 
L 265.365597 290.026921 
L 265.52794 290.037926 
L 265.820159 290.100076 
L 265.982502 290.082453 
L 266.177314 290.137447 
L 266.372127 290.105619 
L 266.502001 290.156846 
L 266.664345 290.168038 
L 266.891626 290.197203 
L 267.086438 290.209149 
L 292.5419 292.217207 
L 292.834118 292.219198 
L 293.093868 292.261951 
L 293.386086 292.248552 
L 293.54843 292.285412 
L 293.743242 292.281968 
L 307.899596 293.051587 
L 308.191814 293.061326 
L 309.652906 293.131629 
L 314.588148 293.339928 
L 314.977773 293.36043 
L 315.334928 293.375739 
L 316.016771 293.406357 
L 316.633676 293.426374 
L 317.120707 293.457046 
L 317.315519 293.452687 
L 317.899956 293.473404 
L 318.354518 293.48987 
L 320.270171 293.559688 
L 320.627327 293.572495 
L 320.919545 293.588262 
L 322.120887 293.631579 
L 322.380637 293.632816 
L 324.945664 293.719558 
L 325.30282 293.750257 
L 325.497632 293.740006 
L 336.861677 294.077799 
L 337.05649 294.092005 
L 337.54352 294.100588 
L 337.965613 294.116811 
L 338.8098 294.13282 
L 339.134487 294.14299 
L 346.7971 294.312949 
L 346.959444 294.327908 
L 347.446474 294.341576 
L 348.323129 294.358203 
L 348.875097 294.35788 
L 349.167315 294.373512 
L 349.654346 294.384032 
L 349.979033 294.387718 
L 364.654886 294.652141 
L 364.947104 294.651253 
L 365.823759 294.669387 
L 366.440664 294.671244 
L 367.090038 294.683566 
L 376.278681 294.809858 
L 376.733243 294.818576 
L 378.226803 294.830468 
L 379.493082 294.847256 
L 380.434675 294.86079 
L 382.772421 294.881587 
L 383.259452 294.887264 
L 384.233513 294.905882 
L 384.623137 294.905909 
L 388.486913 294.941747 
L 390.142816 294.95641 
L 390.662316 294.963083 
L 391.831189 294.971692 
L 392.415626 294.98945 
L 392.80525 294.986517 
L 396.863838 295.018426 
L 397.740493 295.025906 
L 398.487273 295.034246 
L 398.487273 295.034246 
" clip-path="url(#p16f1d3cd7b)" style="fill: none; stroke-dasharray: 1.85,0.8; stroke-dashoffset: 0; stroke: #00b5eb; stroke-width: 0.5"/>
   </g>
   <g id="line2d_14">
    <path d="M 73.832727 295.488 
L 116.546157 295.378201 
L 120.281552 295.209775 
L 123.69213 294.862216 
L 126.290665 294.3638 
L 129.051609 293.482901 
L 130.513286 292.809549 
L 132.299779 291.746638 
L 135.38554 289.221788 
L 137.984076 286.393691 
L 139.770569 284.094036 
L 140.907428 282.585309 
L 146.429316 274.190127 
L 147.566176 272.307743 
L 149.190261 269.674411 
L 157.960318 255.650506 
L 158.285135 255.172619 
L 160.721262 251.630892 
L 161.208488 250.845911 
L 161.533305 250.4828 
L 162.182939 249.570504 
L 162.994981 248.451093 
L 166.730376 243.680344 
L 167.055193 243.424692 
L 167.542418 242.742864 
L 167.704827 242.645414 
L 168.354461 241.835788 
L 168.516869 241.727898 
L 169.004095 241.12797 
L 169.653729 240.429138 
L 170.303363 239.724791 
L 171.277813 238.798638 
L 173.064307 237.083146 
L 174.038758 236.230014 
L 175.662842 234.883443 
L 175.987659 234.63145 
L 176.312476 234.389413 
L 177.449336 233.458606 
L 177.611744 233.467054 
L 177.936561 233.13822 
L 178.261378 233.056833 
L 178.748603 232.640908 
L 179.07342 232.455989 
L 179.398237 232.262165 
L 180.047871 231.920848 
L 180.21028 231.692828 
L 180.535097 231.606032 
L 180.859914 231.397868 
L 181.022322 231.439651 
L 181.347139 231.091231 
L 183.296041 230.252278 
L 183.458449 230.028293 
L 183.620858 230.113098 
L 183.783266 229.974241 
L 183.945675 230.00502 
L 184.4329 229.705755 
L 184.757717 229.595337 
L 186.056985 229.129907 
L 186.219393 229.119091 
L 186.54421 228.908586 
L 186.706619 228.978297 
L 186.869027 228.748931 
L 187.031436 228.795477 
L 187.356253 228.688637 
L 187.518661 228.736151 
L 188.005887 228.551394 
L 188.330704 228.440922 
L 188.493112 228.450662 
L 188.65552 228.343499 
L 189.142746 228.35827 
L 189.467563 228.177979 
L 189.79238 228.185701 
L 191.091648 227.90788 
L 191.416465 227.903629 
L 192.066099 227.828563 
L 193.365366 227.688523 
L 193.690183 227.779946 
L 194.177409 227.705392 
L 194.339817 227.79165 
L 194.502226 227.680909 
L 194.664634 227.761247 
L 194.989451 227.649914 
L 195.314268 227.688092 
L 195.476677 227.598875 
L 195.801493 227.730145 
L 196.288719 227.71941 
L 196.451127 227.65621 
L 196.938353 227.820761 
L 197.912804 227.76905 
L 198.075212 227.913368 
L 198.400029 227.847639 
L 198.724846 227.882696 
L 198.887255 228.00011 
L 199.049663 227.818447 
L 199.536888 228.034279 
L 200.024114 228.073911 
L 200.673748 228.227942 
L 200.836156 228.159146 
L 200.998565 228.260389 
L 201.160973 228.21648 
L 201.48579 228.428277 
L 201.810607 228.367579 
L 202.135424 228.462984 
L 202.297833 228.424134 
L 202.785058 228.609778 
L 203.109875 228.621321 
L 204.246734 228.987606 
L 204.409143 228.92672 
L 205.058777 229.099639 
L 206.358044 229.502138 
L 207.819721 229.990868 
L 207.982129 229.959066 
L 208.306946 230.228789 
L 208.469355 230.196988 
L 209.118989 230.436416 
L 209.443806 230.544762 
L 211.230299 231.216797 
L 211.555116 231.377931 
L 211.717524 231.394854 
L 211.879933 231.527631 
L 212.20475 231.582059 
L 215.940145 233.188022 
L 216.42737 233.505286 
L 221.78685 236.08626 
L 221.949258 236.314845 
L 222.111667 236.242148 
L 222.436484 236.493414 
L 223.086118 236.858569 
L 223.573343 237.098159 
L 223.89816 237.209546 
L 224.222977 237.475986 
L 224.547794 237.591301 
L 225.684653 238.247865 
L 234.941936 243.602884 
L 235.266753 243.813093 
L 235.429162 243.805667 
L 235.753979 244.022172 
L 249.071474 251.927224 
L 249.233882 251.88275 
L 249.721108 252.274784 
L 250.045925 252.381839 
L 250.370742 252.606362 
L 250.857967 252.898039 
L 251.020376 252.899546 
L 251.182784 253.124445 
L 251.345193 253.111316 
L 252.319643 253.717486 
L 264.662688 260.316648 
L 264.825096 260.375167 
L 265.149913 260.615133 
L 266.124364 261.12345 
L 266.449181 261.247052 
L 266.936406 261.529232 
L 267.910857 261.980375 
L 268.560491 262.372705 
L 269.69735 262.842978 
L 270.184576 263.103204 
L 272.133478 264.050342 
L 272.620703 264.29994 
L 275.544056 265.622834 
L 275.868873 265.780148 
L 276.19369 265.909212 
L 276.518507 266.07422 
L 276.843323 266.231184 
L 277.492957 266.530019 
L 277.655366 266.557139 
L 277.817774 266.72021 
L 278.142591 266.826512 
L 278.467408 266.928698 
L 286.263015 270.215768 
L 286.425424 270.189858 
L 287.075058 270.526306 
L 287.237466 270.540646 
L 287.562283 270.698552 
L 288.049508 270.895739 
L 288.699142 271.137562 
L 289.673593 271.478583 
L 290.972861 272.044235 
L 291.297678 272.073669 
L 291.784903 272.29733 
L 291.947312 272.293295 
L 292.272129 272.472859 
L 292.921763 272.730502 
L 296.332341 273.917768 
L 296.657158 274.03171 
L 302.341454 275.865209 
L 302.666271 275.96882 
L 306.239258 277.078357 
L 306.401666 277.050752 
L 306.888892 277.258217 
L 307.538526 277.439315 
L 308.675385 277.766104 
L 309.16261 277.914028 
L 310.624287 278.292367 
L 311.111512 278.466066 
L 311.598738 278.594026 
L 314.52209 279.421033 
L 314.846907 279.480332 
L 316.6334 279.945439 
L 320.206387 280.774411 
L 320.531204 280.902748 
L 321.018429 280.976252 
L 321.99288 281.207932 
L 323.129739 281.451557 
L 323.616965 281.604216 
L 324.266599 281.715119 
L 325.890684 282.109789 
L 326.377909 282.204414 
L 329.301262 282.83531 
L 329.626078 282.854521 
L 330.113304 283.008713 
L 330.600529 283.084155 
L 332.224614 283.392083 
L 332.549431 283.46322 
L 333.199065 283.582464 
L 334.82315 283.894885 
L 345.866926 285.783834 
L 346.354152 285.865195 
L 353.337716 286.878089 
L 353.824942 286.961253 
L 354.474575 287.043851 
L 357.23552 287.438252 
L 360.808506 287.857272 
L 361.620548 287.928409 
L 362.919816 288.11634 
L 363.56945 288.176715 
L 365.193535 288.380844 
L 366.167986 288.475307 
L 366.81762 288.553843 
L 369.416155 288.810114 
L 369.903381 288.89656 
L 370.715423 288.967401 
L 372.501916 289.167386 
L 373.313959 289.229133 
L 373.963593 289.304656 
L 374.775635 289.379129 
L 375.912494 289.48535 
L 376.562128 289.563132 
L 377.211762 289.609974 
L 378.186213 289.688402 
L 395.888737 291.084128 
L 396.863188 291.141974 
L 398.487273 291.238214 
L 398.487273 291.238214 
" clip-path="url(#p16f1d3cd7b)" style="fill: none; stroke-dasharray: 1.85,0.8; stroke-dashoffset: 0; stroke: #80ffb4; stroke-width: 0.5"/>
   </g>
   <g id="line2d_15">
    <path d="M 73.832727 295.488 
L 116.405045 295.383582 
L 120.954758 295.158467 
L 124.204554 294.772945 
L 126.154431 294.374669 
L 127.779328 293.894091 
L 129.404226 293.252594 
L 130.704144 292.567457 
L 132.329042 291.450279 
L 133.62896 290.335576 
L 134.603898 289.333013 
L 136.228796 287.352183 
L 138.178673 284.360073 
L 140.45353 280.064118 
L 142.403407 275.740611 
L 144.678264 270.199544 
L 150.527895 253.840846 
L 155.727568 238.332562 
L 156.702506 235.515362 
L 158.327404 230.792665 
L 158.977363 228.892147 
L 160.92724 223.385464 
L 167.75181 205.511366 
L 171.651564 196.655301 
L 172.626503 194.695323 
L 174.2514 191.411239 
L 177.501196 185.518173 
L 177.826175 185.117584 
L 178.476134 183.987007 
L 180.101032 181.603085 
L 181.40095 179.69471 
L 182.700868 178.063511 
L 184.000786 176.450957 
L 186.275643 174.01788 
L 186.600622 173.838074 
L 187.900541 172.52761 
L 188.5505 172.143567 
L 189.525438 171.322802 
L 191.150336 170.260806 
L 191.475315 170.140325 
L 192.450254 169.479241 
L 192.775233 169.41023 
L 193.100213 169.109512 
L 193.425192 169.062832 
L 194.075152 168.807718 
L 194.400131 168.754877 
L 194.725111 168.440545 
L 195.700049 168.234318 
L 196.025029 168.030162 
L 196.674988 167.876266 
L 197.324947 167.710907 
L 197.649926 167.71645 
L 198.299885 167.509765 
L 198.624865 167.657635 
L 198.949844 167.483775 
L 199.274824 167.583485 
L 199.599803 167.419714 
L 200.574742 167.306847 
L 200.899722 167.449632 
L 201.549681 167.437552 
L 201.87466 167.576167 
L 202.19964 167.40984 
L 203.174578 167.564974 
L 203.499558 167.534867 
L 203.824537 167.693822 
L 204.474496 167.724656 
L 205.449435 167.970541 
L 205.774414 167.940488 
L 206.424373 168.181853 
L 206.749353 168.203619 
L 207.074333 168.417111 
L 207.724292 168.50501 
L 209.02421 169.159959 
L 209.349189 169.165286 
L 209.674169 169.289776 
L 210.324128 169.703441 
L 212.274005 170.561201 
L 212.598984 170.872008 
L 213.248943 171.10027 
L 214.873841 172.116743 
L 215.198821 172.20857 
L 215.5238 172.554353 
L 216.173759 172.863869 
L 217.148698 173.559768 
L 217.798657 174.050785 
L 218.448616 174.36135 
L 225.598165 180.118707 
L 225.923145 180.574748 
L 226.898084 181.365299 
L 235.347551 189.544513 
L 235.99751 190.300975 
L 236.32249 190.489822 
L 237.622408 191.854661 
L 237.947387 192.027445 
L 239.897265 194.230403 
L 242.497101 196.905249 
L 243.472039 197.970259 
L 244.446978 198.913442 
L 245.096937 199.631538 
L 245.746896 200.304379 
L 247.696773 202.418308 
L 248.346732 203.025367 
L 248.671712 203.521227 
L 249.321671 204.069821 
L 250.296609 205.212397 
L 250.946568 205.821689 
L 251.271548 206.222036 
L 251.596527 206.424443 
L 252.246486 207.221855 
L 252.896446 207.853558 
L 260.695954 215.900346 
L 261.020934 216.174159 
L 261.670893 216.9042 
L 262.645831 217.814102 
L 264.270729 219.426118 
L 265.245667 220.426797 
L 268.820442 223.850545 
L 269.470401 224.50006 
L 269.795381 224.71 
L 272.070238 226.980947 
L 272.395217 227.161103 
L 273.045176 227.76687 
L 274.020115 228.716349 
L 274.995053 229.6453 
L 275.320033 229.854217 
L 275.969992 230.449223 
L 276.619951 231.035483 
L 278.244848 232.485908 
L 278.569828 232.667463 
L 280.519705 234.521167 
L 280.844685 234.66336 
L 282.144603 235.868141 
L 282.794562 236.31759 
L 288.644193 241.052824 
L 289.944111 242.069189 
L 290.91905 242.790782 
L 298.393579 248.253152 
L 306.193088 253.371649 
L 309.442883 255.312552 
L 310.742801 256.14798 
L 312.367699 257.032807 
L 312.692678 257.311489 
L 313.017658 257.370438 
L 313.667617 257.865706 
L 313.992596 257.986348 
L 314.317576 258.255372 
L 314.967535 258.520387 
L 317.567371 259.969627 
L 317.892351 260.067803 
L 319.192269 260.864408 
L 319.517248 260.904147 
L 322.767043 262.631747 
L 323.417002 262.918635 
L 333.491368 267.548213 
L 334.466306 267.921386 
L 338.041081 269.374339 
L 342.265815 271.00457 
L 343.240753 271.376317 
L 343.890713 271.558087 
L 344.215692 271.714971 
L 344.540672 271.748225 
L 345.190631 272.09452 
L 347.790467 272.925214 
L 349.090385 273.410581 
L 349.740344 273.608978 
L 354.290057 275.001449 
L 354.940016 275.224034 
L 370.539034 279.4587 
L 371.838952 279.690407 
L 372.81389 279.93952 
L 374.763767 280.352782 
L 375.413726 280.565574 
L 382.238296 281.989389 
L 383.538215 282.243561 
L 384.188174 282.349217 
L 385.488092 282.591039 
L 389.387846 283.310884 
L 397.187355 284.60986 
L 398.487273 284.791011 
L 398.487273 284.791011 
" clip-path="url(#p16f1d3cd7b)" style="fill: none; stroke-dasharray: 1.85,0.8; stroke-dashoffset: 0; stroke: #ffb360; stroke-width: 0.5"/>
   </g>
   <g id="line2d_16">
    <path d="M 73.832727 295.488 
L 116.122398 295.38751 
L 120.026059 295.224438 
L 123.279111 294.912985 
L 125.881552 294.439457 
L 127.833383 293.85933 
L 129.785214 293.02226 
L 131.086435 292.240965 
L 133.038266 290.684857 
L 134.339486 289.270486 
L 135.640707 287.560213 
L 136.941927 285.466274 
L 138.243148 282.92181 
L 139.544369 279.895907 
L 140.845589 276.344172 
L 142.14681 272.36053 
L 144.098641 265.413997 
L 146.050472 257.420589 
L 148.652913 245.616969 
L 152.556575 225.995092 
L 157.110847 201.62235 
L 163.61695 166.962301 
L 170.773664 132.067103 
L 172.725495 123.446914 
L 177.930377 102.94075 
L 179.882208 96.066403 
L 182.484649 87.771766 
L 185.737701 78.805821 
L 186.388311 77.440766 
L 187.689532 74.13349 
L 188.340142 72.625032 
L 190.291973 68.777315 
L 191.593194 66.244474 
L 193.545025 63.06645 
L 194.195635 62.294732 
L 195.496856 60.494247 
L 196.147466 59.639016 
L 196.798076 59.03037 
L 197.448686 58.183238 
L 198.749907 57.131708 
L 199.400517 56.434813 
L 200.701738 55.655616 
L 202.002959 54.963699 
L 202.653569 54.698873 
L 203.304179 54.289566 
L 204.6054 53.940231 
L 205.25601 53.753887 
L 206.557231 53.64589 
L 207.207841 53.568 
L 207.858451 53.859435 
L 209.159672 53.77272 
L 209.810282 54.039538 
L 210.460893 54.1587 
L 211.111503 54.478843 
L 211.762113 54.596661 
L 215.015165 56.398222 
L 216.316385 57.368015 
L 216.966996 57.684257 
L 219.569437 60.399433 
L 221.521268 62.218591 
L 222.822489 63.730385 
L 226.72615 68.667165 
L 228.027371 70.451212 
L 228.677981 71.281367 
L 229.979202 73.260664 
L 233.232254 78.081187 
L 233.882864 79.410915 
L 239.738357 89.004528 
L 240.388967 90.319835 
L 241.039577 91.263502 
L 241.690188 92.603212 
L 242.340798 93.613497 
L 243.642019 96.119567 
L 248.846901 105.590628 
L 262.509718 131.177622 
L 263.160328 132.230712 
L 263.810938 133.60252 
L 265.112159 135.909628 
L 266.413379 138.239255 
L 274.220703 152.241421 
L 282.028027 165.581265 
L 282.678637 166.451886 
L 283.329248 167.72105 
L 285.281079 170.667207 
L 285.931689 171.893377 
L 287.232909 173.867535 
L 295.040233 185.634484 
L 302.847557 196.52492 
L 304.148778 198.269201 
L 310.00427 205.728113 
L 311.305491 207.239477 
L 313.907932 210.337109 
L 315.209153 211.84546 
L 319.763425 217.041281 
L 320.414035 217.630394 
L 321.064646 218.39891 
L 322.365866 219.665304 
L 323.667087 221.181618 
L 324.968308 222.394067 
L 326.920138 224.381193 
L 329.52258 226.934347 
L 336.679293 233.441037 
L 345.787837 240.872318 
L 356.197602 248.268246 
L 359.450654 250.336652 
L 364.004926 253.131925 
L 365.306147 253.892208 
L 367.908588 255.339726 
L 372.46286 257.842595 
L 374.414691 258.816934 
L 377.667743 260.461478 
L 378.968963 261.05468 
L 380.270184 261.702446 
L 380.920794 261.916315 
L 382.872625 262.880107 
L 385.475066 264.025428 
L 388.728118 265.368824 
L 397.186052 268.634047 
L 398.487273 269.143709 
L 398.487273 269.143709 
" clip-path="url(#p16f1d3cd7b)" style="fill: none; stroke-dasharray: 1.85,0.8; stroke-dashoffset: 0; stroke: #ff0000; stroke-width: 0.5"/>
   </g>
   <g id="patch_3">
    <path d="M 57.6 307.584 
L 57.6 41.472 
" style="fill: none; stroke: #000000; stroke-width: 0.8; stroke-linejoin: miter; stroke-linecap: square"/>
   </g>
   <g id="patch_4">
    <path d="M 414.72 307.584 
L 414.72 41.472 
" style="fill: none; stroke: #000000; stroke-width: 0.8; stroke-linejoin: miter; stroke-linecap: square"/>
   </g>
   <g id="patch_5">
    <path d="M 57.6 307.584 
L 414.72 307.584 
" style="fill: none; stroke: #000000; stroke-width: 0.8; stroke-linejoin: miter; stroke-linecap: square"/>
   </g>
   <g id="patch_6">
    <path d="M 57.6 41.472 
L 414.72 41.472 
" style="fill: none; stroke: #000000; stroke-width: 0.8; stroke-linejoin: miter; stroke-linecap: square"/>
   </g>
   <g id="legend_1">
    <g id="patch_7">
     <path d="M 243.16 152.0832 
L 483.36 152.0832 
Q 485.36 152.0832 485.36 150.0832 
L 485.36 75.0832 
Q 485.36 73.0832 483.36 73.0832 
L 243.16 73.0832 
Q 241.16 73.0832 241.16 75.0832 
L 241.16 150.0832 
Q 241.16 152.0832 243.16 152.0832 
z
" style="fill: #ffffff; opacity: 0.8; stroke: #cccccc; stroke-linejoin: miter"/>
    </g>
    <g id="line2d_17">
     <path d="M 245.16 81.3832 
L 255.16 81.3832 
L 265.16 81.3832 
" style="fill: none; stroke-dasharray: 1.85,0.8; stroke-dashoffset: 0; stroke: #8000ff; stroke-width: 0.5"/>
    </g>
    <g id="text_15">
     <!-- $\rho'$: 3e-04, E=1e+00eV, s_tun=1e+12$s^-1$ -->
     <g transform="translate(273.16 84.8832) scale(0.1 -0.1)">
      <defs>
       <path id="DejaVuSans-Oblique-3c1" d="M 1203 2875 
Q 1453 3194 1981 3475 
Q 2188 3584 2756 3584 
Q 3394 3584 3694 3078 
Q 3994 2572 3834 1747 
Q 3672 922 3175 415 
Q 2678 -91 2041 -91 
Q 1656 -91 1409 63 
Q 1163 213 1044 525 
L 681 -1331 
L 103 -1331 
L 697 1716 
Q 838 2438 1203 2875 
z
M 3238 1747 
Q 3359 2381 3169 2744 
Q 2978 3103 2522 3103 
Q 2066 3103 1734 2744 
Q 1403 2381 1281 1747 
Q 1156 1113 1347 750 
Q 1538 391 1994 391 
Q 2450 391 2781 750 
Q 3113 1113 3238 1747 
z
" transform="scale(0.015625)"/>
       <path id="Cmsy10-30" d="M 225 347 
Q 184 359 184 409 
L 966 3316 
Q 1003 3434 1093 3506 
Q 1184 3578 1300 3578 
Q 1450 3578 1564 3479 
Q 1678 3381 1678 3231 
Q 1678 3166 1644 3084 
L 488 319 
Q 466 275 428 275 
Q 394 275 320 306 
Q 247 338 225 347 
z
" transform="scale(0.015625)"/>
       <path id="DejaVuSans-3a" d="M 750 794 
L 1409 794 
L 1409 0 
L 750 0 
L 750 794 
z
M 750 3309 
L 1409 3309 
L 1409 2516 
L 750 2516 
L 750 3309 
z
" transform="scale(0.015625)"/>
       <path id="DejaVuSans-2d" d="M 313 2009 
L 1997 2009 
L 1997 1497 
L 313 1497 
L 313 2009 
z
" transform="scale(0.015625)"/>
       <path id="DejaVuSans-2c" d="M 750 794 
L 1409 794 
L 1409 256 
L 897 -744 
L 494 -744 
L 750 256 
L 750 794 
z
" transform="scale(0.015625)"/>
       <path id="DejaVuSans-45" d="M 628 4666 
L 3578 4666 
L 3578 4134 
L 1259 4134 
L 1259 2753 
L 3481 2753 
L 3481 2222 
L 1259 2222 
L 1259 531 
L 3634 531 
L 3634 0 
L 628 0 
L 628 4666 
z
" transform="scale(0.015625)"/>
       <path id="DejaVuSans-3d" d="M 678 2906 
L 4684 2906 
L 4684 2381 
L 678 2381 
L 678 2906 
z
M 678 1631 
L 4684 1631 
L 4684 1100 
L 678 1100 
L 678 1631 
z
" transform="scale(0.015625)"/>
       <path id="DejaVuSans-2b" d="M 2944 4013 
L 2944 2272 
L 4684 2272 
L 4684 1741 
L 2944 1741 
L 2944 0 
L 2419 0 
L 2419 1741 
L 678 1741 
L 678 2272 
L 2419 2272 
L 2419 4013 
L 2944 4013 
z
" transform="scale(0.015625)"/>
       <path id="DejaVuSans-56" d="M 1831 0 
L 50 4666 
L 709 4666 
L 2188 738 
L 3669 4666 
L 4325 4666 
L 2547 0 
L 1831 0 
z
" transform="scale(0.015625)"/>
       <path id="DejaVuSans-5f" d="M 3263 -1063 
L 3263 -1509 
L -63 -1509 
L -63 -1063 
L 3263 -1063 
z
" transform="scale(0.015625)"/>
       <path id="DejaVuSans-Oblique-73" d="M 3200 3397 
L 3091 2853 
Q 2863 2978 2609 3040 
Q 2356 3103 2088 3103 
Q 1634 3103 1373 2948 
Q 1113 2794 1113 2528 
Q 1113 2219 1719 2053 
Q 1766 2041 1788 2034 
L 1972 1978 
Q 2547 1819 2739 1644 
Q 2931 1469 2931 1166 
Q 2931 609 2489 259 
Q 2047 -91 1331 -91 
Q 1053 -91 747 -37 
Q 441 16 72 128 
L 184 722 
Q 500 559 806 475 
Q 1113 391 1394 391 
Q 1816 391 2080 572 
Q 2344 753 2344 1031 
Q 2344 1331 1650 1516 
L 1591 1531 
L 1394 1581 
Q 956 1697 753 1886 
Q 550 2075 550 2369 
Q 550 2928 970 3256 
Q 1391 3584 2113 3584 
Q 2397 3584 2667 3537 
Q 2938 3491 3200 3397 
z
" transform="scale(0.015625)"/>
      </defs>
      <use xlink:href="#DejaVuSans-Oblique-3c1" transform="translate(0 0.584375)"/>
      <use xlink:href="#Cmsy10-30" transform="translate(68.126458 38.865625) scale(0.7)"/>
      <use xlink:href="#DejaVuSans-3a" transform="translate(90.103997 0.584375)"/>
      <use xlink:href="#DejaVuSans-20" transform="translate(123.795404 0.584375)"/>
      <use xlink:href="#DejaVuSans-33" transform="translate(155.582513 0.584375)"/>
      <use xlink:href="#DejaVuSans-65" transform="translate(219.20556 0.584375)"/>
      <use xlink:href="#DejaVuSans-2d" transform="translate(280.728997 0.584375)"/>
      <use xlink:href="#DejaVuSans-30" transform="translate(316.812982 0.584375)"/>
      <use xlink:href="#DejaVuSans-34" transform="translate(380.436029 0.584375)"/>
      <use xlink:href="#DejaVuSans-2c" transform="translate(444.059076 0.584375)"/>
      <use xlink:href="#DejaVuSans-20" transform="translate(475.846185 0.584375)"/>
      <use xlink:href="#DejaVuSans-45" transform="translate(507.633294 0.584375)"/>
      <use xlink:href="#DejaVuSans-3d" transform="translate(570.816888 0.584375)"/>
      <use xlink:href="#DejaVuSans-31" transform="translate(654.605951 0.584375)"/>
      <use xlink:href="#DejaVuSans-65" transform="translate(718.228997 0.584375)"/>
      <use xlink:href="#DejaVuSans-2b" transform="translate(779.752435 0.584375)"/>
      <use xlink:href="#DejaVuSans-30" transform="translate(863.541497 0.584375)"/>
      <use xlink:href="#DejaVuSans-30" transform="translate(927.164544 0.584375)"/>
      <use xlink:href="#DejaVuSans-65" transform="translate(990.787591 0.584375)"/>
      <use xlink:href="#DejaVuSans-56" transform="translate(1052.311029 0.584375)"/>
      <use xlink:href="#DejaVuSans-2c" transform="translate(1120.719232 0.584375)"/>
      <use xlink:href="#DejaVuSans-20" transform="translate(1152.506341 0.584375)"/>
      <use xlink:href="#DejaVuSans-73" transform="translate(1184.293451 0.584375)"/>
      <use xlink:href="#DejaVuSans-5f" transform="translate(1236.39306 0.584375)"/>
      <use xlink:href="#DejaVuSans-74" transform="translate(1286.39306 0.584375)"/>
      <use xlink:href="#DejaVuSans-75" transform="translate(1325.602044 0.584375)"/>
      <use xlink:href="#DejaVuSans-6e" transform="translate(1388.980951 0.584375)"/>
      <use xlink:href="#DejaVuSans-3d" transform="translate(1452.359857 0.584375)"/>
      <use xlink:href="#DejaVuSans-31" transform="translate(1536.148919 0.584375)"/>
      <use xlink:href="#DejaVuSans-65" transform="translate(1599.771966 0.584375)"/>
      <use xlink:href="#DejaVuSans-2b" transform="translate(1661.295404 0.584375)"/>
      <use xlink:href="#DejaVuSans-31" transform="translate(1745.084466 0.584375)"/>
      <use xlink:href="#DejaVuSans-32" transform="translate(1808.707513 0.584375)"/>
      <use xlink:href="#DejaVuSans-Oblique-73" transform="translate(1872.33056 0.584375)"/>
      <use xlink:href="#DejaVuSans-2212" transform="translate(1942.71776 38.865625) scale(0.7)"/>
      <use xlink:href="#DejaVuSans-31" transform="translate(2017.742174 0.584375)"/>
     </g>
    </g>
    <g id="line2d_18">
     <path d="M 245.16 96.5832 
L 255.16 96.5832 
L 265.16 96.5832 
" style="fill: none; stroke-dasharray: 1.85,0.8; stroke-dashoffset: 0; stroke: #00b5eb; stroke-width: 0.5"/>
    </g>
    <g id="text_16">
     <!-- $\rho'$: 3e-04, E=1e+00eV, s_tun=1e+12$s^-1$ -->
     <g transform="translate(273.16 100.0832) scale(0.1 -0.1)">
      <use xlink:href="#DejaVuSans-Oblique-3c1" transform="translate(0 0.584375)"/>
      <use xlink:href="#Cmsy10-30" transform="translate(68.126458 38.865625) scale(0.7)"/>
      <use xlink:href="#DejaVuSans-3a" transform="translate(90.103997 0.584375)"/>
      <use xlink:href="#DejaVuSans-20" transform="translate(123.795404 0.584375)"/>
      <use xlink:href="#DejaVuSans-33" transform="translate(155.582513 0.584375)"/>
      <use xlink:href="#DejaVuSans-65" transform="translate(219.20556 0.584375)"/>
      <use xlink:href="#DejaVuSans-2d" transform="translate(280.728997 0.584375)"/>
      <use xlink:href="#DejaVuSans-30" transform="translate(316.812982 0.584375)"/>
      <use xlink:href="#DejaVuSans-34" transform="translate(380.436029 0.584375)"/>
      <use xlink:href="#DejaVuSans-2c" transform="translate(444.059076 0.584375)"/>
      <use xlink:href="#DejaVuSans-20" transform="translate(475.846185 0.584375)"/>
      <use xlink:href="#DejaVuSans-45" transform="translate(507.633294 0.584375)"/>
      <use xlink:href="#DejaVuSans-3d" transform="translate(570.816888 0.584375)"/>
      <use xlink:href="#DejaVuSans-31" transform="translate(654.605951 0.584375)"/>
      <use xlink:href="#DejaVuSans-65" transform="translate(718.228997 0.584375)"/>
      <use xlink:href="#DejaVuSans-2b" transform="translate(779.752435 0.584375)"/>
      <use xlink:href="#DejaVuSans-30" transform="translate(863.541497 0.584375)"/>
      <use xlink:href="#DejaVuSans-30" transform="translate(927.164544 0.584375)"/>
      <use xlink:href="#DejaVuSans-65" transform="translate(990.787591 0.584375)"/>
      <use xlink:href="#DejaVuSans-56" transform="translate(1052.311029 0.584375)"/>
      <use xlink:href="#DejaVuSans-2c" transform="translate(1120.719232 0.584375)"/>
      <use xlink:href="#DejaVuSans-20" transform="translate(1152.506341 0.584375)"/>
      <use xlink:href="#DejaVuSans-73" transform="translate(1184.293451 0.584375)"/>
      <use xlink:href="#DejaVuSans-5f" transform="translate(1236.39306 0.584375)"/>
      <use xlink:href="#DejaVuSans-74" transform="translate(1286.39306 0.584375)"/>
      <use xlink:href="#DejaVuSans-75" transform="translate(1325.602044 0.584375)"/>
      <use xlink:href="#DejaVuSans-6e" transform="translate(1388.980951 0.584375)"/>
      <use xlink:href="#DejaVuSans-3d" transform="translate(1452.359857 0.584375)"/>
      <use xlink:href="#DejaVuSans-31" transform="translate(1536.148919 0.584375)"/>
      <use xlink:href="#DejaVuSans-65" transform="translate(1599.771966 0.584375)"/>
      <use xlink:href="#DejaVuSans-2b" transform="translate(1661.295404 0.584375)"/>
      <use xlink:href="#DejaVuSans-31" transform="translate(1745.084466 0.584375)"/>
      <use xlink:href="#DejaVuSans-32" transform="translate(1808.707513 0.584375)"/>
      <use xlink:href="#DejaVuSans-Oblique-73" transform="translate(1872.33056 0.584375)"/>
      <use xlink:href="#DejaVuSans-2212" transform="translate(1942.71776 38.865625) scale(0.7)"/>
      <use xlink:href="#DejaVuSans-31" transform="translate(2017.742174 0.584375)"/>
     </g>
    </g>
    <g id="line2d_19">
     <path d="M 245.16 111.7832 
L 255.16 111.7832 
L 265.16 111.7832 
" style="fill: none; stroke-dasharray: 1.85,0.8; stroke-dashoffset: 0; stroke: #80ffb4; stroke-width: 0.5"/>
    </g>
    <g id="text_17">
     <!-- $\rho'$: 3e-04, E=1e+00eV, s_tun=1e+12$s^-1$ -->
     <g transform="translate(273.16 115.2832) scale(0.1 -0.1)">
      <use xlink:href="#DejaVuSans-Oblique-3c1" transform="translate(0 0.584375)"/>
      <use xlink:href="#Cmsy10-30" transform="translate(68.126458 38.865625) scale(0.7)"/>
      <use xlink:href="#DejaVuSans-3a" transform="translate(90.103997 0.584375)"/>
      <use xlink:href="#DejaVuSans-20" transform="translate(123.795404 0.584375)"/>
      <use xlink:href="#DejaVuSans-33" transform="translate(155.582513 0.584375)"/>
      <use xlink:href="#DejaVuSans-65" transform="translate(219.20556 0.584375)"/>
      <use xlink:href="#DejaVuSans-2d" transform="translate(280.728997 0.584375)"/>
      <use xlink:href="#DejaVuSans-30" transform="translate(316.812982 0.584375)"/>
      <use xlink:href="#DejaVuSans-34" transform="translate(380.436029 0.584375)"/>
      <use xlink:href="#DejaVuSans-2c" transform="translate(444.059076 0.584375)"/>
      <use xlink:href="#DejaVuSans-20" transform="translate(475.846185 0.584375)"/>
      <use xlink:href="#DejaVuSans-45" transform="translate(507.633294 0.584375)"/>
      <use xlink:href="#DejaVuSans-3d" transform="translate(570.816888 0.584375)"/>
      <use xlink:href="#DejaVuSans-31" transform="translate(654.605951 0.584375)"/>
      <use xlink:href="#DejaVuSans-65" transform="translate(718.228997 0.584375)"/>
      <use xlink:href="#DejaVuSans-2b" transform="translate(779.752435 0.584375)"/>
      <use xlink:href="#DejaVuSans-30" transform="translate(863.541497 0.584375)"/>
      <use xlink:href="#DejaVuSans-30" transform="translate(927.164544 0.584375)"/>
      <use xlink:href="#DejaVuSans-65" transform="translate(990.787591 0.584375)"/>
      <use xlink:href="#DejaVuSans-56" transform="translate(1052.311029 0.584375)"/>
      <use xlink:href="#DejaVuSans-2c" transform="translate(1120.719232 0.584375)"/>
      <use xlink:href="#DejaVuSans-20" transform="translate(1152.506341 0.584375)"/>
      <use xlink:href="#DejaVuSans-73" transform="translate(1184.293451 0.584375)"/>
      <use xlink:href="#DejaVuSans-5f" transform="translate(1236.39306 0.584375)"/>
      <use xlink:href="#DejaVuSans-74" transform="translate(1286.39306 0.584375)"/>
      <use xlink:href="#DejaVuSans-75" transform="translate(1325.602044 0.584375)"/>
      <use xlink:href="#DejaVuSans-6e" transform="translate(1388.980951 0.584375)"/>
      <use xlink:href="#DejaVuSans-3d" transform="translate(1452.359857 0.584375)"/>
      <use xlink:href="#DejaVuSans-31" transform="translate(1536.148919 0.584375)"/>
      <use xlink:href="#DejaVuSans-65" transform="translate(1599.771966 0.584375)"/>
      <use xlink:href="#DejaVuSans-2b" transform="translate(1661.295404 0.584375)"/>
      <use xlink:href="#DejaVuSans-31" transform="translate(1745.084466 0.584375)"/>
      <use xlink:href="#DejaVuSans-32" transform="translate(1808.707513 0.584375)"/>
      <use xlink:href="#DejaVuSans-Oblique-73" transform="translate(1872.33056 0.584375)"/>
      <use xlink:href="#DejaVuSans-2212" transform="translate(1942.71776 38.865625) scale(0.7)"/>
      <use xlink:href="#DejaVuSans-31" transform="translate(2017.742174 0.584375)"/>
     </g>
    </g>
    <g id="line2d_20">
     <path d="M 245.16 126.9832 
L 255.16 126.9832 
L 265.16 126.9832 
" style="fill: none; stroke-dasharray: 1.85,0.8; stroke-dashoffset: 0; stroke: #ffb360; stroke-width: 0.5"/>
    </g>
    <g id="text_18">
     <!-- $\rho'$: 3e-04, E=1e+00eV, s_tun=1e+12$s^-1$ -->
     <g transform="translate(273.16 130.4832) scale(0.1 -0.1)">
      <use xlink:href="#DejaVuSans-Oblique-3c1" transform="translate(0 0.584375)"/>
      <use xlink:href="#Cmsy10-30" transform="translate(68.126458 38.865625) scale(0.7)"/>
      <use xlink:href="#DejaVuSans-3a" transform="translate(90.103997 0.584375)"/>
      <use xlink:href="#DejaVuSans-20" transform="translate(123.795404 0.584375)"/>
      <use xlink:href="#DejaVuSans-33" transform="translate(155.582513 0.584375)"/>
      <use xlink:href="#DejaVuSans-65" transform="translate(219.20556 0.584375)"/>
      <use xlink:href="#DejaVuSans-2d" transform="translate(280.728997 0.584375)"/>
      <use xlink:href="#DejaVuSans-30" transform="translate(316.812982 0.584375)"/>
      <use xlink:href="#DejaVuSans-34" transform="translate(380.436029 0.584375)"/>
      <use xlink:href="#DejaVuSans-2c" transform="translate(444.059076 0.584375)"/>
      <use xlink:href="#DejaVuSans-20" transform="translate(475.846185 0.584375)"/>
      <use xlink:href="#DejaVuSans-45" transform="translate(507.633294 0.584375)"/>
      <use xlink:href="#DejaVuSans-3d" transform="translate(570.816888 0.584375)"/>
      <use xlink:href="#DejaVuSans-31" transform="translate(654.605951 0.584375)"/>
      <use xlink:href="#DejaVuSans-65" transform="translate(718.228997 0.584375)"/>
      <use xlink:href="#DejaVuSans-2b" transform="translate(779.752435 0.584375)"/>
      <use xlink:href="#DejaVuSans-30" transform="translate(863.541497 0.584375)"/>
      <use xlink:href="#DejaVuSans-30" transform="translate(927.164544 0.584375)"/>
      <use xlink:href="#DejaVuSans-65" transform="translate(990.787591 0.584375)"/>
      <use xlink:href="#DejaVuSans-56" transform="translate(1052.311029 0.584375)"/>
      <use xlink:href="#DejaVuSans-2c" transform="translate(1120.719232 0.584375)"/>
      <use xlink:href="#DejaVuSans-20" transform="translate(1152.506341 0.584375)"/>
      <use xlink:href="#DejaVuSans-73" transform="translate(1184.293451 0.584375)"/>
      <use xlink:href="#DejaVuSans-5f" transform="translate(1236.39306 0.584375)"/>
      <use xlink:href="#DejaVuSans-74" transform="translate(1286.39306 0.584375)"/>
      <use xlink:href="#DejaVuSans-75" transform="translate(1325.602044 0.584375)"/>
      <use xlink:href="#DejaVuSans-6e" transform="translate(1388.980951 0.584375)"/>
      <use xlink:href="#DejaVuSans-3d" transform="translate(1452.359857 0.584375)"/>
      <use xlink:href="#DejaVuSans-31" transform="translate(1536.148919 0.584375)"/>
      <use xlink:href="#DejaVuSans-65" transform="translate(1599.771966 0.584375)"/>
      <use xlink:href="#DejaVuSans-2b" transform="translate(1661.295404 0.584375)"/>
      <use xlink:href="#DejaVuSans-31" transform="translate(1745.084466 0.584375)"/>
      <use xlink:href="#DejaVuSans-32" transform="translate(1808.707513 0.584375)"/>
      <use xlink:href="#DejaVuSans-Oblique-73" transform="translate(1872.33056 0.584375)"/>
      <use xlink:href="#DejaVuSans-2212" transform="translate(1942.71776 38.865625) scale(0.7)"/>
      <use xlink:href="#DejaVuSans-31" transform="translate(2017.742174 0.584375)"/>
     </g>
    </g>
    <g id="line2d_21">
     <path d="M 245.16 142.1832 
L 255.16 142.1832 
L 265.16 142.1832 
" style="fill: none; stroke-dasharray: 1.85,0.8; stroke-dashoffset: 0; stroke: #ff0000; stroke-width: 0.5"/>
    </g>
    <g id="text_19">
     <!-- $\rho'$: 3e-04, E=1e+00eV, s_tun=1e+12$s^-1$ -->
     <g transform="translate(273.16 145.6832) scale(0.1 -0.1)">
      <use xlink:href="#DejaVuSans-Oblique-3c1" transform="translate(0 0.584375)"/>
      <use xlink:href="#Cmsy10-30" transform="translate(68.126458 38.865625) scale(0.7)"/>
      <use xlink:href="#DejaVuSans-3a" transform="translate(90.103997 0.584375)"/>
      <use xlink:href="#DejaVuSans-20" transform="translate(123.795404 0.584375)"/>
      <use xlink:href="#DejaVuSans-33" transform="translate(155.582513 0.584375)"/>
      <use xlink:href="#DejaVuSans-65" transform="translate(219.20556 0.584375)"/>
      <use xlink:href="#DejaVuSans-2d" transform="translate(280.728997 0.584375)"/>
      <use xlink:href="#DejaVuSans-30" transform="translate(316.812982 0.584375)"/>
      <use xlink:href="#DejaVuSans-34" transform="translate(380.436029 0.584375)"/>
      <use xlink:href="#DejaVuSans-2c" transform="translate(444.059076 0.584375)"/>
      <use xlink:href="#DejaVuSans-20" transform="translate(475.846185 0.584375)"/>
      <use xlink:href="#DejaVuSans-45" transform="translate(507.633294 0.584375)"/>
      <use xlink:href="#DejaVuSans-3d" transform="translate(570.816888 0.584375)"/>
      <use xlink:href="#DejaVuSans-31" transform="translate(654.605951 0.584375)"/>
      <use xlink:href="#DejaVuSans-65" transform="translate(718.228997 0.584375)"/>
      <use xlink:href="#DejaVuSans-2b" transform="translate(779.752435 0.584375)"/>
      <use xlink:href="#DejaVuSans-30" transform="translate(863.541497 0.584375)"/>
      <use xlink:href="#DejaVuSans-30" transform="translate(927.164544 0.584375)"/>
      <use xlink:href="#DejaVuSans-65" transform="translate(990.787591 0.584375)"/>
      <use xlink:href="#DejaVuSans-56" transform="translate(1052.311029 0.584375)"/>
      <use xlink:href="#DejaVuSans-2c" transform="translate(1120.719232 0.584375)"/>
      <use xlink:href="#DejaVuSans-20" transform="translate(1152.506341 0.584375)"/>
      <use xlink:href="#DejaVuSans-73" transform="translate(1184.293451 0.584375)"/>
      <use xlink:href="#DejaVuSans-5f" transform="translate(1236.39306 0.584375)"/>
      <use xlink:href="#DejaVuSans-74" transform="translate(1286.39306 0.584375)"/>
      <use xlink:href="#DejaVuSans-75" transform="translate(1325.602044 0.584375)"/>
      <use xlink:href="#DejaVuSans-6e" transform="translate(1388.980951 0.584375)"/>
      <use xlink:href="#DejaVuSans-3d" transform="translate(1452.359857 0.584375)"/>
      <use xlink:href="#DejaVuSans-31" transform="translate(1536.148919 0.584375)"/>
      <use xlink:href="#DejaVuSans-65" transform="translate(1599.771966 0.584375)"/>
      <use xlink:href="#DejaVuSans-2b" transform="translate(1661.295404 0.584375)"/>
      <use xlink:href="#DejaVuSans-31" transform="translate(1745.084466 0.584375)"/>
      <use xlink:href="#DejaVuSans-32" transform="translate(1808.707513 0.584375)"/>
      <use xlink:href="#DejaVuSans-Oblique-73" transform="translate(1872.33056 0.584375)"/>
      <use xlink:href="#DejaVuSans-2212" transform="translate(1942.71776 38.865625) scale(0.7)"/>
      <use xlink:href="#DejaVuSans-31" transform="translate(2017.742174 0.584375)"/>
     </g>
    </g>
   </g>
  </g>
 </g>
 <defs>
  <clipPath id="p16f1d3cd7b">
   <rect x="57.6" y="41.472" width="357.12" height="266.112"/>
  </clipPath>
 </defs>
</svg>
