<?xml version="1.0" encoding="utf-8" standalone="no"?>
<!DOCTYPE svg PUBLIC "-//W3C//DTD SVG 1.1//EN"
  "http://www.w3.org/Graphics/SVG/1.1/DTD/svg11.dtd">
<svg xmlns:xlink="http://www.w3.org/1999/xlink" width="720pt" height="360pt" viewBox="0 0 720 360" xmlns="http://www.w3.org/2000/svg" version="1.1">
 <metadata>
  <rdf:RDF xmlns:dc="http://purl.org/dc/elements/1.1/" xmlns:cc="http://creativecommons.org/ns#" xmlns:rdf="http://www.w3.org/1999/02/22-rdf-syntax-ns#">
   <cc:Work>
    <dc:type rdf:resource="http://purl.org/dc/dcmitype/StillImage"/>
    <dc:date>2025-03-12T07:58:45.525696</dc:date>
    <dc:format>image/svg+xml</dc:format>
    <dc:creator>
     <cc:Agent>
      <dc:title>Matplotlib v3.10.0, https://matplotlib.org/</dc:title>
     </cc:Agent>
    </dc:creator>
   </cc:Work>
  </rdf:RDF>
 </metadata>
 <defs>
  <style type="text/css">*{stroke-linejoin: round; stroke-linecap: butt}</style>
 </defs>
 <g id="figure_1">
  <g id="patch_1">
   <path d="M 0 360 
L 720 360 
L 720 0 
L 0 0 
z
" style="fill: #ffffff"/>
  </g>
  <g id="axes_1">
   <g id="patch_2">
    <path d="M 44.57 318.04 
L 353.025 318.04 
L 353.025 26.88 
L 44.57 26.88 
z
" style="fill: #ffffff"/>
   </g>
   <g id="matplotlib.axis_1">
    <g id="xtick_1">
     <g id="line2d_1">
      <defs>
       <path id="mea877f27f4" d="M 0 0 
L 0 3.5 
" style="stroke: #000000; stroke-width: 0.8"/>
      </defs>
      <g>
       <use xlink:href="#mea877f27f4" x="58.590682" y="318.04" style="stroke: #000000; stroke-width: 0.8"/>
      </g>
     </g>
     <g id="text_1">
      <!-- 0 -->
      <g transform="translate(55.409432 332.638438) scale(0.1 -0.1)">
       <defs>
        <path id="DejaVuSans-30" d="M 2034 4250 
Q 1547 4250 1301 3770 
Q 1056 3291 1056 2328 
Q 1056 1369 1301 889 
Q 1547 409 2034 409 
Q 2525 409 2770 889 
Q 3016 1369 3016 2328 
Q 3016 3291 2770 3770 
Q 2525 4250 2034 4250 
z
M 2034 4750 
Q 2819 4750 3233 4129 
Q 3647 3509 3647 2328 
Q 3647 1150 3233 529 
Q 2819 -91 2034 -91 
Q 1250 -91 836 529 
Q 422 1150 422 2328 
Q 422 3509 836 4129 
Q 1250 4750 2034 4750 
z
" transform="scale(0.015625)"/>
       </defs>
       <use xlink:href="#DejaVuSans-30"/>
      </g>
     </g>
    </g>
    <g id="xtick_2">
     <g id="line2d_2">
      <g>
       <use xlink:href="#mea877f27f4" x="120.904823" y="318.04" style="stroke: #000000; stroke-width: 0.8"/>
      </g>
     </g>
     <g id="text_2">
      <!-- 2 -->
      <g transform="translate(117.723573 332.638438) scale(0.1 -0.1)">
       <defs>
        <path id="DejaVuSans-32" d="M 1228 531 
L 3431 531 
L 3431 0 
L 469 0 
L 469 531 
Q 828 903 1448 1529 
Q 2069 2156 2228 2338 
Q 2531 2678 2651 2914 
Q 2772 3150 2772 3378 
Q 2772 3750 2511 3984 
Q 2250 4219 1831 4219 
Q 1534 4219 1204 4116 
Q 875 4013 500 3803 
L 500 4441 
Q 881 4594 1212 4672 
Q 1544 4750 1819 4750 
Q 2544 4750 2975 4387 
Q 3406 4025 3406 3419 
Q 3406 3131 3298 2873 
Q 3191 2616 2906 2266 
Q 2828 2175 2409 1742 
Q 1991 1309 1228 531 
z
" transform="scale(0.015625)"/>
       </defs>
       <use xlink:href="#DejaVuSans-32"/>
      </g>
     </g>
    </g>
    <g id="xtick_3">
     <g id="line2d_3">
      <g>
       <use xlink:href="#mea877f27f4" x="183.218965" y="318.04" style="stroke: #000000; stroke-width: 0.8"/>
      </g>
     </g>
     <g id="text_3">
      <!-- 4 -->
      <g transform="translate(180.037715 332.638438) scale(0.1 -0.1)">
       <defs>
        <path id="DejaVuSans-34" d="M 2419 4116 
L 825 1625 
L 2419 1625 
L 2419 4116 
z
M 2253 4666 
L 3047 4666 
L 3047 1625 
L 3713 1625 
L 3713 1100 
L 3047 1100 
L 3047 0 
L 2419 0 
L 2419 1100 
L 313 1100 
L 313 1709 
L 2253 4666 
z
" transform="scale(0.015625)"/>
       </defs>
       <use xlink:href="#DejaVuSans-34"/>
      </g>
     </g>
    </g>
    <g id="xtick_4">
     <g id="line2d_4">
      <g>
       <use xlink:href="#mea877f27f4" x="245.533106" y="318.04" style="stroke: #000000; stroke-width: 0.8"/>
      </g>
     </g>
     <g id="text_4">
      <!-- 6 -->
      <g transform="translate(242.351856 332.638438) scale(0.1 -0.1)">
       <defs>
        <path id="DejaVuSans-36" d="M 2113 2584 
Q 1688 2584 1439 2293 
Q 1191 2003 1191 1497 
Q 1191 994 1439 701 
Q 1688 409 2113 409 
Q 2538 409 2786 701 
Q 3034 994 3034 1497 
Q 3034 2003 2786 2293 
Q 2538 2584 2113 2584 
z
M 3366 4563 
L 3366 3988 
Q 3128 4100 2886 4159 
Q 2644 4219 2406 4219 
Q 1781 4219 1451 3797 
Q 1122 3375 1075 2522 
Q 1259 2794 1537 2939 
Q 1816 3084 2150 3084 
Q 2853 3084 3261 2657 
Q 3669 2231 3669 1497 
Q 3669 778 3244 343 
Q 2819 -91 2113 -91 
Q 1303 -91 875 529 
Q 447 1150 447 2328 
Q 447 3434 972 4092 
Q 1497 4750 2381 4750 
Q 2619 4750 2861 4703 
Q 3103 4656 3366 4563 
z
" transform="scale(0.015625)"/>
       </defs>
       <use xlink:href="#DejaVuSans-36"/>
      </g>
     </g>
    </g>
    <g id="xtick_5">
     <g id="line2d_5">
      <g>
       <use xlink:href="#mea877f27f4" x="307.847247" y="318.04" style="stroke: #000000; stroke-width: 0.8"/>
      </g>
     </g>
     <g id="text_5">
      <!-- 8 -->
      <g transform="translate(304.665997 332.638438) scale(0.1 -0.1)">
       <defs>
        <path id="DejaVuSans-38" d="M 2034 2216 
Q 1584 2216 1326 1975 
Q 1069 1734 1069 1313 
Q 1069 891 1326 650 
Q 1584 409 2034 409 
Q 2484 409 2743 651 
Q 3003 894 3003 1313 
Q 3003 1734 2745 1975 
Q 2488 2216 2034 2216 
z
M 1403 2484 
Q 997 2584 770 2862 
Q 544 3141 544 3541 
Q 544 4100 942 4425 
Q 1341 4750 2034 4750 
Q 2731 4750 3128 4425 
Q 3525 4100 3525 3541 
Q 3525 3141 3298 2862 
Q 3072 2584 2669 2484 
Q 3125 2378 3379 2068 
Q 3634 1759 3634 1313 
Q 3634 634 3220 271 
Q 2806 -91 2034 -91 
Q 1263 -91 848 271 
Q 434 634 434 1313 
Q 434 1759 690 2068 
Q 947 2378 1403 2484 
z
M 1172 3481 
Q 1172 3119 1398 2916 
Q 1625 2713 2034 2713 
Q 2441 2713 2670 2916 
Q 2900 3119 2900 3481 
Q 2900 3844 2670 4047 
Q 2441 4250 2034 4250 
Q 1625 4250 1398 4047 
Q 1172 3844 1172 3481 
z
" transform="scale(0.015625)"/>
       </defs>
       <use xlink:href="#DejaVuSans-38"/>
      </g>
     </g>
    </g>
    <g id="text_6">
     <!-- Time (s) -->
     <g transform="translate(178.468594 346.316563) scale(0.1 -0.1)">
      <defs>
       <path id="DejaVuSans-54" d="M -19 4666 
L 3928 4666 
L 3928 4134 
L 2272 4134 
L 2272 0 
L 1638 0 
L 1638 4134 
L -19 4134 
L -19 4666 
z
" transform="scale(0.015625)"/>
       <path id="DejaVuSans-69" d="M 603 3500 
L 1178 3500 
L 1178 0 
L 603 0 
L 603 3500 
z
M 603 4863 
L 1178 4863 
L 1178 4134 
L 603 4134 
L 603 4863 
z
" transform="scale(0.015625)"/>
       <path id="DejaVuSans-6d" d="M 3328 2828 
Q 3544 3216 3844 3400 
Q 4144 3584 4550 3584 
Q 5097 3584 5394 3201 
Q 5691 2819 5691 2113 
L 5691 0 
L 5113 0 
L 5113 2094 
Q 5113 2597 4934 2840 
Q 4756 3084 4391 3084 
Q 3944 3084 3684 2787 
Q 3425 2491 3425 1978 
L 3425 0 
L 2847 0 
L 2847 2094 
Q 2847 2600 2669 2842 
Q 2491 3084 2119 3084 
Q 1678 3084 1418 2786 
Q 1159 2488 1159 1978 
L 1159 0 
L 581 0 
L 581 3500 
L 1159 3500 
L 1159 2956 
Q 1356 3278 1631 3431 
Q 1906 3584 2284 3584 
Q 2666 3584 2933 3390 
Q 3200 3197 3328 2828 
z
" transform="scale(0.015625)"/>
       <path id="DejaVuSans-65" d="M 3597 1894 
L 3597 1613 
L 953 1613 
Q 991 1019 1311 708 
Q 1631 397 2203 397 
Q 2534 397 2845 478 
Q 3156 559 3463 722 
L 3463 178 
Q 3153 47 2828 -22 
Q 2503 -91 2169 -91 
Q 1331 -91 842 396 
Q 353 884 353 1716 
Q 353 2575 817 3079 
Q 1281 3584 2069 3584 
Q 2775 3584 3186 3129 
Q 3597 2675 3597 1894 
z
M 3022 2063 
Q 3016 2534 2758 2815 
Q 2500 3097 2075 3097 
Q 1594 3097 1305 2825 
Q 1016 2553 972 2059 
L 3022 2063 
z
" transform="scale(0.015625)"/>
       <path id="DejaVuSans-20" transform="scale(0.015625)"/>
       <path id="DejaVuSans-28" d="M 1984 4856 
Q 1566 4138 1362 3434 
Q 1159 2731 1159 2009 
Q 1159 1288 1364 580 
Q 1569 -128 1984 -844 
L 1484 -844 
Q 1016 -109 783 600 
Q 550 1309 550 2009 
Q 550 2706 781 3412 
Q 1013 4119 1484 4856 
L 1984 4856 
z
" transform="scale(0.015625)"/>
       <path id="DejaVuSans-73" d="M 2834 3397 
L 2834 2853 
Q 2591 2978 2328 3040 
Q 2066 3103 1784 3103 
Q 1356 3103 1142 2972 
Q 928 2841 928 2578 
Q 928 2378 1081 2264 
Q 1234 2150 1697 2047 
L 1894 2003 
Q 2506 1872 2764 1633 
Q 3022 1394 3022 966 
Q 3022 478 2636 193 
Q 2250 -91 1575 -91 
Q 1294 -91 989 -36 
Q 684 19 347 128 
L 347 722 
Q 666 556 975 473 
Q 1284 391 1588 391 
Q 1994 391 2212 530 
Q 2431 669 2431 922 
Q 2431 1156 2273 1281 
Q 2116 1406 1581 1522 
L 1381 1569 
Q 847 1681 609 1914 
Q 372 2147 372 2553 
Q 372 3047 722 3315 
Q 1072 3584 1716 3584 
Q 2034 3584 2315 3537 
Q 2597 3491 2834 3397 
z
" transform="scale(0.015625)"/>
       <path id="DejaVuSans-29" d="M 513 4856 
L 1013 4856 
Q 1481 4119 1714 3412 
Q 1947 2706 1947 2009 
Q 1947 1309 1714 600 
Q 1481 -109 1013 -844 
L 513 -844 
Q 928 -128 1133 580 
Q 1338 1288 1338 2009 
Q 1338 2731 1133 3434 
Q 928 4138 513 4856 
z
" transform="scale(0.015625)"/>
      </defs>
      <use xlink:href="#DejaVuSans-54"/>
      <use xlink:href="#DejaVuSans-69" transform="translate(57.958984 0)"/>
      <use xlink:href="#DejaVuSans-6d" transform="translate(85.742188 0)"/>
      <use xlink:href="#DejaVuSans-65" transform="translate(183.154297 0)"/>
      <use xlink:href="#DejaVuSans-20" transform="translate(244.677734 0)"/>
      <use xlink:href="#DejaVuSans-28" transform="translate(276.464844 0)"/>
      <use xlink:href="#DejaVuSans-73" transform="translate(315.478516 0)"/>
      <use xlink:href="#DejaVuSans-29" transform="translate(367.578125 0)"/>
     </g>
    </g>
   </g>
   <g id="matplotlib.axis_2">
    <g id="ytick_1">
     <g id="line2d_6">
      <defs>
       <path id="m420c4e8925" d="M 0 0 
L -3.5 0 
" style="stroke: #000000; stroke-width: 0.8"/>
      </defs>
      <g>
       <use xlink:href="#m420c4e8925" x="44.57" y="304.805455" style="stroke: #000000; stroke-width: 0.8"/>
      </g>
     </g>
     <g id="text_7">
      <!-- 0 -->
      <g transform="translate(31.2075 308.604673) scale(0.1 -0.1)">
       <use xlink:href="#DejaVuSans-30"/>
      </g>
     </g>
    </g>
    <g id="ytick_2">
     <g id="line2d_7">
      <g>
       <use xlink:href="#m420c4e8925" x="44.57" y="261.413502" style="stroke: #000000; stroke-width: 0.8"/>
      </g>
     </g>
     <g id="text_8">
      <!-- 5 -->
      <g transform="translate(31.2075 265.212721) scale(0.1 -0.1)">
       <defs>
        <path id="DejaVuSans-35" d="M 691 4666 
L 3169 4666 
L 3169 4134 
L 1269 4134 
L 1269 2991 
Q 1406 3038 1543 3061 
Q 1681 3084 1819 3084 
Q 2600 3084 3056 2656 
Q 3513 2228 3513 1497 
Q 3513 744 3044 326 
Q 2575 -91 1722 -91 
Q 1428 -91 1123 -41 
Q 819 9 494 109 
L 494 744 
Q 775 591 1075 516 
Q 1375 441 1709 441 
Q 2250 441 2565 725 
Q 2881 1009 2881 1497 
Q 2881 1984 2565 2268 
Q 2250 2553 1709 2553 
Q 1456 2553 1204 2497 
Q 953 2441 691 2322 
L 691 4666 
z
" transform="scale(0.015625)"/>
       </defs>
       <use xlink:href="#DejaVuSans-35"/>
      </g>
     </g>
    </g>
    <g id="ytick_3">
     <g id="line2d_8">
      <g>
       <use xlink:href="#m420c4e8925" x="44.57" y="218.02155" style="stroke: #000000; stroke-width: 0.8"/>
      </g>
     </g>
     <g id="text_9">
      <!-- 10 -->
      <g transform="translate(24.845 221.820769) scale(0.1 -0.1)">
       <defs>
        <path id="DejaVuSans-31" d="M 794 531 
L 1825 531 
L 1825 4091 
L 703 3866 
L 703 4441 
L 1819 4666 
L 2450 4666 
L 2450 531 
L 3481 531 
L 3481 0 
L 794 0 
L 794 531 
z
" transform="scale(0.015625)"/>
       </defs>
       <use xlink:href="#DejaVuSans-31"/>
       <use xlink:href="#DejaVuSans-30" transform="translate(63.623047 0)"/>
      </g>
     </g>
    </g>
    <g id="ytick_4">
     <g id="line2d_9">
      <g>
       <use xlink:href="#m420c4e8925" x="44.57" y="174.629598" style="stroke: #000000; stroke-width: 0.8"/>
      </g>
     </g>
     <g id="text_10">
      <!-- 15 -->
      <g transform="translate(24.845 178.428816) scale(0.1 -0.1)">
       <use xlink:href="#DejaVuSans-31"/>
       <use xlink:href="#DejaVuSans-35" transform="translate(63.623047 0)"/>
      </g>
     </g>
    </g>
    <g id="ytick_5">
     <g id="line2d_10">
      <g>
       <use xlink:href="#m420c4e8925" x="44.57" y="131.237645" style="stroke: #000000; stroke-width: 0.8"/>
      </g>
     </g>
     <g id="text_11">
      <!-- 20 -->
      <g transform="translate(24.845 135.036864) scale(0.1 -0.1)">
       <use xlink:href="#DejaVuSans-32"/>
       <use xlink:href="#DejaVuSans-30" transform="translate(63.623047 0)"/>
      </g>
     </g>
    </g>
    <g id="ytick_6">
     <g id="line2d_11">
      <g>
       <use xlink:href="#m420c4e8925" x="44.57" y="87.845693" style="stroke: #000000; stroke-width: 0.8"/>
      </g>
     </g>
     <g id="text_12">
      <!-- 25 -->
      <g transform="translate(24.845 91.644912) scale(0.1 -0.1)">
       <use xlink:href="#DejaVuSans-32"/>
       <use xlink:href="#DejaVuSans-35" transform="translate(63.623047 0)"/>
      </g>
     </g>
    </g>
    <g id="ytick_7">
     <g id="line2d_12">
      <g>
       <use xlink:href="#m420c4e8925" x="44.57" y="44.453741" style="stroke: #000000; stroke-width: 0.8"/>
      </g>
     </g>
     <g id="text_13">
      <!-- 30 -->
      <g transform="translate(24.845 48.252959) scale(0.1 -0.1)">
       <defs>
        <path id="DejaVuSans-33" d="M 2597 2516 
Q 3050 2419 3304 2112 
Q 3559 1806 3559 1356 
Q 3559 666 3084 287 
Q 2609 -91 1734 -91 
Q 1441 -91 1130 -33 
Q 819 25 488 141 
L 488 750 
Q 750 597 1062 519 
Q 1375 441 1716 441 
Q 2309 441 2620 675 
Q 2931 909 2931 1356 
Q 2931 1769 2642 2001 
Q 2353 2234 1838 2234 
L 1294 2234 
L 1294 2753 
L 1863 2753 
Q 2328 2753 2575 2939 
Q 2822 3125 2822 3475 
Q 2822 3834 2567 4026 
Q 2313 4219 1838 4219 
Q 1578 4219 1281 4162 
Q 984 4106 628 3988 
L 628 4550 
Q 988 4650 1302 4700 
Q 1616 4750 1894 4750 
Q 2613 4750 3031 4423 
Q 3450 4097 3450 3541 
Q 3450 3153 3228 2886 
Q 3006 2619 2597 2516 
z
" transform="scale(0.015625)"/>
       </defs>
       <use xlink:href="#DejaVuSans-33"/>
       <use xlink:href="#DejaVuSans-30" transform="translate(63.623047 0)"/>
      </g>
     </g>
    </g>
    <g id="text_14">
     <!-- Signal -->
     <g transform="translate(18.765312 187.819375) rotate(-90) scale(0.1 -0.1)">
      <defs>
       <path id="DejaVuSans-53" d="M 3425 4513 
L 3425 3897 
Q 3066 4069 2747 4153 
Q 2428 4238 2131 4238 
Q 1616 4238 1336 4038 
Q 1056 3838 1056 3469 
Q 1056 3159 1242 3001 
Q 1428 2844 1947 2747 
L 2328 2669 
Q 3034 2534 3370 2195 
Q 3706 1856 3706 1288 
Q 3706 609 3251 259 
Q 2797 -91 1919 -91 
Q 1588 -91 1214 -16 
Q 841 59 441 206 
L 441 856 
Q 825 641 1194 531 
Q 1563 422 1919 422 
Q 2459 422 2753 634 
Q 3047 847 3047 1241 
Q 3047 1584 2836 1778 
Q 2625 1972 2144 2069 
L 1759 2144 
Q 1053 2284 737 2584 
Q 422 2884 422 3419 
Q 422 4038 858 4394 
Q 1294 4750 2059 4750 
Q 2388 4750 2728 4690 
Q 3069 4631 3425 4513 
z
" transform="scale(0.015625)"/>
       <path id="DejaVuSans-67" d="M 2906 1791 
Q 2906 2416 2648 2759 
Q 2391 3103 1925 3103 
Q 1463 3103 1205 2759 
Q 947 2416 947 1791 
Q 947 1169 1205 825 
Q 1463 481 1925 481 
Q 2391 481 2648 825 
Q 2906 1169 2906 1791 
z
M 3481 434 
Q 3481 -459 3084 -895 
Q 2688 -1331 1869 -1331 
Q 1566 -1331 1297 -1286 
Q 1028 -1241 775 -1147 
L 775 -588 
Q 1028 -725 1275 -790 
Q 1522 -856 1778 -856 
Q 2344 -856 2625 -561 
Q 2906 -266 2906 331 
L 2906 616 
Q 2728 306 2450 153 
Q 2172 0 1784 0 
Q 1141 0 747 490 
Q 353 981 353 1791 
Q 353 2603 747 3093 
Q 1141 3584 1784 3584 
Q 2172 3584 2450 3431 
Q 2728 3278 2906 2969 
L 2906 3500 
L 3481 3500 
L 3481 434 
z
" transform="scale(0.015625)"/>
       <path id="DejaVuSans-6e" d="M 3513 2113 
L 3513 0 
L 2938 0 
L 2938 2094 
Q 2938 2591 2744 2837 
Q 2550 3084 2163 3084 
Q 1697 3084 1428 2787 
Q 1159 2491 1159 1978 
L 1159 0 
L 581 0 
L 581 3500 
L 1159 3500 
L 1159 2956 
Q 1366 3272 1645 3428 
Q 1925 3584 2291 3584 
Q 2894 3584 3203 3211 
Q 3513 2838 3513 2113 
z
" transform="scale(0.015625)"/>
       <path id="DejaVuSans-61" d="M 2194 1759 
Q 1497 1759 1228 1600 
Q 959 1441 959 1056 
Q 959 750 1161 570 
Q 1363 391 1709 391 
Q 2188 391 2477 730 
Q 2766 1069 2766 1631 
L 2766 1759 
L 2194 1759 
z
M 3341 1997 
L 3341 0 
L 2766 0 
L 2766 531 
Q 2569 213 2275 61 
Q 1981 -91 1556 -91 
Q 1019 -91 701 211 
Q 384 513 384 1019 
Q 384 1609 779 1909 
Q 1175 2209 1959 2209 
L 2766 2209 
L 2766 2266 
Q 2766 2663 2505 2880 
Q 2244 3097 1772 3097 
Q 1472 3097 1187 3025 
Q 903 2953 641 2809 
L 641 3341 
Q 956 3463 1253 3523 
Q 1550 3584 1831 3584 
Q 2591 3584 2966 3190 
Q 3341 2797 3341 1997 
z
" transform="scale(0.015625)"/>
       <path id="DejaVuSans-6c" d="M 603 4863 
L 1178 4863 
L 1178 0 
L 603 0 
L 603 4863 
z
" transform="scale(0.015625)"/>
      </defs>
      <use xlink:href="#DejaVuSans-53"/>
      <use xlink:href="#DejaVuSans-69" transform="translate(63.476562 0)"/>
      <use xlink:href="#DejaVuSans-67" transform="translate(91.259766 0)"/>
      <use xlink:href="#DejaVuSans-6e" transform="translate(154.736328 0)"/>
      <use xlink:href="#DejaVuSans-61" transform="translate(218.115234 0)"/>
      <use xlink:href="#DejaVuSans-6c" transform="translate(279.394531 0)"/>
     </g>
    </g>
   </g>
   <g id="line2d_13">
    <path d="M 58.590682 291.787869 
L 58.871376 300.466259 
L 59.432765 300.466259 
L 59.713459 304.805455 
L 60.836236 304.805455 
L 61.116931 296.127064 
L 61.397625 304.805455 
L 61.959014 304.805455 
L 62.239708 300.466259 
L 62.520402 304.805455 
L 62.801097 304.805455 
L 63.081791 300.466259 
L 63.362485 300.466259 
L 63.64318 304.805455 
L 64.485263 304.805455 
L 64.765957 296.127064 
L 65.046651 304.805455 
L 65.327346 300.466259 
L 65.60804 304.805455 
L 66.730817 304.805455 
L 67.011512 300.466259 
L 67.292206 304.805455 
L 69.257066 304.805455 
L 69.537761 300.466259 
L 69.818455 304.805455 
L 71.502621 304.805455 
L 71.783315 300.466259 
L 72.06401 300.466259 
L 72.344704 304.805455 
L 72.906093 304.805455 
L 73.186787 300.466259 
L 73.748176 300.466259 
L 74.02887 304.805455 
L 74.309564 300.466259 
L 74.590259 300.466259 
L 74.870953 304.805455 
L 75.432342 304.805455 
L 75.713036 300.466259 
L 75.99373 304.805455 
L 76.835813 304.805455 
L 77.116508 300.466259 
L 77.397202 304.805455 
L 77.677896 304.805455 
L 77.958591 300.466259 
L 78.239285 304.805455 
L 90.87053 304.805455 
L 91.151224 300.466259 
L 91.431919 304.805455 
L 92.554696 304.805455 
L 92.83539 300.466259 
L 93.116084 304.805455 
L 93.396779 300.466259 
L 93.677473 304.805455 
L 94.238862 304.805455 
L 94.519556 300.466259 
L 94.80025 300.466259 
L 95.080945 304.805455 
L 103.22108 304.805455 
L 103.501775 300.466259 
L 103.782469 300.466259 
L 104.063163 304.805455 
L 104.343858 304.805455 
L 104.624552 300.466259 
L 104.905246 304.805455 
L 106.870107 304.805455 
L 107.150801 300.466259 
L 107.431495 304.805455 
L 109.396356 304.805455 
L 109.67705 296.127064 
L 109.957744 304.805455 
L 111.361216 304.805455 
L 111.64191 300.466259 
L 111.922605 304.805455 
L 113.326076 304.805455 
L 113.606771 300.466259 
L 113.887465 304.805455 
L 115.290937 304.805455 
L 115.571631 300.466259 
L 115.852325 304.805455 
L 126.238016 304.805455 
L 126.51871 300.466259 
L 126.799404 304.805455 
L 127.080099 304.805455 
L 127.360793 300.466259 
L 127.641487 304.805455 
L 127.922181 304.805455 
L 128.202876 300.466259 
L 128.48357 304.805455 
L 129.887042 304.805455 
L 130.167736 300.466259 
L 130.44843 304.805455 
L 130.729125 300.466259 
L 131.009819 304.805455 
L 137.465789 304.805455 
L 137.746483 300.466259 
L 138.027177 304.805455 
L 149.254951 304.805455 
L 149.535645 300.466259 
L 149.816339 304.805455 
L 155.430226 304.805455 
L 155.71092 300.466259 
L 155.991615 304.805455 
L 156.272309 300.466259 
L 156.553003 304.805455 
L 168.622859 304.805455 
L 168.903554 300.466259 
L 169.184248 304.805455 
L 171.991191 304.805455 
L 172.271886 300.466259 
L 172.55258 304.805455 
L 186.587297 304.805455 
L 186.867991 300.466259 
L 187.148685 304.805455 
L 194.166044 304.805455 
L 194.446738 300.466259 
L 194.727432 304.805455 
L 200.902707 304.805455 
L 201.183402 300.466259 
L 201.464096 300.466259 
L 201.74479 304.805455 
L 203.990345 304.805455 
L 204.271039 300.466259 
L 204.551734 304.805455 
L 211.569092 304.805455 
L 211.849786 300.466259 
L 212.130481 304.805455 
L 218.305756 304.805455 
L 218.58645 300.466259 
L 218.867145 304.805455 
L 219.428533 304.805455 
L 219.709228 300.466259 
L 219.989922 300.466259 
L 220.270616 304.805455 
L 271.356984 304.805455 
L 271.637679 300.466259 
L 271.918373 304.805455 
L 308.970025 304.805455 
L 309.250719 300.466259 
L 309.531413 304.805455 
L 339.004318 304.805455 
L 339.004318 304.805455 
" clip-path="url(#p1e0ae50d44)" style="fill: none; stroke-dasharray: 1.85,0.8; stroke-dashoffset: 0; stroke: #8000ff; stroke-width: 0.5"/>
   </g>
   <g id="line2d_14">
    <path d="M 58.590682 157.272817 
L 58.871376 270.091893 
L 59.15207 296.127064 
L 59.432765 296.127064 
L 59.713459 287.448674 
L 59.994153 296.127064 
L 60.274848 296.127064 
L 60.555542 291.787869 
L 61.116931 300.466259 
L 61.397625 296.127064 
L 61.959014 304.805455 
L 62.239708 304.805455 
L 62.520402 300.466259 
L 62.801097 300.466259 
L 63.081791 304.805455 
L 63.64318 304.805455 
L 63.923874 300.466259 
L 64.204568 304.805455 
L 64.485263 300.466259 
L 64.765957 304.805455 
L 65.046651 304.805455 
L 65.327346 300.466259 
L 65.888734 300.466259 
L 66.169429 304.805455 
L 66.450123 300.466259 
L 66.730817 304.805455 
L 72.906093 304.805455 
L 73.186787 296.127064 
L 73.467481 304.805455 
L 74.02887 304.805455 
L 74.309564 300.466259 
L 74.590259 304.805455 
L 75.151647 304.805455 
L 75.432342 300.466259 
L 75.713036 304.805455 
L 76.274425 304.805455 
L 76.555119 300.466259 
L 76.835813 300.466259 
L 77.116508 304.805455 
L 77.397202 300.466259 
L 77.677896 304.805455 
L 79.642757 304.805455 
L 79.923451 300.466259 
L 80.204145 300.466259 
L 80.48484 304.805455 
L 83.291783 304.805455 
L 83.572477 300.466259 
L 83.853172 300.466259 
L 84.133866 304.805455 
L 89.186364 304.805455 
L 89.467058 300.466259 
L 89.747753 304.805455 
L 90.028447 300.466259 
L 90.309141 304.805455 
L 92.83539 304.805455 
L 93.116084 300.466259 
L 93.396779 304.805455 
L 97.887888 304.805455 
L 98.168582 300.466259 
L 98.449277 304.805455 
L 106.589412 304.805455 
L 106.870107 300.466259 
L 107.150801 304.805455 
L 115.010242 304.805455 
L 115.290937 300.466259 
L 115.571631 304.805455 
L 121.185518 304.805455 
L 121.466212 300.466259 
L 121.746906 304.805455 
L 133.536068 304.805455 
L 133.816762 300.466259 
L 134.097457 304.805455 
L 145.044536 304.805455 
L 145.32523 300.466259 
L 145.605924 304.805455 
L 154.026754 304.805455 
L 154.307449 300.466259 
L 154.588143 304.805455 
L 156.272309 304.805455 
L 156.553003 300.466259 
L 156.833698 304.805455 
L 158.798558 304.805455 
L 159.079252 300.466259 
L 159.359947 304.805455 
L 167.219388 304.805455 
L 167.500082 300.466259 
L 167.780776 304.805455 
L 168.622859 304.805455 
L 168.903554 300.466259 
L 169.184248 304.805455 
L 173.394663 304.805455 
L 173.675357 300.466259 
L 173.956052 304.805455 
L 177.043689 304.805455 
L 177.324384 300.466259 
L 177.605078 304.805455 
L 193.043266 304.805455 
L 193.323961 300.466259 
L 193.604655 304.805455 
L 198.376459 304.805455 
L 198.657153 300.466259 
L 198.937847 304.805455 
L 248.620744 304.805455 
L 248.901438 300.466259 
L 249.182132 304.805455 
L 284.268924 304.805455 
L 284.549618 300.466259 
L 284.830312 300.466259 
L 285.111007 304.805455 
L 298.584335 304.805455 
L 298.865029 300.466259 
L 299.145723 304.805455 
L 332.267654 304.805455 
L 332.548349 300.466259 
L 332.829043 304.805455 
L 339.004318 304.805455 
L 339.004318 304.805455 
" clip-path="url(#p1e0ae50d44)" style="fill: none; stroke-dasharray: 1.85,0.8; stroke-dashoffset: 0; stroke: #80ffb4; stroke-width: 0.5"/>
   </g>
   <g id="line2d_15">
    <path d="M 58.590682 40.114545 
L 58.871376 278.770283 
L 59.15207 300.466259 
L 59.432765 296.127064 
L 59.713459 283.109478 
L 59.994153 296.127064 
L 60.274848 287.448674 
L 60.555542 296.127064 
L 60.836236 291.787869 
L 61.116931 296.127064 
L 61.397625 304.805455 
L 61.678319 291.787869 
L 61.959014 291.787869 
L 62.239708 304.805455 
L 62.801097 296.127064 
L 63.081791 304.805455 
L 63.362485 300.466259 
L 63.923874 300.466259 
L 64.204568 304.805455 
L 65.888734 304.805455 
L 66.169429 300.466259 
L 66.450123 300.466259 
L 66.730817 304.805455 
L 67.011512 300.466259 
L 67.292206 304.805455 
L 68.134289 304.805455 
L 68.414983 300.466259 
L 68.695678 300.466259 
L 68.976372 304.805455 
L 70.379844 304.805455 
L 70.660538 300.466259 
L 70.941232 304.805455 
L 73.467481 304.805455 
L 73.748176 300.466259 
L 74.02887 304.805455 
L 74.870953 304.805455 
L 75.151647 300.466259 
L 75.432342 304.805455 
L 81.607617 304.805455 
L 81.888311 300.466259 
L 82.169006 304.805455 
L 83.291783 304.805455 
L 83.572477 300.466259 
L 83.853172 304.805455 
L 84.695255 304.805455 
L 84.975949 300.466259 
L 85.256643 304.805455 
L 97.887888 304.805455 
L 98.168582 300.466259 
L 98.449277 304.805455 
L 100.694831 304.805455 
L 100.975526 300.466259 
L 101.25622 300.466259 
L 101.536914 304.805455 
L 103.782469 304.805455 
L 104.063163 300.466259 
L 104.624552 300.466259 
L 104.905246 304.805455 
L 108.554273 304.805455 
L 108.834967 300.466259 
L 109.115661 304.805455 
L 115.290937 304.805455 
L 115.571631 300.466259 
L 115.852325 304.805455 
L 117.817186 304.805455 
L 118.09788 300.466259 
L 118.378574 304.805455 
L 134.658845 304.805455 
L 134.93954 300.466259 
L 135.220234 304.805455 
L 150.658422 304.805455 
L 150.939117 300.466259 
L 151.219811 300.466259 
L 151.500505 304.805455 
L 163.008973 304.805455 
L 163.289667 300.466259 
L 163.570361 304.805455 
L 168.903554 304.805455 
L 169.184248 300.466259 
L 169.464942 304.805455 
L 170.026331 304.805455 
L 170.307025 300.466259 
L 170.58772 300.466259 
L 170.868414 304.805455 
L 174.236746 304.805455 
L 174.51744 296.127064 
L 174.798135 304.805455 
L 190.236323 304.805455 
L 190.517017 300.466259 
L 190.797712 304.805455 
L 205.393817 304.805455 
L 205.674511 300.466259 
L 205.955205 304.805455 
L 217.744367 304.805455 
L 218.025062 300.466259 
L 218.305756 304.805455 
L 225.04242 304.805455 
L 225.323114 300.466259 
L 225.603809 304.805455 
L 244.129634 304.805455 
L 244.410329 300.466259 
L 244.691023 304.805455 
L 262.936155 304.805455 
L 263.216849 300.466259 
L 263.497543 304.805455 
L 282.865452 304.805455 
L 283.146146 300.466259 
L 283.426841 304.805455 
L 326.373073 304.805455 
L 326.653768 300.466259 
L 326.934462 304.805455 
L 339.004318 304.805455 
L 339.004318 304.805455 
" clip-path="url(#p1e0ae50d44)" style="fill: none; stroke-dasharray: 1.85,0.8; stroke-dashoffset: 0; stroke: #ff0000; stroke-width: 0.5"/>
   </g>
   <g id="patch_3">
    <path d="M 44.57 318.04 
L 44.57 26.88 
" style="fill: none; stroke: #000000; stroke-width: 0.8; stroke-linejoin: miter; stroke-linecap: square"/>
   </g>
   <g id="patch_4">
    <path d="M 353.025 318.04 
L 353.025 26.88 
" style="fill: none; stroke: #000000; stroke-width: 0.8; stroke-linejoin: miter; stroke-linecap: square"/>
   </g>
   <g id="patch_5">
    <path d="M 44.57 318.04 
L 353.025 318.04 
" style="fill: none; stroke: #000000; stroke-width: 0.8; stroke-linejoin: miter; stroke-linecap: square"/>
   </g>
   <g id="patch_6">
    <path d="M 44.57 26.88 
L 353.025 26.88 
" style="fill: none; stroke: #000000; stroke-width: 0.8; stroke-linejoin: miter; stroke-linecap: square"/>
   </g>
   <g id="text_15">
    <!-- Unnormalized -->
    <g transform="translate(157.263437 20.88) scale(0.12 -0.12)">
     <defs>
      <path id="DejaVuSans-55" d="M 556 4666 
L 1191 4666 
L 1191 1831 
Q 1191 1081 1462 751 
Q 1734 422 2344 422 
Q 2950 422 3222 751 
Q 3494 1081 3494 1831 
L 3494 4666 
L 4128 4666 
L 4128 1753 
Q 4128 841 3676 375 
Q 3225 -91 2344 -91 
Q 1459 -91 1007 375 
Q 556 841 556 1753 
L 556 4666 
z
" transform="scale(0.015625)"/>
      <path id="DejaVuSans-6f" d="M 1959 3097 
Q 1497 3097 1228 2736 
Q 959 2375 959 1747 
Q 959 1119 1226 758 
Q 1494 397 1959 397 
Q 2419 397 2687 759 
Q 2956 1122 2956 1747 
Q 2956 2369 2687 2733 
Q 2419 3097 1959 3097 
z
M 1959 3584 
Q 2709 3584 3137 3096 
Q 3566 2609 3566 1747 
Q 3566 888 3137 398 
Q 2709 -91 1959 -91 
Q 1206 -91 779 398 
Q 353 888 353 1747 
Q 353 2609 779 3096 
Q 1206 3584 1959 3584 
z
" transform="scale(0.015625)"/>
      <path id="DejaVuSans-72" d="M 2631 2963 
Q 2534 3019 2420 3045 
Q 2306 3072 2169 3072 
Q 1681 3072 1420 2755 
Q 1159 2438 1159 1844 
L 1159 0 
L 581 0 
L 581 3500 
L 1159 3500 
L 1159 2956 
Q 1341 3275 1631 3429 
Q 1922 3584 2338 3584 
Q 2397 3584 2469 3576 
Q 2541 3569 2628 3553 
L 2631 2963 
z
" transform="scale(0.015625)"/>
      <path id="DejaVuSans-7a" d="M 353 3500 
L 3084 3500 
L 3084 2975 
L 922 459 
L 3084 459 
L 3084 0 
L 275 0 
L 275 525 
L 2438 3041 
L 353 3041 
L 353 3500 
z
" transform="scale(0.015625)"/>
      <path id="DejaVuSans-64" d="M 2906 2969 
L 2906 4863 
L 3481 4863 
L 3481 0 
L 2906 0 
L 2906 525 
Q 2725 213 2448 61 
Q 2172 -91 1784 -91 
Q 1150 -91 751 415 
Q 353 922 353 1747 
Q 353 2572 751 3078 
Q 1150 3584 1784 3584 
Q 2172 3584 2448 3432 
Q 2725 3281 2906 2969 
z
M 947 1747 
Q 947 1113 1208 752 
Q 1469 391 1925 391 
Q 2381 391 2643 752 
Q 2906 1113 2906 1747 
Q 2906 2381 2643 2742 
Q 2381 3103 1925 3103 
Q 1469 3103 1208 2742 
Q 947 2381 947 1747 
z
" transform="scale(0.015625)"/>
     </defs>
     <use xlink:href="#DejaVuSans-55"/>
     <use xlink:href="#DejaVuSans-6e" transform="translate(73.193359 0)"/>
     <use xlink:href="#DejaVuSans-6e" transform="translate(136.572266 0)"/>
     <use xlink:href="#DejaVuSans-6f" transform="translate(199.951172 0)"/>
     <use xlink:href="#DejaVuSans-72" transform="translate(261.132812 0)"/>
     <use xlink:href="#DejaVuSans-6d" transform="translate(300.496094 0)"/>
     <use xlink:href="#DejaVuSans-61" transform="translate(397.908203 0)"/>
     <use xlink:href="#DejaVuSans-6c" transform="translate(459.1875 0)"/>
     <use xlink:href="#DejaVuSans-69" transform="translate(486.970703 0)"/>
     <use xlink:href="#DejaVuSans-7a" transform="translate(514.753906 0)"/>
     <use xlink:href="#DejaVuSans-65" transform="translate(567.244141 0)"/>
     <use xlink:href="#DejaVuSans-64" transform="translate(628.767578 0)"/>
    </g>
   </g>
   <g id="legend_1">
    <g id="patch_7">
     <path d="M 242.325 78.975312 
L 346.025 78.975312 
Q 348.025 78.975312 348.025 76.975312 
L 348.025 33.88 
Q 348.025 31.88 346.025 31.88 
L 242.325 31.88 
Q 240.325 31.88 240.325 33.88 
L 240.325 76.975312 
Q 240.325 78.975312 242.325 78.975312 
z
" style="fill: #ffffff; opacity: 0.8; stroke: #cccccc; stroke-linejoin: miter"/>
    </g>
    <g id="line2d_16">
     <path d="M 244.325 39.978437 
L 254.325 39.978437 
L 264.325 39.978437 
" style="fill: none; stroke-dasharray: 1.85,0.8; stroke-dashoffset: 0; stroke: #8000ff; stroke-width: 0.5"/>
    </g>
    <g id="text_16">
     <!-- Temp: 400 $^\circ$C -->
     <g transform="translate(272.325 43.478437) scale(0.1 -0.1)">
      <defs>
       <path id="DejaVuSans-70" d="M 1159 525 
L 1159 -1331 
L 581 -1331 
L 581 3500 
L 1159 3500 
L 1159 2969 
Q 1341 3281 1617 3432 
Q 1894 3584 2278 3584 
Q 2916 3584 3314 3078 
Q 3713 2572 3713 1747 
Q 3713 922 3314 415 
Q 2916 -91 2278 -91 
Q 1894 -91 1617 61 
Q 1341 213 1159 525 
z
M 3116 1747 
Q 3116 2381 2855 2742 
Q 2594 3103 2138 3103 
Q 1681 3103 1420 2742 
Q 1159 2381 1159 1747 
Q 1159 1113 1420 752 
Q 1681 391 2138 391 
Q 2594 391 2855 752 
Q 3116 1113 3116 1747 
z
" transform="scale(0.015625)"/>
       <path id="DejaVuSans-3a" d="M 750 794 
L 1409 794 
L 1409 0 
L 750 0 
L 750 794 
z
M 750 3309 
L 1409 3309 
L 1409 2516 
L 750 2516 
L 750 3309 
z
" transform="scale(0.015625)"/>
       <path id="DejaVuSans-2218" d="M 2000 2619 
Q 1750 2619 1578 2445 
Q 1406 2272 1406 2022 
Q 1406 1775 1578 1605 
Q 1750 1435 2000 1435 
Q 2250 1435 2422 1605 
Q 2594 1775 2594 2022 
Q 2594 2269 2420 2444 
Q 2247 2619 2000 2619 
z
M 2000 3022 
Q 2200 3022 2384 2945 
Q 2569 2869 2703 2725 
Q 2847 2585 2919 2406 
Q 2991 2228 2991 2022 
Q 2991 1610 2702 1324 
Q 2413 1038 1994 1038 
Q 1572 1038 1290 1319 
Q 1009 1600 1009 2022 
Q 1009 2441 1296 2731 
Q 1584 3022 2000 3022 
z
" transform="scale(0.015625)"/>
       <path id="DejaVuSans-43" d="M 4122 4306 
L 4122 3641 
Q 3803 3938 3442 4084 
Q 3081 4231 2675 4231 
Q 1875 4231 1450 3742 
Q 1025 3253 1025 2328 
Q 1025 1406 1450 917 
Q 1875 428 2675 428 
Q 3081 428 3442 575 
Q 3803 722 4122 1019 
L 4122 359 
Q 3791 134 3420 21 
Q 3050 -91 2638 -91 
Q 1578 -91 968 557 
Q 359 1206 359 2328 
Q 359 3453 968 4101 
Q 1578 4750 2638 4750 
Q 3056 4750 3426 4639 
Q 3797 4528 4122 4306 
z
" transform="scale(0.015625)"/>
      </defs>
      <use xlink:href="#DejaVuSans-54" transform="translate(0 0.78125)"/>
      <use xlink:href="#DejaVuSans-65" transform="translate(61.083984 0.78125)"/>
      <use xlink:href="#DejaVuSans-6d" transform="translate(122.607422 0.78125)"/>
      <use xlink:href="#DejaVuSans-70" transform="translate(220.019531 0.78125)"/>
      <use xlink:href="#DejaVuSans-3a" transform="translate(283.496094 0.78125)"/>
      <use xlink:href="#DejaVuSans-20" transform="translate(317.1875 0.78125)"/>
      <use xlink:href="#DejaVuSans-34" transform="translate(348.974609 0.78125)"/>
      <use xlink:href="#DejaVuSans-30" transform="translate(412.597656 0.78125)"/>
      <use xlink:href="#DejaVuSans-30" transform="translate(476.220703 0.78125)"/>
      <use xlink:href="#DejaVuSans-20" transform="translate(539.84375 0.78125)"/>
      <use xlink:href="#DejaVuSans-2218" transform="translate(586.225586 39.0625) scale(0.7)"/>
      <use xlink:href="#DejaVuSans-43" transform="translate(646.416016 0.78125)"/>
     </g>
    </g>
    <g id="line2d_17">
     <path d="M 244.325 54.676875 
L 254.325 54.676875 
L 264.325 54.676875 
" style="fill: none; stroke-dasharray: 1.85,0.8; stroke-dashoffset: 0; stroke: #80ffb4; stroke-width: 0.5"/>
    </g>
    <g id="text_17">
     <!-- Temp: 600 $^\circ$C -->
     <g transform="translate(272.325 58.176875) scale(0.1 -0.1)">
      <use xlink:href="#DejaVuSans-54" transform="translate(0 0.78125)"/>
      <use xlink:href="#DejaVuSans-65" transform="translate(61.083984 0.78125)"/>
      <use xlink:href="#DejaVuSans-6d" transform="translate(122.607422 0.78125)"/>
      <use xlink:href="#DejaVuSans-70" transform="translate(220.019531 0.78125)"/>
      <use xlink:href="#DejaVuSans-3a" transform="translate(283.496094 0.78125)"/>
      <use xlink:href="#DejaVuSans-20" transform="translate(317.1875 0.78125)"/>
      <use xlink:href="#DejaVuSans-36" transform="translate(348.974609 0.78125)"/>
      <use xlink:href="#DejaVuSans-30" transform="translate(412.597656 0.78125)"/>
      <use xlink:href="#DejaVuSans-30" transform="translate(476.220703 0.78125)"/>
      <use xlink:href="#DejaVuSans-20" transform="translate(539.84375 0.78125)"/>
      <use xlink:href="#DejaVuSans-2218" transform="translate(586.225586 39.0625) scale(0.7)"/>
      <use xlink:href="#DejaVuSans-43" transform="translate(646.416016 0.78125)"/>
     </g>
    </g>
    <g id="line2d_18">
     <path d="M 244.325 69.375313 
L 254.325 69.375313 
L 264.325 69.375313 
" style="fill: none; stroke-dasharray: 1.85,0.8; stroke-dashoffset: 0; stroke: #ff0000; stroke-width: 0.5"/>
    </g>
    <g id="text_18">
     <!-- Temp: 800 $^\circ$C -->
     <g transform="translate(272.325 72.875313) scale(0.1 -0.1)">
      <use xlink:href="#DejaVuSans-54" transform="translate(0 0.78125)"/>
      <use xlink:href="#DejaVuSans-65" transform="translate(61.083984 0.78125)"/>
      <use xlink:href="#DejaVuSans-6d" transform="translate(122.607422 0.78125)"/>
      <use xlink:href="#DejaVuSans-70" transform="translate(220.019531 0.78125)"/>
      <use xlink:href="#DejaVuSans-3a" transform="translate(283.496094 0.78125)"/>
      <use xlink:href="#DejaVuSans-20" transform="translate(317.1875 0.78125)"/>
      <use xlink:href="#DejaVuSans-38" transform="translate(348.974609 0.78125)"/>
      <use xlink:href="#DejaVuSans-30" transform="translate(412.597656 0.78125)"/>
      <use xlink:href="#DejaVuSans-30" transform="translate(476.220703 0.78125)"/>
      <use xlink:href="#DejaVuSans-20" transform="translate(539.84375 0.78125)"/>
      <use xlink:href="#DejaVuSans-2218" transform="translate(586.225586 39.0625) scale(0.7)"/>
      <use xlink:href="#DejaVuSans-43" transform="translate(646.416016 0.78125)"/>
     </g>
    </g>
   </g>
  </g>
  <g id="axes_2">
   <g id="patch_8">
    <path d="M 400.745 318.04 
L 709.2 318.04 
L 709.2 26.88 
L 400.745 26.88 
z
" style="fill: #ffffff"/>
   </g>
   <g id="matplotlib.axis_3">
    <g id="xtick_6">
     <g id="line2d_19">
      <g>
       <use xlink:href="#mea877f27f4" x="414.765682" y="318.04" style="stroke: #000000; stroke-width: 0.8"/>
      </g>
     </g>
     <g id="text_19">
      <!-- 0 -->
      <g transform="translate(411.584432 332.638438) scale(0.1 -0.1)">
       <use xlink:href="#DejaVuSans-30"/>
      </g>
     </g>
    </g>
    <g id="xtick_7">
     <g id="line2d_20">
      <g>
       <use xlink:href="#mea877f27f4" x="477.079823" y="318.04" style="stroke: #000000; stroke-width: 0.8"/>
      </g>
     </g>
     <g id="text_20">
      <!-- 2 -->
      <g transform="translate(473.898573 332.638438) scale(0.1 -0.1)">
       <use xlink:href="#DejaVuSans-32"/>
      </g>
     </g>
    </g>
    <g id="xtick_8">
     <g id="line2d_21">
      <g>
       <use xlink:href="#mea877f27f4" x="539.393965" y="318.04" style="stroke: #000000; stroke-width: 0.8"/>
      </g>
     </g>
     <g id="text_21">
      <!-- 4 -->
      <g transform="translate(536.212715 332.638438) scale(0.1 -0.1)">
       <use xlink:href="#DejaVuSans-34"/>
      </g>
     </g>
    </g>
    <g id="xtick_9">
     <g id="line2d_22">
      <g>
       <use xlink:href="#mea877f27f4" x="601.708106" y="318.04" style="stroke: #000000; stroke-width: 0.8"/>
      </g>
     </g>
     <g id="text_22">
      <!-- 6 -->
      <g transform="translate(598.526856 332.638438) scale(0.1 -0.1)">
       <use xlink:href="#DejaVuSans-36"/>
      </g>
     </g>
    </g>
    <g id="xtick_10">
     <g id="line2d_23">
      <g>
       <use xlink:href="#mea877f27f4" x="664.022247" y="318.04" style="stroke: #000000; stroke-width: 0.8"/>
      </g>
     </g>
     <g id="text_23">
      <!-- 8 -->
      <g transform="translate(660.840997 332.638438) scale(0.1 -0.1)">
       <use xlink:href="#DejaVuSans-38"/>
      </g>
     </g>
    </g>
    <g id="text_24">
     <!-- Time (s) -->
     <g transform="translate(534.643594 346.316563) scale(0.1 -0.1)">
      <use xlink:href="#DejaVuSans-54"/>
      <use xlink:href="#DejaVuSans-69" transform="translate(57.958984 0)"/>
      <use xlink:href="#DejaVuSans-6d" transform="translate(85.742188 0)"/>
      <use xlink:href="#DejaVuSans-65" transform="translate(183.154297 0)"/>
      <use xlink:href="#DejaVuSans-20" transform="translate(244.677734 0)"/>
      <use xlink:href="#DejaVuSans-28" transform="translate(276.464844 0)"/>
      <use xlink:href="#DejaVuSans-73" transform="translate(315.478516 0)"/>
      <use xlink:href="#DejaVuSans-29" transform="translate(367.578125 0)"/>
     </g>
    </g>
   </g>
   <g id="matplotlib.axis_4">
    <g id="ytick_8">
     <g id="line2d_24">
      <g>
       <use xlink:href="#m420c4e8925" x="400.745" y="304.805455" style="stroke: #000000; stroke-width: 0.8"/>
      </g>
     </g>
     <g id="text_25">
      <!-- 0.0 -->
      <g transform="translate(377.841875 308.604673) scale(0.1 -0.1)">
       <defs>
        <path id="DejaVuSans-2e" d="M 684 794 
L 1344 794 
L 1344 0 
L 684 0 
L 684 794 
z
" transform="scale(0.015625)"/>
       </defs>
       <use xlink:href="#DejaVuSans-30"/>
       <use xlink:href="#DejaVuSans-2e" transform="translate(63.623047 0)"/>
       <use xlink:href="#DejaVuSans-30" transform="translate(95.410156 0)"/>
      </g>
     </g>
    </g>
    <g id="ytick_9">
     <g id="line2d_25">
      <g>
       <use xlink:href="#m420c4e8925" x="400.745" y="251.867273" style="stroke: #000000; stroke-width: 0.8"/>
      </g>
     </g>
     <g id="text_26">
      <!-- 0.2 -->
      <g transform="translate(377.841875 255.666491) scale(0.1 -0.1)">
       <use xlink:href="#DejaVuSans-30"/>
       <use xlink:href="#DejaVuSans-2e" transform="translate(63.623047 0)"/>
       <use xlink:href="#DejaVuSans-32" transform="translate(95.410156 0)"/>
      </g>
     </g>
    </g>
    <g id="ytick_10">
     <g id="line2d_26">
      <g>
       <use xlink:href="#m420c4e8925" x="400.745" y="198.929091" style="stroke: #000000; stroke-width: 0.8"/>
      </g>
     </g>
     <g id="text_27">
      <!-- 0.4 -->
      <g transform="translate(377.841875 202.72831) scale(0.1 -0.1)">
       <use xlink:href="#DejaVuSans-30"/>
       <use xlink:href="#DejaVuSans-2e" transform="translate(63.623047 0)"/>
       <use xlink:href="#DejaVuSans-34" transform="translate(95.410156 0)"/>
      </g>
     </g>
    </g>
    <g id="ytick_11">
     <g id="line2d_27">
      <g>
       <use xlink:href="#m420c4e8925" x="400.745" y="145.990909" style="stroke: #000000; stroke-width: 0.8"/>
      </g>
     </g>
     <g id="text_28">
      <!-- 0.6 -->
      <g transform="translate(377.841875 149.790128) scale(0.1 -0.1)">
       <use xlink:href="#DejaVuSans-30"/>
       <use xlink:href="#DejaVuSans-2e" transform="translate(63.623047 0)"/>
       <use xlink:href="#DejaVuSans-36" transform="translate(95.410156 0)"/>
      </g>
     </g>
    </g>
    <g id="ytick_12">
     <g id="line2d_28">
      <g>
       <use xlink:href="#m420c4e8925" x="400.745" y="93.052727" style="stroke: #000000; stroke-width: 0.8"/>
      </g>
     </g>
     <g id="text_29">
      <!-- 0.8 -->
      <g transform="translate(377.841875 96.851946) scale(0.1 -0.1)">
       <use xlink:href="#DejaVuSans-30"/>
       <use xlink:href="#DejaVuSans-2e" transform="translate(63.623047 0)"/>
       <use xlink:href="#DejaVuSans-38" transform="translate(95.410156 0)"/>
      </g>
     </g>
    </g>
    <g id="ytick_13">
     <g id="line2d_29">
      <g>
       <use xlink:href="#m420c4e8925" x="400.745" y="40.114545" style="stroke: #000000; stroke-width: 0.8"/>
      </g>
     </g>
     <g id="text_30">
      <!-- 1.0 -->
      <g transform="translate(377.841875 43.913764) scale(0.1 -0.1)">
       <use xlink:href="#DejaVuSans-31"/>
       <use xlink:href="#DejaVuSans-2e" transform="translate(63.623047 0)"/>
       <use xlink:href="#DejaVuSans-30" transform="translate(95.410156 0)"/>
      </g>
     </g>
    </g>
    <g id="text_31">
     <!-- Normalized Signal -->
     <g transform="translate(371.762187 217.763906) rotate(-90) scale(0.1 -0.1)">
      <defs>
       <path id="DejaVuSans-4e" d="M 628 4666 
L 1478 4666 
L 3547 763 
L 3547 4666 
L 4159 4666 
L 4159 0 
L 3309 0 
L 1241 3903 
L 1241 0 
L 628 0 
L 628 4666 
z
" transform="scale(0.015625)"/>
      </defs>
      <use xlink:href="#DejaVuSans-4e"/>
      <use xlink:href="#DejaVuSans-6f" transform="translate(74.804688 0)"/>
      <use xlink:href="#DejaVuSans-72" transform="translate(135.986328 0)"/>
      <use xlink:href="#DejaVuSans-6d" transform="translate(175.349609 0)"/>
      <use xlink:href="#DejaVuSans-61" transform="translate(272.761719 0)"/>
      <use xlink:href="#DejaVuSans-6c" transform="translate(334.041016 0)"/>
      <use xlink:href="#DejaVuSans-69" transform="translate(361.824219 0)"/>
      <use xlink:href="#DejaVuSans-7a" transform="translate(389.607422 0)"/>
      <use xlink:href="#DejaVuSans-65" transform="translate(442.097656 0)"/>
      <use xlink:href="#DejaVuSans-64" transform="translate(503.621094 0)"/>
      <use xlink:href="#DejaVuSans-20" transform="translate(567.097656 0)"/>
      <use xlink:href="#DejaVuSans-53" transform="translate(598.884766 0)"/>
      <use xlink:href="#DejaVuSans-69" transform="translate(662.361328 0)"/>
      <use xlink:href="#DejaVuSans-67" transform="translate(690.144531 0)"/>
      <use xlink:href="#DejaVuSans-6e" transform="translate(753.621094 0)"/>
      <use xlink:href="#DejaVuSans-61" transform="translate(817 0)"/>
      <use xlink:href="#DejaVuSans-6c" transform="translate(878.279297 0)"/>
     </g>
    </g>
   </g>
   <g id="line2d_30">
    <path d="M 414.765682 40.114545 
L 415.046376 216.575152 
L 415.607765 216.575152 
L 415.888459 304.805455 
L 417.011236 304.805455 
L 417.291931 128.344848 
L 417.572625 304.805455 
L 418.134014 304.805455 
L 418.414708 216.575152 
L 418.695402 304.805455 
L 418.976097 304.805455 
L 419.256791 216.575152 
L 419.537485 216.575152 
L 419.81818 304.805455 
L 420.660263 304.805455 
L 420.940957 128.344848 
L 421.221651 304.805455 
L 421.502346 216.575152 
L 421.78304 304.805455 
L 422.905817 304.805455 
L 423.186512 216.575152 
L 423.467206 304.805455 
L 425.432066 304.805455 
L 425.712761 216.575152 
L 425.993455 304.805455 
L 427.677621 304.805455 
L 427.958315 216.575152 
L 428.23901 216.575152 
L 428.519704 304.805455 
L 429.081093 304.805455 
L 429.361787 216.575152 
L 429.923176 216.575152 
L 430.20387 304.805455 
L 430.484564 216.575152 
L 430.765259 216.575152 
L 431.045953 304.805455 
L 431.607342 304.805455 
L 431.888036 216.575152 
L 432.16873 304.805455 
L 433.010813 304.805455 
L 433.291508 216.575152 
L 433.572202 304.805455 
L 433.852896 304.805455 
L 434.133591 216.575152 
L 434.414285 304.805455 
L 447.04553 304.805455 
L 447.326224 216.575152 
L 447.606919 304.805455 
L 448.729696 304.805455 
L 449.01039 216.575152 
L 449.291084 304.805455 
L 449.571779 216.575152 
L 449.852473 304.805455 
L 450.413862 304.805455 
L 450.694556 216.575152 
L 450.97525 216.575152 
L 451.255945 304.805455 
L 459.39608 304.805455 
L 459.676775 216.575152 
L 459.957469 216.575152 
L 460.238163 304.805455 
L 460.518858 304.805455 
L 460.799552 216.575152 
L 461.080246 304.805455 
L 463.045107 304.805455 
L 463.325801 216.575152 
L 463.606495 304.805455 
L 465.571356 304.805455 
L 465.85205 128.344848 
L 466.132744 304.805455 
L 467.536216 304.805455 
L 467.81691 216.575152 
L 468.097605 304.805455 
L 469.501076 304.805455 
L 469.781771 216.575152 
L 470.062465 304.805455 
L 471.465937 304.805455 
L 471.746631 216.575152 
L 472.027325 304.805455 
L 482.413016 304.805455 
L 482.69371 216.575152 
L 482.974404 304.805455 
L 483.255099 304.805455 
L 483.535793 216.575152 
L 483.816487 304.805455 
L 484.097181 304.805455 
L 484.377876 216.575152 
L 484.65857 304.805455 
L 486.062042 304.805455 
L 486.342736 216.575152 
L 486.62343 304.805455 
L 486.904125 216.575152 
L 487.184819 304.805455 
L 493.640789 304.805455 
L 493.921483 216.575152 
L 494.202177 304.805455 
L 505.429951 304.805455 
L 505.710645 216.575152 
L 505.991339 304.805455 
L 511.605226 304.805455 
L 511.88592 216.575152 
L 512.166615 304.805455 
L 512.447309 216.575152 
L 512.728003 304.805455 
L 524.797859 304.805455 
L 525.078554 216.575152 
L 525.359248 304.805455 
L 528.166191 304.805455 
L 528.446886 216.575152 
L 528.72758 304.805455 
L 542.762297 304.805455 
L 543.042991 216.575152 
L 543.323685 304.805455 
L 550.341044 304.805455 
L 550.621738 216.575152 
L 550.902432 304.805455 
L 557.077707 304.805455 
L 557.358402 216.575152 
L 557.639096 216.575152 
L 557.91979 304.805455 
L 560.165345 304.805455 
L 560.446039 216.575152 
L 560.726734 304.805455 
L 567.744092 304.805455 
L 568.024786 216.575152 
L 568.305481 304.805455 
L 574.480756 304.805455 
L 574.76145 216.575152 
L 575.042145 304.805455 
L 575.603533 304.805455 
L 575.884228 216.575152 
L 576.164922 216.575152 
L 576.445616 304.805455 
L 627.531984 304.805455 
L 627.812679 216.575152 
L 628.093373 304.805455 
L 665.145025 304.805455 
L 665.425719 216.575152 
L 665.706413 304.805455 
L 695.179318 304.805455 
L 695.179318 304.805455 
" clip-path="url(#p491688210e)" style="fill: none; stroke-dasharray: 1.85,0.8; stroke-dashoffset: 0; stroke: #8000ff; stroke-width: 0.5"/>
   </g>
   <g id="line2d_31">
    <path d="M 414.765682 40.114545 
L 415.046376 242.525241 
L 415.32707 289.235401 
L 415.607765 289.235401 
L 415.888459 273.665348 
L 416.169153 289.235401 
L 416.449848 289.235401 
L 416.730542 281.450374 
L 417.291931 297.020428 
L 417.572625 289.235401 
L 418.134014 304.805455 
L 418.414708 304.805455 
L 418.695402 297.020428 
L 418.976097 297.020428 
L 419.256791 304.805455 
L 419.81818 304.805455 
L 420.098874 297.020428 
L 420.379568 304.805455 
L 420.660263 297.020428 
L 420.940957 304.805455 
L 421.221651 304.805455 
L 421.502346 297.020428 
L 422.063734 297.020428 
L 422.344429 304.805455 
L 422.625123 297.020428 
L 422.905817 304.805455 
L 429.081093 304.805455 
L 429.361787 289.235401 
L 429.642481 304.805455 
L 430.20387 304.805455 
L 430.484564 297.020428 
L 430.765259 304.805455 
L 431.326647 304.805455 
L 431.607342 297.020428 
L 431.888036 304.805455 
L 432.449425 304.805455 
L 432.730119 297.020428 
L 433.010813 297.020428 
L 433.291508 304.805455 
L 433.572202 297.020428 
L 433.852896 304.805455 
L 435.817757 304.805455 
L 436.098451 297.020428 
L 436.379145 297.020428 
L 436.65984 304.805455 
L 439.466783 304.805455 
L 439.747477 297.020428 
L 440.028172 297.020428 
L 440.308866 304.805455 
L 445.361364 304.805455 
L 445.642058 297.020428 
L 445.922753 304.805455 
L 446.203447 297.020428 
L 446.484141 304.805455 
L 449.01039 304.805455 
L 449.291084 297.020428 
L 449.571779 304.805455 
L 454.062888 304.805455 
L 454.343582 297.020428 
L 454.624277 304.805455 
L 462.764412 304.805455 
L 463.045107 297.020428 
L 463.325801 304.805455 
L 471.185242 304.805455 
L 471.465937 297.020428 
L 471.746631 304.805455 
L 477.360518 304.805455 
L 477.641212 297.020428 
L 477.921906 304.805455 
L 489.711068 304.805455 
L 489.991762 297.020428 
L 490.272457 304.805455 
L 501.219536 304.805455 
L 501.50023 297.020428 
L 501.780924 304.805455 
L 510.201754 304.805455 
L 510.482449 297.020428 
L 510.763143 304.805455 
L 512.447309 304.805455 
L 512.728003 297.020428 
L 513.008698 304.805455 
L 514.973558 304.805455 
L 515.254252 297.020428 
L 515.534947 304.805455 
L 523.394388 304.805455 
L 523.675082 297.020428 
L 523.955776 304.805455 
L 524.797859 304.805455 
L 525.078554 297.020428 
L 525.359248 304.805455 
L 529.569663 304.805455 
L 529.850357 297.020428 
L 530.131052 304.805455 
L 533.218689 304.805455 
L 533.499384 297.020428 
L 533.780078 304.805455 
L 549.218266 304.805455 
L 549.498961 297.020428 
L 549.779655 304.805455 
L 554.551459 304.805455 
L 554.832153 297.020428 
L 555.112847 304.805455 
L 604.795744 304.805455 
L 605.076438 297.020428 
L 605.357132 304.805455 
L 640.443924 304.805455 
L 640.724618 297.020428 
L 641.005312 297.020428 
L 641.286007 304.805455 
L 654.759335 304.805455 
L 655.040029 297.020428 
L 655.320723 304.805455 
L 688.442654 304.805455 
L 688.723349 297.020428 
L 689.004043 304.805455 
L 695.179318 304.805455 
L 695.179318 304.805455 
" clip-path="url(#p491688210e)" style="fill: none; stroke-dasharray: 1.85,0.8; stroke-dashoffset: 0; stroke: #80ffb4; stroke-width: 0.5"/>
   </g>
   <g id="line2d_32">
    <path d="M 414.765682 40.114545 
L 415.046376 278.770283 
L 415.32707 300.466259 
L 415.607765 296.127064 
L 415.888459 283.109478 
L 416.169153 296.127064 
L 416.449848 287.448674 
L 416.730542 296.127064 
L 417.011236 291.787869 
L 417.291931 296.127064 
L 417.572625 304.805455 
L 417.853319 291.787869 
L 418.134014 291.787869 
L 418.414708 304.805455 
L 418.976097 296.127064 
L 419.256791 304.805455 
L 419.537485 300.466259 
L 420.098874 300.466259 
L 420.379568 304.805455 
L 422.063734 304.805455 
L 422.344429 300.466259 
L 422.625123 300.466259 
L 422.905817 304.805455 
L 423.186512 300.466259 
L 423.467206 304.805455 
L 424.309289 304.805455 
L 424.589983 300.466259 
L 424.870678 300.466259 
L 425.151372 304.805455 
L 426.554844 304.805455 
L 426.835538 300.466259 
L 427.116232 304.805455 
L 429.642481 304.805455 
L 429.923176 300.466259 
L 430.20387 304.805455 
L 431.045953 304.805455 
L 431.326647 300.466259 
L 431.607342 304.805455 
L 437.782617 304.805455 
L 438.063311 300.466259 
L 438.344006 304.805455 
L 439.466783 304.805455 
L 439.747477 300.466259 
L 440.028172 304.805455 
L 440.870255 304.805455 
L 441.150949 300.466259 
L 441.431643 304.805455 
L 454.062888 304.805455 
L 454.343582 300.466259 
L 454.624277 304.805455 
L 456.869831 304.805455 
L 457.150526 300.466259 
L 457.43122 300.466259 
L 457.711914 304.805455 
L 459.957469 304.805455 
L 460.238163 300.466259 
L 460.799552 300.466259 
L 461.080246 304.805455 
L 464.729273 304.805455 
L 465.009967 300.466259 
L 465.290661 304.805455 
L 471.465937 304.805455 
L 471.746631 300.466259 
L 472.027325 304.805455 
L 473.992186 304.805455 
L 474.27288 300.466259 
L 474.553574 304.805455 
L 490.833845 304.805455 
L 491.11454 300.466259 
L 491.395234 304.805455 
L 506.833422 304.805455 
L 507.114117 300.466259 
L 507.394811 300.466259 
L 507.675505 304.805455 
L 519.183973 304.805455 
L 519.464667 300.466259 
L 519.745361 304.805455 
L 525.078554 304.805455 
L 525.359248 300.466259 
L 525.639942 304.805455 
L 526.201331 304.805455 
L 526.482025 300.466259 
L 526.76272 300.466259 
L 527.043414 304.805455 
L 530.411746 304.805455 
L 530.69244 296.127064 
L 530.973135 304.805455 
L 546.411323 304.805455 
L 546.692017 300.466259 
L 546.972712 304.805455 
L 561.568817 304.805455 
L 561.849511 300.466259 
L 562.130205 304.805455 
L 573.919367 304.805455 
L 574.200062 300.466259 
L 574.480756 304.805455 
L 581.21742 304.805455 
L 581.498114 300.466259 
L 581.778809 304.805455 
L 600.304634 304.805455 
L 600.585329 300.466259 
L 600.866023 304.805455 
L 619.111155 304.805455 
L 619.391849 300.466259 
L 619.672543 304.805455 
L 639.040452 304.805455 
L 639.321146 300.466259 
L 639.601841 304.805455 
L 682.548073 304.805455 
L 682.828768 300.466259 
L 683.109462 304.805455 
L 695.179318 304.805455 
L 695.179318 304.805455 
" clip-path="url(#p491688210e)" style="fill: none; stroke-dasharray: 1.85,0.8; stroke-dashoffset: 0; stroke: #ff0000; stroke-width: 0.5"/>
   </g>
   <g id="patch_9">
    <path d="M 400.745 318.04 
L 400.745 26.88 
" style="fill: none; stroke: #000000; stroke-width: 0.8; stroke-linejoin: miter; stroke-linecap: square"/>
   </g>
   <g id="patch_10">
    <path d="M 709.2 318.04 
L 709.2 26.88 
" style="fill: none; stroke: #000000; stroke-width: 0.8; stroke-linejoin: miter; stroke-linecap: square"/>
   </g>
   <g id="patch_11">
    <path d="M 400.745 318.04 
L 709.2 318.04 
" style="fill: none; stroke: #000000; stroke-width: 0.8; stroke-linejoin: miter; stroke-linecap: square"/>
   </g>
   <g id="patch_12">
    <path d="M 400.745 26.88 
L 709.2 26.88 
" style="fill: none; stroke: #000000; stroke-width: 0.8; stroke-linejoin: miter; stroke-linecap: square"/>
   </g>
   <g id="text_32">
    <!-- Normalized -->
    <g transform="translate(520.945938 20.88) scale(0.12 -0.12)">
     <use xlink:href="#DejaVuSans-4e"/>
     <use xlink:href="#DejaVuSans-6f" transform="translate(74.804688 0)"/>
     <use xlink:href="#DejaVuSans-72" transform="translate(135.986328 0)"/>
     <use xlink:href="#DejaVuSans-6d" transform="translate(175.349609 0)"/>
     <use xlink:href="#DejaVuSans-61" transform="translate(272.761719 0)"/>
     <use xlink:href="#DejaVuSans-6c" transform="translate(334.041016 0)"/>
     <use xlink:href="#DejaVuSans-69" transform="translate(361.824219 0)"/>
     <use xlink:href="#DejaVuSans-7a" transform="translate(389.607422 0)"/>
     <use xlink:href="#DejaVuSans-65" transform="translate(442.097656 0)"/>
     <use xlink:href="#DejaVuSans-64" transform="translate(503.621094 0)"/>
    </g>
   </g>
   <g id="legend_2">
    <g id="patch_13">
     <path d="M 598.5 78.975312 
L 702.2 78.975312 
Q 704.2 78.975312 704.2 76.975312 
L 704.2 33.88 
Q 704.2 31.88 702.2 31.88 
L 598.5 31.88 
Q 596.5 31.88 596.5 33.88 
L 596.5 76.975312 
Q 596.5 78.975312 598.5 78.975312 
z
" style="fill: #ffffff; opacity: 0.8; stroke: #cccccc; stroke-linejoin: miter"/>
    </g>
    <g id="line2d_33">
     <path d="M 600.5 39.978437 
L 610.5 39.978437 
L 620.5 39.978437 
" style="fill: none; stroke-dasharray: 1.85,0.8; stroke-dashoffset: 0; stroke: #8000ff; stroke-width: 0.5"/>
    </g>
    <g id="text_33">
     <!-- Temp: 400 $^\circ$C -->
     <g transform="translate(628.5 43.478437) scale(0.1 -0.1)">
      <use xlink:href="#DejaVuSans-54" transform="translate(0 0.78125)"/>
      <use xlink:href="#DejaVuSans-65" transform="translate(61.083984 0.78125)"/>
      <use xlink:href="#DejaVuSans-6d" transform="translate(122.607422 0.78125)"/>
      <use xlink:href="#DejaVuSans-70" transform="translate(220.019531 0.78125)"/>
      <use xlink:href="#DejaVuSans-3a" transform="translate(283.496094 0.78125)"/>
      <use xlink:href="#DejaVuSans-20" transform="translate(317.1875 0.78125)"/>
      <use xlink:href="#DejaVuSans-34" transform="translate(348.974609 0.78125)"/>
      <use xlink:href="#DejaVuSans-30" transform="translate(412.597656 0.78125)"/>
      <use xlink:href="#DejaVuSans-30" transform="translate(476.220703 0.78125)"/>
      <use xlink:href="#DejaVuSans-20" transform="translate(539.84375 0.78125)"/>
      <use xlink:href="#DejaVuSans-2218" transform="translate(586.225586 39.0625) scale(0.7)"/>
      <use xlink:href="#DejaVuSans-43" transform="translate(646.416016 0.78125)"/>
     </g>
    </g>
    <g id="line2d_34">
     <path d="M 600.5 54.676875 
L 610.5 54.676875 
L 620.5 54.676875 
" style="fill: none; stroke-dasharray: 1.85,0.8; stroke-dashoffset: 0; stroke: #80ffb4; stroke-width: 0.5"/>
    </g>
    <g id="text_34">
     <!-- Temp: 600 $^\circ$C -->
     <g transform="translate(628.5 58.176875) scale(0.1 -0.1)">
      <use xlink:href="#DejaVuSans-54" transform="translate(0 0.78125)"/>
      <use xlink:href="#DejaVuSans-65" transform="translate(61.083984 0.78125)"/>
      <use xlink:href="#DejaVuSans-6d" transform="translate(122.607422 0.78125)"/>
      <use xlink:href="#DejaVuSans-70" transform="translate(220.019531 0.78125)"/>
      <use xlink:href="#DejaVuSans-3a" transform="translate(283.496094 0.78125)"/>
      <use xlink:href="#DejaVuSans-20" transform="translate(317.1875 0.78125)"/>
      <use xlink:href="#DejaVuSans-36" transform="translate(348.974609 0.78125)"/>
      <use xlink:href="#DejaVuSans-30" transform="translate(412.597656 0.78125)"/>
      <use xlink:href="#DejaVuSans-30" transform="translate(476.220703 0.78125)"/>
      <use xlink:href="#DejaVuSans-20" transform="translate(539.84375 0.78125)"/>
      <use xlink:href="#DejaVuSans-2218" transform="translate(586.225586 39.0625) scale(0.7)"/>
      <use xlink:href="#DejaVuSans-43" transform="translate(646.416016 0.78125)"/>
     </g>
    </g>
    <g id="line2d_35">
     <path d="M 600.5 69.375313 
L 610.5 69.375313 
L 620.5 69.375313 
" style="fill: none; stroke-dasharray: 1.85,0.8; stroke-dashoffset: 0; stroke: #ff0000; stroke-width: 0.5"/>
    </g>
    <g id="text_35">
     <!-- Temp: 800 $^\circ$C -->
     <g transform="translate(628.5 72.875313) scale(0.1 -0.1)">
      <use xlink:href="#DejaVuSans-54" transform="translate(0 0.78125)"/>
      <use xlink:href="#DejaVuSans-65" transform="translate(61.083984 0.78125)"/>
      <use xlink:href="#DejaVuSans-6d" transform="translate(122.607422 0.78125)"/>
      <use xlink:href="#DejaVuSans-70" transform="translate(220.019531 0.78125)"/>
      <use xlink:href="#DejaVuSans-3a" transform="translate(283.496094 0.78125)"/>
      <use xlink:href="#DejaVuSans-20" transform="translate(317.1875 0.78125)"/>
      <use xlink:href="#DejaVuSans-38" transform="translate(348.974609 0.78125)"/>
      <use xlink:href="#DejaVuSans-30" transform="translate(412.597656 0.78125)"/>
      <use xlink:href="#DejaVuSans-30" transform="translate(476.220703 0.78125)"/>
      <use xlink:href="#DejaVuSans-20" transform="translate(539.84375 0.78125)"/>
      <use xlink:href="#DejaVuSans-2218" transform="translate(586.225586 39.0625) scale(0.7)"/>
      <use xlink:href="#DejaVuSans-43" transform="translate(646.416016 0.78125)"/>
     </g>
    </g>
   </g>
  </g>
 </g>
 <defs>
  <clipPath id="p1e0ae50d44">
   <rect x="44.57" y="26.88" width="308.455" height="291.16"/>
  </clipPath>
  <clipPath id="p491688210e">
   <rect x="400.745" y="26.88" width="308.455" height="291.16"/>
  </clipPath>
 </defs>
</svg>
