<?xml version="1.0" encoding="utf-8" standalone="no"?>
<!DOCTYPE svg PUBLIC "-//W3C//DTD SVG 1.1//EN"
  "http://www.w3.org/Graphics/SVG/1.1/DTD/svg11.dtd">
<svg xmlns:xlink="http://www.w3.org/1999/xlink" width="460.8pt" height="345.6pt" viewBox="0 0 460.8 345.6" xmlns="http://www.w3.org/2000/svg" version="1.1">
 <metadata>
  <rdf:RDF xmlns:dc="http://purl.org/dc/elements/1.1/" xmlns:cc="http://creativecommons.org/ns#" xmlns:rdf="http://www.w3.org/1999/02/22-rdf-syntax-ns#">
   <cc:Work>
    <dc:type rdf:resource="http://purl.org/dc/dcmitype/StillImage"/>
    <dc:date>2025-03-25T14:19:53.561424</dc:date>
    <dc:format>image/svg+xml</dc:format>
    <dc:creator>
     <cc:Agent>
      <dc:title>Matplotlib v3.10.0, https://matplotlib.org/</dc:title>
     </cc:Agent>
    </dc:creator>
   </cc:Work>
  </rdf:RDF>
 </metadata>
 <defs>
  <style type="text/css">*{stroke-linejoin: round; stroke-linecap: butt}</style>
 </defs>
 <g id="figure_1">
  <g id="patch_1">
   <path d="M 0 345.6 
L 460.8 345.6 
L 460.8 0 
L 0 0 
z
" style="fill: #ffffff"/>
  </g>
  <g id="axes_1">
   <g id="patch_2">
    <path d="M 57.6 307.584 
L 414.72 307.584 
L 414.72 41.472 
L 57.6 41.472 
z
" style="fill: #ffffff"/>
   </g>
   <g id="matplotlib.axis_1">
    <g id="xtick_1">
     <g id="line2d_1">
      <defs>
       <path id="m31b7c65a5c" d="M 0 0 
L 0 3.5 
" style="stroke: #000000; stroke-width: 0.8"/>
      </defs>
      <g>
       <use xlink:href="#m31b7c65a5c" x="108.757661" y="307.584" style="stroke: #000000; stroke-width: 0.8"/>
      </g>
     </g>
     <g id="text_1">
      <!-- $\mathdefault{10^{12}}$ -->
      <g transform="translate(97.707661 322.182437) scale(0.1 -0.1)">
       <defs>
        <path id="DejaVuSans-31" d="M 794 531 
L 1825 531 
L 1825 4091 
L 703 3866 
L 703 4441 
L 1819 4666 
L 2450 4666 
L 2450 531 
L 3481 531 
L 3481 0 
L 794 0 
L 794 531 
z
" transform="scale(0.015625)"/>
        <path id="DejaVuSans-30" d="M 2034 4250 
Q 1547 4250 1301 3770 
Q 1056 3291 1056 2328 
Q 1056 1369 1301 889 
Q 1547 409 2034 409 
Q 2525 409 2770 889 
Q 3016 1369 3016 2328 
Q 3016 3291 2770 3770 
Q 2525 4250 2034 4250 
z
M 2034 4750 
Q 2819 4750 3233 4129 
Q 3647 3509 3647 2328 
Q 3647 1150 3233 529 
Q 2819 -91 2034 -91 
Q 1250 -91 836 529 
Q 422 1150 422 2328 
Q 422 3509 836 4129 
Q 1250 4750 2034 4750 
z
" transform="scale(0.015625)"/>
        <path id="DejaVuSans-32" d="M 1228 531 
L 3431 531 
L 3431 0 
L 469 0 
L 469 531 
Q 828 903 1448 1529 
Q 2069 2156 2228 2338 
Q 2531 2678 2651 2914 
Q 2772 3150 2772 3378 
Q 2772 3750 2511 3984 
Q 2250 4219 1831 4219 
Q 1534 4219 1204 4116 
Q 875 4013 500 3803 
L 500 4441 
Q 881 4594 1212 4672 
Q 1544 4750 1819 4750 
Q 2544 4750 2975 4387 
Q 3406 4025 3406 3419 
Q 3406 3131 3298 2873 
Q 3191 2616 2906 2266 
Q 2828 2175 2409 1742 
Q 1991 1309 1228 531 
z
" transform="scale(0.015625)"/>
       </defs>
       <use xlink:href="#DejaVuSans-31" transform="translate(0 0.765625)"/>
       <use xlink:href="#DejaVuSans-30" transform="translate(63.623047 0.765625)"/>
       <use xlink:href="#DejaVuSans-31" transform="translate(128.203125 39.046875) scale(0.7)"/>
       <use xlink:href="#DejaVuSans-32" transform="translate(172.739258 39.046875) scale(0.7)"/>
      </g>
     </g>
    </g>
    <g id="xtick_2">
     <g id="line2d_2">
      <g>
       <use xlink:href="#m31b7c65a5c" x="205.457914" y="307.584" style="stroke: #000000; stroke-width: 0.8"/>
      </g>
     </g>
     <g id="text_2">
      <!-- $\mathdefault{10^{13}}$ -->
      <g transform="translate(194.407914 322.182437) scale(0.1 -0.1)">
       <defs>
        <path id="DejaVuSans-33" d="M 2597 2516 
Q 3050 2419 3304 2112 
Q 3559 1806 3559 1356 
Q 3559 666 3084 287 
Q 2609 -91 1734 -91 
Q 1441 -91 1130 -33 
Q 819 25 488 141 
L 488 750 
Q 750 597 1062 519 
Q 1375 441 1716 441 
Q 2309 441 2620 675 
Q 2931 909 2931 1356 
Q 2931 1769 2642 2001 
Q 2353 2234 1838 2234 
L 1294 2234 
L 1294 2753 
L 1863 2753 
Q 2328 2753 2575 2939 
Q 2822 3125 2822 3475 
Q 2822 3834 2567 4026 
Q 2313 4219 1838 4219 
Q 1578 4219 1281 4162 
Q 984 4106 628 3988 
L 628 4550 
Q 988 4650 1302 4700 
Q 1616 4750 1894 4750 
Q 2613 4750 3031 4423 
Q 3450 4097 3450 3541 
Q 3450 3153 3228 2886 
Q 3006 2619 2597 2516 
z
" transform="scale(0.015625)"/>
       </defs>
       <use xlink:href="#DejaVuSans-31" transform="translate(0 0.765625)"/>
       <use xlink:href="#DejaVuSans-30" transform="translate(63.623047 0.765625)"/>
       <use xlink:href="#DejaVuSans-31" transform="translate(128.203125 39.046875) scale(0.7)"/>
       <use xlink:href="#DejaVuSans-33" transform="translate(172.739258 39.046875) scale(0.7)"/>
      </g>
     </g>
    </g>
    <g id="xtick_3">
     <g id="line2d_3">
      <g>
       <use xlink:href="#m31b7c65a5c" x="302.158167" y="307.584" style="stroke: #000000; stroke-width: 0.8"/>
      </g>
     </g>
     <g id="text_3">
      <!-- $\mathdefault{10^{14}}$ -->
      <g transform="translate(291.108167 322.182437) scale(0.1 -0.1)">
       <defs>
        <path id="DejaVuSans-34" d="M 2419 4116 
L 825 1625 
L 2419 1625 
L 2419 4116 
z
M 2253 4666 
L 3047 4666 
L 3047 1625 
L 3713 1625 
L 3713 1100 
L 3047 1100 
L 3047 0 
L 2419 0 
L 2419 1100 
L 313 1100 
L 313 1709 
L 2253 4666 
z
" transform="scale(0.015625)"/>
       </defs>
       <use xlink:href="#DejaVuSans-31" transform="translate(0 0.684375)"/>
       <use xlink:href="#DejaVuSans-30" transform="translate(63.623047 0.684375)"/>
       <use xlink:href="#DejaVuSans-31" transform="translate(128.203125 38.965625) scale(0.7)"/>
       <use xlink:href="#DejaVuSans-34" transform="translate(172.739258 38.965625) scale(0.7)"/>
      </g>
     </g>
    </g>
    <g id="xtick_4">
     <g id="line2d_4">
      <g>
       <use xlink:href="#m31b7c65a5c" x="398.858421" y="307.584" style="stroke: #000000; stroke-width: 0.8"/>
      </g>
     </g>
     <g id="text_4">
      <!-- $\mathdefault{10^{15}}$ -->
      <g transform="translate(387.808421 322.182437) scale(0.1 -0.1)">
       <defs>
        <path id="DejaVuSans-35" d="M 691 4666 
L 3169 4666 
L 3169 4134 
L 1269 4134 
L 1269 2991 
Q 1406 3038 1543 3061 
Q 1681 3084 1819 3084 
Q 2600 3084 3056 2656 
Q 3513 2228 3513 1497 
Q 3513 744 3044 326 
Q 2575 -91 1722 -91 
Q 1428 -91 1123 -41 
Q 819 9 494 109 
L 494 744 
Q 775 591 1075 516 
Q 1375 441 1709 441 
Q 2250 441 2565 725 
Q 2881 1009 2881 1497 
Q 2881 1984 2565 2268 
Q 2250 2553 1709 2553 
Q 1456 2553 1204 2497 
Q 953 2441 691 2322 
L 691 4666 
z
" transform="scale(0.015625)"/>
       </defs>
       <use xlink:href="#DejaVuSans-31" transform="translate(0 0.684375)"/>
       <use xlink:href="#DejaVuSans-30" transform="translate(63.623047 0.684375)"/>
       <use xlink:href="#DejaVuSans-31" transform="translate(128.203125 38.965625) scale(0.7)"/>
       <use xlink:href="#DejaVuSans-35" transform="translate(172.739258 38.965625) scale(0.7)"/>
      </g>
     </g>
    </g>
    <g id="xtick_5">
     <g id="line2d_5">
      <defs>
       <path id="m24036285ba" d="M 0 0 
L 0 2 
" style="stroke: #000000; stroke-width: 0.6"/>
      </defs>
      <g>
       <use xlink:href="#m24036285ba" x="58.195153" y="307.584" style="stroke: #000000; stroke-width: 0.6"/>
      </g>
     </g>
    </g>
    <g id="xtick_6">
     <g id="line2d_6">
      <g>
       <use xlink:href="#m24036285ba" x="70.276761" y="307.584" style="stroke: #000000; stroke-width: 0.6"/>
      </g>
     </g>
    </g>
    <g id="xtick_7">
     <g id="line2d_7">
      <g>
       <use xlink:href="#m24036285ba" x="79.647984" y="307.584" style="stroke: #000000; stroke-width: 0.6"/>
      </g>
     </g>
    </g>
    <g id="xtick_8">
     <g id="line2d_8">
      <g>
       <use xlink:href="#m24036285ba" x="87.30483" y="307.584" style="stroke: #000000; stroke-width: 0.6"/>
      </g>
     </g>
    </g>
    <g id="xtick_9">
     <g id="line2d_9">
      <g>
       <use xlink:href="#m24036285ba" x="93.778602" y="307.584" style="stroke: #000000; stroke-width: 0.6"/>
      </g>
     </g>
    </g>
    <g id="xtick_10">
     <g id="line2d_10">
      <g>
       <use xlink:href="#m24036285ba" x="99.386438" y="307.584" style="stroke: #000000; stroke-width: 0.6"/>
      </g>
     </g>
    </g>
    <g id="xtick_11">
     <g id="line2d_11">
      <g>
       <use xlink:href="#m24036285ba" x="104.3329" y="307.584" style="stroke: #000000; stroke-width: 0.6"/>
      </g>
     </g>
    </g>
    <g id="xtick_12">
     <g id="line2d_12">
      <g>
       <use xlink:href="#m24036285ba" x="137.867337" y="307.584" style="stroke: #000000; stroke-width: 0.6"/>
      </g>
     </g>
    </g>
    <g id="xtick_13">
     <g id="line2d_13">
      <g>
       <use xlink:href="#m24036285ba" x="154.895407" y="307.584" style="stroke: #000000; stroke-width: 0.6"/>
      </g>
     </g>
    </g>
    <g id="xtick_14">
     <g id="line2d_14">
      <g>
       <use xlink:href="#m24036285ba" x="166.977014" y="307.584" style="stroke: #000000; stroke-width: 0.6"/>
      </g>
     </g>
    </g>
    <g id="xtick_15">
     <g id="line2d_15">
      <g>
       <use xlink:href="#m24036285ba" x="176.348237" y="307.584" style="stroke: #000000; stroke-width: 0.6"/>
      </g>
     </g>
    </g>
    <g id="xtick_16">
     <g id="line2d_16">
      <g>
       <use xlink:href="#m24036285ba" x="184.005084" y="307.584" style="stroke: #000000; stroke-width: 0.6"/>
      </g>
     </g>
    </g>
    <g id="xtick_17">
     <g id="line2d_17">
      <g>
       <use xlink:href="#m24036285ba" x="190.478855" y="307.584" style="stroke: #000000; stroke-width: 0.6"/>
      </g>
     </g>
    </g>
    <g id="xtick_18">
     <g id="line2d_18">
      <g>
       <use xlink:href="#m24036285ba" x="196.086691" y="307.584" style="stroke: #000000; stroke-width: 0.6"/>
      </g>
     </g>
    </g>
    <g id="xtick_19">
     <g id="line2d_19">
      <g>
       <use xlink:href="#m24036285ba" x="201.033153" y="307.584" style="stroke: #000000; stroke-width: 0.6"/>
      </g>
     </g>
    </g>
    <g id="xtick_20">
     <g id="line2d_20">
      <g>
       <use xlink:href="#m24036285ba" x="234.567591" y="307.584" style="stroke: #000000; stroke-width: 0.6"/>
      </g>
     </g>
    </g>
    <g id="xtick_21">
     <g id="line2d_21">
      <g>
       <use xlink:href="#m24036285ba" x="251.59566" y="307.584" style="stroke: #000000; stroke-width: 0.6"/>
      </g>
     </g>
    </g>
    <g id="xtick_22">
     <g id="line2d_22">
      <g>
       <use xlink:href="#m24036285ba" x="263.677268" y="307.584" style="stroke: #000000; stroke-width: 0.6"/>
      </g>
     </g>
    </g>
    <g id="xtick_23">
     <g id="line2d_23">
      <g>
       <use xlink:href="#m24036285ba" x="273.04849" y="307.584" style="stroke: #000000; stroke-width: 0.6"/>
      </g>
     </g>
    </g>
    <g id="xtick_24">
     <g id="line2d_24">
      <g>
       <use xlink:href="#m24036285ba" x="280.705337" y="307.584" style="stroke: #000000; stroke-width: 0.6"/>
      </g>
     </g>
    </g>
    <g id="xtick_25">
     <g id="line2d_25">
      <g>
       <use xlink:href="#m24036285ba" x="287.179108" y="307.584" style="stroke: #000000; stroke-width: 0.6"/>
      </g>
     </g>
    </g>
    <g id="xtick_26">
     <g id="line2d_26">
      <g>
       <use xlink:href="#m24036285ba" x="292.786944" y="307.584" style="stroke: #000000; stroke-width: 0.6"/>
      </g>
     </g>
    </g>
    <g id="xtick_27">
     <g id="line2d_27">
      <g>
       <use xlink:href="#m24036285ba" x="297.733406" y="307.584" style="stroke: #000000; stroke-width: 0.6"/>
      </g>
     </g>
    </g>
    <g id="xtick_28">
     <g id="line2d_28">
      <g>
       <use xlink:href="#m24036285ba" x="331.267844" y="307.584" style="stroke: #000000; stroke-width: 0.6"/>
      </g>
     </g>
    </g>
    <g id="xtick_29">
     <g id="line2d_29">
      <g>
       <use xlink:href="#m24036285ba" x="348.295913" y="307.584" style="stroke: #000000; stroke-width: 0.6"/>
      </g>
     </g>
    </g>
    <g id="xtick_30">
     <g id="line2d_30">
      <g>
       <use xlink:href="#m24036285ba" x="360.377521" y="307.584" style="stroke: #000000; stroke-width: 0.6"/>
      </g>
     </g>
    </g>
    <g id="xtick_31">
     <g id="line2d_31">
      <g>
       <use xlink:href="#m24036285ba" x="369.748744" y="307.584" style="stroke: #000000; stroke-width: 0.6"/>
      </g>
     </g>
    </g>
    <g id="xtick_32">
     <g id="line2d_32">
      <g>
       <use xlink:href="#m24036285ba" x="377.40559" y="307.584" style="stroke: #000000; stroke-width: 0.6"/>
      </g>
     </g>
    </g>
    <g id="xtick_33">
     <g id="line2d_33">
      <g>
       <use xlink:href="#m24036285ba" x="383.879362" y="307.584" style="stroke: #000000; stroke-width: 0.6"/>
      </g>
     </g>
    </g>
    <g id="xtick_34">
     <g id="line2d_34">
      <g>
       <use xlink:href="#m24036285ba" x="389.487198" y="307.584" style="stroke: #000000; stroke-width: 0.6"/>
      </g>
     </g>
    </g>
    <g id="xtick_35">
     <g id="line2d_35">
      <g>
       <use xlink:href="#m24036285ba" x="394.43366" y="307.584" style="stroke: #000000; stroke-width: 0.6"/>
      </g>
     </g>
    </g>
    <g id="text_5">
     <!-- Log time  -->
     <g transform="translate(212.75375 335.860562) scale(0.1 -0.1)">
      <defs>
       <path id="DejaVuSans-4c" d="M 628 4666 
L 1259 4666 
L 1259 531 
L 3531 531 
L 3531 0 
L 628 0 
L 628 4666 
z
" transform="scale(0.015625)"/>
       <path id="DejaVuSans-6f" d="M 1959 3097 
Q 1497 3097 1228 2736 
Q 959 2375 959 1747 
Q 959 1119 1226 758 
Q 1494 397 1959 397 
Q 2419 397 2687 759 
Q 2956 1122 2956 1747 
Q 2956 2369 2687 2733 
Q 2419 3097 1959 3097 
z
M 1959 3584 
Q 2709 3584 3137 3096 
Q 3566 2609 3566 1747 
Q 3566 888 3137 398 
Q 2709 -91 1959 -91 
Q 1206 -91 779 398 
Q 353 888 353 1747 
Q 353 2609 779 3096 
Q 1206 3584 1959 3584 
z
" transform="scale(0.015625)"/>
       <path id="DejaVuSans-67" d="M 2906 1791 
Q 2906 2416 2648 2759 
Q 2391 3103 1925 3103 
Q 1463 3103 1205 2759 
Q 947 2416 947 1791 
Q 947 1169 1205 825 
Q 1463 481 1925 481 
Q 2391 481 2648 825 
Q 2906 1169 2906 1791 
z
M 3481 434 
Q 3481 -459 3084 -895 
Q 2688 -1331 1869 -1331 
Q 1566 -1331 1297 -1286 
Q 1028 -1241 775 -1147 
L 775 -588 
Q 1028 -725 1275 -790 
Q 1522 -856 1778 -856 
Q 2344 -856 2625 -561 
Q 2906 -266 2906 331 
L 2906 616 
Q 2728 306 2450 153 
Q 2172 0 1784 0 
Q 1141 0 747 490 
Q 353 981 353 1791 
Q 353 2603 747 3093 
Q 1141 3584 1784 3584 
Q 2172 3584 2450 3431 
Q 2728 3278 2906 2969 
L 2906 3500 
L 3481 3500 
L 3481 434 
z
" transform="scale(0.015625)"/>
       <path id="DejaVuSans-20" transform="scale(0.015625)"/>
       <path id="DejaVuSans-74" d="M 1172 4494 
L 1172 3500 
L 2356 3500 
L 2356 3053 
L 1172 3053 
L 1172 1153 
Q 1172 725 1289 603 
Q 1406 481 1766 481 
L 2356 481 
L 2356 0 
L 1766 0 
Q 1100 0 847 248 
Q 594 497 594 1153 
L 594 3053 
L 172 3053 
L 172 3500 
L 594 3500 
L 594 4494 
L 1172 4494 
z
" transform="scale(0.015625)"/>
       <path id="DejaVuSans-69" d="M 603 3500 
L 1178 3500 
L 1178 0 
L 603 0 
L 603 3500 
z
M 603 4863 
L 1178 4863 
L 1178 4134 
L 603 4134 
L 603 4863 
z
" transform="scale(0.015625)"/>
       <path id="DejaVuSans-6d" d="M 3328 2828 
Q 3544 3216 3844 3400 
Q 4144 3584 4550 3584 
Q 5097 3584 5394 3201 
Q 5691 2819 5691 2113 
L 5691 0 
L 5113 0 
L 5113 2094 
Q 5113 2597 4934 2840 
Q 4756 3084 4391 3084 
Q 3944 3084 3684 2787 
Q 3425 2491 3425 1978 
L 3425 0 
L 2847 0 
L 2847 2094 
Q 2847 2600 2669 2842 
Q 2491 3084 2119 3084 
Q 1678 3084 1418 2786 
Q 1159 2488 1159 1978 
L 1159 0 
L 581 0 
L 581 3500 
L 1159 3500 
L 1159 2956 
Q 1356 3278 1631 3431 
Q 1906 3584 2284 3584 
Q 2666 3584 2933 3390 
Q 3200 3197 3328 2828 
z
" transform="scale(0.015625)"/>
       <path id="DejaVuSans-65" d="M 3597 1894 
L 3597 1613 
L 953 1613 
Q 991 1019 1311 708 
Q 1631 397 2203 397 
Q 2534 397 2845 478 
Q 3156 559 3463 722 
L 3463 178 
Q 3153 47 2828 -22 
Q 2503 -91 2169 -91 
Q 1331 -91 842 396 
Q 353 884 353 1716 
Q 353 2575 817 3079 
Q 1281 3584 2069 3584 
Q 2775 3584 3186 3129 
Q 3597 2675 3597 1894 
z
M 3022 2063 
Q 3016 2534 2758 2815 
Q 2500 3097 2075 3097 
Q 1594 3097 1305 2825 
Q 1016 2553 972 2059 
L 3022 2063 
z
" transform="scale(0.015625)"/>
      </defs>
      <use xlink:href="#DejaVuSans-4c"/>
      <use xlink:href="#DejaVuSans-6f" transform="translate(53.962891 0)"/>
      <use xlink:href="#DejaVuSans-67" transform="translate(115.144531 0)"/>
      <use xlink:href="#DejaVuSans-20" transform="translate(178.621094 0)"/>
      <use xlink:href="#DejaVuSans-74" transform="translate(210.408203 0)"/>
      <use xlink:href="#DejaVuSans-69" transform="translate(249.617188 0)"/>
      <use xlink:href="#DejaVuSans-6d" transform="translate(277.400391 0)"/>
      <use xlink:href="#DejaVuSans-65" transform="translate(374.8125 0)"/>
      <use xlink:href="#DejaVuSans-20" transform="translate(436.335938 0)"/>
     </g>
    </g>
   </g>
   <g id="matplotlib.axis_2">
    <g id="ytick_1">
     <g id="line2d_36">
      <defs>
       <path id="m46a5cf3df1" d="M 0 0 
L -3.5 0 
" style="stroke: #000000; stroke-width: 0.8"/>
      </defs>
      <g>
       <use xlink:href="#m46a5cf3df1" x="57.6" y="307.584" style="stroke: #000000; stroke-width: 0.8"/>
      </g>
     </g>
     <g id="text_6">
      <!-- 0.0 -->
      <g transform="translate(34.696875 311.383219) scale(0.1 -0.1)">
       <defs>
        <path id="DejaVuSans-2e" d="M 684 794 
L 1344 794 
L 1344 0 
L 684 0 
L 684 794 
z
" transform="scale(0.015625)"/>
       </defs>
       <use xlink:href="#DejaVuSans-30"/>
       <use xlink:href="#DejaVuSans-2e" transform="translate(63.623047 0)"/>
       <use xlink:href="#DejaVuSans-30" transform="translate(95.410156 0)"/>
      </g>
     </g>
    </g>
    <g id="ytick_2">
     <g id="line2d_37">
      <g>
       <use xlink:href="#m46a5cf3df1" x="57.6" y="254.3616" style="stroke: #000000; stroke-width: 0.8"/>
      </g>
     </g>
     <g id="text_7">
      <!-- 0.2 -->
      <g transform="translate(34.696875 258.160819) scale(0.1 -0.1)">
       <use xlink:href="#DejaVuSans-30"/>
       <use xlink:href="#DejaVuSans-2e" transform="translate(63.623047 0)"/>
       <use xlink:href="#DejaVuSans-32" transform="translate(95.410156 0)"/>
      </g>
     </g>
    </g>
    <g id="ytick_3">
     <g id="line2d_38">
      <g>
       <use xlink:href="#m46a5cf3df1" x="57.6" y="201.1392" style="stroke: #000000; stroke-width: 0.8"/>
      </g>
     </g>
     <g id="text_8">
      <!-- 0.4 -->
      <g transform="translate(34.696875 204.938419) scale(0.1 -0.1)">
       <use xlink:href="#DejaVuSans-30"/>
       <use xlink:href="#DejaVuSans-2e" transform="translate(63.623047 0)"/>
       <use xlink:href="#DejaVuSans-34" transform="translate(95.410156 0)"/>
      </g>
     </g>
    </g>
    <g id="ytick_4">
     <g id="line2d_39">
      <g>
       <use xlink:href="#m46a5cf3df1" x="57.6" y="147.9168" style="stroke: #000000; stroke-width: 0.8"/>
      </g>
     </g>
     <g id="text_9">
      <!-- 0.6 -->
      <g transform="translate(34.696875 151.716019) scale(0.1 -0.1)">
       <defs>
        <path id="DejaVuSans-36" d="M 2113 2584 
Q 1688 2584 1439 2293 
Q 1191 2003 1191 1497 
Q 1191 994 1439 701 
Q 1688 409 2113 409 
Q 2538 409 2786 701 
Q 3034 994 3034 1497 
Q 3034 2003 2786 2293 
Q 2538 2584 2113 2584 
z
M 3366 4563 
L 3366 3988 
Q 3128 4100 2886 4159 
Q 2644 4219 2406 4219 
Q 1781 4219 1451 3797 
Q 1122 3375 1075 2522 
Q 1259 2794 1537 2939 
Q 1816 3084 2150 3084 
Q 2853 3084 3261 2657 
Q 3669 2231 3669 1497 
Q 3669 778 3244 343 
Q 2819 -91 2113 -91 
Q 1303 -91 875 529 
Q 447 1150 447 2328 
Q 447 3434 972 4092 
Q 1497 4750 2381 4750 
Q 2619 4750 2861 4703 
Q 3103 4656 3366 4563 
z
" transform="scale(0.015625)"/>
       </defs>
       <use xlink:href="#DejaVuSans-30"/>
       <use xlink:href="#DejaVuSans-2e" transform="translate(63.623047 0)"/>
       <use xlink:href="#DejaVuSans-36" transform="translate(95.410156 0)"/>
      </g>
     </g>
    </g>
    <g id="ytick_5">
     <g id="line2d_40">
      <g>
       <use xlink:href="#m46a5cf3df1" x="57.6" y="94.6944" style="stroke: #000000; stroke-width: 0.8"/>
      </g>
     </g>
     <g id="text_10">
      <!-- 0.8 -->
      <g transform="translate(34.696875 98.493619) scale(0.1 -0.1)">
       <defs>
        <path id="DejaVuSans-38" d="M 2034 2216 
Q 1584 2216 1326 1975 
Q 1069 1734 1069 1313 
Q 1069 891 1326 650 
Q 1584 409 2034 409 
Q 2484 409 2743 651 
Q 3003 894 3003 1313 
Q 3003 1734 2745 1975 
Q 2488 2216 2034 2216 
z
M 1403 2484 
Q 997 2584 770 2862 
Q 544 3141 544 3541 
Q 544 4100 942 4425 
Q 1341 4750 2034 4750 
Q 2731 4750 3128 4425 
Q 3525 4100 3525 3541 
Q 3525 3141 3298 2862 
Q 3072 2584 2669 2484 
Q 3125 2378 3379 2068 
Q 3634 1759 3634 1313 
Q 3634 634 3220 271 
Q 2806 -91 2034 -91 
Q 1263 -91 848 271 
Q 434 634 434 1313 
Q 434 1759 690 2068 
Q 947 2378 1403 2484 
z
M 1172 3481 
Q 1172 3119 1398 2916 
Q 1625 2713 2034 2713 
Q 2441 2713 2670 2916 
Q 2900 3119 2900 3481 
Q 2900 3844 2670 4047 
Q 2441 4250 2034 4250 
Q 1625 4250 1398 4047 
Q 1172 3844 1172 3481 
z
" transform="scale(0.015625)"/>
       </defs>
       <use xlink:href="#DejaVuSans-30"/>
       <use xlink:href="#DejaVuSans-2e" transform="translate(63.623047 0)"/>
       <use xlink:href="#DejaVuSans-38" transform="translate(95.410156 0)"/>
      </g>
     </g>
    </g>
    <g id="ytick_6">
     <g id="line2d_41">
      <g>
       <use xlink:href="#m46a5cf3df1" x="57.6" y="41.472" style="stroke: #000000; stroke-width: 0.8"/>
      </g>
     </g>
     <g id="text_11">
      <!-- 1.0 -->
      <g transform="translate(34.696875 45.271219) scale(0.1 -0.1)">
       <use xlink:href="#DejaVuSans-31"/>
       <use xlink:href="#DejaVuSans-2e" transform="translate(63.623047 0)"/>
       <use xlink:href="#DejaVuSans-30" transform="translate(95.410156 0)"/>
      </g>
     </g>
    </g>
    <g id="text_12">
     <!-- Percent of filled traps -->
     <g transform="translate(28.617187 227.95925) rotate(-90) scale(0.1 -0.1)">
      <defs>
       <path id="DejaVuSans-50" d="M 1259 4147 
L 1259 2394 
L 2053 2394 
Q 2494 2394 2734 2622 
Q 2975 2850 2975 3272 
Q 2975 3691 2734 3919 
Q 2494 4147 2053 4147 
L 1259 4147 
z
M 628 4666 
L 2053 4666 
Q 2838 4666 3239 4311 
Q 3641 3956 3641 3272 
Q 3641 2581 3239 2228 
Q 2838 1875 2053 1875 
L 1259 1875 
L 1259 0 
L 628 0 
L 628 4666 
z
" transform="scale(0.015625)"/>
       <path id="DejaVuSans-72" d="M 2631 2963 
Q 2534 3019 2420 3045 
Q 2306 3072 2169 3072 
Q 1681 3072 1420 2755 
Q 1159 2438 1159 1844 
L 1159 0 
L 581 0 
L 581 3500 
L 1159 3500 
L 1159 2956 
Q 1341 3275 1631 3429 
Q 1922 3584 2338 3584 
Q 2397 3584 2469 3576 
Q 2541 3569 2628 3553 
L 2631 2963 
z
" transform="scale(0.015625)"/>
       <path id="DejaVuSans-63" d="M 3122 3366 
L 3122 2828 
Q 2878 2963 2633 3030 
Q 2388 3097 2138 3097 
Q 1578 3097 1268 2742 
Q 959 2388 959 1747 
Q 959 1106 1268 751 
Q 1578 397 2138 397 
Q 2388 397 2633 464 
Q 2878 531 3122 666 
L 3122 134 
Q 2881 22 2623 -34 
Q 2366 -91 2075 -91 
Q 1284 -91 818 406 
Q 353 903 353 1747 
Q 353 2603 823 3093 
Q 1294 3584 2113 3584 
Q 2378 3584 2631 3529 
Q 2884 3475 3122 3366 
z
" transform="scale(0.015625)"/>
       <path id="DejaVuSans-6e" d="M 3513 2113 
L 3513 0 
L 2938 0 
L 2938 2094 
Q 2938 2591 2744 2837 
Q 2550 3084 2163 3084 
Q 1697 3084 1428 2787 
Q 1159 2491 1159 1978 
L 1159 0 
L 581 0 
L 581 3500 
L 1159 3500 
L 1159 2956 
Q 1366 3272 1645 3428 
Q 1925 3584 2291 3584 
Q 2894 3584 3203 3211 
Q 3513 2838 3513 2113 
z
" transform="scale(0.015625)"/>
       <path id="DejaVuSans-66" d="M 2375 4863 
L 2375 4384 
L 1825 4384 
Q 1516 4384 1395 4259 
Q 1275 4134 1275 3809 
L 1275 3500 
L 2222 3500 
L 2222 3053 
L 1275 3053 
L 1275 0 
L 697 0 
L 697 3053 
L 147 3053 
L 147 3500 
L 697 3500 
L 697 3744 
Q 697 4328 969 4595 
Q 1241 4863 1831 4863 
L 2375 4863 
z
" transform="scale(0.015625)"/>
       <path id="DejaVuSans-6c" d="M 603 4863 
L 1178 4863 
L 1178 0 
L 603 0 
L 603 4863 
z
" transform="scale(0.015625)"/>
       <path id="DejaVuSans-64" d="M 2906 2969 
L 2906 4863 
L 3481 4863 
L 3481 0 
L 2906 0 
L 2906 525 
Q 2725 213 2448 61 
Q 2172 -91 1784 -91 
Q 1150 -91 751 415 
Q 353 922 353 1747 
Q 353 2572 751 3078 
Q 1150 3584 1784 3584 
Q 2172 3584 2448 3432 
Q 2725 3281 2906 2969 
z
M 947 1747 
Q 947 1113 1208 752 
Q 1469 391 1925 391 
Q 2381 391 2643 752 
Q 2906 1113 2906 1747 
Q 2906 2381 2643 2742 
Q 2381 3103 1925 3103 
Q 1469 3103 1208 2742 
Q 947 2381 947 1747 
z
" transform="scale(0.015625)"/>
       <path id="DejaVuSans-61" d="M 2194 1759 
Q 1497 1759 1228 1600 
Q 959 1441 959 1056 
Q 959 750 1161 570 
Q 1363 391 1709 391 
Q 2188 391 2477 730 
Q 2766 1069 2766 1631 
L 2766 1759 
L 2194 1759 
z
M 3341 1997 
L 3341 0 
L 2766 0 
L 2766 531 
Q 2569 213 2275 61 
Q 1981 -91 1556 -91 
Q 1019 -91 701 211 
Q 384 513 384 1019 
Q 384 1609 779 1909 
Q 1175 2209 1959 2209 
L 2766 2209 
L 2766 2266 
Q 2766 2663 2505 2880 
Q 2244 3097 1772 3097 
Q 1472 3097 1187 3025 
Q 903 2953 641 2809 
L 641 3341 
Q 956 3463 1253 3523 
Q 1550 3584 1831 3584 
Q 2591 3584 2966 3190 
Q 3341 2797 3341 1997 
z
" transform="scale(0.015625)"/>
       <path id="DejaVuSans-70" d="M 1159 525 
L 1159 -1331 
L 581 -1331 
L 581 3500 
L 1159 3500 
L 1159 2969 
Q 1341 3281 1617 3432 
Q 1894 3584 2278 3584 
Q 2916 3584 3314 3078 
Q 3713 2572 3713 1747 
Q 3713 922 3314 415 
Q 2916 -91 2278 -91 
Q 1894 -91 1617 61 
Q 1341 213 1159 525 
z
M 3116 1747 
Q 3116 2381 2855 2742 
Q 2594 3103 2138 3103 
Q 1681 3103 1420 2742 
Q 1159 2381 1159 1747 
Q 1159 1113 1420 752 
Q 1681 391 2138 391 
Q 2594 391 2855 752 
Q 3116 1113 3116 1747 
z
" transform="scale(0.015625)"/>
       <path id="DejaVuSans-73" d="M 2834 3397 
L 2834 2853 
Q 2591 2978 2328 3040 
Q 2066 3103 1784 3103 
Q 1356 3103 1142 2972 
Q 928 2841 928 2578 
Q 928 2378 1081 2264 
Q 1234 2150 1697 2047 
L 1894 2003 
Q 2506 1872 2764 1633 
Q 3022 1394 3022 966 
Q 3022 478 2636 193 
Q 2250 -91 1575 -91 
Q 1294 -91 989 -36 
Q 684 19 347 128 
L 347 722 
Q 666 556 975 473 
Q 1284 391 1588 391 
Q 1994 391 2212 530 
Q 2431 669 2431 922 
Q 2431 1156 2273 1281 
Q 2116 1406 1581 1522 
L 1381 1569 
Q 847 1681 609 1914 
Q 372 2147 372 2553 
Q 372 3047 722 3315 
Q 1072 3584 1716 3584 
Q 2034 3584 2315 3537 
Q 2597 3491 2834 3397 
z
" transform="scale(0.015625)"/>
      </defs>
      <use xlink:href="#DejaVuSans-50"/>
      <use xlink:href="#DejaVuSans-65" transform="translate(56.677734 0)"/>
      <use xlink:href="#DejaVuSans-72" transform="translate(118.201172 0)"/>
      <use xlink:href="#DejaVuSans-63" transform="translate(157.064453 0)"/>
      <use xlink:href="#DejaVuSans-65" transform="translate(212.044922 0)"/>
      <use xlink:href="#DejaVuSans-6e" transform="translate(273.568359 0)"/>
      <use xlink:href="#DejaVuSans-74" transform="translate(336.947266 0)"/>
      <use xlink:href="#DejaVuSans-20" transform="translate(376.15625 0)"/>
      <use xlink:href="#DejaVuSans-6f" transform="translate(407.943359 0)"/>
      <use xlink:href="#DejaVuSans-66" transform="translate(469.125 0)"/>
      <use xlink:href="#DejaVuSans-20" transform="translate(504.330078 0)"/>
      <use xlink:href="#DejaVuSans-66" transform="translate(536.117188 0)"/>
      <use xlink:href="#DejaVuSans-69" transform="translate(571.322266 0)"/>
      <use xlink:href="#DejaVuSans-6c" transform="translate(599.105469 0)"/>
      <use xlink:href="#DejaVuSans-6c" transform="translate(626.888672 0)"/>
      <use xlink:href="#DejaVuSans-65" transform="translate(654.671875 0)"/>
      <use xlink:href="#DejaVuSans-64" transform="translate(716.195312 0)"/>
      <use xlink:href="#DejaVuSans-20" transform="translate(779.671875 0)"/>
      <use xlink:href="#DejaVuSans-74" transform="translate(811.458984 0)"/>
      <use xlink:href="#DejaVuSans-72" transform="translate(850.667969 0)"/>
      <use xlink:href="#DejaVuSans-61" transform="translate(891.78125 0)"/>
      <use xlink:href="#DejaVuSans-70" transform="translate(953.060547 0)"/>
      <use xlink:href="#DejaVuSans-73" transform="translate(1016.537109 0)"/>
     </g>
    </g>
   </g>
   <g id="line2d_42">
    <path d="M 73.832727 306.430848 
L 85.119203 306.324403 
L 85.119203 306.288922 
L 172.506071 306.182477 
L 172.506071 306.182477 
L 175.486353 305.934106 
L 175.486353 305.951846 
L 177.181737 305.934106 
L 179.077177 305.951846 
L 179.077177 305.934106 
L 180.886492 306.164736 
L 180.886492 306.182477 
L 183.34307 306.25344 
L 183.34307 306.25344 
L 218.446072 306.342144 
L 218.446072 306.359885 
L 219.16397 306.590515 
L 219.265532 306.643738 
L 219.968339 306.874368 
L 220.067644 306.92759 
L 221.816116 307.14048 
L 221.816116 307.14048 
L 231.160635 307.034035 
L 231.160635 307.034035 
L 233.026225 306.25344 
L 233.026225 306.25344 
L 235.509751 306.359885 
L 235.578595 306.430848 
L 235.852848 306.537293 
L 235.921133 306.608256 
L 236.125322 306.679219 
L 236.125322 306.714701 
L 237.128534 307.14048 
L 237.128534 307.14048 
L 255.080626 307.051776 
L 255.080626 307.034035 
L 255.594553 306.714701 
L 255.594553 306.714701 
L 256.061463 306.182477 
L 256.145852 306.005069 
L 257.065192 305.3664 
L 257.065192 305.3664 
L 258.046711 305.259955 
L 258.046711 305.259955 
L 259.007549 304.497101 
L 259.007549 304.514842 
L 259.284127 304.745472 
L 259.362816 304.834176 
L 259.636678 305.064806 
L 259.714447 305.15351 
L 260.44616 305.3664 
L 260.44616 305.3664 
L 262.276397 305.455104 
L 262.276397 305.472845 
L 262.531468 305.703475 
L 262.640311 305.827661 
L 262.892463 306.058291 
L 263.000014 306.182477 
L 263.321026 306.235699 
L 263.569017 306.217958 
L 263.850771 306.235699 
L 263.850771 306.217958 
L 263.955899 306.217958 
L 264.269713 306.25344 
L 264.269713 306.25344 
L 274.076822 306.182477 
L 274.076822 306.146995 
L 274.241521 305.756698 
L 274.350963 305.437363 
L 274.569912 304.976102 
L 274.679235 304.656768 
L 274.951304 304.47936 
L 274.951304 304.47936 
L 275.113703 304.585805 
L 275.221621 304.763213 
L 275.329263 304.869658 
L 275.436449 305.047066 
L 275.436449 305.047066 
L 275.596447 305.082547 
L 275.596447 305.082547 
L 275.755838 304.976102 
L 275.755838 304.976102 
L 276.258037 304.47936 
L 276.258037 304.47936 
L 277.090943 304.372915 
L 277.090943 304.372915 
L 277.782457 303.59232 
L 277.782457 303.59232 
L 279.6968 303.698765 
L 279.793901 303.876173 
L 279.890779 303.982618 
L 279.98727 304.160026 
L 279.98727 304.160026 
L 280.322689 304.47936 
L 280.322689 304.47936 
L 280.608073 304.585805 
L 280.702772 304.763213 
L 280.797258 304.869658 
L 280.891373 305.047066 
L 280.891373 305.047066 
L 281.218575 305.3664 
L 281.218575 305.3664 
L 282.298758 305.259955 
L 282.389419 304.869658 
L 282.774156 303.326208 
L 282.864711 302.847206 
L 282.932499 302.687539 
L 283.022561 302.527872 
L 283.022561 302.527872 
L 283.538099 302.616576 
L 283.538099 302.634317 
L 283.804308 302.70528 
L 283.804308 302.70528 
L 285.791047 302.811725 
L 285.896376 303.024614 
L 285.980449 303.131059 
L 286.08502 303.343949 
L 286.08502 303.343949 
L 286.86945 304.47936 
L 286.86945 304.47936 
L 287.356726 304.390656 
L 287.356726 304.372915 
L 287.558073 304.053581 
L 287.558073 304.053581 
L 287.939139 303.59232 
L 287.939139 303.59232 
L 288.35648 303.681024 
L 288.35648 303.698765 
L 288.534079 304.000358 
L 288.632223 304.195507 
L 288.983375 304.372915 
L 288.983375 304.372915 
L 289.389149 304.26647 
L 289.485186 304.071322 
L 289.696216 303.734246 
L 289.791878 303.503616 
L 290.07782 303.37943 
L 290.07782 303.37943 
L 290.26733 303.485875 
L 290.26733 303.485875 
L 290.437045 303.59232 
L 290.437045 303.59232 
L 290.942113 303.485875 
L 290.942113 303.485875 
L 291.460612 302.70528 
L 291.460612 302.70528 
L 292.354039 302.598835 
L 292.354039 302.598835 
L 292.659982 302.208538 
L 292.999379 302.687539 
L 292.999379 302.70528 
L 293.105837 302.70528 
L 293.721521 302.598835 
L 293.721521 302.598835 
L 294.225968 301.81824 
L 294.225968 301.81824 
L 294.707957 301.906944 
L 294.707957 301.924685 
L 294.878764 302.26176 
L 294.980626 302.49239 
L 295.048359 302.527872 
L 295.099087 302.456909 
L 295.301618 302.084352 
L 295.402805 301.853722 
L 295.587579 301.81824 
L 295.587579 301.81824 
L 296.285694 301.906944 
L 296.285694 301.924685 
L 296.450215 302.26176 
L 296.54834 302.49239 
L 296.889792 302.70528 
L 296.889792 302.70528 
L 297.131998 302.598835 
L 297.131998 302.598835 
L 297.485325 301.924685 
L 297.517353 301.995648 
L 297.677074 302.332723 
L 297.756464 302.527872 
L 297.788178 302.527872 
L 297.804026 302.510131 
L 297.835704 302.598835 
L 297.867358 302.598835 
L 298.976054 302.49239 
L 298.976054 302.49239 
L 299.375724 301.81824 
L 299.375724 301.81824 
L 299.908359 301.711795 
L 299.908359 301.711795 
L 300.255401 301.179571 
L 300.255401 301.179571 
L 300.614217 301.765018 
L 300.614217 301.747277 
L 301.101582 302.173056 
L 301.204345 301.960166 
L 301.262954 301.853722 
L 301.365323 301.676314 
L 301.482012 301.108608 
L 301.584099 300.434458 
L 302.050928 298.660378 
L 302.109163 298.553933 
L 302.21088 298.27008 
L 303.609638 298.163635 
L 303.609638 298.163635 
L 303.819875 297.915264 
L 304.237122 298.27008 
L 304.237122 298.27008 
L 304.292405 298.358784 
L 304.292405 298.376525 
L 304.416526 298.678118 
L 304.526264 299.299046 
L 304.580978 299.529677 
L 304.689866 300.04416 
L 304.74418 300.27479 
L 304.811975 300.115123 
L 304.960509 300.097382 
L 304.960509 300.115123 
L 305.068511 299.866752 
L 305.122338 299.973197 
L 305.122338 299.973197 
L 305.256606 300.04416 
L 305.256606 300.04416 
L 305.403806 299.937715 
L 305.510538 299.405491 
L 305.510538 299.405491 
L 305.724108 298.873267 
L 305.763996 298.979712 
L 306.278367 300.04416 
L 306.278367 300.04416 
L 308.569669 300.150605 
L 308.668659 300.469939 
L 308.705678 300.576384 
L 308.705678 300.576384 
L 308.938845 300.9312 
L 308.938845 300.9312 
L 309.606637 300.824755 
L 309.606637 300.824755 
L 309.883212 300.25705 
L 309.895217 300.292531 
L 310.038808 300.70057 
L 310.110276 300.9312 
L 310.145965 300.9312 
L 310.240987 300.824755 
L 310.240987 300.824755 
L 310.702781 299.299046 
L 310.773615 299.547418 
L 310.808986 299.653862 
L 310.808986 299.653862 
L 311.043275 300.026419 
L 311.043275 300.008678 
L 311.171557 300.04416 
L 311.171557 300.04416 
L 311.299448 300.008678 
L 311.299448 300.026419 
L 311.403838 300.008678 
L 311.554108 300.04416 
L 311.554108 300.04416 
L 312.229427 300.150605 
L 312.331494 300.505421 
L 312.331494 300.505421 
L 312.466773 300.860237 
L 312.500515 300.71831 
L 312.635328 299.937715 
L 312.736685 299.299046 
L 312.781689 299.192602 
L 312.88277 299.015194 
L 312.88277 299.015194 
L 313.17412 298.199117 
L 313.241139 298.234598 
L 313.363731 298.27008 
L 313.363731 298.27008 
L 313.485966 298.358784 
L 313.485966 298.376525 
L 313.61887 298.784563 
L 313.728955 299.15712 
L 314.068395 299.245824 
L 314.068395 299.263565 
L 314.199021 299.671603 
L 314.307225 300.04416 
L 314.929367 300.132864 
L 314.929367 300.150605 
L 315.067485 300.594125 
L 315.162563 300.9312 
L 315.173114 300.9312 
L 315.257427 300.824755 
L 315.257427 300.824755 
L 315.467794 299.760307 
L 315.572963 299.245824 
L 315.709669 299.015194 
L 315.751598 299.15712 
L 316.478665 299.263565 
L 316.581511 299.653862 
L 316.581511 299.653862 
L 316.693965 299.760307 
L 316.704174 299.724826 
L 317.051042 298.128154 
L 317.153025 297.59593 
L 317.19382 297.489485 
L 317.214202 297.38304 
L 317.295633 297.38304 
L 317.538983 297.276595 
L 317.538983 297.276595 
L 318.174246 295.431552 
L 318.334565 295.573478 
L 318.344554 295.537997 
L 318.783044 294.083251 
L 318.812894 294.260659 
L 318.862526 294.562253 
L 318.97111 295.39607 
L 318.97111 295.39607 
L 319.039931 295.60896 
L 319.098831 295.449293 
L 319.245891 294.970291 
L 319.324296 294.72192 
L 319.35366 294.72192 
L 319.451393 294.810624 
L 319.451393 294.828365 
L 319.674911 295.147699 
L 319.694327 295.041254 
L 319.733131 294.93481 
L 319.781586 294.72192 
L 319.839658 294.863846 
L 319.974715 295.342848 
L 320.041912 295.60896 
L 320.080262 295.60896 
L 320.195103 295.502515 
L 320.195103 295.502515 
L 320.347904 295.325107 
L 320.462117 295.39607 
L 320.481105 295.342848 
L 320.670885 294.828365 
L 320.746676 295.076736 
L 320.850403 295.502515 
L 320.850403 295.502515 
L 320.944388 295.60896 
L 320.96316 295.537997 
L 321.319482 294.083251 
L 321.384989 294.367104 
L 321.478112 294.72192 
L 321.533886 294.50903 
L 321.821629 293.83488 
L 321.821629 293.83488 
L 321.858648 293.763917 
L 321.858648 293.728435 
L 321.997307 292.770432 
L 322.090059 292.0608 
L 322.099323 292.0608 
L 322.413184 291.972096 
L 322.413184 291.954355 
L 322.523367 291.528576 
L 322.633619 290.28672 
L 322.799719 289.044864 
L 322.864355 289.364198 
L 322.974238 290.251238 
L 323.183567 290.623795 
L 323.183567 290.623795 
L 323.228966 290.570573 
L 323.228966 290.552832 
L 323.31062 290.109312 
L 323.374084 290.339942 
L 323.446488 290.694758 
L 323.554378 291.883392 
L 323.634797 292.522061 
L 323.688155 292.043059 
L 323.857818 289.825459 
L 324.318359 284.041958 
L 324.427361 284.325811 
L 324.69707 284.96448 
L 324.69707 284.96448 
L 324.804471 285.053184 
L 324.804471 285.070925 
L 324.929328 285.549926 
L 325.000306 285.85152 
L 325.03575 285.85152 
L 325.212521 285.745075 
L 325.212521 285.745075 
L 325.960246 283.1904 
L 325.960246 283.1904 
L 326.073971 283.083955 
L 326.073971 283.083955 
L 326.213679 282.97751 
L 326.213679 282.97751 
L 326.335436 282.871066 
L 326.335436 282.871066 
L 326.544087 281.558246 
L 326.648426 281.221171 
L 326.743973 281.114726 
L 326.847849 280.582502 
L 326.925925 280.458317 
L 326.951982 280.617984 
L 327.055506 282.019507 
L 327.412215 284.112922 
L 327.412215 284.07744 
L 327.437501 284.006477 
L 327.437501 283.970995 
L 327.496443 283.261363 
L 327.606215 282.232397 
L 327.682579 281.682432 
L 327.741673 282.019507 
L 327.851176 282.161434 
L 327.867983 282.09047 
L 328.094654 281.593728 
L 328.094654 281.593728 
L 328.12819 281.487283 
L 328.237 280.955059 
L 328.32916 280.08576 
L 328.354268 279.801907 
L 328.438258 280.245427 
L 328.496949 281.274394 
L 328.60426 283.970995 
L 328.864743 284.96448 
L 328.864743 284.96448 
L 328.937713 284.858035 
L 328.937713 284.858035 
L 329.123944 284.130662 
L 329.188651 284.254848 
L 329.454515 283.40329 
L 329.510901 283.083955 
L 329.559172 283.083955 
L 329.671677 283.154918 
L 329.679695 283.119437 
L 329.815919 282.019507 
L 329.920449 280.884096 
L 330.372968 277.726234 
L 330.381032 277.761715 
L 330.445482 278.169754 
L 330.549764 278.861645 
L 330.709105 279.180979 
L 330.717074 279.110016 
L 330.796682 279.021312 
L 330.796682 279.003571 
L 330.820535 278.98583 
L 330.844374 279.127757 
L 330.852318 279.127757 
L 330.963043 279.943834 
L 331.065224 280.369613 
L 331.198561 280.209946 
L 331.417242 279.464832 
L 331.464147 279.110016 
L 331.526723 279.358387 
L 331.643251 280.387354 
L 331.666454 280.52928 
L 331.751423 280.103501 
L 331.929601 278.471347 
L 331.976111 279.039053 
L 332.083717 280.227686 
L 332.129684 280.422835 
L 332.198483 280.227686 
L 332.251922 280.121242 
L 332.358852 279.926093 
L 332.602412 279.287424 
L 332.655595 279.500314 
L 332.67833 279.606758 
L 332.708624 279.784166 
L 332.784153 279.766426 
L 332.814371 279.42935 
L 332.897388 278.506829 
L 333.056952 275.987635 
L 333.140973 275.278003 
L 333.163874 275.278003 
L 333.300818 275.845709 
L 333.406834 276.413414 
L 333.452021 276.76823 
L 333.497187 277.264973 
L 333.557116 277.19401 
L 333.616932 276.803712 
L 333.722126 275.136077 
L 333.797396 274.249037 
L 333.888198 273.113626 
L 333.903312 273.184589 
L 333.994146 273.66359 
L 334.136639 274.302259 
L 334.174049 274.160333 
L 334.278735 273.255552 
L 334.323787 272.882995 
L 334.428787 271.907251 
L 334.586694 270.77184 
L 334.751644 270.896026 
L 334.766623 270.913766 
L 334.796566 270.736358 
L 334.901341 270.150912 
L 334.931304 270.11543 
L 334.968727 270.257357 
L 334.976208 270.239616 
L 335.09537 270.718618 
L 335.162243 270.417024 
L 335.251339 269.920282 
L 335.35539 269.22839 
L 335.40745 268.820352 
L 335.51155 268.288128 
L 335.578485 268.376832 
L 335.578485 268.394573 
L 335.623049 268.731648 
L 335.733563 270.842803 
L 336.060375 271.907251 
L 336.355945 270.913766 
L 336.37757 270.77184 
L 336.463958 270.77184 
L 336.521452 270.665395 
L 336.521452 270.665395 
L 336.571695 269.8848 
L 336.679857 267.720422 
L 336.789071 266.265677 
L 336.789071 266.283418 
L 336.825441 266.265677 
L 336.854572 266.389862 
L 336.861838 266.372122 
L 336.934392 266.833382 
L 337.150317 267.755904 
L 337.186234 267.578496 
L 337.365475 266.159232 
L 337.473206 265.307674 
L 337.573947 264.278707 
L 337.674962 263.764224 
L 337.682172 263.781965 
L 337.797281 263.764224 
L 337.811659 263.781965 
L 337.840398 263.604557 
L 337.948141 262.57559 
L 338.157083 261.032141 
L 338.265466 260.020915 
L 338.265466 260.038656 
L 338.27275 260.020915 
L 338.309004 260.216064 
L 338.416616 261.759514 
L 338.523577 262.256256 
L 338.566125 262.043366 
L 338.7085 261.0144 
L 338.765372 261.369216 
L 338.871507 263.356186 
L 339.094232 265.254451 
L 339.156429 265.112525 
L 339.170238 265.041562 
L 339.274046 264.101299 
L 339.280987 264.101299 
L 339.357233 263.604557 
L 339.357233 263.604557 
L 339.454165 262.57559 
L 339.558605 259.949952 
L 340.336769 252.729446 
L 340.365227 252.906854 
L 340.386624 253.013299 
L 340.457513 253.421338 
L 340.492794 253.208448 
L 340.563444 252.321408 
L 340.670272 250.192512 
L 340.727621 249.376435 
L 340.835186 248.666803 
L 340.863942 248.59584 
L 340.892617 248.773248 
L 340.97128 249.678029 
L 341.077437 250.866662 
L 341.077437 250.866662 
L 341.11968 251.079552 
L 341.183115 250.831181 
L 341.183115 250.831181 
L 341.267497 249.837696 
L 341.3311 249.411917 
L 341.373721 249.411917 
L 341.465059 249.819955 
L 341.514304 249.518362 
L 341.577594 248.915174 
L 341.683157 249.057101 
L 341.774092 249.48288 
L 341.850883 249.376435 
L 342.05326 247.779763 
L 342.06726 247.673318 
L 342.158416 247.673318 
L 342.186251 247.744282 
L 342.227953 247.49591 
L 342.234925 247.49591 
L 342.339811 246.218573 
L 342.374865 245.899238 
L 342.50082 245.970202 
L 342.577607 246.786278 
L 342.605375 246.573389 
L 342.751311 244.621901 
L 342.856276 243.94775 
L 342.856276 243.94775 
L 342.982195 242.776858 
L 343.087665 240.949555 
L 343.250541 238.927104 
L 343.357421 236.85143 
L 343.777807 232.167859 
L 344.017477 231.29856 
L 344.126423 230.358298 
L 344.373504 229.488998 
L 344.439009 228.974515 
L 344.482622 229.151923 
L 344.591356 229.258368 
L 344.605778 229.187405 
L 344.678154 228.300365 
L 344.787383 226.597248 
L 344.926241 226.295654 
L 344.969938 225.923098 
L 345.079809 224.486093 
L 345.138531 224.237722 
L 345.175252 224.539315 
L 345.212014 224.85865 
L 345.320908 226.508544 
L 345.507872 227.466547 
L 345.536391 227.289139 
L 345.543509 227.30688 
L 345.586261 227.129472 
L 345.708159 225.905357 
L 345.76566 226.579507 
L 345.900344 228.122957 
L 345.98515 227.395584 
L 346.133807 226.100506 
L 346.240369 224.610278 
L 346.333457 223.882906 
L 346.397702 224.344166 
L 346.567345 225.497318 
L 346.595591 225.213466 
L 346.645096 224.397389 
L 346.751398 222.42816 
L 347.081939 219.09289 
L 347.341481 218.152627 
L 347.363101 218.259072 
L 347.392007 218.347776 
L 347.392007 218.365517 
L 347.435255 218.720333 
L 347.499541 219.873485 
L 347.542072 219.749299 
L 347.605668 219.642854 
L 347.605668 219.660595 
L 347.669908 219.057408 
L 347.705522 219.660595 
L 347.811203 221.75401 
L 347.846068 222.321715 
L 347.91544 221.807232 
L 348.006117 221.416934 
L 348.041167 221.700787 
L 348.144701 222.623309 
L 348.234441 222.108826 
L 348.234441 222.091085 
L 348.296549 222.623309 
L 348.344658 222.623309 
L 348.701558 221.133082 
L 348.70849 221.31049 
L 348.811033 223.97161 
L 348.917525 226.313395 
L 348.917525 226.295654 
L 348.957294 226.384358 
L 348.996994 226.171469 
L 349.003612 226.171469 
L 349.242452 224.290944 
L 349.349175 222.924902 
L 349.389506 222.516864 
L 349.516808 220.636339 
L 349.564407 219.926707 
L 349.625449 220.068634 
L 349.65233 220.104115 
L 349.672455 219.891226 
L 349.733106 219.004186 
L 349.794312 218.613888 
L 349.848821 218.862259 
L 349.936151 219.731558 
L 350.036899 219.288038 
L 350.144441 217.957478 
L 350.239191 216.963994 
L 350.334034 217.301069 
L 350.434772 217.833293 
L 350.488389 217.54944 
L 350.595993 216.307584 
L 350.616343 216.201139 
L 350.724063 215.899546 
L 350.771225 215.526989 
L 350.859013 214.551245 
L 350.879374 214.622208 
L 350.926915 215.420544 
L 351.033443 218.117146 
L 351.099297 218.312294 
L 351.158611 218.259072 
L 351.621385 219.731558 
L 351.204617 218.20585 
L 351.660134 219.341261 
L 351.679415 219.199334 
L 351.769987 219.199334 
L 351.795754 219.270298 
L 351.795754 219.305779 
L 352.006682 221.026637 
L 352.070075 220.263782 
L 352.153007 218.631629 
L 352.262515 216.626918 
L 352.469792 215.597952 
L 352.502112 215.881805 
L 352.63687 216.768845 
L 352.668899 216.414029 
L 352.861831 215.349581 
L 352.868204 215.420544 
L 352.945166 215.349581 
L 353.054246 213.380352 
L 353.106226 212.103014 
L 353.217261 210.328934 
L 353.315826 208.111334 
L 353.422764 205.379251 
L 353.612669 202.008499 
L 353.687864 202.824576 
L 353.728545 203.197133 
L 353.809309 203.782579 
L 353.836282 203.782579 
L 353.936836 204.279322 
L 354.003555 203.924506 
L 354.037113 203.747098 
L 354.110772 203.942246 
L 354.117432 204.01321 
L 354.217169 203.197133 
L 354.264127 202.771354 
L 354.391566 201.564979 
L 354.499613 199.453824 
L 354.882754 195.58633 
L 355.211735 190.849536 
L 355.23987 191.097907 
L 355.394135 192.446208 
L 355.505212 192.889728 
L 355.595158 193.191322 
L 355.63642 192.92521 
L 355.670774 192.534912 
L 355.767953 190.423757 
L 355.852529 189.37705 
L 355.873656 189.37705 
L 355.90181 189.483494 
L 355.957808 189.944755 
L 356.006672 189.483494 
L 356.154496 187.549747 
L 356.260336 186.751411 
L 356.697252 182.653286 
L 356.697252 182.653286 
L 356.75515 183.079066 
L 356.86254 184.51607 
L 356.912013 184.835405 
L 356.982819 184.551552 
L 357.039342 184.480589 
L 357.053461 184.622515 
L 357.221199 186.94656 
L 357.290415 185.953075 
L 357.346138 184.693478 
L 357.699859 177.827789 
L 357.736509 178.342272 
L 357.801612 178.9632 
L 357.837377 178.342272 
L 357.93914 176.834304 
L 358.049574 174.865075 
L 358.131273 173.037773 
L 358.259743 171.370138 
L 358.31286 171.813658 
L 358.536121 173.374848 
L 358.580569 172.98455 
L 358.617574 172.878106 
L 358.654596 173.161958 
L 358.765128 174.332851 
L 358.779673 174.403814 
L 358.801383 174.598963 
L 358.888987 173.889331 
L 359.006127 172.558771 
L 359.087576 173.037773 
L 359.196435 174.457037 
L 359.196435 174.439296 
L 359.254326 174.368333 
L 359.254326 174.332851 
L 359.653112 171.849139 
L 359.703947 171.316915 
L 359.762168 171.42336 
L 359.821163 171.512064 
L 359.821163 171.512064 
L 359.886254 172.363622 
L 359.922321 172.96681 
L 359.993973 172.718438 
L 360.044252 172.895846 
L 360.094813 172.682957 
L 360.194635 172.168474 
L 360.505551 169.613798 
L 360.505551 169.613798 
L 360.67236 170.394394 
L 360.708295 170.110541 
L 360.802083 169.099315 
L 360.882214 168.354202 
L 360.911221 168.389683 
L 361.234254 170.181504 
L 361.25568 170.146022 
L 361.284132 170.075059 
L 361.284132 170.039578 
L 361.319794 169.826688 
L 361.355327 170.394394 
L 361.412275 170.820173 
L 361.412275 170.820173 
L 361.489146 170.962099 
L 361.517151 170.784691 
L 361.694228 169.046093 
L 361.779428 169.613798 
L 361.821668 169.844429 
L 361.877647 169.542835 
L 361.983641 168.620314 
L 362.189015 167.8752 
L 362.231483 167.768755 
L 362.231483 167.768755 
L 362.323452 167.520384 
L 362.351829 167.715533 
L 362.443389 168.709018 
L 362.547668 169.64928 
L 362.596252 170.075059 
L 362.705811 170.678246 
L 362.705811 170.660506 
L 362.760723 170.518579 
L 362.781195 170.731469 
L 362.936656 172.700698 
L 363.003621 171.63625 
L 363.112223 168.868685 
L 363.306646 165.746304 
L 363.391401 164.841523 
L 363.412639 164.877005 
L 363.440787 164.717338 
L 363.489963 165.00119 
L 363.497027 165.00119 
L 363.511152 164.930227 
L 363.616432 164.202854 
L 363.616432 164.220595 
L 363.637711 164.238336 
L 363.659031 163.848038 
L 363.765059 161.89655 
L 364.114036 158.170982 
L 364.121481 158.206464 
L 364.201561 159.093504 
L 364.309639 163.191629 
L 364.398682 165.959194 
L 364.487085 164.859264 
L 364.556117 162.091699 
L 365.026474 151.979443 
L 365.263696 150.382771 
L 365.294327 150.418253 
L 365.317286 150.329549 
L 365.469224 151.092403 
L 365.530103 151.482701 
L 365.589563 151.198848 
L 365.597041 151.216589 
L 365.642003 151.039181 
L 365.862784 148.981248 
L 365.931576 149.300582 
L 365.977165 149.371546 
L 366.060241 149.90377 
L 366.082909 149.797325 
L 366.112949 149.69088 
L 366.112949 149.69088 
L 366.43769 147.68617 
L 366.545584 145.450829 
L 366.717911 142.949376 
L 366.821647 142.36393 
L 367.012849 140.359219 
L 367.175768 139.312512 
L 367.19215 139.365734 
L 367.240597 139.436698 
L 367.272788 139.27703 
L 367.272788 139.27703 
L 367.337534 138.531917 
L 367.444489 136.988467 
L 367.527414 135.338573 
L 367.637332 132.517786 
L 367.734646 131.400115 
L 367.795422 132.216192 
L 367.847151 132.62423 
L 367.898069 132.198451 
L 368.603664 126.095616 
L 368.658051 126.716544 
L 368.88804 128.898662 
L 368.931582 128.721254 
L 369.356608 124.516685 
L 369.457796 124.250573 
L 369.46709 124.250573 
L 369.522715 124.552166 
L 369.629439 126.752026 
L 369.751656 127.106842 
L 369.769242 126.85847 
L 369.856785 125.669837 
L 369.990755 123.221606 
L 370.101864 121.695898 
L 370.380044 120.20567 
L 370.484099 118.839629 
L 370.560478 118.147738 
L 370.656502 117.047808 
L 370.666287 117.08329 
L 370.764474 117.810662 
L 370.86826 119.336371 
L 370.942652 120.010522 
L 370.998493 119.584742 
L 371.147446 118.573517 
L 371.401104 116.533325 
L 371.508012 114.085094 
L 371.811016 111.619123 
L 371.852404 112.009421 
L 371.954752 113.446426 
L 372.298389 116.42688 
L 372.317205 116.249472 
L 372.421337 115.025357 
L 372.546577 113.76576 
L 372.643486 113.020646 
L 372.653284 113.020646 
L 372.692828 112.914202 
L 372.722554 113.09161 
L 372.752011 113.056128 
L 372.858322 114.227021 
L 372.934354 114.43991 
L 372.962601 114.227021 
L 373.328435 112.523904 
L 373.357715 112.630349 
L 373.425349 112.87872 
L 373.464054 112.701312 
L 373.511603 112.417459 
L 373.687171 109.738598 
L 373.798916 108.603187 
L 373.859888 109.011226 
L 373.960257 109.738598 
L 374.069304 110.536934 
L 374.079145 110.536934 
L 374.079145 110.625638 
L 374.195184 111.743309 
L 374.252792 111.069158 
L 374.475468 110.111155 
L 374.485089 110.146637 
L 374.52405 110.43049 
L 374.763797 111.76105 
L 374.810593 111.459456 
L 374.914514 110.43049 
L 374.98287 109.77408 
L 375.06111 109.206374 
L 375.089937 109.206374 
L 375.138827 109.09993 
L 375.138827 109.09993 
L 375.197239 108.514483 
L 375.590482 103.990579 
L 375.695528 103.014835 
L 375.993932 101.932646 
L 376.068074 102.127795 
L 376.175646 102.801946 
L 376.300416 104.806656 
L 376.409665 106.562995 
L 376.612897 107.982259 
L 376.699305 107.520998 
L 376.853467 107.308109 
L 376.882471 107.396813 
L 376.987568 108.017741 
L 377.035053 107.911296 
L 377.100788 107.627443 
L 377.1385 107.698406 
L 377.167572 107.716147 
L 377.244383 107.272627 
L 377.282223 106.988774 
L 377.328997 107.485517 
L 377.526746 109.206374 
L 377.618133 110.075674 
L 377.6367 109.933747 
L 377.826971 108.798336 
L 378.088833 105.214694 
L 378.195416 103.156762 
L 378.348203 101.063347 
L 378.400657 101.648794 
L 378.472366 103.103539 
L 378.568535 104.700211 
L 378.57786 104.700211 
L 378.654106 104.363136 
L 378.751758 103.688986 
L 378.761581 103.724467 
L 378.935929 104.150246 
L 378.820474 103.618022 
L 378.955487 104.043802 
L 379.032248 103.476096 
L 379.119157 103.759949 
L 379.273881 103.600282 
L 379.273881 103.618022 
L 379.379104 102.872909 
L 379.418369 102.322944 
L 379.536673 100.265011 
L 379.638458 99.023155 
L 379.723522 99.626342 
L 379.83398 103.990579 
L 379.925429 106.66944 
L 380.032088 106.172698 
L 380.124468 105.037286 
L 380.234957 103.476096 
L 380.489594 100.477901 
L 380.547944 100.69079 
L 380.586705 100.885939 
L 380.61575 100.531123 
L 380.733654 99.715046 
L 381.100428 96.734592 
L 381.131601 97.195853 
L 381.193377 98.313523 
L 381.303779 99.768269 
L 381.388266 100.584346 
L 381.436767 99.963418 
L 381.544849 98.171597 
L 381.656751 97.497446 
L 381.717926 97.834522 
L 381.748478 98.082893 
L 381.827159 98.082893 
L 381.85668 98.189338 
L 381.895857 97.940966 
L 382.006175 96.23785 
L 382.152328 93.984768 
L 382.258344 93.257395 
L 382.411658 92.405837 
L 382.498959 92.636467 
L 382.596753 92.955802 
L 382.607603 92.955802 
L 382.650417 92.92032 
L 382.650417 92.849357 
L 382.713554 92.281651 
L 382.901954 89.851162 
L 383.006126 88.573824 
L 383.099389 87.36745 
L 383.205572 86.090112 
L 383.604784 83.198362 
L 383.711449 81.335578 
L 383.936056 78.390605 
L 384.034471 77.361638 
L 384.255286 76.882637 
L 384.255286 76.989082 
L 384.667094 79.472794 
L 384.694471 79.40183 
L 384.806463 78.851866 
L 385.06406 76.51008 
L 385.170623 75.268224 
L 385.516909 73.17481 
L 385.612967 72.003917 
L 385.679674 71.773286 
L 385.732981 71.915213 
L 385.946269 72.802253 
L 386.0538 73.990886 
L 386.131567 74.487629 
L 386.20753 74.327962 
L 386.285013 74.07959 
L 386.380677 73.281254 
L 386.411645 73.103846 
L 386.705256 72.340992 
L 386.72225 72.358733 
L 386.755218 72.394214 
L 386.788161 72.28777 
L 386.804152 72.28777 
L 386.899998 71.382989 
L 387.048785 69.591168 
L 387.155803 67.781606 
L 387.608013 63.87863 
L 387.722228 63.683482 
L 387.788786 63.87863 
L 388.007773 63.914112 
L 388.049643 63.789926 
L 388.111505 63.789926 
L 388.222557 63.683482 
L 388.315561 63.027072 
L 388.471892 60.791731 
L 388.56143 58.99991 
L 389.316771 51.247181 
L 390.048699 48.479616 
L 390.343651 48.266726 
L 391.401786 48.692506 
L 391.513096 48.727987 
L 392.160956 49.047322 
L 392.464781 48.940877 
L 392.595566 48.639283 
L 392.665152 48.302208 
L 393.202473 47.663539 
L 393.202473 47.663539 
L 393.684778 47.610317 
L 393.684778 47.628058 
L 394.157134 47.645798 
L 394.157134 47.645798 
L 394.829447 48.018355 
L 394.961311 48.373171 
L 395.027088 48.727987 
L 395.82586 50.448845 
L 395.82586 50.448845 
L 395.926054 50.484326 
L 395.926054 50.484326 
L 396.147453 51.069773 
L 396.236951 51.477811 
L 396.471878 52.010035 
L 396.571776 52.613222 
L 396.757846 53.21641 
L 396.857188 53.606707 
L 396.949374 54.156672 
L 397.059104 54.653414 
L 397.3391 54.919526 
L 397.370191 54.884045 
L 397.577136 54.653414 
L 397.608052 54.7776 
L 398.020137 55.469491 
L 398.073656 55.380787 
L 398.347322 55.327565 
L 398.456998 55.380787 
L 398.487273 55.363046 
L 398.487273 55.363046 
" clip-path="url(#pef1aaaab45)" style="fill: none; stroke-dasharray: 1.85,0.8; stroke-dashoffset: 0; stroke: #8000ff; stroke-width: 0.5"/>
   </g>
   <g id="patch_3">
    <path d="M 57.6 307.584 
L 57.6 41.472 
" style="fill: none; stroke: #000000; stroke-width: 0.8; stroke-linejoin: miter; stroke-linecap: square"/>
   </g>
   <g id="patch_4">
    <path d="M 414.72 307.584 
L 414.72 41.472 
" style="fill: none; stroke: #000000; stroke-width: 0.8; stroke-linejoin: miter; stroke-linecap: square"/>
   </g>
   <g id="patch_5">
    <path d="M 57.6 307.584 
L 414.72 307.584 
" style="fill: none; stroke: #000000; stroke-width: 0.8; stroke-linejoin: miter; stroke-linecap: square"/>
   </g>
   <g id="patch_6">
    <path d="M 57.6 41.472 
L 414.72 41.472 
" style="fill: none; stroke: #000000; stroke-width: 0.8; stroke-linejoin: miter; stroke-linecap: square"/>
   </g>
   <g id="legend_1">
    <g id="patch_7">
     <path d="M 314.584 90.761325 
L 516.966813 90.761325 
Q 518.966813 90.761325 518.966813 88.761325 
L 518.966813 75.0832 
Q 518.966813 73.0832 516.966813 73.0832 
L 314.584 73.0832 
Q 312.584 73.0832 312.584 75.0832 
L 312.584 88.761325 
Q 312.584 90.761325 314.584 90.761325 
z
" style="fill: #ffffff; opacity: 0.8; stroke: #cccccc; stroke-linejoin: miter"/>
    </g>
    <g id="line2d_43">
     <path d="M 316.584 81.181637 
L 326.584 81.181637 
L 336.584 81.181637 
" style="fill: none; stroke-dasharray: 1.85,0.8; stroke-dashoffset: 0; stroke: #8000ff; stroke-width: 0.5"/>
    </g>
    <g id="text_13">
     <!-- Total number of electron traps300 -->
     <g transform="translate(344.584 84.681637) scale(0.1 -0.1)">
      <defs>
       <path id="DejaVuSans-54" d="M -19 4666 
L 3928 4666 
L 3928 4134 
L 2272 4134 
L 2272 0 
L 1638 0 
L 1638 4134 
L -19 4134 
L -19 4666 
z
" transform="scale(0.015625)"/>
       <path id="DejaVuSans-75" d="M 544 1381 
L 544 3500 
L 1119 3500 
L 1119 1403 
Q 1119 906 1312 657 
Q 1506 409 1894 409 
Q 2359 409 2629 706 
Q 2900 1003 2900 1516 
L 2900 3500 
L 3475 3500 
L 3475 0 
L 2900 0 
L 2900 538 
Q 2691 219 2414 64 
Q 2138 -91 1772 -91 
Q 1169 -91 856 284 
Q 544 659 544 1381 
z
M 1991 3584 
L 1991 3584 
z
" transform="scale(0.015625)"/>
       <path id="DejaVuSans-62" d="M 3116 1747 
Q 3116 2381 2855 2742 
Q 2594 3103 2138 3103 
Q 1681 3103 1420 2742 
Q 1159 2381 1159 1747 
Q 1159 1113 1420 752 
Q 1681 391 2138 391 
Q 2594 391 2855 752 
Q 3116 1113 3116 1747 
z
M 1159 2969 
Q 1341 3281 1617 3432 
Q 1894 3584 2278 3584 
Q 2916 3584 3314 3078 
Q 3713 2572 3713 1747 
Q 3713 922 3314 415 
Q 2916 -91 2278 -91 
Q 1894 -91 1617 61 
Q 1341 213 1159 525 
L 1159 0 
L 581 0 
L 581 4863 
L 1159 4863 
L 1159 2969 
z
" transform="scale(0.015625)"/>
      </defs>
      <use xlink:href="#DejaVuSans-54"/>
      <use xlink:href="#DejaVuSans-6f" transform="translate(44.083984 0)"/>
      <use xlink:href="#DejaVuSans-74" transform="translate(105.265625 0)"/>
      <use xlink:href="#DejaVuSans-61" transform="translate(144.474609 0)"/>
      <use xlink:href="#DejaVuSans-6c" transform="translate(205.753906 0)"/>
      <use xlink:href="#DejaVuSans-20" transform="translate(233.537109 0)"/>
      <use xlink:href="#DejaVuSans-6e" transform="translate(265.324219 0)"/>
      <use xlink:href="#DejaVuSans-75" transform="translate(328.703125 0)"/>
      <use xlink:href="#DejaVuSans-6d" transform="translate(392.082031 0)"/>
      <use xlink:href="#DejaVuSans-62" transform="translate(489.494141 0)"/>
      <use xlink:href="#DejaVuSans-65" transform="translate(552.970703 0)"/>
      <use xlink:href="#DejaVuSans-72" transform="translate(614.494141 0)"/>
      <use xlink:href="#DejaVuSans-20" transform="translate(655.607422 0)"/>
      <use xlink:href="#DejaVuSans-6f" transform="translate(687.394531 0)"/>
      <use xlink:href="#DejaVuSans-66" transform="translate(748.576172 0)"/>
      <use xlink:href="#DejaVuSans-20" transform="translate(783.78125 0)"/>
      <use xlink:href="#DejaVuSans-65" transform="translate(815.568359 0)"/>
      <use xlink:href="#DejaVuSans-6c" transform="translate(877.091797 0)"/>
      <use xlink:href="#DejaVuSans-65" transform="translate(904.875 0)"/>
      <use xlink:href="#DejaVuSans-63" transform="translate(966.398438 0)"/>
      <use xlink:href="#DejaVuSans-74" transform="translate(1021.378906 0)"/>
      <use xlink:href="#DejaVuSans-72" transform="translate(1060.587891 0)"/>
      <use xlink:href="#DejaVuSans-6f" transform="translate(1099.451172 0)"/>
      <use xlink:href="#DejaVuSans-6e" transform="translate(1160.632812 0)"/>
      <use xlink:href="#DejaVuSans-20" transform="translate(1224.011719 0)"/>
      <use xlink:href="#DejaVuSans-74" transform="translate(1255.798828 0)"/>
      <use xlink:href="#DejaVuSans-72" transform="translate(1295.007812 0)"/>
      <use xlink:href="#DejaVuSans-61" transform="translate(1336.121094 0)"/>
      <use xlink:href="#DejaVuSans-70" transform="translate(1397.400391 0)"/>
      <use xlink:href="#DejaVuSans-73" transform="translate(1460.876953 0)"/>
      <use xlink:href="#DejaVuSans-33" transform="translate(1512.976562 0)"/>
      <use xlink:href="#DejaVuSans-30" transform="translate(1576.599609 0)"/>
      <use xlink:href="#DejaVuSans-30" transform="translate(1640.222656 0)"/>
     </g>
    </g>
   </g>
  </g>
 </g>
 <defs>
  <clipPath id="pef1aaaab45">
   <rect x="57.6" y="41.472" width="357.12" height="266.112"/>
  </clipPath>
 </defs>
</svg>
