<?xml version="1.0" encoding="utf-8" standalone="no"?>
<!DOCTYPE svg PUBLIC "-//W3C//DTD SVG 1.1//EN"
  "http://www.w3.org/Graphics/SVG/1.1/DTD/svg11.dtd">
<svg xmlns:xlink="http://www.w3.org/1999/xlink" width="720pt" height="360pt" viewBox="0 0 720 360" xmlns="http://www.w3.org/2000/svg" version="1.1">
 <metadata>
  <rdf:RDF xmlns:dc="http://purl.org/dc/elements/1.1/" xmlns:cc="http://creativecommons.org/ns#" xmlns:rdf="http://www.w3.org/1999/02/22-rdf-syntax-ns#">
   <cc:Work>
    <dc:type rdf:resource="http://purl.org/dc/dcmitype/StillImage"/>
    <dc:date>2025-03-25T20:56:59.620460</dc:date>
    <dc:format>image/svg+xml</dc:format>
    <dc:creator>
     <cc:Agent>
      <dc:title>Matplotlib v3.10.0, https://matplotlib.org/</dc:title>
     </cc:Agent>
    </dc:creator>
   </cc:Work>
  </rdf:RDF>
 </metadata>
 <defs>
  <style type="text/css">*{stroke-linejoin: round; stroke-linecap: butt}</style>
 </defs>
 <g id="figure_1">
  <g id="patch_1">
   <path d="M 0 360 
L 720 360 
L 720 0 
L 0 0 
z
" style="fill: #ffffff"/>
  </g>
  <g id="axes_1">
   <g id="patch_2">
    <path d="M 44.57 314.728 
L 709.2 314.728 
L 709.2 26.88 
L 44.57 26.88 
z
" style="fill: #ffffff"/>
   </g>
   <g id="matplotlib.axis_1">
    <g id="xtick_1">
     <g id="line2d_1">
      <defs>
       <path id="m1f23fa5db2" d="M 0 0 
L 0 3.5 
" style="stroke: #000000; stroke-width: 0.8"/>
      </defs>
      <g>
       <use xlink:href="#m1f23fa5db2" x="87.312723" y="314.728" style="stroke: #000000; stroke-width: 0.8"/>
      </g>
     </g>
     <g id="text_1">
      <!-- $\mathdefault{10^{-1}}$ -->
      <g transform="translate(75.562723 329.326437) scale(0.1 -0.1)">
       <defs>
        <path id="DejaVuSans-31" d="M 794 531 
L 1825 531 
L 1825 4091 
L 703 3866 
L 703 4441 
L 1819 4666 
L 2450 4666 
L 2450 531 
L 3481 531 
L 3481 0 
L 794 0 
L 794 531 
z
" transform="scale(0.015625)"/>
        <path id="DejaVuSans-30" d="M 2034 4250 
Q 1547 4250 1301 3770 
Q 1056 3291 1056 2328 
Q 1056 1369 1301 889 
Q 1547 409 2034 409 
Q 2525 409 2770 889 
Q 3016 1369 3016 2328 
Q 3016 3291 2770 3770 
Q 2525 4250 2034 4250 
z
M 2034 4750 
Q 2819 4750 3233 4129 
Q 3647 3509 3647 2328 
Q 3647 1150 3233 529 
Q 2819 -91 2034 -91 
Q 1250 -91 836 529 
Q 422 1150 422 2328 
Q 422 3509 836 4129 
Q 1250 4750 2034 4750 
z
" transform="scale(0.015625)"/>
        <path id="DejaVuSans-2212" d="M 678 2272 
L 4684 2272 
L 4684 1741 
L 678 1741 
L 678 2272 
z
" transform="scale(0.015625)"/>
       </defs>
       <use xlink:href="#DejaVuSans-31" transform="translate(0 0.684375)"/>
       <use xlink:href="#DejaVuSans-30" transform="translate(63.623047 0.684375)"/>
       <use xlink:href="#DejaVuSans-2212" transform="translate(128.203125 38.965625) scale(0.7)"/>
       <use xlink:href="#DejaVuSans-31" transform="translate(186.855469 38.965625) scale(0.7)"/>
      </g>
     </g>
    </g>
    <g id="xtick_2">
     <g id="line2d_2">
      <g>
       <use xlink:href="#m1f23fa5db2" x="390.078025" y="314.728" style="stroke: #000000; stroke-width: 0.8"/>
      </g>
     </g>
     <g id="text_2">
      <!-- $\mathdefault{10^{0}}$ -->
      <g transform="translate(381.278025 329.326437) scale(0.1 -0.1)">
       <use xlink:href="#DejaVuSans-31" transform="translate(0 0.765625)"/>
       <use xlink:href="#DejaVuSans-30" transform="translate(63.623047 0.765625)"/>
       <use xlink:href="#DejaVuSans-30" transform="translate(128.203125 39.046875) scale(0.7)"/>
      </g>
     </g>
    </g>
    <g id="xtick_3">
     <g id="line2d_3">
      <g>
       <use xlink:href="#m1f23fa5db2" x="692.843326" y="314.728" style="stroke: #000000; stroke-width: 0.8"/>
      </g>
     </g>
     <g id="text_3">
      <!-- $\mathdefault{10^{1}}$ -->
      <g transform="translate(684.043326 329.326437) scale(0.1 -0.1)">
       <use xlink:href="#DejaVuSans-31" transform="translate(0 0.684375)"/>
       <use xlink:href="#DejaVuSans-30" transform="translate(63.623047 0.684375)"/>
       <use xlink:href="#DejaVuSans-31" transform="translate(128.203125 38.965625) scale(0.7)"/>
      </g>
     </g>
    </g>
    <g id="xtick_4">
     <g id="line2d_4">
      <defs>
       <path id="m2c43c1c7ca" d="M 0 0 
L 0 2 
" style="stroke: #000000; stroke-width: 0.6"/>
      </defs>
      <g>
       <use xlink:href="#m2c43c1c7ca" x="57.971734" y="314.728" style="stroke: #000000; stroke-width: 0.6"/>
      </g>
     </g>
    </g>
    <g id="xtick_5">
     <g id="line2d_5">
      <g>
       <use xlink:href="#m2c43c1c7ca" x="73.458943" y="314.728" style="stroke: #000000; stroke-width: 0.6"/>
      </g>
     </g>
    </g>
    <g id="xtick_6">
     <g id="line2d_6">
      <g>
       <use xlink:href="#m2c43c1c7ca" x="178.454161" y="314.728" style="stroke: #000000; stroke-width: 0.6"/>
      </g>
     </g>
    </g>
    <g id="xtick_7">
     <g id="line2d_7">
      <g>
       <use xlink:href="#m2c43c1c7ca" x="231.768484" y="314.728" style="stroke: #000000; stroke-width: 0.6"/>
      </g>
     </g>
    </g>
    <g id="xtick_8">
     <g id="line2d_8">
      <g>
       <use xlink:href="#m2c43c1c7ca" x="269.595598" y="314.728" style="stroke: #000000; stroke-width: 0.6"/>
      </g>
     </g>
    </g>
    <g id="xtick_9">
     <g id="line2d_9">
      <g>
       <use xlink:href="#m2c43c1c7ca" x="298.936587" y="314.728" style="stroke: #000000; stroke-width: 0.6"/>
      </g>
     </g>
    </g>
    <g id="xtick_10">
     <g id="line2d_10">
      <g>
       <use xlink:href="#m2c43c1c7ca" x="322.909921" y="314.728" style="stroke: #000000; stroke-width: 0.6"/>
      </g>
     </g>
    </g>
    <g id="xtick_11">
     <g id="line2d_11">
      <g>
       <use xlink:href="#m2c43c1c7ca" x="343.179086" y="314.728" style="stroke: #000000; stroke-width: 0.6"/>
      </g>
     </g>
    </g>
    <g id="xtick_12">
     <g id="line2d_12">
      <g>
       <use xlink:href="#m2c43c1c7ca" x="360.737035" y="314.728" style="stroke: #000000; stroke-width: 0.6"/>
      </g>
     </g>
    </g>
    <g id="xtick_13">
     <g id="line2d_13">
      <g>
       <use xlink:href="#m2c43c1c7ca" x="376.224244" y="314.728" style="stroke: #000000; stroke-width: 0.6"/>
      </g>
     </g>
    </g>
    <g id="xtick_14">
     <g id="line2d_14">
      <g>
       <use xlink:href="#m2c43c1c7ca" x="481.219462" y="314.728" style="stroke: #000000; stroke-width: 0.6"/>
      </g>
     </g>
    </g>
    <g id="xtick_15">
     <g id="line2d_15">
      <g>
       <use xlink:href="#m2c43c1c7ca" x="534.533785" y="314.728" style="stroke: #000000; stroke-width: 0.6"/>
      </g>
     </g>
    </g>
    <g id="xtick_16">
     <g id="line2d_16">
      <g>
       <use xlink:href="#m2c43c1c7ca" x="572.360899" y="314.728" style="stroke: #000000; stroke-width: 0.6"/>
      </g>
     </g>
    </g>
    <g id="xtick_17">
     <g id="line2d_17">
      <g>
       <use xlink:href="#m2c43c1c7ca" x="601.701889" y="314.728" style="stroke: #000000; stroke-width: 0.6"/>
      </g>
     </g>
    </g>
    <g id="xtick_18">
     <g id="line2d_18">
      <g>
       <use xlink:href="#m2c43c1c7ca" x="625.675222" y="314.728" style="stroke: #000000; stroke-width: 0.6"/>
      </g>
     </g>
    </g>
    <g id="xtick_19">
     <g id="line2d_19">
      <g>
       <use xlink:href="#m2c43c1c7ca" x="645.944387" y="314.728" style="stroke: #000000; stroke-width: 0.6"/>
      </g>
     </g>
    </g>
    <g id="xtick_20">
     <g id="line2d_20">
      <g>
       <use xlink:href="#m2c43c1c7ca" x="663.502337" y="314.728" style="stroke: #000000; stroke-width: 0.6"/>
      </g>
     </g>
    </g>
    <g id="xtick_21">
     <g id="line2d_21">
      <g>
       <use xlink:href="#m2c43c1c7ca" x="678.989545" y="314.728" style="stroke: #000000; stroke-width: 0.6"/>
      </g>
     </g>
    </g>
    <g id="text_4">
     <!-- Time (s) -->
     <g transform="translate(356.556094 343.004562) scale(0.1 -0.1)">
      <defs>
       <path id="DejaVuSans-54" d="M -19 4666 
L 3928 4666 
L 3928 4134 
L 2272 4134 
L 2272 0 
L 1638 0 
L 1638 4134 
L -19 4134 
L -19 4666 
z
" transform="scale(0.015625)"/>
       <path id="DejaVuSans-69" d="M 603 3500 
L 1178 3500 
L 1178 0 
L 603 0 
L 603 3500 
z
M 603 4863 
L 1178 4863 
L 1178 4134 
L 603 4134 
L 603 4863 
z
" transform="scale(0.015625)"/>
       <path id="DejaVuSans-6d" d="M 3328 2828 
Q 3544 3216 3844 3400 
Q 4144 3584 4550 3584 
Q 5097 3584 5394 3201 
Q 5691 2819 5691 2113 
L 5691 0 
L 5113 0 
L 5113 2094 
Q 5113 2597 4934 2840 
Q 4756 3084 4391 3084 
Q 3944 3084 3684 2787 
Q 3425 2491 3425 1978 
L 3425 0 
L 2847 0 
L 2847 2094 
Q 2847 2600 2669 2842 
Q 2491 3084 2119 3084 
Q 1678 3084 1418 2786 
Q 1159 2488 1159 1978 
L 1159 0 
L 581 0 
L 581 3500 
L 1159 3500 
L 1159 2956 
Q 1356 3278 1631 3431 
Q 1906 3584 2284 3584 
Q 2666 3584 2933 3390 
Q 3200 3197 3328 2828 
z
" transform="scale(0.015625)"/>
       <path id="DejaVuSans-65" d="M 3597 1894 
L 3597 1613 
L 953 1613 
Q 991 1019 1311 708 
Q 1631 397 2203 397 
Q 2534 397 2845 478 
Q 3156 559 3463 722 
L 3463 178 
Q 3153 47 2828 -22 
Q 2503 -91 2169 -91 
Q 1331 -91 842 396 
Q 353 884 353 1716 
Q 353 2575 817 3079 
Q 1281 3584 2069 3584 
Q 2775 3584 3186 3129 
Q 3597 2675 3597 1894 
z
M 3022 2063 
Q 3016 2534 2758 2815 
Q 2500 3097 2075 3097 
Q 1594 3097 1305 2825 
Q 1016 2553 972 2059 
L 3022 2063 
z
" transform="scale(0.015625)"/>
       <path id="DejaVuSans-20" transform="scale(0.015625)"/>
       <path id="DejaVuSans-28" d="M 1984 4856 
Q 1566 4138 1362 3434 
Q 1159 2731 1159 2009 
Q 1159 1288 1364 580 
Q 1569 -128 1984 -844 
L 1484 -844 
Q 1016 -109 783 600 
Q 550 1309 550 2009 
Q 550 2706 781 3412 
Q 1013 4119 1484 4856 
L 1984 4856 
z
" transform="scale(0.015625)"/>
       <path id="DejaVuSans-73" d="M 2834 3397 
L 2834 2853 
Q 2591 2978 2328 3040 
Q 2066 3103 1784 3103 
Q 1356 3103 1142 2972 
Q 928 2841 928 2578 
Q 928 2378 1081 2264 
Q 1234 2150 1697 2047 
L 1894 2003 
Q 2506 1872 2764 1633 
Q 3022 1394 3022 966 
Q 3022 478 2636 193 
Q 2250 -91 1575 -91 
Q 1294 -91 989 -36 
Q 684 19 347 128 
L 347 722 
Q 666 556 975 473 
Q 1284 391 1588 391 
Q 1994 391 2212 530 
Q 2431 669 2431 922 
Q 2431 1156 2273 1281 
Q 2116 1406 1581 1522 
L 1381 1569 
Q 847 1681 609 1914 
Q 372 2147 372 2553 
Q 372 3047 722 3315 
Q 1072 3584 1716 3584 
Q 2034 3584 2315 3537 
Q 2597 3491 2834 3397 
z
" transform="scale(0.015625)"/>
       <path id="DejaVuSans-29" d="M 513 4856 
L 1013 4856 
Q 1481 4119 1714 3412 
Q 1947 2706 1947 2009 
Q 1947 1309 1714 600 
Q 1481 -109 1013 -844 
L 513 -844 
Q 928 -128 1133 580 
Q 1338 1288 1338 2009 
Q 1338 2731 1133 3434 
Q 928 4138 513 4856 
z
" transform="scale(0.015625)"/>
      </defs>
      <use xlink:href="#DejaVuSans-54"/>
      <use xlink:href="#DejaVuSans-69" transform="translate(57.958984 0)"/>
      <use xlink:href="#DejaVuSans-6d" transform="translate(85.742188 0)"/>
      <use xlink:href="#DejaVuSans-65" transform="translate(183.154297 0)"/>
      <use xlink:href="#DejaVuSans-20" transform="translate(244.677734 0)"/>
      <use xlink:href="#DejaVuSans-28" transform="translate(276.464844 0)"/>
      <use xlink:href="#DejaVuSans-73" transform="translate(315.478516 0)"/>
      <use xlink:href="#DejaVuSans-29" transform="translate(367.578125 0)"/>
     </g>
    </g>
   </g>
   <g id="matplotlib.axis_2">
    <g id="ytick_1">
     <g id="line2d_22">
      <defs>
       <path id="m9e95d6d587" d="M 0 0 
L -3.5 0 
" style="stroke: #000000; stroke-width: 0.8"/>
      </defs>
      <g>
       <use xlink:href="#m9e95d6d587" x="44.57" y="301.644" style="stroke: #000000; stroke-width: 0.8"/>
      </g>
     </g>
     <g id="text_5">
      <!-- 0 -->
      <g transform="translate(31.2075 305.443219) scale(0.1 -0.1)">
       <use xlink:href="#DejaVuSans-30"/>
      </g>
     </g>
    </g>
    <g id="ytick_2">
     <g id="line2d_23">
      <g>
       <use xlink:href="#m9e95d6d587" x="44.57" y="263.107042" style="stroke: #000000; stroke-width: 0.8"/>
      </g>
     </g>
     <g id="text_6">
      <!-- 10 -->
      <g transform="translate(24.845 266.90626) scale(0.1 -0.1)">
       <use xlink:href="#DejaVuSans-31"/>
       <use xlink:href="#DejaVuSans-30" transform="translate(63.623047 0)"/>
      </g>
     </g>
    </g>
    <g id="ytick_3">
     <g id="line2d_24">
      <g>
       <use xlink:href="#m9e95d6d587" x="44.57" y="224.570083" style="stroke: #000000; stroke-width: 0.8"/>
      </g>
     </g>
     <g id="text_7">
      <!-- 20 -->
      <g transform="translate(24.845 228.369302) scale(0.1 -0.1)">
       <defs>
        <path id="DejaVuSans-32" d="M 1228 531 
L 3431 531 
L 3431 0 
L 469 0 
L 469 531 
Q 828 903 1448 1529 
Q 2069 2156 2228 2338 
Q 2531 2678 2651 2914 
Q 2772 3150 2772 3378 
Q 2772 3750 2511 3984 
Q 2250 4219 1831 4219 
Q 1534 4219 1204 4116 
Q 875 4013 500 3803 
L 500 4441 
Q 881 4594 1212 4672 
Q 1544 4750 1819 4750 
Q 2544 4750 2975 4387 
Q 3406 4025 3406 3419 
Q 3406 3131 3298 2873 
Q 3191 2616 2906 2266 
Q 2828 2175 2409 1742 
Q 1991 1309 1228 531 
z
" transform="scale(0.015625)"/>
       </defs>
       <use xlink:href="#DejaVuSans-32"/>
       <use xlink:href="#DejaVuSans-30" transform="translate(63.623047 0)"/>
      </g>
     </g>
    </g>
    <g id="ytick_4">
     <g id="line2d_25">
      <g>
       <use xlink:href="#m9e95d6d587" x="44.57" y="186.033125" style="stroke: #000000; stroke-width: 0.8"/>
      </g>
     </g>
     <g id="text_8">
      <!-- 30 -->
      <g transform="translate(24.845 189.832343) scale(0.1 -0.1)">
       <defs>
        <path id="DejaVuSans-33" d="M 2597 2516 
Q 3050 2419 3304 2112 
Q 3559 1806 3559 1356 
Q 3559 666 3084 287 
Q 2609 -91 1734 -91 
Q 1441 -91 1130 -33 
Q 819 25 488 141 
L 488 750 
Q 750 597 1062 519 
Q 1375 441 1716 441 
Q 2309 441 2620 675 
Q 2931 909 2931 1356 
Q 2931 1769 2642 2001 
Q 2353 2234 1838 2234 
L 1294 2234 
L 1294 2753 
L 1863 2753 
Q 2328 2753 2575 2939 
Q 2822 3125 2822 3475 
Q 2822 3834 2567 4026 
Q 2313 4219 1838 4219 
Q 1578 4219 1281 4162 
Q 984 4106 628 3988 
L 628 4550 
Q 988 4650 1302 4700 
Q 1616 4750 1894 4750 
Q 2613 4750 3031 4423 
Q 3450 4097 3450 3541 
Q 3450 3153 3228 2886 
Q 3006 2619 2597 2516 
z
" transform="scale(0.015625)"/>
       </defs>
       <use xlink:href="#DejaVuSans-33"/>
       <use xlink:href="#DejaVuSans-30" transform="translate(63.623047 0)"/>
      </g>
     </g>
    </g>
    <g id="ytick_5">
     <g id="line2d_26">
      <g>
       <use xlink:href="#m9e95d6d587" x="44.57" y="147.496166" style="stroke: #000000; stroke-width: 0.8"/>
      </g>
     </g>
     <g id="text_9">
      <!-- 40 -->
      <g transform="translate(24.845 151.295385) scale(0.1 -0.1)">
       <defs>
        <path id="DejaVuSans-34" d="M 2419 4116 
L 825 1625 
L 2419 1625 
L 2419 4116 
z
M 2253 4666 
L 3047 4666 
L 3047 1625 
L 3713 1625 
L 3713 1100 
L 3047 1100 
L 3047 0 
L 2419 0 
L 2419 1100 
L 313 1100 
L 313 1709 
L 2253 4666 
z
" transform="scale(0.015625)"/>
       </defs>
       <use xlink:href="#DejaVuSans-34"/>
       <use xlink:href="#DejaVuSans-30" transform="translate(63.623047 0)"/>
      </g>
     </g>
    </g>
    <g id="ytick_6">
     <g id="line2d_27">
      <g>
       <use xlink:href="#m9e95d6d587" x="44.57" y="108.959208" style="stroke: #000000; stroke-width: 0.8"/>
      </g>
     </g>
     <g id="text_10">
      <!-- 50 -->
      <g transform="translate(24.845 112.758427) scale(0.1 -0.1)">
       <defs>
        <path id="DejaVuSans-35" d="M 691 4666 
L 3169 4666 
L 3169 4134 
L 1269 4134 
L 1269 2991 
Q 1406 3038 1543 3061 
Q 1681 3084 1819 3084 
Q 2600 3084 3056 2656 
Q 3513 2228 3513 1497 
Q 3513 744 3044 326 
Q 2575 -91 1722 -91 
Q 1428 -91 1123 -41 
Q 819 9 494 109 
L 494 744 
Q 775 591 1075 516 
Q 1375 441 1709 441 
Q 2250 441 2565 725 
Q 2881 1009 2881 1497 
Q 2881 1984 2565 2268 
Q 2250 2553 1709 2553 
Q 1456 2553 1204 2497 
Q 953 2441 691 2322 
L 691 4666 
z
" transform="scale(0.015625)"/>
       </defs>
       <use xlink:href="#DejaVuSans-35"/>
       <use xlink:href="#DejaVuSans-30" transform="translate(63.623047 0)"/>
      </g>
     </g>
    </g>
    <g id="ytick_7">
     <g id="line2d_28">
      <g>
       <use xlink:href="#m9e95d6d587" x="44.57" y="70.422249" style="stroke: #000000; stroke-width: 0.8"/>
      </g>
     </g>
     <g id="text_11">
      <!-- 60 -->
      <g transform="translate(24.845 74.221468) scale(0.1 -0.1)">
       <defs>
        <path id="DejaVuSans-36" d="M 2113 2584 
Q 1688 2584 1439 2293 
Q 1191 2003 1191 1497 
Q 1191 994 1439 701 
Q 1688 409 2113 409 
Q 2538 409 2786 701 
Q 3034 994 3034 1497 
Q 3034 2003 2786 2293 
Q 2538 2584 2113 2584 
z
M 3366 4563 
L 3366 3988 
Q 3128 4100 2886 4159 
Q 2644 4219 2406 4219 
Q 1781 4219 1451 3797 
Q 1122 3375 1075 2522 
Q 1259 2794 1537 2939 
Q 1816 3084 2150 3084 
Q 2853 3084 3261 2657 
Q 3669 2231 3669 1497 
Q 3669 778 3244 343 
Q 2819 -91 2113 -91 
Q 1303 -91 875 529 
Q 447 1150 447 2328 
Q 447 3434 972 4092 
Q 1497 4750 2381 4750 
Q 2619 4750 2861 4703 
Q 3103 4656 3366 4563 
z
" transform="scale(0.015625)"/>
       </defs>
       <use xlink:href="#DejaVuSans-36"/>
       <use xlink:href="#DejaVuSans-30" transform="translate(63.623047 0)"/>
      </g>
     </g>
    </g>
    <g id="ytick_8">
     <g id="line2d_29">
      <g>
       <use xlink:href="#m9e95d6d587" x="44.57" y="31.885291" style="stroke: #000000; stroke-width: 0.8"/>
      </g>
     </g>
     <g id="text_12">
      <!-- 70 -->
      <g transform="translate(24.845 35.68451) scale(0.1 -0.1)">
       <defs>
        <path id="DejaVuSans-37" d="M 525 4666 
L 3525 4666 
L 3525 4397 
L 1831 0 
L 1172 0 
L 2766 4134 
L 525 4134 
L 525 4666 
z
" transform="scale(0.015625)"/>
       </defs>
       <use xlink:href="#DejaVuSans-37"/>
       <use xlink:href="#DejaVuSans-30" transform="translate(63.623047 0)"/>
      </g>
     </g>
    </g>
    <g id="text_13">
     <!-- Signal -->
     <g transform="translate(18.765312 186.163375) rotate(-90) scale(0.1 -0.1)">
      <defs>
       <path id="DejaVuSans-53" d="M 3425 4513 
L 3425 3897 
Q 3066 4069 2747 4153 
Q 2428 4238 2131 4238 
Q 1616 4238 1336 4038 
Q 1056 3838 1056 3469 
Q 1056 3159 1242 3001 
Q 1428 2844 1947 2747 
L 2328 2669 
Q 3034 2534 3370 2195 
Q 3706 1856 3706 1288 
Q 3706 609 3251 259 
Q 2797 -91 1919 -91 
Q 1588 -91 1214 -16 
Q 841 59 441 206 
L 441 856 
Q 825 641 1194 531 
Q 1563 422 1919 422 
Q 2459 422 2753 634 
Q 3047 847 3047 1241 
Q 3047 1584 2836 1778 
Q 2625 1972 2144 2069 
L 1759 2144 
Q 1053 2284 737 2584 
Q 422 2884 422 3419 
Q 422 4038 858 4394 
Q 1294 4750 2059 4750 
Q 2388 4750 2728 4690 
Q 3069 4631 3425 4513 
z
" transform="scale(0.015625)"/>
       <path id="DejaVuSans-67" d="M 2906 1791 
Q 2906 2416 2648 2759 
Q 2391 3103 1925 3103 
Q 1463 3103 1205 2759 
Q 947 2416 947 1791 
Q 947 1169 1205 825 
Q 1463 481 1925 481 
Q 2391 481 2648 825 
Q 2906 1169 2906 1791 
z
M 3481 434 
Q 3481 -459 3084 -895 
Q 2688 -1331 1869 -1331 
Q 1566 -1331 1297 -1286 
Q 1028 -1241 775 -1147 
L 775 -588 
Q 1028 -725 1275 -790 
Q 1522 -856 1778 -856 
Q 2344 -856 2625 -561 
Q 2906 -266 2906 331 
L 2906 616 
Q 2728 306 2450 153 
Q 2172 0 1784 0 
Q 1141 0 747 490 
Q 353 981 353 1791 
Q 353 2603 747 3093 
Q 1141 3584 1784 3584 
Q 2172 3584 2450 3431 
Q 2728 3278 2906 2969 
L 2906 3500 
L 3481 3500 
L 3481 434 
z
" transform="scale(0.015625)"/>
       <path id="DejaVuSans-6e" d="M 3513 2113 
L 3513 0 
L 2938 0 
L 2938 2094 
Q 2938 2591 2744 2837 
Q 2550 3084 2163 3084 
Q 1697 3084 1428 2787 
Q 1159 2491 1159 1978 
L 1159 0 
L 581 0 
L 581 3500 
L 1159 3500 
L 1159 2956 
Q 1366 3272 1645 3428 
Q 1925 3584 2291 3584 
Q 2894 3584 3203 3211 
Q 3513 2838 3513 2113 
z
" transform="scale(0.015625)"/>
       <path id="DejaVuSans-61" d="M 2194 1759 
Q 1497 1759 1228 1600 
Q 959 1441 959 1056 
Q 959 750 1161 570 
Q 1363 391 1709 391 
Q 2188 391 2477 730 
Q 2766 1069 2766 1631 
L 2766 1759 
L 2194 1759 
z
M 3341 1997 
L 3341 0 
L 2766 0 
L 2766 531 
Q 2569 213 2275 61 
Q 1981 -91 1556 -91 
Q 1019 -91 701 211 
Q 384 513 384 1019 
Q 384 1609 779 1909 
Q 1175 2209 1959 2209 
L 2766 2209 
L 2766 2266 
Q 2766 2663 2505 2880 
Q 2244 3097 1772 3097 
Q 1472 3097 1187 3025 
Q 903 2953 641 2809 
L 641 3341 
Q 956 3463 1253 3523 
Q 1550 3584 1831 3584 
Q 2591 3584 2966 3190 
Q 3341 2797 3341 1997 
z
" transform="scale(0.015625)"/>
       <path id="DejaVuSans-6c" d="M 603 4863 
L 1178 4863 
L 1178 0 
L 603 0 
L 603 4863 
z
" transform="scale(0.015625)"/>
      </defs>
      <use xlink:href="#DejaVuSans-53"/>
      <use xlink:href="#DejaVuSans-69" transform="translate(63.476562 0)"/>
      <use xlink:href="#DejaVuSans-67" transform="translate(91.259766 0)"/>
      <use xlink:href="#DejaVuSans-6e" transform="translate(154.736328 0)"/>
      <use xlink:href="#DejaVuSans-61" transform="translate(218.115234 0)"/>
      <use xlink:href="#DejaVuSans-6c" transform="translate(279.394531 0)"/>
     </g>
    </g>
   </g>
   <g id="line2d_30">
    <path d="M -1 297.886632 
L 74.780455 297.886647 
L 165.921892 297.925184 
L 219.236215 297.96372 
L 257.063329 298.002257 
L 286.404318 298.0986 
L 310.377652 298.137137 
L 330.646817 298.194942 
L 348.204767 298.233479 
L 363.691975 298.272016 
L 377.545756 298.310553 
L 390.078025 298.34909 
L 401.51909 298.406895 
L 412.043849 298.464701 
L 421.788255 298.503238 
L 430.860079 298.580312 
L 439.346204 298.618849 
L 447.317693 298.676654 
L 454.833413 298.753728 
L 461.942674 298.811534 
L 468.687193 298.850071 
L 475.102578 298.888607 
L 481.219462 299.004218 
L 487.064393 299.081292 
L 492.660527 299.119829 
L 498.028182 299.177635 
L 503.185287 299.254709 
L 508.147736 299.351051 
L 512.929692 299.428125 
L 517.543825 299.505199 
L 522.001516 299.601541 
L 526.313027 299.640078 
L 530.487641 299.717152 
L 534.533785 299.794226 
L 538.45913 299.852031 
L 542.270681 299.909837 
L 545.97485 299.967642 
L 549.577522 300.025448 
L 553.084111 300.102522 
L 556.49961 300.141059 
L 559.82863 300.179596 
L 563.075445 300.256669 
L 566.244015 300.314475 
L 569.338024 300.391549 
L 572.360899 300.449354 
L 575.315839 300.50716 
L 578.20583 300.564965 
L 581.033666 300.603502 
L 583.801964 300.661308 
L 586.51318 300.699845 
L 589.16962 300.738381 
L 591.773453 300.796187 
L 594.326724 300.873261 
L 596.831358 300.931066 
L 599.289173 300.988872 
L 601.701889 301.065946 
L 604.071129 301.104483 
L 606.398434 301.181556 
L 608.685262 301.374241 
L 610.932997 301.39351 
L 613.142954 301.412778 
L 615.31638 301.432047 
L 617.454464 301.451315 
L 619.558338 301.470584 
L 621.629079 301.644 
L 623.667713 301.644 
L 625.675222 301.644 
L 627.652542 301.644 
L 629.600568 301.644 
L 631.520153 301.644 
L 633.412118 301.644 
L 635.277246 301.644 
L 637.116287 301.644 
L 638.929962 301.644 
L 640.718959 301.644 
L 642.483943 301.644 
L 644.225548 301.644 
L 645.944387 301.644 
L 647.641047 301.644 
L 649.316093 301.644 
L 650.970068 301.644 
L 652.603496 301.644 
L 654.216882 301.644 
L 655.810711 301.644 
L 657.385452 301.644 
L 658.941557 301.644 
L 660.479461 301.644 
L 661.999585 301.644 
L 663.502337 301.644 
L 664.988107 301.644 
L 666.457277 301.644 
L 667.910212 301.644 
L 669.347268 301.644 
L 670.768788 301.644 
L 672.175104 301.644 
L 673.566538 301.644 
L 674.943402 301.644 
L 676.305997 301.644 
L 677.654617 301.644 
L 678.989545 301.644 
" clip-path="url(#p251af1f19c)" style="fill: none; stroke-dasharray: 1.85,0.8; stroke-dashoffset: 0; stroke: #8000ff; stroke-width: 0.5"/>
   </g>
   <g id="line2d_31">
    <path d="M 74.780455 39.964 
L 165.921892 46.242518 
L 219.236215 49.960958 
L 257.063329 52.618331 
L 286.404318 54.689933 
L 310.377652 56.389024 
L 330.646817 57.829972 
L 348.204767 59.08133 
L 363.691975 60.187473 
L 377.545756 61.178786 
L 390.078025 62.076997 
L 401.51909 62.898185 
L 412.043849 63.654585 
L 421.788255 64.355725 
L 430.860079 65.009169 
L 439.346204 65.621026 
L 447.317693 66.196298 
L 454.833413 66.739134 
L 461.942674 67.253013 
L 468.687193 67.740883 
L 475.102578 68.205261 
L 481.219462 68.648316 
L 487.064393 69.07193 
L 492.660527 69.477743 
L 498.028182 69.867199 
L 503.185287 70.241569 
L 508.147736 70.601985 
L 512.929692 70.949453 
L 517.543825 71.284875 
L 522.001516 71.609062 
L 526.313027 71.922745 
L 530.487641 72.226586 
L 534.533785 72.521186 
L 538.45913 72.807093 
L 542.270681 73.084807 
L 545.97485 73.354786 
L 549.577522 73.617452 
L 553.084111 73.873191 
L 556.49961 74.12236 
L 559.82863 74.36529 
L 563.075445 74.602288 
L 566.244015 74.833635 
L 569.338024 75.059598 
L 572.360899 75.280421 
L 575.315839 75.496334 
L 578.20583 75.707552 
L 581.033666 75.914274 
L 583.801964 76.116689 
L 586.51318 76.314973 
L 589.16962 76.509292 
L 591.773453 76.699803 
L 594.326724 76.886651 
L 596.831358 77.069975 
L 599.289173 77.249907 
L 601.701889 77.42657 
L 604.071129 77.600081 
L 606.398434 77.770551 
L 608.685262 77.938084 
L 610.932997 78.102782 
L 613.142954 78.264737 
L 615.31638 78.424041 
L 617.454464 78.58078 
L 619.558338 78.735033 
L 621.629079 78.886881 
L 623.667713 79.036395 
L 625.675222 79.183648 
L 627.652542 79.328708 
L 629.600568 79.471637 
L 631.520153 79.612499 
L 633.412118 79.751352 
L 635.277246 79.888253 
L 637.116287 80.023257 
L 638.929962 80.156415 
L 640.718959 80.287777 
L 642.483943 80.417392 
L 644.225548 80.545304 
L 645.944387 80.671559 
L 647.641047 80.796199 
L 649.316093 80.919265 
L 650.970068 81.040796 
L 652.603496 81.16083 
L 654.216882 81.279403 
L 655.810711 81.396551 
L 657.385452 81.512308 
L 658.941557 81.626707 
L 660.479461 81.739779 
L 661.999585 81.851554 
L 663.502337 81.962062 
L 664.988107 82.071331 
L 666.457277 82.17939 
L 667.910212 82.286264 
L 669.347268 82.39198 
L 670.768788 82.496561 
L 672.175104 82.600033 
L 673.566538 82.702419 
L 674.943402 82.803741 
L 676.305997 82.904022 
L 677.654617 83.003281 
L 678.989545 83.101541 
" clip-path="url(#p251af1f19c)" style="fill: none; stroke-dasharray: 1.85,0.8; stroke-dashoffset: 0; stroke: #000000; stroke-width: 0.5"/>
   </g>
   <g id="line2d_32">
    <path d="M -1 297.867368 
L 74.780455 297.867378 
L 165.921892 297.925184 
L 219.236215 297.982989 
L 257.063329 298.021526 
L 286.404318 298.079331 
L 310.377652 298.156405 
L 330.646817 298.194942 
L 348.204767 298.233479 
L 363.691975 298.291285 
L 377.545756 298.34909 
L 390.078025 298.522506 
L 401.51909 298.618849 
L 412.043849 298.715191 
L 421.788255 298.869339 
L 430.860079 298.907876 
L 439.346204 298.965681 
L 447.317693 299.119829 
L 454.833413 299.216172 
L 461.942674 299.293246 
L 468.687193 299.447393 
L 475.102578 299.524467 
L 481.219462 299.582273 
L 487.064393 299.697884 
L 492.660527 299.736421 
L 498.028182 299.852031 
L 503.185287 299.948374 
L 508.147736 300.006179 
L 512.929692 300.083253 
L 517.543825 300.160327 
L 522.001516 300.218133 
L 526.313027 300.275938 
L 530.487641 300.333743 
L 534.533785 300.391549 
L 538.45913 300.487891 
L 542.270681 300.545697 
L 545.97485 300.622771 
L 549.577522 300.661308 
L 553.084111 300.719113 
L 556.49961 300.776918 
L 559.82863 300.834724 
L 563.075445 300.911798 
L 566.244015 300.950335 
L 569.338024 301.046677 
L 572.360899 301.104483 
L 575.315839 301.354973 
L 578.20583 301.39351 
L 581.033666 301.412778 
L 583.801964 301.489852 
L 586.51318 301.644 
L 589.16962 301.644 
L 591.773453 301.644 
L 594.326724 301.644 
L 596.831358 301.644 
L 599.289173 301.644 
L 601.701889 301.644 
L 604.071129 301.644 
L 606.398434 301.644 
L 608.685262 301.644 
L 610.932997 301.644 
L 613.142954 301.644 
L 615.31638 301.644 
L 617.454464 301.644 
L 619.558338 301.644 
L 621.629079 301.644 
L 623.667713 301.644 
L 625.675222 301.644 
L 627.652542 301.644 
L 629.600568 301.644 
L 631.520153 301.644 
L 633.412118 301.644 
L 635.277246 301.644 
L 637.116287 301.644 
L 638.929962 301.644 
L 640.718959 301.644 
L 642.483943 301.644 
L 644.225548 301.644 
L 645.944387 301.644 
L 647.641047 301.644 
L 649.316093 301.644 
L 650.970068 301.644 
L 652.603496 301.644 
L 654.216882 301.644 
L 655.810711 301.644 
L 657.385452 301.644 
L 658.941557 301.644 
L 660.479461 301.644 
L 661.999585 301.644 
L 663.502337 301.644 
L 664.988107 301.644 
L 666.457277 301.644 
L 667.910212 301.644 
L 669.347268 301.644 
L 670.768788 301.644 
L 672.175104 301.644 
L 673.566538 301.644 
L 674.943402 301.644 
L 676.305997 301.644 
L 677.654617 301.644 
L 678.989545 301.644 
" clip-path="url(#p251af1f19c)" style="fill: none; stroke-dasharray: 1.85,0.8; stroke-dashoffset: 0; stroke: #80ffb4; stroke-width: 0.5"/>
   </g>
   <g id="line2d_33">
    <path d="M 74.780455 299.129291 
L 165.921892 299.810102 
L 219.236215 300.128443 
L 257.063329 300.323786 
L 286.404318 300.459647 
L 310.377652 300.561314 
L 330.646817 300.641155 
L 348.204767 300.706044 
L 363.691975 300.760153 
L 377.545756 300.806181 
L 390.078025 300.845965 
L 401.51909 300.880805 
L 412.043849 300.911648 
L 421.788255 300.939206 
L 430.860079 300.964024 
L 439.346204 300.986529 
L 447.317693 301.00706 
L 454.833413 301.025888 
L 461.942674 301.043238 
L 468.687193 301.059292 
L 475.102578 301.074205 
L 481.219462 301.088104 
L 487.064393 301.101101 
L 492.660527 301.113288 
L 498.028182 301.124745 
L 503.185287 301.135544 
L 508.147736 301.145743 
L 512.929692 301.155397 
L 517.543825 301.164552 
L 522.001516 301.17325 
L 526.313027 301.181527 
L 530.487641 301.189416 
L 534.533785 301.196947 
L 538.45913 301.204145 
L 542.270681 301.211034 
L 545.97485 301.217636 
L 549.577522 301.223969 
L 553.084111 301.230052 
L 556.49961 301.235901 
L 559.82863 301.241529 
L 563.075445 301.246951 
L 566.244015 301.252178 
L 569.338024 301.257223 
L 572.360899 301.262094 
L 575.315839 301.266803 
L 578.20583 301.271357 
L 581.033666 301.275765 
L 583.801964 301.280035 
L 586.51318 301.284173 
L 589.16962 301.288186 
L 591.773453 301.292081 
L 594.326724 301.295862 
L 596.831358 301.299535 
L 599.289173 301.303106 
L 601.701889 301.306579 
L 604.071129 301.309957 
L 606.398434 301.313246 
L 608.685262 301.31645 
L 610.932997 301.319571 
L 613.142954 301.322613 
L 615.31638 301.32558 
L 617.454464 301.328475 
L 619.558338 301.331299 
L 621.629079 301.334057 
L 623.667713 301.336751 
L 625.675222 301.339383 
L 627.652542 301.341955 
L 629.600568 301.344469 
L 631.520153 301.346929 
L 633.412118 301.349335 
L 635.277246 301.35169 
L 637.116287 301.353995 
L 638.929962 301.356252 
L 640.718959 301.358462 
L 642.483943 301.360628 
L 644.225548 301.362751 
L 645.944387 301.364832 
L 647.641047 301.366872 
L 649.316093 301.368873 
L 650.970068 301.370835 
L 652.603496 301.372761 
L 654.216882 301.374652 
L 655.810711 301.376507 
L 657.385452 301.378329 
L 658.941557 301.380118 
L 660.479461 301.381876 
L 661.999585 301.383603 
L 663.502337 301.385299 
L 664.988107 301.386967 
L 666.457277 301.388607 
L 667.910212 301.390219 
L 669.347268 301.391804 
L 670.768788 301.393364 
L 672.175104 301.394898 
L 673.566538 301.396407 
L 674.943402 301.397893 
L 676.305997 301.399355 
L 677.654617 301.400794 
L 678.989545 301.402211 
" clip-path="url(#p251af1f19c)" style="fill: none; stroke-dasharray: 1.85,0.8; stroke-dashoffset: 0; stroke: #000000; stroke-width: 0.5"/>
   </g>
   <g id="line2d_34">
    <path d="M -1 297.905896 
L 74.780455 297.905915 
L 165.921892 297.96372 
L 219.236215 298.0986 
L 257.063329 298.194942 
L 286.404318 298.291285 
L 310.377652 298.426164 
L 330.646817 298.59958 
L 348.204767 298.792265 
L 363.691975 298.869339 
L 377.545756 299.004218 
L 390.078025 299.216172 
L 401.51909 299.389588 
L 412.043849 299.48593 
L 421.788255 299.62081 
L 430.860079 299.755689 
L 439.346204 299.986911 
L 447.317693 300.237401 
L 454.833413 300.314475 
L 461.942674 300.410817 
L 468.687193 300.50716 
L 475.102578 300.584234 
L 481.219462 300.776918 
L 487.064393 300.892529 
L 492.660527 301.027409 
L 498.028182 301.123751 
L 503.185287 301.200825 
L 508.147736 301.277899 
L 512.929692 301.489852 
L 517.543825 301.644 
L 522.001516 301.644 
L 526.313027 301.644 
L 530.487641 301.644 
L 534.533785 301.644 
L 538.45913 301.644 
L 542.270681 301.644 
L 545.97485 301.644 
L 549.577522 301.644 
L 553.084111 301.644 
L 556.49961 301.644 
L 559.82863 301.644 
L 563.075445 301.644 
L 566.244015 301.644 
L 569.338024 301.644 
L 572.360899 301.644 
L 575.315839 301.644 
L 578.20583 301.644 
L 581.033666 301.644 
L 583.801964 301.644 
L 586.51318 301.644 
L 589.16962 301.644 
L 591.773453 301.644 
L 594.326724 301.644 
L 596.831358 301.644 
L 599.289173 301.644 
L 601.701889 301.644 
L 604.071129 301.644 
L 606.398434 301.644 
L 608.685262 301.644 
L 610.932997 301.644 
L 613.142954 301.644 
L 615.31638 301.644 
L 617.454464 301.644 
L 619.558338 301.644 
L 621.629079 301.644 
L 623.667713 301.644 
L 625.675222 301.644 
L 627.652542 301.644 
L 629.600568 301.644 
L 631.520153 301.644 
L 633.412118 301.644 
L 635.277246 301.644 
L 637.116287 301.644 
L 638.929962 301.644 
L 640.718959 301.644 
L 642.483943 301.644 
L 644.225548 301.644 
L 645.944387 301.644 
L 647.641047 301.644 
L 649.316093 301.644 
L 650.970068 301.644 
L 652.603496 301.644 
L 654.216882 301.644 
L 655.810711 301.644 
L 657.385452 301.644 
L 658.941557 301.644 
L 660.479461 301.644 
L 661.999585 301.644 
L 663.502337 301.644 
L 664.988107 301.644 
L 666.457277 301.644 
L 667.910212 301.644 
L 669.347268 301.644 
L 670.768788 301.644 
L 672.175104 301.644 
L 673.566538 301.644 
L 674.943402 301.644 
L 676.305997 301.644 
L 677.654617 301.644 
L 678.989545 301.644 
" clip-path="url(#p251af1f19c)" style="fill: none; stroke-dasharray: 1.85,0.8; stroke-dashoffset: 0; stroke: #ff0000; stroke-width: 0.5"/>
   </g>
   <g id="line2d_35">
    <path d="M 74.780455 301.644 
L 165.921892 301.644 
L 219.236215 301.644 
L 257.063329 301.644 
L 286.404318 301.644 
L 310.377652 301.644 
L 330.646817 301.644 
L 348.204767 301.644 
L 363.691975 301.644 
L 377.545756 301.644 
L 390.078025 301.644 
L 401.51909 301.644 
L 412.043849 301.644 
L 421.788255 301.644 
L 430.860079 301.644 
L 439.346204 301.644 
L 447.317693 301.644 
L 454.833413 301.644 
L 461.942674 301.644 
L 468.687193 301.644 
L 475.102578 301.644 
L 481.219462 301.644 
L 487.064393 301.644 
L 492.660527 301.644 
L 498.028182 301.644 
L 503.185287 301.644 
L 508.147736 301.644 
L 512.929692 301.644 
L 517.543825 301.644 
L 522.001516 301.644 
L 526.313027 301.644 
L 530.487641 301.644 
L 534.533785 301.644 
L 538.45913 301.644 
L 542.270681 301.644 
L 545.97485 301.644 
L 549.577522 301.644 
L 553.084111 301.644 
L 556.49961 301.644 
L 559.82863 301.644 
L 563.075445 301.644 
L 566.244015 301.644 
L 569.338024 301.644 
L 572.360899 301.644 
L 575.315839 301.644 
L 578.20583 301.644 
L 581.033666 301.644 
L 583.801964 301.644 
L 586.51318 301.644 
L 589.16962 301.644 
L 591.773453 301.644 
L 594.326724 301.644 
L 596.831358 301.644 
L 599.289173 301.644 
L 601.701889 301.644 
L 604.071129 301.644 
L 606.398434 301.644 
L 608.685262 301.644 
L 610.932997 301.644 
L 613.142954 301.644 
L 615.31638 301.644 
L 617.454464 301.644 
L 619.558338 301.644 
L 621.629079 301.644 
L 623.667713 301.644 
L 625.675222 301.644 
L 627.652542 301.644 
L 629.600568 301.644 
L 631.520153 301.644 
L 633.412118 301.644 
L 635.277246 301.644 
L 637.116287 301.644 
L 638.929962 301.644 
L 640.718959 301.644 
L 642.483943 301.644 
L 644.225548 301.644 
L 645.944387 301.644 
L 647.641047 301.644 
L 649.316093 301.644 
L 650.970068 301.644 
L 652.603496 301.644 
L 654.216882 301.644 
L 655.810711 301.644 
L 657.385452 301.644 
L 658.941557 301.644 
L 660.479461 301.644 
L 661.999585 301.644 
L 663.502337 301.644 
L 664.988107 301.644 
L 666.457277 301.644 
L 667.910212 301.644 
L 669.347268 301.644 
L 670.768788 301.644 
L 672.175104 301.644 
L 673.566538 301.644 
L 674.943402 301.644 
L 676.305997 301.644 
L 677.654617 301.644 
L 678.989545 301.644 
" clip-path="url(#p251af1f19c)" style="fill: none; stroke-dasharray: 1.85,0.8; stroke-dashoffset: 0; stroke: #000000; stroke-width: 0.5"/>
   </g>
   <g id="patch_3">
    <path d="M 44.57 314.728 
L 44.57 26.88 
" style="fill: none; stroke: #000000; stroke-width: 0.8; stroke-linejoin: miter; stroke-linecap: square"/>
   </g>
   <g id="patch_4">
    <path d="M 709.2 314.728 
L 709.2 26.88 
" style="fill: none; stroke: #000000; stroke-width: 0.8; stroke-linejoin: miter; stroke-linecap: square"/>
   </g>
   <g id="patch_5">
    <path d="M 44.57 314.728 
L 709.2 314.728 
" style="fill: none; stroke: #000000; stroke-width: 0.8; stroke-linejoin: miter; stroke-linecap: square"/>
   </g>
   <g id="patch_6">
    <path d="M 44.57 26.88 
L 709.2 26.88 
" style="fill: none; stroke: #000000; stroke-width: 0.8; stroke-linejoin: miter; stroke-linecap: square"/>
   </g>
   <g id="text_14">
    <!-- Unnormalized -->
    <g transform="translate(335.350937 20.88) scale(0.12 -0.12)">
     <defs>
      <path id="DejaVuSans-55" d="M 556 4666 
L 1191 4666 
L 1191 1831 
Q 1191 1081 1462 751 
Q 1734 422 2344 422 
Q 2950 422 3222 751 
Q 3494 1081 3494 1831 
L 3494 4666 
L 4128 4666 
L 4128 1753 
Q 4128 841 3676 375 
Q 3225 -91 2344 -91 
Q 1459 -91 1007 375 
Q 556 841 556 1753 
L 556 4666 
z
" transform="scale(0.015625)"/>
      <path id="DejaVuSans-6f" d="M 1959 3097 
Q 1497 3097 1228 2736 
Q 959 2375 959 1747 
Q 959 1119 1226 758 
Q 1494 397 1959 397 
Q 2419 397 2687 759 
Q 2956 1122 2956 1747 
Q 2956 2369 2687 2733 
Q 2419 3097 1959 3097 
z
M 1959 3584 
Q 2709 3584 3137 3096 
Q 3566 2609 3566 1747 
Q 3566 888 3137 398 
Q 2709 -91 1959 -91 
Q 1206 -91 779 398 
Q 353 888 353 1747 
Q 353 2609 779 3096 
Q 1206 3584 1959 3584 
z
" transform="scale(0.015625)"/>
      <path id="DejaVuSans-72" d="M 2631 2963 
Q 2534 3019 2420 3045 
Q 2306 3072 2169 3072 
Q 1681 3072 1420 2755 
Q 1159 2438 1159 1844 
L 1159 0 
L 581 0 
L 581 3500 
L 1159 3500 
L 1159 2956 
Q 1341 3275 1631 3429 
Q 1922 3584 2338 3584 
Q 2397 3584 2469 3576 
Q 2541 3569 2628 3553 
L 2631 2963 
z
" transform="scale(0.015625)"/>
      <path id="DejaVuSans-7a" d="M 353 3500 
L 3084 3500 
L 3084 2975 
L 922 459 
L 3084 459 
L 3084 0 
L 275 0 
L 275 525 
L 2438 3041 
L 353 3041 
L 353 3500 
z
" transform="scale(0.015625)"/>
      <path id="DejaVuSans-64" d="M 2906 2969 
L 2906 4863 
L 3481 4863 
L 3481 0 
L 2906 0 
L 2906 525 
Q 2725 213 2448 61 
Q 2172 -91 1784 -91 
Q 1150 -91 751 415 
Q 353 922 353 1747 
Q 353 2572 751 3078 
Q 1150 3584 1784 3584 
Q 2172 3584 2448 3432 
Q 2725 3281 2906 2969 
z
M 947 1747 
Q 947 1113 1208 752 
Q 1469 391 1925 391 
Q 2381 391 2643 752 
Q 2906 1113 2906 1747 
Q 2906 2381 2643 2742 
Q 2381 3103 1925 3103 
Q 1469 3103 1208 2742 
Q 947 2381 947 1747 
z
" transform="scale(0.015625)"/>
     </defs>
     <use xlink:href="#DejaVuSans-55"/>
     <use xlink:href="#DejaVuSans-6e" transform="translate(73.193359 0)"/>
     <use xlink:href="#DejaVuSans-6e" transform="translate(136.572266 0)"/>
     <use xlink:href="#DejaVuSans-6f" transform="translate(199.951172 0)"/>
     <use xlink:href="#DejaVuSans-72" transform="translate(261.132812 0)"/>
     <use xlink:href="#DejaVuSans-6d" transform="translate(300.496094 0)"/>
     <use xlink:href="#DejaVuSans-61" transform="translate(397.908203 0)"/>
     <use xlink:href="#DejaVuSans-6c" transform="translate(459.1875 0)"/>
     <use xlink:href="#DejaVuSans-69" transform="translate(486.970703 0)"/>
     <use xlink:href="#DejaVuSans-7a" transform="translate(514.753906 0)"/>
     <use xlink:href="#DejaVuSans-65" transform="translate(567.244141 0)"/>
     <use xlink:href="#DejaVuSans-64" transform="translate(628.767578 0)"/>
    </g>
   </g>
   <g id="legend_1">
    <g id="patch_7">
     <path d="M 493.267187 216.755562 
L 702.2 216.755562 
Q 704.2 216.755562 704.2 214.755562 
L 704.2 126.852438 
Q 704.2 124.852438 702.2 124.852438 
L 493.267187 124.852438 
Q 491.267187 124.852438 491.267187 126.852438 
L 491.267187 214.755562 
Q 491.267187 216.755562 493.267187 216.755562 
z
" style="fill: #ffffff; opacity: 0.8; stroke: #cccccc; stroke-linejoin: miter"/>
    </g>
    <g id="line2d_36">
     <path d="M 495.267187 132.950875 
L 505.267187 132.950875 
L 515.267187 132.950875 
" style="fill: none; stroke-dasharray: 1.85,0.8; stroke-dashoffset: 0; stroke: #8000ff; stroke-width: 0.5"/>
    </g>
    <g id="text_15">
     <!-- rho'=1e-05 -->
     <g transform="translate(523.267187 136.450875) scale(0.1 -0.1)">
      <defs>
       <path id="DejaVuSans-68" d="M 3513 2113 
L 3513 0 
L 2938 0 
L 2938 2094 
Q 2938 2591 2744 2837 
Q 2550 3084 2163 3084 
Q 1697 3084 1428 2787 
Q 1159 2491 1159 1978 
L 1159 0 
L 581 0 
L 581 4863 
L 1159 4863 
L 1159 2956 
Q 1366 3272 1645 3428 
Q 1925 3584 2291 3584 
Q 2894 3584 3203 3211 
Q 3513 2838 3513 2113 
z
" transform="scale(0.015625)"/>
       <path id="DejaVuSans-27" d="M 1147 4666 
L 1147 2931 
L 616 2931 
L 616 4666 
L 1147 4666 
z
" transform="scale(0.015625)"/>
       <path id="DejaVuSans-3d" d="M 678 2906 
L 4684 2906 
L 4684 2381 
L 678 2381 
L 678 2906 
z
M 678 1631 
L 4684 1631 
L 4684 1100 
L 678 1100 
L 678 1631 
z
" transform="scale(0.015625)"/>
       <path id="DejaVuSans-2d" d="M 313 2009 
L 1997 2009 
L 1997 1497 
L 313 1497 
L 313 2009 
z
" transform="scale(0.015625)"/>
      </defs>
      <use xlink:href="#DejaVuSans-72"/>
      <use xlink:href="#DejaVuSans-68" transform="translate(39.363281 0)"/>
      <use xlink:href="#DejaVuSans-6f" transform="translate(102.742188 0)"/>
      <use xlink:href="#DejaVuSans-27" transform="translate(163.923828 0)"/>
      <use xlink:href="#DejaVuSans-3d" transform="translate(191.414062 0)"/>
      <use xlink:href="#DejaVuSans-31" transform="translate(275.203125 0)"/>
      <use xlink:href="#DejaVuSans-65" transform="translate(338.826172 0)"/>
      <use xlink:href="#DejaVuSans-2d" transform="translate(400.349609 0)"/>
      <use xlink:href="#DejaVuSans-30" transform="translate(436.433594 0)"/>
      <use xlink:href="#DejaVuSans-35" transform="translate(500.056641 0)"/>
     </g>
    </g>
    <g id="line2d_37">
     <path d="M 495.267187 147.629 
L 505.267187 147.629 
L 515.267187 147.629 
" style="fill: none; stroke-dasharray: 1.85,0.8; stroke-dashoffset: 0; stroke: #000000; stroke-width: 0.5"/>
    </g>
    <g id="text_16">
     <!-- Analytical with rho_prime=1e-05 -->
     <g transform="translate(523.267187 151.129) scale(0.1 -0.1)">
      <defs>
       <path id="DejaVuSans-41" d="M 2188 4044 
L 1331 1722 
L 3047 1722 
L 2188 4044 
z
M 1831 4666 
L 2547 4666 
L 4325 0 
L 3669 0 
L 3244 1197 
L 1141 1197 
L 716 0 
L 50 0 
L 1831 4666 
z
" transform="scale(0.015625)"/>
       <path id="DejaVuSans-79" d="M 2059 -325 
Q 1816 -950 1584 -1140 
Q 1353 -1331 966 -1331 
L 506 -1331 
L 506 -850 
L 844 -850 
Q 1081 -850 1212 -737 
Q 1344 -625 1503 -206 
L 1606 56 
L 191 3500 
L 800 3500 
L 1894 763 
L 2988 3500 
L 3597 3500 
L 2059 -325 
z
" transform="scale(0.015625)"/>
       <path id="DejaVuSans-74" d="M 1172 4494 
L 1172 3500 
L 2356 3500 
L 2356 3053 
L 1172 3053 
L 1172 1153 
Q 1172 725 1289 603 
Q 1406 481 1766 481 
L 2356 481 
L 2356 0 
L 1766 0 
Q 1100 0 847 248 
Q 594 497 594 1153 
L 594 3053 
L 172 3053 
L 172 3500 
L 594 3500 
L 594 4494 
L 1172 4494 
z
" transform="scale(0.015625)"/>
       <path id="DejaVuSans-63" d="M 3122 3366 
L 3122 2828 
Q 2878 2963 2633 3030 
Q 2388 3097 2138 3097 
Q 1578 3097 1268 2742 
Q 959 2388 959 1747 
Q 959 1106 1268 751 
Q 1578 397 2138 397 
Q 2388 397 2633 464 
Q 2878 531 3122 666 
L 3122 134 
Q 2881 22 2623 -34 
Q 2366 -91 2075 -91 
Q 1284 -91 818 406 
Q 353 903 353 1747 
Q 353 2603 823 3093 
Q 1294 3584 2113 3584 
Q 2378 3584 2631 3529 
Q 2884 3475 3122 3366 
z
" transform="scale(0.015625)"/>
       <path id="DejaVuSans-77" d="M 269 3500 
L 844 3500 
L 1563 769 
L 2278 3500 
L 2956 3500 
L 3675 769 
L 4391 3500 
L 4966 3500 
L 4050 0 
L 3372 0 
L 2619 2869 
L 1863 0 
L 1184 0 
L 269 3500 
z
" transform="scale(0.015625)"/>
       <path id="DejaVuSans-5f" d="M 3263 -1063 
L 3263 -1509 
L -63 -1509 
L -63 -1063 
L 3263 -1063 
z
" transform="scale(0.015625)"/>
       <path id="DejaVuSans-70" d="M 1159 525 
L 1159 -1331 
L 581 -1331 
L 581 3500 
L 1159 3500 
L 1159 2969 
Q 1341 3281 1617 3432 
Q 1894 3584 2278 3584 
Q 2916 3584 3314 3078 
Q 3713 2572 3713 1747 
Q 3713 922 3314 415 
Q 2916 -91 2278 -91 
Q 1894 -91 1617 61 
Q 1341 213 1159 525 
z
M 3116 1747 
Q 3116 2381 2855 2742 
Q 2594 3103 2138 3103 
Q 1681 3103 1420 2742 
Q 1159 2381 1159 1747 
Q 1159 1113 1420 752 
Q 1681 391 2138 391 
Q 2594 391 2855 752 
Q 3116 1113 3116 1747 
z
" transform="scale(0.015625)"/>
      </defs>
      <use xlink:href="#DejaVuSans-41"/>
      <use xlink:href="#DejaVuSans-6e" transform="translate(68.408203 0)"/>
      <use xlink:href="#DejaVuSans-61" transform="translate(131.787109 0)"/>
      <use xlink:href="#DejaVuSans-6c" transform="translate(193.066406 0)"/>
      <use xlink:href="#DejaVuSans-79" transform="translate(220.849609 0)"/>
      <use xlink:href="#DejaVuSans-74" transform="translate(280.029297 0)"/>
      <use xlink:href="#DejaVuSans-69" transform="translate(319.238281 0)"/>
      <use xlink:href="#DejaVuSans-63" transform="translate(347.021484 0)"/>
      <use xlink:href="#DejaVuSans-61" transform="translate(402.001953 0)"/>
      <use xlink:href="#DejaVuSans-6c" transform="translate(463.28125 0)"/>
      <use xlink:href="#DejaVuSans-20" transform="translate(491.064453 0)"/>
      <use xlink:href="#DejaVuSans-77" transform="translate(522.851562 0)"/>
      <use xlink:href="#DejaVuSans-69" transform="translate(604.638672 0)"/>
      <use xlink:href="#DejaVuSans-74" transform="translate(632.421875 0)"/>
      <use xlink:href="#DejaVuSans-68" transform="translate(671.630859 0)"/>
      <use xlink:href="#DejaVuSans-20" transform="translate(735.009766 0)"/>
      <use xlink:href="#DejaVuSans-72" transform="translate(766.796875 0)"/>
      <use xlink:href="#DejaVuSans-68" transform="translate(806.160156 0)"/>
      <use xlink:href="#DejaVuSans-6f" transform="translate(869.539062 0)"/>
      <use xlink:href="#DejaVuSans-5f" transform="translate(930.720703 0)"/>
      <use xlink:href="#DejaVuSans-70" transform="translate(980.720703 0)"/>
      <use xlink:href="#DejaVuSans-72" transform="translate(1044.197266 0)"/>
      <use xlink:href="#DejaVuSans-69" transform="translate(1085.310547 0)"/>
      <use xlink:href="#DejaVuSans-6d" transform="translate(1113.09375 0)"/>
      <use xlink:href="#DejaVuSans-65" transform="translate(1210.505859 0)"/>
      <use xlink:href="#DejaVuSans-3d" transform="translate(1272.029297 0)"/>
      <use xlink:href="#DejaVuSans-31" transform="translate(1355.818359 0)"/>
      <use xlink:href="#DejaVuSans-65" transform="translate(1419.441406 0)"/>
      <use xlink:href="#DejaVuSans-2d" transform="translate(1480.964844 0)"/>
      <use xlink:href="#DejaVuSans-30" transform="translate(1517.048828 0)"/>
      <use xlink:href="#DejaVuSans-35" transform="translate(1580.671875 0)"/>
     </g>
    </g>
    <g id="line2d_38">
     <path d="M 495.267187 162.58525 
L 505.267187 162.58525 
L 515.267187 162.58525 
" style="fill: none; stroke-dasharray: 1.85,0.8; stroke-dashoffset: 0; stroke: #80ffb4; stroke-width: 0.5"/>
    </g>
    <g id="text_17">
     <!-- rho'=0.00013 -->
     <g transform="translate(523.267187 166.08525) scale(0.1 -0.1)">
      <defs>
       <path id="DejaVuSans-2e" d="M 684 794 
L 1344 794 
L 1344 0 
L 684 0 
L 684 794 
z
" transform="scale(0.015625)"/>
      </defs>
      <use xlink:href="#DejaVuSans-72"/>
      <use xlink:href="#DejaVuSans-68" transform="translate(39.363281 0)"/>
      <use xlink:href="#DejaVuSans-6f" transform="translate(102.742188 0)"/>
      <use xlink:href="#DejaVuSans-27" transform="translate(163.923828 0)"/>
      <use xlink:href="#DejaVuSans-3d" transform="translate(191.414062 0)"/>
      <use xlink:href="#DejaVuSans-30" transform="translate(275.203125 0)"/>
      <use xlink:href="#DejaVuSans-2e" transform="translate(338.826172 0)"/>
      <use xlink:href="#DejaVuSans-30" transform="translate(370.613281 0)"/>
      <use xlink:href="#DejaVuSans-30" transform="translate(434.236328 0)"/>
      <use xlink:href="#DejaVuSans-30" transform="translate(497.859375 0)"/>
      <use xlink:href="#DejaVuSans-31" transform="translate(561.482422 0)"/>
      <use xlink:href="#DejaVuSans-33" transform="translate(625.105469 0)"/>
     </g>
    </g>
    <g id="line2d_39">
     <path d="M 495.267187 177.263375 
L 505.267187 177.263375 
L 515.267187 177.263375 
" style="fill: none; stroke-dasharray: 1.85,0.8; stroke-dashoffset: 0; stroke: #000000; stroke-width: 0.5"/>
    </g>
    <g id="text_18">
     <!-- Analytical with rho_prime=0.00013 -->
     <g transform="translate(523.267187 180.763375) scale(0.1 -0.1)">
      <use xlink:href="#DejaVuSans-41"/>
      <use xlink:href="#DejaVuSans-6e" transform="translate(68.408203 0)"/>
      <use xlink:href="#DejaVuSans-61" transform="translate(131.787109 0)"/>
      <use xlink:href="#DejaVuSans-6c" transform="translate(193.066406 0)"/>
      <use xlink:href="#DejaVuSans-79" transform="translate(220.849609 0)"/>
      <use xlink:href="#DejaVuSans-74" transform="translate(280.029297 0)"/>
      <use xlink:href="#DejaVuSans-69" transform="translate(319.238281 0)"/>
      <use xlink:href="#DejaVuSans-63" transform="translate(347.021484 0)"/>
      <use xlink:href="#DejaVuSans-61" transform="translate(402.001953 0)"/>
      <use xlink:href="#DejaVuSans-6c" transform="translate(463.28125 0)"/>
      <use xlink:href="#DejaVuSans-20" transform="translate(491.064453 0)"/>
      <use xlink:href="#DejaVuSans-77" transform="translate(522.851562 0)"/>
      <use xlink:href="#DejaVuSans-69" transform="translate(604.638672 0)"/>
      <use xlink:href="#DejaVuSans-74" transform="translate(632.421875 0)"/>
      <use xlink:href="#DejaVuSans-68" transform="translate(671.630859 0)"/>
      <use xlink:href="#DejaVuSans-20" transform="translate(735.009766 0)"/>
      <use xlink:href="#DejaVuSans-72" transform="translate(766.796875 0)"/>
      <use xlink:href="#DejaVuSans-68" transform="translate(806.160156 0)"/>
      <use xlink:href="#DejaVuSans-6f" transform="translate(869.539062 0)"/>
      <use xlink:href="#DejaVuSans-5f" transform="translate(930.720703 0)"/>
      <use xlink:href="#DejaVuSans-70" transform="translate(980.720703 0)"/>
      <use xlink:href="#DejaVuSans-72" transform="translate(1044.197266 0)"/>
      <use xlink:href="#DejaVuSans-69" transform="translate(1085.310547 0)"/>
      <use xlink:href="#DejaVuSans-6d" transform="translate(1113.09375 0)"/>
      <use xlink:href="#DejaVuSans-65" transform="translate(1210.505859 0)"/>
      <use xlink:href="#DejaVuSans-3d" transform="translate(1272.029297 0)"/>
      <use xlink:href="#DejaVuSans-30" transform="translate(1355.818359 0)"/>
      <use xlink:href="#DejaVuSans-2e" transform="translate(1419.441406 0)"/>
      <use xlink:href="#DejaVuSans-30" transform="translate(1451.228516 0)"/>
      <use xlink:href="#DejaVuSans-30" transform="translate(1514.851562 0)"/>
      <use xlink:href="#DejaVuSans-30" transform="translate(1578.474609 0)"/>
      <use xlink:href="#DejaVuSans-31" transform="translate(1642.097656 0)"/>
      <use xlink:href="#DejaVuSans-33" transform="translate(1705.720703 0)"/>
     </g>
    </g>
    <g id="line2d_40">
     <path d="M 495.267187 192.219625 
L 505.267187 192.219625 
L 515.267187 192.219625 
" style="fill: none; stroke-dasharray: 1.85,0.8; stroke-dashoffset: 0; stroke: #ff0000; stroke-width: 0.5"/>
    </g>
    <g id="text_19">
     <!-- rho'=0.0023 -->
     <g transform="translate(523.267187 195.719625) scale(0.1 -0.1)">
      <use xlink:href="#DejaVuSans-72"/>
      <use xlink:href="#DejaVuSans-68" transform="translate(39.363281 0)"/>
      <use xlink:href="#DejaVuSans-6f" transform="translate(102.742188 0)"/>
      <use xlink:href="#DejaVuSans-27" transform="translate(163.923828 0)"/>
      <use xlink:href="#DejaVuSans-3d" transform="translate(191.414062 0)"/>
      <use xlink:href="#DejaVuSans-30" transform="translate(275.203125 0)"/>
      <use xlink:href="#DejaVuSans-2e" transform="translate(338.826172 0)"/>
      <use xlink:href="#DejaVuSans-30" transform="translate(370.613281 0)"/>
      <use xlink:href="#DejaVuSans-30" transform="translate(434.236328 0)"/>
      <use xlink:href="#DejaVuSans-32" transform="translate(497.859375 0)"/>
      <use xlink:href="#DejaVuSans-33" transform="translate(561.482422 0)"/>
     </g>
    </g>
    <g id="line2d_41">
     <path d="M 495.267187 206.89775 
L 505.267187 206.89775 
L 515.267187 206.89775 
" style="fill: none; stroke-dasharray: 1.85,0.8; stroke-dashoffset: 0; stroke: #000000; stroke-width: 0.5"/>
    </g>
    <g id="text_20">
     <!-- Analytical with rho_prime=0.0023 -->
     <g transform="translate(523.267187 210.39775) scale(0.1 -0.1)">
      <use xlink:href="#DejaVuSans-41"/>
      <use xlink:href="#DejaVuSans-6e" transform="translate(68.408203 0)"/>
      <use xlink:href="#DejaVuSans-61" transform="translate(131.787109 0)"/>
      <use xlink:href="#DejaVuSans-6c" transform="translate(193.066406 0)"/>
      <use xlink:href="#DejaVuSans-79" transform="translate(220.849609 0)"/>
      <use xlink:href="#DejaVuSans-74" transform="translate(280.029297 0)"/>
      <use xlink:href="#DejaVuSans-69" transform="translate(319.238281 0)"/>
      <use xlink:href="#DejaVuSans-63" transform="translate(347.021484 0)"/>
      <use xlink:href="#DejaVuSans-61" transform="translate(402.001953 0)"/>
      <use xlink:href="#DejaVuSans-6c" transform="translate(463.28125 0)"/>
      <use xlink:href="#DejaVuSans-20" transform="translate(491.064453 0)"/>
      <use xlink:href="#DejaVuSans-77" transform="translate(522.851562 0)"/>
      <use xlink:href="#DejaVuSans-69" transform="translate(604.638672 0)"/>
      <use xlink:href="#DejaVuSans-74" transform="translate(632.421875 0)"/>
      <use xlink:href="#DejaVuSans-68" transform="translate(671.630859 0)"/>
      <use xlink:href="#DejaVuSans-20" transform="translate(735.009766 0)"/>
      <use xlink:href="#DejaVuSans-72" transform="translate(766.796875 0)"/>
      <use xlink:href="#DejaVuSans-68" transform="translate(806.160156 0)"/>
      <use xlink:href="#DejaVuSans-6f" transform="translate(869.539062 0)"/>
      <use xlink:href="#DejaVuSans-5f" transform="translate(930.720703 0)"/>
      <use xlink:href="#DejaVuSans-70" transform="translate(980.720703 0)"/>
      <use xlink:href="#DejaVuSans-72" transform="translate(1044.197266 0)"/>
      <use xlink:href="#DejaVuSans-69" transform="translate(1085.310547 0)"/>
      <use xlink:href="#DejaVuSans-6d" transform="translate(1113.09375 0)"/>
      <use xlink:href="#DejaVuSans-65" transform="translate(1210.505859 0)"/>
      <use xlink:href="#DejaVuSans-3d" transform="translate(1272.029297 0)"/>
      <use xlink:href="#DejaVuSans-30" transform="translate(1355.818359 0)"/>
      <use xlink:href="#DejaVuSans-2e" transform="translate(1419.441406 0)"/>
      <use xlink:href="#DejaVuSans-30" transform="translate(1451.228516 0)"/>
      <use xlink:href="#DejaVuSans-30" transform="translate(1514.851562 0)"/>
      <use xlink:href="#DejaVuSans-32" transform="translate(1578.474609 0)"/>
      <use xlink:href="#DejaVuSans-33" transform="translate(1642.097656 0)"/>
     </g>
    </g>
   </g>
  </g>
 </g>
 <defs>
  <clipPath id="p251af1f19c">
   <rect x="44.57" y="26.88" width="664.63" height="287.848"/>
  </clipPath>
 </defs>
</svg>
