<?xml version="1.0" encoding="utf-8" standalone="no"?>
<!DOCTYPE svg PUBLIC "-//W3C//DTD SVG 1.1//EN"
  "http://www.w3.org/Graphics/SVG/1.1/DTD/svg11.dtd">
<svg xmlns:xlink="http://www.w3.org/1999/xlink" width="460.8pt" height="345.6pt" viewBox="0 0 460.8 345.6" xmlns="http://www.w3.org/2000/svg" version="1.1">
 <metadata>
  <rdf:RDF xmlns:dc="http://purl.org/dc/elements/1.1/" xmlns:cc="http://creativecommons.org/ns#" xmlns:rdf="http://www.w3.org/1999/02/22-rdf-syntax-ns#">
   <cc:Work>
    <dc:type rdf:resource="http://purl.org/dc/dcmitype/StillImage"/>
    <dc:date>2025-03-12T20:01:01.502201</dc:date>
    <dc:format>image/svg+xml</dc:format>
    <dc:creator>
     <cc:Agent>
      <dc:title>Matplotlib v3.10.0, https://matplotlib.org/</dc:title>
     </cc:Agent>
    </dc:creator>
   </cc:Work>
  </rdf:RDF>
 </metadata>
 <defs>
  <style type="text/css">*{stroke-linejoin: round; stroke-linecap: butt}</style>
 </defs>
 <g id="figure_1">
  <g id="patch_1">
   <path d="M 0 345.6 
L 460.8 345.6 
L 460.8 0 
L 0 0 
z
" style="fill: #ffffff"/>
  </g>
  <g id="axes_1">
   <g id="patch_2">
    <path d="M 57.6 307.584 
L 414.72 307.584 
L 414.72 41.472 
L 57.6 41.472 
z
" style="fill: #ffffff"/>
   </g>
   <g id="matplotlib.axis_1">
    <g id="xtick_1">
     <g id="line2d_1">
      <defs>
       <path id="maebf27dfcd" d="M 0 0 
L 0 3.5 
" style="stroke: #000000; stroke-width: 0.8"/>
      </defs>
      <g>
       <use xlink:href="#maebf27dfcd" x="63.443782" y="307.584" style="stroke: #000000; stroke-width: 0.8"/>
      </g>
     </g>
     <g id="text_1">
      <!-- 0 -->
      <g transform="translate(60.262532 322.182437) scale(0.1 -0.1)">
       <defs>
        <path id="DejaVuSans-30" d="M 2034 4250 
Q 1547 4250 1301 3770 
Q 1056 3291 1056 2328 
Q 1056 1369 1301 889 
Q 1547 409 2034 409 
Q 2525 409 2770 889 
Q 3016 1369 3016 2328 
Q 3016 3291 2770 3770 
Q 2525 4250 2034 4250 
z
M 2034 4750 
Q 2819 4750 3233 4129 
Q 3647 3509 3647 2328 
Q 3647 1150 3233 529 
Q 2819 -91 2034 -91 
Q 1250 -91 836 529 
Q 422 1150 422 2328 
Q 422 3509 836 4129 
Q 1250 4750 2034 4750 
z
" transform="scale(0.015625)"/>
       </defs>
       <use xlink:href="#DejaVuSans-30"/>
      </g>
     </g>
    </g>
    <g id="xtick_2">
     <g id="line2d_2">
      <g>
       <use xlink:href="#maebf27dfcd" x="106.731055" y="307.584" style="stroke: #000000; stroke-width: 0.8"/>
      </g>
     </g>
     <g id="text_2">
      <!-- 100 -->
      <g transform="translate(97.187305 322.182437) scale(0.1 -0.1)">
       <defs>
        <path id="DejaVuSans-31" d="M 794 531 
L 1825 531 
L 1825 4091 
L 703 3866 
L 703 4441 
L 1819 4666 
L 2450 4666 
L 2450 531 
L 3481 531 
L 3481 0 
L 794 0 
L 794 531 
z
" transform="scale(0.015625)"/>
       </defs>
       <use xlink:href="#DejaVuSans-31"/>
       <use xlink:href="#DejaVuSans-30" transform="translate(63.623047 0)"/>
       <use xlink:href="#DejaVuSans-30" transform="translate(127.246094 0)"/>
      </g>
     </g>
    </g>
    <g id="xtick_3">
     <g id="line2d_3">
      <g>
       <use xlink:href="#maebf27dfcd" x="150.018327" y="307.584" style="stroke: #000000; stroke-width: 0.8"/>
      </g>
     </g>
     <g id="text_3">
      <!-- 200 -->
      <g transform="translate(140.474577 322.182437) scale(0.1 -0.1)">
       <defs>
        <path id="DejaVuSans-32" d="M 1228 531 
L 3431 531 
L 3431 0 
L 469 0 
L 469 531 
Q 828 903 1448 1529 
Q 2069 2156 2228 2338 
Q 2531 2678 2651 2914 
Q 2772 3150 2772 3378 
Q 2772 3750 2511 3984 
Q 2250 4219 1831 4219 
Q 1534 4219 1204 4116 
Q 875 4013 500 3803 
L 500 4441 
Q 881 4594 1212 4672 
Q 1544 4750 1819 4750 
Q 2544 4750 2975 4387 
Q 3406 4025 3406 3419 
Q 3406 3131 3298 2873 
Q 3191 2616 2906 2266 
Q 2828 2175 2409 1742 
Q 1991 1309 1228 531 
z
" transform="scale(0.015625)"/>
       </defs>
       <use xlink:href="#DejaVuSans-32"/>
       <use xlink:href="#DejaVuSans-30" transform="translate(63.623047 0)"/>
       <use xlink:href="#DejaVuSans-30" transform="translate(127.246094 0)"/>
      </g>
     </g>
    </g>
    <g id="xtick_4">
     <g id="line2d_4">
      <g>
       <use xlink:href="#maebf27dfcd" x="193.3056" y="307.584" style="stroke: #000000; stroke-width: 0.8"/>
      </g>
     </g>
     <g id="text_4">
      <!-- 300 -->
      <g transform="translate(183.76185 322.182437) scale(0.1 -0.1)">
       <defs>
        <path id="DejaVuSans-33" d="M 2597 2516 
Q 3050 2419 3304 2112 
Q 3559 1806 3559 1356 
Q 3559 666 3084 287 
Q 2609 -91 1734 -91 
Q 1441 -91 1130 -33 
Q 819 25 488 141 
L 488 750 
Q 750 597 1062 519 
Q 1375 441 1716 441 
Q 2309 441 2620 675 
Q 2931 909 2931 1356 
Q 2931 1769 2642 2001 
Q 2353 2234 1838 2234 
L 1294 2234 
L 1294 2753 
L 1863 2753 
Q 2328 2753 2575 2939 
Q 2822 3125 2822 3475 
Q 2822 3834 2567 4026 
Q 2313 4219 1838 4219 
Q 1578 4219 1281 4162 
Q 984 4106 628 3988 
L 628 4550 
Q 988 4650 1302 4700 
Q 1616 4750 1894 4750 
Q 2613 4750 3031 4423 
Q 3450 4097 3450 3541 
Q 3450 3153 3228 2886 
Q 3006 2619 2597 2516 
z
" transform="scale(0.015625)"/>
       </defs>
       <use xlink:href="#DejaVuSans-33"/>
       <use xlink:href="#DejaVuSans-30" transform="translate(63.623047 0)"/>
       <use xlink:href="#DejaVuSans-30" transform="translate(127.246094 0)"/>
      </g>
     </g>
    </g>
    <g id="xtick_5">
     <g id="line2d_5">
      <g>
       <use xlink:href="#maebf27dfcd" x="236.592873" y="307.584" style="stroke: #000000; stroke-width: 0.8"/>
      </g>
     </g>
     <g id="text_5">
      <!-- 400 -->
      <g transform="translate(227.049123 322.182437) scale(0.1 -0.1)">
       <defs>
        <path id="DejaVuSans-34" d="M 2419 4116 
L 825 1625 
L 2419 1625 
L 2419 4116 
z
M 2253 4666 
L 3047 4666 
L 3047 1625 
L 3713 1625 
L 3713 1100 
L 3047 1100 
L 3047 0 
L 2419 0 
L 2419 1100 
L 313 1100 
L 313 1709 
L 2253 4666 
z
" transform="scale(0.015625)"/>
       </defs>
       <use xlink:href="#DejaVuSans-34"/>
       <use xlink:href="#DejaVuSans-30" transform="translate(63.623047 0)"/>
       <use xlink:href="#DejaVuSans-30" transform="translate(127.246094 0)"/>
      </g>
     </g>
    </g>
    <g id="xtick_6">
     <g id="line2d_6">
      <g>
       <use xlink:href="#maebf27dfcd" x="279.880145" y="307.584" style="stroke: #000000; stroke-width: 0.8"/>
      </g>
     </g>
     <g id="text_6">
      <!-- 500 -->
      <g transform="translate(270.336395 322.182437) scale(0.1 -0.1)">
       <defs>
        <path id="DejaVuSans-35" d="M 691 4666 
L 3169 4666 
L 3169 4134 
L 1269 4134 
L 1269 2991 
Q 1406 3038 1543 3061 
Q 1681 3084 1819 3084 
Q 2600 3084 3056 2656 
Q 3513 2228 3513 1497 
Q 3513 744 3044 326 
Q 2575 -91 1722 -91 
Q 1428 -91 1123 -41 
Q 819 9 494 109 
L 494 744 
Q 775 591 1075 516 
Q 1375 441 1709 441 
Q 2250 441 2565 725 
Q 2881 1009 2881 1497 
Q 2881 1984 2565 2268 
Q 2250 2553 1709 2553 
Q 1456 2553 1204 2497 
Q 953 2441 691 2322 
L 691 4666 
z
" transform="scale(0.015625)"/>
       </defs>
       <use xlink:href="#DejaVuSans-35"/>
       <use xlink:href="#DejaVuSans-30" transform="translate(63.623047 0)"/>
       <use xlink:href="#DejaVuSans-30" transform="translate(127.246094 0)"/>
      </g>
     </g>
    </g>
    <g id="xtick_7">
     <g id="line2d_7">
      <g>
       <use xlink:href="#maebf27dfcd" x="323.167418" y="307.584" style="stroke: #000000; stroke-width: 0.8"/>
      </g>
     </g>
     <g id="text_7">
      <!-- 600 -->
      <g transform="translate(313.623668 322.182437) scale(0.1 -0.1)">
       <defs>
        <path id="DejaVuSans-36" d="M 2113 2584 
Q 1688 2584 1439 2293 
Q 1191 2003 1191 1497 
Q 1191 994 1439 701 
Q 1688 409 2113 409 
Q 2538 409 2786 701 
Q 3034 994 3034 1497 
Q 3034 2003 2786 2293 
Q 2538 2584 2113 2584 
z
M 3366 4563 
L 3366 3988 
Q 3128 4100 2886 4159 
Q 2644 4219 2406 4219 
Q 1781 4219 1451 3797 
Q 1122 3375 1075 2522 
Q 1259 2794 1537 2939 
Q 1816 3084 2150 3084 
Q 2853 3084 3261 2657 
Q 3669 2231 3669 1497 
Q 3669 778 3244 343 
Q 2819 -91 2113 -91 
Q 1303 -91 875 529 
Q 447 1150 447 2328 
Q 447 3434 972 4092 
Q 1497 4750 2381 4750 
Q 2619 4750 2861 4703 
Q 3103 4656 3366 4563 
z
" transform="scale(0.015625)"/>
       </defs>
       <use xlink:href="#DejaVuSans-36"/>
       <use xlink:href="#DejaVuSans-30" transform="translate(63.623047 0)"/>
       <use xlink:href="#DejaVuSans-30" transform="translate(127.246094 0)"/>
      </g>
     </g>
    </g>
    <g id="xtick_8">
     <g id="line2d_8">
      <g>
       <use xlink:href="#maebf27dfcd" x="366.454691" y="307.584" style="stroke: #000000; stroke-width: 0.8"/>
      </g>
     </g>
     <g id="text_8">
      <!-- 700 -->
      <g transform="translate(356.910941 322.182437) scale(0.1 -0.1)">
       <defs>
        <path id="DejaVuSans-37" d="M 525 4666 
L 3525 4666 
L 3525 4397 
L 1831 0 
L 1172 0 
L 2766 4134 
L 525 4134 
L 525 4666 
z
" transform="scale(0.015625)"/>
       </defs>
       <use xlink:href="#DejaVuSans-37"/>
       <use xlink:href="#DejaVuSans-30" transform="translate(63.623047 0)"/>
       <use xlink:href="#DejaVuSans-30" transform="translate(127.246094 0)"/>
      </g>
     </g>
    </g>
    <g id="xtick_9">
     <g id="line2d_9">
      <g>
       <use xlink:href="#maebf27dfcd" x="409.741964" y="307.584" style="stroke: #000000; stroke-width: 0.8"/>
      </g>
     </g>
     <g id="text_9">
      <!-- 800 -->
      <g transform="translate(400.198214 322.182437) scale(0.1 -0.1)">
       <defs>
        <path id="DejaVuSans-38" d="M 2034 2216 
Q 1584 2216 1326 1975 
Q 1069 1734 1069 1313 
Q 1069 891 1326 650 
Q 1584 409 2034 409 
Q 2484 409 2743 651 
Q 3003 894 3003 1313 
Q 3003 1734 2745 1975 
Q 2488 2216 2034 2216 
z
M 1403 2484 
Q 997 2584 770 2862 
Q 544 3141 544 3541 
Q 544 4100 942 4425 
Q 1341 4750 2034 4750 
Q 2731 4750 3128 4425 
Q 3525 4100 3525 3541 
Q 3525 3141 3298 2862 
Q 3072 2584 2669 2484 
Q 3125 2378 3379 2068 
Q 3634 1759 3634 1313 
Q 3634 634 3220 271 
Q 2806 -91 2034 -91 
Q 1263 -91 848 271 
Q 434 634 434 1313 
Q 434 1759 690 2068 
Q 947 2378 1403 2484 
z
M 1172 3481 
Q 1172 3119 1398 2916 
Q 1625 2713 2034 2713 
Q 2441 2713 2670 2916 
Q 2900 3119 2900 3481 
Q 2900 3844 2670 4047 
Q 2441 4250 2034 4250 
Q 1625 4250 1398 4047 
Q 1172 3844 1172 3481 
z
" transform="scale(0.015625)"/>
       </defs>
       <use xlink:href="#DejaVuSans-38"/>
       <use xlink:href="#DejaVuSans-30" transform="translate(63.623047 0)"/>
       <use xlink:href="#DejaVuSans-30" transform="translate(127.246094 0)"/>
      </g>
     </g>
    </g>
    <g id="text_10">
     <!-- Temperature ($^{\circ}C$) -->
     <g transform="translate(192.16 335.862125) scale(0.1 -0.1)">
      <defs>
       <path id="DejaVuSans-54" d="M -19 4666 
L 3928 4666 
L 3928 4134 
L 2272 4134 
L 2272 0 
L 1638 0 
L 1638 4134 
L -19 4134 
L -19 4666 
z
" transform="scale(0.015625)"/>
       <path id="DejaVuSans-65" d="M 3597 1894 
L 3597 1613 
L 953 1613 
Q 991 1019 1311 708 
Q 1631 397 2203 397 
Q 2534 397 2845 478 
Q 3156 559 3463 722 
L 3463 178 
Q 3153 47 2828 -22 
Q 2503 -91 2169 -91 
Q 1331 -91 842 396 
Q 353 884 353 1716 
Q 353 2575 817 3079 
Q 1281 3584 2069 3584 
Q 2775 3584 3186 3129 
Q 3597 2675 3597 1894 
z
M 3022 2063 
Q 3016 2534 2758 2815 
Q 2500 3097 2075 3097 
Q 1594 3097 1305 2825 
Q 1016 2553 972 2059 
L 3022 2063 
z
" transform="scale(0.015625)"/>
       <path id="DejaVuSans-6d" d="M 3328 2828 
Q 3544 3216 3844 3400 
Q 4144 3584 4550 3584 
Q 5097 3584 5394 3201 
Q 5691 2819 5691 2113 
L 5691 0 
L 5113 0 
L 5113 2094 
Q 5113 2597 4934 2840 
Q 4756 3084 4391 3084 
Q 3944 3084 3684 2787 
Q 3425 2491 3425 1978 
L 3425 0 
L 2847 0 
L 2847 2094 
Q 2847 2600 2669 2842 
Q 2491 3084 2119 3084 
Q 1678 3084 1418 2786 
Q 1159 2488 1159 1978 
L 1159 0 
L 581 0 
L 581 3500 
L 1159 3500 
L 1159 2956 
Q 1356 3278 1631 3431 
Q 1906 3584 2284 3584 
Q 2666 3584 2933 3390 
Q 3200 3197 3328 2828 
z
" transform="scale(0.015625)"/>
       <path id="DejaVuSans-70" d="M 1159 525 
L 1159 -1331 
L 581 -1331 
L 581 3500 
L 1159 3500 
L 1159 2969 
Q 1341 3281 1617 3432 
Q 1894 3584 2278 3584 
Q 2916 3584 3314 3078 
Q 3713 2572 3713 1747 
Q 3713 922 3314 415 
Q 2916 -91 2278 -91 
Q 1894 -91 1617 61 
Q 1341 213 1159 525 
z
M 3116 1747 
Q 3116 2381 2855 2742 
Q 2594 3103 2138 3103 
Q 1681 3103 1420 2742 
Q 1159 2381 1159 1747 
Q 1159 1113 1420 752 
Q 1681 391 2138 391 
Q 2594 391 2855 752 
Q 3116 1113 3116 1747 
z
" transform="scale(0.015625)"/>
       <path id="DejaVuSans-72" d="M 2631 2963 
Q 2534 3019 2420 3045 
Q 2306 3072 2169 3072 
Q 1681 3072 1420 2755 
Q 1159 2438 1159 1844 
L 1159 0 
L 581 0 
L 581 3500 
L 1159 3500 
L 1159 2956 
Q 1341 3275 1631 3429 
Q 1922 3584 2338 3584 
Q 2397 3584 2469 3576 
Q 2541 3569 2628 3553 
L 2631 2963 
z
" transform="scale(0.015625)"/>
       <path id="DejaVuSans-61" d="M 2194 1759 
Q 1497 1759 1228 1600 
Q 959 1441 959 1056 
Q 959 750 1161 570 
Q 1363 391 1709 391 
Q 2188 391 2477 730 
Q 2766 1069 2766 1631 
L 2766 1759 
L 2194 1759 
z
M 3341 1997 
L 3341 0 
L 2766 0 
L 2766 531 
Q 2569 213 2275 61 
Q 1981 -91 1556 -91 
Q 1019 -91 701 211 
Q 384 513 384 1019 
Q 384 1609 779 1909 
Q 1175 2209 1959 2209 
L 2766 2209 
L 2766 2266 
Q 2766 2663 2505 2880 
Q 2244 3097 1772 3097 
Q 1472 3097 1187 3025 
Q 903 2953 641 2809 
L 641 3341 
Q 956 3463 1253 3523 
Q 1550 3584 1831 3584 
Q 2591 3584 2966 3190 
Q 3341 2797 3341 1997 
z
" transform="scale(0.015625)"/>
       <path id="DejaVuSans-74" d="M 1172 4494 
L 1172 3500 
L 2356 3500 
L 2356 3053 
L 1172 3053 
L 1172 1153 
Q 1172 725 1289 603 
Q 1406 481 1766 481 
L 2356 481 
L 2356 0 
L 1766 0 
Q 1100 0 847 248 
Q 594 497 594 1153 
L 594 3053 
L 172 3053 
L 172 3500 
L 594 3500 
L 594 4494 
L 1172 4494 
z
" transform="scale(0.015625)"/>
       <path id="DejaVuSans-75" d="M 544 1381 
L 544 3500 
L 1119 3500 
L 1119 1403 
Q 1119 906 1312 657 
Q 1506 409 1894 409 
Q 2359 409 2629 706 
Q 2900 1003 2900 1516 
L 2900 3500 
L 3475 3500 
L 3475 0 
L 2900 0 
L 2900 538 
Q 2691 219 2414 64 
Q 2138 -91 1772 -91 
Q 1169 -91 856 284 
Q 544 659 544 1381 
z
M 1991 3584 
L 1991 3584 
z
" transform="scale(0.015625)"/>
       <path id="DejaVuSans-20" transform="scale(0.015625)"/>
       <path id="DejaVuSans-28" d="M 1984 4856 
Q 1566 4138 1362 3434 
Q 1159 2731 1159 2009 
Q 1159 1288 1364 580 
Q 1569 -128 1984 -844 
L 1484 -844 
Q 1016 -109 783 600 
Q 550 1309 550 2009 
Q 550 2706 781 3412 
Q 1013 4119 1484 4856 
L 1984 4856 
z
" transform="scale(0.015625)"/>
       <path id="DejaVuSans-2218" d="M 2000 2619 
Q 1750 2619 1578 2445 
Q 1406 2272 1406 2022 
Q 1406 1775 1578 1605 
Q 1750 1435 2000 1435 
Q 2250 1435 2422 1605 
Q 2594 1775 2594 2022 
Q 2594 2269 2420 2444 
Q 2247 2619 2000 2619 
z
M 2000 3022 
Q 2200 3022 2384 2945 
Q 2569 2869 2703 2725 
Q 2847 2585 2919 2406 
Q 2991 2228 2991 2022 
Q 2991 1610 2702 1324 
Q 2413 1038 1994 1038 
Q 1572 1038 1290 1319 
Q 1009 1600 1009 2022 
Q 1009 2441 1296 2731 
Q 1584 3022 2000 3022 
z
" transform="scale(0.015625)"/>
       <path id="DejaVuSans-Oblique-43" d="M 4447 4306 
L 4319 3641 
Q 4019 3944 3683 4091 
Q 3347 4238 2956 4238 
Q 2422 4238 2017 3981 
Q 1613 3725 1319 3200 
Q 1131 2863 1032 2486 
Q 934 2109 934 1728 
Q 934 1091 1264 756 
Q 1594 422 2222 422 
Q 2656 422 3056 561 
Q 3456 700 3834 978 
L 3688 231 
Q 3316 72 2936 -9 
Q 2556 -91 2175 -91 
Q 1278 -91 773 396 
Q 269 884 269 1753 
Q 269 2309 461 2846 
Q 653 3384 1013 3828 
Q 1394 4300 1883 4525 
Q 2372 4750 3022 4750 
Q 3422 4750 3780 4639 
Q 4138 4528 4447 4306 
z
" transform="scale(0.015625)"/>
       <path id="DejaVuSans-29" d="M 513 4856 
L 1013 4856 
Q 1481 4119 1714 3412 
Q 1947 2706 1947 2009 
Q 1947 1309 1714 600 
Q 1481 -109 1013 -844 
L 513 -844 
Q 928 -128 1133 580 
Q 1338 1288 1338 2009 
Q 1338 2731 1133 3434 
Q 928 4138 513 4856 
z
" transform="scale(0.015625)"/>
      </defs>
      <use xlink:href="#DejaVuSans-54" transform="translate(0 0.125)"/>
      <use xlink:href="#DejaVuSans-65" transform="translate(61.083984 0.125)"/>
      <use xlink:href="#DejaVuSans-6d" transform="translate(122.607422 0.125)"/>
      <use xlink:href="#DejaVuSans-70" transform="translate(220.019531 0.125)"/>
      <use xlink:href="#DejaVuSans-65" transform="translate(283.496094 0.125)"/>
      <use xlink:href="#DejaVuSans-72" transform="translate(345.019531 0.125)"/>
      <use xlink:href="#DejaVuSans-61" transform="translate(386.132812 0.125)"/>
      <use xlink:href="#DejaVuSans-74" transform="translate(447.412109 0.125)"/>
      <use xlink:href="#DejaVuSans-75" transform="translate(486.621094 0.125)"/>
      <use xlink:href="#DejaVuSans-72" transform="translate(550 0.125)"/>
      <use xlink:href="#DejaVuSans-65" transform="translate(591.113281 0.125)"/>
      <use xlink:href="#DejaVuSans-20" transform="translate(652.636719 0.125)"/>
      <use xlink:href="#DejaVuSans-28" transform="translate(684.423828 0.125)"/>
      <use xlink:href="#DejaVuSans-2218" transform="translate(724.394531 38.40625) scale(0.7)"/>
      <use xlink:href="#DejaVuSans-Oblique-43" transform="translate(770.947266 0.125)"/>
      <use xlink:href="#DejaVuSans-29" transform="translate(840.771484 0.125)"/>
     </g>
    </g>
   </g>
   <g id="matplotlib.axis_2">
    <g id="ytick_1">
     <g id="line2d_10">
      <defs>
       <path id="m8309821d5f" d="M 0 0 
L -3.5 0 
" style="stroke: #000000; stroke-width: 0.8"/>
      </defs>
      <g>
       <use xlink:href="#m8309821d5f" x="57.6" y="295.488" style="stroke: #000000; stroke-width: 0.8"/>
      </g>
     </g>
     <g id="text_11">
      <!-- 0.0 -->
      <g transform="translate(34.696875 299.287219) scale(0.1 -0.1)">
       <defs>
        <path id="DejaVuSans-2e" d="M 684 794 
L 1344 794 
L 1344 0 
L 684 0 
L 684 794 
z
" transform="scale(0.015625)"/>
       </defs>
       <use xlink:href="#DejaVuSans-30"/>
       <use xlink:href="#DejaVuSans-2e" transform="translate(63.623047 0)"/>
       <use xlink:href="#DejaVuSans-30" transform="translate(95.410156 0)"/>
      </g>
     </g>
    </g>
    <g id="ytick_2">
     <g id="line2d_11">
      <g>
       <use xlink:href="#m8309821d5f" x="57.6" y="238.964636" style="stroke: #000000; stroke-width: 0.8"/>
      </g>
     </g>
     <g id="text_12">
      <!-- 0.5 -->
      <g transform="translate(34.696875 242.763854) scale(0.1 -0.1)">
       <use xlink:href="#DejaVuSans-30"/>
       <use xlink:href="#DejaVuSans-2e" transform="translate(63.623047 0)"/>
       <use xlink:href="#DejaVuSans-35" transform="translate(95.410156 0)"/>
      </g>
     </g>
    </g>
    <g id="ytick_3">
     <g id="line2d_12">
      <g>
       <use xlink:href="#m8309821d5f" x="57.6" y="182.441271" style="stroke: #000000; stroke-width: 0.8"/>
      </g>
     </g>
     <g id="text_13">
      <!-- 1.0 -->
      <g transform="translate(34.696875 186.24049) scale(0.1 -0.1)">
       <use xlink:href="#DejaVuSans-31"/>
       <use xlink:href="#DejaVuSans-2e" transform="translate(63.623047 0)"/>
       <use xlink:href="#DejaVuSans-30" transform="translate(95.410156 0)"/>
      </g>
     </g>
    </g>
    <g id="ytick_4">
     <g id="line2d_13">
      <g>
       <use xlink:href="#m8309821d5f" x="57.6" y="125.917907" style="stroke: #000000; stroke-width: 0.8"/>
      </g>
     </g>
     <g id="text_14">
      <!-- 1.5 -->
      <g transform="translate(34.696875 129.717125) scale(0.1 -0.1)">
       <use xlink:href="#DejaVuSans-31"/>
       <use xlink:href="#DejaVuSans-2e" transform="translate(63.623047 0)"/>
       <use xlink:href="#DejaVuSans-35" transform="translate(95.410156 0)"/>
      </g>
     </g>
    </g>
    <g id="ytick_5">
     <g id="line2d_14">
      <g>
       <use xlink:href="#m8309821d5f" x="57.6" y="69.394542" style="stroke: #000000; stroke-width: 0.8"/>
      </g>
     </g>
     <g id="text_15">
      <!-- 2.0 -->
      <g transform="translate(34.696875 73.193761) scale(0.1 -0.1)">
       <use xlink:href="#DejaVuSans-32"/>
       <use xlink:href="#DejaVuSans-2e" transform="translate(63.623047 0)"/>
       <use xlink:href="#DejaVuSans-30" transform="translate(95.410156 0)"/>
      </g>
     </g>
    </g>
    <g id="text_16">
     <!-- Intensity ($^{\circ}C^{-1}$) -->
     <g transform="translate(28.596875 213.328) rotate(-90) scale(0.1 -0.1)">
      <defs>
       <path id="DejaVuSans-49" d="M 628 4666 
L 1259 4666 
L 1259 0 
L 628 0 
L 628 4666 
z
" transform="scale(0.015625)"/>
       <path id="DejaVuSans-6e" d="M 3513 2113 
L 3513 0 
L 2938 0 
L 2938 2094 
Q 2938 2591 2744 2837 
Q 2550 3084 2163 3084 
Q 1697 3084 1428 2787 
Q 1159 2491 1159 1978 
L 1159 0 
L 581 0 
L 581 3500 
L 1159 3500 
L 1159 2956 
Q 1366 3272 1645 3428 
Q 1925 3584 2291 3584 
Q 2894 3584 3203 3211 
Q 3513 2838 3513 2113 
z
" transform="scale(0.015625)"/>
       <path id="DejaVuSans-73" d="M 2834 3397 
L 2834 2853 
Q 2591 2978 2328 3040 
Q 2066 3103 1784 3103 
Q 1356 3103 1142 2972 
Q 928 2841 928 2578 
Q 928 2378 1081 2264 
Q 1234 2150 1697 2047 
L 1894 2003 
Q 2506 1872 2764 1633 
Q 3022 1394 3022 966 
Q 3022 478 2636 193 
Q 2250 -91 1575 -91 
Q 1294 -91 989 -36 
Q 684 19 347 128 
L 347 722 
Q 666 556 975 473 
Q 1284 391 1588 391 
Q 1994 391 2212 530 
Q 2431 669 2431 922 
Q 2431 1156 2273 1281 
Q 2116 1406 1581 1522 
L 1381 1569 
Q 847 1681 609 1914 
Q 372 2147 372 2553 
Q 372 3047 722 3315 
Q 1072 3584 1716 3584 
Q 2034 3584 2315 3537 
Q 2597 3491 2834 3397 
z
" transform="scale(0.015625)"/>
       <path id="DejaVuSans-69" d="M 603 3500 
L 1178 3500 
L 1178 0 
L 603 0 
L 603 3500 
z
M 603 4863 
L 1178 4863 
L 1178 4134 
L 603 4134 
L 603 4863 
z
" transform="scale(0.015625)"/>
       <path id="DejaVuSans-79" d="M 2059 -325 
Q 1816 -950 1584 -1140 
Q 1353 -1331 966 -1331 
L 506 -1331 
L 506 -850 
L 844 -850 
Q 1081 -850 1212 -737 
Q 1344 -625 1503 -206 
L 1606 56 
L 191 3500 
L 800 3500 
L 1894 763 
L 2988 3500 
L 3597 3500 
L 2059 -325 
z
" transform="scale(0.015625)"/>
       <path id="DejaVuSans-2212" d="M 678 2272 
L 4684 2272 
L 4684 1741 
L 678 1741 
L 678 2272 
z
" transform="scale(0.015625)"/>
      </defs>
      <use xlink:href="#DejaVuSans-49" transform="translate(0 0.684375)"/>
      <use xlink:href="#DejaVuSans-6e" transform="translate(29.492188 0.684375)"/>
      <use xlink:href="#DejaVuSans-74" transform="translate(92.871094 0.684375)"/>
      <use xlink:href="#DejaVuSans-65" transform="translate(132.080078 0.684375)"/>
      <use xlink:href="#DejaVuSans-6e" transform="translate(193.603516 0.684375)"/>
      <use xlink:href="#DejaVuSans-73" transform="translate(256.982422 0.684375)"/>
      <use xlink:href="#DejaVuSans-69" transform="translate(309.082031 0.684375)"/>
      <use xlink:href="#DejaVuSans-74" transform="translate(336.865234 0.684375)"/>
      <use xlink:href="#DejaVuSans-79" transform="translate(376.074219 0.684375)"/>
      <use xlink:href="#DejaVuSans-20" transform="translate(435.253906 0.684375)"/>
      <use xlink:href="#DejaVuSans-28" transform="translate(467.041016 0.684375)"/>
      <use xlink:href="#DejaVuSans-2218" transform="translate(507.011719 38.965625) scale(0.7)"/>
      <use xlink:href="#DejaVuSans-Oblique-43" transform="translate(553.564453 0.684375)"/>
      <use xlink:href="#DejaVuSans-2212" transform="translate(630.589193 38.965625) scale(0.7)"/>
      <use xlink:href="#DejaVuSans-31" transform="translate(689.241536 38.965625) scale(0.7)"/>
      <use xlink:href="#DejaVuSans-29" transform="translate(736.512044 0.684375)"/>
     </g>
    </g>
   </g>
   <g id="line2d_15">
    <path d="M 73.832727 295.488 
L 86.818909 295.488 
L 87.684655 293.227065 
L 91.580509 293.227065 
L 92.013382 292.096598 
L 93.744873 292.096598 
L 94.177745 290.966131 
L 94.610618 288.705196 
L 95.043491 288.705196 
L 95.909236 286.444262 
L 96.774982 286.444262 
L 97.207855 285.313794 
L 97.640727 285.313794 
L 98.0736 284.183327 
L 98.506473 284.183327 
L 98.939345 280.791925 
L 99.372218 279.661458 
L 99.805091 279.661458 
L 100.237964 276.270056 
L 101.103709 271.748187 
L 101.536582 270.61772 
L 101.969455 267.226318 
L 102.402327 267.226318 
L 102.8352 263.834916 
L 103.268073 262.704449 
L 103.700945 260.443514 
L 104.566691 260.443514 
L 104.999564 259.313047 
L 105.432436 255.921645 
L 105.865309 254.791178 
L 106.298182 252.530243 
L 106.731055 251.399776 
L 107.163927 251.399776 
L 107.5968 249.138841 
L 108.029673 248.008374 
L 108.462545 245.747439 
L 109.761164 242.356037 
L 110.194036 240.095103 
L 110.626909 235.573234 
L 111.059782 233.312299 
L 111.492655 232.181832 
L 111.925527 227.659963 
L 112.791273 223.138093 
L 113.657018 216.35529 
L 114.089891 214.094355 
L 114.522764 209.572486 
L 114.955636 208.442019 
L 115.388509 200.528748 
L 115.821382 199.39828 
L 116.254255 196.006879 
L 116.687127 194.876411 
L 117.12 191.485009 
L 117.552873 190.354542 
L 117.985745 186.96314 
L 118.851491 176.788935 
L 119.284364 175.658467 
L 119.717236 173.397533 
L 120.150109 173.397533 
L 120.582982 167.745196 
L 121.448727 160.962393 
L 121.8816 160.962393 
L 122.314473 157.570991 
L 123.180218 157.570991 
L 123.613091 149.65772 
L 124.045964 147.396785 
L 124.478836 149.65772 
L 124.911709 148.527252 
L 125.777455 144.005383 
L 126.210327 134.961645 
L 126.6432 131.570243 
L 127.076073 125.917907 
L 127.508945 123.656972 
L 127.941818 124.787439 
L 128.374691 123.656972 
L 128.807564 120.26557 
L 129.240436 114.613234 
L 129.673309 113.482766 
L 130.106182 111.221832 
L 130.971927 103.308561 
L 131.837673 96.525757 
L 132.270545 95.39529 
L 132.703418 93.134355 
L 133.136291 87.482019 
L 133.569164 90.873421 
L 134.434909 88.612486 
L 134.867782 90.873421 
L 135.733527 84.090617 
L 136.1664 85.221084 
L 136.599273 81.829682 
L 137.032145 85.221084 
L 137.465018 82.96015 
L 137.897891 77.307813 
L 138.330764 77.307813 
L 138.763636 75.046879 
L 139.196509 70.525009 
L 139.629382 69.394542 
L 140.062255 71.655477 
L 140.495127 75.046879 
L 140.928 75.046879 
L 141.360873 73.916411 
L 141.793745 70.525009 
L 142.226618 69.394542 
L 142.659491 67.133607 
L 143.092364 66.00314 
L 143.525236 67.133607 
L 143.958109 72.785944 
L 144.823855 66.00314 
L 145.256727 71.655477 
L 145.6896 63.742206 
L 146.122473 61.481271 
L 146.555345 54.698467 
L 146.988218 54.698467 
L 147.421091 53.568 
L 147.853964 56.959402 
L 148.286836 54.698467 
L 148.719709 63.742206 
L 149.152582 64.872673 
L 149.585455 61.481271 
L 150.018327 56.959402 
L 150.4512 55.828935 
L 150.884073 61.481271 
L 151.316945 59.220336 
L 151.749818 60.350804 
L 152.182691 62.611738 
L 152.615564 66.00314 
L 153.048436 68.264075 
L 153.481309 69.394542 
L 154.779927 76.177346 
L 155.2128 72.785944 
L 156.078545 75.046879 
L 156.511418 69.394542 
L 156.944291 73.916411 
L 157.377164 75.046879 
L 158.675782 81.829682 
L 159.108655 81.829682 
L 159.541527 88.612486 
L 159.9744 88.612486 
L 160.407273 92.003888 
L 160.840145 96.525757 
L 161.273018 98.786692 
L 161.705891 96.525757 
L 162.138764 97.656224 
L 163.004509 85.221084 
L 163.437382 84.090617 
L 163.870255 93.134355 
L 164.303127 92.003888 
L 164.736 93.134355 
L 165.601745 81.829682 
L 166.034618 85.221084 
L 166.467491 86.351551 
L 166.900364 85.221084 
L 167.333236 94.264822 
L 167.766109 88.612486 
L 168.198982 96.525757 
L 168.631855 97.656224 
L 169.064727 97.656224 
L 169.4976 99.917159 
L 169.930473 103.308561 
L 170.363345 99.917159 
L 170.796218 98.786692 
L 171.229091 102.178093 
L 171.661964 108.960897 
L 172.094836 110.091364 
L 172.527709 103.308561 
L 172.960582 102.178093 
L 173.393455 102.178093 
L 173.826327 104.439028 
L 174.2592 103.308561 
L 174.692073 105.569495 
L 175.124945 108.960897 
L 175.557818 110.091364 
L 176.423564 107.83043 
L 177.289309 112.352299 
L 178.155055 114.613234 
L 178.587927 113.482766 
L 179.0208 115.743701 
L 179.453673 114.613234 
L 179.886545 115.743701 
L 180.319418 114.613234 
L 180.752291 118.004636 
L 181.185164 120.26557 
L 181.618036 121.396037 
L 182.050909 120.26557 
L 182.483782 122.526505 
L 182.916655 123.656972 
L 183.349527 129.309308 
L 183.7824 125.917907 
L 184.648145 139.483514 
L 185.081018 136.092112 
L 185.513891 134.961645 
L 185.946764 140.613981 
L 186.379636 141.744449 
L 186.812509 148.527252 
L 187.245382 153.049121 
L 187.678255 154.179589 
L 188.111127 153.049121 
L 188.544 158.701458 
L 188.976873 159.831925 
L 189.409745 166.614729 
L 189.842618 165.484262 
L 190.275491 167.745196 
L 190.708364 171.136598 
L 191.574109 175.658467 
L 192.006982 179.049869 
L 192.439855 177.919402 
L 192.872727 175.658467 
L 193.3056 174.528 
L 193.738473 175.658467 
L 194.604218 186.96314 
L 195.037091 189.224075 
L 195.469964 189.224075 
L 195.902836 190.354542 
L 196.335709 189.224075 
L 196.768582 189.224075 
L 197.201455 191.485009 
L 197.634327 194.876411 
L 198.0672 199.39828 
L 198.500073 201.659215 
L 198.932945 201.659215 
L 199.365818 200.528748 
L 199.798691 206.181084 
L 200.231564 208.442019 
L 200.664436 207.311551 
L 201.097309 208.442019 
L 201.530182 208.442019 
L 201.963055 211.833421 
L 202.395927 210.702953 
L 202.8288 212.963888 
L 203.261673 211.833421 
L 203.694545 216.35529 
L 204.127418 214.094355 
L 204.560291 214.094355 
L 204.993164 212.963888 
L 205.426036 216.35529 
L 205.858909 215.224822 
L 206.291782 218.616224 
L 206.724655 224.268561 
L 207.157527 225.399028 
L 207.5904 225.399028 
L 208.023273 226.529495 
L 208.456145 224.268561 
L 208.889018 224.268561 
L 209.321891 225.399028 
L 209.754764 227.659963 
L 210.187636 227.659963 
L 210.620509 226.529495 
L 211.053382 228.79043 
L 211.486255 229.920897 
L 211.919127 229.920897 
L 212.352 228.79043 
L 212.784873 229.920897 
L 213.217745 229.920897 
L 213.650618 228.79043 
L 214.516364 236.703701 
L 214.949236 235.573234 
L 215.814982 237.834168 
L 216.247855 236.703701 
L 216.680727 236.703701 
L 217.1136 235.573234 
L 217.546473 237.834168 
L 217.979345 238.964636 
L 220.576582 238.964636 
L 221.009455 240.095103 
L 221.442327 237.834168 
L 221.8752 237.834168 
L 222.308073 241.22557 
L 222.740945 242.356037 
L 223.173818 241.22557 
L 223.606691 241.22557 
L 224.039564 243.486505 
L 225.338182 240.095103 
L 225.771055 242.356037 
L 226.203927 242.356037 
L 227.069673 244.616972 
L 227.502545 246.877907 
L 229.234036 246.877907 
L 229.666909 248.008374 
L 230.099782 251.399776 
L 230.965527 251.399776 
L 232.264145 254.791178 
L 232.697018 252.530243 
L 233.995636 255.921645 
L 234.428509 255.921645 
L 234.861382 257.052112 
L 235.727127 257.052112 
L 236.16 255.921645 
L 236.592873 258.182579 
L 237.025745 259.313047 
L 237.458618 261.573981 
L 237.891491 261.573981 
L 238.324364 262.704449 
L 238.757236 266.09585 
L 242.220218 266.09585 
L 243.085964 268.356785 
L 243.518836 270.61772 
L 244.384582 270.61772 
L 244.817455 272.878654 
L 245.6832 272.878654 
L 246.116073 274.009121 
L 246.548945 276.270056 
L 246.981818 276.270056 
L 247.414691 275.139589 
L 247.847564 276.270056 
L 248.280436 276.270056 
L 249.579055 272.878654 
L 250.877673 276.270056 
L 251.310545 276.270056 
L 251.743418 275.139589 
L 252.176291 276.270056 
L 253.042036 276.270056 
L 253.474909 275.139589 
L 253.907782 275.139589 
L 254.340655 277.400523 
L 256.505018 277.400523 
L 256.937891 278.530991 
L 257.370764 276.270056 
L 257.803636 277.400523 
L 259.102255 277.400523 
L 259.535127 278.530991 
L 259.968 278.530991 
L 260.400873 277.400523 
L 261.266618 277.400523 
L 261.699491 278.530991 
L 262.565236 278.530991 
L 262.998109 279.661458 
L 263.430982 278.530991 
L 264.296727 278.530991 
L 264.7296 279.661458 
L 265.595345 279.661458 
L 267.759709 274.009121 
L 268.192582 274.009121 
L 268.625455 275.139589 
L 269.924073 275.139589 
L 271.655564 279.661458 
L 272.088436 278.530991 
L 272.521309 279.661458 
L 272.954182 279.661458 
L 273.387055 280.791925 
L 273.819927 280.791925 
L 274.2528 279.661458 
L 275.118545 281.922393 
L 275.551418 281.922393 
L 275.984291 280.791925 
L 276.850036 280.791925 
L 277.282909 279.661458 
L 278.581527 279.661458 
L 279.0144 281.922393 
L 281.611636 281.922393 
L 282.044509 283.05286 
L 284.641745 283.05286 
L 285.074618 284.183327 
L 285.940364 284.183327 
L 286.373236 283.05286 
L 287.238982 283.05286 
L 288.5376 286.444262 
L 288.970473 286.444262 
L 289.403345 287.574729 
L 290.269091 287.574729 
L 290.701964 288.705196 
L 293.2992 288.705196 
L 293.732073 289.835664 
L 295.463564 289.835664 
L 295.896436 290.966131 
L 297.195055 290.966131 
L 297.627927 292.096598 
L 307.584 292.096598 
L 308.016873 293.227065 
L 310.181236 293.227065 
L 310.614109 294.357533 
L 311.046982 294.357533 
L 311.479855 293.227065 
L 317.972945 293.227065 
L 318.405818 292.096598 
L 319.271564 292.096598 
L 319.704436 290.966131 
L 321.435927 290.966131 
L 321.8688 289.835664 
L 332.690618 289.835664 
L 333.123491 290.966131 
L 338.317964 290.966131 
L 338.750836 289.835664 
L 339.616582 289.835664 
L 340.049455 290.966131 
L 340.9152 290.966131 
L 341.348073 292.096598 
L 341.780945 292.096598 
L 342.213818 293.227065 
L 343.079564 293.227065 
L 343.512436 294.357533 
L 343.945309 294.357533 
L 344.378182 293.227065 
L 359.9616 293.227065 
L 360.394473 294.357533 
L 365.588945 294.357533 
L 366.021818 295.488 
L 398.487273 295.488 
L 398.487273 295.488 
" clip-path="url(#paba5eeae5a)" style="fill: none; stroke-dasharray: 1.85,0.8; stroke-dashoffset: 0; stroke: #8000ff; stroke-width: 0.5"/>
   </g>
   <g id="line2d_16">
    <path d="M 73.832727 295.488 
L 106.731055 295.488 
L 107.163927 294.357533 
L 109.761164 294.357533 
L 110.626909 292.096598 
L 111.492655 292.096598 
L 111.925527 290.966131 
L 112.791273 290.966131 
L 113.224145 289.835664 
L 113.657018 289.835664 
L 114.089891 287.574729 
L 114.522764 287.574729 
L 114.955636 284.183327 
L 115.388509 284.183327 
L 115.821382 281.922393 
L 117.12 281.922393 
L 117.985745 279.661458 
L 118.851491 279.661458 
L 119.284364 278.530991 
L 120.150109 278.530991 
L 120.582982 277.400523 
L 121.015855 274.009121 
L 122.314473 274.009121 
L 122.747345 272.878654 
L 123.180218 272.878654 
L 123.613091 266.09585 
L 124.045964 264.965383 
L 124.478836 264.965383 
L 124.911709 262.704449 
L 125.344582 261.573981 
L 125.777455 257.052112 
L 126.210327 257.052112 
L 127.076073 250.269308 
L 127.941818 250.269308 
L 128.374691 249.138841 
L 128.807564 250.269308 
L 129.673309 243.486505 
L 130.106182 242.356037 
L 130.539055 242.356037 
L 130.971927 240.095103 
L 131.4048 236.703701 
L 131.837673 234.442766 
L 132.270545 234.442766 
L 132.703418 229.920897 
L 133.136291 227.659963 
L 133.569164 227.659963 
L 134.002036 224.268561 
L 134.434909 222.007626 
L 134.867782 223.138093 
L 135.300655 207.311551 
L 135.733527 209.572486 
L 136.1664 209.572486 
L 136.599273 211.833421 
L 137.032145 209.572486 
L 137.897891 209.572486 
L 138.330764 203.92015 
L 138.763636 203.92015 
L 139.629382 206.181084 
L 140.062255 203.92015 
L 140.495127 197.137346 
L 140.928 198.267813 
L 141.793745 191.485009 
L 142.226618 192.615477 
L 143.525236 179.049869 
L 143.958109 172.267065 
L 144.390982 170.006131 
L 144.823855 168.875664 
L 145.256727 174.528 
L 145.6896 175.658467 
L 146.122473 173.397533 
L 146.555345 175.658467 
L 146.988218 170.006131 
L 147.421091 174.528 
L 147.853964 172.267065 
L 148.286836 175.658467 
L 149.152582 164.353794 
L 149.585455 164.353794 
L 150.018327 155.310056 
L 150.884073 148.527252 
L 151.316945 142.874916 
L 151.749818 141.744449 
L 152.182691 136.092112 
L 152.615564 127.048374 
L 153.048436 125.917907 
L 153.481309 125.917907 
L 153.914182 115.743701 
L 154.347055 113.482766 
L 154.779927 115.743701 
L 155.2128 108.960897 
L 156.078545 111.221832 
L 156.511418 108.960897 
L 156.944291 119.135103 
L 157.377164 115.743701 
L 157.810036 111.221832 
L 158.242909 110.091364 
L 158.675782 106.699963 
L 159.541527 106.699963 
L 159.9744 112.352299 
L 160.407273 111.221832 
L 160.840145 111.221832 
L 161.705891 108.960897 
L 162.138764 114.613234 
L 162.571636 113.482766 
L 163.004509 105.569495 
L 163.437382 104.439028 
L 163.870255 102.178093 
L 164.303127 103.308561 
L 164.736 103.308561 
L 165.168873 99.917159 
L 165.601745 98.786692 
L 166.034618 98.786692 
L 166.467491 99.917159 
L 166.900364 94.264822 
L 167.766109 87.482019 
L 168.198982 80.699215 
L 168.631855 81.829682 
L 169.064727 81.829682 
L 169.4976 80.699215 
L 169.930473 76.177346 
L 170.363345 84.090617 
L 170.796218 82.96015 
L 171.229091 82.96015 
L 171.661964 89.742953 
L 172.094836 77.307813 
L 172.527709 82.96015 
L 172.960582 90.873421 
L 173.393455 84.090617 
L 173.826327 82.96015 
L 174.2592 89.742953 
L 174.692073 90.873421 
L 175.124945 94.264822 
L 175.557818 99.917159 
L 175.990691 102.178093 
L 176.423564 98.786692 
L 176.856436 106.699963 
L 177.289309 105.569495 
L 177.722182 106.699963 
L 178.155055 98.786692 
L 178.587927 96.525757 
L 179.0208 99.917159 
L 179.453673 101.047626 
L 179.886545 98.786692 
L 180.319418 104.439028 
L 180.752291 102.178093 
L 181.185164 97.656224 
L 181.618036 97.656224 
L 182.483782 95.39529 
L 182.916655 96.525757 
L 183.349527 99.917159 
L 183.7824 90.873421 
L 184.215273 89.742953 
L 184.648145 99.917159 
L 185.081018 92.003888 
L 185.513891 89.742953 
L 185.946764 96.525757 
L 186.379636 93.134355 
L 187.245382 104.439028 
L 187.678255 105.569495 
L 188.111127 104.439028 
L 188.544 110.091364 
L 188.976873 112.352299 
L 189.409745 113.482766 
L 189.842618 111.221832 
L 190.275491 111.221832 
L 190.708364 110.091364 
L 191.141236 103.308561 
L 191.574109 107.83043 
L 192.006982 105.569495 
L 192.439855 112.352299 
L 192.872727 112.352299 
L 193.3056 114.613234 
L 193.738473 130.439776 
L 194.171345 131.570243 
L 194.604218 130.439776 
L 195.469964 146.266318 
L 195.902836 144.005383 
L 196.335709 146.266318 
L 196.768582 142.874916 
L 197.634327 150.788187 
L 198.0672 154.179589 
L 198.500073 150.788187 
L 198.932945 153.049121 
L 199.365818 153.049121 
L 199.798691 158.701458 
L 200.231564 166.614729 
L 200.664436 165.484262 
L 201.097309 165.484262 
L 201.530182 167.745196 
L 201.963055 166.614729 
L 202.395927 170.006131 
L 202.8288 171.136598 
L 203.261673 168.875664 
L 203.694545 170.006131 
L 204.560291 170.006131 
L 204.993164 168.875664 
L 205.426036 176.788935 
L 205.858909 177.919402 
L 206.291782 172.267065 
L 206.724655 177.919402 
L 207.157527 181.310804 
L 207.5904 177.919402 
L 208.023273 182.441271 
L 208.889018 180.180336 
L 210.187636 183.571738 
L 210.620509 177.919402 
L 211.053382 177.919402 
L 211.919127 189.224075 
L 212.352 190.354542 
L 212.784873 200.528748 
L 213.217745 200.528748 
L 213.650618 199.39828 
L 214.083491 197.137346 
L 214.516364 197.137346 
L 214.949236 191.485009 
L 215.382109 191.485009 
L 215.814982 186.96314 
L 216.247855 189.224075 
L 217.1136 184.702206 
L 217.546473 186.96314 
L 217.979345 188.093607 
L 218.412218 190.354542 
L 218.845091 185.832673 
L 219.710836 181.310804 
L 220.143709 184.702206 
L 220.576582 183.571738 
L 221.009455 183.571738 
L 221.442327 188.093607 
L 221.8752 186.96314 
L 222.308073 184.702206 
L 222.740945 185.832673 
L 223.173818 188.093607 
L 223.606691 188.093607 
L 224.039564 186.96314 
L 224.472436 190.354542 
L 224.905309 192.615477 
L 225.338182 191.485009 
L 225.771055 189.224075 
L 226.203927 189.224075 
L 226.6368 185.832673 
L 227.069673 185.832673 
L 227.502545 186.96314 
L 227.935418 193.745944 
L 228.368291 197.137346 
L 229.234036 199.39828 
L 230.099782 203.92015 
L 230.532655 207.311551 
L 230.965527 205.050617 
L 231.3984 200.528748 
L 231.831273 200.528748 
L 232.264145 207.311551 
L 232.697018 210.702953 
L 233.129891 209.572486 
L 233.562764 207.311551 
L 234.861382 207.311551 
L 235.294255 211.833421 
L 235.727127 214.094355 
L 236.16 210.702953 
L 236.592873 216.35529 
L 237.025745 214.094355 
L 237.458618 218.616224 
L 237.891491 218.616224 
L 238.324364 219.746692 
L 238.757236 219.746692 
L 239.190109 224.268561 
L 239.622982 224.268561 
L 240.055855 225.399028 
L 240.488727 231.051364 
L 240.9216 234.442766 
L 241.787345 234.442766 
L 242.220218 235.573234 
L 243.085964 235.573234 
L 243.518836 231.051364 
L 243.951709 233.312299 
L 244.384582 234.442766 
L 244.817455 234.442766 
L 245.6832 236.703701 
L 246.116073 235.573234 
L 246.548945 235.573234 
L 247.414691 240.095103 
L 247.847564 240.095103 
L 248.280436 243.486505 
L 248.713309 245.747439 
L 249.146182 244.616972 
L 249.579055 244.616972 
L 250.011927 246.877907 
L 250.4448 245.747439 
L 250.877673 246.877907 
L 251.310545 243.486505 
L 251.743418 244.616972 
L 252.176291 241.22557 
L 252.609164 244.616972 
L 253.042036 249.138841 
L 253.474909 249.138841 
L 253.907782 248.008374 
L 254.340655 249.138841 
L 254.773527 253.66071 
L 255.2064 253.66071 
L 255.639273 250.269308 
L 257.370764 250.269308 
L 257.803636 249.138841 
L 258.236509 245.747439 
L 258.669382 246.877907 
L 259.102255 246.877907 
L 259.535127 245.747439 
L 260.400873 248.008374 
L 260.833745 245.747439 
L 261.266618 242.356037 
L 261.699491 241.22557 
L 262.132364 238.964636 
L 262.565236 238.964636 
L 262.998109 240.095103 
L 263.430982 237.834168 
L 263.863855 238.964636 
L 264.296727 237.834168 
L 264.7296 237.834168 
L 265.162473 241.22557 
L 265.595345 242.356037 
L 268.192582 242.356037 
L 268.625455 241.22557 
L 269.058327 242.356037 
L 269.4912 242.356037 
L 269.924073 243.486505 
L 270.356945 242.356037 
L 270.789818 243.486505 
L 271.222691 243.486505 
L 272.088436 245.747439 
L 272.521309 245.747439 
L 272.954182 248.008374 
L 273.387055 246.877907 
L 273.819927 248.008374 
L 274.2528 248.008374 
L 274.685673 246.877907 
L 275.118545 246.877907 
L 275.551418 248.008374 
L 275.984291 246.877907 
L 276.417164 246.877907 
L 276.850036 248.008374 
L 277.282909 250.269308 
L 278.148655 250.269308 
L 278.581527 249.138841 
L 279.0144 249.138841 
L 279.880145 258.182579 
L 280.313018 259.313047 
L 280.745891 259.313047 
L 281.178764 260.443514 
L 281.611636 260.443514 
L 282.044509 261.573981 
L 282.477382 263.834916 
L 282.910255 267.226318 
L 283.343127 268.356785 
L 283.776 270.61772 
L 284.641745 270.61772 
L 285.074618 272.878654 
L 285.507491 271.748187 
L 285.940364 272.878654 
L 286.806109 272.878654 
L 287.238982 271.748187 
L 287.671855 272.878654 
L 288.104727 271.748187 
L 288.5376 271.748187 
L 288.970473 272.878654 
L 289.403345 271.748187 
L 289.836218 271.748187 
L 290.269091 272.878654 
L 290.701964 272.878654 
L 291.134836 269.487252 
L 291.567709 269.487252 
L 292.000582 270.61772 
L 292.433455 270.61772 
L 292.866327 269.487252 
L 294.164945 269.487252 
L 294.597818 271.748187 
L 295.030691 272.878654 
L 295.463564 275.139589 
L 295.896436 274.009121 
L 296.329309 275.139589 
L 297.195055 275.139589 
L 297.627927 276.270056 
L 298.0608 276.270056 
L 298.926545 278.530991 
L 300.225164 278.530991 
L 301.523782 275.139589 
L 304.121018 275.139589 
L 304.553891 270.61772 
L 305.852509 270.61772 
L 306.285382 271.748187 
L 306.718255 271.748187 
L 307.151127 272.878654 
L 308.016873 272.878654 
L 308.449745 275.139589 
L 308.882618 276.270056 
L 309.315491 276.270056 
L 309.748364 277.400523 
L 310.614109 277.400523 
L 311.046982 279.661458 
L 311.479855 279.661458 
L 311.912727 278.530991 
L 312.3456 278.530991 
L 312.778473 281.922393 
L 314.077091 281.922393 
L 314.509964 283.05286 
L 315.375709 283.05286 
L 315.808582 284.183327 
L 317.1072 284.183327 
L 317.540073 285.313794 
L 319.271564 285.313794 
L 320.137309 283.05286 
L 321.003055 283.05286 
L 321.435927 281.922393 
L 322.734545 285.313794 
L 323.167418 284.183327 
L 325.764655 284.183327 
L 326.197527 288.705196 
L 327.496145 288.705196 
L 327.929018 287.574729 
L 333.123491 287.574729 
L 333.556364 288.705196 
L 334.422109 288.705196 
L 334.854982 287.574729 
L 336.1536 287.574729 
L 336.586473 286.444262 
L 340.9152 286.444262 
L 341.348073 287.574729 
L 342.646691 287.574729 
L 343.079564 288.705196 
L 344.378182 288.705196 
L 344.811055 289.835664 
L 348.274036 289.835664 
L 348.706909 288.705196 
L 349.139782 288.705196 
L 349.572655 289.835664 
L 350.005527 289.835664 
L 350.4384 287.574729 
L 350.871273 286.444262 
L 354.767127 286.444262 
L 355.2 285.313794 
L 356.065745 285.313794 
L 356.498618 286.444262 
L 357.797236 286.444262 
L 358.230109 287.574729 
L 360.394473 287.574729 
L 360.827345 286.444262 
L 361.260218 286.444262 
L 362.125964 284.183327 
L 362.991709 284.183327 
L 363.424582 285.313794 
L 368.619055 285.313794 
L 369.051927 284.183327 
L 369.917673 284.183327 
L 370.350545 285.313794 
L 371.649164 285.313794 
L 372.082036 287.574729 
L 372.514909 286.444262 
L 376.410764 286.444262 
L 376.843636 287.574729 
L 379.440873 287.574729 
L 379.873745 286.444262 
L 380.739491 286.444262 
L 381.172364 285.313794 
L 382.038109 285.313794 
L 382.470982 286.444262 
L 382.903855 286.444262 
L 383.7696 288.705196 
L 386.799709 288.705196 
L 387.232582 287.574729 
L 387.665455 287.574729 
L 388.098327 288.705196 
L 390.262691 288.705196 
L 390.695564 289.835664 
L 391.128436 288.705196 
L 393.725673 288.705196 
L 394.158545 290.966131 
L 398.487273 290.966131 
L 398.487273 290.966131 
" clip-path="url(#paba5eeae5a)" style="fill: none; stroke-dasharray: 1.85,0.8; stroke-dashoffset: 0; stroke: #00b5eb; stroke-width: 0.5"/>
   </g>
   <g id="line2d_17">
    <path d="M 73.832727 295.488 
L 114.522764 295.488 
L 114.955636 294.357533 
L 118.851491 294.357533 
L 119.284364 293.227065 
L 121.015855 293.227065 
L 121.448727 292.096598 
L 125.344582 292.096598 
L 125.777455 290.966131 
L 127.508945 290.966131 
L 127.941818 285.313794 
L 129.673309 285.313794 
L 130.106182 281.922393 
L 131.837673 281.922393 
L 132.270545 279.661458 
L 134.002036 279.661458 
L 134.434909 270.61772 
L 136.1664 270.61772 
L 136.599273 267.226318 
L 138.330764 267.226318 
L 138.763636 264.965383 
L 140.495127 264.965383 
L 140.928 250.269308 
L 142.659491 250.269308 
L 143.092364 236.703701 
L 144.823855 236.703701 
L 145.256727 231.051364 
L 146.988218 231.051364 
L 147.421091 229.920897 
L 149.152582 229.920897 
L 149.585455 202.789682 
L 151.316945 202.789682 
L 151.749818 197.137346 
L 153.481309 197.137346 
L 153.914182 191.485009 
L 155.645673 191.485009 
L 156.078545 173.397533 
L 157.810036 173.397533 
L 158.242909 171.136598 
L 159.9744 171.136598 
L 160.407273 170.006131 
L 162.138764 170.006131 
L 162.571636 163.223327 
L 164.303127 163.223327 
L 164.736 168.875664 
L 166.467491 168.875664 
L 166.900364 155.310056 
L 168.631855 155.310056 
L 169.064727 147.396785 
L 170.796218 147.396785 
L 171.229091 176.788935 
L 172.960582 176.788935 
L 173.393455 163.223327 
L 177.289309 163.223327 
L 177.722182 171.136598 
L 179.453673 171.136598 
L 179.886545 164.353794 
L 181.618036 164.353794 
L 182.050909 154.179589 
L 183.7824 154.179589 
L 184.215273 166.614729 
L 184.648145 166.614729 
L 185.081018 155.310056 
L 185.946764 155.310056 
L 186.379636 145.13585 
L 186.812509 145.13585 
L 187.245382 144.005383 
L 188.111127 144.005383 
L 188.544 163.223327 
L 188.976873 163.223327 
L 189.409745 160.962393 
L 190.275491 160.962393 
L 190.708364 167.745196 
L 191.141236 167.745196 
L 191.574109 154.179589 
L 192.439855 154.179589 
L 192.872727 146.266318 
L 193.3056 146.266318 
L 193.738473 139.483514 
L 194.604218 139.483514 
L 195.037091 145.13585 
L 195.469964 145.13585 
L 195.902836 129.309308 
L 196.768582 129.309308 
L 197.201455 118.004636 
L 198.932945 118.004636 
L 199.365818 124.787439 
L 201.097309 124.787439 
L 201.530182 114.613234 
L 203.261673 114.613234 
L 203.694545 120.26557 
L 205.426036 120.26557 
L 205.858909 118.004636 
L 206.291782 118.004636 
L 206.724655 129.309308 
L 207.5904 129.309308 
L 208.023273 134.961645 
L 208.456145 134.961645 
L 208.889018 136.092112 
L 209.754764 136.092112 
L 210.187636 128.178841 
L 210.620509 128.178841 
L 211.053382 130.439776 
L 211.919127 130.439776 
L 212.352 124.787439 
L 212.784873 124.787439 
L 213.217745 138.353047 
L 214.083491 138.353047 
L 214.516364 125.917907 
L 214.949236 125.917907 
L 215.382109 132.70071 
L 216.247855 132.70071 
L 216.680727 139.483514 
L 217.1136 139.483514 
L 217.546473 155.310056 
L 218.412218 155.310056 
L 218.845091 168.875664 
L 220.576582 168.875664 
L 221.009455 154.179589 
L 222.740945 154.179589 
L 223.173818 156.440523 
L 224.905309 156.440523 
L 225.338182 164.353794 
L 227.069673 164.353794 
L 227.502545 162.09286 
L 229.234036 162.09286 
L 229.666909 172.267065 
L 231.3984 172.267065 
L 231.831273 177.919402 
L 233.562764 177.919402 
L 233.995636 182.441271 
L 237.891491 182.441271 
L 238.324364 171.136598 
L 240.055855 171.136598 
L 240.488727 164.353794 
L 242.220218 164.353794 
L 242.653091 191.485009 
L 244.384582 191.485009 
L 244.817455 212.963888 
L 246.548945 212.963888 
L 246.981818 203.92015 
L 248.713309 203.92015 
L 249.146182 218.616224 
L 250.877673 218.616224 
L 251.310545 222.007626 
L 253.042036 222.007626 
L 253.474909 207.311551 
L 255.2064 207.311551 
L 255.639273 210.702953 
L 257.370764 210.702953 
L 257.803636 220.877159 
L 259.535127 220.877159 
L 259.968 238.964636 
L 261.699491 238.964636 
L 262.132364 246.877907 
L 263.863855 246.877907 
L 264.296727 242.356037 
L 266.028218 242.356037 
L 266.461091 240.095103 
L 268.192582 240.095103 
L 268.625455 249.138841 
L 270.356945 249.138841 
L 270.789818 242.356037 
L 274.685673 242.356037 
L 275.118545 258.182579 
L 276.850036 258.182579 
L 277.282909 240.095103 
L 279.0144 240.095103 
L 279.447273 246.877907 
L 281.178764 246.877907 
L 281.611636 237.834168 
L 283.343127 237.834168 
L 283.776 241.22557 
L 285.507491 241.22557 
L 285.940364 238.964636 
L 292.000582 238.964636 
L 292.433455 243.486505 
L 294.164945 243.486505 
L 294.597818 242.356037 
L 298.493673 242.356037 
L 298.926545 261.573981 
L 300.658036 261.573981 
L 301.090909 264.965383 
L 302.8224 264.965383 
L 303.255273 274.009121 
L 304.986764 274.009121 
L 305.419636 275.139589 
L 307.151127 275.139589 
L 307.584 274.009121 
L 311.479855 274.009121 
L 311.912727 272.878654 
L 313.644218 272.878654 
L 314.077091 270.61772 
L 315.808582 270.61772 
L 316.241455 269.487252 
L 317.972945 269.487252 
L 318.405818 270.61772 
L 320.137309 270.61772 
L 320.570182 267.226318 
L 324.466036 267.226318 
L 324.898909 269.487252 
L 326.6304 269.487252 
L 327.063273 266.09585 
L 328.794764 266.09585 
L 329.227636 271.748187 
L 333.123491 271.748187 
L 333.556364 267.226318 
L 335.287855 267.226318 
L 335.720727 269.487252 
L 337.452218 269.487252 
L 337.885091 270.61772 
L 339.616582 270.61772 
L 340.049455 268.356785 
L 341.780945 268.356785 
L 342.213818 271.748187 
L 343.945309 271.748187 
L 344.378182 275.139589 
L 346.109673 275.139589 
L 346.542545 274.009121 
L 348.274036 274.009121 
L 348.706909 275.139589 
L 350.4384 275.139589 
L 350.871273 277.400523 
L 352.602764 277.400523 
L 353.035636 276.270056 
L 354.767127 276.270056 
L 355.2 277.400523 
L 359.095855 277.400523 
L 359.528727 278.530991 
L 361.260218 278.530991 
L 361.693091 280.791925 
L 365.588945 280.791925 
L 366.021818 279.661458 
L 367.753309 279.661458 
L 368.186182 281.922393 
L 374.2464 281.922393 
L 374.679273 284.183327 
L 376.410764 284.183327 
L 376.843636 288.705196 
L 378.575127 288.705196 
L 379.008 289.835664 
L 380.739491 289.835664 
L 381.172364 287.574729 
L 387.232582 287.574729 
L 387.665455 288.705196 
L 391.561309 288.705196 
L 391.994182 290.966131 
L 395.890036 290.966131 
L 396.322909 292.096598 
L 398.0544 292.096598 
L 398.487273 289.835664 
L 398.487273 289.835664 
" clip-path="url(#paba5eeae5a)" style="fill: none; stroke-dasharray: 1.85,0.8; stroke-dashoffset: 0; stroke: #80ffb4; stroke-width: 0.5"/>
   </g>
   <g id="line2d_18">
    <path d="M 73.832727 295.488 
L 134.002036 295.488 
L 134.434909 293.227065 
L 138.330764 293.227065 
L 138.763636 290.966131 
L 142.659491 290.966131 
L 143.092364 269.487252 
L 146.988218 269.487252 
L 147.421091 249.138841 
L 151.316945 249.138841 
L 151.749818 235.573234 
L 155.645673 235.573234 
L 156.078545 202.789682 
L 159.9744 202.789682 
L 160.407273 177.919402 
L 164.303127 177.919402 
L 164.736 185.832673 
L 168.631855 185.832673 
L 169.064727 177.919402 
L 172.094836 177.919402 
L 172.527709 164.353794 
L 172.960582 164.353794 
L 173.393455 155.310056 
L 176.423564 155.310056 
L 176.856436 149.65772 
L 177.289309 149.65772 
L 177.722182 184.702206 
L 180.752291 184.702206 
L 181.185164 174.528 
L 181.618036 174.528 
L 182.050909 170.006131 
L 185.081018 170.006131 
L 185.513891 165.484262 
L 185.946764 165.484262 
L 186.379636 172.267065 
L 189.409745 172.267065 
L 189.842618 132.70071 
L 190.275491 132.70071 
L 190.708364 147.396785 
L 193.738473 147.396785 
L 194.171345 144.005383 
L 194.604218 139.483514 
L 195.037091 162.09286 
L 198.0672 162.09286 
L 198.500073 157.570991 
L 198.932945 141.744449 
L 202.395927 141.744449 
L 202.8288 138.353047 
L 203.261673 125.917907 
L 203.694545 157.570991 
L 206.724655 157.570991 
L 207.157527 133.831178 
L 207.5904 120.26557 
L 208.023273 127.048374 
L 211.053382 127.048374 
L 211.486255 158.701458 
L 211.919127 151.918654 
L 212.352 165.484262 
L 215.382109 165.484262 
L 215.814982 177.919402 
L 216.247855 172.267065 
L 220.143709 172.267065 
L 220.576582 181.310804 
L 224.039564 181.310804 
L 224.472436 167.745196 
L 224.905309 172.267065 
L 228.368291 172.267065 
L 228.801164 190.354542 
L 229.234036 174.528 
L 232.697018 174.528 
L 233.129891 182.441271 
L 233.562764 183.571738 
L 237.458618 183.571738 
L 237.891491 185.832673 
L 241.354473 185.832673 
L 241.787345 196.006879 
L 242.220218 202.789682 
L 245.6832 202.789682 
L 246.116073 225.399028 
L 246.548945 198.267813 
L 250.011927 198.267813 
L 250.4448 185.832673 
L 250.877673 212.963888 
L 258.669382 212.963888 
L 259.102255 199.39828 
L 259.535127 205.050617 
L 263.430982 205.050617 
L 263.863855 193.745944 
L 267.326836 193.745944 
L 267.759709 190.354542 
L 268.192582 225.399028 
L 271.655564 225.399028 
L 272.088436 243.486505 
L 272.521309 235.573234 
L 275.984291 235.573234 
L 276.417164 223.138093 
L 280.313018 223.138093 
L 280.745891 237.834168 
L 281.178764 231.051364 
L 285.074618 231.051364 
L 285.507491 232.181832 
L 293.2992 232.181832 
L 294.164945 225.399028 
L 297.627927 225.399028 
L 298.0608 236.703701 
L 298.493673 242.356037 
L 301.956655 242.356037 
L 302.389527 237.834168 
L 302.8224 245.747439 
L 306.285382 245.747439 
L 306.718255 238.964636 
L 307.151127 246.877907 
L 310.614109 246.877907 
L 311.046982 254.791178 
L 314.942836 254.791178 
L 315.808582 264.965383 
L 319.271564 264.965383 
L 319.704436 258.182579 
L 323.600291 258.182579 
L 324.033164 266.09585 
L 324.466036 260.443514 
L 324.898909 252.530243 
L 327.929018 252.530243 
L 328.794764 257.052112 
L 332.257745 257.052112 
L 332.690618 253.66071 
L 333.123491 253.66071 
L 333.556364 250.269308 
L 336.586473 250.269308 
L 337.019345 252.530243 
L 337.452218 260.443514 
L 340.9152 260.443514 
L 341.348073 268.356785 
L 345.6768 268.356785 
L 346.109673 275.139589 
L 346.542545 276.270056 
L 349.572655 276.270056 
L 350.005527 277.400523 
L 353.901382 277.400523 
L 354.334255 279.661458 
L 354.767127 279.661458 
L 355.2 283.05286 
L 358.230109 283.05286 
L 358.662982 279.661458 
L 359.095855 279.661458 
L 359.528727 274.009121 
L 366.887564 274.009121 
L 367.320436 263.834916 
L 367.753309 263.834916 
L 368.186182 266.09585 
L 372.082036 266.09585 
L 372.514909 264.965383 
L 375.545018 264.965383 
L 375.977891 266.09585 
L 379.873745 266.09585 
L 380.306618 270.61772 
L 380.739491 270.61772 
L 381.172364 276.270056 
L 388.5312 276.270056 
L 388.964073 286.444262 
L 389.396945 286.444262 
L 389.829818 290.966131 
L 393.725673 290.966131 
L 394.158545 292.096598 
L 397.188655 292.096598 
L 397.621527 289.835664 
L 398.487273 289.835664 
L 398.487273 289.835664 
" clip-path="url(#paba5eeae5a)" style="fill: none; stroke-dasharray: 1.85,0.8; stroke-dashoffset: 0; stroke: #ffb360; stroke-width: 0.5"/>
   </g>
   <g id="line2d_19">
    <path d="M 73.832727 295.488 
L 121.015855 295.488 
L 121.448727 294.357533 
L 129.673309 294.357533 
L 130.106182 292.096598 
L 138.330764 292.096598 
L 138.763636 280.791925 
L 142.659491 280.791925 
L 143.092364 281.922393 
L 146.988218 281.922393 
L 147.421091 267.226318 
L 151.316945 267.226318 
L 151.749818 269.487252 
L 155.645673 269.487252 
L 156.078545 245.747439 
L 159.9744 245.747439 
L 160.407273 257.052112 
L 164.303127 257.052112 
L 164.736 222.007626 
L 168.631855 222.007626 
L 169.064727 236.703701 
L 172.960582 236.703701 
L 173.393455 184.702206 
L 177.289309 184.702206 
L 177.722182 208.442019 
L 179.0208 208.442019 
L 179.453673 190.354542 
L 181.618036 190.354542 
L 182.050909 159.831925 
L 185.946764 159.831925 
L 186.379636 194.876411 
L 187.678255 194.876411 
L 188.111127 158.701458 
L 190.275491 158.701458 
L 190.708364 133.831178 
L 194.604218 133.831178 
L 195.037091 185.832673 
L 196.335709 185.832673 
L 196.768582 149.65772 
L 198.932945 149.65772 
L 199.365818 125.917907 
L 200.664436 125.917907 
L 201.097309 139.483514 
L 203.261673 139.483514 
L 203.694545 170.006131 
L 204.993164 170.006131 
L 205.426036 136.092112 
L 209.321891 136.092112 
L 209.754764 148.527252 
L 211.919127 148.527252 
L 212.352 173.397533 
L 213.650618 173.397533 
L 214.083491 141.744449 
L 217.979345 141.744449 
L 218.412218 171.136598 
L 220.576582 171.136598 
L 221.009455 194.876411 
L 221.442327 156.440523 
L 222.308073 156.440523 
L 222.740945 130.439776 
L 226.6368 130.439776 
L 227.069673 164.353794 
L 229.666909 164.353794 
L 230.099782 155.310056 
L 230.965527 155.310056 
L 231.3984 156.440523 
L 235.294255 156.440523 
L 235.727127 188.093607 
L 239.622982 188.093607 
L 240.055855 186.96314 
L 242.653091 186.96314 
L 243.085964 225.399028 
L 243.951709 225.399028 
L 244.384582 255.921645 
L 246.981818 255.921645 
L 247.414691 217.485757 
L 248.280436 217.485757 
L 248.713309 203.92015 
L 251.310545 203.92015 
L 251.743418 212.963888 
L 252.609164 212.963888 
L 253.042036 235.573234 
L 255.639273 235.573234 
L 256.072145 216.35529 
L 256.937891 216.35529 
L 257.370764 180.180336 
L 261.266618 180.180336 
L 261.699491 188.093607 
L 264.296727 188.093607 
L 264.7296 155.310056 
L 265.595345 155.310056 
L 266.028218 137.222579 
L 268.625455 137.222579 
L 269.058327 175.658467 
L 269.924073 175.658467 
L 270.356945 189.224075 
L 274.2528 189.224075 
L 274.685673 186.96314 
L 277.282909 186.96314 
L 277.715782 206.181084 
L 278.581527 206.181084 
L 279.0144 242.356037 
L 281.611636 242.356037 
L 282.044509 232.181832 
L 282.910255 232.181832 
L 283.343127 219.746692 
L 285.940364 219.746692 
L 286.373236 252.530243 
L 287.238982 252.530243 
L 287.671855 270.61772 
L 290.269091 270.61772 
L 290.701964 264.965383 
L 291.567709 264.965383 
L 292.000582 263.834916 
L 295.896436 263.834916 
L 296.329309 266.09585 
L 298.926545 266.09585 
L 299.359418 259.313047 
L 300.225164 259.313047 
L 300.658036 252.530243 
L 303.255273 252.530243 
L 303.688145 262.704449 
L 304.553891 262.704449 
L 304.986764 275.139589 
L 307.584 275.139589 
L 308.016873 272.878654 
L 308.882618 272.878654 
L 309.315491 255.921645 
L 311.912727 255.921645 
L 312.3456 261.573981 
L 313.211345 261.573981 
L 313.644218 262.704449 
L 316.241455 262.704449 
L 316.674327 242.356037 
L 317.540073 242.356037 
L 317.972945 232.181832 
L 320.570182 232.181832 
L 321.003055 238.964636 
L 321.8688 238.964636 
L 322.301673 245.747439 
L 324.898909 245.747439 
L 325.331782 234.442766 
L 326.197527 234.442766 
L 326.6304 228.79043 
L 329.227636 228.79043 
L 329.660509 231.051364 
L 330.526255 231.051364 
L 330.959127 248.008374 
L 333.556364 248.008374 
L 333.989236 242.356037 
L 334.854982 242.356037 
L 335.287855 228.79043 
L 337.885091 228.79043 
L 338.317964 249.138841 
L 339.183709 249.138841 
L 339.616582 259.313047 
L 342.213818 259.313047 
L 342.646691 258.182579 
L 343.512436 258.182579 
L 343.945309 255.921645 
L 346.542545 255.921645 
L 346.975418 267.226318 
L 347.841164 267.226318 
L 348.274036 272.878654 
L 352.169891 272.878654 
L 352.602764 261.573981 
L 355.2 261.573981 
L 355.632873 267.226318 
L 356.498618 267.226318 
L 356.931491 280.791925 
L 363.857455 280.791925 
L 364.290327 281.922393 
L 365.156073 281.922393 
L 365.588945 284.183327 
L 368.186182 284.183327 
L 368.619055 272.878654 
L 369.4848 272.878654 
L 369.917673 270.61772 
L 373.813527 270.61772 
L 374.2464 281.922393 
L 378.142255 281.922393 
L 378.575127 279.661458 
L 385.501091 279.661458 
L 385.933964 275.139589 
L 386.799709 275.139589 
L 387.232582 271.748187 
L 389.829818 271.748187 
L 390.262691 283.05286 
L 391.128436 283.05286 
L 391.561309 285.313794 
L 398.487273 285.313794 
L 398.487273 285.313794 
" clip-path="url(#paba5eeae5a)" style="fill: none; stroke-dasharray: 1.85,0.8; stroke-dashoffset: 0; stroke: #ff0000; stroke-width: 0.5"/>
   </g>
   <g id="patch_3">
    <path d="M 57.6 307.584 
L 57.6 41.472 
" style="fill: none; stroke: #000000; stroke-width: 0.8; stroke-linejoin: miter; stroke-linecap: square"/>
   </g>
   <g id="patch_4">
    <path d="M 414.72 307.584 
L 414.72 41.472 
" style="fill: none; stroke: #000000; stroke-width: 0.8; stroke-linejoin: miter; stroke-linecap: square"/>
   </g>
   <g id="patch_5">
    <path d="M 57.6 307.584 
L 414.72 307.584 
" style="fill: none; stroke: #000000; stroke-width: 0.8; stroke-linejoin: miter; stroke-linecap: square"/>
   </g>
   <g id="patch_6">
    <path d="M 57.6 41.472 
L 414.72 41.472 
" style="fill: none; stroke: #000000; stroke-width: 0.8; stroke-linejoin: miter; stroke-linecap: square"/>
   </g>
   <g id="text_17">
    <!-- Heating Rate ($^{\circ}C.s^{-1}$) -->
    <g transform="translate(271.872 68.0832) scale(0.12 -0.12)">
     <defs>
      <path id="DejaVuSans-48" d="M 628 4666 
L 1259 4666 
L 1259 2753 
L 3553 2753 
L 3553 4666 
L 4184 4666 
L 4184 0 
L 3553 0 
L 3553 2222 
L 1259 2222 
L 1259 0 
L 628 0 
L 628 4666 
z
" transform="scale(0.015625)"/>
      <path id="DejaVuSans-67" d="M 2906 1791 
Q 2906 2416 2648 2759 
Q 2391 3103 1925 3103 
Q 1463 3103 1205 2759 
Q 947 2416 947 1791 
Q 947 1169 1205 825 
Q 1463 481 1925 481 
Q 2391 481 2648 825 
Q 2906 1169 2906 1791 
z
M 3481 434 
Q 3481 -459 3084 -895 
Q 2688 -1331 1869 -1331 
Q 1566 -1331 1297 -1286 
Q 1028 -1241 775 -1147 
L 775 -588 
Q 1028 -725 1275 -790 
Q 1522 -856 1778 -856 
Q 2344 -856 2625 -561 
Q 2906 -266 2906 331 
L 2906 616 
Q 2728 306 2450 153 
Q 2172 0 1784 0 
Q 1141 0 747 490 
Q 353 981 353 1791 
Q 353 2603 747 3093 
Q 1141 3584 1784 3584 
Q 2172 3584 2450 3431 
Q 2728 3278 2906 2969 
L 2906 3500 
L 3481 3500 
L 3481 434 
z
" transform="scale(0.015625)"/>
      <path id="DejaVuSans-52" d="M 2841 2188 
Q 3044 2119 3236 1894 
Q 3428 1669 3622 1275 
L 4263 0 
L 3584 0 
L 2988 1197 
Q 2756 1666 2539 1819 
Q 2322 1972 1947 1972 
L 1259 1972 
L 1259 0 
L 628 0 
L 628 4666 
L 2053 4666 
Q 2853 4666 3247 4331 
Q 3641 3997 3641 3322 
Q 3641 2881 3436 2590 
Q 3231 2300 2841 2188 
z
M 1259 4147 
L 1259 2491 
L 2053 2491 
Q 2509 2491 2742 2702 
Q 2975 2913 2975 3322 
Q 2975 3731 2742 3939 
Q 2509 4147 2053 4147 
L 1259 4147 
z
" transform="scale(0.015625)"/>
      <path id="DejaVuSans-Oblique-73" d="M 3200 3397 
L 3091 2853 
Q 2863 2978 2609 3040 
Q 2356 3103 2088 3103 
Q 1634 3103 1373 2948 
Q 1113 2794 1113 2528 
Q 1113 2219 1719 2053 
Q 1766 2041 1788 2034 
L 1972 1978 
Q 2547 1819 2739 1644 
Q 2931 1469 2931 1166 
Q 2931 609 2489 259 
Q 2047 -91 1331 -91 
Q 1053 -91 747 -37 
Q 441 16 72 128 
L 184 722 
Q 500 559 806 475 
Q 1113 391 1394 391 
Q 1816 391 2080 572 
Q 2344 753 2344 1031 
Q 2344 1331 1650 1516 
L 1591 1531 
L 1394 1581 
Q 956 1697 753 1886 
Q 550 2075 550 2369 
Q 550 2928 970 3256 
Q 1391 3584 2113 3584 
Q 2397 3584 2667 3537 
Q 2938 3491 3200 3397 
z
" transform="scale(0.015625)"/>
     </defs>
     <use xlink:href="#DejaVuSans-48" transform="translate(0 0.684375)"/>
     <use xlink:href="#DejaVuSans-65" transform="translate(75.195312 0.684375)"/>
     <use xlink:href="#DejaVuSans-61" transform="translate(136.71875 0.684375)"/>
     <use xlink:href="#DejaVuSans-74" transform="translate(197.998047 0.684375)"/>
     <use xlink:href="#DejaVuSans-69" transform="translate(237.207031 0.684375)"/>
     <use xlink:href="#DejaVuSans-6e" transform="translate(264.990234 0.684375)"/>
     <use xlink:href="#DejaVuSans-67" transform="translate(328.369141 0.684375)"/>
     <use xlink:href="#DejaVuSans-20" transform="translate(391.845703 0.684375)"/>
     <use xlink:href="#DejaVuSans-52" transform="translate(423.632812 0.684375)"/>
     <use xlink:href="#DejaVuSans-61" transform="translate(493.115234 0.684375)"/>
     <use xlink:href="#DejaVuSans-74" transform="translate(554.394531 0.684375)"/>
     <use xlink:href="#DejaVuSans-65" transform="translate(593.603516 0.684375)"/>
     <use xlink:href="#DejaVuSans-20" transform="translate(655.126953 0.684375)"/>
     <use xlink:href="#DejaVuSans-28" transform="translate(686.914062 0.684375)"/>
     <use xlink:href="#DejaVuSans-2218" transform="translate(726.884766 38.965625) scale(0.7)"/>
     <use xlink:href="#DejaVuSans-Oblique-43" transform="translate(773.4375 0.684375)"/>
     <use xlink:href="#DejaVuSans-2e" transform="translate(843.261719 0.684375)"/>
     <use xlink:href="#DejaVuSans-Oblique-73" transform="translate(894.53125 0.684375)"/>
     <use xlink:href="#DejaVuSans-2212" transform="translate(951.280755 38.965625) scale(0.7)"/>
     <use xlink:href="#DejaVuSans-31" transform="translate(1009.933099 38.965625) scale(0.7)"/>
     <use xlink:href="#DejaVuSans-29" transform="translate(1057.203607 0.684375)"/>
    </g>
   </g>
   <g id="legend_1">
    <g id="patch_7">
     <path d="M 314.584 149.473825 
L 362.487125 149.473825 
Q 364.487125 149.473825 364.487125 147.473825 
L 364.487125 75.0832 
Q 364.487125 73.0832 362.487125 73.0832 
L 314.584 73.0832 
Q 312.584 73.0832 312.584 75.0832 
L 312.584 147.473825 
Q 312.584 149.473825 314.584 149.473825 
z
" style="fill: #ffffff; opacity: 0.8; stroke: #cccccc; stroke-linejoin: miter"/>
    </g>
    <g id="line2d_20">
     <path d="M 316.584 81.181637 
L 326.584 81.181637 
L 336.584 81.181637 
" style="fill: none; stroke-dasharray: 1.85,0.8; stroke-dashoffset: 0; stroke: #8000ff; stroke-width: 0.5"/>
    </g>
    <g id="text_18">
     <!-- 0.1 -->
     <g transform="translate(344.584 84.681637) scale(0.1 -0.1)">
      <use xlink:href="#DejaVuSans-30"/>
      <use xlink:href="#DejaVuSans-2e" transform="translate(63.623047 0)"/>
      <use xlink:href="#DejaVuSans-31" transform="translate(95.410156 0)"/>
     </g>
    </g>
    <g id="line2d_21">
     <path d="M 316.584 95.859762 
L 326.584 95.859762 
L 336.584 95.859762 
" style="fill: none; stroke-dasharray: 1.85,0.8; stroke-dashoffset: 0; stroke: #00b5eb; stroke-width: 0.5"/>
    </g>
    <g id="text_19">
     <!-- 1 -->
     <g transform="translate(344.584 99.359762) scale(0.1 -0.1)">
      <use xlink:href="#DejaVuSans-31"/>
     </g>
    </g>
    <g id="line2d_22">
     <path d="M 316.584 110.537887 
L 326.584 110.537887 
L 336.584 110.537887 
" style="fill: none; stroke-dasharray: 1.85,0.8; stroke-dashoffset: 0; stroke: #80ffb4; stroke-width: 0.5"/>
    </g>
    <g id="text_20">
     <!-- 5 -->
     <g transform="translate(344.584 114.037887) scale(0.1 -0.1)">
      <use xlink:href="#DejaVuSans-35"/>
     </g>
    </g>
    <g id="line2d_23">
     <path d="M 316.584 125.216012 
L 326.584 125.216012 
L 336.584 125.216012 
" style="fill: none; stroke-dasharray: 1.85,0.8; stroke-dashoffset: 0; stroke: #ffb360; stroke-width: 0.5"/>
    </g>
    <g id="text_21">
     <!-- 10 -->
     <g transform="translate(344.584 128.716012) scale(0.1 -0.1)">
      <use xlink:href="#DejaVuSans-31"/>
      <use xlink:href="#DejaVuSans-30" transform="translate(63.623047 0)"/>
     </g>
    </g>
    <g id="line2d_24">
     <path d="M 316.584 139.894137 
L 326.584 139.894137 
L 336.584 139.894137 
" style="fill: none; stroke-dasharray: 1.85,0.8; stroke-dashoffset: 0; stroke: #ff0000; stroke-width: 0.5"/>
    </g>
    <g id="text_22">
     <!-- 20 -->
     <g transform="translate(344.584 143.394137) scale(0.1 -0.1)">
      <use xlink:href="#DejaVuSans-32"/>
      <use xlink:href="#DejaVuSans-30" transform="translate(63.623047 0)"/>
     </g>
    </g>
   </g>
  </g>
 </g>
 <defs>
  <clipPath id="paba5eeae5a">
   <rect x="57.6" y="41.472" width="357.12" height="266.112"/>
  </clipPath>
 </defs>
</svg>
