<?xml version="1.0" encoding="utf-8" standalone="no"?>
<!DOCTYPE svg PUBLIC "-//W3C//DTD SVG 1.1//EN"
  "http://www.w3.org/Graphics/SVG/1.1/DTD/svg11.dtd">
<svg xmlns:xlink="http://www.w3.org/1999/xlink" width="460.8pt" height="345.6pt" viewBox="0 0 460.8 345.6" xmlns="http://www.w3.org/2000/svg" version="1.1">
 <metadata>
  <rdf:RDF xmlns:dc="http://purl.org/dc/elements/1.1/" xmlns:cc="http://creativecommons.org/ns#" xmlns:rdf="http://www.w3.org/1999/02/22-rdf-syntax-ns#">
   <cc:Work>
    <dc:type rdf:resource="http://purl.org/dc/dcmitype/StillImage"/>
    <dc:date>2025-03-04T12:20:40.923994</dc:date>
    <dc:format>image/svg+xml</dc:format>
    <dc:creator>
     <cc:Agent>
      <dc:title>Matplotlib v3.10.0, https://matplotlib.org/</dc:title>
     </cc:Agent>
    </dc:creator>
   </cc:Work>
  </rdf:RDF>
 </metadata>
 <defs>
  <style type="text/css">*{stroke-linejoin: round; stroke-linecap: butt}</style>
 </defs>
 <g id="figure_1">
  <g id="patch_1">
   <path d="M 0 345.6 
L 460.8 345.6 
L 460.8 0 
L 0 0 
z
" style="fill: #ffffff"/>
  </g>
  <g id="axes_1">
   <g id="patch_2">
    <path d="M 57.6 307.584 
L 414.72 307.584 
L 414.72 41.472 
L 57.6 41.472 
z
" style="fill: #ffffff"/>
   </g>
   <g id="matplotlib.axis_1">
    <g id="xtick_1">
     <g id="line2d_1">
      <defs>
       <path id="m21875250bf" d="M 0 0 
L 0 3.5 
" style="stroke: #000000; stroke-width: 0.8"/>
      </defs>
      <g>
       <use xlink:href="#m21875250bf" x="73.832727" y="307.584" style="stroke: #000000; stroke-width: 0.8"/>
      </g>
     </g>
     <g id="text_1">
      <!-- 0 -->
      <g transform="translate(70.651477 322.182437) scale(0.1 -0.1)">
       <defs>
        <path id="DejaVuSans-30" d="M 2034 4250 
Q 1547 4250 1301 3770 
Q 1056 3291 1056 2328 
Q 1056 1369 1301 889 
Q 1547 409 2034 409 
Q 2525 409 2770 889 
Q 3016 1369 3016 2328 
Q 3016 3291 2770 3770 
Q 2525 4250 2034 4250 
z
M 2034 4750 
Q 2819 4750 3233 4129 
Q 3647 3509 3647 2328 
Q 3647 1150 3233 529 
Q 2819 -91 2034 -91 
Q 1250 -91 836 529 
Q 422 1150 422 2328 
Q 422 3509 836 4129 
Q 1250 4750 2034 4750 
z
" transform="scale(0.015625)"/>
       </defs>
       <use xlink:href="#DejaVuSans-30"/>
      </g>
     </g>
    </g>
    <g id="xtick_2">
     <g id="line2d_2">
      <g>
       <use xlink:href="#m21875250bf" x="114.414545" y="307.584" style="stroke: #000000; stroke-width: 0.8"/>
      </g>
     </g>
     <g id="text_2">
      <!-- 100 -->
      <g transform="translate(104.870795 322.182437) scale(0.1 -0.1)">
       <defs>
        <path id="DejaVuSans-31" d="M 794 531 
L 1825 531 
L 1825 4091 
L 703 3866 
L 703 4441 
L 1819 4666 
L 2450 4666 
L 2450 531 
L 3481 531 
L 3481 0 
L 794 0 
L 794 531 
z
" transform="scale(0.015625)"/>
       </defs>
       <use xlink:href="#DejaVuSans-31"/>
       <use xlink:href="#DejaVuSans-30" transform="translate(63.623047 0)"/>
       <use xlink:href="#DejaVuSans-30" transform="translate(127.246094 0)"/>
      </g>
     </g>
    </g>
    <g id="xtick_3">
     <g id="line2d_3">
      <g>
       <use xlink:href="#m21875250bf" x="154.996364" y="307.584" style="stroke: #000000; stroke-width: 0.8"/>
      </g>
     </g>
     <g id="text_3">
      <!-- 200 -->
      <g transform="translate(145.452614 322.182437) scale(0.1 -0.1)">
       <defs>
        <path id="DejaVuSans-32" d="M 1228 531 
L 3431 531 
L 3431 0 
L 469 0 
L 469 531 
Q 828 903 1448 1529 
Q 2069 2156 2228 2338 
Q 2531 2678 2651 2914 
Q 2772 3150 2772 3378 
Q 2772 3750 2511 3984 
Q 2250 4219 1831 4219 
Q 1534 4219 1204 4116 
Q 875 4013 500 3803 
L 500 4441 
Q 881 4594 1212 4672 
Q 1544 4750 1819 4750 
Q 2544 4750 2975 4387 
Q 3406 4025 3406 3419 
Q 3406 3131 3298 2873 
Q 3191 2616 2906 2266 
Q 2828 2175 2409 1742 
Q 1991 1309 1228 531 
z
" transform="scale(0.015625)"/>
       </defs>
       <use xlink:href="#DejaVuSans-32"/>
       <use xlink:href="#DejaVuSans-30" transform="translate(63.623047 0)"/>
       <use xlink:href="#DejaVuSans-30" transform="translate(127.246094 0)"/>
      </g>
     </g>
    </g>
    <g id="xtick_4">
     <g id="line2d_4">
      <g>
       <use xlink:href="#m21875250bf" x="195.578182" y="307.584" style="stroke: #000000; stroke-width: 0.8"/>
      </g>
     </g>
     <g id="text_4">
      <!-- 300 -->
      <g transform="translate(186.034432 322.182437) scale(0.1 -0.1)">
       <defs>
        <path id="DejaVuSans-33" d="M 2597 2516 
Q 3050 2419 3304 2112 
Q 3559 1806 3559 1356 
Q 3559 666 3084 287 
Q 2609 -91 1734 -91 
Q 1441 -91 1130 -33 
Q 819 25 488 141 
L 488 750 
Q 750 597 1062 519 
Q 1375 441 1716 441 
Q 2309 441 2620 675 
Q 2931 909 2931 1356 
Q 2931 1769 2642 2001 
Q 2353 2234 1838 2234 
L 1294 2234 
L 1294 2753 
L 1863 2753 
Q 2328 2753 2575 2939 
Q 2822 3125 2822 3475 
Q 2822 3834 2567 4026 
Q 2313 4219 1838 4219 
Q 1578 4219 1281 4162 
Q 984 4106 628 3988 
L 628 4550 
Q 988 4650 1302 4700 
Q 1616 4750 1894 4750 
Q 2613 4750 3031 4423 
Q 3450 4097 3450 3541 
Q 3450 3153 3228 2886 
Q 3006 2619 2597 2516 
z
" transform="scale(0.015625)"/>
       </defs>
       <use xlink:href="#DejaVuSans-33"/>
       <use xlink:href="#DejaVuSans-30" transform="translate(63.623047 0)"/>
       <use xlink:href="#DejaVuSans-30" transform="translate(127.246094 0)"/>
      </g>
     </g>
    </g>
    <g id="xtick_5">
     <g id="line2d_5">
      <g>
       <use xlink:href="#m21875250bf" x="236.16" y="307.584" style="stroke: #000000; stroke-width: 0.8"/>
      </g>
     </g>
     <g id="text_5">
      <!-- 400 -->
      <g transform="translate(226.61625 322.182437) scale(0.1 -0.1)">
       <defs>
        <path id="DejaVuSans-34" d="M 2419 4116 
L 825 1625 
L 2419 1625 
L 2419 4116 
z
M 2253 4666 
L 3047 4666 
L 3047 1625 
L 3713 1625 
L 3713 1100 
L 3047 1100 
L 3047 0 
L 2419 0 
L 2419 1100 
L 313 1100 
L 313 1709 
L 2253 4666 
z
" transform="scale(0.015625)"/>
       </defs>
       <use xlink:href="#DejaVuSans-34"/>
       <use xlink:href="#DejaVuSans-30" transform="translate(63.623047 0)"/>
       <use xlink:href="#DejaVuSans-30" transform="translate(127.246094 0)"/>
      </g>
     </g>
    </g>
    <g id="xtick_6">
     <g id="line2d_6">
      <g>
       <use xlink:href="#m21875250bf" x="276.741818" y="307.584" style="stroke: #000000; stroke-width: 0.8"/>
      </g>
     </g>
     <g id="text_6">
      <!-- 500 -->
      <g transform="translate(267.198068 322.182437) scale(0.1 -0.1)">
       <defs>
        <path id="DejaVuSans-35" d="M 691 4666 
L 3169 4666 
L 3169 4134 
L 1269 4134 
L 1269 2991 
Q 1406 3038 1543 3061 
Q 1681 3084 1819 3084 
Q 2600 3084 3056 2656 
Q 3513 2228 3513 1497 
Q 3513 744 3044 326 
Q 2575 -91 1722 -91 
Q 1428 -91 1123 -41 
Q 819 9 494 109 
L 494 744 
Q 775 591 1075 516 
Q 1375 441 1709 441 
Q 2250 441 2565 725 
Q 2881 1009 2881 1497 
Q 2881 1984 2565 2268 
Q 2250 2553 1709 2553 
Q 1456 2553 1204 2497 
Q 953 2441 691 2322 
L 691 4666 
z
" transform="scale(0.015625)"/>
       </defs>
       <use xlink:href="#DejaVuSans-35"/>
       <use xlink:href="#DejaVuSans-30" transform="translate(63.623047 0)"/>
       <use xlink:href="#DejaVuSans-30" transform="translate(127.246094 0)"/>
      </g>
     </g>
    </g>
    <g id="xtick_7">
     <g id="line2d_7">
      <g>
       <use xlink:href="#m21875250bf" x="317.323636" y="307.584" style="stroke: #000000; stroke-width: 0.8"/>
      </g>
     </g>
     <g id="text_7">
      <!-- 600 -->
      <g transform="translate(307.779886 322.182437) scale(0.1 -0.1)">
       <defs>
        <path id="DejaVuSans-36" d="M 2113 2584 
Q 1688 2584 1439 2293 
Q 1191 2003 1191 1497 
Q 1191 994 1439 701 
Q 1688 409 2113 409 
Q 2538 409 2786 701 
Q 3034 994 3034 1497 
Q 3034 2003 2786 2293 
Q 2538 2584 2113 2584 
z
M 3366 4563 
L 3366 3988 
Q 3128 4100 2886 4159 
Q 2644 4219 2406 4219 
Q 1781 4219 1451 3797 
Q 1122 3375 1075 2522 
Q 1259 2794 1537 2939 
Q 1816 3084 2150 3084 
Q 2853 3084 3261 2657 
Q 3669 2231 3669 1497 
Q 3669 778 3244 343 
Q 2819 -91 2113 -91 
Q 1303 -91 875 529 
Q 447 1150 447 2328 
Q 447 3434 972 4092 
Q 1497 4750 2381 4750 
Q 2619 4750 2861 4703 
Q 3103 4656 3366 4563 
z
" transform="scale(0.015625)"/>
       </defs>
       <use xlink:href="#DejaVuSans-36"/>
       <use xlink:href="#DejaVuSans-30" transform="translate(63.623047 0)"/>
       <use xlink:href="#DejaVuSans-30" transform="translate(127.246094 0)"/>
      </g>
     </g>
    </g>
    <g id="xtick_8">
     <g id="line2d_8">
      <g>
       <use xlink:href="#m21875250bf" x="357.905455" y="307.584" style="stroke: #000000; stroke-width: 0.8"/>
      </g>
     </g>
     <g id="text_8">
      <!-- 700 -->
      <g transform="translate(348.361705 322.182437) scale(0.1 -0.1)">
       <defs>
        <path id="DejaVuSans-37" d="M 525 4666 
L 3525 4666 
L 3525 4397 
L 1831 0 
L 1172 0 
L 2766 4134 
L 525 4134 
L 525 4666 
z
" transform="scale(0.015625)"/>
       </defs>
       <use xlink:href="#DejaVuSans-37"/>
       <use xlink:href="#DejaVuSans-30" transform="translate(63.623047 0)"/>
       <use xlink:href="#DejaVuSans-30" transform="translate(127.246094 0)"/>
      </g>
     </g>
    </g>
    <g id="xtick_9">
     <g id="line2d_9">
      <g>
       <use xlink:href="#m21875250bf" x="398.487273" y="307.584" style="stroke: #000000; stroke-width: 0.8"/>
      </g>
     </g>
     <g id="text_9">
      <!-- 800 -->
      <g transform="translate(388.943523 322.182437) scale(0.1 -0.1)">
       <defs>
        <path id="DejaVuSans-38" d="M 2034 2216 
Q 1584 2216 1326 1975 
Q 1069 1734 1069 1313 
Q 1069 891 1326 650 
Q 1584 409 2034 409 
Q 2484 409 2743 651 
Q 3003 894 3003 1313 
Q 3003 1734 2745 1975 
Q 2488 2216 2034 2216 
z
M 1403 2484 
Q 997 2584 770 2862 
Q 544 3141 544 3541 
Q 544 4100 942 4425 
Q 1341 4750 2034 4750 
Q 2731 4750 3128 4425 
Q 3525 4100 3525 3541 
Q 3525 3141 3298 2862 
Q 3072 2584 2669 2484 
Q 3125 2378 3379 2068 
Q 3634 1759 3634 1313 
Q 3634 634 3220 271 
Q 2806 -91 2034 -91 
Q 1263 -91 848 271 
Q 434 634 434 1313 
Q 434 1759 690 2068 
Q 947 2378 1403 2484 
z
M 1172 3481 
Q 1172 3119 1398 2916 
Q 1625 2713 2034 2713 
Q 2441 2713 2670 2916 
Q 2900 3119 2900 3481 
Q 2900 3844 2670 4047 
Q 2441 4250 2034 4250 
Q 1625 4250 1398 4047 
Q 1172 3844 1172 3481 
z
" transform="scale(0.015625)"/>
       </defs>
       <use xlink:href="#DejaVuSans-38"/>
       <use xlink:href="#DejaVuSans-30" transform="translate(63.623047 0)"/>
       <use xlink:href="#DejaVuSans-30" transform="translate(127.246094 0)"/>
      </g>
     </g>
    </g>
    <g id="text_10">
     <!-- Temperature ($^{\circ}C$) -->
     <g transform="translate(192.16 335.862125) scale(0.1 -0.1)">
      <defs>
       <path id="DejaVuSans-54" d="M -19 4666 
L 3928 4666 
L 3928 4134 
L 2272 4134 
L 2272 0 
L 1638 0 
L 1638 4134 
L -19 4134 
L -19 4666 
z
" transform="scale(0.015625)"/>
       <path id="DejaVuSans-65" d="M 3597 1894 
L 3597 1613 
L 953 1613 
Q 991 1019 1311 708 
Q 1631 397 2203 397 
Q 2534 397 2845 478 
Q 3156 559 3463 722 
L 3463 178 
Q 3153 47 2828 -22 
Q 2503 -91 2169 -91 
Q 1331 -91 842 396 
Q 353 884 353 1716 
Q 353 2575 817 3079 
Q 1281 3584 2069 3584 
Q 2775 3584 3186 3129 
Q 3597 2675 3597 1894 
z
M 3022 2063 
Q 3016 2534 2758 2815 
Q 2500 3097 2075 3097 
Q 1594 3097 1305 2825 
Q 1016 2553 972 2059 
L 3022 2063 
z
" transform="scale(0.015625)"/>
       <path id="DejaVuSans-6d" d="M 3328 2828 
Q 3544 3216 3844 3400 
Q 4144 3584 4550 3584 
Q 5097 3584 5394 3201 
Q 5691 2819 5691 2113 
L 5691 0 
L 5113 0 
L 5113 2094 
Q 5113 2597 4934 2840 
Q 4756 3084 4391 3084 
Q 3944 3084 3684 2787 
Q 3425 2491 3425 1978 
L 3425 0 
L 2847 0 
L 2847 2094 
Q 2847 2600 2669 2842 
Q 2491 3084 2119 3084 
Q 1678 3084 1418 2786 
Q 1159 2488 1159 1978 
L 1159 0 
L 581 0 
L 581 3500 
L 1159 3500 
L 1159 2956 
Q 1356 3278 1631 3431 
Q 1906 3584 2284 3584 
Q 2666 3584 2933 3390 
Q 3200 3197 3328 2828 
z
" transform="scale(0.015625)"/>
       <path id="DejaVuSans-70" d="M 1159 525 
L 1159 -1331 
L 581 -1331 
L 581 3500 
L 1159 3500 
L 1159 2969 
Q 1341 3281 1617 3432 
Q 1894 3584 2278 3584 
Q 2916 3584 3314 3078 
Q 3713 2572 3713 1747 
Q 3713 922 3314 415 
Q 2916 -91 2278 -91 
Q 1894 -91 1617 61 
Q 1341 213 1159 525 
z
M 3116 1747 
Q 3116 2381 2855 2742 
Q 2594 3103 2138 3103 
Q 1681 3103 1420 2742 
Q 1159 2381 1159 1747 
Q 1159 1113 1420 752 
Q 1681 391 2138 391 
Q 2594 391 2855 752 
Q 3116 1113 3116 1747 
z
" transform="scale(0.015625)"/>
       <path id="DejaVuSans-72" d="M 2631 2963 
Q 2534 3019 2420 3045 
Q 2306 3072 2169 3072 
Q 1681 3072 1420 2755 
Q 1159 2438 1159 1844 
L 1159 0 
L 581 0 
L 581 3500 
L 1159 3500 
L 1159 2956 
Q 1341 3275 1631 3429 
Q 1922 3584 2338 3584 
Q 2397 3584 2469 3576 
Q 2541 3569 2628 3553 
L 2631 2963 
z
" transform="scale(0.015625)"/>
       <path id="DejaVuSans-61" d="M 2194 1759 
Q 1497 1759 1228 1600 
Q 959 1441 959 1056 
Q 959 750 1161 570 
Q 1363 391 1709 391 
Q 2188 391 2477 730 
Q 2766 1069 2766 1631 
L 2766 1759 
L 2194 1759 
z
M 3341 1997 
L 3341 0 
L 2766 0 
L 2766 531 
Q 2569 213 2275 61 
Q 1981 -91 1556 -91 
Q 1019 -91 701 211 
Q 384 513 384 1019 
Q 384 1609 779 1909 
Q 1175 2209 1959 2209 
L 2766 2209 
L 2766 2266 
Q 2766 2663 2505 2880 
Q 2244 3097 1772 3097 
Q 1472 3097 1187 3025 
Q 903 2953 641 2809 
L 641 3341 
Q 956 3463 1253 3523 
Q 1550 3584 1831 3584 
Q 2591 3584 2966 3190 
Q 3341 2797 3341 1997 
z
" transform="scale(0.015625)"/>
       <path id="DejaVuSans-74" d="M 1172 4494 
L 1172 3500 
L 2356 3500 
L 2356 3053 
L 1172 3053 
L 1172 1153 
Q 1172 725 1289 603 
Q 1406 481 1766 481 
L 2356 481 
L 2356 0 
L 1766 0 
Q 1100 0 847 248 
Q 594 497 594 1153 
L 594 3053 
L 172 3053 
L 172 3500 
L 594 3500 
L 594 4494 
L 1172 4494 
z
" transform="scale(0.015625)"/>
       <path id="DejaVuSans-75" d="M 544 1381 
L 544 3500 
L 1119 3500 
L 1119 1403 
Q 1119 906 1312 657 
Q 1506 409 1894 409 
Q 2359 409 2629 706 
Q 2900 1003 2900 1516 
L 2900 3500 
L 3475 3500 
L 3475 0 
L 2900 0 
L 2900 538 
Q 2691 219 2414 64 
Q 2138 -91 1772 -91 
Q 1169 -91 856 284 
Q 544 659 544 1381 
z
M 1991 3584 
L 1991 3584 
z
" transform="scale(0.015625)"/>
       <path id="DejaVuSans-20" transform="scale(0.015625)"/>
       <path id="DejaVuSans-28" d="M 1984 4856 
Q 1566 4138 1362 3434 
Q 1159 2731 1159 2009 
Q 1159 1288 1364 580 
Q 1569 -128 1984 -844 
L 1484 -844 
Q 1016 -109 783 600 
Q 550 1309 550 2009 
Q 550 2706 781 3412 
Q 1013 4119 1484 4856 
L 1984 4856 
z
" transform="scale(0.015625)"/>
       <path id="DejaVuSans-2218" d="M 2000 2619 
Q 1750 2619 1578 2445 
Q 1406 2272 1406 2022 
Q 1406 1775 1578 1605 
Q 1750 1435 2000 1435 
Q 2250 1435 2422 1605 
Q 2594 1775 2594 2022 
Q 2594 2269 2420 2444 
Q 2247 2619 2000 2619 
z
M 2000 3022 
Q 2200 3022 2384 2945 
Q 2569 2869 2703 2725 
Q 2847 2585 2919 2406 
Q 2991 2228 2991 2022 
Q 2991 1610 2702 1324 
Q 2413 1038 1994 1038 
Q 1572 1038 1290 1319 
Q 1009 1600 1009 2022 
Q 1009 2441 1296 2731 
Q 1584 3022 2000 3022 
z
" transform="scale(0.015625)"/>
       <path id="DejaVuSans-Oblique-43" d="M 4447 4306 
L 4319 3641 
Q 4019 3944 3683 4091 
Q 3347 4238 2956 4238 
Q 2422 4238 2017 3981 
Q 1613 3725 1319 3200 
Q 1131 2863 1032 2486 
Q 934 2109 934 1728 
Q 934 1091 1264 756 
Q 1594 422 2222 422 
Q 2656 422 3056 561 
Q 3456 700 3834 978 
L 3688 231 
Q 3316 72 2936 -9 
Q 2556 -91 2175 -91 
Q 1278 -91 773 396 
Q 269 884 269 1753 
Q 269 2309 461 2846 
Q 653 3384 1013 3828 
Q 1394 4300 1883 4525 
Q 2372 4750 3022 4750 
Q 3422 4750 3780 4639 
Q 4138 4528 4447 4306 
z
" transform="scale(0.015625)"/>
       <path id="DejaVuSans-29" d="M 513 4856 
L 1013 4856 
Q 1481 4119 1714 3412 
Q 1947 2706 1947 2009 
Q 1947 1309 1714 600 
Q 1481 -109 1013 -844 
L 513 -844 
Q 928 -128 1133 580 
Q 1338 1288 1338 2009 
Q 1338 2731 1133 3434 
Q 928 4138 513 4856 
z
" transform="scale(0.015625)"/>
      </defs>
      <use xlink:href="#DejaVuSans-54" transform="translate(0 0.125)"/>
      <use xlink:href="#DejaVuSans-65" transform="translate(61.083984 0.125)"/>
      <use xlink:href="#DejaVuSans-6d" transform="translate(122.607422 0.125)"/>
      <use xlink:href="#DejaVuSans-70" transform="translate(220.019531 0.125)"/>
      <use xlink:href="#DejaVuSans-65" transform="translate(283.496094 0.125)"/>
      <use xlink:href="#DejaVuSans-72" transform="translate(345.019531 0.125)"/>
      <use xlink:href="#DejaVuSans-61" transform="translate(386.132812 0.125)"/>
      <use xlink:href="#DejaVuSans-74" transform="translate(447.412109 0.125)"/>
      <use xlink:href="#DejaVuSans-75" transform="translate(486.621094 0.125)"/>
      <use xlink:href="#DejaVuSans-72" transform="translate(550 0.125)"/>
      <use xlink:href="#DejaVuSans-65" transform="translate(591.113281 0.125)"/>
      <use xlink:href="#DejaVuSans-20" transform="translate(652.636719 0.125)"/>
      <use xlink:href="#DejaVuSans-28" transform="translate(684.423828 0.125)"/>
      <use xlink:href="#DejaVuSans-2218" transform="translate(724.394531 38.40625) scale(0.7)"/>
      <use xlink:href="#DejaVuSans-Oblique-43" transform="translate(770.947266 0.125)"/>
      <use xlink:href="#DejaVuSans-29" transform="translate(840.771484 0.125)"/>
     </g>
    </g>
   </g>
   <g id="matplotlib.axis_2">
    <g id="ytick_1">
     <g id="line2d_10">
      <defs>
       <path id="m5b51e08928" d="M 0 0 
L -3.5 0 
" style="stroke: #000000; stroke-width: 0.8"/>
      </defs>
      <g>
       <use xlink:href="#m5b51e08928" x="57.6" y="295.488" style="stroke: #000000; stroke-width: 0.8"/>
      </g>
     </g>
     <g id="text_11">
      <!-- 0.0 -->
      <g transform="translate(34.696875 299.287219) scale(0.1 -0.1)">
       <defs>
        <path id="DejaVuSans-2e" d="M 684 794 
L 1344 794 
L 1344 0 
L 684 0 
L 684 794 
z
" transform="scale(0.015625)"/>
       </defs>
       <use xlink:href="#DejaVuSans-30"/>
       <use xlink:href="#DejaVuSans-2e" transform="translate(63.623047 0)"/>
       <use xlink:href="#DejaVuSans-30" transform="translate(95.410156 0)"/>
      </g>
     </g>
    </g>
    <g id="ytick_2">
     <g id="line2d_11">
      <g>
       <use xlink:href="#m5b51e08928" x="57.6" y="263.287449" style="stroke: #000000; stroke-width: 0.8"/>
      </g>
     </g>
     <g id="text_12">
      <!-- 0.5 -->
      <g transform="translate(34.696875 267.086668) scale(0.1 -0.1)">
       <use xlink:href="#DejaVuSans-30"/>
       <use xlink:href="#DejaVuSans-2e" transform="translate(63.623047 0)"/>
       <use xlink:href="#DejaVuSans-35" transform="translate(95.410156 0)"/>
      </g>
     </g>
    </g>
    <g id="ytick_3">
     <g id="line2d_12">
      <g>
       <use xlink:href="#m5b51e08928" x="57.6" y="231.086899" style="stroke: #000000; stroke-width: 0.8"/>
      </g>
     </g>
     <g id="text_13">
      <!-- 1.0 -->
      <g transform="translate(34.696875 234.886117) scale(0.1 -0.1)">
       <use xlink:href="#DejaVuSans-31"/>
       <use xlink:href="#DejaVuSans-2e" transform="translate(63.623047 0)"/>
       <use xlink:href="#DejaVuSans-30" transform="translate(95.410156 0)"/>
      </g>
     </g>
    </g>
    <g id="ytick_4">
     <g id="line2d_13">
      <g>
       <use xlink:href="#m5b51e08928" x="57.6" y="198.886348" style="stroke: #000000; stroke-width: 0.8"/>
      </g>
     </g>
     <g id="text_14">
      <!-- 1.5 -->
      <g transform="translate(34.696875 202.685567) scale(0.1 -0.1)">
       <use xlink:href="#DejaVuSans-31"/>
       <use xlink:href="#DejaVuSans-2e" transform="translate(63.623047 0)"/>
       <use xlink:href="#DejaVuSans-35" transform="translate(95.410156 0)"/>
      </g>
     </g>
    </g>
    <g id="ytick_5">
     <g id="line2d_14">
      <g>
       <use xlink:href="#m5b51e08928" x="57.6" y="166.685797" style="stroke: #000000; stroke-width: 0.8"/>
      </g>
     </g>
     <g id="text_15">
      <!-- 2.0 -->
      <g transform="translate(34.696875 170.485016) scale(0.1 -0.1)">
       <use xlink:href="#DejaVuSans-32"/>
       <use xlink:href="#DejaVuSans-2e" transform="translate(63.623047 0)"/>
       <use xlink:href="#DejaVuSans-30" transform="translate(95.410156 0)"/>
      </g>
     </g>
    </g>
    <g id="ytick_6">
     <g id="line2d_15">
      <g>
       <use xlink:href="#m5b51e08928" x="57.6" y="134.485247" style="stroke: #000000; stroke-width: 0.8"/>
      </g>
     </g>
     <g id="text_16">
      <!-- 2.5 -->
      <g transform="translate(34.696875 138.284465) scale(0.1 -0.1)">
       <use xlink:href="#DejaVuSans-32"/>
       <use xlink:href="#DejaVuSans-2e" transform="translate(63.623047 0)"/>
       <use xlink:href="#DejaVuSans-35" transform="translate(95.410156 0)"/>
      </g>
     </g>
    </g>
    <g id="ytick_7">
     <g id="line2d_16">
      <g>
       <use xlink:href="#m5b51e08928" x="57.6" y="102.284696" style="stroke: #000000; stroke-width: 0.8"/>
      </g>
     </g>
     <g id="text_17">
      <!-- 3.0 -->
      <g transform="translate(34.696875 106.083915) scale(0.1 -0.1)">
       <use xlink:href="#DejaVuSans-33"/>
       <use xlink:href="#DejaVuSans-2e" transform="translate(63.623047 0)"/>
       <use xlink:href="#DejaVuSans-30" transform="translate(95.410156 0)"/>
      </g>
     </g>
    </g>
    <g id="ytick_8">
     <g id="line2d_17">
      <g>
       <use xlink:href="#m5b51e08928" x="57.6" y="70.084145" style="stroke: #000000; stroke-width: 0.8"/>
      </g>
     </g>
     <g id="text_18">
      <!-- 3.5 -->
      <g transform="translate(34.696875 73.883364) scale(0.1 -0.1)">
       <use xlink:href="#DejaVuSans-33"/>
       <use xlink:href="#DejaVuSans-2e" transform="translate(63.623047 0)"/>
       <use xlink:href="#DejaVuSans-35" transform="translate(95.410156 0)"/>
      </g>
     </g>
    </g>
    <g id="text_19">
     <!-- Intensity ($^{\circ}C^{-1}$) -->
     <g transform="translate(28.596875 213.328) rotate(-90) scale(0.1 -0.1)">
      <defs>
       <path id="DejaVuSans-49" d="M 628 4666 
L 1259 4666 
L 1259 0 
L 628 0 
L 628 4666 
z
" transform="scale(0.015625)"/>
       <path id="DejaVuSans-6e" d="M 3513 2113 
L 3513 0 
L 2938 0 
L 2938 2094 
Q 2938 2591 2744 2837 
Q 2550 3084 2163 3084 
Q 1697 3084 1428 2787 
Q 1159 2491 1159 1978 
L 1159 0 
L 581 0 
L 581 3500 
L 1159 3500 
L 1159 2956 
Q 1366 3272 1645 3428 
Q 1925 3584 2291 3584 
Q 2894 3584 3203 3211 
Q 3513 2838 3513 2113 
z
" transform="scale(0.015625)"/>
       <path id="DejaVuSans-73" d="M 2834 3397 
L 2834 2853 
Q 2591 2978 2328 3040 
Q 2066 3103 1784 3103 
Q 1356 3103 1142 2972 
Q 928 2841 928 2578 
Q 928 2378 1081 2264 
Q 1234 2150 1697 2047 
L 1894 2003 
Q 2506 1872 2764 1633 
Q 3022 1394 3022 966 
Q 3022 478 2636 193 
Q 2250 -91 1575 -91 
Q 1294 -91 989 -36 
Q 684 19 347 128 
L 347 722 
Q 666 556 975 473 
Q 1284 391 1588 391 
Q 1994 391 2212 530 
Q 2431 669 2431 922 
Q 2431 1156 2273 1281 
Q 2116 1406 1581 1522 
L 1381 1569 
Q 847 1681 609 1914 
Q 372 2147 372 2553 
Q 372 3047 722 3315 
Q 1072 3584 1716 3584 
Q 2034 3584 2315 3537 
Q 2597 3491 2834 3397 
z
" transform="scale(0.015625)"/>
       <path id="DejaVuSans-69" d="M 603 3500 
L 1178 3500 
L 1178 0 
L 603 0 
L 603 3500 
z
M 603 4863 
L 1178 4863 
L 1178 4134 
L 603 4134 
L 603 4863 
z
" transform="scale(0.015625)"/>
       <path id="DejaVuSans-79" d="M 2059 -325 
Q 1816 -950 1584 -1140 
Q 1353 -1331 966 -1331 
L 506 -1331 
L 506 -850 
L 844 -850 
Q 1081 -850 1212 -737 
Q 1344 -625 1503 -206 
L 1606 56 
L 191 3500 
L 800 3500 
L 1894 763 
L 2988 3500 
L 3597 3500 
L 2059 -325 
z
" transform="scale(0.015625)"/>
       <path id="DejaVuSans-2212" d="M 678 2272 
L 4684 2272 
L 4684 1741 
L 678 1741 
L 678 2272 
z
" transform="scale(0.015625)"/>
      </defs>
      <use xlink:href="#DejaVuSans-49" transform="translate(0 0.684375)"/>
      <use xlink:href="#DejaVuSans-6e" transform="translate(29.492188 0.684375)"/>
      <use xlink:href="#DejaVuSans-74" transform="translate(92.871094 0.684375)"/>
      <use xlink:href="#DejaVuSans-65" transform="translate(132.080078 0.684375)"/>
      <use xlink:href="#DejaVuSans-6e" transform="translate(193.603516 0.684375)"/>
      <use xlink:href="#DejaVuSans-73" transform="translate(256.982422 0.684375)"/>
      <use xlink:href="#DejaVuSans-69" transform="translate(309.082031 0.684375)"/>
      <use xlink:href="#DejaVuSans-74" transform="translate(336.865234 0.684375)"/>
      <use xlink:href="#DejaVuSans-79" transform="translate(376.074219 0.684375)"/>
      <use xlink:href="#DejaVuSans-20" transform="translate(435.253906 0.684375)"/>
      <use xlink:href="#DejaVuSans-28" transform="translate(467.041016 0.684375)"/>
      <use xlink:href="#DejaVuSans-2218" transform="translate(507.011719 38.965625) scale(0.7)"/>
      <use xlink:href="#DejaVuSans-Oblique-43" transform="translate(553.564453 0.684375)"/>
      <use xlink:href="#DejaVuSans-2212" transform="translate(630.589193 38.965625) scale(0.7)"/>
      <use xlink:href="#DejaVuSans-31" transform="translate(689.241536 38.965625) scale(0.7)"/>
      <use xlink:href="#DejaVuSans-29" transform="translate(736.512044 0.684375)"/>
     </g>
    </g>
    <g id="text_20">
     <!-- 1e7 -->
     <g transform="translate(57.6 38.472) scale(0.1 -0.1)">
      <use xlink:href="#DejaVuSans-31"/>
      <use xlink:href="#DejaVuSans-65" transform="translate(63.623047 0)"/>
      <use xlink:href="#DejaVuSans-37" transform="translate(125.146484 0)"/>
     </g>
    </g>
   </g>
   <g id="line2d_18">
    <path d="M 73.832727 295.488 
L 138.974688 295.377755 
L 144.007463 295.26723 
L 146.645611 295.192634 
L 152.571297 294.988025 
L 153.748317 294.944838 
L 161.541 294.643305 
L 163.448584 294.572728 
L 164.990886 294.508714 
L 166.208492 294.468524 
L 168.684293 294.378282 
L 172.012418 294.263271 
L 175.056435 294.162606 
L 176.355215 294.125434 
L 178.628081 294.054535 
L 179.155711 294.044675 
L 182.483836 293.958123 
L 192.143516 293.76585 
L 192.752319 293.762018 
L 196.689248 293.709998 
L 198.596832 293.694845 
L 199.976786 293.677869 
L 200.626176 293.673245 
L 203.913715 293.658461 
L 223.841878 293.707525 
L 225.221833 293.720077 
L 227.575872 293.737337 
L 326.120845 294.948683 
L 327.419626 294.958385 
L 331.15362 294.987491 
L 398.487273 295.309252 
L 398.487273 295.309252 
" clip-path="url(#pa6c5b0ce52)" style="fill: none; stroke-dasharray: 1.85,0.8; stroke-dashoffset: 0; stroke: #8000ff; stroke-width: 0.5"/>
   </g>
   <g id="line2d_19">
    <path d="M 73.832727 295.488 
L 138.032249 295.381426 
L 144.939793 295.137149 
L 149.40938 294.789387 
L 153.066315 294.341087 
L 157.535902 293.557503 
L 163.224467 292.245028 
L 172.569967 289.689212 
L 189.635663 285.110667 
L 194.511576 283.985674 
L 199.387489 283.035197 
L 203.45075 282.324872 
L 214.82788 280.903543 
L 229.45562 280.173891 
L 235.550511 280.176342 
L 246.521315 280.524272 
L 265.618641 281.862814 
L 293.248816 284.549553 
L 297.312076 284.959692 
L 318.847359 287.023651 
L 325.348577 287.604149 
L 338.757338 288.696224 
L 372.888729 290.939492 
L 380.608925 291.335375 
L 395.64299 292.031773 
L 398.487273 292.146433 
L 398.487273 292.146433 
" clip-path="url(#pa6c5b0ce52)" style="fill: none; stroke-dasharray: 1.85,0.8; stroke-dashoffset: 0; stroke: #00b5eb; stroke-width: 0.5"/>
   </g>
   <g id="line2d_20">
    <path d="M 73.832727 295.488 
L 137.130154 295.396782 
L 143.255712 295.211912 
L 147.339417 294.943341 
L 151.423122 294.441688 
L 153.464974 294.062958 
L 155.506827 293.563869 
L 157.548679 292.926391 
L 159.590532 292.117211 
L 161.632384 291.123602 
L 163.674237 289.930414 
L 165.716089 288.518851 
L 167.757942 286.922241 
L 169.799794 285.163299 
L 173.883499 281.191616 
L 177.967204 276.856069 
L 186.134614 267.666508 
L 192.260172 260.779023 
L 198.385729 254.286355 
L 202.469434 250.26175 
L 206.553139 246.527852 
L 210.636844 243.153279 
L 214.720549 240.107017 
L 218.804254 237.453089 
L 222.887959 235.152089 
L 224.929811 234.100442 
L 229.013516 232.344205 
L 233.097221 230.932555 
L 237.180926 229.864685 
L 239.222779 229.398501 
L 243.306484 228.815311 
L 245.348336 228.598327 
L 251.473894 228.373349 
L 255.557599 228.53335 
L 261.683156 229.189803 
L 267.808714 230.280497 
L 271.892419 231.179984 
L 275.976123 232.18791 
L 280.059828 233.359395 
L 288.227238 235.929836 
L 298.436501 239.527378 
L 310.687616 244.166717 
L 341.315403 255.671932 
L 353.566518 259.886601 
L 365.817633 263.7935 
L 380.1106 267.88591 
L 392.361715 271.041938 
L 398.487273 272.502635 
L 398.487273 272.502635 
" clip-path="url(#pa6c5b0ce52)" style="fill: none; stroke-dasharray: 1.85,0.8; stroke-dashoffset: 0; stroke: #80ffb4; stroke-width: 0.5"/>
   </g>
   <g id="line2d_21">
    <path d="M 73.832727 295.488 
L 77.942278 295.488 
L 82.05183 295.488 
L 86.161381 295.488 
L 90.270932 295.488 
L 94.380483 295.488 
L 98.490035 295.487997 
L 102.599586 295.487977 
L 106.709137 295.487907 
L 110.818688 295.487707 
L 114.928239 295.487247 
L 119.037791 295.485881 
L 123.147342 295.4825 
L 127.256893 295.474746 
L 131.366444 295.458514 
L 135.475995 295.421754 
L 139.585547 295.344202 
L 143.695098 295.188805 
L 147.804649 294.893111 
L 151.9142 294.33863 
L 156.023751 293.344293 
L 160.133303 291.638192 
L 164.242854 288.859877 
L 168.352405 284.691812 
L 172.461956 279.02637 
L 176.571507 272.145248 
L 180.681059 264.47659 
L 184.79061 256.26012 
L 188.900161 247.7503 
L 193.009712 239.285764 
L 197.119264 230.850569 
L 201.228815 222.740532 
L 205.338366 215.1605 
L 209.447917 207.860207 
L 213.557468 201.23181 
L 217.66702 195.307469 
L 221.776571 189.872648 
L 225.886122 185.065018 
L 229.995673 180.938875 
L 234.105224 177.454364 
L 238.214776 174.595615 
L 242.324327 172.347382 
L 246.433878 170.594777 
L 250.543429 169.395126 
L 254.65298 168.744736 
L 258.762532 168.518897 
L 262.872083 168.75031 
L 266.981634 169.294145 
L 271.091185 170.191954 
L 275.200736 171.408765 
L 279.310288 173.000796 
L 283.419839 174.758868 
L 287.52939 176.716021 
L 291.638941 178.859943 
L 295.748493 181.182105 
L 299.858044 183.610278 
L 303.967595 186.128474 
L 308.077146 188.796901 
L 312.186697 191.511949 
L 316.296249 194.255075 
L 320.4058 197.046257 
L 324.515351 199.823213 
L 328.624902 202.651707 
L 332.734453 205.459234 
L 336.844005 208.19791 
L 340.953556 210.94869 
L 345.063107 213.702027 
L 349.172658 216.360473 
L 353.282209 219.018496 
L 357.391761 221.607382 
L 361.501312 224.125317 
L 365.610863 226.599337 
L 369.720414 229.029036 
L 373.829965 231.388151 
L 377.939517 233.689672 
L 382.049068 235.907221 
L 386.158619 238.06621 
L 390.26817 240.178573 
L 394.377722 242.185327 
L 398.487273 244.176168 
" clip-path="url(#pa6c5b0ce52)" style="fill: none; stroke-dasharray: 1.85,0.8; stroke-dashoffset: 0; stroke: #ffb360; stroke-width: 0.5"/>
   </g>
   <g id="line2d_22">
    <path d="M 73.832727 295.488 
L 82.157203 295.488 
L 90.481678 295.488 
L 98.806154 295.487997 
L 107.130629 295.4879 
L 115.455105 295.487114 
L 123.77958 295.481834 
L 132.104056 295.453088 
L 140.428531 295.320126 
L 148.753007 294.793457 
L 157.077483 292.938901 
L 165.401958 287.275952 
L 173.726434 273.080477 
L 182.050909 248.646097 
L 190.375385 218.565087 
L 198.69986 186.767542 
L 207.024336 155.889503 
L 215.348811 129.091365 
L 223.673287 104.609988 
L 231.997762 86.356665 
L 240.322238 71.973487 
L 248.646713 61.781565 
L 256.971189 55.740136 
L 265.295664 53.568 
L 273.62014 55.000673 
L 281.944615 57.791656 
L 290.269091 63.440666 
L 298.593566 70.372273 
L 306.918042 79.060719 
L 315.242517 87.767963 
L 323.566993 97.55127 
L 331.891469 107.935432 
L 340.215944 117.878022 
L 348.54042 127.959683 
L 356.864895 137.878286 
L 365.189371 147.563578 
L 373.513846 156.917838 
L 381.838322 165.856659 
L 390.162797 174.321881 
L 398.487273 182.404535 
" clip-path="url(#pa6c5b0ce52)" style="fill: none; stroke-dasharray: 1.85,0.8; stroke-dashoffset: 0; stroke: #ff0000; stroke-width: 0.5"/>
   </g>
   <g id="patch_3">
    <path d="M 57.6 307.584 
L 57.6 41.472 
" style="fill: none; stroke: #000000; stroke-width: 0.8; stroke-linejoin: miter; stroke-linecap: square"/>
   </g>
   <g id="patch_4">
    <path d="M 414.72 307.584 
L 414.72 41.472 
" style="fill: none; stroke: #000000; stroke-width: 0.8; stroke-linejoin: miter; stroke-linecap: square"/>
   </g>
   <g id="patch_5">
    <path d="M 57.6 307.584 
L 414.72 307.584 
" style="fill: none; stroke: #000000; stroke-width: 0.8; stroke-linejoin: miter; stroke-linecap: square"/>
   </g>
   <g id="patch_6">
    <path d="M 57.6 41.472 
L 414.72 41.472 
" style="fill: none; stroke: #000000; stroke-width: 0.8; stroke-linejoin: miter; stroke-linecap: square"/>
   </g>
   <g id="legend_1">
    <g id="patch_7">
     <path d="M 243.16 152.0832 
L 483.36 152.0832 
Q 485.36 152.0832 485.36 150.0832 
L 485.36 75.0832 
Q 485.36 73.0832 483.36 73.0832 
L 243.16 73.0832 
Q 241.16 73.0832 241.16 75.0832 
L 241.16 150.0832 
Q 241.16 152.0832 243.16 152.0832 
z
" style="fill: #ffffff; opacity: 0.8; stroke: #cccccc; stroke-linejoin: miter"/>
    </g>
    <g id="line2d_23">
     <path d="M 245.16 81.3832 
L 255.16 81.3832 
L 265.16 81.3832 
" style="fill: none; stroke-dasharray: 1.85,0.8; stroke-dashoffset: 0; stroke: #8000ff; stroke-width: 0.5"/>
    </g>
    <g id="text_21">
     <!-- $\rho'$: 3e-04, E=1e+00eV, s_tun=1e+12$s^-1$ -->
     <g transform="translate(273.16 84.8832) scale(0.1 -0.1)">
      <defs>
       <path id="DejaVuSans-Oblique-3c1" d="M 1203 2875 
Q 1453 3194 1981 3475 
Q 2188 3584 2756 3584 
Q 3394 3584 3694 3078 
Q 3994 2572 3834 1747 
Q 3672 922 3175 415 
Q 2678 -91 2041 -91 
Q 1656 -91 1409 63 
Q 1163 213 1044 525 
L 681 -1331 
L 103 -1331 
L 697 1716 
Q 838 2438 1203 2875 
z
M 3238 1747 
Q 3359 2381 3169 2744 
Q 2978 3103 2522 3103 
Q 2066 3103 1734 2744 
Q 1403 2381 1281 1747 
Q 1156 1113 1347 750 
Q 1538 391 1994 391 
Q 2450 391 2781 750 
Q 3113 1113 3238 1747 
z
" transform="scale(0.015625)"/>
       <path id="Cmsy10-30" d="M 225 347 
Q 184 359 184 409 
L 966 3316 
Q 1003 3434 1093 3506 
Q 1184 3578 1300 3578 
Q 1450 3578 1564 3479 
Q 1678 3381 1678 3231 
Q 1678 3166 1644 3084 
L 488 319 
Q 466 275 428 275 
Q 394 275 320 306 
Q 247 338 225 347 
z
" transform="scale(0.015625)"/>
       <path id="DejaVuSans-3a" d="M 750 794 
L 1409 794 
L 1409 0 
L 750 0 
L 750 794 
z
M 750 3309 
L 1409 3309 
L 1409 2516 
L 750 2516 
L 750 3309 
z
" transform="scale(0.015625)"/>
       <path id="DejaVuSans-2d" d="M 313 2009 
L 1997 2009 
L 1997 1497 
L 313 1497 
L 313 2009 
z
" transform="scale(0.015625)"/>
       <path id="DejaVuSans-2c" d="M 750 794 
L 1409 794 
L 1409 256 
L 897 -744 
L 494 -744 
L 750 256 
L 750 794 
z
" transform="scale(0.015625)"/>
       <path id="DejaVuSans-45" d="M 628 4666 
L 3578 4666 
L 3578 4134 
L 1259 4134 
L 1259 2753 
L 3481 2753 
L 3481 2222 
L 1259 2222 
L 1259 531 
L 3634 531 
L 3634 0 
L 628 0 
L 628 4666 
z
" transform="scale(0.015625)"/>
       <path id="DejaVuSans-3d" d="M 678 2906 
L 4684 2906 
L 4684 2381 
L 678 2381 
L 678 2906 
z
M 678 1631 
L 4684 1631 
L 4684 1100 
L 678 1100 
L 678 1631 
z
" transform="scale(0.015625)"/>
       <path id="DejaVuSans-2b" d="M 2944 4013 
L 2944 2272 
L 4684 2272 
L 4684 1741 
L 2944 1741 
L 2944 0 
L 2419 0 
L 2419 1741 
L 678 1741 
L 678 2272 
L 2419 2272 
L 2419 4013 
L 2944 4013 
z
" transform="scale(0.015625)"/>
       <path id="DejaVuSans-56" d="M 1831 0 
L 50 4666 
L 709 4666 
L 2188 738 
L 3669 4666 
L 4325 4666 
L 2547 0 
L 1831 0 
z
" transform="scale(0.015625)"/>
       <path id="DejaVuSans-5f" d="M 3263 -1063 
L 3263 -1509 
L -63 -1509 
L -63 -1063 
L 3263 -1063 
z
" transform="scale(0.015625)"/>
       <path id="DejaVuSans-Oblique-73" d="M 3200 3397 
L 3091 2853 
Q 2863 2978 2609 3040 
Q 2356 3103 2088 3103 
Q 1634 3103 1373 2948 
Q 1113 2794 1113 2528 
Q 1113 2219 1719 2053 
Q 1766 2041 1788 2034 
L 1972 1978 
Q 2547 1819 2739 1644 
Q 2931 1469 2931 1166 
Q 2931 609 2489 259 
Q 2047 -91 1331 -91 
Q 1053 -91 747 -37 
Q 441 16 72 128 
L 184 722 
Q 500 559 806 475 
Q 1113 391 1394 391 
Q 1816 391 2080 572 
Q 2344 753 2344 1031 
Q 2344 1331 1650 1516 
L 1591 1531 
L 1394 1581 
Q 956 1697 753 1886 
Q 550 2075 550 2369 
Q 550 2928 970 3256 
Q 1391 3584 2113 3584 
Q 2397 3584 2667 3537 
Q 2938 3491 3200 3397 
z
" transform="scale(0.015625)"/>
      </defs>
      <use xlink:href="#DejaVuSans-Oblique-3c1" transform="translate(0 0.584375)"/>
      <use xlink:href="#Cmsy10-30" transform="translate(68.126458 38.865625) scale(0.7)"/>
      <use xlink:href="#DejaVuSans-3a" transform="translate(90.103997 0.584375)"/>
      <use xlink:href="#DejaVuSans-20" transform="translate(123.795404 0.584375)"/>
      <use xlink:href="#DejaVuSans-33" transform="translate(155.582513 0.584375)"/>
      <use xlink:href="#DejaVuSans-65" transform="translate(219.20556 0.584375)"/>
      <use xlink:href="#DejaVuSans-2d" transform="translate(280.728997 0.584375)"/>
      <use xlink:href="#DejaVuSans-30" transform="translate(316.812982 0.584375)"/>
      <use xlink:href="#DejaVuSans-34" transform="translate(380.436029 0.584375)"/>
      <use xlink:href="#DejaVuSans-2c" transform="translate(444.059076 0.584375)"/>
      <use xlink:href="#DejaVuSans-20" transform="translate(475.846185 0.584375)"/>
      <use xlink:href="#DejaVuSans-45" transform="translate(507.633294 0.584375)"/>
      <use xlink:href="#DejaVuSans-3d" transform="translate(570.816888 0.584375)"/>
      <use xlink:href="#DejaVuSans-31" transform="translate(654.605951 0.584375)"/>
      <use xlink:href="#DejaVuSans-65" transform="translate(718.228997 0.584375)"/>
      <use xlink:href="#DejaVuSans-2b" transform="translate(779.752435 0.584375)"/>
      <use xlink:href="#DejaVuSans-30" transform="translate(863.541497 0.584375)"/>
      <use xlink:href="#DejaVuSans-30" transform="translate(927.164544 0.584375)"/>
      <use xlink:href="#DejaVuSans-65" transform="translate(990.787591 0.584375)"/>
      <use xlink:href="#DejaVuSans-56" transform="translate(1052.311029 0.584375)"/>
      <use xlink:href="#DejaVuSans-2c" transform="translate(1120.719232 0.584375)"/>
      <use xlink:href="#DejaVuSans-20" transform="translate(1152.506341 0.584375)"/>
      <use xlink:href="#DejaVuSans-73" transform="translate(1184.293451 0.584375)"/>
      <use xlink:href="#DejaVuSans-5f" transform="translate(1236.39306 0.584375)"/>
      <use xlink:href="#DejaVuSans-74" transform="translate(1286.39306 0.584375)"/>
      <use xlink:href="#DejaVuSans-75" transform="translate(1325.602044 0.584375)"/>
      <use xlink:href="#DejaVuSans-6e" transform="translate(1388.980951 0.584375)"/>
      <use xlink:href="#DejaVuSans-3d" transform="translate(1452.359857 0.584375)"/>
      <use xlink:href="#DejaVuSans-31" transform="translate(1536.148919 0.584375)"/>
      <use xlink:href="#DejaVuSans-65" transform="translate(1599.771966 0.584375)"/>
      <use xlink:href="#DejaVuSans-2b" transform="translate(1661.295404 0.584375)"/>
      <use xlink:href="#DejaVuSans-31" transform="translate(1745.084466 0.584375)"/>
      <use xlink:href="#DejaVuSans-32" transform="translate(1808.707513 0.584375)"/>
      <use xlink:href="#DejaVuSans-Oblique-73" transform="translate(1872.33056 0.584375)"/>
      <use xlink:href="#DejaVuSans-2212" transform="translate(1942.71776 38.865625) scale(0.7)"/>
      <use xlink:href="#DejaVuSans-31" transform="translate(2017.742174 0.584375)"/>
     </g>
    </g>
    <g id="line2d_24">
     <path d="M 245.16 96.5832 
L 255.16 96.5832 
L 265.16 96.5832 
" style="fill: none; stroke-dasharray: 1.85,0.8; stroke-dashoffset: 0; stroke: #00b5eb; stroke-width: 0.5"/>
    </g>
    <g id="text_22">
     <!-- $\rho'$: 3e-04, E=1e+00eV, s_tun=1e+12$s^-1$ -->
     <g transform="translate(273.16 100.0832) scale(0.1 -0.1)">
      <use xlink:href="#DejaVuSans-Oblique-3c1" transform="translate(0 0.584375)"/>
      <use xlink:href="#Cmsy10-30" transform="translate(68.126458 38.865625) scale(0.7)"/>
      <use xlink:href="#DejaVuSans-3a" transform="translate(90.103997 0.584375)"/>
      <use xlink:href="#DejaVuSans-20" transform="translate(123.795404 0.584375)"/>
      <use xlink:href="#DejaVuSans-33" transform="translate(155.582513 0.584375)"/>
      <use xlink:href="#DejaVuSans-65" transform="translate(219.20556 0.584375)"/>
      <use xlink:href="#DejaVuSans-2d" transform="translate(280.728997 0.584375)"/>
      <use xlink:href="#DejaVuSans-30" transform="translate(316.812982 0.584375)"/>
      <use xlink:href="#DejaVuSans-34" transform="translate(380.436029 0.584375)"/>
      <use xlink:href="#DejaVuSans-2c" transform="translate(444.059076 0.584375)"/>
      <use xlink:href="#DejaVuSans-20" transform="translate(475.846185 0.584375)"/>
      <use xlink:href="#DejaVuSans-45" transform="translate(507.633294 0.584375)"/>
      <use xlink:href="#DejaVuSans-3d" transform="translate(570.816888 0.584375)"/>
      <use xlink:href="#DejaVuSans-31" transform="translate(654.605951 0.584375)"/>
      <use xlink:href="#DejaVuSans-65" transform="translate(718.228997 0.584375)"/>
      <use xlink:href="#DejaVuSans-2b" transform="translate(779.752435 0.584375)"/>
      <use xlink:href="#DejaVuSans-30" transform="translate(863.541497 0.584375)"/>
      <use xlink:href="#DejaVuSans-30" transform="translate(927.164544 0.584375)"/>
      <use xlink:href="#DejaVuSans-65" transform="translate(990.787591 0.584375)"/>
      <use xlink:href="#DejaVuSans-56" transform="translate(1052.311029 0.584375)"/>
      <use xlink:href="#DejaVuSans-2c" transform="translate(1120.719232 0.584375)"/>
      <use xlink:href="#DejaVuSans-20" transform="translate(1152.506341 0.584375)"/>
      <use xlink:href="#DejaVuSans-73" transform="translate(1184.293451 0.584375)"/>
      <use xlink:href="#DejaVuSans-5f" transform="translate(1236.39306 0.584375)"/>
      <use xlink:href="#DejaVuSans-74" transform="translate(1286.39306 0.584375)"/>
      <use xlink:href="#DejaVuSans-75" transform="translate(1325.602044 0.584375)"/>
      <use xlink:href="#DejaVuSans-6e" transform="translate(1388.980951 0.584375)"/>
      <use xlink:href="#DejaVuSans-3d" transform="translate(1452.359857 0.584375)"/>
      <use xlink:href="#DejaVuSans-31" transform="translate(1536.148919 0.584375)"/>
      <use xlink:href="#DejaVuSans-65" transform="translate(1599.771966 0.584375)"/>
      <use xlink:href="#DejaVuSans-2b" transform="translate(1661.295404 0.584375)"/>
      <use xlink:href="#DejaVuSans-31" transform="translate(1745.084466 0.584375)"/>
      <use xlink:href="#DejaVuSans-32" transform="translate(1808.707513 0.584375)"/>
      <use xlink:href="#DejaVuSans-Oblique-73" transform="translate(1872.33056 0.584375)"/>
      <use xlink:href="#DejaVuSans-2212" transform="translate(1942.71776 38.865625) scale(0.7)"/>
      <use xlink:href="#DejaVuSans-31" transform="translate(2017.742174 0.584375)"/>
     </g>
    </g>
    <g id="line2d_25">
     <path d="M 245.16 111.7832 
L 255.16 111.7832 
L 265.16 111.7832 
" style="fill: none; stroke-dasharray: 1.85,0.8; stroke-dashoffset: 0; stroke: #80ffb4; stroke-width: 0.5"/>
    </g>
    <g id="text_23">
     <!-- $\rho'$: 3e-04, E=1e+00eV, s_tun=1e+12$s^-1$ -->
     <g transform="translate(273.16 115.2832) scale(0.1 -0.1)">
      <use xlink:href="#DejaVuSans-Oblique-3c1" transform="translate(0 0.584375)"/>
      <use xlink:href="#Cmsy10-30" transform="translate(68.126458 38.865625) scale(0.7)"/>
      <use xlink:href="#DejaVuSans-3a" transform="translate(90.103997 0.584375)"/>
      <use xlink:href="#DejaVuSans-20" transform="translate(123.795404 0.584375)"/>
      <use xlink:href="#DejaVuSans-33" transform="translate(155.582513 0.584375)"/>
      <use xlink:href="#DejaVuSans-65" transform="translate(219.20556 0.584375)"/>
      <use xlink:href="#DejaVuSans-2d" transform="translate(280.728997 0.584375)"/>
      <use xlink:href="#DejaVuSans-30" transform="translate(316.812982 0.584375)"/>
      <use xlink:href="#DejaVuSans-34" transform="translate(380.436029 0.584375)"/>
      <use xlink:href="#DejaVuSans-2c" transform="translate(444.059076 0.584375)"/>
      <use xlink:href="#DejaVuSans-20" transform="translate(475.846185 0.584375)"/>
      <use xlink:href="#DejaVuSans-45" transform="translate(507.633294 0.584375)"/>
      <use xlink:href="#DejaVuSans-3d" transform="translate(570.816888 0.584375)"/>
      <use xlink:href="#DejaVuSans-31" transform="translate(654.605951 0.584375)"/>
      <use xlink:href="#DejaVuSans-65" transform="translate(718.228997 0.584375)"/>
      <use xlink:href="#DejaVuSans-2b" transform="translate(779.752435 0.584375)"/>
      <use xlink:href="#DejaVuSans-30" transform="translate(863.541497 0.584375)"/>
      <use xlink:href="#DejaVuSans-30" transform="translate(927.164544 0.584375)"/>
      <use xlink:href="#DejaVuSans-65" transform="translate(990.787591 0.584375)"/>
      <use xlink:href="#DejaVuSans-56" transform="translate(1052.311029 0.584375)"/>
      <use xlink:href="#DejaVuSans-2c" transform="translate(1120.719232 0.584375)"/>
      <use xlink:href="#DejaVuSans-20" transform="translate(1152.506341 0.584375)"/>
      <use xlink:href="#DejaVuSans-73" transform="translate(1184.293451 0.584375)"/>
      <use xlink:href="#DejaVuSans-5f" transform="translate(1236.39306 0.584375)"/>
      <use xlink:href="#DejaVuSans-74" transform="translate(1286.39306 0.584375)"/>
      <use xlink:href="#DejaVuSans-75" transform="translate(1325.602044 0.584375)"/>
      <use xlink:href="#DejaVuSans-6e" transform="translate(1388.980951 0.584375)"/>
      <use xlink:href="#DejaVuSans-3d" transform="translate(1452.359857 0.584375)"/>
      <use xlink:href="#DejaVuSans-31" transform="translate(1536.148919 0.584375)"/>
      <use xlink:href="#DejaVuSans-65" transform="translate(1599.771966 0.584375)"/>
      <use xlink:href="#DejaVuSans-2b" transform="translate(1661.295404 0.584375)"/>
      <use xlink:href="#DejaVuSans-31" transform="translate(1745.084466 0.584375)"/>
      <use xlink:href="#DejaVuSans-32" transform="translate(1808.707513 0.584375)"/>
      <use xlink:href="#DejaVuSans-Oblique-73" transform="translate(1872.33056 0.584375)"/>
      <use xlink:href="#DejaVuSans-2212" transform="translate(1942.71776 38.865625) scale(0.7)"/>
      <use xlink:href="#DejaVuSans-31" transform="translate(2017.742174 0.584375)"/>
     </g>
    </g>
    <g id="line2d_26">
     <path d="M 245.16 126.9832 
L 255.16 126.9832 
L 265.16 126.9832 
" style="fill: none; stroke-dasharray: 1.85,0.8; stroke-dashoffset: 0; stroke: #ffb360; stroke-width: 0.5"/>
    </g>
    <g id="text_24">
     <!-- $\rho'$: 3e-04, E=1e+00eV, s_tun=1e+12$s^-1$ -->
     <g transform="translate(273.16 130.4832) scale(0.1 -0.1)">
      <use xlink:href="#DejaVuSans-Oblique-3c1" transform="translate(0 0.584375)"/>
      <use xlink:href="#Cmsy10-30" transform="translate(68.126458 38.865625) scale(0.7)"/>
      <use xlink:href="#DejaVuSans-3a" transform="translate(90.103997 0.584375)"/>
      <use xlink:href="#DejaVuSans-20" transform="translate(123.795404 0.584375)"/>
      <use xlink:href="#DejaVuSans-33" transform="translate(155.582513 0.584375)"/>
      <use xlink:href="#DejaVuSans-65" transform="translate(219.20556 0.584375)"/>
      <use xlink:href="#DejaVuSans-2d" transform="translate(280.728997 0.584375)"/>
      <use xlink:href="#DejaVuSans-30" transform="translate(316.812982 0.584375)"/>
      <use xlink:href="#DejaVuSans-34" transform="translate(380.436029 0.584375)"/>
      <use xlink:href="#DejaVuSans-2c" transform="translate(444.059076 0.584375)"/>
      <use xlink:href="#DejaVuSans-20" transform="translate(475.846185 0.584375)"/>
      <use xlink:href="#DejaVuSans-45" transform="translate(507.633294 0.584375)"/>
      <use xlink:href="#DejaVuSans-3d" transform="translate(570.816888 0.584375)"/>
      <use xlink:href="#DejaVuSans-31" transform="translate(654.605951 0.584375)"/>
      <use xlink:href="#DejaVuSans-65" transform="translate(718.228997 0.584375)"/>
      <use xlink:href="#DejaVuSans-2b" transform="translate(779.752435 0.584375)"/>
      <use xlink:href="#DejaVuSans-30" transform="translate(863.541497 0.584375)"/>
      <use xlink:href="#DejaVuSans-30" transform="translate(927.164544 0.584375)"/>
      <use xlink:href="#DejaVuSans-65" transform="translate(990.787591 0.584375)"/>
      <use xlink:href="#DejaVuSans-56" transform="translate(1052.311029 0.584375)"/>
      <use xlink:href="#DejaVuSans-2c" transform="translate(1120.719232 0.584375)"/>
      <use xlink:href="#DejaVuSans-20" transform="translate(1152.506341 0.584375)"/>
      <use xlink:href="#DejaVuSans-73" transform="translate(1184.293451 0.584375)"/>
      <use xlink:href="#DejaVuSans-5f" transform="translate(1236.39306 0.584375)"/>
      <use xlink:href="#DejaVuSans-74" transform="translate(1286.39306 0.584375)"/>
      <use xlink:href="#DejaVuSans-75" transform="translate(1325.602044 0.584375)"/>
      <use xlink:href="#DejaVuSans-6e" transform="translate(1388.980951 0.584375)"/>
      <use xlink:href="#DejaVuSans-3d" transform="translate(1452.359857 0.584375)"/>
      <use xlink:href="#DejaVuSans-31" transform="translate(1536.148919 0.584375)"/>
      <use xlink:href="#DejaVuSans-65" transform="translate(1599.771966 0.584375)"/>
      <use xlink:href="#DejaVuSans-2b" transform="translate(1661.295404 0.584375)"/>
      <use xlink:href="#DejaVuSans-31" transform="translate(1745.084466 0.584375)"/>
      <use xlink:href="#DejaVuSans-32" transform="translate(1808.707513 0.584375)"/>
      <use xlink:href="#DejaVuSans-Oblique-73" transform="translate(1872.33056 0.584375)"/>
      <use xlink:href="#DejaVuSans-2212" transform="translate(1942.71776 38.865625) scale(0.7)"/>
      <use xlink:href="#DejaVuSans-31" transform="translate(2017.742174 0.584375)"/>
     </g>
    </g>
    <g id="line2d_27">
     <path d="M 245.16 142.1832 
L 255.16 142.1832 
L 265.16 142.1832 
" style="fill: none; stroke-dasharray: 1.85,0.8; stroke-dashoffset: 0; stroke: #ff0000; stroke-width: 0.5"/>
    </g>
    <g id="text_25">
     <!-- $\rho'$: 3e-04, E=1e+00eV, s_tun=1e+12$s^-1$ -->
     <g transform="translate(273.16 145.6832) scale(0.1 -0.1)">
      <use xlink:href="#DejaVuSans-Oblique-3c1" transform="translate(0 0.584375)"/>
      <use xlink:href="#Cmsy10-30" transform="translate(68.126458 38.865625) scale(0.7)"/>
      <use xlink:href="#DejaVuSans-3a" transform="translate(90.103997 0.584375)"/>
      <use xlink:href="#DejaVuSans-20" transform="translate(123.795404 0.584375)"/>
      <use xlink:href="#DejaVuSans-33" transform="translate(155.582513 0.584375)"/>
      <use xlink:href="#DejaVuSans-65" transform="translate(219.20556 0.584375)"/>
      <use xlink:href="#DejaVuSans-2d" transform="translate(280.728997 0.584375)"/>
      <use xlink:href="#DejaVuSans-30" transform="translate(316.812982 0.584375)"/>
      <use xlink:href="#DejaVuSans-34" transform="translate(380.436029 0.584375)"/>
      <use xlink:href="#DejaVuSans-2c" transform="translate(444.059076 0.584375)"/>
      <use xlink:href="#DejaVuSans-20" transform="translate(475.846185 0.584375)"/>
      <use xlink:href="#DejaVuSans-45" transform="translate(507.633294 0.584375)"/>
      <use xlink:href="#DejaVuSans-3d" transform="translate(570.816888 0.584375)"/>
      <use xlink:href="#DejaVuSans-31" transform="translate(654.605951 0.584375)"/>
      <use xlink:href="#DejaVuSans-65" transform="translate(718.228997 0.584375)"/>
      <use xlink:href="#DejaVuSans-2b" transform="translate(779.752435 0.584375)"/>
      <use xlink:href="#DejaVuSans-30" transform="translate(863.541497 0.584375)"/>
      <use xlink:href="#DejaVuSans-30" transform="translate(927.164544 0.584375)"/>
      <use xlink:href="#DejaVuSans-65" transform="translate(990.787591 0.584375)"/>
      <use xlink:href="#DejaVuSans-56" transform="translate(1052.311029 0.584375)"/>
      <use xlink:href="#DejaVuSans-2c" transform="translate(1120.719232 0.584375)"/>
      <use xlink:href="#DejaVuSans-20" transform="translate(1152.506341 0.584375)"/>
      <use xlink:href="#DejaVuSans-73" transform="translate(1184.293451 0.584375)"/>
      <use xlink:href="#DejaVuSans-5f" transform="translate(1236.39306 0.584375)"/>
      <use xlink:href="#DejaVuSans-74" transform="translate(1286.39306 0.584375)"/>
      <use xlink:href="#DejaVuSans-75" transform="translate(1325.602044 0.584375)"/>
      <use xlink:href="#DejaVuSans-6e" transform="translate(1388.980951 0.584375)"/>
      <use xlink:href="#DejaVuSans-3d" transform="translate(1452.359857 0.584375)"/>
      <use xlink:href="#DejaVuSans-31" transform="translate(1536.148919 0.584375)"/>
      <use xlink:href="#DejaVuSans-65" transform="translate(1599.771966 0.584375)"/>
      <use xlink:href="#DejaVuSans-2b" transform="translate(1661.295404 0.584375)"/>
      <use xlink:href="#DejaVuSans-31" transform="translate(1745.084466 0.584375)"/>
      <use xlink:href="#DejaVuSans-32" transform="translate(1808.707513 0.584375)"/>
      <use xlink:href="#DejaVuSans-Oblique-73" transform="translate(1872.33056 0.584375)"/>
      <use xlink:href="#DejaVuSans-2212" transform="translate(1942.71776 38.865625) scale(0.7)"/>
      <use xlink:href="#DejaVuSans-31" transform="translate(2017.742174 0.584375)"/>
     </g>
    </g>
   </g>
  </g>
 </g>
 <defs>
  <clipPath id="pa6c5b0ce52">
   <rect x="57.6" y="41.472" width="357.12" height="266.112"/>
  </clipPath>
 </defs>
</svg>
