<?xml version="1.0" encoding="utf-8" standalone="no"?>
<!DOCTYPE svg PUBLIC "-//W3C//DTD SVG 1.1//EN"
  "http://www.w3.org/Graphics/SVG/1.1/DTD/svg11.dtd">
<svg xmlns:xlink="http://www.w3.org/1999/xlink" width="460.8pt" height="345.6pt" viewBox="0 0 460.8 345.6" xmlns="http://www.w3.org/2000/svg" version="1.1">
 <metadata>
  <rdf:RDF xmlns:dc="http://purl.org/dc/elements/1.1/" xmlns:cc="http://creativecommons.org/ns#" xmlns:rdf="http://www.w3.org/1999/02/22-rdf-syntax-ns#">
   <cc:Work>
    <dc:type rdf:resource="http://purl.org/dc/dcmitype/StillImage"/>
    <dc:date>2025-03-26T13:30:20.773871</dc:date>
    <dc:format>image/svg+xml</dc:format>
    <dc:creator>
     <cc:Agent>
      <dc:title>Matplotlib v3.10.0, https://matplotlib.org/</dc:title>
     </cc:Agent>
    </dc:creator>
   </cc:Work>
  </rdf:RDF>
 </metadata>
 <defs>
  <style type="text/css">*{stroke-linejoin: round; stroke-linecap: butt}</style>
 </defs>
 <g id="figure_1">
  <g id="patch_1">
   <path d="M 0 345.6 
L 460.8 345.6 
L 460.8 0 
L 0 0 
z
" style="fill: #ffffff"/>
  </g>
  <g id="axes_1">
   <g id="patch_2">
    <path d="M 57.6 307.584 
L 414.72 307.584 
L 414.72 41.472 
L 57.6 41.472 
z
" style="fill: #ffffff"/>
   </g>
   <g id="matplotlib.axis_1">
    <g id="xtick_1">
     <g id="line2d_1">
      <path d="M 146.88 307.584 
L 146.88 41.472 
" clip-path="url(#p83f0421dcb)" style="fill: none; stroke: #b0b0b0; stroke-width: 0.8; stroke-linecap: square"/>
     </g>
     <g id="line2d_2">
      <defs>
       <path id="m476abf669d" d="M 0 0 
L 0 3.5 
" style="stroke: #000000; stroke-width: 0.8"/>
      </defs>
      <g>
       <use xlink:href="#m476abf669d" x="146.88" y="307.584" style="stroke: #000000; stroke-width: 0.8"/>
      </g>
     </g>
     <g id="text_1">
      <!-- 100 -->
      <g transform="translate(137.33625 322.182437) scale(0.1 -0.1)">
       <defs>
        <path id="DejaVuSans-31" d="M 794 531 
L 1825 531 
L 1825 4091 
L 703 3866 
L 703 4441 
L 1819 4666 
L 2450 4666 
L 2450 531 
L 3481 531 
L 3481 0 
L 794 0 
L 794 531 
z
" transform="scale(0.015625)"/>
        <path id="DejaVuSans-30" d="M 2034 4250 
Q 1547 4250 1301 3770 
Q 1056 3291 1056 2328 
Q 1056 1369 1301 889 
Q 1547 409 2034 409 
Q 2525 409 2770 889 
Q 3016 1369 3016 2328 
Q 3016 3291 2770 3770 
Q 2525 4250 2034 4250 
z
M 2034 4750 
Q 2819 4750 3233 4129 
Q 3647 3509 3647 2328 
Q 3647 1150 3233 529 
Q 2819 -91 2034 -91 
Q 1250 -91 836 529 
Q 422 1150 422 2328 
Q 422 3509 836 4129 
Q 1250 4750 2034 4750 
z
" transform="scale(0.015625)"/>
       </defs>
       <use xlink:href="#DejaVuSans-31"/>
       <use xlink:href="#DejaVuSans-30" transform="translate(63.623047 0)"/>
       <use xlink:href="#DejaVuSans-30" transform="translate(127.246094 0)"/>
      </g>
     </g>
    </g>
    <g id="xtick_2">
     <g id="line2d_3">
      <path d="M 236.16 307.584 
L 236.16 41.472 
" clip-path="url(#p83f0421dcb)" style="fill: none; stroke: #b0b0b0; stroke-width: 0.8; stroke-linecap: square"/>
     </g>
     <g id="line2d_4">
      <g>
       <use xlink:href="#m476abf669d" x="236.16" y="307.584" style="stroke: #000000; stroke-width: 0.8"/>
      </g>
     </g>
     <g id="text_2">
      <!-- 200 -->
      <g transform="translate(226.61625 322.182437) scale(0.1 -0.1)">
       <defs>
        <path id="DejaVuSans-32" d="M 1228 531 
L 3431 531 
L 3431 0 
L 469 0 
L 469 531 
Q 828 903 1448 1529 
Q 2069 2156 2228 2338 
Q 2531 2678 2651 2914 
Q 2772 3150 2772 3378 
Q 2772 3750 2511 3984 
Q 2250 4219 1831 4219 
Q 1534 4219 1204 4116 
Q 875 4013 500 3803 
L 500 4441 
Q 881 4594 1212 4672 
Q 1544 4750 1819 4750 
Q 2544 4750 2975 4387 
Q 3406 4025 3406 3419 
Q 3406 3131 3298 2873 
Q 3191 2616 2906 2266 
Q 2828 2175 2409 1742 
Q 1991 1309 1228 531 
z
" transform="scale(0.015625)"/>
       </defs>
       <use xlink:href="#DejaVuSans-32"/>
       <use xlink:href="#DejaVuSans-30" transform="translate(63.623047 0)"/>
       <use xlink:href="#DejaVuSans-30" transform="translate(127.246094 0)"/>
      </g>
     </g>
    </g>
    <g id="xtick_3">
     <g id="line2d_5">
      <path d="M 325.44 307.584 
L 325.44 41.472 
" clip-path="url(#p83f0421dcb)" style="fill: none; stroke: #b0b0b0; stroke-width: 0.8; stroke-linecap: square"/>
     </g>
     <g id="line2d_6">
      <g>
       <use xlink:href="#m476abf669d" x="325.44" y="307.584" style="stroke: #000000; stroke-width: 0.8"/>
      </g>
     </g>
     <g id="text_3">
      <!-- 300 -->
      <g transform="translate(315.89625 322.182437) scale(0.1 -0.1)">
       <defs>
        <path id="DejaVuSans-33" d="M 2597 2516 
Q 3050 2419 3304 2112 
Q 3559 1806 3559 1356 
Q 3559 666 3084 287 
Q 2609 -91 1734 -91 
Q 1441 -91 1130 -33 
Q 819 25 488 141 
L 488 750 
Q 750 597 1062 519 
Q 1375 441 1716 441 
Q 2309 441 2620 675 
Q 2931 909 2931 1356 
Q 2931 1769 2642 2001 
Q 2353 2234 1838 2234 
L 1294 2234 
L 1294 2753 
L 1863 2753 
Q 2328 2753 2575 2939 
Q 2822 3125 2822 3475 
Q 2822 3834 2567 4026 
Q 2313 4219 1838 4219 
Q 1578 4219 1281 4162 
Q 984 4106 628 3988 
L 628 4550 
Q 988 4650 1302 4700 
Q 1616 4750 1894 4750 
Q 2613 4750 3031 4423 
Q 3450 4097 3450 3541 
Q 3450 3153 3228 2886 
Q 3006 2619 2597 2516 
z
" transform="scale(0.015625)"/>
       </defs>
       <use xlink:href="#DejaVuSans-33"/>
       <use xlink:href="#DejaVuSans-30" transform="translate(63.623047 0)"/>
       <use xlink:href="#DejaVuSans-30" transform="translate(127.246094 0)"/>
      </g>
     </g>
    </g>
    <g id="xtick_4">
     <g id="line2d_7">
      <path d="M 414.72 307.584 
L 414.72 41.472 
" clip-path="url(#p83f0421dcb)" style="fill: none; stroke: #b0b0b0; stroke-width: 0.8; stroke-linecap: square"/>
     </g>
     <g id="line2d_8">
      <g>
       <use xlink:href="#m476abf669d" x="414.72" y="307.584" style="stroke: #000000; stroke-width: 0.8"/>
      </g>
     </g>
     <g id="text_4">
      <!-- 400 -->
      <g transform="translate(405.17625 322.182437) scale(0.1 -0.1)">
       <defs>
        <path id="DejaVuSans-34" d="M 2419 4116 
L 825 1625 
L 2419 1625 
L 2419 4116 
z
M 2253 4666 
L 3047 4666 
L 3047 1625 
L 3713 1625 
L 3713 1100 
L 3047 1100 
L 3047 0 
L 2419 0 
L 2419 1100 
L 313 1100 
L 313 1709 
L 2253 4666 
z
" transform="scale(0.015625)"/>
       </defs>
       <use xlink:href="#DejaVuSans-34"/>
       <use xlink:href="#DejaVuSans-30" transform="translate(63.623047 0)"/>
       <use xlink:href="#DejaVuSans-30" transform="translate(127.246094 0)"/>
      </g>
     </g>
    </g>
    <g id="text_5">
     <!-- Irradiation time (s)  -->
     <g transform="translate(187.823281 335.860562) scale(0.1 -0.1)">
      <defs>
       <path id="DejaVuSans-49" d="M 628 4666 
L 1259 4666 
L 1259 0 
L 628 0 
L 628 4666 
z
" transform="scale(0.015625)"/>
       <path id="DejaVuSans-72" d="M 2631 2963 
Q 2534 3019 2420 3045 
Q 2306 3072 2169 3072 
Q 1681 3072 1420 2755 
Q 1159 2438 1159 1844 
L 1159 0 
L 581 0 
L 581 3500 
L 1159 3500 
L 1159 2956 
Q 1341 3275 1631 3429 
Q 1922 3584 2338 3584 
Q 2397 3584 2469 3576 
Q 2541 3569 2628 3553 
L 2631 2963 
z
" transform="scale(0.015625)"/>
       <path id="DejaVuSans-61" d="M 2194 1759 
Q 1497 1759 1228 1600 
Q 959 1441 959 1056 
Q 959 750 1161 570 
Q 1363 391 1709 391 
Q 2188 391 2477 730 
Q 2766 1069 2766 1631 
L 2766 1759 
L 2194 1759 
z
M 3341 1997 
L 3341 0 
L 2766 0 
L 2766 531 
Q 2569 213 2275 61 
Q 1981 -91 1556 -91 
Q 1019 -91 701 211 
Q 384 513 384 1019 
Q 384 1609 779 1909 
Q 1175 2209 1959 2209 
L 2766 2209 
L 2766 2266 
Q 2766 2663 2505 2880 
Q 2244 3097 1772 3097 
Q 1472 3097 1187 3025 
Q 903 2953 641 2809 
L 641 3341 
Q 956 3463 1253 3523 
Q 1550 3584 1831 3584 
Q 2591 3584 2966 3190 
Q 3341 2797 3341 1997 
z
" transform="scale(0.015625)"/>
       <path id="DejaVuSans-64" d="M 2906 2969 
L 2906 4863 
L 3481 4863 
L 3481 0 
L 2906 0 
L 2906 525 
Q 2725 213 2448 61 
Q 2172 -91 1784 -91 
Q 1150 -91 751 415 
Q 353 922 353 1747 
Q 353 2572 751 3078 
Q 1150 3584 1784 3584 
Q 2172 3584 2448 3432 
Q 2725 3281 2906 2969 
z
M 947 1747 
Q 947 1113 1208 752 
Q 1469 391 1925 391 
Q 2381 391 2643 752 
Q 2906 1113 2906 1747 
Q 2906 2381 2643 2742 
Q 2381 3103 1925 3103 
Q 1469 3103 1208 2742 
Q 947 2381 947 1747 
z
" transform="scale(0.015625)"/>
       <path id="DejaVuSans-69" d="M 603 3500 
L 1178 3500 
L 1178 0 
L 603 0 
L 603 3500 
z
M 603 4863 
L 1178 4863 
L 1178 4134 
L 603 4134 
L 603 4863 
z
" transform="scale(0.015625)"/>
       <path id="DejaVuSans-74" d="M 1172 4494 
L 1172 3500 
L 2356 3500 
L 2356 3053 
L 1172 3053 
L 1172 1153 
Q 1172 725 1289 603 
Q 1406 481 1766 481 
L 2356 481 
L 2356 0 
L 1766 0 
Q 1100 0 847 248 
Q 594 497 594 1153 
L 594 3053 
L 172 3053 
L 172 3500 
L 594 3500 
L 594 4494 
L 1172 4494 
z
" transform="scale(0.015625)"/>
       <path id="DejaVuSans-6f" d="M 1959 3097 
Q 1497 3097 1228 2736 
Q 959 2375 959 1747 
Q 959 1119 1226 758 
Q 1494 397 1959 397 
Q 2419 397 2687 759 
Q 2956 1122 2956 1747 
Q 2956 2369 2687 2733 
Q 2419 3097 1959 3097 
z
M 1959 3584 
Q 2709 3584 3137 3096 
Q 3566 2609 3566 1747 
Q 3566 888 3137 398 
Q 2709 -91 1959 -91 
Q 1206 -91 779 398 
Q 353 888 353 1747 
Q 353 2609 779 3096 
Q 1206 3584 1959 3584 
z
" transform="scale(0.015625)"/>
       <path id="DejaVuSans-6e" d="M 3513 2113 
L 3513 0 
L 2938 0 
L 2938 2094 
Q 2938 2591 2744 2837 
Q 2550 3084 2163 3084 
Q 1697 3084 1428 2787 
Q 1159 2491 1159 1978 
L 1159 0 
L 581 0 
L 581 3500 
L 1159 3500 
L 1159 2956 
Q 1366 3272 1645 3428 
Q 1925 3584 2291 3584 
Q 2894 3584 3203 3211 
Q 3513 2838 3513 2113 
z
" transform="scale(0.015625)"/>
       <path id="DejaVuSans-20" transform="scale(0.015625)"/>
       <path id="DejaVuSans-6d" d="M 3328 2828 
Q 3544 3216 3844 3400 
Q 4144 3584 4550 3584 
Q 5097 3584 5394 3201 
Q 5691 2819 5691 2113 
L 5691 0 
L 5113 0 
L 5113 2094 
Q 5113 2597 4934 2840 
Q 4756 3084 4391 3084 
Q 3944 3084 3684 2787 
Q 3425 2491 3425 1978 
L 3425 0 
L 2847 0 
L 2847 2094 
Q 2847 2600 2669 2842 
Q 2491 3084 2119 3084 
Q 1678 3084 1418 2786 
Q 1159 2488 1159 1978 
L 1159 0 
L 581 0 
L 581 3500 
L 1159 3500 
L 1159 2956 
Q 1356 3278 1631 3431 
Q 1906 3584 2284 3584 
Q 2666 3584 2933 3390 
Q 3200 3197 3328 2828 
z
" transform="scale(0.015625)"/>
       <path id="DejaVuSans-65" d="M 3597 1894 
L 3597 1613 
L 953 1613 
Q 991 1019 1311 708 
Q 1631 397 2203 397 
Q 2534 397 2845 478 
Q 3156 559 3463 722 
L 3463 178 
Q 3153 47 2828 -22 
Q 2503 -91 2169 -91 
Q 1331 -91 842 396 
Q 353 884 353 1716 
Q 353 2575 817 3079 
Q 1281 3584 2069 3584 
Q 2775 3584 3186 3129 
Q 3597 2675 3597 1894 
z
M 3022 2063 
Q 3016 2534 2758 2815 
Q 2500 3097 2075 3097 
Q 1594 3097 1305 2825 
Q 1016 2553 972 2059 
L 3022 2063 
z
" transform="scale(0.015625)"/>
       <path id="DejaVuSans-28" d="M 1984 4856 
Q 1566 4138 1362 3434 
Q 1159 2731 1159 2009 
Q 1159 1288 1364 580 
Q 1569 -128 1984 -844 
L 1484 -844 
Q 1016 -109 783 600 
Q 550 1309 550 2009 
Q 550 2706 781 3412 
Q 1013 4119 1484 4856 
L 1984 4856 
z
" transform="scale(0.015625)"/>
       <path id="DejaVuSans-73" d="M 2834 3397 
L 2834 2853 
Q 2591 2978 2328 3040 
Q 2066 3103 1784 3103 
Q 1356 3103 1142 2972 
Q 928 2841 928 2578 
Q 928 2378 1081 2264 
Q 1234 2150 1697 2047 
L 1894 2003 
Q 2506 1872 2764 1633 
Q 3022 1394 3022 966 
Q 3022 478 2636 193 
Q 2250 -91 1575 -91 
Q 1294 -91 989 -36 
Q 684 19 347 128 
L 347 722 
Q 666 556 975 473 
Q 1284 391 1588 391 
Q 1994 391 2212 530 
Q 2431 669 2431 922 
Q 2431 1156 2273 1281 
Q 2116 1406 1581 1522 
L 1381 1569 
Q 847 1681 609 1914 
Q 372 2147 372 2553 
Q 372 3047 722 3315 
Q 1072 3584 1716 3584 
Q 2034 3584 2315 3537 
Q 2597 3491 2834 3397 
z
" transform="scale(0.015625)"/>
       <path id="DejaVuSans-29" d="M 513 4856 
L 1013 4856 
Q 1481 4119 1714 3412 
Q 1947 2706 1947 2009 
Q 1947 1309 1714 600 
Q 1481 -109 1013 -844 
L 513 -844 
Q 928 -128 1133 580 
Q 1338 1288 1338 2009 
Q 1338 2731 1133 3434 
Q 928 4138 513 4856 
z
" transform="scale(0.015625)"/>
      </defs>
      <use xlink:href="#DejaVuSans-49"/>
      <use xlink:href="#DejaVuSans-72" transform="translate(29.492188 0)"/>
      <use xlink:href="#DejaVuSans-72" transform="translate(68.855469 0)"/>
      <use xlink:href="#DejaVuSans-61" transform="translate(109.96875 0)"/>
      <use xlink:href="#DejaVuSans-64" transform="translate(171.248047 0)"/>
      <use xlink:href="#DejaVuSans-69" transform="translate(234.724609 0)"/>
      <use xlink:href="#DejaVuSans-61" transform="translate(262.507812 0)"/>
      <use xlink:href="#DejaVuSans-74" transform="translate(323.787109 0)"/>
      <use xlink:href="#DejaVuSans-69" transform="translate(362.996094 0)"/>
      <use xlink:href="#DejaVuSans-6f" transform="translate(390.779297 0)"/>
      <use xlink:href="#DejaVuSans-6e" transform="translate(451.960938 0)"/>
      <use xlink:href="#DejaVuSans-20" transform="translate(515.339844 0)"/>
      <use xlink:href="#DejaVuSans-74" transform="translate(547.126953 0)"/>
      <use xlink:href="#DejaVuSans-69" transform="translate(586.335938 0)"/>
      <use xlink:href="#DejaVuSans-6d" transform="translate(614.119141 0)"/>
      <use xlink:href="#DejaVuSans-65" transform="translate(711.53125 0)"/>
      <use xlink:href="#DejaVuSans-20" transform="translate(773.054688 0)"/>
      <use xlink:href="#DejaVuSans-28" transform="translate(804.841797 0)"/>
      <use xlink:href="#DejaVuSans-73" transform="translate(843.855469 0)"/>
      <use xlink:href="#DejaVuSans-29" transform="translate(895.955078 0)"/>
      <use xlink:href="#DejaVuSans-20" transform="translate(934.96875 0)"/>
     </g>
    </g>
   </g>
   <g id="matplotlib.axis_2">
    <g id="ytick_1">
     <g id="line2d_9">
      <path d="M 57.6 307.584 
L 414.72 307.584 
" clip-path="url(#p83f0421dcb)" style="fill: none; stroke: #b0b0b0; stroke-width: 0.8; stroke-linecap: square"/>
     </g>
     <g id="line2d_10">
      <defs>
       <path id="me571edf864" d="M 0 0 
L -3.5 0 
" style="stroke: #000000; stroke-width: 0.8"/>
      </defs>
      <g>
       <use xlink:href="#me571edf864" x="57.6" y="307.584" style="stroke: #000000; stroke-width: 0.8"/>
      </g>
     </g>
     <g id="text_6">
      <!-- 0.0 -->
      <g transform="translate(34.696875 311.383219) scale(0.1 -0.1)">
       <defs>
        <path id="DejaVuSans-2e" d="M 684 794 
L 1344 794 
L 1344 0 
L 684 0 
L 684 794 
z
" transform="scale(0.015625)"/>
       </defs>
       <use xlink:href="#DejaVuSans-30"/>
       <use xlink:href="#DejaVuSans-2e" transform="translate(63.623047 0)"/>
       <use xlink:href="#DejaVuSans-30" transform="translate(95.410156 0)"/>
      </g>
     </g>
    </g>
    <g id="ytick_2">
     <g id="line2d_11">
      <path d="M 57.6 269.568 
L 414.72 269.568 
" clip-path="url(#p83f0421dcb)" style="fill: none; stroke: #b0b0b0; stroke-width: 0.8; stroke-linecap: square"/>
     </g>
     <g id="line2d_12">
      <g>
       <use xlink:href="#me571edf864" x="57.6" y="269.568" style="stroke: #000000; stroke-width: 0.8"/>
      </g>
     </g>
     <g id="text_7">
      <!-- 0.1 -->
      <g transform="translate(34.696875 273.367219) scale(0.1 -0.1)">
       <use xlink:href="#DejaVuSans-30"/>
       <use xlink:href="#DejaVuSans-2e" transform="translate(63.623047 0)"/>
       <use xlink:href="#DejaVuSans-31" transform="translate(95.410156 0)"/>
      </g>
     </g>
    </g>
    <g id="ytick_3">
     <g id="line2d_13">
      <path d="M 57.6 231.552 
L 414.72 231.552 
" clip-path="url(#p83f0421dcb)" style="fill: none; stroke: #b0b0b0; stroke-width: 0.8; stroke-linecap: square"/>
     </g>
     <g id="line2d_14">
      <g>
       <use xlink:href="#me571edf864" x="57.6" y="231.552" style="stroke: #000000; stroke-width: 0.8"/>
      </g>
     </g>
     <g id="text_8">
      <!-- 0.2 -->
      <g transform="translate(34.696875 235.351219) scale(0.1 -0.1)">
       <use xlink:href="#DejaVuSans-30"/>
       <use xlink:href="#DejaVuSans-2e" transform="translate(63.623047 0)"/>
       <use xlink:href="#DejaVuSans-32" transform="translate(95.410156 0)"/>
      </g>
     </g>
    </g>
    <g id="ytick_4">
     <g id="line2d_15">
      <path d="M 57.6 193.536 
L 414.72 193.536 
" clip-path="url(#p83f0421dcb)" style="fill: none; stroke: #b0b0b0; stroke-width: 0.8; stroke-linecap: square"/>
     </g>
     <g id="line2d_16">
      <g>
       <use xlink:href="#me571edf864" x="57.6" y="193.536" style="stroke: #000000; stroke-width: 0.8"/>
      </g>
     </g>
     <g id="text_9">
      <!-- 0.3 -->
      <g transform="translate(34.696875 197.335219) scale(0.1 -0.1)">
       <use xlink:href="#DejaVuSans-30"/>
       <use xlink:href="#DejaVuSans-2e" transform="translate(63.623047 0)"/>
       <use xlink:href="#DejaVuSans-33" transform="translate(95.410156 0)"/>
      </g>
     </g>
    </g>
    <g id="ytick_5">
     <g id="line2d_17">
      <path d="M 57.6 155.52 
L 414.72 155.52 
" clip-path="url(#p83f0421dcb)" style="fill: none; stroke: #b0b0b0; stroke-width: 0.8; stroke-linecap: square"/>
     </g>
     <g id="line2d_18">
      <g>
       <use xlink:href="#me571edf864" x="57.6" y="155.52" style="stroke: #000000; stroke-width: 0.8"/>
      </g>
     </g>
     <g id="text_10">
      <!-- 0.4 -->
      <g transform="translate(34.696875 159.319219) scale(0.1 -0.1)">
       <use xlink:href="#DejaVuSans-30"/>
       <use xlink:href="#DejaVuSans-2e" transform="translate(63.623047 0)"/>
       <use xlink:href="#DejaVuSans-34" transform="translate(95.410156 0)"/>
      </g>
     </g>
    </g>
    <g id="ytick_6">
     <g id="line2d_19">
      <path d="M 57.6 117.504 
L 414.72 117.504 
" clip-path="url(#p83f0421dcb)" style="fill: none; stroke: #b0b0b0; stroke-width: 0.8; stroke-linecap: square"/>
     </g>
     <g id="line2d_20">
      <g>
       <use xlink:href="#me571edf864" x="57.6" y="117.504" style="stroke: #000000; stroke-width: 0.8"/>
      </g>
     </g>
     <g id="text_11">
      <!-- 0.5 -->
      <g transform="translate(34.696875 121.303219) scale(0.1 -0.1)">
       <defs>
        <path id="DejaVuSans-35" d="M 691 4666 
L 3169 4666 
L 3169 4134 
L 1269 4134 
L 1269 2991 
Q 1406 3038 1543 3061 
Q 1681 3084 1819 3084 
Q 2600 3084 3056 2656 
Q 3513 2228 3513 1497 
Q 3513 744 3044 326 
Q 2575 -91 1722 -91 
Q 1428 -91 1123 -41 
Q 819 9 494 109 
L 494 744 
Q 775 591 1075 516 
Q 1375 441 1709 441 
Q 2250 441 2565 725 
Q 2881 1009 2881 1497 
Q 2881 1984 2565 2268 
Q 2250 2553 1709 2553 
Q 1456 2553 1204 2497 
Q 953 2441 691 2322 
L 691 4666 
z
" transform="scale(0.015625)"/>
       </defs>
       <use xlink:href="#DejaVuSans-30"/>
       <use xlink:href="#DejaVuSans-2e" transform="translate(63.623047 0)"/>
       <use xlink:href="#DejaVuSans-35" transform="translate(95.410156 0)"/>
      </g>
     </g>
    </g>
    <g id="ytick_7">
     <g id="line2d_21">
      <path d="M 57.6 79.488 
L 414.72 79.488 
" clip-path="url(#p83f0421dcb)" style="fill: none; stroke: #b0b0b0; stroke-width: 0.8; stroke-linecap: square"/>
     </g>
     <g id="line2d_22">
      <g>
       <use xlink:href="#me571edf864" x="57.6" y="79.488" style="stroke: #000000; stroke-width: 0.8"/>
      </g>
     </g>
     <g id="text_12">
      <!-- 0.6 -->
      <g transform="translate(34.696875 83.287219) scale(0.1 -0.1)">
       <defs>
        <path id="DejaVuSans-36" d="M 2113 2584 
Q 1688 2584 1439 2293 
Q 1191 2003 1191 1497 
Q 1191 994 1439 701 
Q 1688 409 2113 409 
Q 2538 409 2786 701 
Q 3034 994 3034 1497 
Q 3034 2003 2786 2293 
Q 2538 2584 2113 2584 
z
M 3366 4563 
L 3366 3988 
Q 3128 4100 2886 4159 
Q 2644 4219 2406 4219 
Q 1781 4219 1451 3797 
Q 1122 3375 1075 2522 
Q 1259 2794 1537 2939 
Q 1816 3084 2150 3084 
Q 2853 3084 3261 2657 
Q 3669 2231 3669 1497 
Q 3669 778 3244 343 
Q 2819 -91 2113 -91 
Q 1303 -91 875 529 
Q 447 1150 447 2328 
Q 447 3434 972 4092 
Q 1497 4750 2381 4750 
Q 2619 4750 2861 4703 
Q 3103 4656 3366 4563 
z
" transform="scale(0.015625)"/>
       </defs>
       <use xlink:href="#DejaVuSans-30"/>
       <use xlink:href="#DejaVuSans-2e" transform="translate(63.623047 0)"/>
       <use xlink:href="#DejaVuSans-36" transform="translate(95.410156 0)"/>
      </g>
     </g>
    </g>
    <g id="ytick_8">
     <g id="line2d_23">
      <path d="M 57.6 41.472 
L 414.72 41.472 
" clip-path="url(#p83f0421dcb)" style="fill: none; stroke: #b0b0b0; stroke-width: 0.8; stroke-linecap: square"/>
     </g>
     <g id="line2d_24">
      <g>
       <use xlink:href="#me571edf864" x="57.6" y="41.472" style="stroke: #000000; stroke-width: 0.8"/>
      </g>
     </g>
     <g id="text_13">
      <!-- 0.7 -->
      <g transform="translate(34.696875 45.271219) scale(0.1 -0.1)">
       <defs>
        <path id="DejaVuSans-37" d="M 525 4666 
L 3525 4666 
L 3525 4397 
L 1831 0 
L 1172 0 
L 2766 4134 
L 525 4134 
L 525 4666 
z
" transform="scale(0.015625)"/>
       </defs>
       <use xlink:href="#DejaVuSans-30"/>
       <use xlink:href="#DejaVuSans-2e" transform="translate(63.623047 0)"/>
       <use xlink:href="#DejaVuSans-37" transform="translate(95.410156 0)"/>
      </g>
     </g>
    </g>
    <g id="text_14">
     <!-- Percent of filled traps -->
     <g transform="translate(28.617187 227.95925) rotate(-90) scale(0.1 -0.1)">
      <defs>
       <path id="DejaVuSans-50" d="M 1259 4147 
L 1259 2394 
L 2053 2394 
Q 2494 2394 2734 2622 
Q 2975 2850 2975 3272 
Q 2975 3691 2734 3919 
Q 2494 4147 2053 4147 
L 1259 4147 
z
M 628 4666 
L 2053 4666 
Q 2838 4666 3239 4311 
Q 3641 3956 3641 3272 
Q 3641 2581 3239 2228 
Q 2838 1875 2053 1875 
L 1259 1875 
L 1259 0 
L 628 0 
L 628 4666 
z
" transform="scale(0.015625)"/>
       <path id="DejaVuSans-63" d="M 3122 3366 
L 3122 2828 
Q 2878 2963 2633 3030 
Q 2388 3097 2138 3097 
Q 1578 3097 1268 2742 
Q 959 2388 959 1747 
Q 959 1106 1268 751 
Q 1578 397 2138 397 
Q 2388 397 2633 464 
Q 2878 531 3122 666 
L 3122 134 
Q 2881 22 2623 -34 
Q 2366 -91 2075 -91 
Q 1284 -91 818 406 
Q 353 903 353 1747 
Q 353 2603 823 3093 
Q 1294 3584 2113 3584 
Q 2378 3584 2631 3529 
Q 2884 3475 3122 3366 
z
" transform="scale(0.015625)"/>
       <path id="DejaVuSans-66" d="M 2375 4863 
L 2375 4384 
L 1825 4384 
Q 1516 4384 1395 4259 
Q 1275 4134 1275 3809 
L 1275 3500 
L 2222 3500 
L 2222 3053 
L 1275 3053 
L 1275 0 
L 697 0 
L 697 3053 
L 147 3053 
L 147 3500 
L 697 3500 
L 697 3744 
Q 697 4328 969 4595 
Q 1241 4863 1831 4863 
L 2375 4863 
z
" transform="scale(0.015625)"/>
       <path id="DejaVuSans-6c" d="M 603 4863 
L 1178 4863 
L 1178 0 
L 603 0 
L 603 4863 
z
" transform="scale(0.015625)"/>
       <path id="DejaVuSans-70" d="M 1159 525 
L 1159 -1331 
L 581 -1331 
L 581 3500 
L 1159 3500 
L 1159 2969 
Q 1341 3281 1617 3432 
Q 1894 3584 2278 3584 
Q 2916 3584 3314 3078 
Q 3713 2572 3713 1747 
Q 3713 922 3314 415 
Q 2916 -91 2278 -91 
Q 1894 -91 1617 61 
Q 1341 213 1159 525 
z
M 3116 1747 
Q 3116 2381 2855 2742 
Q 2594 3103 2138 3103 
Q 1681 3103 1420 2742 
Q 1159 2381 1159 1747 
Q 1159 1113 1420 752 
Q 1681 391 2138 391 
Q 2594 391 2855 752 
Q 3116 1113 3116 1747 
z
" transform="scale(0.015625)"/>
      </defs>
      <use xlink:href="#DejaVuSans-50"/>
      <use xlink:href="#DejaVuSans-65" transform="translate(56.677734 0)"/>
      <use xlink:href="#DejaVuSans-72" transform="translate(118.201172 0)"/>
      <use xlink:href="#DejaVuSans-63" transform="translate(157.064453 0)"/>
      <use xlink:href="#DejaVuSans-65" transform="translate(212.044922 0)"/>
      <use xlink:href="#DejaVuSans-6e" transform="translate(273.568359 0)"/>
      <use xlink:href="#DejaVuSans-74" transform="translate(336.947266 0)"/>
      <use xlink:href="#DejaVuSans-20" transform="translate(376.15625 0)"/>
      <use xlink:href="#DejaVuSans-6f" transform="translate(407.943359 0)"/>
      <use xlink:href="#DejaVuSans-66" transform="translate(469.125 0)"/>
      <use xlink:href="#DejaVuSans-20" transform="translate(504.330078 0)"/>
      <use xlink:href="#DejaVuSans-66" transform="translate(536.117188 0)"/>
      <use xlink:href="#DejaVuSans-69" transform="translate(571.322266 0)"/>
      <use xlink:href="#DejaVuSans-6c" transform="translate(599.105469 0)"/>
      <use xlink:href="#DejaVuSans-6c" transform="translate(626.888672 0)"/>
      <use xlink:href="#DejaVuSans-65" transform="translate(654.671875 0)"/>
      <use xlink:href="#DejaVuSans-64" transform="translate(716.195312 0)"/>
      <use xlink:href="#DejaVuSans-20" transform="translate(779.671875 0)"/>
      <use xlink:href="#DejaVuSans-74" transform="translate(811.458984 0)"/>
      <use xlink:href="#DejaVuSans-72" transform="translate(850.667969 0)"/>
      <use xlink:href="#DejaVuSans-61" transform="translate(891.78125 0)"/>
      <use xlink:href="#DejaVuSans-70" transform="translate(953.060547 0)"/>
      <use xlink:href="#DejaVuSans-73" transform="translate(1016.537109 0)"/>
     </g>
    </g>
   </g>
   <g id="line2d_25">
    <path d="M 57.6 305.036928 
L 59.029195 304.940335 
L 64.031376 299.420007 
L 65.103272 298.282959 
L 66.889765 296.339578 
L 67.604362 295.655082 
L 69.390855 293.943095 
L 72.070595 290.910041 
L 74.928984 287.951328 
L 84.0401 278.955322 
L 84.397399 278.667533 
L 85.826593 277.349032 
L 88.684982 275.079271 
L 91.186073 272.50799 
L 92.257969 271.593375 
L 93.687164 270.160935 
L 95.295008 268.574462 
L 98.153397 265.70563 
L 101.905033 261.856531 
L 102.44098 261.392243 
L 104.227474 259.833127 
L 105.656668 258.448247 
L 107.264512 256.876267 
L 112.802641 251.98001 
L 114.053187 250.769442 
L 117.983472 247.190134 
L 119.769965 245.580551 
L 121.735108 243.782814 
L 125.486743 240.148352 
L 127.630535 238.28809 
L 129.238379 236.840026 
L 136.205703 231.237702 
L 136.741651 230.844036 
L 140.493287 227.873339 
L 145.138169 224.394662 
L 151.569545 219.102114 
L 154.963882 216.495516 
L 157.643622 214.283165 
L 159.072816 213.123989 
L 168.005283 206.438371 
L 169.434477 205.244666 
L 171.39962 203.922764 
L 175.329905 201.323192 
L 177.473697 199.742146 
L 180.153437 197.659454 
L 183.011826 195.444654 
L 185.155618 194.191502 
L 185.870215 193.779481 
L 189.085903 191.797555 
L 192.48024 189.800065 
L 194.981331 187.872976 
L 196.053227 187.098196 
L 197.125123 186.415622 
L 198.018369 185.884756 
L 200.162161 184.405785 
L 201.412706 183.650296 
L 203.913797 182.088568 
L 205.521641 181.172296 
L 206.057589 180.855106 
L 211.774367 177.000675 
L 222.671976 169.985646 
L 226.066313 167.581777 
L 243.573947 156.47949 
L 246.968284 154.7256 
L 249.826673 153.194217 
L 253.935608 150.854969 
L 255.543452 149.901735 
L 256.258049 149.57739 
L 258.401841 148.399501 
L 261.438879 146.461732 
L 262.868074 145.753401 
L 263.404022 145.520897 
L 266.61971 144.080433 
L 269.29945 142.934667 
L 270.549995 142.307991 
L 272.336488 141.486132 
L 273.229735 141.065061 
L 278.231916 138.260423 
L 279.125163 137.77978 
L 281.626253 136.453087 
L 283.412746 135.512255 
L 288.236278 132.960058 
L 292.523862 130.843523 
L 294.667654 129.735863 
L 298.955238 127.433618 
L 303.778769 124.629981 
L 307.173107 122.871991 
L 311.103392 120.984191 
L 320.035858 117.000553 
L 323.251546 115.381866 
L 324.85939 114.629858 
L 338.436738 108.665237 
L 344.153517 105.979395 
L 347.011906 104.775652 
L 350.763542 102.916246 
L 354.515178 101.208374 
L 357.909515 99.447282 
L 359.874657 98.591536 
L 363.447644 97.260873 
L 366.663332 96.169785 
L 367.19928 95.976578 
L 370.057669 94.839349 
L 381.312576 90.158142 
L 384.170965 88.993003 
L 384.706913 88.830745 
L 392.388834 85.777059 
L 393.996678 85.093329 
L 394.353977 85.019862 
L 397.033717 83.970532 
L 399.534807 83.163395 
L 400.070755 83.034954 
L 406.502131 81.058577 
L 410.611066 79.392223 
L 414.72 77.937318 
L 414.72 77.937318 
" clip-path="url(#p83f0421dcb)" style="fill: none; stroke-dasharray: 7.4,3.2; stroke-dashoffset: 0; stroke: #8000ff; stroke-width: 2"/>
   </g>
   <g id="line2d_26">
    <path d="M 57.6 305.11296 
L 59.029195 305.013825 
L 63.852726 299.790772 
L 65.281921 298.125749 
L 66.889765 296.327364 
L 68.14031 295.124526 
L 70.284102 292.968917 
L 72.963842 290.104962 
L 75.107634 287.993836 
L 82.253607 280.55164 
L 92.793917 269.998222 
L 94.401761 268.439792 
L 96.902851 265.923699 
L 100.475838 262.56244 
L 106.549915 256.936263 
L 108.515058 255.626319 
L 121.556458 244.175879 
L 127.987834 239.014458 
L 129.417029 237.892045 
L 132.096768 235.572793 
L 133.168664 234.693941 
L 141.743832 227.500323 
L 148.353857 221.788733 
L 149.604402 221.001598 
L 151.569545 219.513871 
L 152.998739 218.48456 
L 155.857129 216.356854 
L 158.536868 214.254315 
L 161.931206 211.871346 
L 163.896348 210.485852 
L 169.077179 206.706907 
L 171.578269 204.579941 
L 174.615308 202.470963 
L 176.223152 201.287276 
L 179.26019 199.234238 
L 181.403982 197.745086 
L 186.942111 194.19454 
L 188.907254 192.82107 
L 191.586993 191.09618 
L 196.767824 187.309199 
L 198.911616 186.017422 
L 199.447564 185.687154 
L 204.271096 182.385642 
L 205.70029 181.497279 
L 209.630575 178.749632 
L 211.953017 177.302764 
L 212.846263 176.80954 
L 213.73951 176.312466 
L 222.850625 170.766295 
L 223.207924 170.610691 
L 242.144752 158.898987 
L 247.146933 155.795557 
L 249.112076 154.557784 
L 273.587034 140.987213 
L 278.053267 138.471604 
L 280.554357 137.209851 
L 282.698149 136.247698 
L 287.343032 133.956343 
L 292.523862 131.055941 
L 294.131706 130.284725 
L 296.990095 128.977207 
L 298.41929 128.304102 
L 298.955238 128.105738 
L 302.349575 126.609654 
L 303.064172 126.319744 
L 308.066353 123.980896 
L 312.711236 121.900539 
L 315.926923 120.384473 
L 316.82017 119.964334 
L 319.49991 118.531747 
L 321.107754 117.700531 
L 322.17965 117.240648 
L 323.787494 116.620242 
L 324.144792 116.535004 
L 330.04022 113.620896 
L 331.112116 113.096165 
L 335.042401 111.110196 
L 335.756998 110.826319 
L 338.794037 109.501605 
L 340.401881 108.855773 
L 343.617569 107.184776 
L 346.475958 105.799541 
L 347.726503 105.244669 
L 350.584892 104.019014 
L 351.12084 103.841308 
L 353.264632 102.868415 
L 356.658969 101.178339 
L 363.090345 98.537509 
L 363.804942 98.280195 
L 364.876838 97.776108 
L 365.055488 97.885227 
L 367.556578 96.878371 
L 368.271176 96.667785 
L 371.129565 95.59849 
L 375.05985 94.020192 
L 378.454187 92.380599 
L 380.955278 91.521149 
L 383.09907 90.737149 
L 386.672056 89.263969 
L 393.818029 86.758662 
L 394.532626 86.52738 
L 397.212366 85.558698 
L 400.785353 84.032921 
L 404.894287 82.416478 
L 410.253767 80.614615 
L 410.789715 80.454494 
L 414.72 79.097981 
L 414.72 79.097981 
" clip-path="url(#p83f0421dcb)" style="fill: none; stroke-dasharray: 7.4,3.2; stroke-dashoffset: 0; stroke: #80ffb4; stroke-width: 2"/>
   </g>
   <g id="line2d_27">
    <path d="M 57.6 305.265024 
L 59.029195 305.165889 
L 61.530285 302.247659 
L 63.852726 299.504612 
L 70.284102 292.136779 
L 74.571686 287.494711 
L 76.894127 285.207753 
L 82.253607 279.60208 
L 85.826593 275.786641 
L 88.149035 273.678031 
L 89.578229 272.365542 
L 102.61963 259.346785 
L 110.837499 251.800685 
L 112.802641 249.985304 
L 117.804822 245.526813 
L 120.484562 243.328837 
L 122.271056 241.62312 
L 123.878899 240.083926 
L 125.486743 238.644334 
L 133.704612 231.583166 
L 134.24056 231.168382 
L 135.848404 229.922531 
L 137.813547 228.203313 
L 139.778689 226.582277 
L 141.565183 225.142501 
L 145.852766 221.486939 
L 149.247104 219.088647 
L 150.318999 218.355305 
L 155.678479 214.421187 
L 158.358219 212.267581 
L 160.323362 210.719639 
L 162.645803 208.878666 
L 163.53905 208.277536 
L 167.290685 205.558726 
L 171.042321 202.773609 
L 171.935568 202.159823 
L 176.044502 199.030914 
L 180.153437 196.277505 
L 182.118579 194.736436 
L 183.369125 194.021598 
L 184.976968 193.0179 
L 186.763462 191.697466 
L 187.12076 191.544037 
L 189.621851 189.680958 
L 191.765643 188.394413 
L 192.301591 188.096242 
L 194.981331 186.286368 
L 205.521641 179.369994 
L 207.665433 177.87907 
L 211.953017 174.890466 
L 213.203562 174.16373 
L 215.883302 172.428487 
L 217.669795 171.174931 
L 224.637119 166.9928 
L 225.709015 166.511753 
L 229.6393 164.204652 
L 231.783092 162.94608 
L 235.356078 161.020662 
L 236.070675 160.642237 
L 237.678519 159.709709 
L 239.107714 158.883864 
L 241.966103 157.109007 
L 245.181791 155.277055 
L 245.717739 154.990915 
L 254.114257 149.870176 
L 260.366983 146.368403 
L 271.97919 139.778403 
L 272.693787 139.48947 
L 273.765683 138.981155 
L 277.517319 137.059146 
L 280.018409 135.730361 
L 283.948694 133.464747 
L 285.913837 132.263178 
L 288.593577 130.755054 
L 290.916018 129.42835 
L 295.5609 127.040019 
L 296.096848 126.826192 
L 298.597939 125.562826 
L 301.277679 124.120322 
L 304.493367 122.453185 
L 307.173107 121.08104 
L 308.066353 120.634799 
L 323.966143 112.433689 
L 326.467234 111.199312 
L 328.611026 110.101203 
L 330.754817 109.291647 
L 334.506453 107.860672 
L 337.007544 106.68089 
L 341.473777 104.855773 
L 343.438919 104.055782 
L 348.798399 101.658938 
L 350.942191 100.718952 
L 353.80058 99.727059 
L 359.16006 97.373218 
L 362.911696 95.662994 
L 363.983592 95.199694 
L 377.203642 89.155209 
L 388.101251 84.615996 
L 388.815848 84.373176 
L 391.495588 83.480725 
L 396.31912 81.830211 
L 413.826753 75.045273 
L 414.72 74.667644 
L 414.72 74.667644 
" clip-path="url(#p83f0421dcb)" style="fill: none; stroke-dasharray: 7.4,3.2; stroke-dashoffset: 0; stroke: #ff0000; stroke-width: 2"/>
   </g>
   <g id="patch_3">
    <path d="M 57.6 307.584 
L 57.6 41.472 
" style="fill: none; stroke: #000000; stroke-width: 0.8; stroke-linejoin: miter; stroke-linecap: square"/>
   </g>
   <g id="patch_4">
    <path d="M 414.72 307.584 
L 414.72 41.472 
" style="fill: none; stroke: #000000; stroke-width: 0.8; stroke-linejoin: miter; stroke-linecap: square"/>
   </g>
   <g id="patch_5">
    <path d="M 57.6 307.584 
L 414.72 307.584 
" style="fill: none; stroke: #000000; stroke-width: 0.8; stroke-linejoin: miter; stroke-linecap: square"/>
   </g>
   <g id="patch_6">
    <path d="M 57.6 41.472 
L 414.72 41.472 
" style="fill: none; stroke: #000000; stroke-width: 0.8; stroke-linejoin: miter; stroke-linecap: square"/>
   </g>
   <g id="legend_1">
    <g id="patch_7">
     <path d="M 314.584 120.95195 
L 469.166812 120.95195 
Q 471.166812 120.95195 471.166812 118.95195 
L 471.166812 75.0832 
Q 471.166812 73.0832 469.166812 73.0832 
L 314.584 73.0832 
Q 312.584 73.0832 312.584 75.0832 
L 312.584 118.95195 
Q 312.584 120.95195 314.584 120.95195 
z
" style="fill: #ffffff; opacity: 0.8; stroke: #cccccc; stroke-linejoin: miter"/>
    </g>
    <g id="line2d_28">
     <path d="M 316.584 81.181637 
L 326.584 81.181637 
L 336.584 81.181637 
" style="fill: none; stroke-dasharray: 7.4,3.2; stroke-dashoffset: 0; stroke: #8000ff; stroke-width: 2"/>
    </g>
    <g id="text_15">
     <!-- Mean: N_e = [200], 1 kA -->
     <g transform="translate(344.584 84.681637) scale(0.1 -0.1)">
      <defs>
       <path id="DejaVuSans-4d" d="M 628 4666 
L 1569 4666 
L 2759 1491 
L 3956 4666 
L 4897 4666 
L 4897 0 
L 4281 0 
L 4281 4097 
L 3078 897 
L 2444 897 
L 1241 4097 
L 1241 0 
L 628 0 
L 628 4666 
z
" transform="scale(0.015625)"/>
       <path id="DejaVuSans-3a" d="M 750 794 
L 1409 794 
L 1409 0 
L 750 0 
L 750 794 
z
M 750 3309 
L 1409 3309 
L 1409 2516 
L 750 2516 
L 750 3309 
z
" transform="scale(0.015625)"/>
       <path id="DejaVuSans-4e" d="M 628 4666 
L 1478 4666 
L 3547 763 
L 3547 4666 
L 4159 4666 
L 4159 0 
L 3309 0 
L 1241 3903 
L 1241 0 
L 628 0 
L 628 4666 
z
" transform="scale(0.015625)"/>
       <path id="DejaVuSans-5f" d="M 3263 -1063 
L 3263 -1509 
L -63 -1509 
L -63 -1063 
L 3263 -1063 
z
" transform="scale(0.015625)"/>
       <path id="DejaVuSans-3d" d="M 678 2906 
L 4684 2906 
L 4684 2381 
L 678 2381 
L 678 2906 
z
M 678 1631 
L 4684 1631 
L 4684 1100 
L 678 1100 
L 678 1631 
z
" transform="scale(0.015625)"/>
       <path id="DejaVuSans-5b" d="M 550 4863 
L 1875 4863 
L 1875 4416 
L 1125 4416 
L 1125 -397 
L 1875 -397 
L 1875 -844 
L 550 -844 
L 550 4863 
z
" transform="scale(0.015625)"/>
       <path id="DejaVuSans-5d" d="M 1947 4863 
L 1947 -844 
L 622 -844 
L 622 -397 
L 1369 -397 
L 1369 4416 
L 622 4416 
L 622 4863 
L 1947 4863 
z
" transform="scale(0.015625)"/>
       <path id="DejaVuSans-2c" d="M 750 794 
L 1409 794 
L 1409 256 
L 897 -744 
L 494 -744 
L 750 256 
L 750 794 
z
" transform="scale(0.015625)"/>
       <path id="DejaVuSans-6b" d="M 581 4863 
L 1159 4863 
L 1159 1991 
L 2875 3500 
L 3609 3500 
L 1753 1863 
L 3688 0 
L 2938 0 
L 1159 1709 
L 1159 0 
L 581 0 
L 581 4863 
z
" transform="scale(0.015625)"/>
       <path id="DejaVuSans-41" d="M 2188 4044 
L 1331 1722 
L 3047 1722 
L 2188 4044 
z
M 1831 4666 
L 2547 4666 
L 4325 0 
L 3669 0 
L 3244 1197 
L 1141 1197 
L 716 0 
L 50 0 
L 1831 4666 
z
" transform="scale(0.015625)"/>
      </defs>
      <use xlink:href="#DejaVuSans-4d"/>
      <use xlink:href="#DejaVuSans-65" transform="translate(86.279297 0)"/>
      <use xlink:href="#DejaVuSans-61" transform="translate(147.802734 0)"/>
      <use xlink:href="#DejaVuSans-6e" transform="translate(209.082031 0)"/>
      <use xlink:href="#DejaVuSans-3a" transform="translate(272.460938 0)"/>
      <use xlink:href="#DejaVuSans-20" transform="translate(306.152344 0)"/>
      <use xlink:href="#DejaVuSans-4e" transform="translate(337.939453 0)"/>
      <use xlink:href="#DejaVuSans-5f" transform="translate(412.744141 0)"/>
      <use xlink:href="#DejaVuSans-65" transform="translate(462.744141 0)"/>
      <use xlink:href="#DejaVuSans-20" transform="translate(524.267578 0)"/>
      <use xlink:href="#DejaVuSans-3d" transform="translate(556.054688 0)"/>
      <use xlink:href="#DejaVuSans-20" transform="translate(639.84375 0)"/>
      <use xlink:href="#DejaVuSans-5b" transform="translate(671.630859 0)"/>
      <use xlink:href="#DejaVuSans-32" transform="translate(710.644531 0)"/>
      <use xlink:href="#DejaVuSans-30" transform="translate(774.267578 0)"/>
      <use xlink:href="#DejaVuSans-30" transform="translate(837.890625 0)"/>
      <use xlink:href="#DejaVuSans-5d" transform="translate(901.513672 0)"/>
      <use xlink:href="#DejaVuSans-2c" transform="translate(940.527344 0)"/>
      <use xlink:href="#DejaVuSans-20" transform="translate(972.314453 0)"/>
      <use xlink:href="#DejaVuSans-31" transform="translate(1004.101562 0)"/>
      <use xlink:href="#DejaVuSans-20" transform="translate(1067.724609 0)"/>
      <use xlink:href="#DejaVuSans-6b" transform="translate(1099.511719 0)"/>
      <use xlink:href="#DejaVuSans-41" transform="translate(1157.421875 0)"/>
     </g>
    </g>
    <g id="line2d_29">
     <path d="M 316.584 96.137887 
L 326.584 96.137887 
L 336.584 96.137887 
" style="fill: none; stroke-dasharray: 7.4,3.2; stroke-dashoffset: 0; stroke: #80ffb4; stroke-width: 2"/>
    </g>
    <g id="text_16">
     <!-- Mean: N_e = [200], 2 kA -->
     <g transform="translate(344.584 99.637887) scale(0.1 -0.1)">
      <use xlink:href="#DejaVuSans-4d"/>
      <use xlink:href="#DejaVuSans-65" transform="translate(86.279297 0)"/>
      <use xlink:href="#DejaVuSans-61" transform="translate(147.802734 0)"/>
      <use xlink:href="#DejaVuSans-6e" transform="translate(209.082031 0)"/>
      <use xlink:href="#DejaVuSans-3a" transform="translate(272.460938 0)"/>
      <use xlink:href="#DejaVuSans-20" transform="translate(306.152344 0)"/>
      <use xlink:href="#DejaVuSans-4e" transform="translate(337.939453 0)"/>
      <use xlink:href="#DejaVuSans-5f" transform="translate(412.744141 0)"/>
      <use xlink:href="#DejaVuSans-65" transform="translate(462.744141 0)"/>
      <use xlink:href="#DejaVuSans-20" transform="translate(524.267578 0)"/>
      <use xlink:href="#DejaVuSans-3d" transform="translate(556.054688 0)"/>
      <use xlink:href="#DejaVuSans-20" transform="translate(639.84375 0)"/>
      <use xlink:href="#DejaVuSans-5b" transform="translate(671.630859 0)"/>
      <use xlink:href="#DejaVuSans-32" transform="translate(710.644531 0)"/>
      <use xlink:href="#DejaVuSans-30" transform="translate(774.267578 0)"/>
      <use xlink:href="#DejaVuSans-30" transform="translate(837.890625 0)"/>
      <use xlink:href="#DejaVuSans-5d" transform="translate(901.513672 0)"/>
      <use xlink:href="#DejaVuSans-2c" transform="translate(940.527344 0)"/>
      <use xlink:href="#DejaVuSans-20" transform="translate(972.314453 0)"/>
      <use xlink:href="#DejaVuSans-32" transform="translate(1004.101562 0)"/>
      <use xlink:href="#DejaVuSans-20" transform="translate(1067.724609 0)"/>
      <use xlink:href="#DejaVuSans-6b" transform="translate(1099.511719 0)"/>
      <use xlink:href="#DejaVuSans-41" transform="translate(1157.421875 0)"/>
     </g>
    </g>
    <g id="line2d_30">
     <path d="M 316.584 111.094137 
L 326.584 111.094137 
L 336.584 111.094137 
" style="fill: none; stroke-dasharray: 7.4,3.2; stroke-dashoffset: 0; stroke: #ff0000; stroke-width: 2"/>
    </g>
    <g id="text_17">
     <!-- Mean: N_e = [200], 3 kA -->
     <g transform="translate(344.584 114.594137) scale(0.1 -0.1)">
      <use xlink:href="#DejaVuSans-4d"/>
      <use xlink:href="#DejaVuSans-65" transform="translate(86.279297 0)"/>
      <use xlink:href="#DejaVuSans-61" transform="translate(147.802734 0)"/>
      <use xlink:href="#DejaVuSans-6e" transform="translate(209.082031 0)"/>
      <use xlink:href="#DejaVuSans-3a" transform="translate(272.460938 0)"/>
      <use xlink:href="#DejaVuSans-20" transform="translate(306.152344 0)"/>
      <use xlink:href="#DejaVuSans-4e" transform="translate(337.939453 0)"/>
      <use xlink:href="#DejaVuSans-5f" transform="translate(412.744141 0)"/>
      <use xlink:href="#DejaVuSans-65" transform="translate(462.744141 0)"/>
      <use xlink:href="#DejaVuSans-20" transform="translate(524.267578 0)"/>
      <use xlink:href="#DejaVuSans-3d" transform="translate(556.054688 0)"/>
      <use xlink:href="#DejaVuSans-20" transform="translate(639.84375 0)"/>
      <use xlink:href="#DejaVuSans-5b" transform="translate(671.630859 0)"/>
      <use xlink:href="#DejaVuSans-32" transform="translate(710.644531 0)"/>
      <use xlink:href="#DejaVuSans-30" transform="translate(774.267578 0)"/>
      <use xlink:href="#DejaVuSans-30" transform="translate(837.890625 0)"/>
      <use xlink:href="#DejaVuSans-5d" transform="translate(901.513672 0)"/>
      <use xlink:href="#DejaVuSans-2c" transform="translate(940.527344 0)"/>
      <use xlink:href="#DejaVuSans-20" transform="translate(972.314453 0)"/>
      <use xlink:href="#DejaVuSans-33" transform="translate(1004.101562 0)"/>
      <use xlink:href="#DejaVuSans-20" transform="translate(1067.724609 0)"/>
      <use xlink:href="#DejaVuSans-6b" transform="translate(1099.511719 0)"/>
      <use xlink:href="#DejaVuSans-41" transform="translate(1157.421875 0)"/>
     </g>
    </g>
   </g>
  </g>
 </g>
 <defs>
  <clipPath id="p83f0421dcb">
   <rect x="57.6" y="41.472" width="357.12" height="266.112"/>
  </clipPath>
 </defs>
</svg>
