<?xml version="1.0" encoding="utf-8" standalone="no"?>
<!DOCTYPE svg PUBLIC "-//W3C//DTD SVG 1.1//EN"
  "http://www.w3.org/Graphics/SVG/1.1/DTD/svg11.dtd">
<svg xmlns:xlink="http://www.w3.org/1999/xlink" width="460.8pt" height="345.6pt" viewBox="0 0 460.8 345.6" xmlns="http://www.w3.org/2000/svg" version="1.1">
 <metadata>
  <rdf:RDF xmlns:dc="http://purl.org/dc/elements/1.1/" xmlns:cc="http://creativecommons.org/ns#" xmlns:rdf="http://www.w3.org/1999/02/22-rdf-syntax-ns#">
   <cc:Work>
    <dc:type rdf:resource="http://purl.org/dc/dcmitype/StillImage"/>
    <dc:date>2025-03-12T11:16:10.871893</dc:date>
    <dc:format>image/svg+xml</dc:format>
    <dc:creator>
     <cc:Agent>
      <dc:title>Matplotlib v3.10.0, https://matplotlib.org/</dc:title>
     </cc:Agent>
    </dc:creator>
   </cc:Work>
  </rdf:RDF>
 </metadata>
 <defs>
  <style type="text/css">*{stroke-linejoin: round; stroke-linecap: butt}</style>
 </defs>
 <g id="figure_1">
  <g id="patch_1">
   <path d="M 0 345.6 
L 460.8 345.6 
L 460.8 0 
L 0 0 
z
" style="fill: #ffffff"/>
  </g>
  <g id="axes_1">
   <g id="patch_2">
    <path d="M 40.165 304.64 
L 450 304.64 
L 450 21.72 
L 40.165 21.72 
z
" style="fill: #ffffff"/>
   </g>
   <g id="matplotlib.axis_1">
    <g id="xtick_1">
     <g id="line2d_1">
      <defs>
       <path id="m40f6e048a9" d="M 0 0 
L 0 3.5 
" style="stroke: #000000; stroke-width: 0.8"/>
      </defs>
      <g>
       <use xlink:href="#m40f6e048a9" x="52.019731" y="304.64" style="stroke: #000000; stroke-width: 0.8"/>
      </g>
     </g>
     <g id="text_1">
      <!-- 0 -->
      <g transform="translate(48.838481 319.238437) scale(0.1 -0.1)">
       <defs>
        <path id="DejaVuSans-30" d="M 2034 4250 
Q 1547 4250 1301 3770 
Q 1056 3291 1056 2328 
Q 1056 1369 1301 889 
Q 1547 409 2034 409 
Q 2525 409 2770 889 
Q 3016 1369 3016 2328 
Q 3016 3291 2770 3770 
Q 2525 4250 2034 4250 
z
M 2034 4750 
Q 2819 4750 3233 4129 
Q 3647 3509 3647 2328 
Q 3647 1150 3233 529 
Q 2819 -91 2034 -91 
Q 1250 -91 836 529 
Q 422 1150 422 2328 
Q 422 3509 836 4129 
Q 1250 4750 2034 4750 
z
" transform="scale(0.015625)"/>
       </defs>
       <use xlink:href="#DejaVuSans-30"/>
      </g>
     </g>
    </g>
    <g id="xtick_2">
     <g id="line2d_2">
      <g>
       <use xlink:href="#m40f6e048a9" x="100.345907" y="304.64" style="stroke: #000000; stroke-width: 0.8"/>
      </g>
     </g>
     <g id="text_2">
      <!-- 100 -->
      <g transform="translate(90.802157 319.238437) scale(0.1 -0.1)">
       <defs>
        <path id="DejaVuSans-31" d="M 794 531 
L 1825 531 
L 1825 4091 
L 703 3866 
L 703 4441 
L 1819 4666 
L 2450 4666 
L 2450 531 
L 3481 531 
L 3481 0 
L 794 0 
L 794 531 
z
" transform="scale(0.015625)"/>
       </defs>
       <use xlink:href="#DejaVuSans-31"/>
       <use xlink:href="#DejaVuSans-30" transform="translate(63.623047 0)"/>
       <use xlink:href="#DejaVuSans-30" transform="translate(127.246094 0)"/>
      </g>
     </g>
    </g>
    <g id="xtick_3">
     <g id="line2d_3">
      <g>
       <use xlink:href="#m40f6e048a9" x="148.672082" y="304.64" style="stroke: #000000; stroke-width: 0.8"/>
      </g>
     </g>
     <g id="text_3">
      <!-- 200 -->
      <g transform="translate(139.128332 319.238437) scale(0.1 -0.1)">
       <defs>
        <path id="DejaVuSans-32" d="M 1228 531 
L 3431 531 
L 3431 0 
L 469 0 
L 469 531 
Q 828 903 1448 1529 
Q 2069 2156 2228 2338 
Q 2531 2678 2651 2914 
Q 2772 3150 2772 3378 
Q 2772 3750 2511 3984 
Q 2250 4219 1831 4219 
Q 1534 4219 1204 4116 
Q 875 4013 500 3803 
L 500 4441 
Q 881 4594 1212 4672 
Q 1544 4750 1819 4750 
Q 2544 4750 2975 4387 
Q 3406 4025 3406 3419 
Q 3406 3131 3298 2873 
Q 3191 2616 2906 2266 
Q 2828 2175 2409 1742 
Q 1991 1309 1228 531 
z
" transform="scale(0.015625)"/>
       </defs>
       <use xlink:href="#DejaVuSans-32"/>
       <use xlink:href="#DejaVuSans-30" transform="translate(63.623047 0)"/>
       <use xlink:href="#DejaVuSans-30" transform="translate(127.246094 0)"/>
      </g>
     </g>
    </g>
    <g id="xtick_4">
     <g id="line2d_4">
      <g>
       <use xlink:href="#m40f6e048a9" x="196.998258" y="304.64" style="stroke: #000000; stroke-width: 0.8"/>
      </g>
     </g>
     <g id="text_4">
      <!-- 300 -->
      <g transform="translate(187.454508 319.238437) scale(0.1 -0.1)">
       <defs>
        <path id="DejaVuSans-33" d="M 2597 2516 
Q 3050 2419 3304 2112 
Q 3559 1806 3559 1356 
Q 3559 666 3084 287 
Q 2609 -91 1734 -91 
Q 1441 -91 1130 -33 
Q 819 25 488 141 
L 488 750 
Q 750 597 1062 519 
Q 1375 441 1716 441 
Q 2309 441 2620 675 
Q 2931 909 2931 1356 
Q 2931 1769 2642 2001 
Q 2353 2234 1838 2234 
L 1294 2234 
L 1294 2753 
L 1863 2753 
Q 2328 2753 2575 2939 
Q 2822 3125 2822 3475 
Q 2822 3834 2567 4026 
Q 2313 4219 1838 4219 
Q 1578 4219 1281 4162 
Q 984 4106 628 3988 
L 628 4550 
Q 988 4650 1302 4700 
Q 1616 4750 1894 4750 
Q 2613 4750 3031 4423 
Q 3450 4097 3450 3541 
Q 3450 3153 3228 2886 
Q 3006 2619 2597 2516 
z
" transform="scale(0.015625)"/>
       </defs>
       <use xlink:href="#DejaVuSans-33"/>
       <use xlink:href="#DejaVuSans-30" transform="translate(63.623047 0)"/>
       <use xlink:href="#DejaVuSans-30" transform="translate(127.246094 0)"/>
      </g>
     </g>
    </g>
    <g id="xtick_5">
     <g id="line2d_5">
      <g>
       <use xlink:href="#m40f6e048a9" x="245.324433" y="304.64" style="stroke: #000000; stroke-width: 0.8"/>
      </g>
     </g>
     <g id="text_5">
      <!-- 400 -->
      <g transform="translate(235.780683 319.238437) scale(0.1 -0.1)">
       <defs>
        <path id="DejaVuSans-34" d="M 2419 4116 
L 825 1625 
L 2419 1625 
L 2419 4116 
z
M 2253 4666 
L 3047 4666 
L 3047 1625 
L 3713 1625 
L 3713 1100 
L 3047 1100 
L 3047 0 
L 2419 0 
L 2419 1100 
L 313 1100 
L 313 1709 
L 2253 4666 
z
" transform="scale(0.015625)"/>
       </defs>
       <use xlink:href="#DejaVuSans-34"/>
       <use xlink:href="#DejaVuSans-30" transform="translate(63.623047 0)"/>
       <use xlink:href="#DejaVuSans-30" transform="translate(127.246094 0)"/>
      </g>
     </g>
    </g>
    <g id="xtick_6">
     <g id="line2d_6">
      <g>
       <use xlink:href="#m40f6e048a9" x="293.650609" y="304.64" style="stroke: #000000; stroke-width: 0.8"/>
      </g>
     </g>
     <g id="text_6">
      <!-- 500 -->
      <g transform="translate(284.106859 319.238437) scale(0.1 -0.1)">
       <defs>
        <path id="DejaVuSans-35" d="M 691 4666 
L 3169 4666 
L 3169 4134 
L 1269 4134 
L 1269 2991 
Q 1406 3038 1543 3061 
Q 1681 3084 1819 3084 
Q 2600 3084 3056 2656 
Q 3513 2228 3513 1497 
Q 3513 744 3044 326 
Q 2575 -91 1722 -91 
Q 1428 -91 1123 -41 
Q 819 9 494 109 
L 494 744 
Q 775 591 1075 516 
Q 1375 441 1709 441 
Q 2250 441 2565 725 
Q 2881 1009 2881 1497 
Q 2881 1984 2565 2268 
Q 2250 2553 1709 2553 
Q 1456 2553 1204 2497 
Q 953 2441 691 2322 
L 691 4666 
z
" transform="scale(0.015625)"/>
       </defs>
       <use xlink:href="#DejaVuSans-35"/>
       <use xlink:href="#DejaVuSans-30" transform="translate(63.623047 0)"/>
       <use xlink:href="#DejaVuSans-30" transform="translate(127.246094 0)"/>
      </g>
     </g>
    </g>
    <g id="xtick_7">
     <g id="line2d_7">
      <g>
       <use xlink:href="#m40f6e048a9" x="341.976784" y="304.64" style="stroke: #000000; stroke-width: 0.8"/>
      </g>
     </g>
     <g id="text_7">
      <!-- 600 -->
      <g transform="translate(332.433034 319.238437) scale(0.1 -0.1)">
       <defs>
        <path id="DejaVuSans-36" d="M 2113 2584 
Q 1688 2584 1439 2293 
Q 1191 2003 1191 1497 
Q 1191 994 1439 701 
Q 1688 409 2113 409 
Q 2538 409 2786 701 
Q 3034 994 3034 1497 
Q 3034 2003 2786 2293 
Q 2538 2584 2113 2584 
z
M 3366 4563 
L 3366 3988 
Q 3128 4100 2886 4159 
Q 2644 4219 2406 4219 
Q 1781 4219 1451 3797 
Q 1122 3375 1075 2522 
Q 1259 2794 1537 2939 
Q 1816 3084 2150 3084 
Q 2853 3084 3261 2657 
Q 3669 2231 3669 1497 
Q 3669 778 3244 343 
Q 2819 -91 2113 -91 
Q 1303 -91 875 529 
Q 447 1150 447 2328 
Q 447 3434 972 4092 
Q 1497 4750 2381 4750 
Q 2619 4750 2861 4703 
Q 3103 4656 3366 4563 
z
" transform="scale(0.015625)"/>
       </defs>
       <use xlink:href="#DejaVuSans-36"/>
       <use xlink:href="#DejaVuSans-30" transform="translate(63.623047 0)"/>
       <use xlink:href="#DejaVuSans-30" transform="translate(127.246094 0)"/>
      </g>
     </g>
    </g>
    <g id="xtick_8">
     <g id="line2d_8">
      <g>
       <use xlink:href="#m40f6e048a9" x="390.30296" y="304.64" style="stroke: #000000; stroke-width: 0.8"/>
      </g>
     </g>
     <g id="text_8">
      <!-- 700 -->
      <g transform="translate(380.75921 319.238437) scale(0.1 -0.1)">
       <defs>
        <path id="DejaVuSans-37" d="M 525 4666 
L 3525 4666 
L 3525 4397 
L 1831 0 
L 1172 0 
L 2766 4134 
L 525 4134 
L 525 4666 
z
" transform="scale(0.015625)"/>
       </defs>
       <use xlink:href="#DejaVuSans-37"/>
       <use xlink:href="#DejaVuSans-30" transform="translate(63.623047 0)"/>
       <use xlink:href="#DejaVuSans-30" transform="translate(127.246094 0)"/>
      </g>
     </g>
    </g>
    <g id="xtick_9">
     <g id="line2d_9">
      <g>
       <use xlink:href="#m40f6e048a9" x="438.629135" y="304.64" style="stroke: #000000; stroke-width: 0.8"/>
      </g>
     </g>
     <g id="text_9">
      <!-- 800 -->
      <g transform="translate(429.085385 319.238437) scale(0.1 -0.1)">
       <defs>
        <path id="DejaVuSans-38" d="M 2034 2216 
Q 1584 2216 1326 1975 
Q 1069 1734 1069 1313 
Q 1069 891 1326 650 
Q 1584 409 2034 409 
Q 2484 409 2743 651 
Q 3003 894 3003 1313 
Q 3003 1734 2745 1975 
Q 2488 2216 2034 2216 
z
M 1403 2484 
Q 997 2584 770 2862 
Q 544 3141 544 3541 
Q 544 4100 942 4425 
Q 1341 4750 2034 4750 
Q 2731 4750 3128 4425 
Q 3525 4100 3525 3541 
Q 3525 3141 3298 2862 
Q 3072 2584 2669 2484 
Q 3125 2378 3379 2068 
Q 3634 1759 3634 1313 
Q 3634 634 3220 271 
Q 2806 -91 2034 -91 
Q 1263 -91 848 271 
Q 434 634 434 1313 
Q 434 1759 690 2068 
Q 947 2378 1403 2484 
z
M 1172 3481 
Q 1172 3119 1398 2916 
Q 1625 2713 2034 2713 
Q 2441 2713 2670 2916 
Q 2900 3119 2900 3481 
Q 2900 3844 2670 4047 
Q 2441 4250 2034 4250 
Q 1625 4250 1398 4047 
Q 1172 3844 1172 3481 
z
" transform="scale(0.015625)"/>
       </defs>
       <use xlink:href="#DejaVuSans-38"/>
       <use xlink:href="#DejaVuSans-30" transform="translate(63.623047 0)"/>
       <use xlink:href="#DejaVuSans-30" transform="translate(127.246094 0)"/>
      </g>
     </g>
    </g>
    <g id="text_10">
     <!-- Temperature ($^{\circ}C$) -->
     <g transform="translate(201.0825 332.918125) scale(0.1 -0.1)">
      <defs>
       <path id="DejaVuSans-54" d="M -19 4666 
L 3928 4666 
L 3928 4134 
L 2272 4134 
L 2272 0 
L 1638 0 
L 1638 4134 
L -19 4134 
L -19 4666 
z
" transform="scale(0.015625)"/>
       <path id="DejaVuSans-65" d="M 3597 1894 
L 3597 1613 
L 953 1613 
Q 991 1019 1311 708 
Q 1631 397 2203 397 
Q 2534 397 2845 478 
Q 3156 559 3463 722 
L 3463 178 
Q 3153 47 2828 -22 
Q 2503 -91 2169 -91 
Q 1331 -91 842 396 
Q 353 884 353 1716 
Q 353 2575 817 3079 
Q 1281 3584 2069 3584 
Q 2775 3584 3186 3129 
Q 3597 2675 3597 1894 
z
M 3022 2063 
Q 3016 2534 2758 2815 
Q 2500 3097 2075 3097 
Q 1594 3097 1305 2825 
Q 1016 2553 972 2059 
L 3022 2063 
z
" transform="scale(0.015625)"/>
       <path id="DejaVuSans-6d" d="M 3328 2828 
Q 3544 3216 3844 3400 
Q 4144 3584 4550 3584 
Q 5097 3584 5394 3201 
Q 5691 2819 5691 2113 
L 5691 0 
L 5113 0 
L 5113 2094 
Q 5113 2597 4934 2840 
Q 4756 3084 4391 3084 
Q 3944 3084 3684 2787 
Q 3425 2491 3425 1978 
L 3425 0 
L 2847 0 
L 2847 2094 
Q 2847 2600 2669 2842 
Q 2491 3084 2119 3084 
Q 1678 3084 1418 2786 
Q 1159 2488 1159 1978 
L 1159 0 
L 581 0 
L 581 3500 
L 1159 3500 
L 1159 2956 
Q 1356 3278 1631 3431 
Q 1906 3584 2284 3584 
Q 2666 3584 2933 3390 
Q 3200 3197 3328 2828 
z
" transform="scale(0.015625)"/>
       <path id="DejaVuSans-70" d="M 1159 525 
L 1159 -1331 
L 581 -1331 
L 581 3500 
L 1159 3500 
L 1159 2969 
Q 1341 3281 1617 3432 
Q 1894 3584 2278 3584 
Q 2916 3584 3314 3078 
Q 3713 2572 3713 1747 
Q 3713 922 3314 415 
Q 2916 -91 2278 -91 
Q 1894 -91 1617 61 
Q 1341 213 1159 525 
z
M 3116 1747 
Q 3116 2381 2855 2742 
Q 2594 3103 2138 3103 
Q 1681 3103 1420 2742 
Q 1159 2381 1159 1747 
Q 1159 1113 1420 752 
Q 1681 391 2138 391 
Q 2594 391 2855 752 
Q 3116 1113 3116 1747 
z
" transform="scale(0.015625)"/>
       <path id="DejaVuSans-72" d="M 2631 2963 
Q 2534 3019 2420 3045 
Q 2306 3072 2169 3072 
Q 1681 3072 1420 2755 
Q 1159 2438 1159 1844 
L 1159 0 
L 581 0 
L 581 3500 
L 1159 3500 
L 1159 2956 
Q 1341 3275 1631 3429 
Q 1922 3584 2338 3584 
Q 2397 3584 2469 3576 
Q 2541 3569 2628 3553 
L 2631 2963 
z
" transform="scale(0.015625)"/>
       <path id="DejaVuSans-61" d="M 2194 1759 
Q 1497 1759 1228 1600 
Q 959 1441 959 1056 
Q 959 750 1161 570 
Q 1363 391 1709 391 
Q 2188 391 2477 730 
Q 2766 1069 2766 1631 
L 2766 1759 
L 2194 1759 
z
M 3341 1997 
L 3341 0 
L 2766 0 
L 2766 531 
Q 2569 213 2275 61 
Q 1981 -91 1556 -91 
Q 1019 -91 701 211 
Q 384 513 384 1019 
Q 384 1609 779 1909 
Q 1175 2209 1959 2209 
L 2766 2209 
L 2766 2266 
Q 2766 2663 2505 2880 
Q 2244 3097 1772 3097 
Q 1472 3097 1187 3025 
Q 903 2953 641 2809 
L 641 3341 
Q 956 3463 1253 3523 
Q 1550 3584 1831 3584 
Q 2591 3584 2966 3190 
Q 3341 2797 3341 1997 
z
" transform="scale(0.015625)"/>
       <path id="DejaVuSans-74" d="M 1172 4494 
L 1172 3500 
L 2356 3500 
L 2356 3053 
L 1172 3053 
L 1172 1153 
Q 1172 725 1289 603 
Q 1406 481 1766 481 
L 2356 481 
L 2356 0 
L 1766 0 
Q 1100 0 847 248 
Q 594 497 594 1153 
L 594 3053 
L 172 3053 
L 172 3500 
L 594 3500 
L 594 4494 
L 1172 4494 
z
" transform="scale(0.015625)"/>
       <path id="DejaVuSans-75" d="M 544 1381 
L 544 3500 
L 1119 3500 
L 1119 1403 
Q 1119 906 1312 657 
Q 1506 409 1894 409 
Q 2359 409 2629 706 
Q 2900 1003 2900 1516 
L 2900 3500 
L 3475 3500 
L 3475 0 
L 2900 0 
L 2900 538 
Q 2691 219 2414 64 
Q 2138 -91 1772 -91 
Q 1169 -91 856 284 
Q 544 659 544 1381 
z
M 1991 3584 
L 1991 3584 
z
" transform="scale(0.015625)"/>
       <path id="DejaVuSans-20" transform="scale(0.015625)"/>
       <path id="DejaVuSans-28" d="M 1984 4856 
Q 1566 4138 1362 3434 
Q 1159 2731 1159 2009 
Q 1159 1288 1364 580 
Q 1569 -128 1984 -844 
L 1484 -844 
Q 1016 -109 783 600 
Q 550 1309 550 2009 
Q 550 2706 781 3412 
Q 1013 4119 1484 4856 
L 1984 4856 
z
" transform="scale(0.015625)"/>
       <path id="DejaVuSans-2218" d="M 2000 2619 
Q 1750 2619 1578 2445 
Q 1406 2272 1406 2022 
Q 1406 1775 1578 1605 
Q 1750 1435 2000 1435 
Q 2250 1435 2422 1605 
Q 2594 1775 2594 2022 
Q 2594 2269 2420 2444 
Q 2247 2619 2000 2619 
z
M 2000 3022 
Q 2200 3022 2384 2945 
Q 2569 2869 2703 2725 
Q 2847 2585 2919 2406 
Q 2991 2228 2991 2022 
Q 2991 1610 2702 1324 
Q 2413 1038 1994 1038 
Q 1572 1038 1290 1319 
Q 1009 1600 1009 2022 
Q 1009 2441 1296 2731 
Q 1584 3022 2000 3022 
z
" transform="scale(0.015625)"/>
       <path id="DejaVuSans-Oblique-43" d="M 4447 4306 
L 4319 3641 
Q 4019 3944 3683 4091 
Q 3347 4238 2956 4238 
Q 2422 4238 2017 3981 
Q 1613 3725 1319 3200 
Q 1131 2863 1032 2486 
Q 934 2109 934 1728 
Q 934 1091 1264 756 
Q 1594 422 2222 422 
Q 2656 422 3056 561 
Q 3456 700 3834 978 
L 3688 231 
Q 3316 72 2936 -9 
Q 2556 -91 2175 -91 
Q 1278 -91 773 396 
Q 269 884 269 1753 
Q 269 2309 461 2846 
Q 653 3384 1013 3828 
Q 1394 4300 1883 4525 
Q 2372 4750 3022 4750 
Q 3422 4750 3780 4639 
Q 4138 4528 4447 4306 
z
" transform="scale(0.015625)"/>
       <path id="DejaVuSans-29" d="M 513 4856 
L 1013 4856 
Q 1481 4119 1714 3412 
Q 1947 2706 1947 2009 
Q 1947 1309 1714 600 
Q 1481 -109 1013 -844 
L 513 -844 
Q 928 -128 1133 580 
Q 1338 1288 1338 2009 
Q 1338 2731 1133 3434 
Q 928 4138 513 4856 
z
" transform="scale(0.015625)"/>
      </defs>
      <use xlink:href="#DejaVuSans-54" transform="translate(0 0.125)"/>
      <use xlink:href="#DejaVuSans-65" transform="translate(61.083984 0.125)"/>
      <use xlink:href="#DejaVuSans-6d" transform="translate(122.607422 0.125)"/>
      <use xlink:href="#DejaVuSans-70" transform="translate(220.019531 0.125)"/>
      <use xlink:href="#DejaVuSans-65" transform="translate(283.496094 0.125)"/>
      <use xlink:href="#DejaVuSans-72" transform="translate(345.019531 0.125)"/>
      <use xlink:href="#DejaVuSans-61" transform="translate(386.132812 0.125)"/>
      <use xlink:href="#DejaVuSans-74" transform="translate(447.412109 0.125)"/>
      <use xlink:href="#DejaVuSans-75" transform="translate(486.621094 0.125)"/>
      <use xlink:href="#DejaVuSans-72" transform="translate(550 0.125)"/>
      <use xlink:href="#DejaVuSans-65" transform="translate(591.113281 0.125)"/>
      <use xlink:href="#DejaVuSans-20" transform="translate(652.636719 0.125)"/>
      <use xlink:href="#DejaVuSans-28" transform="translate(684.423828 0.125)"/>
      <use xlink:href="#DejaVuSans-2218" transform="translate(724.394531 38.40625) scale(0.7)"/>
      <use xlink:href="#DejaVuSans-Oblique-43" transform="translate(770.947266 0.125)"/>
      <use xlink:href="#DejaVuSans-29" transform="translate(840.771484 0.125)"/>
     </g>
    </g>
   </g>
   <g id="matplotlib.axis_2">
    <g id="ytick_1">
     <g id="line2d_10">
      <defs>
       <path id="m73e1c289e4" d="M 0 0 
L -3.5 0 
" style="stroke: #000000; stroke-width: 0.8"/>
      </defs>
      <g>
       <use xlink:href="#m73e1c289e4" x="40.165" y="291.78" style="stroke: #000000; stroke-width: 0.8"/>
      </g>
     </g>
     <g id="text_11">
      <!-- 0 -->
      <g transform="translate(26.8025 295.579219) scale(0.1 -0.1)">
       <use xlink:href="#DejaVuSans-30"/>
      </g>
     </g>
    </g>
    <g id="ytick_2">
     <g id="line2d_11">
      <g>
       <use xlink:href="#m73e1c289e4" x="40.165" y="243.251698" style="stroke: #000000; stroke-width: 0.8"/>
      </g>
     </g>
     <g id="text_12">
      <!-- 1 -->
      <g transform="translate(26.8025 247.050917) scale(0.1 -0.1)">
       <use xlink:href="#DejaVuSans-31"/>
      </g>
     </g>
    </g>
    <g id="ytick_3">
     <g id="line2d_12">
      <g>
       <use xlink:href="#m73e1c289e4" x="40.165" y="194.723396" style="stroke: #000000; stroke-width: 0.8"/>
      </g>
     </g>
     <g id="text_13">
      <!-- 2 -->
      <g transform="translate(26.8025 198.522615) scale(0.1 -0.1)">
       <use xlink:href="#DejaVuSans-32"/>
      </g>
     </g>
    </g>
    <g id="ytick_4">
     <g id="line2d_13">
      <g>
       <use xlink:href="#m73e1c289e4" x="40.165" y="146.195094" style="stroke: #000000; stroke-width: 0.8"/>
      </g>
     </g>
     <g id="text_14">
      <!-- 3 -->
      <g transform="translate(26.8025 149.994313) scale(0.1 -0.1)">
       <use xlink:href="#DejaVuSans-33"/>
      </g>
     </g>
    </g>
    <g id="ytick_5">
     <g id="line2d_14">
      <g>
       <use xlink:href="#m73e1c289e4" x="40.165" y="97.666792" style="stroke: #000000; stroke-width: 0.8"/>
      </g>
     </g>
     <g id="text_15">
      <!-- 4 -->
      <g transform="translate(26.8025 101.466011) scale(0.1 -0.1)">
       <use xlink:href="#DejaVuSans-34"/>
      </g>
     </g>
    </g>
    <g id="ytick_6">
     <g id="line2d_15">
      <g>
       <use xlink:href="#m73e1c289e4" x="40.165" y="49.138491" style="stroke: #000000; stroke-width: 0.8"/>
      </g>
     </g>
     <g id="text_16">
      <!-- 5 -->
      <g transform="translate(26.8025 52.937709) scale(0.1 -0.1)">
       <use xlink:href="#DejaVuSans-35"/>
      </g>
     </g>
    </g>
    <g id="text_17">
     <!-- Intensity ($^{\circ}C^{-1}$) -->
     <g transform="translate(20.7025 201.98) rotate(-90) scale(0.1 -0.1)">
      <defs>
       <path id="DejaVuSans-49" d="M 628 4666 
L 1259 4666 
L 1259 0 
L 628 0 
L 628 4666 
z
" transform="scale(0.015625)"/>
       <path id="DejaVuSans-6e" d="M 3513 2113 
L 3513 0 
L 2938 0 
L 2938 2094 
Q 2938 2591 2744 2837 
Q 2550 3084 2163 3084 
Q 1697 3084 1428 2787 
Q 1159 2491 1159 1978 
L 1159 0 
L 581 0 
L 581 3500 
L 1159 3500 
L 1159 2956 
Q 1366 3272 1645 3428 
Q 1925 3584 2291 3584 
Q 2894 3584 3203 3211 
Q 3513 2838 3513 2113 
z
" transform="scale(0.015625)"/>
       <path id="DejaVuSans-73" d="M 2834 3397 
L 2834 2853 
Q 2591 2978 2328 3040 
Q 2066 3103 1784 3103 
Q 1356 3103 1142 2972 
Q 928 2841 928 2578 
Q 928 2378 1081 2264 
Q 1234 2150 1697 2047 
L 1894 2003 
Q 2506 1872 2764 1633 
Q 3022 1394 3022 966 
Q 3022 478 2636 193 
Q 2250 -91 1575 -91 
Q 1294 -91 989 -36 
Q 684 19 347 128 
L 347 722 
Q 666 556 975 473 
Q 1284 391 1588 391 
Q 1994 391 2212 530 
Q 2431 669 2431 922 
Q 2431 1156 2273 1281 
Q 2116 1406 1581 1522 
L 1381 1569 
Q 847 1681 609 1914 
Q 372 2147 372 2553 
Q 372 3047 722 3315 
Q 1072 3584 1716 3584 
Q 2034 3584 2315 3537 
Q 2597 3491 2834 3397 
z
" transform="scale(0.015625)"/>
       <path id="DejaVuSans-69" d="M 603 3500 
L 1178 3500 
L 1178 0 
L 603 0 
L 603 3500 
z
M 603 4863 
L 1178 4863 
L 1178 4134 
L 603 4134 
L 603 4863 
z
" transform="scale(0.015625)"/>
       <path id="DejaVuSans-79" d="M 2059 -325 
Q 1816 -950 1584 -1140 
Q 1353 -1331 966 -1331 
L 506 -1331 
L 506 -850 
L 844 -850 
Q 1081 -850 1212 -737 
Q 1344 -625 1503 -206 
L 1606 56 
L 191 3500 
L 800 3500 
L 1894 763 
L 2988 3500 
L 3597 3500 
L 2059 -325 
z
" transform="scale(0.015625)"/>
       <path id="DejaVuSans-2212" d="M 678 2272 
L 4684 2272 
L 4684 1741 
L 678 1741 
L 678 2272 
z
" transform="scale(0.015625)"/>
      </defs>
      <use xlink:href="#DejaVuSans-49" transform="translate(0 0.684375)"/>
      <use xlink:href="#DejaVuSans-6e" transform="translate(29.492188 0.684375)"/>
      <use xlink:href="#DejaVuSans-74" transform="translate(92.871094 0.684375)"/>
      <use xlink:href="#DejaVuSans-65" transform="translate(132.080078 0.684375)"/>
      <use xlink:href="#DejaVuSans-6e" transform="translate(193.603516 0.684375)"/>
      <use xlink:href="#DejaVuSans-73" transform="translate(256.982422 0.684375)"/>
      <use xlink:href="#DejaVuSans-69" transform="translate(309.082031 0.684375)"/>
      <use xlink:href="#DejaVuSans-74" transform="translate(336.865234 0.684375)"/>
      <use xlink:href="#DejaVuSans-79" transform="translate(376.074219 0.684375)"/>
      <use xlink:href="#DejaVuSans-20" transform="translate(435.253906 0.684375)"/>
      <use xlink:href="#DejaVuSans-28" transform="translate(467.041016 0.684375)"/>
      <use xlink:href="#DejaVuSans-2218" transform="translate(507.011719 38.965625) scale(0.7)"/>
      <use xlink:href="#DejaVuSans-Oblique-43" transform="translate(553.564453 0.684375)"/>
      <use xlink:href="#DejaVuSans-2212" transform="translate(630.589193 38.965625) scale(0.7)"/>
      <use xlink:href="#DejaVuSans-31" transform="translate(689.241536 38.965625) scale(0.7)"/>
      <use xlink:href="#DejaVuSans-29" transform="translate(736.512044 0.684375)"/>
     </g>
    </g>
   </g>
   <g id="line2d_16">
    <path d="M 58.793864 291.78 
L 109.115989 291.78 
L 109.599855 290.971195 
L 114.438521 290.971195 
L 114.922388 290.16239 
L 123.631986 290.16239 
L 124.115853 290.971195 
L 127.986786 290.971195 
L 128.470652 290.16239 
L 128.954519 290.16239 
L 129.438385 290.971195 
L 129.922252 290.16239 
L 130.406119 290.16239 
L 131.373852 288.54478 
L 132.341585 288.54478 
L 132.825452 287.735975 
L 133.309318 287.735975 
L 133.793185 286.118365 
L 134.760918 286.118365 
L 135.244785 285.30956 
L 136.212518 285.30956 
L 136.696384 284.500755 
L 137.180251 282.883145 
L 138.631851 282.883145 
L 139.115717 281.265535 
L 141.051184 281.265535 
L 141.53505 280.45673 
L 142.018917 278.030314 
L 142.98665 276.412704 
L 143.954383 273.177484 
L 144.43825 273.177484 
L 144.922116 272.368679 
L 145.405983 273.177484 
L 146.373716 271.559874 
L 146.857583 269.942264 
L 147.341449 269.133459 
L 147.825316 267.515849 
L 148.309182 268.324654 
L 149.276916 266.707044 
L 149.760782 267.515849 
L 150.244649 265.898239 
L 150.728515 265.898239 
L 151.212382 265.089434 
L 151.696249 265.898239 
L 152.180115 265.089434 
L 152.663982 265.089434 
L 153.147848 263.471824 
L 153.631715 264.280629 
L 154.115581 262.663019 
L 154.599448 260.236604 
L 155.567181 258.618994 
L 156.051048 258.618994 
L 156.534914 260.236604 
L 157.018781 261.045409 
L 157.502648 260.236604 
L 158.470381 261.854214 
L 158.954247 261.045409 
L 159.438114 261.854214 
L 159.921981 258.618994 
L 160.405847 257.810189 
L 160.889714 258.618994 
L 161.37358 257.001384 
L 161.857447 258.618994 
L 162.341313 258.618994 
L 162.82518 257.001384 
L 163.309047 256.192579 
L 163.792913 257.001384 
L 164.27678 253.766164 
L 164.760646 254.574969 
L 165.244513 253.766164 
L 165.72838 254.574969 
L 166.212246 252.957358 
L 167.179979 248.104528 
L 167.663846 248.104528 
L 168.631579 246.486918 
L 169.115446 246.486918 
L 169.599312 245.678113 
L 170.083179 246.486918 
L 170.567045 243.251698 
L 171.050912 240.825283 
L 171.534779 237.590063 
L 172.018645 239.207673 
L 172.986378 237.590063 
L 173.954112 237.590063 
L 174.437978 238.398868 
L 174.921845 238.398868 
L 175.405711 236.781258 
L 175.889578 238.398868 
L 176.857311 236.781258 
L 177.341178 236.781258 
L 178.308911 235.163648 
L 178.792777 238.398868 
L 179.760511 238.398868 
L 180.244377 234.354843 
L 180.728244 235.163648 
L 181.21211 236.781258 
L 181.695977 235.163648 
L 182.179844 232.737233 
L 182.66371 229.502013 
L 183.147577 229.502013 
L 183.631443 230.310818 
L 184.11531 228.693208 
L 184.599177 224.649182 
L 185.083043 226.266792 
L 185.56691 227.075597 
L 186.050776 228.693208 
L 186.534643 227.884403 
L 187.018509 227.884403 
L 187.502376 229.502013 
L 187.986243 228.693208 
L 188.470109 228.693208 
L 188.953976 231.119623 
L 190.405576 228.693208 
L 190.889442 228.693208 
L 191.373309 227.884403 
L 191.857175 227.884403 
L 192.341042 227.075597 
L 192.824909 223.031572 
L 193.308775 221.413962 
L 193.792642 220.605157 
L 194.276508 220.605157 
L 194.760375 223.031572 
L 195.244241 223.840377 
L 195.728108 223.031572 
L 197.179708 227.884403 
L 197.663574 227.075597 
L 198.147441 227.075597 
L 199.115174 230.310818 
L 199.599041 231.119623 
L 200.082907 231.119623 
L 200.566774 229.502013 
L 201.05064 229.502013 
L 201.534507 227.075597 
L 202.018374 223.840377 
L 202.50224 221.413962 
L 202.986107 214.943522 
L 203.469973 214.943522 
L 203.95384 216.561132 
L 204.921573 214.943522 
L 205.889306 214.943522 
L 206.373173 215.752327 
L 206.85704 217.369937 
L 207.340906 218.178742 
L 207.824773 217.369937 
L 208.308639 214.943522 
L 210.244106 214.943522 
L 210.727972 210.899497 
L 211.211839 212.517107 
L 211.695705 210.090692 
L 212.179572 212.517107 
L 212.663439 210.899497 
L 213.147305 208.473082 
L 213.631172 209.281887 
L 214.115038 206.855472 
L 214.598905 203.620252 
L 215.082772 204.429057 
L 215.566638 200.385031 
L 216.050505 202.811447 
L 216.534371 203.620252 
L 217.018238 206.855472 
L 217.502104 209.281887 
L 217.985971 208.473082 
L 218.469838 206.855472 
L 218.953704 206.855472 
L 219.437571 208.473082 
L 219.921437 206.855472 
L 220.405304 206.855472 
L 221.373037 205.237862 
L 222.34077 202.002642 
L 222.824637 202.002642 
L 223.308504 198.767421 
L 223.79237 199.576226 
L 224.276237 197.149811 
L 224.760103 196.341006 
L 225.24397 199.576226 
L 225.727836 197.149811 
L 226.211703 198.767421 
L 226.69557 197.958616 
L 227.179436 196.341006 
L 227.663303 197.149811 
L 229.598769 197.149811 
L 230.082636 199.576226 
L 230.566502 197.958616 
L 231.534236 199.576226 
L 232.018102 202.002642 
L 232.501969 201.193836 
L 232.985835 202.002642 
L 233.469702 202.002642 
L 233.953568 200.385031 
L 234.437435 199.576226 
L 234.921302 199.576226 
L 235.405168 198.767421 
L 235.889035 199.576226 
L 236.372901 202.811447 
L 236.856768 200.385031 
L 237.340635 202.002642 
L 237.824501 202.811447 
L 238.308368 200.385031 
L 238.792234 202.811447 
L 239.276101 202.811447 
L 239.759968 203.620252 
L 240.243834 202.811447 
L 240.727701 205.237862 
L 241.211567 203.620252 
L 241.695434 206.855472 
L 242.1793 203.620252 
L 242.663167 202.002642 
L 243.147034 199.576226 
L 243.6309 198.767421 
L 244.114767 199.576226 
L 244.598633 198.767421 
L 245.0825 200.385031 
L 245.566367 199.576226 
L 246.050233 199.576226 
L 246.5341 196.341006 
L 247.501833 196.341006 
L 247.9857 193.914591 
L 248.469566 193.914591 
L 248.953433 194.723396 
L 249.437299 193.914591 
L 249.921166 191.488176 
L 250.405032 192.296981 
L 250.888899 190.679371 
L 251.372766 193.914591 
L 252.340499 197.149811 
L 252.824365 200.385031 
L 253.308232 194.723396 
L 254.275965 196.341006 
L 254.759832 196.341006 
L 255.243698 194.723396 
L 255.727565 195.532201 
L 256.211432 193.105786 
L 256.695298 197.149811 
L 257.179165 197.958616 
L 257.663031 202.002642 
L 258.146898 207.664277 
L 258.630764 205.237862 
L 259.114631 206.855472 
L 259.598498 207.664277 
L 260.082364 206.855472 
L 260.566231 202.002642 
L 261.050097 205.237862 
L 261.533964 205.237862 
L 262.017831 206.855472 
L 262.501697 211.708302 
L 262.985564 213.325912 
L 263.46943 211.708302 
L 263.953297 212.517107 
L 264.437164 218.178742 
L 264.92103 217.369937 
L 265.404897 218.987547 
L 265.888763 221.413962 
L 266.37263 214.943522 
L 266.856496 215.752327 
L 267.340363 213.325912 
L 267.82423 214.943522 
L 268.308096 215.752327 
L 268.791963 214.943522 
L 269.275829 216.561132 
L 269.759696 218.987547 
L 270.243563 215.752327 
L 270.727429 219.796352 
L 271.211296 219.796352 
L 271.695162 218.987547 
L 272.179029 218.987547 
L 272.662896 218.178742 
L 273.146762 218.987547 
L 273.630629 221.413962 
L 274.114495 219.796352 
L 275.082228 223.031572 
L 275.566095 222.222767 
L 276.049962 220.605157 
L 276.533828 219.796352 
L 277.017695 214.943522 
L 277.501561 214.134717 
L 277.985428 214.943522 
L 278.469295 216.561132 
L 278.953161 215.752327 
L 279.437028 215.752327 
L 279.920894 217.369937 
L 280.404761 214.134717 
L 281.372494 214.134717 
L 281.856361 215.752327 
L 282.340227 218.987547 
L 282.824094 219.796352 
L 283.30796 217.369937 
L 283.791827 217.369937 
L 284.275694 215.752327 
L 284.75956 217.369937 
L 285.243427 213.325912 
L 285.727293 211.708302 
L 286.21116 213.325912 
L 286.695027 213.325912 
L 287.66276 211.708302 
L 288.146626 209.281887 
L 289.11436 209.281887 
L 289.598226 212.517107 
L 290.082093 214.134717 
L 290.565959 216.561132 
L 291.049826 216.561132 
L 291.533692 218.987547 
L 292.501426 220.605157 
L 293.469159 217.369937 
L 294.436892 217.369937 
L 294.920759 220.605157 
L 295.404625 223.031572 
L 295.888492 223.031572 
L 296.372358 224.649182 
L 296.856225 223.840377 
L 297.340091 218.987547 
L 297.823958 223.031572 
L 298.307825 223.031572 
L 298.791691 224.649182 
L 299.275558 225.457987 
L 299.759424 225.457987 
L 300.243291 227.884403 
L 301.694891 230.310818 
L 302.178757 232.737233 
L 302.662624 231.928428 
L 303.146491 232.737233 
L 303.630357 231.119623 
L 304.114224 228.693208 
L 305.081957 227.075597 
L 306.533557 227.075597 
L 307.017423 228.693208 
L 307.50129 228.693208 
L 308.469023 227.075597 
L 308.95289 227.075597 
L 309.436756 227.884403 
L 309.920623 230.310818 
L 310.888356 222.222767 
L 311.372223 223.840377 
L 311.856089 228.693208 
L 312.339956 227.884403 
L 312.823822 229.502013 
L 313.307689 227.884403 
L 314.275422 234.354843 
L 314.759289 235.163648 
L 315.243155 232.737233 
L 315.727022 231.928428 
L 316.210888 233.546038 
L 316.694755 232.737233 
L 317.178622 233.546038 
L 317.662488 233.546038 
L 318.146355 236.781258 
L 318.630221 236.781258 
L 319.114088 235.972453 
L 319.597955 235.972453 
L 320.081821 237.590063 
L 320.565688 237.590063 
L 321.049554 234.354843 
L 321.533421 233.546038 
L 322.017287 233.546038 
L 322.501154 236.781258 
L 322.985021 237.590063 
L 323.952754 232.737233 
L 324.43662 232.737233 
L 324.920487 236.781258 
L 325.404354 239.207673 
L 325.88822 238.398868 
L 326.372087 235.972453 
L 326.855953 235.163648 
L 327.33982 231.928428 
L 327.823687 231.928428 
L 328.307553 228.693208 
L 328.79142 223.031572 
L 329.275286 222.222767 
L 329.759153 223.031572 
L 330.243019 223.031572 
L 330.726886 220.605157 
L 331.210753 220.605157 
L 331.694619 219.796352 
L 332.178486 220.605157 
L 332.662352 218.178742 
L 333.630086 221.413962 
L 334.113952 219.796352 
L 334.597819 217.369937 
L 335.081685 220.605157 
L 335.565552 224.649182 
L 336.049419 223.840377 
L 336.533285 224.649182 
L 337.017152 224.649182 
L 337.501018 223.031572 
L 337.984885 224.649182 
L 338.468751 225.457987 
L 338.952618 227.075597 
L 339.436485 224.649182 
L 339.920351 223.031572 
L 340.888084 224.649182 
L 341.371951 223.031572 
L 341.855818 224.649182 
L 342.339684 225.457987 
L 342.823551 228.693208 
L 343.307417 233.546038 
L 343.791284 233.546038 
L 344.759017 236.781258 
L 345.242884 235.972453 
L 345.72675 235.972453 
L 346.210617 237.590063 
L 346.694483 235.972453 
L 347.17835 236.781258 
L 348.146083 235.163648 
L 348.62995 235.163648 
L 349.113816 235.972453 
L 349.597683 233.546038 
L 350.08155 232.737233 
L 351.049283 235.972453 
L 351.533149 234.354843 
L 352.017016 236.781258 
L 352.500883 238.398868 
L 352.984749 239.207673 
L 353.468616 238.398868 
L 353.952482 236.781258 
L 354.436349 238.398868 
L 354.920215 237.590063 
L 355.887949 239.207673 
L 356.371815 241.634088 
L 356.855682 242.442893 
L 357.339548 240.016478 
L 357.823415 238.398868 
L 358.307282 239.207673 
L 358.791148 237.590063 
L 359.275015 236.781258 
L 359.758881 238.398868 
L 360.242748 238.398868 
L 360.726615 239.207673 
L 361.210481 240.825283 
L 361.694348 241.634088 
L 362.178214 243.251698 
L 362.662081 243.251698 
L 363.145947 246.486918 
L 363.629814 248.104528 
L 364.113681 248.913333 
L 364.597547 248.913333 
L 365.56528 247.295723 
L 366.049147 248.913333 
L 366.533014 248.913333 
L 367.500747 245.678113 
L 367.984613 245.678113 
L 368.46848 249.722138 
L 368.952347 251.339748 
L 369.436213 251.339748 
L 370.403946 252.957358 
L 370.887813 252.957358 
L 371.371679 251.339748 
L 371.855546 253.766164 
L 372.339413 257.001384 
L 372.823279 254.574969 
L 373.307146 255.383774 
L 373.791012 257.001384 
L 374.758746 257.001384 
L 375.242612 256.192579 
L 375.726479 254.574969 
L 376.210345 253.766164 
L 376.694212 253.766164 
L 377.178079 255.383774 
L 377.661945 254.574969 
L 378.145812 252.957358 
L 378.629678 253.766164 
L 379.113545 253.766164 
L 379.597411 252.957358 
L 380.081278 253.766164 
L 380.565145 253.766164 
L 381.049011 254.574969 
L 381.532878 253.766164 
L 382.016744 256.192579 
L 383.952211 256.192579 
L 384.436077 257.001384 
L 384.919944 259.427799 
L 385.403811 257.810189 
L 385.887677 258.618994 
L 386.371544 257.810189 
L 386.85541 256.192579 
L 387.339277 259.427799 
L 387.823143 260.236604 
L 388.30701 258.618994 
L 388.790877 258.618994 
L 389.75861 260.236604 
L 390.242476 260.236604 
L 390.726343 259.427799 
L 391.21021 260.236604 
L 391.694076 259.427799 
L 392.177943 257.810189 
L 392.661809 258.618994 
L 393.145676 258.618994 
L 393.629543 257.810189 
L 394.113409 259.427799 
L 394.597276 260.236604 
L 395.081142 260.236604 
L 395.565009 257.810189 
L 396.048875 257.810189 
L 396.532742 256.192579 
L 397.500475 254.574969 
L 397.984342 252.957358 
L 398.468208 253.766164 
L 399.919808 251.339748 
L 400.403675 252.957358 
L 400.887541 252.957358 
L 401.371408 254.574969 
L 401.855274 252.957358 
L 402.339141 252.957358 
L 402.823008 252.148553 
L 403.306874 253.766164 
L 404.274607 253.766164 
L 404.758474 256.192579 
L 405.242341 257.810189 
L 405.726207 257.810189 
L 406.210074 257.001384 
L 406.69394 259.427799 
L 407.661674 259.427799 
L 408.629407 261.045409 
L 409.113273 258.618994 
L 409.59714 257.001384 
L 410.081006 257.810189 
L 410.564873 260.236604 
L 411.04874 261.045409 
L 411.532606 263.471824 
L 412.016473 264.280629 
L 413.468073 261.854214 
L 413.951939 261.854214 
L 414.435806 263.471824 
L 414.919672 262.663019 
L 415.403539 262.663019 
L 415.887406 261.045409 
L 416.371272 262.663019 
L 416.855139 260.236604 
L 417.339005 261.854214 
L 417.822872 261.854214 
L 418.790605 263.471824 
L 420.726071 263.471824 
L 421.209938 261.045409 
L 421.693805 260.236604 
L 422.177671 258.618994 
L 422.661538 259.427799 
L 423.145404 258.618994 
L 423.629271 260.236604 
L 424.597004 261.854214 
L 425.564737 260.236604 
L 426.048604 260.236604 
L 426.53247 259.427799 
L 427.016337 261.045409 
L 428.951803 264.280629 
L 429.919537 264.280629 
L 430.403403 265.089434 
L 430.88727 264.280629 
L 431.371136 267.515849 
L 431.371136 267.515849 
" clip-path="url(#pcb88200081)" style="fill: none; stroke-dasharray: 1.85,0.8; stroke-dashoffset: 0; stroke: #8000ff; stroke-width: 0.5"/>
   </g>
   <g id="line2d_17">
    <path d="M 58.793864 291.78 
L 124.59972 291.78 
L 125.083586 290.971195 
L 127.019053 290.971195 
L 127.502919 290.16239 
L 134.277051 290.16239 
L 134.760918 288.54478 
L 140.08345 288.54478 
L 141.53505 286.118365 
L 142.018917 286.92717 
L 145.405983 286.92717 
L 145.889849 286.118365 
L 147.341449 286.118365 
L 147.825316 285.30956 
L 148.309182 285.30956 
L 148.793049 284.500755 
L 149.276916 286.118365 
L 149.760782 285.30956 
L 152.180115 285.30956 
L 152.663982 283.69195 
L 153.147848 283.69195 
L 153.631715 282.883145 
L 154.115581 283.69195 
L 154.599448 282.883145 
L 155.567181 284.500755 
L 156.051048 282.883145 
L 157.502648 282.883145 
L 158.470381 281.265535 
L 159.438114 281.265535 
L 160.405847 279.647925 
L 160.889714 279.647925 
L 161.37358 278.030314 
L 161.857447 277.221509 
L 162.341313 277.221509 
L 162.82518 276.412704 
L 163.309047 276.412704 
L 163.792913 274.795094 
L 164.27678 275.603899 
L 166.696113 271.559874 
L 167.179979 272.368679 
L 167.663846 272.368679 
L 168.147713 273.177484 
L 168.631579 271.559874 
L 169.599312 269.942264 
L 170.083179 267.515849 
L 170.567045 269.133459 
L 171.050912 268.324654 
L 171.534779 268.324654 
L 172.018645 267.515849 
L 172.502512 265.898239 
L 172.986378 265.898239 
L 173.470245 263.471824 
L 173.954112 263.471824 
L 174.437978 261.854214 
L 174.921845 261.045409 
L 175.405711 259.427799 
L 175.889578 260.236604 
L 176.373445 258.618994 
L 176.857311 258.618994 
L 177.341178 257.810189 
L 177.825044 256.192579 
L 178.308911 257.001384 
L 178.792777 256.192579 
L 179.760511 257.810189 
L 180.728244 254.574969 
L 181.21211 254.574969 
L 181.695977 255.383774 
L 182.179844 254.574969 
L 182.66371 254.574969 
L 183.147577 256.192579 
L 183.631443 257.001384 
L 184.11531 257.001384 
L 184.599177 259.427799 
L 185.083043 258.618994 
L 185.56691 258.618994 
L 186.050776 257.001384 
L 186.534643 256.192579 
L 187.018509 257.001384 
L 187.502376 256.192579 
L 187.986243 257.001384 
L 188.953976 257.001384 
L 189.437842 257.810189 
L 189.921709 256.192579 
L 190.405576 253.766164 
L 190.889442 255.383774 
L 191.373309 252.957358 
L 192.341042 254.574969 
L 192.824909 252.957358 
L 193.308775 252.148553 
L 193.792642 248.913333 
L 194.276508 248.104528 
L 194.760375 248.104528 
L 195.244241 250.530943 
L 195.728108 248.913333 
L 196.211975 246.486918 
L 196.695841 245.678113 
L 197.179708 244.060503 
L 197.663574 243.251698 
L 198.147441 243.251698 
L 198.631308 242.442893 
L 199.115174 239.207673 
L 199.599041 239.207673 
L 200.082907 237.590063 
L 200.566774 239.207673 
L 201.534507 235.972453 
L 202.018374 235.163648 
L 202.50224 235.163648 
L 202.986107 231.928428 
L 203.469973 233.546038 
L 203.95384 232.737233 
L 204.921573 237.590063 
L 205.40544 236.781258 
L 205.889306 238.398868 
L 206.85704 238.398868 
L 207.340906 240.016478 
L 207.824773 239.207673 
L 208.308639 235.972453 
L 209.276372 237.590063 
L 209.760239 236.781258 
L 210.244106 234.354843 
L 211.211839 235.972453 
L 211.695705 235.972453 
L 212.179572 236.781258 
L 212.663439 232.737233 
L 213.147305 232.737233 
L 213.631172 233.546038 
L 214.115038 233.546038 
L 215.082772 231.928428 
L 215.566638 234.354843 
L 216.050505 235.163648 
L 217.018238 233.546038 
L 217.502104 235.163648 
L 217.985971 235.972453 
L 218.469838 237.590063 
L 218.953704 236.781258 
L 219.437571 235.163648 
L 219.921437 236.781258 
L 220.405304 237.590063 
L 220.889171 235.163648 
L 221.373037 236.781258 
L 221.856904 234.354843 
L 222.34077 233.546038 
L 222.824637 236.781258 
L 223.308504 234.354843 
L 224.276237 231.119623 
L 224.760103 233.546038 
L 225.24397 231.119623 
L 225.727836 227.075597 
L 226.211703 228.693208 
L 226.69557 227.075597 
L 227.179436 229.502013 
L 227.663303 226.266792 
L 228.147169 227.075597 
L 228.631036 227.075597 
L 229.114903 227.884403 
L 229.598769 225.457987 
L 230.082636 223.840377 
L 230.566502 223.031572 
L 231.050369 223.840377 
L 232.018102 227.075597 
L 232.501969 223.031572 
L 232.985835 220.605157 
L 233.469702 220.605157 
L 233.953568 218.987547 
L 234.437435 215.752327 
L 234.921302 213.325912 
L 235.405168 212.517107 
L 235.889035 210.090692 
L 236.372901 211.708302 
L 236.856768 210.090692 
L 237.340635 210.090692 
L 238.308368 211.708302 
L 238.792234 209.281887 
L 239.276101 205.237862 
L 239.759968 207.664277 
L 240.243834 209.281887 
L 240.727701 205.237862 
L 241.695434 205.237862 
L 242.1793 207.664277 
L 242.663167 207.664277 
L 243.147034 201.193836 
L 243.6309 202.002642 
L 244.114767 204.429057 
L 244.598633 204.429057 
L 245.0825 206.855472 
L 245.566367 207.664277 
L 246.5341 197.149811 
L 247.017966 199.576226 
L 247.501833 201.193836 
L 247.9857 199.576226 
L 248.953433 202.811447 
L 249.437299 205.237862 
L 250.405032 205.237862 
L 250.888899 204.429057 
L 251.372766 206.855472 
L 251.856632 206.855472 
L 252.340499 206.046667 
L 252.824365 206.855472 
L 253.308232 210.090692 
L 253.792099 214.134717 
L 254.275965 214.134717 
L 255.243698 217.369937 
L 256.211432 215.752327 
L 256.695298 214.134717 
L 257.179165 210.899497 
L 257.663031 218.178742 
L 258.146898 215.752327 
L 258.630764 210.090692 
L 259.114631 209.281887 
L 259.598498 206.046667 
L 260.082364 205.237862 
L 260.566231 208.473082 
L 261.050097 210.090692 
L 261.533964 210.899497 
L 262.017831 208.473082 
L 262.501697 207.664277 
L 262.985564 207.664277 
L 263.46943 206.855472 
L 264.437164 198.767421 
L 264.92103 197.958616 
L 265.404897 199.576226 
L 265.888763 200.385031 
L 266.37263 200.385031 
L 266.856496 198.767421 
L 267.340363 196.341006 
L 268.308096 196.341006 
L 268.791963 195.532201 
L 269.275829 195.532201 
L 269.759696 193.914591 
L 270.243563 194.723396 
L 271.211296 197.958616 
L 271.695162 201.193836 
L 272.179029 197.149811 
L 272.662896 198.767421 
L 273.146762 203.620252 
L 274.114495 208.473082 
L 274.598362 209.281887 
L 275.082228 208.473082 
L 275.566095 212.517107 
L 276.049962 209.281887 
L 277.017695 214.134717 
L 277.501561 215.752327 
L 277.985428 216.561132 
L 278.469295 218.987547 
L 278.953161 224.649182 
L 279.437028 223.840377 
L 280.404761 223.840377 
L 280.888628 224.649182 
L 281.372494 227.884403 
L 281.856361 231.928428 
L 282.340227 233.546038 
L 283.30796 235.163648 
L 283.791827 233.546038 
L 284.275694 235.163648 
L 285.243427 235.163648 
L 285.727293 232.737233 
L 286.21116 232.737233 
L 286.695027 235.972453 
L 287.178893 235.972453 
L 287.66276 235.163648 
L 288.146626 233.546038 
L 288.630493 233.546038 
L 289.11436 231.928428 
L 289.598226 232.737233 
L 290.082093 231.928428 
L 290.565959 232.737233 
L 291.049826 231.119623 
L 291.533692 231.119623 
L 292.501426 227.884403 
L 292.985292 230.310818 
L 293.953025 231.928428 
L 294.436892 229.502013 
L 294.920759 229.502013 
L 295.888492 227.884403 
L 296.372358 223.840377 
L 296.856225 222.222767 
L 297.340091 222.222767 
L 297.823958 218.987547 
L 298.307825 219.796352 
L 298.791691 219.796352 
L 299.275558 218.987547 
L 299.759424 218.987547 
L 300.243291 221.413962 
L 300.727158 221.413962 
L 301.211024 220.605157 
L 302.662624 220.605157 
L 303.146491 222.222767 
L 303.630357 223.031572 
L 304.114224 224.649182 
L 304.59809 225.457987 
L 305.081957 225.457987 
L 305.565823 226.266792 
L 306.533557 223.031572 
L 307.017423 225.457987 
L 307.50129 223.031572 
L 307.985156 221.413962 
L 308.95289 223.031572 
L 309.436756 222.222767 
L 309.920623 224.649182 
L 310.404489 223.840377 
L 310.888356 227.884403 
L 311.372223 227.884403 
L 311.856089 228.693208 
L 312.339956 233.546038 
L 312.823822 231.119623 
L 313.307689 233.546038 
L 315.727022 229.502013 
L 316.694755 231.119623 
L 317.178622 231.119623 
L 317.662488 228.693208 
L 318.146355 230.310818 
L 318.630221 229.502013 
L 319.114088 224.649182 
L 319.597955 227.075597 
L 320.081821 228.693208 
L 320.565688 228.693208 
L 321.049554 231.928428 
L 321.533421 227.884403 
L 322.017287 228.693208 
L 322.501154 231.119623 
L 322.985021 231.119623 
L 323.468887 232.737233 
L 323.952754 233.546038 
L 324.43662 233.546038 
L 324.920487 235.163648 
L 325.404354 232.737233 
L 325.88822 233.546038 
L 326.372087 233.546038 
L 326.855953 231.119623 
L 327.33982 235.972453 
L 327.823687 234.354843 
L 328.307553 235.972453 
L 328.79142 235.972453 
L 329.759153 239.207673 
L 330.243019 237.590063 
L 330.726886 238.398868 
L 331.210753 236.781258 
L 331.694619 237.590063 
L 332.178486 235.972453 
L 332.662352 231.928428 
L 333.146219 231.928428 
L 333.630086 235.972453 
L 334.113952 235.163648 
L 335.081685 235.163648 
L 335.565552 234.354843 
L 336.049419 235.972453 
L 336.533285 234.354843 
L 337.501018 235.972453 
L 337.984885 235.163648 
L 338.468751 236.781258 
L 338.952618 237.590063 
L 339.436485 237.590063 
L 340.404218 235.972453 
L 340.888084 235.972453 
L 341.371951 237.590063 
L 341.855818 235.163648 
L 342.339684 234.354843 
L 342.823551 235.163648 
L 343.307417 236.781258 
L 343.791284 236.781258 
L 344.275151 237.590063 
L 344.759017 241.634088 
L 345.242884 239.207673 
L 345.72675 240.825283 
L 346.210617 235.972453 
L 346.694483 239.207673 
L 347.17835 241.634088 
L 347.662217 241.634088 
L 348.146083 240.016478 
L 348.62995 240.016478 
L 349.113816 240.825283 
L 349.597683 243.251698 
L 350.565416 244.869308 
L 351.049283 244.869308 
L 351.533149 244.060503 
L 352.017016 244.869308 
L 352.500883 243.251698 
L 352.984749 240.016478 
L 353.468616 239.207673 
L 353.952482 239.207673 
L 354.436349 240.016478 
L 354.920215 240.016478 
L 355.404082 237.590063 
L 356.371815 235.972453 
L 356.855682 237.590063 
L 357.823415 234.354843 
L 358.307282 233.546038 
L 358.791148 233.546038 
L 359.275015 231.119623 
L 359.758881 232.737233 
L 360.242748 231.119623 
L 360.726615 236.781258 
L 361.210481 235.163648 
L 361.694348 234.354843 
L 362.662081 235.972453 
L 363.145947 235.972453 
L 363.629814 232.737233 
L 364.113681 232.737233 
L 364.597547 231.119623 
L 365.081414 231.119623 
L 366.049147 229.502013 
L 366.533014 227.075597 
L 367.01688 228.693208 
L 367.500747 231.928428 
L 367.984613 231.119623 
L 368.46848 231.119623 
L 369.436213 232.737233 
L 369.92008 235.972453 
L 370.403946 235.972453 
L 371.855546 238.398868 
L 372.339413 238.398868 
L 373.307146 235.163648 
L 374.274879 238.398868 
L 374.758746 241.634088 
L 375.242612 241.634088 
L 376.210345 244.869308 
L 376.694212 244.869308 
L 377.178079 243.251698 
L 377.661945 243.251698 
L 378.145812 245.678113 
L 378.629678 242.442893 
L 379.113545 243.251698 
L 379.597411 243.251698 
L 380.081278 245.678113 
L 380.565145 244.869308 
L 381.049011 247.295723 
L 381.532878 248.913333 
L 382.016744 248.104528 
L 382.500611 246.486918 
L 382.984478 247.295723 
L 383.468344 246.486918 
L 384.436077 246.486918 
L 384.919944 245.678113 
L 385.403811 247.295723 
L 385.887677 246.486918 
L 386.371544 248.104528 
L 386.85541 250.530943 
L 387.339277 253.766164 
L 387.823143 252.957358 
L 388.30701 253.766164 
L 388.790877 251.339748 
L 389.274743 250.530943 
L 389.75861 250.530943 
L 390.242476 248.913333 
L 390.726343 248.104528 
L 391.21021 248.104528 
L 391.694076 250.530943 
L 392.177943 248.913333 
L 392.661809 248.913333 
L 393.145676 251.339748 
L 393.629543 251.339748 
L 394.113409 252.148553 
L 394.597276 251.339748 
L 395.081142 252.148553 
L 395.565009 251.339748 
L 396.532742 251.339748 
L 397.016609 253.766164 
L 397.500475 253.766164 
L 397.984342 252.957358 
L 398.468208 252.957358 
L 398.952075 251.339748 
L 399.435942 253.766164 
L 399.919808 254.574969 
L 400.403675 254.574969 
L 400.887541 252.957358 
L 401.371408 252.148553 
L 401.855274 252.957358 
L 402.339141 255.383774 
L 402.823008 255.383774 
L 403.306874 257.001384 
L 403.790741 255.383774 
L 404.274607 255.383774 
L 404.758474 257.001384 
L 405.242341 256.192579 
L 405.726207 257.001384 
L 406.210074 256.192579 
L 407.177807 257.810189 
L 407.661674 259.427799 
L 408.14554 260.236604 
L 408.629407 259.427799 
L 409.59714 262.663019 
L 411.04874 262.663019 
L 411.532606 261.854214 
L 412.016473 260.236604 
L 412.500339 262.663019 
L 412.984206 261.045409 
L 413.468073 260.236604 
L 413.951939 260.236604 
L 414.435806 257.810189 
L 414.919672 257.810189 
L 415.887406 256.192579 
L 416.371272 251.339748 
L 416.855139 250.530943 
L 417.822872 252.148553 
L 418.306738 253.766164 
L 419.274472 253.766164 
L 419.758338 257.001384 
L 420.242205 255.383774 
L 420.726071 257.001384 
L 421.209938 257.810189 
L 421.693805 257.001384 
L 422.177671 257.001384 
L 422.661538 257.810189 
L 423.145404 259.427799 
L 423.629271 260.236604 
L 424.113138 260.236604 
L 424.597004 261.045409 
L 425.080871 261.045409 
L 425.564737 261.854214 
L 426.048604 261.045409 
L 426.53247 261.854214 
L 427.016337 261.045409 
L 427.500204 263.471824 
L 428.467937 263.471824 
L 428.951803 264.280629 
L 429.43567 261.045409 
L 429.919537 263.471824 
L 430.403403 265.089434 
L 430.88727 267.515849 
L 431.371136 268.324654 
L 431.371136 268.324654 
" clip-path="url(#pcb88200081)" style="fill: none; stroke-dasharray: 1.85,0.8; stroke-dashoffset: 0; stroke: #00b5eb; stroke-width: 0.5"/>
   </g>
   <g id="line2d_18">
    <path d="M 58.793864 291.78 
L 143.470517 291.78 
L 143.954383 290.971195 
L 146.857583 290.971195 
L 147.341449 290.16239 
L 151.696249 290.16239 
L 152.663982 288.54478 
L 157.986514 288.54478 
L 158.470381 289.353585 
L 160.405847 289.353585 
L 161.37358 287.735975 
L 161.857447 288.54478 
L 162.341313 288.54478 
L 162.82518 286.118365 
L 163.792913 282.883145 
L 164.27678 282.883145 
L 164.760646 281.265535 
L 165.244513 281.265535 
L 166.212246 279.647925 
L 167.179979 281.265535 
L 167.663846 280.45673 
L 168.147713 280.45673 
L 168.631579 278.839119 
L 169.115446 278.030314 
L 170.083179 278.030314 
L 170.567045 277.221509 
L 171.534779 273.986289 
L 172.018645 273.986289 
L 172.502512 272.368679 
L 172.986378 272.368679 
L 173.470245 270.751069 
L 174.437978 270.751069 
L 174.921845 269.942264 
L 175.405711 270.751069 
L 175.889578 269.942264 
L 176.373445 268.324654 
L 176.857311 268.324654 
L 177.341178 269.942264 
L 177.825044 270.751069 
L 178.308911 272.368679 
L 178.792777 270.751069 
L 179.276644 271.559874 
L 179.760511 270.751069 
L 180.244377 270.751069 
L 180.728244 271.559874 
L 181.21211 269.942264 
L 181.695977 269.133459 
L 182.179844 269.133459 
L 182.66371 268.324654 
L 183.631443 269.942264 
L 184.599177 269.942264 
L 185.083043 269.133459 
L 186.050776 270.751069 
L 186.534643 269.133459 
L 187.502376 269.133459 
L 187.986243 270.751069 
L 188.470109 270.751069 
L 188.953976 269.133459 
L 189.437842 269.942264 
L 189.921709 268.324654 
L 190.405576 268.324654 
L 190.889442 269.133459 
L 191.857175 269.133459 
L 192.341042 269.942264 
L 192.824909 268.324654 
L 193.308775 269.133459 
L 193.792642 269.133459 
L 194.276508 269.942264 
L 194.760375 269.133459 
L 195.244241 267.515849 
L 195.728108 269.133459 
L 196.211975 269.133459 
L 196.695841 269.942264 
L 197.179708 269.942264 
L 197.663574 270.751069 
L 198.147441 270.751069 
L 198.631308 269.133459 
L 199.115174 266.707044 
L 199.599041 266.707044 
L 200.082907 267.515849 
L 200.566774 266.707044 
L 201.534507 266.707044 
L 202.50224 265.089434 
L 202.986107 261.854214 
L 203.469973 262.663019 
L 203.95384 260.236604 
L 204.437707 261.045409 
L 205.40544 261.045409 
L 205.889306 260.236604 
L 206.373173 258.618994 
L 206.85704 257.810189 
L 207.340906 256.192579 
L 207.824773 256.192579 
L 208.308639 257.001384 
L 208.792506 255.383774 
L 209.760239 253.766164 
L 210.244106 253.766164 
L 211.695705 251.339748 
L 212.179572 249.722138 
L 212.663439 248.913333 
L 213.147305 249.722138 
L 213.631172 252.148553 
L 214.115038 251.339748 
L 215.082772 251.339748 
L 216.050505 252.957358 
L 216.534371 252.957358 
L 217.018238 253.766164 
L 217.502104 256.192579 
L 217.985971 257.001384 
L 218.469838 259.427799 
L 219.437571 257.810189 
L 219.921437 257.810189 
L 220.889171 259.427799 
L 221.373037 257.810189 
L 221.856904 260.236604 
L 222.34077 257.810189 
L 223.308504 257.810189 
L 223.79237 260.236604 
L 224.276237 260.236604 
L 224.760103 255.383774 
L 225.24397 256.192579 
L 225.727836 254.574969 
L 226.211703 254.574969 
L 227.663303 252.148553 
L 228.631036 248.913333 
L 229.598769 248.913333 
L 230.082636 246.486918 
L 230.566502 244.869308 
L 231.050369 245.678113 
L 231.534236 244.869308 
L 232.018102 244.869308 
L 232.501969 244.060503 
L 232.985835 242.442893 
L 233.469702 241.634088 
L 233.953568 241.634088 
L 234.437435 242.442893 
L 235.405168 237.590063 
L 235.889035 240.016478 
L 236.372901 240.016478 
L 236.856768 240.825283 
L 237.340635 240.016478 
L 237.824501 240.016478 
L 238.308368 233.546038 
L 238.792234 233.546038 
L 239.276101 237.590063 
L 239.759968 237.590063 
L 240.243834 236.781258 
L 240.727701 237.590063 
L 241.211567 239.207673 
L 242.663167 239.207673 
L 243.147034 241.634088 
L 243.6309 239.207673 
L 244.114767 237.590063 
L 244.598633 239.207673 
L 245.0825 240.016478 
L 245.566367 239.207673 
L 246.050233 237.590063 
L 247.017966 232.737233 
L 247.501833 232.737233 
L 247.9857 231.119623 
L 248.469566 231.119623 
L 249.437299 229.502013 
L 249.921166 231.119623 
L 250.405032 227.884403 
L 250.888899 227.075597 
L 251.372766 229.502013 
L 251.856632 229.502013 
L 252.340499 227.075597 
L 252.824365 231.119623 
L 253.308232 229.502013 
L 253.792099 226.266792 
L 254.275965 223.840377 
L 254.759832 225.457987 
L 255.243698 226.266792 
L 255.727565 224.649182 
L 256.695298 227.884403 
L 257.179165 227.075597 
L 257.663031 225.457987 
L 258.146898 223.031572 
L 258.630764 223.031572 
L 259.114631 223.840377 
L 260.082364 217.369937 
L 261.050097 220.605157 
L 261.533964 220.605157 
L 262.017831 222.222767 
L 262.501697 223.031572 
L 262.985564 222.222767 
L 263.953297 223.840377 
L 264.437164 223.840377 
L 264.92103 220.605157 
L 265.888763 215.752327 
L 266.37263 212.517107 
L 266.856496 214.943522 
L 267.340363 208.473082 
L 267.82423 210.090692 
L 268.308096 208.473082 
L 268.791963 208.473082 
L 269.275829 206.855472 
L 269.759696 206.046667 
L 270.243563 202.811447 
L 270.727429 200.385031 
L 271.211296 200.385031 
L 272.179029 198.767421 
L 272.662896 200.385031 
L 273.146762 200.385031 
L 273.630629 197.958616 
L 274.114495 199.576226 
L 274.598362 199.576226 
L 275.082228 196.341006 
L 275.566095 197.149811 
L 276.049962 197.149811 
L 276.533828 193.914591 
L 277.017695 196.341006 
L 277.501561 199.576226 
L 277.985428 194.723396 
L 278.469295 192.296981 
L 278.953161 192.296981 
L 279.920894 197.149811 
L 280.404761 197.958616 
L 281.372494 196.341006 
L 281.856361 202.811447 
L 282.340227 203.620252 
L 282.824094 208.473082 
L 283.30796 208.473082 
L 283.791827 206.855472 
L 284.275694 204.429057 
L 284.75956 205.237862 
L 285.243427 204.429057 
L 285.727293 202.002642 
L 286.21116 201.193836 
L 286.695027 203.620252 
L 287.178893 202.811447 
L 287.66276 201.193836 
L 288.630493 206.046667 
L 289.598226 213.325912 
L 290.082093 212.517107 
L 290.565959 212.517107 
L 291.049826 206.046667 
L 291.533692 202.811447 
L 292.017559 200.385031 
L 292.501426 205.237862 
L 292.985292 206.855472 
L 293.469159 207.664277 
L 293.953025 210.899497 
L 294.436892 209.281887 
L 294.920759 206.855472 
L 295.404625 210.090692 
L 295.888492 211.708302 
L 296.372358 212.517107 
L 296.856225 214.134717 
L 297.340091 212.517107 
L 298.307825 217.369937 
L 298.791691 216.561132 
L 299.275558 217.369937 
L 299.759424 218.987547 
L 300.243291 217.369937 
L 300.727158 216.561132 
L 301.211024 216.561132 
L 301.694891 214.943522 
L 302.178757 218.178742 
L 303.146491 209.281887 
L 303.630357 208.473082 
L 304.59809 205.237862 
L 305.081957 204.429057 
L 305.565823 214.134717 
L 306.04969 214.134717 
L 306.533557 215.752327 
L 307.017423 206.855472 
L 307.50129 209.281887 
L 307.985156 210.899497 
L 308.469023 210.090692 
L 308.95289 207.664277 
L 309.436756 211.708302 
L 309.920623 210.090692 
L 310.404489 206.855472 
L 310.888356 196.341006 
L 311.372223 194.723396 
L 311.856089 195.532201 
L 312.339956 192.296981 
L 312.823822 193.914591 
L 313.307689 193.105786 
L 313.791555 195.532201 
L 314.275422 193.105786 
L 314.759289 195.532201 
L 315.243155 198.767421 
L 315.727022 198.767421 
L 316.210888 202.002642 
L 316.694755 201.193836 
L 317.178622 202.811447 
L 317.662488 207.664277 
L 318.146355 204.429057 
L 318.630221 205.237862 
L 319.114088 207.664277 
L 319.597955 206.855472 
L 320.081821 205.237862 
L 320.565688 207.664277 
L 321.049554 206.046667 
L 321.533421 210.899497 
L 322.017287 204.429057 
L 322.501154 204.429057 
L 322.985021 201.193836 
L 323.468887 206.855472 
L 323.952754 203.620252 
L 324.43662 197.958616 
L 324.920487 202.002642 
L 325.404354 210.899497 
L 325.88822 206.046667 
L 326.372087 197.958616 
L 326.855953 201.193836 
L 327.33982 197.149811 
L 327.823687 197.958616 
L 328.307553 193.105786 
L 328.79142 194.723396 
L 329.275286 193.105786 
L 329.759153 192.296981 
L 330.243019 193.914591 
L 330.726886 189.870566 
L 331.210753 187.444151 
L 332.178486 184.208931 
L 332.662352 186.635346 
L 333.146219 185.017736 
L 333.630086 180.973711 
L 334.113952 180.973711 
L 334.597819 174.50327 
L 335.081685 175.312075 
L 335.565552 177.738491 
L 336.049419 181.782516 
L 336.533285 187.444151 
L 337.017152 183.400126 
L 337.501018 186.635346 
L 338.468751 181.782516 
L 338.952618 184.208931 
L 339.436485 182.591321 
L 339.920351 182.591321 
L 340.888084 196.341006 
L 341.371951 193.914591 
L 341.855818 195.532201 
L 342.339684 196.341006 
L 342.823551 202.002642 
L 343.307417 195.532201 
L 343.791284 197.149811 
L 344.275151 196.341006 
L 344.759017 191.488176 
L 345.72675 196.341006 
L 346.210617 197.149811 
L 347.17835 193.914591 
L 348.146083 195.532201 
L 348.62995 198.767421 
L 349.113816 204.429057 
L 349.597683 203.620252 
L 350.08155 198.767421 
L 350.565416 192.296981 
L 351.049283 192.296981 
L 351.533149 193.105786 
L 352.017016 194.723396 
L 352.500883 192.296981 
L 352.984749 195.532201 
L 353.468616 201.193836 
L 353.952482 200.385031 
L 354.436349 201.193836 
L 354.920215 196.341006 
L 355.404082 193.105786 
L 355.887949 196.341006 
L 356.371815 193.914591 
L 356.855682 195.532201 
L 357.339548 193.105786 
L 357.823415 202.002642 
L 358.307282 200.385031 
L 358.791148 197.958616 
L 359.275015 198.767421 
L 359.758881 200.385031 
L 360.242748 199.576226 
L 360.726615 202.811447 
L 361.210481 201.193836 
L 361.694348 196.341006 
L 362.178214 197.149811 
L 362.662081 199.576226 
L 363.145947 196.341006 
L 363.629814 195.532201 
L 364.113681 195.532201 
L 364.597547 198.767421 
L 365.081414 205.237862 
L 365.56528 203.620252 
L 366.049147 206.855472 
L 367.01688 203.620252 
L 367.500747 201.193836 
L 367.984613 197.958616 
L 368.46848 197.958616 
L 368.952347 195.532201 
L 369.436213 197.149811 
L 369.92008 199.576226 
L 370.403946 197.958616 
L 370.887813 202.002642 
L 371.855546 198.767421 
L 372.339413 189.870566 
L 372.823279 191.488176 
L 373.307146 193.914591 
L 373.791012 192.296981 
L 374.274879 191.488176 
L 374.758746 193.105786 
L 375.242612 193.105786 
L 376.210345 203.620252 
L 376.694212 202.002642 
L 377.178079 202.002642 
L 377.661945 200.385031 
L 378.145812 200.385031 
L 378.629678 198.767421 
L 379.113545 197.958616 
L 379.597411 197.958616 
L 380.081278 199.576226 
L 380.565145 199.576226 
L 381.049011 197.149811 
L 381.532878 203.620252 
L 382.016744 203.620252 
L 382.500611 204.429057 
L 382.984478 200.385031 
L 383.468344 202.002642 
L 383.952211 201.193836 
L 384.436077 201.193836 
L 384.919944 200.385031 
L 385.403811 202.002642 
L 386.371544 208.473082 
L 386.85541 214.134717 
L 387.339277 215.752327 
L 387.823143 218.987547 
L 388.30701 224.649182 
L 388.790877 225.457987 
L 389.274743 224.649182 
L 389.75861 223.031572 
L 390.242476 220.605157 
L 390.726343 221.413962 
L 391.21021 218.987547 
L 391.694076 218.987547 
L 392.661809 226.266792 
L 393.629543 229.502013 
L 394.113409 228.693208 
L 395.081142 221.413962 
L 395.565009 218.987547 
L 396.048875 213.325912 
L 396.532742 214.943522 
L 397.016609 213.325912 
L 397.500475 218.178742 
L 397.984342 221.413962 
L 398.468208 222.222767 
L 399.435942 222.222767 
L 399.919808 219.796352 
L 400.887541 219.796352 
L 401.371408 222.222767 
L 402.339141 218.987547 
L 402.823008 215.752327 
L 403.306874 218.178742 
L 403.790741 218.987547 
L 404.274607 222.222767 
L 405.242341 222.222767 
L 405.726207 224.649182 
L 406.69394 226.266792 
L 407.177807 222.222767 
L 407.661674 222.222767 
L 408.14554 216.561132 
L 408.629407 212.517107 
L 409.113273 213.325912 
L 409.59714 211.708302 
L 410.564873 223.840377 
L 411.04874 224.649182 
L 411.532606 226.266792 
L 412.016473 218.987547 
L 412.500339 218.987547 
L 412.984206 217.369937 
L 413.468073 217.369937 
L 414.435806 212.517107 
L 415.403539 212.517107 
L 415.887406 213.325912 
L 416.371272 210.090692 
L 416.855139 208.473082 
L 417.339005 211.708302 
L 417.822872 205.237862 
L 418.306738 206.855472 
L 418.790605 205.237862 
L 419.274472 204.429057 
L 419.758338 206.046667 
L 420.242205 206.046667 
L 420.726071 203.620252 
L 421.209938 205.237862 
L 421.693805 207.664277 
L 422.177671 206.855472 
L 422.661538 210.090692 
L 423.145404 211.708302 
L 423.629271 214.943522 
L 424.113138 219.796352 
L 424.597004 217.369937 
L 425.080871 214.134717 
L 425.564737 214.943522 
L 426.048604 214.943522 
L 426.53247 220.605157 
L 427.016337 218.987547 
L 427.500204 223.840377 
L 427.98407 224.649182 
L 428.467937 229.502013 
L 428.951803 231.119623 
L 429.43567 231.119623 
L 429.919537 232.737233 
L 430.403403 227.884403 
L 431.371136 235.163648 
L 431.371136 235.163648 
" clip-path="url(#pcb88200081)" style="fill: none; stroke-dasharray: 1.85,0.8; stroke-dashoffset: 0; stroke: #80ffb4; stroke-width: 0.5"/>
   </g>
   <g id="line2d_19">
    <path d="M 58.793864 291.78 
L 139.599584 291.78 
L 140.08345 290.971195 
L 145.889849 290.971195 
L 146.373716 290.16239 
L 150.728515 290.16239 
L 151.212382 289.353585 
L 151.696249 289.353585 
L 152.180115 288.54478 
L 154.115581 288.54478 
L 154.599448 289.353585 
L 160.405847 289.353585 
L 160.889714 290.16239 
L 162.82518 290.16239 
L 163.309047 289.353585 
L 165.244513 289.353585 
L 165.72838 290.16239 
L 166.212246 290.16239 
L 166.696113 290.971195 
L 168.631579 290.971195 
L 171.534779 286.118365 
L 174.921845 286.118365 
L 175.405711 285.30956 
L 177.341178 285.30956 
L 177.825044 286.118365 
L 178.308911 285.30956 
L 178.792777 285.30956 
L 180.244377 282.883145 
L 180.728244 282.883145 
L 181.21211 282.07434 
L 181.695977 282.07434 
L 182.179844 280.45673 
L 182.66371 279.647925 
L 183.147577 278.030314 
L 183.631443 278.030314 
L 184.11531 278.839119 
L 184.599177 277.221509 
L 185.083043 278.030314 
L 185.56691 277.221509 
L 186.050776 278.030314 
L 187.018509 278.030314 
L 187.502376 275.603899 
L 188.470109 275.603899 
L 188.953976 273.986289 
L 189.437842 273.177484 
L 189.921709 273.986289 
L 190.405576 273.986289 
L 190.889442 271.559874 
L 191.373309 270.751069 
L 191.857175 270.751069 
L 192.341042 269.942264 
L 193.308775 269.942264 
L 194.276508 271.559874 
L 194.760375 269.133459 
L 195.244241 267.515849 
L 195.728108 267.515849 
L 196.211975 262.663019 
L 196.695841 261.045409 
L 197.179708 260.236604 
L 197.663574 261.045409 
L 198.147441 260.236604 
L 198.631308 257.810189 
L 199.115174 260.236604 
L 199.599041 255.383774 
L 200.566774 252.148553 
L 201.05064 244.060503 
L 201.534507 244.060503 
L 202.018374 246.486918 
L 202.50224 244.869308 
L 202.986107 244.869308 
L 203.469973 246.486918 
L 203.95384 247.295723 
L 204.437707 242.442893 
L 204.921573 240.825283 
L 205.889306 242.442893 
L 206.373173 240.825283 
L 206.85704 237.590063 
L 207.340906 236.781258 
L 207.824773 230.310818 
L 208.308639 228.693208 
L 208.792506 225.457987 
L 209.276372 225.457987 
L 209.760239 223.840377 
L 210.244106 223.031572 
L 210.727972 226.266792 
L 211.211839 227.884403 
L 211.695705 228.693208 
L 212.179572 224.649182 
L 212.663439 225.457987 
L 213.147305 227.884403 
L 213.631172 224.649182 
L 214.115038 227.884403 
L 214.598905 227.075597 
L 215.082772 225.457987 
L 215.566638 228.693208 
L 216.050505 221.413962 
L 216.534371 218.178742 
L 217.018238 219.796352 
L 217.502104 216.561132 
L 217.985971 216.561132 
L 218.469838 213.325912 
L 218.953704 214.943522 
L 219.437571 210.090692 
L 219.921437 210.090692 
L 220.405304 208.473082 
L 220.889171 208.473082 
L 221.373037 210.899497 
L 221.856904 209.281887 
L 222.34077 214.134717 
L 225.24397 214.134717 
L 225.727836 215.752327 
L 226.211703 213.325912 
L 226.69557 211.708302 
L 227.179436 209.281887 
L 227.663303 206.046667 
L 228.147169 204.429057 
L 228.631036 197.958616 
L 229.114903 200.385031 
L 229.598769 200.385031 
L 230.566502 209.281887 
L 231.050369 210.899497 
L 231.534236 206.046667 
L 232.018102 209.281887 
L 232.501969 204.429057 
L 232.985835 207.664277 
L 233.469702 209.281887 
L 233.953568 212.517107 
L 234.437435 210.899497 
L 235.405168 210.899497 
L 235.889035 211.708302 
L 236.372901 211.708302 
L 236.856768 205.237862 
L 237.340635 202.002642 
L 237.824501 205.237862 
L 238.308368 203.620252 
L 238.792234 205.237862 
L 239.759968 202.002642 
L 240.243834 198.767421 
L 240.727701 196.341006 
L 241.695434 199.576226 
L 242.1793 199.576226 
L 242.663167 201.193836 
L 243.147034 206.046667 
L 243.6309 206.046667 
L 244.114767 204.429057 
L 244.598633 201.193836 
L 245.566367 201.193836 
L 246.050233 202.811447 
L 246.5341 202.811447 
L 247.017966 204.429057 
L 247.501833 199.576226 
L 247.9857 199.576226 
L 248.953433 196.341006 
L 249.437299 196.341006 
L 249.921166 192.296981 
L 250.405032 193.105786 
L 250.888899 193.105786 
L 251.372766 199.576226 
L 251.856632 201.193836 
L 252.340499 197.958616 
L 252.824365 199.576226 
L 253.792099 193.105786 
L 254.275965 194.723396 
L 254.759832 197.958616 
L 255.243698 200.385031 
L 255.727565 203.620252 
L 256.211432 205.237862 
L 256.695298 203.620252 
L 257.663031 210.090692 
L 258.146898 203.620252 
L 259.114631 203.620252 
L 260.566231 208.473082 
L 261.050097 208.473082 
L 261.533964 205.237862 
L 262.017831 206.855472 
L 262.501697 205.237862 
L 262.985564 208.473082 
L 263.46943 210.090692 
L 263.953297 205.237862 
L 264.437164 209.281887 
L 264.92103 209.281887 
L 265.404897 208.473082 
L 265.888763 208.473082 
L 266.37263 206.855472 
L 266.856496 206.855472 
L 267.340363 203.620252 
L 267.82423 206.046667 
L 268.308096 209.281887 
L 268.791963 207.664277 
L 269.275829 204.429057 
L 269.759696 202.811447 
L 270.727429 193.105786 
L 271.211296 193.105786 
L 271.695162 186.635346 
L 272.179029 183.400126 
L 273.146762 190.679371 
L 273.630629 191.488176 
L 275.566095 174.50327 
L 276.049962 179.356101 
L 276.533828 176.120881 
L 277.017695 173.694465 
L 277.985428 176.929686 
L 278.469295 175.312075 
L 278.953161 171.26805 
L 279.437028 158.32717 
L 279.920894 159.135975 
L 280.404761 155.09195 
L 281.372494 161.56239 
L 281.856361 163.988805 
L 282.340227 159.135975 
L 282.824094 159.135975 
L 283.30796 160.753585 
L 283.791827 156.70956 
L 284.275694 155.09195 
L 285.243427 158.32717 
L 285.727293 155.09195 
L 286.21116 157.518365 
L 286.695027 157.518365 
L 287.178893 159.94478 
L 288.146626 152.665535 
L 288.630493 155.09195 
L 289.11436 154.283145 
L 289.598226 156.70956 
L 290.082093 161.56239 
L 290.565959 159.135975 
L 291.049826 159.94478 
L 292.017559 149.430314 
L 292.501426 149.430314 
L 292.985292 151.85673 
L 293.469159 151.85673 
L 293.953025 159.94478 
L 294.436892 163.18 
L 294.920759 168.841635 
L 295.404625 168.841635 
L 295.888492 159.94478 
L 296.372358 158.32717 
L 296.856225 159.94478 
L 297.340091 156.70956 
L 297.823958 154.283145 
L 298.307825 158.32717 
L 298.791691 160.753585 
L 299.275558 160.753585 
L 299.759424 162.371195 
L 300.243291 168.841635 
L 300.727158 168.03283 
L 301.211024 165.606415 
L 301.694891 164.79761 
L 302.178757 168.841635 
L 302.662624 171.26805 
L 303.146491 172.076855 
L 303.630357 176.120881 
L 304.114224 178.547296 
L 304.59809 176.929686 
L 305.081957 179.356101 
L 305.565823 183.400126 
L 306.04969 192.296981 
L 306.533557 187.444151 
L 307.017423 184.208931 
L 307.50129 182.591321 
L 307.985156 181.782516 
L 308.469023 182.591321 
L 308.95289 180.973711 
L 309.436756 176.120881 
L 309.920623 168.03283 
L 310.404489 171.26805 
L 310.888356 169.65044 
L 311.372223 171.26805 
L 311.856089 175.312075 
L 312.339956 176.929686 
L 312.823822 176.120881 
L 313.307689 176.929686 
L 313.791555 176.929686 
L 314.759289 172.076855 
L 315.243155 176.929686 
L 315.727022 163.988805 
L 316.210888 164.79761 
L 316.694755 166.41522 
L 317.178622 163.18 
L 317.662488 158.32717 
L 318.630221 141.342264 
L 319.597955 136.489434 
L 320.081821 136.489434 
L 320.565688 130.827799 
L 321.049554 135.680629 
L 321.533421 134.871824 
L 322.017287 136.489434 
L 322.501154 135.680629 
L 323.468887 135.680629 
L 323.952754 136.489434 
L 324.43662 138.915849 
L 324.920487 142.959874 
L 325.404354 150.239119 
L 325.88822 149.430314 
L 326.372087 147.812704 
L 326.855953 141.342264 
L 327.33982 136.489434 
L 327.823687 134.871824 
L 328.307553 132.445409 
L 328.79142 126.783774 
L 329.759153 126.783774 
L 330.243019 142.151069 
L 330.726886 138.915849 
L 331.210753 132.445409 
L 331.694619 130.018994 
L 332.178486 125.166164 
L 332.662352 133.254214 
L 333.146219 138.107044 
L 333.630086 135.680629 
L 334.113952 130.827799 
L 334.597819 127.592579 
L 335.081685 130.827799 
L 335.565552 132.445409 
L 336.049419 130.827799 
L 336.533285 131.636604 
L 337.017152 136.489434 
L 337.501018 138.915849 
L 337.984885 129.210189 
L 338.468751 133.254214 
L 338.952618 133.254214 
L 339.436485 130.827799 
L 339.920351 123.548553 
L 340.404218 125.974969 
L 340.888084 127.592579 
L 341.371951 136.489434 
L 342.339684 136.489434 
L 342.823551 142.151069 
L 343.791284 150.239119 
L 344.275151 141.342264 
L 344.759017 142.151069 
L 345.242884 145.386289 
L 345.72675 142.959874 
L 346.210617 149.430314 
L 346.694483 159.135975 
L 347.17835 151.85673 
L 347.662217 151.047925 
L 348.146083 153.47434 
L 348.62995 162.371195 
L 349.597683 160.753585 
L 350.08155 158.32717 
L 351.049283 151.047925 
L 351.533149 153.47434 
L 352.017016 153.47434 
L 352.500883 162.371195 
L 352.984749 157.518365 
L 353.468616 162.371195 
L 353.952482 160.753585 
L 354.436349 168.03283 
L 354.920215 157.518365 
L 355.404082 157.518365 
L 355.887949 148.621509 
L 356.371815 155.900755 
L 356.855682 155.900755 
L 357.339548 153.47434 
L 357.823415 155.09195 
L 358.307282 152.665535 
L 358.791148 156.70956 
L 359.758881 156.70956 
L 360.242748 163.18 
L 360.726615 160.753585 
L 361.210481 161.56239 
L 361.694348 166.41522 
L 362.178214 172.88566 
L 363.145947 163.18 
L 363.629814 155.900755 
L 364.113681 155.900755 
L 364.597547 158.32717 
L 365.56528 171.26805 
L 366.049147 171.26805 
L 366.533014 168.03283 
L 367.01688 168.03283 
L 367.500747 168.841635 
L 367.984613 163.988805 
L 368.46848 169.65044 
L 368.952347 168.03283 
L 369.436213 172.88566 
L 369.92008 171.26805 
L 370.403946 180.164906 
L 370.887813 175.312075 
L 371.371679 175.312075 
L 371.855546 168.03283 
L 372.339413 167.224025 
L 372.823279 167.224025 
L 373.307146 166.41522 
L 373.791012 164.79761 
L 374.758746 156.70956 
L 375.242612 159.94478 
L 375.726479 159.135975 
L 376.210345 156.70956 
L 376.694212 151.85673 
L 377.178079 158.32717 
L 377.661945 161.56239 
L 378.145812 170.459245 
L 378.629678 172.88566 
L 379.113545 174.50327 
L 379.597411 175.312075 
L 380.081278 174.50327 
L 380.565145 171.26805 
L 381.049011 174.50327 
L 381.532878 174.50327 
L 382.016744 172.076855 
L 382.500611 172.88566 
L 382.984478 163.988805 
L 383.468344 161.56239 
L 383.952211 165.606415 
L 384.436077 167.224025 
L 384.919944 165.606415 
L 385.403811 172.076855 
L 385.887677 174.50327 
L 386.371544 179.356101 
L 386.85541 179.356101 
L 387.339277 176.929686 
L 387.823143 177.738491 
L 388.30701 179.356101 
L 388.790877 185.017736 
L 389.75861 183.400126 
L 390.242476 178.547296 
L 390.726343 180.164906 
L 391.21021 180.973711 
L 391.694076 183.400126 
L 392.177943 182.591321 
L 392.661809 186.635346 
L 393.145676 189.061761 
L 393.629543 189.061761 
L 394.113409 188.252956 
L 394.597276 190.679371 
L 395.081142 191.488176 
L 395.565009 193.105786 
L 396.048875 186.635346 
L 396.532742 188.252956 
L 397.984342 201.193836 
L 398.468208 200.385031 
L 398.952075 196.341006 
L 399.435942 189.061761 
L 399.919808 184.208931 
L 400.403675 184.208931 
L 400.887541 185.017736 
L 401.855274 194.723396 
L 402.339141 197.149811 
L 402.823008 195.532201 
L 403.306874 193.105786 
L 403.790741 195.532201 
L 404.274607 193.105786 
L 404.758474 197.958616 
L 405.242341 201.193836 
L 405.726207 191.488176 
L 406.210074 185.017736 
L 406.69394 180.164906 
L 407.177807 170.459245 
L 407.661674 168.03283 
L 408.14554 168.03283 
L 408.629407 169.65044 
L 409.113273 164.79761 
L 409.59714 162.371195 
L 410.081006 162.371195 
L 410.564873 163.988805 
L 411.04874 168.841635 
L 411.532606 168.841635 
L 412.016473 170.459245 
L 412.500339 168.03283 
L 412.984206 168.03283 
L 413.468073 172.88566 
L 413.951939 181.782516 
L 414.435806 184.208931 
L 414.919672 179.356101 
L 415.403539 182.591321 
L 415.887406 177.738491 
L 416.371272 168.841635 
L 416.855139 168.841635 
L 417.339005 166.41522 
L 417.822872 166.41522 
L 418.306738 164.79761 
L 419.274472 164.79761 
L 419.758338 160.753585 
L 420.242205 174.50327 
L 421.209938 183.400126 
L 421.693805 193.105786 
L 422.177671 193.105786 
L 422.661538 190.679371 
L 423.145404 185.826541 
L 423.629271 190.679371 
L 424.113138 190.679371 
L 424.597004 188.252956 
L 425.080871 190.679371 
L 425.564737 190.679371 
L 426.048604 189.061761 
L 426.53247 189.061761 
L 427.016337 186.635346 
L 427.500204 189.061761 
L 427.98407 188.252956 
L 428.951803 188.252956 
L 429.43567 190.679371 
L 430.403403 192.296981 
L 430.88727 189.061761 
L 431.371136 186.635346 
L 431.371136 186.635346 
" clip-path="url(#pcb88200081)" style="fill: none; stroke-dasharray: 1.85,0.8; stroke-dashoffset: 0; stroke: #ffb360; stroke-width: 0.5"/>
   </g>
   <g id="line2d_20">
    <path d="M 58.793864 291.78 
L 156.051048 291.78 
L 156.534914 290.971195 
L 164.27678 290.971195 
L 164.760646 290.16239 
L 166.696113 290.16239 
L 167.179979 289.353585 
L 168.631579 289.353585 
L 169.115446 288.54478 
L 170.567045 288.54478 
L 171.050912 289.353585 
L 172.986378 289.353585 
L 173.470245 288.54478 
L 173.954112 288.54478 
L 174.437978 286.92717 
L 174.921845 286.118365 
L 176.373445 286.118365 
L 176.857311 284.500755 
L 177.341178 283.69195 
L 177.825044 283.69195 
L 178.308911 282.883145 
L 178.792777 282.883145 
L 179.276644 283.69195 
L 180.244377 282.07434 
L 181.21211 282.07434 
L 181.695977 281.265535 
L 182.179844 278.030314 
L 182.66371 278.030314 
L 183.147577 277.221509 
L 183.631443 278.030314 
L 184.11531 278.030314 
L 184.599177 277.221509 
L 187.502376 277.221509 
L 187.986243 278.030314 
L 188.470109 278.030314 
L 188.953976 279.647925 
L 190.889442 279.647925 
L 191.857175 281.265535 
L 192.341042 279.647925 
L 192.824909 280.45673 
L 193.308775 278.839119 
L 193.792642 278.030314 
L 194.760375 279.647925 
L 195.244241 279.647925 
L 195.728108 278.030314 
L 196.211975 278.839119 
L 196.695841 282.07434 
L 197.179708 282.07434 
L 197.663574 282.883145 
L 198.147441 282.883145 
L 198.631308 280.45673 
L 199.115174 281.265535 
L 200.082907 281.265535 
L 200.566774 279.647925 
L 201.05064 276.412704 
L 202.50224 276.412704 
L 203.469973 269.942264 
L 203.95384 270.751069 
L 204.437707 267.515849 
L 204.921573 267.515849 
L 205.40544 265.898239 
L 205.889306 265.089434 
L 206.373173 262.663019 
L 206.85704 262.663019 
L 207.340906 259.427799 
L 207.824773 261.045409 
L 208.308639 261.854214 
L 208.792506 257.001384 
L 209.276372 257.001384 
L 210.244106 253.766164 
L 210.727972 252.957358 
L 211.211839 252.957358 
L 211.695705 247.295723 
L 212.179572 243.251698 
L 212.663439 241.634088 
L 213.147305 234.354843 
L 213.631172 232.737233 
L 214.115038 225.457987 
L 214.598905 223.031572 
L 215.082772 223.031572 
L 215.566638 226.266792 
L 216.050505 224.649182 
L 216.534371 222.222767 
L 217.018238 214.134717 
L 217.502104 215.752327 
L 217.985971 218.987547 
L 218.469838 217.369937 
L 218.953704 220.605157 
L 219.437571 218.178742 
L 219.921437 212.517107 
L 220.405304 211.708302 
L 220.889171 214.134717 
L 221.373037 211.708302 
L 221.856904 214.943522 
L 222.34077 210.090692 
L 222.824637 207.664277 
L 223.308504 210.090692 
L 224.276237 205.237862 
L 224.760103 206.046667 
L 225.727836 195.532201 
L 226.211703 196.341006 
L 227.179436 199.576226 
L 227.663303 209.281887 
L 228.147169 208.473082 
L 228.631036 210.899497 
L 229.114903 210.899497 
L 229.598769 212.517107 
L 230.566502 202.002642 
L 231.050369 199.576226 
L 231.534236 205.237862 
L 232.018102 206.855472 
L 232.501969 206.855472 
L 232.985835 204.429057 
L 233.469702 199.576226 
L 233.953568 197.958616 
L 234.437435 205.237862 
L 234.921302 200.385031 
L 235.405168 198.767421 
L 235.889035 197.958616 
L 236.372901 193.105786 
L 236.856768 185.826541 
L 237.340635 188.252956 
L 237.824501 184.208931 
L 238.308368 176.929686 
L 238.792234 178.547296 
L 239.759968 183.400126 
L 240.243834 183.400126 
L 240.727701 188.252956 
L 242.1793 163.18 
L 242.663167 165.606415 
L 243.147034 170.459245 
L 243.6309 165.606415 
L 244.114767 158.32717 
L 245.0825 158.32717 
L 245.566367 163.18 
L 246.050233 155.900755 
L 246.5341 151.047925 
L 247.017966 141.342264 
L 247.501833 138.107044 
L 247.9857 135.680629 
L 248.469566 137.298239 
L 248.953433 130.018994 
L 249.437299 132.445409 
L 249.921166 131.636604 
L 250.405032 129.210189 
L 250.888899 129.210189 
L 251.372766 134.063019 
L 251.856632 129.210189 
L 252.340499 129.210189 
L 252.824365 134.063019 
L 253.308232 134.063019 
L 253.792099 131.636604 
L 254.275965 131.636604 
L 254.759832 129.210189 
L 255.243698 121.930943 
L 255.727565 117.886918 
L 256.695298 117.886918 
L 257.663031 108.181258 
L 258.146898 106.563648 
L 259.114631 101.710818 
L 259.598498 101.710818 
L 260.082364 94.431572 
L 260.566231 96.857987 
L 261.050097 96.857987 
L 261.533964 104.137233 
L 262.017831 104.137233 
L 262.501697 106.563648 
L 262.985564 99.284403 
L 263.46943 106.563648 
L 263.953297 106.563648 
L 264.437164 101.710818 
L 264.92103 101.710818 
L 265.404897 104.137233 
L 266.37263 104.137233 
L 266.856496 100.902013 
L 267.340363 103.328428 
L 267.82423 96.049182 
L 268.308096 93.622767 
L 268.791963 93.622767 
L 269.275829 96.049182 
L 269.759696 100.902013 
L 270.243563 102.519623 
L 270.727429 102.519623 
L 271.211296 107.372453 
L 271.695162 109.798868 
L 272.179029 104.946038 
L 272.662896 101.710818 
L 273.146762 104.137233 
L 273.630629 101.710818 
L 274.114495 101.710818 
L 274.598362 106.563648 
L 275.566095 101.710818 
L 276.049962 96.049182 
L 277.017695 104.946038 
L 277.501561 104.946038 
L 277.985428 100.093208 
L 278.469295 97.666792 
L 279.437028 107.372453 
L 279.920894 107.372453 
L 280.404761 112.225283 
L 280.888628 114.651698 
L 281.372494 119.504528 
L 282.824094 126.783774 
L 283.791827 121.930943 
L 284.275694 121.122138 
L 284.75956 126.783774 
L 285.243427 117.886918 
L 285.727293 113.842893 
L 286.21116 113.842893 
L 286.695027 113.034088 
L 287.178893 117.886918 
L 287.66276 114.651698 
L 288.146626 121.930943 
L 289.598226 121.930943 
L 290.082093 119.504528 
L 290.565959 122.739748 
L 291.049826 121.122138 
L 291.533692 121.122138 
L 292.017559 128.401384 
L 292.501426 130.827799 
L 292.985292 138.107044 
L 293.469159 133.254214 
L 293.953025 130.827799 
L 294.436892 116.269308 
L 294.920759 108.181258 
L 295.404625 110.607673 
L 296.372358 99.284403 
L 297.340091 104.137233 
L 297.823958 103.328428 
L 298.307825 101.710818 
L 298.791691 97.666792 
L 299.275558 97.666792 
L 299.759424 111.416478 
L 300.243291 110.607673 
L 300.727158 94.431572 
L 301.211024 101.710818 
L 301.694891 93.622767 
L 302.178757 104.137233 
L 302.662624 101.710818 
L 303.146491 106.563648 
L 303.630357 100.902013 
L 304.114224 108.181258 
L 304.59809 109.798868 
L 306.04969 100.093208 
L 306.533557 99.284403 
L 307.017423 96.857987 
L 307.50129 96.857987 
L 307.985156 98.475597 
L 308.95289 108.181258 
L 309.436756 110.607673 
L 309.920623 110.607673 
L 310.404489 117.886918 
L 310.888356 117.078113 
L 311.372223 118.695723 
L 311.856089 118.695723 
L 312.339956 126.783774 
L 312.823822 132.445409 
L 313.307689 139.724654 
L 313.791555 144.577484 
L 314.275422 143.768679 
L 314.759289 150.239119 
L 315.243155 159.94478 
L 315.727022 159.94478 
L 316.210888 167.224025 
L 316.694755 162.371195 
L 317.178622 163.988805 
L 317.662488 161.56239 
L 318.146355 160.753585 
L 318.630221 151.85673 
L 319.114088 147.003899 
L 319.597955 149.430314 
L 320.081821 151.047925 
L 320.565688 151.85673 
L 321.049554 149.430314 
L 321.533421 154.283145 
L 322.017287 151.85673 
L 322.501154 151.85673 
L 322.985021 144.577484 
L 323.952754 155.900755 
L 324.43662 151.047925 
L 324.920487 154.283145 
L 325.404354 156.70956 
L 325.88822 153.47434 
L 326.372087 144.577484 
L 326.855953 141.342264 
L 327.823687 128.401384 
L 328.307553 125.166164 
L 328.79142 125.166164 
L 329.275286 116.269308 
L 329.759153 125.166164 
L 330.243019 125.974969 
L 330.726886 131.636604 
L 331.210753 134.063019 
L 331.694619 134.063019 
L 332.178486 132.445409 
L 332.662352 141.342264 
L 333.146219 138.107044 
L 334.113952 151.047925 
L 334.597819 157.518365 
L 335.081685 151.047925 
L 335.565552 148.621509 
L 336.049419 143.768679 
L 336.533285 142.959874 
L 337.017152 141.342264 
L 337.501018 148.621509 
L 337.984885 149.430314 
L 338.468751 137.298239 
L 338.952618 139.724654 
L 339.436485 132.445409 
L 339.920351 134.063019 
L 340.404218 140.533459 
L 341.371951 147.003899 
L 341.855818 151.85673 
L 342.339684 142.959874 
L 343.307417 131.636604 
L 343.791284 132.445409 
L 344.275151 129.210189 
L 344.759017 121.122138 
L 345.242884 120.313333 
L 345.72675 113.842893 
L 346.210617 111.416478 
L 346.694483 98.475597 
L 347.17835 90.387547 
L 347.662217 92.005157 
L 348.146083 94.431572 
L 348.62995 82.299497 
L 349.113816 73.402642 
L 349.597683 73.402642 
L 350.08155 78.255472 
L 350.565416 77.446667 
L 351.049283 80.681887 
L 351.533149 84.725912 
L 352.017016 81.490692 
L 352.500883 83.917107 
L 352.984749 79.064277 
L 353.468616 62.888176 
L 353.952482 66.932201 
L 354.436349 55.608931 
L 354.920215 41.05044 
L 355.404082 40.241635 
L 355.887949 34.58 
L 356.371815 34.58 
L 356.855682 49.138491 
L 357.339548 49.947296 
L 357.823415 49.138491 
L 358.307282 53.991321 
L 358.791148 45.094465 
L 359.275015 55.608931 
L 359.758881 49.947296 
L 360.242748 55.608931 
L 360.726615 53.182516 
L 361.210481 66.123396 
L 361.694348 58.035346 
L 362.178214 68.549811 
L 362.662081 68.549811 
L 363.629814 87.152327 
L 364.113681 89.578742 
L 364.597547 86.343522 
L 365.081414 88.769937 
L 365.56528 85.534717 
L 366.049147 86.343522 
L 366.533014 80.681887 
L 367.01688 78.255472 
L 367.500747 87.961132 
L 367.984613 101.710818 
L 368.46848 86.343522 
L 369.436213 108.181258 
L 369.92008 111.416478 
L 370.887813 100.902013 
L 371.371679 100.902013 
L 371.855546 108.181258 
L 372.339413 103.328428 
L 372.823279 107.372453 
L 373.307146 119.504528 
L 373.791012 113.034088 
L 374.274879 116.269308 
L 374.758746 107.372453 
L 375.242612 109.798868 
L 375.726479 113.034088 
L 376.210345 123.548553 
L 377.178079 117.078113 
L 377.661945 117.078113 
L 378.145812 110.607673 
L 378.629678 113.842893 
L 379.113545 108.990063 
L 380.081278 115.460503 
L 380.565145 100.093208 
L 381.532878 104.946038 
L 382.016744 108.181258 
L 382.500611 103.328428 
L 382.984478 119.504528 
L 383.468344 116.269308 
L 383.952211 106.563648 
L 384.436077 109.798868 
L 384.919944 115.460503 
L 385.403811 122.739748 
L 385.887677 119.504528 
L 386.371544 119.504528 
L 386.85541 130.827799 
L 387.339277 112.225283 
L 387.823143 112.225283 
L 388.30701 118.695723 
L 388.790877 121.122138 
L 389.274743 125.166164 
L 389.75861 125.166164 
L 390.726343 113.842893 
L 391.21021 116.269308 
L 391.694076 109.798868 
L 392.177943 112.225283 
L 392.661809 107.372453 
L 393.145676 110.607673 
L 393.629543 116.269308 
L 394.113409 109.798868 
L 394.597276 104.946038 
L 395.081142 113.842893 
L 395.565009 111.416478 
L 396.048875 112.225283 
L 396.532742 115.460503 
L 397.016609 121.930943 
L 397.500475 117.886918 
L 397.984342 116.269308 
L 398.468208 121.122138 
L 398.952075 114.651698 
L 399.435942 120.313333 
L 399.919808 117.078113 
L 400.403675 117.886918 
L 401.371408 111.416478 
L 401.855274 125.974969 
L 402.339141 122.739748 
L 402.823008 116.269308 
L 403.306874 116.269308 
L 403.790741 121.122138 
L 404.274607 120.313333 
L 404.758474 122.739748 
L 405.242341 127.592579 
L 405.726207 127.592579 
L 406.210074 133.254214 
L 406.69394 130.018994 
L 407.177807 138.107044 
L 407.661674 138.107044 
L 408.14554 140.533459 
L 408.629407 147.003899 
L 409.113273 151.85673 
L 409.59714 158.32717 
L 410.564873 151.047925 
L 411.04874 154.283145 
L 411.532606 151.85673 
L 412.016473 158.32717 
L 412.500339 163.18 
L 412.984206 164.79761 
L 413.468073 171.26805 
L 413.951939 159.135975 
L 414.435806 162.371195 
L 414.919672 164.79761 
L 415.403539 164.79761 
L 416.371272 177.738491 
L 416.855139 174.50327 
L 417.339005 174.50327 
L 417.822872 168.841635 
L 418.306738 168.841635 
L 418.790605 172.076855 
L 419.274472 172.076855 
L 419.758338 178.547296 
L 420.242205 179.356101 
L 420.726071 180.973711 
L 421.693805 166.41522 
L 422.177671 159.94478 
L 422.661538 159.94478 
L 423.145404 153.47434 
L 423.629271 141.342264 
L 424.113138 134.871824 
L 424.597004 138.915849 
L 425.080871 141.342264 
L 425.564737 138.107044 
L 426.048604 137.298239 
L 426.53247 137.298239 
L 427.016337 140.533459 
L 427.500204 142.151069 
L 427.98407 138.915849 
L 428.467937 148.621509 
L 428.951803 138.915849 
L 429.43567 135.680629 
L 429.919537 139.724654 
L 430.403403 130.018994 
L 430.88727 123.548553 
L 431.371136 130.018994 
L 431.371136 130.018994 
" clip-path="url(#pcb88200081)" style="fill: none; stroke-dasharray: 1.85,0.8; stroke-dashoffset: 0; stroke: #ff0000; stroke-width: 0.5"/>
   </g>
   <g id="patch_3">
    <path d="M 40.165 304.64 
L 40.165 21.72 
" style="fill: none; stroke: #000000; stroke-width: 0.8; stroke-linejoin: miter; stroke-linecap: square"/>
   </g>
   <g id="patch_4">
    <path d="M 450 304.64 
L 450 21.72 
" style="fill: none; stroke: #000000; stroke-width: 0.8; stroke-linejoin: miter; stroke-linecap: square"/>
   </g>
   <g id="patch_5">
    <path d="M 40.165 304.64 
L 450 304.64 
" style="fill: none; stroke: #000000; stroke-width: 0.8; stroke-linejoin: miter; stroke-linecap: square"/>
   </g>
   <g id="patch_6">
    <path d="M 40.165 21.72 
L 450 21.72 
" style="fill: none; stroke: #000000; stroke-width: 0.8; stroke-linejoin: miter; stroke-linecap: square"/>
   </g>
   <g id="text_18">
    <!-- Heating Rate ($^{\circ}C.s^{-1}$) -->
    <g transform="translate(286.066 50.012) scale(0.12 -0.12)">
     <defs>
      <path id="DejaVuSans-48" d="M 628 4666 
L 1259 4666 
L 1259 2753 
L 3553 2753 
L 3553 4666 
L 4184 4666 
L 4184 0 
L 3553 0 
L 3553 2222 
L 1259 2222 
L 1259 0 
L 628 0 
L 628 4666 
z
" transform="scale(0.015625)"/>
      <path id="DejaVuSans-67" d="M 2906 1791 
Q 2906 2416 2648 2759 
Q 2391 3103 1925 3103 
Q 1463 3103 1205 2759 
Q 947 2416 947 1791 
Q 947 1169 1205 825 
Q 1463 481 1925 481 
Q 2391 481 2648 825 
Q 2906 1169 2906 1791 
z
M 3481 434 
Q 3481 -459 3084 -895 
Q 2688 -1331 1869 -1331 
Q 1566 -1331 1297 -1286 
Q 1028 -1241 775 -1147 
L 775 -588 
Q 1028 -725 1275 -790 
Q 1522 -856 1778 -856 
Q 2344 -856 2625 -561 
Q 2906 -266 2906 331 
L 2906 616 
Q 2728 306 2450 153 
Q 2172 0 1784 0 
Q 1141 0 747 490 
Q 353 981 353 1791 
Q 353 2603 747 3093 
Q 1141 3584 1784 3584 
Q 2172 3584 2450 3431 
Q 2728 3278 2906 2969 
L 2906 3500 
L 3481 3500 
L 3481 434 
z
" transform="scale(0.015625)"/>
      <path id="DejaVuSans-52" d="M 2841 2188 
Q 3044 2119 3236 1894 
Q 3428 1669 3622 1275 
L 4263 0 
L 3584 0 
L 2988 1197 
Q 2756 1666 2539 1819 
Q 2322 1972 1947 1972 
L 1259 1972 
L 1259 0 
L 628 0 
L 628 4666 
L 2053 4666 
Q 2853 4666 3247 4331 
Q 3641 3997 3641 3322 
Q 3641 2881 3436 2590 
Q 3231 2300 2841 2188 
z
M 1259 4147 
L 1259 2491 
L 2053 2491 
Q 2509 2491 2742 2702 
Q 2975 2913 2975 3322 
Q 2975 3731 2742 3939 
Q 2509 4147 2053 4147 
L 1259 4147 
z
" transform="scale(0.015625)"/>
      <path id="DejaVuSans-2e" d="M 684 794 
L 1344 794 
L 1344 0 
L 684 0 
L 684 794 
z
" transform="scale(0.015625)"/>
      <path id="DejaVuSans-Oblique-73" d="M 3200 3397 
L 3091 2853 
Q 2863 2978 2609 3040 
Q 2356 3103 2088 3103 
Q 1634 3103 1373 2948 
Q 1113 2794 1113 2528 
Q 1113 2219 1719 2053 
Q 1766 2041 1788 2034 
L 1972 1978 
Q 2547 1819 2739 1644 
Q 2931 1469 2931 1166 
Q 2931 609 2489 259 
Q 2047 -91 1331 -91 
Q 1053 -91 747 -37 
Q 441 16 72 128 
L 184 722 
Q 500 559 806 475 
Q 1113 391 1394 391 
Q 1816 391 2080 572 
Q 2344 753 2344 1031 
Q 2344 1331 1650 1516 
L 1591 1531 
L 1394 1581 
Q 956 1697 753 1886 
Q 550 2075 550 2369 
Q 550 2928 970 3256 
Q 1391 3584 2113 3584 
Q 2397 3584 2667 3537 
Q 2938 3491 3200 3397 
z
" transform="scale(0.015625)"/>
     </defs>
     <use xlink:href="#DejaVuSans-48" transform="translate(0 0.684375)"/>
     <use xlink:href="#DejaVuSans-65" transform="translate(75.195312 0.684375)"/>
     <use xlink:href="#DejaVuSans-61" transform="translate(136.71875 0.684375)"/>
     <use xlink:href="#DejaVuSans-74" transform="translate(197.998047 0.684375)"/>
     <use xlink:href="#DejaVuSans-69" transform="translate(237.207031 0.684375)"/>
     <use xlink:href="#DejaVuSans-6e" transform="translate(264.990234 0.684375)"/>
     <use xlink:href="#DejaVuSans-67" transform="translate(328.369141 0.684375)"/>
     <use xlink:href="#DejaVuSans-20" transform="translate(391.845703 0.684375)"/>
     <use xlink:href="#DejaVuSans-52" transform="translate(423.632812 0.684375)"/>
     <use xlink:href="#DejaVuSans-61" transform="translate(493.115234 0.684375)"/>
     <use xlink:href="#DejaVuSans-74" transform="translate(554.394531 0.684375)"/>
     <use xlink:href="#DejaVuSans-65" transform="translate(593.603516 0.684375)"/>
     <use xlink:href="#DejaVuSans-20" transform="translate(655.126953 0.684375)"/>
     <use xlink:href="#DejaVuSans-28" transform="translate(686.914062 0.684375)"/>
     <use xlink:href="#DejaVuSans-2218" transform="translate(726.884766 38.965625) scale(0.7)"/>
     <use xlink:href="#DejaVuSans-Oblique-43" transform="translate(773.4375 0.684375)"/>
     <use xlink:href="#DejaVuSans-2e" transform="translate(843.261719 0.684375)"/>
     <use xlink:href="#DejaVuSans-Oblique-73" transform="translate(894.53125 0.684375)"/>
     <use xlink:href="#DejaVuSans-2212" transform="translate(951.280755 38.965625) scale(0.7)"/>
     <use xlink:href="#DejaVuSans-31" transform="translate(1009.933099 38.965625) scale(0.7)"/>
     <use xlink:href="#DejaVuSans-29" transform="translate(1057.203607 0.684375)"/>
    </g>
   </g>
   <g id="legend_1">
    <g id="patch_7">
     <path d="M 334.0495 131.402625 
L 381.952625 131.402625 
Q 383.952625 131.402625 383.952625 129.402625 
L 383.952625 57.012 
Q 383.952625 55.012 381.952625 55.012 
L 334.0495 55.012 
Q 332.0495 55.012 332.0495 57.012 
L 332.0495 129.402625 
Q 332.0495 131.402625 334.0495 131.402625 
z
" style="fill: #ffffff; opacity: 0.8; stroke: #cccccc; stroke-linejoin: miter"/>
    </g>
    <g id="line2d_21">
     <path d="M 336.0495 63.110437 
L 346.0495 63.110437 
L 356.0495 63.110437 
" style="fill: none; stroke-dasharray: 1.85,0.8; stroke-dashoffset: 0; stroke: #8000ff; stroke-width: 0.5"/>
    </g>
    <g id="text_19">
     <!-- 0.1 -->
     <g transform="translate(364.0495 66.610437) scale(0.1 -0.1)">
      <use xlink:href="#DejaVuSans-30"/>
      <use xlink:href="#DejaVuSans-2e" transform="translate(63.623047 0)"/>
      <use xlink:href="#DejaVuSans-31" transform="translate(95.410156 0)"/>
     </g>
    </g>
    <g id="line2d_22">
     <path d="M 336.0495 77.788563 
L 346.0495 77.788563 
L 356.0495 77.788563 
" style="fill: none; stroke-dasharray: 1.85,0.8; stroke-dashoffset: 0; stroke: #00b5eb; stroke-width: 0.5"/>
    </g>
    <g id="text_20">
     <!-- 1 -->
     <g transform="translate(364.0495 81.288563) scale(0.1 -0.1)">
      <use xlink:href="#DejaVuSans-31"/>
     </g>
    </g>
    <g id="line2d_23">
     <path d="M 336.0495 92.466687 
L 346.0495 92.466687 
L 356.0495 92.466687 
" style="fill: none; stroke-dasharray: 1.85,0.8; stroke-dashoffset: 0; stroke: #80ffb4; stroke-width: 0.5"/>
    </g>
    <g id="text_21">
     <!-- 5 -->
     <g transform="translate(364.0495 95.966687) scale(0.1 -0.1)">
      <use xlink:href="#DejaVuSans-35"/>
     </g>
    </g>
    <g id="line2d_24">
     <path d="M 336.0495 107.144813 
L 346.0495 107.144813 
L 356.0495 107.144813 
" style="fill: none; stroke-dasharray: 1.85,0.8; stroke-dashoffset: 0; stroke: #ffb360; stroke-width: 0.5"/>
    </g>
    <g id="text_22">
     <!-- 10 -->
     <g transform="translate(364.0495 110.644813) scale(0.1 -0.1)">
      <use xlink:href="#DejaVuSans-31"/>
      <use xlink:href="#DejaVuSans-30" transform="translate(63.623047 0)"/>
     </g>
    </g>
    <g id="line2d_25">
     <path d="M 336.0495 121.822937 
L 346.0495 121.822937 
L 356.0495 121.822937 
" style="fill: none; stroke-dasharray: 1.85,0.8; stroke-dashoffset: 0; stroke: #ff0000; stroke-width: 0.5"/>
    </g>
    <g id="text_23">
     <!-- 20 -->
     <g transform="translate(364.0495 125.322937) scale(0.1 -0.1)">
      <use xlink:href="#DejaVuSans-32"/>
      <use xlink:href="#DejaVuSans-30" transform="translate(63.623047 0)"/>
     </g>
    </g>
   </g>
  </g>
 </g>
 <defs>
  <clipPath id="pcb88200081">
   <rect x="40.165" y="21.72" width="409.835" height="282.92"/>
  </clipPath>
 </defs>
</svg>
