<?xml version="1.0" encoding="utf-8" standalone="no"?>
<!DOCTYPE svg PUBLIC "-//W3C//DTD SVG 1.1//EN"
  "http://www.w3.org/Graphics/SVG/1.1/DTD/svg11.dtd">
<svg xmlns:xlink="http://www.w3.org/1999/xlink" width="460.8pt" height="345.6pt" viewBox="0 0 460.8 345.6" xmlns="http://www.w3.org/2000/svg" version="1.1">
 <metadata>
  <rdf:RDF xmlns:dc="http://purl.org/dc/elements/1.1/" xmlns:cc="http://creativecommons.org/ns#" xmlns:rdf="http://www.w3.org/1999/02/22-rdf-syntax-ns#">
   <cc:Work>
    <dc:type rdf:resource="http://purl.org/dc/dcmitype/StillImage"/>
    <dc:date>2025-03-11T11:35:45.278108</dc:date>
    <dc:format>image/svg+xml</dc:format>
    <dc:creator>
     <cc:Agent>
      <dc:title>Matplotlib v3.10.0, https://matplotlib.org/</dc:title>
     </cc:Agent>
    </dc:creator>
   </cc:Work>
  </rdf:RDF>
 </metadata>
 <defs>
  <style type="text/css">*{stroke-linejoin: round; stroke-linecap: butt}</style>
 </defs>
 <g id="figure_1">
  <g id="patch_1">
   <path d="M 0 345.6 
L 460.8 345.6 
L 460.8 0 
L 0 0 
z
" style="fill: #ffffff"/>
  </g>
  <g id="axes_1">
   <g id="patch_2">
    <path d="M 57.6 307.584 
L 414.72 307.584 
L 414.72 41.472 
L 57.6 41.472 
z
" style="fill: #ffffff"/>
   </g>
   <g id="matplotlib.axis_1">
    <g id="xtick_1">
     <g id="line2d_1">
      <defs>
       <path id="mc1301c5513" d="M 0 0 
L 0 3.5 
" style="stroke: #000000; stroke-width: 0.8"/>
      </defs>
      <g>
       <use xlink:href="#mc1301c5513" x="67.929917" y="307.584" style="stroke: #000000; stroke-width: 0.8"/>
      </g>
     </g>
     <g id="text_1">
      <!-- 0 -->
      <g transform="translate(64.748667 322.182437) scale(0.1 -0.1)">
       <defs>
        <path id="DejaVuSans-30" d="M 2034 4250 
Q 1547 4250 1301 3770 
Q 1056 3291 1056 2328 
Q 1056 1369 1301 889 
Q 1547 409 2034 409 
Q 2525 409 2770 889 
Q 3016 1369 3016 2328 
Q 3016 3291 2770 3770 
Q 2525 4250 2034 4250 
z
M 2034 4750 
Q 2819 4750 3233 4129 
Q 3647 3509 3647 2328 
Q 3647 1150 3233 529 
Q 2819 -91 2034 -91 
Q 1250 -91 836 529 
Q 422 1150 422 2328 
Q 422 3509 836 4129 
Q 1250 4750 2034 4750 
z
" transform="scale(0.015625)"/>
       </defs>
       <use xlink:href="#DejaVuSans-30"/>
      </g>
     </g>
    </g>
    <g id="xtick_2">
     <g id="line2d_2">
      <g>
       <use xlink:href="#mc1301c5513" x="110.040142" y="307.584" style="stroke: #000000; stroke-width: 0.8"/>
      </g>
     </g>
     <g id="text_2">
      <!-- 100 -->
      <g transform="translate(100.496392 322.182437) scale(0.1 -0.1)">
       <defs>
        <path id="DejaVuSans-31" d="M 794 531 
L 1825 531 
L 1825 4091 
L 703 3866 
L 703 4441 
L 1819 4666 
L 2450 4666 
L 2450 531 
L 3481 531 
L 3481 0 
L 794 0 
L 794 531 
z
" transform="scale(0.015625)"/>
       </defs>
       <use xlink:href="#DejaVuSans-31"/>
       <use xlink:href="#DejaVuSans-30" transform="translate(63.623047 0)"/>
       <use xlink:href="#DejaVuSans-30" transform="translate(127.246094 0)"/>
      </g>
     </g>
    </g>
    <g id="xtick_3">
     <g id="line2d_3">
      <g>
       <use xlink:href="#mc1301c5513" x="152.150366" y="307.584" style="stroke: #000000; stroke-width: 0.8"/>
      </g>
     </g>
     <g id="text_3">
      <!-- 200 -->
      <g transform="translate(142.606616 322.182437) scale(0.1 -0.1)">
       <defs>
        <path id="DejaVuSans-32" d="M 1228 531 
L 3431 531 
L 3431 0 
L 469 0 
L 469 531 
Q 828 903 1448 1529 
Q 2069 2156 2228 2338 
Q 2531 2678 2651 2914 
Q 2772 3150 2772 3378 
Q 2772 3750 2511 3984 
Q 2250 4219 1831 4219 
Q 1534 4219 1204 4116 
Q 875 4013 500 3803 
L 500 4441 
Q 881 4594 1212 4672 
Q 1544 4750 1819 4750 
Q 2544 4750 2975 4387 
Q 3406 4025 3406 3419 
Q 3406 3131 3298 2873 
Q 3191 2616 2906 2266 
Q 2828 2175 2409 1742 
Q 1991 1309 1228 531 
z
" transform="scale(0.015625)"/>
       </defs>
       <use xlink:href="#DejaVuSans-32"/>
       <use xlink:href="#DejaVuSans-30" transform="translate(63.623047 0)"/>
       <use xlink:href="#DejaVuSans-30" transform="translate(127.246094 0)"/>
      </g>
     </g>
    </g>
    <g id="xtick_4">
     <g id="line2d_4">
      <g>
       <use xlink:href="#mc1301c5513" x="194.26059" y="307.584" style="stroke: #000000; stroke-width: 0.8"/>
      </g>
     </g>
     <g id="text_4">
      <!-- 300 -->
      <g transform="translate(184.71684 322.182437) scale(0.1 -0.1)">
       <defs>
        <path id="DejaVuSans-33" d="M 2597 2516 
Q 3050 2419 3304 2112 
Q 3559 1806 3559 1356 
Q 3559 666 3084 287 
Q 2609 -91 1734 -91 
Q 1441 -91 1130 -33 
Q 819 25 488 141 
L 488 750 
Q 750 597 1062 519 
Q 1375 441 1716 441 
Q 2309 441 2620 675 
Q 2931 909 2931 1356 
Q 2931 1769 2642 2001 
Q 2353 2234 1838 2234 
L 1294 2234 
L 1294 2753 
L 1863 2753 
Q 2328 2753 2575 2939 
Q 2822 3125 2822 3475 
Q 2822 3834 2567 4026 
Q 2313 4219 1838 4219 
Q 1578 4219 1281 4162 
Q 984 4106 628 3988 
L 628 4550 
Q 988 4650 1302 4700 
Q 1616 4750 1894 4750 
Q 2613 4750 3031 4423 
Q 3450 4097 3450 3541 
Q 3450 3153 3228 2886 
Q 3006 2619 2597 2516 
z
" transform="scale(0.015625)"/>
       </defs>
       <use xlink:href="#DejaVuSans-33"/>
       <use xlink:href="#DejaVuSans-30" transform="translate(63.623047 0)"/>
       <use xlink:href="#DejaVuSans-30" transform="translate(127.246094 0)"/>
      </g>
     </g>
    </g>
    <g id="xtick_5">
     <g id="line2d_5">
      <g>
       <use xlink:href="#mc1301c5513" x="236.370815" y="307.584" style="stroke: #000000; stroke-width: 0.8"/>
      </g>
     </g>
     <g id="text_5">
      <!-- 400 -->
      <g transform="translate(226.827065 322.182437) scale(0.1 -0.1)">
       <defs>
        <path id="DejaVuSans-34" d="M 2419 4116 
L 825 1625 
L 2419 1625 
L 2419 4116 
z
M 2253 4666 
L 3047 4666 
L 3047 1625 
L 3713 1625 
L 3713 1100 
L 3047 1100 
L 3047 0 
L 2419 0 
L 2419 1100 
L 313 1100 
L 313 1709 
L 2253 4666 
z
" transform="scale(0.015625)"/>
       </defs>
       <use xlink:href="#DejaVuSans-34"/>
       <use xlink:href="#DejaVuSans-30" transform="translate(63.623047 0)"/>
       <use xlink:href="#DejaVuSans-30" transform="translate(127.246094 0)"/>
      </g>
     </g>
    </g>
    <g id="xtick_6">
     <g id="line2d_6">
      <g>
       <use xlink:href="#mc1301c5513" x="278.481039" y="307.584" style="stroke: #000000; stroke-width: 0.8"/>
      </g>
     </g>
     <g id="text_6">
      <!-- 500 -->
      <g transform="translate(268.937289 322.182437) scale(0.1 -0.1)">
       <defs>
        <path id="DejaVuSans-35" d="M 691 4666 
L 3169 4666 
L 3169 4134 
L 1269 4134 
L 1269 2991 
Q 1406 3038 1543 3061 
Q 1681 3084 1819 3084 
Q 2600 3084 3056 2656 
Q 3513 2228 3513 1497 
Q 3513 744 3044 326 
Q 2575 -91 1722 -91 
Q 1428 -91 1123 -41 
Q 819 9 494 109 
L 494 744 
Q 775 591 1075 516 
Q 1375 441 1709 441 
Q 2250 441 2565 725 
Q 2881 1009 2881 1497 
Q 2881 1984 2565 2268 
Q 2250 2553 1709 2553 
Q 1456 2553 1204 2497 
Q 953 2441 691 2322 
L 691 4666 
z
" transform="scale(0.015625)"/>
       </defs>
       <use xlink:href="#DejaVuSans-35"/>
       <use xlink:href="#DejaVuSans-30" transform="translate(63.623047 0)"/>
       <use xlink:href="#DejaVuSans-30" transform="translate(127.246094 0)"/>
      </g>
     </g>
    </g>
    <g id="xtick_7">
     <g id="line2d_7">
      <g>
       <use xlink:href="#mc1301c5513" x="320.591263" y="307.584" style="stroke: #000000; stroke-width: 0.8"/>
      </g>
     </g>
     <g id="text_7">
      <!-- 600 -->
      <g transform="translate(311.047513 322.182437) scale(0.1 -0.1)">
       <defs>
        <path id="DejaVuSans-36" d="M 2113 2584 
Q 1688 2584 1439 2293 
Q 1191 2003 1191 1497 
Q 1191 994 1439 701 
Q 1688 409 2113 409 
Q 2538 409 2786 701 
Q 3034 994 3034 1497 
Q 3034 2003 2786 2293 
Q 2538 2584 2113 2584 
z
M 3366 4563 
L 3366 3988 
Q 3128 4100 2886 4159 
Q 2644 4219 2406 4219 
Q 1781 4219 1451 3797 
Q 1122 3375 1075 2522 
Q 1259 2794 1537 2939 
Q 1816 3084 2150 3084 
Q 2853 3084 3261 2657 
Q 3669 2231 3669 1497 
Q 3669 778 3244 343 
Q 2819 -91 2113 -91 
Q 1303 -91 875 529 
Q 447 1150 447 2328 
Q 447 3434 972 4092 
Q 1497 4750 2381 4750 
Q 2619 4750 2861 4703 
Q 3103 4656 3366 4563 
z
" transform="scale(0.015625)"/>
       </defs>
       <use xlink:href="#DejaVuSans-36"/>
       <use xlink:href="#DejaVuSans-30" transform="translate(63.623047 0)"/>
       <use xlink:href="#DejaVuSans-30" transform="translate(127.246094 0)"/>
      </g>
     </g>
    </g>
    <g id="xtick_8">
     <g id="line2d_8">
      <g>
       <use xlink:href="#mc1301c5513" x="362.701488" y="307.584" style="stroke: #000000; stroke-width: 0.8"/>
      </g>
     </g>
     <g id="text_8">
      <!-- 700 -->
      <g transform="translate(353.157738 322.182437) scale(0.1 -0.1)">
       <defs>
        <path id="DejaVuSans-37" d="M 525 4666 
L 3525 4666 
L 3525 4397 
L 1831 0 
L 1172 0 
L 2766 4134 
L 525 4134 
L 525 4666 
z
" transform="scale(0.015625)"/>
       </defs>
       <use xlink:href="#DejaVuSans-37"/>
       <use xlink:href="#DejaVuSans-30" transform="translate(63.623047 0)"/>
       <use xlink:href="#DejaVuSans-30" transform="translate(127.246094 0)"/>
      </g>
     </g>
    </g>
    <g id="xtick_9">
     <g id="line2d_9">
      <g>
       <use xlink:href="#mc1301c5513" x="404.811712" y="307.584" style="stroke: #000000; stroke-width: 0.8"/>
      </g>
     </g>
     <g id="text_9">
      <!-- 800 -->
      <g transform="translate(395.267962 322.182437) scale(0.1 -0.1)">
       <defs>
        <path id="DejaVuSans-38" d="M 2034 2216 
Q 1584 2216 1326 1975 
Q 1069 1734 1069 1313 
Q 1069 891 1326 650 
Q 1584 409 2034 409 
Q 2484 409 2743 651 
Q 3003 894 3003 1313 
Q 3003 1734 2745 1975 
Q 2488 2216 2034 2216 
z
M 1403 2484 
Q 997 2584 770 2862 
Q 544 3141 544 3541 
Q 544 4100 942 4425 
Q 1341 4750 2034 4750 
Q 2731 4750 3128 4425 
Q 3525 4100 3525 3541 
Q 3525 3141 3298 2862 
Q 3072 2584 2669 2484 
Q 3125 2378 3379 2068 
Q 3634 1759 3634 1313 
Q 3634 634 3220 271 
Q 2806 -91 2034 -91 
Q 1263 -91 848 271 
Q 434 634 434 1313 
Q 434 1759 690 2068 
Q 947 2378 1403 2484 
z
M 1172 3481 
Q 1172 3119 1398 2916 
Q 1625 2713 2034 2713 
Q 2441 2713 2670 2916 
Q 2900 3119 2900 3481 
Q 2900 3844 2670 4047 
Q 2441 4250 2034 4250 
Q 1625 4250 1398 4047 
Q 1172 3844 1172 3481 
z
" transform="scale(0.015625)"/>
       </defs>
       <use xlink:href="#DejaVuSans-38"/>
       <use xlink:href="#DejaVuSans-30" transform="translate(63.623047 0)"/>
       <use xlink:href="#DejaVuSans-30" transform="translate(127.246094 0)"/>
      </g>
     </g>
    </g>
    <g id="text_10">
     <!-- Temperature ($^{\circ}C$) -->
     <g transform="translate(192.16 335.862125) scale(0.1 -0.1)">
      <defs>
       <path id="DejaVuSans-54" d="M -19 4666 
L 3928 4666 
L 3928 4134 
L 2272 4134 
L 2272 0 
L 1638 0 
L 1638 4134 
L -19 4134 
L -19 4666 
z
" transform="scale(0.015625)"/>
       <path id="DejaVuSans-65" d="M 3597 1894 
L 3597 1613 
L 953 1613 
Q 991 1019 1311 708 
Q 1631 397 2203 397 
Q 2534 397 2845 478 
Q 3156 559 3463 722 
L 3463 178 
Q 3153 47 2828 -22 
Q 2503 -91 2169 -91 
Q 1331 -91 842 396 
Q 353 884 353 1716 
Q 353 2575 817 3079 
Q 1281 3584 2069 3584 
Q 2775 3584 3186 3129 
Q 3597 2675 3597 1894 
z
M 3022 2063 
Q 3016 2534 2758 2815 
Q 2500 3097 2075 3097 
Q 1594 3097 1305 2825 
Q 1016 2553 972 2059 
L 3022 2063 
z
" transform="scale(0.015625)"/>
       <path id="DejaVuSans-6d" d="M 3328 2828 
Q 3544 3216 3844 3400 
Q 4144 3584 4550 3584 
Q 5097 3584 5394 3201 
Q 5691 2819 5691 2113 
L 5691 0 
L 5113 0 
L 5113 2094 
Q 5113 2597 4934 2840 
Q 4756 3084 4391 3084 
Q 3944 3084 3684 2787 
Q 3425 2491 3425 1978 
L 3425 0 
L 2847 0 
L 2847 2094 
Q 2847 2600 2669 2842 
Q 2491 3084 2119 3084 
Q 1678 3084 1418 2786 
Q 1159 2488 1159 1978 
L 1159 0 
L 581 0 
L 581 3500 
L 1159 3500 
L 1159 2956 
Q 1356 3278 1631 3431 
Q 1906 3584 2284 3584 
Q 2666 3584 2933 3390 
Q 3200 3197 3328 2828 
z
" transform="scale(0.015625)"/>
       <path id="DejaVuSans-70" d="M 1159 525 
L 1159 -1331 
L 581 -1331 
L 581 3500 
L 1159 3500 
L 1159 2969 
Q 1341 3281 1617 3432 
Q 1894 3584 2278 3584 
Q 2916 3584 3314 3078 
Q 3713 2572 3713 1747 
Q 3713 922 3314 415 
Q 2916 -91 2278 -91 
Q 1894 -91 1617 61 
Q 1341 213 1159 525 
z
M 3116 1747 
Q 3116 2381 2855 2742 
Q 2594 3103 2138 3103 
Q 1681 3103 1420 2742 
Q 1159 2381 1159 1747 
Q 1159 1113 1420 752 
Q 1681 391 2138 391 
Q 2594 391 2855 752 
Q 3116 1113 3116 1747 
z
" transform="scale(0.015625)"/>
       <path id="DejaVuSans-72" d="M 2631 2963 
Q 2534 3019 2420 3045 
Q 2306 3072 2169 3072 
Q 1681 3072 1420 2755 
Q 1159 2438 1159 1844 
L 1159 0 
L 581 0 
L 581 3500 
L 1159 3500 
L 1159 2956 
Q 1341 3275 1631 3429 
Q 1922 3584 2338 3584 
Q 2397 3584 2469 3576 
Q 2541 3569 2628 3553 
L 2631 2963 
z
" transform="scale(0.015625)"/>
       <path id="DejaVuSans-61" d="M 2194 1759 
Q 1497 1759 1228 1600 
Q 959 1441 959 1056 
Q 959 750 1161 570 
Q 1363 391 1709 391 
Q 2188 391 2477 730 
Q 2766 1069 2766 1631 
L 2766 1759 
L 2194 1759 
z
M 3341 1997 
L 3341 0 
L 2766 0 
L 2766 531 
Q 2569 213 2275 61 
Q 1981 -91 1556 -91 
Q 1019 -91 701 211 
Q 384 513 384 1019 
Q 384 1609 779 1909 
Q 1175 2209 1959 2209 
L 2766 2209 
L 2766 2266 
Q 2766 2663 2505 2880 
Q 2244 3097 1772 3097 
Q 1472 3097 1187 3025 
Q 903 2953 641 2809 
L 641 3341 
Q 956 3463 1253 3523 
Q 1550 3584 1831 3584 
Q 2591 3584 2966 3190 
Q 3341 2797 3341 1997 
z
" transform="scale(0.015625)"/>
       <path id="DejaVuSans-74" d="M 1172 4494 
L 1172 3500 
L 2356 3500 
L 2356 3053 
L 1172 3053 
L 1172 1153 
Q 1172 725 1289 603 
Q 1406 481 1766 481 
L 2356 481 
L 2356 0 
L 1766 0 
Q 1100 0 847 248 
Q 594 497 594 1153 
L 594 3053 
L 172 3053 
L 172 3500 
L 594 3500 
L 594 4494 
L 1172 4494 
z
" transform="scale(0.015625)"/>
       <path id="DejaVuSans-75" d="M 544 1381 
L 544 3500 
L 1119 3500 
L 1119 1403 
Q 1119 906 1312 657 
Q 1506 409 1894 409 
Q 2359 409 2629 706 
Q 2900 1003 2900 1516 
L 2900 3500 
L 3475 3500 
L 3475 0 
L 2900 0 
L 2900 538 
Q 2691 219 2414 64 
Q 2138 -91 1772 -91 
Q 1169 -91 856 284 
Q 544 659 544 1381 
z
M 1991 3584 
L 1991 3584 
z
" transform="scale(0.015625)"/>
       <path id="DejaVuSans-20" transform="scale(0.015625)"/>
       <path id="DejaVuSans-28" d="M 1984 4856 
Q 1566 4138 1362 3434 
Q 1159 2731 1159 2009 
Q 1159 1288 1364 580 
Q 1569 -128 1984 -844 
L 1484 -844 
Q 1016 -109 783 600 
Q 550 1309 550 2009 
Q 550 2706 781 3412 
Q 1013 4119 1484 4856 
L 1984 4856 
z
" transform="scale(0.015625)"/>
       <path id="DejaVuSans-2218" d="M 2000 2619 
Q 1750 2619 1578 2445 
Q 1406 2272 1406 2022 
Q 1406 1775 1578 1605 
Q 1750 1435 2000 1435 
Q 2250 1435 2422 1605 
Q 2594 1775 2594 2022 
Q 2594 2269 2420 2444 
Q 2247 2619 2000 2619 
z
M 2000 3022 
Q 2200 3022 2384 2945 
Q 2569 2869 2703 2725 
Q 2847 2585 2919 2406 
Q 2991 2228 2991 2022 
Q 2991 1610 2702 1324 
Q 2413 1038 1994 1038 
Q 1572 1038 1290 1319 
Q 1009 1600 1009 2022 
Q 1009 2441 1296 2731 
Q 1584 3022 2000 3022 
z
" transform="scale(0.015625)"/>
       <path id="DejaVuSans-Oblique-43" d="M 4447 4306 
L 4319 3641 
Q 4019 3944 3683 4091 
Q 3347 4238 2956 4238 
Q 2422 4238 2017 3981 
Q 1613 3725 1319 3200 
Q 1131 2863 1032 2486 
Q 934 2109 934 1728 
Q 934 1091 1264 756 
Q 1594 422 2222 422 
Q 2656 422 3056 561 
Q 3456 700 3834 978 
L 3688 231 
Q 3316 72 2936 -9 
Q 2556 -91 2175 -91 
Q 1278 -91 773 396 
Q 269 884 269 1753 
Q 269 2309 461 2846 
Q 653 3384 1013 3828 
Q 1394 4300 1883 4525 
Q 2372 4750 3022 4750 
Q 3422 4750 3780 4639 
Q 4138 4528 4447 4306 
z
" transform="scale(0.015625)"/>
       <path id="DejaVuSans-29" d="M 513 4856 
L 1013 4856 
Q 1481 4119 1714 3412 
Q 1947 2706 1947 2009 
Q 1947 1309 1714 600 
Q 1481 -109 1013 -844 
L 513 -844 
Q 928 -128 1133 580 
Q 1338 1288 1338 2009 
Q 1338 2731 1133 3434 
Q 928 4138 513 4856 
z
" transform="scale(0.015625)"/>
      </defs>
      <use xlink:href="#DejaVuSans-54" transform="translate(0 0.125)"/>
      <use xlink:href="#DejaVuSans-65" transform="translate(61.083984 0.125)"/>
      <use xlink:href="#DejaVuSans-6d" transform="translate(122.607422 0.125)"/>
      <use xlink:href="#DejaVuSans-70" transform="translate(220.019531 0.125)"/>
      <use xlink:href="#DejaVuSans-65" transform="translate(283.496094 0.125)"/>
      <use xlink:href="#DejaVuSans-72" transform="translate(345.019531 0.125)"/>
      <use xlink:href="#DejaVuSans-61" transform="translate(386.132812 0.125)"/>
      <use xlink:href="#DejaVuSans-74" transform="translate(447.412109 0.125)"/>
      <use xlink:href="#DejaVuSans-75" transform="translate(486.621094 0.125)"/>
      <use xlink:href="#DejaVuSans-72" transform="translate(550 0.125)"/>
      <use xlink:href="#DejaVuSans-65" transform="translate(591.113281 0.125)"/>
      <use xlink:href="#DejaVuSans-20" transform="translate(652.636719 0.125)"/>
      <use xlink:href="#DejaVuSans-28" transform="translate(684.423828 0.125)"/>
      <use xlink:href="#DejaVuSans-2218" transform="translate(724.394531 38.40625) scale(0.7)"/>
      <use xlink:href="#DejaVuSans-Oblique-43" transform="translate(770.947266 0.125)"/>
      <use xlink:href="#DejaVuSans-29" transform="translate(840.771484 0.125)"/>
     </g>
    </g>
   </g>
   <g id="matplotlib.axis_2">
    <g id="ytick_1">
     <g id="line2d_10">
      <defs>
       <path id="m66f78052ab" d="M 0 0 
L -3.5 0 
" style="stroke: #000000; stroke-width: 0.8"/>
      </defs>
      <g>
       <use xlink:href="#m66f78052ab" x="57.6" y="295.488" style="stroke: #000000; stroke-width: 0.8"/>
      </g>
     </g>
     <g id="text_11">
      <!-- 0 -->
      <g transform="translate(44.2375 299.287219) scale(0.1 -0.1)">
       <use xlink:href="#DejaVuSans-30"/>
      </g>
     </g>
    </g>
    <g id="ytick_2">
     <g id="line2d_11">
      <g>
       <use xlink:href="#m66f78052ab" x="57.6" y="260.359249" style="stroke: #000000; stroke-width: 0.8"/>
      </g>
     </g>
     <g id="text_12">
      <!-- 500 -->
      <g transform="translate(31.5125 264.158468) scale(0.1 -0.1)">
       <use xlink:href="#DejaVuSans-35"/>
       <use xlink:href="#DejaVuSans-30" transform="translate(63.623047 0)"/>
       <use xlink:href="#DejaVuSans-30" transform="translate(127.246094 0)"/>
      </g>
     </g>
    </g>
    <g id="ytick_3">
     <g id="line2d_12">
      <g>
       <use xlink:href="#m66f78052ab" x="57.6" y="225.230498" style="stroke: #000000; stroke-width: 0.8"/>
      </g>
     </g>
     <g id="text_13">
      <!-- 1000 -->
      <g transform="translate(25.15 229.029716) scale(0.1 -0.1)">
       <use xlink:href="#DejaVuSans-31"/>
       <use xlink:href="#DejaVuSans-30" transform="translate(63.623047 0)"/>
       <use xlink:href="#DejaVuSans-30" transform="translate(127.246094 0)"/>
       <use xlink:href="#DejaVuSans-30" transform="translate(190.869141 0)"/>
      </g>
     </g>
    </g>
    <g id="ytick_4">
     <g id="line2d_13">
      <g>
       <use xlink:href="#m66f78052ab" x="57.6" y="190.101746" style="stroke: #000000; stroke-width: 0.8"/>
      </g>
     </g>
     <g id="text_14">
      <!-- 1500 -->
      <g transform="translate(25.15 193.900965) scale(0.1 -0.1)">
       <use xlink:href="#DejaVuSans-31"/>
       <use xlink:href="#DejaVuSans-35" transform="translate(63.623047 0)"/>
       <use xlink:href="#DejaVuSans-30" transform="translate(127.246094 0)"/>
       <use xlink:href="#DejaVuSans-30" transform="translate(190.869141 0)"/>
      </g>
     </g>
    </g>
    <g id="ytick_5">
     <g id="line2d_14">
      <g>
       <use xlink:href="#m66f78052ab" x="57.6" y="154.972995" style="stroke: #000000; stroke-width: 0.8"/>
      </g>
     </g>
     <g id="text_15">
      <!-- 2000 -->
      <g transform="translate(25.15 158.772214) scale(0.1 -0.1)">
       <use xlink:href="#DejaVuSans-32"/>
       <use xlink:href="#DejaVuSans-30" transform="translate(63.623047 0)"/>
       <use xlink:href="#DejaVuSans-30" transform="translate(127.246094 0)"/>
       <use xlink:href="#DejaVuSans-30" transform="translate(190.869141 0)"/>
      </g>
     </g>
    </g>
    <g id="ytick_6">
     <g id="line2d_15">
      <g>
       <use xlink:href="#m66f78052ab" x="57.6" y="119.844244" style="stroke: #000000; stroke-width: 0.8"/>
      </g>
     </g>
     <g id="text_16">
      <!-- 2500 -->
      <g transform="translate(25.15 123.643463) scale(0.1 -0.1)">
       <use xlink:href="#DejaVuSans-32"/>
       <use xlink:href="#DejaVuSans-35" transform="translate(63.623047 0)"/>
       <use xlink:href="#DejaVuSans-30" transform="translate(127.246094 0)"/>
       <use xlink:href="#DejaVuSans-30" transform="translate(190.869141 0)"/>
      </g>
     </g>
    </g>
    <g id="ytick_7">
     <g id="line2d_16">
      <g>
       <use xlink:href="#m66f78052ab" x="57.6" y="84.715493" style="stroke: #000000; stroke-width: 0.8"/>
      </g>
     </g>
     <g id="text_17">
      <!-- 3000 -->
      <g transform="translate(25.15 88.514711) scale(0.1 -0.1)">
       <use xlink:href="#DejaVuSans-33"/>
       <use xlink:href="#DejaVuSans-30" transform="translate(63.623047 0)"/>
       <use xlink:href="#DejaVuSans-30" transform="translate(127.246094 0)"/>
       <use xlink:href="#DejaVuSans-30" transform="translate(190.869141 0)"/>
      </g>
     </g>
    </g>
    <g id="ytick_8">
     <g id="line2d_17">
      <g>
       <use xlink:href="#m66f78052ab" x="57.6" y="49.586742" style="stroke: #000000; stroke-width: 0.8"/>
      </g>
     </g>
     <g id="text_18">
      <!-- 3500 -->
      <g transform="translate(25.15 53.38596) scale(0.1 -0.1)">
       <use xlink:href="#DejaVuSans-33"/>
       <use xlink:href="#DejaVuSans-35" transform="translate(63.623047 0)"/>
       <use xlink:href="#DejaVuSans-30" transform="translate(127.246094 0)"/>
       <use xlink:href="#DejaVuSans-30" transform="translate(190.869141 0)"/>
      </g>
     </g>
    </g>
    <g id="text_19">
     <!-- Intensity ($^{\circ}C^{-1}$) -->
     <g transform="translate(19.05 213.328) rotate(-90) scale(0.1 -0.1)">
      <defs>
       <path id="DejaVuSans-49" d="M 628 4666 
L 1259 4666 
L 1259 0 
L 628 0 
L 628 4666 
z
" transform="scale(0.015625)"/>
       <path id="DejaVuSans-6e" d="M 3513 2113 
L 3513 0 
L 2938 0 
L 2938 2094 
Q 2938 2591 2744 2837 
Q 2550 3084 2163 3084 
Q 1697 3084 1428 2787 
Q 1159 2491 1159 1978 
L 1159 0 
L 581 0 
L 581 3500 
L 1159 3500 
L 1159 2956 
Q 1366 3272 1645 3428 
Q 1925 3584 2291 3584 
Q 2894 3584 3203 3211 
Q 3513 2838 3513 2113 
z
" transform="scale(0.015625)"/>
       <path id="DejaVuSans-73" d="M 2834 3397 
L 2834 2853 
Q 2591 2978 2328 3040 
Q 2066 3103 1784 3103 
Q 1356 3103 1142 2972 
Q 928 2841 928 2578 
Q 928 2378 1081 2264 
Q 1234 2150 1697 2047 
L 1894 2003 
Q 2506 1872 2764 1633 
Q 3022 1394 3022 966 
Q 3022 478 2636 193 
Q 2250 -91 1575 -91 
Q 1294 -91 989 -36 
Q 684 19 347 128 
L 347 722 
Q 666 556 975 473 
Q 1284 391 1588 391 
Q 1994 391 2212 530 
Q 2431 669 2431 922 
Q 2431 1156 2273 1281 
Q 2116 1406 1581 1522 
L 1381 1569 
Q 847 1681 609 1914 
Q 372 2147 372 2553 
Q 372 3047 722 3315 
Q 1072 3584 1716 3584 
Q 2034 3584 2315 3537 
Q 2597 3491 2834 3397 
z
" transform="scale(0.015625)"/>
       <path id="DejaVuSans-69" d="M 603 3500 
L 1178 3500 
L 1178 0 
L 603 0 
L 603 3500 
z
M 603 4863 
L 1178 4863 
L 1178 4134 
L 603 4134 
L 603 4863 
z
" transform="scale(0.015625)"/>
       <path id="DejaVuSans-79" d="M 2059 -325 
Q 1816 -950 1584 -1140 
Q 1353 -1331 966 -1331 
L 506 -1331 
L 506 -850 
L 844 -850 
Q 1081 -850 1212 -737 
Q 1344 -625 1503 -206 
L 1606 56 
L 191 3500 
L 800 3500 
L 1894 763 
L 2988 3500 
L 3597 3500 
L 2059 -325 
z
" transform="scale(0.015625)"/>
       <path id="DejaVuSans-2212" d="M 678 2272 
L 4684 2272 
L 4684 1741 
L 678 1741 
L 678 2272 
z
" transform="scale(0.015625)"/>
      </defs>
      <use xlink:href="#DejaVuSans-49" transform="translate(0 0.684375)"/>
      <use xlink:href="#DejaVuSans-6e" transform="translate(29.492188 0.684375)"/>
      <use xlink:href="#DejaVuSans-74" transform="translate(92.871094 0.684375)"/>
      <use xlink:href="#DejaVuSans-65" transform="translate(132.080078 0.684375)"/>
      <use xlink:href="#DejaVuSans-6e" transform="translate(193.603516 0.684375)"/>
      <use xlink:href="#DejaVuSans-73" transform="translate(256.982422 0.684375)"/>
      <use xlink:href="#DejaVuSans-69" transform="translate(309.082031 0.684375)"/>
      <use xlink:href="#DejaVuSans-74" transform="translate(336.865234 0.684375)"/>
      <use xlink:href="#DejaVuSans-79" transform="translate(376.074219 0.684375)"/>
      <use xlink:href="#DejaVuSans-20" transform="translate(435.253906 0.684375)"/>
      <use xlink:href="#DejaVuSans-28" transform="translate(467.041016 0.684375)"/>
      <use xlink:href="#DejaVuSans-2218" transform="translate(507.011719 38.965625) scale(0.7)"/>
      <use xlink:href="#DejaVuSans-Oblique-43" transform="translate(553.564453 0.684375)"/>
      <use xlink:href="#DejaVuSans-2212" transform="translate(630.589193 38.965625) scale(0.7)"/>
      <use xlink:href="#DejaVuSans-31" transform="translate(689.241536 38.965625) scale(0.7)"/>
      <use xlink:href="#DejaVuSans-29" transform="translate(736.512044 0.684375)"/>
     </g>
    </g>
   </g>
   <g id="line2d_18">
    <path d="M 73.832727 295.488 
L 119.368689 295.488 
L 119.790319 294.317042 
L 122.320094 294.317042 
L 122.741724 293.146083 
L 123.163353 288.46225 
L 123.584982 287.291291 
L 124.006612 287.291291 
L 124.84987 284.949375 
L 126.536387 284.949375 
L 127.379646 282.607458 
L 127.801275 279.094583 
L 128.222904 279.094583 
L 128.644534 274.410749 
L 129.066163 273.239791 
L 129.487792 273.239791 
L 129.909421 269.726916 
L 130.331051 263.872124 
L 131.595939 256.846374 
L 132.439197 256.846374 
L 132.860826 252.16254 
L 133.704085 249.820623 
L 134.125714 247.478707 
L 134.547344 243.965832 
L 134.968973 242.794873 
L 135.812231 242.794873 
L 136.233861 234.598165 
L 137.920378 214.691872 
L 138.342007 208.83708 
L 138.763636 205.324205 
L 139.185266 202.982288 
L 140.450153 183.075996 
L 140.871783 178.392163 
L 141.293412 177.221204 
L 141.715041 170.195454 
L 142.136671 167.853537 
L 142.5583 166.682579 
L 142.979929 170.195454 
L 143.401558 165.511621 
L 144.244817 149.118203 
L 144.666446 142.092453 
L 145.088076 138.579578 
L 145.509705 130.382869 
L 145.931334 131.553828 
L 146.352963 128.040953 
L 146.774593 121.015202 
L 147.617851 113.989452 
L 148.039481 106.963702 
L 148.46111 108.13466 
L 148.882739 110.476577 
L 149.304368 103.450827 
L 149.725998 102.279868 
L 150.147627 99.937952 
L 150.569256 102.279868 
L 150.990885 106.963702 
L 151.412515 103.450827 
L 151.834144 94.08316 
L 152.255773 90.570285 
L 152.677403 88.228368 
L 153.099032 94.08316 
L 153.520661 85.886451 
L 153.94229 84.715493 
L 154.36392 85.886451 
L 154.785549 78.860701 
L 155.628808 70.663992 
L 157.315325 75.347826 
L 157.736954 74.176867 
L 158.158583 82.373576 
L 158.580213 73.005909 
L 159.001842 73.005909 
L 159.423471 74.176867 
L 159.8451 70.663992 
L 160.26673 71.834951 
L 160.688359 77.689742 
L 161.109988 75.347826 
L 161.531617 76.518784 
L 161.953247 82.373576 
L 162.374876 85.886451 
L 162.796505 92.912201 
L 163.218135 90.570285 
L 163.639764 89.399326 
L 164.483022 91.741243 
L 164.904652 94.08316 
L 165.326281 99.937952 
L 165.74791 101.10891 
L 166.16954 104.621785 
L 166.591169 109.305619 
L 167.012798 109.305619 
L 167.434427 116.331369 
L 167.856057 125.699036 
L 168.277686 126.869994 
L 168.699315 126.869994 
L 169.120945 136.237661 
L 170.385832 143.263411 
L 170.807462 143.263411 
L 171.229091 142.092453 
L 171.65072 145.605328 
L 172.072349 151.46012 
L 172.493979 159.656829 
L 172.915608 161.998745 
L 173.337237 163.169704 
L 173.758867 161.998745 
L 174.180496 161.998745 
L 174.602125 164.340662 
L 175.023754 164.340662 
L 175.445384 160.827787 
L 175.867013 165.511621 
L 176.288642 163.169704 
L 176.710272 166.682579 
L 177.55353 183.075996 
L 177.975159 187.75983 
L 178.396789 188.930788 
L 178.818418 198.298455 
L 179.240047 200.640372 
L 179.661677 207.666122 
L 180.083306 210.008039 
L 180.504935 210.008039 
L 181.348194 220.546664 
L 181.769823 221.717622 
L 182.191452 227.572414 
L 183.034711 234.598165 
L 183.45634 239.281998 
L 183.877969 249.820623 
L 184.299599 250.991582 
L 185.142857 255.675415 
L 185.986116 258.017332 
L 186.829374 270.897874 
L 188.094262 281.4365 
L 188.515891 283.778416 
L 188.937521 288.46225 
L 189.35915 290.804167 
L 189.780779 291.975125 
L 190.202409 294.317042 
L 190.624038 294.317042 
L 191.045667 295.488 
L 398.487273 295.488 
L 398.487273 295.488 
" clip-path="url(#p3e79117659)" style="fill: none; stroke-dasharray: 1.85,0.8; stroke-dashoffset: 0; stroke: #8000ff; stroke-width: 0.5"/>
   </g>
   <g id="line2d_19">
    <path d="M 73.832727 295.488 
L 117.260543 295.488 
L 117.682172 295.370904 
L 119.790319 295.370904 
L 120.211948 294.199946 
L 123.163353 294.199946 
L 123.584982 293.028987 
L 124.006612 293.028987 
L 124.84987 290.687071 
L 125.271499 290.687071 
L 125.693129 290.569975 
L 126.114758 285.886141 
L 129.909421 285.886141 
L 130.331051 286.003237 
L 130.75268 284.832279 
L 131.595939 284.832279 
L 132.017568 282.490362 
L 132.439197 282.490362 
L 132.860826 283.66132 
L 133.282456 282.25617 
L 134.125714 282.021979 
L 134.968973 279.562966 
L 135.390602 279.562966 
L 135.812231 279.44587 
L 136.233861 280.616829 
L 136.65549 280.265541 
L 137.077119 281.202308 
L 137.498749 279.797158 
L 138.342007 275.23042 
L 138.763636 277.572337 
L 140.028524 273.942366 
L 140.871783 271.01497 
L 141.293412 271.01497 
L 141.715041 270.780778 
L 142.136671 264.691795 
L 142.979929 259.890865 
L 143.401558 260.944728 
L 143.823188 259.539578 
L 144.244817 259.18829 
L 144.666446 260.125057 
L 145.088076 259.890865 
L 145.509705 258.602811 
L 145.931334 259.539578 
L 146.352963 258.251524 
L 146.774593 258.36862 
L 147.196222 258.134428 
L 147.617851 258.134428 
L 148.039481 254.153169 
L 148.882739 245.019694 
L 149.304368 242.911969 
L 149.725998 241.506819 
L 150.147627 241.506819 
L 150.569256 240.687148 
L 151.834144 229.09466 
L 152.255773 227.572414 
L 152.677403 223.708252 
L 153.099032 222.186006 
L 153.520661 216.331214 
L 153.94229 214.340585 
L 154.36392 208.134505 
L 154.785549 205.792589 
L 156.472066 183.193092 
L 156.893695 179.797313 
L 157.315325 174.762192 
L 157.736954 172.888658 
L 158.158583 173.708329 
L 158.580213 170.898029 
L 159.423471 159.305541 
L 159.8451 155.558474 
L 160.26673 155.207187 
L 160.688359 150.172066 
L 161.109988 143.263411 
L 161.531617 141.506974 
L 161.953247 136.354757 
L 163.218135 125.464844 
L 163.639764 117.15104 
L 164.061393 117.268136 
L 164.483022 116.448465 
L 165.326281 92.560914 
L 165.74791 90.218997 
L 166.16954 86.120643 
L 166.591169 84.012918 
L 167.012798 84.012918 
L 167.434427 81.319713 
L 167.856057 77.572647 
L 168.277686 76.401688 
L 168.699315 78.509413 
L 169.120945 78.392318 
L 169.542574 72.303334 
L 169.964203 74.293963 
L 170.807462 62.818571 
L 171.229091 59.656984 
L 171.65072 63.286955 
L 172.072349 59.891175 
L 172.493979 60.945038 
L 172.915608 53.568 
L 173.758867 59.656984 
L 174.180496 60.008271 
L 174.602125 61.062134 
L 175.023754 60.710846 
L 175.445384 59.539888 
L 175.867013 56.261204 
L 176.288642 61.764709 
L 177.131901 66.682734 
L 177.975159 90.921572 
L 178.396789 87.642889 
L 178.818418 90.804476 
L 179.240047 85.418068 
L 179.661677 88.111272 
L 180.083306 93.731872 
L 180.504935 101.928581 
L 180.926564 106.612414 
L 181.769823 111.998823 
L 182.191452 120.195531 
L 182.613081 122.77164 
L 183.45634 131.436732 
L 183.877969 132.724786 
L 184.299599 135.535086 
L 184.721228 140.336015 
L 185.142857 140.570207 
L 185.564486 142.326645 
L 185.986116 145.956616 
L 186.407745 152.513983 
L 186.829374 153.684941 
L 187.251004 156.261049 
L 187.672633 155.558474 
L 188.937521 171.132221 
L 189.35915 168.9074 
L 190.624038 177.3383 
L 191.888926 202.279713 
L 192.310555 203.450672 
L 192.732184 205.207109 
L 193.153813 204.387439 
L 193.575443 205.909684 
L 193.997072 204.855822 
L 194.418701 207.314834 
L 194.840331 208.719985 
L 195.683589 204.738726 
L 196.105218 205.909684 
L 196.526848 210.710614 
L 196.948477 211.881572 
L 197.370106 213.403818 
L 197.791736 215.745735 
L 198.213365 222.654389 
L 199.056623 227.455318 
L 199.478253 231.670769 
L 199.899882 234.246877 
L 200.321511 240.218765 
L 200.74314 241.741011 
L 201.16477 247.010323 
L 201.586399 250.75739 
L 202.008028 256.846374 
L 202.851287 257.431853 
L 203.272916 259.071195 
L 204.116175 259.305386 
L 204.537804 260.476345 
L 204.959433 263.052453 
L 205.381063 266.79952 
L 205.802692 271.600449 
L 206.224321 274.293653 
L 206.64595 278.157816 
L 207.06758 278.274912 
L 207.489209 278.509104 
L 207.910838 282.139075 
L 208.332468 287.174196 
L 208.754097 288.579346 
L 209.175726 288.930633 
L 209.597355 289.047729 
L 210.018985 291.389646 
L 210.440614 292.911892 
L 210.862243 293.263179 
L 211.283872 293.380275 
L 212.127131 293.380275 
L 212.54876 294.785425 
L 212.97039 295.019617 
L 213.392019 295.019617 
L 214.235277 295.488 
L 398.487273 295.488 
L 398.487273 295.488 
" clip-path="url(#p3e79117659)" style="fill: none; stroke-dasharray: 1.85,0.8; stroke-dashoffset: 0; stroke: #00b5eb; stroke-width: 0.5"/>
   </g>
   <g id="line2d_20">
    <path d="M 73.832727 295.488 
L 117.260543 295.488 
L 117.682172 295.370904 
L 119.790319 295.370904 
L 120.211948 294.199946 
L 123.163353 294.199946 
L 123.584982 293.028987 
L 124.006612 293.028987 
L 124.84987 290.687071 
L 125.271499 290.687071 
L 125.693129 290.569975 
L 126.114758 285.886141 
L 130.331051 285.979818 
L 130.75268 284.80886 
L 131.595939 284.80886 
L 132.017568 282.466943 
L 132.439197 282.466943 
L 132.860826 283.637901 
L 133.282456 282.349847 
L 133.704085 282.115655 
L 134.125714 282.115655 
L 134.547344 281.99856 
L 134.968973 280.827601 
L 135.390602 280.827601 
L 135.812231 279.633224 
L 136.233861 280.687086 
L 136.65549 280.687086 
L 137.498749 282.911907 
L 137.920378 282.911907 
L 138.342007 283.029003 
L 138.763636 287.595741 
L 139.606895 287.595741 
L 140.028524 287.478645 
L 140.450153 287.244453 
L 142.136671 282.209332 
L 142.979929 282.209332 
L 143.401558 283.356871 
L 143.823188 283.356871 
L 144.244817 282.162494 
L 144.666446 284.480991 
L 145.088076 280.968116 
L 145.509705 279.797158 
L 145.931334 281.061793 
L 146.352963 281.295985 
L 146.774593 280.00793 
L 148.039481 279.984511 
L 148.46111 279.703481 
L 148.882739 278.649619 
L 149.304368 278.368589 
L 149.725998 275.886157 
L 150.147627 274.808875 
L 150.569256 274.551264 
L 150.990885 273.333468 
L 151.412515 268.602796 
L 151.834144 266.120364 
L 152.677403 265.488046 
L 153.099032 264.059477 
L 153.520661 265.324112 
L 154.36392 264.621537 
L 154.785549 265.745657 
L 155.207178 264.434184 
L 155.628808 264.246831 
L 156.050437 261.413111 
L 156.472066 256.214056 
L 156.893695 254.598134 
L 157.315325 250.640294 
L 157.736954 250.499779 
L 158.158583 249.726947 
L 159.423471 234.270296 
L 159.8451 230.546649 
L 160.26673 229.235175 
L 161.109988 222.841742 
L 161.531617 221.155562 
L 161.953247 216.424891 
L 162.796505 210.851129 
L 163.218135 205.581816 
L 163.639764 198.907353 
L 164.061393 201.670815 
L 164.483022 197.408527 
L 164.904652 186.05023 
L 165.326281 183.638056 
L 165.74791 183.80199 
L 166.16954 182.209487 
L 166.591169 178.673193 
L 167.012798 172.935497 
L 167.434427 164.481177 
L 167.856057 160.289146 
L 168.277686 153.052623 
L 168.699315 153.286815 
L 169.120945 151.881665 
L 169.542574 148.321952 
L 169.964203 147.24467 
L 170.385832 146.659191 
L 170.807462 142.443741 
L 171.229091 140.312596 
L 171.65072 142.701351 
L 172.072349 144.129921 
L 172.493979 143.825471 
L 173.337237 131.20254 
L 173.758867 121.272813 
L 174.602125 113.21662 
L 175.023754 113.75526 
L 175.445384 108.97775 
L 175.867013 101.179167 
L 176.288642 103.591342 
L 176.710272 100.289239 
L 177.131901 94.528124 
L 177.55353 99.70376 
L 177.975159 96.237723 
L 178.396789 88.860685 
L 178.818418 87.61947 
L 179.240047 89.891129 
L 179.661677 90.336093 
L 180.083306 89.352488 
L 180.926564 92.67801 
L 181.348194 91.015249 
L 181.769823 90.663961 
L 182.191452 87.994176 
L 183.034711 75.324407 
L 183.45634 71.155795 
L 183.877969 72.069142 
L 184.299599 68.532848 
L 184.721228 66.23777 
L 185.142857 61.272906 
L 185.564486 53.755353 
L 185.986116 54.598443 
L 186.407745 65.699129 
L 186.829374 62.631218 
L 187.251004 65.39468 
L 187.672633 62.397026 
L 188.094262 67.197955 
L 188.515891 69.493034 
L 188.937521 68.860716 
L 189.35915 71.155795 
L 189.780779 79.094893 
L 190.202409 81.389971 
L 190.624038 85.113619 
L 191.045667 92.373561 
L 191.467296 90.172159 
L 192.310555 94.481286 
L 192.732184 101.38994 
L 193.153813 105.160426 
L 193.575443 103.567923 
L 194.418701 109.375876 
L 195.26196 124.317305 
L 195.683589 130.406288 
L 196.105218 138.111195 
L 196.526848 140.710722 
L 196.948477 145.324298 
L 197.370106 144.949591 
L 197.791736 150.05497 
L 198.213365 163.614668 
L 198.634994 169.797328 
L 199.056623 171.272736 
L 199.899882 184.574823 
L 200.321511 190.453034 
L 200.74314 193.239915 
L 201.16477 201.389785 
L 201.586399 205.769169 
L 202.008028 207.595864 
L 202.851287 215.792573 
L 203.272916 218.368682 
L 203.694545 218.673131 
L 204.116175 222.373359 
L 204.537804 218.813646 
L 204.959433 222.115748 
L 205.381063 222.303102 
L 205.802692 218.954161 
L 206.224321 223.591156 
L 206.64595 223.380383 
L 207.06758 227.104031 
L 207.489209 226.28436 
L 208.332468 235.347578 
L 208.754097 237.666076 
L 209.175726 237.947106 
L 209.597355 235.113386 
L 210.018985 235.160225 
L 210.440614 235.605189 
L 210.862243 238.11104 
L 211.283872 238.6731 
L 211.705502 239.024387 
L 212.127131 237.83001 
L 212.97039 238.415489 
L 213.392019 237.455303 
L 214.235277 236.167249 
L 214.656907 237.431884 
L 215.078536 237.595818 
L 215.500165 236.70589 
L 215.921795 236.776147 
L 216.765053 239.445932 
L 217.186682 243.45061 
L 217.608312 245.13679 
L 218.029941 247.642641 
L 218.45157 251.225773 
L 218.8732 253.778463 
L 219.294829 255.488062 
L 219.716458 255.698834 
L 220.138087 257.033727 
L 220.559717 257.314757 
L 220.981346 257.431853 
L 221.402975 257.736302 
L 221.824604 261.342854 
L 222.667863 273.403725 
L 223.089492 276.963439 
L 223.511122 277.127373 
L 223.932751 279.633224 
L 224.35438 280.827601 
L 224.776009 284.598087 
L 225.197639 284.644925 
L 225.619268 285.956399 
L 226.040897 288.345154 
L 226.462527 291.904867 
L 226.884156 294.246784 
L 227.727414 294.270203 
L 228.149044 295.488 
L 398.487273 295.488 
L 398.487273 295.488 
" clip-path="url(#p3e79117659)" style="fill: none; stroke-dasharray: 1.85,0.8; stroke-dashoffset: 0; stroke: #80ffb4; stroke-width: 0.5"/>
   </g>
   <g id="line2d_21">
    <path d="M 73.832727 295.488 
L 117.260543 295.488 
L 117.682172 295.370904 
L 119.790319 295.370904 
L 120.211948 294.199946 
L 123.163353 294.199946 
L 123.584982 293.028987 
L 124.006612 293.028987 
L 124.84987 290.675361 
L 125.271499 290.675361 
L 125.693129 290.558265 
L 126.114758 285.874432 
L 130.331051 285.968108 
L 130.75268 284.79715 
L 131.595939 284.78544 
L 132.017568 282.443524 
L 132.439197 282.443524 
L 132.860826 283.614482 
L 133.282456 282.326428 
L 133.704085 282.092236 
L 134.125714 282.092236 
L 134.547344 281.97514 
L 134.968973 280.804182 
L 135.390602 280.804182 
L 135.812231 279.609804 
L 136.233861 280.663667 
L 136.65549 280.663667 
L 137.498749 282.900197 
L 137.920378 282.900197 
L 138.342007 283.017293 
L 138.763636 287.572321 
L 139.606895 287.572321 
L 140.028524 287.455226 
L 140.450153 287.221034 
L 142.136671 282.174203 
L 142.979929 282.174203 
L 143.401558 283.321742 
L 143.823188 283.333452 
L 144.244817 282.150784 
L 144.666446 284.492701 
L 145.931334 281.026664 
L 146.352963 281.260856 
L 146.774593 281.249146 
L 147.196222 280.066478 
L 147.617851 281.214017 
L 148.039481 281.214017 
L 148.46111 282.291299 
L 149.304368 282.349847 
L 149.725998 282.162494 
L 150.147627 282.26788 
L 150.569256 281.096922 
L 150.990885 281.073502 
L 151.412515 277.537208 
L 152.677403 273.708174 
L 153.520661 274.036043 
L 154.36392 276.061801 
L 154.785549 277.068825 
L 155.207178 273.157824 
L 155.628808 271.811222 
L 156.050437 269.293661 
L 156.472066 268.778439 
L 156.893695 269.562982 
L 157.315325 268.263218 
L 158.158583 270.347524 
L 158.580213 271.038389 
L 159.001842 267.373289 
L 159.423471 265.94472 
L 160.26673 260.757375 
L 160.688359 260.558312 
L 161.531617 254.926002 
L 161.953247 249.844043 
L 162.374876 247.256225 
L 163.639764 235.874509 
L 164.061393 237.572399 
L 164.483022 236.038443 
L 164.904652 232.256248 
L 165.326281 230.031427 
L 166.16954 227.115741 
L 166.591169 223.626285 
L 167.012798 216.682501 
L 167.434427 214.293746 
L 167.856057 217.595849 
L 168.277686 216.260956 
L 168.699315 217.162594 
L 169.120945 217.455334 
L 169.542574 211.588833 
L 170.385832 208.193053 
L 170.807462 203.017417 
L 171.229091 203.017417 
L 171.65072 203.755121 
L 172.072349 198.883934 
L 172.493979 198.16965 
L 172.915608 194.246939 
L 173.337237 186.06194 
L 173.758867 183.825409 
L 174.180496 186.261003 
L 174.602125 183.485832 
L 175.023754 175.499895 
L 175.445384 173.872263 
L 175.867013 175.535024 
L 176.288642 173.204817 
L 176.710272 173.427299 
L 177.131901 173.052592 
L 177.55353 175.172027 
L 177.975159 168.181406 
L 178.396789 164.071342 
L 178.818418 158.520999 
L 179.240047 156.670885 
L 179.661677 157.701328 
L 180.083306 149.258718 
L 180.504935 145.757553 
L 180.926564 143.251702 
L 181.769823 130.909801 
L 182.191452 129.727133 
L 182.613081 120.265789 
L 183.034711 114.293901 
L 183.45634 114.176805 
L 183.877969 105.593681 
L 184.299599 103.122958 
L 184.721228 104.083144 
L 185.142857 99.949661 
L 185.564486 97.888774 
L 185.986116 98.755284 
L 186.829374 93.50939 
L 187.251004 93.579648 
L 187.672633 97.701421 
L 188.094262 96.132337 
L 188.515891 91.788081 
L 188.937521 92.67801 
L 189.35915 90.464898 
L 189.780779 92.010563 
L 190.202409 86.179191 
L 190.624038 88.848976 
L 191.045667 86.729541 
L 191.467296 94.235384 
L 192.310555 98.954347 
L 192.732184 101.167458 
L 193.153813 98.673317 
L 193.575443 99.809146 
L 193.997072 105.991806 
L 194.418701 107.970726 
L 194.840331 105.195555 
L 195.26196 107.443795 
L 196.105218 110.277514 
L 196.526848 115.991791 
L 196.948477 118.567899 
L 197.370106 118.790381 
L 197.791736 115.359473 
L 198.213365 115.570246 
L 198.634994 116.670947 
L 199.478253 114.012871 
L 199.899882 116.214273 
L 201.586399 136.401595 
L 202.008028 138.53274 
L 202.429658 134.832511 
L 202.851287 140.593626 
L 203.272916 147.970664 
L 203.694545 149.539748 
L 204.116175 147.595957 
L 204.537804 147.958955 
L 204.959433 151.682602 
L 205.381063 149.809069 
L 205.802692 153.673231 
L 206.224321 155.054962 
L 206.64595 152.59595 
L 207.06758 152.57253 
L 207.910838 162.478838 
L 208.332468 165.933166 
L 208.754097 164.773917 
L 209.597355 170.03152 
L 210.018985 174.949545 
L 210.862243 193.684879 
L 211.705502 207.385092 
L 212.127131 210.417874 
L 212.54876 214.680163 
L 212.97039 213.778525 
L 213.392019 214.808968 
L 214.235277 212.724662 
L 214.656907 211.986958 
L 215.078536 215.008031 
L 215.500165 216.612244 
L 215.921795 214.703582 
L 216.343424 219.012709 
L 217.186682 223.919024 
L 217.608312 224.188345 
L 218.029941 233.356949 
L 218.8732 238.321812 
L 219.716458 246.471682 
L 220.138087 244.551311 
L 220.559717 248.52086 
L 220.981346 250.464651 
L 221.402975 255.628577 
L 221.824604 257.162532 
L 222.246234 257.724592 
L 222.667863 257.935365 
L 223.089492 259.551288 
L 223.932751 259.972833 
L 225.197639 264.281959 
L 225.619268 266.951744 
L 226.040897 267.548933 
L 226.462527 271.132066 
L 226.884156 272.595764 
L 227.727414 277.525499 
L 228.149044 278.965777 
L 228.992302 283.251485 
L 229.835561 283.473967 
L 230.25719 283.544225 
L 230.678819 285.148438 
L 232.365336 285.968108 
L 232.786966 293.087535 
L 233.630224 295.488 
L 398.487273 295.488 
L 398.487273 295.488 
" clip-path="url(#p3e79117659)" style="fill: none; stroke-dasharray: 1.85,0.8; stroke-dashoffset: 0; stroke: #ffb360; stroke-width: 0.5"/>
   </g>
   <g id="line2d_22">
    <path d="M 73.832727 295.488 
L 117.260543 295.488 
L 117.682172 295.370904 
L 119.790319 295.370904 
L 120.211948 294.199946 
L 123.163353 294.199946 
L 123.584982 293.028987 
L 124.006612 293.028987 
L 124.84987 290.675361 
L 125.271499 290.675361 
L 125.693129 290.558265 
L 126.114758 285.874432 
L 130.331051 285.962254 
L 130.75268 284.791295 
L 131.595939 284.779586 
L 132.017568 282.437669 
L 132.439197 282.437669 
L 132.860826 283.608627 
L 133.282456 282.320573 
L 133.704085 282.086381 
L 134.125714 282.086381 
L 134.547344 281.969286 
L 134.968973 280.798327 
L 135.390602 280.798327 
L 135.812231 279.60395 
L 136.233861 280.657812 
L 136.65549 280.657812 
L 137.498749 282.894343 
L 137.920378 282.894343 
L 138.342007 283.011439 
L 138.763636 287.566467 
L 139.606895 287.566467 
L 140.028524 287.455226 
L 140.450153 287.221034 
L 142.136671 282.168348 
L 142.979929 282.168348 
L 143.401558 283.315888 
L 143.823188 283.327597 
L 144.244817 282.144929 
L 144.666446 284.486846 
L 145.931334 281.020809 
L 146.352963 281.255001 
L 146.774593 281.243291 
L 147.196222 280.060623 
L 147.617851 281.202308 
L 148.039481 281.196453 
L 148.46111 282.273735 
L 148.882739 282.390831 
L 150.990885 282.250316 
L 151.412515 282.367411 
L 151.834144 281.190598 
L 152.255773 281.167179 
L 153.099032 279.024325 
L 153.94229 279.229243 
L 154.36392 280.306525 
L 155.207178 280.394347 
L 155.628808 278.023156 
L 156.472066 277.865076 
L 156.893695 278.801843 
L 157.315325 278.544232 
L 158.158583 280.669522 
L 158.580213 282.941181 
L 159.001842 281.471628 
L 159.423471 281.196453 
L 159.8451 282.215187 
L 160.688359 282.191768 
L 161.109988 278.526668 
L 161.531617 277.098099 
L 162.374876 272.174219 
L 162.796505 270.786633 
L 163.218135 266.840503 
L 163.639764 265.523175 
L 164.061393 265.019663 
L 164.483022 264.961115 
L 164.904652 263.655497 
L 165.326281 264.498587 
L 165.74791 263.239806 
L 166.16954 262.900228 
L 166.591169 261.342854 
L 167.012798 259.024356 
L 167.434427 258.90726 
L 167.856057 253.98338 
L 168.277686 256.196492 
L 168.699315 250.780809 
L 169.120945 249.252709 
L 169.542574 241.758575 
L 169.964203 239.50448 
L 170.385832 233.368658 
L 172.493979 212.051361 
L 172.915608 206.389777 
L 173.337237 194.791435 
L 173.758867 192.045537 
L 174.602125 188.620484 
L 175.023754 178.392163 
L 175.445384 175.072496 
L 175.867013 168.725901 
L 176.288642 165.868763 
L 176.710272 160.997576 
L 177.131901 150.675578 
L 177.55353 143.216573 
L 177.975159 139.475361 
L 178.396789 136.928527 
L 178.818418 131.20254 
L 179.240047 127.437909 
L 179.661677 120.330192 
L 180.083306 117.654552 
L 180.504935 117.467198 
L 180.926564 114.645189 
L 181.769823 112.449642 
L 182.191452 114.814978 
L 182.613081 115.827857 
L 183.034711 118.169773 
L 183.45634 115.049169 
L 183.877969 114.217789 
L 184.299599 114.791559 
L 184.721228 117.186168 
L 185.142857 115.447295 
L 185.564486 115.728325 
L 185.986116 119.563214 
L 186.407745 121.507005 
L 186.829374 114.211934 
L 187.251004 115.757599 
L 187.672633 125.119411 
L 188.094262 121.202556 
L 188.515891 129.738842 
L 188.937521 129.902776 
L 189.35915 127.81847 
L 189.780779 134.223613 
L 190.202409 137.648666 
L 190.624038 133.843051 
L 191.045667 137.203702 
L 191.467296 142.496434 
L 191.888926 141.190815 
L 192.732184 134.504643 
L 193.153813 136.588949 
L 193.575443 135.69902 
L 193.997072 139.129928 
L 194.418701 140.002292 
L 194.840331 137.836019 
L 195.26196 133.819632 
L 195.683589 131.34891 
L 196.526848 132.894575 
L 196.948477 131.998792 
L 197.370106 132.566707 
L 197.791736 137.291524 
L 198.213365 133.872325 
L 198.634994 136.653351 
L 199.056623 131.992937 
L 199.478253 134.206048 
L 199.899882 130.868817 
L 200.321511 130.119404 
L 200.74314 134.651013 
L 201.16477 132.250548 
L 201.586399 130.804414 
L 202.008028 134.124081 
L 202.429658 130.499965 
L 202.851287 129.176782 
L 203.272916 132.935559 
L 203.694545 128.971864 
L 204.116175 128.930881 
L 204.537804 128.193177 
L 204.959433 134.434385 
L 205.381063 135.511667 
L 205.802692 135.29504 
L 206.224321 132.566707 
L 206.64595 133.796213 
L 207.06758 131.249379 
L 207.489209 132.063195 
L 207.910838 131.114718 
L 208.332468 129.615892 
L 208.754097 125.189669 
L 209.175726 125.002316 
L 209.597355 124.504658 
L 210.018985 119.451973 
L 210.440614 117.572585 
L 210.862243 123.562037 
L 211.283872 126.501142 
L 212.127131 137.847729 
L 212.97039 146.050292 
L 213.392019 148.94256 
L 213.813648 150.423822 
L 214.656907 155.347702 
L 215.500165 165.347686 
L 215.921795 166.899206 
L 216.343424 171.015125 
L 216.765053 164.416774 
L 217.186682 170.523322 
L 218.029941 173.766877 
L 218.45157 174.615822 
L 218.8732 176.401533 
L 219.294829 173.573669 
L 219.716458 175.482331 
L 220.138087 178.345324 
L 220.559717 182.40855 
L 220.981346 188.848821 
L 221.402975 198.801967 
L 221.824604 201.647396 
L 223.089492 218.520906 
L 224.776009 229.557189 
L 225.197639 231.120418 
L 225.619268 231.35461 
L 226.040897 232.701212 
L 226.884156 238.632116 
L 227.305785 240.084105 
L 227.727414 243.848736 
L 228.149044 245.529061 
L 228.570673 248.111024 
L 228.992302 249.685963 
L 229.413932 258.280798 
L 229.835561 260.698827 
L 230.678819 270.353379 
L 231.100449 272.747988 
L 231.943707 282.244461 
L 232.365336 284.779586 
L 232.786966 288.643748 
L 233.208595 291.044213 
L 234.473483 295.025471 
L 234.895112 295.183551 
L 249.652137 295.488 
L 398.487273 295.488 
L 398.487273 295.488 
" clip-path="url(#p3e79117659)" style="fill: none; stroke-dasharray: 1.85,0.8; stroke-dashoffset: 0; stroke: #ff0000; stroke-width: 0.5"/>
   </g>
   <g id="patch_3">
    <path d="M 57.6 307.584 
L 57.6 41.472 
" style="fill: none; stroke: #000000; stroke-width: 0.8; stroke-linejoin: miter; stroke-linecap: square"/>
   </g>
   <g id="patch_4">
    <path d="M 414.72 307.584 
L 414.72 41.472 
" style="fill: none; stroke: #000000; stroke-width: 0.8; stroke-linejoin: miter; stroke-linecap: square"/>
   </g>
   <g id="patch_5">
    <path d="M 57.6 307.584 
L 414.72 307.584 
" style="fill: none; stroke: #000000; stroke-width: 0.8; stroke-linejoin: miter; stroke-linecap: square"/>
   </g>
   <g id="patch_6">
    <path d="M 57.6 41.472 
L 414.72 41.472 
" style="fill: none; stroke: #000000; stroke-width: 0.8; stroke-linejoin: miter; stroke-linecap: square"/>
   </g>
   <g id="text_20">
    <!-- Heating Rate ($^{\circ}C.s^{-1}$) -->
    <g transform="translate(271.872 68.0832) scale(0.12 -0.12)">
     <defs>
      <path id="DejaVuSans-48" d="M 628 4666 
L 1259 4666 
L 1259 2753 
L 3553 2753 
L 3553 4666 
L 4184 4666 
L 4184 0 
L 3553 0 
L 3553 2222 
L 1259 2222 
L 1259 0 
L 628 0 
L 628 4666 
z
" transform="scale(0.015625)"/>
      <path id="DejaVuSans-67" d="M 2906 1791 
Q 2906 2416 2648 2759 
Q 2391 3103 1925 3103 
Q 1463 3103 1205 2759 
Q 947 2416 947 1791 
Q 947 1169 1205 825 
Q 1463 481 1925 481 
Q 2391 481 2648 825 
Q 2906 1169 2906 1791 
z
M 3481 434 
Q 3481 -459 3084 -895 
Q 2688 -1331 1869 -1331 
Q 1566 -1331 1297 -1286 
Q 1028 -1241 775 -1147 
L 775 -588 
Q 1028 -725 1275 -790 
Q 1522 -856 1778 -856 
Q 2344 -856 2625 -561 
Q 2906 -266 2906 331 
L 2906 616 
Q 2728 306 2450 153 
Q 2172 0 1784 0 
Q 1141 0 747 490 
Q 353 981 353 1791 
Q 353 2603 747 3093 
Q 1141 3584 1784 3584 
Q 2172 3584 2450 3431 
Q 2728 3278 2906 2969 
L 2906 3500 
L 3481 3500 
L 3481 434 
z
" transform="scale(0.015625)"/>
      <path id="DejaVuSans-52" d="M 2841 2188 
Q 3044 2119 3236 1894 
Q 3428 1669 3622 1275 
L 4263 0 
L 3584 0 
L 2988 1197 
Q 2756 1666 2539 1819 
Q 2322 1972 1947 1972 
L 1259 1972 
L 1259 0 
L 628 0 
L 628 4666 
L 2053 4666 
Q 2853 4666 3247 4331 
Q 3641 3997 3641 3322 
Q 3641 2881 3436 2590 
Q 3231 2300 2841 2188 
z
M 1259 4147 
L 1259 2491 
L 2053 2491 
Q 2509 2491 2742 2702 
Q 2975 2913 2975 3322 
Q 2975 3731 2742 3939 
Q 2509 4147 2053 4147 
L 1259 4147 
z
" transform="scale(0.015625)"/>
      <path id="DejaVuSans-2e" d="M 684 794 
L 1344 794 
L 1344 0 
L 684 0 
L 684 794 
z
" transform="scale(0.015625)"/>
      <path id="DejaVuSans-Oblique-73" d="M 3200 3397 
L 3091 2853 
Q 2863 2978 2609 3040 
Q 2356 3103 2088 3103 
Q 1634 3103 1373 2948 
Q 1113 2794 1113 2528 
Q 1113 2219 1719 2053 
Q 1766 2041 1788 2034 
L 1972 1978 
Q 2547 1819 2739 1644 
Q 2931 1469 2931 1166 
Q 2931 609 2489 259 
Q 2047 -91 1331 -91 
Q 1053 -91 747 -37 
Q 441 16 72 128 
L 184 722 
Q 500 559 806 475 
Q 1113 391 1394 391 
Q 1816 391 2080 572 
Q 2344 753 2344 1031 
Q 2344 1331 1650 1516 
L 1591 1531 
L 1394 1581 
Q 956 1697 753 1886 
Q 550 2075 550 2369 
Q 550 2928 970 3256 
Q 1391 3584 2113 3584 
Q 2397 3584 2667 3537 
Q 2938 3491 3200 3397 
z
" transform="scale(0.015625)"/>
     </defs>
     <use xlink:href="#DejaVuSans-48" transform="translate(0 0.684375)"/>
     <use xlink:href="#DejaVuSans-65" transform="translate(75.195312 0.684375)"/>
     <use xlink:href="#DejaVuSans-61" transform="translate(136.71875 0.684375)"/>
     <use xlink:href="#DejaVuSans-74" transform="translate(197.998047 0.684375)"/>
     <use xlink:href="#DejaVuSans-69" transform="translate(237.207031 0.684375)"/>
     <use xlink:href="#DejaVuSans-6e" transform="translate(264.990234 0.684375)"/>
     <use xlink:href="#DejaVuSans-67" transform="translate(328.369141 0.684375)"/>
     <use xlink:href="#DejaVuSans-20" transform="translate(391.845703 0.684375)"/>
     <use xlink:href="#DejaVuSans-52" transform="translate(423.632812 0.684375)"/>
     <use xlink:href="#DejaVuSans-61" transform="translate(493.115234 0.684375)"/>
     <use xlink:href="#DejaVuSans-74" transform="translate(554.394531 0.684375)"/>
     <use xlink:href="#DejaVuSans-65" transform="translate(593.603516 0.684375)"/>
     <use xlink:href="#DejaVuSans-20" transform="translate(655.126953 0.684375)"/>
     <use xlink:href="#DejaVuSans-28" transform="translate(686.914062 0.684375)"/>
     <use xlink:href="#DejaVuSans-2218" transform="translate(726.884766 38.965625) scale(0.7)"/>
     <use xlink:href="#DejaVuSans-Oblique-43" transform="translate(773.4375 0.684375)"/>
     <use xlink:href="#DejaVuSans-2e" transform="translate(843.261719 0.684375)"/>
     <use xlink:href="#DejaVuSans-Oblique-73" transform="translate(894.53125 0.684375)"/>
     <use xlink:href="#DejaVuSans-2212" transform="translate(951.280755 38.965625) scale(0.7)"/>
     <use xlink:href="#DejaVuSans-31" transform="translate(1009.933099 38.965625) scale(0.7)"/>
     <use xlink:href="#DejaVuSans-29" transform="translate(1057.203607 0.684375)"/>
    </g>
   </g>
   <g id="legend_1">
    <g id="patch_7">
     <path d="M 314.584 149.473825 
L 362.487125 149.473825 
Q 364.487125 149.473825 364.487125 147.473825 
L 364.487125 75.0832 
Q 364.487125 73.0832 362.487125 73.0832 
L 314.584 73.0832 
Q 312.584 73.0832 312.584 75.0832 
L 312.584 147.473825 
Q 312.584 149.473825 314.584 149.473825 
z
" style="fill: #ffffff; opacity: 0.8; stroke: #cccccc; stroke-linejoin: miter"/>
    </g>
    <g id="line2d_23">
     <path d="M 316.584 81.181637 
L 326.584 81.181637 
L 336.584 81.181637 
" style="fill: none; stroke-dasharray: 1.85,0.8; stroke-dashoffset: 0; stroke: #8000ff; stroke-width: 0.5"/>
    </g>
    <g id="text_21">
     <!-- 0.1 -->
     <g transform="translate(344.584 84.681637) scale(0.1 -0.1)">
      <use xlink:href="#DejaVuSans-30"/>
      <use xlink:href="#DejaVuSans-2e" transform="translate(63.623047 0)"/>
      <use xlink:href="#DejaVuSans-31" transform="translate(95.410156 0)"/>
     </g>
    </g>
    <g id="line2d_24">
     <path d="M 316.584 95.859762 
L 326.584 95.859762 
L 336.584 95.859762 
" style="fill: none; stroke-dasharray: 1.85,0.8; stroke-dashoffset: 0; stroke: #00b5eb; stroke-width: 0.5"/>
    </g>
    <g id="text_22">
     <!-- 1 -->
     <g transform="translate(344.584 99.359762) scale(0.1 -0.1)">
      <use xlink:href="#DejaVuSans-31"/>
     </g>
    </g>
    <g id="line2d_25">
     <path d="M 316.584 110.537887 
L 326.584 110.537887 
L 336.584 110.537887 
" style="fill: none; stroke-dasharray: 1.85,0.8; stroke-dashoffset: 0; stroke: #80ffb4; stroke-width: 0.5"/>
    </g>
    <g id="text_23">
     <!-- 5 -->
     <g transform="translate(344.584 114.037887) scale(0.1 -0.1)">
      <use xlink:href="#DejaVuSans-35"/>
     </g>
    </g>
    <g id="line2d_26">
     <path d="M 316.584 125.216012 
L 326.584 125.216012 
L 336.584 125.216012 
" style="fill: none; stroke-dasharray: 1.85,0.8; stroke-dashoffset: 0; stroke: #ffb360; stroke-width: 0.5"/>
    </g>
    <g id="text_24">
     <!-- 10 -->
     <g transform="translate(344.584 128.716012) scale(0.1 -0.1)">
      <use xlink:href="#DejaVuSans-31"/>
      <use xlink:href="#DejaVuSans-30" transform="translate(63.623047 0)"/>
     </g>
    </g>
    <g id="line2d_27">
     <path d="M 316.584 139.894137 
L 326.584 139.894137 
L 336.584 139.894137 
" style="fill: none; stroke-dasharray: 1.85,0.8; stroke-dashoffset: 0; stroke: #ff0000; stroke-width: 0.5"/>
    </g>
    <g id="text_25">
     <!-- 20 -->
     <g transform="translate(344.584 143.394137) scale(0.1 -0.1)">
      <use xlink:href="#DejaVuSans-32"/>
      <use xlink:href="#DejaVuSans-30" transform="translate(63.623047 0)"/>
     </g>
    </g>
   </g>
  </g>
 </g>
 <defs>
  <clipPath id="p3e79117659">
   <rect x="57.6" y="41.472" width="357.12" height="266.112"/>
  </clipPath>
 </defs>
</svg>
