<?xml version="1.0" encoding="utf-8" standalone="no"?>
<!DOCTYPE svg PUBLIC "-//W3C//DTD SVG 1.1//EN"
  "http://www.w3.org/Graphics/SVG/1.1/DTD/svg11.dtd">
<svg xmlns:xlink="http://www.w3.org/1999/xlink" width="460.8pt" height="345.6pt" viewBox="0 0 460.8 345.6" xmlns="http://www.w3.org/2000/svg" version="1.1">
 <metadata>
  <rdf:RDF xmlns:dc="http://purl.org/dc/elements/1.1/" xmlns:cc="http://creativecommons.org/ns#" xmlns:rdf="http://www.w3.org/1999/02/22-rdf-syntax-ns#">
   <cc:Work>
    <dc:type rdf:resource="http://purl.org/dc/dcmitype/StillImage"/>
    <dc:date>2025-03-25T11:17:07.120572</dc:date>
    <dc:format>image/svg+xml</dc:format>
    <dc:creator>
     <cc:Agent>
      <dc:title>Matplotlib v3.10.0, https://matplotlib.org/</dc:title>
     </cc:Agent>
    </dc:creator>
   </cc:Work>
  </rdf:RDF>
 </metadata>
 <defs>
  <style type="text/css">*{stroke-linejoin: round; stroke-linecap: butt}</style>
 </defs>
 <g id="figure_1">
  <g id="patch_1">
   <path d="M 0 345.6 
L 460.8 345.6 
L 460.8 0 
L 0 0 
z
" style="fill: #ffffff"/>
  </g>
  <g id="axes_1">
   <g id="patch_2">
    <path d="M 57.6 307.584 
L 414.72 307.584 
L 414.72 41.472 
L 57.6 41.472 
z
" style="fill: #ffffff"/>
   </g>
   <g id="matplotlib.axis_1">
    <g id="xtick_1">
     <g id="line2d_1">
      <defs>
       <path id="m6746f14413" d="M 0 0 
L 0 3.5 
" style="stroke: #000000; stroke-width: 0.8"/>
      </defs>
      <g>
       <use xlink:href="#m6746f14413" x="127.231904" y="307.584" style="stroke: #000000; stroke-width: 0.8"/>
      </g>
     </g>
     <g id="text_1">
      <!-- $\mathdefault{10^{12}}$ -->
      <g transform="translate(116.181904 322.182437) scale(0.1 -0.1)">
       <defs>
        <path id="DejaVuSans-31" d="M 794 531 
L 1825 531 
L 1825 4091 
L 703 3866 
L 703 4441 
L 1819 4666 
L 2450 4666 
L 2450 531 
L 3481 531 
L 3481 0 
L 794 0 
L 794 531 
z
" transform="scale(0.015625)"/>
        <path id="DejaVuSans-30" d="M 2034 4250 
Q 1547 4250 1301 3770 
Q 1056 3291 1056 2328 
Q 1056 1369 1301 889 
Q 1547 409 2034 409 
Q 2525 409 2770 889 
Q 3016 1369 3016 2328 
Q 3016 3291 2770 3770 
Q 2525 4250 2034 4250 
z
M 2034 4750 
Q 2819 4750 3233 4129 
Q 3647 3509 3647 2328 
Q 3647 1150 3233 529 
Q 2819 -91 2034 -91 
Q 1250 -91 836 529 
Q 422 1150 422 2328 
Q 422 3509 836 4129 
Q 1250 4750 2034 4750 
z
" transform="scale(0.015625)"/>
        <path id="DejaVuSans-32" d="M 1228 531 
L 3431 531 
L 3431 0 
L 469 0 
L 469 531 
Q 828 903 1448 1529 
Q 2069 2156 2228 2338 
Q 2531 2678 2651 2914 
Q 2772 3150 2772 3378 
Q 2772 3750 2511 3984 
Q 2250 4219 1831 4219 
Q 1534 4219 1204 4116 
Q 875 4013 500 3803 
L 500 4441 
Q 881 4594 1212 4672 
Q 1544 4750 1819 4750 
Q 2544 4750 2975 4387 
Q 3406 4025 3406 3419 
Q 3406 3131 3298 2873 
Q 3191 2616 2906 2266 
Q 2828 2175 2409 1742 
Q 1991 1309 1228 531 
z
" transform="scale(0.015625)"/>
       </defs>
       <use xlink:href="#DejaVuSans-31" transform="translate(0 0.765625)"/>
       <use xlink:href="#DejaVuSans-30" transform="translate(63.623047 0.765625)"/>
       <use xlink:href="#DejaVuSans-31" transform="translate(128.203125 39.046875) scale(0.7)"/>
       <use xlink:href="#DejaVuSans-32" transform="translate(172.739258 39.046875) scale(0.7)"/>
      </g>
     </g>
    </g>
    <g id="xtick_2">
     <g id="line2d_2">
      <g>
       <use xlink:href="#m6746f14413" x="255.263163" y="307.584" style="stroke: #000000; stroke-width: 0.8"/>
      </g>
     </g>
     <g id="text_2">
      <!-- $\mathdefault{10^{13}}$ -->
      <g transform="translate(244.213163 322.182437) scale(0.1 -0.1)">
       <defs>
        <path id="DejaVuSans-33" d="M 2597 2516 
Q 3050 2419 3304 2112 
Q 3559 1806 3559 1356 
Q 3559 666 3084 287 
Q 2609 -91 1734 -91 
Q 1441 -91 1130 -33 
Q 819 25 488 141 
L 488 750 
Q 750 597 1062 519 
Q 1375 441 1716 441 
Q 2309 441 2620 675 
Q 2931 909 2931 1356 
Q 2931 1769 2642 2001 
Q 2353 2234 1838 2234 
L 1294 2234 
L 1294 2753 
L 1863 2753 
Q 2328 2753 2575 2939 
Q 2822 3125 2822 3475 
Q 2822 3834 2567 4026 
Q 2313 4219 1838 4219 
Q 1578 4219 1281 4162 
Q 984 4106 628 3988 
L 628 4550 
Q 988 4650 1302 4700 
Q 1616 4750 1894 4750 
Q 2613 4750 3031 4423 
Q 3450 4097 3450 3541 
Q 3450 3153 3228 2886 
Q 3006 2619 2597 2516 
z
" transform="scale(0.015625)"/>
       </defs>
       <use xlink:href="#DejaVuSans-31" transform="translate(0 0.765625)"/>
       <use xlink:href="#DejaVuSans-30" transform="translate(63.623047 0.765625)"/>
       <use xlink:href="#DejaVuSans-31" transform="translate(128.203125 39.046875) scale(0.7)"/>
       <use xlink:href="#DejaVuSans-33" transform="translate(172.739258 39.046875) scale(0.7)"/>
      </g>
     </g>
    </g>
    <g id="xtick_3">
     <g id="line2d_3">
      <g>
       <use xlink:href="#m6746f14413" x="383.294422" y="307.584" style="stroke: #000000; stroke-width: 0.8"/>
      </g>
     </g>
     <g id="text_3">
      <!-- $\mathdefault{10^{14}}$ -->
      <g transform="translate(372.244422 322.182437) scale(0.1 -0.1)">
       <defs>
        <path id="DejaVuSans-34" d="M 2419 4116 
L 825 1625 
L 2419 1625 
L 2419 4116 
z
M 2253 4666 
L 3047 4666 
L 3047 1625 
L 3713 1625 
L 3713 1100 
L 3047 1100 
L 3047 0 
L 2419 0 
L 2419 1100 
L 313 1100 
L 313 1709 
L 2253 4666 
z
" transform="scale(0.015625)"/>
       </defs>
       <use xlink:href="#DejaVuSans-31" transform="translate(0 0.684375)"/>
       <use xlink:href="#DejaVuSans-30" transform="translate(63.623047 0.684375)"/>
       <use xlink:href="#DejaVuSans-31" transform="translate(128.203125 38.965625) scale(0.7)"/>
       <use xlink:href="#DejaVuSans-34" transform="translate(172.739258 38.965625) scale(0.7)"/>
      </g>
     </g>
    </g>
    <g id="xtick_4">
     <g id="line2d_4">
      <defs>
       <path id="m5e44fec626" d="M 0 0 
L 0 2 
" style="stroke: #000000; stroke-width: 0.6"/>
      </defs>
      <g>
       <use xlink:href="#m5e44fec626" x="60.287079" y="307.584" style="stroke: #000000; stroke-width: 0.6"/>
      </g>
     </g>
    </g>
    <g id="xtick_5">
     <g id="line2d_5">
      <g>
       <use xlink:href="#m5e44fec626" x="76.283143" y="307.584" style="stroke: #000000; stroke-width: 0.6"/>
      </g>
     </g>
    </g>
    <g id="xtick_6">
     <g id="line2d_6">
      <g>
       <use xlink:href="#m5e44fec626" x="88.690654" y="307.584" style="stroke: #000000; stroke-width: 0.6"/>
      </g>
     </g>
    </g>
    <g id="xtick_7">
     <g id="line2d_7">
      <g>
       <use xlink:href="#m5e44fec626" x="98.828329" y="307.584" style="stroke: #000000; stroke-width: 0.6"/>
      </g>
     </g>
    </g>
    <g id="xtick_8">
     <g id="line2d_8">
      <g>
       <use xlink:href="#m5e44fec626" x="107.399611" y="307.584" style="stroke: #000000; stroke-width: 0.6"/>
      </g>
     </g>
    </g>
    <g id="xtick_9">
     <g id="line2d_9">
      <g>
       <use xlink:href="#m5e44fec626" x="114.824393" y="307.584" style="stroke: #000000; stroke-width: 0.6"/>
      </g>
     </g>
    </g>
    <g id="xtick_10">
     <g id="line2d_10">
      <g>
       <use xlink:href="#m5e44fec626" x="121.373514" y="307.584" style="stroke: #000000; stroke-width: 0.6"/>
      </g>
     </g>
    </g>
    <g id="xtick_11">
     <g id="line2d_11">
      <g>
       <use xlink:href="#m5e44fec626" x="165.773153" y="307.584" style="stroke: #000000; stroke-width: 0.6"/>
      </g>
     </g>
    </g>
    <g id="xtick_12">
     <g id="line2d_12">
      <g>
       <use xlink:href="#m5e44fec626" x="188.318338" y="307.584" style="stroke: #000000; stroke-width: 0.6"/>
      </g>
     </g>
    </g>
    <g id="xtick_13">
     <g id="line2d_13">
      <g>
       <use xlink:href="#m5e44fec626" x="204.314402" y="307.584" style="stroke: #000000; stroke-width: 0.6"/>
      </g>
     </g>
    </g>
    <g id="xtick_14">
     <g id="line2d_14">
      <g>
       <use xlink:href="#m5e44fec626" x="216.721913" y="307.584" style="stroke: #000000; stroke-width: 0.6"/>
      </g>
     </g>
    </g>
    <g id="xtick_15">
     <g id="line2d_15">
      <g>
       <use xlink:href="#m5e44fec626" x="226.859588" y="307.584" style="stroke: #000000; stroke-width: 0.6"/>
      </g>
     </g>
    </g>
    <g id="xtick_16">
     <g id="line2d_16">
      <g>
       <use xlink:href="#m5e44fec626" x="235.43087" y="307.584" style="stroke: #000000; stroke-width: 0.6"/>
      </g>
     </g>
    </g>
    <g id="xtick_17">
     <g id="line2d_17">
      <g>
       <use xlink:href="#m5e44fec626" x="242.855652" y="307.584" style="stroke: #000000; stroke-width: 0.6"/>
      </g>
     </g>
    </g>
    <g id="xtick_18">
     <g id="line2d_18">
      <g>
       <use xlink:href="#m5e44fec626" x="249.404773" y="307.584" style="stroke: #000000; stroke-width: 0.6"/>
      </g>
     </g>
    </g>
    <g id="xtick_19">
     <g id="line2d_19">
      <g>
       <use xlink:href="#m5e44fec626" x="293.804412" y="307.584" style="stroke: #000000; stroke-width: 0.6"/>
      </g>
     </g>
    </g>
    <g id="xtick_20">
     <g id="line2d_20">
      <g>
       <use xlink:href="#m5e44fec626" x="316.349597" y="307.584" style="stroke: #000000; stroke-width: 0.6"/>
      </g>
     </g>
    </g>
    <g id="xtick_21">
     <g id="line2d_21">
      <g>
       <use xlink:href="#m5e44fec626" x="332.345661" y="307.584" style="stroke: #000000; stroke-width: 0.6"/>
      </g>
     </g>
    </g>
    <g id="xtick_22">
     <g id="line2d_22">
      <g>
       <use xlink:href="#m5e44fec626" x="344.753172" y="307.584" style="stroke: #000000; stroke-width: 0.6"/>
      </g>
     </g>
    </g>
    <g id="xtick_23">
     <g id="line2d_23">
      <g>
       <use xlink:href="#m5e44fec626" x="354.890847" y="307.584" style="stroke: #000000; stroke-width: 0.6"/>
      </g>
     </g>
    </g>
    <g id="xtick_24">
     <g id="line2d_24">
      <g>
       <use xlink:href="#m5e44fec626" x="363.462129" y="307.584" style="stroke: #000000; stroke-width: 0.6"/>
      </g>
     </g>
    </g>
    <g id="xtick_25">
     <g id="line2d_25">
      <g>
       <use xlink:href="#m5e44fec626" x="370.886911" y="307.584" style="stroke: #000000; stroke-width: 0.6"/>
      </g>
     </g>
    </g>
    <g id="xtick_26">
     <g id="line2d_26">
      <g>
       <use xlink:href="#m5e44fec626" x="377.436032" y="307.584" style="stroke: #000000; stroke-width: 0.6"/>
      </g>
     </g>
    </g>
    <g id="text_4">
     <!-- Log time  -->
     <g transform="translate(212.75375 335.860562) scale(0.1 -0.1)">
      <defs>
       <path id="DejaVuSans-4c" d="M 628 4666 
L 1259 4666 
L 1259 531 
L 3531 531 
L 3531 0 
L 628 0 
L 628 4666 
z
" transform="scale(0.015625)"/>
       <path id="DejaVuSans-6f" d="M 1959 3097 
Q 1497 3097 1228 2736 
Q 959 2375 959 1747 
Q 959 1119 1226 758 
Q 1494 397 1959 397 
Q 2419 397 2687 759 
Q 2956 1122 2956 1747 
Q 2956 2369 2687 2733 
Q 2419 3097 1959 3097 
z
M 1959 3584 
Q 2709 3584 3137 3096 
Q 3566 2609 3566 1747 
Q 3566 888 3137 398 
Q 2709 -91 1959 -91 
Q 1206 -91 779 398 
Q 353 888 353 1747 
Q 353 2609 779 3096 
Q 1206 3584 1959 3584 
z
" transform="scale(0.015625)"/>
       <path id="DejaVuSans-67" d="M 2906 1791 
Q 2906 2416 2648 2759 
Q 2391 3103 1925 3103 
Q 1463 3103 1205 2759 
Q 947 2416 947 1791 
Q 947 1169 1205 825 
Q 1463 481 1925 481 
Q 2391 481 2648 825 
Q 2906 1169 2906 1791 
z
M 3481 434 
Q 3481 -459 3084 -895 
Q 2688 -1331 1869 -1331 
Q 1566 -1331 1297 -1286 
Q 1028 -1241 775 -1147 
L 775 -588 
Q 1028 -725 1275 -790 
Q 1522 -856 1778 -856 
Q 2344 -856 2625 -561 
Q 2906 -266 2906 331 
L 2906 616 
Q 2728 306 2450 153 
Q 2172 0 1784 0 
Q 1141 0 747 490 
Q 353 981 353 1791 
Q 353 2603 747 3093 
Q 1141 3584 1784 3584 
Q 2172 3584 2450 3431 
Q 2728 3278 2906 2969 
L 2906 3500 
L 3481 3500 
L 3481 434 
z
" transform="scale(0.015625)"/>
       <path id="DejaVuSans-20" transform="scale(0.015625)"/>
       <path id="DejaVuSans-74" d="M 1172 4494 
L 1172 3500 
L 2356 3500 
L 2356 3053 
L 1172 3053 
L 1172 1153 
Q 1172 725 1289 603 
Q 1406 481 1766 481 
L 2356 481 
L 2356 0 
L 1766 0 
Q 1100 0 847 248 
Q 594 497 594 1153 
L 594 3053 
L 172 3053 
L 172 3500 
L 594 3500 
L 594 4494 
L 1172 4494 
z
" transform="scale(0.015625)"/>
       <path id="DejaVuSans-69" d="M 603 3500 
L 1178 3500 
L 1178 0 
L 603 0 
L 603 3500 
z
M 603 4863 
L 1178 4863 
L 1178 4134 
L 603 4134 
L 603 4863 
z
" transform="scale(0.015625)"/>
       <path id="DejaVuSans-6d" d="M 3328 2828 
Q 3544 3216 3844 3400 
Q 4144 3584 4550 3584 
Q 5097 3584 5394 3201 
Q 5691 2819 5691 2113 
L 5691 0 
L 5113 0 
L 5113 2094 
Q 5113 2597 4934 2840 
Q 4756 3084 4391 3084 
Q 3944 3084 3684 2787 
Q 3425 2491 3425 1978 
L 3425 0 
L 2847 0 
L 2847 2094 
Q 2847 2600 2669 2842 
Q 2491 3084 2119 3084 
Q 1678 3084 1418 2786 
Q 1159 2488 1159 1978 
L 1159 0 
L 581 0 
L 581 3500 
L 1159 3500 
L 1159 2956 
Q 1356 3278 1631 3431 
Q 1906 3584 2284 3584 
Q 2666 3584 2933 3390 
Q 3200 3197 3328 2828 
z
" transform="scale(0.015625)"/>
       <path id="DejaVuSans-65" d="M 3597 1894 
L 3597 1613 
L 953 1613 
Q 991 1019 1311 708 
Q 1631 397 2203 397 
Q 2534 397 2845 478 
Q 3156 559 3463 722 
L 3463 178 
Q 3153 47 2828 -22 
Q 2503 -91 2169 -91 
Q 1331 -91 842 396 
Q 353 884 353 1716 
Q 353 2575 817 3079 
Q 1281 3584 2069 3584 
Q 2775 3584 3186 3129 
Q 3597 2675 3597 1894 
z
M 3022 2063 
Q 3016 2534 2758 2815 
Q 2500 3097 2075 3097 
Q 1594 3097 1305 2825 
Q 1016 2553 972 2059 
L 3022 2063 
z
" transform="scale(0.015625)"/>
      </defs>
      <use xlink:href="#DejaVuSans-4c"/>
      <use xlink:href="#DejaVuSans-6f" transform="translate(53.962891 0)"/>
      <use xlink:href="#DejaVuSans-67" transform="translate(115.144531 0)"/>
      <use xlink:href="#DejaVuSans-20" transform="translate(178.621094 0)"/>
      <use xlink:href="#DejaVuSans-74" transform="translate(210.408203 0)"/>
      <use xlink:href="#DejaVuSans-69" transform="translate(249.617188 0)"/>
      <use xlink:href="#DejaVuSans-6d" transform="translate(277.400391 0)"/>
      <use xlink:href="#DejaVuSans-65" transform="translate(374.8125 0)"/>
      <use xlink:href="#DejaVuSans-20" transform="translate(436.335938 0)"/>
     </g>
    </g>
   </g>
   <g id="matplotlib.axis_2">
    <g id="ytick_1">
     <g id="line2d_27">
      <defs>
       <path id="me07c2f8d88" d="M 0 0 
L -3.5 0 
" style="stroke: #000000; stroke-width: 0.8"/>
      </defs>
      <g>
       <use xlink:href="#me07c2f8d88" x="57.6" y="307.584" style="stroke: #000000; stroke-width: 0.8"/>
      </g>
     </g>
     <g id="text_5">
      <!-- 0.0 -->
      <g transform="translate(34.696875 311.383219) scale(0.1 -0.1)">
       <defs>
        <path id="DejaVuSans-2e" d="M 684 794 
L 1344 794 
L 1344 0 
L 684 0 
L 684 794 
z
" transform="scale(0.015625)"/>
       </defs>
       <use xlink:href="#DejaVuSans-30"/>
       <use xlink:href="#DejaVuSans-2e" transform="translate(63.623047 0)"/>
       <use xlink:href="#DejaVuSans-30" transform="translate(95.410156 0)"/>
      </g>
     </g>
    </g>
    <g id="ytick_2">
     <g id="line2d_28">
      <g>
       <use xlink:href="#me07c2f8d88" x="57.6" y="254.3616" style="stroke: #000000; stroke-width: 0.8"/>
      </g>
     </g>
     <g id="text_6">
      <!-- 0.2 -->
      <g transform="translate(34.696875 258.160819) scale(0.1 -0.1)">
       <use xlink:href="#DejaVuSans-30"/>
       <use xlink:href="#DejaVuSans-2e" transform="translate(63.623047 0)"/>
       <use xlink:href="#DejaVuSans-32" transform="translate(95.410156 0)"/>
      </g>
     </g>
    </g>
    <g id="ytick_3">
     <g id="line2d_29">
      <g>
       <use xlink:href="#me07c2f8d88" x="57.6" y="201.1392" style="stroke: #000000; stroke-width: 0.8"/>
      </g>
     </g>
     <g id="text_7">
      <!-- 0.4 -->
      <g transform="translate(34.696875 204.938419) scale(0.1 -0.1)">
       <use xlink:href="#DejaVuSans-30"/>
       <use xlink:href="#DejaVuSans-2e" transform="translate(63.623047 0)"/>
       <use xlink:href="#DejaVuSans-34" transform="translate(95.410156 0)"/>
      </g>
     </g>
    </g>
    <g id="ytick_4">
     <g id="line2d_30">
      <g>
       <use xlink:href="#me07c2f8d88" x="57.6" y="147.9168" style="stroke: #000000; stroke-width: 0.8"/>
      </g>
     </g>
     <g id="text_8">
      <!-- 0.6 -->
      <g transform="translate(34.696875 151.716019) scale(0.1 -0.1)">
       <defs>
        <path id="DejaVuSans-36" d="M 2113 2584 
Q 1688 2584 1439 2293 
Q 1191 2003 1191 1497 
Q 1191 994 1439 701 
Q 1688 409 2113 409 
Q 2538 409 2786 701 
Q 3034 994 3034 1497 
Q 3034 2003 2786 2293 
Q 2538 2584 2113 2584 
z
M 3366 4563 
L 3366 3988 
Q 3128 4100 2886 4159 
Q 2644 4219 2406 4219 
Q 1781 4219 1451 3797 
Q 1122 3375 1075 2522 
Q 1259 2794 1537 2939 
Q 1816 3084 2150 3084 
Q 2853 3084 3261 2657 
Q 3669 2231 3669 1497 
Q 3669 778 3244 343 
Q 2819 -91 2113 -91 
Q 1303 -91 875 529 
Q 447 1150 447 2328 
Q 447 3434 972 4092 
Q 1497 4750 2381 4750 
Q 2619 4750 2861 4703 
Q 3103 4656 3366 4563 
z
" transform="scale(0.015625)"/>
       </defs>
       <use xlink:href="#DejaVuSans-30"/>
       <use xlink:href="#DejaVuSans-2e" transform="translate(63.623047 0)"/>
       <use xlink:href="#DejaVuSans-36" transform="translate(95.410156 0)"/>
      </g>
     </g>
    </g>
    <g id="ytick_5">
     <g id="line2d_31">
      <g>
       <use xlink:href="#me07c2f8d88" x="57.6" y="94.6944" style="stroke: #000000; stroke-width: 0.8"/>
      </g>
     </g>
     <g id="text_9">
      <!-- 0.8 -->
      <g transform="translate(34.696875 98.493619) scale(0.1 -0.1)">
       <defs>
        <path id="DejaVuSans-38" d="M 2034 2216 
Q 1584 2216 1326 1975 
Q 1069 1734 1069 1313 
Q 1069 891 1326 650 
Q 1584 409 2034 409 
Q 2484 409 2743 651 
Q 3003 894 3003 1313 
Q 3003 1734 2745 1975 
Q 2488 2216 2034 2216 
z
M 1403 2484 
Q 997 2584 770 2862 
Q 544 3141 544 3541 
Q 544 4100 942 4425 
Q 1341 4750 2034 4750 
Q 2731 4750 3128 4425 
Q 3525 4100 3525 3541 
Q 3525 3141 3298 2862 
Q 3072 2584 2669 2484 
Q 3125 2378 3379 2068 
Q 3634 1759 3634 1313 
Q 3634 634 3220 271 
Q 2806 -91 2034 -91 
Q 1263 -91 848 271 
Q 434 634 434 1313 
Q 434 1759 690 2068 
Q 947 2378 1403 2484 
z
M 1172 3481 
Q 1172 3119 1398 2916 
Q 1625 2713 2034 2713 
Q 2441 2713 2670 2916 
Q 2900 3119 2900 3481 
Q 2900 3844 2670 4047 
Q 2441 4250 2034 4250 
Q 1625 4250 1398 4047 
Q 1172 3844 1172 3481 
z
" transform="scale(0.015625)"/>
       </defs>
       <use xlink:href="#DejaVuSans-30"/>
       <use xlink:href="#DejaVuSans-2e" transform="translate(63.623047 0)"/>
       <use xlink:href="#DejaVuSans-38" transform="translate(95.410156 0)"/>
      </g>
     </g>
    </g>
    <g id="ytick_6">
     <g id="line2d_32">
      <g>
       <use xlink:href="#me07c2f8d88" x="57.6" y="41.472" style="stroke: #000000; stroke-width: 0.8"/>
      </g>
     </g>
     <g id="text_10">
      <!-- 1.0 -->
      <g transform="translate(34.696875 45.271219) scale(0.1 -0.1)">
       <use xlink:href="#DejaVuSans-31"/>
       <use xlink:href="#DejaVuSans-2e" transform="translate(63.623047 0)"/>
       <use xlink:href="#DejaVuSans-30" transform="translate(95.410156 0)"/>
      </g>
     </g>
    </g>
    <g id="text_11">
     <!-- Percent of filled traps -->
     <g transform="translate(28.617187 227.95925) rotate(-90) scale(0.1 -0.1)">
      <defs>
       <path id="DejaVuSans-50" d="M 1259 4147 
L 1259 2394 
L 2053 2394 
Q 2494 2394 2734 2622 
Q 2975 2850 2975 3272 
Q 2975 3691 2734 3919 
Q 2494 4147 2053 4147 
L 1259 4147 
z
M 628 4666 
L 2053 4666 
Q 2838 4666 3239 4311 
Q 3641 3956 3641 3272 
Q 3641 2581 3239 2228 
Q 2838 1875 2053 1875 
L 1259 1875 
L 1259 0 
L 628 0 
L 628 4666 
z
" transform="scale(0.015625)"/>
       <path id="DejaVuSans-72" d="M 2631 2963 
Q 2534 3019 2420 3045 
Q 2306 3072 2169 3072 
Q 1681 3072 1420 2755 
Q 1159 2438 1159 1844 
L 1159 0 
L 581 0 
L 581 3500 
L 1159 3500 
L 1159 2956 
Q 1341 3275 1631 3429 
Q 1922 3584 2338 3584 
Q 2397 3584 2469 3576 
Q 2541 3569 2628 3553 
L 2631 2963 
z
" transform="scale(0.015625)"/>
       <path id="DejaVuSans-63" d="M 3122 3366 
L 3122 2828 
Q 2878 2963 2633 3030 
Q 2388 3097 2138 3097 
Q 1578 3097 1268 2742 
Q 959 2388 959 1747 
Q 959 1106 1268 751 
Q 1578 397 2138 397 
Q 2388 397 2633 464 
Q 2878 531 3122 666 
L 3122 134 
Q 2881 22 2623 -34 
Q 2366 -91 2075 -91 
Q 1284 -91 818 406 
Q 353 903 353 1747 
Q 353 2603 823 3093 
Q 1294 3584 2113 3584 
Q 2378 3584 2631 3529 
Q 2884 3475 3122 3366 
z
" transform="scale(0.015625)"/>
       <path id="DejaVuSans-6e" d="M 3513 2113 
L 3513 0 
L 2938 0 
L 2938 2094 
Q 2938 2591 2744 2837 
Q 2550 3084 2163 3084 
Q 1697 3084 1428 2787 
Q 1159 2491 1159 1978 
L 1159 0 
L 581 0 
L 581 3500 
L 1159 3500 
L 1159 2956 
Q 1366 3272 1645 3428 
Q 1925 3584 2291 3584 
Q 2894 3584 3203 3211 
Q 3513 2838 3513 2113 
z
" transform="scale(0.015625)"/>
       <path id="DejaVuSans-66" d="M 2375 4863 
L 2375 4384 
L 1825 4384 
Q 1516 4384 1395 4259 
Q 1275 4134 1275 3809 
L 1275 3500 
L 2222 3500 
L 2222 3053 
L 1275 3053 
L 1275 0 
L 697 0 
L 697 3053 
L 147 3053 
L 147 3500 
L 697 3500 
L 697 3744 
Q 697 4328 969 4595 
Q 1241 4863 1831 4863 
L 2375 4863 
z
" transform="scale(0.015625)"/>
       <path id="DejaVuSans-6c" d="M 603 4863 
L 1178 4863 
L 1178 0 
L 603 0 
L 603 4863 
z
" transform="scale(0.015625)"/>
       <path id="DejaVuSans-64" d="M 2906 2969 
L 2906 4863 
L 3481 4863 
L 3481 0 
L 2906 0 
L 2906 525 
Q 2725 213 2448 61 
Q 2172 -91 1784 -91 
Q 1150 -91 751 415 
Q 353 922 353 1747 
Q 353 2572 751 3078 
Q 1150 3584 1784 3584 
Q 2172 3584 2448 3432 
Q 2725 3281 2906 2969 
z
M 947 1747 
Q 947 1113 1208 752 
Q 1469 391 1925 391 
Q 2381 391 2643 752 
Q 2906 1113 2906 1747 
Q 2906 2381 2643 2742 
Q 2381 3103 1925 3103 
Q 1469 3103 1208 2742 
Q 947 2381 947 1747 
z
" transform="scale(0.015625)"/>
       <path id="DejaVuSans-61" d="M 2194 1759 
Q 1497 1759 1228 1600 
Q 959 1441 959 1056 
Q 959 750 1161 570 
Q 1363 391 1709 391 
Q 2188 391 2477 730 
Q 2766 1069 2766 1631 
L 2766 1759 
L 2194 1759 
z
M 3341 1997 
L 3341 0 
L 2766 0 
L 2766 531 
Q 2569 213 2275 61 
Q 1981 -91 1556 -91 
Q 1019 -91 701 211 
Q 384 513 384 1019 
Q 384 1609 779 1909 
Q 1175 2209 1959 2209 
L 2766 2209 
L 2766 2266 
Q 2766 2663 2505 2880 
Q 2244 3097 1772 3097 
Q 1472 3097 1187 3025 
Q 903 2953 641 2809 
L 641 3341 
Q 956 3463 1253 3523 
Q 1550 3584 1831 3584 
Q 2591 3584 2966 3190 
Q 3341 2797 3341 1997 
z
" transform="scale(0.015625)"/>
       <path id="DejaVuSans-70" d="M 1159 525 
L 1159 -1331 
L 581 -1331 
L 581 3500 
L 1159 3500 
L 1159 2969 
Q 1341 3281 1617 3432 
Q 1894 3584 2278 3584 
Q 2916 3584 3314 3078 
Q 3713 2572 3713 1747 
Q 3713 922 3314 415 
Q 2916 -91 2278 -91 
Q 1894 -91 1617 61 
Q 1341 213 1159 525 
z
M 3116 1747 
Q 3116 2381 2855 2742 
Q 2594 3103 2138 3103 
Q 1681 3103 1420 2742 
Q 1159 2381 1159 1747 
Q 1159 1113 1420 752 
Q 1681 391 2138 391 
Q 2594 391 2855 752 
Q 3116 1113 3116 1747 
z
" transform="scale(0.015625)"/>
       <path id="DejaVuSans-73" d="M 2834 3397 
L 2834 2853 
Q 2591 2978 2328 3040 
Q 2066 3103 1784 3103 
Q 1356 3103 1142 2972 
Q 928 2841 928 2578 
Q 928 2378 1081 2264 
Q 1234 2150 1697 2047 
L 1894 2003 
Q 2506 1872 2764 1633 
Q 3022 1394 3022 966 
Q 3022 478 2636 193 
Q 2250 -91 1575 -91 
Q 1294 -91 989 -36 
Q 684 19 347 128 
L 347 722 
Q 666 556 975 473 
Q 1284 391 1588 391 
Q 1994 391 2212 530 
Q 2431 669 2431 922 
Q 2431 1156 2273 1281 
Q 2116 1406 1581 1522 
L 1381 1569 
Q 847 1681 609 1914 
Q 372 2147 372 2553 
Q 372 3047 722 3315 
Q 1072 3584 1716 3584 
Q 2034 3584 2315 3537 
Q 2597 3491 2834 3397 
z
" transform="scale(0.015625)"/>
      </defs>
      <use xlink:href="#DejaVuSans-50"/>
      <use xlink:href="#DejaVuSans-65" transform="translate(56.677734 0)"/>
      <use xlink:href="#DejaVuSans-72" transform="translate(118.201172 0)"/>
      <use xlink:href="#DejaVuSans-63" transform="translate(157.064453 0)"/>
      <use xlink:href="#DejaVuSans-65" transform="translate(212.044922 0)"/>
      <use xlink:href="#DejaVuSans-6e" transform="translate(273.568359 0)"/>
      <use xlink:href="#DejaVuSans-74" transform="translate(336.947266 0)"/>
      <use xlink:href="#DejaVuSans-20" transform="translate(376.15625 0)"/>
      <use xlink:href="#DejaVuSans-6f" transform="translate(407.943359 0)"/>
      <use xlink:href="#DejaVuSans-66" transform="translate(469.125 0)"/>
      <use xlink:href="#DejaVuSans-20" transform="translate(504.330078 0)"/>
      <use xlink:href="#DejaVuSans-66" transform="translate(536.117188 0)"/>
      <use xlink:href="#DejaVuSans-69" transform="translate(571.322266 0)"/>
      <use xlink:href="#DejaVuSans-6c" transform="translate(599.105469 0)"/>
      <use xlink:href="#DejaVuSans-6c" transform="translate(626.888672 0)"/>
      <use xlink:href="#DejaVuSans-65" transform="translate(654.671875 0)"/>
      <use xlink:href="#DejaVuSans-64" transform="translate(716.195312 0)"/>
      <use xlink:href="#DejaVuSans-20" transform="translate(779.671875 0)"/>
      <use xlink:href="#DejaVuSans-74" transform="translate(811.458984 0)"/>
      <use xlink:href="#DejaVuSans-72" transform="translate(850.667969 0)"/>
      <use xlink:href="#DejaVuSans-61" transform="translate(891.78125 0)"/>
      <use xlink:href="#DejaVuSans-70" transform="translate(953.060547 0)"/>
      <use xlink:href="#DejaVuSans-73" transform="translate(1016.537109 0)"/>
     </g>
    </g>
   </g>
   <g id="line2d_33">
    <path d="M 94.733501 300.494776 
L 94.733501 300.21802 
L 99.975666 299.941263 
L 100.429343 299.675151 
L 101.501787 299.38775 
L 101.501787 299.100349 
L 102.213848 298.812948 
L 102.235073 297.993324 
L 103.046808 297.7485 
L 103.058959 297.471744 
L 104.070809 297.194988 
L 104.286864 296.087962 
L 107.806118 295.811205 
L 107.806118 295.502515 
L 109.434196 295.193825 
L 109.444209 294.885135 
L 109.887207 294.214533 
L 111.396648 293.87391 
L 112.018849 293.533286 
L 112.158724 293.213952 
L 112.856507 292.873329 
L 113.859668 292.553994 
L 113.906818 291.936614 
L 114.393523 291.61728 
L 115.918457 290.9999 
L 115.918457 290.680566 
L 118.294358 290.339942 
L 118.395353 289.701274 
L 118.580491 289.381939 
L 120.251053 289.062605 
L 120.986542 288.74327 
L 121.480445 288.402647 
L 126.177136 288.062024 
L 127.120034 287.742689 
L 129.567708 287.402066 
L 129.730099 287.061443 
L 130.425306 286.742108 
L 130.514319 286.412129 
L 133.03751 285.794749 
L 133.351406 285.48606 
L 133.351406 285.17737 
L 134.1665 284.889969 
L 134.1665 284.613212 
L 134.347027 284.325811 
L 134.433652 283.484897 
L 136.125857 283.218785 
L 136.145598 282.931384 
L 141.040633 282.643983 
L 141.040633 282.356582 
L 142.179926 282.069181 
L 142.219632 281.803069 
L 143.821412 281.536957 
L 144.608647 281.270845 
L 144.750344 281.026022 
L 145.336628 280.781199 
L 145.446348 280.312842 
L 145.739997 280.089308 
L 145.739997 279.865774 
L 145.97314 279.663529 
L 145.97314 279.461284 
L 146.605218 279.259039 
L 146.807013 279.067438 
L 147.712827 278.854548 
L 147.810377 278.194591 
L 147.940449 277.949768 
L 148.296606 277.715589 
L 148.296606 277.460122 
L 151.151465 276.970476 
L 151.459008 276.736297 
L 151.459008 276.491474 
L 151.683089 276.246651 
L 151.683089 276.012472 
L 152.280858 275.778294 
L 153.531914 275.544115 
L 153.531914 275.309937 
L 154.632187 274.84158 
L 154.632187 274.607401 
L 154.838441 274.373222 
L 155.459455 274.117755 
L 155.459455 273.883576 
L 156.360077 273.372641 
L 156.674556 272.904284 
L 157.491058 272.18046 
L 158.716521 271.733391 
L 159.217715 271.509857 
L 160.166017 271.286323 
L 160.166017 271.084078 
L 160.665312 270.881833 
L 163.396958 270.211231 
L 165.106207 269.551273 
L 165.451257 269.338383 
L 165.451257 269.125494 
L 165.732116 268.90196 
L 167.045569 268.68907 
L 167.264243 268.486825 
L 167.297636 267.645911 
L 167.389187 267.273354 
L 167.435835 267.081754 
L 167.711966 266.890153 
L 167.711966 266.709197 
L 168.94482 266.517596 
L 168.94482 266.347284 
L 170.496169 266.187617 
L 170.496169 266.006661 
L 172.246045 265.442504 
L 172.246045 265.261548 
L 175.053383 264.899635 
L 175.09275 264.378056 
L 179.890986 263.696809 
L 179.89918 263.36683 
L 180.665797 263.185874 
L 180.665797 263.004918 
L 182.009183 262.174648 
L 182.6339 261.972403 
L 182.6339 261.748869 
L 183.039188 261.035689 
L 184.076129 260.567332 
L 184.076129 260.343798 
L 184.444199 260.109619 
L 185.897743 259.662551 
L 185.984047 259.194194 
L 186.202749 258.949371 
L 186.202749 258.693903 
L 187.029345 258.438436 
L 187.467429 257.938145 
L 187.771834 257.42721 
L 187.783854 257.171743 
L 188.350783 256.905631 
L 188.436036 256.660808 
L 188.89477 256.426629 
L 189.60872 255.223803 
L 189.915507 254.989624 
L 190.027975 254.297733 
L 190.451265 254.074199 
L 190.466904 253.64842 
L 192.174751 253.446175 
L 192.685822 253.24393 
L 192.780482 253.041684 
L 193.133586 252.81815 
L 196.136282 251.977236 
L 196.361161 251.764347 
L 196.361161 251.551457 
L 196.522328 251.338568 
L 196.522328 251.146967 
L 197.934841 250.785055 
L 197.934841 250.604099 
L 198.405675 250.252831 
L 198.405675 250.082519 
L 198.751673 249.75254 
L 199.033164 249.092582 
L 199.033164 248.73067 
L 199.277254 248.390047 
L 200.809773 248.219735 
L 200.809773 248.038779 
L 200.967317 247.847178 
L 202.234536 247.474621 
L 202.258504 247.102065 
L 202.883583 246.910464 
L 202.883583 246.708219 
L 203.840324 246.505974 
L 203.840324 246.303729 
L 204.838608 245.547971 
L 205.296907 244.64319 
L 206.296736 244.451589 
L 206.54636 244.2387 
L 206.54636 244.02581 
L 206.81642 243.81292 
L 207.432512 243.62132 
L 207.438182 243.440364 
L 207.903216 243.046518 
L 210.614853 242.48236 
L 210.732629 242.141737 
L 211.671543 241.609513 
L 211.671543 241.439201 
L 211.801459 241.26889 
L 213.446104 240.811177 
L 213.522577 240.481198 
L 213.598946 240.300242 
L 213.845675 240.119286 
L 215.390933 239.799951 
L 215.390933 239.618995 
L 215.807302 239.076127 
L 216.188601 238.756792 
L 216.275367 238.597125 
L 216.610003 238.426813 
L 216.610003 238.277791 
L 217.026544 237.958456 
L 217.026544 237.798789 
L 217.363554 237.628477 
L 217.364903 237.309143 
L 217.52951 237.138831 
L 217.530925 236.606607 
L 217.973272 236.191473 
L 218.244867 235.999872 
L 218.367068 235.435715 
L 218.773184 235.052513 
L 218.976569 234.860913 
L 219.012848 234.477711 
L 219.479343 234.115799 
L 219.659498 233.934843 
L 219.659498 233.732598 
L 220.082412 233.147151 
L 220.308541 232.944906 
L 220.308541 232.742661 
L 220.553708 232.519127 
L 220.553708 232.295593 
L 221.494713 231.614346 
L 221.720924 230.773432 
L 221.721837 230.560543 
L 222.661276 230.145408 
L 222.661276 229.953807 
L 224.229376 229.410939 
L 224.229376 229.240627 
L 224.393769 229.059671 
L 225.423631 228.900004 
L 225.4383 228.55938 
L 225.786533 228.399713 
L 226.031382 227.888778 
L 226.041866 227.377843 
L 226.576398 226.888197 
L 226.773321 226.72853 
L 226.863798 226.270817 
L 226.992289 225.983416 
L 227.661154 224.727368 
L 227.661154 224.578345 
L 228.100024 224.014188 
L 228.100739 223.75872 
L 228.45837 223.35423 
L 228.492744 223.226496 
L 228.689356 222.981673 
L 228.737649 222.704916 
L 229.164095 222.438804 
L 229.485082 221.959803 
L 229.485082 221.789491 
L 229.813382 221.225334 
L 229.925181 219.703173 
L 230.069518 219.479639 
L 231.159611 218.809037 
L 231.217942 218.404547 
L 231.520499 217.595566 
L 231.750016 217.191076 
L 231.754143 216.999475 
L 232.13936 216.605629 
L 232.298526 215.98825 
L 232.974595 215.136691 
L 233.06723 213.465508 
L 233.385985 212.071081 
L 233.587123 211.858191 
L 233.680925 211.453701 
L 233.829913 211.081144 
L 234.746518 210.538276 
L 235.334276 210.378609 
L 235.334276 210.229586 
L 236.045232 210.080563 
L 236.134988 209.73994 
L 236.428915 209.229005 
L 237.460581 208.888381 
L 237.894218 207.813289 
L 238.563043 207.238487 
L 238.614427 206.695619 
L 239.482822 206.344351 
L 239.828137 205.822771 
L 240.187417 205.43957 
L 240.630817 204.470922 
L 240.784417 203.981276 
L 241.596455 201.650135 
L 242.401701 200.92631 
L 242.639258 200.596332 
L 242.762586 200.362153 
L 243.334821 199.680906 
L 243.364819 199.478661 
L 244.306221 199.244483 
L 244.306221 199.116749 
L 245.132192 198.211968 
L 245.17486 198.126812 
L 245.628543 197.903278 
L 245.761949 197.722322 
L 246.016445 197.424276 
L 246.268876 197.083653 
L 246.427297 196.870764 
L 246.592461 196.466273 
L 246.862999 196.253384 
L 247.007427 196.02985 
L 247.218749 195.423114 
L 247.537536 195.178291 
L 247.553974 194.89089 
L 248.025825 194.603489 
L 248.125558 194.17771 
L 248.125558 194.007398 
L 248.600048 193.656131 
L 249.032753 191.495301 
L 249.650733 189.015137 
L 249.947068 188.75967 
L 250.084899 187.971978 
L 250.501301 187.21622 
L 250.656064 185.651482 
L 250.85113 185.161836 
L 250.953546 184.4593 
L 251.273176 184.214477 
L 252.105781 181.98978 
L 252.2401 181.095644 
L 252.370772 180.733732 
L 252.608212 178.21099 
L 253.27112 178.040678 
L 253.342118 177.689411 
L 253.660224 176.635607 
L 253.759752 176.103383 
L 254.285999 175.54987 
L 254.576762 173.708375 
L 254.917432 173.282596 
L 255.440516 172.218148 
L 257.189132 170.738565 
L 257.42136 169.897651 
L 257.648622 169.269627 
L 258.643965 168.662892 
L 258.643965 168.481935 
L 258.861419 168.311624 
L 258.861419 168.141312 
L 259.131057 167.981645 
L 259.161091 167.321687 
L 259.362503 166.85333 
L 259.452466 166.555284 
L 259.631957 166.257239 
L 260.015315 166.129505 
L 260.144255 165.73566 
L 260.388335 165.320525 
L 260.626681 164.5967 
L 261.007788 163.447096 
L 261.065569 163.298074 
L 261.290048 163.159695 
L 261.346259 162.55296 
L 262.171677 161.43529 
L 262.426749 160.807265 
L 262.60951 160.083441 
L 262.783498 159.253171 
L 262.871116 157.677788 
L 264.49771 154.803779 
L 264.80282 153.569019 
L 265.074263 153.196462 
L 265.679741 152.706816 
L 266.422067 152.419415 
L 266.453367 152.046858 
L 266.791909 151.876547 
L 267.14532 151.216589 
L 267.23153 151.024988 
L 267.320457 150.854676 
L 267.411701 150.450186 
L 267.836617 150.045696 
L 268.418809 148.747069 
L 270.172829 148.140334 
L 270.266395 147.693266 
L 270.813603 147.29942 
L 271.044189 146.958797 
L 271.147893 146.298839 
L 271.279089 146.000794 
L 271.510843 145.575014 
L 271.799234 144.361544 
L 272.870274 142.253937 
L 272.982107 140.582753 
L 273.728554 138.900925 
L 273.892861 138.677391 
L 274.221243 137.559721 
L 274.263929 137.442632 
L 275.09869 137.080719 
L 275.397632 136.356895 
L 276.485797 135.122135 
L 276.500217 134.802801 
L 276.884227 134.462177 
L 276.967818 133.929953 
L 277.295334 133.68513 
L 277.789956 133.227418 
L 279.014701 130.885632 
L 279.132502 130.246963 
L 279.546061 129.374116 
L 279.622379 129.022848 
L 279.73961 128.352246 
L 279.829173 128.011622 
L 279.907671 127.521976 
L 279.924462 127.277153 
L 280.551977 126.744929 
L 281.263792 125.105679 
L 281.750846 124.850212 
L 281.866971 123.647386 
L 282.488838 122.433915 
L 282.576156 122.082647 
L 282.705825 121.848468 
L 283.322318 121.273667 
L 283.74976 121.050132 
L 284.030562 120.262441 
L 284.148836 119.772795 
L 285.686209 118.399657 
L 285.781908 117.846144 
L 286.071826 116.29205 
L 286.195664 116.089805 
L 286.280763 116.036582 
L 286.46845 115.823693 
L 286.46845 115.781115 
L 287.349692 115.483069 
L 288.050615 114.993423 
L 288.183375 114.418621 
L 288.271137 113.84382 
L 289.13639 113.407396 
L 289.206791 113.32224 
L 289.952719 112.758083 
L 290.26166 112.481326 
L 290.855584 111.927813 
L 290.91985 111.704279 
L 291.072695 111.150766 
L 291.895287 110.544031 
L 291.997711 110.373719 
L 292.590123 109.798917 
L 292.688812 109.63925 
L 292.801227 109.213471 
L 292.964123 108.479002 
L 293.66913 108.021289 
L 294.616485 107.28682 
L 294.726735 106.871685 
L 296.397573 106.254305 
L 296.596135 106.062705 
L 296.922524 105.285658 
L 297.199624 105.019546 
L 297.31991 104.742789 
L 297.556745 104.455388 
L 297.85866 104.10412 
L 297.951898 103.146117 
L 298.486515 102.337137 
L 298.898119 101.687823 
L 298.92676 101.368489 
L 299.034629 100.612731 
L 299.453827 100.186952 
L 299.922495 98.547702 
L 300.478222 97.621632 
L 301.197636 95.748204 
L 301.605074 95.194691 
L 301.962285 94.90729 
L 302.101095 94.17282 
L 302.203504 93.789619 
L 302.418532 92.906127 
L 302.590514 92.693238 
L 302.966331 92.075858 
L 303.20012 91.990702 
L 303.306718 91.692657 
L 303.474629 91.341389 
L 304.755861 91.181722 
L 305.110586 90.990121 
L 305.227301 90.553697 
L 306.039334 88.96767 
L 306.124502 88.44609 
L 306.513846 87.924511 
L 306.628085 87.147464 
L 306.996086 85.667881 
L 307.249093 84.731167 
L 307.956544 82.868383 
L 308.100408 82.71936 
L 308.2553 82.485181 
L 308.33364 82.240358 
L 308.515864 81.729423 
L 309.757884 81.101399 
L 309.94036 80.654331 
L 310.226569 80.388219 
L 310.782477 80.292419 
L 310.927045 80.260485 
L 310.952332 80.303063 
L 310.990241 80.345641 
L 311.053367 80.249841 
L 311.385782 80.185974 
L 311.756636 80.090173 
L 312.052937 79.824061 
L 312.353151 79.387638 
L 313.152856 78.82348 
L 313.545323 76.58814 
L 313.845015 76.055916 
L 314.620925 75.385313 
L 314.729143 75.300157 
L 315.118014 75.225646 
L 315.465854 75.119201 
L 315.578682 74.778578 
L 315.723523 74.203776 
L 317.523454 73.660908 
L 317.765075 73.394796 
L 317.911826 73.235128 
L 318.512412 73.054172 
L 318.648833 72.937083 
L 319.007827 72.543237 
L 319.170278 71.893924 
L 320.320367 70.009851 
L 320.725587 67.433887 
L 320.74825 67.146486 
L 320.785794 67.178419 
L 321.218146 67.284864 
L 321.565425 67.359375 
L 321.768021 67.46582 
L 321.769881 67.476465 
L 321.808092 67.210353 
L 322.844468 66.529106 
L 323.250523 65.890437 
L 323.367059 65.241124 
L 323.626384 64.857923 
L 323.934417 64.219254 
L 324.415254 62.484204 
L 324.522479 62.601293 
L 325.947906 63.410273 
L 326.673333 63.06965 
L 326.852741 62.750316 
L 327.372235 62.643871 
L 328.9474 61.73909 
L 329.831655 61.174932 
L 330.519425 60.302085 
L 331.964703 59.79115 
L 333.203103 59.556972 
L 333.213595 59.620838 
L 333.397886 60.19564 
L 333.989422 60.184996 
L 334.176862 60.089196 
L 334.396987 59.993395 
L 334.689138 59.823084 
L 334.910086 59.79115 
L 335.503454 60.302085 
L 335.928805 60.216929 
L 336.137833 59.674061 
L 336.444468 59.152481 
L 337.17424 57.800632 
L 337.402523 56.576517 
L 337.559641 56.374272 
L 337.685017 56.267827 
L 337.806066 55.916559 
L 337.924912 55.778181 
L 338.308176 55.341757 
L 338.384438 55.29918 
L 338.412508 55.373691 
L 338.539979 55.714314 
L 338.590522 55.650447 
L 339.123406 55.405624 
L 339.365047 55.309824 
L 339.966272 55.203379 
L 340.163666 54.852111 
L 340.886091 54.490199 
L 340.890067 54.522132 
L 341.087485 55.214024 
L 342.214034 55.682381 
L 342.815404 55.724959 
L 344.929418 55.309824 
L 348.921586 55.203379 
L 349.622486 54.958556 
L 349.785639 54.788244 
L 349.895945 54.426332 
L 350.280117 53.862175 
L 350.374677 53.617352 
L 350.574054 53.255439 
L 350.988879 52.478392 
L 351.180954 51.946168 
L 351.321041 50.519808 
L 352.066635 50.413363 
L 352.256875 50.157896 
L 352.516427 49.913073 
L 352.73633 49.76405 
L 353.275591 49.508582 
L 353.419668 49.306337 
L 353.576848 49.125381 
L 353.588322 49.136026 
L 353.793736 49.178604 
L 353.879547 49.285048 
L 353.892455 49.444716 
L 353.896551 49.434071 
L 353.994365 49.76405 
L 354.572182 49.987584 
L 354.693981 50.040806 
L 354.902161 50.051451 
L 355.427475 49.604383 
L 355.682226 49.189248 
L 356.102693 48.912492 
L 356.395135 49.231826 
L 357.585326 49.45536 
L 359.638656 49.348915 
L 359.75934 49.05087 
L 360.026012 48.912492 
L 360.125349 48.806047 
L 360.59815 46.783596 
L 360.741055 46.79424 
L 363.811406 46.687795 
L 364.371239 46.357816 
L 364.577345 46.262016 
L 366.114654 46.155571 
L 366.559059 45.729792 
L 369.673145 45.623347 
L 369.845609 45.229501 
L 370.006269 44.920812 
L 371.309837 44.665344 
L 372.862387 44.558899 
L 373.101026 43.600896 
L 373.707731 43.494451 
L 373.8484 43.058028 
L 373.980485 42.749338 
L 374.683325 42.536448 
L 380.150544 42.642893 
L 380.524252 42.962227 
L 380.726931 43.068672 
L 382.623388 43.164472 
L 383.00518 43.973453 
L 383.232272 44.13312 
L 383.852033 44.026675 
L 384.593129 43.600896 
L 385.304574 43.494451 
L 385.909306 43.11125 
L 386.236171 43.483807 
L 386.377521 43.590252 
L 386.474383 43.483807 
L 386.665519 43.20705 
L 387.001522 43.068672 
L 390.605689 42.962227 
L 390.818557 42.632248 
L 390.94236 42.536448 
L 391.913833 42.430003 
L 392.047542 41.99358 
L 392.074269 42.004224 
L 393.097987 41.897779 
L 393.390686 41.472 
L 398.330769 41.472 
L 398.480157 174.528 
L -1 174.544375 
L -1 174.544375 
" clip-path="url(#p71d31b5c7a)" style="fill: none; stroke-dasharray: 1.85,0.8; stroke-dashoffset: 0; stroke: #8000ff; stroke-width: 0.5"/>
   </g>
   <g id="line2d_34">
    <path d="M 73.832727 303.241052 
L 76.013901 303.07074 
L 76.013901 302.905751 
L 80.358509 302.575772 
L 80.426475 302.400138 
L 84.385726 302.224504 
L 84.841441 302.04887 
L 85.83029 301.883881 
L 85.83029 301.724214 
L 102.250743 301.564547 
L 103.134624 301.404879 
L 103.297455 301.245212 
L 104.293557 301.096189 
L 104.54095 300.936522 
L 106.346366 300.776855 
L 106.346366 300.617188 
L 106.865854 300.297853 
L 110.739931 299.680474 
L 110.739931 299.520806 
L 111.073564 299.361139 
L 113.167194 299.041805 
L 113.167194 298.871493 
L 114.469416 298.701181 
L 118.084813 298.53087 
L 118.426368 298.371203 
L 118.45386 298.211535 
L 120.359188 298.051868 
L 120.359188 297.902845 
L 121.678049 297.583511 
L 124.44861 297.264177 
L 124.44861 297.115154 
L 126.929527 296.827753 
L 127.638058 296.673408 
L 127.638058 296.519063 
L 130.827096 296.231662 
L 130.827096 296.087962 
L 130.988265 295.944261 
L 133.752318 295.805883 
L 133.925982 295.662182 
L 137.42872 295.08738 
L 137.456383 294.94368 
L 138.121883 294.79998 
L 138.121883 294.656279 
L 138.298504 294.512579 
L 140.366939 294.368878 
L 140.366939 294.225178 
L 140.520542 294.076155 
L 140.887749 293.927132 
L 142.971241 293.788754 
L 143.216419 293.650376 
L 143.216419 293.501353 
L 143.799876 293.362975 
L 143.891807 293.086218 
L 144.052178 292.788173 
L 145.302824 292.484805 
L 145.607626 292.33046 
L 147.97148 291.71308 
L 148.002199 291.40439 
L 149.020068 291.250045 
L 149.197192 291.106345 
L 150.59333 290.64331 
L 150.59333 290.478321 
L 151.99512 290.313331 
L 152.310869 290.153664 
L 152.310869 289.993997 
L 153.423475 289.83433 
L 153.825962 289.664018 
L 153.825962 289.493706 
L 153.961369 289.31275 
L 154.677828 288.950838 
L 154.768103 288.759237 
L 156.670296 288.567636 
L 158.080162 288.184435 
L 161.153814 287.806556 
L 161.887571 287.433999 
L 163.90253 286.710175 
L 164.321989 286.529219 
L 165.046528 286.348262 
L 165.071518 286.177951 
L 165.507817 286.002317 
L 167.971086 285.661693 
L 171.241586 284.783524 
L 171.72695 284.267267 
L 172.384624 284.102277 
L 172.699529 283.761654 
L 172.721417 283.42103 
L 173.13481 283.250719 
L 173.13481 283.080407 
L 173.474661 282.92074 
L 173.522522 282.61205 
L 174.140977 282.457705 
L 174.302685 282.15966 
L 174.302685 282.010637 
L 174.972225 281.723236 
L 174.972225 281.579535 
L 176.52493 280.717332 
L 177.055702 280.030764 
L 177.50958 279.887063 
L 177.550682 279.743363 
L 178.219817 279.445317 
L 178.219817 279.301617 
L 178.581257 279.147272 
L 178.581257 278.998249 
L 180.724556 278.556503 
L 180.748468 278.402158 
L 180.897965 278.109435 
L 181.446819 277.95509 
L 181.54882 277.534633 
L 182.039557 277.390932 
L 182.077243 277.247232 
L 182.251591 277.103532 
L 184.415138 276.816131 
L 184.415138 276.677752 
L 184.961998 276.289229 
L 185.872198 276.05505 
L 186.042949 275.69846 
L 188.772157 275.43767 
L 188.848672 275.309937 
L 189.909893 275.054469 
L 189.909893 274.926735 
L 190.31024 274.53289 
L 190.89365 273.931476 
L 192.20314 273.60682 
L 192.582907 273.39393 
L 192.791124 272.888317 
L 193.683175 272.691395 
L 193.683175 272.590272 
L 196.104058 272.068692 
L 196.104058 271.972892 
L 196.632852 271.770647 
L 198.25707 271.1373 
L 199.475445 270.54121 
L 199.475445 270.450732 
L 201.483295 270.083497 
L 201.55446 269.817385 
L 201.623922 269.471439 
L 202.096633 269.146783 
L 202.201632 268.987116 
L 202.477377 268.907282 
L 203.464335 268.73697 
L 203.489825 268.375058 
L 203.927862 268.018468 
L 204.792962 267.789612 
L 205.217377 267.459633 
L 206.919257 267.00192 
L 206.971683 266.496307 
L 207.904811 265.889572 
L 208.011121 265.692649 
L 209.325186 265.181714 
L 209.752522 264.590945 
L 210.100274 264.473856 
L 210.232444 264.090655 
L 210.920578 263.420052 
L 210.920578 263.324252 
L 212.108068 262.919762 
L 213.205185 262.706872 
L 213.222702 262.600428 
L 213.99602 262.164004 
L 214.633653 261.935148 
L 214.692657 261.700969 
L 215.082733 261.355023 
L 215.082733 261.243256 
L 215.581918 261.019722 
L 215.719558 260.785544 
L 215.881422 260.540721 
L 215.926143 260.274609 
L 216.583626 259.875441 
L 216.772458 259.47095 
L 217.096658 259.204838 
L 217.685225 258.80567 
L 217.790229 258.539558 
L 218.392299 257.890245 
L 219.46336 257.624133 
L 219.592924 257.491077 
L 221.002594 257.097231 
L 221.620931 256.469207 
L 222.701905 256.091328 
L 222.970635 255.591037 
L 223.067214 255.351537 
L 223.57851 254.899146 
L 223.591678 254.686257 
L 224.726387 253.589875 
L 225.394552 253.398275 
L 225.394552 253.33973 
L 225.507124 253.281185 
L 226.235128 253.116196 
L 226.573786 252.871373 
L 226.580821 252.743639 
L 226.851864 252.541394 
L 227.745589 252.408338 
L 227.745589 252.323182 
L 227.89371 252.099648 
L 227.89371 252.025137 
L 228.531572 251.599357 
L 228.531572 251.530168 
L 229.003976 251.040522 
L 229.023028 250.955366 
L 229.585334 250.763766 
L 229.759639 250.518943 
L 229.894584 250.220897 
L 230.050963 249.75254 
L 230.449588 249.555617 
L 230.691966 249.257572 
L 230.705 248.970171 
L 231.315975 248.751959 
L 232.146756 248.42198 
L 232.367796 247.8046 
L 232.569398 247.607677 
L 232.674534 247.314954 
L 233.073617 247.112709 
L 233.213167 246.676285 
L 233.424807 246.463396 
L 233.512528 246.128095 
L 233.648102 245.979072 
L 233.714439 245.744893 
L 234.375325 245.228636 
L 234.375325 245.164769 
L 234.582506 245.026391 
L 234.675354 244.866724 
L 235.687164 244.627223 
L 235.725074 244.542067 
L 236.370083 244.377078 
L 237.970954 243.387141 
L 238.57961 243.041196 
L 238.703 242.849595 
L 238.871509 242.556872 
L 238.957501 242.461071 
L 239.45248 241.998036 
L 239.745794 241.668058 
L 240.315096 241.513713 
L 241.25945 241.279534 
L 241.25945 241.210345 
L 242.073704 240.763277 
L 242.073704 240.704732 
L 242.922506 240.364109 
L 242.922506 240.305564 
L 243.471302 240.039452 
L 243.541768 239.885107 
L 243.654419 239.741407 
L 243.765483 239.501906 
L 243.786271 239.448684 
L 244.148219 239.20386 
L 244.17056 239.076127 
L 244.740093 238.873882 
L 244.740093 238.794048 
L 245.561972 238.458747 
L 245.785615 238.219246 
L 245.849057 238.048934 
L 246.235648 237.660411 
L 246.431677 237.32511 
L 246.447437 237.245276 
L 247.483445 236.574674 
L 247.609451 236.388396 
L 248.492035 236.202117 
L 248.59298 235.898749 
L 248.641019 235.536837 
L 249.134153 235.37717 
L 249.561304 235.222825 
L 249.805164 234.75979 
L 250.526627 234.520289 
L 250.564611 234.445778 
L 250.855363 234.232888 
L 251.015014 233.945487 
L 251.015014 233.855009 
L 251.182712 233.695342 
L 251.262788 233.423908 
L 251.627069 233.184407 
L 252.036919 232.801206 
L 252.375262 232.657505 
L 252.465741 232.306237 
L 253.49044 231.513224 
L 253.49044 231.43339 
L 253.663506 231.295012 
L 253.663506 231.225823 
L 255.094078 230.629732 
L 255.094078 230.539254 
L 255.372087 230.26782 
L 255.473701 230.092186 
L 255.498178 229.735596 
L 255.913739 229.379005 
L 256.206784 228.745659 
L 256.773105 228.149568 
L 256.860939 227.303332 
L 256.913432 227.026575 
L 257.335785 226.755141 
L 257.335785 226.616763 
L 257.771965 226.057928 
L 257.917967 225.355392 
L 258.251316 224.807201 
L 258.491108 224.668823 
L 258.522912 224.402711 
L 258.982911 223.492608 
L 259.132109 223.013606 
L 259.502399 222.779428 
L 259.584371 222.33236 
L 259.736439 222.11947 
L 259.848375 221.150822 
L 260.371621 220.937933 
L 260.454112 220.725043 
L 260.625587 220.246042 
L 260.869791 219.905418 
L 260.896323 219.820262 
L 261.301969 219.575439 
L 261.619142 218.734525 
L 261.919518 218.463091 
L 262.020957 217.696689 
L 262.204712 217.24962 
L 262.580412 217.068664 
L 262.869326 216.520474 
L 262.959966 216.360806 
L 262.96738 216.17985 
L 263.244884 216.009539 
L 263.289773 215.738104 
L 264.550294 215.051535 
L 264.652912 214.545923 
L 265.165855 213.667753 
L 265.513098 213.492119 
L 265.665533 213.21004 
L 266.004352 212.294615 
L 266.298966 212.145592 
L 266.36925 211.938025 
L 266.370189 211.874158 
L 266.647494 211.677235 
L 266.733869 211.480312 
L 267.296115 211.027922 
L 267.450708 210.559565 
L 267.686338 210.30942 
L 267.686338 210.218941 
L 268.186872 210.043308 
L 268.45722 209.697362 
L 269.274866 209.21836 
L 269.998309 207.972956 
L 270.406941 207.658944 
L 271.03653 206.77013 
L 272.004145 206.10485 
L 272.457561 205.17878 
L 272.762361 204.944602 
L 273.279261 204.066432 
L 273.322373 203.842898 
L 273.645084 203.475663 
L 273.747388 203.172296 
L 274.208552 202.741194 
L 274.329933 202.405893 
L 274.421388 202.070592 
L 274.5458 201.559657 
L 274.779263 201.405312 
L 274.838636 201.165811 
L 274.915288 200.920988 
L 275.01033 200.697454 
L 275.69304 200.186519 
L 275.730966 199.835251 
L 276.108337 199.526561 
L 276.108337 199.468017 
L 276.390862 199.223194 
L 276.451145 199.090138 
L 276.865312 198.69097 
L 276.949277 198.376957 
L 278.355451 198.052301 
L 278.498278 197.658455 
L 279.336473 197.323154 
L 279.533207 197.094298 
L 279.813656 196.828186 
L 280.192729 196.62594 
L 280.215818 196.290639 
L 280.626503 195.886149 
L 280.687328 195.577459 
L 280.881733 195.428436 
L 280.908486 195.332636 
L 281.18892 195.178291 
L 281.366421 195.018624 
L 282.075501 194.646067 
L 282.117344 194.560911 
L 282.274718 194.433178 
L 282.337733 194.209644 
L 282.577418 194.065943 
L 282.584492 193.96482 
L 283.313243 193.77322 
L 283.379669 193.709353 
L 284.392111 193.033428 
L 284.491659 192.793928 
L 284.591843 192.650227 
L 284.620704 192.102036 
L 285.197911 191.803991 
L 285.252951 191.56449 
L 285.309969 190.995011 
L 285.678543 190.287153 
L 285.784006 189.978463 
L 285.990835 189.68574 
L 286.067625 189.371727 
L 286.341604 189.196093 
L 287.326341 187.26412 
L 287.426288 186.636096 
L 287.532218 186.204995 
L 287.659338 186.040005 
L 287.710135 185.486492 
L 288.194789 185.225702 
L 288.804387 184.682834 
L 288.898514 184.469944 
L 289.512532 183.458719 
L 289.619931 182.836017 
L 289.941599 182.399593 
L 290.995577 181.44159 
L 291.092751 181.212733 
L 291.373419 180.951944 
L 291.452604 180.850821 
L 291.643077 180.675187 
L 291.748014 180.095063 
L 291.85901 179.89814 
L 291.937646 179.562839 
L 292.142411 179.190282 
L 292.273574 178.940137 
L 292.371303 178.759181 
L 292.489012 178.407913 
L 292.790806 177.519099 
L 292.980537 177.274276 
L 293.435906 176.88043 
L 293.548843 176.582385 
L 294.66277 175.19328 
L 294.833395 174.645089 
L 294.975781 174.442844 
L 295.093844 174.272532 
L 295.713806 173.085673 
L 296.194761 172.537482 
L 296.485426 172.228792 
L 297.122332 171.973325 
L 297.240734 171.808335 
L 297.409801 171.41449 
L 297.613322 171.116444 
L 297.794525 171.004677 
L 298.058878 170.850332 
L 298.153335 170.589542 
L 298.379558 170.419231 
L 298.445773 170.350042 
L 298.548628 170.201019 
L 298.850572 169.87104 
L 298.977902 169.647506 
L 298.984402 169.557028 
L 299.156068 169.386716 
L 299.184062 169.306883 
L 299.399095 169.15786 
L 299.4766 169.014159 
L 299.996719 168.450002 
L 300.083157 168.269046 
L 300.381684 167.784722 
L 300.461494 167.534577 
L 301.447014 165.47487 
L 301.559992 165.07038 
L 301.664965 164.868134 
L 301.692183 164.303977 
L 302.050532 164.000609 
L 302.403088 163.500319 
L 302.414123 163.510963 
L 302.524503 163.52693 
L 302.524503 163.52693 
L 303.413761 163.436452 
L 303.413761 163.420485 
L 303.543237 163.244851 
L 303.721007 162.904228 
L 303.724791 162.819072 
L 304.013351 162.654083 
L 304.121133 162.568927 
L 304.420189 162.329426 
L 304.430896 162.222981 
L 304.734012 162.03138 
L 304.851515 161.829135 
L 305.029971 161.642857 
L 305.127544 161.398034 
L 305.406847 161.004188 
L 305.754028 160.785976 
L 305.863415 160.578409 
L 306.284901 160.120696 
L 306.485554 159.945062 
L 306.619424 159.657661 
L 306.928105 159.386227 
L 307.213387 158.997704 
L 307.689108 158.699658 
L 307.800208 158.390968 
L 308.158508 157.927933 
L 308.84988 157.688433 
L 309.11109 157.289265 
L 309.150422 157.161531 
L 310.085293 156.597373 
L 310.756384 155.729848 
L 310.865578 155.341325 
L 311.680505 154.894257 
L 312.182974 154.250266 
L 312.266023 154.111887 
L 312.516549 153.920287 
L 312.633799 153.505152 
L 312.761174 153.361452 
L 313.125279 152.818583 
L 313.236961 152.270392 
L 313.87233 151.472056 
L 313.935388 151.360289 
L 314.226733 151.115466 
L 314.334679 151.035633 
L 314.572447 150.806776 
L 314.800058 150.375675 
L 315.272016 149.923284 
L 316.464618 149.162204 
L 316.48669 148.959959 
L 316.686656 148.768358 
L 316.780151 148.449024 
L 316.912577 148.220168 
L 317.121314 147.847611 
L 317.794022 147.576177 
L 318.158117 146.591562 
L 318.346616 146.458506 
L 318.704955 146.272228 
L 318.80985 146.069983 
L 319.077349 145.330191 
L 319.192215 144.819256 
L 319.83988 143.643041 
L 320.239041 142.349737 
L 320.333645 142.136847 
L 320.460082 141.711068 
L 320.556367 141.444956 
L 320.642328 141.269322 
L 320.80923 141.083044 
L 321.142617 140.566787 
L 321.70065 139.72055 
L 321.894528 139.566205 
L 322.493041 139.044626 
L 322.617451 138.725292 
L 322.660184 138.358057 
L 322.755927 137.687455 
L 323.016453 137.075397 
L 323.140495 136.527206 
L 323.213746 136.362217 
L 323.311477 135.665004 
L 323.427952 135.404214 
L 323.864493 134.30251 
L 324.105959 134.116232 
L 324.503669 133.812864 
L 324.924532 132.92405 
L 325.047721 132.301348 
L 325.330578 132.077814 
L 325.895525 131.045299 
L 326.025069 130.241641 
L 327.005738 128.708836 
L 327.166787 128.52788 
L 327.394494 127.953078 
L 327.570194 127.617777 
L 328.011717 127.138775 
L 328.170964 126.952497 
L 328.250361 126.750252 
L 328.584411 126.53204 
L 329.135021 126.180772 
L 329.236071 125.829504 
L 329.360664 125.600648 
L 329.552802 125.238735 
L 329.653169 124.738445 
L 329.774129 124.392499 
L 329.853047 124.254121 
L 329.962339 124.041231 
L 330.055704 123.902853 
L 330.165195 123.61013 
L 330.232843 123.221606 
L 330.479695 122.737283 
L 330.635269 122.577615 
L 330.97947 122.263603 
L 331.119733 122.008136 
L 331.966436 121.3056 
L 332.171069 120.826598 
L 332.703046 119.92714 
L 332.80285 119.57055 
L 332.811928 119.57055 
L 334.324091 119.469427 
L 336.149553 119.437494 
L 336.250076 119.485394 
L 336.261879 119.442816 
L 336.792449 119.011715 
L 336.960191 118.734958 
L 337.539965 118.612547 
L 337.593311 118.474168 
L 337.708877 118.106934 
L 338.13552 116.632673 
L 338.207957 116.473006 
L 338.578706 115.355336 
L 338.672048 115.195668 
L 339.150352 114.690056 
L 339.181924 114.775212 
L 339.852899 115.648059 
L 339.939233 115.445814 
L 340.23643 115.089224 
L 340.429368 114.897623 
L 340.535068 114.557 
L 340.714706 114.195087 
L 340.906738 113.982198 
L 340.989963 113.833175 
L 341.226526 112.939039 
L 341.269084 112.768727 
L 341.382917 112.385526 
L 342.427276 110.538708 
L 342.646981 110.40033 
L 343.032238 108.968648 
L 343.135145 108.505613 
L 343.540648 107.297464 
L 343.633966 107.047319 
L 343.83939 106.504451 
L 344.404959 106.26495 
L 344.543635 106.00416 
L 344.707021 105.679503 
L 344.918794 105.259046 
L 345.309164 104.8173 
L 345.509869 104.508611 
L 346.123144 104.215887 
L 347.094658 104.013642 
L 347.373303 103.587863 
L 347.704884 103.273851 
L 347.944294 102.411648 
L 348.633211 100.671276 
L 348.738335 99.851651 
L 348.81836 99.542961 
L 348.955887 99.175726 
L 349.171904 98.808492 
L 349.223912 98.393357 
L 349.361255 98.036767 
L 349.882834 97.589699 
L 350.059838 97.339553 
L 350.788531 97.100052 
L 350.890999 96.908452 
L 351.019807 96.626373 
L 351.093485 96.221883 
L 351.212037 95.97706 
L 351.275543 95.423547 
L 351.389389 95.439514 
L 351.812851 95.354358 
L 351.907895 95.152113 
L 352.072051 94.864712 
L 352.772975 93.582052 
L 353.083564 93.262717 
L 353.699143 92.501637 
L 354.273243 91.964091 
L 354.379318 91.596856 
L 354.567058 91.490412 
L 354.688238 91.309455 
L 354.807312 91.250911 
L 355.861252 90.904965 
L 355.921578 90.622886 
L 356.053499 90.202429 
L 356.254049 89.899062 
L 357.091172 89.606339 
L 357.432275 89.755361 
L 357.714676 89.739395 
L 358.09115 89.37216 
L 358.213377 88.930414 
L 358.479293 88.56318 
L 358.631123 88.025633 
L 358.738439 87.791455 
L 358.97585 87.397609 
L 359.277321 87.344387 
L 359.488409 87.243264 
L 359.892188 86.519439 
L 360.047533 85.987215 
L 360.179402 85.763681 
L 360.790991 84.252165 
L 362.430221 82.687427 
L 362.796501 82.479859 
L 363.064569 82.384059 
L 363.296236 82.123269 
L 363.406457 81.835868 
L 363.753226 81.314289 
L 363.834451 80.989632 
L 364.175956 80.574497 
L 364.312767 79.951795 
L 364.484386 79.579238 
L 364.967365 78.951214 
L 365.009529 78.855414 
L 365.364003 78.296579 
L 365.791926 78.089011 
L 366.109999 77.652588 
L 366.241466 77.594043 
L 366.49098 77.49292 
L 366.49098 77.487598 
L 367.217767 77.370509 
L 367.219038 77.381153 
L 367.348144 77.551465 
L 367.868251 78.025144 
L 367.966745 78.264645 
L 368.328336 78.450924 
L 368.339813 78.429635 
L 368.595033 78.339156 
L 369.228994 78.238034 
L 369.775621 77.482276 
L 369.949092 77.333253 
L 370.128549 76.838285 
L 370.594102 76.380572 
L 371.084408 75.502403 
L 371.891025 74.171843 
L 372.279 73.075461 
L 372.489743 72.559204 
L 372.513502 72.569848 
L 372.702982 72.74016 
L 372.793533 72.894505 
L 373.045177 72.830638 
L 373.271264 72.112136 
L 373.38129 71.090266 
L 373.662341 70.69642 
L 373.698266 70.723031 
L 373.801093 70.909309 
L 373.93306 71.329766 
L 374.217256 71.382989 
L 374.604955 71.10091 
L 375.208462 70.856087 
L 375.314407 70.776253 
L 375.609111 70.478208 
L 375.64845 70.275963 
L 375.761184 69.882117 
L 376.029798 69.50956 
L 376.254413 69.142326 
L 376.687768 68.881536 
L 376.894076 68.775091 
L 377.556145 68.418501 
L 377.734484 68.269478 
L 378.098383 68.115133 
L 378.461133 67.63081 
L 378.491726 67.67871 
L 378.571045 67.705321 
L 378.603415 67.673388 
L 378.80877 67.327442 
L 379.62404 66.688773 
L 379.669165 66.747318 
L 379.849016 67.034719 
L 380.011693 67.189064 
L 380.794017 67.087941 
L 381.401096 66.635551 
L 381.420919 66.779251 
L 381.733798 66.986819 
L 382.221861 66.885696 
L 382.410242 66.699418 
L 382.42729 66.710062 
L 382.912918 66.885696 
L 383.466081 66.374761 
L 383.645554 66.209772 
L 383.757932 65.87447 
L 384.18313 65.198546 
L 384.6263 63.591229 
L 385.082747 63.037716 
L 385.270044 62.478881 
L 386.022169 61.877468 
L 386.754305 61.637967 
L 386.936854 61.393144 
L 387.364536 59.870984 
L 387.733356 59.285537 
L 387.797509 58.923625 
L 387.915666 58.652191 
L 388.365438 58.614935 
L 389.238753 58.955558 
L 389.634668 58.886369 
L 389.750201 58.955558 
L 389.981045 59.333437 
L 390.008034 59.567616 
L 390.073158 59.22167 
L 390.884688 59.104581 
L 391.364058 59.407949 
L 391.41618 59.312148 
L 391.541003 59.152481 
L 391.735864 58.726702 
L 391.899033 58.55639 
L 391.923124 58.652191 
L 392.096844 58.732024 
L 392.887186 58.76928 
L 393.887109 58.668157 
L 394.394349 58.141256 
L 394.503114 57.779343 
L 395.308318 57.321631 
L 395.751856 56.901174 
L 396.332376 56.698929 
L 396.564211 56.847951 
L 396.592106 56.666995 
L 396.741965 56.379594 
L 396.999497 55.985748 
L 397.127816 55.570614 
L 397.663661 55.480136 
L 397.774768 55.405624 
L 397.96254 55.506747 
L 398.196366 55.570614 
L 398.487273 181.574646 
L -1 181.590153 
L -1 181.590153 
" clip-path="url(#p71d31b5c7a)" style="fill: none; stroke-dasharray: 1.85,0.8; stroke-dashoffset: 0; stroke: #8000ff; stroke-width: 0.5"/>
   </g>
   <g id="patch_3">
    <path d="M 57.6 307.584 
L 57.6 41.472 
" style="fill: none; stroke: #000000; stroke-width: 0.8; stroke-linejoin: miter; stroke-linecap: square"/>
   </g>
   <g id="patch_4">
    <path d="M 414.72 307.584 
L 414.72 41.472 
" style="fill: none; stroke: #000000; stroke-width: 0.8; stroke-linejoin: miter; stroke-linecap: square"/>
   </g>
   <g id="patch_5">
    <path d="M 57.6 307.584 
L 414.72 307.584 
" style="fill: none; stroke: #000000; stroke-width: 0.8; stroke-linejoin: miter; stroke-linecap: square"/>
   </g>
   <g id="patch_6">
    <path d="M 57.6 41.472 
L 414.72 41.472 
" style="fill: none; stroke: #000000; stroke-width: 0.8; stroke-linejoin: miter; stroke-linecap: square"/>
   </g>
   <g id="legend_1">
    <g id="patch_7">
     <path d="M 314.584 81.0832 
L 318.584 81.0832 
Q 320.584 81.0832 320.584 79.0832 
L 320.584 75.0832 
Q 320.584 73.0832 318.584 73.0832 
L 314.584 73.0832 
Q 312.584 73.0832 312.584 75.0832 
L 312.584 79.0832 
Q 312.584 81.0832 314.584 81.0832 
z
" style="fill: #ffffff; opacity: 0.8; stroke: #cccccc; stroke-linejoin: miter"/>
    </g>
   </g>
  </g>
 </g>
 <defs>
  <clipPath id="p71d31b5c7a">
   <rect x="57.6" y="41.472" width="357.12" height="266.112"/>
  </clipPath>
 </defs>
</svg>
