<?xml version="1.0" encoding="utf-8" standalone="no"?>
<!DOCTYPE svg PUBLIC "-//W3C//DTD SVG 1.1//EN"
  "http://www.w3.org/Graphics/SVG/1.1/DTD/svg11.dtd">
<svg xmlns:xlink="http://www.w3.org/1999/xlink" width="460.8pt" height="345.6pt" viewBox="0 0 460.8 345.6" xmlns="http://www.w3.org/2000/svg" version="1.1">
 <metadata>
  <rdf:RDF xmlns:dc="http://purl.org/dc/elements/1.1/" xmlns:cc="http://creativecommons.org/ns#" xmlns:rdf="http://www.w3.org/1999/02/22-rdf-syntax-ns#">
   <cc:Work>
    <dc:type rdf:resource="http://purl.org/dc/dcmitype/StillImage"/>
    <dc:date>2025-03-11T11:32:24.164548</dc:date>
    <dc:format>image/svg+xml</dc:format>
    <dc:creator>
     <cc:Agent>
      <dc:title>Matplotlib v3.10.0, https://matplotlib.org/</dc:title>
     </cc:Agent>
    </dc:creator>
   </cc:Work>
  </rdf:RDF>
 </metadata>
 <defs>
  <style type="text/css">*{stroke-linejoin: round; stroke-linecap: butt}</style>
 </defs>
 <g id="figure_1">
  <g id="patch_1">
   <path d="M 0 345.6 
L 460.8 345.6 
L 460.8 0 
L 0 0 
z
" style="fill: #ffffff"/>
  </g>
  <g id="axes_1">
   <g id="patch_2">
    <path d="M 57.6 307.584 
L 414.72 307.584 
L 414.72 41.472 
L 57.6 41.472 
z
" style="fill: #ffffff"/>
   </g>
   <g id="matplotlib.axis_1">
    <g id="xtick_1">
     <g id="line2d_1">
      <defs>
       <path id="m2dfbf70035" d="M 0 0 
L 0 3.5 
" style="stroke: #000000; stroke-width: 0.8"/>
      </defs>
      <g>
       <use xlink:href="#m2dfbf70035" x="67.929917" y="307.584" style="stroke: #000000; stroke-width: 0.8"/>
      </g>
     </g>
     <g id="text_1">
      <!-- 0 -->
      <g transform="translate(64.748667 322.182437) scale(0.1 -0.1)">
       <defs>
        <path id="DejaVuSans-30" d="M 2034 4250 
Q 1547 4250 1301 3770 
Q 1056 3291 1056 2328 
Q 1056 1369 1301 889 
Q 1547 409 2034 409 
Q 2525 409 2770 889 
Q 3016 1369 3016 2328 
Q 3016 3291 2770 3770 
Q 2525 4250 2034 4250 
z
M 2034 4750 
Q 2819 4750 3233 4129 
Q 3647 3509 3647 2328 
Q 3647 1150 3233 529 
Q 2819 -91 2034 -91 
Q 1250 -91 836 529 
Q 422 1150 422 2328 
Q 422 3509 836 4129 
Q 1250 4750 2034 4750 
z
" transform="scale(0.015625)"/>
       </defs>
       <use xlink:href="#DejaVuSans-30"/>
      </g>
     </g>
    </g>
    <g id="xtick_2">
     <g id="line2d_2">
      <g>
       <use xlink:href="#m2dfbf70035" x="110.040142" y="307.584" style="stroke: #000000; stroke-width: 0.8"/>
      </g>
     </g>
     <g id="text_2">
      <!-- 100 -->
      <g transform="translate(100.496392 322.182437) scale(0.1 -0.1)">
       <defs>
        <path id="DejaVuSans-31" d="M 794 531 
L 1825 531 
L 1825 4091 
L 703 3866 
L 703 4441 
L 1819 4666 
L 2450 4666 
L 2450 531 
L 3481 531 
L 3481 0 
L 794 0 
L 794 531 
z
" transform="scale(0.015625)"/>
       </defs>
       <use xlink:href="#DejaVuSans-31"/>
       <use xlink:href="#DejaVuSans-30" transform="translate(63.623047 0)"/>
       <use xlink:href="#DejaVuSans-30" transform="translate(127.246094 0)"/>
      </g>
     </g>
    </g>
    <g id="xtick_3">
     <g id="line2d_3">
      <g>
       <use xlink:href="#m2dfbf70035" x="152.150366" y="307.584" style="stroke: #000000; stroke-width: 0.8"/>
      </g>
     </g>
     <g id="text_3">
      <!-- 200 -->
      <g transform="translate(142.606616 322.182437) scale(0.1 -0.1)">
       <defs>
        <path id="DejaVuSans-32" d="M 1228 531 
L 3431 531 
L 3431 0 
L 469 0 
L 469 531 
Q 828 903 1448 1529 
Q 2069 2156 2228 2338 
Q 2531 2678 2651 2914 
Q 2772 3150 2772 3378 
Q 2772 3750 2511 3984 
Q 2250 4219 1831 4219 
Q 1534 4219 1204 4116 
Q 875 4013 500 3803 
L 500 4441 
Q 881 4594 1212 4672 
Q 1544 4750 1819 4750 
Q 2544 4750 2975 4387 
Q 3406 4025 3406 3419 
Q 3406 3131 3298 2873 
Q 3191 2616 2906 2266 
Q 2828 2175 2409 1742 
Q 1991 1309 1228 531 
z
" transform="scale(0.015625)"/>
       </defs>
       <use xlink:href="#DejaVuSans-32"/>
       <use xlink:href="#DejaVuSans-30" transform="translate(63.623047 0)"/>
       <use xlink:href="#DejaVuSans-30" transform="translate(127.246094 0)"/>
      </g>
     </g>
    </g>
    <g id="xtick_4">
     <g id="line2d_4">
      <g>
       <use xlink:href="#m2dfbf70035" x="194.26059" y="307.584" style="stroke: #000000; stroke-width: 0.8"/>
      </g>
     </g>
     <g id="text_4">
      <!-- 300 -->
      <g transform="translate(184.71684 322.182437) scale(0.1 -0.1)">
       <defs>
        <path id="DejaVuSans-33" d="M 2597 2516 
Q 3050 2419 3304 2112 
Q 3559 1806 3559 1356 
Q 3559 666 3084 287 
Q 2609 -91 1734 -91 
Q 1441 -91 1130 -33 
Q 819 25 488 141 
L 488 750 
Q 750 597 1062 519 
Q 1375 441 1716 441 
Q 2309 441 2620 675 
Q 2931 909 2931 1356 
Q 2931 1769 2642 2001 
Q 2353 2234 1838 2234 
L 1294 2234 
L 1294 2753 
L 1863 2753 
Q 2328 2753 2575 2939 
Q 2822 3125 2822 3475 
Q 2822 3834 2567 4026 
Q 2313 4219 1838 4219 
Q 1578 4219 1281 4162 
Q 984 4106 628 3988 
L 628 4550 
Q 988 4650 1302 4700 
Q 1616 4750 1894 4750 
Q 2613 4750 3031 4423 
Q 3450 4097 3450 3541 
Q 3450 3153 3228 2886 
Q 3006 2619 2597 2516 
z
" transform="scale(0.015625)"/>
       </defs>
       <use xlink:href="#DejaVuSans-33"/>
       <use xlink:href="#DejaVuSans-30" transform="translate(63.623047 0)"/>
       <use xlink:href="#DejaVuSans-30" transform="translate(127.246094 0)"/>
      </g>
     </g>
    </g>
    <g id="xtick_5">
     <g id="line2d_5">
      <g>
       <use xlink:href="#m2dfbf70035" x="236.370815" y="307.584" style="stroke: #000000; stroke-width: 0.8"/>
      </g>
     </g>
     <g id="text_5">
      <!-- 400 -->
      <g transform="translate(226.827065 322.182437) scale(0.1 -0.1)">
       <defs>
        <path id="DejaVuSans-34" d="M 2419 4116 
L 825 1625 
L 2419 1625 
L 2419 4116 
z
M 2253 4666 
L 3047 4666 
L 3047 1625 
L 3713 1625 
L 3713 1100 
L 3047 1100 
L 3047 0 
L 2419 0 
L 2419 1100 
L 313 1100 
L 313 1709 
L 2253 4666 
z
" transform="scale(0.015625)"/>
       </defs>
       <use xlink:href="#DejaVuSans-34"/>
       <use xlink:href="#DejaVuSans-30" transform="translate(63.623047 0)"/>
       <use xlink:href="#DejaVuSans-30" transform="translate(127.246094 0)"/>
      </g>
     </g>
    </g>
    <g id="xtick_6">
     <g id="line2d_6">
      <g>
       <use xlink:href="#m2dfbf70035" x="278.481039" y="307.584" style="stroke: #000000; stroke-width: 0.8"/>
      </g>
     </g>
     <g id="text_6">
      <!-- 500 -->
      <g transform="translate(268.937289 322.182437) scale(0.1 -0.1)">
       <defs>
        <path id="DejaVuSans-35" d="M 691 4666 
L 3169 4666 
L 3169 4134 
L 1269 4134 
L 1269 2991 
Q 1406 3038 1543 3061 
Q 1681 3084 1819 3084 
Q 2600 3084 3056 2656 
Q 3513 2228 3513 1497 
Q 3513 744 3044 326 
Q 2575 -91 1722 -91 
Q 1428 -91 1123 -41 
Q 819 9 494 109 
L 494 744 
Q 775 591 1075 516 
Q 1375 441 1709 441 
Q 2250 441 2565 725 
Q 2881 1009 2881 1497 
Q 2881 1984 2565 2268 
Q 2250 2553 1709 2553 
Q 1456 2553 1204 2497 
Q 953 2441 691 2322 
L 691 4666 
z
" transform="scale(0.015625)"/>
       </defs>
       <use xlink:href="#DejaVuSans-35"/>
       <use xlink:href="#DejaVuSans-30" transform="translate(63.623047 0)"/>
       <use xlink:href="#DejaVuSans-30" transform="translate(127.246094 0)"/>
      </g>
     </g>
    </g>
    <g id="xtick_7">
     <g id="line2d_7">
      <g>
       <use xlink:href="#m2dfbf70035" x="320.591263" y="307.584" style="stroke: #000000; stroke-width: 0.8"/>
      </g>
     </g>
     <g id="text_7">
      <!-- 600 -->
      <g transform="translate(311.047513 322.182437) scale(0.1 -0.1)">
       <defs>
        <path id="DejaVuSans-36" d="M 2113 2584 
Q 1688 2584 1439 2293 
Q 1191 2003 1191 1497 
Q 1191 994 1439 701 
Q 1688 409 2113 409 
Q 2538 409 2786 701 
Q 3034 994 3034 1497 
Q 3034 2003 2786 2293 
Q 2538 2584 2113 2584 
z
M 3366 4563 
L 3366 3988 
Q 3128 4100 2886 4159 
Q 2644 4219 2406 4219 
Q 1781 4219 1451 3797 
Q 1122 3375 1075 2522 
Q 1259 2794 1537 2939 
Q 1816 3084 2150 3084 
Q 2853 3084 3261 2657 
Q 3669 2231 3669 1497 
Q 3669 778 3244 343 
Q 2819 -91 2113 -91 
Q 1303 -91 875 529 
Q 447 1150 447 2328 
Q 447 3434 972 4092 
Q 1497 4750 2381 4750 
Q 2619 4750 2861 4703 
Q 3103 4656 3366 4563 
z
" transform="scale(0.015625)"/>
       </defs>
       <use xlink:href="#DejaVuSans-36"/>
       <use xlink:href="#DejaVuSans-30" transform="translate(63.623047 0)"/>
       <use xlink:href="#DejaVuSans-30" transform="translate(127.246094 0)"/>
      </g>
     </g>
    </g>
    <g id="xtick_8">
     <g id="line2d_8">
      <g>
       <use xlink:href="#m2dfbf70035" x="362.701488" y="307.584" style="stroke: #000000; stroke-width: 0.8"/>
      </g>
     </g>
     <g id="text_8">
      <!-- 700 -->
      <g transform="translate(353.157738 322.182437) scale(0.1 -0.1)">
       <defs>
        <path id="DejaVuSans-37" d="M 525 4666 
L 3525 4666 
L 3525 4397 
L 1831 0 
L 1172 0 
L 2766 4134 
L 525 4134 
L 525 4666 
z
" transform="scale(0.015625)"/>
       </defs>
       <use xlink:href="#DejaVuSans-37"/>
       <use xlink:href="#DejaVuSans-30" transform="translate(63.623047 0)"/>
       <use xlink:href="#DejaVuSans-30" transform="translate(127.246094 0)"/>
      </g>
     </g>
    </g>
    <g id="xtick_9">
     <g id="line2d_9">
      <g>
       <use xlink:href="#m2dfbf70035" x="404.811712" y="307.584" style="stroke: #000000; stroke-width: 0.8"/>
      </g>
     </g>
     <g id="text_9">
      <!-- 800 -->
      <g transform="translate(395.267962 322.182437) scale(0.1 -0.1)">
       <defs>
        <path id="DejaVuSans-38" d="M 2034 2216 
Q 1584 2216 1326 1975 
Q 1069 1734 1069 1313 
Q 1069 891 1326 650 
Q 1584 409 2034 409 
Q 2484 409 2743 651 
Q 3003 894 3003 1313 
Q 3003 1734 2745 1975 
Q 2488 2216 2034 2216 
z
M 1403 2484 
Q 997 2584 770 2862 
Q 544 3141 544 3541 
Q 544 4100 942 4425 
Q 1341 4750 2034 4750 
Q 2731 4750 3128 4425 
Q 3525 4100 3525 3541 
Q 3525 3141 3298 2862 
Q 3072 2584 2669 2484 
Q 3125 2378 3379 2068 
Q 3634 1759 3634 1313 
Q 3634 634 3220 271 
Q 2806 -91 2034 -91 
Q 1263 -91 848 271 
Q 434 634 434 1313 
Q 434 1759 690 2068 
Q 947 2378 1403 2484 
z
M 1172 3481 
Q 1172 3119 1398 2916 
Q 1625 2713 2034 2713 
Q 2441 2713 2670 2916 
Q 2900 3119 2900 3481 
Q 2900 3844 2670 4047 
Q 2441 4250 2034 4250 
Q 1625 4250 1398 4047 
Q 1172 3844 1172 3481 
z
" transform="scale(0.015625)"/>
       </defs>
       <use xlink:href="#DejaVuSans-38"/>
       <use xlink:href="#DejaVuSans-30" transform="translate(63.623047 0)"/>
       <use xlink:href="#DejaVuSans-30" transform="translate(127.246094 0)"/>
      </g>
     </g>
    </g>
    <g id="text_10">
     <!-- Temperature ($^{\circ}C$) -->
     <g transform="translate(192.16 335.862125) scale(0.1 -0.1)">
      <defs>
       <path id="DejaVuSans-54" d="M -19 4666 
L 3928 4666 
L 3928 4134 
L 2272 4134 
L 2272 0 
L 1638 0 
L 1638 4134 
L -19 4134 
L -19 4666 
z
" transform="scale(0.015625)"/>
       <path id="DejaVuSans-65" d="M 3597 1894 
L 3597 1613 
L 953 1613 
Q 991 1019 1311 708 
Q 1631 397 2203 397 
Q 2534 397 2845 478 
Q 3156 559 3463 722 
L 3463 178 
Q 3153 47 2828 -22 
Q 2503 -91 2169 -91 
Q 1331 -91 842 396 
Q 353 884 353 1716 
Q 353 2575 817 3079 
Q 1281 3584 2069 3584 
Q 2775 3584 3186 3129 
Q 3597 2675 3597 1894 
z
M 3022 2063 
Q 3016 2534 2758 2815 
Q 2500 3097 2075 3097 
Q 1594 3097 1305 2825 
Q 1016 2553 972 2059 
L 3022 2063 
z
" transform="scale(0.015625)"/>
       <path id="DejaVuSans-6d" d="M 3328 2828 
Q 3544 3216 3844 3400 
Q 4144 3584 4550 3584 
Q 5097 3584 5394 3201 
Q 5691 2819 5691 2113 
L 5691 0 
L 5113 0 
L 5113 2094 
Q 5113 2597 4934 2840 
Q 4756 3084 4391 3084 
Q 3944 3084 3684 2787 
Q 3425 2491 3425 1978 
L 3425 0 
L 2847 0 
L 2847 2094 
Q 2847 2600 2669 2842 
Q 2491 3084 2119 3084 
Q 1678 3084 1418 2786 
Q 1159 2488 1159 1978 
L 1159 0 
L 581 0 
L 581 3500 
L 1159 3500 
L 1159 2956 
Q 1356 3278 1631 3431 
Q 1906 3584 2284 3584 
Q 2666 3584 2933 3390 
Q 3200 3197 3328 2828 
z
" transform="scale(0.015625)"/>
       <path id="DejaVuSans-70" d="M 1159 525 
L 1159 -1331 
L 581 -1331 
L 581 3500 
L 1159 3500 
L 1159 2969 
Q 1341 3281 1617 3432 
Q 1894 3584 2278 3584 
Q 2916 3584 3314 3078 
Q 3713 2572 3713 1747 
Q 3713 922 3314 415 
Q 2916 -91 2278 -91 
Q 1894 -91 1617 61 
Q 1341 213 1159 525 
z
M 3116 1747 
Q 3116 2381 2855 2742 
Q 2594 3103 2138 3103 
Q 1681 3103 1420 2742 
Q 1159 2381 1159 1747 
Q 1159 1113 1420 752 
Q 1681 391 2138 391 
Q 2594 391 2855 752 
Q 3116 1113 3116 1747 
z
" transform="scale(0.015625)"/>
       <path id="DejaVuSans-72" d="M 2631 2963 
Q 2534 3019 2420 3045 
Q 2306 3072 2169 3072 
Q 1681 3072 1420 2755 
Q 1159 2438 1159 1844 
L 1159 0 
L 581 0 
L 581 3500 
L 1159 3500 
L 1159 2956 
Q 1341 3275 1631 3429 
Q 1922 3584 2338 3584 
Q 2397 3584 2469 3576 
Q 2541 3569 2628 3553 
L 2631 2963 
z
" transform="scale(0.015625)"/>
       <path id="DejaVuSans-61" d="M 2194 1759 
Q 1497 1759 1228 1600 
Q 959 1441 959 1056 
Q 959 750 1161 570 
Q 1363 391 1709 391 
Q 2188 391 2477 730 
Q 2766 1069 2766 1631 
L 2766 1759 
L 2194 1759 
z
M 3341 1997 
L 3341 0 
L 2766 0 
L 2766 531 
Q 2569 213 2275 61 
Q 1981 -91 1556 -91 
Q 1019 -91 701 211 
Q 384 513 384 1019 
Q 384 1609 779 1909 
Q 1175 2209 1959 2209 
L 2766 2209 
L 2766 2266 
Q 2766 2663 2505 2880 
Q 2244 3097 1772 3097 
Q 1472 3097 1187 3025 
Q 903 2953 641 2809 
L 641 3341 
Q 956 3463 1253 3523 
Q 1550 3584 1831 3584 
Q 2591 3584 2966 3190 
Q 3341 2797 3341 1997 
z
" transform="scale(0.015625)"/>
       <path id="DejaVuSans-74" d="M 1172 4494 
L 1172 3500 
L 2356 3500 
L 2356 3053 
L 1172 3053 
L 1172 1153 
Q 1172 725 1289 603 
Q 1406 481 1766 481 
L 2356 481 
L 2356 0 
L 1766 0 
Q 1100 0 847 248 
Q 594 497 594 1153 
L 594 3053 
L 172 3053 
L 172 3500 
L 594 3500 
L 594 4494 
L 1172 4494 
z
" transform="scale(0.015625)"/>
       <path id="DejaVuSans-75" d="M 544 1381 
L 544 3500 
L 1119 3500 
L 1119 1403 
Q 1119 906 1312 657 
Q 1506 409 1894 409 
Q 2359 409 2629 706 
Q 2900 1003 2900 1516 
L 2900 3500 
L 3475 3500 
L 3475 0 
L 2900 0 
L 2900 538 
Q 2691 219 2414 64 
Q 2138 -91 1772 -91 
Q 1169 -91 856 284 
Q 544 659 544 1381 
z
M 1991 3584 
L 1991 3584 
z
" transform="scale(0.015625)"/>
       <path id="DejaVuSans-20" transform="scale(0.015625)"/>
       <path id="DejaVuSans-28" d="M 1984 4856 
Q 1566 4138 1362 3434 
Q 1159 2731 1159 2009 
Q 1159 1288 1364 580 
Q 1569 -128 1984 -844 
L 1484 -844 
Q 1016 -109 783 600 
Q 550 1309 550 2009 
Q 550 2706 781 3412 
Q 1013 4119 1484 4856 
L 1984 4856 
z
" transform="scale(0.015625)"/>
       <path id="DejaVuSans-2218" d="M 2000 2619 
Q 1750 2619 1578 2445 
Q 1406 2272 1406 2022 
Q 1406 1775 1578 1605 
Q 1750 1435 2000 1435 
Q 2250 1435 2422 1605 
Q 2594 1775 2594 2022 
Q 2594 2269 2420 2444 
Q 2247 2619 2000 2619 
z
M 2000 3022 
Q 2200 3022 2384 2945 
Q 2569 2869 2703 2725 
Q 2847 2585 2919 2406 
Q 2991 2228 2991 2022 
Q 2991 1610 2702 1324 
Q 2413 1038 1994 1038 
Q 1572 1038 1290 1319 
Q 1009 1600 1009 2022 
Q 1009 2441 1296 2731 
Q 1584 3022 2000 3022 
z
" transform="scale(0.015625)"/>
       <path id="DejaVuSans-Oblique-43" d="M 4447 4306 
L 4319 3641 
Q 4019 3944 3683 4091 
Q 3347 4238 2956 4238 
Q 2422 4238 2017 3981 
Q 1613 3725 1319 3200 
Q 1131 2863 1032 2486 
Q 934 2109 934 1728 
Q 934 1091 1264 756 
Q 1594 422 2222 422 
Q 2656 422 3056 561 
Q 3456 700 3834 978 
L 3688 231 
Q 3316 72 2936 -9 
Q 2556 -91 2175 -91 
Q 1278 -91 773 396 
Q 269 884 269 1753 
Q 269 2309 461 2846 
Q 653 3384 1013 3828 
Q 1394 4300 1883 4525 
Q 2372 4750 3022 4750 
Q 3422 4750 3780 4639 
Q 4138 4528 4447 4306 
z
" transform="scale(0.015625)"/>
       <path id="DejaVuSans-29" d="M 513 4856 
L 1013 4856 
Q 1481 4119 1714 3412 
Q 1947 2706 1947 2009 
Q 1947 1309 1714 600 
Q 1481 -109 1013 -844 
L 513 -844 
Q 928 -128 1133 580 
Q 1338 1288 1338 2009 
Q 1338 2731 1133 3434 
Q 928 4138 513 4856 
z
" transform="scale(0.015625)"/>
      </defs>
      <use xlink:href="#DejaVuSans-54" transform="translate(0 0.125)"/>
      <use xlink:href="#DejaVuSans-65" transform="translate(61.083984 0.125)"/>
      <use xlink:href="#DejaVuSans-6d" transform="translate(122.607422 0.125)"/>
      <use xlink:href="#DejaVuSans-70" transform="translate(220.019531 0.125)"/>
      <use xlink:href="#DejaVuSans-65" transform="translate(283.496094 0.125)"/>
      <use xlink:href="#DejaVuSans-72" transform="translate(345.019531 0.125)"/>
      <use xlink:href="#DejaVuSans-61" transform="translate(386.132812 0.125)"/>
      <use xlink:href="#DejaVuSans-74" transform="translate(447.412109 0.125)"/>
      <use xlink:href="#DejaVuSans-75" transform="translate(486.621094 0.125)"/>
      <use xlink:href="#DejaVuSans-72" transform="translate(550 0.125)"/>
      <use xlink:href="#DejaVuSans-65" transform="translate(591.113281 0.125)"/>
      <use xlink:href="#DejaVuSans-20" transform="translate(652.636719 0.125)"/>
      <use xlink:href="#DejaVuSans-28" transform="translate(684.423828 0.125)"/>
      <use xlink:href="#DejaVuSans-2218" transform="translate(724.394531 38.40625) scale(0.7)"/>
      <use xlink:href="#DejaVuSans-Oblique-43" transform="translate(770.947266 0.125)"/>
      <use xlink:href="#DejaVuSans-29" transform="translate(840.771484 0.125)"/>
     </g>
    </g>
   </g>
   <g id="matplotlib.axis_2">
    <g id="ytick_1">
     <g id="line2d_10">
      <defs>
       <path id="m2ac343c27b" d="M 0 0 
L -3.5 0 
" style="stroke: #000000; stroke-width: 0.8"/>
      </defs>
      <g>
       <use xlink:href="#m2ac343c27b" x="57.6" y="295.488" style="stroke: #000000; stroke-width: 0.8"/>
      </g>
     </g>
     <g id="text_11">
      <!-- 0 -->
      <g transform="translate(44.2375 299.287219) scale(0.1 -0.1)">
       <use xlink:href="#DejaVuSans-30"/>
      </g>
     </g>
    </g>
    <g id="ytick_2">
     <g id="line2d_11">
      <g>
       <use xlink:href="#m2ac343c27b" x="57.6" y="246.893424" style="stroke: #000000; stroke-width: 0.8"/>
      </g>
     </g>
     <g id="text_12">
      <!-- 200 -->
      <g transform="translate(31.5125 250.692642) scale(0.1 -0.1)">
       <use xlink:href="#DejaVuSans-32"/>
       <use xlink:href="#DejaVuSans-30" transform="translate(63.623047 0)"/>
       <use xlink:href="#DejaVuSans-30" transform="translate(127.246094 0)"/>
      </g>
     </g>
    </g>
    <g id="ytick_3">
     <g id="line2d_12">
      <g>
       <use xlink:href="#m2ac343c27b" x="57.6" y="198.298847" style="stroke: #000000; stroke-width: 0.8"/>
      </g>
     </g>
     <g id="text_13">
      <!-- 400 -->
      <g transform="translate(31.5125 202.098066) scale(0.1 -0.1)">
       <use xlink:href="#DejaVuSans-34"/>
       <use xlink:href="#DejaVuSans-30" transform="translate(63.623047 0)"/>
       <use xlink:href="#DejaVuSans-30" transform="translate(127.246094 0)"/>
      </g>
     </g>
    </g>
    <g id="ytick_4">
     <g id="line2d_13">
      <g>
       <use xlink:href="#m2ac343c27b" x="57.6" y="149.704271" style="stroke: #000000; stroke-width: 0.8"/>
      </g>
     </g>
     <g id="text_14">
      <!-- 600 -->
      <g transform="translate(31.5125 153.503489) scale(0.1 -0.1)">
       <use xlink:href="#DejaVuSans-36"/>
       <use xlink:href="#DejaVuSans-30" transform="translate(63.623047 0)"/>
       <use xlink:href="#DejaVuSans-30" transform="translate(127.246094 0)"/>
      </g>
     </g>
    </g>
    <g id="ytick_5">
     <g id="line2d_14">
      <g>
       <use xlink:href="#m2ac343c27b" x="57.6" y="101.109694" style="stroke: #000000; stroke-width: 0.8"/>
      </g>
     </g>
     <g id="text_15">
      <!-- 800 -->
      <g transform="translate(31.5125 104.908913) scale(0.1 -0.1)">
       <use xlink:href="#DejaVuSans-38"/>
       <use xlink:href="#DejaVuSans-30" transform="translate(63.623047 0)"/>
       <use xlink:href="#DejaVuSans-30" transform="translate(127.246094 0)"/>
      </g>
     </g>
    </g>
    <g id="ytick_6">
     <g id="line2d_15">
      <g>
       <use xlink:href="#m2ac343c27b" x="57.6" y="52.515118" style="stroke: #000000; stroke-width: 0.8"/>
      </g>
     </g>
     <g id="text_16">
      <!-- 1000 -->
      <g transform="translate(25.15 56.314336) scale(0.1 -0.1)">
       <use xlink:href="#DejaVuSans-31"/>
       <use xlink:href="#DejaVuSans-30" transform="translate(63.623047 0)"/>
       <use xlink:href="#DejaVuSans-30" transform="translate(127.246094 0)"/>
       <use xlink:href="#DejaVuSans-30" transform="translate(190.869141 0)"/>
      </g>
     </g>
    </g>
    <g id="text_17">
     <!-- Intensity ($^{\circ}C^{-1}$) -->
     <g transform="translate(19.05 213.328) rotate(-90) scale(0.1 -0.1)">
      <defs>
       <path id="DejaVuSans-49" d="M 628 4666 
L 1259 4666 
L 1259 0 
L 628 0 
L 628 4666 
z
" transform="scale(0.015625)"/>
       <path id="DejaVuSans-6e" d="M 3513 2113 
L 3513 0 
L 2938 0 
L 2938 2094 
Q 2938 2591 2744 2837 
Q 2550 3084 2163 3084 
Q 1697 3084 1428 2787 
Q 1159 2491 1159 1978 
L 1159 0 
L 581 0 
L 581 3500 
L 1159 3500 
L 1159 2956 
Q 1366 3272 1645 3428 
Q 1925 3584 2291 3584 
Q 2894 3584 3203 3211 
Q 3513 2838 3513 2113 
z
" transform="scale(0.015625)"/>
       <path id="DejaVuSans-73" d="M 2834 3397 
L 2834 2853 
Q 2591 2978 2328 3040 
Q 2066 3103 1784 3103 
Q 1356 3103 1142 2972 
Q 928 2841 928 2578 
Q 928 2378 1081 2264 
Q 1234 2150 1697 2047 
L 1894 2003 
Q 2506 1872 2764 1633 
Q 3022 1394 3022 966 
Q 3022 478 2636 193 
Q 2250 -91 1575 -91 
Q 1294 -91 989 -36 
Q 684 19 347 128 
L 347 722 
Q 666 556 975 473 
Q 1284 391 1588 391 
Q 1994 391 2212 530 
Q 2431 669 2431 922 
Q 2431 1156 2273 1281 
Q 2116 1406 1581 1522 
L 1381 1569 
Q 847 1681 609 1914 
Q 372 2147 372 2553 
Q 372 3047 722 3315 
Q 1072 3584 1716 3584 
Q 2034 3584 2315 3537 
Q 2597 3491 2834 3397 
z
" transform="scale(0.015625)"/>
       <path id="DejaVuSans-69" d="M 603 3500 
L 1178 3500 
L 1178 0 
L 603 0 
L 603 3500 
z
M 603 4863 
L 1178 4863 
L 1178 4134 
L 603 4134 
L 603 4863 
z
" transform="scale(0.015625)"/>
       <path id="DejaVuSans-79" d="M 2059 -325 
Q 1816 -950 1584 -1140 
Q 1353 -1331 966 -1331 
L 506 -1331 
L 506 -850 
L 844 -850 
Q 1081 -850 1212 -737 
Q 1344 -625 1503 -206 
L 1606 56 
L 191 3500 
L 800 3500 
L 1894 763 
L 2988 3500 
L 3597 3500 
L 2059 -325 
z
" transform="scale(0.015625)"/>
       <path id="DejaVuSans-2212" d="M 678 2272 
L 4684 2272 
L 4684 1741 
L 678 1741 
L 678 2272 
z
" transform="scale(0.015625)"/>
      </defs>
      <use xlink:href="#DejaVuSans-49" transform="translate(0 0.684375)"/>
      <use xlink:href="#DejaVuSans-6e" transform="translate(29.492188 0.684375)"/>
      <use xlink:href="#DejaVuSans-74" transform="translate(92.871094 0.684375)"/>
      <use xlink:href="#DejaVuSans-65" transform="translate(132.080078 0.684375)"/>
      <use xlink:href="#DejaVuSans-6e" transform="translate(193.603516 0.684375)"/>
      <use xlink:href="#DejaVuSans-73" transform="translate(256.982422 0.684375)"/>
      <use xlink:href="#DejaVuSans-69" transform="translate(309.082031 0.684375)"/>
      <use xlink:href="#DejaVuSans-74" transform="translate(336.865234 0.684375)"/>
      <use xlink:href="#DejaVuSans-79" transform="translate(376.074219 0.684375)"/>
      <use xlink:href="#DejaVuSans-20" transform="translate(435.253906 0.684375)"/>
      <use xlink:href="#DejaVuSans-28" transform="translate(467.041016 0.684375)"/>
      <use xlink:href="#DejaVuSans-2218" transform="translate(507.011719 38.965625) scale(0.7)"/>
      <use xlink:href="#DejaVuSans-Oblique-43" transform="translate(553.564453 0.684375)"/>
      <use xlink:href="#DejaVuSans-2212" transform="translate(630.589193 38.965625) scale(0.7)"/>
      <use xlink:href="#DejaVuSans-31" transform="translate(689.241536 38.965625) scale(0.7)"/>
      <use xlink:href="#DejaVuSans-29" transform="translate(736.512044 0.684375)"/>
     </g>
    </g>
   </g>
   <g id="line2d_16">
    <path d="M 73.832727 295.488 
L 123.584982 295.488 
L 124.006612 291.438452 
L 124.428241 291.438452 
L 124.84987 287.388904 
L 126.536387 287.388904 
L 127.379646 279.289808 
L 129.066163 279.289808 
L 129.487792 275.24026 
L 130.75268 275.24026 
L 131.174309 271.190712 
L 134.125714 271.190712 
L 134.547344 263.091616 
L 136.233861 263.091616 
L 136.65549 267.141164 
L 137.077119 267.141164 
L 137.498749 263.091616 
L 138.342007 263.091616 
L 139.185266 254.99252 
L 140.028524 254.99252 
L 140.450153 250.942972 
L 140.871783 242.843875 
L 141.715041 242.843875 
L 142.136671 230.695231 
L 142.5583 230.695231 
L 142.979929 226.645683 
L 143.401558 218.546587 
L 143.823188 214.497039 
L 145.931334 214.497039 
L 146.352963 210.447491 
L 146.774593 210.447491 
L 147.196222 218.546587 
L 147.617851 214.497039 
L 148.039481 206.397943 
L 148.46111 202.348395 
L 149.304368 202.348395 
L 149.725998 198.298847 
L 150.147627 202.348395 
L 150.569256 190.199751 
L 150.990885 182.100655 
L 151.412515 182.100655 
L 151.834144 186.150203 
L 152.255773 182.100655 
L 153.099032 165.902463 
L 153.520661 165.902463 
L 153.94229 161.852915 
L 154.36392 153.753819 
L 154.785549 165.902463 
L 155.207178 157.803367 
L 155.628808 145.654722 
L 156.050437 145.654722 
L 158.158583 125.406982 
L 158.580213 109.20879 
L 159.423471 101.109694 
L 159.8451 88.96105 
L 160.26673 84.911502 
L 160.688359 88.96105 
L 161.109988 88.96105 
L 161.953247 72.762858 
L 162.374876 68.71331 
L 163.218135 68.71331 
L 163.639764 76.812406 
L 164.061393 80.861954 
L 164.483022 80.861954 
L 164.904652 88.96105 
L 165.326281 93.010598 
L 165.74791 105.159242 
L 166.16954 113.258338 
L 166.591169 105.159242 
L 167.012798 109.20879 
L 167.434427 105.159242 
L 167.856057 113.258338 
L 168.277686 129.45653 
L 169.120945 137.555626 
L 169.964203 137.555626 
L 170.385832 141.605174 
L 170.807462 141.605174 
L 171.229091 149.704271 
L 171.65072 145.654722 
L 172.072349 129.45653 
L 172.493979 141.605174 
L 172.915608 145.654722 
L 173.337237 137.555626 
L 173.758867 133.506078 
L 174.180496 137.555626 
L 174.602125 133.506078 
L 175.023754 141.605174 
L 175.445384 133.506078 
L 176.288642 133.506078 
L 176.710272 129.45653 
L 177.131901 117.307886 
L 177.975159 117.307886 
L 178.396789 113.258338 
L 178.818418 113.258338 
L 179.240047 121.357434 
L 179.661677 121.357434 
L 180.083306 129.45653 
L 180.504935 121.357434 
L 181.348194 121.357434 
L 181.769823 129.45653 
L 182.191452 129.45653 
L 183.034711 121.357434 
L 183.45634 121.357434 
L 184.299599 137.555626 
L 184.721228 153.753819 
L 185.564486 153.753819 
L 185.986116 157.803367 
L 186.407745 165.902463 
L 186.829374 169.952011 
L 187.251004 178.051107 
L 187.672633 169.952011 
L 188.515891 194.249299 
L 188.937521 186.150203 
L 189.35915 186.150203 
L 189.780779 194.249299 
L 190.202409 186.150203 
L 191.888926 186.150203 
L 192.310555 190.199751 
L 192.732184 190.199751 
L 193.153813 194.249299 
L 193.575443 190.199751 
L 193.997072 194.249299 
L 194.840331 186.150203 
L 195.683589 194.249299 
L 196.526848 194.249299 
L 196.948477 198.298847 
L 197.791736 198.298847 
L 198.213365 202.348395 
L 198.634994 210.447491 
L 199.478253 210.447491 
L 199.899882 214.497039 
L 200.321511 222.596135 
L 201.16477 222.596135 
L 201.586399 230.695231 
L 202.008028 230.695231 
L 202.429658 234.744779 
L 202.851287 242.843875 
L 203.694545 250.942972 
L 204.116175 246.893424 
L 204.537804 250.942972 
L 204.959433 250.942972 
L 205.381063 246.893424 
L 205.802692 246.893424 
L 206.224321 250.942972 
L 206.64595 250.942972 
L 207.06758 254.99252 
L 207.489209 263.091616 
L 207.910838 267.141164 
L 208.332468 267.141164 
L 208.754097 271.190712 
L 209.597355 271.190712 
L 210.018985 275.24026 
L 214.235277 275.24026 
L 214.656907 279.289808 
L 215.500165 279.289808 
L 215.921795 283.339356 
L 216.343424 283.339356 
L 216.765053 287.388904 
L 217.608312 287.388904 
L 218.45157 295.488 
L 398.487273 295.488 
L 398.487273 295.488 
" clip-path="url(#pb60783299a)" style="fill: none; stroke-dasharray: 1.85,0.8; stroke-dashoffset: 0; stroke: #8000ff; stroke-width: 0.5"/>
   </g>
   <g id="line2d_17">
    <path d="M 73.832727 295.488 
L 123.584982 295.488 
L 124.006612 291.438452 
L 124.428241 291.438452 
L 124.84987 287.388904 
L 128.644534 287.388904 
L 129.066163 283.339356 
L 129.487792 283.339356 
L 129.909421 279.289808 
L 130.75268 279.289808 
L 131.174309 275.24026 
L 135.390602 275.24026 
L 135.812231 271.190712 
L 136.233861 271.190712 
L 136.65549 275.24026 
L 137.077119 275.24026 
L 137.498749 279.289808 
L 137.920378 279.289808 
L 138.342007 278.884853 
L 139.185266 278.884853 
L 139.606895 278.479898 
L 140.450153 278.479898 
L 140.871783 278.074943 
L 141.293412 278.074943 
L 141.715041 282.124491 
L 142.136671 282.124491 
L 142.5583 286.17404 
L 143.401558 278.074943 
L 143.823188 282.124491 
L 144.244817 282.124491 
L 144.666446 281.314582 
L 145.931334 281.314582 
L 146.352963 277.265034 
L 146.774593 276.860079 
L 147.617851 276.860079 
L 148.039481 272.810531 
L 148.46111 276.455124 
L 148.882739 276.455124 
L 149.304368 272.000621 
L 149.725998 272.000621 
L 150.569256 263.091616 
L 150.990885 259.447022 
L 151.834144 259.447022 
L 152.255773 255.802429 
L 152.677403 255.397474 
L 153.099032 255.397474 
L 153.520661 247.703333 
L 153.94229 243.24883 
L 154.36392 243.24883 
L 154.785549 242.843875 
L 155.207178 238.389373 
L 156.050437 246.083514 
L 156.893695 246.083514 
L 157.315325 242.438921 
L 157.736954 242.033966 
L 158.158583 241.224056 
L 158.580213 241.224056 
L 159.001842 245.273604 
L 159.423471 244.868649 
L 159.8451 244.868649 
L 160.26673 240.819101 
L 160.688359 243.24883 
L 161.953247 231.100186 
L 162.374876 230.695231 
L 162.796505 226.240728 
L 163.218135 229.480367 
L 164.061393 212.06731 
L 164.483022 207.612807 
L 164.904652 206.802898 
L 165.326281 199.108757 
L 165.74791 195.059209 
L 166.16954 194.249299 
L 166.591169 194.249299 
L 167.012798 189.794796 
L 167.434427 189.794796 
L 168.277686 188.984887 
L 168.699315 180.075881 
L 169.120945 178.861016 
L 169.542574 174.811468 
L 169.964203 178.051107 
L 170.807462 178.861016 
L 171.229091 170.356966 
L 171.65072 166.307417 
L 172.072349 166.712372 
L 172.493979 166.307417 
L 172.915608 169.547056 
L 173.337237 171.166875 
L 173.758867 171.166875 
L 174.602125 178.861016 
L 175.023754 178.861016 
L 175.445384 184.125429 
L 175.867013 171.976785 
L 176.288642 184.530384 
L 176.710272 188.579932 
L 177.131901 188.984887 
L 177.55353 189.794796 
L 177.975159 197.893892 
L 178.396789 201.133531 
L 179.240047 209.637582 
L 179.661677 209.637582 
L 180.083306 189.794796 
L 180.504935 190.199751 
L 180.926564 186.555158 
L 181.348194 186.960112 
L 181.769823 187.770022 
L 182.613081 170.356966 
L 183.034711 158.208321 
L 183.45634 157.803367 
L 183.877969 166.307417 
L 184.299599 165.902463 
L 184.721228 153.348864 
L 185.142857 145.249768 
L 187.251004 124.597073 
L 187.672633 125.002027 
L 188.094262 119.737615 
L 188.515891 123.382208 
L 188.937521 115.688067 
L 189.35915 111.233564 
L 189.780779 97.870056 
L 190.202409 97.465101 
L 190.624038 84.506547 
L 191.467296 76.407451 
L 191.888926 71.952948 
L 192.310555 71.547993 
L 192.732184 87.746185 
L 193.575443 95.845282 
L 193.997072 103.944378 
L 194.418701 96.250236 
L 194.840331 109.20879 
L 195.26196 114.473203 
L 196.526848 89.770959 
L 196.948477 89.770959 
L 197.370106 94.225462 
L 197.791736 102.324558 
L 198.213365 102.729513 
L 198.634994 107.184016 
L 199.056623 115.688067 
L 199.478253 111.638519 
L 199.899882 116.093022 
L 200.321511 116.093022 
L 200.74314 125.002027 
L 201.16477 129.861485 
L 201.586399 137.555626 
L 202.008028 141.20022 
L 202.429658 158.613276 
L 202.851287 158.613276 
L 203.272916 163.472734 
L 203.694545 159.423186 
L 204.116175 163.472734 
L 204.537804 164.282643 
L 204.959433 161.043005 
L 205.381063 165.092553 
L 205.802692 165.497508 
L 206.224321 161.043005 
L 206.64595 161.852915 
L 207.06758 165.902463 
L 207.489209 161.043005 
L 207.910838 153.348864 
L 208.332468 170.356966 
L 208.754097 166.307417 
L 209.175726 174.811468 
L 209.597355 174.001559 
L 210.440614 174.811468 
L 210.862243 165.902463 
L 211.283872 165.497508 
L 211.705502 165.497508 
L 212.127131 174.001559 
L 212.54876 177.241197 
L 213.392019 169.547056 
L 213.813648 173.596604 
L 214.235277 166.307417 
L 214.656907 170.76192 
L 215.078536 169.952011 
L 215.921795 177.241197 
L 216.343424 185.745248 
L 217.608312 197.893892 
L 218.029941 197.893892 
L 218.45157 197.488937 
L 218.8732 201.94344 
L 219.294829 201.133531 
L 219.716458 201.133531 
L 220.138087 205.588033 
L 220.559717 217.736678 
L 220.981346 221.381271 
L 221.402975 233.12496 
L 221.824604 233.12496 
L 222.246234 238.389373 
L 222.667863 246.488469 
L 223.089492 246.488469 
L 223.511122 259.447022 
L 223.932751 259.851977 
L 224.776009 259.851977 
L 225.197639 260.661887 
L 226.040897 268.356028 
L 226.462527 268.356028 
L 226.884156 272.405576 
L 227.727414 273.215486 
L 228.149044 269.165938 
L 228.570673 273.620441 
L 228.992302 273.620441 
L 229.835561 274.43035 
L 230.25719 278.479898 
L 230.678819 278.479898 
L 231.100449 278.884853 
L 231.522078 278.884853 
L 231.943707 275.645215 
L 232.365336 279.289808 
L 232.786966 279.289808 
L 233.208595 278.884853 
L 234.051854 279.694763 
L 236.581629 279.694763 
L 237.003259 279.289808 
L 237.846517 279.289808 
L 238.268146 275.645215 
L 239.111405 275.645215 
L 239.533034 279.694763 
L 239.954664 279.694763 
L 240.376293 280.099717 
L 240.797922 280.909627 
L 242.06281 280.909627 
L 242.484439 276.860079 
L 244.170956 276.860079 
L 244.592586 280.909627 
L 245.857473 282.124491 
L 248.387249 282.124491 
L 248.808878 282.529446 
L 249.230508 282.529446 
L 249.652137 282.934401 
L 250.495396 282.934401 
L 250.917025 286.983949 
L 251.338654 286.983949 
L 251.760283 287.388904 
L 253.025171 287.388904 
L 253.4468 291.438452 
L 254.711688 291.438452 
L 255.133318 295.488 
L 398.487273 295.488 
L 398.487273 295.488 
" clip-path="url(#pb60783299a)" style="fill: none; stroke-dasharray: 1.85,0.8; stroke-dashoffset: 0; stroke: #00b5eb; stroke-width: 0.5"/>
   </g>
   <g id="line2d_18">
    <path d="M 73.832727 295.488 
L 123.584982 295.488 
L 124.006612 291.438452 
L 124.428241 291.438452 
L 124.84987 287.388904 
L 128.644534 287.388904 
L 129.066163 283.339356 
L 129.487792 283.339356 
L 129.909421 279.289808 
L 130.75268 279.289808 
L 131.174309 275.24026 
L 135.390602 275.24026 
L 135.812231 271.190712 
L 136.233861 271.190712 
L 136.65549 275.24026 
L 137.077119 275.159269 
L 137.498749 279.208817 
L 137.920378 279.208817 
L 138.342007 278.803862 
L 139.185266 278.803862 
L 139.606895 278.317916 
L 141.293412 278.317916 
L 141.715041 281.96251 
L 142.136671 281.96251 
L 142.5583 286.012058 
L 143.401558 286.012058 
L 143.823188 290.061606 
L 144.666446 289.980615 
L 145.509705 289.980615 
L 145.931334 285.931067 
L 146.352963 285.931067 
L 146.774593 281.881519 
L 148.039481 281.881519 
L 148.46111 285.931067 
L 148.882739 285.121157 
L 150.569256 285.202148 
L 150.990885 285.607103 
L 151.834144 285.607103 
L 152.255773 286.093049 
L 153.94229 286.012058 
L 154.36392 286.417012 
L 154.785549 282.286473 
L 155.207178 282.205482 
L 155.628808 281.800528 
L 156.472066 281.800528 
L 156.893695 277.831971 
L 157.315325 277.831971 
L 157.736954 277.427016 
L 158.158583 277.427016 
L 158.580213 280.990618 
L 159.001842 276.94107 
L 159.423471 280.990618 
L 159.8451 272.891522 
L 160.688359 272.810531 
L 161.109988 267.870082 
L 161.531617 264.549453 
L 161.953247 263.739543 
L 162.374876 255.235492 
L 163.218135 255.154502 
L 163.639764 254.749547 
L 164.061393 250.295044 
L 164.483022 241.710002 
L 165.326281 241.629011 
L 165.74791 241.143065 
L 166.16954 237.093517 
L 166.591169 236.364599 
L 167.434427 236.44559 
L 167.856057 236.121626 
L 168.699315 226.159738 
L 169.120945 217.493705 
L 169.542574 221.462262 
L 169.964203 221.462262 
L 170.385832 221.867217 
L 170.807462 221.462262 
L 171.229091 221.948208 
L 171.65072 225.997756 
L 172.072349 225.916765 
L 172.493979 233.610906 
L 172.915608 233.205951 
L 173.337237 227.860548 
L 173.758867 227.941539 
L 174.180496 227.050638 
L 174.602125 226.969647 
L 175.023754 231.019195 
L 175.445384 226.483701 
L 175.867013 225.268837 
L 176.288642 225.025864 
L 177.131901 216.521813 
L 177.55353 215.630913 
L 177.975159 206.640916 
L 178.396789 202.915332 
L 178.818418 206.478934 
L 179.240047 202.267404 
L 179.661677 193.682362 
L 180.083306 193.115426 
L 180.504935 180.075881 
L 180.926564 175.702369 
L 181.348194 174.163541 
L 181.769823 177.889125 
L 182.191452 168.494173 
L 183.034711 142.415084 
L 183.877969 133.344096 
L 184.299599 133.263105 
L 184.721228 123.54419 
L 185.564486 115.93104 
L 185.986116 120.871488 
L 186.407745 120.790497 
L 186.829374 121.276443 
L 187.251004 118.117796 
L 187.672633 122.491308 
L 188.094262 118.44176 
L 188.515891 103.134468 
L 188.937521 94.468435 
L 189.35915 98.436992 
L 189.780779 107.022034 
L 190.202409 103.701405 
L 190.624038 104.10636 
L 191.045667 107.912935 
L 191.467296 107.831944 
L 191.888926 112.205456 
L 192.310555 120.385543 
L 192.732184 120.871488 
L 193.153813 129.294548 
L 193.575443 134.47797 
L 193.997072 132.77716 
L 194.418701 129.618512 
L 194.840331 130.590404 
L 195.683589 155.53562 
L 196.105218 156.42652 
L 196.526848 156.102556 
L 196.948477 139.5804 
L 197.370106 141.119229 
L 197.791736 144.439858 
L 198.213365 140.147337 
L 198.634994 126.783829 
L 199.056623 123.220226 
L 199.899882 112.934374 
L 200.321511 112.772392 
L 200.74314 120.952479 
L 201.16477 136.664726 
L 202.008028 146.221659 
L 202.851287 153.348864 
L 203.272916 149.866252 
L 203.694545 142.09112 
L 204.537804 134.720943 
L 204.959433 134.963916 
L 205.381063 139.013464 
L 205.802692 135.449861 
L 206.224321 126.945811 
L 206.64595 122.572299 
L 207.489209 139.175446 
L 207.910838 139.418418 
L 208.332468 140.147337 
L 208.754097 131.400313 
L 209.175726 128.079684 
L 209.597355 139.742382 
L 210.018985 147.598506 
L 210.440614 144.439858 
L 210.862243 143.953912 
L 211.705502 153.672828 
L 212.54876 155.53562 
L 212.97039 151.32409 
L 213.392019 139.499409 
L 214.235277 130.671395 
L 214.656907 126.216892 
L 215.078536 118.117796 
L 215.500165 119.089687 
L 215.921795 130.833377 
L 216.343424 139.013464 
L 216.765053 139.013464 
L 217.186682 143.386976 
L 217.608312 143.548957 
L 218.029941 135.530852 
L 218.45157 139.5804 
L 219.294829 165.092553 
L 219.716458 165.011562 
L 220.138087 160.962014 
L 220.559717 148.489406 
L 220.981346 148.570397 
L 221.402975 161.285978 
L 221.824604 169.466065 
L 222.246234 174.406514 
L 222.667863 174.730477 
L 223.089492 174.649486 
L 223.511122 179.589935 
L 223.932751 188.012995 
L 224.776009 196.679028 
L 225.197639 204.778124 
L 225.619268 209.232627 
L 226.040897 221.462262 
L 226.462527 222.272171 
L 226.884156 231.262168 
L 227.305785 235.392707 
L 227.727414 243.977749 
L 228.149044 243.977749 
L 228.570673 240.171174 
L 228.992302 240.090183 
L 229.835561 231.910096 
L 230.25719 231.829105 
L 230.678819 239.928201 
L 231.100449 232.315051 
L 231.522078 232.477032 
L 231.943707 232.23406 
L 232.365336 232.23406 
L 232.786966 236.121626 
L 233.208595 248.27027 
L 233.630224 248.27027 
L 234.051854 244.220722 
L 234.473483 243.734776 
L 234.895112 243.572794 
L 235.316741 239.604237 
L 236.16 246.893424 
L 237.003259 246.974414 
L 237.424888 247.136396 
L 237.846517 242.681894 
L 238.689776 242.600903 
L 239.111405 246.56946 
L 239.533034 242.114957 
L 239.954664 242.519912 
L 240.376293 242.519912 
L 240.797922 242.033966 
L 241.219551 242.114957 
L 241.641181 241.871984 
L 242.484439 250.052071 
L 242.906068 250.133062 
L 243.327698 246.002523 
L 243.749327 254.020628 
L 244.170956 249.566125 
L 244.592586 249.242161 
L 245.435844 249.404143 
L 245.857473 249.809098 
L 246.279103 249.809098 
L 246.700732 253.858646 
L 247.122361 254.344592 
L 247.543991 254.425583 
L 247.96562 258.475131 
L 248.387249 259.285041 
L 249.652137 259.447022 
L 250.495396 268.032064 
L 251.760283 268.275037 
L 252.181913 272.72954 
L 253.025171 272.72954 
L 253.4468 273.296477 
L 253.86843 277.427016 
L 254.290059 277.669989 
L 254.711688 281.800528 
L 255.554947 281.881519 
L 256.819835 294.597099 
L 257.241464 295.164036 
L 258.927981 295.245027 
L 260.192869 295.407009 
L 398.487273 295.488 
L 398.487273 295.488 
" clip-path="url(#pb60783299a)" style="fill: none; stroke-dasharray: 1.85,0.8; stroke-dashoffset: 0; stroke: #80ffb4; stroke-width: 0.5"/>
   </g>
   <g id="line2d_19">
    <path d="M 73.832727 295.488 
L 123.584982 295.488 
L 124.006612 291.438452 
L 124.428241 291.438452 
L 124.84987 287.388904 
L 128.644534 287.388904 
L 129.066163 283.339356 
L 129.487792 283.339356 
L 129.909421 279.289808 
L 130.75268 279.289808 
L 131.174309 275.24026 
L 135.390602 275.24026 
L 135.812231 271.190712 
L 136.233861 271.190712 
L 136.65549 275.24026 
L 137.077119 275.159269 
L 137.498749 279.208817 
L 137.920378 279.208817 
L 138.342007 278.803862 
L 139.185266 278.803862 
L 139.606895 278.317916 
L 141.293412 278.277421 
L 141.715041 281.922014 
L 142.136671 281.922014 
L 142.5583 285.971562 
L 143.401558 285.971562 
L 143.823188 290.02111 
L 144.666446 289.940119 
L 145.509705 289.940119 
L 145.931334 285.890571 
L 146.352963 285.890571 
L 146.774593 281.841023 
L 148.039481 281.841023 
L 148.46111 285.890571 
L 148.882739 285.040166 
L 150.569256 285.121157 
L 150.990885 285.526112 
L 151.834144 285.526112 
L 152.255773 286.012058 
L 153.94229 286.052553 
L 154.36392 286.376517 
L 154.785549 286.376517 
L 155.207178 282.245978 
L 156.472066 282.164987 
L 156.893695 281.841023 
L 158.158583 281.841023 
L 158.580213 285.890571 
L 159.001842 285.890571 
L 159.423471 289.940119 
L 161.109988 289.859128 
L 161.531617 290.709533 
L 161.953247 286.659985 
L 162.374876 286.659985 
L 162.796505 282.610437 
L 163.639764 282.529446 
L 164.061393 278.074943 
L 164.483022 277.224538 
L 164.904652 273.17499 
L 165.326281 273.17499 
L 165.74791 272.770035 
L 166.16954 268.315533 
L 166.591169 268.315533 
L 167.434427 251.712386 
L 167.856057 255.842925 
L 168.699315 255.680943 
L 169.120945 254.830538 
L 169.542574 250.699999 
L 170.385832 250.699999 
L 170.807462 246.609955 
L 171.229091 245.800046 
L 171.65072 244.666172 
L 172.072349 244.50419 
L 172.493979 243.694281 
L 173.337237 243.653785 
L 174.180496 234.218338 
L 174.602125 237.862931 
L 175.023754 233.327438 
L 175.445384 236.44559 
L 175.867013 231.991087 
L 176.288642 219.437488 
L 176.710272 223.811 
L 177.131901 220.571361 
L 177.55353 220.530866 
L 177.975159 220.004425 
L 178.396789 220.368884 
L 178.818418 224.25645 
L 179.240047 222.960595 
L 179.661677 222.029199 
L 180.083306 224.377936 
L 180.504935 223.891991 
L 180.926564 223.00109 
L 181.348194 217.777173 
L 181.769823 214.294562 
L 182.191452 202.064927 
L 182.613081 196.638532 
L 183.034711 188.458445 
L 183.45634 187.081599 
L 183.877969 182.95106 
L 184.721228 167.238814 
L 185.142857 149.339811 
L 185.564486 139.053959 
L 185.986116 125.123514 
L 186.407745 125.083018 
L 186.829374 124.637568 
L 187.251004 115.202121 
L 188.094262 107.386493 
L 188.515891 107.265007 
L 188.937521 114.027752 
L 189.35915 109.573249 
L 189.780779 112.569915 
L 190.202409 108.155908 
L 190.624038 99.854334 
L 191.045667 74.747136 
L 191.467296 70.292633 
L 191.888926 58.791917 
L 192.310555 67.133986 
L 192.732184 72.56038 
L 193.153813 60.29025 
L 193.575443 56.200206 
L 193.997072 57.374575 
L 194.418701 53.568 
L 194.840331 69.685201 
L 195.26196 70.616597 
L 195.683589 74.706641 
L 196.105218 80.011549 
L 196.526848 80.335513 
L 197.370106 96.371723 
L 197.791736 110.180682 
L 198.213365 115.971535 
L 198.634994 125.164009 
L 199.056623 113.096356 
L 199.478253 118.320273 
L 199.899882 119.575633 
L 201.16477 132.77716 
L 201.586399 130.549908 
L 202.008028 134.599456 
L 202.429658 119.413651 
L 202.851287 114.473203 
L 203.272916 119.251669 
L 203.694545 135.895312 
L 204.116175 136.381257 
L 204.537804 148.36792 
L 204.959433 148.043956 
L 205.381063 144.520849 
L 205.802692 152.295981 
L 206.224321 152.093504 
L 206.64595 155.252151 
L 207.06758 154.72571 
L 207.489209 142.617561 
L 207.910838 134.801934 
L 208.332468 138.284545 
L 208.754097 138.406031 
L 209.175726 142.982021 
L 209.597355 142.982021 
L 210.018985 143.670444 
L 210.440614 147.598506 
L 210.862243 139.863869 
L 211.283872 136.502744 
L 211.705502 144.480354 
L 212.127131 143.710939 
L 212.54876 152.255486 
L 212.97039 147.841478 
L 213.392019 140.066346 
L 213.813648 135.652339 
L 214.235277 139.661391 
L 214.656907 136.057294 
L 215.500165 156.305034 
L 215.921795 155.778593 
L 216.765053 164.687598 
L 217.186682 165.416517 
L 217.608312 158.329808 
L 218.029941 162.622329 
L 218.8732 155.616611 
L 219.294829 156.183547 
L 219.716458 160.719041 
L 220.138087 168.858633 
L 220.981346 161.043005 
L 221.402975 160.962014 
L 221.824604 156.467016 
L 222.246234 156.42652 
L 222.667863 152.093504 
L 223.089492 152.943909 
L 223.511122 160.63805 
L 224.35438 168.980119 
L 224.776009 169.790029 
L 225.197639 165.699985 
L 225.619268 173.920568 
L 226.040897 177.727143 
L 226.462527 177.970116 
L 226.884156 173.880072 
L 228.149044 186.71714 
L 228.570673 186.636149 
L 228.992302 185.826239 
L 229.413932 185.704753 
L 229.835561 177.281693 
L 230.25719 185.178311 
L 230.678819 180.764304 
L 231.100449 180.642818 
L 231.522078 184.813852 
L 231.943707 181.088268 
L 232.365336 172.908181 
L 232.786966 172.46273 
L 233.208595 188.174977 
L 233.630224 192.305516 
L 234.051854 188.336959 
L 234.473483 188.336959 
L 234.895112 183.234528 
L 235.316741 187.527049 
L 235.738371 187.567545 
L 236.16 187.16259 
L 237.003259 195.059209 
L 237.424888 195.059209 
L 237.846517 199.189748 
L 238.268146 199.554207 
L 239.111405 207.653303 
L 239.533034 215.83339 
L 239.954664 215.792895 
L 240.376293 215.954876 
L 240.797922 216.359831 
L 241.641181 225.471314 
L 242.06281 225.633296 
L 242.484439 234.137347 
L 242.906068 234.218338 
L 243.327698 238.186895 
L 243.749327 246.933919 
L 244.592586 255.559456 
L 245.014215 266.979182 
L 245.435844 271.91963 
L 245.857473 272.365081 
L 246.279103 272.365081 
L 247.122361 280.261699 
L 247.543991 285.445121 
L 247.96562 285.607103 
L 248.387249 285.202148 
L 248.808878 290.102101 
L 249.230508 290.507056 
L 250.495396 290.588047 
L 250.917025 290.628542 
L 251.338654 291.073993 
L 251.760283 291.033497 
L 252.181913 290.547551 
L 252.603542 290.669038 
L 253.86843 290.628542 
L 254.290059 291.073993 
L 255.133318 290.952506 
L 255.554947 291.073993 
L 255.976576 291.519443 
L 257.241464 291.478947 
L 257.663093 292.329353 
L 258.506352 292.450839 
L 258.927981 292.855794 
L 259.34961 293.42273 
L 260.192869 293.665703 
L 260.614498 293.706199 
L 261.036128 294.192145 
L 261.879386 294.313631 
L 262.722645 294.475613 
L 264.409162 294.556604 
L 264.830791 295.04255 
L 265.67405 295.002054 
L 266.095679 295.123541 
L 268.203825 295.204532 
L 270.733601 295.366514 
L 281.274333 295.447505 
L 282.539221 295.488 
L 398.487273 295.488 
L 398.487273 295.488 
" clip-path="url(#pb60783299a)" style="fill: none; stroke-dasharray: 1.85,0.8; stroke-dashoffset: 0; stroke: #ffb360; stroke-width: 0.5"/>
   </g>
   <g id="line2d_20">
    <path d="M 73.832727 295.488 
L 123.584982 295.488 
L 124.006612 291.438452 
L 124.428241 291.438452 
L 124.84987 287.388904 
L 128.644534 287.388904 
L 129.066163 283.339356 
L 129.487792 283.339356 
L 129.909421 279.289808 
L 130.75268 279.289808 
L 131.174309 275.24026 
L 135.390602 275.24026 
L 135.812231 271.190712 
L 136.233861 271.190712 
L 136.65549 275.24026 
L 137.077119 275.159269 
L 137.498749 279.208817 
L 137.920378 279.208817 
L 138.342007 278.803862 
L 139.185266 278.803862 
L 139.606895 278.317916 
L 141.293412 278.277421 
L 141.715041 281.922014 
L 142.136671 281.922014 
L 142.5583 285.971562 
L 143.401558 285.971562 
L 143.823188 290.02111 
L 144.666446 289.940119 
L 145.509705 289.940119 
L 145.931334 285.890571 
L 146.352963 285.890571 
L 146.774593 281.820775 
L 148.039481 281.820775 
L 148.46111 285.870323 
L 148.882739 285.019918 
L 150.569256 285.100909 
L 150.990885 285.505864 
L 151.834144 285.505864 
L 152.255773 285.99181 
L 153.94229 286.032305 
L 154.36392 286.356269 
L 154.785549 286.356269 
L 155.207178 282.22573 
L 156.472066 282.144739 
L 156.893695 281.820775 
L 158.158583 281.800528 
L 158.580213 285.850076 
L 159.001842 285.850076 
L 159.423471 289.919871 
L 161.109988 289.919871 
L 161.531617 290.770277 
L 164.061393 290.689286 
L 164.483022 286.639738 
L 165.74791 286.639738 
L 166.16954 282.590189 
L 166.591169 282.185235 
L 167.434427 282.266226 
L 167.856057 286.396765 
L 168.277686 285.890571 
L 169.120945 277.852218 
L 169.542574 277.406768 
L 169.964203 273.35722 
L 170.385832 273.35722 
L 170.807462 269.307672 
L 171.65072 269.307672 
L 172.072349 268.821726 
L 172.493979 268.821726 
L 173.337237 251.22644 
L 174.602125 251.185944 
L 175.023754 246.650451 
L 175.867013 246.690946 
L 176.288642 246.508716 
L 176.710272 246.488469 
L 177.131901 250.133062 
L 177.975159 250.072319 
L 178.396789 245.212861 
L 178.818418 248.857454 
L 179.240047 249.262409 
L 179.661677 245.13187 
L 180.083306 244.281465 
L 180.504935 239.786467 
L 180.926564 227.597327 
L 181.769823 235.19023 
L 182.191452 235.595184 
L 182.613081 238.976557 
L 183.034711 238.875318 
L 183.45634 242.904619 
L 183.877969 242.864123 
L 184.299599 242.459168 
L 185.142857 242.479416 
L 185.986116 259.528013 
L 186.407745 250.41653 
L 186.829374 249.545877 
L 187.672633 248.594234 
L 188.094262 247.683085 
L 188.515891 247.318626 
L 188.937521 243.410812 
L 189.35915 242.98561 
L 189.780779 238.753832 
L 190.202409 237.842684 
L 190.624038 237.680702 
L 191.045667 238.024913 
L 191.467296 233.813383 
L 191.888926 220.753591 
L 192.310555 224.07422 
L 193.153813 216.299088 
L 193.575443 228.609714 
L 193.997072 224.560166 
L 194.418701 223.993229 
L 195.26196 215.165215 
L 195.683589 207.147109 
L 196.105218 206.883889 
L 196.526848 198.784793 
L 196.948477 198.784793 
L 197.370106 191.050156 
L 197.791736 191.070404 
L 198.213365 182.14115 
L 198.634994 177.990364 
L 199.056623 181.371736 
L 199.478253 176.573022 
L 199.899882 168.413182 
L 200.321511 168.473926 
L 200.74314 164.748341 
L 201.16477 164.282643 
L 201.586399 168.271448 
L 202.008028 158.876497 
L 202.429658 158.471542 
L 202.851287 150.817896 
L 203.272916 146.363393 
L 203.694545 145.816704 
L 204.116175 140.957247 
L 204.537804 153.591837 
L 204.959433 153.83481 
L 205.381063 157.68188 
L 205.802692 157.540146 
L 206.224321 153.450102 
L 206.64595 153.004652 
L 207.06758 145.816704 
L 207.489209 141.564679 
L 207.910838 142.475827 
L 208.332468 146.525375 
L 208.754097 142.111368 
L 209.175726 141.746909 
L 209.597355 137.960581 
L 210.018985 146.12042 
L 210.440614 142.030377 
L 210.862243 146.910082 
L 211.283872 146.768348 
L 212.127131 157.276925 
L 212.54876 165.841719 
L 212.97039 170.782168 
L 213.392019 170.883407 
L 213.813648 171.268114 
L 214.235277 170.883407 
L 214.656907 180.298606 
L 215.078536 180.379597 
L 215.500165 188.984887 
L 215.921795 188.741914 
L 216.765053 198.440581 
L 217.186682 198.562068 
L 217.608312 199.068261 
L 218.029941 195.1402 
L 218.45157 199.61495 
L 218.8732 195.545154 
L 219.294829 187.425811 
L 219.716458 183.39651 
L 220.559717 192.366259 
L 221.402975 200.445107 
L 221.824604 204.697133 
L 222.246234 203.947967 
L 222.667863 183.13329 
L 223.089492 187.122094 
L 223.511122 178.719282 
L 223.932751 174.730477 
L 224.35438 166.975593 
L 224.776009 166.935097 
L 225.619268 158.795506 
L 226.040897 163.310752 
L 226.884156 164.161157 
L 227.305785 160.455821 
L 227.727414 165.315278 
L 228.149044 156.345529 
L 228.570673 160.253343 
L 229.413932 152.457963 
L 229.835561 144.581592 
L 230.678819 136.705221 
L 231.100449 136.684974 
L 231.522078 143.994408 
L 232.365336 168.43343 
L 232.786966 171.855298 
L 233.208595 167.724759 
L 233.630224 159.200461 
L 234.051854 158.977736 
L 234.895112 158.896745 
L 235.316741 175.439148 
L 235.738371 175.135432 
L 236.16 187.871261 
L 236.581629 183.538244 
L 237.003259 191.313377 
L 237.846517 182.282884 
L 238.268146 182.242389 
L 238.689776 182.060159 
L 239.111405 173.961063 
L 239.533034 173.981311 
L 239.954664 173.515613 
L 240.376293 168.61566 
L 240.797922 173.110658 
L 241.219551 173.576356 
L 241.641181 165.396269 
L 242.06281 173.475118 
L 243.327698 184.773357 
L 243.749327 184.894843 
L 244.170956 181.553966 
L 244.592586 177.099463 
L 245.014215 177.362684 
L 245.435844 178.071355 
L 245.857473 178.233336 
L 246.279103 186.656396 
L 246.700732 187.020856 
L 247.96562 200.445107 
L 248.387249 200.850062 
L 248.808878 201.072787 
L 249.230508 213.68713 
L 249.652137 214.517287 
L 250.073766 218.587083 
L 250.495396 227.637823 
L 250.917025 227.759309 
L 251.338654 223.871743 
L 251.760283 227.8403 
L 252.181913 227.374602 
L 253.4468 241.325295 
L 253.86843 237.721197 
L 254.290059 245.881036 
L 254.711688 242.236443 
L 255.133318 246.873176 
L 255.554947 247.379369 
L 255.976576 251.611147 
L 256.398205 251.692138 
L 257.241464 260.682135 
L 258.084723 260.965603 
L 258.506352 260.844117 
L 258.927981 249.201666 
L 259.34961 249.242161 
L 259.77124 249.16117 
L 260.192869 249.201666 
L 260.614498 245.091375 
L 261.036128 244.828154 
L 261.879386 244.68642 
L 262.301015 244.261217 
L 263.565903 244.220722 
L 264.409162 251.975606 
L 264.830791 252.421057 
L 265.25242 248.371509 
L 265.67405 248.351261 
L 266.095679 247.622342 
L 267.360567 259.791234 
L 267.782196 255.741686 
L 268.203825 255.336731 
L 268.625455 251.266935 
L 269.047084 255.235492 
L 269.468713 255.235492 
L 270.311972 247.19714 
L 270.733601 246.690946 
L 271.15523 250.760742 
L 271.57686 262.929634 
L 271.998489 262.484183 
L 272.420118 258.434635 
L 273.263377 258.313149 
L 273.685006 258.57637 
L 274.528264 258.758599 
L 274.949894 259.20405 
L 275.371523 251.084706 
L 275.793152 251.084706 
L 276.214782 250.315292 
L 276.636411 250.173557 
L 277.05804 250.578512 
L 277.479669 250.254548 
L 277.901299 254.304096 
L 278.322928 254.324344 
L 278.744557 254.749547 
L 279.587816 254.830538 
L 280.009445 250.760742 
L 280.431074 254.385087 
L 281.274333 253.656169 
L 282.117591 253.696664 
L 282.96085 261.836256 
L 283.382479 262.342449 
L 284.225738 262.484183 
L 284.647367 262.970129 
L 285.068996 267.100668 
L 285.490626 267.222155 
L 285.912255 271.433685 
L 287.598772 271.433685 
L 288.020401 279.613772 
L 288.442031 279.654267 
L 288.86366 284.513725 
L 289.706919 284.756698 
L 290.128548 285.161652 
L 290.971806 285.1819 
L 291.393436 285.607103 
L 292.236694 285.647598 
L 292.658323 289.737642 
L 293.079953 290.162844 
L 293.501582 290.972754 
L 293.923211 295.447505 
L 295.188099 295.488 
L 398.487273 295.488 
L 398.487273 295.488 
" clip-path="url(#pb60783299a)" style="fill: none; stroke-dasharray: 1.85,0.8; stroke-dashoffset: 0; stroke: #ff0000; stroke-width: 0.5"/>
   </g>
   <g id="patch_3">
    <path d="M 57.6 307.584 
L 57.6 41.472 
" style="fill: none; stroke: #000000; stroke-width: 0.8; stroke-linejoin: miter; stroke-linecap: square"/>
   </g>
   <g id="patch_4">
    <path d="M 414.72 307.584 
L 414.72 41.472 
" style="fill: none; stroke: #000000; stroke-width: 0.8; stroke-linejoin: miter; stroke-linecap: square"/>
   </g>
   <g id="patch_5">
    <path d="M 57.6 307.584 
L 414.72 307.584 
" style="fill: none; stroke: #000000; stroke-width: 0.8; stroke-linejoin: miter; stroke-linecap: square"/>
   </g>
   <g id="patch_6">
    <path d="M 57.6 41.472 
L 414.72 41.472 
" style="fill: none; stroke: #000000; stroke-width: 0.8; stroke-linejoin: miter; stroke-linecap: square"/>
   </g>
   <g id="text_18">
    <!-- Heating Rate ($^{\circ}C.s^{-1}$) -->
    <g transform="translate(271.872 68.0832) scale(0.12 -0.12)">
     <defs>
      <path id="DejaVuSans-48" d="M 628 4666 
L 1259 4666 
L 1259 2753 
L 3553 2753 
L 3553 4666 
L 4184 4666 
L 4184 0 
L 3553 0 
L 3553 2222 
L 1259 2222 
L 1259 0 
L 628 0 
L 628 4666 
z
" transform="scale(0.015625)"/>
      <path id="DejaVuSans-67" d="M 2906 1791 
Q 2906 2416 2648 2759 
Q 2391 3103 1925 3103 
Q 1463 3103 1205 2759 
Q 947 2416 947 1791 
Q 947 1169 1205 825 
Q 1463 481 1925 481 
Q 2391 481 2648 825 
Q 2906 1169 2906 1791 
z
M 3481 434 
Q 3481 -459 3084 -895 
Q 2688 -1331 1869 -1331 
Q 1566 -1331 1297 -1286 
Q 1028 -1241 775 -1147 
L 775 -588 
Q 1028 -725 1275 -790 
Q 1522 -856 1778 -856 
Q 2344 -856 2625 -561 
Q 2906 -266 2906 331 
L 2906 616 
Q 2728 306 2450 153 
Q 2172 0 1784 0 
Q 1141 0 747 490 
Q 353 981 353 1791 
Q 353 2603 747 3093 
Q 1141 3584 1784 3584 
Q 2172 3584 2450 3431 
Q 2728 3278 2906 2969 
L 2906 3500 
L 3481 3500 
L 3481 434 
z
" transform="scale(0.015625)"/>
      <path id="DejaVuSans-52" d="M 2841 2188 
Q 3044 2119 3236 1894 
Q 3428 1669 3622 1275 
L 4263 0 
L 3584 0 
L 2988 1197 
Q 2756 1666 2539 1819 
Q 2322 1972 1947 1972 
L 1259 1972 
L 1259 0 
L 628 0 
L 628 4666 
L 2053 4666 
Q 2853 4666 3247 4331 
Q 3641 3997 3641 3322 
Q 3641 2881 3436 2590 
Q 3231 2300 2841 2188 
z
M 1259 4147 
L 1259 2491 
L 2053 2491 
Q 2509 2491 2742 2702 
Q 2975 2913 2975 3322 
Q 2975 3731 2742 3939 
Q 2509 4147 2053 4147 
L 1259 4147 
z
" transform="scale(0.015625)"/>
      <path id="DejaVuSans-2e" d="M 684 794 
L 1344 794 
L 1344 0 
L 684 0 
L 684 794 
z
" transform="scale(0.015625)"/>
      <path id="DejaVuSans-Oblique-73" d="M 3200 3397 
L 3091 2853 
Q 2863 2978 2609 3040 
Q 2356 3103 2088 3103 
Q 1634 3103 1373 2948 
Q 1113 2794 1113 2528 
Q 1113 2219 1719 2053 
Q 1766 2041 1788 2034 
L 1972 1978 
Q 2547 1819 2739 1644 
Q 2931 1469 2931 1166 
Q 2931 609 2489 259 
Q 2047 -91 1331 -91 
Q 1053 -91 747 -37 
Q 441 16 72 128 
L 184 722 
Q 500 559 806 475 
Q 1113 391 1394 391 
Q 1816 391 2080 572 
Q 2344 753 2344 1031 
Q 2344 1331 1650 1516 
L 1591 1531 
L 1394 1581 
Q 956 1697 753 1886 
Q 550 2075 550 2369 
Q 550 2928 970 3256 
Q 1391 3584 2113 3584 
Q 2397 3584 2667 3537 
Q 2938 3491 3200 3397 
z
" transform="scale(0.015625)"/>
     </defs>
     <use xlink:href="#DejaVuSans-48" transform="translate(0 0.684375)"/>
     <use xlink:href="#DejaVuSans-65" transform="translate(75.195312 0.684375)"/>
     <use xlink:href="#DejaVuSans-61" transform="translate(136.71875 0.684375)"/>
     <use xlink:href="#DejaVuSans-74" transform="translate(197.998047 0.684375)"/>
     <use xlink:href="#DejaVuSans-69" transform="translate(237.207031 0.684375)"/>
     <use xlink:href="#DejaVuSans-6e" transform="translate(264.990234 0.684375)"/>
     <use xlink:href="#DejaVuSans-67" transform="translate(328.369141 0.684375)"/>
     <use xlink:href="#DejaVuSans-20" transform="translate(391.845703 0.684375)"/>
     <use xlink:href="#DejaVuSans-52" transform="translate(423.632812 0.684375)"/>
     <use xlink:href="#DejaVuSans-61" transform="translate(493.115234 0.684375)"/>
     <use xlink:href="#DejaVuSans-74" transform="translate(554.394531 0.684375)"/>
     <use xlink:href="#DejaVuSans-65" transform="translate(593.603516 0.684375)"/>
     <use xlink:href="#DejaVuSans-20" transform="translate(655.126953 0.684375)"/>
     <use xlink:href="#DejaVuSans-28" transform="translate(686.914062 0.684375)"/>
     <use xlink:href="#DejaVuSans-2218" transform="translate(726.884766 38.965625) scale(0.7)"/>
     <use xlink:href="#DejaVuSans-Oblique-43" transform="translate(773.4375 0.684375)"/>
     <use xlink:href="#DejaVuSans-2e" transform="translate(843.261719 0.684375)"/>
     <use xlink:href="#DejaVuSans-Oblique-73" transform="translate(894.53125 0.684375)"/>
     <use xlink:href="#DejaVuSans-2212" transform="translate(951.280755 38.965625) scale(0.7)"/>
     <use xlink:href="#DejaVuSans-31" transform="translate(1009.933099 38.965625) scale(0.7)"/>
     <use xlink:href="#DejaVuSans-29" transform="translate(1057.203607 0.684375)"/>
    </g>
   </g>
   <g id="legend_1">
    <g id="patch_7">
     <path d="M 314.584 149.473825 
L 362.487125 149.473825 
Q 364.487125 149.473825 364.487125 147.473825 
L 364.487125 75.0832 
Q 364.487125 73.0832 362.487125 73.0832 
L 314.584 73.0832 
Q 312.584 73.0832 312.584 75.0832 
L 312.584 147.473825 
Q 312.584 149.473825 314.584 149.473825 
z
" style="fill: #ffffff; opacity: 0.8; stroke: #cccccc; stroke-linejoin: miter"/>
    </g>
    <g id="line2d_21">
     <path d="M 316.584 81.181637 
L 326.584 81.181637 
L 336.584 81.181637 
" style="fill: none; stroke-dasharray: 1.85,0.8; stroke-dashoffset: 0; stroke: #8000ff; stroke-width: 0.5"/>
    </g>
    <g id="text_19">
     <!-- 0.1 -->
     <g transform="translate(344.584 84.681637) scale(0.1 -0.1)">
      <use xlink:href="#DejaVuSans-30"/>
      <use xlink:href="#DejaVuSans-2e" transform="translate(63.623047 0)"/>
      <use xlink:href="#DejaVuSans-31" transform="translate(95.410156 0)"/>
     </g>
    </g>
    <g id="line2d_22">
     <path d="M 316.584 95.859762 
L 326.584 95.859762 
L 336.584 95.859762 
" style="fill: none; stroke-dasharray: 1.85,0.8; stroke-dashoffset: 0; stroke: #00b5eb; stroke-width: 0.5"/>
    </g>
    <g id="text_20">
     <!-- 1 -->
     <g transform="translate(344.584 99.359762) scale(0.1 -0.1)">
      <use xlink:href="#DejaVuSans-31"/>
     </g>
    </g>
    <g id="line2d_23">
     <path d="M 316.584 110.537887 
L 326.584 110.537887 
L 336.584 110.537887 
" style="fill: none; stroke-dasharray: 1.85,0.8; stroke-dashoffset: 0; stroke: #80ffb4; stroke-width: 0.5"/>
    </g>
    <g id="text_21">
     <!-- 5 -->
     <g transform="translate(344.584 114.037887) scale(0.1 -0.1)">
      <use xlink:href="#DejaVuSans-35"/>
     </g>
    </g>
    <g id="line2d_24">
     <path d="M 316.584 125.216012 
L 326.584 125.216012 
L 336.584 125.216012 
" style="fill: none; stroke-dasharray: 1.85,0.8; stroke-dashoffset: 0; stroke: #ffb360; stroke-width: 0.5"/>
    </g>
    <g id="text_22">
     <!-- 10 -->
     <g transform="translate(344.584 128.716012) scale(0.1 -0.1)">
      <use xlink:href="#DejaVuSans-31"/>
      <use xlink:href="#DejaVuSans-30" transform="translate(63.623047 0)"/>
     </g>
    </g>
    <g id="line2d_25">
     <path d="M 316.584 139.894137 
L 326.584 139.894137 
L 336.584 139.894137 
" style="fill: none; stroke-dasharray: 1.85,0.8; stroke-dashoffset: 0; stroke: #ff0000; stroke-width: 0.5"/>
    </g>
    <g id="text_23">
     <!-- 20 -->
     <g transform="translate(344.584 143.394137) scale(0.1 -0.1)">
      <use xlink:href="#DejaVuSans-32"/>
      <use xlink:href="#DejaVuSans-30" transform="translate(63.623047 0)"/>
     </g>
    </g>
   </g>
  </g>
 </g>
 <defs>
  <clipPath id="pb60783299a">
   <rect x="57.6" y="41.472" width="357.12" height="266.112"/>
  </clipPath>
 </defs>
</svg>
