<?xml version="1.0" encoding="utf-8" standalone="no"?>
<!DOCTYPE svg PUBLIC "-//W3C//DTD SVG 1.1//EN"
  "http://www.w3.org/Graphics/SVG/1.1/DTD/svg11.dtd">
<svg xmlns:xlink="http://www.w3.org/1999/xlink" width="460.8pt" height="345.6pt" viewBox="0 0 460.8 345.6" xmlns="http://www.w3.org/2000/svg" version="1.1">
 <metadata>
  <rdf:RDF xmlns:dc="http://purl.org/dc/elements/1.1/" xmlns:cc="http://creativecommons.org/ns#" xmlns:rdf="http://www.w3.org/1999/02/22-rdf-syntax-ns#">
   <cc:Work>
    <dc:type rdf:resource="http://purl.org/dc/dcmitype/StillImage"/>
    <dc:date>2025-03-04T10:32:38.743737</dc:date>
    <dc:format>image/svg+xml</dc:format>
    <dc:creator>
     <cc:Agent>
      <dc:title>Matplotlib v3.10.0, https://matplotlib.org/</dc:title>
     </cc:Agent>
    </dc:creator>
   </cc:Work>
  </rdf:RDF>
 </metadata>
 <defs>
  <style type="text/css">*{stroke-linejoin: round; stroke-linecap: butt}</style>
 </defs>
 <g id="figure_1">
  <g id="patch_1">
   <path d="M 0 345.6 
L 460.8 345.6 
L 460.8 0 
L 0 0 
z
" style="fill: #ffffff"/>
  </g>
  <g id="axes_1">
   <g id="patch_2">
    <path d="M 57.6 307.584 
L 414.72 307.584 
L 414.72 41.472 
L 57.6 41.472 
z
" style="fill: #ffffff"/>
   </g>
   <g id="matplotlib.axis_1">
    <g id="xtick_1">
     <g id="line2d_1">
      <defs>
       <path id="m04320ef9b6" d="M 0 0 
L 0 3.5 
" style="stroke: #000000; stroke-width: 0.8"/>
      </defs>
      <g>
       <use xlink:href="#m04320ef9b6" x="73.832727" y="307.584" style="stroke: #000000; stroke-width: 0.8"/>
      </g>
     </g>
     <g id="text_1">
      <!-- 0 -->
      <g transform="translate(70.651477 322.182437) scale(0.1 -0.1)">
       <defs>
        <path id="DejaVuSans-30" d="M 2034 4250 
Q 1547 4250 1301 3770 
Q 1056 3291 1056 2328 
Q 1056 1369 1301 889 
Q 1547 409 2034 409 
Q 2525 409 2770 889 
Q 3016 1369 3016 2328 
Q 3016 3291 2770 3770 
Q 2525 4250 2034 4250 
z
M 2034 4750 
Q 2819 4750 3233 4129 
Q 3647 3509 3647 2328 
Q 3647 1150 3233 529 
Q 2819 -91 2034 -91 
Q 1250 -91 836 529 
Q 422 1150 422 2328 
Q 422 3509 836 4129 
Q 1250 4750 2034 4750 
z
" transform="scale(0.015625)"/>
       </defs>
       <use xlink:href="#DejaVuSans-30"/>
      </g>
     </g>
    </g>
    <g id="xtick_2">
     <g id="line2d_2">
      <g>
       <use xlink:href="#m04320ef9b6" x="138.763636" y="307.584" style="stroke: #000000; stroke-width: 0.8"/>
      </g>
     </g>
     <g id="text_2">
      <!-- 200 -->
      <g transform="translate(129.219886 322.182437) scale(0.1 -0.1)">
       <defs>
        <path id="DejaVuSans-32" d="M 1228 531 
L 3431 531 
L 3431 0 
L 469 0 
L 469 531 
Q 828 903 1448 1529 
Q 2069 2156 2228 2338 
Q 2531 2678 2651 2914 
Q 2772 3150 2772 3378 
Q 2772 3750 2511 3984 
Q 2250 4219 1831 4219 
Q 1534 4219 1204 4116 
Q 875 4013 500 3803 
L 500 4441 
Q 881 4594 1212 4672 
Q 1544 4750 1819 4750 
Q 2544 4750 2975 4387 
Q 3406 4025 3406 3419 
Q 3406 3131 3298 2873 
Q 3191 2616 2906 2266 
Q 2828 2175 2409 1742 
Q 1991 1309 1228 531 
z
" transform="scale(0.015625)"/>
       </defs>
       <use xlink:href="#DejaVuSans-32"/>
       <use xlink:href="#DejaVuSans-30" transform="translate(63.623047 0)"/>
       <use xlink:href="#DejaVuSans-30" transform="translate(127.246094 0)"/>
      </g>
     </g>
    </g>
    <g id="xtick_3">
     <g id="line2d_3">
      <g>
       <use xlink:href="#m04320ef9b6" x="203.694545" y="307.584" style="stroke: #000000; stroke-width: 0.8"/>
      </g>
     </g>
     <g id="text_3">
      <!-- 400 -->
      <g transform="translate(194.150795 322.182437) scale(0.1 -0.1)">
       <defs>
        <path id="DejaVuSans-34" d="M 2419 4116 
L 825 1625 
L 2419 1625 
L 2419 4116 
z
M 2253 4666 
L 3047 4666 
L 3047 1625 
L 3713 1625 
L 3713 1100 
L 3047 1100 
L 3047 0 
L 2419 0 
L 2419 1100 
L 313 1100 
L 313 1709 
L 2253 4666 
z
" transform="scale(0.015625)"/>
       </defs>
       <use xlink:href="#DejaVuSans-34"/>
       <use xlink:href="#DejaVuSans-30" transform="translate(63.623047 0)"/>
       <use xlink:href="#DejaVuSans-30" transform="translate(127.246094 0)"/>
      </g>
     </g>
    </g>
    <g id="xtick_4">
     <g id="line2d_4">
      <g>
       <use xlink:href="#m04320ef9b6" x="268.625455" y="307.584" style="stroke: #000000; stroke-width: 0.8"/>
      </g>
     </g>
     <g id="text_4">
      <!-- 600 -->
      <g transform="translate(259.081705 322.182437) scale(0.1 -0.1)">
       <defs>
        <path id="DejaVuSans-36" d="M 2113 2584 
Q 1688 2584 1439 2293 
Q 1191 2003 1191 1497 
Q 1191 994 1439 701 
Q 1688 409 2113 409 
Q 2538 409 2786 701 
Q 3034 994 3034 1497 
Q 3034 2003 2786 2293 
Q 2538 2584 2113 2584 
z
M 3366 4563 
L 3366 3988 
Q 3128 4100 2886 4159 
Q 2644 4219 2406 4219 
Q 1781 4219 1451 3797 
Q 1122 3375 1075 2522 
Q 1259 2794 1537 2939 
Q 1816 3084 2150 3084 
Q 2853 3084 3261 2657 
Q 3669 2231 3669 1497 
Q 3669 778 3244 343 
Q 2819 -91 2113 -91 
Q 1303 -91 875 529 
Q 447 1150 447 2328 
Q 447 3434 972 4092 
Q 1497 4750 2381 4750 
Q 2619 4750 2861 4703 
Q 3103 4656 3366 4563 
z
" transform="scale(0.015625)"/>
       </defs>
       <use xlink:href="#DejaVuSans-36"/>
       <use xlink:href="#DejaVuSans-30" transform="translate(63.623047 0)"/>
       <use xlink:href="#DejaVuSans-30" transform="translate(127.246094 0)"/>
      </g>
     </g>
    </g>
    <g id="xtick_5">
     <g id="line2d_5">
      <g>
       <use xlink:href="#m04320ef9b6" x="333.556364" y="307.584" style="stroke: #000000; stroke-width: 0.8"/>
      </g>
     </g>
     <g id="text_5">
      <!-- 800 -->
      <g transform="translate(324.012614 322.182437) scale(0.1 -0.1)">
       <defs>
        <path id="DejaVuSans-38" d="M 2034 2216 
Q 1584 2216 1326 1975 
Q 1069 1734 1069 1313 
Q 1069 891 1326 650 
Q 1584 409 2034 409 
Q 2484 409 2743 651 
Q 3003 894 3003 1313 
Q 3003 1734 2745 1975 
Q 2488 2216 2034 2216 
z
M 1403 2484 
Q 997 2584 770 2862 
Q 544 3141 544 3541 
Q 544 4100 942 4425 
Q 1341 4750 2034 4750 
Q 2731 4750 3128 4425 
Q 3525 4100 3525 3541 
Q 3525 3141 3298 2862 
Q 3072 2584 2669 2484 
Q 3125 2378 3379 2068 
Q 3634 1759 3634 1313 
Q 3634 634 3220 271 
Q 2806 -91 2034 -91 
Q 1263 -91 848 271 
Q 434 634 434 1313 
Q 434 1759 690 2068 
Q 947 2378 1403 2484 
z
M 1172 3481 
Q 1172 3119 1398 2916 
Q 1625 2713 2034 2713 
Q 2441 2713 2670 2916 
Q 2900 3119 2900 3481 
Q 2900 3844 2670 4047 
Q 2441 4250 2034 4250 
Q 1625 4250 1398 4047 
Q 1172 3844 1172 3481 
z
" transform="scale(0.015625)"/>
       </defs>
       <use xlink:href="#DejaVuSans-38"/>
       <use xlink:href="#DejaVuSans-30" transform="translate(63.623047 0)"/>
       <use xlink:href="#DejaVuSans-30" transform="translate(127.246094 0)"/>
      </g>
     </g>
    </g>
    <g id="xtick_6">
     <g id="line2d_6">
      <g>
       <use xlink:href="#m04320ef9b6" x="398.487273" y="307.584" style="stroke: #000000; stroke-width: 0.8"/>
      </g>
     </g>
     <g id="text_6">
      <!-- 1000 -->
      <g transform="translate(385.762273 322.182437) scale(0.1 -0.1)">
       <defs>
        <path id="DejaVuSans-31" d="M 794 531 
L 1825 531 
L 1825 4091 
L 703 3866 
L 703 4441 
L 1819 4666 
L 2450 4666 
L 2450 531 
L 3481 531 
L 3481 0 
L 794 0 
L 794 531 
z
" transform="scale(0.015625)"/>
       </defs>
       <use xlink:href="#DejaVuSans-31"/>
       <use xlink:href="#DejaVuSans-30" transform="translate(63.623047 0)"/>
       <use xlink:href="#DejaVuSans-30" transform="translate(127.246094 0)"/>
       <use xlink:href="#DejaVuSans-30" transform="translate(190.869141 0)"/>
      </g>
     </g>
    </g>
    <g id="text_7">
     <!-- Temperature ($^{\circ}C$) -->
     <g transform="translate(192.16 335.862125) scale(0.1 -0.1)">
      <defs>
       <path id="DejaVuSans-54" d="M -19 4666 
L 3928 4666 
L 3928 4134 
L 2272 4134 
L 2272 0 
L 1638 0 
L 1638 4134 
L -19 4134 
L -19 4666 
z
" transform="scale(0.015625)"/>
       <path id="DejaVuSans-65" d="M 3597 1894 
L 3597 1613 
L 953 1613 
Q 991 1019 1311 708 
Q 1631 397 2203 397 
Q 2534 397 2845 478 
Q 3156 559 3463 722 
L 3463 178 
Q 3153 47 2828 -22 
Q 2503 -91 2169 -91 
Q 1331 -91 842 396 
Q 353 884 353 1716 
Q 353 2575 817 3079 
Q 1281 3584 2069 3584 
Q 2775 3584 3186 3129 
Q 3597 2675 3597 1894 
z
M 3022 2063 
Q 3016 2534 2758 2815 
Q 2500 3097 2075 3097 
Q 1594 3097 1305 2825 
Q 1016 2553 972 2059 
L 3022 2063 
z
" transform="scale(0.015625)"/>
       <path id="DejaVuSans-6d" d="M 3328 2828 
Q 3544 3216 3844 3400 
Q 4144 3584 4550 3584 
Q 5097 3584 5394 3201 
Q 5691 2819 5691 2113 
L 5691 0 
L 5113 0 
L 5113 2094 
Q 5113 2597 4934 2840 
Q 4756 3084 4391 3084 
Q 3944 3084 3684 2787 
Q 3425 2491 3425 1978 
L 3425 0 
L 2847 0 
L 2847 2094 
Q 2847 2600 2669 2842 
Q 2491 3084 2119 3084 
Q 1678 3084 1418 2786 
Q 1159 2488 1159 1978 
L 1159 0 
L 581 0 
L 581 3500 
L 1159 3500 
L 1159 2956 
Q 1356 3278 1631 3431 
Q 1906 3584 2284 3584 
Q 2666 3584 2933 3390 
Q 3200 3197 3328 2828 
z
" transform="scale(0.015625)"/>
       <path id="DejaVuSans-70" d="M 1159 525 
L 1159 -1331 
L 581 -1331 
L 581 3500 
L 1159 3500 
L 1159 2969 
Q 1341 3281 1617 3432 
Q 1894 3584 2278 3584 
Q 2916 3584 3314 3078 
Q 3713 2572 3713 1747 
Q 3713 922 3314 415 
Q 2916 -91 2278 -91 
Q 1894 -91 1617 61 
Q 1341 213 1159 525 
z
M 3116 1747 
Q 3116 2381 2855 2742 
Q 2594 3103 2138 3103 
Q 1681 3103 1420 2742 
Q 1159 2381 1159 1747 
Q 1159 1113 1420 752 
Q 1681 391 2138 391 
Q 2594 391 2855 752 
Q 3116 1113 3116 1747 
z
" transform="scale(0.015625)"/>
       <path id="DejaVuSans-72" d="M 2631 2963 
Q 2534 3019 2420 3045 
Q 2306 3072 2169 3072 
Q 1681 3072 1420 2755 
Q 1159 2438 1159 1844 
L 1159 0 
L 581 0 
L 581 3500 
L 1159 3500 
L 1159 2956 
Q 1341 3275 1631 3429 
Q 1922 3584 2338 3584 
Q 2397 3584 2469 3576 
Q 2541 3569 2628 3553 
L 2631 2963 
z
" transform="scale(0.015625)"/>
       <path id="DejaVuSans-61" d="M 2194 1759 
Q 1497 1759 1228 1600 
Q 959 1441 959 1056 
Q 959 750 1161 570 
Q 1363 391 1709 391 
Q 2188 391 2477 730 
Q 2766 1069 2766 1631 
L 2766 1759 
L 2194 1759 
z
M 3341 1997 
L 3341 0 
L 2766 0 
L 2766 531 
Q 2569 213 2275 61 
Q 1981 -91 1556 -91 
Q 1019 -91 701 211 
Q 384 513 384 1019 
Q 384 1609 779 1909 
Q 1175 2209 1959 2209 
L 2766 2209 
L 2766 2266 
Q 2766 2663 2505 2880 
Q 2244 3097 1772 3097 
Q 1472 3097 1187 3025 
Q 903 2953 641 2809 
L 641 3341 
Q 956 3463 1253 3523 
Q 1550 3584 1831 3584 
Q 2591 3584 2966 3190 
Q 3341 2797 3341 1997 
z
" transform="scale(0.015625)"/>
       <path id="DejaVuSans-74" d="M 1172 4494 
L 1172 3500 
L 2356 3500 
L 2356 3053 
L 1172 3053 
L 1172 1153 
Q 1172 725 1289 603 
Q 1406 481 1766 481 
L 2356 481 
L 2356 0 
L 1766 0 
Q 1100 0 847 248 
Q 594 497 594 1153 
L 594 3053 
L 172 3053 
L 172 3500 
L 594 3500 
L 594 4494 
L 1172 4494 
z
" transform="scale(0.015625)"/>
       <path id="DejaVuSans-75" d="M 544 1381 
L 544 3500 
L 1119 3500 
L 1119 1403 
Q 1119 906 1312 657 
Q 1506 409 1894 409 
Q 2359 409 2629 706 
Q 2900 1003 2900 1516 
L 2900 3500 
L 3475 3500 
L 3475 0 
L 2900 0 
L 2900 538 
Q 2691 219 2414 64 
Q 2138 -91 1772 -91 
Q 1169 -91 856 284 
Q 544 659 544 1381 
z
M 1991 3584 
L 1991 3584 
z
" transform="scale(0.015625)"/>
       <path id="DejaVuSans-20" transform="scale(0.015625)"/>
       <path id="DejaVuSans-28" d="M 1984 4856 
Q 1566 4138 1362 3434 
Q 1159 2731 1159 2009 
Q 1159 1288 1364 580 
Q 1569 -128 1984 -844 
L 1484 -844 
Q 1016 -109 783 600 
Q 550 1309 550 2009 
Q 550 2706 781 3412 
Q 1013 4119 1484 4856 
L 1984 4856 
z
" transform="scale(0.015625)"/>
       <path id="DejaVuSans-2218" d="M 2000 2619 
Q 1750 2619 1578 2445 
Q 1406 2272 1406 2022 
Q 1406 1775 1578 1605 
Q 1750 1435 2000 1435 
Q 2250 1435 2422 1605 
Q 2594 1775 2594 2022 
Q 2594 2269 2420 2444 
Q 2247 2619 2000 2619 
z
M 2000 3022 
Q 2200 3022 2384 2945 
Q 2569 2869 2703 2725 
Q 2847 2585 2919 2406 
Q 2991 2228 2991 2022 
Q 2991 1610 2702 1324 
Q 2413 1038 1994 1038 
Q 1572 1038 1290 1319 
Q 1009 1600 1009 2022 
Q 1009 2441 1296 2731 
Q 1584 3022 2000 3022 
z
" transform="scale(0.015625)"/>
       <path id="DejaVuSans-Oblique-43" d="M 4447 4306 
L 4319 3641 
Q 4019 3944 3683 4091 
Q 3347 4238 2956 4238 
Q 2422 4238 2017 3981 
Q 1613 3725 1319 3200 
Q 1131 2863 1032 2486 
Q 934 2109 934 1728 
Q 934 1091 1264 756 
Q 1594 422 2222 422 
Q 2656 422 3056 561 
Q 3456 700 3834 978 
L 3688 231 
Q 3316 72 2936 -9 
Q 2556 -91 2175 -91 
Q 1278 -91 773 396 
Q 269 884 269 1753 
Q 269 2309 461 2846 
Q 653 3384 1013 3828 
Q 1394 4300 1883 4525 
Q 2372 4750 3022 4750 
Q 3422 4750 3780 4639 
Q 4138 4528 4447 4306 
z
" transform="scale(0.015625)"/>
       <path id="DejaVuSans-29" d="M 513 4856 
L 1013 4856 
Q 1481 4119 1714 3412 
Q 1947 2706 1947 2009 
Q 1947 1309 1714 600 
Q 1481 -109 1013 -844 
L 513 -844 
Q 928 -128 1133 580 
Q 1338 1288 1338 2009 
Q 1338 2731 1133 3434 
Q 928 4138 513 4856 
z
" transform="scale(0.015625)"/>
      </defs>
      <use xlink:href="#DejaVuSans-54" transform="translate(0 0.125)"/>
      <use xlink:href="#DejaVuSans-65" transform="translate(61.083984 0.125)"/>
      <use xlink:href="#DejaVuSans-6d" transform="translate(122.607422 0.125)"/>
      <use xlink:href="#DejaVuSans-70" transform="translate(220.019531 0.125)"/>
      <use xlink:href="#DejaVuSans-65" transform="translate(283.496094 0.125)"/>
      <use xlink:href="#DejaVuSans-72" transform="translate(345.019531 0.125)"/>
      <use xlink:href="#DejaVuSans-61" transform="translate(386.132812 0.125)"/>
      <use xlink:href="#DejaVuSans-74" transform="translate(447.412109 0.125)"/>
      <use xlink:href="#DejaVuSans-75" transform="translate(486.621094 0.125)"/>
      <use xlink:href="#DejaVuSans-72" transform="translate(550 0.125)"/>
      <use xlink:href="#DejaVuSans-65" transform="translate(591.113281 0.125)"/>
      <use xlink:href="#DejaVuSans-20" transform="translate(652.636719 0.125)"/>
      <use xlink:href="#DejaVuSans-28" transform="translate(684.423828 0.125)"/>
      <use xlink:href="#DejaVuSans-2218" transform="translate(724.394531 38.40625) scale(0.7)"/>
      <use xlink:href="#DejaVuSans-Oblique-43" transform="translate(770.947266 0.125)"/>
      <use xlink:href="#DejaVuSans-29" transform="translate(840.771484 0.125)"/>
     </g>
    </g>
   </g>
   <g id="matplotlib.axis_2">
    <g id="ytick_1">
     <g id="line2d_7">
      <defs>
       <path id="m2b5306119a" d="M 0 0 
L -3.5 0 
" style="stroke: #000000; stroke-width: 0.8"/>
      </defs>
      <g>
       <use xlink:href="#m2b5306119a" x="57.6" y="295.488" style="stroke: #000000; stroke-width: 0.8"/>
      </g>
     </g>
     <g id="text_8">
      <!-- 0.0 -->
      <g transform="translate(34.696875 299.287219) scale(0.1 -0.1)">
       <defs>
        <path id="DejaVuSans-2e" d="M 684 794 
L 1344 794 
L 1344 0 
L 684 0 
L 684 794 
z
" transform="scale(0.015625)"/>
       </defs>
       <use xlink:href="#DejaVuSans-30"/>
       <use xlink:href="#DejaVuSans-2e" transform="translate(63.623047 0)"/>
       <use xlink:href="#DejaVuSans-30" transform="translate(95.410156 0)"/>
      </g>
     </g>
    </g>
    <g id="ytick_2">
     <g id="line2d_8">
      <g>
       <use xlink:href="#m2b5306119a" x="57.6" y="260.227782" style="stroke: #000000; stroke-width: 0.8"/>
      </g>
     </g>
     <g id="text_9">
      <!-- 0.2 -->
      <g transform="translate(34.696875 264.027001) scale(0.1 -0.1)">
       <use xlink:href="#DejaVuSans-30"/>
       <use xlink:href="#DejaVuSans-2e" transform="translate(63.623047 0)"/>
       <use xlink:href="#DejaVuSans-32" transform="translate(95.410156 0)"/>
      </g>
     </g>
    </g>
    <g id="ytick_3">
     <g id="line2d_9">
      <g>
       <use xlink:href="#m2b5306119a" x="57.6" y="224.967565" style="stroke: #000000; stroke-width: 0.8"/>
      </g>
     </g>
     <g id="text_10">
      <!-- 0.4 -->
      <g transform="translate(34.696875 228.766784) scale(0.1 -0.1)">
       <use xlink:href="#DejaVuSans-30"/>
       <use xlink:href="#DejaVuSans-2e" transform="translate(63.623047 0)"/>
       <use xlink:href="#DejaVuSans-34" transform="translate(95.410156 0)"/>
      </g>
     </g>
    </g>
    <g id="ytick_4">
     <g id="line2d_10">
      <g>
       <use xlink:href="#m2b5306119a" x="57.6" y="189.707347" style="stroke: #000000; stroke-width: 0.8"/>
      </g>
     </g>
     <g id="text_11">
      <!-- 0.6 -->
      <g transform="translate(34.696875 193.506566) scale(0.1 -0.1)">
       <use xlink:href="#DejaVuSans-30"/>
       <use xlink:href="#DejaVuSans-2e" transform="translate(63.623047 0)"/>
       <use xlink:href="#DejaVuSans-36" transform="translate(95.410156 0)"/>
      </g>
     </g>
    </g>
    <g id="ytick_5">
     <g id="line2d_11">
      <g>
       <use xlink:href="#m2b5306119a" x="57.6" y="154.44713" style="stroke: #000000; stroke-width: 0.8"/>
      </g>
     </g>
     <g id="text_12">
      <!-- 0.8 -->
      <g transform="translate(34.696875 158.246349) scale(0.1 -0.1)">
       <use xlink:href="#DejaVuSans-30"/>
       <use xlink:href="#DejaVuSans-2e" transform="translate(63.623047 0)"/>
       <use xlink:href="#DejaVuSans-38" transform="translate(95.410156 0)"/>
      </g>
     </g>
    </g>
    <g id="ytick_6">
     <g id="line2d_12">
      <g>
       <use xlink:href="#m2b5306119a" x="57.6" y="119.186912" style="stroke: #000000; stroke-width: 0.8"/>
      </g>
     </g>
     <g id="text_13">
      <!-- 1.0 -->
      <g transform="translate(34.696875 122.986131) scale(0.1 -0.1)">
       <use xlink:href="#DejaVuSans-31"/>
       <use xlink:href="#DejaVuSans-2e" transform="translate(63.623047 0)"/>
       <use xlink:href="#DejaVuSans-30" transform="translate(95.410156 0)"/>
      </g>
     </g>
    </g>
    <g id="ytick_7">
     <g id="line2d_13">
      <g>
       <use xlink:href="#m2b5306119a" x="57.6" y="83.926695" style="stroke: #000000; stroke-width: 0.8"/>
      </g>
     </g>
     <g id="text_14">
      <!-- 1.2 -->
      <g transform="translate(34.696875 87.725913) scale(0.1 -0.1)">
       <use xlink:href="#DejaVuSans-31"/>
       <use xlink:href="#DejaVuSans-2e" transform="translate(63.623047 0)"/>
       <use xlink:href="#DejaVuSans-32" transform="translate(95.410156 0)"/>
      </g>
     </g>
    </g>
    <g id="ytick_8">
     <g id="line2d_14">
      <g>
       <use xlink:href="#m2b5306119a" x="57.6" y="48.666477" style="stroke: #000000; stroke-width: 0.8"/>
      </g>
     </g>
     <g id="text_15">
      <!-- 1.4 -->
      <g transform="translate(34.696875 52.465696) scale(0.1 -0.1)">
       <use xlink:href="#DejaVuSans-31"/>
       <use xlink:href="#DejaVuSans-2e" transform="translate(63.623047 0)"/>
       <use xlink:href="#DejaVuSans-34" transform="translate(95.410156 0)"/>
      </g>
     </g>
    </g>
    <g id="text_16">
     <!-- Intensity ($^{\circ}C^{-1}$) -->
     <g transform="translate(28.596875 213.328) rotate(-90) scale(0.1 -0.1)">
      <defs>
       <path id="DejaVuSans-49" d="M 628 4666 
L 1259 4666 
L 1259 0 
L 628 0 
L 628 4666 
z
" transform="scale(0.015625)"/>
       <path id="DejaVuSans-6e" d="M 3513 2113 
L 3513 0 
L 2938 0 
L 2938 2094 
Q 2938 2591 2744 2837 
Q 2550 3084 2163 3084 
Q 1697 3084 1428 2787 
Q 1159 2491 1159 1978 
L 1159 0 
L 581 0 
L 581 3500 
L 1159 3500 
L 1159 2956 
Q 1366 3272 1645 3428 
Q 1925 3584 2291 3584 
Q 2894 3584 3203 3211 
Q 3513 2838 3513 2113 
z
" transform="scale(0.015625)"/>
       <path id="DejaVuSans-73" d="M 2834 3397 
L 2834 2853 
Q 2591 2978 2328 3040 
Q 2066 3103 1784 3103 
Q 1356 3103 1142 2972 
Q 928 2841 928 2578 
Q 928 2378 1081 2264 
Q 1234 2150 1697 2047 
L 1894 2003 
Q 2506 1872 2764 1633 
Q 3022 1394 3022 966 
Q 3022 478 2636 193 
Q 2250 -91 1575 -91 
Q 1294 -91 989 -36 
Q 684 19 347 128 
L 347 722 
Q 666 556 975 473 
Q 1284 391 1588 391 
Q 1994 391 2212 530 
Q 2431 669 2431 922 
Q 2431 1156 2273 1281 
Q 2116 1406 1581 1522 
L 1381 1569 
Q 847 1681 609 1914 
Q 372 2147 372 2553 
Q 372 3047 722 3315 
Q 1072 3584 1716 3584 
Q 2034 3584 2315 3537 
Q 2597 3491 2834 3397 
z
" transform="scale(0.015625)"/>
       <path id="DejaVuSans-69" d="M 603 3500 
L 1178 3500 
L 1178 0 
L 603 0 
L 603 3500 
z
M 603 4863 
L 1178 4863 
L 1178 4134 
L 603 4134 
L 603 4863 
z
" transform="scale(0.015625)"/>
       <path id="DejaVuSans-79" d="M 2059 -325 
Q 1816 -950 1584 -1140 
Q 1353 -1331 966 -1331 
L 506 -1331 
L 506 -850 
L 844 -850 
Q 1081 -850 1212 -737 
Q 1344 -625 1503 -206 
L 1606 56 
L 191 3500 
L 800 3500 
L 1894 763 
L 2988 3500 
L 3597 3500 
L 2059 -325 
z
" transform="scale(0.015625)"/>
       <path id="DejaVuSans-2212" d="M 678 2272 
L 4684 2272 
L 4684 1741 
L 678 1741 
L 678 2272 
z
" transform="scale(0.015625)"/>
      </defs>
      <use xlink:href="#DejaVuSans-49" transform="translate(0 0.684375)"/>
      <use xlink:href="#DejaVuSans-6e" transform="translate(29.492188 0.684375)"/>
      <use xlink:href="#DejaVuSans-74" transform="translate(92.871094 0.684375)"/>
      <use xlink:href="#DejaVuSans-65" transform="translate(132.080078 0.684375)"/>
      <use xlink:href="#DejaVuSans-6e" transform="translate(193.603516 0.684375)"/>
      <use xlink:href="#DejaVuSans-73" transform="translate(256.982422 0.684375)"/>
      <use xlink:href="#DejaVuSans-69" transform="translate(309.082031 0.684375)"/>
      <use xlink:href="#DejaVuSans-74" transform="translate(336.865234 0.684375)"/>
      <use xlink:href="#DejaVuSans-79" transform="translate(376.074219 0.684375)"/>
      <use xlink:href="#DejaVuSans-20" transform="translate(435.253906 0.684375)"/>
      <use xlink:href="#DejaVuSans-28" transform="translate(467.041016 0.684375)"/>
      <use xlink:href="#DejaVuSans-2218" transform="translate(507.011719 38.965625) scale(0.7)"/>
      <use xlink:href="#DejaVuSans-Oblique-43" transform="translate(553.564453 0.684375)"/>
      <use xlink:href="#DejaVuSans-2212" transform="translate(630.589193 38.965625) scale(0.7)"/>
      <use xlink:href="#DejaVuSans-31" transform="translate(689.241536 38.965625) scale(0.7)"/>
      <use xlink:href="#DejaVuSans-29" transform="translate(736.512044 0.684375)"/>
     </g>
    </g>
    <g id="text_17">
     <!-- 1e7 -->
     <g transform="translate(57.6 38.472) scale(0.1 -0.1)">
      <defs>
       <path id="DejaVuSans-37" d="M 525 4666 
L 3525 4666 
L 3525 4397 
L 1831 0 
L 1172 0 
L 2766 4134 
L 525 4134 
L 525 4666 
z
" transform="scale(0.015625)"/>
      </defs>
      <use xlink:href="#DejaVuSans-31"/>
      <use xlink:href="#DejaVuSans-65" transform="translate(63.623047 0)"/>
      <use xlink:href="#DejaVuSans-37" transform="translate(125.146484 0)"/>
     </g>
    </g>
   </g>
   <g id="line2d_15">
    <path d="M 73.832727 295.488 
L 184.270492 295.378341 
L 192.228507 294.776361 
L 194.502226 294.338164 
L 196.938353 293.629258 
L 200.186522 292.025094 
L 201.323382 291.170915 
L 202.297833 290.367511 
L 203.921917 288.765199 
L 204.571551 287.911549 
L 205.221185 287.074207 
L 205.870819 286.094149 
L 208.144538 282.036315 
L 208.631763 280.903581 
L 208.794172 280.629256 
L 209.281397 279.466639 
L 212.691975 269.635649 
L 215.615328 258.23223 
L 216.589779 253.807955 
L 217.401821 249.963886 
L 218.051455 246.699847 
L 218.863497 242.642278 
L 221.137216 230.284982 
L 225.684653 203.255469 
L 226.496696 198.268793 
L 226.821513 196.475105 
L 229.25764 181.462186 
L 231.206541 169.746362 
L 231.693767 166.858815 
L 232.505809 162.043238 
L 238.190106 130.247778 
L 238.352514 129.713674 
L 239.002148 126.042116 
L 239.651782 122.963458 
L 240.626233 117.990886 
L 245.011262 98.694643 
L 246.148121 94.28456 
L 246.635347 92.268116 
L 250.045925 80.84028 
L 250.208333 80.462555 
L 250.53315 79.142853 
L 250.695559 78.817577 
L 250.857967 77.958286 
L 251.020376 78.050315 
L 251.67001 75.811644 
L 251.832418 75.766334 
L 252.319643 74.228372 
L 252.969277 72.235553 
L 253.131686 72.098214 
L 254.106137 69.63996 
L 254.268545 69.368456 
L 254.755771 68.09803 
L 254.918179 67.913002 
L 255.89263 65.762658 
L 256.055038 65.725987 
L 256.379855 64.835755 
L 256.542264 64.693656 
L 257.191898 63.271259 
L 257.354306 63.191483 
L 258.00394 62.165763 
L 258.166349 61.61253 
L 258.328757 61.510893 
L 258.815983 60.663678 
L 259.303208 60.139711 
L 259.465616 59.618124 
L 259.790433 59.448875 
L 260.11525 58.76994 
L 260.277659 58.821772 
L 261.576927 57.197775 
L 261.739335 57.403342 
L 262.064152 56.693378 
L 262.226561 56.729079 
L 262.713786 56.197354 
L 262.876194 56.145698 
L 263.038603 55.838405 
L 263.201011 55.937134 
L 263.36342 55.660429 
L 263.525828 55.913774 
L 263.850645 55.46403 
L 264.175462 55.125444 
L 264.337871 55.018076 
L 264.500279 54.747278 
L 264.662688 54.883382 
L 264.825096 54.767553 
L 264.987505 54.861874 
L 265.312322 54.241823 
L 265.637139 54.706024 
L 265.799547 54.336232 
L 265.961956 54.455588 
L 266.124364 54.286074 
L 266.286772 53.951719 
L 266.449181 54.284399 
L 266.611589 53.917076 
L 266.936406 53.812882 
L 267.098815 54.290923 
L 267.261223 54.192547 
L 267.423632 53.926244 
L 267.748449 54.03652 
L 268.073266 53.895039 
L 268.235674 53.901385 
L 268.398083 53.736985 
L 268.560491 53.788905 
L 268.7229 53.63235 
L 269.210125 53.756818 
L 269.372534 53.568 
L 269.534942 54.05609 
L 269.69735 53.97217 
L 270.184576 54.151204 
L 270.346984 53.970055 
L 270.509393 54.31728 
L 270.671801 54.192018 
L 270.996618 54.666885 
L 271.159027 54.365586 
L 271.321435 54.425793 
L 271.483844 54.661155 
L 271.646252 54.603328 
L 271.808661 54.94403 
L 271.971069 54.599538 
L 272.295886 54.885234 
L 272.620703 55.16899 
L 272.783112 54.908241 
L 273.107929 55.140518 
L 273.432745 55.647736 
L 273.595154 55.476724 
L 273.757562 56.098802 
L 273.919971 55.870492 
L 274.082379 55.847926 
L 274.407196 56.27572 
L 274.569605 56.27431 
L 274.732013 56.393049 
L 274.894422 56.296083 
L 275.05683 56.654239 
L 275.219239 56.594296 
L 275.381647 57.007458 
L 275.544056 56.89295 
L 275.706464 57.41392 
L 275.868873 57.330089 
L 276.031281 57.734524 
L 276.356098 57.775954 
L 276.680915 58.081132 
L 276.843323 58.656402 
L 277.005732 58.192642 
L 277.492957 59.083403 
L 277.655366 59.004068 
L 277.980183 59.534734 
L 278.142591 59.469679 
L 278.305 59.762956 
L 278.467408 59.743739 
L 278.792225 60.428404 
L 279.117042 60.518847 
L 279.441859 61.206333 
L 279.604268 61.165607 
L 279.766676 61.705706 
L 279.929085 61.568014 
L 280.091493 62.279654 
L 280.41631 62.268106 
L 281.065944 63.079796 
L 281.390761 63.823699 
L 281.553169 63.876413 
L 281.715578 64.488883 
L 281.877986 64.306059 
L 282.202803 64.950086 
L 282.365212 64.713931 
L 282.52762 65.303129 
L 282.690029 65.447784 
L 283.177254 66.47606 
L 283.339663 66.326998 
L 283.502071 66.900329 
L 283.66448 66.768368 
L 283.826888 67.434433 
L 284.151705 67.585259 
L 284.314113 68.192087 
L 284.476522 68.147042 
L 287.237466 73.103395 
L 287.399874 73.152935 
L 287.724691 73.702025 
L 287.8871 73.678401 
L 288.374325 75.162768 
L 289.023959 76.359676 
L 289.186368 76.309694 
L 289.511185 77.13875 
L 289.99841 78.04485 
L 290.160819 78.155743 
L 290.972861 80.018805 
L 291.135269 80.066318 
L 292.10972 82.205467 
L 292.434537 82.653536 
L 292.759354 83.551614 
L 293.084171 84.231784 
L 293.24658 84.300629 
L 294.383439 86.850031 
L 294.545847 87.121535 
L 294.870664 87.857592 
L 295.35789 88.75091 
L 295.682707 89.573354 
L 295.845115 89.691388 
L 296.007524 90.500433 
L 296.169932 90.566546 
L 296.332341 90.824563 
L 296.657158 91.717087 
L 296.981975 92.115528 
L 297.144383 92.858372 
L 297.306792 92.986896 
L 297.4692 93.535016 
L 297.631609 93.513243 
L 297.956425 94.619091 
L 298.281242 94.939166 
L 298.768468 96.470605 
L 298.930876 96.468049 
L 299.093285 96.714694 
L 299.418102 97.804411 
L 299.58051 97.961143 
L 299.905327 98.93027 
L 300.067736 99.108422 
L 302.82868 105.451735 
L 302.991088 106.016339 
L 303.153497 106.053803 
L 303.640722 107.261642 
L 304.93999 110.131648 
L 305.102398 110.801856 
L 305.264807 110.899439 
L 305.427215 111.137798 
L 305.752032 112.210149 
L 305.914441 112.387596 
L 306.888892 114.776476 
L 307.0513 114.847085 
L 308.350568 117.913754 
L 309.812244 121.380539 
L 311.273921 124.803424 
L 311.598738 125.296979 
L 311.761146 125.630453 
L 311.923555 126.267164 
L 312.085963 126.340417 
L 312.573188 127.8269 
L 312.735597 127.997912 
L 314.034865 131.015922 
L 314.197273 131.095169 
L 314.52209 132.198902 
L 319.069527 142.448783 
L 319.231936 142.643948 
L 319.719161 144.116062 
L 320.043978 144.541918 
L 322.967331 150.97964 
L 323.129739 151.181946 
L 323.454556 152.153276 
L 323.616965 152.273161 
L 323.779373 152.905289 
L 323.941782 153.071981 
L 326.865134 159.444649 
L 327.027543 159.568324 
L 327.677177 161.102584 
L 328.326811 162.281333 
L 328.814036 163.529192 
L 329.46367 164.796709 
L 329.950895 165.8524 
L 330.275712 166.316777 
L 331.087755 168.169261 
L 331.250163 168.203816 
L 332.062206 169.900714 
L 332.224614 170.160317 
L 332.387023 170.82171 
L 332.71184 171.292346 
L 333.523882 173.00802 
L 333.68629 173.189698 
L 334.335924 174.603104 
L 334.660741 175.007186 
L 335.147967 176.030967 
L 335.310375 176.20956 
L 336.122418 177.840786 
L 337.584094 180.852449 
L 337.746502 180.970482 
L 338.396136 182.321037 
L 339.370587 184.057955 
L 339.532996 184.10494 
L 339.857813 184.973487 
L 340.507446 186.001939 
L 340.994672 187.200963 
L 341.15708 187.229171 
L 341.481897 188.054789 
L 341.644306 188.153518 
L 342.456348 189.708229 
L 342.618757 189.81921 
L 343.105982 190.907341 
L 343.268391 191.011094 
L 343.755616 191.936763 
L 343.918024 191.967527 
L 344.40525 193.099821 
L 344.567658 193.221028 
L 345.054884 194.150311 
L 345.379701 194.554041 
L 345.704518 195.242937 
L 345.866926 195.463402 
L 346.191743 196.249793 
L 346.354152 196.385456 
L 346.841377 197.183924 
L 347.815828 198.976465 
L 347.978236 199.027769 
L 351.551223 204.791492 
L 352.363265 205.983376 
L 352.688082 206.671391 
L 353.175308 207.223213 
L 353.500125 207.875615 
L 353.824942 208.225573 
L 353.98735 208.583552 
L 354.149759 208.631594 
L 354.474575 209.200077 
L 355.449026 210.844173 
L 355.611435 210.835358 
L 355.936252 211.473656 
L 358.697196 215.287842 
L 358.859604 215.722865 
L 359.022013 215.723041 
L 359.671647 216.85745 
L 359.996464 217.085848 
L 360.321281 217.666232 
L 360.646098 218.096406 
L 361.45814 219.255498 
L 361.782957 219.550626 
L 361.945365 219.921034 
L 362.107774 219.925971 
L 362.432591 220.476295 
L 362.594999 220.598736 
L 362.919816 221.21244 
L 363.082225 221.230863 
L 363.731859 222.127002 
L 364.056676 222.613681 
L 364.381493 222.899465 
L 364.868718 223.770569 
L 365.518352 224.451091 
L 365.843169 224.990484 
L 366.005577 224.962628 
L 366.167986 225.346612 
L 366.330394 225.387514 
L 366.81762 226.073942 
L 366.980028 226.149928 
L 367.142437 226.548016 
L 367.304845 226.631759 
L 368.441704 228.081571 
L 368.604113 228.125558 
L 369.416155 229.292407 
L 369.578564 229.335072 
L 369.740972 229.758018 
L 370.228198 230.047328 
L 371.04024 231.031882 
L 371.202649 231.402202 
L 371.365057 231.383073 
L 371.689874 231.838723 
L 371.852283 232.207986 
L 372.177099 232.243863 
L 372.501916 232.835354 
L 372.664325 233.046739 
L 372.826733 233.064016 
L 373.15155 233.554133 
L 373.313959 233.598825 
L 373.801184 234.3169 
L 374.126001 234.571126 
L 374.450818 234.878242 
L 374.613227 235.243274 
L 374.775635 235.268485 
L 375.262861 235.836263 
L 375.425269 235.893649 
L 376.237311 236.81156 
L 376.39972 236.794106 
L 376.724537 237.293215 
L 377.211762 237.867868 
L 377.374171 238.130733 
L 377.536579 238.063386 
L 377.861396 238.626756 
L 378.186213 238.740118 
L 378.998255 239.665698 
L 379.160664 239.711096 
L 379.972706 240.668411 
L 380.784749 241.36956 
L 381.434383 241.992079 
L 382.084017 242.689703 
L 382.408834 242.83471 
L 382.571242 243.172768 
L 382.73365 243.16933 
L 383.058467 243.544322 
L 383.220876 243.572971 
L 383.545693 244.085038 
L 383.87051 244.284875 
L 384.520144 244.941597 
L 384.682552 245.039267 
L 384.844961 245.270839 
L 385.007369 245.30557 
L 385.657003 245.968815 
L 385.98182 246.225862 
L 386.144228 246.284658 
L 386.469045 246.665557 
L 386.631454 246.70972 
L 387.118679 247.310731 
L 387.281088 247.322543 
L 387.443496 247.56813 
L 387.768313 247.659895 
L 387.930722 248.015935 
L 388.417947 248.237281 
L 389.22999 249.207025 
L 389.392398 249.123458 
L 390.366849 250.067727 
L 390.529257 250.037315 
L 390.854074 250.340641 
L 391.016483 250.376695 
L 391.178891 250.758298 
L 391.503708 250.94985 
L 392.965385 252.03322 
L 393.127793 252.301462 
L 393.290201 252.284272 
L 393.939835 252.784351 
L 394.264652 253.061848 
L 394.427061 253.077716 
L 394.751878 253.407663 
L 395.076695 253.746778 
L 395.401512 253.809277 
L 395.726329 254.230989 
L 396.051146 254.47305 
L 396.213554 254.449867 
L 396.538371 254.728158 
L 396.700779 254.811196 
L 396.863188 255.069301 
L 397.025596 255.018791 
L 397.188005 255.281127 
L 397.350413 255.270725 
L 397.67523 255.543022 
L 398.000047 255.777943 
L 398.487273 256.093522 
L 398.487273 256.093522 
" clip-path="url(#p03d5b33e9f)" style="fill: none; stroke-dasharray: 1.85,0.8; stroke-dashoffset: 0; stroke: #8000ff; stroke-width: 0.5"/>
   </g>
   <g id="line2d_16">
    <path d="M 73.832727 295.488 
L 187.843478 295.385834 
L 191.741282 295.239944 
L 193.852592 295.101284 
L 197.750395 294.6563 
L 200.024114 294.160629 
L 200.673748 294.020558 
L 201.973016 293.629081 
L 203.109875 293.208515 
L 203.921917 292.882358 
L 206.195636 291.696116 
L 206.682861 291.370135 
L 207.494904 290.799008 
L 208.469355 290.014997 
L 209.606214 288.972 
L 209.768622 288.906328 
L 210.255848 288.32189 
L 211.555116 286.918269 
L 212.20475 286.031298 
L 212.367158 285.913793 
L 213.179201 284.749853 
L 213.991243 283.682967 
L 214.478468 282.92593 
L 215.940145 280.537315 
L 216.42737 279.591284 
L 217.889046 276.908334 
L 221.137216 269.960396 
L 223.735752 263.968186 
L 225.359836 260.078896 
L 226.00947 258.363222 
L 226.171879 258.168498 
L 226.496696 257.133875 
L 226.983921 256.062229 
L 227.958372 253.437546 
L 228.283189 252.751647 
L 228.770414 251.421543 
L 228.932823 251.124123 
L 229.095231 250.409839 
L 229.25764 250.243147 
L 230.232091 247.726978 
L 230.394499 247.43899 
L 230.719316 246.492517 
L 230.881724 246.254158 
L 231.531358 244.410754 
L 232.993035 240.732496 
L 233.805077 238.770089 
L 233.967486 238.09609 
L 234.129894 237.922345 
L 234.941936 235.850102 
L 235.429162 234.661304 
L 235.753979 233.761375 
L 236.890838 231.01954 
L 237.215655 230.247342 
L 238.027697 228.115333 
L 238.190106 227.942205 
L 238.677331 226.626206 
L 239.002148 225.892617 
L 239.326965 225.153563 
L 239.651782 224.323184 
L 241.113459 220.910701 
L 241.438276 220.167239 
L 243.224769 216.138318 
L 244.036811 214.479589 
L 244.361628 213.775267 
L 245.011262 212.283407 
L 245.336079 211.607557 
L 245.498487 211.40719 
L 245.985713 210.244926 
L 246.960164 208.243203 
L 247.122572 208.078273 
L 247.447389 207.290119 
L 250.53315 201.272611 
L 250.695559 201.104419 
L 251.832418 198.928247 
L 252.64446 197.441676 
L 252.806869 197.27992 
L 253.131686 196.661367 
L 253.78132 195.648077 
L 254.106137 195.011894 
L 254.918179 193.711762 
L 255.242996 193.221469 
L 255.567813 192.530721 
L 255.730221 192.51697 
L 256.379855 191.364137 
L 256.542264 191.160156 
L 256.867081 190.565405 
L 257.029489 190.486774 
L 257.679123 189.200658 
L 257.841532 189.360034 
L 258.00394 188.699081 
L 258.491166 188.198474 
L 258.815983 187.650354 
L 259.465616 186.921085 
L 259.790433 186.240122 
L 259.952842 186.262336 
L 260.277659 185.671639 
L 260.440067 185.605614 
L 260.764884 185.098044 
L 261.089701 184.65685 
L 261.25211 184.55248 
L 261.739335 183.715402 
L 261.901744 183.680671 
L 262.226561 183.143217 
L 262.388969 183.039199 
L 262.876194 182.322007 
L 263.038603 182.296267 
L 263.525828 181.751056 
L 263.688237 181.342301 
L 263.850645 181.342125 
L 264.013054 180.944743 
L 264.175462 181.101827 
L 264.337871 180.602454 
L 264.500279 180.673415 
L 264.662688 180.353429 
L 264.825096 180.325926 
L 265.149913 179.719362 
L 265.312322 179.789794 
L 265.47473 179.366319 
L 265.637139 179.467868 
L 266.286772 178.561769 
L 266.449181 178.590682 
L 266.611589 178.406536 
L 266.773998 178.004922 
L 266.936406 178.180959 
L 267.098815 177.664925 
L 267.261223 177.793801 
L 267.58604 177.390336 
L 267.748449 177.044786 
L 267.910857 177.172869 
L 268.073266 176.787387 
L 268.7229 176.35871 
L 268.885308 176.032818 
L 269.047717 176.209736 
L 269.210125 175.757788 
L 270.022167 175.30778 
L 270.346984 174.717436 
L 270.509393 174.805586 
L 270.671801 174.758073 
L 270.83421 174.47273 
L 271.159027 174.365362 
L 271.321435 174.005796 
L 271.646252 173.950878 
L 271.808661 173.783657 
L 271.971069 173.440927 
L 272.133478 173.49038 
L 272.295886 173.228044 
L 272.458295 173.409987 
L 272.620703 173.029 
L 272.94552 173.006257 
L 273.270337 172.597679 
L 273.432745 172.683274 
L 273.757562 172.26923 
L 274.082379 172.318066 
L 274.407196 172.006718 
L 274.569605 171.769417 
L 274.732013 171.844786 
L 275.05683 171.534231 
L 275.219239 171.533702 
L 275.868873 171.037944 
L 276.356098 170.932516 
L 276.680915 170.592431 
L 277.005732 170.336882 
L 277.16814 170.434818 
L 277.655366 170.083097 
L 277.817774 170.144538 
L 278.142591 169.863161 
L 278.305 169.88088 
L 278.467408 169.616428 
L 278.629817 169.747243 
L 278.954634 169.397638 
L 279.117042 169.587603 
L 279.279451 169.334787 
L 279.441859 169.370047 
L 279.766676 169.084528 
L 279.929085 168.994879 
L 280.091493 169.077123 
L 280.253901 168.8013 
L 280.41631 169.02009 
L 280.578718 168.729105 
L 280.741127 168.875611 
L 281.065944 168.460951 
L 281.228352 168.60014 
L 281.390761 168.559591 
L 281.553169 168.688555 
L 281.877986 168.222239 
L 282.040395 168.385318 
L 282.365212 168.225148 
L 282.52762 168.047789 
L 282.690029 168.130474 
L 283.502071 167.752661 
L 283.66448 167.799469 
L 283.826888 167.663012 
L 283.989296 167.702151 
L 284.151705 167.584029 
L 284.314113 167.773641 
L 284.476522 167.738469 
L 284.63893 167.496584 
L 284.963747 167.496584 
L 285.126156 167.2532 
L 285.288564 167.40288 
L 285.450973 167.382517 
L 285.613381 167.487152 
L 286.100607 167.184443 
L 286.263015 167.307148 
L 286.587832 167.12882 
L 286.750241 167.230193 
L 286.912649 167.010522 
L 287.075058 167.077869 
L 287.562283 166.884466 
L 287.8871 167.081395 
L 288.536734 166.871244 
L 288.699142 166.983107 
L 288.861551 166.825141 
L 289.023959 167.055919 
L 289.348776 166.881557 
L 289.836002 166.740869 
L 290.323227 167.005673 
L 290.485636 166.753298 
L 290.648044 166.744219 
L 290.972861 166.899981 
L 291.135269 166.642229 
L 291.297678 166.905975 
L 291.622495 166.828667 
L 292.272129 166.742808 
L 292.921763 166.812183 
L 293.24658 166.637733 
L 293.408988 166.923341 
L 293.571397 166.735668 
L 293.733805 167.008053 
L 293.896214 166.828138 
L 294.058622 166.972881 
L 294.221031 166.759998 
L 294.708256 166.784592 
L 294.870664 167.147684 
L 295.35789 166.869922 
L 295.682707 167.228871 
L 296.007524 167.056095 
L 296.169932 167.138516 
L 296.332341 166.887816 
L 296.494749 167.15694 
L 296.819566 167.066497 
L 296.981975 167.267304 
L 297.144383 167.138428 
L 297.306792 167.32231 
L 297.4692 167.169986 
L 297.631609 167.405083 
L 298.118834 167.203571 
L 298.281242 167.413634 
L 298.443651 167.122561 
L 298.606059 167.476662 
L 298.930876 167.469257 
L 299.093285 167.70506 
L 299.255693 167.453214 
L 299.418102 167.691396 
L 299.742919 167.400676 
L 299.905327 167.808284 
L 300.067736 167.797794 
L 300.230144 167.611091 
L 300.554961 167.835699 
L 300.71737 167.80802 
L 300.879778 167.963341 
L 301.204595 167.823181 
L 301.367004 168.118398 
L 301.529412 167.964839 
L 301.854229 168.107555 
L 302.341454 168.218184 
L 302.503863 168.069827 
L 302.82868 168.353319 
L 303.315905 168.501941 
L 303.478314 168.620503 
L 303.640722 168.382761 
L 304.127948 168.843965 
L 304.452765 168.731397 
L 304.615173 168.997347 
L 305.102398 168.937845 
L 305.264807 169.183785 
L 305.427215 169.078093 
L 305.589624 169.246901 
L 305.914441 169.258889 
L 306.239258 169.378069 
L 306.401666 169.348274 
L 306.564075 169.770163 
L 306.726483 169.500686 
L 307.0513 169.585135 
L 307.213709 169.899303 
L 307.376117 169.791142 
L 307.538526 170.01716 
L 307.863343 169.867128 
L 308.025751 170.143568 
L 308.18816 169.894543 
L 308.512976 170.373553 
L 308.675385 170.226694 
L 309.000202 170.530461 
L 309.16261 170.449891 
L 309.812244 170.75454 
L 310.137061 170.921673 
L 310.29947 170.732414 
L 310.461878 171.122304 
L 310.949104 171.091451 
L 311.111512 171.272424 
L 311.273921 171.20543 
L 311.436329 171.352994 
L 311.598738 171.314119 
L 311.923555 171.721287 
L 312.085963 171.725165 
L 312.248371 171.527532 
L 313.222822 172.109502 
L 313.385231 172.027257 
L 313.710048 172.386294 
L 314.034865 172.282453 
L 314.52209 172.827312 
L 314.684499 172.688739 
L 314.846907 172.999822 
L 315.171724 172.934943 
L 315.496541 173.204508 
L 315.658949 173.210061 
L 315.821358 173.435286 
L 315.983766 173.445247 
L 316.146175 173.699826 
L 316.308583 173.48562 
L 316.6334 173.929282 
L 317.283034 174.022545 
L 317.445443 174.340151 
L 317.607851 174.11669 
L 317.77026 174.401063 
L 317.932668 174.274391 
L 318.095077 174.55753 
L 318.257485 174.51037 
L 318.419894 174.797212 
L 318.744711 174.740707 
L 318.907119 174.804616 
L 319.069527 175.066424 
L 319.231936 174.878927 
L 319.394344 175.191157 
L 319.719161 175.309983 
L 320.043978 175.431455 
L 320.206387 175.760256 
L 320.368795 175.812794 
L 320.531204 175.726407 
L 320.693612 176.036256 
L 320.856021 175.959565 
L 321.180838 176.161782 
L 321.505655 176.143623 
L 321.99288 176.599273 
L 322.317697 176.657893 
L 322.642514 176.949672 
L 322.967331 176.951347 
L 323.454556 177.403206 
L 323.779373 177.552357 
L 324.10419 177.668892 
L 324.429007 177.845281 
L 324.753824 178.202908 
L 325.24105 178.438446 
L 325.403458 178.157775 
L 326.053092 179.051533 
L 326.2155 178.977311 
L 326.377909 179.147265 
L 326.540317 179.032493 
L 327.677177 179.78283 
L 327.839585 179.786444 
L 328.164402 180.315083 
L 328.326811 180.17942 
L 328.489219 180.216795 
L 329.301262 180.915741 
L 329.626078 180.891059 
L 329.788487 181.140613 
L 329.950895 181.057046 
L 330.113304 181.119192 
L 330.275712 181.459542 
L 330.438121 181.344153 
L 330.762938 181.703102 
L 330.925346 181.926299 
L 331.087755 181.851988 
L 331.250163 182.085499 
L 331.412572 181.976545 
L 331.899797 182.42576 
L 332.224614 182.456789 
L 332.387023 182.805336 
L 332.71184 182.878237 
L 332.874248 182.729262 
L 333.199065 183.233131 
L 333.361473 183.446719 
L 333.68629 183.573568 
L 334.011107 183.729066 
L 334.173516 183.688781 
L 334.335924 183.970863 
L 334.498333 183.913653 
L 334.985558 184.263082 
L 335.147967 184.351761 
L 335.310375 184.309625 
L 335.635192 184.696253 
L 335.797601 184.823366 
L 335.960009 184.715558 
L 336.122418 185.117525 
L 336.284826 185.02814 
L 336.609643 185.545319 
L 336.772051 185.475416 
L 336.93446 185.635497 
L 337.096868 185.628005 
L 337.421685 185.962536 
L 337.584094 185.832338 
L 338.071319 186.232717 
L 338.233728 186.279085 
L 338.720953 186.636535 
L 339.04577 186.814952 
L 339.208179 186.825177 
L 339.370587 187.05666 
L 339.532996 187.053399 
L 339.857813 187.420193 
L 340.020221 187.446021 
L 340.507446 187.778349 
L 340.669855 187.880075 
L 340.994672 188.218397 
L 341.969123 188.696701 
L 342.131531 188.986805 
L 342.29394 188.983631 
L 342.456348 189.185144 
L 342.618757 189.201275 
L 342.781165 189.421651 
L 343.105982 189.508215 
L 343.268391 189.709463 
L 343.593208 189.773989 
L 343.755616 190.268249 
L 343.918024 189.970565 
L 344.242841 190.204516 
L 344.40525 190.431945 
L 344.567658 190.394393 
L 345.217292 190.959085 
L 345.704518 191.111938 
L 345.866926 191.475735 
L 346.029335 191.365724 
L 346.354152 191.743096 
L 346.678969 192.022886 
L 347.653419 192.521201 
L 348.790279 193.232928 
L 348.952687 193.555647 
L 349.602321 193.781754 
L 350.251955 194.298933 
L 350.576772 194.394224 
L 350.901589 194.593796 
L 351.388814 194.994176 
L 351.713631 195.358943 
L 351.87604 195.54212 
L 352.038448 195.484646 
L 352.688082 195.85382 
L 352.850491 196.133258 
L 353.337716 196.245561 
L 353.500125 196.466114 
L 353.824942 196.491237 
L 353.98735 196.983381 
L 354.149759 196.930315 
L 354.636984 197.191681 
L 354.799392 197.488572 
L 355.124209 197.400598 
L 355.773843 197.940432 
L 356.09866 198.267206 
L 356.261069 198.116557 
L 356.585886 198.553783 
L 356.910703 198.655156 
L 357.23552 198.927277 
L 358.047562 199.555174 
L 358.20997 199.427091 
L 358.697196 199.957845 
L 358.859604 199.918001 
L 359.022013 200.153804 
L 359.184421 200.163853 
L 359.34683 200.456248 
L 359.509238 200.50861 
L 359.671647 200.437737 
L 359.834055 200.844023 
L 360.158872 200.793601 
L 360.483689 201.062195 
L 360.646098 201.268379 
L 360.808506 201.265118 
L 361.133323 201.692824 
L 361.295732 201.587132 
L 361.45814 201.917696 
L 361.620548 201.755852 
L 361.945365 202.262189 
L 362.107774 202.293394 
L 362.270182 202.173774 
L 362.432591 202.462819 
L 362.594999 202.345403 
L 362.919816 202.725508 
L 363.244633 202.916177 
L 363.731859 203.376323 
L 364.219084 203.535347 
L 364.543901 203.828447 
L 364.70631 203.933258 
L 364.868718 203.812757 
L 365.031126 204.092106 
L 365.355943 204.116259 
L 365.68076 204.516198 
L 365.843169 204.681128 
L 366.167986 204.746623 
L 366.655211 205.240884 
L 366.81762 205.306027 
L 367.142437 205.574181 
L 367.629662 205.713723 
L 367.792071 205.930662 
L 368.116888 206.037147 
L 368.441704 206.263077 
L 368.92893 206.570106 
L 369.253747 206.991818 
L 369.416155 206.897761 
L 369.578564 207.104827 
L 370.065789 207.229736 
L 370.228198 207.55986 
L 370.390606 207.622359 
L 370.553015 207.82202 
L 370.715423 207.756171 
L 371.04024 207.968261 
L 371.527466 208.363176 
L 371.689874 208.323332 
L 371.852283 208.621898 
L 372.177099 208.621986 
L 372.501916 208.918612 
L 372.989142 209.146658 
L 375.100452 210.679684 
L 375.262861 210.617626 
L 375.587677 210.834565 
L 375.750086 211.06164 
L 376.074903 211.190428 
L 376.39972 211.571503 
L 376.562128 211.432666 
L 376.886945 211.621837 
L 377.049354 211.616724 
L 377.374171 212.179654 
L 377.536579 212.0454 
L 377.861396 212.247706 
L 378.186213 212.528201 
L 378.348622 212.51921 
L 378.51103 212.787981 
L 378.673439 212.584705 
L 378.835847 212.868815 
L 378.998255 212.892263 
L 379.647889 213.472205 
L 379.810298 213.398864 
L 380.135115 213.669398 
L 380.297523 213.612453 
L 380.62234 213.984712 
L 380.784749 214.106448 
L 380.947157 213.963468 
L 381.109566 214.377864 
L 381.434383 214.527103 
L 381.921608 214.997033 
L 382.084017 214.66259 
L 382.408834 215.134901 
L 382.73365 215.238213 
L 383.058467 215.570276 
L 383.87051 215.93328 
L 384.032918 216.131531 
L 384.195327 216.12871 
L 384.682552 216.675596 
L 385.007369 216.664048 
L 387.605905 218.304353 
L 387.768313 218.576915 
L 387.930722 218.245116 
L 388.255539 218.726683 
L 388.417947 218.653253 
L 388.905173 219.104584 
L 389.22999 219.240071 
L 391.178891 220.353765 
L 391.3413 220.318682 
L 391.990934 220.857369 
L 392.965385 221.291335 
L 393.127793 221.549351 
L 393.290201 221.477773 
L 393.45261 221.725917 
L 393.939835 221.908653 
L 394.264652 222.215329 
L 394.427061 222.009144 
L 394.589469 222.247327 
L 394.751878 222.266368 
L 395.076695 222.607158 
L 395.239103 222.52985 
L 395.726329 223.01265 
L 395.888737 222.882893 
L 396.375963 223.383676 
L 396.700779 223.402188 
L 397.188005 223.729755 
L 397.512822 223.948985 
L 397.67523 223.918573 
L 397.837639 224.172711 
L 398.000047 224.179323 
L 398.324864 224.366819 
L 398.487273 224.473569 
L 398.487273 224.473569 
" clip-path="url(#p03d5b33e9f)" style="fill: none; stroke-dasharray: 1.85,0.8; stroke-dashoffset: 0; stroke: #80ffb4; stroke-width: 0.5"/>
   </g>
   <g id="line2d_17">
    <path d="M 73.832727 295.488 
L 200.998565 295.377107 
L 203.759509 295.247349 
L 207.332495 294.897039 
L 209.118989 294.528217 
L 209.931031 294.339134 
L 211.879933 293.659405 
L 214.965694 291.845796 
L 215.777736 291.118113 
L 216.589779 290.316825 
L 217.564229 289.173336 
L 220.000357 285.226219 
L 221.137216 282.903099 
L 222.436484 279.674498 
L 224.222977 274.447787 
L 226.334287 266.910916 
L 227.795963 261.044674 
L 229.582457 253.150616 
L 231.044133 246.308988 
L 239.164557 203.943484 
L 245.823304 169.03534 
L 249.883516 149.322322 
L 250.045925 148.841196 
L 250.695559 145.883569 
L 252.969277 135.511952 
L 253.131686 135.302947 
L 253.943728 131.690097 
L 254.268545 130.408388 
L 256.217447 122.745902 
L 256.704672 121.104275 
L 257.354306 118.47448 
L 258.491166 114.583691 
L 259.140799 112.281639 
L 259.303208 111.921016 
L 259.628025 110.402005 
L 259.952842 109.935689 
L 260.440067 108.005721 
L 261.089701 106.198459 
L 261.25211 105.985134 
L 261.576927 104.453342 
L 261.739335 104.148077 
L 262.226561 102.46449 
L 262.388969 102.264123 
L 262.876194 100.575159 
L 263.038603 100.372236 
L 264.337871 96.847096 
L 264.500279 96.607591 
L 264.825096 95.567062 
L 264.987505 95.389263 
L 265.637139 93.645204 
L 265.961956 92.792788 
L 266.124364 92.805217 
L 266.449181 91.802593 
L 266.611589 91.545017 
L 267.261223 89.891666 
L 267.423632 89.854378 
L 267.748449 89.03017 
L 267.910857 88.822752 
L 268.235674 87.778962 
L 268.398083 87.604952 
L 268.560491 87.23331 
L 268.7229 87.165875 
L 269.047717 86.595188 
L 269.210125 86.201331 
L 269.372534 86.237826 
L 269.69735 85.135768 
L 269.859759 85.049204 
L 270.022167 84.818602 
L 270.346984 83.993601 
L 270.509393 84.003209 
L 270.996618 82.987363 
L 271.159027 82.699992 
L 271.321435 82.760727 
L 271.808661 81.721609 
L 272.295886 81.054045 
L 272.458295 80.736262 
L 272.620703 80.743667 
L 272.783112 80.569658 
L 273.107929 80.03714 
L 273.270337 79.886843 
L 273.595154 79.373807 
L 274.732013 78.207135 
L 274.894422 77.742581 
L 275.05683 77.769203 
L 275.219239 77.195784 
L 275.381647 77.387423 
L 275.706464 76.879764 
L 276.031281 76.819293 
L 276.518507 76.294092 
L 276.680915 76.425172 
L 276.843323 75.880754 
L 277.005732 76.129955 
L 277.330549 75.515017 
L 277.492957 75.908433 
L 277.655366 75.358726 
L 277.817774 75.356611 
L 277.980183 75.18031 
L 278.142591 75.170966 
L 278.305 74.88289 
L 278.467408 75.076821 
L 278.629817 74.769087 
L 279.117042 74.723337 
L 279.279451 74.424859 
L 279.441859 74.375143 
L 279.766676 74.05736 
L 279.929085 74.005527 
L 280.091493 74.096675 
L 280.253901 73.814241 
L 280.41631 74.12982 
L 280.578718 74.100289 
L 280.903535 73.516468 
L 281.065944 73.901862 
L 281.390761 73.423998 
L 281.553169 73.481032 
L 281.715578 73.394556 
L 281.877986 73.582757 
L 282.040395 73.424615 
L 282.365212 73.742133 
L 282.690029 73.451237 
L 282.852437 73.644375 
L 283.177254 73.415095 
L 283.502071 73.545558 
L 283.826888 73.433607 
L 283.989296 73.231477 
L 284.151705 73.688362 
L 284.314113 73.408572 
L 284.476522 73.453969 
L 284.801339 73.259774 
L 285.126156 73.294593 
L 285.450973 73.772545 
L 285.77579 73.503334 
L 286.263015 73.599241 
L 286.425424 73.956339 
L 286.912649 73.6851 
L 287.075058 74.030298 
L 287.237466 73.925751 
L 288.049508 74.514156 
L 288.211917 74.398679 
L 288.374325 74.484626 
L 288.536734 74.40529 
L 289.023959 74.866494 
L 289.186368 74.673708 
L 289.511185 75.208165 
L 289.673593 74.914888 
L 289.836002 75.009121 
L 290.160819 75.350705 
L 290.323227 75.360666 
L 290.485636 75.648125 
L 290.648044 75.538642 
L 290.810452 76.012098 
L 290.972861 75.832624 
L 291.135269 75.850166 
L 291.460086 76.33279 
L 291.622495 76.315777 
L 291.947312 76.73079 
L 292.10972 76.729996 
L 292.434537 77.115038 
L 293.084171 77.479893 
L 293.733805 78.232258 
L 293.896214 78.231905 
L 294.221031 78.550569 
L 294.545847 78.67398 
L 295.033073 79.559276 
L 295.195481 79.533007 
L 295.35789 79.830074 
L 295.520298 79.770485 
L 295.682707 80.17157 
L 296.169932 80.411427 
L 296.332341 80.883121 
L 296.494749 80.832699 
L 296.981975 81.410614 
L 297.144383 81.331455 
L 297.4692 81.996639 
L 297.631609 81.901965 
L 297.956425 82.58566 
L 298.281242 82.932974 
L 298.443651 82.894187 
L 298.768468 83.355655 
L 299.093285 84.161351 
L 299.255693 84.114632 
L 299.418102 84.220677 
L 299.742919 84.650058 
L 299.905327 84.652438 
L 300.067736 85.288092 
L 300.230144 85.321148 
L 300.879778 86.242145 
L 301.042187 86.219755 
L 301.854229 87.5979 
L 302.016637 87.428211 
L 302.503863 88.465566 
L 303.153497 89.411686 
L 303.640722 90.082423 
L 303.965539 90.729096 
L 304.127948 90.744875 
L 305.102398 92.343926 
L 305.264807 92.802926 
L 305.427215 92.716626 
L 305.752032 93.326452 
L 305.914441 93.902604 
L 306.076849 93.7717 
L 306.888892 95.087347 
L 307.0513 95.234735 
L 307.376117 96.075515 
L 307.538526 96.054623 
L 307.700934 96.234274 
L 308.025751 97.14813 
L 308.18816 97.073819 
L 308.350568 97.475698 
L 308.512976 97.579627 
L 309.000202 98.667141 
L 309.16261 98.571762 
L 309.649836 99.748307 
L 309.974653 100.133172 
L 310.137061 100.569429 
L 310.29947 100.661987 
L 310.949104 102.017478 
L 311.111512 102.090731 
L 311.273921 102.610026 
L 311.436329 102.693857 
L 312.573188 104.792634 
L 312.735597 104.741066 
L 313.060414 105.770223 
L 313.385231 106.270742 
L 313.710048 106.825738 
L 313.872456 107.314004 
L 314.034865 107.381351 
L 315.821358 110.487247 
L 315.983766 111.059608 
L 316.146175 111.121843 
L 316.795809 112.429468 
L 319.394344 117.355232 
L 319.556753 117.808326 
L 319.719161 117.850726 
L 319.88157 118.092523 
L 320.206387 118.824261 
L 320.368795 119.045695 
L 320.856021 120.305983 
L 321.018429 120.228852 
L 321.505655 121.447974 
L 322.480106 123.172375 
L 322.642514 123.619474 
L 322.804922 123.629788 
L 323.292148 124.814531 
L 323.454556 124.968266 
L 323.616965 125.528991 
L 323.941782 125.844747 
L 324.266599 126.659522 
L 324.429007 126.793158 
L 324.591416 127.376362 
L 324.753824 127.54376 
L 325.24105 128.619285 
L 325.403458 128.817888 
L 325.728275 129.410612 
L 325.890684 129.650734 
L 326.053092 130.288768 
L 326.2155 130.432806 
L 327.027543 132.035559 
L 327.35236 132.790657 
L 328.001994 133.73422 
L 328.164402 134.292301 
L 328.489219 134.754034 
L 328.651628 134.962774 
L 329.301262 136.349823 
L 329.46367 136.513254 
L 329.626078 137.025056 
L 329.788487 137.118143 
L 330.438121 138.565575 
L 330.600529 138.638035 
L 330.925346 139.481019 
L 331.737389 141.045514 
L 331.899797 141.638768 
L 332.062206 141.625369 
L 332.387023 142.323874 
L 332.874248 143.213842 
L 333.199065 143.916842 
L 333.848699 145.367095 
L 334.011107 145.447841 
L 334.335924 146.132682 
L 339.370587 155.747438 
L 339.532996 155.771327 
L 341.806714 160.197719 
L 342.29394 160.995393 
L 342.618757 161.812548 
L 342.781165 161.777817 
L 343.105982 162.441326 
L 343.593208 163.512884 
L 343.755616 163.561808 
L 344.080433 164.479543 
L 344.40525 164.903283 
L 345.217292 166.273054 
L 345.704518 167.305297 
L 345.866926 167.458062 
L 346.841377 169.405484 
L 347.003786 169.577113 
L 347.166194 170.065819 
L 347.328602 170.041402 
L 348.303053 171.891417 
L 348.952687 172.938558 
L 349.76473 174.280473 
L 350.251955 175.085376 
L 352.038448 178.420992 
L 352.200857 178.467712 
L 352.363265 178.711184 
L 352.688082 179.439925 
L 354.799392 182.97626 
L 354.961801 183.078779 
L 355.286618 183.635802 
L 355.936252 184.766421 
L 357.560337 187.47326 
L 357.722745 187.904669 
L 357.885153 187.910046 
L 361.295732 193.271626 
L 361.782957 193.855712 
L 362.107774 194.488457 
L 362.432591 194.905056 
L 362.919816 195.784534 
L 363.082225 195.931922 
L 363.244633 196.247677 
L 363.407042 196.18606 
L 363.731859 196.926172 
L 364.543901 198.354387 
L 364.70631 198.345924 
L 364.868718 198.530512 
L 365.193535 199.192258 
L 366.167986 200.506582 
L 366.655211 201.335903 
L 367.142437 201.857754 
L 367.467254 202.455503 
L 368.116888 203.201609 
L 368.441704 203.875696 
L 369.253747 204.934472 
L 369.578564 205.370289 
L 369.740972 205.558843 
L 369.903381 205.95455 
L 370.065789 206.047108 
L 370.228198 206.422894 
L 370.390606 206.416724 
L 372.014691 208.839982 
L 372.177099 208.781186 
L 372.501916 209.302244 
L 372.664325 209.46779 
L 372.989142 210.036273 
L 373.638776 210.767658 
L 374.613227 212.161406 
L 374.938044 212.512158 
L 375.100452 212.846072 
L 375.262861 212.754483 
L 375.425269 213.262759 
L 375.587677 213.364838 
L 376.074903 214.126194 
L 376.724537 214.933212 
L 376.886945 215.207184 
L 377.049354 215.190788 
L 377.211762 215.521617 
L 377.374171 215.581383 
L 377.698988 216.225764 
L 377.861396 216.14969 
L 378.023805 216.533409 
L 378.186213 216.603753 
L 378.673439 217.27643 
L 378.835847 217.725204 
L 378.998255 217.705635 
L 380.135115 219.067561 
L 380.297523 219.14575 
L 381.109566 220.373687 
L 381.271974 220.273637 
L 381.434383 220.771158 
L 381.596791 220.829161 
L 386.956271 227.029935 
L 387.118679 227.02015 
L 387.281088 227.377072 
L 387.443496 227.433665 
L 387.768313 227.813064 
L 388.417947 228.51915 
L 388.580356 228.600778 
L 388.742764 228.965104 
L 388.905173 229.015262 
L 389.22999 229.431332 
L 390.042032 230.194892 
L 390.691666 230.909 
L 390.854074 231.014516 
L 391.178891 231.388098 
L 391.503708 231.725538 
L 391.828525 232.200141 
L 391.990934 232.072587 
L 392.802976 233.074153 
L 393.290201 233.554045 
L 393.45261 233.586396 
L 393.615018 233.912289 
L 393.777427 233.972055 
L 393.939835 234.29689 
L 394.102244 234.322012 
L 394.264652 234.54803 
L 394.427061 234.556934 
L 394.751878 235.052252 
L 398.487273 238.598548 
L 398.487273 238.598548 
" clip-path="url(#p03d5b33e9f)" style="fill: none; stroke-dasharray: 1.85,0.8; stroke-dashoffset: 0; stroke: #ff0000; stroke-width: 0.5"/>
   </g>
   <g id="patch_3">
    <path d="M 57.6 307.584 
L 57.6 41.472 
" style="fill: none; stroke: #000000; stroke-width: 0.8; stroke-linejoin: miter; stroke-linecap: square"/>
   </g>
   <g id="patch_4">
    <path d="M 414.72 307.584 
L 414.72 41.472 
" style="fill: none; stroke: #000000; stroke-width: 0.8; stroke-linejoin: miter; stroke-linecap: square"/>
   </g>
   <g id="patch_5">
    <path d="M 57.6 307.584 
L 414.72 307.584 
" style="fill: none; stroke: #000000; stroke-width: 0.8; stroke-linejoin: miter; stroke-linecap: square"/>
   </g>
   <g id="patch_6">
    <path d="M 57.6 41.472 
L 414.72 41.472 
" style="fill: none; stroke: #000000; stroke-width: 0.8; stroke-linejoin: miter; stroke-linecap: square"/>
   </g>
   <g id="legend_1">
    <g id="patch_7">
     <path d="M 243.16 121.6832 
L 483.36 121.6832 
Q 485.36 121.6832 485.36 119.6832 
L 485.36 75.0832 
Q 485.36 73.0832 483.36 73.0832 
L 243.16 73.0832 
Q 241.16 73.0832 241.16 75.0832 
L 241.16 119.6832 
Q 241.16 121.6832 243.16 121.6832 
z
" style="fill: #ffffff; opacity: 0.8; stroke: #cccccc; stroke-linejoin: miter"/>
    </g>
    <g id="line2d_18">
     <path d="M 245.16 81.3832 
L 255.16 81.3832 
L 265.16 81.3832 
" style="fill: none; stroke-dasharray: 1.85,0.8; stroke-dashoffset: 0; stroke: #8000ff; stroke-width: 0.5"/>
    </g>
    <g id="text_18">
     <!-- $\rho'$: 8e-04, E=8e-01eV, s_tun=1e+10$s^-1$ -->
     <g transform="translate(273.16 84.8832) scale(0.1 -0.1)">
      <defs>
       <path id="DejaVuSans-Oblique-3c1" d="M 1203 2875 
Q 1453 3194 1981 3475 
Q 2188 3584 2756 3584 
Q 3394 3584 3694 3078 
Q 3994 2572 3834 1747 
Q 3672 922 3175 415 
Q 2678 -91 2041 -91 
Q 1656 -91 1409 63 
Q 1163 213 1044 525 
L 681 -1331 
L 103 -1331 
L 697 1716 
Q 838 2438 1203 2875 
z
M 3238 1747 
Q 3359 2381 3169 2744 
Q 2978 3103 2522 3103 
Q 2066 3103 1734 2744 
Q 1403 2381 1281 1747 
Q 1156 1113 1347 750 
Q 1538 391 1994 391 
Q 2450 391 2781 750 
Q 3113 1113 3238 1747 
z
" transform="scale(0.015625)"/>
       <path id="Cmsy10-30" d="M 225 347 
Q 184 359 184 409 
L 966 3316 
Q 1003 3434 1093 3506 
Q 1184 3578 1300 3578 
Q 1450 3578 1564 3479 
Q 1678 3381 1678 3231 
Q 1678 3166 1644 3084 
L 488 319 
Q 466 275 428 275 
Q 394 275 320 306 
Q 247 338 225 347 
z
" transform="scale(0.015625)"/>
       <path id="DejaVuSans-3a" d="M 750 794 
L 1409 794 
L 1409 0 
L 750 0 
L 750 794 
z
M 750 3309 
L 1409 3309 
L 1409 2516 
L 750 2516 
L 750 3309 
z
" transform="scale(0.015625)"/>
       <path id="DejaVuSans-2d" d="M 313 2009 
L 1997 2009 
L 1997 1497 
L 313 1497 
L 313 2009 
z
" transform="scale(0.015625)"/>
       <path id="DejaVuSans-2c" d="M 750 794 
L 1409 794 
L 1409 256 
L 897 -744 
L 494 -744 
L 750 256 
L 750 794 
z
" transform="scale(0.015625)"/>
       <path id="DejaVuSans-45" d="M 628 4666 
L 3578 4666 
L 3578 4134 
L 1259 4134 
L 1259 2753 
L 3481 2753 
L 3481 2222 
L 1259 2222 
L 1259 531 
L 3634 531 
L 3634 0 
L 628 0 
L 628 4666 
z
" transform="scale(0.015625)"/>
       <path id="DejaVuSans-3d" d="M 678 2906 
L 4684 2906 
L 4684 2381 
L 678 2381 
L 678 2906 
z
M 678 1631 
L 4684 1631 
L 4684 1100 
L 678 1100 
L 678 1631 
z
" transform="scale(0.015625)"/>
       <path id="DejaVuSans-56" d="M 1831 0 
L 50 4666 
L 709 4666 
L 2188 738 
L 3669 4666 
L 4325 4666 
L 2547 0 
L 1831 0 
z
" transform="scale(0.015625)"/>
       <path id="DejaVuSans-5f" d="M 3263 -1063 
L 3263 -1509 
L -63 -1509 
L -63 -1063 
L 3263 -1063 
z
" transform="scale(0.015625)"/>
       <path id="DejaVuSans-2b" d="M 2944 4013 
L 2944 2272 
L 4684 2272 
L 4684 1741 
L 2944 1741 
L 2944 0 
L 2419 0 
L 2419 1741 
L 678 1741 
L 678 2272 
L 2419 2272 
L 2419 4013 
L 2944 4013 
z
" transform="scale(0.015625)"/>
       <path id="DejaVuSans-Oblique-73" d="M 3200 3397 
L 3091 2853 
Q 2863 2978 2609 3040 
Q 2356 3103 2088 3103 
Q 1634 3103 1373 2948 
Q 1113 2794 1113 2528 
Q 1113 2219 1719 2053 
Q 1766 2041 1788 2034 
L 1972 1978 
Q 2547 1819 2739 1644 
Q 2931 1469 2931 1166 
Q 2931 609 2489 259 
Q 2047 -91 1331 -91 
Q 1053 -91 747 -37 
Q 441 16 72 128 
L 184 722 
Q 500 559 806 475 
Q 1113 391 1394 391 
Q 1816 391 2080 572 
Q 2344 753 2344 1031 
Q 2344 1331 1650 1516 
L 1591 1531 
L 1394 1581 
Q 956 1697 753 1886 
Q 550 2075 550 2369 
Q 550 2928 970 3256 
Q 1391 3584 2113 3584 
Q 2397 3584 2667 3537 
Q 2938 3491 3200 3397 
z
" transform="scale(0.015625)"/>
      </defs>
      <use xlink:href="#DejaVuSans-Oblique-3c1" transform="translate(0 0.584375)"/>
      <use xlink:href="#Cmsy10-30" transform="translate(68.126458 38.865625) scale(0.7)"/>
      <use xlink:href="#DejaVuSans-3a" transform="translate(90.103997 0.584375)"/>
      <use xlink:href="#DejaVuSans-20" transform="translate(123.795404 0.584375)"/>
      <use xlink:href="#DejaVuSans-38" transform="translate(155.582513 0.584375)"/>
      <use xlink:href="#DejaVuSans-65" transform="translate(219.20556 0.584375)"/>
      <use xlink:href="#DejaVuSans-2d" transform="translate(280.728997 0.584375)"/>
      <use xlink:href="#DejaVuSans-30" transform="translate(316.812982 0.584375)"/>
      <use xlink:href="#DejaVuSans-34" transform="translate(380.436029 0.584375)"/>
      <use xlink:href="#DejaVuSans-2c" transform="translate(444.059076 0.584375)"/>
      <use xlink:href="#DejaVuSans-20" transform="translate(475.846185 0.584375)"/>
      <use xlink:href="#DejaVuSans-45" transform="translate(507.633294 0.584375)"/>
      <use xlink:href="#DejaVuSans-3d" transform="translate(570.816888 0.584375)"/>
      <use xlink:href="#DejaVuSans-38" transform="translate(654.605951 0.584375)"/>
      <use xlink:href="#DejaVuSans-65" transform="translate(718.228997 0.584375)"/>
      <use xlink:href="#DejaVuSans-2d" transform="translate(779.752435 0.584375)"/>
      <use xlink:href="#DejaVuSans-30" transform="translate(815.836419 0.584375)"/>
      <use xlink:href="#DejaVuSans-31" transform="translate(879.459466 0.584375)"/>
      <use xlink:href="#DejaVuSans-65" transform="translate(943.082513 0.584375)"/>
      <use xlink:href="#DejaVuSans-56" transform="translate(1004.605951 0.584375)"/>
      <use xlink:href="#DejaVuSans-2c" transform="translate(1073.014154 0.584375)"/>
      <use xlink:href="#DejaVuSans-20" transform="translate(1104.801263 0.584375)"/>
      <use xlink:href="#DejaVuSans-73" transform="translate(1136.588372 0.584375)"/>
      <use xlink:href="#DejaVuSans-5f" transform="translate(1188.687982 0.584375)"/>
      <use xlink:href="#DejaVuSans-74" transform="translate(1238.687982 0.584375)"/>
      <use xlink:href="#DejaVuSans-75" transform="translate(1277.896966 0.584375)"/>
      <use xlink:href="#DejaVuSans-6e" transform="translate(1341.275872 0.584375)"/>
      <use xlink:href="#DejaVuSans-3d" transform="translate(1404.654779 0.584375)"/>
      <use xlink:href="#DejaVuSans-31" transform="translate(1488.443841 0.584375)"/>
      <use xlink:href="#DejaVuSans-65" transform="translate(1552.066888 0.584375)"/>
      <use xlink:href="#DejaVuSans-2b" transform="translate(1613.590326 0.584375)"/>
      <use xlink:href="#DejaVuSans-31" transform="translate(1697.379388 0.584375)"/>
      <use xlink:href="#DejaVuSans-30" transform="translate(1761.002435 0.584375)"/>
      <use xlink:href="#DejaVuSans-Oblique-73" transform="translate(1824.625482 0.584375)"/>
      <use xlink:href="#DejaVuSans-2212" transform="translate(1895.012682 38.865625) scale(0.7)"/>
      <use xlink:href="#DejaVuSans-31" transform="translate(1970.037096 0.584375)"/>
     </g>
    </g>
    <g id="line2d_19">
     <path d="M 245.16 96.5832 
L 255.16 96.5832 
L 265.16 96.5832 
" style="fill: none; stroke-dasharray: 1.85,0.8; stroke-dashoffset: 0; stroke: #80ffb4; stroke-width: 0.5"/>
    </g>
    <g id="text_19">
     <!-- $\rho'$: 3e-04, E=8e-01eV, s_tun=1e+10$s^-1$ -->
     <g transform="translate(273.16 100.0832) scale(0.1 -0.1)">
      <defs>
       <path id="DejaVuSans-33" d="M 2597 2516 
Q 3050 2419 3304 2112 
Q 3559 1806 3559 1356 
Q 3559 666 3084 287 
Q 2609 -91 1734 -91 
Q 1441 -91 1130 -33 
Q 819 25 488 141 
L 488 750 
Q 750 597 1062 519 
Q 1375 441 1716 441 
Q 2309 441 2620 675 
Q 2931 909 2931 1356 
Q 2931 1769 2642 2001 
Q 2353 2234 1838 2234 
L 1294 2234 
L 1294 2753 
L 1863 2753 
Q 2328 2753 2575 2939 
Q 2822 3125 2822 3475 
Q 2822 3834 2567 4026 
Q 2313 4219 1838 4219 
Q 1578 4219 1281 4162 
Q 984 4106 628 3988 
L 628 4550 
Q 988 4650 1302 4700 
Q 1616 4750 1894 4750 
Q 2613 4750 3031 4423 
Q 3450 4097 3450 3541 
Q 3450 3153 3228 2886 
Q 3006 2619 2597 2516 
z
" transform="scale(0.015625)"/>
      </defs>
      <use xlink:href="#DejaVuSans-Oblique-3c1" transform="translate(0 0.584375)"/>
      <use xlink:href="#Cmsy10-30" transform="translate(68.126458 38.865625) scale(0.7)"/>
      <use xlink:href="#DejaVuSans-3a" transform="translate(90.103997 0.584375)"/>
      <use xlink:href="#DejaVuSans-20" transform="translate(123.795404 0.584375)"/>
      <use xlink:href="#DejaVuSans-33" transform="translate(155.582513 0.584375)"/>
      <use xlink:href="#DejaVuSans-65" transform="translate(219.20556 0.584375)"/>
      <use xlink:href="#DejaVuSans-2d" transform="translate(280.728997 0.584375)"/>
      <use xlink:href="#DejaVuSans-30" transform="translate(316.812982 0.584375)"/>
      <use xlink:href="#DejaVuSans-34" transform="translate(380.436029 0.584375)"/>
      <use xlink:href="#DejaVuSans-2c" transform="translate(444.059076 0.584375)"/>
      <use xlink:href="#DejaVuSans-20" transform="translate(475.846185 0.584375)"/>
      <use xlink:href="#DejaVuSans-45" transform="translate(507.633294 0.584375)"/>
      <use xlink:href="#DejaVuSans-3d" transform="translate(570.816888 0.584375)"/>
      <use xlink:href="#DejaVuSans-38" transform="translate(654.605951 0.584375)"/>
      <use xlink:href="#DejaVuSans-65" transform="translate(718.228997 0.584375)"/>
      <use xlink:href="#DejaVuSans-2d" transform="translate(779.752435 0.584375)"/>
      <use xlink:href="#DejaVuSans-30" transform="translate(815.836419 0.584375)"/>
      <use xlink:href="#DejaVuSans-31" transform="translate(879.459466 0.584375)"/>
      <use xlink:href="#DejaVuSans-65" transform="translate(943.082513 0.584375)"/>
      <use xlink:href="#DejaVuSans-56" transform="translate(1004.605951 0.584375)"/>
      <use xlink:href="#DejaVuSans-2c" transform="translate(1073.014154 0.584375)"/>
      <use xlink:href="#DejaVuSans-20" transform="translate(1104.801263 0.584375)"/>
      <use xlink:href="#DejaVuSans-73" transform="translate(1136.588372 0.584375)"/>
      <use xlink:href="#DejaVuSans-5f" transform="translate(1188.687982 0.584375)"/>
      <use xlink:href="#DejaVuSans-74" transform="translate(1238.687982 0.584375)"/>
      <use xlink:href="#DejaVuSans-75" transform="translate(1277.896966 0.584375)"/>
      <use xlink:href="#DejaVuSans-6e" transform="translate(1341.275872 0.584375)"/>
      <use xlink:href="#DejaVuSans-3d" transform="translate(1404.654779 0.584375)"/>
      <use xlink:href="#DejaVuSans-31" transform="translate(1488.443841 0.584375)"/>
      <use xlink:href="#DejaVuSans-65" transform="translate(1552.066888 0.584375)"/>
      <use xlink:href="#DejaVuSans-2b" transform="translate(1613.590326 0.584375)"/>
      <use xlink:href="#DejaVuSans-31" transform="translate(1697.379388 0.584375)"/>
      <use xlink:href="#DejaVuSans-30" transform="translate(1761.002435 0.584375)"/>
      <use xlink:href="#DejaVuSans-Oblique-73" transform="translate(1824.625482 0.584375)"/>
      <use xlink:href="#DejaVuSans-2212" transform="translate(1895.012682 38.865625) scale(0.7)"/>
      <use xlink:href="#DejaVuSans-31" transform="translate(1970.037096 0.584375)"/>
     </g>
    </g>
    <g id="line2d_20">
     <path d="M 245.16 111.7832 
L 255.16 111.7832 
L 265.16 111.7832 
" style="fill: none; stroke-dasharray: 1.85,0.8; stroke-dashoffset: 0; stroke: #ff0000; stroke-width: 0.5"/>
    </g>
    <g id="text_20">
     <!-- $\rho'$: 3e-04, E=1e+00eV, s_tun=1e+12$s^-1$ -->
     <g transform="translate(273.16 115.2832) scale(0.1 -0.1)">
      <use xlink:href="#DejaVuSans-Oblique-3c1" transform="translate(0 0.584375)"/>
      <use xlink:href="#Cmsy10-30" transform="translate(68.126458 38.865625) scale(0.7)"/>
      <use xlink:href="#DejaVuSans-3a" transform="translate(90.103997 0.584375)"/>
      <use xlink:href="#DejaVuSans-20" transform="translate(123.795404 0.584375)"/>
      <use xlink:href="#DejaVuSans-33" transform="translate(155.582513 0.584375)"/>
      <use xlink:href="#DejaVuSans-65" transform="translate(219.20556 0.584375)"/>
      <use xlink:href="#DejaVuSans-2d" transform="translate(280.728997 0.584375)"/>
      <use xlink:href="#DejaVuSans-30" transform="translate(316.812982 0.584375)"/>
      <use xlink:href="#DejaVuSans-34" transform="translate(380.436029 0.584375)"/>
      <use xlink:href="#DejaVuSans-2c" transform="translate(444.059076 0.584375)"/>
      <use xlink:href="#DejaVuSans-20" transform="translate(475.846185 0.584375)"/>
      <use xlink:href="#DejaVuSans-45" transform="translate(507.633294 0.584375)"/>
      <use xlink:href="#DejaVuSans-3d" transform="translate(570.816888 0.584375)"/>
      <use xlink:href="#DejaVuSans-31" transform="translate(654.605951 0.584375)"/>
      <use xlink:href="#DejaVuSans-65" transform="translate(718.228997 0.584375)"/>
      <use xlink:href="#DejaVuSans-2b" transform="translate(779.752435 0.584375)"/>
      <use xlink:href="#DejaVuSans-30" transform="translate(863.541497 0.584375)"/>
      <use xlink:href="#DejaVuSans-30" transform="translate(927.164544 0.584375)"/>
      <use xlink:href="#DejaVuSans-65" transform="translate(990.787591 0.584375)"/>
      <use xlink:href="#DejaVuSans-56" transform="translate(1052.311029 0.584375)"/>
      <use xlink:href="#DejaVuSans-2c" transform="translate(1120.719232 0.584375)"/>
      <use xlink:href="#DejaVuSans-20" transform="translate(1152.506341 0.584375)"/>
      <use xlink:href="#DejaVuSans-73" transform="translate(1184.293451 0.584375)"/>
      <use xlink:href="#DejaVuSans-5f" transform="translate(1236.39306 0.584375)"/>
      <use xlink:href="#DejaVuSans-74" transform="translate(1286.39306 0.584375)"/>
      <use xlink:href="#DejaVuSans-75" transform="translate(1325.602044 0.584375)"/>
      <use xlink:href="#DejaVuSans-6e" transform="translate(1388.980951 0.584375)"/>
      <use xlink:href="#DejaVuSans-3d" transform="translate(1452.359857 0.584375)"/>
      <use xlink:href="#DejaVuSans-31" transform="translate(1536.148919 0.584375)"/>
      <use xlink:href="#DejaVuSans-65" transform="translate(1599.771966 0.584375)"/>
      <use xlink:href="#DejaVuSans-2b" transform="translate(1661.295404 0.584375)"/>
      <use xlink:href="#DejaVuSans-31" transform="translate(1745.084466 0.584375)"/>
      <use xlink:href="#DejaVuSans-32" transform="translate(1808.707513 0.584375)"/>
      <use xlink:href="#DejaVuSans-Oblique-73" transform="translate(1872.33056 0.584375)"/>
      <use xlink:href="#DejaVuSans-2212" transform="translate(1942.71776 38.865625) scale(0.7)"/>
      <use xlink:href="#DejaVuSans-31" transform="translate(2017.742174 0.584375)"/>
     </g>
    </g>
   </g>
  </g>
 </g>
 <defs>
  <clipPath id="p03d5b33e9f">
   <rect x="57.6" y="41.472" width="357.12" height="266.112"/>
  </clipPath>
 </defs>
</svg>
