<?xml version="1.0" encoding="utf-8" standalone="no"?>
<!DOCTYPE svg PUBLIC "-//W3C//DTD SVG 1.1//EN"
  "http://www.w3.org/Graphics/SVG/1.1/DTD/svg11.dtd">
<svg xmlns:xlink="http://www.w3.org/1999/xlink" width="460.8pt" height="345.6pt" viewBox="0 0 460.8 345.6" xmlns="http://www.w3.org/2000/svg" version="1.1">
 <metadata>
  <rdf:RDF xmlns:dc="http://purl.org/dc/elements/1.1/" xmlns:cc="http://creativecommons.org/ns#" xmlns:rdf="http://www.w3.org/1999/02/22-rdf-syntax-ns#">
   <cc:Work>
    <dc:type rdf:resource="http://purl.org/dc/dcmitype/StillImage"/>
    <dc:date>2025-03-23T15:15:08.334669</dc:date>
    <dc:format>image/svg+xml</dc:format>
    <dc:creator>
     <cc:Agent>
      <dc:title>Matplotlib v3.10.0, https://matplotlib.org/</dc:title>
     </cc:Agent>
    </dc:creator>
   </cc:Work>
  </rdf:RDF>
 </metadata>
 <defs>
  <style type="text/css">*{stroke-linejoin: round; stroke-linecap: butt}</style>
 </defs>
 <g id="figure_1">
  <g id="patch_1">
   <path d="M 0 345.6 
L 460.8 345.6 
L 460.8 0 
L 0 0 
z
" style="fill: #ffffff"/>
  </g>
  <g id="axes_1">
   <g id="patch_2">
    <path d="M 57.6 307.584 
L 414.72 307.584 
L 414.72 41.472 
L 57.6 41.472 
z
" style="fill: #ffffff"/>
   </g>
   <g id="matplotlib.axis_1">
    <g id="xtick_1">
     <g id="line2d_1">
      <defs>
       <path id="mb421a895d6" d="M 0 0 
L 0 3.5 
" style="stroke: #000000; stroke-width: 0.8"/>
      </defs>
      <g>
       <use xlink:href="#mb421a895d6" x="63.159153" y="307.584" style="stroke: #000000; stroke-width: 0.8"/>
      </g>
     </g>
     <g id="text_1">
      <!-- 0 -->
      <g transform="translate(59.977903 322.182437) scale(0.1 -0.1)">
       <defs>
        <path id="DejaVuSans-30" d="M 2034 4250 
Q 1547 4250 1301 3770 
Q 1056 3291 1056 2328 
Q 1056 1369 1301 889 
Q 1547 409 2034 409 
Q 2525 409 2770 889 
Q 3016 1369 3016 2328 
Q 3016 3291 2770 3770 
Q 2525 4250 2034 4250 
z
M 2034 4750 
Q 2819 4750 3233 4129 
Q 3647 3509 3647 2328 
Q 3647 1150 3233 529 
Q 2819 -91 2034 -91 
Q 1250 -91 836 529 
Q 422 1150 422 2328 
Q 422 3509 836 4129 
Q 1250 4750 2034 4750 
z
" transform="scale(0.015625)"/>
       </defs>
       <use xlink:href="#DejaVuSans-30"/>
      </g>
     </g>
    </g>
    <g id="xtick_2">
     <g id="line2d_2">
      <g>
       <use xlink:href="#mb421a895d6" x="107.632379" y="307.584" style="stroke: #000000; stroke-width: 0.8"/>
      </g>
     </g>
     <g id="text_2">
      <!-- 100 -->
      <g transform="translate(98.088629 322.182437) scale(0.1 -0.1)">
       <defs>
        <path id="DejaVuSans-31" d="M 794 531 
L 1825 531 
L 1825 4091 
L 703 3866 
L 703 4441 
L 1819 4666 
L 2450 4666 
L 2450 531 
L 3481 531 
L 3481 0 
L 794 0 
L 794 531 
z
" transform="scale(0.015625)"/>
       </defs>
       <use xlink:href="#DejaVuSans-31"/>
       <use xlink:href="#DejaVuSans-30" transform="translate(63.623047 0)"/>
       <use xlink:href="#DejaVuSans-30" transform="translate(127.246094 0)"/>
      </g>
     </g>
    </g>
    <g id="xtick_3">
     <g id="line2d_3">
      <g>
       <use xlink:href="#mb421a895d6" x="152.105604" y="307.584" style="stroke: #000000; stroke-width: 0.8"/>
      </g>
     </g>
     <g id="text_3">
      <!-- 200 -->
      <g transform="translate(142.561854 322.182437) scale(0.1 -0.1)">
       <defs>
        <path id="DejaVuSans-32" d="M 1228 531 
L 3431 531 
L 3431 0 
L 469 0 
L 469 531 
Q 828 903 1448 1529 
Q 2069 2156 2228 2338 
Q 2531 2678 2651 2914 
Q 2772 3150 2772 3378 
Q 2772 3750 2511 3984 
Q 2250 4219 1831 4219 
Q 1534 4219 1204 4116 
Q 875 4013 500 3803 
L 500 4441 
Q 881 4594 1212 4672 
Q 1544 4750 1819 4750 
Q 2544 4750 2975 4387 
Q 3406 4025 3406 3419 
Q 3406 3131 3298 2873 
Q 3191 2616 2906 2266 
Q 2828 2175 2409 1742 
Q 1991 1309 1228 531 
z
" transform="scale(0.015625)"/>
       </defs>
       <use xlink:href="#DejaVuSans-32"/>
       <use xlink:href="#DejaVuSans-30" transform="translate(63.623047 0)"/>
       <use xlink:href="#DejaVuSans-30" transform="translate(127.246094 0)"/>
      </g>
     </g>
    </g>
    <g id="xtick_4">
     <g id="line2d_4">
      <g>
       <use xlink:href="#mb421a895d6" x="196.578829" y="307.584" style="stroke: #000000; stroke-width: 0.8"/>
      </g>
     </g>
     <g id="text_4">
      <!-- 300 -->
      <g transform="translate(187.035079 322.182437) scale(0.1 -0.1)">
       <defs>
        <path id="DejaVuSans-33" d="M 2597 2516 
Q 3050 2419 3304 2112 
Q 3559 1806 3559 1356 
Q 3559 666 3084 287 
Q 2609 -91 1734 -91 
Q 1441 -91 1130 -33 
Q 819 25 488 141 
L 488 750 
Q 750 597 1062 519 
Q 1375 441 1716 441 
Q 2309 441 2620 675 
Q 2931 909 2931 1356 
Q 2931 1769 2642 2001 
Q 2353 2234 1838 2234 
L 1294 2234 
L 1294 2753 
L 1863 2753 
Q 2328 2753 2575 2939 
Q 2822 3125 2822 3475 
Q 2822 3834 2567 4026 
Q 2313 4219 1838 4219 
Q 1578 4219 1281 4162 
Q 984 4106 628 3988 
L 628 4550 
Q 988 4650 1302 4700 
Q 1616 4750 1894 4750 
Q 2613 4750 3031 4423 
Q 3450 4097 3450 3541 
Q 3450 3153 3228 2886 
Q 3006 2619 2597 2516 
z
" transform="scale(0.015625)"/>
       </defs>
       <use xlink:href="#DejaVuSans-33"/>
       <use xlink:href="#DejaVuSans-30" transform="translate(63.623047 0)"/>
       <use xlink:href="#DejaVuSans-30" transform="translate(127.246094 0)"/>
      </g>
     </g>
    </g>
    <g id="xtick_5">
     <g id="line2d_5">
      <g>
       <use xlink:href="#mb421a895d6" x="241.052055" y="307.584" style="stroke: #000000; stroke-width: 0.8"/>
      </g>
     </g>
     <g id="text_5">
      <!-- 400 -->
      <g transform="translate(231.508305 322.182437) scale(0.1 -0.1)">
       <defs>
        <path id="DejaVuSans-34" d="M 2419 4116 
L 825 1625 
L 2419 1625 
L 2419 4116 
z
M 2253 4666 
L 3047 4666 
L 3047 1625 
L 3713 1625 
L 3713 1100 
L 3047 1100 
L 3047 0 
L 2419 0 
L 2419 1100 
L 313 1100 
L 313 1709 
L 2253 4666 
z
" transform="scale(0.015625)"/>
       </defs>
       <use xlink:href="#DejaVuSans-34"/>
       <use xlink:href="#DejaVuSans-30" transform="translate(63.623047 0)"/>
       <use xlink:href="#DejaVuSans-30" transform="translate(127.246094 0)"/>
      </g>
     </g>
    </g>
    <g id="xtick_6">
     <g id="line2d_6">
      <g>
       <use xlink:href="#mb421a895d6" x="285.52528" y="307.584" style="stroke: #000000; stroke-width: 0.8"/>
      </g>
     </g>
     <g id="text_6">
      <!-- 500 -->
      <g transform="translate(275.98153 322.182437) scale(0.1 -0.1)">
       <defs>
        <path id="DejaVuSans-35" d="M 691 4666 
L 3169 4666 
L 3169 4134 
L 1269 4134 
L 1269 2991 
Q 1406 3038 1543 3061 
Q 1681 3084 1819 3084 
Q 2600 3084 3056 2656 
Q 3513 2228 3513 1497 
Q 3513 744 3044 326 
Q 2575 -91 1722 -91 
Q 1428 -91 1123 -41 
Q 819 9 494 109 
L 494 744 
Q 775 591 1075 516 
Q 1375 441 1709 441 
Q 2250 441 2565 725 
Q 2881 1009 2881 1497 
Q 2881 1984 2565 2268 
Q 2250 2553 1709 2553 
Q 1456 2553 1204 2497 
Q 953 2441 691 2322 
L 691 4666 
z
" transform="scale(0.015625)"/>
       </defs>
       <use xlink:href="#DejaVuSans-35"/>
       <use xlink:href="#DejaVuSans-30" transform="translate(63.623047 0)"/>
       <use xlink:href="#DejaVuSans-30" transform="translate(127.246094 0)"/>
      </g>
     </g>
    </g>
    <g id="xtick_7">
     <g id="line2d_7">
      <g>
       <use xlink:href="#mb421a895d6" x="329.998506" y="307.584" style="stroke: #000000; stroke-width: 0.8"/>
      </g>
     </g>
     <g id="text_7">
      <!-- 600 -->
      <g transform="translate(320.454756 322.182437) scale(0.1 -0.1)">
       <defs>
        <path id="DejaVuSans-36" d="M 2113 2584 
Q 1688 2584 1439 2293 
Q 1191 2003 1191 1497 
Q 1191 994 1439 701 
Q 1688 409 2113 409 
Q 2538 409 2786 701 
Q 3034 994 3034 1497 
Q 3034 2003 2786 2293 
Q 2538 2584 2113 2584 
z
M 3366 4563 
L 3366 3988 
Q 3128 4100 2886 4159 
Q 2644 4219 2406 4219 
Q 1781 4219 1451 3797 
Q 1122 3375 1075 2522 
Q 1259 2794 1537 2939 
Q 1816 3084 2150 3084 
Q 2853 3084 3261 2657 
Q 3669 2231 3669 1497 
Q 3669 778 3244 343 
Q 2819 -91 2113 -91 
Q 1303 -91 875 529 
Q 447 1150 447 2328 
Q 447 3434 972 4092 
Q 1497 4750 2381 4750 
Q 2619 4750 2861 4703 
Q 3103 4656 3366 4563 
z
" transform="scale(0.015625)"/>
       </defs>
       <use xlink:href="#DejaVuSans-36"/>
       <use xlink:href="#DejaVuSans-30" transform="translate(63.623047 0)"/>
       <use xlink:href="#DejaVuSans-30" transform="translate(127.246094 0)"/>
      </g>
     </g>
    </g>
    <g id="xtick_8">
     <g id="line2d_8">
      <g>
       <use xlink:href="#mb421a895d6" x="374.471731" y="307.584" style="stroke: #000000; stroke-width: 0.8"/>
      </g>
     </g>
     <g id="text_8">
      <!-- 700 -->
      <g transform="translate(364.927981 322.182437) scale(0.1 -0.1)">
       <defs>
        <path id="DejaVuSans-37" d="M 525 4666 
L 3525 4666 
L 3525 4397 
L 1831 0 
L 1172 0 
L 2766 4134 
L 525 4134 
L 525 4666 
z
" transform="scale(0.015625)"/>
       </defs>
       <use xlink:href="#DejaVuSans-37"/>
       <use xlink:href="#DejaVuSans-30" transform="translate(63.623047 0)"/>
       <use xlink:href="#DejaVuSans-30" transform="translate(127.246094 0)"/>
      </g>
     </g>
    </g>
    <g id="text_9">
     <!-- Temperature ($^{\circ}C$) -->
     <g transform="translate(192.16 335.862125) scale(0.1 -0.1)">
      <defs>
       <path id="DejaVuSans-54" d="M -19 4666 
L 3928 4666 
L 3928 4134 
L 2272 4134 
L 2272 0 
L 1638 0 
L 1638 4134 
L -19 4134 
L -19 4666 
z
" transform="scale(0.015625)"/>
       <path id="DejaVuSans-65" d="M 3597 1894 
L 3597 1613 
L 953 1613 
Q 991 1019 1311 708 
Q 1631 397 2203 397 
Q 2534 397 2845 478 
Q 3156 559 3463 722 
L 3463 178 
Q 3153 47 2828 -22 
Q 2503 -91 2169 -91 
Q 1331 -91 842 396 
Q 353 884 353 1716 
Q 353 2575 817 3079 
Q 1281 3584 2069 3584 
Q 2775 3584 3186 3129 
Q 3597 2675 3597 1894 
z
M 3022 2063 
Q 3016 2534 2758 2815 
Q 2500 3097 2075 3097 
Q 1594 3097 1305 2825 
Q 1016 2553 972 2059 
L 3022 2063 
z
" transform="scale(0.015625)"/>
       <path id="DejaVuSans-6d" d="M 3328 2828 
Q 3544 3216 3844 3400 
Q 4144 3584 4550 3584 
Q 5097 3584 5394 3201 
Q 5691 2819 5691 2113 
L 5691 0 
L 5113 0 
L 5113 2094 
Q 5113 2597 4934 2840 
Q 4756 3084 4391 3084 
Q 3944 3084 3684 2787 
Q 3425 2491 3425 1978 
L 3425 0 
L 2847 0 
L 2847 2094 
Q 2847 2600 2669 2842 
Q 2491 3084 2119 3084 
Q 1678 3084 1418 2786 
Q 1159 2488 1159 1978 
L 1159 0 
L 581 0 
L 581 3500 
L 1159 3500 
L 1159 2956 
Q 1356 3278 1631 3431 
Q 1906 3584 2284 3584 
Q 2666 3584 2933 3390 
Q 3200 3197 3328 2828 
z
" transform="scale(0.015625)"/>
       <path id="DejaVuSans-70" d="M 1159 525 
L 1159 -1331 
L 581 -1331 
L 581 3500 
L 1159 3500 
L 1159 2969 
Q 1341 3281 1617 3432 
Q 1894 3584 2278 3584 
Q 2916 3584 3314 3078 
Q 3713 2572 3713 1747 
Q 3713 922 3314 415 
Q 2916 -91 2278 -91 
Q 1894 -91 1617 61 
Q 1341 213 1159 525 
z
M 3116 1747 
Q 3116 2381 2855 2742 
Q 2594 3103 2138 3103 
Q 1681 3103 1420 2742 
Q 1159 2381 1159 1747 
Q 1159 1113 1420 752 
Q 1681 391 2138 391 
Q 2594 391 2855 752 
Q 3116 1113 3116 1747 
z
" transform="scale(0.015625)"/>
       <path id="DejaVuSans-72" d="M 2631 2963 
Q 2534 3019 2420 3045 
Q 2306 3072 2169 3072 
Q 1681 3072 1420 2755 
Q 1159 2438 1159 1844 
L 1159 0 
L 581 0 
L 581 3500 
L 1159 3500 
L 1159 2956 
Q 1341 3275 1631 3429 
Q 1922 3584 2338 3584 
Q 2397 3584 2469 3576 
Q 2541 3569 2628 3553 
L 2631 2963 
z
" transform="scale(0.015625)"/>
       <path id="DejaVuSans-61" d="M 2194 1759 
Q 1497 1759 1228 1600 
Q 959 1441 959 1056 
Q 959 750 1161 570 
Q 1363 391 1709 391 
Q 2188 391 2477 730 
Q 2766 1069 2766 1631 
L 2766 1759 
L 2194 1759 
z
M 3341 1997 
L 3341 0 
L 2766 0 
L 2766 531 
Q 2569 213 2275 61 
Q 1981 -91 1556 -91 
Q 1019 -91 701 211 
Q 384 513 384 1019 
Q 384 1609 779 1909 
Q 1175 2209 1959 2209 
L 2766 2209 
L 2766 2266 
Q 2766 2663 2505 2880 
Q 2244 3097 1772 3097 
Q 1472 3097 1187 3025 
Q 903 2953 641 2809 
L 641 3341 
Q 956 3463 1253 3523 
Q 1550 3584 1831 3584 
Q 2591 3584 2966 3190 
Q 3341 2797 3341 1997 
z
" transform="scale(0.015625)"/>
       <path id="DejaVuSans-74" d="M 1172 4494 
L 1172 3500 
L 2356 3500 
L 2356 3053 
L 1172 3053 
L 1172 1153 
Q 1172 725 1289 603 
Q 1406 481 1766 481 
L 2356 481 
L 2356 0 
L 1766 0 
Q 1100 0 847 248 
Q 594 497 594 1153 
L 594 3053 
L 172 3053 
L 172 3500 
L 594 3500 
L 594 4494 
L 1172 4494 
z
" transform="scale(0.015625)"/>
       <path id="DejaVuSans-75" d="M 544 1381 
L 544 3500 
L 1119 3500 
L 1119 1403 
Q 1119 906 1312 657 
Q 1506 409 1894 409 
Q 2359 409 2629 706 
Q 2900 1003 2900 1516 
L 2900 3500 
L 3475 3500 
L 3475 0 
L 2900 0 
L 2900 538 
Q 2691 219 2414 64 
Q 2138 -91 1772 -91 
Q 1169 -91 856 284 
Q 544 659 544 1381 
z
M 1991 3584 
L 1991 3584 
z
" transform="scale(0.015625)"/>
       <path id="DejaVuSans-20" transform="scale(0.015625)"/>
       <path id="DejaVuSans-28" d="M 1984 4856 
Q 1566 4138 1362 3434 
Q 1159 2731 1159 2009 
Q 1159 1288 1364 580 
Q 1569 -128 1984 -844 
L 1484 -844 
Q 1016 -109 783 600 
Q 550 1309 550 2009 
Q 550 2706 781 3412 
Q 1013 4119 1484 4856 
L 1984 4856 
z
" transform="scale(0.015625)"/>
       <path id="DejaVuSans-2218" d="M 2000 2619 
Q 1750 2619 1578 2445 
Q 1406 2272 1406 2022 
Q 1406 1775 1578 1605 
Q 1750 1435 2000 1435 
Q 2250 1435 2422 1605 
Q 2594 1775 2594 2022 
Q 2594 2269 2420 2444 
Q 2247 2619 2000 2619 
z
M 2000 3022 
Q 2200 3022 2384 2945 
Q 2569 2869 2703 2725 
Q 2847 2585 2919 2406 
Q 2991 2228 2991 2022 
Q 2991 1610 2702 1324 
Q 2413 1038 1994 1038 
Q 1572 1038 1290 1319 
Q 1009 1600 1009 2022 
Q 1009 2441 1296 2731 
Q 1584 3022 2000 3022 
z
" transform="scale(0.015625)"/>
       <path id="DejaVuSans-Oblique-43" d="M 4447 4306 
L 4319 3641 
Q 4019 3944 3683 4091 
Q 3347 4238 2956 4238 
Q 2422 4238 2017 3981 
Q 1613 3725 1319 3200 
Q 1131 2863 1032 2486 
Q 934 2109 934 1728 
Q 934 1091 1264 756 
Q 1594 422 2222 422 
Q 2656 422 3056 561 
Q 3456 700 3834 978 
L 3688 231 
Q 3316 72 2936 -9 
Q 2556 -91 2175 -91 
Q 1278 -91 773 396 
Q 269 884 269 1753 
Q 269 2309 461 2846 
Q 653 3384 1013 3828 
Q 1394 4300 1883 4525 
Q 2372 4750 3022 4750 
Q 3422 4750 3780 4639 
Q 4138 4528 4447 4306 
z
" transform="scale(0.015625)"/>
       <path id="DejaVuSans-29" d="M 513 4856 
L 1013 4856 
Q 1481 4119 1714 3412 
Q 1947 2706 1947 2009 
Q 1947 1309 1714 600 
Q 1481 -109 1013 -844 
L 513 -844 
Q 928 -128 1133 580 
Q 1338 1288 1338 2009 
Q 1338 2731 1133 3434 
Q 928 4138 513 4856 
z
" transform="scale(0.015625)"/>
      </defs>
      <use xlink:href="#DejaVuSans-54" transform="translate(0 0.125)"/>
      <use xlink:href="#DejaVuSans-65" transform="translate(61.083984 0.125)"/>
      <use xlink:href="#DejaVuSans-6d" transform="translate(122.607422 0.125)"/>
      <use xlink:href="#DejaVuSans-70" transform="translate(220.019531 0.125)"/>
      <use xlink:href="#DejaVuSans-65" transform="translate(283.496094 0.125)"/>
      <use xlink:href="#DejaVuSans-72" transform="translate(345.019531 0.125)"/>
      <use xlink:href="#DejaVuSans-61" transform="translate(386.132812 0.125)"/>
      <use xlink:href="#DejaVuSans-74" transform="translate(447.412109 0.125)"/>
      <use xlink:href="#DejaVuSans-75" transform="translate(486.621094 0.125)"/>
      <use xlink:href="#DejaVuSans-72" transform="translate(550 0.125)"/>
      <use xlink:href="#DejaVuSans-65" transform="translate(591.113281 0.125)"/>
      <use xlink:href="#DejaVuSans-20" transform="translate(652.636719 0.125)"/>
      <use xlink:href="#DejaVuSans-28" transform="translate(684.423828 0.125)"/>
      <use xlink:href="#DejaVuSans-2218" transform="translate(724.394531 38.40625) scale(0.7)"/>
      <use xlink:href="#DejaVuSans-Oblique-43" transform="translate(770.947266 0.125)"/>
      <use xlink:href="#DejaVuSans-29" transform="translate(840.771484 0.125)"/>
     </g>
    </g>
   </g>
   <g id="matplotlib.axis_2">
    <g id="ytick_1">
     <g id="line2d_9">
      <defs>
       <path id="m1729939bbd" d="M 0 0 
L -3.5 0 
" style="stroke: #000000; stroke-width: 0.8"/>
      </defs>
      <g>
       <use xlink:href="#m1729939bbd" x="57.6" y="295.488" style="stroke: #000000; stroke-width: 0.8"/>
      </g>
     </g>
     <g id="text_10">
      <!-- 0.00 -->
      <g transform="translate(28.334375 299.287219) scale(0.1 -0.1)">
       <defs>
        <path id="DejaVuSans-2e" d="M 684 794 
L 1344 794 
L 1344 0 
L 684 0 
L 684 794 
z
" transform="scale(0.015625)"/>
       </defs>
       <use xlink:href="#DejaVuSans-30"/>
       <use xlink:href="#DejaVuSans-2e" transform="translate(63.623047 0)"/>
       <use xlink:href="#DejaVuSans-30" transform="translate(95.410156 0)"/>
       <use xlink:href="#DejaVuSans-30" transform="translate(159.033203 0)"/>
      </g>
     </g>
    </g>
    <g id="ytick_2">
     <g id="line2d_10">
      <g>
       <use xlink:href="#m1729939bbd" x="57.6" y="263.317787" style="stroke: #000000; stroke-width: 0.8"/>
      </g>
     </g>
     <g id="text_11">
      <!-- 0.25 -->
      <g transform="translate(28.334375 267.117006) scale(0.1 -0.1)">
       <use xlink:href="#DejaVuSans-30"/>
       <use xlink:href="#DejaVuSans-2e" transform="translate(63.623047 0)"/>
       <use xlink:href="#DejaVuSans-32" transform="translate(95.410156 0)"/>
       <use xlink:href="#DejaVuSans-35" transform="translate(159.033203 0)"/>
      </g>
     </g>
    </g>
    <g id="ytick_3">
     <g id="line2d_11">
      <g>
       <use xlink:href="#m1729939bbd" x="57.6" y="231.147574" style="stroke: #000000; stroke-width: 0.8"/>
      </g>
     </g>
     <g id="text_12">
      <!-- 0.50 -->
      <g transform="translate(28.334375 234.946793) scale(0.1 -0.1)">
       <use xlink:href="#DejaVuSans-30"/>
       <use xlink:href="#DejaVuSans-2e" transform="translate(63.623047 0)"/>
       <use xlink:href="#DejaVuSans-35" transform="translate(95.410156 0)"/>
       <use xlink:href="#DejaVuSans-30" transform="translate(159.033203 0)"/>
      </g>
     </g>
    </g>
    <g id="ytick_4">
     <g id="line2d_12">
      <g>
       <use xlink:href="#m1729939bbd" x="57.6" y="198.977362" style="stroke: #000000; stroke-width: 0.8"/>
      </g>
     </g>
     <g id="text_13">
      <!-- 0.75 -->
      <g transform="translate(28.334375 202.77658) scale(0.1 -0.1)">
       <use xlink:href="#DejaVuSans-30"/>
       <use xlink:href="#DejaVuSans-2e" transform="translate(63.623047 0)"/>
       <use xlink:href="#DejaVuSans-37" transform="translate(95.410156 0)"/>
       <use xlink:href="#DejaVuSans-35" transform="translate(159.033203 0)"/>
      </g>
     </g>
    </g>
    <g id="ytick_5">
     <g id="line2d_13">
      <g>
       <use xlink:href="#m1729939bbd" x="57.6" y="166.807149" style="stroke: #000000; stroke-width: 0.8"/>
      </g>
     </g>
     <g id="text_14">
      <!-- 1.00 -->
      <g transform="translate(28.334375 170.606368) scale(0.1 -0.1)">
       <use xlink:href="#DejaVuSans-31"/>
       <use xlink:href="#DejaVuSans-2e" transform="translate(63.623047 0)"/>
       <use xlink:href="#DejaVuSans-30" transform="translate(95.410156 0)"/>
       <use xlink:href="#DejaVuSans-30" transform="translate(159.033203 0)"/>
      </g>
     </g>
    </g>
    <g id="ytick_6">
     <g id="line2d_14">
      <g>
       <use xlink:href="#m1729939bbd" x="57.6" y="134.636936" style="stroke: #000000; stroke-width: 0.8"/>
      </g>
     </g>
     <g id="text_15">
      <!-- 1.25 -->
      <g transform="translate(28.334375 138.436155) scale(0.1 -0.1)">
       <use xlink:href="#DejaVuSans-31"/>
       <use xlink:href="#DejaVuSans-2e" transform="translate(63.623047 0)"/>
       <use xlink:href="#DejaVuSans-32" transform="translate(95.410156 0)"/>
       <use xlink:href="#DejaVuSans-35" transform="translate(159.033203 0)"/>
      </g>
     </g>
    </g>
    <g id="ytick_7">
     <g id="line2d_15">
      <g>
       <use xlink:href="#m1729939bbd" x="57.6" y="102.466723" style="stroke: #000000; stroke-width: 0.8"/>
      </g>
     </g>
     <g id="text_16">
      <!-- 1.50 -->
      <g transform="translate(28.334375 106.265942) scale(0.1 -0.1)">
       <use xlink:href="#DejaVuSans-31"/>
       <use xlink:href="#DejaVuSans-2e" transform="translate(63.623047 0)"/>
       <use xlink:href="#DejaVuSans-35" transform="translate(95.410156 0)"/>
       <use xlink:href="#DejaVuSans-30" transform="translate(159.033203 0)"/>
      </g>
     </g>
    </g>
    <g id="ytick_8">
     <g id="line2d_16">
      <g>
       <use xlink:href="#m1729939bbd" x="57.6" y="70.296511" style="stroke: #000000; stroke-width: 0.8"/>
      </g>
     </g>
     <g id="text_17">
      <!-- 1.75 -->
      <g transform="translate(28.334375 74.095729) scale(0.1 -0.1)">
       <use xlink:href="#DejaVuSans-31"/>
       <use xlink:href="#DejaVuSans-2e" transform="translate(63.623047 0)"/>
       <use xlink:href="#DejaVuSans-37" transform="translate(95.410156 0)"/>
       <use xlink:href="#DejaVuSans-35" transform="translate(159.033203 0)"/>
      </g>
     </g>
    </g>
    <g id="text_18">
     <!-- Intensity ($^{\circ}C^{-1}$) -->
     <g transform="translate(22.234375 213.328) rotate(-90) scale(0.1 -0.1)">
      <defs>
       <path id="DejaVuSans-49" d="M 628 4666 
L 1259 4666 
L 1259 0 
L 628 0 
L 628 4666 
z
" transform="scale(0.015625)"/>
       <path id="DejaVuSans-6e" d="M 3513 2113 
L 3513 0 
L 2938 0 
L 2938 2094 
Q 2938 2591 2744 2837 
Q 2550 3084 2163 3084 
Q 1697 3084 1428 2787 
Q 1159 2491 1159 1978 
L 1159 0 
L 581 0 
L 581 3500 
L 1159 3500 
L 1159 2956 
Q 1366 3272 1645 3428 
Q 1925 3584 2291 3584 
Q 2894 3584 3203 3211 
Q 3513 2838 3513 2113 
z
" transform="scale(0.015625)"/>
       <path id="DejaVuSans-73" d="M 2834 3397 
L 2834 2853 
Q 2591 2978 2328 3040 
Q 2066 3103 1784 3103 
Q 1356 3103 1142 2972 
Q 928 2841 928 2578 
Q 928 2378 1081 2264 
Q 1234 2150 1697 2047 
L 1894 2003 
Q 2506 1872 2764 1633 
Q 3022 1394 3022 966 
Q 3022 478 2636 193 
Q 2250 -91 1575 -91 
Q 1294 -91 989 -36 
Q 684 19 347 128 
L 347 722 
Q 666 556 975 473 
Q 1284 391 1588 391 
Q 1994 391 2212 530 
Q 2431 669 2431 922 
Q 2431 1156 2273 1281 
Q 2116 1406 1581 1522 
L 1381 1569 
Q 847 1681 609 1914 
Q 372 2147 372 2553 
Q 372 3047 722 3315 
Q 1072 3584 1716 3584 
Q 2034 3584 2315 3537 
Q 2597 3491 2834 3397 
z
" transform="scale(0.015625)"/>
       <path id="DejaVuSans-69" d="M 603 3500 
L 1178 3500 
L 1178 0 
L 603 0 
L 603 3500 
z
M 603 4863 
L 1178 4863 
L 1178 4134 
L 603 4134 
L 603 4863 
z
" transform="scale(0.015625)"/>
       <path id="DejaVuSans-79" d="M 2059 -325 
Q 1816 -950 1584 -1140 
Q 1353 -1331 966 -1331 
L 506 -1331 
L 506 -850 
L 844 -850 
Q 1081 -850 1212 -737 
Q 1344 -625 1503 -206 
L 1606 56 
L 191 3500 
L 800 3500 
L 1894 763 
L 2988 3500 
L 3597 3500 
L 2059 -325 
z
" transform="scale(0.015625)"/>
       <path id="DejaVuSans-2212" d="M 678 2272 
L 4684 2272 
L 4684 1741 
L 678 1741 
L 678 2272 
z
" transform="scale(0.015625)"/>
      </defs>
      <use xlink:href="#DejaVuSans-49" transform="translate(0 0.684375)"/>
      <use xlink:href="#DejaVuSans-6e" transform="translate(29.492188 0.684375)"/>
      <use xlink:href="#DejaVuSans-74" transform="translate(92.871094 0.684375)"/>
      <use xlink:href="#DejaVuSans-65" transform="translate(132.080078 0.684375)"/>
      <use xlink:href="#DejaVuSans-6e" transform="translate(193.603516 0.684375)"/>
      <use xlink:href="#DejaVuSans-73" transform="translate(256.982422 0.684375)"/>
      <use xlink:href="#DejaVuSans-69" transform="translate(309.082031 0.684375)"/>
      <use xlink:href="#DejaVuSans-74" transform="translate(336.865234 0.684375)"/>
      <use xlink:href="#DejaVuSans-79" transform="translate(376.074219 0.684375)"/>
      <use xlink:href="#DejaVuSans-20" transform="translate(435.253906 0.684375)"/>
      <use xlink:href="#DejaVuSans-28" transform="translate(467.041016 0.684375)"/>
      <use xlink:href="#DejaVuSans-2218" transform="translate(507.011719 38.965625) scale(0.7)"/>
      <use xlink:href="#DejaVuSans-Oblique-43" transform="translate(553.564453 0.684375)"/>
      <use xlink:href="#DejaVuSans-2212" transform="translate(630.589193 38.965625) scale(0.7)"/>
      <use xlink:href="#DejaVuSans-31" transform="translate(689.241536 38.965625) scale(0.7)"/>
      <use xlink:href="#DejaVuSans-29" transform="translate(736.512044 0.684375)"/>
     </g>
    </g>
   </g>
   <g id="line2d_17">
    <path d="M 73.832727 295.488 
L 99.627198 295.488 
L 100.07193 292.914383 
L 100.516663 292.914383 
L 100.961395 290.340766 
L 101.850859 290.340766 
L 102.295592 287.767149 
L 104.519253 287.767149 
L 105.408717 282.619915 
L 106.742914 282.619915 
L 107.187646 277.472681 
L 108.521843 277.472681 
L 108.966575 272.325447 
L 109.411308 272.325447 
L 109.85604 269.75183 
L 111.190237 269.75183 
L 111.634969 267.178213 
L 112.079701 259.457362 
L 112.524433 259.457362 
L 112.969166 256.883745 
L 113.413898 256.883745 
L 113.85863 254.310128 
L 114.303362 254.310128 
L 114.748095 251.736511 
L 115.637559 251.736511 
L 116.082291 244.01566 
L 116.527024 241.442043 
L 116.971756 236.294809 
L 117.416488 236.294809 
L 117.86122 233.721191 
L 118.305953 228.573957 
L 120.084882 228.573957 
L 120.529614 220.853106 
L 121.419078 220.853106 
L 121.863811 210.558638 
L 122.308543 213.132255 
L 122.753275 213.132255 
L 123.198007 205.411404 
L 124.087472 200.26417 
L 124.532204 192.543319 
L 124.976936 187.396085 
L 125.421669 187.396085 
L 125.866401 182.248851 
L 126.311133 182.248851 
L 127.200598 161.659915 
L 127.64533 164.233532 
L 128.534795 164.233532 
L 128.979527 141.070979 
L 129.424259 143.644596 
L 129.868991 143.644596 
L 130.758456 125.629277 
L 131.203188 120.482043 
L 131.64792 120.482043 
L 132.092653 123.05566 
L 132.537385 102.466723 
L 133.426849 102.466723 
L 133.871582 105.04034 
L 134.316314 110.187574 
L 134.761046 84.451404 
L 135.205778 87.025021 
L 136.095243 81.877787 
L 136.539975 81.877787 
L 136.984707 79.30417 
L 137.874172 79.30417 
L 138.318904 76.730553 
L 138.763636 71.583319 
L 139.208369 76.730553 
L 139.653101 71.583319 
L 140.097833 74.156936 
L 140.542565 79.30417 
L 141.43203 74.156936 
L 141.876762 58.715234 
L 142.321494 58.715234 
L 142.766227 66.436085 
L 143.210959 58.715234 
L 143.655691 58.715234 
L 144.100423 69.009702 
L 144.989888 69.009702 
L 145.43462 79.30417 
L 146.768817 87.025021 
L 147.213549 92.172255 
L 147.658281 84.451404 
L 148.103014 89.598638 
L 148.547746 74.156936 
L 149.43721 92.172255 
L 149.881943 87.025021 
L 150.771407 87.025021 
L 151.216139 107.613957 
L 151.660872 110.187574 
L 152.105604 87.025021 
L 152.550336 92.172255 
L 152.995068 94.745872 
L 153.439801 102.466723 
L 153.884533 89.598638 
L 154.329265 89.598638 
L 154.773998 105.04034 
L 155.21873 105.04034 
L 155.663462 102.466723 
L 156.108194 102.466723 
L 156.552927 105.04034 
L 156.997659 120.482043 
L 157.442391 120.482043 
L 157.887123 115.334809 
L 158.331856 120.482043 
L 158.776588 120.482043 
L 159.22132 107.613957 
L 159.666052 105.04034 
L 160.110785 97.319489 
L 161.000249 115.334809 
L 161.444981 115.334809 
L 161.889714 107.613957 
L 162.779178 97.319489 
L 163.22391 99.893106 
L 163.668643 99.893106 
L 164.113375 115.334809 
L 164.558107 112.761191 
L 165.002839 112.761191 
L 165.447572 110.187574 
L 166.781768 110.187574 
L 167.226501 105.04034 
L 168.560697 105.04034 
L 169.00543 112.761191 
L 169.450162 107.613957 
L 169.894894 110.187574 
L 170.339626 105.04034 
L 170.784359 117.908426 
L 171.229091 115.334809 
L 172.118555 125.629277 
L 173.00802 125.629277 
L 173.452752 123.05566 
L 173.897484 123.05566 
L 174.342217 143.644596 
L 174.786949 141.070979 
L 175.231681 146.218213 
L 175.676413 143.644596 
L 176.121146 130.776511 
L 176.565878 130.776511 
L 177.01061 135.923745 
L 177.455342 135.923745 
L 177.900075 138.497362 
L 178.344807 138.497362 
L 178.789539 130.776511 
L 179.679004 130.776511 
L 180.123736 138.497362 
L 181.0132 133.350128 
L 181.457933 146.218213 
L 182.347397 151.365447 
L 182.79213 151.365447 
L 183.236862 141.070979 
L 183.681594 138.497362 
L 184.126326 146.218213 
L 185.015791 151.365447 
L 185.460523 148.79183 
L 185.905255 151.365447 
L 186.79472 151.365447 
L 187.239452 148.79183 
L 187.684184 151.365447 
L 189.018381 151.365447 
L 189.463113 156.512681 
L 190.352578 151.365447 
L 190.79731 151.365447 
L 191.242042 135.923745 
L 192.576239 151.365447 
L 193.465704 156.512681 
L 194.355168 156.512681 
L 194.7999 146.218213 
L 195.244633 146.218213 
L 195.689365 151.365447 
L 196.578829 151.365447 
L 197.023562 159.086298 
L 197.468294 159.086298 
L 197.913026 164.233532 
L 198.357758 189.969702 
L 200.136687 189.969702 
L 200.58142 187.396085 
L 201.026152 195.116936 
L 201.470884 205.411404 
L 201.915616 197.690553 
L 202.360349 197.690553 
L 202.805081 200.26417 
L 203.249813 197.690553 
L 203.694545 200.26417 
L 204.139278 200.26417 
L 204.58401 202.837787 
L 205.028742 200.26417 
L 205.473474 210.558638 
L 205.918207 213.132255 
L 206.362939 218.279489 
L 207.697136 226.00034 
L 208.141868 226.00034 
L 208.5866 223.426723 
L 209.476065 228.573957 
L 209.920797 236.294809 
L 210.365529 233.721191 
L 211.254994 233.721191 
L 211.699726 231.147574 
L 212.144458 231.147574 
L 212.589191 233.721191 
L 213.033923 233.721191 
L 213.478655 249.162894 
L 215.257584 249.162894 
L 215.702316 244.01566 
L 216.591781 244.01566 
L 217.036513 254.310128 
L 217.481245 251.736511 
L 218.37071 251.736511 
L 218.815442 254.310128 
L 221.039103 254.310128 
L 221.483836 251.736511 
L 222.3733 251.736511 
L 222.818032 254.310128 
L 223.707497 254.310128 
L 224.152229 259.457362 
L 225.041694 259.457362 
L 225.486426 264.604596 
L 225.931158 267.178213 
L 226.37589 267.178213 
L 226.820623 269.75183 
L 229.044284 269.75183 
L 229.933748 264.604596 
L 230.378481 264.604596 
L 230.823213 267.178213 
L 232.15741 267.178213 
L 232.602142 269.75183 
L 233.046874 264.604596 
L 233.491606 264.604596 
L 234.381071 269.75183 
L 234.825803 267.178213 
L 237.049465 267.178213 
L 237.494197 264.604596 
L 237.938929 269.75183 
L 238.383661 262.030979 
L 239.273126 262.030979 
L 239.717858 264.604596 
L 241.496787 264.604596 
L 241.941519 262.030979 
L 243.275716 262.030979 
L 243.720448 264.604596 
L 245.94411 264.604596 
L 246.388842 267.178213 
L 249.057235 267.178213 
L 249.501968 269.75183 
L 249.9467 267.178213 
L 250.836164 267.178213 
L 251.280897 264.604596 
L 252.170361 269.75183 
L 253.059826 269.75183 
L 253.504558 264.604596 
L 254.838755 264.604596 
L 255.283487 269.75183 
L 256.617684 269.75183 
L 257.062416 272.325447 
L 259.286077 272.325447 
L 259.730809 274.899064 
L 260.175542 274.899064 
L 260.620274 282.619915 
L 261.065006 282.619915 
L 261.509738 280.046298 
L 263.7334 280.046298 
L 264.178132 282.619915 
L 265.512329 282.619915 
L 265.957061 280.046298 
L 271.73858 280.046298 
L 272.183313 282.619915 
L 275.296438 282.619915 
L 275.741171 287.767149 
L 283.301619 287.767149 
L 283.746351 290.340766 
L 284.191083 290.340766 
L 284.635816 287.767149 
L 287.748941 287.767149 
L 288.193674 290.340766 
L 295.30939 290.340766 
L 295.754122 292.914383 
L 306.427696 292.914383 
L 306.872428 295.488 
L 398.487273 295.488 
L 398.487273 295.488 
" clip-path="url(#pcd6867e0f9)" style="fill: none; stroke-dasharray: 1.85,0.8; stroke-dashoffset: 0; stroke: #8000ff; stroke-width: 0.5"/>
   </g>
   <g id="line2d_18">
    <path d="M 73.832727 295.488 
L 103.185056 295.488 
L 103.629788 292.914383 
L 111.190237 292.914383 
L 111.634969 290.340766 
L 112.524433 290.340766 
L 112.969166 287.767149 
L 114.748095 287.767149 
L 115.192827 282.619915 
L 117.86122 282.619915 
L 118.305953 277.472681 
L 119.195417 277.472681 
L 119.640149 267.178213 
L 120.529614 267.178213 
L 120.974346 264.604596 
L 121.419078 264.604596 
L 121.863811 262.030979 
L 122.308543 251.736511 
L 122.753275 251.736511 
L 123.198007 246.589277 
L 123.64274 244.01566 
L 125.421669 244.01566 
L 126.311133 238.868426 
L 127.200598 228.573957 
L 127.64533 228.573957 
L 128.090062 218.279489 
L 128.534795 218.279489 
L 128.979527 215.705872 
L 129.424259 215.705872 
L 129.868991 200.26417 
L 130.313724 197.690553 
L 130.758456 197.690553 
L 131.203188 195.116936 
L 131.64792 195.116936 
L 132.537385 189.969702 
L 132.982117 189.969702 
L 133.426849 174.528 
L 133.871582 177.101617 
L 134.316314 174.528 
L 134.761046 174.528 
L 135.205778 169.380766 
L 135.650511 169.380766 
L 136.095243 166.807149 
L 136.539975 166.807149 
L 136.984707 164.233532 
L 137.42944 169.380766 
L 139.208369 169.380766 
L 139.653101 153.939064 
L 140.097833 153.939064 
L 140.542565 156.512681 
L 140.987298 151.365447 
L 141.43203 141.070979 
L 141.876762 141.070979 
L 142.321494 133.350128 
L 142.766227 130.776511 
L 143.210959 133.350128 
L 143.655691 133.350128 
L 144.100423 135.923745 
L 144.545156 146.218213 
L 144.989888 146.218213 
L 145.43462 151.365447 
L 145.879352 143.644596 
L 146.324085 143.644596 
L 146.768817 141.070979 
L 147.213549 141.070979 
L 147.658281 130.776511 
L 148.103014 135.923745 
L 148.547746 138.497362 
L 148.992478 133.350128 
L 149.43721 135.923745 
L 149.881943 135.923745 
L 150.326675 146.218213 
L 150.771407 138.497362 
L 151.216139 141.070979 
L 151.660872 138.497362 
L 152.105604 146.218213 
L 152.995068 146.218213 
L 153.439801 133.350128 
L 153.884533 128.202894 
L 154.773998 133.350128 
L 155.21873 133.350128 
L 155.663462 148.79183 
L 156.108194 148.79183 
L 156.552927 151.365447 
L 156.997659 146.218213 
L 157.442391 153.939064 
L 157.887123 153.939064 
L 158.776588 135.923745 
L 159.22132 133.350128 
L 159.666052 128.202894 
L 160.110785 128.202894 
L 160.555517 120.482043 
L 161.000249 120.482043 
L 161.444981 107.613957 
L 161.889714 110.187574 
L 162.334446 102.466723 
L 162.779178 105.04034 
L 163.22391 94.745872 
L 164.113375 115.334809 
L 165.002839 120.482043 
L 165.447572 120.482043 
L 165.892304 115.334809 
L 167.226501 115.334809 
L 167.671233 107.613957 
L 168.115965 112.761191 
L 169.00543 112.761191 
L 169.450162 110.187574 
L 169.894894 120.482043 
L 170.339626 120.482043 
L 170.784359 107.613957 
L 171.229091 105.04034 
L 171.673823 107.613957 
L 172.563288 107.613957 
L 173.00802 115.334809 
L 173.452752 105.04034 
L 173.897484 102.466723 
L 174.342217 107.613957 
L 175.231681 107.613957 
L 175.676413 112.761191 
L 176.121146 115.334809 
L 176.565878 115.334809 
L 177.01061 107.613957 
L 177.455342 107.613957 
L 178.344807 102.466723 
L 179.679004 102.466723 
L 180.123736 94.745872 
L 180.568468 99.893106 
L 181.0132 107.613957 
L 181.457933 105.04034 
L 181.902665 110.187574 
L 182.347397 110.187574 
L 182.79213 115.334809 
L 183.236862 107.613957 
L 184.126326 133.350128 
L 185.015791 133.350128 
L 185.460523 148.79183 
L 185.905255 146.218213 
L 186.349988 138.497362 
L 186.79472 143.644596 
L 187.239452 125.629277 
L 187.684184 125.629277 
L 188.128917 130.776511 
L 188.573649 128.202894 
L 189.018381 117.908426 
L 191.242042 105.04034 
L 191.686775 107.613957 
L 192.131507 105.04034 
L 192.576239 105.04034 
L 193.020971 117.908426 
L 193.465704 125.629277 
L 193.910436 123.05566 
L 195.244633 123.05566 
L 195.689365 133.350128 
L 196.134097 138.497362 
L 196.578829 135.923745 
L 197.468294 135.923745 
L 197.913026 146.218213 
L 198.357758 148.79183 
L 198.802491 148.79183 
L 199.247223 156.512681 
L 199.691955 156.512681 
L 200.58142 161.659915 
L 201.915616 161.659915 
L 202.360349 169.380766 
L 202.805081 174.528 
L 203.249813 174.528 
L 203.694545 182.248851 
L 204.58401 182.248851 
L 205.028742 184.822468 
L 205.473474 192.543319 
L 206.362939 192.543319 
L 206.807671 200.26417 
L 208.141868 192.543319 
L 208.5866 200.26417 
L 209.031333 195.116936 
L 209.476065 213.132255 
L 209.920797 200.26417 
L 210.365529 200.26417 
L 210.810262 202.837787 
L 211.254994 213.132255 
L 211.699726 215.705872 
L 212.589191 231.147574 
L 213.033923 228.573957 
L 215.257584 228.573957 
L 215.702316 231.147574 
L 216.147049 231.147574 
L 216.591781 228.573957 
L 217.036513 228.573957 
L 217.481245 223.426723 
L 217.925978 223.426723 
L 218.37071 220.853106 
L 218.815442 226.00034 
L 219.260174 228.573957 
L 220.149639 218.279489 
L 223.262765 218.279489 
L 223.707497 223.426723 
L 224.152229 218.279489 
L 224.596961 215.705872 
L 225.041694 218.279489 
L 225.486426 218.279489 
L 225.931158 215.705872 
L 226.37589 215.705872 
L 226.820623 213.132255 
L 229.044284 213.132255 
L 229.489016 215.705872 
L 229.933748 210.558638 
L 230.378481 213.132255 
L 230.823213 213.132255 
L 231.267945 215.705872 
L 231.712677 213.132255 
L 232.15741 226.00034 
L 232.602142 223.426723 
L 234.825803 223.426723 
L 235.715268 228.573957 
L 236.16 228.573957 
L 236.604732 231.147574 
L 237.494197 231.147574 
L 238.828394 238.868426 
L 239.273126 238.868426 
L 239.717858 244.01566 
L 240.16259 244.01566 
L 240.607323 246.589277 
L 241.496787 246.589277 
L 242.386252 251.736511 
L 243.720448 251.736511 
L 244.165181 244.01566 
L 245.94411 244.01566 
L 246.388842 249.162894 
L 246.833574 251.736511 
L 248.612503 251.736511 
L 249.057235 254.310128 
L 250.391432 254.310128 
L 250.836164 249.162894 
L 251.725629 249.162894 
L 252.170361 256.883745 
L 252.615093 259.457362 
L 253.059826 259.457362 
L 253.94929 264.604596 
L 254.394022 262.030979 
L 255.283487 262.030979 
L 255.728219 259.457362 
L 256.172951 259.457362 
L 256.617684 262.030979 
L 257.062416 262.030979 
L 257.95188 267.178213 
L 263.288667 267.178213 
L 263.7334 264.604596 
L 264.622864 269.75183 
L 265.957061 269.75183 
L 266.401793 277.472681 
L 269.070187 277.472681 
L 269.514919 274.899064 
L 269.959651 274.899064 
L 270.404384 277.472681 
L 271.73858 277.472681 
L 272.183313 274.899064 
L 272.628045 274.899064 
L 273.072777 280.046298 
L 275.296438 280.046298 
L 275.741171 277.472681 
L 276.185903 277.472681 
L 277.075367 282.619915 
L 277.5201 282.619915 
L 277.964832 285.193532 
L 281.967422 285.193532 
L 282.856887 280.046298 
L 285.52528 280.046298 
L 285.970012 282.619915 
L 289.083138 282.619915 
L 289.52787 280.046298 
L 291.3068 280.046298 
L 291.751532 282.619915 
L 292.196264 282.619915 
L 292.640996 280.046298 
L 293.975193 280.046298 
L 294.419925 282.619915 
L 295.754122 282.619915 
L 296.643587 277.472681 
L 297.533051 277.472681 
L 297.977783 280.046298 
L 301.535641 280.046298 
L 301.980374 277.472681 
L 304.204035 277.472681 
L 305.093499 282.619915 
L 311.319751 282.619915 
L 311.764483 285.193532 
L 314.432877 285.193532 
L 314.877609 287.767149 
L 317.990735 287.767149 
L 318.880199 292.914383 
L 323.772254 292.914383 
L 324.216986 295.488 
L 398.487273 295.488 
L 398.487273 295.488 
" clip-path="url(#pcd6867e0f9)" style="fill: none; stroke-dasharray: 1.85,0.8; stroke-dashoffset: 0; stroke: #2adddd; stroke-width: 0.5"/>
   </g>
   <g id="line2d_19">
    <path d="M 73.832727 295.488 
L 112.969166 295.488 
L 113.413898 290.340766 
L 114.748095 290.340766 
L 115.192827 287.767149 
L 118.305953 287.767149 
L 118.750685 285.193532 
L 123.64274 285.193532 
L 124.087472 282.619915 
L 124.532204 282.619915 
L 124.976936 280.046298 
L 126.311133 280.046298 
L 126.755866 277.472681 
L 128.090062 277.472681 
L 128.534795 274.899064 
L 128.979527 274.899064 
L 129.424259 272.325447 
L 130.758456 272.325447 
L 131.203188 269.75183 
L 131.64792 269.75183 
L 132.982117 254.310128 
L 133.871582 254.310128 
L 134.316314 251.736511 
L 134.761046 241.442043 
L 135.205778 241.442043 
L 135.650511 246.589277 
L 136.095243 244.01566 
L 136.984707 244.01566 
L 137.42944 246.589277 
L 139.653101 246.589277 
L 140.097833 241.442043 
L 140.542565 231.147574 
L 140.987298 233.721191 
L 143.210959 233.721191 
L 143.655691 223.426723 
L 144.989888 223.426723 
L 145.43462 218.279489 
L 145.879352 218.279489 
L 146.324085 220.853106 
L 146.768817 220.853106 
L 147.213549 215.705872 
L 148.992478 205.411404 
L 150.326675 205.411404 
L 150.771407 202.837787 
L 151.216139 197.690553 
L 151.660872 182.248851 
L 152.105604 182.248851 
L 152.550336 179.675234 
L 152.995068 179.675234 
L 153.439801 177.101617 
L 153.884533 177.101617 
L 154.329265 182.248851 
L 154.773998 179.675234 
L 155.21873 179.675234 
L 155.663462 177.101617 
L 156.108194 177.101617 
L 156.552927 179.675234 
L 156.997659 189.969702 
L 157.442391 187.396085 
L 157.887123 182.248851 
L 158.331856 184.822468 
L 159.22132 184.822468 
L 159.666052 166.807149 
L 161.444981 166.807149 
L 161.889714 159.086298 
L 162.334446 161.659915 
L 162.779178 169.380766 
L 164.558107 169.380766 
L 165.002839 148.79183 
L 165.447572 138.497362 
L 165.892304 143.644596 
L 166.337036 128.202894 
L 166.781768 120.482043 
L 167.226501 120.482043 
L 167.671233 123.05566 
L 168.115965 115.334809 
L 168.560697 115.334809 
L 169.450162 92.172255 
L 169.894894 92.172255 
L 170.784359 97.319489 
L 171.229091 81.877787 
L 171.673823 76.730553 
L 172.118555 69.009702 
L 172.563288 53.568 
L 173.00802 53.568 
L 173.452752 58.715234 
L 173.897484 71.583319 
L 174.342217 71.583319 
L 174.786949 74.156936 
L 175.231681 74.156936 
L 175.676413 79.30417 
L 176.565878 79.30417 
L 177.01061 87.025021 
L 177.455342 92.172255 
L 177.900075 94.745872 
L 178.344807 92.172255 
L 178.789539 81.877787 
L 179.234271 81.877787 
L 179.679004 84.451404 
L 180.123736 81.877787 
L 181.0132 66.436085 
L 181.457933 66.436085 
L 181.902665 84.451404 
L 182.79213 79.30417 
L 183.681594 79.30417 
L 184.126326 87.025021 
L 185.015791 92.172255 
L 185.460523 81.877787 
L 185.905255 81.877787 
L 186.349988 74.156936 
L 186.79472 71.583319 
L 187.239452 89.598638 
L 188.128917 94.745872 
L 188.573649 110.187574 
L 189.018381 115.334809 
L 189.463113 115.334809 
L 189.907846 117.908426 
L 190.352578 125.629277 
L 190.79731 117.908426 
L 191.242042 125.629277 
L 191.686775 146.218213 
L 192.131507 143.644596 
L 192.576239 143.644596 
L 193.020971 138.497362 
L 193.465704 159.086298 
L 193.910436 164.233532 
L 194.355168 166.807149 
L 194.7999 182.248851 
L 195.244633 187.396085 
L 195.689365 187.396085 
L 196.134097 192.543319 
L 197.023562 192.543319 
L 197.468294 187.396085 
L 198.357758 187.396085 
L 198.802491 174.528 
L 199.247223 166.807149 
L 199.691955 166.807149 
L 200.136687 161.659915 
L 200.58142 164.233532 
L 201.026152 171.954383 
L 201.470884 169.380766 
L 201.915616 169.380766 
L 202.805081 179.675234 
L 203.249813 187.396085 
L 203.694545 187.396085 
L 204.139278 184.822468 
L 205.473474 184.822468 
L 206.362939 179.675234 
L 207.252403 179.675234 
L 207.697136 189.969702 
L 208.141868 187.396085 
L 208.5866 182.248851 
L 209.476065 182.248851 
L 209.920797 189.969702 
L 210.365529 187.396085 
L 210.810262 171.954383 
L 211.699726 171.954383 
L 212.144458 166.807149 
L 212.589191 164.233532 
L 213.033923 171.954383 
L 213.478655 174.528 
L 213.923387 174.528 
L 214.36812 179.675234 
L 214.812852 177.101617 
L 215.257584 182.248851 
L 216.591781 174.528 
L 217.036513 174.528 
L 217.481245 171.954383 
L 217.925978 171.954383 
L 218.37071 169.380766 
L 219.260174 169.380766 
L 219.704907 171.954383 
L 220.149639 166.807149 
L 220.594371 166.807149 
L 221.483836 177.101617 
L 221.928568 177.101617 
L 222.3733 182.248851 
L 222.818032 182.248851 
L 223.707497 187.396085 
L 224.152229 187.396085 
L 224.596961 184.822468 
L 225.486426 184.822468 
L 225.931158 182.248851 
L 226.37589 184.822468 
L 226.820623 182.248851 
L 227.265355 184.822468 
L 227.710087 184.822468 
L 228.154819 187.396085 
L 228.599552 177.101617 
L 229.044284 177.101617 
L 229.489016 171.954383 
L 229.933748 171.954383 
L 230.378481 174.528 
L 230.823213 179.675234 
L 231.712677 184.822468 
L 232.15741 184.822468 
L 232.602142 189.969702 
L 233.046874 205.411404 
L 233.491606 205.411404 
L 233.936339 202.837787 
L 234.381071 207.985021 
L 234.825803 210.558638 
L 235.715268 205.411404 
L 236.16 200.26417 
L 236.604732 200.26417 
L 237.049465 202.837787 
L 237.494197 197.690553 
L 237.938929 197.690553 
L 238.383661 200.26417 
L 238.828394 207.985021 
L 239.273126 207.985021 
L 239.717858 210.558638 
L 240.16259 210.558638 
L 240.607323 213.132255 
L 241.496787 213.132255 
L 241.941519 215.705872 
L 242.386252 220.853106 
L 242.830984 220.853106 
L 243.275716 228.573957 
L 243.720448 231.147574 
L 245.94411 231.147574 
L 246.388842 226.00034 
L 247.278306 231.147574 
L 247.723039 226.00034 
L 248.612503 226.00034 
L 249.057235 231.147574 
L 250.391432 231.147574 
L 250.836164 244.01566 
L 251.280897 244.01566 
L 251.725629 249.162894 
L 252.170361 246.589277 
L 252.615093 246.589277 
L 253.059826 254.310128 
L 253.504558 254.310128 
L 253.94929 244.01566 
L 254.394022 244.01566 
L 254.838755 241.442043 
L 255.283487 236.294809 
L 255.728219 238.868426 
L 256.172951 236.294809 
L 257.062416 236.294809 
L 258.396613 244.01566 
L 259.286077 244.01566 
L 259.730809 249.162894 
L 260.175542 251.736511 
L 263.7334 251.736511 
L 264.178132 246.589277 
L 267.291258 246.589277 
L 267.73599 241.442043 
L 268.180722 241.442043 
L 268.625455 246.589277 
L 269.070187 249.162894 
L 269.514919 249.162894 
L 269.959651 254.310128 
L 270.404384 256.883745 
L 270.849116 256.883745 
L 271.293848 254.310128 
L 273.962242 254.310128 
L 274.406974 256.883745 
L 275.741171 256.883745 
L 276.185903 267.178213 
L 276.630635 267.178213 
L 277.075367 269.75183 
L 277.5201 274.899064 
L 277.964832 274.899064 
L 278.409564 277.472681 
L 282.856887 277.472681 
L 283.301619 272.325447 
L 285.970012 272.325447 
L 286.414745 277.472681 
L 289.52787 277.472681 
L 289.972603 282.619915 
L 290.417335 280.046298 
L 291.3068 280.046298 
L 291.751532 277.472681 
L 292.196264 277.472681 
L 292.640996 269.75183 
L 293.085729 269.75183 
L 293.530461 272.325447 
L 299.31198 272.325447 
L 299.756712 269.75183 
L 300.201445 269.75183 
L 300.646177 272.325447 
L 302.425106 272.325447 
L 302.869838 274.899064 
L 305.093499 274.899064 
L 305.538232 277.472681 
L 311.764483 277.472681 
L 312.209215 272.325447 
L 312.653948 274.899064 
L 313.543412 274.899064 
L 313.988144 277.472681 
L 314.432877 277.472681 
L 314.877609 285.193532 
L 321.548593 285.193532 
L 321.993325 287.767149 
L 327.330112 287.767149 
L 327.774844 290.340766 
L 334.001096 290.340766 
L 334.445828 295.488 
L 355.792976 295.488 
L 356.237709 292.914383 
L 364.687621 292.914383 
L 365.132354 290.340766 
L 378.029589 290.340766 
L 378.474321 292.914383 
L 386.924234 292.914383 
L 387.368966 295.488 
L 398.487273 295.488 
L 398.487273 295.488 
" clip-path="url(#pcd6867e0f9)" style="fill: none; stroke-dasharray: 1.85,0.8; stroke-dashoffset: 0; stroke: #d4dd80; stroke-width: 0.5"/>
   </g>
   <g id="line2d_20">
    <path d="M 73.832727 295.488 
L 127.64533 295.488 
L 128.090062 287.767149 
L 129.868991 287.767149 
L 130.313724 285.193532 
L 131.203188 285.193532 
L 131.64792 282.619915 
L 132.982117 282.619915 
L 133.426849 280.046298 
L 134.761046 280.046298 
L 135.205778 277.472681 
L 135.650511 272.325447 
L 136.095243 272.325447 
L 136.539975 269.75183 
L 136.984707 269.75183 
L 137.42944 264.604596 
L 140.542565 264.604596 
L 141.43203 259.457362 
L 143.210959 259.457362 
L 144.100423 254.310128 
L 146.768817 254.310128 
L 147.213549 251.736511 
L 147.658281 244.01566 
L 148.103014 241.442043 
L 148.547746 241.442043 
L 148.992478 231.147574 
L 149.881943 231.147574 
L 150.326675 238.868426 
L 150.771407 236.294809 
L 151.216139 236.294809 
L 151.660872 233.721191 
L 152.105604 233.721191 
L 152.550336 226.00034 
L 152.995068 207.985021 
L 153.439801 200.26417 
L 153.884533 189.969702 
L 154.329265 184.822468 
L 154.773998 184.822468 
L 155.21873 182.248851 
L 155.663462 182.248851 
L 156.108194 179.675234 
L 156.552927 174.528 
L 156.997659 171.954383 
L 157.442391 174.528 
L 157.887123 179.675234 
L 158.331856 169.380766 
L 159.22132 169.380766 
L 159.666052 161.659915 
L 160.110785 156.512681 
L 160.555517 156.512681 
L 161.000249 143.644596 
L 162.779178 143.644596 
L 163.22391 146.218213 
L 163.668643 138.497362 
L 164.113375 133.350128 
L 164.558107 130.776511 
L 165.002839 130.776511 
L 165.447572 125.629277 
L 166.337036 130.776511 
L 167.226501 125.629277 
L 167.671233 120.482043 
L 168.115965 120.482043 
L 168.560697 112.761191 
L 169.00543 112.761191 
L 169.450162 115.334809 
L 169.894894 115.334809 
L 170.339626 110.187574 
L 170.784359 102.466723 
L 171.229091 112.761191 
L 171.673823 105.04034 
L 172.563288 105.04034 
L 173.00802 107.613957 
L 173.452752 107.613957 
L 173.897484 110.187574 
L 174.342217 105.04034 
L 174.786949 115.334809 
L 175.231681 133.350128 
L 175.676413 141.070979 
L 176.121146 151.365447 
L 176.565878 156.512681 
L 177.01061 156.512681 
L 177.455342 159.086298 
L 177.900075 159.086298 
L 179.234271 151.365447 
L 179.679004 146.218213 
L 180.123736 146.218213 
L 180.568468 138.497362 
L 181.0132 141.070979 
L 181.457933 141.070979 
L 181.902665 138.497362 
L 182.347397 138.497362 
L 182.79213 135.923745 
L 183.236862 148.79183 
L 183.681594 148.79183 
L 184.126326 146.218213 
L 185.015791 146.218213 
L 185.460523 143.644596 
L 185.905255 151.365447 
L 186.349988 156.512681 
L 186.79472 153.939064 
L 187.239452 153.939064 
L 187.684184 159.086298 
L 188.128917 159.086298 
L 188.573649 141.070979 
L 189.018381 138.497362 
L 189.463113 123.05566 
L 189.907846 115.334809 
L 190.352578 115.334809 
L 190.79731 123.05566 
L 191.242042 105.04034 
L 191.686775 99.893106 
L 192.131507 105.04034 
L 192.576239 112.761191 
L 193.020971 117.908426 
L 193.465704 117.908426 
L 193.910436 123.05566 
L 194.355168 115.334809 
L 194.7999 115.334809 
L 195.689365 110.187574 
L 196.134097 110.187574 
L 196.578829 112.761191 
L 197.023562 112.761191 
L 198.357758 105.04034 
L 199.247223 105.04034 
L 199.691955 99.893106 
L 200.136687 102.466723 
L 200.58142 107.613957 
L 201.026152 107.613957 
L 201.915616 117.908426 
L 202.360349 112.761191 
L 202.805081 125.629277 
L 203.249813 125.629277 
L 203.694545 123.05566 
L 204.139278 130.776511 
L 205.028742 135.923745 
L 205.918207 135.923745 
L 206.362939 138.497362 
L 206.807671 138.497362 
L 207.252403 130.776511 
L 207.697136 120.482043 
L 208.141868 123.05566 
L 208.5866 110.187574 
L 209.920797 102.466723 
L 210.365529 102.466723 
L 210.810262 117.908426 
L 211.254994 117.908426 
L 211.699726 125.629277 
L 212.144458 138.497362 
L 213.033923 138.497362 
L 213.478655 153.939064 
L 213.923387 159.086298 
L 214.36812 159.086298 
L 214.812852 156.512681 
L 215.257584 159.086298 
L 216.147049 159.086298 
L 216.591781 166.807149 
L 217.036513 146.218213 
L 217.481245 146.218213 
L 217.925978 148.79183 
L 218.37071 148.79183 
L 218.815442 151.365447 
L 219.260174 148.79183 
L 220.149639 153.939064 
L 220.594371 159.086298 
L 221.039103 159.086298 
L 221.483836 156.512681 
L 221.928568 161.659915 
L 222.3733 151.365447 
L 222.818032 146.218213 
L 223.262765 153.939064 
L 224.152229 153.939064 
L 224.596961 156.512681 
L 225.041694 161.659915 
L 225.931158 161.659915 
L 226.37589 169.380766 
L 227.265355 164.233532 
L 229.044284 164.233532 
L 229.489016 171.954383 
L 229.933748 184.822468 
L 230.378481 184.822468 
L 230.823213 197.690553 
L 231.267945 202.837787 
L 232.15741 207.985021 
L 232.602142 207.985021 
L 233.046874 210.558638 
L 233.491606 215.705872 
L 233.936339 226.00034 
L 235.270535 226.00034 
L 235.715268 220.853106 
L 236.16 218.279489 
L 236.604732 218.279489 
L 237.049465 220.853106 
L 237.494197 218.279489 
L 237.938929 218.279489 
L 238.383661 220.853106 
L 238.828394 220.853106 
L 239.273126 236.294809 
L 239.717858 238.868426 
L 240.16259 233.721191 
L 240.607323 231.147574 
L 241.052055 231.147574 
L 241.496787 233.721191 
L 241.941519 233.721191 
L 242.386252 228.573957 
L 242.830984 228.573957 
L 243.275716 226.00034 
L 243.720448 220.853106 
L 244.165181 220.853106 
L 244.609913 228.573957 
L 245.054645 233.721191 
L 246.388842 233.721191 
L 246.833574 236.294809 
L 247.723039 236.294809 
L 248.167771 238.868426 
L 248.612503 238.868426 
L 249.057235 241.442043 
L 252.170361 241.442043 
L 252.615093 238.868426 
L 253.059826 238.868426 
L 253.504558 241.442043 
L 253.94929 241.442043 
L 254.394022 236.294809 
L 255.283487 236.294809 
L 255.728219 233.721191 
L 257.507148 233.721191 
L 257.95188 236.294809 
L 258.396613 236.294809 
L 258.841345 238.868426 
L 259.286077 238.868426 
L 259.730809 241.442043 
L 261.065006 241.442043 
L 261.509738 244.01566 
L 261.954471 244.01566 
L 262.843935 249.162894 
L 264.178132 249.162894 
L 264.622864 254.310128 
L 265.067597 251.736511 
L 265.512329 254.310128 
L 265.957061 262.030979 
L 266.401793 254.310128 
L 266.846526 256.883745 
L 267.291258 256.883745 
L 267.73599 254.310128 
L 268.180722 254.310128 
L 268.625455 251.736511 
L 270.849116 251.736511 
L 271.293848 254.310128 
L 274.406974 254.310128 
L 274.851706 256.883745 
L 275.296438 254.310128 
L 275.741171 249.162894 
L 277.5201 249.162894 
L 277.964832 251.736511 
L 280.188493 251.736511 
L 280.633225 254.310128 
L 283.301619 254.310128 
L 283.746351 256.883745 
L 284.191083 256.883745 
L 284.635816 259.457362 
L 285.970012 259.457362 
L 286.859477 254.310128 
L 287.304209 256.883745 
L 287.748941 254.310128 
L 288.193674 254.310128 
L 288.638406 259.457362 
L 289.083138 256.883745 
L 289.52787 256.883745 
L 289.972603 259.457362 
L 290.417335 259.457362 
L 290.862067 262.030979 
L 293.530461 262.030979 
L 293.975193 264.604596 
L 296.198854 264.604596 
L 296.643587 262.030979 
L 297.088319 262.030979 
L 297.533051 264.604596 
L 297.977783 269.75183 
L 298.422516 269.75183 
L 298.867248 272.325447 
L 299.31198 267.178213 
L 300.201445 267.178213 
L 300.646177 264.604596 
L 301.980374 264.604596 
L 302.425106 269.75183 
L 302.869838 267.178213 
L 308.206625 267.178213 
L 309.09609 272.325447 
L 309.540822 272.325447 
L 309.985554 274.899064 
L 310.430286 274.899064 
L 311.319751 280.046298 
L 320.659128 280.046298 
L 321.103861 282.619915 
L 321.548593 287.767149 
L 322.438057 287.767149 
L 322.88279 290.340766 
L 324.661719 290.340766 
L 325.106451 292.914383 
L 329.553773 292.914383 
L 329.998506 290.340766 
L 340.67208 290.340766 
L 341.116812 292.914383 
L 350.456189 292.914383 
L 350.900922 290.340766 
L 351.790386 290.340766 
L 352.235118 292.914383 
L 372.692802 292.914383 
L 373.137534 295.488 
L 398.487273 295.488 
L 398.487273 295.488 
" clip-path="url(#pcd6867e0f9)" style="fill: none; stroke-dasharray: 1.85,0.8; stroke-dashoffset: 0; stroke: #ff0000; stroke-width: 0.5"/>
   </g>
   <g id="patch_3">
    <path d="M 57.6 307.584 
L 57.6 41.472 
" style="fill: none; stroke: #000000; stroke-width: 0.8; stroke-linejoin: miter; stroke-linecap: square"/>
   </g>
   <g id="patch_4">
    <path d="M 414.72 307.584 
L 414.72 41.472 
" style="fill: none; stroke: #000000; stroke-width: 0.8; stroke-linejoin: miter; stroke-linecap: square"/>
   </g>
   <g id="patch_5">
    <path d="M 57.6 307.584 
L 414.72 307.584 
" style="fill: none; stroke: #000000; stroke-width: 0.8; stroke-linejoin: miter; stroke-linecap: square"/>
   </g>
   <g id="patch_6">
    <path d="M 57.6 41.472 
L 414.72 41.472 
" style="fill: none; stroke: #000000; stroke-width: 0.8; stroke-linejoin: miter; stroke-linecap: square"/>
   </g>
   <g id="text_19">
    <!-- Heating Rate ($^{\circ}C.s^{-1}$) -->
    <g transform="translate(271.872 68.0832) scale(0.12 -0.12)">
     <defs>
      <path id="DejaVuSans-48" d="M 628 4666 
L 1259 4666 
L 1259 2753 
L 3553 2753 
L 3553 4666 
L 4184 4666 
L 4184 0 
L 3553 0 
L 3553 2222 
L 1259 2222 
L 1259 0 
L 628 0 
L 628 4666 
z
" transform="scale(0.015625)"/>
      <path id="DejaVuSans-67" d="M 2906 1791 
Q 2906 2416 2648 2759 
Q 2391 3103 1925 3103 
Q 1463 3103 1205 2759 
Q 947 2416 947 1791 
Q 947 1169 1205 825 
Q 1463 481 1925 481 
Q 2391 481 2648 825 
Q 2906 1169 2906 1791 
z
M 3481 434 
Q 3481 -459 3084 -895 
Q 2688 -1331 1869 -1331 
Q 1566 -1331 1297 -1286 
Q 1028 -1241 775 -1147 
L 775 -588 
Q 1028 -725 1275 -790 
Q 1522 -856 1778 -856 
Q 2344 -856 2625 -561 
Q 2906 -266 2906 331 
L 2906 616 
Q 2728 306 2450 153 
Q 2172 0 1784 0 
Q 1141 0 747 490 
Q 353 981 353 1791 
Q 353 2603 747 3093 
Q 1141 3584 1784 3584 
Q 2172 3584 2450 3431 
Q 2728 3278 2906 2969 
L 2906 3500 
L 3481 3500 
L 3481 434 
z
" transform="scale(0.015625)"/>
      <path id="DejaVuSans-52" d="M 2841 2188 
Q 3044 2119 3236 1894 
Q 3428 1669 3622 1275 
L 4263 0 
L 3584 0 
L 2988 1197 
Q 2756 1666 2539 1819 
Q 2322 1972 1947 1972 
L 1259 1972 
L 1259 0 
L 628 0 
L 628 4666 
L 2053 4666 
Q 2853 4666 3247 4331 
Q 3641 3997 3641 3322 
Q 3641 2881 3436 2590 
Q 3231 2300 2841 2188 
z
M 1259 4147 
L 1259 2491 
L 2053 2491 
Q 2509 2491 2742 2702 
Q 2975 2913 2975 3322 
Q 2975 3731 2742 3939 
Q 2509 4147 2053 4147 
L 1259 4147 
z
" transform="scale(0.015625)"/>
      <path id="DejaVuSans-Oblique-73" d="M 3200 3397 
L 3091 2853 
Q 2863 2978 2609 3040 
Q 2356 3103 2088 3103 
Q 1634 3103 1373 2948 
Q 1113 2794 1113 2528 
Q 1113 2219 1719 2053 
Q 1766 2041 1788 2034 
L 1972 1978 
Q 2547 1819 2739 1644 
Q 2931 1469 2931 1166 
Q 2931 609 2489 259 
Q 2047 -91 1331 -91 
Q 1053 -91 747 -37 
Q 441 16 72 128 
L 184 722 
Q 500 559 806 475 
Q 1113 391 1394 391 
Q 1816 391 2080 572 
Q 2344 753 2344 1031 
Q 2344 1331 1650 1516 
L 1591 1531 
L 1394 1581 
Q 956 1697 753 1886 
Q 550 2075 550 2369 
Q 550 2928 970 3256 
Q 1391 3584 2113 3584 
Q 2397 3584 2667 3537 
Q 2938 3491 3200 3397 
z
" transform="scale(0.015625)"/>
     </defs>
     <use xlink:href="#DejaVuSans-48" transform="translate(0 0.684375)"/>
     <use xlink:href="#DejaVuSans-65" transform="translate(75.195312 0.684375)"/>
     <use xlink:href="#DejaVuSans-61" transform="translate(136.71875 0.684375)"/>
     <use xlink:href="#DejaVuSans-74" transform="translate(197.998047 0.684375)"/>
     <use xlink:href="#DejaVuSans-69" transform="translate(237.207031 0.684375)"/>
     <use xlink:href="#DejaVuSans-6e" transform="translate(264.990234 0.684375)"/>
     <use xlink:href="#DejaVuSans-67" transform="translate(328.369141 0.684375)"/>
     <use xlink:href="#DejaVuSans-20" transform="translate(391.845703 0.684375)"/>
     <use xlink:href="#DejaVuSans-52" transform="translate(423.632812 0.684375)"/>
     <use xlink:href="#DejaVuSans-61" transform="translate(493.115234 0.684375)"/>
     <use xlink:href="#DejaVuSans-74" transform="translate(554.394531 0.684375)"/>
     <use xlink:href="#DejaVuSans-65" transform="translate(593.603516 0.684375)"/>
     <use xlink:href="#DejaVuSans-20" transform="translate(655.126953 0.684375)"/>
     <use xlink:href="#DejaVuSans-28" transform="translate(686.914062 0.684375)"/>
     <use xlink:href="#DejaVuSans-2218" transform="translate(726.884766 38.965625) scale(0.7)"/>
     <use xlink:href="#DejaVuSans-Oblique-43" transform="translate(773.4375 0.684375)"/>
     <use xlink:href="#DejaVuSans-2e" transform="translate(843.261719 0.684375)"/>
     <use xlink:href="#DejaVuSans-Oblique-73" transform="translate(894.53125 0.684375)"/>
     <use xlink:href="#DejaVuSans-2212" transform="translate(951.280755 38.965625) scale(0.7)"/>
     <use xlink:href="#DejaVuSans-31" transform="translate(1009.933099 38.965625) scale(0.7)"/>
     <use xlink:href="#DejaVuSans-29" transform="translate(1057.203607 0.684375)"/>
    </g>
   </g>
   <g id="legend_1">
    <g id="patch_7">
     <path d="M 314.584 134.7957 
L 362.487125 134.7957 
Q 364.487125 134.7957 364.487125 132.7957 
L 364.487125 75.0832 
Q 364.487125 73.0832 362.487125 73.0832 
L 314.584 73.0832 
Q 312.584 73.0832 312.584 75.0832 
L 312.584 132.7957 
Q 312.584 134.7957 314.584 134.7957 
z
" style="fill: #ffffff; opacity: 0.8; stroke: #cccccc; stroke-linejoin: miter"/>
    </g>
    <g id="line2d_21">
     <path d="M 316.584 81.181637 
L 326.584 81.181637 
L 336.584 81.181637 
" style="fill: none; stroke-dasharray: 1.85,0.8; stroke-dashoffset: 0; stroke: #8000ff; stroke-width: 0.5"/>
    </g>
    <g id="text_20">
     <!-- 0.1 -->
     <g transform="translate(344.584 84.681637) scale(0.1 -0.1)">
      <use xlink:href="#DejaVuSans-30"/>
      <use xlink:href="#DejaVuSans-2e" transform="translate(63.623047 0)"/>
      <use xlink:href="#DejaVuSans-31" transform="translate(95.410156 0)"/>
     </g>
    </g>
    <g id="line2d_22">
     <path d="M 316.584 95.859762 
L 326.584 95.859762 
L 336.584 95.859762 
" style="fill: none; stroke-dasharray: 1.85,0.8; stroke-dashoffset: 0; stroke: #2adddd; stroke-width: 0.5"/>
    </g>
    <g id="text_21">
     <!-- 1 -->
     <g transform="translate(344.584 99.359762) scale(0.1 -0.1)">
      <use xlink:href="#DejaVuSans-31"/>
     </g>
    </g>
    <g id="line2d_23">
     <path d="M 316.584 110.537887 
L 326.584 110.537887 
L 336.584 110.537887 
" style="fill: none; stroke-dasharray: 1.85,0.8; stroke-dashoffset: 0; stroke: #d4dd80; stroke-width: 0.5"/>
    </g>
    <g id="text_22">
     <!-- 5 -->
     <g transform="translate(344.584 114.037887) scale(0.1 -0.1)">
      <use xlink:href="#DejaVuSans-35"/>
     </g>
    </g>
    <g id="line2d_24">
     <path d="M 316.584 125.216012 
L 326.584 125.216012 
L 336.584 125.216012 
" style="fill: none; stroke-dasharray: 1.85,0.8; stroke-dashoffset: 0; stroke: #ff0000; stroke-width: 0.5"/>
    </g>
    <g id="text_23">
     <!-- 20 -->
     <g transform="translate(344.584 128.716012) scale(0.1 -0.1)">
      <use xlink:href="#DejaVuSans-32"/>
      <use xlink:href="#DejaVuSans-30" transform="translate(63.623047 0)"/>
     </g>
    </g>
   </g>
  </g>
 </g>
 <defs>
  <clipPath id="pcd6867e0f9">
   <rect x="57.6" y="41.472" width="357.12" height="266.112"/>
  </clipPath>
 </defs>
</svg>
