<?xml version="1.0" encoding="utf-8" standalone="no"?>
<!DOCTYPE svg PUBLIC "-//W3C//DTD SVG 1.1//EN"
  "http://www.w3.org/Graphics/SVG/1.1/DTD/svg11.dtd">
<svg xmlns:xlink="http://www.w3.org/1999/xlink" width="460.8pt" height="345.6pt" viewBox="0 0 460.8 345.6" xmlns="http://www.w3.org/2000/svg" version="1.1">
 <metadata>
  <rdf:RDF xmlns:dc="http://purl.org/dc/elements/1.1/" xmlns:cc="http://creativecommons.org/ns#" xmlns:rdf="http://www.w3.org/1999/02/22-rdf-syntax-ns#">
   <cc:Work>
    <dc:type rdf:resource="http://purl.org/dc/dcmitype/StillImage"/>
    <dc:date>2025-03-04T10:42:03.868448</dc:date>
    <dc:format>image/svg+xml</dc:format>
    <dc:creator>
     <cc:Agent>
      <dc:title>Matplotlib v3.10.0, https://matplotlib.org/</dc:title>
     </cc:Agent>
    </dc:creator>
   </cc:Work>
  </rdf:RDF>
 </metadata>
 <defs>
  <style type="text/css">*{stroke-linejoin: round; stroke-linecap: butt}</style>
 </defs>
 <g id="figure_1">
  <g id="patch_1">
   <path d="M 0 345.6 
L 460.8 345.6 
L 460.8 0 
L 0 0 
z
" style="fill: #ffffff"/>
  </g>
  <g id="axes_1">
   <g id="patch_2">
    <path d="M 57.6 307.584 
L 414.72 307.584 
L 414.72 41.472 
L 57.6 41.472 
z
" style="fill: #ffffff"/>
   </g>
   <g id="matplotlib.axis_1">
    <g id="xtick_1">
     <g id="line2d_1">
      <defs>
       <path id="mb3dd288675" d="M 0 0 
L 0 3.5 
" style="stroke: #000000; stroke-width: 0.8"/>
      </defs>
      <g>
       <use xlink:href="#mb3dd288675" x="73.832727" y="307.584" style="stroke: #000000; stroke-width: 0.8"/>
      </g>
     </g>
     <g id="text_1">
      <!-- 0 -->
      <g transform="translate(70.651477 322.182437) scale(0.1 -0.1)">
       <defs>
        <path id="DejaVuSans-30" d="M 2034 4250 
Q 1547 4250 1301 3770 
Q 1056 3291 1056 2328 
Q 1056 1369 1301 889 
Q 1547 409 2034 409 
Q 2525 409 2770 889 
Q 3016 1369 3016 2328 
Q 3016 3291 2770 3770 
Q 2525 4250 2034 4250 
z
M 2034 4750 
Q 2819 4750 3233 4129 
Q 3647 3509 3647 2328 
Q 3647 1150 3233 529 
Q 2819 -91 2034 -91 
Q 1250 -91 836 529 
Q 422 1150 422 2328 
Q 422 3509 836 4129 
Q 1250 4750 2034 4750 
z
" transform="scale(0.015625)"/>
       </defs>
       <use xlink:href="#DejaVuSans-30"/>
      </g>
     </g>
    </g>
    <g id="xtick_2">
     <g id="line2d_2">
      <g>
       <use xlink:href="#mb3dd288675" x="138.763636" y="307.584" style="stroke: #000000; stroke-width: 0.8"/>
      </g>
     </g>
     <g id="text_2">
      <!-- 200 -->
      <g transform="translate(129.219886 322.182437) scale(0.1 -0.1)">
       <defs>
        <path id="DejaVuSans-32" d="M 1228 531 
L 3431 531 
L 3431 0 
L 469 0 
L 469 531 
Q 828 903 1448 1529 
Q 2069 2156 2228 2338 
Q 2531 2678 2651 2914 
Q 2772 3150 2772 3378 
Q 2772 3750 2511 3984 
Q 2250 4219 1831 4219 
Q 1534 4219 1204 4116 
Q 875 4013 500 3803 
L 500 4441 
Q 881 4594 1212 4672 
Q 1544 4750 1819 4750 
Q 2544 4750 2975 4387 
Q 3406 4025 3406 3419 
Q 3406 3131 3298 2873 
Q 3191 2616 2906 2266 
Q 2828 2175 2409 1742 
Q 1991 1309 1228 531 
z
" transform="scale(0.015625)"/>
       </defs>
       <use xlink:href="#DejaVuSans-32"/>
       <use xlink:href="#DejaVuSans-30" transform="translate(63.623047 0)"/>
       <use xlink:href="#DejaVuSans-30" transform="translate(127.246094 0)"/>
      </g>
     </g>
    </g>
    <g id="xtick_3">
     <g id="line2d_3">
      <g>
       <use xlink:href="#mb3dd288675" x="203.694545" y="307.584" style="stroke: #000000; stroke-width: 0.8"/>
      </g>
     </g>
     <g id="text_3">
      <!-- 400 -->
      <g transform="translate(194.150795 322.182437) scale(0.1 -0.1)">
       <defs>
        <path id="DejaVuSans-34" d="M 2419 4116 
L 825 1625 
L 2419 1625 
L 2419 4116 
z
M 2253 4666 
L 3047 4666 
L 3047 1625 
L 3713 1625 
L 3713 1100 
L 3047 1100 
L 3047 0 
L 2419 0 
L 2419 1100 
L 313 1100 
L 313 1709 
L 2253 4666 
z
" transform="scale(0.015625)"/>
       </defs>
       <use xlink:href="#DejaVuSans-34"/>
       <use xlink:href="#DejaVuSans-30" transform="translate(63.623047 0)"/>
       <use xlink:href="#DejaVuSans-30" transform="translate(127.246094 0)"/>
      </g>
     </g>
    </g>
    <g id="xtick_4">
     <g id="line2d_4">
      <g>
       <use xlink:href="#mb3dd288675" x="268.625455" y="307.584" style="stroke: #000000; stroke-width: 0.8"/>
      </g>
     </g>
     <g id="text_4">
      <!-- 600 -->
      <g transform="translate(259.081705 322.182437) scale(0.1 -0.1)">
       <defs>
        <path id="DejaVuSans-36" d="M 2113 2584 
Q 1688 2584 1439 2293 
Q 1191 2003 1191 1497 
Q 1191 994 1439 701 
Q 1688 409 2113 409 
Q 2538 409 2786 701 
Q 3034 994 3034 1497 
Q 3034 2003 2786 2293 
Q 2538 2584 2113 2584 
z
M 3366 4563 
L 3366 3988 
Q 3128 4100 2886 4159 
Q 2644 4219 2406 4219 
Q 1781 4219 1451 3797 
Q 1122 3375 1075 2522 
Q 1259 2794 1537 2939 
Q 1816 3084 2150 3084 
Q 2853 3084 3261 2657 
Q 3669 2231 3669 1497 
Q 3669 778 3244 343 
Q 2819 -91 2113 -91 
Q 1303 -91 875 529 
Q 447 1150 447 2328 
Q 447 3434 972 4092 
Q 1497 4750 2381 4750 
Q 2619 4750 2861 4703 
Q 3103 4656 3366 4563 
z
" transform="scale(0.015625)"/>
       </defs>
       <use xlink:href="#DejaVuSans-36"/>
       <use xlink:href="#DejaVuSans-30" transform="translate(63.623047 0)"/>
       <use xlink:href="#DejaVuSans-30" transform="translate(127.246094 0)"/>
      </g>
     </g>
    </g>
    <g id="xtick_5">
     <g id="line2d_5">
      <g>
       <use xlink:href="#mb3dd288675" x="333.556364" y="307.584" style="stroke: #000000; stroke-width: 0.8"/>
      </g>
     </g>
     <g id="text_5">
      <!-- 800 -->
      <g transform="translate(324.012614 322.182437) scale(0.1 -0.1)">
       <defs>
        <path id="DejaVuSans-38" d="M 2034 2216 
Q 1584 2216 1326 1975 
Q 1069 1734 1069 1313 
Q 1069 891 1326 650 
Q 1584 409 2034 409 
Q 2484 409 2743 651 
Q 3003 894 3003 1313 
Q 3003 1734 2745 1975 
Q 2488 2216 2034 2216 
z
M 1403 2484 
Q 997 2584 770 2862 
Q 544 3141 544 3541 
Q 544 4100 942 4425 
Q 1341 4750 2034 4750 
Q 2731 4750 3128 4425 
Q 3525 4100 3525 3541 
Q 3525 3141 3298 2862 
Q 3072 2584 2669 2484 
Q 3125 2378 3379 2068 
Q 3634 1759 3634 1313 
Q 3634 634 3220 271 
Q 2806 -91 2034 -91 
Q 1263 -91 848 271 
Q 434 634 434 1313 
Q 434 1759 690 2068 
Q 947 2378 1403 2484 
z
M 1172 3481 
Q 1172 3119 1398 2916 
Q 1625 2713 2034 2713 
Q 2441 2713 2670 2916 
Q 2900 3119 2900 3481 
Q 2900 3844 2670 4047 
Q 2441 4250 2034 4250 
Q 1625 4250 1398 4047 
Q 1172 3844 1172 3481 
z
" transform="scale(0.015625)"/>
       </defs>
       <use xlink:href="#DejaVuSans-38"/>
       <use xlink:href="#DejaVuSans-30" transform="translate(63.623047 0)"/>
       <use xlink:href="#DejaVuSans-30" transform="translate(127.246094 0)"/>
      </g>
     </g>
    </g>
    <g id="xtick_6">
     <g id="line2d_6">
      <g>
       <use xlink:href="#mb3dd288675" x="398.487273" y="307.584" style="stroke: #000000; stroke-width: 0.8"/>
      </g>
     </g>
     <g id="text_6">
      <!-- 1000 -->
      <g transform="translate(385.762273 322.182437) scale(0.1 -0.1)">
       <defs>
        <path id="DejaVuSans-31" d="M 794 531 
L 1825 531 
L 1825 4091 
L 703 3866 
L 703 4441 
L 1819 4666 
L 2450 4666 
L 2450 531 
L 3481 531 
L 3481 0 
L 794 0 
L 794 531 
z
" transform="scale(0.015625)"/>
       </defs>
       <use xlink:href="#DejaVuSans-31"/>
       <use xlink:href="#DejaVuSans-30" transform="translate(63.623047 0)"/>
       <use xlink:href="#DejaVuSans-30" transform="translate(127.246094 0)"/>
       <use xlink:href="#DejaVuSans-30" transform="translate(190.869141 0)"/>
      </g>
     </g>
    </g>
    <g id="text_7">
     <!-- Temperature ($^{\circ}C$) -->
     <g transform="translate(192.16 335.862125) scale(0.1 -0.1)">
      <defs>
       <path id="DejaVuSans-54" d="M -19 4666 
L 3928 4666 
L 3928 4134 
L 2272 4134 
L 2272 0 
L 1638 0 
L 1638 4134 
L -19 4134 
L -19 4666 
z
" transform="scale(0.015625)"/>
       <path id="DejaVuSans-65" d="M 3597 1894 
L 3597 1613 
L 953 1613 
Q 991 1019 1311 708 
Q 1631 397 2203 397 
Q 2534 397 2845 478 
Q 3156 559 3463 722 
L 3463 178 
Q 3153 47 2828 -22 
Q 2503 -91 2169 -91 
Q 1331 -91 842 396 
Q 353 884 353 1716 
Q 353 2575 817 3079 
Q 1281 3584 2069 3584 
Q 2775 3584 3186 3129 
Q 3597 2675 3597 1894 
z
M 3022 2063 
Q 3016 2534 2758 2815 
Q 2500 3097 2075 3097 
Q 1594 3097 1305 2825 
Q 1016 2553 972 2059 
L 3022 2063 
z
" transform="scale(0.015625)"/>
       <path id="DejaVuSans-6d" d="M 3328 2828 
Q 3544 3216 3844 3400 
Q 4144 3584 4550 3584 
Q 5097 3584 5394 3201 
Q 5691 2819 5691 2113 
L 5691 0 
L 5113 0 
L 5113 2094 
Q 5113 2597 4934 2840 
Q 4756 3084 4391 3084 
Q 3944 3084 3684 2787 
Q 3425 2491 3425 1978 
L 3425 0 
L 2847 0 
L 2847 2094 
Q 2847 2600 2669 2842 
Q 2491 3084 2119 3084 
Q 1678 3084 1418 2786 
Q 1159 2488 1159 1978 
L 1159 0 
L 581 0 
L 581 3500 
L 1159 3500 
L 1159 2956 
Q 1356 3278 1631 3431 
Q 1906 3584 2284 3584 
Q 2666 3584 2933 3390 
Q 3200 3197 3328 2828 
z
" transform="scale(0.015625)"/>
       <path id="DejaVuSans-70" d="M 1159 525 
L 1159 -1331 
L 581 -1331 
L 581 3500 
L 1159 3500 
L 1159 2969 
Q 1341 3281 1617 3432 
Q 1894 3584 2278 3584 
Q 2916 3584 3314 3078 
Q 3713 2572 3713 1747 
Q 3713 922 3314 415 
Q 2916 -91 2278 -91 
Q 1894 -91 1617 61 
Q 1341 213 1159 525 
z
M 3116 1747 
Q 3116 2381 2855 2742 
Q 2594 3103 2138 3103 
Q 1681 3103 1420 2742 
Q 1159 2381 1159 1747 
Q 1159 1113 1420 752 
Q 1681 391 2138 391 
Q 2594 391 2855 752 
Q 3116 1113 3116 1747 
z
" transform="scale(0.015625)"/>
       <path id="DejaVuSans-72" d="M 2631 2963 
Q 2534 3019 2420 3045 
Q 2306 3072 2169 3072 
Q 1681 3072 1420 2755 
Q 1159 2438 1159 1844 
L 1159 0 
L 581 0 
L 581 3500 
L 1159 3500 
L 1159 2956 
Q 1341 3275 1631 3429 
Q 1922 3584 2338 3584 
Q 2397 3584 2469 3576 
Q 2541 3569 2628 3553 
L 2631 2963 
z
" transform="scale(0.015625)"/>
       <path id="DejaVuSans-61" d="M 2194 1759 
Q 1497 1759 1228 1600 
Q 959 1441 959 1056 
Q 959 750 1161 570 
Q 1363 391 1709 391 
Q 2188 391 2477 730 
Q 2766 1069 2766 1631 
L 2766 1759 
L 2194 1759 
z
M 3341 1997 
L 3341 0 
L 2766 0 
L 2766 531 
Q 2569 213 2275 61 
Q 1981 -91 1556 -91 
Q 1019 -91 701 211 
Q 384 513 384 1019 
Q 384 1609 779 1909 
Q 1175 2209 1959 2209 
L 2766 2209 
L 2766 2266 
Q 2766 2663 2505 2880 
Q 2244 3097 1772 3097 
Q 1472 3097 1187 3025 
Q 903 2953 641 2809 
L 641 3341 
Q 956 3463 1253 3523 
Q 1550 3584 1831 3584 
Q 2591 3584 2966 3190 
Q 3341 2797 3341 1997 
z
" transform="scale(0.015625)"/>
       <path id="DejaVuSans-74" d="M 1172 4494 
L 1172 3500 
L 2356 3500 
L 2356 3053 
L 1172 3053 
L 1172 1153 
Q 1172 725 1289 603 
Q 1406 481 1766 481 
L 2356 481 
L 2356 0 
L 1766 0 
Q 1100 0 847 248 
Q 594 497 594 1153 
L 594 3053 
L 172 3053 
L 172 3500 
L 594 3500 
L 594 4494 
L 1172 4494 
z
" transform="scale(0.015625)"/>
       <path id="DejaVuSans-75" d="M 544 1381 
L 544 3500 
L 1119 3500 
L 1119 1403 
Q 1119 906 1312 657 
Q 1506 409 1894 409 
Q 2359 409 2629 706 
Q 2900 1003 2900 1516 
L 2900 3500 
L 3475 3500 
L 3475 0 
L 2900 0 
L 2900 538 
Q 2691 219 2414 64 
Q 2138 -91 1772 -91 
Q 1169 -91 856 284 
Q 544 659 544 1381 
z
M 1991 3584 
L 1991 3584 
z
" transform="scale(0.015625)"/>
       <path id="DejaVuSans-20" transform="scale(0.015625)"/>
       <path id="DejaVuSans-28" d="M 1984 4856 
Q 1566 4138 1362 3434 
Q 1159 2731 1159 2009 
Q 1159 1288 1364 580 
Q 1569 -128 1984 -844 
L 1484 -844 
Q 1016 -109 783 600 
Q 550 1309 550 2009 
Q 550 2706 781 3412 
Q 1013 4119 1484 4856 
L 1984 4856 
z
" transform="scale(0.015625)"/>
       <path id="DejaVuSans-2218" d="M 2000 2619 
Q 1750 2619 1578 2445 
Q 1406 2272 1406 2022 
Q 1406 1775 1578 1605 
Q 1750 1435 2000 1435 
Q 2250 1435 2422 1605 
Q 2594 1775 2594 2022 
Q 2594 2269 2420 2444 
Q 2247 2619 2000 2619 
z
M 2000 3022 
Q 2200 3022 2384 2945 
Q 2569 2869 2703 2725 
Q 2847 2585 2919 2406 
Q 2991 2228 2991 2022 
Q 2991 1610 2702 1324 
Q 2413 1038 1994 1038 
Q 1572 1038 1290 1319 
Q 1009 1600 1009 2022 
Q 1009 2441 1296 2731 
Q 1584 3022 2000 3022 
z
" transform="scale(0.015625)"/>
       <path id="DejaVuSans-Oblique-43" d="M 4447 4306 
L 4319 3641 
Q 4019 3944 3683 4091 
Q 3347 4238 2956 4238 
Q 2422 4238 2017 3981 
Q 1613 3725 1319 3200 
Q 1131 2863 1032 2486 
Q 934 2109 934 1728 
Q 934 1091 1264 756 
Q 1594 422 2222 422 
Q 2656 422 3056 561 
Q 3456 700 3834 978 
L 3688 231 
Q 3316 72 2936 -9 
Q 2556 -91 2175 -91 
Q 1278 -91 773 396 
Q 269 884 269 1753 
Q 269 2309 461 2846 
Q 653 3384 1013 3828 
Q 1394 4300 1883 4525 
Q 2372 4750 3022 4750 
Q 3422 4750 3780 4639 
Q 4138 4528 4447 4306 
z
" transform="scale(0.015625)"/>
       <path id="DejaVuSans-29" d="M 513 4856 
L 1013 4856 
Q 1481 4119 1714 3412 
Q 1947 2706 1947 2009 
Q 1947 1309 1714 600 
Q 1481 -109 1013 -844 
L 513 -844 
Q 928 -128 1133 580 
Q 1338 1288 1338 2009 
Q 1338 2731 1133 3434 
Q 928 4138 513 4856 
z
" transform="scale(0.015625)"/>
      </defs>
      <use xlink:href="#DejaVuSans-54" transform="translate(0 0.125)"/>
      <use xlink:href="#DejaVuSans-65" transform="translate(61.083984 0.125)"/>
      <use xlink:href="#DejaVuSans-6d" transform="translate(122.607422 0.125)"/>
      <use xlink:href="#DejaVuSans-70" transform="translate(220.019531 0.125)"/>
      <use xlink:href="#DejaVuSans-65" transform="translate(283.496094 0.125)"/>
      <use xlink:href="#DejaVuSans-72" transform="translate(345.019531 0.125)"/>
      <use xlink:href="#DejaVuSans-61" transform="translate(386.132812 0.125)"/>
      <use xlink:href="#DejaVuSans-74" transform="translate(447.412109 0.125)"/>
      <use xlink:href="#DejaVuSans-75" transform="translate(486.621094 0.125)"/>
      <use xlink:href="#DejaVuSans-72" transform="translate(550 0.125)"/>
      <use xlink:href="#DejaVuSans-65" transform="translate(591.113281 0.125)"/>
      <use xlink:href="#DejaVuSans-20" transform="translate(652.636719 0.125)"/>
      <use xlink:href="#DejaVuSans-28" transform="translate(684.423828 0.125)"/>
      <use xlink:href="#DejaVuSans-2218" transform="translate(724.394531 38.40625) scale(0.7)"/>
      <use xlink:href="#DejaVuSans-Oblique-43" transform="translate(770.947266 0.125)"/>
      <use xlink:href="#DejaVuSans-29" transform="translate(840.771484 0.125)"/>
     </g>
    </g>
   </g>
   <g id="matplotlib.axis_2">
    <g id="ytick_1">
     <g id="line2d_7">
      <defs>
       <path id="m493117af0a" d="M 0 0 
L -3.5 0 
" style="stroke: #000000; stroke-width: 0.8"/>
      </defs>
      <g>
       <use xlink:href="#m493117af0a" x="57.6" y="295.488" style="stroke: #000000; stroke-width: 0.8"/>
      </g>
     </g>
     <g id="text_8">
      <!-- 0.0 -->
      <g transform="translate(34.696875 299.287219) scale(0.1 -0.1)">
       <defs>
        <path id="DejaVuSans-2e" d="M 684 794 
L 1344 794 
L 1344 0 
L 684 0 
L 684 794 
z
" transform="scale(0.015625)"/>
       </defs>
       <use xlink:href="#DejaVuSans-30"/>
       <use xlink:href="#DejaVuSans-2e" transform="translate(63.623047 0)"/>
       <use xlink:href="#DejaVuSans-30" transform="translate(95.410156 0)"/>
      </g>
     </g>
    </g>
    <g id="ytick_2">
     <g id="line2d_8">
      <g>
       <use xlink:href="#m493117af0a" x="57.6" y="260.21349" style="stroke: #000000; stroke-width: 0.8"/>
      </g>
     </g>
     <g id="text_9">
      <!-- 0.2 -->
      <g transform="translate(34.696875 264.012708) scale(0.1 -0.1)">
       <use xlink:href="#DejaVuSans-30"/>
       <use xlink:href="#DejaVuSans-2e" transform="translate(63.623047 0)"/>
       <use xlink:href="#DejaVuSans-32" transform="translate(95.410156 0)"/>
      </g>
     </g>
    </g>
    <g id="ytick_3">
     <g id="line2d_9">
      <g>
       <use xlink:href="#m493117af0a" x="57.6" y="224.938979" style="stroke: #000000; stroke-width: 0.8"/>
      </g>
     </g>
     <g id="text_10">
      <!-- 0.4 -->
      <g transform="translate(34.696875 228.738198) scale(0.1 -0.1)">
       <use xlink:href="#DejaVuSans-30"/>
       <use xlink:href="#DejaVuSans-2e" transform="translate(63.623047 0)"/>
       <use xlink:href="#DejaVuSans-34" transform="translate(95.410156 0)"/>
      </g>
     </g>
    </g>
    <g id="ytick_4">
     <g id="line2d_10">
      <g>
       <use xlink:href="#m493117af0a" x="57.6" y="189.664469" style="stroke: #000000; stroke-width: 0.8"/>
      </g>
     </g>
     <g id="text_11">
      <!-- 0.6 -->
      <g transform="translate(34.696875 193.463688) scale(0.1 -0.1)">
       <use xlink:href="#DejaVuSans-30"/>
       <use xlink:href="#DejaVuSans-2e" transform="translate(63.623047 0)"/>
       <use xlink:href="#DejaVuSans-36" transform="translate(95.410156 0)"/>
      </g>
     </g>
    </g>
    <g id="ytick_5">
     <g id="line2d_11">
      <g>
       <use xlink:href="#m493117af0a" x="57.6" y="154.389958" style="stroke: #000000; stroke-width: 0.8"/>
      </g>
     </g>
     <g id="text_12">
      <!-- 0.8 -->
      <g transform="translate(34.696875 158.189177) scale(0.1 -0.1)">
       <use xlink:href="#DejaVuSans-30"/>
       <use xlink:href="#DejaVuSans-2e" transform="translate(63.623047 0)"/>
       <use xlink:href="#DejaVuSans-38" transform="translate(95.410156 0)"/>
      </g>
     </g>
    </g>
    <g id="ytick_6">
     <g id="line2d_12">
      <g>
       <use xlink:href="#m493117af0a" x="57.6" y="119.115448" style="stroke: #000000; stroke-width: 0.8"/>
      </g>
     </g>
     <g id="text_13">
      <!-- 1.0 -->
      <g transform="translate(34.696875 122.914667) scale(0.1 -0.1)">
       <use xlink:href="#DejaVuSans-31"/>
       <use xlink:href="#DejaVuSans-2e" transform="translate(63.623047 0)"/>
       <use xlink:href="#DejaVuSans-30" transform="translate(95.410156 0)"/>
      </g>
     </g>
    </g>
    <g id="ytick_7">
     <g id="line2d_13">
      <g>
       <use xlink:href="#m493117af0a" x="57.6" y="83.840938" style="stroke: #000000; stroke-width: 0.8"/>
      </g>
     </g>
     <g id="text_14">
      <!-- 1.2 -->
      <g transform="translate(34.696875 87.640156) scale(0.1 -0.1)">
       <use xlink:href="#DejaVuSans-31"/>
       <use xlink:href="#DejaVuSans-2e" transform="translate(63.623047 0)"/>
       <use xlink:href="#DejaVuSans-32" transform="translate(95.410156 0)"/>
      </g>
     </g>
    </g>
    <g id="ytick_8">
     <g id="line2d_14">
      <g>
       <use xlink:href="#m493117af0a" x="57.6" y="48.566427" style="stroke: #000000; stroke-width: 0.8"/>
      </g>
     </g>
     <g id="text_15">
      <!-- 1.4 -->
      <g transform="translate(34.696875 52.365646) scale(0.1 -0.1)">
       <use xlink:href="#DejaVuSans-31"/>
       <use xlink:href="#DejaVuSans-2e" transform="translate(63.623047 0)"/>
       <use xlink:href="#DejaVuSans-34" transform="translate(95.410156 0)"/>
      </g>
     </g>
    </g>
    <g id="text_16">
     <!-- Intensity ($^{\circ}C^{-1}$) -->
     <g transform="translate(28.596875 213.328) rotate(-90) scale(0.1 -0.1)">
      <defs>
       <path id="DejaVuSans-49" d="M 628 4666 
L 1259 4666 
L 1259 0 
L 628 0 
L 628 4666 
z
" transform="scale(0.015625)"/>
       <path id="DejaVuSans-6e" d="M 3513 2113 
L 3513 0 
L 2938 0 
L 2938 2094 
Q 2938 2591 2744 2837 
Q 2550 3084 2163 3084 
Q 1697 3084 1428 2787 
Q 1159 2491 1159 1978 
L 1159 0 
L 581 0 
L 581 3500 
L 1159 3500 
L 1159 2956 
Q 1366 3272 1645 3428 
Q 1925 3584 2291 3584 
Q 2894 3584 3203 3211 
Q 3513 2838 3513 2113 
z
" transform="scale(0.015625)"/>
       <path id="DejaVuSans-73" d="M 2834 3397 
L 2834 2853 
Q 2591 2978 2328 3040 
Q 2066 3103 1784 3103 
Q 1356 3103 1142 2972 
Q 928 2841 928 2578 
Q 928 2378 1081 2264 
Q 1234 2150 1697 2047 
L 1894 2003 
Q 2506 1872 2764 1633 
Q 3022 1394 3022 966 
Q 3022 478 2636 193 
Q 2250 -91 1575 -91 
Q 1294 -91 989 -36 
Q 684 19 347 128 
L 347 722 
Q 666 556 975 473 
Q 1284 391 1588 391 
Q 1994 391 2212 530 
Q 2431 669 2431 922 
Q 2431 1156 2273 1281 
Q 2116 1406 1581 1522 
L 1381 1569 
Q 847 1681 609 1914 
Q 372 2147 372 2553 
Q 372 3047 722 3315 
Q 1072 3584 1716 3584 
Q 2034 3584 2315 3537 
Q 2597 3491 2834 3397 
z
" transform="scale(0.015625)"/>
       <path id="DejaVuSans-69" d="M 603 3500 
L 1178 3500 
L 1178 0 
L 603 0 
L 603 3500 
z
M 603 4863 
L 1178 4863 
L 1178 4134 
L 603 4134 
L 603 4863 
z
" transform="scale(0.015625)"/>
       <path id="DejaVuSans-79" d="M 2059 -325 
Q 1816 -950 1584 -1140 
Q 1353 -1331 966 -1331 
L 506 -1331 
L 506 -850 
L 844 -850 
Q 1081 -850 1212 -737 
Q 1344 -625 1503 -206 
L 1606 56 
L 191 3500 
L 800 3500 
L 1894 763 
L 2988 3500 
L 3597 3500 
L 2059 -325 
z
" transform="scale(0.015625)"/>
       <path id="DejaVuSans-2212" d="M 678 2272 
L 4684 2272 
L 4684 1741 
L 678 1741 
L 678 2272 
z
" transform="scale(0.015625)"/>
      </defs>
      <use xlink:href="#DejaVuSans-49" transform="translate(0 0.684375)"/>
      <use xlink:href="#DejaVuSans-6e" transform="translate(29.492188 0.684375)"/>
      <use xlink:href="#DejaVuSans-74" transform="translate(92.871094 0.684375)"/>
      <use xlink:href="#DejaVuSans-65" transform="translate(132.080078 0.684375)"/>
      <use xlink:href="#DejaVuSans-6e" transform="translate(193.603516 0.684375)"/>
      <use xlink:href="#DejaVuSans-73" transform="translate(256.982422 0.684375)"/>
      <use xlink:href="#DejaVuSans-69" transform="translate(309.082031 0.684375)"/>
      <use xlink:href="#DejaVuSans-74" transform="translate(336.865234 0.684375)"/>
      <use xlink:href="#DejaVuSans-79" transform="translate(376.074219 0.684375)"/>
      <use xlink:href="#DejaVuSans-20" transform="translate(435.253906 0.684375)"/>
      <use xlink:href="#DejaVuSans-28" transform="translate(467.041016 0.684375)"/>
      <use xlink:href="#DejaVuSans-2218" transform="translate(507.011719 38.965625) scale(0.7)"/>
      <use xlink:href="#DejaVuSans-Oblique-43" transform="translate(553.564453 0.684375)"/>
      <use xlink:href="#DejaVuSans-2212" transform="translate(630.589193 38.965625) scale(0.7)"/>
      <use xlink:href="#DejaVuSans-31" transform="translate(689.241536 38.965625) scale(0.7)"/>
      <use xlink:href="#DejaVuSans-29" transform="translate(736.512044 0.684375)"/>
     </g>
    </g>
    <g id="text_17">
     <!-- 1e7 -->
     <g transform="translate(57.6 38.472) scale(0.1 -0.1)">
      <defs>
       <path id="DejaVuSans-37" d="M 525 4666 
L 3525 4666 
L 3525 4397 
L 1831 0 
L 1172 0 
L 2766 4134 
L 525 4134 
L 525 4666 
z
" transform="scale(0.015625)"/>
      </defs>
      <use xlink:href="#DejaVuSans-31"/>
      <use xlink:href="#DejaVuSans-65" transform="translate(63.623047 0)"/>
      <use xlink:href="#DejaVuSans-37" transform="translate(125.146484 0)"/>
     </g>
    </g>
   </g>
   <g id="line2d_15">
    <path d="M 73.832727 295.488 
L 95.92028 295.369125 
L 104.040704 294.707287 
L 107.126465 293.977986 
L 109.237775 293.264295 
L 109.725001 293.00538 
L 110.374635 292.717628 
L 110.86186 292.407565 
L 112.323536 291.46944 
L 115.08448 288.889638 
L 117.683016 285.337671 
L 118.982284 282.976925 
L 121.093594 278.237794 
L 124.016947 269.554533 
L 125.316214 264.763725 
L 125.80344 263.014374 
L 126.615482 259.529252 
L 128.889201 249.310932 
L 129.376426 246.640211 
L 130.350877 241.675941 
L 133.761455 222.646401 
L 139.932977 185.25586 
L 145.292457 153.326873 
L 145.779683 150.656945 
L 147.241359 142.332954 
L 148.053401 138.183526 
L 148.378218 136.287609 
L 148.865444 133.536638 
L 149.027852 132.968013 
L 149.839894 128.428536 
L 151.951205 117.84486 
L 153.575289 110.47187 
L 153.900106 108.835397 
L 154.224923 107.562164 
L 156.173825 99.174062 
L 156.336234 98.827225 
L 157.635501 93.524761 
L 158.285135 91.292237 
L 158.609952 89.813265 
L 159.584403 86.48097 
L 160.071629 84.779857 
L 161.208488 81.189617 
L 161.370896 80.952308 
L 161.695713 79.378536 
L 161.858122 79.219889 
L 162.345347 77.602552 
L 162.507756 77.308804 
L 162.994981 75.770835 
L 164.943883 70.774024 
L 165.593517 69.422481 
L 165.918334 68.270857 
L 166.080742 68.236993 
L 166.567968 66.932718 
L 166.730376 66.832715 
L 167.055193 66.237722 
L 167.38001 65.324818 
L 167.542418 65.201974 
L 168.029644 64.018074 
L 168.192052 64.00802 
L 168.516869 63.03365 
L 168.679278 63.211875 
L 169.166503 61.928147 
L 169.328912 62.011042 
L 169.49132 61.389417 
L 169.653729 61.734931 
L 169.816137 61.496123 
L 169.978546 60.815148 
L 170.140954 60.748656 
L 170.303363 60.174475 
L 170.465771 60.336738 
L 170.952996 59.526394 
L 171.277813 59.301695 
L 171.60263 58.642944 
L 172.73949 57.19131 
L 172.901898 57.452605 
L 173.226715 56.693674 
L 173.389124 56.934511 
L 173.876349 56.082279 
L 174.038758 56.362976 
L 174.201166 55.93783 
L 174.8508 55.531115 
L 175.175617 55.049089 
L 175.500434 54.835942 
L 175.825251 54.994501 
L 176.150068 54.553041 
L 176.312476 54.937533 
L 176.637293 54.404976 
L 176.799702 54.226399 
L 176.96211 54.405064 
L 177.124519 54.127983 
L 177.936561 54.162905 
L 178.586195 53.779912 
L 178.748603 54.116695 
L 178.911012 53.81986 
L 179.07342 54.005757 
L 179.235829 53.755572 
L 179.398237 53.900374 
L 179.560646 53.871978 
L 179.723054 53.568 
L 179.885463 53.802223 
L 180.047871 53.754426 
L 180.372688 53.894995 
L 180.697505 53.692872 
L 180.859914 54.225693 
L 181.184731 53.790582 
L 181.671956 54.274725 
L 181.834364 53.940499 
L 181.996773 54.100204 
L 182.159181 53.926301 
L 182.32159 54.190331 
L 182.483998 54.196504 
L 182.808815 54.663185 
L 183.133632 54.416087 
L 183.458449 54.530465 
L 183.945675 54.902435 
L 184.108083 55.23084 
L 184.270492 55.006935 
L 184.4329 55.40201 
L 184.595309 55.186395 
L 185.082534 55.924337 
L 185.244942 55.710309 
L 185.569759 56.019755 
L 185.732168 56.134221 
L 185.894576 56.021166 
L 186.056985 56.477001 
L 186.381802 56.625771 
L 186.54421 56.968022 
L 186.706619 56.999328 
L 186.869027 56.772248 
L 187.356253 57.651995 
L 187.518661 57.752968 
L 187.68107 57.489115 
L 188.005887 58.208626 
L 188.168295 58.129788 
L 188.330704 58.362776 
L 188.65552 58.432267 
L 188.817929 58.796829 
L 188.980337 58.768433 
L 189.142746 59.083787 
L 189.305154 59.11474 
L 189.954788 60.192377 
L 190.117197 59.985403 
L 190.604422 60.865679 
L 190.766831 60.838165 
L 191.091648 61.487657 
L 191.741282 62.446771 
L 192.066099 62.771825 
L 192.228507 62.681434 
L 192.390915 63.146 
L 192.715732 63.364349 
L 193.040549 64.217816 
L 193.202958 64.225223 
L 193.365366 64.754253 
L 193.527775 64.871805 
L 193.690183 64.819334 
L 194.339817 66.167614 
L 194.664634 66.388256 
L 195.15186 67.444375 
L 195.314268 67.195778 
L 195.801493 68.275266 
L 196.288719 69.074057 
L 196.451127 69.322037 
L 196.613536 69.353167 
L 197.100761 70.540066 
L 197.587987 71.064951 
L 197.750395 71.47052 
L 197.912804 71.55315 
L 198.887255 73.362909 
L 199.049663 73.516529 
L 199.37448 74.478906 
L 200.673748 76.881718 
L 200.836156 76.765224 
L 200.998565 77.478562 
L 201.160973 77.323354 
L 201.323382 78.00186 
L 201.48579 78.189256 
L 202.135424 79.567254 
L 202.297833 79.771582 
L 202.62265 80.736428 
L 202.785058 80.837754 
L 203.272283 81.973858 
L 203.434692 81.932057 
L 203.5971 82.718062 
L 203.759509 82.558885 
L 203.921917 83.359088 
L 204.246734 83.560593 
L 204.73396 84.742554 
L 205.058777 85.382257 
L 205.221185 85.641613 
L 205.708411 86.838213 
L 205.870819 86.918639 
L 206.195636 87.931193 
L 206.358044 88.206246 
L 206.682861 88.91253 
L 207.332495 90.153223 
L 207.657312 90.777141 
L 207.982129 91.769148 
L 208.144538 91.756097 
L 209.606214 95.157706 
L 210.093439 96.046006 
L 211.06789 98.384001 
L 211.230299 98.598911 
L 211.392707 99.269567 
L 211.555116 99.272301 
L 212.042341 100.586806 
L 212.367158 101.241148 
L 212.529567 101.452972 
L 213.341609 103.560359 
L 214.153651 105.271525 
L 214.31606 105.913874 
L 214.478468 106.057353 
L 215.128102 107.473096 
L 215.290511 108.131671 
L 215.452919 108.288202 
L 216.102553 109.814882 
L 216.42737 110.25502 
L 216.914595 111.541834 
L 217.239412 112.314522 
L 217.401821 112.521936 
L 217.564229 113.258027 
L 217.726638 113.280868 
L 218.051455 114.194301 
L 218.701089 115.530852 
L 218.863497 116.206888 
L 219.188314 116.683182 
L 219.513131 117.339112 
L 219.67554 117.98878 
L 219.837948 117.857471 
L 220.162765 119.057157 
L 220.325173 119.627105 
L 220.487582 119.708501 
L 220.812399 120.758711 
L 220.974807 120.647596 
L 221.462033 121.9427 
L 222.761301 125.10215 
L 222.923709 125.229843 
L 223.086118 126.112323 
L 223.248526 126.045214 
L 223.735752 127.401783 
L 223.89816 127.564311 
L 224.060568 128.17015 
L 224.222977 128.316363 
L 225.197428 130.841753 
L 225.359836 130.838138 
L 225.684653 131.719912 
L 226.00947 132.479814 
L 226.334287 133.174192 
L 226.496696 133.432314 
L 227.14633 135.156532 
L 227.308738 135.398338 
L 227.633555 136.288138 
L 227.795963 136.344401 
L 228.283189 137.730954 
L 228.445597 137.850446 
L 228.770414 138.810442 
L 229.095231 139.424395 
L 229.420048 140.353172 
L 229.744865 140.749129 
L 229.907274 141.342358 
L 230.069682 141.486895 
L 230.232091 141.864156 
L 230.394499 142.542838 
L 230.556908 142.62247 
L 230.719316 143.286513 
L 230.881724 143.408915 
L 231.531358 145.066376 
L 231.693767 145.120523 
L 231.856175 145.729978 
L 232.018584 145.866138 
L 233.155443 148.247784 
L 233.317852 149.001336 
L 233.48026 149.061303 
L 233.805077 149.84863 
L 233.967486 149.929056 
L 234.292303 150.995933 
L 235.916387 154.382374 
L 236.078796 154.863607 
L 236.241204 154.969783 
L 236.566021 155.931014 
L 237.540472 157.876315 
L 237.865289 158.569988 
L 238.677331 160.487334 
L 238.83974 160.543597 
L 239.976599 163.277636 
L 240.139008 163.33628 
L 242.087909 167.387204 
L 242.250318 167.613755 
L 242.737543 168.919794 
L 242.899952 169.001895 
L 244.036811 171.428517 
L 244.19922 171.493246 
L 244.361628 171.925358 
L 244.524037 172.028536 
L 245.011262 173.299742 
L 245.17367 173.437665 
L 246.148121 175.324587 
L 246.960164 177.092721 
L 247.284981 177.429064 
L 247.609798 178.312249 
L 247.934615 178.563933 
L 248.259432 179.353465 
L 249.721108 182.221371 
L 249.883516 182.403034 
L 250.370742 183.581644 
L 250.53315 183.953437 
L 250.695559 183.980687 
L 251.020376 184.830538 
L 251.182784 184.83336 
L 251.67001 185.810905 
L 251.832418 186.361893 
L 251.994827 186.367889 
L 252.319643 186.924698 
L 252.482052 187.152483 
L 252.806869 187.820494 
L 253.131686 188.534626 
L 253.294094 188.588332 
L 254.755771 191.281981 
L 254.918179 191.49892 
L 255.405405 192.588197 
L 255.567813 192.660157 
L 255.89263 193.359562 
L 256.055038 193.518209 
L 256.704672 194.752905 
L 257.029489 195.144805 
L 257.354306 195.891654 
L 258.00394 196.821932 
L 258.328757 197.552819 
L 258.491166 197.566224 
L 259.140799 198.844484 
L 259.303208 198.948367 
L 261.089701 202.067516 
L 261.25211 202.173516 
L 263.038603 205.147333 
L 263.36342 205.539762 
L 263.688237 205.994803 
L 263.850645 206.105918 
L 264.337871 207.156217 
L 264.500279 207.1959 
L 264.987505 208.039579 
L 267.098815 210.928296 
L 267.261223 211.671971 
L 267.423632 211.710156 
L 267.748449 212.066958 
L 267.910857 212.4145 
L 268.073266 212.489987 
L 268.7229 213.624327 
L 269.210125 214.138982 
L 269.69735 214.958497 
L 270.022167 215.33179 
L 270.346984 215.751909 
L 270.671801 216.340024 
L 270.83421 216.389761 
L 271.321435 217.137139 
L 272.133478 218.325008 
L 272.458295 218.747773 
L 272.620703 218.786664 
L 272.94552 219.275568 
L 274.244788 220.973242 
L 274.569605 221.497774 
L 274.732013 221.589929 
L 274.894422 222.10432 
L 275.219239 222.338278 
L 275.868873 223.20656 
L 276.031281 223.334783 
L 276.356098 223.786296 
L 276.518507 223.876599 
L 276.843323 224.388432 
L 277.492957 225.19807 
L 278.629817 226.600232 
L 278.954634 227.12009 
L 279.279451 227.44541 
L 279.604268 227.770023 
L 280.41631 228.750655 
L 280.578718 228.847042 
L 280.903535 229.372015 
L 281.390761 229.957484 
L 281.715578 230.308642 
L 282.365212 231.115281 
L 282.52762 231.234333 
L 282.852437 231.76054 
L 283.014846 231.800577 
L 283.989296 232.92407 
L 284.151705 233.028659 
L 284.476522 233.441106 
L 285.126156 234.032219 
L 285.77579 234.95985 
L 285.938198 234.969904 
L 286.425424 235.626539 
L 286.750241 235.88854 
L 287.075058 236.28044 
L 287.399874 236.660875 
L 288.049508 237.359663 
L 288.861551 238.101751 
L 289.511185 238.791544 
L 289.673593 238.850717 
L 289.99841 239.27842 
L 291.947312 241.3157 
L 292.10972 241.203174 
L 292.434537 241.786791 
L 292.759354 241.956109 
L 293.084171 242.395893 
L 293.896214 242.971662 
L 294.058622 243.413828 
L 294.383439 243.505541 
L 294.708256 243.914197 
L 294.870664 243.945679 
L 295.195481 244.380349 
L 295.520298 244.577446 
L 295.682707 244.702582 
L 295.845115 244.989452 
L 296.007524 245.012998 
L 296.657158 245.78886 
L 296.819566 245.642471 
L 297.306792 246.260569 
L 297.4692 246.298401 
L 297.794017 246.681746 
L 297.956425 246.760056 
L 298.443651 247.252753 
L 298.606059 247.263247 
L 299.093285 247.857446 
L 299.418102 247.848539 
L 299.58051 248.309224 
L 299.742919 248.33568 
L 300.71737 249.12918 
L 301.204595 249.492949 
L 301.367004 249.791724 
L 301.529412 249.785462 
L 303.153497 251.276516 
L 303.315905 251.160639 
L 303.478314 251.427579 
L 303.640722 251.409854 
L 303.803131 251.704749 
L 303.965539 251.759071 
L 304.127948 251.97645 
L 304.290356 251.991971 
L 304.93999 252.602132 
L 305.264807 252.726122 
L 305.427215 252.946588 
L 305.752032 252.984331 
L 306.076849 253.502779 
L 306.239258 253.393516 
L 306.564075 253.815311 
L 307.376117 254.307037 
L 307.538526 254.564806 
L 307.863343 254.697173 
L 308.675385 255.310068 
L 308.837793 255.356719 
L 309.16261 255.722868 
L 309.325019 255.734509 
L 310.137061 256.535946 
L 310.29947 256.478624 
L 310.461878 256.701207 
L 310.786695 256.849624 
L 310.949104 256.987636 
L 311.111512 256.95827 
L 311.273921 257.213569 
L 311.436329 257.139581 
L 311.598738 257.42451 
L 311.761146 257.462254 
L 311.923555 257.736425 
L 312.085963 257.645152 
L 312.735597 258.321982 
L 312.898005 258.282827 
L 315.496541 260.03553 
L 315.658949 259.997698 
L 316.146175 260.408117 
L 316.308583 260.364553 
L 316.470992 260.671088 
L 316.6334 260.680877 
L 316.795809 260.897991 
L 316.958217 260.788111 
L 317.120626 261.126306 
L 317.283034 261.109991 
L 317.932668 261.611683 
L 318.095077 261.54281 
L 318.257485 261.60357 
L 318.419894 261.833031 
L 318.582302 261.859927 
L 318.907119 262.063726 
L 319.394344 262.381108 
L 320.531204 263.050795 
L 321.018429 263.36465 
L 321.343246 263.4755 
L 321.505655 263.721628 
L 321.668063 263.648521 
L 322.155289 264.091657 
L 322.317697 264.014759 
L 322.642514 264.279494 
L 322.804922 264.326498 
L 322.967331 264.518567 
L 323.129739 264.535675 
L 323.292148 264.669807 
L 323.454556 264.650053 
L 324.10419 265.106858 
L 325.078641 265.606345 
L 325.403458 265.759965 
L 326.540317 266.377887 
L 327.514768 266.80268 
L 327.677177 267.011329 
L 327.839585 267.022793 
L 328.001994 267.200929 
L 328.326811 267.25049 
L 328.651628 267.393793 
L 328.814036 267.472455 
L 328.976445 267.682073 
L 329.138853 267.573869 
L 329.46367 267.824053 
L 330.275712 268.259253 
L 330.438121 268.183853 
L 330.925346 268.586424 
L 331.087755 268.626372 
L 331.250163 268.792515 
L 331.412572 268.771527 
L 331.737389 268.973385 
L 332.387023 269.336977 
L 332.549431 269.299939 
L 333.036657 269.598714 
L 333.199065 269.582223 
L 333.523882 269.912216 
L 333.68629 269.7511 
L 334.011107 270.025095 
L 334.985558 270.42793 
L 335.472784 270.62582 
L 335.635192 270.663034 
L 335.960009 270.845315 
L 337.259277 271.422935 
L 337.421685 271.456887 
L 337.584094 271.664037 
L 337.908911 271.691727 
L 338.558545 272.006199 
L 338.720953 271.98283 
L 339.04577 272.204442 
L 339.208179 272.326668 
L 339.370587 272.304004 
L 339.532996 272.441134 
L 339.695404 272.401362 
L 340.182629 272.671212 
L 340.345038 272.645462 
L 340.669855 272.852082 
L 341.15708 273.030218 
L 341.319489 273.170787 
L 341.481897 273.143273 
L 341.969123 273.398308 
L 342.456348 273.573887 
L 342.943574 273.769396 
L 343.105982 273.748231 
L 343.430799 273.900176 
L 343.755616 274.053973 
L 345.054884 274.594026 
L 345.217292 274.497109 
L 345.866926 274.784332 
L 347.978236 275.527566 
L 348.140645 275.745209 
L 348.303053 275.672191 
L 350.901589 276.631481 
L 351.063997 276.538268 
L 351.388814 276.757235 
L 351.551223 276.751503 
L 351.713631 276.912178 
L 351.87604 276.828666 
L 352.038448 276.887486 
L 352.200857 277.064741 
L 352.363265 276.96994 
L 352.850491 277.225504 
L 353.337716 277.359018 
L 353.662533 277.457787 
L 353.98735 277.565109 
L 354.636984 277.824994 
L 354.799392 277.789014 
L 355.124209 277.979938 
L 356.261069 278.258342 
L 359.022013 279.098228 
L 359.34683 279.188266 
L 360.970915 279.667999 
L 361.133323 279.621878 
L 361.45814 279.735109 
L 362.107774 279.927796 
L 363.244633 280.274368 
L 363.407042 280.26502 
L 363.56945 280.370139 
L 363.731859 280.288566 
L 363.894267 280.457002 
L 364.219084 280.505328 
L 364.543901 280.563972 
L 365.68076 280.904106 
L 365.843169 280.877562 
L 366.167986 280.988677 
L 375.262861 283.088128 
L 375.425269 283.061055 
L 375.587677 283.177813 
L 375.750086 283.10647 
L 376.886945 283.393605 
L 377.536579 283.53241 
L 378.673439 283.76046 
L 385.819412 285.134578 
L 385.98182 285.05186 
L 386.306637 285.179201 
L 386.956271 285.274177 
L 387.605905 285.48018 
L 387.768313 285.385116 
L 388.09313 285.496936 
L 389.067581 285.653643 
L 389.392398 285.660345 
L 389.879623 285.793154 
L 390.529257 285.832573 
L 391.3413 286.069265 
L 391.503708 285.994483 
L 391.828525 286.13514 
L 392.478159 286.231175 
L 395.076695 286.591768 
L 395.401512 286.638507 
L 396.538371 286.822199 
L 398.487273 287.110127 
L 398.487273 287.110127 
" clip-path="url(#p2ec025bf98)" style="fill: none; stroke-dasharray: 1.85,0.8; stroke-dashoffset: 0; stroke: #8000ff; stroke-width: 0.5"/>
   </g>
   <g id="line2d_16">
    <path d="M 73.832727 295.487912 
L 98.843633 295.392142 
L 104.852746 295.137195 
L 105.989606 295.025022 
L 107.938507 294.808437 
L 110.699452 294.348633 
L 111.349085 294.177816 
L 112.810762 293.803378 
L 113.297987 293.634148 
L 114.759663 293.086952 
L 118.819875 290.797107 
L 119.956735 289.824325 
L 120.281552 289.613295 
L 120.931186 288.979236 
L 122.880087 286.919028 
L 123.854538 285.673485 
L 124.504172 284.838184 
L 125.316214 283.594229 
L 126.128257 282.392955 
L 126.615482 281.605805 
L 127.265116 280.510972 
L 131.325328 272.575001 
L 132.949413 268.86377 
L 133.599047 267.404375 
L 134.248681 265.895596 
L 134.573498 265.108886 
L 151.301571 223.525265 
L 151.463979 223.256738 
L 151.788796 222.392512 
L 152.113613 221.811012 
L 152.600839 220.46185 
L 152.763247 220.27075 
L 153.250473 219.013126 
L 154.062515 217.292171 
L 154.54974 216.10924 
L 155.199374 214.642614 
L 155.524191 213.848144 
L 155.6866 213.632176 
L 155.849008 213.13119 
L 156.011417 213.112053 
L 157.310684 210.024475 
L 157.473093 209.887787 
L 158.122727 208.526102 
L 160.396445 204.031865 
L 160.721262 203.415884 
L 160.883671 202.848934 
L 161.046079 202.704309 
L 163.969432 197.308984 
L 164.13184 197.351931 
L 164.294249 196.750236 
L 164.456657 196.610284 
L 164.619066 196.120057 
L 164.781474 196.081696 
L 165.593517 194.71719 
L 166.080742 193.918487 
L 166.243151 193.425878 
L 166.567968 193.15497 
L 167.704827 191.328985 
L 167.867235 190.946168 
L 168.192052 190.790078 
L 168.516869 189.956718 
L 168.679278 189.830876 
L 169.004095 189.207047 
L 169.166503 189.208193 
L 169.978546 187.754089 
L 171.60263 185.644938 
L 171.927447 185.205506 
L 172.089856 185.134075 
L 172.252264 184.627798 
L 172.414673 184.622418 
L 172.577081 184.502132 
L 172.73949 184.023193 
L 172.901898 184.07099 
L 173.064307 183.716304 
L 173.226715 183.634203 
L 173.389124 183.335075 
L 173.551532 183.333135 
L 174.038758 182.5705 
L 174.201166 182.39889 
L 174.363575 182.024186 
L 174.525983 181.952932 
L 174.8508 181.464909 
L 175.013208 181.462351 
L 175.500434 180.803776 
L 175.662842 180.759507 
L 175.825251 180.488775 
L 175.987659 180.518494 
L 176.150068 180.15305 
L 176.312476 180.079326 
L 176.637293 179.498002 
L 176.799702 179.336533 
L 176.96211 179.362195 
L 177.286927 178.865883 
L 177.449336 178.90636 
L 178.098969 178.046015 
L 178.261378 178.20819 
L 178.586195 177.302428 
L 178.911012 177.451904 
L 179.07342 177.112211 
L 179.235829 177.097748 
L 179.398237 176.735832 
L 179.560646 176.720664 
L 182.159181 174.415562 
L 182.483998 174.120491 
L 182.646407 174.171727 
L 182.808815 173.891824 
L 182.971224 173.841734 
L 183.133632 173.584936 
L 183.458449 173.662981 
L 183.620858 173.34648 
L 183.945675 173.203001 
L 184.108083 172.7917 
L 184.270492 172.918336 
L 185.407351 172.146089 
L 185.894576 171.815567 
L 186.056985 171.504357 
L 186.381802 171.686903 
L 186.706619 171.149319 
L 188.005887 170.734138 
L 188.168295 170.378748 
L 188.330704 170.538277 
L 188.493112 170.312431 
L 188.65552 170.437568 
L 188.817929 170.276451 
L 188.980337 169.767176 
L 189.142746 169.89778 
L 189.305154 169.702447 
L 189.629971 169.772114 
L 189.954788 169.781286 
L 190.117197 169.487184 
L 190.279605 169.443708 
L 190.442014 169.170243 
L 191.091648 169.13876 
L 192.228507 168.682132 
L 192.390915 168.489533 
L 192.553324 168.615375 
L 193.040549 168.30346 
L 193.527775 168.320127 
L 193.852592 168.063505 
L 194.015 168.189964 
L 194.177409 167.939515 
L 194.339817 168.067297 
L 194.664634 167.739685 
L 194.827043 167.951861 
L 195.314268 167.849918 
L 195.476677 167.850447 
L 195.639085 167.592061 
L 195.963902 167.472745 
L 196.12631 167.277589 
L 196.775944 167.547439 
L 197.100761 167.193283 
L 197.587987 167.12829 
L 197.750395 166.94786 
L 197.912804 167.422479 
L 198.075212 167.018233 
L 198.237621 167.014794 
L 198.400029 166.851208 
L 198.887255 167.045483 
L 199.212071 166.784451 
L 199.699297 166.943275 
L 200.186522 166.836393 
L 200.348931 167.020879 
L 200.673748 166.627215 
L 200.836156 166.994864 
L 201.160973 166.607109 
L 201.323382 166.823165 
L 201.48579 166.678451 
L 201.810607 166.772723 
L 202.297833 166.73101 
L 202.785058 166.862496 
L 202.947466 166.751381 
L 203.272283 166.816639 
L 203.921917 166.697059 
L 204.084326 166.821049 
L 204.246734 166.73639 
L 204.409143 166.818227 
L 204.571551 166.663195 
L 204.896368 166.948125 
L 205.058777 166.832866 
L 205.221185 166.954915 
L 205.383594 166.677746 
L 205.546002 166.843624 
L 205.708411 166.823253 
L 205.870819 166.939218 
L 206.033228 166.85747 
L 206.195636 166.929518 
L 206.358044 166.752881 
L 206.520453 166.879869 
L 206.84527 166.744238 
L 207.007678 167.115591 
L 207.170087 166.993982 
L 207.332495 167.132523 
L 207.494904 167.030315 
L 207.657312 167.138431 
L 207.982129 166.847769 
L 208.144538 167.114973 
L 208.95658 167.287289 
L 209.118989 166.988691 
L 209.443806 167.341965 
L 209.606214 167.123439 
L 209.768622 167.293815 
L 209.931031 167.14284 
L 210.093439 167.322564 
L 210.580665 167.32565 
L 213.341609 168.209365 
L 213.504017 168.082906 
L 213.828834 168.321274 
L 213.991243 168.16633 
L 214.478468 168.427538 
L 214.640877 168.635481 
L 214.803285 168.442089 
L 214.965694 168.681779 
L 215.128102 168.58451 
L 215.452919 168.71238 
L 215.615328 168.527277 
L 215.940145 168.819085 
L 216.102553 168.65594 
L 216.264962 168.847128 
L 216.42737 168.865647 
L 216.589779 169.048458 
L 216.914595 169.149872 
L 217.239412 169.397411 
L 217.401821 169.239469 
L 217.564229 169.453673 
L 217.726638 169.449352 
L 217.889046 169.17765 
L 218.213863 169.79469 
L 218.863497 169.703329 
L 219.025906 169.907392 
L 219.350723 169.856244 
L 219.513131 170.093641 
L 219.837948 170.072918 
L 220.000357 169.979793 
L 220.64999 170.689692 
L 220.974807 170.456175 
L 221.462033 170.742428 
L 221.78685 170.82012 
L 221.949258 171.212108 
L 222.111667 171.11863 
L 222.274075 171.167838 
L 222.436484 171.083091 
L 222.598892 171.340066 
L 223.086118 171.438482 
L 223.410935 171.706127 
L 223.573343 171.648454 
L 224.060568 171.883646 
L 224.222977 171.874034 
L 224.385385 172.270696 
L 224.710202 172.143267 
L 224.872611 172.434811 
L 225.035019 172.417173 
L 225.197428 172.188418 
L 225.522245 172.708188 
L 225.684653 172.615063 
L 226.00947 172.685965 
L 226.171879 172.593105 
L 226.496696 173.003612 
L 226.821513 173.239863 
L 226.983921 173.132276 
L 227.14633 173.419851 
L 227.633555 173.404154 
L 227.958372 173.692788 
L 228.12078 173.730002 
L 228.283189 173.937593 
L 228.445597 173.86625 
L 228.770414 174.05444 
L 228.932823 174.040154 
L 229.25764 174.437168 
L 229.420048 174.365561 
L 229.744865 174.676858 
L 229.907274 174.750494 
L 230.069682 174.98648 
L 230.232091 174.779331 
L 230.556908 175.241603 
L 230.719316 174.909141 
L 230.881724 175.237018 
L 231.206541 175.240104 
L 232.018584 175.882012 
L 232.180992 175.889596 
L 232.830626 176.366331 
L 232.993035 176.153538 
L 233.155443 176.422329 
L 233.642669 176.484413 
L 233.805077 176.878429 
L 233.967486 176.771282 
L 234.129894 176.869522 
L 234.292303 177.107096 
L 234.779528 177.167062 
L 234.941936 177.487267 
L 235.104345 177.34467 
L 235.266753 177.592914 
L 235.429162 177.460899 
L 235.59157 177.566635 
L 235.753979 177.9252 
L 235.916387 177.899097 
L 236.241204 178.314013 
L 236.403613 178.216832 
L 236.72843 178.507494 
L 236.890838 178.400612 
L 237.053247 178.55485 
L 237.215655 178.526189 
L 237.540472 178.838104 
L 237.702881 178.836781 
L 238.027697 179.150989 
L 238.190106 179.113157 
L 238.352514 179.495357 
L 238.514923 179.416606 
L 238.677331 179.768117 
L 239.326965 180.001987 
L 239.489374 180.280479 
L 239.651782 180.085058 
L 239.814191 180.209754 
L 239.976599 180.481455 
L 240.139008 180.35967 
L 240.301416 180.567525 
L 240.463825 180.468228 
L 240.95105 180.945756 
L 241.275867 181.074773 
L 241.600684 181.375312 
L 242.087909 181.468172 
L 242.250318 181.880354 
L 242.737543 181.898433 
L 243.06236 182.220401 
L 243.549586 182.536901 
L 243.711994 182.807809 
L 243.874403 182.61962 
L 244.361628 183.15738 
L 244.686445 183.15932 
L 244.848854 183.382519 
L 245.011262 183.23516 
L 245.336079 183.677943 
L 245.660896 183.881301 
L 245.985713 184.204504 
L 246.148121 184.102119 
L 247.609798 185.130548 
L 247.772206 185.126403 
L 248.097023 185.486379 
L 248.259432 185.315563 
L 248.42184 185.658784 
L 248.909065 185.862229 
L 249.233882 186.283054 
L 249.396291 186.219648 
L 249.721108 186.445758 
L 250.045925 186.693385 
L 250.370742 186.731041 
L 250.53315 187.000361 
L 250.695559 187.007328 
L 251.182784 187.41713 
L 251.345193 187.493675 
L 251.67001 187.794743 
L 251.832418 187.590328 
L 252.482052 188.42845 
L 252.806869 188.375626 
L 253.294094 188.692832 
L 253.456503 188.711528 
L 253.618911 189.034731 
L 253.78132 189.01339 
L 254.106137 189.332271 
L 254.268545 189.377775 
L 254.430954 189.647978 
L 254.593362 189.50106 
L 254.918179 189.871354 
L 255.080588 190.054428 
L 255.242996 189.936435 
L 255.730221 190.327012 
L 256.217447 190.668646 
L 256.379855 190.699335 
L 257.354306 191.51982 
L 257.516715 191.394948 
L 257.679123 191.679966 
L 257.841532 191.609153 
L 258.00394 191.933325 
L 258.328757 191.98659 
L 258.653574 192.408738 
L 259.303208 192.729647 
L 259.628025 193.048264 
L 259.952842 193.070487 
L 260.11525 193.330901 
L 260.277659 193.38055 
L 260.764884 193.755783 
L 261.576927 194.11717 
L 261.739335 194.579443 
L 261.901744 194.41815 
L 262.064152 194.67927 
L 262.226561 194.551399 
L 262.388969 194.676359 
L 262.713786 195.074168 
L 263.038603 195.394901 
L 263.201011 195.252657 
L 264.175462 196.116706 
L 264.337871 196.088222 
L 264.662688 196.270591 
L 265.312322 196.630126 
L 265.47473 197.112946 
L 265.637139 197.011267 
L 265.961956 197.276267 
L 266.773998 197.666315 
L 266.936406 197.949922 
L 267.098815 197.829107 
L 267.58604 198.31422 
L 267.748449 198.590948 
L 267.910857 198.459022 
L 268.073266 198.477012 
L 268.235674 198.731782 
L 268.398083 198.764587 
L 268.885308 199.161866 
L 269.210125 199.143612 
L 269.534942 199.509408 
L 270.022167 199.683841 
L 270.184576 200.15017 
L 270.346984 200.0432 
L 270.83421 200.314108 
L 270.996618 200.54595 
L 271.321435 200.625847 
L 271.483844 200.708213 
L 271.646252 200.992613 
L 271.808661 200.92374 
L 272.133478 201.300736 
L 272.295886 201.262463 
L 272.620703 201.616355 
L 272.783112 201.622528 
L 272.94552 201.87183 
L 273.270337 201.87915 
L 273.432745 202.146795 
L 273.757562 202.348036 
L 274.407196 202.880329 
L 274.732013 202.845936 
L 275.05683 203.280783 
L 276.031281 203.859814 
L 276.19369 204.169877 
L 276.356098 203.747817 
L 276.843323 204.551988 
L 277.005732 204.3078 
L 277.16814 204.726597 
L 277.492957 204.737443 
L 277.655366 205.012232 
L 278.142591 205.134194 
L 278.305 205.37988 
L 278.467408 205.362861 
L 278.792225 205.560045 
L 279.117042 205.759522 
L 279.441859 206.098951 
L 279.929085 206.370477 
L 280.091493 206.290845 
L 280.741127 206.943423 
L 280.903535 206.731247 
L 281.065944 207.157451 
L 282.52762 208.09981 
L 282.690029 208.284384 
L 282.852437 208.143991 
L 283.339663 208.602648 
L 283.66448 208.796305 
L 283.826888 209.001074 
L 284.151705 209.086173 
L 284.63893 209.361579 
L 284.801339 209.350908 
L 285.126156 209.720056 
L 285.938198 210.268487 
L 286.100607 210.203141 
L 286.750241 210.804924 
L 286.912649 210.773265 
L 287.8871 211.512707 
L 288.211917 211.624527 
L 288.536734 211.814921 
L 288.861551 211.981946 
L 289.186368 212.382224 
L 289.348776 212.374199 
L 290.485636 213.123517 
L 290.648044 213.118314 
L 291.784903 213.956789 
L 291.947312 213.870632 
L 292.272129 214.225405 
L 292.596946 214.451426 
L 292.759354 214.397368 
L 293.24658 214.833273 
L 293.408988 214.826394 
L 293.571397 215.055238 
L 293.733805 215.090248 
L 293.896214 215.299073 
L 294.058622 215.205772 
L 294.383439 215.4825 
L 294.545847 215.644146 
L 294.870664 215.706317 
L 295.033073 215.918846 
L 295.195481 215.751468 
L 295.35789 215.977931 
L 295.520298 215.98234 
L 296.494749 216.787922 
L 296.819566 216.978669 
L 296.981975 216.861645 
L 297.144383 217.07779 
L 297.306792 217.083875 
L 297.631609 217.60144 
L 297.956425 217.682748 
L 298.281242 217.855417 
L 298.768468 217.919616 
L 299.255693 218.450938 
L 299.58051 218.584364 
L 299.742919 218.637012 
L 299.905327 218.862945 
L 300.067736 218.837106 
L 300.392553 219.047519 
L 300.71737 219.131825 
L 301.854229 220.043318 
L 302.341454 220.114573 
L 303.478314 221.001197 
L 303.640722 220.940261 
L 304.290356 221.354207 
L 304.452765 221.324488 
L 304.777582 221.64531 
L 305.264807 221.870979 
L 306.239258 222.556539 
L 306.401666 222.38387 
L 306.726483 222.780091 
L 307.213709 222.84579 
L 307.538526 223.231781 
L 307.700934 223.182573 
L 308.18816 223.519709 
L 308.512976 223.747759 
L 308.675385 223.708692 
L 308.837793 223.880303 
L 309.000202 223.888328 
L 309.812244 224.538173 
L 309.974653 224.445136 
L 310.29947 224.717984 
L 310.461878 224.700788 
L 310.624287 224.818076 
L 310.786695 225.123465 
L 311.111512 225.073199 
L 311.273921 225.361127 
L 311.923555 225.534677 
L 312.573188 225.943862 
L 312.735597 225.964233 
L 313.060414 226.263184 
L 313.222822 226.1929 
L 313.547639 226.449698 
L 313.710048 226.450051 
L 313.872456 226.569808 
L 314.034865 226.853239 
L 314.197273 226.708613 
L 314.52209 226.871934 
L 314.684499 227.082082 
L 314.846907 227.108273 
L 315.009316 227.34232 
L 315.496541 227.470102 
L 316.146175 227.918617 
L 316.795809 228.211748 
L 317.120626 228.299582 
L 317.283034 228.328595 
L 317.607851 228.654179 
L 317.77026 228.752595 
L 317.932668 228.703034 
L 318.095077 228.816177 
L 318.257485 229.105957 
L 318.419894 228.992285 
L 318.582302 229.176594 
L 318.907119 229.216455 
L 319.394344 229.643629 
L 319.719161 229.770793 
L 319.88157 229.778377 
L 320.206387 230.018685 
L 320.531204 230.057134 
L 321.018429 230.409262 
L 321.668063 230.876385 
L 321.99288 230.897726 
L 322.155289 230.949844 
L 322.317697 231.211493 
L 322.804922 231.239007 
L 322.967331 231.480725 
L 323.129739 231.400211 
L 323.292148 231.640166 
L 323.616965 231.650131 
L 323.779373 232.082508 
L 323.941782 231.945026 
L 324.429007 232.167873 
L 324.591416 232.280134 
L 324.753824 232.200766 
L 324.916233 232.40968 
L 325.078641 232.347155 
L 325.890684 232.929538 
L 326.053092 232.891088 
L 326.2155 233.082717 
L 326.377909 232.972484 
L 326.540317 233.218436 
L 326.702726 233.124341 
L 327.677177 233.665629 
L 327.839585 233.683707 
L 328.164402 233.966961 
L 328.489219 234.049239 
L 328.814036 234.317413 
L 328.976445 234.268823 
L 329.46367 234.649611 
L 329.950895 234.874221 
L 330.438121 235.104564 
L 331.250163 235.478915 
L 331.412572 235.386055 
L 331.57498 235.430589 
L 331.737389 235.753439 
L 332.224614 235.78448 
L 332.549431 236.192518 
L 333.848699 236.618193 
L 334.498333 237.148193 
L 334.660741 237.040341 
L 334.82315 237.219976 
L 334.985558 237.148986 
L 335.147967 237.203838 
L 335.472784 237.459226 
L 336.122418 237.792746 
L 336.284826 237.726342 
L 336.93446 238.216129 
L 337.096868 238.097253 
L 337.584094 238.452203 
L 337.746502 238.38527 
L 338.396136 238.821616 
L 338.720953 238.812621 
L 339.04577 239.114747 
L 339.208179 239.119332 
L 339.370587 239.360786 
L 339.532996 239.224627 
L 342.29394 240.488601 
L 342.456348 240.499095 
L 342.618757 240.710477 
L 342.943574 240.819917 
L 343.105982 240.898138 
L 343.268391 240.823532 
L 343.755616 241.088444 
L 343.918024 241.125482 
L 344.242841 241.296122 
L 344.892475 241.643047 
L 345.217292 241.708658 
L 345.704518 242.00029 
L 345.866926 241.929035 
L 346.354152 242.222784 
L 346.678969 242.32702 
L 346.841377 242.422967 
L 347.003786 242.3742 
L 347.491011 242.695109 
L 348.952687 243.341779 
L 349.115096 243.262765 
L 351.063997 244.213236 
L 351.551223 244.307684 
L 351.87604 244.553459 
L 352.363265 244.798793 
L 352.525674 244.74253 
L 353.175308 245.099949 
L 353.337716 244.987688 
L 353.500125 245.164413 
L 353.662533 245.156212 
L 354.149759 245.41451 
L 354.636984 245.509486 
L 354.799392 245.433734 
L 354.961801 245.796797 
L 355.124209 245.718135 
L 355.773843 245.988338 
L 355.936252 245.972817 
L 356.585886 246.292492 
L 356.910703 246.43165 
L 357.073111 246.38306 
L 357.23552 246.611021 
L 357.397928 246.611462 
L 357.885153 246.853092 
L 358.047562 246.971615 
L 358.20997 246.911648 
L 358.534787 247.107863 
L 359.509238 247.512285 
L 359.671647 247.616521 
L 359.834055 247.572781 
L 360.158872 247.744127 
L 360.321281 247.814676 
L 360.483689 247.742363 
L 360.646098 247.961682 
L 360.808506 247.886018 
L 360.970915 247.972 
L 361.133323 248.187351 
L 361.45814 248.249434 
L 362.432591 248.48692 
L 362.594999 248.638159 
L 362.757408 248.611879 
L 363.082225 248.77423 
L 363.407042 248.920443 
L 363.56945 249.101666 
L 363.731859 248.981821 
L 364.219084 249.260225 
L 364.381493 249.269661 
L 364.543901 249.404057 
L 364.70631 249.28818 
L 365.031126 249.50503 
L 365.355943 249.650449 
L 365.518352 249.63828 
L 366.167986 249.936437 
L 367.304845 250.350296 
L 367.792071 250.455061 
L 367.954479 250.682846 
L 368.116888 250.614854 
L 368.279296 250.738051 
L 368.441704 250.629229 
L 369.578564 251.055962 
L 370.065789 251.266463 
L 370.553015 251.40077 
L 371.527466 251.840996 
L 372.014691 252.134128 
L 372.177099 252.007051 
L 372.339508 252.167903 
L 372.664325 252.141271 
L 372.989142 252.332282 
L 373.476367 252.44322 
L 373.638776 252.661217 
L 373.801184 252.553012 
L 374.126001 252.668448 
L 374.28841 252.598693 
L 374.613227 252.851258 
L 374.775635 252.868366 
L 374.938044 253.104882 
L 375.262861 252.982568 
L 375.750086 253.220935 
L 376.237311 253.357359 
L 376.39972 253.457627 
L 376.724537 253.487875 
L 377.049354 253.664689 
L 377.536579 253.771041 
L 377.861396 253.944327 
L 378.186213 254.104033 
L 378.348622 253.951999 
L 378.51103 254.210297 
L 378.835847 254.208357 
L 378.998255 254.370091 
L 379.323072 254.306596 
L 379.647889 254.442315 
L 379.810298 254.439493 
L 379.972706 254.680771 
L 380.297523 254.635884 
L 380.784749 254.810934 
L 380.947157 254.749644 
L 381.921608 255.27303 
L 382.084017 255.137047 
L 383.708101 255.773046 
L 384.032918 255.727366 
L 384.520144 255.958414 
L 384.844961 256.060974 
L 385.007369 256.207011 
L 385.332186 256.0578 
L 385.494595 256.296432 
L 385.819412 256.378621 
L 386.144228 256.544588 
L 386.306637 256.484357 
L 386.469045 256.708173 
L 386.631454 256.589827 
L 386.793862 256.684451 
L 386.956271 256.641064 
L 387.443496 256.925552 
L 387.605905 256.89601 
L 387.768313 257.006419 
L 387.930722 256.929697 
L 388.09313 257.098927 
L 388.255539 256.996278 
L 388.742764 257.347171 
L 388.905173 257.250431 
L 389.067581 257.357842 
L 389.22999 257.294524 
L 389.392398 257.501232 
L 389.554806 257.467898 
L 389.717215 257.619578 
L 389.879623 257.583158 
L 390.20444 257.706707 
L 390.529257 257.740482 
L 391.016483 257.933257 
L 391.178891 257.99975 
L 391.503708 257.944809 
L 392.153342 258.298789 
L 392.315751 258.237235 
L 392.640568 258.448353 
L 392.802976 258.401085 
L 393.127793 258.5652 
L 393.777427 258.654003 
L 393.939835 258.850306 
L 394.264652 258.85886 
L 395.401512 259.032411 
L 395.56392 259.239296 
L 395.726329 259.204815 
L 396.051146 259.400148 
L 396.375963 259.360023 
L 396.538371 259.545919 
L 396.863188 259.571229 
L 397.025596 259.694602 
L 397.350413 259.67035 
L 398.487273 260.028739 
L 398.487273 260.028739 
" clip-path="url(#p2ec025bf98)" style="fill: none; stroke-dasharray: 1.85,0.8; stroke-dashoffset: 0; stroke: #80ffb4; stroke-width: 0.5"/>
   </g>
   <g id="line2d_17">
    <path d="M 73.832727 295.488 
L 112.161128 295.379884 
L 116.058931 295.179083 
L 120.44396 294.534618 
L 123.204904 293.656547 
L 124.828989 292.839943 
L 125.478623 292.417707 
L 126.615482 291.579761 
L 127.102708 291.105495 
L 127.589933 290.620999 
L 128.726792 289.309317 
L 129.538835 288.241028 
L 130.838103 286.09528 
L 131.000511 285.899947 
L 131.974962 283.845736 
L 132.299779 283.20083 
L 132.787004 282.144887 
L 134.086272 278.784285 
L 136.359991 271.736085 
L 137.821667 266.319419 
L 139.283343 260.250881 
L 139.60816 258.927116 
L 140.74502 253.839121 
L 141.557062 250.055753 
L 143.668372 239.874471 
L 145.617274 229.838168 
L 147.07895 222.251679 
L 149.027852 211.734407 
L 150.002303 206.5405 
L 157.960318 164.977074 
L 158.122727 164.440284 
L 158.772361 161.022625 
L 160.558854 152.379399 
L 161.046079 150.205696 
L 162.994981 141.283361 
L 163.15739 140.852219 
L 163.644615 138.516958 
L 164.13184 136.501637 
L 165.755925 129.574517 
L 167.867235 121.332539 
L 168.029644 120.973533 
L 169.004095 117.338847 
L 169.49132 115.711722 
L 169.816137 114.557452 
L 170.465771 112.266108 
L 170.62818 111.88144 
L 171.115405 109.958361 
L 171.440222 109.127382 
L 171.765039 108.105744 
L 172.089856 106.980311 
L 172.577081 105.51536 
L 172.901898 104.375288 
L 173.064307 104.19239 
L 173.713941 102.068776 
L 175.825251 96.250069 
L 176.474885 94.788294 
L 176.799702 93.986416 
L 177.286927 92.912395 
L 177.449336 92.52949 
L 177.611744 91.762887 
L 177.774153 91.70195 
L 178.098969 90.82485 
L 178.261378 90.785607 
L 178.586195 89.813794 
L 178.911012 89.233617 
L 179.07342 88.653086 
L 179.235829 88.546822 
L 179.723054 87.627921 
L 179.885463 87.431883 
L 180.21028 86.621627 
L 180.372688 86.567657 
L 180.697505 85.898059 
L 181.671956 83.954169 
L 181.834364 83.488722 
L 181.996773 83.693402 
L 182.159181 82.886938 
L 182.32159 82.991351 
L 183.783266 80.575047 
L 183.945675 80.698596 
L 184.108083 80.042402 
L 184.270492 80.174152 
L 184.4329 79.521045 
L 184.595309 79.845835 
L 184.920126 79.225003 
L 185.244942 78.890513 
L 185.732168 78.096043 
L 186.219393 77.723985 
L 186.381802 77.697617 
L 186.54421 77.368418 
L 186.869027 77.313654 
L 187.031436 76.746969 
L 187.193844 76.847237 
L 187.518661 76.532412 
L 187.68107 76.457542 
L 187.843478 76.088482 
L 188.980337 75.438196 
L 189.142746 75.51677 
L 189.305154 75.003614 
L 189.629971 75.04515 
L 189.79238 74.662775 
L 190.117197 74.675826 
L 190.279605 74.385164 
L 190.604422 74.487107 
L 190.929239 74.18648 
L 191.091648 74.260645 
L 191.254056 74.107554 
L 191.416465 74.230397 
L 191.578873 73.80481 
L 192.228507 73.629496 
L 192.390915 73.79123 
L 192.553324 73.51503 
L 192.715732 73.58699 
L 192.878141 73.803928 
L 193.040549 73.500832 
L 193.365366 73.514148 
L 193.527775 73.497657 
L 193.690183 73.696782 
L 193.852592 73.479491 
L 194.015 73.474464 
L 194.177409 73.156994 
L 194.502226 73.402416 
L 194.664634 73.227543 
L 194.827043 73.334866 
L 194.989451 73.061488 
L 195.15186 73.436809 
L 195.314268 73.05946 
L 195.639085 73.497305 
L 195.963902 73.209465 
L 196.288719 73.441924 
L 196.775944 73.333543 
L 196.938353 73.614416 
L 197.425578 73.246944 
L 197.587987 73.77615 
L 197.750395 73.590959 
L 197.912804 73.616709 
L 198.075212 73.980654 
L 198.237621 73.58117 
L 198.400029 74.050409 
L 198.887255 73.805957 
L 199.049663 74.395658 
L 199.212071 74.157996 
L 199.37448 74.141946 
L 199.699297 74.370966 
L 200.024114 74.342747 
L 200.186522 74.731648 
L 200.511339 74.54531 
L 200.836156 75.047355 
L 201.160973 75.047972 
L 201.648199 75.457774 
L 201.973016 75.574003 
L 202.460241 75.868722 
L 202.62265 75.906642 
L 203.921917 77.256245 
L 204.084326 77.179258 
L 204.246734 77.533943 
L 204.409143 77.442406 
L 204.896368 78.028845 
L 205.058777 77.578566 
L 205.221185 78.305661 
L 205.383594 78.139783 
L 206.033228 79.175443 
L 206.195636 78.980022 
L 206.520453 79.406843 
L 206.682861 79.473336 
L 207.494904 80.554676 
L 207.657312 80.355816 
L 207.819721 80.713235 
L 207.982129 80.774613 
L 208.144538 81.007601 
L 208.469355 81.819885 
L 208.794172 81.812036 
L 208.95658 81.948548 
L 209.118989 82.374135 
L 209.281397 82.391243 
L 209.931031 83.583875 
L 210.093439 83.451154 
L 210.255848 83.712979 
L 210.418256 83.743227 
L 210.743073 84.068105 
L 211.717524 85.410565 
L 211.879933 85.86737 
L 212.042341 85.817721 
L 212.20475 86.084837 
L 212.367158 86.644467 
L 212.854384 86.936805 
L 213.504017 88.014 
L 213.666426 88.031726 
L 213.828834 88.396376 
L 213.991243 88.468336 
L 214.153651 89.073911 
L 214.31606 88.971351 
L 214.478468 89.570224 
L 214.640877 89.446675 
L 215.777736 91.18368 
L 215.940145 91.608649 
L 216.102553 91.715884 
L 216.264962 92.117484 
L 216.42737 91.901516 
L 216.589779 92.550655 
L 216.752187 92.613532 
L 217.239412 93.824859 
L 217.401821 93.575821 
L 217.564229 94.040298 
L 217.726638 94.013577 
L 218.051455 94.864663 
L 218.376272 95.451102 
L 218.53868 95.527736 
L 218.701089 95.922369 
L 218.863497 95.906319 
L 219.025906 96.168233 
L 219.350723 97.197895 
L 219.513131 97.388642 
L 219.67554 97.402399 
L 219.837948 97.911411 
L 220.000357 97.913615 
L 220.162765 98.080993 
L 220.487582 98.942132 
L 220.64999 99.039489 
L 220.812399 99.278386 
L 220.974807 99.234293 
L 221.137216 100.005306 
L 221.299624 100.100194 
L 221.462033 100.392179 
L 221.624441 100.391385 
L 221.949258 101.272454 
L 222.923709 103.047027 
L 223.248526 103.309381 
L 223.573343 104.089565 
L 224.222977 105.179194 
L 225.035019 106.851559 
L 225.359836 107.352457 
L 225.522245 107.412865 
L 225.847062 108.366246 
L 226.659104 109.619373 
L 226.821513 110.062333 
L 226.983921 110.175564 
L 227.308738 110.976384 
L 227.471146 111.075682 
L 227.633555 111.649862 
L 227.795963 111.651362 
L 228.12078 112.311348 
L 229.420048 114.781357 
L 229.582457 115.322292 
L 229.744865 115.373087 
L 230.069682 116.056266 
L 230.232091 115.99189 
L 230.394499 116.300189 
L 230.881724 117.682686 
L 231.044133 118.006065 
L 231.206541 118.066031 
L 231.531358 118.834575 
L 231.693767 118.808207 
L 232.018584 119.777374 
L 233.805077 123.338336 
L 233.967486 123.190536 
L 234.292303 123.995324 
L 234.454711 124.199475 
L 234.617119 124.859549 
L 234.941936 125.165908 
L 235.916387 127.373916 
L 236.078796 127.248515 
L 236.403613 128.3243 
L 237.378064 130.217836 
L 237.540472 130.292177 
L 237.702881 130.739634 
L 237.865289 130.809301 
L 238.190106 131.74337 
L 238.677331 132.511384 
L 239.002148 133.130364 
L 239.164557 133.383547 
L 239.326965 133.914604 
L 239.489374 133.975717 
L 240.788642 136.855705 
L 240.95105 136.806673 
L 241.275867 137.804236 
L 241.600684 138.157246 
L 242.412726 139.81506 
L 242.737543 140.530868 
L 243.224769 141.268193 
L 243.549586 141.982061 
L 244.686445 143.971632 
L 245.011262 145.010466 
L 245.17367 145.124138 
L 245.985713 146.665722 
L 246.148121 146.812641 
L 246.635347 148.053422 
L 246.797755 148.113124 
L 247.122572 148.785368 
L 247.772206 150.163014 
L 247.934615 150.244498 
L 248.259432 150.990554 
L 248.42184 151.121951 
L 248.909065 152.336982 
L 249.233882 152.760452 
L 249.396291 152.925184 
L 249.883516 154.046914 
L 250.045925 154.417473 
L 250.208333 154.49878 
L 250.53315 155.412919 
L 250.695559 155.392725 
L 251.182784 156.521332 
L 251.345193 156.784128 
L 251.507601 157.331941 
L 251.67001 157.356986 
L 251.994827 158.000657 
L 252.157235 158.432065 
L 252.319643 158.404198 
L 253.456503 160.751628 
L 253.618911 160.817591 
L 253.943728 161.622027 
L 254.106137 161.970803 
L 254.268545 162.033416 
L 254.430954 162.686082 
L 254.755771 163.061403 
L 255.242996 164.077221 
L 255.405405 164.19636 
L 256.055038 165.412008 
L 256.217447 165.519684 
L 256.379855 166.138222 
L 256.542264 166.290167 
L 256.867081 166.880398 
L 257.029489 166.969995 
L 257.354306 167.784219 
L 258.00394 168.915649 
L 258.653574 170.051665 
L 258.978391 170.566584 
L 259.465616 171.691312 
L 259.628025 171.610974 
L 259.952842 172.32396 
L 260.11525 172.837998 
L 260.277659 172.769389 
L 260.602476 173.636789 
L 260.764884 173.615889 
L 261.089701 174.581176 
L 261.25211 174.471473 
L 261.576927 175.17758 
L 261.739335 175.248306 
L 262.064152 176.018172 
L 262.388969 176.641472 
L 262.551378 176.665459 
L 262.876194 177.4176 
L 263.201011 177.893365 
L 263.688237 179.019503 
L 263.850645 179.102046 
L 264.337871 179.80392 
L 264.500279 180.047403 
L 264.662688 180.793811 
L 265.149913 181.087383 
L 265.47473 181.758834 
L 265.799547 182.358677 
L 266.286772 183.359238 
L 266.449181 183.422468 
L 267.423632 185.059646 
L 268.073266 185.941068 
L 268.235674 186.454224 
L 268.398083 186.51763 
L 269.210125 187.735659 
L 269.372534 187.889985 
L 269.69735 188.725109 
L 269.859759 188.814529 
L 270.184576 189.438624 
L 270.346984 189.546387 
L 270.509393 190.133532 
L 270.671801 190.189354 
L 271.159027 191.090441 
L 271.321435 191.169544 
L 271.483844 191.404119 
L 271.808661 191.969923 
L 271.971069 192.146119 
L 272.295886 192.776122 
L 272.458295 192.73582 
L 272.783112 193.474733 
L 273.270337 194.370618 
L 273.432745 194.271055 
L 273.757562 194.91605 
L 274.082379 195.380791 
L 274.244788 195.56272 
L 274.569605 196.147836 
L 275.05683 196.898213 
L 275.219239 197.293552 
L 275.381647 197.374242 
L 275.544056 197.822581 
L 275.706464 197.845686 
L 276.680915 199.332242 
L 277.005732 199.674934 
L 277.655366 200.939525 
L 277.817774 200.831497 
L 278.142591 201.529403 
L 278.305 201.572526 
L 279.441859 203.458742 
L 279.604268 203.400451 
L 279.929085 203.98204 
L 280.091493 204.095624 
L 280.41631 204.516449 
L 281.065944 205.64391 
L 281.553169 206.371712 
L 282.040395 206.865643 
L 282.52762 207.54794 
L 283.014846 208.036051 
L 283.826888 209.303288 
L 284.63893 210.312844 
L 284.801339 210.6043 
L 284.963747 210.626347 
L 285.77579 212.033888 
L 286.263015 212.509741 
L 286.425424 212.800579 
L 286.587832 212.808075 
L 286.750241 213.270259 
L 286.912649 213.247419 
L 287.237466 213.937653 
L 288.049508 214.801438 
L 289.673593 216.832897 
L 290.648044 218.055688 
L 290.972861 218.536567 
L 291.297678 218.857918 
L 291.460086 219.199464 
L 291.622495 219.132883 
L 291.784903 219.554061 
L 291.947312 219.605914 
L 292.272129 220.06607 
L 292.921763 220.683021 
L 293.084171 221.048113 
L 293.24658 221.09785 
L 293.733805 221.920804 
L 293.896214 221.908017 
L 294.545847 222.806459 
L 294.708256 222.718272 
L 295.033073 223.405596 
L 295.35789 223.612393 
L 295.520298 223.733296 
L 296.007524 224.5208 
L 296.494749 224.869047 
L 296.819566 225.255127 
L 296.981975 225.389964 
L 297.4692 226.136549 
L 297.631609 226.242196 
L 297.794017 226.486207 
L 297.956425 226.415394 
L 298.281242 227.076438 
L 298.606059 227.243022 
L 299.742919 228.428334 
L 299.905327 228.578603 
L 300.067736 228.896338 
L 300.230144 228.95022 
L 300.71737 229.558794 
L 300.879778 229.634546 
L 301.367004 230.213665 
L 301.529412 230.278746 
L 301.854229 230.859453 
L 302.179046 230.897197 
L 302.666271 231.56318 
L 302.82868 231.622705 
L 302.991088 231.976861 
L 303.153497 232.016898 
L 303.478314 232.413119 
L 304.452765 233.359622 
L 304.615173 233.425585 
L 304.777582 233.775509 
L 304.93999 233.806374 
L 306.076849 235.088426 
L 306.239258 234.91417 
L 306.401666 235.31092 
L 306.564075 235.389582 
L 306.726483 235.65176 
L 306.888892 235.66437 
L 307.213709 236.085195 
L 307.538526 236.386351 
L 308.025751 236.907091 
L 308.18816 236.925522 
L 308.350568 237.262835 
L 308.512976 237.254457 
L 308.675385 237.386296 
L 308.837793 237.694419 
L 309.000202 237.74539 
L 309.325019 237.970618 
L 309.649836 238.360842 
L 310.137061 238.655032 
L 310.29947 239.103371 
L 310.461878 239.044198 
L 310.624287 239.325336 
L 310.786695 239.338123 
L 314.359682 242.586288 
L 314.52209 242.828359 
L 314.846907 242.899966 
L 315.334133 243.429789 
L 315.496541 243.372997 
L 315.821358 243.856964 
L 316.6334 244.425677 
L 317.120626 245.009558 
L 317.283034 244.902059 
L 317.445443 245.240783 
L 317.607851 245.25357 
L 318.744711 246.270181 
L 319.069527 246.344258 
L 319.394344 246.688801 
L 319.556753 246.746652 
L 320.206387 247.33406 
L 320.368795 247.402581 
L 320.531204 247.664142 
L 320.856021 247.84898 
L 321.180838 248.136555 
L 321.668063 248.345292 
L 322.480106 248.94249 
L 322.967331 249.287915 
L 323.292148 249.725143 
L 324.10419 250.291652 
L 325.078641 251.05314 
L 325.728275 251.397331 
L 326.2155 251.889322 
L 326.377909 251.920276 
L 326.540317 252.088447 
L 326.702726 252.039945 
L 327.027543 252.455567 
L 327.189951 252.473027 
L 328.164402 253.20806 
L 328.489219 253.360799 
L 328.814036 253.726948 
L 328.976445 253.684707 
L 329.138853 253.871662 
L 329.301262 253.816016 
L 329.46367 254.148831 
L 329.626078 254.093362 
L 329.950895 254.420004 
L 330.113304 254.409686 
L 330.438121 254.710754 
L 330.600529 254.71243 
L 330.925346 255.017113 
L 331.250163 255.238637 
L 331.57498 255.55699 
L 331.737389 255.478945 
L 332.387023 255.989014 
L 333.036657 256.255954 
L 333.68629 256.822375 
L 334.335924 257.219742 
L 335.472784 257.937402 
L 335.635192 257.88255 
L 336.122418 258.404613 
L 336.447235 258.479659 
L 336.609643 258.670935 
L 336.772051 258.583014 
L 337.746502 259.324219 
L 338.071319 259.395738 
L 338.558545 259.741164 
L 338.720953 259.761182 
L 339.04577 260.016217 
L 339.208179 260.126714 
L 339.370587 260.101317 
L 339.532996 260.443656 
L 339.857813 260.393919 
L 340.182629 260.608476 
L 340.832263 261.097116 
L 340.994672 261.054787 
L 341.15708 261.156113 
L 341.319489 261.43337 
L 341.481897 261.322697 
L 341.806714 261.682849 
L 341.969123 261.649427 
L 342.29394 261.773681 
L 343.593208 262.454038 
L 343.755616 262.522912 
L 344.080433 262.874158 
L 344.242841 263.017813 
L 344.40525 262.88765 
L 344.567658 263.153091 
L 345.054884 263.292513 
L 345.542109 263.638468 
L 345.704518 263.569507 
L 347.166194 264.397399 
L 348.140645 264.749792 
L 348.465462 265.002798 
L 348.62787 265.027578 
L 348.790279 265.215415 
L 348.952687 265.206156 
L 349.277504 265.401929 
L 349.76473 265.534561 
L 350.089547 265.767461 
L 350.414364 265.95521 
L 352.363265 266.905946 
L 352.525674 266.904182 
L 352.850491 267.101896 
L 353.012899 267.092548 
L 353.500125 267.433212 
L 353.662533 267.407991 
L 353.98735 267.664083 
L 354.149759 267.622901 
L 354.474575 267.846982 
L 356.910703 268.994991 
L 357.073111 268.873911 
L 357.560337 269.314401 
L 357.722745 269.182828 
L 358.372379 269.491832 
L 359.022013 269.739018 
L 359.509238 270.004371 
L 359.671647 270.017687 
L 359.834055 270.188327 
L 360.158872 270.217076 
L 360.321281 270.249176 
L 360.483689 270.415407 
L 360.646098 270.419023 
L 360.808506 270.567705 
L 360.970915 270.521936 
L 361.295732 270.718856 
L 361.45814 270.83244 
L 361.620548 270.765595 
L 361.945365 270.931209 
L 364.219084 271.785205 
L 364.381493 271.805664 
L 364.543901 271.979655 
L 364.70631 271.899053 
L 364.868718 272.092534 
L 365.518352 272.220845 
L 365.68076 272.362648 
L 365.843169 272.347392 
L 366.330394 272.629324 
L 370.715423 274.109971 
L 371.04024 274.307597 
L 371.365057 274.350896 
L 371.527466 274.460159 
L 371.852283 274.449841 
L 372.014691 274.616954 
L 372.501916 274.681506 
L 374.28841 275.319799 
L 374.613227 275.404017 
L 376.886945 276.085873 
L 377.374171 276.321948 
L 378.186213 276.435884 
L 378.348622 276.609523 
L 378.673439 276.629894 
L 378.998255 276.843393 
L 379.160664 276.69233 
L 379.485481 276.897363 
L 380.297523 277.142874 
L 380.62234 277.175943 
L 380.947157 277.36916 
L 381.271974 277.32877 
L 381.434383 277.509993 
L 381.7592 277.531863 
L 384.195327 278.167422 
L 384.520144 278.297232 
L 385.169778 278.389298 
L 385.494595 278.60315 
L 391.990934 280.175688 
L 392.153342 280.144999 
L 392.478159 280.320754 
L 392.640568 280.281511 
L 393.127793 280.455679 
L 394.589469 280.774384 
L 395.076695 280.834175 
L 395.726329 281.039825 
L 396.863188 281.257733 
L 398.000047 281.467617 
L 398.487273 281.672473 
L 398.487273 281.672473 
" clip-path="url(#p2ec025bf98)" style="fill: none; stroke-dasharray: 1.85,0.8; stroke-dashoffset: 0; stroke: #ff0000; stroke-width: 0.5"/>
   </g>
   <g id="patch_3">
    <path d="M 57.6 307.584 
L 57.6 41.472 
" style="fill: none; stroke: #000000; stroke-width: 0.8; stroke-linejoin: miter; stroke-linecap: square"/>
   </g>
   <g id="patch_4">
    <path d="M 414.72 307.584 
L 414.72 41.472 
" style="fill: none; stroke: #000000; stroke-width: 0.8; stroke-linejoin: miter; stroke-linecap: square"/>
   </g>
   <g id="patch_5">
    <path d="M 57.6 307.584 
L 414.72 307.584 
" style="fill: none; stroke: #000000; stroke-width: 0.8; stroke-linejoin: miter; stroke-linecap: square"/>
   </g>
   <g id="patch_6">
    <path d="M 57.6 41.472 
L 414.72 41.472 
" style="fill: none; stroke: #000000; stroke-width: 0.8; stroke-linejoin: miter; stroke-linecap: square"/>
   </g>
   <g id="text_18">
    <!-- Heating Rate ($^{\circ}C.s^{-1}$) -->
    <g transform="translate(271.872 68.0832) scale(0.12 -0.12)">
     <defs>
      <path id="DejaVuSans-48" d="M 628 4666 
L 1259 4666 
L 1259 2753 
L 3553 2753 
L 3553 4666 
L 4184 4666 
L 4184 0 
L 3553 0 
L 3553 2222 
L 1259 2222 
L 1259 0 
L 628 0 
L 628 4666 
z
" transform="scale(0.015625)"/>
      <path id="DejaVuSans-67" d="M 2906 1791 
Q 2906 2416 2648 2759 
Q 2391 3103 1925 3103 
Q 1463 3103 1205 2759 
Q 947 2416 947 1791 
Q 947 1169 1205 825 
Q 1463 481 1925 481 
Q 2391 481 2648 825 
Q 2906 1169 2906 1791 
z
M 3481 434 
Q 3481 -459 3084 -895 
Q 2688 -1331 1869 -1331 
Q 1566 -1331 1297 -1286 
Q 1028 -1241 775 -1147 
L 775 -588 
Q 1028 -725 1275 -790 
Q 1522 -856 1778 -856 
Q 2344 -856 2625 -561 
Q 2906 -266 2906 331 
L 2906 616 
Q 2728 306 2450 153 
Q 2172 0 1784 0 
Q 1141 0 747 490 
Q 353 981 353 1791 
Q 353 2603 747 3093 
Q 1141 3584 1784 3584 
Q 2172 3584 2450 3431 
Q 2728 3278 2906 2969 
L 2906 3500 
L 3481 3500 
L 3481 434 
z
" transform="scale(0.015625)"/>
      <path id="DejaVuSans-52" d="M 2841 2188 
Q 3044 2119 3236 1894 
Q 3428 1669 3622 1275 
L 4263 0 
L 3584 0 
L 2988 1197 
Q 2756 1666 2539 1819 
Q 2322 1972 1947 1972 
L 1259 1972 
L 1259 0 
L 628 0 
L 628 4666 
L 2053 4666 
Q 2853 4666 3247 4331 
Q 3641 3997 3641 3322 
Q 3641 2881 3436 2590 
Q 3231 2300 2841 2188 
z
M 1259 4147 
L 1259 2491 
L 2053 2491 
Q 2509 2491 2742 2702 
Q 2975 2913 2975 3322 
Q 2975 3731 2742 3939 
Q 2509 4147 2053 4147 
L 1259 4147 
z
" transform="scale(0.015625)"/>
      <path id="DejaVuSans-Oblique-73" d="M 3200 3397 
L 3091 2853 
Q 2863 2978 2609 3040 
Q 2356 3103 2088 3103 
Q 1634 3103 1373 2948 
Q 1113 2794 1113 2528 
Q 1113 2219 1719 2053 
Q 1766 2041 1788 2034 
L 1972 1978 
Q 2547 1819 2739 1644 
Q 2931 1469 2931 1166 
Q 2931 609 2489 259 
Q 2047 -91 1331 -91 
Q 1053 -91 747 -37 
Q 441 16 72 128 
L 184 722 
Q 500 559 806 475 
Q 1113 391 1394 391 
Q 1816 391 2080 572 
Q 2344 753 2344 1031 
Q 2344 1331 1650 1516 
L 1591 1531 
L 1394 1581 
Q 956 1697 753 1886 
Q 550 2075 550 2369 
Q 550 2928 970 3256 
Q 1391 3584 2113 3584 
Q 2397 3584 2667 3537 
Q 2938 3491 3200 3397 
z
" transform="scale(0.015625)"/>
     </defs>
     <use xlink:href="#DejaVuSans-48" transform="translate(0 0.684375)"/>
     <use xlink:href="#DejaVuSans-65" transform="translate(75.195312 0.684375)"/>
     <use xlink:href="#DejaVuSans-61" transform="translate(136.71875 0.684375)"/>
     <use xlink:href="#DejaVuSans-74" transform="translate(197.998047 0.684375)"/>
     <use xlink:href="#DejaVuSans-69" transform="translate(237.207031 0.684375)"/>
     <use xlink:href="#DejaVuSans-6e" transform="translate(264.990234 0.684375)"/>
     <use xlink:href="#DejaVuSans-67" transform="translate(328.369141 0.684375)"/>
     <use xlink:href="#DejaVuSans-20" transform="translate(391.845703 0.684375)"/>
     <use xlink:href="#DejaVuSans-52" transform="translate(423.632812 0.684375)"/>
     <use xlink:href="#DejaVuSans-61" transform="translate(493.115234 0.684375)"/>
     <use xlink:href="#DejaVuSans-74" transform="translate(554.394531 0.684375)"/>
     <use xlink:href="#DejaVuSans-65" transform="translate(593.603516 0.684375)"/>
     <use xlink:href="#DejaVuSans-20" transform="translate(655.126953 0.684375)"/>
     <use xlink:href="#DejaVuSans-28" transform="translate(686.914062 0.684375)"/>
     <use xlink:href="#DejaVuSans-2218" transform="translate(726.884766 38.965625) scale(0.7)"/>
     <use xlink:href="#DejaVuSans-Oblique-43" transform="translate(773.4375 0.684375)"/>
     <use xlink:href="#DejaVuSans-2e" transform="translate(843.261719 0.684375)"/>
     <use xlink:href="#DejaVuSans-Oblique-73" transform="translate(894.53125 0.684375)"/>
     <use xlink:href="#DejaVuSans-2212" transform="translate(951.280755 38.965625) scale(0.7)"/>
     <use xlink:href="#DejaVuSans-31" transform="translate(1009.933099 38.965625) scale(0.7)"/>
     <use xlink:href="#DejaVuSans-29" transform="translate(1057.203607 0.684375)"/>
    </g>
   </g>
   <g id="legend_1">
    <g id="patch_7">
     <path d="M 314.584 120.117575 
L 352.9465 120.117575 
Q 354.9465 120.117575 354.9465 118.117575 
L 354.9465 75.0832 
Q 354.9465 73.0832 352.9465 73.0832 
L 314.584 73.0832 
Q 312.584 73.0832 312.584 75.0832 
L 312.584 118.117575 
Q 312.584 120.117575 314.584 120.117575 
z
" style="fill: #ffffff; opacity: 0.8; stroke: #cccccc; stroke-linejoin: miter"/>
    </g>
    <g id="line2d_18">
     <path d="M 316.584 81.181637 
L 326.584 81.181637 
L 336.584 81.181637 
" style="fill: none; stroke-dasharray: 1.85,0.8; stroke-dashoffset: 0; stroke: #8000ff; stroke-width: 0.5"/>
    </g>
    <g id="text_19">
     <!-- 5 -->
     <g transform="translate(344.584 84.681637) scale(0.1 -0.1)">
      <defs>
       <path id="DejaVuSans-35" d="M 691 4666 
L 3169 4666 
L 3169 4134 
L 1269 4134 
L 1269 2991 
Q 1406 3038 1543 3061 
Q 1681 3084 1819 3084 
Q 2600 3084 3056 2656 
Q 3513 2228 3513 1497 
Q 3513 744 3044 326 
Q 2575 -91 1722 -91 
Q 1428 -91 1123 -41 
Q 819 9 494 109 
L 494 744 
Q 775 591 1075 516 
Q 1375 441 1709 441 
Q 2250 441 2565 725 
Q 2881 1009 2881 1497 
Q 2881 1984 2565 2268 
Q 2250 2553 1709 2553 
Q 1456 2553 1204 2497 
Q 953 2441 691 2322 
L 691 4666 
z
" transform="scale(0.015625)"/>
      </defs>
      <use xlink:href="#DejaVuSans-35"/>
     </g>
    </g>
    <g id="line2d_19">
     <path d="M 316.584 95.859762 
L 326.584 95.859762 
L 336.584 95.859762 
" style="fill: none; stroke-dasharray: 1.85,0.8; stroke-dashoffset: 0; stroke: #80ffb4; stroke-width: 0.5"/>
    </g>
    <g id="text_20">
     <!-- 5 -->
     <g transform="translate(344.584 99.359762) scale(0.1 -0.1)">
      <use xlink:href="#DejaVuSans-35"/>
     </g>
    </g>
    <g id="line2d_20">
     <path d="M 316.584 110.537887 
L 326.584 110.537887 
L 336.584 110.537887 
" style="fill: none; stroke-dasharray: 1.85,0.8; stroke-dashoffset: 0; stroke: #ff0000; stroke-width: 0.5"/>
    </g>
    <g id="text_21">
     <!-- 5 -->
     <g transform="translate(344.584 114.037887) scale(0.1 -0.1)">
      <use xlink:href="#DejaVuSans-35"/>
     </g>
    </g>
   </g>
  </g>
 </g>
 <defs>
  <clipPath id="p2ec025bf98">
   <rect x="57.6" y="41.472" width="357.12" height="266.112"/>
  </clipPath>
 </defs>
</svg>
