<?xml version="1.0" encoding="utf-8" standalone="no"?>
<!DOCTYPE svg PUBLIC "-//W3C//DTD SVG 1.1//EN"
  "http://www.w3.org/Graphics/SVG/1.1/DTD/svg11.dtd">
<svg xmlns:xlink="http://www.w3.org/1999/xlink" width="460.8pt" height="345.6pt" viewBox="0 0 460.8 345.6" xmlns="http://www.w3.org/2000/svg" version="1.1">
 <metadata>
  <rdf:RDF xmlns:dc="http://purl.org/dc/elements/1.1/" xmlns:cc="http://creativecommons.org/ns#" xmlns:rdf="http://www.w3.org/1999/02/22-rdf-syntax-ns#">
   <cc:Work>
    <dc:type rdf:resource="http://purl.org/dc/dcmitype/StillImage"/>
    <dc:date>2025-02-26T14:27:25.931485</dc:date>
    <dc:format>image/svg+xml</dc:format>
    <dc:creator>
     <cc:Agent>
      <dc:title>Matplotlib v3.10.0, https://matplotlib.org/</dc:title>
     </cc:Agent>
    </dc:creator>
   </cc:Work>
  </rdf:RDF>
 </metadata>
 <defs>
  <style type="text/css">*{stroke-linejoin: round; stroke-linecap: butt}</style>
 </defs>
 <g id="figure_1">
  <g id="patch_1">
   <path d="M 0 345.6 
L 460.8 345.6 
L 460.8 0 
L 0 0 
z
" style="fill: #ffffff"/>
  </g>
  <g id="axes_1">
   <g id="patch_2">
    <path d="M 57.6 307.584 
L 414.72 307.584 
L 414.72 41.472 
L 57.6 41.472 
z
" style="fill: #ffffff"/>
   </g>
   <g id="matplotlib.axis_1">
    <g id="xtick_1">
     <g id="line2d_1">
      <defs>
       <path id="mcf82a989ea" d="M 0 0 
L 0 3.5 
" style="stroke: #000000; stroke-width: 0.8"/>
      </defs>
      <g>
       <use xlink:href="#mcf82a989ea" x="73.832727" y="307.584" style="stroke: #000000; stroke-width: 0.8"/>
      </g>
     </g>
     <g id="text_1">
      <!-- 0 -->
      <g transform="translate(70.651477 322.182437) scale(0.1 -0.1)">
       <defs>
        <path id="DejaVuSans-30" d="M 2034 4250 
Q 1547 4250 1301 3770 
Q 1056 3291 1056 2328 
Q 1056 1369 1301 889 
Q 1547 409 2034 409 
Q 2525 409 2770 889 
Q 3016 1369 3016 2328 
Q 3016 3291 2770 3770 
Q 2525 4250 2034 4250 
z
M 2034 4750 
Q 2819 4750 3233 4129 
Q 3647 3509 3647 2328 
Q 3647 1150 3233 529 
Q 2819 -91 2034 -91 
Q 1250 -91 836 529 
Q 422 1150 422 2328 
Q 422 3509 836 4129 
Q 1250 4750 2034 4750 
z
" transform="scale(0.015625)"/>
       </defs>
       <use xlink:href="#DejaVuSans-30"/>
      </g>
     </g>
    </g>
    <g id="xtick_2">
     <g id="line2d_2">
      <g>
       <use xlink:href="#mcf82a989ea" x="138.763636" y="307.584" style="stroke: #000000; stroke-width: 0.8"/>
      </g>
     </g>
     <g id="text_2">
      <!-- 200 -->
      <g transform="translate(129.219886 322.182437) scale(0.1 -0.1)">
       <defs>
        <path id="DejaVuSans-32" d="M 1228 531 
L 3431 531 
L 3431 0 
L 469 0 
L 469 531 
Q 828 903 1448 1529 
Q 2069 2156 2228 2338 
Q 2531 2678 2651 2914 
Q 2772 3150 2772 3378 
Q 2772 3750 2511 3984 
Q 2250 4219 1831 4219 
Q 1534 4219 1204 4116 
Q 875 4013 500 3803 
L 500 4441 
Q 881 4594 1212 4672 
Q 1544 4750 1819 4750 
Q 2544 4750 2975 4387 
Q 3406 4025 3406 3419 
Q 3406 3131 3298 2873 
Q 3191 2616 2906 2266 
Q 2828 2175 2409 1742 
Q 1991 1309 1228 531 
z
" transform="scale(0.015625)"/>
       </defs>
       <use xlink:href="#DejaVuSans-32"/>
       <use xlink:href="#DejaVuSans-30" transform="translate(63.623047 0)"/>
       <use xlink:href="#DejaVuSans-30" transform="translate(127.246094 0)"/>
      </g>
     </g>
    </g>
    <g id="xtick_3">
     <g id="line2d_3">
      <g>
       <use xlink:href="#mcf82a989ea" x="203.694545" y="307.584" style="stroke: #000000; stroke-width: 0.8"/>
      </g>
     </g>
     <g id="text_3">
      <!-- 400 -->
      <g transform="translate(194.150795 322.182437) scale(0.1 -0.1)">
       <defs>
        <path id="DejaVuSans-34" d="M 2419 4116 
L 825 1625 
L 2419 1625 
L 2419 4116 
z
M 2253 4666 
L 3047 4666 
L 3047 1625 
L 3713 1625 
L 3713 1100 
L 3047 1100 
L 3047 0 
L 2419 0 
L 2419 1100 
L 313 1100 
L 313 1709 
L 2253 4666 
z
" transform="scale(0.015625)"/>
       </defs>
       <use xlink:href="#DejaVuSans-34"/>
       <use xlink:href="#DejaVuSans-30" transform="translate(63.623047 0)"/>
       <use xlink:href="#DejaVuSans-30" transform="translate(127.246094 0)"/>
      </g>
     </g>
    </g>
    <g id="xtick_4">
     <g id="line2d_4">
      <g>
       <use xlink:href="#mcf82a989ea" x="268.625455" y="307.584" style="stroke: #000000; stroke-width: 0.8"/>
      </g>
     </g>
     <g id="text_4">
      <!-- 600 -->
      <g transform="translate(259.081705 322.182437) scale(0.1 -0.1)">
       <defs>
        <path id="DejaVuSans-36" d="M 2113 2584 
Q 1688 2584 1439 2293 
Q 1191 2003 1191 1497 
Q 1191 994 1439 701 
Q 1688 409 2113 409 
Q 2538 409 2786 701 
Q 3034 994 3034 1497 
Q 3034 2003 2786 2293 
Q 2538 2584 2113 2584 
z
M 3366 4563 
L 3366 3988 
Q 3128 4100 2886 4159 
Q 2644 4219 2406 4219 
Q 1781 4219 1451 3797 
Q 1122 3375 1075 2522 
Q 1259 2794 1537 2939 
Q 1816 3084 2150 3084 
Q 2853 3084 3261 2657 
Q 3669 2231 3669 1497 
Q 3669 778 3244 343 
Q 2819 -91 2113 -91 
Q 1303 -91 875 529 
Q 447 1150 447 2328 
Q 447 3434 972 4092 
Q 1497 4750 2381 4750 
Q 2619 4750 2861 4703 
Q 3103 4656 3366 4563 
z
" transform="scale(0.015625)"/>
       </defs>
       <use xlink:href="#DejaVuSans-36"/>
       <use xlink:href="#DejaVuSans-30" transform="translate(63.623047 0)"/>
       <use xlink:href="#DejaVuSans-30" transform="translate(127.246094 0)"/>
      </g>
     </g>
    </g>
    <g id="xtick_5">
     <g id="line2d_5">
      <g>
       <use xlink:href="#mcf82a989ea" x="333.556364" y="307.584" style="stroke: #000000; stroke-width: 0.8"/>
      </g>
     </g>
     <g id="text_5">
      <!-- 800 -->
      <g transform="translate(324.012614 322.182437) scale(0.1 -0.1)">
       <defs>
        <path id="DejaVuSans-38" d="M 2034 2216 
Q 1584 2216 1326 1975 
Q 1069 1734 1069 1313 
Q 1069 891 1326 650 
Q 1584 409 2034 409 
Q 2484 409 2743 651 
Q 3003 894 3003 1313 
Q 3003 1734 2745 1975 
Q 2488 2216 2034 2216 
z
M 1403 2484 
Q 997 2584 770 2862 
Q 544 3141 544 3541 
Q 544 4100 942 4425 
Q 1341 4750 2034 4750 
Q 2731 4750 3128 4425 
Q 3525 4100 3525 3541 
Q 3525 3141 3298 2862 
Q 3072 2584 2669 2484 
Q 3125 2378 3379 2068 
Q 3634 1759 3634 1313 
Q 3634 634 3220 271 
Q 2806 -91 2034 -91 
Q 1263 -91 848 271 
Q 434 634 434 1313 
Q 434 1759 690 2068 
Q 947 2378 1403 2484 
z
M 1172 3481 
Q 1172 3119 1398 2916 
Q 1625 2713 2034 2713 
Q 2441 2713 2670 2916 
Q 2900 3119 2900 3481 
Q 2900 3844 2670 4047 
Q 2441 4250 2034 4250 
Q 1625 4250 1398 4047 
Q 1172 3844 1172 3481 
z
" transform="scale(0.015625)"/>
       </defs>
       <use xlink:href="#DejaVuSans-38"/>
       <use xlink:href="#DejaVuSans-30" transform="translate(63.623047 0)"/>
       <use xlink:href="#DejaVuSans-30" transform="translate(127.246094 0)"/>
      </g>
     </g>
    </g>
    <g id="xtick_6">
     <g id="line2d_6">
      <g>
       <use xlink:href="#mcf82a989ea" x="398.487273" y="307.584" style="stroke: #000000; stroke-width: 0.8"/>
      </g>
     </g>
     <g id="text_6">
      <!-- 1000 -->
      <g transform="translate(385.762273 322.182437) scale(0.1 -0.1)">
       <defs>
        <path id="DejaVuSans-31" d="M 794 531 
L 1825 531 
L 1825 4091 
L 703 3866 
L 703 4441 
L 1819 4666 
L 2450 4666 
L 2450 531 
L 3481 531 
L 3481 0 
L 794 0 
L 794 531 
z
" transform="scale(0.015625)"/>
       </defs>
       <use xlink:href="#DejaVuSans-31"/>
       <use xlink:href="#DejaVuSans-30" transform="translate(63.623047 0)"/>
       <use xlink:href="#DejaVuSans-30" transform="translate(127.246094 0)"/>
       <use xlink:href="#DejaVuSans-30" transform="translate(190.869141 0)"/>
      </g>
     </g>
    </g>
    <g id="text_7">
     <!-- Temperature ($^{\circ}C$) -->
     <g transform="translate(192.16 335.862125) scale(0.1 -0.1)">
      <defs>
       <path id="DejaVuSans-54" d="M -19 4666 
L 3928 4666 
L 3928 4134 
L 2272 4134 
L 2272 0 
L 1638 0 
L 1638 4134 
L -19 4134 
L -19 4666 
z
" transform="scale(0.015625)"/>
       <path id="DejaVuSans-65" d="M 3597 1894 
L 3597 1613 
L 953 1613 
Q 991 1019 1311 708 
Q 1631 397 2203 397 
Q 2534 397 2845 478 
Q 3156 559 3463 722 
L 3463 178 
Q 3153 47 2828 -22 
Q 2503 -91 2169 -91 
Q 1331 -91 842 396 
Q 353 884 353 1716 
Q 353 2575 817 3079 
Q 1281 3584 2069 3584 
Q 2775 3584 3186 3129 
Q 3597 2675 3597 1894 
z
M 3022 2063 
Q 3016 2534 2758 2815 
Q 2500 3097 2075 3097 
Q 1594 3097 1305 2825 
Q 1016 2553 972 2059 
L 3022 2063 
z
" transform="scale(0.015625)"/>
       <path id="DejaVuSans-6d" d="M 3328 2828 
Q 3544 3216 3844 3400 
Q 4144 3584 4550 3584 
Q 5097 3584 5394 3201 
Q 5691 2819 5691 2113 
L 5691 0 
L 5113 0 
L 5113 2094 
Q 5113 2597 4934 2840 
Q 4756 3084 4391 3084 
Q 3944 3084 3684 2787 
Q 3425 2491 3425 1978 
L 3425 0 
L 2847 0 
L 2847 2094 
Q 2847 2600 2669 2842 
Q 2491 3084 2119 3084 
Q 1678 3084 1418 2786 
Q 1159 2488 1159 1978 
L 1159 0 
L 581 0 
L 581 3500 
L 1159 3500 
L 1159 2956 
Q 1356 3278 1631 3431 
Q 1906 3584 2284 3584 
Q 2666 3584 2933 3390 
Q 3200 3197 3328 2828 
z
" transform="scale(0.015625)"/>
       <path id="DejaVuSans-70" d="M 1159 525 
L 1159 -1331 
L 581 -1331 
L 581 3500 
L 1159 3500 
L 1159 2969 
Q 1341 3281 1617 3432 
Q 1894 3584 2278 3584 
Q 2916 3584 3314 3078 
Q 3713 2572 3713 1747 
Q 3713 922 3314 415 
Q 2916 -91 2278 -91 
Q 1894 -91 1617 61 
Q 1341 213 1159 525 
z
M 3116 1747 
Q 3116 2381 2855 2742 
Q 2594 3103 2138 3103 
Q 1681 3103 1420 2742 
Q 1159 2381 1159 1747 
Q 1159 1113 1420 752 
Q 1681 391 2138 391 
Q 2594 391 2855 752 
Q 3116 1113 3116 1747 
z
" transform="scale(0.015625)"/>
       <path id="DejaVuSans-72" d="M 2631 2963 
Q 2534 3019 2420 3045 
Q 2306 3072 2169 3072 
Q 1681 3072 1420 2755 
Q 1159 2438 1159 1844 
L 1159 0 
L 581 0 
L 581 3500 
L 1159 3500 
L 1159 2956 
Q 1341 3275 1631 3429 
Q 1922 3584 2338 3584 
Q 2397 3584 2469 3576 
Q 2541 3569 2628 3553 
L 2631 2963 
z
" transform="scale(0.015625)"/>
       <path id="DejaVuSans-61" d="M 2194 1759 
Q 1497 1759 1228 1600 
Q 959 1441 959 1056 
Q 959 750 1161 570 
Q 1363 391 1709 391 
Q 2188 391 2477 730 
Q 2766 1069 2766 1631 
L 2766 1759 
L 2194 1759 
z
M 3341 1997 
L 3341 0 
L 2766 0 
L 2766 531 
Q 2569 213 2275 61 
Q 1981 -91 1556 -91 
Q 1019 -91 701 211 
Q 384 513 384 1019 
Q 384 1609 779 1909 
Q 1175 2209 1959 2209 
L 2766 2209 
L 2766 2266 
Q 2766 2663 2505 2880 
Q 2244 3097 1772 3097 
Q 1472 3097 1187 3025 
Q 903 2953 641 2809 
L 641 3341 
Q 956 3463 1253 3523 
Q 1550 3584 1831 3584 
Q 2591 3584 2966 3190 
Q 3341 2797 3341 1997 
z
" transform="scale(0.015625)"/>
       <path id="DejaVuSans-74" d="M 1172 4494 
L 1172 3500 
L 2356 3500 
L 2356 3053 
L 1172 3053 
L 1172 1153 
Q 1172 725 1289 603 
Q 1406 481 1766 481 
L 2356 481 
L 2356 0 
L 1766 0 
Q 1100 0 847 248 
Q 594 497 594 1153 
L 594 3053 
L 172 3053 
L 172 3500 
L 594 3500 
L 594 4494 
L 1172 4494 
z
" transform="scale(0.015625)"/>
       <path id="DejaVuSans-75" d="M 544 1381 
L 544 3500 
L 1119 3500 
L 1119 1403 
Q 1119 906 1312 657 
Q 1506 409 1894 409 
Q 2359 409 2629 706 
Q 2900 1003 2900 1516 
L 2900 3500 
L 3475 3500 
L 3475 0 
L 2900 0 
L 2900 538 
Q 2691 219 2414 64 
Q 2138 -91 1772 -91 
Q 1169 -91 856 284 
Q 544 659 544 1381 
z
M 1991 3584 
L 1991 3584 
z
" transform="scale(0.015625)"/>
       <path id="DejaVuSans-20" transform="scale(0.015625)"/>
       <path id="DejaVuSans-28" d="M 1984 4856 
Q 1566 4138 1362 3434 
Q 1159 2731 1159 2009 
Q 1159 1288 1364 580 
Q 1569 -128 1984 -844 
L 1484 -844 
Q 1016 -109 783 600 
Q 550 1309 550 2009 
Q 550 2706 781 3412 
Q 1013 4119 1484 4856 
L 1984 4856 
z
" transform="scale(0.015625)"/>
       <path id="DejaVuSans-2218" d="M 2000 2619 
Q 1750 2619 1578 2445 
Q 1406 2272 1406 2022 
Q 1406 1775 1578 1605 
Q 1750 1435 2000 1435 
Q 2250 1435 2422 1605 
Q 2594 1775 2594 2022 
Q 2594 2269 2420 2444 
Q 2247 2619 2000 2619 
z
M 2000 3022 
Q 2200 3022 2384 2945 
Q 2569 2869 2703 2725 
Q 2847 2585 2919 2406 
Q 2991 2228 2991 2022 
Q 2991 1610 2702 1324 
Q 2413 1038 1994 1038 
Q 1572 1038 1290 1319 
Q 1009 1600 1009 2022 
Q 1009 2441 1296 2731 
Q 1584 3022 2000 3022 
z
" transform="scale(0.015625)"/>
       <path id="DejaVuSans-Oblique-43" d="M 4447 4306 
L 4319 3641 
Q 4019 3944 3683 4091 
Q 3347 4238 2956 4238 
Q 2422 4238 2017 3981 
Q 1613 3725 1319 3200 
Q 1131 2863 1032 2486 
Q 934 2109 934 1728 
Q 934 1091 1264 756 
Q 1594 422 2222 422 
Q 2656 422 3056 561 
Q 3456 700 3834 978 
L 3688 231 
Q 3316 72 2936 -9 
Q 2556 -91 2175 -91 
Q 1278 -91 773 396 
Q 269 884 269 1753 
Q 269 2309 461 2846 
Q 653 3384 1013 3828 
Q 1394 4300 1883 4525 
Q 2372 4750 3022 4750 
Q 3422 4750 3780 4639 
Q 4138 4528 4447 4306 
z
" transform="scale(0.015625)"/>
       <path id="DejaVuSans-29" d="M 513 4856 
L 1013 4856 
Q 1481 4119 1714 3412 
Q 1947 2706 1947 2009 
Q 1947 1309 1714 600 
Q 1481 -109 1013 -844 
L 513 -844 
Q 928 -128 1133 580 
Q 1338 1288 1338 2009 
Q 1338 2731 1133 3434 
Q 928 4138 513 4856 
z
" transform="scale(0.015625)"/>
      </defs>
      <use xlink:href="#DejaVuSans-54" transform="translate(0 0.125)"/>
      <use xlink:href="#DejaVuSans-65" transform="translate(61.083984 0.125)"/>
      <use xlink:href="#DejaVuSans-6d" transform="translate(122.607422 0.125)"/>
      <use xlink:href="#DejaVuSans-70" transform="translate(220.019531 0.125)"/>
      <use xlink:href="#DejaVuSans-65" transform="translate(283.496094 0.125)"/>
      <use xlink:href="#DejaVuSans-72" transform="translate(345.019531 0.125)"/>
      <use xlink:href="#DejaVuSans-61" transform="translate(386.132812 0.125)"/>
      <use xlink:href="#DejaVuSans-74" transform="translate(447.412109 0.125)"/>
      <use xlink:href="#DejaVuSans-75" transform="translate(486.621094 0.125)"/>
      <use xlink:href="#DejaVuSans-72" transform="translate(550 0.125)"/>
      <use xlink:href="#DejaVuSans-65" transform="translate(591.113281 0.125)"/>
      <use xlink:href="#DejaVuSans-20" transform="translate(652.636719 0.125)"/>
      <use xlink:href="#DejaVuSans-28" transform="translate(684.423828 0.125)"/>
      <use xlink:href="#DejaVuSans-2218" transform="translate(724.394531 38.40625) scale(0.7)"/>
      <use xlink:href="#DejaVuSans-Oblique-43" transform="translate(770.947266 0.125)"/>
      <use xlink:href="#DejaVuSans-29" transform="translate(840.771484 0.125)"/>
     </g>
    </g>
   </g>
   <g id="matplotlib.axis_2">
    <g id="ytick_1">
     <g id="line2d_7">
      <defs>
       <path id="m09f71b91fd" d="M 0 0 
L -3.5 0 
" style="stroke: #000000; stroke-width: 0.8"/>
      </defs>
      <g>
       <use xlink:href="#m09f71b91fd" x="57.6" y="295.488" style="stroke: #000000; stroke-width: 0.8"/>
      </g>
     </g>
     <g id="text_8">
      <!-- 0.0 -->
      <g transform="translate(34.696875 299.287219) scale(0.1 -0.1)">
       <defs>
        <path id="DejaVuSans-2e" d="M 684 794 
L 1344 794 
L 1344 0 
L 684 0 
L 684 794 
z
" transform="scale(0.015625)"/>
       </defs>
       <use xlink:href="#DejaVuSans-30"/>
       <use xlink:href="#DejaVuSans-2e" transform="translate(63.623047 0)"/>
       <use xlink:href="#DejaVuSans-30" transform="translate(95.410156 0)"/>
      </g>
     </g>
    </g>
    <g id="ytick_2">
     <g id="line2d_8">
      <g>
       <use xlink:href="#m09f71b91fd" x="57.6" y="238.016763" style="stroke: #000000; stroke-width: 0.8"/>
      </g>
     </g>
     <g id="text_9">
      <!-- 0.5 -->
      <g transform="translate(34.696875 241.815982) scale(0.1 -0.1)">
       <defs>
        <path id="DejaVuSans-35" d="M 691 4666 
L 3169 4666 
L 3169 4134 
L 1269 4134 
L 1269 2991 
Q 1406 3038 1543 3061 
Q 1681 3084 1819 3084 
Q 2600 3084 3056 2656 
Q 3513 2228 3513 1497 
Q 3513 744 3044 326 
Q 2575 -91 1722 -91 
Q 1428 -91 1123 -41 
Q 819 9 494 109 
L 494 744 
Q 775 591 1075 516 
Q 1375 441 1709 441 
Q 2250 441 2565 725 
Q 2881 1009 2881 1497 
Q 2881 1984 2565 2268 
Q 2250 2553 1709 2553 
Q 1456 2553 1204 2497 
Q 953 2441 691 2322 
L 691 4666 
z
" transform="scale(0.015625)"/>
       </defs>
       <use xlink:href="#DejaVuSans-30"/>
       <use xlink:href="#DejaVuSans-2e" transform="translate(63.623047 0)"/>
       <use xlink:href="#DejaVuSans-35" transform="translate(95.410156 0)"/>
      </g>
     </g>
    </g>
    <g id="ytick_3">
     <g id="line2d_9">
      <g>
       <use xlink:href="#m09f71b91fd" x="57.6" y="180.545526" style="stroke: #000000; stroke-width: 0.8"/>
      </g>
     </g>
     <g id="text_10">
      <!-- 1.0 -->
      <g transform="translate(34.696875 184.344745) scale(0.1 -0.1)">
       <use xlink:href="#DejaVuSans-31"/>
       <use xlink:href="#DejaVuSans-2e" transform="translate(63.623047 0)"/>
       <use xlink:href="#DejaVuSans-30" transform="translate(95.410156 0)"/>
      </g>
     </g>
    </g>
    <g id="ytick_4">
     <g id="line2d_10">
      <g>
       <use xlink:href="#m09f71b91fd" x="57.6" y="123.074289" style="stroke: #000000; stroke-width: 0.8"/>
      </g>
     </g>
     <g id="text_11">
      <!-- 1.5 -->
      <g transform="translate(34.696875 126.873508) scale(0.1 -0.1)">
       <use xlink:href="#DejaVuSans-31"/>
       <use xlink:href="#DejaVuSans-2e" transform="translate(63.623047 0)"/>
       <use xlink:href="#DejaVuSans-35" transform="translate(95.410156 0)"/>
      </g>
     </g>
    </g>
    <g id="ytick_5">
     <g id="line2d_11">
      <g>
       <use xlink:href="#m09f71b91fd" x="57.6" y="65.603052" style="stroke: #000000; stroke-width: 0.8"/>
      </g>
     </g>
     <g id="text_12">
      <!-- 2.0 -->
      <g transform="translate(34.696875 69.402271) scale(0.1 -0.1)">
       <use xlink:href="#DejaVuSans-32"/>
       <use xlink:href="#DejaVuSans-2e" transform="translate(63.623047 0)"/>
       <use xlink:href="#DejaVuSans-30" transform="translate(95.410156 0)"/>
      </g>
     </g>
    </g>
    <g id="text_13">
     <!-- Intensity ($^{\circ}C^{-1}$) -->
     <g transform="translate(28.596875 213.328) rotate(-90) scale(0.1 -0.1)">
      <defs>
       <path id="DejaVuSans-49" d="M 628 4666 
L 1259 4666 
L 1259 0 
L 628 0 
L 628 4666 
z
" transform="scale(0.015625)"/>
       <path id="DejaVuSans-6e" d="M 3513 2113 
L 3513 0 
L 2938 0 
L 2938 2094 
Q 2938 2591 2744 2837 
Q 2550 3084 2163 3084 
Q 1697 3084 1428 2787 
Q 1159 2491 1159 1978 
L 1159 0 
L 581 0 
L 581 3500 
L 1159 3500 
L 1159 2956 
Q 1366 3272 1645 3428 
Q 1925 3584 2291 3584 
Q 2894 3584 3203 3211 
Q 3513 2838 3513 2113 
z
" transform="scale(0.015625)"/>
       <path id="DejaVuSans-73" d="M 2834 3397 
L 2834 2853 
Q 2591 2978 2328 3040 
Q 2066 3103 1784 3103 
Q 1356 3103 1142 2972 
Q 928 2841 928 2578 
Q 928 2378 1081 2264 
Q 1234 2150 1697 2047 
L 1894 2003 
Q 2506 1872 2764 1633 
Q 3022 1394 3022 966 
Q 3022 478 2636 193 
Q 2250 -91 1575 -91 
Q 1294 -91 989 -36 
Q 684 19 347 128 
L 347 722 
Q 666 556 975 473 
Q 1284 391 1588 391 
Q 1994 391 2212 530 
Q 2431 669 2431 922 
Q 2431 1156 2273 1281 
Q 2116 1406 1581 1522 
L 1381 1569 
Q 847 1681 609 1914 
Q 372 2147 372 2553 
Q 372 3047 722 3315 
Q 1072 3584 1716 3584 
Q 2034 3584 2315 3537 
Q 2597 3491 2834 3397 
z
" transform="scale(0.015625)"/>
       <path id="DejaVuSans-69" d="M 603 3500 
L 1178 3500 
L 1178 0 
L 603 0 
L 603 3500 
z
M 603 4863 
L 1178 4863 
L 1178 4134 
L 603 4134 
L 603 4863 
z
" transform="scale(0.015625)"/>
       <path id="DejaVuSans-79" d="M 2059 -325 
Q 1816 -950 1584 -1140 
Q 1353 -1331 966 -1331 
L 506 -1331 
L 506 -850 
L 844 -850 
Q 1081 -850 1212 -737 
Q 1344 -625 1503 -206 
L 1606 56 
L 191 3500 
L 800 3500 
L 1894 763 
L 2988 3500 
L 3597 3500 
L 2059 -325 
z
" transform="scale(0.015625)"/>
       <path id="DejaVuSans-2212" d="M 678 2272 
L 4684 2272 
L 4684 1741 
L 678 1741 
L 678 2272 
z
" transform="scale(0.015625)"/>
      </defs>
      <use xlink:href="#DejaVuSans-49" transform="translate(0 0.684375)"/>
      <use xlink:href="#DejaVuSans-6e" transform="translate(29.492188 0.684375)"/>
      <use xlink:href="#DejaVuSans-74" transform="translate(92.871094 0.684375)"/>
      <use xlink:href="#DejaVuSans-65" transform="translate(132.080078 0.684375)"/>
      <use xlink:href="#DejaVuSans-6e" transform="translate(193.603516 0.684375)"/>
      <use xlink:href="#DejaVuSans-73" transform="translate(256.982422 0.684375)"/>
      <use xlink:href="#DejaVuSans-69" transform="translate(309.082031 0.684375)"/>
      <use xlink:href="#DejaVuSans-74" transform="translate(336.865234 0.684375)"/>
      <use xlink:href="#DejaVuSans-79" transform="translate(376.074219 0.684375)"/>
      <use xlink:href="#DejaVuSans-20" transform="translate(435.253906 0.684375)"/>
      <use xlink:href="#DejaVuSans-28" transform="translate(467.041016 0.684375)"/>
      <use xlink:href="#DejaVuSans-2218" transform="translate(507.011719 38.965625) scale(0.7)"/>
      <use xlink:href="#DejaVuSans-Oblique-43" transform="translate(553.564453 0.684375)"/>
      <use xlink:href="#DejaVuSans-2212" transform="translate(630.589193 38.965625) scale(0.7)"/>
      <use xlink:href="#DejaVuSans-31" transform="translate(689.241536 38.965625) scale(0.7)"/>
      <use xlink:href="#DejaVuSans-29" transform="translate(736.512044 0.684375)"/>
     </g>
    </g>
    <g id="text_14">
     <!-- 1e6 -->
     <g transform="translate(57.6 38.472) scale(0.1 -0.1)">
      <use xlink:href="#DejaVuSans-31"/>
      <use xlink:href="#DejaVuSans-65" transform="translate(63.623047 0)"/>
      <use xlink:href="#DejaVuSans-36" transform="translate(125.146484 0)"/>
     </g>
    </g>
   </g>
   <g id="line2d_12">
    <path d="M 73.832727 295.488 
L 104.690338 295.381218 
L 111.349085 295.073747 
L 116.708565 294.381104 
L 117.683016 294.182713 
L 118.495058 293.972254 
L 122.392862 292.601794 
L 124.828989 291.339726 
L 125.153806 291.084324 
L 125.641031 290.768807 
L 126.615482 290.042026 
L 127.102708 289.561796 
L 127.427525 289.343175 
L 127.752342 289.026509 
L 128.077159 288.716509 
L 131.000511 285.357315 
L 133.923864 280.610421 
L 136.359991 275.513872 
L 137.009625 274.003183 
L 139.770569 266.238818 
L 140.582611 263.50836 
L 142.85633 255.594341 
L 143.505964 252.984687 
L 143.830781 251.633078 
L 144.805232 247.882275 
L 147.07895 238.080556 
L 147.566176 235.79527 
L 151.951205 214.822521 
L 152.276022 213.211028 
L 152.925656 209.795282 
L 153.250473 208.38149 
L 153.575289 206.732525 
L 154.874557 199.996551 
L 156.173825 193.418393 
L 157.148276 188.397131 
L 157.960318 184.632191 
L 158.285135 182.533456 
L 158.609952 180.981962 
L 159.90922 174.555988 
L 166.405559 143.242785 
L 167.217602 139.593476 
L 171.927447 119.515095 
L 172.089856 119.080957 
L 172.577081 116.774292 
L 172.73949 116.550729 
L 173.064307 114.880729 
L 173.389124 113.739925 
L 175.013208 107.697629 
L 175.175617 107.595675 
L 175.500434 106.396596 
L 176.799702 101.40223 
L 176.96211 101.210851 
L 177.286927 99.835449 
L 177.936561 97.898554 
L 178.261378 96.65683 
L 178.586195 95.686831 
L 178.748603 94.823957 
L 179.07342 94.360165 
L 179.398237 92.976717 
L 180.535097 89.777523 
L 180.859914 88.686834 
L 181.022322 88.318443 
L 181.347139 87.374191 
L 181.671956 86.609249 
L 181.834364 85.802697 
L 181.996773 85.928215 
L 182.159181 84.795916 
L 182.32159 84.664307 
L 182.971224 82.821664 
L 183.133632 82.81109 
L 183.296041 82.485113 
L 183.783266 80.561665 
L 183.945675 80.186148 
L 184.108083 80.28178 
L 184.4329 79.061896 
L 184.595309 78.988793 
L 184.757717 78.437069 
L 184.920126 78.290057 
L 185.244942 77.149713 
L 185.894576 75.710403 
L 186.056985 75.642013 
L 186.219393 75.273737 
L 186.54421 74.298335 
L 186.869027 73.784427 
L 187.356253 72.65029 
L 187.843478 71.868796 
L 188.330704 70.743854 
L 188.65552 70.127073 
L 188.817929 69.632475 
L 188.980337 69.555464 
L 190.117197 67.190867 
L 190.279605 67.256039 
L 190.442014 66.419948 
L 190.604422 66.407189 
L 190.766831 66.526844 
L 190.929239 65.821442 
L 191.254056 65.598569 
L 191.578873 64.965581 
L 191.90369 64.697995 
L 192.228507 63.796616 
L 192.390915 63.589949 
L 192.553324 63.766731 
L 193.202958 62.59972 
L 193.365366 62.563513 
L 193.527775 62.15903 
L 193.690183 62.176157 
L 194.015 61.327192 
L 194.177409 61.552134 
L 194.339817 61.071215 
L 194.502226 61.069261 
L 194.827043 60.713514 
L 195.15186 60.349606 
L 195.314268 60.15087 
L 195.476677 59.592135 
L 195.639085 59.616733 
L 196.613536 58.7934 
L 196.775944 58.719607 
L 197.100761 58.22386 
L 197.587987 57.831101 
L 197.750395 57.767883 
L 197.912804 57.272711 
L 198.075212 57.352826 
L 198.237621 56.954895 
L 198.400029 57.021906 
L 198.562438 56.905125 
L 198.887255 56.462826 
L 199.049663 56.74501 
L 199.212071 56.382941 
L 199.37448 56.511447 
L 199.699297 55.952022 
L 200.024114 55.990528 
L 200.511339 55.333746 
L 200.673748 55.592712 
L 201.160973 55.403861 
L 201.48579 54.781793 
L 201.648199 54.984896 
L 201.810607 54.910873 
L 202.135424 55.043517 
L 202.297833 54.908574 
L 202.460241 54.620183 
L 202.62265 54.725241 
L 202.785058 54.55616 
L 203.272283 54.708689 
L 203.434692 54.550298 
L 203.5971 54.012023 
L 203.921917 54.286161 
L 204.084326 54.006161 
L 204.409143 54.141448 
L 204.73396 53.960184 
L 204.896368 53.965241 
L 205.058777 53.671793 
L 205.383594 54.057885 
L 205.546002 53.889839 
L 205.870819 53.835701 
L 206.033228 53.690644 
L 206.195636 53.816161 
L 206.358044 53.617885 
L 207.007678 53.803747 
L 207.170087 53.568 
L 207.494904 53.703747 
L 207.657312 54.120299 
L 207.819721 53.89754 
L 207.982129 54.021678 
L 208.306946 53.94731 
L 208.631763 53.961908 
L 208.95658 54.344207 
L 209.281397 54.151103 
L 209.443806 54.235011 
L 209.606214 53.744552 
L 209.931031 54.272827 
L 210.093439 54.095471 
L 210.255848 54.389724 
L 210.418256 54.40731 
L 210.580665 54.610068 
L 211.555116 54.707195 
L 211.879933 54.979953 
L 212.20475 55.083631 
L 212.367158 55.337999 
L 212.529567 55.078804 
L 212.691975 55.125815 
L 212.854384 55.485355 
L 213.179201 55.486045 
L 213.341609 55.339723 
L 213.828834 55.792827 
L 214.153651 55.932826 
L 214.478468 56.53616 
L 214.640877 55.98547 
L 214.803285 56.404435 
L 214.965694 56.512826 
L 215.128102 56.390298 
L 215.290511 56.978228 
L 215.452919 56.765815 
L 215.615328 56.759263 
L 216.102553 57.446159 
L 216.264962 57.156504 
L 216.42737 57.407768 
L 216.589779 57.419492 
L 216.914595 57.929147 
L 217.077004 58.126389 
L 217.239412 58.026963 
L 217.564229 58.439147 
L 217.726638 58.287193 
L 218.213863 58.886733 
L 218.53868 59.191446 
L 218.863497 59.31294 
L 219.025906 59.334664 
L 219.188314 59.740296 
L 219.350723 59.552595 
L 219.513131 60.194778 
L 219.67554 60.047537 
L 219.837948 60.086388 
L 220.000357 60.478686 
L 220.162765 60.394663 
L 220.812399 61.165008 
L 220.974807 60.998686 
L 221.137216 61.447651 
L 221.299624 61.438571 
L 221.462033 61.816962 
L 221.78685 61.983168 
L 222.923709 63.286271 
L 223.086118 63.271674 
L 223.573343 64.051098 
L 223.735752 64.129949 
L 224.222977 64.745006 
L 224.385385 64.849949 
L 224.710202 65.42581 
L 224.872611 65.438339 
L 225.035019 65.779488 
L 225.197428 65.839029 
L 225.359836 66.084316 
L 225.522245 66.072937 
L 225.847062 66.726844 
L 226.00947 66.560408 
L 226.334287 67.136384 
L 226.659104 67.551327 
L 226.983921 68.207763 
L 227.471146 68.661211 
L 227.958372 68.97259 
L 228.283189 70.022705 
L 228.445597 69.887762 
L 228.608006 70.037073 
L 228.932823 70.75098 
L 229.25764 70.814314 
L 229.420048 71.265578 
L 229.582457 71.223279 
L 229.907274 71.936957 
L 230.069682 71.976612 
L 230.232091 72.421209 
L 230.394499 72.114773 
L 230.719316 73.464657 
L 230.881724 72.95029 
L 232.343401 75.23822 
L 232.505809 75.76638 
L 232.668218 75.434426 
L 232.830626 75.849599 
L 232.993035 75.947759 
L 233.317852 76.743391 
L 233.48026 76.769713 
L 233.642669 77.455805 
L 233.805077 77.420173 
L 233.967486 77.634195 
L 234.129894 77.616494 
L 234.617119 78.880057 
L 234.779528 78.685804 
L 234.941936 79.213735 
L 235.104345 79.193965 
L 235.266753 79.590057 
L 235.429162 79.569827 
L 236.078796 80.881205 
L 236.403613 81.225688 
L 236.890838 82.165343 
L 237.215655 82.513044 
L 237.378064 82.985457 
L 237.540472 83.052929 
L 237.702881 83.425572 
L 237.865289 83.327411 
L 238.190106 84.095572 
L 238.677331 85.085571 
L 238.83974 84.712008 
L 239.164557 85.68833 
L 240.139008 87.027524 
L 240.463825 87.87442 
L 240.788642 88.233156 
L 240.95105 88.421777 
L 241.275867 89.140397 
L 241.438276 89.266029 
L 241.600684 89.669822 
L 241.763092 89.719592 
L 242.412726 91.069821 
L 242.575135 90.998442 
L 242.737543 91.694074 
L 242.899952 91.529131 
L 243.06236 92.268441 
L 243.224769 92.209706 
L 243.549586 92.536602 
L 243.874403 93.331774 
L 244.361628 93.859705 
L 244.686445 94.811429 
L 244.848854 94.886256 
L 245.011262 95.436026 
L 245.17367 95.502348 
L 245.660896 96.40752 
L 245.823304 96.743037 
L 245.985713 96.659934 
L 246.797755 98.314416 
L 246.960164 98.374186 
L 247.284981 99.230162 
L 247.934615 100.22315 
L 248.097023 100.364874 
L 248.259432 100.898782 
L 248.42184 101.010046 
L 249.071474 102.473149 
L 249.233882 102.496138 
L 249.883516 103.389815 
L 250.045925 103.968206 
L 250.208333 104.109815 
L 250.370742 104.581194 
L 250.53315 104.555562 
L 250.695559 105.046596 
L 250.857967 104.83016 
L 251.020376 105.620504 
L 251.182784 105.69855 
L 251.832418 106.808549 
L 252.157235 107.796595 
L 252.319643 107.893262 
L 254.268545 111.175904 
L 254.430954 111.851076 
L 254.593362 111.824754 
L 255.080588 112.574409 
L 255.405405 113.681535 
L 255.567813 113.642569 
L 256.055038 114.423373 
L 256.217447 114.657741 
L 256.542264 115.538085 
L 256.704672 115.516131 
L 257.354306 116.730499 
L 257.679123 117.517855 
L 258.00394 117.593027 
L 258.978391 119.679003 
L 259.140799 119.692566 
L 259.303208 120.307279 
L 259.465616 120.301876 
L 259.628025 120.885094 
L 259.790433 120.81429 
L 259.952842 121.421186 
L 260.277659 121.377393 
L 260.602476 122.260956 
L 261.25211 123.672335 
L 261.414518 123.63061 
L 261.739335 124.621644 
L 262.064152 124.906817 
L 262.551378 125.925667 
L 262.713786 125.936127 
L 262.876194 126.429919 
L 263.038603 126.452333 
L 263.36342 127.38716 
L 263.525828 127.501988 
L 263.688237 127.939229 
L 263.850645 127.986126 
L 264.013054 128.644286 
L 264.175462 128.485666 
L 264.337871 128.916125 
L 264.500279 128.950953 
L 264.662688 129.357504 
L 264.987505 130.335435 
L 265.149913 130.369343 
L 265.312322 130.533251 
L 265.47473 131.150607 
L 265.637139 131.171986 
L 265.799547 131.649802 
L 265.961956 131.540722 
L 266.611589 132.93302 
L 266.773998 133.159456 
L 267.098815 133.93187 
L 267.58604 134.475318 
L 268.073266 135.498536 
L 268.560491 136.278306 
L 268.7229 136.401869 
L 269.047717 137.136696 
L 269.372534 137.753592 
L 269.534942 137.751523 
L 269.69735 138.267615 
L 269.859759 138.3875 
L 270.346984 139.437155 
L 270.671801 139.758994 
L 270.996618 140.563936 
L 271.159027 140.48589 
L 271.321435 141.131981 
L 271.483844 141.116694 
L 272.295886 142.788187 
L 272.620703 143.063245 
L 272.94552 143.684854 
L 273.107929 143.846233 
L 273.270337 144.532554 
L 273.432745 144.476463 
L 273.595154 144.747842 
L 273.757562 144.722554 
L 274.082379 145.630025 
L 274.244788 145.734278 
L 274.407196 145.99945 
L 274.732013 146.67876 
L 275.868873 148.735426 
L 276.031281 148.653817 
L 276.19369 149.286805 
L 276.518507 149.521518 
L 276.843323 150.311057 
L 277.005732 150.374391 
L 277.980183 151.878183 
L 278.305 152.742436 
L 278.629817 153.05439 
L 279.279451 154.375768 
L 279.441859 154.215423 
L 279.766676 155.21048 
L 279.929085 155.239791 
L 280.253901 155.786687 
L 280.903535 156.83025 
L 281.228352 157.239215 
L 281.390761 157.867721 
L 281.553169 157.739445 
L 281.715578 158.292548 
L 281.877986 158.126916 
L 282.040395 158.727605 
L 282.365212 158.88703 
L 282.852437 159.915651 
L 283.014846 159.853122 
L 283.177254 160.379673 
L 283.339663 160.445995 
L 284.63893 162.54473 
L 285.288564 163.63358 
L 285.77579 164.398062 
L 286.100607 164.730821 
L 286.425424 165.583119 
L 286.587832 165.546223 
L 286.750241 166.037027 
L 286.912649 165.977717 
L 287.399874 166.941854 
L 287.562283 166.975073 
L 287.8871 167.710589 
L 288.049508 167.777371 
L 288.374325 168.496106 
L 288.699142 168.586681 
L 289.186368 169.776795 
L 289.348776 169.815876 
L 289.673593 170.281393 
L 289.836002 170.784956 
L 289.99841 170.787255 
L 290.972861 172.262541 
L 291.135269 172.749438 
L 291.460086 172.921392 
L 291.622495 173.378518 
L 291.784903 173.41369 
L 292.434537 174.472195 
L 292.596946 174.420471 
L 292.759354 174.896678 
L 292.921763 175.02162 
L 293.084171 175.464724 
L 293.24658 175.373459 
L 294.221031 176.952424 
L 295.195481 178.201849 
L 295.520298 178.984262 
L 295.845115 179.279435 
L 296.332341 179.97702 
L 297.144383 181.107595 
L 297.306792 181.232882 
L 297.794017 182.036675 
L 299.093285 183.72518 
L 300.230144 185.508742 
L 300.392553 185.397363 
L 300.879778 186.290696 
L 301.042187 186.291155 
L 301.69182 187.299546 
L 301.854229 187.382879 
L 302.179046 188.116902 
L 302.82868 188.727246 
L 303.315905 189.520579 
L 303.478314 189.723223 
L 303.640722 189.7292 
L 303.965539 190.375061 
L 304.127948 190.522763 
L 304.290356 190.835061 
L 304.452765 190.845981 
L 304.777582 191.402647 
L 305.589624 192.407014 
L 305.752032 192.813106 
L 306.076849 193.004945 
L 306.239258 193.09483 
L 306.401666 193.49437 
L 306.564075 193.453911 
L 306.888892 194.070577 
L 307.0513 194.464485 
L 307.213709 194.35322 
L 307.538526 194.845059 
L 307.700934 194.888278 
L 307.863343 195.363795 
L 308.025751 195.420231 
L 308.18816 195.749312 
L 308.350568 195.790116 
L 309.16261 197.063104 
L 309.487427 197.203909 
L 309.812244 197.649886 
L 310.137061 198.03138 
L 310.29947 198.029656 
L 310.624287 198.85046 
L 311.436329 199.700459 
L 311.761146 200.23839 
L 312.085963 200.255287 
L 312.41078 200.925171 
L 313.222822 201.787585 
L 313.385231 201.963907 
L 313.547639 201.954136 
L 313.872456 202.575171 
L 314.034865 202.490458 
L 314.684499 203.708963 
L 314.846907 203.594825 
L 315.171724 204.065515 
L 315.334133 204.080227 
L 315.496541 204.24471 
L 315.983766 205.108618 
L 316.146175 205.375399 
L 316.308583 205.273905 
L 316.470992 205.356549 
L 316.958217 206.135399 
L 317.445443 206.740111 
L 317.77026 206.753215 
L 317.932668 207.34218 
L 318.095077 207.228157 
L 318.419894 207.835973 
L 318.582302 207.864823 
L 318.907119 208.339766 
L 319.231936 208.494478 
L 319.719161 209.211949 
L 320.043978 209.336432 
L 321.018429 210.603443 
L 321.180838 210.580454 
L 321.505655 211.185281 
L 321.830472 211.39735 
L 321.99288 211.863787 
L 322.642514 212.182982 
L 323.129739 212.918384 
L 323.454556 213.149074 
L 324.753824 214.456889 
L 325.078641 215.03482 
L 325.403458 215.263785 
L 326.053092 215.692636 
L 326.377909 216.140681 
L 327.189951 216.895279 
L 327.35236 217.235279 
L 327.514768 217.277692 
L 328.326811 218.206657 
L 328.651628 218.424703 
L 328.976445 218.834703 
L 329.301262 218.919875 
L 329.46367 219.274588 
L 329.788487 219.53068 
L 329.950895 219.942978 
L 330.113304 219.947921 
L 330.275712 220.187001 
L 330.438121 220.185622 
L 330.600529 220.382404 
L 330.762938 220.372404 
L 330.925346 220.719645 
L 331.250163 220.981599 
L 331.57498 221.324587 
L 331.737389 221.443667 
L 332.062206 221.781713 
L 332.874248 222.703092 
L 333.036657 222.432517 
L 333.361473 223.041483 
L 333.523882 223.172977 
L 333.68629 223.471712 
L 333.848699 223.408149 
L 334.660741 224.168609 
L 335.147967 224.632631 
L 335.472784 224.881597 
L 335.960009 225.367688 
L 336.122418 225.377803 
L 336.284826 225.801366 
L 336.447235 225.78332 
L 337.096868 226.335734 
L 337.259277 226.628492 
L 337.421685 226.549297 
L 337.584094 226.983205 
L 337.908911 226.840906 
L 338.233728 227.60332 
L 338.396136 227.473664 
L 338.883362 228.040561 
L 339.208179 228.314469 
L 339.532996 228.380905 
L 339.857813 228.982399 
L 340.182629 228.962859 
L 340.669855 229.485847 
L 340.994672 229.710445 
L 341.319489 230.033433 
L 341.644306 230.432973 
L 341.806714 230.390445 
L 343.918024 232.142168 
L 344.080433 232.48849 
L 344.40525 232.429064 
L 344.730067 232.758834 
L 345.054884 233.090673 
L 348.303053 235.530557 
L 348.465462 235.599753 
L 348.790279 235.949637 
L 349.76473 236.832051 
L 349.927138 236.787568 
L 350.089547 237.002166 
L 350.251955 236.95412 
L 350.576772 237.476878 
L 351.226406 237.896303 
L 351.87604 238.439866 
L 353.662533 239.637222 
L 353.98735 239.818601 
L 354.149759 239.84159 
L 354.474575 240.337681 
L 354.799392 240.375383 
L 355.124209 240.65975 
L 355.936252 241.247911 
L 356.09866 241.515267 
L 356.423477 241.462508 
L 356.910703 242.010554 
L 357.073111 241.896301 
L 357.885153 242.605496 
L 358.047562 242.667106 
L 358.20997 242.913657 
L 358.534787 242.873887 
L 358.859604 243.24837 
L 360.158872 244.145726 
L 360.321281 244.137335 
L 360.483689 244.35745 
L 360.646098 244.372162 
L 360.970915 244.656415 
L 361.133323 244.630553 
L 361.45814 244.90653 
L 361.620548 245.174346 
L 361.782957 245.195955 
L 362.107774 245.441702 
L 362.270182 245.469403 
L 362.757408 245.991932 
L 362.919816 245.752851 
L 363.407042 246.212276 
L 363.731859 246.423311 
L 364.219084 246.787908 
L 364.381493 246.893196 
L 364.543901 246.790782 
L 364.70631 247.085839 
L 364.868718 247.014805 
L 365.031126 247.375724 
L 365.355943 247.329747 
L 365.843169 247.80308 
L 366.167986 247.923885 
L 367.304845 248.664344 
L 367.467254 248.610666 
L 367.792071 248.993424 
L 368.116888 249.105953 
L 368.441704 249.383309 
L 368.604113 249.377677 
L 368.92893 249.563539 
L 369.091338 249.606757 
L 369.253747 249.901815 
L 369.578564 249.958481 
L 370.065789 250.22124 
L 372.014691 251.326527 
L 372.177099 251.603193 
L 372.501916 251.486527 
L 372.826733 251.923423 
L 373.15155 252.088136 
L 373.476367 252.138825 
L 373.801184 252.432273 
L 373.963593 252.400434 
L 374.126001 252.666296 
L 374.28841 252.628825 
L 374.775635 252.874227 
L 375.750086 253.458595 
L 375.912494 253.478939 
L 376.074903 253.677675 
L 376.39972 253.756755 
L 376.562128 253.785261 
L 377.049354 254.139629 
L 377.211762 254.140204 
L 377.374171 254.354456 
L 377.698988 254.365721 
L 377.861396 254.577215 
L 378.023805 254.574916 
L 378.186213 254.826985 
L 378.348622 254.629284 
L 378.51103 254.950893 
L 378.835847 255.053651 
L 379.485481 255.42687 
L 380.135115 255.764226 
L 380.297523 255.727329 
L 380.459932 255.872846 
L 380.62234 255.841237 
L 380.947157 256.098478 
L 381.109566 256.194455 
L 381.271974 256.514685 
L 381.434383 256.326409 
L 381.596791 256.558593 
L 381.7592 256.539168 
L 381.921608 256.671122 
L 382.084017 256.647329 
L 382.571242 256.9348 
L 382.73365 256.826064 
L 383.058467 257.167214 
L 383.220876 257.165145 
L 383.545693 257.372271 
L 383.708101 257.420432 
L 384.032918 257.672271 
L 384.357735 257.765604 
L 384.520144 257.782386 
L 384.682552 257.976294 
L 384.844961 257.896294 
L 385.007369 257.978593 
L 385.332186 258.384339 
L 385.657003 258.364454 
L 385.98182 258.531926 
L 386.306637 258.800201 
L 386.469045 258.737673 
L 386.631454 259.014799 
L 386.956271 258.944109 
L 387.605905 259.188707 
L 387.930722 259.441006 
L 388.255539 259.525718 
L 389.717215 260.260545 
L 389.879623 260.493074 
L 390.20444 260.41089 
L 390.529257 260.636637 
L 390.691666 260.648476 
L 391.016483 260.849166 
L 392.153342 261.358936 
L 392.478159 261.372729 
L 392.802976 261.525832 
L 392.965385 261.735947 
L 393.127793 261.677671 
L 393.939835 262.149395 
L 394.102244 262.010085 
L 394.751878 262.6002 
L 394.914286 262.403073 
L 395.239103 262.66836 
L 395.56392 262.817786 
L 395.888737 263.000314 
L 396.051146 262.969969 
L 396.538371 263.185602 
L 396.863188 263.280889 
L 397.025596 263.284337 
L 397.350413 263.538475 
L 398.162456 263.630084 
L 398.487273 264.056866 
L 398.487273 264.056866 
" clip-path="url(#pd6147ab0bc)" style="fill: none; stroke: #8000ff; stroke-width: 1.5; stroke-linecap: square"/>
   </g>
   <g id="line2d_13">
    <path d="M 73.832727 295.488 
L 109.400184 295.379149 
L 115.571706 295.14823 
L 116.708565 295.069494 
L 119.144692 294.829839 
L 121.418411 294.563748 
L 123.204904 294.247426 
L 124.016947 294.069955 
L 127.102708 293.225472 
L 128.889201 292.560185 
L 133.111821 290.31375 
L 136.684808 287.467084 
L 139.445752 284.550074 
L 140.582611 283.150994 
L 141.232245 282.308121 
L 141.719471 281.622374 
L 141.881879 281.467432 
L 142.531513 280.466168 
L 144.480415 277.549733 
L 145.779683 275.429159 
L 146.429316 274.236861 
L 147.241359 272.745712 
L 147.403767 272.625942 
L 148.053401 271.383529 
L 148.865444 269.861346 
L 155.6866 256.272731 
L 157.960318 251.339055 
L 158.122727 251.267331 
L 159.584403 247.999977 
L 159.746812 247.898827 
L 160.071629 247.089287 
L 160.396445 246.541012 
L 161.208488 244.629518 
L 161.370896 244.415955 
L 161.695713 243.623082 
L 161.858122 243.531358 
L 162.182939 242.654807 
L 162.670164 241.674807 
L 167.704827 231.321594 
L 167.867235 231.206996 
L 168.841686 229.124698 
L 169.653729 227.598492 
L 170.140954 226.525389 
L 170.465771 226.070562 
L 171.440222 223.968839 
L 172.089856 222.905621 
L 172.414673 222.085161 
L 172.577081 221.94723 
L 172.901898 221.202633 
L 173.064307 221.093553 
L 173.389124 220.434702 
L 173.713941 219.831599 
L 174.525983 218.263209 
L 174.688391 218.162405 
L 175.013208 217.359761 
L 175.338025 217.028382 
L 175.662842 216.231486 
L 175.987659 215.871831 
L 176.799702 214.313441 
L 177.124519 213.862981 
L 178.586195 211.309649 
L 178.748603 211.130224 
L 179.07342 210.407121 
L 179.723054 209.48034 
L 179.885463 209.294018 
L 180.372688 208.283444 
L 180.535097 208.178386 
L 180.859914 207.576433 
L 183.458449 203.587009 
L 183.783266 202.990113 
L 183.945675 202.815515 
L 184.108083 202.391148 
L 184.270492 202.494481 
L 184.4329 202.02678 
L 184.757717 201.718389 
L 185.082534 201.090574 
L 185.244942 201.00862 
L 186.706619 198.944253 
L 186.869027 198.767701 
L 187.031436 198.288391 
L 187.356253 198.071839 
L 188.168295 196.886208 
L 189.142746 195.745174 
L 189.305154 195.616898 
L 189.467563 195.016668 
L 189.629971 195.195059 
L 189.954788 194.691496 
L 190.279605 194.24345 
L 190.766831 193.424485 
L 191.091648 193.217359 
L 191.254056 192.948508 
L 191.416465 192.907934 
L 191.741282 192.344831 
L 192.390915 191.537015 
L 192.553324 191.575751 
L 193.202958 190.610694 
L 193.527775 190.486096 
L 193.852592 189.783797 
L 194.015 189.492993 
L 194.177409 189.625292 
L 194.339817 189.327246 
L 194.502226 189.424832 
L 194.827043 188.846097 
L 194.989451 188.803223 
L 195.15186 188.444947 
L 195.314268 188.473913 
L 195.639085 187.843109 
L 195.801493 188.083568 
L 196.12631 187.502189 
L 196.288719 187.483339 
L 196.451127 186.886213 
L 196.775944 186.865063 
L 196.938353 186.556213 
L 197.100761 186.724718 
L 197.425578 186.246902 
L 197.912804 185.597822 
L 198.237621 185.181041 
L 198.400029 185.369891 
L 199.212071 184.384145 
L 199.37448 184.453455 
L 199.699297 184.035294 
L 200.024114 184.01495 
L 200.186522 183.457708 
L 200.348931 183.473111 
L 200.673748 183.123111 
L 200.836156 183.188053 
L 201.160973 182.744146 
L 202.135424 181.863341 
L 202.297833 181.919088 
L 202.460241 181.661158 
L 202.62265 181.724491 
L 202.947466 181.218399 
L 203.109875 181.192882 
L 203.434692 180.857365 
L 203.5971 180.836675 
L 203.921917 180.415756 
L 204.084326 180.42679 
L 204.246734 180.030699 
L 204.409143 180.001388 
L 204.571551 180.104377 
L 204.896368 179.772883 
L 205.058777 179.853227 
L 205.221185 179.564377 
L 205.383594 179.52863 
L 205.546002 179.303343 
L 205.708411 179.274377 
L 205.870819 178.75978 
L 206.195636 179.022883 
L 206.520453 178.508056 
L 206.682861 178.323918 
L 207.007678 178.437481 
L 207.170087 177.997136 
L 207.657312 177.865642 
L 207.819721 177.595987 
L 208.469355 177.498746 
L 208.95658 176.781735 
L 209.281397 177.031045 
L 209.443806 176.777941 
L 209.606214 176.775528 
L 209.768622 176.39208 
L 210.255848 176.182539 
L 210.418256 176.04139 
L 210.743073 176.209321 
L 210.905482 175.924149 
L 211.06789 175.954609 
L 211.392707 175.628172 
L 211.555116 175.636908 
L 211.717524 175.355643 
L 211.879933 175.559781 
L 212.042341 175.535643 
L 212.20475 174.981046 
L 212.367158 175.233344 
L 212.529567 175.175184 
L 212.691975 174.733919 
L 212.854384 175.06231 
L 213.179201 174.79185 
L 213.504017 174.576333 
L 213.666426 174.669437 
L 214.153651 174.27277 
L 214.478468 174.215759 
L 214.640877 173.989552 
L 215.290511 173.795759 
L 215.452919 173.517368 
L 215.777736 173.768403 
L 218.376272 172.600357 
L 218.53868 172.629668 
L 218.863497 172.40507 
L 219.025906 172.623806 
L 219.350723 172.152311 
L 219.513131 172.175415 
L 219.67554 171.95599 
L 219.837948 172.208863 
L 220.000357 172.014955 
L 220.325173 172.108863 
L 220.487582 171.761622 
L 220.64999 172.05622 
L 220.812399 171.748289 
L 220.974807 171.72507 
L 221.137216 171.522886 
L 221.624441 171.799323 
L 221.78685 171.50645 
L 221.949258 171.601507 
L 222.274075 171.387829 
L 222.436484 171.289093 
L 222.598892 171.614381 
L 222.761301 171.286795 
L 222.923709 171.517484 
L 223.086118 171.147714 
L 223.248526 171.096105 
L 223.410935 171.253461 
L 223.573343 170.994036 
L 223.735752 171.2953 
L 223.89816 171.214381 
L 224.060568 170.961278 
L 224.222977 171.001392 
L 224.385385 171.209553 
L 224.547794 170.918404 
L 224.872611 171.291277 
L 225.035019 170.839094 
L 225.359836 171.072657 
L 225.522245 170.792772 
L 225.847062 170.786105 
L 226.00947 170.525646 
L 226.496696 170.723232 
L 226.659104 170.493807 
L 226.983921 170.611508 
L 227.14633 170.399899 
L 227.471146 170.799209 
L 227.795963 170.45691 
L 227.958372 170.633232 
L 228.12078 170.305991 
L 228.283189 170.408749 
L 228.445597 170.294381 
L 228.608006 170.524381 
L 228.770414 170.533921 
L 229.095231 170.374726 
L 229.420048 170.241508 
L 229.582457 170.078864 
L 229.744865 170.370588 
L 229.907274 170.27691 
L 230.069682 170.412197 
L 230.232091 169.914152 
L 230.556908 170.368289 
L 230.881724 170.06806 
L 231.044133 170.313232 
L 231.206541 170.081968 
L 231.531358 170.12737 
L 231.693767 170.280933 
L 232.018584 169.932657 
L 232.180992 170.174381 
L 232.505809 169.903577 
L 232.830626 170.213922 
L 232.993035 170.018749 
L 233.48026 170.452542 
L 233.642669 169.895416 
L 233.805077 170.103807 
L 234.129894 170.159669 
L 234.292303 170.204037 
L 234.454711 169.971048 
L 234.617119 170.258749 
L 234.779528 170.118979 
L 234.941936 170.229209 
L 235.266753 170.144496 
L 236.078796 170.238519 
L 236.72843 170.248634 
L 236.890838 170.242312 
L 237.053247 170.394726 
L 237.702881 170.224381 
L 238.027697 170.504381 
L 238.352514 170.337255 
L 238.514923 170.259784 
L 238.677331 170.549439 
L 238.83974 170.244037 
L 239.489374 170.495416 
L 239.651782 170.611623 
L 239.814191 170.355761 
L 239.976599 170.468289 
L 240.139008 170.404841 
L 240.301416 170.593002 
L 240.788642 170.628404 
L 240.95105 170.509094 
L 241.600684 170.641852 
L 241.763092 170.495301 
L 241.925501 170.751622 
L 242.087909 170.723921 
L 242.250318 170.969783 
L 242.412726 170.650818 
L 242.575135 170.653117 
L 242.899952 170.857714 
L 243.06236 170.694266 
L 243.387177 171.038749 
L 243.711994 170.834496 
L 244.524037 171.160588 
L 244.686445 171.059783 
L 245.011262 171.159208 
L 245.17367 171.067255 
L 245.336079 171.272197 
L 245.498487 171.270473 
L 245.660896 171.380358 
L 245.985713 171.212312 
L 246.31053 171.399438 
L 246.472938 171.307369 
L 246.635347 171.543116 
L 246.960164 171.48622 
L 247.122572 171.742312 
L 247.284981 171.539898 
L 248.097023 171.721737 
L 248.259432 171.974725 
L 248.42184 172.012197 
L 248.746657 171.787599 
L 249.233882 172.111852 
L 249.558699 172.062656 
L 249.883516 172.384265 
L 250.045925 172.175645 
L 250.53315 172.286449 
L 250.695559 172.533806 
L 250.857967 172.33553 
L 251.182784 172.558288 
L 251.345193 172.397254 
L 251.994827 172.899438 
L 252.157235 172.563231 
L 252.482052 172.73461 
L 252.806869 173.054725 
L 253.456503 172.96438 
L 253.78132 173.207598 
L 253.943728 173.150127 
L 254.430954 173.542886 
L 254.593362 173.348748 
L 254.918179 173.712311 
L 255.567813 173.447828 
L 255.89263 173.908747 
L 256.055038 173.98415 
L 256.217447 173.840012 
L 256.379855 174.050586 
L 256.542264 173.79461 
L 256.704672 174.283115 
L 256.867081 173.947368 
L 257.191898 174.308632 
L 257.354306 174.178058 
L 257.679123 174.433805 
L 257.841532 174.339897 
L 258.491166 174.607023 
L 258.653574 174.508517 
L 258.978391 174.634034 
L 259.303208 175.070126 
L 259.465616 174.903919 
L 259.790433 174.959896 
L 259.952842 174.952885 
L 260.11525 175.294609 
L 260.602476 175.25185 
L 260.764884 175.606678 
L 260.927293 175.611735 
L 261.089701 175.457942 
L 261.576927 175.708632 
L 261.901744 175.513919 
L 262.226561 175.975068 
L 262.388969 175.668517 
L 262.551378 176.005413 
L 263.36342 176.456907 
L 263.525828 176.169551 
L 263.688237 176.642769 
L 263.850645 176.435068 
L 264.175462 176.621505 
L 264.500279 176.746217 
L 264.662688 176.919436 
L 264.825096 176.754838 
L 264.987505 177.102654 
L 265.312322 176.911734 
L 265.47473 177.217481 
L 265.637139 177.068976 
L 265.799547 177.147941 
L 266.124364 177.468861 
L 266.286772 177.173803 
L 266.611589 177.685872 
L 266.773998 177.520815 
L 267.098815 177.966217 
L 267.261223 177.528056 
L 267.58604 177.995412 
L 267.748449 177.97001 
L 268.073266 178.167136 
L 268.235674 178.224607 
L 268.398083 178.545182 
L 268.560491 178.134722 
L 268.7229 178.169895 
L 269.047717 178.565987 
L 269.69735 178.657366 
L 270.022167 178.962538 
L 270.671801 179.325526 
L 270.83421 179.11932 
L 270.996618 179.425297 
L 271.159027 179.175067 
L 271.646252 179.656906 
L 271.808661 179.495182 
L 271.971069 179.753112 
L 272.133478 179.641273 
L 272.458295 179.900584 
L 272.783112 179.951503 
L 272.94552 180.075411 
L 273.107929 179.988515 
L 273.432745 180.627365 
L 273.595154 180.375986 
L 273.919971 180.551618 
L 274.407196 180.849434 
L 275.219239 181.118054 
L 275.381647 181.238974 
L 275.544056 181.140928 
L 275.706464 181.53679 
L 275.868873 181.254721 
L 276.031281 181.434031 
L 276.19369 181.349663 
L 276.518507 181.732422 
L 276.680915 181.680238 
L 277.817774 182.361732 
L 278.142591 182.193571 
L 278.467408 182.364376 
L 279.117042 182.841617 
L 279.441859 182.860582 
L 279.604268 183.058973 
L 279.766676 182.917824 
L 279.929085 182.977939 
L 280.091493 183.49403 
L 280.253901 183.211961 
L 280.578718 183.432191 
L 280.741127 183.386214 
L 280.903535 183.701961 
L 281.065944 183.665869 
L 281.228352 183.466674 
L 281.390761 183.880812 
L 281.553169 183.780582 
L 282.040395 184.407938 
L 282.365212 184.191271 
L 282.690029 184.526444 
L 283.014846 184.386788 
L 283.177254 184.724719 
L 284.314113 185.137823 
L 284.476522 185.397248 
L 284.63893 185.391271 
L 284.963747 185.520696 
L 285.126156 185.441501 
L 285.450973 185.894259 
L 285.77579 185.922075 
L 285.938198 185.976903 
L 286.100607 186.194489 
L 286.263015 186.087707 
L 286.587832 186.275638 
L 286.912649 186.474259 
L 287.237466 186.651615 
L 287.399874 186.862764 
L 287.724691 186.608282 
L 288.374325 187.211385 
L 288.699142 187.284143 
L 288.861551 187.37081 
L 289.023959 187.688971 
L 289.186368 187.470235 
L 289.348776 187.672994 
L 289.511185 187.592074 
L 289.99841 187.982879 
L 290.160819 187.749086 
L 290.485636 188.126442 
L 290.810452 188.225752 
L 291.135269 188.72012 
L 291.297678 188.452074 
L 291.460086 188.475292 
L 291.622495 188.800809 
L 291.784903 188.549315 
L 291.947312 189.15828 
L 292.10972 188.900694 
L 292.272129 189.111499 
L 292.434537 188.942074 
L 292.596946 189.37966 
L 292.759354 189.277591 
L 293.408988 189.729659 
L 293.571397 189.645407 
L 293.733805 190.037705 
L 293.896214 189.820579 
L 294.058622 190.088855 
L 294.221031 189.755751 
L 294.545847 190.353797 
L 294.708256 190.198855 
L 294.870664 190.383912 
L 295.033073 190.219314 
L 295.35789 190.718165 
L 295.520298 190.56851 
L 295.845115 190.823337 
L 296.007524 190.729199 
L 296.332341 191.021728 
L 296.494749 191.21621 
L 296.981975 191.267475 
L 297.144383 191.567015 
L 297.306792 191.399544 
L 298.443651 192.100003 
L 298.606059 192.083336 
L 298.768468 192.324716 
L 298.930876 192.172187 
L 299.093285 192.491382 
L 299.58051 192.532532 
L 299.905327 192.732302 
L 300.230144 192.963566 
L 300.392553 193.206095 
L 300.554961 193.093451 
L 300.71737 193.325635 
L 301.204595 193.376094 
L 301.367004 193.615405 
L 301.854229 193.601842 
L 302.179046 194.190002 
L 302.341454 193.867703 
L 302.666271 194.328623 
L 302.82868 194.202186 
L 302.991088 194.460232 
L 303.153497 194.340692 
L 303.640722 194.751036 
L 303.803131 194.765979 
L 303.965539 194.907013 
L 304.290356 194.871496 
L 304.452765 194.919082 
L 304.777582 195.241151 
L 304.93999 195.228967 
L 305.427215 195.748392 
L 305.752032 195.646898 
L 306.564075 196.326898 
L 306.726483 196.17161 
L 306.888892 196.428852 
L 307.0513 196.260806 
L 307.538526 196.794599 
L 307.700934 196.410576 
L 308.025751 196.954139 
L 308.18816 196.828507 
L 308.512976 197.117127 
L 308.675385 196.950231 
L 308.837793 197.376897 
L 309.000202 197.372529 
L 309.16261 197.538966 
L 309.325019 197.42046 
L 309.487427 197.47138 
L 309.649836 197.764828 
L 309.812244 197.683909 
L 310.461878 198.100805 
L 310.786695 198.051495 
L 311.111512 198.445632 
L 311.273921 198.457127 
L 311.598738 198.70954 
L 312.085963 198.694828 
L 312.248371 199.058391 
L 312.573188 199.154483 
L 313.060414 199.445632 
L 313.222822 199.45977 
L 313.385231 199.758505 
L 313.547639 199.637126 
L 313.710048 199.807011 
L 314.034865 199.822068 
L 314.846907 200.31816 
L 315.009316 200.300459 
L 315.334133 200.640459 
L 315.658949 200.799194 
L 315.821358 200.698045 
L 315.983766 200.990918 
L 316.146175 200.786206 
L 316.308583 200.889079 
L 316.470992 201.207125 
L 316.6334 201.00839 
L 316.795809 201.285286 
L 316.958217 201.292298 
L 317.120626 201.592412 
L 317.283034 201.452298 
L 317.445443 201.650228 
L 317.607851 201.55678 
L 317.77026 201.815746 
L 317.932668 201.802068 
L 318.095077 201.929309 
L 318.257485 201.871263 
L 318.419894 202.213906 
L 318.582302 202.133677 
L 318.744711 202.239998 
L 318.907119 202.175631 
L 319.231936 202.620228 
L 319.556753 202.570113 
L 319.719161 202.854021 
L 320.043978 202.696205 
L 320.206387 203.007929 
L 320.368795 202.956665 
L 320.531204 203.318619 
L 320.693612 203.180917 
L 320.856021 203.407124 
L 321.018429 203.371032 
L 321.180838 203.5654 
L 321.343246 203.308504 
L 321.505655 203.571377 
L 321.668063 203.598274 
L 321.830472 203.879423 
L 321.99288 203.660113 
L 322.155289 203.984135 
L 322.317697 203.910572 
L 322.480106 204.172871 
L 322.642514 204.101722 
L 322.804922 204.193905 
L 322.967331 204.143676 
L 323.129739 204.239078 
L 323.292148 204.622641 
L 323.454556 204.530917 
L 324.429007 204.974825 
L 324.591416 205.326549 
L 324.753824 205.23402 
L 325.078641 205.495629 
L 325.24105 205.280457 
L 325.403458 205.680916 
L 325.565867 205.490457 
L 325.728275 205.679077 
L 326.2155 205.673905 
L 326.540317 206.179422 
L 326.702726 206.101951 
L 326.865134 206.157813 
L 327.35236 206.606778 
L 327.514768 206.484019 
L 328.489219 206.997812 
L 328.651628 206.866088 
L 329.46367 207.535973 
L 329.626078 207.440341 
L 330.113304 207.69172 
L 330.275712 207.959881 
L 330.438121 207.805858 
L 330.600529 208.05103 
L 331.087755 208.182984 
L 331.899797 208.767581 
L 332.062206 208.603214 
L 332.224614 208.68011 
L 332.387023 208.964593 
L 332.549431 208.876087 
L 334.173516 209.753558 
L 334.498333 209.857926 
L 334.660741 209.771374 
L 334.82315 210.103443 
L 334.985558 210.089765 
L 335.147967 210.310569 
L 335.310375 210.114018 
L 335.635192 210.448615 
L 335.960009 210.662753 
L 336.447235 210.715167 
L 336.609643 210.533787 
L 336.772051 210.931374 
L 337.096868 211.092063 
L 337.259277 211.425511 
L 337.584094 211.245052 
L 337.908911 211.485856 
L 338.071319 211.44873 
L 338.233728 211.702178 
L 338.396136 211.730224 
L 338.558545 211.612293 
L 338.883362 211.881143 
L 339.370587 212.328844 
L 339.532996 212.214936 
L 340.020221 212.511833 
L 340.182629 212.455166 
L 340.345038 212.704821 
L 340.507446 212.58735 
L 340.994672 212.979648 
L 341.15708 212.960108 
L 341.319489 213.152292 
L 341.481897 213.092292 
L 341.969123 213.459993 
L 342.131531 213.306775 
L 342.29394 213.617579 
L 342.456348 213.686085 
L 342.618757 213.618384 
L 342.943574 213.934246 
L 343.105982 213.772751 
L 343.268391 213.807809 
L 343.593208 214.220337 
L 343.755616 214.075855 
L 343.918024 214.238728 
L 344.080433 214.229878 
L 344.40525 214.47436 
L 345.542109 215.041946 
L 345.866926 215.079303 
L 346.029335 215.420797 
L 346.191743 215.255624 
L 346.354152 215.255969 
L 346.678969 215.722636 
L 346.841377 215.580222 
L 347.003786 215.761026 
L 347.166194 215.678498 
L 347.491011 215.93321 
L 347.653419 215.968612 
L 347.815828 216.159302 
L 347.978236 215.988612 
L 348.790279 216.494474 
L 348.952687 216.556198 
L 349.115096 216.78344 
L 349.277504 216.779876 
L 349.439913 216.620796 
L 349.76473 216.955279 
L 350.414364 217.160451 
L 350.576772 217.410106 
L 350.73918 217.20252 
L 351.063997 217.580681 
L 351.388814 217.718842 
L 351.713631 217.832864 
L 352.038448 217.87206 
L 352.850491 218.46137 
L 353.337716 218.539071 
L 353.500125 218.764243 
L 353.824942 218.746772 
L 353.98735 218.808841 
L 354.149759 219.095852 
L 354.312167 218.975738 
L 354.474575 219.156082 
L 354.799392 219.068841 
L 355.124209 219.50022 
L 355.286618 219.218381 
L 355.611435 219.75091 
L 355.773843 219.562059 
L 355.936252 219.741944 
L 356.09866 219.622059 
L 356.748294 220.164817 
L 357.073111 220.024703 
L 357.397928 220.44022 
L 357.560337 220.318381 
L 358.047562 220.578955 
L 358.20997 220.523323 
L 358.534787 220.941369 
L 358.697196 220.8193 
L 359.671647 221.27815 
L 359.996464 221.465047 
L 360.158872 221.509414 
L 360.321281 221.752863 
L 360.646098 221.710564 
L 361.133323 221.999989 
L 361.295732 221.893092 
L 362.107774 222.43769 
L 362.270182 222.252518 
L 362.594999 222.687115 
L 362.757408 222.484357 
L 362.919816 222.674012 
L 363.082225 222.669414 
L 363.407042 223.008609 
L 363.56945 222.784816 
L 363.731859 223.180448 
L 363.894267 223.011713 
L 364.381493 223.331253 
L 364.70631 223.475276 
L 364.868718 223.376425 
L 365.031126 223.634471 
L 365.193535 223.679298 
L 365.355943 223.972287 
L 365.518352 223.728494 
L 365.68076 223.949068 
L 366.492803 224.099298 
L 366.81762 224.463551 
L 366.980028 224.226884 
L 367.142437 224.501712 
L 367.304845 224.526425 
L 367.467254 224.719183 
L 367.629662 224.482746 
L 367.954479 224.808953 
L 368.116888 224.861712 
L 368.279296 225.089873 
L 368.441704 224.833551 
L 369.091338 225.35516 
L 369.253747 225.257689 
L 369.416155 225.418953 
L 369.578564 225.165964 
L 369.740972 225.573321 
L 369.903381 225.54447 
L 370.390606 225.876999 
L 370.715423 225.825504 
L 370.877832 226.057803 
L 371.04024 226.03424 
L 371.202649 226.151826 
L 371.365057 226.041941 
L 371.527466 226.070447 
L 371.689874 226.342975 
L 371.852283 226.281826 
L 372.664325 226.770332 
L 373.15155 226.86309 
L 373.313959 227.154354 
L 373.476367 226.926193 
L 373.801184 227.109872 
L 373.963593 227.098032 
L 374.28841 227.412515 
L 374.613227 227.566883 
L 374.938044 227.707457 
L 375.100452 227.515274 
L 375.262861 227.91286 
L 375.587677 227.790331 
L 375.750086 227.81263 
L 376.074903 227.951595 
L 377.049354 228.408492 
L 377.374171 228.65148 
L 377.536579 228.508836 
L 377.698988 228.69079 
L 377.861396 228.674583 
L 378.023805 228.974468 
L 378.186213 228.659756 
L 378.51103 229.027342 
L 379.160664 229.272514 
L 379.323072 229.442514 
L 379.485481 229.169871 
L 379.810298 229.601709 
L 379.972706 229.60148 
L 380.135115 229.795158 
L 380.297523 229.666882 
L 380.62234 229.813778 
L 380.947157 230.100905 
L 381.109566 229.957571 
L 381.434383 230.193778 
L 381.7592 230.134468 
L 382.084017 230.507226 
L 382.246425 230.321594 
L 382.571242 230.529525 
L 382.896059 230.548376 
L 383.220876 230.93895 
L 383.87051 230.9501 
L 384.357735 231.336651 
L 384.520144 231.10964 
L 384.844961 231.486421 
L 385.169778 231.450214 
L 385.494595 231.806306 
L 386.631454 232.129409 
L 387.281088 232.505271 
L 387.443496 232.373432 
L 387.768313 232.503892 
L 388.742764 232.901363 
L 389.22999 232.84734 
L 389.392398 233.134581 
L 390.042032 233.272742 
L 390.366849 233.653891 
L 390.529257 233.461248 
L 391.178891 233.741363 
L 391.3413 233.974696 
L 391.666117 233.90711 
L 392.478159 234.263891 
L 392.640568 234.218259 
L 393.127793 234.413661 
L 393.45261 234.61642 
L 393.777427 234.780673 
L 393.939835 234.780902 
L 394.427061 235.001247 
L 394.589469 234.834006 
L 394.751878 235.072052 
L 395.239103 235.063661 
L 395.401512 235.357339 
L 395.726329 235.27458 
L 396.051146 235.519868 
L 396.375963 235.529523 
L 396.700779 235.788948 
L 397.512822 235.711017 
L 397.67523 236.023431 
L 398.487273 236.230327 
L 398.487273 236.230327 
" clip-path="url(#pd6147ab0bc)" style="fill: none; stroke: #80ffb4; stroke-width: 1.5; stroke-linecap: square"/>
   </g>
   <g id="line2d_14">
    <path d="M 73.832727 295.488 
L 120.119143 295.386046 
L 128.401976 294.762138 
L 130.350877 294.342483 
L 130.675694 294.289035 
L 131.16292 294.154552 
L 132.624596 293.687311 
L 133.436638 293.335357 
L 134.248681 292.972139 
L 134.735906 292.73145 
L 135.223132 292.436622 
L 136.359991 291.696852 
L 137.172033 291.02191 
L 137.984076 290.325819 
L 140.257794 287.777314 
L 140.582611 287.250763 
L 140.907428 286.850533 
L 141.394654 285.954441 
L 141.881879 285.239499 
L 143.830781 281.51088 
L 145.942091 276.253067 
L 148.865444 267.247554 
L 150.002303 263.215257 
L 150.814345 259.912959 
L 151.951205 255.615605 
L 152.763247 252.00963 
L 153.250473 249.862389 
L 154.224923 245.781012 
L 155.199374 241.302968 
L 158.772361 224.15562 
L 164.294249 196.709311 
L 164.781474 194.107473 
L 166.892785 183.468743 
L 167.055193 182.968743 
L 167.704827 179.634147 
L 169.49132 170.838979 
L 172.089856 158.592893 
L 172.252264 158.021973 
L 172.901898 154.608182 
L 173.226715 153.335999 
L 173.713941 150.98439 
L 174.8508 145.948071 
L 175.013208 145.424508 
L 175.500434 142.907843 
L 175.662842 142.448647 
L 176.150068 140.187959 
L 176.637293 138.35727 
L 176.96211 136.80819 
L 177.286927 135.449915 
L 177.611744 133.924858 
L 177.774153 133.520031 
L 178.423786 130.542446 
L 178.586195 130.105665 
L 179.07342 127.914976 
L 180.372688 122.816128 
L 181.022322 120.337394 
L 181.509548 118.720958 
L 181.834364 117.182912 
L 182.159181 116.019809 
L 182.32159 115.838085 
L 182.646407 114.483029 
L 183.620858 110.841191 
L 183.783266 110.521191 
L 184.108083 108.899583 
L 184.270492 108.713606 
L 184.757717 106.894297 
L 185.082534 105.689929 
L 185.569759 103.88993 
L 185.732168 103.874298 
L 186.219393 102.154529 
L 186.706619 100.718552 
L 186.869027 100.380966 
L 187.356253 98.426484 
L 188.005887 96.551083 
L 188.493112 94.983383 
L 188.817929 94.233268 
L 189.142746 93.255337 
L 189.467563 92.423154 
L 189.629971 92.193154 
L 189.954788 90.668787 
L 190.442014 89.638443 
L 191.091648 87.749708 
L 191.254056 87.607294 
L 191.741282 86.03718 
L 191.90369 85.727295 
L 192.228507 84.799479 
L 192.390915 84.90787 
L 192.553324 84.077066 
L 192.715732 83.907066 
L 193.365366 82.10155 
L 194.015 80.930401 
L 194.177409 80.273505 
L 194.339817 80.258562 
L 194.664634 79.275114 
L 194.827043 79.099137 
L 195.801493 76.862357 
L 195.963902 76.959713 
L 196.12631 76.174081 
L 196.451127 75.541323 
L 196.613536 75.15707 
L 196.775944 75.095231 
L 197.26317 73.936151 
L 197.425578 73.722588 
L 197.587987 73.291554 
L 197.750395 73.322818 
L 197.912804 73.133163 
L 198.075212 72.518336 
L 198.237621 72.381095 
L 198.562438 71.709256 
L 198.724846 71.587417 
L 198.887255 71.306382 
L 199.049663 70.552245 
L 199.212071 70.605003 
L 200.024114 69.207533 
L 200.186522 69.305234 
L 200.511339 68.678912 
L 200.673748 68.525119 
L 200.998565 67.738683 
L 201.160973 67.703625 
L 201.648199 66.662362 
L 201.810607 66.914201 
L 201.973016 66.482936 
L 202.135424 66.457879 
L 202.297833 66.097534 
L 202.460241 66.068339 
L 203.109875 64.882018 
L 203.272283 65.160063 
L 203.921917 64.012363 
L 204.084326 63.835351 
L 204.409143 63.833742 
L 204.571551 63.410984 
L 204.73396 63.339375 
L 205.058777 62.789605 
L 205.221185 62.893283 
L 205.870819 62.02926 
L 206.358044 61.549376 
L 206.682861 61.239835 
L 206.84527 61.322824 
L 207.170087 60.769261 
L 207.332495 60.997192 
L 207.657312 60.70179 
L 207.819721 60.657537 
L 208.469355 59.898687 
L 208.631763 59.939261 
L 209.118989 59.390871 
L 209.281397 59.793169 
L 209.606214 59.19179 
L 209.768622 59.238342 
L 209.931031 59.48179 
L 210.255848 58.851446 
L 210.418256 58.976043 
L 210.580665 58.490297 
L 210.743073 58.770526 
L 210.905482 58.138113 
L 211.06789 58.796388 
L 211.230299 58.645469 
L 211.717524 57.895584 
L 212.20475 58.278228 
L 212.367158 58.070182 
L 212.691975 58.080986 
L 212.854384 57.71363 
L 213.341609 57.98455 
L 213.504017 57.749492 
L 213.666426 57.782941 
L 213.828834 57.641906 
L 213.991243 57.928688 
L 214.153651 57.577193 
L 214.31606 57.776734 
L 214.640877 57.529262 
L 214.803285 57.778803 
L 215.290511 57.455469 
L 215.452919 57.431906 
L 215.615328 57.743745 
L 215.940145 57.469377 
L 216.264962 57.559148 
L 216.42737 57.742136 
L 216.589779 57.401332 
L 216.914595 57.627768 
L 217.239412 57.346734 
L 217.401821 57.67317 
L 217.564229 57.479607 
L 217.889046 57.757998 
L 218.376272 57.482826 
L 218.53868 57.75317 
L 218.701089 57.710872 
L 219.025906 57.989147 
L 219.188314 57.692711 
L 219.350723 58.314205 
L 219.67554 57.972596 
L 219.837948 58.150756 
L 220.000357 58.075239 
L 220.162765 58.417998 
L 220.325173 58.362825 
L 220.487582 58.658802 
L 220.812399 58.134779 
L 220.974807 58.50271 
L 221.137216 58.301561 
L 221.299624 58.660526 
L 221.462033 58.695814 
L 221.624441 58.945469 
L 221.78685 58.687538 
L 222.111667 59.045584 
L 222.274075 58.973974 
L 222.436484 59.025699 
L 222.598892 58.915354 
L 222.761301 59.180986 
L 222.923709 58.940871 
L 223.086118 59.424434 
L 223.248526 59.410986 
L 223.410935 59.856848 
L 223.573343 59.731905 
L 223.735752 60.126388 
L 223.89816 59.806158 
L 224.547794 60.208342 
L 224.710202 60.056733 
L 224.872611 60.500181 
L 225.359836 60.597882 
L 225.684653 61.132364 
L 226.00947 61.22018 
L 226.171879 61.32156 
L 226.334287 61.658456 
L 226.496696 61.40087 
L 226.821513 61.755352 
L 226.983921 61.611215 
L 227.308738 62.273168 
L 227.471146 62.690409 
L 227.795963 62.445467 
L 228.12078 63.255007 
L 228.283189 62.499145 
L 228.445597 63.243283 
L 228.608006 63.077076 
L 228.932823 63.263513 
L 229.420048 64.021558 
L 229.744865 63.961673 
L 230.232091 64.774431 
L 230.394499 64.794431 
L 230.556908 65.08765 
L 230.719316 65.108339 
L 230.881724 65.540063 
L 231.044133 65.175926 
L 231.856175 66.370408 
L 232.018584 66.593511 
L 232.180992 66.571442 
L 232.343401 66.777419 
L 232.505809 67.198568 
L 232.668218 67.233856 
L 232.830626 67.386844 
L 232.993035 67.286844 
L 233.317852 68.020177 
L 233.48026 67.888798 
L 233.642669 68.308913 
L 233.967486 68.435694 
L 234.129894 68.582246 
L 234.454711 69.018912 
L 234.617119 69.156958 
L 234.779528 69.536153 
L 234.941936 69.484429 
L 235.104345 69.649027 
L 235.266753 70.062475 
L 235.429162 70.056498 
L 235.916387 70.84167 
L 236.078796 70.958107 
L 236.403613 71.48052 
L 236.566021 71.569945 
L 236.890838 71.841899 
L 237.865289 73.013968 
L 238.190106 73.716841 
L 238.352514 73.700979 
L 238.514923 74.073048 
L 238.677331 74.005462 
L 238.83974 74.342128 
L 239.002148 74.343392 
L 239.326965 74.79799 
L 239.651782 75.430403 
L 239.814191 75.462817 
L 240.301416 76.320748 
L 240.463825 76.367529 
L 241.438276 77.781897 
L 241.600684 77.868103 
L 241.763092 78.298563 
L 242.087909 78.580977 
L 243.06236 79.851436 
L 243.224769 80.523849 
L 243.387177 80.219482 
L 243.711994 80.97293 
L 243.874403 81.039136 
L 244.524037 82.04994 
L 244.686445 82.123849 
L 245.011262 82.813159 
L 245.17367 82.868676 
L 245.336079 83.502239 
L 245.498487 83.208331 
L 246.148121 84.64879 
L 246.31053 84.722008 
L 246.797755 85.665456 
L 246.960164 85.861893 
L 247.122572 86.303847 
L 247.284981 86.308559 
L 247.447389 86.827295 
L 247.609798 86.460168 
L 247.772206 86.743157 
L 247.934615 87.38626 
L 248.097023 87.314421 
L 248.42184 88.057294 
L 248.584248 88.376604 
L 248.746657 88.262811 
L 248.909065 88.962581 
L 249.071474 88.702466 
L 249.233882 88.816489 
L 249.396291 89.542351 
L 249.883516 90.132006 
L 250.045925 90.593844 
L 250.208333 90.658672 
L 250.370742 90.958442 
L 250.53315 91.519361 
L 250.857967 91.61235 
L 251.182784 92.294074 
L 251.67001 93.155108 
L 251.832418 93.614303 
L 251.994827 93.316372 
L 252.157235 93.992923 
L 252.482052 94.063498 
L 252.806869 94.863383 
L 252.969277 94.963383 
L 253.78132 96.507405 
L 254.106137 96.67729 
L 254.268545 97.534761 
L 254.593362 97.850853 
L 254.755771 97.853036 
L 254.918179 98.539588 
L 255.080588 98.417864 
L 255.242996 99.026369 
L 255.567813 99.07545 
L 255.89263 100.051771 
L 256.055038 100.071771 
L 256.379855 101.000046 
L 256.704672 100.888897 
L 257.029489 101.601311 
L 257.679123 102.742574 
L 257.841532 103.468666 
L 258.00394 103.596597 
L 258.166349 103.502459 
L 258.653574 104.250045 
L 259.140799 105.142688 
L 259.303208 105.288205 
L 259.465616 105.877171 
L 259.628025 105.859469 
L 259.790433 106.3974 
L 259.952842 106.521883 
L 260.11525 107.08763 
L 260.277659 107.182112 
L 260.440067 107.983606 
L 260.602476 107.69579 
L 260.764884 107.694986 
L 260.927293 108.341882 
L 261.25211 108.723146 
L 261.901744 109.958893 
L 262.064152 109.827169 
L 262.226561 110.676479 
L 262.388969 110.805099 
L 262.713786 111.428777 
L 262.876194 111.605789 
L 263.038603 111.597168 
L 263.201011 112.298662 
L 263.36342 112.506478 
L 263.525828 113.027512 
L 263.688237 112.872684 
L 264.337871 114.05004 
L 264.500279 114.498891 
L 264.662688 114.479235 
L 264.825096 115.054408 
L 265.149913 115.471534 
L 265.637139 116.255556 
L 265.961956 116.97843 
L 266.124364 116.960384 
L 266.449181 117.873717 
L 266.611589 117.816935 
L 266.773998 118.290383 
L 266.936406 118.362452 
L 267.58604 119.677279 
L 268.560491 121.032566 
L 268.885308 121.883485 
L 269.047717 122.015669 
L 269.210125 122.538427 
L 269.534942 122.731186 
L 269.69735 123.036818 
L 269.859759 123.659921 
L 270.022167 123.82107 
L 270.184576 123.692334 
L 270.996618 125.403368 
L 271.159027 125.435437 
L 271.646252 126.593023 
L 271.971069 127.073137 
L 272.133478 127.195896 
L 272.620703 128.176125 
L 272.783112 128.395091 
L 272.94552 128.832447 
L 273.107929 128.853826 
L 273.595154 130.000377 
L 273.757562 129.93601 
L 273.919971 130.143941 
L 274.244788 131.045205 
L 274.407196 130.974975 
L 274.894422 132.041871 
L 275.05683 132.178767 
L 275.868873 133.595433 
L 276.031281 133.722215 
L 276.19369 134.123824 
L 276.356098 134.126238 
L 276.518507 134.708996 
L 276.680915 134.836122 
L 276.843323 135.394283 
L 277.005732 135.393363 
L 277.330549 135.997501 
L 277.492957 136.112558 
L 277.817774 136.90819 
L 278.142591 137.461523 
L 278.305 137.838994 
L 278.467408 137.919684 
L 278.792225 138.492672 
L 278.954634 138.621753 
L 279.604268 140.007154 
L 279.766676 139.929223 
L 279.929085 140.480143 
L 280.091493 140.54566 
L 281.065944 142.34382 
L 281.390761 142.969337 
L 281.553169 143.246233 
L 281.715578 143.136463 
L 282.365212 144.495083 
L 282.690029 145.155198 
L 282.852437 145.003244 
L 283.014846 145.174508 
L 283.177254 145.740485 
L 283.339663 145.798991 
L 284.314113 147.615082 
L 284.63893 147.987495 
L 285.126156 149.075656 
L 285.450973 149.266575 
L 286.100607 150.512437 
L 286.750241 151.386804 
L 287.562283 152.798987 
L 288.049508 153.429102 
L 288.211917 153.933355 
L 288.536734 154.16163 
L 288.699142 154.743469 
L 289.023959 154.936228 
L 289.348776 155.477492 
L 289.673593 155.847836 
L 290.160819 157.036916 
L 290.323227 157.025882 
L 290.485636 157.197376 
L 291.135269 158.572318 
L 291.297678 158.602318 
L 291.460086 158.957835 
L 291.784903 159.180249 
L 292.759354 160.951052 
L 292.921763 161.320478 
L 293.084171 161.358294 
L 293.24658 161.558753 
L 293.571397 162.299213 
L 293.733805 162.266684 
L 294.058622 162.988063 
L 295.845115 165.416453 
L 296.007524 165.90174 
L 296.169932 166.02082 
L 296.494749 166.610015 
L 296.819566 166.907601 
L 296.981975 167.423923 
L 297.144383 167.407946 
L 297.306792 167.885302 
L 297.4692 167.907831 
L 297.794017 168.59898 
L 297.956425 168.497945 
L 298.281242 169.110819 
L 298.768468 169.850473 
L 299.093285 170.228519 
L 299.255693 170.220818 
L 299.58051 171.094956 
L 299.742919 171.234266 
L 299.905327 171.597599 
L 300.067736 171.67599 
L 300.392553 172.311277 
L 300.554961 172.368403 
L 300.71737 172.73461 
L 300.879778 172.751966 
L 301.69182 174.288402 
L 301.854229 174.119092 
L 302.179046 174.89346 
L 302.341454 174.89346 
L 303.640722 176.85047 
L 303.803131 176.778976 
L 304.290356 177.985872 
L 304.452765 178.018975 
L 304.615173 178.457711 
L 304.777582 178.376217 
L 304.93999 178.755297 
L 305.102398 178.78932 
L 305.264807 179.181733 
L 305.427215 179.256216 
L 307.538526 182.335065 
L 307.700934 182.370582 
L 308.675385 183.779203 
L 308.837793 184.12357 
L 309.000202 184.047938 
L 309.16261 184.49357 
L 309.649836 184.927823 
L 309.812244 185.363455 
L 309.974653 185.266328 
L 310.137061 185.794029 
L 310.461878 186.064719 
L 310.624287 186.454489 
L 310.786695 186.466558 
L 311.436329 187.384258 
L 312.085963 188.033223 
L 312.248371 188.714143 
L 312.41078 188.846901 
L 312.573188 188.679315 
L 313.060414 189.47943 
L 313.222822 189.530004 
L 313.385231 189.783453 
L 313.547639 190.392992 
L 313.710048 190.327935 
L 314.359682 191.235636 
L 314.52209 191.323912 
L 315.009316 192.175176 
L 315.171724 191.983681 
L 315.496541 192.799888 
L 315.658949 192.598853 
L 315.983766 193.307474 
L 316.6334 193.836209 
L 316.958217 194.479197 
L 317.607851 195.203565 
L 317.77026 195.578622 
L 318.095077 195.791955 
L 318.257485 195.963909 
L 318.419894 196.333909 
L 318.907119 196.65138 
L 319.069527 196.763679 
L 319.231936 197.255978 
L 319.394344 197.255518 
L 319.556753 197.785288 
L 319.719161 197.671035 
L 319.88157 197.743909 
L 320.206387 198.632299 
L 320.368795 198.552299 
L 320.531204 198.622299 
L 320.856021 199.383793 
L 321.343246 199.627931 
L 321.505655 200.131838 
L 321.99288 200.276321 
L 322.155289 200.80885 
L 322.317697 200.747355 
L 322.967331 201.729999 
L 323.129739 201.68747 
L 323.292148 202.019769 
L 323.454556 202.052642 
L 323.616965 202.288044 
L 323.779373 202.75701 
L 324.10419 203.024596 
L 325.403458 204.399308 
L 325.565867 204.466779 
L 326.377909 205.459882 
L 328.001994 207.357927 
L 328.164402 207.337697 
L 328.976445 208.326777 
L 329.138853 208.342294 
L 329.46367 208.906662 
L 329.626078 208.956087 
L 330.113304 209.681029 
L 330.275712 209.696891 
L 330.600529 210.14011 
L 330.762938 210.155857 
L 331.087755 210.699075 
L 331.412572 210.965282 
L 332.062206 211.733902 
L 332.387023 211.873787 
L 332.549431 212.206545 
L 332.71184 212.19758 
L 333.036657 212.629189 
L 333.361473 212.911488 
L 333.68629 213.378844 
L 333.848699 213.388499 
L 334.173516 213.860453 
L 334.660741 214.341947 
L 335.147967 214.794015 
L 335.310375 215.180222 
L 335.960009 215.523095 
L 336.772051 216.557463 
L 337.096868 216.736543 
L 337.421685 217.266198 
L 337.584094 217.23183 
L 338.071319 217.824819 
L 338.233728 217.723439 
L 338.558545 218.183554 
L 339.370587 219.101714 
L 339.532996 219.071025 
L 339.857813 219.485392 
L 340.182629 219.624128 
L 340.507446 220.141944 
L 341.15708 220.587116 
L 341.644306 221.159185 
L 342.29394 221.815046 
L 342.456348 221.845736 
L 342.781165 222.226426 
L 343.755616 223.140563 
L 343.918024 223.163781 
L 344.080433 223.504356 
L 344.242841 223.48608 
L 344.40525 223.580448 
L 345.054884 224.324011 
L 345.542109 224.804815 
L 345.704518 224.689068 
L 346.029335 225.204125 
L 346.191743 225.423206 
L 346.51656 225.562746 
L 346.841377 225.807458 
L 347.003786 226.142631 
L 347.166194 226.10355 
L 347.978236 226.871481 
L 348.140645 226.904929 
L 348.303053 227.211711 
L 348.465462 227.216423 
L 348.790279 227.605159 
L 348.952687 227.57217 
L 349.277504 227.9524 
L 349.76473 228.416882 
L 350.73918 229.089871 
L 350.901589 229.449526 
L 351.226406 229.539526 
L 351.388814 229.861939 
L 351.713631 229.873089 
L 352.038448 230.265732 
L 352.200857 230.310675 
L 353.012899 231.197571 
L 353.500125 231.348145 
L 353.824942 231.869065 
L 353.98735 231.856881 
L 354.961801 232.716765 
L 355.124209 232.732513 
L 355.286618 232.935271 
L 355.449026 232.895846 
L 355.611435 233.134237 
L 355.773843 233.170328 
L 356.423477 233.930673 
L 356.585886 233.868719 
L 357.23552 234.484351 
L 357.397928 234.355845 
L 357.560337 234.724006 
L 357.885153 234.917914 
L 358.534787 235.338603 
L 358.859604 235.821592 
L 359.022013 235.778143 
L 360.321281 236.759867 
L 360.483689 237.036304 
L 360.970915 237.145154 
L 361.45814 237.725499 
L 361.620548 237.494579 
L 361.782957 237.915269 
L 361.945365 237.790441 
L 362.107774 238.259981 
L 362.270182 238.101476 
L 362.594999 238.650441 
L 362.919816 238.588372 
L 363.082225 238.682625 
L 363.244633 238.986992 
L 363.407042 238.988372 
L 363.731859 239.359406 
L 364.381493 239.646073 
L 364.543901 239.901475 
L 364.70631 239.874003 
L 365.355943 240.540555 
L 365.68076 240.545727 
L 366.167986 241.054693 
L 366.330394 240.984233 
L 366.492803 241.113313 
L 366.655211 241.407451 
L 366.980028 241.417681 
L 367.142437 241.668255 
L 367.304845 241.638026 
L 367.792071 242.065497 
L 367.954479 242.057221 
L 368.279296 242.302853 
L 369.091338 243.071128 
L 369.578564 243.175036 
L 370.065789 243.548829 
L 370.390606 243.898139 
L 370.553015 243.708599 
L 370.877832 244.231358 
L 371.04024 244.111243 
L 371.365057 244.441473 
L 371.689874 244.558484 
L 372.014691 244.938484 
L 372.177099 244.879863 
L 372.501916 245.173541 
L 372.826733 245.382392 
L 372.989142 245.417564 
L 373.313959 245.6763 
L 373.638776 245.892621 
L 373.963593 246.236414 
L 374.28841 246.180552 
L 374.450818 246.460782 
L 374.775635 246.558828 
L 374.938044 246.752621 
L 375.100452 246.708483 
L 375.425269 247.070782 
L 375.587677 247.07331 
L 375.750086 247.239632 
L 375.912494 247.176414 
L 376.562128 247.745149 
L 376.724537 247.656069 
L 377.049354 247.932505 
L 377.211762 247.859517 
L 377.536579 248.323999 
L 378.348622 248.689172 
L 378.51103 248.937447 
L 378.673439 248.900666 
L 378.835847 249.006413 
L 378.998255 249.340666 
L 379.160664 249.174574 
L 379.323072 249.243884 
L 379.647889 249.56193 
L 379.810298 249.415493 
L 379.972706 249.710436 
L 380.297523 249.797562 
L 380.947157 250.222159 
L 381.109566 250.132389 
L 381.434383 250.574228 
L 382.408834 251.08055 
L 382.73365 251.268941 
L 383.383284 251.543998 
L 383.545693 251.814572 
L 383.708101 251.776871 
L 384.032918 251.990779 
L 384.195327 252.003308 
L 384.682552 252.373883 
L 385.819412 252.931698 
L 385.98182 253.048595 
L 386.144228 253.025262 
L 386.306637 253.293882 
L 386.631454 253.370204 
L 386.793862 253.570549 
L 386.956271 253.495721 
L 389.22999 254.673767 
L 389.392398 254.920663 
L 389.554806 254.824456 
L 390.366849 255.292157 
L 390.529257 255.238364 
L 390.691666 255.474226 
L 391.178891 255.652502 
L 391.503708 255.877444 
L 391.666117 255.794341 
L 391.990934 256.1348 
L 392.153342 256.04549 
L 392.315751 256.305605 
L 392.640568 256.372042 
L 393.615018 256.832731 
L 393.939835 256.979283 
L 394.264652 257.187558 
L 394.589469 257.277903 
L 394.751878 257.505719 
L 394.914286 257.471236 
L 395.076695 257.611007 
L 395.239103 257.555374 
L 395.401512 257.757788 
L 395.56392 257.749627 
L 396.051146 258.017788 
L 396.375963 258.053305 
L 396.700779 258.375604 
L 397.025596 258.427443 
L 397.188005 258.348248 
L 397.350413 258.676293 
L 397.67523 258.784569 
L 397.837639 258.828477 
L 398.000047 258.989167 
L 398.162456 258.894109 
L 398.324864 259.130086 
L 398.487273 259.092845 
L 398.487273 259.092845 
" clip-path="url(#pd6147ab0bc)" style="fill: none; stroke: #ff0000; stroke-width: 1.5; stroke-linecap: square"/>
   </g>
   <g id="patch_3">
    <path d="M 57.6 307.584 
L 57.6 41.472 
" style="fill: none; stroke: #000000; stroke-width: 0.8; stroke-linejoin: miter; stroke-linecap: square"/>
   </g>
   <g id="patch_4">
    <path d="M 414.72 307.584 
L 414.72 41.472 
" style="fill: none; stroke: #000000; stroke-width: 0.8; stroke-linejoin: miter; stroke-linecap: square"/>
   </g>
   <g id="patch_5">
    <path d="M 57.6 307.584 
L 414.72 307.584 
" style="fill: none; stroke: #000000; stroke-width: 0.8; stroke-linejoin: miter; stroke-linecap: square"/>
   </g>
   <g id="patch_6">
    <path d="M 57.6 41.472 
L 414.72 41.472 
" style="fill: none; stroke: #000000; stroke-width: 0.8; stroke-linejoin: miter; stroke-linecap: square"/>
   </g>
   <g id="legend_1">
    <g id="patch_7">
     <path d="M 314.584 121.6832 
L 601.284 121.6832 
Q 603.284 121.6832 603.284 119.6832 
L 603.284 75.0832 
Q 603.284 73.0832 601.284 73.0832 
L 314.584 73.0832 
Q 312.584 73.0832 312.584 75.0832 
L 312.584 119.6832 
Q 312.584 121.6832 314.584 121.6832 
z
" style="fill: #ffffff; opacity: 0.8; stroke: #cccccc; stroke-linejoin: miter"/>
    </g>
    <g id="line2d_15">
     <path d="M 316.584 81.3832 
L 326.584 81.3832 
L 336.584 81.3832 
" style="fill: none; stroke: #8000ff; stroke-width: 1.5; stroke-linecap: square"/>
    </g>
    <g id="text_15">
     <!-- $\rho'$: 0.0008, E=0.8eV, s_tun=10000000000.0$s^-1$ -->
     <g transform="translate(344.584 84.8832) scale(0.1 -0.1)">
      <defs>
       <path id="DejaVuSans-Oblique-3c1" d="M 1203 2875 
Q 1453 3194 1981 3475 
Q 2188 3584 2756 3584 
Q 3394 3584 3694 3078 
Q 3994 2572 3834 1747 
Q 3672 922 3175 415 
Q 2678 -91 2041 -91 
Q 1656 -91 1409 63 
Q 1163 213 1044 525 
L 681 -1331 
L 103 -1331 
L 697 1716 
Q 838 2438 1203 2875 
z
M 3238 1747 
Q 3359 2381 3169 2744 
Q 2978 3103 2522 3103 
Q 2066 3103 1734 2744 
Q 1403 2381 1281 1747 
Q 1156 1113 1347 750 
Q 1538 391 1994 391 
Q 2450 391 2781 750 
Q 3113 1113 3238 1747 
z
" transform="scale(0.015625)"/>
       <path id="Cmsy10-30" d="M 225 347 
Q 184 359 184 409 
L 966 3316 
Q 1003 3434 1093 3506 
Q 1184 3578 1300 3578 
Q 1450 3578 1564 3479 
Q 1678 3381 1678 3231 
Q 1678 3166 1644 3084 
L 488 319 
Q 466 275 428 275 
Q 394 275 320 306 
Q 247 338 225 347 
z
" transform="scale(0.015625)"/>
       <path id="DejaVuSans-3a" d="M 750 794 
L 1409 794 
L 1409 0 
L 750 0 
L 750 794 
z
M 750 3309 
L 1409 3309 
L 1409 2516 
L 750 2516 
L 750 3309 
z
" transform="scale(0.015625)"/>
       <path id="DejaVuSans-2c" d="M 750 794 
L 1409 794 
L 1409 256 
L 897 -744 
L 494 -744 
L 750 256 
L 750 794 
z
" transform="scale(0.015625)"/>
       <path id="DejaVuSans-45" d="M 628 4666 
L 3578 4666 
L 3578 4134 
L 1259 4134 
L 1259 2753 
L 3481 2753 
L 3481 2222 
L 1259 2222 
L 1259 531 
L 3634 531 
L 3634 0 
L 628 0 
L 628 4666 
z
" transform="scale(0.015625)"/>
       <path id="DejaVuSans-3d" d="M 678 2906 
L 4684 2906 
L 4684 2381 
L 678 2381 
L 678 2906 
z
M 678 1631 
L 4684 1631 
L 4684 1100 
L 678 1100 
L 678 1631 
z
" transform="scale(0.015625)"/>
       <path id="DejaVuSans-56" d="M 1831 0 
L 50 4666 
L 709 4666 
L 2188 738 
L 3669 4666 
L 4325 4666 
L 2547 0 
L 1831 0 
z
" transform="scale(0.015625)"/>
       <path id="DejaVuSans-5f" d="M 3263 -1063 
L 3263 -1509 
L -63 -1509 
L -63 -1063 
L 3263 -1063 
z
" transform="scale(0.015625)"/>
       <path id="DejaVuSans-Oblique-73" d="M 3200 3397 
L 3091 2853 
Q 2863 2978 2609 3040 
Q 2356 3103 2088 3103 
Q 1634 3103 1373 2948 
Q 1113 2794 1113 2528 
Q 1113 2219 1719 2053 
Q 1766 2041 1788 2034 
L 1972 1978 
Q 2547 1819 2739 1644 
Q 2931 1469 2931 1166 
Q 2931 609 2489 259 
Q 2047 -91 1331 -91 
Q 1053 -91 747 -37 
Q 441 16 72 128 
L 184 722 
Q 500 559 806 475 
Q 1113 391 1394 391 
Q 1816 391 2080 572 
Q 2344 753 2344 1031 
Q 2344 1331 1650 1516 
L 1591 1531 
L 1394 1581 
Q 956 1697 753 1886 
Q 550 2075 550 2369 
Q 550 2928 970 3256 
Q 1391 3584 2113 3584 
Q 2397 3584 2667 3537 
Q 2938 3491 3200 3397 
z
" transform="scale(0.015625)"/>
      </defs>
      <use xlink:href="#DejaVuSans-Oblique-3c1" transform="translate(0 0.584375)"/>
      <use xlink:href="#Cmsy10-30" transform="translate(68.126458 38.865625) scale(0.7)"/>
      <use xlink:href="#DejaVuSans-3a" transform="translate(90.103997 0.584375)"/>
      <use xlink:href="#DejaVuSans-20" transform="translate(123.795404 0.584375)"/>
      <use xlink:href="#DejaVuSans-30" transform="translate(155.582513 0.584375)"/>
      <use xlink:href="#DejaVuSans-2e" transform="translate(219.20556 0.584375)"/>
      <use xlink:href="#DejaVuSans-30" transform="translate(250.992669 0.584375)"/>
      <use xlink:href="#DejaVuSans-30" transform="translate(314.615716 0.584375)"/>
      <use xlink:href="#DejaVuSans-30" transform="translate(378.238763 0.584375)"/>
      <use xlink:href="#DejaVuSans-38" transform="translate(441.86181 0.584375)"/>
      <use xlink:href="#DejaVuSans-2c" transform="translate(505.484857 0.584375)"/>
      <use xlink:href="#DejaVuSans-20" transform="translate(537.271966 0.584375)"/>
      <use xlink:href="#DejaVuSans-45" transform="translate(569.059076 0.584375)"/>
      <use xlink:href="#DejaVuSans-3d" transform="translate(632.242669 0.584375)"/>
      <use xlink:href="#DejaVuSans-30" transform="translate(716.031732 0.584375)"/>
      <use xlink:href="#DejaVuSans-2e" transform="translate(779.654779 0.584375)"/>
      <use xlink:href="#DejaVuSans-38" transform="translate(808.816888 0.584375)"/>
      <use xlink:href="#DejaVuSans-65" transform="translate(872.439935 0.584375)"/>
      <use xlink:href="#DejaVuSans-56" transform="translate(933.963372 0.584375)"/>
      <use xlink:href="#DejaVuSans-2c" transform="translate(1002.371576 0.584375)"/>
      <use xlink:href="#DejaVuSans-20" transform="translate(1034.158685 0.584375)"/>
      <use xlink:href="#DejaVuSans-73" transform="translate(1065.945794 0.584375)"/>
      <use xlink:href="#DejaVuSans-5f" transform="translate(1118.045404 0.584375)"/>
      <use xlink:href="#DejaVuSans-74" transform="translate(1168.045404 0.584375)"/>
      <use xlink:href="#DejaVuSans-75" transform="translate(1207.254388 0.584375)"/>
      <use xlink:href="#DejaVuSans-6e" transform="translate(1270.633294 0.584375)"/>
      <use xlink:href="#DejaVuSans-3d" transform="translate(1334.012201 0.584375)"/>
      <use xlink:href="#DejaVuSans-31" transform="translate(1417.801263 0.584375)"/>
      <use xlink:href="#DejaVuSans-30" transform="translate(1481.42431 0.584375)"/>
      <use xlink:href="#DejaVuSans-30" transform="translate(1545.047357 0.584375)"/>
      <use xlink:href="#DejaVuSans-30" transform="translate(1608.670404 0.584375)"/>
      <use xlink:href="#DejaVuSans-30" transform="translate(1672.293451 0.584375)"/>
      <use xlink:href="#DejaVuSans-30" transform="translate(1735.916497 0.584375)"/>
      <use xlink:href="#DejaVuSans-30" transform="translate(1799.539544 0.584375)"/>
      <use xlink:href="#DejaVuSans-30" transform="translate(1863.162591 0.584375)"/>
      <use xlink:href="#DejaVuSans-30" transform="translate(1926.785638 0.584375)"/>
      <use xlink:href="#DejaVuSans-30" transform="translate(1990.408685 0.584375)"/>
      <use xlink:href="#DejaVuSans-30" transform="translate(2054.031732 0.584375)"/>
      <use xlink:href="#DejaVuSans-2e" transform="translate(2117.654779 0.584375)"/>
      <use xlink:href="#DejaVuSans-30" transform="translate(2149.441888 0.584375)"/>
      <use xlink:href="#DejaVuSans-Oblique-73" transform="translate(2213.064935 0.584375)"/>
      <use xlink:href="#DejaVuSans-2212" transform="translate(2283.452135 38.865625) scale(0.7)"/>
      <use xlink:href="#DejaVuSans-31" transform="translate(2358.476549 0.584375)"/>
     </g>
    </g>
    <g id="line2d_16">
     <path d="M 316.584 96.5832 
L 326.584 96.5832 
L 336.584 96.5832 
" style="fill: none; stroke: #80ffb4; stroke-width: 1.5; stroke-linecap: square"/>
    </g>
    <g id="text_16">
     <!-- $\rho'$: 0.0003, E=0.8eV, s_tun=10000000000.0$s^-1$ -->
     <g transform="translate(344.584 100.0832) scale(0.1 -0.1)">
      <defs>
       <path id="DejaVuSans-33" d="M 2597 2516 
Q 3050 2419 3304 2112 
Q 3559 1806 3559 1356 
Q 3559 666 3084 287 
Q 2609 -91 1734 -91 
Q 1441 -91 1130 -33 
Q 819 25 488 141 
L 488 750 
Q 750 597 1062 519 
Q 1375 441 1716 441 
Q 2309 441 2620 675 
Q 2931 909 2931 1356 
Q 2931 1769 2642 2001 
Q 2353 2234 1838 2234 
L 1294 2234 
L 1294 2753 
L 1863 2753 
Q 2328 2753 2575 2939 
Q 2822 3125 2822 3475 
Q 2822 3834 2567 4026 
Q 2313 4219 1838 4219 
Q 1578 4219 1281 4162 
Q 984 4106 628 3988 
L 628 4550 
Q 988 4650 1302 4700 
Q 1616 4750 1894 4750 
Q 2613 4750 3031 4423 
Q 3450 4097 3450 3541 
Q 3450 3153 3228 2886 
Q 3006 2619 2597 2516 
z
" transform="scale(0.015625)"/>
      </defs>
      <use xlink:href="#DejaVuSans-Oblique-3c1" transform="translate(0 0.584375)"/>
      <use xlink:href="#Cmsy10-30" transform="translate(68.126458 38.865625) scale(0.7)"/>
      <use xlink:href="#DejaVuSans-3a" transform="translate(90.103997 0.584375)"/>
      <use xlink:href="#DejaVuSans-20" transform="translate(123.795404 0.584375)"/>
      <use xlink:href="#DejaVuSans-30" transform="translate(155.582513 0.584375)"/>
      <use xlink:href="#DejaVuSans-2e" transform="translate(219.20556 0.584375)"/>
      <use xlink:href="#DejaVuSans-30" transform="translate(250.992669 0.584375)"/>
      <use xlink:href="#DejaVuSans-30" transform="translate(314.615716 0.584375)"/>
      <use xlink:href="#DejaVuSans-30" transform="translate(378.238763 0.584375)"/>
      <use xlink:href="#DejaVuSans-33" transform="translate(441.86181 0.584375)"/>
      <use xlink:href="#DejaVuSans-2c" transform="translate(505.484857 0.584375)"/>
      <use xlink:href="#DejaVuSans-20" transform="translate(537.271966 0.584375)"/>
      <use xlink:href="#DejaVuSans-45" transform="translate(569.059076 0.584375)"/>
      <use xlink:href="#DejaVuSans-3d" transform="translate(632.242669 0.584375)"/>
      <use xlink:href="#DejaVuSans-30" transform="translate(716.031732 0.584375)"/>
      <use xlink:href="#DejaVuSans-2e" transform="translate(779.654779 0.584375)"/>
      <use xlink:href="#DejaVuSans-38" transform="translate(808.816888 0.584375)"/>
      <use xlink:href="#DejaVuSans-65" transform="translate(872.439935 0.584375)"/>
      <use xlink:href="#DejaVuSans-56" transform="translate(933.963372 0.584375)"/>
      <use xlink:href="#DejaVuSans-2c" transform="translate(1002.371576 0.584375)"/>
      <use xlink:href="#DejaVuSans-20" transform="translate(1034.158685 0.584375)"/>
      <use xlink:href="#DejaVuSans-73" transform="translate(1065.945794 0.584375)"/>
      <use xlink:href="#DejaVuSans-5f" transform="translate(1118.045404 0.584375)"/>
      <use xlink:href="#DejaVuSans-74" transform="translate(1168.045404 0.584375)"/>
      <use xlink:href="#DejaVuSans-75" transform="translate(1207.254388 0.584375)"/>
      <use xlink:href="#DejaVuSans-6e" transform="translate(1270.633294 0.584375)"/>
      <use xlink:href="#DejaVuSans-3d" transform="translate(1334.012201 0.584375)"/>
      <use xlink:href="#DejaVuSans-31" transform="translate(1417.801263 0.584375)"/>
      <use xlink:href="#DejaVuSans-30" transform="translate(1481.42431 0.584375)"/>
      <use xlink:href="#DejaVuSans-30" transform="translate(1545.047357 0.584375)"/>
      <use xlink:href="#DejaVuSans-30" transform="translate(1608.670404 0.584375)"/>
      <use xlink:href="#DejaVuSans-30" transform="translate(1672.293451 0.584375)"/>
      <use xlink:href="#DejaVuSans-30" transform="translate(1735.916497 0.584375)"/>
      <use xlink:href="#DejaVuSans-30" transform="translate(1799.539544 0.584375)"/>
      <use xlink:href="#DejaVuSans-30" transform="translate(1863.162591 0.584375)"/>
      <use xlink:href="#DejaVuSans-30" transform="translate(1926.785638 0.584375)"/>
      <use xlink:href="#DejaVuSans-30" transform="translate(1990.408685 0.584375)"/>
      <use xlink:href="#DejaVuSans-30" transform="translate(2054.031732 0.584375)"/>
      <use xlink:href="#DejaVuSans-2e" transform="translate(2117.654779 0.584375)"/>
      <use xlink:href="#DejaVuSans-30" transform="translate(2149.441888 0.584375)"/>
      <use xlink:href="#DejaVuSans-Oblique-73" transform="translate(2213.064935 0.584375)"/>
      <use xlink:href="#DejaVuSans-2212" transform="translate(2283.452135 38.865625) scale(0.7)"/>
      <use xlink:href="#DejaVuSans-31" transform="translate(2358.476549 0.584375)"/>
     </g>
    </g>
    <g id="line2d_17">
     <path d="M 316.584 111.7832 
L 326.584 111.7832 
L 336.584 111.7832 
" style="fill: none; stroke: #ff0000; stroke-width: 1.5; stroke-linecap: square"/>
    </g>
    <g id="text_17">
     <!-- $\rho'$: 0.0003, E=1.2eV, s_tun=1000000000000.0$s^-1$ -->
     <g transform="translate(344.584 115.2832) scale(0.1 -0.1)">
      <use xlink:href="#DejaVuSans-Oblique-3c1" transform="translate(0 0.584375)"/>
      <use xlink:href="#Cmsy10-30" transform="translate(68.126458 38.865625) scale(0.7)"/>
      <use xlink:href="#DejaVuSans-3a" transform="translate(90.103997 0.584375)"/>
      <use xlink:href="#DejaVuSans-20" transform="translate(123.795404 0.584375)"/>
      <use xlink:href="#DejaVuSans-30" transform="translate(155.582513 0.584375)"/>
      <use xlink:href="#DejaVuSans-2e" transform="translate(219.20556 0.584375)"/>
      <use xlink:href="#DejaVuSans-30" transform="translate(250.992669 0.584375)"/>
      <use xlink:href="#DejaVuSans-30" transform="translate(314.615716 0.584375)"/>
      <use xlink:href="#DejaVuSans-30" transform="translate(378.238763 0.584375)"/>
      <use xlink:href="#DejaVuSans-33" transform="translate(441.86181 0.584375)"/>
      <use xlink:href="#DejaVuSans-2c" transform="translate(505.484857 0.584375)"/>
      <use xlink:href="#DejaVuSans-20" transform="translate(537.271966 0.584375)"/>
      <use xlink:href="#DejaVuSans-45" transform="translate(569.059076 0.584375)"/>
      <use xlink:href="#DejaVuSans-3d" transform="translate(632.242669 0.584375)"/>
      <use xlink:href="#DejaVuSans-31" transform="translate(716.031732 0.584375)"/>
      <use xlink:href="#DejaVuSans-2e" transform="translate(779.654779 0.584375)"/>
      <use xlink:href="#DejaVuSans-32" transform="translate(805.941888 0.584375)"/>
      <use xlink:href="#DejaVuSans-65" transform="translate(869.564935 0.584375)"/>
      <use xlink:href="#DejaVuSans-56" transform="translate(931.088372 0.584375)"/>
      <use xlink:href="#DejaVuSans-2c" transform="translate(999.496576 0.584375)"/>
      <use xlink:href="#DejaVuSans-20" transform="translate(1031.283685 0.584375)"/>
      <use xlink:href="#DejaVuSans-73" transform="translate(1063.070794 0.584375)"/>
      <use xlink:href="#DejaVuSans-5f" transform="translate(1115.170404 0.584375)"/>
      <use xlink:href="#DejaVuSans-74" transform="translate(1165.170404 0.584375)"/>
      <use xlink:href="#DejaVuSans-75" transform="translate(1204.379388 0.584375)"/>
      <use xlink:href="#DejaVuSans-6e" transform="translate(1267.758294 0.584375)"/>
      <use xlink:href="#DejaVuSans-3d" transform="translate(1331.137201 0.584375)"/>
      <use xlink:href="#DejaVuSans-31" transform="translate(1414.926263 0.584375)"/>
      <use xlink:href="#DejaVuSans-30" transform="translate(1478.54931 0.584375)"/>
      <use xlink:href="#DejaVuSans-30" transform="translate(1542.172357 0.584375)"/>
      <use xlink:href="#DejaVuSans-30" transform="translate(1605.795404 0.584375)"/>
      <use xlink:href="#DejaVuSans-30" transform="translate(1669.418451 0.584375)"/>
      <use xlink:href="#DejaVuSans-30" transform="translate(1733.041497 0.584375)"/>
      <use xlink:href="#DejaVuSans-30" transform="translate(1796.664544 0.584375)"/>
      <use xlink:href="#DejaVuSans-30" transform="translate(1860.287591 0.584375)"/>
      <use xlink:href="#DejaVuSans-30" transform="translate(1923.910638 0.584375)"/>
      <use xlink:href="#DejaVuSans-30" transform="translate(1987.533685 0.584375)"/>
      <use xlink:href="#DejaVuSans-30" transform="translate(2051.156732 0.584375)"/>
      <use xlink:href="#DejaVuSans-30" transform="translate(2114.779779 0.584375)"/>
      <use xlink:href="#DejaVuSans-30" transform="translate(2178.402826 0.584375)"/>
      <use xlink:href="#DejaVuSans-2e" transform="translate(2242.025872 0.584375)"/>
      <use xlink:href="#DejaVuSans-30" transform="translate(2273.812982 0.584375)"/>
      <use xlink:href="#DejaVuSans-Oblique-73" transform="translate(2337.436029 0.584375)"/>
      <use xlink:href="#DejaVuSans-2212" transform="translate(2407.823229 38.865625) scale(0.7)"/>
      <use xlink:href="#DejaVuSans-31" transform="translate(2482.847643 0.584375)"/>
     </g>
    </g>
   </g>
  </g>
 </g>
 <defs>
  <clipPath id="pd6147ab0bc">
   <rect x="57.6" y="41.472" width="357.12" height="266.112"/>
  </clipPath>
 </defs>
</svg>
