<?xml version="1.0" encoding="utf-8" standalone="no"?>
<!DOCTYPE svg PUBLIC "-//W3C//DTD SVG 1.1//EN"
  "http://www.w3.org/Graphics/SVG/1.1/DTD/svg11.dtd">
<svg xmlns:xlink="http://www.w3.org/1999/xlink" width="460.8pt" height="345.6pt" viewBox="0 0 460.8 345.6" xmlns="http://www.w3.org/2000/svg" version="1.1">
 <metadata>
  <rdf:RDF xmlns:dc="http://purl.org/dc/elements/1.1/" xmlns:cc="http://creativecommons.org/ns#" xmlns:rdf="http://www.w3.org/1999/02/22-rdf-syntax-ns#">
   <cc:Work>
    <dc:type rdf:resource="http://purl.org/dc/dcmitype/StillImage"/>
    <dc:date>2025-03-25T11:21:57.217903</dc:date>
    <dc:format>image/svg+xml</dc:format>
    <dc:creator>
     <cc:Agent>
      <dc:title>Matplotlib v3.10.0, https://matplotlib.org/</dc:title>
     </cc:Agent>
    </dc:creator>
   </cc:Work>
  </rdf:RDF>
 </metadata>
 <defs>
  <style type="text/css">*{stroke-linejoin: round; stroke-linecap: butt}</style>
 </defs>
 <g id="figure_1">
  <g id="patch_1">
   <path d="M 0 345.6 
L 460.8 345.6 
L 460.8 0 
L 0 0 
z
" style="fill: #ffffff"/>
  </g>
  <g id="axes_1">
   <g id="patch_2">
    <path d="M 57.6 307.584 
L 414.72 307.584 
L 414.72 41.472 
L 57.6 41.472 
z
" style="fill: #ffffff"/>
   </g>
   <g id="matplotlib.axis_1">
    <g id="xtick_1">
     <g id="line2d_1">
      <defs>
       <path id="me74bdbfa8b" d="M 0 0 
L 0 3.5 
" style="stroke: #000000; stroke-width: 0.8"/>
      </defs>
      <g>
       <use xlink:href="#me74bdbfa8b" x="141.384339" y="307.584" style="stroke: #000000; stroke-width: 0.8"/>
      </g>
     </g>
     <g id="text_1">
      <!-- $\mathdefault{10^{12}}$ -->
      <g transform="translate(130.334339 322.182437) scale(0.1 -0.1)">
       <defs>
        <path id="DejaVuSans-31" d="M 794 531 
L 1825 531 
L 1825 4091 
L 703 3866 
L 703 4441 
L 1819 4666 
L 2450 4666 
L 2450 531 
L 3481 531 
L 3481 0 
L 794 0 
L 794 531 
z
" transform="scale(0.015625)"/>
        <path id="DejaVuSans-30" d="M 2034 4250 
Q 1547 4250 1301 3770 
Q 1056 3291 1056 2328 
Q 1056 1369 1301 889 
Q 1547 409 2034 409 
Q 2525 409 2770 889 
Q 3016 1369 3016 2328 
Q 3016 3291 2770 3770 
Q 2525 4250 2034 4250 
z
M 2034 4750 
Q 2819 4750 3233 4129 
Q 3647 3509 3647 2328 
Q 3647 1150 3233 529 
Q 2819 -91 2034 -91 
Q 1250 -91 836 529 
Q 422 1150 422 2328 
Q 422 3509 836 4129 
Q 1250 4750 2034 4750 
z
" transform="scale(0.015625)"/>
        <path id="DejaVuSans-32" d="M 1228 531 
L 3431 531 
L 3431 0 
L 469 0 
L 469 531 
Q 828 903 1448 1529 
Q 2069 2156 2228 2338 
Q 2531 2678 2651 2914 
Q 2772 3150 2772 3378 
Q 2772 3750 2511 3984 
Q 2250 4219 1831 4219 
Q 1534 4219 1204 4116 
Q 875 4013 500 3803 
L 500 4441 
Q 881 4594 1212 4672 
Q 1544 4750 1819 4750 
Q 2544 4750 2975 4387 
Q 3406 4025 3406 3419 
Q 3406 3131 3298 2873 
Q 3191 2616 2906 2266 
Q 2828 2175 2409 1742 
Q 1991 1309 1228 531 
z
" transform="scale(0.015625)"/>
       </defs>
       <use xlink:href="#DejaVuSans-31" transform="translate(0 0.765625)"/>
       <use xlink:href="#DejaVuSans-30" transform="translate(63.623047 0.765625)"/>
       <use xlink:href="#DejaVuSans-31" transform="translate(128.203125 39.046875) scale(0.7)"/>
       <use xlink:href="#DejaVuSans-32" transform="translate(172.739258 39.046875) scale(0.7)"/>
      </g>
     </g>
    </g>
    <g id="xtick_2">
     <g id="line2d_2">
      <g>
       <use xlink:href="#me74bdbfa8b" x="262.736678" y="307.584" style="stroke: #000000; stroke-width: 0.8"/>
      </g>
     </g>
     <g id="text_2">
      <!-- $\mathdefault{10^{13}}$ -->
      <g transform="translate(251.686678 322.182437) scale(0.1 -0.1)">
       <defs>
        <path id="DejaVuSans-33" d="M 2597 2516 
Q 3050 2419 3304 2112 
Q 3559 1806 3559 1356 
Q 3559 666 3084 287 
Q 2609 -91 1734 -91 
Q 1441 -91 1130 -33 
Q 819 25 488 141 
L 488 750 
Q 750 597 1062 519 
Q 1375 441 1716 441 
Q 2309 441 2620 675 
Q 2931 909 2931 1356 
Q 2931 1769 2642 2001 
Q 2353 2234 1838 2234 
L 1294 2234 
L 1294 2753 
L 1863 2753 
Q 2328 2753 2575 2939 
Q 2822 3125 2822 3475 
Q 2822 3834 2567 4026 
Q 2313 4219 1838 4219 
Q 1578 4219 1281 4162 
Q 984 4106 628 3988 
L 628 4550 
Q 988 4650 1302 4700 
Q 1616 4750 1894 4750 
Q 2613 4750 3031 4423 
Q 3450 4097 3450 3541 
Q 3450 3153 3228 2886 
Q 3006 2619 2597 2516 
z
" transform="scale(0.015625)"/>
       </defs>
       <use xlink:href="#DejaVuSans-31" transform="translate(0 0.765625)"/>
       <use xlink:href="#DejaVuSans-30" transform="translate(63.623047 0.765625)"/>
       <use xlink:href="#DejaVuSans-31" transform="translate(128.203125 39.046875) scale(0.7)"/>
       <use xlink:href="#DejaVuSans-33" transform="translate(172.739258 39.046875) scale(0.7)"/>
      </g>
     </g>
    </g>
    <g id="xtick_3">
     <g id="line2d_3">
      <g>
       <use xlink:href="#me74bdbfa8b" x="384.089017" y="307.584" style="stroke: #000000; stroke-width: 0.8"/>
      </g>
     </g>
     <g id="text_3">
      <!-- $\mathdefault{10^{14}}$ -->
      <g transform="translate(373.039017 322.182437) scale(0.1 -0.1)">
       <defs>
        <path id="DejaVuSans-34" d="M 2419 4116 
L 825 1625 
L 2419 1625 
L 2419 4116 
z
M 2253 4666 
L 3047 4666 
L 3047 1625 
L 3713 1625 
L 3713 1100 
L 3047 1100 
L 3047 0 
L 2419 0 
L 2419 1100 
L 313 1100 
L 313 1709 
L 2253 4666 
z
" transform="scale(0.015625)"/>
       </defs>
       <use xlink:href="#DejaVuSans-31" transform="translate(0 0.684375)"/>
       <use xlink:href="#DejaVuSans-30" transform="translate(63.623047 0.684375)"/>
       <use xlink:href="#DejaVuSans-31" transform="translate(128.203125 38.965625) scale(0.7)"/>
       <use xlink:href="#DejaVuSans-34" transform="translate(172.739258 38.965625) scale(0.7)"/>
      </g>
     </g>
    </g>
    <g id="xtick_4">
     <g id="line2d_4">
      <defs>
       <path id="ma701d04d01" d="M 0 0 
L 0 2 
" style="stroke: #000000; stroke-width: 0.6"/>
      </defs>
      <g>
       <use xlink:href="#ma701d04d01" x="77.931781" y="307.584" style="stroke: #000000; stroke-width: 0.6"/>
      </g>
     </g>
    </g>
    <g id="xtick_5">
     <g id="line2d_5">
      <g>
       <use xlink:href="#ma701d04d01" x="93.093389" y="307.584" style="stroke: #000000; stroke-width: 0.6"/>
      </g>
     </g>
    </g>
    <g id="xtick_6">
     <g id="line2d_6">
      <g>
       <use xlink:href="#ma701d04d01" x="104.853645" y="307.584" style="stroke: #000000; stroke-width: 0.6"/>
      </g>
     </g>
    </g>
    <g id="xtick_7">
     <g id="line2d_7">
      <g>
       <use xlink:href="#ma701d04d01" x="114.462475" y="307.584" style="stroke: #000000; stroke-width: 0.6"/>
      </g>
     </g>
    </g>
    <g id="xtick_8">
     <g id="line2d_8">
      <g>
       <use xlink:href="#ma701d04d01" x="122.586624" y="307.584" style="stroke: #000000; stroke-width: 0.6"/>
      </g>
     </g>
    </g>
    <g id="xtick_9">
     <g id="line2d_9">
      <g>
       <use xlink:href="#ma701d04d01" x="129.624083" y="307.584" style="stroke: #000000; stroke-width: 0.6"/>
      </g>
     </g>
    </g>
    <g id="xtick_10">
     <g id="line2d_10">
      <g>
       <use xlink:href="#ma701d04d01" x="135.831561" y="307.584" style="stroke: #000000; stroke-width: 0.6"/>
      </g>
     </g>
    </g>
    <g id="xtick_11">
     <g id="line2d_11">
      <g>
       <use xlink:href="#ma701d04d01" x="177.915033" y="307.584" style="stroke: #000000; stroke-width: 0.6"/>
      </g>
     </g>
    </g>
    <g id="xtick_12">
     <g id="line2d_12">
      <g>
       <use xlink:href="#ma701d04d01" x="199.28412" y="307.584" style="stroke: #000000; stroke-width: 0.6"/>
      </g>
     </g>
    </g>
    <g id="xtick_13">
     <g id="line2d_13">
      <g>
       <use xlink:href="#ma701d04d01" x="214.445728" y="307.584" style="stroke: #000000; stroke-width: 0.6"/>
      </g>
     </g>
    </g>
    <g id="xtick_14">
     <g id="line2d_14">
      <g>
       <use xlink:href="#ma701d04d01" x="226.205984" y="307.584" style="stroke: #000000; stroke-width: 0.6"/>
      </g>
     </g>
    </g>
    <g id="xtick_15">
     <g id="line2d_15">
      <g>
       <use xlink:href="#ma701d04d01" x="235.814814" y="307.584" style="stroke: #000000; stroke-width: 0.6"/>
      </g>
     </g>
    </g>
    <g id="xtick_16">
     <g id="line2d_16">
      <g>
       <use xlink:href="#ma701d04d01" x="243.938963" y="307.584" style="stroke: #000000; stroke-width: 0.6"/>
      </g>
     </g>
    </g>
    <g id="xtick_17">
     <g id="line2d_17">
      <g>
       <use xlink:href="#ma701d04d01" x="250.976422" y="307.584" style="stroke: #000000; stroke-width: 0.6"/>
      </g>
     </g>
    </g>
    <g id="xtick_18">
     <g id="line2d_18">
      <g>
       <use xlink:href="#ma701d04d01" x="257.1839" y="307.584" style="stroke: #000000; stroke-width: 0.6"/>
      </g>
     </g>
    </g>
    <g id="xtick_19">
     <g id="line2d_19">
      <g>
       <use xlink:href="#ma701d04d01" x="299.267372" y="307.584" style="stroke: #000000; stroke-width: 0.6"/>
      </g>
     </g>
    </g>
    <g id="xtick_20">
     <g id="line2d_20">
      <g>
       <use xlink:href="#ma701d04d01" x="320.636459" y="307.584" style="stroke: #000000; stroke-width: 0.6"/>
      </g>
     </g>
    </g>
    <g id="xtick_21">
     <g id="line2d_21">
      <g>
       <use xlink:href="#ma701d04d01" x="335.798067" y="307.584" style="stroke: #000000; stroke-width: 0.6"/>
      </g>
     </g>
    </g>
    <g id="xtick_22">
     <g id="line2d_22">
      <g>
       <use xlink:href="#ma701d04d01" x="347.558323" y="307.584" style="stroke: #000000; stroke-width: 0.6"/>
      </g>
     </g>
    </g>
    <g id="xtick_23">
     <g id="line2d_23">
      <g>
       <use xlink:href="#ma701d04d01" x="357.167153" y="307.584" style="stroke: #000000; stroke-width: 0.6"/>
      </g>
     </g>
    </g>
    <g id="xtick_24">
     <g id="line2d_24">
      <g>
       <use xlink:href="#ma701d04d01" x="365.291302" y="307.584" style="stroke: #000000; stroke-width: 0.6"/>
      </g>
     </g>
    </g>
    <g id="xtick_25">
     <g id="line2d_25">
      <g>
       <use xlink:href="#ma701d04d01" x="372.328761" y="307.584" style="stroke: #000000; stroke-width: 0.6"/>
      </g>
     </g>
    </g>
    <g id="xtick_26">
     <g id="line2d_26">
      <g>
       <use xlink:href="#ma701d04d01" x="378.536239" y="307.584" style="stroke: #000000; stroke-width: 0.6"/>
      </g>
     </g>
    </g>
    <g id="text_4">
     <!-- Log time  -->
     <g transform="translate(212.75375 335.860562) scale(0.1 -0.1)">
      <defs>
       <path id="DejaVuSans-4c" d="M 628 4666 
L 1259 4666 
L 1259 531 
L 3531 531 
L 3531 0 
L 628 0 
L 628 4666 
z
" transform="scale(0.015625)"/>
       <path id="DejaVuSans-6f" d="M 1959 3097 
Q 1497 3097 1228 2736 
Q 959 2375 959 1747 
Q 959 1119 1226 758 
Q 1494 397 1959 397 
Q 2419 397 2687 759 
Q 2956 1122 2956 1747 
Q 2956 2369 2687 2733 
Q 2419 3097 1959 3097 
z
M 1959 3584 
Q 2709 3584 3137 3096 
Q 3566 2609 3566 1747 
Q 3566 888 3137 398 
Q 2709 -91 1959 -91 
Q 1206 -91 779 398 
Q 353 888 353 1747 
Q 353 2609 779 3096 
Q 1206 3584 1959 3584 
z
" transform="scale(0.015625)"/>
       <path id="DejaVuSans-67" d="M 2906 1791 
Q 2906 2416 2648 2759 
Q 2391 3103 1925 3103 
Q 1463 3103 1205 2759 
Q 947 2416 947 1791 
Q 947 1169 1205 825 
Q 1463 481 1925 481 
Q 2391 481 2648 825 
Q 2906 1169 2906 1791 
z
M 3481 434 
Q 3481 -459 3084 -895 
Q 2688 -1331 1869 -1331 
Q 1566 -1331 1297 -1286 
Q 1028 -1241 775 -1147 
L 775 -588 
Q 1028 -725 1275 -790 
Q 1522 -856 1778 -856 
Q 2344 -856 2625 -561 
Q 2906 -266 2906 331 
L 2906 616 
Q 2728 306 2450 153 
Q 2172 0 1784 0 
Q 1141 0 747 490 
Q 353 981 353 1791 
Q 353 2603 747 3093 
Q 1141 3584 1784 3584 
Q 2172 3584 2450 3431 
Q 2728 3278 2906 2969 
L 2906 3500 
L 3481 3500 
L 3481 434 
z
" transform="scale(0.015625)"/>
       <path id="DejaVuSans-20" transform="scale(0.015625)"/>
       <path id="DejaVuSans-74" d="M 1172 4494 
L 1172 3500 
L 2356 3500 
L 2356 3053 
L 1172 3053 
L 1172 1153 
Q 1172 725 1289 603 
Q 1406 481 1766 481 
L 2356 481 
L 2356 0 
L 1766 0 
Q 1100 0 847 248 
Q 594 497 594 1153 
L 594 3053 
L 172 3053 
L 172 3500 
L 594 3500 
L 594 4494 
L 1172 4494 
z
" transform="scale(0.015625)"/>
       <path id="DejaVuSans-69" d="M 603 3500 
L 1178 3500 
L 1178 0 
L 603 0 
L 603 3500 
z
M 603 4863 
L 1178 4863 
L 1178 4134 
L 603 4134 
L 603 4863 
z
" transform="scale(0.015625)"/>
       <path id="DejaVuSans-6d" d="M 3328 2828 
Q 3544 3216 3844 3400 
Q 4144 3584 4550 3584 
Q 5097 3584 5394 3201 
Q 5691 2819 5691 2113 
L 5691 0 
L 5113 0 
L 5113 2094 
Q 5113 2597 4934 2840 
Q 4756 3084 4391 3084 
Q 3944 3084 3684 2787 
Q 3425 2491 3425 1978 
L 3425 0 
L 2847 0 
L 2847 2094 
Q 2847 2600 2669 2842 
Q 2491 3084 2119 3084 
Q 1678 3084 1418 2786 
Q 1159 2488 1159 1978 
L 1159 0 
L 581 0 
L 581 3500 
L 1159 3500 
L 1159 2956 
Q 1356 3278 1631 3431 
Q 1906 3584 2284 3584 
Q 2666 3584 2933 3390 
Q 3200 3197 3328 2828 
z
" transform="scale(0.015625)"/>
       <path id="DejaVuSans-65" d="M 3597 1894 
L 3597 1613 
L 953 1613 
Q 991 1019 1311 708 
Q 1631 397 2203 397 
Q 2534 397 2845 478 
Q 3156 559 3463 722 
L 3463 178 
Q 3153 47 2828 -22 
Q 2503 -91 2169 -91 
Q 1331 -91 842 396 
Q 353 884 353 1716 
Q 353 2575 817 3079 
Q 1281 3584 2069 3584 
Q 2775 3584 3186 3129 
Q 3597 2675 3597 1894 
z
M 3022 2063 
Q 3016 2534 2758 2815 
Q 2500 3097 2075 3097 
Q 1594 3097 1305 2825 
Q 1016 2553 972 2059 
L 3022 2063 
z
" transform="scale(0.015625)"/>
      </defs>
      <use xlink:href="#DejaVuSans-4c"/>
      <use xlink:href="#DejaVuSans-6f" transform="translate(53.962891 0)"/>
      <use xlink:href="#DejaVuSans-67" transform="translate(115.144531 0)"/>
      <use xlink:href="#DejaVuSans-20" transform="translate(178.621094 0)"/>
      <use xlink:href="#DejaVuSans-74" transform="translate(210.408203 0)"/>
      <use xlink:href="#DejaVuSans-69" transform="translate(249.617188 0)"/>
      <use xlink:href="#DejaVuSans-6d" transform="translate(277.400391 0)"/>
      <use xlink:href="#DejaVuSans-65" transform="translate(374.8125 0)"/>
      <use xlink:href="#DejaVuSans-20" transform="translate(436.335938 0)"/>
     </g>
    </g>
   </g>
   <g id="matplotlib.axis_2">
    <g id="ytick_1">
     <g id="line2d_27">
      <defs>
       <path id="m64ced64b3d" d="M 0 0 
L -3.5 0 
" style="stroke: #000000; stroke-width: 0.8"/>
      </defs>
      <g>
       <use xlink:href="#m64ced64b3d" x="57.6" y="307.584" style="stroke: #000000; stroke-width: 0.8"/>
      </g>
     </g>
     <g id="text_5">
      <!-- 0.0 -->
      <g transform="translate(34.696875 311.383219) scale(0.1 -0.1)">
       <defs>
        <path id="DejaVuSans-2e" d="M 684 794 
L 1344 794 
L 1344 0 
L 684 0 
L 684 794 
z
" transform="scale(0.015625)"/>
       </defs>
       <use xlink:href="#DejaVuSans-30"/>
       <use xlink:href="#DejaVuSans-2e" transform="translate(63.623047 0)"/>
       <use xlink:href="#DejaVuSans-30" transform="translate(95.410156 0)"/>
      </g>
     </g>
    </g>
    <g id="ytick_2">
     <g id="line2d_28">
      <g>
       <use xlink:href="#m64ced64b3d" x="57.6" y="254.3616" style="stroke: #000000; stroke-width: 0.8"/>
      </g>
     </g>
     <g id="text_6">
      <!-- 0.2 -->
      <g transform="translate(34.696875 258.160819) scale(0.1 -0.1)">
       <use xlink:href="#DejaVuSans-30"/>
       <use xlink:href="#DejaVuSans-2e" transform="translate(63.623047 0)"/>
       <use xlink:href="#DejaVuSans-32" transform="translate(95.410156 0)"/>
      </g>
     </g>
    </g>
    <g id="ytick_3">
     <g id="line2d_29">
      <g>
       <use xlink:href="#m64ced64b3d" x="57.6" y="201.1392" style="stroke: #000000; stroke-width: 0.8"/>
      </g>
     </g>
     <g id="text_7">
      <!-- 0.4 -->
      <g transform="translate(34.696875 204.938419) scale(0.1 -0.1)">
       <use xlink:href="#DejaVuSans-30"/>
       <use xlink:href="#DejaVuSans-2e" transform="translate(63.623047 0)"/>
       <use xlink:href="#DejaVuSans-34" transform="translate(95.410156 0)"/>
      </g>
     </g>
    </g>
    <g id="ytick_4">
     <g id="line2d_30">
      <g>
       <use xlink:href="#m64ced64b3d" x="57.6" y="147.9168" style="stroke: #000000; stroke-width: 0.8"/>
      </g>
     </g>
     <g id="text_8">
      <!-- 0.6 -->
      <g transform="translate(34.696875 151.716019) scale(0.1 -0.1)">
       <defs>
        <path id="DejaVuSans-36" d="M 2113 2584 
Q 1688 2584 1439 2293 
Q 1191 2003 1191 1497 
Q 1191 994 1439 701 
Q 1688 409 2113 409 
Q 2538 409 2786 701 
Q 3034 994 3034 1497 
Q 3034 2003 2786 2293 
Q 2538 2584 2113 2584 
z
M 3366 4563 
L 3366 3988 
Q 3128 4100 2886 4159 
Q 2644 4219 2406 4219 
Q 1781 4219 1451 3797 
Q 1122 3375 1075 2522 
Q 1259 2794 1537 2939 
Q 1816 3084 2150 3084 
Q 2853 3084 3261 2657 
Q 3669 2231 3669 1497 
Q 3669 778 3244 343 
Q 2819 -91 2113 -91 
Q 1303 -91 875 529 
Q 447 1150 447 2328 
Q 447 3434 972 4092 
Q 1497 4750 2381 4750 
Q 2619 4750 2861 4703 
Q 3103 4656 3366 4563 
z
" transform="scale(0.015625)"/>
       </defs>
       <use xlink:href="#DejaVuSans-30"/>
       <use xlink:href="#DejaVuSans-2e" transform="translate(63.623047 0)"/>
       <use xlink:href="#DejaVuSans-36" transform="translate(95.410156 0)"/>
      </g>
     </g>
    </g>
    <g id="ytick_5">
     <g id="line2d_31">
      <g>
       <use xlink:href="#m64ced64b3d" x="57.6" y="94.6944" style="stroke: #000000; stroke-width: 0.8"/>
      </g>
     </g>
     <g id="text_9">
      <!-- 0.8 -->
      <g transform="translate(34.696875 98.493619) scale(0.1 -0.1)">
       <defs>
        <path id="DejaVuSans-38" d="M 2034 2216 
Q 1584 2216 1326 1975 
Q 1069 1734 1069 1313 
Q 1069 891 1326 650 
Q 1584 409 2034 409 
Q 2484 409 2743 651 
Q 3003 894 3003 1313 
Q 3003 1734 2745 1975 
Q 2488 2216 2034 2216 
z
M 1403 2484 
Q 997 2584 770 2862 
Q 544 3141 544 3541 
Q 544 4100 942 4425 
Q 1341 4750 2034 4750 
Q 2731 4750 3128 4425 
Q 3525 4100 3525 3541 
Q 3525 3141 3298 2862 
Q 3072 2584 2669 2484 
Q 3125 2378 3379 2068 
Q 3634 1759 3634 1313 
Q 3634 634 3220 271 
Q 2806 -91 2034 -91 
Q 1263 -91 848 271 
Q 434 634 434 1313 
Q 434 1759 690 2068 
Q 947 2378 1403 2484 
z
M 1172 3481 
Q 1172 3119 1398 2916 
Q 1625 2713 2034 2713 
Q 2441 2713 2670 2916 
Q 2900 3119 2900 3481 
Q 2900 3844 2670 4047 
Q 2441 4250 2034 4250 
Q 1625 4250 1398 4047 
Q 1172 3844 1172 3481 
z
" transform="scale(0.015625)"/>
       </defs>
       <use xlink:href="#DejaVuSans-30"/>
       <use xlink:href="#DejaVuSans-2e" transform="translate(63.623047 0)"/>
       <use xlink:href="#DejaVuSans-38" transform="translate(95.410156 0)"/>
      </g>
     </g>
    </g>
    <g id="ytick_6">
     <g id="line2d_32">
      <g>
       <use xlink:href="#m64ced64b3d" x="57.6" y="41.472" style="stroke: #000000; stroke-width: 0.8"/>
      </g>
     </g>
     <g id="text_10">
      <!-- 1.0 -->
      <g transform="translate(34.696875 45.271219) scale(0.1 -0.1)">
       <use xlink:href="#DejaVuSans-31"/>
       <use xlink:href="#DejaVuSans-2e" transform="translate(63.623047 0)"/>
       <use xlink:href="#DejaVuSans-30" transform="translate(95.410156 0)"/>
      </g>
     </g>
    </g>
    <g id="text_11">
     <!-- Percent of filled traps -->
     <g transform="translate(28.617187 227.95925) rotate(-90) scale(0.1 -0.1)">
      <defs>
       <path id="DejaVuSans-50" d="M 1259 4147 
L 1259 2394 
L 2053 2394 
Q 2494 2394 2734 2622 
Q 2975 2850 2975 3272 
Q 2975 3691 2734 3919 
Q 2494 4147 2053 4147 
L 1259 4147 
z
M 628 4666 
L 2053 4666 
Q 2838 4666 3239 4311 
Q 3641 3956 3641 3272 
Q 3641 2581 3239 2228 
Q 2838 1875 2053 1875 
L 1259 1875 
L 1259 0 
L 628 0 
L 628 4666 
z
" transform="scale(0.015625)"/>
       <path id="DejaVuSans-72" d="M 2631 2963 
Q 2534 3019 2420 3045 
Q 2306 3072 2169 3072 
Q 1681 3072 1420 2755 
Q 1159 2438 1159 1844 
L 1159 0 
L 581 0 
L 581 3500 
L 1159 3500 
L 1159 2956 
Q 1341 3275 1631 3429 
Q 1922 3584 2338 3584 
Q 2397 3584 2469 3576 
Q 2541 3569 2628 3553 
L 2631 2963 
z
" transform="scale(0.015625)"/>
       <path id="DejaVuSans-63" d="M 3122 3366 
L 3122 2828 
Q 2878 2963 2633 3030 
Q 2388 3097 2138 3097 
Q 1578 3097 1268 2742 
Q 959 2388 959 1747 
Q 959 1106 1268 751 
Q 1578 397 2138 397 
Q 2388 397 2633 464 
Q 2878 531 3122 666 
L 3122 134 
Q 2881 22 2623 -34 
Q 2366 -91 2075 -91 
Q 1284 -91 818 406 
Q 353 903 353 1747 
Q 353 2603 823 3093 
Q 1294 3584 2113 3584 
Q 2378 3584 2631 3529 
Q 2884 3475 3122 3366 
z
" transform="scale(0.015625)"/>
       <path id="DejaVuSans-6e" d="M 3513 2113 
L 3513 0 
L 2938 0 
L 2938 2094 
Q 2938 2591 2744 2837 
Q 2550 3084 2163 3084 
Q 1697 3084 1428 2787 
Q 1159 2491 1159 1978 
L 1159 0 
L 581 0 
L 581 3500 
L 1159 3500 
L 1159 2956 
Q 1366 3272 1645 3428 
Q 1925 3584 2291 3584 
Q 2894 3584 3203 3211 
Q 3513 2838 3513 2113 
z
" transform="scale(0.015625)"/>
       <path id="DejaVuSans-66" d="M 2375 4863 
L 2375 4384 
L 1825 4384 
Q 1516 4384 1395 4259 
Q 1275 4134 1275 3809 
L 1275 3500 
L 2222 3500 
L 2222 3053 
L 1275 3053 
L 1275 0 
L 697 0 
L 697 3053 
L 147 3053 
L 147 3500 
L 697 3500 
L 697 3744 
Q 697 4328 969 4595 
Q 1241 4863 1831 4863 
L 2375 4863 
z
" transform="scale(0.015625)"/>
       <path id="DejaVuSans-6c" d="M 603 4863 
L 1178 4863 
L 1178 0 
L 603 0 
L 603 4863 
z
" transform="scale(0.015625)"/>
       <path id="DejaVuSans-64" d="M 2906 2969 
L 2906 4863 
L 3481 4863 
L 3481 0 
L 2906 0 
L 2906 525 
Q 2725 213 2448 61 
Q 2172 -91 1784 -91 
Q 1150 -91 751 415 
Q 353 922 353 1747 
Q 353 2572 751 3078 
Q 1150 3584 1784 3584 
Q 2172 3584 2448 3432 
Q 2725 3281 2906 2969 
z
M 947 1747 
Q 947 1113 1208 752 
Q 1469 391 1925 391 
Q 2381 391 2643 752 
Q 2906 1113 2906 1747 
Q 2906 2381 2643 2742 
Q 2381 3103 1925 3103 
Q 1469 3103 1208 2742 
Q 947 2381 947 1747 
z
" transform="scale(0.015625)"/>
       <path id="DejaVuSans-61" d="M 2194 1759 
Q 1497 1759 1228 1600 
Q 959 1441 959 1056 
Q 959 750 1161 570 
Q 1363 391 1709 391 
Q 2188 391 2477 730 
Q 2766 1069 2766 1631 
L 2766 1759 
L 2194 1759 
z
M 3341 1997 
L 3341 0 
L 2766 0 
L 2766 531 
Q 2569 213 2275 61 
Q 1981 -91 1556 -91 
Q 1019 -91 701 211 
Q 384 513 384 1019 
Q 384 1609 779 1909 
Q 1175 2209 1959 2209 
L 2766 2209 
L 2766 2266 
Q 2766 2663 2505 2880 
Q 2244 3097 1772 3097 
Q 1472 3097 1187 3025 
Q 903 2953 641 2809 
L 641 3341 
Q 956 3463 1253 3523 
Q 1550 3584 1831 3584 
Q 2591 3584 2966 3190 
Q 3341 2797 3341 1997 
z
" transform="scale(0.015625)"/>
       <path id="DejaVuSans-70" d="M 1159 525 
L 1159 -1331 
L 581 -1331 
L 581 3500 
L 1159 3500 
L 1159 2969 
Q 1341 3281 1617 3432 
Q 1894 3584 2278 3584 
Q 2916 3584 3314 3078 
Q 3713 2572 3713 1747 
Q 3713 922 3314 415 
Q 2916 -91 2278 -91 
Q 1894 -91 1617 61 
Q 1341 213 1159 525 
z
M 3116 1747 
Q 3116 2381 2855 2742 
Q 2594 3103 2138 3103 
Q 1681 3103 1420 2742 
Q 1159 2381 1159 1747 
Q 1159 1113 1420 752 
Q 1681 391 2138 391 
Q 2594 391 2855 752 
Q 3116 1113 3116 1747 
z
" transform="scale(0.015625)"/>
       <path id="DejaVuSans-73" d="M 2834 3397 
L 2834 2853 
Q 2591 2978 2328 3040 
Q 2066 3103 1784 3103 
Q 1356 3103 1142 2972 
Q 928 2841 928 2578 
Q 928 2378 1081 2264 
Q 1234 2150 1697 2047 
L 1894 2003 
Q 2506 1872 2764 1633 
Q 3022 1394 3022 966 
Q 3022 478 2636 193 
Q 2250 -91 1575 -91 
Q 1294 -91 989 -36 
Q 684 19 347 128 
L 347 722 
Q 666 556 975 473 
Q 1284 391 1588 391 
Q 1994 391 2212 530 
Q 2431 669 2431 922 
Q 2431 1156 2273 1281 
Q 2116 1406 1581 1522 
L 1381 1569 
Q 847 1681 609 1914 
Q 372 2147 372 2553 
Q 372 3047 722 3315 
Q 1072 3584 1716 3584 
Q 2034 3584 2315 3537 
Q 2597 3491 2834 3397 
z
" transform="scale(0.015625)"/>
      </defs>
      <use xlink:href="#DejaVuSans-50"/>
      <use xlink:href="#DejaVuSans-65" transform="translate(56.677734 0)"/>
      <use xlink:href="#DejaVuSans-72" transform="translate(118.201172 0)"/>
      <use xlink:href="#DejaVuSans-63" transform="translate(157.064453 0)"/>
      <use xlink:href="#DejaVuSans-65" transform="translate(212.044922 0)"/>
      <use xlink:href="#DejaVuSans-6e" transform="translate(273.568359 0)"/>
      <use xlink:href="#DejaVuSans-74" transform="translate(336.947266 0)"/>
      <use xlink:href="#DejaVuSans-20" transform="translate(376.15625 0)"/>
      <use xlink:href="#DejaVuSans-6f" transform="translate(407.943359 0)"/>
      <use xlink:href="#DejaVuSans-66" transform="translate(469.125 0)"/>
      <use xlink:href="#DejaVuSans-20" transform="translate(504.330078 0)"/>
      <use xlink:href="#DejaVuSans-66" transform="translate(536.117188 0)"/>
      <use xlink:href="#DejaVuSans-69" transform="translate(571.322266 0)"/>
      <use xlink:href="#DejaVuSans-6c" transform="translate(599.105469 0)"/>
      <use xlink:href="#DejaVuSans-6c" transform="translate(626.888672 0)"/>
      <use xlink:href="#DejaVuSans-65" transform="translate(654.671875 0)"/>
      <use xlink:href="#DejaVuSans-64" transform="translate(716.195312 0)"/>
      <use xlink:href="#DejaVuSans-20" transform="translate(779.671875 0)"/>
      <use xlink:href="#DejaVuSans-74" transform="translate(811.458984 0)"/>
      <use xlink:href="#DejaVuSans-72" transform="translate(850.667969 0)"/>
      <use xlink:href="#DejaVuSans-61" transform="translate(891.78125 0)"/>
      <use xlink:href="#DejaVuSans-70" transform="translate(953.060547 0)"/>
      <use xlink:href="#DejaVuSans-73" transform="translate(1016.537109 0)"/>
     </g>
    </g>
   </g>
   <g id="line2d_33">
    <path d="M 90.919923 299.217439 
L 90.919923 298.898104 
L 91.765913 298.238147 
L 94.294538 297.897523 
L 94.413535 297.216276 
L 96.623142 296.875653 
L 96.623142 296.53503 
L 98.179725 296.194406 
L 98.775679 295.875072 
L 98.775679 295.555738 
L 102.333943 294.533868 
L 107.264442 294.171955 
L 107.264442 293.831332 
L 111.324325 293.490708 
L 111.324325 293.150085 
L 112.464735 292.788173 
L 115.253404 292.42626 
L 115.537419 292.085637 
L 116.785367 291.40439 
L 119.959639 291.063767 
L 120.188716 290.744433 
L 124.14058 290.403809 
L 124.782236 290.084475 
L 128.527965 289.76514 
L 128.920348 289.445806 
L 130.267594 289.147761 
L 132.863747 288.849715 
L 132.903218 288.232335 
L 133.499148 287.913001 
L 133.499148 287.593667 
L 133.853457 287.274332 
L 136.400336 286.944353 
L 137.188624 286.60373 
L 137.638738 286.263107 
L 139.540002 285.922483 
L 139.540002 285.58186 
L 140.493143 285.241236 
L 141.093329 284.879324 
L 142.346281 284.538701 
L 142.771302 284.198077 
L 142.771302 283.857454 
L 143.097187 283.53812 
L 143.902179 283.218785 
L 145.311184 282.899451 
L 145.311184 282.601405 
L 146.629648 282.30336 
L 146.629648 282.026604 
L 147.432226 281.749847 
L 147.824761 281.473091 
L 147.824761 281.196334 
L 148.96513 280.919578 
L 149.464157 280.642821 
L 150.377689 280.366065 
L 153.409842 279.812552 
L 153.409842 279.535795 
L 154.347053 279.259039 
L 154.479874 278.982282 
L 158.801529 278.492636 
L 158.801529 278.237169 
L 159.160721 277.726234 
L 159.163945 277.236588 
L 159.453355 276.98112 
L 159.453355 276.746941 
L 159.624942 276.278584 
L 159.624942 276.023117 
L 159.740875 275.767649 
L 159.740875 275.490893 
L 160.558823 275.235425 
L 160.676451 274.979958 
L 161.899695 274.72449 
L 162.438356 274.469023 
L 163.951015 273.979377 
L 164.251683 273.755843 
L 164.26496 273.308774 
L 164.557567 273.08524 
L 165.475976 272.882995 
L 165.475976 272.478505 
L 166.363233 272.254971 
L 166.72888 272.031437 
L 167.901779 271.829192 
L 168.042082 271.605658 
L 168.042082 271.382124 
L 169.479086 271.169234 
L 169.479086 270.935055 
L 171.374836 270.487987 
L 172.434518 270.01963 
L 174.532112 269.764163 
L 174.532112 269.508695 
L 174.995531 269.274516 
L 174.995531 269.061627 
L 176.652127 268.848737 
L 177.241265 268.465536 
L 177.241265 268.273935 
L 177.426373 268.061046 
L 177.5373 267.518177 
L 177.739457 267.326577 
L 179.142243 266.922086 
L 179.586181 266.719841 
L 179.586181 266.538885 
L 180.56145 266.368573 
L 181.070033 266.006661 
L 181.588993 265.602171 
L 181.588993 265.399926 
L 182.674816 265.208325 
L 182.87429 265.016724 
L 182.906541 264.825124 
L 183.48792 264.612234 
L 183.48792 264.165166 
L 184.149696 263.930988 
L 184.258056 263.441341 
L 184.554354 263.175229 
L 184.568206 262.621716 
L 187.562855 261.716936 
L 187.822956 261.1102 
L 188.527137 260.822799 
L 188.527137 260.514109 
L 190.746874 259.662551 
L 192.12977 259.385795 
L 192.480994 259.130327 
L 192.491755 258.853571 
L 193.594324 258.342636 
L 194.664581 257.256899 
L 194.791675 256.980142 
L 195.407949 256.40534 
L 195.577118 255.873116 
L 195.992144 255.585715 
L 196.854846 255.308959 
L 198.15503 255.032202 
L 198.529519 254.755446 
L 200.479876 254.180644 
L 202.623579 253.584553 
L 202.700575 252.041103 
L 203.967709 251.743058 
L 203.985788 251.136323 
L 204.393319 250.838277 
L 204.398007 250.550876 
L 204.768287 249.976074 
L 204.783123 248.911626 
L 205.49024 248.443269 
L 205.594593 248.01749 
L 205.698741 247.8046 
L 210.035488 246.452751 
L 210.041351 246.026972 
L 210.488382 245.377659 
L 210.644734 245.164769 
L 211.60295 244.73899 
L 211.875069 243.270052 
L 212.065602 242.854917 
L 212.845165 242.652672 
L 212.845165 242.450427 
L 213.187683 242.248182 
L 213.187683 242.067226 
L 213.361905 241.886269 
L 213.361905 241.715958 
L 215.459665 241.034711 
L 215.459665 240.853755 
L 215.586447 240.672799 
L 216.241323 240.481198 
L 216.569489 240.087352 
L 216.748536 238.873882 
L 217.979389 238.650348 
L 218.029948 237.915878 
L 218.30696 237.458166 
L 218.339498 236.96852 
L 218.58415 236.713052 
L 218.619667 235.94665 
L 218.865592 235.701827 
L 220.109292 235.21218 
L 220.153204 234.956713 
L 221.143468 234.435133 
L 221.293072 234.19031 
L 221.331195 233.700664 
L 221.888666 233.211018 
L 222.541169 232.231726 
L 223.224924 230.326364 
L 223.53318 230.10283 
L 223.53318 229.88994 
L 224.168334 229.677051 
L 224.576691 229.123538 
L 224.674655 228.963871 
L 224.937346 228.804204 
L 225.002881 228.495514 
L 225.27075 228.112312 
L 226.579947 227.612022 
L 226.700268 227.494932 
L 227.56812 227.250109 
L 227.56812 227.13302 
L 228.01097 226.920131 
L 228.054782 226.707241 
L 228.782388 226.377262 
L 228.842339 226.01535 
L 229.783779 225.664082 
L 229.860339 225.419259 
L 229.989402 224.748657 
L 231.434174 224.461256 
L 231.434174 224.322877 
L 231.841435 224.184499 
L 231.841435 224.024832 
L 232.144053 223.865165 
L 232.227207 223.503252 
L 232.393869 223.332941 
L 232.444716 222.822006 
L 233.045578 222.108826 
L 233.522167 221.917225 
L 233.62009 220.905999 
L 233.841624 220.331197 
L 235.388885 219.649951 
L 235.657457 218.798392 
L 236.165798 218.606792 
L 236.165798 218.43648 
L 236.90526 217.808456 
L 237.742614 215.786004 
L 238.09125 214.817357 
L 238.392984 214.668334 
L 238.392984 214.508667 
L 238.562334 214.338355 
L 238.562334 214.178688 
L 238.822109 214.029665 
L 238.953696 213.603886 
L 239.590044 213.241974 
L 239.593482 213.103596 
L 239.903704 212.975862 
L 239.903704 212.837484 
L 240.539435 212.59266 
L 240.678567 212.315904 
L 241.511188 212.017859 
L 241.579496 211.698524 
L 241.65002 211.538857 
L 242.127668 211.113078 
L 242.310258 209.888963 
L 242.454327 209.558984 
L 242.915086 209.441894 
L 242.938947 208.867092 
L 244.000347 208.217779 
L 244.000347 208.090045 
L 244.255741 207.951667 
L 244.374518 207.07882 
L 244.798649 206.323062 
L 245.370181 205.897283 
L 245.49001 205.460859 
L 245.5266 205.205391 
L 246.356333 204.939279 
L 246.690952 204.396411 
L 247.013299 204.140943 
L 247.085307 203.576786 
L 247.271722 203.321318 
L 247.709455 202.810383 
L 247.808111 202.320737 
L 247.867957 202.107848 
L 248.122238 201.894958 
L 248.431 201.415956 
L 249.633079 200.92631 
L 249.897377 200.61762 
L 250.135686 200.394086 
L 250.135686 200.33022 
L 250.714304 200.149263 
L 250.746582 199.947018 
L 250.935121 199.819284 
L 250.941756 199.648973 
L 251.297175 199.489306 
L 251.466696 199.212549 
L 251.94128 198.776125 
L 252.007634 198.499369 
L 253.82048 198.031012 
L 253.82048 197.903278 
L 254.122672 197.775544 
L 254.4165 197.019786 
L 254.964199 196.423695 
L 255.836295 195.944694 
L 255.971732 195.093135 
L 256.111629 194.752512 
L 256.397162 193.06004 
L 256.663588 192.868439 
L 256.953036 191.878502 
L 256.970575 191.101455 
L 257.123969 190.909855 
L 257.443761 190.718254 
L 257.727772 189.834762 
L 258.075902 189.398339 
L 258.075902 189.25996 
L 258.737545 189.132227 
L 258.896434 188.493558 
L 259.041943 187.556844 
L 259.041943 187.365243 
L 259.380419 187.035264 
L 259.646987 186.71593 
L 259.646987 186.556262 
L 261.04874 186.077261 
L 261.10652 185.587615 
L 261.653913 184.906368 
L 261.746147 184.608323 
L 261.869239 184.001587 
L 261.919023 183.565164 
L 262.228634 183.405496 
L 262.294121 182.947784 
L 262.640793 182.649738 
L 262.748452 182.223959 
L 262.834214 181.925914 
L 262.917089 181.595935 
L 262.997014 181.255311 
L 263.181728 181.106289 
L 263.181728 180.935977 
L 263.547453 180.616643 
L 265.095448 180.084419 
L 266.599268 179.573484 
L 267.000328 178.92417 
L 267.380632 178.626125 
L 267.386485 178.530324 
L 267.733839 178.264212 
L 267.911184 177.9981 
L 268.316927 177.338143 
L 268.83047 176.593029 
L 269.269599 175.773404 
L 269.536922 175.528581 
L 270.597337 174.698312 
L 270.684598 174.304466 
L 270.819278 174.059643 
L 271.087011 173.50613 
L 271.200761 173.059062 
L 271.453514 172.782305 
L 271.505351 172.505549 
L 271.977624 171.941391 
L 273.60688 170.727921 
L 273.696175 170.206341 
L 273.954744 169.408005 
L 274.461818 166.991708 
L 275.100961 166.374328 
L 275.187122 165.437614 
L 275.525861 164.28801 
L 276.047136 164.021898 
L 276.100055 163.212918 
L 276.394952 162.86165 
L 276.503015 162.627471 
L 276.768125 162.361359 
L 276.998756 162.127181 
L 277.325957 161.296911 
L 277.412961 160.10473 
L 277.734417 159.67895 
L 278.060707 159.221238 
L 278.060707 159.136082 
L 278.454539 158.859325 
L 278.47516 158.444191 
L 279.001951 158.220657 
L 279.094818 157.954545 
L 279.651094 157.613921 
L 279.952886 157.273298 
L 281.303295 156.549473 
L 281.414843 156.262072 
L 281.529389 155.846938 
L 281.679277 155.123113 
L 282.093978 154.888934 
L 282.340746 154.707978 
L 282.3476 154.452511 
L 282.628013 154.186399 
L 282.761824 152.791972 
L 282.761824 152.706816 
L 282.932723 152.547149 
L 283.042314 151.525279 
L 283.342305 151.227233 
L 283.770689 150.844032 
L 283.96267 150.514053 
L 284.094824 150.184074 
L 284.423443 149.843451 
L 284.514068 149.513472 
L 284.611592 148.608691 
L 284.954862 147.959378 
L 285.461327 147.310065 
L 285.499764 146.852352 
L 286.681702 146.128527 
L 286.811061 145.947571 
L 287.130544 145.66017 
L 287.401429 145.415347 
L 287.897122 145.202458 
L 288.455183 144.829901 
L 288.764626 144.531855 
L 288.920153 143.744164 
L 289.255577 142.99905 
L 289.42045 142.605204 
L 289.888122 141.78558 
L 289.96379 141.157555 
L 290.34767 139.763128 
L 290.413348 139.113815 
L 290.62776 138.315479 
L 290.817556 138.038723 
L 290.959662 137.772611 
L 291.244472 135.366958 
L 291.4243 134.898601 
L 291.506126 134.174776 
L 292.330026 133.834153 
L 292.408912 133.674486 
L 292.687793 133.49353 
L 292.848243 133.344507 
L 293.104339 132.822927 
L 293.498417 132.56746 
L 294.305994 132.375859 
L 294.396018 132.067169 
L 294.566817 131.85428 
L 294.924181 131.481723 
L 295.222476 131.002721 
L 295.841053 129.863762 
L 296.050532 129.171871 
L 296.706138 128.426757 
L 296.767784 127.798733 
L 296.893733 127.053619 
L 297.042752 126.681062 
L 297.223679 125.882726 
L 297.408617 125.659192 
L 297.829615 125.222769 
L 297.9863 124.999235 
L 299.283601 123.65803 
L 299.304626 123.402563 
L 301.4872 120.879821 
L 301.660855 120.262441 
L 301.774609 119.708928 
L 301.921344 118.95317 
L 302.039992 118.538035 
L 302.28237 118.23999 
L 302.811026 117.782277 
L 303.023847 117.10103 
L 304.51193 115.919493 
L 304.741187 115.557581 
L 305.259978 114.993423 
L 305.35629 114.855045 
L 305.931711 114.588933 
L 306.869559 114.173798 
L 306.941072 114.003487 
L 307.027399 113.652219 
L 307.420002 113.247729 
L 307.554016 112.215214 
L 307.631018 111.89588 
L 308.231191 111.565901 
L 308.882669 110.905943 
L 308.974964 110.724987 
L 309.256171 110.724987 
L 310.157193 110.426941 
L 310.394474 110.033096 
L 310.624276 109.42636 
L 311.132874 108.659958 
L 311.723381 107.755177 
L 311.891247 106.829107 
L 312.048754 106.541706 
L 312.243673 106.222372 
L 312.408935 105.275013 
L 312.542642 104.796012 
L 313.260805 103.359007 
L 313.457187 103.241917 
L 313.636118 102.06038 
L 313.8186 101.336556 
L 313.889903 100.985288 
L 314.263453 100.740465 
L 314.513937 100.474353 
L 315.327018 98.920259 
L 315.868733 97.068119 
L 315.996217 96.73814 
L 316.341302 95.854648 
L 317.358325 93.757686 
L 317.52311 93.544796 
L 318.12407 91.543634 
L 318.430635 91.10721 
L 319.017939 90.500475 
L 319.441653 90.138563 
L 319.675888 89.904384 
L 319.866906 89.744717 
L 320.128065 89.521183 
L 320.175263 89.329582 
L 320.351174 88.946381 
L 320.578483 88.669624 
L 320.680961 88.456735 
L 320.841091 87.999022 
L 320.961448 87.477443 
L 321.149532 86.434284 
L 321.331685 86.040438 
L 321.466468 85.68917 
L 321.615106 85.550792 
L 322.802815 83.762519 
L 322.817777 83.794452 
L 322.996071 84.060564 
L 323.000192 84.04992 
L 323.381783 83.347384 
L 325.92425 82.368092 
L 326.043552 81.718779 
L 326.291874 81.516534 
L 326.439323 80.98431 
L 326.584951 80.292419 
L 326.774583 79.760195 
L 326.899847 78.983148 
L 327.187649 78.046433 
L 327.438538 77.61001 
L 327.560593 77.418409 
L 328.354363 77.248097 
L 330.027862 77.152297 
L 330.166201 76.556206 
L 330.420107 75.459825 
L 330.655195 75.065979 
L 330.805931 74.842445 
L 331.50627 73.863153 
L 332.058913 70.414341 
L 332.181942 70.052429 
L 332.30722 69.72245 
L 332.829359 68.70058 
L 335.107964 67.721288 
L 335.486007 66.976174 
L 335.718042 66.358794 
L 336.165341 65.666903 
L 336.357358 65.390147 
L 336.489065 65.241124 
L 336.667619 64.549233 
L 336.830567 64.368276 
L 338.181784 63.953142 
L 338.5741 62.782249 
L 338.912335 62.590648 
L 340.196696 62.484204 
L 340.247685 62.367114 
L 340.350956 62.207447 
L 340.636728 62.101002 
L 341.076178 61.920046 
L 341.856283 61.813601 
L 341.973765 61.600712 
L 342.191669 60.940754 
L 342.220445 60.898176 
L 342.299334 60.919465 
L 342.456759 60.81302 
L 342.569539 60.419174 
L 342.83653 59.322793 
L 343.552879 59.099259 
L 343.693568 58.960881 
L 343.889737 58.396723 
L 344.707783 57.417431 
L 344.860903 57.257764 
L 345.010711 57.098097 
L 345.279268 57.119386 
L 345.730545 57.13003 
L 346.329683 56.768118 
L 346.744492 56.267827 
L 347.720932 55.863337 
L 348.198499 55.448202 
L 348.314801 55.384335 
L 348.876665 55.065001 
L 349.339293 54.660511 
L 349.756393 53.457684 
L 350.434414 53.35124 
L 350.861384 53.372529 
L 351.143542 53.532196 
L 351.79855 53.713152 
L 352.238429 53.606707 
L 352.52023 53.361884 
L 352.601427 53.021261 
L 352.831974 52.318725 
L 353.192105 51.797146 
L 353.963086 51.243633 
L 354.168887 51.041388 
L 354.168887 51.041388 
L 354.814325 50.934943 
L 355.446038 50.413363 
L 355.844422 49.849206 
L 356.034981 49.561805 
L 356.532503 48.923136 
L 358.087233 48.816691 
L 358.327211 48.518646 
L 358.429458 48.1248 
L 359.295241 47.858688 
L 359.817788 47.965133 
L 360.428113 48.209956 
L 361.617679 48.316401 
L 361.904487 48.390912 
L 362.479045 48.497357 
L 362.77571 48.827336 
L 363.047239 48.891203 
L 363.89442 48.390912 
L 364.585189 48.284467 
L 365.360016 47.848044 
L 366.977403 47.741599 
L 368.421376 47.326464 
L 371.057629 47.220019 
L 371.228251 46.879396 
L 371.377776 46.102349 
L 371.675457 45.719148 
L 371.828634 44.899523 
L 372.414357 44.665344 
L 373.11212 44.558899 
L 373.431095 44.239565 
L 373.535893 43.058028 
L 373.648868 43.600896 
L 373.715131 43.494451 
L 373.845933 43.292206 
L 374.906571 43.068672 
L 376.997431 42.962227 
L 377.57731 42.653537 
L 377.929402 42.004224 
L 378.051089 41.897779 
L 378.295999 41.578445 
L 378.583057 41.472 
L 398.273545 41.472 
L 398.487273 174.528 
L -1 174.545277 
L -1 174.545277 
" clip-path="url(#p90f612b938)" style="fill: none; stroke-dasharray: 1.85,0.8; stroke-dashoffset: 0; stroke: #8000ff; stroke-width: 0.5"/>
   </g>
   <g id="line2d_34">
    <path d="M 73.832727 302.71415 
L 76.530585 302.543839 
L 98.771062 302.032904 
L 101.513653 301.873236 
L 101.513653 301.713569 
L 102.256272 301.553902 
L 103.796262 301.394235 
L 103.909208 301.245212 
L 104.786357 300.947167 
L 104.786357 300.798144 
L 105.16596 300.638477 
L 105.842102 300.47881 
L 108.060862 300.329787 
L 112.417655 300.180764 
L 112.417655 300.021097 
L 113.02669 299.872074 
L 118.649227 299.574029 
L 118.706409 299.275983 
L 120.235036 299.126961 
L 120.498427 298.977938 
L 121.725006 298.828915 
L 121.725006 298.679892 
L 123.174994 298.53087 
L 123.296201 298.392492 
L 125.172035 298.254113 
L 125.184268 297.988001 
L 125.716391 297.849623 
L 126.97067 297.711245 
L 126.991383 297.445133 
L 129.68416 297.317399 
L 129.705902 297.179021 
L 133.207732 296.907587 
L 133.207732 296.774531 
L 136.380418 296.497774 
L 136.380418 296.354074 
L 138.541933 296.221018 
L 138.541933 296.087962 
L 139.283258 295.566382 
L 139.936593 295.310915 
L 139.990634 295.066092 
L 140.417649 294.949002 
L 140.417649 294.821268 
L 143.511079 294.315656 
L 143.511079 294.1826 
L 145.750818 293.671665 
L 147.464657 293.16073 
L 147.464657 293.027674 
L 148.893041 292.883973 
L 148.893041 292.750917 
L 152.167184 292.463516 
L 153.196696 292.176115 
L 153.196696 292.032415 
L 153.85097 291.888714 
L 153.85097 291.739692 
L 154.237646 291.590669 
L 155.664855 291.431002 
L 156.306288 290.973289 
L 157.039506 290.834911 
L 164.142674 290.403809 
L 164.148249 290.121731 
L 164.337629 289.855619 
L 166.416519 289.733207 
L 166.456604 289.610796 
L 169.896501 288.759237 
L 171.406293 288.525059 
L 172.509567 288.173791 
L 173.250213 288.062024 
L 173.250213 287.944934 
L 174.707303 287.827845 
L 174.707303 287.710756 
L 176.094045 287.231754 
L 176.094045 287.10402 
L 176.770931 286.976287 
L 176.770931 286.837908 
L 177.413182 286.561152 
L 177.413182 286.433418 
L 177.725134 286.305684 
L 177.725134 286.177951 
L 180.043193 285.933128 
L 180.043193 285.810716 
L 181.146215 285.688305 
L 181.146215 285.565893 
L 183.268618 285.443482 
L 183.613501 285.06028 
L 184.503742 284.932547 
L 184.71141 284.65579 
L 185.04969 284.506767 
L 185.859384 284.363067 
L 186.123879 284.075666 
L 186.501646 283.931965 
L 186.554807 283.788265 
L 187.680964 283.341197 
L 187.960207 283.186852 
L 187.960207 283.021862 
L 188.718913 282.856873 
L 188.718913 282.681239 
L 189.341261 282.143693 
L 189.45642 281.765814 
L 189.569894 281.574213 
L 191.266801 280.988767 
L 191.321247 280.791844 
L 191.609478 280.594921 
L 192.271605 280.40332 
L 192.315683 280.025441 
L 194.93374 279.487895 
L 194.93374 279.312261 
L 195.087802 279.136627 
L 195.825808 278.641659 
L 195.919769 278.322324 
L 196.461859 278.157335 
L 196.474891 277.987023 
L 197.018322 277.827356 
L 197.205119 276.810808 
L 197.825537 276.544696 
L 200.783922 276.156173 
L 201.39333 275.788938 
L 201.396613 275.666527 
L 201.880897 275.288648 
L 201.880897 275.160914 
L 202.851044 274.713846 
L 202.916417 274.522245 
L 202.999429 274.256133 
L 203.022471 274.165655 
L 203.457464 273.96341 
L 203.592333 273.862287 
L 204.393792 273.665364 
L 204.483414 273.39393 
L 204.648776 273.20233 
L 204.648776 273.117174 
L 206.537715 272.882995 
L 206.697017 272.27626 
L 206.971605 272.06337 
L 207.264624 271.829192 
L 207.366244 271.712102 
L 208.190243 271.467279 
L 208.482682 271.243745 
L 208.850218 270.764744 
L 209.278881 270.509276 
L 209.278881 270.23252 
L 209.725486 269.977052 
L 210.00536 269.742874 
L 211.445533 269.386284 
L 211.517278 269.120172 
L 212.062743 268.843415 
L 212.89013 268.242002 
L 212.959563 268.130235 
L 213.992656 267.805578 
L 214.620918 267.582044 
L 214.790542 267.480922 
L 215.411295 267.26271 
L 215.411295 267.150943 
L 215.768614 266.927409 
L 215.927749 266.698552 
L 216.034988 266.581463 
L 217.110676 266.134395 
L 217.147358 266.033272 
L 217.455925 265.852316 
L 218.254722 265.405248 
L 218.289449 265.107203 
L 218.836341 264.904957 
L 219.04615 264.537723 
L 219.231942 264.4366 
L 219.841683 264.234355 
L 219.903682 264.12791 
L 220.282259 263.915021 
L 220.482564 263.616975 
L 220.482564 263.526497 
L 222.173724 262.520594 
L 223.464964 262.227871 
L 223.555322 261.796769 
L 223.917107 261.551946 
L 223.917107 261.461468 
L 224.659753 261.269868 
L 224.659753 261.1581 
L 224.915197 260.923922 
L 224.915197 260.684421 
L 225.139657 260.460887 
L 225.938401 259.63594 
L 225.952774 259.412406 
L 226.254779 259.178227 
L 226.563069 258.848248 
L 227.156424 258.40118 
L 227.183205 258.182968 
L 227.93664 257.94879 
L 228.884179 257.714611 
L 228.924193 257.469788 
L 229.55181 257.091909 
L 229.835764 256.426629 
L 230.089403 256.171162 
L 230.17334 255.931661 
L 230.174297 255.814572 
L 230.801239 255.388792 
L 231.24773 255.101391 
L 231.917736 254.611745 
L 231.917736 254.521267 
L 232.256685 254.340311 
L 232.313138 254.159355 
L 233.022066 253.973076 
L 233.333104 253.802765 
L 233.333104 253.722931 
L 233.882001 253.462141 
L 234.010512 253.307796 
L 234.161855 252.791539 
L 234.312948 252.594616 
L 234.368082 252.445594 
L 235.185163 252.243348 
L 235.537924 251.498235 
L 236.43424 250.955366 
L 237.329745 250.763766 
L 237.388119 250.481687 
L 237.918181 250.119775 
L 238.024578 249.768507 
L 239.055394 249.411917 
L 239.060658 249.246927 
L 239.472106 248.986138 
L 239.805213 248.640192 
L 240.206437 248.459236 
L 240.412755 247.905723 
L 240.416347 247.820567 
L 242.11166 247.458655 
L 242.11166 247.368177 
L 242.286919 247.18722 
L 242.353359 247.096742 
L 242.864888 246.910464 
L 242.887357 246.729508 
L 243.256477 246.484685 
L 243.32975 246.325018 
L 243.422423 246.175995 
L 243.617094 245.505393 
L 243.942878 245.122191 
L 244.088417 244.579323 
L 244.126618 244.233377 
L 244.899482 243.674542 
L 245.025235 243.440364 
L 245.050298 243.227474 
L 245.255574 243.014584 
L 245.54508 242.439782 
L 246.160392 242.104481 
L 246.160392 242.024648 
L 246.458585 241.86498 
L 246.568971 241.513713 
L 247.258774 241.173089 
L 247.258774 241.098578 
L 247.622432 240.901655 
L 247.654287 240.715377 
L 247.864448 240.523776 
L 248.260493 239.86914 
L 249.087332 239.544484 
L 249.125903 239.171927 
L 249.784707 239.01226 
L 249.784707 238.927104 
L 250.345613 238.453425 
L 250.452457 238.261824 
L 250.889147 237.649766 
L 251.929079 236.244695 
L 252.035223 235.872138 
L 252.230167 235.552804 
L 252.751302 235.318625 
L 252.766753 235.127025 
L 253.596063 234.956713 
L 253.602704 234.850268 
L 254.85223 234.483034 
L 255.757939 233.977421 
L 255.983173 233.817754 
L 256.209969 233.397297 
L 256.245591 233.349396 
L 256.602895 233.195052 
L 257.113664 232.678794 
L 257.230978 232.242371 
L 257.55164 231.853847 
L 258.132831 231.300334 
L 258.281594 230.949066 
L 258.728165 229.980419 
L 259.05733 229.708984 
L 259.104837 229.570606 
L 259.620813 228.98516 
L 259.796705 228.564703 
L 259.925199 228.160212 
L 260.222654 227.878134 
L 260.222654 227.739756 
L 260.440312 227.6067 
L 260.508664 227.335265 
L 260.699798 226.82433 
L 260.786652 226.46774 
L 260.908106 226.031316 
L 260.973648 225.584248 
L 261.215832 225.073313 
L 261.742345 224.764623 
L 261.846436 224.551734 
L 261.933988 224.338844 
L 262.291687 223.950321 
L 262.437782 223.364874 
L 262.665477 223.082796 
L 262.846611 222.614438 
L 262.979479 222.465416 
L 263.057034 222.327037 
L 263.436887 221.895936 
L 263.527403 221.656435 
L 263.789298 221.35839 
L 263.818007 221.315812 
L 264.247103 221.182756 
L 264.352348 220.927288 
L 264.544092 220.671821 
L 264.625994 220.522798 
L 264.723399 220.235397 
L 264.920959 220.112986 
L 265.068434 219.985252 
L 265.98392 219.703173 
L 266.633767 219.431739 
L 266.638475 219.383839 
L 267.035755 219.186916 
L 267.386313 218.34068 
L 267.842068 217.664755 
L 267.878807 217.526377 
L 268.124598 217.393321 
L 268.153457 217.24962 
L 268.785296 216.823841 
L 268.838815 216.632241 
L 269.202836 216.334195 
L 269.552818 215.770038 
L 269.666632 214.945091 
L 270.042481 214.700268 
L 270.415139 214.210621 
L 270.515388 213.99241 
L 270.566217 213.673075 
L 270.921371 213.380352 
L 271.227157 213.108918 
L 271.557771 212.66185 
L 271.725142 211.858191 
L 272.553089 211.405801 
L 272.610829 211.139689 
L 272.663537 210.964055 
L 272.802237 210.799066 
L 272.802237 210.719232 
L 273.396907 210.367964 
L 273.657466 210.032663 
L 274.692973 209.425928 
L 274.951032 209.037404 
L 275.068708 208.643558 
L 275.277105 208.345513 
L 275.418695 207.525888 
L 275.656966 207.286387 
L 275.991619 206.807386 
L 276.09929 206.583852 
L 276.497169 206.237906 
L 276.771634 205.817449 
L 277.279074 205.546015 
L 277.338342 205.088302 
L 277.738069 204.635912 
L 277.891419 204.497533 
L 278.123738 204.007887 
L 278.485326 203.832253 
L 278.6343 203.486308 
L 279.590543 202.37396 
L 280.450508 202.091881 
L 280.544056 201.969469 
L 281.412132 201.421279 
L 281.815896 201.288223 
L 281.889238 201.155167 
L 282.407111 200.814543 
L 282.505863 200.532465 
L 283.063098 200.122652 
L 283.153203 199.978952 
L 283.936414 198.957082 
L 284.298196 198.765481 
L 284.780326 198.345024 
L 285.088879 198.164068 
L 285.560654 197.887311 
L 285.859783 197.706355 
L 285.978555 197.514755 
L 286.16468 196.929308 
L 286.557361 195.96066 
L 286.718869 195.731804 
L 287.267775 194.864279 
L 287.833355 194.401244 
L 287.970894 194.214966 
L 288.146744 193.970143 
L 288.207148 193.36873 
L 288.507979 193.081329 
L 288.626265 192.682161 
L 290.128738 192.341537 
L 290.424811 191.894469 
L 290.629922 191.591101 
L 290.695315 191.532557 
L 291.503341 191.314345 
L 291.602637 190.973722 
L 292.159547 190.861955 
L 293.36348 190.606487 
L 293.491981 190.516009 
L 293.64408 190.324408 
L 293.689074 190.223286 
L 293.8913 190.068941 
L 293.956692 189.930563 
L 294.03502 189.696384 
L 294.052572 189.37705 
L 294.960893 188.919337 
L 294.977161 188.754348 
L 295.312388 188.477591 
L 295.331263 188.381791 
L 295.730949 188.083745 
L 295.924777 187.700544 
L 296.141815 187.210898 
L 296.337783 186.673352 
L 296.554116 185.257636 
L 296.965291 184.858468 
L 297.115547 184.714767 
L 297.247224 184.5072 
L 297.304543 184.235766 
L 297.505105 183.943043 
L 297.711373 183.432108 
L 298.000131 183.075517 
L 298.082785 182.836017 
L 298.555764 182.314437 
L 298.623918 182.213315 
L 298.884793 181.883336 
L 299.022187 181.138222 
L 299.023616 181.005166 
L 299.648165 180.765665 
L 300.23179 180.233441 
L 300.349042 180.073774 
L 300.434759 179.733151 
L 300.722429 179.392527 
L 301.085457 178.748536 
L 301.095365 178.636769 
L 301.361409 178.445169 
L 301.587324 177.843756 
L 301.801393 177.668122 
L 301.931242 177.439265 
L 302.513546 176.236439 
L 302.690455 175.874527 
L 302.935665 175.698893 
L 303.405479 175.480681 
L 303.49154 175.257147 
L 303.701984 175.092157 
L 304.307521 173.452908 
L 305.436029 172.713116 
L 305.967664 172.154281 
L 306.166224 171.845591 
L 306.612265 171.446423 
L 306.96697 171.281434 
L 307.030457 171.196278 
L 307.600823 170.882266 
L 307.80249 170.68002 
L 307.80249 170.63212 
L 308.166384 170.403264 
L 308.819329 169.876362 
L 308.907279 169.684762 
L 309.135838 169.397361 
L 309.44875 168.646925 
L 309.739972 167.976323 
L 309.852619 167.816655 
L 309.986268 167.539899 
L 310.375602 166.85333 
L 310.498605 166.124183 
L 311.268134 164.910712 
L 311.306741 164.862812 
L 311.582267 164.740401 
L 311.806884 164.564767 
L 311.917347 164.447677 
L 312.43529 164.378488 
L 313.326062 164.314621 
L 313.424762 164.14431 
L 313.835977 163.936742 
L 313.913716 163.867553 
L 313.980794 163.723853 
L 314.129883 163.36194 
L 314.664876 161.877036 
L 315.009573 160.833876 
L 315.290224 160.051507 
L 315.352102 159.934418 
L 315.584752 159.63105 
L 315.702018 159.295749 
L 315.896463 159.077537 
L 316.000943 158.731592 
L 316.228001 158.449513 
L 316.324218 158.199368 
L 316.496579 157.938578 
L 316.584906 157.784233 
L 316.909422 157.512799 
L 317.0335 157.060408 
L 317.98632 155.522281 
L 318.058686 155.304069 
L 318.613757 154.702656 
L 319.089853 153.627564 
L 319.390655 152.893094 
L 319.461854 152.807939 
L 319.618673 152.600371 
L 320.224077 151.945736 
L 320.892993 151.525279 
L 321.34506 151.104822 
L 321.713903 150.875965 
L 321.908473 149.944573 
L 322.075305 149.81684 
L 322.167772 149.625239 
L 322.247823 149.481539 
L 322.686905 149.10366 
L 322.746475 148.991892 
L 323.177694 148.757714 
L 323.285927 148.603369 
L 323.490754 148.433057 
L 324.114166 147.310065 
L 324.283154 147.097175 
L 324.347544 146.964119 
L 324.559603 146.751229 
L 324.807133 146.208361 
L 324.89368 146.000794 
L 325.146671 145.202458 
L 325.419466 144.569111 
L 325.688595 144.02092 
L 325.931317 143.754808 
L 326.14683 143.195973 
L 326.210064 143.015017 
L 326.359005 142.834061 
L 326.493015 142.589238 
L 326.751389 142.296515 
L 326.884044 142.094269 
L 326.961753 141.987825 
L 327.222037 141.647201 
L 327.535645 140.987244 
L 327.827009 140.556142 
L 328.014076 140.343252 
L 328.106326 140.178263 
L 328.263921 139.970696 
L 328.622152 138.533691 
L 328.985424 138.097267 
L 329.084081 137.921633 
L 329.956506 137.048786 
L 330.781306 136.617684 
L 330.872316 136.458017 
L 330.986192 136.165294 
L 331.493445 134.957146 
L 331.570774 134.82409 
L 331.664728 134.627167 
L 332.059516 134.435566 
L 332.674564 134.259932 
L 332.943167 134.137521 
L 333.368227 133.99382 
L 333.441835 133.951242 
L 333.527508 133.823508 
L 333.715683 133.488207 
L 334.819402 133.269996 
L 335.987141 130.896276 
L 336.154468 130.395986 
L 336.289556 130.076652 
L 336.42159 129.853117 
L 336.800726 129.017526 
L 336.916098 128.772703 
L 337.411816 128.373535 
L 337.584639 127.974367 
L 338.142638 127.60181 
L 338.384301 127.394243 
L 338.496149 127.277153 
L 338.573925 127.074908 
L 338.775191 126.877985 
L 338.987943 126.202061 
L 339.198897 125.951916 
L 339.528065 125.244058 
L 339.636599 124.796989 
L 339.698421 124.504266 
L 339.788563 124.270088 
L 340.715404 123.673997 
L 340.97011 123.344018 
L 341.517883 122.811794 
L 341.754194 122.508426 
L 341.85732 122.401981 
L 341.980876 122.199736 
L 342.097872 122.103936 
L 342.224274 121.954913 
L 342.331296 121.124644 
L 342.869145 120.507264 
L 343.200219 120.289052 
L 343.504731 119.645061 
L 343.894871 118.511424 
L 344.181366 117.739699 
L 344.356208 116.733796 
L 344.452141 116.50494 
L 344.927715 114.982779 
L 345.29888 114.306854 
L 345.596386 113.434007 
L 345.994486 111.198666 
L 346.027952 110.810143 
L 346.144479 110.299208 
L 346.688064 109.059126 
L 346.926137 108.659958 
L 347.075317 108.409812 
L 347.344143 108.138378 
L 347.604737 107.840333 
L 348.104036 107.38262 
L 348.213572 107.036675 
L 348.582976 106.547028 
L 348.707519 106.185116 
L 348.93422 105.876426 
L 349.068576 105.408069 
L 349.209253 105.147279 
L 349.474413 104.849234 
L 349.820096 104.923745 
L 349.820096 104.93439 
L 350.155333 105.062124 
L 350.303996 105.024868 
L 350.303996 105.014223 
L 350.33737 104.897134 
L 350.387338 104.913101 
L 351.206337 104.891812 
L 351.315159 104.764078 
L 351.427905 104.423455 
L 351.64307 104.231854 
L 351.745626 104.024287 
L 351.873935 103.917842 
L 351.980466 103.598508 
L 352.322858 103.316429 
L 352.506465 103.108861 
L 352.690098 102.853394 
L 352.986919 101.996513 
L 353.458429 101.682501 
L 353.556093 101.522834 
L 353.564425 101.522834 
L 353.838713 101.214144 
L 353.913195 101.054477 
L 354.011975 100.692564 
L 354.294797 100.442419 
L 354.801326 100.22953 
L 354.90706 99.80375 
L 355.151271 99.266204 
L 356.003428 98.845747 
L 356.142268 98.702047 
L 356.461945 98.37739 
L 357.96514 98.153856 
L 358.287634 97.744044 
L 358.403184 97.21182 
L 358.746804 96.935063 
L 359.481537 96.610406 
L 359.5982 96.493317 
L 359.718969 96.344294 
L 359.887812 95.982382 
L 360.081184 95.737559 
L 360.605242 94.949868 
L 360.923425 94.848745 
L 361.292003 94.556022 
L 361.507391 94.348454 
L 361.755027 94.188787 
L 361.859358 94.098309 
L 362.204559 94.071698 
L 362.940413 93.965253 
L 363.035714 93.800264 
L 363.14591 93.688497 
L 363.688342 93.00725 
L 364.039214 92.224881 
L 364.177635 92.043924 
L 364.372069 91.719268 
L 365.282003 91.234944 
L 365.54457 90.367419 
L 365.783887 90.388708 
L 365.880333 90.516442 
L 365.901429 90.537731 
L 365.989268 90.473864 
L 366.380984 90.378063 
L 366.664666 89.553116 
L 366.871271 89.223137 
L 366.972453 89.334904 
L 367.226109 89.22846 
L 367.40723 88.903803 
L 367.523471 88.414157 
L 368.093222 87.690332 
L 368.215358 87.413576 
L 368.65612 87.349709 
L 368.879518 87.296486 
L 369.396856 86.860063 
L 369.591913 86.625884 
L 370.256146 85.64127 
L 370.359882 85.42838 
L 370.596657 85.114368 
L 371.234162 84.938734 
L 371.433025 84.917445 
L 371.719911 84.811 
L 371.809677 84.582144 
L 372.013882 84.300065 
L 372.479831 83.90622 
L 373.003613 83.576241 
L 373.227525 82.57566 
L 373.36697 82.320192 
L 373.860826 81.096077 
L 374.281368 80.840609 
L 374.692537 80.611753 
L 374.780565 80.308385 
L 374.952259 79.270548 
L 375.742991 78.099656 
L 376.644924 77.599365 
L 376.872066 76.971341 
L 376.924391 76.492339 
L 377.04771 76.188972 
L 377.442575 75.885604 
L 377.550331 75.459825 
L 377.769076 75.193713 
L 378.21516 75.097912 
L 378.327355 74.906312 
L 378.530905 74.656166 
L 378.949485 74.421988 
L 379.164069 74.374088 
L 379.179785 74.453921 
L 379.358472 74.789222 
L 379.525866 74.666811 
L 379.979962 74.251676 
L 380.051819 74.028142 
L 380.2429 73.570429 
L 380.523994 73.208517 
L 380.649417 73.011594 
L 380.893801 72.628393 
L 381.017825 72.016335 
L 381.322445 71.643779 
L 382.338087 71.324444 
L 382.448608 70.88802 
L 382.476844 70.818831 
L 382.552718 70.989143 
L 383.188731 72.021658 
L 383.202673 71.760868 
L 383.467935 70.669809 
L 383.560654 70.53143 
L 384.156506 69.137004 
L 384.295537 68.966692 
L 384.663741 68.84428 
L 384.664226 68.860247 
L 384.77445 68.998625 
L 385.003937 69.094426 
L 385.275745 69.00927 
L 385.275745 68.987981 
L 385.52129 68.386568 
L 385.7798 68.306734 
L 386.083288 68.104489 
L 386.380463 67.87031 
L 386.482486 67.673388 
L 387.242218 66.805862 
L 387.340539 66.193805 
L 387.506093 65.645614 
L 388.354391 64.719544 
L 388.390894 64.772767 
L 388.615407 65.049523 
L 388.657358 65.006945 
L 388.81556 64.692933 
L 388.953862 64.480044 
L 390.243642 63.303828 
L 390.46854 63.154806 
L 390.572613 63.074972 
L 390.804702 62.867405 
L 390.817313 62.803538 
L 390.889365 62.989816 
L 391.004675 63.122872 
L 391.036621 63.059005 
L 391.692062 61.510234 
L 391.817749 61.292022 
L 392.269391 61.009943 
L 392.284709 61.068488 
L 392.803862 61.462333 
L 392.83043 61.3825 
L 392.982725 61.185577 
L 393.110122 61.009943 
L 393.319962 60.483041 
L 393.457364 60.09984 
L 393.597876 59.721961 
L 393.860202 59.147159 
L 394.012226 58.226412 
L 394.162632 57.79531 
L 394.895381 57.087452 
L 395.079801 57.087452 
L 396.599545 56.62974 
L 396.849299 55.889948 
L 396.932659 55.996393 
L 397.377772 56.150738 
L 397.640329 55.831404 
L 397.748907 56.001715 
L 398.284008 56.800051 
L 398.378079 57.720799 
L 398.388464 57.715476 
L 398.486209 182.639094 
L -1 182.655317 
L -1 182.655317 
" clip-path="url(#p90f612b938)" style="fill: none; stroke-dasharray: 1.85,0.8; stroke-dashoffset: 0; stroke: #ff0000; stroke-width: 0.5"/>
   </g>
   <g id="patch_3">
    <path d="M 57.6 307.584 
L 57.6 41.472 
" style="fill: none; stroke: #000000; stroke-width: 0.8; stroke-linejoin: miter; stroke-linecap: square"/>
   </g>
   <g id="patch_4">
    <path d="M 414.72 307.584 
L 414.72 41.472 
" style="fill: none; stroke: #000000; stroke-width: 0.8; stroke-linejoin: miter; stroke-linecap: square"/>
   </g>
   <g id="patch_5">
    <path d="M 57.6 307.584 
L 414.72 307.584 
" style="fill: none; stroke: #000000; stroke-width: 0.8; stroke-linejoin: miter; stroke-linecap: square"/>
   </g>
   <g id="patch_6">
    <path d="M 57.6 41.472 
L 414.72 41.472 
" style="fill: none; stroke: #000000; stroke-width: 0.8; stroke-linejoin: miter; stroke-linecap: square"/>
   </g>
   <g id="legend_1">
    <g id="patch_7">
     <path d="M 314.584 105.43945 
L 523.329313 105.43945 
Q 525.329313 105.43945 525.329313 103.43945 
L 525.329313 75.0832 
Q 525.329313 73.0832 523.329313 73.0832 
L 314.584 73.0832 
Q 312.584 73.0832 312.584 75.0832 
L 312.584 103.43945 
Q 312.584 105.43945 314.584 105.43945 
z
" style="fill: #ffffff; opacity: 0.8; stroke: #cccccc; stroke-linejoin: miter"/>
    </g>
    <g id="line2d_35">
     <path d="M 316.584 81.181637 
L 326.584 81.181637 
L 336.584 81.181637 
" style="fill: none; stroke-dasharray: 1.85,0.8; stroke-dashoffset: 0; stroke: #8000ff; stroke-width: 0.5"/>
    </g>
    <g id="text_12">
     <!-- Total number of electron traps500 -->
     <g transform="translate(344.584 84.681637) scale(0.1 -0.1)">
      <defs>
       <path id="DejaVuSans-54" d="M -19 4666 
L 3928 4666 
L 3928 4134 
L 2272 4134 
L 2272 0 
L 1638 0 
L 1638 4134 
L -19 4134 
L -19 4666 
z
" transform="scale(0.015625)"/>
       <path id="DejaVuSans-75" d="M 544 1381 
L 544 3500 
L 1119 3500 
L 1119 1403 
Q 1119 906 1312 657 
Q 1506 409 1894 409 
Q 2359 409 2629 706 
Q 2900 1003 2900 1516 
L 2900 3500 
L 3475 3500 
L 3475 0 
L 2900 0 
L 2900 538 
Q 2691 219 2414 64 
Q 2138 -91 1772 -91 
Q 1169 -91 856 284 
Q 544 659 544 1381 
z
M 1991 3584 
L 1991 3584 
z
" transform="scale(0.015625)"/>
       <path id="DejaVuSans-62" d="M 3116 1747 
Q 3116 2381 2855 2742 
Q 2594 3103 2138 3103 
Q 1681 3103 1420 2742 
Q 1159 2381 1159 1747 
Q 1159 1113 1420 752 
Q 1681 391 2138 391 
Q 2594 391 2855 752 
Q 3116 1113 3116 1747 
z
M 1159 2969 
Q 1341 3281 1617 3432 
Q 1894 3584 2278 3584 
Q 2916 3584 3314 3078 
Q 3713 2572 3713 1747 
Q 3713 922 3314 415 
Q 2916 -91 2278 -91 
Q 1894 -91 1617 61 
Q 1341 213 1159 525 
L 1159 0 
L 581 0 
L 581 4863 
L 1159 4863 
L 1159 2969 
z
" transform="scale(0.015625)"/>
       <path id="DejaVuSans-35" d="M 691 4666 
L 3169 4666 
L 3169 4134 
L 1269 4134 
L 1269 2991 
Q 1406 3038 1543 3061 
Q 1681 3084 1819 3084 
Q 2600 3084 3056 2656 
Q 3513 2228 3513 1497 
Q 3513 744 3044 326 
Q 2575 -91 1722 -91 
Q 1428 -91 1123 -41 
Q 819 9 494 109 
L 494 744 
Q 775 591 1075 516 
Q 1375 441 1709 441 
Q 2250 441 2565 725 
Q 2881 1009 2881 1497 
Q 2881 1984 2565 2268 
Q 2250 2553 1709 2553 
Q 1456 2553 1204 2497 
Q 953 2441 691 2322 
L 691 4666 
z
" transform="scale(0.015625)"/>
      </defs>
      <use xlink:href="#DejaVuSans-54"/>
      <use xlink:href="#DejaVuSans-6f" transform="translate(44.083984 0)"/>
      <use xlink:href="#DejaVuSans-74" transform="translate(105.265625 0)"/>
      <use xlink:href="#DejaVuSans-61" transform="translate(144.474609 0)"/>
      <use xlink:href="#DejaVuSans-6c" transform="translate(205.753906 0)"/>
      <use xlink:href="#DejaVuSans-20" transform="translate(233.537109 0)"/>
      <use xlink:href="#DejaVuSans-6e" transform="translate(265.324219 0)"/>
      <use xlink:href="#DejaVuSans-75" transform="translate(328.703125 0)"/>
      <use xlink:href="#DejaVuSans-6d" transform="translate(392.082031 0)"/>
      <use xlink:href="#DejaVuSans-62" transform="translate(489.494141 0)"/>
      <use xlink:href="#DejaVuSans-65" transform="translate(552.970703 0)"/>
      <use xlink:href="#DejaVuSans-72" transform="translate(614.494141 0)"/>
      <use xlink:href="#DejaVuSans-20" transform="translate(655.607422 0)"/>
      <use xlink:href="#DejaVuSans-6f" transform="translate(687.394531 0)"/>
      <use xlink:href="#DejaVuSans-66" transform="translate(748.576172 0)"/>
      <use xlink:href="#DejaVuSans-20" transform="translate(783.78125 0)"/>
      <use xlink:href="#DejaVuSans-65" transform="translate(815.568359 0)"/>
      <use xlink:href="#DejaVuSans-6c" transform="translate(877.091797 0)"/>
      <use xlink:href="#DejaVuSans-65" transform="translate(904.875 0)"/>
      <use xlink:href="#DejaVuSans-63" transform="translate(966.398438 0)"/>
      <use xlink:href="#DejaVuSans-74" transform="translate(1021.378906 0)"/>
      <use xlink:href="#DejaVuSans-72" transform="translate(1060.587891 0)"/>
      <use xlink:href="#DejaVuSans-6f" transform="translate(1099.451172 0)"/>
      <use xlink:href="#DejaVuSans-6e" transform="translate(1160.632812 0)"/>
      <use xlink:href="#DejaVuSans-20" transform="translate(1224.011719 0)"/>
      <use xlink:href="#DejaVuSans-74" transform="translate(1255.798828 0)"/>
      <use xlink:href="#DejaVuSans-72" transform="translate(1295.007812 0)"/>
      <use xlink:href="#DejaVuSans-61" transform="translate(1336.121094 0)"/>
      <use xlink:href="#DejaVuSans-70" transform="translate(1397.400391 0)"/>
      <use xlink:href="#DejaVuSans-73" transform="translate(1460.876953 0)"/>
      <use xlink:href="#DejaVuSans-35" transform="translate(1512.976562 0)"/>
      <use xlink:href="#DejaVuSans-30" transform="translate(1576.599609 0)"/>
      <use xlink:href="#DejaVuSans-30" transform="translate(1640.222656 0)"/>
     </g>
    </g>
    <g id="line2d_36">
     <path d="M 316.584 95.859762 
L 326.584 95.859762 
L 336.584 95.859762 
" style="fill: none; stroke-dasharray: 1.85,0.8; stroke-dashoffset: 0; stroke: #ff0000; stroke-width: 0.5"/>
    </g>
    <g id="text_13">
     <!-- Total number of electron traps1000 -->
     <g transform="translate(344.584 99.359762) scale(0.1 -0.1)">
      <use xlink:href="#DejaVuSans-54"/>
      <use xlink:href="#DejaVuSans-6f" transform="translate(44.083984 0)"/>
      <use xlink:href="#DejaVuSans-74" transform="translate(105.265625 0)"/>
      <use xlink:href="#DejaVuSans-61" transform="translate(144.474609 0)"/>
      <use xlink:href="#DejaVuSans-6c" transform="translate(205.753906 0)"/>
      <use xlink:href="#DejaVuSans-20" transform="translate(233.537109 0)"/>
      <use xlink:href="#DejaVuSans-6e" transform="translate(265.324219 0)"/>
      <use xlink:href="#DejaVuSans-75" transform="translate(328.703125 0)"/>
      <use xlink:href="#DejaVuSans-6d" transform="translate(392.082031 0)"/>
      <use xlink:href="#DejaVuSans-62" transform="translate(489.494141 0)"/>
      <use xlink:href="#DejaVuSans-65" transform="translate(552.970703 0)"/>
      <use xlink:href="#DejaVuSans-72" transform="translate(614.494141 0)"/>
      <use xlink:href="#DejaVuSans-20" transform="translate(655.607422 0)"/>
      <use xlink:href="#DejaVuSans-6f" transform="translate(687.394531 0)"/>
      <use xlink:href="#DejaVuSans-66" transform="translate(748.576172 0)"/>
      <use xlink:href="#DejaVuSans-20" transform="translate(783.78125 0)"/>
      <use xlink:href="#DejaVuSans-65" transform="translate(815.568359 0)"/>
      <use xlink:href="#DejaVuSans-6c" transform="translate(877.091797 0)"/>
      <use xlink:href="#DejaVuSans-65" transform="translate(904.875 0)"/>
      <use xlink:href="#DejaVuSans-63" transform="translate(966.398438 0)"/>
      <use xlink:href="#DejaVuSans-74" transform="translate(1021.378906 0)"/>
      <use xlink:href="#DejaVuSans-72" transform="translate(1060.587891 0)"/>
      <use xlink:href="#DejaVuSans-6f" transform="translate(1099.451172 0)"/>
      <use xlink:href="#DejaVuSans-6e" transform="translate(1160.632812 0)"/>
      <use xlink:href="#DejaVuSans-20" transform="translate(1224.011719 0)"/>
      <use xlink:href="#DejaVuSans-74" transform="translate(1255.798828 0)"/>
      <use xlink:href="#DejaVuSans-72" transform="translate(1295.007812 0)"/>
      <use xlink:href="#DejaVuSans-61" transform="translate(1336.121094 0)"/>
      <use xlink:href="#DejaVuSans-70" transform="translate(1397.400391 0)"/>
      <use xlink:href="#DejaVuSans-73" transform="translate(1460.876953 0)"/>
      <use xlink:href="#DejaVuSans-31" transform="translate(1512.976562 0)"/>
      <use xlink:href="#DejaVuSans-30" transform="translate(1576.599609 0)"/>
      <use xlink:href="#DejaVuSans-30" transform="translate(1640.222656 0)"/>
      <use xlink:href="#DejaVuSans-30" transform="translate(1703.845703 0)"/>
     </g>
    </g>
   </g>
  </g>
 </g>
 <defs>
  <clipPath id="p90f612b938">
   <rect x="57.6" y="41.472" width="357.12" height="266.112"/>
  </clipPath>
 </defs>
</svg>
