<?xml version="1.0" encoding="utf-8" standalone="no"?>
<!DOCTYPE svg PUBLIC "-//W3C//DTD SVG 1.1//EN"
  "http://www.w3.org/Graphics/SVG/1.1/DTD/svg11.dtd">
<svg xmlns:xlink="http://www.w3.org/1999/xlink" width="460.8pt" height="345.6pt" viewBox="0 0 460.8 345.6" xmlns="http://www.w3.org/2000/svg" version="1.1">
 <metadata>
  <rdf:RDF xmlns:dc="http://purl.org/dc/elements/1.1/" xmlns:cc="http://creativecommons.org/ns#" xmlns:rdf="http://www.w3.org/1999/02/22-rdf-syntax-ns#">
   <cc:Work>
    <dc:type rdf:resource="http://purl.org/dc/dcmitype/StillImage"/>
    <dc:date>2025-03-25T10:49:00.946419</dc:date>
    <dc:format>image/svg+xml</dc:format>
    <dc:creator>
     <cc:Agent>
      <dc:title>Matplotlib v3.10.0, https://matplotlib.org/</dc:title>
     </cc:Agent>
    </dc:creator>
   </cc:Work>
  </rdf:RDF>
 </metadata>
 <defs>
  <style type="text/css">*{stroke-linejoin: round; stroke-linecap: butt}</style>
 </defs>
 <g id="figure_1">
  <g id="patch_1">
   <path d="M 0 345.6 
L 460.8 345.6 
L 460.8 0 
L 0 0 
z
" style="fill: #ffffff"/>
  </g>
  <g id="axes_1">
   <g id="patch_2">
    <path d="M 57.6 307.584 
L 414.72 307.584 
L 414.72 41.472 
L 57.6 41.472 
z
" style="fill: #ffffff"/>
   </g>
   <g id="matplotlib.axis_1">
    <g id="xtick_1">
     <g id="line2d_1">
      <defs>
       <path id="m9277f0d812" d="M 0 0 
L 0 3.5 
" style="stroke: #000000; stroke-width: 0.8"/>
      </defs>
      <g>
       <use xlink:href="#m9277f0d812" x="107.023446" y="307.584" style="stroke: #000000; stroke-width: 0.8"/>
      </g>
     </g>
     <g id="text_1">
      <!-- $\mathdefault{10^{9}}$ -->
      <g transform="translate(98.223446 322.182437) scale(0.1 -0.1)">
       <defs>
        <path id="DejaVuSans-31" d="M 794 531 
L 1825 531 
L 1825 4091 
L 703 3866 
L 703 4441 
L 1819 4666 
L 2450 4666 
L 2450 531 
L 3481 531 
L 3481 0 
L 794 0 
L 794 531 
z
" transform="scale(0.015625)"/>
        <path id="DejaVuSans-30" d="M 2034 4250 
Q 1547 4250 1301 3770 
Q 1056 3291 1056 2328 
Q 1056 1369 1301 889 
Q 1547 409 2034 409 
Q 2525 409 2770 889 
Q 3016 1369 3016 2328 
Q 3016 3291 2770 3770 
Q 2525 4250 2034 4250 
z
M 2034 4750 
Q 2819 4750 3233 4129 
Q 3647 3509 3647 2328 
Q 3647 1150 3233 529 
Q 2819 -91 2034 -91 
Q 1250 -91 836 529 
Q 422 1150 422 2328 
Q 422 3509 836 4129 
Q 1250 4750 2034 4750 
z
" transform="scale(0.015625)"/>
        <path id="DejaVuSans-39" d="M 703 97 
L 703 672 
Q 941 559 1184 500 
Q 1428 441 1663 441 
Q 2288 441 2617 861 
Q 2947 1281 2994 2138 
Q 2813 1869 2534 1725 
Q 2256 1581 1919 1581 
Q 1219 1581 811 2004 
Q 403 2428 403 3163 
Q 403 3881 828 4315 
Q 1253 4750 1959 4750 
Q 2769 4750 3195 4129 
Q 3622 3509 3622 2328 
Q 3622 1225 3098 567 
Q 2575 -91 1691 -91 
Q 1453 -91 1209 -44 
Q 966 3 703 97 
z
M 1959 2075 
Q 2384 2075 2632 2365 
Q 2881 2656 2881 3163 
Q 2881 3666 2632 3958 
Q 2384 4250 1959 4250 
Q 1534 4250 1286 3958 
Q 1038 3666 1038 3163 
Q 1038 2656 1286 2365 
Q 1534 2075 1959 2075 
z
" transform="scale(0.015625)"/>
       </defs>
       <use xlink:href="#DejaVuSans-31" transform="translate(0 0.765625)"/>
       <use xlink:href="#DejaVuSans-30" transform="translate(63.623047 0.765625)"/>
       <use xlink:href="#DejaVuSans-39" transform="translate(128.203125 39.046875) scale(0.7)"/>
      </g>
     </g>
    </g>
    <g id="xtick_2">
     <g id="line2d_2">
      <g>
       <use xlink:href="#m9277f0d812" x="177.772602" y="307.584" style="stroke: #000000; stroke-width: 0.8"/>
      </g>
     </g>
     <g id="text_2">
      <!-- $\mathdefault{10^{10}}$ -->
      <g transform="translate(166.722602 322.182437) scale(0.1 -0.1)">
       <use xlink:href="#DejaVuSans-31" transform="translate(0 0.765625)"/>
       <use xlink:href="#DejaVuSans-30" transform="translate(63.623047 0.765625)"/>
       <use xlink:href="#DejaVuSans-31" transform="translate(128.203125 39.046875) scale(0.7)"/>
       <use xlink:href="#DejaVuSans-30" transform="translate(172.739258 39.046875) scale(0.7)"/>
      </g>
     </g>
    </g>
    <g id="xtick_3">
     <g id="line2d_3">
      <g>
       <use xlink:href="#m9277f0d812" x="248.521759" y="307.584" style="stroke: #000000; stroke-width: 0.8"/>
      </g>
     </g>
     <g id="text_3">
      <!-- $\mathdefault{10^{11}}$ -->
      <g transform="translate(237.471759 322.182437) scale(0.1 -0.1)">
       <use xlink:href="#DejaVuSans-31" transform="translate(0 0.684375)"/>
       <use xlink:href="#DejaVuSans-30" transform="translate(63.623047 0.684375)"/>
       <use xlink:href="#DejaVuSans-31" transform="translate(128.203125 38.965625) scale(0.7)"/>
       <use xlink:href="#DejaVuSans-31" transform="translate(172.739258 38.965625) scale(0.7)"/>
      </g>
     </g>
    </g>
    <g id="xtick_4">
     <g id="line2d_4">
      <g>
       <use xlink:href="#m9277f0d812" x="319.270916" y="307.584" style="stroke: #000000; stroke-width: 0.8"/>
      </g>
     </g>
     <g id="text_4">
      <!-- $\mathdefault{10^{12}}$ -->
      <g transform="translate(308.220916 322.182437) scale(0.1 -0.1)">
       <defs>
        <path id="DejaVuSans-32" d="M 1228 531 
L 3431 531 
L 3431 0 
L 469 0 
L 469 531 
Q 828 903 1448 1529 
Q 2069 2156 2228 2338 
Q 2531 2678 2651 2914 
Q 2772 3150 2772 3378 
Q 2772 3750 2511 3984 
Q 2250 4219 1831 4219 
Q 1534 4219 1204 4116 
Q 875 4013 500 3803 
L 500 4441 
Q 881 4594 1212 4672 
Q 1544 4750 1819 4750 
Q 2544 4750 2975 4387 
Q 3406 4025 3406 3419 
Q 3406 3131 3298 2873 
Q 3191 2616 2906 2266 
Q 2828 2175 2409 1742 
Q 1991 1309 1228 531 
z
" transform="scale(0.015625)"/>
       </defs>
       <use xlink:href="#DejaVuSans-31" transform="translate(0 0.765625)"/>
       <use xlink:href="#DejaVuSans-30" transform="translate(63.623047 0.765625)"/>
       <use xlink:href="#DejaVuSans-31" transform="translate(128.203125 39.046875) scale(0.7)"/>
       <use xlink:href="#DejaVuSans-32" transform="translate(172.739258 39.046875) scale(0.7)"/>
      </g>
     </g>
    </g>
    <g id="xtick_5">
     <g id="line2d_5">
      <g>
       <use xlink:href="#m9277f0d812" x="390.020072" y="307.584" style="stroke: #000000; stroke-width: 0.8"/>
      </g>
     </g>
     <g id="text_5">
      <!-- $\mathdefault{10^{13}}$ -->
      <g transform="translate(378.970072 322.182437) scale(0.1 -0.1)">
       <defs>
        <path id="DejaVuSans-33" d="M 2597 2516 
Q 3050 2419 3304 2112 
Q 3559 1806 3559 1356 
Q 3559 666 3084 287 
Q 2609 -91 1734 -91 
Q 1441 -91 1130 -33 
Q 819 25 488 141 
L 488 750 
Q 750 597 1062 519 
Q 1375 441 1716 441 
Q 2309 441 2620 675 
Q 2931 909 2931 1356 
Q 2931 1769 2642 2001 
Q 2353 2234 1838 2234 
L 1294 2234 
L 1294 2753 
L 1863 2753 
Q 2328 2753 2575 2939 
Q 2822 3125 2822 3475 
Q 2822 3834 2567 4026 
Q 2313 4219 1838 4219 
Q 1578 4219 1281 4162 
Q 984 4106 628 3988 
L 628 4550 
Q 988 4650 1302 4700 
Q 1616 4750 1894 4750 
Q 2613 4750 3031 4423 
Q 3450 4097 3450 3541 
Q 3450 3153 3228 2886 
Q 3006 2619 2597 2516 
z
" transform="scale(0.015625)"/>
       </defs>
       <use xlink:href="#DejaVuSans-31" transform="translate(0 0.765625)"/>
       <use xlink:href="#DejaVuSans-30" transform="translate(63.623047 0.765625)"/>
       <use xlink:href="#DejaVuSans-31" transform="translate(128.203125 39.046875) scale(0.7)"/>
       <use xlink:href="#DejaVuSans-33" transform="translate(172.739258 39.046875) scale(0.7)"/>
      </g>
     </g>
    </g>
    <g id="xtick_6">
     <g id="line2d_6">
      <defs>
       <path id="m1302754102" d="M 0 0 
L 0 2 
" style="stroke: #000000; stroke-width: 0.6"/>
      </defs>
      <g>
       <use xlink:href="#m1302754102" x="70.030215" y="307.584" style="stroke: #000000; stroke-width: 0.6"/>
      </g>
     </g>
    </g>
    <g id="xtick_7">
     <g id="line2d_7">
      <g>
       <use xlink:href="#m1302754102" x="78.869526" y="307.584" style="stroke: #000000; stroke-width: 0.6"/>
      </g>
     </g>
    </g>
    <g id="xtick_8">
     <g id="line2d_8">
      <g>
       <use xlink:href="#m1302754102" x="85.725827" y="307.584" style="stroke: #000000; stroke-width: 0.6"/>
      </g>
     </g>
    </g>
    <g id="xtick_9">
     <g id="line2d_9">
      <g>
       <use xlink:href="#m1302754102" x="91.327834" y="307.584" style="stroke: #000000; stroke-width: 0.6"/>
      </g>
     </g>
    </g>
    <g id="xtick_10">
     <g id="line2d_10">
      <g>
       <use xlink:href="#m1302754102" x="96.064263" y="307.584" style="stroke: #000000; stroke-width: 0.6"/>
      </g>
     </g>
    </g>
    <g id="xtick_11">
     <g id="line2d_11">
      <g>
       <use xlink:href="#m1302754102" x="100.167144" y="307.584" style="stroke: #000000; stroke-width: 0.6"/>
      </g>
     </g>
    </g>
    <g id="xtick_12">
     <g id="line2d_12">
      <g>
       <use xlink:href="#m1302754102" x="103.786142" y="307.584" style="stroke: #000000; stroke-width: 0.6"/>
      </g>
     </g>
    </g>
    <g id="xtick_13">
     <g id="line2d_13">
      <g>
       <use xlink:href="#m1302754102" x="128.321064" y="307.584" style="stroke: #000000; stroke-width: 0.6"/>
      </g>
     </g>
    </g>
    <g id="xtick_14">
     <g id="line2d_14">
      <g>
       <use xlink:href="#m1302754102" x="140.779372" y="307.584" style="stroke: #000000; stroke-width: 0.6"/>
      </g>
     </g>
    </g>
    <g id="xtick_15">
     <g id="line2d_15">
      <g>
       <use xlink:href="#m1302754102" x="149.618682" y="307.584" style="stroke: #000000; stroke-width: 0.6"/>
      </g>
     </g>
    </g>
    <g id="xtick_16">
     <g id="line2d_16">
      <g>
       <use xlink:href="#m1302754102" x="156.474984" y="307.584" style="stroke: #000000; stroke-width: 0.6"/>
      </g>
     </g>
    </g>
    <g id="xtick_17">
     <g id="line2d_17">
      <g>
       <use xlink:href="#m1302754102" x="162.07699" y="307.584" style="stroke: #000000; stroke-width: 0.6"/>
      </g>
     </g>
    </g>
    <g id="xtick_18">
     <g id="line2d_18">
      <g>
       <use xlink:href="#m1302754102" x="166.813419" y="307.584" style="stroke: #000000; stroke-width: 0.6"/>
      </g>
     </g>
    </g>
    <g id="xtick_19">
     <g id="line2d_19">
      <g>
       <use xlink:href="#m1302754102" x="170.916301" y="307.584" style="stroke: #000000; stroke-width: 0.6"/>
      </g>
     </g>
    </g>
    <g id="xtick_20">
     <g id="line2d_20">
      <g>
       <use xlink:href="#m1302754102" x="174.535298" y="307.584" style="stroke: #000000; stroke-width: 0.6"/>
      </g>
     </g>
    </g>
    <g id="xtick_21">
     <g id="line2d_21">
      <g>
       <use xlink:href="#m1302754102" x="199.070221" y="307.584" style="stroke: #000000; stroke-width: 0.6"/>
      </g>
     </g>
    </g>
    <g id="xtick_22">
     <g id="line2d_22">
      <g>
       <use xlink:href="#m1302754102" x="211.528529" y="307.584" style="stroke: #000000; stroke-width: 0.6"/>
      </g>
     </g>
    </g>
    <g id="xtick_23">
     <g id="line2d_23">
      <g>
       <use xlink:href="#m1302754102" x="220.367839" y="307.584" style="stroke: #000000; stroke-width: 0.6"/>
      </g>
     </g>
    </g>
    <g id="xtick_24">
     <g id="line2d_24">
      <g>
       <use xlink:href="#m1302754102" x="227.224141" y="307.584" style="stroke: #000000; stroke-width: 0.6"/>
      </g>
     </g>
    </g>
    <g id="xtick_25">
     <g id="line2d_25">
      <g>
       <use xlink:href="#m1302754102" x="232.826147" y="307.584" style="stroke: #000000; stroke-width: 0.6"/>
      </g>
     </g>
    </g>
    <g id="xtick_26">
     <g id="line2d_26">
      <g>
       <use xlink:href="#m1302754102" x="237.562576" y="307.584" style="stroke: #000000; stroke-width: 0.6"/>
      </g>
     </g>
    </g>
    <g id="xtick_27">
     <g id="line2d_27">
      <g>
       <use xlink:href="#m1302754102" x="241.665457" y="307.584" style="stroke: #000000; stroke-width: 0.6"/>
      </g>
     </g>
    </g>
    <g id="xtick_28">
     <g id="line2d_28">
      <g>
       <use xlink:href="#m1302754102" x="245.284455" y="307.584" style="stroke: #000000; stroke-width: 0.6"/>
      </g>
     </g>
    </g>
    <g id="xtick_29">
     <g id="line2d_29">
      <g>
       <use xlink:href="#m1302754102" x="269.819377" y="307.584" style="stroke: #000000; stroke-width: 0.6"/>
      </g>
     </g>
    </g>
    <g id="xtick_30">
     <g id="line2d_30">
      <g>
       <use xlink:href="#m1302754102" x="282.277685" y="307.584" style="stroke: #000000; stroke-width: 0.6"/>
      </g>
     </g>
    </g>
    <g id="xtick_31">
     <g id="line2d_31">
      <g>
       <use xlink:href="#m1302754102" x="291.116995" y="307.584" style="stroke: #000000; stroke-width: 0.6"/>
      </g>
     </g>
    </g>
    <g id="xtick_32">
     <g id="line2d_32">
      <g>
       <use xlink:href="#m1302754102" x="297.973297" y="307.584" style="stroke: #000000; stroke-width: 0.6"/>
      </g>
     </g>
    </g>
    <g id="xtick_33">
     <g id="line2d_33">
      <g>
       <use xlink:href="#m1302754102" x="303.575304" y="307.584" style="stroke: #000000; stroke-width: 0.6"/>
      </g>
     </g>
    </g>
    <g id="xtick_34">
     <g id="line2d_34">
      <g>
       <use xlink:href="#m1302754102" x="308.311732" y="307.584" style="stroke: #000000; stroke-width: 0.6"/>
      </g>
     </g>
    </g>
    <g id="xtick_35">
     <g id="line2d_35">
      <g>
       <use xlink:href="#m1302754102" x="312.414614" y="307.584" style="stroke: #000000; stroke-width: 0.6"/>
      </g>
     </g>
    </g>
    <g id="xtick_36">
     <g id="line2d_36">
      <g>
       <use xlink:href="#m1302754102" x="316.033612" y="307.584" style="stroke: #000000; stroke-width: 0.6"/>
      </g>
     </g>
    </g>
    <g id="xtick_37">
     <g id="line2d_37">
      <g>
       <use xlink:href="#m1302754102" x="340.568534" y="307.584" style="stroke: #000000; stroke-width: 0.6"/>
      </g>
     </g>
    </g>
    <g id="xtick_38">
     <g id="line2d_38">
      <g>
       <use xlink:href="#m1302754102" x="353.026842" y="307.584" style="stroke: #000000; stroke-width: 0.6"/>
      </g>
     </g>
    </g>
    <g id="xtick_39">
     <g id="line2d_39">
      <g>
       <use xlink:href="#m1302754102" x="361.866152" y="307.584" style="stroke: #000000; stroke-width: 0.6"/>
      </g>
     </g>
    </g>
    <g id="xtick_40">
     <g id="line2d_40">
      <g>
       <use xlink:href="#m1302754102" x="368.722454" y="307.584" style="stroke: #000000; stroke-width: 0.6"/>
      </g>
     </g>
    </g>
    <g id="xtick_41">
     <g id="line2d_41">
      <g>
       <use xlink:href="#m1302754102" x="374.32446" y="307.584" style="stroke: #000000; stroke-width: 0.6"/>
      </g>
     </g>
    </g>
    <g id="xtick_42">
     <g id="line2d_42">
      <g>
       <use xlink:href="#m1302754102" x="379.060889" y="307.584" style="stroke: #000000; stroke-width: 0.6"/>
      </g>
     </g>
    </g>
    <g id="xtick_43">
     <g id="line2d_43">
      <g>
       <use xlink:href="#m1302754102" x="383.16377" y="307.584" style="stroke: #000000; stroke-width: 0.6"/>
      </g>
     </g>
    </g>
    <g id="xtick_44">
     <g id="line2d_44">
      <g>
       <use xlink:href="#m1302754102" x="386.782768" y="307.584" style="stroke: #000000; stroke-width: 0.6"/>
      </g>
     </g>
    </g>
    <g id="xtick_45">
     <g id="line2d_45">
      <g>
       <use xlink:href="#m1302754102" x="411.31769" y="307.584" style="stroke: #000000; stroke-width: 0.6"/>
      </g>
     </g>
    </g>
    <g id="text_6">
     <!-- Log time  -->
     <g transform="translate(212.75375 335.860562) scale(0.1 -0.1)">
      <defs>
       <path id="DejaVuSans-4c" d="M 628 4666 
L 1259 4666 
L 1259 531 
L 3531 531 
L 3531 0 
L 628 0 
L 628 4666 
z
" transform="scale(0.015625)"/>
       <path id="DejaVuSans-6f" d="M 1959 3097 
Q 1497 3097 1228 2736 
Q 959 2375 959 1747 
Q 959 1119 1226 758 
Q 1494 397 1959 397 
Q 2419 397 2687 759 
Q 2956 1122 2956 1747 
Q 2956 2369 2687 2733 
Q 2419 3097 1959 3097 
z
M 1959 3584 
Q 2709 3584 3137 3096 
Q 3566 2609 3566 1747 
Q 3566 888 3137 398 
Q 2709 -91 1959 -91 
Q 1206 -91 779 398 
Q 353 888 353 1747 
Q 353 2609 779 3096 
Q 1206 3584 1959 3584 
z
" transform="scale(0.015625)"/>
       <path id="DejaVuSans-67" d="M 2906 1791 
Q 2906 2416 2648 2759 
Q 2391 3103 1925 3103 
Q 1463 3103 1205 2759 
Q 947 2416 947 1791 
Q 947 1169 1205 825 
Q 1463 481 1925 481 
Q 2391 481 2648 825 
Q 2906 1169 2906 1791 
z
M 3481 434 
Q 3481 -459 3084 -895 
Q 2688 -1331 1869 -1331 
Q 1566 -1331 1297 -1286 
Q 1028 -1241 775 -1147 
L 775 -588 
Q 1028 -725 1275 -790 
Q 1522 -856 1778 -856 
Q 2344 -856 2625 -561 
Q 2906 -266 2906 331 
L 2906 616 
Q 2728 306 2450 153 
Q 2172 0 1784 0 
Q 1141 0 747 490 
Q 353 981 353 1791 
Q 353 2603 747 3093 
Q 1141 3584 1784 3584 
Q 2172 3584 2450 3431 
Q 2728 3278 2906 2969 
L 2906 3500 
L 3481 3500 
L 3481 434 
z
" transform="scale(0.015625)"/>
       <path id="DejaVuSans-20" transform="scale(0.015625)"/>
       <path id="DejaVuSans-74" d="M 1172 4494 
L 1172 3500 
L 2356 3500 
L 2356 3053 
L 1172 3053 
L 1172 1153 
Q 1172 725 1289 603 
Q 1406 481 1766 481 
L 2356 481 
L 2356 0 
L 1766 0 
Q 1100 0 847 248 
Q 594 497 594 1153 
L 594 3053 
L 172 3053 
L 172 3500 
L 594 3500 
L 594 4494 
L 1172 4494 
z
" transform="scale(0.015625)"/>
       <path id="DejaVuSans-69" d="M 603 3500 
L 1178 3500 
L 1178 0 
L 603 0 
L 603 3500 
z
M 603 4863 
L 1178 4863 
L 1178 4134 
L 603 4134 
L 603 4863 
z
" transform="scale(0.015625)"/>
       <path id="DejaVuSans-6d" d="M 3328 2828 
Q 3544 3216 3844 3400 
Q 4144 3584 4550 3584 
Q 5097 3584 5394 3201 
Q 5691 2819 5691 2113 
L 5691 0 
L 5113 0 
L 5113 2094 
Q 5113 2597 4934 2840 
Q 4756 3084 4391 3084 
Q 3944 3084 3684 2787 
Q 3425 2491 3425 1978 
L 3425 0 
L 2847 0 
L 2847 2094 
Q 2847 2600 2669 2842 
Q 2491 3084 2119 3084 
Q 1678 3084 1418 2786 
Q 1159 2488 1159 1978 
L 1159 0 
L 581 0 
L 581 3500 
L 1159 3500 
L 1159 2956 
Q 1356 3278 1631 3431 
Q 1906 3584 2284 3584 
Q 2666 3584 2933 3390 
Q 3200 3197 3328 2828 
z
" transform="scale(0.015625)"/>
       <path id="DejaVuSans-65" d="M 3597 1894 
L 3597 1613 
L 953 1613 
Q 991 1019 1311 708 
Q 1631 397 2203 397 
Q 2534 397 2845 478 
Q 3156 559 3463 722 
L 3463 178 
Q 3153 47 2828 -22 
Q 2503 -91 2169 -91 
Q 1331 -91 842 396 
Q 353 884 353 1716 
Q 353 2575 817 3079 
Q 1281 3584 2069 3584 
Q 2775 3584 3186 3129 
Q 3597 2675 3597 1894 
z
M 3022 2063 
Q 3016 2534 2758 2815 
Q 2500 3097 2075 3097 
Q 1594 3097 1305 2825 
Q 1016 2553 972 2059 
L 3022 2063 
z
" transform="scale(0.015625)"/>
      </defs>
      <use xlink:href="#DejaVuSans-4c"/>
      <use xlink:href="#DejaVuSans-6f" transform="translate(53.962891 0)"/>
      <use xlink:href="#DejaVuSans-67" transform="translate(115.144531 0)"/>
      <use xlink:href="#DejaVuSans-20" transform="translate(178.621094 0)"/>
      <use xlink:href="#DejaVuSans-74" transform="translate(210.408203 0)"/>
      <use xlink:href="#DejaVuSans-69" transform="translate(249.617188 0)"/>
      <use xlink:href="#DejaVuSans-6d" transform="translate(277.400391 0)"/>
      <use xlink:href="#DejaVuSans-65" transform="translate(374.8125 0)"/>
      <use xlink:href="#DejaVuSans-20" transform="translate(436.335938 0)"/>
     </g>
    </g>
   </g>
   <g id="matplotlib.axis_2">
    <g id="ytick_1">
     <g id="line2d_46">
      <defs>
       <path id="m696e8e77ca" d="M 0 0 
L -3.5 0 
" style="stroke: #000000; stroke-width: 0.8"/>
      </defs>
      <g>
       <use xlink:href="#m696e8e77ca" x="57.6" y="295.488" style="stroke: #000000; stroke-width: 0.8"/>
      </g>
     </g>
     <g id="text_7">
      <!-- 0.0 -->
      <g transform="translate(34.696875 299.287219) scale(0.1 -0.1)">
       <defs>
        <path id="DejaVuSans-2e" d="M 684 794 
L 1344 794 
L 1344 0 
L 684 0 
L 684 794 
z
" transform="scale(0.015625)"/>
       </defs>
       <use xlink:href="#DejaVuSans-30"/>
       <use xlink:href="#DejaVuSans-2e" transform="translate(63.623047 0)"/>
       <use xlink:href="#DejaVuSans-30" transform="translate(95.410156 0)"/>
      </g>
     </g>
    </g>
    <g id="ytick_2">
     <g id="line2d_47">
      <g>
       <use xlink:href="#m696e8e77ca" x="57.6" y="242.988" style="stroke: #000000; stroke-width: 0.8"/>
      </g>
     </g>
     <g id="text_8">
      <!-- 0.2 -->
      <g transform="translate(34.696875 246.787219) scale(0.1 -0.1)">
       <use xlink:href="#DejaVuSans-30"/>
       <use xlink:href="#DejaVuSans-2e" transform="translate(63.623047 0)"/>
       <use xlink:href="#DejaVuSans-32" transform="translate(95.410156 0)"/>
      </g>
     </g>
    </g>
    <g id="ytick_3">
     <g id="line2d_48">
      <g>
       <use xlink:href="#m696e8e77ca" x="57.6" y="190.488" style="stroke: #000000; stroke-width: 0.8"/>
      </g>
     </g>
     <g id="text_9">
      <!-- 0.4 -->
      <g transform="translate(34.696875 194.287219) scale(0.1 -0.1)">
       <defs>
        <path id="DejaVuSans-34" d="M 2419 4116 
L 825 1625 
L 2419 1625 
L 2419 4116 
z
M 2253 4666 
L 3047 4666 
L 3047 1625 
L 3713 1625 
L 3713 1100 
L 3047 1100 
L 3047 0 
L 2419 0 
L 2419 1100 
L 313 1100 
L 313 1709 
L 2253 4666 
z
" transform="scale(0.015625)"/>
       </defs>
       <use xlink:href="#DejaVuSans-30"/>
       <use xlink:href="#DejaVuSans-2e" transform="translate(63.623047 0)"/>
       <use xlink:href="#DejaVuSans-34" transform="translate(95.410156 0)"/>
      </g>
     </g>
    </g>
    <g id="ytick_4">
     <g id="line2d_49">
      <g>
       <use xlink:href="#m696e8e77ca" x="57.6" y="137.988" style="stroke: #000000; stroke-width: 0.8"/>
      </g>
     </g>
     <g id="text_10">
      <!-- 0.6 -->
      <g transform="translate(34.696875 141.787219) scale(0.1 -0.1)">
       <defs>
        <path id="DejaVuSans-36" d="M 2113 2584 
Q 1688 2584 1439 2293 
Q 1191 2003 1191 1497 
Q 1191 994 1439 701 
Q 1688 409 2113 409 
Q 2538 409 2786 701 
Q 3034 994 3034 1497 
Q 3034 2003 2786 2293 
Q 2538 2584 2113 2584 
z
M 3366 4563 
L 3366 3988 
Q 3128 4100 2886 4159 
Q 2644 4219 2406 4219 
Q 1781 4219 1451 3797 
Q 1122 3375 1075 2522 
Q 1259 2794 1537 2939 
Q 1816 3084 2150 3084 
Q 2853 3084 3261 2657 
Q 3669 2231 3669 1497 
Q 3669 778 3244 343 
Q 2819 -91 2113 -91 
Q 1303 -91 875 529 
Q 447 1150 447 2328 
Q 447 3434 972 4092 
Q 1497 4750 2381 4750 
Q 2619 4750 2861 4703 
Q 3103 4656 3366 4563 
z
" transform="scale(0.015625)"/>
       </defs>
       <use xlink:href="#DejaVuSans-30"/>
       <use xlink:href="#DejaVuSans-2e" transform="translate(63.623047 0)"/>
       <use xlink:href="#DejaVuSans-36" transform="translate(95.410156 0)"/>
      </g>
     </g>
    </g>
    <g id="ytick_5">
     <g id="line2d_50">
      <g>
       <use xlink:href="#m696e8e77ca" x="57.6" y="85.488" style="stroke: #000000; stroke-width: 0.8"/>
      </g>
     </g>
     <g id="text_11">
      <!-- 0.8 -->
      <g transform="translate(34.696875 89.287219) scale(0.1 -0.1)">
       <defs>
        <path id="DejaVuSans-38" d="M 2034 2216 
Q 1584 2216 1326 1975 
Q 1069 1734 1069 1313 
Q 1069 891 1326 650 
Q 1584 409 2034 409 
Q 2484 409 2743 651 
Q 3003 894 3003 1313 
Q 3003 1734 2745 1975 
Q 2488 2216 2034 2216 
z
M 1403 2484 
Q 997 2584 770 2862 
Q 544 3141 544 3541 
Q 544 4100 942 4425 
Q 1341 4750 2034 4750 
Q 2731 4750 3128 4425 
Q 3525 4100 3525 3541 
Q 3525 3141 3298 2862 
Q 3072 2584 2669 2484 
Q 3125 2378 3379 2068 
Q 3634 1759 3634 1313 
Q 3634 634 3220 271 
Q 2806 -91 2034 -91 
Q 1263 -91 848 271 
Q 434 634 434 1313 
Q 434 1759 690 2068 
Q 947 2378 1403 2484 
z
M 1172 3481 
Q 1172 3119 1398 2916 
Q 1625 2713 2034 2713 
Q 2441 2713 2670 2916 
Q 2900 3119 2900 3481 
Q 2900 3844 2670 4047 
Q 2441 4250 2034 4250 
Q 1625 4250 1398 4047 
Q 1172 3844 1172 3481 
z
" transform="scale(0.015625)"/>
       </defs>
       <use xlink:href="#DejaVuSans-30"/>
       <use xlink:href="#DejaVuSans-2e" transform="translate(63.623047 0)"/>
       <use xlink:href="#DejaVuSans-38" transform="translate(95.410156 0)"/>
      </g>
     </g>
    </g>
    <g id="text_12">
     <!-- Percent of filled traps -->
     <g transform="translate(28.617187 227.95925) rotate(-90) scale(0.1 -0.1)">
      <defs>
       <path id="DejaVuSans-50" d="M 1259 4147 
L 1259 2394 
L 2053 2394 
Q 2494 2394 2734 2622 
Q 2975 2850 2975 3272 
Q 2975 3691 2734 3919 
Q 2494 4147 2053 4147 
L 1259 4147 
z
M 628 4666 
L 2053 4666 
Q 2838 4666 3239 4311 
Q 3641 3956 3641 3272 
Q 3641 2581 3239 2228 
Q 2838 1875 2053 1875 
L 1259 1875 
L 1259 0 
L 628 0 
L 628 4666 
z
" transform="scale(0.015625)"/>
       <path id="DejaVuSans-72" d="M 2631 2963 
Q 2534 3019 2420 3045 
Q 2306 3072 2169 3072 
Q 1681 3072 1420 2755 
Q 1159 2438 1159 1844 
L 1159 0 
L 581 0 
L 581 3500 
L 1159 3500 
L 1159 2956 
Q 1341 3275 1631 3429 
Q 1922 3584 2338 3584 
Q 2397 3584 2469 3576 
Q 2541 3569 2628 3553 
L 2631 2963 
z
" transform="scale(0.015625)"/>
       <path id="DejaVuSans-63" d="M 3122 3366 
L 3122 2828 
Q 2878 2963 2633 3030 
Q 2388 3097 2138 3097 
Q 1578 3097 1268 2742 
Q 959 2388 959 1747 
Q 959 1106 1268 751 
Q 1578 397 2138 397 
Q 2388 397 2633 464 
Q 2878 531 3122 666 
L 3122 134 
Q 2881 22 2623 -34 
Q 2366 -91 2075 -91 
Q 1284 -91 818 406 
Q 353 903 353 1747 
Q 353 2603 823 3093 
Q 1294 3584 2113 3584 
Q 2378 3584 2631 3529 
Q 2884 3475 3122 3366 
z
" transform="scale(0.015625)"/>
       <path id="DejaVuSans-6e" d="M 3513 2113 
L 3513 0 
L 2938 0 
L 2938 2094 
Q 2938 2591 2744 2837 
Q 2550 3084 2163 3084 
Q 1697 3084 1428 2787 
Q 1159 2491 1159 1978 
L 1159 0 
L 581 0 
L 581 3500 
L 1159 3500 
L 1159 2956 
Q 1366 3272 1645 3428 
Q 1925 3584 2291 3584 
Q 2894 3584 3203 3211 
Q 3513 2838 3513 2113 
z
" transform="scale(0.015625)"/>
       <path id="DejaVuSans-66" d="M 2375 4863 
L 2375 4384 
L 1825 4384 
Q 1516 4384 1395 4259 
Q 1275 4134 1275 3809 
L 1275 3500 
L 2222 3500 
L 2222 3053 
L 1275 3053 
L 1275 0 
L 697 0 
L 697 3053 
L 147 3053 
L 147 3500 
L 697 3500 
L 697 3744 
Q 697 4328 969 4595 
Q 1241 4863 1831 4863 
L 2375 4863 
z
" transform="scale(0.015625)"/>
       <path id="DejaVuSans-6c" d="M 603 4863 
L 1178 4863 
L 1178 0 
L 603 0 
L 603 4863 
z
" transform="scale(0.015625)"/>
       <path id="DejaVuSans-64" d="M 2906 2969 
L 2906 4863 
L 3481 4863 
L 3481 0 
L 2906 0 
L 2906 525 
Q 2725 213 2448 61 
Q 2172 -91 1784 -91 
Q 1150 -91 751 415 
Q 353 922 353 1747 
Q 353 2572 751 3078 
Q 1150 3584 1784 3584 
Q 2172 3584 2448 3432 
Q 2725 3281 2906 2969 
z
M 947 1747 
Q 947 1113 1208 752 
Q 1469 391 1925 391 
Q 2381 391 2643 752 
Q 2906 1113 2906 1747 
Q 2906 2381 2643 2742 
Q 2381 3103 1925 3103 
Q 1469 3103 1208 2742 
Q 947 2381 947 1747 
z
" transform="scale(0.015625)"/>
       <path id="DejaVuSans-61" d="M 2194 1759 
Q 1497 1759 1228 1600 
Q 959 1441 959 1056 
Q 959 750 1161 570 
Q 1363 391 1709 391 
Q 2188 391 2477 730 
Q 2766 1069 2766 1631 
L 2766 1759 
L 2194 1759 
z
M 3341 1997 
L 3341 0 
L 2766 0 
L 2766 531 
Q 2569 213 2275 61 
Q 1981 -91 1556 -91 
Q 1019 -91 701 211 
Q 384 513 384 1019 
Q 384 1609 779 1909 
Q 1175 2209 1959 2209 
L 2766 2209 
L 2766 2266 
Q 2766 2663 2505 2880 
Q 2244 3097 1772 3097 
Q 1472 3097 1187 3025 
Q 903 2953 641 2809 
L 641 3341 
Q 956 3463 1253 3523 
Q 1550 3584 1831 3584 
Q 2591 3584 2966 3190 
Q 3341 2797 3341 1997 
z
" transform="scale(0.015625)"/>
       <path id="DejaVuSans-70" d="M 1159 525 
L 1159 -1331 
L 581 -1331 
L 581 3500 
L 1159 3500 
L 1159 2969 
Q 1341 3281 1617 3432 
Q 1894 3584 2278 3584 
Q 2916 3584 3314 3078 
Q 3713 2572 3713 1747 
Q 3713 922 3314 415 
Q 2916 -91 2278 -91 
Q 1894 -91 1617 61 
Q 1341 213 1159 525 
z
M 3116 1747 
Q 3116 2381 2855 2742 
Q 2594 3103 2138 3103 
Q 1681 3103 1420 2742 
Q 1159 2381 1159 1747 
Q 1159 1113 1420 752 
Q 1681 391 2138 391 
Q 2594 391 2855 752 
Q 3116 1113 3116 1747 
z
" transform="scale(0.015625)"/>
       <path id="DejaVuSans-73" d="M 2834 3397 
L 2834 2853 
Q 2591 2978 2328 3040 
Q 2066 3103 1784 3103 
Q 1356 3103 1142 2972 
Q 928 2841 928 2578 
Q 928 2378 1081 2264 
Q 1234 2150 1697 2047 
L 1894 2003 
Q 2506 1872 2764 1633 
Q 3022 1394 3022 966 
Q 3022 478 2636 193 
Q 2250 -91 1575 -91 
Q 1294 -91 989 -36 
Q 684 19 347 128 
L 347 722 
Q 666 556 975 473 
Q 1284 391 1588 391 
Q 1994 391 2212 530 
Q 2431 669 2431 922 
Q 2431 1156 2273 1281 
Q 2116 1406 1581 1522 
L 1381 1569 
Q 847 1681 609 1914 
Q 372 2147 372 2553 
Q 372 3047 722 3315 
Q 1072 3584 1716 3584 
Q 2034 3584 2315 3537 
Q 2597 3491 2834 3397 
z
" transform="scale(0.015625)"/>
      </defs>
      <use xlink:href="#DejaVuSans-50"/>
      <use xlink:href="#DejaVuSans-65" transform="translate(56.677734 0)"/>
      <use xlink:href="#DejaVuSans-72" transform="translate(118.201172 0)"/>
      <use xlink:href="#DejaVuSans-63" transform="translate(157.064453 0)"/>
      <use xlink:href="#DejaVuSans-65" transform="translate(212.044922 0)"/>
      <use xlink:href="#DejaVuSans-6e" transform="translate(273.568359 0)"/>
      <use xlink:href="#DejaVuSans-74" transform="translate(336.947266 0)"/>
      <use xlink:href="#DejaVuSans-20" transform="translate(376.15625 0)"/>
      <use xlink:href="#DejaVuSans-6f" transform="translate(407.943359 0)"/>
      <use xlink:href="#DejaVuSans-66" transform="translate(469.125 0)"/>
      <use xlink:href="#DejaVuSans-20" transform="translate(504.330078 0)"/>
      <use xlink:href="#DejaVuSans-66" transform="translate(536.117188 0)"/>
      <use xlink:href="#DejaVuSans-69" transform="translate(571.322266 0)"/>
      <use xlink:href="#DejaVuSans-6c" transform="translate(599.105469 0)"/>
      <use xlink:href="#DejaVuSans-6c" transform="translate(626.888672 0)"/>
      <use xlink:href="#DejaVuSans-65" transform="translate(654.671875 0)"/>
      <use xlink:href="#DejaVuSans-64" transform="translate(716.195312 0)"/>
      <use xlink:href="#DejaVuSans-20" transform="translate(779.671875 0)"/>
      <use xlink:href="#DejaVuSans-74" transform="translate(811.458984 0)"/>
      <use xlink:href="#DejaVuSans-72" transform="translate(850.667969 0)"/>
      <use xlink:href="#DejaVuSans-61" transform="translate(891.78125 0)"/>
      <use xlink:href="#DejaVuSans-70" transform="translate(953.060547 0)"/>
      <use xlink:href="#DejaVuSans-73" transform="translate(1016.537109 0)"/>
     </g>
    </g>
   </g>
   <g id="line2d_51">
    <path d="M 73.832727 271.758 
L 205.955982 270.9705 
L 225.598393 270.183 
L 227.63455 269.448 
L 253.093942 268.73925 
L 254.979867 268.0305 
L 257.15663 267.37425 
L 258.744023 266.74425 
L 262.910053 266.11425 
L 269.218258 265.48425 
L 269.218258 264.85425 
L 277.374786 264.17175 
L 278.501252 263.48925 
L 278.777608 262.80675 
L 279.605056 262.12425 
L 279.605056 261.44175 
L 280.00957 260.75925 
L 280.850819 260.103 
L 281.793727 258.7905 
L 283.828351 258.1605 
L 285.013022 256.953 
L 286.690256 256.3755 
L 286.690256 255.168 
L 289.178525 254.4855 
L 290.632763 253.803 
L 291.39875 253.1205 
L 291.42305 252.438 
L 297.990184 251.78175 
L 298.511747 250.52175 
L 298.807613 249.89175 
L 299.595178 249.26175 
L 299.731971 248.68425 
L 300.047215 248.10675 
L 300.047215 247.52925 
L 302.354378 246.95175 
L 303.318891 246.37425 
L 307.385812 245.823 
L 307.473145 244.668 
L 307.903817 242.148 
L 310.790297 240.86175 
L 310.890556 239.54925 
L 311.633416 238.86675 
L 311.633416 238.23675 
L 312.147145 236.87175 
L 312.147145 236.2155 
L 312.860385 234.82425 
L 314.174526 234.168 
L 314.511361 233.51175 
L 314.52355 232.8555 
L 315.060735 232.19925 
L 316.314211 231.543 
L 316.376451 230.88675 
L 318.366793 230.2305 
L 318.366793 229.57425 
L 319.698282 226.10925 
L 319.698282 225.42675 
L 320.27419 224.718 
L 321.456366 224.00925 
L 323.566966 223.3005 
L 323.960684 222.59175 
L 324.151666 220.54425 
L 325.277433 218.628 
L 325.64239 217.39425 
L 325.64239 216.7905 
L 326.650311 216.1605 
L 327.025773 215.5305 
L 327.025773 214.953 
L 328.656136 214.34925 
L 329.078318 213.1155 
L 329.152936 212.538 
L 330.944721 210.77925 
L 331.9824 209.0205 
L 332.212014 206.52675 
L 333.538691 205.8705 
L 334.397288 203.298 
L 334.397288 202.64175 
L 334.751922 201.933 
L 335.299868 201.2505 
L 335.358506 200.59425 
L 336.488035 199.96425 
L 336.516613 198.70425 
L 336.993749 198.07425 
L 339.339758 196.18425 
L 339.416808 195.003 
L 339.429004 193.2705 
L 340.044375 192.71925 
L 340.203928 192.168 
L 340.862337 191.118 
L 341.628419 190.0155 
L 341.628419 189.4905 
L 342.254697 188.3355 
L 342.254697 187.758 
L 342.607448 186.603 
L 342.750744 186.05175 
L 342.750744 185.52675 
L 343.657805 184.42425 
L 343.725918 183.37425 
L 344.563492 182.84925 
L 344.786486 181.8255 
L 345.138351 180.38175 
L 345.746665 179.96175 
L 346.642164 178.7805 
L 348.103401 176.23425 
L 348.135621 174.86925 
L 348.302707 174.55425 
L 348.781703 174.2655 
L 348.820936 174.003 
L 350.785742 172.87425 
L 353.077257 171.35175 
L 353.147494 170.77425 
L 353.331532 170.51175 
L 353.428102 168.41175 
L 355.0088 167.2305 
L 355.05536 166.3905 
L 355.927182 165.288 
L 355.927182 165.05175 
L 356.331911 164.5005 
L 356.687837 163.713 
L 356.912279 162.84675 
L 357.136485 162.26925 
L 357.63542 160.1955 
L 357.918906 159.2505 
L 358.023047 158.01675 
L 359.105797 154.39425 
L 359.360641 154.13175 
L 359.417337 153.633 
L 359.975403 150.798 
L 360.003937 150.14175 
L 360.655951 148.30425 
L 360.655951 148.04175 
L 361.096494 147.438 
L 361.247358 145.968 
L 361.292635 145.67925 
L 362.621065 144.813 
L 362.63653 144.498 
L 363.849385 143.238 
L 364.43832 142.58175 
L 364.534203 140.193 
L 364.639083 137.3055 
L 364.866285 136.9905 
L 365.994842 136.098 
L 366.015731 134.86425 
L 366.417591 134.49675 
L 366.417591 134.1555 
L 366.731854 132.92175 
L 366.770006 132.528 
L 367.697363 131.39925 
L 367.860861 130.2705 
L 368.574663 129.45675 
L 368.768055 127.93425 
L 369.46696 127.173 
L 369.563176 121.713 
L 369.857301 120.138 
L 370.346027 118.27425 
L 370.514708 117.06675 
L 370.514708 116.673 
L 371.030653 114.8355 
L 371.108666 114.12675 
L 371.225332 111.39675 
L 371.729662 107.853 
L 374.085415 106.6455 
L 376.392288 105.41175 
L 376.891302 101.78925 
L 377.334694 101.05425 
L 377.37473 100.398 
L 377.451328 100.16175 
L 377.816589 99.95175 
L 378.010706 99.26925 
L 378.249513 98.58675 
L 378.487011 97.90425 
L 378.76308 97.248 
L 379.478746 96.2505 
L 380.111288 92.65425 
L 380.199971 92.18175 
L 381.523009 90.633 
L 381.651544 89.8455 
L 382.785087 87.798 
L 383.092275 87.3255 
L 383.625165 86.19675 
L 383.787805 82.8105 
L 383.966293 81.89175 
L 384.096779 80.84175 
L 384.286804 76.4055 
L 384.560079 75.198 
L 384.786115 74.568 
L 385.421042 71.28675 
L 385.665447 70.263 
L 388.918685 68.13675 
L 389.731147 67.4805 
L 389.976159 67.113 
L 390.242916 65.013 
L 390.373397 64.2255 
L 390.467729 63.93675 
L 391.166134 62.36175 
L 393.763865 61.25925 
L 393.877944 60.8655 
L 394.246327 60.2355 
L 394.619119 57.768 
L 394.99866 57.26925 
L 395.208899 56.7705 
L 395.528463 55.563 
L 396.05201 55.11675 
L 396.371958 54.4605 
L 396.760948 53.568 
L 397.343451 149.853 
L 397.726776 178.85925 
L 397.90418 227.448 
L 398.254668 261.468 
L 398.432604 290.6055 
L -1 290.632708 
L -1 290.632708 
" clip-path="url(#pb00898a82e)" style="fill: none; stroke-dasharray: 1.85,0.8; stroke-dashoffset: 0; stroke: #8000ff; stroke-width: 0.5"/>
   </g>
   <g id="line2d_52">
    <path d="M 126.487578 271.73175 
L 189.604935 270.83925 
L 209.23786 269.94675 
L 241.861775 269.10675 
L 251.092011 268.293 
L 255.58296 267.5055 
L 261.43447 266.718 
L 261.43447 265.95675 
L 262.814459 265.143 
L 262.814459 264.38175 
L 263.179843 262.80675 
L 271.616887 262.01925 
L 272.699734 261.28425 
L 275.236924 260.54925 
L 278.747762 259.8405 
L 279.110039 259.13175 
L 280.931708 258.44925 
L 285.206344 257.76675 
L 285.206344 256.45425 
L 285.341341 255.77175 
L 286.074456 255.08925 
L 288.065882 254.40675 
L 288.726242 253.77675 
L 293.385797 252.51675 
L 293.569337 251.88675 
L 294.921107 251.25675 
L 295.168258 250.62675 
L 297.395164 249.41925 
L 297.567188 248.8155 
L 300.116594 248.26425 
L 300.116594 247.73925 
L 300.638123 247.16175 
L 303.211017 246.11175 
L 303.636622 244.0905 
L 303.756639 243.5655 
L 304.347123 243.093 
L 304.564453 242.64675 
L 306.278807 241.75425 
L 308.769363 240.33675 
L 309.213682 239.3655 
L 309.213682 238.86675 
L 312.26087 237.843 
L 313.678155 237.318 
L 318.732879 236.24175 
L 318.80475 235.13925 
L 318.876454 234.5355 
L 319.729351 234.0105 
L 319.784022 232.9605 
L 322.356822 231.9105 
L 322.920183 230.88675 
L 322.920183 230.388 
L 323.342803 229.863 
L 323.342803 229.36425 
L 323.892882 228.813 
L 324.077126 228.31425 
L 324.090067 227.2905 
L 325.136955 226.26675 
L 325.344382 225.2955 
L 325.737659 223.95675 
L 325.737659 223.5105 
L 327.116366 222.48675 
L 327.116366 221.96175 
L 327.36068 221.43675 
L 327.372532 220.3605 
L 331.197583 219.38925 
L 331.492496 218.943 
L 331.492496 218.523 
L 331.982698 217.6305 
L 332.767789 217.18425 
L 333.974609 216.76425 
L 334.327227 215.50425 
L 335.282503 214.71675 
L 335.282503 214.3755 
L 335.430245 213.98175 
L 336.995941 213.2205 
L 336.997145 212.9055 
L 337.406287 212.013 
L 337.406287 211.72425 
L 337.731978 210.62175 
L 340.742165 208.04925 
L 340.848308 207.31425 
L 341.056554 205.63425 
L 341.966633 203.27175 
L 342.495772 202.79925 
L 342.698847 202.32675 
L 343.259419 201.8805 
L 343.26394 200.9355 
L 343.647293 200.48925 
L 343.647293 199.54425 
L 344.724129 196.97175 
L 344.783967 195.97425 
L 346.357608 195.003 
L 346.598939 191.8005 
L 346.858044 191.2755 
L 346.873183 190.25175 
L 347.117336 189.72675 
L 347.290465 188.67675 
L 347.944682 182.508 
L 348.379391 182.06175 
L 348.649259 180.7755 
L 349.41824 179.3055 
L 349.826839 177.9405 
L 349.826839 177.59925 
L 350.744937 175.5255 
L 350.834251 173.8455 
L 351.881366 172.40175 
L 351.978775 171.71925 
L 352.198137 170.0655 
L 352.872285 169.1205 
L 352.885844 168.7005 
L 353.953499 168.018 
L 353.953499 167.808 
L 354.469299 167.57175 
L 354.469299 167.36175 
L 354.678632 167.09925 
L 354.716169 166.3905 
L 355.333227 164.68425 
L 355.384256 164.15925 
L 355.893655 163.0305 
L 356.38603 162.348 
L 356.521429 161.508 
L 356.54638 161.06175 
L 358.717492 160.038 
L 359.237118 159.7755 
L 359.289065 159.2505 
L 359.928955 158.64675 
L 360.014289 157.70175 
L 360.913581 156.02175 
L 363.091211 153.81675 
L 363.219749 153.4755 
L 363.286622 152.39925 
L 363.53582 150.92925 
L 363.865403 149.77425 
L 363.965117 147.62175 
L 364.008257 147.1755 
L 364.926152 145.338 
L 365.027422 142.37175 
L 365.180626 141.453 
L 365.65216 139.3005 
L 365.65216 138.933 
L 365.894396 138.1455 
L 366.384606 136.0455 
L 367.37187 135.2055 
L 367.682964 133.65675 
L 368.429506 129.378 
L 369.505685 126.7005 
L 370.240384 125.93925 
L 370.337507 125.51925 
L 370.407408 124.46925 
L 370.574779 124.20675 
L 370.574779 124.128 
L 371.089436 123.7605 
L 371.137465 123.2355 
L 372.317271 122.343 
L 372.317271 122.31675 
L 375.145947 121.47675 
L 376.033787 120.978 
L 377.326927 120.11175 
L 377.423818 119.37675 
L 377.705036 118.43175 
L 378.239778 117.6705 
L 378.255071 115.96425 
L 380.51568 114.23175 
L 382.032302 112.86675 
L 382.428842 111.2655 
L 382.862507 110.45175 
L 383.201637 110.13675 
L 383.692164 108.7455 
L 384.24757 108.1155 
L 384.676805 106.77675 
L 384.930337 106.278 
L 385.007313 105.56925 
L 385.367262 103.94175 
L 386.045979 100.923 
L 386.578149 98.69175 
L 386.851533 97.5105 
L 386.9568 95.43675 
L 387.027485 93.9405 
L 387.959076 92.313 
L 388.286502 91.683 
L 388.459949 90.86925 
L 389.265738 88.40175 
L 389.366296 87.98175 
L 389.537653 87.24675 
L 390.428143 86.328 
L 390.681685 83.99175 
L 391.501905 79.6605 
L 391.740028 78.0855 
L 392.10394 77.403 
L 392.69998 76.6155 
L 394.113371 75.408 
L 394.805414 64.30425 
L 395.147967 62.493 
L 395.447084 62.493 
L 395.641095 62.7555 
L 395.708976 62.913 
L 395.999561 114.5205 
L 396.088079 137.8305 
L 396.397044 202.90425 
L 396.471019 230.808 
L 398.487273 290.868 
L -1 290.893749 
L -1 290.893749 
" clip-path="url(#pb00898a82e)" style="fill: none; stroke-dasharray: 1.85,0.8; stroke-dashoffset: 0; stroke: #8000ff; stroke-width: 0.5"/>
   </g>
   <g id="line2d_53">
    <path d="M 204.204983 273.56925 
L 212.803209 272.72925 
L 229.14231 271.968 
L 229.14231 271.20675 
L 232.308561 270.41925 
L 250.603194 269.63175 
L 250.666071 268.84425 
L 252.402915 266.58675 
L 257.844728 265.248 
L 260.634784 264.59175 
L 261.436269 263.9355 
L 261.436269 263.27925 
L 270.623806 262.5705 
L 270.623806 261.86175 
L 277.253979 261.153 
L 278.097056 260.44425 
L 278.418852 259.7355 
L 278.59282 257.7405 
L 280.597897 257.03175 
L 280.597897 256.3755 
L 280.785827 255.66675 
L 281.709601 255.0105 
L 282.015869 254.35425 
L 282.475883 253.7505 
L 283.619053 253.14675 
L 287.463344 252.5955 
L 287.463344 252.04425 
L 289.911854 251.493 
L 290.114066 250.94175 
L 296.935332 250.443 
L 297.200479 248.94675 
L 297.38077 248.42175 
L 297.38077 247.89675 
L 297.952162 247.37175 
L 298.142349 246.84675 
L 298.961369 246.32175 
L 301.867861 245.4555 
L 301.867861 245.0355 
L 303.194258 244.6155 
L 303.522041 244.1955 
L 305.349604 243.3555 
L 305.633434 242.96175 
L 305.633434 242.568 
L 306.958367 241.75425 
L 307.521494 241.33425 
L 310.135497 240.91425 
L 310.301863 240.54675 
L 310.301863 240.17925 
L 311.239148 239.75925 
L 311.239148 239.33925 
L 313.123391 238.07925 
L 315.394324 237.23925 
L 315.447343 236.4255 
L 316.140746 235.5855 
L 319.383435 234.40425 
L 319.479719 232.51425 
L 319.479719 232.09425 
L 320.043903 231.62175 
L 320.043903 231.14925 
L 320.694642 230.62425 
L 320.694642 230.1255 
L 321.168575 229.57425 
L 321.168575 229.0755 
L 322.801201 228.52425 
L 323.753572 227.42175 
L 323.774212 226.89675 
L 323.988934 226.37175 
L 323.988934 225.84675 
L 324.777141 224.718 
L 324.777141 224.16675 
L 327.407323 222.8805 
L 327.407323 222.22425 
L 327.787787 221.568 
L 327.936031 220.91175 
L 328.19726 220.28175 
L 330.403472 219.048 
L 330.490944 217.8405 
L 330.586427 216.5805 
L 330.588153 215.34675 
L 330.938701 213.45675 
L 330.994201 211.35675 
L 331.416222 210.04425 
L 332.188975 208.758 
L 332.188975 208.128 
L 333.402387 206.84175 
L 334.862555 206.1855 
L 334.862555 205.52925 
L 335.120718 204.8205 
L 335.216623 203.403 
L 335.692501 202.668 
L 335.829448 201.198 
L 336.343838 200.48925 
L 337.227449 199.80675 
L 337.319107 197.81175 
L 337.614057 197.12925 
L 337.638346 196.473 
L 338.280562 194.55675 
L 338.309352 193.953 
L 338.582575 193.34925 
L 338.889702 191.09175 
L 339.234103 190.5405 
L 339.309246 189.4905 
L 339.555828 187.41675 
L 340.051316 186.89175 
L 340.055979 186.393 
L 340.294888 185.9205 
L 340.319287 185.3955 
L 341.62425 184.31925 
L 341.924041 183.768 
L 342.112477 182.16675 
L 342.243408 181.69425 
L 342.24868 180.74925 
L 342.392966 180.27675 
L 342.454523 178.833 
L 343.113265 175.39425 
L 343.436769 174.97425 
L 343.608884 173.45175 
L 343.608884 173.08425 
L 344.427724 172.66425 
L 348.614515 170.958 
L 348.614515 170.51175 
L 349.596319 169.5405 
L 349.596319 169.068 
L 350.165264 168.0705 
L 351.582252 167.15175 
L 351.582252 166.73175 
L 352.040786 166.2855 
L 352.082526 165.3405 
L 352.325374 164.868 
L 352.325374 164.42175 
L 353.290849 161.00925 
L 353.596805 160.16925 
L 353.688101 159.38175 
L 354.195856 157.22925 
L 354.660318 156.363 
L 354.831394 155.5755 
L 355.45422 154.81425 
L 356.129724 154.02675 
L 356.20606 152.39925 
L 356.312154 151.50675 
L 356.649287 151.08675 
L 356.696726 149.538 
L 356.825092 148.09425 
L 357.069965 146.72925 
L 357.151484 145.67925 
L 357.254752 144.99675 
L 357.282006 144.288 
L 357.589596 143.6055 
L 357.589596 143.2905 
L 357.764765 142.923 
L 357.764765 142.5555 
L 357.976797 141.79425 
L 357.976797 141.42675 
L 358.567442 140.58675 
L 358.58639 139.79925 
L 358.719446 139.43175 
L 358.728988 138.69675 
L 359.080898 137.9355 
L 359.173103 137.148 
L 359.284346 136.308 
L 359.303646 135.86175 
L 359.766066 134.418 
L 359.947639 133.683 
L 361.179616 131.793 
L 361.66694 128.2755 
L 361.806428 125.88675 
L 361.845787 125.493 
L 364.802584 120.453 
L 364.868211 119.37675 
L 364.998325 119.06175 
L 365.086455 118.4055 
L 365.391925 118.0905 
L 365.475275 117.22425 
L 365.91365 115.70175 
L 366.80807 114.6255 
L 367.429123 113.8905 
L 367.530782 113.103 
L 367.936688 109.953 
L 368.223175 109.66425 
L 368.326741 109.428 
L 369.035316 109.1655 
L 369.427032 105.98925 
L 369.893054 105.123 
L 369.893054 104.9655 
L 371.450355 102.813 
L 371.450355 102.62925 
L 371.566461 102.2355 
L 371.851675 101.133 
L 372.225231 100.1355 
L 372.469914 98.403 
L 372.788916 97.74675 
L 373.3094 96.95925 
L 373.379553 96.69675 
L 373.657877 96.53925 
L 374.042963 95.988 
L 374.048709 93.3105 
L 374.321236 92.75925 
L 374.410071 92.3655 
L 374.501345 90.81675 
L 375.624609 88.76925 
L 377.09203 87.50925 
L 377.93998 86.61675 
L 378.288315 84.963 
L 378.561602 83.36175 
L 378.57281 83.178 
L 379.296903 82.7055 
L 380.004323 82.31175 
L 380.67289 81.7605 
L 381.211963 80.868 
L 381.464443 80.448 
L 383.177801 79.2405 
L 389.295947 78.21675 
L 391.358786 77.613 
L 391.419387 77.21925 
L 391.638631 76.64175 
L 392.820472 71.8905 
L 392.924765 71.103 
L 393.104702 70.368 
L 393.683573 69.18675 
L 393.898272 68.0055 
L 394.080393 67.50675 
L 394.567584 67.008 
L 395.097876 66.1155 
L 395.880902 64.173 
L 396.355111 63.09675 
L 396.770267 62.5455 
L 397.369586 117.933 
L 397.643025 244.0905 
L 398.271781 281.4705 
L 398.476839 290.8155 
L -1 290.841541 
L -1 290.841541 
" clip-path="url(#pb00898a82e)" style="fill: none; stroke-dasharray: 1.85,0.8; stroke-dashoffset: 0; stroke: #8000ff; stroke-width: 0.5"/>
   </g>
   <g id="patch_3">
    <path d="M 57.6 307.584 
L 57.6 41.472 
" style="fill: none; stroke: #000000; stroke-width: 0.8; stroke-linejoin: miter; stroke-linecap: square"/>
   </g>
   <g id="patch_4">
    <path d="M 414.72 307.584 
L 414.72 41.472 
" style="fill: none; stroke: #000000; stroke-width: 0.8; stroke-linejoin: miter; stroke-linecap: square"/>
   </g>
   <g id="patch_5">
    <path d="M 57.6 307.584 
L 414.72 307.584 
" style="fill: none; stroke: #000000; stroke-width: 0.8; stroke-linejoin: miter; stroke-linecap: square"/>
   </g>
   <g id="patch_6">
    <path d="M 57.6 41.472 
L 414.72 41.472 
" style="fill: none; stroke: #000000; stroke-width: 0.8; stroke-linejoin: miter; stroke-linecap: square"/>
   </g>
   <g id="legend_1">
    <g id="patch_7">
     <path d="M 314.584 81.0832 
L 318.584 81.0832 
Q 320.584 81.0832 320.584 79.0832 
L 320.584 75.0832 
Q 320.584 73.0832 318.584 73.0832 
L 314.584 73.0832 
Q 312.584 73.0832 312.584 75.0832 
L 312.584 79.0832 
Q 312.584 81.0832 314.584 81.0832 
z
" style="fill: #ffffff; opacity: 0.8; stroke: #cccccc; stroke-linejoin: miter"/>
    </g>
   </g>
  </g>
 </g>
 <defs>
  <clipPath id="pb00898a82e">
   <rect x="57.6" y="41.472" width="357.12" height="266.112"/>
  </clipPath>
 </defs>
</svg>
