<?xml version="1.0" encoding="utf-8" standalone="no"?>
<!DOCTYPE svg PUBLIC "-//W3C//DTD SVG 1.1//EN"
  "http://www.w3.org/Graphics/SVG/1.1/DTD/svg11.dtd">
<svg xmlns:xlink="http://www.w3.org/1999/xlink" width="460.8pt" height="345.6pt" viewBox="0 0 460.8 345.6" xmlns="http://www.w3.org/2000/svg" version="1.1">
 <metadata>
  <rdf:RDF xmlns:dc="http://purl.org/dc/elements/1.1/" xmlns:cc="http://creativecommons.org/ns#" xmlns:rdf="http://www.w3.org/1999/02/22-rdf-syntax-ns#">
   <cc:Work>
    <dc:type rdf:resource="http://purl.org/dc/dcmitype/StillImage"/>
    <dc:date>2025-03-12T11:31:44.774999</dc:date>
    <dc:format>image/svg+xml</dc:format>
    <dc:creator>
     <cc:Agent>
      <dc:title>Matplotlib v3.10.0, https://matplotlib.org/</dc:title>
     </cc:Agent>
    </dc:creator>
   </cc:Work>
  </rdf:RDF>
 </metadata>
 <defs>
  <style type="text/css">*{stroke-linejoin: round; stroke-linecap: butt}</style>
 </defs>
 <g id="figure_1">
  <g id="patch_1">
   <path d="M 0 345.6 
L 460.8 345.6 
L 460.8 0 
L 0 0 
z
" style="fill: #ffffff"/>
  </g>
  <g id="axes_1">
   <g id="patch_2">
    <path d="M 40.165 304.64 
L 450 304.64 
L 450 21.72 
L 40.165 21.72 
z
" style="fill: #ffffff"/>
   </g>
   <g id="matplotlib.axis_1">
    <g id="xtick_1">
     <g id="line2d_1">
      <defs>
       <path id="m929d963985" d="M 0 0 
L 0 3.5 
" style="stroke: #000000; stroke-width: 0.8"/>
      </defs>
      <g>
       <use xlink:href="#m929d963985" x="52.019731" y="304.64" style="stroke: #000000; stroke-width: 0.8"/>
      </g>
     </g>
     <g id="text_1">
      <!-- 0 -->
      <g transform="translate(48.838481 319.238437) scale(0.1 -0.1)">
       <defs>
        <path id="DejaVuSans-30" d="M 2034 4250 
Q 1547 4250 1301 3770 
Q 1056 3291 1056 2328 
Q 1056 1369 1301 889 
Q 1547 409 2034 409 
Q 2525 409 2770 889 
Q 3016 1369 3016 2328 
Q 3016 3291 2770 3770 
Q 2525 4250 2034 4250 
z
M 2034 4750 
Q 2819 4750 3233 4129 
Q 3647 3509 3647 2328 
Q 3647 1150 3233 529 
Q 2819 -91 2034 -91 
Q 1250 -91 836 529 
Q 422 1150 422 2328 
Q 422 3509 836 4129 
Q 1250 4750 2034 4750 
z
" transform="scale(0.015625)"/>
       </defs>
       <use xlink:href="#DejaVuSans-30"/>
      </g>
     </g>
    </g>
    <g id="xtick_2">
     <g id="line2d_2">
      <g>
       <use xlink:href="#m929d963985" x="100.345907" y="304.64" style="stroke: #000000; stroke-width: 0.8"/>
      </g>
     </g>
     <g id="text_2">
      <!-- 100 -->
      <g transform="translate(90.802157 319.238437) scale(0.1 -0.1)">
       <defs>
        <path id="DejaVuSans-31" d="M 794 531 
L 1825 531 
L 1825 4091 
L 703 3866 
L 703 4441 
L 1819 4666 
L 2450 4666 
L 2450 531 
L 3481 531 
L 3481 0 
L 794 0 
L 794 531 
z
" transform="scale(0.015625)"/>
       </defs>
       <use xlink:href="#DejaVuSans-31"/>
       <use xlink:href="#DejaVuSans-30" transform="translate(63.623047 0)"/>
       <use xlink:href="#DejaVuSans-30" transform="translate(127.246094 0)"/>
      </g>
     </g>
    </g>
    <g id="xtick_3">
     <g id="line2d_3">
      <g>
       <use xlink:href="#m929d963985" x="148.672082" y="304.64" style="stroke: #000000; stroke-width: 0.8"/>
      </g>
     </g>
     <g id="text_3">
      <!-- 200 -->
      <g transform="translate(139.128332 319.238437) scale(0.1 -0.1)">
       <defs>
        <path id="DejaVuSans-32" d="M 1228 531 
L 3431 531 
L 3431 0 
L 469 0 
L 469 531 
Q 828 903 1448 1529 
Q 2069 2156 2228 2338 
Q 2531 2678 2651 2914 
Q 2772 3150 2772 3378 
Q 2772 3750 2511 3984 
Q 2250 4219 1831 4219 
Q 1534 4219 1204 4116 
Q 875 4013 500 3803 
L 500 4441 
Q 881 4594 1212 4672 
Q 1544 4750 1819 4750 
Q 2544 4750 2975 4387 
Q 3406 4025 3406 3419 
Q 3406 3131 3298 2873 
Q 3191 2616 2906 2266 
Q 2828 2175 2409 1742 
Q 1991 1309 1228 531 
z
" transform="scale(0.015625)"/>
       </defs>
       <use xlink:href="#DejaVuSans-32"/>
       <use xlink:href="#DejaVuSans-30" transform="translate(63.623047 0)"/>
       <use xlink:href="#DejaVuSans-30" transform="translate(127.246094 0)"/>
      </g>
     </g>
    </g>
    <g id="xtick_4">
     <g id="line2d_4">
      <g>
       <use xlink:href="#m929d963985" x="196.998258" y="304.64" style="stroke: #000000; stroke-width: 0.8"/>
      </g>
     </g>
     <g id="text_4">
      <!-- 300 -->
      <g transform="translate(187.454508 319.238437) scale(0.1 -0.1)">
       <defs>
        <path id="DejaVuSans-33" d="M 2597 2516 
Q 3050 2419 3304 2112 
Q 3559 1806 3559 1356 
Q 3559 666 3084 287 
Q 2609 -91 1734 -91 
Q 1441 -91 1130 -33 
Q 819 25 488 141 
L 488 750 
Q 750 597 1062 519 
Q 1375 441 1716 441 
Q 2309 441 2620 675 
Q 2931 909 2931 1356 
Q 2931 1769 2642 2001 
Q 2353 2234 1838 2234 
L 1294 2234 
L 1294 2753 
L 1863 2753 
Q 2328 2753 2575 2939 
Q 2822 3125 2822 3475 
Q 2822 3834 2567 4026 
Q 2313 4219 1838 4219 
Q 1578 4219 1281 4162 
Q 984 4106 628 3988 
L 628 4550 
Q 988 4650 1302 4700 
Q 1616 4750 1894 4750 
Q 2613 4750 3031 4423 
Q 3450 4097 3450 3541 
Q 3450 3153 3228 2886 
Q 3006 2619 2597 2516 
z
" transform="scale(0.015625)"/>
       </defs>
       <use xlink:href="#DejaVuSans-33"/>
       <use xlink:href="#DejaVuSans-30" transform="translate(63.623047 0)"/>
       <use xlink:href="#DejaVuSans-30" transform="translate(127.246094 0)"/>
      </g>
     </g>
    </g>
    <g id="xtick_5">
     <g id="line2d_5">
      <g>
       <use xlink:href="#m929d963985" x="245.324433" y="304.64" style="stroke: #000000; stroke-width: 0.8"/>
      </g>
     </g>
     <g id="text_5">
      <!-- 400 -->
      <g transform="translate(235.780683 319.238437) scale(0.1 -0.1)">
       <defs>
        <path id="DejaVuSans-34" d="M 2419 4116 
L 825 1625 
L 2419 1625 
L 2419 4116 
z
M 2253 4666 
L 3047 4666 
L 3047 1625 
L 3713 1625 
L 3713 1100 
L 3047 1100 
L 3047 0 
L 2419 0 
L 2419 1100 
L 313 1100 
L 313 1709 
L 2253 4666 
z
" transform="scale(0.015625)"/>
       </defs>
       <use xlink:href="#DejaVuSans-34"/>
       <use xlink:href="#DejaVuSans-30" transform="translate(63.623047 0)"/>
       <use xlink:href="#DejaVuSans-30" transform="translate(127.246094 0)"/>
      </g>
     </g>
    </g>
    <g id="xtick_6">
     <g id="line2d_6">
      <g>
       <use xlink:href="#m929d963985" x="293.650609" y="304.64" style="stroke: #000000; stroke-width: 0.8"/>
      </g>
     </g>
     <g id="text_6">
      <!-- 500 -->
      <g transform="translate(284.106859 319.238437) scale(0.1 -0.1)">
       <defs>
        <path id="DejaVuSans-35" d="M 691 4666 
L 3169 4666 
L 3169 4134 
L 1269 4134 
L 1269 2991 
Q 1406 3038 1543 3061 
Q 1681 3084 1819 3084 
Q 2600 3084 3056 2656 
Q 3513 2228 3513 1497 
Q 3513 744 3044 326 
Q 2575 -91 1722 -91 
Q 1428 -91 1123 -41 
Q 819 9 494 109 
L 494 744 
Q 775 591 1075 516 
Q 1375 441 1709 441 
Q 2250 441 2565 725 
Q 2881 1009 2881 1497 
Q 2881 1984 2565 2268 
Q 2250 2553 1709 2553 
Q 1456 2553 1204 2497 
Q 953 2441 691 2322 
L 691 4666 
z
" transform="scale(0.015625)"/>
       </defs>
       <use xlink:href="#DejaVuSans-35"/>
       <use xlink:href="#DejaVuSans-30" transform="translate(63.623047 0)"/>
       <use xlink:href="#DejaVuSans-30" transform="translate(127.246094 0)"/>
      </g>
     </g>
    </g>
    <g id="xtick_7">
     <g id="line2d_7">
      <g>
       <use xlink:href="#m929d963985" x="341.976784" y="304.64" style="stroke: #000000; stroke-width: 0.8"/>
      </g>
     </g>
     <g id="text_7">
      <!-- 600 -->
      <g transform="translate(332.433034 319.238437) scale(0.1 -0.1)">
       <defs>
        <path id="DejaVuSans-36" d="M 2113 2584 
Q 1688 2584 1439 2293 
Q 1191 2003 1191 1497 
Q 1191 994 1439 701 
Q 1688 409 2113 409 
Q 2538 409 2786 701 
Q 3034 994 3034 1497 
Q 3034 2003 2786 2293 
Q 2538 2584 2113 2584 
z
M 3366 4563 
L 3366 3988 
Q 3128 4100 2886 4159 
Q 2644 4219 2406 4219 
Q 1781 4219 1451 3797 
Q 1122 3375 1075 2522 
Q 1259 2794 1537 2939 
Q 1816 3084 2150 3084 
Q 2853 3084 3261 2657 
Q 3669 2231 3669 1497 
Q 3669 778 3244 343 
Q 2819 -91 2113 -91 
Q 1303 -91 875 529 
Q 447 1150 447 2328 
Q 447 3434 972 4092 
Q 1497 4750 2381 4750 
Q 2619 4750 2861 4703 
Q 3103 4656 3366 4563 
z
" transform="scale(0.015625)"/>
       </defs>
       <use xlink:href="#DejaVuSans-36"/>
       <use xlink:href="#DejaVuSans-30" transform="translate(63.623047 0)"/>
       <use xlink:href="#DejaVuSans-30" transform="translate(127.246094 0)"/>
      </g>
     </g>
    </g>
    <g id="xtick_8">
     <g id="line2d_8">
      <g>
       <use xlink:href="#m929d963985" x="390.30296" y="304.64" style="stroke: #000000; stroke-width: 0.8"/>
      </g>
     </g>
     <g id="text_8">
      <!-- 700 -->
      <g transform="translate(380.75921 319.238437) scale(0.1 -0.1)">
       <defs>
        <path id="DejaVuSans-37" d="M 525 4666 
L 3525 4666 
L 3525 4397 
L 1831 0 
L 1172 0 
L 2766 4134 
L 525 4134 
L 525 4666 
z
" transform="scale(0.015625)"/>
       </defs>
       <use xlink:href="#DejaVuSans-37"/>
       <use xlink:href="#DejaVuSans-30" transform="translate(63.623047 0)"/>
       <use xlink:href="#DejaVuSans-30" transform="translate(127.246094 0)"/>
      </g>
     </g>
    </g>
    <g id="xtick_9">
     <g id="line2d_9">
      <g>
       <use xlink:href="#m929d963985" x="438.629135" y="304.64" style="stroke: #000000; stroke-width: 0.8"/>
      </g>
     </g>
     <g id="text_9">
      <!-- 800 -->
      <g transform="translate(429.085385 319.238437) scale(0.1 -0.1)">
       <defs>
        <path id="DejaVuSans-38" d="M 2034 2216 
Q 1584 2216 1326 1975 
Q 1069 1734 1069 1313 
Q 1069 891 1326 650 
Q 1584 409 2034 409 
Q 2484 409 2743 651 
Q 3003 894 3003 1313 
Q 3003 1734 2745 1975 
Q 2488 2216 2034 2216 
z
M 1403 2484 
Q 997 2584 770 2862 
Q 544 3141 544 3541 
Q 544 4100 942 4425 
Q 1341 4750 2034 4750 
Q 2731 4750 3128 4425 
Q 3525 4100 3525 3541 
Q 3525 3141 3298 2862 
Q 3072 2584 2669 2484 
Q 3125 2378 3379 2068 
Q 3634 1759 3634 1313 
Q 3634 634 3220 271 
Q 2806 -91 2034 -91 
Q 1263 -91 848 271 
Q 434 634 434 1313 
Q 434 1759 690 2068 
Q 947 2378 1403 2484 
z
M 1172 3481 
Q 1172 3119 1398 2916 
Q 1625 2713 2034 2713 
Q 2441 2713 2670 2916 
Q 2900 3119 2900 3481 
Q 2900 3844 2670 4047 
Q 2441 4250 2034 4250 
Q 1625 4250 1398 4047 
Q 1172 3844 1172 3481 
z
" transform="scale(0.015625)"/>
       </defs>
       <use xlink:href="#DejaVuSans-38"/>
       <use xlink:href="#DejaVuSans-30" transform="translate(63.623047 0)"/>
       <use xlink:href="#DejaVuSans-30" transform="translate(127.246094 0)"/>
      </g>
     </g>
    </g>
    <g id="text_10">
     <!-- Temperature ($^{\circ}C$) -->
     <g transform="translate(201.0825 332.918125) scale(0.1 -0.1)">
      <defs>
       <path id="DejaVuSans-54" d="M -19 4666 
L 3928 4666 
L 3928 4134 
L 2272 4134 
L 2272 0 
L 1638 0 
L 1638 4134 
L -19 4134 
L -19 4666 
z
" transform="scale(0.015625)"/>
       <path id="DejaVuSans-65" d="M 3597 1894 
L 3597 1613 
L 953 1613 
Q 991 1019 1311 708 
Q 1631 397 2203 397 
Q 2534 397 2845 478 
Q 3156 559 3463 722 
L 3463 178 
Q 3153 47 2828 -22 
Q 2503 -91 2169 -91 
Q 1331 -91 842 396 
Q 353 884 353 1716 
Q 353 2575 817 3079 
Q 1281 3584 2069 3584 
Q 2775 3584 3186 3129 
Q 3597 2675 3597 1894 
z
M 3022 2063 
Q 3016 2534 2758 2815 
Q 2500 3097 2075 3097 
Q 1594 3097 1305 2825 
Q 1016 2553 972 2059 
L 3022 2063 
z
" transform="scale(0.015625)"/>
       <path id="DejaVuSans-6d" d="M 3328 2828 
Q 3544 3216 3844 3400 
Q 4144 3584 4550 3584 
Q 5097 3584 5394 3201 
Q 5691 2819 5691 2113 
L 5691 0 
L 5113 0 
L 5113 2094 
Q 5113 2597 4934 2840 
Q 4756 3084 4391 3084 
Q 3944 3084 3684 2787 
Q 3425 2491 3425 1978 
L 3425 0 
L 2847 0 
L 2847 2094 
Q 2847 2600 2669 2842 
Q 2491 3084 2119 3084 
Q 1678 3084 1418 2786 
Q 1159 2488 1159 1978 
L 1159 0 
L 581 0 
L 581 3500 
L 1159 3500 
L 1159 2956 
Q 1356 3278 1631 3431 
Q 1906 3584 2284 3584 
Q 2666 3584 2933 3390 
Q 3200 3197 3328 2828 
z
" transform="scale(0.015625)"/>
       <path id="DejaVuSans-70" d="M 1159 525 
L 1159 -1331 
L 581 -1331 
L 581 3500 
L 1159 3500 
L 1159 2969 
Q 1341 3281 1617 3432 
Q 1894 3584 2278 3584 
Q 2916 3584 3314 3078 
Q 3713 2572 3713 1747 
Q 3713 922 3314 415 
Q 2916 -91 2278 -91 
Q 1894 -91 1617 61 
Q 1341 213 1159 525 
z
M 3116 1747 
Q 3116 2381 2855 2742 
Q 2594 3103 2138 3103 
Q 1681 3103 1420 2742 
Q 1159 2381 1159 1747 
Q 1159 1113 1420 752 
Q 1681 391 2138 391 
Q 2594 391 2855 752 
Q 3116 1113 3116 1747 
z
" transform="scale(0.015625)"/>
       <path id="DejaVuSans-72" d="M 2631 2963 
Q 2534 3019 2420 3045 
Q 2306 3072 2169 3072 
Q 1681 3072 1420 2755 
Q 1159 2438 1159 1844 
L 1159 0 
L 581 0 
L 581 3500 
L 1159 3500 
L 1159 2956 
Q 1341 3275 1631 3429 
Q 1922 3584 2338 3584 
Q 2397 3584 2469 3576 
Q 2541 3569 2628 3553 
L 2631 2963 
z
" transform="scale(0.015625)"/>
       <path id="DejaVuSans-61" d="M 2194 1759 
Q 1497 1759 1228 1600 
Q 959 1441 959 1056 
Q 959 750 1161 570 
Q 1363 391 1709 391 
Q 2188 391 2477 730 
Q 2766 1069 2766 1631 
L 2766 1759 
L 2194 1759 
z
M 3341 1997 
L 3341 0 
L 2766 0 
L 2766 531 
Q 2569 213 2275 61 
Q 1981 -91 1556 -91 
Q 1019 -91 701 211 
Q 384 513 384 1019 
Q 384 1609 779 1909 
Q 1175 2209 1959 2209 
L 2766 2209 
L 2766 2266 
Q 2766 2663 2505 2880 
Q 2244 3097 1772 3097 
Q 1472 3097 1187 3025 
Q 903 2953 641 2809 
L 641 3341 
Q 956 3463 1253 3523 
Q 1550 3584 1831 3584 
Q 2591 3584 2966 3190 
Q 3341 2797 3341 1997 
z
" transform="scale(0.015625)"/>
       <path id="DejaVuSans-74" d="M 1172 4494 
L 1172 3500 
L 2356 3500 
L 2356 3053 
L 1172 3053 
L 1172 1153 
Q 1172 725 1289 603 
Q 1406 481 1766 481 
L 2356 481 
L 2356 0 
L 1766 0 
Q 1100 0 847 248 
Q 594 497 594 1153 
L 594 3053 
L 172 3053 
L 172 3500 
L 594 3500 
L 594 4494 
L 1172 4494 
z
" transform="scale(0.015625)"/>
       <path id="DejaVuSans-75" d="M 544 1381 
L 544 3500 
L 1119 3500 
L 1119 1403 
Q 1119 906 1312 657 
Q 1506 409 1894 409 
Q 2359 409 2629 706 
Q 2900 1003 2900 1516 
L 2900 3500 
L 3475 3500 
L 3475 0 
L 2900 0 
L 2900 538 
Q 2691 219 2414 64 
Q 2138 -91 1772 -91 
Q 1169 -91 856 284 
Q 544 659 544 1381 
z
M 1991 3584 
L 1991 3584 
z
" transform="scale(0.015625)"/>
       <path id="DejaVuSans-20" transform="scale(0.015625)"/>
       <path id="DejaVuSans-28" d="M 1984 4856 
Q 1566 4138 1362 3434 
Q 1159 2731 1159 2009 
Q 1159 1288 1364 580 
Q 1569 -128 1984 -844 
L 1484 -844 
Q 1016 -109 783 600 
Q 550 1309 550 2009 
Q 550 2706 781 3412 
Q 1013 4119 1484 4856 
L 1984 4856 
z
" transform="scale(0.015625)"/>
       <path id="DejaVuSans-2218" d="M 2000 2619 
Q 1750 2619 1578 2445 
Q 1406 2272 1406 2022 
Q 1406 1775 1578 1605 
Q 1750 1435 2000 1435 
Q 2250 1435 2422 1605 
Q 2594 1775 2594 2022 
Q 2594 2269 2420 2444 
Q 2247 2619 2000 2619 
z
M 2000 3022 
Q 2200 3022 2384 2945 
Q 2569 2869 2703 2725 
Q 2847 2585 2919 2406 
Q 2991 2228 2991 2022 
Q 2991 1610 2702 1324 
Q 2413 1038 1994 1038 
Q 1572 1038 1290 1319 
Q 1009 1600 1009 2022 
Q 1009 2441 1296 2731 
Q 1584 3022 2000 3022 
z
" transform="scale(0.015625)"/>
       <path id="DejaVuSans-Oblique-43" d="M 4447 4306 
L 4319 3641 
Q 4019 3944 3683 4091 
Q 3347 4238 2956 4238 
Q 2422 4238 2017 3981 
Q 1613 3725 1319 3200 
Q 1131 2863 1032 2486 
Q 934 2109 934 1728 
Q 934 1091 1264 756 
Q 1594 422 2222 422 
Q 2656 422 3056 561 
Q 3456 700 3834 978 
L 3688 231 
Q 3316 72 2936 -9 
Q 2556 -91 2175 -91 
Q 1278 -91 773 396 
Q 269 884 269 1753 
Q 269 2309 461 2846 
Q 653 3384 1013 3828 
Q 1394 4300 1883 4525 
Q 2372 4750 3022 4750 
Q 3422 4750 3780 4639 
Q 4138 4528 4447 4306 
z
" transform="scale(0.015625)"/>
       <path id="DejaVuSans-29" d="M 513 4856 
L 1013 4856 
Q 1481 4119 1714 3412 
Q 1947 2706 1947 2009 
Q 1947 1309 1714 600 
Q 1481 -109 1013 -844 
L 513 -844 
Q 928 -128 1133 580 
Q 1338 1288 1338 2009 
Q 1338 2731 1133 3434 
Q 928 4138 513 4856 
z
" transform="scale(0.015625)"/>
      </defs>
      <use xlink:href="#DejaVuSans-54" transform="translate(0 0.125)"/>
      <use xlink:href="#DejaVuSans-65" transform="translate(61.083984 0.125)"/>
      <use xlink:href="#DejaVuSans-6d" transform="translate(122.607422 0.125)"/>
      <use xlink:href="#DejaVuSans-70" transform="translate(220.019531 0.125)"/>
      <use xlink:href="#DejaVuSans-65" transform="translate(283.496094 0.125)"/>
      <use xlink:href="#DejaVuSans-72" transform="translate(345.019531 0.125)"/>
      <use xlink:href="#DejaVuSans-61" transform="translate(386.132812 0.125)"/>
      <use xlink:href="#DejaVuSans-74" transform="translate(447.412109 0.125)"/>
      <use xlink:href="#DejaVuSans-75" transform="translate(486.621094 0.125)"/>
      <use xlink:href="#DejaVuSans-72" transform="translate(550 0.125)"/>
      <use xlink:href="#DejaVuSans-65" transform="translate(591.113281 0.125)"/>
      <use xlink:href="#DejaVuSans-20" transform="translate(652.636719 0.125)"/>
      <use xlink:href="#DejaVuSans-28" transform="translate(684.423828 0.125)"/>
      <use xlink:href="#DejaVuSans-2218" transform="translate(724.394531 38.40625) scale(0.7)"/>
      <use xlink:href="#DejaVuSans-Oblique-43" transform="translate(770.947266 0.125)"/>
      <use xlink:href="#DejaVuSans-29" transform="translate(840.771484 0.125)"/>
     </g>
    </g>
   </g>
   <g id="matplotlib.axis_2">
    <g id="ytick_1">
     <g id="line2d_10">
      <defs>
       <path id="m9017fa2e26" d="M 0 0 
L -3.5 0 
" style="stroke: #000000; stroke-width: 0.8"/>
      </defs>
      <g>
       <use xlink:href="#m9017fa2e26" x="40.165" y="291.78" style="stroke: #000000; stroke-width: 0.8"/>
      </g>
     </g>
     <g id="text_11">
      <!-- 0.0 -->
      <g transform="translate(17.261875 295.579219) scale(0.1 -0.1)">
       <defs>
        <path id="DejaVuSans-2e" d="M 684 794 
L 1344 794 
L 1344 0 
L 684 0 
L 684 794 
z
" transform="scale(0.015625)"/>
       </defs>
       <use xlink:href="#DejaVuSans-30"/>
       <use xlink:href="#DejaVuSans-2e" transform="translate(63.623047 0)"/>
       <use xlink:href="#DejaVuSans-30" transform="translate(95.410156 0)"/>
      </g>
     </g>
    </g>
    <g id="ytick_2">
     <g id="line2d_11">
      <g>
       <use xlink:href="#m9017fa2e26" x="40.165" y="231.49875" style="stroke: #000000; stroke-width: 0.8"/>
      </g>
     </g>
     <g id="text_12">
      <!-- 0.5 -->
      <g transform="translate(17.261875 235.297969) scale(0.1 -0.1)">
       <use xlink:href="#DejaVuSans-30"/>
       <use xlink:href="#DejaVuSans-2e" transform="translate(63.623047 0)"/>
       <use xlink:href="#DejaVuSans-35" transform="translate(95.410156 0)"/>
      </g>
     </g>
    </g>
    <g id="ytick_3">
     <g id="line2d_12">
      <g>
       <use xlink:href="#m9017fa2e26" x="40.165" y="171.2175" style="stroke: #000000; stroke-width: 0.8"/>
      </g>
     </g>
     <g id="text_13">
      <!-- 1.0 -->
      <g transform="translate(17.261875 175.016719) scale(0.1 -0.1)">
       <use xlink:href="#DejaVuSans-31"/>
       <use xlink:href="#DejaVuSans-2e" transform="translate(63.623047 0)"/>
       <use xlink:href="#DejaVuSans-30" transform="translate(95.410156 0)"/>
      </g>
     </g>
    </g>
    <g id="ytick_4">
     <g id="line2d_13">
      <g>
       <use xlink:href="#m9017fa2e26" x="40.165" y="110.93625" style="stroke: #000000; stroke-width: 0.8"/>
      </g>
     </g>
     <g id="text_14">
      <!-- 1.5 -->
      <g transform="translate(17.261875 114.735469) scale(0.1 -0.1)">
       <use xlink:href="#DejaVuSans-31"/>
       <use xlink:href="#DejaVuSans-2e" transform="translate(63.623047 0)"/>
       <use xlink:href="#DejaVuSans-35" transform="translate(95.410156 0)"/>
      </g>
     </g>
    </g>
    <g id="ytick_5">
     <g id="line2d_14">
      <g>
       <use xlink:href="#m9017fa2e26" x="40.165" y="50.655" style="stroke: #000000; stroke-width: 0.8"/>
      </g>
     </g>
     <g id="text_15">
      <!-- 2.0 -->
      <g transform="translate(17.261875 54.454219) scale(0.1 -0.1)">
       <use xlink:href="#DejaVuSans-32"/>
       <use xlink:href="#DejaVuSans-2e" transform="translate(63.623047 0)"/>
       <use xlink:href="#DejaVuSans-30" transform="translate(95.410156 0)"/>
      </g>
     </g>
    </g>
    <g id="text_16">
     <!-- Intensity ($^{\circ}C^{-1}$) -->
     <g transform="translate(11.161875 201.98) rotate(-90) scale(0.1 -0.1)">
      <defs>
       <path id="DejaVuSans-49" d="M 628 4666 
L 1259 4666 
L 1259 0 
L 628 0 
L 628 4666 
z
" transform="scale(0.015625)"/>
       <path id="DejaVuSans-6e" d="M 3513 2113 
L 3513 0 
L 2938 0 
L 2938 2094 
Q 2938 2591 2744 2837 
Q 2550 3084 2163 3084 
Q 1697 3084 1428 2787 
Q 1159 2491 1159 1978 
L 1159 0 
L 581 0 
L 581 3500 
L 1159 3500 
L 1159 2956 
Q 1366 3272 1645 3428 
Q 1925 3584 2291 3584 
Q 2894 3584 3203 3211 
Q 3513 2838 3513 2113 
z
" transform="scale(0.015625)"/>
       <path id="DejaVuSans-73" d="M 2834 3397 
L 2834 2853 
Q 2591 2978 2328 3040 
Q 2066 3103 1784 3103 
Q 1356 3103 1142 2972 
Q 928 2841 928 2578 
Q 928 2378 1081 2264 
Q 1234 2150 1697 2047 
L 1894 2003 
Q 2506 1872 2764 1633 
Q 3022 1394 3022 966 
Q 3022 478 2636 193 
Q 2250 -91 1575 -91 
Q 1294 -91 989 -36 
Q 684 19 347 128 
L 347 722 
Q 666 556 975 473 
Q 1284 391 1588 391 
Q 1994 391 2212 530 
Q 2431 669 2431 922 
Q 2431 1156 2273 1281 
Q 2116 1406 1581 1522 
L 1381 1569 
Q 847 1681 609 1914 
Q 372 2147 372 2553 
Q 372 3047 722 3315 
Q 1072 3584 1716 3584 
Q 2034 3584 2315 3537 
Q 2597 3491 2834 3397 
z
" transform="scale(0.015625)"/>
       <path id="DejaVuSans-69" d="M 603 3500 
L 1178 3500 
L 1178 0 
L 603 0 
L 603 3500 
z
M 603 4863 
L 1178 4863 
L 1178 4134 
L 603 4134 
L 603 4863 
z
" transform="scale(0.015625)"/>
       <path id="DejaVuSans-79" d="M 2059 -325 
Q 1816 -950 1584 -1140 
Q 1353 -1331 966 -1331 
L 506 -1331 
L 506 -850 
L 844 -850 
Q 1081 -850 1212 -737 
Q 1344 -625 1503 -206 
L 1606 56 
L 191 3500 
L 800 3500 
L 1894 763 
L 2988 3500 
L 3597 3500 
L 2059 -325 
z
" transform="scale(0.015625)"/>
       <path id="DejaVuSans-2212" d="M 678 2272 
L 4684 2272 
L 4684 1741 
L 678 1741 
L 678 2272 
z
" transform="scale(0.015625)"/>
      </defs>
      <use xlink:href="#DejaVuSans-49" transform="translate(0 0.684375)"/>
      <use xlink:href="#DejaVuSans-6e" transform="translate(29.492188 0.684375)"/>
      <use xlink:href="#DejaVuSans-74" transform="translate(92.871094 0.684375)"/>
      <use xlink:href="#DejaVuSans-65" transform="translate(132.080078 0.684375)"/>
      <use xlink:href="#DejaVuSans-6e" transform="translate(193.603516 0.684375)"/>
      <use xlink:href="#DejaVuSans-73" transform="translate(256.982422 0.684375)"/>
      <use xlink:href="#DejaVuSans-69" transform="translate(309.082031 0.684375)"/>
      <use xlink:href="#DejaVuSans-74" transform="translate(336.865234 0.684375)"/>
      <use xlink:href="#DejaVuSans-79" transform="translate(376.074219 0.684375)"/>
      <use xlink:href="#DejaVuSans-20" transform="translate(435.253906 0.684375)"/>
      <use xlink:href="#DejaVuSans-28" transform="translate(467.041016 0.684375)"/>
      <use xlink:href="#DejaVuSans-2218" transform="translate(507.011719 38.965625) scale(0.7)"/>
      <use xlink:href="#DejaVuSans-Oblique-43" transform="translate(553.564453 0.684375)"/>
      <use xlink:href="#DejaVuSans-2212" transform="translate(630.589193 38.965625) scale(0.7)"/>
      <use xlink:href="#DejaVuSans-31" transform="translate(689.241536 38.965625) scale(0.7)"/>
      <use xlink:href="#DejaVuSans-29" transform="translate(736.512044 0.684375)"/>
     </g>
    </g>
   </g>
   <g id="line2d_15">
    <path d="M 58.793864 291.78 
L 113.470788 291.78 
L 113.954655 289.770625 
L 120.728787 289.770625 
L 121.212653 287.76125 
L 122.180387 287.76125 
L 123.14812 283.7425 
L 126.535186 283.7425 
L 127.019053 279.72375 
L 127.502919 279.72375 
L 127.986786 277.714375 
L 128.470652 279.72375 
L 128.954519 277.714375 
L 129.922252 277.714375 
L 130.406119 275.705 
L 130.889985 275.705 
L 131.857718 271.68625 
L 132.825452 271.68625 
L 133.309318 269.676875 
L 134.277051 269.676875 
L 134.760918 267.6675 
L 135.244785 267.6675 
L 135.728651 265.658125 
L 136.212518 265.658125 
L 136.696384 263.64875 
L 137.180251 263.64875 
L 137.664117 261.639375 
L 138.147984 261.639375 
L 138.631851 257.620625 
L 139.115717 257.620625 
L 139.599584 253.601875 
L 140.08345 253.601875 
L 140.567317 251.5925 
L 141.051184 245.564375 
L 141.53505 247.57375 
L 143.470517 247.57375 
L 143.954383 243.555 
L 144.43825 241.545625 
L 144.922116 241.545625 
L 145.405983 239.53625 
L 145.889849 239.53625 
L 146.373716 237.526875 
L 146.857583 231.49875 
L 147.341449 227.48 
L 147.825316 225.470625 
L 149.276916 225.470625 
L 149.760782 223.46125 
L 150.244649 223.46125 
L 150.728515 221.451875 
L 151.212382 221.451875 
L 151.696249 219.4425 
L 152.180115 221.451875 
L 152.663982 215.42375 
L 153.147848 215.42375 
L 153.631715 209.395625 
L 154.115581 209.395625 
L 154.599448 207.38625 
L 155.083315 203.3675 
L 155.567181 207.38625 
L 156.051048 197.339375 
L 156.534914 191.31125 
L 157.502648 183.27375 
L 157.986514 181.264375 
L 158.470381 185.283125 
L 159.438114 185.283125 
L 159.921981 187.2925 
L 160.405847 187.2925 
L 160.889714 189.301875 
L 161.37358 185.283125 
L 161.857447 189.301875 
L 162.341313 191.31125 
L 163.309047 183.27375 
L 163.792913 183.27375 
L 164.27678 179.255 
L 166.212246 179.255 
L 166.696113 181.264375 
L 167.179979 181.264375 
L 167.663846 177.245625 
L 168.147713 175.23625 
L 168.631579 179.255 
L 169.115446 175.23625 
L 169.599312 177.245625 
L 170.083179 175.23625 
L 170.567045 183.27375 
L 171.534779 187.2925 
L 172.018645 185.283125 
L 172.986378 177.245625 
L 173.470245 177.245625 
L 174.437978 169.208125 
L 174.921845 169.208125 
L 175.405711 167.19875 
L 175.889578 171.2175 
L 176.373445 163.18 
L 176.857311 159.16125 
L 177.341178 157.151875 
L 177.825044 153.133125 
L 178.308911 151.12375 
L 178.792777 151.12375 
L 179.276644 149.114375 
L 179.760511 145.095625 
L 180.728244 145.095625 
L 181.21211 141.076875 
L 181.695977 141.076875 
L 182.179844 145.095625 
L 182.66371 153.133125 
L 183.147577 151.12375 
L 184.11531 155.1425 
L 184.599177 155.1425 
L 185.083043 157.151875 
L 185.56691 155.1425 
L 187.018509 167.19875 
L 187.502376 165.189375 
L 188.470109 153.133125 
L 188.953976 153.133125 
L 189.437842 145.095625 
L 190.405576 133.039375 
L 191.373309 141.076875 
L 192.341042 145.095625 
L 192.824909 145.095625 
L 193.308775 141.076875 
L 193.792642 141.076875 
L 194.760375 137.058125 
L 195.244241 137.058125 
L 195.728108 135.04875 
L 196.211975 131.03 
L 196.695841 129.020625 
L 197.179708 125.001875 
L 198.147441 102.89875 
L 198.631308 94.86125 
L 199.599041 86.82375 
L 200.082907 86.82375 
L 200.566774 84.814375 
L 201.05064 84.814375 
L 201.534507 86.82375 
L 202.018374 84.814375 
L 202.50224 90.8425 
L 202.986107 98.88 
L 203.469973 98.88 
L 203.95384 104.908125 
L 204.437707 102.89875 
L 204.921573 104.908125 
L 205.40544 104.908125 
L 205.889306 100.889375 
L 206.373173 102.89875 
L 206.85704 100.889375 
L 207.340906 102.89875 
L 207.824773 108.926875 
L 208.308639 102.89875 
L 208.792506 104.908125 
L 209.760239 96.870625 
L 210.244106 94.86125 
L 210.727972 98.88 
L 211.211839 94.86125 
L 211.695705 88.833125 
L 212.179572 94.86125 
L 212.663439 98.88 
L 213.147305 100.889375 
L 213.631172 106.9175 
L 214.115038 106.9175 
L 214.598905 100.889375 
L 215.082772 86.82375 
L 215.566638 78.78625 
L 216.534371 74.7675 
L 217.018238 70.74875 
L 217.502104 68.739375 
L 217.985971 54.67375 
L 218.469838 54.67375 
L 218.953704 60.701875 
L 219.437571 48.645625 
L 219.921437 40.608125 
L 220.405304 38.59875 
L 220.889171 34.58 
L 221.373037 36.589375 
L 221.856904 34.58 
L 222.34077 34.58 
L 222.824637 42.6175 
L 224.276237 42.6175 
L 225.24397 38.59875 
L 225.727836 44.626875 
L 226.211703 46.63625 
L 227.179436 42.6175 
L 227.663303 46.63625 
L 228.147169 40.608125 
L 228.631036 40.608125 
L 229.114903 46.63625 
L 229.598769 58.6925 
L 230.082636 60.701875 
L 230.566502 58.6925 
L 231.050369 60.701875 
L 231.534236 58.6925 
L 232.018102 58.6925 
L 232.501969 70.74875 
L 232.985835 66.73 
L 233.469702 66.73 
L 233.953568 82.805 
L 234.921302 100.889375 
L 235.405168 98.88 
L 235.889035 92.851875 
L 236.372901 90.8425 
L 236.856768 90.8425 
L 237.340635 86.82375 
L 237.824501 90.8425 
L 238.308368 86.82375 
L 238.792234 94.86125 
L 239.276101 98.88 
L 239.759968 106.9175 
L 240.243834 104.908125 
L 240.727701 98.88 
L 241.211567 100.889375 
L 241.695434 104.908125 
L 242.1793 90.8425 
L 242.663167 98.88 
L 243.147034 98.88 
L 243.6309 92.851875 
L 244.114767 88.833125 
L 244.598633 88.833125 
L 245.0825 92.851875 
L 245.566367 92.851875 
L 246.050233 96.870625 
L 246.5341 96.870625 
L 247.017966 90.8425 
L 247.501833 86.82375 
L 247.9857 86.82375 
L 248.469566 76.776875 
L 248.953433 76.776875 
L 249.437299 70.74875 
L 250.405032 82.805 
L 250.888899 78.78625 
L 251.372766 78.78625 
L 252.340499 74.7675 
L 252.824365 78.78625 
L 253.308232 68.739375 
L 253.792099 68.739375 
L 254.275965 56.683125 
L 254.759832 52.664375 
L 255.243698 62.71125 
L 256.211432 66.73 
L 256.695298 76.776875 
L 257.179165 68.739375 
L 257.663031 72.758125 
L 258.146898 80.795625 
L 259.114631 88.833125 
L 259.598498 78.78625 
L 261.050097 84.814375 
L 262.017831 92.851875 
L 262.501697 94.86125 
L 262.985564 102.89875 
L 263.46943 102.89875 
L 263.953297 100.889375 
L 264.92103 92.851875 
L 265.404897 96.870625 
L 266.856496 102.89875 
L 267.340363 102.89875 
L 267.82423 106.9175 
L 268.308096 102.89875 
L 268.791963 104.908125 
L 269.275829 104.908125 
L 269.759696 106.9175 
L 270.243563 104.908125 
L 271.211296 112.945625 
L 271.695162 118.97375 
L 272.179029 114.955 
L 272.662896 112.945625 
L 273.146762 114.955 
L 273.630629 108.926875 
L 274.114495 118.97375 
L 274.598362 120.983125 
L 275.082228 116.964375 
L 275.566095 116.964375 
L 276.049962 125.001875 
L 276.533828 127.01125 
L 277.017695 122.9925 
L 277.501561 122.9925 
L 277.985428 110.93625 
L 278.469295 116.964375 
L 278.953161 118.97375 
L 279.437028 118.97375 
L 279.920894 120.983125 
L 280.404761 116.964375 
L 281.372494 112.945625 
L 281.856361 116.964375 
L 282.340227 112.945625 
L 282.824094 114.955 
L 283.30796 122.9925 
L 283.791827 122.9925 
L 284.275694 114.955 
L 284.75956 116.964375 
L 285.243427 112.945625 
L 286.695027 118.97375 
L 287.178893 122.9925 
L 287.66276 116.964375 
L 288.630493 120.983125 
L 289.11436 118.97375 
L 289.598226 122.9925 
L 290.082093 120.983125 
L 290.565959 110.93625 
L 291.533692 114.955 
L 292.501426 122.9925 
L 292.985292 125.001875 
L 293.469159 125.001875 
L 293.953025 133.039375 
L 294.920759 125.001875 
L 295.404625 129.020625 
L 296.856225 129.020625 
L 297.340091 131.03 
L 297.823958 131.03 
L 298.307825 137.058125 
L 298.791691 135.04875 
L 299.275558 131.03 
L 299.759424 133.039375 
L 300.727158 125.001875 
L 301.211024 118.97375 
L 302.178757 110.93625 
L 302.662624 116.964375 
L 303.146491 108.926875 
L 303.630357 110.93625 
L 304.114224 110.93625 
L 305.081957 118.97375 
L 305.565823 118.97375 
L 306.04969 125.001875 
L 306.533557 125.001875 
L 307.017423 133.039375 
L 307.50129 125.001875 
L 307.985156 125.001875 
L 308.469023 120.983125 
L 309.920623 127.01125 
L 310.404489 127.01125 
L 310.888356 122.9925 
L 311.372223 127.01125 
L 311.856089 129.020625 
L 312.339956 129.020625 
L 312.823822 127.01125 
L 313.307689 133.039375 
L 313.791555 143.08625 
L 315.243155 149.114375 
L 315.727022 155.1425 
L 316.210888 155.1425 
L 316.694755 159.16125 
L 317.178622 151.12375 
L 317.662488 153.133125 
L 318.146355 157.151875 
L 318.630221 147.105 
L 319.114088 141.076875 
L 319.597955 145.095625 
L 320.081821 147.105 
L 320.565688 143.08625 
L 321.049554 141.076875 
L 321.533421 137.058125 
L 322.017287 137.058125 
L 322.501154 141.076875 
L 322.985021 143.08625 
L 323.468887 149.114375 
L 323.952754 153.133125 
L 324.43662 153.133125 
L 324.920487 157.151875 
L 325.404354 163.18 
L 325.88822 161.170625 
L 326.372087 165.189375 
L 326.855953 165.189375 
L 327.33982 167.19875 
L 327.823687 165.189375 
L 328.307553 161.170625 
L 328.79142 155.1425 
L 329.759153 147.105 
L 330.243019 145.095625 
L 330.726886 147.105 
L 331.694619 155.1425 
L 332.178486 157.151875 
L 332.662352 151.12375 
L 333.146219 161.170625 
L 333.630086 167.19875 
L 334.597819 163.18 
L 336.049419 169.208125 
L 336.533285 167.19875 
L 337.017152 155.1425 
L 337.501018 155.1425 
L 337.984885 151.12375 
L 338.468751 153.133125 
L 338.952618 151.12375 
L 339.436485 147.105 
L 339.920351 145.095625 
L 340.404218 151.12375 
L 341.371951 151.12375 
L 341.855818 147.105 
L 342.339684 149.114375 
L 342.823551 149.114375 
L 344.275151 161.170625 
L 344.759017 167.19875 
L 345.242884 161.170625 
L 345.72675 163.18 
L 346.210617 161.170625 
L 347.17835 165.189375 
L 347.662217 163.18 
L 348.62995 163.18 
L 349.113816 159.16125 
L 349.597683 157.151875 
L 350.08155 157.151875 
L 350.565416 155.1425 
L 351.533149 177.245625 
L 352.017016 177.245625 
L 352.500883 169.208125 
L 352.984749 165.189375 
L 353.468616 167.19875 
L 353.952482 171.2175 
L 354.436349 173.226875 
L 354.920215 173.226875 
L 355.404082 167.19875 
L 356.371815 171.2175 
L 356.855682 169.208125 
L 357.823415 173.226875 
L 358.307282 163.18 
L 358.791148 163.18 
L 359.275015 161.170625 
L 359.758881 169.208125 
L 360.242748 171.2175 
L 360.726615 177.245625 
L 361.210481 173.226875 
L 361.694348 177.245625 
L 362.178214 179.255 
L 362.662081 177.245625 
L 363.145947 173.226875 
L 363.629814 179.255 
L 364.113681 179.255 
L 364.597547 181.264375 
L 365.081414 181.264375 
L 365.56528 177.245625 
L 366.049147 171.2175 
L 366.533014 175.23625 
L 367.01688 187.2925 
L 367.500747 183.27375 
L 367.984613 185.283125 
L 369.92008 177.245625 
L 370.403946 171.2175 
L 370.887813 173.226875 
L 371.371679 181.264375 
L 372.339413 181.264375 
L 372.823279 193.320625 
L 373.791012 193.320625 
L 374.274879 189.301875 
L 374.758746 189.301875 
L 375.726479 193.320625 
L 376.210345 189.301875 
L 376.694212 189.301875 
L 377.178079 185.283125 
L 377.661945 191.31125 
L 378.145812 191.31125 
L 378.629678 193.320625 
L 379.113545 187.2925 
L 379.597411 187.2925 
L 380.081278 189.301875 
L 380.565145 193.320625 
L 381.049011 187.2925 
L 381.532878 187.2925 
L 382.016744 195.33 
L 382.984478 199.34875 
L 383.468344 199.34875 
L 383.952211 203.3675 
L 384.436077 209.395625 
L 384.919944 213.414375 
L 386.371544 207.38625 
L 386.85541 199.34875 
L 387.339277 193.320625 
L 387.823143 193.320625 
L 388.30701 189.301875 
L 388.790877 195.33 
L 389.274743 193.320625 
L 389.75861 189.301875 
L 390.726343 193.320625 
L 391.21021 191.31125 
L 391.694076 195.33 
L 392.661809 199.34875 
L 393.145676 199.34875 
L 393.629543 201.358125 
L 394.113409 205.376875 
L 394.597276 201.358125 
L 395.081142 203.3675 
L 395.565009 203.3675 
L 396.048875 199.34875 
L 396.532742 197.339375 
L 397.016609 193.320625 
L 397.500475 191.31125 
L 397.984342 193.320625 
L 398.468208 191.31125 
L 399.919808 197.339375 
L 400.403675 195.33 
L 400.887541 195.33 
L 401.855274 203.3675 
L 402.339141 197.339375 
L 402.823008 201.358125 
L 403.306874 191.31125 
L 403.790741 193.320625 
L 404.274607 193.320625 
L 404.758474 189.301875 
L 405.726207 189.301875 
L 406.210074 191.31125 
L 406.69394 191.31125 
L 407.177807 185.283125 
L 407.661674 185.283125 
L 408.14554 191.31125 
L 408.629407 189.301875 
L 409.113273 193.320625 
L 409.59714 189.301875 
L 410.081006 191.31125 
L 410.564873 191.31125 
L 411.04874 195.33 
L 411.532606 193.320625 
L 412.500339 193.320625 
L 412.984206 191.31125 
L 413.468073 187.2925 
L 413.951939 181.264375 
L 414.435806 185.283125 
L 414.919672 185.283125 
L 415.403539 181.264375 
L 415.887406 187.2925 
L 416.371272 189.301875 
L 416.855139 197.339375 
L 417.339005 193.320625 
L 417.822872 197.339375 
L 418.306738 195.33 
L 418.790605 199.34875 
L 419.274472 201.358125 
L 419.758338 199.34875 
L 420.242205 201.358125 
L 420.726071 199.34875 
L 421.209938 195.33 
L 421.693805 199.34875 
L 422.661538 195.33 
L 423.629271 199.34875 
L 424.597004 207.38625 
L 425.080871 209.395625 
L 425.564737 209.395625 
L 426.048604 215.42375 
L 427.016337 219.4425 
L 427.500204 219.4425 
L 428.467937 223.46125 
L 428.951803 221.451875 
L 429.43567 223.46125 
L 429.919537 229.489375 
L 431.371136 229.489375 
L 431.371136 229.489375 
" clip-path="url(#p2c29e644f1)" style="fill: none; stroke-dasharray: 1.85,0.8; stroke-dashoffset: 0; stroke: #8000ff; stroke-width: 0.5"/>
   </g>
   <g id="line2d_16">
    <path d="M 58.793864 291.78 
L 134.760918 291.78 
L 135.244785 289.770625 
L 138.631851 289.770625 
L 139.115717 287.76125 
L 142.502783 287.76125 
L 142.98665 285.751875 
L 143.954383 285.751875 
L 144.43825 283.7425 
L 146.373716 283.7425 
L 146.857583 277.714375 
L 147.825316 273.695625 
L 148.793049 273.695625 
L 149.276916 267.6675 
L 149.760782 269.676875 
L 150.728515 269.676875 
L 151.212382 263.64875 
L 151.696249 263.64875 
L 152.180115 259.63 
L 154.599448 259.63 
L 155.083315 257.620625 
L 155.567181 257.620625 
L 156.534914 253.601875 
L 157.018781 249.583125 
L 157.502648 251.5925 
L 157.986514 249.583125 
L 158.470381 245.564375 
L 158.954247 247.57375 
L 160.405847 247.57375 
L 160.889714 245.564375 
L 161.857447 249.583125 
L 163.309047 249.583125 
L 163.792913 251.5925 
L 164.27678 249.583125 
L 165.244513 249.583125 
L 165.72838 253.601875 
L 166.212246 251.5925 
L 167.179979 251.5925 
L 167.663846 247.57375 
L 169.115446 241.545625 
L 169.599312 235.5175 
L 170.083179 235.5175 
L 170.567045 231.49875 
L 171.050912 229.489375 
L 171.534779 231.49875 
L 172.018645 229.489375 
L 172.502512 229.489375 
L 172.986378 233.508125 
L 173.470245 233.508125 
L 173.954112 231.49875 
L 174.437978 231.49875 
L 176.857311 221.451875 
L 177.341178 215.42375 
L 177.825044 213.414375 
L 178.308911 213.414375 
L 179.276644 205.376875 
L 180.244377 205.376875 
L 180.728244 207.38625 
L 181.21211 211.405 
L 181.695977 205.376875 
L 182.179844 207.38625 
L 182.66371 205.376875 
L 183.631443 197.339375 
L 184.11531 199.34875 
L 184.599177 193.320625 
L 185.083043 195.33 
L 185.56691 195.33 
L 186.050776 193.320625 
L 186.534643 189.301875 
L 187.018509 187.2925 
L 187.502376 183.27375 
L 187.986243 183.27375 
L 189.437842 177.245625 
L 189.921709 181.264375 
L 190.405576 183.27375 
L 190.889442 181.264375 
L 191.373309 183.27375 
L 191.857175 187.2925 
L 192.341042 185.283125 
L 193.308775 185.283125 
L 193.792642 187.2925 
L 194.276508 181.264375 
L 194.760375 179.255 
L 195.728108 159.16125 
L 196.211975 165.189375 
L 196.695841 161.170625 
L 197.179708 159.16125 
L 198.147441 167.19875 
L 198.631308 167.19875 
L 199.115174 169.208125 
L 199.599041 161.170625 
L 200.082907 161.170625 
L 200.566774 159.16125 
L 201.05064 159.16125 
L 201.534507 161.170625 
L 202.018374 161.170625 
L 202.50224 157.151875 
L 202.986107 157.151875 
L 203.469973 153.133125 
L 204.437707 149.114375 
L 205.40544 149.114375 
L 205.889306 147.105 
L 206.373173 143.08625 
L 207.340906 143.08625 
L 207.824773 139.0675 
L 208.792506 139.0675 
L 209.276372 141.076875 
L 209.760239 145.095625 
L 210.244106 143.08625 
L 210.727972 143.08625 
L 211.211839 145.095625 
L 211.695705 145.095625 
L 212.179572 143.08625 
L 212.663439 139.0675 
L 213.147305 143.08625 
L 213.631172 141.076875 
L 214.115038 145.095625 
L 214.598905 147.105 
L 215.082772 151.12375 
L 215.566638 153.133125 
L 216.534371 145.095625 
L 217.502104 145.095625 
L 217.985971 143.08625 
L 218.469838 143.08625 
L 218.953704 137.058125 
L 219.437571 137.058125 
L 219.921437 139.0675 
L 220.405304 133.039375 
L 220.889171 135.04875 
L 221.856904 135.04875 
L 222.34077 139.0675 
L 222.824637 135.04875 
L 223.308504 133.039375 
L 223.79237 129.020625 
L 224.276237 127.01125 
L 224.760103 135.04875 
L 225.24397 129.020625 
L 226.211703 120.983125 
L 226.69557 120.983125 
L 227.179436 106.9175 
L 227.663303 102.89875 
L 228.147169 102.89875 
L 228.631036 104.908125 
L 229.114903 102.89875 
L 229.598769 96.870625 
L 230.082636 92.851875 
L 230.566502 94.86125 
L 231.050369 94.86125 
L 231.534236 96.870625 
L 232.018102 96.870625 
L 232.501969 102.89875 
L 232.985835 104.908125 
L 233.469702 100.889375 
L 234.437435 100.889375 
L 234.921302 108.926875 
L 235.405168 108.926875 
L 235.889035 110.93625 
L 236.372901 104.908125 
L 236.856768 104.908125 
L 237.340635 100.889375 
L 238.792234 106.9175 
L 239.276101 106.9175 
L 239.759968 110.93625 
L 240.243834 112.945625 
L 240.727701 120.983125 
L 241.211567 125.001875 
L 241.695434 143.08625 
L 242.1793 145.095625 
L 242.663167 149.114375 
L 244.114767 155.1425 
L 244.598633 159.16125 
L 245.0825 157.151875 
L 245.566367 157.151875 
L 246.050233 159.16125 
L 246.5341 159.16125 
L 247.501833 163.18 
L 247.9857 169.208125 
L 248.953433 169.208125 
L 249.437299 165.189375 
L 249.921166 165.189375 
L 250.405032 161.170625 
L 250.888899 171.2175 
L 251.372766 171.2175 
L 251.856632 181.264375 
L 252.340499 177.245625 
L 252.824365 177.245625 
L 253.308232 173.226875 
L 253.792099 167.19875 
L 254.275965 163.18 
L 254.759832 163.18 
L 255.243698 161.170625 
L 255.727565 145.095625 
L 256.211432 143.08625 
L 256.695298 145.095625 
L 257.179165 143.08625 
L 257.663031 137.058125 
L 258.146898 133.039375 
L 258.630764 135.04875 
L 259.114631 135.04875 
L 259.598498 133.039375 
L 260.082364 135.04875 
L 260.566231 127.01125 
L 261.050097 127.01125 
L 261.533964 125.001875 
L 262.017831 120.983125 
L 262.501697 118.97375 
L 262.985564 114.955 
L 263.46943 116.964375 
L 263.953297 120.983125 
L 264.437164 118.97375 
L 264.92103 122.9925 
L 265.404897 112.945625 
L 265.888763 118.97375 
L 266.37263 108.926875 
L 266.856496 112.945625 
L 267.340363 108.926875 
L 267.82423 112.945625 
L 268.308096 118.97375 
L 268.791963 116.964375 
L 269.275829 108.926875 
L 269.759696 106.9175 
L 270.243563 120.983125 
L 271.695162 108.926875 
L 272.179029 108.926875 
L 272.662896 112.945625 
L 273.146762 114.955 
L 273.630629 114.955 
L 274.114495 118.97375 
L 274.598362 116.964375 
L 275.082228 120.983125 
L 275.566095 118.97375 
L 276.049962 114.955 
L 276.533828 118.97375 
L 277.017695 125.001875 
L 277.501561 125.001875 
L 277.985428 116.964375 
L 278.469295 114.955 
L 278.953161 116.964375 
L 279.437028 114.955 
L 279.920894 122.9925 
L 280.888628 122.9925 
L 281.372494 125.001875 
L 281.856361 129.020625 
L 282.340227 129.020625 
L 283.30796 133.039375 
L 284.275694 141.076875 
L 284.75956 137.058125 
L 285.727293 141.076875 
L 286.21116 137.058125 
L 286.695027 137.058125 
L 287.66276 141.076875 
L 288.146626 141.076875 
L 288.630493 137.058125 
L 289.11436 135.04875 
L 289.598226 135.04875 
L 290.082093 139.0675 
L 290.565959 141.076875 
L 291.049826 139.0675 
L 291.533692 131.03 
L 292.017559 133.039375 
L 292.501426 137.058125 
L 292.985292 137.058125 
L 293.953025 133.039375 
L 294.920759 133.039375 
L 295.404625 137.058125 
L 296.372358 137.058125 
L 296.856225 139.0675 
L 297.340091 135.04875 
L 297.823958 137.058125 
L 298.307825 143.08625 
L 298.791691 141.076875 
L 299.275558 147.105 
L 299.759424 147.105 
L 300.243291 141.076875 
L 300.727158 149.114375 
L 301.211024 149.114375 
L 302.662624 143.08625 
L 303.630357 151.12375 
L 304.114224 151.12375 
L 304.59809 145.095625 
L 305.081957 149.114375 
L 305.565823 147.105 
L 306.533557 159.16125 
L 307.017423 157.151875 
L 307.50129 157.151875 
L 307.985156 155.1425 
L 308.469023 151.12375 
L 308.95289 151.12375 
L 309.436756 141.076875 
L 309.920623 145.095625 
L 310.404489 139.0675 
L 310.888356 139.0675 
L 311.372223 137.058125 
L 312.339956 141.076875 
L 312.823822 141.076875 
L 313.307689 137.058125 
L 313.791555 137.058125 
L 314.275422 141.076875 
L 314.759289 143.08625 
L 315.243155 141.076875 
L 316.210888 145.095625 
L 317.178622 133.039375 
L 318.146355 141.076875 
L 318.630221 143.08625 
L 319.597955 139.0675 
L 320.081821 141.076875 
L 320.565688 139.0675 
L 321.533421 139.0675 
L 322.017287 141.076875 
L 322.501154 145.095625 
L 322.985021 155.1425 
L 323.468887 151.12375 
L 323.952754 159.16125 
L 324.43662 155.1425 
L 324.920487 161.170625 
L 325.404354 161.170625 
L 325.88822 157.151875 
L 326.372087 155.1425 
L 326.855953 155.1425 
L 327.33982 151.12375 
L 328.307553 151.12375 
L 328.79142 147.105 
L 329.275286 147.105 
L 329.759153 149.114375 
L 330.243019 149.114375 
L 330.726886 147.105 
L 331.210753 149.114375 
L 331.694619 159.16125 
L 332.178486 153.133125 
L 332.662352 151.12375 
L 333.146219 145.095625 
L 333.630086 151.12375 
L 334.113952 149.114375 
L 335.081685 149.114375 
L 335.565552 145.095625 
L 336.049419 145.095625 
L 336.533285 141.076875 
L 337.017152 139.0675 
L 337.984885 131.03 
L 338.468751 125.001875 
L 339.436485 120.983125 
L 339.920351 116.964375 
L 340.404218 120.983125 
L 341.371951 112.945625 
L 341.855818 118.97375 
L 342.339684 122.9925 
L 342.823551 122.9925 
L 343.307417 127.01125 
L 343.791284 129.020625 
L 344.759017 137.058125 
L 345.242884 133.039375 
L 346.210617 137.058125 
L 346.694483 135.04875 
L 347.17835 135.04875 
L 347.662217 139.0675 
L 348.146083 139.0675 
L 348.62995 135.04875 
L 349.113816 133.039375 
L 350.08155 133.039375 
L 351.049283 137.058125 
L 351.533149 141.076875 
L 352.017016 143.08625 
L 352.500883 151.12375 
L 352.984749 155.1425 
L 353.952482 155.1425 
L 354.436349 161.170625 
L 354.920215 159.16125 
L 355.404082 167.19875 
L 355.887949 169.208125 
L 356.371815 165.189375 
L 356.855682 171.2175 
L 357.339548 165.189375 
L 357.823415 161.170625 
L 358.307282 163.18 
L 358.791148 159.16125 
L 359.275015 161.170625 
L 359.758881 165.189375 
L 360.242748 167.19875 
L 360.726615 157.151875 
L 361.210481 157.151875 
L 361.694348 159.16125 
L 362.178214 163.18 
L 362.662081 163.18 
L 363.145947 167.19875 
L 363.629814 173.226875 
L 364.113681 177.245625 
L 364.597547 175.23625 
L 365.081414 175.23625 
L 365.56528 179.255 
L 366.049147 181.264375 
L 366.533014 177.245625 
L 367.01688 167.19875 
L 367.500747 169.208125 
L 367.984613 177.245625 
L 368.952347 173.226875 
L 369.436213 179.255 
L 369.92008 181.264375 
L 370.403946 181.264375 
L 370.887813 183.27375 
L 371.371679 183.27375 
L 371.855546 189.301875 
L 372.823279 189.301875 
L 373.791012 181.264375 
L 374.274879 171.2175 
L 374.758746 169.208125 
L 375.242612 179.255 
L 375.726479 181.264375 
L 376.694212 177.245625 
L 377.178079 179.255 
L 377.661945 179.255 
L 378.145812 175.23625 
L 378.629678 175.23625 
L 379.113545 179.255 
L 379.597411 179.255 
L 380.081278 175.23625 
L 380.565145 173.226875 
L 381.049011 177.245625 
L 381.532878 187.2925 
L 382.016744 187.2925 
L 382.500611 177.245625 
L 382.984478 185.283125 
L 383.468344 189.301875 
L 384.436077 189.301875 
L 385.403811 193.320625 
L 386.371544 193.320625 
L 387.339277 197.339375 
L 387.823143 205.376875 
L 388.30701 203.3675 
L 388.790877 215.42375 
L 389.274743 215.42375 
L 389.75861 209.395625 
L 390.242476 211.405 
L 390.726343 215.42375 
L 391.21021 209.395625 
L 391.694076 209.395625 
L 392.177943 205.376875 
L 392.661809 207.38625 
L 393.145676 207.38625 
L 393.629543 201.358125 
L 394.113409 203.3675 
L 395.081142 199.34875 
L 396.532742 199.34875 
L 397.016609 207.38625 
L 397.500475 203.3675 
L 397.984342 201.358125 
L 398.468208 201.358125 
L 398.952075 199.34875 
L 399.435942 195.33 
L 399.919808 193.320625 
L 400.887541 185.283125 
L 401.371408 189.301875 
L 401.855274 187.2925 
L 402.339141 181.264375 
L 402.823008 187.2925 
L 403.306874 179.255 
L 403.790741 181.264375 
L 404.758474 189.301875 
L 405.242341 189.301875 
L 405.726207 193.320625 
L 406.210074 191.31125 
L 406.69394 187.2925 
L 407.177807 185.283125 
L 407.661674 187.2925 
L 408.14554 187.2925 
L 408.629407 185.283125 
L 409.113273 187.2925 
L 410.081006 183.27375 
L 410.564873 179.255 
L 411.532606 179.255 
L 412.016473 183.27375 
L 412.500339 185.283125 
L 413.468073 181.264375 
L 413.951939 185.283125 
L 414.435806 179.255 
L 415.403539 183.27375 
L 415.887406 183.27375 
L 416.371272 185.283125 
L 416.855139 191.31125 
L 417.339005 189.301875 
L 417.822872 193.320625 
L 418.306738 193.320625 
L 418.790605 195.33 
L 419.274472 195.33 
L 420.242205 183.27375 
L 420.726071 187.2925 
L 421.209938 199.34875 
L 421.693805 201.358125 
L 422.177671 201.358125 
L 422.661538 205.376875 
L 423.629271 205.376875 
L 424.113138 211.405 
L 425.080871 215.42375 
L 425.564737 213.414375 
L 427.016337 201.358125 
L 427.98407 205.376875 
L 428.467937 205.376875 
L 428.951803 213.414375 
L 429.43567 213.414375 
L 429.919537 215.42375 
L 430.403403 209.395625 
L 430.88727 211.405 
L 431.371136 209.395625 
L 431.371136 209.395625 
" clip-path="url(#p2c29e644f1)" style="fill: none; stroke-dasharray: 1.85,0.8; stroke-dashoffset: 0; stroke: #00b5eb; stroke-width: 0.5"/>
   </g>
   <g id="line2d_17">
    <path d="M 58.793864 291.78 
L 150.728515 291.78 
L 151.212382 289.770625 
L 156.051048 289.770625 
L 156.534914 287.76125 
L 157.018781 287.76125 
L 157.502648 285.751875 
L 159.438114 285.751875 
L 159.921981 283.7425 
L 160.405847 283.7425 
L 160.889714 281.733125 
L 161.857447 281.733125 
L 162.82518 277.714375 
L 163.309047 277.714375 
L 163.792913 275.705 
L 166.696113 275.705 
L 167.179979 273.695625 
L 168.631579 273.695625 
L 169.115446 267.6675 
L 170.567045 267.6675 
L 171.050912 269.676875 
L 171.534779 269.676875 
L 172.018645 271.68625 
L 172.502512 269.676875 
L 172.986378 269.676875 
L 173.954112 265.658125 
L 174.437978 267.6675 
L 174.921845 265.658125 
L 175.405711 267.6675 
L 175.889578 267.6675 
L 176.373445 261.639375 
L 176.857311 259.63 
L 177.341178 259.63 
L 177.825044 257.620625 
L 178.792777 257.620625 
L 179.276644 255.61125 
L 179.760511 251.5925 
L 180.244377 251.5925 
L 181.21211 247.57375 
L 181.695977 249.583125 
L 182.179844 249.583125 
L 182.66371 247.57375 
L 183.147577 243.555 
L 183.631443 249.583125 
L 184.11531 249.583125 
L 185.083043 245.564375 
L 186.050776 237.526875 
L 186.534643 235.5175 
L 187.018509 237.526875 
L 187.502376 235.5175 
L 187.986243 237.526875 
L 188.470109 235.5175 
L 188.953976 235.5175 
L 189.437842 233.508125 
L 190.405576 233.508125 
L 191.373309 241.545625 
L 191.857175 237.526875 
L 192.341042 231.49875 
L 194.276508 231.49875 
L 195.244241 223.46125 
L 196.211975 219.4425 
L 196.695841 213.414375 
L 197.179708 209.395625 
L 197.663574 209.395625 
L 198.631308 205.376875 
L 199.115174 207.38625 
L 199.599041 205.376875 
L 200.082907 209.395625 
L 200.566774 209.395625 
L 201.05064 205.376875 
L 202.018374 201.358125 
L 202.50224 197.339375 
L 202.986107 195.33 
L 203.95384 187.2925 
L 204.921573 183.27375 
L 205.40544 183.27375 
L 205.889306 177.245625 
L 206.373173 183.27375 
L 206.85704 187.2925 
L 207.340906 185.283125 
L 207.824773 181.264375 
L 208.308639 179.255 
L 208.792506 181.264375 
L 209.276372 185.283125 
L 210.727972 191.31125 
L 211.211839 195.33 
L 211.695705 201.358125 
L 212.179572 203.3675 
L 212.663439 199.34875 
L 213.147305 199.34875 
L 213.631172 197.339375 
L 214.115038 199.34875 
L 214.598905 195.33 
L 215.082772 193.320625 
L 215.566638 195.33 
L 216.050505 193.320625 
L 217.018238 193.320625 
L 217.502104 199.34875 
L 217.985971 197.339375 
L 218.469838 201.358125 
L 218.953704 195.33 
L 219.437571 195.33 
L 219.921437 191.31125 
L 220.405304 197.339375 
L 220.889171 193.320625 
L 221.373037 191.31125 
L 221.856904 195.33 
L 222.34077 193.320625 
L 222.824637 193.320625 
L 223.308504 189.301875 
L 223.79237 189.301875 
L 224.276237 179.255 
L 225.727836 167.19875 
L 226.211703 165.189375 
L 226.69557 159.16125 
L 227.179436 165.189375 
L 227.663303 163.18 
L 228.147169 155.1425 
L 228.631036 153.133125 
L 230.566502 161.170625 
L 231.050369 161.170625 
L 231.534236 155.1425 
L 232.018102 155.1425 
L 232.501969 161.170625 
L 232.985835 157.151875 
L 233.469702 159.16125 
L 233.953568 157.151875 
L 234.437435 157.151875 
L 234.921302 153.133125 
L 235.889035 153.133125 
L 236.372901 149.114375 
L 236.856768 151.12375 
L 237.340635 149.114375 
L 237.824501 145.095625 
L 238.308368 147.105 
L 238.792234 155.1425 
L 239.759968 151.12375 
L 240.243834 155.1425 
L 240.727701 153.133125 
L 241.211567 155.1425 
L 242.1793 147.105 
L 242.663167 155.1425 
L 243.6309 155.1425 
L 244.114767 149.114375 
L 244.598633 149.114375 
L 245.0825 145.095625 
L 245.566367 147.105 
L 246.050233 157.151875 
L 246.5341 149.114375 
L 247.017966 147.105 
L 247.501833 147.105 
L 247.9857 145.095625 
L 248.469566 145.095625 
L 248.953433 141.076875 
L 249.437299 145.095625 
L 249.921166 143.08625 
L 250.405032 145.095625 
L 250.888899 141.076875 
L 251.372766 139.0675 
L 251.856632 139.0675 
L 252.340499 147.105 
L 252.824365 145.095625 
L 253.308232 141.076875 
L 254.275965 149.114375 
L 254.759832 141.076875 
L 255.243698 141.076875 
L 255.727565 143.08625 
L 256.211432 137.058125 
L 256.695298 141.076875 
L 257.179165 135.04875 
L 257.663031 137.058125 
L 258.146898 131.03 
L 258.630764 133.039375 
L 259.114631 125.001875 
L 259.598498 129.020625 
L 260.082364 129.020625 
L 260.566231 127.01125 
L 261.050097 131.03 
L 261.533964 118.97375 
L 262.501697 114.955 
L 262.985564 118.97375 
L 263.46943 127.01125 
L 263.953297 120.983125 
L 264.437164 120.983125 
L 265.404897 112.945625 
L 265.888763 110.93625 
L 266.37263 114.955 
L 267.340363 114.955 
L 267.82423 120.983125 
L 268.308096 116.964375 
L 269.275829 112.945625 
L 270.243563 116.964375 
L 270.727429 122.9925 
L 271.211296 116.964375 
L 272.662896 122.9925 
L 273.146762 122.9925 
L 273.630629 131.03 
L 274.114495 131.03 
L 274.598362 129.020625 
L 275.082228 131.03 
L 275.566095 127.01125 
L 276.049962 133.039375 
L 276.533828 135.04875 
L 277.017695 141.076875 
L 277.501561 137.058125 
L 278.469295 133.039375 
L 278.953161 133.039375 
L 279.437028 137.058125 
L 279.920894 139.0675 
L 280.888628 131.03 
L 281.372494 125.001875 
L 281.856361 125.001875 
L 282.340227 122.9925 
L 283.30796 127.01125 
L 283.791827 135.04875 
L 284.75956 135.04875 
L 285.243427 133.039375 
L 285.727293 139.0675 
L 286.21116 143.08625 
L 286.695027 143.08625 
L 287.178893 137.058125 
L 287.66276 137.058125 
L 288.146626 135.04875 
L 288.630493 129.020625 
L 289.11436 129.020625 
L 289.598226 127.01125 
L 290.082093 127.01125 
L 290.565959 131.03 
L 291.049826 131.03 
L 292.017559 127.01125 
L 292.501426 127.01125 
L 292.985292 129.020625 
L 293.469159 129.020625 
L 293.953025 125.001875 
L 294.436892 125.001875 
L 294.920759 127.01125 
L 295.404625 127.01125 
L 295.888492 125.001875 
L 296.372358 120.983125 
L 297.340091 125.001875 
L 297.823958 114.955 
L 298.307825 116.964375 
L 298.791691 114.955 
L 299.275558 114.955 
L 299.759424 116.964375 
L 300.243291 112.945625 
L 300.727158 112.945625 
L 301.211024 110.93625 
L 301.694891 116.964375 
L 302.178757 120.983125 
L 303.146491 125.001875 
L 303.630357 125.001875 
L 304.114224 122.9925 
L 304.59809 129.020625 
L 305.081957 129.020625 
L 306.533557 135.04875 
L 307.50129 135.04875 
L 307.985156 139.0675 
L 308.95289 151.12375 
L 309.436756 159.16125 
L 309.920623 163.18 
L 310.404489 173.226875 
L 310.888356 171.2175 
L 311.372223 171.2175 
L 311.856089 169.208125 
L 312.339956 175.23625 
L 313.307689 175.23625 
L 313.791555 171.2175 
L 314.275422 171.2175 
L 314.759289 169.208125 
L 315.243155 163.18 
L 315.727022 163.18 
L 316.210888 169.208125 
L 316.694755 159.16125 
L 317.178622 153.133125 
L 317.662488 153.133125 
L 318.146355 151.12375 
L 318.630221 153.133125 
L 319.114088 151.12375 
L 319.597955 151.12375 
L 320.081821 147.105 
L 320.565688 141.076875 
L 321.049554 139.0675 
L 321.533421 135.04875 
L 322.017287 139.0675 
L 322.501154 137.058125 
L 322.985021 129.020625 
L 323.468887 133.039375 
L 323.952754 135.04875 
L 324.43662 133.039375 
L 324.920487 129.020625 
L 325.404354 133.039375 
L 325.88822 131.03 
L 326.372087 133.039375 
L 326.855953 133.039375 
L 327.33982 129.020625 
L 327.823687 129.020625 
L 328.307553 127.01125 
L 328.79142 127.01125 
L 329.759153 139.0675 
L 330.726886 135.04875 
L 331.210753 147.105 
L 331.694619 147.105 
L 332.662352 151.12375 
L 333.146219 149.114375 
L 333.630086 141.076875 
L 334.113952 143.08625 
L 334.597819 153.133125 
L 335.081685 157.151875 
L 335.565552 157.151875 
L 336.049419 163.18 
L 336.533285 163.18 
L 337.017152 159.16125 
L 337.501018 165.189375 
L 337.984885 155.1425 
L 338.952618 151.12375 
L 339.436485 155.1425 
L 339.920351 151.12375 
L 340.888084 151.12375 
L 341.371951 157.151875 
L 341.855818 155.1425 
L 342.339684 157.151875 
L 343.791284 157.151875 
L 344.275151 153.133125 
L 345.242884 157.151875 
L 345.72675 153.133125 
L 346.210617 151.12375 
L 346.694483 155.1425 
L 347.17835 155.1425 
L 347.662217 153.133125 
L 348.146083 157.151875 
L 348.62995 155.1425 
L 350.08155 155.1425 
L 350.565416 153.133125 
L 351.049283 153.133125 
L 351.533149 155.1425 
L 352.500883 155.1425 
L 352.984749 151.12375 
L 353.468616 151.12375 
L 353.952482 149.114375 
L 354.436349 153.133125 
L 354.920215 153.133125 
L 355.404082 155.1425 
L 355.887949 151.12375 
L 356.371815 153.133125 
L 356.855682 151.12375 
L 357.339548 155.1425 
L 357.823415 157.151875 
L 358.307282 157.151875 
L 358.791148 159.16125 
L 359.275015 159.16125 
L 360.242748 155.1425 
L 360.726615 157.151875 
L 361.210481 149.114375 
L 361.694348 149.114375 
L 362.178214 151.12375 
L 362.662081 159.16125 
L 363.145947 161.170625 
L 363.629814 157.151875 
L 364.113681 159.16125 
L 364.597547 165.189375 
L 365.081414 165.189375 
L 365.56528 159.16125 
L 366.049147 159.16125 
L 366.533014 161.170625 
L 367.01688 169.208125 
L 367.500747 161.170625 
L 367.984613 163.18 
L 368.952347 159.16125 
L 369.436213 163.18 
L 369.92008 161.170625 
L 370.403946 163.18 
L 370.887813 169.208125 
L 371.371679 165.189375 
L 371.855546 167.19875 
L 372.823279 167.19875 
L 373.307146 171.2175 
L 373.791012 171.2175 
L 374.274879 167.19875 
L 375.242612 175.23625 
L 376.210345 175.23625 
L 376.694212 169.208125 
L 377.178079 167.19875 
L 377.661945 163.18 
L 378.145812 165.189375 
L 379.113545 157.151875 
L 379.597411 155.1425 
L 380.081278 163.18 
L 380.565145 167.19875 
L 381.049011 165.189375 
L 381.532878 165.189375 
L 382.016744 175.23625 
L 382.500611 175.23625 
L 382.984478 177.245625 
L 383.468344 181.264375 
L 383.952211 175.23625 
L 384.436077 177.245625 
L 384.919944 177.245625 
L 385.403811 173.226875 
L 385.887677 177.245625 
L 386.371544 175.23625 
L 386.85541 169.208125 
L 387.339277 167.19875 
L 387.823143 163.18 
L 388.30701 163.18 
L 388.790877 169.208125 
L 389.75861 173.226875 
L 390.242476 179.255 
L 390.726343 181.264375 
L 391.21021 189.301875 
L 391.694076 187.2925 
L 392.177943 189.301875 
L 392.661809 187.2925 
L 393.145676 195.33 
L 394.113409 199.34875 
L 394.597276 195.33 
L 395.565009 195.33 
L 396.048875 197.339375 
L 396.532742 197.339375 
L 397.016609 187.2925 
L 397.984342 183.27375 
L 398.468208 185.283125 
L 399.919808 185.283125 
L 400.887541 189.301875 
L 401.371408 197.339375 
L 402.339141 201.358125 
L 403.306874 197.339375 
L 403.790741 199.34875 
L 404.274607 197.339375 
L 404.758474 197.339375 
L 405.242341 199.34875 
L 405.726207 193.320625 
L 406.69394 193.320625 
L 407.177807 197.339375 
L 407.661674 195.33 
L 408.629407 187.2925 
L 409.59714 187.2925 
L 410.081006 185.283125 
L 410.564873 185.283125 
L 411.04874 183.27375 
L 411.532606 195.33 
L 412.016473 189.301875 
L 412.500339 185.283125 
L 412.984206 191.31125 
L 413.468073 187.2925 
L 413.951939 179.255 
L 414.435806 181.264375 
L 415.403539 177.245625 
L 415.887406 169.208125 
L 416.855139 173.226875 
L 417.339005 171.2175 
L 417.822872 167.19875 
L 418.306738 165.189375 
L 418.790605 167.19875 
L 419.274472 167.19875 
L 419.758338 163.18 
L 420.242205 163.18 
L 421.209938 167.19875 
L 421.693805 163.18 
L 422.177671 161.170625 
L 422.661538 165.189375 
L 423.145404 173.226875 
L 423.629271 175.23625 
L 424.113138 171.2175 
L 424.597004 177.245625 
L 425.080871 175.23625 
L 425.564737 181.264375 
L 426.048604 179.255 
L 426.53247 185.283125 
L 427.016337 193.320625 
L 427.500204 189.301875 
L 427.98407 189.301875 
L 428.467937 199.34875 
L 428.951803 201.358125 
L 429.43567 205.376875 
L 429.919537 201.358125 
L 430.403403 209.395625 
L 430.88727 211.405 
L 431.371136 209.395625 
L 431.371136 209.395625 
" clip-path="url(#p2c29e644f1)" style="fill: none; stroke-dasharray: 1.85,0.8; stroke-dashoffset: 0; stroke: #80ffb4; stroke-width: 0.5"/>
   </g>
   <g id="line2d_18">
    <path d="M 58.793864 291.78 
L 145.405983 291.78 
L 146.373716 287.76125 
L 148.309182 287.76125 
L 148.793049 285.751875 
L 156.051048 285.751875 
L 156.534914 283.7425 
L 157.986514 283.7425 
L 158.470381 281.733125 
L 159.921981 281.733125 
L 160.889714 285.751875 
L 162.341313 285.751875 
L 162.82518 283.7425 
L 163.309047 285.751875 
L 163.792913 283.7425 
L 164.760646 283.7425 
L 165.244513 281.733125 
L 167.179979 281.733125 
L 168.147713 277.714375 
L 168.631579 277.714375 
L 169.115446 275.705 
L 169.599312 275.705 
L 170.083179 273.695625 
L 170.567045 273.695625 
L 171.050912 275.705 
L 171.534779 275.705 
L 172.502512 271.68625 
L 172.986378 273.695625 
L 173.470245 271.68625 
L 173.954112 271.68625 
L 174.437978 269.676875 
L 174.921845 265.658125 
L 175.405711 263.64875 
L 175.889578 263.64875 
L 177.341178 257.620625 
L 177.825044 257.620625 
L 178.792777 253.601875 
L 179.276644 249.583125 
L 179.760511 247.57375 
L 180.244377 247.57375 
L 181.21211 243.555 
L 182.179844 243.555 
L 182.66371 245.564375 
L 183.147577 241.545625 
L 183.631443 233.508125 
L 185.56691 225.470625 
L 186.050776 221.451875 
L 186.534643 223.46125 
L 187.018509 221.451875 
L 187.502376 217.433125 
L 187.986243 217.433125 
L 188.470109 213.414375 
L 188.953976 211.405 
L 189.921709 211.405 
L 190.405576 209.395625 
L 190.889442 211.405 
L 191.373309 209.395625 
L 191.857175 205.376875 
L 192.341042 203.3675 
L 193.308775 207.38625 
L 193.792642 211.405 
L 194.276508 213.414375 
L 194.760375 209.395625 
L 195.244241 211.405 
L 196.211975 211.405 
L 196.695841 213.414375 
L 197.179708 209.395625 
L 197.663574 213.414375 
L 198.147441 221.451875 
L 198.631308 219.4425 
L 199.599041 219.4425 
L 200.082907 215.42375 
L 200.566774 219.4425 
L 201.05064 217.433125 
L 201.534507 219.4425 
L 202.018374 219.4425 
L 202.50224 221.451875 
L 202.986107 225.470625 
L 203.469973 225.470625 
L 203.95384 227.48 
L 204.437707 227.48 
L 204.921573 229.489375 
L 205.40544 229.489375 
L 205.889306 223.46125 
L 206.373173 227.48 
L 206.85704 225.470625 
L 207.340906 225.470625 
L 207.824773 223.46125 
L 208.308639 223.46125 
L 208.792506 217.433125 
L 209.276372 219.4425 
L 209.760239 219.4425 
L 210.244106 215.42375 
L 210.727972 213.414375 
L 211.695705 213.414375 
L 212.663439 209.395625 
L 213.631172 213.414375 
L 214.115038 211.405 
L 214.598905 211.405 
L 215.566638 207.38625 
L 216.050505 207.38625 
L 216.534371 209.395625 
L 217.502104 209.395625 
L 217.985971 211.405 
L 218.469838 209.395625 
L 219.437571 197.339375 
L 219.921437 193.320625 
L 221.373037 193.320625 
L 221.856904 185.283125 
L 222.34077 187.2925 
L 222.824637 185.283125 
L 223.79237 189.301875 
L 224.276237 185.283125 
L 224.760103 189.301875 
L 225.24397 185.283125 
L 225.727836 183.27375 
L 226.69557 187.2925 
L 227.179436 187.2925 
L 227.663303 181.264375 
L 228.147169 177.245625 
L 228.631036 175.23625 
L 229.114903 179.255 
L 229.598769 175.23625 
L 230.082636 173.226875 
L 231.050369 177.245625 
L 231.534236 177.245625 
L 232.018102 173.226875 
L 232.501969 165.189375 
L 232.985835 167.19875 
L 233.469702 167.19875 
L 233.953568 171.2175 
L 234.437435 171.2175 
L 234.921302 181.264375 
L 235.405168 185.283125 
L 235.889035 187.2925 
L 236.372901 193.320625 
L 236.856768 193.320625 
L 237.340635 187.2925 
L 237.824501 189.301875 
L 238.308368 183.27375 
L 238.792234 185.283125 
L 239.276101 183.27375 
L 239.759968 187.2925 
L 240.727701 183.27375 
L 241.211567 179.255 
L 242.1793 183.27375 
L 242.663167 183.27375 
L 243.147034 189.301875 
L 243.6309 187.2925 
L 244.114767 193.320625 
L 244.598633 197.339375 
L 245.0825 195.33 
L 245.566367 195.33 
L 246.050233 183.27375 
L 246.5341 185.283125 
L 247.017966 195.33 
L 247.501833 191.31125 
L 247.9857 199.34875 
L 248.469566 195.33 
L 248.953433 195.33 
L 249.921166 183.27375 
L 250.405032 185.283125 
L 250.888899 185.283125 
L 251.372766 183.27375 
L 251.856632 189.301875 
L 252.340499 187.2925 
L 252.824365 193.320625 
L 253.308232 185.283125 
L 253.792099 183.27375 
L 254.275965 179.255 
L 254.759832 179.255 
L 255.727565 183.27375 
L 256.211432 181.264375 
L 256.695298 181.264375 
L 257.179165 183.27375 
L 257.663031 177.245625 
L 258.146898 179.255 
L 258.630764 173.226875 
L 259.114631 171.2175 
L 259.598498 173.226875 
L 260.082364 163.18 
L 260.566231 167.19875 
L 261.533964 159.16125 
L 262.501697 147.105 
L 262.985564 145.095625 
L 263.46943 147.105 
L 264.437164 147.105 
L 264.92103 143.08625 
L 265.404897 141.076875 
L 265.888763 141.076875 
L 266.37263 135.04875 
L 266.856496 137.058125 
L 267.340363 133.039375 
L 268.308096 133.039375 
L 268.791963 135.04875 
L 269.275829 135.04875 
L 269.759696 131.03 
L 270.243563 129.020625 
L 270.727429 129.020625 
L 271.211296 131.03 
L 271.695162 131.03 
L 272.179029 135.04875 
L 273.146762 127.01125 
L 273.630629 129.020625 
L 274.114495 127.01125 
L 274.598362 135.04875 
L 275.082228 141.076875 
L 275.566095 137.058125 
L 276.049962 129.020625 
L 276.533828 137.058125 
L 277.017695 141.076875 
L 277.501561 139.0675 
L 277.985428 139.0675 
L 278.469295 137.058125 
L 278.953161 141.076875 
L 279.437028 143.08625 
L 279.920894 147.105 
L 280.404761 147.105 
L 280.888628 151.12375 
L 281.372494 151.12375 
L 281.856361 149.114375 
L 282.340227 157.151875 
L 282.824094 163.18 
L 283.30796 165.189375 
L 284.275694 173.226875 
L 284.75956 169.208125 
L 285.243427 167.19875 
L 286.21116 167.19875 
L 286.695027 159.16125 
L 287.178893 159.16125 
L 288.146626 163.18 
L 288.630493 163.18 
L 289.11436 165.189375 
L 289.598226 163.18 
L 290.565959 175.23625 
L 291.049826 167.19875 
L 291.533692 163.18 
L 292.017559 163.18 
L 292.501426 161.170625 
L 292.985292 167.19875 
L 293.953025 167.19875 
L 294.436892 165.189375 
L 294.920759 161.170625 
L 295.888492 161.170625 
L 296.372358 163.18 
L 297.340091 159.16125 
L 297.823958 159.16125 
L 298.307825 157.151875 
L 298.791691 159.16125 
L 299.759424 171.2175 
L 300.727158 167.19875 
L 301.211024 177.245625 
L 301.694891 179.255 
L 302.178757 185.283125 
L 302.662624 183.27375 
L 303.146491 179.255 
L 303.630357 179.255 
L 304.59809 175.23625 
L 305.081957 181.264375 
L 305.565823 189.301875 
L 306.04969 189.301875 
L 306.533557 195.33 
L 307.017423 197.339375 
L 307.50129 191.31125 
L 307.985156 187.2925 
L 308.95289 183.27375 
L 309.436756 189.301875 
L 309.920623 191.31125 
L 310.404489 187.2925 
L 310.888356 189.301875 
L 311.372223 189.301875 
L 311.856089 187.2925 
L 312.339956 181.264375 
L 312.823822 181.264375 
L 313.307689 179.255 
L 313.791555 171.2175 
L 314.275422 171.2175 
L 314.759289 173.226875 
L 315.243155 177.245625 
L 315.727022 173.226875 
L 316.694755 173.226875 
L 317.178622 165.189375 
L 317.662488 163.18 
L 318.146355 159.16125 
L 318.630221 159.16125 
L 319.114088 161.170625 
L 319.597955 155.1425 
L 320.081821 153.133125 
L 320.565688 153.133125 
L 321.049554 155.1425 
L 322.017287 155.1425 
L 322.501154 161.170625 
L 322.985021 159.16125 
L 323.468887 161.170625 
L 324.43662 153.133125 
L 324.920487 157.151875 
L 325.88822 153.133125 
L 326.372087 155.1425 
L 326.855953 159.16125 
L 327.33982 153.133125 
L 327.823687 149.114375 
L 328.307553 159.16125 
L 328.79142 153.133125 
L 329.275286 153.133125 
L 329.759153 149.114375 
L 330.243019 149.114375 
L 330.726886 147.105 
L 331.210753 143.08625 
L 331.694619 151.12375 
L 332.662352 155.1425 
L 333.146219 153.133125 
L 334.113952 157.151875 
L 334.597819 161.170625 
L 335.081685 167.19875 
L 335.565552 169.208125 
L 336.049419 167.19875 
L 336.533285 173.226875 
L 337.017152 165.189375 
L 337.501018 167.19875 
L 337.984885 163.18 
L 338.468751 163.18 
L 338.952618 155.1425 
L 339.436485 157.151875 
L 340.404218 157.151875 
L 340.888084 159.16125 
L 341.371951 157.151875 
L 341.855818 165.189375 
L 342.339684 163.18 
L 342.823551 155.1425 
L 343.307417 151.12375 
L 343.791284 153.133125 
L 344.275151 159.16125 
L 344.759017 161.170625 
L 345.242884 165.189375 
L 345.72675 167.19875 
L 346.210617 165.189375 
L 346.694483 165.189375 
L 347.17835 163.18 
L 347.662217 167.19875 
L 348.146083 167.19875 
L 348.62995 171.2175 
L 349.113816 169.208125 
L 349.597683 163.18 
L 350.08155 155.1425 
L 350.565416 157.151875 
L 351.049283 155.1425 
L 351.533149 161.170625 
L 352.017016 157.151875 
L 352.500883 163.18 
L 352.984749 165.189375 
L 353.468616 179.255 
L 353.952482 173.226875 
L 354.436349 165.189375 
L 355.404082 157.151875 
L 355.887949 161.170625 
L 356.371815 161.170625 
L 357.823415 179.255 
L 358.307282 179.255 
L 359.758881 167.19875 
L 360.242748 169.208125 
L 360.726615 173.226875 
L 362.178214 179.255 
L 362.662081 175.23625 
L 363.145947 175.23625 
L 363.629814 179.255 
L 364.113681 175.23625 
L 364.597547 181.264375 
L 365.081414 177.245625 
L 365.56528 177.245625 
L 366.049147 173.226875 
L 366.533014 181.264375 
L 367.01688 183.27375 
L 367.984613 179.255 
L 369.436213 197.339375 
L 369.92008 197.339375 
L 370.403946 195.33 
L 371.371679 187.2925 
L 371.855546 185.283125 
L 372.823279 185.283125 
L 373.307146 183.27375 
L 373.791012 187.2925 
L 374.274879 189.301875 
L 374.758746 189.301875 
L 375.242612 185.283125 
L 375.726479 187.2925 
L 376.210345 183.27375 
L 377.178079 183.27375 
L 377.661945 179.255 
L 378.145812 177.245625 
L 378.629678 183.27375 
L 379.113545 177.245625 
L 380.565145 183.27375 
L 381.049011 183.27375 
L 381.532878 179.255 
L 382.016744 171.2175 
L 382.500611 169.208125 
L 382.984478 163.18 
L 384.436077 163.18 
L 385.887677 169.208125 
L 386.371544 169.208125 
L 386.85541 171.2175 
L 387.339277 167.19875 
L 387.823143 169.208125 
L 388.30701 167.19875 
L 391.21021 167.19875 
L 391.694076 171.2175 
L 392.177943 173.226875 
L 392.661809 173.226875 
L 393.145676 171.2175 
L 393.629543 173.226875 
L 394.113409 173.226875 
L 394.597276 171.2175 
L 395.081142 173.226875 
L 395.565009 163.18 
L 396.048875 165.189375 
L 396.532742 175.23625 
L 397.016609 171.2175 
L 397.500475 175.23625 
L 397.984342 173.226875 
L 398.468208 177.245625 
L 398.952075 177.245625 
L 399.919808 169.208125 
L 400.403675 171.2175 
L 400.887541 169.208125 
L 401.371408 165.189375 
L 401.855274 169.208125 
L 402.339141 171.2175 
L 403.306874 171.2175 
L 403.790741 165.189375 
L 404.274607 163.18 
L 404.758474 163.18 
L 405.242341 165.189375 
L 405.726207 163.18 
L 406.210074 165.189375 
L 406.69394 163.18 
L 407.661674 163.18 
L 408.14554 167.19875 
L 408.629407 165.189375 
L 409.113273 169.208125 
L 409.59714 165.189375 
L 410.081006 171.2175 
L 410.564873 173.226875 
L 411.532606 169.208125 
L 412.016473 169.208125 
L 412.500339 173.226875 
L 412.984206 163.18 
L 413.468073 159.16125 
L 413.951939 165.189375 
L 414.435806 169.208125 
L 414.919672 167.19875 
L 415.403539 173.226875 
L 415.887406 167.19875 
L 416.855139 171.2175 
L 417.822872 171.2175 
L 418.306738 177.245625 
L 419.758338 177.245625 
L 420.242205 179.255 
L 421.209938 179.255 
L 421.693805 175.23625 
L 422.177671 173.226875 
L 422.661538 175.23625 
L 423.145404 175.23625 
L 423.629271 171.2175 
L 424.597004 175.23625 
L 425.080871 171.2175 
L 425.564737 173.226875 
L 426.048604 183.27375 
L 426.53247 185.283125 
L 427.016337 181.264375 
L 427.98407 193.320625 
L 428.467937 189.301875 
L 428.951803 187.2925 
L 429.43567 189.301875 
L 429.919537 189.301875 
L 430.403403 199.34875 
L 430.88727 193.320625 
L 431.371136 191.31125 
L 431.371136 191.31125 
" clip-path="url(#p2c29e644f1)" style="fill: none; stroke-dasharray: 1.85,0.8; stroke-dashoffset: 0; stroke: #ffb360; stroke-width: 0.5"/>
   </g>
   <g id="line2d_19">
    <path d="M 58.793864 291.78 
L 156.051048 291.78 
L 156.534914 289.770625 
L 169.115446 289.770625 
L 169.599312 287.76125 
L 172.018645 287.76125 
L 172.502512 283.7425 
L 177.825044 283.7425 
L 178.308911 281.733125 
L 178.792777 281.733125 
L 179.760511 277.714375 
L 180.244377 277.714375 
L 180.728244 273.695625 
L 181.21211 273.695625 
L 181.695977 271.68625 
L 183.631443 271.68625 
L 184.11531 269.676875 
L 185.56691 269.676875 
L 186.050776 267.6675 
L 186.534643 263.64875 
L 187.018509 267.6675 
L 187.986243 263.64875 
L 189.437842 263.64875 
L 189.921709 257.620625 
L 190.405576 255.61125 
L 190.889442 255.61125 
L 191.373309 251.5925 
L 192.341042 251.5925 
L 192.824909 253.601875 
L 193.308775 253.601875 
L 193.792642 255.61125 
L 194.276508 255.61125 
L 194.760375 253.601875 
L 197.179708 253.601875 
L 197.663574 251.5925 
L 198.147441 251.5925 
L 198.631308 249.583125 
L 199.115174 249.583125 
L 199.599041 245.564375 
L 200.566774 245.564375 
L 201.05064 247.57375 
L 201.534507 245.564375 
L 202.018374 245.564375 
L 202.50224 241.545625 
L 202.986107 241.545625 
L 203.469973 239.53625 
L 203.95384 239.53625 
L 204.921573 243.555 
L 205.40544 239.53625 
L 205.889306 241.545625 
L 206.373173 241.545625 
L 206.85704 239.53625 
L 207.340906 233.508125 
L 207.824773 225.470625 
L 208.308639 225.470625 
L 208.792506 227.48 
L 209.276372 223.46125 
L 209.760239 227.48 
L 210.244106 221.451875 
L 210.727972 221.451875 
L 211.211839 217.433125 
L 211.695705 217.433125 
L 212.179572 219.4425 
L 212.663439 219.4425 
L 213.147305 223.46125 
L 213.631172 221.451875 
L 214.115038 223.46125 
L 215.566638 211.405 
L 216.050505 213.414375 
L 216.534371 213.414375 
L 217.018238 217.433125 
L 217.502104 213.414375 
L 217.985971 215.42375 
L 218.469838 211.405 
L 218.953704 209.395625 
L 219.437571 209.395625 
L 219.921437 211.405 
L 220.405304 211.405 
L 220.889171 207.38625 
L 221.373037 205.376875 
L 221.856904 209.395625 
L 222.34077 215.42375 
L 223.308504 211.405 
L 224.276237 211.405 
L 224.760103 215.42375 
L 225.24397 217.433125 
L 225.727836 217.433125 
L 226.211703 215.42375 
L 227.179436 203.3675 
L 227.663303 205.376875 
L 228.147169 199.34875 
L 228.631036 201.358125 
L 229.114903 205.376875 
L 229.598769 207.38625 
L 230.082636 207.38625 
L 231.050369 203.3675 
L 231.534236 203.3675 
L 232.018102 205.376875 
L 232.985835 197.339375 
L 233.469702 201.358125 
L 233.953568 195.33 
L 234.437435 193.320625 
L 234.921302 193.320625 
L 235.405168 191.31125 
L 235.889035 195.33 
L 236.372901 197.339375 
L 236.856768 191.31125 
L 237.340635 189.301875 
L 239.276101 189.301875 
L 239.759968 177.245625 
L 240.243834 181.264375 
L 240.727701 175.23625 
L 241.695434 183.27375 
L 242.1793 179.255 
L 242.663167 179.255 
L 243.147034 175.23625 
L 243.6309 175.23625 
L 244.114767 171.2175 
L 244.598633 173.226875 
L 245.0825 171.2175 
L 245.566367 165.189375 
L 246.050233 165.189375 
L 246.5341 163.18 
L 247.017966 163.18 
L 247.501833 165.189375 
L 247.9857 165.189375 
L 248.469566 163.18 
L 248.953433 159.16125 
L 249.437299 161.170625 
L 249.921166 159.16125 
L 250.405032 149.114375 
L 250.888899 149.114375 
L 251.372766 155.1425 
L 251.856632 151.12375 
L 252.340499 149.114375 
L 252.824365 155.1425 
L 253.308232 147.105 
L 253.792099 143.08625 
L 254.275965 155.1425 
L 254.759832 149.114375 
L 255.243698 155.1425 
L 255.727565 155.1425 
L 256.695298 159.16125 
L 257.179165 167.19875 
L 257.663031 161.170625 
L 258.146898 159.16125 
L 258.630764 163.18 
L 259.114631 161.170625 
L 259.598498 163.18 
L 260.082364 169.208125 
L 260.566231 167.19875 
L 262.501697 175.23625 
L 262.985564 175.23625 
L 263.46943 171.2175 
L 263.953297 169.208125 
L 264.437164 175.23625 
L 264.92103 185.283125 
L 265.404897 177.245625 
L 265.888763 171.2175 
L 266.37263 177.245625 
L 266.856496 179.255 
L 267.340363 175.23625 
L 267.82423 183.27375 
L 268.308096 185.283125 
L 268.791963 181.264375 
L 269.275829 183.27375 
L 269.759696 183.27375 
L 270.243563 181.264375 
L 270.727429 181.264375 
L 271.211296 177.245625 
L 271.695162 175.23625 
L 272.179029 185.283125 
L 272.662896 185.283125 
L 273.630629 189.301875 
L 274.114495 179.255 
L 274.598362 181.264375 
L 275.082228 179.255 
L 275.566095 179.255 
L 277.017695 173.226875 
L 277.501561 173.226875 
L 277.985428 181.264375 
L 278.469295 177.245625 
L 278.953161 177.245625 
L 279.437028 171.2175 
L 279.920894 173.226875 
L 280.404761 177.245625 
L 280.888628 171.2175 
L 281.372494 169.208125 
L 281.856361 171.2175 
L 282.340227 169.208125 
L 282.824094 161.170625 
L 283.791827 165.189375 
L 284.275694 161.170625 
L 284.75956 161.170625 
L 285.243427 151.12375 
L 285.727293 155.1425 
L 286.21116 149.114375 
L 286.695027 147.105 
L 287.66276 151.12375 
L 288.146626 155.1425 
L 288.630493 161.170625 
L 289.11436 163.18 
L 289.598226 167.19875 
L 290.082093 169.208125 
L 290.565959 169.208125 
L 291.049826 175.23625 
L 291.533692 173.226875 
L 292.017559 175.23625 
L 292.501426 175.23625 
L 292.985292 181.264375 
L 293.469159 181.264375 
L 293.953025 185.283125 
L 294.436892 191.31125 
L 294.920759 189.301875 
L 295.404625 195.33 
L 295.888492 199.34875 
L 296.372358 197.339375 
L 296.856225 197.339375 
L 297.340091 203.3675 
L 298.307825 195.33 
L 298.791691 201.358125 
L 299.275558 203.3675 
L 299.759424 209.395625 
L 300.243291 211.405 
L 300.727158 211.405 
L 301.211024 209.395625 
L 301.694891 209.395625 
L 302.178757 201.358125 
L 302.662624 199.34875 
L 303.146491 199.34875 
L 303.630357 193.320625 
L 304.114224 193.320625 
L 304.59809 187.2925 
L 305.081957 179.255 
L 305.565823 173.226875 
L 306.04969 175.23625 
L 306.533557 181.264375 
L 307.017423 177.245625 
L 307.50129 169.208125 
L 307.985156 163.18 
L 308.469023 163.18 
L 308.95289 161.170625 
L 309.436756 165.189375 
L 309.920623 165.189375 
L 310.404489 157.151875 
L 310.888356 161.170625 
L 312.339956 167.19875 
L 313.307689 163.18 
L 313.791555 159.16125 
L 314.275422 159.16125 
L 314.759289 157.151875 
L 315.243155 161.170625 
L 315.727022 163.18 
L 316.210888 151.12375 
L 316.694755 145.095625 
L 317.178622 143.08625 
L 318.146355 143.08625 
L 318.630221 141.076875 
L 319.114088 143.08625 
L 319.597955 151.12375 
L 320.081821 157.151875 
L 321.049554 157.151875 
L 322.501154 169.208125 
L 322.985021 163.18 
L 323.468887 161.170625 
L 323.952754 161.170625 
L 324.43662 155.1425 
L 324.920487 153.133125 
L 326.372087 141.076875 
L 326.855953 145.095625 
L 327.33982 147.105 
L 328.307553 143.08625 
L 328.79142 145.095625 
L 329.275286 145.095625 
L 329.759153 147.105 
L 330.243019 143.08625 
L 330.726886 153.133125 
L 331.210753 167.19875 
L 331.694619 163.18 
L 332.662352 163.18 
L 333.630086 155.1425 
L 334.113952 157.151875 
L 334.597819 151.12375 
L 335.081685 141.076875 
L 335.565552 141.076875 
L 336.049419 145.095625 
L 336.533285 143.08625 
L 337.017152 145.095625 
L 337.501018 151.12375 
L 337.984885 153.133125 
L 338.468751 149.114375 
L 338.952618 153.133125 
L 339.436485 155.1425 
L 339.920351 159.16125 
L 340.404218 157.151875 
L 340.888084 163.18 
L 341.371951 161.170625 
L 341.855818 161.170625 
L 342.339684 155.1425 
L 342.823551 157.151875 
L 343.307417 157.151875 
L 343.791284 155.1425 
L 344.275151 157.151875 
L 344.759017 157.151875 
L 345.242884 155.1425 
L 345.72675 149.114375 
L 346.210617 149.114375 
L 346.694483 151.12375 
L 347.662217 143.08625 
L 348.146083 147.105 
L 348.62995 147.105 
L 349.113816 145.095625 
L 349.597683 155.1425 
L 350.08155 145.095625 
L 350.565416 141.076875 
L 351.049283 141.076875 
L 352.017016 145.095625 
L 352.500883 145.095625 
L 352.984749 149.114375 
L 353.468616 149.114375 
L 353.952482 153.133125 
L 354.436349 153.133125 
L 354.920215 157.151875 
L 355.404082 153.133125 
L 356.371815 153.133125 
L 356.855682 161.170625 
L 357.339548 163.18 
L 357.823415 159.16125 
L 358.307282 161.170625 
L 358.791148 159.16125 
L 359.275015 163.18 
L 360.242748 167.19875 
L 361.694348 179.255 
L 362.178214 187.2925 
L 363.145947 187.2925 
L 363.629814 193.320625 
L 364.113681 195.33 
L 364.597547 205.376875 
L 365.081414 203.3675 
L 365.56528 205.376875 
L 366.049147 197.339375 
L 366.533014 193.320625 
L 367.01688 191.31125 
L 367.500747 187.2925 
L 367.984613 191.31125 
L 368.46848 185.283125 
L 368.952347 185.283125 
L 369.436213 183.27375 
L 369.92008 187.2925 
L 370.887813 183.27375 
L 371.371679 179.255 
L 371.855546 177.245625 
L 372.339413 181.264375 
L 372.823279 177.245625 
L 373.307146 177.245625 
L 373.791012 173.226875 
L 374.274879 173.226875 
L 375.242612 181.264375 
L 375.726479 175.23625 
L 377.178079 181.264375 
L 378.145812 181.264375 
L 378.629678 173.226875 
L 379.113545 169.208125 
L 379.597411 167.19875 
L 380.081278 169.208125 
L 380.565145 175.23625 
L 381.049011 175.23625 
L 381.532878 173.226875 
L 382.016744 173.226875 
L 382.500611 169.208125 
L 382.984478 177.245625 
L 383.468344 169.208125 
L 383.952211 173.226875 
L 384.436077 171.2175 
L 384.919944 175.23625 
L 385.403811 181.264375 
L 386.371544 185.283125 
L 386.85541 185.283125 
L 387.339277 187.2925 
L 387.823143 185.283125 
L 388.30701 189.301875 
L 388.790877 191.31125 
L 389.274743 185.283125 
L 389.75861 181.264375 
L 390.242476 181.264375 
L 391.21021 177.245625 
L 391.694076 171.2175 
L 392.177943 169.208125 
L 392.661809 165.189375 
L 393.629543 173.226875 
L 394.113409 175.23625 
L 394.597276 173.226875 
L 395.081142 173.226875 
L 395.565009 171.2175 
L 397.984342 181.264375 
L 398.468208 181.264375 
L 398.952075 177.245625 
L 400.403675 171.2175 
L 400.887541 167.19875 
L 401.371408 167.19875 
L 401.855274 161.170625 
L 402.339141 161.170625 
L 402.823008 155.1425 
L 403.306874 155.1425 
L 403.790741 159.16125 
L 404.274607 155.1425 
L 404.758474 153.133125 
L 405.242341 149.114375 
L 405.726207 149.114375 
L 406.210074 157.151875 
L 406.69394 155.1425 
L 407.177807 159.16125 
L 407.661674 157.151875 
L 408.14554 153.133125 
L 408.629407 157.151875 
L 409.59714 161.170625 
L 410.081006 159.16125 
L 410.564873 161.170625 
L 412.016473 161.170625 
L 412.500339 167.19875 
L 412.984206 165.189375 
L 413.468073 173.226875 
L 413.951939 171.2175 
L 414.435806 165.189375 
L 414.919672 163.18 
L 415.403539 169.208125 
L 415.887406 167.19875 
L 416.371272 175.23625 
L 416.855139 175.23625 
L 417.339005 179.255 
L 418.306738 175.23625 
L 419.274472 183.27375 
L 419.758338 189.301875 
L 420.242205 193.320625 
L 420.726071 187.2925 
L 421.209938 193.320625 
L 421.693805 189.301875 
L 422.661538 197.339375 
L 423.629271 189.301875 
L 424.113138 183.27375 
L 425.080871 183.27375 
L 425.564737 185.283125 
L 426.048604 181.264375 
L 428.467937 181.264375 
L 429.43567 189.301875 
L 429.919537 189.301875 
L 430.403403 193.320625 
L 430.88727 195.33 
L 431.371136 195.33 
L 431.371136 195.33 
" clip-path="url(#p2c29e644f1)" style="fill: none; stroke-dasharray: 1.85,0.8; stroke-dashoffset: 0; stroke: #ff0000; stroke-width: 0.5"/>
   </g>
   <g id="patch_3">
    <path d="M 40.165 304.64 
L 40.165 21.72 
" style="fill: none; stroke: #000000; stroke-width: 0.8; stroke-linejoin: miter; stroke-linecap: square"/>
   </g>
   <g id="patch_4">
    <path d="M 450 304.64 
L 450 21.72 
" style="fill: none; stroke: #000000; stroke-width: 0.8; stroke-linejoin: miter; stroke-linecap: square"/>
   </g>
   <g id="patch_5">
    <path d="M 40.165 304.64 
L 450 304.64 
" style="fill: none; stroke: #000000; stroke-width: 0.8; stroke-linejoin: miter; stroke-linecap: square"/>
   </g>
   <g id="patch_6">
    <path d="M 40.165 21.72 
L 450 21.72 
" style="fill: none; stroke: #000000; stroke-width: 0.8; stroke-linejoin: miter; stroke-linecap: square"/>
   </g>
   <g id="text_17">
    <!-- Heating Rate ($^{\circ}C.s^{-1}$) -->
    <g transform="translate(286.066 50.012) scale(0.12 -0.12)">
     <defs>
      <path id="DejaVuSans-48" d="M 628 4666 
L 1259 4666 
L 1259 2753 
L 3553 2753 
L 3553 4666 
L 4184 4666 
L 4184 0 
L 3553 0 
L 3553 2222 
L 1259 2222 
L 1259 0 
L 628 0 
L 628 4666 
z
" transform="scale(0.015625)"/>
      <path id="DejaVuSans-67" d="M 2906 1791 
Q 2906 2416 2648 2759 
Q 2391 3103 1925 3103 
Q 1463 3103 1205 2759 
Q 947 2416 947 1791 
Q 947 1169 1205 825 
Q 1463 481 1925 481 
Q 2391 481 2648 825 
Q 2906 1169 2906 1791 
z
M 3481 434 
Q 3481 -459 3084 -895 
Q 2688 -1331 1869 -1331 
Q 1566 -1331 1297 -1286 
Q 1028 -1241 775 -1147 
L 775 -588 
Q 1028 -725 1275 -790 
Q 1522 -856 1778 -856 
Q 2344 -856 2625 -561 
Q 2906 -266 2906 331 
L 2906 616 
Q 2728 306 2450 153 
Q 2172 0 1784 0 
Q 1141 0 747 490 
Q 353 981 353 1791 
Q 353 2603 747 3093 
Q 1141 3584 1784 3584 
Q 2172 3584 2450 3431 
Q 2728 3278 2906 2969 
L 2906 3500 
L 3481 3500 
L 3481 434 
z
" transform="scale(0.015625)"/>
      <path id="DejaVuSans-52" d="M 2841 2188 
Q 3044 2119 3236 1894 
Q 3428 1669 3622 1275 
L 4263 0 
L 3584 0 
L 2988 1197 
Q 2756 1666 2539 1819 
Q 2322 1972 1947 1972 
L 1259 1972 
L 1259 0 
L 628 0 
L 628 4666 
L 2053 4666 
Q 2853 4666 3247 4331 
Q 3641 3997 3641 3322 
Q 3641 2881 3436 2590 
Q 3231 2300 2841 2188 
z
M 1259 4147 
L 1259 2491 
L 2053 2491 
Q 2509 2491 2742 2702 
Q 2975 2913 2975 3322 
Q 2975 3731 2742 3939 
Q 2509 4147 2053 4147 
L 1259 4147 
z
" transform="scale(0.015625)"/>
      <path id="DejaVuSans-Oblique-73" d="M 3200 3397 
L 3091 2853 
Q 2863 2978 2609 3040 
Q 2356 3103 2088 3103 
Q 1634 3103 1373 2948 
Q 1113 2794 1113 2528 
Q 1113 2219 1719 2053 
Q 1766 2041 1788 2034 
L 1972 1978 
Q 2547 1819 2739 1644 
Q 2931 1469 2931 1166 
Q 2931 609 2489 259 
Q 2047 -91 1331 -91 
Q 1053 -91 747 -37 
Q 441 16 72 128 
L 184 722 
Q 500 559 806 475 
Q 1113 391 1394 391 
Q 1816 391 2080 572 
Q 2344 753 2344 1031 
Q 2344 1331 1650 1516 
L 1591 1531 
L 1394 1581 
Q 956 1697 753 1886 
Q 550 2075 550 2369 
Q 550 2928 970 3256 
Q 1391 3584 2113 3584 
Q 2397 3584 2667 3537 
Q 2938 3491 3200 3397 
z
" transform="scale(0.015625)"/>
     </defs>
     <use xlink:href="#DejaVuSans-48" transform="translate(0 0.684375)"/>
     <use xlink:href="#DejaVuSans-65" transform="translate(75.195312 0.684375)"/>
     <use xlink:href="#DejaVuSans-61" transform="translate(136.71875 0.684375)"/>
     <use xlink:href="#DejaVuSans-74" transform="translate(197.998047 0.684375)"/>
     <use xlink:href="#DejaVuSans-69" transform="translate(237.207031 0.684375)"/>
     <use xlink:href="#DejaVuSans-6e" transform="translate(264.990234 0.684375)"/>
     <use xlink:href="#DejaVuSans-67" transform="translate(328.369141 0.684375)"/>
     <use xlink:href="#DejaVuSans-20" transform="translate(391.845703 0.684375)"/>
     <use xlink:href="#DejaVuSans-52" transform="translate(423.632812 0.684375)"/>
     <use xlink:href="#DejaVuSans-61" transform="translate(493.115234 0.684375)"/>
     <use xlink:href="#DejaVuSans-74" transform="translate(554.394531 0.684375)"/>
     <use xlink:href="#DejaVuSans-65" transform="translate(593.603516 0.684375)"/>
     <use xlink:href="#DejaVuSans-20" transform="translate(655.126953 0.684375)"/>
     <use xlink:href="#DejaVuSans-28" transform="translate(686.914062 0.684375)"/>
     <use xlink:href="#DejaVuSans-2218" transform="translate(726.884766 38.965625) scale(0.7)"/>
     <use xlink:href="#DejaVuSans-Oblique-43" transform="translate(773.4375 0.684375)"/>
     <use xlink:href="#DejaVuSans-2e" transform="translate(843.261719 0.684375)"/>
     <use xlink:href="#DejaVuSans-Oblique-73" transform="translate(894.53125 0.684375)"/>
     <use xlink:href="#DejaVuSans-2212" transform="translate(951.280755 38.965625) scale(0.7)"/>
     <use xlink:href="#DejaVuSans-31" transform="translate(1009.933099 38.965625) scale(0.7)"/>
     <use xlink:href="#DejaVuSans-29" transform="translate(1057.203607 0.684375)"/>
    </g>
   </g>
   <g id="legend_1">
    <g id="patch_7">
     <path d="M 334.0495 131.402625 
L 381.952625 131.402625 
Q 383.952625 131.402625 383.952625 129.402625 
L 383.952625 57.012 
Q 383.952625 55.012 381.952625 55.012 
L 334.0495 55.012 
Q 332.0495 55.012 332.0495 57.012 
L 332.0495 129.402625 
Q 332.0495 131.402625 334.0495 131.402625 
z
" style="fill: #ffffff; opacity: 0.8; stroke: #cccccc; stroke-linejoin: miter"/>
    </g>
    <g id="line2d_20">
     <path d="M 336.0495 63.110437 
L 346.0495 63.110437 
L 356.0495 63.110437 
" style="fill: none; stroke-dasharray: 1.85,0.8; stroke-dashoffset: 0; stroke: #8000ff; stroke-width: 0.5"/>
    </g>
    <g id="text_18">
     <!-- 0.1 -->
     <g transform="translate(364.0495 66.610437) scale(0.1 -0.1)">
      <use xlink:href="#DejaVuSans-30"/>
      <use xlink:href="#DejaVuSans-2e" transform="translate(63.623047 0)"/>
      <use xlink:href="#DejaVuSans-31" transform="translate(95.410156 0)"/>
     </g>
    </g>
    <g id="line2d_21">
     <path d="M 336.0495 77.788563 
L 346.0495 77.788563 
L 356.0495 77.788563 
" style="fill: none; stroke-dasharray: 1.85,0.8; stroke-dashoffset: 0; stroke: #00b5eb; stroke-width: 0.5"/>
    </g>
    <g id="text_19">
     <!-- 1 -->
     <g transform="translate(364.0495 81.288563) scale(0.1 -0.1)">
      <use xlink:href="#DejaVuSans-31"/>
     </g>
    </g>
    <g id="line2d_22">
     <path d="M 336.0495 92.466687 
L 346.0495 92.466687 
L 356.0495 92.466687 
" style="fill: none; stroke-dasharray: 1.85,0.8; stroke-dashoffset: 0; stroke: #80ffb4; stroke-width: 0.5"/>
    </g>
    <g id="text_20">
     <!-- 5 -->
     <g transform="translate(364.0495 95.966687) scale(0.1 -0.1)">
      <use xlink:href="#DejaVuSans-35"/>
     </g>
    </g>
    <g id="line2d_23">
     <path d="M 336.0495 107.144813 
L 346.0495 107.144813 
L 356.0495 107.144813 
" style="fill: none; stroke-dasharray: 1.85,0.8; stroke-dashoffset: 0; stroke: #ffb360; stroke-width: 0.5"/>
    </g>
    <g id="text_21">
     <!-- 10 -->
     <g transform="translate(364.0495 110.644813) scale(0.1 -0.1)">
      <use xlink:href="#DejaVuSans-31"/>
      <use xlink:href="#DejaVuSans-30" transform="translate(63.623047 0)"/>
     </g>
    </g>
    <g id="line2d_24">
     <path d="M 336.0495 121.822937 
L 346.0495 121.822937 
L 356.0495 121.822937 
" style="fill: none; stroke-dasharray: 1.85,0.8; stroke-dashoffset: 0; stroke: #ff0000; stroke-width: 0.5"/>
    </g>
    <g id="text_22">
     <!-- 20 -->
     <g transform="translate(364.0495 125.322937) scale(0.1 -0.1)">
      <use xlink:href="#DejaVuSans-32"/>
      <use xlink:href="#DejaVuSans-30" transform="translate(63.623047 0)"/>
     </g>
    </g>
   </g>
  </g>
 </g>
 <defs>
  <clipPath id="p2c29e644f1">
   <rect x="40.165" y="21.72" width="409.835" height="282.92"/>
  </clipPath>
 </defs>
</svg>
