<?xml version="1.0" encoding="utf-8" standalone="no"?>
<!DOCTYPE svg PUBLIC "-//W3C//DTD SVG 1.1//EN"
  "http://www.w3.org/Graphics/SVG/1.1/DTD/svg11.dtd">
<svg xmlns:xlink="http://www.w3.org/1999/xlink" width="460.8pt" height="345.6pt" viewBox="0 0 460.8 345.6" xmlns="http://www.w3.org/2000/svg" version="1.1">
 <metadata>
  <rdf:RDF xmlns:dc="http://purl.org/dc/elements/1.1/" xmlns:cc="http://creativecommons.org/ns#" xmlns:rdf="http://www.w3.org/1999/02/22-rdf-syntax-ns#">
   <cc:Work>
    <dc:type rdf:resource="http://purl.org/dc/dcmitype/StillImage"/>
    <dc:date>2025-03-25T10:04:08.845296</dc:date>
    <dc:format>image/svg+xml</dc:format>
    <dc:creator>
     <cc:Agent>
      <dc:title>Matplotlib v3.10.0, https://matplotlib.org/</dc:title>
     </cc:Agent>
    </dc:creator>
   </cc:Work>
  </rdf:RDF>
 </metadata>
 <defs>
  <style type="text/css">*{stroke-linejoin: round; stroke-linecap: butt}</style>
 </defs>
 <g id="figure_1">
  <g id="patch_1">
   <path d="M 0 345.6 
L 460.8 345.6 
L 460.8 0 
L 0 0 
z
" style="fill: #ffffff"/>
  </g>
  <g id="axes_1">
   <g id="patch_2">
    <path d="M 57.6 307.584 
L 414.72 307.584 
L 414.72 41.472 
L 57.6 41.472 
z
" style="fill: #ffffff"/>
   </g>
   <g id="matplotlib.axis_1">
    <g id="xtick_1">
     <g id="line2d_1">
      <defs>
       <path id="m148a7709d1" d="M 0 0 
L 0 3.5 
" style="stroke: #000000; stroke-width: 0.8"/>
      </defs>
      <g>
       <use xlink:href="#m148a7709d1" x="160.250638" y="307.584" style="stroke: #000000; stroke-width: 0.8"/>
      </g>
     </g>
     <g id="text_1">
      <!-- $\mathdefault{10^{11}}$ -->
      <g transform="translate(149.200638 322.182437) scale(0.1 -0.1)">
       <defs>
        <path id="DejaVuSans-31" d="M 794 531 
L 1825 531 
L 1825 4091 
L 703 3866 
L 703 4441 
L 1819 4666 
L 2450 4666 
L 2450 531 
L 3481 531 
L 3481 0 
L 794 0 
L 794 531 
z
" transform="scale(0.015625)"/>
        <path id="DejaVuSans-30" d="M 2034 4250 
Q 1547 4250 1301 3770 
Q 1056 3291 1056 2328 
Q 1056 1369 1301 889 
Q 1547 409 2034 409 
Q 2525 409 2770 889 
Q 3016 1369 3016 2328 
Q 3016 3291 2770 3770 
Q 2525 4250 2034 4250 
z
M 2034 4750 
Q 2819 4750 3233 4129 
Q 3647 3509 3647 2328 
Q 3647 1150 3233 529 
Q 2819 -91 2034 -91 
Q 1250 -91 836 529 
Q 422 1150 422 2328 
Q 422 3509 836 4129 
Q 1250 4750 2034 4750 
z
" transform="scale(0.015625)"/>
       </defs>
       <use xlink:href="#DejaVuSans-31" transform="translate(0 0.684375)"/>
       <use xlink:href="#DejaVuSans-30" transform="translate(63.623047 0.684375)"/>
       <use xlink:href="#DejaVuSans-31" transform="translate(128.203125 38.965625) scale(0.7)"/>
       <use xlink:href="#DejaVuSans-31" transform="translate(172.739258 38.965625) scale(0.7)"/>
      </g>
     </g>
    </g>
    <g id="xtick_2">
     <g id="line2d_2">
      <g>
       <use xlink:href="#m148a7709d1" x="272.680545" y="307.584" style="stroke: #000000; stroke-width: 0.8"/>
      </g>
     </g>
     <g id="text_2">
      <!-- $\mathdefault{10^{12}}$ -->
      <g transform="translate(261.630545 322.182437) scale(0.1 -0.1)">
       <defs>
        <path id="DejaVuSans-32" d="M 1228 531 
L 3431 531 
L 3431 0 
L 469 0 
L 469 531 
Q 828 903 1448 1529 
Q 2069 2156 2228 2338 
Q 2531 2678 2651 2914 
Q 2772 3150 2772 3378 
Q 2772 3750 2511 3984 
Q 2250 4219 1831 4219 
Q 1534 4219 1204 4116 
Q 875 4013 500 3803 
L 500 4441 
Q 881 4594 1212 4672 
Q 1544 4750 1819 4750 
Q 2544 4750 2975 4387 
Q 3406 4025 3406 3419 
Q 3406 3131 3298 2873 
Q 3191 2616 2906 2266 
Q 2828 2175 2409 1742 
Q 1991 1309 1228 531 
z
" transform="scale(0.015625)"/>
       </defs>
       <use xlink:href="#DejaVuSans-31" transform="translate(0 0.765625)"/>
       <use xlink:href="#DejaVuSans-30" transform="translate(63.623047 0.765625)"/>
       <use xlink:href="#DejaVuSans-31" transform="translate(128.203125 39.046875) scale(0.7)"/>
       <use xlink:href="#DejaVuSans-32" transform="translate(172.739258 39.046875) scale(0.7)"/>
      </g>
     </g>
    </g>
    <g id="xtick_3">
     <g id="line2d_3">
      <g>
       <use xlink:href="#m148a7709d1" x="385.110452" y="307.584" style="stroke: #000000; stroke-width: 0.8"/>
      </g>
     </g>
     <g id="text_3">
      <!-- $\mathdefault{10^{13}}$ -->
      <g transform="translate(374.060452 322.182437) scale(0.1 -0.1)">
       <defs>
        <path id="DejaVuSans-33" d="M 2597 2516 
Q 3050 2419 3304 2112 
Q 3559 1806 3559 1356 
Q 3559 666 3084 287 
Q 2609 -91 1734 -91 
Q 1441 -91 1130 -33 
Q 819 25 488 141 
L 488 750 
Q 750 597 1062 519 
Q 1375 441 1716 441 
Q 2309 441 2620 675 
Q 2931 909 2931 1356 
Q 2931 1769 2642 2001 
Q 2353 2234 1838 2234 
L 1294 2234 
L 1294 2753 
L 1863 2753 
Q 2328 2753 2575 2939 
Q 2822 3125 2822 3475 
Q 2822 3834 2567 4026 
Q 2313 4219 1838 4219 
Q 1578 4219 1281 4162 
Q 984 4106 628 3988 
L 628 4550 
Q 988 4650 1302 4700 
Q 1616 4750 1894 4750 
Q 2613 4750 3031 4423 
Q 3450 4097 3450 3541 
Q 3450 3153 3228 2886 
Q 3006 2619 2597 2516 
z
" transform="scale(0.015625)"/>
       </defs>
       <use xlink:href="#DejaVuSans-31" transform="translate(0 0.765625)"/>
       <use xlink:href="#DejaVuSans-30" transform="translate(63.623047 0.765625)"/>
       <use xlink:href="#DejaVuSans-31" transform="translate(128.203125 39.046875) scale(0.7)"/>
       <use xlink:href="#DejaVuSans-33" transform="translate(172.739258 39.046875) scale(0.7)"/>
      </g>
     </g>
    </g>
    <g id="xtick_4">
     <g id="line2d_4">
      <defs>
       <path id="m062557f8d7" d="M 0 0 
L 0 2 
" style="stroke: #000000; stroke-width: 0.6"/>
      </defs>
      <g>
       <use xlink:href="#m062557f8d7" x="81.665505" y="307.584" style="stroke: #000000; stroke-width: 0.6"/>
      </g>
     </g>
    </g>
    <g id="xtick_5">
     <g id="line2d_5">
      <g>
       <use xlink:href="#m062557f8d7" x="101.463429" y="307.584" style="stroke: #000000; stroke-width: 0.6"/>
      </g>
     </g>
    </g>
    <g id="xtick_6">
     <g id="line2d_6">
      <g>
       <use xlink:href="#m062557f8d7" x="115.510279" y="307.584" style="stroke: #000000; stroke-width: 0.6"/>
      </g>
     </g>
    </g>
    <g id="xtick_7">
     <g id="line2d_7">
      <g>
       <use xlink:href="#m062557f8d7" x="126.405863" y="307.584" style="stroke: #000000; stroke-width: 0.6"/>
      </g>
     </g>
    </g>
    <g id="xtick_8">
     <g id="line2d_8">
      <g>
       <use xlink:href="#m062557f8d7" x="135.308203" y="307.584" style="stroke: #000000; stroke-width: 0.6"/>
      </g>
     </g>
    </g>
    <g id="xtick_9">
     <g id="line2d_9">
      <g>
       <use xlink:href="#m062557f8d7" x="142.835025" y="307.584" style="stroke: #000000; stroke-width: 0.6"/>
      </g>
     </g>
    </g>
    <g id="xtick_10">
     <g id="line2d_10">
      <g>
       <use xlink:href="#m062557f8d7" x="149.355054" y="307.584" style="stroke: #000000; stroke-width: 0.6"/>
      </g>
     </g>
    </g>
    <g id="xtick_11">
     <g id="line2d_11">
      <g>
       <use xlink:href="#m062557f8d7" x="155.106127" y="307.584" style="stroke: #000000; stroke-width: 0.6"/>
      </g>
     </g>
    </g>
    <g id="xtick_12">
     <g id="line2d_12">
      <g>
       <use xlink:href="#m062557f8d7" x="194.095412" y="307.584" style="stroke: #000000; stroke-width: 0.6"/>
      </g>
     </g>
    </g>
    <g id="xtick_13">
     <g id="line2d_13">
      <g>
       <use xlink:href="#m062557f8d7" x="213.893336" y="307.584" style="stroke: #000000; stroke-width: 0.6"/>
      </g>
     </g>
    </g>
    <g id="xtick_14">
     <g id="line2d_14">
      <g>
       <use xlink:href="#m062557f8d7" x="227.940187" y="307.584" style="stroke: #000000; stroke-width: 0.6"/>
      </g>
     </g>
    </g>
    <g id="xtick_15">
     <g id="line2d_15">
      <g>
       <use xlink:href="#m062557f8d7" x="238.835771" y="307.584" style="stroke: #000000; stroke-width: 0.6"/>
      </g>
     </g>
    </g>
    <g id="xtick_16">
     <g id="line2d_16">
      <g>
       <use xlink:href="#m062557f8d7" x="247.738111" y="307.584" style="stroke: #000000; stroke-width: 0.6"/>
      </g>
     </g>
    </g>
    <g id="xtick_17">
     <g id="line2d_17">
      <g>
       <use xlink:href="#m062557f8d7" x="255.264932" y="307.584" style="stroke: #000000; stroke-width: 0.6"/>
      </g>
     </g>
    </g>
    <g id="xtick_18">
     <g id="line2d_18">
      <g>
       <use xlink:href="#m062557f8d7" x="261.784961" y="307.584" style="stroke: #000000; stroke-width: 0.6"/>
      </g>
     </g>
    </g>
    <g id="xtick_19">
     <g id="line2d_19">
      <g>
       <use xlink:href="#m062557f8d7" x="267.536035" y="307.584" style="stroke: #000000; stroke-width: 0.6"/>
      </g>
     </g>
    </g>
    <g id="xtick_20">
     <g id="line2d_20">
      <g>
       <use xlink:href="#m062557f8d7" x="306.52532" y="307.584" style="stroke: #000000; stroke-width: 0.6"/>
      </g>
     </g>
    </g>
    <g id="xtick_21">
     <g id="line2d_21">
      <g>
       <use xlink:href="#m062557f8d7" x="326.323244" y="307.584" style="stroke: #000000; stroke-width: 0.6"/>
      </g>
     </g>
    </g>
    <g id="xtick_22">
     <g id="line2d_22">
      <g>
       <use xlink:href="#m062557f8d7" x="340.370094" y="307.584" style="stroke: #000000; stroke-width: 0.6"/>
      </g>
     </g>
    </g>
    <g id="xtick_23">
     <g id="line2d_23">
      <g>
       <use xlink:href="#m062557f8d7" x="351.265678" y="307.584" style="stroke: #000000; stroke-width: 0.6"/>
      </g>
     </g>
    </g>
    <g id="xtick_24">
     <g id="line2d_24">
      <g>
       <use xlink:href="#m062557f8d7" x="360.168018" y="307.584" style="stroke: #000000; stroke-width: 0.6"/>
      </g>
     </g>
    </g>
    <g id="xtick_25">
     <g id="line2d_25">
      <g>
       <use xlink:href="#m062557f8d7" x="367.694839" y="307.584" style="stroke: #000000; stroke-width: 0.6"/>
      </g>
     </g>
    </g>
    <g id="xtick_26">
     <g id="line2d_26">
      <g>
       <use xlink:href="#m062557f8d7" x="374.214869" y="307.584" style="stroke: #000000; stroke-width: 0.6"/>
      </g>
     </g>
    </g>
    <g id="xtick_27">
     <g id="line2d_27">
      <g>
       <use xlink:href="#m062557f8d7" x="379.965942" y="307.584" style="stroke: #000000; stroke-width: 0.6"/>
      </g>
     </g>
    </g>
    <g id="text_4">
     <!-- Log time  -->
     <g transform="translate(212.75375 335.860562) scale(0.1 -0.1)">
      <defs>
       <path id="DejaVuSans-4c" d="M 628 4666 
L 1259 4666 
L 1259 531 
L 3531 531 
L 3531 0 
L 628 0 
L 628 4666 
z
" transform="scale(0.015625)"/>
       <path id="DejaVuSans-6f" d="M 1959 3097 
Q 1497 3097 1228 2736 
Q 959 2375 959 1747 
Q 959 1119 1226 758 
Q 1494 397 1959 397 
Q 2419 397 2687 759 
Q 2956 1122 2956 1747 
Q 2956 2369 2687 2733 
Q 2419 3097 1959 3097 
z
M 1959 3584 
Q 2709 3584 3137 3096 
Q 3566 2609 3566 1747 
Q 3566 888 3137 398 
Q 2709 -91 1959 -91 
Q 1206 -91 779 398 
Q 353 888 353 1747 
Q 353 2609 779 3096 
Q 1206 3584 1959 3584 
z
" transform="scale(0.015625)"/>
       <path id="DejaVuSans-67" d="M 2906 1791 
Q 2906 2416 2648 2759 
Q 2391 3103 1925 3103 
Q 1463 3103 1205 2759 
Q 947 2416 947 1791 
Q 947 1169 1205 825 
Q 1463 481 1925 481 
Q 2391 481 2648 825 
Q 2906 1169 2906 1791 
z
M 3481 434 
Q 3481 -459 3084 -895 
Q 2688 -1331 1869 -1331 
Q 1566 -1331 1297 -1286 
Q 1028 -1241 775 -1147 
L 775 -588 
Q 1028 -725 1275 -790 
Q 1522 -856 1778 -856 
Q 2344 -856 2625 -561 
Q 2906 -266 2906 331 
L 2906 616 
Q 2728 306 2450 153 
Q 2172 0 1784 0 
Q 1141 0 747 490 
Q 353 981 353 1791 
Q 353 2603 747 3093 
Q 1141 3584 1784 3584 
Q 2172 3584 2450 3431 
Q 2728 3278 2906 2969 
L 2906 3500 
L 3481 3500 
L 3481 434 
z
" transform="scale(0.015625)"/>
       <path id="DejaVuSans-20" transform="scale(0.015625)"/>
       <path id="DejaVuSans-74" d="M 1172 4494 
L 1172 3500 
L 2356 3500 
L 2356 3053 
L 1172 3053 
L 1172 1153 
Q 1172 725 1289 603 
Q 1406 481 1766 481 
L 2356 481 
L 2356 0 
L 1766 0 
Q 1100 0 847 248 
Q 594 497 594 1153 
L 594 3053 
L 172 3053 
L 172 3500 
L 594 3500 
L 594 4494 
L 1172 4494 
z
" transform="scale(0.015625)"/>
       <path id="DejaVuSans-69" d="M 603 3500 
L 1178 3500 
L 1178 0 
L 603 0 
L 603 3500 
z
M 603 4863 
L 1178 4863 
L 1178 4134 
L 603 4134 
L 603 4863 
z
" transform="scale(0.015625)"/>
       <path id="DejaVuSans-6d" d="M 3328 2828 
Q 3544 3216 3844 3400 
Q 4144 3584 4550 3584 
Q 5097 3584 5394 3201 
Q 5691 2819 5691 2113 
L 5691 0 
L 5113 0 
L 5113 2094 
Q 5113 2597 4934 2840 
Q 4756 3084 4391 3084 
Q 3944 3084 3684 2787 
Q 3425 2491 3425 1978 
L 3425 0 
L 2847 0 
L 2847 2094 
Q 2847 2600 2669 2842 
Q 2491 3084 2119 3084 
Q 1678 3084 1418 2786 
Q 1159 2488 1159 1978 
L 1159 0 
L 581 0 
L 581 3500 
L 1159 3500 
L 1159 2956 
Q 1356 3278 1631 3431 
Q 1906 3584 2284 3584 
Q 2666 3584 2933 3390 
Q 3200 3197 3328 2828 
z
" transform="scale(0.015625)"/>
       <path id="DejaVuSans-65" d="M 3597 1894 
L 3597 1613 
L 953 1613 
Q 991 1019 1311 708 
Q 1631 397 2203 397 
Q 2534 397 2845 478 
Q 3156 559 3463 722 
L 3463 178 
Q 3153 47 2828 -22 
Q 2503 -91 2169 -91 
Q 1331 -91 842 396 
Q 353 884 353 1716 
Q 353 2575 817 3079 
Q 1281 3584 2069 3584 
Q 2775 3584 3186 3129 
Q 3597 2675 3597 1894 
z
M 3022 2063 
Q 3016 2534 2758 2815 
Q 2500 3097 2075 3097 
Q 1594 3097 1305 2825 
Q 1016 2553 972 2059 
L 3022 2063 
z
" transform="scale(0.015625)"/>
      </defs>
      <use xlink:href="#DejaVuSans-4c"/>
      <use xlink:href="#DejaVuSans-6f" transform="translate(53.962891 0)"/>
      <use xlink:href="#DejaVuSans-67" transform="translate(115.144531 0)"/>
      <use xlink:href="#DejaVuSans-20" transform="translate(178.621094 0)"/>
      <use xlink:href="#DejaVuSans-74" transform="translate(210.408203 0)"/>
      <use xlink:href="#DejaVuSans-69" transform="translate(249.617188 0)"/>
      <use xlink:href="#DejaVuSans-6d" transform="translate(277.400391 0)"/>
      <use xlink:href="#DejaVuSans-65" transform="translate(374.8125 0)"/>
      <use xlink:href="#DejaVuSans-20" transform="translate(436.335938 0)"/>
     </g>
    </g>
   </g>
   <g id="matplotlib.axis_2">
    <g id="ytick_1">
     <g id="line2d_28">
      <defs>
       <path id="m7f3b15092c" d="M 0 0 
L -3.5 0 
" style="stroke: #000000; stroke-width: 0.8"/>
      </defs>
      <g>
       <use xlink:href="#m7f3b15092c" x="57.6" y="295.488" style="stroke: #000000; stroke-width: 0.8"/>
      </g>
     </g>
     <g id="text_5">
      <!-- 0.0 -->
      <g transform="translate(34.696875 299.287219) scale(0.1 -0.1)">
       <defs>
        <path id="DejaVuSans-2e" d="M 684 794 
L 1344 794 
L 1344 0 
L 684 0 
L 684 794 
z
" transform="scale(0.015625)"/>
       </defs>
       <use xlink:href="#DejaVuSans-30"/>
       <use xlink:href="#DejaVuSans-2e" transform="translate(63.623047 0)"/>
       <use xlink:href="#DejaVuSans-30" transform="translate(95.410156 0)"/>
      </g>
     </g>
    </g>
    <g id="ytick_2">
     <g id="line2d_29">
      <g>
       <use xlink:href="#m7f3b15092c" x="57.6" y="246.282264" style="stroke: #000000; stroke-width: 0.8"/>
      </g>
     </g>
     <g id="text_6">
      <!-- 0.2 -->
      <g transform="translate(34.696875 250.081483) scale(0.1 -0.1)">
       <use xlink:href="#DejaVuSans-30"/>
       <use xlink:href="#DejaVuSans-2e" transform="translate(63.623047 0)"/>
       <use xlink:href="#DejaVuSans-32" transform="translate(95.410156 0)"/>
      </g>
     </g>
    </g>
    <g id="ytick_3">
     <g id="line2d_30">
      <g>
       <use xlink:href="#m7f3b15092c" x="57.6" y="197.076528" style="stroke: #000000; stroke-width: 0.8"/>
      </g>
     </g>
     <g id="text_7">
      <!-- 0.4 -->
      <g transform="translate(34.696875 200.875747) scale(0.1 -0.1)">
       <defs>
        <path id="DejaVuSans-34" d="M 2419 4116 
L 825 1625 
L 2419 1625 
L 2419 4116 
z
M 2253 4666 
L 3047 4666 
L 3047 1625 
L 3713 1625 
L 3713 1100 
L 3047 1100 
L 3047 0 
L 2419 0 
L 2419 1100 
L 313 1100 
L 313 1709 
L 2253 4666 
z
" transform="scale(0.015625)"/>
       </defs>
       <use xlink:href="#DejaVuSans-30"/>
       <use xlink:href="#DejaVuSans-2e" transform="translate(63.623047 0)"/>
       <use xlink:href="#DejaVuSans-34" transform="translate(95.410156 0)"/>
      </g>
     </g>
    </g>
    <g id="ytick_4">
     <g id="line2d_31">
      <g>
       <use xlink:href="#m7f3b15092c" x="57.6" y="147.870793" style="stroke: #000000; stroke-width: 0.8"/>
      </g>
     </g>
     <g id="text_8">
      <!-- 0.6 -->
      <g transform="translate(34.696875 151.670011) scale(0.1 -0.1)">
       <defs>
        <path id="DejaVuSans-36" d="M 2113 2584 
Q 1688 2584 1439 2293 
Q 1191 2003 1191 1497 
Q 1191 994 1439 701 
Q 1688 409 2113 409 
Q 2538 409 2786 701 
Q 3034 994 3034 1497 
Q 3034 2003 2786 2293 
Q 2538 2584 2113 2584 
z
M 3366 4563 
L 3366 3988 
Q 3128 4100 2886 4159 
Q 2644 4219 2406 4219 
Q 1781 4219 1451 3797 
Q 1122 3375 1075 2522 
Q 1259 2794 1537 2939 
Q 1816 3084 2150 3084 
Q 2853 3084 3261 2657 
Q 3669 2231 3669 1497 
Q 3669 778 3244 343 
Q 2819 -91 2113 -91 
Q 1303 -91 875 529 
Q 447 1150 447 2328 
Q 447 3434 972 4092 
Q 1497 4750 2381 4750 
Q 2619 4750 2861 4703 
Q 3103 4656 3366 4563 
z
" transform="scale(0.015625)"/>
       </defs>
       <use xlink:href="#DejaVuSans-30"/>
       <use xlink:href="#DejaVuSans-2e" transform="translate(63.623047 0)"/>
       <use xlink:href="#DejaVuSans-36" transform="translate(95.410156 0)"/>
      </g>
     </g>
    </g>
    <g id="ytick_5">
     <g id="line2d_32">
      <g>
       <use xlink:href="#m7f3b15092c" x="57.6" y="98.665057" style="stroke: #000000; stroke-width: 0.8"/>
      </g>
     </g>
     <g id="text_9">
      <!-- 0.8 -->
      <g transform="translate(34.696875 102.464276) scale(0.1 -0.1)">
       <defs>
        <path id="DejaVuSans-38" d="M 2034 2216 
Q 1584 2216 1326 1975 
Q 1069 1734 1069 1313 
Q 1069 891 1326 650 
Q 1584 409 2034 409 
Q 2484 409 2743 651 
Q 3003 894 3003 1313 
Q 3003 1734 2745 1975 
Q 2488 2216 2034 2216 
z
M 1403 2484 
Q 997 2584 770 2862 
Q 544 3141 544 3541 
Q 544 4100 942 4425 
Q 1341 4750 2034 4750 
Q 2731 4750 3128 4425 
Q 3525 4100 3525 3541 
Q 3525 3141 3298 2862 
Q 3072 2584 2669 2484 
Q 3125 2378 3379 2068 
Q 3634 1759 3634 1313 
Q 3634 634 3220 271 
Q 2806 -91 2034 -91 
Q 1263 -91 848 271 
Q 434 634 434 1313 
Q 434 1759 690 2068 
Q 947 2378 1403 2484 
z
M 1172 3481 
Q 1172 3119 1398 2916 
Q 1625 2713 2034 2713 
Q 2441 2713 2670 2916 
Q 2900 3119 2900 3481 
Q 2900 3844 2670 4047 
Q 2441 4250 2034 4250 
Q 1625 4250 1398 4047 
Q 1172 3844 1172 3481 
z
" transform="scale(0.015625)"/>
       </defs>
       <use xlink:href="#DejaVuSans-30"/>
       <use xlink:href="#DejaVuSans-2e" transform="translate(63.623047 0)"/>
       <use xlink:href="#DejaVuSans-38" transform="translate(95.410156 0)"/>
      </g>
     </g>
    </g>
    <g id="ytick_6">
     <g id="line2d_33">
      <g>
       <use xlink:href="#m7f3b15092c" x="57.6" y="49.459321" style="stroke: #000000; stroke-width: 0.8"/>
      </g>
     </g>
     <g id="text_10">
      <!-- 1.0 -->
      <g transform="translate(34.696875 53.25854) scale(0.1 -0.1)">
       <use xlink:href="#DejaVuSans-31"/>
       <use xlink:href="#DejaVuSans-2e" transform="translate(63.623047 0)"/>
       <use xlink:href="#DejaVuSans-30" transform="translate(95.410156 0)"/>
      </g>
     </g>
    </g>
    <g id="text_11">
     <!-- Percent of filled traps -->
     <g transform="translate(28.617187 227.95925) rotate(-90) scale(0.1 -0.1)">
      <defs>
       <path id="DejaVuSans-50" d="M 1259 4147 
L 1259 2394 
L 2053 2394 
Q 2494 2394 2734 2622 
Q 2975 2850 2975 3272 
Q 2975 3691 2734 3919 
Q 2494 4147 2053 4147 
L 1259 4147 
z
M 628 4666 
L 2053 4666 
Q 2838 4666 3239 4311 
Q 3641 3956 3641 3272 
Q 3641 2581 3239 2228 
Q 2838 1875 2053 1875 
L 1259 1875 
L 1259 0 
L 628 0 
L 628 4666 
z
" transform="scale(0.015625)"/>
       <path id="DejaVuSans-72" d="M 2631 2963 
Q 2534 3019 2420 3045 
Q 2306 3072 2169 3072 
Q 1681 3072 1420 2755 
Q 1159 2438 1159 1844 
L 1159 0 
L 581 0 
L 581 3500 
L 1159 3500 
L 1159 2956 
Q 1341 3275 1631 3429 
Q 1922 3584 2338 3584 
Q 2397 3584 2469 3576 
Q 2541 3569 2628 3553 
L 2631 2963 
z
" transform="scale(0.015625)"/>
       <path id="DejaVuSans-63" d="M 3122 3366 
L 3122 2828 
Q 2878 2963 2633 3030 
Q 2388 3097 2138 3097 
Q 1578 3097 1268 2742 
Q 959 2388 959 1747 
Q 959 1106 1268 751 
Q 1578 397 2138 397 
Q 2388 397 2633 464 
Q 2878 531 3122 666 
L 3122 134 
Q 2881 22 2623 -34 
Q 2366 -91 2075 -91 
Q 1284 -91 818 406 
Q 353 903 353 1747 
Q 353 2603 823 3093 
Q 1294 3584 2113 3584 
Q 2378 3584 2631 3529 
Q 2884 3475 3122 3366 
z
" transform="scale(0.015625)"/>
       <path id="DejaVuSans-6e" d="M 3513 2113 
L 3513 0 
L 2938 0 
L 2938 2094 
Q 2938 2591 2744 2837 
Q 2550 3084 2163 3084 
Q 1697 3084 1428 2787 
Q 1159 2491 1159 1978 
L 1159 0 
L 581 0 
L 581 3500 
L 1159 3500 
L 1159 2956 
Q 1366 3272 1645 3428 
Q 1925 3584 2291 3584 
Q 2894 3584 3203 3211 
Q 3513 2838 3513 2113 
z
" transform="scale(0.015625)"/>
       <path id="DejaVuSans-66" d="M 2375 4863 
L 2375 4384 
L 1825 4384 
Q 1516 4384 1395 4259 
Q 1275 4134 1275 3809 
L 1275 3500 
L 2222 3500 
L 2222 3053 
L 1275 3053 
L 1275 0 
L 697 0 
L 697 3053 
L 147 3053 
L 147 3500 
L 697 3500 
L 697 3744 
Q 697 4328 969 4595 
Q 1241 4863 1831 4863 
L 2375 4863 
z
" transform="scale(0.015625)"/>
       <path id="DejaVuSans-6c" d="M 603 4863 
L 1178 4863 
L 1178 0 
L 603 0 
L 603 4863 
z
" transform="scale(0.015625)"/>
       <path id="DejaVuSans-64" d="M 2906 2969 
L 2906 4863 
L 3481 4863 
L 3481 0 
L 2906 0 
L 2906 525 
Q 2725 213 2448 61 
Q 2172 -91 1784 -91 
Q 1150 -91 751 415 
Q 353 922 353 1747 
Q 353 2572 751 3078 
Q 1150 3584 1784 3584 
Q 2172 3584 2448 3432 
Q 2725 3281 2906 2969 
z
M 947 1747 
Q 947 1113 1208 752 
Q 1469 391 1925 391 
Q 2381 391 2643 752 
Q 2906 1113 2906 1747 
Q 2906 2381 2643 2742 
Q 2381 3103 1925 3103 
Q 1469 3103 1208 2742 
Q 947 2381 947 1747 
z
" transform="scale(0.015625)"/>
       <path id="DejaVuSans-61" d="M 2194 1759 
Q 1497 1759 1228 1600 
Q 959 1441 959 1056 
Q 959 750 1161 570 
Q 1363 391 1709 391 
Q 2188 391 2477 730 
Q 2766 1069 2766 1631 
L 2766 1759 
L 2194 1759 
z
M 3341 1997 
L 3341 0 
L 2766 0 
L 2766 531 
Q 2569 213 2275 61 
Q 1981 -91 1556 -91 
Q 1019 -91 701 211 
Q 384 513 384 1019 
Q 384 1609 779 1909 
Q 1175 2209 1959 2209 
L 2766 2209 
L 2766 2266 
Q 2766 2663 2505 2880 
Q 2244 3097 1772 3097 
Q 1472 3097 1187 3025 
Q 903 2953 641 2809 
L 641 3341 
Q 956 3463 1253 3523 
Q 1550 3584 1831 3584 
Q 2591 3584 2966 3190 
Q 3341 2797 3341 1997 
z
" transform="scale(0.015625)"/>
       <path id="DejaVuSans-70" d="M 1159 525 
L 1159 -1331 
L 581 -1331 
L 581 3500 
L 1159 3500 
L 1159 2969 
Q 1341 3281 1617 3432 
Q 1894 3584 2278 3584 
Q 2916 3584 3314 3078 
Q 3713 2572 3713 1747 
Q 3713 922 3314 415 
Q 2916 -91 2278 -91 
Q 1894 -91 1617 61 
Q 1341 213 1159 525 
z
M 3116 1747 
Q 3116 2381 2855 2742 
Q 2594 3103 2138 3103 
Q 1681 3103 1420 2742 
Q 1159 2381 1159 1747 
Q 1159 1113 1420 752 
Q 1681 391 2138 391 
Q 2594 391 2855 752 
Q 3116 1113 3116 1747 
z
" transform="scale(0.015625)"/>
       <path id="DejaVuSans-73" d="M 2834 3397 
L 2834 2853 
Q 2591 2978 2328 3040 
Q 2066 3103 1784 3103 
Q 1356 3103 1142 2972 
Q 928 2841 928 2578 
Q 928 2378 1081 2264 
Q 1234 2150 1697 2047 
L 1894 2003 
Q 2506 1872 2764 1633 
Q 3022 1394 3022 966 
Q 3022 478 2636 193 
Q 2250 -91 1575 -91 
Q 1294 -91 989 -36 
Q 684 19 347 128 
L 347 722 
Q 666 556 975 473 
Q 1284 391 1588 391 
Q 1994 391 2212 530 
Q 2431 669 2431 922 
Q 2431 1156 2273 1281 
Q 2116 1406 1581 1522 
L 1381 1569 
Q 847 1681 609 1914 
Q 372 2147 372 2553 
Q 372 3047 722 3315 
Q 1072 3584 1716 3584 
Q 2034 3584 2315 3537 
Q 2597 3491 2834 3397 
z
" transform="scale(0.015625)"/>
      </defs>
      <use xlink:href="#DejaVuSans-50"/>
      <use xlink:href="#DejaVuSans-65" transform="translate(56.677734 0)"/>
      <use xlink:href="#DejaVuSans-72" transform="translate(118.201172 0)"/>
      <use xlink:href="#DejaVuSans-63" transform="translate(157.064453 0)"/>
      <use xlink:href="#DejaVuSans-65" transform="translate(212.044922 0)"/>
      <use xlink:href="#DejaVuSans-6e" transform="translate(273.568359 0)"/>
      <use xlink:href="#DejaVuSans-74" transform="translate(336.947266 0)"/>
      <use xlink:href="#DejaVuSans-20" transform="translate(376.15625 0)"/>
      <use xlink:href="#DejaVuSans-6f" transform="translate(407.943359 0)"/>
      <use xlink:href="#DejaVuSans-66" transform="translate(469.125 0)"/>
      <use xlink:href="#DejaVuSans-20" transform="translate(504.330078 0)"/>
      <use xlink:href="#DejaVuSans-66" transform="translate(536.117188 0)"/>
      <use xlink:href="#DejaVuSans-69" transform="translate(571.322266 0)"/>
      <use xlink:href="#DejaVuSans-6c" transform="translate(599.105469 0)"/>
      <use xlink:href="#DejaVuSans-6c" transform="translate(626.888672 0)"/>
      <use xlink:href="#DejaVuSans-65" transform="translate(654.671875 0)"/>
      <use xlink:href="#DejaVuSans-64" transform="translate(716.195312 0)"/>
      <use xlink:href="#DejaVuSans-20" transform="translate(779.671875 0)"/>
      <use xlink:href="#DejaVuSans-74" transform="translate(811.458984 0)"/>
      <use xlink:href="#DejaVuSans-72" transform="translate(850.667969 0)"/>
      <use xlink:href="#DejaVuSans-61" transform="translate(891.78125 0)"/>
      <use xlink:href="#DejaVuSans-70" transform="translate(953.060547 0)"/>
      <use xlink:href="#DejaVuSans-73" transform="translate(1016.537109 0)"/>
     </g>
    </g>
   </g>
   <g id="line2d_34">
    <path d="M 73.832727 272.139878 
L 107.677502 271.254175 
L 127.475426 270.368472 
L 141.522276 269.482769 
L 152.41786 268.597065 
L 161.3202 267.711362 
L 161.3202 266.825659 
L 168.847022 265.89075 
L 181.118124 264.020932 
L 190.91641 262.151114 
L 199.073275 260.256693 
L 206.060559 258.436081 
L 212.171985 256.689277 
L 217.602876 254.917871 
L 224.761185 252.309967 
L 229.009749 250.661575 
L 234.760823 248.201288 
L 234.760823 247.413996 
L 241.506384 244.215623 
L 243.0566 243.403729 
L 243.0566 241.779939 
L 251.447651 236.711749 
L 252.715974 235.924457 
L 252.715974 235.161768 
L 258.605959 231.176103 
L 265.814684 226.08331 
L 276.901374 217.644526 
L 278.403883 216.365177 
L 278.403883 215.725502 
L 281.276929 212.994584 
L 281.276929 212.330307 
L 290.179269 203.35026 
L 293.548031 199.487609 
L 298.201807 193.927361 
L 298.201807 193.361495 
L 302.450372 187.899659 
L 305.939548 182.757659 
L 308.000093 179.608492 
L 314.771683 168.61101 
L 316.835131 165.412637 
L 316.835131 164.92058 
L 321.945956 156.850839 
L 324.024044 153.996907 
L 326.017287 151.044563 
L 326.017287 150.626314 
L 331.050064 141.916899 
L 333.264293 138.620114 
L 333.743 137.955837 
L 333.743 137.660602 
L 333.980604 137.340765 
L 333.980604 137.045531 
L 336.295146 134.093187 
L 337.852425 132.395589 
L 338.935124 131.313063 
L 341.439657 127.967073 
L 342.04622 127.007561 
L 342.04622 126.687723 
L 343.627821 123.759982 
L 345.722117 119.011629 
L 348.440501 112.41806 
L 351.514588 106.168932 
L 351.844506 105.480051 
L 351.844506 105.160214 
L 353.142328 102.675324 
L 354.872314 99.698377 
L 355.790731 98.049985 
L 357.284048 94.950024 
L 357.868818 93.572263 
L 357.868818 93.252426 
L 358.87561 90.964359 
L 360.416928 87.741384 
L 363.619891 81.664475 
L 364.768831 79.893069 
L 367.943749 75.366141 
L 368.996363 73.791557 
L 370.252817 72.364591 
L 373.100081 69.412247 
L 373.839109 68.870984 
L 376.885482 66.853549 
L 377.472596 66.681329 
L 378.910218 66.60752 
L 381.664389 65.057539 
L 382.811252 63.975013 
L 383.589744 63.26153 
L 386.746374 61.563932 
L 388.639769 60.875052 
L 389.101864 60.481406 
L 390.611341 58.709999 
L 392.506384 56.938593 
L 393.074981 56.840181 
L 394.605319 56.74177 
L 395.285381 56.495741 
L 398.487273 290.690441 
L -1 290.707267 
L -1 290.707267 
" clip-path="url(#p8a71d9232e)" style="fill: none; stroke-dasharray: 1.85,0.8; stroke-dashoffset: 0; stroke: #8000ff; stroke-width: 0.5"/>
   </g>
   <g id="line2d_35">
    <path d="M 73.832727 269.802606 
L 107.677502 268.941506 
L 107.677502 268.129611 
L 127.475426 267.268511 
L 141.522276 266.40741 
L 152.41786 265.54631 
L 161.3202 264.685209 
L 175.367051 262.987612 
L 186.262635 261.363822 
L 195.164975 259.740033 
L 206.060559 257.451966 
L 214.962899 255.262311 
L 222.48972 253.146464 
L 229.009749 251.006015 
L 239.905333 247.02035 
L 246.01676 244.486255 
L 253.952184 240.943442 
L 253.952184 240.377576 
L 257.483434 238.458552 
L 260.776436 236.514926 
L 261.656191 235.850648 
L 261.826534 235.137165 
L 262.854524 234.399079 
L 262.854524 233.660993 
L 267.692903 229.921357 
L 267.692903 229.183271 
L 270.381345 226.77219 
L 275.351159 221.974631 
L 278.403883 218.653244 
L 287.182765 208.836699 
L 290.179269 205.07246 
L 295.671309 197.666997 
L 299.178394 192.475792 
L 303.346318 185.931429 
L 306.774229 180.075947 
L 306.774229 179.313258 
L 314.064023 165.60946 
L 316.835131 160.270638 
L 319.775479 155.300859 
L 322.548775 150.946151 
L 323.732534 149.469979 
L 323.732534 149.150142 
L 332.292566 138.915349 
L 333.980604 136.553473 
L 335.61223 134.339215 
L 337.632975 131.485283 
L 338.720496 129.886096 
L 339.784322 128.385321 
L 341.439657 125.900432 
L 343.237198 123.267925 
L 345.347957 120.069552 
L 345.347957 119.79892 
L 348.263909 115.07517 
L 348.263909 114.804538 
L 351.348789 109.441113 
L 352.981974 107.153046 
L 353.936292 105.184817 
L 356.840829 99.501554 
L 358.590067 96.081756 
L 359.862062 93.646072 
L 360.828978 92.292914 
L 361.911077 91.284196 
L 362.31076 90.767536 
L 363.748895 89.020733 
L 366.259869 85.502523 
L 368.061833 82.402561 
L 370.252817 78.490705 
L 373.312375 73.98838 
L 374.463778 72.807443 
L 375.588654 71.847931 
L 376.39077 71.355873 
L 377.179922 70.716199 
L 378.148757 69.855099 
L 381.035504 67.025769 
L 381.93145 66.681329 
L 385.68928 64.491673 
L 386.342503 64.048822 
L 388.717089 62.523444 
L 389.559627 61.613138 
L 391.128823 60.235377 
L 391.858697 59.866334 
L 393.427021 59.448085 
L 394.054366 59.349674 
L 394.946534 58.931425 
L 395.285381 58.709999 
L 398.423983 285.991293 
L 398.487273 290.739646 
L -1 290.7563 
L -1 290.7563 
" clip-path="url(#p8a71d9232e)" style="fill: none; stroke-dasharray: 1.85,0.8; stroke-dashoffset: 0; stroke: #8000ff; stroke-width: 0.5"/>
   </g>
   <g id="line2d_36">
    <path d="M 73.832727 267.809774 
L 107.677502 266.825659 
L 127.475426 265.841544 
L 141.522276 264.882032 
L 152.41786 263.92252 
L 161.3202 262.963009 
L 168.847022 262.003497 
L 175.367051 261.043985 
L 186.262635 259.124961 
L 195.164975 257.304349 
L 202.691796 255.483737 
L 209.211825 253.663125 
L 214.962899 251.842512 
L 220.107409 250.046503 
L 224.761185 248.225891 
L 231.002993 245.494972 
L 239.905333 241.164868 
L 246.01676 237.868083 
L 251.447651 234.891136 
L 251.447651 234.177653 
L 255.157867 231.864984 
L 259.703257 228.691214 
L 266.762824 223.25398 
L 272.094773 218.850067 
L 272.094773 218.136583 
L 278.403883 212.453321 
L 284.645691 206.253398 
L 287.796958 202.808997 
L 287.796958 202.169322 
L 290.757118 198.675715 
L 295.671309 192.918644 
L 297.205289 191.147237 
L 297.205289 190.581371 
L 307.594882 178.47676 
L 311.877343 174.195861 
L 314.771683 171.661766 
L 316.156958 170.357814 
L 320.405523 165.60946 
L 321.945956 163.592025 
L 321.945956 163.222982 
L 324.888273 158.966686 
L 326.572153 156.014342 
L 327.932344 153.283424 
L 331.050064 146.394621 
L 333.264293 141.867693 
L 334.919627 139.038363 
L 339.573403 131.337665 
L 339.784322 131.042431 
L 339.784322 130.771799 
L 341.844868 128.065484 
L 343.040708 126.31868 
L 345.908128 121.447313 
L 349.830707 114.017246 
L 349.830707 113.697409 
L 351.348789 110.671256 
L 354.406546 105.406243 
L 356.543098 102.183267 
L 358.302845 99.403143 
L 361.373025 94.359555 
L 362.575409 92.784971 
L 364.005883 91.038168 
L 366.382091 89.094541 
L 368.764402 86.560446 
L 368.764402 86.462034 
L 370.701811 84.247776 
L 373.312375 81.221624 
L 374.048221 80.016083 
L 374.773142 78.61372 
L 376.589257 74.923289 
L 378.435698 70.543979 
L 379.47362 68.132898 
L 381.395858 64.786908 
L 382.108684 63.975013 
L 382.898367 63.43375 
L 383.417815 63.187721 
L 383.846507 62.720267 
L 387.781066 57.184622 
L 388.329258 56.963196 
L 388.948317 56.667961 
L 392.720385 54.379895 
L 393.286509 54.281483 
L 395.285381 53.568 
L 398.360612 280.947705 
L 398.487273 290.641235 
L -1 290.658234 
L -1 290.658234 
" clip-path="url(#p8a71d9232e)" style="fill: none; stroke-dasharray: 1.85,0.8; stroke-dashoffset: 0; stroke: #8000ff; stroke-width: 0.5"/>
   </g>
   <g id="patch_3">
    <path d="M 57.6 307.584 
L 57.6 41.472 
" style="fill: none; stroke: #000000; stroke-width: 0.8; stroke-linejoin: miter; stroke-linecap: square"/>
   </g>
   <g id="patch_4">
    <path d="M 414.72 307.584 
L 414.72 41.472 
" style="fill: none; stroke: #000000; stroke-width: 0.8; stroke-linejoin: miter; stroke-linecap: square"/>
   </g>
   <g id="patch_5">
    <path d="M 57.6 307.584 
L 414.72 307.584 
" style="fill: none; stroke: #000000; stroke-width: 0.8; stroke-linejoin: miter; stroke-linecap: square"/>
   </g>
   <g id="patch_6">
    <path d="M 57.6 41.472 
L 414.72 41.472 
" style="fill: none; stroke: #000000; stroke-width: 0.8; stroke-linejoin: miter; stroke-linecap: square"/>
   </g>
   <g id="legend_1">
    <g id="patch_7">
     <path d="M 314.584 81.0832 
L 318.584 81.0832 
Q 320.584 81.0832 320.584 79.0832 
L 320.584 75.0832 
Q 320.584 73.0832 318.584 73.0832 
L 314.584 73.0832 
Q 312.584 73.0832 312.584 75.0832 
L 312.584 79.0832 
Q 312.584 81.0832 314.584 81.0832 
z
" style="fill: #ffffff; opacity: 0.8; stroke: #cccccc; stroke-linejoin: miter"/>
    </g>
   </g>
  </g>
 </g>
 <defs>
  <clipPath id="p8a71d9232e">
   <rect x="57.6" y="41.472" width="357.12" height="266.112"/>
  </clipPath>
 </defs>
</svg>
