<?xml version="1.0" encoding="utf-8" standalone="no"?>
<!DOCTYPE svg PUBLIC "-//W3C//DTD SVG 1.1//EN"
  "http://www.w3.org/Graphics/SVG/1.1/DTD/svg11.dtd">
<svg xmlns:xlink="http://www.w3.org/1999/xlink" width="460.8pt" height="345.6pt" viewBox="0 0 460.8 345.6" xmlns="http://www.w3.org/2000/svg" version="1.1">
 <metadata>
  <rdf:RDF xmlns:dc="http://purl.org/dc/elements/1.1/" xmlns:cc="http://creativecommons.org/ns#" xmlns:rdf="http://www.w3.org/1999/02/22-rdf-syntax-ns#">
   <cc:Work>
    <dc:type rdf:resource="http://purl.org/dc/dcmitype/StillImage"/>
    <dc:date>2025-03-12T11:33:00.474650</dc:date>
    <dc:format>image/svg+xml</dc:format>
    <dc:creator>
     <cc:Agent>
      <dc:title>Matplotlib v3.10.0, https://matplotlib.org/</dc:title>
     </cc:Agent>
    </dc:creator>
   </cc:Work>
  </rdf:RDF>
 </metadata>
 <defs>
  <style type="text/css">*{stroke-linejoin: round; stroke-linecap: butt}</style>
 </defs>
 <g id="figure_1">
  <g id="patch_1">
   <path d="M 0 345.6 
L 460.8 345.6 
L 460.8 0 
L 0 0 
z
" style="fill: #ffffff"/>
  </g>
  <g id="axes_1">
   <g id="patch_2">
    <path d="M 40.165 304.64 
L 450 304.64 
L 450 21.72 
L 40.165 21.72 
z
" style="fill: #ffffff"/>
   </g>
   <g id="matplotlib.axis_1">
    <g id="xtick_1">
     <g id="line2d_1">
      <defs>
       <path id="m5edd4256fe" d="M 0 0 
L 0 3.5 
" style="stroke: #000000; stroke-width: 0.8"/>
      </defs>
      <g>
       <use xlink:href="#m5edd4256fe" x="58.793864" y="304.64" style="stroke: #000000; stroke-width: 0.8"/>
      </g>
     </g>
     <g id="text_1">
      <!-- 0 -->
      <g transform="translate(55.612614 319.238437) scale(0.1 -0.1)">
       <defs>
        <path id="DejaVuSans-30" d="M 2034 4250 
Q 1547 4250 1301 3770 
Q 1056 3291 1056 2328 
Q 1056 1369 1301 889 
Q 1547 409 2034 409 
Q 2525 409 2770 889 
Q 3016 1369 3016 2328 
Q 3016 3291 2770 3770 
Q 2525 4250 2034 4250 
z
M 2034 4750 
Q 2819 4750 3233 4129 
Q 3647 3509 3647 2328 
Q 3647 1150 3233 529 
Q 2819 -91 2034 -91 
Q 1250 -91 836 529 
Q 422 1150 422 2328 
Q 422 3509 836 4129 
Q 1250 4750 2034 4750 
z
" transform="scale(0.015625)"/>
       </defs>
       <use xlink:href="#DejaVuSans-30"/>
      </g>
     </g>
    </g>
    <g id="xtick_2">
     <g id="line2d_2">
      <g>
       <use xlink:href="#m5edd4256fe" x="105.366023" y="304.64" style="stroke: #000000; stroke-width: 0.8"/>
      </g>
     </g>
     <g id="text_2">
      <!-- 100 -->
      <g transform="translate(95.822273 319.238437) scale(0.1 -0.1)">
       <defs>
        <path id="DejaVuSans-31" d="M 794 531 
L 1825 531 
L 1825 4091 
L 703 3866 
L 703 4441 
L 1819 4666 
L 2450 4666 
L 2450 531 
L 3481 531 
L 3481 0 
L 794 0 
L 794 531 
z
" transform="scale(0.015625)"/>
       </defs>
       <use xlink:href="#DejaVuSans-31"/>
       <use xlink:href="#DejaVuSans-30" transform="translate(63.623047 0)"/>
       <use xlink:href="#DejaVuSans-30" transform="translate(127.246094 0)"/>
      </g>
     </g>
    </g>
    <g id="xtick_3">
     <g id="line2d_3">
      <g>
       <use xlink:href="#m5edd4256fe" x="151.938182" y="304.64" style="stroke: #000000; stroke-width: 0.8"/>
      </g>
     </g>
     <g id="text_3">
      <!-- 200 -->
      <g transform="translate(142.394432 319.238437) scale(0.1 -0.1)">
       <defs>
        <path id="DejaVuSans-32" d="M 1228 531 
L 3431 531 
L 3431 0 
L 469 0 
L 469 531 
Q 828 903 1448 1529 
Q 2069 2156 2228 2338 
Q 2531 2678 2651 2914 
Q 2772 3150 2772 3378 
Q 2772 3750 2511 3984 
Q 2250 4219 1831 4219 
Q 1534 4219 1204 4116 
Q 875 4013 500 3803 
L 500 4441 
Q 881 4594 1212 4672 
Q 1544 4750 1819 4750 
Q 2544 4750 2975 4387 
Q 3406 4025 3406 3419 
Q 3406 3131 3298 2873 
Q 3191 2616 2906 2266 
Q 2828 2175 2409 1742 
Q 1991 1309 1228 531 
z
" transform="scale(0.015625)"/>
       </defs>
       <use xlink:href="#DejaVuSans-32"/>
       <use xlink:href="#DejaVuSans-30" transform="translate(63.623047 0)"/>
       <use xlink:href="#DejaVuSans-30" transform="translate(127.246094 0)"/>
      </g>
     </g>
    </g>
    <g id="xtick_4">
     <g id="line2d_4">
      <g>
       <use xlink:href="#m5edd4256fe" x="198.510341" y="304.64" style="stroke: #000000; stroke-width: 0.8"/>
      </g>
     </g>
     <g id="text_4">
      <!-- 300 -->
      <g transform="translate(188.966591 319.238437) scale(0.1 -0.1)">
       <defs>
        <path id="DejaVuSans-33" d="M 2597 2516 
Q 3050 2419 3304 2112 
Q 3559 1806 3559 1356 
Q 3559 666 3084 287 
Q 2609 -91 1734 -91 
Q 1441 -91 1130 -33 
Q 819 25 488 141 
L 488 750 
Q 750 597 1062 519 
Q 1375 441 1716 441 
Q 2309 441 2620 675 
Q 2931 909 2931 1356 
Q 2931 1769 2642 2001 
Q 2353 2234 1838 2234 
L 1294 2234 
L 1294 2753 
L 1863 2753 
Q 2328 2753 2575 2939 
Q 2822 3125 2822 3475 
Q 2822 3834 2567 4026 
Q 2313 4219 1838 4219 
Q 1578 4219 1281 4162 
Q 984 4106 628 3988 
L 628 4550 
Q 988 4650 1302 4700 
Q 1616 4750 1894 4750 
Q 2613 4750 3031 4423 
Q 3450 4097 3450 3541 
Q 3450 3153 3228 2886 
Q 3006 2619 2597 2516 
z
" transform="scale(0.015625)"/>
       </defs>
       <use xlink:href="#DejaVuSans-33"/>
       <use xlink:href="#DejaVuSans-30" transform="translate(63.623047 0)"/>
       <use xlink:href="#DejaVuSans-30" transform="translate(127.246094 0)"/>
      </g>
     </g>
    </g>
    <g id="xtick_5">
     <g id="line2d_5">
      <g>
       <use xlink:href="#m5edd4256fe" x="245.0825" y="304.64" style="stroke: #000000; stroke-width: 0.8"/>
      </g>
     </g>
     <g id="text_5">
      <!-- 400 -->
      <g transform="translate(235.53875 319.238437) scale(0.1 -0.1)">
       <defs>
        <path id="DejaVuSans-34" d="M 2419 4116 
L 825 1625 
L 2419 1625 
L 2419 4116 
z
M 2253 4666 
L 3047 4666 
L 3047 1625 
L 3713 1625 
L 3713 1100 
L 3047 1100 
L 3047 0 
L 2419 0 
L 2419 1100 
L 313 1100 
L 313 1709 
L 2253 4666 
z
" transform="scale(0.015625)"/>
       </defs>
       <use xlink:href="#DejaVuSans-34"/>
       <use xlink:href="#DejaVuSans-30" transform="translate(63.623047 0)"/>
       <use xlink:href="#DejaVuSans-30" transform="translate(127.246094 0)"/>
      </g>
     </g>
    </g>
    <g id="xtick_6">
     <g id="line2d_6">
      <g>
       <use xlink:href="#m5edd4256fe" x="291.654659" y="304.64" style="stroke: #000000; stroke-width: 0.8"/>
      </g>
     </g>
     <g id="text_6">
      <!-- 500 -->
      <g transform="translate(282.110909 319.238437) scale(0.1 -0.1)">
       <defs>
        <path id="DejaVuSans-35" d="M 691 4666 
L 3169 4666 
L 3169 4134 
L 1269 4134 
L 1269 2991 
Q 1406 3038 1543 3061 
Q 1681 3084 1819 3084 
Q 2600 3084 3056 2656 
Q 3513 2228 3513 1497 
Q 3513 744 3044 326 
Q 2575 -91 1722 -91 
Q 1428 -91 1123 -41 
Q 819 9 494 109 
L 494 744 
Q 775 591 1075 516 
Q 1375 441 1709 441 
Q 2250 441 2565 725 
Q 2881 1009 2881 1497 
Q 2881 1984 2565 2268 
Q 2250 2553 1709 2553 
Q 1456 2553 1204 2497 
Q 953 2441 691 2322 
L 691 4666 
z
" transform="scale(0.015625)"/>
       </defs>
       <use xlink:href="#DejaVuSans-35"/>
       <use xlink:href="#DejaVuSans-30" transform="translate(63.623047 0)"/>
       <use xlink:href="#DejaVuSans-30" transform="translate(127.246094 0)"/>
      </g>
     </g>
    </g>
    <g id="xtick_7">
     <g id="line2d_7">
      <g>
       <use xlink:href="#m5edd4256fe" x="338.226818" y="304.64" style="stroke: #000000; stroke-width: 0.8"/>
      </g>
     </g>
     <g id="text_7">
      <!-- 600 -->
      <g transform="translate(328.683068 319.238437) scale(0.1 -0.1)">
       <defs>
        <path id="DejaVuSans-36" d="M 2113 2584 
Q 1688 2584 1439 2293 
Q 1191 2003 1191 1497 
Q 1191 994 1439 701 
Q 1688 409 2113 409 
Q 2538 409 2786 701 
Q 3034 994 3034 1497 
Q 3034 2003 2786 2293 
Q 2538 2584 2113 2584 
z
M 3366 4563 
L 3366 3988 
Q 3128 4100 2886 4159 
Q 2644 4219 2406 4219 
Q 1781 4219 1451 3797 
Q 1122 3375 1075 2522 
Q 1259 2794 1537 2939 
Q 1816 3084 2150 3084 
Q 2853 3084 3261 2657 
Q 3669 2231 3669 1497 
Q 3669 778 3244 343 
Q 2819 -91 2113 -91 
Q 1303 -91 875 529 
Q 447 1150 447 2328 
Q 447 3434 972 4092 
Q 1497 4750 2381 4750 
Q 2619 4750 2861 4703 
Q 3103 4656 3366 4563 
z
" transform="scale(0.015625)"/>
       </defs>
       <use xlink:href="#DejaVuSans-36"/>
       <use xlink:href="#DejaVuSans-30" transform="translate(63.623047 0)"/>
       <use xlink:href="#DejaVuSans-30" transform="translate(127.246094 0)"/>
      </g>
     </g>
    </g>
    <g id="xtick_8">
     <g id="line2d_8">
      <g>
       <use xlink:href="#m5edd4256fe" x="384.798977" y="304.64" style="stroke: #000000; stroke-width: 0.8"/>
      </g>
     </g>
     <g id="text_8">
      <!-- 700 -->
      <g transform="translate(375.255227 319.238437) scale(0.1 -0.1)">
       <defs>
        <path id="DejaVuSans-37" d="M 525 4666 
L 3525 4666 
L 3525 4397 
L 1831 0 
L 1172 0 
L 2766 4134 
L 525 4134 
L 525 4666 
z
" transform="scale(0.015625)"/>
       </defs>
       <use xlink:href="#DejaVuSans-37"/>
       <use xlink:href="#DejaVuSans-30" transform="translate(63.623047 0)"/>
       <use xlink:href="#DejaVuSans-30" transform="translate(127.246094 0)"/>
      </g>
     </g>
    </g>
    <g id="xtick_9">
     <g id="line2d_9">
      <g>
       <use xlink:href="#m5edd4256fe" x="431.371136" y="304.64" style="stroke: #000000; stroke-width: 0.8"/>
      </g>
     </g>
     <g id="text_9">
      <!-- 800 -->
      <g transform="translate(421.827386 319.238437) scale(0.1 -0.1)">
       <defs>
        <path id="DejaVuSans-38" d="M 2034 2216 
Q 1584 2216 1326 1975 
Q 1069 1734 1069 1313 
Q 1069 891 1326 650 
Q 1584 409 2034 409 
Q 2484 409 2743 651 
Q 3003 894 3003 1313 
Q 3003 1734 2745 1975 
Q 2488 2216 2034 2216 
z
M 1403 2484 
Q 997 2584 770 2862 
Q 544 3141 544 3541 
Q 544 4100 942 4425 
Q 1341 4750 2034 4750 
Q 2731 4750 3128 4425 
Q 3525 4100 3525 3541 
Q 3525 3141 3298 2862 
Q 3072 2584 2669 2484 
Q 3125 2378 3379 2068 
Q 3634 1759 3634 1313 
Q 3634 634 3220 271 
Q 2806 -91 2034 -91 
Q 1263 -91 848 271 
Q 434 634 434 1313 
Q 434 1759 690 2068 
Q 947 2378 1403 2484 
z
M 1172 3481 
Q 1172 3119 1398 2916 
Q 1625 2713 2034 2713 
Q 2441 2713 2670 2916 
Q 2900 3119 2900 3481 
Q 2900 3844 2670 4047 
Q 2441 4250 2034 4250 
Q 1625 4250 1398 4047 
Q 1172 3844 1172 3481 
z
" transform="scale(0.015625)"/>
       </defs>
       <use xlink:href="#DejaVuSans-38"/>
       <use xlink:href="#DejaVuSans-30" transform="translate(63.623047 0)"/>
       <use xlink:href="#DejaVuSans-30" transform="translate(127.246094 0)"/>
      </g>
     </g>
    </g>
    <g id="text_10">
     <!-- Temperature ($^{\circ}C$) -->
     <g transform="translate(201.0825 332.918125) scale(0.1 -0.1)">
      <defs>
       <path id="DejaVuSans-54" d="M -19 4666 
L 3928 4666 
L 3928 4134 
L 2272 4134 
L 2272 0 
L 1638 0 
L 1638 4134 
L -19 4134 
L -19 4666 
z
" transform="scale(0.015625)"/>
       <path id="DejaVuSans-65" d="M 3597 1894 
L 3597 1613 
L 953 1613 
Q 991 1019 1311 708 
Q 1631 397 2203 397 
Q 2534 397 2845 478 
Q 3156 559 3463 722 
L 3463 178 
Q 3153 47 2828 -22 
Q 2503 -91 2169 -91 
Q 1331 -91 842 396 
Q 353 884 353 1716 
Q 353 2575 817 3079 
Q 1281 3584 2069 3584 
Q 2775 3584 3186 3129 
Q 3597 2675 3597 1894 
z
M 3022 2063 
Q 3016 2534 2758 2815 
Q 2500 3097 2075 3097 
Q 1594 3097 1305 2825 
Q 1016 2553 972 2059 
L 3022 2063 
z
" transform="scale(0.015625)"/>
       <path id="DejaVuSans-6d" d="M 3328 2828 
Q 3544 3216 3844 3400 
Q 4144 3584 4550 3584 
Q 5097 3584 5394 3201 
Q 5691 2819 5691 2113 
L 5691 0 
L 5113 0 
L 5113 2094 
Q 5113 2597 4934 2840 
Q 4756 3084 4391 3084 
Q 3944 3084 3684 2787 
Q 3425 2491 3425 1978 
L 3425 0 
L 2847 0 
L 2847 2094 
Q 2847 2600 2669 2842 
Q 2491 3084 2119 3084 
Q 1678 3084 1418 2786 
Q 1159 2488 1159 1978 
L 1159 0 
L 581 0 
L 581 3500 
L 1159 3500 
L 1159 2956 
Q 1356 3278 1631 3431 
Q 1906 3584 2284 3584 
Q 2666 3584 2933 3390 
Q 3200 3197 3328 2828 
z
" transform="scale(0.015625)"/>
       <path id="DejaVuSans-70" d="M 1159 525 
L 1159 -1331 
L 581 -1331 
L 581 3500 
L 1159 3500 
L 1159 2969 
Q 1341 3281 1617 3432 
Q 1894 3584 2278 3584 
Q 2916 3584 3314 3078 
Q 3713 2572 3713 1747 
Q 3713 922 3314 415 
Q 2916 -91 2278 -91 
Q 1894 -91 1617 61 
Q 1341 213 1159 525 
z
M 3116 1747 
Q 3116 2381 2855 2742 
Q 2594 3103 2138 3103 
Q 1681 3103 1420 2742 
Q 1159 2381 1159 1747 
Q 1159 1113 1420 752 
Q 1681 391 2138 391 
Q 2594 391 2855 752 
Q 3116 1113 3116 1747 
z
" transform="scale(0.015625)"/>
       <path id="DejaVuSans-72" d="M 2631 2963 
Q 2534 3019 2420 3045 
Q 2306 3072 2169 3072 
Q 1681 3072 1420 2755 
Q 1159 2438 1159 1844 
L 1159 0 
L 581 0 
L 581 3500 
L 1159 3500 
L 1159 2956 
Q 1341 3275 1631 3429 
Q 1922 3584 2338 3584 
Q 2397 3584 2469 3576 
Q 2541 3569 2628 3553 
L 2631 2963 
z
" transform="scale(0.015625)"/>
       <path id="DejaVuSans-61" d="M 2194 1759 
Q 1497 1759 1228 1600 
Q 959 1441 959 1056 
Q 959 750 1161 570 
Q 1363 391 1709 391 
Q 2188 391 2477 730 
Q 2766 1069 2766 1631 
L 2766 1759 
L 2194 1759 
z
M 3341 1997 
L 3341 0 
L 2766 0 
L 2766 531 
Q 2569 213 2275 61 
Q 1981 -91 1556 -91 
Q 1019 -91 701 211 
Q 384 513 384 1019 
Q 384 1609 779 1909 
Q 1175 2209 1959 2209 
L 2766 2209 
L 2766 2266 
Q 2766 2663 2505 2880 
Q 2244 3097 1772 3097 
Q 1472 3097 1187 3025 
Q 903 2953 641 2809 
L 641 3341 
Q 956 3463 1253 3523 
Q 1550 3584 1831 3584 
Q 2591 3584 2966 3190 
Q 3341 2797 3341 1997 
z
" transform="scale(0.015625)"/>
       <path id="DejaVuSans-74" d="M 1172 4494 
L 1172 3500 
L 2356 3500 
L 2356 3053 
L 1172 3053 
L 1172 1153 
Q 1172 725 1289 603 
Q 1406 481 1766 481 
L 2356 481 
L 2356 0 
L 1766 0 
Q 1100 0 847 248 
Q 594 497 594 1153 
L 594 3053 
L 172 3053 
L 172 3500 
L 594 3500 
L 594 4494 
L 1172 4494 
z
" transform="scale(0.015625)"/>
       <path id="DejaVuSans-75" d="M 544 1381 
L 544 3500 
L 1119 3500 
L 1119 1403 
Q 1119 906 1312 657 
Q 1506 409 1894 409 
Q 2359 409 2629 706 
Q 2900 1003 2900 1516 
L 2900 3500 
L 3475 3500 
L 3475 0 
L 2900 0 
L 2900 538 
Q 2691 219 2414 64 
Q 2138 -91 1772 -91 
Q 1169 -91 856 284 
Q 544 659 544 1381 
z
M 1991 3584 
L 1991 3584 
z
" transform="scale(0.015625)"/>
       <path id="DejaVuSans-20" transform="scale(0.015625)"/>
       <path id="DejaVuSans-28" d="M 1984 4856 
Q 1566 4138 1362 3434 
Q 1159 2731 1159 2009 
Q 1159 1288 1364 580 
Q 1569 -128 1984 -844 
L 1484 -844 
Q 1016 -109 783 600 
Q 550 1309 550 2009 
Q 550 2706 781 3412 
Q 1013 4119 1484 4856 
L 1984 4856 
z
" transform="scale(0.015625)"/>
       <path id="DejaVuSans-2218" d="M 2000 2619 
Q 1750 2619 1578 2445 
Q 1406 2272 1406 2022 
Q 1406 1775 1578 1605 
Q 1750 1435 2000 1435 
Q 2250 1435 2422 1605 
Q 2594 1775 2594 2022 
Q 2594 2269 2420 2444 
Q 2247 2619 2000 2619 
z
M 2000 3022 
Q 2200 3022 2384 2945 
Q 2569 2869 2703 2725 
Q 2847 2585 2919 2406 
Q 2991 2228 2991 2022 
Q 2991 1610 2702 1324 
Q 2413 1038 1994 1038 
Q 1572 1038 1290 1319 
Q 1009 1600 1009 2022 
Q 1009 2441 1296 2731 
Q 1584 3022 2000 3022 
z
" transform="scale(0.015625)"/>
       <path id="DejaVuSans-Oblique-43" d="M 4447 4306 
L 4319 3641 
Q 4019 3944 3683 4091 
Q 3347 4238 2956 4238 
Q 2422 4238 2017 3981 
Q 1613 3725 1319 3200 
Q 1131 2863 1032 2486 
Q 934 2109 934 1728 
Q 934 1091 1264 756 
Q 1594 422 2222 422 
Q 2656 422 3056 561 
Q 3456 700 3834 978 
L 3688 231 
Q 3316 72 2936 -9 
Q 2556 -91 2175 -91 
Q 1278 -91 773 396 
Q 269 884 269 1753 
Q 269 2309 461 2846 
Q 653 3384 1013 3828 
Q 1394 4300 1883 4525 
Q 2372 4750 3022 4750 
Q 3422 4750 3780 4639 
Q 4138 4528 4447 4306 
z
" transform="scale(0.015625)"/>
       <path id="DejaVuSans-29" d="M 513 4856 
L 1013 4856 
Q 1481 4119 1714 3412 
Q 1947 2706 1947 2009 
Q 1947 1309 1714 600 
Q 1481 -109 1013 -844 
L 513 -844 
Q 928 -128 1133 580 
Q 1338 1288 1338 2009 
Q 1338 2731 1133 3434 
Q 928 4138 513 4856 
z
" transform="scale(0.015625)"/>
      </defs>
      <use xlink:href="#DejaVuSans-54" transform="translate(0 0.125)"/>
      <use xlink:href="#DejaVuSans-65" transform="translate(61.083984 0.125)"/>
      <use xlink:href="#DejaVuSans-6d" transform="translate(122.607422 0.125)"/>
      <use xlink:href="#DejaVuSans-70" transform="translate(220.019531 0.125)"/>
      <use xlink:href="#DejaVuSans-65" transform="translate(283.496094 0.125)"/>
      <use xlink:href="#DejaVuSans-72" transform="translate(345.019531 0.125)"/>
      <use xlink:href="#DejaVuSans-61" transform="translate(386.132812 0.125)"/>
      <use xlink:href="#DejaVuSans-74" transform="translate(447.412109 0.125)"/>
      <use xlink:href="#DejaVuSans-75" transform="translate(486.621094 0.125)"/>
      <use xlink:href="#DejaVuSans-72" transform="translate(550 0.125)"/>
      <use xlink:href="#DejaVuSans-65" transform="translate(591.113281 0.125)"/>
      <use xlink:href="#DejaVuSans-20" transform="translate(652.636719 0.125)"/>
      <use xlink:href="#DejaVuSans-28" transform="translate(684.423828 0.125)"/>
      <use xlink:href="#DejaVuSans-2218" transform="translate(724.394531 38.40625) scale(0.7)"/>
      <use xlink:href="#DejaVuSans-Oblique-43" transform="translate(770.947266 0.125)"/>
      <use xlink:href="#DejaVuSans-29" transform="translate(840.771484 0.125)"/>
     </g>
    </g>
   </g>
   <g id="matplotlib.axis_2">
    <g id="ytick_1">
     <g id="line2d_10">
      <defs>
       <path id="md28f020540" d="M 0 0 
L -3.5 0 
" style="stroke: #000000; stroke-width: 0.8"/>
      </defs>
      <g>
       <use xlink:href="#md28f020540" x="40.165" y="291.78" style="stroke: #000000; stroke-width: 0.8"/>
      </g>
     </g>
     <g id="text_11">
      <!-- 0 -->
      <g transform="translate(26.8025 295.579219) scale(0.1 -0.1)">
       <use xlink:href="#DejaVuSans-30"/>
      </g>
     </g>
    </g>
    <g id="ytick_2">
     <g id="line2d_11">
      <g>
       <use xlink:href="#md28f020540" x="40.165" y="240.34" style="stroke: #000000; stroke-width: 0.8"/>
      </g>
     </g>
     <g id="text_12">
      <!-- 1 -->
      <g transform="translate(26.8025 244.139219) scale(0.1 -0.1)">
       <use xlink:href="#DejaVuSans-31"/>
      </g>
     </g>
    </g>
    <g id="ytick_3">
     <g id="line2d_12">
      <g>
       <use xlink:href="#md28f020540" x="40.165" y="188.9" style="stroke: #000000; stroke-width: 0.8"/>
      </g>
     </g>
     <g id="text_13">
      <!-- 2 -->
      <g transform="translate(26.8025 192.699219) scale(0.1 -0.1)">
       <use xlink:href="#DejaVuSans-32"/>
      </g>
     </g>
    </g>
    <g id="ytick_4">
     <g id="line2d_13">
      <g>
       <use xlink:href="#md28f020540" x="40.165" y="137.46" style="stroke: #000000; stroke-width: 0.8"/>
      </g>
     </g>
     <g id="text_14">
      <!-- 3 -->
      <g transform="translate(26.8025 141.259219) scale(0.1 -0.1)">
       <use xlink:href="#DejaVuSans-33"/>
      </g>
     </g>
    </g>
    <g id="ytick_5">
     <g id="line2d_14">
      <g>
       <use xlink:href="#md28f020540" x="40.165" y="86.02" style="stroke: #000000; stroke-width: 0.8"/>
      </g>
     </g>
     <g id="text_15">
      <!-- 4 -->
      <g transform="translate(26.8025 89.819219) scale(0.1 -0.1)">
       <use xlink:href="#DejaVuSans-34"/>
      </g>
     </g>
    </g>
    <g id="ytick_6">
     <g id="line2d_15">
      <g>
       <use xlink:href="#md28f020540" x="40.165" y="34.58" style="stroke: #000000; stroke-width: 0.8"/>
      </g>
     </g>
     <g id="text_16">
      <!-- 5 -->
      <g transform="translate(26.8025 38.379219) scale(0.1 -0.1)">
       <use xlink:href="#DejaVuSans-35"/>
      </g>
     </g>
    </g>
    <g id="text_17">
     <!-- Intensity ($^{\circ}C^{-1}$) -->
     <g transform="translate(20.7025 201.98) rotate(-90) scale(0.1 -0.1)">
      <defs>
       <path id="DejaVuSans-49" d="M 628 4666 
L 1259 4666 
L 1259 0 
L 628 0 
L 628 4666 
z
" transform="scale(0.015625)"/>
       <path id="DejaVuSans-6e" d="M 3513 2113 
L 3513 0 
L 2938 0 
L 2938 2094 
Q 2938 2591 2744 2837 
Q 2550 3084 2163 3084 
Q 1697 3084 1428 2787 
Q 1159 2491 1159 1978 
L 1159 0 
L 581 0 
L 581 3500 
L 1159 3500 
L 1159 2956 
Q 1366 3272 1645 3428 
Q 1925 3584 2291 3584 
Q 2894 3584 3203 3211 
Q 3513 2838 3513 2113 
z
" transform="scale(0.015625)"/>
       <path id="DejaVuSans-73" d="M 2834 3397 
L 2834 2853 
Q 2591 2978 2328 3040 
Q 2066 3103 1784 3103 
Q 1356 3103 1142 2972 
Q 928 2841 928 2578 
Q 928 2378 1081 2264 
Q 1234 2150 1697 2047 
L 1894 2003 
Q 2506 1872 2764 1633 
Q 3022 1394 3022 966 
Q 3022 478 2636 193 
Q 2250 -91 1575 -91 
Q 1294 -91 989 -36 
Q 684 19 347 128 
L 347 722 
Q 666 556 975 473 
Q 1284 391 1588 391 
Q 1994 391 2212 530 
Q 2431 669 2431 922 
Q 2431 1156 2273 1281 
Q 2116 1406 1581 1522 
L 1381 1569 
Q 847 1681 609 1914 
Q 372 2147 372 2553 
Q 372 3047 722 3315 
Q 1072 3584 1716 3584 
Q 2034 3584 2315 3537 
Q 2597 3491 2834 3397 
z
" transform="scale(0.015625)"/>
       <path id="DejaVuSans-69" d="M 603 3500 
L 1178 3500 
L 1178 0 
L 603 0 
L 603 3500 
z
M 603 4863 
L 1178 4863 
L 1178 4134 
L 603 4134 
L 603 4863 
z
" transform="scale(0.015625)"/>
       <path id="DejaVuSans-79" d="M 2059 -325 
Q 1816 -950 1584 -1140 
Q 1353 -1331 966 -1331 
L 506 -1331 
L 506 -850 
L 844 -850 
Q 1081 -850 1212 -737 
Q 1344 -625 1503 -206 
L 1606 56 
L 191 3500 
L 800 3500 
L 1894 763 
L 2988 3500 
L 3597 3500 
L 2059 -325 
z
" transform="scale(0.015625)"/>
       <path id="DejaVuSans-2212" d="M 678 2272 
L 4684 2272 
L 4684 1741 
L 678 1741 
L 678 2272 
z
" transform="scale(0.015625)"/>
      </defs>
      <use xlink:href="#DejaVuSans-49" transform="translate(0 0.684375)"/>
      <use xlink:href="#DejaVuSans-6e" transform="translate(29.492188 0.684375)"/>
      <use xlink:href="#DejaVuSans-74" transform="translate(92.871094 0.684375)"/>
      <use xlink:href="#DejaVuSans-65" transform="translate(132.080078 0.684375)"/>
      <use xlink:href="#DejaVuSans-6e" transform="translate(193.603516 0.684375)"/>
      <use xlink:href="#DejaVuSans-73" transform="translate(256.982422 0.684375)"/>
      <use xlink:href="#DejaVuSans-69" transform="translate(309.082031 0.684375)"/>
      <use xlink:href="#DejaVuSans-74" transform="translate(336.865234 0.684375)"/>
      <use xlink:href="#DejaVuSans-79" transform="translate(376.074219 0.684375)"/>
      <use xlink:href="#DejaVuSans-20" transform="translate(435.253906 0.684375)"/>
      <use xlink:href="#DejaVuSans-28" transform="translate(467.041016 0.684375)"/>
      <use xlink:href="#DejaVuSans-2218" transform="translate(507.011719 38.965625) scale(0.7)"/>
      <use xlink:href="#DejaVuSans-Oblique-43" transform="translate(553.564453 0.684375)"/>
      <use xlink:href="#DejaVuSans-2212" transform="translate(630.589193 38.965625) scale(0.7)"/>
      <use xlink:href="#DejaVuSans-31" transform="translate(689.241536 38.965625) scale(0.7)"/>
      <use xlink:href="#DejaVuSans-29" transform="translate(736.512044 0.684375)"/>
     </g>
    </g>
   </g>
   <g id="line2d_16">
    <path d="M 58.793864 291.78 
L 120.346054 291.78 
L 120.812358 266.06 
L 121.278663 291.78 
L 130.604752 291.78 
L 131.071057 266.06 
L 131.537361 266.06 
L 132.003666 291.78 
L 134.335188 291.78 
L 134.801492 266.06 
L 135.267797 291.78 
L 135.734101 266.06 
L 136.200406 291.78 
L 141.329755 291.78 
L 141.79606 266.06 
L 142.262364 291.78 
L 142.728669 291.78 
L 143.194973 266.06 
L 143.661277 266.06 
L 144.127582 291.78 
L 144.593886 266.06 
L 145.060191 291.78 
L 145.526495 266.06 
L 145.9928 266.06 
L 146.459104 240.34 
L 147.391713 291.78 
L 148.324322 291.78 
L 148.790627 240.34 
L 149.256931 291.78 
L 149.723236 266.06 
L 150.18954 291.78 
L 150.655845 240.34 
L 151.122149 291.78 
L 151.588453 291.78 
L 152.054758 240.34 
L 152.521062 214.62 
L 152.987367 214.62 
L 154.38628 291.78 
L 154.852585 188.9 
L 155.318889 266.06 
L 155.785194 240.34 
L 156.251498 240.34 
L 156.717803 291.78 
L 157.650412 240.34 
L 158.583021 240.34 
L 159.049325 266.06 
L 159.515629 214.62 
L 159.981934 266.06 
L 160.448238 240.34 
L 161.380847 240.34 
L 161.847152 214.62 
L 162.313456 266.06 
L 162.779761 240.34 
L 163.246065 163.18 
L 163.71237 240.34 
L 164.178674 240.34 
L 164.644979 266.06 
L 165.111283 266.06 
L 166.043892 214.62 
L 166.510197 266.06 
L 166.976501 266.06 
L 167.442805 240.34 
L 167.90911 266.06 
L 168.375414 240.34 
L 168.841719 291.78 
L 169.308023 291.78 
L 169.774328 266.06 
L 170.706937 266.06 
L 171.173241 188.9 
L 172.10585 240.34 
L 172.572155 188.9 
L 173.038459 240.34 
L 173.504764 214.62 
L 174.437373 266.06 
L 174.903677 188.9 
L 175.369982 188.9 
L 176.30259 291.78 
L 176.768895 240.34 
L 177.235199 291.78 
L 177.701504 240.34 
L 178.167808 214.62 
L 178.634113 240.34 
L 179.566722 188.9 
L 180.033026 266.06 
L 180.499331 266.06 
L 180.965635 188.9 
L 181.43194 240.34 
L 181.898244 214.62 
L 182.364549 291.78 
L 182.830853 188.9 
L 183.297158 266.06 
L 183.763462 266.06 
L 184.229766 240.34 
L 184.696071 188.9 
L 185.162375 291.78 
L 185.62868 214.62 
L 186.561289 214.62 
L 187.027593 163.18 
L 187.493898 266.06 
L 187.960202 188.9 
L 188.426507 137.46 
L 188.892811 240.34 
L 189.359116 266.06 
L 190.291725 266.06 
L 190.758029 188.9 
L 191.224334 240.34 
L 191.690638 214.62 
L 192.156942 266.06 
L 192.623247 291.78 
L 193.555856 188.9 
L 194.02216 291.78 
L 194.488465 266.06 
L 195.421074 266.06 
L 195.887378 240.34 
L 196.819987 240.34 
L 197.286292 111.74 
L 197.752596 214.62 
L 198.218901 214.62 
L 198.685205 240.34 
L 199.15151 86.02 
L 199.617814 111.74 
L 200.084119 111.74 
L 200.550423 137.46 
L 201.016727 240.34 
L 201.483032 240.34 
L 201.949336 111.74 
L 202.415641 188.9 
L 202.881945 214.62 
L 203.34825 111.74 
L 203.814554 188.9 
L 204.280859 240.34 
L 204.747163 163.18 
L 205.213468 240.34 
L 205.679772 163.18 
L 206.146077 188.9 
L 206.612381 111.74 
L 207.078686 240.34 
L 207.54499 137.46 
L 208.011295 214.62 
L 208.477599 188.9 
L 208.943903 240.34 
L 209.410208 266.06 
L 209.876512 163.18 
L 210.342817 240.34 
L 210.809121 111.74 
L 211.275426 188.9 
L 211.74173 240.34 
L 212.208035 188.9 
L 212.674339 214.62 
L 213.140644 188.9 
L 213.606948 240.34 
L 214.073253 188.9 
L 214.539557 291.78 
L 215.005862 188.9 
L 215.472166 266.06 
L 215.938471 214.62 
L 216.404775 137.46 
L 217.337384 240.34 
L 217.803688 163.18 
L 218.736297 266.06 
L 219.668906 163.18 
L 220.135211 214.62 
L 220.601515 291.78 
L 221.06782 188.9 
L 221.534124 214.62 
L 222.000429 214.62 
L 222.466733 188.9 
L 222.933038 214.62 
L 223.399342 188.9 
L 223.865647 240.34 
L 224.331951 163.18 
L 225.26456 266.06 
L 225.730864 188.9 
L 226.197169 137.46 
L 226.663473 188.9 
L 227.129778 137.46 
L 227.596082 188.9 
L 228.528691 240.34 
L 228.994996 240.34 
L 229.4613 34.58 
L 229.927605 163.18 
L 230.393909 137.46 
L 230.860214 214.62 
L 231.326518 188.9 
L 231.792823 291.78 
L 232.259127 240.34 
L 232.725432 214.62 
L 233.191736 163.18 
L 233.65804 137.46 
L 234.124345 214.62 
L 234.590649 111.74 
L 235.056954 214.62 
L 235.523258 111.74 
L 235.989563 214.62 
L 236.922172 163.18 
L 237.388476 163.18 
L 237.854781 214.62 
L 238.78739 163.18 
L 239.253694 240.34 
L 239.719999 214.62 
L 240.186303 214.62 
L 240.652608 137.46 
L 241.118912 266.06 
L 241.585216 240.34 
L 242.051521 291.78 
L 242.517825 266.06 
L 242.98413 188.9 
L 243.450434 137.46 
L 243.916739 188.9 
L 244.849348 240.34 
L 245.315652 163.18 
L 245.781957 163.18 
L 246.248261 214.62 
L 246.714566 111.74 
L 247.18087 266.06 
L 247.647175 214.62 
L 248.113479 214.62 
L 248.579784 240.34 
L 249.046088 214.62 
L 249.512392 111.74 
L 249.978697 266.06 
L 250.445001 214.62 
L 250.911306 137.46 
L 251.37761 188.9 
L 251.843915 291.78 
L 252.310219 266.06 
L 252.776524 86.02 
L 253.242828 214.62 
L 253.709133 240.34 
L 254.175437 214.62 
L 254.641742 137.46 
L 255.108046 188.9 
L 255.574351 111.74 
L 256.040655 137.46 
L 256.50696 188.9 
L 256.973264 214.62 
L 257.439568 214.62 
L 257.905873 137.46 
L 258.372177 188.9 
L 258.838482 291.78 
L 259.304786 137.46 
L 259.771091 86.02 
L 260.237395 214.62 
L 260.7037 188.9 
L 261.170004 240.34 
L 261.636309 266.06 
L 262.102613 240.34 
L 262.568918 240.34 
L 263.035222 188.9 
L 263.501527 240.34 
L 263.967831 240.34 
L 264.434136 266.06 
L 264.90044 214.62 
L 265.366745 86.02 
L 265.833049 188.9 
L 266.299353 137.46 
L 266.765658 137.46 
L 267.231962 188.9 
L 267.698267 291.78 
L 268.164571 214.62 
L 268.630876 240.34 
L 269.09718 214.62 
L 270.029789 214.62 
L 270.496094 188.9 
L 270.962398 240.34 
L 271.895007 240.34 
L 272.361312 163.18 
L 272.827616 137.46 
L 273.293921 214.62 
L 273.760225 188.9 
L 274.226529 291.78 
L 274.692834 188.9 
L 275.625443 291.78 
L 276.091747 240.34 
L 276.558052 266.06 
L 277.024356 240.34 
L 277.490661 163.18 
L 277.956965 240.34 
L 278.42327 137.46 
L 278.889574 266.06 
L 279.355879 137.46 
L 279.822183 214.62 
L 280.288488 266.06 
L 280.754792 214.62 
L 281.221097 188.9 
L 281.687401 214.62 
L 282.153705 188.9 
L 282.62001 266.06 
L 283.086314 137.46 
L 283.552619 214.62 
L 284.018923 266.06 
L 284.485228 266.06 
L 284.951532 214.62 
L 285.417837 240.34 
L 285.884141 214.62 
L 286.350446 266.06 
L 286.81675 266.06 
L 287.283055 214.62 
L 287.749359 266.06 
L 288.215664 240.34 
L 288.681968 240.34 
L 289.148273 214.62 
L 290.080881 214.62 
L 290.547186 188.9 
L 291.01349 86.02 
L 291.479795 214.62 
L 291.946099 214.62 
L 292.412404 240.34 
L 293.345013 137.46 
L 293.811317 214.62 
L 294.277622 214.62 
L 294.743926 188.9 
L 295.210231 240.34 
L 295.676535 266.06 
L 296.609144 266.06 
L 297.075449 214.62 
L 298.008058 266.06 
L 298.940666 111.74 
L 299.406971 188.9 
L 299.873275 240.34 
L 300.33958 163.18 
L 300.805884 240.34 
L 301.272189 240.34 
L 301.738493 188.9 
L 302.204798 188.9 
L 302.671102 137.46 
L 303.137407 240.34 
L 303.603711 214.62 
L 304.070016 266.06 
L 305.002625 266.06 
L 305.468929 214.62 
L 306.401538 214.62 
L 307.334147 266.06 
L 307.800451 266.06 
L 308.266756 214.62 
L 308.73306 214.62 
L 309.199365 266.06 
L 309.665669 266.06 
L 310.131974 214.62 
L 311.064583 266.06 
L 311.530887 240.34 
L 311.997192 240.34 
L 312.463496 214.62 
L 312.929801 291.78 
L 313.396105 240.34 
L 313.86241 240.34 
L 314.328714 266.06 
L 314.795018 163.18 
L 315.261323 214.62 
L 315.727627 137.46 
L 316.193932 163.18 
L 316.660236 266.06 
L 317.126541 188.9 
L 317.592845 240.34 
L 318.05915 266.06 
L 318.525454 163.18 
L 318.991759 188.9 
L 319.458063 240.34 
L 319.924368 266.06 
L 320.390672 266.06 
L 320.856977 188.9 
L 321.323281 240.34 
L 321.789586 240.34 
L 322.25589 214.62 
L 322.722195 240.34 
L 323.188499 240.34 
L 323.654803 214.62 
L 324.121108 240.34 
L 325.053717 240.34 
L 325.520021 266.06 
L 325.986326 266.06 
L 326.45263 188.9 
L 326.918935 240.34 
L 327.385239 214.62 
L 327.851544 291.78 
L 328.317848 291.78 
L 328.784153 240.34 
L 329.250457 291.78 
L 330.183066 188.9 
L 330.649371 266.06 
L 331.115675 266.06 
L 331.581979 188.9 
L 332.048284 266.06 
L 332.514588 214.62 
L 333.447197 266.06 
L 333.913502 266.06 
L 334.379806 214.62 
L 334.846111 266.06 
L 335.312415 214.62 
L 335.77872 291.78 
L 336.245024 163.18 
L 336.711329 291.78 
L 337.177633 266.06 
L 337.643938 291.78 
L 338.110242 163.18 
L 338.576547 240.34 
L 339.042851 266.06 
L 339.509155 188.9 
L 339.97546 240.34 
L 340.441764 111.74 
L 340.908069 266.06 
L 341.374373 266.06 
L 341.840678 111.74 
L 342.306982 291.78 
L 342.773287 214.62 
L 343.239591 266.06 
L 343.705896 266.06 
L 344.1722 240.34 
L 344.638505 163.18 
L 345.571114 214.62 
L 346.037418 214.62 
L 346.970027 266.06 
L 347.436331 240.34 
L 348.36894 240.34 
L 348.835245 291.78 
L 349.301549 266.06 
L 349.767854 214.62 
L 350.234158 214.62 
L 350.700463 291.78 
L 351.166767 188.9 
L 351.633072 137.46 
L 352.099376 240.34 
L 352.565681 214.62 
L 353.031985 266.06 
L 353.49829 266.06 
L 353.964594 214.62 
L 354.430899 214.62 
L 354.897203 266.06 
L 355.363508 188.9 
L 355.829812 214.62 
L 356.296116 266.06 
L 356.762421 240.34 
L 357.228725 266.06 
L 357.69503 240.34 
L 358.161334 240.34 
L 358.627639 214.62 
L 359.560248 266.06 
L 360.026552 266.06 
L 360.492857 214.62 
L 360.959161 266.06 
L 361.425466 214.62 
L 361.89177 291.78 
L 362.358075 214.62 
L 363.290684 266.06 
L 363.756988 214.62 
L 364.223292 240.34 
L 364.689597 188.9 
L 365.155901 240.34 
L 366.08851 240.34 
L 366.554815 291.78 
L 367.021119 214.62 
L 367.487424 266.06 
L 367.953728 240.34 
L 368.420033 266.06 
L 368.886337 188.9 
L 369.352642 240.34 
L 369.818946 214.62 
L 370.285251 240.34 
L 370.751555 214.62 
L 371.684164 266.06 
L 372.150468 188.9 
L 372.616773 240.34 
L 373.083077 266.06 
L 373.549382 214.62 
L 374.015686 266.06 
L 374.481991 163.18 
L 374.948295 291.78 
L 375.4146 240.34 
L 375.880904 240.34 
L 376.347209 214.62 
L 376.813513 266.06 
L 377.279818 214.62 
L 377.746122 266.06 
L 378.212427 240.34 
L 378.678731 240.34 
L 379.145036 291.78 
L 379.61134 214.62 
L 380.077644 214.62 
L 381.476558 291.78 
L 381.942862 240.34 
L 382.409167 240.34 
L 382.875471 291.78 
L 383.341776 291.78 
L 383.80808 214.62 
L 384.274385 266.06 
L 385.206994 266.06 
L 385.673298 214.62 
L 386.139603 291.78 
L 386.605907 266.06 
L 387.072212 266.06 
L 387.538516 240.34 
L 388.004821 240.34 
L 388.471125 291.78 
L 388.937429 291.78 
L 389.403734 214.62 
L 389.870038 291.78 
L 390.336343 188.9 
L 390.802647 266.06 
L 391.268952 266.06 
L 391.735256 291.78 
L 392.201561 214.62 
L 392.667865 188.9 
L 393.13417 266.06 
L 393.600474 214.62 
L 394.066779 266.06 
L 394.533083 240.34 
L 394.999388 291.78 
L 395.465692 291.78 
L 395.931997 240.34 
L 396.398301 291.78 
L 396.864605 240.34 
L 397.33091 240.34 
L 397.797214 214.62 
L 398.263519 240.34 
L 399.196128 240.34 
L 399.662432 291.78 
L 400.128737 214.62 
L 400.595041 240.34 
L 401.061346 240.34 
L 401.52765 266.06 
L 401.993955 266.06 
L 402.460259 240.34 
L 402.926564 266.06 
L 403.392868 240.34 
L 403.859173 291.78 
L 404.325477 266.06 
L 407.123304 266.06 
L 407.589608 291.78 
L 408.055913 266.06 
L 408.522217 291.78 
L 408.988522 214.62 
L 409.454826 291.78 
L 409.921131 266.06 
L 410.387435 291.78 
L 410.85374 214.62 
L 411.320044 266.06 
L 411.786349 240.34 
L 412.252653 266.06 
L 412.718958 240.34 
L 413.651566 291.78 
L 414.117871 214.62 
L 414.584175 291.78 
L 415.05048 291.78 
L 415.516784 266.06 
L 415.983089 291.78 
L 416.449393 291.78 
L 416.915698 240.34 
L 417.382002 291.78 
L 418.314611 291.78 
L 418.780916 266.06 
L 419.24722 266.06 
L 419.713525 291.78 
L 420.646134 291.78 
L 421.112438 214.62 
L 421.578742 266.06 
L 422.045047 266.06 
L 422.511351 291.78 
L 422.977656 266.06 
L 423.44396 291.78 
L 423.910265 240.34 
L 424.376569 291.78 
L 425.775483 291.78 
L 426.241787 266.06 
L 426.708092 291.78 
L 427.174396 240.34 
L 427.640701 240.34 
L 428.107005 266.06 
L 428.57331 266.06 
L 429.039614 291.78 
L 429.505918 240.34 
L 429.972223 240.34 
L 430.438527 291.78 
L 430.904832 214.62 
L 431.371136 291.78 
L 431.371136 291.78 
" clip-path="url(#p0fd793e729)" style="fill: none; stroke-dasharray: 1.85,0.8; stroke-dashoffset: 0; stroke: #8000ff; stroke-width: 0.5"/>
   </g>
   <g id="line2d_17">
    <path d="M 58.793864 291.78 
L 132.003666 291.78 
L 132.46997 266.06 
L 132.936275 291.78 
L 137.599319 291.78 
L 138.065624 266.06 
L 138.531928 291.78 
L 138.998233 266.06 
L 139.464537 291.78 
L 146.459104 291.78 
L 146.925409 266.06 
L 147.391713 291.78 
L 148.790627 291.78 
L 149.256931 266.06 
L 149.723236 291.78 
L 152.054758 291.78 
L 152.521062 266.06 
L 152.987367 291.78 
L 153.453671 266.06 
L 153.919976 291.78 
L 156.251498 291.78 
L 156.717803 266.06 
L 157.184107 291.78 
L 159.049325 291.78 
L 159.515629 266.06 
L 159.981934 291.78 
L 160.914543 291.78 
L 161.847152 240.34 
L 162.313456 291.78 
L 162.779761 291.78 
L 163.246065 266.06 
L 163.71237 291.78 
L 164.178674 291.78 
L 165.111283 240.34 
L 165.577588 291.78 
L 166.043892 188.9 
L 166.976501 291.78 
L 167.442805 266.06 
L 167.90911 291.78 
L 168.375414 266.06 
L 168.841719 291.78 
L 169.308023 266.06 
L 169.774328 291.78 
L 170.706937 291.78 
L 171.173241 240.34 
L 172.10585 291.78 
L 172.572155 291.78 
L 173.038459 240.34 
L 173.504764 266.06 
L 173.971068 266.06 
L 174.437373 291.78 
L 174.903677 214.62 
L 175.369982 240.34 
L 175.836286 291.78 
L 176.30259 291.78 
L 176.768895 214.62 
L 177.235199 266.06 
L 177.701504 214.62 
L 178.167808 291.78 
L 178.634113 266.06 
L 179.100417 291.78 
L 179.566722 266.06 
L 180.033026 266.06 
L 180.499331 240.34 
L 180.965635 240.34 
L 181.43194 291.78 
L 181.898244 266.06 
L 182.364549 214.62 
L 182.830853 214.62 
L 183.297158 291.78 
L 184.229766 188.9 
L 184.696071 291.78 
L 185.162375 188.9 
L 185.62868 266.06 
L 186.094984 214.62 
L 186.561289 266.06 
L 187.027593 266.06 
L 187.493898 240.34 
L 187.960202 188.9 
L 188.426507 266.06 
L 188.892811 266.06 
L 189.359116 291.78 
L 189.82542 240.34 
L 190.291725 266.06 
L 190.758029 266.06 
L 191.224334 188.9 
L 191.690638 240.34 
L 192.156942 214.62 
L 193.089551 214.62 
L 193.555856 240.34 
L 194.02216 291.78 
L 194.488465 214.62 
L 194.954769 266.06 
L 195.421074 266.06 
L 195.887378 291.78 
L 196.353683 266.06 
L 198.218901 266.06 
L 199.15151 214.62 
L 199.617814 240.34 
L 200.084119 240.34 
L 200.550423 214.62 
L 201.016727 266.06 
L 201.483032 240.34 
L 201.949336 188.9 
L 202.415641 240.34 
L 202.881945 240.34 
L 203.34825 214.62 
L 203.814554 214.62 
L 204.280859 240.34 
L 204.747163 291.78 
L 205.213468 240.34 
L 205.679772 163.18 
L 206.146077 214.62 
L 206.612381 240.34 
L 207.078686 214.62 
L 207.54499 291.78 
L 208.477599 188.9 
L 208.943903 240.34 
L 209.410208 214.62 
L 210.342817 266.06 
L 210.809121 240.34 
L 211.275426 291.78 
L 211.74173 240.34 
L 212.208035 240.34 
L 212.674339 266.06 
L 213.140644 188.9 
L 213.606948 266.06 
L 214.539557 266.06 
L 215.005862 163.18 
L 215.472166 291.78 
L 215.938471 291.78 
L 216.404775 214.62 
L 216.871079 240.34 
L 217.337384 240.34 
L 217.803688 214.62 
L 218.269993 240.34 
L 218.736297 188.9 
L 219.202602 266.06 
L 219.668906 240.34 
L 220.135211 266.06 
L 220.601515 240.34 
L 221.06782 240.34 
L 221.534124 214.62 
L 222.000429 214.62 
L 222.933038 163.18 
L 223.399342 240.34 
L 223.865647 266.06 
L 224.798255 214.62 
L 225.26456 111.74 
L 225.730864 214.62 
L 226.197169 111.74 
L 226.663473 291.78 
L 227.129778 163.18 
L 227.596082 240.34 
L 228.062387 266.06 
L 228.528691 188.9 
L 228.994996 188.9 
L 229.4613 163.18 
L 229.927605 266.06 
L 230.393909 163.18 
L 230.860214 266.06 
L 231.326518 240.34 
L 231.792823 266.06 
L 232.259127 240.34 
L 232.725432 188.9 
L 233.191736 214.62 
L 233.65804 291.78 
L 234.124345 188.9 
L 234.590649 188.9 
L 235.523258 240.34 
L 235.989563 188.9 
L 236.922172 240.34 
L 237.388476 163.18 
L 237.854781 188.9 
L 238.321085 266.06 
L 238.78739 214.62 
L 239.253694 266.06 
L 239.719999 214.62 
L 240.652608 266.06 
L 241.118912 188.9 
L 241.585216 291.78 
L 242.051521 266.06 
L 242.517825 266.06 
L 242.98413 163.18 
L 243.450434 240.34 
L 243.916739 266.06 
L 244.383043 188.9 
L 244.849348 188.9 
L 245.315652 240.34 
L 245.781957 240.34 
L 246.248261 214.62 
L 246.714566 240.34 
L 247.18087 214.62 
L 247.647175 266.06 
L 248.113479 188.9 
L 248.579784 240.34 
L 249.046088 266.06 
L 249.978697 214.62 
L 250.445001 214.62 
L 250.911306 188.9 
L 251.37761 266.06 
L 252.310219 214.62 
L 253.709133 214.62 
L 254.175437 188.9 
L 254.641742 266.06 
L 255.108046 214.62 
L 255.574351 86.02 
L 256.040655 240.34 
L 256.50696 266.06 
L 256.973264 163.18 
L 257.439568 214.62 
L 257.905873 34.58 
L 258.838482 266.06 
L 259.304786 86.02 
L 259.771091 214.62 
L 260.237395 240.34 
L 260.7037 240.34 
L 261.170004 214.62 
L 261.636309 214.62 
L 262.102613 137.46 
L 262.568918 266.06 
L 263.035222 188.9 
L 263.501527 188.9 
L 263.967831 163.18 
L 264.434136 266.06 
L 264.90044 214.62 
L 265.366745 214.62 
L 265.833049 240.34 
L 266.299353 188.9 
L 266.765658 214.62 
L 267.231962 214.62 
L 267.698267 266.06 
L 268.164571 188.9 
L 268.630876 240.34 
L 269.09718 214.62 
L 270.029789 214.62 
L 270.496094 188.9 
L 270.962398 188.9 
L 271.428703 240.34 
L 271.895007 214.62 
L 272.827616 214.62 
L 273.293921 291.78 
L 273.760225 214.62 
L 274.226529 266.06 
L 274.692834 214.62 
L 275.159138 188.9 
L 275.625443 266.06 
L 276.091747 214.62 
L 276.558052 266.06 
L 277.024356 240.34 
L 277.490661 188.9 
L 277.956965 240.34 
L 278.889574 188.9 
L 279.822183 188.9 
L 280.288488 240.34 
L 280.754792 240.34 
L 281.221097 188.9 
L 281.687401 111.74 
L 282.153705 137.46 
L 282.62001 240.34 
L 283.086314 137.46 
L 283.552619 266.06 
L 284.018923 240.34 
L 284.485228 163.18 
L 284.951532 188.9 
L 285.417837 266.06 
L 285.884141 214.62 
L 286.350446 214.62 
L 286.81675 266.06 
L 287.283055 240.34 
L 287.749359 188.9 
L 288.215664 266.06 
L 288.681968 240.34 
L 289.148273 60.3 
L 289.614577 188.9 
L 290.080881 266.06 
L 290.547186 163.18 
L 291.01349 188.9 
L 291.479795 240.34 
L 291.946099 240.34 
L 292.878708 188.9 
L 293.345013 291.78 
L 293.811317 240.34 
L 294.277622 60.3 
L 294.743926 266.06 
L 295.210231 266.06 
L 295.676535 137.46 
L 296.14284 266.06 
L 296.609144 188.9 
L 297.075449 266.06 
L 297.541753 240.34 
L 298.008058 240.34 
L 299.406971 163.18 
L 299.873275 240.34 
L 300.805884 240.34 
L 301.272189 266.06 
L 301.738493 266.06 
L 302.204798 240.34 
L 303.137407 240.34 
L 303.603711 214.62 
L 304.070016 214.62 
L 304.53632 291.78 
L 305.002625 214.62 
L 305.468929 163.18 
L 305.935234 214.62 
L 306.401538 188.9 
L 306.867842 266.06 
L 307.334147 214.62 
L 307.800451 266.06 
L 308.266756 214.62 
L 308.73306 214.62 
L 309.199365 240.34 
L 309.665669 240.34 
L 310.131974 163.18 
L 310.598278 188.9 
L 311.064583 240.34 
L 311.530887 266.06 
L 311.997192 240.34 
L 312.463496 240.34 
L 312.929801 266.06 
L 313.396105 188.9 
L 313.86241 266.06 
L 314.328714 240.34 
L 314.795018 137.46 
L 315.261323 214.62 
L 315.727627 266.06 
L 316.660236 214.62 
L 317.126541 60.3 
L 317.592845 266.06 
L 318.05915 214.62 
L 318.525454 137.46 
L 318.991759 240.34 
L 319.458063 214.62 
L 319.924368 214.62 
L 320.390672 266.06 
L 320.856977 214.62 
L 321.323281 240.34 
L 321.789586 188.9 
L 322.25589 266.06 
L 322.722195 266.06 
L 323.188499 240.34 
L 323.654803 266.06 
L 324.121108 266.06 
L 325.053717 214.62 
L 325.520021 240.34 
L 325.986326 188.9 
L 326.918935 188.9 
L 327.385239 214.62 
L 327.851544 188.9 
L 328.317848 240.34 
L 328.784153 240.34 
L 329.250457 214.62 
L 329.716762 266.06 
L 330.183066 137.46 
L 330.649371 240.34 
L 331.115675 266.06 
L 331.581979 163.18 
L 332.048284 111.74 
L 332.514588 240.34 
L 332.980893 266.06 
L 333.447197 214.62 
L 333.913502 188.9 
L 334.379806 291.78 
L 334.846111 240.34 
L 335.312415 291.78 
L 335.77872 188.9 
L 336.245024 188.9 
L 336.711329 266.06 
L 337.177633 188.9 
L 337.643938 188.9 
L 338.110242 240.34 
L 338.576547 214.62 
L 339.042851 214.62 
L 339.509155 266.06 
L 339.97546 291.78 
L 340.441764 266.06 
L 340.908069 214.62 
L 341.374373 291.78 
L 341.840678 214.62 
L 342.306982 240.34 
L 342.773287 163.18 
L 343.239591 240.34 
L 343.705896 266.06 
L 344.1722 266.06 
L 344.638505 214.62 
L 345.571114 266.06 
L 346.037418 214.62 
L 346.503723 266.06 
L 347.436331 214.62 
L 347.902636 266.06 
L 348.36894 240.34 
L 348.835245 188.9 
L 349.301549 188.9 
L 349.767854 240.34 
L 350.234158 163.18 
L 351.166767 266.06 
L 351.633072 266.06 
L 352.099376 188.9 
L 352.565681 266.06 
L 353.031985 266.06 
L 353.49829 240.34 
L 353.964594 163.18 
L 354.430899 266.06 
L 354.897203 266.06 
L 355.829812 214.62 
L 356.296116 137.46 
L 356.762421 137.46 
L 357.228725 266.06 
L 357.69503 266.06 
L 358.161334 291.78 
L 358.627639 188.9 
L 359.560248 291.78 
L 360.026552 240.34 
L 360.492857 240.34 
L 360.959161 214.62 
L 361.89177 266.06 
L 362.824379 214.62 
L 363.756988 266.06 
L 364.223292 240.34 
L 364.689597 266.06 
L 365.155901 240.34 
L 365.622206 291.78 
L 366.08851 240.34 
L 366.554815 266.06 
L 367.021119 137.46 
L 367.487424 214.62 
L 367.953728 240.34 
L 368.420033 240.34 
L 368.886337 291.78 
L 369.352642 214.62 
L 369.818946 266.06 
L 370.285251 240.34 
L 370.751555 266.06 
L 371.21786 214.62 
L 371.684164 291.78 
L 372.616773 291.78 
L 373.083077 240.34 
L 373.549382 266.06 
L 374.015686 266.06 
L 374.481991 291.78 
L 374.948295 266.06 
L 375.4146 86.02 
L 375.880904 266.06 
L 376.347209 266.06 
L 376.813513 214.62 
L 377.279818 240.34 
L 377.746122 240.34 
L 378.212427 291.78 
L 378.678731 266.06 
L 379.145036 291.78 
L 379.61134 240.34 
L 380.077644 266.06 
L 380.543949 214.62 
L 381.010253 240.34 
L 381.476558 240.34 
L 381.942862 266.06 
L 382.875471 266.06 
L 383.341776 240.34 
L 383.80808 291.78 
L 384.274385 291.78 
L 384.740689 266.06 
L 385.206994 214.62 
L 385.673298 266.06 
L 386.139603 240.34 
L 386.605907 240.34 
L 387.072212 214.62 
L 387.538516 291.78 
L 388.471125 240.34 
L 388.937429 240.34 
L 389.403734 266.06 
L 389.870038 266.06 
L 390.336343 291.78 
L 390.802647 266.06 
L 391.268952 291.78 
L 391.735256 240.34 
L 392.201561 291.78 
L 392.667865 240.34 
L 393.13417 266.06 
L 393.600474 214.62 
L 394.066779 291.78 
L 394.533083 188.9 
L 394.999388 240.34 
L 395.465692 240.34 
L 395.931997 291.78 
L 396.398301 163.18 
L 396.864605 266.06 
L 397.33091 240.34 
L 397.797214 266.06 
L 398.263519 240.34 
L 398.729823 266.06 
L 399.196128 214.62 
L 399.662432 291.78 
L 400.128737 266.06 
L 400.595041 266.06 
L 401.061346 240.34 
L 401.52765 266.06 
L 401.993955 214.62 
L 402.460259 240.34 
L 402.926564 240.34 
L 403.392868 188.9 
L 403.859173 240.34 
L 404.791781 291.78 
L 405.258086 240.34 
L 405.72439 214.62 
L 406.656999 266.06 
L 407.123304 266.06 
L 407.589608 163.18 
L 408.055913 291.78 
L 408.988522 188.9 
L 409.454826 214.62 
L 409.921131 291.78 
L 410.387435 266.06 
L 411.786349 266.06 
L 412.718958 214.62 
L 413.185262 291.78 
L 413.651566 240.34 
L 414.117871 214.62 
L 414.584175 240.34 
L 415.05048 240.34 
L 415.516784 266.06 
L 415.983089 214.62 
L 416.449393 291.78 
L 416.915698 188.9 
L 418.314611 266.06 
L 418.780916 240.34 
L 419.24722 291.78 
L 419.713525 266.06 
L 420.179829 266.06 
L 420.646134 291.78 
L 421.112438 266.06 
L 421.578742 291.78 
L 422.045047 291.78 
L 422.511351 240.34 
L 422.977656 214.62 
L 423.44396 291.78 
L 423.910265 188.9 
L 424.376569 266.06 
L 424.842874 214.62 
L 425.309178 291.78 
L 425.775483 266.06 
L 426.241787 291.78 
L 426.708092 291.78 
L 427.174396 214.62 
L 427.640701 291.78 
L 428.107005 291.78 
L 428.57331 266.06 
L 429.039614 214.62 
L 429.505918 266.06 
L 429.972223 240.34 
L 430.438527 240.34 
L 430.904832 266.06 
L 431.371136 240.34 
L 431.371136 240.34 
" clip-path="url(#p0fd793e729)" style="fill: none; stroke-dasharray: 1.85,0.8; stroke-dashoffset: 0; stroke: #00b5eb; stroke-width: 0.5"/>
   </g>
   <g id="line2d_18">
    <path d="M 58.793864 291.78 
L 142.262364 291.78 
L 142.728669 266.06 
L 143.194973 291.78 
L 150.18954 291.78 
L 150.655845 266.06 
L 151.122149 291.78 
L 156.717803 291.78 
L 157.184107 266.06 
L 157.650412 291.78 
L 161.380847 291.78 
L 161.847152 266.06 
L 162.313456 291.78 
L 162.779761 291.78 
L 163.246065 266.06 
L 163.71237 291.78 
L 165.111283 291.78 
L 165.577588 266.06 
L 166.043892 291.78 
L 167.90911 291.78 
L 168.375414 266.06 
L 169.308023 266.06 
L 169.774328 291.78 
L 171.639546 291.78 
L 172.10585 266.06 
L 172.572155 291.78 
L 173.504764 291.78 
L 173.971068 266.06 
L 174.437373 291.78 
L 175.369982 291.78 
L 175.836286 266.06 
L 176.30259 291.78 
L 176.768895 266.06 
L 177.235199 291.78 
L 177.701504 240.34 
L 178.167808 291.78 
L 178.634113 266.06 
L 179.100417 291.78 
L 180.965635 291.78 
L 181.43194 266.06 
L 181.898244 291.78 
L 182.364549 266.06 
L 182.830853 291.78 
L 183.297158 266.06 
L 183.763462 291.78 
L 184.229766 266.06 
L 184.696071 291.78 
L 185.162375 291.78 
L 185.62868 266.06 
L 186.561289 266.06 
L 187.027593 240.34 
L 187.960202 291.78 
L 189.82542 291.78 
L 190.758029 240.34 
L 192.156942 240.34 
L 193.089551 291.78 
L 193.555856 214.62 
L 194.02216 240.34 
L 194.488465 291.78 
L 194.954769 214.62 
L 195.421074 266.06 
L 195.887378 240.34 
L 196.353683 291.78 
L 196.819987 291.78 
L 197.286292 266.06 
L 197.752596 291.78 
L 198.218901 291.78 
L 198.685205 240.34 
L 199.15151 291.78 
L 199.617814 240.34 
L 200.550423 240.34 
L 201.016727 291.78 
L 201.483032 214.62 
L 201.949336 266.06 
L 202.415641 214.62 
L 202.881945 266.06 
L 203.34825 240.34 
L 203.814554 266.06 
L 204.280859 240.34 
L 204.747163 266.06 
L 205.213468 214.62 
L 205.679772 266.06 
L 206.146077 266.06 
L 206.612381 240.34 
L 207.078686 291.78 
L 207.54499 214.62 
L 208.011295 240.34 
L 208.477599 214.62 
L 208.943903 214.62 
L 210.342817 291.78 
L 210.809121 240.34 
L 211.275426 266.06 
L 211.74173 163.18 
L 212.208035 266.06 
L 212.674339 214.62 
L 213.140644 291.78 
L 213.606948 240.34 
L 214.073253 240.34 
L 214.539557 291.78 
L 215.005862 266.06 
L 215.472166 188.9 
L 215.938471 266.06 
L 216.404775 214.62 
L 217.803688 291.78 
L 218.269993 214.62 
L 218.736297 214.62 
L 219.668906 266.06 
L 220.601515 214.62 
L 221.06782 291.78 
L 221.534124 266.06 
L 222.000429 266.06 
L 222.466733 214.62 
L 222.933038 214.62 
L 223.399342 266.06 
L 223.865647 240.34 
L 224.331951 240.34 
L 224.798255 214.62 
L 225.26456 163.18 
L 225.730864 240.34 
L 226.197169 266.06 
L 227.129778 266.06 
L 227.596082 214.62 
L 228.062387 214.62 
L 228.528691 266.06 
L 228.994996 291.78 
L 229.4613 266.06 
L 229.927605 214.62 
L 230.393909 266.06 
L 231.326518 266.06 
L 231.792823 291.78 
L 232.259127 240.34 
L 232.725432 240.34 
L 233.191736 188.9 
L 233.65804 291.78 
L 234.124345 240.34 
L 234.590649 291.78 
L 235.523258 188.9 
L 235.989563 291.78 
L 236.455867 214.62 
L 236.922172 240.34 
L 237.388476 240.34 
L 237.854781 214.62 
L 238.321085 111.74 
L 238.78739 240.34 
L 239.253694 188.9 
L 239.719999 188.9 
L 240.186303 240.34 
L 240.652608 240.34 
L 241.585216 188.9 
L 242.051521 266.06 
L 242.517825 214.62 
L 242.98413 214.62 
L 243.450434 266.06 
L 243.916739 137.46 
L 244.383043 214.62 
L 244.849348 214.62 
L 245.315652 240.34 
L 245.781957 214.62 
L 246.248261 266.06 
L 246.714566 240.34 
L 247.18087 188.9 
L 247.647175 214.62 
L 248.113479 188.9 
L 248.579784 291.78 
L 249.046088 214.62 
L 249.512392 240.34 
L 249.978697 163.18 
L 250.445001 214.62 
L 250.911306 188.9 
L 251.37761 291.78 
L 251.843915 163.18 
L 252.310219 266.06 
L 252.776524 240.34 
L 253.242828 111.74 
L 253.709133 214.62 
L 254.175437 188.9 
L 254.641742 291.78 
L 255.574351 240.34 
L 256.040655 266.06 
L 256.50696 266.06 
L 256.973264 188.9 
L 257.439568 291.78 
L 257.905873 214.62 
L 258.372177 291.78 
L 258.838482 240.34 
L 259.304786 214.62 
L 260.237395 214.62 
L 261.170004 163.18 
L 261.636309 214.62 
L 262.102613 188.9 
L 262.568918 214.62 
L 263.035222 266.06 
L 263.501527 266.06 
L 263.967831 240.34 
L 264.434136 163.18 
L 264.90044 214.62 
L 265.366745 240.34 
L 265.833049 214.62 
L 266.299353 240.34 
L 266.765658 214.62 
L 267.231962 266.06 
L 267.698267 188.9 
L 268.164571 240.34 
L 268.630876 137.46 
L 269.09718 214.62 
L 269.563485 214.62 
L 270.029789 188.9 
L 270.496094 291.78 
L 271.428703 188.9 
L 271.895007 240.34 
L 272.827616 188.9 
L 273.293921 291.78 
L 273.760225 266.06 
L 274.226529 291.78 
L 274.692834 291.78 
L 275.159138 188.9 
L 276.091747 291.78 
L 276.558052 188.9 
L 277.024356 266.06 
L 277.490661 291.78 
L 277.956965 240.34 
L 278.42327 266.06 
L 279.822183 188.9 
L 280.288488 214.62 
L 280.754792 214.62 
L 281.221097 240.34 
L 281.687401 214.62 
L 282.153705 214.62 
L 282.62001 188.9 
L 283.086314 266.06 
L 283.552619 240.34 
L 284.018923 266.06 
L 284.485228 188.9 
L 284.951532 266.06 
L 285.417837 188.9 
L 285.884141 188.9 
L 286.350446 240.34 
L 286.81675 240.34 
L 287.283055 214.62 
L 287.749359 240.34 
L 288.215664 240.34 
L 288.681968 214.62 
L 289.148273 214.62 
L 289.614577 163.18 
L 290.547186 266.06 
L 291.479795 266.06 
L 291.946099 214.62 
L 292.412404 214.62 
L 292.878708 266.06 
L 293.345013 188.9 
L 293.811317 137.46 
L 294.277622 214.62 
L 294.743926 214.62 
L 295.210231 266.06 
L 295.676535 240.34 
L 296.14284 266.06 
L 296.609144 214.62 
L 297.075449 214.62 
L 297.541753 163.18 
L 298.008058 240.34 
L 298.474362 214.62 
L 298.940666 291.78 
L 299.406971 214.62 
L 300.33958 214.62 
L 300.805884 240.34 
L 301.272189 214.62 
L 301.738493 266.06 
L 302.204798 214.62 
L 302.671102 214.62 
L 303.137407 240.34 
L 303.603711 214.62 
L 304.070016 266.06 
L 304.53632 188.9 
L 305.002625 214.62 
L 305.468929 266.06 
L 305.935234 291.78 
L 306.401538 266.06 
L 306.867842 266.06 
L 307.334147 240.34 
L 307.800451 240.34 
L 308.266756 163.18 
L 308.73306 214.62 
L 309.199365 214.62 
L 309.665669 266.06 
L 310.131974 214.62 
L 310.598278 266.06 
L 311.064583 266.06 
L 311.997192 163.18 
L 312.463496 240.34 
L 314.328714 240.34 
L 314.795018 266.06 
L 315.261323 240.34 
L 315.727627 266.06 
L 316.193932 266.06 
L 316.660236 240.34 
L 317.126541 266.06 
L 317.592845 214.62 
L 318.05915 214.62 
L 318.525454 188.9 
L 318.991759 240.34 
L 319.458063 266.06 
L 319.924368 188.9 
L 320.390672 188.9 
L 320.856977 163.18 
L 321.323281 188.9 
L 321.789586 266.06 
L 322.25589 163.18 
L 322.722195 240.34 
L 323.188499 240.34 
L 324.121108 137.46 
L 325.053717 240.34 
L 325.520021 163.18 
L 325.986326 266.06 
L 326.45263 214.62 
L 326.918935 214.62 
L 327.385239 266.06 
L 327.851544 240.34 
L 328.317848 240.34 
L 328.784153 188.9 
L 329.250457 163.18 
L 329.716762 291.78 
L 330.183066 188.9 
L 330.649371 214.62 
L 331.115675 163.18 
L 331.581979 291.78 
L 332.048284 163.18 
L 332.514588 266.06 
L 332.980893 266.06 
L 333.447197 214.62 
L 333.913502 214.62 
L 334.379806 266.06 
L 334.846111 291.78 
L 335.312415 214.62 
L 335.77872 163.18 
L 336.245024 188.9 
L 336.711329 240.34 
L 337.177633 266.06 
L 337.643938 214.62 
L 338.110242 240.34 
L 338.576547 214.62 
L 339.042851 291.78 
L 339.509155 240.34 
L 339.97546 214.62 
L 340.441764 214.62 
L 340.908069 266.06 
L 341.374373 188.9 
L 341.840678 214.62 
L 342.306982 214.62 
L 342.773287 240.34 
L 343.239591 240.34 
L 343.705896 214.62 
L 344.638505 266.06 
L 345.104809 214.62 
L 345.571114 240.34 
L 346.037418 214.62 
L 346.503723 266.06 
L 346.970027 188.9 
L 347.436331 266.06 
L 347.902636 291.78 
L 348.36894 240.34 
L 348.835245 163.18 
L 349.301549 188.9 
L 349.767854 266.06 
L 350.234158 214.62 
L 350.700463 240.34 
L 351.166767 163.18 
L 351.633072 291.78 
L 352.099376 266.06 
L 352.565681 291.78 
L 353.031985 240.34 
L 353.49829 291.78 
L 353.964594 291.78 
L 354.430899 266.06 
L 354.897203 137.46 
L 355.363508 214.62 
L 355.829812 214.62 
L 356.296116 240.34 
L 357.228725 240.34 
L 357.69503 266.06 
L 358.161334 240.34 
L 358.627639 266.06 
L 359.093943 214.62 
L 359.560248 291.78 
L 360.026552 240.34 
L 360.492857 266.06 
L 360.959161 240.34 
L 361.425466 291.78 
L 362.358075 240.34 
L 362.824379 266.06 
L 363.290684 188.9 
L 363.756988 291.78 
L 364.223292 214.62 
L 365.622206 291.78 
L 366.554815 188.9 
L 367.021119 266.06 
L 367.953728 266.06 
L 368.420033 240.34 
L 368.886337 291.78 
L 369.352642 240.34 
L 369.818946 214.62 
L 370.285251 240.34 
L 370.751555 188.9 
L 371.684164 240.34 
L 372.150468 188.9 
L 372.616773 291.78 
L 373.083077 240.34 
L 373.549382 266.06 
L 374.015686 137.46 
L 374.948295 291.78 
L 375.4146 266.06 
L 375.880904 291.78 
L 376.347209 291.78 
L 376.813513 240.34 
L 377.279818 214.62 
L 377.746122 240.34 
L 378.212427 291.78 
L 378.678731 163.18 
L 379.145036 214.62 
L 379.61134 240.34 
L 380.077644 291.78 
L 380.543949 291.78 
L 381.010253 214.62 
L 381.476558 240.34 
L 381.942862 240.34 
L 382.409167 291.78 
L 382.875471 291.78 
L 383.341776 240.34 
L 383.80808 266.06 
L 384.274385 240.34 
L 385.673298 240.34 
L 386.139603 266.06 
L 386.605907 214.62 
L 387.072212 291.78 
L 387.538516 266.06 
L 388.004821 291.78 
L 388.471125 240.34 
L 388.937429 240.34 
L 389.403734 214.62 
L 390.336343 266.06 
L 390.802647 240.34 
L 391.268952 240.34 
L 391.735256 137.46 
L 392.201561 266.06 
L 392.667865 214.62 
L 393.13417 188.9 
L 393.600474 240.34 
L 394.066779 266.06 
L 394.999388 266.06 
L 395.465692 240.34 
L 395.931997 266.06 
L 396.398301 266.06 
L 396.864605 240.34 
L 397.797214 240.34 
L 398.263519 266.06 
L 399.662432 266.06 
L 400.128737 214.62 
L 400.595041 214.62 
L 401.061346 266.06 
L 401.52765 214.62 
L 401.993955 240.34 
L 402.460259 240.34 
L 402.926564 266.06 
L 403.392868 240.34 
L 403.859173 266.06 
L 404.325477 214.62 
L 404.791781 266.06 
L 405.258086 266.06 
L 405.72439 188.9 
L 406.190695 266.06 
L 406.656999 266.06 
L 407.123304 163.18 
L 407.589608 266.06 
L 408.055913 291.78 
L 408.522217 291.78 
L 408.988522 240.34 
L 409.454826 291.78 
L 409.921131 240.34 
L 410.387435 291.78 
L 411.320044 240.34 
L 411.786349 240.34 
L 412.252653 291.78 
L 412.718958 214.62 
L 413.185262 266.06 
L 413.651566 240.34 
L 414.117871 291.78 
L 414.584175 291.78 
L 415.05048 214.62 
L 415.516784 240.34 
L 415.983089 240.34 
L 416.915698 291.78 
L 417.382002 163.18 
L 417.848307 240.34 
L 418.314611 214.62 
L 418.780916 266.06 
L 419.24722 291.78 
L 419.713525 240.34 
L 420.179829 214.62 
L 420.646134 240.34 
L 421.578742 240.34 
L 422.045047 291.78 
L 422.511351 214.62 
L 423.44396 266.06 
L 423.910265 240.34 
L 424.376569 240.34 
L 425.309178 291.78 
L 425.775483 240.34 
L 426.241787 266.06 
L 426.708092 266.06 
L 427.640701 214.62 
L 428.107005 214.62 
L 428.57331 266.06 
L 429.972223 266.06 
L 430.438527 240.34 
L 430.904832 240.34 
L 431.371136 266.06 
L 431.371136 266.06 
" clip-path="url(#p0fd793e729)" style="fill: none; stroke-dasharray: 1.85,0.8; stroke-dashoffset: 0; stroke: #80ffb4; stroke-width: 0.5"/>
   </g>
   <g id="line2d_19">
    <path d="M 58.793864 291.78 
L 158.116716 291.78 
L 158.583021 266.06 
L 159.049325 291.78 
L 163.71237 291.78 
L 164.178674 266.06 
L 164.644979 291.78 
L 170.706937 291.78 
L 171.173241 266.06 
L 171.639546 291.78 
L 173.504764 291.78 
L 173.971068 266.06 
L 174.903677 266.06 
L 175.369982 291.78 
L 176.768895 291.78 
L 177.235199 266.06 
L 177.701504 291.78 
L 180.033026 291.78 
L 180.499331 266.06 
L 180.965635 291.78 
L 181.43194 291.78 
L 181.898244 266.06 
L 182.364549 291.78 
L 183.763462 291.78 
L 184.229766 266.06 
L 184.696071 291.78 
L 185.162375 266.06 
L 185.62868 266.06 
L 186.094984 214.62 
L 186.561289 291.78 
L 187.027593 266.06 
L 188.426507 266.06 
L 188.892811 291.78 
L 189.359116 188.9 
L 189.82542 266.06 
L 190.291725 266.06 
L 190.758029 291.78 
L 191.224334 266.06 
L 191.690638 291.78 
L 192.156942 291.78 
L 192.623247 266.06 
L 193.555856 266.06 
L 194.02216 291.78 
L 194.488465 291.78 
L 194.954769 240.34 
L 195.421074 214.62 
L 195.887378 266.06 
L 196.353683 291.78 
L 196.819987 266.06 
L 197.286292 291.78 
L 197.752596 266.06 
L 198.218901 291.78 
L 198.685205 266.06 
L 199.15151 266.06 
L 199.617814 188.9 
L 200.084119 291.78 
L 200.550423 266.06 
L 201.016727 291.78 
L 201.949336 240.34 
L 202.415641 291.78 
L 203.34825 240.34 
L 203.814554 291.78 
L 204.747163 291.78 
L 205.213468 266.06 
L 205.679772 266.06 
L 206.146077 291.78 
L 207.54499 291.78 
L 208.011295 266.06 
L 208.477599 291.78 
L 208.943903 266.06 
L 211.275426 266.06 
L 211.74173 240.34 
L 212.208035 291.78 
L 212.674339 266.06 
L 213.140644 214.62 
L 213.606948 291.78 
L 215.005862 291.78 
L 215.472166 214.62 
L 215.938471 214.62 
L 216.404775 240.34 
L 216.871079 291.78 
L 217.337384 163.18 
L 217.803688 240.34 
L 218.269993 291.78 
L 218.736297 266.06 
L 219.202602 291.78 
L 219.668906 240.34 
L 220.135211 291.78 
L 221.06782 291.78 
L 221.534124 240.34 
L 222.000429 266.06 
L 222.933038 266.06 
L 223.399342 240.34 
L 223.865647 188.9 
L 224.331951 214.62 
L 224.798255 266.06 
L 225.26456 188.9 
L 225.730864 240.34 
L 226.197169 240.34 
L 226.663473 291.78 
L 227.129778 240.34 
L 227.596082 266.06 
L 228.062387 214.62 
L 228.528691 266.06 
L 228.994996 214.62 
L 229.4613 266.06 
L 229.927605 163.18 
L 230.393909 240.34 
L 230.860214 266.06 
L 231.326518 240.34 
L 231.792823 240.34 
L 232.259127 266.06 
L 232.725432 266.06 
L 233.191736 291.78 
L 233.65804 214.62 
L 234.124345 214.62 
L 234.590649 240.34 
L 235.056954 240.34 
L 235.523258 291.78 
L 235.989563 291.78 
L 236.455867 240.34 
L 237.388476 240.34 
L 237.854781 214.62 
L 238.321085 266.06 
L 238.78739 266.06 
L 239.253694 240.34 
L 239.719999 188.9 
L 240.186303 188.9 
L 240.652608 266.06 
L 241.118912 291.78 
L 241.585216 214.62 
L 242.051521 266.06 
L 242.517825 240.34 
L 242.98413 240.34 
L 243.450434 291.78 
L 243.916739 291.78 
L 244.383043 266.06 
L 244.849348 266.06 
L 245.315652 240.34 
L 246.248261 291.78 
L 247.647175 214.62 
L 248.113479 291.78 
L 248.579784 214.62 
L 249.046088 291.78 
L 249.512392 240.34 
L 249.978697 266.06 
L 250.445001 266.06 
L 250.911306 214.62 
L 251.37761 266.06 
L 251.843915 240.34 
L 252.310219 240.34 
L 252.776524 291.78 
L 253.242828 214.62 
L 253.709133 188.9 
L 254.175437 291.78 
L 254.641742 266.06 
L 255.108046 188.9 
L 255.574351 214.62 
L 256.040655 266.06 
L 256.50696 240.34 
L 256.973264 266.06 
L 257.439568 240.34 
L 257.905873 266.06 
L 258.372177 266.06 
L 258.838482 214.62 
L 259.304786 240.34 
L 259.771091 240.34 
L 260.237395 291.78 
L 261.170004 188.9 
L 261.636309 214.62 
L 262.102613 266.06 
L 262.568918 266.06 
L 263.035222 240.34 
L 263.501527 188.9 
L 263.967831 240.34 
L 264.434136 214.62 
L 264.90044 163.18 
L 265.366745 86.02 
L 265.833049 214.62 
L 266.765658 163.18 
L 267.231962 240.34 
L 267.698267 240.34 
L 268.164571 266.06 
L 268.630876 240.34 
L 269.563485 240.34 
L 270.029789 266.06 
L 270.962398 266.06 
L 271.895007 214.62 
L 272.361312 214.62 
L 272.827616 266.06 
L 273.293921 240.34 
L 273.760225 240.34 
L 274.226529 163.18 
L 274.692834 240.34 
L 275.625443 188.9 
L 276.091747 188.9 
L 276.558052 137.46 
L 277.024356 291.78 
L 277.490661 266.06 
L 277.956965 291.78 
L 278.42327 266.06 
L 278.889574 163.18 
L 279.355879 266.06 
L 280.288488 266.06 
L 280.754792 291.78 
L 281.221097 266.06 
L 281.687401 214.62 
L 282.153705 240.34 
L 283.552619 240.34 
L 284.018923 266.06 
L 284.485228 266.06 
L 284.951532 163.18 
L 285.417837 188.9 
L 285.884141 240.34 
L 286.350446 163.18 
L 286.81675 266.06 
L 287.283055 240.34 
L 287.749359 266.06 
L 288.215664 214.62 
L 288.681968 214.62 
L 289.148273 266.06 
L 289.614577 266.06 
L 290.080881 214.62 
L 291.01349 163.18 
L 291.479795 188.9 
L 291.946099 188.9 
L 292.412404 240.34 
L 292.878708 240.34 
L 293.345013 266.06 
L 293.811317 188.9 
L 294.277622 240.34 
L 294.743926 214.62 
L 295.676535 266.06 
L 296.14284 240.34 
L 296.609144 240.34 
L 297.075449 266.06 
L 297.541753 137.46 
L 298.008058 214.62 
L 298.474362 163.18 
L 298.940666 266.06 
L 300.33958 266.06 
L 300.805884 240.34 
L 301.272189 188.9 
L 301.738493 240.34 
L 302.204798 163.18 
L 302.671102 214.62 
L 303.137407 137.46 
L 303.603711 214.62 
L 304.070016 240.34 
L 304.53632 214.62 
L 305.002625 266.06 
L 305.468929 240.34 
L 305.935234 240.34 
L 306.401538 266.06 
L 306.867842 240.34 
L 307.334147 240.34 
L 307.800451 266.06 
L 308.266756 240.34 
L 308.73306 291.78 
L 309.665669 240.34 
L 310.131974 163.18 
L 310.598278 137.46 
L 311.064583 240.34 
L 311.530887 266.06 
L 311.997192 240.34 
L 312.463496 240.34 
L 312.929801 266.06 
L 313.396105 240.34 
L 314.328714 240.34 
L 314.795018 266.06 
L 315.261323 214.62 
L 315.727627 188.9 
L 316.193932 291.78 
L 317.126541 137.46 
L 317.592845 266.06 
L 318.05915 291.78 
L 318.525454 266.06 
L 318.991759 214.62 
L 319.924368 266.06 
L 320.390672 240.34 
L 320.856977 266.06 
L 321.323281 188.9 
L 321.789586 240.34 
L 322.25589 240.34 
L 322.722195 266.06 
L 323.188499 214.62 
L 323.654803 266.06 
L 324.587412 266.06 
L 325.053717 214.62 
L 325.520021 188.9 
L 325.986326 266.06 
L 326.45263 266.06 
L 326.918935 188.9 
L 327.385239 240.34 
L 327.851544 240.34 
L 328.317848 214.62 
L 328.784153 291.78 
L 329.250457 266.06 
L 329.716762 291.78 
L 330.183066 188.9 
L 330.649371 291.78 
L 331.115675 214.62 
L 331.581979 266.06 
L 332.048284 266.06 
L 332.514588 240.34 
L 332.980893 266.06 
L 333.447197 266.06 
L 333.913502 163.18 
L 334.379806 266.06 
L 334.846111 214.62 
L 335.312415 188.9 
L 335.77872 214.62 
L 336.245024 188.9 
L 336.711329 266.06 
L 337.177633 266.06 
L 337.643938 240.34 
L 338.110242 188.9 
L 338.576547 214.62 
L 339.509155 163.18 
L 339.97546 214.62 
L 340.908069 214.62 
L 341.374373 240.34 
L 341.840678 291.78 
L 342.306982 266.06 
L 342.773287 266.06 
L 343.239591 163.18 
L 343.705896 240.34 
L 344.638505 291.78 
L 345.571114 188.9 
L 346.037418 240.34 
L 346.503723 214.62 
L 346.970027 266.06 
L 347.902636 214.62 
L 348.36894 266.06 
L 349.301549 266.06 
L 349.767854 214.62 
L 350.234158 240.34 
L 350.700463 188.9 
L 351.166767 188.9 
L 351.633072 240.34 
L 352.099376 188.9 
L 352.565681 266.06 
L 353.031985 291.78 
L 353.49829 214.62 
L 353.964594 266.06 
L 354.430899 266.06 
L 354.897203 240.34 
L 355.363508 266.06 
L 355.829812 266.06 
L 356.296116 291.78 
L 356.762421 266.06 
L 357.228725 214.62 
L 357.69503 240.34 
L 358.161334 214.62 
L 358.627639 240.34 
L 359.093943 240.34 
L 360.026552 291.78 
L 360.492857 240.34 
L 360.959161 266.06 
L 361.425466 240.34 
L 361.89177 266.06 
L 362.358075 240.34 
L 363.290684 291.78 
L 363.756988 240.34 
L 364.223292 266.06 
L 364.689597 266.06 
L 365.155901 291.78 
L 365.622206 266.06 
L 366.08851 266.06 
L 367.021119 214.62 
L 367.487424 266.06 
L 367.953728 240.34 
L 368.420033 163.18 
L 369.352642 266.06 
L 370.285251 214.62 
L 370.751555 240.34 
L 371.21786 291.78 
L 371.684164 266.06 
L 372.150468 291.78 
L 372.616773 266.06 
L 373.083077 291.78 
L 374.015686 240.34 
L 374.481991 266.06 
L 374.948295 240.34 
L 375.4146 240.34 
L 375.880904 163.18 
L 376.813513 266.06 
L 377.279818 214.62 
L 378.212427 266.06 
L 378.678731 214.62 
L 379.61134 214.62 
L 380.077644 266.06 
L 380.543949 240.34 
L 381.010253 291.78 
L 381.476558 214.62 
L 381.942862 240.34 
L 383.341776 240.34 
L 383.80808 214.62 
L 384.274385 266.06 
L 384.740689 291.78 
L 385.206994 291.78 
L 385.673298 188.9 
L 386.139603 266.06 
L 386.605907 291.78 
L 387.072212 214.62 
L 387.538516 214.62 
L 388.004821 137.46 
L 388.471125 266.06 
L 388.937429 266.06 
L 389.403734 291.78 
L 389.870038 214.62 
L 390.336343 214.62 
L 390.802647 240.34 
L 391.268952 240.34 
L 392.201561 291.78 
L 392.667865 266.06 
L 393.13417 266.06 
L 393.600474 291.78 
L 394.066779 291.78 
L 394.533083 188.9 
L 395.465692 240.34 
L 396.398301 188.9 
L 396.864605 266.06 
L 397.33091 214.62 
L 397.797214 240.34 
L 398.263519 240.34 
L 399.196128 291.78 
L 399.662432 240.34 
L 400.128737 266.06 
L 401.52765 266.06 
L 401.993955 291.78 
L 402.460259 240.34 
L 402.926564 214.62 
L 403.392868 214.62 
L 403.859173 188.9 
L 404.791781 240.34 
L 405.258086 214.62 
L 405.72439 266.06 
L 406.656999 266.06 
L 407.123304 240.34 
L 407.589608 291.78 
L 408.055913 266.06 
L 409.921131 266.06 
L 411.320044 188.9 
L 411.786349 291.78 
L 412.252653 240.34 
L 412.718958 291.78 
L 413.185262 163.18 
L 413.651566 240.34 
L 414.117871 266.06 
L 414.584175 214.62 
L 415.05048 240.34 
L 415.516784 240.34 
L 415.983089 214.62 
L 416.449393 266.06 
L 417.848307 266.06 
L 418.314611 291.78 
L 418.780916 266.06 
L 419.24722 214.62 
L 419.713525 291.78 
L 420.179829 188.9 
L 420.646134 291.78 
L 421.112438 240.34 
L 421.578742 214.62 
L 422.045047 214.62 
L 422.511351 266.06 
L 422.977656 240.34 
L 423.44396 291.78 
L 423.910265 240.34 
L 424.376569 240.34 
L 424.842874 163.18 
L 425.309178 240.34 
L 425.775483 291.78 
L 426.241787 266.06 
L 426.708092 291.78 
L 427.174396 240.34 
L 427.640701 240.34 
L 428.107005 214.62 
L 428.57331 266.06 
L 429.039614 188.9 
L 429.505918 266.06 
L 429.972223 266.06 
L 430.438527 240.34 
L 430.904832 266.06 
L 431.371136 266.06 
L 431.371136 266.06 
" clip-path="url(#p0fd793e729)" style="fill: none; stroke-dasharray: 1.85,0.8; stroke-dashoffset: 0; stroke: #ffb360; stroke-width: 0.5"/>
   </g>
   <g id="line2d_20">
    <path d="M 58.793864 291.78 
L 162.313456 291.78 
L 162.779761 266.06 
L 163.246065 291.78 
L 174.437373 291.78 
L 174.903677 266.06 
L 175.369982 291.78 
L 180.033026 291.78 
L 180.965635 240.34 
L 181.43194 291.78 
L 181.898244 291.78 
L 182.364549 240.34 
L 183.297158 291.78 
L 186.561289 291.78 
L 187.493898 240.34 
L 187.960202 291.78 
L 188.426507 291.78 
L 188.892811 266.06 
L 189.359116 291.78 
L 190.291725 291.78 
L 190.758029 266.06 
L 191.224334 266.06 
L 191.690638 291.78 
L 192.156942 291.78 
L 192.623247 266.06 
L 193.089551 291.78 
L 195.887378 291.78 
L 196.353683 266.06 
L 196.819987 291.78 
L 197.286292 266.06 
L 197.752596 291.78 
L 198.685205 240.34 
L 199.15151 266.06 
L 199.617814 266.06 
L 200.084119 291.78 
L 200.550423 266.06 
L 202.415641 266.06 
L 202.881945 291.78 
L 203.34825 240.34 
L 203.814554 291.78 
L 204.280859 291.78 
L 204.747163 266.06 
L 205.213468 291.78 
L 205.679772 240.34 
L 206.146077 291.78 
L 206.612381 291.78 
L 207.078686 214.62 
L 207.54499 214.62 
L 208.011295 291.78 
L 209.410208 291.78 
L 209.876512 266.06 
L 210.342817 291.78 
L 210.809121 240.34 
L 211.275426 240.34 
L 211.74173 266.06 
L 212.208035 240.34 
L 213.140644 291.78 
L 213.606948 291.78 
L 214.073253 240.34 
L 214.539557 291.78 
L 215.005862 266.06 
L 215.472166 291.78 
L 216.871079 214.62 
L 217.337384 266.06 
L 217.803688 291.78 
L 218.269993 240.34 
L 219.202602 240.34 
L 219.668906 266.06 
L 220.135211 240.34 
L 220.601515 188.9 
L 221.06782 266.06 
L 221.534124 291.78 
L 222.000429 163.18 
L 222.466733 266.06 
L 222.933038 240.34 
L 223.399342 240.34 
L 223.865647 214.62 
L 224.331951 291.78 
L 224.798255 291.78 
L 225.26456 266.06 
L 225.730864 291.78 
L 226.197169 188.9 
L 226.663473 214.62 
L 227.129778 188.9 
L 227.596082 291.78 
L 228.062387 266.06 
L 228.528691 291.78 
L 228.994996 188.9 
L 229.4613 291.78 
L 229.927605 266.06 
L 230.393909 266.06 
L 230.860214 240.34 
L 231.792823 291.78 
L 232.259127 240.34 
L 232.725432 266.06 
L 233.65804 266.06 
L 234.124345 214.62 
L 234.590649 214.62 
L 235.056954 240.34 
L 235.989563 240.34 
L 236.455867 291.78 
L 236.922172 240.34 
L 237.388476 240.34 
L 237.854781 266.06 
L 238.321085 240.34 
L 238.78739 266.06 
L 239.253694 266.06 
L 239.719999 188.9 
L 240.186303 291.78 
L 240.652608 266.06 
L 241.118912 214.62 
L 242.051521 214.62 
L 242.517825 291.78 
L 242.98413 266.06 
L 243.450434 214.62 
L 243.916739 266.06 
L 244.383043 188.9 
L 244.849348 240.34 
L 245.315652 266.06 
L 245.781957 188.9 
L 246.714566 291.78 
L 247.18087 188.9 
L 247.647175 291.78 
L 248.113479 240.34 
L 248.579784 291.78 
L 249.046088 214.62 
L 249.512392 214.62 
L 249.978697 266.06 
L 250.445001 291.78 
L 250.911306 240.34 
L 251.37761 214.62 
L 251.843915 214.62 
L 252.310219 266.06 
L 252.776524 266.06 
L 253.242828 291.78 
L 253.709133 240.34 
L 254.641742 240.34 
L 255.108046 214.62 
L 255.574351 266.06 
L 256.040655 240.34 
L 256.50696 240.34 
L 256.973264 188.9 
L 257.439568 266.06 
L 257.905873 240.34 
L 258.372177 240.34 
L 258.838482 266.06 
L 259.304786 266.06 
L 259.771091 214.62 
L 260.237395 188.9 
L 260.7037 240.34 
L 261.170004 240.34 
L 261.636309 214.62 
L 262.102613 266.06 
L 262.568918 214.62 
L 263.035222 266.06 
L 263.501527 188.9 
L 263.967831 240.34 
L 264.434136 266.06 
L 264.90044 266.06 
L 265.366745 240.34 
L 265.833049 291.78 
L 266.299353 266.06 
L 266.765658 266.06 
L 267.231962 163.18 
L 267.698267 291.78 
L 268.164571 291.78 
L 268.630876 214.62 
L 269.09718 266.06 
L 269.563485 240.34 
L 270.029789 291.78 
L 270.496094 240.34 
L 270.962398 240.34 
L 271.428703 266.06 
L 271.895007 266.06 
L 272.361312 240.34 
L 273.293921 240.34 
L 273.760225 214.62 
L 274.226529 240.34 
L 274.692834 163.18 
L 275.159138 214.62 
L 275.625443 163.18 
L 276.091747 188.9 
L 276.558052 291.78 
L 277.024356 240.34 
L 277.490661 266.06 
L 277.956965 188.9 
L 278.42327 240.34 
L 278.889574 163.18 
L 279.822183 266.06 
L 280.288488 266.06 
L 280.754792 240.34 
L 281.221097 291.78 
L 281.687401 214.62 
L 282.62001 266.06 
L 283.086314 240.34 
L 283.552619 240.34 
L 284.018923 291.78 
L 284.485228 266.06 
L 285.417837 266.06 
L 285.884141 86.02 
L 286.350446 240.34 
L 286.81675 240.34 
L 287.283055 163.18 
L 287.749359 266.06 
L 288.681968 214.62 
L 289.148273 266.06 
L 289.614577 214.62 
L 290.080881 240.34 
L 290.547186 188.9 
L 291.01349 240.34 
L 291.479795 163.18 
L 291.946099 266.06 
L 292.412404 137.46 
L 292.878708 214.62 
L 293.345013 188.9 
L 293.811317 188.9 
L 294.277622 240.34 
L 294.743926 214.62 
L 295.210231 240.34 
L 295.676535 291.78 
L 296.14284 291.78 
L 296.609144 266.06 
L 297.075449 214.62 
L 297.541753 137.46 
L 298.008058 240.34 
L 298.474362 163.18 
L 298.940666 240.34 
L 299.873275 188.9 
L 300.805884 291.78 
L 301.272189 240.34 
L 301.738493 240.34 
L 302.204798 266.06 
L 302.671102 214.62 
L 303.137407 137.46 
L 303.603711 266.06 
L 304.070016 240.34 
L 304.53632 240.34 
L 305.002625 266.06 
L 305.468929 214.62 
L 305.935234 266.06 
L 306.401538 214.62 
L 306.867842 266.06 
L 307.800451 266.06 
L 308.266756 214.62 
L 308.73306 266.06 
L 309.199365 214.62 
L 309.665669 214.62 
L 310.131974 111.74 
L 310.598278 240.34 
L 311.530887 137.46 
L 311.997192 240.34 
L 312.463496 240.34 
L 312.929801 214.62 
L 313.396105 163.18 
L 313.86241 266.06 
L 314.328714 188.9 
L 314.795018 266.06 
L 315.261323 240.34 
L 315.727627 266.06 
L 316.193932 188.9 
L 316.660236 266.06 
L 317.126541 240.34 
L 317.592845 291.78 
L 318.05915 240.34 
L 318.525454 266.06 
L 319.458063 266.06 
L 319.924368 240.34 
L 320.390672 291.78 
L 321.323281 291.78 
L 321.789586 188.9 
L 322.25589 266.06 
L 323.188499 214.62 
L 323.654803 214.62 
L 324.121108 188.9 
L 325.520021 266.06 
L 325.986326 240.34 
L 326.45263 163.18 
L 326.918935 137.46 
L 327.385239 214.62 
L 327.851544 266.06 
L 328.317848 266.06 
L 328.784153 291.78 
L 329.250457 240.34 
L 329.716762 240.34 
L 330.183066 214.62 
L 330.649371 291.78 
L 331.115675 291.78 
L 332.048284 240.34 
L 332.514588 240.34 
L 332.980893 266.06 
L 333.447197 266.06 
L 334.379806 214.62 
L 334.846111 214.62 
L 335.312415 291.78 
L 335.77872 214.62 
L 336.245024 266.06 
L 336.711329 214.62 
L 338.110242 214.62 
L 338.576547 240.34 
L 339.042851 291.78 
L 339.509155 188.9 
L 340.441764 240.34 
L 340.908069 188.9 
L 341.374373 214.62 
L 341.840678 291.78 
L 342.306982 240.34 
L 342.773287 266.06 
L 343.239591 188.9 
L 343.705896 240.34 
L 344.638505 188.9 
L 345.104809 266.06 
L 345.571114 291.78 
L 346.037418 266.06 
L 346.503723 214.62 
L 346.970027 240.34 
L 347.436331 188.9 
L 348.36894 291.78 
L 349.301549 137.46 
L 349.767854 266.06 
L 350.234158 266.06 
L 350.700463 163.18 
L 351.166767 266.06 
L 352.099376 266.06 
L 352.565681 214.62 
L 353.031985 240.34 
L 353.49829 240.34 
L 353.964594 214.62 
L 354.430899 240.34 
L 354.897203 240.34 
L 355.363508 266.06 
L 355.829812 214.62 
L 356.762421 266.06 
L 357.228725 266.06 
L 357.69503 240.34 
L 358.161334 240.34 
L 358.627639 214.62 
L 359.093943 291.78 
L 359.560248 188.9 
L 360.026552 214.62 
L 360.492857 163.18 
L 360.959161 240.34 
L 361.425466 214.62 
L 361.89177 291.78 
L 362.824379 291.78 
L 363.290684 266.06 
L 363.756988 291.78 
L 364.223292 266.06 
L 364.689597 214.62 
L 365.622206 266.06 
L 366.08851 240.34 
L 366.554815 240.34 
L 367.021119 266.06 
L 367.953728 214.62 
L 368.420033 214.62 
L 369.352642 266.06 
L 369.818946 214.62 
L 370.285251 291.78 
L 370.751555 266.06 
L 371.21786 266.06 
L 372.150468 214.62 
L 372.616773 214.62 
L 373.083077 188.9 
L 373.549382 266.06 
L 374.015686 291.78 
L 374.481991 240.34 
L 374.948295 240.34 
L 375.4146 291.78 
L 375.880904 291.78 
L 376.347209 266.06 
L 376.813513 214.62 
L 378.212427 291.78 
L 378.678731 291.78 
L 379.145036 240.34 
L 379.61134 240.34 
L 380.543949 291.78 
L 381.010253 214.62 
L 381.476558 240.34 
L 381.942862 214.62 
L 382.409167 240.34 
L 382.875471 214.62 
L 383.341776 240.34 
L 383.80808 240.34 
L 384.274385 266.06 
L 384.740689 266.06 
L 385.206994 163.18 
L 385.673298 240.34 
L 386.139603 291.78 
L 386.605907 266.06 
L 387.072212 291.78 
L 387.538516 266.06 
L 388.004821 291.78 
L 388.471125 240.34 
L 389.403734 240.34 
L 389.870038 266.06 
L 390.802647 266.06 
L 391.268952 291.78 
L 391.735256 163.18 
L 392.201561 291.78 
L 392.667865 240.34 
L 393.13417 240.34 
L 393.600474 291.78 
L 394.533083 291.78 
L 394.999388 214.62 
L 395.465692 188.9 
L 395.931997 266.06 
L 396.398301 188.9 
L 396.864605 291.78 
L 397.33091 214.62 
L 397.797214 291.78 
L 398.729823 291.78 
L 399.196128 266.06 
L 399.662432 266.06 
L 400.128737 291.78 
L 400.595041 291.78 
L 401.061346 266.06 
L 401.52765 291.78 
L 401.993955 240.34 
L 402.460259 266.06 
L 402.926564 214.62 
L 403.392868 266.06 
L 403.859173 240.34 
L 404.325477 188.9 
L 404.791781 188.9 
L 405.258086 240.34 
L 405.72439 214.62 
L 406.190695 291.78 
L 406.656999 291.78 
L 407.123304 240.34 
L 407.589608 291.78 
L 408.055913 240.34 
L 408.522217 240.34 
L 408.988522 266.06 
L 409.454826 266.06 
L 409.921131 214.62 
L 411.320044 214.62 
L 412.252653 266.06 
L 413.185262 266.06 
L 413.651566 240.34 
L 414.117871 240.34 
L 414.584175 291.78 
L 415.05048 214.62 
L 415.516784 266.06 
L 415.983089 240.34 
L 416.915698 291.78 
L 417.382002 291.78 
L 417.848307 266.06 
L 418.314611 266.06 
L 418.780916 240.34 
L 419.24722 266.06 
L 420.179829 266.06 
L 420.646134 291.78 
L 421.112438 266.06 
L 421.578742 266.06 
L 422.045047 214.62 
L 422.511351 240.34 
L 422.977656 240.34 
L 423.44396 214.62 
L 423.910265 240.34 
L 424.376569 188.9 
L 424.842874 214.62 
L 425.309178 291.78 
L 425.775483 240.34 
L 426.241787 266.06 
L 426.708092 266.06 
L 427.174396 291.78 
L 427.640701 214.62 
L 428.107005 214.62 
L 428.57331 291.78 
L 429.039614 214.62 
L 429.505918 266.06 
L 429.972223 188.9 
L 430.438527 266.06 
L 430.904832 291.78 
L 431.371136 266.06 
L 431.371136 266.06 
" clip-path="url(#p0fd793e729)" style="fill: none; stroke-dasharray: 1.85,0.8; stroke-dashoffset: 0; stroke: #ff0000; stroke-width: 0.5"/>
   </g>
   <g id="patch_3">
    <path d="M 40.165 304.64 
L 40.165 21.72 
" style="fill: none; stroke: #000000; stroke-width: 0.8; stroke-linejoin: miter; stroke-linecap: square"/>
   </g>
   <g id="patch_4">
    <path d="M 450 304.64 
L 450 21.72 
" style="fill: none; stroke: #000000; stroke-width: 0.8; stroke-linejoin: miter; stroke-linecap: square"/>
   </g>
   <g id="patch_5">
    <path d="M 40.165 304.64 
L 450 304.64 
" style="fill: none; stroke: #000000; stroke-width: 0.8; stroke-linejoin: miter; stroke-linecap: square"/>
   </g>
   <g id="patch_6">
    <path d="M 40.165 21.72 
L 450 21.72 
" style="fill: none; stroke: #000000; stroke-width: 0.8; stroke-linejoin: miter; stroke-linecap: square"/>
   </g>
   <g id="text_18">
    <!-- Heating Rate ($^{\circ}C.s^{-1}$) -->
    <g transform="translate(286.066 50.012) scale(0.12 -0.12)">
     <defs>
      <path id="DejaVuSans-48" d="M 628 4666 
L 1259 4666 
L 1259 2753 
L 3553 2753 
L 3553 4666 
L 4184 4666 
L 4184 0 
L 3553 0 
L 3553 2222 
L 1259 2222 
L 1259 0 
L 628 0 
L 628 4666 
z
" transform="scale(0.015625)"/>
      <path id="DejaVuSans-67" d="M 2906 1791 
Q 2906 2416 2648 2759 
Q 2391 3103 1925 3103 
Q 1463 3103 1205 2759 
Q 947 2416 947 1791 
Q 947 1169 1205 825 
Q 1463 481 1925 481 
Q 2391 481 2648 825 
Q 2906 1169 2906 1791 
z
M 3481 434 
Q 3481 -459 3084 -895 
Q 2688 -1331 1869 -1331 
Q 1566 -1331 1297 -1286 
Q 1028 -1241 775 -1147 
L 775 -588 
Q 1028 -725 1275 -790 
Q 1522 -856 1778 -856 
Q 2344 -856 2625 -561 
Q 2906 -266 2906 331 
L 2906 616 
Q 2728 306 2450 153 
Q 2172 0 1784 0 
Q 1141 0 747 490 
Q 353 981 353 1791 
Q 353 2603 747 3093 
Q 1141 3584 1784 3584 
Q 2172 3584 2450 3431 
Q 2728 3278 2906 2969 
L 2906 3500 
L 3481 3500 
L 3481 434 
z
" transform="scale(0.015625)"/>
      <path id="DejaVuSans-52" d="M 2841 2188 
Q 3044 2119 3236 1894 
Q 3428 1669 3622 1275 
L 4263 0 
L 3584 0 
L 2988 1197 
Q 2756 1666 2539 1819 
Q 2322 1972 1947 1972 
L 1259 1972 
L 1259 0 
L 628 0 
L 628 4666 
L 2053 4666 
Q 2853 4666 3247 4331 
Q 3641 3997 3641 3322 
Q 3641 2881 3436 2590 
Q 3231 2300 2841 2188 
z
M 1259 4147 
L 1259 2491 
L 2053 2491 
Q 2509 2491 2742 2702 
Q 2975 2913 2975 3322 
Q 2975 3731 2742 3939 
Q 2509 4147 2053 4147 
L 1259 4147 
z
" transform="scale(0.015625)"/>
      <path id="DejaVuSans-2e" d="M 684 794 
L 1344 794 
L 1344 0 
L 684 0 
L 684 794 
z
" transform="scale(0.015625)"/>
      <path id="DejaVuSans-Oblique-73" d="M 3200 3397 
L 3091 2853 
Q 2863 2978 2609 3040 
Q 2356 3103 2088 3103 
Q 1634 3103 1373 2948 
Q 1113 2794 1113 2528 
Q 1113 2219 1719 2053 
Q 1766 2041 1788 2034 
L 1972 1978 
Q 2547 1819 2739 1644 
Q 2931 1469 2931 1166 
Q 2931 609 2489 259 
Q 2047 -91 1331 -91 
Q 1053 -91 747 -37 
Q 441 16 72 128 
L 184 722 
Q 500 559 806 475 
Q 1113 391 1394 391 
Q 1816 391 2080 572 
Q 2344 753 2344 1031 
Q 2344 1331 1650 1516 
L 1591 1531 
L 1394 1581 
Q 956 1697 753 1886 
Q 550 2075 550 2369 
Q 550 2928 970 3256 
Q 1391 3584 2113 3584 
Q 2397 3584 2667 3537 
Q 2938 3491 3200 3397 
z
" transform="scale(0.015625)"/>
     </defs>
     <use xlink:href="#DejaVuSans-48" transform="translate(0 0.684375)"/>
     <use xlink:href="#DejaVuSans-65" transform="translate(75.195312 0.684375)"/>
     <use xlink:href="#DejaVuSans-61" transform="translate(136.71875 0.684375)"/>
     <use xlink:href="#DejaVuSans-74" transform="translate(197.998047 0.684375)"/>
     <use xlink:href="#DejaVuSans-69" transform="translate(237.207031 0.684375)"/>
     <use xlink:href="#DejaVuSans-6e" transform="translate(264.990234 0.684375)"/>
     <use xlink:href="#DejaVuSans-67" transform="translate(328.369141 0.684375)"/>
     <use xlink:href="#DejaVuSans-20" transform="translate(391.845703 0.684375)"/>
     <use xlink:href="#DejaVuSans-52" transform="translate(423.632812 0.684375)"/>
     <use xlink:href="#DejaVuSans-61" transform="translate(493.115234 0.684375)"/>
     <use xlink:href="#DejaVuSans-74" transform="translate(554.394531 0.684375)"/>
     <use xlink:href="#DejaVuSans-65" transform="translate(593.603516 0.684375)"/>
     <use xlink:href="#DejaVuSans-20" transform="translate(655.126953 0.684375)"/>
     <use xlink:href="#DejaVuSans-28" transform="translate(686.914062 0.684375)"/>
     <use xlink:href="#DejaVuSans-2218" transform="translate(726.884766 38.965625) scale(0.7)"/>
     <use xlink:href="#DejaVuSans-Oblique-43" transform="translate(773.4375 0.684375)"/>
     <use xlink:href="#DejaVuSans-2e" transform="translate(843.261719 0.684375)"/>
     <use xlink:href="#DejaVuSans-Oblique-73" transform="translate(894.53125 0.684375)"/>
     <use xlink:href="#DejaVuSans-2212" transform="translate(951.280755 38.965625) scale(0.7)"/>
     <use xlink:href="#DejaVuSans-31" transform="translate(1009.933099 38.965625) scale(0.7)"/>
     <use xlink:href="#DejaVuSans-29" transform="translate(1057.203607 0.684375)"/>
    </g>
   </g>
   <g id="legend_1">
    <g id="patch_7">
     <path d="M 334.0495 131.402625 
L 381.952625 131.402625 
Q 383.952625 131.402625 383.952625 129.402625 
L 383.952625 57.012 
Q 383.952625 55.012 381.952625 55.012 
L 334.0495 55.012 
Q 332.0495 55.012 332.0495 57.012 
L 332.0495 129.402625 
Q 332.0495 131.402625 334.0495 131.402625 
z
" style="fill: #ffffff; opacity: 0.8; stroke: #cccccc; stroke-linejoin: miter"/>
    </g>
    <g id="line2d_21">
     <path d="M 336.0495 63.110437 
L 346.0495 63.110437 
L 356.0495 63.110437 
" style="fill: none; stroke-dasharray: 1.85,0.8; stroke-dashoffset: 0; stroke: #8000ff; stroke-width: 0.5"/>
    </g>
    <g id="text_19">
     <!-- 0.1 -->
     <g transform="translate(364.0495 66.610437) scale(0.1 -0.1)">
      <use xlink:href="#DejaVuSans-30"/>
      <use xlink:href="#DejaVuSans-2e" transform="translate(63.623047 0)"/>
      <use xlink:href="#DejaVuSans-31" transform="translate(95.410156 0)"/>
     </g>
    </g>
    <g id="line2d_22">
     <path d="M 336.0495 77.788563 
L 346.0495 77.788563 
L 356.0495 77.788563 
" style="fill: none; stroke-dasharray: 1.85,0.8; stroke-dashoffset: 0; stroke: #00b5eb; stroke-width: 0.5"/>
    </g>
    <g id="text_20">
     <!-- 1 -->
     <g transform="translate(364.0495 81.288563) scale(0.1 -0.1)">
      <use xlink:href="#DejaVuSans-31"/>
     </g>
    </g>
    <g id="line2d_23">
     <path d="M 336.0495 92.466687 
L 346.0495 92.466687 
L 356.0495 92.466687 
" style="fill: none; stroke-dasharray: 1.85,0.8; stroke-dashoffset: 0; stroke: #80ffb4; stroke-width: 0.5"/>
    </g>
    <g id="text_21">
     <!-- 5 -->
     <g transform="translate(364.0495 95.966687) scale(0.1 -0.1)">
      <use xlink:href="#DejaVuSans-35"/>
     </g>
    </g>
    <g id="line2d_24">
     <path d="M 336.0495 107.144813 
L 346.0495 107.144813 
L 356.0495 107.144813 
" style="fill: none; stroke-dasharray: 1.85,0.8; stroke-dashoffset: 0; stroke: #ffb360; stroke-width: 0.5"/>
    </g>
    <g id="text_22">
     <!-- 10 -->
     <g transform="translate(364.0495 110.644813) scale(0.1 -0.1)">
      <use xlink:href="#DejaVuSans-31"/>
      <use xlink:href="#DejaVuSans-30" transform="translate(63.623047 0)"/>
     </g>
    </g>
    <g id="line2d_25">
     <path d="M 336.0495 121.822937 
L 346.0495 121.822937 
L 356.0495 121.822937 
" style="fill: none; stroke-dasharray: 1.85,0.8; stroke-dashoffset: 0; stroke: #ff0000; stroke-width: 0.5"/>
    </g>
    <g id="text_23">
     <!-- 20 -->
     <g transform="translate(364.0495 125.322937) scale(0.1 -0.1)">
      <use xlink:href="#DejaVuSans-32"/>
      <use xlink:href="#DejaVuSans-30" transform="translate(63.623047 0)"/>
     </g>
    </g>
   </g>
  </g>
 </g>
 <defs>
  <clipPath id="p0fd793e729">
   <rect x="40.165" y="21.72" width="409.835" height="282.92"/>
  </clipPath>
 </defs>
</svg>
