<?xml version="1.0" encoding="utf-8" standalone="no"?>
<!DOCTYPE svg PUBLIC "-//W3C//DTD SVG 1.1//EN"
  "http://www.w3.org/Graphics/SVG/1.1/DTD/svg11.dtd">
<svg xmlns:xlink="http://www.w3.org/1999/xlink" width="460.8pt" height="345.6pt" viewBox="0 0 460.8 345.6" xmlns="http://www.w3.org/2000/svg" version="1.1">
 <metadata>
  <rdf:RDF xmlns:dc="http://purl.org/dc/elements/1.1/" xmlns:cc="http://creativecommons.org/ns#" xmlns:rdf="http://www.w3.org/1999/02/22-rdf-syntax-ns#">
   <cc:Work>
    <dc:type rdf:resource="http://purl.org/dc/dcmitype/StillImage"/>
    <dc:date>2025-03-04T12:05:06.523294</dc:date>
    <dc:format>image/svg+xml</dc:format>
    <dc:creator>
     <cc:Agent>
      <dc:title>Matplotlib v3.10.0, https://matplotlib.org/</dc:title>
     </cc:Agent>
    </dc:creator>
   </cc:Work>
  </rdf:RDF>
 </metadata>
 <defs>
  <style type="text/css">*{stroke-linejoin: round; stroke-linecap: butt}</style>
 </defs>
 <g id="figure_1">
  <g id="patch_1">
   <path d="M 0 345.6 
L 460.8 345.6 
L 460.8 0 
L 0 0 
z
" style="fill: #ffffff"/>
  </g>
  <g id="axes_1">
   <g id="patch_2">
    <path d="M 57.6 307.584 
L 414.72 307.584 
L 414.72 41.472 
L 57.6 41.472 
z
" style="fill: #ffffff"/>
   </g>
   <g id="matplotlib.axis_1">
    <g id="xtick_1">
     <g id="line2d_1">
      <defs>
       <path id="mf49ee167df" d="M 0 0 
L 0 3.5 
" style="stroke: #000000; stroke-width: 0.8"/>
      </defs>
      <g>
       <use xlink:href="#mf49ee167df" x="73.832727" y="307.584" style="stroke: #000000; stroke-width: 0.8"/>
      </g>
     </g>
     <g id="text_1">
      <!-- 0 -->
      <g transform="translate(70.651477 322.182437) scale(0.1 -0.1)">
       <defs>
        <path id="DejaVuSans-30" d="M 2034 4250 
Q 1547 4250 1301 3770 
Q 1056 3291 1056 2328 
Q 1056 1369 1301 889 
Q 1547 409 2034 409 
Q 2525 409 2770 889 
Q 3016 1369 3016 2328 
Q 3016 3291 2770 3770 
Q 2525 4250 2034 4250 
z
M 2034 4750 
Q 2819 4750 3233 4129 
Q 3647 3509 3647 2328 
Q 3647 1150 3233 529 
Q 2819 -91 2034 -91 
Q 1250 -91 836 529 
Q 422 1150 422 2328 
Q 422 3509 836 4129 
Q 1250 4750 2034 4750 
z
" transform="scale(0.015625)"/>
       </defs>
       <use xlink:href="#DejaVuSans-30"/>
      </g>
     </g>
    </g>
    <g id="xtick_2">
     <g id="line2d_2">
      <g>
       <use xlink:href="#mf49ee167df" x="114.414545" y="307.584" style="stroke: #000000; stroke-width: 0.8"/>
      </g>
     </g>
     <g id="text_2">
      <!-- 100 -->
      <g transform="translate(104.870795 322.182437) scale(0.1 -0.1)">
       <defs>
        <path id="DejaVuSans-31" d="M 794 531 
L 1825 531 
L 1825 4091 
L 703 3866 
L 703 4441 
L 1819 4666 
L 2450 4666 
L 2450 531 
L 3481 531 
L 3481 0 
L 794 0 
L 794 531 
z
" transform="scale(0.015625)"/>
       </defs>
       <use xlink:href="#DejaVuSans-31"/>
       <use xlink:href="#DejaVuSans-30" transform="translate(63.623047 0)"/>
       <use xlink:href="#DejaVuSans-30" transform="translate(127.246094 0)"/>
      </g>
     </g>
    </g>
    <g id="xtick_3">
     <g id="line2d_3">
      <g>
       <use xlink:href="#mf49ee167df" x="154.996364" y="307.584" style="stroke: #000000; stroke-width: 0.8"/>
      </g>
     </g>
     <g id="text_3">
      <!-- 200 -->
      <g transform="translate(145.452614 322.182437) scale(0.1 -0.1)">
       <defs>
        <path id="DejaVuSans-32" d="M 1228 531 
L 3431 531 
L 3431 0 
L 469 0 
L 469 531 
Q 828 903 1448 1529 
Q 2069 2156 2228 2338 
Q 2531 2678 2651 2914 
Q 2772 3150 2772 3378 
Q 2772 3750 2511 3984 
Q 2250 4219 1831 4219 
Q 1534 4219 1204 4116 
Q 875 4013 500 3803 
L 500 4441 
Q 881 4594 1212 4672 
Q 1544 4750 1819 4750 
Q 2544 4750 2975 4387 
Q 3406 4025 3406 3419 
Q 3406 3131 3298 2873 
Q 3191 2616 2906 2266 
Q 2828 2175 2409 1742 
Q 1991 1309 1228 531 
z
" transform="scale(0.015625)"/>
       </defs>
       <use xlink:href="#DejaVuSans-32"/>
       <use xlink:href="#DejaVuSans-30" transform="translate(63.623047 0)"/>
       <use xlink:href="#DejaVuSans-30" transform="translate(127.246094 0)"/>
      </g>
     </g>
    </g>
    <g id="xtick_4">
     <g id="line2d_4">
      <g>
       <use xlink:href="#mf49ee167df" x="195.578182" y="307.584" style="stroke: #000000; stroke-width: 0.8"/>
      </g>
     </g>
     <g id="text_4">
      <!-- 300 -->
      <g transform="translate(186.034432 322.182437) scale(0.1 -0.1)">
       <defs>
        <path id="DejaVuSans-33" d="M 2597 2516 
Q 3050 2419 3304 2112 
Q 3559 1806 3559 1356 
Q 3559 666 3084 287 
Q 2609 -91 1734 -91 
Q 1441 -91 1130 -33 
Q 819 25 488 141 
L 488 750 
Q 750 597 1062 519 
Q 1375 441 1716 441 
Q 2309 441 2620 675 
Q 2931 909 2931 1356 
Q 2931 1769 2642 2001 
Q 2353 2234 1838 2234 
L 1294 2234 
L 1294 2753 
L 1863 2753 
Q 2328 2753 2575 2939 
Q 2822 3125 2822 3475 
Q 2822 3834 2567 4026 
Q 2313 4219 1838 4219 
Q 1578 4219 1281 4162 
Q 984 4106 628 3988 
L 628 4550 
Q 988 4650 1302 4700 
Q 1616 4750 1894 4750 
Q 2613 4750 3031 4423 
Q 3450 4097 3450 3541 
Q 3450 3153 3228 2886 
Q 3006 2619 2597 2516 
z
" transform="scale(0.015625)"/>
       </defs>
       <use xlink:href="#DejaVuSans-33"/>
       <use xlink:href="#DejaVuSans-30" transform="translate(63.623047 0)"/>
       <use xlink:href="#DejaVuSans-30" transform="translate(127.246094 0)"/>
      </g>
     </g>
    </g>
    <g id="xtick_5">
     <g id="line2d_5">
      <g>
       <use xlink:href="#mf49ee167df" x="236.16" y="307.584" style="stroke: #000000; stroke-width: 0.8"/>
      </g>
     </g>
     <g id="text_5">
      <!-- 400 -->
      <g transform="translate(226.61625 322.182437) scale(0.1 -0.1)">
       <defs>
        <path id="DejaVuSans-34" d="M 2419 4116 
L 825 1625 
L 2419 1625 
L 2419 4116 
z
M 2253 4666 
L 3047 4666 
L 3047 1625 
L 3713 1625 
L 3713 1100 
L 3047 1100 
L 3047 0 
L 2419 0 
L 2419 1100 
L 313 1100 
L 313 1709 
L 2253 4666 
z
" transform="scale(0.015625)"/>
       </defs>
       <use xlink:href="#DejaVuSans-34"/>
       <use xlink:href="#DejaVuSans-30" transform="translate(63.623047 0)"/>
       <use xlink:href="#DejaVuSans-30" transform="translate(127.246094 0)"/>
      </g>
     </g>
    </g>
    <g id="xtick_6">
     <g id="line2d_6">
      <g>
       <use xlink:href="#mf49ee167df" x="276.741818" y="307.584" style="stroke: #000000; stroke-width: 0.8"/>
      </g>
     </g>
     <g id="text_6">
      <!-- 500 -->
      <g transform="translate(267.198068 322.182437) scale(0.1 -0.1)">
       <defs>
        <path id="DejaVuSans-35" d="M 691 4666 
L 3169 4666 
L 3169 4134 
L 1269 4134 
L 1269 2991 
Q 1406 3038 1543 3061 
Q 1681 3084 1819 3084 
Q 2600 3084 3056 2656 
Q 3513 2228 3513 1497 
Q 3513 744 3044 326 
Q 2575 -91 1722 -91 
Q 1428 -91 1123 -41 
Q 819 9 494 109 
L 494 744 
Q 775 591 1075 516 
Q 1375 441 1709 441 
Q 2250 441 2565 725 
Q 2881 1009 2881 1497 
Q 2881 1984 2565 2268 
Q 2250 2553 1709 2553 
Q 1456 2553 1204 2497 
Q 953 2441 691 2322 
L 691 4666 
z
" transform="scale(0.015625)"/>
       </defs>
       <use xlink:href="#DejaVuSans-35"/>
       <use xlink:href="#DejaVuSans-30" transform="translate(63.623047 0)"/>
       <use xlink:href="#DejaVuSans-30" transform="translate(127.246094 0)"/>
      </g>
     </g>
    </g>
    <g id="xtick_7">
     <g id="line2d_7">
      <g>
       <use xlink:href="#mf49ee167df" x="317.323636" y="307.584" style="stroke: #000000; stroke-width: 0.8"/>
      </g>
     </g>
     <g id="text_7">
      <!-- 600 -->
      <g transform="translate(307.779886 322.182437) scale(0.1 -0.1)">
       <defs>
        <path id="DejaVuSans-36" d="M 2113 2584 
Q 1688 2584 1439 2293 
Q 1191 2003 1191 1497 
Q 1191 994 1439 701 
Q 1688 409 2113 409 
Q 2538 409 2786 701 
Q 3034 994 3034 1497 
Q 3034 2003 2786 2293 
Q 2538 2584 2113 2584 
z
M 3366 4563 
L 3366 3988 
Q 3128 4100 2886 4159 
Q 2644 4219 2406 4219 
Q 1781 4219 1451 3797 
Q 1122 3375 1075 2522 
Q 1259 2794 1537 2939 
Q 1816 3084 2150 3084 
Q 2853 3084 3261 2657 
Q 3669 2231 3669 1497 
Q 3669 778 3244 343 
Q 2819 -91 2113 -91 
Q 1303 -91 875 529 
Q 447 1150 447 2328 
Q 447 3434 972 4092 
Q 1497 4750 2381 4750 
Q 2619 4750 2861 4703 
Q 3103 4656 3366 4563 
z
" transform="scale(0.015625)"/>
       </defs>
       <use xlink:href="#DejaVuSans-36"/>
       <use xlink:href="#DejaVuSans-30" transform="translate(63.623047 0)"/>
       <use xlink:href="#DejaVuSans-30" transform="translate(127.246094 0)"/>
      </g>
     </g>
    </g>
    <g id="xtick_8">
     <g id="line2d_8">
      <g>
       <use xlink:href="#mf49ee167df" x="357.905455" y="307.584" style="stroke: #000000; stroke-width: 0.8"/>
      </g>
     </g>
     <g id="text_8">
      <!-- 700 -->
      <g transform="translate(348.361705 322.182437) scale(0.1 -0.1)">
       <defs>
        <path id="DejaVuSans-37" d="M 525 4666 
L 3525 4666 
L 3525 4397 
L 1831 0 
L 1172 0 
L 2766 4134 
L 525 4134 
L 525 4666 
z
" transform="scale(0.015625)"/>
       </defs>
       <use xlink:href="#DejaVuSans-37"/>
       <use xlink:href="#DejaVuSans-30" transform="translate(63.623047 0)"/>
       <use xlink:href="#DejaVuSans-30" transform="translate(127.246094 0)"/>
      </g>
     </g>
    </g>
    <g id="xtick_9">
     <g id="line2d_9">
      <g>
       <use xlink:href="#mf49ee167df" x="398.487273" y="307.584" style="stroke: #000000; stroke-width: 0.8"/>
      </g>
     </g>
     <g id="text_9">
      <!-- 800 -->
      <g transform="translate(388.943523 322.182437) scale(0.1 -0.1)">
       <defs>
        <path id="DejaVuSans-38" d="M 2034 2216 
Q 1584 2216 1326 1975 
Q 1069 1734 1069 1313 
Q 1069 891 1326 650 
Q 1584 409 2034 409 
Q 2484 409 2743 651 
Q 3003 894 3003 1313 
Q 3003 1734 2745 1975 
Q 2488 2216 2034 2216 
z
M 1403 2484 
Q 997 2584 770 2862 
Q 544 3141 544 3541 
Q 544 4100 942 4425 
Q 1341 4750 2034 4750 
Q 2731 4750 3128 4425 
Q 3525 4100 3525 3541 
Q 3525 3141 3298 2862 
Q 3072 2584 2669 2484 
Q 3125 2378 3379 2068 
Q 3634 1759 3634 1313 
Q 3634 634 3220 271 
Q 2806 -91 2034 -91 
Q 1263 -91 848 271 
Q 434 634 434 1313 
Q 434 1759 690 2068 
Q 947 2378 1403 2484 
z
M 1172 3481 
Q 1172 3119 1398 2916 
Q 1625 2713 2034 2713 
Q 2441 2713 2670 2916 
Q 2900 3119 2900 3481 
Q 2900 3844 2670 4047 
Q 2441 4250 2034 4250 
Q 1625 4250 1398 4047 
Q 1172 3844 1172 3481 
z
" transform="scale(0.015625)"/>
       </defs>
       <use xlink:href="#DejaVuSans-38"/>
       <use xlink:href="#DejaVuSans-30" transform="translate(63.623047 0)"/>
       <use xlink:href="#DejaVuSans-30" transform="translate(127.246094 0)"/>
      </g>
     </g>
    </g>
    <g id="text_10">
     <!-- Temperature ($^{\circ}C$) -->
     <g transform="translate(192.16 335.862125) scale(0.1 -0.1)">
      <defs>
       <path id="DejaVuSans-54" d="M -19 4666 
L 3928 4666 
L 3928 4134 
L 2272 4134 
L 2272 0 
L 1638 0 
L 1638 4134 
L -19 4134 
L -19 4666 
z
" transform="scale(0.015625)"/>
       <path id="DejaVuSans-65" d="M 3597 1894 
L 3597 1613 
L 953 1613 
Q 991 1019 1311 708 
Q 1631 397 2203 397 
Q 2534 397 2845 478 
Q 3156 559 3463 722 
L 3463 178 
Q 3153 47 2828 -22 
Q 2503 -91 2169 -91 
Q 1331 -91 842 396 
Q 353 884 353 1716 
Q 353 2575 817 3079 
Q 1281 3584 2069 3584 
Q 2775 3584 3186 3129 
Q 3597 2675 3597 1894 
z
M 3022 2063 
Q 3016 2534 2758 2815 
Q 2500 3097 2075 3097 
Q 1594 3097 1305 2825 
Q 1016 2553 972 2059 
L 3022 2063 
z
" transform="scale(0.015625)"/>
       <path id="DejaVuSans-6d" d="M 3328 2828 
Q 3544 3216 3844 3400 
Q 4144 3584 4550 3584 
Q 5097 3584 5394 3201 
Q 5691 2819 5691 2113 
L 5691 0 
L 5113 0 
L 5113 2094 
Q 5113 2597 4934 2840 
Q 4756 3084 4391 3084 
Q 3944 3084 3684 2787 
Q 3425 2491 3425 1978 
L 3425 0 
L 2847 0 
L 2847 2094 
Q 2847 2600 2669 2842 
Q 2491 3084 2119 3084 
Q 1678 3084 1418 2786 
Q 1159 2488 1159 1978 
L 1159 0 
L 581 0 
L 581 3500 
L 1159 3500 
L 1159 2956 
Q 1356 3278 1631 3431 
Q 1906 3584 2284 3584 
Q 2666 3584 2933 3390 
Q 3200 3197 3328 2828 
z
" transform="scale(0.015625)"/>
       <path id="DejaVuSans-70" d="M 1159 525 
L 1159 -1331 
L 581 -1331 
L 581 3500 
L 1159 3500 
L 1159 2969 
Q 1341 3281 1617 3432 
Q 1894 3584 2278 3584 
Q 2916 3584 3314 3078 
Q 3713 2572 3713 1747 
Q 3713 922 3314 415 
Q 2916 -91 2278 -91 
Q 1894 -91 1617 61 
Q 1341 213 1159 525 
z
M 3116 1747 
Q 3116 2381 2855 2742 
Q 2594 3103 2138 3103 
Q 1681 3103 1420 2742 
Q 1159 2381 1159 1747 
Q 1159 1113 1420 752 
Q 1681 391 2138 391 
Q 2594 391 2855 752 
Q 3116 1113 3116 1747 
z
" transform="scale(0.015625)"/>
       <path id="DejaVuSans-72" d="M 2631 2963 
Q 2534 3019 2420 3045 
Q 2306 3072 2169 3072 
Q 1681 3072 1420 2755 
Q 1159 2438 1159 1844 
L 1159 0 
L 581 0 
L 581 3500 
L 1159 3500 
L 1159 2956 
Q 1341 3275 1631 3429 
Q 1922 3584 2338 3584 
Q 2397 3584 2469 3576 
Q 2541 3569 2628 3553 
L 2631 2963 
z
" transform="scale(0.015625)"/>
       <path id="DejaVuSans-61" d="M 2194 1759 
Q 1497 1759 1228 1600 
Q 959 1441 959 1056 
Q 959 750 1161 570 
Q 1363 391 1709 391 
Q 2188 391 2477 730 
Q 2766 1069 2766 1631 
L 2766 1759 
L 2194 1759 
z
M 3341 1997 
L 3341 0 
L 2766 0 
L 2766 531 
Q 2569 213 2275 61 
Q 1981 -91 1556 -91 
Q 1019 -91 701 211 
Q 384 513 384 1019 
Q 384 1609 779 1909 
Q 1175 2209 1959 2209 
L 2766 2209 
L 2766 2266 
Q 2766 2663 2505 2880 
Q 2244 3097 1772 3097 
Q 1472 3097 1187 3025 
Q 903 2953 641 2809 
L 641 3341 
Q 956 3463 1253 3523 
Q 1550 3584 1831 3584 
Q 2591 3584 2966 3190 
Q 3341 2797 3341 1997 
z
" transform="scale(0.015625)"/>
       <path id="DejaVuSans-74" d="M 1172 4494 
L 1172 3500 
L 2356 3500 
L 2356 3053 
L 1172 3053 
L 1172 1153 
Q 1172 725 1289 603 
Q 1406 481 1766 481 
L 2356 481 
L 2356 0 
L 1766 0 
Q 1100 0 847 248 
Q 594 497 594 1153 
L 594 3053 
L 172 3053 
L 172 3500 
L 594 3500 
L 594 4494 
L 1172 4494 
z
" transform="scale(0.015625)"/>
       <path id="DejaVuSans-75" d="M 544 1381 
L 544 3500 
L 1119 3500 
L 1119 1403 
Q 1119 906 1312 657 
Q 1506 409 1894 409 
Q 2359 409 2629 706 
Q 2900 1003 2900 1516 
L 2900 3500 
L 3475 3500 
L 3475 0 
L 2900 0 
L 2900 538 
Q 2691 219 2414 64 
Q 2138 -91 1772 -91 
Q 1169 -91 856 284 
Q 544 659 544 1381 
z
M 1991 3584 
L 1991 3584 
z
" transform="scale(0.015625)"/>
       <path id="DejaVuSans-20" transform="scale(0.015625)"/>
       <path id="DejaVuSans-28" d="M 1984 4856 
Q 1566 4138 1362 3434 
Q 1159 2731 1159 2009 
Q 1159 1288 1364 580 
Q 1569 -128 1984 -844 
L 1484 -844 
Q 1016 -109 783 600 
Q 550 1309 550 2009 
Q 550 2706 781 3412 
Q 1013 4119 1484 4856 
L 1984 4856 
z
" transform="scale(0.015625)"/>
       <path id="DejaVuSans-2218" d="M 2000 2619 
Q 1750 2619 1578 2445 
Q 1406 2272 1406 2022 
Q 1406 1775 1578 1605 
Q 1750 1435 2000 1435 
Q 2250 1435 2422 1605 
Q 2594 1775 2594 2022 
Q 2594 2269 2420 2444 
Q 2247 2619 2000 2619 
z
M 2000 3022 
Q 2200 3022 2384 2945 
Q 2569 2869 2703 2725 
Q 2847 2585 2919 2406 
Q 2991 2228 2991 2022 
Q 2991 1610 2702 1324 
Q 2413 1038 1994 1038 
Q 1572 1038 1290 1319 
Q 1009 1600 1009 2022 
Q 1009 2441 1296 2731 
Q 1584 3022 2000 3022 
z
" transform="scale(0.015625)"/>
       <path id="DejaVuSans-Oblique-43" d="M 4447 4306 
L 4319 3641 
Q 4019 3944 3683 4091 
Q 3347 4238 2956 4238 
Q 2422 4238 2017 3981 
Q 1613 3725 1319 3200 
Q 1131 2863 1032 2486 
Q 934 2109 934 1728 
Q 934 1091 1264 756 
Q 1594 422 2222 422 
Q 2656 422 3056 561 
Q 3456 700 3834 978 
L 3688 231 
Q 3316 72 2936 -9 
Q 2556 -91 2175 -91 
Q 1278 -91 773 396 
Q 269 884 269 1753 
Q 269 2309 461 2846 
Q 653 3384 1013 3828 
Q 1394 4300 1883 4525 
Q 2372 4750 3022 4750 
Q 3422 4750 3780 4639 
Q 4138 4528 4447 4306 
z
" transform="scale(0.015625)"/>
       <path id="DejaVuSans-29" d="M 513 4856 
L 1013 4856 
Q 1481 4119 1714 3412 
Q 1947 2706 1947 2009 
Q 1947 1309 1714 600 
Q 1481 -109 1013 -844 
L 513 -844 
Q 928 -128 1133 580 
Q 1338 1288 1338 2009 
Q 1338 2731 1133 3434 
Q 928 4138 513 4856 
z
" transform="scale(0.015625)"/>
      </defs>
      <use xlink:href="#DejaVuSans-54" transform="translate(0 0.125)"/>
      <use xlink:href="#DejaVuSans-65" transform="translate(61.083984 0.125)"/>
      <use xlink:href="#DejaVuSans-6d" transform="translate(122.607422 0.125)"/>
      <use xlink:href="#DejaVuSans-70" transform="translate(220.019531 0.125)"/>
      <use xlink:href="#DejaVuSans-65" transform="translate(283.496094 0.125)"/>
      <use xlink:href="#DejaVuSans-72" transform="translate(345.019531 0.125)"/>
      <use xlink:href="#DejaVuSans-61" transform="translate(386.132812 0.125)"/>
      <use xlink:href="#DejaVuSans-74" transform="translate(447.412109 0.125)"/>
      <use xlink:href="#DejaVuSans-75" transform="translate(486.621094 0.125)"/>
      <use xlink:href="#DejaVuSans-72" transform="translate(550 0.125)"/>
      <use xlink:href="#DejaVuSans-65" transform="translate(591.113281 0.125)"/>
      <use xlink:href="#DejaVuSans-20" transform="translate(652.636719 0.125)"/>
      <use xlink:href="#DejaVuSans-28" transform="translate(684.423828 0.125)"/>
      <use xlink:href="#DejaVuSans-2218" transform="translate(724.394531 38.40625) scale(0.7)"/>
      <use xlink:href="#DejaVuSans-Oblique-43" transform="translate(770.947266 0.125)"/>
      <use xlink:href="#DejaVuSans-29" transform="translate(840.771484 0.125)"/>
     </g>
    </g>
   </g>
   <g id="matplotlib.axis_2">
    <g id="ytick_1">
     <g id="line2d_10">
      <defs>
       <path id="m6a3f66ff91" d="M 0 0 
L -3.5 0 
" style="stroke: #000000; stroke-width: 0.8"/>
      </defs>
      <g>
       <use xlink:href="#m6a3f66ff91" x="57.6" y="295.488" style="stroke: #000000; stroke-width: 0.8"/>
      </g>
     </g>
     <g id="text_11">
      <!-- 0 -->
      <g transform="translate(44.2375 299.287219) scale(0.1 -0.1)">
       <use xlink:href="#DejaVuSans-30"/>
      </g>
     </g>
    </g>
    <g id="ytick_2">
     <g id="line2d_11">
      <g>
       <use xlink:href="#m6a3f66ff91" x="57.6" y="241.716822" style="stroke: #000000; stroke-width: 0.8"/>
      </g>
     </g>
     <g id="text_12">
      <!-- 1 -->
      <g transform="translate(44.2375 245.51604) scale(0.1 -0.1)">
       <use xlink:href="#DejaVuSans-31"/>
      </g>
     </g>
    </g>
    <g id="ytick_3">
     <g id="line2d_12">
      <g>
       <use xlink:href="#m6a3f66ff91" x="57.6" y="187.945643" style="stroke: #000000; stroke-width: 0.8"/>
      </g>
     </g>
     <g id="text_13">
      <!-- 2 -->
      <g transform="translate(44.2375 191.744862) scale(0.1 -0.1)">
       <use xlink:href="#DejaVuSans-32"/>
      </g>
     </g>
    </g>
    <g id="ytick_4">
     <g id="line2d_13">
      <g>
       <use xlink:href="#m6a3f66ff91" x="57.6" y="134.174465" style="stroke: #000000; stroke-width: 0.8"/>
      </g>
     </g>
     <g id="text_14">
      <!-- 3 -->
      <g transform="translate(44.2375 137.973683) scale(0.1 -0.1)">
       <use xlink:href="#DejaVuSans-33"/>
      </g>
     </g>
    </g>
    <g id="ytick_5">
     <g id="line2d_14">
      <g>
       <use xlink:href="#m6a3f66ff91" x="57.6" y="80.403286" style="stroke: #000000; stroke-width: 0.8"/>
      </g>
     </g>
     <g id="text_15">
      <!-- 4 -->
      <g transform="translate(44.2375 84.202505) scale(0.1 -0.1)">
       <use xlink:href="#DejaVuSans-34"/>
      </g>
     </g>
    </g>
    <g id="text_16">
     <!-- Intensity ($^{\circ}C^{-1}$) -->
     <g transform="translate(38.1375 213.328) rotate(-90) scale(0.1 -0.1)">
      <defs>
       <path id="DejaVuSans-49" d="M 628 4666 
L 1259 4666 
L 1259 0 
L 628 0 
L 628 4666 
z
" transform="scale(0.015625)"/>
       <path id="DejaVuSans-6e" d="M 3513 2113 
L 3513 0 
L 2938 0 
L 2938 2094 
Q 2938 2591 2744 2837 
Q 2550 3084 2163 3084 
Q 1697 3084 1428 2787 
Q 1159 2491 1159 1978 
L 1159 0 
L 581 0 
L 581 3500 
L 1159 3500 
L 1159 2956 
Q 1366 3272 1645 3428 
Q 1925 3584 2291 3584 
Q 2894 3584 3203 3211 
Q 3513 2838 3513 2113 
z
" transform="scale(0.015625)"/>
       <path id="DejaVuSans-73" d="M 2834 3397 
L 2834 2853 
Q 2591 2978 2328 3040 
Q 2066 3103 1784 3103 
Q 1356 3103 1142 2972 
Q 928 2841 928 2578 
Q 928 2378 1081 2264 
Q 1234 2150 1697 2047 
L 1894 2003 
Q 2506 1872 2764 1633 
Q 3022 1394 3022 966 
Q 3022 478 2636 193 
Q 2250 -91 1575 -91 
Q 1294 -91 989 -36 
Q 684 19 347 128 
L 347 722 
Q 666 556 975 473 
Q 1284 391 1588 391 
Q 1994 391 2212 530 
Q 2431 669 2431 922 
Q 2431 1156 2273 1281 
Q 2116 1406 1581 1522 
L 1381 1569 
Q 847 1681 609 1914 
Q 372 2147 372 2553 
Q 372 3047 722 3315 
Q 1072 3584 1716 3584 
Q 2034 3584 2315 3537 
Q 2597 3491 2834 3397 
z
" transform="scale(0.015625)"/>
       <path id="DejaVuSans-69" d="M 603 3500 
L 1178 3500 
L 1178 0 
L 603 0 
L 603 3500 
z
M 603 4863 
L 1178 4863 
L 1178 4134 
L 603 4134 
L 603 4863 
z
" transform="scale(0.015625)"/>
       <path id="DejaVuSans-79" d="M 2059 -325 
Q 1816 -950 1584 -1140 
Q 1353 -1331 966 -1331 
L 506 -1331 
L 506 -850 
L 844 -850 
Q 1081 -850 1212 -737 
Q 1344 -625 1503 -206 
L 1606 56 
L 191 3500 
L 800 3500 
L 1894 763 
L 2988 3500 
L 3597 3500 
L 2059 -325 
z
" transform="scale(0.015625)"/>
       <path id="DejaVuSans-2212" d="M 678 2272 
L 4684 2272 
L 4684 1741 
L 678 1741 
L 678 2272 
z
" transform="scale(0.015625)"/>
      </defs>
      <use xlink:href="#DejaVuSans-49" transform="translate(0 0.684375)"/>
      <use xlink:href="#DejaVuSans-6e" transform="translate(29.492188 0.684375)"/>
      <use xlink:href="#DejaVuSans-74" transform="translate(92.871094 0.684375)"/>
      <use xlink:href="#DejaVuSans-65" transform="translate(132.080078 0.684375)"/>
      <use xlink:href="#DejaVuSans-6e" transform="translate(193.603516 0.684375)"/>
      <use xlink:href="#DejaVuSans-73" transform="translate(256.982422 0.684375)"/>
      <use xlink:href="#DejaVuSans-69" transform="translate(309.082031 0.684375)"/>
      <use xlink:href="#DejaVuSans-74" transform="translate(336.865234 0.684375)"/>
      <use xlink:href="#DejaVuSans-79" transform="translate(376.074219 0.684375)"/>
      <use xlink:href="#DejaVuSans-20" transform="translate(435.253906 0.684375)"/>
      <use xlink:href="#DejaVuSans-28" transform="translate(467.041016 0.684375)"/>
      <use xlink:href="#DejaVuSans-2218" transform="translate(507.011719 38.965625) scale(0.7)"/>
      <use xlink:href="#DejaVuSans-Oblique-43" transform="translate(553.564453 0.684375)"/>
      <use xlink:href="#DejaVuSans-2212" transform="translate(630.589193 38.965625) scale(0.7)"/>
      <use xlink:href="#DejaVuSans-31" transform="translate(689.241536 38.965625) scale(0.7)"/>
      <use xlink:href="#DejaVuSans-29" transform="translate(736.512044 0.684375)"/>
     </g>
    </g>
    <g id="text_17">
     <!-- 1e7 -->
     <g transform="translate(57.6 38.472) scale(0.1 -0.1)">
      <use xlink:href="#DejaVuSans-31"/>
      <use xlink:href="#DejaVuSans-65" transform="translate(63.623047 0)"/>
      <use xlink:href="#DejaVuSans-37" transform="translate(125.146484 0)"/>
     </g>
    </g>
   </g>
   <g id="line2d_15">
    <path d="M 73.832727 295.488 
L 128.030423 295.379275 
L 128.257684 295.372365 
L 128.407839 295.374086 
L 128.695973 295.365751 
L 128.870477 295.36645 
L 129.020632 295.35911 
L 129.811987 295.343786 
L 130.096063 295.336903 
L 130.42478 295.328165 
L 130.591168 295.32225 
L 130.741322 295.324025 
L 130.936117 295.314911 
L 131.094388 295.310985 
L 131.272951 295.303646 
L 131.439338 295.302973 
L 131.577318 295.298779 
L 141.966393 294.91859 
L 142.075966 294.916009 
L 141.97451 294.913643 
L 142.080024 294.910444 
L 142.323518 294.90184 
L 142.944428 294.878799 
L 143.070233 294.868207 
L 143.183863 294.874605 
L 143.187921 294.866217 
L 143.30561 294.857345 
L 143.309668 294.864926 
L 143.520697 294.848688 
L 143.666793 294.841052 
L 143.670851 294.844977 
L 144.101024 294.816452 
L 144.206538 294.825082 
L 144.218713 294.818576 
L 144.332343 294.81906 
L 144.336401 294.813225 
L 144.648885 294.806692 
L 144.754399 294.792524 
L 144.766574 294.800374 
L 144.932961 294.785211 
L 144.93702 294.790803 
L 145.11964 294.780425 
L 145.99216 294.745124 
L 146.158548 294.735204 
L 146.373634 294.720551 
L 146.491323 294.723938 
L 146.495381 294.720658 
L 146.649594 294.713614 
L 146.767283 294.718669 
L 146.775399 294.710603 
L 146.79569 294.719045 
L 146.893088 294.70372 
L 147.006718 294.705253 
L 147.010777 294.701086 
L 147.120349 294.685761 
L 147.128465 294.69829 
L 147.270503 294.691219 
L 148.163315 294.651724 
L 148.268829 294.639356 
L 148.276945 294.643416 
L 148.40275 294.640486 
L 148.743642 294.624005 
L 148.877564 294.622499 
L 149.019602 294.610911 
L 149.13729 294.62102 
L 149.238746 294.589645 
L 149.259037 294.599969 
L 149.417308 294.596501 
L 149.530939 294.580826 
L 149.534997 294.587844 
L 149.543114 294.584725 
L 149.652686 294.593839 
L 149.831248 294.575288 
L 149.981403 294.570449 
L 150.066626 294.557544 
L 149.993577 294.574804 
L 150.095033 294.569427 
L 150.391284 294.556199 
L 150.663186 294.53582 
L 150.788991 294.539234 
L 150.931029 294.525496 
L 151.073067 294.529878 
L 151.202931 294.516086 
L 151.328736 294.516893 
L 151.336852 294.520334 
L 151.450483 294.504391 
L 151.564113 294.513801 
L 151.57223 294.499148 
L 151.949646 294.489577 
L 152.075451 294.472693 
L 152.083567 294.48135 
L 152.37576 294.46831 
L 152.383876 294.461885 
L 152.501565 294.468687 
L 152.635487 294.455997 
L 152.639545 294.459035 
L 152.753176 294.456024 
L 152.757234 294.451964 
L 152.90333 294.43637 
L 152.769409 294.466751 
L 152.911447 294.447474 
L 153.04131 294.446103 
L 153.167115 294.430052 
L 153.17929 294.439892 
L 153.447133 294.425535 
L 153.467425 294.437634 
L 153.56888 294.418653 
L 153.576997 294.410802 
L 153.686569 294.420158 
L 153.808316 294.405371 
L 154.043694 294.400236 
L 154.177615 294.393031 
L 155.042019 294.361601 
L 155.184057 294.35246 
L 155.748151 294.329823 
L 155.914539 294.327349 
L 156.442109 294.307696 
L 156.547623 294.295597 
L 156.559798 294.299657 
L 156.904747 294.278552 
L 156.908806 294.290274 
L 157.026494 294.281482 
L 157.140125 294.268174 
L 157.038669 294.294791 
L 157.1523 294.278498 
L 157.326804 294.279573 
L 157.420143 294.258683 
L 157.444492 294.269948 
L 157.594647 294.268174 
L 157.708278 294.245187 
L 157.602763 294.272045 
L 157.712336 294.248682 
L 157.825966 294.262259 
L 157.830025 294.255645 
L 157.947713 294.23532 
L 157.838141 294.267045 
L 157.95583 294.248897 
L 158.081635 294.248951 
L 158.187149 294.230803 
L 158.110043 294.258952 
L 158.199324 294.242821 
L 158.365711 294.234594 
L 158.605147 294.218221 
L 158.609205 294.229297 
L 158.73501 294.229916 
L 158.852699 294.21002 
L 158.970388 294.22107 
L 159.092135 294.199669 
L 159.209824 294.205961 
L 159.449259 294.18456 
L 159.571006 294.193782 
L 159.984946 294.165202 
L 160.082344 294.18706 
L 160.098577 294.165068 
L 160.248731 294.16867 
L 160.378595 294.154421 
L 160.382653 294.161196 
L 160.613972 294.155953 
L 160.622089 294.163697 
L 160.735719 294.13587 
L 160.833117 294.153534 
L 160.853408 294.14321 
L 161.023854 294.144984 
L 161.137484 294.132617 
L 161.141542 294.139876 
L 161.275464 294.126568 
L 161.360687 294.135977 
L 161.30793 294.116942 
L 161.385036 294.129821 
L 161.506783 294.121916 
L 161.620414 294.122346 
L 161.713753 294.103876 
L 161.644763 294.12931 
L 161.734044 294.116539 
L 161.977538 294.102344 
L 162.083052 294.116969 
L 162.091169 294.097558 
L 162.22509 294.113609 
L 162.229149 294.107909 
L 162.350896 294.08753 
L 162.448293 294.103258 
L 162.468584 294.096886 
L 162.578157 294.083147 
L 162.586273 294.087288 
L 162.825709 294.079491 
L 162.833825 294.072393 
L 162.939339 294.0814 
L 162.955572 294.093122 
L 163.061086 294.064327 
L 163.219357 294.076426 
L 163.223416 294.071479 
L 163.365454 294.054138 
L 163.483142 294.064865 
L 163.608948 294.053331 
L 165.138901 294.010933 
L 165.260648 293.999479 
L 165.370221 294.01674 
L 165.378337 294.012788 
L 165.491968 293.99222 
L 165.496026 293.997006 
L 165.650239 294.005609 
L 165.771986 293.979718 
L 165.885616 293.992704 
L 165.889674 293.985499 
L 166.01548 293.974476 
L 166.023596 293.988134 
L 166.348255 293.966383 
L 166.437536 293.985875 
L 166.461885 293.965442 
L 166.810893 293.958264 
L 166.81901 293.966356 
L 166.93264 293.957834 
L 167.042212 293.973185 
L 166.981339 293.934578 
L 167.046271 293.957941 
L 167.269473 293.953693 
L 167.39122 293.949902 
L 167.27759 293.943369 
L 167.399337 293.942294 
L 167.5292 293.934739 
L 167.411512 293.955279 
L 167.537317 293.943073 
L 168.26374 293.920382 
L 168.450419 293.918554 
L 168.458536 293.910327 
L 168.584341 293.924469 
L 168.697971 293.902503 
L 168.799427 293.916537 
L 168.811602 293.913311 
L 169.493385 293.890942 
L 169.533967 293.880538 
L 169.602957 293.899573 
L 169.712529 293.880699 
L 169.716588 293.883226 
L 169.834276 293.886694 
L 169.96414 293.882527 
L 170.329381 293.888065 
L 170.430837 293.863976 
L 170.443011 293.872499 
L 172.171818 293.84193 
L 172.281391 293.847092 
L 172.192109 293.817088 
L 172.285449 293.826309 
L 172.459953 293.814399 
L 172.464011 293.821389 
L 172.683156 293.825207 
L 172.776495 293.809344 
L 172.69533 293.8358 
L 172.796786 293.819158 
L 172.97129 293.839134 
L 172.979407 293.815313 
L 173.133619 293.81292 
L 173.141736 293.806925 
L 173.251308 293.819803 
L 173.255366 293.791815 
L 173.304065 293.8301 
L 173.36088 293.815259 
L 173.649015 293.804371 
L 173.823519 293.810312 
L 173.933091 293.789315 
L 173.937149 293.800607 
L 173.965557 293.780846 
L 174.05078 293.809237 
L 174.062955 293.812705 
L 174.160352 293.783884 
L 174.221226 293.813539 
L 174.273983 293.79117 
L 174.505302 293.795821 
L 174.606758 293.778802 
L 174.618933 293.788293 
L 174.728505 293.789772 
L 174.736621 293.785174 
L 174.886776 293.778507 
L 175.012581 293.786115 
L 175.016639 293.781007 
L 175.211435 293.782782 
L 175.333181 293.770172 
L 175.463045 293.777888 
L 175.58885 293.75966 
L 175.694364 293.77528 
L 175.702481 293.770522 
L 175.852635 293.760413 
L 175.974382 293.773721 
L 176.07178 293.755842 
L 176.088013 293.769769 
L 176.197585 293.74611 
L 176.213818 293.767699 
L 177.40288 293.745249 
L 177.512452 293.729682 
L 177.520569 293.736027 
L 177.634199 293.74939 
L 177.638258 293.738635 
L 177.642316 293.71503 
L 177.65449 293.754041 
L 177.74783 293.743986 
L 178.007557 293.729199 
L 178.104954 293.744281 
L 178.117129 293.72737 
L 178.299749 293.725166 
L 178.397147 293.741781 
L 178.41338 293.736511 
L 178.52701 293.713067 
L 178.648757 293.738931 
L 178.754272 293.722773 
L 178.762388 293.727236 
L 178.855727 293.74084 
L 178.774563 293.720407 
L 178.87196 293.727075 
L 178.985591 293.712153 
L 178.989649 293.725461 
L 179.131687 293.723015 
L 179.237201 293.730946 
L 179.151978 293.708954 
L 179.245318 293.721052 
L 179.801296 293.717665 
L 179.821587 293.703657 
L 179.910868 293.725166 
L 180.02044 293.699544 
L 180.024498 293.709465 
L 180.125954 293.716535 
L 180.138129 293.712234 
L 180.247701 293.698495 
L 180.259876 293.710137 
L 180.84832 293.710836 
L 180.856436 293.71753 
L 180.96195 293.69172 
L 181.095872 293.705942 
L 181.225735 293.685456 
L 181.23791 293.698737 
L 181.246026 293.688548 
L 181.359657 293.701049 
L 181.473287 293.690537 
L 181.481404 293.698092 
L 181.676199 293.695457 
L 181.680257 293.684542 
L 182.926135 293.691639 
L 183.02759 293.667012 
L 182.938309 293.696022 
L 183.039765 293.677014 
L 183.185861 293.688628 
L 183.283259 293.669674 
L 183.30355 293.680052 
L 183.672849 293.67083 
L 183.758072 293.692258 
L 183.790538 293.675293 
L 184.009683 293.688951 
L 184.03809 293.695457 
L 184.123313 293.673734 
L 184.139546 293.666313 
L 184.241002 293.68809 
L 184.354632 293.668867 
L 184.362749 293.680993 
L 184.537253 293.671636 
L 184.642767 293.6622 
L 184.549428 293.680482 
L 184.650883 293.672685 
L 184.77263 293.673465 
L 184.679291 293.696667 
L 184.776689 293.676234 
L 184.975542 293.67048 
L 185.076998 293.657683 
L 184.995833 293.691639 
L 185.093231 293.669271 
L 185.247444 293.668652 
L 185.25556 293.678815 
L 185.373249 293.675884 
L 191.204929 293.644697 
L 191.318559 293.670534 
L 191.383491 293.645127 
L 191.43219 293.659188 
L 191.440306 293.672954 
L 191.57017 293.65857 
L 196.983852 293.668652 
L 196.98791 293.703872 
L 197.093424 293.681503 
L 197.267928 293.678385 
L 197.369384 293.692043 
L 197.280103 293.673196 
L 197.385617 293.674917 
L 197.397792 293.665641 
L 197.523597 293.695323 
L 197.637228 293.673169 
L 197.641286 293.686988 
L 198.306836 293.687257 
L 198.314952 293.697608 
L 198.465107 293.686854 
L 198.473223 293.680294 
L 198.59497 293.699759 
L 198.73295 293.68594 
L 198.850639 293.697715 
L 199.232113 293.705109 
L 199.292986 293.673008 
L 199.345743 293.68922 
L 199.459374 293.706695 
L 199.463432 293.700243 
L 199.573004 293.686961 
L 199.585179 293.691666 
L 199.727217 293.715379 
L 199.844906 293.689031 
L 199.962595 293.709545 
L 209.641479 293.793509 
L 209.726702 293.81827 
L 209.751052 293.807301 
L 209.876857 293.797945 
L 209.994546 293.816523 
L 209.884973 293.794853 
L 209.998604 293.812141 
L 210.209632 293.816792 
L 210.246156 293.790632 
L 210.327321 293.822196 
L 210.445009 293.810877 
L 210.562698 293.820045 
L 210.688503 293.809102 
L 210.789959 293.830826 
L 210.806192 293.82311 
L 211.009104 293.821631 
L 211.122734 293.827116 
L 211.126793 293.8194 
L 211.244481 293.833084 
L 211.317529 293.815232 
L 211.354054 293.833461 
L 211.455509 293.836768 
L 211.366228 293.820018 
L 211.463626 293.833864 
L 211.593489 293.811872 
L 211.597548 293.828514 
L 211.743644 293.844538 
L 211.61378 293.814722 
L 211.747702 293.837763 
L 212.177875 293.84806 
L 212.287447 293.849754 
L 212.185991 293.838408 
L 212.295564 293.842629 
L 212.425427 293.835719 
L 212.30368 293.858303 
L 212.429485 293.845102 
L 213.882332 293.861879 
L 213.91074 293.854808 
L 214.000021 293.880188 
L 214.11771 293.864944 
L 214.275981 293.870536 
L 214.454543 293.870939 
L 214.551941 293.882151 
L 214.466718 293.867525 
L 214.568174 293.878709 
L 214.799493 293.889141 
L 214.876599 293.865992 
L 214.913124 293.881075 
L 215.051103 293.882419 
L 215.05922 293.898309 
L 215.225607 293.882608 
L 215.363587 293.902664 
L 215.367646 293.88906 
L 215.485334 293.879838 
L 215.578674 293.910703 
L 215.607081 293.886372 
L 216.029137 293.894921 
L 216.049429 293.905998 
L 216.13871 293.891749 
L 216.260457 293.908794 
L 216.357854 293.890781 
L 216.374087 293.905165 
L 216.641931 293.91151 
L 216.759619 293.900406 
L 216.654105 293.919952 
L 216.763678 293.903095 
L 216.775852 293.899465 
L 216.877308 293.924576 
L 216.98688 293.905514 
L 216.990939 293.912773 
L 217.076161 293.927614 
L 217.015288 293.899089 
L 217.100511 293.908956 
L 217.238491 293.906536 
L 217.108627 293.921753 
L 217.246607 293.920597 
L 219.072812 293.943154 
L 219.084987 293.954177 
L 219.182384 293.937454 
L 219.291956 293.96063 
L 219.296015 293.949365 
L 219.425878 293.942993 
L 219.429936 293.947671 
L 219.438053 293.938557 
L 219.555742 293.959017 
L 219.685605 293.952591 
L 219.689663 293.957592 
L 219.701838 293.942482 
L 219.827643 293.96028 
L 220.079254 293.95571 
L 220.188826 293.973696 
L 220.205059 293.961382 
L 220.663639 293.959823 
L 220.769153 293.982299 
L 220.77727 293.971061 
L 220.919308 293.974583 
L 221.024822 293.97496 
L 220.927424 293.978912 
L 221.02888 293.988806 
L 221.243966 293.97832 
L 221.337306 293.994721 
L 221.357597 293.985821 
L 221.495577 293.977541 
L 222.502018 294.003539 
L 222.611591 294.010502 
L 222.518251 293.990768 
L 222.619707 293.999587 
L 222.627824 294.024913 
L 222.782036 293.994694 
L 222.895667 294.014159 
L 223.171627 294.006604 
L 223.309607 294.028946 
L 223.431354 294.016068 
L 223.585566 294.017842 
L 223.695139 294.030505 
L 223.593683 294.01268 
L 223.707313 294.020262 
L 223.869643 294.014132 
L 223.71543 294.031366 
L 223.873701 294.02494 
L 224.064438 294.021257 
L 230.715881 294.139661 
L 230.825453 294.134687 
L 230.732114 294.146328 
L 230.829512 294.15262 
L 231.174461 294.162057 
L 231.308383 294.173779 
L 231.182578 294.149071 
L 231.320558 294.158965 
L 231.43013 294.148587 
L 231.434188 294.161438 
L 231.81972 294.151813 
L 231.933351 294.176602 
L 231.986108 294.152566 
L 232.046981 294.162756 
L 232.180903 294.17437 
L 232.298592 294.166036 
L 232.404106 294.179156 
L 232.412222 294.175526 
L 232.44063 294.185366 
L 232.521795 294.168133 
L 232.631367 294.177623 
L 232.546144 294.160685 
L 232.635425 294.171977 
L 234.425106 294.20631 
L 234.445397 294.214779 
L 234.534678 294.194104 
L 234.648308 294.216339 
L 234.830929 294.207439 
L 234.834987 294.21494 
L 235.804905 294.233008 
L 235.922593 294.226179 
L 236.056515 294.239487 
L 236.174204 294.230265 
L 236.18232 294.234701 
L 236.356824 294.253441 
L 236.364941 294.242176 
L 236.462338 294.227415 
L 236.486688 294.24766 
L 236.685541 294.234594 
L 236.689599 294.247822 
L 237.204995 294.25457 
L 237.359208 294.262958 
L 237.367324 294.246934 
L 237.509362 294.264894 
L 237.578352 294.249085 
L 237.622993 294.266077 
L 237.765031 294.260619 
L 237.907069 294.273981 
L 237.911127 294.268712 
L 237.988234 294.253226 
L 237.919244 294.280461 
L 238.024758 294.270647 
L 238.13433 294.273336 
L 238.032874 294.264894 
L 238.138388 294.271615 
L 238.292601 294.268685 
L 238.434639 294.280138 
L 238.572619 294.269653 
L 238.702483 294.288903 
L 239.136714 294.291107 
L 239.538479 294.296081 
L 239.639934 294.284789 
L 239.546595 294.299334 
L 239.648051 294.29436 
L 239.757623 294.307884 
L 239.76574 294.300195 
L 239.875312 294.290785 
L 239.887487 294.298716 
L 240.021408 294.308556 
L 240.175621 294.300759 
L 240.378533 294.308852 
L 240.674784 294.310841 
L 240.853346 294.326919 
L 240.983209 294.317186 
L 241.125248 294.321999 
L 241.246994 294.316568 
L 243.105665 294.354638 
L 243.11784 294.350955 
L 243.223354 294.363967 
L 243.422207 294.354127 
L 243.531779 294.368807 
L 243.543954 294.358563 
L 243.669759 294.375259 
L 243.779332 294.365903 
L 243.78339 294.372813 
L 243.978185 294.370178 
L 244.091816 294.364263 
L 244.099932 294.381524 
L 244.225737 294.385449 
L 244.108048 294.366548 
L 244.233854 294.375205 
L 244.363717 294.375958 
L 244.534163 294.383164 
L 244.684317 294.389374 
L 244.542279 294.373404 
L 244.688376 294.379668 
L 245.491906 294.389132 
L 245.500022 294.402602 
L 245.609594 294.397682 
L 245.731341 294.408786 
L 245.617711 294.387949 
L 245.7354 294.402736 
L 245.857147 294.401177 
L 245.861205 294.405183 
L 246.352251 294.413948 
L 246.364426 294.41911 
L 246.465882 294.410829 
L 246.603861 294.424594 
L 246.473998 294.402199 
L 246.60792 294.416018 
L 246.754016 294.413356 
L 246.867647 294.424756 
L 246.985335 294.417819 
L 247.103024 294.441452 
L 247.119257 294.424164 
L 247.253179 294.417228 
L 247.362751 294.431316 
L 247.366809 294.425777 
L 248.064825 294.44414 
L 248.186572 294.447366 
L 248.19063 294.435564 
L 248.340785 294.444651 
L 248.357018 294.436666 
L 248.462532 294.452717 
L 248.624861 294.440672 
L 248.726317 294.457583 
L 248.738492 294.445968 
L 249.193014 294.459841 
L 249.298528 294.449867 
L 249.20113 294.462315 
L 249.306644 294.464627 
L 249.428391 294.456642 
L 249.43245 294.460191 
L 250.106116 294.467799 
L 250.231921 294.468606 
L 250.357727 294.486162 
L 250.455124 294.470542 
L 250.471357 294.478769 
L 250.714851 294.493502 
L 250.718909 294.481162 
L 250.852831 294.484038 
L 251.112558 294.492185 
L 251.120674 294.487587 
L 251.226188 294.495545 
L 251.445333 294.490061 
L 251.603604 294.504444 
L 251.717234 294.489442 
L 251.875506 294.509499 
L 251.879564 294.496164 
L 252.062184 294.506918 
L 252.066242 294.496029 
L 252.273212 294.506004 
L 252.468007 294.514123 
L 252.597871 294.507778 
L 253.092975 294.520979 
L 253.275596 294.52313 
L 253.644895 294.525093 
L 253.778817 294.537944 
L 253.782875 294.533857 
L 254.489007 294.537594 
L 254.618871 294.547085 
L 254.756851 294.545795 
L 254.894831 294.549693 
L 254.898889 294.546063 
L 255.028752 294.543187 
L 255.312829 294.549505 
L 255.325003 294.560232 
L 255.426459 294.549451 
L 255.54009 294.56526 
L 255.544148 294.54773 
L 255.799816 294.572116 
L 255.885039 294.552623 
L 255.913447 294.56034 
L 256.04331 294.567222 
L 258.985529 294.605588 
L 259.099159 294.611933 
L 259.220906 294.607309 
L 259.314246 294.622176 
L 259.229023 294.59927 
L 259.338595 294.602523 
L 259.460342 294.624274 
L 259.4644 294.612578 
L 259.55774 294.603518 
L 259.582089 294.614622 
L 259.76471 294.620241 
L 259.898631 294.632662 
L 260.004145 294.618278 
L 260.012262 294.627903 
L 260.166475 294.620617 
L 260.409969 294.633764 
L 260.519541 294.623709 
L 260.523599 294.632017 
L 260.673754 294.641911 
L 260.677812 294.63699 
L 261.010587 294.637528 
L 261.120159 294.643981 
L 261.030878 294.62879 
L 261.128276 294.639518 
L 261.574681 294.645191 
L 261.696428 294.648094 
L 261.846583 294.64882 
L 262.215882 294.656805 
L 262.301105 294.643631 
L 262.329513 294.662881 
L 262.471551 294.654842 
L 262.70287 294.662881 
L 262.804326 294.658795 
L 262.710986 294.665758 
L 262.8165 294.6685 
L 263.064053 294.665355 
L 263.072169 294.674845 
L 263.181741 294.655461 
L 263.287255 294.674899 
L 263.295372 294.672372 
L 263.315663 294.681836 
L 263.417119 294.669172 
L 263.68902 294.671081 
L 263.969039 294.669872 
L 264.074553 294.682965 
L 263.977155 294.664898 
L 264.082669 294.680276 
L 264.1963 294.675195 
L 264.204416 294.686299 
L 264.415444 294.668231 
L 264.419502 294.681459 
L 264.569657 294.690305 
L 264.695462 294.683395 
L 264.69952 294.69302 
L 264.886199 294.684417 
L 264.987655 294.695386 
L 264.99983 294.687105 
L 265.247382 294.684336 
L 265.361012 294.706113 
L 265.365071 294.70044 
L 265.531458 294.713668 
L 265.64103 294.693988 
L 265.649147 294.697026 
L 265.819593 294.711006 
L 265.937281 294.700225 
L 274.025339 294.807875 
L 274.167377 294.805563 
L 274.285066 294.814597 
L 274.289124 294.807069 
L 274.694947 294.81793 
L 274.828869 294.812984 
L 274.970907 294.82199 
L 275.291507 294.825512 
L 275.417313 294.83062 
L 275.636457 294.827771 
L 276.963499 294.842396 
L 277.081188 294.852371 
L 277.202935 294.841509 
L 277.332798 294.856861 
L 277.340915 294.847209 
L 277.499186 294.854038 
L 277.823844 294.852962 
L 277.953708 294.859764 
L 278.079513 294.858259 
L 278.237784 294.859388 
L 278.343298 294.857829 
L 278.347356 294.866782 
L 278.493453 294.854898 
L 278.603025 294.872508 
L 278.611142 294.869793 
L 278.736947 294.860652 
L 278.899276 294.870277 
L 279.244226 294.858555 
L 279.345682 294.879821 
L 279.357856 294.872159 
L 279.577001 294.877885 
L 280.161386 294.878423 
L 280.287192 294.88294 
L 280.445463 294.879391 
L 280.826937 294.885601 
L 281.155653 294.893802 
L 281.342332 294.895415 
L 281.460021 294.893291 
L 281.573651 294.902862 
L 281.468137 294.888451 
L 281.57771 294.898695 
L 281.69134 294.88466 
L 281.695398 294.896329 
L 281.926718 294.903695 
L 282.03629 294.895872 
L 282.040348 294.899743 
L 282.24326 294.908347 
L 282.352832 294.900496 
L 282.360948 294.90547 
L 283.379565 294.917058 
L 283.509428 294.921951 
L 284.12628 294.923671 
L 284.138454 294.915794 
L 284.248027 294.924021 
L 284.369774 294.920257 
L 284.37789 294.92878 
L 285.055615 294.930393 
L 285.18142 294.935716 
L 285.347808 294.934856 
L 285.615651 294.94026 
L 285.932193 294.94475 
L 286.865587 294.950665 
L 287.040091 294.949616 
L 287.230827 294.954536 
L 287.502729 294.957171 
L 287.636651 294.957709 
L 287.770572 294.966742 
L 287.884203 294.953031 
L 287.896378 294.967226 
L 288.034358 294.960693 
L 288.038416 294.966339 
L 288.233211 294.959322 
L 288.3509 294.962306 
L 288.517287 294.965828 
L 288.675558 294.960021 
L 288.679616 294.971205 
L 289.004275 294.971313 
L 289.215303 294.970452 
L 289.365458 294.982336 
L 289.369516 294.973598 
L 365.266581 295.367553 
L 365.4979 295.365886 
L 366.252732 295.369623 
L 366.43941 295.370483 
L 366.654497 295.367311 
L 366.78436 295.373199 
L 369.592657 295.377285 
L 369.742812 295.378845 
L 370.09182 295.378549 
L 370.339372 295.37906 
L 370.554458 295.380673 
L 370.720846 295.382608 
L 371.426978 295.380243 
L 371.67453 295.380646 
L 371.869325 295.382044 
L 374.937349 295.387367 
L 375.083446 295.387098 
L 376.089887 295.392959 
L 376.248158 295.39218 
L 376.536293 295.389303 
L 376.836602 295.392341 
L 377.039514 295.393201 
L 378.021606 295.392959 
L 378.67904 295.394815 
L 378.995582 295.396239 
L 379.161969 295.392852 
L 379.324299 295.39796 
L 379.478511 295.396293 
L 380.168411 295.396885 
L 380.415963 295.398202 
L 381.105863 295.398175 
L 381.260076 295.399197 
L 381.515744 295.400971 
L 381.820112 295.402369 
L 381.990557 295.400864 
L 382.583059 295.402853 
L 383.106571 295.400514 
L 383.390648 295.406779 
L 383.548919 295.401509 
L 383.735597 295.402584 
L 384.255051 295.403525 
L 384.531011 295.406859 
L 384.677107 295.406375 
L 385.204678 295.40616 
L 385.435997 295.405891 
L 385.951392 295.405434 
L 386.430264 295.409548 
L 386.641292 295.408714 
L 389.352191 295.411914 
L 389.725549 295.412989 
L 389.944693 295.410811 
L 390.488496 295.412935 
L 392.298468 295.415194 
L 392.75299 295.417156 
L 393.004601 295.415516 
L 394.140906 295.417909 
L 394.611661 295.419872 
L 394.814572 295.420221 
L 395.005309 295.418447 
L 395.208221 295.422399 
L 395.382725 295.417909 
L 395.520705 295.423421 
L 395.670859 295.420947 
L 397.030367 295.420974 
L 397.180522 295.421781 
L 397.614753 295.421915 
L 398.487273 295.420705 
L 398.487273 295.420705 
" clip-path="url(#pd7f9e2dcb7)" style="fill: none; stroke-dasharray: 1.85,0.8; stroke-dashoffset: 0; stroke: #8000ff; stroke-width: 0.5"/>
   </g>
   <g id="line2d_16">
    <path d="M 73.832727 295.488 
L 127.366837 295.378737 
L 130.451441 295.28496 
L 134.023087 295.087243 
L 141.937531 294.082798 
L 142.830443 293.894975 
L 143.073964 293.848839 
L 143.804528 293.706265 
L 144.129223 293.623511 
L 145.022135 293.42937 
L 146.361502 293.093973 
L 146.807958 292.977182 
L 148.228499 292.596509 
L 148.593781 292.489101 
L 151.110169 291.75585 
L 151.313103 291.700493 
L 151.556625 291.659922 
L 151.759559 291.559747 
L 152.043667 291.496108 
L 152.287189 291.379748 
L 152.449536 291.367165 
L 152.814818 291.230963 
L 152.977166 291.198108 
L 153.545382 291.009264 
L 153.667143 290.961488 
L 153.951251 290.894812 
L 154.519468 290.696128 
L 154.925337 290.583128 
L 155.940009 290.248294 
L 156.06177 290.219984 
L 156.548812 290.060902 
L 156.914094 289.951155 
L 157.522898 289.73037 
L 157.766419 289.677218 
L 158.53757 289.415621 
L 158.699917 289.367227 
L 158.902852 289.305793 
L 159.674003 289.05081 
L 160.039285 288.935364 
L 160.282806 288.859492 
L 162.19039 288.258653 
L 162.393325 288.183938 
L 162.71802 288.068061 
L 164.747364 287.413209 
L 164.950299 287.354814 
L 167.385512 286.616347 
L 167.507273 286.539911 
L 167.629034 286.530743 
L 167.994316 286.41855 
L 168.237837 286.333107 
L 168.359598 286.305765 
L 168.84664 286.184511 
L 169.130749 286.06694 
L 170.02366 285.846532 
L 170.186008 285.781926 
L 171.038333 285.508365 
L 171.322441 285.426445 
L 171.647136 285.349014 
L 171.85007 285.277122 
L 172.337113 285.176436 
L 172.824156 285.022381 
L 173.108264 284.949521 
L 173.595307 284.810953 
L 174.488218 284.598933 
L 174.691153 284.523062 
L 174.812913 284.49709 
L 175.38113 284.325184 
L 175.502891 284.322522 
L 175.786999 284.249071 
L 176.111694 284.183793 
L 176.314628 284.091279 
L 176.517563 284.054097 
L 176.720497 284.02256 
L 177.369888 283.845276 
L 177.613409 283.823069 
L 177.816343 283.751714 
L 178.059865 283.700739 
L 178.222212 283.624626 
L 178.425147 283.606694 
L 178.668668 283.528806 
L 178.952776 283.493478 
L 183.2144 282.557833 
L 183.336161 282.546084 
L 184.716115 282.274566 
L 185.04081 282.250477 
L 185.203158 282.156834 
L 185.446679 282.170385 
L 185.649613 282.087012 
L 185.893135 282.097552 
L 186.055482 282.031709 
L 186.177243 282.018858 
L 186.501938 281.990547 
L 186.704873 281.920806 
L 187.029568 281.911423 
L 187.273089 281.842864 
L 187.922479 281.748846 
L 188.125414 281.658322 
L 188.328348 281.66136 
L 188.774804 281.597507 
L 188.896565 281.580837 
L 189.140086 281.535965 
L 189.302434 281.529782 
L 189.505368 281.475527 
L 189.708303 281.456411 
L 189.911237 281.392154 
L 190.154758 281.408205 
L 190.438867 281.359112 
L 190.885322 281.296791 
L 191.128844 281.251059 
L 191.534713 281.168359 
L 191.69706 281.186372 
L 191.737647 281.127116 
L 191.818821 281.195755 
L 192.062342 281.144619 
L 192.427624 281.097972 
L 192.630559 281.061515 
L 192.833493 281.063828 
L 193.361123 280.995861 
L 193.482884 280.986666 
L 193.685818 280.950989 
L 194.903425 280.81078 
L 195.025185 280.802473 
L 195.390467 280.747599 
L 195.552815 280.759563 
L 196.486314 280.683181 
L 196.608074 280.626883 
L 197.135704 280.632825 
L 197.379225 280.53808 
L 197.460399 280.583759 
L 197.500986 280.554211 
L 205.374843 280.14055 
L 205.577777 280.197816 
L 205.780712 280.121595 
L 207.607122 280.098608 
L 207.728882 280.094468 
L 207.850643 280.11517 
L 208.053578 280.12915 
L 208.297099 280.09143 
L 208.581207 280.117993 
L 208.905902 280.111486 
L 209.392945 280.091618 
L 209.555293 280.09315 
L 209.758227 280.116729 
L 209.879988 280.052204 
L 210.042335 280.127295 
L 210.569965 280.060242 
L 210.732312 280.10627 
L 211.016421 280.083955 
L 211.138181 280.114739 
L 211.300529 280.099038 
L 211.584637 280.110626 
L 211.706398 280.128209 
L 211.868745 280.096484 
L 220.960209 280.404916 
L 221.122557 280.456294 
L 221.325491 280.433092 
L 221.609599 280.491756 
L 221.974881 280.456778 
L 222.056055 280.531547 
L 222.096642 280.483018 
L 222.421337 280.497079 
L 222.543098 280.488799 
L 223.070727 280.548861 
L 225.059485 280.689983 
L 225.221833 280.657022 
L 225.546528 280.760343 
L 225.749462 280.728269 
L 225.992984 280.756068 
L 226.195918 280.774942 
L 226.358266 280.787471 
L 226.5612 280.76935 
L 226.764135 280.840113 
L 227.129417 280.832773 
L 227.291764 280.886544 
L 227.413525 280.862831 
L 227.657046 280.899933 
L 227.859981 280.888103 
L 227.981741 280.902944 
L 232.811581 281.367689 
L 232.973929 281.329887 
L 233.136277 281.379007 
L 233.379798 281.427106 
L 233.501559 281.382045 
L 233.704493 281.446248 
L 233.866841 281.396644 
L 234.27271 281.527873 
L 234.39447 281.444931 
L 234.556818 281.499509 
L 234.759752 281.531207 
L 235.003274 281.497062 
L 235.287382 281.583526 
L 235.612077 281.606164 
L 236.423815 281.693434 
L 236.586162 281.714916 
L 236.789097 281.739436 
L 237.073205 281.766563 
L 237.27614 281.82098 
L 237.438487 281.80259 
L 237.682008 281.826975 
L 238.290812 281.868083 
L 238.412572 281.897604 
L 238.696681 281.945782 
L 239.183723 281.993773 
L 239.346071 282.011598 
L 239.630179 282.000844 
L 239.75194 282.038618 
L 241.05072 282.176273 
L 241.091307 282.253945 
L 241.172481 282.20668 
L 241.659524 282.270507 
L 242.308914 282.321643 
L 242.593022 282.397514 
L 242.75537 282.358611 
L 242.877131 282.419695 
L 242.998891 282.397299 
L 243.120652 282.416011 
L 243.851216 282.486075 
L 244.013564 282.531619 
L 244.257085 282.539336 
L 244.500606 282.590553 
L 244.622367 282.548531 
L 244.784714 282.614911 
L 244.987649 282.614131 
L 245.190583 282.678442 
L 245.312344 282.677071 
L 245.677626 282.722857 
L 246.286429 282.808138 
L 246.40819 282.778617 
L 246.611125 282.851235 
L 246.814059 282.825318 
L 247.05758 282.898904 
L 247.301102 282.917965 
L 247.504036 282.911997 
L 247.625797 282.942189 
L 247.869318 282.939823 
L 248.11284 282.998837 
L 248.2346 283.031799 
L 248.437535 283.003999 
L 248.599882 283.04828 
L 249.289859 283.117053 
L 249.330446 283.199834 
L 249.41162 283.15144 
L 249.614555 283.187789 
L 249.776902 283.204189 
L 249.979837 283.232231 
L 250.020423 283.277963 
L 250.101597 283.203248 
L 250.304532 283.234221 
L 250.629227 283.318722 
L 250.872748 283.307081 
L 251.11627 283.351254 
L 251.440965 283.375773 
L 251.562725 283.442127 
L 251.603312 283.402847 
L 251.968594 283.466001 
L 254.038526 283.721549 
L 254.200873 283.727302 
L 254.525568 283.770776 
L 254.687916 283.780509 
L 254.850264 283.831161 
L 255.093785 283.859203 
L 255.662001 283.933031 
L 269.055676 285.559206 
L 269.218023 285.562029 
L 269.826827 285.631716 
L 270.192109 285.682933 
L 270.313869 285.67476 
L 270.516804 285.719524 
L 270.679151 285.735602 
L 270.922673 285.769559 
L 276.198969 286.398708 
L 276.320729 286.404166 
L 277.335401 286.525393 
L 277.781857 286.546471 
L 278.187726 286.637667 
L 278.350074 286.62944 
L 279.040051 286.723594 
L 279.324159 286.743086 
L 279.892376 286.810918 
L 280.135897 286.829281 
L 280.541766 286.884853 
L 285.45278 287.416382 
L 285.57454 287.442487 
L 285.858649 287.462544 
L 288.699731 287.771701 
L 288.821492 287.784096 
L 289.065013 287.802674 
L 289.430295 287.808777 
L 289.592643 287.881852 
L 289.836164 287.883411 
L 291.053771 287.998589 
L 297.141805 288.603407 
L 297.304152 288.62134 
L 297.58826 288.667529 
L 297.994129 288.693366 
L 298.927628 288.783648 
L 299.049388 288.796661 
L 299.455257 288.81868 
L 299.617605 288.844759 
L 300.997559 288.985451 
L 301.11932 289.002147 
L 302.174579 289.086729 
L 302.458687 289.092967 
L 302.661622 289.131198 
L 303.676294 289.220136 
L 304.203924 289.277456 
L 304.447445 289.281032 
L 305.29977 289.36513 
L 305.624465 289.38282 
L 305.908573 289.431833 
L 306.273855 289.446916 
L 306.59855 289.483803 
L 306.801485 289.498644 
L 328.393711 291.148505 
L 328.556059 291.147375 
L 329.530144 291.199211 
L 330.423056 291.251557 
L 330.666577 291.299897 
L 330.991272 291.301053 
L 331.478315 291.323126 
L 332.087118 291.369047 
L 332.736508 291.420667 
L 332.898856 291.429056 
L 334.359984 291.513584 
L 334.562919 291.524634 
L 335.049961 291.577061 
L 335.212309 291.554154 
L 335.537004 291.579911 
L 336.024047 291.607737 
L 336.348742 291.622175 
L 337.566349 291.688152 
L 337.80987 291.703154 
L 338.134565 291.746951 
L 338.783955 291.777117 
L 339.473932 291.803411 
L 339.758041 291.826962 
L 339.960975 291.841427 
L 341.46269 291.922944 
L 342.030907 291.943861 
L 343.086166 291.997148 
L 343.370274 292.026937 
L 344.222599 292.062642 
L 344.425533 292.078235 
L 344.750228 292.090253 
L 345.64314 292.122919 
L 345.886661 292.155289 
L 346.454878 292.185616 
L 346.860747 292.181019 
L 347.063681 292.219465 
L 347.347789 292.236968 
L 348.484222 292.267537 
L 348.768331 292.299181 
L 348.971265 292.309263 
L 349.255373 292.31706 
L 352.664672 292.476464 
L 352.94878 292.496306 
L 353.719931 292.510071 
L 353.922866 292.536876 
L 354.531669 292.564569 
L 356.033384 292.629874 
L 356.236319 292.6331 
L 357.048056 292.674934 
L 357.616273 292.686979 
L 357.900381 292.702357 
L 358.428011 292.736314 
L 358.671532 292.74817 
L 358.95564 292.745186 
L 359.239749 292.771668 
L 359.564444 292.779734 
L 360.173247 292.803339 
L 360.66029 292.825789 
L 362.162005 292.904644 
L 362.364939 292.883835 
L 363.054916 292.920265 
L 363.541959 292.933197 
L 363.907241 292.959679 
L 393.616846 293.885001 
L 393.941541 293.879677 
L 394.915626 293.923796 
L 395.159148 293.91979 
L 398.487273 293.993081 
L 398.487273 293.993081 
" clip-path="url(#pd7f9e2dcb7)" style="fill: none; stroke-dasharray: 1.85,0.8; stroke-dashoffset: 0; stroke: #00b5eb; stroke-width: 0.5"/>
   </g>
   <g id="line2d_17">
    <path d="M 73.832727 295.488 
L 127.231192 295.381936 
L 134.134416 295.060573 
L 137.789064 294.640943 
L 140.428531 294.157352 
L 144.489251 292.893702 
L 147.940863 291.174395 
L 149.768187 289.96984 
L 151.189439 288.873634 
L 152.813727 287.512578 
L 157.889626 282.350572 
L 164.995886 273.654105 
L 176.771973 258.454123 
L 184.284305 249.537813 
L 184.487341 249.379322 
L 184.893413 248.915438 
L 187.938953 245.710031 
L 188.751097 245.000466 
L 189.360205 244.294773 
L 189.766277 243.89856 
L 190.375385 243.298097 
L 196.060392 238.437129 
L 196.263428 238.363678 
L 196.466464 238.121734 
L 196.872536 237.929986 
L 197.075572 237.667852 
L 197.278608 237.645375 
L 198.496824 236.681796 
L 199.71504 235.828797 
L 200.324148 235.437477 
L 202.557544 234.044373 
L 203.166652 233.751401 
L 203.77576 233.311284 
L 209.460768 230.659612 
L 210.272911 230.347013 
L 210.475947 230.240573 
L 210.678983 230.262028 
L 211.085055 230.050465 
L 211.288091 230.048879 
L 211.897199 229.771635 
L 212.100235 229.824465 
L 212.303271 229.637315 
L 212.709343 229.539666 
L 212.912379 229.408276 
L 213.115415 229.459789 
L 214.739703 228.984936 
L 215.551847 228.863332 
L 215.957919 228.735599 
L 218.597387 228.178556 
L 218.800423 228.306639 
L 219.003459 228.114972 
L 219.206495 228.20071 
L 220.424711 227.93828 
L 220.830783 227.999579 
L 221.439891 227.812186 
L 227.937042 227.806648 
L 228.140078 227.87768 
L 228.54615 227.797883 
L 228.952222 227.856763 
L 229.155258 227.814391 
L 229.358294 227.912308 
L 229.56133 227.856736 
L 229.967402 227.984308 
L 230.779546 227.990303 
L 230.982582 228.100212 
L 231.388654 228.096071 
L 231.794726 228.105938 
L 232.60687 228.314248 
L 232.809906 228.202108 
L 233.215978 228.328417 
L 233.62205 228.400416 
L 234.231158 228.497608 
L 234.63723 228.604316 
L 235.246338 228.695405 
L 235.449374 228.626658 
L 235.855446 228.850884 
L 236.261518 228.813271 
L 238.69795 229.358672 
L 239.104022 229.418036 
L 239.71313 229.615322 
L 239.916166 229.536924 
L 240.322238 229.706545 
L 240.525274 229.766419 
L 240.72831 229.971126 
L 240.931346 229.888345 
L 241.74349 230.186506 
L 241.946526 230.154029 
L 242.555634 230.361747 
L 242.961706 230.514672 
L 243.367778 230.607615 
L 243.77385 230.707872 
L 244.179922 230.776188 
L 244.585994 230.960865 
L 244.78903 230.925564 
L 245.195101 231.100993 
L 245.601173 231.172831 
L 245.804209 231.366784 
L 246.210281 231.436444 
L 246.616353 231.620718 
L 247.225461 231.678334 
L 247.428497 231.915976 
L 248.443677 232.139019 
L 248.646713 232.313345 
L 249.255821 232.362519 
L 249.661893 232.728324 
L 249.864929 232.606344 
L 250.067965 232.786155 
L 250.271001 232.774701 
L 250.474037 232.97137 
L 250.880109 233.065415 
L 251.692253 233.381187 
L 254.331721 234.371302 
L 254.940829 234.623677 
L 255.143865 234.637228 
L 255.549937 234.867583 
L 257.783333 235.707543 
L 259.001549 236.305371 
L 259.407621 236.446735 
L 260.016729 236.774497 
L 260.422801 236.893843 
L 262.656196 237.853604 
L 263.265304 238.105953 
L 263.46834 238.137489 
L 263.874412 238.413362 
L 264.686556 238.765725 
L 266.919952 239.735999 
L 267.935132 240.25524 
L 269.153348 240.750043 
L 269.356384 240.939505 
L 269.55942 240.892025 
L 269.762456 241.114127 
L 270.168528 241.202769 
L 271.183708 241.781643 
L 271.386744 241.757499 
L 271.58978 242.011676 
L 271.995852 242.081955 
L 273.823176 243.012492 
L 274.026212 243.004856 
L 274.229248 243.176333 
L 274.63532 243.281724 
L 275.244428 243.648336 
L 275.447464 243.662774 
L 276.056572 243.971528 
L 276.868716 244.453855 
L 277.071752 244.435627 
L 278.289968 245.08236 
L 280.117291 245.839216 
L 280.523363 246.139635 
L 280.929435 246.275219 
L 281.335507 246.521922 
L 282.350687 246.971583 
L 300.014818 255.083369 
L 300.42089 255.31773 
L 302.045178 255.96363 
L 302.248214 256.161911 
L 302.654286 256.283488 
L 303.669466 256.751431 
L 304.684646 257.182219 
L 305.090718 257.378 
L 305.699826 257.606205 
L 305.902862 257.634381 
L 306.105898 257.884605 
L 306.51197 257.898102 
L 306.715006 258.08657 
L 306.918042 258.073584 
L 307.324114 258.350694 
L 307.933222 258.553169 
L 308.136258 258.672165 
L 308.339294 258.661115 
L 308.948402 258.967315 
L 309.354474 259.103114 
L 311.384834 260.015476 
L 312.400014 260.347567 
L 313.212158 260.767627 
L 313.61823 260.920391 
L 314.227338 261.181397 
L 315.445553 261.642807 
L 316.460733 262.044155 
L 317.272877 262.376031 
L 318.491093 262.870107 
L 319.912345 263.409674 
L 320.521453 263.604622 
L 321.333597 263.955264 
L 321.739669 264.087137 
L 321.942705 264.091815 
L 322.754849 264.459879 
L 323.770029 264.858888 
L 332.297541 267.882791 
L 333.718792 268.391224 
L 335.546116 268.949961 
L 336.155224 269.169213 
L 336.35826 269.300441 
L 336.561296 269.26342 
L 337.170404 269.487457 
L 340.825052 270.648001 
L 341.637196 270.921562 
L 342.043268 271.042816 
L 343.058448 271.332669 
L 345.291844 272.025618 
L 345.697916 272.109528 
L 346.307024 272.311574 
L 347.931312 272.836326 
L 348.337384 272.911929 
L 350.773815 273.598049 
L 353.819355 274.43083 
L 354.428463 274.592413 
L 356.864895 275.257938 
L 357.270967 275.353221 
L 358.489183 275.66305 
L 359.098291 275.819686 
L 359.910435 276.010816 
L 362.346867 276.641229 
L 362.955975 276.737775 
L 364.174191 277.067392 
L 364.986335 277.222818 
L 365.189371 277.32915 
L 365.392407 277.295463 
L 366.204551 277.522996 
L 383.868682 281.193658 
L 384.680826 281.3543 
L 388.538509 282.030149 
L 389.350653 282.167158 
L 390.365833 282.352508 
L 391.381013 282.529334 
L 394.020481 282.959719 
L 395.035661 283.127082 
L 398.487273 283.662024 
L 398.487273 283.662024 
" clip-path="url(#pd7f9e2dcb7)" style="fill: none; stroke-dasharray: 1.85,0.8; stroke-dashoffset: 0; stroke: #80ffb4; stroke-width: 0.5"/>
   </g>
   <g id="line2d_18">
    <path d="M 73.832727 295.488 
L 127.061445 295.383254 
L 132.75001 295.159135 
L 136.406945 294.827125 
L 139.657554 294.294011 
L 142.09551 293.66349 
L 144.533467 292.734405 
L 146.158771 291.92781 
L 147.784076 290.903362 
L 149.815706 289.328054 
L 151.44101 287.749628 
L 152.253663 286.850682 
L 155.504271 282.577325 
L 157.535902 279.35498 
L 159.567532 275.741288 
L 163.630793 267.537419 
L 166.475076 261.317384 
L 168.10038 257.599241 
L 172.163641 248.005925 
L 173.788945 244.171368 
L 185.166076 217.910224 
L 185.978728 216.280016 
L 186.79138 214.497878 
L 189.635663 208.757536 
L 190.854641 206.210745 
L 193.698924 200.961898 
L 195.324228 198.009161 
L 199.387489 191.331991 
L 201.419119 188.453216 
L 201.825445 187.807263 
L 202.638098 186.801742 
L 203.45075 185.595843 
L 205.48238 183.068974 
L 208.732989 179.231298 
L 209.545641 178.45296 
L 210.358293 177.724307 
L 213.202576 175.191093 
L 216.046859 172.892025 
L 217.672163 171.885402 
L 218.484815 171.347717 
L 218.891141 171.120023 
L 219.297467 171.046437 
L 220.516446 170.305551 
L 220.922772 170.202902 
L 221.735424 169.708288 
L 225.798685 168.240738 
L 226.205011 168.284077 
L 226.611337 168.067648 
L 227.830315 167.938705 
L 229.45562 167.598038 
L 229.861946 167.519828 
L 230.674598 167.536255 
L 231.080924 167.560882 
L 231.48725 167.407473 
L 232.299902 167.487 
L 233.112554 167.485548 
L 233.51888 167.385373 
L 234.331533 167.556661 
L 234.737859 167.454388 
L 241.645402 168.666982 
L 242.458054 169.065588 
L 242.86438 169.083709 
L 243.270707 169.343773 
L 243.677033 169.407061 
L 244.489685 169.723209 
L 245.302337 170.008869 
L 246.521315 170.624737 
L 246.927641 170.63541 
L 248.14662 171.141989 
L 250.17825 172.145735 
L 251.397228 172.706058 
L 251.803554 173.060921 
L 252.616207 173.394033 
L 253.428859 173.896901 
L 254.241511 174.253996 
L 254.647837 174.602218 
L 255.460489 174.91608 
L 255.866815 175.299657 
L 256.679468 175.725901 
L 257.898446 176.614308 
L 258.711098 176.904807 
L 259.117424 177.363368 
L 260.742728 178.221851 
L 261.555381 178.987445 
L 262.774359 179.666495 
L 263.587011 180.308684 
L 268.056598 183.644083 
L 268.86925 184.178569 
L 269.275576 184.440918 
L 269.681902 184.83818 
L 270.088228 185.02326 
L 271.713533 186.383805 
L 272.526185 186.914957 
L 273.338837 187.697597 
L 274.964142 188.954874 
L 276.18312 190.040192 
L 276.995772 190.514588 
L 279.433729 192.634786 
L 281.871685 194.593132 
L 282.278011 195.087128 
L 285.122294 197.317529 
L 286.341272 198.496462 
L 288.372902 200.080051 
L 288.779229 200.541837 
L 289.591881 201.027929 
L 289.998207 201.575965 
L 290.404533 201.813795 
L 290.810859 202.247244 
L 291.623511 202.789069 
L 293.248816 204.283666 
L 293.655142 204.475414 
L 294.467794 205.275556 
L 295.686772 206.200179 
L 297.718403 207.980892 
L 298.124729 208.232675 
L 299.750033 209.731063 
L 300.562685 210.301037 
L 300.969011 210.719108 
L 301.781663 211.329277 
L 305.438598 214.269834 
L 305.844924 214.701993 
L 307.063903 215.625809 
L 312.346142 219.829586 
L 313.158794 220.452794 
L 314.377772 221.438178 
L 318.847359 224.877651 
L 322.097968 227.356637 
L 322.91062 227.821354 
L 323.316946 228.247383 
L 323.723272 228.398319 
L 324.129598 228.849432 
L 325.348577 229.688505 
L 325.754903 230.011212 
L 326.161229 230.17465 
L 326.973881 230.840283 
L 327.380207 231.066203 
L 328.192859 231.67656 
L 329.818164 232.763356 
L 330.630816 233.449826 
L 331.037142 233.595061 
L 332.25612 234.528852 
L 333.881425 235.607313 
L 334.694077 236.165324 
L 335.913055 236.964579 
L 336.319381 237.286453 
L 337.132033 237.692882 
L 337.538359 238.068931 
L 339.163664 239.013879 
L 339.976316 239.53718 
L 341.60162 240.608275 
L 342.007946 240.796367 
L 342.414272 241.156311 
L 343.226925 241.640924 
L 344.039577 242.112927 
L 344.852229 242.629372 
L 346.071207 243.324929 
L 346.883859 243.885306 
L 347.696512 244.359057 
L 349.728142 245.550276 
L 350.540794 245.952512 
L 351.759772 246.719638 
L 352.572425 247.132144 
L 355.010381 248.601038 
L 356.229359 249.12727 
L 357.448338 249.85966 
L 358.26099 250.307063 
L 361.511599 251.95929 
L 365.574859 254.022544 
L 367.200164 254.811582 
L 368.419142 255.400162 
L 369.63812 255.981294 
L 372.482403 257.290568 
L 372.888729 257.589428 
L 374.107707 258.013979 
L 375.733012 258.778228 
L 376.545664 259.1129 
L 378.170968 259.85876 
L 378.98362 260.152431 
L 381.015251 261.047963 
L 381.827903 261.328246 
L 383.453207 262.056012 
L 385.891164 262.990904 
L 390.767077 264.849156 
L 391.579729 265.098923 
L 392.392381 265.450156 
L 393.205034 265.701483 
L 394.830338 266.292724 
L 395.64299 266.558649 
L 396.049316 266.763006 
L 396.455642 266.823795 
L 397.674621 267.312521 
L 398.080947 267.334137 
L 398.487273 267.549141 
L 398.487273 267.549141 
" clip-path="url(#pd7f9e2dcb7)" style="fill: none; stroke-dasharray: 1.85,0.8; stroke-dashoffset: 0; stroke: #ffb360; stroke-width: 0.5"/>
   </g>
   <g id="line2d_19">
    <path d="M 73.832727 295.488 
L 126.721312 295.391266 
L 132.417006 295.171557 
L 135.671688 294.910659 
L 138.92637 294.429971 
L 141.367382 293.829885 
L 142.994723 293.327017 
L 144.622064 292.635305 
L 146.249405 291.744612 
L 147.876746 290.635581 
L 149.504087 289.26076 
L 151.131429 287.508115 
L 152.75877 285.37555 
L 154.386111 282.864087 
L 156.013452 279.814239 
L 157.640793 276.320484 
L 159.268134 272.209838 
L 160.895475 267.715832 
L 162.522816 262.708149 
L 164.963828 254.417332 
L 167.404839 245.378343 
L 170.659522 232.576151 
L 175.541545 212.029942 
L 185.305591 170.132972 
L 193.442297 137.845504 
L 198.32432 120.506342 
L 204.020014 102.746448 
L 205.647355 98.325865 
L 208.088366 91.70908 
L 208.902037 89.864943 
L 210.529378 85.814199 
L 212.97039 80.472786 
L 217.852413 71.260385 
L 219.479754 68.661086 
L 221.920766 65.177063 
L 225.175448 61.181112 
L 225.989118 60.505773 
L 226.802789 59.618494 
L 228.43013 58.337799 
L 229.2438 57.590057 
L 231.684812 56.024052 
L 234.125824 54.960082 
L 236.566835 54.142706 
L 239.821517 53.568 
L 241.448859 53.811341 
L 242.262529 53.764426 
L 243.0762 53.869925 
L 243.88987 54.222368 
L 244.703541 54.279662 
L 245.517211 54.630357 
L 246.330882 54.839823 
L 247.144552 55.192293 
L 247.958223 55.338819 
L 249.585564 56.098821 
L 251.212905 56.989729 
L 252.840246 58.076928 
L 254.467587 59.132914 
L 256.094928 60.37441 
L 256.908599 60.948605 
L 260.976951 64.640776 
L 263.417963 67.171463 
L 264.231634 67.755445 
L 265.045304 68.928759 
L 268.299986 72.36998 
L 269.927327 74.422748 
L 270.740998 75.360975 
L 271.554668 76.514904 
L 273.18201 78.493657 
L 273.99568 79.575828 
L 274.809351 80.347875 
L 276.436692 82.678184 
L 282.132386 90.408812 
L 287.014409 97.436114 
L 287.828079 98.452846 
L 290.269091 102.194245 
L 294.337444 108.324401 
L 295.151114 109.389312 
L 297.592126 113.035321 
L 304.10149 122.803608 
L 304.915161 124.203379 
L 305.728831 125.277109 
L 307.356172 127.754562 
L 316.306548 140.924549 
L 317.120219 141.896355 
L 317.933889 143.085881 
L 318.74756 144.48248 
L 323.629583 151.274237 
L 336.648312 168.908173 
L 339.089323 171.987245 
L 344.785017 179.147872 
L 345.598688 179.927769 
L 348.85337 183.908799 
L 350.480711 185.799313 
L 352.921722 188.583074 
L 361.058428 197.551703 
L 365.126781 201.780537 
L 369.195133 205.865184 
L 371.636145 208.139329 
L 372.449815 209.034135 
L 378.145509 214.219881 
L 378.95918 215.009081 
L 380.586521 216.318597 
L 383.027532 218.617395 
L 383.841203 219.174922 
L 385.468544 220.554126 
L 386.282215 221.180829 
L 387.909556 222.629182 
L 389.536897 223.800534 
L 393.605249 227.050329 
L 398.487273 230.626624 
L 398.487273 230.626624 
" clip-path="url(#pd7f9e2dcb7)" style="fill: none; stroke-dasharray: 1.85,0.8; stroke-dashoffset: 0; stroke: #ff0000; stroke-width: 0.5"/>
   </g>
   <g id="patch_3">
    <path d="M 57.6 307.584 
L 57.6 41.472 
" style="fill: none; stroke: #000000; stroke-width: 0.8; stroke-linejoin: miter; stroke-linecap: square"/>
   </g>
   <g id="patch_4">
    <path d="M 414.72 307.584 
L 414.72 41.472 
" style="fill: none; stroke: #000000; stroke-width: 0.8; stroke-linejoin: miter; stroke-linecap: square"/>
   </g>
   <g id="patch_5">
    <path d="M 57.6 307.584 
L 414.72 307.584 
" style="fill: none; stroke: #000000; stroke-width: 0.8; stroke-linejoin: miter; stroke-linecap: square"/>
   </g>
   <g id="patch_6">
    <path d="M 57.6 41.472 
L 414.72 41.472 
" style="fill: none; stroke: #000000; stroke-width: 0.8; stroke-linejoin: miter; stroke-linecap: square"/>
   </g>
   <g id="legend_1">
    <g id="patch_7">
     <path d="M 243.16 152.0832 
L 483.36 152.0832 
Q 485.36 152.0832 485.36 150.0832 
L 485.36 75.0832 
Q 485.36 73.0832 483.36 73.0832 
L 243.16 73.0832 
Q 241.16 73.0832 241.16 75.0832 
L 241.16 150.0832 
Q 241.16 152.0832 243.16 152.0832 
z
" style="fill: #ffffff; opacity: 0.8; stroke: #cccccc; stroke-linejoin: miter"/>
    </g>
    <g id="line2d_20">
     <path d="M 245.16 81.3832 
L 255.16 81.3832 
L 265.16 81.3832 
" style="fill: none; stroke-dasharray: 1.85,0.8; stroke-dashoffset: 0; stroke: #8000ff; stroke-width: 0.5"/>
    </g>
    <g id="text_18">
     <!-- $\rho'$: 3e-04, E=1e+00eV, s_tun=1e+12$s^-1$ -->
     <g transform="translate(273.16 84.8832) scale(0.1 -0.1)">
      <defs>
       <path id="DejaVuSans-Oblique-3c1" d="M 1203 2875 
Q 1453 3194 1981 3475 
Q 2188 3584 2756 3584 
Q 3394 3584 3694 3078 
Q 3994 2572 3834 1747 
Q 3672 922 3175 415 
Q 2678 -91 2041 -91 
Q 1656 -91 1409 63 
Q 1163 213 1044 525 
L 681 -1331 
L 103 -1331 
L 697 1716 
Q 838 2438 1203 2875 
z
M 3238 1747 
Q 3359 2381 3169 2744 
Q 2978 3103 2522 3103 
Q 2066 3103 1734 2744 
Q 1403 2381 1281 1747 
Q 1156 1113 1347 750 
Q 1538 391 1994 391 
Q 2450 391 2781 750 
Q 3113 1113 3238 1747 
z
" transform="scale(0.015625)"/>
       <path id="Cmsy10-30" d="M 225 347 
Q 184 359 184 409 
L 966 3316 
Q 1003 3434 1093 3506 
Q 1184 3578 1300 3578 
Q 1450 3578 1564 3479 
Q 1678 3381 1678 3231 
Q 1678 3166 1644 3084 
L 488 319 
Q 466 275 428 275 
Q 394 275 320 306 
Q 247 338 225 347 
z
" transform="scale(0.015625)"/>
       <path id="DejaVuSans-3a" d="M 750 794 
L 1409 794 
L 1409 0 
L 750 0 
L 750 794 
z
M 750 3309 
L 1409 3309 
L 1409 2516 
L 750 2516 
L 750 3309 
z
" transform="scale(0.015625)"/>
       <path id="DejaVuSans-2d" d="M 313 2009 
L 1997 2009 
L 1997 1497 
L 313 1497 
L 313 2009 
z
" transform="scale(0.015625)"/>
       <path id="DejaVuSans-2c" d="M 750 794 
L 1409 794 
L 1409 256 
L 897 -744 
L 494 -744 
L 750 256 
L 750 794 
z
" transform="scale(0.015625)"/>
       <path id="DejaVuSans-45" d="M 628 4666 
L 3578 4666 
L 3578 4134 
L 1259 4134 
L 1259 2753 
L 3481 2753 
L 3481 2222 
L 1259 2222 
L 1259 531 
L 3634 531 
L 3634 0 
L 628 0 
L 628 4666 
z
" transform="scale(0.015625)"/>
       <path id="DejaVuSans-3d" d="M 678 2906 
L 4684 2906 
L 4684 2381 
L 678 2381 
L 678 2906 
z
M 678 1631 
L 4684 1631 
L 4684 1100 
L 678 1100 
L 678 1631 
z
" transform="scale(0.015625)"/>
       <path id="DejaVuSans-2b" d="M 2944 4013 
L 2944 2272 
L 4684 2272 
L 4684 1741 
L 2944 1741 
L 2944 0 
L 2419 0 
L 2419 1741 
L 678 1741 
L 678 2272 
L 2419 2272 
L 2419 4013 
L 2944 4013 
z
" transform="scale(0.015625)"/>
       <path id="DejaVuSans-56" d="M 1831 0 
L 50 4666 
L 709 4666 
L 2188 738 
L 3669 4666 
L 4325 4666 
L 2547 0 
L 1831 0 
z
" transform="scale(0.015625)"/>
       <path id="DejaVuSans-5f" d="M 3263 -1063 
L 3263 -1509 
L -63 -1509 
L -63 -1063 
L 3263 -1063 
z
" transform="scale(0.015625)"/>
       <path id="DejaVuSans-Oblique-73" d="M 3200 3397 
L 3091 2853 
Q 2863 2978 2609 3040 
Q 2356 3103 2088 3103 
Q 1634 3103 1373 2948 
Q 1113 2794 1113 2528 
Q 1113 2219 1719 2053 
Q 1766 2041 1788 2034 
L 1972 1978 
Q 2547 1819 2739 1644 
Q 2931 1469 2931 1166 
Q 2931 609 2489 259 
Q 2047 -91 1331 -91 
Q 1053 -91 747 -37 
Q 441 16 72 128 
L 184 722 
Q 500 559 806 475 
Q 1113 391 1394 391 
Q 1816 391 2080 572 
Q 2344 753 2344 1031 
Q 2344 1331 1650 1516 
L 1591 1531 
L 1394 1581 
Q 956 1697 753 1886 
Q 550 2075 550 2369 
Q 550 2928 970 3256 
Q 1391 3584 2113 3584 
Q 2397 3584 2667 3537 
Q 2938 3491 3200 3397 
z
" transform="scale(0.015625)"/>
      </defs>
      <use xlink:href="#DejaVuSans-Oblique-3c1" transform="translate(0 0.584375)"/>
      <use xlink:href="#Cmsy10-30" transform="translate(68.126458 38.865625) scale(0.7)"/>
      <use xlink:href="#DejaVuSans-3a" transform="translate(90.103997 0.584375)"/>
      <use xlink:href="#DejaVuSans-20" transform="translate(123.795404 0.584375)"/>
      <use xlink:href="#DejaVuSans-33" transform="translate(155.582513 0.584375)"/>
      <use xlink:href="#DejaVuSans-65" transform="translate(219.20556 0.584375)"/>
      <use xlink:href="#DejaVuSans-2d" transform="translate(280.728997 0.584375)"/>
      <use xlink:href="#DejaVuSans-30" transform="translate(316.812982 0.584375)"/>
      <use xlink:href="#DejaVuSans-34" transform="translate(380.436029 0.584375)"/>
      <use xlink:href="#DejaVuSans-2c" transform="translate(444.059076 0.584375)"/>
      <use xlink:href="#DejaVuSans-20" transform="translate(475.846185 0.584375)"/>
      <use xlink:href="#DejaVuSans-45" transform="translate(507.633294 0.584375)"/>
      <use xlink:href="#DejaVuSans-3d" transform="translate(570.816888 0.584375)"/>
      <use xlink:href="#DejaVuSans-31" transform="translate(654.605951 0.584375)"/>
      <use xlink:href="#DejaVuSans-65" transform="translate(718.228997 0.584375)"/>
      <use xlink:href="#DejaVuSans-2b" transform="translate(779.752435 0.584375)"/>
      <use xlink:href="#DejaVuSans-30" transform="translate(863.541497 0.584375)"/>
      <use xlink:href="#DejaVuSans-30" transform="translate(927.164544 0.584375)"/>
      <use xlink:href="#DejaVuSans-65" transform="translate(990.787591 0.584375)"/>
      <use xlink:href="#DejaVuSans-56" transform="translate(1052.311029 0.584375)"/>
      <use xlink:href="#DejaVuSans-2c" transform="translate(1120.719232 0.584375)"/>
      <use xlink:href="#DejaVuSans-20" transform="translate(1152.506341 0.584375)"/>
      <use xlink:href="#DejaVuSans-73" transform="translate(1184.293451 0.584375)"/>
      <use xlink:href="#DejaVuSans-5f" transform="translate(1236.39306 0.584375)"/>
      <use xlink:href="#DejaVuSans-74" transform="translate(1286.39306 0.584375)"/>
      <use xlink:href="#DejaVuSans-75" transform="translate(1325.602044 0.584375)"/>
      <use xlink:href="#DejaVuSans-6e" transform="translate(1388.980951 0.584375)"/>
      <use xlink:href="#DejaVuSans-3d" transform="translate(1452.359857 0.584375)"/>
      <use xlink:href="#DejaVuSans-31" transform="translate(1536.148919 0.584375)"/>
      <use xlink:href="#DejaVuSans-65" transform="translate(1599.771966 0.584375)"/>
      <use xlink:href="#DejaVuSans-2b" transform="translate(1661.295404 0.584375)"/>
      <use xlink:href="#DejaVuSans-31" transform="translate(1745.084466 0.584375)"/>
      <use xlink:href="#DejaVuSans-32" transform="translate(1808.707513 0.584375)"/>
      <use xlink:href="#DejaVuSans-Oblique-73" transform="translate(1872.33056 0.584375)"/>
      <use xlink:href="#DejaVuSans-2212" transform="translate(1942.71776 38.865625) scale(0.7)"/>
      <use xlink:href="#DejaVuSans-31" transform="translate(2017.742174 0.584375)"/>
     </g>
    </g>
    <g id="line2d_21">
     <path d="M 245.16 96.5832 
L 255.16 96.5832 
L 265.16 96.5832 
" style="fill: none; stroke-dasharray: 1.85,0.8; stroke-dashoffset: 0; stroke: #00b5eb; stroke-width: 0.5"/>
    </g>
    <g id="text_19">
     <!-- $\rho'$: 3e-04, E=1e+00eV, s_tun=1e+12$s^-1$ -->
     <g transform="translate(273.16 100.0832) scale(0.1 -0.1)">
      <use xlink:href="#DejaVuSans-Oblique-3c1" transform="translate(0 0.584375)"/>
      <use xlink:href="#Cmsy10-30" transform="translate(68.126458 38.865625) scale(0.7)"/>
      <use xlink:href="#DejaVuSans-3a" transform="translate(90.103997 0.584375)"/>
      <use xlink:href="#DejaVuSans-20" transform="translate(123.795404 0.584375)"/>
      <use xlink:href="#DejaVuSans-33" transform="translate(155.582513 0.584375)"/>
      <use xlink:href="#DejaVuSans-65" transform="translate(219.20556 0.584375)"/>
      <use xlink:href="#DejaVuSans-2d" transform="translate(280.728997 0.584375)"/>
      <use xlink:href="#DejaVuSans-30" transform="translate(316.812982 0.584375)"/>
      <use xlink:href="#DejaVuSans-34" transform="translate(380.436029 0.584375)"/>
      <use xlink:href="#DejaVuSans-2c" transform="translate(444.059076 0.584375)"/>
      <use xlink:href="#DejaVuSans-20" transform="translate(475.846185 0.584375)"/>
      <use xlink:href="#DejaVuSans-45" transform="translate(507.633294 0.584375)"/>
      <use xlink:href="#DejaVuSans-3d" transform="translate(570.816888 0.584375)"/>
      <use xlink:href="#DejaVuSans-31" transform="translate(654.605951 0.584375)"/>
      <use xlink:href="#DejaVuSans-65" transform="translate(718.228997 0.584375)"/>
      <use xlink:href="#DejaVuSans-2b" transform="translate(779.752435 0.584375)"/>
      <use xlink:href="#DejaVuSans-30" transform="translate(863.541497 0.584375)"/>
      <use xlink:href="#DejaVuSans-30" transform="translate(927.164544 0.584375)"/>
      <use xlink:href="#DejaVuSans-65" transform="translate(990.787591 0.584375)"/>
      <use xlink:href="#DejaVuSans-56" transform="translate(1052.311029 0.584375)"/>
      <use xlink:href="#DejaVuSans-2c" transform="translate(1120.719232 0.584375)"/>
      <use xlink:href="#DejaVuSans-20" transform="translate(1152.506341 0.584375)"/>
      <use xlink:href="#DejaVuSans-73" transform="translate(1184.293451 0.584375)"/>
      <use xlink:href="#DejaVuSans-5f" transform="translate(1236.39306 0.584375)"/>
      <use xlink:href="#DejaVuSans-74" transform="translate(1286.39306 0.584375)"/>
      <use xlink:href="#DejaVuSans-75" transform="translate(1325.602044 0.584375)"/>
      <use xlink:href="#DejaVuSans-6e" transform="translate(1388.980951 0.584375)"/>
      <use xlink:href="#DejaVuSans-3d" transform="translate(1452.359857 0.584375)"/>
      <use xlink:href="#DejaVuSans-31" transform="translate(1536.148919 0.584375)"/>
      <use xlink:href="#DejaVuSans-65" transform="translate(1599.771966 0.584375)"/>
      <use xlink:href="#DejaVuSans-2b" transform="translate(1661.295404 0.584375)"/>
      <use xlink:href="#DejaVuSans-31" transform="translate(1745.084466 0.584375)"/>
      <use xlink:href="#DejaVuSans-32" transform="translate(1808.707513 0.584375)"/>
      <use xlink:href="#DejaVuSans-Oblique-73" transform="translate(1872.33056 0.584375)"/>
      <use xlink:href="#DejaVuSans-2212" transform="translate(1942.71776 38.865625) scale(0.7)"/>
      <use xlink:href="#DejaVuSans-31" transform="translate(2017.742174 0.584375)"/>
     </g>
    </g>
    <g id="line2d_22">
     <path d="M 245.16 111.7832 
L 255.16 111.7832 
L 265.16 111.7832 
" style="fill: none; stroke-dasharray: 1.85,0.8; stroke-dashoffset: 0; stroke: #80ffb4; stroke-width: 0.5"/>
    </g>
    <g id="text_20">
     <!-- $\rho'$: 3e-04, E=1e+00eV, s_tun=1e+12$s^-1$ -->
     <g transform="translate(273.16 115.2832) scale(0.1 -0.1)">
      <use xlink:href="#DejaVuSans-Oblique-3c1" transform="translate(0 0.584375)"/>
      <use xlink:href="#Cmsy10-30" transform="translate(68.126458 38.865625) scale(0.7)"/>
      <use xlink:href="#DejaVuSans-3a" transform="translate(90.103997 0.584375)"/>
      <use xlink:href="#DejaVuSans-20" transform="translate(123.795404 0.584375)"/>
      <use xlink:href="#DejaVuSans-33" transform="translate(155.582513 0.584375)"/>
      <use xlink:href="#DejaVuSans-65" transform="translate(219.20556 0.584375)"/>
      <use xlink:href="#DejaVuSans-2d" transform="translate(280.728997 0.584375)"/>
      <use xlink:href="#DejaVuSans-30" transform="translate(316.812982 0.584375)"/>
      <use xlink:href="#DejaVuSans-34" transform="translate(380.436029 0.584375)"/>
      <use xlink:href="#DejaVuSans-2c" transform="translate(444.059076 0.584375)"/>
      <use xlink:href="#DejaVuSans-20" transform="translate(475.846185 0.584375)"/>
      <use xlink:href="#DejaVuSans-45" transform="translate(507.633294 0.584375)"/>
      <use xlink:href="#DejaVuSans-3d" transform="translate(570.816888 0.584375)"/>
      <use xlink:href="#DejaVuSans-31" transform="translate(654.605951 0.584375)"/>
      <use xlink:href="#DejaVuSans-65" transform="translate(718.228997 0.584375)"/>
      <use xlink:href="#DejaVuSans-2b" transform="translate(779.752435 0.584375)"/>
      <use xlink:href="#DejaVuSans-30" transform="translate(863.541497 0.584375)"/>
      <use xlink:href="#DejaVuSans-30" transform="translate(927.164544 0.584375)"/>
      <use xlink:href="#DejaVuSans-65" transform="translate(990.787591 0.584375)"/>
      <use xlink:href="#DejaVuSans-56" transform="translate(1052.311029 0.584375)"/>
      <use xlink:href="#DejaVuSans-2c" transform="translate(1120.719232 0.584375)"/>
      <use xlink:href="#DejaVuSans-20" transform="translate(1152.506341 0.584375)"/>
      <use xlink:href="#DejaVuSans-73" transform="translate(1184.293451 0.584375)"/>
      <use xlink:href="#DejaVuSans-5f" transform="translate(1236.39306 0.584375)"/>
      <use xlink:href="#DejaVuSans-74" transform="translate(1286.39306 0.584375)"/>
      <use xlink:href="#DejaVuSans-75" transform="translate(1325.602044 0.584375)"/>
      <use xlink:href="#DejaVuSans-6e" transform="translate(1388.980951 0.584375)"/>
      <use xlink:href="#DejaVuSans-3d" transform="translate(1452.359857 0.584375)"/>
      <use xlink:href="#DejaVuSans-31" transform="translate(1536.148919 0.584375)"/>
      <use xlink:href="#DejaVuSans-65" transform="translate(1599.771966 0.584375)"/>
      <use xlink:href="#DejaVuSans-2b" transform="translate(1661.295404 0.584375)"/>
      <use xlink:href="#DejaVuSans-31" transform="translate(1745.084466 0.584375)"/>
      <use xlink:href="#DejaVuSans-32" transform="translate(1808.707513 0.584375)"/>
      <use xlink:href="#DejaVuSans-Oblique-73" transform="translate(1872.33056 0.584375)"/>
      <use xlink:href="#DejaVuSans-2212" transform="translate(1942.71776 38.865625) scale(0.7)"/>
      <use xlink:href="#DejaVuSans-31" transform="translate(2017.742174 0.584375)"/>
     </g>
    </g>
    <g id="line2d_23">
     <path d="M 245.16 126.9832 
L 255.16 126.9832 
L 265.16 126.9832 
" style="fill: none; stroke-dasharray: 1.85,0.8; stroke-dashoffset: 0; stroke: #ffb360; stroke-width: 0.5"/>
    </g>
    <g id="text_21">
     <!-- $\rho'$: 3e-04, E=1e+00eV, s_tun=1e+12$s^-1$ -->
     <g transform="translate(273.16 130.4832) scale(0.1 -0.1)">
      <use xlink:href="#DejaVuSans-Oblique-3c1" transform="translate(0 0.584375)"/>
      <use xlink:href="#Cmsy10-30" transform="translate(68.126458 38.865625) scale(0.7)"/>
      <use xlink:href="#DejaVuSans-3a" transform="translate(90.103997 0.584375)"/>
      <use xlink:href="#DejaVuSans-20" transform="translate(123.795404 0.584375)"/>
      <use xlink:href="#DejaVuSans-33" transform="translate(155.582513 0.584375)"/>
      <use xlink:href="#DejaVuSans-65" transform="translate(219.20556 0.584375)"/>
      <use xlink:href="#DejaVuSans-2d" transform="translate(280.728997 0.584375)"/>
      <use xlink:href="#DejaVuSans-30" transform="translate(316.812982 0.584375)"/>
      <use xlink:href="#DejaVuSans-34" transform="translate(380.436029 0.584375)"/>
      <use xlink:href="#DejaVuSans-2c" transform="translate(444.059076 0.584375)"/>
      <use xlink:href="#DejaVuSans-20" transform="translate(475.846185 0.584375)"/>
      <use xlink:href="#DejaVuSans-45" transform="translate(507.633294 0.584375)"/>
      <use xlink:href="#DejaVuSans-3d" transform="translate(570.816888 0.584375)"/>
      <use xlink:href="#DejaVuSans-31" transform="translate(654.605951 0.584375)"/>
      <use xlink:href="#DejaVuSans-65" transform="translate(718.228997 0.584375)"/>
      <use xlink:href="#DejaVuSans-2b" transform="translate(779.752435 0.584375)"/>
      <use xlink:href="#DejaVuSans-30" transform="translate(863.541497 0.584375)"/>
      <use xlink:href="#DejaVuSans-30" transform="translate(927.164544 0.584375)"/>
      <use xlink:href="#DejaVuSans-65" transform="translate(990.787591 0.584375)"/>
      <use xlink:href="#DejaVuSans-56" transform="translate(1052.311029 0.584375)"/>
      <use xlink:href="#DejaVuSans-2c" transform="translate(1120.719232 0.584375)"/>
      <use xlink:href="#DejaVuSans-20" transform="translate(1152.506341 0.584375)"/>
      <use xlink:href="#DejaVuSans-73" transform="translate(1184.293451 0.584375)"/>
      <use xlink:href="#DejaVuSans-5f" transform="translate(1236.39306 0.584375)"/>
      <use xlink:href="#DejaVuSans-74" transform="translate(1286.39306 0.584375)"/>
      <use xlink:href="#DejaVuSans-75" transform="translate(1325.602044 0.584375)"/>
      <use xlink:href="#DejaVuSans-6e" transform="translate(1388.980951 0.584375)"/>
      <use xlink:href="#DejaVuSans-3d" transform="translate(1452.359857 0.584375)"/>
      <use xlink:href="#DejaVuSans-31" transform="translate(1536.148919 0.584375)"/>
      <use xlink:href="#DejaVuSans-65" transform="translate(1599.771966 0.584375)"/>
      <use xlink:href="#DejaVuSans-2b" transform="translate(1661.295404 0.584375)"/>
      <use xlink:href="#DejaVuSans-31" transform="translate(1745.084466 0.584375)"/>
      <use xlink:href="#DejaVuSans-32" transform="translate(1808.707513 0.584375)"/>
      <use xlink:href="#DejaVuSans-Oblique-73" transform="translate(1872.33056 0.584375)"/>
      <use xlink:href="#DejaVuSans-2212" transform="translate(1942.71776 38.865625) scale(0.7)"/>
      <use xlink:href="#DejaVuSans-31" transform="translate(2017.742174 0.584375)"/>
     </g>
    </g>
    <g id="line2d_24">
     <path d="M 245.16 142.1832 
L 255.16 142.1832 
L 265.16 142.1832 
" style="fill: none; stroke-dasharray: 1.85,0.8; stroke-dashoffset: 0; stroke: #ff0000; stroke-width: 0.5"/>
    </g>
    <g id="text_22">
     <!-- $\rho'$: 3e-04, E=1e+00eV, s_tun=1e+12$s^-1$ -->
     <g transform="translate(273.16 145.6832) scale(0.1 -0.1)">
      <use xlink:href="#DejaVuSans-Oblique-3c1" transform="translate(0 0.584375)"/>
      <use xlink:href="#Cmsy10-30" transform="translate(68.126458 38.865625) scale(0.7)"/>
      <use xlink:href="#DejaVuSans-3a" transform="translate(90.103997 0.584375)"/>
      <use xlink:href="#DejaVuSans-20" transform="translate(123.795404 0.584375)"/>
      <use xlink:href="#DejaVuSans-33" transform="translate(155.582513 0.584375)"/>
      <use xlink:href="#DejaVuSans-65" transform="translate(219.20556 0.584375)"/>
      <use xlink:href="#DejaVuSans-2d" transform="translate(280.728997 0.584375)"/>
      <use xlink:href="#DejaVuSans-30" transform="translate(316.812982 0.584375)"/>
      <use xlink:href="#DejaVuSans-34" transform="translate(380.436029 0.584375)"/>
      <use xlink:href="#DejaVuSans-2c" transform="translate(444.059076 0.584375)"/>
      <use xlink:href="#DejaVuSans-20" transform="translate(475.846185 0.584375)"/>
      <use xlink:href="#DejaVuSans-45" transform="translate(507.633294 0.584375)"/>
      <use xlink:href="#DejaVuSans-3d" transform="translate(570.816888 0.584375)"/>
      <use xlink:href="#DejaVuSans-31" transform="translate(654.605951 0.584375)"/>
      <use xlink:href="#DejaVuSans-65" transform="translate(718.228997 0.584375)"/>
      <use xlink:href="#DejaVuSans-2b" transform="translate(779.752435 0.584375)"/>
      <use xlink:href="#DejaVuSans-30" transform="translate(863.541497 0.584375)"/>
      <use xlink:href="#DejaVuSans-30" transform="translate(927.164544 0.584375)"/>
      <use xlink:href="#DejaVuSans-65" transform="translate(990.787591 0.584375)"/>
      <use xlink:href="#DejaVuSans-56" transform="translate(1052.311029 0.584375)"/>
      <use xlink:href="#DejaVuSans-2c" transform="translate(1120.719232 0.584375)"/>
      <use xlink:href="#DejaVuSans-20" transform="translate(1152.506341 0.584375)"/>
      <use xlink:href="#DejaVuSans-73" transform="translate(1184.293451 0.584375)"/>
      <use xlink:href="#DejaVuSans-5f" transform="translate(1236.39306 0.584375)"/>
      <use xlink:href="#DejaVuSans-74" transform="translate(1286.39306 0.584375)"/>
      <use xlink:href="#DejaVuSans-75" transform="translate(1325.602044 0.584375)"/>
      <use xlink:href="#DejaVuSans-6e" transform="translate(1388.980951 0.584375)"/>
      <use xlink:href="#DejaVuSans-3d" transform="translate(1452.359857 0.584375)"/>
      <use xlink:href="#DejaVuSans-31" transform="translate(1536.148919 0.584375)"/>
      <use xlink:href="#DejaVuSans-65" transform="translate(1599.771966 0.584375)"/>
      <use xlink:href="#DejaVuSans-2b" transform="translate(1661.295404 0.584375)"/>
      <use xlink:href="#DejaVuSans-31" transform="translate(1745.084466 0.584375)"/>
      <use xlink:href="#DejaVuSans-32" transform="translate(1808.707513 0.584375)"/>
      <use xlink:href="#DejaVuSans-Oblique-73" transform="translate(1872.33056 0.584375)"/>
      <use xlink:href="#DejaVuSans-2212" transform="translate(1942.71776 38.865625) scale(0.7)"/>
      <use xlink:href="#DejaVuSans-31" transform="translate(2017.742174 0.584375)"/>
     </g>
    </g>
   </g>
  </g>
 </g>
 <defs>
  <clipPath id="pd7f9e2dcb7">
   <rect x="57.6" y="41.472" width="357.12" height="266.112"/>
  </clipPath>
 </defs>
</svg>
