<?xml version="1.0" encoding="utf-8" standalone="no"?>
<!DOCTYPE svg PUBLIC "-//W3C//DTD SVG 1.1//EN"
  "http://www.w3.org/Graphics/SVG/1.1/DTD/svg11.dtd">
<svg xmlns:xlink="http://www.w3.org/1999/xlink" width="460.8pt" height="345.6pt" viewBox="0 0 460.8 345.6" xmlns="http://www.w3.org/2000/svg" version="1.1">
 <metadata>
  <rdf:RDF xmlns:dc="http://purl.org/dc/elements/1.1/" xmlns:cc="http://creativecommons.org/ns#" xmlns:rdf="http://www.w3.org/1999/02/22-rdf-syntax-ns#">
   <cc:Work>
    <dc:type rdf:resource="http://purl.org/dc/dcmitype/StillImage"/>
    <dc:date>2025-03-04T12:56:22.951834</dc:date>
    <dc:format>image/svg+xml</dc:format>
    <dc:creator>
     <cc:Agent>
      <dc:title>Matplotlib v3.10.0, https://matplotlib.org/</dc:title>
     </cc:Agent>
    </dc:creator>
   </cc:Work>
  </rdf:RDF>
 </metadata>
 <defs>
  <style type="text/css">*{stroke-linejoin: round; stroke-linecap: butt}</style>
 </defs>
 <g id="figure_1">
  <g id="patch_1">
   <path d="M 0 345.6 
L 460.8 345.6 
L 460.8 0 
L 0 0 
z
" style="fill: #ffffff"/>
  </g>
  <g id="axes_1">
   <g id="patch_2">
    <path d="M 57.6 307.584 
L 414.72 307.584 
L 414.72 41.472 
L 57.6 41.472 
z
" style="fill: #ffffff"/>
   </g>
   <g id="matplotlib.axis_1">
    <g id="xtick_1">
     <g id="line2d_1">
      <defs>
       <path id="mb722efd7d0" d="M 0 0 
L 0 3.5 
" style="stroke: #000000; stroke-width: 0.8"/>
      </defs>
      <g>
       <use xlink:href="#mb722efd7d0" x="73.832727" y="307.584" style="stroke: #000000; stroke-width: 0.8"/>
      </g>
     </g>
     <g id="text_1">
      <!-- 0 -->
      <g transform="translate(70.651477 322.182437) scale(0.1 -0.1)">
       <defs>
        <path id="DejaVuSans-30" d="M 2034 4250 
Q 1547 4250 1301 3770 
Q 1056 3291 1056 2328 
Q 1056 1369 1301 889 
Q 1547 409 2034 409 
Q 2525 409 2770 889 
Q 3016 1369 3016 2328 
Q 3016 3291 2770 3770 
Q 2525 4250 2034 4250 
z
M 2034 4750 
Q 2819 4750 3233 4129 
Q 3647 3509 3647 2328 
Q 3647 1150 3233 529 
Q 2819 -91 2034 -91 
Q 1250 -91 836 529 
Q 422 1150 422 2328 
Q 422 3509 836 4129 
Q 1250 4750 2034 4750 
z
" transform="scale(0.015625)"/>
       </defs>
       <use xlink:href="#DejaVuSans-30"/>
      </g>
     </g>
    </g>
    <g id="xtick_2">
     <g id="line2d_2">
      <g>
       <use xlink:href="#mb722efd7d0" x="114.414545" y="307.584" style="stroke: #000000; stroke-width: 0.8"/>
      </g>
     </g>
     <g id="text_2">
      <!-- 100 -->
      <g transform="translate(104.870795 322.182437) scale(0.1 -0.1)">
       <defs>
        <path id="DejaVuSans-31" d="M 794 531 
L 1825 531 
L 1825 4091 
L 703 3866 
L 703 4441 
L 1819 4666 
L 2450 4666 
L 2450 531 
L 3481 531 
L 3481 0 
L 794 0 
L 794 531 
z
" transform="scale(0.015625)"/>
       </defs>
       <use xlink:href="#DejaVuSans-31"/>
       <use xlink:href="#DejaVuSans-30" transform="translate(63.623047 0)"/>
       <use xlink:href="#DejaVuSans-30" transform="translate(127.246094 0)"/>
      </g>
     </g>
    </g>
    <g id="xtick_3">
     <g id="line2d_3">
      <g>
       <use xlink:href="#mb722efd7d0" x="154.996364" y="307.584" style="stroke: #000000; stroke-width: 0.8"/>
      </g>
     </g>
     <g id="text_3">
      <!-- 200 -->
      <g transform="translate(145.452614 322.182437) scale(0.1 -0.1)">
       <defs>
        <path id="DejaVuSans-32" d="M 1228 531 
L 3431 531 
L 3431 0 
L 469 0 
L 469 531 
Q 828 903 1448 1529 
Q 2069 2156 2228 2338 
Q 2531 2678 2651 2914 
Q 2772 3150 2772 3378 
Q 2772 3750 2511 3984 
Q 2250 4219 1831 4219 
Q 1534 4219 1204 4116 
Q 875 4013 500 3803 
L 500 4441 
Q 881 4594 1212 4672 
Q 1544 4750 1819 4750 
Q 2544 4750 2975 4387 
Q 3406 4025 3406 3419 
Q 3406 3131 3298 2873 
Q 3191 2616 2906 2266 
Q 2828 2175 2409 1742 
Q 1991 1309 1228 531 
z
" transform="scale(0.015625)"/>
       </defs>
       <use xlink:href="#DejaVuSans-32"/>
       <use xlink:href="#DejaVuSans-30" transform="translate(63.623047 0)"/>
       <use xlink:href="#DejaVuSans-30" transform="translate(127.246094 0)"/>
      </g>
     </g>
    </g>
    <g id="xtick_4">
     <g id="line2d_4">
      <g>
       <use xlink:href="#mb722efd7d0" x="195.578182" y="307.584" style="stroke: #000000; stroke-width: 0.8"/>
      </g>
     </g>
     <g id="text_4">
      <!-- 300 -->
      <g transform="translate(186.034432 322.182437) scale(0.1 -0.1)">
       <defs>
        <path id="DejaVuSans-33" d="M 2597 2516 
Q 3050 2419 3304 2112 
Q 3559 1806 3559 1356 
Q 3559 666 3084 287 
Q 2609 -91 1734 -91 
Q 1441 -91 1130 -33 
Q 819 25 488 141 
L 488 750 
Q 750 597 1062 519 
Q 1375 441 1716 441 
Q 2309 441 2620 675 
Q 2931 909 2931 1356 
Q 2931 1769 2642 2001 
Q 2353 2234 1838 2234 
L 1294 2234 
L 1294 2753 
L 1863 2753 
Q 2328 2753 2575 2939 
Q 2822 3125 2822 3475 
Q 2822 3834 2567 4026 
Q 2313 4219 1838 4219 
Q 1578 4219 1281 4162 
Q 984 4106 628 3988 
L 628 4550 
Q 988 4650 1302 4700 
Q 1616 4750 1894 4750 
Q 2613 4750 3031 4423 
Q 3450 4097 3450 3541 
Q 3450 3153 3228 2886 
Q 3006 2619 2597 2516 
z
" transform="scale(0.015625)"/>
       </defs>
       <use xlink:href="#DejaVuSans-33"/>
       <use xlink:href="#DejaVuSans-30" transform="translate(63.623047 0)"/>
       <use xlink:href="#DejaVuSans-30" transform="translate(127.246094 0)"/>
      </g>
     </g>
    </g>
    <g id="xtick_5">
     <g id="line2d_5">
      <g>
       <use xlink:href="#mb722efd7d0" x="236.16" y="307.584" style="stroke: #000000; stroke-width: 0.8"/>
      </g>
     </g>
     <g id="text_5">
      <!-- 400 -->
      <g transform="translate(226.61625 322.182437) scale(0.1 -0.1)">
       <defs>
        <path id="DejaVuSans-34" d="M 2419 4116 
L 825 1625 
L 2419 1625 
L 2419 4116 
z
M 2253 4666 
L 3047 4666 
L 3047 1625 
L 3713 1625 
L 3713 1100 
L 3047 1100 
L 3047 0 
L 2419 0 
L 2419 1100 
L 313 1100 
L 313 1709 
L 2253 4666 
z
" transform="scale(0.015625)"/>
       </defs>
       <use xlink:href="#DejaVuSans-34"/>
       <use xlink:href="#DejaVuSans-30" transform="translate(63.623047 0)"/>
       <use xlink:href="#DejaVuSans-30" transform="translate(127.246094 0)"/>
      </g>
     </g>
    </g>
    <g id="xtick_6">
     <g id="line2d_6">
      <g>
       <use xlink:href="#mb722efd7d0" x="276.741818" y="307.584" style="stroke: #000000; stroke-width: 0.8"/>
      </g>
     </g>
     <g id="text_6">
      <!-- 500 -->
      <g transform="translate(267.198068 322.182437) scale(0.1 -0.1)">
       <defs>
        <path id="DejaVuSans-35" d="M 691 4666 
L 3169 4666 
L 3169 4134 
L 1269 4134 
L 1269 2991 
Q 1406 3038 1543 3061 
Q 1681 3084 1819 3084 
Q 2600 3084 3056 2656 
Q 3513 2228 3513 1497 
Q 3513 744 3044 326 
Q 2575 -91 1722 -91 
Q 1428 -91 1123 -41 
Q 819 9 494 109 
L 494 744 
Q 775 591 1075 516 
Q 1375 441 1709 441 
Q 2250 441 2565 725 
Q 2881 1009 2881 1497 
Q 2881 1984 2565 2268 
Q 2250 2553 1709 2553 
Q 1456 2553 1204 2497 
Q 953 2441 691 2322 
L 691 4666 
z
" transform="scale(0.015625)"/>
       </defs>
       <use xlink:href="#DejaVuSans-35"/>
       <use xlink:href="#DejaVuSans-30" transform="translate(63.623047 0)"/>
       <use xlink:href="#DejaVuSans-30" transform="translate(127.246094 0)"/>
      </g>
     </g>
    </g>
    <g id="xtick_7">
     <g id="line2d_7">
      <g>
       <use xlink:href="#mb722efd7d0" x="317.323636" y="307.584" style="stroke: #000000; stroke-width: 0.8"/>
      </g>
     </g>
     <g id="text_7">
      <!-- 600 -->
      <g transform="translate(307.779886 322.182437) scale(0.1 -0.1)">
       <defs>
        <path id="DejaVuSans-36" d="M 2113 2584 
Q 1688 2584 1439 2293 
Q 1191 2003 1191 1497 
Q 1191 994 1439 701 
Q 1688 409 2113 409 
Q 2538 409 2786 701 
Q 3034 994 3034 1497 
Q 3034 2003 2786 2293 
Q 2538 2584 2113 2584 
z
M 3366 4563 
L 3366 3988 
Q 3128 4100 2886 4159 
Q 2644 4219 2406 4219 
Q 1781 4219 1451 3797 
Q 1122 3375 1075 2522 
Q 1259 2794 1537 2939 
Q 1816 3084 2150 3084 
Q 2853 3084 3261 2657 
Q 3669 2231 3669 1497 
Q 3669 778 3244 343 
Q 2819 -91 2113 -91 
Q 1303 -91 875 529 
Q 447 1150 447 2328 
Q 447 3434 972 4092 
Q 1497 4750 2381 4750 
Q 2619 4750 2861 4703 
Q 3103 4656 3366 4563 
z
" transform="scale(0.015625)"/>
       </defs>
       <use xlink:href="#DejaVuSans-36"/>
       <use xlink:href="#DejaVuSans-30" transform="translate(63.623047 0)"/>
       <use xlink:href="#DejaVuSans-30" transform="translate(127.246094 0)"/>
      </g>
     </g>
    </g>
    <g id="xtick_8">
     <g id="line2d_8">
      <g>
       <use xlink:href="#mb722efd7d0" x="357.905455" y="307.584" style="stroke: #000000; stroke-width: 0.8"/>
      </g>
     </g>
     <g id="text_8">
      <!-- 700 -->
      <g transform="translate(348.361705 322.182437) scale(0.1 -0.1)">
       <defs>
        <path id="DejaVuSans-37" d="M 525 4666 
L 3525 4666 
L 3525 4397 
L 1831 0 
L 1172 0 
L 2766 4134 
L 525 4134 
L 525 4666 
z
" transform="scale(0.015625)"/>
       </defs>
       <use xlink:href="#DejaVuSans-37"/>
       <use xlink:href="#DejaVuSans-30" transform="translate(63.623047 0)"/>
       <use xlink:href="#DejaVuSans-30" transform="translate(127.246094 0)"/>
      </g>
     </g>
    </g>
    <g id="xtick_9">
     <g id="line2d_9">
      <g>
       <use xlink:href="#mb722efd7d0" x="398.487273" y="307.584" style="stroke: #000000; stroke-width: 0.8"/>
      </g>
     </g>
     <g id="text_9">
      <!-- 800 -->
      <g transform="translate(388.943523 322.182437) scale(0.1 -0.1)">
       <defs>
        <path id="DejaVuSans-38" d="M 2034 2216 
Q 1584 2216 1326 1975 
Q 1069 1734 1069 1313 
Q 1069 891 1326 650 
Q 1584 409 2034 409 
Q 2484 409 2743 651 
Q 3003 894 3003 1313 
Q 3003 1734 2745 1975 
Q 2488 2216 2034 2216 
z
M 1403 2484 
Q 997 2584 770 2862 
Q 544 3141 544 3541 
Q 544 4100 942 4425 
Q 1341 4750 2034 4750 
Q 2731 4750 3128 4425 
Q 3525 4100 3525 3541 
Q 3525 3141 3298 2862 
Q 3072 2584 2669 2484 
Q 3125 2378 3379 2068 
Q 3634 1759 3634 1313 
Q 3634 634 3220 271 
Q 2806 -91 2034 -91 
Q 1263 -91 848 271 
Q 434 634 434 1313 
Q 434 1759 690 2068 
Q 947 2378 1403 2484 
z
M 1172 3481 
Q 1172 3119 1398 2916 
Q 1625 2713 2034 2713 
Q 2441 2713 2670 2916 
Q 2900 3119 2900 3481 
Q 2900 3844 2670 4047 
Q 2441 4250 2034 4250 
Q 1625 4250 1398 4047 
Q 1172 3844 1172 3481 
z
" transform="scale(0.015625)"/>
       </defs>
       <use xlink:href="#DejaVuSans-38"/>
       <use xlink:href="#DejaVuSans-30" transform="translate(63.623047 0)"/>
       <use xlink:href="#DejaVuSans-30" transform="translate(127.246094 0)"/>
      </g>
     </g>
    </g>
    <g id="text_10">
     <!-- Temperature ($^{\circ}C$) -->
     <g transform="translate(192.16 335.862125) scale(0.1 -0.1)">
      <defs>
       <path id="DejaVuSans-54" d="M -19 4666 
L 3928 4666 
L 3928 4134 
L 2272 4134 
L 2272 0 
L 1638 0 
L 1638 4134 
L -19 4134 
L -19 4666 
z
" transform="scale(0.015625)"/>
       <path id="DejaVuSans-65" d="M 3597 1894 
L 3597 1613 
L 953 1613 
Q 991 1019 1311 708 
Q 1631 397 2203 397 
Q 2534 397 2845 478 
Q 3156 559 3463 722 
L 3463 178 
Q 3153 47 2828 -22 
Q 2503 -91 2169 -91 
Q 1331 -91 842 396 
Q 353 884 353 1716 
Q 353 2575 817 3079 
Q 1281 3584 2069 3584 
Q 2775 3584 3186 3129 
Q 3597 2675 3597 1894 
z
M 3022 2063 
Q 3016 2534 2758 2815 
Q 2500 3097 2075 3097 
Q 1594 3097 1305 2825 
Q 1016 2553 972 2059 
L 3022 2063 
z
" transform="scale(0.015625)"/>
       <path id="DejaVuSans-6d" d="M 3328 2828 
Q 3544 3216 3844 3400 
Q 4144 3584 4550 3584 
Q 5097 3584 5394 3201 
Q 5691 2819 5691 2113 
L 5691 0 
L 5113 0 
L 5113 2094 
Q 5113 2597 4934 2840 
Q 4756 3084 4391 3084 
Q 3944 3084 3684 2787 
Q 3425 2491 3425 1978 
L 3425 0 
L 2847 0 
L 2847 2094 
Q 2847 2600 2669 2842 
Q 2491 3084 2119 3084 
Q 1678 3084 1418 2786 
Q 1159 2488 1159 1978 
L 1159 0 
L 581 0 
L 581 3500 
L 1159 3500 
L 1159 2956 
Q 1356 3278 1631 3431 
Q 1906 3584 2284 3584 
Q 2666 3584 2933 3390 
Q 3200 3197 3328 2828 
z
" transform="scale(0.015625)"/>
       <path id="DejaVuSans-70" d="M 1159 525 
L 1159 -1331 
L 581 -1331 
L 581 3500 
L 1159 3500 
L 1159 2969 
Q 1341 3281 1617 3432 
Q 1894 3584 2278 3584 
Q 2916 3584 3314 3078 
Q 3713 2572 3713 1747 
Q 3713 922 3314 415 
Q 2916 -91 2278 -91 
Q 1894 -91 1617 61 
Q 1341 213 1159 525 
z
M 3116 1747 
Q 3116 2381 2855 2742 
Q 2594 3103 2138 3103 
Q 1681 3103 1420 2742 
Q 1159 2381 1159 1747 
Q 1159 1113 1420 752 
Q 1681 391 2138 391 
Q 2594 391 2855 752 
Q 3116 1113 3116 1747 
z
" transform="scale(0.015625)"/>
       <path id="DejaVuSans-72" d="M 2631 2963 
Q 2534 3019 2420 3045 
Q 2306 3072 2169 3072 
Q 1681 3072 1420 2755 
Q 1159 2438 1159 1844 
L 1159 0 
L 581 0 
L 581 3500 
L 1159 3500 
L 1159 2956 
Q 1341 3275 1631 3429 
Q 1922 3584 2338 3584 
Q 2397 3584 2469 3576 
Q 2541 3569 2628 3553 
L 2631 2963 
z
" transform="scale(0.015625)"/>
       <path id="DejaVuSans-61" d="M 2194 1759 
Q 1497 1759 1228 1600 
Q 959 1441 959 1056 
Q 959 750 1161 570 
Q 1363 391 1709 391 
Q 2188 391 2477 730 
Q 2766 1069 2766 1631 
L 2766 1759 
L 2194 1759 
z
M 3341 1997 
L 3341 0 
L 2766 0 
L 2766 531 
Q 2569 213 2275 61 
Q 1981 -91 1556 -91 
Q 1019 -91 701 211 
Q 384 513 384 1019 
Q 384 1609 779 1909 
Q 1175 2209 1959 2209 
L 2766 2209 
L 2766 2266 
Q 2766 2663 2505 2880 
Q 2244 3097 1772 3097 
Q 1472 3097 1187 3025 
Q 903 2953 641 2809 
L 641 3341 
Q 956 3463 1253 3523 
Q 1550 3584 1831 3584 
Q 2591 3584 2966 3190 
Q 3341 2797 3341 1997 
z
" transform="scale(0.015625)"/>
       <path id="DejaVuSans-74" d="M 1172 4494 
L 1172 3500 
L 2356 3500 
L 2356 3053 
L 1172 3053 
L 1172 1153 
Q 1172 725 1289 603 
Q 1406 481 1766 481 
L 2356 481 
L 2356 0 
L 1766 0 
Q 1100 0 847 248 
Q 594 497 594 1153 
L 594 3053 
L 172 3053 
L 172 3500 
L 594 3500 
L 594 4494 
L 1172 4494 
z
" transform="scale(0.015625)"/>
       <path id="DejaVuSans-75" d="M 544 1381 
L 544 3500 
L 1119 3500 
L 1119 1403 
Q 1119 906 1312 657 
Q 1506 409 1894 409 
Q 2359 409 2629 706 
Q 2900 1003 2900 1516 
L 2900 3500 
L 3475 3500 
L 3475 0 
L 2900 0 
L 2900 538 
Q 2691 219 2414 64 
Q 2138 -91 1772 -91 
Q 1169 -91 856 284 
Q 544 659 544 1381 
z
M 1991 3584 
L 1991 3584 
z
" transform="scale(0.015625)"/>
       <path id="DejaVuSans-20" transform="scale(0.015625)"/>
       <path id="DejaVuSans-28" d="M 1984 4856 
Q 1566 4138 1362 3434 
Q 1159 2731 1159 2009 
Q 1159 1288 1364 580 
Q 1569 -128 1984 -844 
L 1484 -844 
Q 1016 -109 783 600 
Q 550 1309 550 2009 
Q 550 2706 781 3412 
Q 1013 4119 1484 4856 
L 1984 4856 
z
" transform="scale(0.015625)"/>
       <path id="DejaVuSans-2218" d="M 2000 2619 
Q 1750 2619 1578 2445 
Q 1406 2272 1406 2022 
Q 1406 1775 1578 1605 
Q 1750 1435 2000 1435 
Q 2250 1435 2422 1605 
Q 2594 1775 2594 2022 
Q 2594 2269 2420 2444 
Q 2247 2619 2000 2619 
z
M 2000 3022 
Q 2200 3022 2384 2945 
Q 2569 2869 2703 2725 
Q 2847 2585 2919 2406 
Q 2991 2228 2991 2022 
Q 2991 1610 2702 1324 
Q 2413 1038 1994 1038 
Q 1572 1038 1290 1319 
Q 1009 1600 1009 2022 
Q 1009 2441 1296 2731 
Q 1584 3022 2000 3022 
z
" transform="scale(0.015625)"/>
       <path id="DejaVuSans-Oblique-43" d="M 4447 4306 
L 4319 3641 
Q 4019 3944 3683 4091 
Q 3347 4238 2956 4238 
Q 2422 4238 2017 3981 
Q 1613 3725 1319 3200 
Q 1131 2863 1032 2486 
Q 934 2109 934 1728 
Q 934 1091 1264 756 
Q 1594 422 2222 422 
Q 2656 422 3056 561 
Q 3456 700 3834 978 
L 3688 231 
Q 3316 72 2936 -9 
Q 2556 -91 2175 -91 
Q 1278 -91 773 396 
Q 269 884 269 1753 
Q 269 2309 461 2846 
Q 653 3384 1013 3828 
Q 1394 4300 1883 4525 
Q 2372 4750 3022 4750 
Q 3422 4750 3780 4639 
Q 4138 4528 4447 4306 
z
" transform="scale(0.015625)"/>
       <path id="DejaVuSans-29" d="M 513 4856 
L 1013 4856 
Q 1481 4119 1714 3412 
Q 1947 2706 1947 2009 
Q 1947 1309 1714 600 
Q 1481 -109 1013 -844 
L 513 -844 
Q 928 -128 1133 580 
Q 1338 1288 1338 2009 
Q 1338 2731 1133 3434 
Q 928 4138 513 4856 
z
" transform="scale(0.015625)"/>
      </defs>
      <use xlink:href="#DejaVuSans-54" transform="translate(0 0.125)"/>
      <use xlink:href="#DejaVuSans-65" transform="translate(61.083984 0.125)"/>
      <use xlink:href="#DejaVuSans-6d" transform="translate(122.607422 0.125)"/>
      <use xlink:href="#DejaVuSans-70" transform="translate(220.019531 0.125)"/>
      <use xlink:href="#DejaVuSans-65" transform="translate(283.496094 0.125)"/>
      <use xlink:href="#DejaVuSans-72" transform="translate(345.019531 0.125)"/>
      <use xlink:href="#DejaVuSans-61" transform="translate(386.132812 0.125)"/>
      <use xlink:href="#DejaVuSans-74" transform="translate(447.412109 0.125)"/>
      <use xlink:href="#DejaVuSans-75" transform="translate(486.621094 0.125)"/>
      <use xlink:href="#DejaVuSans-72" transform="translate(550 0.125)"/>
      <use xlink:href="#DejaVuSans-65" transform="translate(591.113281 0.125)"/>
      <use xlink:href="#DejaVuSans-20" transform="translate(652.636719 0.125)"/>
      <use xlink:href="#DejaVuSans-28" transform="translate(684.423828 0.125)"/>
      <use xlink:href="#DejaVuSans-2218" transform="translate(724.394531 38.40625) scale(0.7)"/>
      <use xlink:href="#DejaVuSans-Oblique-43" transform="translate(770.947266 0.125)"/>
      <use xlink:href="#DejaVuSans-29" transform="translate(840.771484 0.125)"/>
     </g>
    </g>
   </g>
   <g id="matplotlib.axis_2">
    <g id="ytick_1">
     <g id="line2d_10">
      <defs>
       <path id="m26e2a76988" d="M 0 0 
L -3.5 0 
" style="stroke: #000000; stroke-width: 0.8"/>
      </defs>
      <g>
       <use xlink:href="#m26e2a76988" x="57.6" y="295.488" style="stroke: #000000; stroke-width: 0.8"/>
      </g>
     </g>
     <g id="text_11">
      <!-- 0.0 -->
      <g transform="translate(34.696875 299.287219) scale(0.1 -0.1)">
       <defs>
        <path id="DejaVuSans-2e" d="M 684 794 
L 1344 794 
L 1344 0 
L 684 0 
L 684 794 
z
" transform="scale(0.015625)"/>
       </defs>
       <use xlink:href="#DejaVuSans-30"/>
       <use xlink:href="#DejaVuSans-2e" transform="translate(63.623047 0)"/>
       <use xlink:href="#DejaVuSans-30" transform="translate(95.410156 0)"/>
      </g>
     </g>
    </g>
    <g id="ytick_2">
     <g id="line2d_11">
      <g>
       <use xlink:href="#m26e2a76988" x="57.6" y="244.720581" style="stroke: #000000; stroke-width: 0.8"/>
      </g>
     </g>
     <g id="text_12">
      <!-- 0.5 -->
      <g transform="translate(34.696875 248.5198) scale(0.1 -0.1)">
       <use xlink:href="#DejaVuSans-30"/>
       <use xlink:href="#DejaVuSans-2e" transform="translate(63.623047 0)"/>
       <use xlink:href="#DejaVuSans-35" transform="translate(95.410156 0)"/>
      </g>
     </g>
    </g>
    <g id="ytick_3">
     <g id="line2d_12">
      <g>
       <use xlink:href="#m26e2a76988" x="57.6" y="193.953163" style="stroke: #000000; stroke-width: 0.8"/>
      </g>
     </g>
     <g id="text_13">
      <!-- 1.0 -->
      <g transform="translate(34.696875 197.752382) scale(0.1 -0.1)">
       <use xlink:href="#DejaVuSans-31"/>
       <use xlink:href="#DejaVuSans-2e" transform="translate(63.623047 0)"/>
       <use xlink:href="#DejaVuSans-30" transform="translate(95.410156 0)"/>
      </g>
     </g>
    </g>
    <g id="ytick_4">
     <g id="line2d_13">
      <g>
       <use xlink:href="#m26e2a76988" x="57.6" y="143.185744" style="stroke: #000000; stroke-width: 0.8"/>
      </g>
     </g>
     <g id="text_14">
      <!-- 1.5 -->
      <g transform="translate(34.696875 146.984963) scale(0.1 -0.1)">
       <use xlink:href="#DejaVuSans-31"/>
       <use xlink:href="#DejaVuSans-2e" transform="translate(63.623047 0)"/>
       <use xlink:href="#DejaVuSans-35" transform="translate(95.410156 0)"/>
      </g>
     </g>
    </g>
    <g id="ytick_5">
     <g id="line2d_14">
      <g>
       <use xlink:href="#m26e2a76988" x="57.6" y="92.418326" style="stroke: #000000; stroke-width: 0.8"/>
      </g>
     </g>
     <g id="text_15">
      <!-- 2.0 -->
      <g transform="translate(34.696875 96.217544) scale(0.1 -0.1)">
       <use xlink:href="#DejaVuSans-32"/>
       <use xlink:href="#DejaVuSans-2e" transform="translate(63.623047 0)"/>
       <use xlink:href="#DejaVuSans-30" transform="translate(95.410156 0)"/>
      </g>
     </g>
    </g>
    <g id="ytick_6">
     <g id="line2d_15">
      <g>
       <use xlink:href="#m26e2a76988" x="57.6" y="41.650907" style="stroke: #000000; stroke-width: 0.8"/>
      </g>
     </g>
     <g id="text_16">
      <!-- 2.5 -->
      <g transform="translate(34.696875 45.450126) scale(0.1 -0.1)">
       <use xlink:href="#DejaVuSans-32"/>
       <use xlink:href="#DejaVuSans-2e" transform="translate(63.623047 0)"/>
       <use xlink:href="#DejaVuSans-35" transform="translate(95.410156 0)"/>
      </g>
     </g>
    </g>
    <g id="text_17">
     <!-- Intensity ($^{\circ}C^{-1}$) -->
     <g transform="translate(28.596875 213.328) rotate(-90) scale(0.1 -0.1)">
      <defs>
       <path id="DejaVuSans-49" d="M 628 4666 
L 1259 4666 
L 1259 0 
L 628 0 
L 628 4666 
z
" transform="scale(0.015625)"/>
       <path id="DejaVuSans-6e" d="M 3513 2113 
L 3513 0 
L 2938 0 
L 2938 2094 
Q 2938 2591 2744 2837 
Q 2550 3084 2163 3084 
Q 1697 3084 1428 2787 
Q 1159 2491 1159 1978 
L 1159 0 
L 581 0 
L 581 3500 
L 1159 3500 
L 1159 2956 
Q 1366 3272 1645 3428 
Q 1925 3584 2291 3584 
Q 2894 3584 3203 3211 
Q 3513 2838 3513 2113 
z
" transform="scale(0.015625)"/>
       <path id="DejaVuSans-73" d="M 2834 3397 
L 2834 2853 
Q 2591 2978 2328 3040 
Q 2066 3103 1784 3103 
Q 1356 3103 1142 2972 
Q 928 2841 928 2578 
Q 928 2378 1081 2264 
Q 1234 2150 1697 2047 
L 1894 2003 
Q 2506 1872 2764 1633 
Q 3022 1394 3022 966 
Q 3022 478 2636 193 
Q 2250 -91 1575 -91 
Q 1294 -91 989 -36 
Q 684 19 347 128 
L 347 722 
Q 666 556 975 473 
Q 1284 391 1588 391 
Q 1994 391 2212 530 
Q 2431 669 2431 922 
Q 2431 1156 2273 1281 
Q 2116 1406 1581 1522 
L 1381 1569 
Q 847 1681 609 1914 
Q 372 2147 372 2553 
Q 372 3047 722 3315 
Q 1072 3584 1716 3584 
Q 2034 3584 2315 3537 
Q 2597 3491 2834 3397 
z
" transform="scale(0.015625)"/>
       <path id="DejaVuSans-69" d="M 603 3500 
L 1178 3500 
L 1178 0 
L 603 0 
L 603 3500 
z
M 603 4863 
L 1178 4863 
L 1178 4134 
L 603 4134 
L 603 4863 
z
" transform="scale(0.015625)"/>
       <path id="DejaVuSans-79" d="M 2059 -325 
Q 1816 -950 1584 -1140 
Q 1353 -1331 966 -1331 
L 506 -1331 
L 506 -850 
L 844 -850 
Q 1081 -850 1212 -737 
Q 1344 -625 1503 -206 
L 1606 56 
L 191 3500 
L 800 3500 
L 1894 763 
L 2988 3500 
L 3597 3500 
L 2059 -325 
z
" transform="scale(0.015625)"/>
       <path id="DejaVuSans-2212" d="M 678 2272 
L 4684 2272 
L 4684 1741 
L 678 1741 
L 678 2272 
z
" transform="scale(0.015625)"/>
      </defs>
      <use xlink:href="#DejaVuSans-49" transform="translate(0 0.684375)"/>
      <use xlink:href="#DejaVuSans-6e" transform="translate(29.492188 0.684375)"/>
      <use xlink:href="#DejaVuSans-74" transform="translate(92.871094 0.684375)"/>
      <use xlink:href="#DejaVuSans-65" transform="translate(132.080078 0.684375)"/>
      <use xlink:href="#DejaVuSans-6e" transform="translate(193.603516 0.684375)"/>
      <use xlink:href="#DejaVuSans-73" transform="translate(256.982422 0.684375)"/>
      <use xlink:href="#DejaVuSans-69" transform="translate(309.082031 0.684375)"/>
      <use xlink:href="#DejaVuSans-74" transform="translate(336.865234 0.684375)"/>
      <use xlink:href="#DejaVuSans-79" transform="translate(376.074219 0.684375)"/>
      <use xlink:href="#DejaVuSans-20" transform="translate(435.253906 0.684375)"/>
      <use xlink:href="#DejaVuSans-28" transform="translate(467.041016 0.684375)"/>
      <use xlink:href="#DejaVuSans-2218" transform="translate(507.011719 38.965625) scale(0.7)"/>
      <use xlink:href="#DejaVuSans-Oblique-43" transform="translate(553.564453 0.684375)"/>
      <use xlink:href="#DejaVuSans-2212" transform="translate(630.589193 38.965625) scale(0.7)"/>
      <use xlink:href="#DejaVuSans-31" transform="translate(689.241536 38.965625) scale(0.7)"/>
      <use xlink:href="#DejaVuSans-29" transform="translate(736.512044 0.684375)"/>
     </g>
    </g>
    <g id="text_18">
     <!-- 1e6 -->
     <g transform="translate(57.6 38.472) scale(0.1 -0.1)">
      <use xlink:href="#DejaVuSans-31"/>
      <use xlink:href="#DejaVuSans-65" transform="translate(63.623047 0)"/>
      <use xlink:href="#DejaVuSans-36" transform="translate(125.146484 0)"/>
     </g>
    </g>
   </g>
   <g id="line2d_16">
    <path d="M 73.832727 295.488 
L 124.282233 295.378038 
L 131.384939 295.027489 
L 133.373697 294.825028 
L 134.063674 294.732987 
L 135.443629 294.531237 
L 136.011845 294.421123 
L 139.299383 293.668597 
L 139.827013 293.522032 
L 140.395229 293.359576 
L 140.598164 293.271495 
L 140.801098 293.220372 
L 142.627508 292.56999 
L 142.830443 292.508156 
L 143.073964 292.409464 
L 143.561007 292.205836 
L 144.088637 291.996369 
L 144.453919 291.817363 
L 144.616266 291.766748 
L 145.184483 291.522709 
L 145.387417 291.392592 
L 145.752699 291.259074 
L 146.402089 290.924364 
L 146.52385 290.895529 
L 146.848545 290.710329 
L 147.010893 290.635295 
L 151.110169 288.446356 
L 151.35369 288.321874 
L 152.043667 287.940053 
L 152.246602 287.780846 
L 152.449536 287.65276 
L 153.383035 287.12092 
L 153.423622 287.152701 
L 153.464208 287.053704 
L 153.788904 286.908611 
L 154.154186 286.709044 
L 154.275946 286.609895 
L 155.087684 286.136591 
L 155.250032 285.983019 
L 155.290619 286.008505 
L 155.696488 285.75086 
L 156.914094 285.020164 
L 157.563485 284.591687 
L 157.604071 284.630474 
L 157.644658 284.580722 
L 158.00994 284.349831 
L 158.131701 284.282362 
L 158.334635 284.146914 
L 159.917524 283.202691 
L 160.282806 282.962967 
L 160.445154 282.843359 
L 160.526328 282.813863 
L 160.851023 282.608306 
L 162.149803 281.821309 
L 162.352738 281.725359 
L 163.083302 281.237992 
L 163.36741 281.060052 
L 163.448584 281.034211 
L 163.854453 280.786517 
L 164.990886 280.116032 
L 165.153233 280.012162 
L 165.924384 279.593026 
L 166.086732 279.467732 
L 166.249079 279.421229 
L 166.411427 279.269688 
L 166.614361 279.186988 
L 166.817296 279.02174 
L 166.939056 279.005748 
L 167.182578 278.826082 
L 167.426099 278.667891 
L 167.791381 278.43426 
L 167.831968 278.52229 
L 167.913142 278.433447 
L 168.034903 278.302467 
L 168.075489 278.336786 
L 168.237837 278.202354 
L 168.72488 277.918919 
L 170.470116 277.011858 
L 170.55129 276.909866 
L 170.591877 276.931645 
L 170.713637 276.831227 
L 170.835398 276.804879 
L 170.875985 276.855494 
L 171.038333 276.647754 
L 171.20068 276.612065 
L 171.444201 276.434429 
L 171.525375 276.449253 
L 171.809483 276.188309 
L 171.890657 276.261617 
L 171.931244 276.204859 
L 172.499461 275.875226 
L 172.661808 275.865783 
L 172.864743 275.652611 
L 172.90533 275.72069 
L 172.945916 275.620729 
L 173.108264 275.570266 
L 173.230025 275.532648 
L 173.514133 275.376944 
L 173.635894 275.352017 
L 173.798241 275.229566 
L 174.122936 275.063404 
L 174.366458 275.015175 
L 174.650566 274.779665 
L 174.8535 274.728898 
L 175.178195 274.547049 
L 175.340543 274.466684 
L 175.421717 274.451403 
L 175.665238 274.309711 
L 175.868173 274.204267 
L 176.03052 274.165126 
L 176.192868 274.050239 
L 176.55815 273.92464 
L 176.720497 273.802951 
L 176.761084 273.859303 
L 176.801671 273.809602 
L 176.964019 273.658975 
L 177.085779 273.641409 
L 177.369888 273.486315 
L 177.451061 273.478039 
L 177.653996 273.353761 
L 177.73517 273.347415 
L 177.897517 273.210597 
L 177.938104 273.297917 
L 177.978691 273.246743 
L 178.141039 273.147899 
L 178.181625 273.199936 
L 178.222212 273.073169 
L 178.587494 272.996866 
L 178.709255 272.783237 
L 178.749842 272.913912 
L 178.871603 272.865886 
L 179.03395 272.758513 
L 179.196298 272.695561 
L 179.358645 272.593773 
L 179.399232 272.640072 
L 179.642754 272.50498 
L 179.886275 272.366436 
L 180.008036 272.340748 
L 180.21097 272.322218 
L 180.495078 272.11732 
L 180.535665 272.169865 
L 180.576252 272.058126 
L 180.819773 272.056044 
L 181.022708 271.875871 
L 181.103882 271.930446 
L 181.144469 271.866479 
L 181.185055 271.75342 
L 181.266229 271.840739 
L 181.469164 271.748444 
L 186.014895 270.140792 
L 186.136656 270.112109 
L 186.339591 269.924168 
L 186.501938 269.932697 
L 186.542525 269.868628 
L 186.583112 269.946302 
L 186.74546 269.897007 
L 187.029568 269.770647 
L 187.273089 269.727698 
L 187.557197 269.611491 
L 187.597784 269.683835 
L 187.638371 269.564938 
L 187.678958 269.634438 
L 187.760132 269.496757 
L 187.841306 269.574228 
L 188.206588 269.440456 
L 188.247175 269.509855 
L 188.287761 269.364051 
L 188.368935 269.302978 
L 188.409522 269.429033 
L 188.450109 269.374204 
L 188.490696 269.306836 
L 188.531283 269.346638 
L 188.57187 269.389841 
L 188.612457 269.304095 
L 188.855978 269.238554 
L 189.058912 269.208703 
L 189.099499 269.103056 
L 189.140086 269.167784 
L 189.180673 269.204134 
L 189.22126 269.039241 
L 189.302434 269.10864 
L 189.343021 269.144127 
L 189.383607 269.069092 
L 189.545955 269.024823 
L 189.667716 269.040459 
L 189.789476 268.954409 
L 189.911237 268.972939 
L 190.438867 268.826678 
L 190.560627 268.687677 
L 190.601214 268.803579 
L 190.682388 268.7719 
L 190.844736 268.685849 
L 191.453539 268.578019 
L 191.5753 268.543142 
L 191.69706 268.442318 
L 191.818821 268.506335 
L 192.021755 268.377792 
L 192.22469 268.345707 
L 192.387037 268.394292 
L 192.589972 268.274887 
L 192.711733 268.23869 
L 192.955254 268.227978 
L 192.995841 268.252803 
L 193.036428 268.103851 
L 193.117602 268.156193 
L 193.604644 267.987899 
L 193.807579 268.041509 
L 194.091687 267.940786 
L 194.213448 267.936522 
L 194.294621 267.872453 
L 194.335208 267.936776 
L 194.659903 267.841841 
L 195.146946 267.745839 
L 195.187533 267.794119 
L 195.268707 267.721522 
L 195.999271 267.6109 
L 196.121031 267.587293 
L 196.283379 267.532921 
L 196.40514 267.452607 
L 196.567487 267.502054 
L 196.932769 267.388234 
L 196.973356 267.490479 
L 197.013943 267.395747 
L 197.500986 267.355692 
L 197.663333 267.285734 
L 197.825681 267.234815 
L 198.028615 267.329141 
L 198.109789 267.24243 
L 198.150376 267.27487 
L 198.272137 267.248979 
L 198.515658 267.112414 
L 198.678006 267.20537 
L 198.840353 267.111551 
L 198.921527 267.108708 
L 198.962114 267.054286 
L 199.002701 267.116019 
L 199.205635 267.1677 
L 199.367983 267.080736 
L 199.53033 266.984633 
L 199.773852 267.016616 
L 199.895612 267.023622 
L 200.098547 266.947674 
L 200.179721 266.908939 
L 200.220308 267.019764 
L 200.260894 266.922595 
L 200.301481 266.889596 
L 200.342068 267.015093 
L 200.423242 266.936201 
L 200.58559 266.930007 
L 201.316154 266.833244 
L 201.356741 266.900156 
L 201.437914 266.834615 
L 201.600262 266.807556 
L 201.803196 266.76943 
L 201.88437 266.751052 
L 202.006131 266.784711 
L 202.087305 266.679673 
L 202.127891 266.77212 
L 202.249652 266.803698 
L 202.371413 266.667692 
L 202.412 266.806135 
L 202.452587 266.785574 
L 202.493173 266.672007 
L 202.574347 266.723282 
L 202.736695 266.625149 
L 202.777282 266.81705 
L 202.858455 266.732319 
L 202.939629 266.64642 
L 203.06139 266.719728 
L 203.142564 266.620123 
L 203.183151 266.764861 
L 203.223738 266.640582 
L 203.913715 266.590779 
L 203.954302 266.682668 
L 204.035475 266.593318 
L 204.197823 266.589256 
L 204.319584 266.593013 
L 204.522518 266.582199 
L 204.684866 266.578798 
L 204.806626 266.551028 
L 205.009561 266.58489 
L 205.212495 266.524325 
L 205.374843 266.61266 
L 205.53719 266.473405 
L 205.658951 266.508841 
L 205.821299 266.472948 
L 205.983646 266.503764 
L 206.105407 266.488635 
L 206.267754 266.493509 
L 206.308341 266.442741 
L 206.389515 266.514425 
L 206.430102 266.52732 
L 206.551863 266.375068 
L 206.59245 266.540215 
L 206.673623 266.448275 
L 206.795384 266.462947 
L 206.998318 266.421165 
L 207.24184 266.473303 
L 207.404187 266.446397 
L 207.688296 266.479243 
L 207.769469 266.427511 
L 207.810056 266.48168 
L 207.931817 266.435076 
L 208.094164 266.422841 
L 208.175338 266.462896 
L 208.215925 266.380145 
L 208.297099 266.43071 
L 208.54062 266.436751 
L 208.621794 266.484371 
L 208.662381 266.391974 
L 208.865315 266.432791 
L 208.946489 266.378927 
L 209.06825 266.476857 
L 209.311771 266.39766 
L 209.352358 266.512293 
L 209.392945 266.410098 
L 209.555293 266.377658 
L 209.677053 266.459495 
L 209.920575 266.408778 
L 212.518136 266.438832 
L 212.680483 266.569711 
L 212.802244 266.42411 
L 212.842831 266.450864 
L 213.289287 266.442386 
L 213.411047 266.481528 
L 213.613982 266.456956 
L 213.776329 266.506607 
L 213.938677 266.497926 
L 214.101024 266.555851 
L 215.115697 266.579966 
L 215.156284 266.623727 
L 215.196871 266.576666 
L 215.237457 266.512496 
L 215.318631 266.581793 
L 215.480979 266.591135 
L 215.602739 266.557374 
L 215.643326 266.704854 
L 215.7245 266.619869 
L 215.886848 266.701909 
L 215.968021 266.580676 
L 216.008608 266.682668 
L 216.049195 266.695665 
L 216.089782 266.525137 
L 216.170956 266.615148 
L 216.333303 266.574889 
L 216.455064 266.709118 
L 216.617412 266.630429 
L 216.820346 266.719982 
L 216.942107 266.672261 
L 217.145041 266.748412 
L 217.226215 266.671195 
L 217.266802 266.722216 
L 217.835018 266.705412 
L 218.037953 266.810653 
L 218.646756 266.82172 
L 218.930865 266.829741 
L 218.971451 266.767907 
L 219.012038 266.884976 
L 219.864363 266.887312 
L 219.90495 266.972753 
L 219.986124 266.933815 
L 220.310819 267.018545 
L 220.351406 266.92691 
L 220.391993 267.055403 
L 220.43258 267.00692 
L 220.594927 266.950466 
L 220.797862 267.063525 
L 221.08197 267.005904 
L 221.122557 267.111298 
L 221.20373 267.022099 
L 221.366078 267.069465 
L 221.406665 267.060784 
L 221.447252 267.189327 
L 221.528426 267.119065 
L 221.650186 267.149576 
L 221.690773 267.044538 
L 221.73136 267.126274 
L 221.853121 267.16369 
L 221.893708 267.086168 
L 221.934295 267.125309 
L 221.974881 267.217554 
L 222.056055 267.164096 
L 222.177816 267.203847 
L 222.299577 267.155922 
L 222.421337 267.254106 
L 222.461924 267.223544 
L 224.369508 267.47002 
L 224.410095 267.544293 
L 224.491269 267.488043 
L 225.100072 267.498907 
L 225.140659 267.450576 
L 225.181246 267.500074 
L 225.343593 267.591659 
L 225.38418 267.535865 
L 225.465354 267.596431 
L 225.587115 267.564041 
L 225.91181 267.738478 
L 225.992984 267.625876 
L 226.033571 267.658367 
L 226.155331 267.689082 
L 226.398853 267.693955 
L 226.642374 267.705886 
L 226.764135 267.797216 
L 226.804721 267.764217 
L 227.21059 267.849354 
L 227.372938 267.871235 
L 228.103502 267.969521 
L 228.184676 268.043793 
L 228.225263 267.965307 
L 228.468784 267.982111 
L 228.509371 268.089992 
L 228.590545 268.028919 
L 228.955827 268.128727 
L 229.077587 268.025314 
L 229.118174 268.125174 
L 229.280522 268.227521 
L 229.402283 268.141216 
L 229.808151 268.28042 
L 229.848738 268.212189 
L 229.889325 268.264023 
L 230.09226 268.398404 
L 230.173433 268.29428 
L 230.21402 268.352358 
L 230.335781 268.294585 
L 230.376368 268.42394 
L 230.457542 268.365913 
L 231.715735 268.50796 
L 231.837496 268.656049 
L 231.878083 268.584111 
L 231.959257 268.63828 
L 232.081017 268.586396 
L 232.243365 268.689454 
L 232.283952 268.710573 
L 232.324539 268.605586 
L 232.405713 268.681737 
L 233.176863 268.866327 
L 233.298624 268.850539 
L 233.420385 268.880237 
L 233.74508 268.910698 
L 233.866841 268.986951 
L 234.029188 268.944661 
L 234.150949 269.050714 
L 234.191536 268.95913 
L 234.27271 269.026041 
L 234.435057 269.070666 
L 234.516231 269.034418 
L 234.556818 269.071326 
L 234.678578 269.123769 
L 234.719165 269.054268 
L 234.759752 269.093105 
L 234.881513 269.161387 
L 234.9221 269.091024 
L 235.003274 269.147579 
L 235.165621 269.188396 
L 235.287382 269.21251 
L 235.409143 269.284245 
L 235.490316 269.217181 
L 235.652664 269.35141 
L 235.774425 269.343896 
L 235.896185 269.404868 
L 235.936772 269.29719 
L 236.017946 269.33623 
L 236.423815 269.424413 
L 236.951444 269.488533 
L 237.032618 269.603115 
L 237.073205 269.535949 
L 237.641422 269.678606 
L 237.763182 269.672311 
L 237.884943 269.760545 
L 237.966117 269.835528 
L 238.006704 269.749934 
L 238.453159 269.78207 
L 238.57492 269.888834 
L 238.615507 269.861572 
L 238.737268 269.906196 
L 238.940202 269.970265 
L 239.427245 270.049107 
L 239.467832 270.0024 
L 239.508419 270.073475 
L 239.75194 270.133076 
L 239.792527 270.068195 
L 239.833114 270.20811 
L 239.995461 270.16709 
L 240.117222 270.15846 
L 240.157809 270.234966 
L 240.238983 270.174248 
L 240.563678 270.313199 
L 240.685438 270.278321 
L 240.807199 270.395645 
L 240.888373 270.258421 
L 240.92896 270.305482 
L 241.05072 270.427171 
L 241.131894 270.34706 
L 241.172481 270.408083 
L 241.334829 270.448392 
L 241.456589 270.542667 
L 241.497176 270.453621 
L 241.57835 270.495555 
L 241.740698 270.531042 
L 241.903045 270.559878 
L 242.065393 270.518908 
L 242.187153 270.692837 
L 242.308914 270.590135 
L 242.430675 270.733604 
L 242.471262 270.652274 
L 242.917717 270.774725 
L 243.445347 270.915656 
L 243.526521 270.876108 
L 243.567108 270.926266 
L 243.688868 271.029527 
L 243.729455 270.95033 
L 243.851216 270.972312 
L 244.541193 271.134006 
L 244.58178 271.042117 
L 244.622367 271.172437 
L 246.205256 271.550198 
L 246.245843 271.42668 
L 246.327016 271.514711 
L 246.489364 271.531617 
L 246.651711 271.536998 
L 246.814059 271.622896 
L 247.016993 271.709303 
L 247.05758 271.656758 
L 247.098167 271.748901 
L 247.138754 271.776925 
L 247.179341 271.713821 
L 247.219928 271.665541 
L 247.260515 271.762608 
L 247.504036 271.752709 
L 247.788144 271.855005 
L 247.869318 271.890441 
L 247.909905 271.829977 
L 247.950492 271.961718 
L 247.991079 271.887953 
L 248.11284 271.94202 
L 248.153426 271.8745 
L 248.194013 271.955423 
L 248.2346 272.013958 
L 248.275187 271.952275 
L 248.396948 271.998271 
L 250.182771 272.400349 
L 250.345119 272.438323 
L 250.58864 272.440658 
L 250.750988 272.503914 
L 251.806247 272.752979 
L 251.846834 272.810397 
L 251.88742 272.761254 
L 252.009181 272.78278 
L 252.090355 272.80862 
L 252.130942 272.71927 
L 252.171529 272.849387 
L 252.293289 272.824511 
L 252.496224 272.944271 
L 252.902093 273.004989 
L 253.754417 273.139573 
L 253.876178 273.220699 
L 254.079113 273.280047 
L 254.200873 273.300354 
L 254.322634 273.247403 
L 254.484982 273.387267 
L 254.76909 273.430267 
L 254.931437 273.401533 
L 255.174959 273.556678 
L 255.41848 273.550383 
L 255.580828 273.581757 
L 255.662001 273.642323 
L 262.440012 275.244746 
L 262.480599 275.125087 
L 262.561773 275.231597 
L 262.683534 275.328512 
L 262.724121 275.271043 
L 262.845881 275.241293 
L 263.008229 275.34095 
L 263.292337 275.392377 
L 274.047863 277.828097 
L 274.08845 277.773775 
L 274.129037 277.846779 
L 274.331971 277.943237 
L 274.372558 277.856374 
L 274.413145 277.923742 
L 274.73784 278.009235 
L 274.900188 277.969839 
L 275.021949 278.084523 
L 275.143709 278.063048 
L 275.26547 278.138489 
L 275.346644 278.056093 
L 275.468404 278.202709 
L 275.630752 278.172198 
L 275.752513 278.177935 
L 275.91486 278.215604 
L 276.036621 278.285765 
L 276.077208 278.248045 
L 276.117795 278.311453 
L 276.158382 278.357956 
L 276.198969 278.290385 
L 276.401903 278.316327 
L 276.564251 278.44025 
L 276.726598 278.430655 
L 277.863031 278.673273 
L 277.984792 278.61357 
L 278.025379 278.663373 
L 278.187726 278.711653 
L 278.958877 278.855781 
L 279.161812 278.969856 
L 279.242985 278.946554 
L 279.283572 279.000722 
L 279.324159 279.048342 
L 279.364746 278.943406 
L 279.405333 278.931679 
L 279.527094 279.046616 
L 279.730028 279.050221 
L 279.892376 279.077635 
L 280.054723 279.149268 
L 280.176484 279.142719 
L 280.298245 279.195263 
L 280.420005 279.211356 
L 280.947635 279.315683 
L 281.109982 279.38823 
L 281.394091 279.422498 
L 281.556438 279.456411 
L 281.92172 279.499411 
L 282.205828 279.595209 
L 282.652284 279.690601 
L 283.423435 279.836202 
L 283.951065 279.93332 
L 284.072825 279.979366 
L 284.316347 280.038713 
L 286.061583 280.338393 
L 286.10217 280.46917 
L 286.183344 280.405965 
L 292.920768 281.721145 
L 293.042528 281.696625 
L 293.204876 281.802678 
L 293.488984 281.812171 
L 293.691919 281.871671 
L 293.894853 281.903299 
L 294.138375 281.950259 
L 295.11246 282.167442 
L 295.274808 282.177849 
L 295.396568 282.169929 
L 295.599503 282.238567 
L 295.843024 282.24075 
L 296.005372 282.28771 
L 296.167719 282.322028 
L 296.330067 282.372999 
L 296.41124 282.433108 
L 296.533001 282.369394 
L 296.695349 282.442093 
L 297.182391 282.548959 
L 297.344739 282.488241 
L 297.507087 282.601097 
L 297.710021 282.614601 
L 298.805867 282.818737 
L 298.927628 282.78193 
L 299.089975 282.863615 
L 299.211736 282.89169 
L 299.536431 282.976979 
L 299.658192 282.951646 
L 299.779952 283.031808 
L 299.820539 282.953981 
L 299.901713 282.997794 
L 300.145235 283.076178 
L 300.348169 283.101156 
L 300.59169 283.149639 
L 300.794625 283.194619 
L 300.956972 283.143598 
L 301.078733 283.209443 
L 301.159907 283.237213 
L 301.281667 283.272395 
L 301.444015 283.266049 
L 301.565776 283.278233 
L 303.798055 283.659141 
L 303.919815 283.681021 
L 304.12275 283.731789 
L 304.893901 283.831141 
L 305.056248 283.900286 
L 305.29977 283.927497 
L 305.502704 283.967654 
L 305.624465 284.001567 
L 322.26509 286.520443 
L 322.386851 286.482977 
L 322.630372 286.528464 
L 324.294435 286.748389 
L 324.497369 286.800273 
L 324.537956 286.748338 
L 324.61913 286.820682 
L 324.822065 286.808701 
L 325.106173 286.860128 
L 327.257278 287.141227 
L 327.460213 287.102949 
L 327.703734 287.195701 
L 328.961928 287.343535 
L 329.205449 287.39476 
L 329.692492 287.41131 
L 329.854839 287.468677 
L 330.179534 287.484618 
L 331.072446 287.611232 
L 331.27538 287.592753 
L 331.397141 287.662964 
L 331.437728 287.599606 
L 331.478315 287.648394 
L 331.721836 287.698501 
L 331.884184 287.669564 
L 332.614748 287.746832 
L 332.736508 287.78445 
L 333.142377 287.818871 
L 333.507659 287.878675 
L 335.415243 288.096112 
L 335.658765 288.112814 
L 347.99718 289.389818 
L 348.159527 289.374486 
L 348.403049 289.417892 
L 348.768331 289.455105 
L 349.052439 289.515416 
L 349.29596 289.496785 
L 349.498895 289.532322 
L 349.661242 289.50775 
L 349.82359 289.545369 
L 350.107698 289.600553 
L 350.270046 289.586998 
L 350.554154 289.611519 
L 351.690587 289.728995 
L 351.893521 289.739757 
L 352.339977 289.786311 
L 352.542912 289.767527 
L 352.82702 289.825605 
L 352.989367 289.818295 
L 353.192302 289.843018 
L 353.435823 289.869773 
L 353.598171 289.871347 
L 355.221646 290.036087 
L 355.30282 290.006033 
L 355.343407 290.06208 
L 355.789863 290.087768 
L 356.276906 290.123813 
L 356.47984 290.094876 
L 356.682774 290.161635 
L 356.845122 290.144577 
L 357.169817 290.188745 
L 357.453925 290.216159 
L 357.900381 290.230222 
L 359.280335 290.355312 
L 359.402096 290.356277 
L 359.645618 290.417909 
L 359.767378 290.362166 
L 359.929726 290.448623 
L 360.092073 290.423544 
L 360.213834 290.43456 
L 360.254421 290.370441 
L 360.335595 290.433748 
L 361.269093 290.512285 
L 361.472028 290.543203 
L 361.756136 290.518479 
L 361.999657 290.552188 
L 362.608461 290.626055 
L 362.933156 290.637376 
L 363.907241 290.709111 
L 364.150762 290.701648 
L 364.394284 290.750689 
L 364.678392 290.770539 
L 365.003087 290.802878 
L 366.301868 290.864662 
L 366.585976 290.916039 
L 367.560061 290.960257 
L 367.722409 290.970157 
L 368.290625 291.006354 
L 368.777668 291.013563 
L 368.940016 291.047932 
L 369.102363 291.064381 
L 369.305298 291.100934 
L 369.589406 291.084434 
L 369.914101 291.124337 
L 370.198209 291.147792 
L 371.456403 291.236483 
L 373.120466 291.326544 
L 373.3234 291.342485 
L 373.769856 291.354314 
L 373.932203 291.384571 
L 374.297485 291.439552 
L 374.419246 291.394572 
L 374.62218 291.416148 
L 375.028049 291.490827 
L 375.14981 291.444172 
L 375.474505 291.478491 
L 376.286243 291.494584 
L 376.448591 291.541595 
L 376.85446 291.543778 
L 377.179155 291.60084 
L 391.100458 292.348492 
L 391.506327 292.345649 
L 393.210977 292.420633 
L 393.373324 292.436167 
L 395.727364 292.559837 
L 395.970885 292.558669 
L 398.487273 292.660001 
L 398.487273 292.660001 
" clip-path="url(#p7f9f075bf2)" style="fill: none; stroke-dasharray: 1.85,0.8; stroke-dashoffset: 0; stroke: #8000ff; stroke-width: 0.5"/>
   </g>
   <g id="line2d_17">
    <path d="M 73.832727 295.488 
L 124.217162 295.382911 
L 129.905728 295.140548 
L 134.781641 294.568856 
L 137.625923 293.924973 
L 139.657554 293.237886 
L 141.282858 292.49653 
L 143.314489 291.231253 
L 144.533467 290.320638 
L 146.158771 288.769998 
L 148.596728 285.772233 
L 151.034684 281.668144 
L 153.066315 277.376013 
L 154.285293 274.398402 
L 155.910597 269.973768 
L 159.567532 258.163743 
L 160.78651 253.779773 
L 165.662423 234.381594 
L 167.694054 225.630915 
L 168.506706 222.112936 
L 169.319358 218.639023 
L 170.538337 213.103039 
L 174.601597 194.976025 
L 177.852206 180.425372 
L 184.75975 150.813803 
L 191.260967 125.502945 
L 192.073619 122.647023 
L 193.292598 118.324635 
L 194.10525 115.646704 
L 196.13688 108.810871 
L 197.355858 105.222427 
L 198.981163 100.172389 
L 200.200141 96.760311 
L 201.012793 94.492175 
L 205.076054 83.751972 
L 205.888706 82.281849 
L 206.701359 80.331263 
L 207.920337 77.985453 
L 208.326663 76.88512 
L 209.139315 75.397381 
L 209.951967 73.731448 
L 212.389924 69.469015 
L 212.79625 68.601146 
L 213.202576 68.2541 
L 213.608902 67.418215 
L 214.015228 66.981666 
L 214.421554 66.104253 
L 214.82788 65.783098 
L 215.234206 65.110886 
L 216.046859 64.218141 
L 216.859511 62.956673 
L 219.297467 60.271178 
L 220.110119 59.639073 
L 220.516446 58.871469 
L 220.922772 58.564631 
L 221.329098 58.437865 
L 221.735424 57.941968 
L 222.14175 57.630815 
L 222.548076 57.461506 
L 222.954402 56.887275 
L 223.767054 56.603536 
L 224.17338 56.27304 
L 224.986033 55.880456 
L 225.392359 55.405222 
L 225.798685 55.375523 
L 226.205011 55.166463 
L 226.611337 55.161132 
L 227.017663 54.781189 
L 228.236641 54.492018 
L 228.642967 54.238891 
L 229.049293 54.1402 
L 229.45562 54.186043 
L 230.268272 53.842043 
L 230.674598 54.035619 
L 231.080924 53.580387 
L 231.893576 53.821634 
L 232.299902 53.580895 
L 233.112554 53.897633 
L 233.51888 53.755484 
L 233.925207 53.787315 
L 234.331533 53.568 
L 235.144185 54.064353 
L 235.956837 54.067602 
L 237.175815 54.210462 
L 237.582141 54.652849 
L 237.988467 54.867494 
L 238.394793 54.879322 
L 240.020098 55.489547 
L 240.426424 55.476093 
L 240.83275 55.835578 
L 241.239076 55.872587 
L 241.645402 56.115763 
L 242.051728 56.689689 
L 242.86438 56.939058 
L 243.677033 57.265239 
L 244.896011 58.469543 
L 245.302337 58.494927 
L 246.114989 59.190441 
L 246.521315 59.639682 
L 246.927641 59.668518 
L 247.333967 60.115119 
L 247.740294 60.316158 
L 248.14662 60.962731 
L 248.552946 61.060408 
L 248.959272 61.365114 
L 249.365598 61.959499 
L 249.771924 62.116624 
L 250.17825 62.393713 
L 250.584576 62.977944 
L 250.990902 63.287067 
L 252.616207 65.013971 
L 253.428859 65.586933 
L 254.647837 67.206515 
L 255.054163 67.634535 
L 255.460489 68.285373 
L 256.273141 68.945705 
L 259.52375 72.710109 
L 259.930076 73.394758 
L 260.336402 73.723884 
L 261.149054 74.78345 
L 261.555381 75.176644 
L 261.961707 75.952523 
L 262.774359 76.905579 
L 263.180685 77.691662 
L 263.587011 77.920217 
L 265.618641 80.762279 
L 266.024968 81.604358 
L 267.243946 82.925377 
L 268.462924 84.65091 
L 269.275576 85.842879 
L 269.681902 86.679424 
L 270.088228 86.980881 
L 271.307207 88.974365 
L 271.713533 89.424266 
L 272.932511 91.395159 
L 273.338837 91.847141 
L 273.745163 92.576821 
L 274.151489 93.012914 
L 275.776794 95.728666 
L 276.18312 96.046267 
L 276.995772 97.458769 
L 278.21475 99.477434 
L 278.621076 99.840878 
L 279.027402 100.639804 
L 279.433729 101.108743 
L 280.246381 102.490734 
L 280.652707 103.048769 
L 281.059033 103.848254 
L 281.465359 104.302217 
L 281.871685 105.211207 
L 282.278011 105.36818 
L 283.496989 107.787146 
L 284.715968 109.622236 
L 285.122294 110.418929 
L 285.934946 111.366808 
L 287.153924 113.569403 
L 292.842489 122.454463 
L 293.248816 123.231559 
L 294.061468 124.371085 
L 294.87412 125.819936 
L 301.375337 136.026675 
L 302.18799 137.307436 
L 302.594316 137.745254 
L 303.406968 139.095058 
L 303.813294 139.638168 
L 304.21962 140.445725 
L 304.625946 140.925883 
L 305.032272 141.786493 
L 305.438598 142.253096 
L 308.689207 147.261911 
L 309.095533 147.778977 
L 310.314511 149.777487 
L 311.939816 151.938047 
L 313.158794 153.935542 
L 315.59675 157.350311 
L 317.222055 159.857714 
L 318.441033 161.463741 
L 319.253685 162.794 
L 320.066337 163.720302 
L 326.161229 172.306443 
L 326.567555 172.715933 
L 330.630816 178.305629 
L 331.037142 178.69268 
L 331.849794 179.884191 
L 332.662446 180.670122 
L 333.475098 182.052671 
L 336.319381 185.442665 
L 336.725707 186.120055 
L 337.538359 186.909793 
L 338.351011 188.113844 
L 339.976316 189.834554 
L 340.382642 190.525956 
L 340.788968 190.863255 
L 341.195294 191.384991 
L 341.60162 191.686753 
L 342.007946 192.387242 
L 342.820598 193.317656 
L 344.445903 195.239457 
L 344.852229 195.601733 
L 346.071207 197.169837 
L 346.477533 197.503633 
L 346.883859 198.034711 
L 347.290185 198.32637 
L 347.696512 198.970659 
L 348.91549 200.315691 
L 349.728142 201.210416 
L 350.134468 201.489078 
L 350.94712 202.509808 
L 351.353446 203.02926 
L 351.759772 203.21644 
L 352.572425 204.244886 
L 353.385077 204.957102 
L 354.197729 205.996667 
L 355.010381 206.790923 
L 356.229359 208.123669 
L 357.042012 208.878327 
L 358.26099 210.097354 
L 360.29262 212.135006 
L 361.105272 212.975004 
L 362.324251 214.10661 
L 362.730577 214.362731 
L 363.136903 214.861927 
L 363.543229 215.180239 
L 363.949555 215.791072 
L 365.168533 216.841806 
L 366.387512 218.030829 
L 367.200164 218.631459 
L 368.419142 219.920799 
L 368.825468 220.113563 
L 370.044446 221.35904 
L 370.857099 221.964695 
L 371.263425 222.287119 
L 372.076077 223.060916 
L 372.888729 223.707236 
L 373.701381 224.418538 
L 375.326686 225.681175 
L 376.139338 226.551684 
L 376.545664 226.685964 
L 378.577294 228.477597 
L 380.202599 229.777039 
L 380.608925 230.197038 
L 381.015251 230.323348 
L 381.421577 230.573529 
L 381.827903 231.061861 
L 382.234229 231.259245 
L 383.046881 232.034362 
L 383.453207 232.234386 
L 383.859534 232.690785 
L 384.26586 232.861262 
L 384.672186 233.240748 
L 385.484838 233.726542 
L 386.703816 234.663607 
L 387.516468 235.24601 
L 389.954425 237.056021 
L 390.767077 237.604665 
L 394.830338 240.473379 
L 396.049316 241.061469 
L 396.455642 241.422578 
L 397.674621 242.154948 
L 398.080947 242.51428 
L 398.487273 242.641808 
L 398.487273 242.641808 
" clip-path="url(#p7f9f075bf2)" style="fill: none; stroke-dasharray: 1.85,0.8; stroke-dashoffset: 0; stroke: #ff0000; stroke-width: 0.5"/>
   </g>
   <g id="patch_3">
    <path d="M 57.6 307.584 
L 57.6 41.472 
" style="fill: none; stroke: #000000; stroke-width: 0.8; stroke-linejoin: miter; stroke-linecap: square"/>
   </g>
   <g id="patch_4">
    <path d="M 414.72 307.584 
L 414.72 41.472 
" style="fill: none; stroke: #000000; stroke-width: 0.8; stroke-linejoin: miter; stroke-linecap: square"/>
   </g>
   <g id="patch_5">
    <path d="M 57.6 307.584 
L 414.72 307.584 
" style="fill: none; stroke: #000000; stroke-width: 0.8; stroke-linejoin: miter; stroke-linecap: square"/>
   </g>
   <g id="patch_6">
    <path d="M 57.6 41.472 
L 414.72 41.472 
" style="fill: none; stroke: #000000; stroke-width: 0.8; stroke-linejoin: miter; stroke-linecap: square"/>
   </g>
   <g id="text_19">
    <!-- Heating Rate ($^{\circ}C.s^{-1}$) -->
    <g transform="translate(271.872 68.0832) scale(0.12 -0.12)">
     <defs>
      <path id="DejaVuSans-48" d="M 628 4666 
L 1259 4666 
L 1259 2753 
L 3553 2753 
L 3553 4666 
L 4184 4666 
L 4184 0 
L 3553 0 
L 3553 2222 
L 1259 2222 
L 1259 0 
L 628 0 
L 628 4666 
z
" transform="scale(0.015625)"/>
      <path id="DejaVuSans-67" d="M 2906 1791 
Q 2906 2416 2648 2759 
Q 2391 3103 1925 3103 
Q 1463 3103 1205 2759 
Q 947 2416 947 1791 
Q 947 1169 1205 825 
Q 1463 481 1925 481 
Q 2391 481 2648 825 
Q 2906 1169 2906 1791 
z
M 3481 434 
Q 3481 -459 3084 -895 
Q 2688 -1331 1869 -1331 
Q 1566 -1331 1297 -1286 
Q 1028 -1241 775 -1147 
L 775 -588 
Q 1028 -725 1275 -790 
Q 1522 -856 1778 -856 
Q 2344 -856 2625 -561 
Q 2906 -266 2906 331 
L 2906 616 
Q 2728 306 2450 153 
Q 2172 0 1784 0 
Q 1141 0 747 490 
Q 353 981 353 1791 
Q 353 2603 747 3093 
Q 1141 3584 1784 3584 
Q 2172 3584 2450 3431 
Q 2728 3278 2906 2969 
L 2906 3500 
L 3481 3500 
L 3481 434 
z
" transform="scale(0.015625)"/>
      <path id="DejaVuSans-52" d="M 2841 2188 
Q 3044 2119 3236 1894 
Q 3428 1669 3622 1275 
L 4263 0 
L 3584 0 
L 2988 1197 
Q 2756 1666 2539 1819 
Q 2322 1972 1947 1972 
L 1259 1972 
L 1259 0 
L 628 0 
L 628 4666 
L 2053 4666 
Q 2853 4666 3247 4331 
Q 3641 3997 3641 3322 
Q 3641 2881 3436 2590 
Q 3231 2300 2841 2188 
z
M 1259 4147 
L 1259 2491 
L 2053 2491 
Q 2509 2491 2742 2702 
Q 2975 2913 2975 3322 
Q 2975 3731 2742 3939 
Q 2509 4147 2053 4147 
L 1259 4147 
z
" transform="scale(0.015625)"/>
      <path id="DejaVuSans-Oblique-73" d="M 3200 3397 
L 3091 2853 
Q 2863 2978 2609 3040 
Q 2356 3103 2088 3103 
Q 1634 3103 1373 2948 
Q 1113 2794 1113 2528 
Q 1113 2219 1719 2053 
Q 1766 2041 1788 2034 
L 1972 1978 
Q 2547 1819 2739 1644 
Q 2931 1469 2931 1166 
Q 2931 609 2489 259 
Q 2047 -91 1331 -91 
Q 1053 -91 747 -37 
Q 441 16 72 128 
L 184 722 
Q 500 559 806 475 
Q 1113 391 1394 391 
Q 1816 391 2080 572 
Q 2344 753 2344 1031 
Q 2344 1331 1650 1516 
L 1591 1531 
L 1394 1581 
Q 956 1697 753 1886 
Q 550 2075 550 2369 
Q 550 2928 970 3256 
Q 1391 3584 2113 3584 
Q 2397 3584 2667 3537 
Q 2938 3491 3200 3397 
z
" transform="scale(0.015625)"/>
     </defs>
     <use xlink:href="#DejaVuSans-48" transform="translate(0 0.684375)"/>
     <use xlink:href="#DejaVuSans-65" transform="translate(75.195312 0.684375)"/>
     <use xlink:href="#DejaVuSans-61" transform="translate(136.71875 0.684375)"/>
     <use xlink:href="#DejaVuSans-74" transform="translate(197.998047 0.684375)"/>
     <use xlink:href="#DejaVuSans-69" transform="translate(237.207031 0.684375)"/>
     <use xlink:href="#DejaVuSans-6e" transform="translate(264.990234 0.684375)"/>
     <use xlink:href="#DejaVuSans-67" transform="translate(328.369141 0.684375)"/>
     <use xlink:href="#DejaVuSans-20" transform="translate(391.845703 0.684375)"/>
     <use xlink:href="#DejaVuSans-52" transform="translate(423.632812 0.684375)"/>
     <use xlink:href="#DejaVuSans-61" transform="translate(493.115234 0.684375)"/>
     <use xlink:href="#DejaVuSans-74" transform="translate(554.394531 0.684375)"/>
     <use xlink:href="#DejaVuSans-65" transform="translate(593.603516 0.684375)"/>
     <use xlink:href="#DejaVuSans-20" transform="translate(655.126953 0.684375)"/>
     <use xlink:href="#DejaVuSans-28" transform="translate(686.914062 0.684375)"/>
     <use xlink:href="#DejaVuSans-2218" transform="translate(726.884766 38.965625) scale(0.7)"/>
     <use xlink:href="#DejaVuSans-Oblique-43" transform="translate(773.4375 0.684375)"/>
     <use xlink:href="#DejaVuSans-2e" transform="translate(843.261719 0.684375)"/>
     <use xlink:href="#DejaVuSans-Oblique-73" transform="translate(894.53125 0.684375)"/>
     <use xlink:href="#DejaVuSans-2212" transform="translate(951.280755 38.965625) scale(0.7)"/>
     <use xlink:href="#DejaVuSans-31" transform="translate(1009.933099 38.965625) scale(0.7)"/>
     <use xlink:href="#DejaVuSans-29" transform="translate(1057.203607 0.684375)"/>
    </g>
   </g>
   <g id="legend_1">
    <g id="patch_7">
     <path d="M 314.584 105.43945 
L 362.487125 105.43945 
Q 364.487125 105.43945 364.487125 103.43945 
L 364.487125 75.0832 
Q 364.487125 73.0832 362.487125 73.0832 
L 314.584 73.0832 
Q 312.584 73.0832 312.584 75.0832 
L 312.584 103.43945 
Q 312.584 105.43945 314.584 105.43945 
z
" style="fill: #ffffff; opacity: 0.8; stroke: #cccccc; stroke-linejoin: miter"/>
    </g>
    <g id="line2d_18">
     <path d="M 316.584 81.181637 
L 326.584 81.181637 
L 336.584 81.181637 
" style="fill: none; stroke-dasharray: 1.85,0.8; stroke-dashoffset: 0; stroke: #8000ff; stroke-width: 0.5"/>
    </g>
    <g id="text_20">
     <!-- 0.1 -->
     <g transform="translate(344.584 84.681637) scale(0.1 -0.1)">
      <use xlink:href="#DejaVuSans-30"/>
      <use xlink:href="#DejaVuSans-2e" transform="translate(63.623047 0)"/>
      <use xlink:href="#DejaVuSans-31" transform="translate(95.410156 0)"/>
     </g>
    </g>
    <g id="line2d_19">
     <path d="M 316.584 95.859762 
L 326.584 95.859762 
L 336.584 95.859762 
" style="fill: none; stroke-dasharray: 1.85,0.8; stroke-dashoffset: 0; stroke: #ff0000; stroke-width: 0.5"/>
    </g>
    <g id="text_21">
     <!-- 1 -->
     <g transform="translate(344.584 99.359762) scale(0.1 -0.1)">
      <use xlink:href="#DejaVuSans-31"/>
     </g>
    </g>
   </g>
  </g>
 </g>
 <defs>
  <clipPath id="p7f9f075bf2">
   <rect x="57.6" y="41.472" width="357.12" height="266.112"/>
  </clipPath>
 </defs>
</svg>
