<?xml version="1.0" encoding="utf-8" standalone="no"?>
<!DOCTYPE svg PUBLIC "-//W3C//DTD SVG 1.1//EN"
  "http://www.w3.org/Graphics/SVG/1.1/DTD/svg11.dtd">
<svg xmlns:xlink="http://www.w3.org/1999/xlink" width="460.8pt" height="345.6pt" viewBox="0 0 460.8 345.6" xmlns="http://www.w3.org/2000/svg" version="1.1">
 <metadata>
  <rdf:RDF xmlns:dc="http://purl.org/dc/elements/1.1/" xmlns:cc="http://creativecommons.org/ns#" xmlns:rdf="http://www.w3.org/1999/02/22-rdf-syntax-ns#">
   <cc:Work>
    <dc:type rdf:resource="http://purl.org/dc/dcmitype/StillImage"/>
    <dc:date>2025-03-11T11:20:01.815395</dc:date>
    <dc:format>image/svg+xml</dc:format>
    <dc:creator>
     <cc:Agent>
      <dc:title>Matplotlib v3.10.0, https://matplotlib.org/</dc:title>
     </cc:Agent>
    </dc:creator>
   </cc:Work>
  </rdf:RDF>
 </metadata>
 <defs>
  <style type="text/css">*{stroke-linejoin: round; stroke-linecap: butt}</style>
 </defs>
 <g id="figure_1">
  <g id="patch_1">
   <path d="M 0 345.6 
L 460.8 345.6 
L 460.8 0 
L 0 0 
z
" style="fill: #ffffff"/>
  </g>
  <g id="axes_1">
   <g id="patch_2">
    <path d="M 57.6 307.584 
L 414.72 307.584 
L 414.72 41.472 
L 57.6 41.472 
z
" style="fill: #ffffff"/>
   </g>
   <g id="matplotlib.axis_1">
    <g id="xtick_1">
     <g id="line2d_1">
      <defs>
       <path id="m357f460096" d="M 0 0 
L 0 3.5 
" style="stroke: #000000; stroke-width: 0.8"/>
      </defs>
      <g>
       <use xlink:href="#m357f460096" x="73.832727" y="307.584" style="stroke: #000000; stroke-width: 0.8"/>
      </g>
     </g>
     <g id="text_1">
      <!-- 0 -->
      <g transform="translate(70.651477 322.182437) scale(0.1 -0.1)">
       <defs>
        <path id="DejaVuSans-30" d="M 2034 4250 
Q 1547 4250 1301 3770 
Q 1056 3291 1056 2328 
Q 1056 1369 1301 889 
Q 1547 409 2034 409 
Q 2525 409 2770 889 
Q 3016 1369 3016 2328 
Q 3016 3291 2770 3770 
Q 2525 4250 2034 4250 
z
M 2034 4750 
Q 2819 4750 3233 4129 
Q 3647 3509 3647 2328 
Q 3647 1150 3233 529 
Q 2819 -91 2034 -91 
Q 1250 -91 836 529 
Q 422 1150 422 2328 
Q 422 3509 836 4129 
Q 1250 4750 2034 4750 
z
" transform="scale(0.015625)"/>
       </defs>
       <use xlink:href="#DejaVuSans-30"/>
      </g>
     </g>
    </g>
    <g id="xtick_2">
     <g id="line2d_2">
      <g>
       <use xlink:href="#m357f460096" x="114.414545" y="307.584" style="stroke: #000000; stroke-width: 0.8"/>
      </g>
     </g>
     <g id="text_2">
      <!-- 100 -->
      <g transform="translate(104.870795 322.182437) scale(0.1 -0.1)">
       <defs>
        <path id="DejaVuSans-31" d="M 794 531 
L 1825 531 
L 1825 4091 
L 703 3866 
L 703 4441 
L 1819 4666 
L 2450 4666 
L 2450 531 
L 3481 531 
L 3481 0 
L 794 0 
L 794 531 
z
" transform="scale(0.015625)"/>
       </defs>
       <use xlink:href="#DejaVuSans-31"/>
       <use xlink:href="#DejaVuSans-30" transform="translate(63.623047 0)"/>
       <use xlink:href="#DejaVuSans-30" transform="translate(127.246094 0)"/>
      </g>
     </g>
    </g>
    <g id="xtick_3">
     <g id="line2d_3">
      <g>
       <use xlink:href="#m357f460096" x="154.996364" y="307.584" style="stroke: #000000; stroke-width: 0.8"/>
      </g>
     </g>
     <g id="text_3">
      <!-- 200 -->
      <g transform="translate(145.452614 322.182437) scale(0.1 -0.1)">
       <defs>
        <path id="DejaVuSans-32" d="M 1228 531 
L 3431 531 
L 3431 0 
L 469 0 
L 469 531 
Q 828 903 1448 1529 
Q 2069 2156 2228 2338 
Q 2531 2678 2651 2914 
Q 2772 3150 2772 3378 
Q 2772 3750 2511 3984 
Q 2250 4219 1831 4219 
Q 1534 4219 1204 4116 
Q 875 4013 500 3803 
L 500 4441 
Q 881 4594 1212 4672 
Q 1544 4750 1819 4750 
Q 2544 4750 2975 4387 
Q 3406 4025 3406 3419 
Q 3406 3131 3298 2873 
Q 3191 2616 2906 2266 
Q 2828 2175 2409 1742 
Q 1991 1309 1228 531 
z
" transform="scale(0.015625)"/>
       </defs>
       <use xlink:href="#DejaVuSans-32"/>
       <use xlink:href="#DejaVuSans-30" transform="translate(63.623047 0)"/>
       <use xlink:href="#DejaVuSans-30" transform="translate(127.246094 0)"/>
      </g>
     </g>
    </g>
    <g id="xtick_4">
     <g id="line2d_4">
      <g>
       <use xlink:href="#m357f460096" x="195.578182" y="307.584" style="stroke: #000000; stroke-width: 0.8"/>
      </g>
     </g>
     <g id="text_4">
      <!-- 300 -->
      <g transform="translate(186.034432 322.182437) scale(0.1 -0.1)">
       <defs>
        <path id="DejaVuSans-33" d="M 2597 2516 
Q 3050 2419 3304 2112 
Q 3559 1806 3559 1356 
Q 3559 666 3084 287 
Q 2609 -91 1734 -91 
Q 1441 -91 1130 -33 
Q 819 25 488 141 
L 488 750 
Q 750 597 1062 519 
Q 1375 441 1716 441 
Q 2309 441 2620 675 
Q 2931 909 2931 1356 
Q 2931 1769 2642 2001 
Q 2353 2234 1838 2234 
L 1294 2234 
L 1294 2753 
L 1863 2753 
Q 2328 2753 2575 2939 
Q 2822 3125 2822 3475 
Q 2822 3834 2567 4026 
Q 2313 4219 1838 4219 
Q 1578 4219 1281 4162 
Q 984 4106 628 3988 
L 628 4550 
Q 988 4650 1302 4700 
Q 1616 4750 1894 4750 
Q 2613 4750 3031 4423 
Q 3450 4097 3450 3541 
Q 3450 3153 3228 2886 
Q 3006 2619 2597 2516 
z
" transform="scale(0.015625)"/>
       </defs>
       <use xlink:href="#DejaVuSans-33"/>
       <use xlink:href="#DejaVuSans-30" transform="translate(63.623047 0)"/>
       <use xlink:href="#DejaVuSans-30" transform="translate(127.246094 0)"/>
      </g>
     </g>
    </g>
    <g id="xtick_5">
     <g id="line2d_5">
      <g>
       <use xlink:href="#m357f460096" x="236.16" y="307.584" style="stroke: #000000; stroke-width: 0.8"/>
      </g>
     </g>
     <g id="text_5">
      <!-- 400 -->
      <g transform="translate(226.61625 322.182437) scale(0.1 -0.1)">
       <defs>
        <path id="DejaVuSans-34" d="M 2419 4116 
L 825 1625 
L 2419 1625 
L 2419 4116 
z
M 2253 4666 
L 3047 4666 
L 3047 1625 
L 3713 1625 
L 3713 1100 
L 3047 1100 
L 3047 0 
L 2419 0 
L 2419 1100 
L 313 1100 
L 313 1709 
L 2253 4666 
z
" transform="scale(0.015625)"/>
       </defs>
       <use xlink:href="#DejaVuSans-34"/>
       <use xlink:href="#DejaVuSans-30" transform="translate(63.623047 0)"/>
       <use xlink:href="#DejaVuSans-30" transform="translate(127.246094 0)"/>
      </g>
     </g>
    </g>
    <g id="xtick_6">
     <g id="line2d_6">
      <g>
       <use xlink:href="#m357f460096" x="276.741818" y="307.584" style="stroke: #000000; stroke-width: 0.8"/>
      </g>
     </g>
     <g id="text_6">
      <!-- 500 -->
      <g transform="translate(267.198068 322.182437) scale(0.1 -0.1)">
       <defs>
        <path id="DejaVuSans-35" d="M 691 4666 
L 3169 4666 
L 3169 4134 
L 1269 4134 
L 1269 2991 
Q 1406 3038 1543 3061 
Q 1681 3084 1819 3084 
Q 2600 3084 3056 2656 
Q 3513 2228 3513 1497 
Q 3513 744 3044 326 
Q 2575 -91 1722 -91 
Q 1428 -91 1123 -41 
Q 819 9 494 109 
L 494 744 
Q 775 591 1075 516 
Q 1375 441 1709 441 
Q 2250 441 2565 725 
Q 2881 1009 2881 1497 
Q 2881 1984 2565 2268 
Q 2250 2553 1709 2553 
Q 1456 2553 1204 2497 
Q 953 2441 691 2322 
L 691 4666 
z
" transform="scale(0.015625)"/>
       </defs>
       <use xlink:href="#DejaVuSans-35"/>
       <use xlink:href="#DejaVuSans-30" transform="translate(63.623047 0)"/>
       <use xlink:href="#DejaVuSans-30" transform="translate(127.246094 0)"/>
      </g>
     </g>
    </g>
    <g id="xtick_7">
     <g id="line2d_7">
      <g>
       <use xlink:href="#m357f460096" x="317.323636" y="307.584" style="stroke: #000000; stroke-width: 0.8"/>
      </g>
     </g>
     <g id="text_7">
      <!-- 600 -->
      <g transform="translate(307.779886 322.182437) scale(0.1 -0.1)">
       <defs>
        <path id="DejaVuSans-36" d="M 2113 2584 
Q 1688 2584 1439 2293 
Q 1191 2003 1191 1497 
Q 1191 994 1439 701 
Q 1688 409 2113 409 
Q 2538 409 2786 701 
Q 3034 994 3034 1497 
Q 3034 2003 2786 2293 
Q 2538 2584 2113 2584 
z
M 3366 4563 
L 3366 3988 
Q 3128 4100 2886 4159 
Q 2644 4219 2406 4219 
Q 1781 4219 1451 3797 
Q 1122 3375 1075 2522 
Q 1259 2794 1537 2939 
Q 1816 3084 2150 3084 
Q 2853 3084 3261 2657 
Q 3669 2231 3669 1497 
Q 3669 778 3244 343 
Q 2819 -91 2113 -91 
Q 1303 -91 875 529 
Q 447 1150 447 2328 
Q 447 3434 972 4092 
Q 1497 4750 2381 4750 
Q 2619 4750 2861 4703 
Q 3103 4656 3366 4563 
z
" transform="scale(0.015625)"/>
       </defs>
       <use xlink:href="#DejaVuSans-36"/>
       <use xlink:href="#DejaVuSans-30" transform="translate(63.623047 0)"/>
       <use xlink:href="#DejaVuSans-30" transform="translate(127.246094 0)"/>
      </g>
     </g>
    </g>
    <g id="xtick_8">
     <g id="line2d_8">
      <g>
       <use xlink:href="#m357f460096" x="357.905455" y="307.584" style="stroke: #000000; stroke-width: 0.8"/>
      </g>
     </g>
     <g id="text_8">
      <!-- 700 -->
      <g transform="translate(348.361705 322.182437) scale(0.1 -0.1)">
       <defs>
        <path id="DejaVuSans-37" d="M 525 4666 
L 3525 4666 
L 3525 4397 
L 1831 0 
L 1172 0 
L 2766 4134 
L 525 4134 
L 525 4666 
z
" transform="scale(0.015625)"/>
       </defs>
       <use xlink:href="#DejaVuSans-37"/>
       <use xlink:href="#DejaVuSans-30" transform="translate(63.623047 0)"/>
       <use xlink:href="#DejaVuSans-30" transform="translate(127.246094 0)"/>
      </g>
     </g>
    </g>
    <g id="xtick_9">
     <g id="line2d_9">
      <g>
       <use xlink:href="#m357f460096" x="398.487273" y="307.584" style="stroke: #000000; stroke-width: 0.8"/>
      </g>
     </g>
     <g id="text_9">
      <!-- 800 -->
      <g transform="translate(388.943523 322.182437) scale(0.1 -0.1)">
       <defs>
        <path id="DejaVuSans-38" d="M 2034 2216 
Q 1584 2216 1326 1975 
Q 1069 1734 1069 1313 
Q 1069 891 1326 650 
Q 1584 409 2034 409 
Q 2484 409 2743 651 
Q 3003 894 3003 1313 
Q 3003 1734 2745 1975 
Q 2488 2216 2034 2216 
z
M 1403 2484 
Q 997 2584 770 2862 
Q 544 3141 544 3541 
Q 544 4100 942 4425 
Q 1341 4750 2034 4750 
Q 2731 4750 3128 4425 
Q 3525 4100 3525 3541 
Q 3525 3141 3298 2862 
Q 3072 2584 2669 2484 
Q 3125 2378 3379 2068 
Q 3634 1759 3634 1313 
Q 3634 634 3220 271 
Q 2806 -91 2034 -91 
Q 1263 -91 848 271 
Q 434 634 434 1313 
Q 434 1759 690 2068 
Q 947 2378 1403 2484 
z
M 1172 3481 
Q 1172 3119 1398 2916 
Q 1625 2713 2034 2713 
Q 2441 2713 2670 2916 
Q 2900 3119 2900 3481 
Q 2900 3844 2670 4047 
Q 2441 4250 2034 4250 
Q 1625 4250 1398 4047 
Q 1172 3844 1172 3481 
z
" transform="scale(0.015625)"/>
       </defs>
       <use xlink:href="#DejaVuSans-38"/>
       <use xlink:href="#DejaVuSans-30" transform="translate(63.623047 0)"/>
       <use xlink:href="#DejaVuSans-30" transform="translate(127.246094 0)"/>
      </g>
     </g>
    </g>
    <g id="text_10">
     <!-- Temperature ($^{\circ}C$) -->
     <g transform="translate(192.16 335.862125) scale(0.1 -0.1)">
      <defs>
       <path id="DejaVuSans-54" d="M -19 4666 
L 3928 4666 
L 3928 4134 
L 2272 4134 
L 2272 0 
L 1638 0 
L 1638 4134 
L -19 4134 
L -19 4666 
z
" transform="scale(0.015625)"/>
       <path id="DejaVuSans-65" d="M 3597 1894 
L 3597 1613 
L 953 1613 
Q 991 1019 1311 708 
Q 1631 397 2203 397 
Q 2534 397 2845 478 
Q 3156 559 3463 722 
L 3463 178 
Q 3153 47 2828 -22 
Q 2503 -91 2169 -91 
Q 1331 -91 842 396 
Q 353 884 353 1716 
Q 353 2575 817 3079 
Q 1281 3584 2069 3584 
Q 2775 3584 3186 3129 
Q 3597 2675 3597 1894 
z
M 3022 2063 
Q 3016 2534 2758 2815 
Q 2500 3097 2075 3097 
Q 1594 3097 1305 2825 
Q 1016 2553 972 2059 
L 3022 2063 
z
" transform="scale(0.015625)"/>
       <path id="DejaVuSans-6d" d="M 3328 2828 
Q 3544 3216 3844 3400 
Q 4144 3584 4550 3584 
Q 5097 3584 5394 3201 
Q 5691 2819 5691 2113 
L 5691 0 
L 5113 0 
L 5113 2094 
Q 5113 2597 4934 2840 
Q 4756 3084 4391 3084 
Q 3944 3084 3684 2787 
Q 3425 2491 3425 1978 
L 3425 0 
L 2847 0 
L 2847 2094 
Q 2847 2600 2669 2842 
Q 2491 3084 2119 3084 
Q 1678 3084 1418 2786 
Q 1159 2488 1159 1978 
L 1159 0 
L 581 0 
L 581 3500 
L 1159 3500 
L 1159 2956 
Q 1356 3278 1631 3431 
Q 1906 3584 2284 3584 
Q 2666 3584 2933 3390 
Q 3200 3197 3328 2828 
z
" transform="scale(0.015625)"/>
       <path id="DejaVuSans-70" d="M 1159 525 
L 1159 -1331 
L 581 -1331 
L 581 3500 
L 1159 3500 
L 1159 2969 
Q 1341 3281 1617 3432 
Q 1894 3584 2278 3584 
Q 2916 3584 3314 3078 
Q 3713 2572 3713 1747 
Q 3713 922 3314 415 
Q 2916 -91 2278 -91 
Q 1894 -91 1617 61 
Q 1341 213 1159 525 
z
M 3116 1747 
Q 3116 2381 2855 2742 
Q 2594 3103 2138 3103 
Q 1681 3103 1420 2742 
Q 1159 2381 1159 1747 
Q 1159 1113 1420 752 
Q 1681 391 2138 391 
Q 2594 391 2855 752 
Q 3116 1113 3116 1747 
z
" transform="scale(0.015625)"/>
       <path id="DejaVuSans-72" d="M 2631 2963 
Q 2534 3019 2420 3045 
Q 2306 3072 2169 3072 
Q 1681 3072 1420 2755 
Q 1159 2438 1159 1844 
L 1159 0 
L 581 0 
L 581 3500 
L 1159 3500 
L 1159 2956 
Q 1341 3275 1631 3429 
Q 1922 3584 2338 3584 
Q 2397 3584 2469 3576 
Q 2541 3569 2628 3553 
L 2631 2963 
z
" transform="scale(0.015625)"/>
       <path id="DejaVuSans-61" d="M 2194 1759 
Q 1497 1759 1228 1600 
Q 959 1441 959 1056 
Q 959 750 1161 570 
Q 1363 391 1709 391 
Q 2188 391 2477 730 
Q 2766 1069 2766 1631 
L 2766 1759 
L 2194 1759 
z
M 3341 1997 
L 3341 0 
L 2766 0 
L 2766 531 
Q 2569 213 2275 61 
Q 1981 -91 1556 -91 
Q 1019 -91 701 211 
Q 384 513 384 1019 
Q 384 1609 779 1909 
Q 1175 2209 1959 2209 
L 2766 2209 
L 2766 2266 
Q 2766 2663 2505 2880 
Q 2244 3097 1772 3097 
Q 1472 3097 1187 3025 
Q 903 2953 641 2809 
L 641 3341 
Q 956 3463 1253 3523 
Q 1550 3584 1831 3584 
Q 2591 3584 2966 3190 
Q 3341 2797 3341 1997 
z
" transform="scale(0.015625)"/>
       <path id="DejaVuSans-74" d="M 1172 4494 
L 1172 3500 
L 2356 3500 
L 2356 3053 
L 1172 3053 
L 1172 1153 
Q 1172 725 1289 603 
Q 1406 481 1766 481 
L 2356 481 
L 2356 0 
L 1766 0 
Q 1100 0 847 248 
Q 594 497 594 1153 
L 594 3053 
L 172 3053 
L 172 3500 
L 594 3500 
L 594 4494 
L 1172 4494 
z
" transform="scale(0.015625)"/>
       <path id="DejaVuSans-75" d="M 544 1381 
L 544 3500 
L 1119 3500 
L 1119 1403 
Q 1119 906 1312 657 
Q 1506 409 1894 409 
Q 2359 409 2629 706 
Q 2900 1003 2900 1516 
L 2900 3500 
L 3475 3500 
L 3475 0 
L 2900 0 
L 2900 538 
Q 2691 219 2414 64 
Q 2138 -91 1772 -91 
Q 1169 -91 856 284 
Q 544 659 544 1381 
z
M 1991 3584 
L 1991 3584 
z
" transform="scale(0.015625)"/>
       <path id="DejaVuSans-20" transform="scale(0.015625)"/>
       <path id="DejaVuSans-28" d="M 1984 4856 
Q 1566 4138 1362 3434 
Q 1159 2731 1159 2009 
Q 1159 1288 1364 580 
Q 1569 -128 1984 -844 
L 1484 -844 
Q 1016 -109 783 600 
Q 550 1309 550 2009 
Q 550 2706 781 3412 
Q 1013 4119 1484 4856 
L 1984 4856 
z
" transform="scale(0.015625)"/>
       <path id="DejaVuSans-2218" d="M 2000 2619 
Q 1750 2619 1578 2445 
Q 1406 2272 1406 2022 
Q 1406 1775 1578 1605 
Q 1750 1435 2000 1435 
Q 2250 1435 2422 1605 
Q 2594 1775 2594 2022 
Q 2594 2269 2420 2444 
Q 2247 2619 2000 2619 
z
M 2000 3022 
Q 2200 3022 2384 2945 
Q 2569 2869 2703 2725 
Q 2847 2585 2919 2406 
Q 2991 2228 2991 2022 
Q 2991 1610 2702 1324 
Q 2413 1038 1994 1038 
Q 1572 1038 1290 1319 
Q 1009 1600 1009 2022 
Q 1009 2441 1296 2731 
Q 1584 3022 2000 3022 
z
" transform="scale(0.015625)"/>
       <path id="DejaVuSans-Oblique-43" d="M 4447 4306 
L 4319 3641 
Q 4019 3944 3683 4091 
Q 3347 4238 2956 4238 
Q 2422 4238 2017 3981 
Q 1613 3725 1319 3200 
Q 1131 2863 1032 2486 
Q 934 2109 934 1728 
Q 934 1091 1264 756 
Q 1594 422 2222 422 
Q 2656 422 3056 561 
Q 3456 700 3834 978 
L 3688 231 
Q 3316 72 2936 -9 
Q 2556 -91 2175 -91 
Q 1278 -91 773 396 
Q 269 884 269 1753 
Q 269 2309 461 2846 
Q 653 3384 1013 3828 
Q 1394 4300 1883 4525 
Q 2372 4750 3022 4750 
Q 3422 4750 3780 4639 
Q 4138 4528 4447 4306 
z
" transform="scale(0.015625)"/>
       <path id="DejaVuSans-29" d="M 513 4856 
L 1013 4856 
Q 1481 4119 1714 3412 
Q 1947 2706 1947 2009 
Q 1947 1309 1714 600 
Q 1481 -109 1013 -844 
L 513 -844 
Q 928 -128 1133 580 
Q 1338 1288 1338 2009 
Q 1338 2731 1133 3434 
Q 928 4138 513 4856 
z
" transform="scale(0.015625)"/>
      </defs>
      <use xlink:href="#DejaVuSans-54" transform="translate(0 0.125)"/>
      <use xlink:href="#DejaVuSans-65" transform="translate(61.083984 0.125)"/>
      <use xlink:href="#DejaVuSans-6d" transform="translate(122.607422 0.125)"/>
      <use xlink:href="#DejaVuSans-70" transform="translate(220.019531 0.125)"/>
      <use xlink:href="#DejaVuSans-65" transform="translate(283.496094 0.125)"/>
      <use xlink:href="#DejaVuSans-72" transform="translate(345.019531 0.125)"/>
      <use xlink:href="#DejaVuSans-61" transform="translate(386.132812 0.125)"/>
      <use xlink:href="#DejaVuSans-74" transform="translate(447.412109 0.125)"/>
      <use xlink:href="#DejaVuSans-75" transform="translate(486.621094 0.125)"/>
      <use xlink:href="#DejaVuSans-72" transform="translate(550 0.125)"/>
      <use xlink:href="#DejaVuSans-65" transform="translate(591.113281 0.125)"/>
      <use xlink:href="#DejaVuSans-20" transform="translate(652.636719 0.125)"/>
      <use xlink:href="#DejaVuSans-28" transform="translate(684.423828 0.125)"/>
      <use xlink:href="#DejaVuSans-2218" transform="translate(724.394531 38.40625) scale(0.7)"/>
      <use xlink:href="#DejaVuSans-Oblique-43" transform="translate(770.947266 0.125)"/>
      <use xlink:href="#DejaVuSans-29" transform="translate(840.771484 0.125)"/>
     </g>
    </g>
   </g>
   <g id="matplotlib.axis_2">
    <g id="ytick_1">
     <g id="line2d_10">
      <defs>
       <path id="mac91e3d586" d="M 0 0 
L -3.5 0 
" style="stroke: #000000; stroke-width: 0.8"/>
      </defs>
      <g>
       <use xlink:href="#mac91e3d586" x="57.6" y="280.551897" style="stroke: #000000; stroke-width: 0.8"/>
      </g>
     </g>
     <g id="text_11">
      <!-- 0.0 -->
      <g transform="translate(34.696875 284.351116) scale(0.1 -0.1)">
       <defs>
        <path id="DejaVuSans-2e" d="M 684 794 
L 1344 794 
L 1344 0 
L 684 0 
L 684 794 
z
" transform="scale(0.015625)"/>
       </defs>
       <use xlink:href="#DejaVuSans-30"/>
       <use xlink:href="#DejaVuSans-2e" transform="translate(63.623047 0)"/>
       <use xlink:href="#DejaVuSans-30" transform="translate(95.410156 0)"/>
      </g>
     </g>
    </g>
    <g id="ytick_2">
     <g id="line2d_11">
      <g>
       <use xlink:href="#mac91e3d586" x="57.6" y="248.5021" style="stroke: #000000; stroke-width: 0.8"/>
      </g>
     </g>
     <g id="text_12">
      <!-- 0.5 -->
      <g transform="translate(34.696875 252.301319) scale(0.1 -0.1)">
       <use xlink:href="#DejaVuSans-30"/>
       <use xlink:href="#DejaVuSans-2e" transform="translate(63.623047 0)"/>
       <use xlink:href="#DejaVuSans-35" transform="translate(95.410156 0)"/>
      </g>
     </g>
    </g>
    <g id="ytick_3">
     <g id="line2d_12">
      <g>
       <use xlink:href="#mac91e3d586" x="57.6" y="216.452303" style="stroke: #000000; stroke-width: 0.8"/>
      </g>
     </g>
     <g id="text_13">
      <!-- 1.0 -->
      <g transform="translate(34.696875 220.251522) scale(0.1 -0.1)">
       <use xlink:href="#DejaVuSans-31"/>
       <use xlink:href="#DejaVuSans-2e" transform="translate(63.623047 0)"/>
       <use xlink:href="#DejaVuSans-30" transform="translate(95.410156 0)"/>
      </g>
     </g>
    </g>
    <g id="ytick_4">
     <g id="line2d_13">
      <g>
       <use xlink:href="#mac91e3d586" x="57.6" y="184.402506" style="stroke: #000000; stroke-width: 0.8"/>
      </g>
     </g>
     <g id="text_14">
      <!-- 1.5 -->
      <g transform="translate(34.696875 188.201725) scale(0.1 -0.1)">
       <use xlink:href="#DejaVuSans-31"/>
       <use xlink:href="#DejaVuSans-2e" transform="translate(63.623047 0)"/>
       <use xlink:href="#DejaVuSans-35" transform="translate(95.410156 0)"/>
      </g>
     </g>
    </g>
    <g id="ytick_5">
     <g id="line2d_14">
      <g>
       <use xlink:href="#mac91e3d586" x="57.6" y="152.352709" style="stroke: #000000; stroke-width: 0.8"/>
      </g>
     </g>
     <g id="text_15">
      <!-- 2.0 -->
      <g transform="translate(34.696875 156.151928) scale(0.1 -0.1)">
       <use xlink:href="#DejaVuSans-32"/>
       <use xlink:href="#DejaVuSans-2e" transform="translate(63.623047 0)"/>
       <use xlink:href="#DejaVuSans-30" transform="translate(95.410156 0)"/>
      </g>
     </g>
    </g>
    <g id="ytick_6">
     <g id="line2d_15">
      <g>
       <use xlink:href="#mac91e3d586" x="57.6" y="120.302913" style="stroke: #000000; stroke-width: 0.8"/>
      </g>
     </g>
     <g id="text_16">
      <!-- 2.5 -->
      <g transform="translate(34.696875 124.102131) scale(0.1 -0.1)">
       <use xlink:href="#DejaVuSans-32"/>
       <use xlink:href="#DejaVuSans-2e" transform="translate(63.623047 0)"/>
       <use xlink:href="#DejaVuSans-35" transform="translate(95.410156 0)"/>
      </g>
     </g>
    </g>
    <g id="ytick_7">
     <g id="line2d_16">
      <g>
       <use xlink:href="#mac91e3d586" x="57.6" y="88.253116" style="stroke: #000000; stroke-width: 0.8"/>
      </g>
     </g>
     <g id="text_17">
      <!-- 3.0 -->
      <g transform="translate(34.696875 92.052334) scale(0.1 -0.1)">
       <use xlink:href="#DejaVuSans-33"/>
       <use xlink:href="#DejaVuSans-2e" transform="translate(63.623047 0)"/>
       <use xlink:href="#DejaVuSans-30" transform="translate(95.410156 0)"/>
      </g>
     </g>
    </g>
    <g id="ytick_8">
     <g id="line2d_17">
      <g>
       <use xlink:href="#mac91e3d586" x="57.6" y="56.203319" style="stroke: #000000; stroke-width: 0.8"/>
      </g>
     </g>
     <g id="text_18">
      <!-- 3.5 -->
      <g transform="translate(34.696875 60.002538) scale(0.1 -0.1)">
       <use xlink:href="#DejaVuSans-33"/>
       <use xlink:href="#DejaVuSans-2e" transform="translate(63.623047 0)"/>
       <use xlink:href="#DejaVuSans-35" transform="translate(95.410156 0)"/>
      </g>
     </g>
    </g>
    <g id="text_19">
     <!-- Intensity ($^{\circ}C^{-1}$) -->
     <g transform="translate(28.596875 213.328) rotate(-90) scale(0.1 -0.1)">
      <defs>
       <path id="DejaVuSans-49" d="M 628 4666 
L 1259 4666 
L 1259 0 
L 628 0 
L 628 4666 
z
" transform="scale(0.015625)"/>
       <path id="DejaVuSans-6e" d="M 3513 2113 
L 3513 0 
L 2938 0 
L 2938 2094 
Q 2938 2591 2744 2837 
Q 2550 3084 2163 3084 
Q 1697 3084 1428 2787 
Q 1159 2491 1159 1978 
L 1159 0 
L 581 0 
L 581 3500 
L 1159 3500 
L 1159 2956 
Q 1366 3272 1645 3428 
Q 1925 3584 2291 3584 
Q 2894 3584 3203 3211 
Q 3513 2838 3513 2113 
z
" transform="scale(0.015625)"/>
       <path id="DejaVuSans-73" d="M 2834 3397 
L 2834 2853 
Q 2591 2978 2328 3040 
Q 2066 3103 1784 3103 
Q 1356 3103 1142 2972 
Q 928 2841 928 2578 
Q 928 2378 1081 2264 
Q 1234 2150 1697 2047 
L 1894 2003 
Q 2506 1872 2764 1633 
Q 3022 1394 3022 966 
Q 3022 478 2636 193 
Q 2250 -91 1575 -91 
Q 1294 -91 989 -36 
Q 684 19 347 128 
L 347 722 
Q 666 556 975 473 
Q 1284 391 1588 391 
Q 1994 391 2212 530 
Q 2431 669 2431 922 
Q 2431 1156 2273 1281 
Q 2116 1406 1581 1522 
L 1381 1569 
Q 847 1681 609 1914 
Q 372 2147 372 2553 
Q 372 3047 722 3315 
Q 1072 3584 1716 3584 
Q 2034 3584 2315 3537 
Q 2597 3491 2834 3397 
z
" transform="scale(0.015625)"/>
       <path id="DejaVuSans-69" d="M 603 3500 
L 1178 3500 
L 1178 0 
L 603 0 
L 603 3500 
z
M 603 4863 
L 1178 4863 
L 1178 4134 
L 603 4134 
L 603 4863 
z
" transform="scale(0.015625)"/>
       <path id="DejaVuSans-79" d="M 2059 -325 
Q 1816 -950 1584 -1140 
Q 1353 -1331 966 -1331 
L 506 -1331 
L 506 -850 
L 844 -850 
Q 1081 -850 1212 -737 
Q 1344 -625 1503 -206 
L 1606 56 
L 191 3500 
L 800 3500 
L 1894 763 
L 2988 3500 
L 3597 3500 
L 2059 -325 
z
" transform="scale(0.015625)"/>
       <path id="DejaVuSans-2212" d="M 678 2272 
L 4684 2272 
L 4684 1741 
L 678 1741 
L 678 2272 
z
" transform="scale(0.015625)"/>
      </defs>
      <use xlink:href="#DejaVuSans-49" transform="translate(0 0.684375)"/>
      <use xlink:href="#DejaVuSans-6e" transform="translate(29.492188 0.684375)"/>
      <use xlink:href="#DejaVuSans-74" transform="translate(92.871094 0.684375)"/>
      <use xlink:href="#DejaVuSans-65" transform="translate(132.080078 0.684375)"/>
      <use xlink:href="#DejaVuSans-6e" transform="translate(193.603516 0.684375)"/>
      <use xlink:href="#DejaVuSans-73" transform="translate(256.982422 0.684375)"/>
      <use xlink:href="#DejaVuSans-69" transform="translate(309.082031 0.684375)"/>
      <use xlink:href="#DejaVuSans-74" transform="translate(336.865234 0.684375)"/>
      <use xlink:href="#DejaVuSans-79" transform="translate(376.074219 0.684375)"/>
      <use xlink:href="#DejaVuSans-20" transform="translate(435.253906 0.684375)"/>
      <use xlink:href="#DejaVuSans-28" transform="translate(467.041016 0.684375)"/>
      <use xlink:href="#DejaVuSans-2218" transform="translate(507.011719 38.965625) scale(0.7)"/>
      <use xlink:href="#DejaVuSans-Oblique-43" transform="translate(553.564453 0.684375)"/>
      <use xlink:href="#DejaVuSans-2212" transform="translate(630.589193 38.965625) scale(0.7)"/>
      <use xlink:href="#DejaVuSans-31" transform="translate(689.241536 38.965625) scale(0.7)"/>
      <use xlink:href="#DejaVuSans-29" transform="translate(736.512044 0.684375)"/>
     </g>
    </g>
   </g>
   <g id="line2d_18">
    <path d="M 73.832727 280.551897 
L 124.865382 280.545864 
L 125.951183 280.720025 
L 127.036984 281.945251 
L 128.122785 283.92842 
L 129.208586 280.47204 
L 131.380189 280.551983 
L 143.324001 280.563999 
L 144.409802 284.807204 
L 145.495604 284.298163 
L 146.581405 247.491063 
L 147.667206 282.391763 
L 149.838808 278.950257 
L 150.924609 282.924571 
L 152.01041 280.467891 
L 153.096212 280.551731 
L 154.182013 280.475481 
L 155.267814 284.149559 
L 156.353615 282.52835 
L 157.439416 280.699583 
L 159.611019 280.38471 
L 160.69682 255.234776 
L 161.782621 283.678492 
L 162.868422 280.519884 
L 163.954223 280.736498 
L 165.040024 266.598106 
L 166.125825 281.9946 
L 167.211627 221.698912 
L 168.297428 222.475742 
L 169.383229 278.155011 
L 170.46903 280.465263 
L 171.554831 280.894003 
L 172.640632 274.107077 
L 173.726434 219.869494 
L 174.812235 268.184158 
L 175.898036 287.786641 
L 176.983837 283.359605 
L 178.069638 292.652461 
L 179.155439 292.964322 
L 180.24124 268.977755 
L 181.327042 264.303321 
L 182.412843 280.768242 
L 183.498644 279.963721 
L 184.584445 264.143351 
L 185.670246 282.48066 
L 186.756047 247.971556 
L 187.841849 248.448555 
L 188.92765 251.384007 
L 190.013451 278.517493 
L 191.099252 287.500811 
L 192.185053 261.271545 
L 193.270854 246.30092 
L 194.356656 229.062769 
L 195.442457 217.612363 
L 196.528258 248.582649 
L 197.614059 287.460883 
L 198.69986 284.877265 
L 199.785661 280.917913 
L 200.871462 275.175691 
L 201.957264 286.299582 
L 203.043065 216.323492 
L 204.128866 253.999926 
L 205.214667 254.989609 
L 206.300468 248.605339 
L 207.386269 241.217595 
L 208.472071 248.053459 
L 209.557872 281.765693 
L 210.643673 227.546365 
L 211.729474 264.2338 
L 212.815275 280.613601 
L 213.901076 270.634912 
L 214.986877 279.230946 
L 216.072679 215.618685 
L 217.15848 253.224997 
L 218.244281 257.729392 
L 219.330082 279.364433 
L 220.415883 252.163074 
L 221.501684 278.473098 
L 222.587486 248.52416 
L 223.673287 193.625563 
L 224.759088 280.920704 
L 225.844889 282.319947 
L 226.93069 264.651317 
L 228.016491 284.597684 
L 229.102292 249.531766 
L 230.188094 279.090527 
L 231.273895 264.546766 
L 232.359696 278.76833 
L 233.445497 255.456356 
L 234.531298 287.753751 
L 235.617099 279.472635 
L 236.702901 249.784034 
L 237.788702 263.021523 
L 238.874503 249.635551 
L 239.960304 280.197757 
L 241.046105 280.874701 
L 242.131906 274.025497 
L 243.217708 281.627227 
L 244.303509 279.361806 
L 245.38931 250.833244 
L 246.475111 248.644648 
L 247.560912 241.162725 
L 248.646713 279.82564 
L 249.732514 280.542179 
L 250.818316 280.469411 
L 251.904117 282.706892 
L 252.989918 278.216942 
L 254.075719 280.720641 
L 255.16152 282.869901 
L 256.247321 278.85744 
L 257.333123 255.963458 
L 258.418924 254.732301 
L 259.504725 280.240802 
L 260.590526 288.480259 
L 261.676327 283.975787 
L 262.762128 248.580088 
L 263.847929 279.729546 
L 264.933731 279.832903 
L 266.019532 248.514638 
L 267.105333 279.750261 
L 268.191134 280.518162 
L 269.276935 280.575109 
L 270.362736 268.806477 
L 271.448538 280.865479 
L 272.534339 280.549191 
L 273.62014 279.717586 
L 274.705941 242.535188 
L 275.791742 280.372437 
L 276.877543 279.388882 
L 277.963344 256.866245 
L 279.049146 279.033921 
L 280.134947 255.411258 
L 281.220748 279.724557 
L 282.306549 277.065374 
L 283.39235 276.105204 
L 284.478151 280.953227 
L 285.563953 278.001684 
L 286.649754 282.922638 
L 287.735555 264.126125 
L 288.821356 279.959894 
L 289.907157 280.514822 
L 292.07876 280.62198 
L 293.164561 284.161368 
L 294.250362 283.775533 
L 295.336163 249.070715 
L 296.421964 220.534966 
L 297.507765 282.332944 
L 298.593566 283.558354 
L 299.679368 280.658093 
L 300.765169 280.540576 
L 301.85097 280.654483 
L 302.936771 283.563647 
L 304.022572 285.177975 
L 306.194175 252.08973 
L 307.279976 279.351557 
L 308.365777 280.572705 
L 309.451578 280.548879 
L 310.537379 280.852638 
L 311.62318 273.239806 
L 312.708981 283.673862 
L 313.794783 284.186091 
L 314.880584 280.627145 
L 315.966385 282.527396 
L 317.052186 284.149654 
L 318.137987 280.475425 
L 321.395391 280.731195 
L 322.481192 281.945497 
L 323.566993 264.464769 
L 324.652794 283.522414 
L 325.738595 280.567025 
L 326.824396 280.542677 
L 327.910198 280.744306 
L 328.995999 281.13126 
L 330.0818 283.466175 
L 331.167601 286.114879 
L 332.253402 280.199928 
L 333.339203 285.304879 
L 334.425005 284.877753 
L 335.510806 280.54705 
L 336.596607 280.570139 
L 337.682408 279.718769 
L 338.768209 248.551753 
L 339.85401 279.842672 
L 340.939811 280.574471 
L 346.368817 280.473792 
L 347.454618 284.053709 
L 349.626221 280.708861 
L 350.712022 280.545897 
L 356.141028 280.570993 
L 357.226829 279.517977 
L 358.31263 249.634355 
L 359.398431 283.617921 
L 360.484232 284.777265 
L 361.570033 280.497045 
L 362.655835 280.550974 
L 363.741636 280.474558 
L 364.827437 281.890219 
L 365.913238 275.175112 
L 366.999039 280.843337 
L 368.08484 280.547381 
L 381.114454 280.511042 
L 382.200255 280.05534 
L 383.286057 265.071071 
L 384.371858 280.8402 
L 385.457659 280.552263 
L 386.54346 280.887916 
L 387.629261 270.14207 
L 388.715062 249.133364 
L 389.800863 255.532526 
L 390.886665 279.636023 
L 391.972466 281.360045 
L 393.058267 283.633579 
L 394.144068 283.206222 
L 395.229869 280.108612 
L 396.31567 280.769232 
L 397.401472 280.545859 
L 398.487273 280.551897 
L 398.487273 280.551897 
" clip-path="url(#p26ef9035e2)" style="fill: none; stroke-dasharray: 1.85,0.8; stroke-dashoffset: 0; stroke: #8000ff; stroke-width: 0.5"/>
   </g>
   <g id="line2d_19">
    <path d="M 73.832727 280.551897 
L 124.865382 280.545864 
L 125.951183 280.720025 
L 127.036984 281.945251 
L 128.122785 283.92842 
L 129.208586 280.47204 
L 131.380189 280.551983 
L 146.581405 280.54622 
L 147.667206 279.435378 
L 148.753007 256.728545 
L 149.838808 280.677072 
L 152.01041 288.400055 
L 153.096212 282.181637 
L 154.182013 280.72304 
L 155.267814 279.840321 
L 156.353615 246.385723 
L 157.439416 282.055267 
L 158.525217 280.757228 
L 159.611019 277.335466 
L 160.69682 282.718462 
L 161.782621 263.470078 
L 162.868422 277.074954 
L 163.954223 275.476271 
L 165.040024 280.784521 
L 166.125825 280.404033 
L 167.211627 257.421421 
L 168.297428 291.765369 
L 169.383229 283.202074 
L 170.46903 253.202208 
L 171.554831 229.049757 
L 172.640632 245.804764 
L 173.726434 223.388678 
L 174.812235 287.769454 
L 175.898036 257.578775 
L 176.983837 192.837508 
L 178.069638 256.970302 
L 179.155439 267.120188 
L 180.24124 247.830051 
L 181.327042 176.782932 
L 182.412843 283.307378 
L 183.498644 280.553444 
L 184.584445 284.813363 
L 185.670246 285.902864 
L 187.841849 205.512822 
L 188.92765 219.606726 
L 190.013451 246.863267 
L 191.099252 222.711501 
L 192.185053 281.72858 
L 193.270854 218.691367 
L 194.356656 257.670549 
L 195.442457 260.570217 
L 196.528258 282.037001 
L 197.614059 261.03266 
L 198.69986 232.681496 
L 199.785661 248.233817 
L 200.871462 205.258244 
L 201.957264 214.039686 
L 203.043065 216.639931 
L 204.128866 263.060278 
L 205.214667 224.501395 
L 206.300468 279.567707 
L 207.386269 270.881356 
L 208.472071 225.838119 
L 209.557872 248.738298 
L 210.643673 279.9127 
L 211.729474 279.859197 
L 212.815275 247.749614 
L 213.901076 280.720102 
L 214.986877 289.336099 
L 216.072679 243.641663 
L 217.15848 248.929605 
L 218.244281 244.738762 
L 219.330082 281.829776 
L 220.415883 252.072849 
L 221.501684 212.690122 
L 222.587486 279.814648 
L 223.673287 269.944564 
L 224.759088 246.909297 
L 225.844889 280.952959 
L 226.93069 273.763349 
L 228.016491 251.463851 
L 229.102292 223.607783 
L 230.188094 273.417782 
L 231.273895 270.52808 
L 232.359696 286.759154 
L 233.445497 274.860235 
L 234.531298 280.754795 
L 235.617099 282.012096 
L 236.702901 278.299955 
L 237.788702 292.243415 
L 238.874503 252.703795 
L 239.960304 275.393853 
L 241.046105 247.28309 
L 242.131906 258.429723 
L 243.217708 275.067292 
L 244.303509 268.278566 
L 245.38931 282.927133 
L 246.475111 254.327072 
L 247.560912 266.061649 
L 248.646713 263.170494 
L 249.732514 250.643996 
L 250.818316 279.257882 
L 251.904117 285.195235 
L 252.989918 279.471225 
L 254.075719 286.85449 
L 255.16152 254.927083 
L 256.247321 279.268675 
L 257.333123 258.649372 
L 258.418924 242.912111 
L 259.504725 278.282144 
L 260.590526 267.367672 
L 261.676327 268.925157 
L 262.762128 217.161846 
L 263.847929 239.845986 
L 264.933731 277.422565 
L 266.019532 281.010409 
L 267.105333 264.465538 
L 268.191134 236.468193 
L 269.276935 280.577901 
L 270.362736 241.658103 
L 271.448538 257.001168 
L 272.534339 248.539893 
L 273.62014 285.849076 
L 274.705941 260.533397 
L 275.791742 279.600885 
L 276.877543 284.919856 
L 277.963344 242.721977 
L 279.049146 251.361348 
L 280.134947 280.233503 
L 281.220748 282.358362 
L 282.306549 217.131502 
L 283.39235 248.772898 
L 284.478151 284.26562 
L 285.563953 277.957097 
L 286.649754 281.599852 
L 287.735555 258.564856 
L 288.821356 279.249995 
L 289.907157 267.333756 
L 290.992958 281.012209 
L 292.07876 281.498827 
L 293.164561 272.67015 
L 294.250362 260.165268 
L 295.336163 280.750789 
L 296.421964 280.805756 
L 297.507765 262.070069 
L 298.593566 279.855729 
L 299.679368 284.093067 
L 300.765169 254.465016 
L 301.85097 284.77696 
L 302.936771 250.22796 
L 304.022572 279.471305 
L 305.108373 280.538912 
L 306.194175 279.804557 
L 307.279976 262.641399 
L 308.365777 280.802425 
L 309.451578 280.455939 
L 310.537379 289.389102 
L 311.62318 280.808813 
L 312.708981 286.088897 
L 313.794783 285.580348 
L 314.880584 223.217252 
L 315.966385 280.178555 
L 317.052186 279.735996 
L 318.137987 243.617198 
L 319.223788 280.964396 
L 320.30959 280.668318 
L 321.395391 275.249614 
L 322.481192 246.560749 
L 323.566993 254.764097 
L 324.652794 281.078148 
L 325.738595 280.536058 
L 326.824396 284.928975 
L 327.910198 284.79126 
L 328.995999 280.564068 
L 330.0818 280.502679 
L 331.167601 282.065798 
L 332.253402 216.454603 
L 333.339203 282.127784 
L 334.425005 280.507154 
L 336.596607 280.574112 
L 337.682408 279.715514 
L 338.768209 248.561874 
L 339.85401 282.930817 
L 340.939811 260.867199 
L 342.025613 279.450661 
L 343.111414 291.28041 
L 344.197215 292.541464 
L 345.283016 282.328993 
L 346.368817 269.127025 
L 347.454618 237.313555 
L 348.54042 250.720123 
L 349.626221 252.481244 
L 350.712022 247.839257 
L 351.797823 276.698576 
L 352.883624 282.523107 
L 353.969425 279.504748 
L 355.055227 248.90394 
L 356.141028 225.768753 
L 357.226829 265.060686 
L 358.31263 281.9017 
L 359.398431 267.408639 
L 360.484232 265.910921 
L 361.570033 253.097666 
L 362.655835 274.20591 
L 363.741636 280.866019 
L 364.827437 280.54742 
L 368.08484 280.538407 
L 369.170642 280.183369 
L 370.256443 222.22955 
L 371.342244 272.551111 
L 372.428045 281.60782 
L 373.513846 280.481331 
L 374.599647 280.518393 
L 375.685448 279.899581 
L 376.77125 263.636911 
L 377.857051 280.822788 
L 378.942852 280.555989 
L 389.800863 280.574481 
L 390.886665 279.858804 
L 391.972466 248.579338 
L 393.058267 279.72043 
L 394.144068 280.037128 
L 395.229869 248.940079 
L 396.31567 282.767036 
L 397.401472 280.490355 
L 398.487273 280.551897 
L 398.487273 280.551897 
" clip-path="url(#p26ef9035e2)" style="fill: none; stroke-dasharray: 1.85,0.8; stroke-dashoffset: 0; stroke: #00b5eb; stroke-width: 0.5"/>
   </g>
   <g id="line2d_20">
    <path d="M 73.832727 280.551897 
L 124.865382 280.545864 
L 125.951183 280.720025 
L 127.036984 281.945251 
L 128.122785 283.92842 
L 129.208586 280.47204 
L 131.380189 280.551983 
L 146.581405 280.54622 
L 147.667206 279.435378 
L 148.753007 256.728545 
L 149.838808 280.677072 
L 152.01041 288.400073 
L 153.096212 282.181484 
L 154.182013 280.70804 
L 155.267814 280.546005 
L 158.525217 280.565876 
L 159.611019 280.384965 
L 160.69682 255.253934 
L 161.782621 282.654875 
L 162.868422 249.481876 
L 163.954223 280.595653 
L 165.040024 244.621381 
L 166.125825 281.059659 
L 167.211627 238.623803 
L 168.297428 261.422974 
L 169.383229 279.748932 
L 170.46903 280.496193 
L 171.554831 282.447142 
L 172.640632 223.628886 
L 173.726434 282.567644 
L 174.812235 225.935395 
L 175.898036 282.029891 
L 176.983837 248.83072 
L 178.069638 253.322037 
L 179.155439 279.29999 
L 180.24124 251.925762 
L 181.327042 283.350663 
L 182.412843 280.090217 
L 183.498644 250.960104 
L 184.584445 248.287603 
L 185.670246 248.648768 
L 186.756047 250.318269 
L 187.841849 270.22013 
L 188.92765 250.868587 
L 190.013451 185.374037 
L 191.099252 254.802967 
L 192.185053 269.540283 
L 193.270854 251.259748 
L 194.356656 272.618449 
L 195.442457 262.293053 
L 196.528258 249.904845 
L 197.614059 178.932789 
L 198.69986 278.866259 
L 199.785661 216.274927 
L 200.871462 228.922916 
L 201.957264 255.803794 
L 203.043065 248.548468 
L 204.128866 281.416192 
L 205.214667 243.176959 
L 206.300468 281.566045 
L 207.386269 236.659621 
L 208.472071 234.35887 
L 209.557872 215.2851 
L 210.643673 228.327192 
L 211.729474 264.271834 
L 212.815275 280.264679 
L 213.901076 280.289352 
L 214.986877 213.12037 
L 216.072679 279.569844 
L 217.15848 229.274169 
L 218.244281 259.488741 
L 219.330082 189.791819 
L 220.415883 210.031135 
L 221.501684 241.724586 
L 222.587486 247.891958 
L 223.673287 228.949552 
L 224.759088 204.99653 
L 225.844889 254.205855 
L 226.93069 254.164159 
L 228.016491 134.79275 
L 230.188094 284.036146 
L 231.273895 241.918118 
L 232.359696 279.344131 
L 233.445497 220.81503 
L 234.531298 259.026054 
L 235.617099 163.863433 
L 236.702901 236.625709 
L 237.788702 244.743705 
L 239.960304 182.163731 
L 241.046105 189.103779 
L 242.131906 212.287345 
L 243.217708 277.291675 
L 244.303509 273.572523 
L 245.38931 236.36248 
L 246.475111 216.25591 
L 247.560912 220.707519 
L 248.646713 244.86746 
L 249.732514 276.992071 
L 250.818316 245.441889 
L 251.904117 243.257229 
L 252.989918 275.952957 
L 254.075719 269.611354 
L 255.16152 230.270941 
L 256.247321 281.093596 
L 257.333123 181.750115 
L 258.418924 222.404411 
L 259.504725 248.528776 
L 260.590526 255.571563 
L 261.676327 277.943058 
L 262.762128 186.945678 
L 263.847929 214.921583 
L 264.933731 234.26115 
L 266.019532 279.94648 
L 267.105333 263.794994 
L 268.191134 271.699516 
L 269.276935 216.474181 
L 270.362736 252.029366 
L 271.448538 205.119174 
L 272.534339 248.255882 
L 273.62014 276.159707 
L 274.705941 269.254446 
L 275.791742 183.957923 
L 276.877543 260.196249 
L 277.963344 287.135232 
L 279.049146 249.879647 
L 280.134947 216.836933 
L 281.220748 254.984592 
L 282.306549 281.862492 
L 283.39235 273.740788 
L 284.478151 263.082805 
L 285.563953 283.926895 
L 286.649754 283.680482 
L 287.735555 261.524392 
L 288.821356 210.197103 
L 289.907157 247.481912 
L 290.992958 278.602194 
L 292.07876 285.466523 
L 293.164561 279.398917 
L 294.250362 284.447577 
L 295.336163 241.902951 
L 296.421964 245.441304 
L 297.507765 242.985627 
L 298.593566 245.222906 
L 299.679368 286.806482 
L 300.765169 239.247147 
L 301.85097 284.600409 
L 302.936771 241.47148 
L 304.022572 251.159325 
L 305.108373 280.549428 
L 306.194175 211.42365 
L 307.279976 283.186682 
L 308.365777 283.339745 
L 309.451578 221.297089 
L 310.537379 257.677736 
L 311.62318 191.910235 
L 312.708981 248.472562 
L 313.794783 288.159083 
L 314.880584 290.495348 
L 315.966385 280.07191 
L 317.052186 266.19943 
L 318.137987 283.350613 
L 319.223788 280.271966 
L 320.30959 239.967797 
L 321.395391 224.409975 
L 322.481192 279.936316 
L 323.566993 270.661631 
L 324.652794 284.353819 
L 325.738595 248.70519 
L 326.824396 255.174692 
L 327.910198 281.908591 
L 328.995999 279.300526 
L 330.0818 229.443617 
L 331.167601 272.998722 
L 332.253402 280.42291 
L 333.339203 283.792472 
L 334.425005 262.350052 
L 335.510806 280.829778 
L 336.596607 289.665007 
L 337.682408 275.396473 
L 338.768209 248.392772 
L 339.85401 292.766993 
L 340.939811 279.935204 
L 342.025613 280.350194 
L 343.111414 213.649063 
L 344.197215 234.768452 
L 345.283016 280.333801 
L 346.368817 255.618262 
L 347.454618 264.784048 
L 348.54042 186.876022 
L 349.626221 279.194044 
L 350.712022 264.702807 
L 351.797823 280.002798 
L 352.883624 280.311255 
L 353.969425 208.922514 
L 355.055227 278.615429 
L 356.141028 251.459049 
L 357.226829 269.748966 
L 358.31263 285.060676 
L 359.398431 281.033408 
L 360.484232 261.643307 
L 361.570033 245.728921 
L 362.655835 274.685713 
L 363.741636 265.377765 
L 364.827437 278.679197 
L 365.913238 281.212074 
L 366.999039 261.72816 
L 368.08484 275.001878 
L 369.170642 280.96218 
L 370.256443 266.312855 
L 371.342244 284.372032 
L 372.428045 283.23922 
L 373.513846 291.779531 
L 374.599647 258.18778 
L 375.685448 253.52952 
L 376.77125 267.799416 
L 377.857051 225.084173 
L 378.942852 279.287942 
L 380.028653 284.519591 
L 381.114454 280.470617 
L 383.286057 280.551999 
L 387.629261 280.570267 
L 388.715062 280.676195 
L 389.800863 241.183865 
L 390.886665 286.648409 
L 391.972466 280.359806 
L 393.058267 267.224591 
L 394.144068 280.854411 
L 395.229869 280.544462 
L 396.31567 284.900576 
L 397.401472 284.92185 
L 398.487273 280.551897 
L 398.487273 280.551897 
" clip-path="url(#p26ef9035e2)" style="fill: none; stroke-dasharray: 1.85,0.8; stroke-dashoffset: 0; stroke: #80ffb4; stroke-width: 0.5"/>
   </g>
   <g id="line2d_21">
    <path d="M 73.832727 280.551897 
L 124.865382 280.545864 
L 125.951183 280.720025 
L 127.036984 281.945251 
L 128.122785 283.92842 
L 129.208586 280.47204 
L 131.380189 280.551983 
L 146.581405 280.54622 
L 147.667206 279.435378 
L 148.753007 256.728545 
L 149.838808 280.677072 
L 152.01041 288.400073 
L 153.096212 282.181484 
L 154.182013 280.70804 
L 155.267814 280.546004 
L 159.611019 280.674645 
L 160.69682 288.001924 
L 161.782621 288.074336 
L 162.868422 249.371369 
L 163.954223 278.190482 
L 165.040024 238.412367 
L 166.125825 250.246578 
L 167.211627 282.65464 
L 168.297428 262.707348 
L 169.383229 219.766175 
L 170.46903 278.93626 
L 171.554831 261.35635 
L 172.640632 281.928817 
L 173.726434 247.270238 
L 174.812235 269.886788 
L 175.898036 274.865626 
L 176.983837 253.649163 
L 178.069638 285.501409 
L 179.155439 248.122775 
L 180.24124 254.041782 
L 181.327042 274.004685 
L 182.412843 273.384395 
L 183.498644 251.341154 
L 184.584445 286.599552 
L 185.670246 235.41346 
L 186.756047 281.859904 
L 187.841849 258.068934 
L 188.92765 270.495009 
L 190.013451 280.59386 
L 191.099252 273.760279 
L 192.185053 242.980347 
L 193.270854 186.227157 
L 194.356656 214.064162 
L 195.442457 191.421724 
L 196.528258 183.927276 
L 197.614059 234.157819 
L 198.69986 202.970683 
L 199.785661 280.463844 
L 200.871462 266.046732 
L 201.957264 229.596396 
L 203.043065 248.485184 
L 204.128866 204.519645 
L 205.214667 266.858252 
L 206.300468 279.731903 
L 207.386269 258.571144 
L 208.472071 254.140432 
L 209.557872 282.09916 
L 210.643673 237.623671 
L 211.729474 241.902769 
L 212.815275 279.381885 
L 213.901076 272.558975 
L 214.986877 227.975329 
L 216.072679 241.383873 
L 217.15848 167.428918 
L 218.244281 278.114502 
L 220.415883 241.242967 
L 221.501684 206.864678 
L 222.587486 241.472167 
L 223.673287 115.509623 
L 225.844889 181.809735 
L 226.93069 245.671734 
L 228.016491 228.206973 
L 229.102292 216.239339 
L 230.188094 126.855237 
L 231.273895 275.840893 
L 232.359696 286.195811 
L 233.445497 254.341442 
L 234.531298 264.645525 
L 235.617099 279.951778 
L 236.702901 184.517698 
L 237.788702 257.531772 
L 238.874503 166.445462 
L 239.960304 173.302885 
L 241.046105 206.13709 
L 242.131906 192.238067 
L 243.217708 248.22632 
L 244.303509 244.25227 
L 245.38931 254.07753 
L 246.475111 253.917526 
L 247.560912 287.78389 
L 248.646713 201.064484 
L 249.732514 214.75528 
L 250.818316 208.970034 
L 251.904117 240.305165 
L 252.989918 278.402775 
L 254.075719 247.077439 
L 255.16152 272.405257 
L 256.247321 249.117078 
L 257.333123 213.822388 
L 258.418924 147.432942 
L 259.504725 184.887514 
L 260.590526 251.966599 
L 261.676327 257.959562 
L 262.762128 281.308266 
L 263.847929 228.013003 
L 264.933731 235.246198 
L 266.019532 216.647837 
L 267.105333 259.872738 
L 268.191134 257.37457 
L 269.276935 248.422849 
L 270.362736 286.952315 
L 271.448538 285.075375 
L 272.534339 279.983907 
L 273.62014 262.744841 
L 274.705941 248.008923 
L 275.791742 249.827828 
L 276.877543 241.174308 
L 277.963344 247.909681 
L 279.049146 178.676033 
L 280.134947 228.267061 
L 281.220748 220.037365 
L 282.306549 248.912843 
L 283.39235 219.046061 
L 284.478151 274.431801 
L 285.563953 283.855589 
L 286.649754 281.312956 
L 287.735555 250.558282 
L 288.821356 250.230305 
L 289.907157 279.301188 
L 290.992958 245.428119 
L 292.07876 244.717935 
L 293.164561 243.082471 
L 294.250362 144.544697 
L 295.336163 281.895109 
L 296.421964 262.551504 
L 297.507765 261.214305 
L 298.593566 283.134011 
L 299.679368 245.132499 
L 300.765169 237.470274 
L 301.85097 257.83444 
L 302.936771 246.073751 
L 304.022572 272.493334 
L 305.108373 280.139252 
L 306.194175 277.731445 
L 307.279976 277.148331 
L 308.365777 228.547218 
L 310.537379 275.714925 
L 311.62318 209.195246 
L 312.708981 277.273963 
L 313.794783 239.448736 
L 314.880584 284.609316 
L 315.966385 249.184346 
L 317.052186 264.584231 
L 318.137987 258.85643 
L 319.223788 250.088035 
L 320.30959 249.59102 
L 321.395391 273.192428 
L 322.481192 218.762811 
L 323.566993 258.471169 
L 324.652794 271.11136 
L 325.738595 248.075511 
L 326.824396 182.130922 
L 327.910198 276.025734 
L 328.995999 280.538967 
L 330.0818 280.578891 
L 331.167601 279.795925 
L 332.253402 248.506114 
L 333.339203 278.605161 
L 334.425005 255.02112 
L 335.510806 280.640486 
L 336.596607 269.045302 
L 337.682408 283.139058 
L 338.768209 249.215981 
L 339.85401 282.291517 
L 340.939811 222.801836 
L 342.025613 279.226046 
L 343.111414 287.435139 
L 344.197215 271.877517 
L 345.283016 218.395998 
L 346.368817 270.279757 
L 347.454618 269.088856 
L 348.54042 282.924021 
L 349.626221 242.872559 
L 350.712022 295.488 
L 351.797823 247.528856 
L 352.883624 283.323264 
L 353.969425 258.851999 
L 355.055227 277.996786 
L 356.141028 244.020654 
L 357.226829 237.710265 
L 358.31263 277.136218 
L 359.398431 287.883634 
L 360.484232 215.914949 
L 361.570033 281.536693 
L 362.655835 220.905239 
L 363.741636 268.143655 
L 364.827437 276.707908 
L 365.913238 250.917693 
L 366.999039 291.886239 
L 368.08484 286.585238 
L 369.170642 248.568506 
L 370.256443 243.107409 
L 371.342244 274.667095 
L 372.428045 281.604226 
L 373.513846 284.705323 
L 374.599647 284.411231 
L 375.685448 285.010937 
L 376.77125 249.703777 
L 377.857051 279.281779 
L 378.942852 251.325291 
L 380.028653 281.98917 
L 381.114454 254.321632 
L 382.200255 279.309864 
L 383.286057 266.477197 
L 384.371858 227.077823 
L 385.457659 277.637818 
L 386.54346 231.087059 
L 387.629261 256.251645 
L 388.715062 249.950441 
L 389.800863 234.763541 
L 390.886665 280.825525 
L 391.972466 279.615324 
L 393.058267 285.49038 
L 394.144068 272.908108 
L 395.229869 248.666495 
L 396.31567 261.091245 
L 397.401472 224.661651 
L 398.487273 280.551897 
L 398.487273 280.551897 
" clip-path="url(#p26ef9035e2)" style="fill: none; stroke-dasharray: 1.85,0.8; stroke-dashoffset: 0; stroke: #ffb360; stroke-width: 0.5"/>
   </g>
   <g id="line2d_22">
    <path d="M 73.832727 280.551897 
L 124.865382 280.545864 
L 125.951183 280.720025 
L 127.036984 281.945251 
L 128.122785 283.92842 
L 129.208586 280.47204 
L 131.380189 280.551983 
L 146.581405 280.54622 
L 147.667206 279.435378 
L 148.753007 256.728545 
L 149.838808 280.677072 
L 152.01041 288.400073 
L 153.096212 282.181484 
L 154.182013 280.70804 
L 155.267814 280.546005 
L 159.611019 280.597026 
L 160.69682 283.290957 
L 161.782621 262.570489 
L 162.868422 249.640808 
L 163.954223 280.090664 
L 165.040024 280.574433 
L 166.125825 280.534642 
L 167.211627 279.857928 
L 168.297428 243.927563 
L 169.383229 222.061255 
L 170.46903 279.883701 
L 171.554831 279.493171 
L 172.640632 250.428761 
L 173.726434 280.209961 
L 174.812235 280.566727 
L 175.898036 280.667698 
L 176.983837 283.290429 
L 178.069638 284.75342 
L 179.155439 273.572951 
L 180.24124 281.701737 
L 181.327042 259.027165 
L 182.412843 281.621216 
L 183.498644 279.597926 
L 184.584445 288.831261 
L 185.670246 284.349457 
L 186.756047 280.572997 
L 187.841849 283.690294 
L 188.92765 257.714846 
L 190.013451 216.564743 
L 191.099252 286.631623 
L 192.185053 289.112379 
L 193.270854 248.208547 
L 194.356656 291.164791 
L 195.442457 284.584707 
L 196.528258 280.573794 
L 197.614059 279.711533 
L 198.69986 242.302471 
L 200.871462 255.048204 
L 201.957264 260.03012 
L 203.043065 216.293443 
L 204.128866 202.486366 
L 205.214667 258.641645 
L 206.300468 249.302141 
L 207.386269 254.158841 
L 208.472071 273.426408 
L 209.557872 250.148484 
L 210.643673 215.486161 
L 211.729474 224.911321 
L 212.815275 215.594887 
L 213.901076 242.008404 
L 214.986877 244.355387 
L 216.072679 220.307391 
L 217.15848 200.804301 
L 218.244281 251.397731 
L 219.330082 187.057617 
L 220.415883 248.68195 
L 221.501684 274.149006 
L 222.587486 192.708619 
L 223.673287 283.458012 
L 224.759088 267.975861 
L 225.844889 281.785508 
L 226.93069 271.39646 
L 228.016491 253.382984 
L 229.102292 224.389049 
L 230.188094 287.011212 
L 231.273895 278.177016 
L 232.359696 245.721689 
L 233.445497 186.209909 
L 234.531298 203.585154 
L 235.617099 124.764067 
L 236.702901 255.949485 
L 237.788702 236.034828 
L 238.874503 171.63761 
L 239.960304 91.98892 
L 241.046105 53.568 
L 242.131906 104.474161 
L 243.217708 184.236538 
L 244.303509 253.406883 
L 245.38931 151.599321 
L 246.475111 247.823196 
L 247.560912 261.727675 
L 248.646713 251.242535 
L 249.732514 221.054585 
L 250.818316 195.804417 
L 251.904117 284.293816 
L 252.989918 225.931883 
L 254.075719 292.112989 
L 255.16152 219.862113 
L 256.247321 183.620615 
L 257.333123 230.139246 
L 258.418924 186.976658 
L 259.504725 151.784011 
L 260.590526 223.091929 
L 261.676327 222.00288 
L 262.762128 278.168355 
L 263.847929 183.181631 
L 264.933731 200.562519 
L 266.019532 182.912182 
L 267.105333 219.129841 
L 268.191134 266.363577 
L 269.276935 88.426987 
L 270.362736 260.339079 
L 271.448538 231.03723 
L 272.534339 217.739599 
L 273.62014 270.713735 
L 274.705941 235.682281 
L 275.791742 282.029154 
L 276.877543 214.03063 
L 277.963344 237.290587 
L 279.049146 283.143419 
L 280.134947 253.397399 
L 281.220748 278.458849 
L 282.306549 248.705912 
L 283.39235 252.487624 
L 284.478151 248.15907 
L 285.563953 279.525573 
L 286.649754 279.705632 
L 287.735555 242.458218 
L 288.821356 276.919982 
L 289.907157 261.79421 
L 290.992958 237.467953 
L 292.07876 187.531823 
L 293.164561 256.127473 
L 294.250362 256.823344 
L 295.336163 245.573236 
L 296.421964 229.969367 
L 297.507765 266.703302 
L 298.593566 277.079421 
L 299.679368 276.370059 
L 300.765169 282.139611 
L 301.85097 182.369631 
L 302.936771 288.460585 
L 304.022572 269.063508 
L 305.108373 269.927996 
L 306.194175 241.748637 
L 307.279976 246.887636 
L 308.365777 206.913931 
L 309.451578 253.48314 
L 310.537379 264.169573 
L 311.62318 231.459337 
L 312.708981 280.564846 
L 313.794783 268.55053 
L 314.880584 278.688136 
L 315.966385 279.505564 
L 317.052186 259.995013 
L 318.137987 209.147842 
L 319.223788 260.762236 
L 320.30959 251.997697 
L 321.395391 220.218537 
L 322.481192 183.219785 
L 323.566993 256.507221 
L 324.652794 177.70592 
L 325.738595 245.184396 
L 326.824396 207.968983 
L 327.910198 248.523281 
L 328.995999 216.184254 
L 330.0818 272.44967 
L 331.167601 262.522495 
L 332.253402 184.134697 
L 333.339203 255.48688 
L 334.425005 206.545981 
L 335.510806 184.03108 
L 336.596607 256.575966 
L 337.682408 258.847079 
L 339.85401 178.515229 
L 340.939811 248.631128 
L 342.025613 215.226204 
L 344.197215 283.126501 
L 345.283016 248.766546 
L 346.368817 284.777067 
L 347.454618 220.168934 
L 348.54042 280.425952 
L 349.626221 200.136823 
L 350.712022 265.504545 
L 351.797823 279.85312 
L 352.883624 255.582522 
L 353.969425 287.44069 
L 355.055227 282.844685 
L 356.141028 280.703501 
L 357.226829 279.512278 
L 358.31263 249.632982 
L 359.398431 283.549361 
L 360.484232 288.756865 
L 361.570033 282.661343 
L 362.655835 219.294796 
L 363.741636 220.11182 
L 364.827437 280.202672 
L 365.913238 280.544469 
L 366.999039 280.278817 
L 368.08484 234.329189 
L 369.170642 248.637304 
L 370.256443 277.612842 
L 371.342244 215.0538 
L 372.428045 286.610519 
L 373.513846 269.76517 
L 374.599647 216.479177 
L 375.685448 218.755302 
L 376.77125 277.286533 
L 377.857051 253.030469 
L 378.942852 243.821298 
L 380.028653 191.677022 
L 381.114454 253.734167 
L 382.200255 245.751362 
L 383.286057 277.495861 
L 384.371858 292.26651 
L 385.457659 248.594954 
L 386.54346 244.85828 
L 387.629261 248.813069 
L 388.715062 250.038303 
L 389.800863 258.859864 
L 390.886665 198.625174 
L 391.972466 280.933641 
L 393.058267 273.786128 
L 394.144068 253.147435 
L 395.229869 280.202057 
L 396.31567 262.98596 
L 397.401472 285.875419 
L 398.487273 280.551897 
L 398.487273 280.551897 
" clip-path="url(#p26ef9035e2)" style="fill: none; stroke-dasharray: 1.85,0.8; stroke-dashoffset: 0; stroke: #ff0000; stroke-width: 0.5"/>
   </g>
   <g id="patch_3">
    <path d="M 57.6 307.584 
L 57.6 41.472 
" style="fill: none; stroke: #000000; stroke-width: 0.8; stroke-linejoin: miter; stroke-linecap: square"/>
   </g>
   <g id="patch_4">
    <path d="M 414.72 307.584 
L 414.72 41.472 
" style="fill: none; stroke: #000000; stroke-width: 0.8; stroke-linejoin: miter; stroke-linecap: square"/>
   </g>
   <g id="patch_5">
    <path d="M 57.6 307.584 
L 414.72 307.584 
" style="fill: none; stroke: #000000; stroke-width: 0.8; stroke-linejoin: miter; stroke-linecap: square"/>
   </g>
   <g id="patch_6">
    <path d="M 57.6 41.472 
L 414.72 41.472 
" style="fill: none; stroke: #000000; stroke-width: 0.8; stroke-linejoin: miter; stroke-linecap: square"/>
   </g>
   <g id="text_20">
    <!-- Heating Rate ($^{\circ}C.s^{-1}$) -->
    <g transform="translate(271.872 68.0832) scale(0.12 -0.12)">
     <defs>
      <path id="DejaVuSans-48" d="M 628 4666 
L 1259 4666 
L 1259 2753 
L 3553 2753 
L 3553 4666 
L 4184 4666 
L 4184 0 
L 3553 0 
L 3553 2222 
L 1259 2222 
L 1259 0 
L 628 0 
L 628 4666 
z
" transform="scale(0.015625)"/>
      <path id="DejaVuSans-67" d="M 2906 1791 
Q 2906 2416 2648 2759 
Q 2391 3103 1925 3103 
Q 1463 3103 1205 2759 
Q 947 2416 947 1791 
Q 947 1169 1205 825 
Q 1463 481 1925 481 
Q 2391 481 2648 825 
Q 2906 1169 2906 1791 
z
M 3481 434 
Q 3481 -459 3084 -895 
Q 2688 -1331 1869 -1331 
Q 1566 -1331 1297 -1286 
Q 1028 -1241 775 -1147 
L 775 -588 
Q 1028 -725 1275 -790 
Q 1522 -856 1778 -856 
Q 2344 -856 2625 -561 
Q 2906 -266 2906 331 
L 2906 616 
Q 2728 306 2450 153 
Q 2172 0 1784 0 
Q 1141 0 747 490 
Q 353 981 353 1791 
Q 353 2603 747 3093 
Q 1141 3584 1784 3584 
Q 2172 3584 2450 3431 
Q 2728 3278 2906 2969 
L 2906 3500 
L 3481 3500 
L 3481 434 
z
" transform="scale(0.015625)"/>
      <path id="DejaVuSans-52" d="M 2841 2188 
Q 3044 2119 3236 1894 
Q 3428 1669 3622 1275 
L 4263 0 
L 3584 0 
L 2988 1197 
Q 2756 1666 2539 1819 
Q 2322 1972 1947 1972 
L 1259 1972 
L 1259 0 
L 628 0 
L 628 4666 
L 2053 4666 
Q 2853 4666 3247 4331 
Q 3641 3997 3641 3322 
Q 3641 2881 3436 2590 
Q 3231 2300 2841 2188 
z
M 1259 4147 
L 1259 2491 
L 2053 2491 
Q 2509 2491 2742 2702 
Q 2975 2913 2975 3322 
Q 2975 3731 2742 3939 
Q 2509 4147 2053 4147 
L 1259 4147 
z
" transform="scale(0.015625)"/>
      <path id="DejaVuSans-Oblique-73" d="M 3200 3397 
L 3091 2853 
Q 2863 2978 2609 3040 
Q 2356 3103 2088 3103 
Q 1634 3103 1373 2948 
Q 1113 2794 1113 2528 
Q 1113 2219 1719 2053 
Q 1766 2041 1788 2034 
L 1972 1978 
Q 2547 1819 2739 1644 
Q 2931 1469 2931 1166 
Q 2931 609 2489 259 
Q 2047 -91 1331 -91 
Q 1053 -91 747 -37 
Q 441 16 72 128 
L 184 722 
Q 500 559 806 475 
Q 1113 391 1394 391 
Q 1816 391 2080 572 
Q 2344 753 2344 1031 
Q 2344 1331 1650 1516 
L 1591 1531 
L 1394 1581 
Q 956 1697 753 1886 
Q 550 2075 550 2369 
Q 550 2928 970 3256 
Q 1391 3584 2113 3584 
Q 2397 3584 2667 3537 
Q 2938 3491 3200 3397 
z
" transform="scale(0.015625)"/>
     </defs>
     <use xlink:href="#DejaVuSans-48" transform="translate(0 0.684375)"/>
     <use xlink:href="#DejaVuSans-65" transform="translate(75.195312 0.684375)"/>
     <use xlink:href="#DejaVuSans-61" transform="translate(136.71875 0.684375)"/>
     <use xlink:href="#DejaVuSans-74" transform="translate(197.998047 0.684375)"/>
     <use xlink:href="#DejaVuSans-69" transform="translate(237.207031 0.684375)"/>
     <use xlink:href="#DejaVuSans-6e" transform="translate(264.990234 0.684375)"/>
     <use xlink:href="#DejaVuSans-67" transform="translate(328.369141 0.684375)"/>
     <use xlink:href="#DejaVuSans-20" transform="translate(391.845703 0.684375)"/>
     <use xlink:href="#DejaVuSans-52" transform="translate(423.632812 0.684375)"/>
     <use xlink:href="#DejaVuSans-61" transform="translate(493.115234 0.684375)"/>
     <use xlink:href="#DejaVuSans-74" transform="translate(554.394531 0.684375)"/>
     <use xlink:href="#DejaVuSans-65" transform="translate(593.603516 0.684375)"/>
     <use xlink:href="#DejaVuSans-20" transform="translate(655.126953 0.684375)"/>
     <use xlink:href="#DejaVuSans-28" transform="translate(686.914062 0.684375)"/>
     <use xlink:href="#DejaVuSans-2218" transform="translate(726.884766 38.965625) scale(0.7)"/>
     <use xlink:href="#DejaVuSans-Oblique-43" transform="translate(773.4375 0.684375)"/>
     <use xlink:href="#DejaVuSans-2e" transform="translate(843.261719 0.684375)"/>
     <use xlink:href="#DejaVuSans-Oblique-73" transform="translate(894.53125 0.684375)"/>
     <use xlink:href="#DejaVuSans-2212" transform="translate(951.280755 38.965625) scale(0.7)"/>
     <use xlink:href="#DejaVuSans-31" transform="translate(1009.933099 38.965625) scale(0.7)"/>
     <use xlink:href="#DejaVuSans-29" transform="translate(1057.203607 0.684375)"/>
    </g>
   </g>
   <g id="legend_1">
    <g id="patch_7">
     <path d="M 314.584 149.473825 
L 362.487125 149.473825 
Q 364.487125 149.473825 364.487125 147.473825 
L 364.487125 75.0832 
Q 364.487125 73.0832 362.487125 73.0832 
L 314.584 73.0832 
Q 312.584 73.0832 312.584 75.0832 
L 312.584 147.473825 
Q 312.584 149.473825 314.584 149.473825 
z
" style="fill: #ffffff; opacity: 0.8; stroke: #cccccc; stroke-linejoin: miter"/>
    </g>
    <g id="line2d_23">
     <path d="M 316.584 81.181637 
L 326.584 81.181637 
L 336.584 81.181637 
" style="fill: none; stroke-dasharray: 1.85,0.8; stroke-dashoffset: 0; stroke: #8000ff; stroke-width: 0.5"/>
    </g>
    <g id="text_21">
     <!-- 0.1 -->
     <g transform="translate(344.584 84.681637) scale(0.1 -0.1)">
      <use xlink:href="#DejaVuSans-30"/>
      <use xlink:href="#DejaVuSans-2e" transform="translate(63.623047 0)"/>
      <use xlink:href="#DejaVuSans-31" transform="translate(95.410156 0)"/>
     </g>
    </g>
    <g id="line2d_24">
     <path d="M 316.584 95.859762 
L 326.584 95.859762 
L 336.584 95.859762 
" style="fill: none; stroke-dasharray: 1.85,0.8; stroke-dashoffset: 0; stroke: #00b5eb; stroke-width: 0.5"/>
    </g>
    <g id="text_22">
     <!-- 1 -->
     <g transform="translate(344.584 99.359762) scale(0.1 -0.1)">
      <use xlink:href="#DejaVuSans-31"/>
     </g>
    </g>
    <g id="line2d_25">
     <path d="M 316.584 110.537887 
L 326.584 110.537887 
L 336.584 110.537887 
" style="fill: none; stroke-dasharray: 1.85,0.8; stroke-dashoffset: 0; stroke: #80ffb4; stroke-width: 0.5"/>
    </g>
    <g id="text_23">
     <!-- 5 -->
     <g transform="translate(344.584 114.037887) scale(0.1 -0.1)">
      <use xlink:href="#DejaVuSans-35"/>
     </g>
    </g>
    <g id="line2d_26">
     <path d="M 316.584 125.216012 
L 326.584 125.216012 
L 336.584 125.216012 
" style="fill: none; stroke-dasharray: 1.85,0.8; stroke-dashoffset: 0; stroke: #ffb360; stroke-width: 0.5"/>
    </g>
    <g id="text_24">
     <!-- 10 -->
     <g transform="translate(344.584 128.716012) scale(0.1 -0.1)">
      <use xlink:href="#DejaVuSans-31"/>
      <use xlink:href="#DejaVuSans-30" transform="translate(63.623047 0)"/>
     </g>
    </g>
    <g id="line2d_27">
     <path d="M 316.584 139.894137 
L 326.584 139.894137 
L 336.584 139.894137 
" style="fill: none; stroke-dasharray: 1.85,0.8; stroke-dashoffset: 0; stroke: #ff0000; stroke-width: 0.5"/>
    </g>
    <g id="text_25">
     <!-- 20 -->
     <g transform="translate(344.584 143.394137) scale(0.1 -0.1)">
      <use xlink:href="#DejaVuSans-32"/>
      <use xlink:href="#DejaVuSans-30" transform="translate(63.623047 0)"/>
     </g>
    </g>
   </g>
  </g>
 </g>
 <defs>
  <clipPath id="p26ef9035e2">
   <rect x="57.6" y="41.472" width="357.12" height="266.112"/>
  </clipPath>
 </defs>
</svg>
