<?xml version="1.0" encoding="utf-8" standalone="no"?>
<!DOCTYPE svg PUBLIC "-//W3C//DTD SVG 1.1//EN"
  "http://www.w3.org/Graphics/SVG/1.1/DTD/svg11.dtd">
<svg xmlns:xlink="http://www.w3.org/1999/xlink" width="460.8pt" height="345.6pt" viewBox="0 0 460.8 345.6" xmlns="http://www.w3.org/2000/svg" version="1.1">
 <metadata>
  <rdf:RDF xmlns:dc="http://purl.org/dc/elements/1.1/" xmlns:cc="http://creativecommons.org/ns#" xmlns:rdf="http://www.w3.org/1999/02/22-rdf-syntax-ns#">
   <cc:Work>
    <dc:type rdf:resource="http://purl.org/dc/dcmitype/StillImage"/>
    <dc:date>2025-03-04T10:10:25.827444</dc:date>
    <dc:format>image/svg+xml</dc:format>
    <dc:creator>
     <cc:Agent>
      <dc:title>Matplotlib v3.10.0, https://matplotlib.org/</dc:title>
     </cc:Agent>
    </dc:creator>
   </cc:Work>
  </rdf:RDF>
 </metadata>
 <defs>
  <style type="text/css">*{stroke-linejoin: round; stroke-linecap: butt}</style>
 </defs>
 <g id="figure_1">
  <g id="patch_1">
   <path d="M 0 345.6 
L 460.8 345.6 
L 460.8 0 
L 0 0 
z
" style="fill: #ffffff"/>
  </g>
  <g id="axes_1">
   <g id="patch_2">
    <path d="M 57.6 307.584 
L 414.72 307.584 
L 414.72 41.472 
L 57.6 41.472 
z
" style="fill: #ffffff"/>
   </g>
   <g id="matplotlib.axis_1">
    <g id="xtick_1">
     <g id="line2d_1">
      <defs>
       <path id="m35545559b8" d="M 0 0 
L 0 3.5 
" style="stroke: #000000; stroke-width: 0.8"/>
      </defs>
      <g>
       <use xlink:href="#m35545559b8" x="73.832727" y="307.584" style="stroke: #000000; stroke-width: 0.8"/>
      </g>
     </g>
     <g id="text_1">
      <!-- 0 -->
      <g transform="translate(70.651477 322.182437) scale(0.1 -0.1)">
       <defs>
        <path id="DejaVuSans-30" d="M 2034 4250 
Q 1547 4250 1301 3770 
Q 1056 3291 1056 2328 
Q 1056 1369 1301 889 
Q 1547 409 2034 409 
Q 2525 409 2770 889 
Q 3016 1369 3016 2328 
Q 3016 3291 2770 3770 
Q 2525 4250 2034 4250 
z
M 2034 4750 
Q 2819 4750 3233 4129 
Q 3647 3509 3647 2328 
Q 3647 1150 3233 529 
Q 2819 -91 2034 -91 
Q 1250 -91 836 529 
Q 422 1150 422 2328 
Q 422 3509 836 4129 
Q 1250 4750 2034 4750 
z
" transform="scale(0.015625)"/>
       </defs>
       <use xlink:href="#DejaVuSans-30"/>
      </g>
     </g>
    </g>
    <g id="xtick_2">
     <g id="line2d_2">
      <g>
       <use xlink:href="#m35545559b8" x="138.763636" y="307.584" style="stroke: #000000; stroke-width: 0.8"/>
      </g>
     </g>
     <g id="text_2">
      <!-- 200 -->
      <g transform="translate(129.219886 322.182437) scale(0.1 -0.1)">
       <defs>
        <path id="DejaVuSans-32" d="M 1228 531 
L 3431 531 
L 3431 0 
L 469 0 
L 469 531 
Q 828 903 1448 1529 
Q 2069 2156 2228 2338 
Q 2531 2678 2651 2914 
Q 2772 3150 2772 3378 
Q 2772 3750 2511 3984 
Q 2250 4219 1831 4219 
Q 1534 4219 1204 4116 
Q 875 4013 500 3803 
L 500 4441 
Q 881 4594 1212 4672 
Q 1544 4750 1819 4750 
Q 2544 4750 2975 4387 
Q 3406 4025 3406 3419 
Q 3406 3131 3298 2873 
Q 3191 2616 2906 2266 
Q 2828 2175 2409 1742 
Q 1991 1309 1228 531 
z
" transform="scale(0.015625)"/>
       </defs>
       <use xlink:href="#DejaVuSans-32"/>
       <use xlink:href="#DejaVuSans-30" transform="translate(63.623047 0)"/>
       <use xlink:href="#DejaVuSans-30" transform="translate(127.246094 0)"/>
      </g>
     </g>
    </g>
    <g id="xtick_3">
     <g id="line2d_3">
      <g>
       <use xlink:href="#m35545559b8" x="203.694545" y="307.584" style="stroke: #000000; stroke-width: 0.8"/>
      </g>
     </g>
     <g id="text_3">
      <!-- 400 -->
      <g transform="translate(194.150795 322.182437) scale(0.1 -0.1)">
       <defs>
        <path id="DejaVuSans-34" d="M 2419 4116 
L 825 1625 
L 2419 1625 
L 2419 4116 
z
M 2253 4666 
L 3047 4666 
L 3047 1625 
L 3713 1625 
L 3713 1100 
L 3047 1100 
L 3047 0 
L 2419 0 
L 2419 1100 
L 313 1100 
L 313 1709 
L 2253 4666 
z
" transform="scale(0.015625)"/>
       </defs>
       <use xlink:href="#DejaVuSans-34"/>
       <use xlink:href="#DejaVuSans-30" transform="translate(63.623047 0)"/>
       <use xlink:href="#DejaVuSans-30" transform="translate(127.246094 0)"/>
      </g>
     </g>
    </g>
    <g id="xtick_4">
     <g id="line2d_4">
      <g>
       <use xlink:href="#m35545559b8" x="268.625455" y="307.584" style="stroke: #000000; stroke-width: 0.8"/>
      </g>
     </g>
     <g id="text_4">
      <!-- 600 -->
      <g transform="translate(259.081705 322.182437) scale(0.1 -0.1)">
       <defs>
        <path id="DejaVuSans-36" d="M 2113 2584 
Q 1688 2584 1439 2293 
Q 1191 2003 1191 1497 
Q 1191 994 1439 701 
Q 1688 409 2113 409 
Q 2538 409 2786 701 
Q 3034 994 3034 1497 
Q 3034 2003 2786 2293 
Q 2538 2584 2113 2584 
z
M 3366 4563 
L 3366 3988 
Q 3128 4100 2886 4159 
Q 2644 4219 2406 4219 
Q 1781 4219 1451 3797 
Q 1122 3375 1075 2522 
Q 1259 2794 1537 2939 
Q 1816 3084 2150 3084 
Q 2853 3084 3261 2657 
Q 3669 2231 3669 1497 
Q 3669 778 3244 343 
Q 2819 -91 2113 -91 
Q 1303 -91 875 529 
Q 447 1150 447 2328 
Q 447 3434 972 4092 
Q 1497 4750 2381 4750 
Q 2619 4750 2861 4703 
Q 3103 4656 3366 4563 
z
" transform="scale(0.015625)"/>
       </defs>
       <use xlink:href="#DejaVuSans-36"/>
       <use xlink:href="#DejaVuSans-30" transform="translate(63.623047 0)"/>
       <use xlink:href="#DejaVuSans-30" transform="translate(127.246094 0)"/>
      </g>
     </g>
    </g>
    <g id="xtick_5">
     <g id="line2d_5">
      <g>
       <use xlink:href="#m35545559b8" x="333.556364" y="307.584" style="stroke: #000000; stroke-width: 0.8"/>
      </g>
     </g>
     <g id="text_5">
      <!-- 800 -->
      <g transform="translate(324.012614 322.182437) scale(0.1 -0.1)">
       <defs>
        <path id="DejaVuSans-38" d="M 2034 2216 
Q 1584 2216 1326 1975 
Q 1069 1734 1069 1313 
Q 1069 891 1326 650 
Q 1584 409 2034 409 
Q 2484 409 2743 651 
Q 3003 894 3003 1313 
Q 3003 1734 2745 1975 
Q 2488 2216 2034 2216 
z
M 1403 2484 
Q 997 2584 770 2862 
Q 544 3141 544 3541 
Q 544 4100 942 4425 
Q 1341 4750 2034 4750 
Q 2731 4750 3128 4425 
Q 3525 4100 3525 3541 
Q 3525 3141 3298 2862 
Q 3072 2584 2669 2484 
Q 3125 2378 3379 2068 
Q 3634 1759 3634 1313 
Q 3634 634 3220 271 
Q 2806 -91 2034 -91 
Q 1263 -91 848 271 
Q 434 634 434 1313 
Q 434 1759 690 2068 
Q 947 2378 1403 2484 
z
M 1172 3481 
Q 1172 3119 1398 2916 
Q 1625 2713 2034 2713 
Q 2441 2713 2670 2916 
Q 2900 3119 2900 3481 
Q 2900 3844 2670 4047 
Q 2441 4250 2034 4250 
Q 1625 4250 1398 4047 
Q 1172 3844 1172 3481 
z
" transform="scale(0.015625)"/>
       </defs>
       <use xlink:href="#DejaVuSans-38"/>
       <use xlink:href="#DejaVuSans-30" transform="translate(63.623047 0)"/>
       <use xlink:href="#DejaVuSans-30" transform="translate(127.246094 0)"/>
      </g>
     </g>
    </g>
    <g id="xtick_6">
     <g id="line2d_6">
      <g>
       <use xlink:href="#m35545559b8" x="398.487273" y="307.584" style="stroke: #000000; stroke-width: 0.8"/>
      </g>
     </g>
     <g id="text_6">
      <!-- 1000 -->
      <g transform="translate(385.762273 322.182437) scale(0.1 -0.1)">
       <defs>
        <path id="DejaVuSans-31" d="M 794 531 
L 1825 531 
L 1825 4091 
L 703 3866 
L 703 4441 
L 1819 4666 
L 2450 4666 
L 2450 531 
L 3481 531 
L 3481 0 
L 794 0 
L 794 531 
z
" transform="scale(0.015625)"/>
       </defs>
       <use xlink:href="#DejaVuSans-31"/>
       <use xlink:href="#DejaVuSans-30" transform="translate(63.623047 0)"/>
       <use xlink:href="#DejaVuSans-30" transform="translate(127.246094 0)"/>
       <use xlink:href="#DejaVuSans-30" transform="translate(190.869141 0)"/>
      </g>
     </g>
    </g>
    <g id="text_7">
     <!-- Temperature ($^{\circ}C$) -->
     <g transform="translate(192.16 335.862125) scale(0.1 -0.1)">
      <defs>
       <path id="DejaVuSans-54" d="M -19 4666 
L 3928 4666 
L 3928 4134 
L 2272 4134 
L 2272 0 
L 1638 0 
L 1638 4134 
L -19 4134 
L -19 4666 
z
" transform="scale(0.015625)"/>
       <path id="DejaVuSans-65" d="M 3597 1894 
L 3597 1613 
L 953 1613 
Q 991 1019 1311 708 
Q 1631 397 2203 397 
Q 2534 397 2845 478 
Q 3156 559 3463 722 
L 3463 178 
Q 3153 47 2828 -22 
Q 2503 -91 2169 -91 
Q 1331 -91 842 396 
Q 353 884 353 1716 
Q 353 2575 817 3079 
Q 1281 3584 2069 3584 
Q 2775 3584 3186 3129 
Q 3597 2675 3597 1894 
z
M 3022 2063 
Q 3016 2534 2758 2815 
Q 2500 3097 2075 3097 
Q 1594 3097 1305 2825 
Q 1016 2553 972 2059 
L 3022 2063 
z
" transform="scale(0.015625)"/>
       <path id="DejaVuSans-6d" d="M 3328 2828 
Q 3544 3216 3844 3400 
Q 4144 3584 4550 3584 
Q 5097 3584 5394 3201 
Q 5691 2819 5691 2113 
L 5691 0 
L 5113 0 
L 5113 2094 
Q 5113 2597 4934 2840 
Q 4756 3084 4391 3084 
Q 3944 3084 3684 2787 
Q 3425 2491 3425 1978 
L 3425 0 
L 2847 0 
L 2847 2094 
Q 2847 2600 2669 2842 
Q 2491 3084 2119 3084 
Q 1678 3084 1418 2786 
Q 1159 2488 1159 1978 
L 1159 0 
L 581 0 
L 581 3500 
L 1159 3500 
L 1159 2956 
Q 1356 3278 1631 3431 
Q 1906 3584 2284 3584 
Q 2666 3584 2933 3390 
Q 3200 3197 3328 2828 
z
" transform="scale(0.015625)"/>
       <path id="DejaVuSans-70" d="M 1159 525 
L 1159 -1331 
L 581 -1331 
L 581 3500 
L 1159 3500 
L 1159 2969 
Q 1341 3281 1617 3432 
Q 1894 3584 2278 3584 
Q 2916 3584 3314 3078 
Q 3713 2572 3713 1747 
Q 3713 922 3314 415 
Q 2916 -91 2278 -91 
Q 1894 -91 1617 61 
Q 1341 213 1159 525 
z
M 3116 1747 
Q 3116 2381 2855 2742 
Q 2594 3103 2138 3103 
Q 1681 3103 1420 2742 
Q 1159 2381 1159 1747 
Q 1159 1113 1420 752 
Q 1681 391 2138 391 
Q 2594 391 2855 752 
Q 3116 1113 3116 1747 
z
" transform="scale(0.015625)"/>
       <path id="DejaVuSans-72" d="M 2631 2963 
Q 2534 3019 2420 3045 
Q 2306 3072 2169 3072 
Q 1681 3072 1420 2755 
Q 1159 2438 1159 1844 
L 1159 0 
L 581 0 
L 581 3500 
L 1159 3500 
L 1159 2956 
Q 1341 3275 1631 3429 
Q 1922 3584 2338 3584 
Q 2397 3584 2469 3576 
Q 2541 3569 2628 3553 
L 2631 2963 
z
" transform="scale(0.015625)"/>
       <path id="DejaVuSans-61" d="M 2194 1759 
Q 1497 1759 1228 1600 
Q 959 1441 959 1056 
Q 959 750 1161 570 
Q 1363 391 1709 391 
Q 2188 391 2477 730 
Q 2766 1069 2766 1631 
L 2766 1759 
L 2194 1759 
z
M 3341 1997 
L 3341 0 
L 2766 0 
L 2766 531 
Q 2569 213 2275 61 
Q 1981 -91 1556 -91 
Q 1019 -91 701 211 
Q 384 513 384 1019 
Q 384 1609 779 1909 
Q 1175 2209 1959 2209 
L 2766 2209 
L 2766 2266 
Q 2766 2663 2505 2880 
Q 2244 3097 1772 3097 
Q 1472 3097 1187 3025 
Q 903 2953 641 2809 
L 641 3341 
Q 956 3463 1253 3523 
Q 1550 3584 1831 3584 
Q 2591 3584 2966 3190 
Q 3341 2797 3341 1997 
z
" transform="scale(0.015625)"/>
       <path id="DejaVuSans-74" d="M 1172 4494 
L 1172 3500 
L 2356 3500 
L 2356 3053 
L 1172 3053 
L 1172 1153 
Q 1172 725 1289 603 
Q 1406 481 1766 481 
L 2356 481 
L 2356 0 
L 1766 0 
Q 1100 0 847 248 
Q 594 497 594 1153 
L 594 3053 
L 172 3053 
L 172 3500 
L 594 3500 
L 594 4494 
L 1172 4494 
z
" transform="scale(0.015625)"/>
       <path id="DejaVuSans-75" d="M 544 1381 
L 544 3500 
L 1119 3500 
L 1119 1403 
Q 1119 906 1312 657 
Q 1506 409 1894 409 
Q 2359 409 2629 706 
Q 2900 1003 2900 1516 
L 2900 3500 
L 3475 3500 
L 3475 0 
L 2900 0 
L 2900 538 
Q 2691 219 2414 64 
Q 2138 -91 1772 -91 
Q 1169 -91 856 284 
Q 544 659 544 1381 
z
M 1991 3584 
L 1991 3584 
z
" transform="scale(0.015625)"/>
       <path id="DejaVuSans-20" transform="scale(0.015625)"/>
       <path id="DejaVuSans-28" d="M 1984 4856 
Q 1566 4138 1362 3434 
Q 1159 2731 1159 2009 
Q 1159 1288 1364 580 
Q 1569 -128 1984 -844 
L 1484 -844 
Q 1016 -109 783 600 
Q 550 1309 550 2009 
Q 550 2706 781 3412 
Q 1013 4119 1484 4856 
L 1984 4856 
z
" transform="scale(0.015625)"/>
       <path id="DejaVuSans-2218" d="M 2000 2619 
Q 1750 2619 1578 2445 
Q 1406 2272 1406 2022 
Q 1406 1775 1578 1605 
Q 1750 1435 2000 1435 
Q 2250 1435 2422 1605 
Q 2594 1775 2594 2022 
Q 2594 2269 2420 2444 
Q 2247 2619 2000 2619 
z
M 2000 3022 
Q 2200 3022 2384 2945 
Q 2569 2869 2703 2725 
Q 2847 2585 2919 2406 
Q 2991 2228 2991 2022 
Q 2991 1610 2702 1324 
Q 2413 1038 1994 1038 
Q 1572 1038 1290 1319 
Q 1009 1600 1009 2022 
Q 1009 2441 1296 2731 
Q 1584 3022 2000 3022 
z
" transform="scale(0.015625)"/>
       <path id="DejaVuSans-Oblique-43" d="M 4447 4306 
L 4319 3641 
Q 4019 3944 3683 4091 
Q 3347 4238 2956 4238 
Q 2422 4238 2017 3981 
Q 1613 3725 1319 3200 
Q 1131 2863 1032 2486 
Q 934 2109 934 1728 
Q 934 1091 1264 756 
Q 1594 422 2222 422 
Q 2656 422 3056 561 
Q 3456 700 3834 978 
L 3688 231 
Q 3316 72 2936 -9 
Q 2556 -91 2175 -91 
Q 1278 -91 773 396 
Q 269 884 269 1753 
Q 269 2309 461 2846 
Q 653 3384 1013 3828 
Q 1394 4300 1883 4525 
Q 2372 4750 3022 4750 
Q 3422 4750 3780 4639 
Q 4138 4528 4447 4306 
z
" transform="scale(0.015625)"/>
       <path id="DejaVuSans-29" d="M 513 4856 
L 1013 4856 
Q 1481 4119 1714 3412 
Q 1947 2706 1947 2009 
Q 1947 1309 1714 600 
Q 1481 -109 1013 -844 
L 513 -844 
Q 928 -128 1133 580 
Q 1338 1288 1338 2009 
Q 1338 2731 1133 3434 
Q 928 4138 513 4856 
z
" transform="scale(0.015625)"/>
      </defs>
      <use xlink:href="#DejaVuSans-54" transform="translate(0 0.125)"/>
      <use xlink:href="#DejaVuSans-65" transform="translate(61.083984 0.125)"/>
      <use xlink:href="#DejaVuSans-6d" transform="translate(122.607422 0.125)"/>
      <use xlink:href="#DejaVuSans-70" transform="translate(220.019531 0.125)"/>
      <use xlink:href="#DejaVuSans-65" transform="translate(283.496094 0.125)"/>
      <use xlink:href="#DejaVuSans-72" transform="translate(345.019531 0.125)"/>
      <use xlink:href="#DejaVuSans-61" transform="translate(386.132812 0.125)"/>
      <use xlink:href="#DejaVuSans-74" transform="translate(447.412109 0.125)"/>
      <use xlink:href="#DejaVuSans-75" transform="translate(486.621094 0.125)"/>
      <use xlink:href="#DejaVuSans-72" transform="translate(550 0.125)"/>
      <use xlink:href="#DejaVuSans-65" transform="translate(591.113281 0.125)"/>
      <use xlink:href="#DejaVuSans-20" transform="translate(652.636719 0.125)"/>
      <use xlink:href="#DejaVuSans-28" transform="translate(684.423828 0.125)"/>
      <use xlink:href="#DejaVuSans-2218" transform="translate(724.394531 38.40625) scale(0.7)"/>
      <use xlink:href="#DejaVuSans-Oblique-43" transform="translate(770.947266 0.125)"/>
      <use xlink:href="#DejaVuSans-29" transform="translate(840.771484 0.125)"/>
     </g>
    </g>
   </g>
   <g id="matplotlib.axis_2">
    <g id="ytick_1">
     <g id="line2d_7">
      <defs>
       <path id="m13001b0285" d="M 0 0 
L -3.5 0 
" style="stroke: #000000; stroke-width: 0.8"/>
      </defs>
      <g>
       <use xlink:href="#m13001b0285" x="57.6" y="295.488" style="stroke: #000000; stroke-width: 0.8"/>
      </g>
     </g>
     <g id="text_8">
      <!-- 0.0 -->
      <g transform="translate(34.696875 299.287219) scale(0.1 -0.1)">
       <defs>
        <path id="DejaVuSans-2e" d="M 684 794 
L 1344 794 
L 1344 0 
L 684 0 
L 684 794 
z
" transform="scale(0.015625)"/>
       </defs>
       <use xlink:href="#DejaVuSans-30"/>
       <use xlink:href="#DejaVuSans-2e" transform="translate(63.623047 0)"/>
       <use xlink:href="#DejaVuSans-30" transform="translate(95.410156 0)"/>
      </g>
     </g>
    </g>
    <g id="ytick_2">
     <g id="line2d_8">
      <g>
       <use xlink:href="#m13001b0285" x="57.6" y="260.246569" style="stroke: #000000; stroke-width: 0.8"/>
      </g>
     </g>
     <g id="text_9">
      <!-- 0.2 -->
      <g transform="translate(34.696875 264.045788) scale(0.1 -0.1)">
       <use xlink:href="#DejaVuSans-30"/>
       <use xlink:href="#DejaVuSans-2e" transform="translate(63.623047 0)"/>
       <use xlink:href="#DejaVuSans-32" transform="translate(95.410156 0)"/>
      </g>
     </g>
    </g>
    <g id="ytick_3">
     <g id="line2d_9">
      <g>
       <use xlink:href="#m13001b0285" x="57.6" y="225.005138" style="stroke: #000000; stroke-width: 0.8"/>
      </g>
     </g>
     <g id="text_10">
      <!-- 0.4 -->
      <g transform="translate(34.696875 228.804357) scale(0.1 -0.1)">
       <use xlink:href="#DejaVuSans-30"/>
       <use xlink:href="#DejaVuSans-2e" transform="translate(63.623047 0)"/>
       <use xlink:href="#DejaVuSans-34" transform="translate(95.410156 0)"/>
      </g>
     </g>
    </g>
    <g id="ytick_4">
     <g id="line2d_10">
      <g>
       <use xlink:href="#m13001b0285" x="57.6" y="189.763708" style="stroke: #000000; stroke-width: 0.8"/>
      </g>
     </g>
     <g id="text_11">
      <!-- 0.6 -->
      <g transform="translate(34.696875 193.562926) scale(0.1 -0.1)">
       <use xlink:href="#DejaVuSans-30"/>
       <use xlink:href="#DejaVuSans-2e" transform="translate(63.623047 0)"/>
       <use xlink:href="#DejaVuSans-36" transform="translate(95.410156 0)"/>
      </g>
     </g>
    </g>
    <g id="ytick_5">
     <g id="line2d_11">
      <g>
       <use xlink:href="#m13001b0285" x="57.6" y="154.522277" style="stroke: #000000; stroke-width: 0.8"/>
      </g>
     </g>
     <g id="text_12">
      <!-- 0.8 -->
      <g transform="translate(34.696875 158.321495) scale(0.1 -0.1)">
       <use xlink:href="#DejaVuSans-30"/>
       <use xlink:href="#DejaVuSans-2e" transform="translate(63.623047 0)"/>
       <use xlink:href="#DejaVuSans-38" transform="translate(95.410156 0)"/>
      </g>
     </g>
    </g>
    <g id="ytick_6">
     <g id="line2d_12">
      <g>
       <use xlink:href="#m13001b0285" x="57.6" y="119.280846" style="stroke: #000000; stroke-width: 0.8"/>
      </g>
     </g>
     <g id="text_13">
      <!-- 1.0 -->
      <g transform="translate(34.696875 123.080065) scale(0.1 -0.1)">
       <use xlink:href="#DejaVuSans-31"/>
       <use xlink:href="#DejaVuSans-2e" transform="translate(63.623047 0)"/>
       <use xlink:href="#DejaVuSans-30" transform="translate(95.410156 0)"/>
      </g>
     </g>
    </g>
    <g id="ytick_7">
     <g id="line2d_13">
      <g>
       <use xlink:href="#m13001b0285" x="57.6" y="84.039415" style="stroke: #000000; stroke-width: 0.8"/>
      </g>
     </g>
     <g id="text_14">
      <!-- 1.2 -->
      <g transform="translate(34.696875 87.838634) scale(0.1 -0.1)">
       <use xlink:href="#DejaVuSans-31"/>
       <use xlink:href="#DejaVuSans-2e" transform="translate(63.623047 0)"/>
       <use xlink:href="#DejaVuSans-32" transform="translate(95.410156 0)"/>
      </g>
     </g>
    </g>
    <g id="ytick_8">
     <g id="line2d_14">
      <g>
       <use xlink:href="#m13001b0285" x="57.6" y="48.797984" style="stroke: #000000; stroke-width: 0.8"/>
      </g>
     </g>
     <g id="text_15">
      <!-- 1.4 -->
      <g transform="translate(34.696875 52.597203) scale(0.1 -0.1)">
       <use xlink:href="#DejaVuSans-31"/>
       <use xlink:href="#DejaVuSans-2e" transform="translate(63.623047 0)"/>
       <use xlink:href="#DejaVuSans-34" transform="translate(95.410156 0)"/>
      </g>
     </g>
    </g>
    <g id="text_16">
     <!-- Intensity ($^{\circ}C^{-1}$) -->
     <g transform="translate(28.596875 213.328) rotate(-90) scale(0.1 -0.1)">
      <defs>
       <path id="DejaVuSans-49" d="M 628 4666 
L 1259 4666 
L 1259 0 
L 628 0 
L 628 4666 
z
" transform="scale(0.015625)"/>
       <path id="DejaVuSans-6e" d="M 3513 2113 
L 3513 0 
L 2938 0 
L 2938 2094 
Q 2938 2591 2744 2837 
Q 2550 3084 2163 3084 
Q 1697 3084 1428 2787 
Q 1159 2491 1159 1978 
L 1159 0 
L 581 0 
L 581 3500 
L 1159 3500 
L 1159 2956 
Q 1366 3272 1645 3428 
Q 1925 3584 2291 3584 
Q 2894 3584 3203 3211 
Q 3513 2838 3513 2113 
z
" transform="scale(0.015625)"/>
       <path id="DejaVuSans-73" d="M 2834 3397 
L 2834 2853 
Q 2591 2978 2328 3040 
Q 2066 3103 1784 3103 
Q 1356 3103 1142 2972 
Q 928 2841 928 2578 
Q 928 2378 1081 2264 
Q 1234 2150 1697 2047 
L 1894 2003 
Q 2506 1872 2764 1633 
Q 3022 1394 3022 966 
Q 3022 478 2636 193 
Q 2250 -91 1575 -91 
Q 1294 -91 989 -36 
Q 684 19 347 128 
L 347 722 
Q 666 556 975 473 
Q 1284 391 1588 391 
Q 1994 391 2212 530 
Q 2431 669 2431 922 
Q 2431 1156 2273 1281 
Q 2116 1406 1581 1522 
L 1381 1569 
Q 847 1681 609 1914 
Q 372 2147 372 2553 
Q 372 3047 722 3315 
Q 1072 3584 1716 3584 
Q 2034 3584 2315 3537 
Q 2597 3491 2834 3397 
z
" transform="scale(0.015625)"/>
       <path id="DejaVuSans-69" d="M 603 3500 
L 1178 3500 
L 1178 0 
L 603 0 
L 603 3500 
z
M 603 4863 
L 1178 4863 
L 1178 4134 
L 603 4134 
L 603 4863 
z
" transform="scale(0.015625)"/>
       <path id="DejaVuSans-79" d="M 2059 -325 
Q 1816 -950 1584 -1140 
Q 1353 -1331 966 -1331 
L 506 -1331 
L 506 -850 
L 844 -850 
Q 1081 -850 1212 -737 
Q 1344 -625 1503 -206 
L 1606 56 
L 191 3500 
L 800 3500 
L 1894 763 
L 2988 3500 
L 3597 3500 
L 2059 -325 
z
" transform="scale(0.015625)"/>
       <path id="DejaVuSans-2212" d="M 678 2272 
L 4684 2272 
L 4684 1741 
L 678 1741 
L 678 2272 
z
" transform="scale(0.015625)"/>
      </defs>
      <use xlink:href="#DejaVuSans-49" transform="translate(0 0.684375)"/>
      <use xlink:href="#DejaVuSans-6e" transform="translate(29.492188 0.684375)"/>
      <use xlink:href="#DejaVuSans-74" transform="translate(92.871094 0.684375)"/>
      <use xlink:href="#DejaVuSans-65" transform="translate(132.080078 0.684375)"/>
      <use xlink:href="#DejaVuSans-6e" transform="translate(193.603516 0.684375)"/>
      <use xlink:href="#DejaVuSans-73" transform="translate(256.982422 0.684375)"/>
      <use xlink:href="#DejaVuSans-69" transform="translate(309.082031 0.684375)"/>
      <use xlink:href="#DejaVuSans-74" transform="translate(336.865234 0.684375)"/>
      <use xlink:href="#DejaVuSans-79" transform="translate(376.074219 0.684375)"/>
      <use xlink:href="#DejaVuSans-20" transform="translate(435.253906 0.684375)"/>
      <use xlink:href="#DejaVuSans-28" transform="translate(467.041016 0.684375)"/>
      <use xlink:href="#DejaVuSans-2218" transform="translate(507.011719 38.965625) scale(0.7)"/>
      <use xlink:href="#DejaVuSans-Oblique-43" transform="translate(553.564453 0.684375)"/>
      <use xlink:href="#DejaVuSans-2212" transform="translate(630.589193 38.965625) scale(0.7)"/>
      <use xlink:href="#DejaVuSans-31" transform="translate(689.241536 38.965625) scale(0.7)"/>
      <use xlink:href="#DejaVuSans-29" transform="translate(736.512044 0.684375)"/>
     </g>
    </g>
    <g id="text_17">
     <!-- 1e7 -->
     <g transform="translate(57.6 38.472) scale(0.1 -0.1)">
      <defs>
       <path id="DejaVuSans-37" d="M 525 4666 
L 3525 4666 
L 3525 4397 
L 1831 0 
L 1172 0 
L 2766 4134 
L 525 4134 
L 525 4666 
z
" transform="scale(0.015625)"/>
      </defs>
      <use xlink:href="#DejaVuSans-31"/>
      <use xlink:href="#DejaVuSans-65" transform="translate(63.623047 0)"/>
      <use xlink:href="#DejaVuSans-37" transform="translate(125.146484 0)"/>
     </g>
    </g>
   </g>
   <g id="line2d_15">
    <path d="M 73.832727 295.488 
L 184.270492 295.379456 
L 190.117197 295.039905 
L 195.801493 294.012794 
L 199.37448 292.531596 
L 200.348931 291.902096 
L 202.62265 290.106017 
L 205.708411 286.359148 
L 208.144538 282.002074 
L 209.931031 277.881734 
L 210.743073 275.640731 
L 212.20475 271.19987 
L 214.153651 264.247617 
L 215.777736 257.509367 
L 217.564229 249.27644 
L 218.213863 245.867449 
L 219.025906 241.858648 
L 219.67554 238.287634 
L 221.462033 228.425672 
L 222.274075 223.564204 
L 224.872611 208.371183 
L 225.522245 204.252605 
L 226.00947 201.513201 
L 226.496696 198.447372 
L 226.983921 195.560835 
L 227.633555 191.510009 
L 228.283189 187.529048 
L 228.608006 185.675437 
L 229.25764 181.462765 
L 229.744865 178.669353 
L 230.394499 174.570158 
L 230.881724 171.705558 
L 237.215655 135.369088 
L 237.378064 134.832008 
L 238.190106 130.331325 
L 238.352514 129.74993 
L 239.002148 126.277591 
L 239.976599 121.359033 
L 240.788642 117.434195 
L 245.17367 97.923041 
L 245.336079 97.543755 
L 245.660896 96.217532 
L 245.985713 95.12355 
L 246.31053 93.510638 
L 246.472938 93.145448 
L 246.960164 91.290339 
L 247.122572 90.928939 
L 247.772206 88.454285 
L 249.883516 81.288117 
L 250.045925 81.058342 
L 250.857967 78.299203 
L 251.507601 76.596072 
L 253.618911 70.750224 
L 253.78132 70.660799 
L 254.430954 69.110969 
L 254.918179 68.144384 
L 255.080588 67.46722 
L 255.405405 67.039389 
L 256.542264 64.471875 
L 256.704672 64.391877 
L 257.029489 63.885369 
L 257.516715 62.780815 
L 258.491166 61.240852 
L 258.653574 61.199884 
L 259.140799 60.322108 
L 259.465616 59.96617 
L 259.628025 59.722211 
L 259.790433 59.795954 
L 260.11525 59.021083 
L 260.602476 58.647436 
L 260.764884 58.208327 
L 260.927293 58.170443 
L 261.414518 57.534335 
L 261.576927 57.277249 
L 261.739335 57.333106 
L 262.064152 56.826599 
L 262.226561 56.94131 
L 262.713786 56.179478 
L 262.876194 56.240181 
L 263.038603 55.819487 
L 263.201011 55.956664 
L 263.36342 55.737286 
L 263.525828 55.754731 
L 263.688237 55.515794 
L 263.850645 55.69623 
L 264.175462 55.285755 
L 264.337871 55.006731 
L 264.500279 55.155891 
L 264.662688 54.817749 
L 264.825096 55.118271 
L 265.149913 54.785856 
L 265.312322 54.675021 
L 265.47473 54.789556 
L 265.637139 54.404543 
L 265.961956 54.504717 
L 266.124364 54.288071 
L 266.773998 54.362342 
L 267.098815 53.981382 
L 267.261223 53.783942 
L 267.423632 54.056446 
L 267.58604 53.872045 
L 267.910857 54.23794 
L 268.073266 53.568 
L 268.235674 54.036006 
L 268.398083 53.974334 
L 268.560491 54.297762 
L 268.7229 53.921207 
L 268.885308 54.122612 
L 269.047717 53.988695 
L 269.210125 54.239173 
L 269.372534 54.13292 
L 269.534942 54.273181 
L 269.69735 54.112744 
L 269.859759 54.182787 
L 270.022167 54.046667 
L 270.346984 54.402429 
L 270.509393 54.152039 
L 270.996618 54.460489 
L 271.159027 54.22446 
L 271.646252 54.689559 
L 271.808661 54.689647 
L 271.971069 54.99889 
L 272.133478 54.933077 
L 272.620703 55.064615 
L 272.783112 55.436589 
L 273.270337 55.46813 
L 273.432745 55.687067 
L 273.595154 55.686362 
L 274.082379 56.330047 
L 274.244788 56.125911 
L 274.407196 56.162298 
L 274.894422 56.636295 
L 275.05683 56.599997 
L 275.381647 57.321036 
L 275.706464 57.212404 
L 276.031281 57.675741 
L 276.19369 57.746576 
L 276.356098 57.989302 
L 276.518507 57.814769 
L 276.680915 58.510787 
L 276.843323 58.195905 
L 277.005732 58.522064 
L 277.16814 58.541095 
L 277.817774 59.605298 
L 278.305 60.043349 
L 278.467408 59.907229 
L 278.629817 60.098149 
L 278.954634 60.773992 
L 279.279451 61.21539 
L 279.441859 61.156802 
L 279.604268 61.661899 
L 279.766676 61.651239 
L 280.091493 62.054753 
L 280.253901 62.181094 
L 280.41631 62.524345 
L 280.578718 62.560115 
L 280.741127 62.9994 
L 280.903535 62.938873 
L 281.065944 63.330757 
L 281.228352 63.289084 
L 281.390761 64.02052 
L 281.715578 64.280866 
L 281.877986 64.731869 
L 282.040395 64.735833 
L 283.177254 66.365309 
L 283.502071 66.997276 
L 284.314113 68.200242 
L 284.476522 68.55389 
L 284.63893 68.447461 
L 284.801339 68.742167 
L 285.126156 69.61589 
L 285.288564 69.658092 
L 285.77579 70.406179 
L 286.100607 71.241225 
L 286.263015 71.351531 
L 288.211917 74.902017 
L 288.374325 75.40315 
L 288.536734 75.439184 
L 288.699142 75.901111 
L 288.861551 75.951683 
L 289.186368 76.519863 
L 289.348776 76.64638 
L 289.673593 77.468826 
L 289.99841 77.966083 
L 290.323227 79.066232 
L 290.485636 78.957777 
L 290.810452 79.753 
L 291.460086 80.921253 
L 291.622495 81.482737 
L 291.784903 81.62758 
L 292.10972 82.618304 
L 292.434537 82.687025 
L 292.759354 83.590968 
L 292.921763 83.728938 
L 293.408988 85.053047 
L 293.733805 85.673472 
L 294.221031 86.779084 
L 294.545847 87.008858 
L 294.870664 87.862934 
L 295.35789 89.031364 
L 295.845115 90.105258 
L 296.007524 90.218559 
L 296.332341 90.990347 
L 296.657158 91.801693 
L 297.306792 93.233904 
L 297.4692 93.375311 
L 298.930876 96.773906 
L 299.093285 96.812231 
L 299.418102 97.824453 
L 299.58051 98.266645 
L 299.742919 98.353779 
L 300.067736 99.225829 
L 303.640722 107.077267 
L 303.965539 108.004029 
L 304.290356 108.805507 
L 304.615173 109.641698 
L 304.93999 109.997284 
L 305.264807 111.148974 
L 305.427215 111.347824 
L 305.752032 112.206657 
L 306.076849 112.83325 
L 306.401666 113.720101 
L 306.564075 113.771201 
L 307.0513 115.321031 
L 307.213709 115.68111 
L 307.376117 115.721285 
L 307.700934 116.73571 
L 307.863343 116.881081 
L 308.18816 117.551108 
L 308.350568 118.291707 
L 308.512976 118.329503 
L 308.837793 119.185165 
L 309.16261 119.930698 
L 309.325019 120.088491 
L 309.487427 120.944594 
L 309.649836 120.864596 
L 309.974653 121.821048 
L 313.060414 128.987305 
L 313.222822 129.078668 
L 313.710048 130.501541 
L 315.009316 133.386052 
L 316.146175 136.174002 
L 316.308583 136.304395 
L 317.120626 138.016864 
L 317.607851 139.430486 
L 317.77026 139.422117 
L 318.582302 141.467793 
L 318.907119 141.90047 
L 319.556753 143.743421 
L 320.531204 145.67844 
L 320.693612 146.25913 
L 320.856021 146.347322 
L 321.018429 146.949246 
L 321.180838 147.05541 
L 321.343246 147.679272 
L 321.505655 147.713368 
L 321.830472 148.596342 
L 321.99288 149.13395 
L 322.155289 149.254211 
L 322.317697 149.730147 
L 322.480106 149.811819 
L 322.967331 151.122448 
L 323.292148 151.632832 
L 323.616965 152.425323 
L 323.779373 152.723642 
L 324.10419 153.590758 
L 324.429007 154.216469 
L 324.753824 155.000151 
L 324.916233 155.180146 
L 325.078641 155.820747 
L 325.24105 155.895459 
L 325.565867 156.554474 
L 326.2155 157.986597 
L 326.377909 158.272758 
L 326.702726 159.071505 
L 329.788487 165.439367 
L 330.113304 166.179437 
L 331.57498 169.192932 
L 331.899797 169.869479 
L 332.062206 169.914765 
L 332.224614 170.532899 
L 332.387023 170.538274 
L 333.361473 172.833636 
L 333.523882 172.831081 
L 333.68629 173.418203 
L 333.848699 173.354064 
L 334.011107 173.664541 
L 334.335924 174.545136 
L 334.985558 175.767133 
L 335.472784 176.770721 
L 335.797601 177.547001 
L 335.960009 177.630612 
L 336.93446 179.756463 
L 337.096868 179.648888 
L 337.584094 180.762253 
L 338.558545 182.618067 
L 338.883362 183.297786 
L 340.507446 186.173663 
L 340.669855 186.69876 
L 340.832263 186.733561 
L 345.217292 194.586409 
L 345.379701 194.707023 
L 346.191743 196.160996 
L 346.841377 197.131986 
L 347.328602 198.295129 
L 347.491011 198.1139 
L 347.978236 199.2707 
L 348.140645 199.270524 
L 348.303053 199.760027 
L 348.465462 199.849893 
L 348.62787 200.089887 
L 348.952687 200.739827 
L 349.115096 200.911806 
L 349.439913 201.554345 
L 349.602321 201.601657 
L 349.927138 202.388862 
L 350.089547 202.367365 
L 350.251955 202.849379 
L 350.414364 202.903563 
L 350.901589 203.901865 
L 351.063997 203.994638 
L 351.388814 204.604931 
L 351.551223 204.757439 
L 351.87604 205.483764 
L 352.688082 206.450613 
L 353.012899 207.139319 
L 353.175308 207.223986 
L 353.98735 208.607565 
L 354.149759 208.659722 
L 354.474575 209.303495 
L 357.073111 213.163048 
L 357.397928 213.406479 
L 357.885153 214.369803 
L 358.534787 215.138154 
L 358.859604 215.688361 
L 359.671647 216.693887 
L 359.834055 217.128679 
L 359.996464 217.146211 
L 360.646098 218.289884 
L 360.970915 218.433316 
L 361.133323 218.941586 
L 361.45814 219.196822 
L 362.107774 220.024026 
L 362.270182 220.455382 
L 362.432591 220.488949 
L 362.919816 221.139594 
L 363.082225 221.263027 
L 364.056676 222.732947 
L 364.219084 222.835852 
L 364.70631 223.592662 
L 365.031126 223.787106 
L 365.518352 224.589113 
L 367.629662 227.131518 
L 367.792071 227.196539 
L 368.279296 227.88683 
L 368.766521 228.424262 
L 369.253747 229.008653 
L 369.903381 229.856386 
L 370.390606 230.226861 
L 370.715423 230.71099 
L 371.852283 232.072102 
L 372.664325 232.986353 
L 372.826733 232.982389 
L 372.989142 233.167935 
L 373.15155 233.588365 
L 373.313959 233.629421 
L 373.638776 234.056019 
L 374.126001 234.553804 
L 374.28841 234.91309 
L 374.775635 235.136697 
L 375.100452 235.668138 
L 375.425269 235.98487 
L 375.587677 236.092357 
L 375.912494 236.553227 
L 376.074903 236.484153 
L 376.237311 236.879827 
L 376.562128 237.070307 
L 377.049354 237.857071 
L 377.211762 237.870023 
L 377.698988 238.328866 
L 378.023805 238.719253 
L 378.835847 239.427165 
L 378.998255 239.798258 
L 379.160664 239.745307 
L 380.135115 240.741318 
L 380.297523 240.826426 
L 380.62234 241.287913 
L 380.784749 241.355664 
L 381.271974 242.030978 
L 381.434383 242.075823 
L 382.084017 242.723825 
L 382.246425 242.688584 
L 382.896059 243.529356 
L 383.058467 243.510854 
L 383.220876 243.81349 
L 383.545693 243.975689 
L 383.87051 244.354798 
L 386.144228 246.356512 
L 386.631454 246.711305 
L 386.793862 247.034645 
L 386.956271 247.080811 
L 387.281088 247.491726 
L 387.443496 247.397367 
L 387.768313 247.829692 
L 387.930722 247.865197 
L 388.417947 248.358137 
L 391.828525 251.2193 
L 392.153342 251.475946 
L 392.478159 251.561054 
L 392.640568 251.840871 
L 392.802976 251.87902 
L 392.965385 252.151613 
L 393.127793 252.185268 
L 393.777427 252.701996 
L 393.939835 252.752655 
L 394.102244 252.995645 
L 394.427061 253.113439 
L 394.751878 253.403741 
L 395.239103 253.826021 
L 396.051146 254.382924 
L 396.375963 254.783002 
L 396.538371 254.759743 
L 396.700779 254.97172 
L 396.863188 254.992248 
L 397.188005 255.244753 
L 397.350413 255.263519 
L 397.837639 255.83117 
L 398.162456 255.882358 
L 398.487273 256.188695 
L 398.487273 256.188695 
" clip-path="url(#p9dcf6b47fd)" style="fill: none; stroke-dasharray: 1.85,0.8; stroke-dashoffset: 0; stroke: #8000ff; stroke-width: 0.5"/>
   </g>
   <g id="line2d_16">
    <path d="M 73.832727 295.488 
L 188.168295 295.379721 
L 194.989451 295.006602 
L 198.562438 294.507143 
L 199.049663 294.418246 
L 199.699297 294.273404 
L 204.084326 292.809211 
L 205.221185 292.257242 
L 206.033228 291.768443 
L 208.306946 290.17368 
L 208.95658 289.586206 
L 209.768622 288.854505 
L 211.555116 286.868739 
L 214.640877 282.649811 
L 215.290511 281.557503 
L 217.077004 278.458988 
L 217.564229 277.587644 
L 218.863497 274.990967 
L 219.350723 273.909319 
L 219.837948 272.90626 
L 220.325173 271.924522 
L 224.385385 262.456383 
L 224.872611 261.264694 
L 225.359836 260.115031 
L 226.00947 258.424499 
L 226.496696 257.31598 
L 226.983921 255.999889 
L 227.633555 254.390413 
L 228.12078 253.16313 
L 228.283189 252.880229 
L 228.770414 251.476122 
L 229.25764 250.321701 
L 231.36895 244.841747 
L 232.343401 242.364627 
L 232.830626 241.17655 
L 233.642669 239.037659 
L 233.967486 238.458114 
L 234.454711 237.059822 
L 234.617119 236.79093 
L 235.429162 234.533628 
L 235.59157 234.37143 
L 236.241204 232.581694 
L 236.566021 231.816426 
L 236.890838 231.003054 
L 244.036811 214.352623 
L 244.686445 213.044637 
L 245.336079 211.515071 
L 246.148121 209.872292 
L 246.960164 208.066433 
L 247.284981 207.768114 
L 247.772206 206.586997 
L 247.934615 206.445767 
L 248.746657 204.631891 
L 248.909065 204.291547 
L 249.071474 204.248552 
L 249.396291 203.440026 
L 249.721108 202.779425 
L 249.883516 202.614495 
L 250.370742 201.479986 
L 250.857967 200.537542 
L 251.020376 200.482124 
L 251.832418 198.950268 
L 251.994827 198.79036 
L 252.319643 198.129759 
L 252.64446 197.47744 
L 252.806869 197.390129 
L 253.294094 196.329891 
L 253.618911 195.78127 
L 254.268545 194.485443 
L 254.430954 194.570815 
L 254.593362 194.094967 
L 254.755771 193.977614 
L 254.918179 193.590927 
L 255.080588 193.50203 
L 256.704672 190.90183 
L 256.867081 190.732054 
L 257.029489 190.163786 
L 257.191898 190.052335 
L 257.841532 189.076412 
L 258.00394 189.094649 
L 258.491166 188.155112 
L 259.303208 187.165269 
L 259.790433 186.429163 
L 260.11525 186.043005 
L 260.602476 185.33571 
L 260.764884 185.297209 
L 261.25211 184.273269 
L 261.414518 184.245604 
L 262.226561 183.407211 
L 262.388969 183.263954 
L 262.551378 182.652604 
L 262.713786 182.687933 
L 264.337871 180.736879 
L 264.500279 180.695647 
L 265.312322 179.673381 
L 265.637139 179.432858 
L 265.961956 178.977715 
L 268.7229 176.34007 
L 268.885308 176.374519 
L 269.047717 175.939023 
L 269.210125 176.001136 
L 269.372534 175.807484 
L 269.534942 175.847748 
L 269.69735 175.477536 
L 269.859759 175.396569 
L 270.184576 175.038516 
L 270.671801 174.725925 
L 270.83421 174.401615 
L 271.159027 174.41536 
L 271.321435 174.125587 
L 271.483844 174.134397 
L 272.295886 173.399173 
L 272.458295 173.588155 
L 272.783112 173.014865 
L 273.107929 172.843944 
L 273.270337 172.880595 
L 273.595154 172.599104 
L 273.919971 172.568092 
L 274.082379 172.099293 
L 274.244788 172.1259 
L 274.569605 171.701681 
L 274.732013 171.784499 
L 274.894422 171.630846 
L 275.05683 171.849783 
L 275.381647 171.268652 
L 275.544056 171.359751 
L 275.706464 171.041697 
L 275.868873 171.230327 
L 276.031281 171.015795 
L 276.19369 171.059318 
L 276.356098 170.575718 
L 276.843323 170.71219 
L 277.330549 170.271232 
L 277.492957 170.42506 
L 277.817774 169.948684 
L 278.142591 170.080311 
L 278.305 170.030445 
L 278.467408 169.453807 
L 278.629817 169.794063 
L 278.792225 169.519003 
L 279.117042 169.616093 
L 279.441859 169.265265 
L 279.929085 169.211257 
L 280.091493 169.079014 
L 280.253901 169.259186 
L 280.741127 168.742546 
L 280.903535 168.862984 
L 282.690029 168.184587 
L 282.852437 168.174895 
L 283.014846 167.954108 
L 283.502071 168.030758 
L 283.66448 167.741514 
L 283.826888 167.679753 
L 283.989296 167.838692 
L 284.151705 167.60275 
L 284.314113 167.563809 
L 284.476522 167.772878 
L 284.801339 167.501079 
L 285.613381 167.352889 
L 285.77579 167.198179 
L 285.938198 167.601781 
L 286.263015 167.253596 
L 286.425424 167.264168 
L 286.587832 167.111925 
L 286.750241 167.274829 
L 286.912649 167.255799 
L 287.075058 167.099415 
L 287.399874 167.262583 
L 287.562283 167.060297 
L 287.724691 167.198884 
L 288.049508 166.947965 
L 288.211917 167.095274 
L 288.374325 166.909023 
L 288.536734 167.043645 
L 288.699142 166.651496 
L 288.861551 167.146638 
L 289.023959 166.985409 
L 289.348776 166.948758 
L 289.511185 167.30496 
L 289.673593 166.948493 
L 289.836002 167.088402 
L 289.99841 166.860214 
L 290.160819 166.832108 
L 290.485636 166.991752 
L 290.810452 166.85854 
L 291.135269 166.997303 
L 291.460086 166.704799 
L 291.622495 166.855632 
L 291.784903 166.54956 
L 291.947312 166.816778 
L 292.10972 166.828672 
L 292.272129 167.050077 
L 292.759354 166.649205 
L 292.921763 167.005144 
L 293.084171 166.970695 
L 293.24658 166.73308 
L 293.571397 167.108666 
L 293.896214 166.803034 
L 294.058622 167.006554 
L 294.221031 166.969198 
L 294.383439 167.196857 
L 294.708256 166.776868 
L 295.195481 167.002589 
L 295.35789 166.936159 
L 295.520298 167.191307 
L 295.845115 166.912723 
L 296.007524 167.066112 
L 296.169932 167.018095 
L 296.332341 167.158885 
L 296.981975 167.180999 
L 297.144383 167.267957 
L 297.306792 167.045495 
L 297.4692 167.426015 
L 297.631609 167.380994 
L 297.956425 167.588301 
L 298.118834 167.368571 
L 298.768468 167.412975 
L 298.930876 167.747945 
L 299.093285 167.57306 
L 299.418102 167.851643 
L 299.58051 167.565835 
L 300.230144 167.977896 
L 300.392553 167.779751 
L 300.554961 167.85781 
L 300.71737 167.760368 
L 300.879778 167.88944 
L 301.204595 167.915518 
L 301.529412 168.091813 
L 301.69182 167.994018 
L 301.854229 168.132605 
L 302.016637 167.936839 
L 302.179046 168.173838 
L 302.503863 168.287051 
L 302.666271 168.427136 
L 302.82868 168.386167 
L 302.991088 168.592418 
L 303.153497 168.433127 
L 303.478314 168.765365 
L 303.803131 168.682372 
L 303.965539 168.848623 
L 304.127948 168.67779 
L 304.290356 169.010734 
L 304.452765 168.830914 
L 304.777582 168.982541 
L 304.93999 169.01135 
L 305.102398 168.923599 
L 305.427215 169.214517 
L 305.752032 169.360241 
L 305.914441 169.206412 
L 306.239258 169.408081 
L 306.401666 169.489048 
L 306.564075 169.710981 
L 307.376117 169.776266 
L 307.700934 170.035466 
L 307.863343 169.943663 
L 308.18816 170.297046 
L 308.350568 170.182952 
L 308.675385 170.521181 
L 308.837793 170.39211 
L 309.000202 170.433254 
L 309.16261 170.333873 
L 309.487427 170.607347 
L 309.649836 170.512547 
L 309.812244 170.844786 
L 309.974653 170.809985 
L 310.461878 171.174381 
L 310.949104 171.106101 
L 311.111512 171.352351 
L 311.273921 171.280106 
L 311.761146 171.794454 
L 311.923555 171.480541 
L 312.573188 172.111803 
L 312.735597 172.035946 
L 312.898005 172.223519 
L 313.222822 172.189775 
L 313.547639 172.231184 
L 313.710048 172.516375 
L 313.872456 172.301579 
L 314.359682 172.92729 
L 314.684499 172.7828 
L 315.009316 173.025614 
L 315.171724 173.084203 
L 315.334133 173.421727 
L 315.496541 173.272039 
L 315.821358 173.55864 
L 315.983766 173.451154 
L 316.146175 173.500228 
L 316.308583 173.700487 
L 316.6334 173.605511 
L 316.958217 173.924358 
L 317.120626 174.000216 
L 317.283034 174.377387 
L 317.445443 174.221796 
L 317.932668 174.419324 
L 318.095077 174.41025 
L 318.257485 174.657556 
L 318.419894 174.521084 
L 318.744711 174.910237 
L 319.069527 174.872089 
L 319.231936 175.159218 
L 319.394344 175.03975 
L 320.368795 175.867835 
L 320.693612 175.927393 
L 321.343246 176.412668 
L 321.505655 176.271261 
L 322.155289 176.822526 
L 322.317697 176.766051 
L 322.480106 176.960496 
L 322.642514 176.889308 
L 322.804922 176.967192 
L 323.129739 177.354407 
L 323.292148 177.261634 
L 323.616965 177.581097 
L 323.779373 177.604621 
L 323.941782 177.744882 
L 324.10419 177.604533 
L 324.266599 177.965846 
L 324.429007 177.716689 
L 324.591416 178.045667 
L 324.753824 178.081878 
L 325.24105 178.50548 
L 325.728275 178.62768 
L 326.053092 179.039476 
L 326.865134 179.492593 
L 327.027543 179.693909 
L 327.189951 179.545543 
L 327.514768 179.67065 
L 327.677177 179.692323 
L 327.839585 179.989585 
L 328.001994 180.004298 
L 328.164402 180.252486 
L 328.326811 180.111608 
L 328.489219 180.397504 
L 328.651628 180.271164 
L 328.814036 180.328695 
L 329.138853 180.718642 
L 329.46367 180.840665 
L 330.762938 181.794122 
L 331.087755 181.768837 
L 332.71184 182.919029 
L 332.874248 182.898324 
L 333.036657 183.275672 
L 333.199065 183.257082 
L 333.361473 183.398224 
L 333.523882 183.249065 
L 333.68629 183.639187 
L 333.848699 183.604827 
L 335.310375 184.524981 
L 335.472784 184.52225 
L 335.960009 184.973076 
L 336.122418 185.189898 
L 336.609643 185.221704 
L 336.772051 185.512534 
L 337.259277 185.626364 
L 337.584094 185.989615 
L 337.908911 186.231283 
L 338.071319 186.410397 
L 338.233728 186.225644 
L 338.720953 186.854175 
L 339.208179 187.025272 
L 339.370587 187.270112 
L 339.857813 187.42817 
L 340.020221 187.70182 
L 340.182629 187.619883 
L 340.507446 187.88578 
L 340.994672 188.28207 
L 341.15708 188.190266 
L 341.319489 188.48462 
L 341.481897 188.449378 
L 341.644306 188.784877 
L 342.131531 188.931305 
L 342.456348 189.308653 
L 343.268391 189.664679 
L 343.430799 189.962381 
L 343.593208 189.821327 
L 343.918024 190.242991 
L 344.242841 190.401225 
L 344.40525 190.474968 
L 344.567658 190.781921 
L 344.730067 190.65232 
L 345.217292 191.030196 
L 345.542109 191.229663 
L 345.704518 191.61635 
L 346.029335 191.471243 
L 346.191743 191.727448 
L 346.354152 191.597848 
L 346.51656 191.899162 
L 346.841377 191.839252 
L 347.166194 192.248581 
L 348.465462 193.272168 
L 348.62787 193.184241 
L 348.952687 193.586434 
L 349.115096 193.68511 
L 349.277504 193.61542 
L 349.439913 193.701937 
L 349.76473 194.065981 
L 349.927138 194.112941 
L 350.414364 194.503504 
L 350.576772 194.557511 
L 350.73918 194.874156 
L 350.901589 194.718653 
L 351.226406 194.991333 
L 352.525674 195.795367 
L 352.688082 196.173243 
L 353.012899 196.135711 
L 353.337716 196.398788 
L 353.98735 196.963708 
L 354.149759 196.802302 
L 354.474575 197.040182 
L 354.636984 197.133748 
L 354.961801 197.489598 
L 356.748294 198.834852 
L 356.910703 198.688512 
L 357.397928 199.219688 
L 357.560337 199.069824 
L 357.722745 199.443383 
L 358.047562 199.463911 
L 358.20997 199.521091 
L 358.372379 199.891038 
L 358.534787 199.885399 
L 358.697196 199.998348 
L 358.859604 199.948745 
L 359.022013 200.304508 
L 359.184421 200.315344 
L 359.34683 200.529788 
L 359.509238 200.442213 
L 359.834055 200.722295 
L 360.158872 201.041935 
L 360.321281 201.036472 
L 360.970915 201.514434 
L 361.133323 201.608881 
L 361.295732 201.566415 
L 361.45814 201.843413 
L 361.620548 201.886407 
L 361.782957 202.059355 
L 361.945365 202.03539 
L 362.270182 202.379964 
L 362.432591 202.401197 
L 362.594999 202.841362 
L 362.757408 202.732906 
L 363.244633 202.826913 
L 363.56945 203.258268 
L 363.894267 203.38038 
L 364.056676 203.39289 
L 364.543901 203.801162 
L 365.193535 204.309784 
L 365.355943 204.282825 
L 365.518352 204.440882 
L 365.68076 204.433041 
L 366.005577 204.73321 
L 366.492803 205.1058 
L 366.980028 205.393018 
L 367.142437 205.374868 
L 367.467254 205.787898 
L 367.629662 205.687284 
L 367.792071 206.001725 
L 367.954479 206.007716 
L 368.92893 206.792807 
L 369.091338 206.632371 
L 369.578564 207.173855 
L 370.715423 207.843002 
L 371.04024 208.197531 
L 371.202649 208.026874 
L 371.365057 208.403341 
L 371.852283 208.468714 
L 372.014691 208.805446 
L 372.177099 208.691528 
L 372.501916 208.818661 
L 372.664325 209.120944 
L 372.826733 209.109755 
L 373.313959 209.616791 
L 373.638776 209.644632 
L 374.126001 210.011848 
L 374.613227 210.320122 
L 374.775635 210.483731 
L 374.938044 210.443027 
L 375.912494 211.20988 
L 376.074903 211.134287 
L 376.724537 211.762202 
L 376.886945 211.650839 
L 377.211762 212.01083 
L 377.698988 212.1999 
L 377.861396 212.543945 
L 378.186213 212.616454 
L 378.348622 212.860148 
L 378.51103 212.712046 
L 378.998255 212.99618 
L 379.160664 212.894949 
L 379.323072 213.293354 
L 379.485481 213.297318 
L 379.972706 213.798363 
L 380.135115 213.675459 
L 380.297523 213.938272 
L 380.459932 213.945673 
L 380.62234 214.070163 
L 380.784749 213.96435 
L 380.947157 214.126285 
L 381.109566 214.478259 
L 381.434383 214.533411 
L 382.246425 215.100006 
L 382.408834 215.038597 
L 382.571242 215.232337 
L 382.73365 215.252249 
L 383.058467 215.555765 
L 383.220876 215.539554 
L 383.545693 215.812675 
L 383.708101 216.086061 
L 383.87051 216.027648 
L 384.032918 216.187468 
L 384.520144 216.292664 
L 384.682552 216.483232 
L 384.844961 216.495478 
L 385.169778 216.880931 
L 385.332186 216.86613 
L 385.819412 217.315194 
L 385.98182 217.508229 
L 386.144228 217.436865 
L 386.793862 217.815798 
L 386.956271 218.035881 
L 387.118679 217.894827 
L 387.605905 218.30213 
L 387.768313 218.280809 
L 387.930722 218.525825 
L 388.09313 218.41966 
L 388.255539 218.731899 
L 388.417947 218.71701 
L 388.905173 219.030659 
L 389.22999 219.046253 
L 389.554806 219.440957 
L 389.879623 219.691435 
L 390.042032 219.551351 
L 390.20444 219.907289 
L 390.366849 219.841652 
L 391.016483 220.426395 
L 391.3413 220.29098 
L 391.503708 220.656963 
L 391.666117 220.548331 
L 391.828525 221.055719 
L 392.153342 220.716873 
L 392.802976 221.289722 
L 393.127793 221.544342 
L 393.290201 221.471656 
L 393.45261 221.746099 
L 393.615018 221.641696 
L 393.777427 221.826626 
L 394.102244 221.919575 
L 394.427061 222.266791 
L 394.589469 222.40203 
L 394.751878 222.31886 
L 395.076695 222.577444 
L 395.239103 222.541058 
L 395.56392 222.794003 
L 395.888737 223.200337 
L 396.051146 223.132937 
L 396.538371 223.322712 
L 396.863188 223.66799 
L 397.025596 223.553103 
L 397.188005 223.933535 
L 397.350413 223.892302 
L 397.837639 224.092826 
L 398.000047 224.097231 
L 398.324864 224.452641 
L 398.487273 224.492904 
L 398.487273 224.492904 
" clip-path="url(#p9dcf6b47fd)" style="fill: none; stroke-dasharray: 1.85,0.8; stroke-dashoffset: 0; stroke: #80ffb4; stroke-width: 0.5"/>
   </g>
   <g id="line2d_17">
    <path d="M 73.832727 295.488 
L 200.836156 295.381307 
L 205.221185 295.134088 
L 208.306946 294.714715 
L 210.093439 294.293492 
L 213.016792 293.118719 
L 215.128102 291.701573 
L 216.42737 290.44222 
L 217.564229 289.130182 
L 218.701089 287.495684 
L 219.350723 286.457031 
L 220.64999 283.980616 
L 222.761301 278.852106 
L 223.735752 275.938785 
L 225.359836 270.525349 
L 226.659104 265.738418 
L 228.608006 257.491218 
L 228.932823 256.208958 
L 232.668218 238.313007 
L 233.317852 234.948949 
L 234.129894 230.905875 
L 243.224769 182.551461 
L 245.011262 173.510624 
L 245.498487 170.803377 
L 245.823304 169.09082 
L 246.635347 165.252411 
L 246.960164 163.588487 
L 247.934615 158.668695 
L 249.233882 152.604614 
L 250.208333 148.095209 
L 250.53315 146.578241 
L 252.157235 139.349695 
L 252.64446 137.474499 
L 255.080588 127.12832 
L 256.055038 123.566292 
L 258.00394 116.417215 
L 258.166349 115.952381 
L 258.491166 114.613206 
L 261.901744 103.801488 
L 262.226561 102.986442 
L 262.388969 102.152013 
L 262.551378 102.097477 
L 262.876194 100.879533 
L 266.611589 91.537646 
L 267.261223 90.143055 
L 267.423632 89.511793 
L 267.58604 89.352942 
L 268.073266 88.252704 
L 268.235674 88.232793 
L 268.398083 87.635098 
L 268.560491 87.539946 
L 269.047717 86.257687 
L 269.210125 86.518562 
L 270.184576 84.341963 
L 270.346984 84.165491 
L 270.509393 83.793166 
L 270.671801 83.700392 
L 270.83421 83.092037 
L 270.996618 83.170449 
L 271.159027 82.796185 
L 271.321435 82.820326 
L 271.483844 82.221045 
L 271.646252 82.327474 
L 271.971069 81.65313 
L 272.133478 81.504147 
L 272.295886 80.973234 
L 272.620703 80.753416 
L 272.783112 80.515712 
L 272.94552 80.543818 
L 273.270337 79.72234 
L 273.432745 79.665865 
L 273.757562 79.278298 
L 273.919971 78.91584 
L 274.244788 78.69981 
L 274.569605 78.447833 
L 274.732013 77.886702 
L 274.894422 78.061587 
L 275.544056 77.185045 
L 275.706464 77.275175 
L 276.031281 76.944522 
L 276.356098 76.577747 
L 276.680915 76.279428 
L 277.005732 76.060931 
L 277.16814 76.141194 
L 277.655366 75.418216 
L 277.817774 75.65354 
L 277.980183 75.277162 
L 278.142591 75.399362 
L 278.467408 74.849331 
L 278.629817 75.037961 
L 278.792225 74.648014 
L 278.954634 74.687308 
L 279.279451 74.977698 
L 279.441859 74.301062 
L 279.604268 74.357096 
L 279.929085 74.762196 
L 280.253901 74.140361 
L 280.41631 74.151022 
L 280.578718 73.940366 
L 280.741127 74.167409 
L 281.065944 73.916666 
L 281.228352 74.099746 
L 281.390761 73.648655 
L 281.715578 73.739138 
L 282.040395 73.85843 
L 282.202803 73.554825 
L 282.365212 73.720372 
L 282.52762 73.472977 
L 282.690029 73.584692 
L 282.852437 73.388221 
L 283.014846 73.628744 
L 283.502071 73.330954 
L 283.826888 73.739578 
L 284.151705 73.329192 
L 284.314113 73.6461 
L 284.476522 73.33298 
L 284.63893 73.564076 
L 284.801339 73.38875 
L 284.963747 73.683721 
L 285.126156 73.531742 
L 285.288564 74.057368 
L 285.450973 73.584252 
L 285.613381 73.5165 
L 285.77579 73.667862 
L 285.938198 73.64936 
L 286.263015 73.945036 
L 286.587832 73.806978 
L 286.750241 74.173224 
L 287.237466 73.959397 
L 287.399874 74.192695 
L 287.562283 74.067676 
L 287.724691 74.428901 
L 287.8871 74.321855 
L 288.049508 74.677177 
L 288.211917 74.411016 
L 288.536734 74.691097 
L 288.861551 74.589425 
L 289.023959 74.891444 
L 289.186368 74.947743 
L 289.511185 75.31443 
L 290.160819 75.321742 
L 290.323227 75.820409 
L 290.810452 75.620061 
L 291.135269 76.14789 
L 291.460086 76.228681 
L 291.622495 76.648935 
L 291.784903 76.675718 
L 291.947312 76.993243 
L 292.10972 76.510083 
L 292.434537 77.197027 
L 292.596946 77.176146 
L 292.921763 77.653051 
L 293.084171 77.686795 
L 293.24658 77.554551 
L 293.571397 78.23242 
L 293.733805 78.241054 
L 294.058622 78.735051 
L 294.221031 78.554527 
L 295.033073 79.475562 
L 295.195481 79.470364 
L 295.682707 80.248759 
L 295.845115 80.063213 
L 296.169932 80.580645 
L 297.144383 81.686257 
L 297.306792 81.778677 
L 297.4692 82.123779 
L 297.794017 82.319369 
L 297.956425 82.770019 
L 298.118834 82.766318 
L 298.281242 83.125252 
L 298.443651 82.996092 
L 298.930876 84.115184 
L 299.418102 84.300378 
L 299.905327 85.027497 
L 300.230144 85.391364 
L 300.392553 85.347225 
L 300.554961 85.998046 
L 300.71737 85.996548 
L 300.879778 86.680672 
L 301.042187 86.661113 
L 301.204595 86.764723 
L 301.529412 87.191056 
L 301.69182 87.238896 
L 302.016637 87.805314 
L 302.341454 88.258695 
L 302.666271 88.829607 
L 302.82868 88.861941 
L 302.991088 89.086164 
L 303.153497 89.680335 
L 303.315905 89.581835 
L 303.478314 89.774694 
L 303.965539 90.807444 
L 304.127948 90.978717 
L 304.290356 90.941449 
L 304.615173 91.686101 
L 304.777582 91.642578 
L 304.93999 92.357098 
L 305.264807 92.595946 
L 305.589624 93.404561 
L 305.752032 93.38139 
L 305.914441 93.530109 
L 306.076849 93.862435 
L 306.239258 93.878823 
L 306.564075 94.742326 
L 306.726483 94.78206 
L 307.0513 95.497021 
L 307.213709 95.64063 
L 307.376117 96.138503 
L 307.538526 96.134098 
L 308.025751 97.101035 
L 309.000202 98.599853 
L 309.16261 99.116845 
L 309.325019 99.071647 
L 309.487427 99.661677 
L 309.649836 99.614894 
L 310.624287 101.490002 
L 310.786695 101.546124 
L 311.111512 102.37562 
L 311.598738 103.20115 
L 311.761146 103.284937 
L 312.41078 104.520149 
L 312.735597 104.961812 
L 312.898005 105.448937 
L 313.060414 105.579682 
L 313.710048 106.925641 
L 313.872456 107.260963 
L 314.034865 107.318054 
L 314.359682 107.999888 
L 315.171724 109.569893 
L 315.334133 109.727246 
L 315.658949 110.365204 
L 315.821358 110.578063 
L 316.146175 111.664556 
L 316.308583 111.637949 
L 316.470992 112.060582 
L 316.6334 112.164632 
L 317.77026 114.474708 
L 317.932668 114.61999 
L 318.257485 115.297243 
L 320.206387 119.062525 
L 320.368795 119.012394 
L 320.531204 119.621014 
L 320.693612 119.739601 
L 321.180838 121.047411 
L 321.505655 121.217186 
L 321.830472 122.047298 
L 322.155289 122.835649 
L 322.317697 122.887983 
L 322.642514 123.607436 
L 322.967331 124.41517 
L 323.129739 124.460191 
L 323.292148 124.942998 
L 323.454556 124.978504 
L 324.266599 126.94339 
L 324.429007 126.80401 
L 324.753824 127.65932 
L 325.403458 129.053735 
L 326.865134 131.8475 
L 327.027543 131.841597 
L 327.514768 133.203061 
L 327.839585 133.572832 
L 328.001994 133.761814 
L 328.326811 134.610428 
L 328.814036 135.413316 
L 330.438121 138.674381 
L 330.600529 138.853056 
L 331.899797 141.715717 
L 332.062206 141.686995 
L 332.224614 142.193238 
L 332.387023 142.301341 
L 332.874248 143.444133 
L 333.361473 144.327547 
L 333.848699 145.356773 
L 334.173516 145.818701 
L 334.498333 146.399567 
L 334.660741 146.664671 
L 335.147967 147.898385 
L 335.797601 149.074744 
L 335.960009 149.470682 
L 336.122418 149.341522 
L 336.447235 150.154189 
L 336.609643 150.698317 
L 336.772051 150.618055 
L 336.93446 151.334954 
L 337.584094 152.125419 
L 338.233728 153.653752 
L 338.558545 154.287569 
L 338.720953 154.395319 
L 339.04577 155.153186 
L 339.370587 155.544895 
L 339.857813 156.631124 
L 340.020221 156.727685 
L 341.15708 158.978996 
L 341.319489 159.192383 
L 341.969123 160.666973 
L 342.131531 160.814634 
L 343.105982 162.641374 
L 343.268391 162.69776 
L 343.918024 164.02275 
L 344.730067 165.431526 
L 345.217292 166.422603 
L 345.704518 167.381611 
L 345.866926 167.564425 
L 346.191743 168.145557 
L 346.354152 168.331015 
L 346.841377 169.216279 
L 347.815828 171.10707 
L 348.303053 171.962908 
L 349.76473 174.312455 
L 350.089547 175.096753 
L 350.251955 175.243357 
L 351.551223 177.535283 
L 351.713631 177.662064 
L 351.87604 178.134828 
L 352.200857 178.404866 
L 352.525674 179.294007 
L 352.688082 179.413828 
L 353.337716 180.501202 
L 357.885153 188.019433 
L 358.047562 188.130179 
L 358.697196 189.445566 
L 358.859604 189.527942 
L 359.184421 190.079383 
L 359.671647 190.894605 
L 360.483689 192.081977 
L 360.646098 192.219507 
L 360.970915 192.699495 
L 361.133323 192.875966 
L 361.45814 193.620882 
L 361.620548 193.727752 
L 361.945365 194.440245 
L 362.270182 194.761559 
L 362.432591 194.947898 
L 363.082225 196.22029 
L 363.407042 196.494821 
L 364.381493 198.016722 
L 364.543901 198.342089 
L 364.70631 198.391515 
L 365.031126 198.974055 
L 365.843169 200.176405 
L 366.167986 200.61983 
L 366.655211 201.268977 
L 367.792071 202.999244 
L 368.116888 203.228137 
L 368.441704 203.859399 
L 368.604113 203.94204 
L 369.416155 205.138575 
L 369.578564 205.315046 
L 369.903381 205.855385 
L 370.715423 206.870427 
L 371.202649 207.730758 
L 371.852283 208.46008 
L 372.014691 208.896633 
L 372.177099 208.693818 
L 372.501916 209.466046 
L 372.826733 209.887269 
L 372.989142 209.960131 
L 373.15155 210.386905 
L 373.313959 210.499237 
L 373.963593 211.531106 
L 374.126001 211.478332 
L 375.100452 212.889927 
L 375.262861 212.89865 
L 375.425269 213.356083 
L 375.587677 213.400928 
L 375.912494 213.833076 
L 376.237311 214.394825 
L 376.39972 214.418084 
L 376.724537 215.025999 
L 376.886945 214.939393 
L 377.049354 215.437002 
L 377.211762 215.459556 
L 377.536579 215.990909 
L 377.698988 215.901484 
L 377.861396 216.407639 
L 378.023805 216.518121 
L 378.186213 216.960401 
L 378.348622 216.943221 
L 379.647889 218.548203 
L 379.810298 218.439924 
L 379.972706 219.029513 
L 380.135115 218.988721 
L 380.297523 219.128894 
L 380.62234 219.718571 
L 380.947157 220.132041 
L 381.109566 220.138649 
L 381.596791 220.857398 
L 381.7592 220.862332 
L 381.921608 221.302145 
L 382.084017 221.365139 
L 382.571242 222.116574 
L 382.896059 222.522115 
L 383.058467 222.487226 
L 383.220876 222.961752 
L 383.545693 223.075494 
L 383.87051 223.588697 
L 384.032918 223.570283 
L 384.357735 224.085866 
L 384.520144 224.250443 
L 384.682552 224.586999 
L 384.844961 224.577219 
L 385.169778 224.89263 
L 385.494595 225.448564 
L 385.657003 225.413498 
L 385.98182 226.028373 
L 386.793862 226.78395 
L 389.392398 229.565027 
L 389.717215 229.91471 
L 390.20444 230.480335 
L 390.529257 230.754073 
L 390.691666 231.077854 
L 391.016483 231.15653 
L 391.666117 232.030429 
L 391.828525 232.014923 
L 392.478159 232.897104 
L 392.802976 232.969085 
L 393.777427 234.131083 
L 394.427061 234.670894 
L 394.589469 235.021986 
L 394.751878 234.926394 
L 394.914286 235.123129 
L 395.076695 235.49986 
L 395.239103 235.406647 
L 395.56392 235.844786 
L 395.888737 235.935532 
L 396.213554 236.431115 
L 396.375963 236.476224 
L 396.863188 237.004053 
L 398.487273 238.480228 
L 398.487273 238.480228 
" clip-path="url(#p9dcf6b47fd)" style="fill: none; stroke-dasharray: 1.85,0.8; stroke-dashoffset: 0; stroke: #ff0000; stroke-width: 0.5"/>
   </g>
   <g id="patch_3">
    <path d="M 57.6 307.584 
L 57.6 41.472 
" style="fill: none; stroke: #000000; stroke-width: 0.8; stroke-linejoin: miter; stroke-linecap: square"/>
   </g>
   <g id="patch_4">
    <path d="M 414.72 307.584 
L 414.72 41.472 
" style="fill: none; stroke: #000000; stroke-width: 0.8; stroke-linejoin: miter; stroke-linecap: square"/>
   </g>
   <g id="patch_5">
    <path d="M 57.6 307.584 
L 414.72 307.584 
" style="fill: none; stroke: #000000; stroke-width: 0.8; stroke-linejoin: miter; stroke-linecap: square"/>
   </g>
   <g id="patch_6">
    <path d="M 57.6 41.472 
L 414.72 41.472 
" style="fill: none; stroke: #000000; stroke-width: 0.8; stroke-linejoin: miter; stroke-linecap: square"/>
   </g>
   <g id="text_18">
    <!-- Heating Rate ($^{\circ}C.s^{-1}$) -->
    <g transform="translate(271.872 68.0832) scale(0.12 -0.12)">
     <defs>
      <path id="DejaVuSans-48" d="M 628 4666 
L 1259 4666 
L 1259 2753 
L 3553 2753 
L 3553 4666 
L 4184 4666 
L 4184 0 
L 3553 0 
L 3553 2222 
L 1259 2222 
L 1259 0 
L 628 0 
L 628 4666 
z
" transform="scale(0.015625)"/>
      <path id="DejaVuSans-67" d="M 2906 1791 
Q 2906 2416 2648 2759 
Q 2391 3103 1925 3103 
Q 1463 3103 1205 2759 
Q 947 2416 947 1791 
Q 947 1169 1205 825 
Q 1463 481 1925 481 
Q 2391 481 2648 825 
Q 2906 1169 2906 1791 
z
M 3481 434 
Q 3481 -459 3084 -895 
Q 2688 -1331 1869 -1331 
Q 1566 -1331 1297 -1286 
Q 1028 -1241 775 -1147 
L 775 -588 
Q 1028 -725 1275 -790 
Q 1522 -856 1778 -856 
Q 2344 -856 2625 -561 
Q 2906 -266 2906 331 
L 2906 616 
Q 2728 306 2450 153 
Q 2172 0 1784 0 
Q 1141 0 747 490 
Q 353 981 353 1791 
Q 353 2603 747 3093 
Q 1141 3584 1784 3584 
Q 2172 3584 2450 3431 
Q 2728 3278 2906 2969 
L 2906 3500 
L 3481 3500 
L 3481 434 
z
" transform="scale(0.015625)"/>
      <path id="DejaVuSans-52" d="M 2841 2188 
Q 3044 2119 3236 1894 
Q 3428 1669 3622 1275 
L 4263 0 
L 3584 0 
L 2988 1197 
Q 2756 1666 2539 1819 
Q 2322 1972 1947 1972 
L 1259 1972 
L 1259 0 
L 628 0 
L 628 4666 
L 2053 4666 
Q 2853 4666 3247 4331 
Q 3641 3997 3641 3322 
Q 3641 2881 3436 2590 
Q 3231 2300 2841 2188 
z
M 1259 4147 
L 1259 2491 
L 2053 2491 
Q 2509 2491 2742 2702 
Q 2975 2913 2975 3322 
Q 2975 3731 2742 3939 
Q 2509 4147 2053 4147 
L 1259 4147 
z
" transform="scale(0.015625)"/>
      <path id="DejaVuSans-Oblique-73" d="M 3200 3397 
L 3091 2853 
Q 2863 2978 2609 3040 
Q 2356 3103 2088 3103 
Q 1634 3103 1373 2948 
Q 1113 2794 1113 2528 
Q 1113 2219 1719 2053 
Q 1766 2041 1788 2034 
L 1972 1978 
Q 2547 1819 2739 1644 
Q 2931 1469 2931 1166 
Q 2931 609 2489 259 
Q 2047 -91 1331 -91 
Q 1053 -91 747 -37 
Q 441 16 72 128 
L 184 722 
Q 500 559 806 475 
Q 1113 391 1394 391 
Q 1816 391 2080 572 
Q 2344 753 2344 1031 
Q 2344 1331 1650 1516 
L 1591 1531 
L 1394 1581 
Q 956 1697 753 1886 
Q 550 2075 550 2369 
Q 550 2928 970 3256 
Q 1391 3584 2113 3584 
Q 2397 3584 2667 3537 
Q 2938 3491 3200 3397 
z
" transform="scale(0.015625)"/>
     </defs>
     <use xlink:href="#DejaVuSans-48" transform="translate(0 0.684375)"/>
     <use xlink:href="#DejaVuSans-65" transform="translate(75.195312 0.684375)"/>
     <use xlink:href="#DejaVuSans-61" transform="translate(136.71875 0.684375)"/>
     <use xlink:href="#DejaVuSans-74" transform="translate(197.998047 0.684375)"/>
     <use xlink:href="#DejaVuSans-69" transform="translate(237.207031 0.684375)"/>
     <use xlink:href="#DejaVuSans-6e" transform="translate(264.990234 0.684375)"/>
     <use xlink:href="#DejaVuSans-67" transform="translate(328.369141 0.684375)"/>
     <use xlink:href="#DejaVuSans-20" transform="translate(391.845703 0.684375)"/>
     <use xlink:href="#DejaVuSans-52" transform="translate(423.632812 0.684375)"/>
     <use xlink:href="#DejaVuSans-61" transform="translate(493.115234 0.684375)"/>
     <use xlink:href="#DejaVuSans-74" transform="translate(554.394531 0.684375)"/>
     <use xlink:href="#DejaVuSans-65" transform="translate(593.603516 0.684375)"/>
     <use xlink:href="#DejaVuSans-20" transform="translate(655.126953 0.684375)"/>
     <use xlink:href="#DejaVuSans-28" transform="translate(686.914062 0.684375)"/>
     <use xlink:href="#DejaVuSans-2218" transform="translate(726.884766 38.965625) scale(0.7)"/>
     <use xlink:href="#DejaVuSans-Oblique-43" transform="translate(773.4375 0.684375)"/>
     <use xlink:href="#DejaVuSans-2e" transform="translate(843.261719 0.684375)"/>
     <use xlink:href="#DejaVuSans-Oblique-73" transform="translate(894.53125 0.684375)"/>
     <use xlink:href="#DejaVuSans-2212" transform="translate(951.280755 38.965625) scale(0.7)"/>
     <use xlink:href="#DejaVuSans-31" transform="translate(1009.933099 38.965625) scale(0.7)"/>
     <use xlink:href="#DejaVuSans-29" transform="translate(1057.203607 0.684375)"/>
    </g>
   </g>
   <g id="legend_1">
    <g id="patch_7">
     <path d="M 314.584 120.117575 
L 352.9465 120.117575 
Q 354.9465 120.117575 354.9465 118.117575 
L 354.9465 75.0832 
Q 354.9465 73.0832 352.9465 73.0832 
L 314.584 73.0832 
Q 312.584 73.0832 312.584 75.0832 
L 312.584 118.117575 
Q 312.584 120.117575 314.584 120.117575 
z
" style="fill: #ffffff; opacity: 0.8; stroke: #cccccc; stroke-linejoin: miter"/>
    </g>
    <g id="line2d_18">
     <path d="M 316.584 81.181637 
L 326.584 81.181637 
L 336.584 81.181637 
" style="fill: none; stroke-dasharray: 1.85,0.8; stroke-dashoffset: 0; stroke: #8000ff; stroke-width: 0.5"/>
    </g>
    <g id="text_19">
     <!-- 5 -->
     <g transform="translate(344.584 84.681637) scale(0.1 -0.1)">
      <defs>
       <path id="DejaVuSans-35" d="M 691 4666 
L 3169 4666 
L 3169 4134 
L 1269 4134 
L 1269 2991 
Q 1406 3038 1543 3061 
Q 1681 3084 1819 3084 
Q 2600 3084 3056 2656 
Q 3513 2228 3513 1497 
Q 3513 744 3044 326 
Q 2575 -91 1722 -91 
Q 1428 -91 1123 -41 
Q 819 9 494 109 
L 494 744 
Q 775 591 1075 516 
Q 1375 441 1709 441 
Q 2250 441 2565 725 
Q 2881 1009 2881 1497 
Q 2881 1984 2565 2268 
Q 2250 2553 1709 2553 
Q 1456 2553 1204 2497 
Q 953 2441 691 2322 
L 691 4666 
z
" transform="scale(0.015625)"/>
      </defs>
      <use xlink:href="#DejaVuSans-35"/>
     </g>
    </g>
    <g id="line2d_19">
     <path d="M 316.584 95.859762 
L 326.584 95.859762 
L 336.584 95.859762 
" style="fill: none; stroke-dasharray: 1.85,0.8; stroke-dashoffset: 0; stroke: #80ffb4; stroke-width: 0.5"/>
    </g>
    <g id="text_20">
     <!-- 5 -->
     <g transform="translate(344.584 99.359762) scale(0.1 -0.1)">
      <use xlink:href="#DejaVuSans-35"/>
     </g>
    </g>
    <g id="line2d_20">
     <path d="M 316.584 110.537887 
L 326.584 110.537887 
L 336.584 110.537887 
" style="fill: none; stroke-dasharray: 1.85,0.8; stroke-dashoffset: 0; stroke: #ff0000; stroke-width: 0.5"/>
    </g>
    <g id="text_21">
     <!-- 5 -->
     <g transform="translate(344.584 114.037887) scale(0.1 -0.1)">
      <use xlink:href="#DejaVuSans-35"/>
     </g>
    </g>
   </g>
  </g>
 </g>
 <defs>
  <clipPath id="p9dcf6b47fd">
   <rect x="57.6" y="41.472" width="357.12" height="266.112"/>
  </clipPath>
 </defs>
</svg>
